<?xml version="1.0" encoding="UTF-8" standalone="no"?>
<!-- Created with Inkscape (http://www.inkscape.org/) -->

<svg
   version="1.1"
   id="svg2"
   width="381.86667"
   height="103.6"
   viewBox="0 0 381.86667 103.6"
   sodipodi:docname="test_table_scores.svg"
   inkscape:version="1.2.2 (b0a8486541, 2022-12-01)"
   xmlns:inkscape="http://www.inkscape.org/namespaces/inkscape"
   xmlns:sodipodi="http://sodipodi.sourceforge.net/DTD/sodipodi-0.dtd"
   xmlns="http://www.w3.org/2000/svg"
   xmlns:svg="http://www.w3.org/2000/svg">
  <defs
     id="defs6">
    <clipPath
       clipPathUnits="userSpaceOnUse"
       id="clipPath1178">
      <g
         id="g1182">
        <path
           d="M 0,0.028 H 595.275 V 841.889 H 0 Z"
           clip-rule="evenodd"
           id="path1180" />
      </g>
    </clipPath>
    <clipPath
       clipPathUnits="userSpaceOnUse"
       id="clipPath1184">
      <g
         id="g1188">
        <path
           d="M 0,0.028 H 595.275 V 841.889 H 0 Z"
           clip-rule="evenodd"
           id="path1186" />
      </g>
    </clipPath>
    <clipPath
       clipPathUnits="userSpaceOnUse"
       id="clipPath1190">
      <g
         id="g1194">
        <path
           d="M 0,0.028 H 595.275 V 841.889 H 0 Z"
           clip-rule="evenodd"
           id="path1192" />
      </g>
    </clipPath>
    <clipPath
       clipPathUnits="userSpaceOnUse"
       id="clipPath1196">
      <g
         id="g1200">
        <path
           d="M 0,0.028 H 595.275 V 841.889 H 0 Z"
           clip-rule="evenodd"
           id="path1198" />
      </g>
    </clipPath>
    <clipPath
       clipPathUnits="userSpaceOnUse"
       id="clipPath1202">
      <g
         id="g1206">
        <path
           d="M 0,0.028 H 595.275 V 841.889 H 0 Z"
           clip-rule="evenodd"
           id="path1204" />
      </g>
    </clipPath>
    <clipPath
       clipPathUnits="userSpaceOnUse"
       id="clipPath1208">
      <g
         id="g1212">
        <path
           d="M 0,0.028 H 595.275 V 841.889 H 0 Z"
           clip-rule="evenodd"
           id="path1210" />
      </g>
    </clipPath>
    <clipPath
       clipPathUnits="userSpaceOnUse"
       id="clipPath1214">
      <g
         id="g1218">
        <path
           d="M 0,0.028 H 595.275 V 841.889 H 0 Z"
           clip-rule="evenodd"
           id="path1216" />
      </g>
    </clipPath>
    <clipPath
       clipPathUnits="userSpaceOnUse"
       id="clipPath1220">
      <g
         id="g1224">
        <path
           d="M 0,0.028 H 595.275 V 841.889 H 0 Z"
           clip-rule="evenodd"
           id="path1222" />
      </g>
    </clipPath>
    <clipPath
       clipPathUnits="userSpaceOnUse"
       id="clipPath1226">
      <g
         id="g1230">
        <path
           d="M 0,0.028 H 595.275 V 841.889 H 0 Z"
           clip-rule="evenodd"
           id="path1228" />
      </g>
    </clipPath>
    <clipPath
       clipPathUnits="userSpaceOnUse"
       id="clipPath1232">
      <g
         id="g1236">
        <path
           d="M 0,0.028 H 595.275 V 841.889 H 0 Z"
           clip-rule="evenodd"
           id="path1234" />
      </g>
    </clipPath>
    <clipPath
       clipPathUnits="userSpaceOnUse"
       id="clipPath1238">
      <g
         id="g1242">
        <path
           d="M 0,0.028 H 595.275 V 841.889 H 0 Z"
           clip-rule="evenodd"
           id="path1240" />
      </g>
    </clipPath>
    <clipPath
       clipPathUnits="userSpaceOnUse"
       id="clipPath1244">
      <g
         id="g1248">
        <path
           d="M 0,0.028 H 595.275 V 841.889 H 0 Z"
           clip-rule="evenodd"
           id="path1246" />
      </g>
    </clipPath>
    <clipPath
       clipPathUnits="userSpaceOnUse"
       id="clipPath1250">
      <g
         id="g1254">
        <path
           d="M 0,0.028 H 595.275 V 841.889 H 0 Z"
           clip-rule="evenodd"
           id="path1252" />
      </g>
    </clipPath>
    <clipPath
       clipPathUnits="userSpaceOnUse"
       id="clipPath1256">
      <g
         id="g1260">
        <path
           d="M 0,0.028 H 595.275 V 841.889 H 0 Z"
           clip-rule="evenodd"
           id="path1258" />
      </g>
    </clipPath>
    <clipPath
       clipPathUnits="userSpaceOnUse"
       id="clipPath1262">
      <g
         id="g1266">
        <path
           d="M 0,0.028 H 595.275 V 841.889 H 0 Z"
           clip-rule="evenodd"
           id="path1264" />
      </g>
    </clipPath>
    <clipPath
       clipPathUnits="userSpaceOnUse"
       id="clipPath1268">
      <g
         id="g1272">
        <path
           d="M 0,0.028 H 595.275 V 841.889 H 0 Z"
           clip-rule="evenodd"
           id="path1270" />
      </g>
    </clipPath>
    <clipPath
       clipPathUnits="userSpaceOnUse"
       id="clipPath1274">
      <g
         id="g1278">
        <path
           d="M 0,0.028 H 595.275 V 841.889 H 0 Z"
           clip-rule="evenodd"
           id="path1276" />
      </g>
    </clipPath>
    <clipPath
       clipPathUnits="userSpaceOnUse"
       id="clipPath1280">
      <g
         id="g1284">
        <path
           d="M 0,0.028 H 595.275 V 841.889 H 0 Z"
           clip-rule="evenodd"
           id="path1282" />
      </g>
    </clipPath>
    <clipPath
       clipPathUnits="userSpaceOnUse"
       id="clipPath1286">
      <g
         id="g1290">
        <path
           d="M 0,0.028 H 595.275 V 841.889 H 0 Z"
           clip-rule="evenodd"
           id="path1288" />
      </g>
    </clipPath>
    <clipPath
       clipPathUnits="userSpaceOnUse"
       id="clipPath1292">
      <g
         id="g1296">
        <path
           d="M 0,0.028 H 595.275 V 841.889 H 0 Z"
           clip-rule="evenodd"
           id="path1294" />
      </g>
    </clipPath>
    <clipPath
       clipPathUnits="userSpaceOnUse"
       id="clipPath1298">
      <g
         id="g1302">
        <path
           d="M 0,0.028 H 595.275 V 841.889 H 0 Z"
           clip-rule="evenodd"
           id="path1300" />
      </g>
    </clipPath>
    <clipPath
       clipPathUnits="userSpaceOnUse"
       id="clipPath1304">
      <g
         id="g1308">
        <path
           d="M 0,0.028 H 595.275 V 841.889 H 0 Z"
           clip-rule="evenodd"
           id="path1306" />
      </g>
    </clipPath>
    <clipPath
       clipPathUnits="userSpaceOnUse"
       id="clipPath1310">
      <g
         id="g1314">
        <path
           d="M 0,0.028 H 595.275 V 841.889 H 0 Z"
           clip-rule="evenodd"
           id="path1312" />
      </g>
    </clipPath>
    <clipPath
       clipPathUnits="userSpaceOnUse"
       id="clipPath1316">
      <g
         id="g1320">
        <path
           d="M 0,0.028 H 595.275 V 841.889 H 0 Z"
           clip-rule="evenodd"
           id="path1318" />
      </g>
    </clipPath>
    <clipPath
       clipPathUnits="userSpaceOnUse"
       id="clipPath1322">
      <g
         id="g1326">
        <path
           d="M 0,0.028 H 595.275 V 841.889 H 0 Z"
           clip-rule="evenodd"
           id="path1324" />
      </g>
    </clipPath>
  </defs>
  <sodipodi:namedview
     id="namedview4"
     pagecolor="#ffffff"
     bordercolor="#666666"
     borderopacity="1.0"
     inkscape:showpageshadow="2"
     inkscape:pageopacity="0.0"
     inkscape:pagecheckerboard="0"
     inkscape:deskcolor="#d1d1d1"
     showgrid="false"
     inkscape:zoom="0.7474257"
     inkscape:cx="224.10254"
     inkscape:cy="-268.92305"
     inkscape:window-width="1920"
     inkscape:window-height="1011"
     inkscape:window-x="0"
     inkscape:window-y="32"
     inkscape:window-maximized="1"
     inkscape:current-layer="g10">
    <inkscape:page
       x="0"
       y="0"
       id="page8"
       width="381.86667"
       height="103.6" />
  </sodipodi:namedview>
  <g
     id="g10"
     inkscape:groupmode="layer"
     inkscape:label="Page 1"
     transform="matrix(1.3333333,0,0,-1.3333333,-75.533331,486.25199)">
    <g
       id="g348"
       clip-path="url(#clipPath1226)">
      <path
         d="m 56.65,364.639 h 286.4"
         style="fill:none;stroke:#000000;stroke-width:0.1;stroke-linecap:butt;stroke-linejoin:round;stroke-miterlimit:10;stroke-dasharray:none;stroke-opacity:1"
         id="path350" />
    </g>
    <g
       id="g352"
       clip-path="url(#clipPath1220)">
      <path
         d="m 56.65,345.239 h 286.4"
         style="fill:none;stroke:#000000;stroke-width:0.1;stroke-linecap:butt;stroke-linejoin:round;stroke-miterlimit:10;stroke-dasharray:none;stroke-opacity:1"
         id="path354" />
    </g>
    <g
       id="g356"
       clip-path="url(#clipPath1214)">
      <path
         d="m 56.65,325.839 h 286.4"
         style="fill:none;stroke:#000000;stroke-width:0.1;stroke-linecap:butt;stroke-linejoin:round;stroke-miterlimit:10;stroke-dasharray:none;stroke-opacity:1"
         id="path358" />
    </g>
    <g
       id="g360"
       clip-path="url(#clipPath1208)">
      <path
         d="m 56.65,306.439 h 286.4"
         style="fill:none;stroke:#000000;stroke-width:0.1;stroke-linecap:butt;stroke-linejoin:round;stroke-miterlimit:10;stroke-dasharray:none;stroke-opacity:1"
         id="path362" />
    </g>
    <g
       id="g364"
       clip-path="url(#clipPath1202)">
      <path
         d="m 56.65,287.039 h 286.4"
         style="fill:none;stroke:#000000;stroke-width:0.1;stroke-linecap:butt;stroke-linejoin:round;stroke-miterlimit:10;stroke-dasharray:none;stroke-opacity:1"
         id="path366" />
    </g>
    <g
       id="g368"
       clip-path="url(#clipPath1196)">
      <path
         d="m 56.7,364.689 v -77.7"
         style="fill:none;stroke:#000000;stroke-width:0.1;stroke-linecap:butt;stroke-linejoin:round;stroke-miterlimit:10;stroke-dasharray:none;stroke-opacity:1"
         id="path370" />
    </g>
    <g
       id="g372"
       clip-path="url(#clipPath1190)">
      <path
         d="m 108,364.689 v -77.7"
         style="fill:none;stroke:#000000;stroke-width:0.1;stroke-linecap:butt;stroke-linejoin:round;stroke-miterlimit:10;stroke-dasharray:none;stroke-opacity:1"
         id="path374" />
    </g>
    <g
       id="g376"
       clip-path="url(#clipPath1184)">
      <path
         d="m 226.7,364.689 v -77.7"
         style="fill:none;stroke:#000000;stroke-width:0.1;stroke-linecap:butt;stroke-linejoin:round;stroke-miterlimit:10;stroke-dasharray:none;stroke-opacity:1"
         id="path378" />
    </g>
    <g
       id="g380"
       clip-path="url(#clipPath1178)">
      <path
         d="m 343,364.689 v -77.7"
         style="fill:none;stroke:#000000;stroke-width:0.1;stroke-linecap:butt;stroke-linejoin:round;stroke-miterlimit:10;stroke-dasharray:none;stroke-opacity:1"
         id="path382" />
    </g>
    <g
       id="g384">
      <g
         aria-label="id"
         transform="matrix(1,0,0,-1,77.2,351.389)"
         id="text388"
         style="font-weight:bold;font-size:12px;font-family:HelveticaNeueCyr;-inkscape-font-specification:HelveticaNeueCyr-Bold">
        <path
           d="m 2.4,-8.544 v 1.44 H 0.696 v -1.44 z m 0,2.352 V 0 H 0.696 v -6.192 z"
           id="path1425" />
        <path
           d="M 9.78,0 H 8.172 V -0.792 Q 7.56,0.168 6.3,0.168 q -1.284,0 -2.052,-0.888 -0.756,-0.9 -0.756,-2.4 0,-1.464 0.732,-2.352 0.744,-0.888 1.98,-0.888 0.576,0 1.08,0.24 0.516,0.24 0.804,0.696 v -3.12 H 9.78 Z M 8.148,-3.108 q 0,-0.9 -0.396,-1.404 -0.384,-0.504 -1.08,-0.504 -0.696,0 -1.08,0.504 -0.384,0.504 -0.384,1.392 0,0.9 0.384,1.416 0.396,0.504 1.08,0.504 0.708,0 1.092,-0.492 0.384,-0.504 0.384,-1.416 z"
           id="path1427" />
      </g>
    </g>
    <g
       id="g390">
      <g
         aria-label="name"
         transform="matrix(1,0,0,-1,108.9,351.389)"
         id="text394"
         style="font-weight:bold;font-size:12px;font-family:HelveticaNeueCyr;-inkscape-font-specification:HelveticaNeueCyr-Bold">
        <path
           d="M 6.48,0 H 4.752 v -3.612 q 0,-0.66 -0.216,-0.996 -0.216,-0.348 -0.84,-0.348 -1.344,0 -1.344,1.632 V 0 H 0.66 v -6.192 h 1.62 v 0.864 q 0.768,-1.032 2.052,-1.032 0.996,0 1.572,0.576 0.576,0.576 0.576,1.644 z"
           id="path1416" />
        <path
           d="m 13.512,0 h -1.728 q -0.084,-0.24 -0.12,-0.6 -0.78,0.78 -2.0039999,0.78 -1.032,0 -1.62,-0.492 -0.588,-0.504 -0.588,-1.38 0,-0.396 0.096,-0.696 0.108,-0.3 0.336,-0.504 0.24,-0.204 0.444,-0.336 0.216,-0.132 0.588,-0.216 0.372,-0.084 0.6,-0.12 0.228,-0.048 0.6359999,-0.096 0.9,-0.12 1.2,-0.252 0.312,-0.132 0.312,-0.492 0,-0.828 -1.116,-0.828 -0.5879999,0 -0.8639999,0.216 -0.276,0.204 -0.36,0.732 h -1.596 q 0.144,-2.088 2.8679999,-2.088 2.7,0 2.7,2.016 v 2.676 q 0,1.176 0.216,1.68 z m -1.86,-3.012 q -0.3,0.18 -1.2,0.324 -0.7559999,0.12 -0.9839999,0.3 -0.264,0.216 -0.264,0.624 0,0.384 0.24,0.612 0.252,0.216 0.6959999,0.216 0.684,0 1.092,-0.36 0.42,-0.372 0.42,-1.02 z"
           id="path1418" />
        <path
           d="m 24.18,0 h -1.728 v -3.696 q 0,-0.612 -0.192,-0.936 -0.192,-0.336 -0.792,-0.336 -1.188,0 -1.188,1.488 V 0 h -1.704 v -3.768 q 0,-0.576 -0.192,-0.888 -0.192,-0.324 -0.744,-0.324 -1.236,0 -1.236,1.62 V 0 H 14.7 v -6.192 h 1.62 v 0.852 q 0.732,-1.02 1.968,-1.02 1.284,0 1.752,1.02 0.744,-1.02 2.028,-1.02 1.02,0 1.56,0.6 0.552,0.588 0.552,1.596 z"
           id="path1420" />
        <path
           d="m 31.343999,-1.92 q -0.288,0.996 -1.068,1.548 -0.768,0.552 -1.836,0.552 -1.428,0 -2.304,-0.888 -0.864,-0.888 -0.864,-2.352 0,-1.44 0.876,-2.376 0.876,-0.936 2.232,-0.936 1.404,0 2.232,0.96 0.828,0.948 0.828,2.58 v 0.168 h -4.44 q 0.012,0.804 0.384,1.224 0.384,0.42 1.068,0.42 0.9,0 1.26,-0.9 z m -1.632,-1.824 q -0.06,-0.612 -0.396,-0.996 -0.336,-0.396 -0.936,-0.396 -0.564,0 -0.936,0.372 -0.372,0.372 -0.444,1.02 z"
           id="path1422" />
      </g>
    </g>
    <g
       id="g396">
      <g
         aria-label="score"
         transform="matrix(1,0,0,-1,227.7,351.389)"
         id="text400"
         style="font-weight:bold;font-size:12px;font-family:HelveticaNeueCyr;-inkscape-font-specification:HelveticaNeueCyr-Bold">
        <path
           d="M 5.88,-4.392 H 4.296 Q 4.224,-4.86 3.936,-5.052 3.66,-5.244 3.12,-5.244 q -0.456,0 -0.708,0.168 -0.252,0.156 -0.252,0.444 0,0.336 0.288,0.468 0.288,0.132 1.032,0.288 0.132,0.024 0.192,0.036 0.432,0.084 0.684,0.156 0.264,0.06 0.636,0.216 0.372,0.144 0.576,0.336 0.204,0.18 0.36,0.492 0.156,0.312 0.156,0.72 0,0.972 -0.756,1.536 Q 4.572,0.18 3.252,0.18 1.992,0.18 1.176,-0.36 0.36,-0.9 0.348,-2.016 h 1.62 q 0.084,1.032 1.32,1.032 0.516,0 0.816,-0.204 Q 4.416,-1.404 4.416,-1.752 4.416,-2.1 4.14,-2.244 3.864,-2.388 3.12,-2.556 3.06,-2.568 3.024,-2.58 2.94,-2.604 2.652,-2.664 2.364,-2.724 2.244,-2.748 2.136,-2.784 1.872,-2.856 1.62,-2.928 1.5,-2.988 1.38,-3.06 1.176,-3.156 0.984,-3.264 0.888,-3.384 0.792,-3.504 0.672,-3.66 0.564,-3.828 0.516,-4.032 0.48,-4.236 0.48,-4.476 q 0,-0.912 0.708,-1.404 0.708,-0.492 2.004,-0.492 1.164,0 1.908,0.48 0.744,0.48 0.78,1.5 z"
           id="path1405" />
        <path
           d="m 12.948,-2.388 q -0.156,1.2 -0.948,1.872 -0.78,0.672 -2.0160001,0.672 -1.428,0 -2.292,-0.876 -0.864,-0.876 -0.864,-2.328 0,-1.5 0.864,-2.412 0.876,-0.912 2.3160001,-0.912 1.236,0 2.016,0.636 0.78,0.624 0.888,1.704 H 11.244 Q 11.052,-5.1 10.02,-5.1 q -0.6960001,0 -1.0920001,0.54 -0.384,0.528 -0.384,1.476 0,0.924 0.372,1.44 0.384,0.504 1.068,0.504 Q 11.1,-1.14 11.304,-2.388 Z"
           id="path1407" />
        <path
           d="m 16.98,-6.372 q 1.428,0 2.292,0.9 0.876,0.9 0.876,2.376 0,1.488 -0.876,2.388 -0.864,0.9 -2.316,0.9 -1.452,0 -2.328,-0.9 -0.876,-0.9 -0.876,-2.388 0,-1.476 0.888,-2.376 0.888,-0.9 2.34,-0.9 z m -0.048,1.296 q -0.684,0 -1.08,0.528 -0.396,0.528 -0.396,1.452 0,0.948 0.396,1.476 0.396,0.528 1.104,0.528 0.708,0 1.092,-0.528 0.396,-0.54 0.396,-1.488 0,-0.924 -0.408,-1.44 -0.396,-0.528 -1.104,-0.528 z"
           id="path1409" />
        <path
           d="m 25.248,-6.3 v 1.572 q -0.36,-0.072 -0.66,-0.072 -0.84,0 -1.236,0.54 -0.396,0.528 -0.396,1.428 V 0 h -1.704 v -6.192 h 1.62 v 1.14 q 0.612,-1.284 2.004,-1.284 0.12,0 0.372,0.036 z"
           id="path1411" />
        <path
           d="m 31.548,-1.92 q -0.288,0.996 -1.068,1.548 -0.768,0.552 -1.836,0.552 -1.428,0 -2.304,-0.888 -0.864,-0.888 -0.864,-2.352 0,-1.44 0.876,-2.376 0.876,-0.936 2.232,-0.936 1.404,0 2.232,0.96 0.828,0.948 0.828,2.58 v 0.168 h -4.44 q 0.012,0.804 0.384,1.224 0.384,0.42 1.068,0.42 0.9,0 1.26,-0.9 z m -1.632,-1.824 q -0.06,-0.612 -0.396,-0.996 -0.336,-0.396 -0.936,-0.396 -0.564,0 -0.936,0.372 -0.372,0.372 -0.444,1.02 z"
           id="path1413" />
      </g>
    </g>
    <g
       id="g402">
      <g
         aria-label="1."
         transform="matrix(1,0,0,-1,75.7,331.989)"
         id="text406"
         style="font-size:12px;font-family:HelveticaNeueCyr;-inkscape-font-specification:HelveticaNeueCyr-Roman">
        <path
           d="M 4.296,-8.496 V 0 H 3.18 V -6.156 H 1.044 v -0.768 q 1.032,0 1.632,-0.336 0.612,-0.336 0.816,-1.236 z"
           id="path1400" />
        <path
           d="M 9.012,-1.332 V 0 H 7.68 v -1.332 z"
           id="path1402" />
      </g>
    </g>
    <g
       id="g408">
      <g
         aria-label="Alice"
         transform="matrix(1,0,0,-1,108.9,331.989)"
         id="text412"
         style="font-size:12px;font-family:HelveticaNeueCyr;-inkscape-font-specification:HelveticaNeueCyr-Roman">
        <path
           d="M 4.536,-8.544 7.872,0 H 6.612 L 5.664,-2.616 H 2.076 L 1.104,0 h -1.2 l 3.36,-8.544 z M 5.328,-3.516 3.876,-7.464 2.4,-3.516 Z"
           id="path1389" />
        <path
           d="M 9.6360001,-8.544 V 0 h -1.032 v -8.544 z"
           id="path1391" />
        <path
           d="m 12.24,-8.544 v 1.248 h -1.032 v -1.248 z m 0,2.352 V 0 h -1.032 v -6.192 z"
           id="path1393" />
        <path
           d="m 19.176,-2.256 q -0.132,1.116 -0.852,1.776 -0.708,0.66 -1.848,0.66 -1.404,0 -2.172,-0.864 -0.768,-0.876 -0.768,-2.328 0,-1.548 0.804,-2.448 0.804,-0.912 2.172,-0.912 1.14,0 1.824,0.576 0.684,0.564 0.804,1.62 h -1.056 q -0.276,-1.344 -1.56,-1.344 -0.888,0 -1.404,0.66 -0.516,0.648 -0.516,1.764 0,1.128 0.492,1.776 0.492,0.648 1.356,0.648 0.696,0 1.128,-0.408 0.444,-0.408 0.564,-1.176 z"
           id="path1395" />
        <path
           d="m 25.536,-1.956 q -0.468,2.16 -2.7,2.16 -1.368,0 -2.148,-0.852 -0.768,-0.852 -0.768,-2.364 0,-1.5 0.792,-2.424 0.804,-0.936 2.088,-0.936 1.428,0 2.112,0.972 0.696,0.96 0.696,2.436 v 0.144 h -4.656 l -0.012,0.072 q 0,0.984 0.516,1.548 0.516,0.564 1.416,0.564 0.672,0 1.056,-0.312 0.396,-0.312 0.612,-1.008 z m -0.984,-1.692 q -0.072,-0.888 -0.54,-1.38 -0.468,-0.504 -1.236,-0.504 -0.744,0 -1.236,0.504 -0.492,0.504 -0.588,1.38 z"
           id="path1397" />
      </g>
    </g>
    <g
       id="g414">
      <g
         aria-label="78.33"
         transform="matrix(1,0,0,-1,227.7,331.989)"
         id="text418"
         style="font-size:12px;font-family:HelveticaNeueCyr;-inkscape-font-specification:HelveticaNeueCyr-Roman">
        <path
           d="m 6.048,-8.352 v 0.876 Q 3.264,-4.296 2.796,0 H 1.668 Q 1.812,-1.968 2.7,-3.9 3.6,-5.832 5.004,-7.38 H 0.552 v -0.972 z"
           id="path1378" />
        <path
           d="M 8.664,-4.548 Q 8.1,-4.788 7.788,-5.244 q -0.3,-0.468 -0.3,-1.092 0,-0.96 0.708,-1.56 0.708,-0.612 1.824,-0.612 1.104,0 1.8,0.6 0.708,0.588 0.708,1.524 0,1.296 -1.164,1.836 1.5,0.528 1.5,2.076 0,1.212 -0.78,1.932 -0.78,0.708 -2.1,0.708 -1.272,0 -2.052,-0.696 -0.768,-0.708 -0.768,-1.872 0,-0.768 0.384,-1.32 0.396,-0.564 1.116,-0.828 z m 2.424,-2.688 q -0.396,-0.36 -1.068,-0.36 -0.672,0 -1.08,0.372 -0.408,0.36 -0.408,0.96 0,0.6 0.408,0.972 0.408,0.36 1.08,0.36 0.66,0 1.056,-0.36 0.408,-0.372 0.408,-0.972 0,-0.612 -0.396,-0.972 z m -1.104,3.132 q -0.768,0 -1.26,0.48 -0.492,0.468 -0.492,1.2 0,0.756 0.492,1.248 0.504,0.48 1.284,0.48 0.792,0 1.284,-0.48 0.504,-0.48 0.504,-1.236 0,-0.756 -0.504,-1.224 -0.504,-0.468 -1.308,-0.468 z"
           id="path1380" />
        <path
           d="M 15.612,-1.332 V 0 H 14.28 v -1.332 z"
           id="path1382" />
        <path
           d="m 17.219999,-5.748 q 0.036,-1.32 0.732,-2.04 0.708,-0.72 1.968,-0.72 1.128,0 1.812,0.612 0.684,0.612 0.684,1.608 0,0.6 -0.312,1.08 -0.3,0.468 -0.852,0.696 0.72,0.168 1.14,0.72 0.42,0.552 0.42,1.332 0.012,1.176 -0.816,1.908 -0.816,0.72 -2.124,0.72 -1.296,0 -2.076,-0.708 -0.768,-0.72 -0.768,-1.932 v -0.156 h 1.008 q 0.036,0.912 0.516,1.404 0.48,0.492 1.332,0.492 0.816,0 1.32,-0.456 0.516,-0.468 0.516,-1.2 0,-0.744 -0.516,-1.188 -0.504,-0.444 -1.368,-0.444 -0.216,0 -0.552,0.048 v -0.864 q 0.168,0.012 0.348,0.012 0.792,0 1.248,-0.372 0.468,-0.384 0.468,-1.032 0,-0.624 -0.408,-1.008 -0.396,-0.384 -1.068,-0.384 -0.768,0 -1.2,0.492 -0.432,0.48 -0.456,1.38 z"
           id="path1384" />
        <path
           d="m 23.82,-5.748 q 0.036,-1.32 0.732,-2.04 0.708,-0.72 1.968,-0.72 1.128,0 1.812,0.612 0.684,0.612 0.684,1.608 0,0.6 -0.312,1.08 -0.3,0.468 -0.852,0.696 0.72,0.168 1.14,0.72 0.42,0.552 0.42,1.332 0.012,1.176 -0.816,1.908 -0.816,0.72 -2.124,0.72 -1.296,0 -2.076,-0.708 -0.768,-0.72 -0.768,-1.932 v -0.156 h 1.008 q 0.036,0.912 0.516,1.404 0.48,0.492 1.332,0.492 0.816,0 1.32,-0.456 0.516,-0.468 0.516,-1.2 0,-0.744 -0.516,-1.188 -0.504,-0.444 -1.368,-0.444 -0.216,0 -0.552,0.048 v -0.864 q 0.168,0.012 0.348,0.012 0.792,0 1.248,-0.372 0.468,-0.384 0.468,-1.032 0,-0.624 -0.408,-1.008 -0.396,-0.384 -1.068,-0.384 -0.768,0 -1.2,0.492 -0.432,0.48 -0.456,1.38 z"
           id="path1386" />
      </g>
    </g>
    <g
       id="g420">
      <g
         aria-label="2."
         transform="matrix(1,0,0,-1,75.7,312.589)"
         id="text424"
         style="font-size:12px;font-family:HelveticaNeueCyr;-inkscape-font-specification:HelveticaNeueCyr-Roman">
        <path
           d="M 5.844,-0.924 V 0 H 0.3 q 0.036,-0.708 0.216,-1.236 0.18,-0.528 0.552,-0.948 0.384,-0.432 0.744,-0.708 0.36,-0.276 1.02,-0.684 1.032,-0.648 1.356,-0.972 0.672,-0.66 0.672,-1.464 0,-0.708 -0.456,-1.152 -0.456,-0.456 -1.188,-0.456 -0.876,0 -1.26,0.612 -0.372,0.6 -0.396,1.524 H 0.528 v -0.228 q 0,-1.26 0.744,-2.028 0.756,-0.768 1.992,-0.768 1.212,0 1.932,0.672 0.72,0.672 0.72,1.8 0,0.48 -0.168,0.912 -0.156,0.42 -0.36,0.708 -0.192,0.288 -0.6,0.612 Q 4.392,-3.48 4.128,-3.3 3.864,-3.132 3.372,-2.832 2.388,-2.244 2.064,-1.92 1.608,-1.476 1.476,-0.924 Z"
           id="path1373" />
        <path
           d="M 9.012,-1.332 V 0 H 7.68 v -1.332 z"
           id="path1375" />
      </g>
    </g>
    <g
       id="g426">
      <g
         aria-label="Bob"
         transform="matrix(1,0,0,-1,108.9,312.589)"
         id="text430"
         style="font-size:12px;font-family:HelveticaNeueCyr;-inkscape-font-specification:HelveticaNeueCyr-Roman">
        <path
           d="m 0.948,-8.544 h 3.648 q 1.176,0 1.944,0.516 0.78,0.516 0.78,1.62 0,0.636 -0.348,1.14 -0.336,0.492 -0.912,0.696 0.792,0.18 1.212,0.744 0.432,0.564 0.432,1.416 Q 7.704,0 4.464,0 H 0.948 Z m 1.104,0.96 v 2.7 H 4.08 q 0.348,0 0.588,-0.012 Q 4.92,-4.92 5.232,-4.992 5.544,-5.064 5.724,-5.196 5.916,-5.34 6.048,-5.604 6.192,-5.868 6.192,-6.24 6.192,-6.612 6.072,-6.864 5.952,-7.128 5.784,-7.26 5.616,-7.404 5.316,-7.476 5.028,-7.548 4.788,-7.56 4.56,-7.584 4.188,-7.584 Z m 0,3.588 v 3.048 h 2.256 q 0.42,0 0.684,-0.012 0.264,-0.024 0.588,-0.108 0.336,-0.084 0.528,-0.24 0.192,-0.168 0.324,-0.468 0.132,-0.312 0.132,-0.744 0,-0.36 -0.096,-0.624 -0.084,-0.264 -0.3,-0.42 Q 5.964,-3.72 5.772,-3.816 5.592,-3.912 5.244,-3.948 4.896,-3.984 4.704,-3.984 4.512,-3.996 4.116,-3.996 Z"
           id="path1366" />
        <path
           d="M 9.4560001,-5.484 Q 10.272,-6.372 11.676,-6.372 q 1.404,0 2.184,0.852 0.78,0.852 0.78,2.388 0,1.572 -0.78,2.448 -0.78,0.876 -2.196,0.876 -1.416,0 -2.2199999,-0.864 -0.804,-0.864 -0.804,-2.4 0,-1.524 0.816,-2.412 z M 13.068,-4.86 q -0.516,-0.66 -1.416,-0.66 -0.9,0 -1.428,0.66 -0.5279999,0.66 -0.5279999,1.764 0,1.14 0.5159999,1.788 0.528,0.636 1.464,0.636 0.9,0 1.404,-0.648 0.516,-0.648 0.516,-1.788 0,-1.104 -0.528,-1.752 z"
           id="path1368" />
        <path
           d="m 16.86,-8.544 v 3.204 q 0.672,-1.02 2.052,-1.02 1.272,0 2.028,0.888 0.768,0.876 0.768,2.352 0,1.5 -0.78,2.4 -0.78,0.9 -2.076,0.9 -1.476,0 -2.052,-1.08 V 0 h -0.96 v -8.544 z m 1.896,3.048 q -0.984,0 -1.464,0.708 -0.468,0.708 -0.468,1.74 0,1.092 0.516,1.74 0.528,0.636 1.416,0.636 0.852,0 1.368,-0.66 0.528,-0.672 0.528,-1.776 0,-1.092 -0.516,-1.74 -0.516,-0.648 -1.38,-0.648 z"
           id="path1370" />
      </g>
    </g>
    <g
       id="g432">
      <g
         aria-label="84.61"
         transform="matrix(1,0,0,-1,227.7,312.589)"
         id="text436"
         style="font-size:12px;font-family:HelveticaNeueCyr;-inkscape-font-specification:HelveticaNeueCyr-Roman">
        <path
           d="m 1.98,-4.548 q -0.564,-0.24 -0.876,-0.696 -0.3,-0.468 -0.3,-1.092 0,-0.96 0.708,-1.56 0.708,-0.612 1.824,-0.612 1.104,0 1.8,0.6 0.708,0.588 0.708,1.524 0,1.296 -1.164,1.836 1.5,0.528 1.5,2.076 0,1.212 -0.78,1.932 Q 4.62,0.168 3.3,0.168 2.028,0.168 1.248,-0.528 0.48,-1.236 0.48,-2.4 0.48,-3.168 0.864,-3.72 1.26,-4.284 1.98,-4.548 Z m 2.424,-2.688 q -0.396,-0.36 -1.068,-0.36 -0.672,0 -1.08,0.372 -0.408,0.36 -0.408,0.96 0,0.6 0.408,0.972 0.408,0.36 1.08,0.36 0.66,0 1.056,-0.36 Q 4.8,-5.664 4.8,-6.264 4.8,-6.876 4.404,-7.236 Z M 3.3,-4.104 q -0.768,0 -1.26,0.48 -0.492,0.468 -0.492,1.2 0,0.756 0.492,1.248 0.504,0.48 1.284,0.48 0.792,0 1.284,-0.48 0.504,-0.48 0.504,-1.236 0,-0.756 -0.504,-1.224 Q 4.104,-4.104 3.3,-4.104 Z"
           id="path1355" />
        <path
           d="m 12.864,-2.916 v 0.864 H 11.712 V 0 h -0.96 V -2.052 H 7.02 v -0.96 l 3.864,-5.496 h 0.828 v 5.592 z m -2.112,0 V -7.008 L 7.92,-2.916 Z"
           id="path1357" />
        <path
           d="M 15.612,-1.332 V 0 H 14.28 v -1.332 z"
           id="path1359" />
        <path
           d="m 22.667999,-6.3 h -1.044 q -0.084,-0.612 -0.456,-0.96 -0.36,-0.36 -0.984,-0.36 -0.432,0 -0.78,0.156 -0.336,0.156 -0.552,0.456 -0.204,0.288 -0.348,0.588 -0.144,0.3 -0.216,0.732 -0.072,0.432 -0.096,0.708 -0.024,0.264 -0.048,0.648 0.696,-1.116 2.112,-1.116 1.188,0 1.908,0.756 0.732,0.744 0.732,1.968 0,1.26 -0.768,2.076 -0.756,0.816 -2.028,0.816 -2.964,0 -2.964,-4.224 0,-0.66 0.072,-1.248 0.084,-0.588 0.288,-1.188 0.216,-0.612 0.552,-1.044 0.336,-0.432 0.888,-0.696 0.564,-0.276 1.284,-0.276 1.068,0 1.716,0.588 0.648,0.576 0.732,1.62 z m -2.592,1.74 q -0.78,0 -1.26,0.528 -0.48,0.516 -0.48,1.356 0,0.876 0.48,1.404 0.492,0.528 1.284,0.528 0.768,0 1.236,-0.504 0.48,-0.516 0.48,-1.38 0,-0.888 -0.468,-1.404 -0.468,-0.528 -1.272,-0.528 z"
           id="path1361" />
        <path
           d="M 27.564,-8.496 V 0 h -1.116 v -6.156 h -2.136 v -0.768 q 1.032,0 1.632,-0.336 0.612,-0.336 0.816,-1.236 z"
           id="path1363" />
      </g>
    </g>
    <g
       id="g438">
      <g
         aria-label="3."
         transform="matrix(1,0,0,-1,75.7,293.189)"
         id="text442"
         style="font-size:12px;font-family:HelveticaNeueCyr;-inkscape-font-specification:HelveticaNeueCyr-Roman">
        <path
           d="m 0.552,-5.748 q 0.036,-1.32 0.732,-2.04 0.708,-0.72 1.968,-0.72 1.128,0 1.812,0.612 0.684,0.612 0.684,1.608 0,0.6 -0.312,1.08 -0.3,0.468 -0.852,0.696 0.72,0.168 1.14,0.72 0.42,0.552 0.42,1.332 0.012,1.176 -0.816,1.908 -0.816,0.72 -2.124,0.72 -1.296,0 -2.076,-0.708 Q 0.36,-1.26 0.36,-2.472 v -0.156 h 1.008 q 0.036,0.912 0.516,1.404 0.48,0.492 1.332,0.492 0.816,0 1.32,-0.456 0.516,-0.468 0.516,-1.2 0,-0.744 -0.516,-1.188 -0.504,-0.444 -1.368,-0.444 -0.216,0 -0.552,0.048 v -0.864 q 0.168,0.012 0.348,0.012 0.792,0 1.248,-0.372 Q 4.68,-5.58 4.68,-6.228 4.68,-6.852 4.272,-7.236 3.876,-7.62 3.204,-7.62 q -0.768,0 -1.2,0.492 -0.432,0.48 -0.456,1.38 z"
           id="path1350" />
        <path
           d="M 9.012,-1.332 V 0 H 7.68 v -1.332 z"
           id="path1352" />
      </g>
    </g>
    <g
       id="g444">
      <g
         aria-label="Trudy"
         transform="matrix(1,0,0,-1,108.9,293.189)"
         id="text448"
         style="font-size:12px;font-family:HelveticaNeueCyr;-inkscape-font-specification:HelveticaNeueCyr-Roman">
        <path
           d="M 6.876,-8.544 V -7.56 H 4.008 V 0 H 2.88 V -7.56 H 0.012 v -0.984 z"
           id="path1339" />
        <path
           d="m 9.792,-6.336 v 1.056 q -0.108,-0.012 -0.264,-0.012 -0.492,0 -0.852,0.156 -0.36,0.144 -0.576,0.384 -0.204,0.24 -0.336,0.6 -0.132,0.36 -0.18,0.72 -0.036,0.36 -0.036,0.816 V 0 H 6.528 V -6.192 H 7.5 v 1.332 q 0.612,-1.476 2.292,-1.476 z"
           id="path1341" />
        <path
           d="M 15.696,-6.192 V 0 h -0.948 v -0.972 q -0.792,1.14 -2.136,1.14 -0.984,0 -1.524,-0.54 -0.54,-0.54 -0.54,-1.56 v -4.26 h 1.02 v 3.984 q 0,0.732 0.276,1.116 0.288,0.372 1.02,0.372 1.812,0 1.812,-2.232 v -3.24 z"
           id="path1343" />
        <path
           d="M 22.74,-8.544 V 0 h -0.96 v -0.912 q -0.588,1.08 -2.04,1.08 -1.32,0 -2.1,-0.876 -0.768,-0.888 -0.768,-2.4 0,-1.404 0.72,-2.328 0.732,-0.936 2.1,-0.936 1.332,0 2.028,1.008 v -3.18 z m -2.916,3.048 q -0.876,0 -1.392,0.636 -0.504,0.636 -0.504,1.728 0,1.128 0.516,1.8 0.528,0.66 1.404,0.66 0.888,0 1.392,-0.636 0.504,-0.648 0.504,-1.788 0,-1.02 -0.48,-1.704 -0.468,-0.696 -1.44,-0.696 z"
           id="path1345" />
        <path
           d="M 29.472,-6.192 26.82,0.792 q -0.156,0.42 -0.276,0.648 -0.108,0.24 -0.324,0.516 -0.204,0.288 -0.504,0.408 -0.288,0.132 -0.684,0.132 -0.3,0 -0.756,-0.108 V 1.476 q 0.444,0.132 0.66,0.132 0.504,0 0.72,-0.516 l 0.48,-1.128 -2.46,-6.156 h 1.152 l 1.836,4.932 1.74,-4.932 z"
           id="path1347" />
      </g>
    </g>
    <g
       id="g450">
      <g
         aria-label="47.28"
         transform="matrix(1,0,0,-1,227.7,293.189)"
         id="text454"
         style="font-size:12px;font-family:HelveticaNeueCyr;-inkscape-font-specification:HelveticaNeueCyr-Roman">
        <path
           d="m 6.18,-2.916 v 0.864 H 5.028 V 0 H 4.068 V -2.052 H 0.336 v -0.96 L 4.2,-8.508 h 0.828 v 5.592 z m -2.112,0 v -4.092 l -2.832,4.092 z"
           id="path1328" />
        <path
           d="m 12.732,-8.352 v 0.876 Q 9.948,-4.296 9.48,0 H 8.352 q 0.144,-1.968 1.032,-3.9 0.9,-1.932 2.304,-3.48 H 7.236 v -0.972 z"
           id="path1330" />
        <path
           d="M 15.612,-1.332 V 0 H 14.28 v -1.332 z"
           id="path1332" />
        <path
           d="M 22.511999,-0.924 V 0 h -5.544 q 0.036,-0.708 0.216,-1.236 0.18,-0.528 0.552,-0.948 0.384,-0.432 0.744,-0.708 0.36,-0.276 1.02,-0.684 1.032,-0.648 1.356,-0.972 0.672,-0.66 0.672,-1.464 0,-0.708 -0.456,-1.152 -0.456,-0.456 -1.188,-0.456 -0.876,0 -1.26,0.612 -0.372,0.6 -0.396,1.524 h -1.032 v -0.228 q 0,-1.26 0.744,-2.028 0.756,-0.768 1.992,-0.768 1.212,0 1.932,0.672 0.72,0.672 0.72,1.8 0,0.48 -0.168,0.912 -0.156,0.42 -0.36,0.708 -0.192,0.288 -0.6,0.612 -0.396,0.324 -0.66,0.504 -0.264,0.168 -0.756,0.468 -0.984,0.588 -1.308,0.912 -0.456,0.444 -0.588,0.996 z"
           id="path1334" />
        <path
           d="m 25.248,-4.548 q -0.564,-0.24 -0.876,-0.696 -0.3,-0.468 -0.3,-1.092 0,-0.96 0.708,-1.56 0.708,-0.612 1.824,-0.612 1.104,0 1.8,0.6 0.708,0.588 0.708,1.524 0,1.296 -1.164,1.836 1.5,0.528 1.5,2.076 0,1.212 -0.78,1.932 -0.78,0.708 -2.1,0.708 -1.272,0 -2.052,-0.696 -0.768,-0.708 -0.768,-1.872 0,-0.768 0.384,-1.32 0.396,-0.564 1.116,-0.828 z m 2.424,-2.688 q -0.396,-0.36 -1.068,-0.36 -0.672,0 -1.08,0.372 -0.408,0.36 -0.408,0.96 0,0.6 0.408,0.972 0.408,0.36 1.08,0.36 0.66,0 1.056,-0.36 0.408,-0.372 0.408,-0.972 0,-0.612 -0.396,-0.972 z m -1.104,3.132 q -0.768,0 -1.26,0.48 -0.492,0.468 -0.492,1.2 0,0.756 0.492,1.248 0.504,0.48 1.284,0.48 0.792,0 1.284,-0.48 0.504,-0.48 0.504,-1.236 0,-0.756 -0.504,-1.224 -0.504,-0.468 -1.308,-0.468 z"
           id="path1336" />
      </g>
    </g>
  </g>
</svg>
