<?xml version="1.0" encoding="UTF-8"?>
<svg xmlns="http://www.w3.org/2000/svg" width="525" height="189">
   <defs>
      <style type="text/css">
    @namespace "http://www.w3.org/2000/svg";
    .line                 {fill: none; stroke: #320000; stroke-width: 1;}
    .bold-line            {stroke: #FFE0E0; shape-rendering: crispEdges; stroke-width: 2;}
    .thin-line            {stroke: #1F0000; shape-rendering: crispEdges}
    .filled               {fill: #320000; stroke: none;}
    text.terminal         {font-family: HelveticaNeueCyr, Sans-serif;
                            font-size: 14px;
                            fill: #FFE0E0;
                            font-weight: bold;
                          }
    text.nonterminal      {font-family: HelveticaNeueCyr, Sans-serif;
                            font-size: 14px;
                            fill: #FFE0E0;
                            font-weight: normal;
                          }
    text.regexp           {font-family: HelveticaNeueCyr, Sans-serif;
                            font-size: 14px;
                            fill: #1F0000;
                            font-weight: normal;
                          }
    rect, circle, polygon {fill: #320000; stroke: #320000;}
    rect.terminal         {fill: #FF0000; stroke: #320000; stroke-width: 1;}
    rect.nonterminal      {fill: #FF3F3F; stroke: #320000; stroke-width: 1;}
    rect.text             {fill: none; stroke: none;}
    polygon.regexp        {fill: #FF5E5E; stroke: #320000; stroke-width: 1;}
  </style>
   </defs>
   <polygon points="9 17 1 13 1 21"/>
   <polygon points="17 17 9 13 9 21"/>
   <a xmlns:xlink="http://www.w3.org/1999/xlink"
       xlink:href="#table"
       xlink:title="table">
      <rect x="71" y="35" width="52" height="32"/>
      <rect x="69" y="33" width="52" height="32" class="nonterminal"/>
      <text class="nonterminal" x="79" y="53">table</text>
   </a>
   <rect x="143" y="35" width="24" height="32" rx="10"/>
   <rect x="141"
          y="33"
          width="24"
          height="32"
          class="terminal"
          rx="10"/>
   <text class="terminal" x="151" y="53">.</text>
   <rect x="207" y="3" width="28" height="32" rx="10"/>
   <rect x="205"
          y="1"
          width="28"
          height="32"
          class="terminal"
          rx="10"/>
   <text class="terminal" x="215" y="21">*</text>
   <a xmlns:xlink="http://www.w3.org/1999/xlink"
       xlink:href="#table"
       xlink:title="table">
      <rect x="91" y="111" width="52" height="32"/>
      <rect x="89" y="109" width="52" height="32" class="nonterminal"/>
      <text class="nonterminal" x="99" y="129">table</text>
   </a>
   <rect x="163" y="111" width="24" height="32" rx="10"/>
   <rect x="161"
          y="109"
          width="24"
          height="32"
          class="terminal"
          rx="10"/>
   <text class="terminal" x="171" y="129">.</text>
   <a xmlns:xlink="http://www.w3.org/1999/xlink"
       xlink:href="#name"
       xlink:title="name">
      <rect x="227" y="79" width="56" height="32"/>
      <rect x="225" y="77" width="56" height="32" class="nonterminal"/>
      <text class="nonterminal" x="235" y="97">name</text>
   </a>
   <a xmlns:xlink="http://www.w3.org/1999/xlink"
       xlink:href="#expression"
       xlink:title="expression">
      <rect x="71" y="155" width="90" height="32"/>
      <rect x="69" y="153" width="90" height="32" class="nonterminal"/>
      <text class="nonterminal" x="79" y="173">expression</text>
   </a>
   <rect x="343" y="111" width="38" height="32" rx="10"/>
   <rect x="341"
          y="109"
          width="38"
          height="32"
          class="terminal"
          rx="10"/>
   <text class="terminal" x="351" y="129">AS</text>
   <a xmlns:xlink="http://www.w3.org/1999/xlink"
       xlink:href="#name"
       xlink:title="name">
      <rect x="401" y="111" width="56" height="32"/>
      <rect x="399" y="109" width="56" height="32" class="nonterminal"/>
      <text class="nonterminal" x="409" y="129">name</text>
   </a>
   <path class="line"
          d="m17 17 h2 m40 0 h10 m0 0 h106 m-136 0 h20 m116 0 h20 m-156 0 q10 0 10 10 m136 0 q0 -10 10 -10 m-146 10 v12 m136 0 v-12 m-136 12 q0 10 10 10 m116 0 q10 0 10 -10 m-126 10 h10 m52 0 h10 m0 0 h10 m24 0 h10 m20 -32 h10 m28 0 h10 m0 0 h242 m-466 0 h20 m446 0 h20 m-486 0 q10 0 10 10 m466 0 q0 -10 10 -10 m-476 10 v56 m466 0 v-56 m-466 56 q0 10 10 10 m446 0 q10 0 10 -10 m-416 10 h10 m0 0 h106 m-136 0 h20 m116 0 h20 m-156 0 q10 0 10 10 m136 0 q0 -10 10 -10 m-146 10 v12 m136 0 v-12 m-136 12 q0 10 10 10 m116 0 q10 0 10 -10 m-126 10 h10 m52 0 h10 m0 0 h10 m24 0 h10 m20 -32 h10 m56 0 h10 m-252 0 h20 m232 0 h20 m-272 0 q10 0 10 10 m252 0 q0 -10 10 -10 m-262 10 v56 m252 0 v-56 m-252 56 q0 10 10 10 m232 0 q10 0 10 -10 m-242 10 h10 m90 0 h10 m0 0 h122 m40 -76 h10 m0 0 h124 m-154 0 h20 m134 0 h20 m-174 0 q10 0 10 10 m154 0 q0 -10 10 -10 m-164 10 v12 m154 0 v-12 m-154 12 q0 10 10 10 m134 0 q10 0 10 -10 m-144 10 h10 m38 0 h10 m0 0 h10 m56 0 h10 m43 -108 h-3"/>
   <polygon points="515 17 523 13 523 21"/>
   <polygon points="515 17 507 13 507 21"/>
</svg>
