<?xml version="1.0" encoding="UTF-8" standalone="no"?>
<svg
   width="123"
   height="37"
   version="1.1"
   id="svg24"
   sodipodi:docname="DQL.svg"
   inkscape:version="1.2.2 (b0a8486541, 2022-12-01)"
   xmlns:inkscape="http://www.inkscape.org/namespaces/inkscape"
   xmlns:sodipodi="http://sodipodi.sourceforge.net/DTD/sodipodi-0.dtd"
   xmlns:xlink="http://www.w3.org/1999/xlink"
   xmlns="http://www.w3.org/2000/svg"
   xmlns:svg="http://www.w3.org/2000/svg">
  <sodipodi:namedview
     id="namedview26"
     pagecolor="#ffffff"
     bordercolor="#666666"
     borderopacity="1.0"
     inkscape:showpageshadow="2"
     inkscape:pageopacity="0.0"
     inkscape:pagecheckerboard="0"
     inkscape:deskcolor="#d1d1d1"
     showgrid="false"
     inkscape:zoom="2.6361788"
     inkscape:cx="71.505015"
     inkscape:cy="69.039324"
     inkscape:window-width="1920"
     inkscape:window-height="1011"
     inkscape:window-x="0"
     inkscape:window-y="32"
     inkscape:window-maximized="1"
     inkscape:current-layer="svg24" />
  <defs
     id="defs4">
    <style
       type="text/css"
       id="style2">@namespace &quot;http://www.w3.org/2000/svg&quot;;.line { fill: none; stroke: #330000; stroke-width: 1; }
.bold-line { stroke: #140000; shape-rendering: crispEdges; stroke-width: 2; }
.thin-line { stroke: #1F0000; shape-rendering: crispEdges }
.filled { fill: #330000; stroke: none; }
text.terminal { font-family: HelveticaNeueCyr, Sans-serif;                            font-size: 14px;                            fill: #140000;                            font-weight: bold; }
text.nonterminal { font-family: HelveticaNeueCyr, Sans-serif;                            font-size: 14px;                            fill: #1A0000;                            font-weight: normal; }
text.regexp { font-family: HelveticaNeueCyr, Sans-serif;                            font-size: 14px;                            fill: #1F0000;                            font-weight: normal; }
rect, circle, polygon { fill: #330000; stroke: #330000; }
rect.terminal { fill: #FF4D4D; stroke: #330000; stroke-width: 1; }
rect.nonterminal { fill: #FF9E9E; stroke: #330000; stroke-width: 1; }
rect.text { fill: none; stroke: none; }
polygon.regexp { fill: #FFC7C7; stroke: #330000; stroke-width: 1; }
</style>
  </defs>
  <path
     id="polygon6"
     style="fill:#330000;stroke:#330000"
     d="M 9,17 1,13 v 8 z" />
  <path
     id="polygon8"
     style="fill:#330000;stroke:#330000"
     d="M 17,17 9,13 v 8 z" />
  <a
     xlink:href="#insert"
     xlink:title="INSERT"
     id="a16">
    <path
       id="rect10"
       style="fill:#330000;stroke:#330000"
       d="M 31,3 H 95 V 35 H 31 Z" />
    <path
       id="rect12"
       class="nonterminal"
       style="fill:#ff9e9e;stroke:#330000"
       d="M 29,1 H 93 V 33 H 29 Z" />
    <g
       aria-label="INSERT"
       id="text14"
       class="nonterminal"
       style="font-size:14px;font-family:HelveticaNeueCyr, Sans-serif;fill:#1a0000"
       transform="translate(-2)">
      <path
         d="M 41.478,11.032 V 21 h -1.316 v -9.968 z"
         id="path259" />
      <path
         d="m 43.676011,11.032 h 1.442 l 5.264,8.092 v -8.092 h 1.274 V 21 h -1.484 l -5.236,-7.994 V 21 h -1.26 z"
         id="path261" />
      <path
         d="m 60.896013,13.958 h -1.274 q -0.21,-2.03 -2.478,-2.03 -1.078,0 -1.666,0.434 -0.588,0.434 -0.588,1.218 0,0.28 0.084,0.49 0.084,0.21 0.28,0.378 0.21,0.154 0.392,0.266 0.182,0.112 0.574,0.224 0.392,0.112 0.63,0.168 0.238,0.042 0.742,0.154 0.616,0.126 1.022,0.238 0.406,0.098 0.966,0.336 0.56,0.238 0.882,0.532 0.336,0.28 0.574,0.756 0.252,0.476 0.252,1.078 0,1.05 -0.588,1.764 -0.588,0.7 -1.428,0.98 -0.84,0.28 -1.862,0.28 -1.876,0 -3.01,-0.882 -1.12,-0.896 -1.12,-2.632 h 1.274 q 0.042,1.274 0.854,1.862 0.812,0.574 2.114,0.574 1.022,0 1.75,-0.42 0.728,-0.434 0.728,-1.4 0,-0.448 -0.196,-0.756 -0.196,-0.322 -0.616,-0.518 -0.42,-0.21 -0.84,-0.336 -0.42,-0.126 -1.106,-0.28 -0.098,-0.014 -0.14,-0.028 -1.54,-0.35 -2.016,-0.56 -1.456,-0.63 -1.456,-2.17 0,-1.428 1.05,-2.128 1.064,-0.714 2.562,-0.714 1.638,0 2.618,0.784 0.98,0.784 1.036,2.338 z"
         id="path263" />
      <path
         d="m 69.814023,11.032 v 1.148 h -5.586 v 3.122 h 5.222 v 1.106 h -5.222 v 3.444 h 5.656 V 21 h -6.972 v -9.968 z"
         id="path265" />
      <path
         d="m 71.466023,11.032 h 4.382 q 3.346,0 3.346,2.758 0,0.868 -0.476,1.54 -0.462,0.658 -1.232,0.882 0.504,0.112 0.812,0.322 0.308,0.21 0.448,0.588 0.14,0.378 0.182,0.672 0.042,0.294 0.07,0.868 0,0.056 0.014,0.28 0.014,0.21 0.014,0.294 0,0.07 0.014,0.266 0.028,0.196 0.042,0.294 0.014,0.098 0.042,0.266 0.028,0.168 0.07,0.28 0.042,0.098 0.098,0.238 0.056,0.126 0.126,0.238 0.07,0.098 0.154,0.182 h -1.512 q -0.098,-0.14 -0.168,-0.35 -0.056,-0.21 -0.084,-0.49 -0.028,-0.294 -0.042,-0.462 -0.014,-0.182 -0.028,-0.518 -0.014,-0.336 -0.014,-0.378 -0.07,-1.274 -0.532,-1.694 -0.448,-0.42 -1.792,-0.42 h -2.618 V 21 h -1.316 z m 1.316,1.12 v 3.486 h 2.478 q 0.462,0 0.77,-0.028 0.322,-0.028 0.7,-0.126 0.378,-0.098 0.602,-0.28 0.238,-0.182 0.392,-0.518 0.154,-0.336 0.154,-0.812 0,-1.008 -0.616,-1.358 -0.602,-0.364 -1.652,-0.364 z"
         id="path267" />
      <path
         d="m 87.720021,11.032 v 1.148 h -3.346 V 21 h -1.316 v -8.82 h -3.346 v -1.148 z"
         id="path269" />
    </g>
  </a>
  <path
     class="line"
     d="m17 17 h2 m0 0 h10 m64 0 h10 m3 0 h-3"
     id="path18" />
  <path
     id="polygon20"
     style="fill:#330000;stroke:#330000"
     d="m 113,17 8,-4 v 8 z" />
  <path
     id="polygon22"
     style="fill:#330000;stroke:#330000"
     d="m 113,17 -8,-4 v 8 z" />
</svg>
