<?xml version="1.0" encoding="UTF-8" standalone="no"?>
<svg
   width="529"
   height="145"
   version="1.1"
   id="svg50"
   sodipodi:docname="DML.svg"
   inkscape:version="1.2.2 (b0a8486541, 2022-12-01)"
   xmlns:inkscape="http://www.inkscape.org/namespaces/inkscape"
   xmlns:sodipodi="http://sodipodi.sourceforge.net/DTD/sodipodi-0.dtd"
   xmlns:xlink="http://www.w3.org/1999/xlink"
   xmlns="http://www.w3.org/2000/svg"
   xmlns:svg="http://www.w3.org/2000/svg">
  <sodipodi:namedview
     id="namedview52"
     pagecolor="#ffffff"
     bordercolor="#666666"
     borderopacity="1.0"
     inkscape:showpageshadow="2"
     inkscape:pageopacity="0.0"
     inkscape:pagecheckerboard="0"
     inkscape:deskcolor="#d1d1d1"
     showgrid="false"
     inkscape:zoom="1.2258979"
     inkscape:cx="122.76715"
     inkscape:cy="109.30763"
     inkscape:window-width="1920"
     inkscape:window-height="1011"
     inkscape:window-x="0"
     inkscape:window-y="32"
     inkscape:window-maximized="1"
     inkscape:current-layer="svg50" />
  <defs
     id="defs4">
    <style
       type="text/css"
       id="style2">@namespace &quot;http://www.w3.org/2000/svg&quot;;.line { fill: none; stroke: #330000; stroke-width: 1; }
.bold-line { stroke: #140000; shape-rendering: crispEdges; stroke-width: 2; }
.thin-line { stroke: #1F0000; shape-rendering: crispEdges }
.filled { fill: #330000; stroke: none; }
text.terminal { font-family: HelveticaNeueCyr, Sans-serif;                            font-size: 14px;                            fill: #140000;                            font-weight: bold; }
text.nonterminal { font-family: HelveticaNeueCyr, Sans-serif;                            font-size: 14px;                            fill: #1A0000;                            font-weight: normal; }
text.regexp { font-family: HelveticaNeueCyr, Sans-serif;                            font-size: 14px;                            fill: #1F0000;                            font-weight: normal; }
rect, circle, polygon { fill: #330000; stroke: #330000; }
rect.terminal { fill: #FF4D4D; stroke: #330000; stroke-width: 1; }
rect.nonterminal { fill: #FF9E9E; stroke: #330000; stroke-width: 1; }
rect.text { fill: none; stroke: none; }
polygon.regexp { fill: #FFC7C7; stroke: #330000; stroke-width: 1; }
</style>
  </defs>
  <path
     id="polygon6"
     style="fill:#330000;stroke:#330000"
     d="M 9,17 1,13 v 8 z" />
  <path
     id="polygon8"
     style="fill:#330000;stroke:#330000"
     d="M 17,17 9,13 v 8 z" />
  <a
     xlink:href="#select"
     xlink:title="SELECT"
     id="a16">
    <path
       id="rect10"
       style="fill:#330000;stroke:#330000"
       d="M 31,3 H 97 V 35 H 31 Z" />
    <path
       id="rect12"
       class="nonterminal"
       style="fill:#ff9e9e;stroke:#330000"
       d="M 29,1 H 95 V 33 H 29 Z" />
    <g
       aria-label="SELECT"
       id="text14"
       class="nonterminal"
       style="font-size:14px;font-family:HelveticaNeueCyr, Sans-serif;fill:#1a0000"
       transform="translate(-2)">
      <path
         d="m 47.162,13.958 h -1.274 q -0.21,-2.03 -2.478,-2.03 -1.078,0 -1.666,0.434 -0.588,0.434 -0.588,1.218 0,0.28 0.084,0.49 0.084,0.21 0.28,0.378 0.21,0.154 0.392,0.266 0.182,0.112 0.574,0.224 0.392,0.112 0.63,0.168 0.238,0.042 0.742,0.154 0.616,0.126 1.022,0.238 0.406,0.098 0.966,0.336 0.56,0.238 0.882,0.532 0.336,0.28 0.574,0.756 0.252,0.476 0.252,1.078 0,1.05 -0.588,1.764 -0.588,0.7 -1.428,0.98 -0.84,0.28 -1.862,0.28 -1.876,0 -3.01,-0.882 -1.12,-0.896 -1.12,-2.632 h 1.274 q 0.042,1.274 0.854,1.862 0.812,0.574 2.114,0.574 1.022,0 1.75,-0.42 0.728,-0.434 0.728,-1.4 0,-0.448 -0.196,-0.756 -0.196,-0.322 -0.616,-0.518 -0.42,-0.21 -0.84,-0.336 -0.42,-0.126 -1.106,-0.28 -0.098,-0.014 -0.14,-0.028 -1.54,-0.35 -2.016,-0.56 -1.456,-0.63 -1.456,-2.17 0,-1.428 1.05,-2.128 1.064,-0.714 2.562,-0.714 1.638,0 2.618,0.784 0.98,0.784 1.036,2.338 z"
         id="path407" />
      <path
         d="m 56.08001,11.032 v 1.148 h -5.586 v 3.122 h 5.222 v 1.106 h -5.222 v 3.444 h 5.656 V 21 h -6.972 v -9.968 z"
         id="path409" />
      <path
         d="M 64.354011,19.852 V 21 h -6.608 v -9.968 h 1.316 v 8.82 z"
         id="path411" />
      <path
         d="m 72.418007,11.032 v 1.148 h -5.586 v 3.122 h 5.222 v 1.106 h -5.222 v 3.444 h 5.656 V 21 h -6.972 v -9.968 z"
         id="path413" />
      <path
         d="m 82.512008,17.234 q -0.168,1.89 -1.316,2.954 -1.134,1.05 -2.996,1.05 -2.128,0 -3.374,-1.4 -1.246,-1.414 -1.246,-3.808 0,-2.24 1.246,-3.724 1.26,-1.498 3.472,-1.498 1.582,0 2.786,0.854 1.204,0.854 1.344,2.366 h -1.316 q -0.224,-0.98 -0.98,-1.526 -0.756,-0.56 -1.862,-0.56 -1.666,0 -2.52,1.176 -0.84,1.176 -0.84,2.898 0,1.904 0.896,2.996 0.896,1.092 2.45,1.092 1.274,0 2.03,-0.728 0.756,-0.742 0.91,-2.142 z"
         id="path415" />
      <path
         d="m 91.09401,11.032 v 1.148 h -3.346 V 21 h -1.316 v -8.82 h -3.346 v -1.148 z"
         id="path417" />
    </g>
  </a>
  <path
     id="rect18"
     style="fill:#330000;stroke:#330000"
     d="m 167,35 h 76 c 5.54,0 10,4.46 10,10 v 12 c 0,5.54 -4.46,10 -10,10 h -76 c -5.54,0 -10,-4.46 -10,-10 V 45 c 0,-5.54 4.46,-10 10,-10 z" />
  <path
     id="rect20"
     class="terminal"
     style="fill:#ff4d4d;stroke:#330000"
     d="m 165,33 h 76 c 5.54,0 10,4.46 10,10 v 12 c 0,5.54 -4.46,10 -10,10 h -76 c -5.54,0 -10,-4.46 -10,-10 V 43 c 0,-5.54 4.46,-10 10,-10 z" />
  <g
     aria-label="UNION ALL"
     id="text22"
     class="terminal"
     style="font-weight:bold;font-size:14px;font-family:HelveticaNeueCyr, Sans-serif;fill:#140000">
    <path
       d="m 174.45,43.032 v 5.992 q 0,2.142 -1.036,3.164 -1.022,1.008 -3.206,1.008 -2.212,0 -3.262,-1.022 -1.036,-1.036 -1.036,-3.178 v -5.964 h 2.184 v 5.964 q 0,1.218 0.462,1.806 0.462,0.588 1.68,0.588 1.176,0 1.596,-0.588 0.434,-0.588 0.434,-1.806 v -5.964 z"
       id="path386" />
    <path
       d="m 176.33999,53 v -9.968 h 2.226 l 4.102,6.678 v -6.678 h 2.1 V 53 h -2.184 l -4.13,-6.692 V 53 Z"
       id="path388" />
    <path
       d="M 188.91198,43.032 V 53 h -2.198 v -9.968 z"
       id="path390" />
    <path
       d="m 195.35198,42.794 q 2.184,0 3.528,1.456 1.358,1.442 1.358,3.78 0,2.338 -1.358,3.78 -1.344,1.428 -3.542,1.428 -2.212,0 -3.57,-1.428 -1.358,-1.442 -1.358,-3.78 0,-2.366 1.344,-3.794 1.358,-1.442 3.598,-1.442 z m -0.028,1.792 q -1.232,0 -1.974,0.924 -0.728,0.924 -0.728,2.478 0,1.61 0.728,2.52 0.728,0.91 2.002,0.924 1.246,0 1.96,-0.924 0.714,-0.924 0.714,-2.52 0,-1.568 -0.728,-2.478 -0.728,-0.924 -1.974,-0.924 z"
       id="path392" />
    <path
       d="m 201.73598,53 v -9.968 h 2.226 l 4.102,6.678 v -6.678 h 2.1 V 53 h -2.184 l -4.13,-6.692 V 53 Z"
       id="path394" />
    <path
       d="m 220.95796,43.018 3.794,9.982 h -2.296 l -0.784,-2.226 h -3.71 l -0.812,2.226 h -2.24 l 3.794,-9.982 z m 0.182,6.16 -1.316,-3.71 -1.33,3.71 z"
       id="path396" />
    <path
       d="M 232.64796,51.124 V 53 h -7.056 v -9.968 h 2.184 v 8.092 z"
       id="path398" />
    <path
       d="M 240.94996,51.124 V 53 h -7.056 v -9.968 h 2.184 v 8.092 z"
       id="path400" />
  </g>
  <path
     id="rect24"
     style="fill:#330000;stroke:#330000"
     d="m 167,79 h 52 c 5.54,0 10,4.46 10,10 v 12 c 0,5.54 -4.46,10 -10,10 h -52 c -5.54,0 -10,-4.46 -10,-10 V 89 c 0,-5.54 4.46,-10 10,-10 z" />
  <path
     id="rect26"
     class="terminal"
     style="fill:#ff4d4d;stroke:#330000"
     d="m 165,77 h 52 c 5.54,0 10,4.46 10,10 v 12 c 0,5.54 -4.46,10 -10,10 h -52 c -5.54,0 -10,-4.46 -10,-10 V 87 c 0,-5.54 4.46,-10 10,-10 z" />
  <g
     aria-label="EXCEPT"
     id="text28"
     class="terminal"
     style="font-weight:bold;font-size:14px;font-family:HelveticaNeueCyr, Sans-serif;fill:#140000">
    <path
       d="m 173.442,87.032 v 1.792 h -5.306 v 2.17 h 4.872 v 1.722 h -4.872 v 2.45 h 5.404 V 97 h -7.574 v -9.968 z"
       id="path371" />
    <path
       d="m 183.18601,87.032 -3.206,4.76 3.5,5.208 h -2.618 l -2.184,-3.458 -2.212,3.458 h -2.492 l 3.514,-5.208 -3.248,-4.76 h 2.548 l 1.988,3.206 2.002,-3.206 z"
       id="path373" />
    <path
       d="m 193.28001,93.15 q -0.168,1.876 -1.316,2.982 -1.148,1.106 -3.15,1.106 -2.17,0 -3.5,-1.428 -1.316,-1.442 -1.316,-3.808 0,-2.24 1.33,-3.724 1.344,-1.484 3.57,-1.484 1.778,0 2.982,1.008 1.204,1.008 1.33,2.562 h -2.142 q -0.168,-0.826 -0.756,-1.274 -0.574,-0.462 -1.456,-0.462 -0.91,0 -1.54,0.518 -0.616,0.504 -0.868,1.246 -0.252,0.742 -0.252,1.624 0,1.54 0.714,2.464 0.714,0.91 1.918,0.91 2.002,0 2.282,-2.24 z"
       id="path375" />
    <path
       d="m 202.226,87.032 v 1.792 h -5.306 v 2.17 h 4.872 v 1.722 h -4.872 v 2.45 h 5.404 V 97 h -7.574 v -9.968 z"
       id="path377" />
    <path
       d="m 203.83601,87.032 h 4.298 q 1.68,0 2.66,0.812 0.994,0.798 0.994,2.394 0,1.568 -0.98,2.38 -0.98,0.798 -2.562,0.798 h -2.24 V 97 h -2.17 z m 2.17,1.792 v 2.87 h 1.946 q 1.708,0 1.708,-1.428 0,-1.442 -1.694,-1.442 z"
       id="path379" />
    <path
       d="m 220.566,87.032 v 1.862 H 217.57 V 97 h -2.198 v -8.106 h -2.996 v -1.862 z"
       id="path381" />
  </g>
  <path
     id="rect30"
     style="fill:#330000;stroke:#330000"
     d="m 279,111 h 66 c 5.54,0 10,4.46 10,10 v 12 c 0,5.54 -4.46,10 -10,10 h -66 c -5.54,0 -10,-4.46 -10,-10 v -12 c 0,-5.54 4.46,-10 10,-10 z" />
  <path
     id="rect32"
     class="terminal"
     style="fill:#ff4d4d;stroke:#330000"
     d="m 277,109 h 66 c 5.54,0 10,4.46 10,10 v 12 c 0,5.54 -4.46,10 -10,10 h -66 c -5.54,0 -10,-4.46 -10,-10 v -12 c 0,-5.54 4.46,-10 10,-10 z" />
  <g
     aria-label="DISTINCT"
     id="text34"
     class="terminal"
     style="font-weight:bold;font-size:14px;font-family:HelveticaNeueCyr, Sans-serif;fill:#140000">
    <path
       d="m 277.98,129 v -9.968 h 4.032 q 2.324,0 3.57,1.288 1.26,1.288 1.26,3.696 0,2.408 -1.26,3.696 -1.246,1.288 -3.57,1.288 z m 2.17,-1.82 h 1.596 q 2.898,0 2.898,-3.164 0,-1.526 -0.728,-2.338 -0.714,-0.826 -2.17,-0.826 h -1.596 z"
       id="path352" />
    <path
       d="M 290.53799,119.032 V 129 h -2.198 v -9.968 z"
       id="path354" />
    <path
       d="m 299.84799,122 h -2.072 q -0.126,-1.484 -1.89,-1.484 -0.756,0 -1.19,0.308 -0.42,0.294 -0.42,0.826 0,0.182 0.056,0.322 0.056,0.14 0.21,0.266 0.154,0.112 0.308,0.196 0.154,0.07 0.448,0.168 0.308,0.084 0.546,0.154 0.252,0.07 0.7,0.182 0.448,0.112 0.784,0.21 1.47,0.42 2.184,1.05 0.728,0.63 0.728,1.806 0,0.854 -0.35,1.498 -0.35,0.63 -0.952,1.008 -0.588,0.364 -1.302,0.532 -0.7,0.182 -1.498,0.182 -2.03,0 -3.178,-0.924 -1.134,-0.938 -1.148,-2.632 h 2.17 q 0.056,1.876 2.254,1.876 0.854,0 1.344,-0.35 0.504,-0.364 0.504,-0.98 0,-0.518 -0.462,-0.756 -0.448,-0.238 -1.904,-0.658 -0.238,-0.056 -0.364,-0.098 -0.504,-0.14 -0.7,-0.196 -0.196,-0.07 -0.63,-0.224 -0.42,-0.154 -0.616,-0.28 -0.196,-0.126 -0.49,-0.35 -0.28,-0.224 -0.406,-0.462 -0.126,-0.252 -0.238,-0.602 -0.098,-0.364 -0.098,-0.784 0,-1.358 1.05,-2.17 1.05,-0.812 2.786,-0.812 1.68,0 2.744,0.798 1.064,0.784 1.092,2.38 z"
       id="path356" />
    <path
       d="m 308.96199,119.032 v 1.862 h -2.996 V 129 h -2.198 v -8.106 h -2.996 v -1.862 z"
       id="path358" />
    <path
       d="M 312.30799,119.032 V 129 h -2.198 v -9.968 z"
       id="path360" />
    <path
       d="m 314.23999,129 v -9.968 h 2.226 l 4.102,6.678 v -6.678 h 2.1 V 129 h -2.184 l -4.13,-6.692 V 129 Z"
       id="path362" />
    <path
       d="m 333.51798,125.15 q -0.168,1.876 -1.316,2.982 -1.148,1.106 -3.15,1.106 -2.17,0 -3.5,-1.428 -1.316,-1.442 -1.316,-3.808 0,-2.24 1.33,-3.724 1.344,-1.484 3.57,-1.484 1.778,0 2.982,1.008 1.204,1.008 1.33,2.562 h -2.142 q -0.168,-0.826 -0.756,-1.274 -0.574,-0.462 -1.456,-0.462 -0.91,0 -1.54,0.518 -0.616,0.504 -0.868,1.246 -0.252,0.742 -0.252,1.624 0,1.54 0.714,2.464 0.714,0.91 1.918,0.91 2.002,0 2.282,-2.24 z"
       id="path364" />
    <path
       d="m 342.39397,119.032 v 1.862 h -2.996 V 129 h -2.198 v -8.106 h -2.996 v -1.862 z"
       id="path366" />
  </g>
  <a
     xlink:href="#select"
     xlink:title="SELECT"
     id="a42">
    <path
       id="rect36"
       style="fill:#330000;stroke:#330000"
       d="m 415,35 h 66 v 32 h -66 z" />
    <path
       id="rect38"
       class="nonterminal"
       style="fill:#ff9e9e;stroke:#330000"
       d="m 413,33 h 66 v 32 h -66 z" />
    <g
       aria-label="SELECT"
       id="text40"
       class="nonterminal"
       style="font-size:14px;font-family:HelveticaNeueCyr, Sans-serif;fill:#1a0000">
      <path
         d="m 431.162,45.958 h -1.274 q -0.21,-2.03 -2.478,-2.03 -1.078,0 -1.666,0.434 -0.588,0.434 -0.588,1.218 0,0.28 0.084,0.49 0.084,0.21 0.28,0.378 0.21,0.154 0.392,0.266 0.182,0.112 0.574,0.224 0.392,0.112 0.63,0.168 0.238,0.042 0.742,0.154 0.616,0.126 1.022,0.238 0.406,0.098 0.966,0.336 0.56,0.238 0.882,0.532 0.336,0.28 0.574,0.756 0.252,0.476 0.252,1.078 0,1.05 -0.588,1.764 -0.588,0.7 -1.428,0.98 -0.84,0.28 -1.862,0.28 -1.876,0 -3.01,-0.882 -1.12,-0.896 -1.12,-2.632 h 1.274 q 0.042,1.274 0.854,1.862 0.812,0.574 2.114,0.574 1.022,0 1.75,-0.42 0.728,-0.434 0.728,-1.4 0,-0.448 -0.196,-0.756 -0.196,-0.322 -0.616,-0.518 -0.42,-0.21 -0.84,-0.336 -0.42,-0.126 -1.106,-0.28 -0.098,-0.014 -0.14,-0.028 -1.54,-0.35 -2.016,-0.56 -1.456,-0.63 -1.456,-2.17 0,-1.428 1.05,-2.128 1.064,-0.714 2.562,-0.714 1.638,0 2.618,0.784 0.98,0.784 1.036,2.338 z"
         id="path339" />
      <path
         d="m 440.08001,43.032 v 1.148 h -5.586 v 3.122 h 5.222 v 1.106 h -5.222 v 3.444 h 5.656 V 53 h -6.972 v -9.968 z"
         id="path341" />
      <path
         d="M 448.35401,51.852 V 53 h -6.608 v -9.968 h 1.316 v 8.82 z"
         id="path343" />
      <path
         d="m 456.41801,43.032 v 1.148 h -5.586 v 3.122 h 5.222 v 1.106 h -5.222 v 3.444 h 5.656 V 53 h -6.972 v -9.968 z"
         id="path345" />
      <path
         d="m 466.51201,49.234 q -0.168,1.89 -1.316,2.954 -1.134,1.05 -2.996,1.05 -2.128,0 -3.374,-1.4 -1.246,-1.414 -1.246,-3.808 0,-2.24 1.246,-3.724 1.26,-1.498 3.472,-1.498 1.582,0 2.786,0.854 1.204,0.854 1.344,2.366 h -1.316 q -0.224,-0.98 -0.98,-1.526 -0.756,-0.56 -1.862,-0.56 -1.666,0 -2.52,1.176 -0.84,1.176 -0.84,2.898 0,1.904 0.896,2.996 0.896,1.092 2.45,1.092 1.274,0 2.03,-0.728 0.756,-0.742 0.91,-2.142 z"
         id="path347" />
      <path
         d="m 475.09401,43.032 v 1.148 h -3.346 V 53 h -1.316 v -8.82 h -3.346 v -1.148 z"
         id="path349" />
    </g>
  </a>
  <path
     class="line"
     d="m17 17 h2 m0 0 h10 m66 0 h10 m20 0 h10 m0 0 h354 m-384 0 h20 m364 0 h20 m-404 0 q10 0 10 10 m384 0 q0 -10 10 -10 m-394 10 v12 m384 0 v-12 m-384 12 q0 10 10 10 m364 0 q10 0 10 -10 m-354 10 h10 m96 0 h10 m0 0 h122 m-258 0 h20 m238 0 h20 m-278 0 q10 0 10 10 m258 0 q0 -10 10 -10 m-268 10 v24 m258 0 v-24 m-258 24 q0 10 10 10 m238 0 q10 0 10 -10 m-248 10 h10 m72 0 h10 m20 0 h10 m0 0 h96 m-126 0 h20 m106 0 h20 m-146 0 q10 0 10 10 m126 0 q0 -10 10 -10 m-136 10 v12 m126 0 v-12 m-126 12 q0 10 10 10 m106 0 q10 0 10 -10 m-116 10 h10 m86 0 h10 m40 -76 h10 m66 0 h10 m23 -32 h-3"
     id="path44" />
  <path
     id="polygon46"
     style="fill:#330000;stroke:#330000"
     d="m 519,17 8,-4 v 8 z" />
  <path
     id="polygon48"
     style="fill:#330000;stroke:#330000"
     d="m 519,17 -8,-4 v 8 z" />
</svg>
