<?xml version="1.0" encoding="UTF-8" standalone="no"?>
<svg
   width="569"
   height="189"
   version="1.1"
   id="svg12527"
   sodipodi:docname="DML.svg"
   inkscape:version="1.2.2 (b0a8486541, 2022-12-01)"
   xmlns:inkscape="http://www.inkscape.org/namespaces/inkscape"
   xmlns:sodipodi="http://sodipodi.sourceforge.net/DTD/sodipodi-0.dtd"
   xmlns:xlink="http://www.w3.org/1999/xlink"
   xmlns="http://www.w3.org/2000/svg"
   xmlns:svg="http://www.w3.org/2000/svg">
  <sodipodi:namedview
     id="namedview12529"
     pagecolor="#ffffff"
     bordercolor="#666666"
     borderopacity="1.0"
     inkscape:showpageshadow="2"
     inkscape:pageopacity="0.0"
     inkscape:pagecheckerboard="0"
     inkscape:deskcolor="#d1d1d1"
     showgrid="false"
     inkscape:zoom="2.2794376"
     inkscape:cx="274.40979"
     inkscape:cy="94.321511"
     inkscape:window-width="1920"
     inkscape:window-height="1011"
     inkscape:window-x="0"
     inkscape:window-y="32"
     inkscape:window-maximized="1"
     inkscape:current-layer="svg12527" />
  <defs
     id="defs12473">
    <style
       type="text/css"
       id="style12471">
    @namespace &quot;http://www.w3.org/2000/svg&quot;;
    .line                 {fill: none; stroke: #320000; stroke-width: 1;}
    .bold-line            {stroke: #FFE0E0; shape-rendering: crispEdges; stroke-width: 2;}
    .thin-line            {stroke: #1F0000; shape-rendering: crispEdges}
    .filled               {fill: #320000; stroke: none;}
    text.terminal         {font-family: HelveticaNeueCyr, Sans-serif;
                            font-size: 14px;
                            fill: #FFE0E0;
                            font-weight: bold;
                          }
    text.nonterminal      {font-family: HelveticaNeueCyr, Sans-serif;
                            font-size: 14px;
                            fill: #FFE0E0;
                            font-weight: normal;
                          }
    text.regexp           {font-family: HelveticaNeueCyr, Sans-serif;
                            font-size: 14px;
                            fill: #1F0000;
                            font-weight: normal;
                          }
    rect, circle, polygon {fill: #320000; stroke: #320000;}
    rect.terminal         {fill: #FF0000; stroke: #320000; stroke-width: 1;}
    rect.nonterminal      {fill: #FF3F3F; stroke: #320000; stroke-width: 1;}
    rect.text             {fill: none; stroke: none;}
    polygon.regexp        {fill: #FF5E5E; stroke: #320000; stroke-width: 1;}
  </style>
  </defs>
  <polygon
     points="9 17 1 13 1 21"
     id="polygon12475" />
  <polygon
     points="17 17 9 13 9 21"
     id="polygon12477" />
  <a
     xlink:href="#select"
     xlink:title="SELECT"
     id="a12485">
    <rect
       x="51"
       y="3"
       width="66"
       height="32"
       id="rect12479" />
    <rect
       x="49"
       y="1"
       width="66"
       height="32"
       class="nonterminal"
       id="rect12481" />
    <text
       class="nonterminal"
       x="59"
       y="21"
       id="text12483">SELECT</text>
  </a>
  <rect
     x="177"
     y="35"
     width="96"
     height="32"
     rx="10"
     id="rect12487" />
  <a
     id="a12664"
     xlink:href="#union-all">
    <g
       id="g12659">
      <rect
         x="175"
         y="33"
         width="96"
         height="32"
         class="terminal"
         rx="10"
         id="rect12489" />
      <text
         class="terminal"
         x="185"
         y="53"
         id="text12491">UNION ALL</text>
    </g>
  </a>
  <rect
     x="177"
     y="79"
     width="72"
     height="32"
     rx="10"
     id="rect12493" />
  <a
     id="a12655"
     xlink:href="#except">
    <g
       id="g12650">
      <rect
         x="175"
         y="77"
         width="72"
         height="32"
         class="terminal"
         rx="10"
         id="rect12495" />
      <text
         class="terminal"
         x="185"
         y="97"
         id="text12497">EXCEPT</text>
    </g>
  </a>
  <rect
     x="289"
     y="111"
     width="86"
     height="32"
     rx="10"
     id="rect12499" />
  <rect
     x="287"
     y="109"
     width="86"
     height="32"
     class="terminal"
     rx="10"
     id="rect12501" />
  <text
     class="terminal"
     x="297"
     y="129"
     id="text12503">DISTINCT</text>
  <a
     xlink:href="#select"
     xlink:title="SELECT"
     id="a12511">
    <rect
       x="435"
       y="35"
       width="66"
       height="32"
       id="rect12505" />
    <rect
       x="433"
       y="33"
       width="66"
       height="32"
       class="nonterminal"
       id="rect12507" />
    <text
       class="nonterminal"
       x="443"
       y="53"
       id="text12509">SELECT</text>
  </a>
  <a
     xlink:href="#insert"
     xlink:title="INSERT"
     id="a12519">
    <rect
       x="51"
       y="155"
       width="64"
       height="32"
       id="rect12513" />
    <rect
       x="49"
       y="153"
       width="64"
       height="32"
       class="nonterminal"
       id="rect12515" />
    <text
       class="nonterminal"
       x="59"
       y="173"
       id="text12517">INSERT</text>
  </a>
  <path
     class="line"
     d="m17 17 h2 m20 0 h10 m66 0 h10 m20 0 h10 m0 0 h354 m-384 0 h20 m364 0 h20 m-404 0 q10 0 10 10 m384 0 q0 -10 10 -10 m-394 10 v12 m384 0 v-12 m-384 12 q0 10 10 10 m364 0 q10 0 10 -10 m-354 10 h10 m96 0 h10 m0 0 h122 m-258 0 h20 m238 0 h20 m-278 0 q10 0 10 10 m258 0 q0 -10 10 -10 m-268 10 v24 m258 0 v-24 m-258 24 q0 10 10 10 m238 0 q10 0 10 -10 m-248 10 h10 m72 0 h10 m20 0 h10 m0 0 h96 m-126 0 h20 m106 0 h20 m-146 0 q10 0 10 10 m126 0 q0 -10 10 -10 m-136 10 v12 m126 0 v-12 m-126 12 q0 10 10 10 m106 0 q10 0 10 -10 m-116 10 h10 m86 0 h10 m40 -76 h10 m66 0 h10 m-490 -32 h20 m490 0 h20 m-530 0 q10 0 10 10 m510 0 q0 -10 10 -10 m-520 10 v132 m510 0 v-132 m-510 132 q0 10 10 10 m490 0 q10 0 10 -10 m-500 10 h10 m64 0 h10 m0 0 h406 m23 -152 h-3"
     id="path12521" />
  <polygon
     points="559 17 567 13 567 21"
     id="polygon12523" />
  <polygon
     points="559 17 551 13 551 21"
     id="polygon12525" />
</svg>
