<?xml version="1.0" encoding="UTF-8" standalone="no"?>
<svg
   width="569"
   height="189"
   version="1.1"
   id="svg3493"
   sodipodi:docname="DML.svg"
   inkscape:version="1.2.2 (b0a8486541, 2022-12-01)"
   xmlns:inkscape="http://www.inkscape.org/namespaces/inkscape"
   xmlns:sodipodi="http://sodipodi.sourceforge.net/DTD/sodipodi-0.dtd"
   xmlns:xlink="http://www.w3.org/1999/xlink"
   xmlns="http://www.w3.org/2000/svg"
   xmlns:svg="http://www.w3.org/2000/svg">
  <sodipodi:namedview
     id="namedview3495"
     pagecolor="#ffffff"
     bordercolor="#666666"
     borderopacity="1.0"
     inkscape:showpageshadow="2"
     inkscape:pageopacity="0.0"
     inkscape:pagecheckerboard="0"
     inkscape:deskcolor="#d1d1d1"
     showgrid="false"
     inkscape:zoom="6.4472232"
     inkscape:cx="465.39416"
     inkscape:cy="50.099088"
     inkscape:window-width="1920"
     inkscape:window-height="1011"
     inkscape:window-x="0"
     inkscape:window-y="32"
     inkscape:window-maximized="1"
     inkscape:current-layer="a3477" />
  <defs
     id="defs3439">
    <style
       type="text/css"
       id="style3437">@namespace &quot;http://www.w3.org/2000/svg&quot;;.line { fill: none; stroke: #330000; stroke-width: 1; }
.bold-line { stroke: #140000; shape-rendering: crispEdges; stroke-width: 2; }
.thin-line { stroke: #1F0000; shape-rendering: crispEdges }
.filled { fill: #330000; stroke: none; }
text.terminal { font-family: HelveticaNeueCyr, Sans-serif;                            font-size: 14px;                            fill: #140000;                            font-weight: bold; }
text.nonterminal { font-family: HelveticaNeueCyr, Sans-serif;                            font-size: 14px;                            fill: #1A0000;                            font-weight: normal; }
text.regexp { font-family: HelveticaNeueCyr, Sans-serif;                            font-size: 14px;                            fill: #1F0000;                            font-weight: normal; }
rect, circle, polygon { fill: #330000; stroke: #330000; }
rect.terminal { fill: #FF4D4D; stroke: #330000; stroke-width: 1; }
rect.nonterminal { fill: #FF9E9E; stroke: #330000; stroke-width: 1; }
rect.text { fill: none; stroke: none; }
polygon.regexp { fill: #FFC7C7; stroke: #330000; stroke-width: 1; }
</style>
  </defs>
  <polygon
     points="9 17 1 13 1 21"
     id="polygon3441" />
  <polygon
     points="17 17 9 13 9 21"
     id="polygon3443" />
  <a
     xlink:href="#SELECT"
     xlink:title="SELECT"
     id="a3451">
    <rect
       x="51"
       y="3"
       width="66"
       height="32"
       id="rect3445" />
    <rect
       x="49"
       y="1"
       width="66"
       height="32"
       class="nonterminal"
       id="rect3447" />
    <text
       class="nonterminal"
       x="57"
       y="21"
       id="text3449">SELECT</text>
  </a>
  <rect
     x="177"
     y="35"
     width="96"
     height="32"
     rx="10"
     id="rect3453" />
  <rect
     x="175"
     y="33"
     width="96"
     height="32"
     class="terminal"
     rx="10"
     id="rect3455" />
  <text
     class="terminal"
     x="185"
     y="53"
     id="text3457">UNION ALL</text>
  <rect
     x="177"
     y="79"
     width="72"
     height="32"
     rx="10"
     id="rect3459" />
  <rect
     x="175"
     y="77"
     width="72"
     height="32"
     class="terminal"
     rx="10"
     id="rect3461" />
  <text
     class="terminal"
     x="185"
     y="97"
     id="text3463">EXCEPT</text>
  <rect
     x="289"
     y="111"
     width="86"
     height="32"
     rx="10"
     id="rect3465" />
  <rect
     x="287"
     y="109"
     width="86"
     height="32"
     class="terminal"
     rx="10"
     id="rect3467" />
  <text
     class="terminal"
     x="297"
     y="129"
     id="text3469">DISTINCT</text>
  <a
     xlink:href="#SELECT"
     xlink:title="SELECT"
     id="a3477">
    <path
       id="rect3471"
       style="fill:#330000;stroke:#330000"
       d="m 435,35 h 66 v 32 h -66 z" />
    <path
       id="rect3473"
       class="nonterminal"
       style="fill:#ff9e9e;stroke:#330000"
       d="m 433,33 h 66 v 32 h -66 z" />
    <g
       aria-label="SELECT"
       id="text3475"
       class="nonterminal"
       style="font-size:14px;font-family:HelveticaNeueCyr, Sans-serif;fill:#1a0000">
      <path
         d="m 449.162,45.958 h -1.274 q -0.21,-2.03 -2.478,-2.03 -1.078,0 -1.666,0.434 -0.588,0.434 -0.588,1.218 0,0.28 0.084,0.49 0.084,0.21 0.28,0.378 0.21,0.154 0.392,0.266 0.182,0.112 0.574,0.224 0.392,0.112 0.63,0.168 0.238,0.042 0.742,0.154 0.616,0.126 1.022,0.238 0.406,0.098 0.966,0.336 0.56,0.238 0.882,0.532 0.336,0.28 0.574,0.756 0.252,0.476 0.252,1.078 0,1.05 -0.588,1.764 -0.588,0.7 -1.428,0.98 -0.84,0.28 -1.862,0.28 -1.876,0 -3.01,-0.882 -1.12,-0.896 -1.12,-2.632 h 1.274 q 0.042,1.274 0.854,1.862 0.812,0.574 2.114,0.574 1.022,0 1.75,-0.42 0.728,-0.434 0.728,-1.4 0,-0.448 -0.196,-0.756 -0.196,-0.322 -0.616,-0.518 -0.42,-0.21 -0.84,-0.336 -0.42,-0.126 -1.106,-0.28 -0.098,-0.014 -0.14,-0.028 -1.54,-0.35 -2.016,-0.56 -1.456,-0.63 -1.456,-2.17 0,-1.428 1.05,-2.128 1.064,-0.714 2.562,-0.714 1.638,0 2.618,0.784 0.98,0.784 1.036,2.338 z"
         id="path3644" />
      <path
         d="m 458.08001,43.032 v 1.148 h -5.586 v 3.122 h 5.222 v 1.106 h -5.222 v 3.444 h 5.656 V 53 h -6.972 v -9.968 z"
         id="path3646" />
      <path
         d="M 466.35401,51.852 V 53 h -6.608 v -9.968 h 1.316 v 8.82 z"
         id="path3648" />
      <path
         d="m 474.41801,43.032 v 1.148 h -5.586 v 3.122 h 5.222 v 1.106 h -5.222 v 3.444 h 5.656 V 53 h -6.972 v -9.968 z"
         id="path3650" />
      <path
         d="m 484.51201,49.234 q -0.168,1.89 -1.316,2.954 -1.134,1.05 -2.996,1.05 -2.128,0 -3.374,-1.4 -1.246,-1.414 -1.246,-3.808 0,-2.24 1.246,-3.724 1.26,-1.498 3.472,-1.498 1.582,0 2.786,0.854 1.204,0.854 1.344,2.366 h -1.316 q -0.224,-0.98 -0.98,-1.526 -0.756,-0.56 -1.862,-0.56 -1.666,0 -2.52,1.176 -0.84,1.176 -0.84,2.898 0,1.904 0.896,2.996 0.896,1.092 2.45,1.092 1.274,0 2.03,-0.728 0.756,-0.742 0.91,-2.142 z"
         id="path3652" />
      <path
         d="m 493.09401,43.032 v 1.148 h -3.346 V 53 h -1.316 v -8.82 h -3.346 v -1.148 z"
         id="path3654" />
    </g>
  </a>
  <a
     xlink:href="#INSERT"
     xlink:title="INSERT"
     id="a3485">
    <rect
       x="51"
       y="155"
       width="64"
       height="32"
       id="rect3479" />
    <rect
       x="49"
       y="153"
       width="64"
       height="32"
       class="nonterminal"
       id="rect3481" />
    <text
       class="nonterminal"
       x="57"
       y="173"
       id="text3483">INSERT</text>
  </a>
  <path
     class="line"
     d="m17 17 h2 m20 0 h10 m66 0 h10 m20 0 h10 m0 0 h354 m-384 0 h20 m364 0 h20 m-404 0 q10 0 10 10 m384 0 q0 -10 10 -10 m-394 10 v12 m384 0 v-12 m-384 12 q0 10 10 10 m364 0 q10 0 10 -10 m-354 10 h10 m96 0 h10 m0 0 h122 m-258 0 h20 m238 0 h20 m-278 0 q10 0 10 10 m258 0 q0 -10 10 -10 m-268 10 v24 m258 0 v-24 m-258 24 q0 10 10 10 m238 0 q10 0 10 -10 m-248 10 h10 m72 0 h10 m20 0 h10 m0 0 h96 m-126 0 h20 m106 0 h20 m-146 0 q10 0 10 10 m126 0 q0 -10 10 -10 m-136 10 v12 m126 0 v-12 m-126 12 q0 10 10 10 m106 0 q10 0 10 -10 m-116 10 h10 m86 0 h10 m40 -76 h10 m66 0 h10 m-490 -32 h20 m490 0 h20 m-530 0 q10 0 10 10 m510 0 q0 -10 10 -10 m-520 10 v132 m510 0 v-132 m-510 132 q0 10 10 10 m490 0 q10 0 10 -10 m-500 10 h10 m64 0 h10 m0 0 h406 m23 -152 h-3"
     id="path3487" />
  <polygon
     points="559 17 567 13 567 21"
     id="polygon3489" />
  <polygon
     points="559 17 551 13 551 21"
     id="polygon3491" />
</svg>
