<?xml version="1.0" encoding="UTF-8" standalone="no"?>
<svg
   width="525"
   height="145"
   version="1.1"
   id="svg14"
   sodipodi:docname="DQL.svg"
   inkscape:version="1.3 (0e150ed6c4, 2023-07-21)"
   xmlns:inkscape="http://www.inkscape.org/namespaces/inkscape"
   xmlns:sodipodi="http://sodipodi.sourceforge.net/DTD/sodipodi-0.dtd"
   xmlns:xlink="http://www.w3.org/1999/xlink"
   xmlns="http://www.w3.org/2000/svg"
   xmlns:svg="http://www.w3.org/2000/svg">
  <sodipodi:namedview
     id="namedview14"
     pagecolor="#ffffff"
     bordercolor="#666666"
     borderopacity="1.0"
     inkscape:showpageshadow="2"
     inkscape:pageopacity="0.0"
     inkscape:pagecheckerboard="0"
     inkscape:deskcolor="#d1d1d1"
     inkscape:zoom="1.9825927"
     inkscape:cx="266.57013"
     inkscape:cy="28.498037"
     inkscape:window-width="1854"
     inkscape:window-height="1011"
     inkscape:window-x="66"
     inkscape:window-y="32"
     inkscape:window-maximized="1"
     inkscape:current-layer="svg14" />
  <defs
     id="defs1">
    <style
       type="text/css"
       id="style1">@namespace &quot;http://www.w3.org/2000/svg&quot;;.line { fill: none; stroke: #330000; stroke-width: 1; }&#10;.bold-line { stroke: #140000; shape-rendering: crispEdges; stroke-width: 2; }&#10;.thin-line { stroke: #1F0000; shape-rendering: crispEdges }&#10;.filled { fill: #330000; stroke: none; }&#10;text.terminal { font-family: HelveticaNeueCyr, Sans-serif;                            font-size: 14px;                            fill: #140000;                            font-weight: bold; }&#10;text.nonterminal { font-family: HelveticaNeueCyr, Sans-serif;                            font-size: 14px;                            fill: #1A0000;                            font-weight: normal; }&#10;text.regexp { font-family: HelveticaNeueCyr, Sans-serif;                            font-size: 14px;                            fill: #1F0000;                            font-weight: normal; }&#10;rect, circle, polygon { fill: #330000; stroke: #330000; }&#10;rect.terminal { fill: #FF4D4D; stroke: #330000; stroke-width: 1; }&#10;rect.nonterminal { fill: #FF9E9E; stroke: #330000; stroke-width: 1; }&#10;rect.text { fill: none; stroke: none; }&#10;polygon.regexp { fill: #FFC7C7; stroke: #330000; stroke-width: 1; }&#10;</style>
  </defs>
  <path
     id="polygon1"
     style="fill:#330000;stroke:#330000"
     d="M 9,17 1,13 v 8 z" />
  <path
     id="polygon2"
     style="fill:#330000;stroke:#330000"
     d="M 17,17 9,13 v 8 z" />
  <a
     xlink:href="#select"
     xlink:title="SELECT"
     id="a3">
    <path
       id="rect2"
       style="fill:#330000;stroke:#330000"
       d="M 31,3 H 97 V 35 H 31 Z" />
    <path
       id="rect3"
       class="nonterminal"
       style="fill:#ff9e9e;stroke:#330000"
       d="M 29,1 H 95 V 33 H 29 Z" />
    <path
       d="m 45.162,13.958 h -1.274 q -0.21,-2.03 -2.478,-2.03 -1.078,0 -1.666,0.434 -0.588,0.434 -0.588,1.218 0,0.28 0.084,0.49 0.084,0.21 0.28,0.378 0.21,0.154 0.392,0.266 0.182,0.112 0.574,0.224 0.392,0.112 0.63,0.168 0.238,0.042 0.742,0.154 0.616,0.126 1.022,0.238 0.406,0.098 0.966,0.336 0.56,0.238 0.882,0.532 0.336,0.28 0.574,0.756 0.252,0.476 0.252,1.078 0,1.05 -0.588,1.764 -0.588,0.7 -1.428,0.98 -0.84,0.28 -1.862,0.28 -1.876,0 -3.01,-0.882 -1.12,-0.896 -1.12,-2.632 h 1.274 q 0.042,1.274 0.854,1.862 0.812,0.574 2.114,0.574 1.022,0 1.75,-0.42 0.728,-0.434 0.728,-1.4 0,-0.448 -0.196,-0.756 -0.196,-0.322 -0.616,-0.518 -0.42,-0.21 -0.84,-0.336 -0.42,-0.126 -1.106,-0.28 -0.098,-0.014 -0.14,-0.028 -1.54,-0.35 -2.016,-0.56 -1.456,-0.63 -1.456,-2.17 0,-1.428 1.05,-2.128 1.064,-0.714 2.562,-0.714 1.638,0 2.618,0.784 0.98,0.784 1.036,2.338 z m 8.91801,-2.926 v 1.148 h -5.586 v 3.122 h 5.222 v 1.106 h -5.222 v 3.444 h 5.656 V 21 h -6.972 v -9.968 z m 8.274001,8.82 V 21 h -6.608 v -9.968 h 1.316 v 8.82 z m 8.063996,-8.82 v 1.148 h -5.586 v 3.122 h 5.222 v 1.106 h -5.222 v 3.444 h 5.656 V 21 h -6.972 v -9.968 z m 10.094001,6.202 q -0.168,1.89 -1.316,2.954 -1.134,1.05 -2.996,1.05 -2.128,0 -3.374,-1.4 -1.246,-1.414 -1.246,-3.808 0,-2.24 1.246,-3.724 1.26,-1.498 3.472,-1.498 1.582,0 2.786,0.854 1.204,0.854 1.344,2.366 h -1.316 q -0.224,-0.98 -0.98,-1.526 -0.756,-0.56 -1.862,-0.56 -1.666,0 -2.52,1.176 -0.84,1.176 -0.84,2.898 0,1.904 0.896,2.996 0.896,1.092 2.45,1.092 1.274,0 2.03,-0.728 0.756,-0.742 0.91,-2.142 z m 8.582002,-6.202 v 1.148 h -3.346 V 21 h -1.316 v -8.82 h -3.346 v -1.148 z"
       id="text3"
       class="nonterminal"
       style="font-size:14px;font-family:HelveticaNeueCyr, Sans-serif;fill:#1a0000"
       aria-label="SELECT" />
  </a>
  <a
     xlink:href="#union_all"
     xlink:title="UNION"
     id="a5">
    <path
       id="rect4"
       style="fill:#330000;stroke:#330000"
       d="m 157,35 h 60 v 32 h -60 z" />
    <path
       id="rect5"
       class="nonterminal"
       style="fill:#ff9e9e;stroke:#330000"
       d="m 155,33 h 60 v 32 h -60 z" />
    <path
       d="m 164.036,43.032 h 1.33 v 6.286 q 0,1.456 0.63,2.128 0.63,0.672 2.058,0.672 1.47,0 2.072,-0.686 0.616,-0.686 0.616,-2.114 v -6.286 h 1.33 v 5.936 q 0,2.184 -0.91,3.22 -0.91,1.022 -3.108,1.022 -2.128,0 -3.08,-0.994 -0.938,-1.008 -0.938,-3.108 z m 10.122,0 h 1.442 l 5.264,8.092 v -8.092 h 1.274 V 53 h -1.484 l -5.236,-7.994 V 53 h -1.26 z m 11.536,0 V 53 h -1.316 v -9.968 z m 6.45401,-0.238 q 2.268,0 3.528,1.428 1.26,1.414 1.26,3.71 0,2.31 -1.246,3.808 -1.246,1.498 -3.528,1.498 -1.162,0 -2.086,-0.42 -0.924,-0.42 -1.512,-1.162 -0.574,-0.742 -0.882,-1.694 -0.294,-0.952 -0.294,-2.058 0,-2.338 1.288,-3.724 1.302,-1.386 3.472,-1.386 z m 0,1.148 q -1.666,0 -2.562,1.176 -0.882,1.162 -0.882,2.884 0,1.876 0.938,2.996 0.952,1.106 2.534,1.106 1.568,0 2.506,-1.12 0.938,-1.12 0.938,-2.982 0,-1.848 -0.952,-2.954 -0.938,-1.106 -2.52,-1.106 z m 6.38401,-0.91 h 1.442 l 5.264,8.092 v -8.092 h 1.274 V 53 h -1.484 l -5.236,-7.994 V 53 h -1.26 z"
       id="text5"
       class="nonterminal"
       style="font-size:14px;font-family:HelveticaNeueCyr, Sans-serif;fill:#1a0000"
       aria-label="UNION" />
  </a>
  <a
     xlink:href="#union_all"
     xlink:title="ALL"
     id="a7">
    <path
       id="rect6"
       style="fill:#330000;stroke:#330000"
       d="m 237,35 h 42 v 32 h -42 z" />
    <path
       id="rect7"
       class="nonterminal"
       style="fill:#ff9e9e;stroke:#330000"
       d="m 235,33 h 42 v 32 h -42 z" />
    <path
       d="M 250.292,43.032 254.184,53 h -1.47 l -1.106,-3.052 h -4.186 L 246.288,53 h -1.4 l 3.92,-9.968 z m 0.924,5.866 -1.694,-4.606 -1.722,4.606 z m 10.58401,2.954 V 53 h -6.608 v -9.968 h 1.316 v 8.82 z m 7.784,0 V 53 h -6.608 v -9.968 h 1.316 v 8.82 z"
       id="text7"
       class="nonterminal"
       style="font-size:14px;font-family:HelveticaNeueCyr, Sans-serif;fill:#1a0000"
       aria-label="ALL" />
  </a>
  <a
     xlink:href="#except"
     xlink:title="EXCEPT"
     id="a9">
    <path
       id="rect8"
       style="fill:#330000;stroke:#330000"
       d="m 157,79 h 68 v 32 h -68 z" />
    <path
       id="rect9"
       class="nonterminal"
       style="fill:#ff9e9e;stroke:#330000"
       d="m 155,77 h 68 v 32 h -68 z" />
    <path
       d="m 171.008,87.032 v 1.148 h -5.586 v 3.122 h 5.222 v 1.106 h -5.222 v 3.444 h 5.656 V 97 h -6.972 v -9.968 z m 8.876,0 -3.318,4.83 3.5,5.138 H 178.47 L 175.782,92.898 172.996,97 h -1.512 l 3.514,-5.138 -3.29,-4.83 h 1.582 l 2.506,3.836 2.59,-3.836 z m 9.772,6.202 q -0.168,1.89 -1.316,2.954 -1.134,1.05 -2.996,1.05 -2.128,0 -3.374,-1.4 -1.246,-1.414 -1.246,-3.808 0,-2.24 1.246,-3.724 1.26,-1.498 3.472,-1.498 1.582,0 2.786,0.854 1.204,0.854 1.344,2.366 h -1.316 q -0.224,-0.98 -0.98,-1.526 -0.756,-0.56 -1.862,-0.56 -1.666,0 -2.52,1.176 -0.84,1.176 -0.84,2.898 0,1.904 0.896,2.996 0.896,1.092 2.45,1.092 1.274,0 2.03,-0.728 0.756,-0.742 0.91,-2.142 z m 8.568,-6.202 v 1.148 h -5.586 v 3.122 h 5.222 v 1.106 h -5.222 v 3.444 h 5.656 V 97 h -6.972 v -9.968 z m 1.708,0 h 4.102 q 1.526,0 2.422,0.7 0.896,0.686 0.896,2.17 0,3.01 -3.402,3.01 h -2.702 V 97 h -1.316 z m 1.316,1.134 v 3.64 h 2.534 q 1.064,0 1.652,-0.392 0.602,-0.406 0.602,-1.428 0,-0.574 -0.196,-0.952 -0.182,-0.378 -0.546,-0.56 -0.364,-0.182 -0.756,-0.238 -0.392,-0.07 -0.938,-0.07 z m 14.61601,-1.134 v 1.148 h -3.346 V 97 h -1.316 v -8.82 h -3.346 v -1.148 z"
       id="text9"
       class="nonterminal"
       style="font-size:14px;font-family:HelveticaNeueCyr, Sans-serif;fill:#1a0000"
       aria-label="EXCEPT" />
  </a>
  <path
     id="rect10"
     style="fill:#330000;stroke:#330000"
     d="m 275,111 h 66 c 5.54,0 10,4.46 10,10 v 12 c 0,5.54 -4.46,10 -10,10 h -66 c -5.54,0 -10,-4.46 -10,-10 v -12 c 0,-5.54 4.46,-10 10,-10 z" />
  <path
     id="rect11"
     class="terminal"
     style="fill:#ff4d4d;stroke:#330000"
     d="m 273,109 h 66 c 5.54,0 10,4.46 10,10 v 12 c 0,5.54 -4.46,10 -10,10 h -66 c -5.54,0 -10,-4.46 -10,-10 v -12 c 0,-5.54 4.46,-10 10,-10 z" />
  <path
     d="m 273.98,129 v -9.968 h 4.032 q 2.324,0 3.57,1.288 1.26,1.288 1.26,3.696 0,2.408 -1.26,3.696 -1.246,1.288 -3.57,1.288 z m 2.17,-1.82 h 1.596 q 2.898,0 2.898,-3.164 0,-1.526 -0.728,-2.338 -0.714,-0.826 -2.17,-0.826 h -1.596 z m 10.38799,-8.148 V 129 h -2.198 v -9.968 z m 9.31,2.968 h -2.072 q -0.126,-1.484 -1.89,-1.484 -0.756,0 -1.19,0.308 -0.42,0.294 -0.42,0.826 0,0.182 0.056,0.322 0.056,0.14 0.21,0.266 0.154,0.112 0.308,0.196 0.154,0.07 0.448,0.168 0.308,0.084 0.546,0.154 0.252,0.07 0.7,0.182 0.448,0.112 0.784,0.21 1.47,0.42 2.184,1.05 0.728,0.63 0.728,1.806 0,0.854 -0.35,1.498 -0.35,0.63 -0.952,1.008 -0.588,0.364 -1.302,0.532 -0.7,0.182 -1.498,0.182 -2.03,0 -3.178,-0.924 -1.134,-0.938 -1.148,-2.632 h 2.17 q 0.056,1.876 2.254,1.876 0.854,0 1.344,-0.35 0.504,-0.364 0.504,-0.98 0,-0.518 -0.462,-0.756 -0.448,-0.238 -1.904,-0.658 -0.238,-0.056 -0.364,-0.098 -0.504,-0.14 -0.7,-0.196 -0.196,-0.07 -0.63,-0.224 -0.42,-0.154 -0.616,-0.28 -0.196,-0.126 -0.49,-0.35 -0.28,-0.224 -0.406,-0.462 -0.126,-0.252 -0.238,-0.602 -0.098,-0.364 -0.098,-0.784 0,-1.358 1.05,-2.17 1.05,-0.812 2.786,-0.812 1.68,0 2.744,0.798 1.064,0.784 1.092,2.38 z m 9.114,-2.968 v 1.862 h -2.996 V 129 h -2.198 v -8.106 h -2.996 v -1.862 z m 3.346,0 V 129 h -2.198 v -9.968 z m 1.932,9.968 v -9.968 h 2.226 l 4.102,6.678 v -6.678 h 2.1 V 129 h -2.184 l -4.13,-6.692 V 129 Z m 19.27799,-3.85 q -0.168,1.876 -1.316,2.982 -1.148,1.106 -3.15,1.106 -2.17,0 -3.5,-1.428 -1.316,-1.442 -1.316,-3.808 0,-2.24 1.33,-3.724 1.344,-1.484 3.57,-1.484 1.778,0 2.982,1.008 1.204,1.008 1.33,2.562 h -2.142 q -0.168,-0.826 -0.756,-1.274 -0.574,-0.462 -1.456,-0.462 -0.91,0 -1.54,0.518 -0.616,0.504 -0.868,1.246 -0.252,0.742 -0.252,1.624 0,1.54 0.714,2.464 0.714,0.91 1.918,0.91 2.002,0 2.282,-2.24 z m 8.87599,-6.118 v 1.862 h -2.996 V 129 h -2.198 v -8.106 h -2.996 v -1.862 z"
     id="text11"
     class="terminal"
     style="font-weight:bold;font-size:14px;font-family:HelveticaNeueCyr, Sans-serif;fill:#140000"
     aria-label="DISTINCT" />
  <a
     xlink:href="#select"
     xlink:title="SELECT"
     id="a13">
    <path
       id="rect12"
       style="fill:#330000;stroke:#330000"
       d="m 411,35 h 66 v 32 h -66 z" />
    <path
       id="rect13"
       class="nonterminal"
       style="fill:#ff9e9e;stroke:#330000"
       d="m 409,33 h 66 v 32 h -66 z" />
    <path
       d="m 425.162,45.958 h -1.274 q -0.21,-2.03 -2.478,-2.03 -1.078,0 -1.666,0.434 -0.588,0.434 -0.588,1.218 0,0.28 0.084,0.49 0.084,0.21 0.28,0.378 0.21,0.154 0.392,0.266 0.182,0.112 0.574,0.224 0.392,0.112 0.63,0.168 0.238,0.042 0.742,0.154 0.616,0.126 1.022,0.238 0.406,0.098 0.966,0.336 0.56,0.238 0.882,0.532 0.336,0.28 0.574,0.756 0.252,0.476 0.252,1.078 0,1.05 -0.588,1.764 -0.588,0.7 -1.428,0.98 -0.84,0.28 -1.862,0.28 -1.876,0 -3.01,-0.882 -1.12,-0.896 -1.12,-2.632 h 1.274 q 0.042,1.274 0.854,1.862 0.812,0.574 2.114,0.574 1.022,0 1.75,-0.42 0.728,-0.434 0.728,-1.4 0,-0.448 -0.196,-0.756 -0.196,-0.322 -0.616,-0.518 -0.42,-0.21 -0.84,-0.336 -0.42,-0.126 -1.106,-0.28 -0.098,-0.014 -0.14,-0.028 -1.54,-0.35 -2.016,-0.56 -1.456,-0.63 -1.456,-2.17 0,-1.428 1.05,-2.128 1.064,-0.714 2.562,-0.714 1.638,0 2.618,0.784 0.98,0.784 1.036,2.338 z m 8.91801,-2.926 v 1.148 h -5.586 v 3.122 h 5.222 v 1.106 h -5.222 v 3.444 h 5.656 V 53 h -6.972 v -9.968 z m 8.274,8.82 V 53 h -6.608 v -9.968 h 1.316 v 8.82 z m 8.064,-8.82 v 1.148 h -5.586 v 3.122 h 5.222 v 1.106 h -5.222 v 3.444 h 5.656 V 53 h -6.972 v -9.968 z m 10.094,6.202 q -0.168,1.89 -1.316,2.954 -1.134,1.05 -2.996,1.05 -2.128,0 -3.374,-1.4 -1.246,-1.414 -1.246,-3.808 0,-2.24 1.246,-3.724 1.26,-1.498 3.472,-1.498 1.582,0 2.786,0.854 1.204,0.854 1.344,2.366 h -1.316 q -0.224,-0.98 -0.98,-1.526 -0.756,-0.56 -1.862,-0.56 -1.666,0 -2.52,1.176 -0.84,1.176 -0.84,2.898 0,1.904 0.896,2.996 0.896,1.092 2.45,1.092 1.274,0 2.03,-0.728 0.756,-0.742 0.91,-2.142 z m 8.582,-6.202 v 1.148 h -3.346 V 53 h -1.316 v -8.82 h -3.346 v -1.148 z"
       id="text13"
       class="nonterminal"
       style="font-size:14px;font-family:HelveticaNeueCyr, Sans-serif;fill:#1a0000"
       aria-label="SELECT" />
  </a>
  <path
     class="line"
     d="m17 17 h2 m0 0 h10 m66 0 h10 m20 0 h10 m0 0 h350 m-380 0 h20 m360 0 h20 m-400 0 q10 0 10 10 m380 0 q0 -10 10 -10 m-390 10 v12 m380 0 v-12 m-380 12 q0 10 10 10 m360 0 q10 0 10 -10 m-350 10 h10 m60 0 h10 m0 0 h10 m42 0 h10 m0 0 h92 m-254 0 h20 m234 0 h20 m-274 0 q10 0 10 10 m254 0 q0 -10 10 -10 m-264 10 v24 m254 0 v-24 m-254 24 q0 10 10 10 m234 0 q10 0 10 -10 m-244 10 h10 m68 0 h10 m20 0 h10 m0 0 h96 m-126 0 h20 m106 0 h20 m-146 0 q10 0 10 10 m126 0 q0 -10 10 -10 m-136 10 v12 m126 0 v-12 m-126 12 q0 10 10 10 m106 0 q10 0 10 -10 m-116 10 h10 m86 0 h10 m40 -76 h10 m66 0 h10 m23 -32 h-3"
     id="path13" />
  <path
     id="polygon13"
     style="fill:#330000;stroke:#330000"
     d="m 515,17 8,-4 v 8 z" />
  <path
     id="polygon14"
     style="fill:#330000;stroke:#330000"
     d="m 515,17 -8,-4 v 8 z" />
</svg>
