<?xml version="1.0" encoding="UTF-8" standalone="no"?>
<svg
   width="649"
   height="69"
   version="1.1"
   id="svg18"
   sodipodi:docname="DropRole.svg"
   inkscape:version="1.3 (0e150ed6c4, 2023-07-21)"
   xmlns:inkscape="http://www.inkscape.org/namespaces/inkscape"
   xmlns:sodipodi="http://sodipodi.sourceforge.net/DTD/sodipodi-0.dtd"
   xmlns:xlink="http://www.w3.org/1999/xlink"
   xmlns="http://www.w3.org/2000/svg"
   xmlns:svg="http://www.w3.org/2000/svg">
  <sodipodi:namedview
     id="namedview18"
     pagecolor="#ffffff"
     bordercolor="#666666"
     borderopacity="1.0"
     inkscape:showpageshadow="2"
     inkscape:pageopacity="0.0"
     inkscape:pagecheckerboard="0"
     inkscape:deskcolor="#d1d1d1"
     inkscape:zoom="1.03698"
     inkscape:cx="324.5"
     inkscape:cy="34.234027"
     inkscape:window-width="1854"
     inkscape:window-height="1011"
     inkscape:window-x="66"
     inkscape:window-y="32"
     inkscape:window-maximized="1"
     inkscape:current-layer="svg18" />
  <defs
     id="defs1">
    <style
       type="text/css"
       id="style1">@namespace &quot;http://www.w3.org/2000/svg&quot;;.line { fill: none; stroke: #330000; stroke-width: 1; }&#10;.bold-line { stroke: #140000; shape-rendering: crispEdges; stroke-width: 2; }&#10;.thin-line { stroke: #1F0000; shape-rendering: crispEdges }&#10;.filled { fill: #330000; stroke: none; }&#10;text.terminal { font-family: HelveticaNeueCyr, Sans-serif;                            font-size: 14px;                            fill: #140000;                            font-weight: bold; }&#10;text.nonterminal { font-family: HelveticaNeueCyr, Sans-serif;                            font-size: 14px;                            fill: #1A0000;                            font-weight: normal; }&#10;text.regexp { font-family: HelveticaNeueCyr, Sans-serif;                            font-size: 14px;                            fill: #1F0000;                            font-weight: normal; }&#10;rect, circle, polygon { fill: #330000; stroke: #330000; }&#10;rect.terminal { fill: #FF4D4D; stroke: #330000; stroke-width: 1; }&#10;rect.nonterminal { fill: #FF9E9E; stroke: #330000; stroke-width: 1; }&#10;rect.text { fill: none; stroke: none; }&#10;polygon.regexp { fill: #FFC7C7; stroke: #330000; stroke-width: 1; }&#10;</style>
  </defs>
  <path
     id="polygon1"
     style="fill:#330000;stroke:#330000"
     d="M 9,17 1,13 v 8 z" />
  <path
     id="polygon2"
     style="fill:#330000;stroke:#330000"
     d="M 17,17 9,13 v 8 z" />
  <path
     id="rect2"
     style="fill:#330000;stroke:#330000"
     d="m 41,3 h 60 c 5.54,0 10,4.46 10,10 v 12 c 0,5.54 -4.46,10 -10,10 H 41 C 35.46,35 31,30.54 31,25 V 13 C 31,7.46 35.46,3 41,3 Z" />
  <path
     id="rect3"
     class="terminal"
     style="fill:#ff4d4d;stroke:#330000"
     d="m 39,1 h 60 c 5.54,0 10,4.46 10,10 v 12 c 0,5.54 -4.46,10 -10,10 H 39 C 33.46,33 29,28.54 29,23 V 11 C 29,5.46 33.46,1 39,1 Z" />
  <path
     d="m 46.798,21 h -1.876 v -0.924 q -0.714,1.12 -2.184,1.12 -1.498,0 -2.394,-1.036 -0.882,-1.05 -0.882,-2.8 0,-1.708 0.854,-2.744 0.868,-1.036 2.31,-1.036 0.672,0 1.26,0.28 0.602,0.28 0.938,0.812 v -3.64 h 1.974 z m -1.904,-3.626 q 0,-1.05 -0.462,-1.638 -0.448,-0.588 -1.26,-0.588 -0.812,0 -1.26,0.588 -0.448,0.588 -0.448,1.624 0,1.05 0.448,1.652 0.462,0.588 1.26,0.588 0.826,0 1.274,-0.574 0.448,-0.588 0.448,-1.652 z m 8.106001,-3.724 v 1.834 q -0.42,-0.084 -0.77,-0.084 -0.98,0 -1.442,0.63 -0.462,0.616 -0.462,1.666 V 21 h -1.988 v -7.224 h 1.89 v 1.33 q 0.714,-1.498 2.338,-1.498 0.14,0 0.434,0.042 z m 4.060004,-0.084 q 1.666,0 2.674,1.05 1.022,1.05 1.022,2.772 0,1.736 -1.022,2.786 -1.008,1.05 -2.702,1.05 -1.694,0 -2.716,-1.05 -1.022,-1.05 -1.022,-2.786 0,-1.722 1.036,-2.772 1.036,-1.05 2.73,-1.05 z m -0.056,1.512 q -0.798,0 -1.26,0.616 -0.462,0.616 -0.462,1.694 0,1.106 0.462,1.722 0.462,0.616 1.288,0.616 0.826,0 1.274,-0.616 0.462,-0.63 0.462,-1.736 0,-1.078 -0.476,-1.68 -0.462,-0.616 -1.288,-0.616 z m 6.930001,-1.302 v 0.896 q 0.784,-1.092 2.24,-1.092 1.456,0 2.338,1.05 0.882,1.05 0.882,2.8 0,1.694 -0.868,2.73 -0.854,1.022 -2.268,1.022 -1.456,0 -2.226,-1.078 v 3.458 h -1.974 v -9.786 z m 1.75,1.4 q -0.812,0 -1.274,0.588 -0.448,0.588 -0.448,1.638 0,1.05 0.462,1.638 0.462,0.588 1.274,0.588 0.798,0 1.246,-0.588 0.462,-0.588 0.462,-1.61 0,-1.05 -0.462,-1.652 -0.462,-0.602 -1.26,-0.602 z M 79.194005,13.65 v 1.834 q -0.42,-0.084 -0.77,-0.084 -0.98,0 -1.442,0.63 -0.462,0.616 -0.462,1.666 V 21 h -1.988 v -7.224 h 1.89 v 1.33 q 0.714,-1.498 2.338,-1.498 0.14,0 0.434,0.042 z m 4.060004,-0.084 q 1.666,0 2.674,1.05 1.022,1.05 1.022,2.772 0,1.736 -1.022,2.786 -1.008,1.05 -2.702,1.05 -1.694,0 -2.716,-1.05 -1.022,-1.05 -1.022,-2.786 0,-1.722 1.036,-2.772 1.036,-1.05 2.73,-1.05 z m -0.056,1.512 q -0.798,0 -1.26,0.616 -0.462,0.616 -0.462,1.694 0,1.106 0.462,1.722 0.462,0.616 1.288,0.616 0.826,0 1.274,-0.616 0.462,-0.63 0.462,-1.736 0,-1.078 -0.476,-1.68 -0.462,-0.616 -1.288,-0.616 z M 90.29601,11.032 V 21 h -1.988 v -9.968 z m 8.357992,7.728 q -0.336,1.162 -1.246,1.806 -0.896,0.644 -2.142,0.644 -1.666,0 -2.688,-1.036 -1.008,-1.036 -1.008,-2.744 0,-1.68 1.022,-2.772 1.022,-1.092 2.604,-1.092 1.638,0 2.604,1.12 0.966,1.106 0.966,3.01 v 0.196 h -5.18 q 0.014,0.938 0.448,1.428 0.448,0.49 1.246,0.49 1.05,0 1.47,-1.05 z m -1.904,-2.128 q -0.07,-0.714 -0.462,-1.162 -0.392,-0.462 -1.092,-0.462 -0.658,0 -1.092,0.434 -0.434,0.434 -0.518,1.19 z"
     id="text3"
     class="terminal"
     style="font-weight:bold;font-size:14px;font-family:HelveticaNeueCyr, Sans-serif;fill:#140000"
     aria-label="drop role" />
  <a
     xlink:href="#role"
     xlink:title="role"
     id="a5">
    <path
       id="rect4"
       style="fill:#330000;stroke:#330000"
       d="m 131,3 h 44 v 32 h -44 z" />
    <path
       id="rect5"
       class="nonterminal"
       style="fill:#ff9e9e;stroke:#330000"
       d="m 129,1 h 44 v 32 h -44 z" />
    <path
       d="m 143.662,13.608 v 1.232 q -0.126,-0.014 -0.308,-0.014 -0.574,0 -0.994,0.182 -0.42,0.168 -0.672,0.448 -0.238,0.28 -0.392,0.7 -0.154,0.42 -0.21,0.84 -0.042,0.42 -0.042,0.952 V 21 h -1.19 v -7.224 h 1.134 v 1.554 q 0.714,-1.722 2.674,-1.722 z m 1.21801,0.994 q 0.952,-1.036 2.59,-1.036 1.638,0 2.548,0.994 0.91,0.994 0.91,2.786 0,1.834 -0.91,2.856 -0.91,1.022 -2.562,1.022 -1.652,0 -2.59,-1.008 -0.938,-1.008 -0.938,-2.8 0,-1.778 0.952,-2.814 z m 4.214,0.728 q -0.602,-0.77 -1.652,-0.77 -1.05,0 -1.666,0.77 -0.616,0.77 -0.616,2.058 0,1.33 0.602,2.086 0.616,0.742 1.708,0.742 1.05,0 1.638,-0.756 0.602,-0.756 0.602,-2.086 0,-1.288 -0.616,-2.044 z M 153.602,11.032 V 21 h -1.204 v -9.968 z m 8.022,7.686 q -0.546,2.52 -3.15,2.52 -1.596,0 -2.506,-0.994 -0.896,-0.994 -0.896,-2.758 0,-1.75 0.924,-2.828 0.938,-1.092 2.436,-1.092 1.666,0 2.464,1.134 0.812,1.12 0.812,2.842 v 0.168 h -5.432 l -0.014,0.084 q 0,1.148 0.602,1.806 0.602,0.658 1.652,0.658 0.784,0 1.232,-0.364 0.462,-0.364 0.714,-1.176 z m -1.148,-1.974 q -0.084,-1.036 -0.63,-1.61 -0.546,-0.588 -1.442,-0.588 -0.868,0 -1.442,0.588 -0.574,0.588 -0.686,1.61 z"
       id="text5"
       class="nonterminal"
       style="font-size:14px;font-family:HelveticaNeueCyr, Sans-serif;fill:#1a0000"
       aria-label="role" />
  </a>
  <path
     id="rect6"
     style="fill:#330000;stroke:#330000"
     d="m 225,35 h 42 c 5.54,0 10,4.46 10,10 v 12 c 0,5.54 -4.46,10 -10,10 h -42 c -5.54,0 -10,-4.46 -10,-10 V 45 c 0,-5.54 4.46,-10 10,-10 z" />
  <path
     id="rect7"
     class="terminal"
     style="fill:#ff4d4d;stroke:#330000"
     d="m 223,33 h 42 c 5.54,0 10,4.46 10,10 v 12 c 0,5.54 -4.46,10 -10,10 h -42 c -5.54,0 -10,-4.46 -10,-10 V 43 c 0,-5.54 4.46,-10 10,-10 z" />
  <path
     d="m 227.312,45.566 q 1.666,0 2.674,1.05 1.022,1.05 1.022,2.772 0,1.736 -1.022,2.786 -1.008,1.05 -2.702,1.05 -1.694,0 -2.716,-1.05 -1.022,-1.05 -1.022,-2.786 0,-1.722 1.036,-2.772 1.036,-1.05 2.73,-1.05 z m -0.056,1.512 q -0.798,0 -1.26,0.616 -0.462,0.616 -0.462,1.694 0,1.106 0.462,1.722 0.462,0.616 1.288,0.616 0.826,0 1.274,-0.616 0.462,-0.63 0.462,-1.736 0,-1.078 -0.476,-1.68 -0.462,-0.616 -1.288,-0.616 z m 6.93,-1.302 v 0.896 q 0.784,-1.092 2.24,-1.092 1.456,0 2.338,1.05 0.882,1.05 0.882,2.8 0,1.694 -0.868,2.73 -0.854,1.022 -2.268,1.022 -1.456,0 -2.226,-1.078 v 3.458 h -1.974 v -9.786 z m 1.75,1.4 q -0.812,0 -1.274,0.588 -0.448,0.588 -0.448,1.638 0,1.05 0.462,1.638 0.462,0.588 1.274,0.588 0.798,0 1.246,-0.588 0.462,-0.588 0.462,-1.61 0,-1.05 -0.462,-1.652 -0.462,-0.602 -1.26,-0.602 z m 8.904,-1.4 v 1.344 h -1.47 v 3.402 q 0,0.322 0.014,0.476 0.014,0.14 0.098,0.294 0.084,0.154 0.252,0.21 0.182,0.042 0.504,0.042 0.364,0 0.602,-0.028 v 1.512 q -0.728,0.056 -1.204,0.056 -1.302,0 -1.778,-0.448 -0.462,-0.462 -0.462,-1.764 V 47.12 h -1.204 v -1.344 h 1.204 v -2.184 h 1.974 v 2.184 z m 2.99599,-2.744 v 1.68 h -1.988 v -1.68 z m 0,2.744 V 53 h -1.988 v -7.224 z m 5.12399,-0.21 q 1.666,0 2.674,1.05 1.022,1.05 1.022,2.772 0,1.736 -1.022,2.786 -1.008,1.05 -2.702,1.05 -1.694,0 -2.716,-1.05 -1.022,-1.05 -1.022,-2.786 0,-1.722 1.036,-2.772 1.036,-1.05 2.73,-1.05 z m -0.056,1.512 q -0.798,0 -1.26,0.616 -0.462,0.616 -0.462,1.694 0,1.106 0.462,1.722 0.462,0.616 1.288,0.616 0.826,0 1.274,-0.616 0.462,-0.63 0.462,-1.736 0,-1.078 -0.476,-1.68 -0.462,-0.616 -1.288,-0.616 z m 11.858,5.922 h -2.016 v -4.214 q 0,-0.77 -0.252,-1.162 -0.252,-0.406 -0.98,-0.406 -1.568,0 -1.568,1.904 V 53 h -1.974 v -7.224 h 1.89 v 1.008 q 0.896,-1.204 2.394,-1.204 1.162,0 1.834,0.672 0.672,0.672 0.672,1.918 z"
     id="text7"
     class="terminal"
     style="font-weight:bold;font-size:14px;font-family:HelveticaNeueCyr, Sans-serif;fill:#140000"
     aria-label="option" />
  <path
     id="rect8"
     style="fill:#330000;stroke:#330000"
     d="m 307,35 h 6 c 5.54,0 10,4.46 10,10 v 12 c 0,5.54 -4.46,10 -10,10 h -6 c -5.54,0 -10,-4.46 -10,-10 V 45 c 0,-5.54 4.46,-10 10,-10 z" />
  <path
     id="rect9"
     class="terminal"
     style="fill:#ff4d4d;stroke:#330000"
     d="m 305,33 h 6 c 5.54,0 10,4.46 10,10 v 12 c 0,5.54 -4.46,10 -10,10 h -6 c -5.54,0 -10,-4.46 -10,-10 V 43 c 0,-5.54 4.46,-10 10,-10 z" />
  <path
     d="m 309.228,42.878 q -0.812,1.624 -1.19,3.108 -0.364,1.484 -0.364,3.262 0,3.08 1.582,6.244 h -1.68 q -0.868,-1.316 -1.358,-2.954 -0.476,-1.638 -0.476,-3.248 0,-1.68 0.462,-3.388 0.476,-1.722 1.372,-3.024 z"
     id="text9"
     class="terminal"
     style="font-weight:bold;font-size:14px;font-family:HelveticaNeueCyr, Sans-serif;fill:#140000"
     aria-label="(" />
  <path
     id="rect10"
     style="fill:#330000;stroke:#330000"
     d="m 353,35 h 52 c 5.54,0 10,4.46 10,10 v 12 c 0,5.54 -4.46,10 -10,10 h -52 c -5.54,0 -10,-4.46 -10,-10 V 45 c 0,-5.54 4.46,-10 10,-10 z" />
  <path
     id="rect11"
     class="terminal"
     style="fill:#ff4d4d;stroke:#330000"
     d="m 351,33 h 52 c 5.54,0 10,4.46 10,10 v 12 c 0,5.54 -4.46,10 -10,10 h -52 c -5.54,0 -10,-4.46 -10,-10 V 43 c 0,-5.54 4.46,-10 10,-10 z" />
  <path
     d="m 355.732,45.776 v 1.344 h -1.47 v 3.402 q 0,0.322 0.014,0.476 0.014,0.14 0.098,0.294 0.084,0.154 0.252,0.21 0.182,0.042 0.504,0.042 0.364,0 0.602,-0.028 v 1.512 q -0.728,0.056 -1.204,0.056 -1.302,0 -1.778,-0.448 -0.462,-0.462 -0.462,-1.764 V 47.12 h -1.204 v -1.344 h 1.204 v -2.184 h 1.974 v 2.184 z m 2.99599,-2.744 v 1.68 h -1.988 v -1.68 z m 0,2.744 V 53 h -1.988 V 45.776 Z M 371.42598,53 h -2.016 v -4.312 q 0,-0.714 -0.224,-1.092 -0.224,-0.392 -0.924,-0.392 -1.386,0 -1.386,1.736 V 53 h -1.988 v -4.396 q 0,-0.672 -0.224,-1.036 -0.224,-0.378 -0.868,-0.378 -1.442,0 -1.442,1.89 V 53 h -1.988 v -7.224 h 1.89 v 0.994 q 0.854,-1.19 2.296,-1.19 1.498,0 2.044,1.19 0.868,-1.19 2.366,-1.19 1.19,0 1.82,0.7 0.644,0.686 0.644,1.862 z m 8.344,-2.24 q -0.336,1.162 -1.246,1.806 -0.896,0.644 -2.142,0.644 -1.666,0 -2.688,-1.036 -1.008,-1.036 -1.008,-2.744 0,-1.68 1.022,-2.772 1.022,-1.092 2.604,-1.092 1.638,0 2.604,1.12 0.966,1.106 0.966,3.01 v 0.196 h -5.18 q 0.014,0.938 0.448,1.428 0.448,0.49 1.246,0.49 1.05,0 1.47,-1.05 z m -1.904,-2.128 q -0.07,-0.714 -0.462,-1.162 -0.392,-0.462 -1.092,-0.462 -0.658,0 -1.092,0.434 -0.434,0.434 -0.518,1.19 z m 6.706,-3.066 q 1.666,0 2.674,1.05 1.022,1.05 1.022,2.772 0,1.736 -1.022,2.786 -1.008,1.05 -2.702,1.05 -1.694,0 -2.716,-1.05 -1.022,-1.05 -1.022,-2.786 0,-1.722 1.036,-2.772 1.036,-1.05 2.73,-1.05 z m -0.056,1.512 q -0.798,0 -1.26,0.616 -0.462,0.616 -0.462,1.694 0,1.106 0.462,1.722 0.462,0.616 1.288,0.616 0.826,0 1.274,-0.616 0.462,-0.63 0.462,-1.736 0,-1.078 -0.476,-1.68 -0.462,-0.616 -1.288,-0.616 z m 11.83,-1.302 V 53 h -1.89 v -1.022 q -0.84,1.232 -2.352,1.232 -1.19,0 -1.862,-0.644 -0.658,-0.658 -0.658,-1.932 v -4.858 h 2.002 v 4.13 q 0,0.406 0.028,0.658 0.042,0.238 0.154,0.49 0.112,0.252 0.364,0.378 0.266,0.112 0.672,0.112 1.568,0 1.568,-2.044 v -3.724 z m 5.502,0 v 1.344 h -1.47 v 3.402 q 0,0.322 0.014,0.476 0.014,0.14 0.098,0.294 0.084,0.154 0.252,0.21 0.182,0.042 0.504,0.042 0.364,0 0.602,-0.028 v 1.512 q -0.728,0.056 -1.204,0.056 -1.302,0 -1.778,-0.448 -0.462,-0.462 -0.462,-1.764 V 47.12 h -1.204 v -1.344 h 1.204 v -2.184 h 1.974 v 2.184 z"
     id="text11"
     class="terminal"
     style="font-weight:bold;font-size:14px;font-family:HelveticaNeueCyr, Sans-serif;fill:#140000"
     aria-label="timeout" />
  <path
     id="rect12"
     style="fill:#330000;stroke:#330000"
     d="m 445,35 h 10 c 5.54,0 10,4.46 10,10 v 12 c 0,5.54 -4.46,10 -10,10 h -10 c -5.54,0 -10,-4.46 -10,-10 V 45 c 0,-5.54 4.46,-10 10,-10 z" />
  <path
     id="rect13"
     class="terminal"
     style="fill:#ff4d4d;stroke:#330000"
     d="m 443,33 h 10 c 5.54,0 10,4.46 10,10 v 12 c 0,5.54 -4.46,10 -10,10 h -10 c -5.54,0 -10,-4.46 -10,-10 V 43 c 0,-5.54 4.46,-10 10,-10 z" />
  <path
     d="M 443.56,48.688 V 47.12 h 7.28 v 1.568 z m 0,2.926 v -1.568 h 7.28 v 1.568 z"
     id="text13"
     class="terminal"
     style="font-weight:bold;font-size:14px;font-family:HelveticaNeueCyr, Sans-serif;fill:#140000"
     aria-label="=" />
  <a
     xlink:href="#DOUBLE"
     xlink:title="DOUBLE"
     id="a15">
    <path
       id="rect14"
       style="fill:#330000;stroke:#330000"
       d="m 485,35 h 70 v 32 h -70 z" />
    <path
       id="rect15"
       class="nonterminal"
       style="fill:#ff9e9e;stroke:#330000"
       d="m 483,33 h 70 v 32 h -70 z" />
    <path
       d="m 494.106,43.032 h 3.248 q 2.534,0 3.738,1.176 1.204,1.176 1.204,3.724 0,2.506 -1.12,3.794 Q 500.056,53 497.592,53 h -3.486 z m 1.316,1.134 v 7.7 h 2.002 q 1.876,0 2.716,-0.91 0.854,-0.924 0.854,-2.87 0,-2.044 -0.826,-2.982 -0.826,-0.938 -2.8,-0.938 z m 12.74001,-1.372 q 2.268,0 3.528,1.428 1.26,1.414 1.26,3.71 0,2.31 -1.246,3.808 -1.246,1.498 -3.528,1.498 -1.162,0 -2.086,-0.42 -0.924,-0.42 -1.512,-1.162 -0.574,-0.742 -0.882,-1.694 -0.294,-0.952 -0.294,-2.058 0,-2.338 1.288,-3.724 1.302,-1.386 3.472,-1.386 z m 0,1.148 q -1.666,0 -2.562,1.176 -0.882,1.162 -0.882,2.884 0,1.876 0.938,2.996 0.952,1.106 2.534,1.106 1.568,0 2.506,-1.12 0.938,-1.12 0.938,-2.982 0,-1.848 -0.952,-2.954 -0.938,-1.106 -2.52,-1.106 z m 6.37,-0.91 h 1.33 v 6.286 q 0,1.456 0.63,2.128 0.63,0.672 2.058,0.672 1.47,0 2.072,-0.686 0.616,-0.686 0.616,-2.114 v -6.286 h 1.33 v 5.936 q 0,2.184 -0.91,3.22 -0.91,1.022 -3.108,1.022 -2.128,0 -3.08,-0.994 -0.938,-1.008 -0.938,-3.108 z m 10.178,0 h 4.256 q 1.372,0 2.268,0.602 0.91,0.602 0.91,1.89 0,0.742 -0.406,1.33 -0.392,0.574 -1.064,0.812 0.924,0.21 1.414,0.868 0.504,0.658 0.504,1.652 0,2.814 -3.78,2.814 h -4.102 z m 1.288,1.12 v 3.15 h 2.366 q 0.406,0 0.686,-0.014 0.294,-0.028 0.658,-0.112 0.364,-0.084 0.574,-0.238 0.224,-0.168 0.378,-0.476 0.168,-0.308 0.168,-0.742 0,-0.434 -0.14,-0.728 -0.14,-0.308 -0.336,-0.462 -0.196,-0.168 -0.546,-0.252 -0.336,-0.084 -0.616,-0.098 -0.266,-0.028 -0.7,-0.028 z m 0,4.186 v 3.556 h 2.632 q 0.49,0 0.798,-0.014 0.308,-0.028 0.686,-0.126 0.392,-0.098 0.616,-0.28 0.224,-0.196 0.378,-0.546 0.154,-0.364 0.154,-0.868 0,-0.42 -0.112,-0.728 -0.098,-0.308 -0.35,-0.49 -0.238,-0.182 -0.462,-0.294 -0.21,-0.112 -0.616,-0.154 -0.406,-0.042 -0.63,-0.042 -0.224,-0.014 -0.686,-0.014 z M 540.922,51.852 V 53 h -6.608 v -9.968 h 1.316 v 8.82 z m 8.064,-8.82 V 44.18 H 543.4 v 3.122 h 5.222 v 1.106 H 543.4 v 3.444 h 5.656 V 53 h -6.972 v -9.968 z"
       id="text15"
       class="nonterminal"
       style="font-size:14px;font-family:HelveticaNeueCyr, Sans-serif;fill:#1a0000"
       aria-label="DOUBLE" />
  </a>
  <path
     id="rect16"
     style="fill:#330000;stroke:#330000"
     d="m 585,35 h 6 c 5.54,0 10,4.46 10,10 v 12 c 0,5.54 -4.46,10 -10,10 h -6 c -5.54,0 -10,-4.46 -10,-10 V 45 c 0,-5.54 4.46,-10 10,-10 z" />
  <path
     id="rect17"
     class="terminal"
     style="fill:#ff4d4d;stroke:#330000"
     d="m 583,33 h 6 c 5.54,0 10,4.46 10,10 v 12 c 0,5.54 -4.46,10 -10,10 h -6 c -5.54,0 -10,-4.46 -10,-10 V 43 c 0,-5.54 4.46,-10 10,-10 z" />
  <path
     d="m 582.944,42.878 h 1.652 q 1.862,2.856 1.862,6.23 0,1.582 -0.49,3.416 -0.49,1.834 -1.344,2.968 h -1.666 q 0.84,-1.708 1.19,-3.15 0.364,-1.456 0.364,-3.262 0,-3.388 -1.568,-6.202 z"
     id="text17"
     class="terminal"
     style="font-weight:bold;font-size:14px;font-family:HelveticaNeueCyr, Sans-serif;fill:#140000"
     aria-label=")" />
  <path
     class="line"
     d="m17 17 h2 m0 0 h10 m80 0 h10 m0 0 h10 m44 0 h10 m20 0 h10 m0 0 h396 m-426 0 h20 m406 0 h20 m-446 0 q10 0 10 10 m426 0 q0 -10 10 -10 m-436 10 v12 m426 0 v-12 m-426 12 q0 10 10 10 m406 0 q10 0 10 -10 m-416 10 h10 m62 0 h10 m0 0 h10 m26 0 h10 m0 0 h10 m72 0 h10 m0 0 h10 m30 0 h10 m0 0 h10 m70 0 h10 m0 0 h10 m26 0 h10 m23 -32 h-3"
     id="path17" />
  <path
     id="polygon17"
     style="fill:#330000;stroke:#330000"
     d="m 639,17 8,-4 v 8 z" />
  <path
     id="polygon18"
     style="fill:#330000;stroke:#330000"
     d="m 639,17 -8,-4 v 8 z" />
</svg>
