<?xml version="1.0" encoding="UTF-8" standalone="no"?>
<svg
   width="341"
   height="69"
   version="1.1"
   id="svg1990"
   sodipodi:docname="DropTable.svg"
   inkscape:version="1.2.2 (b0a8486541, 2022-12-01)"
   xmlns:inkscape="http://www.inkscape.org/namespaces/inkscape"
   xmlns:sodipodi="http://sodipodi.sourceforge.net/DTD/sodipodi-0.dtd"
   xmlns:xlink="http://www.w3.org/1999/xlink"
   xmlns="http://www.w3.org/2000/svg"
   xmlns:svg="http://www.w3.org/2000/svg">
  <sodipodi:namedview
     id="namedview1992"
     pagecolor="#ffffff"
     bordercolor="#666666"
     borderopacity="1.0"
     inkscape:showpageshadow="2"
     inkscape:pageopacity="0.0"
     inkscape:pagecheckerboard="0"
     inkscape:deskcolor="#d1d1d1"
     showgrid="false"
     inkscape:zoom="3.8035191"
     inkscape:cx="151.4387"
     inkscape:cy="34.441789"
     inkscape:window-width="1439"
     inkscape:window-height="749"
     inkscape:window-x="50"
     inkscape:window-y="118"
     inkscape:window-maximized="0"
     inkscape:current-layer="svg1990" />
  <defs
     id="defs1956">
    <style
       type="text/css"
       id="style1954">@namespace &quot;http://www.w3.org/2000/svg&quot;;.line { fill: none; stroke: #330000; stroke-width: 1; }
.bold-line { stroke: #140000; shape-rendering: crispEdges; stroke-width: 2; }
.thin-line { stroke: #1F0000; shape-rendering: crispEdges }
.filled { fill: #330000; stroke: none; }
text.terminal { font-family: HelveticaNeueCyr, Sans-serif;                            font-size: 14px;                            fill: #140000;                            font-weight: bold; }
text.nonterminal { font-family: HelveticaNeueCyr, Sans-serif;                            font-size: 14px;                            fill: #1A0000;                            font-weight: normal; }
text.regexp { font-family: HelveticaNeueCyr, Sans-serif;                            font-size: 14px;                            fill: #1F0000;                            font-weight: normal; }
rect, circle, polygon { fill: #330000; stroke: #330000; }
rect.terminal { fill: #FF4D4D; stroke: #330000; stroke-width: 1; }
rect.nonterminal { fill: #FF9E9E; stroke: #330000; stroke-width: 1; }
rect.text { fill: none; stroke: none; }
polygon.regexp { fill: #FFC7C7; stroke: #330000; stroke-width: 1; }
</style>
  </defs>
  <path
     id="polygon1958"
     style="fill:#330000;stroke:#330000"
     d="M 9,17 1,13 v 8 z" />
  <path
     id="polygon1960"
     style="fill:#330000;stroke:#330000"
     d="M 17,17 9,13 v 8 z" />
  <path
     id="rect1962"
     style="fill:#330000;stroke:#330000"
     d="m 41,3 h 68 c 5.54,0 10,4.46 10,10 v 12 c 0,5.54 -4.46,10 -10,10 H 41 C 35.46,35 31,30.54 31,25 V 13 C 31,7.46 35.46,3 41,3 Z" />
  <path
     id="rect1964"
     class="terminal"
     style="fill:#ff4d4d;stroke:#330000"
     d="m 39,1 h 68 c 5.54,0 10,4.46 10,10 v 12 c 0,5.54 -4.46,10 -10,10 H 39 C 33.46,33 29,28.54 29,23 V 11 C 29,5.46 33.46,1 39,1 Z" />
  <g
     aria-label="drop table"
     id="text1966"
     class="terminal"
     style="font-weight:bold;font-size:14px;font-family:HelveticaNeueCyr, Sans-serif;fill:#140000">
    <path
       d="m 46.798,21 h -1.876 v -0.924 q -0.714,1.12 -2.184,1.12 -1.498,0 -2.394,-1.036 -0.882,-1.05 -0.882,-2.8 0,-1.708 0.854,-2.744 0.868,-1.036 2.31,-1.036 0.672,0 1.26,0.28 0.602,0.28 0.938,0.812 v -3.64 h 1.974 z m -1.904,-3.626 q 0,-1.05 -0.462,-1.638 -0.448,-0.588 -1.26,-0.588 -0.812,0 -1.26,0.588 -0.448,0.588 -0.448,1.624 0,1.05 0.448,1.652 0.462,0.588 1.26,0.588 0.826,0 1.274,-0.574 0.448,-0.588 0.448,-1.652 z"
       id="path2141" />
    <path
       d="m 53.000001,13.65 v 1.834 q -0.42,-0.084 -0.77,-0.084 -0.98,0 -1.442,0.63 -0.462,0.616 -0.462,1.666 V 21 h -1.988 v -7.224 h 1.89 v 1.33 q 0.714,-1.498 2.338,-1.498 0.14,0 0.434,0.042 z"
       id="path2143" />
    <path
       d="m 57.060005,13.566 q 1.666,0 2.674,1.05 1.022,1.05 1.022,2.772 0,1.736 -1.022,2.786 -1.008,1.05 -2.702,1.05 -1.694,0 -2.716,-1.05 -1.022,-1.05 -1.022,-2.786 0,-1.722 1.036,-2.772 1.036,-1.05 2.73,-1.05 z m -0.056,1.512 q -0.798,0 -1.26,0.616 -0.462,0.616 -0.462,1.694 0,1.106 0.462,1.722 0.462,0.616 1.288,0.616 0.826,0 1.274,-0.616 0.462,-0.63 0.462,-1.736 0,-1.078 -0.476,-1.68 -0.462,-0.616 -1.288,-0.616 z"
       id="path2145" />
    <path
       d="m 63.934006,13.776 v 0.896 q 0.784,-1.092 2.24,-1.092 1.456,0 2.338,1.05 0.882,1.05 0.882,2.8 0,1.694 -0.868,2.73 -0.854,1.022 -2.268,1.022 -1.456,0 -2.226,-1.078 v 3.458 h -1.974 v -9.786 z m 1.75,1.4 q -0.812,0 -1.274,0.588 -0.448,0.588 -0.448,1.638 0,1.05 0.462,1.638 0.462,0.588 1.274,0.588 0.798,0 1.246,-0.588 0.462,-0.588 0.462,-1.61 0,-1.05 -0.462,-1.652 -0.462,-0.602 -1.26,-0.602 z"
       id="path2147" />
    <path
       d="m 78.480005,13.776 v 1.344 h -1.47 v 3.402 q 0,0.322 0.014,0.476 0.014,0.14 0.098,0.294 0.084,0.154 0.252,0.21 0.182,0.042 0.504,0.042 0.364,0 0.602,-0.028 v 1.512 q -0.728,0.056 -1.204,0.056 -1.302,0 -1.778,-0.448 -0.462,-0.462 -0.462,-1.764 V 15.12 h -1.204 v -1.344 h 1.204 v -2.184 h 1.974 v 2.184 z"
       id="path2149" />
    <path
       d="m 86.151995,21 h -2.016 q -0.098,-0.28 -0.14,-0.7 -0.91,0.91 -2.338,0.91 -1.204,0 -1.89,-0.574 -0.686,-0.588 -0.686,-1.61 0,-0.462 0.112,-0.812 0.126,-0.35 0.392,-0.588 0.28,-0.238 0.518,-0.392 0.252,-0.154 0.686,-0.252 0.434,-0.098 0.7,-0.14 0.266,-0.056 0.742,-0.112 1.05,-0.14 1.4,-0.294 0.364,-0.154 0.364,-0.574 0,-0.966 -1.302,-0.966 -0.686,0 -1.008,0.252 -0.322,0.238 -0.42,0.854 h -1.862 q 0.168,-2.436 3.346,-2.436 3.15,0 3.15,2.352 v 3.122 q 0,1.372 0.252,1.96 z m -2.17,-3.514 q -0.35,0.21 -1.4,0.378 -0.882,0.14 -1.148,0.35 -0.308,0.252 -0.308,0.728 0,0.448 0.28,0.714 0.294,0.252 0.812,0.252 0.798,0 1.274,-0.42 0.49,-0.434 0.49,-1.19 z"
       id="path2151" />
    <path
       d="m 89.427987,11.032 v 3.626 q 0.84,-1.05 2.282,-1.05 1.442,0 2.268,1.05 0.826,1.05 0.826,2.66 0,1.736 -0.896,2.814 -0.882,1.064 -2.31,1.064 -1.498,0 -2.268,-1.106 l 0.014,0.91 h -1.89 v -9.968 z m 1.666,4.102 q -0.798,0 -1.274,0.602 -0.462,0.588 -0.462,1.61 0,1.05 0.462,1.652 0.462,0.602 1.274,0.602 0.77,0 1.232,-0.616 0.476,-0.616 0.476,-1.652 0,-0.994 -0.476,-1.596 -0.462,-0.602 -1.232,-0.602 z"
       id="path2153" />
    <path
       d="M 98.065987,11.032 V 21 h -1.988 v -9.968 z"
       id="path2155" />
    <path
       d="m 106.42398,18.76 q -0.336,1.162 -1.246,1.806 -0.896,0.644 -2.142,0.644 -1.666,0 -2.688,-1.036 -1.008001,-1.036 -1.008001,-2.744 0,-1.68 1.022001,-2.772 1.022,-1.092 2.604,-1.092 1.638,0 2.604,1.12 0.966,1.106 0.966,3.01 v 0.196 h -5.18 q 0.014,0.938 0.448,1.428 0.448,0.49 1.246,0.49 1.05,0 1.47,-1.05 z m -1.904,-2.128 q -0.07,-0.714 -0.462,-1.162 -0.392,-0.462 -1.092,-0.462 -0.658,0 -1.092,0.434 -0.434,0.434 -0.518,1.19 z"
       id="path2157" />
  </g>
  <a
     xlink:href="#table"
     xlink:title="table"
     id="a1974">
    <path
       id="rect1968"
       style="fill:#330000;stroke:#330000"
       d="m 139,3 h 52 v 32 h -52 z" />
    <path
       id="rect1970"
       class="nonterminal"
       style="fill:#ff9e9e;stroke:#330000"
       d="m 137,1 h 52 v 32 h -52 z" />
    <g
       aria-label="table"
       id="text1972"
       class="nonterminal"
       style="font-size:14px;font-family:HelveticaNeueCyr, Sans-serif;fill:#1a0000">
      <path
         d="m 150.99,13.776 v 0.98 h -1.442 v 4.214 q 0,0.35 0,0.462 0.014,0.112 0.084,0.308 0.07,0.182 0.238,0.238 0.168,0.056 0.476,0.056 0.266,0 0.644,-0.042 v 1.022 q -0.504,0.056 -0.91,0.056 -0.504,0 -0.84,-0.112 -0.336,-0.112 -0.518,-0.252 -0.168,-0.14 -0.252,-0.49 -0.084,-0.364 -0.098,-0.602 -0.014,-0.252 -0.014,-0.826 0,-0.126 0,-0.196 v -3.836 h -1.218 v -0.98 h 1.218 v -2.142 h 1.19 v 2.142 z"
         id="path2130" />
      <path
         d="m 158.70401,20.048 v 0.924 q -0.364,0.14 -0.812,0.14 -1.022,0 -1.05,-1.064 -1.022,1.148 -2.618,1.148 -1.064,0 -1.694,-0.546 -0.616,-0.546 -0.616,-1.498 0,-1.932 2.562,-2.254 1.512,-0.182 1.75,-0.266 0.504,-0.168 0.546,-0.7 0.014,-0.084 0.014,-0.182 0,-1.19 -1.638,-1.19 -0.84,0 -1.274,0.35 -0.434,0.336 -0.518,1.12 h -1.162 q 0.028,-1.162 0.826,-1.806 0.798,-0.644 2.198,-0.644 1.526,0 2.268,0.7 0.238,0.224 0.35,0.588 0.112,0.364 0.126,0.602 0.014,0.224 0.014,0.686 0,0.546 -0.028,1.624 -0.028,1.064 -0.028,1.596 0,0.392 0.098,0.56 0.112,0.154 0.392,0.154 0.112,0 0.294,-0.042 z m -1.918,-2.8 q -0.126,0.098 -0.266,0.168 -0.14,0.07 -0.364,0.112 -0.21,0.042 -0.294,0.07 -0.07,0.014 -0.364,0.056 -0.294,0.028 -0.308,0.028 -0.434,0.056 -0.574,0.084 -0.126,0.014 -0.504,0.112 -0.364,0.098 -0.518,0.224 -0.154,0.126 -0.308,0.378 -0.14,0.238 -0.14,0.574 0,0.56 0.378,0.882 0.392,0.322 1.064,0.322 0.854,0 1.526,-0.504 0.672,-0.504 0.672,-1.19 z"
         id="path2132" />
      <path
         d="m 161.00002,11.032 v 3.738 q 0.784,-1.19 2.394,-1.19 1.484,0 2.366,1.036 0.896,1.022 0.896,2.744 0,1.75 -0.91,2.8 -0.91,1.05 -2.422,1.05 -1.722,0 -2.394,-1.26 V 21 h -1.12 v -9.968 z m 2.212,3.556 q -1.148,0 -1.708,0.826 -0.546,0.826 -0.546,2.03 0,1.274 0.602,2.03 0.616,0.742 1.652,0.742 0.994,0 1.596,-0.77 0.616,-0.784 0.616,-2.072 0,-1.274 -0.602,-2.03 -0.602,-0.756 -1.61,-0.756 z"
         id="path2134" />
      <path
         d="M 169.38602,11.032 V 21 h -1.204 v -9.968 z"
         id="path2136" />
      <path
         d="m 177.40802,18.718 q -0.546,2.52 -3.15,2.52 -1.596,0 -2.506,-0.994 -0.896,-0.994 -0.896,-2.758 0,-1.75 0.924,-2.828 0.938,-1.092 2.436,-1.092 1.666,0 2.464,1.134 0.812,1.12 0.812,2.842 v 0.168 h -5.432 l -0.014,0.084 q 0,1.148 0.602,1.806 0.602,0.658 1.652,0.658 0.784,0 1.232,-0.364 0.462,-0.364 0.714,-1.176 z m -1.148,-1.974 q -0.084,-1.036 -0.63,-1.61 -0.546,-0.588 -1.442,-0.588 -0.868,0 -1.442,0.588 -0.574,0.588 -0.686,1.61 z"
         id="path2138" />
    </g>
  </a>
  <a
     xlink:href="#Option"
     xlink:title="Option"
     id="a1982">
    <path
       id="rect1976"
       style="fill:#330000;stroke:#330000"
       d="m 231,35 h 62 v 32 h -62 z" />
    <path
       id="rect1978"
       class="nonterminal"
       style="fill:#ff9e9e;stroke:#330000"
       d="m 229,33 h 62 v 32 h -62 z" />
    <g
       aria-label="Option"
       id="text1980"
       class="nonterminal"
       style="font-size:14px;font-family:HelveticaNeueCyr, Sans-serif;fill:#1a0000">
      <path
         d="m 244.306,42.794 q 2.268,0 3.528,1.428 1.26,1.414 1.26,3.71 0,2.31 -1.246,3.808 -1.246,1.498 -3.528,1.498 -1.162,0 -2.086,-0.42 -0.924,-0.42 -1.512,-1.162 -0.574,-0.742 -0.882,-1.694 -0.294,-0.952 -0.294,-2.058 0,-2.338 1.288,-3.724 1.302,-1.386 3.472,-1.386 z m 0,1.148 q -1.666,0 -2.562,1.176 -0.882,1.162 -0.882,2.884 0,1.876 0.938,2.996 0.952,1.106 2.534,1.106 1.568,0 2.506,-1.12 0.938,-1.12 0.938,-2.982 0,-1.848 -0.952,-2.954 -0.938,-1.106 -2.52,-1.106 z"
         id="path2115" />
      <path
         d="m 251.656,45.776 v 1.022 q 0.784,-1.246 2.436,-1.246 1.512,0 2.394,1.022 0.896,1.022 0.896,2.772 0,1.75 -0.882,2.8 -0.868,1.036 -2.352,1.036 -1.554,0 -2.422,-1.19 v 3.794 h -1.19 v -10.01 z m 2.254,0.77 q -1.036,0 -1.638,0.756 -0.588,0.742 -0.588,2.058 0,1.316 0.602,2.072 0.616,0.742 1.666,0.742 1.022,0 1.61,-0.756 0.588,-0.756 0.588,-2.058 0,-1.316 -0.602,-2.058 -0.588,-0.756 -1.638,-0.756 z"
         id="path2117" />
      <path
         d="m 261.93201,45.776 v 0.98 h -1.442 v 4.214 q 0,0.35 0,0.462 0.014,0.112 0.084,0.308 0.07,0.182 0.238,0.238 0.168,0.056 0.476,0.056 0.266,0 0.644,-0.042 v 1.022 q -0.504,0.056 -0.91,0.056 -0.504,0 -0.84,-0.112 -0.336,-0.112 -0.518,-0.252 -0.168,-0.14 -0.252,-0.49 -0.084,-0.364 -0.098,-0.602 -0.014,-0.252 -0.014,-0.826 0,-0.126 0,-0.196 v -3.836 h -1.218 v -0.98 h 1.218 v -2.142 h 1.19 v 2.142 z"
         id="path2119" />
      <path
         d="m 264.50802,43.032 v 1.456 h -1.204 v -1.456 z m 0,2.744 V 53 h -1.204 v -7.224 z"
         id="path2121" />
      <path
         d="m 266.93002,46.602 q 0.952,-1.036 2.59,-1.036 1.638,0 2.548,0.994 0.91,0.994 0.91,2.786 0,1.834 -0.91,2.856 -0.91,1.022 -2.562,1.022 -1.652,0 -2.59,-1.008 -0.938,-1.008 -0.938,-2.8 0,-1.778 0.952,-2.814 z m 4.214,0.728 q -0.602,-0.77 -1.652,-0.77 -1.05,0 -1.666,0.77 -0.616,0.77 -0.616,2.058 0,1.33 0.602,2.086 0.616,0.742 1.708,0.742 1.05,0 1.638,-0.756 0.602,-0.756 0.602,-2.086 0,-1.288 -0.616,-2.044 z"
         id="path2123" />
      <path
         d="m 275.51201,45.776 v 1.12 q 0.896,-1.316 2.464,-1.316 1.274,0 1.834,0.672 0.574,0.658 0.574,1.946 V 53 h -1.19 v -4.256 q 0,-0.532 -0.042,-0.826 -0.028,-0.308 -0.168,-0.644 -0.14,-0.35 -0.476,-0.504 -0.336,-0.154 -0.868,-0.154 -2.058,0 -2.058,2.604 V 53 h -1.19 v -7.224 z"
         id="path2125" />
    </g>
  </a>
  <path
     class="line"
     d="m17 17 h2 m0 0 h10 m88 0 h10 m0 0 h10 m52 0 h10 m20 0 h10 m0 0 h72 m-102 0 h20 m82 0 h20 m-122 0 q10 0 10 10 m102 0 q0 -10 10 -10 m-112 10 v12 m102 0 v-12 m-102 12 q0 10 10 10 m82 0 q10 0 10 -10 m-92 10 h10 m62 0 h10 m23 -32 h-3"
     id="path1984" />
  <path
     id="polygon1986"
     style="fill:#330000;stroke:#330000"
     d="m 331,17 8,-4 v 8 z" />
  <path
     id="polygon1988"
     style="fill:#330000;stroke:#330000"
     d="m 331,17 -8,-4 v 8 z" />
</svg>
