<?xml version="1.0" encoding="UTF-8" standalone="no"?>
<svg
   width="713"
   height="299"
   version="1.1"
   id="svg32"
   sodipodi:docname="INSERT.svg"
   inkscape:version="1.3 (0e150ed6c4, 2023-07-21)"
   xmlns:inkscape="http://www.inkscape.org/namespaces/inkscape"
   xmlns:sodipodi="http://sodipodi.sourceforge.net/DTD/sodipodi-0.dtd"
   xmlns:xlink="http://www.w3.org/1999/xlink"
   xmlns="http://www.w3.org/2000/svg"
   xmlns:svg="http://www.w3.org/2000/svg">
  <sodipodi:namedview
     id="namedview32"
     pagecolor="#ffffff"
     bordercolor="#000000"
     borderopacity="0.25"
     inkscape:showpageshadow="2"
     inkscape:pageopacity="0.0"
     inkscape:pagecheckerboard="0"
     inkscape:deskcolor="#d1d1d1"
     inkscape:zoom="2.4796634"
     inkscape:cx="356.5"
     inkscape:cy="149.61708"
     inkscape:window-width="1920"
     inkscape:window-height="1033"
     inkscape:window-x="0"
     inkscape:window-y="22"
     inkscape:window-maximized="1"
     inkscape:current-layer="svg32" />
  <defs
     id="defs1">
    <style
       type="text/css"
       id="style1">&#10;    @namespace &quot;http://www.w3.org/2000/svg&quot;;&#10;    .line                 {fill: none; stroke: #330000; stroke-width: 1;}&#10;    .bold-line            {stroke: #140000; shape-rendering: crispEdges; stroke-width: 2;}&#10;    .thin-line            {stroke: #1F0000; shape-rendering: crispEdges}&#10;    .filled               {fill: #330000; stroke: none;}&#10;    text.terminal         {font-family: HelveticaNeueCyr, Sans-serif;&#10;                            font-size: 14px;&#10;                            fill: #140000;&#10;                            font-weight: bold;&#10;                          }&#10;    text.nonterminal      {font-family: HelveticaNeueCyr, Sans-serif;&#10;                            font-size: 14px;&#10;                            fill: #1A0000;&#10;                            font-weight: normal;&#10;                          }&#10;    text.regexp           {font-family: HelveticaNeueCyr, Sans-serif;&#10;                            font-size: 14px;&#10;                            fill: #1F0000;&#10;                            font-weight: normal;&#10;                          }&#10;    rect, circle, polygon {fill: #330000; stroke: #330000;}&#10;    rect.terminal         {fill: #FF4D4D; stroke: #330000; stroke-width: 1;}&#10;    rect.nonterminal      {fill: #FF9E9E; stroke: #330000; stroke-width: 1;}&#10;    rect.text             {fill: none; stroke: none;}&#10;    polygon.regexp        {fill: #FFC7C7; stroke: #330000; stroke-width: 1;}&#10;  </style>
  </defs>
  <path
     id="polygon1"
     style="fill:#330000;stroke:#330000"
     d="M 9,61 1,57 v 8 z" />
  <path
     id="polygon2"
     style="fill:#330000;stroke:#330000"
     d="M 17,61 9,57 v 8 z" />
  <path
     id="rect2"
     style="fill:#330000;stroke:#330000"
     d="m 41,47 h 50 c 5.54,0 10,4.46 10,10 v 12 c 0,5.54 -4.46,10 -10,10 H 41 C 35.46,79 31,74.54 31,69 V 57 c 0,-5.54 4.46,-10 10,-10 z" />
  <path
     id="rect3"
     class="terminal"
     style="fill:#ff4d4d;stroke:#330000"
     d="m 39,45 h 50 c 5.54,0 10,4.46 10,10 v 12 c 0,5.54 -4.46,10 -10,10 H 39 C 33.46,77 29,72.54 29,67 V 55 c 0,-5.54 4.46,-10 10,-10 z" />
  <path
     d="M 42.164,55.032 H 39.966 V 65 h 2.198 z M 44.096001,65 h 2.114 v -6.692 l 4.13,6.692 h 2.184 v -9.968 h -2.1 v 6.678 l -4.102,-6.678 h -2.226 z M 61.84799,58 c -0.042,-2.226 -1.736,-3.178 -3.836,-3.178 -2.324,0 -3.836,1.176 -3.836,2.982 0,2.03 1.554,2.436 3.178,2.898 2.058,0.588 2.73,0.728 2.73,1.512 0,0.826 -0.7,1.33 -1.848,1.33 -1.33,0 -2.212,-0.532 -2.254,-1.876 h -2.17 c 0.028,2.254 1.624,3.556 4.326,3.556 2.03,0 4.102,-0.868 4.102,-3.22 0,-1.666 -1.134,-2.352 -2.912,-2.856 -1.988,-0.56 -3.052,-0.63 -3.052,-1.498 0,-0.714 0.602,-1.134 1.61,-1.134 1.162,0 1.806,0.518 1.89,1.484 z m 9.184003,-2.968 h -7.476 V 65 h 7.574 v -1.834 h -5.404 v -2.45 h 4.872 v -1.722 h -4.872 v -2.17 h 5.306 z m 1.68001,0 V 65 h 2.17 v -3.906 h 1.946 c 1.428,0 1.848,0.49 1.988,1.862 0.056,0.546 0.056,1.54 0.308,2.044 h 2.268 c -0.392,-0.364 -0.42,-1.736 -0.476,-2.366 -0.084,-0.98 -0.364,-2.1 -1.47,-2.324 0.994,-0.378 1.582,-1.288 1.582,-2.45 0,-2.002 -1.526,-2.828 -3.36,-2.828 z m 2.17,1.722 h 2.17 c 0.924,0 1.834,0.196 1.834,1.344 0,1.232 -0.91,1.414 -1.932,1.414 h -2.072 z m 15.008006,-1.722 h -8.19 v 1.862 h 2.996 V 65 h 2.198 v -8.106 h 2.996 z"
     id="text3"
     class="terminal"
     style="font-weight:bold;font-size:14px;font-family:HelveticaNeueCyr, Sans-serif;fill:#140000"
     aria-label="INSERT" />
  <path
     id="rect4"
     style="fill:#330000;stroke:#330000"
     d="m 131,47 h 36 c 5.54,0 10,4.46 10,10 v 12 c 0,5.54 -4.46,10 -10,10 h -36 c -5.54,0 -10,-4.46 -10,-10 V 57 c 0,-5.54 4.46,-10 10,-10 z" />
  <path
     id="rect5"
     class="terminal"
     style="fill:#ff4d4d;stroke:#330000"
     d="m 129,45 h 36 c 5.54,0 10,4.46 10,10 v 12 c 0,5.54 -4.46,10 -10,10 h -36 c -5.54,0 -10,-4.46 -10,-10 V 55 c 0,-5.54 4.46,-10 10,-10 z" />
  <path
     d="m 132.164,55.032 h -2.198 V 65 h 2.198 z M 134.096,65 h 2.114 V 58.308 L 140.34,65 h 2.184 v -9.968 h -2.1 v 6.678 l -4.102,-6.678 h -2.226 z m 17.77999,-9.968 h -8.19 v 1.862 h 2.996 V 65 h 2.198 v -8.106 h 2.996 z m 5.656,-0.238 c -2.982,0 -4.942,2.072 -4.942,5.236 0,3.122 1.974,5.208 4.928,5.208 2.926,0 4.9,-2.1 4.9,-5.208 0,-3.122 -1.974,-5.236 -4.886,-5.236 z m -0.028,1.792 c 1.666,0 2.702,1.302 2.702,3.402 0,2.128 -1.022,3.444 -2.674,3.444 -1.694,-0.014 -2.73,-1.302 -2.73,-3.444 0,-2.072 1.05,-3.402 2.702,-3.402 z"
     id="text5"
     class="terminal"
     style="font-weight:bold;font-size:14px;font-family:HelveticaNeueCyr, Sans-serif;fill:#140000"
     aria-label="INTO" />
  <a
     xlink:href="#table"
     xlink:title="table"
     id="a7">
    <path
       id="rect6"
       style="fill:#330000;stroke:#330000"
       d="m 197,47 h 52 v 32 h -52 z" />
    <path
       id="rect7"
       class="nonterminal"
       style="fill:#ff9e9e;stroke:#330000"
       d="m 195,45 h 52 v 32 h -52 z" />
    <path
       d="m 208.99,57.776 h -1.442 v -2.142 h -1.19 v 2.142 h -1.218 v 0.98 h 1.218 v 3.836 c 0,1.582 -0.084,2.478 1.722,2.478 0.378,0 0.532,-0.014 0.91,-0.056 v -1.022 c -0.252,0.028 -0.406,0.042 -0.644,0.042 -0.84,0 -0.798,-0.406 -0.798,-1.064 v -4.214 h 1.442 z m 7.71401,6.272 c -0.126,0.028 -0.182,0.042 -0.294,0.042 -0.364,0 -0.49,-0.182 -0.49,-0.714 0,-1.078 0.056,-2.142 0.056,-3.22 0,-0.644 0.014,-1.386 -0.49,-1.876 -0.476,-0.448 -1.302,-0.7 -2.268,-0.7 -1.862,0 -2.982,0.91 -3.024,2.45 h 1.162 c 0.112,-1.064 0.686,-1.47 1.792,-1.47 1.064,0 1.638,0.42 1.638,1.19 0,0.98 -0.588,0.938 -2.31,1.148 -1.708,0.21 -2.562,0.966 -2.562,2.254 0,1.26 0.882,2.044 2.31,2.044 1.12,0 1.904,-0.35 2.618,-1.148 0.014,0.686 0.378,1.064 1.05,1.064 0.266,0 0.56,-0.042 0.812,-0.14 z m -1.918,-2.8 v 1.316 c 0,0.924 -1.078,1.694 -2.198,1.694 -0.896,0 -1.442,-0.462 -1.442,-1.204 0,-1.162 1.176,-1.26 2.044,-1.372 0.532,-0.07 1.148,-0.098 1.596,-0.434 z m 4.21401,-6.216 h -1.19 V 65 h 1.12 v -1.05 c 0.476,0.896 1.4,1.26 2.394,1.26 2.016,0 3.332,-1.512 3.332,-3.85 0,-2.296 -1.288,-3.78 -3.262,-3.78 -0.994,0 -1.848,0.364 -2.394,1.19 z m 2.212,3.556 c 1.344,0 2.212,1.078 2.212,2.786 0,1.722 -0.882,2.842 -2.212,2.842 -1.386,0 -2.254,-1.064 -2.254,-2.772 0,-1.442 0.602,-2.856 2.254,-2.856 z m 6.174,-3.556 h -1.204 V 65 h 1.204 z m 8.022,7.686 h -1.162 c -0.336,1.092 -0.91,1.54 -1.946,1.54 -1.4,0 -2.254,-0.924 -2.254,-2.464 l 0.014,-0.084 h 5.432 v -0.168 c 0,-2.086 -0.896,-3.976 -3.276,-3.976 -2.002,0 -3.36,1.582 -3.36,3.92 0,2.352 1.274,3.752 3.402,3.752 1.708,0 2.786,-0.854 3.15,-2.52 z m -1.148,-1.974 h -4.2 c 0.154,-1.358 0.966,-2.198 2.128,-2.198 1.19,0 1.96,0.826 2.072,2.198 z"
       id="text7"
       class="nonterminal"
       style="font-size:14px;font-family:HelveticaNeueCyr, Sans-serif;fill:#1a0000"
       aria-label="table" />
  </a>
  <path
     id="rect8"
     style="fill:#330000;stroke:#330000"
     d="m 299,47 h 6 c 5.54,0 10,4.46 10,10 v 12 c 0,5.54 -4.46,10 -10,10 h -6 c -5.54,0 -10,-4.46 -10,-10 V 57 c 0,-5.54 4.46,-10 10,-10 z" />
  <path
     id="rect9"
     class="terminal"
     style="fill:#ff4d4d;stroke:#330000"
     d="m 297,45 h 6 c 5.54,0 10,4.46 10,10 v 12 c 0,5.54 -4.46,10 -10,10 h -6 c -5.54,0 -10,-4.46 -10,-10 V 55 c 0,-5.54 4.46,-10 10,-10 z" />
  <path
     d="m 301.228,54.878 h -1.652 c -1.232,1.792 -1.834,4.27 -1.834,6.412 0,2.128 0.658,4.438 1.834,6.202 h 1.68 c -0.994,-1.988 -1.582,-4.018 -1.582,-6.244 0,-2.408 0.49,-4.242 1.554,-6.37 z"
     id="text9"
     class="terminal"
     style="font-weight:bold;font-size:14px;font-family:HelveticaNeueCyr, Sans-serif;fill:#140000"
     aria-label="(" />
  <a
     xlink:href="#name"
     xlink:title="name"
     id="a11">
    <path
       id="rect10"
       style="fill:#330000;stroke:#330000"
       d="m 355,47 h 56 v 32 h -56 z" />
    <path
       id="rect11"
       class="nonterminal"
       style="fill:#ff9e9e;stroke:#330000"
       d="m 353,45 h 56 v 32 h -56 z" />
    <path
       d="m 365.016,57.776 h -1.12 V 65 h 1.19 v -3.78 c 0,-1.428 0.504,-2.604 2.058,-2.604 1.498,0 1.554,0.98 1.554,2.128 V 65 h 1.19 v -4.802 c 0,-1.652 -0.644,-2.618 -2.408,-2.618 -1.106,0 -1.862,0.434 -2.464,1.316 z m 13.062,6.272 c -0.126,0.028 -0.182,0.042 -0.294,0.042 -0.364,0 -0.49,-0.182 -0.49,-0.714 0,-1.078 0.056,-2.142 0.056,-3.22 0,-0.644 0.014,-1.386 -0.49,-1.876 -0.476,-0.448 -1.302,-0.7 -2.268,-0.7 -1.862,0 -2.982,0.91 -3.024,2.45 h 1.162 c 0.112,-1.064 0.686,-1.47 1.792,-1.47 1.064,0 1.638,0.42 1.638,1.19 0,0.98 -0.588,0.938 -2.31,1.148 -1.708,0.21 -2.562,0.966 -2.562,2.254 0,1.26 0.882,2.044 2.31,2.044 1.12,0 1.904,-0.35 2.618,-1.148 0.014,0.686 0.378,1.064 1.05,1.064 0.266,0 0.56,-0.042 0.812,-0.14 z m -1.918,-2.8 v 1.316 c 0,0.924 -1.078,1.694 -2.198,1.694 -0.896,0 -1.442,-0.462 -1.442,-1.204 0,-1.162 1.176,-1.26 2.044,-1.372 0.532,-0.07 1.148,-0.098 1.596,-0.434 z m 4.15801,-3.472 h -1.12 V 65 h 1.19 v -3.822 c 0,-1.358 0.364,-2.52 1.96,-2.52 1.148,0 1.33,0.756 1.33,1.708 V 65 h 1.19 v -4.102 c 0,-1.33 0.49,-2.254 1.848,-2.254 1.288,0 1.442,0.784 1.442,1.806 V 65 h 1.19 v -5.054 c 0,-1.47 -0.756,-2.366 -2.282,-2.366 -1.078,0 -1.778,0.434 -2.394,1.26 -0.364,-0.868 -1.036,-1.246 -2.002,-1.246 -1.064,0 -1.736,0.406 -2.352,1.232 z m 16.996,4.942 h -1.162 c -0.336,1.092 -0.91,1.54 -1.946,1.54 -1.4,0 -2.254,-0.924 -2.254,-2.464 l 0.014,-0.084 h 5.432 v -0.168 c 0,-2.086 -0.896,-3.976 -3.276,-3.976 -2.002,0 -3.36,1.582 -3.36,3.92 0,2.352 1.274,3.752 3.402,3.752 1.708,0 2.786,-0.854 3.15,-2.52 z m -1.148,-1.974 h -4.2 c 0.154,-1.358 0.966,-2.198 2.128,-2.198 1.19,0 1.96,0.826 2.072,2.198 z"
       id="text11"
       class="nonterminal"
       style="font-size:14px;font-family:HelveticaNeueCyr, Sans-serif;fill:#1a0000"
       aria-label="name" />
  </a>
  <path
     id="rect12"
     style="fill:#330000;stroke:#330000"
     d="m 365,3 h 4 c 5.54,0 10,4.46 10,10 v 12 c 0,5.54 -4.46,10 -10,10 h -4 c -5.54,0 -10,-4.46 -10,-10 V 13 c 0,-5.54 4.46,-10 10,-10 z" />
  <path
     id="rect13"
     class="terminal"
     style="fill:#ff4d4d;stroke:#330000"
     d="m 363,1 h 4 c 5.54,0 10,4.46 10,10 v 12 c 0,5.54 -4.46,10 -10,10 h -4 c -5.54,0 -10,-4.46 -10,-10 V 11 c 0,-5.54 4.46,-10 10,-10 z" />
  <path
     d="M 366.052,18.816 H 363.84 V 21 h 0.994 c -0.042,0.742 -0.336,1.148 -0.994,1.344 v 0.98 c 1.512,-0.238 2.212,-1.106 2.212,-2.73 z"
     id="text13"
     class="terminal"
     style="font-weight:bold;font-size:14px;font-family:HelveticaNeueCyr, Sans-serif;fill:#140000"
     aria-label="," />
  <path
     id="rect14"
     style="fill:#330000;stroke:#330000"
     d="m 461,47 h 6 c 5.54,0 10,4.46 10,10 v 12 c 0,5.54 -4.46,10 -10,10 h -6 c -5.54,0 -10,-4.46 -10,-10 V 57 c 0,-5.54 4.46,-10 10,-10 z" />
  <path
     id="rect15"
     class="terminal"
     style="fill:#ff4d4d;stroke:#330000"
     d="m 459,45 h 6 c 5.54,0 10,4.46 10,10 v 12 c 0,5.54 -4.46,10 -10,10 h -6 c -5.54,0 -10,-4.46 -10,-10 V 55 c 0,-5.54 4.46,-10 10,-10 z" />
  <path
     d="m 458.944,54.878 c 1.036,1.862 1.568,4.074 1.568,6.202 0,2.464 -0.462,4.186 -1.554,6.412 h 1.666 c 1.204,-1.596 1.834,-4.424 1.834,-6.384 0,-2.198 -0.658,-4.382 -1.862,-6.23 z"
     id="text15"
     class="terminal"
     style="font-weight:bold;font-size:14px;font-family:HelveticaNeueCyr, Sans-serif;fill:#140000"
     aria-label=")" />
  <path
     id="rect16"
     style="fill:#330000;stroke:#330000"
     d="m 547,47 h 52 c 5.54,0 10,4.46 10,10 v 12 c 0,5.54 -4.46,10 -10,10 h -52 c -5.54,0 -10,-4.46 -10,-10 V 57 c 0,-5.54 4.46,-10 10,-10 z" />
  <path
     id="rect17"
     class="terminal"
     style="fill:#ff4d4d;stroke:#330000"
     d="m 545,45 h 52 c 5.54,0 10,4.46 10,10 v 12 c 0,5.54 -4.46,10 -10,10 h -52 c -5.54,0 -10,-4.46 -10,-10 V 55 c 0,-5.54 4.46,-10 10,-10 z" />
  <path
     d="M 544.888,55.032 548.15,65 h 2.478 l 3.318,-9.968 h -2.268 l -2.268,7 -2.24,-7 z m 14.20999,-0.014 h -2.254 l -3.794,9.982 h 2.24 l 0.812,-2.226 h 3.71 l 0.784,2.226 h 2.296 z m 0.182,6.16 h -2.646 l 1.33,-3.71 z m 11.508,1.946 h -4.872 v -8.092 h -2.184 V 65 h 7.056 z m 9.73,-8.092 h -2.184 v 5.964 c 0,1.47 -0.35,2.394 -2.03,2.394 -1.708,0 -2.142,-0.868 -2.142,-2.394 v -5.964 h -2.184 v 5.964 c 0,2.842 1.33,4.2 4.298,4.2 2.912,0 4.242,-1.33 4.242,-4.172 z m 9.36599,0 h -7.476 V 65 h 7.574 v -1.834 h -5.404 v -2.45 h 4.872 v -1.722 h -4.872 v -2.17 h 5.306 z M 598.85799,58 c -0.042,-2.226 -1.736,-3.178 -3.836,-3.178 -2.324,0 -3.836,1.176 -3.836,2.982 0,2.03 1.554,2.436 3.178,2.898 2.058,0.588 2.73,0.728 2.73,1.512 0,0.826 -0.7,1.33 -1.848,1.33 -1.33,0 -2.212,-0.532 -2.254,-1.876 h -2.17 c 0.028,2.254 1.624,3.556 4.326,3.556 2.03,0 4.102,-0.868 4.102,-3.22 0,-1.666 -1.134,-2.352 -2.912,-2.856 -1.988,-0.56 -3.052,-0.63 -3.052,-1.498 0,-0.714 0.602,-1.134 1.61,-1.134 1.162,0 1.806,0.518 1.89,1.484 z"
     id="text17"
     class="terminal"
     style="font-weight:bold;font-size:14px;font-family:HelveticaNeueCyr, Sans-serif;fill:#140000"
     aria-label="VALUES" />
  <a
     xlink:href="#row"
     xlink:title="row"
     id="a19">
    <path
       id="rect18"
       style="fill:#330000;stroke:#330000"
       d="m 629,47 h 42 v 32 h -42 z" />
    <path
       id="rect19"
       class="nonterminal"
       style="fill:#ff9e9e;stroke:#330000"
       d="m 627,45 h 42 v 32 h -42 z" />
    <path
       d="m 641.662,57.608 c -1.288,0 -2.17,0.504 -2.674,1.722 v -1.554 h -1.134 V 65 h 1.19 v -3.052 c 0,-1.624 0.35,-3.122 2.31,-3.122 0.126,0 0.182,0 0.308,0.014 z m 3.80801,-0.042 c -2.184,0 -3.542,1.47 -3.542,3.85 0,2.38 1.316,3.808 3.528,3.808 2.198,0 3.472,-1.428 3.472,-3.878 0,-2.394 -1.274,-3.78 -3.458,-3.78 z m -0.028,0.994 c 1.4,0 2.268,1.092 2.268,2.814 0,1.778 -0.84,2.842 -2.24,2.842 -1.456,0 -2.31,-1.05 -2.31,-2.828 0,-1.722 0.882,-2.828 2.282,-2.828 z M 649.684,57.776 652.008,65 h 1.288 l 1.47,-5.712 1.484,5.712 h 1.26 l 2.31,-7.224 h -1.232 l -1.638,5.95 -1.526,-5.95 h -1.302 l -1.47,5.95 -1.652,-5.95 z"
       id="text19"
       class="nonterminal"
       style="font-size:14px;font-family:HelveticaNeueCyr, Sans-serif;fill:#1a0000"
       aria-label="row" />
  </a>
  <a
     xlink:href="#SELECT"
     xlink:title="SELECT"
     id="a21">
    <path
       id="rect20"
       style="fill:#330000;stroke:#330000"
       d="m 537,91 h 66 v 32 h -66 z" />
    <path
       id="rect21"
       class="nonterminal"
       style="fill:#ff9e9e;stroke:#330000"
       d="m 535,89 h 66 v 32 h -66 z" />
    <path
       d="m 553.162,101.958 c -0.084,-2.142 -1.54,-3.122 -3.654,-3.122 -1.792,0 -3.612,0.798 -3.612,2.842 0,2.1 1.862,2.366 3.472,2.73 1.638,0.378 2.898,0.63 2.898,1.918 0,1.414 -1.316,1.82 -2.478,1.82 -1.596,0 -2.912,-0.63 -2.968,-2.436 h -1.274 c 0,2.408 1.75,3.514 4.13,3.514 1.904,0 3.878,-0.812 3.878,-3.024 0,-2.1 -2.072,-2.604 -3.696,-2.94 -1.54,-0.322 -2.702,-0.56 -2.702,-1.68 0,-1.05 0.826,-1.652 2.254,-1.652 1.47,0 2.324,0.588 2.478,2.03 z m 8.91801,-2.926 h -6.902 V 109 h 6.972 v -1.148 h -5.656 v -3.444 h 5.222 v -1.106 h -5.222 v -3.122 h 5.586 z m 8.274,8.82 h -5.292 v -8.82 h -1.316 V 109 h 6.608 z m 8.064,-8.82 h -6.902 V 109 h 6.972 v -1.148 h -5.656 v -3.444 h 5.222 v -1.106 h -5.222 v -3.122 h 5.586 z m 10.094,6.202 h -1.316 c -0.21,1.862 -1.246,2.87 -2.94,2.87 -2.072,0 -3.346,-1.554 -3.346,-4.088 0,-2.1 0.994,-4.074 3.36,-4.074 1.484,0 2.548,0.784 2.842,2.086 h 1.316 c -0.196,-2.128 -2.17,-3.22 -4.13,-3.22 -3.066,0 -4.718,2.366 -4.718,5.222 0,3.192 1.778,5.208 4.62,5.208 2.464,0 4.088,-1.47 4.312,-4.004 z m 8.582,-6.202 h -8.008 v 1.148 h 3.346 V 109 h 1.316 v -8.82 h 3.346 z"
       id="text21"
       class="nonterminal"
       style="font-size:14px;font-family:HelveticaNeueCyr, Sans-serif;fill:#1a0000"
       aria-label="SELECT" />
  </a>
  <path
     id="rect22"
     style="fill:#330000;stroke:#330000"
     d="m 397,177 h 70 c 5.54,0 10,4.46 10,10 v 12 c 0,5.54 -4.46,10 -10,10 h -70 c -5.54,0 -10,-4.46 -10,-10 v -12 c 0,-5.54 4.46,-10 10,-10 z" />
  <path
     id="rect23"
     class="terminal"
     style="fill:#ff4d4d;stroke:#330000"
     d="m 395,175 h 70 c 5.54,0 10,4.46 10,10 v 12 c 0,5.54 -4.46,10 -10,10 h -70 c -5.54,0 -10,-4.46 -10,-10 v -12 c 0,-5.54 4.46,-10 10,-10 z" />
  <path
     d="m 399.312,187.566 c -2.268,0 -3.766,1.526 -3.766,3.822 0,2.31 1.484,3.836 3.738,3.836 2.254,0 3.724,-1.512 3.724,-3.836 0,-2.296 -1.47,-3.822 -3.696,-3.822 z m -0.056,1.512 c 1.106,0 1.764,0.854 1.764,2.296 0,1.484 -0.644,2.352 -1.736,2.352 -1.106,0 -1.75,-0.854 -1.75,-2.338 0,-1.442 0.658,-2.31 1.722,-2.31 z M 411.114,195 v -4.83 c 0,-1.68 -0.98,-2.59 -2.506,-2.59 -1.022,0 -1.82,0.434 -2.394,1.204 v -1.008 h -1.89 V 195 h 1.974 v -3.878 c 0,-1.05 0.378,-1.904 1.568,-1.904 1.064,0 1.232,0.672 1.232,1.568 V 195 Z m 12.278,-2.786 h -1.918 c -0.154,0.952 -0.686,1.456 -1.54,1.456 -1.064,0 -1.68,-0.826 -1.68,-2.268 0,-1.484 0.644,-2.352 1.722,-2.352 0.77,0 1.288,0.448 1.428,1.246 h 1.946 c -0.168,-1.68 -1.456,-2.73 -3.388,-2.73 -2.24,0 -3.71,1.54 -3.71,3.878 0,2.254 1.456,3.738 3.682,3.738 1.918,0 3.206,-1.092 3.458,-2.968 z m 4.704,-4.648 c -2.268,0 -3.766,1.526 -3.766,3.822 0,2.31 1.484,3.836 3.738,3.836 2.254,0 3.724,-1.512 3.724,-3.836 0,-2.296 -1.47,-3.822 -3.696,-3.822 z m -0.056,1.512 c 1.106,0 1.764,0.854 1.764,2.296 0,1.484 -0.644,2.352 -1.736,2.352 -1.106,0 -1.75,-0.854 -1.75,-2.338 0,-1.442 0.658,-2.31 1.722,-2.31 z M 439.898,195 v -4.83 c 0,-1.68 -0.98,-2.59 -2.506,-2.59 -1.022,0 -1.82,0.434 -2.394,1.204 v -1.008 h -1.89 V 195 h 1.974 v -3.878 c 0,-1.05 0.378,-1.904 1.568,-1.904 1.064,0 1.232,0.672 1.232,1.568 V 195 Z m 5.432,-9.968 c -0.35,-0.014 -0.686,-0.042 -1.036,-0.042 -1.806,0 -2.478,0.742 -2.478,2.408 v 0.378 h -1.176 v 1.344 h 1.176 V 195 h 1.988 v -5.88 h 1.4 v -1.344 h -1.414 v -0.574 c 0,-0.602 0.168,-0.742 0.882,-0.742 0.21,0 0.35,0.014 0.658,0.028 z m 2.77201,0 h -1.988 V 195 h 1.988 z m 3.61199,0 h -1.988 v 1.68 h 1.988 z m 0,2.744 h -1.988 V 195 h 1.988 z m 8.45599,4.438 h -1.918 c -0.154,0.952 -0.686,1.456 -1.54,1.456 -1.064,0 -1.68,-0.826 -1.68,-2.268 0,-1.484 0.644,-2.352 1.722,-2.352 0.77,0 1.288,0.448 1.428,1.246 h 1.946 c -0.168,-1.68 -1.456,-2.73 -3.388,-2.73 -2.24,0 -3.71,1.54 -3.71,3.878 0,2.254 1.456,3.738 3.682,3.738 1.918,0 3.206,-1.092 3.458,-2.968 z m 5.12399,-4.438 h -1.47 v -2.184 h -1.974 v 2.184 h -1.204 v 1.344 h 1.204 v 3.752 c 0,1.764 0.532,2.212 2.24,2.212 0.448,0 0.658,-0.014 1.204,-0.056 v -1.512 c -0.238,0.028 -0.392,0.028 -0.602,0.028 -0.854,0 -0.868,-0.322 -0.868,-1.022 v -3.402 h 1.47 z"
     id="text23"
     class="terminal"
     style="font-weight:bold;font-size:14px;font-family:HelveticaNeueCyr, Sans-serif;fill:#140000"
     aria-label="on conflict" />
  <path
     id="rect24"
     style="fill:#330000;stroke:#330000"
     d="m 507,177 h 16 c 5.54,0 10,4.46 10,10 v 12 c 0,5.54 -4.46,10 -10,10 h -16 c -5.54,0 -10,-4.46 -10,-10 v -12 c 0,-5.54 4.46,-10 10,-10 z" />
  <path
     id="rect25"
     class="terminal"
     style="fill:#ff4d4d;stroke:#330000"
     d="m 505,175 h 16 c 5.54,0 10,4.46 10,10 v 12 c 0,5.54 -4.46,10 -10,10 h -16 c -5.54,0 -10,-4.46 -10,-10 v -12 c 0,-5.54 4.46,-10 10,-10 z" />
  <path
     d="m 512.798,195 v -9.968 h -1.974 v 3.64 c -0.462,-0.742 -1.344,-1.092 -2.198,-1.092 -1.918,0 -3.164,1.498 -3.164,3.78 0,2.338 1.274,3.836 3.276,3.836 0.994,0 1.708,-0.378 2.184,-1.12 V 195 Z m -1.904,-3.626 c 0,1.414 -0.63,2.226 -1.722,2.226 -1.064,0 -1.708,-0.84 -1.708,-2.24 0,-1.386 0.63,-2.212 1.708,-2.212 1.078,0 1.722,0.826 1.722,2.226 z m 6.972,-3.808 c -2.268,0 -3.766,1.526 -3.766,3.822 0,2.31 1.484,3.836 3.738,3.836 2.254,0 3.724,-1.512 3.724,-3.836 0,-2.296 -1.47,-3.822 -3.696,-3.822 z m -0.056,1.512 c 1.106,0 1.764,0.854 1.764,2.296 0,1.484 -0.644,2.352 -1.736,2.352 -1.106,0 -1.75,-0.854 -1.75,-2.338 0,-1.442 0.658,-2.31 1.722,-2.31 z"
     id="text25"
     class="terminal"
     style="font-weight:bold;font-size:14px;font-family:HelveticaNeueCyr, Sans-serif;fill:#140000"
     aria-label="do" />
  <path
     id="rect26"
     style="fill:#330000;stroke:#330000"
     d="m 583,177 h 52 c 5.54,0 10,4.46 10,10 v 12 c 0,5.54 -4.46,10 -10,10 h -52 c -5.54,0 -10,-4.46 -10,-10 v -12 c 0,-5.54 4.46,-10 10,-10 z" />
  <path
     id="rect27"
     class="terminal"
     style="fill:#ff4d4d;stroke:#330000"
     d="m 581,175 h 52 c 5.54,0 10,4.46 10,10 v 12 c 0,5.54 -4.46,10 -10,10 h -52 c -5.54,0 -10,-4.46 -10,-10 v -12 c 0,-5.54 4.46,-10 10,-10 z" />
  <path
     d="m 588.56,195 v -4.83 c 0,-1.68 -0.98,-2.59 -2.506,-2.59 -1.022,0 -1.82,0.434 -2.394,1.204 v -1.008 h -1.89 V 195 h 1.974 v -3.878 c 0,-1.05 0.378,-1.904 1.568,-1.904 1.064,0 1.232,0.672 1.232,1.568 V 195 Z m 5.05401,-7.434 c -2.268,0 -3.766,1.526 -3.766,3.822 0,2.31 1.484,3.836 3.738,3.836 2.254,0 3.724,-1.512 3.724,-3.836 0,-2.296 -1.47,-3.822 -3.696,-3.822 z m -0.056,1.512 c 1.106,0 1.764,0.854 1.764,2.296 0,1.484 -0.644,2.352 -1.736,2.352 -1.106,0 -1.75,-0.854 -1.75,-2.338 0,-1.442 0.658,-2.31 1.722,-2.31 z m 9.03,-1.302 h -1.47 v -2.184 h -1.974 v 2.184 h -1.204 v 1.344 h 1.204 v 3.752 c 0,1.764 0.532,2.212 2.24,2.212 0.448,0 0.658,-0.014 1.204,-0.056 v -1.512 c -0.238,0.028 -0.392,0.028 -0.602,0.028 -0.854,0 -0.868,-0.322 -0.868,-1.022 v -3.402 h 1.47 z m 2.92599,-2.744 h -1.96 V 195 h 1.96 v -3.682 c 0,-1.064 0.238,-2.1 1.554,-2.1 1.064,0 1.274,0.644 1.274,1.526 V 195 h 1.988 v -4.732 c 0,-1.68 -0.77,-2.674 -2.534,-2.674 -0.994,0 -1.708,0.378 -2.282,1.148 z m 8.372,0 h -1.988 v 1.68 h 1.988 z m 0,2.744 h -1.988 V 195 h 1.988 z m 8.37199,7.224 v -4.83 c 0,-1.68 -0.98,-2.59 -2.506,-2.59 -1.022,0 -1.82,0.434 -2.394,1.204 v -1.008 h -1.89 V 195 h 1.974 v -3.878 c 0,-1.05 0.378,-1.904 1.568,-1.904 1.064,0 1.232,0.672 1.232,1.568 V 195 Z m 8.42801,-7.224 h -1.876 v 0.966 c -0.532,-0.812 -1.148,-1.162 -2.156,-1.162 -1.904,0 -3.164,1.456 -3.164,3.654 0,2.17 1.204,3.556 3.08,3.556 0.952,0 1.666,-0.364 2.212,-1.12 l -0.014,0.812 c -0.014,1.162 -0.266,1.876 -1.596,1.876 -0.868,0 -1.302,-0.28 -1.456,-0.924 h -1.974 c 0.196,1.512 1.302,2.254 3.388,2.254 2.352,0 3.556,-1.036 3.556,-3.444 z m -3.57,1.344 c 1.05,0 1.68,0.77 1.68,2.058 0,1.316 -0.644,2.128 -1.666,2.128 -1.036,0 -1.68,-0.812 -1.68,-2.086 0,-1.316 0.616,-2.1 1.666,-2.1 z"
     id="text27"
     class="terminal"
     style="font-weight:bold;font-size:14px;font-family:HelveticaNeueCyr, Sans-serif;fill:#140000"
     aria-label="nothing" />
  <path
     id="rect28"
     style="fill:#330000;stroke:#330000"
     d="m 583,221 h 50 c 5.54,0 10,4.46 10,10 v 12 c 0,5.54 -4.46,10 -10,10 h -50 c -5.54,0 -10,-4.46 -10,-10 v -12 c 0,-5.54 4.46,-10 10,-10 z" />
  <path
     id="rect29"
     class="terminal"
     style="fill:#ff4d4d;stroke:#330000"
     d="m 581,219 h 50 c 5.54,0 10,4.46 10,10 v 12 c 0,5.54 -4.46,10 -10,10 h -50 c -5.54,0 -10,-4.46 -10,-10 v -12 c 0,-5.54 4.46,-10 10,-10 z" />
  <path
     d="m 586.446,231.65 c -0.196,-0.028 -0.28,-0.042 -0.434,-0.042 -1.078,0 -1.89,0.56 -2.338,1.498 v -1.33 h -1.89 V 239 h 1.988 v -3.304 c 0,-1.316 0.532,-2.296 1.904,-2.296 0.224,0 0.42,0.014 0.77,0.084 z m 7.294,5.11 h -1.904 c -0.294,0.728 -0.742,1.05 -1.47,1.05 -1.064,0 -1.666,-0.672 -1.694,-1.918 h 5.18 v -0.196 c 0,-2.534 -1.386,-4.13 -3.57,-4.13 -2.1,0 -3.626,1.624 -3.626,3.864 0,2.268 1.47,3.78 3.696,3.78 1.638,0 2.94,-0.882 3.388,-2.45 z m -1.904,-2.128 h -3.164 c 0.112,-1.008 0.728,-1.624 1.61,-1.624 0.994,0 1.47,0.742 1.554,1.624 z m 5.026,-2.856 h -1.876 v 9.786 h 1.974 v -3.458 c 0.532,0.742 1.316,1.078 2.226,1.078 1.89,0 3.136,-1.484 3.136,-3.752 0,-2.324 -1.274,-3.85 -3.22,-3.85 -0.924,0 -1.708,0.35 -2.24,1.092 z m 1.75,1.4 c 1.064,0 1.722,0.84 1.722,2.254 0,1.372 -0.644,2.198 -1.708,2.198 -1.092,0 -1.736,-0.826 -1.736,-2.226 0,-1.4 0.644,-2.226 1.722,-2.226 z m 6.972,-4.144 h -1.988 V 239 h 1.988 z m 8.28799,9.968 c -0.266,-0.616 -0.252,-1.302 -0.252,-1.96 v -3.122 c 0,-2.016 -1.694,-2.352 -3.15,-2.352 -2.086,0 -3.234,0.826 -3.346,2.436 h 1.862 c 0.14,-0.826 0.518,-1.106 1.428,-1.106 0.882,0 1.302,0.308 1.302,0.966 0,0.588 -0.476,0.7 -1.764,0.868 -1.428,0.182 -3.15,0.406 -3.15,2.296 0,1.358 0.98,2.184 2.576,2.184 0.868,0 1.722,-0.294 2.338,-0.91 0.028,0.322 0.042,0.434 0.14,0.7 z m -2.17,-3.514 v 0.812 c 0,1.036 -0.728,1.61 -1.764,1.61 -0.686,0 -1.092,-0.364 -1.092,-0.966 0,-0.882 0.77,-0.966 1.456,-1.078 0.504,-0.084 0.938,-0.112 1.4,-0.378 z m 10.37399,0.728 h -1.918 c -0.154,0.952 -0.686,1.456 -1.54,1.456 -1.064,0 -1.68,-0.826 -1.68,-2.268 0,-1.484 0.644,-2.352 1.722,-2.352 0.77,0 1.288,0.448 1.428,1.246 h 1.946 c -0.168,-1.68 -1.456,-2.73 -3.388,-2.73 -2.24,0 -3.71,1.54 -3.71,3.878 0,2.254 1.456,3.738 3.682,3.738 1.918,0 3.206,-1.092 3.458,-2.968 z m 7.93799,0.546 h -1.904 c -0.294,0.728 -0.742,1.05 -1.47,1.05 -1.064,0 -1.666,-0.672 -1.694,-1.918 h 5.18 v -0.196 c 0,-2.534 -1.386,-4.13 -3.57,-4.13 -2.1,0 -3.626,1.624 -3.626,3.864 0,2.268 1.47,3.78 3.696,3.78 1.638,0 2.94,-0.882 3.388,-2.45 z m -1.904,-2.128 h -3.164 c 0.112,-1.008 0.728,-1.624 1.61,-1.624 0.994,0 1.47,0.742 1.554,1.624 z"
     id="text29"
     class="terminal"
     style="font-weight:bold;font-size:14px;font-family:HelveticaNeueCyr, Sans-serif;fill:#140000"
     aria-label="replace" />
  <path
     id="rect30"
     style="fill:#330000;stroke:#330000"
     d="m 583,265 h 20 c 5.54,0 10,4.46 10,10 v 12 c 0,5.54 -4.46,10 -10,10 h -20 c -5.54,0 -10,-4.46 -10,-10 v -12 c 0,-5.54 4.46,-10 10,-10 z" />
  <path
     id="rect31"
     class="terminal"
     style="fill:#ff4d4d;stroke:#330000"
     d="m 581,263 h 20 c 5.54,0 10,4.46 10,10 v 12 c 0,5.54 -4.46,10 -10,10 h -20 c -5.54,0 -10,-4.46 -10,-10 v -12 c 0,-5.54 4.46,-10 10,-10 z" />
  <path
     d="m 585.69,273.032 c -0.35,-0.014 -0.686,-0.042 -1.036,-0.042 -1.806,0 -2.478,0.742 -2.478,2.408 v 0.378 H 581 v 1.344 h 1.176 V 283 h 1.988 v -5.88 h 1.4 v -1.344 h -1.414 v -0.574 c 0,-0.602 0.168,-0.742 0.882,-0.742 0.21,0 0.35,0.014 0.658,0.028 z m 7.448,9.968 c -0.266,-0.616 -0.252,-1.302 -0.252,-1.96 v -3.122 c 0,-2.016 -1.694,-2.352 -3.15,-2.352 -2.086,0 -3.234,0.826 -3.346,2.436 h 1.862 c 0.14,-0.826 0.518,-1.106 1.428,-1.106 0.882,0 1.302,0.308 1.302,0.966 0,0.588 -0.476,0.7 -1.764,0.868 -1.428,0.182 -3.15,0.406 -3.15,2.296 0,1.358 0.98,2.184 2.576,2.184 0.868,0 1.722,-0.294 2.338,-0.91 0.028,0.322 0.042,0.434 0.14,0.7 z m -2.17,-3.514 v 0.812 c 0,1.036 -0.728,1.61 -1.764,1.61 -0.686,0 -1.092,-0.364 -1.092,-0.966 0,-0.882 0.77,-0.966 1.456,-1.078 0.504,-0.084 0.938,-0.112 1.4,-0.378 z m 5.52999,-6.454 h -1.988 v 1.68 h 1.988 z m 0,2.744 h -1.988 V 283 h 1.988 z m 3.612,-2.744 h -1.988 V 283 h 1.988 z"
     id="text31"
     class="terminal"
     style="font-weight:bold;font-size:14px;font-family:HelveticaNeueCyr, Sans-serif;fill:#140000"
     aria-label="fail" />
  <path
     class="line"
     d="m17 61 h2 m0 0 h10 m70 0 h10 m0 0 h10 m56 0 h10 m0 0 h10 m52 0 h10 m20 0 h10 m26 0 h10 m20 0 h10 m56 0 h10 m-96 0 l20 0 m-1 0 q-9 0 -9 -10 l0 -24 q0 -10 10 -10 m76 44 l20 0 m-20 0 q10 0 10 -10 l0 -24 q0 -10 -10 -10 m-76 0 h10 m24 0 h10 m0 0 h32 m20 44 h10 m26 0 h10 m-228 0 h20 m208 0 h20 m-248 0 q10 0 10 10 m228 0 q0 -10 10 -10 m-238 10 v14 m228 0 v-14 m-228 14 q0 10 10 10 m208 0 q10 0 10 -10 m-218 10 h10 m0 0 h198 m40 -34 h10 m72 0 h10 m0 0 h10 m42 0 h10 m-174 0 h20 m154 0 h20 m-194 0 q10 0 10 10 m174 0 q0 -10 10 -10 m-184 10 v24 m174 0 v-24 m-174 24 q0 10 10 10 m154 0 q10 0 10 -10 m-164 10 h10 m66 0 h10 m0 0 h68 m22 -44 l2 0 m2 0 l2 0 m2 0 l2 0 m-368 98 l2 0 m2 0 l2 0 m2 0 l2 0 m22 0 h10 m0 0 h288 m-318 0 h20 m298 0 h20 m-338 0 q10 0 10 10 m318 0 q0 -10 10 -10 m-328 10 v12 m318 0 v-12 m-318 12 q0 10 10 10 m298 0 q10 0 10 -10 m-308 10 h10 m90 0 h10 m0 0 h10 m36 0 h10 m20 0 h10 m72 0 h10 m-112 0 h20 m92 0 h20 m-132 0 q10 0 10 10 m112 0 q0 -10 10 -10 m-122 10 v24 m112 0 v-24 m-112 24 q0 10 10 10 m92 0 q10 0 10 -10 m-102 10 h10 m70 0 h10 m0 0 h2 m-102 -10 v20 m112 0 v-20 m-112 20 v24 m112 0 v-24 m-112 24 q0 10 10 10 m92 0 q10 0 10 -10 m-102 10 h10 m40 0 h10 m0 0 h32 m43 -120 h-3"
     id="path31" />
  <path
     id="polygon31"
     style="fill:#330000;stroke:#330000"
     d="m 703,159 8,-4 v 8 z" />
  <path
     id="polygon32"
     style="fill:#330000;stroke:#330000"
     d="m 703,159 -8,-4 v 8 z" />
</svg>
