<?xml version="1.0" encoding="UTF-8" standalone="no"?>
<svg
   width="709"
   height="299"
   version="1.1"
   id="svg34"
   sodipodi:docname="INSERT.svg"
   inkscape:version="1.3 (0e150ed6c4, 2023-07-21)"
   xmlns:inkscape="http://www.inkscape.org/namespaces/inkscape"
   xmlns:sodipodi="http://sodipodi.sourceforge.net/DTD/sodipodi-0.dtd"
   xmlns:xlink="http://www.w3.org/1999/xlink"
   xmlns="http://www.w3.org/2000/svg"
   xmlns:svg="http://www.w3.org/2000/svg">
  <sodipodi:namedview
     id="namedview34"
     pagecolor="#ffffff"
     bordercolor="#666666"
     borderopacity="1.0"
     inkscape:showpageshadow="2"
     inkscape:pageopacity="0.0"
     inkscape:pagecheckerboard="0"
     inkscape:deskcolor="#d1d1d1"
     inkscape:zoom="0.977433"
     inkscape:cx="354.5"
     inkscape:cy="149.8824"
     inkscape:window-width="1439"
     inkscape:window-height="749"
     inkscape:window-x="116"
     inkscape:window-y="118"
     inkscape:window-maximized="0"
     inkscape:current-layer="svg34" />
  <defs
     id="defs1">
    <style
       type="text/css"
       id="style1">@namespace &quot;http://www.w3.org/2000/svg&quot;;.line { fill: none; stroke: #330000; stroke-width: 1; }&#10;.bold-line { stroke: #140000; shape-rendering: crispEdges; stroke-width: 2; }&#10;.thin-line { stroke: #1F0000; shape-rendering: crispEdges }&#10;.filled { fill: #330000; stroke: none; }&#10;text.terminal { font-family: HelveticaNeueCyr, Sans-serif;                            font-size: 14px;                            fill: #140000;                            font-weight: bold; }&#10;text.nonterminal { font-family: HelveticaNeueCyr, Sans-serif;                            font-size: 14px;                            fill: #1A0000;                            font-weight: normal; }&#10;text.regexp { font-family: HelveticaNeueCyr, Sans-serif;                            font-size: 14px;                            fill: #1F0000;                            font-weight: normal; }&#10;rect, circle, polygon { fill: #330000; stroke: #330000; }&#10;rect.terminal { fill: #FF4D4D; stroke: #330000; stroke-width: 1; }&#10;rect.nonterminal { fill: #FF9E9E; stroke: #330000; stroke-width: 1; }&#10;rect.text { fill: none; stroke: none; }&#10;polygon.regexp { fill: #FFC7C7; stroke: #330000; stroke-width: 1; }&#10;</style>
  </defs>
  <path
     id="polygon1"
     style="fill:#330000;stroke:#330000"
     d="M 9,61 1,57 v 8 z" />
  <path
     id="polygon2"
     style="fill:#330000;stroke:#330000"
     d="M 17,61 9,57 v 8 z" />
  <path
     id="rect2"
     style="fill:#330000;stroke:#330000"
     d="m 41,47 h 50 c 5.54,0 10,4.46 10,10 v 12 c 0,5.54 -4.46,10 -10,10 H 41 C 35.46,79 31,74.54 31,69 V 57 c 0,-5.54 4.46,-10 10,-10 z" />
  <path
     id="rect3"
     class="terminal"
     style="fill:#ff4d4d;stroke:#330000"
     d="m 39,45 h 50 c 5.54,0 10,4.46 10,10 v 12 c 0,5.54 -4.46,10 -10,10 H 39 C 33.46,77 29,72.54 29,67 V 55 c 0,-5.54 4.46,-10 10,-10 z" />
  <path
     d="M 42.164,55.032 V 65 H 39.966 V 55.032 Z M 44.096001,65 v -9.968 h 2.226 l 4.102,6.678 v -6.678 h 2.1 V 65 h -2.184 l -4.13,-6.692 V 65 Z M 61.84799,58 h -2.072 q -0.126,-1.484 -1.89,-1.484 -0.756,0 -1.19,0.308 -0.42,0.294 -0.42,0.826 0,0.182 0.056,0.322 0.056,0.14 0.21,0.266 0.154,0.112 0.308,0.196 0.154,0.07 0.448,0.168 0.308,0.084 0.546,0.154 0.252,0.07 0.7,0.182 0.448,0.112 0.784,0.21 1.47,0.42 2.184,1.05 0.728,0.63 0.728,1.806 0,0.854 -0.35,1.498 -0.35,0.63 -0.952,1.008 -0.588,0.364 -1.302,0.532 -0.7,0.182 -1.498,0.182 -2.03,0 -3.178,-0.924 -1.134,-0.938 -1.148,-2.632 h 2.17 q 0.056,1.876 2.254,1.876 0.854,0 1.344,-0.35 0.504,-0.364 0.504,-0.98 0,-0.518 -0.462,-0.756 -0.448,-0.238 -1.904,-0.658 -0.238,-0.056 -0.364,-0.098 -0.504,-0.14 -0.7,-0.196 -0.196,-0.07 -0.63,-0.224 -0.42,-0.154 -0.616,-0.28 -0.196,-0.126 -0.49,-0.35 -0.28,-0.224 -0.406,-0.462 -0.126,-0.252 -0.238,-0.602 -0.098,-0.364 -0.098,-0.784 0,-1.358 1.05,-2.17 1.05,-0.812 2.786,-0.812 1.68,0 2.744,0.798 1.064,0.784 1.092,2.38 z m 9.184003,-2.968 v 1.792 h -5.306 v 2.17 h 4.872 v 1.722 h -4.872 v 2.45 h 5.404 V 65 h -7.574 v -9.968 z m 1.68001,0 h 4.956 q 1.484,0 2.422,0.7 0.938,0.7 0.938,2.128 0,0.868 -0.42,1.526 -0.42,0.644 -1.162,0.924 1.288,0.266 1.47,2.324 0,0.07 0.028,0.434 0.028,0.364 0.056,0.588 0.028,0.21 0.07,0.518 0.042,0.308 0.126,0.518 0.084,0.21 0.196,0.308 h -2.268 q -0.112,-0.224 -0.168,-0.56 -0.056,-0.35 -0.098,-0.882 -0.042,-0.546 -0.042,-0.602 -0.112,-1.05 -0.532,-1.456 -0.406,-0.406 -1.456,-0.406 h -1.946 V 65 h -2.17 z m 2.17,1.722 v 2.758 h 2.072 q 0.91,0 1.414,-0.28 0.518,-0.294 0.518,-1.134 0,-0.784 -0.504,-1.064 -0.49,-0.28 -1.33,-0.28 z m 15.008006,-1.722 v 1.862 h -2.996 V 65 h -2.198 v -8.106 h -2.996 v -1.862 z"
     id="text3"
     class="terminal"
     style="font-weight:bold;font-size:14px;font-family:HelveticaNeueCyr, Sans-serif;fill:#140000"
     aria-label="INSERT" />
  <path
     id="rect4"
     style="fill:#330000;stroke:#330000"
     d="m 131,47 h 36 c 5.54,0 10,4.46 10,10 v 12 c 0,5.54 -4.46,10 -10,10 h -36 c -5.54,0 -10,-4.46 -10,-10 V 57 c 0,-5.54 4.46,-10 10,-10 z" />
  <path
     id="rect5"
     class="terminal"
     style="fill:#ff4d4d;stroke:#330000"
     d="m 129,45 h 36 c 5.54,0 10,4.46 10,10 v 12 c 0,5.54 -4.46,10 -10,10 h -36 c -5.54,0 -10,-4.46 -10,-10 V 55 c 0,-5.54 4.46,-10 10,-10 z" />
  <path
     d="M 132.164,55.032 V 65 h -2.198 V 55.032 Z M 134.096,65 v -9.968 h 2.226 l 4.102,6.678 v -6.678 h 2.1 V 65 h -2.184 l -4.13,-6.692 V 65 Z m 17.77999,-9.968 v 1.862 h -2.996 V 65 h -2.198 v -8.106 h -2.996 v -1.862 z m 5.656,-0.238 q 2.184,0 3.528,1.456 1.358,1.442 1.358,3.78 0,2.338 -1.358,3.78 -1.344,1.428 -3.542,1.428 -2.212,0 -3.57,-1.428 -1.358,-1.442 -1.358,-3.78 0,-2.366 1.344,-3.794 1.358,-1.442 3.598,-1.442 z m -0.028,1.792 q -1.232,0 -1.974,0.924 -0.728,0.924 -0.728,2.478 0,1.61 0.728,2.52 0.728,0.91 2.002,0.924 1.246,0 1.96,-0.924 0.714,-0.924 0.714,-2.52 0,-1.568 -0.728,-2.478 -0.728,-0.924 -1.974,-0.924 z"
     id="text5"
     class="terminal"
     style="font-weight:bold;font-size:14px;font-family:HelveticaNeueCyr, Sans-serif;fill:#140000"
     aria-label="INTO" />
  <a
     xlink:href="#table"
     xlink:title="table"
     id="a7">
    <path
       id="rect6"
       style="fill:#330000;stroke:#330000"
       d="m 197,47 h 52 v 32 h -52 z" />
    <path
       id="rect7"
       class="nonterminal"
       style="fill:#ff9e9e;stroke:#330000"
       d="m 195,45 h 52 v 32 h -52 z" />
    <path
       d="m 208.99,57.776 v 0.98 h -1.442 v 4.214 q 0,0.35 0,0.462 0.014,0.112 0.084,0.308 0.07,0.182 0.238,0.238 0.168,0.056 0.476,0.056 0.266,0 0.644,-0.042 v 1.022 q -0.504,0.056 -0.91,0.056 -0.504,0 -0.84,-0.112 -0.336,-0.112 -0.518,-0.252 -0.168,-0.14 -0.252,-0.49 -0.084,-0.364 -0.098,-0.602 -0.014,-0.252 -0.014,-0.826 0,-0.126 0,-0.196 v -3.836 h -1.218 v -0.98 h 1.218 v -2.142 h 1.19 v 2.142 z m 7.71401,6.272 v 0.924 q -0.364,0.14 -0.812,0.14 -1.022,0 -1.05,-1.064 -1.022,1.148 -2.618,1.148 -1.064,0 -1.694,-0.546 -0.616,-0.546 -0.616,-1.498 0,-1.932 2.562,-2.254 1.512,-0.182 1.75,-0.266 0.504,-0.168 0.546,-0.7 0.014,-0.084 0.014,-0.182 0,-1.19 -1.638,-1.19 -0.84,0 -1.274,0.35 -0.434,0.336 -0.518,1.12 h -1.162 q 0.028,-1.162 0.826,-1.806 0.798,-0.644 2.198,-0.644 1.526,0 2.268,0.7 0.238,0.224 0.35,0.588 0.112,0.364 0.126,0.602 0.014,0.224 0.014,0.686 0,0.546 -0.028,1.624 -0.028,1.064 -0.028,1.596 0,0.392 0.098,0.56 0.112,0.154 0.392,0.154 0.112,0 0.294,-0.042 z m -1.918,-2.8 q -0.126,0.098 -0.266,0.168 -0.14,0.07 -0.364,0.112 -0.21,0.042 -0.294,0.07 -0.07,0.014 -0.364,0.056 -0.294,0.028 -0.308,0.028 -0.434,0.056 -0.574,0.084 -0.126,0.014 -0.504,0.112 -0.364,0.098 -0.518,0.224 -0.154,0.126 -0.308,0.378 -0.14,0.238 -0.14,0.574 0,0.56 0.378,0.882 0.392,0.322 1.064,0.322 0.854,0 1.526,-0.504 0.672,-0.504 0.672,-1.19 z m 4.21401,-6.216 v 3.738 q 0.784,-1.19 2.394,-1.19 1.484,0 2.366,1.036 0.896,1.022 0.896,2.744 0,1.75 -0.91,2.8 -0.91,1.05 -2.422,1.05 -1.722,0 -2.394,-1.26 V 65 h -1.12 v -9.968 z m 2.212,3.556 q -1.148,0 -1.708,0.826 -0.546,0.826 -0.546,2.03 0,1.274 0.602,2.03 0.616,0.742 1.652,0.742 0.994,0 1.596,-0.77 0.616,-0.784 0.616,-2.072 0,-1.274 -0.602,-2.03 -0.602,-0.756 -1.61,-0.756 z m 6.174,-3.556 V 65 h -1.204 v -9.968 z m 8.022,7.686 q -0.546,2.52 -3.15,2.52 -1.596,0 -2.506,-0.994 -0.896,-0.994 -0.896,-2.758 0,-1.75 0.924,-2.828 0.938,-1.092 2.436,-1.092 1.666,0 2.464,1.134 0.812,1.12 0.812,2.842 v 0.168 h -5.432 l -0.014,0.084 q 0,1.148 0.602,1.806 0.602,0.658 1.652,0.658 0.784,0 1.232,-0.364 0.462,-0.364 0.714,-1.176 z m -1.148,-1.974 q -0.084,-1.036 -0.63,-1.61 -0.546,-0.588 -1.442,-0.588 -0.868,0 -1.442,0.588 -0.574,0.588 -0.686,1.61 z"
       id="text7"
       class="nonterminal"
       style="font-size:14px;font-family:HelveticaNeueCyr, Sans-serif;fill:#1a0000"
       aria-label="table" />
  </a>
  <path
     id="rect8"
     style="fill:#330000;stroke:#330000"
     d="m 299,47 h 6 c 5.54,0 10,4.46 10,10 v 12 c 0,5.54 -4.46,10 -10,10 h -6 c -5.54,0 -10,-4.46 -10,-10 V 57 c 0,-5.54 4.46,-10 10,-10 z" />
  <path
     id="rect9"
     class="terminal"
     style="fill:#ff4d4d;stroke:#330000"
     d="m 297,45 h 6 c 5.54,0 10,4.46 10,10 v 12 c 0,5.54 -4.46,10 -10,10 h -6 c -5.54,0 -10,-4.46 -10,-10 V 55 c 0,-5.54 4.46,-10 10,-10 z" />
  <path
     d="m 301.228,54.878 q -0.812,1.624 -1.19,3.108 -0.364,1.484 -0.364,3.262 0,3.08 1.582,6.244 h -1.68 q -0.868,-1.316 -1.358,-2.954 -0.476,-1.638 -0.476,-3.248 0,-1.68 0.462,-3.388 0.476,-1.722 1.372,-3.024 z"
     id="text9"
     class="terminal"
     style="font-weight:bold;font-size:14px;font-family:HelveticaNeueCyr, Sans-serif;fill:#140000"
     aria-label="(" />
  <a
     xlink:href="#name"
     xlink:title="name"
     id="a11">
    <path
       id="rect10"
       style="fill:#330000;stroke:#330000"
       d="m 355,47 h 56 v 32 h -56 z" />
    <path
       id="rect11"
       class="nonterminal"
       style="fill:#ff9e9e;stroke:#330000"
       d="m 353,45 h 56 v 32 h -56 z" />
    <path
       d="m 365.016,57.776 v 1.12 q 0.896,-1.316 2.464,-1.316 1.274,0 1.834,0.672 0.574,0.658 0.574,1.946 V 65 h -1.19 v -4.256 q 0,-0.532 -0.042,-0.826 -0.028,-0.308 -0.168,-0.644 -0.14,-0.35 -0.476,-0.504 -0.336,-0.154 -0.868,-0.154 -2.058,0 -2.058,2.604 V 65 h -1.19 v -7.224 z m 13.062,6.272 v 0.924 q -0.364,0.14 -0.812,0.14 -1.022,0 -1.05,-1.064 -1.022,1.148 -2.618,1.148 -1.064,0 -1.694,-0.546 -0.616,-0.546 -0.616,-1.498 0,-1.932 2.562,-2.254 1.512,-0.182 1.75,-0.266 0.504,-0.168 0.546,-0.7 0.014,-0.084 0.014,-0.182 0,-1.19 -1.638,-1.19 -0.84,0 -1.274,0.35 -0.434,0.336 -0.518,1.12 h -1.162 q 0.028,-1.162 0.826,-1.806 0.798,-0.644 2.198,-0.644 1.526,0 2.268,0.7 0.238,0.224 0.35,0.588 0.112,0.364 0.126,0.602 0.014,0.224 0.014,0.686 0,0.546 -0.028,1.624 -0.028,1.064 -0.028,1.596 0,0.392 0.098,0.56 0.112,0.154 0.392,0.154 0.112,0 0.294,-0.042 z m -1.918,-2.8 q -0.126,0.098 -0.266,0.168 -0.14,0.07 -0.364,0.112 -0.21,0.042 -0.294,0.07 -0.07,0.014 -0.364,0.056 -0.294,0.028 -0.308,0.028 -0.434,0.056 -0.574,0.084 -0.126,0.014 -0.504,0.112 -0.364,0.098 -0.518,0.224 -0.154,0.126 -0.308,0.378 -0.14,0.238 -0.14,0.574 0,0.56 0.378,0.882 0.392,0.322 1.064,0.322 0.854,0 1.526,-0.504 0.672,-0.504 0.672,-1.19 z m 4.15801,-3.472 v 1.05 q 0.476,-0.644 1.022,-0.938 0.546,-0.294 1.33,-0.294 1.484,0 2.002,1.246 0.938,-1.26 2.394,-1.26 1.12,0 1.694,0.63 0.588,0.616 0.588,1.736 V 65 h -1.19 v -4.55 q 0,-0.896 -0.28,-1.344 -0.28,-0.462 -1.162,-0.462 -1.848,0 -1.848,2.254 V 65 h -1.19 v -4.634 q 0,-0.826 -0.28,-1.26 -0.266,-0.448 -1.05,-0.448 -1.106,0 -1.54,0.686 -0.42,0.672 -0.42,1.834 V 65 h -1.19 v -7.224 z m 16.996,4.942 q -0.546,2.52 -3.15,2.52 -1.596,0 -2.506,-0.994 -0.896,-0.994 -0.896,-2.758 0,-1.75 0.924,-2.828 0.938,-1.092 2.436,-1.092 1.666,0 2.464,1.134 0.812,1.12 0.812,2.842 v 0.168 h -5.432 l -0.014,0.084 q 0,1.148 0.602,1.806 0.602,0.658 1.652,0.658 0.784,0 1.232,-0.364 0.462,-0.364 0.714,-1.176 z m -1.148,-1.974 q -0.084,-1.036 -0.63,-1.61 -0.546,-0.588 -1.442,-0.588 -0.868,0 -1.442,0.588 -0.574,0.588 -0.686,1.61 z"
       id="text11"
       class="nonterminal"
       style="font-size:14px;font-family:HelveticaNeueCyr, Sans-serif;fill:#1a0000"
       aria-label="name" />
  </a>
  <path
     id="rect12"
     style="fill:#330000;stroke:#330000"
     d="m 365,3 h 4 c 5.54,0 10,4.46 10,10 v 12 c 0,5.54 -4.46,10 -10,10 h -4 c -5.54,0 -10,-4.46 -10,-10 V 13 c 0,-5.54 4.46,-10 10,-10 z" />
  <path
     id="rect13"
     class="terminal"
     style="fill:#ff4d4d;stroke:#330000"
     d="m 363,1 h 4 c 5.54,0 10,4.46 10,10 v 12 c 0,5.54 -4.46,10 -10,10 h -4 c -5.54,0 -10,-4.46 -10,-10 V 11 c 0,-5.54 4.46,-10 10,-10 z" />
  <path
     d="m 366.052,18.816 v 1.778 q 0,1.218 -0.546,1.876 -0.532,0.672 -1.666,0.854 v -0.98 q 0.938,-0.28 0.994,-1.344 h -0.994 v -2.184 z"
     id="text13"
     class="terminal"
     style="font-weight:bold;font-size:14px;font-family:HelveticaNeueCyr, Sans-serif;fill:#140000"
     aria-label="," />
  <path
     id="rect14"
     style="fill:#330000;stroke:#330000"
     d="m 461,47 h 6 c 5.54,0 10,4.46 10,10 v 12 c 0,5.54 -4.46,10 -10,10 h -6 c -5.54,0 -10,-4.46 -10,-10 V 57 c 0,-5.54 4.46,-10 10,-10 z" />
  <path
     id="rect15"
     class="terminal"
     style="fill:#ff4d4d;stroke:#330000"
     d="m 459,45 h 6 c 5.54,0 10,4.46 10,10 v 12 c 0,5.54 -4.46,10 -10,10 h -6 c -5.54,0 -10,-4.46 -10,-10 V 55 c 0,-5.54 4.46,-10 10,-10 z" />
  <path
     d="m 458.944,54.878 h 1.652 q 1.862,2.856 1.862,6.23 0,1.582 -0.49,3.416 -0.49,1.834 -1.344,2.968 h -1.666 q 0.84,-1.708 1.19,-3.15 0.364,-1.456 0.364,-3.262 0,-3.388 -1.568,-6.202 z"
     id="text15"
     class="terminal"
     style="font-weight:bold;font-size:14px;font-family:HelveticaNeueCyr, Sans-serif;fill:#140000"
     aria-label=")" />
  <a
     xlink:href="#values"
     xlink:title="VALUES"
     id="a17">
    <path
       id="rect16"
       style="fill:#330000;stroke:#330000"
       d="m 537,47 h 68 v 32 h -68 z" />
    <path
       id="rect17"
       class="nonterminal"
       style="fill:#ff9e9e;stroke:#330000"
       d="m 535,45 h 68 v 32 h -68 z" />
    <path
       d="m 544.972,55.032 h 1.456 l 2.87,8.68 2.898,-8.68 h 1.386 L 550.026,65 h -1.512 z m 13.23001,0 3.892,9.968 h -1.47 l -1.106,-3.052 h -4.186 l -1.134,3.052 h -1.4 l 3.92,-9.968 z m 0.924,5.866 -1.694,-4.606 -1.722,4.606 z m 10.58401,2.954 V 65 h -6.608 v -9.968 h 1.316 v 8.82 z m 1.09199,-8.82 h 1.33 v 6.286 q 0,1.456 0.63,2.128 0.63,0.672 2.058,0.672 1.47,0 2.072,-0.686 0.616,-0.686 0.616,-2.114 v -6.286 h 1.33 v 5.936 q 0,2.184 -0.91,3.22 -0.91,1.022 -3.108,1.022 -2.128,0 -3.08,-0.994 -0.938,-1.008 -0.938,-3.108 z m 17.08001,0 v 1.148 h -5.586 v 3.122 h 5.222 v 1.106 h -5.222 v 3.444 h 5.656 V 65 h -6.972 v -9.968 z m 8.708,2.926 h -1.274 q -0.21,-2.03 -2.478,-2.03 -1.078,0 -1.666,0.434 -0.588,0.434 -0.588,1.218 0,0.28 0.084,0.49 0.084,0.21 0.28,0.378 0.21,0.154 0.392,0.266 0.182,0.112 0.574,0.224 0.392,0.112 0.63,0.168 0.238,0.042 0.742,0.154 0.616,0.126 1.022,0.238 0.406,0.098 0.966,0.336 0.56,0.238 0.882,0.532 0.336,0.28 0.574,0.756 0.252,0.476 0.252,1.078 0,1.05 -0.588,1.764 -0.588,0.7 -1.428,0.98 -0.84,0.28 -1.862,0.28 -1.876,0 -3.01,-0.882 -1.12,-0.896 -1.12,-2.632 h 1.274 q 0.042,1.274 0.854,1.862 0.812,0.574 2.114,0.574 1.022,0 1.75,-0.42 0.728,-0.434 0.728,-1.4 0,-0.448 -0.196,-0.756 -0.196,-0.322 -0.616,-0.518 -0.42,-0.21 -0.84,-0.336 -0.42,-0.126 -1.106,-0.28 -0.098,-0.014 -0.14,-0.028 -1.54,-0.35 -2.016,-0.56 -1.456,-0.63 -1.456,-2.17 0,-1.428 1.05,-2.128 1.064,-0.714 2.562,-0.714 1.638,0 2.618,0.784 0.98,0.784 1.036,2.338 z"
       id="text17"
       class="nonterminal"
       style="font-size:14px;font-family:HelveticaNeueCyr, Sans-serif;fill:#1a0000"
       aria-label="VALUES" />
  </a>
  <a
     xlink:href="#row"
     xlink:title="row"
     id="a19">
    <path
       id="rect18"
       style="fill:#330000;stroke:#330000"
       d="m 625,47 h 42 v 32 h -42 z" />
    <path
       id="rect19"
       class="nonterminal"
       style="fill:#ff9e9e;stroke:#330000"
       d="m 623,45 h 42 v 32 h -42 z" />
    <path
       d="m 637.662,57.608 v 1.232 q -0.126,-0.014 -0.308,-0.014 -0.574,0 -0.994,0.182 -0.42,0.168 -0.672,0.448 -0.238,0.28 -0.392,0.7 -0.154,0.42 -0.21,0.84 -0.042,0.42 -0.042,0.952 V 65 h -1.19 v -7.224 h 1.134 v 1.554 q 0.714,-1.722 2.674,-1.722 z m 1.21801,0.994 q 0.952,-1.036 2.59,-1.036 1.638,0 2.548,0.994 0.91,0.994 0.91,2.786 0,1.834 -0.91,2.856 -0.91,1.022 -2.562,1.022 -1.652,0 -2.59,-1.008 -0.938,-1.008 -0.938,-2.8 0,-1.778 0.952,-2.814 z m 4.214,0.728 q -0.602,-0.77 -1.652,-0.77 -1.05,0 -1.666,0.77 -0.616,0.77 -0.616,2.058 0,1.33 0.602,2.086 0.616,0.742 1.708,0.742 1.05,0 1.638,-0.756 0.602,-0.756 0.602,-2.086 0,-1.288 -0.616,-2.044 z M 645.684,57.776 H 647 l 1.652,5.95 1.47,-5.95 h 1.302 l 1.526,5.95 1.638,-5.95 h 1.232 L 653.51,65 h -1.26 l -1.484,-5.712 -1.47,5.712 h -1.288 z"
       id="text19"
       class="nonterminal"
       style="font-size:14px;font-family:HelveticaNeueCyr, Sans-serif;fill:#1a0000"
       aria-label="row" />
  </a>
  <a
     xlink:href="#select"
     xlink:title="SELECT"
     id="a21">
    <path
       id="rect20"
       style="fill:#330000;stroke:#330000"
       d="m 537,91 h 66 v 32 h -66 z" />
    <path
       id="rect21"
       class="nonterminal"
       style="fill:#ff9e9e;stroke:#330000"
       d="m 535,89 h 66 v 32 h -66 z" />
    <path
       d="m 553.162,101.958 h -1.274 q -0.21,-2.03 -2.478,-2.03 -1.078,0 -1.666,0.434 -0.588,0.434 -0.588,1.218 0,0.28 0.084,0.49 0.084,0.21 0.28,0.378 0.21,0.154 0.392,0.266 0.182,0.112 0.574,0.224 0.392,0.112 0.63,0.168 0.238,0.042 0.742,0.154 0.616,0.126 1.022,0.238 0.406,0.098 0.966,0.336 0.56,0.238 0.882,0.532 0.336,0.28 0.574,0.756 0.252,0.476 0.252,1.078 0,1.05 -0.588,1.764 -0.588,0.7 -1.428,0.98 -0.84,0.28 -1.862,0.28 -1.876,0 -3.01,-0.882 -1.12,-0.896 -1.12,-2.632 h 1.274 q 0.042,1.274 0.854,1.862 0.812,0.574 2.114,0.574 1.022,0 1.75,-0.42 0.728,-0.434 0.728,-1.4 0,-0.448 -0.196,-0.756 -0.196,-0.322 -0.616,-0.518 -0.42,-0.21 -0.84,-0.336 -0.42,-0.126 -1.106,-0.28 -0.098,-0.014 -0.14,-0.028 -1.54,-0.35 -2.016,-0.56 -1.456,-0.63 -1.456,-2.17 0,-1.428 1.05,-2.128 1.064,-0.714 2.562,-0.714 1.638,0 2.618,0.784 0.98,0.784 1.036,2.338 z m 8.91801,-2.926 v 1.148 h -5.586 v 3.122 h 5.222 v 1.106 h -5.222 v 3.444 h 5.656 V 109 h -6.972 v -9.968 z m 8.274,8.82 V 109 h -6.608 v -9.968 h 1.316 v 8.82 z m 8.064,-8.82 v 1.148 h -5.586 v 3.122 h 5.222 v 1.106 h -5.222 v 3.444 h 5.656 V 109 h -6.972 v -9.968 z m 10.094,6.202 q -0.168,1.89 -1.316,2.954 -1.134,1.05 -2.996,1.05 -2.128,0 -3.374,-1.4 -1.246,-1.414 -1.246,-3.808 0,-2.24 1.246,-3.724 1.26,-1.498 3.472,-1.498 1.582,0 2.786,0.854 1.204,0.854 1.344,2.366 h -1.316 q -0.224,-0.98 -0.98,-1.526 -0.756,-0.56 -1.862,-0.56 -1.666,0 -2.52,1.176 -0.84,1.176 -0.84,2.898 0,1.904 0.896,2.996 0.896,1.092 2.45,1.092 1.274,0 2.03,-0.728 0.756,-0.742 0.91,-2.142 z m 8.582,-6.202 v 1.148 h -3.346 V 109 h -1.316 v -8.82 h -3.346 v -1.148 z"
       id="text21"
       class="nonterminal"
       style="font-size:14px;font-family:HelveticaNeueCyr, Sans-serif;fill:#1a0000"
       aria-label="SELECT" />
  </a>
  <path
     id="rect22"
     style="fill:#330000;stroke:#330000"
     d="m 271,177 h 70 c 5.54,0 10,4.46 10,10 v 12 c 0,5.54 -4.46,10 -10,10 h -70 c -5.54,0 -10,-4.46 -10,-10 v -12 c 0,-5.54 4.46,-10 10,-10 z" />
  <path
     id="rect23"
     class="terminal"
     style="fill:#ff4d4d;stroke:#330000"
     d="m 269,175 h 70 c 5.54,0 10,4.46 10,10 v 12 c 0,5.54 -4.46,10 -10,10 h -70 c -5.54,0 -10,-4.46 -10,-10 v -12 c 0,-5.54 4.46,-10 10,-10 z" />
  <path
     d="m 273.312,187.566 q 1.666,0 2.674,1.05 1.022,1.05 1.022,2.772 0,1.736 -1.022,2.786 -1.008,1.05 -2.702,1.05 -1.694,0 -2.716,-1.05 -1.022,-1.05 -1.022,-2.786 0,-1.722 1.036,-2.772 1.036,-1.05 2.73,-1.05 z m -0.056,1.512 q -0.798,0 -1.26,0.616 -0.462,0.616 -0.462,1.694 0,1.106 0.462,1.722 0.462,0.616 1.288,0.616 0.826,0 1.274,-0.616 0.462,-0.63 0.462,-1.736 0,-1.078 -0.476,-1.68 -0.462,-0.616 -1.288,-0.616 z M 285.114,195 h -2.016 v -4.214 q 0,-0.77 -0.252,-1.162 -0.252,-0.406 -0.98,-0.406 -1.568,0 -1.568,1.904 V 195 h -1.974 v -7.224 h 1.89 v 1.008 q 0.896,-1.204 2.394,-1.204 1.162,0 1.834,0.672 0.672,0.672 0.672,1.918 z m 12.278,-2.786 q -0.182,1.4 -1.106,2.184 -0.91,0.784 -2.352,0.784 -1.666,0 -2.674,-1.022 -1.008,-1.022 -1.008,-2.716 0,-1.75 1.008,-2.814 1.022,-1.064 2.702,-1.064 1.442,0 2.352,0.742 0.91,0.728 1.036,1.988 h -1.946 q -0.224,-1.246 -1.428,-1.246 -0.812,0 -1.274,0.63 -0.448,0.616 -0.448,1.722 0,1.078 0.434,1.68 0.448,0.588 1.246,0.588 1.302,0 1.54,-1.456 z m 4.704,-4.648 q 1.666,0 2.674,1.05 1.022,1.05 1.022,2.772 0,1.736 -1.022,2.786 -1.008,1.05 -2.702,1.05 -1.694,0 -2.716,-1.05 -1.022,-1.05 -1.022,-2.786 0,-1.722 1.036,-2.772 1.036,-1.05 2.73,-1.05 z m -0.056,1.512 q -0.798,0 -1.26,0.616 -0.462,0.616 -0.462,1.694 0,1.106 0.462,1.722 0.462,0.616 1.288,0.616 0.826,0 1.274,-0.616 0.462,-0.63 0.462,-1.736 0,-1.078 -0.476,-1.68 -0.462,-0.616 -1.288,-0.616 z M 313.898,195 h -2.016 v -4.214 q 0,-0.77 -0.252,-1.162 -0.252,-0.406 -0.98,-0.406 -1.568,0 -1.568,1.904 V 195 h -1.974 v -7.224 h 1.89 v 1.008 q 0.896,-1.204 2.394,-1.204 1.162,0 1.834,0.672 0.672,0.672 0.672,1.918 z m 5.432,-9.968 v 1.456 q -0.616,-0.028 -0.658,-0.028 -0.532,0 -0.714,0.154 -0.168,0.14 -0.168,0.588 v 0.574 h 1.414 v 1.344 h -1.4 V 195 h -1.988 v -5.88 h -1.176 v -1.344 h 1.176 v -0.378 q 0,-1.274 0.574,-1.834 0.574,-0.574 1.904,-0.574 0.154,0 0.322,0.014 0.182,0 0.392,0.014 0.21,0.014 0.322,0.014 z m 2.77201,0 V 195 h -1.988 v -9.968 z m 3.61199,0 v 1.68 h -1.988 v -1.68 z m 0,2.744 V 195 h -1.988 v -7.224 z m 8.45599,4.438 q -0.182,1.4 -1.106,2.184 -0.91,0.784 -2.352,0.784 -1.666,0 -2.674,-1.022 -1.008,-1.022 -1.008,-2.716 0,-1.75 1.008,-2.814 1.022,-1.064 2.702,-1.064 1.442,0 2.352,0.742 0.91,0.728 1.036,1.988 h -1.946 q -0.224,-1.246 -1.428,-1.246 -0.812,0 -1.274,0.63 -0.448,0.616 -0.448,1.722 0,1.078 0.434,1.68 0.448,0.588 1.246,0.588 1.302,0 1.54,-1.456 z m 5.12399,-4.438 v 1.344 h -1.47 v 3.402 q 0,0.322 0.014,0.476 0.014,0.14 0.098,0.294 0.084,0.154 0.252,0.21 0.182,0.042 0.504,0.042 0.364,0 0.602,-0.028 v 1.512 q -0.728,0.056 -1.204,0.056 -1.302,0 -1.778,-0.448 -0.462,-0.462 -0.462,-1.764 v -3.752 h -1.204 v -1.344 h 1.204 v -2.184 h 1.974 v 2.184 z"
     id="text23"
     class="terminal"
     style="font-weight:bold;font-size:14px;font-family:HelveticaNeueCyr, Sans-serif;fill:#140000"
     aria-label="on conflict" />
  <path
     id="rect24"
     style="fill:#330000;stroke:#330000"
     d="m 381,177 h 16 c 5.54,0 10,4.46 10,10 v 12 c 0,5.54 -4.46,10 -10,10 h -16 c -5.54,0 -10,-4.46 -10,-10 v -12 c 0,-5.54 4.46,-10 10,-10 z" />
  <path
     id="rect25"
     class="terminal"
     style="fill:#ff4d4d;stroke:#330000"
     d="m 379,175 h 16 c 5.54,0 10,4.46 10,10 v 12 c 0,5.54 -4.46,10 -10,10 h -16 c -5.54,0 -10,-4.46 -10,-10 v -12 c 0,-5.54 4.46,-10 10,-10 z" />
  <path
     d="m 386.798,195 h -1.876 v -0.924 q -0.714,1.12 -2.184,1.12 -1.498,0 -2.394,-1.036 -0.882,-1.05 -0.882,-2.8 0,-1.708 0.854,-2.744 0.868,-1.036 2.31,-1.036 0.672,0 1.26,0.28 0.602,0.28 0.938,0.812 v -3.64 h 1.974 z m -1.904,-3.626 q 0,-1.05 -0.462,-1.638 -0.448,-0.588 -1.26,-0.588 -0.812,0 -1.26,0.588 -0.448,0.588 -0.448,1.624 0,1.05 0.448,1.652 0.462,0.588 1.26,0.588 0.826,0 1.274,-0.574 0.448,-0.588 0.448,-1.652 z m 6.972,-3.808 q 1.666,0 2.674,1.05 1.022,1.05 1.022,2.772 0,1.736 -1.022,2.786 -1.008,1.05 -2.702,1.05 -1.694,0 -2.716,-1.05 -1.022,-1.05 -1.022,-2.786 0,-1.722 1.036,-2.772 1.036,-1.05 2.73,-1.05 z m -0.056,1.512 q -0.798,0 -1.26,0.616 -0.462,0.616 -0.462,1.694 0,1.106 0.462,1.722 0.462,0.616 1.288,0.616 0.826,0 1.274,-0.616 0.462,-0.63 0.462,-1.736 0,-1.078 -0.476,-1.68 -0.462,-0.616 -1.288,-0.616 z"
     id="text25"
     class="terminal"
     style="font-weight:bold;font-size:14px;font-family:HelveticaNeueCyr, Sans-serif;fill:#140000"
     aria-label="do" />
  <path
     id="rect26"
     style="fill:#330000;stroke:#330000"
     d="m 457,177 h 52 c 5.54,0 10,4.46 10,10 v 12 c 0,5.54 -4.46,10 -10,10 h -52 c -5.54,0 -10,-4.46 -10,-10 v -12 c 0,-5.54 4.46,-10 10,-10 z" />
  <path
     id="rect27"
     class="terminal"
     style="fill:#ff4d4d;stroke:#330000"
     d="m 455,175 h 52 c 5.54,0 10,4.46 10,10 v 12 c 0,5.54 -4.46,10 -10,10 h -52 c -5.54,0 -10,-4.46 -10,-10 v -12 c 0,-5.54 4.46,-10 10,-10 z" />
  <path
     d="m 462.56,195 h -2.016 v -4.214 q 0,-0.77 -0.252,-1.162 -0.252,-0.406 -0.98,-0.406 -1.568,0 -1.568,1.904 V 195 h -1.974 v -7.224 h 1.89 v 1.008 q 0.896,-1.204 2.394,-1.204 1.162,0 1.834,0.672 0.672,0.672 0.672,1.918 z m 5.05401,-7.434 q 1.666,0 2.674,1.05 1.022,1.05 1.022,2.772 0,1.736 -1.022,2.786 -1.008,1.05 -2.702,1.05 -1.694,0 -2.716,-1.05 -1.022,-1.05 -1.022,-2.786 0,-1.722 1.036,-2.772 1.036,-1.05 2.73,-1.05 z m -0.056,1.512 q -0.798,0 -1.26,0.616 -0.462,0.616 -0.462,1.694 0,1.106 0.462,1.722 0.462,0.616 1.288,0.616 0.826,0 1.274,-0.616 0.462,-0.63 0.462,-1.736 0,-1.078 -0.476,-1.68 -0.462,-0.616 -1.288,-0.616 z m 9.03,-1.302 v 1.344 h -1.47 v 3.402 q 0,0.322 0.014,0.476 0.014,0.14 0.098,0.294 0.084,0.154 0.252,0.21 0.182,0.042 0.504,0.042 0.364,0 0.602,-0.028 v 1.512 q -0.728,0.056 -1.204,0.056 -1.302,0 -1.778,-0.448 -0.462,-0.462 -0.462,-1.764 v -3.752 h -1.204 v -1.344 h 1.204 v -2.184 h 1.974 v 2.184 z m 2.92599,-2.744 v 3.71 q 0.854,-1.148 2.282,-1.148 2.534,0 2.534,2.674 V 195 h -1.988 v -4.256 q 0,-0.742 -0.266,-1.134 -0.266,-0.392 -1.008,-0.392 -0.896,0 -1.232,0.574 -0.322,0.574 -0.322,1.526 V 195 h -1.96 v -9.968 z m 8.372,0 v 1.68 h -1.988 v -1.68 z m 0,2.744 V 195 h -1.988 v -7.224 z m 8.37199,7.224 h -2.016 v -4.214 q 0,-0.77 -0.252,-1.162 -0.252,-0.406 -0.98,-0.406 -1.568,0 -1.568,1.904 V 195 h -1.974 v -7.224 h 1.89 v 1.008 q 0.896,-1.204 2.394,-1.204 1.162,0 1.834,0.672 0.672,0.672 0.672,1.918 z m 8.42801,-7.224 v 6.468 q 0,1.778 -0.882,2.604 -0.882,0.84 -2.674,0.84 -3.094,0 -3.388,-2.254 h 1.974 q 0.112,0.49 0.462,0.7 0.35,0.224 0.994,0.224 0.938,0 1.26,-0.462 0.322,-0.448 0.336,-1.414 l 0.014,-0.812 q -0.812,1.12 -2.212,1.12 -1.414,0 -2.254,-0.966 -0.826,-0.966 -0.826,-2.59 0,-1.652 0.868,-2.646 0.868,-1.008 2.296,-1.008 0.756,0 1.246,0.28 0.504,0.266 0.91,0.882 v -0.966 z m -2.338,1.89 q -0.448,-0.546 -1.232,-0.546 -0.784,0 -1.232,0.56 -0.434,0.546 -0.434,1.54 0,0.952 0.448,1.526 0.462,0.56 1.232,0.56 0.77,0 1.218,-0.574 0.448,-0.574 0.448,-1.554 0,-0.966 -0.448,-1.512 z"
     id="text27"
     class="terminal"
     style="font-weight:bold;font-size:14px;font-family:HelveticaNeueCyr, Sans-serif;fill:#140000"
     aria-label="nothing" />
  <path
     id="rect28"
     style="fill:#330000;stroke:#330000"
     d="m 457,221 h 50 c 5.54,0 10,4.46 10,10 v 12 c 0,5.54 -4.46,10 -10,10 h -50 c -5.54,0 -10,-4.46 -10,-10 v -12 c 0,-5.54 4.46,-10 10,-10 z" />
  <path
     id="rect29"
     class="terminal"
     style="fill:#ff4d4d;stroke:#330000"
     d="m 455,219 h 50 c 5.54,0 10,4.46 10,10 v 12 c 0,5.54 -4.46,10 -10,10 h -50 c -5.54,0 -10,-4.46 -10,-10 v -12 c 0,-5.54 4.46,-10 10,-10 z" />
  <path
     d="m 460.446,231.65 v 1.834 q -0.42,-0.084 -0.77,-0.084 -0.98,0 -1.442,0.63 -0.462,0.616 -0.462,1.666 V 239 h -1.988 v -7.224 h 1.89 v 1.33 q 0.714,-1.498 2.338,-1.498 0.14,0 0.434,0.042 z m 7.294,5.11 q -0.336,1.162 -1.246,1.806 -0.896,0.644 -2.142,0.644 -1.666,0 -2.688,-1.036 -1.008,-1.036 -1.008,-2.744 0,-1.68 1.022,-2.772 1.022,-1.092 2.604,-1.092 1.638,0 2.604,1.12 0.966,1.106 0.966,3.01 v 0.196 h -5.18 q 0.014,0.938 0.448,1.428 0.448,0.49 1.246,0.49 1.05,0 1.47,-1.05 z m -1.904,-2.128 q -0.07,-0.714 -0.462,-1.162 -0.392,-0.462 -1.092,-0.462 -0.658,0 -1.092,0.434 -0.434,0.434 -0.518,1.19 z m 5.026,-2.856 v 0.896 q 0.784,-1.092 2.24,-1.092 1.456,0 2.338,1.05 0.882,1.05 0.882,2.8 0,1.694 -0.868,2.73 -0.854,1.022 -2.268,1.022 -1.456,0 -2.226,-1.078 v 3.458 h -1.974 v -9.786 z m 1.75,1.4 q -0.812,0 -1.274,0.588 -0.448,0.588 -0.448,1.638 0,1.05 0.462,1.638 0.462,0.588 1.274,0.588 0.798,0 1.246,-0.588 0.462,-0.588 0.462,-1.61 0,-1.05 -0.462,-1.652 -0.462,-0.602 -1.26,-0.602 z m 6.972,-4.144 V 239 h -1.988 v -9.968 z m 8.28799,9.968 h -2.016 q -0.098,-0.28 -0.14,-0.7 -0.91,0.91 -2.338,0.91 -1.204,0 -1.89,-0.574 -0.686,-0.588 -0.686,-1.61 0,-0.462 0.112,-0.812 0.126,-0.35 0.392,-0.588 0.28,-0.238 0.518,-0.392 0.252,-0.154 0.686,-0.252 0.434,-0.098 0.7,-0.14 0.266,-0.056 0.742,-0.112 1.05,-0.14 1.4,-0.294 0.364,-0.154 0.364,-0.574 0,-0.966 -1.302,-0.966 -0.686,0 -1.008,0.252 -0.322,0.238 -0.42,0.854 h -1.862 q 0.168,-2.436 3.346,-2.436 3.15,0 3.15,2.352 v 3.122 q 0,1.372 0.252,1.96 z m -2.17,-3.514 q -0.35,0.21 -1.4,0.378 -0.882,0.14 -1.148,0.35 -0.308,0.252 -0.308,0.728 0,0.448 0.28,0.714 0.294,0.252 0.812,0.252 0.798,0 1.274,-0.42 0.49,-0.434 0.49,-1.19 z m 10.37399,0.728 q -0.182,1.4 -1.106,2.184 -0.91,0.784 -2.352,0.784 -1.666,0 -2.674,-1.022 -1.008,-1.022 -1.008,-2.716 0,-1.75 1.008,-2.814 1.022,-1.064 2.702,-1.064 1.442,0 2.352,0.742 0.91,0.728 1.036,1.988 h -1.946 q -0.224,-1.246 -1.428,-1.246 -0.812,0 -1.274,0.63 -0.448,0.616 -0.448,1.722 0,1.078 0.434,1.68 0.448,0.588 1.246,0.588 1.302,0 1.54,-1.456 z m 7.93799,0.546 q -0.336,1.162 -1.246,1.806 -0.896,0.644 -2.142,0.644 -1.666,0 -2.688,-1.036 -1.008,-1.036 -1.008,-2.744 0,-1.68 1.022,-2.772 1.022,-1.092 2.604,-1.092 1.638,0 2.604,1.12 0.966,1.106 0.966,3.01 v 0.196 h -5.18 q 0.014,0.938 0.448,1.428 0.448,0.49 1.246,0.49 1.05,0 1.47,-1.05 z m -1.904,-2.128 q -0.07,-0.714 -0.462,-1.162 -0.392,-0.462 -1.092,-0.462 -0.658,0 -1.092,0.434 -0.434,0.434 -0.518,1.19 z"
     id="text29"
     class="terminal"
     style="font-weight:bold;font-size:14px;font-family:HelveticaNeueCyr, Sans-serif;fill:#140000"
     aria-label="replace" />
  <path
     id="rect30"
     style="fill:#330000;stroke:#330000"
     d="m 457,265 h 20 c 5.54,0 10,4.46 10,10 v 12 c 0,5.54 -4.46,10 -10,10 h -20 c -5.54,0 -10,-4.46 -10,-10 v -12 c 0,-5.54 4.46,-10 10,-10 z" />
  <path
     id="rect31"
     class="terminal"
     style="fill:#ff4d4d;stroke:#330000"
     d="m 455,263 h 20 c 5.54,0 10,4.46 10,10 v 12 c 0,5.54 -4.46,10 -10,10 h -20 c -5.54,0 -10,-4.46 -10,-10 v -12 c 0,-5.54 4.46,-10 10,-10 z" />
  <path
     d="m 459.69,273.032 v 1.456 q -0.616,-0.028 -0.658,-0.028 -0.532,0 -0.714,0.154 -0.168,0.14 -0.168,0.588 v 0.574 h 1.414 v 1.344 h -1.4 V 283 h -1.988 v -5.88 H 455 v -1.344 h 1.176 v -0.378 q 0,-1.274 0.574,-1.834 0.574,-0.574 1.904,-0.574 0.154,0 0.322,0.014 0.182,0 0.392,0.014 0.21,0.014 0.322,0.014 z m 7.448,9.968 h -2.016 q -0.098,-0.28 -0.14,-0.7 -0.91,0.91 -2.338,0.91 -1.204,0 -1.89,-0.574 -0.686,-0.588 -0.686,-1.61 0,-0.462 0.112,-0.812 0.126,-0.35 0.392,-0.588 0.28,-0.238 0.518,-0.392 0.252,-0.154 0.686,-0.252 0.434,-0.098 0.7,-0.14 0.266,-0.056 0.742,-0.112 1.05,-0.14 1.4,-0.294 0.364,-0.154 0.364,-0.574 0,-0.966 -1.302,-0.966 -0.686,0 -1.008,0.252 -0.322,0.238 -0.42,0.854 h -1.862 q 0.168,-2.436 3.346,-2.436 3.15,0 3.15,2.352 v 3.122 q 0,1.372 0.252,1.96 z m -2.17,-3.514 q -0.35,0.21 -1.4,0.378 -0.882,0.14 -1.148,0.35 -0.308,0.252 -0.308,0.728 0,0.448 0.28,0.714 0.294,0.252 0.812,0.252 0.798,0 1.274,-0.42 0.49,-0.434 0.49,-1.19 z m 5.52999,-6.454 v 1.68 h -1.988 v -1.68 z m 0,2.744 V 283 h -1.988 v -7.224 z m 3.612,-2.744 V 283 h -1.988 v -9.968 z"
     id="text31"
     class="terminal"
     style="font-weight:bold;font-size:14px;font-family:HelveticaNeueCyr, Sans-serif;fill:#140000"
     aria-label="fail" />
  <a
     xlink:href="#option"
     xlink:title="Option"
     id="a33">
    <path
       id="rect32"
       style="fill:#330000;stroke:#330000"
       d="m 599,177 h 62 v 32 h -62 z" />
    <path
       id="rect33"
       class="nonterminal"
       style="fill:#ff9e9e;stroke:#330000"
       d="m 597,175 h 62 v 32 h -62 z" />
    <path
       d="m 612.306,184.794 q 2.268,0 3.528,1.428 1.26,1.414 1.26,3.71 0,2.31 -1.246,3.808 -1.246,1.498 -3.528,1.498 -1.162,0 -2.086,-0.42 -0.924,-0.42 -1.512,-1.162 -0.574,-0.742 -0.882,-1.694 -0.294,-0.952 -0.294,-2.058 0,-2.338 1.288,-3.724 1.302,-1.386 3.472,-1.386 z m 0,1.148 q -1.666,0 -2.562,1.176 -0.882,1.162 -0.882,2.884 0,1.876 0.938,2.996 0.952,1.106 2.534,1.106 1.568,0 2.506,-1.12 0.938,-1.12 0.938,-2.982 0,-1.848 -0.952,-2.954 -0.938,-1.106 -2.52,-1.106 z m 7.35,1.834 v 1.022 q 0.784,-1.246 2.436,-1.246 1.512,0 2.394,1.022 0.896,1.022 0.896,2.772 0,1.75 -0.882,2.8 -0.868,1.036 -2.352,1.036 -1.554,0 -2.422,-1.19 v 3.794 h -1.19 v -10.01 z m 2.254,0.77 q -1.036,0 -1.638,0.756 -0.588,0.742 -0.588,2.058 0,1.316 0.602,2.072 0.616,0.742 1.666,0.742 1.022,0 1.61,-0.756 0.588,-0.756 0.588,-2.058 0,-1.316 -0.602,-2.058 -0.588,-0.756 -1.638,-0.756 z m 8.02201,-0.77 v 0.98 h -1.442 v 4.214 q 0,0.35 0,0.462 0.014,0.112 0.084,0.308 0.07,0.182 0.238,0.238 0.168,0.056 0.476,0.056 0.266,0 0.644,-0.042 v 1.022 q -0.504,0.056 -0.91,0.056 -0.504,0 -0.84,-0.112 -0.336,-0.112 -0.518,-0.252 -0.168,-0.14 -0.252,-0.49 -0.084,-0.364 -0.098,-0.602 -0.014,-0.252 -0.014,-0.826 0,-0.126 0,-0.196 v -3.836 h -1.218 v -0.98 h 1.218 v -2.142 h 1.19 v 2.142 z m 2.57601,-2.744 v 1.456 h -1.204 v -1.456 z m 0,2.744 V 195 h -1.204 v -7.224 z m 2.422,0.826 q 0.952,-1.036 2.59,-1.036 1.638,0 2.548,0.994 0.91,0.994 0.91,2.786 0,1.834 -0.91,2.856 -0.91,1.022 -2.562,1.022 -1.652,0 -2.59,-1.008 -0.938,-1.008 -0.938,-2.8 0,-1.778 0.952,-2.814 z m 4.214,0.728 q -0.602,-0.77 -1.652,-0.77 -1.05,0 -1.666,0.77 -0.616,0.77 -0.616,2.058 0,1.33 0.602,2.086 0.616,0.742 1.708,0.742 1.05,0 1.638,-0.756 0.602,-0.756 0.602,-2.086 0,-1.288 -0.616,-2.044 z m 4.36799,-1.554 v 1.12 q 0.896,-1.316 2.464,-1.316 1.274,0 1.834,0.672 0.574,0.658 0.574,1.946 V 195 h -1.19 v -4.256 q 0,-0.532 -0.042,-0.826 -0.028,-0.308 -0.168,-0.644 -0.14,-0.35 -0.476,-0.504 -0.336,-0.154 -0.868,-0.154 -2.058,0 -2.058,2.604 V 195 h -1.19 v -7.224 z"
       id="text33"
       class="nonterminal"
       style="font-size:14px;font-family:HelveticaNeueCyr, Sans-serif;fill:#1a0000"
       aria-label="Option" />
  </a>
  <path
     class="line"
     d="m17 61 h2 m0 0 h10 m70 0 h10 m0 0 h10 m56 0 h10 m0 0 h10 m52 0 h10 m20 0 h10 m26 0 h10 m20 0 h10 m56 0 h10 m-96 0 l20 0 m-1 0 q-9 0 -9 -10 l0 -24 q0 -10 10 -10 m76 44 l20 0 m-20 0 q10 0 10 -10 l0 -24 q0 -10 -10 -10 m-76 0 h10 m24 0 h10 m0 0 h32 m20 44 h10 m26 0 h10 m-228 0 h20 m208 0 h20 m-248 0 q10 0 10 10 m228 0 q0 -10 10 -10 m-238 10 v14 m228 0 v-14 m-228 14 q0 10 10 10 m208 0 q10 0 10 -10 m-218 10 h10 m0 0 h198 m40 -34 h10 m68 0 h10 m0 0 h10 m42 0 h10 m-170 0 h20 m150 0 h20 m-190 0 q10 0 10 10 m170 0 q0 -10 10 -10 m-180 10 v24 m170 0 v-24 m-170 24 q0 10 10 10 m150 0 q10 0 10 -10 m-160 10 h10 m66 0 h10 m0 0 h64 m22 -44 l2 0 m2 0 l2 0 m2 0 l2 0 m-490 98 l2 0 m2 0 l2 0 m2 0 l2 0 m22 0 h10 m0 0 h288 m-318 0 h20 m298 0 h20 m-338 0 q10 0 10 10 m318 0 q0 -10 10 -10 m-328 10 v12 m318 0 v-12 m-318 12 q0 10 10 10 m298 0 q10 0 10 -10 m-308 10 h10 m90 0 h10 m0 0 h10 m36 0 h10 m20 0 h10 m72 0 h10 m-112 0 h20 m92 0 h20 m-132 0 q10 0 10 10 m112 0 q0 -10 10 -10 m-122 10 v24 m112 0 v-24 m-112 24 q0 10 10 10 m92 0 q10 0 10 -10 m-102 10 h10 m70 0 h10 m0 0 h2 m-102 -10 v20 m112 0 v-20 m-112 20 v24 m112 0 v-24 m-112 24 q0 10 10 10 m92 0 q10 0 10 -10 m-102 10 h10 m40 0 h10 m0 0 h32 m60 -120 h10 m0 0 h72 m-102 0 h20 m82 0 h20 m-122 0 q10 0 10 10 m102 0 q0 -10 10 -10 m-112 10 v12 m102 0 v-12 m-102 12 q0 10 10 10 m82 0 q10 0 10 -10 m-92 10 h10 m62 0 h10 m23 -32 h-3"
     id="path33" />
  <path
     id="polygon33"
     style="fill:#330000;stroke:#330000"
     d="m 699,159 8,-4 v 8 z" />
  <path
     id="polygon34"
     style="fill:#330000;stroke:#330000"
     d="m 699,159 -8,-4 v 8 z" />
</svg>
