<?xml version="1.0" encoding="UTF-8" standalone="no"?>
<svg
   width="743.70959"
   height="488.31235"
   version="1.1"
   id="svg64"
   sodipodi:docname="SELECT.svg"
   inkscape:version="1.3 (0e150ed6c4, 2023-07-21)"
   xmlns:inkscape="http://www.inkscape.org/namespaces/inkscape"
   xmlns:sodipodi="http://sodipodi.sourceforge.net/DTD/sodipodi-0.dtd"
   xmlns:xlink="http://www.w3.org/1999/xlink"
   xmlns="http://www.w3.org/2000/svg"
   xmlns:svg="http://www.w3.org/2000/svg">
  <sodipodi:namedview
     id="namedview64"
     pagecolor="#ffffff"
     bordercolor="#666666"
     borderopacity="1.0"
     inkscape:showpageshadow="2"
     inkscape:pageopacity="0.0"
     inkscape:pagecheckerboard="0"
     inkscape:deskcolor="#d1d1d1"
     inkscape:zoom="2.5111247"
     inkscape:cx="350.24147"
     inkscape:cy="411.17034"
     inkscape:window-width="1439"
     inkscape:window-height="749"
     inkscape:window-x="116"
     inkscape:window-y="118"
     inkscape:window-maximized="0"
     inkscape:current-layer="svg64" />
  <defs
     id="defs1">
    <style
       type="text/css"
       id="style1">@namespace &quot;http://www.w3.org/2000/svg&quot;;.line { fill: none; stroke: #330000; stroke-width: 1; }&#10;.bold-line { stroke: #140000; shape-rendering: crispEdges; stroke-width: 2; }&#10;.thin-line { stroke: #1F0000; shape-rendering: crispEdges }&#10;.filled { fill: #330000; stroke: none; }&#10;text.terminal { font-family: HelveticaNeueCyr, Sans-serif;                            font-size: 14px;                            fill: #140000;                            font-weight: bold; }&#10;text.nonterminal { font-family: HelveticaNeueCyr, Sans-serif;                            font-size: 14px;                            fill: #1A0000;                            font-weight: normal; }&#10;text.regexp { font-family: HelveticaNeueCyr, Sans-serif;                            font-size: 14px;                            fill: #1F0000;                            font-weight: normal; }&#10;rect, circle, polygon { fill: #330000; stroke: #330000; }&#10;rect.terminal { fill: #FF4D4D; stroke: #330000; stroke-width: 1; }&#10;rect.nonterminal { fill: #FF9E9E; stroke: #330000; stroke-width: 1; }&#10;rect.text { fill: none; stroke: none; }&#10;polygon.regexp { fill: #FFC7C7; stroke: #330000; stroke-width: 1; }&#10;</style>
  </defs>
  <path
     id="polygon1"
     style="fill:#330000;stroke:#330000;stroke-width:0.899286"
     d="m 0.44964304,50.809663 v 7.194289 L 7.6439317,54.406808 Z" />
  <path
     id="polygon2"
     style="fill:#330000;stroke:#330000;stroke-width:0.899286"
     d="m 7.6439317,50.809663 v 7.194289 L 14.83822,54.406808 Z" />
  <path
     id="rect2"
     style="fill:#330000;stroke:#330000;stroke-width:0.899286"
     d="m 36.421087,41.816803 h 44.964306 c 4.982045,0 8.992861,4.010816 8.992861,8.992861 v 10.791433 c 0,4.982045 -4.010816,8.992861 -8.992861,8.992861 H 36.421087 c -4.982045,0 -8.992861,-4.010816 -8.992861,-8.992861 V 50.809664 c 0,-4.982045 4.010816,-8.992861 8.992861,-8.992861 z" />
  <path
     id="rect3"
     class="terminal"
     style="fill:#ff4d4d;stroke:#330000;stroke-width:0.899286"
     d="m 34.622515,40.01823 h 44.964306 c 4.982044,0 8.99286,4.010816 8.99286,8.992861 v 10.791434 c 0,4.982044 -4.010816,8.99286 -8.99286,8.99286 H 34.622515 c -4.982045,0 -8.992861,-4.010816 -8.992861,-8.99286 V 49.011091 c 0,-4.982045 4.010816,-8.992861 8.992861,-8.992861 z" />
  <path
     d="m 42.966513,51.003952 h -2.072 q -0.126,-1.484 -1.89,-1.484 -0.756,0 -1.19,0.308 -0.42,0.294 -0.42,0.826 0,0.182 0.056,0.322 0.056,0.14 0.21,0.266 0.154,0.112 0.308,0.196 0.154,0.07 0.448,0.168 0.308,0.084 0.546,0.154 0.252,0.07 0.7,0.182 0.448,0.112 0.784,0.21 1.47,0.42 2.184,1.05 0.728,0.63 0.728,1.806 0,0.854 -0.35,1.498 -0.35,0.63 -0.952,1.008 -0.588,0.364 -1.302,0.532 -0.7,0.182 -1.498,0.182 -2.03,0 -3.178,-0.924 -1.134,-0.938 -1.148,-2.632 h 2.17 q 0.056,1.876 2.254,1.876 0.854,0 1.344,-0.35 0.504,-0.364 0.504,-0.98 0,-0.518 -0.462,-0.756 -0.448,-0.238 -1.904,-0.658 -0.238,-0.056 -0.364,-0.098 -0.504,-0.14 -0.7,-0.196 -0.196,-0.07 -0.63,-0.224 -0.42,-0.154 -0.616,-0.28 -0.196,-0.126 -0.49,-0.35 -0.28,-0.224 -0.406,-0.462 -0.126,-0.252 -0.238,-0.602 -0.098,-0.364 -0.098,-0.784 0,-1.358 1.05,-2.17 1.05,-0.812 2.786,-0.812 1.68,0 2.744,0.798 1.064,0.784 1.092,2.38 z m 9.184002,-2.968 v 1.792 h -5.306 v 2.17 h 4.872 v 1.722 h -4.872 v 2.45 h 5.404 v 1.834 h -7.574 v -9.968 z m 8.65201,8.092 v 1.876 h -7.056 v -9.968 h 2.184 v 8.092 z m 8.722006,-8.092 v 1.792 h -5.306 v 2.17 h 4.872 v 1.722 h -4.872 v 2.45 h 5.404 v 1.834 h -7.574 v -9.968 z m 10.50001,6.118 q -0.168,1.876 -1.316,2.982 -1.148,1.106 -3.15,1.106 -2.17,0 -3.5,-1.428 -1.316,-1.442 -1.316,-3.808 0,-2.24 1.33,-3.724 1.344,-1.484 3.57,-1.484 1.778,0 2.982,1.008 1.204,1.008 1.33,2.562 h -2.142 q -0.168,-0.826 -0.756,-1.274 -0.574,-0.462 -1.456,-0.462 -0.91,0 -1.54,0.518 -0.616,0.504 -0.868,1.246 -0.252,0.742 -0.252,1.624 0,1.54 0.714,2.464 0.714,0.91 1.918,0.91 2.002,0 2.282,-2.24 z m 8.875989,-6.118 v 1.862 h -2.996 v 8.106 h -2.198 v -8.106 h -2.996 v -1.862 z"
     id="text3"
     style="font-weight:bold;font-size:14px;font-family:HelveticaNeueCyr, Sans-serif;fill:#140000;stroke-width:0.899286"
     class="terminal"
     aria-label="SELECT" />
  <a
     xlink:href="#column"
     xlink:title="column"
     id="a5"
     transform="matrix(0.89928608,0,0,0.89928608,-0.44964304,-0.44964307)">
    <path
       id="rect4"
       style="fill:#330000;stroke:#330000"
       d="m 141,47 h 64 v 32 h -64 z" />
    <path
       id="rect5"
       class="nonterminal"
       style="fill:#ff9e9e;stroke:#330000"
       d="m 139,45 h 64 v 32 h -64 z" />
    <path
       d="m 156.112,62.368 q -0.154,1.302 -0.994,2.072 -0.826,0.77 -2.156,0.77 -1.638,0 -2.534,-1.008 -0.896,-1.022 -0.896,-2.716 0,-1.806 0.938,-2.856 0.938,-1.064 2.534,-1.064 1.33,0 2.128,0.672 0.798,0.658 0.938,1.89 h -1.232 q -0.322,-1.568 -1.82,-1.568 -1.036,0 -1.638,0.77 -0.602,0.756 -0.602,2.058 0,1.316 0.574,2.072 0.574,0.756 1.582,0.756 0.812,0 1.316,-0.476 0.518,-0.476 0.658,-1.372 z m 1.87601,-3.766 q 0.952,-1.036 2.59,-1.036 1.638,0 2.548,0.994 0.91,0.994 0.91,2.786 0,1.834 -0.91,2.856 -0.91,1.022 -2.562,1.022 -1.652,0 -2.59,-1.008 -0.938,-1.008 -0.938,-2.8 0,-1.778 0.952,-2.814 z m 4.214,0.728 q -0.602,-0.77 -1.652,-0.77 -1.05,0 -1.666,0.77 -0.616,0.77 -0.616,2.058 0,1.33 0.602,2.086 0.616,0.742 1.708,0.742 1.05,0 1.638,-0.756 0.602,-0.756 0.602,-2.086 0,-1.288 -0.616,-2.044 z M 166.71,55.032 V 65 h -1.204 v -9.968 z m 7.84,2.744 V 65 h -1.106 v -1.134 q -0.924,1.33 -2.492,1.33 -1.148,0 -1.778,-0.63 -0.63,-0.63 -0.63,-1.82 v -4.97 h 1.19 v 4.648 q 0,0.854 0.322,1.302 0.336,0.434 1.19,0.434 2.114,0 2.114,-2.604 v -3.78 z m 2.912,0 v 1.05 q 0.476,-0.644 1.022,-0.938 0.546,-0.294 1.33,-0.294 1.484,0 2.002,1.246 0.938,-1.26 2.394,-1.26 1.12,0 1.694,0.63 0.588,0.616 0.588,1.736 V 65 h -1.19 v -4.55 q 0,-0.896 -0.28,-1.344 -0.28,-0.462 -1.162,-0.462 -1.848,0 -1.848,2.254 V 65 h -1.19 v -4.634 q 0,-0.826 -0.28,-1.26 -0.266,-0.448 -1.05,-0.448 -1.106,0 -1.54,0.686 -0.42,0.672 -0.42,1.834 V 65 h -1.19 v -7.224 z m 11.94201,0 v 1.12 q 0.896,-1.316 2.464,-1.316 1.274,0 1.834,0.672 0.574,0.658 0.574,1.946 V 65 h -1.19 v -4.256 q 0,-0.532 -0.042,-0.826 -0.028,-0.308 -0.168,-0.644 -0.14,-0.35 -0.476,-0.504 -0.336,-0.154 -0.868,-0.154 -2.058,0 -2.058,2.604 V 65 h -1.19 v -7.224 z"
       id="text5"
       class="nonterminal"
       style="font-size:14px;font-family:HelveticaNeueCyr, Sans-serif;fill:#1a0000"
       aria-label="column" />
  </a>
  <path
     id="rect6"
     style="fill:#330000;stroke:#330000;stroke-width:0.899286"
     d="m 135.34255,2.2482152 h 3.59715 c 4.98204,0 8.99286,4.0108159 8.99286,8.9928608 v 10.791433 c 0,4.982045 -4.01082,8.992861 -8.99286,8.992861 h -3.59715 c -4.98204,0 -8.99286,-4.010816 -8.99286,-8.992861 V 11.241076 c 0,-4.9820449 4.01082,-8.9928608 8.99286,-8.9928608 z" />
  <path
     id="rect7"
     class="terminal"
     style="fill:#ff4d4d;stroke:#330000;stroke-width:0.899286"
     d="m 133.54398,0.44964299 h 3.59714 c 4.98205,0 8.99286,4.01081591 8.99286,8.99286081 V 20.233937 c 0,4.982045 -4.01081,8.992861 -8.99286,8.992861 h -3.59714 c -4.98205,0 -8.99286,-4.010816 -8.99286,-8.992861 V 9.4425038 c 0,-4.9820449 4.01081,-8.99286081 8.99286,-8.99286081 z" />
  <path
     d="m 136.59598,16.251364 v 1.778 q 0,1.218 -0.546,1.876 -0.532,0.672 -1.666,0.854 v -0.98 q 0.938,-0.28 0.994,-1.344 h -0.994 v -2.184 z"
     id="text7"
     style="font-weight:bold;font-size:14px;font-family:HelveticaNeueCyr, Sans-serif;fill:#140000;stroke-width:0.899286"
     class="terminal"
     aria-label="," />
  <path
     id="rect8"
     style="fill:#330000;stroke:#330000;stroke-width:0.899286"
     d="m 228.8683,41.816803 h 35.97145 c 4.98204,0 8.99286,4.010816 8.99286,8.992861 v 10.791433 c 0,4.982045 -4.01082,8.992861 -8.99286,8.992861 H 228.8683 c -4.98204,0 -8.99286,-4.010816 -8.99286,-8.992861 V 50.809664 c 0,-4.982045 4.01082,-8.992861 8.99286,-8.992861 z" />
  <path
     id="rect9"
     class="terminal"
     style="fill:#ff4d4d;stroke:#330000;stroke-width:0.899286"
     d="m 227.06973,40.01823 h 35.97145 c 4.98204,0 8.99286,4.010816 8.99286,8.992861 v 10.791434 c 0,4.982044 -4.01082,8.99286 -8.99286,8.99286 h -35.97145 c -4.98204,0 -8.99286,-4.010816 -8.99286,-8.99286 V 49.011091 c 0,-4.982045 4.01082,-8.992861 8.99286,-8.992861 z" />
  <path
     d="m 235.06373,48.035952 v 1.834 h -4.844 v 2.31 h 4.214 v 1.736 h -4.214 v 4.088 h -2.184 v -9.968 z m 1.35801,0 h 4.956 q 1.484,0 2.422,0.7 0.938,0.7 0.938,2.128 0,0.868 -0.42,1.526 -0.42,0.644 -1.162,0.924 1.288,0.266 1.47,2.324 0,0.07 0.028,0.434 0.028,0.364 0.056,0.588 0.028,0.21 0.07,0.518 0.042,0.308 0.126,0.518 0.084,0.21 0.196,0.308 h -2.268 q -0.112,-0.224 -0.168,-0.56 -0.056,-0.35 -0.098,-0.882 -0.042,-0.546 -0.042,-0.602 -0.112,-1.05 -0.532,-1.456 -0.406,-0.406 -1.456,-0.406 h -1.946 v 3.906 h -2.17 z m 2.17,1.722 v 2.758 h 2.072 q 0.91,0 1.414,-0.28 0.518,-0.294 0.518,-1.134 0,-0.784 -0.504,-1.064 -0.49,-0.28 -1.33,-0.28 z m 12.362,-1.96 q 2.184,0 3.528,1.456 1.358,1.442 1.358,3.78 0,2.338 -1.358,3.78 -1.344,1.428 -3.542,1.428 -2.212,0 -3.57,-1.428 -1.358,-1.442 -1.358,-3.78 0,-2.366 1.344,-3.794 1.358,-1.442 3.598,-1.442 z m -0.028,1.792 q -1.232,0 -1.974,0.924 -0.728,0.924 -0.728,2.478 0,1.61 0.728,2.52 0.728,0.91 2.002,0.924 1.246,0 1.96,-0.924 0.714,-0.924 0.714,-2.52 0,-1.568 -0.728,-2.478 -0.728,-0.924 -1.974,-0.924 z m 6.412,8.414 v -9.968 h 3.122 l 2.324,6.846 2.268,-6.846 h 3.052 v 9.968 h -2.058 v -7.084 l -2.45,7.084 h -1.694 l -2.478,-7.014 v 7.014 z"
     id="text9"
     style="font-weight:bold;font-size:14px;font-family:HelveticaNeueCyr, Sans-serif;fill:#140000;stroke-width:0.899286"
     class="terminal"
     aria-label="FROM" />
  <a
     xlink:href="#table"
     xlink:title="table"
     id="a11"
     transform="matrix(0.89928608,0,0,0.89928608,-0.44964304,-0.44964307)">
    <path
       id="rect10"
       style="fill:#330000;stroke:#330000"
       d="m 345,47 h 52 v 32 h -52 z" />
    <path
       id="rect11"
       class="nonterminal"
       style="fill:#ff9e9e;stroke:#330000"
       d="m 343,45 h 52 v 32 h -52 z" />
    <path
       d="m 356.99,57.776 v 0.98 h -1.442 v 4.214 q 0,0.35 0,0.462 0.014,0.112 0.084,0.308 0.07,0.182 0.238,0.238 0.168,0.056 0.476,0.056 0.266,0 0.644,-0.042 v 1.022 q -0.504,0.056 -0.91,0.056 -0.504,0 -0.84,-0.112 -0.336,-0.112 -0.518,-0.252 -0.168,-0.14 -0.252,-0.49 -0.084,-0.364 -0.098,-0.602 -0.014,-0.252 -0.014,-0.826 0,-0.126 0,-0.196 v -3.836 h -1.218 v -0.98 h 1.218 v -2.142 h 1.19 v 2.142 z m 7.71401,6.272 v 0.924 q -0.364,0.14 -0.812,0.14 -1.022,0 -1.05,-1.064 -1.022,1.148 -2.618,1.148 -1.064,0 -1.694,-0.546 -0.616,-0.546 -0.616,-1.498 0,-1.932 2.562,-2.254 1.512,-0.182 1.75,-0.266 0.504,-0.168 0.546,-0.7 0.014,-0.084 0.014,-0.182 0,-1.19 -1.638,-1.19 -0.84,0 -1.274,0.35 -0.434,0.336 -0.518,1.12 h -1.162 q 0.028,-1.162 0.826,-1.806 0.798,-0.644 2.198,-0.644 1.526,0 2.268,0.7 0.238,0.224 0.35,0.588 0.112,0.364 0.126,0.602 0.014,0.224 0.014,0.686 0,0.546 -0.028,1.624 -0.028,1.064 -0.028,1.596 0,0.392 0.098,0.56 0.112,0.154 0.392,0.154 0.112,0 0.294,-0.042 z m -1.918,-2.8 q -0.126,0.098 -0.266,0.168 -0.14,0.07 -0.364,0.112 -0.21,0.042 -0.294,0.07 -0.07,0.014 -0.364,0.056 -0.294,0.028 -0.308,0.028 -0.434,0.056 -0.574,0.084 -0.126,0.014 -0.504,0.112 -0.364,0.098 -0.518,0.224 -0.154,0.126 -0.308,0.378 -0.14,0.238 -0.14,0.574 0,0.56 0.378,0.882 0.392,0.322 1.064,0.322 0.854,0 1.526,-0.504 0.672,-0.504 0.672,-1.19 z m 4.21401,-6.216 v 3.738 q 0.784,-1.19 2.394,-1.19 1.484,0 2.366,1.036 0.896,1.022 0.896,2.744 0,1.75 -0.91,2.8 -0.91,1.05 -2.422,1.05 -1.722,0 -2.394,-1.26 V 65 h -1.12 v -9.968 z m 2.212,3.556 q -1.148,0 -1.708,0.826 -0.546,0.826 -0.546,2.03 0,1.274 0.602,2.03 0.616,0.742 1.652,0.742 0.994,0 1.596,-0.77 0.616,-0.784 0.616,-2.072 0,-1.274 -0.602,-2.03 -0.602,-0.756 -1.61,-0.756 z m 6.174,-3.556 V 65 h -1.204 v -9.968 z m 8.022,7.686 q -0.546,2.52 -3.15,2.52 -1.596,0 -2.506,-0.994 -0.896,-0.994 -0.896,-2.758 0,-1.75 0.924,-2.828 0.938,-1.092 2.436,-1.092 1.666,0 2.464,1.134 0.812,1.12 0.812,2.842 v 0.168 h -5.432 l -0.014,0.084 q 0,1.148 0.602,1.806 0.602,0.658 1.652,0.658 0.784,0 1.232,-0.364 0.462,-0.364 0.714,-1.176 z m -1.148,-1.974 q -0.084,-1.036 -0.63,-1.61 -0.546,-0.588 -1.442,-0.588 -0.868,0 -1.442,0.588 -0.574,0.588 -0.686,1.61 z"
       id="text11"
       class="nonterminal"
       style="font-size:14px;font-family:HelveticaNeueCyr, Sans-serif;fill:#1a0000"
       aria-label="table" />
  </a>
  <path
     id="rect12"
     style="fill:#330000;stroke:#330000;stroke-width:0.899286"
     d="m 401.53122,70.593956 h 16.18715 c 4.98205,0 8.99286,4.010816 8.99286,8.992861 V 90.37825 c 0,4.982045 -4.01081,8.992861 -8.99286,8.992861 h -16.18715 c -4.98204,0 -8.99286,-4.010816 -8.99286,-8.992861 V 79.586817 c 0,-4.982045 4.01082,-8.992861 8.99286,-8.992861 z" />
  <path
     id="rect13"
     class="terminal"
     style="fill:#ff4d4d;stroke:#330000;stroke-width:0.899286"
     d="m 399.73267,68.795387 h 16.18715 c 4.98204,0 8.99286,4.010816 8.99286,8.992861 v 10.791433 c 0,4.982045 -4.01082,8.992861 -8.99286,8.992861 h -16.18715 c -4.98205,0 -8.99286,-4.010816 -8.99286,-8.992861 V 77.788248 c 0,-4.982045 4.01081,-8.992861 8.99286,-8.992861 z" />
  <path
     d="m 405.65467,76.799105 3.794,9.982 h -2.296 l -0.784,-2.226 h -3.71 l -0.812,2.226 h -2.24 l 3.794,-9.982 z m 0.182,6.16 -1.316,-3.71 -1.33,3.71 z m 11.82999,-3.178 h -2.072 q -0.126,-1.484 -1.89,-1.484 -0.756,0 -1.19,0.308 -0.42,0.294 -0.42,0.826 0,0.182 0.056,0.322 0.056,0.14 0.21,0.266 0.154,0.112 0.308,0.196 0.154,0.07 0.448,0.168 0.308,0.084 0.546,0.154 0.252,0.07 0.7,0.182 0.448,0.112 0.784,0.21 1.47,0.42 2.184,1.05 0.728,0.63 0.728,1.806 0,0.854 -0.35,1.498 -0.35,0.63 -0.952,1.008 -0.588,0.364 -1.302,0.532 -0.7,0.182 -1.498,0.182 -2.03,0 -3.178,-0.924 -1.134,-0.938 -1.148,-2.632 h 2.17 q 0.056,1.876 2.254,1.876 0.854,0 1.344,-0.35 0.504,-0.364 0.504,-0.98 0,-0.518 -0.462,-0.756 -0.448,-0.238 -1.904,-0.658 -0.238,-0.056 -0.364,-0.098 -0.504,-0.14 -0.7,-0.196 -0.196,-0.07 -0.63,-0.224 -0.42,-0.154 -0.616,-0.28 -0.196,-0.126 -0.49,-0.35 -0.28,-0.224 -0.406,-0.462 -0.126,-0.252 -0.238,-0.602 -0.098,-0.364 -0.098,-0.784 0,-1.358 1.05,-2.17 1.05,-0.812 2.786,-0.812 1.68,0 2.744,0.798 1.064,0.784 1.092,2.38 z"
     id="text13"
     style="font-weight:bold;font-size:14px;font-family:HelveticaNeueCyr, Sans-serif;fill:#140000;stroke-width:0.899286"
     class="terminal"
     aria-label="AS" />
  <a
     xlink:href="#name"
     xlink:title="name"
     id="a15"
     transform="matrix(0.89928608,0,0,0.89928608,-0.44964304,-0.44964307)">
    <path
       id="rect14"
       style="fill:#330000;stroke:#330000"
       d="m 495,79 h 56 v 32 h -56 z" />
    <path
       id="rect15"
       class="nonterminal"
       style="fill:#ff9e9e;stroke:#330000"
       d="m 493,77 h 56 v 32 h -56 z" />
    <path
       d="m 505.016,89.776 v 1.12 q 0.896,-1.316 2.464,-1.316 1.274,0 1.834,0.672 0.574,0.658 0.574,1.946 V 97 h -1.19 v -4.256 q 0,-0.532 -0.042,-0.826 -0.028,-0.308 -0.168,-0.644 -0.14,-0.35 -0.476,-0.504 -0.336,-0.154 -0.868,-0.154 -2.058,0 -2.058,2.604 V 97 h -1.19 v -7.224 z m 13.062,6.272 v 0.924 q -0.364,0.14 -0.812,0.14 -1.022,0 -1.05,-1.064 -1.022,1.148 -2.618,1.148 -1.064,0 -1.694,-0.546 -0.616,-0.546 -0.616,-1.498 0,-1.932 2.562,-2.254 1.512,-0.182 1.75,-0.266 0.504,-0.168 0.546,-0.7 0.014,-0.084 0.014,-0.182 0,-1.19 -1.638,-1.19 -0.84,0 -1.274,0.35 -0.434,0.336 -0.518,1.12 h -1.162 q 0.028,-1.162 0.826,-1.806 0.798,-0.644 2.198,-0.644 1.526,0 2.268,0.7 0.238,0.224 0.35,0.588 0.112,0.364 0.126,0.602 0.014,0.224 0.014,0.686 0,0.546 -0.028,1.624 -0.028,1.064 -0.028,1.596 0,0.392 0.098,0.56 0.112,0.154 0.392,0.154 0.112,0 0.294,-0.042 z m -1.918,-2.8 q -0.126,0.098 -0.266,0.168 -0.14,0.07 -0.364,0.112 -0.21,0.042 -0.294,0.07 -0.07,0.014 -0.364,0.056 -0.294,0.028 -0.308,0.028 -0.434,0.056 -0.574,0.084 -0.126,0.014 -0.504,0.112 -0.364,0.098 -0.518,0.224 -0.154,0.126 -0.308,0.378 -0.14,0.238 -0.14,0.574 0,0.56 0.378,0.882 0.392,0.322 1.064,0.322 0.854,0 1.526,-0.504 0.672,-0.504 0.672,-1.19 z m 4.15801,-3.472 v 1.05 q 0.476,-0.644 1.022,-0.938 0.546,-0.294 1.33,-0.294 1.484,0 2.002,1.246 0.938,-1.26 2.394,-1.26 1.12,0 1.694,0.63 0.588,0.616 0.588,1.736 V 97 h -1.19 v -4.55 q 0,-0.896 -0.28,-1.344 -0.28,-0.462 -1.162,-0.462 -1.848,0 -1.848,2.254 V 97 h -1.19 v -4.634 q 0,-0.826 -0.28,-1.26 -0.266,-0.448 -1.05,-0.448 -1.106,0 -1.54,0.686 -0.42,0.672 -0.42,1.834 V 97 h -1.19 v -7.224 z m 16.996,4.942 q -0.546,2.52 -3.15,2.52 -1.596,0 -2.506,-0.994 -0.896,-0.994 -0.896,-2.758 0,-1.75 0.924,-2.828 0.938,-1.092 2.436,-1.092 1.666,0 2.464,1.134 0.812,1.12 0.812,2.842 v 0.168 h -5.432 l -0.014,0.084 q 0,1.148 0.602,1.806 0.602,0.658 1.652,0.658 0.784,0 1.232,-0.364 0.462,-0.364 0.714,-1.176 z m -1.148,-1.974 q -0.084,-1.036 -0.63,-1.61 -0.546,-0.588 -1.442,-0.588 -0.868,0 -1.442,0.588 -0.574,0.588 -0.686,1.61 z"
       id="text15"
       class="nonterminal"
       style="font-size:14px;font-family:HelveticaNeueCyr, Sans-serif;fill:#1a0000"
       aria-label="name" />
  </a>
  <path
     id="rect16"
     style="fill:#330000;stroke:#330000;stroke-width:0.899286"
     d="m 318.79691,110.16254 h 5.39571 c 4.98205,0 8.99286,4.01081 8.99286,8.99286 v 10.79143 c 0,4.98205 -4.01081,8.99286 -8.99286,8.99286 h -5.39571 c -4.98205,0 -8.99286,-4.01081 -8.99286,-8.99286 V 119.1554 c 0,-4.98205 4.01081,-8.99286 8.99286,-8.99286 z" />
  <path
     id="rect17"
     class="terminal"
     style="fill:#ff4d4d;stroke:#330000;stroke-width:0.899286"
     d="m 316.99835,108.36398 h 5.39572 c 4.98204,0 8.99286,4.01082 8.99286,8.99286 v 10.79144 c 0,4.98204 -4.01082,8.99286 -8.99286,8.99286 h -5.39572 c -4.98204,0 -8.99286,-4.01082 -8.99286,-8.99286 v -10.79144 c 0,-4.98204 4.01082,-8.99286 8.99286,-8.99286 z" />
  <path
     d="m 321.22635,116.22769 q -0.812,1.624 -1.19,3.108 -0.364,1.484 -0.364,3.262 0,3.08 1.582,6.244 h -1.68 q -0.868,-1.316 -1.358,-2.954 -0.476,-1.638 -0.476,-3.248 0,-1.68 0.462,-3.388 0.476,-1.722 1.372,-3.024 z"
     id="text17"
     style="font-weight:bold;font-size:14px;font-family:HelveticaNeueCyr, Sans-serif;fill:#140000;stroke-width:0.899286"
     class="terminal"
     aria-label="(" />
  <a
     xlink:href="#select"
     xlink:title="SELECT"
     id="a19"
     transform="matrix(0.89928608,0,0,0.89928608,-0.44964304,-0.44964307)">
    <path
       id="rect18"
       style="fill:#330000;stroke:#330000"
       d="m 411,123 h 66 v 32 h -66 z" />
    <path
       id="rect19"
       class="nonterminal"
       style="fill:#ff9e9e;stroke:#330000"
       d="m 409,121 h 66 v 32 h -66 z" />
    <path
       d="m 424.93801,133.958 h -1.274 q -0.21,-2.03 -2.478,-2.03 -1.078,0 -1.666,0.434 -0.588,0.434 -0.588,1.218 0,0.28 0.084,0.49 0.084,0.21 0.28,0.378 0.21,0.154 0.392,0.266 0.182,0.112 0.574,0.224 0.392,0.112 0.63,0.168 0.238,0.042 0.742,0.154 0.616,0.126 1.022,0.238 0.406,0.098 0.966,0.336 0.56,0.238 0.882,0.532 0.336,0.28 0.574,0.756 0.252,0.476 0.252,1.078 0,1.05 -0.588,1.764 -0.588,0.7 -1.428,0.98 -0.84,0.28 -1.862,0.28 -1.876,0 -3.01,-0.882 -1.12,-0.896 -1.12,-2.632 h 1.274 q 0.042,1.274 0.854,1.862 0.812,0.574 2.114,0.574 1.022,0 1.75,-0.42 0.728,-0.434 0.728,-1.4 0,-0.448 -0.196,-0.756 -0.196,-0.322 -0.616,-0.518 -0.42,-0.21 -0.84,-0.336 -0.42,-0.126 -1.106,-0.28 -0.098,-0.014 -0.14,-0.028 -1.54,-0.35 -2.016,-0.56 -1.456,-0.63 -1.456,-2.17 0,-1.428 1.05,-2.128 1.064,-0.714 2.562,-0.714 1.638,0 2.618,0.784 0.98,0.784 1.036,2.338 z m 8.91801,-2.926 v 1.148 h -5.586 v 3.122 h 5.222 v 1.106 h -5.222 v 3.444 h 5.656 V 141 h -6.972 v -9.968 z m 8.274,8.82 V 141 h -6.608 v -9.968 h 1.316 v 8.82 z m 8.064,-8.82 v 1.148 h -5.586 v 3.122 h 5.222 v 1.106 h -5.222 v 3.444 h 5.656 V 141 h -6.972 v -9.968 z m 10.094,6.202 q -0.168,1.89 -1.316,2.954 -1.134,1.05 -2.996,1.05 -2.128,0 -3.374,-1.4 -1.246,-1.414 -1.246,-3.808 0,-2.24 1.246,-3.724 1.26,-1.498 3.472,-1.498 1.582,0 2.786,0.854 1.204,0.854 1.344,2.366 h -1.316 q -0.224,-0.98 -0.98,-1.526 -0.756,-0.56 -1.862,-0.56 -1.666,0 -2.52,1.176 -0.84,1.176 -0.84,2.898 0,1.904 0.896,2.996 0.896,1.092 2.45,1.092 1.274,0 2.03,-0.728 0.756,-0.742 0.91,-2.142 z m 8.582,-6.202 v 1.148 h -3.346 V 141 h -1.316 v -8.82 h -3.346 v -1.148 z"
       id="text19"
       class="nonterminal"
       style="font-size:14px;font-family:HelveticaNeueCyr, Sans-serif;fill:#1a0000"
       aria-label="SELECT" />
  </a>
  <a
     xlink:href="#values"
     xlink:title="VALUES"
     id="a21"
     transform="matrix(0.89928608,0,0,0.89928608,-0.44964304,-0.44964307)">
    <path
       id="rect20"
       style="fill:#330000;stroke:#330000"
       d="m 411,167 h 68 v 32 h -68 z" />
    <path
       id="rect21"
       class="nonterminal"
       style="fill:#ff9e9e;stroke:#330000"
       d="m 409,165 h 68 v 32 h -68 z" />
    <path
       d="m 416.74801,175.032 h 1.456 l 2.87,8.68 2.898,-8.68 h 1.386 l -3.556,9.968 h -1.512 z m 13.23001,0 3.892,9.968 h -1.47 l -1.106,-3.052 h -4.186 l -1.134,3.052 h -1.4 l 3.92,-9.968 z m 0.924,5.866 -1.694,-4.606 -1.722,4.606 z m 10.58401,2.954 V 185 h -6.608 v -9.968 h 1.316 v 8.82 z m 1.09199,-8.82 h 1.33 v 6.286 q 0,1.456 0.63,2.128 0.63,0.672 2.058,0.672 1.47,0 2.072,-0.686 0.616,-0.686 0.616,-2.114 v -6.286 h 1.33 v 5.936 q 0,2.184 -0.91,3.22 -0.91,1.022 -3.108,1.022 -2.128,0 -3.08,-0.994 -0.938,-1.008 -0.938,-3.108 z m 17.08001,0 v 1.148 h -5.586 v 3.122 h 5.222 v 1.106 h -5.222 v 3.444 h 5.656 V 185 h -6.972 v -9.968 z m 8.708,2.926 h -1.274 q -0.21,-2.03 -2.478,-2.03 -1.078,0 -1.666,0.434 -0.588,0.434 -0.588,1.218 0,0.28 0.084,0.49 0.084,0.21 0.28,0.378 0.21,0.154 0.392,0.266 0.182,0.112 0.574,0.224 0.392,0.112 0.63,0.168 0.238,0.042 0.742,0.154 0.616,0.126 1.022,0.238 0.406,0.098 0.966,0.336 0.56,0.238 0.882,0.532 0.336,0.28 0.574,0.756 0.252,0.476 0.252,1.078 0,1.05 -0.588,1.764 -0.588,0.7 -1.428,0.98 -0.84,0.28 -1.862,0.28 -1.876,0 -3.01,-0.882 -1.12,-0.896 -1.12,-2.632 h 1.274 q 0.042,1.274 0.854,1.862 0.812,0.574 2.114,0.574 1.022,0 1.75,-0.42 0.728,-0.434 0.728,-1.4 0,-0.448 -0.196,-0.756 -0.196,-0.322 -0.616,-0.518 -0.42,-0.21 -0.84,-0.336 -0.42,-0.126 -1.106,-0.28 -0.098,-0.014 -0.14,-0.028 -1.54,-0.35 -2.016,-0.56 -1.456,-0.63 -1.456,-2.17 0,-1.428 1.05,-2.128 1.064,-0.714 2.562,-0.714 1.638,0 2.618,0.784 0.98,0.784 1.036,2.338 z"
       id="text21"
       class="nonterminal"
       style="font-size:14px;font-family:HelveticaNeueCyr, Sans-serif;fill:#1a0000"
       aria-label="VALUES" />
  </a>
  <path
     id="rect22"
     style="fill:#330000;stroke:#330000;stroke-width:0.899286"
     d="m 475.27271,110.16254 h 5.39571 c 4.98205,0 8.99286,4.01081 8.99286,8.99286 v 10.79143 c 0,4.98205 -4.01081,8.99286 -8.99286,8.99286 h -5.39571 c -4.98205,0 -8.99286,-4.01081 -8.99286,-8.99286 V 119.1554 c 0,-4.98205 4.01081,-8.99286 8.99286,-8.99286 z" />
  <path
     id="rect23"
     class="terminal"
     style="fill:#ff4d4d;stroke:#330000;stroke-width:0.899286"
     d="m 473.47412,108.36398 h 5.39572 c 4.98204,0 8.99286,4.01082 8.99286,8.99286 v 10.79144 c 0,4.98204 -4.01082,8.99286 -8.99286,8.99286 h -5.39572 c -4.98204,0 -8.99286,-4.01082 -8.99286,-8.99286 v -10.79144 c 0,-4.98204 4.01082,-8.99286 8.99286,-8.99286 z" />
  <path
     d="m 473.41812,116.22769 h 1.652 q 1.862,2.856 1.862,6.23 0,1.582 -0.49,3.416 -0.49,1.834 -1.344,2.968 h -1.666 q 0.84,-1.708 1.19,-3.15 0.364,-1.456 0.364,-3.262 0,-3.388 -1.568,-6.202 z"
     id="text23"
     style="font-weight:bold;font-size:14px;font-family:HelveticaNeueCyr, Sans-serif;fill:#140000;stroke-width:0.899286"
     class="terminal"
     aria-label=")" />
  <path
     id="rect24"
     style="fill:#330000;stroke:#330000;stroke-width:0.899286"
     d="m 516.63986,110.16254 h 16.18715 c 4.98205,0 8.99286,4.01081 8.99286,8.99286 v 10.79143 c 0,4.98205 -4.01081,8.99286 -8.99286,8.99286 h -16.18715 c -4.98204,0 -8.99286,-4.01081 -8.99286,-8.99286 V 119.1554 c 0,-4.98205 4.01082,-8.99286 8.99286,-8.99286 z" />
  <path
     id="rect25"
     class="terminal"
     style="fill:#ff4d4d;stroke:#330000;stroke-width:0.899286"
     d="m 514.84128,108.36398 h 16.18715 c 4.98204,0 8.99286,4.01082 8.99286,8.99286 v 10.79144 c 0,4.98204 -4.01082,8.99286 -8.99286,8.99286 h -16.18715 c -4.98204,0 -8.99286,-4.01082 -8.99286,-8.99286 v -10.79144 c 0,-4.98204 4.01082,-8.99286 8.99286,-8.99286 z" />
  <path
     d="m 520.76331,116.36769 3.794,9.982 h -2.296 l -0.784,-2.226 h -3.71 l -0.812,2.226 h -2.24 l 3.794,-9.982 z m 0.182,6.16 -1.316,-3.71 -1.33,3.71 z m 11.82999,-3.178 h -2.072 q -0.126,-1.484 -1.89,-1.484 -0.756,0 -1.19,0.308 -0.42,0.294 -0.42,0.826 0,0.182 0.056,0.322 0.056,0.14 0.21,0.266 0.154,0.112 0.308,0.196 0.154,0.07 0.448,0.168 0.308,0.084 0.546,0.154 0.252,0.07 0.7,0.182 0.448,0.112 0.784,0.21 1.47,0.42 2.184,1.05 0.728,0.63 0.728,1.806 0,0.854 -0.35,1.498 -0.35,0.63 -0.952,1.008 -0.588,0.364 -1.302,0.532 -0.7,0.182 -1.498,0.182 -2.03,0 -3.178,-0.924 -1.134,-0.938 -1.148,-2.632 h 2.17 q 0.056,1.876 2.254,1.876 0.854,0 1.344,-0.35 0.504,-0.364 0.504,-0.98 0,-0.518 -0.462,-0.756 -0.448,-0.238 -1.904,-0.658 -0.238,-0.056 -0.364,-0.098 -0.504,-0.14 -0.7,-0.196 -0.196,-0.07 -0.63,-0.224 -0.42,-0.154 -0.616,-0.28 -0.196,-0.126 -0.49,-0.35 -0.28,-0.224 -0.406,-0.462 -0.126,-0.252 -0.238,-0.602 -0.098,-0.364 -0.098,-0.784 0,-1.358 1.05,-2.17 1.05,-0.812 2.786,-0.812 1.68,0 2.744,0.798 1.064,0.784 1.092,2.38 z"
     id="text25"
     style="font-weight:bold;font-size:14px;font-family:HelveticaNeueCyr, Sans-serif;fill:#140000;stroke-width:0.899286"
     class="terminal"
     aria-label="AS" />
  <a
     xlink:href="#name"
     xlink:title="name"
     id="a27"
     transform="matrix(0.89928608,0,0,0.89928608,-0.44964304,-0.44964307)">
    <path
       id="rect26"
       style="fill:#330000;stroke:#330000"
       d="m 623,123 h 56 v 32 h -56 z" />
    <path
       id="rect27"
       class="nonterminal"
       style="fill:#ff9e9e;stroke:#330000"
       d="m 621,121 h 56 v 32 h -56 z" />
    <path
       d="m 633.016,133.776 v 1.12 q 0.896,-1.316 2.464,-1.316 1.274,0 1.834,0.672 0.574,0.658 0.574,1.946 V 141 h -1.19 v -4.256 q 0,-0.532 -0.042,-0.826 -0.028,-0.308 -0.168,-0.644 -0.14,-0.35 -0.476,-0.504 -0.336,-0.154 -0.868,-0.154 -2.058,0 -2.058,2.604 V 141 h -1.19 v -7.224 z m 13.062,6.272 v 0.924 q -0.364,0.14 -0.812,0.14 -1.022,0 -1.05,-1.064 -1.022,1.148 -2.618,1.148 -1.064,0 -1.694,-0.546 -0.616,-0.546 -0.616,-1.498 0,-1.932 2.562,-2.254 1.512,-0.182 1.75,-0.266 0.504,-0.168 0.546,-0.7 0.014,-0.084 0.014,-0.182 0,-1.19 -1.638,-1.19 -0.84,0 -1.274,0.35 -0.434,0.336 -0.518,1.12 h -1.162 q 0.028,-1.162 0.826,-1.806 0.798,-0.644 2.198,-0.644 1.526,0 2.268,0.7 0.238,0.224 0.35,0.588 0.112,0.364 0.126,0.602 0.014,0.224 0.014,0.686 0,0.546 -0.028,1.624 -0.028,1.064 -0.028,1.596 0,0.392 0.098,0.56 0.112,0.154 0.392,0.154 0.112,0 0.294,-0.042 z m -1.918,-2.8 q -0.126,0.098 -0.266,0.168 -0.14,0.07 -0.364,0.112 -0.21,0.042 -0.294,0.07 -0.07,0.014 -0.364,0.056 -0.294,0.028 -0.308,0.028 -0.434,0.056 -0.574,0.084 -0.126,0.014 -0.504,0.112 -0.364,0.098 -0.518,0.224 -0.154,0.126 -0.308,0.378 -0.14,0.238 -0.14,0.574 0,0.56 0.378,0.882 0.392,0.322 1.064,0.322 0.854,0 1.526,-0.504 0.672,-0.504 0.672,-1.19 z m 4.15801,-3.472 v 1.05 q 0.476,-0.644 1.022,-0.938 0.546,-0.294 1.33,-0.294 1.484,0 2.002,1.246 0.938,-1.26 2.394,-1.26 1.12,0 1.694,0.63 0.588,0.616 0.588,1.736 V 141 h -1.19 v -4.55 q 0,-0.896 -0.28,-1.344 -0.28,-0.462 -1.162,-0.462 -1.848,0 -1.848,2.254 V 141 h -1.19 v -4.634 q 0,-0.826 -0.28,-1.26 -0.266,-0.448 -1.05,-0.448 -1.106,0 -1.54,0.686 -0.42,0.672 -0.42,1.834 V 141 h -1.19 v -7.224 z m 16.996,4.942 q -0.546,2.52 -3.15,2.52 -1.596,0 -2.506,-0.994 -0.896,-0.994 -0.896,-2.758 0,-1.75 0.924,-2.828 0.938,-1.092 2.436,-1.092 1.666,0 2.464,1.134 0.812,1.12 0.812,2.842 v 0.168 h -5.432 l -0.014,0.084 q 0,1.148 0.602,1.806 0.602,0.658 1.652,0.658 0.784,0 1.232,-0.364 0.462,-0.364 0.714,-1.176 z m -1.148,-1.974 q -0.084,-1.036 -0.63,-1.61 -0.546,-0.588 -1.442,-0.588 -0.868,0 -1.442,0.588 -0.574,0.588 -0.686,1.61 z"
       id="text27"
       class="nonterminal"
       style="font-size:14px;font-family:HelveticaNeueCyr, Sans-serif;fill:#1a0000"
       aria-label="name" />
  </a>
  <path
     id="rect28"
     style="fill:#330000;stroke:#330000;stroke-width:0.899286"
     d="M 66.996813,252.24974 H 106.5654 c 4.98205,0 8.99286,4.01082 8.99286,8.99286 v 10.79143 c 0,4.98205 -4.01081,8.99287 -8.99286,8.99287 H 66.996813 c -4.982045,0 -8.992861,-4.01082 -8.992861,-8.99287 V 261.2426 c 0,-4.98204 4.010816,-8.99286 8.992861,-8.99286 z" />
  <path
     id="rect29"
     class="terminal"
     style="fill:#ff4d4d;stroke:#330000;stroke-width:0.899286"
     d="m 65.19824,250.45117 h 39.56859 c 4.98204,0 8.99286,4.01082 8.99286,8.99286 v 10.79144 c 0,4.98204 -4.01082,8.99286 -8.99286,8.99286 H 65.19824 c -4.982045,0 -8.992861,-4.01082 -8.992861,-8.99286 v -10.79144 c 0,-4.98204 4.010816,-8.99286 8.992861,-8.99286 z" />
  <path
     d="m 68.362242,258.46889 v 9.968 h -2.198 v -9.968 z m 1.932001,9.968 v -9.968 h 2.226 l 4.102,6.678 v -6.678 h 2.1 v 9.968 h -2.184 l -4.13,-6.692 v 6.692 z m 10.373989,0 v -9.968 h 2.226 l 4.102,6.678 v -6.678 h 2.1 v 9.968 h -2.184 l -4.13,-6.692 v 6.692 z m 17.849989,-9.968 v 1.792 h -5.306 v 2.17 h 4.872 v 1.722 h -4.872 v 2.45 h 5.404 v 1.834 h -7.574 v -9.968 z m 1.680009,0 h 4.956 q 1.484,0 2.422,0.7 0.938,0.7 0.938,2.128 0,0.868 -0.42,1.526 -0.42,0.644 -1.162,0.924 1.288,0.266 1.47,2.324 0,0.07 0.028,0.434 0.028,0.364 0.056,0.588 0.028,0.21 0.07,0.518 0.042,0.308 0.126,0.518 0.084,0.21 0.196,0.308 h -2.268 q -0.112,-0.224 -0.168,-0.56 -0.056,-0.35 -0.098,-0.882 -0.042,-0.546 -0.042,-0.602 -0.112,-1.05 -0.532,-1.456 -0.406,-0.406 -1.456,-0.406 h -1.946 v 3.906 h -2.17 z m 2.17,1.722 v 2.758 h 2.072 q 0.91,0 1.414,-0.28 0.518,-0.294 0.518,-1.134 0,-0.784 -0.504,-1.064 -0.49,-0.28 -1.33,-0.28 z"
     id="text29"
     style="font-weight:bold;font-size:14px;font-family:HelveticaNeueCyr, Sans-serif;fill:#140000;stroke-width:0.899286"
     class="terminal"
     aria-label="INNER" />
  <path
     id="rect30"
     style="fill:#330000;stroke:#330000;stroke-width:0.899286"
     d="m 160.52257,223.4726 h 30.57573 c 4.98204,0 8.99286,4.01081 8.99286,8.99286 v 10.79143 c 0,4.98204 -4.01082,8.99286 -8.99286,8.99286 h -30.57573 c -4.98205,0 -8.99286,-4.01082 -8.99286,-8.99286 v -10.79143 c 0,-4.98205 4.01081,-8.99286 8.99286,-8.99286 z" />
  <path
     id="rect31"
     class="terminal"
     style="fill:#ff4d4d;stroke:#330000;stroke-width:0.899286"
     d="m 158.724,221.67403 h 30.57573 c 4.98204,0 8.99286,4.01081 8.99286,8.99286 v 10.79143 c 0,4.98205 -4.01082,8.99286 -8.99286,8.99286 H 158.724 c -4.98204,0 -8.99286,-4.01081 -8.99286,-8.99286 v -10.79143 c 0,-4.98205 4.01082,-8.99286 8.99286,-8.99286 z" />
  <path
     d="m 165.696,229.69174 v 6.846 q 0,3.36 -3.276,3.36 -1.582,0 -2.464,-0.826 -0.868,-0.826 -0.868,-2.478 v -0.658 h 2.016 v 0.308 q 0,0.378 0,0.574 0.014,0.182 0.07,0.49 0.07,0.294 0.196,0.448 0.126,0.14 0.364,0.266 0.252,0.112 0.616,0.112 0.392,0 0.63,-0.126 0.252,-0.126 0.364,-0.378 0.112,-0.266 0.14,-0.518 0.028,-0.252 0.028,-0.644 v -6.776 z m 6.286,-0.238 q 2.184,0 3.528,1.456 1.358,1.442 1.358,3.78 0,2.338 -1.358,3.78 -1.344,1.428 -3.542,1.428 -2.212,0 -3.57,-1.428 -1.358,-1.442 -1.358,-3.78 0,-2.366 1.344,-3.794 1.358,-1.442 3.598,-1.442 z m -0.028,1.792 q -1.232,0 -1.974,0.924 -0.728,0.924 -0.728,2.478 0,1.61 0.728,2.52 0.728,0.91 2.002,0.924 1.246,0 1.96,-0.924 0.714,-0.924 0.714,-2.52 0,-1.568 -0.728,-2.478 -0.728,-0.924 -1.974,-0.924 z m 8.60999,-1.554 v 9.968 h -2.198 v -9.968 z m 1.932,9.968 v -9.968 h 2.226 l 4.102,6.678 v -6.678 h 2.1 v 9.968 h -2.184 l -4.13,-6.692 v 6.692 z"
     id="text31"
     style="font-weight:bold;font-size:14px;font-family:HelveticaNeueCyr, Sans-serif;fill:#140000;stroke-width:0.899286"
     class="terminal"
     aria-label="JOIN" />
  <a
     xlink:href="#table"
     xlink:title="table"
     id="a33"
     transform="matrix(0.89928608,0,0,0.89928608,-0.44964304,-0.44964307)">
    <path
       id="rect32"
       style="fill:#330000;stroke:#330000"
       d="m 263,249 h 52 v 32 h -52 z" />
    <path
       id="rect33"
       class="nonterminal"
       style="fill:#ff9e9e;stroke:#330000"
       d="m 261,247 h 52 v 32 h -52 z" />
    <path
       d="m 274.99,259.776 v 0.98 h -1.442 v 4.214 q 0,0.35 0,0.462 0.014,0.112 0.084,0.308 0.07,0.182 0.238,0.238 0.168,0.056 0.476,0.056 0.266,0 0.644,-0.042 v 1.022 q -0.504,0.056 -0.91,0.056 -0.504,0 -0.84,-0.112 -0.336,-0.112 -0.518,-0.252 -0.168,-0.14 -0.252,-0.49 -0.084,-0.364 -0.098,-0.602 -0.014,-0.252 -0.014,-0.826 0,-0.126 0,-0.196 v -3.836 h -1.218 v -0.98 h 1.218 v -2.142 h 1.19 v 2.142 z m 7.71401,6.272 v 0.924 q -0.364,0.14 -0.812,0.14 -1.022,0 -1.05,-1.064 -1.022,1.148 -2.618,1.148 -1.064,0 -1.694,-0.546 -0.616,-0.546 -0.616,-1.498 0,-1.932 2.562,-2.254 1.512,-0.182 1.75,-0.266 0.504,-0.168 0.546,-0.7 0.014,-0.084 0.014,-0.182 0,-1.19 -1.638,-1.19 -0.84,0 -1.274,0.35 -0.434,0.336 -0.518,1.12 h -1.162 q 0.028,-1.162 0.826,-1.806 0.798,-0.644 2.198,-0.644 1.526,0 2.268,0.7 0.238,0.224 0.35,0.588 0.112,0.364 0.126,0.602 0.014,0.224 0.014,0.686 0,0.546 -0.028,1.624 -0.028,1.064 -0.028,1.596 0,0.392 0.098,0.56 0.112,0.154 0.392,0.154 0.112,0 0.294,-0.042 z m -1.918,-2.8 q -0.126,0.098 -0.266,0.168 -0.14,0.07 -0.364,0.112 -0.21,0.042 -0.294,0.07 -0.07,0.014 -0.364,0.056 -0.294,0.028 -0.308,0.028 -0.434,0.056 -0.574,0.084 -0.126,0.014 -0.504,0.112 -0.364,0.098 -0.518,0.224 -0.154,0.126 -0.308,0.378 -0.14,0.238 -0.14,0.574 0,0.56 0.378,0.882 0.392,0.322 1.064,0.322 0.854,0 1.526,-0.504 0.672,-0.504 0.672,-1.19 z m 4.21401,-6.216 v 3.738 q 0.784,-1.19 2.394,-1.19 1.484,0 2.366,1.036 0.896,1.022 0.896,2.744 0,1.75 -0.91,2.8 -0.91,1.05 -2.422,1.05 -1.722,0 -2.394,-1.26 V 267 h -1.12 v -9.968 z m 2.212,3.556 q -1.148,0 -1.708,0.826 -0.546,0.826 -0.546,2.03 0,1.274 0.602,2.03 0.616,0.742 1.652,0.742 0.994,0 1.596,-0.77 0.616,-0.784 0.616,-2.072 0,-1.274 -0.602,-2.03 -0.602,-0.756 -1.61,-0.756 z m 6.174,-3.556 V 267 h -1.204 v -9.968 z m 8.022,7.686 q -0.546,2.52 -3.15,2.52 -1.596,0 -2.506,-0.994 -0.896,-0.994 -0.896,-2.758 0,-1.75 0.924,-2.828 0.938,-1.092 2.436,-1.092 1.666,0 2.464,1.134 0.812,1.12 0.812,2.842 v 0.168 h -5.432 l -0.014,0.084 q 0,1.148 0.602,1.806 0.602,0.658 1.652,0.658 0.784,0 1.232,-0.364 0.462,-0.364 0.714,-1.176 z m -1.148,-1.974 q -0.084,-1.036 -0.63,-1.61 -0.546,-0.588 -1.442,-0.588 -0.868,0 -1.442,0.588 -0.574,0.588 -0.686,1.61 z"
       id="text33"
       class="nonterminal"
       style="font-size:14px;font-family:HelveticaNeueCyr, Sans-serif;fill:#1a0000"
       aria-label="table" />
  </a>
  <path
     id="rect34"
     style="fill:#330000;stroke:#330000;stroke-width:0.899286"
     d="m 327.78977,252.24974 h 16.18715 c 4.98204,0 8.99286,4.01082 8.99286,8.99286 v 10.79143 c 0,4.98205 -4.01082,8.99287 -8.99286,8.99287 h -16.18715 c -4.98205,0 -8.99286,-4.01082 -8.99286,-8.99287 V 261.2426 c 0,-4.98204 4.01081,-8.99286 8.99286,-8.99286 z" />
  <path
     id="rect35"
     class="terminal"
     style="fill:#ff4d4d;stroke:#330000;stroke-width:0.899286"
     d="m 325.99121,250.45117 h 16.18715 c 4.98205,0 8.99286,4.01082 8.99286,8.99286 v 10.79144 c 0,4.98204 -4.01081,8.99286 -8.99286,8.99286 h -16.18715 c -4.98204,0 -8.99286,-4.01082 -8.99286,-8.99286 v -10.79144 c 0,-4.98204 4.01082,-8.99286 8.99286,-8.99286 z" />
  <path
     d="m 329.91321,258.45489 3.794,9.982 h -2.296 l -0.784,-2.226 h -3.71 l -0.812,2.226 h -2.24 l 3.794,-9.982 z m 0.182,6.16 -1.316,-3.71 -1.33,3.71 z m 11.82999,-3.178 h -2.072 q -0.126,-1.484 -1.89,-1.484 -0.756,0 -1.19,0.308 -0.42,0.294 -0.42,0.826 0,0.182 0.056,0.322 0.056,0.14 0.21,0.266 0.154,0.112 0.308,0.196 0.154,0.07 0.448,0.168 0.308,0.084 0.546,0.154 0.252,0.07 0.7,0.182 0.448,0.112 0.784,0.21 1.47,0.42 2.184,1.05 0.728,0.63 0.728,1.806 0,0.854 -0.35,1.498 -0.35,0.63 -0.952,1.008 -0.588,0.364 -1.302,0.532 -0.7,0.182 -1.498,0.182 -2.03,0 -3.178,-0.924 -1.134,-0.938 -1.148,-2.632 h 2.17 q 0.056,1.876 2.254,1.876 0.854,0 1.344,-0.35 0.504,-0.364 0.504,-0.98 0,-0.518 -0.462,-0.756 -0.448,-0.238 -1.904,-0.658 -0.238,-0.056 -0.364,-0.098 -0.504,-0.14 -0.7,-0.196 -0.196,-0.07 -0.63,-0.224 -0.42,-0.154 -0.616,-0.28 -0.196,-0.126 -0.49,-0.35 -0.28,-0.224 -0.406,-0.462 -0.126,-0.252 -0.238,-0.602 -0.098,-0.364 -0.098,-0.784 0,-1.358 1.05,-2.17 1.05,-0.812 2.786,-0.812 1.68,0 2.744,0.798 1.064,0.784 1.092,2.38 z"
     id="text35"
     style="font-weight:bold;font-size:14px;font-family:HelveticaNeueCyr, Sans-serif;fill:#140000;stroke-width:0.899286"
     class="terminal"
     aria-label="AS" />
  <a
     xlink:href="#name"
     xlink:title="name"
     id="a37"
     transform="matrix(0.89928608,0,0,0.89928608,-0.44964304,-0.44964307)">
    <path
       id="rect36"
       style="fill:#330000;stroke:#330000"
       d="m 413,281 h 56 v 32 h -56 z" />
    <path
       id="rect37"
       class="nonterminal"
       style="fill:#ff9e9e;stroke:#330000"
       d="m 411,279 h 56 v 32 h -56 z" />
    <path
       d="m 423.016,291.776 v 1.12 q 0.896,-1.316 2.464,-1.316 1.274,0 1.834,0.672 0.574,0.658 0.574,1.946 V 299 h -1.19 v -4.256 q 0,-0.532 -0.042,-0.826 -0.028,-0.308 -0.168,-0.644 -0.14,-0.35 -0.476,-0.504 -0.336,-0.154 -0.868,-0.154 -2.058,0 -2.058,2.604 V 299 h -1.19 v -7.224 z m 13.062,6.272 v 0.924 q -0.364,0.14 -0.812,0.14 -1.022,0 -1.05,-1.064 -1.022,1.148 -2.618,1.148 -1.064,0 -1.694,-0.546 -0.616,-0.546 -0.616,-1.498 0,-1.932 2.562,-2.254 1.512,-0.182 1.75,-0.266 0.504,-0.168 0.546,-0.7 0.014,-0.084 0.014,-0.182 0,-1.19 -1.638,-1.19 -0.84,0 -1.274,0.35 -0.434,0.336 -0.518,1.12 h -1.162 q 0.028,-1.162 0.826,-1.806 0.798,-0.644 2.198,-0.644 1.526,0 2.268,0.7 0.238,0.224 0.35,0.588 0.112,0.364 0.126,0.602 0.014,0.224 0.014,0.686 0,0.546 -0.028,1.624 -0.028,1.064 -0.028,1.596 0,0.392 0.098,0.56 0.112,0.154 0.392,0.154 0.112,0 0.294,-0.042 z m -1.918,-2.8 q -0.126,0.098 -0.266,0.168 -0.14,0.07 -0.364,0.112 -0.21,0.042 -0.294,0.07 -0.07,0.014 -0.364,0.056 -0.294,0.028 -0.308,0.028 -0.434,0.056 -0.574,0.084 -0.126,0.014 -0.504,0.112 -0.364,0.098 -0.518,0.224 -0.154,0.126 -0.308,0.378 -0.14,0.238 -0.14,0.574 0,0.56 0.378,0.882 0.392,0.322 1.064,0.322 0.854,0 1.526,-0.504 0.672,-0.504 0.672,-1.19 z m 4.15801,-3.472 v 1.05 q 0.476,-0.644 1.022,-0.938 0.546,-0.294 1.33,-0.294 1.484,0 2.002,1.246 0.938,-1.26 2.394,-1.26 1.12,0 1.694,0.63 0.588,0.616 0.588,1.736 V 299 h -1.19 v -4.55 q 0,-0.896 -0.28,-1.344 -0.28,-0.462 -1.162,-0.462 -1.848,0 -1.848,2.254 V 299 h -1.19 v -4.634 q 0,-0.826 -0.28,-1.26 -0.266,-0.448 -1.05,-0.448 -1.106,0 -1.54,0.686 -0.42,0.672 -0.42,1.834 V 299 h -1.19 v -7.224 z m 16.996,4.942 q -0.546,2.52 -3.15,2.52 -1.596,0 -2.506,-0.994 -0.896,-0.994 -0.896,-2.758 0,-1.75 0.924,-2.828 0.938,-1.092 2.436,-1.092 1.666,0 2.464,1.134 0.812,1.12 0.812,2.842 v 0.168 h -5.432 l -0.014,0.084 q 0,1.148 0.602,1.806 0.602,0.658 1.652,0.658 0.784,0 1.232,-0.364 0.462,-0.364 0.714,-1.176 z m -1.148,-1.974 q -0.084,-1.036 -0.63,-1.61 -0.546,-0.588 -1.442,-0.588 -0.868,0 -1.442,0.588 -0.574,0.588 -0.686,1.61 z"
       id="text37"
       class="nonterminal"
       style="font-size:14px;font-family:HelveticaNeueCyr, Sans-serif;fill:#1a0000"
       aria-label="name" />
  </a>
  <path
     id="rect38"
     style="fill:#330000;stroke:#330000;stroke-width:0.899286"
     d="m 245.05545,291.81833 h 5.39572 c 4.98204,0 8.99286,4.01081 8.99286,8.99286 v 10.79143 c 0,4.98205 -4.01082,8.99286 -8.99286,8.99286 h -5.39572 c -4.98204,0 -8.99286,-4.01081 -8.99286,-8.99286 v -10.79143 c 0,-4.98205 4.01082,-8.99286 8.99286,-8.99286 z" />
  <path
     id="rect39"
     class="terminal"
     style="fill:#ff4d4d;stroke:#330000;stroke-width:0.899286"
     d="m 243.25688,290.01978 h 5.39572 c 4.98204,0 8.99286,4.01081 8.99286,8.99286 v 10.79143 c 0,4.98204 -4.01082,8.99286 -8.99286,8.99286 h -5.39572 c -4.98204,0 -8.99286,-4.01082 -8.99286,-8.99286 v -10.79143 c 0,-4.98205 4.01082,-8.99286 8.99286,-8.99286 z" />
  <path
     d="m 247.48488,297.88349 q -0.812,1.624 -1.19,3.108 -0.364,1.484 -0.364,3.262 0,3.08 1.582,6.244 h -1.68 q -0.868,-1.316 -1.358,-2.954 -0.476,-1.638 -0.476,-3.248 0,-1.68 0.462,-3.388 0.476,-1.722 1.372,-3.024 z"
     id="text39"
     style="font-weight:bold;font-size:14px;font-family:HelveticaNeueCyr, Sans-serif;fill:#140000;stroke-width:0.899286"
     class="terminal"
     aria-label="(" />
  <a
     xlink:href="#select"
     xlink:title="SELECT"
     id="a41"
     transform="matrix(0.89928608,0,0,0.89928608,-0.44964304,-0.44964307)">
    <path
       id="rect40"
       style="fill:#330000;stroke:#330000"
       d="m 329,325 h 66 v 32 h -66 z" />
    <path
       id="rect41"
       class="nonterminal"
       style="fill:#ff9e9e;stroke:#330000"
       d="m 327,323 h 66 v 32 h -66 z" />
    <path
       d="m 342.93801,335.958 h -1.274 q -0.21,-2.03 -2.478,-2.03 -1.078,0 -1.666,0.434 -0.588,0.434 -0.588,1.218 0,0.28 0.084,0.49 0.084,0.21 0.28,0.378 0.21,0.154 0.392,0.266 0.182,0.112 0.574,0.224 0.392,0.112 0.63,0.168 0.238,0.042 0.742,0.154 0.616,0.126 1.022,0.238 0.406,0.098 0.966,0.336 0.56,0.238 0.882,0.532 0.336,0.28 0.574,0.756 0.252,0.476 0.252,1.078 0,1.05 -0.588,1.764 -0.588,0.7 -1.428,0.98 -0.84,0.28 -1.862,0.28 -1.876,0 -3.01,-0.882 -1.12,-0.896 -1.12,-2.632 h 1.274 q 0.042,1.274 0.854,1.862 0.812,0.574 2.114,0.574 1.022,0 1.75,-0.42 0.728,-0.434 0.728,-1.4 0,-0.448 -0.196,-0.756 -0.196,-0.322 -0.616,-0.518 -0.42,-0.21 -0.84,-0.336 -0.42,-0.126 -1.106,-0.28 -0.098,-0.014 -0.14,-0.028 -1.54,-0.35 -2.016,-0.56 -1.456,-0.63 -1.456,-2.17 0,-1.428 1.05,-2.128 1.064,-0.714 2.562,-0.714 1.638,0 2.618,0.784 0.98,0.784 1.036,2.338 z m 8.91801,-2.926 v 1.148 h -5.586 v 3.122 h 5.222 v 1.106 h -5.222 v 3.444 h 5.656 V 343 h -6.972 v -9.968 z m 8.274,8.82 V 343 h -6.608 v -9.968 h 1.316 v 8.82 z m 8.064,-8.82 v 1.148 h -5.586 v 3.122 h 5.222 v 1.106 h -5.222 v 3.444 h 5.656 V 343 h -6.972 v -9.968 z m 10.094,6.202 q -0.168,1.89 -1.316,2.954 -1.134,1.05 -2.996,1.05 -2.128,0 -3.374,-1.4 -1.246,-1.414 -1.246,-3.808 0,-2.24 1.246,-3.724 1.26,-1.498 3.472,-1.498 1.582,0 2.786,0.854 1.204,0.854 1.344,2.366 h -1.316 q -0.224,-0.98 -0.98,-1.526 -0.756,-0.56 -1.862,-0.56 -1.666,0 -2.52,1.176 -0.84,1.176 -0.84,2.898 0,1.904 0.896,2.996 0.896,1.092 2.45,1.092 1.274,0 2.03,-0.728 0.756,-0.742 0.91,-2.142 z m 8.582,-6.202 v 1.148 h -3.346 V 343 h -1.316 v -8.82 h -3.346 v -1.148 z"
       id="text41"
       class="nonterminal"
       style="font-size:14px;font-family:HelveticaNeueCyr, Sans-serif;fill:#1a0000"
       aria-label="SELECT" />
  </a>
  <a
     xlink:href="#values"
     xlink:title="VALUES"
     id="a43"
     transform="matrix(0.89928608,0,0,0.89928608,-0.44964304,-0.44964307)">
    <path
       id="rect42"
       style="fill:#330000;stroke:#330000"
       d="m 329,369 h 68 v 32 h -68 z" />
    <path
       id="rect43"
       class="nonterminal"
       style="fill:#ff9e9e;stroke:#330000"
       d="m 327,367 h 68 v 32 h -68 z" />
    <path
       d="m 334.74801,377.032 h 1.456 l 2.87,8.68 2.898,-8.68 h 1.386 l -3.556,9.968 h -1.512 z m 13.23001,0 3.892,9.968 h -1.47 l -1.106,-3.052 h -4.186 l -1.134,3.052 h -1.4 l 3.92,-9.968 z m 0.924,5.866 -1.694,-4.606 -1.722,4.606 z m 10.58401,2.954 V 387 h -6.608 v -9.968 h 1.316 v 8.82 z m 1.09199,-8.82 h 1.33 v 6.286 q 0,1.456 0.63,2.128 0.63,0.672 2.058,0.672 1.47,0 2.072,-0.686 0.616,-0.686 0.616,-2.114 v -6.286 h 1.33 v 5.936 q 0,2.184 -0.91,3.22 -0.91,1.022 -3.108,1.022 -2.128,0 -3.08,-0.994 -0.938,-1.008 -0.938,-3.108 z m 17.08001,0 v 1.148 h -5.586 v 3.122 h 5.222 v 1.106 h -5.222 v 3.444 h 5.656 V 387 h -6.972 v -9.968 z m 8.708,2.926 h -1.274 q -0.21,-2.03 -2.478,-2.03 -1.078,0 -1.666,0.434 -0.588,0.434 -0.588,1.218 0,0.28 0.084,0.49 0.084,0.21 0.28,0.378 0.21,0.154 0.392,0.266 0.182,0.112 0.574,0.224 0.392,0.112 0.63,0.168 0.238,0.042 0.742,0.154 0.616,0.126 1.022,0.238 0.406,0.098 0.966,0.336 0.56,0.238 0.882,0.532 0.336,0.28 0.574,0.756 0.252,0.476 0.252,1.078 0,1.05 -0.588,1.764 -0.588,0.7 -1.428,0.98 -0.84,0.28 -1.862,0.28 -1.876,0 -3.01,-0.882 -1.12,-0.896 -1.12,-2.632 h 1.274 q 0.042,1.274 0.854,1.862 0.812,0.574 2.114,0.574 1.022,0 1.75,-0.42 0.728,-0.434 0.728,-1.4 0,-0.448 -0.196,-0.756 -0.196,-0.322 -0.616,-0.518 -0.42,-0.21 -0.84,-0.336 -0.42,-0.126 -1.106,-0.28 -0.098,-0.014 -0.14,-0.028 -1.54,-0.35 -2.016,-0.56 -1.456,-0.63 -1.456,-2.17 0,-1.428 1.05,-2.128 1.064,-0.714 2.562,-0.714 1.638,0 2.618,0.784 0.98,0.784 1.036,2.338 z"
       id="text43"
       class="nonterminal"
       style="font-size:14px;font-family:HelveticaNeueCyr, Sans-serif;fill:#1a0000"
       aria-label="VALUES" />
  </a>
  <path
     id="rect44"
     style="fill:#330000;stroke:#330000;stroke-width:0.899286"
     d="m 401.53122,291.81833 h 5.39572 c 4.98204,0 8.99286,4.01081 8.99286,8.99286 v 10.79143 c 0,4.98205 -4.01082,8.99286 -8.99286,8.99286 h -5.39572 c -4.98204,0 -8.99286,-4.01081 -8.99286,-8.99286 v -10.79143 c 0,-4.98205 4.01082,-8.99286 8.99286,-8.99286 z" />
  <path
     id="rect45"
     class="terminal"
     style="fill:#ff4d4d;stroke:#330000;stroke-width:0.899286"
     d="m 399.73267,290.01978 h 5.39571 c 4.98205,0 8.99286,4.01081 8.99286,8.99286 v 10.79143 c 0,4.98204 -4.01081,8.99286 -8.99286,8.99286 h -5.39571 c -4.98205,0 -8.99286,-4.01082 -8.99286,-8.99286 v -10.79143 c 0,-4.98205 4.01081,-8.99286 8.99286,-8.99286 z" />
  <path
     d="m 399.67667,297.88349 h 1.652 q 1.862,2.856 1.862,6.23 0,1.582 -0.49,3.416 -0.49,1.834 -1.344,2.968 h -1.666 q 0.84,-1.708 1.19,-3.15 0.364,-1.456 0.364,-3.262 0,-3.388 -1.568,-6.202 z"
     id="text45"
     style="font-weight:bold;font-size:14px;font-family:HelveticaNeueCyr, Sans-serif;fill:#140000;stroke-width:0.899286"
     class="terminal"
     aria-label=")" />
  <path
     id="rect46"
     style="fill:#330000;stroke:#330000;stroke-width:0.899286"
     d="m 442.89841,291.81833 h 16.18715 c 4.98204,0 8.99286,4.01081 8.99286,8.99286 v 10.79143 c 0,4.98205 -4.01082,8.99286 -8.99286,8.99286 h -16.18715 c -4.98205,0 -8.99286,-4.01081 -8.99286,-8.99286 v -10.79143 c 0,-4.98205 4.01081,-8.99286 8.99286,-8.99286 z" />
  <path
     id="rect47"
     class="terminal"
     style="fill:#ff4d4d;stroke:#330000;stroke-width:0.899286"
     d="m 441.09982,290.01978 h 16.18715 c 4.98205,0 8.99286,4.01081 8.99286,8.99286 v 10.79143 c 0,4.98204 -4.01081,8.99286 -8.99286,8.99286 h -16.18715 c -4.98204,0 -8.99286,-4.01082 -8.99286,-8.99286 v -10.79143 c 0,-4.98205 4.01082,-8.99286 8.99286,-8.99286 z" />
  <path
     d="m 447.02182,298.02349 3.794,9.982 h -2.296 l -0.784,-2.226 h -3.71 l -0.812,2.226 h -2.24 l 3.794,-9.982 z m 0.182,6.16 -1.316,-3.71 -1.33,3.71 z m 11.83,-3.178 h -2.072 q -0.126,-1.484 -1.89,-1.484 -0.756,0 -1.19,0.308 -0.42,0.294 -0.42,0.826 0,0.182 0.056,0.322 0.056,0.14 0.21,0.266 0.154,0.112 0.308,0.196 0.154,0.07 0.448,0.168 0.308,0.084 0.546,0.154 0.252,0.07 0.7,0.182 0.448,0.112 0.784,0.21 1.47,0.42 2.184,1.05 0.728,0.63 0.728,1.806 0,0.854 -0.35,1.498 -0.35,0.63 -0.952,1.008 -0.588,0.364 -1.302,0.532 -0.7,0.182 -1.498,0.182 -2.03,0 -3.178,-0.924 -1.134,-0.938 -1.148,-2.632 h 2.17 q 0.056,1.876 2.254,1.876 0.854,0 1.344,-0.35 0.504,-0.364 0.504,-0.98 0,-0.518 -0.462,-0.756 -0.448,-0.238 -1.904,-0.658 -0.238,-0.056 -0.364,-0.098 -0.504,-0.14 -0.7,-0.196 -0.196,-0.07 -0.63,-0.224 -0.42,-0.154 -0.616,-0.28 -0.196,-0.126 -0.49,-0.35 -0.28,-0.224 -0.406,-0.462 -0.126,-0.252 -0.238,-0.602 -0.098,-0.364 -0.098,-0.784 0,-1.358 1.05,-2.17 1.05,-0.812 2.786,-0.812 1.68,0 2.744,0.798 1.064,0.784 1.092,2.38 z"
     id="text47"
     style="font-weight:bold;font-size:14px;font-family:HelveticaNeueCyr, Sans-serif;fill:#140000;stroke-width:0.899286"
     class="terminal"
     aria-label="AS" />
  <a
     xlink:href="#name"
     xlink:title="name"
     id="a49"
     transform="matrix(0.89928608,0,0,0.89928608,-0.44964304,-0.44964307)">
    <path
       id="rect48"
       style="fill:#330000;stroke:#330000"
       d="m 541,325 h 56 v 32 h -56 z" />
    <path
       id="rect49"
       class="nonterminal"
       style="fill:#ff9e9e;stroke:#330000"
       d="m 539,323 h 56 v 32 h -56 z" />
    <path
       d="m 551.016,335.776 v 1.12 q 0.896,-1.316 2.464,-1.316 1.274,0 1.834,0.672 0.574,0.658 0.574,1.946 V 343 h -1.19 v -4.256 q 0,-0.532 -0.042,-0.826 -0.028,-0.308 -0.168,-0.644 -0.14,-0.35 -0.476,-0.504 -0.336,-0.154 -0.868,-0.154 -2.058,0 -2.058,2.604 V 343 h -1.19 v -7.224 z m 13.062,6.272 v 0.924 q -0.364,0.14 -0.812,0.14 -1.022,0 -1.05,-1.064 -1.022,1.148 -2.618,1.148 -1.064,0 -1.694,-0.546 -0.616,-0.546 -0.616,-1.498 0,-1.932 2.562,-2.254 1.512,-0.182 1.75,-0.266 0.504,-0.168 0.546,-0.7 0.014,-0.084 0.014,-0.182 0,-1.19 -1.638,-1.19 -0.84,0 -1.274,0.35 -0.434,0.336 -0.518,1.12 h -1.162 q 0.028,-1.162 0.826,-1.806 0.798,-0.644 2.198,-0.644 1.526,0 2.268,0.7 0.238,0.224 0.35,0.588 0.112,0.364 0.126,0.602 0.014,0.224 0.014,0.686 0,0.546 -0.028,1.624 -0.028,1.064 -0.028,1.596 0,0.392 0.098,0.56 0.112,0.154 0.392,0.154 0.112,0 0.294,-0.042 z m -1.918,-2.8 q -0.126,0.098 -0.266,0.168 -0.14,0.07 -0.364,0.112 -0.21,0.042 -0.294,0.07 -0.07,0.014 -0.364,0.056 -0.294,0.028 -0.308,0.028 -0.434,0.056 -0.574,0.084 -0.126,0.014 -0.504,0.112 -0.364,0.098 -0.518,0.224 -0.154,0.126 -0.308,0.378 -0.14,0.238 -0.14,0.574 0,0.56 0.378,0.882 0.392,0.322 1.064,0.322 0.854,0 1.526,-0.504 0.672,-0.504 0.672,-1.19 z m 4.15801,-3.472 v 1.05 q 0.476,-0.644 1.022,-0.938 0.546,-0.294 1.33,-0.294 1.484,0 2.002,1.246 0.938,-1.26 2.394,-1.26 1.12,0 1.694,0.63 0.588,0.616 0.588,1.736 V 343 h -1.19 v -4.55 q 0,-0.896 -0.28,-1.344 -0.28,-0.462 -1.162,-0.462 -1.848,0 -1.848,2.254 V 343 h -1.19 v -4.634 q 0,-0.826 -0.28,-1.26 -0.266,-0.448 -1.05,-0.448 -1.106,0 -1.54,0.686 -0.42,0.672 -0.42,1.834 V 343 h -1.19 v -7.224 z m 16.996,4.942 q -0.546,2.52 -3.15,2.52 -1.596,0 -2.506,-0.994 -0.896,-0.994 -0.896,-2.758 0,-1.75 0.924,-2.828 0.938,-1.092 2.436,-1.092 1.666,0 2.464,1.134 0.812,1.12 0.812,2.842 v 0.168 h -5.432 l -0.014,0.084 q 0,1.148 0.602,1.806 0.602,0.658 1.652,0.658 0.784,0 1.232,-0.364 0.462,-0.364 0.714,-1.176 z m -1.148,-1.974 q -0.084,-1.036 -0.63,-1.61 -0.546,-0.588 -1.442,-0.588 -0.868,0 -1.442,0.588 -0.574,0.588 -0.686,1.61 z"
       id="text49"
       class="nonterminal"
       style="font-size:14px;font-family:HelveticaNeueCyr, Sans-serif;fill:#1a0000"
       aria-label="name" />
  </a>
  <path
     id="rect50"
     style="fill:#330000;stroke:#330000;stroke-width:0.899286"
     d="m 581.38843,223.4726 h 17.98572 c 4.98205,0 8.99286,4.01081 8.99286,8.99286 v 10.79143 c 0,4.98204 -4.01081,8.99286 -8.99286,8.99286 h -17.98572 c -4.98205,0 -8.99286,-4.01082 -8.99286,-8.99286 v -10.79143 c 0,-4.98205 4.01081,-8.99286 8.99286,-8.99286 z" />
  <path
     id="rect51"
     class="terminal"
     style="fill:#ff4d4d;stroke:#330000;stroke-width:0.899286"
     d="m 579.58991,221.67403 h 17.98572 c 4.98204,0 8.99286,4.01081 8.99286,8.99286 v 10.79143 c 0,4.98205 -4.01082,8.99286 -8.99286,8.99286 h -17.98572 c -4.98205,0 -8.99286,-4.01081 -8.99286,-8.99286 v -10.79143 c 0,-4.98205 4.01081,-8.99286 8.99286,-8.99286 z" />
  <path
     d="m 585.0639,229.45374 q 2.184,0 3.528,1.456 1.358,1.442 1.358,3.78 0,2.338 -1.358,3.78 -1.344,1.428 -3.542,1.428 -2.212,0 -3.57,-1.428 -1.358,-1.442 -1.358,-3.78 0,-2.366 1.344,-3.794 1.358,-1.442 3.598,-1.442 z m -0.028,1.792 q -1.232,0 -1.974,0.924 -0.728,0.924 -0.728,2.478 0,1.61 0.728,2.52 0.728,0.91 2.002,0.924 1.246,0 1.96,-0.924 0.714,-0.924 0.714,-2.52 0,-1.568 -0.728,-2.478 -0.728,-0.924 -1.974,-0.924 z m 6.412,8.414 v -9.968 h 2.226 l 4.102,6.678 v -6.678 h 2.1 v 9.968 h -2.184 l -4.13,-6.692 v 6.692 z"
     id="text51"
     style="font-weight:bold;font-size:14px;font-family:HelveticaNeueCyr, Sans-serif;fill:#140000;stroke-width:0.899286"
     class="terminal"
     aria-label="ON" />
  <a
     xlink:href="#expression"
     xlink:title="expression"
     id="a53"
     transform="matrix(0.89928608,0,0,0.89928608,-0.44964304,-0.44964307)">
    <path
       id="rect52"
       style="fill:#330000;stroke:#330000"
       d="m 697,249 h 90 v 32 h -90 z" />
    <path
       id="rect53"
       class="nonterminal"
       style="fill:#ff9e9e;stroke:#330000"
       d="m 695,247 h 90 v 32 h -90 z" />
    <path
       d="m 712.07,264.718 q -0.546,2.52 -3.15,2.52 -1.596,0 -2.506,-0.994 -0.896,-0.994 -0.896,-2.758 0,-1.75 0.924,-2.828 0.938,-1.092 2.436,-1.092 1.666,0 2.464,1.134 0.812,1.12 0.812,2.842 v 0.168 h -5.432 l -0.014,0.084 q 0,1.148 0.602,1.806 0.602,0.658 1.652,0.658 0.784,0 1.232,-0.364 0.462,-0.364 0.714,-1.176 z m -1.148,-1.974 q -0.084,-1.036 -0.63,-1.61 -0.546,-0.588 -1.442,-0.588 -0.868,0 -1.442,0.588 -0.574,0.588 -0.686,1.61 z m 8.42801,-2.968 -2.52,3.332 2.814,3.892 h -1.526 l -2.03,-2.968 -2.002,2.968 h -1.442 l 2.716,-3.808 -2.506,-3.416 h 1.512 l 1.75,2.478 1.792,-2.478 z m 2.43599,0 v 1.022 q 0.784,-1.246 2.436,-1.246 1.512,0 2.394,1.022 0.896,1.022 0.896,2.772 0,1.75 -0.882,2.8 -0.868,1.036 -2.352,1.036 -1.554,0 -2.422,-1.19 v 3.794 h -1.19 v -10.01 z m 2.254,0.77 q -1.036,0 -1.638,0.756 -0.588,0.742 -0.588,2.058 0,1.316 0.602,2.072 0.616,0.742 1.666,0.742 1.022,0 1.61,-0.756 0.588,-0.756 0.588,-2.058 0,-1.316 -0.602,-2.058 -0.588,-0.756 -1.638,-0.756 z m 8.69401,-0.938 v 1.232 q -0.126,-0.014 -0.308,-0.014 -0.574,0 -0.994,0.182 -0.42,0.168 -0.672,0.448 -0.238,0.28 -0.392,0.7 -0.154,0.42 -0.21,0.84 -0.042,0.42 -0.042,0.952 V 267 h -1.19 v -7.224 h 1.134 v 1.554 q 0.714,-1.722 2.674,-1.722 z m 6.81801,5.11 q -0.546,2.52 -3.15,2.52 -1.596,0 -2.506,-0.994 -0.896,-0.994 -0.896,-2.758 0,-1.75 0.924,-2.828 0.938,-1.092 2.436,-1.092 1.666,0 2.464,1.134 0.812,1.12 0.812,2.842 v 0.168 h -5.432 l -0.014,0.084 q 0,1.148 0.602,1.806 0.602,0.658 1.652,0.658 0.784,0 1.232,-0.364 0.462,-0.364 0.714,-1.176 z m -1.148,-1.974 q -0.084,-1.036 -0.63,-1.61 -0.546,-0.588 -1.442,-0.588 -0.868,0 -1.442,0.588 -0.574,0.588 -0.686,1.61 z m 7.85401,-0.868 h -1.19 q -0.112,-1.316 -1.764,-1.316 -0.686,0 -1.078,0.266 -0.392,0.266 -0.392,0.714 0,0.126 0.028,0.252 0.028,0.112 0.098,0.21 0.084,0.084 0.14,0.154 0.07,0.07 0.21,0.14 0.154,0.056 0.224,0.098 0.084,0.042 0.28,0.098 0.21,0.042 0.294,0.07 0.084,0.014 0.322,0.07 0.252,0.056 0.322,0.07 0.518,0.112 0.77,0.182 0.266,0.07 0.714,0.266 0.462,0.182 0.7,0.392 0.238,0.196 0.42,0.56 0.196,0.35 0.196,0.798 0,1.05 -0.826,1.694 -0.812,0.63 -2.17,0.63 -1.47,0 -2.268,-0.644 -0.784,-0.644 -0.84,-1.862 h 1.176 q 0.098,1.526 1.96,1.526 0.798,0 1.274,-0.322 0.49,-0.336 0.49,-0.882 0,-0.364 -0.252,-0.602 -0.252,-0.238 -0.56,-0.336 -0.308,-0.112 -0.882,-0.252 -0.084,-0.014 -0.126,-0.028 -0.126,-0.028 -0.546,-0.112 -0.406,-0.098 -0.588,-0.154 -0.182,-0.056 -0.532,-0.168 -0.336,-0.126 -0.504,-0.252 -0.168,-0.14 -0.378,-0.336 -0.196,-0.21 -0.28,-0.476 -0.084,-0.28 -0.084,-0.63 0,-0.98 0.742,-1.554 0.756,-0.574 2.016,-0.574 1.274,0 2.072,0.602 0.812,0.602 0.812,1.708 z m 7,0 h -1.19 q -0.112,-1.316 -1.764,-1.316 -0.686,0 -1.078,0.266 -0.392,0.266 -0.392,0.714 0,0.126 0.028,0.252 0.028,0.112 0.098,0.21 0.084,0.084 0.14,0.154 0.07,0.07 0.21,0.14 0.154,0.056 0.224,0.098 0.084,0.042 0.28,0.098 0.21,0.042 0.294,0.07 0.084,0.014 0.322,0.07 0.252,0.056 0.322,0.07 0.518,0.112 0.77,0.182 0.266,0.07 0.714,0.266 0.462,0.182 0.7,0.392 0.238,0.196 0.42,0.56 0.196,0.35 0.196,0.798 0,1.05 -0.826,1.694 -0.812,0.63 -2.17,0.63 -1.47,0 -2.268,-0.644 -0.784,-0.644 -0.84,-1.862 h 1.176 q 0.098,1.526 1.96,1.526 0.798,0 1.274,-0.322 0.49,-0.336 0.49,-0.882 0,-0.364 -0.252,-0.602 -0.252,-0.238 -0.56,-0.336 -0.308,-0.112 -0.882,-0.252 -0.084,-0.014 -0.126,-0.028 -0.126,-0.028 -0.546,-0.112 -0.406,-0.098 -0.588,-0.154 -0.182,-0.056 -0.532,-0.168 -0.336,-0.126 -0.504,-0.252 -0.168,-0.14 -0.378,-0.336 -0.196,-0.21 -0.28,-0.476 -0.084,-0.28 -0.084,-0.63 0,-0.98 0.742,-1.554 0.756,-0.574 2.016,-0.574 1.274,0 2.072,0.602 0.812,0.602 0.812,1.708 z m 2.898,-4.844 v 1.456 h -1.204 v -1.456 z m 0,2.744 V 267 h -1.204 v -7.224 z m 2.422,0.826 q 0.952,-1.036 2.59,-1.036 1.638,0 2.548,0.994 0.91,0.994 0.91,2.786 0,1.834 -0.91,2.856 -0.91,1.022 -2.562,1.022 -1.652,0 -2.59,-1.008 -0.938,-1.008 -0.938,-2.8 0,-1.778 0.952,-2.814 z m 4.214,0.728 q -0.602,-0.77 -1.652,-0.77 -1.05,0 -1.666,0.77 -0.616,0.77 -0.616,2.058 0,1.33 0.602,2.086 0.616,0.742 1.708,0.742 1.05,0 1.638,-0.756 0.602,-0.756 0.602,-2.086 0,-1.288 -0.616,-2.044 z m 4.36799,-1.554 v 1.12 q 0.896,-1.316 2.464,-1.316 1.274,0 1.834,0.672 0.574,0.658 0.574,1.946 V 267 h -1.19 v -4.256 q 0,-0.532 -0.042,-0.826 -0.028,-0.308 -0.168,-0.644 -0.14,-0.35 -0.476,-0.504 -0.336,-0.154 -0.868,-0.154 -2.058,0 -2.058,2.604 V 267 h -1.19 v -7.224 z"
       id="text53"
       class="nonterminal"
       style="font-size:14px;font-family:HelveticaNeueCyr, Sans-serif;fill:#1a0000"
       aria-label="expression" />
  </a>
  <path
     id="rect54"
     style="fill:#330000;stroke:#330000;stroke-width:0.899286"
     d="m 279.22833,459.08554 h 44.96431 c 4.98205,0 8.99286,4.01082 8.99286,8.99286 v 10.79143 c 0,4.98205 -4.01081,8.99287 -8.99286,8.99287 h -44.96431 c -4.98204,0 -8.99286,-4.01082 -8.99286,-8.99287 V 468.0784 c 0,-4.98204 4.01082,-8.99286 8.99286,-8.99286 z" />
  <path
     id="rect55"
     class="terminal"
     style="fill:#ff4d4d;stroke:#330000;stroke-width:0.899286"
     d="m 277.42975,457.28699 h 44.96431 c 4.98204,0 8.99286,4.01081 8.99286,8.99286 v 10.79143 c 0,4.98205 -4.01082,8.99286 -8.99286,8.99286 h -44.96431 c -4.98204,0 -8.99286,-4.01081 -8.99286,-8.99286 v -10.79143 c 0,-4.98205 4.01082,-8.99286 8.99286,-8.99286 z" />
  <path
     d="m 275.47175,465.30471 h 2.198 l 1.596,6.776 1.75,-6.776 h 2.058 l 1.722,6.86 1.652,-6.86 h 2.156 l -2.688,9.968 h -2.184 l -1.708,-6.804 -1.68,6.804 h -2.226 z m 22.582,0 v 9.968 h -2.184 v -4.298 h -4.074 v 4.298 h -2.184 v -9.968 h 2.184 v 3.752 h 4.074 v -3.752 z m 9.40799,0 v 1.792 h -5.306 v 2.17 h 4.872 v 1.722 h -4.872 v 2.45 h 5.404 v 1.834 h -7.574 v -9.968 z m 1.68001,0 h 4.956 q 1.484,0 2.422,0.7 0.938,0.7 0.938,2.128 0,0.868 -0.42,1.526 -0.42,0.644 -1.162,0.924 1.288,0.266 1.47,2.324 0,0.07 0.028,0.434 0.028,0.364 0.056,0.588 0.028,0.21 0.07,0.518 0.042,0.308 0.126,0.518 0.084,0.21 0.196,0.308 h -2.268 q -0.112,-0.224 -0.168,-0.56 -0.056,-0.35 -0.098,-0.882 -0.042,-0.546 -0.042,-0.602 -0.112,-1.05 -0.532,-1.456 -0.406,-0.406 -1.456,-0.406 h -1.946 v 3.906 h -2.17 z m 2.17,1.722 v 2.758 h 2.072 q 0.91,0 1.414,-0.28 0.518,-0.294 0.518,-1.134 0,-0.784 -0.504,-1.064 -0.49,-0.28 -1.33,-0.28 z m 15.33,-1.722 v 1.792 h -5.306 v 2.17 h 4.872 v 1.722 h -4.872 v 2.45 h 5.404 v 1.834 h -7.574 v -9.968 z"
     id="text55"
     style="font-weight:bold;font-size:14px;font-family:HelveticaNeueCyr, Sans-serif;fill:#140000;stroke-width:0.899286"
     class="terminal"
     aria-label="WHERE" />
  <a
     xlink:href="#expression"
     xlink:title="expression"
     id="a57"
     transform="matrix(0.89928608,0,0,0.89928608,-0.44964304,-0.44964307)">
    <path
       id="rect56"
       style="fill:#330000;stroke:#330000"
       d="m 391,511 h 90 v 32 h -90 z" />
    <path
       id="rect57"
       class="nonterminal"
       style="fill:#ff9e9e;stroke:#330000"
       d="m 389,509 h 90 v 32 h -90 z" />
    <path
       d="m 406.07,526.718 q -0.546,2.52 -3.15,2.52 -1.596,0 -2.506,-0.994 -0.896,-0.994 -0.896,-2.758 0,-1.75 0.924,-2.828 0.938,-1.092 2.436,-1.092 1.666,0 2.464,1.134 0.812,1.12 0.812,2.842 v 0.168 h -5.432 l -0.014,0.084 q 0,1.148 0.602,1.806 0.602,0.658 1.652,0.658 0.784,0 1.232,-0.364 0.462,-0.364 0.714,-1.176 z m -1.148,-1.974 q -0.084,-1.036 -0.63,-1.61 -0.546,-0.588 -1.442,-0.588 -0.868,0 -1.442,0.588 -0.574,0.588 -0.686,1.61 z m 8.42801,-2.968 -2.52,3.332 2.814,3.892 h -1.526 l -2.03,-2.968 -2.002,2.968 h -1.442 l 2.716,-3.808 -2.506,-3.416 h 1.512 l 1.75,2.478 1.792,-2.478 z m 2.43599,0 v 1.022 q 0.784,-1.246 2.436,-1.246 1.512,0 2.394,1.022 0.896,1.022 0.896,2.772 0,1.75 -0.882,2.8 -0.868,1.036 -2.352,1.036 -1.554,0 -2.422,-1.19 v 3.794 h -1.19 v -10.01 z m 2.254,0.77 q -1.036,0 -1.638,0.756 -0.588,0.742 -0.588,2.058 0,1.316 0.602,2.072 0.616,0.742 1.666,0.742 1.022,0 1.61,-0.756 0.588,-0.756 0.588,-2.058 0,-1.316 -0.602,-2.058 -0.588,-0.756 -1.638,-0.756 z m 8.69401,-0.938 v 1.232 q -0.126,-0.014 -0.308,-0.014 -0.574,0 -0.994,0.182 -0.42,0.168 -0.672,0.448 -0.238,0.28 -0.392,0.7 -0.154,0.42 -0.21,0.84 -0.042,0.42 -0.042,0.952 V 529 h -1.19 v -7.224 h 1.134 v 1.554 q 0.714,-1.722 2.674,-1.722 z m 6.81801,5.11 q -0.546,2.52 -3.15,2.52 -1.596,0 -2.506,-0.994 -0.896,-0.994 -0.896,-2.758 0,-1.75 0.924,-2.828 0.938,-1.092 2.436,-1.092 1.666,0 2.464,1.134 0.812,1.12 0.812,2.842 v 0.168 h -5.432 l -0.014,0.084 q 0,1.148 0.602,1.806 0.602,0.658 1.652,0.658 0.784,0 1.232,-0.364 0.462,-0.364 0.714,-1.176 z m -1.148,-1.974 q -0.084,-1.036 -0.63,-1.61 -0.546,-0.588 -1.442,-0.588 -0.868,0 -1.442,0.588 -0.574,0.588 -0.686,1.61 z m 7.85401,-0.868 h -1.19 q -0.112,-1.316 -1.764,-1.316 -0.686,0 -1.078,0.266 -0.392,0.266 -0.392,0.714 0,0.126 0.028,0.252 0.028,0.112 0.098,0.21 0.084,0.084 0.14,0.154 0.07,0.07 0.21,0.14 0.154,0.056 0.224,0.098 0.084,0.042 0.28,0.098 0.21,0.042 0.294,0.07 0.084,0.014 0.322,0.07 0.252,0.056 0.322,0.07 0.518,0.112 0.77,0.182 0.266,0.07 0.714,0.266 0.462,0.182 0.7,0.392 0.238,0.196 0.42,0.56 0.196,0.35 0.196,0.798 0,1.05 -0.826,1.694 -0.812,0.63 -2.17,0.63 -1.47,0 -2.268,-0.644 -0.784,-0.644 -0.84,-1.862 h 1.176 q 0.098,1.526 1.96,1.526 0.798,0 1.274,-0.322 0.49,-0.336 0.49,-0.882 0,-0.364 -0.252,-0.602 -0.252,-0.238 -0.56,-0.336 -0.308,-0.112 -0.882,-0.252 -0.084,-0.014 -0.126,-0.028 -0.126,-0.028 -0.546,-0.112 -0.406,-0.098 -0.588,-0.154 -0.182,-0.056 -0.532,-0.168 -0.336,-0.126 -0.504,-0.252 -0.168,-0.14 -0.378,-0.336 -0.196,-0.21 -0.28,-0.476 -0.084,-0.28 -0.084,-0.63 0,-0.98 0.742,-1.554 0.756,-0.574 2.016,-0.574 1.274,0 2.072,0.602 0.812,0.602 0.812,1.708 z m 7,0 h -1.19 q -0.112,-1.316 -1.764,-1.316 -0.686,0 -1.078,0.266 -0.392,0.266 -0.392,0.714 0,0.126 0.028,0.252 0.028,0.112 0.098,0.21 0.084,0.084 0.14,0.154 0.07,0.07 0.21,0.14 0.154,0.056 0.224,0.098 0.084,0.042 0.28,0.098 0.21,0.042 0.294,0.07 0.084,0.014 0.322,0.07 0.252,0.056 0.322,0.07 0.518,0.112 0.77,0.182 0.266,0.07 0.714,0.266 0.462,0.182 0.7,0.392 0.238,0.196 0.42,0.56 0.196,0.35 0.196,0.798 0,1.05 -0.826,1.694 -0.812,0.63 -2.17,0.63 -1.47,0 -2.268,-0.644 -0.784,-0.644 -0.84,-1.862 h 1.176 q 0.098,1.526 1.96,1.526 0.798,0 1.274,-0.322 0.49,-0.336 0.49,-0.882 0,-0.364 -0.252,-0.602 -0.252,-0.238 -0.56,-0.336 -0.308,-0.112 -0.882,-0.252 -0.084,-0.014 -0.126,-0.028 -0.126,-0.028 -0.546,-0.112 -0.406,-0.098 -0.588,-0.154 -0.182,-0.056 -0.532,-0.168 -0.336,-0.126 -0.504,-0.252 -0.168,-0.14 -0.378,-0.336 -0.196,-0.21 -0.28,-0.476 -0.084,-0.28 -0.084,-0.63 0,-0.98 0.742,-1.554 0.756,-0.574 2.016,-0.574 1.274,0 2.072,0.602 0.812,0.602 0.812,1.708 z m 2.898,-4.844 v 1.456 h -1.204 v -1.456 z m 0,2.744 V 529 h -1.204 v -7.224 z m 2.422,0.826 q 0.952,-1.036 2.59,-1.036 1.638,0 2.548,0.994 0.91,0.994 0.91,2.786 0,1.834 -0.91,2.856 -0.91,1.022 -2.562,1.022 -1.652,0 -2.59,-1.008 -0.938,-1.008 -0.938,-2.8 0,-1.778 0.952,-2.814 z m 4.214,0.728 q -0.602,-0.77 -1.652,-0.77 -1.05,0 -1.666,0.77 -0.616,0.77 -0.616,2.058 0,1.33 0.602,2.086 0.616,0.742 1.708,0.742 1.05,0 1.638,-0.756 0.602,-0.756 0.602,-2.086 0,-1.288 -0.616,-2.044 z m 4.36799,-1.554 v 1.12 q 0.896,-1.316 2.464,-1.316 1.274,0 1.834,0.672 0.574,0.658 0.574,1.946 V 529 h -1.19 v -4.256 q 0,-0.532 -0.042,-0.826 -0.028,-0.308 -0.168,-0.644 -0.14,-0.35 -0.476,-0.504 -0.336,-0.154 -0.868,-0.154 -2.058,0 -2.058,2.604 V 529 h -1.19 v -7.224 z"
       id="text57"
       class="nonterminal"
       style="font-size:14px;font-family:HelveticaNeueCyr, Sans-serif;fill:#1a0000"
       aria-label="expression" />
  </a>
  <path
     id="rect58"
     style="fill:#330000;stroke:#330000;stroke-width:0.899286"
     d="M 495.05698,430.30838 H 558.007 c 4.98205,0 8.99286,4.01082 8.99286,8.99286 v 10.79143 c 0,4.98205 -4.01081,8.99287 -8.99286,8.99287 h -62.95002 c -4.98205,0 -8.99286,-4.01082 -8.99286,-8.99287 v -10.79143 c 0,-4.98204 4.01081,-8.99286 8.99286,-8.99286 z" />
  <path
     id="rect59"
     class="terminal"
     style="fill:#ff4d4d;stroke:#330000;stroke-width:0.899286"
     d="m 493.25842,428.50983 h 62.95003 c 4.98204,0 8.99286,4.01081 8.99286,8.99286 v 10.79143 c 0,4.98205 -4.01082,8.99286 -8.99286,8.99286 h -62.95003 c -4.98204,0 -8.99286,-4.01081 -8.99286,-8.99286 v -10.79143 c 0,-4.98205 4.01082,-8.99286 8.99286,-8.99286 z" />
  <path
     d="m 497.10042,441.10554 v 5.39 h -1.386 l -0.21,-1.134 q -1.12,1.372 -2.996,1.372 -2.086,0 -3.388,-1.442 -1.302,-1.442 -1.302,-3.738 0,-2.31 1.372,-3.766 1.372,-1.47 3.528,-1.47 1.708,0 2.884,0.966 1.176,0.952 1.372,2.52 h -2.114 q -0.154,-0.784 -0.728,-1.218 -0.574,-0.434 -1.442,-0.434 -1.246,0 -1.96,0.91 -0.714,0.896 -0.714,2.492 0,1.624 0.714,2.534 0.728,0.896 2.03,0.896 1.022,0 1.68,-0.616 0.658,-0.63 0.7,-1.638 h -2.226 v -1.624 z m 1.83401,-4.578 h 4.956 q 1.484,0 2.422,0.7 0.938,0.7 0.938,2.128 0,0.868 -0.42,1.526 -0.42,0.644 -1.162,0.924 1.288,0.266 1.47,2.324 0,0.07 0.028,0.434 0.028,0.364 0.056,0.588 0.028,0.21 0.07,0.518 0.042,0.308 0.126,0.518 0.084,0.21 0.196,0.308 h -2.268 q -0.112,-0.224 -0.168,-0.56 -0.056,-0.35 -0.098,-0.882 -0.042,-0.546 -0.042,-0.602 -0.112,-1.05 -0.532,-1.456 -0.406,-0.406 -1.456,-0.406 h -1.946 v 3.906 h -2.17 z m 2.17,1.722 v 2.758 h 2.072 q 0.91,0 1.414,-0.28 0.518,-0.294 0.518,-1.134 0,-0.784 -0.504,-1.064 -0.49,-0.28 -1.33,-0.28 z m 12.36201,-1.96 q 2.184,0 3.528,1.456 1.358,1.442 1.358,3.78 0,2.338 -1.358,3.78 -1.344,1.428 -3.542,1.428 -2.212,0 -3.57,-1.428 -1.358,-1.442 -1.358,-3.78 0,-2.366 1.344,-3.794 1.358,-1.442 3.598,-1.442 z m -0.028,1.792 q -1.232,0 -1.974,0.924 -0.728,0.924 -0.728,2.478 0,1.61 0.728,2.52 0.728,0.91 2.002,0.924 1.246,0 1.96,-0.924 0.714,-0.924 0.714,-2.52 0,-1.568 -0.728,-2.478 -0.728,-0.924 -1.974,-0.924 z m 14.89599,-1.554 v 5.992 q 0,2.142 -1.036,3.164 -1.022,1.008 -3.206,1.008 -2.212,0 -3.262,-1.022 -1.036,-1.036 -1.036,-3.178 v -5.964 h 2.184 v 5.964 q 0,1.218 0.462,1.806 0.462,0.588 1.68,0.588 1.176,0 1.596,-0.588 0.434,-0.588 0.434,-1.806 v -5.964 z m 1.90399,0 h 4.298 q 1.68,0 2.66,0.812 0.994,0.798 0.994,2.394 0,1.568 -0.98,2.38 -0.98,0.798 -2.562,0.798 h -2.24 v 3.584 h -2.17 z m 2.17,1.792 v 2.87 h 1.946 q 1.708,0 1.708,-1.428 0,-1.442 -1.694,-1.442 z m 11.032,-1.792 h 4.718 q 1.4,0 2.282,0.63 0.896,0.616 0.896,1.876 0,0.7 -0.364,1.246 -0.364,0.532 -0.994,0.812 1.82,0.518 1.82,2.436 0,1.414 -0.952,2.198 -0.952,0.77 -2.422,0.77 h -4.984 z m 2.128,1.694 v 2.338 h 1.988 q 1.652,0 1.652,-1.162 0,-0.686 -0.448,-0.924 -0.448,-0.252 -1.204,-0.252 z m 0,3.822 v 2.716 h 2.198 q 0.854,0 1.344,-0.28 0.504,-0.28 0.504,-1.078 0,-0.812 -0.532,-1.078 -0.518,-0.28 -1.428,-0.28 z m 16.24,-5.516 -3.71,6.132 v 3.836 h -2.156 v -3.878 l -3.724,-6.09 h 2.492 l 2.324,3.99 2.352,-3.99 z"
     id="text59"
     style="font-weight:bold;font-size:14px;font-family:HelveticaNeueCyr, Sans-serif;fill:#140000;stroke-width:0.899286"
     class="terminal"
     aria-label="GROUP BY" />
  <a
     xlink:href="#expression"
     xlink:title="expression"
     id="a61"
     transform="matrix(0.89928608,0,0,0.89928608,-0.44964304,-0.44964307)">
    <path
       id="rect60"
       style="fill:#330000;stroke:#330000"
       d="m 671,479 h 90 v 32 h -90 z" />
    <path
       id="rect61"
       class="nonterminal"
       style="fill:#ff9e9e;stroke:#330000"
       d="m 669,477 h 90 v 32 h -90 z" />
    <path
       d="m 686.07,494.718 q -0.546,2.52 -3.15,2.52 -1.596,0 -2.506,-0.994 -0.896,-0.994 -0.896,-2.758 0,-1.75 0.924,-2.828 0.938,-1.092 2.436,-1.092 1.666,0 2.464,1.134 0.812,1.12 0.812,2.842 v 0.168 h -5.432 l -0.014,0.084 q 0,1.148 0.602,1.806 0.602,0.658 1.652,0.658 0.784,0 1.232,-0.364 0.462,-0.364 0.714,-1.176 z m -1.148,-1.974 q -0.084,-1.036 -0.63,-1.61 -0.546,-0.588 -1.442,-0.588 -0.868,0 -1.442,0.588 -0.574,0.588 -0.686,1.61 z m 8.42801,-2.968 -2.52,3.332 2.814,3.892 h -1.526 l -2.03,-2.968 -2.002,2.968 h -1.442 l 2.716,-3.808 -2.506,-3.416 h 1.512 l 1.75,2.478 1.792,-2.478 z m 2.43599,0 v 1.022 q 0.784,-1.246 2.436,-1.246 1.512,0 2.394,1.022 0.896,1.022 0.896,2.772 0,1.75 -0.882,2.8 -0.868,1.036 -2.352,1.036 -1.554,0 -2.422,-1.19 v 3.794 h -1.19 v -10.01 z m 2.254,0.77 q -1.036,0 -1.638,0.756 -0.588,0.742 -0.588,2.058 0,1.316 0.602,2.072 0.616,0.742 1.666,0.742 1.022,0 1.61,-0.756 0.588,-0.756 0.588,-2.058 0,-1.316 -0.602,-2.058 -0.588,-0.756 -1.638,-0.756 z m 8.69401,-0.938 v 1.232 q -0.126,-0.014 -0.308,-0.014 -0.574,0 -0.994,0.182 -0.42,0.168 -0.672,0.448 -0.238,0.28 -0.392,0.7 -0.154,0.42 -0.21,0.84 -0.042,0.42 -0.042,0.952 V 497 h -1.19 v -7.224 h 1.134 v 1.554 q 0.714,-1.722 2.674,-1.722 z m 6.81801,5.11 q -0.546,2.52 -3.15,2.52 -1.596,0 -2.506,-0.994 -0.896,-0.994 -0.896,-2.758 0,-1.75 0.924,-2.828 0.938,-1.092 2.436,-1.092 1.666,0 2.464,1.134 0.812,1.12 0.812,2.842 v 0.168 h -5.432 l -0.014,0.084 q 0,1.148 0.602,1.806 0.602,0.658 1.652,0.658 0.784,0 1.232,-0.364 0.462,-0.364 0.714,-1.176 z m -1.148,-1.974 q -0.084,-1.036 -0.63,-1.61 -0.546,-0.588 -1.442,-0.588 -0.868,0 -1.442,0.588 -0.574,0.588 -0.686,1.61 z m 7.85401,-0.868 h -1.19 q -0.112,-1.316 -1.764,-1.316 -0.686,0 -1.078,0.266 -0.392,0.266 -0.392,0.714 0,0.126 0.028,0.252 0.028,0.112 0.098,0.21 0.084,0.084 0.14,0.154 0.07,0.07 0.21,0.14 0.154,0.056 0.224,0.098 0.084,0.042 0.28,0.098 0.21,0.042 0.294,0.07 0.084,0.014 0.322,0.07 0.252,0.056 0.322,0.07 0.518,0.112 0.77,0.182 0.266,0.07 0.714,0.266 0.462,0.182 0.7,0.392 0.238,0.196 0.42,0.56 0.196,0.35 0.196,0.798 0,1.05 -0.826,1.694 -0.812,0.63 -2.17,0.63 -1.47,0 -2.268,-0.644 -0.784,-0.644 -0.84,-1.862 h 1.176 q 0.098,1.526 1.96,1.526 0.798,0 1.274,-0.322 0.49,-0.336 0.49,-0.882 0,-0.364 -0.252,-0.602 -0.252,-0.238 -0.56,-0.336 -0.308,-0.112 -0.882,-0.252 -0.084,-0.014 -0.126,-0.028 -0.126,-0.028 -0.546,-0.112 -0.406,-0.098 -0.588,-0.154 -0.182,-0.056 -0.532,-0.168 -0.336,-0.126 -0.504,-0.252 -0.168,-0.14 -0.378,-0.336 -0.196,-0.21 -0.28,-0.476 -0.084,-0.28 -0.084,-0.63 0,-0.98 0.742,-1.554 0.756,-0.574 2.016,-0.574 1.274,0 2.072,0.602 0.812,0.602 0.812,1.708 z m 7,0 h -1.19 q -0.112,-1.316 -1.764,-1.316 -0.686,0 -1.078,0.266 -0.392,0.266 -0.392,0.714 0,0.126 0.028,0.252 0.028,0.112 0.098,0.21 0.084,0.084 0.14,0.154 0.07,0.07 0.21,0.14 0.154,0.056 0.224,0.098 0.084,0.042 0.28,0.098 0.21,0.042 0.294,0.07 0.084,0.014 0.322,0.07 0.252,0.056 0.322,0.07 0.518,0.112 0.77,0.182 0.266,0.07 0.714,0.266 0.462,0.182 0.7,0.392 0.238,0.196 0.42,0.56 0.196,0.35 0.196,0.798 0,1.05 -0.826,1.694 -0.812,0.63 -2.17,0.63 -1.47,0 -2.268,-0.644 -0.784,-0.644 -0.84,-1.862 h 1.176 q 0.098,1.526 1.96,1.526 0.798,0 1.274,-0.322 0.49,-0.336 0.49,-0.882 0,-0.364 -0.252,-0.602 -0.252,-0.238 -0.56,-0.336 -0.308,-0.112 -0.882,-0.252 -0.084,-0.014 -0.126,-0.028 -0.126,-0.028 -0.546,-0.112 -0.406,-0.098 -0.588,-0.154 -0.182,-0.056 -0.532,-0.168 -0.336,-0.126 -0.504,-0.252 -0.168,-0.14 -0.378,-0.336 -0.196,-0.21 -0.28,-0.476 -0.084,-0.28 -0.084,-0.63 0,-0.98 0.742,-1.554 0.756,-0.574 2.016,-0.574 1.274,0 2.072,0.602 0.812,0.602 0.812,1.708 z m 2.898,-4.844 v 1.456 h -1.204 v -1.456 z m 0,2.744 V 497 h -1.204 v -7.224 z m 2.422,0.826 q 0.952,-1.036 2.59,-1.036 1.638,0 2.548,0.994 0.91,0.994 0.91,2.786 0,1.834 -0.91,2.856 -0.91,1.022 -2.562,1.022 -1.652,0 -2.59,-1.008 -0.938,-1.008 -0.938,-2.8 0,-1.778 0.952,-2.814 z m 4.214,0.728 q -0.602,-0.77 -1.652,-0.77 -1.05,0 -1.666,0.77 -0.616,0.77 -0.616,2.058 0,1.33 0.602,2.086 0.616,0.742 1.708,0.742 1.05,0 1.638,-0.756 0.602,-0.756 0.602,-2.086 0,-1.288 -0.616,-2.044 z m 4.36799,-1.554 v 1.12 q 0.896,-1.316 2.464,-1.316 1.274,0 1.834,0.672 0.574,0.658 0.574,1.946 V 497 h -1.19 v -4.256 q 0,-0.532 -0.042,-0.826 -0.028,-0.308 -0.168,-0.644 -0.14,-0.35 -0.476,-0.504 -0.336,-0.154 -0.868,-0.154 -2.058,0 -2.058,2.604 V 497 h -1.19 v -7.224 z"
       id="text61"
       class="nonterminal"
       style="font-size:14px;font-family:HelveticaNeueCyr, Sans-serif;fill:#1a0000"
       aria-label="expression" />
  </a>
  <path
     id="rect62"
     style="fill:#330000;stroke:#330000;stroke-width:0.899286"
     d="m 611.96417,390.73981 h 3.59715 c 4.98204,0 8.99286,4.01081 8.99286,8.99286 v 10.79143 c 0,4.98205 -4.01082,8.99286 -8.99286,8.99286 h -3.59715 c -4.98204,0 -8.99286,-4.01081 -8.99286,-8.99286 v -10.79143 c 0,-4.98205 4.01082,-8.99286 8.99286,-8.99286 z" />
  <path
     id="rect63"
     class="terminal"
     style="fill:#ff4d4d;stroke:#330000;stroke-width:0.899286"
     d="m 610.16559,388.94122 h 3.59715 c 4.98204,0 8.99286,4.01082 8.99286,8.99286 v 10.79144 c 0,4.98204 -4.01082,8.99286 -8.99286,8.99286 h -3.59715 c -4.98204,0 -8.99286,-4.01082 -8.99286,-8.99286 v -10.79144 c 0,-4.98204 4.01082,-8.99286 8.99286,-8.99286 z" />
  <path
     d="m 613.21759,404.74294 v 1.778 q 0,1.218 -0.546,1.876 -0.532,0.672 -1.666,0.854 v -0.98 q 0.938,-0.28 0.994,-1.344 h -0.994 v -2.184 z"
     id="text63"
     style="font-weight:bold;font-size:14px;font-family:HelveticaNeueCyr, Sans-serif;fill:#140000;stroke-width:0.899286"
     class="terminal"
     aria-label="," />
  <path
     class="line"
     d="m 14.83822,54.406808 h 1.798573 m 0,0 h 8.99286 m 62.950026,0 h 8.992861 m 17.98572,0 h 8.99286 m 57.55431,0 h 8.99286 m -93.52575,0 h 17.98572 m -0.89928,0 q -8.09358,0 -8.09358,-8.992861 V 23.831081 q 0,-8.992861 8.99286,-8.992861 m 75.54003,39.568588 h 17.98572 m -17.98572,0 q 8.99286,0 8.99286,-8.992861 V 23.831081 q 0,-8.992861 -8.99286,-8.992861 m -75.54003,0 h 8.99286 m 21.58287,0 h 8.99286 m 0,0 h 35.97144 m 17.98572,39.568588 h 8.99287 m 53.95716,0 h 8.99286 m 17.98572,0 h 8.99286 m 46.76288,0 h 8.99286 m 17.98572,0 h 8.99286 m 0,0 h 111.51148 m -138.49006,0 h 17.98572 m 120.50434,0 H 520.237 m -156.47578,0 q 8.99286,0 8.99286,8.992861 m 138.49006,0 q 0,-8.992861 8.99286,-8.992861 m -147.48292,8.992861 v 10.791433 m 138.49006,0 V 63.399669 M 372.75408,74.191102 q 0,8.992861 8.99286,8.992861 m 120.50434,0 q 8.99286,0 8.99286,-8.992861 m -129.4972,8.992861 h 8.99286 m 34.17287,0 h 8.99286 m 0,0 h 8.99287 m 50.36002,0 h 8.99286 M 520.237,54.406808 h 97.1229 m -336.333,0 h 17.98572 m 318.34728,0 h 17.98572 m -354.31872,0 q 8.99286,0 8.99286,8.992861 m 336.333,0 q 0,-8.992861 8.99286,-8.992861 m -345.32586,8.992861 v 50.360021 m 336.333,0 V 63.399669 m -336.333,50.360021 q 0,8.99286 8.99286,8.99286 m 318.34728,0 q 8.99286,0 8.99286,-8.99286 m -327.34014,8.99286 h 8.99286 m 23.38144,0 h 8.99286 m 17.98572,0 h 8.99286 m 59.35289,0 h 8.99286 m 0,0 h 1.79857 m -97.1229,0 h 17.98572 m 79.13718,0 h 17.98572 m -115.10862,0 q 8.99286,0 8.99286,8.99286 m 97.1229,0 q 0,-8.99286 8.99286,-8.99286 m -106.11576,8.99286 v 21.58287 m 97.1229,0 v -21.58287 m -97.1229,21.58287 q 0,8.99286 8.99286,8.99286 m 79.13718,0 q 8.99286,0 8.99286,-8.99286 m -88.13004,8.99286 h 8.99286 m 61.15146,0 h 8.99286 m 17.98572,-39.56859 h 8.99286 m 23.38144,0 h 8.99286 m 0,0 h 8.99286 m 34.17287,0 h 8.99286 m 0,0 h 8.99286 m 50.36002,0 h 8.99287 m 19.78429,-68.345742 h 1.79857 m 1.79857,0 h 1.79858 m 1.79857,0 h 1.79857 M 0.44964304,207.28544 H 2.2482152 m 1.7985722,0 h 1.7985721 m 1.7985722,0 h 1.7985722 m 19.7842941,0 h 8.992861 m 0,0 H 714.48279 m -703.241714,0 h 17.985722 m 685.255992,0 h 17.98572 m -721.227434,0 q 8.992861,0 8.992861,8.99286 m 703.241713,0 q 0,-8.99286 8.99286,-8.99286 M 20.233937,216.2783 v 10.79144 m 703.241713,0 V 216.2783 M 20.233937,227.06974 q 0,8.99286 8.992861,8.99286 m 685.255992,0 q 8.99286,0 8.99286,-8.99286 M 47.212519,236.0626 h 8.992861 m 0,0 h 66.54717 m -93.525752,0 h 17.985721 m 75.540031,0 h 17.98572 m -111.511472,0 q 8.992861,0 8.992861,8.99286 m 93.525751,0 q 0,-8.99286 8.99286,-8.99286 m -102.518611,8.99286 v 10.79143 m 93.525751,0 v -10.79143 m -93.525751,10.79143 q 0,8.99286 8.99286,8.99286 m 75.540031,0 q 8.99286,0 8.99286,-8.99286 m -84.532891,8.99286 h 8.992861 m 57.55431,0 h 8.99286 m 17.98572,-28.77715 h 8.99286 m 48.56145,0 h 8.99286 m 17.98572,0 h 8.99286 m 46.76288,0 h 8.99286 m 17.98572,0 h 8.99286 m 0,0 h 111.51148 m -138.49006,0 h 17.98572 m 120.50434,0 h 17.98572 m -156.47578,0 q 8.99286,0 8.99286,8.99286 m 138.49006,0 q 0,-8.99286 8.99286,-8.99286 m -147.48292,8.99286 v 10.79143 m 138.49006,0 v -10.79143 m -138.49006,10.79143 q 0,8.99286 8.99286,8.99286 m 120.50434,0 q 8.99286,0 8.99286,-8.99286 m -129.4972,8.99286 h 8.99286 m 34.17288,0 h 8.99286 m 0,0 h 8.99286 m 50.36002,0 h 8.99286 m 17.98572,-28.77715 h 97.1229 m -336.333,0 h 17.98572 m 318.34728,0 h 17.98572 m -354.31872,0 q 8.99286,0 8.99286,8.99286 m 336.333,0 q 0,-8.99286 8.99286,-8.99286 m -345.32586,8.99286 v 50.36002 m 336.333,0 v -50.36002 m -336.333,50.36002 q 0,8.99286 8.99286,8.99286 m 318.34728,0 q 8.99286,0 8.99286,-8.99286 m -327.34014,8.99286 h 8.99286 m 23.38144,0 h 8.99286 m 17.98573,0 h 8.99286 m 59.35288,0 h 8.99286 m 0,0 h 1.79857 m -97.1229,0 h 17.98573 m 79.13717,0 h 17.98572 m -115.10862,0 q 8.99286,0 8.99286,8.99286 m 97.1229,0 q 0,-8.99286 8.99286,-8.99286 m -106.11576,8.99286 v 21.58287 m 97.1229,0 V 313.4012 m -97.1229,21.58287 q 0,8.99286 8.99287,8.99286 m 79.13717,0 q 8.99286,0 8.99286,-8.99286 m -88.13003,8.99286 h 8.99286 m 61.15145,0 h 8.99286 m 17.98572,-39.56859 h 8.99286 m 23.38144,0 h 8.99286 m 0,0 h 8.99286 m 34.17287,0 h 8.99286 m 0,0 h 8.99287 m 50.36002,0 h 8.99286 m 17.98572,-68.34574 h 8.99286 m 35.97144,0 h 8.99286 m 0,0 h 8.99286 m 80.93575,0 h 8.99286 m 19.7843,-28.77716 h 1.79857 m 1.79857,0 h 1.79857 m 1.79858,0 h 1.79857 M 230.66688,442.8984 h 1.79857 m 1.79857,0 h 1.79858 m 1.79857,0 h 1.79857 m 19.78429,0 h 8.99287 m 0,0 h 170.86435 m -197.84294,0 h 17.98572 m 179.85722,0 h 17.98572 m -215.82866,0 q 8.99286,0 8.99286,8.99286 m 197.84294,0 q 0,-8.99286 8.99286,-8.99286 m -206.8358,8.99286 v 10.79143 m 197.84294,0 v -10.79143 m -197.84294,10.79143 q 0,8.99286 8.99286,8.99286 m 179.85722,0 q 8.99286,0 8.99286,-8.99286 m -188.85008,8.99286 h 8.99287 m 62.95002,0 h 8.99286 m 0,0 h 8.99286 m 80.93575,0 h 8.99286 m 35.97144,-28.77715 h 8.99287 m 80.93574,0 h 8.99286 m 17.98573,0 h 8.99286 m 80.93574,0 h 8.99286 m -116.90719,0 h 17.98573 m -0.89929,0 q -8.09358,0 -8.09358,-8.99287 v -21.58286 q 0,-8.99286 8.99287,-8.99286 m 98.92146,39.56859 h 17.98573 m -17.98573,0 q 8.99287,0 8.99287,-8.99287 v -21.58286 q 0,-8.99286 -8.99287,-8.99286 m -98.92146,0 h 8.99286 m 21.58286,0 h 8.99286 m 0,0 h 59.35288 M 457.28697,442.8984 h 17.98572 m 233.81439,0 h 17.98572 m -269.78583,0 q 8.99286,0 8.99286,8.99286 m 251.80011,0 q 0,-8.99286 8.99286,-8.99286 m -260.79297,8.99286 v 12.59 m 251.80011,0 v -12.59 m -251.80011,12.59 q 0,8.99286 8.99286,8.99286 m 233.81439,0 q 8.99286,0 8.99286,-8.99286 m -242.80725,8.99286 h 8.99287 m 0,0 h 224.82152 m 20.68358,-30.57572 h -2.69786"
     id="path63" />
  <path
     id="polygon63"
     style="fill:#330000;stroke:#330000;stroke-width:0.899286"
     d="m 743.25995,439.30125 v 7.19429 l -7.19429,-3.59715 z" />
  <path
     id="polygon64"
     style="fill:#330000;stroke:#330000;stroke-width:0.899286"
     d="m 728.87137,439.30125 v 7.19429 l 7.19429,-3.59715 z" />
</svg>
