<?xml version="1.0" encoding="UTF-8" standalone="no"?>
<svg
   width="693.45062"
   height="510.65466"
   version="1.1"
   id="svg3360"
   sodipodi:docname="SELECT.svg"
   inkscape:version="1.3 (0e150ed6c4, 2023-07-21)"
   xmlns:inkscape="http://www.inkscape.org/namespaces/inkscape"
   xmlns:sodipodi="http://sodipodi.sourceforge.net/DTD/sodipodi-0.dtd"
   xmlns:xlink="http://www.w3.org/1999/xlink"
   xmlns="http://www.w3.org/2000/svg"
   xmlns:svg="http://www.w3.org/2000/svg">
  <sodipodi:namedview
     id="namedview3362"
     pagecolor="#ffffff"
     bordercolor="#666666"
     borderopacity="1.0"
     inkscape:showpageshadow="2"
     inkscape:pageopacity="0.0"
     inkscape:pagecheckerboard="0"
     inkscape:deskcolor="#d1d1d1"
     showgrid="false"
     inkscape:zoom="0.99707996"
     inkscape:cx="285.83465"
     inkscape:cy="288.84343"
     inkscape:window-width="1920"
     inkscape:window-height="1033"
     inkscape:window-x="0"
     inkscape:window-y="22"
     inkscape:window-maximized="1"
     inkscape:current-layer="svg3360" />
  <defs
     id="defs3148">
    <style
       type="text/css"
       id="style3146">@namespace &quot;http://www.w3.org/2000/svg&quot;;.line { fill: none; stroke: #320000; stroke-width: 1; }&#10;.bold-line { stroke: #FFE0E0; shape-rendering: crispEdges; stroke-width: 2; }&#10;.thin-line { stroke: #1F0000; shape-rendering: crispEdges }&#10;.filled { fill: #320000; stroke: none; }&#10;text.terminal { font-family: HelveticaNeueCyr, Sans-serif;                            font-size: 14px;                            fill: #FFE0E0;                            font-weight: bold; }&#10;text.nonterminal { font-family: HelveticaNeueCyr, Sans-serif;                            font-size: 14px;                            fill: #FFE0E0;                            font-weight: normal; }&#10;text.regexp { font-family: HelveticaNeueCyr, Sans-serif;                            font-size: 14px;                            fill: #1F0000;                            font-weight: normal; }&#10;rect, circle, polygon { fill: #320000; stroke: #320000; }&#10;rect.terminal { fill: #FF0000; stroke: #320000; stroke-width: 1; }&#10;rect.nonterminal { fill: #FF3F3F; stroke: #320000; stroke-width: 1; }&#10;rect.text { fill: none; stroke: none; }&#10;polygon.regexp { fill: #FF5E5E; stroke: #320000; stroke-width: 1; }&#10;</style>
  </defs>
  <path
     id="polygon6"
     style="fill:#320000;stroke:#320000;stroke-width:0.838513"
     d="M 7.1273609,50.730065 0.41925651,47.376011 v 6.708107 z" />
  <path
     id="polygon8"
     style="fill:#320000;stroke:#320000;stroke-width:0.838513"
     d="M 13.835474,50.730065 7.1273609,47.376011 v 6.708107 z" />
  <path
     id="rect10"
     style="fill:#320000;stroke:#320000;stroke-width:0.838513"
     d="m 33.959797,38.990877 h 41.925662 c 4.64537,0 8.38514,3.739769 8.38514,8.385134 v 10.062161 c 0,4.645364 -3.73977,8.385134 -8.38514,8.385134 H 33.959797 c -4.64537,0 -8.38514,-3.73977 -8.38514,-8.385134 V 47.376011 c 0,-4.645365 3.73977,-8.385134 8.38514,-8.385134 z" />
  <path
     id="rect12"
     class="terminal"
     style="fill:#ff0000;stroke:#320000;stroke-width:0.838513"
     d="m 32.282771,37.313846 h 41.925662 c 4.64537,0 8.38514,3.739774 8.38514,8.385138 v 10.062161 c 0,4.645364 -3.73977,8.385134 -8.38514,8.385134 H 32.282771 c -4.64537,0 -8.38514,-3.73977 -8.38514,-8.385134 V 45.698984 c 0,-4.645364 3.73977,-8.385138 8.38514,-8.385138 z" />
  <g
     aria-label="SELECT"
     id="text14"
     class="terminal"
     style="font-weight:bold;font-size:14px;font-family:HelveticaNeueCyr, Sans-serif;fill:#ffe0e0"
     transform="matrix(0.8385134,0,0,0.8385134,-0.41925182,-0.41925692)">
    <path
       d="m 47.344,58 h -2.072 q -0.126,-1.484 -1.89,-1.484 -0.756,0 -1.19,0.308 -0.42,0.294 -0.42,0.826 0,0.182 0.056,0.322 0.056,0.14 0.21,0.266 0.154,0.112 0.308,0.196 0.154,0.07 0.448,0.168 0.308,0.084 0.546,0.154 0.252,0.07 0.7,0.182 0.448,0.112 0.784,0.21 1.47,0.42 2.184,1.05 0.728,0.63 0.728,1.806 0,0.854 -0.35,1.498 -0.35,0.63 -0.952,1.008 -0.588,0.364 -1.302,0.532 -0.7,0.182 -1.498,0.182 -2.03,0 -3.178,-0.924 -1.134,-0.938 -1.148,-2.632 h 2.17 q 0.056,1.876 2.254,1.876 0.854,0 1.344,-0.35 0.504,-0.364 0.504,-0.98 0,-0.518 -0.462,-0.756 Q 44.67,61.22 43.214,60.8 42.976,60.744 42.85,60.702 q -0.504,-0.14 -0.7,-0.196 -0.196,-0.07 -0.63,-0.224 -0.42,-0.154 -0.616,-0.28 -0.196,-0.126 -0.49,-0.35 -0.28,-0.224 -0.406,-0.462 -0.126,-0.252 -0.238,-0.602 -0.098,-0.364 -0.098,-0.784 0,-1.358 1.05,-2.17 1.05,-0.812 2.786,-0.812 1.68,0 2.744,0.798 1.064,0.784 1.092,2.38 z"
       id="path861" />
    <path
       d="m 56.528002,55.032 v 1.792 h -5.306 v 2.17 h 4.872 v 1.722 h -4.872 v 2.45 h 5.404 V 65 h -7.574 v -9.968 z"
       id="path863" />
    <path
       d="M 65.180012,63.124 V 65 h -7.056 v -9.968 h 2.184 v 8.092 z"
       id="path865" />
    <path
       d="m 73.902018,55.032 v 1.792 h -5.306 v 2.17 h 4.872 v 1.722 h -4.872 v 2.45 h 5.404 V 65 h -7.574 v -9.968 z"
       id="path867" />
    <path
       d="m 84.402028,61.15 q -0.168,1.876 -1.316,2.982 -1.148,1.106 -3.15,1.106 -2.17,0 -3.5,-1.428 -1.316,-1.442 -1.316,-3.808 0,-2.24 1.33,-3.724 1.344,-1.484 3.57,-1.484 1.778,0 2.982,1.008 1.204,1.008 1.33,2.562 h -2.142 q -0.168,-0.826 -0.756,-1.274 -0.574,-0.462 -1.456,-0.462 -0.91,0 -1.54,0.518 -0.616,0.504 -0.868,1.246 -0.252,0.742 -0.252,1.624 0,1.54 0.714,2.464 0.714,0.91 1.918,0.91 2.002,0 2.282,-2.24 z"
       id="path869" />
    <path
       d="m 93.278017,55.032 v 1.862 h -2.996 V 65 h -2.198 v -8.106 h -2.996 v -1.862 z"
       id="path871" />
  </g>
  <a
     xlink:href="#column"
     xlink:title="column"
     id="a22"
     transform="matrix(0.8385134,0,0,0.8385134,-0.41925182,-0.41925692)">
    <path
       id="rect16"
       style="fill:#320000;stroke:#320000"
       d="m 141,47 h 64 v 32 h -64 z" />
    <path
       id="rect18"
       class="nonterminal"
       style="fill:#ff3f3f;stroke:#320000"
       d="m 139,45 h 64 v 32 h -64 z" />
    <g
       aria-label="column"
       id="text20"
       class="nonterminal"
       style="font-size:14px;font-family:HelveticaNeueCyr, Sans-serif;fill:#ffe0e0">
      <path
         d="m 156.112,62.368 q -0.154,1.302 -0.994,2.072 -0.826,0.77 -2.156,0.77 -1.638,0 -2.534,-1.008 -0.896,-1.022 -0.896,-2.716 0,-1.806 0.938,-2.856 0.938,-1.064 2.534,-1.064 1.33,0 2.128,0.672 0.798,0.658 0.938,1.89 h -1.232 q -0.322,-1.568 -1.82,-1.568 -1.036,0 -1.638,0.77 -0.602,0.756 -0.602,2.058 0,1.316 0.574,2.072 0.574,0.756 1.582,0.756 0.812,0 1.316,-0.476 0.518,-0.476 0.658,-1.372 z"
         id="path848" />
      <path
         d="m 157.98801,58.602 q 0.952,-1.036 2.59,-1.036 1.638,0 2.548,0.994 0.91,0.994 0.91,2.786 0,1.834 -0.91,2.856 -0.91,1.022 -2.562,1.022 -1.652,0 -2.59,-1.008 -0.938,-1.008 -0.938,-2.8 0,-1.778 0.952,-2.814 z m 4.214,0.728 q -0.602,-0.77 -1.652,-0.77 -1.05,0 -1.666,0.77 -0.616,0.77 -0.616,2.058 0,1.33 0.602,2.086 0.616,0.742 1.708,0.742 1.05,0 1.638,-0.756 0.602,-0.756 0.602,-2.086 0,-1.288 -0.616,-2.044 z"
         id="path850" />
      <path
         d="M 166.71,55.032 V 65 h -1.204 v -9.968 z"
         id="path852" />
      <path
         d="M 174.55,57.776 V 65 h -1.106 v -1.134 q -0.924,1.33 -2.492,1.33 -1.148,0 -1.778,-0.63 -0.63,-0.63 -0.63,-1.82 v -4.97 h 1.19 v 4.648 q 0,0.854 0.322,1.302 0.336,0.434 1.19,0.434 2.114,0 2.114,-2.604 v -3.78 z"
         id="path854" />
      <path
         d="m 177.462,57.776 v 1.05 q 0.476,-0.644 1.022,-0.938 0.546,-0.294 1.33,-0.294 1.484,0 2.002,1.246 0.938,-1.26 2.394,-1.26 1.12,0 1.694,0.63 0.588,0.616 0.588,1.736 V 65 h -1.19 v -4.55 q 0,-0.896 -0.28,-1.344 -0.28,-0.462 -1.162,-0.462 -1.848,0 -1.848,2.254 V 65 h -1.19 v -4.634 q 0,-0.826 -0.28,-1.26 -0.266,-0.448 -1.05,-0.448 -1.106,0 -1.54,0.686 -0.42,0.672 -0.42,1.834 V 65 h -1.19 v -7.224 z"
         id="path856" />
      <path
         d="m 189.40401,57.776 v 1.12 q 0.896,-1.316 2.464,-1.316 1.274,0 1.834,0.672 0.574,0.658 0.574,1.946 V 65 h -1.19 v -4.256 q 0,-0.532 -0.042,-0.826 -0.028,-0.308 -0.168,-0.644 -0.14,-0.35 -0.476,-0.504 -0.336,-0.154 -0.868,-0.154 -2.058,0 -2.058,2.604 V 65 h -1.19 v -7.224 z"
         id="path858" />
    </g>
  </a>
  <path
     id="rect24"
     style="fill:#320000;stroke:#320000;stroke-width:0.838513"
     d="m 126.19624,2.0962833 h 3.3541 c 4.64535,0 8.38509,3.7397694 8.38509,8.3851337 v 10.062162 c 0,4.645364 -3.73974,8.385133 -8.38509,8.385133 h -3.3541 c -4.64535,0 -8.38509,-3.739769 -8.38509,-8.385133 V 10.481417 c 0,-4.6453643 3.73974,-8.3851337 8.38509,-8.3851337 z" />
  <path
     id="rect26"
     class="terminal"
     style="fill:#ff0000;stroke:#320000;stroke-width:0.838513"
     d="m 124.51928,0.41925651 h 3.35401 c 4.64534,0 8.38518,3.73977009 8.38518,8.38513439 V 18.866552 c 0,4.645364 -3.73984,8.385134 -8.38518,8.385134 h -3.35401 c -4.64544,0 -8.38518,-3.73977 -8.38518,-8.385134 V 8.8043909 c 0,-4.6453643 3.73974,-8.38513439 8.38518,-8.38513439 z" />
  <g
     aria-label=","
     id="text28"
     class="terminal"
     style="font-weight:bold;font-size:14px;font-family:HelveticaNeueCyr, Sans-serif;fill:#ffe0e0"
     transform="matrix(0.8385134,0,0,0.8385134,-0.41925182,-0.41925692)">
    <path
       d="m 152.052,18.816 v 1.778 q 0,1.218 -0.546,1.876 -0.532,0.672 -1.666,0.854 v -0.98 q 0.938,-0.28 0.994,-1.344 h -0.994 v -2.184 z"
       id="path841" />
  </g>
  <path
     id="rect30"
     style="fill:#320000;stroke:#320000;stroke-width:0.838513"
     d="m 213.40165,38.990877 h 33.54052 c 4.64544,0 8.38518,3.739769 8.38518,8.385134 v 10.062161 c 0,4.645364 -3.73974,8.385134 -8.38518,8.385134 h -33.54052 c -4.64534,0 -8.38508,-3.73977 -8.38508,-8.385134 V 47.376011 c 0,-4.645365 3.73974,-8.385134 8.38508,-8.385134 z" />
  <path
     id="rect32"
     class="terminal"
     style="fill:#ff0000;stroke:#320000;stroke-width:0.838513"
     d="m 211.72459,37.313846 h 33.54062 c 4.64534,0 8.38508,3.739774 8.38508,8.385138 v 10.062161 c 0,4.645364 -3.73974,8.385134 -8.38508,8.385134 h -33.54062 c -4.64534,0 -8.38508,-3.73977 -8.38508,-8.385134 V 45.698984 c 0,-4.645364 3.73974,-8.385138 8.38508,-8.385138 z" />
  <g
     aria-label="FROM"
     id="text34"
     class="terminal"
     style="font-weight:bold;font-size:14px;font-family:HelveticaNeueCyr, Sans-serif;fill:#ffe0e0"
     transform="matrix(0.8385134,0,0,0.8385134,-0.41925182,-0.41925692)">
    <path
       d="m 260.994,55.032 v 1.834 h -4.844 v 2.31 h 4.214 v 1.736 H 256.15 V 65 h -2.184 v -9.968 z"
       id="path830" />
    <path
       d="m 262.35201,55.032 h 4.956 q 1.484,0 2.422,0.7 0.938,0.7 0.938,2.128 0,0.868 -0.42,1.526 -0.42,0.644 -1.162,0.924 1.288,0.266 1.47,2.324 0,0.07 0.028,0.434 0.028,0.364 0.056,0.588 0.028,0.21 0.07,0.518 0.042,0.308 0.126,0.518 0.084,0.21 0.196,0.308 h -2.268 q -0.112,-0.224 -0.168,-0.56 -0.056,-0.35 -0.098,-0.882 -0.042,-0.546 -0.042,-0.602 -0.112,-1.05 -0.532,-1.456 -0.406,-0.406 -1.456,-0.406 h -1.946 V 65 h -2.17 z m 2.17,1.722 v 2.758 h 2.072 q 0.91,0 1.414,-0.28 0.518,-0.294 0.518,-1.134 0,-0.784 -0.504,-1.064 -0.49,-0.28 -1.33,-0.28 z"
       id="path832" />
    <path
       d="m 276.88401,54.794 q 2.184,0 3.528,1.456 1.358,1.442 1.358,3.78 0,2.338 -1.358,3.78 -1.344,1.428 -3.542,1.428 -2.212,0 -3.57,-1.428 -1.358,-1.442 -1.358,-3.78 0,-2.366 1.344,-3.794 1.358,-1.442 3.598,-1.442 z m -0.028,1.792 q -1.232,0 -1.974,0.924 -0.728,0.924 -0.728,2.478 0,1.61 0.728,2.52 0.728,0.91 2.002,0.924 1.246,0 1.96,-0.924 0.714,-0.924 0.714,-2.52 0,-1.568 -0.728,-2.478 -0.728,-0.924 -1.974,-0.924 z"
       id="path834" />
    <path
       d="m 283.26801,65 v -9.968 h 3.122 l 2.324,6.846 2.268,-6.846 h 3.052 V 65 h -2.058 v -7.084 l -2.45,7.084 h -1.694 l -2.478,-7.014 V 65 Z"
       id="path836" />
  </g>
  <a
     xlink:href="#table"
     xlink:title="table"
     id="a42"
     transform="matrix(0.8385134,0,0,0.8385134,-0.41925182,-0.41925692)">
    <path
       id="rect36"
       style="fill:#320000;stroke:#320000"
       d="m 249,113 h 52 v 32 h -52 z" />
    <path
       id="rect38"
       class="nonterminal"
       style="fill:#ff3f3f;stroke:#320000"
       d="m 247,111 h 52 v 32 h -52 z" />
    <g
       aria-label="table"
       id="text40"
       class="nonterminal"
       style="font-size:14px;font-family:HelveticaNeueCyr, Sans-serif;fill:#ffe0e0">
      <path
         d="m 260.99,123.776 v 0.98 h -1.442 v 4.214 q 0,0.35 0,0.462 0.014,0.112 0.084,0.308 0.07,0.182 0.238,0.238 0.168,0.056 0.476,0.056 0.266,0 0.644,-0.042 v 1.022 q -0.504,0.056 -0.91,0.056 -0.504,0 -0.84,-0.112 -0.336,-0.112 -0.518,-0.252 -0.168,-0.14 -0.252,-0.49 -0.084,-0.364 -0.098,-0.602 -0.014,-0.252 -0.014,-0.826 0,-0.126 0,-0.196 v -3.836 h -1.218 v -0.98 h 1.218 v -2.142 h 1.19 v 2.142 z"
         id="path819" />
      <path
         d="m 268.70401,130.048 v 0.924 q -0.364,0.14 -0.812,0.14 -1.022,0 -1.05,-1.064 -1.022,1.148 -2.618,1.148 -1.064,0 -1.694,-0.546 -0.616,-0.546 -0.616,-1.498 0,-1.932 2.562,-2.254 1.512,-0.182 1.75,-0.266 0.504,-0.168 0.546,-0.7 0.014,-0.084 0.014,-0.182 0,-1.19 -1.638,-1.19 -0.84,0 -1.274,0.35 -0.434,0.336 -0.518,1.12 h -1.162 q 0.028,-1.162 0.826,-1.806 0.798,-0.644 2.198,-0.644 1.526,0 2.268,0.7 0.238,0.224 0.35,0.588 0.112,0.364 0.126,0.602 0.014,0.224 0.014,0.686 0,0.546 -0.028,1.624 -0.028,1.064 -0.028,1.596 0,0.392 0.098,0.56 0.112,0.154 0.392,0.154 0.112,0 0.294,-0.042 z m -1.918,-2.8 q -0.126,0.098 -0.266,0.168 -0.14,0.07 -0.364,0.112 -0.21,0.042 -0.294,0.07 -0.07,0.014 -0.364,0.056 -0.294,0.028 -0.308,0.028 -0.434,0.056 -0.574,0.084 -0.126,0.014 -0.504,0.112 -0.364,0.098 -0.518,0.224 -0.154,0.126 -0.308,0.378 -0.14,0.238 -0.14,0.574 0,0.56 0.378,0.882 0.392,0.322 1.064,0.322 0.854,0 1.526,-0.504 0.672,-0.504 0.672,-1.19 z"
         id="path821" />
      <path
         d="m 271.00002,121.032 v 3.738 q 0.784,-1.19 2.394,-1.19 1.484,0 2.366,1.036 0.896,1.022 0.896,2.744 0,1.75 -0.91,2.8 -0.91,1.05 -2.422,1.05 -1.722,0 -2.394,-1.26 V 131 h -1.12 v -9.968 z m 2.212,3.556 q -1.148,0 -1.708,0.826 -0.546,0.826 -0.546,2.03 0,1.274 0.602,2.03 0.616,0.742 1.652,0.742 0.994,0 1.596,-0.77 0.616,-0.784 0.616,-2.072 0,-1.274 -0.602,-2.03 -0.602,-0.756 -1.61,-0.756 z"
         id="path823" />
      <path
         d="M 279.38602,121.032 V 131 h -1.204 v -9.968 z"
         id="path825" />
      <path
         d="m 287.40802,128.718 q -0.546,2.52 -3.15,2.52 -1.596,0 -2.506,-0.994 -0.896,-0.994 -0.896,-2.758 0,-1.75 0.924,-2.828 0.938,-1.092 2.436,-1.092 1.666,0 2.464,1.134 0.812,1.12 0.812,2.842 v 0.168 h -5.432 l -0.014,0.084 q 0,1.148 0.602,1.806 0.602,0.658 1.652,0.658 0.784,0 1.232,-0.364 0.462,-0.364 0.714,-1.176 z m -1.148,-1.974 q -0.084,-1.036 -0.63,-1.61 -0.546,-0.588 -1.442,-0.588 -0.868,0 -1.442,0.588 -0.574,0.588 -0.686,1.61 z"
         id="path827" />
    </g>
  </a>
  <path
     id="rect44"
     style="fill:#320000;stroke:#320000;stroke-width:0.838513"
     d="m 293.89894,121.16519 h 15.0933 c 4.64534,0 8.38508,3.73977 8.38508,8.38514 v 10.06216 c 0,4.64536 -3.73974,8.38513 -8.38508,8.38513 h -15.0933 c -4.64534,0 -8.38508,-3.73977 -8.38508,-8.38513 v -10.06216 c 0,-4.64537 3.73974,-8.38514 8.38508,-8.38514 z" />
  <path
     id="rect46"
     class="terminal"
     style="fill:#ff0000;stroke:#320000;stroke-width:0.838513"
     d="m 292.22189,119.48817 h 15.0933 c 4.64534,0 8.38508,3.73977 8.38508,8.38513 v 10.06217 c 0,4.64536 -3.73974,8.38513 -8.38508,8.38513 h -15.0933 c -4.64535,0 -8.38509,-3.73977 -8.38509,-8.38513 V 127.8733 c 0,-4.64536 3.73974,-8.38513 8.38509,-8.38513 z" />
  <g
     aria-label="AS"
     id="text48"
     class="terminal"
     style="font-weight:bold;font-size:14px;font-family:HelveticaNeueCyr, Sans-serif;fill:#ffe0e0"
     transform="matrix(0.8385134,0,0,0.8385134,-0.41925182,-0.41925692)">
    <path
       d="m 354.922,153.018 3.794,9.982 h -2.296 l -0.784,-2.226 h -3.71 L 351.114,163 h -2.24 l 3.794,-9.982 z m 0.182,6.16 -1.316,-3.71 -1.33,3.71 z"
       id="path810" />
    <path
       d="m 366.93399,156 h -2.072 q -0.126,-1.484 -1.89,-1.484 -0.756,0 -1.19,0.308 -0.42,0.294 -0.42,0.826 0,0.182 0.056,0.322 0.056,0.14 0.21,0.266 0.154,0.112 0.308,0.196 0.154,0.07 0.448,0.168 0.308,0.084 0.546,0.154 0.252,0.07 0.7,0.182 0.448,0.112 0.784,0.21 1.47,0.42 2.184,1.05 0.728,0.63 0.728,1.806 0,0.854 -0.35,1.498 -0.35,0.63 -0.952,1.008 -0.588,0.364 -1.302,0.532 -0.7,0.182 -1.498,0.182 -2.03,0 -3.178,-0.924 -1.134,-0.938 -1.148,-2.632 h 2.17 q 0.056,1.876 2.254,1.876 0.854,0 1.344,-0.35 0.504,-0.364 0.504,-0.98 0,-0.518 -0.462,-0.756 -0.448,-0.238 -1.904,-0.658 -0.238,-0.056 -0.364,-0.098 -0.504,-0.14 -0.7,-0.196 -0.196,-0.07 -0.63,-0.224 -0.42,-0.154 -0.616,-0.28 -0.196,-0.126 -0.49,-0.35 -0.28,-0.224 -0.406,-0.462 -0.126,-0.252 -0.238,-0.602 -0.098,-0.364 -0.098,-0.784 0,-1.358 1.05,-2.17 1.05,-0.812 2.786,-0.812 1.68,0 2.744,0.798 1.064,0.784 1.092,2.38 z"
       id="path812" />
  </g>
  <a
     xlink:href="#name"
     xlink:title="name"
     id="a56"
     transform="matrix(0.8385134,0,0,0.8385134,-0.41925182,-0.41925692)">
    <path
       id="rect50"
       style="fill:#320000;stroke:#320000"
       d="m 399,145 h 56 v 32 h -56 z" />
    <path
       id="rect52"
       class="nonterminal"
       style="fill:#ff3f3f;stroke:#320000"
       d="m 397,143 h 56 v 32 h -56 z" />
    <g
       aria-label="name"
       id="text54"
       class="nonterminal"
       style="font-size:14px;font-family:HelveticaNeueCyr, Sans-serif;fill:#ffe0e0">
      <path
         d="m 409.016,155.776 v 1.12 q 0.896,-1.316 2.464,-1.316 1.274,0 1.834,0.672 0.574,0.658 0.574,1.946 V 163 h -1.19 v -4.256 q 0,-0.532 -0.042,-0.826 -0.028,-0.308 -0.168,-0.644 -0.14,-0.35 -0.476,-0.504 -0.336,-0.154 -0.868,-0.154 -2.058,0 -2.058,2.604 V 163 h -1.19 v -7.224 z"
         id="path801" />
      <path
         d="m 422.078,162.048 v 0.924 q -0.364,0.14 -0.812,0.14 -1.022,0 -1.05,-1.064 -1.022,1.148 -2.618,1.148 -1.064,0 -1.694,-0.546 -0.616,-0.546 -0.616,-1.498 0,-1.932 2.562,-2.254 1.512,-0.182 1.75,-0.266 0.504,-0.168 0.546,-0.7 0.014,-0.084 0.014,-0.182 0,-1.19 -1.638,-1.19 -0.84,0 -1.274,0.35 -0.434,0.336 -0.518,1.12 h -1.162 q 0.028,-1.162 0.826,-1.806 0.798,-0.644 2.198,-0.644 1.526,0 2.268,0.7 0.238,0.224 0.35,0.588 0.112,0.364 0.126,0.602 0.014,0.224 0.014,0.686 0,0.546 -0.028,1.624 -0.028,1.064 -0.028,1.596 0,0.392 0.098,0.56 0.112,0.154 0.392,0.154 0.112,0 0.294,-0.042 z m -1.918,-2.8 q -0.126,0.098 -0.266,0.168 -0.14,0.07 -0.364,0.112 -0.21,0.042 -0.294,0.07 -0.07,0.014 -0.364,0.056 -0.294,0.028 -0.308,0.028 -0.434,0.056 -0.574,0.084 -0.126,0.014 -0.504,0.112 -0.364,0.098 -0.518,0.224 -0.154,0.126 -0.308,0.378 -0.14,0.238 -0.14,0.574 0,0.56 0.378,0.882 0.392,0.322 1.064,0.322 0.854,0 1.526,-0.504 0.672,-0.504 0.672,-1.19 z"
         id="path803" />
      <path
         d="m 424.31801,155.776 v 1.05 q 0.476,-0.644 1.022,-0.938 0.546,-0.294 1.33,-0.294 1.484,0 2.002,1.246 0.938,-1.26 2.394,-1.26 1.12,0 1.694,0.63 0.588,0.616 0.588,1.736 V 163 h -1.19 v -4.55 q 0,-0.896 -0.28,-1.344 -0.28,-0.462 -1.162,-0.462 -1.848,0 -1.848,2.254 V 163 h -1.19 v -4.634 q 0,-0.826 -0.28,-1.26 -0.266,-0.448 -1.05,-0.448 -1.106,0 -1.54,0.686 -0.42,0.672 -0.42,1.834 V 163 h -1.19 v -7.224 z"
         id="path805" />
      <path
         d="m 441.31401,160.718 q -0.546,2.52 -3.15,2.52 -1.596,0 -2.506,-0.994 -0.896,-0.994 -0.896,-2.758 0,-1.75 0.924,-2.828 0.938,-1.092 2.436,-1.092 1.666,0 2.464,1.134 0.812,1.12 0.812,2.842 v 0.168 h -5.432 l -0.014,0.084 q 0,1.148 0.602,1.806 0.602,0.658 1.652,0.658 0.784,0 1.232,-0.364 0.462,-0.364 0.714,-1.176 z m -1.148,-1.974 q -0.084,-1.036 -0.63,-1.61 -0.546,-0.588 -1.442,-0.588 -0.868,0 -1.442,0.588 -0.574,0.588 -0.686,1.61 z"
         id="path807" />
    </g>
  </a>
  <path
     id="rect58"
     style="fill:#320000;stroke:#320000;stroke-width:0.838513"
     d="m 216.75576,158.05979 h 5.03107 c 4.64534,0 8.38508,3.73977 8.38508,8.38513 v 10.06216 c 0,4.64537 -3.73974,8.38514 -8.38508,8.38514 h -5.03107 c -4.64544,0 -8.38518,-3.73977 -8.38518,-8.38514 v -10.06216 c 0,-4.64536 3.73974,-8.38513 8.38518,-8.38513 z" />
  <path
     id="rect60"
     class="terminal"
     style="fill:#ff0000;stroke:#320000;stroke-width:0.838513"
     d="m 215.0787,156.38276 h 5.03107 c 4.64534,0 8.38518,3.73977 8.38518,8.38513 v 10.06217 c 0,4.64536 -3.73984,8.38513 -8.38518,8.38513 h -5.03107 c -4.64534,0 -8.38517,-3.73977 -8.38517,-8.38513 v -10.06217 c 0,-4.64536 3.73983,-8.38513 8.38517,-8.38513 z" />
  <g
     aria-label="("
     id="text62"
     class="terminal"
     style="font-weight:bold;font-size:14px;font-family:HelveticaNeueCyr, Sans-serif;fill:#ffe0e0"
     transform="matrix(0.8385134,0,0,0.8385134,-0.41925182,-0.41925692)">
    <path
       d="m 261.228,196.878 q -0.812,1.624 -1.19,3.108 -0.364,1.484 -0.364,3.262 0,3.08 1.582,6.244 h -1.68 q -0.868,-1.316 -1.358,-2.954 -0.476,-1.638 -0.476,-3.248 0,-1.68 0.462,-3.388 0.476,-1.722 1.372,-3.024 z"
       id="path794" />
  </g>
  <a
     xlink:href="#select"
     xlink:title="SELECT"
     id="a70"
     transform="matrix(0.8385134,0,0,0.8385134,-0.41925182,-0.41925692)">
    <path
       id="rect64"
       style="fill:#320000;stroke:#320000"
       d="m 315,189 h 66 v 32 h -66 z" />
    <path
       id="rect66"
       class="nonterminal"
       style="fill:#ff3f3f;stroke:#320000"
       d="m 313,187 h 66 v 32 h -66 z" />
    <g
       aria-label="SELECT"
       id="text68"
       class="nonterminal"
       style="font-size:14px;font-family:HelveticaNeueCyr, Sans-serif;fill:#ffe0e0">
      <path
         d="m 331.162,199.958 h -1.274 q -0.21,-2.03 -2.478,-2.03 -1.078,0 -1.666,0.434 -0.588,0.434 -0.588,1.218 0,0.28 0.084,0.49 0.084,0.21 0.28,0.378 0.21,0.154 0.392,0.266 0.182,0.112 0.574,0.224 0.392,0.112 0.63,0.168 0.238,0.042 0.742,0.154 0.616,0.126 1.022,0.238 0.406,0.098 0.966,0.336 0.56,0.238 0.882,0.532 0.336,0.28 0.574,0.756 0.252,0.476 0.252,1.078 0,1.05 -0.588,1.764 -0.588,0.7 -1.428,0.98 -0.84,0.28 -1.862,0.28 -1.876,0 -3.01,-0.882 -1.12,-0.896 -1.12,-2.632 h 1.274 q 0.042,1.274 0.854,1.862 0.812,0.574 2.114,0.574 1.022,0 1.75,-0.42 0.728,-0.434 0.728,-1.4 0,-0.448 -0.196,-0.756 -0.196,-0.322 -0.616,-0.518 -0.42,-0.21 -0.84,-0.336 -0.42,-0.126 -1.106,-0.28 -0.098,-0.014 -0.14,-0.028 -1.54,-0.35 -2.016,-0.56 -1.456,-0.63 -1.456,-2.17 0,-1.428 1.05,-2.128 1.064,-0.714 2.562,-0.714 1.638,0 2.618,0.784 0.98,0.784 1.036,2.338 z"
         id="path781" />
      <path
         d="m 340.08001,197.032 v 1.148 h -5.586 v 3.122 h 5.222 v 1.106 h -5.222 v 3.444 h 5.656 V 207 h -6.972 v -9.968 z"
         id="path783" />
      <path
         d="M 348.35401,205.852 V 207 h -6.608 v -9.968 h 1.316 v 8.82 z"
         id="path785" />
      <path
         d="m 356.41801,197.032 v 1.148 h -5.586 v 3.122 h 5.222 v 1.106 h -5.222 v 3.444 h 5.656 V 207 h -6.972 v -9.968 z"
         id="path787" />
      <path
         d="m 366.51201,203.234 q -0.168,1.89 -1.316,2.954 -1.134,1.05 -2.996,1.05 -2.128,0 -3.374,-1.4 -1.246,-1.414 -1.246,-3.808 0,-2.24 1.246,-3.724 1.26,-1.498 3.472,-1.498 1.582,0 2.786,0.854 1.204,0.854 1.344,2.366 h -1.316 q -0.224,-0.98 -0.98,-1.526 -0.756,-0.56 -1.862,-0.56 -1.666,0 -2.52,1.176 -0.84,1.176 -0.84,2.898 0,1.904 0.896,2.996 0.896,1.092 2.45,1.092 1.274,0 2.03,-0.728 0.756,-0.742 0.91,-2.142 z"
         id="path789" />
      <path
         d="m 375.09401,197.032 v 1.148 h -3.346 V 207 h -1.316 v -8.82 h -3.346 v -1.148 z"
         id="path791" />
    </g>
  </a>
  <a
     xlink:href="#values"
     xlink:title="VALUES"
     id="a78"
     transform="matrix(0.8385134,0,0,0.8385134,-0.41925182,-0.41925692)">
    <path
       id="rect72"
       style="fill:#320000;stroke:#320000"
       d="m 315,233 h 68 v 32 h -68 z" />
    <path
       id="rect74"
       class="nonterminal"
       style="fill:#ff3f3f;stroke:#320000"
       d="m 313,231 h 68 v 32 h -68 z" />
    <g
       aria-label="VALUES"
       id="text76"
       class="nonterminal"
       style="font-size:14px;font-family:HelveticaNeueCyr, Sans-serif;fill:#ffe0e0">
      <path
         d="m 322.972,241.032 h 1.456 l 2.87,8.68 2.898,-8.68 h 1.386 L 328.026,251 h -1.512 z"
         id="path766" />
      <path
         d="m 336.20201,241.032 3.892,9.968 h -1.47 l -1.106,-3.052 h -4.186 l -1.134,3.052 h -1.4 l 3.92,-9.968 z m 0.924,5.866 -1.694,-4.606 -1.722,4.606 z"
         id="path768" />
      <path
         d="M 347.71002,249.852 V 251 h -6.608 v -9.968 h 1.316 v 8.82 z"
         id="path770" />
      <path
         d="m 348.80201,241.032 h 1.33 v 6.286 q 0,1.456 0.63,2.128 0.63,0.672 2.058,0.672 1.47,0 2.072,-0.686 0.616,-0.686 0.616,-2.114 v -6.286 h 1.33 v 5.936 q 0,2.184 -0.91,3.22 -0.91,1.022 -3.108,1.022 -2.128,0 -3.08,-0.994 -0.938,-1.008 -0.938,-3.108 z"
         id="path772" />
      <path
         d="m 365.88202,241.032 v 1.148 h -5.586 v 3.122 h 5.222 v 1.106 h -5.222 v 3.444 h 5.656 V 251 h -6.972 v -9.968 z"
         id="path774" />
      <path
         d="m 374.59002,243.958 h -1.274 q -0.21,-2.03 -2.478,-2.03 -1.078,0 -1.666,0.434 -0.588,0.434 -0.588,1.218 0,0.28 0.084,0.49 0.084,0.21 0.28,0.378 0.21,0.154 0.392,0.266 0.182,0.112 0.574,0.224 0.392,0.112 0.63,0.168 0.238,0.042 0.742,0.154 0.616,0.126 1.022,0.238 0.406,0.098 0.966,0.336 0.56,0.238 0.882,0.532 0.336,0.28 0.574,0.756 0.252,0.476 0.252,1.078 0,1.05 -0.588,1.764 -0.588,0.7 -1.428,0.98 -0.84,0.28 -1.862,0.28 -1.876,0 -3.01,-0.882 -1.12,-0.896 -1.12,-2.632 h 1.274 q 0.042,1.274 0.854,1.862 0.812,0.574 2.114,0.574 1.022,0 1.75,-0.42 0.728,-0.434 0.728,-1.4 0,-0.448 -0.196,-0.756 -0.196,-0.322 -0.616,-0.518 -0.42,-0.21 -0.84,-0.336 -0.42,-0.126 -1.106,-0.28 -0.098,-0.014 -0.14,-0.028 -1.54,-0.35 -2.016,-0.56 -1.456,-0.63 -1.456,-2.17 0,-1.428 1.05,-2.128 1.064,-0.714 2.562,-0.714 1.638,0 2.618,0.784 0.98,0.784 1.036,2.338 z"
         id="path776" />
    </g>
  </a>
  <path
     id="rect80"
     style="fill:#320000;stroke:#320000;stroke-width:0.838513"
     d="m 362.65704,158.05979 h 5.03107 c 4.64543,0 8.38518,3.73977 8.38518,8.38513 v 10.06216 c 0,4.64537 -3.73975,8.38514 -8.38518,8.38514 h -5.03107 c -4.64534,0 -8.38508,-3.73977 -8.38508,-8.38514 v -10.06216 c 0,-4.64536 3.73974,-8.38513 8.38508,-8.38513 z" />
  <path
     id="rect82"
     class="terminal"
     style="fill:#ff0000;stroke:#320000;stroke-width:0.838513"
     d="m 360.97998,156.38276 h 5.03117 c 4.64534,0 8.38508,3.73977 8.38508,8.38513 v 10.06217 c 0,4.64536 -3.73974,8.38513 -8.38508,8.38513 h -5.03117 c -4.64534,0 -8.38508,-3.73977 -8.38508,-8.38513 v -10.06217 c 0,-4.64536 3.73974,-8.38513 8.38508,-8.38513 z" />
  <g
     aria-label=")"
     id="text84"
     class="terminal"
     style="font-weight:bold;font-size:14px;font-family:HelveticaNeueCyr, Sans-serif;fill:#ffe0e0"
     transform="matrix(0.8385134,0,0,0.8385134,-0.41925182,-0.41925692)">
    <path
       d="m 430.944,196.878 h 1.652 q 1.862,2.856 1.862,6.23 0,1.582 -0.49,3.416 -0.49,1.834 -1.344,2.968 h -1.666 q 0.84,-1.708 1.19,-3.15 0.364,-1.456 0.364,-3.262 0,-3.388 -1.568,-6.202 z"
       id="path759" />
  </g>
  <path
     id="rect86"
     style="fill:#320000;stroke:#320000;stroke-width:0.838513"
     d="m 401.22863,158.05979 h 15.0933 c 4.64534,0 8.38508,3.73977 8.38508,8.38513 v 10.06216 c 0,4.64537 -3.73974,8.38514 -8.38508,8.38514 h -15.0933 c -4.64534,0 -8.38508,-3.73977 -8.38508,-8.38514 v -10.06216 c 0,-4.64536 3.73974,-8.38513 8.38508,-8.38513 z" />
  <path
     id="rect88"
     class="terminal"
     style="fill:#ff0000;stroke:#320000;stroke-width:0.838513"
     d="m 399.55167,156.38276 h 15.09321 c 4.64534,0 8.38517,3.73977 8.38517,8.38513 v 10.06217 c 0,4.64536 -3.73983,8.38513 -8.38517,8.38513 h -15.09321 c -4.64544,0 -8.38518,-3.73977 -8.38518,-8.38513 v -10.06217 c 0,-4.64536 3.73974,-8.38513 8.38518,-8.38513 z" />
  <g
     aria-label="AS"
     id="text90"
     class="terminal"
     style="font-weight:bold;font-size:14px;font-family:HelveticaNeueCyr, Sans-serif;fill:#ffe0e0"
     transform="matrix(0.8385134,0,0,0.8385134,-0.41925182,-0.41925692)">
    <path
       d="m 482.922,197.018 3.794,9.982 h -2.296 l -0.784,-2.226 h -3.71 L 479.114,207 h -2.24 l 3.794,-9.982 z m 0.182,6.16 -1.316,-3.71 -1.33,3.71 z"
       id="path752" />
    <path
       d="m 494.93399,200 h -2.072 q -0.126,-1.484 -1.89,-1.484 -0.756,0 -1.19,0.308 -0.42,0.294 -0.42,0.826 0,0.182 0.056,0.322 0.056,0.14 0.21,0.266 0.154,0.112 0.308,0.196 0.154,0.07 0.448,0.168 0.308,0.084 0.546,0.154 0.252,0.07 0.7,0.182 0.448,0.112 0.784,0.21 1.47,0.42 2.184,1.05 0.728,0.63 0.728,1.806 0,0.854 -0.35,1.498 -0.35,0.63 -0.952,1.008 -0.588,0.364 -1.302,0.532 -0.7,0.182 -1.498,0.182 -2.03,0 -3.178,-0.924 -1.134,-0.938 -1.148,-2.632 h 2.17 q 0.056,1.876 2.254,1.876 0.854,0 1.344,-0.35 0.504,-0.364 0.504,-0.98 0,-0.518 -0.462,-0.756 -0.448,-0.238 -1.904,-0.658 -0.238,-0.056 -0.364,-0.098 -0.504,-0.14 -0.7,-0.196 -0.196,-0.07 -0.63,-0.224 -0.42,-0.154 -0.616,-0.28 -0.196,-0.126 -0.49,-0.35 -0.28,-0.224 -0.406,-0.462 -0.126,-0.252 -0.238,-0.602 -0.098,-0.364 -0.098,-0.784 0,-1.358 1.05,-2.17 1.05,-0.812 2.786,-0.812 1.68,0 2.744,0.798 1.064,0.784 1.092,2.38 z"
       id="path754" />
  </g>
  <a
     xlink:href="#name"
     xlink:title="name"
     id="a98"
     transform="matrix(0.8385134,0,0,0.8385134,-0.41925182,-0.41925692)">
    <path
       id="rect92"
       style="fill:#320000;stroke:#320000"
       d="m 527,189 h 56 v 32 h -56 z" />
    <path
       id="rect94"
       class="nonterminal"
       style="fill:#ff3f3f;stroke:#320000"
       d="m 525,187 h 56 v 32 h -56 z" />
    <g
       aria-label="name"
       id="text96"
       class="nonterminal"
       style="font-size:14px;font-family:HelveticaNeueCyr, Sans-serif;fill:#ffe0e0">
      <path
         d="m 537.016,199.776 v 1.12 q 0.896,-1.316 2.464,-1.316 1.274,0 1.834,0.672 0.574,0.658 0.574,1.946 V 207 h -1.19 v -4.256 q 0,-0.532 -0.042,-0.826 -0.028,-0.308 -0.168,-0.644 -0.14,-0.35 -0.476,-0.504 -0.336,-0.154 -0.868,-0.154 -2.058,0 -2.058,2.604 V 207 h -1.19 v -7.224 z"
         id="path743" />
      <path
         d="m 550.078,206.048 v 0.924 q -0.364,0.14 -0.812,0.14 -1.022,0 -1.05,-1.064 -1.022,1.148 -2.618,1.148 -1.064,0 -1.694,-0.546 -0.616,-0.546 -0.616,-1.498 0,-1.932 2.562,-2.254 1.512,-0.182 1.75,-0.266 0.504,-0.168 0.546,-0.7 0.014,-0.084 0.014,-0.182 0,-1.19 -1.638,-1.19 -0.84,0 -1.274,0.35 -0.434,0.336 -0.518,1.12 h -1.162 q 0.028,-1.162 0.826,-1.806 0.798,-0.644 2.198,-0.644 1.526,0 2.268,0.7 0.238,0.224 0.35,0.588 0.112,0.364 0.126,0.602 0.014,0.224 0.014,0.686 0,0.546 -0.028,1.624 -0.028,1.064 -0.028,1.596 0,0.392 0.098,0.56 0.112,0.154 0.392,0.154 0.112,0 0.294,-0.042 z m -1.918,-2.8 q -0.126,0.098 -0.266,0.168 -0.14,0.07 -0.364,0.112 -0.21,0.042 -0.294,0.07 -0.07,0.014 -0.364,0.056 -0.294,0.028 -0.308,0.028 -0.434,0.056 -0.574,0.084 -0.126,0.014 -0.504,0.112 -0.364,0.098 -0.518,0.224 -0.154,0.126 -0.308,0.378 -0.14,0.238 -0.14,0.574 0,0.56 0.378,0.882 0.392,0.322 1.064,0.322 0.854,0 1.526,-0.504 0.672,-0.504 0.672,-1.19 z"
         id="path745" />
      <path
         d="m 552.31801,199.776 v 1.05 q 0.476,-0.644 1.022,-0.938 0.546,-0.294 1.33,-0.294 1.484,0 2.002,1.246 0.938,-1.26 2.394,-1.26 1.12,0 1.694,0.63 0.588,0.616 0.588,1.736 V 207 h -1.19 v -4.55 q 0,-0.896 -0.28,-1.344 -0.28,-0.462 -1.162,-0.462 -1.848,0 -1.848,2.254 V 207 h -1.19 v -4.634 q 0,-0.826 -0.28,-1.26 -0.266,-0.448 -1.05,-0.448 -1.106,0 -1.54,0.686 -0.42,0.672 -0.42,1.834 V 207 h -1.19 v -7.224 z"
         id="path747" />
      <path
         d="m 569.31401,204.718 q -0.546,2.52 -3.15,2.52 -1.596,0 -2.506,-0.994 -0.896,-0.994 -0.896,-2.758 0,-1.75 0.924,-2.828 0.938,-1.092 2.436,-1.092 1.666,0 2.464,1.134 0.812,1.12 0.812,2.842 v 0.168 h -5.432 l -0.014,0.084 q 0,1.148 0.602,1.806 0.602,0.658 1.652,0.658 0.784,0 1.232,-0.364 0.462,-0.364 0.714,-1.176 z m -1.148,-1.974 q -0.084,-1.036 -0.63,-1.61 -0.546,-0.588 -1.442,-0.588 -0.868,0 -1.442,0.588 -0.574,0.588 -0.686,1.61 z"
         id="path749" />
    </g>
  </a>
  <path
     id="rect100"
     style="fill:#320000;stroke:#320000;stroke-width:0.838513"
     d="m 62.46925,290.54491 h 36.894587 c 4.645343,0 8.385173,3.73977 8.385173,8.38513 v 10.06216 c 0,4.64536 -3.73983,8.38513 -8.385173,8.38513 H 62.46925 c -4.64536,0 -8.38513,-3.73977 -8.38513,-8.38513 v -10.06216 c 0,-4.64536 3.73977,-8.38513 8.38513,-8.38513 z" />
  <path
     id="rect102"
     class="terminal"
     style="fill:#ff0000;stroke:#320000;stroke-width:0.838513"
     d="m 60.792224,288.86788 h 36.894558 c 4.645438,0 8.385178,3.73977 8.385178,8.38513 v 10.06216 c 0,4.64537 -3.73974,8.38514 -8.385178,8.38514 H 60.792224 c -4.64537,0 -8.38514,-3.73977 -8.38514,-8.38514 v -10.06216 c 0,-4.64536 3.73977,-8.38513 8.38514,-8.38513 z" />
  <g
     aria-label="INNER"
     id="text104"
     class="terminal"
     style="font-weight:bold;font-size:14px;font-family:HelveticaNeueCyr, Sans-serif;fill:#ffe0e0"
     transform="matrix(0.8385134,0,0,0.8385134,-0.41925182,-0.41925692)">
    <path
       d="M 76.164,355.032 V 365 h -2.198 v -9.968 z"
       id="path728" />
    <path
       d="m 78.096001,365 v -9.968 h 2.226 l 4.102,6.678 v -6.678 h 2.1 V 365 h -2.184 l -4.13,-6.692 V 365 Z"
       id="path730" />
    <path
       d="m 88.46999,365 v -9.968 h 2.226 l 4.102,6.678 v -6.678 h 2.1 V 365 h -2.184 l -4.13,-6.692 V 365 Z"
       id="path732" />
    <path
       d="m 106.31998,355.032 v 1.792 h -5.306 v 2.17 h 4.872 v 1.722 h -4.872 v 2.45 h 5.404 V 365 h -7.574001 v -9.968 z"
       id="path734" />
    <path
       d="m 107.99999,355.032 h 4.956 q 1.484,0 2.422,0.7 0.938,0.7 0.938,2.128 0,0.868 -0.42,1.526 -0.42,0.644 -1.162,0.924 1.288,0.266 1.47,2.324 0,0.07 0.028,0.434 0.028,0.364 0.056,0.588 0.028,0.21 0.07,0.518 0.042,0.308 0.126,0.518 0.084,0.21 0.196,0.308 h -2.268 q -0.112,-0.224 -0.168,-0.56 -0.056,-0.35 -0.098,-0.882 -0.042,-0.546 -0.042,-0.602 -0.112,-1.05 -0.532,-1.456 -0.406,-0.406 -1.456,-0.406 h -1.946 V 365 h -2.17 z m 2.17,1.722 v 2.758 h 2.072 q 0.91,0 1.414,-0.28 0.518,-0.294 0.518,-1.134 0,-0.784 -0.504,-1.064 -0.49,-0.28 -1.33,-0.28 z"
       id="path736" />
  </g>
  <path
     id="rect106"
     style="fill:#320000;stroke:#320000;stroke-width:0.838513"
     d="m 149.67462,263.71247 h 28.50945 c 4.64544,0 8.38518,3.73977 8.38518,8.38514 v 10.06216 c 0,4.64537 -3.73974,8.38514 -8.38518,8.38514 h -28.50945 c -4.64534,0 -8.38508,-3.73977 -8.38508,-8.38514 v -10.06216 c 0,-4.64537 3.73974,-8.38514 8.38508,-8.38514 z" />
  <path
     id="rect108"
     class="terminal"
     style="fill:#ff0000;stroke:#320000;stroke-width:0.838513"
     d="m 147.99766,262.03544 h 28.50945 c 4.64534,0 8.38509,3.73977 8.38509,8.38514 v 10.06216 c 0,4.64537 -3.73975,8.38514 -8.38509,8.38514 h -28.50945 c -4.64544,0 -8.38518,-3.73977 -8.38518,-8.38514 v -10.06216 c 0,-4.64537 3.73974,-8.38514 8.38518,-8.38514 z" />
  <g
     aria-label="JOIN"
     id="text110"
     class="terminal"
     style="font-weight:bold;font-size:14px;font-family:HelveticaNeueCyr, Sans-serif;fill:#ffe0e0"
     transform="matrix(0.8385134,0,0,0.8385134,-0.41925182,-0.41925692)">
    <path
       d="m 183.972,323.032 v 6.846 q 0,3.36 -3.276,3.36 -1.582,0 -2.464,-0.826 -0.868,-0.826 -0.868,-2.478 v -0.658 h 2.016 v 0.308 q 0,0.378 0,0.574 0.014,0.182 0.07,0.49 0.07,0.294 0.196,0.448 0.126,0.14 0.364,0.266 0.252,0.112 0.616,0.112 0.392,0 0.63,-0.126 0.252,-0.126 0.364,-0.378 0.112,-0.266 0.14,-0.518 0.028,-0.252 0.028,-0.644 v -6.776 z"
       id="path717" />
    <path
       d="m 190.258,322.794 q 2.184,0 3.528,1.456 1.358,1.442 1.358,3.78 0,2.338 -1.358,3.78 -1.344,1.428 -3.542,1.428 -2.212,0 -3.57,-1.428 -1.358,-1.442 -1.358,-3.78 0,-2.366 1.344,-3.794 1.358,-1.442 3.598,-1.442 z m -0.028,1.792 q -1.232,0 -1.974,0.924 -0.728,0.924 -0.728,2.478 0,1.61 0.728,2.52 0.728,0.91 2.002,0.924 1.246,0 1.96,-0.924 0.714,-0.924 0.714,-2.52 0,-1.568 -0.728,-2.478 -0.728,-0.924 -1.974,-0.924 z"
       id="path719" />
    <path
       d="M 198.83999,323.032 V 333 h -2.198 v -9.968 z"
       id="path721" />
    <path
       d="m 200.772,333 v -9.968 h 2.226 l 4.102,6.678 v -6.678 h 2.1 V 333 h -2.184 l -4.13,-6.692 V 333 Z"
       id="path723" />
  </g>
  <a
     xlink:href="#table"
     xlink:title="table"
     id="a118"
     transform="matrix(0.8385134,0,0,0.8385134,-0.41925182,-0.41925692)">
    <path
       id="rect112"
       style="fill:#320000;stroke:#320000"
       d="m 263,315 h 52 v 32 h -52 z" />
    <path
       id="rect114"
       class="nonterminal"
       style="fill:#ff3f3f;stroke:#320000"
       d="m 261,313 h 52 v 32 h -52 z" />
    <g
       aria-label="table"
       id="text116"
       class="nonterminal"
       style="font-size:14px;font-family:HelveticaNeueCyr, Sans-serif;fill:#ffe0e0">
      <path
         d="m 274.99,325.776 v 0.98 h -1.442 v 4.214 q 0,0.35 0,0.462 0.014,0.112 0.084,0.308 0.07,0.182 0.238,0.238 0.168,0.056 0.476,0.056 0.266,0 0.644,-0.042 v 1.022 q -0.504,0.056 -0.91,0.056 -0.504,0 -0.84,-0.112 -0.336,-0.112 -0.518,-0.252 -0.168,-0.14 -0.252,-0.49 -0.084,-0.364 -0.098,-0.602 -0.014,-0.252 -0.014,-0.826 0,-0.126 0,-0.196 v -3.836 h -1.218 v -0.98 h 1.218 v -2.142 h 1.19 v 2.142 z"
         id="path706" />
      <path
         d="m 282.70401,332.048 v 0.924 q -0.364,0.14 -0.812,0.14 -1.022,0 -1.05,-1.064 -1.022,1.148 -2.618,1.148 -1.064,0 -1.694,-0.546 -0.616,-0.546 -0.616,-1.498 0,-1.932 2.562,-2.254 1.512,-0.182 1.75,-0.266 0.504,-0.168 0.546,-0.7 0.014,-0.084 0.014,-0.182 0,-1.19 -1.638,-1.19 -0.84,0 -1.274,0.35 -0.434,0.336 -0.518,1.12 h -1.162 q 0.028,-1.162 0.826,-1.806 0.798,-0.644 2.198,-0.644 1.526,0 2.268,0.7 0.238,0.224 0.35,0.588 0.112,0.364 0.126,0.602 0.014,0.224 0.014,0.686 0,0.546 -0.028,1.624 -0.028,1.064 -0.028,1.596 0,0.392 0.098,0.56 0.112,0.154 0.392,0.154 0.112,0 0.294,-0.042 z m -1.918,-2.8 q -0.126,0.098 -0.266,0.168 -0.14,0.07 -0.364,0.112 -0.21,0.042 -0.294,0.07 -0.07,0.014 -0.364,0.056 -0.294,0.028 -0.308,0.028 -0.434,0.056 -0.574,0.084 -0.126,0.014 -0.504,0.112 -0.364,0.098 -0.518,0.224 -0.154,0.126 -0.308,0.378 -0.14,0.238 -0.14,0.574 0,0.56 0.378,0.882 0.392,0.322 1.064,0.322 0.854,0 1.526,-0.504 0.672,-0.504 0.672,-1.19 z"
         id="path708" />
      <path
         d="m 285.00002,323.032 v 3.738 q 0.784,-1.19 2.394,-1.19 1.484,0 2.366,1.036 0.896,1.022 0.896,2.744 0,1.75 -0.91,2.8 -0.91,1.05 -2.422,1.05 -1.722,0 -2.394,-1.26 V 333 h -1.12 v -9.968 z m 2.212,3.556 q -1.148,0 -1.708,0.826 -0.546,0.826 -0.546,2.03 0,1.274 0.602,2.03 0.616,0.742 1.652,0.742 0.994,0 1.596,-0.77 0.616,-0.784 0.616,-2.072 0,-1.274 -0.602,-2.03 -0.602,-0.756 -1.61,-0.756 z"
         id="path710" />
      <path
         d="M 293.38602,323.032 V 333 h -1.204 v -9.968 z"
         id="path712" />
      <path
         d="m 301.40802,330.718 q -0.546,2.52 -3.15,2.52 -1.596,0 -2.506,-0.994 -0.896,-0.994 -0.896,-2.758 0,-1.75 0.924,-2.828 0.938,-1.092 2.436,-1.092 1.666,0 2.464,1.134 0.812,1.12 0.812,2.842 v 0.168 h -5.432 l -0.014,0.084 q 0,1.148 0.602,1.806 0.602,0.658 1.652,0.658 0.784,0 1.232,-0.364 0.462,-0.364 0.714,-1.176 z m -1.148,-1.974 q -0.084,-1.036 -0.63,-1.61 -0.546,-0.588 -1.442,-0.588 -0.868,0 -1.442,0.588 -0.574,0.588 -0.686,1.61 z"
         id="path714" />
    </g>
  </a>
  <path
     id="rect120"
     style="fill:#320000;stroke:#320000;stroke-width:0.838513"
     d="m 305.63813,290.54491 h 15.09321 c 4.64543,0 8.38518,3.73977 8.38518,8.38513 v 10.06216 c 0,4.64536 -3.73975,8.38513 -8.38518,8.38513 h -15.09321 c -4.64534,0 -8.38508,-3.73977 -8.38508,-8.38513 v -10.06216 c 0,-4.64536 3.73974,-8.38513 8.38508,-8.38513 z" />
  <path
     id="rect122"
     class="terminal"
     style="fill:#ff0000;stroke:#320000;stroke-width:0.838513"
     d="m 303.96108,288.86788 h 15.0933 c 4.64534,0 8.38508,3.73977 8.38508,8.38513 v 10.06216 c 0,4.64537 -3.73974,8.38514 -8.38508,8.38514 h -15.0933 c -4.64534,0 -8.38509,-3.73977 -8.38509,-8.38514 v -10.06216 c 0,-4.64536 3.73975,-8.38513 8.38509,-8.38513 z" />
  <g
     aria-label="AS"
     id="text124"
     class="terminal"
     style="font-weight:bold;font-size:14px;font-family:HelveticaNeueCyr, Sans-serif;fill:#ffe0e0"
     transform="matrix(0.8385134,0,0,0.8385134,-0.41925182,-0.41925692)">
    <path
       d="m 368.922,355.018 3.794,9.982 h -2.296 l -0.784,-2.226 h -3.71 L 365.114,365 h -2.24 l 3.794,-9.982 z m 0.182,6.16 -1.316,-3.71 -1.33,3.71 z"
       id="path697" />
    <path
       d="m 380.93399,358 h -2.072 q -0.126,-1.484 -1.89,-1.484 -0.756,0 -1.19,0.308 -0.42,0.294 -0.42,0.826 0,0.182 0.056,0.322 0.056,0.14 0.21,0.266 0.154,0.112 0.308,0.196 0.154,0.07 0.448,0.168 0.308,0.084 0.546,0.154 0.252,0.07 0.7,0.182 0.448,0.112 0.784,0.21 1.47,0.42 2.184,1.05 0.728,0.63 0.728,1.806 0,0.854 -0.35,1.498 -0.35,0.63 -0.952,1.008 -0.588,0.364 -1.302,0.532 -0.7,0.182 -1.498,0.182 -2.03,0 -3.178,-0.924 -1.134,-0.938 -1.148,-2.632 h 2.17 q 0.056,1.876 2.254,1.876 0.854,0 1.344,-0.35 0.504,-0.364 0.504,-0.98 0,-0.518 -0.462,-0.756 -0.448,-0.238 -1.904,-0.658 -0.238,-0.056 -0.364,-0.098 -0.504,-0.14 -0.7,-0.196 -0.196,-0.07 -0.63,-0.224 -0.42,-0.154 -0.616,-0.28 -0.196,-0.126 -0.49,-0.35 -0.28,-0.224 -0.406,-0.462 -0.126,-0.252 -0.238,-0.602 -0.098,-0.364 -0.098,-0.784 0,-1.358 1.05,-2.17 1.05,-0.812 2.786,-0.812 1.68,0 2.744,0.798 1.064,0.784 1.092,2.38 z"
       id="path699" />
  </g>
  <a
     xlink:href="#name"
     xlink:title="name"
     id="a132"
     transform="matrix(0.8385134,0,0,0.8385134,-0.41925182,-0.41925692)">
    <path
       id="rect126"
       style="fill:#320000;stroke:#320000"
       d="m 413,347 h 56 v 32 h -56 z" />
    <path
       id="rect128"
       class="nonterminal"
       style="fill:#ff3f3f;stroke:#320000"
       d="m 411,345 h 56 v 32 h -56 z" />
    <g
       aria-label="name"
       id="text130"
       class="nonterminal"
       style="font-size:14px;font-family:HelveticaNeueCyr, Sans-serif;fill:#ffe0e0">
      <path
         d="m 423.016,357.776 v 1.12 q 0.896,-1.316 2.464,-1.316 1.274,0 1.834,0.672 0.574,0.658 0.574,1.946 V 365 h -1.19 v -4.256 q 0,-0.532 -0.042,-0.826 -0.028,-0.308 -0.168,-0.644 -0.14,-0.35 -0.476,-0.504 -0.336,-0.154 -0.868,-0.154 -2.058,0 -2.058,2.604 V 365 h -1.19 v -7.224 z"
         id="path688" />
      <path
         d="m 436.078,364.048 v 0.924 q -0.364,0.14 -0.812,0.14 -1.022,0 -1.05,-1.064 -1.022,1.148 -2.618,1.148 -1.064,0 -1.694,-0.546 -0.616,-0.546 -0.616,-1.498 0,-1.932 2.562,-2.254 1.512,-0.182 1.75,-0.266 0.504,-0.168 0.546,-0.7 0.014,-0.084 0.014,-0.182 0,-1.19 -1.638,-1.19 -0.84,0 -1.274,0.35 -0.434,0.336 -0.518,1.12 h -1.162 q 0.028,-1.162 0.826,-1.806 0.798,-0.644 2.198,-0.644 1.526,0 2.268,0.7 0.238,0.224 0.35,0.588 0.112,0.364 0.126,0.602 0.014,0.224 0.014,0.686 0,0.546 -0.028,1.624 -0.028,1.064 -0.028,1.596 0,0.392 0.098,0.56 0.112,0.154 0.392,0.154 0.112,0 0.294,-0.042 z m -1.918,-2.8 q -0.126,0.098 -0.266,0.168 -0.14,0.07 -0.364,0.112 -0.21,0.042 -0.294,0.07 -0.07,0.014 -0.364,0.056 -0.294,0.028 -0.308,0.028 -0.434,0.056 -0.574,0.084 -0.126,0.014 -0.504,0.112 -0.364,0.098 -0.518,0.224 -0.154,0.126 -0.308,0.378 -0.14,0.238 -0.14,0.574 0,0.56 0.378,0.882 0.392,0.322 1.064,0.322 0.854,0 1.526,-0.504 0.672,-0.504 0.672,-1.19 z"
         id="path690" />
      <path
         d="m 438.31801,357.776 v 1.05 q 0.476,-0.644 1.022,-0.938 0.546,-0.294 1.33,-0.294 1.484,0 2.002,1.246 0.938,-1.26 2.394,-1.26 1.12,0 1.694,0.63 0.588,0.616 0.588,1.736 V 365 h -1.19 v -4.55 q 0,-0.896 -0.28,-1.344 -0.28,-0.462 -1.162,-0.462 -1.848,0 -1.848,2.254 V 365 h -1.19 v -4.634 q 0,-0.826 -0.28,-1.26 -0.266,-0.448 -1.05,-0.448 -1.106,0 -1.54,0.686 -0.42,0.672 -0.42,1.834 V 365 h -1.19 v -7.224 z"
         id="path692" />
      <path
         d="m 455.31401,362.718 q -0.546,2.52 -3.15,2.52 -1.596,0 -2.506,-0.994 -0.896,-0.994 -0.896,-2.758 0,-1.75 0.924,-2.828 0.938,-1.092 2.436,-1.092 1.666,0 2.464,1.134 0.812,1.12 0.812,2.842 v 0.168 h -5.432 l -0.014,0.084 q 0,1.148 0.602,1.806 0.602,0.658 1.652,0.658 0.784,0 1.232,-0.364 0.462,-0.364 0.714,-1.176 z m -1.148,-1.974 q -0.084,-1.036 -0.63,-1.61 -0.546,-0.588 -1.442,-0.588 -0.868,0 -1.442,0.588 -0.574,0.588 -0.686,1.61 z"
         id="path694" />
    </g>
  </a>
  <path
     id="rect134"
     style="fill:#320000;stroke:#320000;stroke-width:0.838513"
     d="m 228.49495,327.43949 h 5.03107 c 4.64534,0 8.38508,3.73977 8.38508,8.38514 v 10.06216 c 0,4.64537 -3.73974,8.38514 -8.38508,8.38514 h -5.03107 c -4.64544,0 -8.38518,-3.73977 -8.38518,-8.38514 v -10.06216 c 0,-4.64537 3.73974,-8.38514 8.38518,-8.38514 z" />
  <path
     id="rect136"
     class="terminal"
     style="fill:#ff0000;stroke:#320000;stroke-width:0.838513"
     d="m 226.8179,325.76246 h 5.03106 c 4.64535,0 8.38509,3.73977 8.38509,8.38514 v 10.06216 c 0,4.64536 -3.73974,8.38513 -8.38509,8.38513 h -5.03106 c -4.64535,0 -8.38518,-3.73977 -8.38518,-8.38513 V 334.1476 c 0,-4.64537 3.73983,-8.38514 8.38518,-8.38514 z" />
  <g
     aria-label="("
     id="text138"
     class="terminal"
     style="font-weight:bold;font-size:14px;font-family:HelveticaNeueCyr, Sans-serif;fill:#ffe0e0"
     transform="matrix(0.8385134,0,0,0.8385134,-0.41925182,-0.41925692)">
    <path
       d="m 275.228,398.878 q -0.812,1.624 -1.19,3.108 -0.364,1.484 -0.364,3.262 0,3.08 1.582,6.244 h -1.68 q -0.868,-1.316 -1.358,-2.954 -0.476,-1.638 -0.476,-3.248 0,-1.68 0.462,-3.388 0.476,-1.722 1.372,-3.024 z"
       id="path681" />
  </g>
  <a
     xlink:href="#select"
     xlink:title="SELECT"
     id="a146"
     transform="matrix(0.8385134,0,0,0.8385134,-0.41925182,-0.41925692)">
    <path
       id="rect140"
       style="fill:#320000;stroke:#320000"
       d="m 329,391 h 66 v 32 h -66 z" />
    <path
       id="rect142"
       class="nonterminal"
       style="fill:#ff3f3f;stroke:#320000"
       d="m 327,389 h 66 v 32 h -66 z" />
    <g
       aria-label="SELECT"
       id="text144"
       class="nonterminal"
       style="font-size:14px;font-family:HelveticaNeueCyr, Sans-serif;fill:#ffe0e0">
      <path
         d="m 345.162,401.958 h -1.274 q -0.21,-2.03 -2.478,-2.03 -1.078,0 -1.666,0.434 -0.588,0.434 -0.588,1.218 0,0.28 0.084,0.49 0.084,0.21 0.28,0.378 0.21,0.154 0.392,0.266 0.182,0.112 0.574,0.224 0.392,0.112 0.63,0.168 0.238,0.042 0.742,0.154 0.616,0.126 1.022,0.238 0.406,0.098 0.966,0.336 0.56,0.238 0.882,0.532 0.336,0.28 0.574,0.756 0.252,0.476 0.252,1.078 0,1.05 -0.588,1.764 -0.588,0.7 -1.428,0.98 -0.84,0.28 -1.862,0.28 -1.876,0 -3.01,-0.882 -1.12,-0.896 -1.12,-2.632 h 1.274 q 0.042,1.274 0.854,1.862 0.812,0.574 2.114,0.574 1.022,0 1.75,-0.42 0.728,-0.434 0.728,-1.4 0,-0.448 -0.196,-0.756 -0.196,-0.322 -0.616,-0.518 -0.42,-0.21 -0.84,-0.336 -0.42,-0.126 -1.106,-0.28 -0.098,-0.014 -0.14,-0.028 -1.54,-0.35 -2.016,-0.56 -1.456,-0.63 -1.456,-2.17 0,-1.428 1.05,-2.128 1.064,-0.714 2.562,-0.714 1.638,0 2.618,0.784 0.98,0.784 1.036,2.338 z"
         id="path668" />
      <path
         d="m 354.08001,399.032 v 1.148 h -5.586 v 3.122 h 5.222 v 1.106 h -5.222 v 3.444 h 5.656 V 409 h -6.972 v -9.968 z"
         id="path670" />
      <path
         d="M 362.35401,407.852 V 409 h -6.608 v -9.968 h 1.316 v 8.82 z"
         id="path672" />
      <path
         d="m 370.41801,399.032 v 1.148 h -5.586 v 3.122 h 5.222 v 1.106 h -5.222 v 3.444 h 5.656 V 409 h -6.972 v -9.968 z"
         id="path674" />
      <path
         d="m 380.51201,405.234 q -0.168,1.89 -1.316,2.954 -1.134,1.05 -2.996,1.05 -2.128,0 -3.374,-1.4 -1.246,-1.414 -1.246,-3.808 0,-2.24 1.246,-3.724 1.26,-1.498 3.472,-1.498 1.582,0 2.786,0.854 1.204,0.854 1.344,2.366 h -1.316 q -0.224,-0.98 -0.98,-1.526 -0.756,-0.56 -1.862,-0.56 -1.666,0 -2.52,1.176 -0.84,1.176 -0.84,2.898 0,1.904 0.896,2.996 0.896,1.092 2.45,1.092 1.274,0 2.03,-0.728 0.756,-0.742 0.91,-2.142 z"
         id="path676" />
      <path
         d="m 389.09401,399.032 v 1.148 h -3.346 V 409 h -1.316 v -8.82 h -3.346 v -1.148 z"
         id="path678" />
    </g>
  </a>
  <a
     xlink:href="#values"
     xlink:title="VALUES"
     id="a154"
     transform="matrix(0.8385134,0,0,0.8385134,-0.41925182,-0.41925692)">
    <path
       id="rect148"
       style="fill:#320000;stroke:#320000"
       d="m 329,435 h 68 v 32 h -68 z" />
    <path
       id="rect150"
       class="nonterminal"
       style="fill:#ff3f3f;stroke:#320000"
       d="m 327,433 h 68 v 32 h -68 z" />
    <g
       aria-label="VALUES"
       id="text152"
       class="nonterminal"
       style="font-size:14px;font-family:HelveticaNeueCyr, Sans-serif;fill:#ffe0e0">
      <path
         d="m 336.972,443.032 h 1.456 l 2.87,8.68 2.898,-8.68 h 1.386 L 342.026,453 h -1.512 z"
         id="path653" />
      <path
         d="m 350.20201,443.032 3.892,9.968 h -1.47 l -1.106,-3.052 h -4.186 l -1.134,3.052 h -1.4 l 3.92,-9.968 z m 0.924,5.866 -1.694,-4.606 -1.722,4.606 z"
         id="path655" />
      <path
         d="M 361.71002,451.852 V 453 h -6.608 v -9.968 h 1.316 v 8.82 z"
         id="path657" />
      <path
         d="m 362.80201,443.032 h 1.33 v 6.286 q 0,1.456 0.63,2.128 0.63,0.672 2.058,0.672 1.47,0 2.072,-0.686 0.616,-0.686 0.616,-2.114 v -6.286 h 1.33 v 5.936 q 0,2.184 -0.91,3.22 -0.91,1.022 -3.108,1.022 -2.128,0 -3.08,-0.994 -0.938,-1.008 -0.938,-3.108 z"
         id="path659" />
      <path
         d="m 379.88202,443.032 v 1.148 h -5.586 v 3.122 h 5.222 v 1.106 h -5.222 v 3.444 h 5.656 V 453 h -6.972 v -9.968 z"
         id="path661" />
      <path
         d="m 388.59002,445.958 h -1.274 q -0.21,-2.03 -2.478,-2.03 -1.078,0 -1.666,0.434 -0.588,0.434 -0.588,1.218 0,0.28 0.084,0.49 0.084,0.21 0.28,0.378 0.21,0.154 0.392,0.266 0.182,0.112 0.574,0.224 0.392,0.112 0.63,0.168 0.238,0.042 0.742,0.154 0.616,0.126 1.022,0.238 0.406,0.098 0.966,0.336 0.56,0.238 0.882,0.532 0.336,0.28 0.574,0.756 0.252,0.476 0.252,1.078 0,1.05 -0.588,1.764 -0.588,0.7 -1.428,0.98 -0.84,0.28 -1.862,0.28 -1.876,0 -3.01,-0.882 -1.12,-0.896 -1.12,-2.632 h 1.274 q 0.042,1.274 0.854,1.862 0.812,0.574 2.114,0.574 1.022,0 1.75,-0.42 0.728,-0.434 0.728,-1.4 0,-0.448 -0.196,-0.756 -0.196,-0.322 -0.616,-0.518 -0.42,-0.21 -0.84,-0.336 -0.42,-0.126 -1.106,-0.28 -0.098,-0.014 -0.14,-0.028 -1.54,-0.35 -2.016,-0.56 -1.456,-0.63 -1.456,-2.17 0,-1.428 1.05,-2.128 1.064,-0.714 2.562,-0.714 1.638,0 2.618,0.784 0.98,0.784 1.036,2.338 z"
         id="path663" />
    </g>
  </a>
  <path
     id="rect156"
     style="fill:#320000;stroke:#320000;stroke-width:0.838513"
     d="m 374.39623,327.43949 h 5.03107 c 4.64534,0 8.38518,3.73977 8.38518,8.38514 v 10.06216 c 0,4.64537 -3.73984,8.38514 -8.38518,8.38514 h -5.03107 c -4.64534,0 -8.38508,-3.73977 -8.38508,-8.38514 v -10.06216 c 0,-4.64537 3.73974,-8.38514 8.38508,-8.38514 z" />
  <path
     id="rect158"
     class="terminal"
     style="fill:#ff0000;stroke:#320000;stroke-width:0.838513"
     d="m 372.71918,325.76246 h 5.03116 c 4.64534,0 8.38508,3.73977 8.38508,8.38514 v 10.06216 c 0,4.64536 -3.73974,8.38513 -8.38508,8.38513 h -5.03116 c -4.64535,0 -8.38509,-3.73977 -8.38509,-8.38513 V 334.1476 c 0,-4.64537 3.73974,-8.38514 8.38509,-8.38514 z" />
  <g
     aria-label=")"
     id="text160"
     class="terminal"
     style="font-weight:bold;font-size:14px;font-family:HelveticaNeueCyr, Sans-serif;fill:#ffe0e0"
     transform="matrix(0.8385134,0,0,0.8385134,-0.41925182,-0.41925692)">
    <path
       d="m 444.944,398.878 h 1.652 q 1.862,2.856 1.862,6.23 0,1.582 -0.49,3.416 -0.49,1.834 -1.344,2.968 h -1.666 q 0.84,-1.708 1.19,-3.15 0.364,-1.456 0.364,-3.262 0,-3.388 -1.568,-6.202 z"
       id="path646" />
  </g>
  <path
     id="rect162"
     style="fill:#320000;stroke:#320000;stroke-width:0.838513"
     d="m 412.96782,327.43949 h 15.0933 c 4.64534,0 8.38509,3.73977 8.38509,8.38514 v 10.06216 c 0,4.64537 -3.73975,8.38514 -8.38509,8.38514 h -15.0933 c -4.64534,0 -8.38508,-3.73977 -8.38508,-8.38514 v -10.06216 c 0,-4.64537 3.73974,-8.38514 8.38508,-8.38514 z" />
  <path
     id="rect164"
     class="terminal"
     style="fill:#ff0000;stroke:#320000;stroke-width:0.838513"
     d="m 411.29086,325.76246 h 15.09321 c 4.64534,0 8.38518,3.73977 8.38518,8.38514 v 10.06216 c 0,4.64536 -3.73984,8.38513 -8.38518,8.38513 h -15.09321 c -4.64543,0 -8.38518,-3.73977 -8.38518,-8.38513 V 334.1476 c 0,-4.64537 3.73975,-8.38514 8.38518,-8.38514 z" />
  <g
     aria-label="AS"
     id="text166"
     class="terminal"
     style="font-weight:bold;font-size:14px;font-family:HelveticaNeueCyr, Sans-serif;fill:#ffe0e0"
     transform="matrix(0.8385134,0,0,0.8385134,-0.41925182,-0.41925692)">
    <path
       d="m 496.922,399.018 3.794,9.982 h -2.296 l -0.784,-2.226 h -3.71 L 493.114,409 h -2.24 l 3.794,-9.982 z m 0.182,6.16 -1.316,-3.71 -1.33,3.71 z"
       id="path639" />
    <path
       d="m 508.93399,402 h -2.072 q -0.126,-1.484 -1.89,-1.484 -0.756,0 -1.19,0.308 -0.42,0.294 -0.42,0.826 0,0.182 0.056,0.322 0.056,0.14 0.21,0.266 0.154,0.112 0.308,0.196 0.154,0.07 0.448,0.168 0.308,0.084 0.546,0.154 0.252,0.07 0.7,0.182 0.448,0.112 0.784,0.21 1.47,0.42 2.184,1.05 0.728,0.63 0.728,1.806 0,0.854 -0.35,1.498 -0.35,0.63 -0.952,1.008 -0.588,0.364 -1.302,0.532 -0.7,0.182 -1.498,0.182 -2.03,0 -3.178,-0.924 -1.134,-0.938 -1.148,-2.632 h 2.17 q 0.056,1.876 2.254,1.876 0.854,0 1.344,-0.35 0.504,-0.364 0.504,-0.98 0,-0.518 -0.462,-0.756 -0.448,-0.238 -1.904,-0.658 -0.238,-0.056 -0.364,-0.098 -0.504,-0.14 -0.7,-0.196 -0.196,-0.07 -0.63,-0.224 -0.42,-0.154 -0.616,-0.28 -0.196,-0.126 -0.49,-0.35 -0.28,-0.224 -0.406,-0.462 -0.126,-0.252 -0.238,-0.602 -0.098,-0.364 -0.098,-0.784 0,-1.358 1.05,-2.17 1.05,-0.812 2.786,-0.812 1.68,0 2.744,0.798 1.064,0.784 1.092,2.38 z"
       id="path641" />
  </g>
  <a
     xlink:href="#name"
     xlink:title="name"
     id="a174"
     transform="matrix(0.8385134,0,0,0.8385134,-0.41925182,-0.41925692)">
    <path
       id="rect168"
       style="fill:#320000;stroke:#320000"
       d="m 541,391 h 56 v 32 h -56 z" />
    <path
       id="rect170"
       class="nonterminal"
       style="fill:#ff3f3f;stroke:#320000"
       d="m 539,389 h 56 v 32 h -56 z" />
    <g
       aria-label="name"
       id="text172"
       class="nonterminal"
       style="font-size:14px;font-family:HelveticaNeueCyr, Sans-serif;fill:#ffe0e0">
      <path
         d="m 551.016,401.776 v 1.12 q 0.896,-1.316 2.464,-1.316 1.274,0 1.834,0.672 0.574,0.658 0.574,1.946 V 409 h -1.19 v -4.256 q 0,-0.532 -0.042,-0.826 -0.028,-0.308 -0.168,-0.644 -0.14,-0.35 -0.476,-0.504 -0.336,-0.154 -0.868,-0.154 -2.058,0 -2.058,2.604 V 409 h -1.19 v -7.224 z"
         id="path630" />
      <path
         d="m 564.078,408.048 v 0.924 q -0.364,0.14 -0.812,0.14 -1.022,0 -1.05,-1.064 -1.022,1.148 -2.618,1.148 -1.064,0 -1.694,-0.546 -0.616,-0.546 -0.616,-1.498 0,-1.932 2.562,-2.254 1.512,-0.182 1.75,-0.266 0.504,-0.168 0.546,-0.7 0.014,-0.084 0.014,-0.182 0,-1.19 -1.638,-1.19 -0.84,0 -1.274,0.35 -0.434,0.336 -0.518,1.12 h -1.162 q 0.028,-1.162 0.826,-1.806 0.798,-0.644 2.198,-0.644 1.526,0 2.268,0.7 0.238,0.224 0.35,0.588 0.112,0.364 0.126,0.602 0.014,0.224 0.014,0.686 0,0.546 -0.028,1.624 -0.028,1.064 -0.028,1.596 0,0.392 0.098,0.56 0.112,0.154 0.392,0.154 0.112,0 0.294,-0.042 z m -1.918,-2.8 q -0.126,0.098 -0.266,0.168 -0.14,0.07 -0.364,0.112 -0.21,0.042 -0.294,0.07 -0.07,0.014 -0.364,0.056 -0.294,0.028 -0.308,0.028 -0.434,0.056 -0.574,0.084 -0.126,0.014 -0.504,0.112 -0.364,0.098 -0.518,0.224 -0.154,0.126 -0.308,0.378 -0.14,0.238 -0.14,0.574 0,0.56 0.378,0.882 0.392,0.322 1.064,0.322 0.854,0 1.526,-0.504 0.672,-0.504 0.672,-1.19 z"
         id="path632" />
      <path
         d="m 566.31801,401.776 v 1.05 q 0.476,-0.644 1.022,-0.938 0.546,-0.294 1.33,-0.294 1.484,0 2.002,1.246 0.938,-1.26 2.394,-1.26 1.12,0 1.694,0.63 0.588,0.616 0.588,1.736 V 409 h -1.19 v -4.55 q 0,-0.896 -0.28,-1.344 -0.28,-0.462 -1.162,-0.462 -1.848,0 -1.848,2.254 V 409 h -1.19 v -4.634 q 0,-0.826 -0.28,-1.26 -0.266,-0.448 -1.05,-0.448 -1.106,0 -1.54,0.686 -0.42,0.672 -0.42,1.834 V 409 h -1.19 v -7.224 z"
         id="path634" />
      <path
         d="m 583.31401,406.718 q -0.546,2.52 -3.15,2.52 -1.596,0 -2.506,-0.994 -0.896,-0.994 -0.896,-2.758 0,-1.75 0.924,-2.828 0.938,-1.092 2.436,-1.092 1.666,0 2.464,1.134 0.812,1.12 0.812,2.842 v 0.168 h -5.432 l -0.014,0.084 q 0,1.148 0.602,1.806 0.602,0.658 1.652,0.658 0.784,0 1.232,-0.364 0.462,-0.364 0.714,-1.176 z m -1.148,-1.974 q -0.084,-1.036 -0.63,-1.61 -0.546,-0.588 -1.442,-0.588 -0.868,0 -1.442,0.588 -0.574,0.588 -0.686,1.61 z"
         id="path636" />
    </g>
  </a>
  <path
     id="rect176"
     style="fill:#320000;stroke:#320000;stroke-width:0.838513"
     d="m 542.09894,263.71247 h 16.77026 c 4.64534,0 8.38508,3.73977 8.38508,8.38514 v 10.06216 c 0,4.64537 -3.73974,8.38514 -8.38508,8.38514 h -16.77026 c -4.64535,0 -8.38518,-3.73977 -8.38518,-8.38514 v -10.06216 c 0,-4.64537 3.73983,-8.38514 8.38518,-8.38514 z" />
  <path
     id="rect178"
     class="terminal"
     style="fill:#ff0000;stroke:#320000;stroke-width:0.838513"
     d="m 540.42188,262.03544 h 16.77026 c 4.64534,0 8.38518,3.73977 8.38518,8.38514 v 10.06216 c 0,4.64537 -3.73984,8.38514 -8.38518,8.38514 h -16.77026 c -4.64534,0 -8.38508,-3.73977 -8.38508,-8.38514 v -10.06216 c 0,-4.64537 3.73974,-8.38514 8.38508,-8.38514 z" />
  <g
     aria-label="ON"
     id="text180"
     class="terminal"
     style="font-weight:bold;font-size:14px;font-family:HelveticaNeueCyr, Sans-serif;fill:#ffe0e0"
     transform="matrix(0.8385134,0,0,0.8385134,-0.41925182,-0.41925692)">
    <path
       d="m 650.474,322.794 q 2.184,0 3.528,1.456 1.358,1.442 1.358,3.78 0,2.338 -1.358,3.78 -1.344,1.428 -3.542,1.428 -2.212,0 -3.57,-1.428 -1.358,-1.442 -1.358,-3.78 0,-2.366 1.344,-3.794 1.358,-1.442 3.598,-1.442 z m -0.028,1.792 q -1.232,0 -1.974,0.924 -0.728,0.924 -0.728,2.478 0,1.61 0.728,2.52 0.728,0.91 2.002,0.924 1.246,0 1.96,-0.924 0.714,-0.924 0.714,-2.52 0,-1.568 -0.728,-2.478 -0.728,-0.924 -1.974,-0.924 z"
       id="path621" />
    <path
       d="m 656.858,333 v -9.968 h 2.226 l 4.102,6.678 v -6.678 h 2.1 V 333 h -2.184 l -4.13,-6.692 V 333 Z"
       id="path623" />
  </g>
  <a
     xlink:href="#expression"
     xlink:title="expression"
     id="a188"
     transform="matrix(0.8385134,0,0,0.8385134,-0.41925182,-0.41925692)">
    <path
       id="rect182"
       style="fill:#320000;stroke:#320000"
       d="m 697,315 h 90 v 32 h -90 z" />
    <path
       id="rect184"
       class="nonterminal"
       style="fill:#ff3f3f;stroke:#320000"
       d="m 695,313 h 90 v 32 h -90 z" />
    <g
       aria-label="expression"
       id="text186"
       class="nonterminal"
       style="font-size:14px;font-family:HelveticaNeueCyr, Sans-serif;fill:#ffe0e0">
      <path
         d="m 712.07,330.718 q -0.546,2.52 -3.15,2.52 -1.596,0 -2.506,-0.994 -0.896,-0.994 -0.896,-2.758 0,-1.75 0.924,-2.828 0.938,-1.092 2.436,-1.092 1.666,0 2.464,1.134 0.812,1.12 0.812,2.842 v 0.168 h -5.432 l -0.014,0.084 q 0,1.148 0.602,1.806 0.602,0.658 1.652,0.658 0.784,0 1.232,-0.364 0.462,-0.364 0.714,-1.176 z m -1.148,-1.974 q -0.084,-1.036 -0.63,-1.61 -0.546,-0.588 -1.442,-0.588 -0.868,0 -1.442,0.588 -0.574,0.588 -0.686,1.61 z"
         id="path600" />
      <path
         d="m 719.35001,325.776 -2.52,3.332 2.814,3.892 h -1.526 l -2.03,-2.968 -2.002,2.968 h -1.442 l 2.716,-3.808 -2.506,-3.416 h 1.512 l 1.75,2.478 1.792,-2.478 z"
         id="path602" />
      <path
         d="m 721.786,325.776 v 1.022 q 0.784,-1.246 2.436,-1.246 1.512,0 2.394,1.022 0.896,1.022 0.896,2.772 0,1.75 -0.882,2.8 -0.868,1.036 -2.352,1.036 -1.554,0 -2.422,-1.19 v 3.794 h -1.19 v -10.01 z m 2.254,0.77 q -1.036,0 -1.638,0.756 -0.588,0.742 -0.588,2.058 0,1.316 0.602,2.072 0.616,0.742 1.666,0.742 1.022,0 1.61,-0.756 0.588,-0.756 0.588,-2.058 0,-1.316 -0.602,-2.058 -0.588,-0.756 -1.638,-0.756 z"
         id="path604" />
      <path
         d="m 732.73401,325.608 v 1.232 q -0.126,-0.014 -0.308,-0.014 -0.574,0 -0.994,0.182 -0.42,0.168 -0.672,0.448 -0.238,0.28 -0.392,0.7 -0.154,0.42 -0.21,0.84 -0.042,0.42 -0.042,0.952 V 333 h -1.19 v -7.224 h 1.134 v 1.554 q 0.714,-1.722 2.674,-1.722 z"
         id="path606" />
      <path
         d="m 739.55202,330.718 q -0.546,2.52 -3.15,2.52 -1.596,0 -2.506,-0.994 -0.896,-0.994 -0.896,-2.758 0,-1.75 0.924,-2.828 0.938,-1.092 2.436,-1.092 1.666,0 2.464,1.134 0.812,1.12 0.812,2.842 v 0.168 h -5.432 l -0.014,0.084 q 0,1.148 0.602,1.806 0.602,0.658 1.652,0.658 0.784,0 1.232,-0.364 0.462,-0.364 0.714,-1.176 z m -1.148,-1.974 q -0.084,-1.036 -0.63,-1.61 -0.546,-0.588 -1.442,-0.588 -0.868,0 -1.442,0.588 -0.574,0.588 -0.686,1.61 z"
         id="path608" />
      <path
         d="m 746.25803,327.876 h -1.19 q -0.112,-1.316 -1.764,-1.316 -0.686,0 -1.078,0.266 -0.392,0.266 -0.392,0.714 0,0.126 0.028,0.252 0.028,0.112 0.098,0.21 0.084,0.084 0.14,0.154 0.07,0.07 0.21,0.14 0.154,0.056 0.224,0.098 0.084,0.042 0.28,0.098 0.21,0.042 0.294,0.07 0.084,0.014 0.322,0.07 0.252,0.056 0.322,0.07 0.518,0.112 0.77,0.182 0.266,0.07 0.714,0.266 0.462,0.182 0.7,0.392 0.238,0.196 0.42,0.56 0.196,0.35 0.196,0.798 0,1.05 -0.826,1.694 -0.812,0.63 -2.17,0.63 -1.47,0 -2.268,-0.644 -0.784,-0.644 -0.84,-1.862 h 1.176 q 0.098,1.526 1.96,1.526 0.798,0 1.274,-0.322 0.49,-0.336 0.49,-0.882 0,-0.364 -0.252,-0.602 -0.252,-0.238 -0.56,-0.336 -0.308,-0.112 -0.882,-0.252 -0.084,-0.014 -0.126,-0.028 -0.126,-0.028 -0.546,-0.112 -0.406,-0.098 -0.588,-0.154 -0.182,-0.056 -0.532,-0.168 -0.336,-0.126 -0.504,-0.252 -0.168,-0.14 -0.378,-0.336 -0.196,-0.21 -0.28,-0.476 -0.084,-0.28 -0.084,-0.63 0,-0.98 0.742,-1.554 0.756,-0.574 2.016,-0.574 1.274,0 2.072,0.602 0.812,0.602 0.812,1.708 z"
         id="path610" />
      <path
         d="m 753.25803,327.876 h -1.19 q -0.112,-1.316 -1.764,-1.316 -0.686,0 -1.078,0.266 -0.392,0.266 -0.392,0.714 0,0.126 0.028,0.252 0.028,0.112 0.098,0.21 0.084,0.084 0.14,0.154 0.07,0.07 0.21,0.14 0.154,0.056 0.224,0.098 0.084,0.042 0.28,0.098 0.21,0.042 0.294,0.07 0.084,0.014 0.322,0.07 0.252,0.056 0.322,0.07 0.518,0.112 0.77,0.182 0.266,0.07 0.714,0.266 0.462,0.182 0.7,0.392 0.238,0.196 0.42,0.56 0.196,0.35 0.196,0.798 0,1.05 -0.826,1.694 -0.812,0.63 -2.17,0.63 -1.47,0 -2.268,-0.644 -0.784,-0.644 -0.84,-1.862 h 1.176 q 0.098,1.526 1.96,1.526 0.798,0 1.274,-0.322 0.49,-0.336 0.49,-0.882 0,-0.364 -0.252,-0.602 -0.252,-0.238 -0.56,-0.336 -0.308,-0.112 -0.882,-0.252 -0.084,-0.014 -0.126,-0.028 -0.126,-0.028 -0.546,-0.112 -0.406,-0.098 -0.588,-0.154 -0.182,-0.056 -0.532,-0.168 -0.336,-0.126 -0.504,-0.252 -0.168,-0.14 -0.378,-0.336 -0.196,-0.21 -0.28,-0.476 -0.084,-0.28 -0.084,-0.63 0,-0.98 0.742,-1.554 0.756,-0.574 2.016,-0.574 1.274,0 2.072,0.602 0.812,0.602 0.812,1.708 z"
         id="path612" />
      <path
         d="m 756.15603,323.032 v 1.456 h -1.204 v -1.456 z m 0,2.744 V 333 h -1.204 v -7.224 z"
         id="path614" />
      <path
         d="m 758.57803,326.602 q 0.952,-1.036 2.59,-1.036 1.638,0 2.548,0.994 0.91,0.994 0.91,2.786 0,1.834 -0.91,2.856 -0.91,1.022 -2.562,1.022 -1.652,0 -2.59,-1.008 -0.938,-1.008 -0.938,-2.8 0,-1.778 0.952,-2.814 z m 4.214,0.728 q -0.602,-0.77 -1.652,-0.77 -1.05,0 -1.666,0.77 -0.616,0.77 -0.616,2.058 0,1.33 0.602,2.086 0.616,0.742 1.708,0.742 1.05,0 1.638,-0.756 0.602,-0.756 0.602,-2.086 0,-1.288 -0.616,-2.044 z"
         id="path616" />
      <path
         d="m 767.16002,325.776 v 1.12 q 0.896,-1.316 2.464,-1.316 1.274,0 1.834,0.672 0.574,0.658 0.574,1.946 V 333 h -1.19 v -4.256 q 0,-0.532 -0.042,-0.826 -0.028,-0.308 -0.168,-0.644 -0.14,-0.35 -0.476,-0.504 -0.336,-0.154 -0.868,-0.154 -2.058,0 -2.058,2.604 V 333 h -1.19 v -7.224 z"
         id="path618" />
    </g>
  </a>
  <path
     id="rect190"
     style="fill:#320000;stroke:#320000;stroke-width:0.838513"
     d="m 260.35842,483.40298 h 41.9257 c 4.64534,0 8.38508,3.73977 8.38508,8.38514 v 10.06216 c 0,4.64537 -3.73974,8.38514 -8.38508,8.38514 h -41.9257 c -4.64534,0 -8.38518,-3.73977 -8.38518,-8.38514 v -10.06216 c 0,-4.64537 3.73984,-8.38514 8.38518,-8.38514 z" />
  <path
     id="rect192"
     class="terminal"
     style="fill:#ff0000;stroke:#320000;stroke-width:0.838513"
     d="m 258.68136,481.72596 h 41.9257 c 4.64534,0 8.38518,3.73977 8.38518,8.38514 v 10.06215 c 0,4.64536 -3.73984,8.38513 -8.38518,8.38513 h -41.9257 c -4.64534,0 -8.38508,-3.73977 -8.38508,-8.38513 V 490.1111 c 0,-4.64537 3.73974,-8.38514 8.38508,-8.38514 z" />
  <g
     aria-label="WHERE"
     id="text194"
     class="terminal"
     style="font-weight:bold;font-size:14px;font-family:HelveticaNeueCyr, Sans-serif;fill:#ffe0e0"
     transform="matrix(0.8385134,0,0,0.8385134,-0.41925182,-0.41925692)">
    <path
       d="m 309.042,585.032 h 2.198 l 1.596,6.776 1.75,-6.776 h 2.058 l 1.722,6.86 1.652,-6.86 h 2.156 L 319.486,595 h -2.184 l -1.708,-6.804 -1.68,6.804 h -2.226 z"
       id="path585" />
    <path
       d="M 331.624,585.032 V 595 h -2.184 v -4.298 h -4.074 V 595 h -2.184 v -9.968 h 2.184 v 3.752 h 4.074 v -3.752 z"
       id="path587" />
    <path
       d="m 341.03199,585.032 v 1.792 h -5.306 v 2.17 h 4.872 v 1.722 h -4.872 v 2.45 h 5.404 V 595 h -7.574 v -9.968 z"
       id="path589" />
    <path
       d="m 342.712,585.032 h 4.956 q 1.484,0 2.422,0.7 0.938,0.7 0.938,2.128 0,0.868 -0.42,1.526 -0.42,0.644 -1.162,0.924 1.288,0.266 1.47,2.324 0,0.07 0.028,0.434 0.028,0.364 0.056,0.588 0.028,0.21 0.07,0.518 0.042,0.308 0.126,0.518 0.084,0.21 0.196,0.308 h -2.268 q -0.112,-0.224 -0.168,-0.56 -0.056,-0.35 -0.098,-0.882 -0.042,-0.546 -0.042,-0.602 -0.112,-1.05 -0.532,-1.456 -0.406,-0.406 -1.456,-0.406 h -1.946 V 595 h -2.17 z m 2.17,1.722 v 2.758 h 2.072 q 0.91,0 1.414,-0.28 0.518,-0.294 0.518,-1.134 0,-0.784 -0.504,-1.064 -0.49,-0.28 -1.33,-0.28 z"
       id="path591" />
    <path
       d="m 360.212,585.032 v 1.792 h -5.306 v 2.17 h 4.872 v 1.722 h -4.872 v 2.45 h 5.404 V 595 h -7.574 v -9.968 z"
       id="path593" />
  </g>
  <a
     xlink:href="#expression"
     xlink:title="expression"
     id="a202"
     transform="matrix(0.8385134,0,0,0.8385134,-0.41925182,-0.41925692)">
    <path
       id="rect196"
       style="fill:#320000;stroke:#320000"
       d="m 391,577 h 90 v 32 h -90 z" />
    <path
       id="rect198"
       class="nonterminal"
       style="fill:#ff3f3f;stroke:#320000"
       d="m 389,575 h 90 v 32 h -90 z" />
    <g
       aria-label="expression"
       id="text200"
       class="nonterminal"
       style="font-size:14px;font-family:HelveticaNeueCyr, Sans-serif;fill:#ffe0e0">
      <path
         d="m 406.07,592.718 q -0.546,2.52 -3.15,2.52 -1.596,0 -2.506,-0.994 -0.896,-0.994 -0.896,-2.758 0,-1.75 0.924,-2.828 0.938,-1.092 2.436,-1.092 1.666,0 2.464,1.134 0.812,1.12 0.812,2.842 v 0.168 h -5.432 l -0.014,0.084 q 0,1.148 0.602,1.806 0.602,0.658 1.652,0.658 0.784,0 1.232,-0.364 0.462,-0.364 0.714,-1.176 z m -1.148,-1.974 q -0.084,-1.036 -0.63,-1.61 -0.546,-0.588 -1.442,-0.588 -0.868,0 -1.442,0.588 -0.574,0.588 -0.686,1.61 z"
         id="path564" />
      <path
         d="m 413.35001,587.776 -2.52,3.332 2.814,3.892 h -1.526 l -2.03,-2.968 -2.002,2.968 h -1.442 l 2.716,-3.808 -2.506,-3.416 h 1.512 l 1.75,2.478 1.792,-2.478 z"
         id="path566" />
      <path
         d="m 415.786,587.776 v 1.022 q 0.784,-1.246 2.436,-1.246 1.512,0 2.394,1.022 0.896,1.022 0.896,2.772 0,1.75 -0.882,2.8 -0.868,1.036 -2.352,1.036 -1.554,0 -2.422,-1.19 v 3.794 h -1.19 v -10.01 z m 2.254,0.77 q -1.036,0 -1.638,0.756 -0.588,0.742 -0.588,2.058 0,1.316 0.602,2.072 0.616,0.742 1.666,0.742 1.022,0 1.61,-0.756 0.588,-0.756 0.588,-2.058 0,-1.316 -0.602,-2.058 -0.588,-0.756 -1.638,-0.756 z"
         id="path568" />
      <path
         d="m 426.73401,587.608 v 1.232 q -0.126,-0.014 -0.308,-0.014 -0.574,0 -0.994,0.182 -0.42,0.168 -0.672,0.448 -0.238,0.28 -0.392,0.7 -0.154,0.42 -0.21,0.84 -0.042,0.42 -0.042,0.952 V 595 h -1.19 v -7.224 h 1.134 v 1.554 q 0.714,-1.722 2.674,-1.722 z"
         id="path570" />
      <path
         d="m 433.55202,592.718 q -0.546,2.52 -3.15,2.52 -1.596,0 -2.506,-0.994 -0.896,-0.994 -0.896,-2.758 0,-1.75 0.924,-2.828 0.938,-1.092 2.436,-1.092 1.666,0 2.464,1.134 0.812,1.12 0.812,2.842 v 0.168 h -5.432 l -0.014,0.084 q 0,1.148 0.602,1.806 0.602,0.658 1.652,0.658 0.784,0 1.232,-0.364 0.462,-0.364 0.714,-1.176 z m -1.148,-1.974 q -0.084,-1.036 -0.63,-1.61 -0.546,-0.588 -1.442,-0.588 -0.868,0 -1.442,0.588 -0.574,0.588 -0.686,1.61 z"
         id="path572" />
      <path
         d="m 440.25803,589.876 h -1.19 q -0.112,-1.316 -1.764,-1.316 -0.686,0 -1.078,0.266 -0.392,0.266 -0.392,0.714 0,0.126 0.028,0.252 0.028,0.112 0.098,0.21 0.084,0.084 0.14,0.154 0.07,0.07 0.21,0.14 0.154,0.056 0.224,0.098 0.084,0.042 0.28,0.098 0.21,0.042 0.294,0.07 0.084,0.014 0.322,0.07 0.252,0.056 0.322,0.07 0.518,0.112 0.77,0.182 0.266,0.07 0.714,0.266 0.462,0.182 0.7,0.392 0.238,0.196 0.42,0.56 0.196,0.35 0.196,0.798 0,1.05 -0.826,1.694 -0.812,0.63 -2.17,0.63 -1.47,0 -2.268,-0.644 -0.784,-0.644 -0.84,-1.862 h 1.176 q 0.098,1.526 1.96,1.526 0.798,0 1.274,-0.322 0.49,-0.336 0.49,-0.882 0,-0.364 -0.252,-0.602 -0.252,-0.238 -0.56,-0.336 -0.308,-0.112 -0.882,-0.252 -0.084,-0.014 -0.126,-0.028 -0.126,-0.028 -0.546,-0.112 -0.406,-0.098 -0.588,-0.154 -0.182,-0.056 -0.532,-0.168 -0.336,-0.126 -0.504,-0.252 -0.168,-0.14 -0.378,-0.336 -0.196,-0.21 -0.28,-0.476 -0.084,-0.28 -0.084,-0.63 0,-0.98 0.742,-1.554 0.756,-0.574 2.016,-0.574 1.274,0 2.072,0.602 0.812,0.602 0.812,1.708 z"
         id="path574" />
      <path
         d="m 447.25803,589.876 h -1.19 q -0.112,-1.316 -1.764,-1.316 -0.686,0 -1.078,0.266 -0.392,0.266 -0.392,0.714 0,0.126 0.028,0.252 0.028,0.112 0.098,0.21 0.084,0.084 0.14,0.154 0.07,0.07 0.21,0.14 0.154,0.056 0.224,0.098 0.084,0.042 0.28,0.098 0.21,0.042 0.294,0.07 0.084,0.014 0.322,0.07 0.252,0.056 0.322,0.07 0.518,0.112 0.77,0.182 0.266,0.07 0.714,0.266 0.462,0.182 0.7,0.392 0.238,0.196 0.42,0.56 0.196,0.35 0.196,0.798 0,1.05 -0.826,1.694 -0.812,0.63 -2.17,0.63 -1.47,0 -2.268,-0.644 -0.784,-0.644 -0.84,-1.862 h 1.176 q 0.098,1.526 1.96,1.526 0.798,0 1.274,-0.322 0.49,-0.336 0.49,-0.882 0,-0.364 -0.252,-0.602 -0.252,-0.238 -0.56,-0.336 -0.308,-0.112 -0.882,-0.252 -0.084,-0.014 -0.126,-0.028 -0.126,-0.028 -0.546,-0.112 -0.406,-0.098 -0.588,-0.154 -0.182,-0.056 -0.532,-0.168 -0.336,-0.126 -0.504,-0.252 -0.168,-0.14 -0.378,-0.336 -0.196,-0.21 -0.28,-0.476 -0.084,-0.28 -0.084,-0.63 0,-0.98 0.742,-1.554 0.756,-0.574 2.016,-0.574 1.274,0 2.072,0.602 0.812,0.602 0.812,1.708 z"
         id="path576" />
      <path
         d="m 450.15603,585.032 v 1.456 h -1.204 v -1.456 z m 0,2.744 V 595 h -1.204 v -7.224 z"
         id="path578" />
      <path
         d="m 452.57803,588.602 q 0.952,-1.036 2.59,-1.036 1.638,0 2.548,0.994 0.91,0.994 0.91,2.786 0,1.834 -0.91,2.856 -0.91,1.022 -2.562,1.022 -1.652,0 -2.59,-1.008 -0.938,-1.008 -0.938,-2.8 0,-1.778 0.952,-2.814 z m 4.214,0.728 q -0.602,-0.77 -1.652,-0.77 -1.05,0 -1.666,0.77 -0.616,0.77 -0.616,2.058 0,1.33 0.602,2.086 0.616,0.742 1.708,0.742 1.05,0 1.638,-0.756 0.602,-0.756 0.602,-2.086 0,-1.288 -0.616,-2.044 z"
         id="path580" />
      <path
         d="m 461.16002,587.776 v 1.12 q 0.896,-1.316 2.464,-1.316 1.274,0 1.834,0.672 0.574,0.658 0.574,1.946 V 595 h -1.19 v -4.256 q 0,-0.532 -0.042,-0.826 -0.028,-0.308 -0.168,-0.644 -0.14,-0.35 -0.476,-0.504 -0.336,-0.154 -0.868,-0.154 -2.058,0 -2.058,2.604 V 595 h -1.19 v -7.224 z"
         id="path582" />
    </g>
  </a>
  <path
     id="rect204"
     style="fill:#320000;stroke:#320000;stroke-width:0.838513"
     d="m 461.60164,456.57056 h 58.69597 c 4.64534,0 8.38508,3.73977 8.38508,8.38513 v 10.06216 c 0,4.64536 -3.73974,8.38513 -8.38508,8.38513 h -58.69597 c -4.64534,0 -8.38517,-3.73977 -8.38517,-8.38513 v -10.06216 c 0,-4.64536 3.73983,-8.38513 8.38517,-8.38513 z" />
  <path
     id="rect206"
     class="terminal"
     style="fill:#ff0000;stroke:#320000;stroke-width:0.838513"
     d="m 459.92459,454.89353 h 58.69596 c 4.64534,0 8.38508,3.73977 8.38508,8.38513 v 10.06217 c 0,4.64536 -3.73974,8.38513 -8.38508,8.38513 h -58.69596 c -4.64534,0 -8.38508,-3.73977 -8.38508,-8.38513 v -10.06217 c 0,-4.64536 3.73974,-8.38513 8.38508,-8.38513 z" />
  <g
     aria-label="GROUP BY"
     id="text208"
     class="terminal"
     style="font-weight:bold;font-size:14px;font-family:HelveticaNeueCyr, Sans-serif;fill:#ffe0e0"
     transform="matrix(0.8385134,0,0,0.8385134,-0.41925182,-0.41925692)">
    <path
       d="M 558.842,557.61 V 563 h -1.386 l -0.21,-1.134 q -1.12,1.372 -2.996,1.372 -2.086,0 -3.388,-1.442 -1.302,-1.442 -1.302,-3.738 0,-2.31 1.372,-3.766 1.372,-1.47 3.528,-1.47 1.708,0 2.884,0.966 1.176,0.952 1.372,2.52 h -2.114 q -0.154,-0.784 -0.728,-1.218 -0.574,-0.434 -1.442,-0.434 -1.246,0 -1.96,0.91 -0.714,0.896 -0.714,2.492 0,1.624 0.714,2.534 0.728,0.896 2.03,0.896 1.022,0 1.68,-0.616 0.658,-0.63 0.7,-1.638 h -2.226 v -1.624 z"
       id="path545" />
    <path
       d="m 560.67601,553.032 h 4.956 q 1.484,0 2.422,0.7 0.938,0.7 0.938,2.128 0,0.868 -0.42,1.526 -0.42,0.644 -1.162,0.924 1.288,0.266 1.47,2.324 0,0.07 0.028,0.434 0.028,0.364 0.056,0.588 0.028,0.21 0.07,0.518 0.042,0.308 0.126,0.518 0.084,0.21 0.196,0.308 h -2.268 q -0.112,-0.224 -0.168,-0.56 -0.056,-0.35 -0.098,-0.882 -0.042,-0.546 -0.042,-0.602 -0.112,-1.05 -0.532,-1.456 -0.406,-0.406 -1.456,-0.406 h -1.946 V 563 h -2.17 z m 2.17,1.722 v 2.758 h 2.072 q 0.91,0 1.414,-0.28 0.518,-0.294 0.518,-1.134 0,-0.784 -0.504,-1.064 -0.49,-0.28 -1.33,-0.28 z"
       id="path547" />
    <path
       d="m 575.20801,552.794 q 2.184,0 3.528,1.456 1.358,1.442 1.358,3.78 0,2.338 -1.358,3.78 -1.344,1.428 -3.542,1.428 -2.212,0 -3.57,-1.428 -1.358,-1.442 -1.358,-3.78 0,-2.366 1.344,-3.794 1.358,-1.442 3.598,-1.442 z m -0.028,1.792 q -1.232,0 -1.974,0.924 -0.728,0.924 -0.728,2.478 0,1.61 0.728,2.52 0.728,0.91 2.002,0.924 1.246,0 1.96,-0.924 0.714,-0.924 0.714,-2.52 0,-1.568 -0.728,-2.478 -0.728,-0.924 -1.974,-0.924 z"
       id="path549" />
    <path
       d="m 590.07601,553.032 v 5.992 q 0,2.142 -1.036,3.164 -1.022,1.008 -3.206,1.008 -2.212,0 -3.262,-1.022 -1.036,-1.036 -1.036,-3.178 v -5.964 h 2.184 v 5.964 q 0,1.218 0.462,1.806 0.462,0.588 1.68,0.588 1.176,0 1.596,-0.588 0.434,-0.588 0.434,-1.806 v -5.964 z"
       id="path551" />
    <path
       d="m 591.98,553.032 h 4.298 q 1.68,0 2.66,0.812 0.994,0.798 0.994,2.394 0,1.568 -0.98,2.38 -0.98,0.798 -2.562,0.798 h -2.24 V 563 h -2.17 z m 2.17,1.792 v 2.87 h 1.946 q 1.708,0 1.708,-1.428 0,-1.442 -1.694,-1.442 z"
       id="path553" />
    <path
       d="m 605.182,553.032 h 4.718 q 1.4,0 2.282,0.63 0.896,0.616 0.896,1.876 0,0.7 -0.364,1.246 -0.364,0.532 -0.994,0.812 1.82,0.518 1.82,2.436 0,1.414 -0.952,2.198 -0.952,0.77 -2.422,0.77 h -4.984 z m 2.128,1.694 v 2.338 h 1.988 q 1.652,0 1.652,-1.162 0,-0.686 -0.448,-0.924 -0.448,-0.252 -1.204,-0.252 z m 0,3.822 v 2.716 h 2.198 q 0.854,0 1.344,-0.28 0.504,-0.28 0.504,-1.078 0,-0.812 -0.532,-1.078 -0.518,-0.28 -1.428,-0.28 z"
       id="path555" />
    <path
       d="m 623.55,553.032 -3.71,6.132 V 563 h -2.156 v -3.878 l -3.724,-6.09 h 2.492 l 2.324,3.99 2.352,-3.99 z"
       id="path557" />
  </g>
  <a
     xlink:href="#expression"
     xlink:title="expression"
     id="a216"
     transform="matrix(0.8385134,0,0,0.8385134,-0.41925182,-0.41925692)">
    <path
       id="rect210"
       style="fill:#320000;stroke:#320000"
       d="m 671,545 h 90 v 32 h -90 z" />
    <path
       id="rect212"
       class="nonterminal"
       style="fill:#ff3f3f;stroke:#320000"
       d="m 669,543 h 90 v 32 h -90 z" />
    <g
       aria-label="expression"
       id="text214"
       class="nonterminal"
       style="font-size:14px;font-family:HelveticaNeueCyr, Sans-serif;fill:#ffe0e0">
      <path
         d="m 686.07,560.718 q -0.546,2.52 -3.15,2.52 -1.596,0 -2.506,-0.994 -0.896,-0.994 -0.896,-2.758 0,-1.75 0.924,-2.828 0.938,-1.092 2.436,-1.092 1.666,0 2.464,1.134 0.812,1.12 0.812,2.842 v 0.168 h -5.432 l -0.014,0.084 q 0,1.148 0.602,1.806 0.602,0.658 1.652,0.658 0.784,0 1.232,-0.364 0.462,-0.364 0.714,-1.176 z m -1.148,-1.974 q -0.084,-1.036 -0.63,-1.61 -0.546,-0.588 -1.442,-0.588 -0.868,0 -1.442,0.588 -0.574,0.588 -0.686,1.61 z"
         id="path524" />
      <path
         d="m 693.35001,555.776 -2.52,3.332 2.814,3.892 h -1.526 l -2.03,-2.968 -2.002,2.968 h -1.442 l 2.716,-3.808 -2.506,-3.416 h 1.512 l 1.75,2.478 1.792,-2.478 z"
         id="path526" />
      <path
         d="m 695.786,555.776 v 1.022 q 0.784,-1.246 2.436,-1.246 1.512,0 2.394,1.022 0.896,1.022 0.896,2.772 0,1.75 -0.882,2.8 -0.868,1.036 -2.352,1.036 -1.554,0 -2.422,-1.19 v 3.794 h -1.19 v -10.01 z m 2.254,0.77 q -1.036,0 -1.638,0.756 -0.588,0.742 -0.588,2.058 0,1.316 0.602,2.072 0.616,0.742 1.666,0.742 1.022,0 1.61,-0.756 0.588,-0.756 0.588,-2.058 0,-1.316 -0.602,-2.058 -0.588,-0.756 -1.638,-0.756 z"
         id="path528" />
      <path
         d="m 706.73401,555.608 v 1.232 q -0.126,-0.014 -0.308,-0.014 -0.574,0 -0.994,0.182 -0.42,0.168 -0.672,0.448 -0.238,0.28 -0.392,0.7 -0.154,0.42 -0.21,0.84 -0.042,0.42 -0.042,0.952 V 563 h -1.19 v -7.224 h 1.134 v 1.554 q 0.714,-1.722 2.674,-1.722 z"
         id="path530" />
      <path
         d="m 713.55202,560.718 q -0.546,2.52 -3.15,2.52 -1.596,0 -2.506,-0.994 -0.896,-0.994 -0.896,-2.758 0,-1.75 0.924,-2.828 0.938,-1.092 2.436,-1.092 1.666,0 2.464,1.134 0.812,1.12 0.812,2.842 v 0.168 h -5.432 l -0.014,0.084 q 0,1.148 0.602,1.806 0.602,0.658 1.652,0.658 0.784,0 1.232,-0.364 0.462,-0.364 0.714,-1.176 z m -1.148,-1.974 q -0.084,-1.036 -0.63,-1.61 -0.546,-0.588 -1.442,-0.588 -0.868,0 -1.442,0.588 -0.574,0.588 -0.686,1.61 z"
         id="path532" />
      <path
         d="m 720.25803,557.876 h -1.19 q -0.112,-1.316 -1.764,-1.316 -0.686,0 -1.078,0.266 -0.392,0.266 -0.392,0.714 0,0.126 0.028,0.252 0.028,0.112 0.098,0.21 0.084,0.084 0.14,0.154 0.07,0.07 0.21,0.14 0.154,0.056 0.224,0.098 0.084,0.042 0.28,0.098 0.21,0.042 0.294,0.07 0.084,0.014 0.322,0.07 0.252,0.056 0.322,0.07 0.518,0.112 0.77,0.182 0.266,0.07 0.714,0.266 0.462,0.182 0.7,0.392 0.238,0.196 0.42,0.56 0.196,0.35 0.196,0.798 0,1.05 -0.826,1.694 -0.812,0.63 -2.17,0.63 -1.47,0 -2.268,-0.644 -0.784,-0.644 -0.84,-1.862 h 1.176 q 0.098,1.526 1.96,1.526 0.798,0 1.274,-0.322 0.49,-0.336 0.49,-0.882 0,-0.364 -0.252,-0.602 -0.252,-0.238 -0.56,-0.336 -0.308,-0.112 -0.882,-0.252 -0.084,-0.014 -0.126,-0.028 -0.126,-0.028 -0.546,-0.112 -0.406,-0.098 -0.588,-0.154 -0.182,-0.056 -0.532,-0.168 -0.336,-0.126 -0.504,-0.252 -0.168,-0.14 -0.378,-0.336 -0.196,-0.21 -0.28,-0.476 -0.084,-0.28 -0.084,-0.63 0,-0.98 0.742,-1.554 0.756,-0.574 2.016,-0.574 1.274,0 2.072,0.602 0.812,0.602 0.812,1.708 z"
         id="path534" />
      <path
         d="m 727.25803,557.876 h -1.19 q -0.112,-1.316 -1.764,-1.316 -0.686,0 -1.078,0.266 -0.392,0.266 -0.392,0.714 0,0.126 0.028,0.252 0.028,0.112 0.098,0.21 0.084,0.084 0.14,0.154 0.07,0.07 0.21,0.14 0.154,0.056 0.224,0.098 0.084,0.042 0.28,0.098 0.21,0.042 0.294,0.07 0.084,0.014 0.322,0.07 0.252,0.056 0.322,0.07 0.518,0.112 0.77,0.182 0.266,0.07 0.714,0.266 0.462,0.182 0.7,0.392 0.238,0.196 0.42,0.56 0.196,0.35 0.196,0.798 0,1.05 -0.826,1.694 -0.812,0.63 -2.17,0.63 -1.47,0 -2.268,-0.644 -0.784,-0.644 -0.84,-1.862 h 1.176 q 0.098,1.526 1.96,1.526 0.798,0 1.274,-0.322 0.49,-0.336 0.49,-0.882 0,-0.364 -0.252,-0.602 -0.252,-0.238 -0.56,-0.336 -0.308,-0.112 -0.882,-0.252 -0.084,-0.014 -0.126,-0.028 -0.126,-0.028 -0.546,-0.112 -0.406,-0.098 -0.588,-0.154 -0.182,-0.056 -0.532,-0.168 -0.336,-0.126 -0.504,-0.252 -0.168,-0.14 -0.378,-0.336 -0.196,-0.21 -0.28,-0.476 -0.084,-0.28 -0.084,-0.63 0,-0.98 0.742,-1.554 0.756,-0.574 2.016,-0.574 1.274,0 2.072,0.602 0.812,0.602 0.812,1.708 z"
         id="path536" />
      <path
         d="m 730.15603,553.032 v 1.456 h -1.204 v -1.456 z m 0,2.744 V 563 h -1.204 v -7.224 z"
         id="path538" />
      <path
         d="m 732.57803,556.602 q 0.952,-1.036 2.59,-1.036 1.638,0 2.548,0.994 0.91,0.994 0.91,2.786 0,1.834 -0.91,2.856 -0.91,1.022 -2.562,1.022 -1.652,0 -2.59,-1.008 -0.938,-1.008 -0.938,-2.8 0,-1.778 0.952,-2.814 z m 4.214,0.728 q -0.602,-0.77 -1.652,-0.77 -1.05,0 -1.666,0.77 -0.616,0.77 -0.616,2.058 0,1.33 0.602,2.086 0.616,0.742 1.708,0.742 1.05,0 1.638,-0.756 0.602,-0.756 0.602,-2.086 0,-1.288 -0.616,-2.044 z"
         id="path540" />
      <path
         d="m 741.16002,555.776 v 1.12 q 0.896,-1.316 2.464,-1.316 1.274,0 1.834,0.672 0.574,0.658 0.574,1.946 V 563 h -1.19 v -4.256 q 0,-0.532 -0.042,-0.826 -0.028,-0.308 -0.168,-0.644 -0.14,-0.35 -0.476,-0.504 -0.336,-0.154 -0.868,-0.154 -2.058,0 -2.058,2.604 V 563 h -1.19 v -7.224 z"
         id="path542" />
    </g>
  </a>
  <path
     id="rect218"
     style="fill:#320000;stroke:#320000;stroke-width:0.838513"
     d="m 570.60839,419.67596 h 3.35401 c 4.64544,0 8.38518,3.73977 8.38518,8.38514 v 10.06216 c 0,4.64537 -3.73974,8.38514 -8.38518,8.38514 h -3.35401 c -4.64534,0 -8.38518,-3.73977 -8.38518,-8.38514 V 428.0611 c 0,-4.64537 3.73984,-8.38514 8.38518,-8.38514 z" />
  <path
     id="rect220"
     class="terminal"
     style="fill:#ff0000;stroke:#320000;stroke-width:0.838513"
     d="m 568.93133,417.99894 h 3.35411 c 4.64534,0 8.38509,3.73977 8.38509,8.38514 v 10.06215 c 0,4.64537 -3.73975,8.38514 -8.38509,8.38514 h -3.35411 c -4.64534,0 -8.38508,-3.73977 -8.38508,-8.38514 v -10.06215 c 0,-4.64537 3.73974,-8.38514 8.38508,-8.38514 z" />
  <g
     aria-label=","
     id="text222"
     class="terminal"
     style="font-weight:bold;font-size:14px;font-family:HelveticaNeueCyr, Sans-serif;fill:#ffe0e0"
     transform="matrix(0.8385134,0,0,0.8385134,-0.41925182,-0.41925692)">
    <path
       d="m 682.052,516.816 v 1.778 q 0,1.218 -0.546,1.876 -0.532,0.672 -1.666,0.854 v -0.98 q 0.938,-0.28 0.994,-1.344 h -0.994 v -2.184 z"
       id="path517" />
  </g>
  <path
     class="line"
     d="M 13.835474,50.730065 H 15.5125 m 0,0 h 8.385131 m 58.695942,0 h 8.38513 m 16.770307,0 h 8.38509 m 53.66489,0 h 8.38508 m -87.205367,0 h 16.770307 m -0.83857,0 q -7.546603,0 -7.546603,-8.385135 V 22.220605 q 0,-8.385134 8.385173,-8.385134 m 70.43506,36.894594 h 16.77026 m -16.77026,0 q 8.38518,0 8.38518,-8.385135 V 22.220605 q 0,-8.385134 -8.38518,-8.385134 m -70.43506,0 h 8.38509 m 20.12437,0 h 8.38508 m 0,0 h 33.54052 m 16.77026,36.894594 h 8.38518 m 50.31078,0 h 8.38518 m 1.67696,0 h 1.67706 m 1.67705,0 h 1.67706 m 1.67696,0 h 1.67705 M 171.47595,106.07195 h 1.67705 m 1.67706,0 h 1.67705 m 1.67696,0 h 1.67706 m 18.44731,0 h 8.38509 m 43.60275,0 h 8.38508 m 16.77026,0 h 8.38518 m 0,0 h 103.97568 m -129.13112,0 h 16.77026 m 112.36086,0 h 16.77026 m -145.90138,0 q 8.38518,0 8.38518,8.38514 m 129.13102,0 q 0,-8.38514 8.38518,-8.38514 m -137.5162,8.38514 v 10.06216 m 129.13102,0 v -10.06216 m -129.13102,10.06216 q 0,8.38514 8.38508,8.38514 m 112.36086,0 q 8.38508,0 8.38508,-8.38514 m -120.74594,8.38514 h 8.38518 m 31.86347,0 h 8.38518 m 0,0 h 8.38508 m 46.95677,0 h 8.38518 m 16.77026,-26.83244 h 90.55943 m -313.60399,0 h 16.77026 m 296.83373,0 h 16.77026 m -330.37425,0 q 8.38509,0 8.38509,8.38514 m 313.60407,0 q 0,-8.38514 8.38509,-8.38514 m -321.98916,8.38514 v 46.95675 m 313.60407,0 v -46.95675 m -313.60407,46.95675 q 0,8.38513 8.38517,8.38513 m 296.83373,0 q 8.38517,0 8.38517,-8.38513 m -305.2189,8.38513 h 8.38509 m 21.80142,0 h 8.38508 m 16.77026,0 h 8.38518 m 55.34185,0 h 8.38518 m 0,0 h 1.67696 m -90.55943,0 h 16.77026 m 73.78917,0 h 16.77026 m -107.32969,0 q 8.38518,0 8.38518,8.38514 m 90.55943,0 q 0,-8.38514 8.38508,-8.38514 m -98.94451,8.38514 v 20.12432 m 90.55943,0 v -20.12432 m -90.55943,20.12432 q 0,8.38513 8.38508,8.38513 m 73.78917,0 q 8.38518,0 8.38518,-8.38513 m -82.17435,8.38513 h 8.38518 m 57.01891,0 h 8.38508 m 16.77026,-36.89459 h 8.38518 m 21.80133,0 h 8.38518 m 0,0 h 8.38508 m 31.86356,0 h 8.38509 m 0,0 h 8.38517 m 46.95677,0 h 8.38509 m 18.44731,-63.72702 h 1.67706 m 1.67696,0 h 1.67705 m 1.67706,0 h 1.67696 M 0.41925651,248.61924 H 2.0962826 m 1.6770261,0 h 1.6770261 m 1.6770261,0 h 1.6770356 m 18.4472865,0 h 8.38514 m 0,0 H 666.19889 m -655.717468,0 h 16.770261 m 638.947207,0 h 16.77026 m -672.487728,0 q 8.385131,0 8.385131,8.38513 m 655.717507,0 q 0,-8.38513 8.38509,-8.38513 m -664.102597,8.38513 v 10.06216 m 655.717507,0 V 257.00437 M 18.866553,267.06653 q 0,8.38513 8.38513,8.38513 m 638.947207,0 q 8.38517,0 8.38517,-8.38513 m -630.562106,8.38513 h 8.38513 m 0,0 h 62.049956 m -87.205357,0 h 16.770271 m 70.435086,0 h 16.77036 m -103.975717,0 q 8.38514,0 8.38514,8.38513 m 87.205397,0 q 0,-8.38513 8.38518,-8.38513 m -95.590577,8.38513 v 10.06217 m 87.205397,0 v -10.06217 m -87.205397,10.06217 q 0,8.38513 8.385131,8.38513 m 70.435086,0 q 8.38518,0 8.38518,-8.38513 m -78.820266,8.38513 h 8.38513 m 53.664876,0 h 8.38508 m 16.77036,-26.83243 h 8.38508 m 45.27972,0 h 8.38517 m 16.77026,0 h 8.38509 m 43.60275,0 h 8.38509 m 16.77026,0 h 8.38517 m 0,0 h 103.97568 m -129.13111,0 h 16.77026 m 112.36085,0 h 16.77026 m -145.90137,0 q 8.38517,0 8.38517,8.38513 m 129.13102,0 q 0,-8.38513 8.38518,-8.38513 m -137.5162,8.38513 v 10.06217 m 129.13102,0 v -10.06217 m -129.13102,10.06217 q 0,8.38513 8.38509,8.38513 m 112.36085,0 q 8.38508,0 8.38508,-8.38513 m -120.74593,8.38513 h 8.38517 m 31.86347,0 h 8.38518 m 0,0 h 8.38508 m 46.95677,0 h 8.38518 m 16.77026,-26.83243 h 90.55943 m -313.60399,0 h 16.77026 m 296.83373,0 h 16.77026 m -330.37425,0 q 8.38509,0 8.38509,8.38513 m 313.60408,0 q 0,-8.38513 8.38508,-8.38513 m -321.98916,8.38513 v 46.95675 m 313.60408,0 v -46.95675 m -313.60408,46.95675 q 0,8.38514 8.38517,8.38514 m 296.83373,0 q 8.38518,0 8.38518,-8.38514 m -305.21891,8.38514 h 8.38509 m 21.80133,0 h 8.38518 m 16.77026,0 h 8.38517 m 55.34186,0 h 8.38517 m 0,0 h 1.67696 m -90.55942,0 h 16.77026 m 73.78916,0 h 16.77027 m -107.32969,0 q 8.38517,0 8.38517,8.38513 m 90.55943,0 q 0,-8.38513 8.38509,-8.38513 m -98.94452,8.38513 v 20.12433 m 90.55943,0 v -20.12433 m -90.55943,20.12433 q 0,8.38514 8.38509,8.38514 m 73.78916,0 q 8.38518,0 8.38518,-8.38514 m -82.17434,8.38514 h 8.38517 m 57.01891,0 h 8.38508 m 16.77027,-36.8946 h 8.38517 m 21.80133,0 h 8.38518 m 0,0 h 8.38508 m 31.86357,0 h 8.38508 m 0,0 h 8.38518 m 46.95667,0 h 8.38518 m 16.77026,-63.72702 h 8.38518 m 33.54052,0 h 8.38508 m 0,0 h 8.38518 m 75.46622,0 h 8.38509 m 18.44731,-26.83242 h 1.67706 m 1.67696,0 h 1.67705 m 1.67705,0 h 1.67706 M 215.0787,468.30975 h 1.67706 m 1.67696,0 h 1.67705 m 1.67706,0 h 1.67696 m 18.44731,0 h 8.38518 m 0,0 h 159.31753 m -184.47297,0 h 16.77026 m 167.70271,0 h 16.77026 m -201.24323,0 q 8.38518,0 8.38518,8.38513 m 184.47287,0 q 0,-8.38513 8.38518,-8.38513 m -192.85805,8.38513 v 10.06216 m 184.47287,0 v -10.06216 m -184.47287,10.06216 q 0,8.38514 8.38508,8.38514 m 167.70271,0 q 8.38508,0 8.38508,-8.38514 m -176.08779,8.38514 h 8.38518 m 58.69596,0 h 8.38508 m 0,0 h 8.38518 m 75.46613,0 h 8.38518 m 33.54052,-26.83243 h 8.38518 m 75.46612,0 h 8.38518 m 16.77026,0 h 8.38518 m 75.46613,0 h 8.38518 m -109.00675,0 h 16.77026 m -0.83848,0 q -7.5466,0 -7.5466,-8.38514 v -20.12432 q 0,-8.38513 8.38508,-8.38513 m 92.23649,36.89459 h 16.77026 m -16.77026,0 q 8.38517,0 8.38517,-8.38514 v -20.12432 q 0,-8.38513 -8.38517,-8.38513 m -92.23649,0 h 8.38518 m 20.12428,0 h 8.38517 m 0,0 h 55.34186 m -218.01349,36.89459 h 16.77026 m 218.01349,0 h 16.77026 m -251.55401,0 q 8.38518,0 8.38518,8.38513 m 234.78374,0 q 0,-8.38513 8.38509,-8.38513 m -243.16883,8.38513 v 11.73919 m 234.78374,0 v -11.73919 m -234.78374,11.73919 q 0,8.38513 8.38508,8.38513 m 218.01349,0 q 8.38517,0 8.38517,-8.38513 m -226.39866,8.38513 h 8.38518 m 0,0 h 209.62831 m 19.28579,-28.50945 h -2.51553"
     id="path224"
     style="fill:none;stroke:#320000;stroke-width:0.838513" />
  <path
     id="polygon226"
     style="fill:#320000;stroke:#320000;stroke-width:0.838513"
     d="m 686.32326,468.30975 6.70812,-3.35406 v 6.70811 z" />
  <path
     id="polygon228"
     style="fill:#320000;stroke:#320000;stroke-width:0.838513"
     d="m 686.32326,468.30975 -6.70813,-3.35406 v 6.70811 z" />
</svg>
