<?xml version="1.0" encoding="UTF-8" standalone="no"?>
<svg
   width="750.13214"
   height="492.52933"
   version="1.1"
   id="svg66"
   sodipodi:docname="SELECT.svg"
   inkscape:version="1.3 (0e150ed6c4, 2023-07-21)"
   xmlns:inkscape="http://www.inkscape.org/namespaces/inkscape"
   xmlns:sodipodi="http://sodipodi.sourceforge.net/DTD/sodipodi-0.dtd"
   xmlns:xlink="http://www.w3.org/1999/xlink"
   xmlns="http://www.w3.org/2000/svg"
   xmlns:svg="http://www.w3.org/2000/svg">
  <sodipodi:namedview
     id="namedview66"
     pagecolor="#ffffff"
     bordercolor="#666666"
     borderopacity="1.0"
     inkscape:showpageshadow="2"
     inkscape:pageopacity="0.0"
     inkscape:pagecheckerboard="0"
     inkscape:deskcolor="#d1d1d1"
     inkscape:zoom="0.88781662"
     inkscape:cx="510.80369"
     inkscape:cy="250.61482"
     inkscape:window-width="1854"
     inkscape:window-height="1011"
     inkscape:window-x="66"
     inkscape:window-y="32"
     inkscape:window-maximized="1"
     inkscape:current-layer="svg66" />
  <defs
     id="defs1">
    <style
       type="text/css"
       id="style1">@namespace &quot;http://www.w3.org/2000/svg&quot;;.line { fill: none; stroke: #330000; stroke-width: 1; }&#10;.bold-line { stroke: #140000; shape-rendering: crispEdges; stroke-width: 2; }&#10;.thin-line { stroke: #1F0000; shape-rendering: crispEdges }&#10;.filled { fill: #330000; stroke: none; }&#10;text.terminal { font-family: HelveticaNeueCyr, Sans-serif;                            font-size: 14px;                            fill: #140000;                            font-weight: bold; }&#10;text.nonterminal { font-family: HelveticaNeueCyr, Sans-serif;                            font-size: 14px;                            fill: #1A0000;                            font-weight: normal; }&#10;text.regexp { font-family: HelveticaNeueCyr, Sans-serif;                            font-size: 14px;                            fill: #1F0000;                            font-weight: normal; }&#10;rect, circle, polygon { fill: #330000; stroke: #330000; }&#10;rect.terminal { fill: #FF4D4D; stroke: #330000; stroke-width: 1; }&#10;rect.nonterminal { fill: #FF9E9E; stroke: #330000; stroke-width: 1; }&#10;rect.text { fill: none; stroke: none; }&#10;polygon.regexp { fill: #FFC7C7; stroke: #330000; stroke-width: 1; }&#10;</style>
  </defs>
  <path
     id="polygon1"
     style="fill:#330000;stroke:#330000;stroke-width:0.907052"
     d="M 7.7099431,54.876654 0.45352599,51.248446 v 7.256417 z" />
  <path
     id="polygon2"
     style="fill:#330000;stroke:#330000;stroke-width:0.907052"
     d="M 14.96636,54.876654 7.7099431,51.248446 v 7.256417 z" />
  <path
     id="rect2"
     style="fill:#330000;stroke:#330000;stroke-width:0.907052"
     d="m 36.735612,42.177924 h 45.352607 c 5.025068,0 9.070521,4.045453 9.070521,9.070522 v 10.884626 c 0,5.025068 -4.045453,9.070521 -9.070521,9.070521 H 36.735612 c -5.025069,0 -9.070522,-4.045453 -9.070522,-9.070521 V 51.248446 c 0,-5.025069 4.045453,-9.070522 9.070522,-9.070522 z" />
  <path
     id="rect3"
     class="terminal"
     style="fill:#ff4d4d;stroke:#330000;stroke-width:0.907052"
     d="m 34.921507,40.36382 h 45.352607 c 5.025069,0 9.070522,4.045453 9.070522,9.070522 v 10.884625 c 0,5.025069 -4.045453,9.070522 -9.070522,9.070522 H 34.921507 c -5.025068,0 -9.070521,-4.045453 -9.070521,-9.070522 V 49.434342 c 0,-5.025069 4.045453,-9.070522 9.070521,-9.070522 z" />
  <path
     d="m 42.48995,52.155498 h -1.879412 q -0.114288,-1.346065 -1.714328,-1.346065 -0.685732,0 -1.079392,0.279372 -0.380962,0.266673 -0.380962,0.749225 0,0.165083 0.0508,0.292071 0.0508,0.126987 0.190481,0.241275 0.139686,0.10159 0.279372,0.177783 0.139686,0.06349 0.406359,0.152384 0.279372,0.07619 0.495251,0.139686 0.228577,0.06349 0.634936,0.165084 0.40636,0.10159 0.711129,0.190481 1.333367,0.380962 1.981002,0.952405 0.660334,0.571442 0.660334,1.638136 0,0.774622 -0.317468,1.358764 -0.317469,0.571443 -0.863514,0.914308 -0.533347,0.330167 -1.180982,0.482552 -0.634936,0.165084 -1.358764,0.165084 -1.841316,0 -2.882612,-0.838117 -1.028597,-0.850814 -1.041296,-2.387361 h 1.968304 q 0.05079,1.70163 2.044495,1.70163 0.774623,0 1.219078,-0.317468 0.457154,-0.330167 0.457154,-0.888911 0,-0.469853 -0.419058,-0.685732 -0.406359,-0.215878 -1.727027,-0.59684 -0.215878,-0.0508 -0.330167,-0.08889 -0.457154,-0.126987 -0.634936,-0.177782 -0.177783,-0.06349 -0.571443,-0.20318 -0.380962,-0.139686 -0.558744,-0.253975 -0.177783,-0.114288 -0.444456,-0.317468 -0.253975,-0.20318 -0.368263,-0.419058 -0.114289,-0.228577 -0.215878,-0.546045 -0.08889,-0.330167 -0.08889,-0.711129 0,-1.231777 0.952405,-1.968303 0.952405,-0.736527 2.527047,-0.736527 1.523848,0 2.488951,0.723828 0.965104,0.711129 0.990501,2.158784 z m 8.330369,-2.692131 v 1.625438 H 46.0075 v 1.968303 h 4.419158 v 1.561944 H 46.0075 v 2.222277 h 4.90171 v 1.663534 h -6.870013 v -9.041496 z m 7.847824,7.339866 v 1.70163 h -6.40016 v -9.041496 h 1.981002 v 7.339866 z m 7.911314,-7.339866 v 1.625438 h -4.812818 v 1.968303 h 4.419158 v 1.561944 h -4.419158 v 2.222277 h 4.90171 v 1.663534 h -6.870013 v -9.041496 z m 9.524057,5.549345 q -0.152385,1.70163 -1.193681,2.70483 -1.041295,1.003199 -2.857214,1.003199 -1.968303,0 -3.174682,-1.29527 -1.193681,-1.307969 -1.193681,-3.454055 0,-2.031796 1.206379,-3.377862 1.219078,-1.346065 3.238177,-1.346065 1.612738,0 2.704829,0.914308 1.092091,0.914309 1.206379,2.323868 h -1.942905 q -0.152385,-0.749225 -0.685732,-1.155584 -0.520648,-0.419059 -1.320668,-0.419059 -0.825417,0 -1.39686,0.469853 -0.558744,0.457155 -0.787321,1.130187 -0.228577,0.673033 -0.228577,1.473053 0,1.39686 0.647635,2.234977 0.647635,0.825417 1.739726,0.825417 1.815918,0 2.069893,-2.031797 z m 8.050985,-5.549345 v 1.688931 h -2.717528 v 7.352565 H 79.44327 v -7.352565 h -2.717528 v -1.688931 z"
     id="text3"
     class="terminal"
     style="font-weight:bold;font-size:14px;font-family:HelveticaNeueCyr, Sans-serif;fill:#140000;stroke-width:0.907052"
     aria-label="SELECT" />
  <a
     xlink:href="#column"
     xlink:title="column"
     id="a5"
     transform="matrix(0.90705214,0,0,0.90705214,-0.45352615,-0.45352615)">
    <path
       id="rect4"
       style="fill:#330000;stroke:#330000"
       d="m 141,47 h 64 v 32 h -64 z" />
    <path
       id="rect5"
       class="nonterminal"
       style="fill:#ff9e9e;stroke:#330000"
       d="m 139,45 h 64 v 32 h -64 z" />
    <path
       d="m 156.112,62.368 q -0.154,1.302 -0.994,2.072 -0.826,0.77 -2.156,0.77 -1.638,0 -2.534,-1.008 -0.896,-1.022 -0.896,-2.716 0,-1.806 0.938,-2.856 0.938,-1.064 2.534,-1.064 1.33,0 2.128,0.672 0.798,0.658 0.938,1.89 h -1.232 q -0.322,-1.568 -1.82,-1.568 -1.036,0 -1.638,0.77 -0.602,0.756 -0.602,2.058 0,1.316 0.574,2.072 0.574,0.756 1.582,0.756 0.812,0 1.316,-0.476 0.518,-0.476 0.658,-1.372 z m 1.87601,-3.766 q 0.952,-1.036 2.59,-1.036 1.638,0 2.548,0.994 0.91,0.994 0.91,2.786 0,1.834 -0.91,2.856 -0.91,1.022 -2.562,1.022 -1.652,0 -2.59,-1.008 -0.938,-1.008 -0.938,-2.8 0,-1.778 0.952,-2.814 z m 4.214,0.728 q -0.602,-0.77 -1.652,-0.77 -1.05,0 -1.666,0.77 -0.616,0.77 -0.616,2.058 0,1.33 0.602,2.086 0.616,0.742 1.708,0.742 1.05,0 1.638,-0.756 0.602,-0.756 0.602,-2.086 0,-1.288 -0.616,-2.044 z M 166.71,55.032 V 65 h -1.204 v -9.968 z m 7.84,2.744 V 65 h -1.106 v -1.134 q -0.924,1.33 -2.492,1.33 -1.148,0 -1.778,-0.63 -0.63,-0.63 -0.63,-1.82 v -4.97 h 1.19 v 4.648 q 0,0.854 0.322,1.302 0.336,0.434 1.19,0.434 2.114,0 2.114,-2.604 v -3.78 z m 2.912,0 v 1.05 q 0.476,-0.644 1.022,-0.938 0.546,-0.294 1.33,-0.294 1.484,0 2.002,1.246 0.938,-1.26 2.394,-1.26 1.12,0 1.694,0.63 0.588,0.616 0.588,1.736 V 65 h -1.19 v -4.55 q 0,-0.896 -0.28,-1.344 -0.28,-0.462 -1.162,-0.462 -1.848,0 -1.848,2.254 V 65 h -1.19 v -4.634 q 0,-0.826 -0.28,-1.26 -0.266,-0.448 -1.05,-0.448 -1.106,0 -1.54,0.686 -0.42,0.672 -0.42,1.834 V 65 h -1.19 v -7.224 z m 11.94201,0 v 1.12 q 0.896,-1.316 2.464,-1.316 1.274,0 1.834,0.672 0.574,0.658 0.574,1.946 V 65 h -1.19 v -4.256 q 0,-0.532 -0.042,-0.826 -0.028,-0.308 -0.168,-0.644 -0.14,-0.35 -0.476,-0.504 -0.336,-0.154 -0.868,-0.154 -2.058,0 -2.058,2.604 V 65 h -1.19 v -7.224 z"
       id="text5"
       class="nonterminal"
       style="font-size:14px;font-family:HelveticaNeueCyr, Sans-serif;fill:#1a0000"
       aria-label="column" />
  </a>
  <path
     id="rect6"
     style="fill:#330000;stroke:#330000;stroke-width:0.907052"
     d="m 136.51135,2.2676302 h 3.62821 c 5.02506,0 9.07052,4.0454526 9.07052,9.0705218 v 10.884625 c 0,5.025069 -4.04546,9.070522 -9.07052,9.070522 h -3.62821 c -5.02507,0 -9.07052,-4.045453 -9.07052,-9.070522 V 11.338152 c 0,-5.0250692 4.04545,-9.0705218 9.07052,-9.0705218 z" />
  <path
     id="rect7"
     class="terminal"
     style="fill:#ff4d4d;stroke:#330000;stroke-width:0.907052"
     d="m 134.69724,0.45352599 h 3.62821 c 5.02507,0 9.07052,4.04545251 9.07052,9.07052091 V 20.408673 c 0,5.025069 -4.04545,9.070522 -9.07052,9.070522 h -3.62821 c -5.02507,0 -9.07052,-4.045453 -9.07052,-9.070522 V 9.5240469 c 0,-5.0250684 4.04545,-9.07052091 9.07052,-9.07052091 z" />
  <path
     d="m 137.46557,16.613567 v 1.612739 q 0,1.104789 -0.49525,1.701629 -0.48256,0.60954 -1.51115,0.774623 v -0.888911 q 0.85081,-0.253975 0.90161,-1.219078 h -0.90161 v -1.981002 z"
     id="text7"
     class="terminal"
     style="font-weight:bold;font-size:14px;font-family:HelveticaNeueCyr, Sans-serif;fill:#140000;stroke-width:0.907052"
     aria-label="," />
  <path
     id="rect8"
     style="fill:#330000;stroke:#330000;stroke-width:0.907052"
     d="m 230.84477,42.177924 h 36.28209 c 5.02506,0 9.07052,4.045453 9.07052,9.070522 v 10.884626 c 0,5.025068 -4.04546,9.070521 -9.07052,9.070521 h -36.28209 c -5.02507,0 -9.07052,-4.045453 -9.07052,-9.070521 V 51.248446 c 0,-5.025069 4.04545,-9.070522 9.07052,-9.070522 z" />
  <path
     id="rect9"
     class="terminal"
     style="fill:#ff4d4d;stroke:#330000;stroke-width:0.907052"
     d="m 229.03067,40.36382 h 36.28208 c 5.02507,0 9.07052,4.045453 9.07052,9.070522 v 10.884625 c 0,5.025069 -4.04545,9.070522 -9.07052,9.070522 h -36.28208 c -5.02507,0 -9.07053,-4.045453 -9.07053,-9.070522 V 49.434342 c 0,-5.025069 4.04546,-9.070522 9.07053,-9.070522 z" />
  <path
     d="m 236.28164,49.463367 v 1.663534 h -4.39376 v 2.09529 h 3.82232 v 1.574643 h -3.82232 v 3.708029 h -1.981 v -9.041496 z m 1.23179,0 h 4.49535 q 1.34606,0 2.19688,0.634937 0.85081,0.634936 0.85081,1.930207 0,0.787321 -0.38096,1.384161 -0.38096,0.584142 -1.054,0.838116 1.16829,0.241276 1.33337,2.10799 0,0.06349 0.0254,0.39366 0.0254,0.330167 0.0508,0.533347 0.0254,0.190481 0.0635,0.469853 0.0381,0.279372 0.11429,0.469853 0.0762,0.190481 0.17778,0.279372 h -2.0572 q -0.10159,-0.20318 -0.15238,-0.507949 -0.0508,-0.317468 -0.0889,-0.80002 -0.0381,-0.495251 -0.0381,-0.546046 -0.10159,-0.952404 -0.48255,-1.320668 -0.36826,-0.368263 -1.32067,-0.368263 h -1.76512 v 3.542946 h -1.9683 z m 1.9683,1.561944 v 2.50165 h 1.87941 q 0.82542,0 1.28257,-0.253975 0.46986,-0.266673 0.46986,-1.028597 0,-0.711129 -0.45716,-0.965103 -0.44445,-0.253975 -1.20638,-0.253975 z m 11.21298,-1.777822 q 1.981,0 3.20008,1.320668 1.23177,1.307969 1.23177,3.428657 0,2.120688 -1.23177,3.428657 -1.21908,1.29527 -3.21278,1.29527 -2.0064,0 -3.23818,-1.29527 -1.23177,-1.307969 -1.23177,-3.428657 0,-2.146086 1.21907,-3.441356 1.23178,-1.307969 3.26358,-1.307969 z m -0.0254,1.625437 q -1.11749,0 -1.79052,0.838116 -0.66033,0.838117 -0.66033,2.247676 0,1.460354 0.66033,2.285771 0.66033,0.825417 1.81592,0.838116 1.13018,0 1.77782,-0.838116 0.64763,-0.838116 0.64763,-2.285771 0,-1.422258 -0.66033,-2.247676 -0.66033,-0.838116 -1.79052,-0.838116 z m 5.81602,7.631937 v -9.041496 h 2.83182 l 2.10798,6.209679 2.0572,-6.209679 h 2.76832 v 9.041496 h -1.86671 v -6.425557 l -2.22228,6.425557 h -1.53655 l -2.24767,-6.362064 v 6.362064 z"
     id="text9"
     class="terminal"
     style="font-weight:bold;font-size:14px;font-family:HelveticaNeueCyr, Sans-serif;fill:#140000;stroke-width:0.907052"
     aria-label="FROM" />
  <a
     xlink:href="#table"
     xlink:title="table"
     id="a11"
     transform="matrix(0.90705214,0,0,0.90705214,-0.45352615,-0.45352615)">
    <path
       id="rect10"
       style="fill:#330000;stroke:#330000"
       d="m 345,47 h 52 v 32 h -52 z" />
    <path
       id="rect11"
       class="nonterminal"
       style="fill:#ff9e9e;stroke:#330000"
       d="m 343,45 h 52 v 32 h -52 z" />
    <path
       d="m 356.99,57.776 v 0.98 h -1.442 v 4.214 q 0,0.35 0,0.462 0.014,0.112 0.084,0.308 0.07,0.182 0.238,0.238 0.168,0.056 0.476,0.056 0.266,0 0.644,-0.042 v 1.022 q -0.504,0.056 -0.91,0.056 -0.504,0 -0.84,-0.112 -0.336,-0.112 -0.518,-0.252 -0.168,-0.14 -0.252,-0.49 -0.084,-0.364 -0.098,-0.602 -0.014,-0.252 -0.014,-0.826 0,-0.126 0,-0.196 v -3.836 h -1.218 v -0.98 h 1.218 v -2.142 h 1.19 v 2.142 z m 7.71401,6.272 v 0.924 q -0.364,0.14 -0.812,0.14 -1.022,0 -1.05,-1.064 -1.022,1.148 -2.618,1.148 -1.064,0 -1.694,-0.546 -0.616,-0.546 -0.616,-1.498 0,-1.932 2.562,-2.254 1.512,-0.182 1.75,-0.266 0.504,-0.168 0.546,-0.7 0.014,-0.084 0.014,-0.182 0,-1.19 -1.638,-1.19 -0.84,0 -1.274,0.35 -0.434,0.336 -0.518,1.12 h -1.162 q 0.028,-1.162 0.826,-1.806 0.798,-0.644 2.198,-0.644 1.526,0 2.268,0.7 0.238,0.224 0.35,0.588 0.112,0.364 0.126,0.602 0.014,0.224 0.014,0.686 0,0.546 -0.028,1.624 -0.028,1.064 -0.028,1.596 0,0.392 0.098,0.56 0.112,0.154 0.392,0.154 0.112,0 0.294,-0.042 z m -1.918,-2.8 q -0.126,0.098 -0.266,0.168 -0.14,0.07 -0.364,0.112 -0.21,0.042 -0.294,0.07 -0.07,0.014 -0.364,0.056 -0.294,0.028 -0.308,0.028 -0.434,0.056 -0.574,0.084 -0.126,0.014 -0.504,0.112 -0.364,0.098 -0.518,0.224 -0.154,0.126 -0.308,0.378 -0.14,0.238 -0.14,0.574 0,0.56 0.378,0.882 0.392,0.322 1.064,0.322 0.854,0 1.526,-0.504 0.672,-0.504 0.672,-1.19 z m 4.21401,-6.216 v 3.738 q 0.784,-1.19 2.394,-1.19 1.484,0 2.366,1.036 0.896,1.022 0.896,2.744 0,1.75 -0.91,2.8 -0.91,1.05 -2.422,1.05 -1.722,0 -2.394,-1.26 V 65 h -1.12 v -9.968 z m 2.212,3.556 q -1.148,0 -1.708,0.826 -0.546,0.826 -0.546,2.03 0,1.274 0.602,2.03 0.616,0.742 1.652,0.742 0.994,0 1.596,-0.77 0.616,-0.784 0.616,-2.072 0,-1.274 -0.602,-2.03 -0.602,-0.756 -1.61,-0.756 z m 6.174,-3.556 V 65 h -1.204 v -9.968 z m 8.022,7.686 q -0.546,2.52 -3.15,2.52 -1.596,0 -2.506,-0.994 -0.896,-0.994 -0.896,-2.758 0,-1.75 0.924,-2.828 0.938,-1.092 2.436,-1.092 1.666,0 2.464,1.134 0.812,1.12 0.812,2.842 v 0.168 h -5.432 l -0.014,0.084 q 0,1.148 0.602,1.806 0.602,0.658 1.652,0.658 0.784,0 1.232,-0.364 0.462,-0.364 0.714,-1.176 z m -1.148,-1.974 q -0.084,-1.036 -0.63,-1.61 -0.546,-0.588 -1.442,-0.588 -0.868,0 -1.442,0.588 -0.574,0.588 -0.686,1.61 z"
       id="text11"
       class="nonterminal"
       style="font-size:14px;font-family:HelveticaNeueCyr, Sans-serif;fill:#1a0000"
       aria-label="table" />
  </a>
  <path
     id="rect12"
     style="fill:#330000;stroke:#330000;stroke-width:0.907052"
     d="m 404.99878,71.203593 h 16.32694 c 5.02507,0 9.07052,4.045452 9.07052,9.070521 V 91.15874 c 0,5.025069 -4.04545,9.07052 -9.07052,9.07052 h -16.32694 c -5.02507,0 -9.07052,-4.045451 -9.07052,-9.07052 V 80.274114 c 0,-5.025069 4.04545,-9.070521 9.07052,-9.070521 z" />
  <path
     id="rect13"
     class="terminal"
     style="fill:#ff4d4d;stroke:#330000;stroke-width:0.907052"
     d="m 403.18468,69.389489 h 16.32693 c 5.02507,0 9.07053,4.045452 9.07053,9.070521 v 10.884626 c 0,5.025069 -4.04546,9.070521 -9.07053,9.070521 h -16.32693 c -5.02507,0 -9.07053,-4.045452 -9.07053,-9.070521 V 78.46001 c 0,-5.025069 4.04546,-9.070521 9.07053,-9.070521 z" />
  <path
     d="m 408.55624,78.476337 3.44135,9.054194 H 409.915 l -0.71113,-2.019098 h -3.36516 l -0.73653,2.019098 h -2.03179 l 3.44135,-9.054194 z m 0.16508,5.587441 -1.19368,-3.365163 -1.20638,3.365163 z m 10.73042,-2.882612 h -1.87941 q -0.11429,-1.346065 -1.71433,-1.346065 -0.68573,0 -1.07939,0.279372 -0.38096,0.266673 -0.38096,0.749225 0,0.165084 0.0508,0.292071 0.0508,0.126987 0.19048,0.241276 0.13969,0.10159 0.27937,0.177782 0.13969,0.06349 0.40636,0.152385 0.27937,0.07619 0.49525,0.139686 0.22858,0.06349 0.63494,0.165083 0.40636,0.10159 0.71113,0.190481 1.33337,0.380962 1.981,0.952405 0.66033,0.571443 0.66033,1.638136 0,0.774623 -0.31746,1.358764 -0.31747,0.571443 -0.86352,0.914309 -0.53334,0.330167 -1.18098,0.482552 -0.63494,0.165083 -1.35876,0.165083 -1.84132,0 -2.88262,-0.838116 -1.02859,-0.850815 -1.04129,-2.387361 h 1.9683 q 0.0508,1.70163 2.0445,1.70163 0.77462,0 1.21908,-0.317469 0.45715,-0.330167 0.45715,-0.888911 0,-0.469853 -0.41906,-0.685731 -0.40636,-0.215879 -1.72703,-0.596841 -0.21587,-0.05079 -0.33016,-0.08889 -0.45716,-0.126987 -0.63494,-0.177782 -0.17778,-0.06349 -0.57144,-0.20318 -0.38096,-0.139686 -0.55875,-0.253974 -0.17778,-0.114289 -0.44445,-0.317468 -0.25398,-0.20318 -0.36826,-0.419058 -0.11429,-0.228578 -0.21588,-0.546046 -0.0889,-0.330167 -0.0889,-0.711129 0,-1.231777 0.9524,-1.968303 0.95241,-0.736526 2.52705,-0.736526 1.52385,0 2.48895,0.723827 0.9651,0.711129 0.9905,2.158783 z"
     id="text13"
     class="terminal"
     style="font-weight:bold;font-size:14px;font-family:HelveticaNeueCyr, Sans-serif;fill:#140000;stroke-width:0.907052"
     aria-label="AS" />
  <a
     xlink:href="#name"
     xlink:title="name"
     id="a15"
     transform="matrix(0.90705214,0,0,0.90705214,-0.45352615,-0.45352615)">
    <path
       id="rect14"
       style="fill:#330000;stroke:#330000"
       d="m 495,79 h 56 v 32 h -56 z" />
    <path
       id="rect15"
       class="nonterminal"
       style="fill:#ff9e9e;stroke:#330000"
       d="m 493,77 h 56 v 32 h -56 z" />
    <path
       d="m 505.016,89.776 v 1.12 q 0.896,-1.316 2.464,-1.316 1.274,0 1.834,0.672 0.574,0.658 0.574,1.946 V 97 h -1.19 v -4.256 q 0,-0.532 -0.042,-0.826 -0.028,-0.308 -0.168,-0.644 -0.14,-0.35 -0.476,-0.504 -0.336,-0.154 -0.868,-0.154 -2.058,0 -2.058,2.604 V 97 h -1.19 v -7.224 z m 13.062,6.272 v 0.924 q -0.364,0.14 -0.812,0.14 -1.022,0 -1.05,-1.064 -1.022,1.148 -2.618,1.148 -1.064,0 -1.694,-0.546 -0.616,-0.546 -0.616,-1.498 0,-1.932 2.562,-2.254 1.512,-0.182 1.75,-0.266 0.504,-0.168 0.546,-0.7 0.014,-0.084 0.014,-0.182 0,-1.19 -1.638,-1.19 -0.84,0 -1.274,0.35 -0.434,0.336 -0.518,1.12 h -1.162 q 0.028,-1.162 0.826,-1.806 0.798,-0.644 2.198,-0.644 1.526,0 2.268,0.7 0.238,0.224 0.35,0.588 0.112,0.364 0.126,0.602 0.014,0.224 0.014,0.686 0,0.546 -0.028,1.624 -0.028,1.064 -0.028,1.596 0,0.392 0.098,0.56 0.112,0.154 0.392,0.154 0.112,0 0.294,-0.042 z m -1.918,-2.8 q -0.126,0.098 -0.266,0.168 -0.14,0.07 -0.364,0.112 -0.21,0.042 -0.294,0.07 -0.07,0.014 -0.364,0.056 -0.294,0.028 -0.308,0.028 -0.434,0.056 -0.574,0.084 -0.126,0.014 -0.504,0.112 -0.364,0.098 -0.518,0.224 -0.154,0.126 -0.308,0.378 -0.14,0.238 -0.14,0.574 0,0.56 0.378,0.882 0.392,0.322 1.064,0.322 0.854,0 1.526,-0.504 0.672,-0.504 0.672,-1.19 z m 4.15801,-3.472 v 1.05 q 0.476,-0.644 1.022,-0.938 0.546,-0.294 1.33,-0.294 1.484,0 2.002,1.246 0.938,-1.26 2.394,-1.26 1.12,0 1.694,0.63 0.588,0.616 0.588,1.736 V 97 h -1.19 v -4.55 q 0,-0.896 -0.28,-1.344 -0.28,-0.462 -1.162,-0.462 -1.848,0 -1.848,2.254 V 97 h -1.19 v -4.634 q 0,-0.826 -0.28,-1.26 -0.266,-0.448 -1.05,-0.448 -1.106,0 -1.54,0.686 -0.42,0.672 -0.42,1.834 V 97 h -1.19 v -7.224 z m 16.996,4.942 q -0.546,2.52 -3.15,2.52 -1.596,0 -2.506,-0.994 -0.896,-0.994 -0.896,-2.758 0,-1.75 0.924,-2.828 0.938,-1.092 2.436,-1.092 1.666,0 2.464,1.134 0.812,1.12 0.812,2.842 v 0.168 h -5.432 l -0.014,0.084 q 0,1.148 0.602,1.806 0.602,0.658 1.652,0.658 0.784,0 1.232,-0.364 0.462,-0.364 0.714,-1.176 z m -1.148,-1.974 q -0.084,-1.036 -0.63,-1.61 -0.546,-0.588 -1.442,-0.588 -0.868,0 -1.442,0.588 -0.574,0.588 -0.686,1.61 z"
       id="text15"
       class="nonterminal"
       style="font-size:14px;font-family:HelveticaNeueCyr, Sans-serif;fill:#1a0000"
       aria-label="name" />
  </a>
  <path
     id="rect16"
     style="fill:#330000;stroke:#330000;stroke-width:0.907052"
     d="m 321.54998,111.11389 h 5.44232 c 5.02507,0 9.07052,4.04545 9.07052,9.07052 v 10.88462 c 0,5.02507 -4.04545,9.07053 -9.07052,9.07053 h -5.44232 c -5.02507,0 -9.07052,-4.04546 -9.07052,-9.07053 v -10.88462 c 0,-5.02507 4.04545,-9.07052 9.07052,-9.07052 z" />
  <path
     id="rect17"
     class="terminal"
     style="fill:#ff4d4d;stroke:#330000;stroke-width:0.907052"
     d="m 319.73588,109.29978 h 5.44231 c 5.02507,0 9.07052,4.04546 9.07052,9.07052 v 10.88463 c 0,5.02507 -4.04545,9.07052 -9.07052,9.07052 h -5.44231 c -5.02507,0 -9.07052,-4.04545 -9.07052,-9.07052 V 118.3703 c 0,-5.02506 4.04545,-9.07052 9.07052,-9.07052 z" />
  <path
     d="m 323.5709,118.25964 q -0.73653,1.47306 -1.0794,2.81912 -0.33016,1.34607 -0.33016,2.95881 0,2.79372 1.43495,5.66363 h -1.52384 q -0.78733,-1.19368 -1.23178,-2.67943 -0.43176,-1.48575 -0.43176,-2.94611 0,-1.52385 0.41906,-3.07309 0.43176,-1.56194 1.24448,-2.74293 z"
     id="text17"
     class="terminal"
     style="font-weight:bold;font-size:14px;font-family:HelveticaNeueCyr, Sans-serif;fill:#140000;stroke-width:0.907052"
     aria-label="(" />
  <a
     xlink:href="#select"
     xlink:title="SELECT"
     id="a19"
     transform="matrix(0.90705214,0,0,0.90705214,-0.45352615,-0.45352615)">
    <path
       id="rect18"
       style="fill:#330000;stroke:#330000"
       d="m 411,123 h 66 v 32 h -66 z" />
    <path
       id="rect19"
       class="nonterminal"
       style="fill:#ff9e9e;stroke:#330000"
       d="m 409,121 h 66 v 32 h -66 z" />
    <path
       d="m 427.162,133.958 h -1.274 q -0.21,-2.03 -2.478,-2.03 -1.078,0 -1.666,0.434 -0.588,0.434 -0.588,1.218 0,0.28 0.084,0.49 0.084,0.21 0.28,0.378 0.21,0.154 0.392,0.266 0.182,0.112 0.574,0.224 0.392,0.112 0.63,0.168 0.238,0.042 0.742,0.154 0.616,0.126 1.022,0.238 0.406,0.098 0.966,0.336 0.56,0.238 0.882,0.532 0.336,0.28 0.574,0.756 0.252,0.476 0.252,1.078 0,1.05 -0.588,1.764 -0.588,0.7 -1.428,0.98 -0.84,0.28 -1.862,0.28 -1.876,0 -3.01,-0.882 -1.12,-0.896 -1.12,-2.632 h 1.274 q 0.042,1.274 0.854,1.862 0.812,0.574 2.114,0.574 1.022,0 1.75,-0.42 0.728,-0.434 0.728,-1.4 0,-0.448 -0.196,-0.756 -0.196,-0.322 -0.616,-0.518 -0.42,-0.21 -0.84,-0.336 -0.42,-0.126 -1.106,-0.28 -0.098,-0.014 -0.14,-0.028 -1.54,-0.35 -2.016,-0.56 -1.456,-0.63 -1.456,-2.17 0,-1.428 1.05,-2.128 1.064,-0.714 2.562,-0.714 1.638,0 2.618,0.784 0.98,0.784 1.036,2.338 z m 8.91801,-2.926 v 1.148 h -5.586 v 3.122 h 5.222 v 1.106 h -5.222 v 3.444 h 5.656 V 141 h -6.972 v -9.968 z m 8.274,8.82 V 141 h -6.608 v -9.968 h 1.316 v 8.82 z m 8.064,-8.82 v 1.148 h -5.586 v 3.122 h 5.222 v 1.106 h -5.222 v 3.444 h 5.656 V 141 h -6.972 v -9.968 z m 10.094,6.202 q -0.168,1.89 -1.316,2.954 -1.134,1.05 -2.996,1.05 -2.128,0 -3.374,-1.4 -1.246,-1.414 -1.246,-3.808 0,-2.24 1.246,-3.724 1.26,-1.498 3.472,-1.498 1.582,0 2.786,0.854 1.204,0.854 1.344,2.366 h -1.316 q -0.224,-0.98 -0.98,-1.526 -0.756,-0.56 -1.862,-0.56 -1.666,0 -2.52,1.176 -0.84,1.176 -0.84,2.898 0,1.904 0.896,2.996 0.896,1.092 2.45,1.092 1.274,0 2.03,-0.728 0.756,-0.742 0.91,-2.142 z m 8.582,-6.202 v 1.148 h -3.346 V 141 h -1.316 v -8.82 h -3.346 v -1.148 z"
       id="text19"
       class="nonterminal"
       style="font-size:14px;font-family:HelveticaNeueCyr, Sans-serif;fill:#1a0000"
       aria-label="SELECT" />
  </a>
  <a
     xlink:href="#values"
     xlink:title="VALUES"
     id="a21"
     transform="matrix(0.90705214,0,0,0.90705214,-0.45352615,-0.45352615)">
    <path
       id="rect20"
       style="fill:#330000;stroke:#330000"
       d="m 411,167 h 68 v 32 h -68 z" />
    <path
       id="rect21"
       class="nonterminal"
       style="fill:#ff9e9e;stroke:#330000"
       d="m 409,165 h 68 v 32 h -68 z" />
    <path
       d="m 418.972,175.032 h 1.456 l 2.87,8.68 2.898,-8.68 h 1.386 L 424.026,185 h -1.512 z m 13.23001,0 3.892,9.968 h -1.47 l -1.106,-3.052 h -4.186 l -1.134,3.052 h -1.4 l 3.92,-9.968 z m 0.924,5.866 -1.694,-4.606 -1.722,4.606 z m 10.58401,2.954 V 185 h -6.608 v -9.968 h 1.316 v 8.82 z m 1.09199,-8.82 h 1.33 v 6.286 q 0,1.456 0.63,2.128 0.63,0.672 2.058,0.672 1.47,0 2.072,-0.686 0.616,-0.686 0.616,-2.114 v -6.286 h 1.33 v 5.936 q 0,2.184 -0.91,3.22 -0.91,1.022 -3.108,1.022 -2.128,0 -3.08,-0.994 -0.938,-1.008 -0.938,-3.108 z m 17.08001,0 v 1.148 h -5.586 v 3.122 h 5.222 v 1.106 h -5.222 v 3.444 h 5.656 V 185 h -6.972 v -9.968 z m 8.708,2.926 h -1.274 q -0.21,-2.03 -2.478,-2.03 -1.078,0 -1.666,0.434 -0.588,0.434 -0.588,1.218 0,0.28 0.084,0.49 0.084,0.21 0.28,0.378 0.21,0.154 0.392,0.266 0.182,0.112 0.574,0.224 0.392,0.112 0.63,0.168 0.238,0.042 0.742,0.154 0.616,0.126 1.022,0.238 0.406,0.098 0.966,0.336 0.56,0.238 0.882,0.532 0.336,0.28 0.574,0.756 0.252,0.476 0.252,1.078 0,1.05 -0.588,1.764 -0.588,0.7 -1.428,0.98 -0.84,0.28 -1.862,0.28 -1.876,0 -3.01,-0.882 -1.12,-0.896 -1.12,-2.632 h 1.274 q 0.042,1.274 0.854,1.862 0.812,0.574 2.114,0.574 1.022,0 1.75,-0.42 0.728,-0.434 0.728,-1.4 0,-0.448 -0.196,-0.756 -0.196,-0.322 -0.616,-0.518 -0.42,-0.21 -0.84,-0.336 -0.42,-0.126 -1.106,-0.28 -0.098,-0.014 -0.14,-0.028 -1.54,-0.35 -2.016,-0.56 -1.456,-0.63 -1.456,-2.17 0,-1.428 1.05,-2.128 1.064,-0.714 2.562,-0.714 1.638,0 2.618,0.784 0.98,0.784 1.036,2.338 z"
       id="text21"
       class="nonterminal"
       style="font-size:14px;font-family:HelveticaNeueCyr, Sans-serif;fill:#1a0000"
       aria-label="VALUES" />
  </a>
  <path
     id="rect22"
     style="fill:#330000;stroke:#330000;stroke-width:0.907052"
     d="m 479.37706,111.11389 h 5.44231 c 5.02507,0 9.07052,4.04545 9.07052,9.07052 v 10.88462 c 0,5.02507 -4.04545,9.07053 -9.07052,9.07053 h -5.44231 c -5.02507,0 -9.07053,-4.04546 -9.07053,-9.07053 v -10.88462 c 0,-5.02507 4.04546,-9.07052 9.07053,-9.07052 z" />
  <path
     id="rect23"
     class="terminal"
     style="fill:#ff4d4d;stroke:#330000;stroke-width:0.907052"
     d="m 477.56295,109.29978 h 5.44231 c 5.02507,0 9.07053,4.04546 9.07053,9.07052 v 10.88463 c 0,5.02507 -4.04546,9.07052 -9.07053,9.07052 h -5.44231 c -5.02507,0 -9.07052,-4.04545 -9.07052,-9.07052 V 118.3703 c 0,-5.02506 4.04545,-9.07052 9.07052,-9.07052 z" />
  <path
     d="m 477.51216,118.25964 h 1.49845 q 1.68893,2.59054 1.68893,5.65094 0,1.43496 -0.44446,3.09849 -0.44445,1.66353 -1.21908,2.69213 h -1.51114 q 0.76192,-1.54925 1.07939,-2.85721 0.33016,-1.32067 0.33016,-2.95881 0,-3.07309 -1.42225,-5.62554 z"
     id="text23"
     class="terminal"
     style="font-weight:bold;font-size:14px;font-family:HelveticaNeueCyr, Sans-serif;fill:#140000;stroke-width:0.907052"
     aria-label=")" />
  <path
     id="rect24"
     style="fill:#330000;stroke:#330000;stroke-width:0.907052"
     d="m 521.10145,111.11389 h 16.32694 c 5.02507,0 9.07052,4.04545 9.07052,9.07052 v 10.88462 c 0,5.02507 -4.04545,9.07053 -9.07052,9.07053 h -16.32694 c -5.02506,0 -9.07052,-4.04546 -9.07052,-9.07053 v -10.88462 c 0,-5.02507 4.04546,-9.07052 9.07052,-9.07052 z" />
  <path
     id="rect25"
     class="terminal"
     style="fill:#ff4d4d;stroke:#330000;stroke-width:0.907052"
     d="m 519.28735,109.29978 h 16.32694 c 5.02507,0 9.07052,4.04546 9.07052,9.07052 v 10.88463 c 0,5.02507 -4.04545,9.07052 -9.07052,9.07052 h -16.32694 c -5.02507,0 -9.07052,-4.04545 -9.07052,-9.07052 V 118.3703 c 0,-5.02506 4.04545,-9.07052 9.07052,-9.07052 z" />
  <path
     d="m 524.65891,118.38663 3.44136,9.0542 h -2.08259 l -0.71113,-2.0191 h -3.36517 l -0.73652,2.0191 h -2.0318 l 3.44136,-9.0542 z m 0.16509,5.58744 -1.19368,-3.36516 -1.20638,3.36516 z m 10.73041,-2.88261 H 533.675 q -0.11429,-1.34606 -1.71433,-1.34606 -0.68573,0 -1.07939,0.27937 -0.38096,0.26667 -0.38096,0.74922 0,0.16509 0.0508,0.29207 0.0508,0.12699 0.19049,0.24128 0.13968,0.10159 0.27937,0.17778 0.13968,0.0635 0.40636,0.15239 0.27937,0.0762 0.49525,0.13968 0.22857,0.0635 0.63493,0.16509 0.40636,0.10159 0.71113,0.19048 1.33337,0.38096 1.981,0.9524 0.66034,0.57144 0.66034,1.63814 0,0.77462 -0.31747,1.35876 -0.31747,0.57144 -0.86351,0.91431 -0.53335,0.33017 -1.18099,0.48255 -0.63493,0.16509 -1.35876,0.16509 -1.84132,0 -2.88261,-0.83812 -1.0286,-0.85082 -1.0413,-2.38736 h 1.96831 q 0.0508,1.70163 2.04449,1.70163 0.77462,0 1.21908,-0.31747 0.45715,-0.33017 0.45715,-0.88891 0,-0.46985 -0.41905,-0.68573 -0.40636,-0.21588 -1.72703,-0.59684 -0.21588,-0.0508 -0.33017,-0.0889 -0.45715,-0.12699 -0.63494,-0.17779 -0.17778,-0.0635 -0.57144,-0.20318 -0.38096,-0.13968 -0.55874,-0.25397 -0.17778,-0.11429 -0.44446,-0.31747 -0.25397,-0.20318 -0.36826,-0.41906 -0.11429,-0.22857 -0.21588,-0.54604 -0.0889,-0.33017 -0.0889,-0.71113 0,-1.23178 0.9524,-1.9683 0.95241,-0.73653 2.52705,-0.73653 1.52385,0 2.48895,0.72383 0.96511,0.71113 0.9905,2.15878 z"
     id="text25"
     class="terminal"
     style="font-weight:bold;font-size:14px;font-family:HelveticaNeueCyr, Sans-serif;fill:#140000;stroke-width:0.907052"
     aria-label="AS" />
  <a
     xlink:href="#name"
     xlink:title="name"
     id="a27"
     transform="matrix(0.90705214,0,0,0.90705214,-0.45352615,-0.45352615)">
    <path
       id="rect26"
       style="fill:#330000;stroke:#330000"
       d="m 623,123 h 56 v 32 h -56 z" />
    <path
       id="rect27"
       class="nonterminal"
       style="fill:#ff9e9e;stroke:#330000"
       d="m 621,121 h 56 v 32 h -56 z" />
    <path
       d="m 633.016,133.776 v 1.12 q 0.896,-1.316 2.464,-1.316 1.274,0 1.834,0.672 0.574,0.658 0.574,1.946 V 141 h -1.19 v -4.256 q 0,-0.532 -0.042,-0.826 -0.028,-0.308 -0.168,-0.644 -0.14,-0.35 -0.476,-0.504 -0.336,-0.154 -0.868,-0.154 -2.058,0 -2.058,2.604 V 141 h -1.19 v -7.224 z m 13.062,6.272 v 0.924 q -0.364,0.14 -0.812,0.14 -1.022,0 -1.05,-1.064 -1.022,1.148 -2.618,1.148 -1.064,0 -1.694,-0.546 -0.616,-0.546 -0.616,-1.498 0,-1.932 2.562,-2.254 1.512,-0.182 1.75,-0.266 0.504,-0.168 0.546,-0.7 0.014,-0.084 0.014,-0.182 0,-1.19 -1.638,-1.19 -0.84,0 -1.274,0.35 -0.434,0.336 -0.518,1.12 h -1.162 q 0.028,-1.162 0.826,-1.806 0.798,-0.644 2.198,-0.644 1.526,0 2.268,0.7 0.238,0.224 0.35,0.588 0.112,0.364 0.126,0.602 0.014,0.224 0.014,0.686 0,0.546 -0.028,1.624 -0.028,1.064 -0.028,1.596 0,0.392 0.098,0.56 0.112,0.154 0.392,0.154 0.112,0 0.294,-0.042 z m -1.918,-2.8 q -0.126,0.098 -0.266,0.168 -0.14,0.07 -0.364,0.112 -0.21,0.042 -0.294,0.07 -0.07,0.014 -0.364,0.056 -0.294,0.028 -0.308,0.028 -0.434,0.056 -0.574,0.084 -0.126,0.014 -0.504,0.112 -0.364,0.098 -0.518,0.224 -0.154,0.126 -0.308,0.378 -0.14,0.238 -0.14,0.574 0,0.56 0.378,0.882 0.392,0.322 1.064,0.322 0.854,0 1.526,-0.504 0.672,-0.504 0.672,-1.19 z m 4.15801,-3.472 v 1.05 q 0.476,-0.644 1.022,-0.938 0.546,-0.294 1.33,-0.294 1.484,0 2.002,1.246 0.938,-1.26 2.394,-1.26 1.12,0 1.694,0.63 0.588,0.616 0.588,1.736 V 141 h -1.19 v -4.55 q 0,-0.896 -0.28,-1.344 -0.28,-0.462 -1.162,-0.462 -1.848,0 -1.848,2.254 V 141 h -1.19 v -4.634 q 0,-0.826 -0.28,-1.26 -0.266,-0.448 -1.05,-0.448 -1.106,0 -1.54,0.686 -0.42,0.672 -0.42,1.834 V 141 h -1.19 v -7.224 z m 16.996,4.942 q -0.546,2.52 -3.15,2.52 -1.596,0 -2.506,-0.994 -0.896,-0.994 -0.896,-2.758 0,-1.75 0.924,-2.828 0.938,-1.092 2.436,-1.092 1.666,0 2.464,1.134 0.812,1.12 0.812,2.842 v 0.168 h -5.432 l -0.014,0.084 q 0,1.148 0.602,1.806 0.602,0.658 1.652,0.658 0.784,0 1.232,-0.364 0.462,-0.364 0.714,-1.176 z m -1.148,-1.974 q -0.084,-1.036 -0.63,-1.61 -0.546,-0.588 -1.442,-0.588 -0.868,0 -1.442,0.588 -0.574,0.588 -0.686,1.61 z"
       id="text27"
       class="nonterminal"
       style="font-size:14px;font-family:HelveticaNeueCyr, Sans-serif;fill:#1a0000"
       aria-label="name" />
  </a>
  <path
     id="rect28"
     style="fill:#330000;stroke:#330000;stroke-width:0.907052"
     d="m 67.575384,254.42813 h 39.910296 c 5.02507,0 9.07052,4.04545 9.07052,9.07052 v 10.88462 c 0,5.02507 -4.04545,9.07052 -9.07052,9.07052 H 67.575384 c -5.025068,0 -9.070521,-4.04545 -9.070521,-9.07052 v -10.88462 c 0,-5.02507 4.045453,-9.07052 9.070521,-9.07052 z" />
  <path
     id="rect29"
     class="terminal"
     style="fill:#ff4d4d;stroke:#330000;stroke-width:0.907052"
     d="m 65.76128,252.61402 h 39.91029 c 5.02507,0 9.07053,4.04545 9.07053,9.07052 v 10.88463 c 0,5.02507 -4.04546,9.07052 -9.07053,9.07052 H 65.76128 c -5.025069,0 -9.070521,-4.04545 -9.070521,-9.07052 v -10.88463 c 0,-5.02507 4.045452,-9.07052 9.070521,-9.07052 z" />
  <path
     d="m 68.631193,261.71357 v 9.04149 h -1.993701 v -9.04149 z m 1.752426,9.04149 v -9.04149 h 2.019098 l 3.720728,6.05729 v -6.05729 h 1.904809 v 9.04149 h -1.981002 l -3.746125,-6.06999 v 6.06999 z m 9.409749,0 v -9.04149 h 2.019098 l 3.720728,6.05729 v -6.05729 h 1.904809 v 9.04149 h -1.981002 l -3.746125,-6.06999 v 6.06999 z m 16.190871,-9.04149 v 1.62544 h -4.812818 v 1.9683 h 4.419158 v 1.56194 h -4.419158 v 2.22228 h 4.901709 v 1.66353 h -6.870013 v -9.04149 z m 1.523857,0 h 4.495354 q 1.34606,0 2.19688,0.63493 0.85081,0.63494 0.85081,1.93021 0,0.78732 -0.38096,1.38416 -0.38096,0.58414 -1.05399,0.83812 1.16828,0.24127 1.33336,2.10799 0,0.0635 0.0254,0.39366 0.0254,0.33017 0.0508,0.53335 0.0254,0.19048 0.0635,0.46985 0.0381,0.27937 0.11429,0.46985 0.0762,0.19048 0.17778,0.27937 h -2.0572 q -0.10159,-0.20318 -0.15238,-0.50795 -0.0508,-0.31746 -0.0889,-0.80002 -0.0381,-0.49525 -0.0381,-0.54604 -0.10159,-0.95241 -0.48255,-1.32067 -0.36826,-0.36826 -1.32067,-0.36826 h -1.765121 v 3.54294 h -1.968303 z m 1.968303,1.56194 v 2.50165 h 1.879411 q 0.82542,0 1.28257,-0.25397 0.46986,-0.26668 0.46986,-1.0286 0,-0.71113 -0.45716,-0.9651 -0.44445,-0.25398 -1.20638,-0.25398 z"
     id="text29"
     class="terminal"
     style="font-weight:bold;font-size:14px;font-family:HelveticaNeueCyr, Sans-serif;fill:#140000;stroke-width:0.907052"
     aria-label="INNER" />
  <path
     id="rect30"
     style="fill:#330000;stroke:#330000;stroke-width:0.907052"
     d="m 161.90881,225.40246 h 30.83977 c 5.02507,0 9.07052,4.04545 9.07052,9.07052 v 10.88462 c 0,5.02507 -4.04545,9.07053 -9.07052,9.07053 h -30.83977 c -5.02507,0 -9.07052,-4.04546 -9.07052,-9.07053 v -10.88462 c 0,-5.02507 4.04545,-9.07052 9.07052,-9.07052 z" />
  <path
     id="rect31"
     class="terminal"
     style="fill:#ff4d4d;stroke:#330000;stroke-width:0.907052"
     d="m 160.0947,223.58835 h 30.83978 c 5.02506,0 9.07052,4.04545 9.07052,9.07052 v 10.88463 c 0,5.02507 -4.04546,9.07052 -9.07052,9.07052 H 160.0947 c -5.02507,0 -9.07052,-4.04545 -9.07052,-9.07052 v -10.88463 c 0,-5.02507 4.04545,-9.07052 9.07052,-9.07052 z" />
  <path
     d="m 166.41867,232.6879 v 6.20968 q 0,3.04769 -2.9715,3.04769 -1.43496,0 -2.23498,-0.74922 -0.78732,-0.74923 -0.78732,-2.24768 v -0.59684 h 1.82862 v 0.27937 q 0,0.34287 0,0.52065 0.0127,0.16509 0.0635,0.44446 0.0635,0.26667 0.17778,0.40636 0.11429,0.12699 0.33017,0.24127 0.22858,0.10159 0.55874,0.10159 0.35557,0 0.57145,-0.11429 0.22857,-0.11428 0.33016,-0.34286 0.10159,-0.24128 0.12699,-0.46985 0.0254,-0.22858 0.0254,-0.58415 v -6.14618 z m 5.70173,-0.21588 q 1.981,0 3.20008,1.32067 1.23178,1.30797 1.23178,3.42866 0,2.12068 -1.23178,3.42865 -1.21908,1.29527 -3.21278,1.29527 -2.0064,0 -3.23818,-1.29527 -1.23177,-1.30797 -1.23177,-3.42865 0,-2.14609 1.21908,-3.44136 1.23177,-1.30797 3.26357,-1.30797 z m -0.0254,1.62544 q -1.11749,0 -1.79052,0.83811 -0.66033,0.83812 -0.66033,2.24768 0,1.46035 0.66033,2.28577 0.66034,0.82542 1.81592,0.83812 1.13019,0 1.77782,-0.83812 0.64764,-0.83812 0.64764,-2.28577 0,-1.42226 -0.66034,-2.24768 -0.66033,-0.83811 -1.79052,-0.83811 z m 7.80971,-1.40956 v 9.0415 h -1.9937 v -9.0415 z m 1.75244,9.0415 v -9.0415 h 2.01909 l 3.72073,6.05729 v -6.05729 h 1.90481 v 9.0415 h -1.981 l -3.74613,-6.07 v 6.07 z"
     id="text31"
     class="terminal"
     style="font-weight:bold;font-size:14px;font-family:HelveticaNeueCyr, Sans-serif;fill:#140000;stroke-width:0.907052"
     aria-label="JOIN" />
  <a
     xlink:href="#table"
     xlink:title="table"
     id="a33"
     transform="matrix(0.90705214,0,0,0.90705214,-0.45352615,-0.45352615)">
    <path
       id="rect32"
       style="fill:#330000;stroke:#330000"
       d="m 263,249 h 52 v 32 h -52 z" />
    <path
       id="rect33"
       class="nonterminal"
       style="fill:#ff9e9e;stroke:#330000"
       d="m 261,247 h 52 v 32 h -52 z" />
    <path
       d="m 274.99,259.776 v 0.98 h -1.442 v 4.214 q 0,0.35 0,0.462 0.014,0.112 0.084,0.308 0.07,0.182 0.238,0.238 0.168,0.056 0.476,0.056 0.266,0 0.644,-0.042 v 1.022 q -0.504,0.056 -0.91,0.056 -0.504,0 -0.84,-0.112 -0.336,-0.112 -0.518,-0.252 -0.168,-0.14 -0.252,-0.49 -0.084,-0.364 -0.098,-0.602 -0.014,-0.252 -0.014,-0.826 0,-0.126 0,-0.196 v -3.836 h -1.218 v -0.98 h 1.218 v -2.142 h 1.19 v 2.142 z m 7.71401,6.272 v 0.924 q -0.364,0.14 -0.812,0.14 -1.022,0 -1.05,-1.064 -1.022,1.148 -2.618,1.148 -1.064,0 -1.694,-0.546 -0.616,-0.546 -0.616,-1.498 0,-1.932 2.562,-2.254 1.512,-0.182 1.75,-0.266 0.504,-0.168 0.546,-0.7 0.014,-0.084 0.014,-0.182 0,-1.19 -1.638,-1.19 -0.84,0 -1.274,0.35 -0.434,0.336 -0.518,1.12 h -1.162 q 0.028,-1.162 0.826,-1.806 0.798,-0.644 2.198,-0.644 1.526,0 2.268,0.7 0.238,0.224 0.35,0.588 0.112,0.364 0.126,0.602 0.014,0.224 0.014,0.686 0,0.546 -0.028,1.624 -0.028,1.064 -0.028,1.596 0,0.392 0.098,0.56 0.112,0.154 0.392,0.154 0.112,0 0.294,-0.042 z m -1.918,-2.8 q -0.126,0.098 -0.266,0.168 -0.14,0.07 -0.364,0.112 -0.21,0.042 -0.294,0.07 -0.07,0.014 -0.364,0.056 -0.294,0.028 -0.308,0.028 -0.434,0.056 -0.574,0.084 -0.126,0.014 -0.504,0.112 -0.364,0.098 -0.518,0.224 -0.154,0.126 -0.308,0.378 -0.14,0.238 -0.14,0.574 0,0.56 0.378,0.882 0.392,0.322 1.064,0.322 0.854,0 1.526,-0.504 0.672,-0.504 0.672,-1.19 z m 4.21401,-6.216 v 3.738 q 0.784,-1.19 2.394,-1.19 1.484,0 2.366,1.036 0.896,1.022 0.896,2.744 0,1.75 -0.91,2.8 -0.91,1.05 -2.422,1.05 -1.722,0 -2.394,-1.26 V 267 h -1.12 v -9.968 z m 2.212,3.556 q -1.148,0 -1.708,0.826 -0.546,0.826 -0.546,2.03 0,1.274 0.602,2.03 0.616,0.742 1.652,0.742 0.994,0 1.596,-0.77 0.616,-0.784 0.616,-2.072 0,-1.274 -0.602,-2.03 -0.602,-0.756 -1.61,-0.756 z m 6.174,-3.556 V 267 h -1.204 v -9.968 z m 8.022,7.686 q -0.546,2.52 -3.15,2.52 -1.596,0 -2.506,-0.994 -0.896,-0.994 -0.896,-2.758 0,-1.75 0.924,-2.828 0.938,-1.092 2.436,-1.092 1.666,0 2.464,1.134 0.812,1.12 0.812,2.842 v 0.168 h -5.432 l -0.014,0.084 q 0,1.148 0.602,1.806 0.602,0.658 1.652,0.658 0.784,0 1.232,-0.364 0.462,-0.364 0.714,-1.176 z m -1.148,-1.974 q -0.084,-1.036 -0.63,-1.61 -0.546,-0.588 -1.442,-0.588 -0.868,0 -1.442,0.588 -0.574,0.588 -0.686,1.61 z"
       id="text33"
       class="nonterminal"
       style="font-size:14px;font-family:HelveticaNeueCyr, Sans-serif;fill:#1a0000"
       aria-label="table" />
  </a>
  <path
     id="rect34"
     style="fill:#330000;stroke:#330000;stroke-width:0.907052"
     d="m 330.6205,254.42813 h 16.32694 c 5.02507,0 9.07052,4.04545 9.07052,9.07052 v 10.88462 c 0,5.02507 -4.04545,9.07052 -9.07052,9.07052 H 330.6205 c -5.02506,0 -9.07052,-4.04545 -9.07052,-9.07052 v -10.88462 c 0,-5.02507 4.04546,-9.07052 9.07052,-9.07052 z" />
  <path
     id="rect35"
     class="terminal"
     style="fill:#ff4d4d;stroke:#330000;stroke-width:0.907052"
     d="m 328.8064,252.61402 h 16.32694 c 5.02507,0 9.07052,4.04545 9.07052,9.07052 v 10.88463 c 0,5.02507 -4.04545,9.07052 -9.07052,9.07052 H 328.8064 c -5.02507,0 -9.07052,-4.04545 -9.07052,-9.07052 v -10.88463 c 0,-5.02507 4.04545,-9.07052 9.07052,-9.07052 z" />
  <path
     d="m 334.17796,261.70087 3.44136,9.05419 h -2.08259 l -0.71113,-2.01909 h -3.36516 l -0.73653,2.01909 h -2.0318 l 3.44136,-9.05419 z m 0.16509,5.58744 -1.19368,-3.36516 -1.20638,3.36516 z m 10.73041,-2.88261 h -1.87941 q -0.11429,-1.34607 -1.71433,-1.34607 -0.68573,0 -1.07939,0.27938 -0.38096,0.26667 -0.38096,0.74922 0,0.16508 0.0508,0.29207 0.0508,0.12699 0.19049,0.24128 0.13968,0.10159 0.27937,0.17778 0.13968,0.0635 0.40636,0.15238 0.27937,0.0762 0.49525,0.13969 0.22857,0.0635 0.63493,0.16508 0.40636,0.10159 0.71113,0.19048 1.33337,0.38097 1.981,0.95241 0.66034,0.57144 0.66034,1.63814 0,0.77462 -0.31747,1.35876 -0.31747,0.57144 -0.86351,0.91431 -0.53335,0.33016 -1.18098,0.48255 -0.63494,0.16508 -1.35877,0.16508 -1.84131,0 -2.88261,-0.83811 -1.0286,-0.85082 -1.0413,-2.38736 h 1.96831 q 0.0508,1.70163 2.04449,1.70163 0.77462,0 1.21908,-0.31747 0.45715,-0.33017 0.45715,-0.88891 0,-0.46986 -0.41905,-0.68574 -0.40636,-0.21587 -1.72703,-0.59684 -0.21588,-0.0508 -0.33017,-0.0889 -0.45715,-0.12698 -0.63493,-0.17778 -0.17779,-0.0635 -0.57145,-0.20318 -0.38096,-0.13968 -0.55874,-0.25397 -0.17778,-0.11429 -0.44446,-0.31747 -0.25397,-0.20318 -0.36826,-0.41906 -0.11429,-0.22858 -0.21588,-0.54604 -0.0889,-0.33017 -0.0889,-0.71113 0,-1.23178 0.95241,-1.96831 0.9524,-0.73652 2.52704,-0.73652 1.52385,0 2.48895,0.72382 0.96511,0.71113 0.9905,2.15879 z"
     id="text35"
     class="terminal"
     style="font-weight:bold;font-size:14px;font-family:HelveticaNeueCyr, Sans-serif;fill:#140000;stroke-width:0.907052"
     aria-label="AS" />
  <a
     xlink:href="#name"
     xlink:title="name"
     id="a37"
     transform="matrix(0.90705214,0,0,0.90705214,-0.45352615,-0.45352615)">
    <path
       id="rect36"
       style="fill:#330000;stroke:#330000"
       d="m 413,281 h 56 v 32 h -56 z" />
    <path
       id="rect37"
       class="nonterminal"
       style="fill:#ff9e9e;stroke:#330000"
       d="m 411,279 h 56 v 32 h -56 z" />
    <path
       d="m 423.016,291.776 v 1.12 q 0.896,-1.316 2.464,-1.316 1.274,0 1.834,0.672 0.574,0.658 0.574,1.946 V 299 h -1.19 v -4.256 q 0,-0.532 -0.042,-0.826 -0.028,-0.308 -0.168,-0.644 -0.14,-0.35 -0.476,-0.504 -0.336,-0.154 -0.868,-0.154 -2.058,0 -2.058,2.604 V 299 h -1.19 v -7.224 z m 13.062,6.272 v 0.924 q -0.364,0.14 -0.812,0.14 -1.022,0 -1.05,-1.064 -1.022,1.148 -2.618,1.148 -1.064,0 -1.694,-0.546 -0.616,-0.546 -0.616,-1.498 0,-1.932 2.562,-2.254 1.512,-0.182 1.75,-0.266 0.504,-0.168 0.546,-0.7 0.014,-0.084 0.014,-0.182 0,-1.19 -1.638,-1.19 -0.84,0 -1.274,0.35 -0.434,0.336 -0.518,1.12 h -1.162 q 0.028,-1.162 0.826,-1.806 0.798,-0.644 2.198,-0.644 1.526,0 2.268,0.7 0.238,0.224 0.35,0.588 0.112,0.364 0.126,0.602 0.014,0.224 0.014,0.686 0,0.546 -0.028,1.624 -0.028,1.064 -0.028,1.596 0,0.392 0.098,0.56 0.112,0.154 0.392,0.154 0.112,0 0.294,-0.042 z m -1.918,-2.8 q -0.126,0.098 -0.266,0.168 -0.14,0.07 -0.364,0.112 -0.21,0.042 -0.294,0.07 -0.07,0.014 -0.364,0.056 -0.294,0.028 -0.308,0.028 -0.434,0.056 -0.574,0.084 -0.126,0.014 -0.504,0.112 -0.364,0.098 -0.518,0.224 -0.154,0.126 -0.308,0.378 -0.14,0.238 -0.14,0.574 0,0.56 0.378,0.882 0.392,0.322 1.064,0.322 0.854,0 1.526,-0.504 0.672,-0.504 0.672,-1.19 z m 4.15801,-3.472 v 1.05 q 0.476,-0.644 1.022,-0.938 0.546,-0.294 1.33,-0.294 1.484,0 2.002,1.246 0.938,-1.26 2.394,-1.26 1.12,0 1.694,0.63 0.588,0.616 0.588,1.736 V 299 h -1.19 v -4.55 q 0,-0.896 -0.28,-1.344 -0.28,-0.462 -1.162,-0.462 -1.848,0 -1.848,2.254 V 299 h -1.19 v -4.634 q 0,-0.826 -0.28,-1.26 -0.266,-0.448 -1.05,-0.448 -1.106,0 -1.54,0.686 -0.42,0.672 -0.42,1.834 V 299 h -1.19 v -7.224 z m 16.996,4.942 q -0.546,2.52 -3.15,2.52 -1.596,0 -2.506,-0.994 -0.896,-0.994 -0.896,-2.758 0,-1.75 0.924,-2.828 0.938,-1.092 2.436,-1.092 1.666,0 2.464,1.134 0.812,1.12 0.812,2.842 v 0.168 h -5.432 l -0.014,0.084 q 0,1.148 0.602,1.806 0.602,0.658 1.652,0.658 0.784,0 1.232,-0.364 0.462,-0.364 0.714,-1.176 z m -1.148,-1.974 q -0.084,-1.036 -0.63,-1.61 -0.546,-0.588 -1.442,-0.588 -0.868,0 -1.442,0.588 -0.574,0.588 -0.686,1.61 z"
       id="text37"
       class="nonterminal"
       style="font-size:14px;font-family:HelveticaNeueCyr, Sans-serif;fill:#1a0000"
       aria-label="name" />
  </a>
  <path
     id="rect38"
     style="fill:#330000;stroke:#330000;stroke-width:0.907052"
     d="m 247.17171,294.33842 h 5.44231 c 5.02507,0 9.07052,4.04545 9.07052,9.07052 v 10.88463 c 0,5.02507 -4.04545,9.07052 -9.07052,9.07052 h -5.44231 c -5.02507,0 -9.07052,-4.04545 -9.07052,-9.07052 v -10.88463 c 0,-5.02507 4.04545,-9.07052 9.07052,-9.07052 z" />
  <path
     id="rect39"
     class="terminal"
     style="fill:#ff4d4d;stroke:#330000;stroke-width:0.907052"
     d="m 245.3576,292.52431 h 5.44232 c 5.02507,0 9.07052,4.04546 9.07052,9.07053 v 10.88462 c 0,5.02507 -4.04545,9.07052 -9.07052,9.07052 h -5.44232 c -5.02507,0 -9.07052,-4.04545 -9.07052,-9.07052 v -10.88462 c 0,-5.02507 4.04545,-9.07053 9.07052,-9.07053 z" />
  <path
     d="m 249.19262,301.48418 q -0.73653,1.47305 -1.07939,2.81911 -0.33017,1.34607 -0.33017,2.95881 0,2.79372 1.43496,5.66363 h -1.52385 q -0.78732,-1.19368 -1.23178,-2.67943 -0.43175,-1.48575 -0.43175,-2.94611 0,-1.52384 0.41905,-3.07309 0.43176,-1.56194 1.24448,-2.74292 z"
     id="text39"
     class="terminal"
     style="font-weight:bold;font-size:14px;font-family:HelveticaNeueCyr, Sans-serif;fill:#140000;stroke-width:0.907052"
     aria-label="(" />
  <a
     xlink:href="#select"
     xlink:title="SELECT"
     id="a41"
     transform="matrix(0.90705214,0,0,0.90705214,-0.45352615,-0.45352615)">
    <path
       id="rect40"
       style="fill:#330000;stroke:#330000"
       d="m 329,325 h 66 v 32 h -66 z" />
    <path
       id="rect41"
       class="nonterminal"
       style="fill:#ff9e9e;stroke:#330000"
       d="m 327,323 h 66 v 32 h -66 z" />
    <path
       d="m 345.162,335.958 h -1.274 q -0.21,-2.03 -2.478,-2.03 -1.078,0 -1.666,0.434 -0.588,0.434 -0.588,1.218 0,0.28 0.084,0.49 0.084,0.21 0.28,0.378 0.21,0.154 0.392,0.266 0.182,0.112 0.574,0.224 0.392,0.112 0.63,0.168 0.238,0.042 0.742,0.154 0.616,0.126 1.022,0.238 0.406,0.098 0.966,0.336 0.56,0.238 0.882,0.532 0.336,0.28 0.574,0.756 0.252,0.476 0.252,1.078 0,1.05 -0.588,1.764 -0.588,0.7 -1.428,0.98 -0.84,0.28 -1.862,0.28 -1.876,0 -3.01,-0.882 -1.12,-0.896 -1.12,-2.632 h 1.274 q 0.042,1.274 0.854,1.862 0.812,0.574 2.114,0.574 1.022,0 1.75,-0.42 0.728,-0.434 0.728,-1.4 0,-0.448 -0.196,-0.756 -0.196,-0.322 -0.616,-0.518 -0.42,-0.21 -0.84,-0.336 -0.42,-0.126 -1.106,-0.28 -0.098,-0.014 -0.14,-0.028 -1.54,-0.35 -2.016,-0.56 -1.456,-0.63 -1.456,-2.17 0,-1.428 1.05,-2.128 1.064,-0.714 2.562,-0.714 1.638,0 2.618,0.784 0.98,0.784 1.036,2.338 z m 8.91801,-2.926 v 1.148 h -5.586 v 3.122 h 5.222 v 1.106 h -5.222 v 3.444 h 5.656 V 343 h -6.972 v -9.968 z m 8.274,8.82 V 343 h -6.608 v -9.968 h 1.316 v 8.82 z m 8.064,-8.82 v 1.148 h -5.586 v 3.122 h 5.222 v 1.106 h -5.222 v 3.444 h 5.656 V 343 h -6.972 v -9.968 z m 10.094,6.202 q -0.168,1.89 -1.316,2.954 -1.134,1.05 -2.996,1.05 -2.128,0 -3.374,-1.4 -1.246,-1.414 -1.246,-3.808 0,-2.24 1.246,-3.724 1.26,-1.498 3.472,-1.498 1.582,0 2.786,0.854 1.204,0.854 1.344,2.366 h -1.316 q -0.224,-0.98 -0.98,-1.526 -0.756,-0.56 -1.862,-0.56 -1.666,0 -2.52,1.176 -0.84,1.176 -0.84,2.898 0,1.904 0.896,2.996 0.896,1.092 2.45,1.092 1.274,0 2.03,-0.728 0.756,-0.742 0.91,-2.142 z m 8.582,-6.202 v 1.148 h -3.346 V 343 h -1.316 v -8.82 h -3.346 v -1.148 z"
       id="text41"
       class="nonterminal"
       style="font-size:14px;font-family:HelveticaNeueCyr, Sans-serif;fill:#1a0000"
       aria-label="SELECT" />
  </a>
  <a
     xlink:href="#values"
     xlink:title="VALUES"
     id="a43"
     transform="matrix(0.90705214,0,0,0.90705214,-0.45352615,-0.45352615)">
    <path
       id="rect42"
       style="fill:#330000;stroke:#330000"
       d="m 329,369 h 68 v 32 h -68 z" />
    <path
       id="rect43"
       class="nonterminal"
       style="fill:#ff9e9e;stroke:#330000"
       d="m 327,367 h 68 v 32 h -68 z" />
    <path
       d="m 336.972,377.032 h 1.456 l 2.87,8.68 2.898,-8.68 h 1.386 L 342.026,387 h -1.512 z m 13.23001,0 3.892,9.968 h -1.47 l -1.106,-3.052 h -4.186 l -1.134,3.052 h -1.4 l 3.92,-9.968 z m 0.924,5.866 -1.694,-4.606 -1.722,4.606 z m 10.58401,2.954 V 387 h -6.608 v -9.968 h 1.316 v 8.82 z m 1.09199,-8.82 h 1.33 v 6.286 q 0,1.456 0.63,2.128 0.63,0.672 2.058,0.672 1.47,0 2.072,-0.686 0.616,-0.686 0.616,-2.114 v -6.286 h 1.33 v 5.936 q 0,2.184 -0.91,3.22 -0.91,1.022 -3.108,1.022 -2.128,0 -3.08,-0.994 -0.938,-1.008 -0.938,-3.108 z m 17.08001,0 v 1.148 h -5.586 v 3.122 h 5.222 v 1.106 h -5.222 v 3.444 h 5.656 V 387 h -6.972 v -9.968 z m 8.708,2.926 h -1.274 q -0.21,-2.03 -2.478,-2.03 -1.078,0 -1.666,0.434 -0.588,0.434 -0.588,1.218 0,0.28 0.084,0.49 0.084,0.21 0.28,0.378 0.21,0.154 0.392,0.266 0.182,0.112 0.574,0.224 0.392,0.112 0.63,0.168 0.238,0.042 0.742,0.154 0.616,0.126 1.022,0.238 0.406,0.098 0.966,0.336 0.56,0.238 0.882,0.532 0.336,0.28 0.574,0.756 0.252,0.476 0.252,1.078 0,1.05 -0.588,1.764 -0.588,0.7 -1.428,0.98 -0.84,0.28 -1.862,0.28 -1.876,0 -3.01,-0.882 -1.12,-0.896 -1.12,-2.632 h 1.274 q 0.042,1.274 0.854,1.862 0.812,0.574 2.114,0.574 1.022,0 1.75,-0.42 0.728,-0.434 0.728,-1.4 0,-0.448 -0.196,-0.756 -0.196,-0.322 -0.616,-0.518 -0.42,-0.21 -0.84,-0.336 -0.42,-0.126 -1.106,-0.28 -0.098,-0.014 -0.14,-0.028 -1.54,-0.35 -2.016,-0.56 -1.456,-0.63 -1.456,-2.17 0,-1.428 1.05,-2.128 1.064,-0.714 2.562,-0.714 1.638,0 2.618,0.784 0.98,0.784 1.036,2.338 z"
       id="text43"
       class="nonterminal"
       style="font-size:14px;font-family:HelveticaNeueCyr, Sans-serif;fill:#1a0000"
       aria-label="VALUES" />
  </a>
  <path
     id="rect44"
     style="fill:#330000;stroke:#330000;stroke-width:0.907052"
     d="m 404.99878,294.33842 h 5.44231 c 5.02507,0 9.07052,4.04545 9.07052,9.07052 v 10.88463 c 0,5.02507 -4.04545,9.07052 -9.07052,9.07052 h -5.44231 c -5.02507,0 -9.07052,-4.04545 -9.07052,-9.07052 v -10.88463 c 0,-5.02507 4.04545,-9.07052 9.07052,-9.07052 z" />
  <path
     id="rect45"
     class="terminal"
     style="fill:#ff4d4d;stroke:#330000;stroke-width:0.907052"
     d="m 403.18468,292.52431 h 5.44231 c 5.02507,0 9.07052,4.04546 9.07052,9.07053 v 10.88462 c 0,5.02507 -4.04545,9.07052 -9.07052,9.07052 h -5.44231 c -5.02507,0 -9.07053,-4.04545 -9.07053,-9.07052 v -10.88462 c 0,-5.02507 4.04546,-9.07053 9.07053,-9.07053 z" />
  <path
     d="m 403.13388,301.48418 h 1.49845 q 1.68893,2.59054 1.68893,5.65093 0,1.43496 -0.44445,3.09849 -0.44446,1.66353 -1.21908,2.69213 h -1.51115 q 0.76192,-1.54924 1.07939,-2.85721 0.33017,-1.32067 0.33017,-2.95881 0,-3.07309 -1.42226,-5.62553 z"
     id="text45"
     class="terminal"
     style="font-weight:bold;font-size:14px;font-family:HelveticaNeueCyr, Sans-serif;fill:#140000;stroke-width:0.907052"
     aria-label=")" />
  <path
     id="rect46"
     style="fill:#330000;stroke:#330000;stroke-width:0.907052"
     d="m 446.72318,294.33842 h 16.32694 c 5.02507,0 9.07052,4.04545 9.07052,9.07052 v 10.88463 c 0,5.02507 -4.04545,9.07052 -9.07052,9.07052 h -16.32694 c -5.02507,0 -9.07052,-4.04545 -9.07052,-9.07052 v -10.88463 c 0,-5.02507 4.04545,-9.07052 9.07052,-9.07052 z" />
  <path
     id="rect47"
     class="terminal"
     style="fill:#ff4d4d;stroke:#330000;stroke-width:0.907052"
     d="m 444.90907,292.52431 h 16.32694 c 5.02507,0 9.07052,4.04546 9.07052,9.07053 v 10.88462 c 0,5.02507 -4.04545,9.07052 -9.07052,9.07052 h -16.32694 c -5.02506,0 -9.07052,-4.04545 -9.07052,-9.07052 v -10.88462 c 0,-5.02507 4.04546,-9.07053 9.07052,-9.07053 z" />
  <path
     d="m 450.28064,301.61116 3.44135,9.0542 h -2.08259 l -0.71113,-2.0191 h -3.36516 l -0.73653,2.0191 h -2.03179 l 3.44135,-9.0542 z m 0.16508,5.58744 -1.19368,-3.36516 -1.20638,3.36516 z m 10.73042,-2.88261 h -1.87941 q -0.11429,-1.34606 -1.71433,-1.34606 -0.68573,0 -1.07939,0.27937 -0.38097,0.26667 -0.38097,0.74922 0,0.16509 0.0508,0.29208 0.0508,0.12698 0.19048,0.24127 0.13969,0.10159 0.27937,0.17778 0.13969,0.0635 0.40636,0.15239 0.27937,0.0762 0.49525,0.13968 0.22858,0.0635 0.63494,0.16509 0.40636,0.10159 0.71113,0.19048 1.33336,0.38096 1.981,0.9524 0.66033,0.57145 0.66033,1.63814 0,0.77462 -0.31747,1.35876 -0.31746,0.57145 -0.86351,0.91431 -0.53335,0.33017 -1.18098,0.48255 -0.63494,0.16509 -1.35877,0.16509 -1.84131,0 -2.88261,-0.83812 -1.02859,-0.85081 -1.04129,-2.38736 h 1.9683 q 0.0508,1.70163 2.0445,1.70163 0.77462,0 1.21907,-0.31747 0.45716,-0.33017 0.45716,-0.88891 0,-0.46985 -0.41906,-0.68573 -0.40636,-0.21588 -1.72703,-0.59684 -0.21588,-0.0508 -0.33016,-0.0889 -0.45716,-0.12699 -0.63494,-0.17778 -0.17778,-0.0635 -0.57144,-0.20318 -0.38097,-0.13969 -0.55875,-0.25398 -0.17778,-0.11429 -0.44445,-0.31747 -0.25398,-0.20318 -0.36827,-0.41906 -0.11428,-0.22857 -0.21587,-0.54604 -0.0889,-0.33017 -0.0889,-0.71113 0,-1.23178 0.95241,-1.9683 0.9524,-0.73653 2.52705,-0.73653 1.52384,0 2.48895,0.72383 0.9651,0.71113 0.9905,2.15878 z"
     id="text47"
     class="terminal"
     style="font-weight:bold;font-size:14px;font-family:HelveticaNeueCyr, Sans-serif;fill:#140000;stroke-width:0.907052"
     aria-label="AS" />
  <a
     xlink:href="#name"
     xlink:title="name"
     id="a49"
     transform="matrix(0.90705214,0,0,0.90705214,-0.45352615,-0.45352615)">
    <path
       id="rect48"
       style="fill:#330000;stroke:#330000"
       d="m 541,325 h 56 v 32 h -56 z" />
    <path
       id="rect49"
       class="nonterminal"
       style="fill:#ff9e9e;stroke:#330000"
       d="m 539,323 h 56 v 32 h -56 z" />
    <path
       d="m 551.016,335.776 v 1.12 q 0.896,-1.316 2.464,-1.316 1.274,0 1.834,0.672 0.574,0.658 0.574,1.946 V 343 h -1.19 v -4.256 q 0,-0.532 -0.042,-0.826 -0.028,-0.308 -0.168,-0.644 -0.14,-0.35 -0.476,-0.504 -0.336,-0.154 -0.868,-0.154 -2.058,0 -2.058,2.604 V 343 h -1.19 v -7.224 z m 13.062,6.272 v 0.924 q -0.364,0.14 -0.812,0.14 -1.022,0 -1.05,-1.064 -1.022,1.148 -2.618,1.148 -1.064,0 -1.694,-0.546 -0.616,-0.546 -0.616,-1.498 0,-1.932 2.562,-2.254 1.512,-0.182 1.75,-0.266 0.504,-0.168 0.546,-0.7 0.014,-0.084 0.014,-0.182 0,-1.19 -1.638,-1.19 -0.84,0 -1.274,0.35 -0.434,0.336 -0.518,1.12 h -1.162 q 0.028,-1.162 0.826,-1.806 0.798,-0.644 2.198,-0.644 1.526,0 2.268,0.7 0.238,0.224 0.35,0.588 0.112,0.364 0.126,0.602 0.014,0.224 0.014,0.686 0,0.546 -0.028,1.624 -0.028,1.064 -0.028,1.596 0,0.392 0.098,0.56 0.112,0.154 0.392,0.154 0.112,0 0.294,-0.042 z m -1.918,-2.8 q -0.126,0.098 -0.266,0.168 -0.14,0.07 -0.364,0.112 -0.21,0.042 -0.294,0.07 -0.07,0.014 -0.364,0.056 -0.294,0.028 -0.308,0.028 -0.434,0.056 -0.574,0.084 -0.126,0.014 -0.504,0.112 -0.364,0.098 -0.518,0.224 -0.154,0.126 -0.308,0.378 -0.14,0.238 -0.14,0.574 0,0.56 0.378,0.882 0.392,0.322 1.064,0.322 0.854,0 1.526,-0.504 0.672,-0.504 0.672,-1.19 z m 4.15801,-3.472 v 1.05 q 0.476,-0.644 1.022,-0.938 0.546,-0.294 1.33,-0.294 1.484,0 2.002,1.246 0.938,-1.26 2.394,-1.26 1.12,0 1.694,0.63 0.588,0.616 0.588,1.736 V 343 h -1.19 v -4.55 q 0,-0.896 -0.28,-1.344 -0.28,-0.462 -1.162,-0.462 -1.848,0 -1.848,2.254 V 343 h -1.19 v -4.634 q 0,-0.826 -0.28,-1.26 -0.266,-0.448 -1.05,-0.448 -1.106,0 -1.54,0.686 -0.42,0.672 -0.42,1.834 V 343 h -1.19 v -7.224 z m 16.996,4.942 q -0.546,2.52 -3.15,2.52 -1.596,0 -2.506,-0.994 -0.896,-0.994 -0.896,-2.758 0,-1.75 0.924,-2.828 0.938,-1.092 2.436,-1.092 1.666,0 2.464,1.134 0.812,1.12 0.812,2.842 v 0.168 h -5.432 l -0.014,0.084 q 0,1.148 0.602,1.806 0.602,0.658 1.652,0.658 0.784,0 1.232,-0.364 0.462,-0.364 0.714,-1.176 z m -1.148,-1.974 q -0.084,-1.036 -0.63,-1.61 -0.546,-0.588 -1.442,-0.588 -0.868,0 -1.442,0.588 -0.574,0.588 -0.686,1.61 z"
       id="text49"
       class="nonterminal"
       style="font-size:14px;font-family:HelveticaNeueCyr, Sans-serif;fill:#1a0000"
       aria-label="name" />
  </a>
  <path
     id="rect50"
     style="fill:#330000;stroke:#330000;stroke-width:0.907052"
     d="m 586.40921,225.40246 h 18.14104 c 5.02507,0 9.07052,4.04545 9.07052,9.07052 v 10.88462 c 0,5.02507 -4.04545,9.07053 -9.07052,9.07053 h -18.14104 c -5.02507,0 -9.07052,-4.04546 -9.07052,-9.07053 v -10.88462 c 0,-5.02507 4.04545,-9.07052 9.07052,-9.07052 z" />
  <path
     id="rect51"
     class="terminal"
     style="fill:#ff4d4d;stroke:#330000;stroke-width:0.907052"
     d="m 584.5951,223.58835 h 18.14105 c 5.02507,0 9.07052,4.04545 9.07052,9.07052 v 10.88463 c 0,5.02507 -4.04545,9.07052 -9.07052,9.07052 H 584.5951 c -5.02507,0 -9.07052,-4.04545 -9.07052,-9.07052 v -10.88463 c 0,-5.02507 4.04545,-9.07052 9.07052,-9.07052 z" />
  <path
     d="m 589.56031,232.47202 q 1.981,0 3.20008,1.32067 1.23177,1.30797 1.23177,3.42866 0,2.12068 -1.23177,3.42865 -1.21908,1.29527 -3.21278,1.29527 -2.0064,0 -3.23818,-1.29527 -1.23177,-1.30797 -1.23177,-3.42865 0,-2.14609 1.21907,-3.44136 1.23178,-1.30797 3.26358,-1.30797 z m -0.0254,1.62544 q -1.11749,0 -1.79052,0.83811 -0.66034,0.83812 -0.66034,2.24768 0,1.46035 0.66034,2.28577 0.66033,0.82542 1.81592,0.83812 1.13018,0 1.77782,-0.83812 0.64763,-0.83812 0.64763,-2.28577 0,-1.42226 -0.66033,-2.24768 -0.66033,-0.83811 -1.79052,-0.83811 z m 5.81602,7.63194 v -9.0415 h 2.0191 l 3.72072,6.05729 v -6.05729 h 1.90481 v 9.0415 h -1.981 l -3.74612,-6.07 v 6.07 z"
     id="text51"
     class="terminal"
     style="font-weight:bold;font-size:14px;font-family:HelveticaNeueCyr, Sans-serif;fill:#140000;stroke-width:0.907052"
     aria-label="ON" />
  <a
     xlink:href="#expression"
     xlink:title="expression"
     id="a53"
     transform="matrix(0.90705214,0,0,0.90705214,-0.45352615,-0.45352615)">
    <path
       id="rect52"
       style="fill:#330000;stroke:#330000"
       d="m 697,249 h 90 v 32 h -90 z" />
    <path
       id="rect53"
       class="nonterminal"
       style="fill:#ff9e9e;stroke:#330000"
       d="m 695,247 h 90 v 32 h -90 z" />
    <path
       d="m 712.07,264.718 q -0.546,2.52 -3.15,2.52 -1.596,0 -2.506,-0.994 -0.896,-0.994 -0.896,-2.758 0,-1.75 0.924,-2.828 0.938,-1.092 2.436,-1.092 1.666,0 2.464,1.134 0.812,1.12 0.812,2.842 v 0.168 h -5.432 l -0.014,0.084 q 0,1.148 0.602,1.806 0.602,0.658 1.652,0.658 0.784,0 1.232,-0.364 0.462,-0.364 0.714,-1.176 z m -1.148,-1.974 q -0.084,-1.036 -0.63,-1.61 -0.546,-0.588 -1.442,-0.588 -0.868,0 -1.442,0.588 -0.574,0.588 -0.686,1.61 z m 8.42801,-2.968 -2.52,3.332 2.814,3.892 h -1.526 l -2.03,-2.968 -2.002,2.968 h -1.442 l 2.716,-3.808 -2.506,-3.416 h 1.512 l 1.75,2.478 1.792,-2.478 z m 2.43599,0 v 1.022 q 0.784,-1.246 2.436,-1.246 1.512,0 2.394,1.022 0.896,1.022 0.896,2.772 0,1.75 -0.882,2.8 -0.868,1.036 -2.352,1.036 -1.554,0 -2.422,-1.19 v 3.794 h -1.19 v -10.01 z m 2.254,0.77 q -1.036,0 -1.638,0.756 -0.588,0.742 -0.588,2.058 0,1.316 0.602,2.072 0.616,0.742 1.666,0.742 1.022,0 1.61,-0.756 0.588,-0.756 0.588,-2.058 0,-1.316 -0.602,-2.058 -0.588,-0.756 -1.638,-0.756 z m 8.69401,-0.938 v 1.232 q -0.126,-0.014 -0.308,-0.014 -0.574,0 -0.994,0.182 -0.42,0.168 -0.672,0.448 -0.238,0.28 -0.392,0.7 -0.154,0.42 -0.21,0.84 -0.042,0.42 -0.042,0.952 V 267 h -1.19 v -7.224 h 1.134 v 1.554 q 0.714,-1.722 2.674,-1.722 z m 6.81801,5.11 q -0.546,2.52 -3.15,2.52 -1.596,0 -2.506,-0.994 -0.896,-0.994 -0.896,-2.758 0,-1.75 0.924,-2.828 0.938,-1.092 2.436,-1.092 1.666,0 2.464,1.134 0.812,1.12 0.812,2.842 v 0.168 h -5.432 l -0.014,0.084 q 0,1.148 0.602,1.806 0.602,0.658 1.652,0.658 0.784,0 1.232,-0.364 0.462,-0.364 0.714,-1.176 z m -1.148,-1.974 q -0.084,-1.036 -0.63,-1.61 -0.546,-0.588 -1.442,-0.588 -0.868,0 -1.442,0.588 -0.574,0.588 -0.686,1.61 z m 7.85401,-0.868 h -1.19 q -0.112,-1.316 -1.764,-1.316 -0.686,0 -1.078,0.266 -0.392,0.266 -0.392,0.714 0,0.126 0.028,0.252 0.028,0.112 0.098,0.21 0.084,0.084 0.14,0.154 0.07,0.07 0.21,0.14 0.154,0.056 0.224,0.098 0.084,0.042 0.28,0.098 0.21,0.042 0.294,0.07 0.084,0.014 0.322,0.07 0.252,0.056 0.322,0.07 0.518,0.112 0.77,0.182 0.266,0.07 0.714,0.266 0.462,0.182 0.7,0.392 0.238,0.196 0.42,0.56 0.196,0.35 0.196,0.798 0,1.05 -0.826,1.694 -0.812,0.63 -2.17,0.63 -1.47,0 -2.268,-0.644 -0.784,-0.644 -0.84,-1.862 h 1.176 q 0.098,1.526 1.96,1.526 0.798,0 1.274,-0.322 0.49,-0.336 0.49,-0.882 0,-0.364 -0.252,-0.602 -0.252,-0.238 -0.56,-0.336 -0.308,-0.112 -0.882,-0.252 -0.084,-0.014 -0.126,-0.028 -0.126,-0.028 -0.546,-0.112 -0.406,-0.098 -0.588,-0.154 -0.182,-0.056 -0.532,-0.168 -0.336,-0.126 -0.504,-0.252 -0.168,-0.14 -0.378,-0.336 -0.196,-0.21 -0.28,-0.476 -0.084,-0.28 -0.084,-0.63 0,-0.98 0.742,-1.554 0.756,-0.574 2.016,-0.574 1.274,0 2.072,0.602 0.812,0.602 0.812,1.708 z m 7,0 h -1.19 q -0.112,-1.316 -1.764,-1.316 -0.686,0 -1.078,0.266 -0.392,0.266 -0.392,0.714 0,0.126 0.028,0.252 0.028,0.112 0.098,0.21 0.084,0.084 0.14,0.154 0.07,0.07 0.21,0.14 0.154,0.056 0.224,0.098 0.084,0.042 0.28,0.098 0.21,0.042 0.294,0.07 0.084,0.014 0.322,0.07 0.252,0.056 0.322,0.07 0.518,0.112 0.77,0.182 0.266,0.07 0.714,0.266 0.462,0.182 0.7,0.392 0.238,0.196 0.42,0.56 0.196,0.35 0.196,0.798 0,1.05 -0.826,1.694 -0.812,0.63 -2.17,0.63 -1.47,0 -2.268,-0.644 -0.784,-0.644 -0.84,-1.862 h 1.176 q 0.098,1.526 1.96,1.526 0.798,0 1.274,-0.322 0.49,-0.336 0.49,-0.882 0,-0.364 -0.252,-0.602 -0.252,-0.238 -0.56,-0.336 -0.308,-0.112 -0.882,-0.252 -0.084,-0.014 -0.126,-0.028 -0.126,-0.028 -0.546,-0.112 -0.406,-0.098 -0.588,-0.154 -0.182,-0.056 -0.532,-0.168 -0.336,-0.126 -0.504,-0.252 -0.168,-0.14 -0.378,-0.336 -0.196,-0.21 -0.28,-0.476 -0.084,-0.28 -0.084,-0.63 0,-0.98 0.742,-1.554 0.756,-0.574 2.016,-0.574 1.274,0 2.072,0.602 0.812,0.602 0.812,1.708 z m 2.898,-4.844 v 1.456 h -1.204 v -1.456 z m 0,2.744 V 267 h -1.204 v -7.224 z m 2.422,0.826 q 0.952,-1.036 2.59,-1.036 1.638,0 2.548,0.994 0.91,0.994 0.91,2.786 0,1.834 -0.91,2.856 -0.91,1.022 -2.562,1.022 -1.652,0 -2.59,-1.008 -0.938,-1.008 -0.938,-2.8 0,-1.778 0.952,-2.814 z m 4.214,0.728 q -0.602,-0.77 -1.652,-0.77 -1.05,0 -1.666,0.77 -0.616,0.77 -0.616,2.058 0,1.33 0.602,2.086 0.616,0.742 1.708,0.742 1.05,0 1.638,-0.756 0.602,-0.756 0.602,-2.086 0,-1.288 -0.616,-2.044 z m 4.36799,-1.554 v 1.12 q 0.896,-1.316 2.464,-1.316 1.274,0 1.834,0.672 0.574,0.658 0.574,1.946 V 267 h -1.19 v -4.256 q 0,-0.532 -0.042,-0.826 -0.028,-0.308 -0.168,-0.644 -0.14,-0.35 -0.476,-0.504 -0.336,-0.154 -0.868,-0.154 -2.058,0 -2.058,2.604 V 267 h -1.19 v -7.224 z"
       id="text53"
       class="nonterminal"
       style="font-size:14px;font-family:HelveticaNeueCyr, Sans-serif;fill:#1a0000"
       aria-label="expression" />
  </a>
  <path
     id="rect54"
     style="fill:#330000;stroke:#330000;stroke-width:0.907052"
     d="m 170.97933,463.05012 h 45.35261 c 5.02506,0 9.07052,4.04545 9.07052,9.07052 v 10.88462 c 0,5.02507 -4.04546,9.07053 -9.07052,9.07053 h -45.35261 c -5.02507,0 -9.07052,-4.04546 -9.07052,-9.07053 v -10.88462 c 0,-5.02507 4.04545,-9.07052 9.07052,-9.07052 z" />
  <path
     id="rect55"
     class="terminal"
     style="fill:#ff4d4d;stroke:#330000;stroke-width:0.907052"
     d="m 169.16522,461.23601 h 45.35261 c 5.02507,0 9.07052,4.04546 9.07052,9.07052 v 10.88463 c 0,5.02507 -4.04545,9.07052 -9.07052,9.07052 h -45.35261 c -5.02506,0 -9.07052,-4.04545 -9.07052,-9.07052 v -10.88463 c 0,-5.02506 4.04546,-9.07052 9.07052,-9.07052 z" />
  <path
     d="m 169.20332,470.33556 h 1.9937 l 1.44766,6.14619 1.58734,-6.14619 h 1.86671 l 1.56194,6.22238 1.49845,-6.22238 h 1.95561 l -2.43816,9.0415 h -1.981 l -1.54924,-6.17159 -1.52385,6.17159 h -2.0191 z m 20.48305,0 v 9.0415 h -1.981 v -3.89851 h -3.69533 v 3.89851 h -1.981 v -9.0415 h 1.981 v 3.40326 h 3.69533 v -3.40326 z m 8.53354,0 v 1.62544 h -4.81282 v 1.9683 h 4.41916 v 1.56194 h -4.41916 v 2.22228 h 4.90171 v 1.66354 h -6.87001 v -9.0415 z m 1.52386,0 h 4.49535 q 1.34606,0 2.19688,0.63494 0.85081,0.63493 0.85081,1.9302 0,0.78732 -0.38096,1.38416 -0.38096,0.58415 -1.054,0.83812 1.16829,0.24128 1.33337,2.10799 0,0.0635 0.0254,0.39366 0.0254,0.33017 0.0508,0.53335 0.0254,0.19048 0.0635,0.46985 0.0381,0.27937 0.11429,0.46985 0.0762,0.19048 0.17778,0.27938 h -2.0572 q -0.10159,-0.20318 -0.15238,-0.50795 -0.0508,-0.31747 -0.0889,-0.80002 -0.0381,-0.49525 -0.0381,-0.54605 -0.10159,-0.9524 -0.48255,-1.32067 -0.36826,-0.36826 -1.32067,-0.36826 h -1.76512 v 3.54295 h -1.9683 z m 1.9683,1.56194 v 2.50165 h 1.87941 q 0.82542,0 1.28257,-0.25397 0.46986,-0.26667 0.46986,-1.0286 0,-0.71113 -0.45716,-0.9651 -0.44445,-0.25398 -1.20638,-0.25398 z m 13.90511,-1.56194 v 1.62544 h -4.81282 v 1.9683 h 4.41916 v 1.56194 h -4.41916 v 2.22228 h 4.90171 v 1.66354 h -6.87001 v -9.0415 z"
     id="text55"
     class="terminal"
     style="font-weight:bold;font-size:14px;font-family:HelveticaNeueCyr, Sans-serif;fill:#140000;stroke-width:0.907052"
     aria-label="WHERE" />
  <a
     xlink:href="#expression"
     xlink:title="expression"
     id="a57"
     transform="matrix(0.90705214,0,0,0.90705214,-0.45352615,-0.45352615)">
    <path
       id="rect56"
       style="fill:#330000;stroke:#330000"
       d="m 269,511 h 90 v 32 h -90 z" />
    <path
       id="rect57"
       class="nonterminal"
       style="fill:#ff9e9e;stroke:#330000"
       d="m 267,509 h 90 v 32 h -90 z" />
    <path
       d="m 284.07,526.718 q -0.546,2.52 -3.15,2.52 -1.596,0 -2.506,-0.994 -0.896,-0.994 -0.896,-2.758 0,-1.75 0.924,-2.828 0.938,-1.092 2.436,-1.092 1.666,0 2.464,1.134 0.812,1.12 0.812,2.842 v 0.168 h -5.432 l -0.014,0.084 q 0,1.148 0.602,1.806 0.602,0.658 1.652,0.658 0.784,0 1.232,-0.364 0.462,-0.364 0.714,-1.176 z m -1.148,-1.974 q -0.084,-1.036 -0.63,-1.61 -0.546,-0.588 -1.442,-0.588 -0.868,0 -1.442,0.588 -0.574,0.588 -0.686,1.61 z m 8.42801,-2.968 -2.52,3.332 2.814,3.892 h -1.526 l -2.03,-2.968 -2.002,2.968 h -1.442 l 2.716,-3.808 -2.506,-3.416 h 1.512 l 1.75,2.478 1.792,-2.478 z m 2.43599,0 v 1.022 q 0.784,-1.246 2.436,-1.246 1.512,0 2.394,1.022 0.896,1.022 0.896,2.772 0,1.75 -0.882,2.8 -0.868,1.036 -2.352,1.036 -1.554,0 -2.422,-1.19 v 3.794 h -1.19 v -10.01 z m 2.254,0.77 q -1.036,0 -1.638,0.756 -0.588,0.742 -0.588,2.058 0,1.316 0.602,2.072 0.616,0.742 1.666,0.742 1.022,0 1.61,-0.756 0.588,-0.756 0.588,-2.058 0,-1.316 -0.602,-2.058 -0.588,-0.756 -1.638,-0.756 z m 8.69401,-0.938 v 1.232 q -0.126,-0.014 -0.308,-0.014 -0.574,0 -0.994,0.182 -0.42,0.168 -0.672,0.448 -0.238,0.28 -0.392,0.7 -0.154,0.42 -0.21,0.84 -0.042,0.42 -0.042,0.952 V 529 h -1.19 v -7.224 h 1.134 v 1.554 q 0.714,-1.722 2.674,-1.722 z m 6.81801,5.11 q -0.546,2.52 -3.15,2.52 -1.596,0 -2.506,-0.994 -0.896,-0.994 -0.896,-2.758 0,-1.75 0.924,-2.828 0.938,-1.092 2.436,-1.092 1.666,0 2.464,1.134 0.812,1.12 0.812,2.842 v 0.168 h -5.432 l -0.014,0.084 q 0,1.148 0.602,1.806 0.602,0.658 1.652,0.658 0.784,0 1.232,-0.364 0.462,-0.364 0.714,-1.176 z m -1.148,-1.974 q -0.084,-1.036 -0.63,-1.61 -0.546,-0.588 -1.442,-0.588 -0.868,0 -1.442,0.588 -0.574,0.588 -0.686,1.61 z m 7.85401,-0.868 h -1.19 q -0.112,-1.316 -1.764,-1.316 -0.686,0 -1.078,0.266 -0.392,0.266 -0.392,0.714 0,0.126 0.028,0.252 0.028,0.112 0.098,0.21 0.084,0.084 0.14,0.154 0.07,0.07 0.21,0.14 0.154,0.056 0.224,0.098 0.084,0.042 0.28,0.098 0.21,0.042 0.294,0.07 0.084,0.014 0.322,0.07 0.252,0.056 0.322,0.07 0.518,0.112 0.77,0.182 0.266,0.07 0.714,0.266 0.462,0.182 0.7,0.392 0.238,0.196 0.42,0.56 0.196,0.35 0.196,0.798 0,1.05 -0.826,1.694 -0.812,0.63 -2.17,0.63 -1.47,0 -2.268,-0.644 -0.784,-0.644 -0.84,-1.862 h 1.176 q 0.098,1.526 1.96,1.526 0.798,0 1.274,-0.322 0.49,-0.336 0.49,-0.882 0,-0.364 -0.252,-0.602 -0.252,-0.238 -0.56,-0.336 -0.308,-0.112 -0.882,-0.252 -0.084,-0.014 -0.126,-0.028 -0.126,-0.028 -0.546,-0.112 -0.406,-0.098 -0.588,-0.154 -0.182,-0.056 -0.532,-0.168 -0.336,-0.126 -0.504,-0.252 -0.168,-0.14 -0.378,-0.336 -0.196,-0.21 -0.28,-0.476 -0.084,-0.28 -0.084,-0.63 0,-0.98 0.742,-1.554 0.756,-0.574 2.016,-0.574 1.274,0 2.072,0.602 0.812,0.602 0.812,1.708 z m 7,0 h -1.19 q -0.112,-1.316 -1.764,-1.316 -0.686,0 -1.078,0.266 -0.392,0.266 -0.392,0.714 0,0.126 0.028,0.252 0.028,0.112 0.098,0.21 0.084,0.084 0.14,0.154 0.07,0.07 0.21,0.14 0.154,0.056 0.224,0.098 0.084,0.042 0.28,0.098 0.21,0.042 0.294,0.07 0.084,0.014 0.322,0.07 0.252,0.056 0.322,0.07 0.518,0.112 0.77,0.182 0.266,0.07 0.714,0.266 0.462,0.182 0.7,0.392 0.238,0.196 0.42,0.56 0.196,0.35 0.196,0.798 0,1.05 -0.826,1.694 -0.812,0.63 -2.17,0.63 -1.47,0 -2.268,-0.644 -0.784,-0.644 -0.84,-1.862 h 1.176 q 0.098,1.526 1.96,1.526 0.798,0 1.274,-0.322 0.49,-0.336 0.49,-0.882 0,-0.364 -0.252,-0.602 -0.252,-0.238 -0.56,-0.336 -0.308,-0.112 -0.882,-0.252 -0.084,-0.014 -0.126,-0.028 -0.126,-0.028 -0.546,-0.112 -0.406,-0.098 -0.588,-0.154 -0.182,-0.056 -0.532,-0.168 -0.336,-0.126 -0.504,-0.252 -0.168,-0.14 -0.378,-0.336 -0.196,-0.21 -0.28,-0.476 -0.084,-0.28 -0.084,-0.63 0,-0.98 0.742,-1.554 0.756,-0.574 2.016,-0.574 1.274,0 2.072,0.602 0.812,0.602 0.812,1.708 z m 2.898,-4.844 v 1.456 h -1.204 v -1.456 z m 0,2.744 V 529 h -1.204 v -7.224 z m 2.422,0.826 q 0.952,-1.036 2.59,-1.036 1.638,0 2.548,0.994 0.91,0.994 0.91,2.786 0,1.834 -0.91,2.856 -0.91,1.022 -2.562,1.022 -1.652,0 -2.59,-1.008 -0.938,-1.008 -0.938,-2.8 0,-1.778 0.952,-2.814 z m 4.214,0.728 q -0.602,-0.77 -1.652,-0.77 -1.05,0 -1.666,0.77 -0.616,0.77 -0.616,2.058 0,1.33 0.602,2.086 0.616,0.742 1.708,0.742 1.05,0 1.638,-0.756 0.602,-0.756 0.602,-2.086 0,-1.288 -0.616,-2.044 z m 4.36799,-1.554 v 1.12 q 0.896,-1.316 2.464,-1.316 1.274,0 1.834,0.672 0.574,0.658 0.574,1.946 V 529 h -1.19 v -4.256 q 0,-0.532 -0.042,-0.826 -0.028,-0.308 -0.168,-0.644 -0.14,-0.35 -0.476,-0.504 -0.336,-0.154 -0.868,-0.154 -2.058,0 -2.058,2.604 V 529 h -1.19 v -7.224 z"
       id="text57"
       class="nonterminal"
       style="font-size:14px;font-family:HelveticaNeueCyr, Sans-serif;fill:#1a0000"
       aria-label="expression" />
  </a>
  <path
     id="rect58"
     style="fill:#330000;stroke:#330000;stroke-width:0.907052"
     d="m 388.67184,434.02445 h 63.49365 c 5.02507,0 9.07052,4.04545 9.07052,9.07052 v 10.88463 c 0,5.02506 -4.04545,9.07052 -9.07052,9.07052 h -63.49365 c -5.02507,0 -9.07052,-4.04546 -9.07052,-9.07052 v -10.88463 c 0,-5.02507 4.04545,-9.07052 9.07052,-9.07052 z" />
  <path
     id="rect59"
     class="terminal"
     style="fill:#ff4d4d;stroke:#330000;stroke-width:0.907052"
     d="m 386.85774,432.21034 h 63.49365 c 5.02507,0 9.07052,4.04546 9.07052,9.07053 v 10.88462 c 0,5.02507 -4.04545,9.07052 -9.07052,9.07052 h -63.49365 c -5.02507,0 -9.07052,-4.04545 -9.07052,-9.07052 v -10.88462 c 0,-5.02507 4.04545,-9.07053 9.07052,-9.07053 z" />
  <path
     d="m 395.78494,445.46238 v 4.88901 h -1.25717 l -0.19048,-1.0286 q -1.0159,1.24448 -2.71753,1.24448 -1.89211,0 -3.07309,-1.30797 -1.18098,-1.30797 -1.18098,-3.39056 0,-2.09529 1.24447,-3.41596 1.24448,-1.33337 3.20008,-1.33337 1.54925,0 2.61594,0.87621 1.06669,0.86352 1.24448,2.28577 h -1.91751 q -0.13969,-0.71112 -0.66034,-1.10479 -0.52064,-0.39366 -1.30797,-0.39366 -1.13018,0 -1.77782,0.82542 -0.64763,0.81272 -0.64763,2.26038 0,1.47305 0.64763,2.29847 0.66034,0.81271 1.84132,0.81271 0.92701,0 1.52385,-0.55874 0.59684,-0.57144 0.63493,-1.48575 h -2.0191 v -1.47305 z m 1.66355,-4.15249 h 4.49535 q 1.34606,0 2.19688,0.63494 0.85081,0.63493 0.85081,1.9302 0,0.78733 -0.38096,1.38417 -0.38096,0.58414 -1.05399,0.83811 1.16828,0.24128 1.33336,2.10799 0,0.0635 0.0254,0.39366 0.0254,0.33017 0.0508,0.53335 0.0254,0.19048 0.0635,0.46985 0.0381,0.27937 0.11429,0.46986 0.0762,0.19048 0.17778,0.27937 h -2.05719 q -0.10159,-0.20318 -0.15239,-0.50795 -0.0508,-0.31747 -0.0889,-0.80002 -0.0381,-0.49525 -0.0381,-0.54605 -0.10159,-0.9524 -0.48255,-1.32067 -0.36826,-0.36826 -1.32067,-0.36826 h -1.76512 v 3.54295 h -1.9683 z m 1.9683,1.56195 v 2.50164 h 1.87941 q 0.82542,0 1.28257,-0.25397 0.46986,-0.26667 0.46986,-1.0286 0,-0.71113 -0.45716,-0.9651 -0.44445,-0.25397 -1.20638,-0.25397 z m 11.21298,-1.77783 q 1.981,0 3.20008,1.32067 1.23178,1.30797 1.23178,3.42866 0,2.12069 -1.23178,3.42866 -1.21908,1.29527 -3.21278,1.29527 -2.0064,0 -3.23818,-1.29527 -1.23177,-1.30797 -1.23177,-3.42866 0,-2.14609 1.21908,-3.44136 1.23177,-1.30797 3.26357,-1.30797 z m -0.0254,1.62544 q -1.11749,0 -1.79052,0.83812 -0.66033,0.83811 -0.66033,2.24767 0,1.46036 0.66033,2.28577 0.66033,0.82542 1.81592,0.83812 1.13019,0 1.77782,-0.83812 0.64764,-0.83811 0.64764,-2.28577 0,-1.42226 -0.66034,-2.24767 -0.66033,-0.83812 -1.79052,-0.83812 z m 13.51145,-1.40956 v 5.43506 q 0,1.9429 -0.93971,2.86991 -0.927,0.91431 -2.90801,0.91431 -2.00639,0 -2.9588,-0.92701 -0.93971,-0.9397 -0.93971,-2.88261 v -5.40966 h 1.98101 v 5.40966 q 0,1.10479 0.41905,1.63814 0.41906,0.53334 1.52385,0.53334 1.0667,0 1.44766,-0.53334 0.39366,-0.53335 0.39366,-1.63814 v -5.40966 z m 1.72702,0 h 3.89851 q 1.52385,0 2.41276,0.73653 0.90161,0.72383 0.90161,2.17148 0,1.42226 -0.88891,2.15878 -0.88892,0.72383 -2.32387,0.72383 h -2.0318 v 3.25088 h -1.9683 z m 1.9683,1.62544 v 2.60324 h 1.76512 q 1.54925,0 1.54925,-1.29527 0,-1.30797 -1.53655,-1.30797 z m 10.0066,-1.62544 h 4.27947 q 1.26988,0 2.0699,0.57144 0.81271,0.55875 0.81271,1.70163 0,0.63494 -0.33016,1.13019 -0.33017,0.48255 -0.90161,0.73653 1.65083,0.46985 1.65083,2.20958 0,1.28257 -0.86351,1.9937 -0.86351,0.69843 -2.19688,0.69843 h -4.52075 z m 1.93021,1.53655 v 2.12069 h 1.80322 q 1.49845,0 1.49845,-1.054 0,-0.62224 -0.40636,-0.83812 -0.40636,-0.22857 -1.09209,-0.22857 z m 0,3.46675 v 2.46355 h 1.9937 q 0.77462,0 1.21908,-0.25397 0.45715,-0.25397 0.45715,-0.9778 0,-0.73653 -0.48255,-0.9778 -0.46985,-0.25398 -1.29527,-0.25398 z m 14.73052,-5.0033 -3.36516,5.56205 v 3.47945 h -1.9556 v -3.51755 l -3.37787,-5.52395 h 2.26038 l 2.10799,3.61914 2.13338,-3.61914 z"
     id="text59"
     class="terminal"
     style="font-weight:bold;font-size:14px;font-family:HelveticaNeueCyr, Sans-serif;fill:#140000;stroke-width:0.907052"
     aria-label="GROUP BY" />
  <a
     xlink:href="#expression"
     xlink:title="expression"
     id="a61"
     transform="matrix(0.90705214,0,0,0.90705214,-0.45352615,-0.45352615)">
    <path
       id="rect60"
       style="fill:#330000;stroke:#330000"
       d="m 549,479 h 90 v 32 h -90 z" />
    <path
       id="rect61"
       class="nonterminal"
       style="fill:#ff9e9e;stroke:#330000"
       d="m 547,477 h 90 v 32 h -90 z" />
    <path
       d="m 564.07,494.718 q -0.546,2.52 -3.15,2.52 -1.596,0 -2.506,-0.994 -0.896,-0.994 -0.896,-2.758 0,-1.75 0.924,-2.828 0.938,-1.092 2.436,-1.092 1.666,0 2.464,1.134 0.812,1.12 0.812,2.842 v 0.168 h -5.432 l -0.014,0.084 q 0,1.148 0.602,1.806 0.602,0.658 1.652,0.658 0.784,0 1.232,-0.364 0.462,-0.364 0.714,-1.176 z m -1.148,-1.974 q -0.084,-1.036 -0.63,-1.61 -0.546,-0.588 -1.442,-0.588 -0.868,0 -1.442,0.588 -0.574,0.588 -0.686,1.61 z m 8.42801,-2.968 -2.52,3.332 2.814,3.892 h -1.526 l -2.03,-2.968 -2.002,2.968 h -1.442 l 2.716,-3.808 -2.506,-3.416 h 1.512 l 1.75,2.478 1.792,-2.478 z m 2.43599,0 v 1.022 q 0.784,-1.246 2.436,-1.246 1.512,0 2.394,1.022 0.896,1.022 0.896,2.772 0,1.75 -0.882,2.8 -0.868,1.036 -2.352,1.036 -1.554,0 -2.422,-1.19 v 3.794 h -1.19 v -10.01 z m 2.254,0.77 q -1.036,0 -1.638,0.756 -0.588,0.742 -0.588,2.058 0,1.316 0.602,2.072 0.616,0.742 1.666,0.742 1.022,0 1.61,-0.756 0.588,-0.756 0.588,-2.058 0,-1.316 -0.602,-2.058 -0.588,-0.756 -1.638,-0.756 z m 8.69401,-0.938 v 1.232 q -0.126,-0.014 -0.308,-0.014 -0.574,0 -0.994,0.182 -0.42,0.168 -0.672,0.448 -0.238,0.28 -0.392,0.7 -0.154,0.42 -0.21,0.84 -0.042,0.42 -0.042,0.952 V 497 h -1.19 v -7.224 h 1.134 v 1.554 q 0.714,-1.722 2.674,-1.722 z m 6.81801,5.11 q -0.546,2.52 -3.15,2.52 -1.596,0 -2.506,-0.994 -0.896,-0.994 -0.896,-2.758 0,-1.75 0.924,-2.828 0.938,-1.092 2.436,-1.092 1.666,0 2.464,1.134 0.812,1.12 0.812,2.842 v 0.168 h -5.432 l -0.014,0.084 q 0,1.148 0.602,1.806 0.602,0.658 1.652,0.658 0.784,0 1.232,-0.364 0.462,-0.364 0.714,-1.176 z m -1.148,-1.974 q -0.084,-1.036 -0.63,-1.61 -0.546,-0.588 -1.442,-0.588 -0.868,0 -1.442,0.588 -0.574,0.588 -0.686,1.61 z m 7.85401,-0.868 h -1.19 q -0.112,-1.316 -1.764,-1.316 -0.686,0 -1.078,0.266 -0.392,0.266 -0.392,0.714 0,0.126 0.028,0.252 0.028,0.112 0.098,0.21 0.084,0.084 0.14,0.154 0.07,0.07 0.21,0.14 0.154,0.056 0.224,0.098 0.084,0.042 0.28,0.098 0.21,0.042 0.294,0.07 0.084,0.014 0.322,0.07 0.252,0.056 0.322,0.07 0.518,0.112 0.77,0.182 0.266,0.07 0.714,0.266 0.462,0.182 0.7,0.392 0.238,0.196 0.42,0.56 0.196,0.35 0.196,0.798 0,1.05 -0.826,1.694 -0.812,0.63 -2.17,0.63 -1.47,0 -2.268,-0.644 -0.784,-0.644 -0.84,-1.862 h 1.176 q 0.098,1.526 1.96,1.526 0.798,0 1.274,-0.322 0.49,-0.336 0.49,-0.882 0,-0.364 -0.252,-0.602 -0.252,-0.238 -0.56,-0.336 -0.308,-0.112 -0.882,-0.252 -0.084,-0.014 -0.126,-0.028 -0.126,-0.028 -0.546,-0.112 -0.406,-0.098 -0.588,-0.154 -0.182,-0.056 -0.532,-0.168 -0.336,-0.126 -0.504,-0.252 -0.168,-0.14 -0.378,-0.336 -0.196,-0.21 -0.28,-0.476 -0.084,-0.28 -0.084,-0.63 0,-0.98 0.742,-1.554 0.756,-0.574 2.016,-0.574 1.274,0 2.072,0.602 0.812,0.602 0.812,1.708 z m 7,0 h -1.19 q -0.112,-1.316 -1.764,-1.316 -0.686,0 -1.078,0.266 -0.392,0.266 -0.392,0.714 0,0.126 0.028,0.252 0.028,0.112 0.098,0.21 0.084,0.084 0.14,0.154 0.07,0.07 0.21,0.14 0.154,0.056 0.224,0.098 0.084,0.042 0.28,0.098 0.21,0.042 0.294,0.07 0.084,0.014 0.322,0.07 0.252,0.056 0.322,0.07 0.518,0.112 0.77,0.182 0.266,0.07 0.714,0.266 0.462,0.182 0.7,0.392 0.238,0.196 0.42,0.56 0.196,0.35 0.196,0.798 0,1.05 -0.826,1.694 -0.812,0.63 -2.17,0.63 -1.47,0 -2.268,-0.644 -0.784,-0.644 -0.84,-1.862 h 1.176 q 0.098,1.526 1.96,1.526 0.798,0 1.274,-0.322 0.49,-0.336 0.49,-0.882 0,-0.364 -0.252,-0.602 -0.252,-0.238 -0.56,-0.336 -0.308,-0.112 -0.882,-0.252 -0.084,-0.014 -0.126,-0.028 -0.126,-0.028 -0.546,-0.112 -0.406,-0.098 -0.588,-0.154 -0.182,-0.056 -0.532,-0.168 -0.336,-0.126 -0.504,-0.252 -0.168,-0.14 -0.378,-0.336 -0.196,-0.21 -0.28,-0.476 -0.084,-0.28 -0.084,-0.63 0,-0.98 0.742,-1.554 0.756,-0.574 2.016,-0.574 1.274,0 2.072,0.602 0.812,0.602 0.812,1.708 z m 2.898,-4.844 v 1.456 h -1.204 v -1.456 z m 0,2.744 V 497 h -1.204 v -7.224 z m 2.422,0.826 q 0.952,-1.036 2.59,-1.036 1.638,0 2.548,0.994 0.91,0.994 0.91,2.786 0,1.834 -0.91,2.856 -0.91,1.022 -2.562,1.022 -1.652,0 -2.59,-1.008 -0.938,-1.008 -0.938,-2.8 0,-1.778 0.952,-2.814 z m 4.214,0.728 q -0.602,-0.77 -1.652,-0.77 -1.05,0 -1.666,0.77 -0.616,0.77 -0.616,2.058 0,1.33 0.602,2.086 0.616,0.742 1.708,0.742 1.05,0 1.638,-0.756 0.602,-0.756 0.602,-2.086 0,-1.288 -0.616,-2.044 z m 4.36799,-1.554 v 1.12 q 0.896,-1.316 2.464,-1.316 1.274,0 1.834,0.672 0.574,0.658 0.574,1.946 V 497 h -1.19 v -4.256 q 0,-0.532 -0.042,-0.826 -0.028,-0.308 -0.168,-0.644 -0.14,-0.35 -0.476,-0.504 -0.336,-0.154 -0.868,-0.154 -2.058,0 -2.058,2.604 V 497 h -1.19 v -7.224 z"
       id="text61"
       class="nonterminal"
       style="font-size:14px;font-family:HelveticaNeueCyr, Sans-serif;fill:#1a0000"
       aria-label="expression" />
  </a>
  <path
     id="rect62"
     style="fill:#330000;stroke:#330000;stroke-width:0.907052"
     d="m 506.58862,394.11415 h 3.62821 c 5.02507,0 9.07052,4.04546 9.07052,9.07053 v 10.88462 c 0,5.02507 -4.04545,9.07052 -9.07052,9.07052 h -3.62821 c -5.02507,0 -9.07052,-4.04545 -9.07052,-9.07052 v -10.88462 c 0,-5.02507 4.04545,-9.07053 9.07052,-9.07053 z" />
  <path
     id="rect63"
     class="terminal"
     style="fill:#ff4d4d;stroke:#330000;stroke-width:0.907052"
     d="m 504.77452,392.30005 h 3.6282 c 5.02507,0 9.07053,4.04545 9.07053,9.07052 v 10.88463 c 0,5.02507 -4.04546,9.07052 -9.07053,9.07052 h -3.6282 c -5.02507,0 -9.07053,-4.04545 -9.07053,-9.07052 v -10.88463 c 0,-5.02507 4.04546,-9.07052 9.07053,-9.07052 z" />
  <path
     d="m 507.54284,408.46009 v 1.61274 q 0,1.10479 -0.49525,1.70163 -0.48255,0.60954 -1.51115,0.77462 v -0.88891 q 0.85081,-0.25397 0.90161,-1.21908 h -0.90161 v -1.981 z"
     id="text63"
     class="terminal"
     style="font-weight:bold;font-size:14px;font-family:HelveticaNeueCyr, Sans-serif;fill:#140000;stroke-width:0.907052"
     aria-label="," />
  <a
     xlink:href="#option"
     xlink:title="Option"
     id="a65"
     transform="matrix(0.90705214,0,0,0.90705214,-0.45352615,-0.45352615)">
    <path
       id="rect64"
       style="fill:#330000;stroke:#330000"
       d="m 719,511 h 62 v 32 h -62 z" />
    <path
       id="rect65"
       class="nonterminal"
       style="fill:#ff9e9e;stroke:#330000"
       d="m 717,509 h 62 v 32 h -62 z" />
    <path
       d="m 732.306,518.794 q 2.268,0 3.528,1.428 1.26,1.414 1.26,3.71 0,2.31 -1.246,3.808 -1.246,1.498 -3.528,1.498 -1.162,0 -2.086,-0.42 -0.924,-0.42 -1.512,-1.162 -0.574,-0.742 -0.882,-1.694 -0.294,-0.952 -0.294,-2.058 0,-2.338 1.288,-3.724 1.302,-1.386 3.472,-1.386 z m 0,1.148 q -1.666,0 -2.562,1.176 -0.882,1.162 -0.882,2.884 0,1.876 0.938,2.996 0.952,1.106 2.534,1.106 1.568,0 2.506,-1.12 0.938,-1.12 0.938,-2.982 0,-1.848 -0.952,-2.954 -0.938,-1.106 -2.52,-1.106 z m 7.35,1.834 v 1.022 q 0.784,-1.246 2.436,-1.246 1.512,0 2.394,1.022 0.896,1.022 0.896,2.772 0,1.75 -0.882,2.8 -0.868,1.036 -2.352,1.036 -1.554,0 -2.422,-1.19 v 3.794 h -1.19 v -10.01 z m 2.254,0.77 q -1.036,0 -1.638,0.756 -0.588,0.742 -0.588,2.058 0,1.316 0.602,2.072 0.616,0.742 1.666,0.742 1.022,0 1.61,-0.756 0.588,-0.756 0.588,-2.058 0,-1.316 -0.602,-2.058 -0.588,-0.756 -1.638,-0.756 z m 8.02201,-0.77 v 0.98 h -1.442 v 4.214 q 0,0.35 0,0.462 0.014,0.112 0.084,0.308 0.07,0.182 0.238,0.238 0.168,0.056 0.476,0.056 0.266,0 0.644,-0.042 v 1.022 q -0.504,0.056 -0.91,0.056 -0.504,0 -0.84,-0.112 -0.336,-0.112 -0.518,-0.252 -0.168,-0.14 -0.252,-0.49 -0.084,-0.364 -0.098,-0.602 -0.014,-0.252 -0.014,-0.826 0,-0.126 0,-0.196 v -3.836 h -1.218 v -0.98 h 1.218 v -2.142 h 1.19 v 2.142 z m 2.57601,-2.744 v 1.456 h -1.204 v -1.456 z m 0,2.744 V 529 h -1.204 v -7.224 z m 2.422,0.826 q 0.952,-1.036 2.59,-1.036 1.638,0 2.548,0.994 0.91,0.994 0.91,2.786 0,1.834 -0.91,2.856 -0.91,1.022 -2.562,1.022 -1.652,0 -2.59,-1.008 -0.938,-1.008 -0.938,-2.8 0,-1.778 0.952,-2.814 z m 4.214,0.728 q -0.602,-0.77 -1.652,-0.77 -1.05,0 -1.666,0.77 -0.616,0.77 -0.616,2.058 0,1.33 0.602,2.086 0.616,0.742 1.708,0.742 1.05,0 1.638,-0.756 0.602,-0.756 0.602,-2.086 0,-1.288 -0.616,-2.044 z m 4.36799,-1.554 v 1.12 q 0.896,-1.316 2.464,-1.316 1.274,0 1.834,0.672 0.574,0.658 0.574,1.946 V 529 h -1.19 v -4.256 q 0,-0.532 -0.042,-0.826 -0.028,-0.308 -0.168,-0.644 -0.14,-0.35 -0.476,-0.504 -0.336,-0.154 -0.868,-0.154 -2.058,0 -2.058,2.604 V 529 h -1.19 v -7.224 z"
       id="text65"
       class="nonterminal"
       style="font-size:14px;font-family:HelveticaNeueCyr, Sans-serif;fill:#1a0000"
       aria-label="Option" />
  </a>
  <path
     class="line"
     d="m 14.96636,54.876654 h 1.814105 m 0,0 h 9.070521 m 63.49365,0 h 9.070521 m 18.141043,0 h 9.07052 m 58.05134,0 h 9.07052 m -94.333423,0 H 116.5562 m -0.90705,0 q -8.16347,0 -8.16347,-9.070521 V 24.036882 q 0,-9.070522 9.07052,-9.070522 m 76.19238,39.910294 h 18.14104 m -18.14104,0 q 9.07052,0 9.07052,-9.070521 V 24.036882 q 0,-9.070522 -9.07052,-9.070522 m -76.19238,0 h 9.07052 m 21.76925,0 h 9.07052 m 0,0 h 36.28209 m 18.14104,39.910294 h 9.07052 m 54.42313,0 h 9.07052 m 18.14105,0 h 9.07052 m 47.16671,0 h 9.07052 m 18.14104,0 h 9.07052 m 0,0 h 112.47447 m -139.68603,0 h 18.14104 m 121.54499,0 h 18.14104 m -157.82707,0 q 9.07052,0 9.07052,9.070522 m 139.68603,0 q 0,-9.070522 9.07052,-9.070522 m -148.75655,9.070522 v 10.884625 m 139.68603,0 V 63.947176 M 375.97311,74.831801 q 0,9.070522 9.07052,9.070522 m 121.54499,0 q 9.07052,0 9.07052,-9.070522 m -130.61551,9.070522 h 9.07052 m 34.46799,0 h 9.07052 m 0,0 h 9.07052 m 50.79492,0 h 9.07052 m 18.14104,-29.025669 h 97.96163 m -339.2375,0 h 18.14105 m 321.09645,0 h 18.14105 m -357.37855,0 q 9.07052,0 9.07052,9.070522 m 339.2375,0 q 0,-9.070522 9.07053,-9.070522 M 292.52431,63.947176 V 114.7421 m 339.2375,0 V 63.947176 M 292.52431,114.7421 q 0,9.07052 9.07053,9.07052 m 321.09645,0 q 9.07052,0 9.07052,-9.07052 m -330.16697,9.07052 h 9.07052 m 23.58335,0 h 9.07052 m 18.14105,0 h 9.07052 m 59.86544,0 h 9.07052 m 0,0 h 1.81411 m -97.96164,0 h 18.14105 m 79.82059,0 h 18.14104 m -116.10268,0 q 9.07053,0 9.07053,9.07052 m 97.96163,0 q 0,-9.07052 9.07052,-9.07052 m -107.03215,9.07052 v 21.76925 m 97.96163,0 v -21.76925 m -97.96163,21.76925 q 0,9.07052 9.07052,9.07052 m 79.82059,0 q 9.07052,0 9.07052,-9.07052 m -88.89111,9.07052 h 9.07052 m 61.67954,0 h 9.07053 m 18.14104,-39.91029 h 9.07052 m 23.58336,0 h 9.07052 m 0,0 h 9.07052 m 34.46798,0 h 9.07052 m 0,0 h 9.07052 m 50.79492,0 h 9.07052 m 19.95515,-68.935966 h 1.8141 m 1.81411,0 h 1.8141 m 1.81411,0 h 1.8141 M 0.45352599,209.07552 H 2.2676302 m 1.8141043,0 h 1.8141043 m 1.8141043,0 h 1.8141038 m 19.9551481,0 h 9.070521 m 0,0 H 720.65292 m -709.314768,0 h 18.141043 m 691.173725,0 h 18.14105 m -727.455818,0 q 9.070521,0 9.070521,9.07052 m 709.314777,0 q 0,-9.07052 9.07052,-9.07052 m -718.385297,9.07052 v 10.88463 m 709.314777,0 V 218.14604 M 20.408673,229.03067 q 0,9.07052 9.070522,9.07052 m 691.173725,0 q 9.07053,0 9.07053,-9.07052 m -682.103213,9.07052 h 9.070522 m 0,0 h 67.121861 m -94.333425,0 h 18.141042 m 76.192383,0 h 18.14104 m -112.474465,0 q 9.070521,0 9.070521,9.07052 m 94.333424,0 q 0,-9.07052 9.07052,-9.07052 m -103.403944,9.07052 v 10.88462 m 94.333424,0 v -10.88462 m -94.333424,10.88462 q 0,9.07053 9.070521,9.07053 m 76.192383,0 q 9.07052,0 9.07052,-9.07053 m -85.262903,9.07053 h 9.070522 m 58.051341,0 h 9.07052 m 18.14104,-29.02567 h 9.07052 m 48.98082,0 h 9.07052 m 18.14104,0 h 9.07052 m 47.16671,0 h 9.07052 m 18.14105,0 h 9.07052 m 0,0 h 112.47446 m -139.68603,0 h 18.14105 m 121.54498,0 h 18.14105 m -157.82708,0 q 9.07053,0 9.07053,9.07052 m 139.68603,0 q 0,-9.07052 9.07052,-9.07052 m -148.75655,9.07052 v 10.88462 m 139.68603,0 v -10.88462 m -139.68603,10.88462 q 0,9.07053 9.07052,9.07053 m 121.54498,0 q 9.07053,0 9.07053,-9.07053 m -130.61551,9.07053 h 9.07052 m 34.46798,0 h 9.07052 m 0,0 h 9.07052 m 50.79492,0 h 9.07052 m 18.14105,-29.02567 h 97.96163 m -339.2375,0 h 18.14104 m 321.09646,0 h 18.14104 m -357.37854,0 q 9.07052,0 9.07052,9.07052 m 339.2375,0 q 0,-9.07052 9.07052,-9.07052 m -348.30802,9.07052 v 50.79492 m 339.2375,0 v -50.79492 m -339.2375,50.79492 q 0,9.07052 9.07052,9.07052 m 321.09646,0 q 9.07052,0 9.07052,-9.07052 m -330.16698,9.07052 h 9.07052 m 23.58336,0 h 9.07052 m 18.14104,0 h 9.07052 m 59.86544,0 h 9.07053 m 0,0 h 1.8141 m -97.96163,0 H 287.082 m 79.82059,0 h 18.14104 m -116.10267,0 q 9.07052,0 9.07052,9.07052 m 97.96163,0 q 0,-9.07052 9.07052,-9.07052 m -107.03215,9.07052 v 21.76925 m 97.96163,0 v -21.76925 m -97.96163,21.76925 q 0,9.07052 9.07052,9.07052 m 79.82059,0 q 9.07052,0 9.07052,-9.07052 m -88.89111,9.07052 h 9.07052 m 61.67955,0 h 9.07052 m 18.14104,-39.91029 h 9.07052 m 23.58336,0 h 9.07052 m 0,0 h 9.07052 m 34.46798,0 h 9.07053 m 0,0 h 9.07052 m 50.79492,0 h 9.07052 m 18.14104,-68.93596 h 9.07052 m 36.28209,0 h 9.07052 m 0,0 h 9.07052 m 81.63469,0 h 9.07052 m 19.95515,-29.02567 h 1.81411 m 1.8141,0 h 1.8141 m 1.81411,0 h 1.8141 M 121.99851,446.72318 h 1.81411 m 1.8141,0 h 1.81411 m 1.8141,0 h 1.8141 m 19.95515,0 h 9.07052 m 0,0 h 172.33991 m -199.55147,0 h 18.14104 m 181.41043,0 h 18.14104 m -217.69251,0 q 9.07052,0 9.07052,9.07052 m 199.55147,0 q 0,-9.07052 9.07052,-9.07052 m -208.62199,9.07052 v 10.88463 m 199.55147,0 V 455.7937 m -199.55147,10.88463 q 0,9.07052 9.07052,9.07052 m 181.41043,0 q 9.07052,0 9.07052,-9.07052 m -190.48095,9.07052 h 9.07052 m 63.49365,0 h 9.07052 m 0,0 h 9.07053 m 81.63469,0 h 9.07052 m 36.28208,-29.02567 h 9.07053 m 81.63469,0 h 9.07052 m 18.14104,0 h 9.07052 m 81.6347,0 h 9.07052 m -117.91678,0 h 18.14104 m -0.90705,0 q -8.16347,0 -8.16347,-9.07052 v -21.76925 q 0,-9.07053 9.07052,-9.07053 m 99.77574,39.9103 h 18.14104 m -18.14104,0 q 9.07052,0 9.07052,-9.07052 v -21.76925 q 0,-9.07053 -9.07052,-9.07053 m -99.77574,0 h 9.07052 m 21.76926,0 h 9.07052 m 0,0 h 59.86544 m -235.83356,39.9103 h 18.14104 m 235.83356,0 h 18.14104 m -272.11564,0 q 9.07052,0 9.07052,9.07052 m 253.9746,0 q 0,-9.07052 9.07052,-9.07052 m -263.04512,9.07052 v 12.69873 m 253.9746,0 V 455.7937 m -253.9746,12.69873 q 0,9.07052 9.07052,9.07052 m 235.83356,0 q 9.07052,0 9.07052,-9.07052 m -244.90408,9.07052 h 9.07053 m 0,0 h 226.76303 m 36.28209,-30.83977 h 9.07052 m 0,0 h 65.30775 m -92.51932,0 h 18.14105 m 74.37827,0 h 18.14104 m -110.66036,0 q 9.07052,0 9.07052,9.07052 m 92.51932,0 q 0,-9.07052 9.07052,-9.07052 m -101.58984,9.07052 v 10.88463 m 92.51932,0 V 455.7937 m -92.51932,10.88463 q 0,9.07052 9.07053,9.07052 m 74.37827,0 q 9.07052,0 9.07052,-9.07052 m -83.44879,9.07052 h 9.07052 m 56.23723,0 h 9.07052 m 20.8622,-29.02567 h -2.72116"
     id="path65" />
  <path
     id="polygon65"
     style="fill:#330000;stroke:#330000;stroke-width:0.907052"
     d="m 742.42218,446.72318 7.25641,-3.62821 v 7.25642 z" />
  <path
     id="polygon66"
     style="fill:#330000;stroke:#330000;stroke-width:0.907052"
     d="m 742.42218,446.72318 -7.25642,-3.62821 v 7.25642 z" />
</svg>
