<?xml version="1.0" encoding="UTF-8" standalone="no"?>
<svg
   width="171"
   height="81"
   version="1.1"
   id="svg12333"
   sodipodi:docname="STATEMENT.svg"
   inkscape:version="1.2.2 (b0a8486541, 2022-12-01)"
   xmlns:inkscape="http://www.inkscape.org/namespaces/inkscape"
   xmlns:sodipodi="http://sodipodi.sourceforge.net/DTD/sodipodi-0.dtd"
   xmlns:xlink="http://www.w3.org/1999/xlink"
   xmlns="http://www.w3.org/2000/svg"
   xmlns:svg="http://www.w3.org/2000/svg">
  <sodipodi:namedview
     id="namedview12335"
     pagecolor="#ffffff"
     bordercolor="#666666"
     borderopacity="1.0"
     inkscape:showpageshadow="2"
     inkscape:pageopacity="0.0"
     inkscape:pagecheckerboard="0"
     inkscape:deskcolor="#d1d1d1"
     showgrid="false"
     inkscape:zoom="7.5847953"
     inkscape:cx="82.59946"
     inkscape:cy="40.475713"
     inkscape:window-width="1920"
     inkscape:window-height="1011"
     inkscape:window-x="0"
     inkscape:window-y="32"
     inkscape:window-maximized="1"
     inkscape:current-layer="svg12333" />
  <defs
     id="defs12305">
    <style
       type="text/css"
       id="style12303">
    @namespace &quot;http://www.w3.org/2000/svg&quot;;
    .line                 {fill: none; stroke: #320000; stroke-width: 1;}
    .bold-line            {stroke: #FFE0E0; shape-rendering: crispEdges; stroke-width: 2;}
    .thin-line            {stroke: #1F0000; shape-rendering: crispEdges}
    .filled               {fill: #320000; stroke: none;}
    text.terminal         {font-family: HelveticaNeueCyr, Sans-serif;
                            font-size: 14px;
                            fill: #FFE0E0;
                            font-weight: bold;
                          }
    text.nonterminal      {font-family: HelveticaNeueCyr, Sans-serif;
                            font-size: 14px;
                            fill: #FFE0E0;
                            font-weight: normal;
                          }
    text.regexp           {font-family: HelveticaNeueCyr, Sans-serif;
                            font-size: 14px;
                            fill: #1F0000;
                            font-weight: normal;
                          }
    rect, circle, polygon {fill: #320000; stroke: #320000;}
    rect.terminal         {fill: #FF0000; stroke: #320000; stroke-width: 1;}
    rect.nonterminal      {fill: #FF3F3F; stroke: #320000; stroke-width: 1;}
    rect.text             {fill: none; stroke: none;}
    polygon.regexp        {fill: #FF5E5E; stroke: #320000; stroke-width: 1;}
  </style>
  </defs>
  <polygon
     points="9 17 1 13 1 21"
     id="polygon12307" />
  <polygon
     points="17 17 9 13 9 21"
     id="polygon12309" />
  <a
     xlink:href="#explain"
     xlink:title="EXPLAIN"
     id="a12317">
    <rect
       x="51"
       y="3"
       width="72"
       height="32"
       id="rect12311" />
    <rect
       x="49"
       y="1"
       width="72"
       height="32"
       class="nonterminal"
       id="rect12313" />
    <text
       class="nonterminal"
       x="59"
       y="21"
       id="text12315">EXPLAIN</text>
  </a>
  <a
     xlink:href="#dml"
     xlink:title="DML"
     id="a12325">
    <rect
       x="51"
       y="47"
       width="46"
       height="32"
       id="rect12319" />
    <rect
       x="49"
       y="45"
       width="46"
       height="32"
       class="nonterminal"
       id="rect12321" />
    <text
       class="nonterminal"
       x="59"
       y="65"
       id="text12323">DML</text>
  </a>
  <path
     class="line"
     d="m17 17 h2 m20 0 h10 m72 0 h10 m-112 0 h20 m92 0 h20 m-132 0 q10 0 10 10 m112 0 q0 -10 10 -10 m-122 10 v24 m112 0 v-24 m-112 24 q0 10 10 10 m92 0 q10 0 10 -10 m-102 10 h10 m46 0 h10 m0 0 h26 m23 -44 h-3"
     id="path12327" />
  <polygon
     points="161 17 169 13 169 21"
     id="polygon12329" />
  <polygon
     points="161 17 153 13 153 21"
     id="polygon12331" />
</svg>
