<?xml version="1.0" encoding="UTF-8" standalone="no"?>
<svg
   width="171"
   height="169"
   version="1.1"
   id="svg48"
   sodipodi:docname="STATEMENT.svg"
   inkscape:version="1.2.2 (b0a8486541, 2022-12-01)"
   xmlns:inkscape="http://www.inkscape.org/namespaces/inkscape"
   xmlns:sodipodi="http://sodipodi.sourceforge.net/DTD/sodipodi-0.dtd"
   xmlns:xlink="http://www.w3.org/1999/xlink"
   xmlns="http://www.w3.org/2000/svg"
   xmlns:svg="http://www.w3.org/2000/svg">
  <sodipodi:namedview
     id="namedview50"
     pagecolor="#ffffff"
     bordercolor="#666666"
     borderopacity="1.0"
     inkscape:showpageshadow="2"
     inkscape:pageopacity="0.0"
     inkscape:pagecheckerboard="0"
     inkscape:deskcolor="#d1d1d1"
     showgrid="false"
     inkscape:zoom="1.7552148"
     inkscape:cx="-46.717929"
     inkscape:cy="128.18944"
     inkscape:window-width="1439"
     inkscape:window-height="749"
     inkscape:window-x="50"
     inkscape:window-y="118"
     inkscape:window-maximized="0"
     inkscape:current-layer="svg48" />
  <defs
     id="defs4">
    <style
       type="text/css"
       id="style2">@namespace &quot;http://www.w3.org/2000/svg&quot;;.line { fill: none; stroke: #330000; stroke-width: 1; }
.bold-line { stroke: #140000; shape-rendering: crispEdges; stroke-width: 2; }
.thin-line { stroke: #1F0000; shape-rendering: crispEdges }
.filled { fill: #330000; stroke: none; }
text.terminal { font-family: HelveticaNeueCyr, Sans-serif;                            font-size: 14px;                            fill: #140000;                            font-weight: bold; }
text.nonterminal { font-family: HelveticaNeueCyr, Sans-serif;                            font-size: 14px;                            fill: #1A0000;                            font-weight: normal; }
text.regexp { font-family: HelveticaNeueCyr, Sans-serif;                            font-size: 14px;                            fill: #1F0000;                            font-weight: normal; }
rect, circle, polygon { fill: #330000; stroke: #330000; }
rect.terminal { fill: #FF4D4D; stroke: #330000; stroke-width: 1; }
rect.nonterminal { fill: #FF9E9E; stroke: #330000; stroke-width: 1; }
rect.text { fill: none; stroke: none; }
polygon.regexp { fill: #FFC7C7; stroke: #330000; stroke-width: 1; }
</style>
  </defs>
  <path
     id="polygon6"
     style="fill:#330000;stroke:#330000"
     d="M 9,17 1,13 v 8 z" />
  <path
     id="polygon8"
     style="fill:#330000;stroke:#330000"
     d="M 17,17 9,13 v 8 z" />
  <a
     xlink:href="#explain"
     xlink:title="EXPLAIN"
     id="a16">
    <path
       id="rect10"
       style="fill:#330000;stroke:#330000"
       d="m 51,3 h 72 V 35 H 51 Z" />
    <path
       id="rect12"
       class="nonterminal"
       style="fill:#ff9e9e;stroke:#330000"
       d="m 49,1 h 72 V 33 H 49 Z" />
    <g
       aria-label="EXPLAIN"
       id="text14"
       class="nonterminal"
       style="font-size:14px;font-family:HelveticaNeueCyr, Sans-serif;fill:#1a0000">
      <path
         d="m 67.008,11.032 v 1.148 h -5.586 v 3.122 h 5.222 v 1.106 h -5.222 v 3.444 h 5.656 V 21 h -6.972 v -9.968 z"
         id="path310" />
      <path
         d="m 75.884001,11.032 -3.318,4.83 3.5,5.138 h -1.596 l -2.688,-4.102 -2.786,4.102 h -1.512 l 3.514,-5.138 -3.29,-4.83 h 1.582 l 2.506,3.836 2.59,-3.836 z"
         id="path312" />
      <path
         d="m 77.270002,11.032 h 4.102 q 1.526,0 2.422,0.7 0.896,0.686 0.896,2.17 0,3.01 -3.402,3.01 h -2.702 V 21 h -1.316 z m 1.316,1.134 v 3.64 h 2.534 q 1.064,0 1.652,-0.392 0.602,-0.406 0.602,-1.428 0,-0.574 -0.196,-0.952 -0.182,-0.378 -0.546,-0.56 -0.364,-0.182 -0.756,-0.238 -0.392,-0.07 -0.938,-0.07 z"
         id="path314" />
      <path
         d="M 92.908012,19.852 V 21 h -6.608 v -9.968 h 1.316 v 8.82 z"
         id="path316" />
      <path
         d="M 98.256008,11.032 102.14801,21 h -1.47 l -1.106002,-3.052 h -4.186 l -1.134,3.052 h -1.4 l 3.92,-9.968 z m 0.924,5.866 -1.694,-4.606 -1.722,4.606 z"
         id="path318" />
      <path
         d="M 104.51402,11.032 V 21 h -1.316 v -9.968 z"
         id="path320" />
      <path
         d="m 106.71203,11.032 h 1.442 l 5.264,8.092 v -8.092 h 1.274 V 21 h -1.484 l -5.236,-7.994 V 21 h -1.26 z"
         id="path322" />
    </g>
  </a>
  <a
     xlink:href="#ddl"
     xlink:title="DDL"
     id="a24">
    <path
       id="rect18"
       style="fill:#330000;stroke:#330000"
       d="M 51,47 H 95 V 79 H 51 Z" />
    <path
       id="rect20"
       class="nonterminal"
       style="fill:#ff9e9e;stroke:#330000"
       d="M 49,45 H 93 V 77 H 49 Z" />
    <g
       aria-label="DDL"
       id="text22"
       class="nonterminal"
       style="font-size:14px;font-family:HelveticaNeueCyr, Sans-serif;fill:#1a0000">
      <path
         d="m 60.106,55.032 h 3.248 q 2.534,0 3.738,1.176 1.204,1.176 1.204,3.724 0,2.506 -1.12,3.794 Q 66.056,65 63.592,65 h -3.486 z m 1.316,1.134 v 7.7 h 2.002 q 1.876,0 2.716,-0.91 0.854,-0.924 0.854,-2.87 0,-2.044 -0.826,-2.982 -0.826,-0.938 -2.8,-0.938 z"
         id="path301" />
      <path
         d="m 69.962007,55.032 h 3.248 q 2.534,0 3.738,1.176 1.204,1.176 1.204,3.724 0,2.506 -1.12,3.794 -1.12,1.274 -3.584,1.274 h -3.486 z m 1.316,1.134 v 7.7 h 2.002 q 1.876,0 2.716,-0.91 0.854,-0.924 0.854,-2.87 0,-2.044 -0.826,-2.982 -0.826,-0.938 -2.8,-0.938 z"
         id="path303" />
      <path
         d="M 86.440013,63.852 V 65 h -6.608 v -9.968 h 1.316 v 8.82 z"
         id="path305" />
    </g>
  </a>
  <a
     xlink:href="#dml"
     xlink:title="DML"
     id="a32">
    <path
       id="rect26"
       style="fill:#330000;stroke:#330000"
       d="m 51,91 h 46 v 32 H 51 Z" />
    <path
       id="rect28"
       class="nonterminal"
       style="fill:#ff9e9e;stroke:#330000"
       d="m 49,89 h 46 v 32 H 49 Z" />
    <g
       aria-label="DML"
       id="text30"
       class="nonterminal"
       style="font-size:14px;font-family:HelveticaNeueCyr, Sans-serif;fill:#1a0000">
      <path
         d="m 60.106,99.032 h 3.248 q 2.534,0 3.738,1.176 1.204,1.176 1.204,3.724 0,2.506 -1.12,3.794 Q 66.056,109 63.592,109 h -3.486 z m 1.316,1.134 v 7.7 h 2.002 q 1.876,0 2.716,-0.91 0.854,-0.924 0.854,-2.87 0,-2.044 -0.826,-2.982 -0.826,-0.938 -2.8,-0.938 z"
         id="path292" />
      <path
         d="m 69.976007,99.032 h 1.82 l 3.206,8.442 3.094,-8.442 h 1.834 V 109 h -1.246 v -8.316 l -3.122,8.316 h -1.148 l -3.178,-8.316 V 109 h -1.26 z"
         id="path294" />
      <path
         d="M 88.778011,107.852 V 109 h -6.608 v -9.968 h 1.316 v 8.82 z"
         id="path296" />
    </g>
  </a>
  <a
     xlink:href="#dql"
     xlink:title="DQL"
     id="a40">
    <path
       id="rect34"
       style="fill:#330000;stroke:#330000"
       d="m 51,135 h 46 v 32 H 51 Z" />
    <path
       id="rect36"
       class="nonterminal"
       style="fill:#ff9e9e;stroke:#330000"
       d="m 49,133 h 46 v 32 H 49 Z" />
    <g
       aria-label="DQL"
       id="text38"
       class="nonterminal"
       style="font-size:14px;font-family:HelveticaNeueCyr, Sans-serif;fill:#1a0000">
      <path
         d="m 60.106,143.032 h 3.248 q 2.534,0 3.738,1.176 1.204,1.176 1.204,3.724 0,2.506 -1.12,3.794 Q 66.056,153 63.592,153 h -3.486 z m 1.316,1.134 v 7.7 h 2.002 q 1.876,0 2.716,-0.91 0.854,-0.924 0.854,-2.87 0,-2.044 -0.826,-2.982 -0.826,-0.938 -2.8,-0.938 z"
         id="path283" />
      <path
         d="m 78.782007,153.028 -0.686,0.826 -1.512,-1.218 q -1.036,0.602 -2.436,0.602 -2.24,0 -3.5,-1.512 -1.246,-1.512 -1.246,-3.822 0,-2.31 1.302,-3.696 1.302,-1.4 3.472,-1.4 2.212,0 3.486,1.386 1.288,1.372 1.288,3.78 0,2.59 -1.484,4.004 z m -3.612,-2.884 1.316,1.078 q 1.148,-1.148 1.148,-3.22 0,-1.834 -0.938,-2.94 -0.938,-1.12 -2.492,-1.12 -1.666,0 -2.576,1.162 -0.91,1.148 -0.91,2.856 0,1.778 0.882,2.968 0.896,1.19 2.632,1.19 0.798,0 1.358,-0.28 l -1.12,-0.882 z"
         id="path285" />
      <path
         d="M 87.22401,151.852 V 153 h -6.608 v -9.968 h 1.316 v 8.82 z"
         id="path287" />
    </g>
  </a>
  <path
     class="line"
     d="m17 17 h2 m20 0 h10 m72 0 h10 m-112 0 h20 m92 0 h20 m-132 0 q10 0 10 10 m112 0 q0 -10 10 -10 m-122 10 v24 m112 0 v-24 m-112 24 q0 10 10 10 m92 0 q10 0 10 -10 m-102 10 h10 m44 0 h10 m0 0 h28 m-102 -10 v20 m112 0 v-20 m-112 20 v24 m112 0 v-24 m-112 24 q0 10 10 10 m92 0 q10 0 10 -10 m-102 10 h10 m46 0 h10 m0 0 h26 m-102 -10 v20 m112 0 v-20 m-112 20 v24 m112 0 v-24 m-112 24 q0 10 10 10 m92 0 q10 0 10 -10 m-102 10 h10 m46 0 h10 m0 0 h26 m23 -132 h-3"
     id="path42" />
  <path
     id="polygon44"
     style="fill:#330000;stroke:#330000"
     d="m 161,17 8,-4 v 8 z" />
  <path
     id="polygon46"
     style="fill:#330000;stroke:#330000"
     d="m 161,17 -8,-4 v 8 z" />
</svg>
