<?xml version="1.0" encoding="UTF-8" standalone="no"?>
<svg
   contentStyleType="text/css"
   data-diagram-type="DESCRIPTION"
   height="822"
   preserveAspectRatio="none"
   style="width:1011px;height:822px;background:#FFFFFF;"
   version="1.1"
   viewBox="0 0 1011 822"
   width="1011"
   zoomAndPan="magnify"
   id="svg47"
   sodipodi:docname="component.svg"
   inkscape:version="1.4.2 (ebf0e940d0, 2025-05-08)"
   xmlns:inkscape="http://www.inkscape.org/namespaces/inkscape"
   xmlns:sodipodi="http://sodipodi.sourceforge.net/DTD/sodipodi-0.dtd"
   xmlns="http://www.w3.org/2000/svg"
   xmlns:svg="http://www.w3.org/2000/svg">
  <sodipodi:namedview
     id="namedview47"
     pagecolor="#ffffff"
     bordercolor="#666666"
     borderopacity="1.0"
     inkscape:showpageshadow="2"
     inkscape:pageopacity="0.0"
     inkscape:pagecheckerboard="0"
     inkscape:deskcolor="#d1d1d1"
     inkscape:zoom="1.0924835"
     inkscape:cx="437.07755"
     inkscape:cy="382.61448"
     inkscape:window-width="1858"
     inkscape:window-height="1009"
     inkscape:window-x="0"
     inkscape:window-y="0"
     inkscape:window-maximized="1"
     inkscape:current-layer="svg47" />
  <defs
     id="defs1" />
  <g
     id="g47">
    <!--cluster kafka-->
    <g
       class="cluster"
       data-entity="kafka"
       data-source-line="2"
       data-uid="ent0002"
       id="cluster_kafka">
      <path
         d="M402.5,6.602 L495.6057,6.602 A3.75,3.75 0 0 1 498.1057,9.102 L505.1057,31.6699 L600.5,31.6699 A2.5,2.5 0 0 1 603,34.1699 L603,87.172 A2.5,2.5 0 0 1 600.5,89.672 L402.5,89.672 A2.5,2.5 0 0 1 400,87.172 L400,9.102 A2.5,2.5 0 0 1 402.5,6.602"
         fill="none"
         style="stroke:#000000;stroke-width:1.5;"
         id="path1" />
      <line
         style="stroke:#000000;stroke-width:1.5;"
         x1="400"
         x2="505.1057"
         y1="31.6699"
         y2="31.6699"
         id="line1" />
      <text
         fill="#000000"
         font-family="sans-serif"
         font-size="14"
         font-weight="bold"
         lengthAdjust="spacing"
         textLength="92.1057"
         x="404"
         y="23.5679"
         id="text1">Kafka Cluster</text>
    </g>
    <!--cluster picodata-->
    <g
       class="cluster"
       data-entity="picodata"
       data-source-line="7"
       data-uid="ent0005"
       id="cluster_picodata">
      <path
         d="M8.5,140.672 L122.8961,140.672 A3.75,3.75 0 0 1 125.3961,143.172 L132.3961,165.7399 L1001.5,165.7399 A2.5,2.5 0 0 1 1004,168.2399 L1004,813.372 A2.5,2.5 0 0 1 1001.5,815.872 L8.5,815.872 A2.5,2.5 0 0 1 6,813.372 L6,143.172 A2.5,2.5 0 0 1 8.5,140.672"
         fill="none"
         style="stroke:#000000;stroke-width:1.5;"
         id="path2" />
      <line
         style="stroke:#000000;stroke-width:1.5;"
         x1="6"
         x2="132.3961"
         y1="165.7399"
         y2="165.7399"
         id="line2" />
      <text
         fill="#000000"
         font-family="sans-serif"
         font-size="14"
         font-weight="bold"
         lengthAdjust="spacing"
         textLength="113.3961"
         x="10"
         y="157.6379"
         id="text2">Picodata Cluster</text>
    </g>
    <!--cluster tier_storage-->
    <g
       class="cluster"
       data-entity="tier_storage"
       data-source-line="8"
       data-uid="ent0006"
       id="cluster_tier_storage">
      <rect
         fill="none"
         height="306.14"
         rx="2.5"
         ry="2.5"
         style="stroke:#181818;stroke-width:1;"
         width="476"
         x="255"
         y="485.732"
         id="rect2" />
      <path
         d="M349.8782,485.732 L349.8782,497.7999 L339.8782,507.7999 L255,507.7999"
         fill="none"
         style="stroke:#181818;stroke-width:1;"
         id="path3" />
      <text
         fill="#000000"
         font-family="sans-serif"
         font-size="14"
         font-weight="bold"
         lengthAdjust="spacing"
         textLength="84.8782"
         x="258"
         y="501.6979"
         id="text3">Tier Storage</text>
    </g>
    <!--cluster Instance 3-->
    <g
       class="cluster"
       data-entity="Instance 3"
       data-source-line="9"
       data-uid="ent0007"
       id="cluster_Instance 3">
      <path
         d="M279,541.732 C279,531.732 380,531.732 380,531.732 C380,531.732 481,531.732 481,541.732 L481,757.872 C481,767.872 380,767.872 380,767.872 C380,767.872 279,767.872 279,757.872 L279,541.732"
         fill="none"
         style="stroke:#181818;stroke-width:1;"
         id="path4" />
      <path
         d="M279,541.732 C279,551.732 380,551.732 380,551.732 C380,551.732 481,551.732 481,541.732"
         fill="none"
         style="stroke:#181818;stroke-width:1;"
         id="path5" />
      <text
         fill="#000000"
         font-family="sans-serif"
         font-size="14"
         font-weight="bold"
         lengthAdjust="spacing"
         textLength="71.8652"
         x="344.0674"
         y="568.6979"
         id="text5">Instance 3</text>
    </g>
    <!--cluster Instance 4-->
    <g
       class="cluster"
       data-entity="Instance 4"
       data-source-line="14"
       data-uid="ent0011"
       id="cluster_Instance 4">
      <path
         d="M505,541.732 C505,531.732 606,531.732 606,531.732 C606,531.732 707,531.732 707,541.732 L707,757.872 C707,767.872 606,767.872 606,767.872 C606,767.872 505,767.872 505,757.872 L505,541.732"
         fill="none"
         style="stroke:#181818;stroke-width:1;"
         id="path6" />
      <path
         d="M505,541.732 C505,551.732 606,551.732 606,551.732 C606,551.732 707,551.732 707,541.732"
         fill="none"
         style="stroke:#181818;stroke-width:1;"
         id="path7" />
      <text
         fill="#000000"
         font-family="sans-serif"
         font-size="14"
         font-weight="bold"
         lengthAdjust="spacing"
         textLength="71.8652"
         x="570.0674"
         y="568.6979"
         id="text7">Instance 4</text>
    </g>
    <!--cluster tier_franz-->
    <g
       class="cluster"
       data-entity="tier_franz"
       data-source-line="20"
       data-uid="ent0015"
       id="cluster_tier_franz">
      <rect
         fill="none"
         height="248.06"
         rx="2.5"
         ry="2.5"
         style="stroke:#181818;stroke-width:1;"
         width="950"
         x="30"
         y="186.672"
         id="rect7" />
      <path
         d="M108.7852,186.672 L108.7852,198.7399 L98.7852,208.7399 L30,208.7399"
         fill="none"
         style="stroke:#181818;stroke-width:1;"
         id="path8" />
      <text
         fill="#000000"
         font-family="sans-serif"
         font-size="14"
         font-weight="bold"
         lengthAdjust="spacing"
         textLength="68.7852"
         x="33"
         y="202.6379"
         id="text8">Tier Franz</text>
    </g>
    <!--cluster Instance 1-->
    <g
       class="cluster"
       data-entity="Instance 1"
       data-source-line="21"
       data-uid="ent0016"
       id="cluster_Instance 1">
      <path
         d="M54,242.672 C54,232.672 273.5,232.672 273.5,232.672 C273.5,232.672 493,232.672 493,242.672 L493,400.732 C493,410.732 273.5,410.732 273.5,410.732 C273.5,410.732 54,410.732 54,400.732 L54,242.672"
         fill="none"
         style="stroke:#181818;stroke-width:1;"
         id="path9" />
      <path
         d="M54,242.672 C54,252.672 273.5,252.672 273.5,252.672 C273.5,252.672 493,252.672 493,242.672"
         fill="none"
         style="stroke:#181818;stroke-width:1;"
         id="path10" />
      <text
         fill="#000000"
         font-family="sans-serif"
         font-size="14"
         font-weight="bold"
         lengthAdjust="spacing"
         textLength="71.8652"
         x="237.5674"
         y="269.6379"
         id="text10">Instance 1</text>
    </g>
    <!--cluster kc1-->
    <g
       class="cluster"
       data-entity="kc1"
       data-source-line="22"
       data-uid="ent0017"
       id="cluster_kc1">
      <rect
         fill="none"
         height="93.06"
         rx="2.5"
         ry="2.5"
         style="stroke:#181818;stroke-width:1;"
         width="391"
         x="78"
         y="293.672"
         id="rect10" />
      <rect
         fill="none"
         height="10"
         style="stroke:#181818;stroke-width:1;"
         width="15"
         x="449"
         y="298.672"
         id="rect11" />
      <rect
         fill="none"
         height="2"
         style="stroke:#181818;stroke-width:1;"
         width="4"
         x="447"
         y="300.672"
         id="rect12" />
      <rect
         fill="none"
         height="2"
         style="stroke:#181818;stroke-width:1;"
         width="4"
         x="447"
         y="304.672"
         id="rect13" />
      <text
         fill="#000000"
         font-family="sans-serif"
         font-size="14"
         font-weight="bold"
         lengthAdjust="spacing"
         textLength="110.4491"
         x="218.2755"
         y="321.6379"
         id="text13">KafkaConsumer</text>
    </g>
    <!--cluster Instance 2-->
    <g
       class="cluster"
       data-entity="Instance 2"
       data-source-line="27"
       data-uid="ent0020"
       id="cluster_Instance 2">
      <path
         d="M517,242.672 C517,232.672 736.5,232.672 736.5,232.672 C736.5,232.672 956,232.672 956,242.672 L956,400.732 C956,410.732 736.5,410.732 736.5,410.732 C736.5,410.732 517,410.732 517,400.732 L517,242.672"
         fill="none"
         style="stroke:#181818;stroke-width:1;"
         id="path13" />
      <path
         d="M517,242.672 C517,252.672 736.5,252.672 736.5,252.672 C736.5,252.672 956,252.672 956,242.672"
         fill="none"
         style="stroke:#181818;stroke-width:1;"
         id="path14" />
      <text
         fill="#000000"
         font-family="sans-serif"
         font-size="14"
         font-weight="bold"
         lengthAdjust="spacing"
         textLength="71.8652"
         x="700.5674"
         y="269.6379"
         id="text14">Instance 2</text>
    </g>
    <!--cluster kc2-->
    <g
       class="cluster"
       data-entity="kc2"
       data-source-line="28"
       data-uid="ent0021"
       id="cluster_kc2">
      <rect
         fill="none"
         height="93.06"
         rx="2.5"
         ry="2.5"
         style="stroke:#181818;stroke-width:1;"
         width="391"
         x="541"
         y="293.672"
         id="rect14" />
      <rect
         fill="none"
         height="10"
         style="stroke:#181818;stroke-width:1;"
         width="15"
         x="912"
         y="298.672"
         id="rect15" />
      <rect
         fill="none"
         height="2"
         style="stroke:#181818;stroke-width:1;"
         width="4"
         x="910"
         y="300.672"
         id="rect16" />
      <rect
         fill="none"
         height="2"
         style="stroke:#181818;stroke-width:1;"
         width="4"
         x="910"
         y="304.672"
         id="rect17" />
      <text
         fill="#000000"
         font-family="sans-serif"
         font-size="14"
         font-weight="bold"
         lengthAdjust="spacing"
         textLength="110.4491"
         x="681.2755"
         y="321.6379"
         id="text17">KafkaConsumer</text>
    </g>
    <!--entity topic_a-->
    <g
       class="entity"
       data-entity="topic_a"
       data-source-line="3"
       data-uid="ent0003"
       id="entity_topic_a">
      <path
         d="M421.11,44.602 L478.8918,44.602 C483.8918,44.602 483.8918,59.1359 483.8918,59.1359 C483.8918,59.1359 483.8918,73.6699 478.8918,73.6699 L421.11,73.6699 C416.11,73.6699 416.11,59.1359 416.11,59.1359 C416.11,59.1359 416.11,44.602 421.11,44.602"
         fill="#F1F1F1"
         style="stroke:#181818;stroke-width:0.5;"
         id="path17" />
      <path
         d="M478.8918,44.602 C473.8918,44.602 473.8918,59.1359 473.8918,59.1359 C473.8918,73.6699 478.8918,73.6699 478.8918,73.6699"
         fill="none"
         style="stroke:#181818;stroke-width:0.5;"
         id="path18" />
      <text
         fill="#000000"
         font-family="sans-serif"
         font-size="14"
         lengthAdjust="spacing"
         textLength="47.7818"
         x="421.11"
         y="64.5679"
         id="text18">Topic A</text>
    </g>
    <!--entity topic_b-->
    <g
       class="entity"
       data-entity="topic_b"
       data-source-line="4"
       data-uid="ent0004"
       id="entity_topic_b">
      <path
         d="M524.03,44.602 L581.9658,44.602 C586.9658,44.602 586.9658,59.1359 586.9658,59.1359 C586.9658,59.1359 586.9658,73.6699 581.9658,73.6699 L524.03,73.6699 C519.03,73.6699 519.03,59.1359 519.03,59.1359 C519.03,59.1359 519.03,44.602 524.03,44.602"
         fill="#F1F1F1"
         style="stroke:#181818;stroke-width:0.5;"
         id="path19" />
      <path
         d="M581.9658,44.602 C576.9658,44.602 576.9658,59.1359 576.9658,59.1359 C576.9658,73.6699 581.9658,73.6699 581.9658,73.6699"
         fill="none"
         style="stroke:#181818;stroke-width:0.5;"
         id="path20" />
      <text
         fill="#000000"
         font-family="sans-serif"
         font-size="14"
         lengthAdjust="spacing"
         textLength="47.9358"
         x="524.03"
         y="64.5679"
         id="text20">Topic B</text>
    </g>
    <!--entity table_3_x-->
    <g
       class="entity"
       data-entity="table_3_x"
       data-source-line="10"
       data-uid="ent0008"
       id="entity_table_3_x">
      <rect
         fill="#F1F1F1"
         height="39.0679"
         rx="35"
         ry="35"
         style="stroke:#181818;stroke-width:0.5;"
         width="67.5998"
         x="295.2"
         y="712.802"
         id="rect20" />
      <text
         fill="#000000"
         font-family="sans-serif"
         font-size="14"
         lengthAdjust="spacing"
         textLength="47.5998"
         x="305.2"
         y="737.7679"
         id="text21">Table X</text>
    </g>
    <!--entity table_3_y-->
    <g
       class="entity"
       data-entity="table_3_y"
       data-source-line="11"
       data-uid="ent0009"
       id="entity_table_3_y">
      <rect
         fill="#F1F1F1"
         height="39.0679"
         rx="35"
         ry="35"
         style="stroke:#181818;stroke-width:0.5;"
         width="67.3198"
         x="397.34"
         y="712.802"
         id="rect21" />
      <text
         fill="#000000"
         font-family="sans-serif"
         font-size="14"
         lengthAdjust="spacing"
         textLength="47.3198"
         x="407.34"
         y="737.7679"
         id="text22">Table Y</text>
    </g>
    <!--entity saver_3-->
    <g
       class="entity"
       data-entity="saver_3"
       data-source-line="12"
       data-uid="ent0010"
       id="entity_saver_3">
      <rect
         fill="#F1F1F1"
         height="49.0679"
         rx="2.5"
         ry="2.5"
         style="stroke:#181818;stroke-width:0.5;"
         width="76.3299"
         x="333.84"
         y="584.732"
         id="rect22" />
      <rect
         fill="#F1F1F1"
         height="10"
         style="stroke:#181818;stroke-width:0.5;"
         width="15"
         x="390.1699"
         y="589.732"
         id="rect23" />
      <rect
         fill="#F1F1F1"
         height="2"
         style="stroke:#181818;stroke-width:0.5;"
         width="4"
         x="388.1699"
         y="591.732"
         id="rect24" />
      <rect
         fill="#F1F1F1"
         height="2"
         style="stroke:#181818;stroke-width:0.5;"
         width="4"
         x="388.1699"
         y="595.732"
         id="rect25" />
      <text
         fill="#000000"
         font-family="sans-serif"
         font-size="14"
         lengthAdjust="spacing"
         textLength="36.3299"
         x="348.84"
         y="619.6979"
         id="text25">Saver</text>
    </g>
    <!--entity table_4_x-->
    <g
       class="entity"
       data-entity="table_4_x"
       data-source-line="15"
       data-uid="ent0012"
       id="entity_table_4_x">
      <rect
         fill="#F1F1F1"
         height="39.0679"
         rx="35"
         ry="35"
         style="stroke:#181818;stroke-width:0.5;"
         width="67.5998"
         x="521.2"
         y="712.802"
         id="rect26" />
      <text
         fill="#000000"
         font-family="sans-serif"
         font-size="14"
         lengthAdjust="spacing"
         textLength="47.5998"
         x="531.2"
         y="737.7679"
         id="text26">Table X</text>
    </g>
    <!--entity table_4_y-->
    <g
       class="entity"
       data-entity="table_4_y"
       data-source-line="16"
       data-uid="ent0013"
       id="entity_table_4_y">
      <rect
         fill="#F1F1F1"
         height="39.0679"
         rx="35"
         ry="35"
         style="stroke:#181818;stroke-width:0.5;"
         width="67.3198"
         x="623.34"
         y="712.802"
         id="rect27" />
      <text
         fill="#000000"
         font-family="sans-serif"
         font-size="14"
         lengthAdjust="spacing"
         textLength="47.3198"
         x="633.34"
         y="737.7679"
         id="text27">Table Y</text>
    </g>
    <!--entity saver_4-->
    <g
       class="entity"
       data-entity="saver_4"
       data-source-line="17"
       data-uid="ent0014"
       id="entity_saver_4">
      <rect
         fill="#F1F1F1"
         height="49.0679"
         rx="2.5"
         ry="2.5"
         style="stroke:#181818;stroke-width:0.5;"
         width="76.3299"
         x="608.84"
         y="584.732"
         id="rect28" />
      <rect
         fill="#F1F1F1"
         height="10"
         style="stroke:#181818;stroke-width:0.5;"
         width="15"
         x="665.1699"
         y="589.732"
         id="rect29" />
      <rect
         fill="#F1F1F1"
         height="2"
         style="stroke:#181818;stroke-width:0.5;"
         width="4"
         x="663.1699"
         y="591.732"
         id="rect30" />
      <rect
         fill="#F1F1F1"
         height="2"
         style="stroke:#181818;stroke-width:0.5;"
         width="4"
         x="663.1699"
         y="595.732"
         id="rect31" />
      <text
         fill="#000000"
         font-family="sans-serif"
         font-size="14"
         lengthAdjust="spacing"
         textLength="36.3299"
         x="623.84"
         y="619.6979"
         id="text31">Saver</text>
    </g>
    <!--entity process_1_a-->
    <g
       class="entity"
       data-entity="process_1_a"
       data-source-line="23"
       data-uid="ent0018"
       id="entity_process_1_a">
      <polygon
         fill="#F1F1F1"
         points="93.93,331.672,246.0796,331.672,256.0796,351.2059,246.0796,370.7399,93.93,370.7399,103.93,351.2059"
         style="stroke:#181818;stroke-width:0.5;"
         id="polygon31" />
      <text
         fill="#000000"
         font-family="sans-serif"
         font-size="14"
         lengthAdjust="spacing"
         textLength="122.1496"
         x="113.93"
         y="356.6379"
         id="text32">Process for topic A</text>
    </g>
    <!--entity process_1_b-->
    <g
       class="entity"
       data-entity="process_1_b"
       data-source-line="24"
       data-uid="ent0019"
       id="entity_process_1_b">
      <polygon
         fill="#F1F1F1"
         points="290.85,331.672,443.1535,331.672,453.1535,351.2059,443.1535,370.7399,290.85,370.7399,300.85,351.2059"
         style="stroke:#181818;stroke-width:0.5;"
         id="polygon32" />
      <text
         fill="#000000"
         font-family="sans-serif"
         font-size="14"
         lengthAdjust="spacing"
         textLength="122.3035"
         x="310.85"
         y="356.6379"
         id="text33">Process for topic B</text>
    </g>
    <!--entity process_2_a-->
    <g
       class="entity"
       data-entity="process_2_a"
       data-source-line="29"
       data-uid="ent0022"
       id="entity_process_2_a">
      <polygon
         fill="#F1F1F1"
         points="556.93,331.672,709.0796,331.672,719.0796,351.2059,709.0796,370.7399,556.93,370.7399,566.93,351.2059"
         style="stroke:#181818;stroke-width:0.5;"
         id="polygon33" />
      <text
         fill="#000000"
         font-family="sans-serif"
         font-size="14"
         lengthAdjust="spacing"
         textLength="122.1496"
         x="576.93"
         y="356.6379"
         id="text34">Process for topic A</text>
    </g>
    <!--entity process_2_b-->
    <g
       class="entity"
       data-entity="process_2_b"
       data-source-line="30"
       data-uid="ent0023"
       id="entity_process_2_b">
      <polygon
         fill="#F1F1F1"
         points="753.85,331.672,906.1535,331.672,916.1535,351.2059,906.1535,370.7399,753.85,370.7399,763.85,351.2059"
         style="stroke:#181818;stroke-width:0.5;"
         id="polygon34" />
      <text
         fill="#000000"
         font-family="sans-serif"
         font-size="14"
         lengthAdjust="spacing"
         textLength="122.3035"
         x="773.85"
         y="356.6379"
         id="text35">Process for topic B</text>
    </g>
    <!--link topic_a to process_1_a-->
    <g
       class="link"
       data-entity-1="topic_a"
       data-entity-2="process_1_a"
       data-source-line="36"
       data-uid="lnk24"
       id="link_topic_a_process_1_a">
      <path
         d="M415.86,66.212 C376.81,74.782 313.12,93.902 273,132.672 C213.72,189.942 188.6205,283.7516 179.8405,325.3016"
         fill="none"
         id="topic_a-to-process_1_a"
         style="stroke:#181818;stroke-width:1;" />
      <polygon
         fill="#181818"
         points="178.6,331.172,184.3743,323.1934,179.6337,326.28,176.5471,321.5394,178.6,331.172"
         style="stroke:#181818;stroke-width:1;"
         id="polygon35" />
      <text
         fill="#000000"
         font-family="sans-serif"
         font-size="13"
         lengthAdjust="spacing"
         textLength="57.8631"
         x="306.85"
         y="120.569"
         id="text36">Consume</text>
    </g>
    <!--link topic_a to process_2_a-->
    <g
       class="link"
       data-entity-1="topic_a"
       data-entity-2="process_2_a"
       data-source-line="37"
       data-uid="lnk25"
       id="link_topic_a_process_2_a">
      <path
         d="M459.07,74.122 C489.87,121.652 587.2765,271.9472 622.4665,326.2372"
         fill="none"
         id="topic_a-to-process_2_a"
         style="stroke:#181818;stroke-width:1;" />
      <polygon
         fill="#181818"
         points="625.73,331.272,624.1913,321.5441,623.0104,327.0763,617.4782,325.8954,625.73,331.272"
         style="stroke:#181818;stroke-width:1;"
         id="polygon36" />
    </g>
    <!--link process_1_a to saver_3-->
    <g
       class="link"
       data-entity-1="process_1_a"
       data-entity-2="saver_3"
       data-source-line="38"
       data-uid="lnk26"
       id="link_process_1_a_saver_3">
      <path
         d="M189.49,371.032 C224.67,416.772 310.9515,528.9164 349.9015,579.5464"
         fill="none"
         id="process_1_a-to-saver_3"
         style="stroke:#181818;stroke-width:1;" />
      <polygon
         fill="#181818"
         points="353.56,584.302,351.2426,574.7296,350.5113,580.339,344.9019,579.6076,353.56,584.302"
         style="stroke:#181818;stroke-width:1;"
         id="polygon37" />
      <text
         fill="#000000"
         font-family="sans-serif"
         font-size="13"
         lengthAdjust="spacing"
         textLength="61.1521"
         x="262.71"
         y="465.629"
         id="text37">Send data</text>
    </g>
    <!--link process_2_a to saver_4-->
    <g
       class="link"
       data-entity-1="process_2_a"
       data-entity-2="saver_4"
       data-source-line="39"
       data-uid="lnk27"
       id="link_process_2_a_saver_4">
      <path
         d="M638.66,371.032 C640.27,416.772 644.1692,527.6757 645.9492,578.3057"
         fill="none"
         id="process_2_a-to-saver_4"
         style="stroke:#181818;stroke-width:1;" />
      <polygon
         fill="#181818"
         points="646.16,584.302,649.8413,575.167,645.9843,579.3051,641.8463,575.4481,646.16,584.302"
         style="stroke:#181818;stroke-width:1;"
         id="polygon38" />
    </g>
    <!--link process_2_a to saver_3-->
    <g
       class="link"
       data-entity-1="process_2_a"
       data-entity-2="saver_3"
       data-source-line="40"
       data-uid="lnk28"
       id="link_process_2_a_saver_3">
      <path
         d="M617.6,371.222 C591.4,395.712 544.58,439.642 505,477.732 C466.54,514.752 426.6727,554.0595 400.1527,580.3295"
         fill="none"
         id="process_2_a-to-saver_3"
         style="stroke:#181818;stroke-width:1;" />
      <polygon
         fill="#181818"
         points="395.89,584.552,405.099,581.06,399.4422,581.0332,399.469,575.3764,395.89,584.552"
         style="stroke:#181818;stroke-width:1;"
         id="polygon39" />
    </g>
    <!--link saver_3 to table_3_x-->
    <g
       class="link"
       data-entity-1="saver_3"
       data-entity-2="table_3_x"
       data-source-line="41"
       data-uid="lnk29"
       id="link_saver_3_table_3_x">
      <path
         d="M360.97,634.282 C356.96,643.422 352.54,654.002 349,663.802 C343.14,680.022 339.2555,693.0753 335.5155,706.7253"
         fill="none"
         id="saver_3-to-table_3_x"
         style="stroke:#181818;stroke-width:1;" />
      <polygon
         fill="#181818"
         points="333.93,712.512,340.1661,704.8889,335.2513,707.6897,332.4505,702.7749,333.93,712.512"
         style="stroke:#181818;stroke-width:1;"
         id="polygon40" />
      <text
         fill="#000000"
         font-family="sans-serif"
         font-size="13"
         lengthAdjust="spacing"
         textLength="32.838"
         x="350"
         y="678.699"
         id="text40">Write</text>
    </g>
    <!--link saver_4 to table_4_x-->
    <g
       class="link"
       data-entity-1="saver_4"
       data-entity-2="table_4_x"
       data-source-line="42"
       data-uid="lnk30"
       id="link_saver_4_table_4_x">
      <path
         d="M628.82,634.192 C611.33,657.202 588.8807,686.7552 572.8507,707.8452"
         fill="none"
         id="saver_4-to-table_4_x"
         style="stroke:#181818;stroke-width:1;" />
      <polygon
         fill="#181818"
         points="569.22,712.622,577.8506,707.8773,572.2456,708.6413,571.4816,703.0363,569.22,712.622"
         style="stroke:#181818;stroke-width:1;"
         id="polygon41" />
      <text
         fill="#000000"
         font-family="sans-serif"
         font-size="13"
         lengthAdjust="spacing"
         textLength="32.838"
         x="604.76"
         y="678.699"
         id="text41">Write</text>
    </g>
    <!--link topic_b to process_1_b-->
    <g
       class="link"
       data-entity-1="topic_b"
       data-entity-2="process_1_b"
       data-source-line="44"
       data-uid="lnk31"
       id="link_topic_b_process_1_b">
      <path
         d="M544.27,74.122 C514.61,121.652 420.8665,271.8918 386.9865,326.1818"
         fill="none"
         id="topic_b-to-process_1_b"
         style="stroke:#181818;stroke-width:1;" />
      <polygon
         fill="#181818"
         points="383.81,331.272,391.9682,325.7545,386.4571,327.0302,385.1814,321.5191,383.81,331.272"
         style="stroke:#181818;stroke-width:1;"
         id="polygon42" />
    </g>
    <!--link topic_b to process_2_b-->
    <g
       class="link"
       data-entity-1="topic_b"
       data-entity-2="process_2_b"
       data-source-line="45"
       data-uid="lnk32"
       id="link_topic_b_process_2_b">
      <path
         d="M587.4,65.622 C627.87,73.732 694.87,92.512 737,132.672 C796.81,189.692 821.7006,284.0672 830.3106,325.5472"
         fill="none"
         id="topic_b-to-process_2_b"
         style="stroke:#181818;stroke-width:1;" />
      <polygon
         fill="#181818"
         points="831.53,331.422,833.6174,321.7969,830.5138,326.5263,825.7843,323.4228,831.53,331.422"
         style="stroke:#181818;stroke-width:1;"
         id="polygon43" />
    </g>
    <!--link process_1_b to saver_3-->
    <g
       class="link"
       data-entity-1="process_1_b"
       data-entity-2="saver_3"
       data-source-line="46"
       data-uid="lnk33"
       id="link_process_1_b_saver_3">
      <path
         d="M372,371.032 C372,416.772 372,527.672 372,578.302"
         fill="none"
         id="process_1_b-to-saver_3"
         style="stroke:#181818;stroke-width:1;" />
      <polygon
         fill="#181818"
         points="372,584.302,376,575.302,372,579.302,368,575.302,372,584.302"
         style="stroke:#181818;stroke-width:1;"
         id="polygon44" />
    </g>
    <!--link process_2_b to saver_4-->
    <g
       class="link"
       data-entity-1="process_2_b"
       data-entity-2="saver_4"
       data-source-line="47"
       data-uid="lnk34"
       id="link_process_2_b_saver_4">
      <path
         d="M821.18,371.032 C787.6,416.772 705.3207,528.8354 668.1507,579.4654"
         fill="none"
         id="process_2_b-to-saver_4"
         style="stroke:#181818;stroke-width:1;" />
      <polygon
         fill="#181818"
         points="664.6,584.302,673.1505,579.4143,667.559,580.2715,666.7018,574.68,664.6,584.302"
         style="stroke:#181818;stroke-width:1;"
         id="polygon45" />
    </g>
    <!--link saver_3 to table_3_y-->
    <g
       class="link"
       data-entity-1="saver_3"
       data-entity-2="table_3_y"
       data-source-line="48"
       data-uid="lnk35"
       id="link_saver_3_table_3_y">
      <path
         d="M383.66,634.192 C394.87,657.202 408.9711,686.1386 419.2511,707.2286"
         fill="none"
         id="saver_3-to-table_3_y"
         style="stroke:#181818;stroke-width:1;" />
      <polygon
         fill="#181818"
         points="421.88,712.622,421.5322,702.7793,419.6892,708.1275,414.341,706.2845,421.88,712.622"
         style="stroke:#181818;stroke-width:1;"
         id="polygon46" />
    </g>
    <!--link saver_4 to table_4_y-->
    <g
       class="link"
       data-entity-1="saver_4"
       data-entity-2="table_4_y"
       data-source-line="49"
       data-uid="lnk36"
       id="link_saver_4_table_4_y">
      <path
         d="M648.98,634.192 C650.88,657.202 653.2167,685.5523 654.9567,706.6423"
         fill="none"
         id="saver_4-to-table_4_y"
         style="stroke:#181818;stroke-width:1;" />
      <polygon
         fill="#181818"
         points="655.45,712.622,658.6964,703.3236,655.0389,707.6389,650.7235,703.9814,655.45,712.622"
         style="stroke:#181818;stroke-width:1;"
         id="polygon47" />
    </g>
    <!--SRC=[dPEnJiCm441tVyKfUuScdXYGQ2Kan8BKIi0KNLm7HMtjO3k8WlBls8xJEb4A4Pjxz-xySZtNoFRunY5vn7AFi3uqsd2L06hO-yWt0NXlU6EHhQmh1dS-QTmvnt5o5IKBqX9Iz_sVAYPtQ8PNr7tGtL8gFBf65LUmCLBPigwR3UIw2tWGmDKKg2tz8BH1mJXaISW1z6oonUB0uQNhuivvbdzEGwy3w1GW9e-r55mOI3Ru4QIrE-MPHzfhEdIM3fsZG-VeqBDEEnhblKBnTHbawNvU7-FouXtTvfTZBOLkZlroiEKP1AYLP5nh-o-7GobLjmLXNGAGB_tA_5cq6XKLeQZzVUZfRFdqF_BfV-JJ2VdMlOpmWc2nk8t70pSGN2S9vn3JBXSMqbPkkDZvmP28ZnXw9PwHleUBdP-AxVYiAiD3baPP6cM3Q37wb68oxkOHCGE9Y1b8JycT9gLEv0S0]-->
  </g>
</svg>
