<?xml version="1.0" encoding="UTF-8" standalone="no"?>
<!-- Created with Inkscape (http://www.inkscape.org/) -->

<svg
   width="521"
   height="394"
   viewBox="0 0 521 394"
   version="1.1"
   id="svg1"
   inkscape:version="1.4 (e7c3feb100, 2024-10-09)"
   sodipodi:docname="cluster_distribution.svg"
   inkscape:export-filename="cluster_map.png"
   inkscape:export-xdpi="200"
   inkscape:export-ydpi="200"
   xmlns:inkscape="http://www.inkscape.org/namespaces/inkscape"
   xmlns:sodipodi="http://sodipodi.sourceforge.net/DTD/sodipodi-0.dtd"
   xmlns:xlink="http://www.w3.org/1999/xlink"
   xmlns="http://www.w3.org/2000/svg"
   xmlns:svg="http://www.w3.org/2000/svg">
  <sodipodi:namedview
     id="namedview1"
     pagecolor="#ffffff"
     bordercolor="#666666"
     borderopacity="1.0"
     inkscape:showpageshadow="2"
     inkscape:pageopacity="0.0"
     inkscape:pagecheckerboard="0"
     inkscape:deskcolor="#d1d1d1"
     inkscape:document-units="mm"
     showguides="true"
     inkscape:zoom="1.4342733"
     inkscape:cx="214.39429"
     inkscape:cy="-49.153812"
     inkscape:window-width="1858"
     inkscape:window-height="1014"
     inkscape:window-x="62"
     inkscape:window-y="29"
     inkscape:window-maximized="1"
     inkscape:current-layer="layer1" />
  <defs
     id="defs1">
    <inkscape:path-effect
       effect="envelope"
       id="path-effect173"
       is_visible="true"
       lpeversion="1"
       yy="true"
       xx="true"
       bendpath1="m 348.26581,-199.48826 h 70.27976"
       bendpath2="m 418.54557,-199.48826 v 19.63816"
       bendpath3="m 348.26581,-179.8501 h 70.27976"
       bendpath4="m 348.26581,-199.48826 v 19.63816" />
    <inkscape:path-effect
       effect="bend_path"
       id="path-effect172"
       is_visible="true"
       lpeversion="1"
       bendpath="m 348.26581,-189.66918 72.37142,0.34861"
       prop_scale="1"
       scale_y_rel="false"
       vertical="false"
       hide_knot="false"
       bendpath-nodetypes="cc" />
    <inkscape:path-effect
       effect="envelope"
       id="path-effect171"
       is_visible="true"
       lpeversion="1"
       yy="true"
       xx="true"
       bendpath1="m 348.26581,-199.48826 h 70.27976"
       bendpath2="m 418.54557,-199.48826 v 19.63816"
       bendpath3="m 348.26581,-179.8501 h 70.27976"
       bendpath4="m 348.26581,-199.48826 v 19.63816" />
    <inkscape:path-effect
       effect="transform_2pts"
       start="363.43714,-193.48844"
       end="418.54557,-198.77462"
       id="path-effect170"
       is_visible="true"
       lpeversion="1"
       first_knot="1"
       last_knot="80"
       helper_size="3"
       stretch="1"
       offset="0"
       elastic="false"
       from_original_width="false"
       flip_vertical="false"
       flip_horizontal="false"
       lock_length="false"
       lock_angle="false" />
    <inkscape:path-effect
       effect="skeletal"
       id="path-effect169"
       is_visible="true"
       lpeversion="1"
       pattern="M 0,0 H 1"
       copytype="single_stretched"
       prop_scale="1"
       scale_y_rel="false"
       spacing="0"
       normal_offset="0"
       tang_offset="0"
       prop_units="false"
       vertical_pattern="false"
       hide_knot="false"
       fuse_tolerance="0" />
    <inkscape:path-effect
       effect="perspective-envelope"
       up_left_point="348.26581,-199.48826"
       up_right_point="418.54557,-199.48826"
       down_left_point="348.26581,-179.8501"
       down_right_point="418.54557,-179.8501"
       id="path-effect168"
       is_visible="true"
       lpeversion="1"
       deform_type="perspective"
       horizontal_mirror="false"
       vertical_mirror="false"
       overflow_perspective="false" />
    <inkscape:path-effect
       effect="envelope"
       id="path-effect167"
       is_visible="true"
       lpeversion="1"
       yy="true"
       xx="true"
       bendpath1="m 348.26581,-199.48826 h 70.27976"
       bendpath2="m 418.54557,-199.48826 v 19.63816"
       bendpath3="m 348.26581,-179.8501 h 70.27976"
       bendpath4="m 348.26581,-199.48826 v 19.63816" />
    <linearGradient
       id="linearGradient111"
       inkscape:collect="always">
      <stop
         style="stop-color:#bffcf9;stop-opacity:1;"
         offset="0"
         id="stop110" />
      <stop
         style="stop-color:#59bab7;stop-opacity:1;"
         offset="1"
         id="stop111" />
    </linearGradient>
    <linearGradient
       id="linearGradient109"
       inkscape:collect="always">
      <stop
         style="stop-color:#bffcf9;stop-opacity:0.86666667;"
         offset="0"
         id="stop108" />
      <stop
         style="stop-color:#59bab7;stop-opacity:1;"
         offset="1"
         id="stop109" />
    </linearGradient>
    <linearGradient
       id="linearGradient139"
       inkscape:collect="always">
      <stop
         style="stop-color:#ffffff;stop-opacity:1;"
         offset="0"
         id="stop139" />
      <stop
         style="stop-color:#c3c3c3;stop-opacity:1;"
         offset="0.99773723"
         id="stop140" />
    </linearGradient>
    <linearGradient
       id="linearGradient133"
       inkscape:collect="always">
      <stop
         style="stop-color:#cccccc;stop-opacity:0.50736368;"
         offset="0"
         id="stop133" />
      <stop
         style="stop-color:#e7e7e7;stop-opacity:0;"
         offset="0.49700609"
         id="stop135" />
      <stop
         style="stop-color:#d1d1d1;stop-opacity:0.52094537;"
         offset="1"
         id="stop134" />
    </linearGradient>
    <inkscape:perspective
       sodipodi:type="inkscape:persp3d"
       inkscape:vp_x="-94.72772 : 727.6714 : 1"
       inkscape:vp_y="0 : 6124.1839 : 0"
       inkscape:vp_z="960.61455 : 794.5289 : 1"
       inkscape:persp3d-origin="245.27192 : 59.820778 : 1"
       id="perspective1" />
    <marker
       style="overflow:visible"
       id="ConcaveTriangle-7"
       refX="0"
       refY="0"
       orient="auto-start-reverse"
       inkscape:stockid="Concave triangle arrow"
       markerWidth="2"
       markerHeight="2"
       viewBox="0 0 1 1"
       inkscape:isstock="true"
       inkscape:collect="always"
       preserveAspectRatio="xMidYMid">
      <path
         transform="scale(0.7)"
         d="M -2,-4 9,0 -2,4 c 2,-2.33 2,-5.66 0,-8 z"
         style="fill:context-stroke;fill-rule:evenodd;stroke:none"
         id="path7-5" />
    </marker>
    <linearGradient
       inkscape:collect="always"
       xlink:href="#linearGradient133"
       id="linearGradient134"
       x1="1232.27"
       y1="-189.80646"
       x2="1291.3629"
       y2="-189.80646"
       gradientUnits="userSpaceOnUse"
       gradientTransform="matrix(0.99856371,0,0,0.99749914,-976.60015,131.38964)" />
    <radialGradient
       inkscape:collect="always"
       xlink:href="#linearGradient139"
       id="radialGradient140"
       cx="1112.4368"
       cy="-85.774612"
       fx="1112.4368"
       fy="-85.774612"
       r="30.264471"
       gradientTransform="matrix(2.2436668e-6,-0.9734035,2.1474922,0,468.52958,1060.5418)"
       gradientUnits="userSpaceOnUse" />
    <radialGradient
       inkscape:collect="always"
       xlink:href="#linearGradient139"
       id="radialGradient141"
       gradientUnits="userSpaceOnUse"
       gradientTransform="matrix(2.2436668e-6,-0.9734035,2.1474922,0,604.91119,778.0397)"
       cx="1112.4368"
       cy="-85.774612"
       fx="1112.4368"
       fy="-85.774612"
       r="30.264471" />
    <radialGradient
       inkscape:collect="always"
       xlink:href="#linearGradient139"
       id="radialGradient142"
       gradientUnits="userSpaceOnUse"
       gradientTransform="matrix(2.2436668e-6,-0.9734035,2.1474922,0,802.32957,578.7173)"
       cx="1112.4368"
       cy="-85.774612"
       fx="1112.4368"
       fy="-85.774612"
       r="30.264471" />
    <linearGradient
       inkscape:collect="always"
       xlink:href="#linearGradient133"
       id="linearGradient142"
       gradientUnits="userSpaceOnUse"
       gradientTransform="matrix(1.0000298,0,0,0.98643261,-842.0243,-151.60246)"
       x1="1232.27"
       y1="-189.80646"
       x2="1291.3629"
       y2="-189.80646" />
    <linearGradient
       inkscape:collect="always"
       xlink:href="#linearGradient133"
       id="linearGradient143"
       gradientUnits="userSpaceOnUse"
       gradientTransform="matrix(1.0000349,0,0,0.98414972,-644.61211,-351.26859)"
       x1="1232.27"
       y1="-189.80646"
       x2="1291.3629"
       y2="-189.80646" />
    <radialGradient
       inkscape:collect="always"
       xlink:href="#linearGradient3509"
       id="radialGradient164"
       gradientUnits="userSpaceOnUse"
       gradientTransform="matrix(2.2436668e-6,-0.9734035,2.1474922,0,1205.5401,1012.9698)"
       cx="1112.4368"
       cy="-85.774612"
       fx="1112.4368"
       fy="-85.774612"
       r="30.264471" />
    <linearGradient
       inkscape:collect="always"
       xlink:href="#linearGradient3506"
       id="linearGradient164"
       gradientUnits="userSpaceOnUse"
       gradientTransform="matrix(0.99856371,0,0,0.99749914,-239.39267,84.863399)"
       x1="1232.27"
       y1="-189.80646"
       x2="1291.3629"
       y2="-189.80646" />
    <radialGradient
       inkscape:collect="always"
       xlink:href="#linearGradient6658"
       id="radialGradient165"
       gradientUnits="userSpaceOnUse"
       gradientTransform="matrix(-1.597939,0.01613456,-0.01482628,-1.4606632,1389.9869,138.89461)"
       cx="177.8112"
       cy="33.34993"
       fx="177.8112"
       fy="33.34993"
       r="30.294567" />
    <radialGradient
       inkscape:collect="always"
       xlink:href="#linearGradient9719"
       id="radialGradient166"
       gradientUnits="userSpaceOnUse"
       gradientTransform="matrix(1.4524334,-0.26444874,0.15380684,0.8446414,837.6847,79.614215)"
       cx="179.40439"
       cy="34.164013"
       fx="179.40439"
       fy="34.164013"
       r="30.294567" />
    <linearGradient
       inkscape:collect="always"
       id="linearGradient3509">
      <stop
         style="stop-color:#ffffff;stop-opacity:1"
         offset="0"
         id="stop139-1" />
      <stop
         style="stop-color:#c3c3c3;stop-opacity:1"
         offset="0.99773723"
         id="stop140-1" />
    </linearGradient>
    <linearGradient
       inkscape:collect="always"
       id="linearGradient3506">
      <stop
         style="stop-color:#cccccc;stop-opacity:0.50736368"
         offset="0"
         id="stop133-1" />
      <stop
         style="stop-color:#e7e7e7;stop-opacity:0"
         offset="0.49700609"
         id="stop135-1" />
      <stop
         style="stop-color:#d1d1d1;stop-opacity:0.52094537"
         offset="1"
         id="stop134-1" />
    </linearGradient>
    <linearGradient
       inkscape:collect="always"
       id="linearGradient6658">
      <stop
         style="stop-color:#dddddd;stop-opacity:0.86519003"
         offset="0"
         id="stop44-1" />
      <stop
         style="stop-color:#989898;stop-opacity:1"
         offset="1"
         id="stop45-1" />
    </linearGradient>
    <linearGradient
       inkscape:collect="always"
       id="linearGradient9719">
      <stop
         style="stop-color:#dddddd;stop-opacity:1"
         offset="0"
         id="stop46-1" />
      <stop
         style="stop-color:#989898;stop-opacity:1"
         offset="1"
         id="stop47-1" />
    </linearGradient>
    <linearGradient
       inkscape:collect="always"
       id="linearGradient5023">
      <stop
         style="stop-color:#dddddd;stop-opacity:0.86519003"
         offset="0"
         id="stop44-1-1" />
      <stop
         style="stop-color:#989898;stop-opacity:1"
         offset="1"
         id="stop45-1-1" />
    </linearGradient>
    <linearGradient
       inkscape:collect="always"
       id="linearGradient6015">
      <stop
         style="stop-color:#ffffff;stop-opacity:1"
         offset="0"
         id="stop139-1-1" />
      <stop
         style="stop-color:#c3c3c3;stop-opacity:1"
         offset="0.99773723"
         id="stop140-1-1" />
    </linearGradient>
    <linearGradient
       inkscape:collect="always"
       id="linearGradient4732">
      <stop
         style="stop-color:#cccccc;stop-opacity:0.50736368"
         offset="0"
         id="stop133-1-1" />
      <stop
         style="stop-color:#e7e7e7;stop-opacity:0"
         offset="0.49700609"
         id="stop135-1-1" />
      <stop
         style="stop-color:#d1d1d1;stop-opacity:0.52094537"
         offset="1"
         id="stop134-1-1" />
    </linearGradient>
    <linearGradient
       inkscape:collect="always"
       id="linearGradient1126">
      <stop
         style="stop-color:#dddddd;stop-opacity:1"
         offset="0"
         id="stop46-1-1" />
      <stop
         style="stop-color:#989898;stop-opacity:1"
         offset="1"
         id="stop47-1-1" />
    </linearGradient>
    <radialGradient
       inkscape:collect="always"
       xlink:href="#linearGradient2691"
       gradientUnits="userSpaceOnUse"
       gradientTransform="matrix(2.2436668e-6,-0.9734035,2.1474922,0,1521.45,1106.0635)"
       cx="1112.4368"
       cy="-85.774612"
       fx="1112.4368"
       fy="-85.774612"
       r="30.264471"
       id="radialGradient9862" />
    <linearGradient
       inkscape:collect="always"
       id="linearGradient2691">
      <stop
         style="stop-color:#ffffff;stop-opacity:1"
         offset="0"
         id="stop139-1-1-1" />
      <stop
         style="stop-color:#c3c3c3;stop-opacity:1"
         offset="0.99773723"
         id="stop140-1-1-1" />
    </linearGradient>
    <radialGradient
       inkscape:collect="always"
       xlink:href="#linearGradient1097"
       gradientUnits="userSpaceOnUse"
       gradientTransform="matrix(-1.597939,0.01613456,-0.01482628,-1.4606632,1621.239,3.080988)"
       cx="177.8112"
       cy="33.34993"
       fx="177.8112"
       fy="33.34993"
       r="30.294567"
       id="radialGradient5037" />
    <linearGradient
       inkscape:collect="always"
       id="linearGradient1097">
      <stop
         style="stop-color:#dddddd;stop-opacity:0.86519003"
         offset="0"
         id="stop44-1-1-1" />
      <stop
         style="stop-color:#989898;stop-opacity:1"
         offset="1"
         id="stop45-1-1-1" />
    </linearGradient>
    <linearGradient
       inkscape:collect="always"
       xlink:href="#linearGradient8884"
       gradientUnits="userSpaceOnUse"
       gradientTransform="matrix(1.0000349,0,0,0.98414972,74.617391,175.94612)"
       x1="1232.27"
       y1="-189.80646"
       x2="1291.3629"
       y2="-189.80646"
       id="linearGradient9194" />
    <linearGradient
       inkscape:collect="always"
       id="linearGradient8884">
      <stop
         style="stop-color:#cccccc;stop-opacity:0.50736368"
         offset="0"
         id="stop133-1-1-1" />
      <stop
         style="stop-color:#e7e7e7;stop-opacity:0"
         offset="0.49700609"
         id="stop135-1-1-1" />
      <stop
         style="stop-color:#d1d1d1;stop-opacity:0.52094537"
         offset="1"
         id="stop134-1-1-1" />
    </linearGradient>
    <radialGradient
       inkscape:collect="always"
       xlink:href="#linearGradient1043"
       gradientUnits="userSpaceOnUse"
       gradientTransform="matrix(1.4524334,-0.26444874,0.15380684,0.8446414,1068.9368,-56.199402)"
       cx="179.40439"
       cy="34.164013"
       fx="179.40439"
       fy="34.164013"
       r="30.294567"
       id="radialGradient1154" />
    <linearGradient
       inkscape:collect="always"
       id="linearGradient1043">
      <stop
         style="stop-color:#dddddd;stop-opacity:1"
         offset="0"
         id="stop46-1-1-1" />
      <stop
         style="stop-color:#989898;stop-opacity:1"
         offset="1"
         id="stop47-1-1-1" />
    </linearGradient>
    <radialGradient
       inkscape:collect="always"
       xlink:href="#linearGradient5023"
       id="radialGradient74"
       gradientUnits="userSpaceOnUse"
       gradientTransform="matrix(-1.597939,0.01613456,-0.01482628,-1.4606632,1494.5592,9.236316)"
       cx="177.8112"
       cy="33.34993"
       fx="177.8112"
       fy="33.34993"
       r="30.294567" />
    <radialGradient
       inkscape:collect="always"
       xlink:href="#linearGradient6015"
       id="radialGradient75"
       gradientUnits="userSpaceOnUse"
       gradientTransform="matrix(2.2436668e-6,-0.9734035,2.1474922,0,1394.7702,1112.2189)"
       cx="1112.4368"
       cy="-85.774612"
       fx="1112.4368"
       fy="-85.774612"
       r="30.264471" />
    <linearGradient
       inkscape:collect="always"
       xlink:href="#linearGradient4732"
       id="linearGradient75"
       gradientUnits="userSpaceOnUse"
       gradientTransform="matrix(1.0000298,0,0,0.98643261,-52.056025,182.44535)"
       x1="1232.27"
       y1="-189.80646"
       x2="1291.3629"
       y2="-189.80646" />
    <radialGradient
       inkscape:collect="always"
       xlink:href="#linearGradient1126"
       id="radialGradient76"
       gradientUnits="userSpaceOnUse"
       gradientTransform="matrix(1.4524334,-0.26444874,0.15380684,0.8446414,942.25698,-50.044074)"
       cx="179.40439"
       cy="34.164013"
       fx="179.40439"
       fy="34.164013"
       r="30.294567" />
    <radialGradient
       inkscape:collect="always"
       xlink:href="#linearGradient109"
       id="radialGradient114"
       gradientUnits="userSpaceOnUse"
       gradientTransform="matrix(-1.597939,0.01613456,-0.01482628,-1.4606632,568.34498,-43.641442)"
       cx="177.8112"
       cy="33.34993"
       fx="177.8112"
       fy="33.34993"
       r="30.294567" />
    <radialGradient
       inkscape:collect="always"
       xlink:href="#linearGradient111"
       id="radialGradient115"
       gradientUnits="userSpaceOnUse"
       gradientTransform="matrix(1.4524334,-0.26444874,0.15380684,0.8446414,16.04279,-102.92183)"
       cx="179.40439"
       cy="34.164013"
       fx="179.40439"
       fy="34.164013"
       r="30.294567" />
    <radialGradient
       inkscape:collect="always"
       xlink:href="#linearGradient109"
       id="radialGradient116"
       gradientUnits="userSpaceOnUse"
       gradientTransform="matrix(-1.597939,0.01613456,-0.01482628,-1.4606632,902.14501,-525.52088)"
       cx="177.8112"
       cy="33.34993"
       fx="177.8112"
       fy="33.34993"
       r="30.294567" />
    <radialGradient
       inkscape:collect="always"
       xlink:href="#linearGradient111"
       id="radialGradient117"
       gradientUnits="userSpaceOnUse"
       gradientTransform="matrix(1.4524334,-0.26444874,0.15380684,0.8446414,349.84281,-584.80127)"
       cx="179.40439"
       cy="34.164013"
       fx="179.40439"
       fy="34.164013"
       r="30.294567" />
    <radialGradient
       inkscape:collect="always"
       xlink:href="#linearGradient109"
       id="radialGradient120"
       gradientUnits="userSpaceOnUse"
       gradientTransform="matrix(-1.597939,0.01613456,-0.01482628,-1.4606632,704.72663,-325.61172)"
       cx="177.8112"
       cy="33.34993"
       fx="177.8112"
       fy="33.34993"
       r="30.294567" />
    <radialGradient
       inkscape:collect="always"
       xlink:href="#linearGradient111"
       id="radialGradient121"
       gradientUnits="userSpaceOnUse"
       gradientTransform="matrix(1.4524334,-0.26444874,0.15380684,0.8446414,152.42443,-384.89211)"
       cx="179.40439"
       cy="34.164013"
       fx="179.40439"
       fy="34.164013"
       r="30.294567" />
  </defs>
  <g
     inkscape:label="Layer 1"
     inkscape:groupmode="layer"
     id="layer1"
     transform="translate(-257.49022,147.74873)">
    <path
       id="rect67"
       style="opacity:0.94;fill:#c3c3c3;fill-opacity:0.6443;stroke-width:1.31887"
       d="M 257.49022,-126.11134 H 431.01287 V 244.40979 H 257.49022 Z" />
    <path
       id="rect158"
       style="fill:#e9e9e9;fill-opacity:0.765395;stroke-width:1.31887"
       d="M 604.7011,-126.11134 H 431.17786 V 244.40979 H 604.7011 Z" />
    <path
       d="m 398.17007,30.671307 h 3.92105 q 2.99403,0 2.99403,2.467883 0,0.776694 -0.42593,1.378006 -0.4134,0.588784 -1.1024,0.789221 0.45098,0.100223 0.72658,0.288129 0.2756,0.187909 0.40088,0.526147 0.12527,0.338239 0.16285,0.601312 0.0375,0.263074 0.0626,0.776694 0,0.0501 0.0126,0.250546 0.0125,0.187911 0.0125,0.263075 0,0.06264 0.0125,0.238018 0.0251,0.175384 0.0375,0.263075 0.0125,0.08769 0.0375,0.238018 0.0251,0.150329 0.0626,0.250547 0.0375,0.08769 0.0877,0.212964 0.0501,0.112747 0.11268,0.212966 0.0626,0.08769 0.1378,0.162854 h -1.35295 q -0.0877,-0.125273 -0.15033,-0.313183 -0.0501,-0.18791 -0.0752,-0.438457 -0.0251,-0.263073 -0.0376,-0.4134 -0.0125,-0.162856 -0.0251,-0.463511 -0.0125,-0.300657 -0.0125,-0.338239 -0.0626,-1.139986 -0.47605,-1.515806 -0.40086,-0.37582 -1.60349,-0.37582 h -2.34261 v 3.858416 h -1.17757 z m 1.17757,1.002186 v 3.119304 h 2.21734 q 0.41339,0 0.689,-0.02506 0.28812,-0.02506 0.62636,-0.112747 0.33824,-0.08769 0.53867,-0.250546 0.21297,-0.162854 0.35078,-0.463511 0.13779,-0.300656 0.13779,-0.726585 0,-0.901968 -0.5512,-1.21515 -0.53867,-0.325711 -1.47822,-0.325711 z m 12.74028,5.875316 q -0.48857,2.254919 -2.81865,2.254919 -1.42812,0 -2.24239,-0.889441 -0.80174,-0.88944 -0.80174,-2.467883 0,-1.565916 0.8268,-2.53052 0.83933,-0.977132 2.17975,-0.977132 1.49075,0 2.20481,1.014714 0.72658,1.002187 0.72658,2.543047 v 0.150328 h -4.8606 l -0.0126,0.07516 q 0,1.02724 0.53868,1.616026 0.53867,0.588784 1.47822,0.588784 0.70153,0 1.10241,-0.325711 0.4134,-0.325711 0.63889,-1.052295 z m -1.02724,-1.766354 q -0.0752,-0.927022 -0.56373,-1.440642 -0.48857,-0.526148 -1.29032,-0.526148 -0.77669,0 -1.29031,0.526148 -0.51362,0.526148 -0.61384,1.440642 z m 3.23206,-2.655792 v 0.914495 q 0.70152,-1.114933 2.17975,-1.114933 1.35295,0 2.14218,0.914495 0.80175,0.914495 0.80175,2.48041 0,1.565917 -0.78923,2.505465 -0.77669,0.927022 -2.10458,0.927022 -1.39054,0 -2.16723,-1.064822 V 42.0837 h -1.06482 v -8.957037 z m 2.0169,0.689002 q -0.92702,0 -1.4657,0.676477 -0.52614,0.663947 -0.52614,1.841516 0,1.177569 0.53867,1.854044 0.5512,0.663949 1.49075,0.663949 0.91449,0 1.44064,-0.676476 0.52615,-0.676476 0.52615,-1.841517 0,-1.177569 -0.53867,-1.841516 -0.52615,-0.676477 -1.4657,-0.676477 z m 5.53708,-3.144358 v 8.919455 h -1.07735 v -8.919455 z m 2.78107,0 v 1.302841 h -1.07736 v -1.302841 z m 0,2.455356 v 6.464099 h -1.07736 v -6.464099 z m 7.21574,4.108962 q -0.1378,1.165042 -0.88945,1.854044 -0.7391,0.689004 -1.92919,0.689004 -1.46571,0 -2.26745,-0.901968 -0.80175,-0.914494 -0.80175,-2.430301 0,-1.616025 0.83933,-2.555575 0.83933,-0.952077 2.26745,-0.952077 1.19009,0 1.90415,0.601313 0.71406,0.588784 0.83933,1.691188 h -1.10241 q -0.28813,-1.40306 -1.62855,-1.40306 -0.92702,0 -1.4657,0.689003 -0.53867,0.676475 -0.53867,1.841516 0,1.177569 0.51362,1.854045 0.51362,0.676476 1.41559,0.676476 0.72658,0 1.17757,-0.425929 0.4635,-0.42593 0.58879,-1.227679 z m 6.89004,1.503279 v 0.826804 q -0.32571,0.125273 -0.72659,0.125273 -0.91449,0 -0.93955,-0.952077 -0.91449,1.027242 -2.3426,1.027242 -0.95209,0 -1.51581,-0.488567 -0.55121,-0.488566 -0.55121,-1.340423 0,-1.728771 2.2925,-2.016899 1.35296,-0.162856 1.56592,-0.23802 0.45099,-0.150328 0.48857,-0.626366 0.0125,-0.07516 0.0125,-0.162856 0,-1.064822 -1.4657,-1.064822 -0.75164,0 -1.13999,0.313183 -0.38834,0.300655 -0.46351,1.002186 h -1.03971 q 0.0251,-1.039768 0.73911,-1.616026 0.71406,-0.576256 1.96679,-0.576256 1.36548,0 2.02942,0.626367 0.21297,0.200436 0.31319,0.526147 0.10026,0.32571 0.11281,0.538675 0.0125,0.200437 0.0125,0.613839 0,0.488565 -0.0251,1.45317 -0.0251,0.952076 -0.0251,1.428115 0,0.350765 0.0877,0.501093 0.10026,0.1378 0.35076,0.1378 0.10026,0 0.26307,-0.03758 z m -1.71624,-2.505465 q -0.11281,0.08769 -0.23802,0.150329 -0.12528,0.06264 -0.32572,0.100222 -0.18791,0.03758 -0.26307,0.06264 -0.0626,0.01252 -0.3257,0.05011 -0.26308,0.02506 -0.27561,0.02506 -0.38835,0.05011 -0.51362,0.07516 -0.11269,0.01252 -0.45098,0.100222 -0.32572,0.08769 -0.46351,0.200437 -0.13781,0.112746 -0.27561,0.338239 -0.12527,0.212964 -0.12527,0.51362 0,0.501093 0.33824,0.789221 0.35076,0.288129 0.95207,0.288129 0.76417,0 1.36548,-0.450984 0.60132,-0.450984 0.60132,-1.064823 z m 7.51639,-1.227677 h -1.06482 q -0.10026,-1.177569 -1.57844,-1.177569 -0.61383,0 -0.96461,0.238019 -0.35076,0.238019 -0.35076,0.638894 0,0.112746 0.0251,0.225491 0.0251,0.100223 0.0877,0.187911 0.0752,0.07516 0.12527,0.1378 0.0626,0.06264 0.18791,0.125273 0.13781,0.05011 0.20045,0.08769 0.0752,0.03758 0.25054,0.08769 0.18791,0.03758 0.26307,0.06264 0.0752,0.01252 0.28814,0.06264 0.22549,0.05011 0.28812,0.06264 0.46352,0.100223 0.689,0.162855 0.23803,0.06264 0.6389,0.23802 0.4134,0.162855 0.62637,0.350765 0.21296,0.175383 0.37582,0.501093 0.17537,0.313183 0.17537,0.714058 0,0.939549 -0.7391,1.515806 -0.72659,0.563729 -1.94174,0.563729 -1.31537,0 -2.02943,-0.576257 -0.70152,-0.576256 -0.75164,-1.666133 h 1.0523 q 0.0877,1.365478 1.75382,1.365478 0.71406,0 1.13999,-0.288129 0.43846,-0.300656 0.43846,-0.789221 0,-0.32571 -0.22549,-0.538675 -0.2255,-0.212964 -0.50109,-0.300656 -0.2756,-0.100223 -0.78923,-0.225492 -0.0752,-0.01252 -0.1128,-0.02506 -0.11269,-0.02506 -0.48857,-0.100222 -0.36329,-0.08769 -0.52615,-0.137801 -0.16285,-0.0501 -0.47603,-0.150328 -0.30066,-0.112746 -0.45099,-0.225491 -0.15033,-0.125274 -0.33824,-0.300656 -0.17538,-0.18791 -0.25055,-0.42593 -0.0752,-0.250547 -0.0752,-0.563729 0,-0.876913 0.66395,-1.390533 0.67648,-0.513621 1.80393,-0.513621 1.13999,0 1.85405,0.538675 0.72658,0.538675 0.72658,1.528334 z m 6.99026,2.543047 q -0.48857,2.254919 -2.81865,2.254919 -1.42812,0 -2.2424,-0.889441 -0.80175,-0.88944 -0.80175,-2.467883 0,-1.565916 0.82681,-2.53052 0.83933,-0.977132 2.17976,-0.977132 1.49075,0 2.20481,1.014714 0.72658,1.002187 0.72658,2.543047 v 0.150328 h -4.8606 l -0.0126,0.07516 q 0,1.02724 0.53869,1.616026 0.53867,0.588784 1.47822,0.588784 0.70153,0 1.10241,-0.325711 0.41339,-0.325711 0.63888,-1.052295 z m -1.02724,-1.766354 q -0.0752,-0.927022 -0.56373,-1.440642 -0.48857,-0.526148 -1.29032,-0.526148 -0.7767,0 -1.29031,0.526148 -0.51363,0.526148 -0.61384,1.440642 z m 4.99841,-2.655792 v 0.876913 h -1.29032 V 37.7743 q 0,0.313184 0,0.413402 0.0125,0.100223 0.0752,0.275602 0.0626,0.162854 0.21296,0.212964 0.15033,0.05011 0.42593,0.05011 0.23802,0 0.57626,-0.03758 v 0.914495 q -0.45099,0.0501 -0.81427,0.0501 -0.45099,0 -0.75165,-0.100223 -0.30065,-0.100223 -0.46351,-0.225492 -0.15032,-0.125274 -0.22549,-0.438456 -0.0752,-0.325711 -0.0877,-0.538675 -0.0125,-0.225493 -0.0125,-0.739113 0,-0.112746 0,-0.175382 v -3.432487 h -1.08988 v -0.876913 h 1.08988 v -1.916681 h 1.06483 v 1.916681 z m 8.3432,-2.405247 v 8.869346 h -1.16505 v -6.426517 h -2.22985 v -0.801749 q 1.07734,0 1.7037,-0.350766 0.6389,-0.350764 0.85187,-1.290314 z"
       id="text103"
       style="font-size:10.5833px;line-height:1.25;font-family:HelveticaNeueCyr;-inkscape-font-specification:HelveticaNeueCyr;text-align:center;text-anchor:middle;stroke-width:0.313184"
       aria-label="Replicaset 1" />
    <path
       d="M 510.28175,34.322277 A 54.183226,274.14503 65.746155 0 0 259.3449,201.30508 54.183226,274.14503 65.746155 0 0 510.28175,152.71218 54.183226,274.14503 65.746155 0 0 761.2185,-14.270649 54.183226,274.14503 65.746155 0 0 510.28175,34.322277 Z"
       style="fill:none;fill-opacity:1;stroke:#000000;stroke-width:0.56315;stroke-dasharray:none;stroke-opacity:1"
       id="path177" />
    <path
       id="rect159"
       style="opacity:0.94;fill:#c5c5c5;fill-opacity:0.603922;stroke-width:1.31887"
       d="M 604.67338,-126.11134 H 778.19662 V 244.40979 H 604.67338 Z" />
    <path
       d="M 425.96702,-36.390573 A 146.32431,32.12102 0 0 0 279.6425,-4.2693246 146.32431,32.12102 0 0 0 425.96702,27.851959 146.32431,32.12102 0 0 0 572.2915,-4.2693246 146.32431,32.12102 0 0 0 425.96702,-36.390573 Z"
       style="fill:none;fill-opacity:1;stroke:#000000;stroke-width:0.546711;stroke-dasharray:none;stroke-opacity:1"
       id="path276" />
    <g
       id="g164"
       transform="matrix(1.1836881,0,0,1.1836881,-690.28343,91.799238)"
       style="opacity:0.9">
      <path
         id="path157"
         style="fill:#ffffff;fill-opacity:0.86519;stroke:#000000;stroke-width:0.264999"
         d="m 1020.5706,-155.95479 c -16.6415,-1e-5 -30.13214,4.8473 -30.13204,10.82673 0.01,0.04 0.013,0.0799 0.02,0.11989 v 68.598401 c -0.01,0.03995 -0.014,0.07991 -0.02,0.11989 0.01,0.03998 0.013,0.07994 0.02,0.11989 v 0.0961 h 0.016 c 0.327,5.889861 13.70044,10.604839 30.09594,10.61072 16.4046,-0.0013 29.792,-4.717626 30.1191,-10.61073 h 0.017 v -69.138391 h -0.01 c -0.1286,-5.94585 -13.5787,-10.74176 -30.1273,-10.7425 z"
         sodipodi:nodetypes="ccccccccccccccc" />
      <path
         id="ellipse157"
         style="fill:url(#radialGradient164);stroke:#000000;stroke-width:0.264999"
         d="m 1050.7033,-76.28981 a 30.131971,10.826639 0 0 1 -30.132,10.826639 30.131971,10.826639 0 0 1 -30.13198,-10.826639 30.131971,10.826639 0 0 1 30.13198,-10.826639 30.131971,10.826639 0 0 1 30.132,10.826639 z" />
      <g
         id="g159"
         transform="translate(872.5516,-181.36768)">
        <path
           id="path158"
           style="fill:#7f7f7f;fill-opacity:0.86519;stroke:#000000;stroke-width:0.264999"
           d="m 148.19406,52.411271 c -11.04678,0.0033 -21.20295,2.178235 -26.46661,5.667871 h -3.69486 v 4.855518 c 0,0 0.003,-0.155984 2.3e-4,-0.005 -1.4e-4,5.97943 13.51929,11.135154 30.16084,11.135144 16.64154,8e-6 30.16241,-5.115362 30.16227,-11.094791 0.002,-0.03197 -0.004,-0.0032 -8.6e-4,-0.02087 v -4.86993 h -3.67574 c -5.26693,-3.491843 -15.43209,-5.66716 -26.48572,-5.667915 z"
           sodipodi:nodetypes="cccccscccccc" />
        <path
           d="M 148.19412,47.245845 A 30.131971,10.826639 0 0 0 118.0621,58.072574 30.131971,10.826639 0 0 0 148.19412,68.899305 30.131971,10.826639 0 0 0 178.32614,58.072574 30.131971,10.826639 0 0 0 148.19412,47.245845 Z"
           style="fill:#aaaaaa;fill-opacity:1;stroke:#000000;stroke-width:0.264999"
           id="path159" />
      </g>
      <path
         d="m 1020.5714,-155.95479 a 30.131971,10.826639 0 0 0 -30.13204,10.82673 30.131971,10.826639 0 0 0 30.13204,10.82673 30.131971,10.826639 0 0 0 30.132,-10.82673 30.131971,10.826639 0 0 0 -30.132,-10.82673 z"
         style="fill:#ffffff;fill-opacity:0.804107;stroke:#000000;stroke-width:0.264999"
         id="path160" />
      <path
         id="path161"
         style="fill:url(#linearGradient164);fill-opacity:1;stroke:#000000;stroke-width:0.264477"
         d="m 1020.6175,-169.53999 c -11.0302,0.003 -21.17112,2.17113 -26.42686,5.65184 h -3.68999 v 18.34658 c 0,-0.02 -2e-4,-0.0207 0,0.0546 v 0.006 c 2e-4,0.16163 0.015,0.32281 0.035,0.48316 -4e-4,0.0234 -0.01,0.0467 -0.01,0.0701 0.01,0.0399 0.013,0.0789 0.02,0.11884 v 68.426107 c -0.01,0.0399 -0.014,0.0809 -0.02,0.120791 0.01,0.0399 0.013,0.07895 0.02,0.118843 v 0.09546 h 0.016 c 0.32653,5.875131 13.68055,10.578926 30.05255,10.584791 16.381,-9.98e-4 29.7493,-4.706429 30.0759,-10.584791 h 0.018 v -68.963811 h -0.01 c 0.016,-0.14477 0.031,-0.2886 0.031,-0.43446 0,-0.0319 8e-4,-0.004 0,-0.0215 v -18.42061 h -3.6706 c -5.2589,-3.4829 -15.4092,-5.65085 -26.4462,-5.65184 z" />
      <g
         id="g163"
         transform="translate(-84.683556,-229.90224)">
        <path
           id="path162"
           style="fill:url(#radialGradient165);fill-opacity:1;stroke:#000000;stroke-width:0.264999"
           d="m 1105.229,60.797231 c -11.0468,0.003 -21.203,2.17823 -26.4666,5.66787 h -3.6949 v 18.451253 c 0,0 0,-0.155984 3e-4,-0.005 -2e-4,5.97943 13.5192,11.135154 30.1608,11.135144 16.6415,8e-6 30.1624,-5.115362 30.1622,-11.094791 0,-0.03197 0,-0.0032 -8e-4,-0.02087 V 66.465171 h -3.6758 c -5.2669,-3.49184 -15.432,-5.66716 -26.4857,-5.66791 z"
           sodipodi:nodetypes="cccccscccccc" />
        <path
           d="m 1105.229,54.952585 a 30.131971,10.826639 0 0 0 -30.132,10.82673 30.131971,10.826639 0 0 0 30.132,10.82673 30.131971,10.826639 0 0 0 30.1321,-10.82673 30.131971,10.826639 0 0 0 -30.1321,-10.82673 z"
           style="fill:url(#radialGradient166);fill-opacity:1;stroke:#000000;stroke-width:0.264999"
           id="path163" />
      </g>
    </g>
    <g
       id="g74"
       transform="matrix(1.1836881,0,0,1.1836881,-1088.8278,162.78584)">
      <path
         id="path66"
         style="fill:#ffffff;fill-opacity:0.86519;stroke:#000000;stroke-width:0.264999"
         d="m 1209.8007,-56.705714 c -16.6415,-10e-6 -30.1321,4.8473 -30.132,10.82673 0.01,0.04 0.013,0.0799 0.02,0.11989 v 68.598395 c -0.01,0.03995 -0.014,0.07991 -0.02,0.11989 0.01,0.03998 0.013,0.07994 0.02,0.11989 v 0.0961 h 0.016 c 0.327,5.889861 13.7004,10.604839 30.0959,10.61072 16.4046,-0.0013 29.792,-4.717626 30.1191,-10.61073 h 0.017 v -69.138385 h -0.01 c -0.1286,-5.94585 -13.5787,-10.74176 -30.1273,-10.7425 z"
         sodipodi:nodetypes="ccccccccccccccc" />
      <g
         id="g68"
         transform="translate(1071.0431,-77.578054)">
        <path
           id="path67"
           style="fill:#7f7f7f;fill-opacity:0.86519;stroke:#000000;stroke-width:0.264999"
           d="m 138.93272,61.933496 c -11.04678,0.0033 -21.20295,2.178235 -26.46661,5.667871 h -3.69486 v 4.855518 c 0,0 0.003,-0.155984 2.3e-4,-0.005 -1.4e-4,5.97943 13.51929,11.135154 30.16084,11.135144 16.64154,8e-6 30.16241,-5.115362 30.16227,-11.094791 0.002,-0.03197 -0.004,-0.0032 -8.6e-4,-0.02087 v -4.86993 h -3.67574 c -5.26693,-3.491843 -15.43209,-5.66716 -26.48572,-5.667915 z"
           sodipodi:nodetypes="cccccscccccc" />
        <path
           d="M 138.93278,56.76807 A 30.131971,10.826639 0 0 0 108.80076,67.594799 30.131971,10.826639 0 0 0 138.93278,78.42153 30.131971,10.826639 0 0 0 169.0648,67.594799 30.131971,10.826639 0 0 0 138.93278,56.76807 Z"
           style="fill:#aaaaaa;fill-opacity:1;stroke:#000000;stroke-width:0.264999"
           id="path68" />
      </g>
      <path
         d="m 1209.8015,-56.705714 a 30.131971,10.826639 0 0 0 -30.132,10.82673 30.131971,10.826639 0 0 0 30.132,10.82673 30.131971,10.826639 0 0 0 30.132,-10.82673 30.131971,10.826639 0 0 0 -30.132,-10.82673 z"
         style="fill:#ffffff;fill-opacity:0.804107;stroke:#000000;stroke-width:0.264999"
         id="path69" />
      <path
         id="path72"
         style="fill:url(#radialGradient74);fill-opacity:1;stroke:#000000;stroke-width:0.264999"
         d="m 1209.8013,-68.861064 c -11.0468,0.003 -21.203,2.17823 -26.4666,5.66787 h -3.6949 v 18.45125 c 0,0 0,-0.15598 3e-4,-0.005 -2e-4,5.97943 13.5192,11.13516 30.1608,11.13515 16.6415,1e-5 30.1624,-5.11536 30.1622,-11.09479 0,-0.032 0,-0.003 -8e-4,-0.0209 v -18.46567 h -3.6758 c -5.2669,-3.49184 -15.432,-5.66716 -26.4857,-5.66791 z"
         sodipodi:nodetypes="cccccscccccc" />
      <path
         id="ellipse72"
         style="fill:url(#radialGradient75);stroke:#000000;stroke-width:0.264999"
         d="m 1239.9335,22.959263 a 30.131971,10.826639 0 0 1 -30.132,10.826639 30.131971,10.826639 0 0 1 -30.132,-10.826639 30.131971,10.826639 0 0 1 30.132,-10.826639 30.131971,10.826639 0 0 1 30.132,10.826639 z" />
      <path
         id="path73"
         style="fill:url(#linearGradient75);fill-opacity:1;stroke:#000000;stroke-width:0.263199"
         d="m 1209.8041,-69.135629 c -11.0463,0.003 -21.2021,2.14705 -26.4656,5.589137 h -3.6954 v 18.143041 c 0,-0.01983 -2e-4,-0.02052 0,0.05396 v 0.0059 c 2e-4,0.159842 0.015,0.31923 0.035,0.477799 -4e-4,0.02318 -0.01,0.04616 -0.01,0.06935 0.01,0.03946 0.013,0.07803 0.02,0.117523 v 67.666973 c -0.01,0.03946 -0.014,0.08 -0.02,0.11945 0.01,0.03946 0.013,0.07808 0.02,0.117525 v 0.0944 h 0.016 c 0.327,5.80995 13.7006,10.46156 30.0966,10.46736 16.4051,-9.86e-4 29.793,-4.654214 30.1201,-10.46736 h 0.018 v -68.198713 h -0.01 c 0.016,-0.143161 0.031,-0.285395 0.031,-0.429641 0,-0.03157 8e-4,-0.0039 0,-0.02121 v -18.216254 h -3.6759 c -5.2667,-3.444257 -15.4319,-5.58815 -26.4851,-5.589137 z" />
      <path
         d="m 1209.8013,-74.705704 a 30.131971,10.826639 0 0 0 -30.132,10.82673 30.131971,10.826639 0 0 0 30.132,10.82673 30.131971,10.826639 0 0 0 30.1321,-10.82673 30.131971,10.826639 0 0 0 -30.1321,-10.82673 z"
         style="fill:url(#radialGradient76);fill-opacity:1;stroke:#000000;stroke-width:0.264999"
         id="path74" />
    </g>
    <path
       d="M 603.84906,154.64693 A 146.32431,32.12102 0 0 0 457.52454,186.76818 146.32431,32.12102 0 0 0 603.84906,218.88947 146.32431,32.12102 0 0 0 750.17354,186.76818 146.32431,32.12102 0 0 0 603.84906,154.64693 Z"
       style="fill:none;fill-opacity:1;stroke:#000000;stroke-width:0.546711;stroke-dasharray:none;stroke-opacity:1"
       id="path4" />
    <path
       style="fill:none;stroke:#000000;stroke-width:0.550415;stroke-linecap:butt;stroke-linejoin:miter;stroke-miterlimit:4;stroke-dasharray:none;stroke-opacity:1;marker-start:url(#ConcaveTriangle-7)"
       d="M 385.53232,187.96343 C 412.27906,188.18388 629.82347,91.01783 730.02497,5.4177833"
       id="path85"
       sodipodi:nodetypes="cc" />
    <path
       style="font-size:14.6976px;line-height:1.25;font-family:HelveticaNeueCyr;-inkscape-font-specification:HelveticaNeueCyr;text-align:center;letter-spacing:5px;text-anchor:middle;opacity:0.55;stroke-width:2.19149"
       d="m 511.31977,129.5203 0.56236,1.16473 q -0.12551,0.0443 -0.29758,0.12736 -0.54266,0.262 -0.85665,0.62578 -0.32039,0.35054 -0.43082,0.73028 -0.0972,0.37335 -0.0511,0.84071 0.0461,0.46736 0.18489,0.89 0.15201,0.41624 0.39484,0.91919 l 1.39311,2.88537 -1.12503,0.54318 -3.29745,-6.82959 1.07209,-0.51762 0.70934,1.46916 q -0.11101,-1.9539 1.74198,-2.84855 z m 13.23952,-0.50407 q 0.65199,2.62726 -1.80169,3.83262 -1.50386,0.73876 -2.82144,0.22337 -1.30438,-0.52187 -2.12091,-2.18404 -0.81006,-1.64897 -0.43839,-3.09245 0.37838,-1.46315 1.7899,-2.15655 1.56983,-0.77117 2.84667,-0.072 1.28356,0.67948 2.08065,2.30208 l 0.0778,0.1583 -5.11842,2.5144 0.0257,0.0856 q 0.53139,1.08173 1.40322,1.42308 0.87183,0.34136 1.86121,-0.14467 0.73874,-0.3629 0.99239,-0.91326 0.26684,-0.55684 0.12843,-1.43862 z m -1.99547,-1.32865 q -0.5587,-0.93731 -1.33888,-1.22544 -0.78666,-0.30132 -1.63093,0.11343 -0.81789,0.40178 -1.08658,1.22154 -0.26869,0.81975 0.0988,1.83459 z m 6.44845,-6.67824 0.48072,0.95921 q 0.14975,-1.53821 1.70025,-2.31526 1.41911,-0.71119 2.72763,-0.16684 1.32167,0.53776 2.14481,2.18024 0.82314,1.64248 0.48921,3.04283 -0.32737,1.38062 -1.72019,2.07865 -1.45852,0.73095 -2.83293,0.0223 l 1.78457,3.5609 -1.11689,0.55973 -4.70836,-9.39499 z m 2.4777,-0.33751 q -0.97235,0.4873 -1.18176,1.48001 -0.20287,0.97299 0.41614,2.20813 0.619,1.23515 1.53961,1.66154 0.92716,0.40667 1.91265,-0.0872 0.95921,-0.48071 1.15549,-1.46684 0.19627,-0.98613 -0.41614,-2.20813 -0.61901,-1.23515 -1.53303,-1.6484 -0.90747,-0.43298 -1.89296,0.0609 z m 8.54611,-8.45406 4.74986,9.32462 -1.12629,0.57372 -4.74986,-9.32462 z m 7.30545,-3.74766 0.70054,1.35857 -1.12343,0.5793 -0.70054,-1.35857 z m 1.32026,2.56038 3.47578,6.74057 -1.12343,0.5793 -3.47578,-6.74058 z m 14.13674,-1.92906 q 0.49102,1.28585 0.0849,2.41111 -0.39307,1.11844 -1.62994,1.76632 -1.52329,0.79791 -2.84757,0.29696 -1.3311,-0.51397 -2.15629,-2.08935 -0.87974,-1.67953 -0.51891,-3.11292 0.35402,-1.44642 1.83825,-2.22387 1.23687,-0.64787 2.30633,-0.41165 1.06265,0.22319 1.79298,1.30072 l -1.14572,0.60014 q -1.06327,-1.30134 -2.45637,-0.57163 -0.96345,0.50466 -1.14821,1.51399 -0.19157,0.9963 0.44266,2.20713 0.64106,1.22384 1.54313,1.64729 0.90207,0.42346 1.83948,-0.0676 0.75514,-0.39554 0.99197,-1.08372 0.24986,-0.695 -0.0564,-1.59645 z m 12.36342,-4.57622 0.45695,0.85567 q -0.26785,0.30966 -0.68272,0.53121 -0.94643,0.50542 -1.49854,-0.46606 -0.3787,1.56853 -1.85669,2.3578 -0.98532,0.52619 -1.83875,0.33212 -0.84046,-0.20099 -1.31126,-1.0826 -0.95544,-1.78913 1.25787,-3.35432 1.31019,-0.91628 1.48905,-1.11176 0.38365,-0.40483 0.15945,-0.91826 -0.0286,-0.0847 -0.077,-0.17546 -0.5885,-1.10201 -2.10537,-0.29196 -0.77789,0.41541 -1.00671,0.95416 -0.23574,0.52578 0.0742,1.29334 l -1.07607,0.57465 q -0.54872,-1.08992 -0.12821,-2.08094 0.42051,-0.99101 1.71699,-1.68336 1.41316,-0.75466 2.44646,-0.473367 0.33118,0.08974 0.61491,0.371437 0.28373,0.28169 0.41439,0.49517 0.12374,0.20051 0.35221,0.62835 0.27002,0.50562 0.7772,1.51776 0.50025,0.99917 0.76335,1.49183 0.19385,0.36301 0.36769,0.47012 0.17988,0.0872 0.43917,-0.0512 0.10372,-0.0554 0.25149,-0.18429 z m -3.16087,-1.64443 q -0.0682,0.15306 -0.16325,0.28712 -0.095,0.13406 -0.28169,0.28373 -0.1737,0.14274 -0.23764,0.21021 -0.0579,0.0476 -0.30939,0.23187 -0.25842,0.17133 -0.27138,0.17825 -0.37422,0.26649 -0.49002,0.36165 -0.10976,0.0753 -0.41134,0.35296 -0.28862,0.27077 -0.36892,0.46361 -0.0803,0.19284 -0.0983,0.50236 -0.0119,0.28964 0.15422,0.60079 0.27693,0.51859 0.78622,0.62985 0.52226,0.10433 1.14456,-0.228 0.79085,-0.42233 1.16392,-1.22139 0.37306,-0.79905 0.0338,-1.43433 z m 8.29909,-8.624626 0.49114,0.904034 -1.33022,0.722677 2.1119,3.887345 q 0.17541,0.32287 0.23154,0.42619 0.069,0.0963 0.23184,0.24202 0.15579,0.13281 0.33883,0.10028 0.18304,-0.0325 0.46717,-0.1869 0.24538,-0.13331 0.57303,-0.36149 l 0.51219,0.94278 q -0.43687,0.30424 -0.8114,0.50772 -0.46493,0.25258 -0.83101,0.31765 -0.36609,0.0651 -0.60414,0.0271 -0.22514,-0.045 -0.47804,-0.32572 -0.25991,-0.29369 -0.3921,-0.50622 -0.13921,-0.22545 -0.42688,-0.75496 -0.0631,-0.11623 -0.0982,-0.1808 l -1.92247,-3.53865 -1.12358,0.610417 -0.49114,-0.904033 1.12358,-0.610417 -1.07349,-1.975959 1.09775,-0.596385 1.0735,1.975959 z m 5.32677,-6.206059 0.73756,1.338831 -1.10711,0.609907 -0.73756,-1.338831 z m 1.39002,2.523182 3.65945,6.642662 -1.10712,0.609907 -3.65944,-6.642662 z m 6.9722,-2.873522 q 0.34001,-1.437425 1.84004,-2.278254 1.50003,-0.840829 2.84363,-0.39768 1.3436,0.443149 2.26348,2.08421 0.94144,1.679524 0.63271,3.082568 -0.30873,1.403045 -1.82158,2.251061 -1.51286,0.848015 -2.88928,0.406418 -1.37643,-0.441596 -2.29631,-2.082657 -0.91269,-1.628241 -0.57269,-3.065666 z m 4.23276,-1.496477 q -0.94655,-0.396121 -1.90811,0.142872 -0.96156,0.538993 -1.13042,1.560346 -0.16885,1.021352 0.49232,2.200865 0.68272,1.217975 1.62209,1.601275 0.945,0.363293 1.94502,-0.19726 0.96156,-0.538993 1.11196,-1.533151 0.16322,-1.001346 -0.5195,-2.219321 -0.66117,-1.179512 -1.61336,-1.555626 z m 7.48019,-6.112777 0.5846,1.020179 q 0.12924,-1.666392 1.55749,-2.484835 1.16045,-0.664985 2.0213,-0.345178 0.8663,0.299746 1.53859,1.472952 l 2.50648,4.374017 -1.08394,0.621139 -2.22149,-3.876679 q -0.27768,-0.484585 -0.4694,-0.73046 -0.18627,-0.265934 -0.48917,-0.498912 -0.31021,-0.245731 -0.69665,-0.210625 -0.38643,0.03511 -0.87102,0.312792 -1.87458,1.074207 -0.51538,3.446122 l 1.97303,3.443104 -1.08394,0.62114 -3.77068,-6.580154 z"
       id="text2"
       transform="rotate(-2.8711186,-141.70474,-1130.0624)"
       aria-label="replication" />
    <g
       id="g129"
       transform="matrix(1.1836881,0,0,1.1836881,-213.06971,795.56431)">
      <path
         id="path71"
         style="fill:#ffffff;fill-opacity:0.86519;stroke:#000000;stroke-width:0.264999"
         d="m 617.36007,-590.2072 c -16.6415,-1e-5 -30.1321,4.8473 -30.132,10.82673 0.01,0.04 0.013,0.0799 0.02,0.11989 v 68.59839 c -0.01,0.04 -0.014,0.0799 -0.02,0.11989 0.01,0.04 0.013,0.0799 0.02,0.11989 v 0.0961 h 0.016 c 0.327,5.88986 13.7004,10.60484 30.0959,10.61072 16.4046,-10e-4 29.792,-4.71763 30.1191,-10.61073 h 0.017 v -69.13838 h -0.01 c -0.1286,-5.94585 -13.5787,-10.74176 -30.1273,-10.7425 z"
         sodipodi:nodetypes="ccccccccccccccc" />
      <path
         id="ellipse141"
         style="fill:url(#radialGradient142);stroke:#000000;stroke-width:0.264999"
         d="m 647.49287,-510.54224 a 30.131971,10.826639 0 0 1 -30.13197,10.82664 30.131971,10.826639 0 0 1 -30.13197,-10.82664 30.131971,10.826639 0 0 1 30.13197,-10.82664 30.131971,10.826639 0 0 1 30.13197,10.82664 z" />
      <path
         d="m 617.36087,-590.2072 a 30.131971,10.826639 0 0 0 -30.132,10.82673 30.131971,10.826639 0 0 0 30.132,10.82673 30.131971,10.826639 0 0 0 30.132,-10.82673 30.131971,10.826639 0 0 0 -30.132,-10.82673 z"
         style="fill:#ffffff;fill-opacity:0.804107;stroke:#000000;stroke-width:0.264999"
         id="path94" />
      <path
         id="path115"
         style="fill:url(#radialGradient116);fill-opacity:1;stroke:#000000;stroke-width:0.264999"
         d="m 617.38711,-603.61826 c -11.0468,0.003 -21.203,2.17823 -26.4666,5.66787 h -3.6949 v 18.45125 c 0,0 0,-0.15598 3e-4,-0.005 -2e-4,5.97943 13.5192,11.13516 30.1608,11.13515 16.6415,1e-5 30.1624,-5.11536 30.1622,-11.09479 0,-0.032 0,-0.003 -8e-4,-0.0209 v -18.46567 h -3.6758 c -5.2669,-3.49184 -15.432,-5.66716 -26.4857,-5.66791 z"
         sodipodi:nodetypes="cccccscccccc" />
      <g
         id="g118"
         transform="translate(426.68727,-539.99675)">
        <path
           id="path117"
           style="fill:#a4468c;fill-opacity:1;stroke:#000000;stroke-width:0.264999"
           d="m 190.69981,5.029293 c -11.04678,0.0033 -21.20295,2.178235 -26.46661,5.667871 h -3.69486 v 4.855518 c 0,0 0.003,-0.155984 2.3e-4,-0.005 -1.4e-4,5.97943 13.51929,11.135154 30.16084,11.135144 16.64154,8e-6 30.16241,-5.115362 30.16227,-11.094791 0.002,-0.03197 -0.004,-0.0032 -8.6e-4,-0.02087 v -4.86993 h -3.67574 C 211.91815,7.205392 201.75299,5.030075 190.69936,5.02932 Z"
           sodipodi:nodetypes="cccccscccccc" />
        <path
           d="M 190.69987,-0.136133 A 30.131971,10.826639 0 0 0 160.56785,10.690596 30.131971,10.826639 0 0 0 190.69987,21.517327 30.131971,10.826639 0 0 0 220.83189,10.690596 30.131971,10.826639 0 0 0 190.69987,-0.136133 Z"
           style="fill:#ad6099;fill-opacity:1;stroke:#000000;stroke-width:0.264999"
           id="path118" />
      </g>
      <path
         id="path143"
         style="fill:url(#linearGradient143);fill-opacity:1;stroke:none;stroke-width:0.262895"
         d="m 617.2544,-602.26733 c -11.0464,0.003 -21.2022,2.14208 -26.4657,5.57621 h -3.6955 v 18.10105 c 0,-0.0198 -2e-4,-0.0205 0,0.0538 v 0.006 c 2e-4,0.15947 0.015,0.31849 0.035,0.47669 -4e-4,0.0231 -0.01,0.0461 -0.01,0.0692 0.01,0.0394 0.013,0.0779 0.02,0.11725 v 67.51038 c -0.01,0.0394 -0.014,0.0798 -0.02,0.11917 0.01,0.0394 0.013,0.0779 0.02,0.11726 v 0.0942 h 0.016 c 0.327,5.7965 13.7006,10.43734 30.0967,10.44313 16.4052,-9.8e-4 29.7931,-4.64344 30.1203,-10.44313 h 0.018 v -68.04089 h -0.01 c 0.016,-0.14283 0.031,-0.28474 0.031,-0.42865 0,-0.0315 8e-4,-0.004 0,-0.0212 v -18.17409 h -3.676 c -5.2667,-3.43629 -15.4319,-5.57522 -26.4852,-5.57621 z" />
      <path
         d="m 617.38711,-609.46291 a 30.131971,10.826639 0 0 0 -30.132,10.82673 30.131971,10.826639 0 0 0 30.132,10.82673 30.131971,10.826639 0 0 0 30.1321,-10.82673 30.131971,10.826639 0 0 0 -30.1321,-10.82673 z"
         style="fill:url(#radialGradient117);fill-opacity:1;stroke:#000000;stroke-width:0.264999"
         id="path116" />
    </g>
    <path
       d="m 300.27792,222.26708 3.92105,-0.68752 q 2.99404,-0.52498 2.99404,1.9429 0,0.77671 -0.42593,1.45271 -0.4134,0.66126 -1.10241,0.98251 0.45099,0.0212 0.72659,0.16072 0.2756,0.13959 0.40088,0.45586 0.12527,0.31628 0.16285,0.57277 0.0375,0.25649 0.0626,0.76571 0,0.0501 0.0125,0.24836 0.0125,0.18572 0.0125,0.26088 0,0.0626 0.0126,0.23581 0.0251,0.17098 0.0375,0.25649 0.0126,0.0855 0.0375,0.23145 0.0251,0.14593 0.0626,0.23957 0.0375,0.0811 0.0877,0.19759 0.0501,0.10391 0.11269,0.19321 0.0626,0.0767 0.13779,0.13868 l -1.35294,0.23723 q -0.0877,-0.10989 -0.15033,-0.28682 -0.0501,-0.17913 -0.0752,-0.42527 -0.0251,-0.25867 -0.0376,-0.40681 -0.0125,-0.16067 -0.0251,-0.4591 -0.0126,-0.29845 -0.0126,-0.33603 -0.0626,-1.12902 -0.47604,-1.43234 -0.40087,-0.30553 -1.6035,-0.0947 l -2.34261,0.41075 v 3.85841 l -1.17757,0.20648 z m 1.17757,0.79571 v 3.11931 l 2.21735,-0.38879 q 0.41339,-0.0725 0.689,-0.14591 0.28812,-0.0756 0.62636,-0.22262 0.33824,-0.14701 0.53867,-0.345 0.21297,-0.20019 0.35077,-0.52501 0.1378,-0.32482 0.1378,-0.75076 0,-0.90195 -0.5512,-1.1185 -0.53867,-0.23125 -1.47822,-0.0665 z m 12.74028,3.64144 q -0.48856,2.34058 -2.81864,2.74914 -1.42812,0.2504 -2.24239,-0.49626 -0.80175,-0.74886 -0.80175,-2.3273 0,-1.56593 0.82681,-2.6755 0.83933,-1.1243 2.17975,-1.35933 1.49075,-0.26139 2.20481,0.62812 0.72658,0.87478 0.72658,2.41564 v 0.15033 l -4.8606,0.85227 -0.0125,0.0774 q 0,1.02724 0.53867,1.52157 0.53868,0.49433 1.47823,0.32959 0.70152,-0.123 1.1024,-0.51901 0.41341,-0.39819 0.6389,-1.16432 z m -1.02724,-1.58625 q -0.0752,-0.91382 -0.56373,-1.34179 -0.48856,-0.44049 -1.29031,-0.29991 -0.77669,0.13619 -1.29032,0.7524 -0.51361,0.6162 -0.61383,1.54827 z m 3.23207,-3.2225 v 0.91449 q 0.70152,-1.23793 2.17975,-1.49712 1.35295,-0.23723 2.14217,0.53888 0.80175,0.77391 0.80175,2.33983 0,1.56592 -0.78922,2.64384 -0.77669,1.06322 -2.10459,1.29605 -1.39054,0.24382 -2.16722,-0.68481 v 3.3949 l -1.06483,0.1867 v -8.95704 z m 2.01689,0.33536 q -0.92701,0.16254 -1.46569,0.93347 -0.52615,0.75621 -0.52615,1.93378 0,1.17757 0.53868,1.75958 0.55119,0.56731 1.49075,0.40257 0.91449,-0.16035 1.44064,-0.92909 0.52615,-0.76872 0.52615,-1.93376 0,-1.17757 -0.53868,-1.74707 -0.52614,-0.58423 -1.4657,-0.41948 z m 5.53708,-4.11524 v 8.91946 l -1.07734,0.1889 v -8.91946 z m 2.78108,-0.48763 v 1.30285 l -1.07736,0.1889 v -1.30285 z m 0,2.45536 v 6.4641 l -1.07736,0.1889 v -6.4641 z m 7.21574,2.84374 q -0.13781,1.18922 -0.88944,2.01001 -0.73912,0.8186 -1.92921,1.02727 -1.4657,0.25699 -2.26745,-0.50439 -0.80175,-0.77391 -0.80175,-2.28972 0,-1.61603 0.83933,-2.70275 0.83933,-1.09925 2.26745,-1.34965 1.1901,-0.20868 1.90416,0.26743 0.71406,0.46359 0.83932,1.54403 l -1.1024,0.1933 q -0.28813,-1.35254 -1.62855,-1.11751 -0.92702,0.16254 -1.4657,0.946 -0.53868,0.77093 -0.53868,1.93596 0,1.17757 0.51363,1.76399 0.51361,0.58641 1.41558,0.42826 0.72659,-0.1274 1.17757,-0.63239 0.46351,-0.50721 0.58879,-1.33093 z m 6.89003,0.29519 v 0.8268 q -0.3257,0.18238 -0.72658,0.25267 -0.91449,0.16035 -0.93955,-0.78733 -0.9145,1.18759 -2.34261,1.438 -0.95208,0.16693 -1.5158,-0.22279 -0.55121,-0.39192 -0.55121,-1.24377 0,-1.72878 2.29251,-2.41887 1.35294,-0.40009 1.56591,-0.5126 0.45099,-0.22939 0.48857,-0.71203 0.0125,-0.0774 0.0125,-0.16504 0,-1.06482 -1.4657,-0.80782 -0.75163,0.13179 -1.13998,0.51306 -0.38835,0.36875 -0.46351,1.08345 l -1.03977,0.18232 q 0.0251,-1.04416 0.73911,-1.74562 0.71406,-0.70145 1.96679,-0.92111 1.36548,-0.23942 2.02943,0.27052 0.21296,0.16309 0.31319,0.47124 0.10026,0.30812 0.1128,0.51889 0.0125,0.19824 0.0125,0.61165 0,0.48856 -0.0251,1.45757 -0.0251,0.95648 -0.0251,1.43251 0,0.35076 0.0877,0.48571 0.10026,0.12023 0.35076,0.0763 0.10026,-0.0176 0.26308,-0.0836 z m -1.71624,-2.20454 q -0.1128,0.10748 -0.23801,0.19206 -0.12529,0.0846 -0.32572,0.15737 -0.18791,0.0704 -0.26308,0.10873 -0.0626,0.0236 -0.3257,0.10721 -0.26307,0.0712 -0.27561,0.0734 -0.38834,0.11819 -0.51361,0.16525 -0.11269,0.0324 -0.45099,0.17934 -0.32571,0.14481 -0.46351,0.2817 -0.1378,0.13685 -0.27561,0.38657 -0.12527,0.23493 -0.12527,0.53559 0,0.50109 0.33824,0.7299 0.35077,0.22663 0.95208,0.1212 0.76416,-0.13399 1.36548,-0.69041 0.60131,-0.55642 0.60131,-1.17025 z m 7.5164,-2.5456 -1.06483,0.18671 q -0.10025,-1.16 -1.57843,-0.90081 -0.61384,0.10763 -0.96461,0.40714 -0.35077,0.29953 -0.35077,0.70041 0,0.1128 0.0251,0.22109 0.0251,0.0959 0.0877,0.17253 0.0752,0.062 0.12527,0.11583 0.0626,0.0516 0.18791,0.0923 0.13781,0.0259 0.20045,0.0525 0.0752,0.0243 0.25054,0.0438 0.18791,0.005 0.26307,0.0165 0.0752,-6.8e-4 0.28813,0.0121 0.2255,0.0106 0.28813,0.0121 0.46352,0.019 0.68901,0.042 0.23801,0.0209 0.63888,0.12601 0.41341,0.0904 0.62637,0.24093 0.21296,0.13805 0.37583,0.43519 0.17537,0.28243 0.17537,0.68331 0,0.93956 -0.73911,1.64541 -0.72658,0.69113 -1.94173,0.90419 -1.31537,0.23064 -2.02943,-0.22041 -0.70153,-0.45326 -0.75163,-1.53435 l 1.05228,-0.1845 q 0.0877,1.3501 1.75383,1.05796 0.71406,-0.1252 1.13998,-0.48801 0.43846,-0.37754 0.43846,-0.86611 0,-0.3257 -0.22549,-0.49914 -0.22549,-0.17343 -0.50109,-0.2128 -0.2756,-0.0519 -0.78922,-0.0871 -0.0752,6.8e-4 -0.11281,-0.005 -0.11268,-0.005 -0.48857,-0.0146 -0.36328,-0.024 -0.52614,-0.0455 -0.16286,-0.0216 -0.47604,-0.0669 -0.30065,-0.06 -0.45098,-0.14642 -0.15033,-0.0989 -0.33824,-0.24134 -0.17539,-0.15716 -0.25055,-0.382 -0.0752,-0.23735 -0.0752,-0.55054 0,-0.87691 0.66396,-1.50695 0.67648,-0.63224 1.80393,-0.82993 1.14,-0.19988 1.85404,0.21359 0.72659,0.41127 0.72659,1.40093 z m 6.99025,1.31736 q -0.48856,2.34059 -2.81864,2.74915 -1.42812,0.2504 -2.24239,-0.49626 -0.80176,-0.74886 -0.80176,-2.3273 0,-1.56593 0.82681,-2.6755 0.83933,-1.1243 2.17976,-1.35934 1.49075,-0.26138 2.20481,0.62813 0.72658,0.87478 0.72658,2.41564 v 0.15033 l -4.8606,0.85226 -0.0126,0.0774 q 0,1.02724 0.53868,1.52157 0.53868,0.49434 1.47823,0.3296 0.70152,-0.12301 1.1024,-0.51902 0.41341,-0.39819 0.63889,-1.16431 z m -1.02724,-1.58624 q -0.0752,-0.91382 -0.56373,-1.3418 -0.48856,-0.44048 -1.29031,-0.2999 -0.77669,0.13618 -1.29032,0.75239 -0.51362,0.61621 -0.61383,1.54827 z m 4.99841,-3.53221 v 0.87691 l -1.29031,0.22624 v 3.77074 q 0,0.31318 0,0.41339 0.0125,0.0981 0.0752,0.26242 0.0626,0.15188 0.21297,0.17561 0.15033,0.0237 0.42593,-0.0246 0.23801,-0.0417 0.57625,-0.13854 v 0.9145 q -0.45098,0.12917 -0.81427,0.19287 -0.45098,0.0791 -0.75164,0.0315 -0.30066,-0.0476 -0.46351,-0.14423 -0.15033,-0.0989 -0.22549,-0.39891 -0.0752,-0.31253 -0.0877,-0.5233 -0.0126,-0.22328 -0.0126,-0.73691 0,-0.11268 0,-0.17537 v -3.4325 l -1.08988,0.1911 v -0.87691 l 1.08988,-0.1911 v -1.91667 l 1.06482,-0.1867 v 1.91667 z m 4.43468,-0.31407 q 0.0375,-1.38458 0.76416,-2.26363 0.73912,-0.88125 2.05448,-1.11189 1.17757,-0.20647 1.89163,0.30723 0.71406,0.51368 0.71406,1.55346 0,0.62636 -0.32571,1.18456 -0.31318,0.54348 -0.88944,0.88254 0.75164,0.0436 1.19009,0.54298 0.43846,0.49937 0.43846,1.31365 0.0126,1.22547 -0.85186,2.1412 -0.85185,0.90102 -2.21733,1.14044 -1.35296,0.23723 -2.16723,-0.35911 -0.80175,-0.61106 -0.80175,-1.87633 v -0.16285 l 1.0523,-0.18451 q 0.0376,0.94548 0.53867,1.37125 0.5011,0.42575 1.39053,0.26979 0.85187,-0.14936 1.37801,-0.71765 0.53868,-0.58302 0.53868,-1.34718 0,-0.7767 -0.53868,-1.14576 -0.52614,-0.37125 -1.42811,-0.2131 -0.2255,0.0395 -0.57626,0.15114 v -0.90197 q 0.17538,-0.0182 0.36329,-0.0512 0.8268,-0.14497 1.30285,-0.61679 0.48856,-0.48655 0.48856,-1.16302 0,-0.65142 -0.42594,-0.97761 -0.41339,-0.32839 -1.11492,-0.20538 -0.80175,0.14058 -1.25274,0.73327 -0.45098,0.58018 -0.47604,1.52411 z"
       id="text207"
       style="font-size:10.5833px;line-height:1.25;font-family:HelveticaNeueCyr;-inkscape-font-specification:HelveticaNeueCyr;text-align:center;text-anchor:middle;white-space:pre;inline-size:63.8786;stroke-width:0.313184"
       aria-label="Replicaset 3" />
    <g
       id="g130"
       transform="matrix(1.1836881,0,0,1.1836881,-84.693194,814.63905)">
      <g
         id="g184"
         transform="translate(-680.37709,-543.46073)"
         style="opacity:0.906329">
        <path
           id="path178"
           style="fill:#ffffff;fill-opacity:0.86519;stroke:#000000;stroke-width:0.264999"
           d="m 1336.4805,-62.861042 c -16.6415,-1e-5 -30.1321,4.8473 -30.132,10.82673 0.01,0.04 0.013,0.0799 0.02,0.11989 V 16.68397 c -0.01,0.03995 -0.014,0.07991 -0.02,0.11989 0.01,0.03998 0.013,0.07994 0.02,0.11989 v 0.0961 h 0.016 c 0.327,5.889861 13.7004,10.604839 30.0959,10.61072 16.4046,-0.0013 29.792,-4.717626 30.1191,-10.61073 h 0.017 v -69.138382 h -0.01 c -0.1286,-5.94585 -13.5787,-10.74176 -30.1273,-10.7425 z"
           sodipodi:nodetypes="ccccccccccccccc" />
        <path
           id="ellipse178"
           style="fill:url(#radialGradient9862);stroke:#000000;stroke-width:0.264999"
           d="m 1366.6133,16.80393 a 30.131971,10.826639 0 0 1 -30.132,10.826639 30.131971,10.826639 0 0 1 -30.1319,-10.826639 30.131971,10.826639 0 0 1 30.1319,-10.8266389 30.131971,10.826639 0 0 1 30.132,10.8266389 z" />
        <g
           id="g180"
           transform="translate(1197.2011,-36.016722)">
          <path
             id="path179"
             style="fill:#7f7f7f;fill-opacity:0.86519;stroke:#000000;stroke-width:0.264999"
             d="m 139.45449,28.279605 c -11.04678,0.0033 -21.20295,2.178235 -26.46661,5.667871 h -3.69486 v 4.855518 c 0,0 0.003,-0.155984 2.3e-4,-0.005 -1.4e-4,5.97943 13.51929,11.135154 30.16084,11.135144 16.64154,8e-6 30.16241,-5.115362 30.16227,-11.094791 0.002,-0.03197 -0.004,-0.0032 -8.6e-4,-0.02087 v -4.86993 h -3.67574 c -5.26693,-3.491843 -15.43209,-5.66716 -26.48572,-5.667915 z"
             sodipodi:nodetypes="cccccscccccc" />
          <path
             d="M 139.45455,23.114179 A 30.131971,10.826639 0 0 0 109.32253,33.940908 30.131971,10.826639 0 0 0 139.45455,44.767639 30.131971,10.826639 0 0 0 169.58657,33.940908 30.131971,10.826639 0 0 0 139.45455,23.114179 Z"
             style="fill:#aaaaaa;fill-opacity:1;stroke:#000000;stroke-width:0.264999"
             id="path180" />
        </g>
        <path
           d="m 1336.4813,-62.861042 a 30.131971,10.826639 0 0 0 -30.132,10.82673 30.131971,10.826639 0 0 0 30.132,10.82673 30.131971,10.826639 0 0 0 30.132,-10.82673 30.131971,10.826639 0 0 0 -30.132,-10.82673 z"
           style="fill:#ffffff;fill-opacity:0.804107;stroke:#000000;stroke-width:0.264999"
           id="path181" />
        <path
           id="path182"
           style="fill:url(#radialGradient5037);fill-opacity:1;stroke:#000000;stroke-width:0.264999"
           d="m 1336.4811,-75.016392 c -11.0468,0.003 -21.203,2.17823 -26.4666,5.66787 h -3.6949 v 18.45125 c 0,0 0,-0.15598 3e-4,-0.005 -2e-4,5.97943 13.5192,11.13516 30.1608,11.13515 16.6415,1e-5 30.1624,-5.11536 30.1622,-11.09479 0,-0.032 0,-0.003 -8e-4,-0.0209 v -18.46567 h -3.6758 c -5.2669,-3.49184 -15.432,-5.66716 -26.4857,-5.66791 z"
           sodipodi:nodetypes="cccccscccccc" />
        <path
           id="path183"
           style="fill:url(#linearGradient9194);fill-opacity:1;stroke:#000000;stroke-width:0.262895"
           d="m 1336.4839,-75.052623 c -11.0464,0.003 -21.2022,2.14208 -26.4657,5.576202 h -3.6955 v 18.101052 c 0,-0.01978 -2e-4,-0.02047 0,0.05383 v 0.0059 c 2e-4,0.159472 0.015,0.318491 0.035,0.476693 -4e-4,0.02313 -0.01,0.04606 -0.01,0.06919 0.01,0.03937 0.013,0.07785 0.02,0.117251 v 67.510378 c -0.01,0.03937 -0.014,0.07981 -0.02,0.119174 0.01,0.03937 0.013,0.0779 0.02,0.117252 v 0.09418 h 0.016 c 0.327,5.796504 13.7006,10.437348 30.0967,10.443135 16.4052,-9.84e-4 29.7931,-4.643443 30.1203,-10.443135 h 0.018 v -68.040888 h -0.01 c 0.016,-0.14283 0.031,-0.284734 0.031,-0.428647 0,-0.03149 8e-4,-0.0039 0,-0.02116 v -18.174096 h -3.676 c -5.2667,-3.436287 -15.4319,-5.575218 -26.4852,-5.576202 z" />
        <path
           d="m 1336.4811,-80.861032 a 30.131971,10.826639 0 0 0 -30.132,10.82673 30.131971,10.826639 0 0 0 30.132,10.82673 30.131971,10.826639 0 0 0 30.1321,-10.82673 30.131971,10.826639 0 0 0 -30.1321,-10.82673 z"
           style="fill:url(#radialGradient1154);fill-opacity:1;stroke:#000000;stroke-width:0.264999"
           id="path184" />
      </g>
    </g>
    <path
       style="fill:none;stroke:#000000;stroke-width:0.550415;stroke-linecap:butt;stroke-linejoin:miter;stroke-miterlimit:4;stroke-dasharray:none;stroke-opacity:1;marker-end:url(#ConcaveTriangle-7)"
       d="m 515.76238,204.23119 c 41.6376,4.35227 106.60943,7.45068 139.05708,-3.81262"
       id="path215"
       sodipodi:nodetypes="cc" />
    <path
       style="font-size:12px;line-height:1.25;font-family:HelveticaNeueCyr;-inkscape-font-specification:HelveticaNeueCyr;text-align:center;text-anchor:middle;stroke-width:0.222829;opacity:0.55"
       d="m 572.24129,198.1202 -0.0381,1.24939 q -0.12734,-0.0181 -0.31191,-0.0238 -0.58211,-0.0178 -1.01368,0.15379 -0.43112,0.15736 -0.69536,0.4335 -0.25003,0.27658 -0.41921,0.69774 -0.16919,0.42115 -0.23899,0.84535 -0.0556,0.42463 -0.0721,0.96414 l -0.0946,3.09508 -1.20679,-0.0368 0.22377,-7.32598 1.15,0.0352 -0.0482,1.57594 q 0.77742,-1.72419 2.76508,-1.66347 z m 6.73464,5.33001 q -0.60657,2.54479 -3.24801,2.49031 -1.61894,-0.0334 -2.52122,-1.06073 -0.88808,-1.02702 -0.85118,-2.81638 0.0366,-1.77515 0.99647,-2.84932 0.97433,-1.08807 2.49385,-1.05672 1.68995,0.0349 2.4757,1.20186 0.80023,1.15307 0.76421,2.89983 l -0.004,0.17042 -5.51008,-0.11364 -0.016,0.0849 q -0.024,1.1645 0.57287,1.84456 0.59688,0.68005 1.66198,0.70202 0.79526,0.0164 1.25732,-0.34345 0.47626,-0.35957 0.74886,-1.17797 z m -1.12319,-2.0264 q -0.0636,-1.05265 -0.60538,-1.64632 -0.54155,-0.60788 -1.45042,-0.62663 -0.88048,-0.0181 -1.47503,0.56629 -0.59455,0.58443 -0.72955,1.61879 z m 3.62228,-2.96137 -0.007,1.03689 q 0.80348,-1.25909 2.47954,-1.24843 1.53403,0.009 2.42228,1.05236 0.90245,1.04268 0.89114,2.81817 -0.0118,1.7755 -0.91293,2.8351 -0.88734,1.04549 -2.39297,1.03591 -1.57664,-0.009 -2.4496,-1.22299 l -0.0245,3.84927 -1.20732,-0.007 0.0646,-10.15584 z m 2.28187,0.79577 q -1.0511,-0.007 -1.66675,0.75644 -0.60136,0.74901 -0.60986,2.08419 -0.008,1.33516 0.59738,2.10607 0.62018,0.75678 1.68548,0.76358 1.03689,0.007 1.63834,-0.75662 0.60145,-0.76321 0.60986,-2.08419 0.008,-1.33517 -0.59748,-2.09187 -0.59168,-0.77082 -1.65697,-0.7776 z m 6.18836,-3.5638 0.0487,10.11331 -1.22156,0.006 -0.0486,-10.11331 z m 3.0874,-0.0289 0.0168,1.47715 -1.22149,0.0138 -0.0168,-1.47714 z m 0.0316,2.78385 0.0832,7.32893 -1.2215,0.0138 -0.0832,-7.32893 z m 8.20027,4.49378 q -0.1253,1.3243 -0.95906,2.12524 -0.81955,0.80062 -2.16858,0.83218 -1.66144,0.0388 -2.59419,-0.96229 -0.93307,-1.01537 -0.97326,-2.73362 -0.0429,-1.83184 0.88365,-2.91913 0.92617,-1.10148 2.54502,-1.13936 1.34904,-0.0316 2.1744,0.63113 0.82504,0.64849 0.99628,1.89479 l -1.24964,0.0292 q -0.36381,-1.58281 -1.88326,-1.54726 -1.05081,0.0246 -1.64317,0.81988 -0.59267,0.78111 -0.56178,2.10175 0.0312,1.33483 0.63138,2.08803 0.60016,0.7532 1.62258,0.72929 0.82362,-0.0193 1.32354,-0.51404 0.51412,-0.4951 0.63487,-1.40725 z m 7.82776,1.38416 0.0397,0.93664 q -0.36297,0.15755 -0.8171,0.17679 -1.03598,0.0439 -1.11007,-1.03344 -0.98667,1.20761 -2.6045,1.27617 -1.07855,0.0457 -1.74062,-0.48069 -0.64789,-0.52701 -0.68879,-1.49203 -0.083,-1.95844 2.50022,-2.3949 1.52486,-0.24945 1.76251,-0.34482 0.50369,-0.19194 0.52341,-0.73303 0.0106,-0.0857 0.006,-0.1851 -0.0511,-1.20627 -1.71153,-1.1359 -0.85149,0.0361 -1.27639,0.40951 -0.4255,0.35925 -0.47697,1.15758 l -1.1779,0.0499 q -0.0215,-1.17911 0.75972,-1.86619 0.78124,-0.6871 2.2004,-0.74724 1.54687,-0.0656 2.3291,0.61214 0.25088,0.21684 0.38005,0.581 0.12917,0.36418 0.15358,0.60483 0.0238,0.22647 0.0437,0.69478 0.0234,0.55347 0.0414,1.64742 0.0173,1.07976 0.0402,1.61904 0.0168,0.39736 0.1234,0.56345 0.12015,0.1513 0.40397,0.13927 0.11352,-0.005 0.29622,-0.0552 z m -2.06452,-2.75591 q -0.12352,0.10475 -0.26242,0.18173 -0.13891,0.0769 -0.36418,0.12916 -0.21106,0.0516 -0.29501,0.0836 -0.0703,0.0172 -0.36658,0.0724 -0.29682,0.041 -0.31101,0.0417 -0.43753,0.0754 -0.57824,0.10985 -0.12712,0.0197 -0.50608,0.13519 -0.36477,0.11493 -0.51547,0.2493 -0.15068,0.13435 -0.29597,0.39641 -0.13168,0.24727 -0.1173,0.58787 0.024,0.56766 0.42106,0.87782 0.4112,0.30957 1.09239,0.2807 0.86568,-0.0367 1.52522,-0.57646 0.65955,-0.53976 0.63007,-1.23514 z m 5.93862,-3.85737 0.0591,0.99255 -1.46045,0.0869 0.25384,4.26793 q 0.0211,0.35448 0.0278,0.46791 0.0209,0.11257 0.10357,0.30688 0.0819,0.18013 0.25538,0.22672 0.17352,0.0466 0.48547,0.0281 0.26941,-0.016 0.64971,-0.0813 l 0.0616,1.03509 q -0.50708,0.0871 -0.91829,0.1115 -0.51045,0.0304 -0.8575,-0.0628 -0.34704,-0.0932 -0.5398,-0.22403 -0.17859,-0.13167 -0.28474,-0.48108 -0.10701,-0.36361 -0.13552,-0.6038 -0.0294,-0.25439 -0.0639,-0.83573 -0.007,-0.12762 -0.0118,-0.19852 l -0.23108,-3.8851 -1.23358,0.0734 -0.0591,-0.99255 1.23359,-0.0734 -0.12903,-2.16941 1.20524,-0.0717 0.12902,2.16941 z m 2.32214,-2.956 0.10535,1.47348 -1.21846,0.0871 -0.10535,-1.47348 z m 0.19849,2.77694 0.52257,7.31075 -1.21845,0.0871 -0.52257,-7.31075 z m 2.37904,0.66872 q 0.86592,-1.13489 2.52088,-1.28658 1.65497,-0.15169 2.66644,0.76834 1.01146,0.92003 1.17741,2.73057 0.16984,1.853 -0.65494,2.96985 -0.82479,1.11686 -2.49389,1.26984 -1.66911,0.15298 -2.71016,-0.77859 -1.04106,-0.93158 -1.20701,-2.74214 -0.16465,-1.79641 0.70127,-2.93129 z m 4.32505,0.3453 q -0.67954,-0.72222 -1.74041,-0.62498 -1.06087,0.0972 -1.61195,0.93224 -0.55107,0.83503 -0.4318,2.13636 0.12317,1.34377 0.80141,2.05185 0.69109,0.69264 1.7944,0.59152 1.06088,-0.0973 1.58496,-0.91552 0.53822,-0.81958 0.41506,-2.16335 -0.11928,-1.30134 -0.81167,-2.00812 z m 4.01971,-2.01144 0.14176,1.12746 q 0.7354,-1.43816 2.31386,-1.63662 1.28249,-0.16126 1.93127,0.44434 0.66111,0.58974 0.82413,1.88633 l 0.60778,4.83399 -1.19793,0.15063 -0.53867,-4.28438 q -0.0674,-0.53554 -0.14683,-0.82619 -0.0671,-0.3065 -0.25063,-0.62702 -0.18524,-0.33462 -0.54296,-0.44711 -0.35773,-0.11245 -0.89328,-0.0452 -2.07172,0.26047 -1.74213,2.88183 l 0.47843,3.80519 -1.19794,0.15061 -0.91432,-7.27214 z"
       id="text216"
       aria-label="             replication" />
    <path
       style="fill:none;stroke:#000000;stroke-width:0.550415;stroke-linecap:butt;stroke-linejoin:miter;stroke-miterlimit:4;stroke-dasharray:none;stroke-opacity:1;marker-end:url(#ConcaveTriangle-7)"
       d="m 342.44311,14.036579 c 41.6376,4.352267 106.60944,7.450677 139.05709,-3.812624"
       id="path216"
       sodipodi:nodetypes="cc" />
    <path
       style="font-size:12px;line-height:1.25;font-family:HelveticaNeueCyr;-inkscape-font-specification:HelveticaNeueCyr;text-align:center;text-anchor:middle;stroke-width:0.222829;opacity:0.55"
       d="m 398.92202,7.925585 -0.0381,1.249395 q -0.12734,-0.01811 -0.31191,-0.02379 -0.5821,-0.01776 -1.01367,0.153784 -0.43113,0.15736 -0.69536,0.433502 -0.25003,0.276581 -0.41922,0.697737 -0.16918,0.421156 -0.23898,0.845355 -0.0556,0.424624 -0.0721,0.964137 l -0.0946,3.095084 -1.20679,-0.03681 0.22378,-7.325976 1.15,0.03515 -0.0482,1.575939 q 0.77742,-1.724184 2.76508,-1.663472 z m 6.73464,5.330006 q -0.60657,2.544799 -3.248,2.490314 -1.61895,-0.03338 -2.52122,-1.060727 -0.88809,-1.027027 -0.85118,-2.816385 0.0366,-1.775153 0.99646,-2.849314 0.97433,-1.08807 2.49385,-1.056726 1.68996,0.03492 2.4757,1.201858 0.80023,1.153078 0.76421,2.899834 l -0.004,0.170416 -5.51008,-0.113634 -0.016,0.08487 q -0.024,1.164501 0.57287,1.844553 0.59689,0.680053 1.66198,0.702022 0.79526,0.01645 1.25733,-0.343447 0.47625,-0.359569 0.74886,-1.177971 z m -1.12319,-2.026392 q -0.0636,-1.052653 -0.60537,-1.64632 -0.54155,-0.607883 -1.45042,-0.626633 -0.88049,-0.01811 -1.47503,0.566288 -0.59456,0.584434 -0.72956,1.618788 z m 3.62229,-2.961374 -0.007,1.036887 q 0.80348,-1.259089 2.47955,-1.248424 1.53402,0.0095 2.42227,1.052358 0.90246,1.042675 0.89114,2.818172 -0.0118,1.775496 -0.91293,2.835098 -0.88734,1.045493 -2.39297,1.035905 -1.57663,-0.0095 -2.44959,-1.222986 l -0.0245,3.84927 -1.20733,-0.0071 0.0646,-10.155842 z m 2.28186,0.79577 q -1.0511,-0.0071 -1.66675,0.756436 -0.60136,0.749014 -0.60986,2.08419 -0.008,1.335165 0.59739,2.106077 0.62018,0.756779 1.68547,0.763574 1.03689,0.0071 1.63835,-0.756614 0.60144,-0.763218 0.60986,-2.08419 0.008,-1.335177 -0.59748,-2.091873 -0.59168,-0.770818 -1.65698,-0.7776 z m 6.18836,-3.563801 0.0486,10.113313 -1.22155,0.0059 -0.0487,-10.113313 z m 3.0874,-0.02888 0.0168,1.477148 -1.22148,0.01385 -0.0168,-1.477148 z m 0.0316,2.783857 0.0832,7.328923 -1.2215,0.01385 -0.0832,-7.328923 z m 8.20027,4.493777 q -0.12531,1.324298 -0.95906,2.125241 -0.81955,0.800623 -2.16859,0.83218 -1.66144,0.03882 -2.59418,-0.962291 -0.93308,-1.015368 -0.97327,-2.733621 -0.0428,-1.83184 0.88365,-2.919129 0.92618,-1.101481 2.54503,-1.139359 1.34903,-0.0316 2.17439,0.631131 0.82505,0.648483 0.99628,1.894788 l -1.24963,0.02924 q -0.36382,-1.582804 -1.88326,-1.547258 -1.05082,0.02462 -1.64317,0.819881 -0.59268,0.781104 -0.56178,2.101745 0.0312,1.334833 0.63138,2.088038 0.60015,0.753192 1.62257,0.729282 0.82363,-0.01929 1.32354,-0.514041 0.51413,-0.495101 0.63487,-1.407251 z m 7.82775,1.384157 0.0396,0.936641 q -0.36296,0.157549 -0.8171,0.176796 -1.03597,0.04391 -1.11007,-1.033443 -0.98666,1.20761 -2.60449,1.27617 -1.07856,0.04569 -1.74063,-0.480696 -0.64789,-0.527002 -0.68879,-1.492027 -0.083,-1.958436 2.50023,-2.394897 1.52486,-0.24945 1.76251,-0.34482 0.50368,-0.191947 0.5234,-0.733034 0.0106,-0.0857 0.006,-0.185094 -0.0511,-1.206273 -1.71153,-1.135902 -0.8515,0.0361 -1.2764,0.409508 -0.4255,0.35925 -0.47696,1.157576 l -1.1779,0.04995 q -0.0215,-1.179107 0.75971,-1.866191 0.78125,-0.687095 2.20041,-0.747238 1.54686,-0.06558 2.32909,0.612144 0.25089,0.21684 0.38005,0.581001 0.12918,0.364174 0.15358,0.604829 0.0238,0.226464 0.0437,0.694778 0.0234,0.553469 0.0414,1.647421 0.0173,1.079761 0.0403,1.619037 0.0168,0.397364 0.12339,0.563448 0.12015,0.151299 0.40397,0.139272 0.11352,-0.0047 0.29622,-0.05516 z m -2.06452,-2.75591 q -0.12351,0.104757 -0.26242,0.181732 -0.13891,0.07694 -0.36417,0.129164 -0.21107,0.05161 -0.29501,0.08357 -0.0703,0.01716 -0.36658,0.07244 -0.29682,0.04096 -0.31102,0.04167 -0.43752,0.0754 -0.57824,0.109846 -0.12711,0.01965 -0.50607,0.135189 -0.36478,0.114936 -0.51548,0.249309 -0.15068,0.134348 -0.29596,0.396405 -0.13169,0.247272 -0.11731,0.587867 0.024,0.567661 0.42106,0.877823 0.4112,0.30957 1.09239,0.2807 0.86568,-0.0367 1.52522,-0.576456 0.65955,-0.539762 0.63008,-1.235143 z m 5.93863,-3.857367 0.0591,0.992546 -1.46044,0.08688 0.25384,4.26793 q 0.0211,0.354479 0.0278,0.467911 0.0209,0.112569 0.10358,0.306883 0.0819,0.180122 0.25538,0.226712 0.17351,0.04664 0.48546,0.02805 0.26941,-0.01598 0.64972,-0.08132 l 0.0616,1.035088 q -0.50708,0.08712 -0.91828,0.111504 -0.51046,0.03042 -0.8575,-0.06285 -0.34705,-0.09316 -0.53981,-0.224025 -0.17858,-0.131674 -0.28474,-0.481086 -0.107,-0.363606 -0.13552,-0.6038 -0.0294,-0.254386 -0.0639,-0.835731 -0.007,-0.127613 -0.0118,-0.198516 l -0.23108,-3.885101 -1.23358,0.07339 -0.0591,-0.992546 1.23359,-0.07339 -0.12903,-2.169417 1.20524,-0.07173 0.12902,2.169416 z m 2.32213,-2.956 0.10535,1.473478 -1.21845,0.08712 -0.10535,-1.473479 z m 0.19849,2.776944 0.52258,7.310741 -1.21845,0.08712 -0.52258,-7.310742 z m 2.37904,0.668713 q 0.86593,-1.134885 2.52089,-1.286575 1.65496,-0.151689 2.66643,0.768332 1.01146,0.920034 1.17742,2.730579 0.16983,1.852993 -0.65495,2.96985 -0.82478,1.116857 -2.49389,1.269837 -1.6691,0.15298 -2.71016,-0.778595 -1.04105,-0.931574 -1.20701,-2.742131 -0.16465,-1.796413 0.70127,-2.931297 z m 4.32505,0.345305 q -0.67954,-0.722227 -1.74041,-0.624987 -1.06087,0.09718 -1.61195,0.932249 -0.55106,0.835021 -0.43179,2.136356 0.12316,1.34377 0.8014,2.051852 0.6911,0.692635 1.7944,0.591512 1.06088,-0.0973 1.58496,-0.915511 0.53822,-0.819586 0.41506,-2.163356 -0.11928,-1.301335 -0.81167,-2.008115 z m 4.01971,-2.011441 0.14176,1.127463 q 0.7354,-1.438169 2.31386,-1.636627 1.28249,-0.161253 1.93127,0.444345 0.66112,0.589737 0.82413,1.886325 l 0.60778,4.833993 -1.19793,0.150624 -0.53867,-4.28437 q -0.0674,-0.535548 -0.14682,-0.826191 -0.0671,-0.306504 -0.25064,-0.627023 -0.18523,-0.334617 -0.54296,-0.447115 -0.35773,-0.11245 -0.89328,-0.04522 -2.07171,0.260471 -1.74213,2.881831 l 0.47844,3.80519 -1.19794,0.150613 -0.91433,-7.272142 z"
       id="text217"
       aria-label="             replication" />
    <g
       id="g128"
       transform="matrix(1.1836881,0,0,1.1836881,9.4902047,35.488772)">
      <path
         id="path47"
         style="fill:#ffffff;fill-opacity:0.86519;stroke:#000000;stroke-width:0.264999"
         d="m 283.56008,-108.38271 c -16.6415,-1e-5 -30.13214,4.8473 -30.13204,10.826728 0.01,0.04 0.013,0.0799 0.02,0.11989 v 68.5984 c -0.01,0.0399 -0.014,0.0799 -0.02,0.11989 0.01,0.04 0.013,0.0799 0.02,0.11989 v 0.0961 h 0.016 c 0.327,5.88986 13.70044,10.60484 30.09594,10.61072 16.4046,-0.001 29.792,-4.71763 30.1191,-10.61073 h 0.017 v -69.13839 h -0.01 c -0.1286,-5.945848 -13.5787,-10.741758 -30.1273,-10.742498 z"
         sodipodi:nodetypes="ccccccccccccccc" />
      <path
         id="ellipse14"
         style="fill:url(#radialGradient140);stroke:#000000;stroke-width:0.264999"
         d="m 313.69273,-28.717733 a 30.131971,10.826639 0 0 1 -30.13197,10.826639 30.131971,10.826639 0 0 1 -30.13197,-10.826639 30.131971,10.826639 0 0 1 30.13197,-10.82664 30.131971,10.826639 0 0 1 30.13197,10.82664 z" />
      <path
         d="m 283.56088,-108.38271 a 30.131971,10.826639 0 0 0 -30.13204,10.826728 30.131971,10.826639 0 0 0 30.13204,10.82673 30.131971,10.826639 0 0 0 30.132,-10.82673 30.131971,10.826639 0 0 0 -30.132,-10.826728 z"
         style="fill:#ffffff;fill-opacity:0.804107;stroke:#000000;stroke-width:0.264999"
         id="path58" />
      <g
         id="g112"
         transform="translate(92.887245,-57.727272)">
        <path
           id="path111"
           style="fill:#ed453a;fill-opacity:1;stroke:#000000;stroke-width:0.264999"
           d="m 190.69981,-24.001879 c -11.04678,0.0033 -21.20295,2.178235 -26.46661,5.667871 h -3.69486 v 4.855518 c 0,0 0.003,-0.155984 2.3e-4,-0.005 -1.4e-4,5.97943 13.51929,11.135154 30.16084,11.135144 16.64154,8e-6 30.16241,-5.115362 30.16227,-11.094791 0.002,-0.03197 -0.004,-0.0032 -8.6e-4,-0.02087 v -4.86993 h -3.67574 c -5.26693,-3.491843 -15.43209,-5.66716 -26.48572,-5.667915 z"
           sodipodi:nodetypes="cccccscccccc" />
        <path
           d="m 190.69987,-29.167305 a 30.131971,10.826639 0 0 0 -30.13202,10.826729 30.131971,10.826639 0 0 0 30.13202,10.826731 30.131971,10.826639 0 0 0 30.13202,-10.826731 30.131971,10.826639 0 0 0 -30.13202,-10.826729 z"
           style="fill:#e45c52;fill-opacity:1;stroke:#000000;stroke-width:0.264999"
           id="path112" />
      </g>
      <path
         id="path113"
         style="fill:url(#radialGradient114);fill-opacity:1;stroke:#000000;stroke-width:0.264999"
         d="m 283.58708,-121.73882 c -11.0468,0.003 -21.203,2.17823 -26.4666,5.66787 h -3.6949 v 18.451248 c 0,0 0,-0.15598 3e-4,-0.005 -2e-4,5.97943 13.5192,11.13516 30.1608,11.13515 16.6415,1e-5 30.1624,-5.11536 30.1622,-11.09479 0,-0.032 0,-0.003 -8e-4,-0.0209 v -18.465668 h -3.6758 c -5.2669,-3.49184 -15.432,-5.66716 -26.4857,-5.66791 z"
         sodipodi:nodetypes="cccccscccccc" />
      <path
         id="path133"
         style="fill:url(#linearGradient134);fill-opacity:1;stroke:none;stroke-width:0.264477"
         d="m 283.41002,-123.01374 c -11.0302,0.003 -21.17112,2.17113 -26.42686,5.65184 h -3.68999 v 18.346578 c 0,-0.02 -2e-4,-0.0207 0,0.0546 v 0.006 c 2e-4,0.16163 0.015,0.32281 0.035,0.48316 -4e-4,0.0234 -0.01,0.0467 -0.01,0.0701 0.01,0.0399 0.013,0.0789 0.02,0.11884 v 68.42611 c -0.01,0.0399 -0.014,0.0809 -0.02,0.12079 0.01,0.0399 0.013,0.079 0.02,0.11884 v 0.0955 h 0.016 c 0.32653,5.87513 13.68055,10.57893 30.05255,10.58479 16.381,-9.9e-4 29.7493,-4.70642 30.0759,-10.58479 h 0.018 v -68.96381 h -0.01 c 0.016,-0.14477 0.031,-0.2886 0.031,-0.43446 0,-0.0319 8e-4,-0.004 0,-0.0215 v -18.420608 h -3.6706 c -5.2589,-3.4829 -15.4092,-5.65085 -26.4462,-5.65184 z" />
      <path
         d="m 283.58708,-127.58347 a 30.131971,10.826639 0 0 0 -30.132,10.82673 30.131971,10.826639 0 0 0 30.132,10.82673 30.131971,10.826639 0 0 0 30.1321,-10.82673 30.131971,10.826639 0 0 0 -30.1321,-10.82673 z"
         style="fill:url(#radialGradient115);fill-opacity:1;stroke:#000000;stroke-width:0.264999"
         id="path114" />
    </g>
    <g
       id="g131"
       transform="matrix(1.1836881,0,0,1.1836881,200.06387,368.81135)">
      <path
         id="path59"
         style="fill:#ffffff;fill-opacity:0.86519;stroke:#000000;stroke-width:0.264999"
         d="m 419.94169,-390.88494 c -16.6415,-1e-5 -30.1321,4.8473 -30.132,10.82673 0.01,0.04 0.013,0.0799 0.02,0.11989 v 68.59839 c -0.01,0.04 -0.014,0.0799 -0.02,0.11989 0.01,0.04 0.013,0.0799 0.02,0.11989 v 0.0961 h 0.016 c 0.327,5.88986 13.7004,10.60484 30.0959,10.61072 16.4046,-0.001 29.792,-4.71763 30.1191,-10.61073 h 0.017 v -69.13838 h -0.01 c -0.1286,-5.94585 -13.5787,-10.74176 -30.1273,-10.7425 z"
         sodipodi:nodetypes="ccccccccccccccc" />
      <path
         d="m 419.94249,-390.88494 a 30.131971,10.826639 0 0 0 -30.132,10.82673 30.131971,10.826639 0 0 0 30.132,10.82673 30.131971,10.826639 0 0 0 30.132,-10.82673 30.131971,10.826639 0 0 0 -30.132,-10.82673 z"
         style="fill:#ffffff;fill-opacity:0.804107;stroke:#000000;stroke-width:0.264999"
         id="path70" />
      <path
         id="ellipse140"
         style="fill:url(#radialGradient141);stroke:#000000;stroke-width:0.264999"
         d="m 450.07445,-311.21997 a 30.131971,10.826639 0 0 1 -30.13198,10.82664 30.131971,10.826639 0 0 1 -30.13197,-10.82664 30.131971,10.826639 0 0 1 30.13197,-10.82664 30.131971,10.826639 0 0 1 30.13198,10.82664 z" />
      <path
         id="path119"
         style="fill:url(#radialGradient120);fill-opacity:1;stroke:#000000;stroke-width:0.264999"
         d="m 419.96873,-403.7091 c -11.0468,0.003 -21.203,2.17823 -26.4666,5.66787 h -3.6949 v 18.45125 c 0,0 0,-0.15598 3e-4,-0.005 -2e-4,5.97943 13.5192,11.13516 30.1608,11.13515 16.6415,1e-5 30.1624,-5.11536 30.1622,-11.09479 0,-0.032 0,-0.003 -8e-4,-0.0209 v -18.46567 h -3.6758 c -5.2669,-3.49184 -15.432,-5.66716 -26.4857,-5.66791 z"
         sodipodi:nodetypes="cccccscccccc" />
      <g
         id="g122"
         transform="translate(229.10476,-475.31858)">
        <path
           id="path121"
           style="fill:#47817f;fill-opacity:1;stroke:#000000;stroke-width:0.264999"
           d="m 190.86394,125.62541 c -11.04678,0.003 -21.20295,2.17823 -26.46661,5.66787 h -3.69486 v 4.85552 c 0,0 0.003,-0.15599 2.3e-4,-0.005 -1.4e-4,5.97943 13.51929,11.13515 30.16084,11.13514 16.64154,1e-5 30.16241,-5.11536 30.16227,-11.09479 0.002,-0.032 -0.004,-0.003 -8.6e-4,-0.0209 v -4.86993 h -3.67573 c -5.26693,-3.49184 -15.4321,-5.66716 -26.48573,-5.66791 z"
           sodipodi:nodetypes="cccccscccccc" />
        <path
           d="m 190.86401,120.45998 a 30.131971,10.826639 0 0 0 -30.13203,10.82673 30.131971,10.826639 0 0 0 30.13203,10.82673 30.131971,10.826639 0 0 0 30.13201,-10.82673 30.131971,10.826639 0 0 0 -30.13201,-10.82673 z"
           style="fill:#5b9593;fill-opacity:1;stroke:#000000;stroke-width:0.264999"
           id="path122" />
      </g>
      <path
         id="path142"
         style="fill:url(#linearGradient142);fill-opacity:1;stroke:none;stroke-width:0.263199"
         d="m 419.83582,-403.18344 c -11.0463,0.003 -21.2021,2.14705 -26.4656,5.58914 h -3.6954 v 18.14304 c 0,-0.0198 -2e-4,-0.0205 0,0.054 v 0.006 c 2e-4,0.15984 0.015,0.31923 0.035,0.4778 -4e-4,0.0232 -0.01,0.0462 -0.01,0.0694 0.01,0.0395 0.013,0.078 0.02,0.11752 v 67.66697 c -0.01,0.0395 -0.014,0.08 -0.02,0.11945 0.01,0.0395 0.013,0.0781 0.02,0.11753 v 0.0944 h 0.016 c 0.327,5.80995 13.7006,10.46156 30.0966,10.46736 16.4051,-9.9e-4 29.793,-4.65422 30.1201,-10.46736 h 0.018 v -68.19871 h -0.01 c 0.016,-0.14317 0.031,-0.2854 0.031,-0.42965 0,-0.0316 8e-4,-0.004 0,-0.0212 V -397.594 h -3.6759 c -5.2667,-3.44426 -15.4319,-5.58815 -26.4851,-5.58914 z" />
      <path
         d="m 419.96873,-409.55375 a 30.131971,10.826639 0 0 0 -30.132,10.82673 30.131971,10.826639 0 0 0 30.132,10.82673 30.131971,10.826639 0 0 0 30.1321,-10.82673 30.131971,10.826639 0 0 0 -30.1321,-10.82673 z"
         style="fill:url(#radialGradient121);fill-opacity:1;stroke:#000000;stroke-width:0.264999"
         id="path120" />
    </g>
    <path
       id="rect1"
       style="opacity:1;fill:#c5c5c5;fill-opacity:0.603922;stroke:none;stroke-width:0.89923;stroke-dasharray:none;stroke-opacity:1"
       d="m 301.59601,-147.74873 c -5.49262,0 -9.91338,4.42077 -9.91338,9.91339 v 1.80831 c 0,6.93687 -5.68844,9.91569 -11.02773,9.91569 h 25.18343 76.82644 25.18343 c -5.33929,0 -11.02771,-2.97882 -11.02771,-9.91569 v -1.80831 c 0,-5.49262 -4.42309,-9.91339 -9.91571,-9.91339 h -4.24001 -76.82644 z"
       sodipodi:nodetypes="sssccccsssccs" />
    <path
       style="font-weight:bold;font-size:13.7288px;line-height:1.25;font-family:HelveticaNeueCyr;-inkscape-font-specification:'HelveticaNeueCyr Bold';fill:#060606;stroke-width:0.406267"
       d="m 323.13389,-138.64169 h -2.40509 q -0.14625,-1.72257 -2.19383,-1.72257 -0.87753,0 -1.38131,0.35751 -0.48751,0.34126 -0.48751,0.95879 0,0.21125 0.065,0.37376 0.065,0.16251 0.24377,0.30877 0.17875,0.13 0.35751,0.2275 0.17876,0.0812 0.52002,0.19501 0.35752,0.0975 0.63378,0.17875 0.2925,0.0813 0.81253,0.21127 0.52002,0.13 0.91003,0.24375 1.70631,0.48752 2.5351,1.2188 0.84503,0.73128 0.84503,2.09634 0,0.99128 -0.40626,1.73881 -0.40627,0.73127 -1.10505,1.17004 -0.68252,0.42252 -1.51131,0.61752 -0.81253,0.21126 -1.73881,0.21126 -2.35634,0 -3.68889,-1.07254 -1.3163,-1.08879 -1.33255,-3.05512 h 2.51884 q 0.065,2.17758 2.61635,2.17758 0.99129,0 1.56007,-0.40626 0.58501,-0.42252 0.58501,-1.13754 0,-0.60128 -0.53627,-0.87754 -0.52002,-0.27626 -2.21007,-0.76377 -0.27627,-0.065 -0.42252,-0.11375 -0.58503,-0.16251 -0.81253,-0.22752 -0.22752,-0.0812 -0.73129,-0.26001 -0.48751,-0.17875 -0.71503,-0.325 -0.2275,-0.14626 -0.56876,-0.40627 -0.32501,-0.26001 -0.47127,-0.53627 -0.14626,-0.29251 -0.27626,-0.69878 -0.11375,-0.42252 -0.11375,-0.91003 0,-1.57632 1.21879,-2.51885 1.2188,-0.94254 3.23387,-0.94254 1.95008,0 3.18513,0.92629 1.23504,0.91004 1.26754,2.76261 z m 9.62037,5.5252 q -0.39002,1.3488 -1.4463,2.09634 -1.04004,0.74752 -2.48635,0.74752 -1.93382,0 -3.12012,-1.20254 -1.17004,-1.20255 -1.17004,-3.18513 0,-1.95007 1.18629,-3.21762 1.18631,-1.26754 3.02262,-1.26754 1.90132,0 3.02262,1.30004 1.12128,1.2838 1.12128,3.49388 v 0.22751 h -6.01272 q 0.0162,1.08879 0.52002,1.65757 0.52002,0.56877 1.4463,0.56877 1.2188,0 1.70632,-1.2188 z m -2.21008,-2.47009 q -0.0813,-0.82879 -0.53627,-1.3488 -0.45502,-0.53627 -1.26755,-0.53627 -0.76377,0 -1.26755,0.50376 -0.50377,0.50378 -0.60127,1.38131 z m 9.10034,-3.46138 v 2.12883 q -0.48753,-0.0975 -0.89379,-0.0975 -1.13754,0 -1.67381,0.73127 -0.53627,0.71503 -0.53627,1.93383 v 3.83515 h -2.30759 v -8.38532 h 2.19383 v 1.5438 q 0.82878,-1.73881 2.71385,-1.73881 0.16251,0 0.50378,0.0488 z m 6.09397,0.14626 h 2.29135 l -2.84386,8.38531 h -2.58385 l -2.87636,-8.38531 h 2.43759 l 1.78757,5.72022 z m 11.11543,5.78521 q -0.39001,1.3488 -1.4463,2.09634 -1.04005,0.74752 -2.48635,0.74752 -1.93382,0 -3.12012,-1.20254 -1.17004,-1.20255 -1.17004,-3.18513 0,-1.95007 1.1863,-3.21762 1.18629,-1.26754 3.02261,-1.26754 1.90133,0 3.02261,1.30004 1.1213,1.2838 1.1213,3.49388 v 0.22751 h -6.01274 q 0.0162,1.08879 0.52003,1.65757 0.52002,0.56877 1.4463,0.56877 1.2188,0 1.70631,-1.2188 z m -2.21009,-2.47009 q -0.0812,-0.82879 -0.53627,-1.3488 -0.455,-0.53627 -1.26754,-0.53627 -0.76378,0 -1.26755,0.50376 -0.50376,0.50378 -0.60128,1.38131 z m 9.10034,-3.46138 v 2.12883 q -0.48751,-0.0975 -0.89378,-0.0975 -1.13755,0 -1.67382,0.73127 -0.53627,0.71503 -0.53627,1.93383 v 3.83515 h -2.30758 v -8.38532 h 2.19383 v 1.5438 q 0.82878,-1.73881 2.71385,-1.73881 0.16251,0 0.50377,0.0488 z m 10.95292,-2.84386 v 11.37543 h -2.45384 v -7.39403 h -2.76261 v -1.70631 h 0.29252 q 2.58384,0 3.0226,-2.27509 z"
       id="text194"
       aria-label="Server 1" />
    <path
       id="path2"
       style="opacity:1;fill:#c5c5c5;fill-opacity:0.603922;stroke:none;stroke-width:0.89923;stroke-dasharray:none;stroke-opacity:1"
       d="m 648.73588,-147.74873 c -5.49262,0 -9.91338,4.42077 -9.91338,9.91339 v 1.80831 c 0,6.93687 -5.68844,9.91569 -11.02773,9.91569 h 25.18343 76.82644 25.18343 c -5.33929,0 -11.02771,-2.97882 -11.02771,-9.91569 v -1.80831 c 0,-5.49262 -4.42309,-9.91339 -9.91571,-9.91339 h -4.24001 -76.82644 z"
       sodipodi:nodetypes="sssccccsssccs" />
    <path
       style="font-weight:bold;font-size:13.7288px;line-height:1.25;font-family:HelveticaNeueCyr;-inkscape-font-specification:'HelveticaNeueCyr Bold';stroke-width:0.406267"
       d="m 669.16059,-138.64169 h -2.4051 q -0.14626,-1.72257 -2.19383,-1.72257 -0.87754,0 -1.3813,0.35751 -0.48753,0.34126 -0.48753,0.95879 0,0.21125 0.065,0.37376 0.065,0.16251 0.24375,0.30877 0.17877,0.13 0.35751,0.2275 0.17876,0.0812 0.52003,0.19501 0.35751,0.0975 0.63377,0.17875 0.29252,0.0813 0.81253,0.21127 0.52002,0.13 0.91004,0.24375 1.70632,0.48752 2.5351,1.2188 0.84502,0.73128 0.84502,2.09634 0,0.99128 -0.40626,1.73881 -0.40627,0.73127 -1.10505,1.17004 -0.68252,0.42252 -1.51129,0.61752 -0.81253,0.21126 -1.73883,0.21126 -2.35633,0 -3.68888,-1.07254 -1.31631,-1.08879 -1.33255,-3.05512 h 2.51884 q 0.065,2.17758 2.61636,2.17758 0.99128,0 1.56005,-0.40626 0.58503,-0.42252 0.58503,-1.13754 0,-0.60128 -0.53627,-0.87754 -0.52002,-0.27626 -2.21009,-0.76377 -0.27626,-0.065 -0.42252,-0.11375 -0.58503,-0.16251 -0.81253,-0.22752 -0.22751,-0.0812 -0.73127,-0.26001 -0.48753,-0.17875 -0.71503,-0.325 -0.22751,-0.14626 -0.56878,-0.40627 -0.32501,-0.26001 -0.47126,-0.53627 -0.14625,-0.29251 -0.27626,-0.69878 -0.11375,-0.42252 -0.11375,-0.91003 0,-1.57632 1.2188,-2.51885 1.21879,-0.94254 3.23388,-0.94254 1.95007,0 3.18511,0.92629 1.23505,0.91004 1.26756,2.76261 z m 9.62036,5.5252 q -0.39001,1.3488 -1.44631,2.09634 -1.04004,0.74752 -2.48634,0.74752 -1.93382,0 -3.12012,-1.20254 -1.17004,-1.20255 -1.17004,-3.18513 0,-1.95007 1.1863,-3.21762 1.18629,-1.26754 3.0226,-1.26754 1.90133,0 3.02262,1.30004 1.1213,1.2838 1.1213,3.49388 v 0.22751 h -6.01273 q 0.0162,1.08879 0.52001,1.65757 0.52003,0.56877 1.44632,0.56877 1.21879,0 1.70631,-1.2188 z m -2.21008,-2.47009 q -0.0812,-0.82879 -0.53627,-1.3488 -0.45503,-0.53627 -1.26756,-0.53627 -0.76377,0 -1.26754,0.50376 -0.50376,0.50378 -0.60127,1.38131 z m 9.10033,-3.46138 v 2.12883 q -0.48751,-0.0975 -0.89378,-0.0975 -1.13755,0 -1.67382,0.73127 -0.53626,0.71503 -0.53626,1.93383 v 3.83515 h -2.30759 v -8.38532 h 2.19383 v 1.5438 q 0.82879,-1.73881 2.71386,-1.73881 0.1625,0 0.50376,0.0488 z m 6.09398,0.14626 h 2.29134 l -2.84386,8.38531 h -2.58385 l -2.87636,-8.38531 h 2.43759 l 1.78757,5.72022 z m 11.11544,5.78521 q -0.39003,1.3488 -1.44631,2.09634 -1.04004,0.74752 -2.48634,0.74752 -1.93383,0 -3.12012,-1.20254 -1.17005,-1.20255 -1.17005,-3.18513 0,-1.95007 1.18629,-3.21762 1.1863,-1.26754 3.02262,-1.26754 1.90132,0 3.02262,1.30004 1.12129,1.2838 1.12129,3.49388 v 0.22751 h -6.01273 q 0.0162,1.08879 0.52002,1.65757 0.52002,0.56877 1.4463,0.56877 1.21879,0 1.70632,-1.2188 z m -2.21009,-2.47009 q -0.0812,-0.82879 -0.53627,-1.3488 -0.45502,-0.53627 -1.26755,-0.53627 -0.76378,0 -1.26754,0.50376 -0.50378,0.50378 -0.60128,1.38131 z m 9.10034,-3.46138 v 2.12883 q -0.48753,-0.0975 -0.89379,-0.0975 -1.13754,0 -1.67381,0.73127 -0.53627,0.71503 -0.53627,1.93383 v 3.83515 h -2.30759 v -8.38532 h 2.19384 v 1.5438 q 0.82877,-1.73881 2.71385,-1.73881 0.1625,0 0.50377,0.0488 z m 5.03769,0.87753 q 0.065,-1.77132 1.10503,-2.77885 1.04005,-1.0238 2.82761,-1.0238 1.69007,0 2.7301,0.87754 1.0563,0.86129 1.0563,2.24258 0,0.82878 -0.43877,1.44631 -0.42251,0.60127 -1.1538,0.79628 0.94254,0.22751 1.47881,0.92629 0.53627,0.68252 0.53627,1.69007 0,1.62506 -1.18629,2.66509 -1.17004,1.02379 -3.03886,1.02379 -1.93383,0 -3.07138,-1.07254 -1.13753,-1.07254 -1.13753,-2.89261 v -0.1625 h 2.22632 q 0.0162,1.05628 0.50378,1.62506 0.50377,0.55252 1.43005,0.55252 0.84504,0 1.36505,-0.47127 0.52002,-0.48752 0.52002,-1.2513 0,-0.89378 -0.58502,-1.2838 -0.56877,-0.40626 -1.47881,-0.40626 -0.34126,0 -0.56877,0.0162 v -1.62506 q 0.17876,0.0162 0.39002,0.0162 1.98257,0 1.98257,-1.43006 0,-0.65002 -0.43877,-1.04004 -0.42251,-0.39001 -1.13753,-0.39001 -0.81253,0 -1.26755,0.50377 -0.43877,0.50376 -0.45503,1.4463 z"
       id="text167"
       aria-label="Server 3" />
    <path
       id="path3"
       style="opacity:1;fill:#eaeaea;fill-opacity:0.764706;stroke:none;stroke-width:0.89923;stroke-dasharray:none;stroke-opacity:1"
       d="m 472.43056,-147.74873 c -5.49262,0 -9.91338,4.42077 -9.91338,9.91339 v 1.80831 c 0,6.93687 -5.68844,9.91569 -11.02773,9.91569 h 25.18343 76.82644 25.18343 c -5.33929,0 -11.02771,-2.97882 -11.02771,-9.91569 v -1.80831 c 0,-5.49262 -4.42309,-9.91339 -9.91571,-9.91339 h -4.24001 -76.82644 z"
       sodipodi:nodetypes="sssccccsssccs" />
    <path
       style="font-weight:bold;font-size:13.7288px;line-height:1.25;font-family:HelveticaNeueCyr;-inkscape-font-specification:'HelveticaNeueCyr Bold';stroke-width:0.406267"
       d="m 492.89589,-138.64169 h -2.40509 q -0.14625,-1.72257 -2.19383,-1.72257 -0.87754,0 -1.38131,0.35751 -0.48751,0.34126 -0.48751,0.95879 0,0.21125 0.065,0.37376 0.065,0.16251 0.24376,0.30877 0.17876,0.13 0.35752,0.2275 0.17875,0.0812 0.52002,0.19501 0.35751,0.0975 0.63377,0.17875 0.29251,0.0813 0.81253,0.21127 0.52002,0.13 0.91003,0.24375 1.70632,0.48752 2.53511,1.2188 0.84502,0.73128 0.84502,2.09634 0,0.99128 -0.40627,1.73881 -0.40626,0.73127 -1.10503,1.17004 -0.68252,0.42252 -1.51131,0.61752 -0.81253,0.21126 -1.73881,0.21126 -2.35635,0 -3.68889,-1.07254 -1.3163,-1.08879 -1.33255,-3.05512 h 2.51884 q 0.065,2.17758 2.61635,2.17758 0.99128,0 1.56005,-0.40626 0.58503,-0.42252 0.58503,-1.13754 0,-0.60128 -0.53627,-0.87754 -0.52002,-0.27626 -2.21009,-0.76377 -0.27626,-0.065 -0.42251,-0.11375 -0.58502,-0.16251 -0.81254,-0.22752 -0.2275,-0.0812 -0.73127,-0.26001 -0.48752,-0.17875 -0.71503,-0.325 -0.2275,-0.14626 -0.56877,-0.40627 -0.32501,-0.26001 -0.47126,-0.53627 -0.14626,-0.29251 -0.27626,-0.69878 -0.11376,-0.42252 -0.11376,-0.91003 0,-1.57632 1.2188,-2.51885 1.2188,-0.94254 3.23387,-0.94254 1.95007,0 3.18512,0.92629 1.23505,0.91004 1.26755,2.76261 z m 9.62037,5.5252 q -0.39002,1.3488 -1.4463,2.09634 -1.04005,0.74752 -2.48635,0.74752 -1.93383,0 -3.12012,-1.20254 -1.17004,-1.20255 -1.17004,-3.18513 0,-1.95007 1.18629,-3.21762 1.18629,-1.26754 3.02262,-1.26754 1.90132,0 3.02261,1.30004 1.12129,1.2838 1.12129,3.49388 v 0.22751 h -6.01273 q 0.0162,1.08879 0.52003,1.65757 0.52002,0.56877 1.4463,0.56877 1.2188,0 1.70631,-1.2188 z m -2.21009,-2.47009 q -0.0812,-0.82879 -0.53627,-1.3488 -0.45501,-0.53627 -1.26754,-0.53627 -0.76379,0 -1.26755,0.50376 -0.50377,0.50378 -0.60128,1.38131 z m 9.10034,-3.46138 v 2.12883 q -0.48752,-0.0975 -0.89378,-0.0975 -1.13755,0 -1.67382,0.73127 -0.53627,0.71503 -0.53627,1.93383 v 3.83515 h -2.30759 v -8.38532 h 2.19384 v 1.5438 q 0.82878,-1.73881 2.71385,-1.73881 0.16251,0 0.50377,0.0488 z m 6.09398,0.14626 h 2.29133 l -2.84385,8.38531 h -2.58385 l -2.87635,-8.38531 h 2.43759 l 1.78756,5.72022 z m 11.11543,5.78521 q -0.39001,1.3488 -1.44631,2.09634 -1.04004,0.74752 -2.48634,0.74752 -1.93382,0 -3.12012,-1.20254 -1.17005,-1.20255 -1.17005,-3.18513 0,-1.95007 1.18631,-3.21762 1.18629,-1.26754 3.0226,-1.26754 1.90132,0 3.02262,1.30004 1.1213,1.2838 1.1213,3.49388 v 0.22751 h -6.01274 q 0.0162,1.08879 0.52002,1.65757 0.52002,0.56877 1.44631,0.56877 1.2188,0 1.70631,-1.2188 z m -2.21009,-2.47009 q -0.0812,-0.82879 -0.53627,-1.3488 -0.45502,-0.53627 -1.26755,-0.53627 -0.76377,0 -1.26754,0.50376 -0.50378,0.50378 -0.60128,1.38131 z m 9.10034,-3.46138 v 2.12883 q -0.48751,-0.0975 -0.89378,-0.0975 -1.13755,0 -1.67382,0.73127 -0.53627,0.71503 -0.53627,1.93383 v 3.83515 h -2.30758 v -8.38532 h 2.19383 v 1.5438 q 0.82878,-1.73881 2.71385,-1.73881 0.16251,0 0.50377,0.0488 z m 13.09799,6.53275 v 1.99882 h -8.33656 q 0.0162,-0.76378 0.195,-1.39755 0.19502,-0.65003 0.43877,-1.08879 0.26001,-0.43877 0.78003,-0.92629 0.52002,-0.48751 0.91004,-0.78002 0.40627,-0.29252 1.17004,-0.81254 0.0975,-0.065 0.52002,-0.34126 0.42252,-0.27627 0.58503,-0.39002 0.16251,-0.11375 0.48751,-0.39001 0.32502,-0.29251 0.45502,-0.50377 0.14626,-0.21126 0.27626,-0.52001 0.13001,-0.32502 0.13001,-0.66628 0,-0.74753 -0.45502,-1.1863 -0.43877,-0.45501 -1.17004,-0.45501 -1.75507,0 -1.85257,2.47008 h -2.21009 v -0.24376 q 0,-1.93381 1.1213,-3.07136 1.12128,-1.1538 3.0226,-1.1538 1.72258,0 2.79512,0.97504 1.07254,0.95879 1.07254,2.5026 0,1.2513 -0.56878,1.99883 -0.56877,0.74752 -1.78757,1.5763 -0.16251,0.11375 -0.60126,0.40627 -0.43877,0.27626 -0.69878,0.45502 -0.24377,0.17876 -0.60128,0.45502 -0.35751,0.27626 -0.61752,0.55252 -0.26001,0.26001 -0.43877,0.53627 z"
       id="text166"
       aria-label="Server 2" />
    <path
       style="font-size:12.5539px;line-height:1.25;font-family:HelveticaNeueCyr;-inkscape-font-specification:HelveticaNeueCyr;text-align:center;text-anchor:middle;stroke-width:1.87185"
       d="m 571.89587,221.50922 h 3.92937 q 3.00038,0 3.00038,2.47311 0,0.77835 -0.42683,1.38093 -0.41428,0.59004 -1.10474,0.7909 0.45194,0.10043 0.72812,0.28874 0.27619,0.18831 0.40173,0.52726 0.12554,0.33896 0.1632,0.60259 0.0377,0.26363 0.0628,0.77834 0,0.0502 0.0126,0.25108 0.0126,0.18831 0.0126,0.26363 0,0.0628 0.0125,0.23853 0.0251,0.17575 0.0377,0.26363 0.0126,0.0879 0.0377,0.23852 0.0251,0.15065 0.0628,0.25108 0.0377,0.0879 0.0879,0.21342 0.0502,0.11298 0.11299,0.21341 0.0628,0.0879 0.13809,0.1632 h -1.35582 q -0.0879,-0.12554 -0.15065,-0.31384 -0.0502,-0.18831 -0.0753,-0.43939 -0.0251,-0.26363 -0.0377,-0.41428 -0.0126,-0.1632 -0.0251,-0.46449 -0.0126,-0.3013 -0.0126,-0.33896 -0.0628,-1.1424 -0.47704,-1.51902 -0.40173,-0.37662 -1.6069,-0.37662 h -2.34758 v 3.8666 h -1.18007 z m 1.18007,1.00431 v 3.12592 h 2.22204 q 0.41428,0 0.69046,-0.0251 0.28874,-0.0251 0.6277,-0.11299 0.33895,-0.0879 0.53981,-0.25107 0.21342,-0.16321 0.35151,-0.4645 0.1381,-0.30129 0.1381,-0.72813 0,-0.90388 -0.55238,-1.21772 -0.53981,-0.32641 -1.48136,-0.32641 z m 12.76731,5.88778 q -0.48961,2.2597 -2.82463,2.2597 -1.43115,0 -2.24715,-0.89133 -0.80345,-0.89132 -0.80345,-2.47312 0,-1.56923 0.82856,-2.53588 0.84111,-0.97921 2.18438,-0.97921 1.49391,0 2.20948,1.01687 0.72813,1.00431 0.72813,2.54844 v 0.15065 h -4.87091 l -0.0126,0.0753 q 0,1.02942 0.53982,1.61945 0.53982,0.59003 1.48136,0.59003 0.70302,0 1.10474,-0.3264 0.41428,-0.3264 0.64025,-1.05453 z m -1.02942,-1.7701 q -0.0753,-0.92899 -0.56493,-1.4437 -0.4896,-0.52727 -1.29305,-0.52727 -0.77834,0 -1.29305,0.52727 -0.51471,0.52726 -0.61514,1.4437 z m 3.23891,-2.66143 v 0.91643 q 0.70302,-1.11729 2.18438,-1.11729 1.35582,0 2.14672,0.91643 0.80345,0.91644 0.80345,2.48567 0,1.56924 -0.7909,2.51078 -0.77834,0.92899 -2.10905,0.92899 -1.39349,0 -2.17183,-1.06708 v 3.40211 h -1.06708 v -8.97604 z m 2.02118,0.69046 q -0.92899,0 -1.46881,0.67792 -0.52726,0.66535 -0.52726,1.84542 0,1.18007 0.53982,1.85798 0.55237,0.66535 1.49391,0.66535 0.91644,0 1.4437,-0.67791 0.52726,-0.67791 0.52726,-1.84542 0,-1.18007 -0.53981,-1.84542 -0.52727,-0.67792 -1.46881,-0.67792 z m 5.54883,-3.15102 v 8.93837 h -1.07964 v -8.93837 z m 2.78696,0 v 1.3056 h -1.07963 v -1.3056 z m 0,2.46056 v 6.47781 h -1.07963 v -6.47781 z m 7.23105,4.11768 q -0.13809,1.16751 -0.89133,1.85798 -0.74068,0.69046 -1.9333,0.69046 -1.4688,0 -2.27225,-0.90388 -0.80345,-0.91643 -0.80345,-2.43546 0,-1.61945 0.84111,-2.56099 0.84111,-0.9541 2.27226,-0.9541 1.19262,0 1.90819,0.60259 0.71557,0.59003 0.84111,1.69478 h -1.10474 q -0.28874,-1.40604 -1.63201,-1.40604 -0.92899,0 -1.46881,0.69046 -0.53981,0.67791 -0.53981,1.84543 0,1.18006 0.51471,1.85797 0.51471,0.67791 1.41859,0.67791 0.72812,0 1.18006,-0.42683 0.4645,-0.42683 0.59004,-1.23028 z m 6.90466,1.50647 v 0.82855 q -0.3264,0.12554 -0.72813,0.12554 -0.91643,0 -0.94154,-0.95409 -0.91644,1.02942 -2.34758,1.02942 -0.9541,0 -1.51902,-0.4896 -0.55237,-0.48961 -0.55237,-1.34327 0,-1.73244 2.29736,-2.02118 1.35582,-0.1632 1.56924,-0.23852 0.45194,-0.15065 0.4896,-0.6277 0.0126,-0.0753 0.0126,-0.1632 0,-1.06708 -1.4688,-1.06708 -0.75324,0 -1.14241,0.31385 -0.38917,0.30129 -0.46449,1.00431 h -1.04198 q 0.0251,-1.04198 0.74068,-1.61945 0.71558,-0.57748 1.97097,-0.57748 1.36837,0 2.03373,0.62769 0.21341,0.20086 0.31385,0.52726 0.10043,0.32641 0.11298,0.53982 0.0125,0.20086 0.0125,0.61514 0,0.48961 -0.0251,1.45626 -0.0251,0.95409 -0.0251,1.43114 0,0.35151 0.0879,0.50216 0.10043,0.13809 0.35151,0.13809 0.10043,0 0.26363,-0.0377 z m -1.71989,-2.51078 q -0.11298,0.0879 -0.23852,0.15064 -0.12554,0.0628 -0.3264,0.10044 -0.18831,0.0377 -0.26363,0.0628 -0.0628,0.0126 -0.32641,0.0502 -0.26363,0.0251 -0.27618,0.0251 -0.38917,0.0502 -0.51471,0.0753 -0.11299,0.0126 -0.45194,0.10043 -0.3264,0.0879 -0.4645,0.20086 -0.13809,0.11298 -0.27618,0.33895 -0.12554,0.21342 -0.12554,0.51471 0,0.50216 0.33895,0.7909 0.35151,0.28874 0.9541,0.28874 0.76579,0 1.36838,-0.45194 0.60258,-0.45194 0.60258,-1.06708 z m 7.53235,-1.23028 h -1.06708 q -0.10043,-1.18007 -1.58179,-1.18007 -0.61514,0 -0.96665,0.23852 -0.35151,0.23853 -0.35151,0.64025 0,0.11299 0.0251,0.22597 0.0251,0.10043 0.0879,0.18831 0.0753,0.0753 0.12554,0.13809 0.0628,0.0628 0.18831,0.12554 0.13809,0.0502 0.20086,0.0879 0.0753,0.0377 0.25108,0.0879 0.18831,0.0377 0.26363,0.0628 0.0753,0.0126 0.28874,0.0628 0.22597,0.0502 0.28874,0.0628 0.4645,0.10043 0.69047,0.1632 0.23852,0.0628 0.64025,0.23853 0.41427,0.1632 0.62769,0.35151 0.21342,0.17575 0.37662,0.50215 0.17575,0.31385 0.17575,0.71557 0,0.94155 -0.74068,1.51903 -0.72812,0.56492 -1.94585,0.56492 -1.31816,0 -2.03373,-0.57748 -0.70302,-0.57748 -0.75324,-1.66967 h 1.05453 q 0.0879,1.36838 1.75755,1.36838 0.71557,0 1.1424,-0.28874 0.43939,-0.30129 0.43939,-0.7909 0,-0.3264 -0.22597,-0.53981 -0.22597,-0.21342 -0.50216,-0.3013 -0.27619,-0.10043 -0.7909,-0.22597 -0.0753,-0.0126 -0.11298,-0.0251 -0.11299,-0.0251 -0.4896,-0.10043 -0.36407,-0.0879 -0.52727,-0.13809 -0.1632,-0.0502 -0.47704,-0.15065 -0.3013,-0.11298 -0.45194,-0.22597 -0.15065,-0.12554 -0.33896,-0.30129 -0.17575,-0.18831 -0.25108,-0.42683 -0.0753,-0.25108 -0.0753,-0.56493 0,-0.87877 0.66536,-1.39348 0.67791,-0.51471 1.80776,-0.51471 1.1424,0 1.85797,0.53981 0.72813,0.53982 0.72813,1.53158 z m 7.00508,2.54844 q -0.4896,2.2597 -2.82463,2.2597 -1.43114,0 -2.24715,-0.89133 -0.80345,-0.89132 -0.80345,-2.47312 0,-1.56923 0.82856,-2.53588 0.84111,-0.97921 2.18438,-0.97921 1.49391,0 2.20948,1.01687 0.72813,1.00431 0.72813,2.54844 v 0.15065 h -4.87091 l -0.0126,0.0753 q 0,1.02942 0.53982,1.61945 0.53982,0.59003 1.48136,0.59003 0.70302,0 1.10474,-0.3264 0.41428,-0.3264 0.64025,-1.05453 z m -1.02942,-1.7701 q -0.0753,-0.92899 -0.56493,-1.4437 -0.4896,-0.52727 -1.29305,-0.52727 -0.77834,0 -1.29305,0.52727 -0.51471,0.52726 -0.61514,1.4437 z m 5.00901,-2.66143 v 0.87877 h -1.29305 v 3.77873 q 0,0.31384 0,0.41428 0.0126,0.10043 0.0753,0.27618 0.0628,0.1632 0.21342,0.21342 0.15065,0.0502 0.42683,0.0502 0.23853,0 0.57748,-0.0377 v 0.91643 q -0.45194,0.0502 -0.816,0.0502 -0.45194,0 -0.75324,-0.10043 -0.30129,-0.10043 -0.46449,-0.22597 -0.15065,-0.12554 -0.22597,-0.43939 -0.0753,-0.3264 -0.0879,-0.53981 -0.0125,-0.22597 -0.0125,-0.74068 0,-0.11299 0,-0.17576 v -3.43978 h -1.09219 v -0.87877 h 1.09219 v -1.92075 h 1.06708 v 1.92075 z m 9.98035,5.51116 v 0.96665 h -5.7999 q 0.0377,-0.74068 0.22597,-1.29305 0.18831,-0.55237 0.57748,-0.99176 0.40173,-0.45194 0.77834,-0.74068 0.37662,-0.28874 1.06709,-0.71557 1.07963,-0.67791 1.41859,-1.01687 0.70301,-0.69046 0.70301,-1.53157 0,-0.74068 -0.47704,-1.20518 -0.47705,-0.47704 -1.24284,-0.47704 -0.91643,0 -1.31816,0.64025 -0.38917,0.62769 -0.41428,1.59434 h -1.07963 v -0.23852 q 0,-1.31816 0.77834,-2.12161 0.79089,-0.80345 2.08395,-0.80345 1.26794,0 2.02117,0.70302 0.75324,0.70301 0.75324,1.88308 0,0.50216 -0.17576,0.9541 -0.1632,0.43938 -0.37661,0.74068 -0.20087,0.30129 -0.6277,0.64025 -0.41428,0.33895 -0.69046,0.52726 -0.27619,0.17575 -0.7909,0.4896 -1.02942,0.61514 -1.36837,0.9541 -0.47705,0.46449 -0.61515,1.04197 z"
       id="text1"
       aria-label="Replicaset 2" />
  </g>
</svg>
