<?xml version="1.0" encoding="UTF-8" standalone="no"?>
<!-- Created with Inkscape (http://www.inkscape.org/) -->

<svg
   width="405.43057"
   height="256.45776"
   viewBox="0 0 405.43057 256.45776"
   version="1.1"
   id="svg1"
   sodipodi:docname="cluster_elements.svg"
   inkscape:version="1.4 (e7c3feb100, 2024-10-09)"
   xmlns:inkscape="http://www.inkscape.org/namespaces/inkscape"
   xmlns:sodipodi="http://sodipodi.sourceforge.net/DTD/sodipodi-0.dtd"
   xmlns="http://www.w3.org/2000/svg"
   xmlns:svg="http://www.w3.org/2000/svg">
  <sodipodi:namedview
     id="namedview1"
     pagecolor="#ffffff"
     bordercolor="#666666"
     borderopacity="1.0"
     inkscape:showpageshadow="2"
     inkscape:pageopacity="0.0"
     inkscape:pagecheckerboard="0"
     inkscape:deskcolor="#d1d1d1"
     inkscape:document-units="mm"
     inkscape:zoom="1.3908814"
     inkscape:cx="292.26071"
     inkscape:cy="83.759835"
     inkscape:window-width="1858"
     inkscape:window-height="1014"
     inkscape:window-x="62"
     inkscape:window-y="29"
     inkscape:window-maximized="1"
     inkscape:current-layer="layer1" />
  <defs
     id="defs1" />
  <g
     inkscape:label="Layer 1"
     inkscape:groupmode="layer"
     id="layer1"
     transform="translate(-58.84123,-139.93284)">
    <path
       id="rect7"
       style="opacity:0.696675;fill:none;fill-opacity:0.792157;stroke:#000000;stroke-width:0.919884;stroke-dasharray:none;stroke-opacity:1"
       d="M 71.378568,140.39278 H 451.73446 c 6.6909,0 12.07741,5.48077 12.07741,12.28875 v 230.96038 c 0,6.80799 -5.38651,12.28876 -12.07741,12.28876 H 71.378568 c -6.690877,0 -12.077396,-5.48077 -12.077396,-12.28876 V 152.68153 c 0,-6.80798 5.386519,-12.28875 12.077396,-12.28875 z" />
    <path
       style="font-size:5.71396px;line-height:1.25;font-family:HelveticaNeueCyr;-inkscape-font-specification:HelveticaNeueCyr;text-align:center;text-anchor:middle;fill:#343434;fill-opacity:1;stroke-width:3.89067"
       d="m 236.80569,163.75226 q -0.31865,3.51299 -2.49495,5.49071 -2.14997,1.95162 -5.68007,1.95162 -4.03438,0 -6.39666,-2.6022 -2.36225,-2.62824 -2.36225,-7.07807 0,-4.16353 2.36225,-6.92184 2.3888,-2.78446 6.58247,-2.78446 2.99927,0 5.2819,1.58738 2.28264,1.58735 2.54802,4.39781 h -2.49495 q -0.42453,-1.82161 -1.85794,-2.83647 -1.43326,-1.04089 -3.5301,-1.04089 -3.15856,0 -4.77763,2.18588 -1.59251,2.18585 -1.59251,5.38659 0,3.53903 1.69867,5.56873 1.69872,2.02974 4.64489,2.02974 2.41534,0 3.84864,-1.35311 1.4333,-1.37919 1.72527,-3.98142 z m 5.1492,-11.52785 v 18.52782 h -2.28263 v -18.52782 z m 14.86368,5.10033 v 13.42749 h -2.09683 v -2.10779 q -1.75181,2.47209 -4.72453,2.47209 -2.17648,0 -3.37092,-1.17099 -1.19436,-1.17096 -1.19436,-3.38289 v -9.23791 h 2.25613 v 8.63941 q 0,1.58734 0.61043,2.42005 0.63703,0.80669 2.25609,0.80669 4.00787,0 4.00787,-4.84013 v -7.02602 z m 13.56306,3.90337 h -2.25613 q -0.21232,-2.44609 -3.34426,-2.44609 -1.30059,0 -2.04377,0.49441 -0.74318,0.49444 -0.74318,1.3271 0,0.23402 0.0528,0.46844 0.0528,0.20797 0.18591,0.39049 0.15915,0.15625 0.26549,0.28646 0.13274,0.13021 0.39786,0.2597 0.29189,0.10453 0.42453,0.1823 0.15914,0.0778 0.53083,0.18229 0.3983,0.0778 0.55737,0.13021 0.15915,0.0289 0.61044,0.13021 0.4778,0.10454 0.61051,0.13022 0.98204,0.20797 1.45981,0.33855 0.50432,0.13021 1.35365,0.49444 0.87589,0.33855 1.32711,0.72864 0.45122,0.36426 0.79631,1.04089 0.37161,0.65055 0.37161,1.48321 0,1.95169 -1.56597,3.14869 -1.53946,1.171 -4.11402,1.171 -2.78695,0 -4.29983,-1.197 -1.4864,-1.19701 -1.59255,-3.46098 h 2.2295 q 0.18591,2.83643 3.71598,2.83643 1.51291,0 2.41534,-0.59854 0.92895,-0.6245 0.92895,-1.63935 0,-0.6766 -0.47777,-1.11895 -0.47776,-0.442 -1.06169,-0.62451 -0.58389,-0.20798 -1.67213,-0.4684 -0.15914,-0.0289 -0.23872,-0.0521 -0.23872,-0.0521 -1.03514,-0.20798 -0.76969,-0.18229 -1.11475,-0.28646 -0.34506,-0.10453 -1.00863,-0.31215 -0.63703,-0.23402 -0.95546,-0.46847 -0.31866,-0.26006 -0.71671,-0.62451 -0.37161,-0.39049 -0.53079,-0.88478 -0.15915,-0.52038 -0.15915,-1.17096 0,-1.82159 1.40679,-2.88845 1.43323,-1.06697 3.82206,-1.06697 2.41535,0 3.92818,1.11895 1.5395,1.11895 1.5395,3.17473 z m 8.97126,-3.90337 v 1.82159 h -2.73386 v 7.83267 q 0,0.65055 0,0.85871 0.0289,0.20797 0.15915,0.57253 0.1331,0.33855 0.45122,0.44203 0.31865,0.10453 0.90243,0.10453 0.50428,0 1.22095,-0.0778 v 1.89968 q -0.9555,0.10453 -1.72526,0.10453 -0.95554,0 -1.59252,-0.20798 -0.63702,-0.20834 -0.98205,-0.46843 -0.31865,-0.26006 -0.4778,-0.91072 -0.15915,-0.67659 -0.18591,-1.11895 -0.0289,-0.46847 -0.0289,-1.53534 0,-0.23401 0,-0.3643 v -7.13011 h -2.30919 v -1.82198 h 2.30919 v -3.98135 h 2.25606 v 3.98135 z m 14.20011,9.18586 q -1.03511,4.68399 -5.97199,4.68399 -3.02579,0 -4.75108,-1.84759 -1.69865,-1.84752 -1.69865,-5.12638 0,-3.25275 1.75178,-5.25645 1.77832,-2.02977 4.61834,-2.02977 3.15852,0 4.67143,2.10787 1.53942,2.08175 1.53942,5.28248 v 0.31215 h -10.29836 l -0.0289,0.15625 q 0,2.1338 1.14134,3.35685 1.1413,1.22308 3.13194,1.22308 1.4864,0 2.33573,-0.67663 0.87586,-0.67656 1.35366,-2.18589 z m -2.17645,-3.66917 q -0.15914,-1.92557 -1.19439,-2.99251 -1.03515,-1.0929 -2.73386,-1.0929 -1.64558,0 -2.73386,1.0929 -1.0882,1.09291 -1.30055,2.99251 z m 11.86441,-5.82894 v 2.28991 q -0.23872,-0.0289 -0.58396,-0.0289 -1.0882,0 -1.88448,0.33855 -0.79628,0.31215 -1.27404,0.8327 -0.45118,0.52049 -0.74318,1.30114 -0.29153,0.78065 -0.39783,1.56127 -0.0796,0.78072 -0.0796,1.76953 v 5.6729 h -2.25612 V 157.3233 h 2.14993 v 2.88852 q 1.35369,-3.20077 5.06959,-3.20077 z"
       id="text4"
       aria-label="Cluster" />
    <path
       style="font-size:4.35099px;line-height:1.25;font-family:HelveticaNeueCyr;-inkscape-font-specification:HelveticaNeueCyr;text-align:center;text-anchor:middle;fill:#343434;fill-opacity:1;stroke-width:3.77157"
       d="m 215.77141,249.52732 h 6.26378 q 4.78284,0 4.78284,3.94236 0,1.24077 -0.68039,2.20133 -0.66039,0.94056 -1.76107,1.26077 0.72046,0.16023 1.16072,0.46026 0.44015,0.30021 0.64035,0.84051 0.20002,0.54034 0.26042,0.9606 0.0597,0.42036 0.0998,1.24073 0,0.0799 0.0181,0.40015 0.0181,0.3002 0.0181,0.4204 0,0.0998 0.0181,0.38036 0.0412,0.27995 0.0604,0.4204 0.0181,0.14034 0.0597,0.38036 0.0412,0.24017 0.0998,0.40015 0.0597,0.13997 0.14034,0.34035 0.0799,0.18013 0.18012,0.34036 0.0998,0.14034 0.22028,0.26042 h -2.16194 q -0.14034,-0.20001 -0.24017,-0.5003 -0.0799,-0.30021 -0.12008,-0.70042 -0.0412,-0.42041 -0.0597,-0.66039 -0.0181,-0.26042 -0.0412,-0.74043 -0.0181,-0.4803 -0.0181,-0.54034 -0.0998,-1.82108 -0.7604,-2.42146 -0.64042,-0.60035 -2.56158,-0.60035 h -3.74227 v 6.16369 h -1.88112 z m 1.88112,1.60094 v 4.983 h 3.54214 q 0.66039,0 1.10065,-0.0412 0.46026,-0.0412 1.0006,-0.18012 0.54034,-0.14034 0.86052,-0.40015 0.34035,-0.26042 0.56034,-0.7404 0.22027,-0.48033 0.22027,-1.16072 0,-1.44086 -0.88051,-1.9412 -0.86056,-0.52026 -2.36142,-0.52026 z m 20.35223,9.38566 q -0.78044,3.60219 -4.5027,3.60219 -2.28138,0 -3.58219,-1.42086 -1.28073,-1.42086 -1.28073,-3.94236 0,-2.50154 1.32081,-4.04244 1.34078,-1.56095 3.4821,-1.56095 2.38142,0 3.5221,1.62099 1.16069,1.60094 1.16069,4.06244 v 0.24017 h -7.76464 l -0.0181,0.12008 q 0,1.64099 0.86051,2.58158 0.86048,0.94053 2.36142,0.94053 1.12065,0 1.76104,-0.52027 0.66042,-0.52034 1.0206,-1.68106 z m -1.64099,-2.82171 q -0.12008,-1.48086 -0.90052,-2.30137 -0.78047,-0.84048 -2.06124,-0.84048 -1.24073,0 -2.06121,0.84048 -0.82054,0.84051 -0.9806,2.30137 z m 5.16313,-4.24257 v 1.46093 q 1.12072,-1.78107 3.4821,-1.78107 2.16133,0 3.4221,1.46086 1.28073,1.46086 1.28073,3.9624 0,2.5015 -1.26073,4.00237 -1.24077,1.48093 -3.36202,1.48093 -2.22133,0 -3.4621,-1.70106 v 5.42329 h -1.70103 v -14.30865 z m 3.22197,1.10072 q -1.4809,0 -2.34142,1.08061 -0.84051,1.06064 -0.84051,2.94179 0,1.88112 0.86055,2.96177 0.88052,1.06067 2.38138,1.06067 1.46094,0 2.30141,-1.08068 0.84052,-1.08064 0.84052,-2.94176 0,-1.88115 -0.86052,-2.94179 -0.84051,-1.08061 -2.34141,-1.08061 z m 8.84535,-5.02304 v 14.24854 h -1.72106 v -14.24854 z m 4.44266,0 v 2.08124 h -1.72106 v -2.08124 z m 0,3.92232 v 10.32622 h -1.72106 v -10.32622 z m 11.52695,6.56398 q -0.22027,1.86112 -1.42086,2.96176 -1.18069,1.10069 -3.08188,1.10069 -2.34138,0 -3.62215,-1.44086 -1.28081,-1.46086 -1.28081,-3.88232 0,-2.58158 1.34085,-4.08252 1.34082,-1.52087 3.62219,-1.52087 1.90112,0 3.0418,0.9606 1.14069,0.94052 1.34082,2.70159 h -1.76104 q -0.46033,-2.24133 -2.60158,-2.24133 -1.48086,0 -2.34145,1.10065 -0.86048,1.08068 -0.86048,2.94179 0,1.88112 0.82048,2.9618 0.82051,1.08061 2.26137,1.08061 1.16069,0 1.88115,-0.68043 0.74043,-0.68039 0.94052,-1.96116 z m 11.00668,2.40146 v 1.32077 q -0.52034,0.20002 -1.16072,0.20002 -1.46086,0 -1.50094,-1.5209 -1.46086,1.64099 -3.74223,1.64099 -1.52094,0 -2.42146,-0.78047 -0.88052,-0.78048 -0.88052,-2.14133 0,-2.76163 3.66223,-3.22193 2.16125,-0.26042 2.50146,-0.3804 0.72047,-0.24016 0.78047,-1.0006 0.0181,-0.12008 0.0181,-0.26042 0,-1.70099 -2.34142,-1.70099 -1.20072,0 -1.82111,0.50026 -0.62038,0.48034 -0.74043,1.60098 h -1.66099 q 0.0412,-1.66102 1.18069,-2.58158 1.14069,-0.92052 3.14193,-0.92052 2.18132,0 3.24193,1.0006 0.34036,0.32011 0.5003,0.84048 0.16023,0.52034 0.18012,0.86052 0.0181,0.3201 0.0181,0.98059 0,0.78048 -0.0412,2.32145 -0.0416,1.52087 -0.0416,2.28134 0,0.56034 0.14034,0.80051 0.16023,0.22027 0.56027,0.22027 0.16023,0 0.4204,-0.0597 z m -2.74167,-4.0024 q -0.18049,0.14033 -0.3804,0.24016 -0.20001,0.10019 -0.52026,0.16023 -0.30021,0.0604 -0.4204,0.1002 -0.0998,0.0181 -0.52031,0.0799 -0.42036,0.0412 -0.44015,0.0412 -0.62038,0.0799 -0.82047,0.12009 -0.18013,0.0181 -0.72047,0.15987 -0.52034,0.14034 -0.74046,0.3201 -0.22028,0.18013 -0.44015,0.54034 -0.20002,0.34036 -0.20002,0.82048 0,0.80047 0.54034,1.26077 0.56034,0.46026 1.5209,0.46026 1.22073,0 2.18133,-0.72043 0.96059,-0.72043 0.96059,-1.70103 z m 12.00725,-1.9612 h -1.70103 q -0.16023,-1.88112 -2.52151,-1.88112 -0.98059,0 -1.54094,0.38036 -0.56038,0.38036 -0.56038,1.0206 0,0.18049 0.0412,0.36026 0.0412,0.16023 0.14034,0.3002 0.12008,0.12009 0.20002,0.22028 0.10019,0.10019 0.30021,0.20002 0.22027,0.0799 0.3201,0.14034 0.12008,0.0604 0.40014,0.14033 0.30021,0.0604 0.42041,0.0998 0.12008,0.0181 0.46029,0.10019 0.36025,0.0799 0.46026,0.0998 0.74047,0.16023 1.10065,0.26042 0.38036,0.10019 1.0206,0.38037 0.66046,0.26042 1.00064,0.56034 0.34036,0.27995 0.60034,0.80047 0.27996,0.5003 0.27996,1.14072 0,1.5009 -1.18073,2.42146 -1.16069,0.90052 -3.10185,0.90052 -2.10128,0 -3.242,-0.92056 -1.12065,-0.92055 -1.20066,-2.66162 h 1.68099 q 0.14034,2.18133 2.80171,2.18133 1.14065,0 1.82108,-0.46027 0.70039,-0.48029 0.70039,-1.26073 0,-0.52034 -0.36025,-0.86055 -0.36025,-0.34036 -0.80051,-0.4803 -0.44015,-0.16023 -1.26073,-0.36025 -0.12009,-0.0181 -0.18049,-0.0416 -0.18013,-0.0412 -0.78047,-0.15988 -0.58031,-0.14033 -0.84051,-0.22027 -0.26043,-0.0799 -0.7604,-0.24017 -0.48034,-0.18012 -0.72047,-0.36025 -0.24016,-0.20002 -0.54034,-0.48026 -0.27995,-0.30021 -0.40014,-0.68043 -0.12009,-0.40018 -0.12009,-0.90055 0,-1.40082 1.06064,-2.22133 1.08061,-0.82048 2.88172,-0.82048 1.82108,0 2.9618,0.86052 1.16069,0.86048 1.16069,2.44146 z m 11.16673,4.06244 q -0.78047,3.60219 -4.50271,3.60219 -2.2814,0 -3.58218,-1.42086 -1.28073,-1.42086 -1.28073,-3.94236 0,-2.50154 1.32077,-4.04244 1.34082,-1.56095 3.48207,-1.56095 2.38145,0 3.52214,1.62099 1.16069,1.60094 1.16069,4.06244 v 0.24017 h -7.76468 l -0.0181,0.12008 q 0,1.64099 0.86047,2.58158 0.86052,0.94053 2.36146,0.94053 1.12065,0 1.76107,-0.52027 0.66039,-0.52034 1.0206,-1.68106 z m -1.64099,-2.82171 q -0.12008,-1.48086 -0.90055,-2.30137 -0.78051,-0.84048 -2.06125,-0.84048 -1.24073,0 -2.06124,0.84048 -0.82048,0.84051 -0.9806,2.30137 z m 7.98484,-4.24257 v 1.40085 h -2.06128 v 6.02365 q 0,0.50033 0,0.66039 0.0181,0.16023 0.12009,0.44015 0.10019,0.26042 0.34035,0.34035 0.24017,0.0799 0.68039,0.0799 0.38036,0 0.92056,-0.0604 v 1.46094 q -0.72043,0.0799 -1.30081,0.0799 -0.72039,0 -1.20073,-0.16023 -0.48026,-0.16023 -0.74039,-0.36025 -0.24017,-0.20002 -0.36025,-0.70039 -0.12009,-0.52034 -0.14034,-0.86052 -0.0181,-0.36025 -0.0181,-1.18069 0,-0.18012 0,-0.27995 v -5.4833 h -1.74107 v -1.40082 h 1.74107 v -3.06185 h 1.70099 v 3.06185 z"
       id="text5"
       aria-label="Replicaset" />
    <path
       style="font-size:3.72942px;line-height:1.25;font-family:HelveticaNeueCyr;-inkscape-font-specification:HelveticaNeueCyr;text-align:center;text-anchor:middle;fill:#343434;fill-opacity:1;stroke-width:3.77157"
       d="m 231.53837,292.70027 v 12.21309 h -1.61238 v -12.21309 z m 3.87668,3.36206 v 1.37224 q 1.09779,-1.61237 3.01894,-1.61237 1.56095,0 2.24709,0.82333 0.70325,0.80619 0.70325,2.38431 v 5.88352 h -1.45801 v -5.21456 q 0,-0.65181 -0.0514,-1.01207 -0.0369,-0.37761 -0.20617,-0.789 -0.17144,-0.42869 -0.5832,-0.61753 -0.41165,-0.18844 -1.0635,-0.18844 -2.52154,0 -2.52154,3.19053 v 4.63136 h -1.458 v -8.85103 z m 14.73451,2.57297 h -1.45796 q -0.13709,-1.61238 -2.16129,-1.61238 -0.84051,0 -1.32081,0.32589 -0.48027,0.32626 -0.48027,0.87484 0,0.15445 0.0326,0.30853 0.0326,0.13708 0.12008,0.25717 0.10308,0.10308 0.17145,0.18844 0.0861,0.0857 0.25716,0.17145 0.18845,0.0687 0.27453,0.12008 0.10309,0.0517 0.34325,0.12008 0.25717,0.0514 0.36025,0.0857 0.10309,0.0181 0.39462,0.0861 0.30852,0.0687 0.39464,0.0857 0.63468,0.13709 0.94342,0.22317 0.32625,0.0861 0.8748,0.32625 0.56606,0.22317 0.85766,0.48026 0.29153,0.24017 0.51459,0.68615 0.24017,0.42868 0.24017,0.97774 0,1.28645 -1.01204,2.07553 -0.99488,0.7719 -2.65869,0.7719 -1.80111,0 -2.77885,-0.78905 -0.9606,-0.78908 -1.02918,-2.28141 h 1.44086 q 0.12009,1.86973 2.40146,1.86973 0.9777,0 1.5609,-0.39465 0.60035,-0.41165 0.60035,-1.08068 0,-0.44612 -0.30853,-0.73754 -0.30853,-0.29153 -0.6861,-0.41165 -0.37761,-0.13708 -1.08068,-0.30853 -0.10309,-0.0181 -0.15445,-0.0326 -0.15444,-0.0326 -0.66896,-0.13708 -0.49748,-0.12009 -0.72046,-0.18845 -0.22317,-0.0684 -0.65182,-0.20544 -0.41165,-0.15445 -0.61753,-0.30853 -0.20544,-0.17144 -0.46311,-0.41165 -0.24017,-0.25716 -0.34325,-0.5832 -0.10309,-0.34325 -0.10309,-0.7719 0,-1.20069 0.90909,-1.90401 0.92631,-0.70325 2.47004,-0.70325 1.56094,0 2.53868,0.73757 0.99485,0.73761 0.99485,2.09268 z m 5.79788,-2.57297 v 1.20073 h -1.76679 v 5.16309 q 0,0.42864 0,0.56609 0.0181,0.13708 0.10308,0.37714 0.0857,0.22317 0.29153,0.29153 0.20617,0.0684 0.5832,0.0684 0.32626,0 0.78908,-0.0514 v 1.2522 q -0.61752,0.0684 -1.115,0.0684 -0.61746,0 -1.02918,-0.13708 -0.41164,-0.13709 -0.63467,-0.30853 -0.20544,-0.17145 -0.30853,-0.60035 -0.10308,-0.44615 -0.12008,-0.73757 -0.0181,-0.30853 -0.0181,-1.01207 0,-0.15444 0,-0.24017 v -4.69997 h -1.49237 v -1.20073 h 1.49237 v -2.6244 h 1.45804 v 2.6244 z m 9.45141,7.68463 v 1.13208 q -0.44615,0.17144 -0.99492,0.17144 -1.25213,0 -1.28645,-1.30367 -1.2522,1.40654 -3.20768,1.40654 -1.30363,0 -2.07553,-0.669 -0.75472,-0.66892 -0.75472,-1.83533 0,-2.36716 3.13899,-2.7617 1.85258,-0.22317 2.14418,-0.32589 0.61753,-0.20617 0.669,-0.85766 0.0181,-0.10308 0.0181,-0.22317 0,-1.458 -2.00692,-1.458 -1.02921,0 -1.56094,0.42865 -0.53174,0.41165 -0.63468,1.37231 h -1.42371 q 0.0325,-1.42375 1.01203,-2.21279 0.97774,-0.78904 2.69306,-0.78904 1.86969,0 2.77881,0.85765 0.29153,0.27453 0.42869,0.72043 0.13708,0.44612 0.15444,0.73761 0.0181,0.27453 0.0181,0.84048 0,0.669 -0.0326,1.98977 -0.0326,1.30367 -0.0326,1.95549 0,0.48026 0.12009,0.6861 0.13708,0.18844 0.48026,0.18844 0.13708,0 0.36025,-0.0514 z m -2.34999,-3.43063 q -0.15444,0.12008 -0.32625,0.20544 -0.17144,0.0861 -0.44615,0.13709 -0.25717,0.0514 -0.36025,0.0861 -0.0861,0.0181 -0.44616,0.0684 -0.36025,0.0326 -0.37761,0.0326 -0.53173,0.0684 -0.70325,0.10309 -0.15444,0.0181 -0.61752,0.13708 -0.44616,0.12008 -0.63468,0.27453 -0.18844,0.15444 -0.37714,0.46312 -0.17144,0.29153 -0.17144,0.70328 0,0.68614 0.46312,1.08065 0.48033,0.39461 1.30366,0.39461 1.04632,0 1.86973,-0.61749 0.82333,-0.61753 0.82333,-1.45804 z m 5.09452,-4.254 v 1.37224 q 1.09779,-1.61237 3.01898,-1.61237 1.56091,0 2.24705,0.82333 0.70328,0.80619 0.70328,2.38431 v 5.88352 h -1.458 v -5.21456 q 0,-0.65181 -0.0514,-1.01207 -0.0325,-0.37761 -0.20617,-0.789 -0.17144,-0.42869 -0.58324,-0.61753 -0.41165,-0.18844 -1.06346,-0.18844 -2.5215,0 -2.5215,3.19053 v 4.63136 h -1.45801 v -8.85103 z m 15.78091,5.62624 q -0.18845,1.59527 -1.21784,2.53865 -1.01206,0.94345 -2.64162,0.94345 -2.00692,0 -3.10471,-1.23505 -1.09779,-1.25216 -1.09779,-3.32769 0,-2.2128 1.14926,-3.49928 1.14926,-1.30363 3.10471,-1.30363 1.62955,0 2.6073,0.82336 0.9777,0.80619 1.14925,2.31567 h -1.50947 q -0.39465,-1.92113 -2.22994,-1.92113 -1.2693,0 -2.00691,0.94342 -0.73758,0.92624 -0.73758,2.5215 0,1.61242 0.70325,2.53865 0.70332,0.92627 1.93834,0.92627 0.99485,0 1.61238,-0.5832 0.63467,-0.5832 0.80618,-1.68099 z m 9.15985,0.42865 q -0.669,3.0876 -3.85946,3.0876 -1.95552,0 -3.07045,-1.21788 -1.09779,-1.21787 -1.09779,-3.37916 0,-2.14414 1.13211,-3.46495 1.14926,-1.33796 2.98466,-1.33796 2.04121,0 3.01895,1.38943 0.99488,1.37228 0.99488,3.48206 v 0.20617 h -6.65542 l -0.0181,0.10308 q 0,1.40657 0.73757,2.21276 0.73761,0.80619 2.0241,0.80619 0.96056,0 1.50944,-0.44612 0.56609,-0.44615 0.87487,-1.44093 z m -1.40661,-2.41856 q -0.10308,-1.26935 -0.77186,-1.97263 -0.669,-0.72043 -1.76679,-0.72043 -1.06346,0 -1.76678,0.72043 -0.70329,0.72046 -0.84048,1.97263 z"
       id="text6"
       aria-label="Instance" />
    <path
       style="font-size:3.10785px;line-height:1.25;font-family:HelveticaNeueCyr;-inkscape-font-specification:HelveticaNeueCyr;text-align:center;text-anchor:middle;fill:#444444;fill-opacity:1;stroke-width:3.77157"
       d="m 239.82913,351.17968 h 4.34548 q 1.40082,0 2.31566,0.61463 0.92916,0.61467 0.92916,1.92973 0,0.75762 -0.41439,1.358 -0.40015,0.58606 -1.0864,0.82905 0.94345,0.21448 1.44372,0.88626 0.51459,0.67182 0.51459,1.68675 0,2.87311 -3.85946,2.87311 h -4.18825 z m 1.31506,1.14351 v 3.21625 h 2.41578 q 0.4144,0 0.7004,-0.0145 0.3002,-0.0289 0.67185,-0.11465 0.37161,-0.0861 0.58606,-0.2427 0.22859,-0.17145 0.38586,-0.48602 0.17144,-0.31467 0.17144,-0.75761 0,-0.44293 -0.14323,-0.74332 -0.14287,-0.31468 -0.34325,-0.47166 -0.20002,-0.17144 -0.55752,-0.25717 -0.34325,-0.0857 -0.62892,-0.0998 -0.272,-0.0289 -0.71472,-0.0289 z m 0,4.27404 v 3.63072 h 2.68735 q 0.5003,0 0.81476,-0.0145 0.31467,-0.0289 0.70046,-0.12876 0.40015,-0.10019 0.62892,-0.28611 0.22859,-0.20002 0.3859,-0.55748 0.15733,-0.37165 0.15733,-0.88623 0,-0.42869 -0.11465,-0.74333 -0.0998,-0.31468 -0.35736,-0.5003 -0.2427,-0.18591 -0.47173,-0.30021 -0.21448,-0.11466 -0.62892,-0.15734 -0.41439,-0.0412 -0.64328,-0.0412 -0.22859,-0.0145 -0.70039,-0.0145 z m 14.3801,-2.61587 v 7.37585 h -1.12926 v -1.1578 q -0.94342,1.35792 -2.5444,1.35792 -1.17212,0 -1.81533,-0.64324 -0.64324,-0.64321 -0.64324,-1.85826 v -5.07447 h 1.21498 v 4.74572 q 0,0.87195 0.32878,1.32935 0.34325,0.44294 1.21505,0.44294 2.1584,0 2.1584,-2.65873 v -3.8595 z m 8.17635,4.68854 q -0.15733,1.32938 -1.01492,2.11557 -0.84333,0.78619 -2.20133,0.78619 -1.67238,0 -2.58726,-1.02918 -0.9148,-1.04353 -0.9148,-2.77314 0,-1.84397 0.95773,-2.91604 0.95767,-1.08632 2.58726,-1.08632 1.35793,0 2.17272,0.68607 0.8148,0.67185 0.95774,1.92976 h -1.25791 q -0.32878,-1.60098 -1.85826,-1.60098 -1.05782,0 -1.67242,0.78622 -0.61467,0.77186 -0.61467,2.10125 0,1.34367 0.58606,2.11557 0.58606,0.77186 1.61527,0.77186 0.82905,0 1.34367,-0.48597 0.52888,-0.48602 0.67182,-1.40086 z m 7.53312,-4.68854 -2.93033,2.67301 3.14478,4.70284 h -1.5438 l -2.53011,-3.85943 -1.15787,1.07204 v 2.78739 h -1.1864 v -10.17753 h 1.1864 v 6.01789 l 3.38777,-3.21621 z m 7.51883,5.04586 q -0.55749,2.57301 -3.21622,2.57301 -1.62959,0 -2.55872,-1.01489 -0.91484,-1.01492 -0.91484,-2.816 0,-1.78678 0.94345,-2.88743 0.95774,-1.11493 2.48721,-1.11493 1.70103,0 2.51583,1.15779 0.82905,1.14355 0.82905,2.9018 v 0.17144 h -5.5462 l -0.0145,0.0861 q 0,1.17212 0.61467,1.84394 0.61459,0.67185 1.6867,0.67185 0.80048,0 1.25788,-0.37164 0.47172,-0.37161 0.729,-1.20073 z m -1.17216,-2.01545 q -0.0854,-1.05779 -0.64324,-1.64385 -0.55748,-0.60034 -1.47233,-0.60034 -0.88623,0 -1.47229,0.60034 -0.58606,0.60039 -0.70042,1.64385 z m 5.70347,-3.03041 v 1.0006 h -1.47232 v 4.30261 q 0,0.35736 0,0.47173 0.0145,0.11465 0.0854,0.31467 0.0713,0.18591 0.24306,0.2427 0.17144,0.0571 0.48597,0.0571 0.27128,0 0.65757,-0.0412 v 1.04349 q -0.51462,0.0571 -0.92913,0.0571 -0.51462,0 -0.85769,-0.11466 -0.34325,-0.11465 -0.52891,-0.25716 -0.17145,-0.14324 -0.25717,-0.50034 -0.0857,-0.37164 -0.0998,-0.61463 -0.0145,-0.25717 -0.0145,-0.84337 0,-0.12877 0,-0.20002 v -3.91665 h -1.24359 v -1.0006 h 1.24359 v -2.18704 h 1.21505 v 2.18704 z"
       id="text7"
       aria-label="Bucket" />
    <path
       style="font-size:4.93889px;line-height:1.25;font-family:HelveticaNeueCyr;-inkscape-font-specification:HelveticaNeueCyr;text-align:center;text-anchor:middle;fill:#343434;fill-opacity:1;stroke-width:4.28116"
       d="m 255.63886,200.35782 v 1.86275 h -5.42912 v 14.31111 h -2.13532 v -14.31111 h -5.42912 v -1.86275 z m 3.52102,0 v 2.36247 h -1.9536 v -2.36247 z m 0,4.45236 v 11.7215 h -1.9536 v -11.7215 z m 13.01628,8.01876 q -0.88595,4.08889 -5.11112,4.08889 -2.58961,0 -4.06617,-1.61281 -1.45381,-1.61285 -1.45381,-4.47507 0,-2.83951 1.49928,-4.58868 1.52195,-1.77181 3.95256,-1.77181 2.70322,0 3.99802,1.83999 1.31752,1.81728 1.31752,4.61132 v 0.27272 h -8.81385 l -0.0217,0.136 q 0,1.86271 0.9768,2.9304 0.9768,1.06766 2.68051,1.06766 1.27205,0 1.99899,-0.59061 0.74962,-0.59062 1.15852,-1.90818 z m -1.86271,-3.20294 q -0.136,-1.68099 -1.02223,-2.61232 -0.88594,-0.95413 -2.33972,-0.95413 -1.40845,0 -2.33978,0.95413 -0.93137,0.95405 -1.11313,2.61232 z m 10.15408,-5.0884 v 1.999 q -0.20435,-0.0217 -0.49975,-0.0217 -0.93134,0 -1.61285,0.29515 -0.68147,0.27272 -1.09037,0.7269 -0.38637,0.45444 -0.63601,1.13577 -0.24994,0.68151 -0.34072,1.36302 -0.068,0.68144 -0.068,1.54467 v 4.95211 h -1.93089 v -11.7215 h 1.84003 v 2.5215 q 1.15848,-2.79408 4.33875,-2.79408 z"
       id="text12"
       aria-label="Tier" />
    <path
       id="path12"
       style="opacity:0.696675;fill:none;fill-opacity:0.792157;stroke:#000000;stroke-width:0.919884;stroke-dasharray:none;stroke-opacity:1"
       d="m 111.29503,185.73207 h 300.52301 c 5.2865,0 9.54245,4.50831 9.54245,10.1084 v 189.98179 c 0,5.6001 -4.25595,10.10841 -9.54245,10.10841 H 111.29503 c -5.28653,0 -9.54247,-4.50831 -9.54247,-10.10841 V 195.84047 c 0,-5.60009 4.25594,-10.1084 9.54247,-10.1084 z" />
    <path
       id="path13"
       style="opacity:0.696675;fill:none;fill-opacity:0.792157;stroke:#000000;stroke-width:0.919884;stroke-dasharray:none;stroke-opacity:1"
       d="m 151.11893,234.53226 h 220.87521 c 3.88543,0 7.01346,3.46166 7.01346,7.76163 v 145.87518 c 0,4.29993 -3.12803,7.7616 -7.01346,7.7616 H 151.11893 c -3.88543,0 -7.01343,-3.46167 -7.01343,-7.7616 V 242.29389 c 0,-4.29997 3.128,-7.76163 7.01343,-7.76163 z" />
    <path
       id="path14"
       style="opacity:0.696675;fill:none;fill-opacity:0.792157;stroke:#000000;stroke-width:0.919884;stroke-dasharray:none;stroke-opacity:1"
       d="m 186.42508,279.88109 h 150.26294 c 2.64329,0 4.77126,2.48906 4.77126,5.58078 v 104.88802 c 0,3.09175 -2.12797,5.58078 -4.77126,5.58078 H 186.42508 c -2.64328,0 -4.77127,-2.48903 -4.77127,-5.58078 V 285.46187 c 0,-3.09172 2.12799,-5.58078 4.77127,-5.58078 z" />
    <path
       id="path15"
       style="opacity:0.696675;fill:none;fill-opacity:0.792157;stroke:#000000;stroke-width:0.919884;stroke-dasharray:none;stroke-opacity:1"
       d="m 212.96915,320.88156 h 97.17477 c 1.70946,0 3.08558,1.60966 3.08558,3.60909 v 67.83092 c 0,1.99943 -1.37612,3.6091 -3.08558,3.6091 h -97.17477 c -1.70942,0 -3.08561,-1.60967 -3.08561,-3.6091 v -67.83092 c 0,-1.99943 1.37619,-3.60909 3.08561,-3.60909 z" />
  </g>
</svg>
