<?xml version="1.0" encoding="UTF-8" standalone="no"?>
<!-- Created with Inkscape (http://www.inkscape.org/) -->

<svg
   width="513.96973"
   height="445.00854"
   viewBox="0 0 513.96973 445.00854"
   version="1.1"
   id="svg1"
   inkscape:version="1.4 (e7c3feb100, 2024-10-09)"
   sodipodi:docname="cluster_auto_sharding.svg"
   inkscape:export-filename="cluster_map.png"
   inkscape:export-xdpi="200"
   inkscape:export-ydpi="200"
   xmlns:inkscape="http://www.inkscape.org/namespaces/inkscape"
   xmlns:sodipodi="http://sodipodi.sourceforge.net/DTD/sodipodi-0.dtd"
   xmlns:xlink="http://www.w3.org/1999/xlink"
   xmlns="http://www.w3.org/2000/svg"
   xmlns:svg="http://www.w3.org/2000/svg">
  <sodipodi:namedview
     id="namedview1"
     pagecolor="#ffffff"
     bordercolor="#666666"
     borderopacity="1.0"
     inkscape:showpageshadow="2"
     inkscape:pageopacity="0.0"
     inkscape:pagecheckerboard="0"
     inkscape:deskcolor="#d1d1d1"
     inkscape:document-units="mm"
     showguides="false"
     inkscape:zoom="1.0141844"
     inkscape:cx="181.91958"
     inkscape:cy="153.32518"
     inkscape:window-width="1858"
     inkscape:window-height="1014"
     inkscape:window-x="62"
     inkscape:window-y="29"
     inkscape:window-maximized="1"
     inkscape:current-layer="layer1" />
  <defs
     id="defs1">
    <linearGradient
       id="linearGradient139"
       inkscape:collect="always">
      <stop
         style="stop-color:#ffffff;stop-opacity:1;"
         offset="0"
         id="stop139" />
      <stop
         style="stop-color:#c3c3c3;stop-opacity:1;"
         offset="0.99773723"
         id="stop140" />
    </linearGradient>
    <linearGradient
       id="linearGradient133"
       inkscape:collect="always">
      <stop
         style="stop-color:#cccccc;stop-opacity:0.50736368;"
         offset="0"
         id="stop133" />
      <stop
         style="stop-color:#e7e7e7;stop-opacity:0;"
         offset="0.49700609"
         id="stop135" />
      <stop
         style="stop-color:#d1d1d1;stop-opacity:0.52094537;"
         offset="1"
         id="stop134" />
    </linearGradient>
    <inkscape:perspective
       sodipodi:type="inkscape:persp3d"
       inkscape:vp_x="-94.727724 : 780.01337 : 1"
       inkscape:vp_y="0 : 6124.1835 : 0"
       inkscape:vp_z="960.61459 : 846.87096 : 1"
       inkscape:persp3d-origin="245.27192 : 112.16281 : 1"
       id="perspective1" />
    <linearGradient
       inkscape:collect="always"
       xlink:href="#linearGradient133"
       id="linearGradient145"
       gradientUnits="userSpaceOnUse"
       gradientTransform="translate(-905.05183,66.22866)"
       x1="1232.27"
       y1="-189.80646"
       x2="1291.3629"
       y2="-189.80646" />
    <radialGradient
       inkscape:collect="always"
       xlink:href="#linearGradient139"
       id="radialGradient61"
       gradientUnits="userSpaceOnUse"
       gradientTransform="matrix(2.2436668e-6,-0.9734035,2.1474922,0,541.73697,993.82588)"
       cx="1112.4368"
       cy="-85.774612"
       fx="1112.4368"
       fy="-85.774612"
       r="30.264471" />
    <radialGradient
       inkscape:collect="always"
       xlink:href="#linearGradient139"
       id="radialGradient23"
       gradientUnits="userSpaceOnUse"
       gradientTransform="matrix(2.2436668e-6,-0.9734035,2.1474922,0,507.08156,1115.0994)"
       cx="1112.4368"
       cy="-85.774612"
       fx="1112.4368"
       fy="-85.774612"
       r="30.264471" />
    <radialGradient
       inkscape:collect="always"
       xlink:href="#linearGradient139"
       id="radialGradient39"
       gradientUnits="userSpaceOnUse"
       gradientTransform="matrix(2.2436668e-6,-0.9734035,2.1474922,0,620.37936,1113.705)"
       cx="1112.4368"
       cy="-85.774612"
       fx="1112.4368"
       fy="-85.774612"
       r="30.264471" />
    <radialGradient
       inkscape:collect="always"
       xlink:href="#linearGradient139"
       id="radialGradient53"
       gradientUnits="userSpaceOnUse"
       gradientTransform="matrix(2.2436668e-6,-0.9734035,2.1474922,0,454.18865,1232.6393)"
       cx="1112.4368"
       cy="-85.774612"
       fx="1112.4368"
       fy="-85.774612"
       r="30.264471" />
    <radialGradient
       inkscape:collect="always"
       xlink:href="#linearGradient139"
       id="radialGradient87"
       gradientUnits="userSpaceOnUse"
       gradientTransform="matrix(2.2436668e-6,-0.9734035,2.1474922,0,565.96937,1231.6533)"
       cx="1112.4368"
       cy="-85.774612"
       fx="1112.4368"
       fy="-85.774612"
       r="30.264471" />
    <radialGradient
       inkscape:collect="always"
       xlink:href="#linearGradient139"
       id="radialGradient110"
       gradientUnits="userSpaceOnUse"
       gradientTransform="matrix(2.2436668e-6,-0.9734035,2.1474922,0,678.99984,1230.6673)"
       cx="1112.4368"
       cy="-85.774612"
       fx="1112.4368"
       fy="-85.774612"
       r="30.264471" />
    <linearGradient
       inkscape:collect="always"
       xlink:href="#linearGradient133"
       id="linearGradient110"
       gradientUnits="userSpaceOnUse"
       gradientTransform="translate(-939.70722,187.50216)"
       x1="1232.27"
       y1="-189.80646"
       x2="1291.3629"
       y2="-189.80646" />
    <linearGradient
       inkscape:collect="always"
       xlink:href="#linearGradient133"
       id="linearGradient123"
       gradientUnits="userSpaceOnUse"
       gradientTransform="translate(-826.40943,186.10771)"
       x1="1232.27"
       y1="-189.80646"
       x2="1291.3629"
       y2="-189.80646" />
    <linearGradient
       inkscape:collect="always"
       xlink:href="#linearGradient133"
       id="linearGradient130"
       gradientUnits="userSpaceOnUse"
       gradientTransform="translate(-992.60015,305.04203)"
       x1="1232.27"
       y1="-189.80646"
       x2="1291.3629"
       y2="-189.80646" />
    <linearGradient
       inkscape:collect="always"
       xlink:href="#linearGradient133"
       id="linearGradient131"
       gradientUnits="userSpaceOnUse"
       gradientTransform="translate(-880.81942,304.05602)"
       x1="1232.27"
       y1="-189.80646"
       x2="1291.3629"
       y2="-189.80646" />
    <linearGradient
       inkscape:collect="always"
       xlink:href="#linearGradient133"
       id="linearGradient136"
       gradientUnits="userSpaceOnUse"
       gradientTransform="translate(-767.7888,303.06988)"
       x1="1232.27"
       y1="-189.80646"
       x2="1291.3629"
       y2="-189.80646" />
  </defs>
  <g
     inkscape:label="Layer 1"
     inkscape:groupmode="layer"
     id="layer1"
     transform="translate(-210.88057,184.98224)">
    <path
       style="font-size:14.7198px;line-height:1.25;font-family:HelveticaNeueCyr;-inkscape-font-specification:HelveticaNeueCyr;text-align:center;text-anchor:middle;stroke-width:2.19479"
       d="m 639.87394,189.96258 q 0.0442,-1.61918 0.89791,-2.50236 0.86846,-0.88319 2.41404,-0.88319 1.38366,0 2.22269,0.75071 0.83903,0.75071 0.83903,1.97245 0,0.73599 -0.38271,1.32478 -0.368,0.57408 -1.04511,0.85375 0.88319,0.20608 1.39838,0.88319 0.5152,0.67711 0.5152,1.6339 0.0147,1.44254 -1.00095,2.34045 -1.00095,0.88318 -2.60541,0.88318 -1.58973,0 -2.54652,-0.86846 -0.94207,-0.88319 -0.94207,-2.36989 v -0.19136 h 1.23646 q 0.0442,1.11871 0.63296,1.72222 0.58879,0.60351 1.63389,0.60351 1.00095,0 1.61918,-0.55935 0.63295,-0.57408 0.63295,-1.47198 0,-0.91263 -0.63295,-1.45726 -0.61823,-0.54464 -1.67806,-0.54464 -0.26495,0 -0.67711,0.0589 v -1.05982 q 0.20608,0.0147 0.42688,0.0147 0.97151,0 1.53086,-0.45632 0.57407,-0.47103 0.57407,-1.2659 0,-0.76543 -0.50047,-1.23646 -0.48576,-0.47104 -1.31007,-0.47104 -0.94206,0 -1.47198,0.60352 -0.52991,0.58879 -0.55935,1.69277 z m 13.86605,-3.42971 v 1.53086 h -1.26591 v -1.53086 z m 0,2.88508 v 7.59542 h -1.26591 v -7.59542 z m 3.12059,0 v 1.17758 q 0.94207,-1.38366 2.59069,-1.38366 1.3395,0 1.92829,0.70655 0.60351,0.69183 0.60351,2.04606 v 5.04889 h -1.25118 v -4.47482 q 0,-0.55935 -0.0442,-0.86847 -0.0294,-0.32384 -0.17664,-0.67711 -0.14719,-0.368 -0.50047,-0.52991 -0.35327,-0.16192 -0.91263,-0.16192 -2.16381,0 -2.16381,2.73788 v 3.97435 H 655.683 v -7.59542 z m 12.64431,2.20797 h -1.25118 q -0.11776,-1.38366 -1.8547,-1.38366 -0.72127,0 -1.13342,0.27967 -0.41216,0.27968 -0.41216,0.75071 0,0.13248 0.0294,0.26496 0.0294,0.11776 0.10304,0.2208 0.0883,0.0883 0.1472,0.16192 0.0736,0.0736 0.22079,0.14719 0.16192,0.0589 0.23552,0.10304 0.0883,0.0442 0.2944,0.10304 0.22079,0.0442 0.30911,0.0736 0.0883,0.0147 0.33856,0.0736 0.26495,0.0589 0.33855,0.0736 0.54464,0.11776 0.80959,0.19136 0.27968,0.0736 0.75071,0.27967 0.48576,0.19136 0.73599,0.41216 0.25024,0.20607 0.4416,0.58879 0.20607,0.36799 0.20607,0.83903 0,1.10398 -0.86846,1.78109 -0.85375,0.66239 -2.28157,0.66239 -1.54558,0 -2.38461,-0.67711 -0.82431,-0.67711 -0.88319,-1.95773 h 1.23646 q 0.10304,1.60446 2.06078,1.60446 0.83902,0 1.3395,-0.33856 0.51519,-0.35327 0.51519,-0.92735 0,-0.38271 -0.26496,-0.63295 -0.26495,-0.25023 -0.58879,-0.35327 -0.32383,-0.11776 -0.92734,-0.26496 -0.0883,-0.0147 -0.13248,-0.0294 -0.13248,-0.0294 -0.57408,-0.11776 -0.42687,-0.10303 -0.61823,-0.16191 -0.19135,-0.0589 -0.55935,-0.17664 -0.35327,-0.13248 -0.52991,-0.26496 -0.17664,-0.1472 -0.39744,-0.35327 -0.20607,-0.2208 -0.29439,-0.50048 -0.0883,-0.29439 -0.0883,-0.66239 0,-1.03038 0.78015,-1.6339 0.79487,-0.60351 2.11965,-0.60351 1.3395,0 2.17853,0.63295 0.85375,0.63296 0.85375,1.79582 z m 4.97529,-2.20797 v 1.03039 h -1.51614 v 4.43066 q 0,0.36799 0,0.48575 0.0147,0.11776 0.0883,0.32383 0.0736,0.19136 0.25024,0.25024 0.17664,0.0589 0.50047,0.0589 0.27968,0 0.67711,-0.0442 v 1.07455 q -0.52991,0.0589 -0.95679,0.0589 -0.52991,0 -0.88318,-0.11776 -0.35328,-0.11776 -0.54464,-0.26496 -0.17663,-0.1472 -0.26495,-0.51519 -0.0883,-0.38272 -0.10304,-0.63295 -0.0147,-0.26496 -0.0147,-0.86847 0,-0.13248 0,-0.20608 v -4.03322 h -1.28062 v -1.03039 h 1.28062 v -2.25213 h 1.25118 v 2.25213 z m 8.11062,6.59447 v 0.97151 q -0.38271,0.1472 -0.85375,0.1472 -1.07454,0 -1.10398,-1.11871 -1.07455,1.20702 -2.75261,1.20702 -1.1187,0 -1.78109,-0.57407 -0.64767,-0.57407 -0.64767,-1.57502 0,-2.03133 2.69372,-2.36988 1.58974,-0.19136 1.83998,-0.27968 0.52991,-0.17664 0.57407,-0.73599 0.0147,-0.0883 0.0147,-0.19136 0,-1.25118 -1.72222,-1.25118 -0.88319,0 -1.3395,0.36799 -0.45631,0.35328 -0.54463,1.17759 h -1.22175 q 0.0294,-1.22175 0.86847,-1.89886 0.83903,-0.67711 2.31101,-0.67711 1.60446,0 2.38461,0.73599 0.25023,0.23552 0.36799,0.61823 0.11776,0.38272 0.13248,0.63296 0.0147,0.23551 0.0147,0.72127 0,0.57407 -0.0294,1.70749 -0.0294,1.11871 -0.0294,1.67806 0,0.41215 0.10304,0.58879 0.11776,0.16192 0.41215,0.16192 0.11776,0 0.30912,-0.0442 z m -2.01661,-2.94396 q -0.13248,0.10304 -0.27968,0.17664 -0.1472,0.0736 -0.38271,0.11776 -0.2208,0.0442 -0.30912,0.0736 -0.0736,0.0147 -0.38271,0.0589 -0.30912,0.0294 -0.32384,0.0294 -0.45631,0.0589 -0.60351,0.0883 -0.13248,0.0147 -0.52991,0.11776 -0.38272,0.10304 -0.54464,0.23552 -0.16191,0.13248 -0.32383,0.39743 -0.1472,0.25024 -0.1472,0.60351 0,0.5888 0.39743,0.92735 0.41216,0.33856 1.11871,0.33856 0.89791,0 1.60446,-0.52992 0.70655,-0.52991 0.70655,-1.25118 z m 4.37179,-3.65051 v 1.17758 q 0.94206,-1.38366 2.59068,-1.38366 1.3395,0 1.9283,0.70655 0.60351,0.69183 0.60351,2.04606 v 5.04889 h -1.25119 v -4.47482 q 0,-0.55935 -0.0442,-0.86847 -0.0294,-0.32384 -0.17663,-0.67711 -0.1472,-0.368 -0.50048,-0.52991 -0.35327,-0.16192 -0.91262,-0.16192 -2.16381,0 -2.16381,2.73788 v 3.97435 h -1.25119 v -7.59542 z m 13.54221,4.82809 q -0.16192,1.36895 -1.04511,2.17853 -0.86847,0.80959 -2.26685,0.80959 -1.72221,0 -2.66428,-1.05982 -0.94207,-1.07455 -0.94207,-2.85564 0,-1.89886 0.98623,-3.00284 0.98623,-1.11871 2.66428,-1.11871 1.39838,0 2.23741,0.70655 0.83903,0.69183 0.98623,1.98718 h -1.29534 q -0.33856,-1.64862 -1.91358,-1.64862 -1.08926,0 -1.72221,0.80959 -0.63296,0.79487 -0.63296,2.16381 0,1.38366 0.60352,2.17853 0.60351,0.79487 1.66333,0.79487 0.85375,0 1.38366,-0.50048 0.54464,-0.50047 0.69183,-1.44254 z m 7.86038,0.368 q -0.57407,2.64956 -3.31195,2.64956 -1.67806,0 -2.63485,-1.0451 -0.94206,-1.04511 -0.94206,-2.8998 0,-1.83998 0.9715,-2.9734 0.98623,-1.14815 2.56125,-1.14815 1.75166,0 2.59068,1.19231 0.85375,1.17758 0.85375,2.98812 v 0.17663 h -5.71128 l -0.0147,0.0883 q 0,1.20703 0.63295,1.89886 0.63295,0.69183 1.73694,0.69183 0.82431,0 1.29534,-0.38272 0.48575,-0.38271 0.75071,-1.23646 z m -1.20702,-2.07549 q -0.0883,-1.08927 -0.66239,-1.69278 -0.57407,-0.61823 -1.51614,-0.61823 -0.91263,0 -1.51614,0.61823 -0.60351,0.61823 -0.72127,1.69278 z m 8.25782,-0.91263 h -1.25119 q -0.11776,-1.38366 -1.85469,-1.38366 -0.72127,0 -1.13343,0.27967 -0.41215,0.27968 -0.41215,0.75071 0,0.13248 0.0294,0.26496 0.0294,0.11776 0.10304,0.2208 0.0883,0.0883 0.1472,0.16192 0.0736,0.0736 0.22079,0.14719 0.16192,0.0589 0.23552,0.10304 0.0883,0.0442 0.2944,0.10304 0.22079,0.0442 0.30911,0.0736 0.0883,0.0147 0.33856,0.0736 0.26495,0.0589 0.33855,0.0736 0.54463,0.11776 0.80959,0.19136 0.27968,0.0736 0.75071,0.27967 0.48575,0.19136 0.73599,0.41216 0.25024,0.20607 0.44159,0.58879 0.20608,0.36799 0.20608,0.83903 0,1.10398 -0.86847,1.78109 -0.85374,0.66239 -2.28157,0.66239 -1.54557,0 -2.3846,-0.67711 -0.82431,-0.67711 -0.88319,-1.95773 h 1.23646 q 0.10304,1.60446 2.06077,1.60446 0.83903,0 1.33951,-0.33856 0.51519,-0.35327 0.51519,-0.92735 0,-0.38271 -0.26496,-0.63295 -0.26495,-0.25023 -0.58879,-0.35327 -0.32384,-0.11776 -0.92735,-0.26496 -0.0883,-0.0147 -0.13248,-0.0294 -0.13247,-0.0294 -0.57407,-0.11776 -0.42687,-0.10303 -0.61823,-0.16191 -0.19136,-0.0589 -0.55935,-0.17664 -0.35328,-0.13248 -0.52991,-0.26496 -0.17664,-0.1472 -0.39744,-0.35327 -0.20608,-0.2208 -0.29439,-0.50048 -0.0883,-0.29439 -0.0883,-0.66239 0,-1.03038 0.78015,-1.6339 0.79487,-0.60351 2.11965,-0.60351 1.3395,0 2.17853,0.63295 0.85375,0.63296 0.85375,1.79582 z"
       id="text3"
       aria-label="3 instances" />
    <g
       id="g3">
      <path
         id="rect141"
         style="fill:#dfdfdf;fill-opacity:0.61;stroke-width:0.749481"
         d="M 353.6431,-184.98224 H 492.574 c 8.0508,0 14.53214,6.48134 14.53214,14.53214 v 110.33598 c 0,8.050808 -6.48134,14.532144 -14.53214,14.532144 H 353.6431 c -8.05081,0 -14.53215,-6.481336 -14.53215,-14.532144 V -170.4501 c 0,-8.0508 6.48134,-14.53214 14.53215,-14.53214 z" />
      <g
         id="g132"
         transform="matrix(1.2816544,0,0,1.2816544,-34.144943,52.101059)">
        <path
           id="path260"
           style="fill:#ffffff;fill-opacity:0.86519;stroke:#000000;stroke-width:0.264999"
           d="m 356.76745,-175.09862 c -16.6416,-1e-5 -30.1322,4.8473 -30.1321,10.82673 0.01,0.04 0.013,0.0799 0.02,0.11989 v 68.598387 c -0.01,0.0399 -0.014,0.0799 -0.02,0.11989 0.01,0.04 0.013,0.0799 0.02,0.11989 v 0.0961 h 0.016 c 0.327,5.88986 13.7004,10.60484 30.096,10.61072 16.4046,-0.001 29.792,-4.71762 30.1191,-10.61073 h 0.017 v -69.138377 h -0.01 c -0.1286,-5.94585 -13.5787,-10.74176 -30.1273,-10.7425 z"
           sodipodi:nodetypes="ccccccccccccccc" />
        <path
           id="ellipse48"
           style="fill:url(#radialGradient61);stroke:#000000;stroke-width:0.264999"
           d="m 386.90013,-95.433655 a 30.131971,10.826639 0 0 1 -30.13197,10.826639 30.131971,10.826639 0 0 1 -30.13197,-10.826639 30.131971,10.826639 0 0 1 30.13197,-10.826635 30.131971,10.826639 0 0 1 30.13197,10.826635 z" />
        <g
           id="g9"
           transform="translate(157.71423,-125.98414)">
          <path
             id="path8"
             style="fill:#378503;fill-opacity:0.988235;stroke:#000000;stroke-width:0.264999"
             d="m 198.98148,19.723587 c -11.04678,0.003 -21.20295,2.17824 -26.46661,5.66788 h -3.69486 v 4.85551 c 0,0 0.003,-0.15598 2.3e-4,-0.005 -1.4e-4,5.97943 13.51929,11.13516 30.16084,11.13515 16.64154,10e-6 30.16241,-5.11536 30.16227,-11.09479 0.002,-0.032 -0.004,-0.003 -8.6e-4,-0.0209 v -4.86993 h -3.67573 c -5.26693,-3.49185 -15.43209,-5.66716 -26.48572,-5.66792 z"
             sodipodi:nodetypes="cccccscccccc" />
          <path
             d="m 199.15585,14.383863 a 30.131971,10.826639 0 0 0 -30.13203,10.82673 30.131971,10.826639 0 0 0 30.13203,10.82673 30.131971,10.826639 0 0 0 30.13201,-10.82673 30.131971,10.826639 0 0 0 -30.13201,-10.82673 z"
             style="fill:#409a02;fill-opacity:0.988235;stroke:#000000;stroke-width:0.264999"
             id="path9" />
        </g>
        <g
           id="g6"
           transform="translate(164.93257,-119.51034)">
          <path
             id="path3"
             style="fill:#8ad8d5;fill-opacity:0.988235;stroke:#000000;stroke-width:0.264999"
             d="m 191.835,0.37581 c -11.04678,0.003 -21.20295,2.17824 -26.46661,5.66788 h -3.69486 v 4.85551 c 0,0 0.003,-0.15598 2.3e-4,-0.005 -1.4e-4,5.97943 13.51929,11.13516 30.16084,11.13515 16.64154,10e-6 30.16241,-5.11536 30.16227,-11.09479 0.002,-0.032 -0.004,-0.003 -8.6e-4,-0.0209 V 6.04373 h -3.67573 C 213.05335,2.55188 202.88819,0.37657 191.83456,0.37581 Z"
             sodipodi:nodetypes="cccccscccccc" />
          <path
             d="M 191.83507,-4.78961 A 30.131971,10.826639 0 0 0 161.70304,6.03712 30.131971,10.826639 0 0 0 191.83507,16.86385 30.131971,10.826639 0 0 0 221.96708,6.03712 30.131971,10.826639 0 0 0 191.83507,-4.78961 Z"
             style="fill:#a9e3e1;fill-opacity:1;stroke:#000000;stroke-width:0.264999"
             id="path6" />
        </g>
        <g
           id="g124"
           transform="translate(165.90363,-286.5212)">
          <path
             id="path1"
             style="fill:#eda699;fill-opacity:0.866667;stroke:#000000;stroke-width:0.264999"
             d="m 190.86394,154.687 c -11.04678,0.003 -21.20295,2.17824 -26.46661,5.66788 h -3.69486 v 4.85551 c 0,0 0.003,-0.15598 2.3e-4,-0.005 -1.4e-4,5.97943 13.51929,11.13516 30.16084,11.13515 16.64154,1e-5 30.16241,-5.11536 30.16227,-11.09479 0.002,-0.032 -0.004,-0.003 -8.6e-4,-0.0209 v -4.86993 h -3.67573 c -5.26693,-3.49185 -15.43209,-5.66716 -26.48572,-5.66792 z"
             sodipodi:nodetypes="cccccscccccc" />
          <path
             d="m 190.86401,149.52158 a 30.131971,10.826639 0 0 0 -30.13203,10.82673 30.131971,10.826639 0 0 0 30.13203,10.82673 30.131971,10.826639 0 0 0 30.13201,-10.82673 30.131971,10.826639 0 0 0 -30.13201,-10.82673 z"
             style="fill:#ebbdb4;fill-opacity:1;stroke:#000000;stroke-width:0.264999"
             id="path2" />
        </g>
        <g
           id="g117"
           transform="translate(166.06776,-149.56315)">
          <path
             id="path261"
             style="fill:#a4468c;fill-opacity:1;stroke:#000000;stroke-width:0.264999"
             d="m 190.69981,5.029293 c -11.04678,0.0033 -21.20295,2.178235 -26.46661,5.667871 h -3.69486 v 4.855518 c 0,0 0.003,-0.155984 2.3e-4,-0.005 -1.4e-4,5.97943 13.51929,11.135154 30.16084,11.135144 16.64154,8e-6 30.16241,-5.115362 30.16227,-11.094791 0.002,-0.03197 -0.004,-0.0032 -8.6e-4,-0.02087 v -4.86993 h -3.67574 C 211.91815,7.205392 201.75299,5.030075 190.69936,5.02932 Z"
             sodipodi:nodetypes="cccccscccccc" />
          <path
             d="M 190.69987,-0.136133 A 30.131971,10.826639 0 0 0 160.56785,10.690596 30.131971,10.826639 0 0 0 190.69987,21.517327 30.131971,10.826639 0 0 0 220.83189,10.690596 30.131971,10.826639 0 0 0 190.69987,-0.136133 Z"
             style="fill:#ad6099;fill-opacity:1;stroke:#000000;stroke-width:0.264999"
             id="path262" />
        </g>
        <path
           d="m 356.76822,-175.09862 a 30.131971,10.826639 0 0 0 -30.1321,10.82673 30.131971,10.826639 0 0 0 30.1321,10.82673 30.131971,10.826639 0 0 0 30.132,-10.82673 30.131971,10.826639 0 0 0 -30.132,-10.82673 z"
           style="fill:#ffffff;fill-opacity:1;stroke:#000000;stroke-width:0.264999"
           id="path267" />
        <g
           id="g121"
           transform="translate(165.90363,-282.85894)">
          <path
             id="path263"
             style="fill:#47817f;fill-opacity:1;stroke:#000000;stroke-width:0.264999"
             d="m 190.86394,125.62541 c -11.04678,0.003 -21.20295,2.17823 -26.46661,5.66787 h -3.69486 v 4.85552 c 0,0 0.003,-0.15599 2.3e-4,-0.005 -1.4e-4,5.97943 13.51929,11.13515 30.16084,11.13514 16.64154,1e-5 30.16241,-5.11536 30.16227,-11.09479 0.002,-0.032 -0.004,-0.003 -8.6e-4,-0.0209 v -4.86993 h -3.67573 c -5.26693,-3.49184 -15.4321,-5.66716 -26.48573,-5.66791 z"
             sodipodi:nodetypes="cccccscccccc" />
          <path
             d="m 190.86401,120.45998 a 30.131971,10.826639 0 0 0 -30.13203,10.82673 30.131971,10.826639 0 0 0 30.13203,10.82673 30.131971,10.826639 0 0 0 30.13201,-10.82673 30.131971,10.826639 0 0 0 -30.13201,-10.82673 z"
             style="fill:#5b9593;fill-opacity:1;stroke:#000000;stroke-width:0.264999"
             id="path264" />
        </g>
        <path
           id="path145"
           style="fill:url(#linearGradient145);fill-opacity:1;stroke:none;stroke-width:0.264999"
           d="m 356.77064,-168.37536 c -11.046,0.003 -21.2015,2.17658 -26.4648,5.66601 h -3.6953 v 16.95457 0.0547 0.006 c 0,0.16204 0.015,0.32362 0.035,0.48437 -4e-4,0.0235 -0.01,0.0468 -0.01,0.0703 0.01,0.04 0.013,0.0791 0.02,0.11914 v 49.59849 c -0.01,0.04 -0.014,0.0811 -0.02,0.1211 0.01,0.04 0.013,0.0792 0.02,0.119137 v 0.0957 h 0.016 c 0.327,5.88986 13.7002,10.60545 30.0957,10.61133 16.4046,-0.001 29.79209,-4.71823 30.11919,-10.61133 h 0.018 v -50.137547 h -0.01 c 0.016,-0.14513 0.031,-0.28932 0.031,-0.43555 0,-0.032 8e-4,-0.004 0,-0.0215 v -17.02879 h -3.6758 c -5.26649,-3.49163 -15.43139,-5.66501 -26.48429,-5.66601 z"
           sodipodi:nodetypes="ccccsscccccccccccccsccccc" />
        <g
           id="g111"
           transform="translate(166.06776,-145.93132)">
          <path
             id="path265"
             style="fill:#ed453a;fill-opacity:1;stroke:#000000;stroke-width:0.264999"
             d="m 190.69981,-24.001879 c -11.04678,0.0033 -21.20295,2.178235 -26.46661,5.667871 h -3.69486 v 4.855518 c 0,0 0.003,-0.155984 2.3e-4,-0.005 -1.4e-4,5.97943 13.51929,11.135154 30.16084,11.135144 16.64154,8e-6 30.16241,-5.115362 30.16227,-11.094791 0.002,-0.03197 -0.004,-0.0032 -8.6e-4,-0.02087 v -4.86993 h -3.67574 c -5.26693,-3.491843 -15.43209,-5.66716 -26.48572,-5.667915 z"
             sodipodi:nodetypes="cccccscccccc" />
          <path
             d="m 190.69987,-29.167305 a 30.131971,10.826639 0 0 0 -30.13202,10.826729 30.131971,10.826639 0 0 0 30.13202,10.826731 30.131971,10.826639 0 0 0 30.13202,-10.826731 30.131971,10.826639 0 0 0 -30.13202,-10.826729 z"
             style="fill:#e45c52;fill-opacity:1;stroke:#000000;stroke-width:0.264999"
             id="path266" />
        </g>
      </g>
    </g>
    <g
       id="g2">
      <path
         id="rect142"
         style="fill:#dfdfdf;fill-opacity:0.61;stroke-width:1.01823"
         d="m 282.60256,-32.178101 h 281.01196 c 8.0508,0 14.53214,6.481337 14.53214,14.532145 V 92.690016 c 0,8.050804 -6.48134,14.532144 -14.53214,14.532144 H 282.60256 c -8.0508,0 -14.53214,-6.48134 -14.53214,-14.532144 V -17.645956 c 0,-8.050808 6.48134,-14.532145 14.53214,-14.532145 z" />
      <g
         id="g140"
         transform="matrix(1.2816544,0,0,1.2816544,-62.379064,50.231828)">
        <g
           id="g133"
           transform="translate(0,-1.3944345)">
          <path
             id="path10"
             style="fill:#ffffff;fill-opacity:0.86519;stroke:#000000;stroke-width:0.264999"
             d="m 322.11205,-53.825125 c -16.6416,-1e-5 -30.1322,4.8473 -30.1321,10.82673 0.01,0.04 0.013,0.0799 0.02,0.11989 v 68.59839 c -0.01,0.0399 -0.014,0.0799 -0.02,0.11989 0.01,0.04 0.013,0.0799 0.02,0.11989 v 0.0961 h 0.016 c 0.327,5.88986 13.7004,10.60484 30.096,10.61072 16.4046,-0.001 29.792,-4.71762 30.1191,-10.61073 h 0.017 v -69.13838 h -0.01 c -0.1286,-5.94585 -13.5787,-10.74176 -30.1273,-10.7425 z"
             sodipodi:nodetypes="ccccccccccccccc" />
          <path
             id="ellipse10"
             style="fill:url(#radialGradient23);stroke:#000000;stroke-width:0.264999"
             d="m 352.24473,25.839846 a 30.131971,10.826639 0 0 1 -30.13197,10.826639 30.131971,10.826639 0 0 1 -30.13197,-10.826639 30.131971,10.826639 0 0 1 30.13197,-10.82664 30.131971,10.826639 0 0 1 30.13197,10.82664 z" />
          <g
             id="g14"
             transform="translate(130.27717,1.7631612)">
            <path
               id="path13"
               style="fill:#8ad8d5;fill-opacity:0.988235;stroke:#000000;stroke-width:0.264999"
               d="m 191.835,0.37581 c -11.04678,0.003 -21.20295,2.17824 -26.46661,5.66788 h -3.69486 v 4.85551 c 0,0 0.003,-0.15598 2.3e-4,-0.005 -1.4e-4,5.97943 13.51929,11.13516 30.16084,11.13515 16.64154,10e-6 30.16241,-5.11536 30.16227,-11.09479 0.002,-0.032 -0.004,-0.003 -8.6e-4,-0.0209 V 6.04373 h -3.67573 C 213.05335,2.55188 202.88819,0.37657 191.83456,0.37581 Z"
               sodipodi:nodetypes="cccccscccccc" />
            <path
               d="M 191.83507,-4.78961 A 30.131971,10.826639 0 0 0 161.70304,6.03712 30.131971,10.826639 0 0 0 191.83507,16.86385 30.131971,10.826639 0 0 0 221.96708,6.03712 30.131971,10.826639 0 0 0 191.83507,-4.78961 Z"
               style="fill:#a9e3e1;fill-opacity:1;stroke:#000000;stroke-width:0.264999"
               id="path14" />
          </g>
          <g
             id="g18"
             transform="translate(131.41236,-28.289654)">
            <path
               id="path17"
               style="fill:#a4468c;fill-opacity:1;stroke:#000000;stroke-width:0.264999"
               d="m 190.69981,5.029293 c -11.04678,0.0033 -21.20295,2.178235 -26.46661,5.667871 h -3.69486 v 4.855518 c 0,0 0.003,-0.155984 2.3e-4,-0.005 -1.4e-4,5.97943 13.51929,11.135154 30.16084,11.135144 16.64154,8e-6 30.16241,-5.115362 30.16227,-11.094791 0.002,-0.03197 -0.004,-0.0032 -8.6e-4,-0.02087 v -4.86993 h -3.67574 C 211.91815,7.205392 201.75299,5.030075 190.69936,5.02932 Z"
               sodipodi:nodetypes="cccccscccccc" />
            <path
               d="M 190.69987,-0.136133 A 30.131971,10.826639 0 0 0 160.56785,10.690596 30.131971,10.826639 0 0 0 190.69987,21.517327 30.131971,10.826639 0 0 0 220.83189,10.690596 30.131971,10.826639 0 0 0 190.69987,-0.136133 Z"
               style="fill:#ad6099;fill-opacity:1;stroke:#000000;stroke-width:0.264999"
               id="path18" />
          </g>
          <path
             d="m 322.11282,-53.825125 a 30.131971,10.826639 0 0 0 -30.1321,10.82673 30.131971,10.826639 0 0 0 30.1321,10.82673 30.131971,10.826639 0 0 0 30.132,-10.82673 30.131971,10.826639 0 0 0 -30.132,-10.82673 z"
             style="fill:#ffffff;fill-opacity:1;stroke:#000000;stroke-width:0.264999"
             id="path19" />
          <path
             id="path22"
             style="fill:#ed453a;fill-opacity:1;stroke:#000000;stroke-width:0.264999"
             d="m 322.11217,-48.659699 c -11.04678,0.0033 -21.20295,2.178235 -26.46661,5.667871 h -3.69486 v 4.855518 c 0,0 0.003,-0.155984 2.3e-4,-0.005 -1.4e-4,5.97943 13.51929,11.135154 30.16084,11.135144 16.64154,8e-6 30.16241,-5.115362 30.16227,-11.094791 0.002,-0.03197 -0.004,-0.0032 -8.6e-4,-0.02087 v -4.86993 h -3.67574 c -5.26693,-3.491843 -15.43209,-5.66716 -26.48572,-5.667915 z"
             sodipodi:nodetypes="cccccscccccc" />
          <path
             id="path110"
             style="fill:url(#linearGradient110);fill-opacity:1;stroke:none;stroke-width:0.264999"
             d="m 322.11525,-47.101852 c -11.046,0.003 -21.2015,2.17658 -26.4648,5.66601 h -3.6953 v 16.95457 0.0547 0.006 c 0,0.16204 0.015,0.32362 0.035,0.48437 -4e-4,0.0235 -0.01,0.0468 -0.01,0.0703 0.01,0.04 0.013,0.0791 0.02,0.11914 v 49.59848 c -0.01,0.04 -0.014,0.0811 -0.02,0.1211 0.01,0.04 0.013,0.0792 0.02,0.119137 v 0.0957 h 0.016 c 0.327,5.88986 13.7002,10.60545 30.0957,10.61133 16.4046,-0.001 29.79209,-4.71823 30.11919,-10.61133 h 0.018 v -50.137537 h -0.01 c 0.016,-0.14513 0.031,-0.28932 0.031,-0.43555 0,-0.032 8e-4,-0.004 0,-0.0215 v -17.02879 h -3.6758 c -5.26649,-3.49163 -15.43139,-5.66501 -26.48429,-5.66601 z"
             sodipodi:nodetypes="ccccsscccccccccccccsccccc" />
          <path
             d="m 322.11223,-53.825125 a 30.131971,10.826639 0 0 0 -30.13202,10.826729 30.131971,10.826639 0 0 0 30.13202,10.826731 30.131971,10.826639 0 0 0 30.13202,-10.826731 30.131971,10.826639 0 0 0 -30.13202,-10.826729 z"
             style="fill:#e45c52;fill-opacity:1;stroke:#000000;stroke-width:0.264999"
             id="path23" />
        </g>
        <g
           id="g137">
          <path
             id="path24"
             style="fill:#ffffff;fill-opacity:0.86519;stroke:#000000;stroke-width:0.264999"
             d="m 435.40984,-55.219559 c -16.6416,-1e-5 -30.1322,4.8473 -30.1321,10.82673 0.01,0.04 0.013,0.0799 0.02,0.11989 v 68.59839 c -0.01,0.0399 -0.014,0.0799 -0.02,0.11989 0.01,0.04 0.013,0.0799 0.02,0.11989 v 0.0961 h 0.016 c 0.327,5.88986 13.7004,10.60484 30.096,10.61072 16.4046,-10e-4 29.792,-4.71762 30.1191,-10.61073 h 0.017 v -69.13838 h -0.01 c -0.1286,-5.94585 -13.5787,-10.74176 -30.1273,-10.7425 z"
             sodipodi:nodetypes="ccccccccccccccc" />
          <path
             id="ellipse24"
             style="fill:url(#radialGradient39);stroke:#000000;stroke-width:0.264999"
             d="M 465.54252,24.445412 A 30.131971,10.826639 0 0 1 435.41055,35.272051 30.131971,10.826639 0 0 1 405.27858,24.445412 30.131971,10.826639 0 0 1 435.41055,13.618773 30.131971,10.826639 0 0 1 465.54252,24.445412 Z" />
          <g
             id="g26"
             transform="translate(236.35663,-6.1050766)">
            <path
               id="path25"
               style="fill:#378503;fill-opacity:0.988235;stroke:#000000;stroke-width:0.264999"
               d="m 198.98148,19.723587 c -11.04678,0.003 -21.20295,2.17824 -26.46661,5.66788 h -3.69486 v 4.85551 c 0,0 0.003,-0.15598 2.3e-4,-0.005 -1.4e-4,5.97943 13.51929,11.13516 30.16084,11.13515 16.64154,10e-6 30.16241,-5.11536 30.16227,-11.09479 0.002,-0.032 -0.004,-0.003 -8.6e-4,-0.0209 v -4.86993 h -3.67573 c -5.26693,-3.49185 -15.43209,-5.66716 -26.48572,-5.66792 z"
               sodipodi:nodetypes="cccccscccccc" />
            <path
               d="m 199.15585,14.383863 a 30.131971,10.826639 0 0 0 -30.13203,10.82673 30.131971,10.826639 0 0 0 30.13203,10.82673 30.131971,10.826639 0 0 0 30.13201,-10.82673 30.131971,10.826639 0 0 0 -30.13201,-10.82673 z"
               style="fill:#409a02;fill-opacity:0.988235;stroke:#000000;stroke-width:0.264999"
               id="path26" />
          </g>
          <g
             id="g30"
             transform="translate(244.54602,-166.64213)">
            <path
               id="path29"
               style="fill:#eda699;fill-opacity:0.866667;stroke:#000000;stroke-width:0.264999"
               d="m 190.86394,154.687 c -11.04678,0.003 -21.20295,2.17824 -26.46661,5.66788 h -3.69486 v 4.85551 c 0,0 0.003,-0.15598 2.3e-4,-0.005 -1.4e-4,5.97943 13.51929,11.13516 30.16084,11.13515 16.64154,1e-5 30.16241,-5.11536 30.16227,-11.09479 0.002,-0.032 -0.004,-0.003 -8.6e-4,-0.0209 v -4.86993 h -3.67573 c -5.26693,-3.49185 -15.43209,-5.66716 -26.48572,-5.66792 z"
               sodipodi:nodetypes="cccccscccccc" />
            <path
               d="m 190.86401,149.52158 a 30.131971,10.826639 0 0 0 -30.13203,10.82673 30.131971,10.826639 0 0 0 30.13203,10.82673 30.131971,10.826639 0 0 0 30.13201,-10.82673 30.131971,10.826639 0 0 0 -30.13201,-10.82673 z"
               style="fill:#ebbdb4;fill-opacity:1;stroke:#000000;stroke-width:0.264999"
               id="path30" />
          </g>
          <g
             id="g36"
             transform="translate(244.54602,-162.97987)">
            <path
               id="path35"
               style="fill:#47817f;fill-opacity:1;stroke:#000000;stroke-width:0.264999"
               d="m 190.86394,125.62541 c -11.04678,0.003 -21.20295,2.17823 -26.46661,5.66787 h -3.69486 v 4.85552 c 0,0 0.003,-0.15599 2.3e-4,-0.005 -1.4e-4,5.97943 13.51929,11.13515 30.16084,11.13514 16.64154,1e-5 30.16241,-5.11536 30.16227,-11.09479 0.002,-0.032 -0.004,-0.003 -8.6e-4,-0.0209 v -4.86993 h -3.67573 c -5.26693,-3.49184 -15.4321,-5.66716 -26.48573,-5.66791 z"
               sodipodi:nodetypes="cccccscccccc" />
            <path
               d="m 190.86401,120.45998 a 30.131971,10.826639 0 0 0 -30.13203,10.82673 30.131971,10.826639 0 0 0 30.13203,10.82673 30.131971,10.826639 0 0 0 30.13201,-10.82673 30.131971,10.826639 0 0 0 -30.13201,-10.82673 z"
               style="fill:#5b9593;fill-opacity:1;stroke:#000000;stroke-width:0.264999"
               id="path36" />
          </g>
          <path
             id="path123"
             style="fill:url(#linearGradient123);fill-opacity:1;stroke:none;stroke-width:0.264999"
             d="m 405.25341,-42.83061 v 16.955078 0.05469 0.0059 c 0,0.16204 0.0152,0.323625 0.0352,0.484375 -4e-4,0.0235 -0.01,0.04681 -0.01,0.07031 0.01,0.04 0.0125,0.0791 0.0195,0.119141 V 24.4565 c -0.01,0.04 -0.0135,0.08109 -0.0195,0.121094 0.01,0.04 0.0125,0.0792 0.0195,0.119141 v 0.0957 h 0.0156 c 0.327,5.88986 13.7002,10.605448 30.0957,10.611328 16.4046,-10e-4 29.79204,-4.718228 30.11914,-10.611328 h 0.0176 v -50.13672 h -0.01 c 0.016,-0.14513 0.0312,-0.289317 0.0312,-0.435547 0,-0.032 8e-4,-0.004 0,-0.02148 V -42.83061 h -0.34766 a 30.131971,10.826639 0 0 1 -29.81055,9.263672 30.131971,10.826639 0 0 1 -29.78125,-9.263672 z" />
          <path
             d="m 435.41087,-55.219559 a 30.131971,10.826639 0 0 0 -30.1321,10.82673 30.131971,10.826639 0 0 0 30.1321,10.82673 30.131971,10.826639 0 0 0 30.132,-10.82673 30.131971,10.826639 0 0 0 -30.132,-10.82673 z"
             style="fill:#ffffff;fill-opacity:0.613284;stroke:#000000;stroke-width:0.264999"
             id="path134" />
        </g>
      </g>
    </g>
    <g
       id="g1">
      <path
         id="rect143"
         style="fill:#dfdfdf;fill-opacity:0.61;stroke-width:1.19132"
         d="m 225.41271,120.62604 h 395.39166 c 8.0508,0 14.53214,6.48134 14.53214,14.53215 v 110.33597 c 0,8.05081 -6.48134,14.53214 -14.53214,14.53214 H 225.41271 c -8.0508,0 -14.53214,-6.48133 -14.53214,-14.53214 V 135.15819 c 0,-8.05081 6.48134,-14.53215 14.53214,-14.53215 z" />
      <g
         id="g139"
         transform="matrix(1.2816544,0,0,1.2816544,-66.003382,52.101059)">
        <g
           id="g135"
           transform="translate(0,-1.9720154)">
          <path
             id="path39"
             style="fill:#ffffff;fill-opacity:0.86519;stroke:#000000;stroke-width:0.264999"
             d="m 269.21912,63.714751 c -16.6416,-1e-5 -30.1322,4.8473 -30.1321,10.82673 0.01,0.04 0.013,0.0799 0.02,0.11989 v 68.598389 c -0.01,0.0399 -0.014,0.0799 -0.02,0.11989 0.01,0.04 0.013,0.0799 0.02,0.11989 v 0.0961 h 0.016 c 0.327,5.88986 13.7004,10.60484 30.096,10.61072 16.4046,-10e-4 29.792,-4.71762 30.1191,-10.61073 h 0.017 V 74.457251 h -0.01 c -0.1286,-5.94585 -13.5787,-10.74176 -30.1273,-10.7425 z"
             sodipodi:nodetypes="ccccccccccccccc" />
          <path
             id="ellipse39"
             style="fill:url(#radialGradient53);stroke:#000000;stroke-width:0.264999"
             d="m 299.35182,143.37973 a 30.131971,10.826639 0 0 1 -30.13197,10.82664 30.131971,10.826639 0 0 1 -30.13197,-10.82664 30.131971,10.826639 0 0 1 30.13197,-10.82664 30.131971,10.826639 0 0 1 30.13197,10.82664 z" />
          <g
             id="g48"
             transform="translate(78.519432,89.250222)">
            <path
               id="path46"
               style="fill:#a4468c;fill-opacity:1;stroke:#000000;stroke-width:0.264999"
               d="m 190.69981,5.029293 c -11.04678,0.0033 -21.20295,2.178235 -26.46661,5.667871 h -3.69486 v 4.855518 c 0,0 0.003,-0.155984 2.3e-4,-0.005 -1.4e-4,5.97943 13.51929,11.135154 30.16084,11.135144 16.64154,8e-6 30.16241,-5.115362 30.16227,-11.094791 0.002,-0.03197 -0.004,-0.0032 -8.6e-4,-0.02087 v -4.86993 h -3.67574 C 211.91815,7.205392 201.75299,5.030075 190.69936,5.02932 Z"
               sodipodi:nodetypes="cccccscccccc" />
            <path
               d="M 190.69987,-0.136133 A 30.131971,10.826639 0 0 0 160.56785,10.690596 30.131971,10.826639 0 0 0 190.69987,21.517327 30.131971,10.826639 0 0 0 220.83189,10.690596 30.131971,10.826639 0 0 0 190.69987,-0.136133 Z"
               style="fill:#ad6099;fill-opacity:1;stroke:#000000;stroke-width:0.264999"
               id="path48" />
          </g>
          <path
             d="m 269.21989,63.714751 a 30.131971,10.826639 0 0 0 -30.1321,10.82673 30.131971,10.826639 0 0 0 30.1321,10.82673 30.131971,10.826639 0 0 0 30.132,-10.82673 30.131971,10.826639 0 0 0 -30.132,-10.82673 z"
             style="fill:#ffffff;fill-opacity:1;stroke:#000000;stroke-width:0.264999"
             id="path49" />
          <path
             id="path52"
             style="fill:#ed453a;fill-opacity:1;stroke:#000000;stroke-width:0.264999"
             d="m 269.21924,68.880177 c -11.04678,0.0033 -21.20295,2.178235 -26.46661,5.667871 h -3.69486 v 4.855518 c 0,0 0.003,-0.155984 2.3e-4,-0.005 -1.4e-4,5.97943 13.51929,11.135154 30.16084,11.135144 16.64154,8e-6 30.16241,-5.115362 30.16227,-11.094791 0.002,-0.03197 -0.004,-0.0032 -8.6e-4,-0.02087 v -4.86993 h -3.67574 c -5.26693,-3.491843 -15.43209,-5.66716 -26.48572,-5.667915 z"
             sodipodi:nodetypes="cccccscccccc" />
          <path
             id="path130"
             style="fill:url(#linearGradient130);fill-opacity:1;stroke:none;stroke-width:0.264999"
             d="m 269.22232,70.438024 c -11.046,0.003 -21.2015,2.17658 -26.4648,5.66601 h -3.6953 v 16.95457 0.0547 0.006 c 0,0.16204 0.015,0.32362 0.035,0.48437 -4e-4,0.0235 -0.01,0.0468 -0.01,0.0703 0.01,0.04 0.013,0.0791 0.02,0.11914 V 143.3916 c -0.01,0.04 -0.014,0.0811 -0.02,0.1211 0.01,0.04 0.013,0.0792 0.02,0.11913 v 0.0957 h 0.016 c 0.327,5.88986 13.7002,10.60545 30.0957,10.61133 16.4046,-0.001 29.79209,-4.71823 30.11919,-10.61133 h 0.018 V 93.589994 h -0.01 c 0.016,-0.14513 0.031,-0.28932 0.031,-0.43555 0,-0.032 8e-4,-0.004 0,-0.0215 v -17.02879 h -3.6758 c -5.26649,-3.49163 -15.43139,-5.66501 -26.48429,-5.66601 z"
             sodipodi:nodetypes="ccccsscccccccccccccsccccc" />
          <path
             d="M 269.2193,63.714751 A 30.131971,10.826639 0 0 0 239.08728,74.54148 30.131971,10.826639 0 0 0 269.2193,85.368211 30.131971,10.826639 0 0 0 299.35132,74.54148 30.131971,10.826639 0 0 0 269.2193,63.714751 Z"
             style="fill:#e45c52;fill-opacity:1;stroke:#000000;stroke-width:0.264999"
             id="path53" />
        </g>
        <g
           id="g138"
           transform="translate(0.62486934,-0.98613648)">
          <path
             id="path54"
             style="fill:#ffffff;fill-opacity:0.86519;stroke:#000000;stroke-width:0.264999"
             d="m 380.99985,62.728737 c -16.6416,-1e-5 -30.1322,4.8473 -30.1321,10.82673 0.01,0.04 0.013,0.0799 0.02,0.11989 v 68.598393 c -0.01,0.0399 -0.014,0.0799 -0.02,0.11989 0.01,0.04 0.013,0.0799 0.02,0.11989 v 0.0961 h 0.016 c 0.327,5.88986 13.7004,10.60484 30.096,10.61072 16.4046,-0.001 29.792,-4.71762 30.1191,-10.61073 h 0.017 V 73.471237 h -0.01 c -0.1286,-5.94585 -13.5787,-10.74176 -30.1273,-10.7425 z"
             sodipodi:nodetypes="ccccccccccccccc" />
          <path
             id="ellipse54"
             style="fill:url(#radialGradient87);stroke:#000000;stroke-width:0.264999"
             d="m 411.13255,142.39372 a 30.131971,10.826639 0 0 1 -30.13197,10.82664 30.131971,10.826639 0 0 1 -30.13197,-10.82664 30.131971,10.826639 0 0 1 30.13197,-10.82664 30.131971,10.826639 0 0 1 30.13197,10.82664 z" />
          <g
             id="g56"
             transform="translate(181.94663,111.84322)">
            <path
               id="path55"
               style="fill:#378503;fill-opacity:0.988235;stroke:#000000;stroke-width:0.264999"
               d="m 198.98148,19.723587 c -11.04678,0.003 -21.20295,2.17824 -26.46661,5.66788 h -3.69486 v 4.85551 c 0,0 0.003,-0.15598 2.3e-4,-0.005 -1.4e-4,5.97943 13.51929,11.13516 30.16084,11.13515 16.64154,10e-6 30.16241,-5.11536 30.16227,-11.09479 0.002,-0.032 -0.004,-0.003 -8.6e-4,-0.0209 v -4.86993 h -3.67573 c -5.26693,-3.49185 -15.43209,-5.66716 -26.48572,-5.66792 z"
               sodipodi:nodetypes="cccccscccccc" />
            <path
               d="m 199.15585,14.383863 a 30.131971,10.826639 0 0 0 -30.13203,10.82673 30.131971,10.826639 0 0 0 30.13203,10.82673 30.131971,10.826639 0 0 0 30.13201,-10.82673 30.131971,10.826639 0 0 0 -30.13201,-10.82673 z"
               style="fill:#409a02;fill-opacity:0.988235;stroke:#000000;stroke-width:0.264999"
               id="path56" />
          </g>
          <g
             id="g62"
             transform="translate(190.13603,-48.693835)">
            <path
               id="path61"
               style="fill:#eda699;fill-opacity:0.866667;stroke:#000000;stroke-width:0.264999"
               d="m 190.86394,154.687 c -11.04678,0.003 -21.20295,2.17824 -26.46661,5.66788 h -3.69486 v 4.85551 c 0,0 0.003,-0.15598 2.3e-4,-0.005 -1.4e-4,5.97943 13.51929,11.13516 30.16084,11.13515 16.64154,1e-5 30.16241,-5.11536 30.16227,-11.09479 0.002,-0.032 -0.004,-0.003 -8.6e-4,-0.0209 v -4.86993 h -3.67573 c -5.26693,-3.49185 -15.43209,-5.66716 -26.48572,-5.66792 z"
               sodipodi:nodetypes="cccccscccccc" />
            <path
               d="m 190.86401,149.52158 a 30.131971,10.826639 0 0 0 -30.13203,10.82673 30.131971,10.826639 0 0 0 30.13203,10.82673 30.131971,10.826639 0 0 0 30.13201,-10.82673 30.131971,10.826639 0 0 0 -30.13201,-10.82673 z"
               style="fill:#ebbdb4;fill-opacity:1;stroke:#000000;stroke-width:0.264999"
               id="path62" />
          </g>
          <path
             id="path131"
             style="fill:url(#linearGradient131);fill-opacity:1;stroke:none;stroke-width:0.264999"
             d="m 350.84326,75.118611 v 16.953125 0.05469 0.0078 c 0,0.16204 0.0152,0.323625 0.0351,0.484375 -4e-4,0.0235 -0.01,0.04681 -0.01,0.07031 0.01,0.04 0.0125,0.0791 0.0195,0.119141 v 49.597658 c -0.01,0.04 -0.0135,0.0811 -0.0195,0.1211 0.01,0.04 0.0125,0.0792 0.0195,0.11914 v 0.0957 h 0.0156 c 0.327,5.88986 13.70021,10.60545 30.09571,10.61133 16.4046,-0.001 29.79204,-4.71823 30.11914,-10.61133 h 0.0176 V 92.604939 h -0.01 c 0.016,-0.14513 0.0312,-0.289317 0.0312,-0.435547 0,-0.032 8e-4,-0.004 0,-0.02148 V 75.118611 h -0.34766 a 30.131971,10.826639 0 0 1 -29.80859,9.263672 30.131971,10.826639 0 0 1 -29.7832,-9.263672 z" />
          <path
             d="m 381.00062,62.728737 a 30.131971,10.826639 0 0 0 -30.1321,10.82673 30.131971,10.826639 0 0 0 30.1321,10.82673 30.131971,10.826639 0 0 0 30.132,-10.82673 30.131971,10.826639 0 0 0 -30.132,-10.82673 z"
             style="fill:#ffffff;fill-opacity:1;stroke:#000000;stroke-width:0.264999"
             id="path135" />
        </g>
        <g
           id="g136">
          <path
             id="path89"
             style="fill:#ffffff;fill-opacity:0.86519;stroke:#000000;stroke-width:0.264999"
             d="m 494.03031,61.742723 c -16.6416,-10e-6 -30.1322,4.8473 -30.1321,10.82673 0.01,0.04 0.013,0.0799 0.02,0.11989 v 68.598397 c -0.01,0.0399 -0.014,0.0799 -0.02,0.11989 0.01,0.04 0.013,0.0799 0.02,0.11989 v 0.0961 h 0.016 c 0.327,5.88986 13.7004,10.60484 30.096,10.61072 16.4046,-0.001 29.792,-4.71762 30.1191,-10.61073 h 0.017 V 72.485223 h -0.01 c -0.1286,-5.94585 -13.5787,-10.74176 -30.1273,-10.7425 z"
             sodipodi:nodetypes="ccccccccccccccc" />
          <path
             id="ellipse89"
             style="fill:url(#radialGradient110);stroke:#000000;stroke-width:0.264999"
             d="m 524.16301,141.40771 a 30.131971,10.826639 0 0 1 -30.13197,10.82664 30.131971,10.826639 0 0 1 -30.13197,-10.82664 30.131971,10.826639 0 0 1 30.13197,-10.82663 30.131971,10.826639 0 0 1 30.13197,10.82663 z" />
          <g
             id="g96"
             transform="translate(302.19543,117.33102)">
            <path
               id="path93"
               style="fill:#8ad8d5;fill-opacity:0.988235;stroke:#000000;stroke-width:0.264999"
               d="m 191.835,0.37581 c -11.04678,0.003 -21.20295,2.17824 -26.46661,5.66788 h -3.69486 v 4.85551 c 0,0 0.003,-0.15598 2.3e-4,-0.005 -1.4e-4,5.97943 13.51929,11.13516 30.16084,11.13515 16.64154,10e-6 30.16241,-5.11536 30.16227,-11.09479 0.002,-0.032 -0.004,-0.003 -8.6e-4,-0.0209 V 6.04373 h -3.67573 C 213.05335,2.55188 202.88819,0.37657 191.83456,0.37581 Z"
               sodipodi:nodetypes="cccccscccccc" />
            <path
               d="M 191.83507,-4.78961 A 30.131971,10.826639 0 0 0 161.70304,6.03712 30.131971,10.826639 0 0 0 191.83507,16.86385 30.131971,10.826639 0 0 0 221.96708,6.03712 30.131971,10.826639 0 0 0 191.83507,-4.78961 Z"
               style="fill:#a9e3e1;fill-opacity:1;stroke:#000000;stroke-width:0.264999"
               id="path96" />
          </g>
          <g
             id="g108"
             transform="translate(303.16649,-46.017589)">
            <path
               id="path102"
               style="fill:#47817f;fill-opacity:1;stroke:#000000;stroke-width:0.264999"
               d="m 190.86394,125.62541 c -11.04678,0.003 -21.20295,2.17823 -26.46661,5.66787 h -3.69486 v 4.85552 c 0,0 0.003,-0.15599 2.3e-4,-0.005 -1.4e-4,5.97943 13.51929,11.13515 30.16084,11.13514 16.64154,1e-5 30.16241,-5.11536 30.16227,-11.09479 0.002,-0.032 -0.004,-0.003 -8.6e-4,-0.0209 v -4.86993 h -3.67573 c -5.26693,-3.49184 -15.4321,-5.66716 -26.48573,-5.66791 z"
               sodipodi:nodetypes="cccccscccccc" />
            <path
               d="m 190.86401,120.45998 a 30.131971,10.826639 0 0 0 -30.13203,10.82673 30.131971,10.826639 0 0 0 30.13203,10.82673 30.131971,10.826639 0 0 0 30.13201,-10.82673 30.131971,10.826639 0 0 0 -30.13201,-10.82673 z"
               style="fill:#5b9593;fill-opacity:1;stroke:#000000;stroke-width:0.264999"
               id="path108" />
          </g>
          <path
             id="path136"
             style="fill:url(#linearGradient136);fill-opacity:1;stroke:none;stroke-width:0.264999"
             d="m 463.87388,74.132474 v 16.953125 0.05469 0.0078 c 0,0.16204 0.0152,0.323625 0.0352,0.484375 -4e-4,0.0235 -0.01,0.04681 -0.01,0.07031 0.01,0.04 0.0125,0.0791 0.0195,0.119141 v 49.597655 c -0.01,0.04 -0.0135,0.0811 -0.0195,0.1211 0.01,0.04 0.0125,0.0792 0.0195,0.11914 v 0.0957 h 0.0156 c 0.327,5.88986 13.70021,10.60545 30.09571,10.61133 16.4046,-0.001 29.79204,-4.71823 30.11914,-10.61133 h 0.0176 V 91.618802 h -0.01 c 0.016,-0.14513 0.0312,-0.289317 0.0312,-0.435547 0,-0.032 8e-4,-0.004 0,-0.02148 V 74.132474 h -0.34766 a 30.131971,10.826639 0 0 1 -29.80859,9.263672 30.131971,10.826639 0 0 1 -29.7832,-9.263672 z" />
          <path
             d="m 494.03108,61.742723 a 30.131971,10.826639 0 0 0 -30.1321,10.82673 30.131971,10.826639 0 0 0 30.1321,10.82673 30.131971,10.826639 0 0 0 30.132,-10.82673 30.131971,10.826639 0 0 0 -30.132,-10.82673 z"
             style="fill:#ffffff;fill-opacity:0.61;stroke:#000000;stroke-width:0.264999"
             id="path101" />
        </g>
      </g>
    </g>
    <path
       style="font-size:14.7198px;line-height:1.25;font-family:HelveticaNeueCyr;-inkscape-font-specification:HelveticaNeueCyr;text-align:center;text-anchor:middle;stroke-width:2.19479"
       d="m 520.59001,-121.21058 v 10.42162 h -1.36894 v -7.55126 h -2.62013 v -0.94207 q 1.26591,0 2.0019,-0.41215 0.75071,-0.41216 1.00094,-1.51614 z m 9.27347,-0.0589 v 1.53086 h -1.26591 v -1.53086 z m 0,2.88508 v 7.59542 h -1.26591 v -7.59542 z m 3.1206,0 v 1.17758 q 0.94206,-1.38366 2.59068,-1.38366 1.3395,0 1.9283,0.70655 0.60351,0.69183 0.60351,2.04606 v 5.04889 h -1.25119 v -4.47482 q 0,-0.55935 -0.0442,-0.86847 -0.0294,-0.32384 -0.17663,-0.67711 -0.1472,-0.368 -0.50048,-0.52991 -0.35327,-0.16192 -0.91262,-0.16192 -2.16381,0 -2.16381,2.73788 v 3.97435 h -1.25119 v -7.59542 z m 12.6443,2.20797 h -1.25118 q -0.11776,-1.38366 -1.8547,-1.38366 -0.72127,0 -1.13342,0.27967 -0.41216,0.27968 -0.41216,0.75071 0,0.13248 0.0294,0.26496 0.0294,0.11776 0.10304,0.2208 0.0883,0.0883 0.1472,0.16192 0.0736,0.0736 0.2208,0.14719 0.16191,0.0589 0.23551,0.10304 0.0883,0.0442 0.2944,0.10304 0.2208,0.0442 0.30912,0.0736 0.0883,0.0147 0.33855,0.0736 0.26496,0.0589 0.33856,0.0736 0.54463,0.11776 0.80959,0.19136 0.27967,0.0736 0.75071,0.27967 0.48575,0.19136 0.73599,0.41216 0.25023,0.20607 0.44159,0.58879 0.20608,0.36799 0.20608,0.83903 0,1.10398 -0.86847,1.78109 -0.85375,0.66239 -2.28157,0.66239 -1.54558,0 -2.38461,-0.67711 -0.82431,-0.67711 -0.88319,-1.95773 h 1.23647 q 0.10304,1.60446 2.06077,1.60446 0.83903,0 1.3395,-0.33856 0.51519,-0.35327 0.51519,-0.92735 0,-0.38271 -0.26495,-0.63295 -0.26496,-0.25023 -0.58879,-0.35327 -0.32384,-0.11776 -0.92735,-0.26496 -0.0883,-0.0147 -0.13248,-0.0294 -0.13248,-0.0294 -0.57407,-0.11776 -0.42688,-0.10303 -0.61823,-0.16191 -0.19136,-0.0589 -0.55936,-0.17664 -0.35327,-0.13248 -0.52991,-0.26496 -0.17664,-0.1472 -0.39743,-0.35327 -0.20608,-0.2208 -0.2944,-0.50048 -0.0883,-0.29439 -0.0883,-0.66239 0,-1.03038 0.78015,-1.6339 0.79487,-0.60351 2.11965,-0.60351 1.3395,0 2.17853,0.63295 0.85375,0.63296 0.85375,1.79582 z m 4.97529,-2.20797 v 1.03039 h -1.51614 v 4.43066 q 0,0.36799 0,0.48575 0.0147,0.11776 0.0883,0.32383 0.0736,0.19136 0.25024,0.25024 0.17664,0.0589 0.50047,0.0589 0.27968,0 0.67711,-0.0442 v 1.07455 q -0.52991,0.0589 -0.95678,0.0589 -0.52992,0 -0.88319,-0.11776 -0.35328,-0.11776 -0.54463,-0.26496 -0.17664,-0.1472 -0.26496,-0.51519 -0.0883,-0.38272 -0.10304,-0.63295 -0.0147,-0.26496 -0.0147,-0.86847 0,-0.13248 0,-0.20608 v -4.03322 h -1.28062 v -1.03039 h 1.28062 v -2.25213 h 1.25118 v 2.25213 z m 8.11062,6.59447 v 0.97151 q -0.38271,0.1472 -0.85375,0.1472 -1.07454,0 -1.10398,-1.11871 -1.07455,1.20702 -2.7526,1.20702 -1.11871,0 -1.7811,-0.57407 -0.64767,-0.57407 -0.64767,-1.57502 0,-2.03133 2.69372,-2.36988 1.58974,-0.19136 1.83998,-0.27968 0.52991,-0.17664 0.57407,-0.73599 0.0147,-0.0883 0.0147,-0.19136 0,-1.25118 -1.72222,-1.25118 -0.88318,0 -1.3395,0.36799 -0.45631,0.35328 -0.54463,1.17759 h -1.22174 q 0.0294,-1.22175 0.86846,-1.89886 0.83903,-0.67711 2.31101,-0.67711 1.60446,0 2.38461,0.73599 0.25024,0.23552 0.36799,0.61823 0.11776,0.38272 0.13248,0.63296 0.0147,0.23551 0.0147,0.72127 0,0.57407 -0.0294,1.70749 -0.0294,1.11871 -0.0294,1.67806 0,0.41215 0.10304,0.58879 0.11776,0.16192 0.41216,0.16192 0.11776,0 0.30911,-0.0442 z m -2.01661,-2.94396 q -0.13248,0.10304 -0.27968,0.17664 -0.14719,0.0736 -0.38271,0.11776 -0.2208,0.0442 -0.30912,0.0736 -0.0736,0.0147 -0.38271,0.0589 -0.30912,0.0294 -0.32384,0.0294 -0.45631,0.0589 -0.60351,0.0883 -0.13248,0.0147 -0.52991,0.11776 -0.38272,0.10304 -0.54463,0.23552 -0.16192,0.13248 -0.32384,0.39743 -0.1472,0.25024 -0.1472,0.60351 0,0.5888 0.39744,0.92735 0.41215,0.33856 1.1187,0.33856 0.89791,0 1.60446,-0.52992 0.70655,-0.52991 0.70655,-1.25118 z m 4.37179,-3.65051 v 1.17758 q 0.94207,-1.38366 2.59068,-1.38366 1.33951,0 1.9283,0.70655 0.60351,0.69183 0.60351,2.04606 v 5.04889 h -1.25118 v -4.47482 q 0,-0.55935 -0.0442,-0.86847 -0.0294,-0.32384 -0.17664,-0.67711 -0.1472,-0.368 -0.50047,-0.52991 -0.35328,-0.16192 -0.91263,-0.16192 -2.16381,0 -2.16381,2.73788 v 3.97435 h -1.25119 v -7.59542 z m 13.54221,4.82809 q -0.16192,1.36895 -1.04511,2.17853 -0.86846,0.80959 -2.26684,0.80959 -1.72222,0 -2.66429,-1.05982 -0.94207,-1.07455 -0.94207,-2.85564 0,-1.89886 0.98623,-3.00284 0.98623,-1.11871 2.66428,-1.11871 1.39839,0 2.23741,0.70655 0.83903,0.69183 0.98623,1.98718 h -1.29534 q -0.33856,-1.64862 -1.91358,-1.64862 -1.08926,0 -1.72221,0.80959 -0.63295,0.79487 -0.63295,2.16381 0,1.38366 0.60351,2.17853 0.60351,0.79487 1.66334,0.79487 0.85374,0 1.38366,-0.50048 0.54463,-0.50047 0.69183,-1.44254 z m 7.86039,0.368 q -0.57408,2.64956 -3.31196,2.64956 -1.67806,0 -2.63484,-1.0451 -0.94207,-1.04511 -0.94207,-2.8998 0,-1.83998 0.97151,-2.9734 0.98622,-1.14815 2.56124,-1.14815 1.75166,0 2.59069,1.19231 0.85374,1.17758 0.85374,2.98812 v 0.17663 h -5.71128 l -0.0147,0.0883 q 0,1.20703 0.63295,1.89886 0.63296,0.69183 1.73694,0.69183 0.82431,0 1.29534,-0.38272 0.48576,-0.38271 0.75071,-1.23646 z m -1.20703,-2.07549 q -0.0883,-1.08927 -0.66239,-1.69278 -0.57407,-0.61823 -1.51614,-0.61823 -0.91263,0 -1.51614,0.61823 -0.60351,0.61823 -0.72127,1.69278 z"
       id="text1"
       aria-label="1 instance" />
    <path
       style="font-size:14.7198px;line-height:1.25;font-family:HelveticaNeueCyr;-inkscape-font-specification:HelveticaNeueCyr;text-align:center;text-anchor:middle;stroke-width:2.19479"
       d="m 591.53645,41.978777 v 1.133425 h -6.80055 q 0.0442,-0.868469 0.26496,-1.51614 0.2208,-0.647671 0.67711,-1.162864 0.47104,-0.529913 0.91263,-0.868468 0.44159,-0.338556 1.25118,-0.839029 1.2659,-0.794869 1.66334,-1.192304 0.82431,-0.809589 0.82431,-1.795815 0,-0.868468 -0.55935,-1.413101 -0.55936,-0.559352 -1.45726,-0.559352 -1.07455,0 -1.54558,0.750709 -0.45632,0.73599 -0.48576,1.869415 h -1.2659 v -0.279676 q 0,-1.545579 0.91263,-2.487646 0.92735,-0.942068 2.44348,-0.942068 1.4867,0 2.36989,0.824309 0.88319,0.824309 0.88319,2.20797 0,0.588792 -0.20608,1.118705 -0.19135,0.515193 -0.44159,0.868468 -0.23552,0.353275 -0.73599,0.75071 -0.48575,0.397435 -0.80959,0.618232 -0.32384,0.206077 -0.92735,0.574072 -1.20702,0.72127 -1.60446,1.118705 -0.55935,0.544632 -0.72127,1.221743 z m 7.37462,-9.347073 v 1.530859 h -1.26591 v -1.530859 z m 0,2.885081 v 7.595417 h -1.26591 v -7.595417 z m 3.1206,0 v 1.177584 q 0.94206,-1.383661 2.59068,-1.383661 1.3395,0 1.92829,0.70655 0.60352,0.691831 0.60352,2.046052 v 5.048892 h -1.25119 v -4.47482 q 0,-0.559352 -0.0442,-0.868468 -0.0294,-0.323835 -0.17663,-0.677111 -0.1472,-0.367995 -0.50048,-0.529912 -0.35327,-0.161918 -0.91262,-0.161918 -2.16381,0 -2.16381,2.737883 v 3.974346 h -1.25119 v -7.595417 z m 12.6443,2.20797 h -1.25118 q -0.11776,-1.383661 -1.8547,-1.383661 -0.72127,0 -1.13342,0.279676 -0.41216,0.279676 -0.41216,0.75071 0,0.132478 0.0294,0.264956 0.0294,0.117758 0.10304,0.220797 0.0883,0.08832 0.1472,0.161918 0.0736,0.0736 0.2208,0.147198 0.16191,0.05888 0.23551,0.103038 0.0883,0.04416 0.2944,0.103039 0.2208,0.04416 0.30911,0.0736 0.0883,0.01472 0.33856,0.0736 0.26496,0.05888 0.33856,0.0736 0.54463,0.117758 0.80958,0.191357 0.27968,0.0736 0.75071,0.279677 0.48576,0.191357 0.73599,0.412154 0.25024,0.206077 0.4416,0.588792 0.20608,0.367995 0.20608,0.839029 0,1.103985 -0.86847,1.781095 -0.85375,0.662391 -2.28157,0.662391 -1.54558,0 -2.38461,-0.67711 -0.82431,-0.677111 -0.88319,-1.957734 h 1.23647 q 0.10303,1.604458 2.06077,1.604458 0.83903,0 1.3395,-0.338555 0.51519,-0.353275 0.51519,-0.927347 0,-0.382715 -0.26495,-0.632952 -0.26496,-0.250236 -0.5888,-0.353275 -0.32383,-0.117758 -0.92734,-0.264956 -0.0883,-0.01472 -0.13248,-0.02944 -0.13248,-0.02944 -0.57407,-0.117758 -0.42688,-0.103039 -0.61824,-0.161918 -0.19135,-0.05888 -0.55935,-0.176638 -0.35327,-0.132478 -0.52991,-0.264956 -0.17664,-0.147198 -0.39744,-0.353275 -0.20607,-0.220797 -0.29439,-0.500474 -0.0883,-0.294396 -0.0883,-0.662391 0,-1.030386 0.78015,-1.633897 0.79487,-0.603512 2.11965,-0.603512 1.3395,0 2.17853,0.632951 0.85375,0.632952 0.85375,1.795816 z m 4.97529,-2.20797 v 1.030386 h -1.51614 v 4.43066 q 0,0.367995 0,0.485753 0.0147,0.117758 0.0883,0.323836 0.0736,0.191357 0.25024,0.250236 0.17664,0.05888 0.50047,0.05888 0.27968,0 0.67711,-0.04416 v 1.074545 q -0.52991,0.05888 -0.95678,0.05888 -0.52992,0 -0.88319,-0.117759 -0.35328,-0.117758 -0.54463,-0.264956 -0.17664,-0.147198 -0.26496,-0.515193 -0.0883,-0.382715 -0.10304,-0.632952 -0.0147,-0.264956 -0.0147,-0.868468 0,-0.132478 0,-0.206077 v -4.033225 h -1.28062 v -1.030386 h 1.28062 v -2.25213 h 1.25118 v 2.25213 z m 8.11062,6.59447 v 0.971507 q -0.38271,0.147198 -0.85375,0.147198 -1.07454,0 -1.10398,-1.118705 -1.07455,1.207024 -2.7526,1.207024 -1.11871,0 -1.7811,-0.574072 -0.64767,-0.574073 -0.64767,-1.575019 0,-2.031332 2.69372,-2.369888 1.58974,-0.191357 1.83998,-0.279676 0.52991,-0.176638 0.57407,-0.73599 0.0147,-0.08832 0.0147,-0.191357 0,-1.251183 -1.72222,-1.251183 -0.88319,0 -1.3395,0.367995 -0.45631,0.353275 -0.54463,1.177584 h -1.22175 q 0.0294,-1.221744 0.86847,-1.898855 0.83903,-0.67711 2.31101,-0.67711 1.60446,0 2.38461,0.73599 0.25024,0.235516 0.36799,0.618231 0.11776,0.382715 0.13248,0.632952 0.0147,0.235516 0.0147,0.72127 0,0.574072 -0.0294,1.707497 -0.0294,1.118704 -0.0294,1.678057 0,0.412154 0.10304,0.588792 0.11776,0.161918 0.41216,0.161918 0.11775,0 0.30911,-0.04416 z m -2.01661,-2.94396 q -0.13248,0.103039 -0.27968,0.176638 -0.1472,0.0736 -0.38271,0.117758 -0.2208,0.04416 -0.30912,0.0736 -0.0736,0.01472 -0.38271,0.05888 -0.30912,0.02944 -0.32384,0.02944 -0.45631,0.05888 -0.60351,0.08832 -0.13248,0.01472 -0.52991,0.117758 -0.38272,0.103039 -0.54464,0.235517 -0.16191,0.132478 -0.32383,0.397435 -0.1472,0.250236 -0.1472,0.603511 0,0.588792 0.39744,0.927348 0.41215,0.338555 1.1187,0.338555 0.89791,0 1.60446,-0.529913 0.70655,-0.529912 0.70655,-1.251183 z m 4.37179,-3.65051 v 1.177584 q 0.94207,-1.383661 2.59068,-1.383661 1.3395,0 1.9283,0.70655 0.60351,0.691831 0.60351,2.046052 v 5.048892 h -1.25118 v -4.47482 q 0,-0.559352 -0.0442,-0.868468 -0.0294,-0.323835 -0.17664,-0.677111 -0.1472,-0.367995 -0.50047,-0.529912 -0.35328,-0.161918 -0.91263,-0.161918 -2.16381,0 -2.16381,2.737883 v 3.974346 h -1.25119 v -7.595417 z m 13.54221,4.828094 q -0.16192,1.368942 -1.04511,2.178531 -0.86846,0.809589 -2.26685,0.809589 -1.72221,0 -2.66428,-1.059826 -0.94207,-1.074545 -0.94207,-2.855641 0,-1.898854 0.98623,-3.002839 0.98623,-1.118705 2.66428,-1.118705 1.39838,0 2.23741,0.70655 0.83903,0.691831 0.98623,1.987173 h -1.29534 q -0.33856,-1.648617 -1.91358,-1.648617 -1.08926,0 -1.72221,0.809589 -0.63295,0.794869 -0.63295,2.16381 0,1.383661 0.60351,2.178531 0.60351,0.794869 1.66333,0.794869 0.85375,0 1.38367,-0.500473 0.54463,-0.500474 0.69183,-1.442541 z m 7.86038,0.367995 q -0.57407,2.649564 -3.31195,2.649564 -1.67806,0 -2.63484,-1.045106 -0.94207,-1.045105 -0.94207,-2.8998 0,-1.839975 0.97151,-2.9734 0.98622,-1.148144 2.56124,-1.148144 1.75166,0 2.59069,1.192304 0.85374,1.177584 0.85374,2.988119 v 0.176638 h -5.71128 l -0.0147,0.08832 q 0,1.207024 0.63295,1.898855 0.63295,0.69183 1.73694,0.69183 0.82431,0 1.29534,-0.382715 0.48575,-0.382714 0.75071,-1.236463 z m -1.20702,-2.075492 q -0.0883,-1.089265 -0.66239,-1.692777 -0.57407,-0.618231 -1.51614,-0.618231 -0.91263,0 -1.51614,0.618231 -0.60351,0.618232 -0.72127,1.692777 z m 8.25782,-0.912627 h -1.25119 q -0.11775,-1.383661 -1.85469,-1.383661 -0.72127,0 -1.13343,0.279676 -0.41215,0.279676 -0.41215,0.75071 0,0.132478 0.0294,0.264956 0.0294,0.117758 0.10304,0.220797 0.0883,0.08832 0.1472,0.161918 0.0736,0.0736 0.22079,0.147198 0.16192,0.05888 0.23552,0.103038 0.0883,0.04416 0.2944,0.103039 0.22079,0.04416 0.30911,0.0736 0.0883,0.01472 0.33856,0.0736 0.26495,0.05888 0.33855,0.0736 0.54464,0.117758 0.80959,0.191357 0.27968,0.0736 0.75071,0.279677 0.48576,0.191357 0.73599,0.412154 0.25024,0.206077 0.4416,0.588792 0.20607,0.367995 0.20607,0.839029 0,1.103985 -0.86847,1.781095 -0.85374,0.662391 -2.28156,0.662391 -1.54558,0 -2.38461,-0.67711 -0.82431,-0.677111 -0.88319,-1.957734 h 1.23646 q 0.10304,1.604458 2.06078,1.604458 0.83902,0 1.3395,-0.338555 0.51519,-0.353275 0.51519,-0.927347 0,-0.382715 -0.26496,-0.632952 -0.26495,-0.250236 -0.58879,-0.353275 -0.32383,-0.117758 -0.92735,-0.264956 -0.0883,-0.01472 -0.13247,-0.02944 -0.13248,-0.02944 -0.57408,-0.117758 -0.42687,-0.103039 -0.61823,-0.161918 -0.19135,-0.05888 -0.55935,-0.176638 -0.35328,-0.132478 -0.52991,-0.264956 -0.17664,-0.147198 -0.39744,-0.353275 -0.20607,-0.220797 -0.29439,-0.500474 -0.0883,-0.294396 -0.0883,-0.662391 0,-1.030386 0.78015,-1.633897 0.79487,-0.603512 2.11965,-0.603512 1.3395,0 2.17853,0.632951 0.85375,0.632952 0.85375,1.795816 z"
       id="text2"
       aria-label="2 instances" />
  </g>
</svg>
