<?xml version="1.0" encoding="UTF-8" standalone="no"?>
<!-- Created with Inkscape (http://www.inkscape.org/) -->

<svg
   width="199.44981mm"
   height="92.930611mm"
   viewBox="0 0 199.44981 92.930611"
   version="1.1"
   id="svg1"
   xml:space="preserve"
   inkscape:version="1.3.2 (091e20ef0f, 2023-11-25)"
   sodipodi:docname="elections.svg"
   xmlns:inkscape="http://www.inkscape.org/namespaces/inkscape"
   xmlns:sodipodi="http://sodipodi.sourceforge.net/DTD/sodipodi-0.dtd"
   xmlns="http://www.w3.org/2000/svg"
   xmlns:svg="http://www.w3.org/2000/svg"><sodipodi:namedview
     id="namedview1"
     pagecolor="#ffffff"
     bordercolor="#666666"
     borderopacity="1.0"
     inkscape:showpageshadow="2"
     inkscape:pageopacity="0.0"
     inkscape:pagecheckerboard="0"
     inkscape:deskcolor="#d1d1d1"
     inkscape:document-units="mm"
     showguides="true"
     inkscape:zoom="0.84100811"
     inkscape:cx="450.64964"
     inkscape:cy="202.13836"
     inkscape:window-width="1858"
     inkscape:window-height="1014"
     inkscape:window-x="62"
     inkscape:window-y="29"
     inkscape:window-maximized="1"
     inkscape:current-layer="layer1"><sodipodi:guide
       position="170.24487,115.16576"
       orientation="0,-1"
       id="guide12"
       inkscape:locked="false" /></sodipodi:namedview><defs
     id="defs1"><marker
       style="overflow:visible"
       id="marker10"
       refX="0"
       refY="0"
       orient="auto-start-reverse"
       inkscape:stockid="Dart arrow"
       markerWidth="2"
       markerHeight="2"
       viewBox="0 0 1 1"
       inkscape:isstock="true"
       inkscape:collect="always"
       preserveAspectRatio="xMidYMid"><path
         style="fill:context-stroke;fill-rule:evenodd;stroke:none"
         d="M 0,0 5,-5 -12.5,0 5,5 Z"
         transform="scale(-0.5)"
         id="path10" /></marker><marker
       style="overflow:visible"
       id="DartArrow"
       refX="0"
       refY="0"
       orient="auto-start-reverse"
       inkscape:stockid="Dart arrow"
       markerWidth="2"
       markerHeight="2"
       viewBox="0 0 1 1"
       inkscape:isstock="true"
       inkscape:collect="always"
       preserveAspectRatio="xMidYMid"><path
         style="fill:context-stroke;fill-rule:evenodd;stroke:none"
         d="M 0,0 5,-5 -12.5,0 5,5 Z"
         transform="scale(-0.5)"
         id="path7" /></marker></defs><g
     inkscape:label="Layer 1"
     inkscape:groupmode="layer"
     id="layer1"
     transform="translate(-7.8201855,-23.601248)"><g
       id="g6"
       transform="translate(8.6713507,-106.87531)"><g
         id="g3"
         transform="translate(-4.7805999,4.7439962)"><path
           id="rect1"
           style="fill:#58ffab;stroke:#2b2b2b;stroke-width:0.265"
           d="m 34.891986,178.12355 h 29.58608 c 3.9334,0 7.1,2.84868 7.1,6.38718 0,3.53849 -3.1666,6.38718 -7.1,6.38718 h -29.58608 c -3.9334,0 -7.1,-2.84869 -7.1,-6.38718 0,-3.5385 3.1666,-6.38718 7.1,-6.38718 z" /><path
           style="font-style:italic;font-size:7.16515px;line-height:1.25;font-family:HelveticaNeueCyr;-inkscape-font-specification:HelveticaNeueCyr;stroke-width:0.264583"
           d="m 41.551535,181.89902 -0.08598,0.41558 H 38.67831 l -0.394083,1.84861 h 2.486307 l -0.08598,0.40125 h -2.486307 l -0.515891,2.43615 h -0.48723 l 1.081938,-5.10159 z m 3.09535,2.79441 q 0,0.60904 -0.22212,1.14643 -0.214954,0.53738 -0.687854,0.90997 -0.465735,0.36542 -1.089103,0.36542 -0.716515,0 -1.117763,-0.40841 -0.394084,-0.40841 -0.394084,-1.15359 0,-1.01029 0.573212,-1.67665 0.580378,-0.66635 1.454526,-0.66635 0.695019,0 1.089103,0.39408 0.394083,0.39408 0.394083,1.0891 z m -1.519012,-1.1106 q -0.659194,0 -1.103433,0.56605 -0.444239,0.56605 -0.444239,1.3972 0,0.56605 0.286606,0.88132 0.293771,0.31526 0.802496,0.31526 0.480066,0 0.838323,-0.32959 0.365423,-0.3296 0.523056,-0.781 0.164798,-0.45141 0.164798,-0.92431 0,-0.51589 -0.27944,-0.81682 -0.279441,-0.30811 -0.788167,-0.30811 z m 3.324628,-1.68381 -1.081938,5.10159 h -0.444239 l 1.081938,-5.10159 z m 1.325549,0 -1.081938,5.10159 h -0.444239 l 1.081937,-5.10159 z m 3.503754,2.79441 q 0,0.60904 -0.222119,1.14643 -0.214955,0.53738 -0.687855,0.90997 -0.465734,0.36542 -1.089103,0.36542 -0.716515,0 -1.117763,-0.40841 -0.394083,-0.40841 -0.394083,-1.15359 0,-1.01029 0.573212,-1.67665 0.580377,-0.66635 1.454525,-0.66635 0.69502,0 1.089103,0.39408 0.394083,0.39408 0.394083,1.0891 z m -1.519011,-1.1106 q -0.659194,0 -1.103434,0.56605 -0.444239,0.56605 -0.444239,1.3972 0,0.56605 0.286606,0.88132 0.293771,0.31526 0.802497,0.31526 0.480065,0 0.838322,-0.32959 0.365423,-0.3296 0.523056,-0.781 0.164799,-0.45141 0.164799,-0.92431 0,-0.51589 -0.279441,-0.81682 -0.279441,-0.30811 -0.788166,-0.30811 z m 7.229634,-0.26511 -1.92026,3.68289 h -0.48723 l -0.22212,-2.42899 q -0.0215,-0.22212 -0.05016,-0.71651 -0.09315,0.20779 -0.293771,0.62337 l -1.232406,2.52213 h -0.494395 l -0.429909,-3.68289 h 0.465735 l 0.186294,1.79846 q 0.107477,0.99595 0.107477,1.41153 0.06449,-0.17913 0.322432,-0.70218 l 1.203745,-2.50781 h 0.523056 l 0.207789,2.21403 q 0.05732,0.62337 0.06449,0.97446 0.100313,-0.2866 0.322432,-0.71651 l 1.253901,-2.47198 z m 3.217148,2.50064 q -0.394084,1.30406 -1.683811,1.30406 -0.695019,0 -1.089103,-0.41558 -0.394083,-0.41558 -0.394083,-1.16076 0,-0.98879 0.558882,-1.65514 0.566047,-0.67353 1.397204,-0.67353 0.659194,0 1.031782,0.40125 0.379753,0.40125 0.379753,1.10343 0,0.22929 -0.04299,0.53739 h -2.858895 q -0.02866,0.17196 -0.02866,0.30094 0,0.55888 0.279441,0.87414 0.286606,0.31527 0.788167,0.31527 0.429909,0 0.745175,-0.24362 0.315267,-0.24361 0.45857,-0.68785 z m -2.643941,-0.9243 h 2.400325 q 0.01433,-0.10032 0.01433,-0.20779 0,-0.52306 -0.265111,-0.80967 -0.26511,-0.29377 -0.745175,-0.29377 -0.515891,0 -0.895644,0.3511 -0.372588,0.35109 -0.508725,0.96013 z m 5.667627,-1.62649 -0.100312,0.46573 q -0.171964,-0.0143 -0.186294,-0.0143 -0.444239,0 -0.759506,0.22929 -0.336762,0.25078 -0.50156,0.60187 -0.157634,0.35109 -0.272276,0.87415 l -0.343927,1.57633 h -0.44424 l 0.788167,-3.68289 h 0.415579 l -0.193459,0.85982 q 0.51589,-0.9243 1.368543,-0.9243 0.128973,0 0.229285,0.0143 z"
           id="text1"
           aria-label="Follower" /></g><g
         id="g4"
         transform="translate(36.579157,6.6062704)"><path
           id="rect2"
           style="fill:#58ffab;stroke:#2b2b2b;stroke-width:0.265"
           d="m 125.20091,176.26128 h 29.58608 c 3.9334,0 7.1,2.84868 7.1,6.38717 0,3.5385 -3.1666,6.38718 -7.1,6.38718 h -29.58608 c -3.9334,0 -7.1,-2.84868 -7.1,-6.38718 0,-3.53849 3.1666,-6.38717 7.1,-6.38717 z" /><path
           style="font-style:italic;font-size:7.16515px;line-height:1.25;font-family:HelveticaNeueCyr;-inkscape-font-specification:HelveticaNeueCyr;stroke-width:0.264583"
           d="m 130.73658,180.03675 -0.99595,4.68601 h 2.80157 l -0.0932,0.41558 h -3.28163 l 1.08193,-5.10159 z m 5.51001,3.91934 q -0.39408,1.30405 -1.68381,1.30405 -0.69502,0 -1.0891,-0.41557 -0.39409,-0.41558 -0.39409,-1.16076 0,-0.98879 0.55888,-1.65515 0.56605,-0.67352 1.39721,-0.67352 0.65919,0 1.03178,0.40125 0.37975,0.40124 0.37975,1.10343 0,0.22928 -0.043,0.53738 h -2.85889 q -0.0287,0.17197 -0.0287,0.30094 0,0.55888 0.27944,0.87415 0.2866,0.31527 0.78816,0.31527 0.42991,0 0.74518,-0.24362 0.31527,-0.24361 0.45857,-0.68785 z m -2.64394,-0.92431 h 2.40032 q 0.0143,-0.10031 0.0143,-0.20779 0,-0.52305 -0.26511,-0.80966 -0.26511,-0.29377 -0.74517,-0.29377 -0.51589,0 -0.89565,0.35109 -0.37258,0.35109 -0.50872,0.96013 z m 3.55391,-0.49439 q 0.24361,-1.17509 1.54767,-1.17509 0.60904,0 0.93863,0.22929 0.3296,0.22928 0.3296,0.65203 0,0.17912 -0.10031,0.63053 l -0.26511,1.18225 q -0.0932,0.46573 -0.0932,0.53738 0,0.22929 0.19346,0.22929 0.0717,0 0.21495,-0.0287 l -0.0645,0.34393 q -0.1863,0.0502 -0.3296,0.0502 -0.42274,0 -0.42274,-0.42991 0,-0.0717 0.0287,-0.19346 -0.4729,0.68069 -1.33989,0.68069 -0.52305,0 -0.83115,-0.27227 -0.30094,-0.27228 -0.30094,-0.73801 0,-0.29377 0.11464,-0.50873 0.12181,-0.21495 0.28661,-0.33676 0.1648,-0.12181 0.42991,-0.20062 0.27227,-0.0788 0.4729,-0.10748 0.20062,-0.0287 0.49439,-0.0502 0.0143,0 0.12181,0 0.10748,-0.007 0.15763,-0.0143 0.0502,-0.007 0.15047,-0.0143 0.10748,-0.007 0.1648,-0.0215 0.0645,-0.0215 0.1433,-0.043 0.0788,-0.0215 0.12898,-0.0573 0.0573,-0.0358 0.0931,-0.0788 0.12898,-0.1648 0.12898,-0.53739 0,-0.52305 -0.83116,-0.52305 -0.48007,0 -0.75234,0.19345 -0.27228,0.1863 -0.37976,0.60188 z m 2.23552,0.60903 q -0.0573,0.0573 -0.15047,0.10032 -0.0931,0.043 -0.22928,0.0645 -0.12897,0.0215 -0.20779,0.0358 -0.0788,0.007 -0.24361,0.0215 -0.1648,0.007 -0.17913,0.007 -0.20779,0.0143 -0.3511,0.0358 -0.13613,0.0143 -0.32959,0.0717 -0.19346,0.0502 -0.31527,0.13613 -0.11464,0.0788 -0.20062,0.22929 -0.086,0.15047 -0.086,0.35826 0,0.32243 0.22212,0.50872 0.22212,0.17913 0.60188,0.17913 0.48723,0 0.85265,-0.32243 0.21495,-0.18629 0.31527,-0.40125 0.10747,-0.21495 0.22212,-0.69502 z m 5.23772,-3.10967 -1.07477,5.10159 h -0.41558 l 0.0716,-0.32244 q 0.0645,-0.29377 0.10031,-0.42274 -0.44424,0.85265 -1.37571,0.85265 -0.65919,0 -1.02461,-0.38691 -0.36542,-0.38692 -0.36542,-1.08194 0,-0.44424 0.13613,-0.86699 0.13614,-0.4299 0.37976,-0.781 0.25078,-0.35109 0.63769,-0.56604 0.39409,-0.21496 0.85982,-0.21496 0.48007,0 0.79533,0.22929 0.31527,0.22212 0.39409,0.62336 0.0287,-0.17912 0.0788,-0.39408 l 0.36543,-1.76979 z m -1.96325,1.69097 h -0.086 q -0.50873,0 -0.88132,0.32244 -0.37258,0.32243 -0.54455,0.781 -0.1648,0.4514 -0.1648,0.9458 0,0.52305 0.26511,0.81682 0.27228,0.29378 0.75235,0.29378 0.49439,0 0.86698,-0.3511 0.37259,-0.35825 0.53739,-0.83115 0.16479,-0.4729 0.16479,-0.95297 0,-0.45857 -0.25078,-0.73801 -0.24361,-0.28661 -0.65919,-0.28661 z m 5.13024,2.22837 q -0.39408,1.30405 -1.68381,1.30405 -0.69502,0 -1.0891,-0.41557 -0.39408,-0.41558 -0.39408,-1.16076 0,-0.98879 0.55888,-1.65515 0.56605,-0.67352 1.3972,-0.67352 0.6592,0 1.03178,0.40125 0.37976,0.40124 0.37976,1.10343 0,0.22928 -0.043,0.53738 h -2.8589 q -0.0287,0.17197 -0.0287,0.30094 0,0.55888 0.27944,0.87415 0.28661,0.31527 0.78817,0.31527 0.42991,0 0.74517,-0.24362 0.31527,-0.24361 0.45857,-0.68785 z m -2.64394,-0.92431 h 2.40033 q 0.0143,-0.10031 0.0143,-0.20779 0,-0.52305 -0.26511,-0.80966 -0.26511,-0.29377 -0.74518,-0.29377 -0.51589,0 -0.89564,0.35109 -0.37259,0.35109 -0.50873,0.96013 z m 5.66763,-1.62649 -0.10031,0.46574 q -0.17197,-0.0143 -0.1863,-0.0143 -0.44423,0 -0.7595,0.22928 -0.33676,0.25078 -0.50156,0.60187 -0.15764,0.3511 -0.27228,0.87415 l -0.34392,1.57634 h -0.44424 l 0.78816,-3.68289 h 0.41558 l -0.19346,0.85982 q 0.51589,-0.92431 1.36855,-0.92431 0.12897,0 0.22928,0.0143 z"
           id="text2"
           aria-label="Leader" /></g></g><g
       id="g5"
       transform="translate(18.535093,-102.55488)"><path
         id="rect3"
         style="fill:#58ffab;stroke:#2b2b2b;stroke-width:0.265"
         d="m 86.346567,152.25586 h 29.586083 c 3.9334,0 7.1,2.84868 7.1,6.38718 0,3.53849 -3.1666,6.38717 -7.1,6.38717 H 86.346567 c -3.9334,0 -7.1,-2.84868 -7.1,-6.38717 0,-3.5385 3.1666,-6.38718 7.1,-6.38718 z" /><path
         style="font-style:italic;font-size:7.16515px;line-height:1.25;font-family:HelveticaNeueCyr;-inkscape-font-specification:HelveticaNeueCyr;stroke-width:0.264583"
         d="m 89.936979,159.4312 q -0.229285,0.88848 -0.845488,1.38287 -0.616203,0.4944 -1.504681,0.4944 -0.9458,0 -1.497517,-0.58038 -0.544551,-0.58038 -0.551716,-1.5835 -0.0072,-0.81682 0.315266,-1.53334 0.329597,-0.71651 0.974461,-1.17508 0.652029,-0.45857 1.483186,-0.45857 0.845488,0 1.368544,0.46573 0.530221,0.45857 0.530221,1.19658 v 0.0502 h -0.4729 q -0.03583,-0.63054 -0.408414,-0.96013 -0.365422,-0.3296 -1.024616,-0.3296 -0.687855,0 -1.218076,0.40841 -0.530221,0.40842 -0.795331,1.01746 -0.257946,0.60903 -0.257946,1.28972 0,0.82399 0.415579,1.30406 0.422744,0.4729 1.146424,0.4729 0.680689,0 1.175085,-0.38692 0.494395,-0.38692 0.673524,-1.07477 z m 0.838326,-0.84549 q 0.243615,-1.17508 1.547672,-1.17508 0.609038,0 0.938635,0.22928 0.329597,0.22929 0.329597,0.65203 0,0.17913 -0.100312,0.63053 l -0.265111,1.18225 q -0.09315,0.46574 -0.09315,0.53739 0,0.22928 0.193459,0.22928 0.07165,0 0.214955,-0.0287 l -0.06449,0.34393 q -0.186294,0.0502 -0.329597,0.0502 -0.422744,0 -0.422744,-0.42991 0,-0.0716 0.02866,-0.19346 -0.4729,0.68069 -1.339883,0.68069 -0.523056,0 -0.831157,-0.27228 -0.300936,-0.27227 -0.300936,-0.73801 0,-0.29377 0.114642,-0.50872 0.121808,-0.21496 0.286606,-0.33677 0.164798,-0.1218 0.429909,-0.20062 0.272276,-0.0788 0.4729,-0.10748 0.200624,-0.0287 0.494395,-0.0502 0.01433,0 0.121808,0 0.107477,-0.007 0.157633,-0.0143 0.05016,-0.007 0.150468,-0.0143 0.107478,-0.007 0.164799,-0.0215 0.06449,-0.0215 0.143303,-0.043 0.07882,-0.0215 0.128972,-0.0573 0.05732,-0.0358 0.09315,-0.0788 0.128973,-0.1648 0.128973,-0.53738 0,-0.52306 -0.831157,-0.52306 -0.480065,0 -0.752341,0.19346 -0.272276,0.18629 -0.379753,0.60187 z m 2.235527,0.60904 q -0.05732,0.0573 -0.150468,0.10031 -0.09315,0.043 -0.229285,0.0645 -0.128973,0.0215 -0.207789,0.0358 -0.07882,0.007 -0.243616,0.0215 -0.164798,0.007 -0.179128,0.007 -0.20779,0.0143 -0.351093,0.0358 -0.136138,0.0143 -0.329597,0.0717 -0.193459,0.0502 -0.315266,0.13614 -0.114643,0.0788 -0.200624,0.22928 -0.08598,0.15047 -0.08598,0.35826 0,0.32243 0.222119,0.50873 0.22212,0.17913 0.601873,0.17913 0.48723,0 0.852653,-0.32244 0.214954,-0.18629 0.315267,-0.40124 0.107477,-0.21496 0.222119,-0.69502 z m 2.156704,-1.69098 -0.143303,0.68786 q 0.558881,-0.781 1.397204,-0.781 0.480065,0 0.773836,0.25794 0.300936,0.25078 0.300936,0.66636 0,0.20063 -0.100312,0.68786 l -0.458569,2.16387 h -0.451405 l 0.465735,-2.20687 q 0.07882,-0.34392 0.07882,-0.57321 0,-0.27944 -0.200624,-0.44424 -0.200625,-0.1648 -0.537387,-0.1648 -0.601872,0 -1.017451,0.4729 -0.308102,0.33677 -0.45857,1.03179 l -0.401248,1.88443 h -0.444239 l 0.781001,-3.68289 z m 6.928704,-1.4187 -1.07477,5.10159 h -0.41558 l 0.0716,-0.32243 q 0.0645,-0.29377 0.10031,-0.42274 -0.44424,0.85265 -1.375706,0.85265 -0.659193,0 -1.024616,-0.38692 -0.365423,-0.38692 -0.365423,-1.08194 0,-0.44424 0.136138,-0.86698 0.136138,-0.42991 0.379753,-0.781 0.25078,-0.35109 0.637698,-0.56605 0.394084,-0.21495 0.859816,-0.21495 0.48007,0 0.79533,0.22928 0.31527,0.22212 0.39409,0.62337 0.0287,-0.17913 0.0788,-0.39408 l 0.36543,-1.7698 z m -1.96325,1.69098 h -0.086 q -0.508728,0 -0.881316,0.32243 -0.372587,0.32243 -0.544551,0.781 -0.164798,0.45141 -0.164798,0.9458 0,0.52306 0.26511,0.81683 0.272276,0.29377 0.752341,0.29377 0.494395,0 0.866984,-0.35109 0.37259,-0.35826 0.53739,-0.83116 0.16479,-0.4729 0.16479,-0.95296 0,-0.45857 -0.25078,-0.73801 -0.24361,-0.28661 -0.65919,-0.28661 z m 3.01652,-0.27228 -0.781,3.68289 h -0.44424 l 0.781,-3.68289 z m 0.3081,-1.44019 -0.15763,0.73801 h -0.44424 l 0.15047,-0.73801 z m 4.07697,0.0215 -1.07477,5.10159 h -0.41558 l 0.0717,-0.32243 q 0.0645,-0.29377 0.10031,-0.42274 -0.44423,0.85265 -1.3757,0.85265 -0.6592,0 -1.02462,-0.38692 -0.36542,-0.38692 -0.36542,-1.08194 0,-0.44424 0.13613,-0.86698 0.13614,-0.42991 0.37976,-0.781 0.25078,-0.35109 0.6377,-0.56605 0.39408,-0.21495 0.85981,-0.21495 0.48007,0 0.79534,0.22928 0.31526,0.22212 0.39408,0.62337 0.0287,-0.17913 0.0788,-0.39408 l 0.36542,-1.7698 z m -1.96325,1.69098 h -0.086 q -0.50873,0 -0.88131,0.32243 -0.37259,0.32243 -0.54456,0.781 -0.16479,0.45141 -0.16479,0.9458 0,0.52306 0.26511,0.81683 0.27227,0.29377 0.75234,0.29377 0.49439,0 0.86698,-0.35109 0.37259,-0.35826 0.53739,-0.83116 0.16479,-0.4729 0.16479,-0.95296 0,-0.45857 -0.25078,-0.73801 -0.24361,-0.28661 -0.65919,-0.28661 z m 2.3215,0.80966 q 0.24362,-1.17508 1.54768,-1.17508 0.60903,0 0.93863,0.22928 0.3296,0.22929 0.3296,0.65203 0,0.17913 -0.10031,0.63053 l -0.26511,1.18225 q -0.0932,0.46574 -0.0932,0.53739 0,0.22928 0.19346,0.22928 0.0717,0 0.21495,-0.0287 l -0.0645,0.34393 q -0.1863,0.0502 -0.3296,0.0502 -0.42274,0 -0.42274,-0.42991 0,-0.0716 0.0287,-0.19346 -0.4729,0.68069 -1.33989,0.68069 -0.52305,0 -0.83115,-0.27228 -0.30094,-0.27227 -0.30094,-0.73801 0,-0.29377 0.11464,-0.50872 0.12181,-0.21496 0.28661,-0.33677 0.1648,-0.1218 0.42991,-0.20062 0.27227,-0.0788 0.4729,-0.10748 0.20062,-0.0287 0.49439,-0.0502 0.0143,0 0.12181,0 0.10748,-0.007 0.15763,-0.0143 0.0502,-0.007 0.15047,-0.0143 0.10748,-0.007 0.1648,-0.0215 0.0645,-0.0215 0.1433,-0.043 0.0788,-0.0215 0.12897,-0.0573 0.0573,-0.0358 0.0932,-0.0788 0.12897,-0.1648 0.12897,-0.53738 0,-0.52306 -0.83115,-0.52306 -0.48007,0 -0.75234,0.19346 -0.27228,0.18629 -0.37976,0.60187 z m 2.23553,0.60904 q -0.0573,0.0573 -0.15047,0.10031 -0.0931,0.043 -0.22928,0.0645 -0.12897,0.0215 -0.20779,0.0358 -0.0788,0.007 -0.24362,0.0215 -0.16479,0.007 -0.17912,0.007 -0.20779,0.0143 -0.3511,0.0358 -0.13614,0.0143 -0.32959,0.0717 -0.19346,0.0502 -0.31527,0.13614 -0.11464,0.0788 -0.20063,0.22928 -0.086,0.15047 -0.086,0.35826 0,0.32243 0.22212,0.50873 0.22212,0.17913 0.60188,0.17913 0.48723,0 0.85265,-0.32244 0.21495,-0.18629 0.31526,-0.40124 0.10748,-0.21496 0.22212,-0.69502 z m 3.19565,-1.69098 -0.0788,0.37259 h -0.74517 l -0.48007,2.22836 q -0.0716,0.31527 -0.0716,0.45141 0,0.27227 0.39409,0.27227 0.1433,0 0.37258,-0.043 l -0.0788,0.39409 q -0.22212,0.0358 -0.42991,0.0358 -0.71652,0 -0.71652,-0.55888 0,-0.15047 0.086,-0.55172 l 0.4729,-2.22836 h -0.65919 l 0.086,-0.37259 h 0.65203 l 0.24362,-1.11776 h 0.44424 l -0.23645,1.11776 z m 3.21715,2.50064 q -0.39408,1.30406 -1.68381,1.30406 -0.69502,0 -1.0891,-0.41558 -0.39408,-0.41558 -0.39408,-1.16075 0,-0.9888 0.55888,-1.65515 0.56604,-0.67353 1.3972,-0.67353 0.65919,0 1.03178,0.40125 0.37976,0.40125 0.37976,1.10343 0,0.22929 -0.043,0.53739 h -2.85889 q -0.0287,0.17196 -0.0287,0.30094 0,0.55888 0.27944,0.87414 0.28661,0.31527 0.78817,0.31527 0.42991,0 0.74517,-0.24361 0.31527,-0.24362 0.45857,-0.68786 z m -2.64394,-0.9243 h 2.40033 q 0.0143,-0.10032 0.0143,-0.20779 0,-0.52306 -0.26511,-0.80966 -0.26511,-0.29378 -0.74518,-0.29378 -0.51589,0 -0.89564,0.3511 -0.37259,0.35109 -0.50873,0.96013 z"
         id="text3"
         aria-label="Candidate" /></g><path
       style="fill:none;stroke:#000000;stroke-width:0.264583px;stroke-linecap:butt;stroke-linejoin:miter;stroke-opacity:1;marker-end:url(#DartArrow)"
       d="M 52.5876,76.051405 C 52.346015,60.340785 70.804654,56.146855 94.534012,56.192925"
       id="path6"
       sodipodi:nodetypes="cc" /><path
       style="fill:none;stroke:#000000;stroke-width:0.264583px;stroke-linecap:butt;stroke-linejoin:miter;stroke-opacity:1;marker-end:url(#DartArrow)"
       d="m 119.93902,62.468315 c 0.24159,15.71062 -17.3785,20.2127 -41.107857,20.16663"
       id="path8"
       sodipodi:nodetypes="cc" /><path
       style="fill:none;stroke:#000000;stroke-width:0.264583px;stroke-linecap:butt;stroke-linejoin:miter;stroke-opacity:1;marker-start:url(#marker10)"
       d="m 185.49698,72.769365 c -0.0759,-15.88618 -20.33371,-16.77492 -44.06307,-16.72885"
       id="path9"
       sodipodi:nodetypes="cc" /><path
       style="fill:none;stroke:#000000;stroke-width:0.264583px;stroke-linecap:butt;stroke-linejoin:miter;stroke-opacity:1;marker-mid:url(#DartArrow)"
       d="m 185.78756,88.738735 c -0.24334,3.54069 -3.44635,8.85416 -10.61442,11.12426 -11.85484,3.754385 -31.29577,5.686355 -51.18229,5.753445 -20.44263,0.0689 -41.356144,-1.83272 -54.984094,-5.751185 -9.32187,-2.68033 -16.346074,-7.94744 -16.250129,-10.9686"
       id="path12"
       sodipodi:nodetypes="csssc" /><path
       style="fill:none;stroke:#000000;stroke-width:0.264583px;stroke-linecap:butt;stroke-linejoin:miter;stroke-opacity:1;marker-end:url(#DartArrow)"
       d="m 113.42112,49.628415 c -11.31432,-18.57062 21.57173,-17.86807 13.23634,-2.79521"
       id="path13"
       sodipodi:nodetypes="cc" /><path
       style="fill:none;stroke:#000000;stroke-width:0.264583px;stroke-linecap:butt;stroke-linejoin:miter;stroke-opacity:1;marker-end:url(#DartArrow)"
       d="m 13.656159,70.554735 c 1.401955,12.1413 6.324724,13.09546 14.681198,12.87325"
       id="path14"
       sodipodi:nodetypes="cc" /><path
       d="m 10.108122,67.425012 q -0.05355,0.45272 -0.3456245,0.720457 -0.2872091,0.267737 -0.7496643,0.267737 -0.5695501,0 -0.8810989,-0.350492 -0.3115488,-0.35536 -0.3115488,-0.944382 0,-0.627966 0.3261526,-0.993062 0.3261527,-0.369964 0.881099,-0.369964 0.4624552,0 0.7399283,0.233661 0.2774736,0.228794 0.3261526,0.657173 H 9.6651385 Q 9.5531756,66.10093 9.032305,66.10093 q -0.3602283,0 -0.5695501,0.267737 -0.2093219,0.26287 -0.2093219,0.715589 0,0.457587 0.199586,0.720457 0.1995859,0.262869 0.5500783,0.262869 0.2823411,0 0.4575873,-0.16551 0.1801141,-0.165511 0.2287936,-0.47706 z m 2.375563,-1.231591 h -0.900571 v 2.146766 h -0.413776 v -2.146766 h -0.90057 v -0.365096 h 2.214917 z m 2.468049,1.815745 v 0.321285 q -0.126567,0.04868 -0.282341,0.04868 -0.35536,0 -0.365096,-0.369965 -0.355361,0.399172 -0.910307,0.399172 -0.369964,0 -0.589022,-0.18985 -0.21419,-0.18985 -0.21419,-0.52087 0,-0.671777 0.890835,-0.78374 0.525739,-0.06328 0.608494,-0.09249 0.175246,-0.05842 0.18985,-0.243398 0.0049,-0.02921 0.0049,-0.06328 0,-0.413776 -0.56955,-0.413776 -0.292077,0 -0.442984,0.121699 -0.150906,0.116831 -0.180114,0.389436 h -0.40404 q 0.0097,-0.40404 0.287209,-0.627966 0.277474,-0.223925 0.764269,-0.223925 0.530606,0 0.788607,0.243397 0.08276,0.07789 0.121699,0.204454 0.03894,0.126567 0.04381,0.209322 0.0049,0.07789 0.0049,0.238529 0,0.18985 -0.0097,0.564683 -0.0097,0.369964 -0.0097,0.554946 0,0.136302 0.03407,0.194718 0.03894,0.05355 0.136303,0.05355 0.03894,0 0.102227,-0.0146 z m -0.666909,-0.97359 q -0.04381,0.03408 -0.09249,0.05842 -0.04868,0.02434 -0.126567,0.03894 -0.07302,0.0146 -0.102227,0.02434 -0.02434,0.0049 -0.126566,0.01947 -0.102227,0.0097 -0.107095,0.0097 -0.150907,0.01947 -0.199586,0.02921 -0.04381,0.0049 -0.175247,0.03894 -0.126566,0.03408 -0.180114,0.07789 -0.05355,0.04381 -0.107095,0.131435 -0.04868,0.08276 -0.04868,0.199586 0,0.194718 0.131435,0.306681 0.136302,0.111963 0.369964,0.111963 0.296945,0 0.530606,-0.175246 0.233662,-0.175247 0.233662,-0.413776 z m 1.445784,-1.207251 v 0.35536 q 0.272605,-0.433247 0.847023,-0.433247 0.525739,0 0.83242,0.35536 0.311548,0.35536 0.311548,0.963854 0,0.608494 -0.306681,0.97359 -0.301812,0.360228 -0.817815,0.360228 -0.540343,0 -0.842155,-0.413775 v 1.319214 h -0.413776 v -3.480584 z m 0.78374,0.267737 q -0.360229,0 -0.56955,0.262869 -0.204454,0.258002 -0.204454,0.715589 0,0.457587 0.209322,0.720457 0.214189,0.258001 0.579286,0.258001 0.35536,0 0.559814,-0.262869 0.204454,-0.26287 0.204454,-0.715589 0,-0.457587 -0.209322,-0.715589 -0.204454,-0.262869 -0.56955,-0.262869 z m 3.548739,0.09736 h -0.900571 v 2.146766 h -0.413775 v -2.146766 h -0.900571 v -0.365096 h 2.214917 z"
       id="text14"
       style="font-size:4.86795px;line-height:1.25;font-family:HelveticaNeueCyr;-inkscape-font-specification:HelveticaNeueCyr;stroke-width:0.264583"
       aria-label="старт" /><g
       id="text15"
       style="font-size:4.86795px;line-height:1.25;font-family:HelveticaNeueCyr;-inkscape-font-specification:HelveticaNeueCyr;stroke-width:0.264583"
       aria-label="timeout,&#10;новые выборы"><path
         style="text-align:center;text-anchor:middle"
         d="m 47.381596,47.786848 v 0.340756 h -0.501399 v 1.465253 q 0,0.121699 0,0.160642 0.0049,0.03894 0.02921,0.107095 0.02434,0.06328 0.08275,0.08276 0.05842,0.01947 0.16551,0.01947 0.09249,0 0.223926,-0.0146 v 0.355361 q -0.175246,0.01947 -0.316417,0.01947 -0.175246,0 -0.292077,-0.03894 -0.116831,-0.03894 -0.180114,-0.08762 -0.05841,-0.04868 -0.08762,-0.170378 -0.02921,-0.126567 -0.03408,-0.209322 -0.0049,-0.08762 -0.0049,-0.287209 0,-0.04381 0,-0.06815 V 48.127604 H 46.04291 v -0.340756 h 0.423511 v -0.744797 h 0.413776 v 0.744797 z m 0.895705,-0.954119 v 0.506267 h -0.418643 v -0.506267 z m 0,0.954119 v 2.511862 h -0.418643 v -2.511862 z m 1.032006,0 v 0.365096 q 0.165511,-0.223926 0.355361,-0.326153 0.18985,-0.102227 0.462455,-0.102227 0.516003,0 0.696117,0.433248 0.326152,-0.438116 0.832419,-0.438116 0.389436,0 0.589022,0.219058 0.204454,0.21419 0.204454,0.603626 v 1.75733 h -0.413776 v -1.582084 q 0,-0.311549 -0.09736,-0.467323 -0.09736,-0.160642 -0.40404,-0.160642 -0.642569,0 -0.642569,0.78374 v 1.426309 h -0.413776 v -1.611292 q 0,-0.287209 -0.09736,-0.438115 -0.09249,-0.155774 -0.365096,-0.155774 -0.384568,0 -0.535475,0.238529 -0.146038,0.233662 -0.146038,0.637702 v 1.32895 h -0.413776 v -2.511862 z m 5.909694,1.718386 q -0.18985,0.876231 -1.095288,0.876231 -0.554947,0 -0.871363,-0.345624 -0.311549,-0.345625 -0.311549,-0.958987 0,-0.608493 0.321285,-0.983325 0.326152,-0.379701 0.847023,-0.379701 0.579286,0 0.856759,0.394304 0.282341,0.389436 0.282341,0.988194 v 0.05842 h -1.888764 l -0.0049,0.02921 q 0,0.399172 0.209321,0.627966 0.209322,0.228794 0.574419,0.228794 0.272605,0 0.428379,-0.126567 0.160642,-0.126567 0.248266,-0.408908 z M 54.81983,48.818853 q -0.02921,-0.360228 -0.219058,-0.559814 -0.18985,-0.204454 -0.501399,-0.204454 -0.301813,0 -0.501399,0.204454 -0.199586,0.204454 -0.238529,0.559814 z m 1.066083,-0.744796 q 0.331021,-0.360229 0.900571,-0.360229 0.56955,0 0.885967,0.345625 0.316417,0.345624 0.316417,0.968722 0,0.637701 -0.316417,0.993062 -0.316417,0.35536 -0.890835,0.35536 -0.574418,0 -0.900571,-0.350492 -0.326152,-0.350493 -0.326152,-0.97359 0,-0.61823 0.33102,-0.978458 z m 1.465253,0.253133 q -0.209322,-0.267737 -0.574418,-0.267737 -0.365096,0 -0.579286,0.267737 -0.21419,0.267737 -0.21419,0.715589 0,0.462455 0.209322,0.725324 0.21419,0.258002 0.59389,0.258002 0.365096,0 0.56955,-0.26287 0.209322,-0.262869 0.209322,-0.725324 0,-0.447852 -0.21419,-0.710721 z m 3.212845,-0.540342 v 2.511862 h -0.384568 v -0.394304 q -0.321285,0.462455 -0.866495,0.462455 -0.399172,0 -0.61823,-0.219058 Q 58.47566,49.928746 58.47566,49.51497 v -1.728122 h 0.413776 v 1.616159 q 0,0.296945 0.111963,0.452719 0.116831,0.150907 0.413776,0.150907 0.73506,0 0.73506,-0.905439 v -1.314346 z m 1.698913,0 v 0.340756 h -0.501398 v 1.465253 q 0,0.121699 0,0.160642 0.0049,0.03894 0.02921,0.107095 0.02434,0.06328 0.08275,0.08276 0.05842,0.01947 0.165511,0.01947 0.09249,0 0.223925,-0.0146 v 0.355361 q -0.175246,0.01947 -0.316416,0.01947 -0.175247,0 -0.292077,-0.03894 -0.116831,-0.03894 -0.180114,-0.08762 -0.05842,-0.04868 -0.08762,-0.170378 -0.02921,-0.126567 -0.03408,-0.209322 -0.0049,-0.08762 -0.0049,-0.287209 0,-0.04381 0,-0.06815 v -1.333818 h -0.423512 v -0.340756 h 0.423512 v -0.744797 h 0.413776 v 0.744797 z m 1.090424,1.971519 v 0.331021 q 0,0.184982 -0.01947,0.311549 -0.0146,0.131434 -0.06815,0.262869 -0.05355,0.131435 -0.16551,0.219058 -0.111963,0.09249 -0.287209,0.136302 v -0.243397 q 0.262869,-0.08762 0.267737,-0.477059 h -0.267737 v -0.540343 z"
         id="path36" /><path
         style="text-align:center;text-anchor:middle"
         d="m 38.877287,56.383647 h -0.413776 v -2.511862 h 0.413776 v 0.99793 h 1.255931 v -0.99793 h 0.413776 v 2.511862 h -0.413776 v -1.148836 h -1.255931 z m 2.492389,-2.224653 q 0.331021,-0.360228 0.900571,-0.360228 0.56955,0 0.885967,0.345624 0.316417,0.345625 0.316417,0.968722 0,0.637702 -0.316417,0.993062 -0.316417,0.355361 -0.890835,0.355361 -0.574418,0 -0.900571,-0.350493 -0.326152,-0.350492 -0.326152,-0.97359 0,-0.61823 0.33102,-0.978458 z m 1.465253,0.253134 q -0.209322,-0.267738 -0.574418,-0.267738 -0.365096,0 -0.579286,0.267738 -0.21419,0.267737 -0.21419,0.715588 0,0.462455 0.209322,0.725325 0.21419,0.258001 0.59389,0.258001 0.365096,0 0.56955,-0.262869 0.209322,-0.262869 0.209322,-0.725325 0,-0.447851 -0.21419,-0.71072 z m 1.119625,1.971519 v -2.511862 h 1.163441 q 0.248265,0 0.423511,0.04381 0.175246,0.03894 0.306681,0.180114 0.131435,0.14117 0.131435,0.384568 0,0.369964 -0.369965,0.540342 v 0.0049 q 0.223926,0.04381 0.350493,0.209322 0.126567,0.160642 0.126567,0.408908 0,0.321285 -0.21419,0.530606 -0.21419,0.209322 -0.550079,0.209322 z m 1.119629,-1.499328 q 0.258001,0 0.365096,-0.08275 0.111963,-0.08762 0.111963,-0.253134 0,-0.16551 -0.107095,-0.243397 -0.107095,-0.07789 -0.369964,-0.07789 h -0.715589 v 0.657174 z m -0.715589,0.350492 v 0.793476 h 0.885967 q 0.194718,0 0.301813,-0.116831 0.111963,-0.116831 0.111963,-0.301813 0,-0.374832 -0.486795,-0.374832 z m 4.614821,-1.363026 h 0.413775 v 2.511862 h -0.413775 z m -0.623098,1.168308 q 0.223926,0.204454 0.223926,0.559814 0,0.355361 -0.219058,0.569551 -0.21419,0.214189 -0.579286,0.214189 h -1.21212 v -2.511862 h 0.413776 v 0.958986 h 0.778872 q 0.369964,0 0.59389,0.209322 z m -0.725325,0.146039 h -0.647437 v 0.832419 h 0.647437 q 0.253134,0 0.384568,-0.107095 0.136303,-0.111963 0.136303,-0.311549 0,-0.413775 -0.520871,-0.413775 z m 4.527196,0.404039 q -0.18985,0.876231 -1.095288,0.876231 -0.554947,0 -0.871364,-0.345624 -0.311548,-0.345624 -0.311548,-0.958986 0,-0.608494 0.321284,-0.983326 0.326153,-0.3797 0.847024,-0.3797 0.579286,0 0.856759,0.394304 0.282341,0.389436 0.282341,0.988194 v 0.05842 h -1.888765 l -0.0049,0.02921 q 0,0.399172 0.209322,0.627965 0.209322,0.228794 0.574418,0.228794 0.272606,0 0.42838,-0.126567 0.160642,-0.126566 0.248265,-0.408908 z m -0.399172,-0.68638 q -0.02921,-0.360229 -0.219057,-0.559815 -0.18985,-0.204454 -0.501399,-0.204454 -0.301813,0 -0.501399,0.204454 -0.199586,0.204454 -0.23853,0.559815 z m 2.210052,1.479856 v -2.511862 h 1.16344 q 0.248265,0 0.423512,0.04381 0.175246,0.03894 0.30668,0.180114 0.131435,0.14117 0.131435,0.384568 0,0.369964 -0.369964,0.540342 v 0.0049 q 0.223926,0.04381 0.350492,0.209322 0.126567,0.160642 0.126567,0.408908 0,0.321285 -0.21419,0.530606 -0.21419,0.209322 -0.550078,0.209322 z m 1.119628,-1.499328 q 0.258002,0 0.365097,-0.08275 0.111962,-0.08762 0.111962,-0.253134 0,-0.16551 -0.107094,-0.243397 -0.107095,-0.07789 -0.369965,-0.07789 h -0.715588 v 0.657174 z m -0.715588,0.350492 v 0.793476 h 0.885967 q 0.194718,0 0.301813,-0.116831 0.111962,-0.116831 0.111962,-0.301813 0,-0.374832 -0.486795,-0.374832 z m 4.614819,-1.363026 h 0.413776 v 2.511862 h -0.413776 z m -0.623098,1.168308 q 0.223926,0.204454 0.223926,0.559814 0,0.355361 -0.219058,0.569551 -0.214189,0.214189 -0.579286,0.214189 h -1.212119 v -2.511862 h 0.413776 v 0.958986 h 0.778872 q 0.369964,0 0.593889,0.209322 z m -0.725324,0.146039 h -0.647437 v 0.832419 h 0.647437 q 0.253133,0 0.384568,-0.107095 0.136303,-0.111963 0.136303,-0.311549 0,-0.413775 -0.520871,-0.413775 z m 2.614092,-1.664839 q 0.165511,-0.258002 0.399172,-0.3797 0.233662,-0.126567 0.59389,-0.150907 0.40404,-0.02921 0.491663,-0.07789 0.05842,-0.02921 0.08762,-0.07789 h 0.413776 q -0.0146,0.07789 -0.04381,0.14117 -0.02434,0.06328 -0.05841,0.111963 -0.02921,0.04381 -0.08762,0.08275 -0.05355,0.03894 -0.09249,0.06815 -0.03894,0.02434 -0.116831,0.04868 -0.07302,0.01947 -0.116831,0.03408 -0.04381,0.0097 -0.136302,0.01947 -0.08762,0.0097 -0.126567,0.0146 -0.03894,0.0049 -0.141171,0.0097 -0.102227,0.0049 -0.131434,0.0097 -0.399172,0.02921 -0.623098,0.311549 -0.223926,0.277473 -0.282341,0.744796 h 0.0146 q 0.107095,-0.258001 0.340756,-0.413775 0.233662,-0.155775 0.540343,-0.155775 0.535474,0 0.837287,0.340757 0.306681,0.335888 0.306681,0.944382 0,0.627966 -0.311549,0.97359 -0.306681,0.345624 -0.866495,0.345624 -0.457587,0 -0.774004,-0.267737 -0.316417,-0.272605 -0.389436,-0.778872 -0.02921,-0.204454 -0.02921,-0.457587 0,-0.978458 0.301813,-1.440913 z m 0.121699,1.640499 q 0,0.428379 0.204454,0.691249 0.209322,0.262869 0.56955,0.262869 0.350493,0 0.550079,-0.253133 0.199585,-0.253134 0.199585,-0.705853 0,-0.442984 -0.204453,-0.696117 -0.204454,-0.253133 -0.554947,-0.253133 -0.350492,0 -0.559814,0.258001 -0.204454,0.253133 -0.204454,0.696117 z m 2.638427,-1.002798 q 0.33102,-0.360228 0.90057,-0.360228 0.569551,0 0.885967,0.345624 0.316417,0.345625 0.316417,0.968722 0,0.637702 -0.316417,0.993062 -0.316416,0.355361 -0.890835,0.355361 -0.574418,0 -0.90057,-0.350493 -0.326153,-0.350492 -0.326153,-0.97359 0,-0.61823 0.331021,-0.978458 z m 1.465253,0.253134 q -0.209322,-0.267738 -0.574419,-0.267738 -0.365096,0 -0.579286,0.267738 -0.214189,0.267737 -0.214189,0.715588 0,0.462455 0.209321,0.725325 0.21419,0.258001 0.59389,0.258001 0.365097,0 0.569551,-0.262869 0.209321,-0.262869 0.209321,-0.725325 0,-0.447851 -0.214189,-0.71072 z m 1.518796,-0.540343 v 0.35536 q 0.272605,-0.433247 0.847023,-0.433247 0.525739,0 0.832419,0.35536 0.311549,0.355361 0.311549,0.963854 0,0.608494 -0.306681,0.97359 -0.301813,0.360229 -0.817815,0.360229 -0.540343,0 -0.842156,-0.413776 v 1.319214 h -0.413775 v -3.480584 z m 0.78374,0.267737 q -0.360229,0 -0.569551,0.26287 -0.204453,0.258001 -0.204453,0.715588 0,0.457588 0.209321,0.720457 0.21419,0.258001 0.579286,0.258001 0.355361,0 0.559815,-0.262869 0.204454,-0.262869 0.204454,-0.715589 0,-0.457587 -0.209322,-0.715588 -0.204454,-0.26287 -0.56955,-0.26287 z m 4.108553,-0.267737 h 0.413776 v 2.511862 h -0.413776 z m -0.623098,1.168308 q 0.223926,0.204454 0.223926,0.559814 0,0.355361 -0.219058,0.569551 -0.21419,0.214189 -0.579286,0.214189 H 68.47443 v -2.511862 h 0.413775 v 0.958986 h 0.778872 q 0.369965,0 0.59389,0.209322 z m -0.725324,0.146039 h -0.647438 v 0.832419 h 0.647438 q 0.253133,0 0.384568,-0.107095 0.136302,-0.111963 0.136302,-0.311549 0,-0.413775 -0.52087,-0.413775 z"
         id="path37" /></g><g
       id="text18"
       style="font-size:4.86795px;line-height:1.25;font-family:HelveticaNeueCyr;-inkscape-font-specification:HelveticaNeueCyr;stroke-width:0.264583"
       aria-label="timeout,&#10;новые выборы"><path
         style="text-align:center;text-anchor:middle"
         d="m 112.17561,24.555366 v 0.340757 h -0.5014 v 1.465253 q 0,0.121698 0,0.160642 0.005,0.03894 0.0292,0.107095 0.0243,0.06328 0.0828,0.08275 0.0584,0.01947 0.16551,0.01947 0.0925,0 0.22393,-0.0146 v 0.35536 q -0.17525,0.01947 -0.31642,0.01947 -0.17524,0 -0.29207,-0.03894 -0.11683,-0.03894 -0.18012,-0.08762 -0.0584,-0.04868 -0.0876,-0.170378 -0.0292,-0.126567 -0.0341,-0.209322 -0.005,-0.08762 -0.005,-0.287209 0,-0.04381 0,-0.06815 v -1.333818 h -0.42352 v -0.340757 h 0.42352 V 23.81057 h 0.41377 v 0.744796 z m 0.89571,-0.954118 v 0.506267 h -0.41865 v -0.506267 z m 0,0.954118 v 2.511862 h -0.41865 v -2.511862 z m 1.032,0 v 0.365096 q 0.16551,-0.223925 0.35536,-0.326152 0.18985,-0.102227 0.46246,-0.102227 0.516,0 0.69611,0.433247 0.32616,-0.438115 0.83242,-0.438115 0.38944,0 0.58903,0.219058 0.20445,0.214189 0.20445,0.603625 v 1.75733 h -0.41378 v -1.582083 q 0,-0.311549 -0.0974,-0.467324 -0.0974,-0.160642 -0.40404,-0.160642 -0.64257,0 -0.64257,0.78374 v 1.426309 h -0.41377 v -1.611291 q 0,-0.287209 -0.0974,-0.438116 -0.0925,-0.155774 -0.3651,-0.155774 -0.38456,0 -0.53547,0.23853 -0.14604,0.233661 -0.14604,0.637701 v 1.32895 h -0.41377 v -2.511862 z m 5.9097,1.718386 q -0.18985,0.876231 -1.09529,0.876231 -0.55495,0 -0.87137,-0.345624 -0.31155,-0.345624 -0.31155,-0.958986 0,-0.608494 0.32129,-0.983326 0.32615,-0.3797 0.84702,-0.3797 0.57929,0 0.85676,0.394304 0.28234,0.389436 0.28234,0.988194 v 0.05842 h -1.88876 l -0.005,0.02921 q 0,0.399172 0.20932,0.627965 0.20932,0.228794 0.57442,0.228794 0.27261,0 0.42838,-0.126567 0.16064,-0.126566 0.24827,-0.408908 z m -0.39918,-0.68638 q -0.0292,-0.360229 -0.21905,-0.559815 -0.18985,-0.204454 -0.5014,-0.204454 -0.30182,0 -0.5014,0.204454 -0.19959,0.204454 -0.23853,0.559815 z m 1.06609,-0.744797 q 0.33102,-0.360228 0.90057,-0.360228 0.56955,0 0.88596,0.345624 0.31642,0.345625 0.31642,0.968722 0,0.637702 -0.31642,0.993062 -0.31641,0.355361 -0.89083,0.355361 -0.57442,0 -0.90057,-0.350493 -0.32615,-0.350492 -0.32615,-0.97359 0,-0.61823 0.33102,-0.978458 z m 1.46525,0.253134 q -0.20932,-0.267738 -0.57442,-0.267738 -0.36509,0 -0.57928,0.267738 -0.21419,0.267737 -0.21419,0.715588 0,0.462455 0.20932,0.725325 0.21419,0.258001 0.59389,0.258001 0.36509,0 0.56955,-0.262869 0.20932,-0.262869 0.20932,-0.725325 0,-0.447851 -0.21419,-0.71072 z m 3.21284,-0.540343 v 2.511862 h -0.38456 v -0.394304 q -0.32129,0.462456 -0.8665,0.462456 -0.39917,0 -0.61823,-0.219058 -0.21906,-0.219058 -0.21906,-0.632834 v -1.728122 h 0.41378 v 1.61616 q 0,0.296944 0.11196,0.452719 0.11683,0.150906 0.41378,0.150906 0.73506,0 0.73506,-0.905438 v -1.314347 z m 1.69892,0 v 0.340757 h -0.5014 v 1.465253 q 0,0.121698 0,0.160642 0.005,0.03894 0.0292,0.107095 0.0243,0.06328 0.0828,0.08275 0.0584,0.01947 0.16551,0.01947 0.0925,0 0.22393,-0.0146 v 0.35536 q -0.17525,0.01947 -0.31642,0.01947 -0.17524,0 -0.29208,-0.03894 -0.11683,-0.03894 -0.18011,-0.08762 -0.0584,-0.04868 -0.0876,-0.170378 -0.0292,-0.126567 -0.0341,-0.209322 -0.005,-0.08762 -0.005,-0.287209 0,-0.04381 0,-0.06815 v -1.333818 h -0.42351 v -0.340757 h 0.42351 V 23.81057 h 0.41378 v 0.744796 z m 1.09042,1.97152 v 0.33102 q 0,0.184983 -0.0195,0.311549 -0.0146,0.131435 -0.0682,0.26287 -0.0536,0.131434 -0.16551,0.219057 -0.11196,0.09249 -0.28721,0.136303 v -0.243398 q 0.26287,-0.08762 0.26774,-0.477059 h -0.26774 v -0.540342 z"
         id="path34" /><path
         style="text-align:center;text-anchor:middle"
         d="m 103.6713,33.152166 h -0.41377 v -2.511862 h 0.41377 v 0.997929 h 1.25593 v -0.997929 h 0.41378 v 2.511862 h -0.41378 V 32.00333 h -1.25593 z m 2.49239,-2.224653 q 0.33102,-0.360229 0.90057,-0.360229 0.56955,0 0.88597,0.345625 0.31641,0.345624 0.31641,0.968722 0,0.637701 -0.31641,0.993062 -0.31642,0.35536 -0.89084,0.35536 -0.57442,0 -0.90057,-0.350492 -0.32615,-0.350493 -0.32615,-0.97359 0,-0.61823 0.33102,-0.978458 z m 1.46525,0.253133 q -0.20932,-0.267737 -0.57442,-0.267737 -0.36509,0 -0.57928,0.267737 -0.21419,0.267737 -0.21419,0.715589 0,0.462455 0.20932,0.725324 0.21419,0.258002 0.59389,0.258002 0.3651,0 0.56955,-0.26287 0.20932,-0.262869 0.20932,-0.725324 0,-0.447852 -0.21419,-0.710721 z m 1.11963,1.97152 v -2.511862 h 1.16344 q 0.24826,0 0.42351,0.04381 0.17525,0.03894 0.30668,0.180114 0.13144,0.141171 0.13144,0.384568 0,0.369965 -0.36997,0.540343 v 0.0049 q 0.22393,0.04381 0.35049,0.209322 0.12657,0.160642 0.12657,0.408907 0,0.321285 -0.21419,0.530607 -0.21419,0.209322 -0.55008,0.209322 z m 1.11963,-1.499329 q 0.258,0 0.36509,-0.08276 0.11197,-0.08762 0.11197,-0.253133 0,-0.165511 -0.1071,-0.243398 -0.10709,-0.07789 -0.36996,-0.07789 h -0.71559 v 0.657173 z m -0.71559,0.350493 v 0.793475 h 0.88597 q 0.19471,0 0.30181,-0.11683 0.11196,-0.116831 0.11196,-0.301813 0,-0.374832 -0.48679,-0.374832 z m 4.61482,-1.363026 h 0.41377 v 2.511862 h -0.41377 z m -0.6231,1.168308 q 0.22393,0.204453 0.22393,0.559814 0,0.35536 -0.21906,0.56955 -0.21419,0.21419 -0.57929,0.21419 h -1.21212 v -2.511862 h 0.41378 v 0.958986 h 0.77887 q 0.36997,0 0.59389,0.209322 z m -0.72532,0.146038 h -0.64744 v 0.83242 h 0.64744 q 0.25313,0 0.38456,-0.107095 0.13631,-0.111963 0.13631,-0.311549 0,-0.413776 -0.52087,-0.413776 z m 4.52719,0.40404 q -0.18985,0.876231 -1.09529,0.876231 -0.55494,0 -0.87136,-0.345625 -0.31155,-0.345624 -0.31155,-0.958986 0,-0.608493 0.32129,-0.983326 0.32615,-0.3797 0.84702,-0.3797 0.57929,0 0.85676,0.394304 0.28234,0.389436 0.28234,0.988194 v 0.05842 h -1.88876 l -0.005,0.02921 q 0,0.399172 0.20932,0.627966 0.20932,0.228793 0.57442,0.228793 0.2726,0 0.42838,-0.126566 0.16064,-0.126567 0.24826,-0.408908 z m -0.39917,-0.686381 q -0.0292,-0.360228 -0.21906,-0.559814 -0.18985,-0.204454 -0.5014,-0.204454 -0.30181,0 -0.5014,0.204454 -0.19958,0.204454 -0.23852,0.559814 z m 2.21005,1.479857 v -2.511862 h 1.16344 q 0.24827,0 0.42351,0.04381 0.17525,0.03894 0.30668,0.180114 0.13144,0.141171 0.13144,0.384568 0,0.369965 -0.36997,0.540343 v 0.0049 q 0.22393,0.04381 0.3505,0.209322 0.12656,0.160642 0.12656,0.408907 0,0.321285 -0.21419,0.530607 -0.21419,0.209322 -0.55007,0.209322 z m 1.11963,-1.499329 q 0.258,0 0.3651,-0.08276 0.11196,-0.08762 0.11196,-0.253133 0,-0.165511 -0.1071,-0.243398 -0.10709,-0.07789 -0.36996,-0.07789 h -0.71559 v 0.657173 z m -0.71559,0.350493 v 0.793475 h 0.88597 q 0.19472,0 0.30181,-0.11683 0.11196,-0.116831 0.11196,-0.301813 0,-0.374832 -0.48679,-0.374832 z m 4.61482,-1.363026 h 0.41378 v 2.511862 h -0.41378 z m -0.6231,1.168308 q 0.22393,0.204453 0.22393,0.559814 0,0.35536 -0.21906,0.56955 -0.21419,0.21419 -0.57928,0.21419 h -1.21212 v -2.511862 h 0.41377 v 0.958986 h 0.77887 q 0.36997,0 0.59389,0.209322 z m -0.72532,0.146038 h -0.64744 v 0.83242 h 0.64744 q 0.25313,0 0.38457,-0.107095 0.1363,-0.111963 0.1363,-0.311549 0,-0.413776 -0.52087,-0.413776 z m 2.61409,-1.664839 q 0.16551,-0.258001 0.39917,-0.3797 0.23366,-0.126567 0.59389,-0.150906 0.40404,-0.02921 0.49167,-0.07789 0.0584,-0.02921 0.0876,-0.07789 h 0.41377 q -0.0146,0.07789 -0.0438,0.141171 -0.0243,0.06328 -0.0584,0.111963 -0.0292,0.04381 -0.0876,0.08276 -0.0535,0.03894 -0.0925,0.06815 -0.0389,0.02434 -0.11683,0.04868 -0.073,0.01947 -0.11683,0.03408 -0.0438,0.0097 -0.1363,0.01947 -0.0876,0.0097 -0.12657,0.0146 -0.0389,0.0049 -0.14117,0.0097 -0.10222,0.0049 -0.13143,0.0097 -0.39917,0.02921 -0.6231,0.311548 -0.22393,0.277474 -0.28234,0.744797 h 0.0146 q 0.1071,-0.258002 0.34076,-0.413776 0.23366,-0.155774 0.54034,-0.155774 0.53548,0 0.83729,0.340756 0.30668,0.335889 0.30668,0.944382 0,0.627966 -0.31155,0.97359 -0.30668,0.345625 -0.86649,0.345625 -0.45759,0 -0.77401,-0.267737 -0.31641,-0.272606 -0.38943,-0.778872 -0.0292,-0.204454 -0.0292,-0.457588 0,-0.978458 0.30181,-1.440913 z m 0.1217,1.640499 q 0,0.42838 0.20445,0.691249 0.20933,0.26287 0.56955,0.26287 0.3505,0 0.55008,-0.253134 0.19959,-0.253133 0.19959,-0.705853 0,-0.442983 -0.20446,-0.696116 -0.20445,-0.253134 -0.55494,-0.253134 -0.35049,0 -0.55982,0.258001 -0.20445,0.253134 -0.20445,0.696117 z m 2.63843,-1.002797 q 0.33102,-0.360229 0.90057,-0.360229 0.56955,0 0.88596,0.345625 0.31642,0.345624 0.31642,0.968722 0,0.637701 -0.31642,0.993062 -0.31641,0.35536 -0.89083,0.35536 -0.57442,0 -0.90057,-0.350492 -0.32615,-0.350493 -0.32615,-0.97359 0,-0.61823 0.33102,-0.978458 z m 1.46525,0.253133 q -0.20932,-0.267737 -0.57442,-0.267737 -0.36509,0 -0.57928,0.267737 -0.21419,0.267737 -0.21419,0.715589 0,0.462455 0.20932,0.725324 0.21419,0.258002 0.59389,0.258002 0.36509,0 0.56955,-0.26287 0.20932,-0.262869 0.20932,-0.725324 0,-0.447852 -0.21419,-0.710721 z m 1.5188,-0.540342 v 0.35536 q 0.2726,-0.433248 0.84702,-0.433248 0.52574,0 0.83242,0.355361 0.31155,0.35536 0.31155,0.963854 0,0.608494 -0.30668,0.97359 -0.30182,0.360228 -0.81782,0.360228 -0.54034,0 -0.84215,-0.413776 v 1.319215 h -0.41378 v -3.480584 z m 0.78374,0.267737 q -0.36023,0 -0.56955,0.262869 -0.20446,0.258001 -0.20446,0.715589 0,0.457587 0.20932,0.720456 0.21419,0.258002 0.57929,0.258002 0.35536,0 0.55981,-0.26287 0.20446,-0.262869 0.20446,-0.715588 0,-0.457588 -0.20932,-0.715589 -0.20446,-0.262869 -0.56955,-0.262869 z m 4.10855,-0.267737 h 0.41377 v 2.511862 h -0.41377 z m -0.6231,1.168308 q 0.22393,0.204453 0.22393,0.559814 0,0.35536 -0.21906,0.56955 -0.21419,0.21419 -0.57929,0.21419 h -1.21212 v -2.511862 h 0.41378 v 0.958986 h 0.77887 q 0.36997,0 0.59389,0.209322 z m -0.72532,0.146038 h -0.64744 v 0.83242 h 0.64744 q 0.25313,0 0.38456,-0.107095 0.13631,-0.111963 0.13631,-0.311549 0,-0.413776 -0.52087,-0.413776 z"
         id="path35" /></g><g
       id="text20"
       style="font-size:4.86795px;line-height:1.25;font-family:HelveticaNeueCyr;-inkscape-font-specification:HelveticaNeueCyr;stroke-width:0.264583"
       aria-label="обнаружен&#10;новый терм"><path
         style="text-align:center;text-anchor:middle"
         d="m 155.36203,107.25355 q 0.33102,-0.36023 0.90057,-0.36023 0.56955,0 0.88597,0.34563 0.31641,0.34562 0.31641,0.96872 0,0.6377 -0.31641,0.99306 -0.31642,0.35536 -0.89084,0.35536 -0.57442,0 -0.90057,-0.35049 -0.32615,-0.35049 -0.32615,-0.97359 0,-0.61823 0.33102,-0.97846 z m 1.46525,0.25313 q -0.20932,-0.26773 -0.57442,-0.26773 -0.36509,0 -0.57928,0.26773 -0.21419,0.26774 -0.21419,0.71559 0,0.46246 0.20932,0.72533 0.21419,0.258 0.59389,0.258 0.36509,0 0.56955,-0.26287 0.20932,-0.26287 0.20932,-0.72533 0,-0.44785 -0.21419,-0.71072 z m 1.36302,-0.89083 q 0.16551,-0.258 0.39918,-0.3797 0.23366,-0.12657 0.59389,-0.15091 0.40404,-0.0292 0.49166,-0.0779 0.0584,-0.0292 0.0876,-0.0779 h 0.41378 q -0.0146,0.0779 -0.0438,0.14117 -0.0243,0.0633 -0.0584,0.11196 -0.0292,0.0438 -0.0876,0.0828 -0.0536,0.0389 -0.0925,0.0682 -0.0389,0.0243 -0.11683,0.0487 -0.073,0.0195 -0.11684,0.0341 -0.0438,0.01 -0.1363,0.0195 -0.0876,0.01 -0.12656,0.0146 -0.0389,0.005 -0.14118,0.01 -0.10222,0.005 -0.13143,0.01 -0.39917,0.0292 -0.6231,0.31155 -0.22392,0.27747 -0.28234,0.74479 h 0.0146 q 0.10709,-0.258 0.34075,-0.41377 0.23366,-0.15578 0.54034,-0.15578 0.53548,0 0.83729,0.34076 0.30668,0.33589 0.30668,0.94438 0,0.62797 -0.31155,0.97359 -0.30668,0.34563 -0.86649,0.34563 -0.45759,0 -0.77401,-0.26774 -0.31641,-0.2726 -0.38943,-0.77887 -0.0292,-0.20446 -0.0292,-0.45759 0,-0.97846 0.30181,-1.44091 z m 0.1217,1.6405 q 0,0.42838 0.20446,0.69125 0.20932,0.26287 0.56955,0.26287 0.35049,0 0.55007,-0.25314 0.19959,-0.25313 0.19959,-0.70585 0,-0.44298 -0.20445,-0.69612 -0.20446,-0.25313 -0.55495,-0.25313 -0.35049,0 -0.55981,0.258 -0.20446,0.25313 -0.20446,0.69612 z m 2.85262,1.22185 h -0.41378 v -2.51186 h 0.41378 v 0.99793 h 1.25593 v -0.99793 h 0.41378 v 2.51186 h -0.41378 v -1.14883 h -1.25593 z m 4.51745,-0.33102 v 0.32129 q -0.12656,0.0487 -0.28234,0.0487 -0.35536,0 -0.36509,-0.36997 -0.35536,0.39917 -0.91031,0.39917 -0.36996,0 -0.58902,-0.18985 -0.21419,-0.18985 -0.21419,-0.52087 0,-0.67177 0.89083,-0.78374 0.52574,-0.0633 0.6085,-0.0925 0.17524,-0.0584 0.18985,-0.2434 0.005,-0.0292 0.005,-0.0633 0,-0.41377 -0.56955,-0.41377 -0.29208,0 -0.44299,0.12169 -0.1509,0.11684 -0.18011,0.38944 h -0.40404 q 0.01,-0.40404 0.28721,-0.62796 0.27747,-0.22393 0.76427,-0.22393 0.5306,0 0.7886,0.2434 0.0828,0.0779 0.1217,0.20445 0.0389,0.12657 0.0438,0.20932 0.005,0.0779 0.005,0.23853 0,0.18985 -0.01,0.56468 -0.01,0.36997 -0.01,0.55495 0,0.1363 0.0341,0.19472 0.0389,0.0536 0.1363,0.0536 0.0389,0 0.10222,-0.0146 z m -0.6669,-0.97359 q -0.0438,0.0341 -0.0925,0.0584 -0.0487,0.0243 -0.12656,0.0389 -0.073,0.0146 -0.10223,0.0243 -0.0243,0.005 -0.12657,0.0195 -0.10222,0.01 -0.10709,0.01 -0.15091,0.0195 -0.19959,0.0292 -0.0438,0.005 -0.17524,0.0389 -0.12657,0.0341 -0.18012,0.0779 -0.0535,0.0438 -0.10709,0.13143 -0.0487,0.0828 -0.0487,0.19959 0,0.19472 0.13143,0.30668 0.13631,0.11196 0.36997,0.11196 0.29694,0 0.5306,-0.17524 0.23367,-0.17525 0.23367,-0.41378 z m 1.44578,-1.20725 v 0.35536 q 0.2726,-0.43325 0.84702,-0.43325 0.52574,0 0.83242,0.35536 0.31155,0.35536 0.31155,0.96386 0,0.60849 -0.30668,0.97359 -0.30181,0.36023 -0.81782,0.36023 -0.54034,0 -0.84215,-0.41378 v 1.31921 h -0.41378 v -3.48058 z m 0.78374,0.26774 q -0.36023,0 -0.56955,0.26287 -0.20445,0.258 -0.20445,0.71559 0,0.45758 0.20932,0.72045 0.21419,0.258 0.57928,0.258 0.35536,0 0.55982,-0.26287 0.20445,-0.26286 0.20445,-0.71558 0,-0.45759 -0.20932,-0.71559 -0.20445,-0.26287 -0.56955,-0.26287 z m 3.73372,-0.26774 -1.07581,2.83315 q -0.0633,0.17038 -0.11197,0.26287 -0.0438,0.0974 -0.13143,0.20932 -0.0828,0.11683 -0.20445,0.16551 -0.11684,0.0536 -0.27748,0.0536 -0.1217,0 -0.30668,-0.0438 v -0.36996 q 0.18012,0.0536 0.26774,0.0536 0.20445,0 0.29208,-0.20932 l 0.19471,-0.45759 -0.99793,-2.49726 h 0.46733 l 0.74479,2.00073 0.70586,-2.00073 z m 1.41658,1.29488 -0.86163,1.21698 h -0.51113 l 1.10015,-1.47985 -0.95898,-1.03201 h 0.51113 l 1.02227,1.1537 h 0.01 v -1.1537 h 0.41377 v 1.1537 h 0.01 l 1.02227,-1.1537 h 0.51113 l -0.95898,1.03201 1.10015,1.47985 h -0.51113 l -0.86163,-1.21698 -0.31155,0.31641 v 0.90057 h -0.41377 v -0.90057 z m 4.78519,0.42351 q -0.18985,0.87623 -1.09529,0.87623 -0.55494,0 -0.87136,-0.34563 -0.31155,-0.34562 -0.31155,-0.95898 0,-0.6085 0.32129,-0.98333 0.32615,-0.3797 0.84702,-0.3797 0.57929,0 0.85676,0.39431 0.28234,0.38943 0.28234,0.98819 v 0.0584 h -1.88876 l -0.005,0.0292 q 0,0.39917 0.20932,0.62797 0.20932,0.22879 0.57442,0.22879 0.2726,0 0.42838,-0.12657 0.16064,-0.12656 0.24826,-0.4089 z m -0.39917,-0.68638 q -0.0292,-0.36023 -0.21906,-0.55982 -0.18985,-0.20445 -0.5014,-0.20445 -0.30181,0 -0.50139,0.20445 -0.19959,0.20446 -0.23853,0.55982 z m 1.28027,1.47985 h -0.41377 v -2.51186 h 0.41377 v 0.99793 h 1.25594 v -0.99793 h 0.41377 v 2.51186 h -0.41377 v -1.14883 h -1.25594 z"
         id="path32" /><path
         style="text-align:center;text-anchor:middle"
         d="m 154.87037,115.56314 h -0.41378 v -2.51186 h 0.41378 v 0.99793 h 1.25593 v -0.99793 h 0.41377 v 2.51186 h -0.41377 v -1.14884 h -1.25593 z m 2.49239,-2.22465 q 0.33102,-0.36023 0.90057,-0.36023 0.56955,0 0.88596,0.34562 0.31642,0.34563 0.31642,0.96873 0,0.6377 -0.31642,0.99306 -0.31641,0.35536 -0.89083,0.35536 -0.57442,0 -0.90057,-0.35049 -0.32615,-0.3505 -0.32615,-0.97359 0,-0.61823 0.33102,-0.97846 z m 1.46525,0.25313 q -0.20932,-0.26774 -0.57442,-0.26774 -0.3651,0 -0.57928,0.26774 -0.21419,0.26774 -0.21419,0.71559 0,0.46245 0.20932,0.72532 0.21419,0.25801 0.59389,0.25801 0.36509,0 0.56955,-0.26287 0.20932,-0.26287 0.20932,-0.72533 0,-0.44785 -0.21419,-0.71072 z m 1.11962,1.97152 v -2.51186 h 1.16344 q 0.24827,0 0.42352,0.0438 0.17524,0.0389 0.30668,0.18011 0.13143,0.14117 0.13143,0.38457 0,0.36997 -0.36996,0.54034 v 0.005 q 0.22392,0.0438 0.35049,0.20932 0.12657,0.16065 0.12657,0.40891 0,0.32129 -0.21419,0.53061 -0.21419,0.20932 -0.55008,0.20932 z m 1.11963,-1.49933 q 0.258,0 0.3651,-0.0828 0.11196,-0.0876 0.11196,-0.25314 0,-0.16551 -0.10709,-0.24339 -0.1071,-0.0779 -0.36997,-0.0779 h -0.71559 v 0.65717 z m -0.71559,0.35049 v 0.79348 h 0.88597 q 0.19472,0 0.30181,-0.11683 0.11197,-0.11683 0.11197,-0.30181 0,-0.37484 -0.4868,-0.37484 z m 4.61482,-1.36302 h 0.41378 v 2.51186 h -0.41378 z m -0.62309,1.16831 q 0.22392,0.20445 0.22392,0.55981 0,0.35536 -0.21905,0.56955 -0.21419,0.21419 -0.57929,0.21419 h -1.21212 v -2.51186 h 0.41378 v 0.95898 h 0.77887 q 0.36996,0 0.59389,0.20933 z m -0.72533,0.14603 h -0.64743 v 0.83242 h 0.64743 q 0.25314,0 0.38457,-0.10709 0.1363,-0.11196 0.1363,-0.31155 0,-0.41378 -0.52087,-0.41378 z m 4.15723,-2.26846 q -0.0487,0.30668 -0.23853,0.49166 -0.18498,0.18012 -0.49166,0.18012 -0.29694,0 -0.5014,-0.18499 -0.19958,-0.18985 -0.23853,-0.48679 h 0.24827 q 0.11196,0.3797 0.48679,0.3797 0.36023,0 0.4868,-0.3797 z m -1.24619,3.46598 h -0.53061 v -2.51186 h 0.41378 v 2.04941 h 0.01 l 1.12937,-2.04941 h 0.53061 v 2.51186 h -0.41378 v -2.04941 h -0.01 z m 5.4521,-2.14677 h -0.90057 v 2.14677 h -0.41378 v -2.14677 h -0.90057 v -0.36509 h 2.21492 z m 2.39016,1.35329 q -0.18985,0.87624 -1.09529,0.87624 -0.55494,0 -0.87136,-0.34563 -0.31155,-0.34562 -0.31155,-0.95899 0,-0.60849 0.32129,-0.98332 0.32615,-0.3797 0.84702,-0.3797 0.57929,0 0.85676,0.3943 0.28234,0.38944 0.28234,0.9882 v 0.0584 h -1.88876 l -0.005,0.0292 q 0,0.39917 0.20932,0.62797 0.20932,0.22879 0.57442,0.22879 0.2726,0 0.42838,-0.12657 0.16064,-0.12656 0.24826,-0.40891 z m -0.39917,-0.68638 q -0.0292,-0.36022 -0.21906,-0.55981 -0.18985,-0.20445 -0.5014,-0.20445 -0.30181,0 -0.5014,0.20445 -0.19958,0.20445 -0.23852,0.55981 z m 1.25594,-1.032 v 0.35536 q 0.2726,-0.43325 0.84702,-0.43325 0.52574,0 0.83242,0.35536 0.31155,0.35536 0.31155,0.96386 0,0.60849 -0.30668,0.97359 -0.30182,0.36022 -0.81782,0.36022 -0.54034,0 -0.84215,-0.41377 v 1.31921 h -0.41378 v -3.48058 z m 0.78374,0.26774 q -0.36023,0 -0.56955,0.26286 -0.20446,0.25801 -0.20446,0.71559 0,0.45759 0.20932,0.72046 0.21419,0.258 0.57929,0.258 0.35536,0 0.55981,-0.26287 0.20446,-0.26287 0.20446,-0.71559 0,-0.45758 -0.20932,-0.71559 -0.20446,-0.26286 -0.56955,-0.26286 z m 4.4347,2.24412 h -0.41378 v -1.98126 h -0.0146 l -0.7448,1.98126 h -0.3797 l -0.74479,-1.98126 h -0.0146 v 1.98126 h -0.41377 v -2.51186 h 0.59389 l 0.76427,2.0348 h 0.01 l 0.76427,-2.0348 h 0.59389 z"
         id="path33" /></g><g
       id="text24"
       style="font-size:4.86795px;line-height:1.25;font-family:HelveticaNeueCyr;-inkscape-font-specification:HelveticaNeueCyr;stroke-width:0.264583"
       aria-label="обнаружен лидер&#10;или новый терм"><path
         style="text-align:center;text-anchor:middle"
         d="m 101.04005,82.351908 q 0.33102,-0.360228 0.90057,-0.360228 0.56955,0 0.88597,0.345624 0.31641,0.345624 0.31641,0.968722 0,0.637701 -0.31641,0.993062 -0.31642,0.35536 -0.89084,0.35536 -0.57442,0 -0.90057,-0.350492 -0.32615,-0.350493 -0.32615,-0.97359 0,-0.61823 0.33102,-0.978458 z m 1.46525,0.253133 q -0.20932,-0.267737 -0.57442,-0.267737 -0.36509,0 -0.57928,0.267737 -0.21419,0.267737 -0.21419,0.715589 0,0.462455 0.20932,0.725324 0.21419,0.258002 0.59389,0.258002 0.3651,0 0.56955,-0.26287 0.20932,-0.262869 0.20932,-0.725324 0,-0.447851 -0.21419,-0.710721 z m 1.36303,-0.890835 q 0.16551,-0.258001 0.39917,-0.3797 0.23366,-0.126566 0.59389,-0.150906 0.40404,-0.02921 0.49166,-0.07789 0.0584,-0.02921 0.0876,-0.07789 h 0.41378 q -0.0146,0.07789 -0.0438,0.141171 -0.0243,0.06328 -0.0584,0.111963 -0.0292,0.04381 -0.0876,0.08276 -0.0535,0.03894 -0.0925,0.06815 -0.0389,0.02434 -0.11683,0.04868 -0.073,0.01947 -0.11683,0.03407 -0.0438,0.0097 -0.13631,0.01947 -0.0876,0.0097 -0.12656,0.0146 -0.0389,0.0049 -0.14117,0.0097 -0.10223,0.0049 -0.13144,0.0097 -0.39917,0.02921 -0.6231,0.311549 -0.22392,0.277473 -0.28234,0.744796 h 0.0146 q 0.10709,-0.258001 0.34075,-0.413776 0.23367,-0.155774 0.54035,-0.155774 0.53547,0 0.83728,0.340756 0.30668,0.335889 0.30668,0.944383 0,0.627965 -0.31154,0.97359 -0.30669,0.345624 -0.8665,0.345624 -0.45759,0 -0.774,-0.267737 -0.31642,-0.272605 -0.38944,-0.778872 -0.0292,-0.204454 -0.0292,-0.457587 0,-0.978458 0.30182,-1.440914 z m 0.12169,1.6405 q 0,0.428379 0.20446,0.691248 0.20932,0.26287 0.56955,0.26287 0.35049,0 0.55008,-0.253134 0.19958,-0.253133 0.19958,-0.705852 0,-0.442984 -0.20445,-0.696117 -0.20445,-0.253134 -0.55495,-0.253134 -0.35049,0 -0.55981,0.258002 -0.20446,0.253133 -0.20446,0.696117 z m 2.85262,1.221855 h -0.41378 v -2.511862 h 0.41378 v 0.99793 h 1.25593 v -0.99793 h 0.41378 v 2.511862 h -0.41378 v -1.148836 h -1.25593 z m 4.51746,-0.331021 v 0.321285 q -0.12657,0.04868 -0.28234,0.04868 -0.35536,0 -0.3651,-0.369965 -0.35536,0.399172 -0.91031,0.399172 -0.36996,0 -0.58902,-0.18985 -0.21419,-0.18985 -0.21419,-0.52087 0,-0.671778 0.89084,-0.78374 0.52573,-0.06328 0.60849,-0.09249 0.17525,-0.05842 0.18985,-0.243398 0.005,-0.02921 0.005,-0.06328 0,-0.413776 -0.56955,-0.413776 -0.29208,0 -0.44299,0.121699 -0.1509,0.116831 -0.18011,0.389436 h -0.40404 q 0.01,-0.40404 0.28721,-0.627966 0.27747,-0.223926 0.76427,-0.223926 0.5306,0 0.78861,0.243398 0.0828,0.07789 0.12169,0.204454 0.0389,0.126567 0.0438,0.209322 0.005,0.07789 0.005,0.238529 0,0.18985 -0.01,0.564682 -0.01,0.369965 -0.01,0.554947 0,0.136302 0.0341,0.194718 0.0389,0.05355 0.1363,0.05355 0.0389,0 0.10223,-0.0146 z m -0.66691,-0.97359 q -0.0438,0.03408 -0.0925,0.05842 -0.0487,0.02434 -0.12657,0.03894 -0.073,0.0146 -0.10223,0.02434 -0.0243,0.0049 -0.12656,0.01947 -0.10223,0.0097 -0.1071,0.0097 -0.1509,0.01947 -0.19958,0.02921 -0.0438,0.0049 -0.17525,0.03894 -0.12657,0.03408 -0.18011,0.07789 -0.0535,0.04381 -0.1071,0.131435 -0.0487,0.08276 -0.0487,0.199586 0,0.194718 0.13144,0.306681 0.1363,0.111963 0.36996,0.111963 0.29694,0 0.53061,-0.175247 0.23366,-0.175246 0.23366,-0.413775 z m 1.44578,-1.207251 v 0.35536 q 0.27261,-0.433247 0.84702,-0.433247 0.52574,0 0.83242,0.35536 0.31155,0.35536 0.31155,0.963854 0,0.608494 -0.30668,0.97359 -0.30181,0.360228 -0.81781,0.360228 -0.54035,0 -0.84216,-0.413775 v 1.319214 h -0.41377 v -3.480584 z m 0.78374,0.267737 q -0.36023,0 -0.56955,0.262869 -0.20445,0.258002 -0.20445,0.715589 0,0.457587 0.20932,0.720457 0.21419,0.258001 0.57929,0.258001 0.35536,0 0.55981,-0.262869 0.20445,-0.26287 0.20445,-0.715589 0,-0.457587 -0.20932,-0.715589 -0.20445,-0.262869 -0.56955,-0.262869 z m 3.73373,-0.267737 -1.07582,2.833147 q -0.0633,0.170378 -0.11196,0.262869 -0.0438,0.09736 -0.13144,0.209322 -0.0828,0.116831 -0.20445,0.16551 -0.11683,0.05355 -0.27748,0.05355 -0.12169,0 -0.30668,-0.04381 v -0.369964 q 0.18012,0.05355 0.26774,0.05355 0.20445,0 0.29208,-0.209322 l 0.19472,-0.457587 -0.99793,-2.497258 h 0.46732 l 0.7448,2.000727 0.70585,-2.000727 z m 1.41657,1.294874 -0.86163,1.216988 h -0.51113 l 1.10015,-1.479857 -0.95898,-1.032005 h 0.51113 l 1.02227,1.153704 h 0.01 v -1.153704 h 0.41377 v 1.153704 h 0.01 l 1.02227,-1.153704 h 0.51113 l -0.95898,1.032005 1.10016,1.479857 h -0.51114 l -0.86163,-1.216988 -0.31155,0.316417 v 0.900571 h -0.41377 V 83.67599 Z m 4.7852,0.423512 q -0.18985,0.876231 -1.09529,0.876231 -0.55495,0 -0.87137,-0.345624 -0.31155,-0.345625 -0.31155,-0.958986 0,-0.608494 0.32129,-0.983326 0.32615,-0.3797 0.84702,-0.3797 0.57929,0 0.85676,0.394303 0.28234,0.389436 0.28234,0.988194 v 0.05842 h -1.88876 l -0.005,0.02921 q 0,0.399172 0.20932,0.627966 0.20932,0.228794 0.57442,0.228794 0.27261,0 0.42838,-0.126567 0.16064,-0.126567 0.24827,-0.408908 z m -0.39918,-0.686381 q -0.0292,-0.360228 -0.21905,-0.559814 -0.18985,-0.204454 -0.5014,-0.204454 -0.30182,0 -0.5014,0.204454 -0.19959,0.204454 -0.23853,0.559814 z m 1.28028,1.479857 h -0.41378 v -2.511862 h 0.41378 v 0.99793 h 1.25593 v -0.99793 h 0.41377 v 2.511862 h -0.41377 v -1.148836 h -1.25593 z m 5.73931,-2.511862 v 2.511862 h -0.41378 v -2.146766 h -0.8957 l -0.0341,1.109893 q -0.0146,0.574418 -0.20933,0.832419 -0.19471,0.258001 -0.48679,0.258001 -0.18012,0 -0.29695,-0.05355 v -0.335889 q 0.0633,0.03408 0.21906,0.03408 0.14604,0 0.24827,-0.155774 0.10709,-0.160643 0.11683,-0.535475 l 0.0438,-1.5188 z m 1.14396,2.511862 h -0.5306 v -2.511862 h 0.41377 v 2.049407 h 0.01 l 1.12936,-2.049407 h 0.53061 v 2.511862 h -0.41377 v -2.049407 h -0.01 z m 4.60995,0.798344 h -0.3943 v -0.798344 h -1.91797 v 0.798344 h -0.39431 v -1.16344 h 0.27261 q 0.11683,-0.223926 0.21419,-0.691249 0.10222,-0.472191 0.10222,-0.920043 v -0.535474 h 1.79141 v 2.146766 h 0.32615 z m -0.73993,-1.16344 v -1.78167 h -0.97359 v 0.209322 q 0,0.442983 -0.0925,0.900571 -0.0876,0.452719 -0.19958,0.671777 z m 3.24693,-0.42838 q -0.18985,0.876231 -1.09529,0.876231 -0.55495,0 -0.87137,-0.345624 -0.31154,-0.345625 -0.31154,-0.958986 0,-0.608494 0.32128,-0.983326 0.32615,-0.3797 0.84702,-0.3797 0.57929,0 0.85676,0.394303 0.28234,0.389436 0.28234,0.988194 v 0.05842 h -1.88876 l -0.005,0.02921 q 0,0.399172 0.20932,0.627966 0.20933,0.228794 0.57442,0.228794 0.27261,0 0.42838,-0.126567 0.16064,-0.126567 0.24827,-0.408908 z m -0.39918,-0.686381 q -0.0292,-0.360228 -0.21905,-0.559814 -0.18985,-0.204454 -0.5014,-0.204454 -0.30182,0 -0.5014,0.204454 -0.19959,0.204454 -0.23853,0.559814 z m 1.25594,-1.032005 v 0.35536 q 0.2726,-0.433247 0.84702,-0.433247 0.52574,0 0.83242,0.35536 0.31155,0.35536 0.31155,0.963854 0,0.608494 -0.30668,0.97359 -0.30182,0.360228 -0.81782,0.360228 -0.54034,0 -0.84215,-0.413775 v 1.319214 h -0.41378 v -3.480584 z m 0.78374,0.267737 q -0.36023,0 -0.56955,0.262869 -0.20446,0.258002 -0.20446,0.715589 0,0.457587 0.20932,0.720457 0.21419,0.258001 0.57929,0.258001 0.35536,0 0.55981,-0.262869 0.20446,-0.26287 0.20446,-0.715589 0,-0.457587 -0.20932,-0.715589 -0.20446,-0.262869 -0.56955,-0.262869 z"
         id="path30" /><path
         style="text-align:center;text-anchor:middle"
         d="m 103.45943,90.661498 h -0.53061 v -2.511862 h 0.41377 v 2.049407 h 0.01 l 1.12936,-2.049407 h 0.53061 v 2.511862 h -0.41377 v -2.049407 h -0.01 z m 4.26919,-2.511862 v 2.511862 h -0.41378 v -2.146766 h -0.8957 l -0.0341,1.109893 q -0.0146,0.574418 -0.20932,0.83242 -0.19472,0.258001 -0.4868,0.258001 -0.18011,0 -0.29694,-0.05355 V 90.32561 q 0.0633,0.03408 0.21906,0.03408 0.14604,0 0.24826,-0.155775 0.1071,-0.160642 0.11683,-0.535474 l 0.0438,-1.518801 z m 1.14396,2.511862 h -0.5306 v -2.511862 h 0.41377 v 2.049407 h 0.01 l 1.12936,-2.049407 h 0.53061 v 2.511862 h -0.41378 v -2.049407 h -0.01 z m 3.94304,0 h -0.41378 v -2.511862 h 0.41378 v 0.99793 h 1.25593 v -0.99793 h 0.41378 v 2.511862 h -0.41378 v -1.148836 h -1.25593 z m 2.49239,-2.224653 q 0.33102,-0.360228 0.90057,-0.360228 0.56955,0 0.88597,0.345624 0.31641,0.345625 0.31641,0.968722 0,0.637702 -0.31641,0.993062 -0.31642,0.355361 -0.89084,0.355361 -0.57442,0 -0.90057,-0.350493 -0.32615,-0.350492 -0.32615,-0.97359 0,-0.618229 0.33102,-0.978458 z m 1.46525,0.253134 q -0.20932,-0.267738 -0.57442,-0.267738 -0.36509,0 -0.57928,0.267738 -0.21419,0.267737 -0.21419,0.715588 0,0.462456 0.20932,0.725325 0.21419,0.258001 0.59389,0.258001 0.3651,0 0.56955,-0.262869 0.20932,-0.262869 0.20932,-0.725325 0,-0.447851 -0.21419,-0.71072 z m 1.11963,1.971519 v -2.511862 h 1.16344 q 0.24826,0 0.42351,0.04381 0.17525,0.03894 0.30668,0.180114 0.13144,0.14117 0.13144,0.384568 0,0.369964 -0.36997,0.540342 v 0.0049 q 0.22393,0.04381 0.35049,0.209322 0.12657,0.160643 0.12657,0.408908 0,0.321285 -0.21419,0.530607 -0.21419,0.209321 -0.55008,0.209321 z m 1.11963,-1.499328 q 0.258,0 0.36509,-0.08276 0.11197,-0.08762 0.11197,-0.253134 0,-0.16551 -0.1071,-0.243397 -0.10709,-0.07789 -0.36996,-0.07789 h -0.71559 v 0.657173 z m -0.71559,0.350492 v 0.793476 h 0.88596 q 0.19472,0 0.30182,-0.116831 0.11196,-0.116831 0.11196,-0.301813 0,-0.374832 -0.48679,-0.374832 z m 4.61482,-1.363026 h 0.41377 v 2.511862 h -0.41377 z m -0.6231,1.168308 q 0.22393,0.204454 0.22393,0.559814 0,0.355361 -0.21906,0.569551 -0.21419,0.214189 -0.57929,0.214189 h -1.21212 v -2.511862 h 0.41378 v 0.958986 h 0.77887 q 0.36996,0 0.59389,0.209322 z m -0.72532,0.146039 h -0.64744 v 0.832419 h 0.64744 q 0.25313,0 0.38456,-0.107095 0.13631,-0.111963 0.13631,-0.311549 0,-0.413775 -0.52087,-0.413775 z m 4.15723,-2.268465 q -0.0487,0.306681 -0.23853,0.491663 -0.18499,0.180114 -0.49167,0.180114 -0.29694,0 -0.50139,-0.184982 -0.19959,-0.18985 -0.23853,-0.486795 h 0.24826 q 0.11196,0.3797 0.4868,0.3797 0.36022,0 0.48679,-0.3797 z m -1.2462,3.46598 h -0.53061 v -2.511862 h 0.41378 v 2.049407 h 0.01 l 1.12936,-2.049407 h 0.53061 v 2.511862 h -0.41378 v -2.049407 h -0.01 z m 5.4521,-2.146766 h -0.90057 v 2.146766 h -0.41377 v -2.146766 h -0.90057 v -0.365096 h 2.21491 z m 2.39017,1.353291 q -0.18985,0.876231 -1.09529,0.876231 -0.55495,0 -0.87137,-0.345625 -0.31155,-0.345624 -0.31155,-0.958986 0,-0.608494 0.32129,-0.983326 0.32615,-0.3797 0.84702,-0.3797 0.57929,0 0.85676,0.394304 0.28234,0.389436 0.28234,0.988194 v 0.05841 h -1.88876 l -0.005,0.02921 q 0,0.399172 0.20932,0.627965 0.20932,0.228794 0.57442,0.228794 0.27261,0 0.42838,-0.126567 0.16064,-0.126566 0.24827,-0.408907 z m -0.39918,-0.686381 q -0.0292,-0.360229 -0.21905,-0.559815 -0.18985,-0.204454 -0.5014,-0.204454 -0.30182,0 -0.5014,0.204454 -0.19959,0.204454 -0.23853,0.559815 z m 1.25594,-1.032006 v 0.355361 q 0.2726,-0.433248 0.84702,-0.433248 0.52574,0 0.83242,0.35536 0.31155,0.355361 0.31155,0.963854 0,0.608494 -0.30668,0.97359 -0.30181,0.360229 -0.81782,0.360229 -0.54034,0 -0.84215,-0.413776 v 1.319214 h -0.41378 v -3.480584 z m 0.78374,0.267737 q -0.36023,0 -0.56955,0.26287 -0.20445,0.258001 -0.20445,0.715588 0,0.457588 0.20932,0.720457 0.21419,0.258001 0.57928,0.258001 0.35536,0 0.55982,-0.262869 0.20445,-0.262869 0.20445,-0.715589 0,-0.457587 -0.20932,-0.715588 -0.20445,-0.26287 -0.56955,-0.26287 z m 4.4347,2.244125 h -0.41377 v -1.981255 h -0.0146 l -0.74479,1.981255 h -0.3797 l -0.7448,-1.981255 h -0.0146 v 1.981255 h -0.41378 v -2.511862 h 0.59389 l 0.76427,2.034803 h 0.01 l 0.76427,-2.034803 h 0.59389 z"
         id="path31" /></g><g
       id="text27"
       style="font-size:4.86795px;line-height:1.25;font-family:HelveticaNeueCyr;-inkscape-font-specification:HelveticaNeueCyr;stroke-width:0.264583"
       aria-label="есть кворум&#10;голосов"><path
         style="text-align:center;text-anchor:middle"
         d="m 174.93316,50.396073 q -0.18985,0.876231 -1.09529,0.876231 -0.55494,0 -0.87136,-0.345625 -0.31155,-0.345624 -0.31155,-0.958986 0,-0.608494 0.32129,-0.983326 0.32615,-0.3797 0.84702,-0.3797 0.57929,0 0.85676,0.394304 0.28234,0.389436 0.28234,0.988194 v 0.05842 h -1.88876 l -0.005,0.02921 q 0,0.399172 0.20932,0.627965 0.20932,0.228794 0.57442,0.228794 0.2726,0 0.42838,-0.126567 0.16064,-0.126566 0.24826,-0.408907 z m -0.39917,-0.686381 q -0.0292,-0.360229 -0.21906,-0.559815 -0.18985,-0.204453 -0.5014,-0.204453 -0.30181,0 -0.50139,0.204453 -0.19959,0.204454 -0.23853,0.559815 z m 3.02787,0.564682 q -0.0536,0.452719 -0.34562,0.720456 -0.28721,0.267738 -0.74967,0.267738 -0.56955,0 -0.8811,-0.350493 -0.31155,-0.35536 -0.31155,-0.944382 0,-0.627965 0.32616,-0.993062 0.32615,-0.369964 0.88109,-0.369964 0.46246,0 0.73993,0.233662 0.27748,0.228793 0.32616,0.657173 h -0.42838 q -0.11197,-0.54521 -0.63284,-0.54521 -0.36023,0 -0.56955,0.267737 -0.20932,0.262869 -0.20932,0.715588 0,0.457588 0.19959,0.720457 0.19958,0.262869 0.55007,0.262869 0.28235,0 0.45759,-0.16551 0.18012,-0.16551 0.2288,-0.477059 z m 2.37556,-1.231591 h -0.90057 v 2.146765 h -0.41377 v -2.146765 h -0.90057 v -0.365097 h 2.21491 z m 2.21978,0.803211 q 0.22393,0.204454 0.22393,0.559815 0,0.35536 -0.21906,0.56955 -0.21419,0.214189 -0.57928,0.214189 h -1.32895 v -2.511862 h 0.41377 v 0.958986 h 0.8957 q 0.36997,0 0.59389,0.209322 z m -0.72532,0.146039 h -0.76427 v 0.832419 h 0.76427 q 0.25313,0 0.38457,-0.107095 0.1363,-0.111963 0.1363,-0.311548 0,-0.413776 -0.52087,-0.413776 z m 4.9653,1.197515 h -0.52573 l -0.91518,-1.236459 -0.3943,0.384568 v 0.851891 h -0.41378 v -2.511862 h 0.41378 v 1.197516 l 1.14883,-1.197516 h 0.55495 l -1.01253,0.988194 z m 0.26774,0 v -2.511862 h 1.16344 q 0.24826,0 0.42351,0.04381 0.17524,0.03894 0.30668,0.180114 0.13143,0.141171 0.13143,0.384568 0,0.369964 -0.36996,0.540343 v 0.0049 q 0.22393,0.04381 0.35049,0.209322 0.12657,0.160643 0.12657,0.408908 0,0.321285 -0.21419,0.530607 -0.21419,0.209321 -0.55008,0.209321 z m 1.11963,-1.499328 q 0.258,0 0.36509,-0.08275 0.11196,-0.08762 0.11196,-0.253134 0,-0.16551 -0.10709,-0.243397 -0.1071,-0.07789 -0.36996,-0.07789 h -0.71559 v 0.657173 z m -0.71559,0.350492 v 0.793476 h 0.88596 q 0.19472,0 0.30182,-0.116831 0.11196,-0.11683 0.11196,-0.301813 0,-0.374832 -0.4868,-0.374832 z m 2.41937,-1.075817 q 0.33102,-0.360228 0.90057,-0.360228 0.56955,0 0.88597,0.345625 0.31642,0.345624 0.31642,0.968722 0,0.637701 -0.31642,0.993061 -0.31642,0.355361 -0.89084,0.355361 -0.57441,0 -0.90057,-0.350493 -0.32615,-0.350492 -0.32615,-0.97359 0,-0.618229 0.33102,-0.978458 z m 1.46525,0.253134 q -0.20932,-0.267737 -0.57441,-0.267737 -0.3651,0 -0.57929,0.267737 -0.21419,0.267737 -0.21419,0.715588 0,0.462456 0.20932,0.725325 0.21419,0.258001 0.59389,0.258001 0.3651,0 0.56955,-0.262869 0.20932,-0.262869 0.20932,-0.725325 0,-0.447851 -0.21419,-0.71072 z m 1.5188,-0.540343 v 0.355361 q 0.27261,-0.433248 0.84702,-0.433248 0.52574,0 0.83242,0.35536 0.31155,0.355361 0.31155,0.963855 0,0.608493 -0.30668,0.97359 -0.30181,0.360228 -0.81781,0.360228 -0.54035,0 -0.84216,-0.413776 v 1.319215 h -0.41378 v -3.480585 z m 0.78374,0.267738 q -0.36023,0 -0.56955,0.262869 -0.20445,0.258001 -0.20445,0.715589 0,0.457587 0.20932,0.720456 0.21419,0.258001 0.57928,0.258001 0.35536,0 0.55982,-0.262869 0.20445,-0.262869 0.20445,-0.715588 0,-0.457588 -0.20932,-0.715589 -0.20445,-0.262869 -0.56955,-0.262869 z m 3.73372,-0.267738 -1.07581,2.833147 q -0.0633,0.170378 -0.11197,0.262869 -0.0438,0.09736 -0.13143,0.209322 -0.0828,0.116831 -0.20445,0.165511 -0.11684,0.05355 -0.27748,0.05355 -0.1217,0 -0.30668,-0.04381 V 51.78831 q 0.18012,0.05355 0.26774,0.05355 0.20445,0 0.29208,-0.209322 l 0.19471,-0.457587 -0.99793,-2.497259 h 0.46733 l 0.74479,2.000728 0.70586,-2.000728 z m 3.07655,2.511862 h -0.41378 v -1.981255 h -0.0146 l -0.7448,1.981255 h -0.3797 l -0.74479,-1.981255 h -0.0146 v 1.981255 h -0.41377 v -2.511862 h 0.59389 l 0.76426,2.034803 h 0.01 l 0.76427,-2.034803 h 0.59389 z"
         id="path28" /><path
         style="text-align:center;text-anchor:middle"
         d="m 179.40194,55.12772 h -1.30948 v 2.146766 h -0.41377 v -2.511862 h 1.72325 z m 0.39431,-0.07789 q 0.33102,-0.360228 0.90057,-0.360228 0.56955,0 0.88596,0.345624 0.31642,0.345624 0.31642,0.968722 0,0.637701 -0.31642,0.993062 -0.31641,0.35536 -0.89083,0.35536 -0.57442,0 -0.90057,-0.350492 -0.32615,-0.350493 -0.32615,-0.97359 0,-0.61823 0.33102,-0.978458 z m 1.46525,0.253133 q -0.20932,-0.267737 -0.57442,-0.267737 -0.3651,0 -0.57929,0.267737 -0.21418,0.267737 -0.21418,0.715589 0,0.462455 0.20932,0.725324 0.21419,0.258002 0.59389,0.258002 0.36509,0 0.56955,-0.26287 0.20932,-0.262869 0.20932,-0.725324 0,-0.447851 -0.21419,-0.710721 z m 3.10575,-0.540342 v 2.511862 h -0.41378 V 55.12772 h -0.8957 l -0.0341,1.109893 q -0.0146,0.574418 -0.20932,0.832419 -0.19472,0.258001 -0.48679,0.258001 -0.18012,0 -0.29695,-0.05355 v -0.335889 q 0.0633,0.03408 0.21906,0.03408 0.14604,0 0.24826,-0.155774 0.1071,-0.160643 0.11684,-0.535475 l 0.0438,-1.5188 z m 0.81294,0.287209 q 0.33102,-0.360228 0.90057,-0.360228 0.56955,0 0.88597,0.345624 0.31642,0.345624 0.31642,0.968722 0,0.637701 -0.31642,0.993062 -0.31642,0.35536 -0.89083,0.35536 -0.57442,0 -0.90057,-0.350492 -0.32616,-0.350493 -0.32616,-0.97359 0,-0.61823 0.33102,-0.978458 z m 1.46526,0.253133 q -0.20933,-0.267737 -0.57442,-0.267737 -0.3651,0 -0.57929,0.267737 -0.21419,0.267737 -0.21419,0.715589 0,0.462455 0.20932,0.725324 0.21419,0.258002 0.59389,0.258002 0.3651,0 0.56955,-0.26287 0.20933,-0.262869 0.20933,-0.725324 0,-0.447851 -0.21419,-0.710721 z m 3.29073,1.056345 q -0.0536,0.45272 -0.34563,0.720457 -0.28721,0.267737 -0.74966,0.267737 -0.56955,0 -0.8811,-0.350492 -0.31155,-0.355361 -0.31155,-0.944382 0,-0.627966 0.32615,-0.993062 0.32616,-0.369964 0.8811,-0.369964 0.46246,0 0.73993,0.233661 0.27747,0.228794 0.32615,0.657173 h -0.42838 q -0.11196,-0.54521 -0.63283,-0.54521 -0.36023,0 -0.56955,0.267737 -0.20932,0.26287 -0.20932,0.715589 0,0.457587 0.19959,0.720456 0.19958,0.26287 0.55007,0.26287 0.28234,0 0.45759,-0.165511 0.18011,-0.16551 0.22879,-0.477059 z m 0.65231,-1.309478 q 0.33102,-0.360228 0.90057,-0.360228 0.56955,0 0.88596,0.345624 0.31642,0.345624 0.31642,0.968722 0,0.637701 -0.31642,0.993062 -0.31641,0.35536 -0.89083,0.35536 -0.57442,0 -0.90057,-0.350492 -0.32615,-0.350493 -0.32615,-0.97359 0,-0.61823 0.33102,-0.978458 z m 1.46525,0.253133 q -0.20932,-0.267737 -0.57442,-0.267737 -0.36509,0 -0.57928,0.267737 -0.21419,0.267737 -0.21419,0.715589 0,0.462455 0.20932,0.725324 0.21419,0.258002 0.59389,0.258002 0.36509,0 0.56955,-0.26287 0.20932,-0.262869 0.20932,-0.725324 0,-0.447851 -0.21419,-0.710721 z m 1.11963,1.97152 v -2.511862 h 1.16344 q 0.24826,0 0.42351,0.04381 0.17524,0.03894 0.30668,0.180114 0.13143,0.141171 0.13143,0.384569 0,0.369964 -0.36996,0.540342 v 0.0049 q 0.22392,0.04381 0.35049,0.209322 0.12657,0.160642 0.12657,0.408908 0,0.321284 -0.21419,0.530606 -0.21419,0.209322 -0.55008,0.209322 z m 1.11962,-1.499329 q 0.25801,0 0.3651,-0.08275 0.11196,-0.08762 0.11196,-0.253133 0,-0.16551 -0.10709,-0.243398 -0.1071,-0.07789 -0.36997,-0.07789 h -0.71558 v 0.657173 z m -0.71558,0.350493 v 0.793476 h 0.88596 q 0.19472,0 0.30181,-0.116831 0.11197,-0.116831 0.11197,-0.301813 0,-0.374832 -0.4868,-0.374832 z"
         id="path29" /></g></g></svg>
