<?xml version="1.0" encoding="UTF-8" standalone="no"?>
<!-- Created with Inkscape (http://www.inkscape.org/) -->

<svg
   width="113.01064mm"
   height="50.53252mm"
   viewBox="0 0 113.01064 50.53252"
   version="1.1"
   id="svg1"
   xml:space="preserve"
   inkscape:version="1.3.2 (091e20ef0f, 2023-11-25)"
   sodipodi:docname="gostech_audit_module.svg"
   xmlns:inkscape="http://www.inkscape.org/namespaces/inkscape"
   xmlns:sodipodi="http://sodipodi.sourceforge.net/DTD/sodipodi-0.dtd"
   xmlns="http://www.w3.org/2000/svg"
   xmlns:svg="http://www.w3.org/2000/svg"><sodipodi:namedview
     id="namedview1"
     pagecolor="#ffffff"
     bordercolor="#666666"
     borderopacity="1.0"
     inkscape:showpageshadow="2"
     inkscape:pageopacity="0.0"
     inkscape:pagecheckerboard="0"
     inkscape:deskcolor="#d1d1d1"
     inkscape:document-units="mm"
     inkscape:zoom="1.0167041"
     inkscape:cx="273.92434"
     inkscape:cy="-130.81486"
     inkscape:window-width="1858"
     inkscape:window-height="1014"
     inkscape:window-x="62"
     inkscape:window-y="29"
     inkscape:window-maximized="1"
     inkscape:current-layer="layer1" /><defs
     id="defs1"><marker
       style="overflow:visible"
       id="Triangle"
       refX="0"
       refY="0"
       orient="auto-start-reverse"
       inkscape:stockid="Triangle arrow"
       markerWidth="1"
       markerHeight="1"
       viewBox="0 0 1 1"
       inkscape:isstock="true"
       inkscape:collect="always"
       preserveAspectRatio="xMidYMid"><path
         transform="scale(0.5)"
         style="fill:context-stroke;fill-rule:evenodd;stroke:context-stroke;stroke-width:1pt"
         d="M 5.77,0 -2.88,5 V -5 Z"
         id="path135" /></marker></defs><g
     inkscape:label="Layer 1"
     inkscape:groupmode="layer"
     id="layer1"
     transform="translate(-32.23165,-85.960054)"><path
       id="ellipse2"
       style="fill:#ffffff;fill-opacity:1;stroke:#000000;stroke-width:0.316972"
       d="m 74.959767,90.73117 c 1e-5,2.53976 -9.5229,4.59864 -21.270023,4.59864 -11.747112,0 -21.270025,-2.05888 -21.270013,-4.59864 1e-6,-2.53976 9.52291,-4.59864 21.270013,-4.59864 11.747113,0 21.270023,2.05888 21.270023,4.59864 z M 53.689486,86.11854 c -11.381996,0.004 -20.758871,1.92893 -21.242222,4.38754 l -0.0268,0.22723 -0.01495,41.29045 -4.29e-4,6.1e-4 c 0.703055,2.41977 10.070237,4.30524 21.284396,4.30972 10.408586,-0.004 20.400086,-1.46167 21.292656,-4.33393 l -0.0232,-41.27091 -0.0186,-0.20737 c -0.48391,-2.46158 -9.85505,-4.40335 -21.250861,-4.40334 z"
       sodipodi:nodetypes="ssssscccccccccc" /><path
       id="rect8"
       style="fill:#dbd4d4;stroke:#000000;stroke-width:0.288999"
       d="m 111.11097,98.017307 h 29.61615 c 0.7756,0 1.4,0.6244 1.4,1.40001 v 6.183203 c 0,0.7756 -0.6244,1.4 -1.4,1.4 h -29.61615 c -0.7756,0 -1.4,-0.6244 -1.4,-1.4 v -6.183203 c 0,-0.77561 0.6244,-1.40001 1.4,-1.40001 z" /><path
       id="rect9"
       style="fill:#0e00ff;stroke:#000000;stroke-width:0.288999"
       d="m 116.91669,104.97053 h 18.00472 c 0.7756,0 1.4,0.62441 1.4,1.40002 v 1.14467 c 0,0.77562 -0.6244,1.40002 -1.4,1.40002 h -18.00472 c -0.7756,0 -1.4,-0.6244 -1.4,-1.40002 v -1.14467 c 0,-0.77561 0.6244,-1.40002 1.4,-1.40002 z" /><path
       style="font-weight:bold;font-size:2.90021px;line-height:1.25;font-family:HelveticaNeueCyr;-inkscape-font-specification:HelveticaNeueCyr;fill:#fff1f1;stroke-width:0.264583"
       d="m 119.78795,105.83928 v 2.06496 h -0.45243 v -0.89037 h -0.84396 v 0.89037 h -0.45243 v -2.06496 h 0.45243 v 0.77726 h 0.84396 v -0.77726 z m 1.93444,0 v 0.38573 h -0.62064 v 1.67923 h -0.45534 v -1.67923 h -0.62064 v -0.38573 z m 1.77203,0 v 0.38573 h -0.62064 v 1.67923 h -0.45534 v -1.67923 h -0.62064 v -0.38573 z m 0.24072,0 h 0.89036 q 0.34803,0 0.55104,0.16821 0.20592,0.16531 0.20592,0.49594 0,0.32482 -0.20302,0.49304 -0.20301,0.16531 -0.53074,0.16531 h -0.46403 v 0.74246 h -0.44953 z m 0.44953,0.37123 v 0.59454 h 0.40313 q 0.35383,0 0.35383,-0.29582 0,-0.29872 -0.35093,-0.29872 z m 3.67167,1.11658 q -0.0377,0.29002 -0.22912,0.45244 -0.18852,0.16242 -0.48724,0.16242 -0.34512,0 -0.55394,-0.21172 -0.20881,-0.21172 -0.20881,-0.56265 0,-0.36253 0.20881,-0.58294 0.21172,-0.22042 0.55974,-0.22042 0.29873,0 0.48724,0.15371 0.18851,0.15081 0.21461,0.41183 h -0.40312 q -0.0464,-0.25812 -0.29583,-0.25812 -0.16821,0 -0.26392,0.13051 -0.0928,0.12761 -0.0928,0.35673 0,0.22332 0.0899,0.34803 0.0928,0.12181 0.25812,0.12181 0.26972,0 0.31903,-0.30163 z m 0.66124,-1.48781 v 2.06496 h -0.41183 v -2.06496 z m 0.74825,0 v 0.34802 H 128.854 v -0.34802 z m 0,0.56844 v 1.49652 H 128.854 v -1.49652 z m 1.73143,1.03248 q -0.0696,0.24072 -0.25812,0.37413 -0.18561,0.13342 -0.44373,0.13342 -0.34513,0 -0.55684,-0.21462 -0.20882,-0.21462 -0.20882,-0.56845 0,-0.34803 0.21172,-0.57424 0.21171,-0.22622 0.53944,-0.22622 0.33932,0 0.53944,0.23202 0.20011,0.22911 0.20011,0.62355 v 0.0406 h -1.07308 q 0.003,0.19431 0.0928,0.29582 0.0928,0.10151 0.25812,0.10151 0.21751,0 0.30452,-0.21752 z m -0.39443,-0.44083 q -0.0145,-0.14791 -0.0957,-0.24072 -0.0812,-0.0957 -0.22621,-0.0957 -0.13631,0 -0.22622,0.0899 -0.0899,0.0899 -0.10731,0.24652 z m 2.06205,0.90487 h -0.41763 v -0.87297 q 0,-0.15951 -0.0522,-0.24072 -0.0522,-0.0841 -0.20301,-0.0841 -0.32483,0 -0.32483,0.39443 v 0.80336 h -0.40893 v -1.49651 h 0.39153 v 0.20881 q 0.18562,-0.24942 0.49594,-0.24942 0.24072,0 0.37993,0.13921 0.13921,0.13922 0.13921,0.39734 z m 1.13398,-1.49652 v 0.27842 h -0.30452 v 0.70476 q 0,0.0667 0.003,0.0986 0.003,0.029 0.0203,0.0609 0.0174,0.0319 0.0522,0.0435 0.0377,0.009 0.10441,0.009 0.0754,0 0.12471,-0.006 v 0.31322 q -0.15081,0.0116 -0.24942,0.0116 -0.26972,0 -0.36832,-0.0928 -0.0957,-0.0957 -0.0957,-0.36543 v -0.77726 h -0.24942 v -0.27842 h 0.24942 v -0.45243 h 0.40893 v 0.45243 z"
       id="text10"
       aria-label="HTTP client" /><path
       d="m 115.59125,100.51979 1.11349,2.85183 h -0.42056 l -0.31643,-0.87317 h -1.1976 l -0.32443,0.87317 h -0.40053 l 1.12149,-2.85183 z m 0.26435,1.67826 -0.48464,-1.31777 -0.49266,1.31777 z m 2.78773,-0.89319 v 2.06676 h -0.31642 v -0.32443 q -0.26436,0.38051 -0.71295,0.38051 -0.32844,0 -0.50868,-0.18025 -0.18025,-0.18024 -0.18025,-0.52069 v -1.4219 h 0.34046 v 1.32978 q 0,0.24432 0.0921,0.37249 0.0961,0.12417 0.34046,0.12417 0.60481,0 0.60481,-0.745 v -1.08144 z m 2.37517,-0.78507 v 2.85183 h -0.32043 v -0.30441 q -0.19626,0.36049 -0.68091,0.36049 -0.44058,0 -0.70093,-0.2924 -0.25634,-0.29639 -0.25634,-0.80107 0,-0.46862 0.24032,-0.77703 0.24432,-0.31242 0.70093,-0.31242 0.4446,0 0.67691,0.33645 v -1.06144 z m -0.9733,1.01738 q -0.29239,0 -0.46462,0.21228 -0.16822,0.21229 -0.16822,0.57677 0,0.37651 0.17223,0.60081 0.17623,0.22029 0.46862,0.22029 0.2964,0 0.46462,-0.21228 0.16823,-0.21629 0.16823,-0.5968 0,-0.34045 -0.16022,-0.56876 -0.1562,-0.23231 -0.48064,-0.23231 z m 1.84647,-1.01738 v 0.41656 h -0.34446 v -0.41656 z m 0,0.78507 v 2.06676 h -0.34446 v -2.06676 z m 1.41389,0 v 0.28037 h -0.41255 v 1.20561 q 0,0.10014 0,0.13218 0.004,0.032 0.024,0.0881 0.02,0.0521 0.0681,0.0681 0.0481,0.016 0.13618,0.016 0.0761,0 0.18425,-0.012 v 0.29239 q -0.14419,0.016 -0.26035,0.016 -0.14419,0 -0.24032,-0.032 -0.0961,-0.032 -0.1482,-0.0721 -0.0481,-0.0401 -0.0721,-0.14019 -0.024,-0.10414 -0.028,-0.17223 -0.004,-0.0721 -0.004,-0.23632 0,-0.036 0,-0.0561 v -1.09747 h -0.34846 v -0.28037 h 0.34846 v -0.61284 h 0.34046 v 0.61284 z m 1.81042,0 v 0.3004 q 0.13618,-0.18425 0.29239,-0.26836 0.15621,-0.0841 0.38051,-0.0841 0.42456,0 0.57276,0.35648 0.26836,-0.36049 0.68492,-0.36049 0.32043,0 0.48464,0.18025 0.16823,0.17623 0.16823,0.49666 v 1.44593 h -0.34046 v -1.30174 q 0,-0.25634 -0.0801,-0.38451 -0.0801,-0.13218 -0.33245,-0.13218 -0.5287,0 -0.5287,0.64486 v 1.17357 h -0.34046 v -1.32577 q 0,-0.23632 -0.0801,-0.36048 -0.0761,-0.12817 -0.30041,-0.12817 -0.31642,0 -0.44058,0.19626 -0.12016,0.19226 -0.12016,0.5247 v 1.09346 h -0.34046 v -2.06676 z m 3.26036,0.23632 q 0.27236,-0.2964 0.74099,-0.2964 0.46862,0 0.72897,0.28438 0.26035,0.28438 0.26035,0.79706 0,0.5247 -0.26035,0.8171 -0.26035,0.29239 -0.73298,0.29239 -0.47263,0 -0.74099,-0.28839 -0.26836,-0.28838 -0.26836,-0.80107 0,-0.50868 0.27237,-0.80507 z m 1.20561,0.20827 q -0.17223,-0.22029 -0.47263,-0.22029 -0.30041,0 -0.47664,0.22029 -0.17624,0.2203 -0.17624,0.58879 0,0.38051 0.17223,0.5968 0.17624,0.21228 0.48866,0.21228 0.3004,0 0.46862,-0.21629 0.17223,-0.21629 0.17223,-0.5968 0,-0.36849 -0.17623,-0.58478 z m 2.79172,-1.22966 v 2.85183 h -0.32043 v -0.30441 q -0.19626,0.36049 -0.68091,0.36049 -0.44058,0 -0.70093,-0.2924 -0.25634,-0.29639 -0.25634,-0.80107 0,-0.46862 0.24032,-0.77703 0.24432,-0.31242 0.70093,-0.31242 0.4446,0 0.67691,0.33645 v -1.06144 z m -0.9733,1.01738 q -0.29239,0 -0.46462,0.21228 -0.16822,0.21229 -0.16822,0.57677 0,0.37651 0.17223,0.60081 0.17623,0.22029 0.46862,0.22029 0.2964,0 0.46462,-0.21228 0.16823,-0.21629 0.16823,-0.5968 0,-0.34045 -0.16022,-0.56876 -0.1562,-0.23231 -0.48064,-0.23231 z m 3.20028,-0.23231 v 2.06676 h -0.31642 v -0.32443 q -0.26436,0.38051 -0.71295,0.38051 -0.32844,0 -0.50868,-0.18025 -0.18025,-0.18024 -0.18025,-0.52069 v -1.4219 h 0.34046 v 1.32978 q 0,0.24432 0.0921,0.37249 0.0961,0.12417 0.34046,0.12417 0.60481,0 0.60481,-0.745 v -1.08144 z m 0.87316,-0.78507 v 2.85183 h -0.34446 v -2.85183 z m 2.29507,2.19896 q -0.15621,0.72096 -0.9012,0.72096 -0.45661,0 -0.71696,-0.28438 -0.25634,-0.28438 -0.25634,-0.78905 0,-0.50067 0.26435,-0.80908 0.26836,-0.31242 0.69693,-0.31242 0.47664,0 0.70494,0.32443 0.23231,0.32043 0.23231,0.81309 v 0.0481 h -1.55407 l -0.004,0.024 q 0,0.32843 0.17223,0.51669 0.17223,0.18825 0.47263,0.18825 0.2243,0 0.35247,-0.10414 0.13218,-0.10414 0.20428,-0.33645 z m -0.32844,-0.56476 q -0.024,-0.29639 -0.18024,-0.46061 -0.15621,-0.16823 -0.41255,-0.16823 -0.24833,0 -0.41255,0.16823 -0.16422,0.16822 -0.19626,0.46061 z"
       id="text2"
       style="font-size:4.00535px;line-height:1.25;font-family:HelveticaNeueCyr;-inkscape-font-specification:HelveticaNeueCyr;stroke-width:0.264583"
       aria-label="Audit module" /><path
       d="m 73.967337,89.33023 c -2.72108,-1.86183 -10.76979,-3.21169 -20.28093,-3.21169 -11.254876,0 -20.46189,1.89035 -21.214208,4.28242 -0.0087,0.0304 -0.02242,0.0604 -0.02842,0.091 l -0.02687,0.22738 c 0.0053,2.53879 9.525661,4.59662 21.269498,4.59662 11.73349,0 21.24694,-2.05421 21.26899,-4.5899 v -0.0109 l -0.003,-0.0279 c -0.0126,-0.42347 -0.29291,-0.83319 -0.80099,-1.22215 -0.0585,-0.0453 -0.11981,-0.0902 -0.18448,-0.13487 z"
       style="fill:#ffffff;fill-opacity:1;stroke:#000000;stroke-width:0.316972"
       id="path4" /><g
       id="g9"
       transform="matrix(0.95512928,0,0,0.95512928,-7.5056496,-13.728239)"
       style="stroke-width:1.04697"><path
         d="m 68.914169,128.91724 -3.775445,3.77542 c -0.591979,0.592 -1.552496,0.592 -2.144475,0 l -3.775421,-3.77542 c -0.591993,-0.59201 -0.591993,-1.5525 0,-2.1445 l 3.775421,-3.77543 c 0.591979,-0.59199 1.552496,-0.59199 2.144475,0 l 3.775445,3.77543 c 0.592005,0.592 0.592005,1.55249 0,2.1445 z"
         fill="#ed453a"
         id="path1-6"
         style="stroke-width:0.277012" /><path
         d="m 64.031416,125.59595 -0.453734,0.46122 0.432699,0.43984 1.740033,1.76885 0.0047,0.005 1.251241,-1.27194 -0.0047,-0.005 -0.425661,-0.4327 -1.314371,-1.33614 -0.432673,-0.43983 z m 0.774118,0.0903 1.314397,1.33614 -0.341471,0.34711 -1.314371,-1.33612 z"
         fill="#ffffff"
         id="path2"
         style="stroke-width:0.277012" /><path
         d="m 62.381633,128.23257 0.425662,-0.43269 -0.432674,-0.43982 -0.425635,-0.4327 -0.432699,-0.43984 -1.330751,1.35278 0.0047,0.005 1.155343,1.17448 0.130984,0.13314 2.542196,2.58432 0.453708,-0.46122 -2.542196,-2.58432 z m -0.432647,-0.43984 -0.449051,0.45649 -0.425674,-0.4327 0.449064,-0.45646 z"
         fill="#ffffff"
         id="path3-2"
         style="stroke-width:0.277012" /><path
         d="m 67.410568,127.40999 -1.655842,1.68322 -2.970212,-3.01699 1.655842,-1.68327 -0.430318,-0.43983 -2.111905,2.14451 0.007,0.007 3.395874,3.45207 0.432673,0.43985 0.453708,-0.46363 1.655841,-1.68323 z"
         fill="#ffffff"
         id="path4-9"
         style="stroke-width:0.277012" /><path
         d="m 64.034432,129.14144 -0.431641,0.43876 1.268439,1.28942 0.431615,-0.43875 z"
         fill="#ffffff"
         id="path5-1"
         style="stroke-width:0.277012" /><path
         d="m 63.180198,128.27337 -0.431641,0.43879 0.45974,0.46736 0.431641,-0.43879 z"
         fill="#ffffff"
         id="path6-2"
         style="stroke-width:0.277012" /></g><path
       style="fill:none;stroke:#000000;stroke-width:0.665;stroke-linecap:butt;stroke-linejoin:miter;stroke-dasharray:7.97999, 0.665;stroke-dashoffset:0;stroke-opacity:1;marker-end:url(#Triangle)"
       d="m 75.140221,101.93402 c 30.681399,0 30.681399,0 30.681399,0"
       id="path12" /><g
       id="g5"
       transform="matrix(0.14453784,0,0,0.14491465,93.787652,122.46474)"
       style="opacity:0.159231;mix-blend-mode:normal;fill:#627a77;fill-opacity:1;stroke:#000000;stroke-width:2.54274;stroke-dasharray:none;stroke-opacity:1"><path
         class="st0"
         d="M 41.1,41.9 H 15.6 V 12.5 h 7.7 c 9.9,0 17.8,8 17.8,17.8 z"
         id="path1-61"
         style="fill:#627a77;fill-opacity:1;stroke:#000000;stroke-width:2.54274;stroke-dasharray:none;stroke-opacity:1" /><path
         class="st1"
         d="M 41.1,67.5 C 27,67.5 15.5,56.1 15.5,41.9 h 25.6 z"
         id="path2-8"
         style="fill:#627a77;fill-opacity:1;stroke:#000000;stroke-width:2.54274;stroke-dasharray:none;stroke-opacity:1" /><path
         class="st2"
         d="M 41.1,41.9 H 64.4 V 67.5 H 41.1 Z"
         id="path3"
         style="fill:#627a77;fill-opacity:1;stroke:#000000;stroke-width:2.54274;stroke-dasharray:none;stroke-opacity:1" /><path
         class="st3"
         d="m 41.1,41.9 h 5.4 v 25.6 h -5.4 z"
         id="path4-7"
         style="fill:#627a77;fill-opacity:1;stroke:#000000;stroke-width:2.54274;stroke-dasharray:none;stroke-opacity:1" /></g><path
       d="m 107.78611,126.75096 v 0.34697 h -1.68832 v 0.94361 h 1.5783 v 0.33428 h -1.5783 v 1.04092 h 1.70947 v 0.34698 h -2.10722 v -3.01276 z m 2.22993,0.82935 -0.76164,1.00708 0.8505,1.17633 h -0.46122 l -0.61355,-0.89706 -0.60508,0.89706 h -0.43584 l 0.82089,-1.15095 -0.75742,-1.03246 h 0.45699 l 0.52893,0.74896 0.54161,-0.74896 z m 1.33289,0 v 0.2962 h -0.43583 v 1.27365 q 0,0.10579 0,0.13964 0.004,0.0339 0.0254,0.0931 0.0212,0.055 0.0719,0.0719 0.0508,0.0169 0.14386,0.0169 0.0804,0 0.19465,-0.0127 v 0.30889 q -0.15233,0.0169 -0.27504,0.0169 -0.15233,0 -0.25388,-0.0339 -0.10156,-0.0339 -0.15657,-0.0762 -0.0508,-0.0423 -0.0762,-0.1481 -0.0254,-0.11001 -0.0296,-0.18194 -0.004,-0.0762 -0.004,-0.24966 0,-0.0381 0,-0.0592 v -1.1594 h -0.36813 v -0.29625 h 0.36813 v -0.64741 h 0.35967 v 0.64741 z m 2.26379,1.49369 q -0.16503,0.76165 -0.95206,0.76165 -0.48238,0 -0.75742,-0.30043 -0.27081,-0.30043 -0.27081,-0.83359 0,-0.52892 0.27927,-0.85474 0.28351,-0.33005 0.73626,-0.33005 0.50354,0 0.74473,0.34275 0.24542,0.33851 0.24542,0.85897 v 0.0508 h -1.64178 l -0.004,0.0254 q 0,0.34697 0.18195,0.54585 0.18195,0.19888 0.4993,0.19888 0.23696,0 0.37236,-0.11002 0.13964,-0.11002 0.2158,-0.35544 z m -0.34697,-0.59663 q -0.0254,-0.31312 -0.19042,-0.48661 -0.16502,-0.17772 -0.43583,-0.17772 -0.26234,0 -0.43583,0.17772 -0.17349,0.17772 -0.20734,0.48661 z m 1.89142,-0.94783 v 0.37236 q -0.0381,-0.004 -0.0931,-0.004 -0.17348,0 -0.30042,0.055 -0.12695,0.0508 -0.20311,0.1354 -0.0719,0.0846 -0.11848,0.21158 -0.0465,0.12694 -0.0635,0.25388 -0.0127,0.12694 -0.0127,0.28773 v 0.92245 h -0.35967 v -2.18341 h 0.34274 v 0.46969 q 0.2158,-0.52046 0.80819,-0.52046 z m 0.68549,0.0508 v 0.33851 q 0.27081,-0.39775 0.74472,-0.39775 0.38506,0 0.55431,0.2031 0.17349,0.19888 0.17349,0.58817 v 1.45137 h -0.35967 v -1.28635 q 0,-0.16079 -0.0127,-0.24965 -0.008,-0.0931 -0.0508,-0.19464 -0.0423,-0.10579 -0.14387,-0.15233 -0.10155,-0.0465 -0.26234,-0.0465 -0.62201,0 -0.62201,0.78704 v 1.14247 h -0.35967 v -2.1834 z m 3.94787,1.89567 v 0.27927 q -0.11001,0.0423 -0.24542,0.0423 -0.30889,0 -0.31735,-0.32159 -0.30889,0.34698 -0.79127,0.34698 -0.32158,0 -0.51199,-0.16503 -0.18619,-0.16502 -0.18619,-0.45276 0,-0.58393 0.77435,-0.68125 0.45699,-0.055 0.52892,-0.0804 0.15233,-0.0508 0.16502,-0.21158 0.004,-0.0254 0.004,-0.055 0,-0.35966 -0.49508,-0.35966 -0.25388,0 -0.38505,0.10578 -0.13117,0.10155 -0.15656,0.33851 h -0.35121 q 0.008,-0.3512 0.24965,-0.54585 0.24119,-0.19464 0.66433,-0.19464 0.46122,0 0.68548,0.21157 0.0719,0.0677 0.10579,0.17772 0.0339,0.11001 0.0381,0.18195 0.004,0.0677 0.004,0.20734 0,0.16502 -0.008,0.49084 -0.008,0.32159 -0.008,0.48238 0,0.11848 0.0296,0.16926 0.0339,0.0466 0.11848,0.0466 0.0339,0 0.0888,-0.0127 z m -0.57969,-0.84629 q -0.0381,0.0296 -0.0804,0.0508 -0.0423,0.0212 -0.11002,0.0339 -0.0635,0.0127 -0.0889,0.0212 -0.0212,0.004 -0.11001,0.0169 -0.0889,0.008 -0.0931,0.008 -0.13117,0.0169 -0.17349,0.0254 -0.0381,0.004 -0.15233,0.0339 -0.11001,0.0296 -0.15656,0.0677 -0.0465,0.0381 -0.0931,0.11424 -0.0423,0.0719 -0.0423,0.17349 0,0.16926 0.11424,0.26658 0.11848,0.0973 0.32159,0.0973 0.25811,0 0.46122,-0.15233 0.20311,-0.15233 0.20311,-0.35967 z m 1.29903,-1.87874 v 3.01276 h -0.3639 v -3.01276 z m 2.11569,0 v 3.01276 h -0.3639 v -3.01276 z m 0.73203,1.07901 q 0.28774,-0.31313 0.78281,-0.31313 0.49507,0 0.77011,0.30044 0.27504,0.30042 0.27504,0.84204 0,0.55432 -0.27504,0.86321 -0.27504,0.30889 -0.77434,0.30889 -0.49931,0 -0.78281,-0.30466 -0.2835,-0.30466 -0.2835,-0.84628 0,-0.53739 0.28773,-0.85051 z m 1.27365,0.22003 q -0.18195,-0.23272 -0.49931,-0.23272 -0.31735,0 -0.50353,0.23272 -0.18618,0.23273 -0.18618,0.62202 0,0.40198 0.18195,0.63048 0.18618,0.22426 0.51623,0.22426 0.31735,0 0.49507,-0.2285 0.18195,-0.22849 0.18195,-0.63047 0,-0.38929 -0.18618,-0.61779 z m 2.8731,-0.46968 v 1.94644 q 0,0.2835 -0.0296,0.43584 -0.0296,0.15656 -0.11002,0.29196 -0.24118,0.39776 -0.8632,0.39776 -0.36813,0 -0.62201,-0.15233 -0.25388,-0.14811 -0.2962,-0.49085 h 0.36813 q 0.0635,0.3639 0.56278,0.3639 0.33428,0 0.48237,-0.16925 0.15233,-0.16926 0.1608,-0.54585 l 0.004,-0.26658 q -0.20734,0.39775 -0.69395,0.39775 -0.44006,0 -0.70241,-0.30043 -0.25811,-0.30043 -0.25811,-0.8082 0,-0.47815 0.25811,-0.81666 0.25812,-0.34274 0.71934,-0.34274 0.22849,0 0.40621,0.0973 0.18195,0.0973 0.2835,0.27927 v -0.31736 z m -1.00284,0.25388 q -0.29196,0 -0.46122,0.2285 -0.16502,0.22426 -0.16502,0.62201 0,0.35967 0.17349,0.5797 0.17348,0.21581 0.46122,0.21581 0.30042,0 0.46968,-0.2285 0.17349,-0.22849 0.17349,-0.62625 0,-0.37236 -0.17349,-0.5797 -0.16926,-0.21157 -0.47815,-0.21157 z m 4.59528,1.13402 q -0.0465,0.39352 -0.30043,0.62624 -0.24965,0.23273 -0.65163,0.23273 -0.49507,0 -0.76588,-0.30466 -0.27081,-0.30889 -0.27081,-0.82089 0,-0.54585 0.2835,-0.86321 0.28351,-0.32159 0.76588,-0.32159 0.40198,0 0.64317,0.20311 0.24119,0.19888 0.2835,0.57124 h -0.37236 q -0.0973,-0.47391 -0.55008,-0.47391 -0.31312,0 -0.49507,0.23272 -0.18195,0.2285 -0.18195,0.62202 0,0.39775 0.17349,0.62624 0.17349,0.2285 0.47815,0.2285 0.24542,0 0.39775,-0.14386 0.15656,-0.14387 0.19887,-0.41468 z m 0.56701,-1.13825 q 0.28773,-0.31313 0.7828,-0.31313 0.49507,0 0.77011,0.30044 0.27504,0.30042 0.27504,0.84204 0,0.55432 -0.27504,0.86321 -0.27504,0.30889 -0.77434,0.30889 -0.4993,0 -0.7828,-0.30466 -0.28351,-0.30466 -0.28351,-0.84628 0,-0.53739 0.28774,-0.85051 z m 1.27364,0.22003 q -0.18195,-0.23272 -0.4993,-0.23272 -0.31735,0 -0.50353,0.23272 -0.18618,0.23273 -0.18618,0.62202 0,0.40198 0.18194,0.63048 0.18619,0.22426 0.51623,0.22426 0.31736,0 0.49507,-0.2285 0.18195,-0.22849 0.18195,-0.63047 0,-0.38929 -0.18618,-0.61779 z m 1.3625,-1.29904 v 3.01276 h -0.36389 v -3.01276 z m 0.93937,0 v 3.01276 h -0.3639 v -3.01276 z m 2.42458,2.32304 q -0.16502,0.76165 -0.95206,0.76165 -0.48238,0 -0.75741,-0.30042 -0.27081,-0.30044 -0.27081,-0.83359 0,-0.52893 0.27927,-0.85474 0.2835,-0.33006 0.73626,-0.33006 0.50353,0 0.74472,0.34275 0.24542,0.33851 0.24542,0.85897 v 0.0508 h -1.64177 l -0.004,0.0254 q 0,0.34698 0.18195,0.54585 0.18195,0.19888 0.49931,0.19888 0.23695,0 0.37236,-0.11001 0.13963,-0.11002 0.2158,-0.35544 z m -0.34697,-0.59663 q -0.0254,-0.31312 -0.19041,-0.48661 -0.16503,-0.17772 -0.43583,-0.17772 -0.26235,0 -0.43584,0.17772 -0.17348,0.17772 -0.20733,0.48661 z m 2.63192,0.49085 q -0.0465,0.39352 -0.30043,0.62624 -0.24965,0.23273 -0.65163,0.23273 -0.49507,0 -0.76588,-0.30466 -0.27081,-0.30889 -0.27081,-0.82089 0,-0.54585 0.28351,-0.86321 0.2835,-0.32159 0.76588,-0.32159 0.40198,0 0.64317,0.20311 0.24118,0.19888 0.2835,0.57124 h -0.37236 q -0.0973,-0.47391 -0.55008,-0.47391 -0.31313,0 -0.49507,0.23272 -0.18195,0.2285 -0.18195,0.62202 0,0.39775 0.17348,0.62624 0.17349,0.2285 0.47815,0.2285 0.24542,0 0.39775,-0.14386 0.15656,-0.14387 0.19887,-0.41468 z m 1.32866,-1.3879 v 0.2962 h -0.43584 v 1.27365 q 0,0.10578 0,0.13963 0.004,0.0339 0.0254,0.0931 0.0212,0.055 0.0719,0.0719 0.0508,0.0169 0.14387,0.0169 0.0804,0 0.19465,-0.0127 v 0.30889 q -0.15233,0.0169 -0.27504,0.0169 -0.15233,0 -0.25389,-0.0339 -0.10155,-0.0339 -0.15656,-0.0762 -0.0508,-0.0423 -0.0762,-0.1481 -0.0254,-0.11002 -0.0296,-0.18195 -0.004,-0.0762 -0.004,-0.24965 0,-0.0381 0,-0.0592 v -1.15922 h -0.36813 v -0.29625 h 0.36813 v -0.6474 h 0.35966 v 0.6474 z m 0.57124,0.24965 q 0.28773,-0.31313 0.7828,-0.31313 0.49507,0 0.77011,0.30044 0.27504,0.30042 0.27504,0.84204 0,0.55432 -0.27504,0.86321 -0.27504,0.30889 -0.77434,0.30889 -0.4993,0 -0.78281,-0.30466 -0.2835,-0.30466 -0.2835,-0.84628 0,-0.53739 0.28774,-0.85051 z m 1.27364,0.22003 q -0.18195,-0.23272 -0.4993,-0.23272 -0.31735,0 -0.50354,0.23272 -0.18618,0.23273 -0.18618,0.62202 0,0.40198 0.18195,0.63048 0.18618,0.22426 0.51623,0.22426 0.31736,0 0.49507,-0.2285 0.18195,-0.22849 0.18195,-0.63047 0,-0.38929 -0.18618,-0.61779 z m 2.11992,-0.52046 v 0.37236 q -0.0381,-0.004 -0.0931,-0.004 -0.17349,0 -0.30043,0.055 -0.12694,0.0508 -0.2031,0.13541 -0.0719,0.0846 -0.11848,0.21157 -0.0465,0.12694 -0.0635,0.25388 -0.0127,0.12694 -0.0127,0.28774 v 0.92244 h -0.35966 v -2.1834 h 0.34274 v 0.46968 q 0.2158,-0.52046 0.80819,-0.52046 z"
       id="text12"
       style="font-size:4.23138px;line-height:1.25;font-family:HelveticaNeueCyr;-inkscape-font-specification:HelveticaNeueCyr;stroke-width:0.264583"
       aria-label="External log collector" /><g
       id="Layer_2"
       transform="matrix(0.26458333,0,0,0.26458333,150.17679,53.732703)"
       style="fill:#607979;fill-opacity:0.156863;stroke:#000000;stroke-width:0.623622;stroke-dasharray:none;stroke-opacity:0.156863" /><path
       style="fill:none;stroke:#000000;stroke-width:0.665;stroke-linecap:butt;stroke-linejoin:miter;stroke-dasharray:7.97999, 0.665;stroke-dashoffset:0;stroke-opacity:1;marker-end:url(#Triangle)"
       d="m 125.68233,110.40954 v 11.98081"
       id="path16"
       sodipodi:nodetypes="cc" /><g
       id="text1"
       style="font-size:4.20452px;font-family:HelveticaNeueCyr;-inkscape-font-specification:HelveticaNeueCyr;text-align:center;text-anchor:middle;fill:#ffffff;stroke-width:0.350376"
       aria-label="Picodata&#10;instance"><path
         style="font-weight:bold;fill:#000000"
         d="m 45.043757,117.71205 v 2.99362 h 0.6517 v -1.07635 h 0.672724 c 0.601246,0 1.063743,-0.30273 1.063743,-0.95443 0,-0.66011 -0.449884,-0.96284 -1.09738,-0.96284 z m 0.6517,0.53818 h 0.588633 c 0.290112,0 0.508747,0.11353 0.508747,0.43307 0,0.33216 -0.218635,0.42886 -0.512951,0.42886 h -0.584429 z m 2.699302,-0.53818 h -0.597042 v 0.50455 h 0.597042 z m 0,0.82409 h -0.597042 v 2.16953 h 0.597042 z m 2.539527,1.33283 h -0.576019 c -0.04625,0.28591 -0.206021,0.43727 -0.462497,0.43727 -0.319544,0 -0.504543,-0.24806 -0.504543,-0.68113 0,-0.44568 0.193408,-0.70636 0.517156,-0.70636 0.231249,0 0.386816,0.13455 0.428861,0.3742 h 0.584429 c -0.05045,-0.50454 -0.43727,-0.81988 -1.017494,-0.81988 -0.672723,0 -1.114198,0.4625 -1.114198,1.16466 0,0.67692 0.43727,1.1226 1.105789,1.1226 0.576019,0 0.962835,-0.32795 1.038516,-0.89136 z m 1.412717,-1.3959 c -0.681132,0 -1.131016,0.4583 -1.131016,1.14784 0,0.69374 0.445679,1.15204 1.122607,1.15204 0.676928,0 1.118402,-0.45409 1.118402,-1.15204 0,-0.68954 -0.441474,-1.14784 -1.109993,-1.14784 z m -0.01682,0.45409 c 0.332157,0 0.529769,0.25648 0.529769,0.68954 0,0.44568 -0.193408,0.70636 -0.52136,0.70636 -0.332157,0 -0.525565,-0.25647 -0.525565,-0.70215 0,-0.43307 0.197612,-0.69375 0.517156,-0.69375 z m 3.632705,1.77851 v -2.99362 h -0.592837 v 1.09318 c -0.138749,-0.22284 -0.403634,-0.32795 -0.66011,-0.32795 -0.576019,0 -0.950221,0.44988 -0.950221,1.13522 0,0.70215 0.382611,1.15204 0.983858,1.15204 0.298521,0 0.512951,-0.11353 0.655905,-0.33637 v 0.2775 z m -0.571814,-1.08897 c 0,0.42466 -0.189204,0.66852 -0.517156,0.66852 -0.319544,0 -0.512952,-0.25227 -0.512952,-0.67272 0,-0.41625 0.189204,-0.66432 0.512952,-0.66432 0.323748,0 0.517156,0.24807 0.517156,0.66852 z m 3.044073,1.08897 c -0.07989,-0.185 -0.07568,-0.39102 -0.07568,-0.58863 v -0.93761 c 0,-0.60545 -0.508747,-0.70636 -0.946017,-0.70636 -0.626473,0 -0.971244,0.24807 -1.00488,0.73159 h 0.559201 c 0.04205,-0.24807 0.155567,-0.33216 0.428861,-0.33216 0.264885,0 0.39102,0.0925 0.39102,0.29011 0,0.17659 -0.142953,0.21023 -0.529769,0.26068 -0.428861,0.0547 -0.946017,0.12194 -0.946017,0.68955 0,0.40783 0.294316,0.6559 0.773632,0.6559 0.26068,0 0.517156,-0.0883 0.702154,-0.27329 0.0084,0.0967 0.01261,0.13034 0.04205,0.21022 z m -0.651701,-1.05533 v 0.24386 c 0,0.31114 -0.218635,0.48352 -0.52977,0.48352 -0.206021,0 -0.327952,-0.10932 -0.327952,-0.29011 0,-0.26489 0.231248,-0.29011 0.43727,-0.32375 0.151363,-0.0252 0.281703,-0.0336 0.420452,-0.11352 z m 2.241007,-1.1142 H 59.58298 v -0.6559 h -0.592837 v 0.6559 h -0.361589 v 0.40363 h 0.361589 v 1.12682 c 0,0.52977 0.159771,0.66431 0.672723,0.66431 0.134545,0 0.197612,-0.004 0.361589,-0.0168 v -0.45409 c -0.07148,0.008 -0.117727,0.008 -0.180795,0.008 -0.256475,0 -0.26068,-0.0967 -0.26068,-0.30693 v -1.0217 h 0.441475 z m 2.304074,2.16953 c -0.07989,-0.185 -0.07568,-0.39102 -0.07568,-0.58863 v -0.93761 c 0,-0.60545 -0.508747,-0.70636 -0.946017,-0.70636 -0.626473,0 -0.971244,0.24807 -1.00488,0.73159 h 0.559201 c 0.04205,-0.24807 0.155567,-0.33216 0.428861,-0.33216 0.264885,0 0.391021,0.0925 0.391021,0.29011 0,0.17659 -0.142954,0.21023 -0.52977,0.26068 -0.428861,0.0547 -0.946017,0.12194 -0.946017,0.68955 0,0.40783 0.294316,0.6559 0.773632,0.6559 0.26068,0 0.517156,-0.0883 0.702155,-0.27329 0.0084,0.0967 0.01261,0.13034 0.04205,0.21022 z m -0.651701,-1.05533 v 0.24386 c 0,0.31114 -0.218635,0.48352 -0.529769,0.48352 -0.206022,0 -0.327953,-0.10932 -0.327953,-0.29011 0,-0.26489 0.231249,-0.29011 0.43727,-0.32375 0.151363,-0.0252 0.281703,-0.0336 0.420452,-0.11352 z"
         id="path5" /><path
         style="font-weight:bold;fill:#000000"
         d="m 45.939316,122.96771 h -0.597042 v 0.50454 h 0.597042 z m 0,0.82408 h -0.597042 v 2.16953 h 0.597042 z m 2.514301,2.16953 v -1.45056 c 0,-0.50454 -0.294317,-0.77783 -0.752609,-0.77783 -0.30693,0 -0.546588,0.13034 -0.718973,0.36159 v -0.30273 h -0.56761 v 2.16953 h 0.592837 v -1.16465 c 0,-0.31534 0.113522,-0.57181 0.470906,-0.57181 0.319544,0 0.369998,0.20181 0.369998,0.4709 v 1.26556 z m 2.283056,-1.53885 c -0.01682,-0.50454 -0.445679,-0.69375 -0.941812,-0.69375 -0.605451,0 -0.950222,0.23966 -0.950222,0.66432 0,0.51715 0.504543,0.57602 0.891358,0.66431 0.311135,0.0715 0.487725,0.10511 0.487725,0.29011 0,0.16398 -0.151363,0.26909 -0.395225,0.26909 -0.273294,0 -0.441475,-0.10091 -0.462497,-0.36159 h -0.567611 c 0.0084,0.555 0.475111,0.76943 1.017494,0.76943 0.618065,0 0.992267,-0.2817 0.992267,-0.73579 0,-0.49193 -0.454088,-0.59284 -0.845109,-0.67272 -0.34477,-0.0715 -0.529769,-0.0967 -0.529769,-0.2775 0,-0.13455 0.126136,-0.21443 0.336362,-0.21443 0.239657,0 0.378406,0.0715 0.412043,0.29852 z m 1.618743,-0.63068 h -0.441474 v -0.6559 h -0.592837 v 0.6559 h -0.361589 v 0.40364 h 0.361589 v 1.12681 c 0,0.52977 0.159771,0.66431 0.672723,0.66431 0.134544,0 0.197612,-0.004 0.361588,-0.0168 v -0.45409 c -0.07148,0.008 -0.117726,0.008 -0.180794,0.008 -0.256476,0 -0.26068,-0.0967 -0.26068,-0.30693 v -1.02169 h 0.441474 z m 2.304075,2.16953 c -0.07989,-0.185 -0.07568,-0.39102 -0.07568,-0.58863 v -0.93761 c 0,-0.60545 -0.508747,-0.70636 -0.946017,-0.70636 -0.626473,0 -0.971244,0.24807 -1.00488,0.73159 h 0.559201 c 0.04205,-0.24807 0.155567,-0.33216 0.428861,-0.33216 0.264885,0 0.39102,0.0925 0.39102,0.29011 0,0.17659 -0.142953,0.21023 -0.529769,0.26068 -0.428861,0.0547 -0.946017,0.12194 -0.946017,0.68955 0,0.40783 0.294316,0.6559 0.773632,0.6559 0.26068,0 0.517156,-0.0883 0.702154,-0.27329 0.0084,0.0967 0.01261,0.13034 0.04205,0.21022 z m -0.651701,-1.05533 v 0.24386 c 0,0.31114 -0.218635,0.48352 -0.52977,0.48352 -0.206021,0 -0.327952,-0.10932 -0.327952,-0.29011 0,-0.26489 0.231248,-0.29011 0.43727,-0.32375 0.151363,-0.0252 0.281703,-0.0336 0.420452,-0.11352 z m 3.09032,1.05533 v -1.45056 c 0,-0.50454 -0.294317,-0.77783 -0.752609,-0.77783 -0.30693,0 -0.546588,0.13034 -0.718973,0.36159 v -0.30273 h -0.567611 v 2.16953 h 0.592838 v -1.16465 c 0,-0.31534 0.113522,-0.57181 0.470906,-0.57181 0.319544,0 0.369998,0.20181 0.369998,0.4709 v 1.26556 z m 2.518509,-0.8367 H 59.0406 c -0.04625,0.28591 -0.206022,0.43727 -0.462497,0.43727 -0.319544,0 -0.504543,-0.24806 -0.504543,-0.68113 0,-0.44568 0.193408,-0.70636 0.517156,-0.70636 0.231249,0 0.386816,0.13455 0.428861,0.3742 h 0.584429 c -0.05045,-0.50454 -0.43727,-0.81988 -1.017494,-0.81988 -0.672724,0 -1.114198,0.4625 -1.114198,1.16466 0,0.67692 0.43727,1.1226 1.105789,1.1226 0.576019,0 0.962835,-0.32795 1.038516,-0.89136 z m 2.383961,0.16398 h -0.571815 c -0.08829,0.21864 -0.22284,0.31534 -0.441475,0.31534 -0.319543,0 -0.500338,-0.20182 -0.508747,-0.57602 h 1.555673 v -0.0589 c 0,-0.76102 -0.416248,-1.24034 -1.072153,-1.24034 -0.630678,0 -1.088971,0.48773 -1.088971,1.16045 0,0.68113 0.441475,1.13522 1.109994,1.13522 0.491929,0 0.882949,-0.26488 1.017494,-0.73579 z m -0.571815,-0.63909 h -0.950222 c 0.03364,-0.30272 0.218635,-0.48772 0.48352,-0.48772 0.298521,0 0.441475,0.22284 0.466702,0.48772 z"
         id="path6" /></g></g></svg>
