<?xml version="1.0" encoding="UTF-8" standalone="no"?>
<!-- Created with Inkscape (http://www.inkscape.org/) -->

<svg
   width="70.791969mm"
   height="48.655605mm"
   viewBox="0 0 70.791969 48.655605"
   version="1.1"
   id="svg1"
   inkscape:version="1.3.2 (091e20ef0f, 2023-11-25)"
   sodipodi:docname="left_join.svg"
   xmlns:inkscape="http://www.inkscape.org/namespaces/inkscape"
   xmlns:sodipodi="http://sodipodi.sourceforge.net/DTD/sodipodi-0.dtd"
   xmlns="http://www.w3.org/2000/svg"
   xmlns:svg="http://www.w3.org/2000/svg">
  <sodipodi:namedview
     id="namedview1"
     pagecolor="#ffffff"
     bordercolor="#666666"
     borderopacity="1.0"
     inkscape:showpageshadow="2"
     inkscape:pageopacity="0.0"
     inkscape:pagecheckerboard="0"
     inkscape:deskcolor="#d1d1d1"
     inkscape:document-units="mm"
     inkscape:zoom="1"
     inkscape:cx="87.5"
     inkscape:cy="175.5"
     inkscape:window-width="1854"
     inkscape:window-height="1011"
     inkscape:window-x="66"
     inkscape:window-y="32"
     inkscape:window-maximized="1"
     inkscape:current-layer="layer1" />
  <defs
     id="defs1" />
  <g
     inkscape:label="Layer 1"
     inkscape:groupmode="layer"
     id="layer1"
     transform="translate(-51.18162,-41.863108)">
    <g
       id="g4">
      <ellipse
         style="fill:#ff0000;fill-opacity:1;stroke:#000000;stroke-width:0.489;stroke-dasharray:none"
         id="path1"
         cx="72.436539"
         cy="69.83828"
         rx="21.010418"
         ry="20.435934" />
      <ellipse
         style="fill:none;stroke:#000000;stroke-width:0.489;stroke-dasharray:none"
         id="ellipse1"
         cx="100.71867"
         cy="69.83828"
         rx="21.010418"
         ry="20.435934" />
      <path
         d="m 52.895929,43.084942 v 0.43637 h -0.642087 v 1.876389 q 0,0.155846 0,0.205717 0.0062,0.04987 0.0374,0.137145 0.03117,0.08104 0.105975,0.105975 0.07481,0.02493 0.211951,0.02493 0.118443,0 0.286757,-0.0187 v 0.455071 q -0.224419,0.02493 -0.4052,0.02493 -0.224419,0 -0.374031,-0.04987 -0.149613,-0.04987 -0.230653,-0.112209 -0.07481,-0.06234 -0.112209,-0.218185 -0.0374,-0.16208 -0.04364,-0.268055 -0.0062,-0.112209 -0.0062,-0.367797 0,-0.05611 0,-0.08727 V 43.521312 H 51.18162 v -0.43637 h 0.542345 v -0.953779 h 0.529877 v 0.953779 z m 3.434855,2.792765 v 0.411434 q -0.16208,0.06234 -0.361564,0.06234 -0.455071,0 -0.467538,-0.473773 -0.455071,0.511176 -1.16573,0.511176 -0.473773,0 -0.754296,-0.24312 -0.27429,-0.24312 -0.27429,-0.667022 0,-0.860271 1.140795,-1.00365 0.673256,-0.08104 0.779231,-0.118443 0.224419,-0.07481 0.24312,-0.311693 0.0062,-0.0374 0.0062,-0.08104 0,-0.529877 -0.72936,-0.529877 -0.374031,0 -0.567281,0.155846 -0.193249,0.149613 -0.230652,0.498708 h -0.51741 q 0.01247,-0.517409 0.367798,-0.804166 0.355329,-0.286757 0.978714,-0.286757 0.67949,0 1.009884,0.311692 0.105975,0.09974 0.155846,0.261822 0.04987,0.16208 0.05611,0.268055 0.0062,0.09974 0.0062,0.305459 0,0.24312 -0.01247,0.723127 -0.01247,0.473772 -0.01247,0.710658 0,0.174548 0.04364,0.249354 0.04987,0.06857 0.174548,0.06857 0.04987,0 0.130911,-0.0187 z m -0.854038,-1.24677 q -0.0561,0.04364 -0.118443,0.07481 -0.06234,0.03117 -0.16208,0.04987 -0.09351,0.0187 -0.130911,0.03117 -0.03117,0.0062 -0.16208,0.02494 -0.130911,0.01247 -0.137145,0.01247 -0.193249,0.02493 -0.255587,0.0374 -0.05611,0.0062 -0.224419,0.04987 -0.16208,0.04364 -0.230653,0.09974 -0.06857,0.05611 -0.137144,0.168314 -0.06234,0.105975 -0.06234,0.255588 0,0.249354 0.168314,0.392732 0.174548,0.143379 0.473773,0.143379 0.380265,0 0.679489,-0.224419 0.299225,-0.224418 0.299225,-0.529877 z m 1.876393,-2.767829 v 1.664438 q 0.349096,-0.529877 1.065989,-0.529877 0.660788,0 1.05352,0.461304 0.398967,0.455071 0.398967,1.221835 0,0.779231 -0.4052,1.24677 -0.405201,0.467539 -1.078457,0.467539 -0.766763,0 -1.065988,-0.561047 v 0.467539 h -0.498708 v -4.438501 z m 0.984949,1.583398 q -0.511176,0 -0.76053,0.367797 -0.24312,0.367797 -0.24312,0.903908 0,0.56728 0.268055,0.903908 0.27429,0.330394 0.735595,0.330394 0.442603,0 0.710659,-0.342861 0.274289,-0.349096 0.274289,-0.92261 0,-0.56728 -0.268056,-0.903908 -0.268055,-0.336628 -0.716892,-0.336628 z m 2.74913,-1.583398 v 4.438501 h -0.536111 v -4.438501 z m 3.571997,3.422383 q -0.24312,1.122093 -1.402616,1.122093 -0.710659,0 -1.115859,-0.442603 -0.398967,-0.442603 -0.398967,-1.228068 0,-0.779232 0.411434,-1.259238 0.417668,-0.48624 1.08469,-0.48624 0.741828,0 1.097158,0.504942 0.361563,0.498708 0.361563,1.265471 v 0.07481 h -2.418734 l -0.0062,0.0374 q 0,0.511176 0.268056,0.804167 0.268056,0.292991 0.735594,0.292991 0.349096,0 0.548579,-0.16208 0.205717,-0.16208 0.317926,-0.523644 z m -0.511176,-0.878972 q -0.0374,-0.461305 -0.280523,-0.716893 -0.24312,-0.261822 -0.642086,-0.261822 -0.386499,0 -0.642087,0.261822 -0.255588,0.261822 -0.305459,0.716893 z m 4.675391,-2.518476 v 4.413566 h -0.579748 v -3.197965 h -1.109625 v -0.398966 q 0.536111,0 0.847804,-0.174548 0.317926,-0.174548 0.423901,-0.642087 z"
         id="text1"
         style="font-size:6.23385px;line-height:1.25;font-family:HelveticaNeueCyr;-inkscape-font-specification:HelveticaNeueCyr;stroke-width:0.155847"
         aria-label="table 1" />
      <path
         d="m 105.20452,43.084942 v 0.43637 h -0.64209 v 1.876389 q 0,0.155846 0,0.205717 0.006,0.04987 0.0374,0.137145 0.0312,0.08104 0.10597,0.105975 0.0748,0.02493 0.21195,0.02493 0.11845,0 0.28676,-0.0187 v 0.455071 q -0.22442,0.02493 -0.4052,0.02493 -0.22442,0 -0.37403,-0.04987 -0.14961,-0.04987 -0.23065,-0.112209 -0.0748,-0.06234 -0.11221,-0.218185 -0.0374,-0.16208 -0.0436,-0.268055 -0.006,-0.112209 -0.006,-0.367797 0,-0.05611 0,-0.08727 v -1.708075 h -0.54235 v -0.43637 h 0.54235 v -0.953779 h 0.52987 v 0.953779 z m 3.43485,2.792765 v 0.411434 q -0.16208,0.06234 -0.36156,0.06234 -0.45507,0 -0.46754,-0.473773 -0.45507,0.511176 -1.16573,0.511176 -0.47377,0 -0.75429,-0.24312 -0.27429,-0.24312 -0.27429,-0.667022 0,-0.860271 1.14079,-1.00365 0.67326,-0.08104 0.77923,-0.118443 0.22442,-0.07481 0.24312,-0.311693 0.006,-0.0374 0.006,-0.08104 0,-0.529877 -0.72936,-0.529877 -0.37404,0 -0.56728,0.155846 -0.19325,0.149613 -0.23066,0.498708 h -0.51741 q 0.0125,-0.517409 0.3678,-0.804166 0.35533,-0.286757 0.97871,-0.286757 0.67949,0 1.00989,0.311692 0.10597,0.09974 0.15584,0.261822 0.0499,0.16208 0.0561,0.268055 0.006,0.09974 0.006,0.305459 0,0.24312 -0.0125,0.723127 -0.0125,0.473772 -0.0125,0.710658 0,0.174548 0.0436,0.249354 0.0499,0.06857 0.17455,0.06857 0.0499,0 0.13091,-0.0187 z m -0.85403,-1.24677 q -0.0561,0.04364 -0.11845,0.07481 -0.0623,0.03117 -0.16208,0.04987 -0.0935,0.0187 -0.13091,0.03117 -0.0312,0.0062 -0.16208,0.02494 -0.13091,0.01247 -0.13714,0.01247 -0.19325,0.02493 -0.25559,0.0374 -0.0561,0.0062 -0.22442,0.04987 -0.16208,0.04364 -0.23065,0.09974 -0.0686,0.05611 -0.13715,0.168314 -0.0623,0.105975 -0.0623,0.255588 0,0.249354 0.16831,0.392732 0.17455,0.143379 0.47377,0.143379 0.38027,0 0.67949,-0.224419 0.29923,-0.224418 0.29923,-0.529877 z m 1.87639,-2.767829 v 1.664438 q 0.34909,-0.529877 1.06599,-0.529877 0.66079,0 1.05352,0.461304 0.39896,0.455071 0.39896,1.221835 0,0.779231 -0.4052,1.24677 -0.4052,0.467539 -1.07845,0.467539 -0.76677,0 -1.06599,-0.561047 v 0.467539 h -0.49871 v -4.438501 z m 0.98495,1.583398 q -0.51118,0 -0.76053,0.367797 -0.24312,0.367797 -0.24312,0.903908 0,0.56728 0.26805,0.903908 0.27429,0.330394 0.7356,0.330394 0.4426,0 0.71066,-0.342861 0.27429,-0.349096 0.27429,-0.92261 0,-0.56728 -0.26806,-0.903908 -0.26806,-0.336628 -0.71689,-0.336628 z m 2.74913,-1.583398 v 4.438501 h -0.53611 v -4.438501 z m 3.57199,3.422383 q -0.24312,1.122093 -1.40261,1.122093 -0.71066,0 -1.11586,-0.442603 -0.39897,-0.442603 -0.39897,-1.228068 0,-0.779232 0.41144,-1.259238 0.41767,-0.48624 1.08469,-0.48624 0.74183,0 1.09715,0.504942 0.36157,0.498708 0.36157,1.265471 v 0.07481 h -2.41874 l -0.006,0.0374 q 0,0.511176 0.26806,0.804167 0.26805,0.292991 0.73559,0.292991 0.3491,0 0.54858,-0.16208 0.20572,-0.16208 0.31793,-0.523644 z m -0.51117,-0.878972 q -0.0374,-0.461305 -0.28052,-0.716893 -0.24312,-0.261822 -0.64209,-0.261822 -0.3865,0 -0.64209,0.261822 -0.25558,0.261822 -0.30546,0.716893 z m 5.47956,1.415084 v 0.480006 h -2.88004 q 0.0187,-0.367797 0.11221,-0.642087 0.0935,-0.274289 0.28675,-0.492474 0.19949,-0.224418 0.3865,-0.367797 0.18702,-0.143378 0.52988,-0.355329 0.53611,-0.336628 0.70443,-0.504942 0.34909,-0.342862 0.34909,-0.76053 0,-0.367797 -0.23689,-0.598449 -0.23688,-0.236887 -0.61715,-0.236887 -0.45507,0 -0.65455,0.317927 -0.19325,0.311692 -0.20572,0.791699 h -0.53611 v -0.118444 q 0,-0.654554 0.3865,-1.05352 0.39273,-0.398967 1.03482,-0.398967 0.62962,0 1.00365,0.349096 0.37403,0.349096 0.37403,0.935077 0,0.249354 -0.0873,0.473773 -0.081,0.218185 -0.18702,0.367797 -0.0997,0.149613 -0.31169,0.317927 -0.20572,0.168314 -0.34286,0.261821 -0.13715,0.08727 -0.39274,0.24312 -0.51117,0.305459 -0.67949,0.473773 -0.23688,0.230652 -0.30545,0.51741 z"
         id="text2"
         style="font-size:6.23385px;line-height:1.25;font-family:HelveticaNeueCyr;-inkscape-font-specification:HelveticaNeueCyr;stroke-width:0.155847"
         aria-label="table 2" />
    </g>
  </g>
</svg>
