<?xml version="1.0" encoding="UTF-8" standalone="no"?>
<!-- Created with Inkscape (http://www.inkscape.org/) -->

<svg
   width="178.74831mm"
   height="90.237267mm"
   viewBox="0 0 178.74831 90.237267"
   version="1.1"
   id="svg5"
   inkscape:version="1.2.1 (9c6d41e410, 2022-07-14)"
   sodipodi:docname="sbroad-curves.svg"
   xmlns:inkscape="http://www.inkscape.org/namespaces/inkscape"
   xmlns:sodipodi="http://sodipodi.sourceforge.net/DTD/sodipodi-0.dtd"
   xmlns="http://www.w3.org/2000/svg"
   xmlns:svg="http://www.w3.org/2000/svg">
  <sodipodi:namedview
     id="namedview7"
     pagecolor="#ffffff"
     bordercolor="#666666"
     borderopacity="1.0"
     inkscape:showpageshadow="2"
     inkscape:pageopacity="0.0"
     inkscape:pagecheckerboard="0"
     inkscape:deskcolor="#d1d1d1"
     inkscape:document-units="mm"
     showgrid="false"
     inkscape:zoom="1.4948513"
     inkscape:cx="359.90202"
     inkscape:cy="223.76808"
     inkscape:window-width="1920"
     inkscape:window-height="1016"
     inkscape:window-x="0"
     inkscape:window-y="32"
     inkscape:window-maximized="1"
     inkscape:current-layer="layer1" />
  <defs
     id="defs2" />
  <g
     inkscape:label="Слой 1"
     inkscape:groupmode="layer"
     id="layer1"
     transform="translate(-1.5018702,13.634444)">
    <rect
       style="fill:none;fill-opacity:0.572549;stroke:#000000;stroke-width:0.632862"
       id="rect788"
       width="41.165371"
       height="21.951191"
       x="1.8183012"
       y="9.0731115" />
    <g
       aria-label="Запрос"
       id="text952"
       style="font-size:2.4674px;line-height:1.25;stroke-width:0.264582"
       transform="matrix(1.1315599,0,0,1.1315599,-35.564572,-16.060519)">
      <path
         d="m 43.635429,32.304304 q 0,0.241499 -0.110402,0.503693 -0.110403,0.255285 -0.324295,0.496789 -0.213898,0.241499 -0.60029,0.393294 -0.386392,0.15179 -0.876285,0.15179 -0.924582,0 -1.483474,-0.434692 -0.55199,-0.441594 -0.55199,-1.297177 h 0.62789 q 0.02069,0.627888 0.420892,0.917683 0.400192,0.282894 1.04188,0.282894 0.517491,0 0.862485,-0.282894 0.344994,-0.282896 0.344994,-0.745186 0,-0.255285 -0.09659,-0.434694 -0.09659,-0.179391 -0.282897,-0.2691 -0.186297,-0.08971 -0.393291,-0.124189 -0.200083,-0.03451 -0.469194,-0.03451 -0.234591,0 -0.44159,0.0137 v -0.53819 q 0.110402,0.0137 0.44159,0.0137 1.069482,0 1.069482,-0.883184 0,-0.786588 -1.055681,-0.786588 -1.117781,0 -1.221279,1.000483 h -0.627888 q 0.02768,-0.758987 0.53819,-1.145379 0.510592,-0.393294 1.331676,-0.393294 0.752088,0 1.21438,0.331194 0.469191,0.331194 0.469191,0.993584 0,0.372591 -0.241498,0.676187 -0.241499,0.296694 -0.57269,0.393294 v 0.02069 q 0.469192,0.08971 0.724488,0.420892 0.262192,0.331196 0.262192,0.758986 z"
         style="font-family:HelveticaNeueCyr;-inkscape-font-specification:HelveticaNeueCyr;stroke-width:0.739882"
         id="path13302" />
      <path
         d="m 47.499367,33.270287 v 0.455394 q -0.17939,0.06899 -0.400192,0.06899 -0.503694,0 -0.517491,-0.524392 -0.503694,0.56579 -1.290278,0.56579 -0.524392,0 -0.834887,-0.269099 -0.303593,-0.269099 -0.303593,-0.738287 0,-0.952183 1.262677,-1.110882 0.745187,-0.08971 0.862485,-0.131096 0.248406,-0.0828 0.269099,-0.344994 0.007,-0.04142 0.007,-0.08971 0,-0.58649 -0.807286,-0.58649 -0.413993,0 -0.627888,0.172511 -0.213898,0.165604 -0.255285,0.55199 H 44.29103 q 0.0137,-0.572692 0.407091,-0.890085 0.393294,-0.317394 1.083281,-0.317394 0.752088,0 1.117781,0.344994 0.11731,0.110403 0.172483,0.289793 0.0552,0.17939 0.06211,0.296697 0.007,0.110403 0.007,0.338092 0,0.2691 -0.0137,0.800388 -0.0137,0.52439 -0.0137,0.786584 0,0.193205 0.04829,0.276007 0.0552,0.0759 0.193204,0.0759 0.0552,0 0.144911,-0.02069 z m -0.945284,-1.379976 q -0.06211,0.04829 -0.131096,0.0828 -0.06899,0.03451 -0.17939,0.0552 -0.103495,0.02069 -0.14491,0.03451 -0.03451,0.007 -0.17939,0.02769 -0.144883,0.0137 -0.15179,0.0137 -0.213898,0.02769 -0.282894,0.04139 -0.06211,0.007 -0.248406,0.0552 -0.17939,0.04829 -0.255284,0.110403 -0.07589,0.06211 -0.15179,0.186297 -0.06899,0.11731 -0.06899,0.282894 0,0.276006 0.186297,0.434692 0.193204,0.158697 0.524389,0.158697 0.420895,0 0.752088,-0.248406 0.331194,-0.248406 0.331194,-0.58649 z"
         style="font-family:HelveticaNeueCyr;-inkscape-font-specification:HelveticaNeueCyr;stroke-width:0.739882"
         id="path13304" />
      <path
         d="m 48.63785,33.739481 h -0.58649 v -3.560339 h 2.95315 v 3.560339 H 50.418021 V 30.696633 H 48.63785 Z"
         style="font-family:HelveticaNeueCyr;-inkscape-font-specification:HelveticaNeueCyr;stroke-width:0.739882"
         id="path13306" />
      <path
         d="m 52.439682,30.179142 v 0.503691 q 0.386395,-0.614088 1.20058,-0.614088 0.745186,0 1.179878,0.503691 0.441593,0.50369 0.441593,1.366175 0,0.862485 -0.434691,1.379976 -0.427793,0.510592 -1.159182,0.510592 -0.765886,0 -1.193679,-0.58649 v 1.869866 h -0.586489 v -4.933413 z m 1.110882,0.379493 q -0.510592,0 -0.807286,0.372595 -0.289796,0.365693 -0.289796,1.014283 0,0.648586 0.296694,1.021181 0.303596,0.365693 0.821087,0.365693 0.503691,0 0.793486,-0.372595 0.289796,-0.372591 0.289796,-1.014279 0,-0.64859 -0.296697,-1.014283 -0.289793,-0.372595 -0.807284,-0.372595 z"
         style="font-family:HelveticaNeueCyr;-inkscape-font-specification:HelveticaNeueCyr;stroke-width:0.739882"
         id="path13308" />
      <path
         d="m 56.262219,30.586236 q 0.469191,-0.510592 1.276477,-0.510592 0.807286,0 1.255779,0.489893 0.448492,0.48989 0.448492,1.373074 0,0.903886 -0.448492,1.407576 -0.448493,0.503691 -1.262678,0.503691 -0.814185,0 -1.276477,-0.496792 -0.462293,-0.496792 -0.462293,-1.379976 0,-0.876285 0.469192,-1.386874 z m 2.076865,0.358794 q -0.296697,-0.379493 -0.814188,-0.379493 -0.517491,0 -0.821084,0.379493 -0.303596,0.379493 -0.303596,1.01428 0,0.655489 0.296694,1.028083 0.303596,0.365693 0.841786,0.365693 0.517491,0 0.807286,-0.372592 0.296695,-0.372594 0.296695,-1.028083 0,-0.634789 -0.303593,-1.007381 z"
         style="font-family:HelveticaNeueCyr;-inkscape-font-specification:HelveticaNeueCyr;stroke-width:0.739882"
         id="path13310" />
      <path
         d="m 63.003395,32.442302 q -0.07589,0.641691 -0.48989,1.021184 -0.407094,0.379493 -1.062583,0.379493 -0.807283,0 -1.248877,-0.496792 -0.441593,-0.50369 -0.441593,-1.338577 0,-0.890083 0.462292,-1.407574 0.462293,-0.524392 1.24888,-0.524392 0.655489,0 1.048779,0.331193 0.393294,0.324295 0.462293,0.931484 h -0.607189 q -0.158697,-0.772784 -0.896984,-0.772784 -0.510592,0 -0.807286,0.379493 -0.296695,0.372592 -0.296695,1.01428 0,0.64859 0.282894,1.021184 0.282897,0.372592 0.779689,0.372592 0.400192,0 0.648587,-0.234591 0.255285,-0.234592 0.324294,-0.676191 z"
         style="font-family:HelveticaNeueCyr;-inkscape-font-specification:HelveticaNeueCyr;stroke-width:0.739882"
         id="path13312" />
    </g>
    <rect
       style="fill:none;fill-opacity:0.572549;stroke:#000000;stroke-width:0.632862"
       id="rect3279"
       width="41.165371"
       height="21.951191"
       x="1.8183012"
       y="54.335186" />
    <g
       aria-label="Ответ"
       id="text3283"
       style="font-size:2.4674px;line-height:1.25;stroke-width:0.264582"
       transform="matrix(3.1643131,0,0,3.1643131,-102.15135,-20.419895)">
      <path
         d="m 36.87073,25.948107 q 0.399718,0 0.621784,0.251675 0.222066,0.249207 0.222066,0.653861 0,0.407121 -0.219598,0.671132 -0.219599,0.264012 -0.621785,0.264012 -0.204794,0 -0.367643,-0.07402 -0.162848,-0.07402 -0.266479,-0.204794 -0.101163,-0.130772 -0.155446,-0.298555 -0.05182,-0.167784 -0.05182,-0.362708 0,-0.412056 0.227,-0.656329 0.229469,-0.244272 0.611916,-0.244272 z m 0,0.202327 q -0.293621,0 -0.451535,0.207261 -0.155446,0.204794 -0.155446,0.508285 0,0.330631 0.165316,0.528023 0.167783,0.194925 0.446599,0.194925 0.276349,0 0.441665,-0.197392 0.165316,-0.197392 0.165316,-0.525556 0,-0.325697 -0.167783,-0.520622 -0.165316,-0.194924 -0.444132,-0.194924 z"
         style="font-family:HelveticaNeueCyr;-inkscape-font-specification:HelveticaNeueCyr"
         id="path13315" />
      <path
         d="m 38.943346,26.658718 h -0.456469 v 1.088123 h -0.209729 v -1.088123 h -0.456469 v -0.185055 h 1.122667 z"
         style="font-family:HelveticaNeueCyr;-inkscape-font-specification:HelveticaNeueCyr"
         id="path13317" />
      <path
         d="m 39.106193,27.746841 v -1.273178 h 0.589709 q 0.125837,0 0.214663,0.02221 0.08883,0.01974 0.155447,0.09129 0.06662,0.07156 0.06662,0.194925 0,0.187522 -0.187522,0.273881 v 0.0025 q 0.1135,0.02221 0.177653,0.106098 0.06415,0.08142 0.06415,0.207262 0,0.162848 -0.108565,0.268946 -0.108566,0.106098 -0.278817,0.106098 z m 0.567502,-0.759959 q 0.130772,0 0.185055,-0.04195 0.05675,-0.04441 0.05675,-0.128304 0,-0.08389 -0.05428,-0.12337 -0.05428,-0.03948 -0.187522,-0.03948 H 39.31099 v 0.333099 z m -0.362708,0.177653 v 0.402186 h 0.449067 q 0.0987,0 0.152979,-0.05922 0.05675,-0.05922 0.05675,-0.152979 0,-0.18999 -0.24674,-0.18999 z"
         style="font-family:HelveticaNeueCyr;-inkscape-font-specification:HelveticaNeueCyr"
         id="path13319" />
      <path
         d="m 41.524247,27.344655 q -0.09623,0.444132 -0.555165,0.444132 -0.281284,0 -0.441665,-0.175185 -0.157914,-0.175186 -0.157914,-0.486078 0,-0.308425 0.162849,-0.498415 0.165316,-0.192457 0.429328,-0.192457 0.29362,0 0.434262,0.199859 0.143109,0.197392 0.143109,0.500883 v 0.02961 H 40.5817 l -0.0025,0.0148 q 0,0.202327 0.106099,0.318294 0.106098,0.115968 0.291153,0.115968 0.138174,0 0.217131,-0.06415 0.08142,-0.06415 0.125838,-0.207262 z M 41.32192,26.996752 q -0.0148,-0.182588 -0.111033,-0.283751 -0.09623,-0.103631 -0.254142,-0.103631 -0.152979,0 -0.254143,0.103631 -0.101163,0.103631 -0.120902,0.283751 z"
         style="font-family:HelveticaNeueCyr;-inkscape-font-specification:HelveticaNeueCyr"
         id="path13321" />
      <path
         d="m 42.69133,26.658718 h -0.456469 v 1.088123 h -0.209729 v -1.088123 h -0.456469 v -0.185055 h 1.122667 z"
         style="font-family:HelveticaNeueCyr;-inkscape-font-specification:HelveticaNeueCyr"
         id="path13323" />
    </g>
    <g
       id="path3834"
       style="fill:#fcc501;fill-opacity:1"
       transform="matrix(1.1315599,0,0,1.1315599,-35.564572,-16.060519)">
      <path
         style="color:#000000;fill:#fcc501;fill-opacity:1"
         d="m 122.01367,51.552734 -13.13476,0.0078 v 0.740234 l 13.13476,-0.0078 z"
         id="path2860" />
      <g
         id="g2854"
         style="fill:#fcc501;fill-opacity:1">
        <path
           d="m 120.97605,49.851276 5.69856,2.067684 -5.69566,2.075665 c 1.035,-1.207476 1.03379,-2.932145 -0.003,-4.143349 z"
           style="fill:#fcc501;fill-opacity:1;fill-rule:evenodd;stroke-width:0.517919"
           id="path2856" />
      </g>
    </g>
    <g
       id="path3843"
       transform="matrix(1.1315599,0,0,1.1315599,-35.564572,-16.060519)"
       style="fill:#39cb00;fill-opacity:1">
      <path
         style="color:#000000;fill:#39cb00;fill-opacity:1"
         d="M 144.4707,3.2402344 C 136.3479,2.6713716 127.66253,3.8850238 119.20508,7.5976562 101.16976,15.514756 98.394531,37.035156 98.394531,37.035156 l 0.734375,0.0957 c 0,0 2.766934,-21.127875 20.375004,-28.8574215 22.24201,-9.7637484 46.13039,-1.9198329 56.70117,9.8359375 5.28539,5.877885 7.23703,12.65125 4.13281,18.761719 -3.10421,6.110469 -11.36972,11.651631 -26.76758,14.808593 l 0.14844,0.72461 c 15.5134,-3.180652 24.01569,-8.778849 27.27734,-15.199219 3.26165,-6.42037 1.17512,-13.567426 -4.24023,-19.589844 C 169.98667,10.087212 158.00871,4.188339 144.4707,3.2402344 Z"
         id="path2890" />
      <g
         id="g2884"
         style="fill:#39cb00;fill-opacity:1">
        <path
           d="m 100.94934,36.322567 -2.788624,5.382606 -1.320176,-5.916587 c 1.063192,1.182721 2.77348,1.404991 4.1088,0.533981 z"
           style="fill:#39cb00;fill-opacity:1;fill-rule:evenodd;stroke-width:0.517919"
           id="path2886" />
      </g>
    </g>
    <g
       id="path3845"
       transform="matrix(1.1315599,0,0,1.1315599,-35.564572,-16.060519)"
       style="fill:#39cb00;fill-opacity:1">
      <path
         style="color:#000000;fill:#39cb00;fill-opacity:1;-inkscape-stroke:none"
         d="M 143.29687,2.1835938 C 137.71664,1.9732001 131.90732,2.5942317 126.02148,4.2207031 100.23508,11.346425 98.478516,36.929687 98.478516,36.929687 l 0.736328,0.04883 c 0,0 1.646566,-25.037766 27.003906,-32.0449223 23.24757,-6.4241496 45.28578,3.0669148 56.3457,17.3457033 5.52997,7.139394 8.30902,15.459802 7.16211,23.58789 -1.1469,8.128089 -6.21007,16.096668 -16.5,22.556641 -4.73557,2.972974 -9.32149,4.659027 -12.91211,5.595703 -3.59062,0.936677 -6.22172,1.120754 -6.91601,1.103516 l -0.0176,0.740234 c 0.85679,0.02127 3.4696,-0.17635 7.12109,-1.128906 3.6515,-0.952556 8.30615,-2.663243 13.11719,-5.683594 10.42987,-6.547827 15.66203,-14.719114 16.8418,-23.080078 1.17976,-8.360963 -1.6836,-16.879925 -7.31055,-24.144531 -8.4404,-10.89691 -23.11278,-19.0113983 -39.8535,-19.6425792 z"
         id="path2900" />
      <g
         id="g2894"
         style="fill:#39cb00;fill-opacity:1">
        <path
           d="M 100.98313,36.059671 98.534161,41.605068 96.8491,35.781887 c 1.13459,1.114412 2.855379,1.230039 4.13403,0.277784 z"
           style="fill:#39cb00;fill-opacity:1;fill-rule:evenodd;stroke-width:0.517919"
           id="path2896" />
      </g>
    </g>
    <g
       id="path3847"
       style="fill:#39cb00;fill-opacity:1"
       transform="matrix(1.1315599,0,0,1.1315599,-35.564572,-16.060519)">
      <path
         style="color:#000000;fill:#39cb00;fill-opacity:1"
         d="M 134.88281,3.6210938 C 128.43618,3.9234112 122.1328,5.4529517 116.87891,8.7070313 99.257952,19.620838 98.376953,37.078125 98.376953,37.078125 l 0.740234,0.03516 c 0,0 0.819476,-17.043176 18.150393,-27.7773435 6.82203,-4.2253292 15.54319,-5.4936427 24.02344,-4.8886719 8.48024,0.6049708 16.71408,3.0831277 22.52734,6.2812504 2.90663,1.599061 5.20623,3.380973 6.62695,5.167968 1.42073,1.786996 1.95832,3.53748 1.46289,5.1875 -0.49542,1.650021 -2.06942,3.280795 -5.09375,4.708985 -3.02432,1.428189 -7.47386,2.637829 -13.60351,3.466797 l 0.0996,0.734375 c 6.17705,-0.835378 10.68903,-2.05255 13.82031,-3.53125 3.13128,-1.4787 4.90623,-3.233987 5.48633,-5.166016 0.58009,-1.932029 -0.079,-3.958498 -1.5918,-5.861328 -1.51282,-1.902831 -3.88464,-3.724312 -6.84961,-5.355469 -5.92994,-3.2623133 -14.243,-5.7583622 -22.83203,-6.3710936 -2.14726,-0.1531829 -4.31206,-0.1886631 -6.46094,-0.087891 z"
         id="path2880" />
      <g
         id="g2874"
         style="fill:#39cb00;fill-opacity:1">
        <path
           d="m 100.86733,36.163336 -2.349708,5.588178 -1.788615,-5.792212 c 1.154278,1.094006 2.876855,1.178935 4.138323,0.204034 z"
           style="fill:#39cb00;fill-opacity:1;fill-rule:evenodd;stroke-width:0.517919"
           id="path2876" />
      </g>
    </g>
    <g
       id="path4236"
       style="fill:#fcc501;fill-opacity:1"
       transform="matrix(1.1315599,0,0,1.1315599,-35.564572,-16.060519)">
      <path
         style="color:#000000;fill:#fcc501;fill-opacity:1"
         d="m 121.91797,29.351562 c -0.97379,0 -1.84388,0.385935 -2.59375,1.023438 -0.74987,0.637503 -1.392,1.522481 -1.97266,2.566406 -1.1613,2.08785 -2.07838,4.823032 -2.95898,7.544922 -0.88061,2.72189 -1.72571,5.43131 -2.69727,7.427734 -0.48577,0.998213 -1.00407,1.815464 -1.55078,2.363282 -0.54671,0.547817 -1.09707,0.825021 -1.71875,0.824218 v 0.740235 c 0.84993,0.0011 1.60489,-0.400469 2.24414,-1.041016 0.63925,-0.640546 1.18705,-1.522091 1.69336,-2.5625 1.01263,-2.080818 1.85557,-4.809058 2.73438,-7.52539 0.8788,-2.716333 1.79279,-5.420817 2.90039,-7.41211 0.5538,-0.995646 1.15505,-1.809041 1.80468,-2.361328 0.64964,-0.552287 1.33269,-0.847656 2.11524,-0.847656 0.0186,0 0.0382,0.0018 0.0566,0.002 l 0.004,-0.742188 c -0.0202,-1.54e-4 -0.04,0 -0.0606,0 z"
         id="path2870" />
      <g
         id="g2864"
         style="fill:#fcc501;fill-opacity:1">
        <path
           d="m 120.95501,27.639493 5.69001,2.118635 -5.72183,2.031124 c 1.04671,-1.200662 1.05995,-2.927999 0.0318,-4.149759 z"
           style="fill:#fcc501;fill-opacity:1;fill-rule:evenodd;stroke-width:0.518735"
           id="path2866" />
      </g>
    </g>
    <g
       id="path4267"
       style="fill:#ff0000;fill-opacity:1"
       transform="matrix(1.1315599,0,0,1.1315599,-35.564572,-16.060519)">
      <path
         style="color:#000000;fill:#ff0000;fill-opacity:1"
         d="m 69.572266,31.476562 -0.002,0.742188 c 6.181346,0.01493 14.152986,4.805136 20.5,11.222656 L 90.59761,42.919922 C 84.16362,36.414459 76.12873,31.492395 69.57222,31.476562 Z"
         id="path2840" />
      <g
         id="g2834"
         style="fill:#ff0000;fill-opacity:1">
        <path
           d="m 91.079018,40.983924 2.537178,5.516114 -5.48775,-2.597958 c 1.588893,-0.11227 2.817069,-1.326952 2.950572,-2.918156 z"
           style="fill:#ff0000;fill-opacity:1;fill-rule:evenodd;stroke-width:0.518735"
           id="path2836" />
      </g>
    </g>
    <g
       id="path4330"
       style="fill:#fcc501;fill-opacity:1"
       transform="matrix(1.1315599,0,0,1.1315599,-35.564572,-16.060519)">
      <path
         style="color:#000000;fill:#fcc501;fill-opacity:1"
         d="m 108.37891,51.992187 v 0.740235 c 0.62167,-8.03e-4 1.17204,0.276401 1.71875,0.824219 0.5467,0.547817 1.065,1.365069 1.55078,2.363281 0.97155,1.996424 1.81666,4.705844 2.69726,7.427734 0.88061,2.721891 1.79768,5.457072 2.95899,7.544922 0.58065,1.043925 1.22278,1.928904 1.97265,2.566406 0.74987,0.637503 1.62192,1.023438 2.59571,1.023438 0.0205,0 0.0404,1.56e-4 0.0605,0 l -0.006,-0.742188 c -0.0184,1.43e-4 -0.036,0.002 -0.0547,0.002 -0.78255,0 -1.46756,-0.295369 -2.11719,-0.847656 -0.64963,-0.552286 -1.25089,-1.365682 -1.80469,-2.361328 -1.1076,-1.991292 -2.02158,-4.695777 -2.90039,-7.412109 -0.8788,-2.716333 -1.72175,-5.444573 -2.73437,-7.525391 -0.50632,-1.040409 -1.05411,-1.921953 -1.69336,-2.5625 -0.63925,-0.640547 -1.39421,-1.042113 -2.24414,-1.041016 z"
         id="path2850" />
      <g
         id="g2844"
         style="fill:#fcc501;fill-opacity:1">
        <path
           d="m 120.87635,72.044737 5.72194,2.030827 -5.6899,2.118929 c 1.02811,-1.216625 1.01477,-2.943961 -0.032,-4.149756 z"
           style="fill:#fcc501;fill-opacity:1;fill-rule:evenodd;stroke-width:0.518735"
           id="path2846" />
      </g>
    </g>
    <rect
       style="fill:none;fill-opacity:0.572549;stroke:#000000;stroke-width:0.632862"
       id="rect3232"
       width="30.987829"
       height="16.396812"
       x="107.18643"
       y="34.481339" />
    <g
       aria-label="Локальный запрос 2"
       transform="matrix(3.1765695,0,0,3.1521041,-102.15135,-20.419895)"
       id="text3238"
       style="font-size:1.37047px;line-height:1.25;stroke-width:0.264582">
      <path
         d="m 68.088549,18.587919 v 0.975775 h -0.128824 v -0.863396 h -0.360433 l -0.01919,0.549558 q -0.0055,0.153493 -0.06304,0.243944 -0.05619,0.09045 -0.163085,0.09045 -0.04386,0 -0.09319,-0.01919 v -0.109637 q 0.02193,0.0137 0.06989,0.0137 0.03974,0 0.06304,-0.01782 0.02467,-0.01919 0.04248,-0.08497 0.01919,-0.06578 0.02193,-0.183643 l 0.01782,-0.594784 z"
         style="font-family:HelveticaNeueCyr;-inkscape-font-specification:HelveticaNeueCyr;text-align:center;text-anchor:middle"
         id="path13359" />
      <path
         d="m 68.343456,18.937389 q 0.09319,-0.101415 0.253537,-0.101415 0.160345,0 0.249426,0.0973 0.08908,0.0973 0.08908,0.272723 0,0.179532 -0.08908,0.279576 -0.08908,0.100045 -0.250796,0.100045 -0.161716,0 -0.253537,-0.09867 -0.09182,-0.09867 -0.09182,-0.274094 0,-0.17405 0.09319,-0.275465 z m 0.412512,0.07127 q -0.05893,-0.07538 -0.161716,-0.07538 -0.102785,0 -0.163086,0.07538 -0.0603,0.07538 -0.0603,0.201459 0,0.130194 0.05893,0.2042 0.0603,0.07264 0.167197,0.07264 0.102785,0 0.160345,-0.07401 0.05893,-0.074 0.05893,-0.2042 0,-0.126083 -0.0603,-0.200089 z"
         style="font-family:HelveticaNeueCyr;-inkscape-font-specification:HelveticaNeueCyr;text-align:center;text-anchor:middle"
         id="path13361" />
      <path
         d="m 69.707073,19.563694 h -0.148011 l -0.257648,-0.348099 -0.111008,0.108267 v 0.239832 h -0.11649 v -0.707163 h 0.11649 v 0.337136 l 0.323431,-0.337136 h 0.156233 l -0.285057,0.278206 z"
         style="font-family:HelveticaNeueCyr;-inkscape-font-specification:HelveticaNeueCyr;text-align:center;text-anchor:middle"
         id="path13363" />
      <path
         d="m 70.411493,19.470502 v 0.09045 q -0.03563,0.0137 -0.07949,0.0137 -0.100044,0 -0.102785,-0.104156 -0.100044,0.112379 -0.256278,0.112379 -0.104156,0 -0.165827,-0.05345 -0.0603,-0.05345 -0.0603,-0.14664 0,-0.189125 0.250796,-0.220646 0.148011,-0.01782 0.171309,-0.02604 0.04934,-0.01644 0.05345,-0.06852 0.0014,-0.0082 0.0014,-0.01782 0,-0.11649 -0.160345,-0.11649 -0.08223,0 -0.124713,0.03426 -0.04248,0.03289 -0.05071,0.109637 h -0.113749 q 0.0027,-0.113749 0.08086,-0.176791 0.07812,-0.06304 0.215163,-0.06304 0.149382,0 0.222017,0.06852 0.0233,0.02193 0.03426,0.05756 0.01096,0.03563 0.01233,0.05893 0.0014,0.02193 0.0014,0.06715 0,0.05345 -0.0027,0.158975 -0.0027,0.104156 -0.0027,0.156233 0,0.03837 0.0096,0.05482 0.01096,0.01508 0.03837,0.01508 0.01096,0 0.02878,-0.0041 z m -0.187754,-0.274094 q -0.01233,0.0096 -0.02604,0.01645 -0.01371,0.0069 -0.03563,0.01096 -0.02056,0.0041 -0.02878,0.0069 -0.0069,0.0014 -0.03563,0.0055 -0.02878,0.0027 -0.03015,0.0027 -0.04248,0.0055 -0.05619,0.0082 -0.01233,0.0014 -0.04934,0.01096 -0.03563,0.0096 -0.05071,0.02193 -0.01507,0.01233 -0.03015,0.037 -0.01371,0.0233 -0.01371,0.05619 0,0.05482 0.037,0.08634 0.03837,0.03152 0.104155,0.03152 0.0836,0 0.149381,-0.04934 0.06578,-0.04934 0.06578,-0.11649 z"
         style="font-family:HelveticaNeueCyr;-inkscape-font-specification:HelveticaNeueCyr;text-align:center;text-anchor:middle"
         id="path13365" />
      <path
         d="m 71.110434,18.856531 v 0.707163 h -0.11649 v -0.604377 h -0.252166 l -0.0096,0.312467 q -0.0041,0.161715 -0.05893,0.23435 -0.05482,0.07264 -0.137047,0.07264 -0.05071,0 -0.0836,-0.01507 v -0.09456 q 0.01782,0.0096 0.06167,0.0096 0.04111,0 0.06989,-0.04386 0.03015,-0.04523 0.03289,-0.150752 l 0.01233,-0.427587 z"
         style="font-family:HelveticaNeueCyr;-inkscape-font-specification:HelveticaNeueCyr;text-align:center;text-anchor:middle"
         id="path13367" />
      <path
         d="m 71.814855,19.185444 q 0.06304,0.05756 0.06304,0.157604 0,0.100045 -0.06167,0.160345 -0.0603,0.0603 -0.163086,0.0603 H 71.279001 V 18.85653 h 0.116489 v 0.269983 h 0.252167 q 0.104156,0 0.167197,0.05893 z m -0.2042,0.04111 h -0.215164 v 0.234351 h 0.215164 q 0.07127,0 0.108267,-0.03015 0.03837,-0.03152 0.03837,-0.08771 0,-0.11649 -0.146641,-0.11649 z"
         style="font-family:HelveticaNeueCyr;-inkscape-font-specification:HelveticaNeueCyr;text-align:center;text-anchor:middle"
         id="path13369" />
      <path
         d="m 72.110876,19.563694 h -0.11649 v -0.707163 h 0.11649 v 0.280947 h 0.353581 v -0.280947 h 0.11649 v 0.707163 h -0.11649 v -0.323431 h -0.353581 z"
         style="font-family:HelveticaNeueCyr;-inkscape-font-specification:HelveticaNeueCyr;text-align:center;text-anchor:middle"
         id="path13371" />
      <path
         d="m 73.430638,18.856531 h 0.11649 v 0.707163 h -0.11649 z m -0.17542,0.328913 q 0.06304,0.05756 0.06304,0.157604 0,0.100045 -0.06167,0.160345 -0.0603,0.0603 -0.163085,0.0603 H 72.752255 V 18.85653 h 0.11649 v 0.269983 h 0.219276 q 0.104155,0 0.167197,0.05893 z m -0.2042,0.04111 h -0.182273 v 0.234351 h 0.182273 q 0.07126,0 0.108267,-0.03015 0.03837,-0.03152 0.03837,-0.08771 0,-0.11649 -0.14664,-0.11649 z"
         style="font-family:HelveticaNeueCyr;-inkscape-font-specification:HelveticaNeueCyr;text-align:center;text-anchor:middle"
         id="path13373" />
      <path
         d="m 74.2214,18.587919 q -0.01371,0.08634 -0.06715,0.138418 -0.05208,0.05071 -0.138418,0.05071 -0.0836,0 -0.141158,-0.05208 -0.05619,-0.05345 -0.06715,-0.137047 h 0.06989 q 0.03152,0.106897 0.137047,0.106897 0.101415,0 0.137047,-0.106897 z m -0.350841,0.975775 h -0.149381 v -0.707163 h 0.11649 v 0.576968 h 0.0027 l 0.317949,-0.576968 h 0.149381 v 0.707163 h -0.11649 v -0.576968 h -0.0027 z"
         style="font-family:HelveticaNeueCyr;-inkscape-font-specification:HelveticaNeueCyr;text-align:center;text-anchor:middle"
         id="path13375" />
      <path
         d="m 68.045378,20.805517 q 0.0082,-0.120602 0.09182,-0.172679 0.0836,-0.05208 0.206941,-0.05208 0.11649,0 0.190495,0.04797 0.07538,0.04797 0.07538,0.142529 0,0.05756 -0.03426,0.09867 -0.03289,0.04111 -0.07949,0.05071 v 0.0027 q 0.05619,0.01096 0.09593,0.05619 0.04111,0.04386 0.04111,0.11923 0,0.109638 -0.08634,0.171309 -0.08634,0.0603 -0.206941,0.0603 -0.138418,0 -0.220646,-0.06304 -0.08086,-0.06441 -0.08634,-0.179531 h 0.117861 q 0.0055,0.074 0.05619,0.111008 0.05071,0.037 0.131565,0.037 0.08086,0 0.127454,-0.03837 0.0466,-0.03974 0.0466,-0.09593 0,-0.115119 -0.150752,-0.115119 h -0.0973 v -0.09456 h 0.07812 q 0.06715,0 0.108267,-0.02741 0.04111,-0.02878 0.04111,-0.08771 0,-0.04111 -0.04111,-0.07127 -0.03974,-0.03015 -0.108267,-0.03015 -0.06989,0 -0.121972,0.03152 -0.05071,0.03152 -0.05756,0.09867 z"
         style="font-family:HelveticaNeueCyr;-inkscape-font-specification:HelveticaNeueCyr;text-align:center;text-anchor:middle"
         id="path13377" />
      <path
         d="m 69.396661,21.215287 v 0.09045 q -0.03563,0.0137 -0.07949,0.0137 -0.100045,0 -0.102785,-0.104156 -0.100045,0.112379 -0.256278,0.112379 -0.104156,0 -0.165827,-0.05345 -0.0603,-0.05345 -0.0603,-0.146641 0,-0.189125 0.250796,-0.220645 0.148011,-0.01782 0.171309,-0.02604 0.04934,-0.01645 0.05345,-0.06852 0.0014,-0.0082 0.0014,-0.01782 0,-0.11649 -0.160345,-0.11649 -0.08223,0 -0.124713,0.03426 -0.04248,0.03289 -0.05071,0.109637 h -0.113749 q 0.0027,-0.113749 0.08086,-0.17679 0.07812,-0.06304 0.215164,-0.06304 0.149381,0 0.222016,0.06852 0.0233,0.02193 0.03426,0.05756 0.01096,0.03563 0.01233,0.05893 0.0014,0.02193 0.0014,0.06715 0,0.05345 -0.0027,0.158974 -0.0027,0.104156 -0.0027,0.156234 0,0.03837 0.0096,0.05482 0.01096,0.01507 0.03837,0.01507 0.01096,0 0.02878,-0.0041 z m -0.187754,-0.274094 q -0.01233,0.0096 -0.02604,0.01645 -0.01371,0.0069 -0.03563,0.01096 -0.02056,0.0041 -0.02878,0.0069 -0.0069,0.0014 -0.03563,0.0055 -0.02878,0.0027 -0.03015,0.0027 -0.04248,0.0055 -0.05619,0.0082 -0.01233,0.0014 -0.04934,0.01096 -0.03563,0.0096 -0.05071,0.02193 -0.01507,0.01233 -0.03015,0.037 -0.01371,0.0233 -0.01371,0.05619 0,0.05482 0.037,0.08634 0.03837,0.03152 0.104156,0.03152 0.0836,0 0.149381,-0.04934 0.06578,-0.04934 0.06578,-0.116489 z"
         style="font-family:HelveticaNeueCyr;-inkscape-font-specification:HelveticaNeueCyr;text-align:center;text-anchor:middle"
         id="path13379" />
      <path
         d="M 69.62279,21.308479 H 69.5063 v -0.707162 h 0.586561 v 0.707162 h -0.11649 V 20.704102 H 69.62279 Z"
         style="font-family:HelveticaNeueCyr;-inkscape-font-specification:HelveticaNeueCyr;text-align:center;text-anchor:middle"
         id="path13381" />
      <path
         d="m 70.377918,20.601317 v 0.100044 q 0.07675,-0.121972 0.238462,-0.121972 0.148011,0 0.23435,0.100045 0.08771,0.100044 0.08771,0.271353 0,0.171308 -0.08634,0.274094 -0.08497,0.101414 -0.230239,0.101414 -0.152122,0 -0.237091,-0.11649 v 0.371398 h -0.11649 v -0.979886 z m 0.220646,0.07538 q -0.101415,0 -0.160345,0.074 -0.05756,0.07264 -0.05756,0.201459 0,0.128824 0.05893,0.20283 0.0603,0.07264 0.163086,0.07264 0.100045,0 0.157604,-0.07401 0.05756,-0.074 0.05756,-0.201459 0,-0.128824 -0.05893,-0.201459 -0.05756,-0.074 -0.160345,-0.074 z"
         style="font-family:HelveticaNeueCyr;-inkscape-font-specification:HelveticaNeueCyr;text-align:center;text-anchor:middle"
         id="path13383" />
      <path
         d="m 71.137159,20.682175 q 0.09319,-0.101415 0.253537,-0.101415 0.160345,0 0.249426,0.0973 0.08908,0.0973 0.08908,0.272724 0,0.179531 -0.08908,0.279576 -0.08908,0.100044 -0.250796,0.100044 -0.161716,0 -0.253537,-0.09867 -0.09182,-0.09867 -0.09182,-0.274094 0,-0.17405 0.09319,-0.275464 z m 0.412512,0.07126 q -0.05893,-0.07538 -0.161716,-0.07538 -0.102785,0 -0.163086,0.07538 -0.0603,0.07538 -0.0603,0.201459 0,0.130195 0.05893,0.2042 0.0603,0.07263 0.167197,0.07263 0.102785,0 0.160345,-0.074 0.05893,-0.07401 0.05893,-0.2042 0,-0.126084 -0.0603,-0.200089 z"
         style="font-family:HelveticaNeueCyr;-inkscape-font-specification:HelveticaNeueCyr;text-align:center;text-anchor:middle"
         id="path13385" />
      <path
         d="m 72.476108,21.050831 q -0.01508,0.127454 -0.0973,0.20283 -0.08086,0.07537 -0.211052,0.07537 -0.160345,0 -0.248055,-0.09867 -0.08771,-0.100045 -0.08771,-0.265872 0,-0.17679 0.09182,-0.279576 0.09182,-0.104155 0.248055,-0.104155 0.130195,0 0.208312,0.06578 0.07812,0.06441 0.09182,0.185014 h -0.120601 q -0.03152,-0.153493 -0.178161,-0.153493 -0.101415,0 -0.160345,0.07538 -0.05893,0.074 -0.05893,0.201459 0,0.128824 0.05619,0.20283 0.05619,0.074 0.154863,0.074 0.07949,0 0.128824,-0.0466 0.05071,-0.0466 0.06441,-0.134306 z"
         style="font-family:HelveticaNeueCyr;-inkscape-font-specification:HelveticaNeueCyr;text-align:center;text-anchor:middle"
         id="path13387" />
      <path
         d="m 73.564261,21.202953 v 0.105526 h -0.633157 q 0.0041,-0.08086 0.02467,-0.141158 0.02056,-0.0603 0.06304,-0.108267 0.04385,-0.04934 0.08497,-0.08086 0.04111,-0.03152 0.11649,-0.07812 0.117861,-0.07401 0.154863,-0.111008 0.07675,-0.07538 0.07675,-0.167197 0,-0.08086 -0.05208,-0.131565 -0.05208,-0.05208 -0.135677,-0.05208 -0.100044,0 -0.143899,0.06989 -0.04248,0.06852 -0.04523,0.17405 h -0.11786 v -0.02604 q 0,-0.1439 0.08497,-0.23161 0.08634,-0.08771 0.227498,-0.08771 0.138418,0 0.220646,0.07675 0.08223,0.07675 0.08223,0.205571 0,0.05482 -0.01919,0.104156 -0.01782,0.04797 -0.04112,0.08086 -0.02193,0.03289 -0.06852,0.06989 -0.04523,0.037 -0.07538,0.05756 -0.03015,0.01919 -0.08634,0.05345 -0.112378,0.06715 -0.149381,0.104156 -0.05208,0.05071 -0.06715,0.113749 z"
         style="font-family:HelveticaNeueCyr;-inkscape-font-specification:HelveticaNeueCyr;text-align:center;text-anchor:middle"
         id="path13389" />
    </g>
    <rect
       style="fill:none;fill-opacity:0.572549;stroke:#000000;stroke-width:0.632862"
       id="rect3240"
       width="30.987829"
       height="16.396812"
       x="107.18643"
       y="59.889576" />
    <g
       aria-label="Локальный запрос Х"
       transform="matrix(3.1765695,0,0,3.1521041,-102.15135,-20.419895)"
       id="text3246"
       style="font-size:1.37047px;line-height:1.25;stroke-width:0.264582">
      <path
         d="m 68.088549,26.64864 v 0.975774 h -0.128824 v -0.863396 h -0.360433 l -0.01919,0.549559 q -0.0055,0.153492 -0.06304,0.243943 -0.05619,0.09045 -0.163085,0.09045 -0.04386,0 -0.09319,-0.01919 v -0.109638 q 0.02193,0.01371 0.06989,0.01371 0.03974,0 0.06304,-0.01782 0.02467,-0.01919 0.04248,-0.08497 0.01919,-0.06578 0.02193,-0.183643 l 0.01782,-0.594784 z"
         style="font-family:HelveticaNeueCyr;-inkscape-font-specification:HelveticaNeueCyr;text-align:center;text-anchor:middle"
         id="path13326" />
      <path
         d="m 68.343456,26.99811 q 0.09319,-0.101415 0.253537,-0.101415 0.160345,0 0.249426,0.0973 0.08908,0.0973 0.08908,0.272724 0,0.179531 -0.08908,0.279576 -0.08908,0.100044 -0.250796,0.100044 -0.161716,0 -0.253537,-0.09867 -0.09182,-0.09867 -0.09182,-0.274094 0,-0.17405 0.09319,-0.275464 z m 0.412512,0.07126 q -0.05893,-0.07538 -0.161716,-0.07538 -0.102785,0 -0.163086,0.07538 -0.0603,0.07538 -0.0603,0.201459 0,0.130195 0.05893,0.2042 0.0603,0.07264 0.167197,0.07264 0.102785,0 0.160345,-0.07401 0.05893,-0.07401 0.05893,-0.2042 0,-0.126084 -0.0603,-0.200089 z"
         style="font-family:HelveticaNeueCyr;-inkscape-font-specification:HelveticaNeueCyr;text-align:center;text-anchor:middle"
         id="path13328" />
      <path
         d="m 69.707073,27.624414 h -0.148011 l -0.257648,-0.348099 -0.111008,0.108267 v 0.239832 h -0.11649 v -0.707162 h 0.11649 v 0.337136 l 0.323431,-0.337136 h 0.156233 l -0.285057,0.278205 z"
         style="font-family:HelveticaNeueCyr;-inkscape-font-specification:HelveticaNeueCyr;text-align:center;text-anchor:middle"
         id="path13330" />
      <path
         d="m 70.411493,27.531222 v 0.09045 q -0.03563,0.0137 -0.07949,0.0137 -0.100044,0 -0.102785,-0.104156 -0.100044,0.112379 -0.256278,0.112379 -0.104156,0 -0.165827,-0.05345 -0.0603,-0.05345 -0.0603,-0.146641 0,-0.189124 0.250796,-0.220645 0.148011,-0.01782 0.171309,-0.02604 0.04934,-0.01645 0.05345,-0.06852 0.0014,-0.0082 0.0014,-0.01782 0,-0.11649 -0.160345,-0.11649 -0.08223,0 -0.124713,0.03426 -0.04248,0.03289 -0.05071,0.109638 h -0.113749 q 0.0027,-0.113749 0.08086,-0.176791 0.07812,-0.06304 0.215163,-0.06304 0.149382,0 0.222017,0.06852 0.0233,0.02193 0.03426,0.05756 0.01096,0.03563 0.01233,0.05893 0.0014,0.02193 0.0014,0.06715 0,0.05345 -0.0027,0.158974 -0.0027,0.104156 -0.0027,0.156234 0,0.03837 0.0096,0.05482 0.01096,0.01507 0.03837,0.01507 0.01096,0 0.02878,-0.0041 z m -0.187754,-0.274094 q -0.01233,0.0096 -0.02604,0.01645 -0.01371,0.0069 -0.03563,0.01096 -0.02056,0.0041 -0.02878,0.0069 -0.0069,0.0014 -0.03563,0.0055 -0.02878,0.0027 -0.03015,0.0027 -0.04248,0.0055 -0.05619,0.0082 -0.01233,0.0014 -0.04934,0.01096 -0.03563,0.0096 -0.05071,0.02193 -0.01507,0.01233 -0.03015,0.037 -0.01371,0.0233 -0.01371,0.05619 0,0.05482 0.037,0.08634 0.03837,0.03152 0.104155,0.03152 0.0836,0 0.149381,-0.04934 0.06578,-0.04934 0.06578,-0.11649 z"
         style="font-family:HelveticaNeueCyr;-inkscape-font-specification:HelveticaNeueCyr;text-align:center;text-anchor:middle"
         id="path13332" />
      <path
         d="m 71.110434,26.917252 v 0.707162 h -0.11649 v -0.604377 h -0.252166 l -0.0096,0.312467 q -0.0041,0.161716 -0.05893,0.234351 -0.05482,0.07263 -0.137047,0.07263 -0.05071,0 -0.0836,-0.01508 v -0.09456 q 0.01782,0.0096 0.06167,0.0096 0.04111,0 0.06989,-0.04386 0.03015,-0.04522 0.03289,-0.150751 l 0.01233,-0.427587 z"
         style="font-family:HelveticaNeueCyr;-inkscape-font-specification:HelveticaNeueCyr;text-align:center;text-anchor:middle"
         id="path13334" />
      <path
         d="m 71.814855,27.246165 q 0.06304,0.05756 0.06304,0.157604 0,0.100044 -0.06167,0.160345 -0.0603,0.0603 -0.163086,0.0603 h -0.374138 v -0.707162 h 0.116489 v 0.269982 h 0.252167 q 0.104156,0 0.167197,0.05893 z m -0.2042,0.04111 h -0.215164 v 0.23435 h 0.215164 q 0.07127,0 0.108267,-0.03015 0.03837,-0.03152 0.03837,-0.08771 0,-0.11649 -0.146641,-0.11649 z"
         style="font-family:HelveticaNeueCyr;-inkscape-font-specification:HelveticaNeueCyr;text-align:center;text-anchor:middle"
         id="path13336" />
      <path
         d="m 72.110876,27.624414 h -0.11649 v -0.707162 h 0.11649 v 0.280946 h 0.353581 v -0.280946 h 0.11649 v 0.707162 h -0.11649 v -0.32343 h -0.353581 z"
         style="font-family:HelveticaNeueCyr;-inkscape-font-specification:HelveticaNeueCyr;text-align:center;text-anchor:middle"
         id="path13338" />
      <path
         d="m 73.430638,26.917252 h 0.11649 v 0.707162 h -0.11649 z m -0.17542,0.328913 q 0.06304,0.05756 0.06304,0.157604 0,0.100044 -0.06167,0.160345 -0.0603,0.0603 -0.163085,0.0603 h -0.341248 v -0.707162 h 0.11649 v 0.269982 h 0.219276 q 0.104155,0 0.167197,0.05893 z m -0.2042,0.04111 h -0.182273 v 0.23435 h 0.182273 q 0.07126,0 0.108267,-0.03015 0.03837,-0.03152 0.03837,-0.08771 0,-0.11649 -0.14664,-0.11649 z"
         style="font-family:HelveticaNeueCyr;-inkscape-font-specification:HelveticaNeueCyr;text-align:center;text-anchor:middle"
         id="path13340" />
      <path
         d="m 74.2214,26.64864 q -0.01371,0.08634 -0.06715,0.138417 -0.05208,0.05071 -0.138418,0.05071 -0.0836,0 -0.141158,-0.05208 -0.05619,-0.05345 -0.06715,-0.137047 h 0.06989 q 0.03152,0.106896 0.137047,0.106896 0.101415,0 0.137047,-0.106896 z m -0.350841,0.975774 h -0.149381 v -0.707162 h 0.11649 v 0.576968 h 0.0027 l 0.317949,-0.576968 h 0.149381 v 0.707162 h -0.11649 v -0.576967 h -0.0027 z"
         style="font-family:HelveticaNeueCyr;-inkscape-font-specification:HelveticaNeueCyr;text-align:center;text-anchor:middle"
         id="path13342" />
      <path
         d="m 68.007689,28.866237 q 0.0082,-0.120601 0.09182,-0.172679 0.0836,-0.05208 0.206941,-0.05208 0.11649,0 0.190495,0.04797 0.07538,0.04797 0.07538,0.142528 0,0.05756 -0.03426,0.09867 -0.03289,0.04111 -0.07949,0.05071 v 0.0027 q 0.05619,0.01096 0.09593,0.05619 0.04111,0.04386 0.04111,0.119231 0,0.109637 -0.08634,0.171309 -0.08634,0.0603 -0.20694,0.0603 -0.138418,0 -0.220646,-0.06304 -0.08086,-0.06441 -0.08634,-0.179532 h 0.117861 q 0.0055,0.074 0.05619,0.111008 0.05071,0.037 0.131565,0.037 0.08086,0 0.127454,-0.03837 0.0466,-0.03974 0.0466,-0.09593 0,-0.11512 -0.150752,-0.11512 h -0.0973 v -0.09456 h 0.07812 q 0.06715,0 0.108268,-0.02741 0.04111,-0.02878 0.04111,-0.08771 0,-0.04111 -0.04111,-0.07126 -0.03974,-0.03015 -0.108268,-0.03015 -0.06989,0 -0.121971,0.03152 -0.05071,0.03152 -0.05756,0.09867 z"
         style="font-family:HelveticaNeueCyr;-inkscape-font-specification:HelveticaNeueCyr;text-align:center;text-anchor:middle"
         id="path13344" />
      <path
         d="m 69.358973,29.276008 v 0.09045 q -0.03563,0.01371 -0.07949,0.01371 -0.100045,0 -0.102786,-0.104156 -0.100044,0.112378 -0.256277,0.112378 -0.104156,0 -0.165827,-0.05345 -0.0603,-0.05345 -0.0603,-0.14664 0,-0.189125 0.250796,-0.220646 0.148011,-0.01782 0.171309,-0.02604 0.04934,-0.01645 0.05345,-0.06852 0.0014,-0.0082 0.0014,-0.01782 0,-0.116489 -0.160345,-0.116489 -0.08223,0 -0.124713,0.03426 -0.04248,0.03289 -0.05071,0.109638 h -0.113749 q 0.0027,-0.113749 0.08086,-0.176791 0.07812,-0.06304 0.215164,-0.06304 0.149381,0 0.222016,0.06852 0.0233,0.02193 0.03426,0.05756 0.01096,0.03563 0.01233,0.05893 0.0014,0.02193 0.0014,0.06715 0,0.05345 -0.0027,0.158975 -0.0027,0.104155 -0.0027,0.156233 0,0.03837 0.0096,0.05482 0.01096,0.01507 0.03837,0.01507 0.01096,0 0.02878,-0.0041 z m -0.187754,-0.274094 q -0.01233,0.0096 -0.02604,0.01645 -0.01371,0.0069 -0.03563,0.01096 -0.02056,0.0041 -0.02878,0.0069 -0.0069,0.0014 -0.03563,0.0055 -0.02878,0.0027 -0.03015,0.0027 -0.04248,0.0055 -0.05619,0.0082 -0.01234,0.0014 -0.04934,0.01096 -0.03563,0.0096 -0.05071,0.02193 -0.01507,0.01234 -0.03015,0.037 -0.01371,0.0233 -0.01371,0.05619 0,0.05482 0.037,0.08634 0.03837,0.03152 0.104156,0.03152 0.0836,0 0.149381,-0.04934 0.06578,-0.04934 0.06578,-0.11649 z"
         style="font-family:HelveticaNeueCyr;-inkscape-font-specification:HelveticaNeueCyr;text-align:center;text-anchor:middle"
         id="path13346" />
      <path
         d="m 69.585101,29.3692 h -0.11649 v -0.707163 h 0.586562 V 29.3692 h -0.11649 v -0.604378 h -0.353582 z"
         style="font-family:HelveticaNeueCyr;-inkscape-font-specification:HelveticaNeueCyr;text-align:center;text-anchor:middle"
         id="path13348" />
      <path
         d="m 70.34023,28.662037 v 0.100045 q 0.07675,-0.121972 0.238462,-0.121972 0.148011,0 0.23435,0.100044 0.08771,0.100044 0.08771,0.271353 0,0.171309 -0.08634,0.274094 -0.08497,0.101415 -0.230239,0.101415 -0.152122,0 -0.237092,-0.11649 v 0.371397 h -0.11649 v -0.979886 z m 0.220646,0.07538 q -0.101415,0 -0.160345,0.074 -0.05756,0.07264 -0.05756,0.20146 0,0.128824 0.05893,0.202829 0.0603,0.07264 0.163086,0.07264 0.100044,0 0.157604,-0.074 0.05756,-0.07401 0.05756,-0.201459 0,-0.128825 -0.05893,-0.20146 -0.05756,-0.074 -0.160345,-0.074 z"
         style="font-family:HelveticaNeueCyr;-inkscape-font-specification:HelveticaNeueCyr;text-align:center;text-anchor:middle"
         id="path13350" />
      <path
         d="m 71.099471,28.742895 q 0.09319,-0.101415 0.253537,-0.101415 0.160345,0 0.249426,0.0973 0.08908,0.0973 0.08908,0.272723 0,0.179532 -0.08908,0.279576 -0.08908,0.100044 -0.250797,0.100044 -0.161715,0 -0.253536,-0.09867 -0.09182,-0.09867 -0.09182,-0.274094 0,-0.174049 0.09319,-0.275464 z m 0.412511,0.07126 q -0.05893,-0.07538 -0.161715,-0.07538 -0.102785,0 -0.163086,0.07538 -0.0603,0.07538 -0.0603,0.201459 0,0.130195 0.05893,0.204201 0.0603,0.07263 0.167197,0.07263 0.102785,0 0.160345,-0.074 0.05893,-0.074 0.05893,-0.2042 0,-0.126083 -0.0603,-0.200089 z"
         style="font-family:HelveticaNeueCyr;-inkscape-font-specification:HelveticaNeueCyr;text-align:center;text-anchor:middle"
         id="path13352" />
      <path
         d="m 72.438419,29.111551 q -0.01507,0.127454 -0.0973,0.20283 -0.08086,0.07538 -0.211052,0.07538 -0.160345,0 -0.248055,-0.09867 -0.08771,-0.100044 -0.08771,-0.265871 0,-0.176791 0.09182,-0.279576 0.09182,-0.104156 0.248055,-0.104156 0.130195,0 0.208312,0.06578 0.07812,0.06441 0.09182,0.185013 h -0.120601 q -0.03152,-0.153492 -0.178161,-0.153492 -0.101415,0 -0.160345,0.07538 -0.05893,0.07401 -0.05893,0.201459 0,0.128825 0.05619,0.20283 0.05619,0.074 0.154863,0.074 0.07949,0 0.128824,-0.0466 0.05071,-0.0466 0.06441,-0.134306 z"
         style="font-family:HelveticaNeueCyr;-inkscape-font-specification:HelveticaNeueCyr;text-align:center;text-anchor:middle"
         id="path13354" />
      <path
         d="M 73.674584,28.393425 73.349783,28.866237 73.6924,29.3692 h -0.156234 l -0.26313,-0.401548 -0.272723,0.401548 h -0.148011 l 0.343988,-0.502963 -0.322061,-0.472812 h 0.154864 l 0.245314,0.375509 0.253537,-0.375509 z"
         style="font-family:HelveticaNeueCyr;-inkscape-font-specification:HelveticaNeueCyr;text-align:center;text-anchor:middle"
         id="path13356" />
    </g>
    <rect
       style="fill:none;fill-opacity:0.572549;stroke:#000000;stroke-width:0.632862"
       id="rect3248"
       width="30.987829"
       height="16.396812"
       x="107.18643"
       y="9.0731115" />
    <g
       aria-label="Локальный запрос 1"
       transform="matrix(3.1765695,0,0,3.1521041,-102.15135,-20.419895)"
       id="text3254"
       style="font-size:1.37047px;line-height:1.25;stroke-width:0.264582">
      <path
         d="m 68.088549,10.527198 v 0.975775 h -0.128824 v -0.863397 h -0.360433 l -0.01919,0.549559 q -0.0055,0.153493 -0.06304,0.243944 -0.05619,0.09045 -0.163085,0.09045 -0.04386,0 -0.09319,-0.01919 v -0.109638 q 0.02193,0.0137 0.06989,0.0137 0.03974,0 0.06304,-0.01782 0.02467,-0.01919 0.04248,-0.08497 0.01919,-0.06578 0.02193,-0.183643 l 0.01782,-0.594784 z"
         style="font-family:HelveticaNeueCyr;-inkscape-font-specification:HelveticaNeueCyr;text-align:center;text-anchor:middle"
         id="path13392" />
      <path
         d="m 68.343456,10.876668 q 0.09319,-0.101415 0.253537,-0.101415 0.160345,0 0.249426,0.0973 0.08908,0.0973 0.08908,0.272724 0,0.179531 -0.08908,0.279576 -0.08908,0.100044 -0.250796,0.100044 -0.161716,0 -0.253537,-0.09867 -0.09182,-0.09867 -0.09182,-0.274094 0,-0.174049 0.09319,-0.275464 z m 0.412512,0.07126 q -0.05893,-0.07538 -0.161716,-0.07538 -0.102785,0 -0.163086,0.07538 -0.0603,0.07538 -0.0603,0.201459 0,0.130195 0.05893,0.2042 0.0603,0.07264 0.167197,0.07264 0.102785,0 0.160345,-0.074 0.05893,-0.074 0.05893,-0.2042 0,-0.126083 -0.0603,-0.200089 z"
         style="font-family:HelveticaNeueCyr;-inkscape-font-specification:HelveticaNeueCyr;text-align:center;text-anchor:middle"
         id="path13394" />
      <path
         d="m 69.707073,11.502973 h -0.148011 l -0.257648,-0.3481 -0.111008,0.108267 v 0.239833 h -0.11649 V 10.79581 h 0.11649 v 0.337136 l 0.323431,-0.337136 h 0.156233 l -0.285057,0.278205 z"
         style="font-family:HelveticaNeueCyr;-inkscape-font-specification:HelveticaNeueCyr;text-align:center;text-anchor:middle"
         id="path13396" />
      <path
         d="m 70.411493,11.409781 v 0.09045 q -0.03563,0.0137 -0.07949,0.0137 -0.100044,0 -0.102785,-0.104155 -0.100044,0.112378 -0.256278,0.112378 -0.104156,0 -0.165827,-0.05345 -0.0603,-0.05345 -0.0603,-0.14664 0,-0.189125 0.250796,-0.220646 0.148011,-0.01782 0.171309,-0.02604 0.04934,-0.01645 0.05345,-0.06852 0.0014,-0.0082 0.0014,-0.01782 0,-0.11649 -0.160345,-0.11649 -0.08223,0 -0.124713,0.03426 -0.04248,0.03289 -0.05071,0.109638 h -0.113749 q 0.0027,-0.113749 0.08086,-0.176791 0.07812,-0.06304 0.215163,-0.06304 0.149382,0 0.222017,0.06852 0.0233,0.02193 0.03426,0.05756 0.01096,0.03563 0.01233,0.05893 0.0014,0.02193 0.0014,0.06715 0,0.05345 -0.0027,0.158974 -0.0027,0.104156 -0.0027,0.156234 0,0.03837 0.0096,0.05482 0.01096,0.01508 0.03837,0.01508 0.01096,0 0.02878,-0.0041 z m -0.187754,-0.274094 q -0.01233,0.0096 -0.02604,0.01644 -0.01371,0.0069 -0.03563,0.01096 -0.02056,0.0041 -0.02878,0.0069 -0.0069,0.0014 -0.03563,0.0055 -0.02878,0.0027 -0.03015,0.0027 -0.04248,0.0055 -0.05619,0.0082 -0.01233,0.0014 -0.04934,0.01096 -0.03563,0.0096 -0.05071,0.02193 -0.01507,0.01234 -0.03015,0.037 -0.01371,0.0233 -0.01371,0.05619 0,0.05482 0.037,0.08634 0.03837,0.03152 0.104155,0.03152 0.0836,0 0.149381,-0.04934 0.06578,-0.04934 0.06578,-0.11649 z"
         style="font-family:HelveticaNeueCyr;-inkscape-font-specification:HelveticaNeueCyr;text-align:center;text-anchor:middle"
         id="path13398" />
      <path
         d="m 71.110434,10.79581 v 0.707163 h -0.11649 v -0.604378 h -0.252166 l -0.0096,0.312467 q -0.0041,0.161716 -0.05893,0.234351 -0.05482,0.07264 -0.137047,0.07264 -0.05071,0 -0.0836,-0.01507 v -0.09456 q 0.01782,0.0096 0.06167,0.0096 0.04111,0 0.06989,-0.04386 0.03015,-0.04523 0.03289,-0.150751 l 0.01233,-0.427587 z"
         style="font-family:HelveticaNeueCyr;-inkscape-font-specification:HelveticaNeueCyr;text-align:center;text-anchor:middle"
         id="path13400" />
      <path
         d="m 71.814855,11.124723 q 0.06304,0.05756 0.06304,0.157604 0,0.100044 -0.06167,0.160345 -0.0603,0.0603 -0.163086,0.0603 H 71.279002 V 10.79581 h 0.116489 v 0.269983 h 0.252167 q 0.104156,0 0.167197,0.05893 z m -0.2042,0.04111 h -0.215164 v 0.23435 h 0.215164 q 0.07127,0 0.108267,-0.03015 0.03837,-0.03152 0.03837,-0.08771 0,-0.11649 -0.146641,-0.11649 z"
         style="font-family:HelveticaNeueCyr;-inkscape-font-specification:HelveticaNeueCyr;text-align:center;text-anchor:middle"
         id="path13402" />
      <path
         d="m 72.110876,11.502973 h -0.11649 V 10.79581 h 0.11649 v 0.280946 h 0.353581 V 10.79581 h 0.11649 v 0.707163 h -0.11649 v -0.323431 h -0.353581 z"
         style="font-family:HelveticaNeueCyr;-inkscape-font-specification:HelveticaNeueCyr;text-align:center;text-anchor:middle"
         id="path13404" />
      <path
         d="m 73.430638,10.79581 h 0.11649 v 0.707163 h -0.11649 z m -0.17542,0.328913 q 0.06304,0.05756 0.06304,0.157604 0,0.100044 -0.06167,0.160345 -0.0603,0.0603 -0.163085,0.0603 H 72.752255 V 10.79581 h 0.11649 v 0.269983 h 0.219276 q 0.104155,0 0.167197,0.05893 z m -0.2042,0.04111 h -0.182273 v 0.23435 h 0.182273 q 0.07126,0 0.108267,-0.03015 0.03837,-0.03152 0.03837,-0.08771 0,-0.11649 -0.14664,-0.11649 z"
         style="font-family:HelveticaNeueCyr;-inkscape-font-specification:HelveticaNeueCyr;text-align:center;text-anchor:middle"
         id="path13406" />
      <path
         d="m 74.2214,10.527198 q -0.01371,0.08634 -0.06715,0.138417 -0.05208,0.05071 -0.138418,0.05071 -0.0836,0 -0.141158,-0.05208 -0.05619,-0.05345 -0.06715,-0.137047 h 0.06989 q 0.03152,0.106897 0.137047,0.106897 0.101415,0 0.137047,-0.106897 z m -0.350841,0.975775 H 73.721178 V 10.79581 h 0.11649 v 0.576968 h 0.0027 l 0.317949,-0.576968 h 0.149381 v 0.707163 h -0.11649 v -0.576968 h -0.0027 z"
         style="font-family:HelveticaNeueCyr;-inkscape-font-specification:HelveticaNeueCyr;text-align:center;text-anchor:middle"
         id="path13408" />
      <path
         d="m 68.045378,12.744795 q 0.0082,-0.120601 0.09182,-0.172679 0.0836,-0.05208 0.206941,-0.05208 0.11649,0 0.190495,0.04797 0.07538,0.04797 0.07538,0.142529 0,0.05756 -0.03426,0.09867 -0.03289,0.04111 -0.07949,0.05071 v 0.0027 q 0.05619,0.01096 0.09593,0.05619 0.04111,0.04386 0.04111,0.119231 0,0.109638 -0.08634,0.171309 -0.08634,0.0603 -0.206941,0.0603 -0.138418,0 -0.220646,-0.06304 -0.08086,-0.06441 -0.08634,-0.179532 h 0.117861 q 0.0055,0.07401 0.05619,0.111008 0.05071,0.037 0.131565,0.037 0.08086,0 0.127454,-0.03837 0.0466,-0.03974 0.0466,-0.09593 0,-0.11512 -0.150752,-0.11512 h -0.0973 v -0.09456 h 0.07812 q 0.06715,0 0.108267,-0.02741 0.04111,-0.02878 0.04111,-0.08771 0,-0.04111 -0.04111,-0.07127 -0.03974,-0.03015 -0.108267,-0.03015 -0.06989,0 -0.121972,0.03152 -0.05071,0.03152 -0.05756,0.09867 z"
         style="font-family:HelveticaNeueCyr;-inkscape-font-specification:HelveticaNeueCyr;text-align:center;text-anchor:middle"
         id="path13410" />
      <path
         d="m 69.396661,13.154566 v 0.09045 q -0.03563,0.0137 -0.07949,0.0137 -0.100045,0 -0.102785,-0.104156 -0.100045,0.112378 -0.256278,0.112378 -0.104156,0 -0.165827,-0.05345 -0.0603,-0.05345 -0.0603,-0.14664 0,-0.189125 0.250796,-0.220646 0.148011,-0.01782 0.171309,-0.02604 0.04934,-0.01645 0.05345,-0.06852 0.0014,-0.0082 0.0014,-0.01782 0,-0.11649 -0.160345,-0.11649 -0.08223,0 -0.124713,0.03426 -0.04248,0.03289 -0.05071,0.109638 h -0.113749 q 0.0027,-0.113749 0.08086,-0.176791 0.07812,-0.06304 0.215164,-0.06304 0.149381,0 0.222016,0.06852 0.0233,0.02193 0.03426,0.05756 0.01096,0.03563 0.01233,0.05893 0.0014,0.02193 0.0014,0.06715 0,0.05345 -0.0027,0.158975 -0.0027,0.104156 -0.0027,0.156233 0,0.03837 0.0096,0.05482 0.01096,0.01508 0.03837,0.01508 0.01096,0 0.02878,-0.0041 z m -0.187754,-0.274094 q -0.01233,0.0096 -0.02604,0.01645 -0.01371,0.0069 -0.03563,0.01096 -0.02056,0.0041 -0.02878,0.0069 -0.0069,0.0014 -0.03563,0.0055 -0.02878,0.0027 -0.03015,0.0027 -0.04248,0.0055 -0.05619,0.0082 -0.01233,0.0014 -0.04934,0.01096 -0.03563,0.0096 -0.05071,0.02193 -0.01507,0.01233 -0.03015,0.037 -0.01371,0.0233 -0.01371,0.05619 0,0.05482 0.037,0.08634 0.03837,0.03152 0.104156,0.03152 0.0836,0 0.149381,-0.04934 0.06578,-0.04934 0.06578,-0.11649 z"
         style="font-family:HelveticaNeueCyr;-inkscape-font-specification:HelveticaNeueCyr;text-align:center;text-anchor:middle"
         id="path13412" />
      <path
         d="M 69.62279,13.247758 H 69.5063 v -0.707163 h 0.586561 v 0.707163 h -0.11649 V 12.643381 H 69.62279 Z"
         style="font-family:HelveticaNeueCyr;-inkscape-font-specification:HelveticaNeueCyr;text-align:center;text-anchor:middle"
         id="path13414" />
      <path
         d="m 70.377918,12.540595 v 0.100045 q 0.07675,-0.121972 0.238462,-0.121972 0.148011,0 0.23435,0.100044 0.08771,0.100044 0.08771,0.271353 0,0.171309 -0.08634,0.274094 -0.08497,0.101415 -0.230239,0.101415 -0.152122,0 -0.237091,-0.11649 v 0.371397 h -0.11649 v -0.979886 z m 0.220646,0.07538 q -0.101415,0 -0.160345,0.07401 -0.05756,0.07264 -0.05756,0.201459 0,0.128824 0.05893,0.202829 0.0603,0.07264 0.163086,0.07264 0.100045,0 0.157604,-0.074 0.05756,-0.07401 0.05756,-0.201459 0,-0.128824 -0.05893,-0.201459 -0.05756,-0.07401 -0.160345,-0.07401 z"
         style="font-family:HelveticaNeueCyr;-inkscape-font-specification:HelveticaNeueCyr;text-align:center;text-anchor:middle"
         id="path13416" />
      <path
         d="m 71.137159,12.621453 q 0.09319,-0.101415 0.253537,-0.101415 0.160345,0 0.249426,0.0973 0.08908,0.0973 0.08908,0.272723 0,0.179532 -0.08908,0.279576 -0.08908,0.100044 -0.250796,0.100044 -0.161716,0 -0.253537,-0.09867 -0.09182,-0.09867 -0.09182,-0.274094 0,-0.17405 0.09319,-0.275464 z m 0.412512,0.07126 q -0.05893,-0.07538 -0.161716,-0.07538 -0.102785,0 -0.163086,0.07538 -0.0603,0.07538 -0.0603,0.201459 0,0.130194 0.05893,0.2042 0.0603,0.07264 0.167197,0.07264 0.102785,0 0.160345,-0.07401 0.05893,-0.074 0.05893,-0.2042 0,-0.126083 -0.0603,-0.200088 z"
         style="font-family:HelveticaNeueCyr;-inkscape-font-specification:HelveticaNeueCyr;text-align:center;text-anchor:middle"
         id="path13418" />
      <path
         d="m 72.476108,12.99011 q -0.01508,0.127453 -0.0973,0.202829 -0.08086,0.07538 -0.211052,0.07538 -0.160345,0 -0.248055,-0.09867 -0.08771,-0.100044 -0.08771,-0.265871 0,-0.176791 0.09182,-0.279576 0.09182,-0.104156 0.248055,-0.104156 0.130195,0 0.208312,0.06578 0.07812,0.06441 0.09182,0.185013 h -0.120601 q -0.03152,-0.153492 -0.178161,-0.153492 -0.101415,0 -0.160345,0.07538 -0.05893,0.07401 -0.05893,0.201459 0,0.128824 0.05619,0.202829 0.05619,0.07401 0.154863,0.07401 0.07949,0 0.128824,-0.0466 0.05071,-0.0466 0.06441,-0.134306 z"
         style="font-family:HelveticaNeueCyr;-inkscape-font-specification:HelveticaNeueCyr;text-align:center;text-anchor:middle"
         id="path13420" />
      <path
         d="m 73.387471,12.277465 v 0.970293 h -0.127454 v -0.703051 h -0.243944 v -0.08771 q 0.117861,0 0.186384,-0.03837 0.06989,-0.03837 0.09319,-0.141159 z"
         style="font-family:HelveticaNeueCyr;-inkscape-font-specification:HelveticaNeueCyr;text-align:center;text-anchor:middle"
         id="path13422" />
    </g>
    <path
       style="color:#000000;fill:#00c8e5;fill-opacity:1;stroke-width:1.13156;-inkscape-stroke:none"
       d="m 69.489276,48.20413 c -1.348751,2.208687 -4.04952,6.334543 -7.726433,9.93651 -3.676915,3.601967 -8.313436,6.660477 -13.523468,6.835771 l 0.02873,0.83762 c 5.519276,-0.185699 10.321714,-3.392382 14.080407,-7.07446 3.758693,-3.682078 6.490876,-7.860991 7.856827,-10.097847 z"
       id="path2482" />
    <g
       id="g2476"
       style="fill:#00c8e5;fill-opacity:1"
       transform="matrix(1.1315599,0,0,1.1315599,-35.564572,-16.060519)">
      <path
         d="m 75.179462,74.023926 -5.772631,-1.881891 5.633085,-2.265642 c -0.99624,1.242855 -0.938154,2.969266 0.139546,4.147533 z"
         style="fill:#00c8e5;fill-opacity:1;fill-rule:evenodd;stroke-width:0.518735"
         id="path2478" />
    </g>
    <rect
       style="fill:#fff001;fill-opacity:1;stroke:#000000;stroke-width:0.632862"
       id="rect3216"
       width="16.515318"
       height="16.515318"
       x="15.253628"
       y="75.611885"
       transform="rotate(-45)" />
    <g
       aria-label="Роутер"
       id="text3214"
       style="font-size:1.46705px;line-height:1.25;stroke-width:0.264582"
       transform="matrix(3.1643131,0,0,3.1643131,-102.15135,-20.419895)">
      <path
         d="m 53.958546,19.289613 h 0.429845 q 0.159909,0 0.2538,0.07335 0.09389,0.07189 0.09389,0.227393 0,0.315416 -0.356493,0.315416 h -0.283141 v 0.428378 h -0.137902 z m 0.137902,0.118831 v 0.381433 h 0.265536 q 0.111496,0 0.173112,-0.04108 0.06308,-0.04254 0.06308,-0.149639 0,-0.06015 -0.02054,-0.09976 -0.01907,-0.03961 -0.05721,-0.05868 -0.03814,-0.01907 -0.07922,-0.02494 -0.04108,-0.0073 -0.09829,-0.0073 z"
         style="font-family:HelveticaNeueCyr;-inkscape-font-specification:HelveticaNeueCyr"
         id="path13289" />
      <path
         d="m 54.94147,19.66371 q 0.09976,-0.108561 0.271404,-0.108561 0.171645,0 0.267004,0.10416 0.09536,0.104161 0.09536,0.291943 0,0.192184 -0.09536,0.299278 -0.09536,0.107095 -0.268471,0.107095 -0.173111,0 -0.271404,-0.105628 -0.09829,-0.105627 -0.09829,-0.29341 0,-0.186315 0.09976,-0.294877 z M 55.383052,19.74 q -0.06308,-0.08069 -0.173112,-0.08069 -0.110028,0 -0.174579,0.08069 -0.06455,0.08069 -0.06455,0.215656 0,0.13937 0.06308,0.218591 0.06455,0.07775 0.17898,0.07775 0.110029,0 0.171645,-0.07922 0.06308,-0.07922 0.06308,-0.218591 0,-0.134968 -0.06455,-0.214189 z"
         style="font-family:HelveticaNeueCyr;-inkscape-font-specification:HelveticaNeueCyr"
         id="path13291" />
      <path
         d="m 56.332234,19.577154 -0.324218,0.853824 q -0.01907,0.05135 -0.03374,0.07922 -0.0132,0.02934 -0.03961,0.06308 -0.02494,0.03521 -0.06162,0.04988 -0.03521,0.01614 -0.08362,0.01614 -0.03668,0 -0.09242,-0.0132 v -0.111496 q 0.05428,0.01614 0.08069,0.01614 0.06162,0 0.08802,-0.06308 l 0.05868,-0.137903 -0.300745,-0.752597 h 0.140837 l 0.224458,0.602958 0.212723,-0.602958 z"
         style="font-family:HelveticaNeueCyr;-inkscape-font-specification:HelveticaNeueCyr"
         id="path13293" />
      <path
         d="m 57.018813,19.687183 h -0.271404 v 0.646969 H 56.62271 v -0.646969 h -0.271404 v -0.110029 h 0.667507 z"
         style="font-family:HelveticaNeueCyr;-inkscape-font-specification:HelveticaNeueCyr"
         id="path13295" />
      <path
         d="m 57.739135,20.095023 q -0.05721,0.264069 -0.330087,0.264069 -0.167243,0 -0.262602,-0.10416 -0.09389,-0.104161 -0.09389,-0.289009 0,-0.183382 0.09683,-0.296344 0.09829,-0.11443 0.255267,-0.11443 0.174579,0 0.258201,0.118831 0.08509,0.117364 0.08509,0.297811 v 0.0176 h -0.569216 l -0.0015,0.0088 q 0,0.120298 0.06308,0.189249 0.06308,0.06895 0.173111,0.06895 0.08216,0 0.129101,-0.03814 0.04841,-0.03814 0.07482,-0.123232 z m -0.120299,-0.206854 q -0.0088,-0.108562 -0.06602,-0.168711 -0.05721,-0.06162 -0.151106,-0.06162 -0.09096,0 -0.151106,0.06162 -0.06015,0.06162 -0.07189,0.168711 z"
         style="font-family:HelveticaNeueCyr;-inkscape-font-specification:HelveticaNeueCyr"
         id="path13297" />
      <path
         d="m 57.997336,19.577154 v 0.107095 q 0.08216,-0.130567 0.255267,-0.130567 0.158441,0 0.250866,0.107094 0.09389,0.107095 0.09389,0.290476 0,0.183381 -0.09242,0.29341 -0.09096,0.108562 -0.246465,0.108562 -0.162842,0 -0.253799,-0.124699 v 0.39757 h -0.1247 v -1.048941 z m 0.236195,0.08069 q -0.108561,0 -0.171645,0.07922 -0.06162,0.07775 -0.06162,0.215656 0,0.137903 0.06308,0.217124 0.06455,0.07775 0.174578,0.07775 0.107095,0 0.168711,-0.07922 0.06162,-0.07922 0.06162,-0.215657 0,-0.137902 -0.06308,-0.215656 -0.06162,-0.07922 -0.171645,-0.07922 z"
         style="font-family:HelveticaNeueCyr;-inkscape-font-specification:HelveticaNeueCyr"
         id="path13299" />
    </g>
  </g>
</svg>
