<?xml version="1.0" encoding="UTF-8" standalone="no"?>
<!-- Created with Inkscape (http://www.inkscape.org/) -->

<svg
   width="116.25038mm"
   height="43.4188mm"
   viewBox="0 0 116.25038 43.4188"
   version="1.1"
   id="svg5"
   inkscape:version="1.2.2 (b0a8486541, 2022-12-01)"
   sodipodi:docname="platform-curves.svg"
   xmlns:inkscape="http://www.inkscape.org/namespaces/inkscape"
   xmlns:sodipodi="http://sodipodi.sourceforge.net/DTD/sodipodi-0.dtd"
   xmlns="http://www.w3.org/2000/svg"
   xmlns:svg="http://www.w3.org/2000/svg">
  <sodipodi:namedview
     id="namedview7"
     pagecolor="#ffffff"
     bordercolor="#666666"
     borderopacity="1.0"
     inkscape:showpageshadow="2"
     inkscape:pageopacity="0.0"
     inkscape:pagecheckerboard="0"
     inkscape:deskcolor="#d1d1d1"
     inkscape:document-units="mm"
     showgrid="false"
     inkscape:zoom="4.228078"
     inkscape:cx="58.064208"
     inkscape:cy="76.157535"
     inkscape:window-width="1920"
     inkscape:window-height="1011"
     inkscape:window-x="0"
     inkscape:window-y="32"
     inkscape:window-maximized="1"
     inkscape:current-layer="layer1" />
  <defs
     id="defs2" />
  <g
     inkscape:label="Layer 1"
     inkscape:groupmode="layer"
     id="layer1"
     transform="translate(-51.994357,-60.967199)">
    <path
       id="rect234"
       style="fill:#cb001d;fill-opacity:1;stroke:none;stroke-width:0.653963;stroke-opacity:1"
       d="M 98.471751,60.967199 126.11834,104.386 H 70.185909 L 98.471751,60.967199"
       sodipodi:nodetypes="cccc" />
    <path
       id="path3899"
       style="fill:#ff8e00;fill-opacity:1;stroke:none;stroke-width:0.653963;stroke-opacity:1"
       d="M 98.471509,60.967338 77.342049,93.401017 H 119.12399 Z" />
    <path
       id="path3977"
       style="fill:#feff00;fill-opacity:1;stroke:none;stroke-width:0.653963;stroke-opacity:1"
       d="M 98.471509,60.967338 84.330253,82.674023 H 112.2934 Z" />
    <path
       id="path4706"
       style="fill:#24b30c;fill-opacity:1;stroke:none;stroke-width:0.653963;stroke-opacity:1"
       d="M 98.471509,60.967338 89.651892,74.505013 H 107.09165 Z" />
    <g
       aria-label="Слабоструктурированные
    данные"
       id="text5551"
       style="font-size:3.52778px;line-height:1.25;stroke-width:0.264583">
      <path
         d="m 127.46007,96.67753 q -0.0423,0.47625 -0.33161,0.744362 -0.28575,0.264583 -0.75495,0.264583 -0.53622,0 -0.85019,-0.352778 -0.31397,-0.356306 -0.31397,-0.959556 0,-0.564445 0.31397,-0.938389 0.3175,-0.377473 0.87489,-0.377473 0.39864,0 0.70203,0.215195 0.30338,0.215194 0.33866,0.596195 h -0.33161 q -0.0564,-0.246945 -0.24694,-0.384529 -0.1905,-0.141111 -0.4692,-0.141111 -0.4198,0 -0.635,0.296334 -0.21167,0.296333 -0.21167,0.73025 0,0.479778 0.22578,0.754945 0.22578,0.275167 0.61736,0.275167 0.32103,0 0.51153,-0.183444 0.1905,-0.186973 0.22931,-0.539751 z"
         style="font-family:HelveticaNeueCyr;-inkscape-font-specification:HelveticaNeueCyr"
         id="path650" />
      <path
         d="m 129.3439,95.806168 v 1.820335 h -0.29986 v -1.555751 h -0.64911 l -0.0247,0.804334 q -0.0106,0.416278 -0.1517,0.60325 -0.14111,0.186973 -0.35278,0.186973 -0.13052,0 -0.21519,-0.03881 v -0.243417 q 0.0459,0.02469 0.15875,0.02469 0.10583,0 0.17992,-0.112889 0.0776,-0.116417 0.0847,-0.388056 l 0.0317,-1.100668 z"
         style="font-family:HelveticaNeueCyr;-inkscape-font-specification:HelveticaNeueCyr"
         id="path652" />
      <path
         d="m 131.4006,97.386614 v 0.232833 q -0.0917,0.03528 -0.20461,0.03528 -0.25753,0 -0.26459,-0.268111 -0.25752,0.289278 -0.65969,0.289278 -0.26811,0 -0.42686,-0.137584 -0.15522,-0.137583 -0.15522,-0.377472 0,-0.486834 0.64558,-0.567973 0.381,-0.04586 0.44097,-0.06703 0.127,-0.04233 0.13759,-0.176389 0.004,-0.02117 0.004,-0.04586 0,-0.299861 -0.41275,-0.299861 -0.21166,0 -0.32103,0.08819 -0.10936,0.08467 -0.13052,0.282222 h -0.29281 q 0.007,-0.292806 0.20814,-0.455084 0.20108,-0.162277 0.55386,-0.162277 0.38453,0 0.5715,0.176389 0.06,0.05644 0.0882,0.148166 0.0282,0.09172 0.0317,0.151695 0.004,0.05644 0.004,0.172861 0,0.137584 -0.007,0.409223 -0.007,0.268111 -0.007,0.402167 0,0.09878 0.0247,0.141111 0.0282,0.03881 0.0988,0.03881 0.0282,0 0.0741,-0.01058 z m -0.48331,-0.705556 q -0.0318,0.02469 -0.067,0.04233 -0.0353,0.01764 -0.0917,0.02822 -0.0529,0.01058 -0.0741,0.01764 -0.0176,0.0035 -0.0917,0.01411 -0.0741,0.0071 -0.0776,0.0071 -0.10937,0.01411 -0.14464,0.02117 -0.0317,0.0035 -0.127,0.02822 -0.0917,0.02469 -0.13053,0.05644 -0.0388,0.03175 -0.0776,0.09525 -0.0353,0.05997 -0.0353,0.144639 0,0.141111 0.0952,0.22225 0.0988,0.08114 0.26811,0.08114 0.2152,0 0.38453,-0.127 0.16933,-0.127001 0.16933,-0.299862 z"
         style="font-family:HelveticaNeueCyr;-inkscape-font-specification:HelveticaNeueCyr"
         id="path654" />
      <path
         d="m 131.85216,95.552168 q 0.11994,-0.186972 0.28927,-0.275167 0.16934,-0.09172 0.43039,-0.109361 0.29281,-0.02117 0.35631,-0.05644 0.0423,-0.02117 0.0635,-0.05645 h 0.29986 q -0.0106,0.05645 -0.0318,0.102306 -0.0176,0.04586 -0.0423,0.08114 -0.0212,0.03175 -0.0635,0.05997 -0.0388,0.02822 -0.067,0.04939 -0.0282,0.01764 -0.0847,0.03528 -0.0529,0.01411 -0.0847,0.02469 -0.0318,0.0071 -0.0988,0.01411 -0.0635,0.0071 -0.0917,0.01058 -0.0282,0.0035 -0.10231,0.0071 -0.0741,0.0035 -0.0952,0.0071 -0.28928,0.02117 -0.45156,0.225778 -0.16227,0.201083 -0.20461,0.53975 h 0.0106 q 0.0776,-0.186972 0.24694,-0.299861 0.16933,-0.112889 0.39159,-0.112889 0.38805,0 0.60677,0.246945 0.22225,0.243416 0.22225,0.684389 0,0.455083 -0.22577,0.705556 -0.22225,0.250472 -0.62795,0.250472 -0.33161,0 -0.56092,-0.194028 -0.2293,-0.197555 -0.28222,-0.564444 -0.0212,-0.148167 -0.0212,-0.331612 0,-0.709084 0.21873,-1.044223 z m 0.0882,1.188862 q 0,0.310445 0.14817,0.500945 0.15169,0.1905 0.41275,0.1905 0.254,0 0.39864,-0.183444 0.14464,-0.183445 0.14464,-0.511529 0,-0.321028 -0.14817,-0.504472 -0.14817,-0.183445 -0.40217,-0.183445 -0.254,0 -0.40569,0.186973 -0.14817,0.183444 -0.14817,0.504472 z"
         style="font-family:HelveticaNeueCyr;-inkscape-font-specification:HelveticaNeueCyr"
         id="path656" />
      <path
         d="m 133.85241,96.014308 q 0.23988,-0.261056 0.65264,-0.261056 0.41275,0 0.64205,0.250472 0.22931,0.250473 0.22931,0.702028 0,0.46214 -0.22931,0.719668 -0.2293,0.257527 -0.64558,0.257527 -0.41628,0 -0.65264,-0.254 -0.23636,-0.254 -0.23636,-0.705556 0,-0.448028 0.23989,-0.709083 z m 1.06186,0.183444 q -0.1517,-0.194028 -0.41628,-0.194028 -0.26458,0 -0.41981,0.194028 -0.15522,0.194028 -0.15522,0.518584 0,0.335139 0.1517,0.525639 0.15522,0.186972 0.43039,0.186972 0.26458,0 0.41275,-0.1905 0.15169,-0.1905 0.15169,-0.525639 0,-0.324556 -0.15522,-0.515056 z"
         style="font-family:HelveticaNeueCyr;-inkscape-font-specification:HelveticaNeueCyr"
         id="path658" />
      <path
         d="m 137.29905,96.96328 q -0.0388,0.328084 -0.25048,0.522112 -0.20814,0.194028 -0.54328,0.194028 -0.41275,0 -0.63852,-0.254 -0.22578,-0.257528 -0.22578,-0.68439 0,-0.455083 0.23636,-0.719667 0.23636,-0.268111 0.63853,-0.268111 0.33514,0 0.53622,0.169333 0.20108,0.165806 0.23636,0.476251 h -0.31044 q -0.0811,-0.395112 -0.45861,-0.395112 -0.26106,0 -0.41275,0.194028 -0.1517,0.1905 -0.1517,0.518584 0,0.331611 0.14464,0.522111 0.14464,0.1905 0.39864,0.1905 0.20461,0 0.33161,-0.119944 0.13053,-0.119945 0.16581,-0.345723 z"
         style="font-family:HelveticaNeueCyr;-inkscape-font-specification:HelveticaNeueCyr"
         id="path660" />
      <path
         d="m 139.0206,96.070752 h -0.65264 v 1.555751 h -0.29986 v -1.555751 h -0.65264 v -0.264584 h 1.60514 z"
         style="font-family:HelveticaNeueCyr;-inkscape-font-specification:HelveticaNeueCyr"
         id="path662" />
      <path
         d="m 139.54271,95.806168 v 0.257528 q 0.19756,-0.313972 0.61384,-0.313972 0.381,0 0.60325,0.257528 0.22578,0.257528 0.22578,0.6985 0,0.440973 -0.22225,0.705556 -0.21873,0.261056 -0.59267,0.261056 -0.39159,0 -0.61031,-0.299861 v 0.956028 h -0.29986 v -2.522363 z m 0.56798,0.194028 q -0.26106,0 -0.41275,0.190501 -0.14817,0.186972 -0.14817,0.518583 0,0.331612 0.15169,0.522112 0.15523,0.186972 0.41981,0.186972 0.25753,0 0.40569,-0.1905 0.14817,-0.1905 0.14817,-0.518584 0,-0.331611 -0.15169,-0.518583 -0.14817,-0.190501 -0.41275,-0.190501 z"
         style="font-family:HelveticaNeueCyr;-inkscape-font-specification:HelveticaNeueCyr"
         id="path664" />
      <path
         d="m 142.8165,95.806168 -0.77964,2.053168 q -0.0459,0.123473 -0.0811,0.190501 -0.0318,0.07055 -0.0953,0.151694 -0.06,0.08467 -0.14817,0.119945 -0.0847,0.0388 -0.20108,0.0388 -0.0882,0 -0.22225,-0.03175 V 98.06042 q 0.13053,0.03881 0.19403,0.03881 0.14816,0 0.21166,-0.151695 l 0.14112,-0.331611 -0.7232,-1.809752 h 0.33867 l 0.53975,1.449918 0.51153,-1.449918 z"
         style="font-family:HelveticaNeueCyr;-inkscape-font-specification:HelveticaNeueCyr"
         id="path666" />
      <path
         d="m 144.70386,97.626503 h -0.381 l -0.66322,-0.896056 -0.28575,0.278694 v 0.617362 h -0.29986 v -1.820335 h 0.29986 v 0.867834 l 0.83255,-0.867834 h 0.40217 l -0.73378,0.71614 z"
         style="font-family:HelveticaNeueCyr;-inkscape-font-specification:HelveticaNeueCyr"
         id="path668" />
      <path
         d="m 146.29841,96.070752 h -0.65264 v 1.555751 h -0.29986 v -1.555751 h -0.65264 v -0.264584 h 1.60514 z"
         style="font-family:HelveticaNeueCyr;-inkscape-font-specification:HelveticaNeueCyr"
         id="path670" />
      <path
         d="m 148.04466,95.806168 -0.77964,2.053168 q -0.0459,0.123473 -0.0811,0.190501 -0.0317,0.07055 -0.0952,0.151694 -0.06,0.08467 -0.14816,0.119945 -0.0847,0.0388 -0.20109,0.0388 -0.0882,0 -0.22225,-0.03175 V 98.06042 q 0.13053,0.03881 0.19403,0.03881 0.14817,0 0.21167,-0.151695 l 0.14111,-0.331611 -0.72319,-1.809752 h 0.33866 l 0.53975,1.449918 0.51153,-1.449918 z"
         style="font-family:HelveticaNeueCyr;-inkscape-font-specification:HelveticaNeueCyr"
         id="path672" />
      <path
         d="m 148.58441,95.806168 v 0.257528 q 0.19756,-0.313972 0.61384,-0.313972 0.381,0 0.60325,0.257528 0.22577,0.257528 0.22577,0.6985 0,0.440973 -0.22225,0.705556 -0.21872,0.261056 -0.59266,0.261056 -0.39159,0 -0.61031,-0.299861 v 0.956028 h -0.29986 v -2.522363 z m 0.56798,0.194028 q -0.26106,0 -0.41276,0.190501 -0.14816,0.186972 -0.14816,0.518583 0,0.331612 0.15169,0.522112 0.15522,0.186972 0.41981,0.186972 0.25753,0 0.40569,-0.1905 0.14817,-0.1905 0.14817,-0.518584 0,-0.331611 -0.15169,-0.518583 -0.14817,-0.190501 -0.41275,-0.190501 z"
         style="font-family:HelveticaNeueCyr;-inkscape-font-specification:HelveticaNeueCyr"
         id="path674" />
      <path
         d="m 150.77869,97.626503 h -0.38453 v -1.820335 h 0.29987 v 1.485196 h 0.007 l 0.81845,-1.485196 h 0.38452 v 1.820335 h -0.29986 v -1.485195 h -0.007 z"
         style="font-family:HelveticaNeueCyr;-inkscape-font-specification:HelveticaNeueCyr"
         id="path676" />
      <path
         d="m 152.63783,95.806168 v 0.257528 q 0.19756,-0.313972 0.61384,-0.313972 0.381,0 0.60325,0.257528 0.22577,0.257528 0.22577,0.6985 0,0.440973 -0.22225,0.705556 -0.21872,0.261056 -0.59266,0.261056 -0.39159,0 -0.61031,-0.299861 v 0.956028 h -0.29986 v -2.522363 z m 0.56797,0.194028 q -0.26105,0 -0.41275,0.190501 -0.14816,0.186972 -0.14816,0.518583 0,0.331612 0.15169,0.522112 0.15522,0.186972 0.41981,0.186972 0.25753,0 0.40569,-0.1905 0.14817,-0.1905 0.14817,-0.518584 0,-0.331611 -0.1517,-0.518583 -0.14816,-0.190501 -0.41275,-0.190501 z"
         style="font-family:HelveticaNeueCyr;-inkscape-font-specification:HelveticaNeueCyr"
         id="path678" />
      <path
         d="m 154.59222,96.014308 q 0.23989,-0.261056 0.65264,-0.261056 0.41275,0 0.64206,0.250472 0.22931,0.250473 0.22931,0.702028 0,0.46214 -0.22931,0.719668 -0.22931,0.257527 -0.64558,0.257527 -0.41628,0 -0.65264,-0.254 -0.23636,-0.254 -0.23636,-0.705556 0,-0.448028 0.23988,-0.709083 z m 1.06187,0.183444 q -0.1517,-0.194028 -0.41628,-0.194028 -0.26459,0 -0.41981,0.194028 -0.15522,0.194028 -0.15522,0.518584 0,0.335139 0.15169,0.525639 0.15523,0.186972 0.43039,0.186972 0.26459,0 0.41275,-0.1905 0.1517,-0.1905 0.1517,-0.525639 0,-0.324556 -0.15522,-0.515056 z"
         style="font-family:HelveticaNeueCyr;-inkscape-font-specification:HelveticaNeueCyr"
         id="path680" />
      <path
         d="m 156.46547,97.626503 v -1.820335 h 0.84314 q 0.17992,0 0.30692,0.03175 0.127,0.02822 0.22225,0.130527 0.0952,0.102306 0.0952,0.278695 0,0.268111 -0.26811,0.391584 v 0.0035 q 0.16228,0.03175 0.254,0.151695 0.0917,0.116417 0.0917,0.296333 0,0.232834 -0.15522,0.384528 -0.15522,0.151695 -0.39864,0.151695 z m 0.81139,-1.086556 q 0.18697,0 0.26459,-0.05997 0.0811,-0.0635 0.0811,-0.183444 0,-0.119945 -0.0776,-0.176389 -0.0776,-0.05645 -0.26811,-0.05645 h -0.51858 v 0.476251 z m -0.51858,0.254 v 0.575028 h 0.64205 q 0.14112,0 0.21873,-0.08467 0.0811,-0.08467 0.0811,-0.218722 0,-0.271639 -0.35278,-0.271639 z"
         style="font-family:HelveticaNeueCyr;-inkscape-font-specification:HelveticaNeueCyr"
         id="path682" />
      <path
         d="m 159.97914,97.386614 v 0.232833 q -0.0917,0.03528 -0.20461,0.03528 -0.25753,0 -0.26458,-0.268111 -0.25753,0.289278 -0.6597,0.289278 -0.26811,0 -0.42686,-0.137584 -0.15522,-0.137583 -0.15522,-0.377472 0,-0.486834 0.64558,-0.567973 0.381,-0.04586 0.44098,-0.06703 0.127,-0.04233 0.13758,-0.176389 0.004,-0.02117 0.004,-0.04586 0,-0.299861 -0.41275,-0.299861 -0.21167,0 -0.32103,0.08819 -0.10936,0.08467 -0.13053,0.282222 h -0.2928 q 0.007,-0.292806 0.20814,-0.455084 0.20108,-0.162277 0.55386,-0.162277 0.38452,0 0.5715,0.176389 0.06,0.05644 0.0882,0.148166 0.0282,0.09172 0.0317,0.151695 0.004,0.05644 0.004,0.172861 0,0.137584 -0.007,0.409223 -0.007,0.268111 -0.007,0.402167 0,0.09878 0.0247,0.141111 0.0282,0.03881 0.0988,0.03881 0.0282,0 0.0741,-0.01058 z m -0.4833,-0.705556 q -0.0317,0.02469 -0.067,0.04233 -0.0353,0.01764 -0.0917,0.02822 -0.0529,0.01058 -0.0741,0.01764 -0.0176,0.0035 -0.0917,0.01411 -0.0741,0.0071 -0.0776,0.0071 -0.10936,0.01411 -0.14464,0.02117 -0.0317,0.0035 -0.127,0.02822 -0.0917,0.02469 -0.13053,0.05644 -0.0388,0.03175 -0.0776,0.09525 -0.0353,0.05997 -0.0353,0.144639 0,0.141111 0.0952,0.22225 0.0988,0.08114 0.26811,0.08114 0.21519,0 0.38452,-0.127 0.16934,-0.127001 0.16934,-0.299862 z"
         style="font-family:HelveticaNeueCyr;-inkscape-font-specification:HelveticaNeueCyr"
         id="path684" />
      <path
         d="m 160.56123,97.626503 h -0.29986 v -1.820335 h 0.29986 v 0.723195 h 0.91017 v -0.723195 h 0.29986 v 1.820335 h -0.29986 v -0.832556 h -0.91017 z"
         style="font-family:HelveticaNeueCyr;-inkscape-font-specification:HelveticaNeueCyr"
         id="path686" />
      <path
         d="m 162.52268,97.626503 h -0.29987 v -1.820335 h 0.29987 v 0.723195 h 0.91016 v -0.723195 h 0.29986 v 1.820335 h -0.29986 v -0.832556 h -0.91016 z"
         style="font-family:HelveticaNeueCyr;-inkscape-font-specification:HelveticaNeueCyr"
         id="path688" />
      <path
         d="m 165.91993,95.806168 h 0.29986 v 1.820335 h -0.29986 z m -0.45156,0.846668 q 0.16228,0.148166 0.16228,0.405694 0,0.257528 -0.15875,0.412751 -0.15522,0.155222 -0.41981,0.155222 h -0.87841 v -1.820335 h 0.29986 v 0.694973 h 0.56444 q 0.26811,0 0.43039,0.151695 z m -0.52564,0.105833 h -0.46919 v 0.60325 h 0.46919 q 0.18345,0 0.2787,-0.07761 0.0988,-0.08114 0.0988,-0.225778 0,-0.299861 -0.37747,-0.299861 z"
         style="font-family:HelveticaNeueCyr;-inkscape-font-specification:HelveticaNeueCyr"
         id="path690" />
      <path
         d="m 168.22357,97.051475 q -0.13759,0.635 -0.79375,0.635 -0.40217,0 -0.63147,-0.250472 -0.22578,-0.250473 -0.22578,-0.694973 0,-0.440972 0.23283,-0.712611 0.23636,-0.275167 0.61383,-0.275167 0.41981,0 0.62089,0.28575 0.20462,0.282222 0.20462,0.716139 v 0.04233 h -1.36878 l -0.004,0.02117 q 0,0.289278 0.15169,0.455084 0.1517,0.165806 0.41628,0.165806 0.19756,0 0.31045,-0.09172 0.11641,-0.09172 0.17991,-0.296333 z m -0.28928,-0.497417 q -0.0212,-0.261056 -0.15875,-0.405695 -0.13758,-0.148167 -0.36336,-0.148167 -0.21872,0 -0.36336,0.148167 -0.14464,0.148167 -0.17286,0.405695 z"
         style="font-family:HelveticaNeueCyr;-inkscape-font-specification:HelveticaNeueCyr"
         id="path692" />
      <path
         d="m 130.96668,102.69638 h -0.28575 v -0.57856 h -1.38994 v 0.57856 h -0.28576 v -0.84314 h 0.19756 q 0.0847,-0.16228 0.15522,-0.50095 0.0741,-0.34219 0.0741,-0.66675 v -0.38805 h 1.29822 v 1.55575 h 0.23636 z m -0.53622,-0.84314 v -1.29117 h -0.70556 v 0.1517 q 0,0.32102 -0.067,0.65264 -0.0635,0.32808 -0.14463,0.48683 z"
         style="font-family:HelveticaNeueCyr;-inkscape-font-specification:HelveticaNeueCyr"
         id="path694" />
      <path
         d="m 132.83993,101.87793 v 0.23284 q -0.0917,0.0353 -0.20461,0.0353 -0.25753,0 -0.26459,-0.26811 -0.25752,0.28928 -0.65969,0.28928 -0.26811,0 -0.42686,-0.13758 -0.15522,-0.13759 -0.15522,-0.37747 0,-0.48684 0.64558,-0.56798 0.381,-0.0459 0.44097,-0.067 0.127,-0.0423 0.13759,-0.17639 0.004,-0.0212 0.004,-0.0459 0,-0.29986 -0.41275,-0.29986 -0.21166,0 -0.32102,0.0882 -0.10937,0.0847 -0.13053,0.28222 h -0.29281 q 0.007,-0.29281 0.20814,-0.45508 0.20108,-0.16228 0.55386,-0.16228 0.38453,0 0.5715,0.17639 0.06,0.0564 0.0882,0.14816 0.0282,0.0917 0.0318,0.1517 0.004,0.0564 0.004,0.17286 0,0.13758 -0.007,0.40922 -0.007,0.26811 -0.007,0.40217 0,0.0988 0.0247,0.14111 0.0282,0.0388 0.0988,0.0388 0.0282,0 0.0741,-0.0106 z m -0.48331,-0.70555 q -0.0317,0.0247 -0.067,0.0423 -0.0353,0.0176 -0.0917,0.0282 -0.0529,0.0106 -0.0741,0.0176 -0.0176,0.004 -0.0917,0.0141 -0.0741,0.007 -0.0776,0.007 -0.10936,0.0141 -0.14464,0.0212 -0.0317,0.004 -0.127,0.0282 -0.0917,0.0247 -0.13053,0.0564 -0.0388,0.0318 -0.0776,0.0953 -0.0353,0.06 -0.0353,0.14464 0,0.14111 0.0952,0.22225 0.0988,0.0811 0.26811,0.0811 0.2152,0 0.38453,-0.127 0.16933,-0.127 0.16933,-0.29986 z"
         style="font-family:HelveticaNeueCyr;-inkscape-font-specification:HelveticaNeueCyr"
         id="path696" />
      <path
         d="m 133.42202,102.11782 h -0.29987 v -1.82033 h 0.29987 v 0.72319 h 0.91016 v -0.72319 h 0.29986 v 1.82033 h -0.29986 v -0.83255 h -0.91016 z"
         style="font-family:HelveticaNeueCyr;-inkscape-font-specification:HelveticaNeueCyr"
         id="path698" />
      <path
         d="m 135.38346,102.11782 h -0.29986 v -1.82033 h 0.29986 v 0.72319 h 0.91017 v -0.72319 h 0.29986 v 1.82033 h -0.29986 v -0.83255 h -0.91017 z"
         style="font-family:HelveticaNeueCyr;-inkscape-font-specification:HelveticaNeueCyr"
         id="path700" />
      <path
         d="m 138.78071,100.29749 h 0.29986 v 1.82033 h -0.29986 z m -0.45155,0.84667 q 0.16227,0.14816 0.16227,0.40569 0,0.25753 -0.15875,0.41275 -0.15522,0.15522 -0.4198,0.15522 h -0.87842 v -1.82033 h 0.29986 v 0.69497 h 0.56445 q 0.26811,0 0.43039,0.1517 z m -0.52564,0.10583 h -0.4692 v 0.60325 h 0.4692 q 0.18344,0 0.27869,-0.0776 0.0988,-0.0811 0.0988,-0.22578 0,-0.29986 -0.37747,-0.29986 z"
         style="font-family:HelveticaNeueCyr;-inkscape-font-specification:HelveticaNeueCyr"
         id="path702" />
      <path
         d="m 141.08435,101.54279 q -0.13758,0.635 -0.79375,0.635 -0.40216,0 -0.63147,-0.25047 -0.22578,-0.25047 -0.22578,-0.69497 0,-0.44097 0.23284,-0.71261 0.23636,-0.27517 0.61383,-0.27517 0.41981,0 0.62089,0.28575 0.20461,0.28222 0.20461,0.71614 v 0.0423 h -1.36878 l -0.004,0.0212 q 0,0.28928 0.1517,0.45508 0.15169,0.16581 0.41628,0.16581 0.19755,0 0.31044,-0.0917 0.11642,-0.0917 0.17992,-0.29634 z m -0.28927,-0.49741 q -0.0212,-0.26106 -0.15875,-0.4057 -0.13759,-0.14816 -0.36337,-0.14816 -0.21872,0 -0.36336,0.14816 -0.14464,0.14817 -0.17286,0.4057 z"
         style="font-family:HelveticaNeueCyr;-inkscape-font-specification:HelveticaNeueCyr"
         id="path704" />
    </g>
    <g
       aria-label="Аналитические СУБД"
       id="text8830"
       style="font-size:3.52778px;line-height:1.25;stroke-width:0.264583">
      <path
         d="m 121.24473,86.567086 0.98073,2.511779 h -0.37042 l -0.2787,-0.769056 h -1.0548 l -0.28575,0.769056 h -0.35278 l 0.98778,-2.511779 z m 0.23284,1.478139 -0.42687,-1.160639 -0.43391,1.160639 z"
         style="font-family:HelveticaNeueCyr;-inkscape-font-specification:HelveticaNeueCyr"
         id="path615" />
      <path
         d="m 122.72288,89.078865 h -0.29987 v -1.820334 h 0.29987 v 0.723194 h 0.91016 v -0.723194 h 0.29986 v 1.820334 h -0.29986 v -0.832556 h -0.91016 z"
         style="font-family:HelveticaNeueCyr;-inkscape-font-specification:HelveticaNeueCyr"
         id="path617" />
      <path
         d="m 125.99665,88.838976 v 0.232833 q -0.0917,0.03528 -0.20461,0.03528 -0.25752,0 -0.26458,-0.268111 -0.25753,0.289278 -0.6597,0.289278 -0.26811,0 -0.42686,-0.137583 -0.15522,-0.137584 -0.15522,-0.377473 0,-0.486834 0.64558,-0.567973 0.381,-0.04586 0.44098,-0.06703 0.127,-0.04233 0.13758,-0.176389 0.004,-0.02117 0.004,-0.04586 0,-0.299862 -0.41275,-0.299862 -0.21167,0 -0.32103,0.08819 -0.10936,0.08467 -0.13053,0.282222 h -0.2928 q 0.007,-0.292806 0.20814,-0.455083 0.20108,-0.162278 0.55386,-0.162278 0.38453,0 0.5715,0.176389 0.06,0.05644 0.0882,0.148166 0.0282,0.09172 0.0318,0.151695 0.004,0.05644 0.004,0.172861 0,0.137584 -0.007,0.409223 -0.007,0.268111 -0.007,0.402167 0,0.09878 0.0247,0.141111 0.0282,0.0388 0.0988,0.0388 0.0282,0 0.0741,-0.01058 z m -0.4833,-0.705556 q -0.0318,0.02469 -0.067,0.04233 -0.0353,0.01764 -0.0917,0.02822 -0.0529,0.01058 -0.0741,0.01764 -0.0176,0.0035 -0.0917,0.01411 -0.0741,0.0071 -0.0776,0.0071 -0.10936,0.01411 -0.14464,0.02117 -0.0317,0.0035 -0.127,0.02822 -0.0917,0.0247 -0.13053,0.05644 -0.0388,0.03175 -0.0776,0.09525 -0.0353,0.05997 -0.0353,0.144639 0,0.141111 0.0952,0.22225 0.0988,0.08114 0.26811,0.08114 0.21519,0 0.38453,-0.127 0.16933,-0.127 0.16933,-0.299862 z"
         style="font-family:HelveticaNeueCyr;-inkscape-font-specification:HelveticaNeueCyr"
         id="path619" />
      <path
         d="m 127.79582,87.258531 v 1.820334 h -0.29986 v -1.555751 h -0.64911 l -0.0247,0.804334 q -0.0106,0.416278 -0.1517,0.60325 -0.14111,0.186973 -0.35278,0.186973 -0.13052,0 -0.21519,-0.03881 v -0.243417 q 0.0459,0.02469 0.15875,0.02469 0.10583,0 0.17992,-0.112889 0.0776,-0.116417 0.0847,-0.388056 l 0.0318,-1.100667 z"
         style="font-family:HelveticaNeueCyr;-inkscape-font-specification:HelveticaNeueCyr"
         id="path621" />
      <path
         d="m 128.62485,89.078865 h -0.38453 v -1.820334 h 0.29986 v 1.485195 h 0.007 l 0.81845,-1.485195 h 0.38452 v 1.820334 h -0.29986 V 87.59367 h -0.007 z"
         style="font-family:HelveticaNeueCyr;-inkscape-font-specification:HelveticaNeueCyr"
         id="path623" />
      <path
         d="m 131.59524,87.523114 h -0.65264 v 1.555751 h -0.29986 v -1.555751 h -0.65264 v -0.264583 h 1.60514 z"
         style="font-family:HelveticaNeueCyr;-inkscape-font-specification:HelveticaNeueCyr"
         id="path625" />
      <path
         d="m 132.21966,89.078865 h -0.38453 v -1.820334 h 0.29986 v 1.485195 h 0.007 l 0.81845,-1.485195 h 0.38453 v 1.820334 h -0.29986 V 87.59367 h -0.007 z"
         style="font-family:HelveticaNeueCyr;-inkscape-font-specification:HelveticaNeueCyr"
         id="path627" />
      <path
         d="m 135.20416,89.078865 h -0.29986 v -0.804334 q -0.0741,0.02117 -0.26106,0.05292 -0.18344,0.02822 -0.30339,0.02822 -0.27869,0 -0.43744,-0.130528 -0.15523,-0.134055 -0.15523,-0.391583 v -0.575028 h 0.29987 v 0.525639 q 0,0.3175 0.34925,0.3175 0.25047,0 0.508,-0.08114 v -0.762 h 0.29986 z"
         style="font-family:HelveticaNeueCyr;-inkscape-font-specification:HelveticaNeueCyr"
         id="path629" />
      <path
         d="m 137.21147,88.503837 q -0.13759,0.635 -0.79375,0.635 -0.40217,0 -0.63148,-0.250472 -0.22577,-0.250472 -0.22577,-0.694973 0,-0.440972 0.23283,-0.712611 0.23636,-0.275167 0.61383,-0.275167 0.41981,0 0.62089,0.28575 0.20461,0.282222 0.20461,0.716139 v 0.04233 h -1.36878 l -0.004,0.02117 q 0,0.289278 0.15169,0.455084 0.1517,0.165806 0.41628,0.165806 0.19755,0 0.31044,-0.09172 0.11642,-0.09172 0.17992,-0.296333 z m -0.28928,-0.497417 q -0.0212,-0.261056 -0.15875,-0.405695 -0.13759,-0.148167 -0.36336,-0.148167 -0.21873,0 -0.36336,0.148167 -0.14464,0.148167 -0.17287,0.405695 z"
         style="font-family:HelveticaNeueCyr;-inkscape-font-specification:HelveticaNeueCyr"
         id="path631" />
      <path
         d="m 139.11647,88.415642 q -0.0388,0.328084 -0.25047,0.522112 -0.20814,0.194028 -0.54328,0.194028 -0.41275,0 -0.63853,-0.254 -0.22578,-0.257528 -0.22578,-0.68439 0,-0.455083 0.23636,-0.719667 0.23637,-0.268111 0.63853,-0.268111 0.33514,0 0.53623,0.169333 0.20108,0.165806 0.23636,0.476251 h -0.31045 q -0.0811,-0.395112 -0.45861,-0.395112 -0.26105,0 -0.41275,0.194028 -0.15169,0.1905 -0.15169,0.518584 0,0.331611 0.14464,0.522111 0.14463,0.1905 0.39863,0.1905 0.20462,0 0.33162,-0.119944 0.13052,-0.119945 0.1658,-0.345723 z"
         style="font-family:HelveticaNeueCyr;-inkscape-font-specification:HelveticaNeueCyr"
         id="path633" />
      <path
         d="m 141.07439,89.078865 h -0.381 l -0.66322,-0.896056 -0.28575,0.278695 v 0.617361 h -0.29987 v -1.820334 h 0.29987 v 0.867833 l 0.83255,-0.867833 h 0.40217 l -0.73378,0.716139 z"
         style="font-family:HelveticaNeueCyr;-inkscape-font-specification:HelveticaNeueCyr"
         id="path635" />
      <path
         d="m 141.66,89.078865 h -0.38453 v -1.820334 h 0.29986 v 1.485195 h 0.007 l 0.81844,-1.485195 h 0.38453 v 1.820334 H 142.4855 V 87.59367 h -0.007 z"
         style="font-family:HelveticaNeueCyr;-inkscape-font-specification:HelveticaNeueCyr"
         id="path637" />
      <path
         d="m 144.79267,88.503837 q -0.13759,0.635 -0.79375,0.635 -0.40217,0 -0.63148,-0.250472 -0.22578,-0.250472 -0.22578,-0.694973 0,-0.440972 0.23284,-0.712611 0.23636,-0.275167 0.61383,-0.275167 0.41981,0 0.62089,0.28575 0.20461,0.282222 0.20461,0.716139 v 0.04233 h -1.36878 l -0.004,0.02117 q 0,0.289278 0.15169,0.455084 0.1517,0.165806 0.41628,0.165806 0.19755,0 0.31044,-0.09172 0.11642,-0.09172 0.17992,-0.296333 z m -0.28928,-0.497417 q -0.0212,-0.261056 -0.15875,-0.405695 -0.13759,-0.148167 -0.36336,-0.148167 -0.21873,0 -0.36336,0.148167 -0.14464,0.148167 -0.17287,0.405695 z"
         style="font-family:HelveticaNeueCyr;-inkscape-font-specification:HelveticaNeueCyr"
         id="path639" />
      <path
         d="m 148.29223,88.129892 q -0.0423,0.476251 -0.33162,0.744362 -0.28575,0.264583 -0.75494,0.264583 -0.53622,0 -0.8502,-0.352778 -0.31397,-0.356305 -0.31397,-0.959556 0,-0.564445 0.31397,-0.938389 0.31751,-0.377473 0.87489,-0.377473 0.39864,0 0.70203,0.215195 0.30339,0.215194 0.33867,0.596195 h -0.33161 q -0.0564,-0.246945 -0.24695,-0.384528 -0.1905,-0.141112 -0.46919,-0.141112 -0.41981,0 -0.635,0.296334 -0.21167,0.296333 -0.21167,0.73025 0,0.479778 0.22578,0.754945 0.22578,0.275167 0.61736,0.275167 0.32103,0 0.51153,-0.183444 0.1905,-0.186973 0.2293,-0.539751 z"
         style="font-family:HelveticaNeueCyr;-inkscape-font-specification:HelveticaNeueCyr"
         id="path641" />
      <path
         d="m 149.34703,88.422698 -0.91722,-1.855612 h 0.36336 l 0.73378,1.531056 0.71967,-1.531056 h 0.3563 l -0.97719,2.000251 q -0.1517,0.310445 -0.31398,0.440972 -0.15875,0.130528 -0.35277,0.130528 -0.16934,0 -0.31045,-0.0635 v -0.282222 q 0.10231,0.0635 0.28222,0.0635 0.20814,0 0.37395,-0.345723 z"
         style="font-family:HelveticaNeueCyr;-inkscape-font-specification:HelveticaNeueCyr"
         id="path643" />
      <path
         d="m 151.19912,87.583086 h 0.83961 q 0.37042,0 0.5715,0.197556 0.20108,0.197556 0.20108,0.553861 0,0.352778 -0.20461,0.550334 -0.20108,0.194028 -0.56797,0.194028 h -1.17122 v -2.511779 h 1.72155 v 0.289278 h -1.38994 z m 1.28058,0.751417 q 0,-0.462139 -0.55033,-0.462139 h -0.73025 v 0.917223 h 0.73025 q 0.55033,0 0.55033,-0.455084 z"
         style="font-family:HelveticaNeueCyr;-inkscape-font-specification:HelveticaNeueCyr"
         id="path645" />
      <path
         d="m 155.49595,89.703282 h -0.32103 v -0.624417 h -1.81681 v 0.624417 h -0.32102 v -0.913695 h 0.24694 q 0.14464,-0.257528 0.23636,-0.737306 0.0917,-0.483306 0.0917,-0.998362 v -0.486833 h 1.60514 v 2.222501 h 0.2787 z m -0.61031,-0.913695 v -1.933223 h -0.94897 v 0.342194 q 0,0.455084 -0.0847,0.903112 -0.0811,0.4445 -0.20108,0.687917 z"
         style="font-family:HelveticaNeueCyr;-inkscape-font-specification:HelveticaNeueCyr"
         id="path647" />
    </g>
    <g
       aria-label="Универсальные СУБД"
       id="text10288"
       style="font-size:3.52778px;line-height:1.25;stroke-width:0.264583">
      <path
         d="m 114.68353,78.828345 -0.91722,-1.855612 h 0.36336 l 0.73378,1.531056 0.71967,-1.531056 h 0.3563 l -0.97719,2.000251 q -0.1517,0.310445 -0.31398,0.440973 -0.15875,0.130528 -0.35277,0.130528 -0.16934,0 -0.31045,-0.0635 v -0.282223 q 0.10231,0.0635 0.28222,0.0635 0.20814,0 0.37395,-0.345722 z"
         style="font-family:HelveticaNeueCyr;-inkscape-font-specification:HelveticaNeueCyr"
         id="path580" />
      <path
         d="m 116.32042,79.484512 h -0.29986 v -1.820334 h 0.29986 v 0.723195 h 0.91017 v -0.723195 h 0.29986 v 1.820334 h -0.29986 v -0.832556 h -0.91017 z"
         style="font-family:HelveticaNeueCyr;-inkscape-font-specification:HelveticaNeueCyr"
         id="path582" />
      <path
         d="M 118.36653,79.484512 H 117.982 v -1.820334 h 0.29986 v 1.485195 h 0.007 l 0.81844,-1.485195 h 0.38453 v 1.820334 h -0.29986 v -1.485195 h -0.007 z"
         style="font-family:HelveticaNeueCyr;-inkscape-font-specification:HelveticaNeueCyr"
         id="path584" />
      <path
         d="m 119.93639,79.484512 v -1.820334 h 0.84314 q 0.17992,0 0.30692,0.03175 0.127,0.02822 0.22225,0.130528 0.0952,0.102305 0.0952,0.278694 0,0.268112 -0.26811,0.391584 v 0.0035 q 0.16227,0.03175 0.254,0.151694 0.0917,0.116417 0.0917,0.296334 0,0.232833 -0.15522,0.384528 -0.15523,0.151694 -0.39864,0.151694 z m 0.81139,-1.086556 q 0.18697,0 0.26458,-0.05997 0.0811,-0.0635 0.0811,-0.183445 0,-0.119944 -0.0776,-0.176389 -0.0776,-0.05644 -0.26811,-0.05644 h -0.51858 v 0.47625 z m -0.51858,0.254 v 0.575028 h 0.64205 q 0.14111,0 0.21873,-0.08467 0.0811,-0.08467 0.0811,-0.218723 0,-0.271639 -0.35277,-0.271639 z"
         style="font-family:HelveticaNeueCyr;-inkscape-font-specification:HelveticaNeueCyr"
         id="path586" />
      <path
         d="m 123.39362,78.909484 q -0.13758,0.635001 -0.79375,0.635001 -0.40217,0 -0.63147,-0.250473 -0.22578,-0.250472 -0.22578,-0.694972 0,-0.440973 0.23283,-0.712612 0.23636,-0.275167 0.61384,-0.275167 0.4198,0 0.62088,0.28575 0.20462,0.282223 0.20462,0.71614 v 0.04233 h -1.36878 l -0.004,0.02117 q 0,0.289278 0.15169,0.455083 0.1517,0.165806 0.41628,0.165806 0.19756,0 0.31045,-0.09172 0.11641,-0.09172 0.17991,-0.296334 z m -0.28928,-0.497417 q -0.0212,-0.261056 -0.15875,-0.405695 -0.13758,-0.148166 -0.36336,-0.148166 -0.21872,0 -0.36336,0.148166 -0.14464,0.148167 -0.17286,0.405695 z"
         style="font-family:HelveticaNeueCyr;-inkscape-font-specification:HelveticaNeueCyr"
         id="path588" />
      <path
         d="m 124.01451,77.664178 v 0.257528 q 0.19756,-0.313973 0.61383,-0.313973 0.381,0 0.60325,0.257528 0.22578,0.257528 0.22578,0.698501 0,0.440972 -0.22225,0.705556 -0.21872,0.261055 -0.59267,0.261055 -0.39158,0 -0.6103,-0.299861 v 0.956029 h -0.29986 v -2.522363 z m 0.56797,0.194028 q -0.26105,0 -0.41275,0.1905 -0.14816,0.186972 -0.14816,0.518584 0,0.331611 0.15169,0.522111 0.15522,0.186972 0.41981,0.186972 0.25752,0 0.40569,-0.1905 0.14817,-0.1905 0.14817,-0.518583 0,-0.331612 -0.1517,-0.518584 -0.14816,-0.1905 -0.41275,-0.1905 z"
         style="font-family:HelveticaNeueCyr;-inkscape-font-specification:HelveticaNeueCyr"
         id="path590" />
      <path
         d="m 127.3906,78.82129 q -0.0388,0.328083 -0.25048,0.522111 -0.20813,0.194028 -0.54327,0.194028 -0.41275,0 -0.63853,-0.254 -0.22578,-0.257528 -0.22578,-0.684389 0,-0.455084 0.23636,-0.719668 0.23636,-0.268111 0.63853,-0.268111 0.33514,0 0.53622,0.169334 0.20109,0.165805 0.23636,0.47625 h -0.31044 q -0.0811,-0.395111 -0.45861,-0.395111 -0.26106,0 -0.41275,0.194027 -0.1517,0.190501 -0.1517,0.518584 0,0.331611 0.14464,0.522112 0.14464,0.1905 0.39864,0.1905 0.20461,0 0.33161,-0.119945 0.13053,-0.119944 0.16581,-0.345722 z"
         style="font-family:HelveticaNeueCyr;-inkscape-font-specification:HelveticaNeueCyr"
         id="path592" />
      <path
         d="m 129.33088,79.244623 v 0.232834 q -0.0917,0.03528 -0.20461,0.03528 -0.25753,0 -0.26459,-0.268112 -0.25752,0.289278 -0.65969,0.289278 -0.26811,0 -0.42686,-0.137583 -0.15523,-0.137584 -0.15523,-0.377473 0,-0.486833 0.64559,-0.567972 0.381,-0.04586 0.44097,-0.06703 0.127,-0.04233 0.13758,-0.176389 0.004,-0.02117 0.004,-0.04586 0,-0.299861 -0.41275,-0.299861 -0.21166,0 -0.32103,0.08819 -0.10936,0.08467 -0.13052,0.282222 h -0.29281 q 0.007,-0.292805 0.20814,-0.455083 0.20108,-0.162278 0.55386,-0.162278 0.38453,0 0.5715,0.176389 0.06,0.05644 0.0882,0.148167 0.0282,0.09172 0.0318,0.151694 0.004,0.05645 0.004,0.172861 0,0.137584 -0.007,0.409223 -0.007,0.268111 -0.007,0.402167 0,0.09878 0.0247,0.141111 0.0282,0.03881 0.0988,0.03881 0.0282,0 0.0741,-0.01058 z m -0.48331,-0.705556 q -0.0317,0.02469 -0.067,0.04233 -0.0353,0.01764 -0.0917,0.02822 -0.0529,0.01058 -0.0741,0.01764 -0.0176,0.0035 -0.0917,0.01411 -0.0741,0.0071 -0.0776,0.0071 -0.10937,0.01411 -0.14464,0.02117 -0.0317,0.0035 -0.127,0.02822 -0.0917,0.02469 -0.13053,0.05644 -0.0388,0.03175 -0.0776,0.09525 -0.0353,0.05997 -0.0353,0.144639 0,0.141111 0.0952,0.22225 0.0988,0.08114 0.26811,0.08114 0.2152,0 0.38453,-0.127 0.16933,-0.127 0.16933,-0.299861 z"
         style="font-family:HelveticaNeueCyr;-inkscape-font-specification:HelveticaNeueCyr"
         id="path594" />
      <path
         d="m 131.13005,77.664178 v 1.820334 h -0.29986 v -1.555751 h -0.64911 l -0.0247,0.804334 q -0.0106,0.416278 -0.15169,0.603251 -0.14111,0.186972 -0.35278,0.186972 -0.13053,0 -0.2152,-0.03881 v -0.243416 q 0.0459,0.02469 0.15875,0.02469 0.10584,0 0.17992,-0.112889 0.0776,-0.116417 0.0847,-0.388056 l 0.0317,-1.100667 z"
         style="font-family:HelveticaNeueCyr;-inkscape-font-specification:HelveticaNeueCyr"
         id="path596" />
      <path
         d="m 132.94333,78.510845 q 0.16227,0.148167 0.16227,0.405695 0,0.257528 -0.15875,0.41275 -0.15522,0.155222 -0.4198,0.155222 h -0.96309 v -1.820334 h 0.29987 v 0.694972 h 0.64911 q 0.26811,0 0.43039,0.151695 z m -0.52564,0.105833 h -0.55386 v 0.603251 h 0.55386 q 0.18344,0 0.27869,-0.07761 0.0988,-0.08114 0.0988,-0.225778 0,-0.299862 -0.37747,-0.299862 z"
         style="font-family:HelveticaNeueCyr;-inkscape-font-specification:HelveticaNeueCyr"
         id="path598" />
      <path
         d="m 133.70532,79.484512 h -0.29986 v -1.820334 h 0.29986 v 0.723195 h 0.91017 v -0.723195 h 0.29986 v 1.820334 h -0.29986 v -0.832556 h -0.91017 z"
         style="font-family:HelveticaNeueCyr;-inkscape-font-specification:HelveticaNeueCyr"
         id="path600" />
      <path
         d="m 137.10258,77.664178 h 0.29986 v 1.820334 h -0.29986 z m -0.45156,0.846667 q 0.16228,0.148167 0.16228,0.405695 0,0.257528 -0.15875,0.41275 -0.15522,0.155222 -0.41981,0.155222 h -0.87841 v -1.820334 h 0.29986 v 0.694972 h 0.56444 q 0.26811,0 0.43039,0.151695 z m -0.52564,0.105833 h -0.46919 v 0.603251 h 0.46919 q 0.18345,0 0.2787,-0.07761 0.0988,-0.08114 0.0988,-0.225778 0,-0.299862 -0.37747,-0.299862 z"
         style="font-family:HelveticaNeueCyr;-inkscape-font-specification:HelveticaNeueCyr"
         id="path602" />
      <path
         d="m 139.40622,78.909484 q -0.13759,0.635001 -0.79375,0.635001 -0.40217,0 -0.63148,-0.250473 -0.22577,-0.250472 -0.22577,-0.694972 0,-0.440973 0.23283,-0.712612 0.23636,-0.275167 0.61383,-0.275167 0.41981,0 0.62089,0.28575 0.20461,0.282223 0.20461,0.71614 v 0.04233 h -1.36877 l -0.004,0.02117 q 0,0.289278 0.15169,0.455083 0.1517,0.165806 0.41628,0.165806 0.19756,0 0.31045,-0.09172 0.11641,-0.09172 0.17991,-0.296334 z m -0.28928,-0.497417 q -0.0212,-0.261056 -0.15875,-0.405695 -0.13758,-0.148166 -0.36336,-0.148166 -0.21872,0 -0.36336,0.148166 -0.14464,0.148167 -0.17286,0.405695 z"
         style="font-family:HelveticaNeueCyr;-inkscape-font-specification:HelveticaNeueCyr"
         id="path604" />
      <path
         d="m 142.90578,78.535539 q -0.0423,0.476251 -0.33162,0.744362 -0.28575,0.264584 -0.75494,0.264584 -0.53622,0 -0.8502,-0.352778 -0.31397,-0.356306 -0.31397,-0.959557 0,-0.564444 0.31397,-0.938389 0.31751,-0.377473 0.87489,-0.377473 0.39864,0 0.70203,0.215195 0.30339,0.215195 0.33867,0.596195 H 142.553 q -0.0564,-0.246945 -0.24695,-0.384528 -0.1905,-0.141111 -0.46919,-0.141111 -0.41981,0 -0.635,0.296333 -0.21167,0.296334 -0.21167,0.730251 0,0.479778 0.22578,0.754945 0.22578,0.275166 0.61736,0.275166 0.32103,0 0.51153,-0.183444 0.1905,-0.186973 0.2293,-0.539751 z"
         style="font-family:HelveticaNeueCyr;-inkscape-font-specification:HelveticaNeueCyr"
         id="path606" />
      <path
         d="m 143.96058,78.828345 -0.91722,-1.855612 h 0.36336 l 0.73378,1.531056 0.71967,-1.531056 h 0.3563 l -0.97719,2.000251 q -0.1517,0.310445 -0.31397,0.440973 -0.15875,0.130528 -0.35278,0.130528 -0.16934,0 -0.31045,-0.0635 v -0.282223 q 0.10231,0.0635 0.28223,0.0635 0.20813,0 0.37394,-0.345722 z"
         style="font-family:HelveticaNeueCyr;-inkscape-font-specification:HelveticaNeueCyr"
         id="path608" />
      <path
         d="m 145.81267,77.988734 h 0.83961 q 0.37042,0 0.5715,0.197555 0.20108,0.197556 0.20108,0.553862 0,0.352778 -0.20461,0.550333 -0.20108,0.194028 -0.56797,0.194028 h -1.17122 v -2.511779 h 1.72155 v 0.289278 h -1.38994 z m 1.28058,0.751417 q 0,-0.462139 -0.55033,-0.462139 h -0.73025 v 0.917222 h 0.73025 q 0.55033,0 0.55033,-0.455083 z"
         style="font-family:HelveticaNeueCyr;-inkscape-font-specification:HelveticaNeueCyr"
         id="path610" />
      <path
         d="m 150.1095,80.108929 h -0.32103 v -0.624417 h -1.8168 v 0.624417 h -0.32103 v -0.913695 h 0.24694 q 0.14464,-0.257528 0.23636,-0.737306 0.0917,-0.483306 0.0917,-0.998361 v -0.486834 h 1.60514 v 2.222501 h 0.27869 z m -0.6103,-0.913695 v -1.933223 h -0.94898 v 0.342195 q 0,0.455083 -0.0847,0.903111 -0.0811,0.444501 -0.20109,0.687917 z"
         style="font-family:HelveticaNeueCyr;-inkscape-font-specification:HelveticaNeueCyr"
         id="path612" />
    </g>
    <g
       aria-label="Шины данных, витрины, кэши, IMDG"
       id="text11018"
       style="font-size:3.52778px;line-height:1.25;stroke-width:0.264583">
      <path
         d="m 107.18059,69.101021 v -2.51178 h 0.33161 v 2.222502 h 1.11478 v -2.222502 h 0.33161 v 2.222502 h 1.11478 v -2.222502 h 0.33161 v 2.51178 z"
         style="font-family:HelveticaNeueCyr;-inkscape-font-specification:HelveticaNeueCyr"
         id="path523" />
      <path
         d="m 111.29751,69.101021 h -0.38453 v -1.820335 h 0.29986 v 1.485196 h 0.007 l 0.81844,-1.485196 h 0.38453 v 1.820335 h -0.29986 v -1.485196 h -0.007 z"
         style="font-family:HelveticaNeueCyr;-inkscape-font-specification:HelveticaNeueCyr"
         id="path525" />
      <path
         d="m 113.17429,69.101021 h -0.29987 v -1.820335 h 0.29987 v 0.723195 h 0.91016 v -0.723195 h 0.29986 v 1.820335 h -0.29986 v -0.832556 h -0.91016 z"
         style="font-family:HelveticaNeueCyr;-inkscape-font-specification:HelveticaNeueCyr"
         id="path527" />
      <path
         d="m 116.57154,67.280686 h 0.29986 v 1.820335 h -0.29986 z m -0.45156,0.846668 q 0.16228,0.148166 0.16228,0.405694 0,0.257528 -0.15875,0.41275 -0.15522,0.155223 -0.41981,0.155223 h -0.87841 v -1.820335 h 0.29986 v 0.694973 h 0.56444 q 0.26811,0 0.43039,0.151695 z m -0.52564,0.105833 h -0.46919 v 0.60325 h 0.46919 q 0.18345,0 0.2787,-0.07761 0.0988,-0.08114 0.0988,-0.225778 0,-0.299861 -0.37747,-0.299861 z"
         style="font-family:HelveticaNeueCyr;-inkscape-font-specification:HelveticaNeueCyr"
         id="path529" />
      <path
         d="m 120.06404,69.679577 h -0.28575 v -0.578556 h -1.38995 v 0.578556 h -0.28575 v -0.84314 h 0.19756 q 0.0847,-0.162278 0.15522,-0.500944 0.0741,-0.342195 0.0741,-0.666751 v -0.388056 h 1.29822 v 1.555751 h 0.23636 z m -0.53622,-0.84314 V 67.54527 h -0.70556 v 0.151694 q 0,0.321028 -0.067,0.65264 -0.0635,0.328083 -0.14464,0.486833 z"
         style="font-family:HelveticaNeueCyr;-inkscape-font-specification:HelveticaNeueCyr"
         id="path531" />
      <path
         d="m 121.93729,68.861132 v 0.232833 q -0.0917,0.03528 -0.20461,0.03528 -0.25753,0 -0.26459,-0.268111 -0.25752,0.289278 -0.65969,0.289278 -0.26811,0 -0.42686,-0.137584 -0.15522,-0.137583 -0.15522,-0.377472 0,-0.486834 0.64558,-0.567973 0.381,-0.04586 0.44097,-0.06703 0.127,-0.04233 0.13759,-0.176389 0.004,-0.02117 0.004,-0.04586 0,-0.299861 -0.41275,-0.299861 -0.21166,0 -0.32103,0.08819 -0.10936,0.08467 -0.13052,0.282223 h -0.29281 q 0.007,-0.292806 0.20814,-0.455084 0.20108,-0.162278 0.55386,-0.162278 0.38453,0 0.5715,0.176389 0.06,0.05644 0.0882,0.148167 0.0282,0.09172 0.0318,0.151695 0.004,0.05644 0.004,0.172861 0,0.137583 -0.007,0.409222 -0.007,0.268112 -0.007,0.402167 0,0.09878 0.0247,0.141112 0.0282,0.0388 0.0988,0.0388 0.0282,0 0.0741,-0.01058 z m -0.48331,-0.705556 q -0.0318,0.02469 -0.067,0.04233 -0.0353,0.01764 -0.0917,0.02822 -0.0529,0.01058 -0.0741,0.01764 -0.0176,0.0035 -0.0917,0.01411 -0.0741,0.0071 -0.0776,0.0071 -0.10936,0.01411 -0.14464,0.02117 -0.0318,0.0035 -0.127,0.02822 -0.0917,0.02469 -0.13053,0.05644 -0.0388,0.03175 -0.0776,0.09525 -0.0353,0.05997 -0.0353,0.144639 0,0.141112 0.0952,0.222251 0.0988,0.08114 0.26811,0.08114 0.2152,0 0.38453,-0.127 0.16933,-0.127 0.16933,-0.299861 z"
         style="font-family:HelveticaNeueCyr;-inkscape-font-specification:HelveticaNeueCyr"
         id="path533" />
      <path
         d="m 122.51938,69.101021 h -0.29987 v -1.820335 h 0.29987 v 0.723195 h 0.91016 v -0.723195 h 0.29986 v 1.820335 h -0.29986 v -0.832556 h -0.91016 z"
         style="font-family:HelveticaNeueCyr;-inkscape-font-specification:HelveticaNeueCyr"
         id="path535" />
      <path
         d="m 124.48082,69.101021 h -0.29986 v -1.820335 h 0.29986 v 0.723195 h 0.91017 v -0.723195 h 0.29986 v 1.820335 h -0.29986 v -0.832556 h -0.91017 z"
         style="font-family:HelveticaNeueCyr;-inkscape-font-specification:HelveticaNeueCyr"
         id="path537" />
      <path
         d="m 127.87807,67.280686 h 0.29986 v 1.820335 h -0.29986 z m -0.45155,0.846668 q 0.16227,0.148166 0.16227,0.405694 0,0.257528 -0.15875,0.41275 -0.15522,0.155223 -0.4198,0.155223 h -0.87842 v -1.820335 h 0.29986 v 0.694973 h 0.56445 q 0.26811,0 0.43039,0.151695 z m -0.52564,0.105833 h -0.4692 v 0.60325 h 0.4692 q 0.18344,0 0.27869,-0.07761 0.0988,-0.08114 0.0988,-0.225778 0,-0.299861 -0.37747,-0.299861 z"
         style="font-family:HelveticaNeueCyr;-inkscape-font-specification:HelveticaNeueCyr"
         id="path539" />
      <path
         d="m 130.12174,67.280686 -0.635,0.839612 0.70908,0.980723 h -0.38452 l -0.51153,-0.74789 -0.50447,0.74789 h -0.36337 l 0.68439,-0.959556 -0.63147,-0.860779 h 0.381 l 0.44097,0.624417 0.45156,-0.624417 z"
         style="font-family:HelveticaNeueCyr;-inkscape-font-specification:HelveticaNeueCyr"
         id="path541" />
      <path
         d="m 130.91196,68.709437 v 0.239889 q 0,0.134056 -0.0141,0.225778 -0.0106,0.09525 -0.0494,0.1905 -0.0388,0.09525 -0.11994,0.15875 -0.0811,0.06703 -0.20814,0.09878 v -0.176389 q 0.1905,-0.0635 0.19403,-0.345722 h -0.19403 v -0.391584 z"
         style="font-family:HelveticaNeueCyr;-inkscape-font-specification:HelveticaNeueCyr"
         id="path543" />
      <path
         d="m 132.40774,69.101021 v -1.820335 h 0.84314 q 0.17992,0 0.30692,0.03175 0.127,0.02822 0.22225,0.130528 0.0953,0.102306 0.0953,0.278695 0,0.268111 -0.26811,0.391583 v 0.0035 q 0.16227,0.03175 0.254,0.151695 0.0917,0.116416 0.0917,0.296333 0,0.232834 -0.15522,0.384528 -0.15523,0.151695 -0.39864,0.151695 z m 0.81139,-1.086556 q 0.18697,0 0.26458,-0.05997 0.0811,-0.0635 0.0811,-0.183444 0,-0.119945 -0.0776,-0.176389 -0.0776,-0.05644 -0.26811,-0.05644 h -0.51858 v 0.476251 z m -0.51858,0.254 v 0.575028 h 0.64205 q 0.14111,0 0.21872,-0.08467 0.0811,-0.08467 0.0811,-0.218722 0,-0.271639 -0.35277,-0.271639 z"
         style="font-family:HelveticaNeueCyr;-inkscape-font-specification:HelveticaNeueCyr"
         id="path545" />
      <path
         d="m 134.69374,69.101021 h -0.38452 v -1.820335 h 0.29986 v 1.485196 h 0.007 l 0.81845,-1.485196 h 0.38453 v 1.820335 h -0.29986 v -1.485196 h -0.007 z"
         style="font-family:HelveticaNeueCyr;-inkscape-font-specification:HelveticaNeueCyr"
         id="path547" />
      <path
         d="m 137.66413,67.54527 h -0.65263 v 1.555751 h -0.29987 V 67.54527 h -0.65264 v -0.264584 h 1.60514 z"
         style="font-family:HelveticaNeueCyr;-inkscape-font-specification:HelveticaNeueCyr"
         id="path549" />
      <path
         d="m 138.18624,67.280686 v 0.257528 q 0.19756,-0.313972 0.61384,-0.313972 0.381,0 0.60325,0.257528 0.22578,0.257528 0.22578,0.6985 0,0.440973 -0.22225,0.705556 -0.21873,0.261056 -0.59267,0.261056 -0.39158,0 -0.61031,-0.299861 v 0.956028 h -0.29986 v -2.522363 z m 0.56798,0.194028 q -0.26106,0 -0.41275,0.1905 -0.14817,0.186973 -0.14817,0.518584 0,0.331611 0.15169,0.522111 0.15523,0.186973 0.41981,0.186973 0.25753,0 0.40569,-0.1905 0.14817,-0.1905 0.14817,-0.518584 0,-0.331611 -0.15169,-0.518584 -0.14817,-0.1905 -0.41275,-0.1905 z"
         style="font-family:HelveticaNeueCyr;-inkscape-font-specification:HelveticaNeueCyr"
         id="path551" />
      <path
         d="M 140.38052,69.101021 H 139.996 v -1.820335 h 0.29986 v 1.485196 h 0.007 l 0.81845,-1.485196 h 0.38453 v 1.820335 h -0.29987 v -1.485196 h -0.007 z"
         style="font-family:HelveticaNeueCyr;-inkscape-font-specification:HelveticaNeueCyr"
         id="path553" />
      <path
         d="m 142.2573,69.101021 h -0.29986 v -1.820335 h 0.29986 v 0.723195 h 0.91017 v -0.723195 h 0.29986 v 1.820335 h -0.29986 v -0.832556 h -0.91017 z"
         style="font-family:HelveticaNeueCyr;-inkscape-font-specification:HelveticaNeueCyr"
         id="path555" />
      <path
         d="m 145.65455,67.280686 h 0.29986 v 1.820335 h -0.29986 z m -0.45155,0.846668 q 0.16228,0.148166 0.16228,0.405694 0,0.257528 -0.15875,0.41275 -0.15523,0.155223 -0.41981,0.155223 h -0.87842 v -1.820335 h 0.29986 v 0.694973 h 0.56445 q 0.26811,0 0.43039,0.151695 z m -0.52564,0.105833 h -0.4692 v 0.60325 h 0.4692 q 0.18344,0 0.27869,-0.07761 0.0988,-0.08114 0.0988,-0.225778 0,-0.299861 -0.37747,-0.299861 z"
         style="font-family:HelveticaNeueCyr;-inkscape-font-specification:HelveticaNeueCyr"
         id="path557" />
      <path
         d="m 146.86106,68.709437 v 0.239889 q 0,0.134056 -0.0141,0.225778 -0.0106,0.09525 -0.0494,0.1905 -0.0388,0.09525 -0.11995,0.15875 -0.0811,0.06703 -0.20814,0.09878 v -0.176389 q 0.1905,-0.0635 0.19403,-0.345722 h -0.19403 v -0.391584 z"
         style="font-family:HelveticaNeueCyr;-inkscape-font-specification:HelveticaNeueCyr"
         id="path559" />
      <path
         d="m 149.99372,69.101021 h -0.381 l -0.66322,-0.896056 -0.28575,0.278694 v 0.617362 h -0.29986 v -1.820335 h 0.29986 v 0.867834 l 0.83256,-0.867834 h 0.40216 l -0.73377,0.71614 z"
         style="font-family:HelveticaNeueCyr;-inkscape-font-specification:HelveticaNeueCyr"
         id="path561" />
      <path
         d="m 151.72939,68.215548 q 0,0.426861 -0.22578,0.684389 -0.22578,0.254001 -0.63853,0.254001 -0.32455,0 -0.53269,-0.179917 -0.20462,-0.183445 -0.254,-0.493889 h 0.30338 q 0.0423,0.204611 0.16934,0.313972 0.127,0.109361 0.32103,0.109361 0.23636,0 0.37747,-0.165806 0.14464,-0.169333 0.16228,-0.465667 h -0.762 v -0.243416 h 0.75494 q -0.0388,-0.257528 -0.18344,-0.402167 -0.14464,-0.148167 -0.37042,-0.148167 -0.34219,0 -0.44097,0.331611 h -0.3175 q 0.0494,-0.278694 0.24694,-0.430389 0.20109,-0.151694 0.51506,-0.151694 0.40216,0 0.63853,0.268111 0.23636,0.264583 0.23636,0.719667 z"
         style="font-family:HelveticaNeueCyr;-inkscape-font-specification:HelveticaNeueCyr"
         id="path563" />
      <path
         d="m 152.08922,69.101021 v -1.820335 h 0.29986 v 1.555751 h 0.75142 v -1.555751 h 0.29986 v 1.555751 h 0.75142 v -1.555751 h 0.29986 v 1.820335 z"
         style="font-family:HelveticaNeueCyr;-inkscape-font-specification:HelveticaNeueCyr"
         id="path565" />
      <path
         d="m 155.32773,69.101021 h -0.38453 v -1.820335 h 0.29986 v 1.485196 h 0.007 l 0.81844,-1.485196 h 0.38453 v 1.820335 h -0.29986 v -1.485196 h -0.007 z"
         style="font-family:HelveticaNeueCyr;-inkscape-font-specification:HelveticaNeueCyr"
         id="path567" />
      <path
         d="m 157.36326,68.709437 v 0.239889 q 0,0.134056 -0.0141,0.225778 -0.0106,0.09525 -0.0494,0.1905 -0.0388,0.09525 -0.11995,0.15875 -0.0811,0.06703 -0.20814,0.09878 v -0.176389 q 0.1905,-0.0635 0.19403,-0.345722 h -0.19403 v -0.391584 z"
         style="font-family:HelveticaNeueCyr;-inkscape-font-specification:HelveticaNeueCyr"
         id="path569" />
      <path
         d="m 159.26473,66.589241 v 2.51178 h -0.33161 v -2.51178 z"
         style="font-family:HelveticaNeueCyr;-inkscape-font-specification:HelveticaNeueCyr"
         id="path571" />
      <path
         d="m 159.83623,66.589241 h 0.45861 l 0.80786,2.127252 0.77964,-2.127252 h 0.46214 v 2.51178 h -0.31397 v -2.095502 l -0.78669,2.095502 h -0.28928 l -0.80081,-2.095502 v 2.095502 h -0.3175 z"
         style="font-family:HelveticaNeueCyr;-inkscape-font-specification:HelveticaNeueCyr"
         id="path573" />
      <path
         d="m 162.9054,66.589241 h 0.81844 q 0.63853,0 0.94192,0.296334 0.30339,0.296333 0.30339,0.938389 0,0.631473 -0.28222,0.956029 -0.28222,0.321028 -0.90311,0.321028 h -0.87842 z m 0.33161,0.285751 v 1.940279 h 0.50447 q 0.47273,0 0.68439,-0.229306 0.2152,-0.232834 0.2152,-0.723195 0,-0.515056 -0.20814,-0.751417 -0.20814,-0.236361 -0.70556,-0.236361 z"
         style="font-family:HelveticaNeueCyr;-inkscape-font-specification:HelveticaNeueCyr"
         id="path575" />
      <path
         d="m 167.56913,67.771048 v 1.329973 h -0.21167 l -0.0847,-0.313973 q -0.30339,0.373945 -0.81139,0.373945 -0.53622,0 -0.86783,-0.356306 -0.32808,-0.359833 -0.32808,-0.938389 0,-0.575028 0.32455,-0.952501 0.32809,-0.377472 0.89606,-0.377472 0.26105,0 0.48683,0.09172 0.22578,0.08819 0.38453,0.282222 0.15875,0.190501 0.17992,0.451556 h -0.32456 q -0.0388,-0.246944 -0.23989,-0.395111 -0.19755,-0.151695 -0.48683,-0.151695 -0.40922,0 -0.64911,0.282223 -0.23989,0.278694 -0.23989,0.758472 0,0.472723 0.23989,0.751418 0.23989,0.278694 0.64558,0.278694 0.381,0 0.57856,-0.229305 0.20108,-0.232834 0.21166,-0.613834 h -0.80433 v -0.271639 z"
         style="font-family:HelveticaNeueCyr;-inkscape-font-specification:HelveticaNeueCyr"
         id="path577" />
    </g>
    <g
       aria-label="Hadoop"
       id="text11752"
       style="font-size:3.52778px;line-height:1.25;stroke-width:0.264583">
      <path
         d="m 59.035803,97.268662 v 2.511779 h -0.331611 v -1.17475 h -1.326445 v 1.17475 h -0.331612 v -2.511779 h 0.331612 v 1.047751 h 1.326445 v -1.047751 z"
         style="font-family:HelveticaNeueCyr;-inkscape-font-specification:HelveticaNeueCyr"
         id="path510" />
      <path
         d="m 61.152472,99.540552 v 0.232834 q -0.09172,0.03528 -0.204611,0.03528 -0.257528,0 -0.264584,-0.268112 -0.257528,0.289278 -0.659695,0.289278 -0.268111,0 -0.426861,-0.137583 -0.155222,-0.137584 -0.155222,-0.377473 0,-0.486833 0.645583,-0.567972 0.381001,-0.04586 0.440973,-0.06703 0.127,-0.04233 0.137583,-0.176389 0.0035,-0.02117 0.0035,-0.04586 0,-0.299862 -0.41275,-0.299862 -0.211667,0 -0.321028,0.08819 -0.109361,0.08467 -0.130528,0.282222 h -0.292806 q 0.0071,-0.292805 0.208139,-0.455083 0.201084,-0.162278 0.553862,-0.162278 0.384528,0 0.5715,0.176389 0.05997,0.05644 0.08819,0.148167 0.02822,0.09172 0.03175,0.151694 0.0035,0.05645 0.0035,0.172861 0,0.137584 -0.0071,0.409223 -0.0071,0.268111 -0.0071,0.402167 0,0.09878 0.0247,0.141111 0.02822,0.03881 0.09878,0.03881 0.02822,0 0.07408,-0.01058 z m -0.483306,-0.705556 q -0.03175,0.02469 -0.06703,0.04233 -0.03528,0.01764 -0.09172,0.02822 -0.05292,0.01058 -0.07408,0.01764 -0.01764,0.0035 -0.09172,0.01411 -0.07408,0.0071 -0.07761,0.0071 -0.109361,0.01411 -0.144639,0.02117 -0.03175,0.0035 -0.127,0.02822 -0.09172,0.02469 -0.130528,0.05644 -0.0388,0.03175 -0.07761,0.09525 -0.03528,0.05997 -0.03528,0.144639 0,0.141111 0.09525,0.22225 0.09878,0.08114 0.268111,0.08114 0.215195,0 0.384529,-0.127 0.169333,-0.127 0.169333,-0.299861 z"
         style="font-family:HelveticaNeueCyr;-inkscape-font-specification:HelveticaNeueCyr"
         id="path512" />
      <path
         d="m 63.075114,97.268662 v 2.511779 H 62.792892 V 99.51233 q -0.172861,0.3175 -0.599723,0.3175 -0.388056,0 -0.617361,-0.257528 -0.225778,-0.261055 -0.225778,-0.705556 0,-0.41275 0.211667,-0.684389 0.215194,-0.275167 0.617361,-0.275167 0.391584,0 0.596195,0.296334 v -0.934862 z m -0.85725,0.896056 q -0.257528,0 -0.409223,0.186972 -0.148167,0.186973 -0.148167,0.508001 0,0.331611 0.151695,0.529167 0.155222,0.194028 0.41275,0.194028 0.261056,0 0.409223,-0.186973 0.148166,-0.1905 0.148166,-0.525639 0,-0.299861 -0.141111,-0.500945 -0.137583,-0.204611 -0.423333,-0.204611 z"
         style="font-family:HelveticaNeueCyr;-inkscape-font-specification:HelveticaNeueCyr"
         id="path514" />
      <path
         d="M 63.671311,98.168246 Q 63.9112,97.90719 64.32395,97.90719 q 0.41275,0 0.642056,0.250472 0.229306,0.250473 0.229306,0.702029 0,0.462139 -0.229306,0.719667 -0.229306,0.257528 -0.645584,0.257528 -0.416278,0 -0.652639,-0.254 -0.236361,-0.254001 -0.236361,-0.705556 0,-0.448028 0.239889,-0.709084 z m 1.061861,0.183444 q -0.151694,-0.194028 -0.416278,-0.194028 -0.264583,0 -0.419805,0.194028 -0.155223,0.194028 -0.155223,0.518584 0,0.335139 0.151695,0.525639 0.155222,0.186973 0.430389,0.186973 0.264584,0 0.41275,-0.190501 0.151695,-0.1905 0.151695,-0.525639 0,-0.324556 -0.155223,-0.515056 z"
         style="font-family:HelveticaNeueCyr;-inkscape-font-specification:HelveticaNeueCyr"
         id="path516" />
      <path
         d="m 65.696254,98.168246 q 0.239889,-0.261056 0.652639,-0.261056 0.412751,0 0.642056,0.250472 0.229306,0.250473 0.229306,0.702029 0,0.462139 -0.229306,0.719667 -0.229305,0.257528 -0.645583,0.257528 -0.416278,0 -0.65264,-0.254 -0.236361,-0.254001 -0.236361,-0.705556 0,-0.448028 0.239889,-0.709084 z m 1.061862,0.183444 q -0.151695,-0.194028 -0.416278,-0.194028 -0.264584,0 -0.419806,0.194028 -0.155222,0.194028 -0.155222,0.518584 0,0.335139 0.151694,0.525639 0.155223,0.186973 0.430389,0.186973 0.264584,0 0.412751,-0.190501 0.151694,-0.1905 0.151694,-0.525639 0,-0.324556 -0.155222,-0.515056 z"
         style="font-family:HelveticaNeueCyr;-inkscape-font-specification:HelveticaNeueCyr"
         id="path518" />
      <path
         d="m 67.858781,97.960107 v 0.257528 q 0.197555,-0.313973 0.613834,-0.313973 0.381,0 0.60325,0.257528 0.225778,0.257528 0.225778,0.698501 0,0.440972 -0.22225,0.705556 -0.218723,0.261055 -0.592667,0.261055 -0.391584,0 -0.610306,-0.299861 v 0.956029 h -0.299862 v -2.522363 z m 0.567972,0.194028 q -0.261055,0 -0.41275,0.1905 -0.148167,0.186972 -0.148167,0.518583 0,0.331612 0.151695,0.522112 0.155222,0.186972 0.419806,0.186972 0.257528,0 0.405694,-0.1905 0.148167,-0.1905 0.148167,-0.518584 0,-0.331611 -0.151694,-0.518583 -0.148167,-0.1905 -0.412751,-0.1905 z"
         style="font-family:HelveticaNeueCyr;-inkscape-font-specification:HelveticaNeueCyr"
         id="path520" />
    </g>
    <g
       aria-label="ArenadataDB"
       id="text11758"
       style="font-size:3.52778px;line-height:1.25;stroke-width:0.264583">
      <path
         d="m 58.030293,86.510643 0.980723,2.51178 h -0.370417 l -0.278694,-0.769056 h -1.054806 l -0.285751,0.769056 H 56.66857 l 0.987779,-2.51178 z m 0.232834,1.47814 -0.426861,-1.160639 -0.433917,1.160639 z"
         style="font-family:HelveticaNeueCyr;-inkscape-font-specification:HelveticaNeueCyr"
         id="path487" />
      <path
         d="M 60.157547,87.159755 V 87.4702 q -0.03175,-0.0035 -0.07761,-0.0035 -0.144639,0 -0.250472,0.04586 -0.105834,0.04233 -0.169334,0.112889 -0.05997,0.07055 -0.09878,0.176389 -0.03881,0.105833 -0.05292,0.211667 -0.01058,0.105833 -0.01058,0.239889 v 0.769056 h -0.299862 v -1.820335 h 0.28575 v 0.391584 q 0.179917,-0.433917 0.673806,-0.433917 z"
         style="font-family:HelveticaNeueCyr;-inkscape-font-specification:HelveticaNeueCyr"
         id="path489" />
      <path
         d="m 61.875578,88.447395 q -0.137583,0.635 -0.79375,0.635 -0.402167,0 -0.631473,-0.250472 -0.225778,-0.250473 -0.225778,-0.694973 0,-0.440973 0.232834,-0.712612 0.236361,-0.275166 0.613833,-0.275166 0.419806,0 0.62089,0.28575 0.204611,0.282222 0.204611,0.716139 v 0.04233 h -1.368779 l -0.0035,0.02117 q 0,0.289278 0.151695,0.455084 0.151694,0.165805 0.416278,0.165805 0.197556,0 0.310445,-0.09172 0.116416,-0.09172 0.179916,-0.296333 z M 61.5863,87.949978 q -0.02117,-0.261056 -0.15875,-0.405695 -0.137583,-0.148167 -0.363361,-0.148167 -0.218723,0 -0.363362,0.148167 -0.144639,0.148167 -0.172861,0.405695 z"
         style="font-family:HelveticaNeueCyr;-inkscape-font-specification:HelveticaNeueCyr"
         id="path491" />
      <path
         d="m 62.496469,87.202088 v 0.282223 q 0.225778,-0.331612 0.62089,-0.331612 0.321028,0 0.462139,0.169334 0.144639,0.165805 0.144639,0.490361 v 1.210029 h -0.299861 v -1.072445 q 0,-0.134056 -0.01058,-0.208139 -0.0071,-0.07761 -0.04233,-0.162278 -0.03528,-0.08819 -0.119945,-0.127 -0.08467,-0.03881 -0.218722,-0.03881 -0.518584,0 -0.518584,0.656167 v 0.952501 h -0.299861 v -1.820335 z"
         style="font-family:HelveticaNeueCyr;-inkscape-font-specification:HelveticaNeueCyr"
         id="path493" />
      <path
         d="m 65.787887,88.782534 v 0.232833 q -0.09172,0.03528 -0.204611,0.03528 -0.257528,0 -0.264583,-0.268111 -0.257528,0.289278 -0.659695,0.289278 -0.268112,0 -0.426862,-0.137584 -0.155222,-0.137583 -0.155222,-0.377472 0,-0.486834 0.645584,-0.567973 0.381,-0.04586 0.440972,-0.06703 0.127,-0.04233 0.137584,-0.176389 0.0035,-0.02117 0.0035,-0.04586 0,-0.299861 -0.412751,-0.299861 -0.211667,0 -0.321028,0.08819 -0.109361,0.08467 -0.130528,0.282223 H 64.14747 q 0.0071,-0.292806 0.208139,-0.455084 0.201083,-0.162278 0.553861,-0.162278 0.384528,0 0.571501,0.176389 0.05997,0.05644 0.08819,0.148167 0.02822,0.09172 0.03175,0.151695 0.0035,0.05644 0.0035,0.172861 0,0.137583 -0.0071,0.409222 -0.0071,0.268112 -0.0071,0.402167 0,0.09878 0.02469,0.141112 0.02822,0.0388 0.09878,0.0388 0.02822,0 0.07408,-0.01058 z m -0.483305,-0.705556 q -0.03175,0.02469 -0.06703,0.04233 -0.03528,0.01764 -0.09172,0.02822 -0.05292,0.01058 -0.07408,0.01764 -0.01764,0.0035 -0.09172,0.01411 -0.07408,0.0071 -0.07761,0.0071 -0.109362,0.01411 -0.144639,0.02117 -0.03175,0.0035 -0.127,0.02822 -0.09172,0.02469 -0.130528,0.05644 -0.03881,0.03175 -0.07761,0.09525 -0.03528,0.05997 -0.03528,0.144639 0,0.141112 0.09525,0.222251 0.09878,0.08114 0.268111,0.08114 0.215195,0 0.384528,-0.127 0.169334,-0.127 0.169334,-0.299861 z"
         style="font-family:HelveticaNeueCyr;-inkscape-font-specification:HelveticaNeueCyr"
         id="path495" />
      <path
         d="m 67.71053,86.510643 v 2.51178 h -0.282222 v -0.268111 q -0.172861,0.3175 -0.599723,0.3175 -0.388056,0 -0.617361,-0.257528 -0.225778,-0.261056 -0.225778,-0.705556 0,-0.412751 0.211667,-0.68439 0.215194,-0.275166 0.617361,-0.275166 0.391584,0 0.596195,0.296333 V 86.510643 Z M 66.85328,87.4067 q -0.257528,0 -0.409223,0.186972 -0.148167,0.186972 -0.148167,0.508 0,0.331612 0.151695,0.529167 0.155222,0.194028 0.41275,0.194028 0.261056,0 0.409223,-0.186972 0.148167,-0.1905 0.148167,-0.525639 0,-0.299862 -0.141112,-0.500945 Q 67.13903,87.4067 66.85328,87.4067 Z"
         style="font-family:HelveticaNeueCyr;-inkscape-font-specification:HelveticaNeueCyr"
         id="path497" />
      <path
         d="m 69.774283,88.782534 v 0.232833 q -0.09172,0.03528 -0.204611,0.03528 -0.257528,0 -0.264584,-0.268111 -0.257527,0.289278 -0.659694,0.289278 -0.268112,0 -0.426862,-0.137584 -0.155222,-0.137583 -0.155222,-0.377472 0,-0.486834 0.645584,-0.567973 0.381,-0.04586 0.440972,-0.06703 0.127,-0.04233 0.137584,-0.176389 0.0035,-0.02117 0.0035,-0.04586 0,-0.299861 -0.41275,-0.299861 -0.211667,0 -0.321028,0.08819 -0.109361,0.08467 -0.130528,0.282223 h -0.292806 q 0.0071,-0.292806 0.20814,-0.455084 0.201083,-0.162278 0.553861,-0.162278 0.384528,0 0.5715,0.176389 0.05997,0.05644 0.08819,0.148167 0.02822,0.09172 0.03175,0.151695 0.0035,0.05644 0.0035,0.172861 0,0.137583 -0.0071,0.409222 -0.0071,0.268112 -0.0071,0.402167 0,0.09878 0.02469,0.141112 0.02822,0.0388 0.09878,0.0388 0.02822,0 0.07408,-0.01058 z m -0.483306,-0.705556 q -0.03175,0.02469 -0.06703,0.04233 -0.03528,0.01764 -0.09172,0.02822 -0.05292,0.01058 -0.07408,0.01764 -0.01764,0.0035 -0.09172,0.01411 -0.07408,0.0071 -0.07761,0.0071 -0.109361,0.01411 -0.144639,0.02117 -0.03175,0.0035 -0.127,0.02822 -0.09172,0.02469 -0.130527,0.05644 -0.03881,0.03175 -0.07761,0.09525 -0.03528,0.05997 -0.03528,0.144639 0,0.141112 0.09525,0.222251 0.09878,0.08114 0.268111,0.08114 0.215194,0 0.384528,-0.127 0.169333,-0.127 0.169333,-0.299861 z"
         style="font-family:HelveticaNeueCyr;-inkscape-font-specification:HelveticaNeueCyr"
         id="path499" />
      <path
         d="m 70.836147,87.202088 v 0.246945 h -0.363362 v 1.061862 q 0,0.08819 0,0.116416 0.0035,0.02822 0.02117,0.07761 0.01764,0.04586 0.05997,0.05997 0.04233,0.01411 0.119945,0.01411 0.06703,0 0.162278,-0.01058 v 0.257528 q -0.127,0.01411 -0.229306,0.01411 -0.127,0 -0.211667,-0.02822 -0.08467,-0.02822 -0.130528,-0.0635 -0.04233,-0.03528 -0.0635,-0.123472 -0.02117,-0.09172 -0.02469,-0.151694 -0.0035,-0.0635 -0.0035,-0.208139 0,-0.03175 0,-0.04939 v -0.966612 h -0.306917 v -0.246945 h 0.306917 v -0.53975 h 0.299861 v 0.53975 z"
         style="font-family:HelveticaNeueCyr;-inkscape-font-specification:HelveticaNeueCyr"
         id="path501" />
      <path
         d="m 72.779956,88.782534 v 0.232833 q -0.09172,0.03528 -0.204612,0.03528 -0.257528,0 -0.264583,-0.268111 -0.257528,0.289278 -0.659695,0.289278 -0.268111,0 -0.426861,-0.137584 -0.155223,-0.137583 -0.155223,-0.377472 0,-0.486834 0.645584,-0.567973 0.381,-0.04586 0.440973,-0.06703 0.127,-0.04233 0.137583,-0.176389 0.0035,-0.02117 0.0035,-0.04586 0,-0.299861 -0.41275,-0.299861 -0.211667,0 -0.321028,0.08819 -0.109362,0.08467 -0.130528,0.282223 h -0.292806 q 0.0071,-0.292806 0.208139,-0.455084 0.201083,-0.162278 0.553861,-0.162278 0.384528,0 0.571501,0.176389 0.05997,0.05644 0.08819,0.148167 0.02822,0.09172 0.03175,0.151695 0.0035,0.05644 0.0035,0.172861 0,0.137583 -0.0071,0.409222 -0.0071,0.268112 -0.0071,0.402167 0,0.09878 0.02469,0.141112 0.02822,0.0388 0.09878,0.0388 0.02822,0 0.07408,-0.01058 z M 72.29665,88.076978 q -0.03175,0.02469 -0.06703,0.04233 -0.03528,0.01764 -0.09172,0.02822 -0.05292,0.01058 -0.07408,0.01764 -0.01764,0.0035 -0.09172,0.01411 -0.07408,0.0071 -0.07761,0.0071 -0.109361,0.01411 -0.144639,0.02117 -0.03175,0.0035 -0.127,0.02822 -0.09172,0.02469 -0.130528,0.05644 -0.03881,0.03175 -0.07761,0.09525 -0.03528,0.05997 -0.03528,0.144639 0,0.141112 0.09525,0.222251 0.09878,0.08114 0.268111,0.08114 0.215195,0 0.384528,-0.127 0.169334,-0.127 0.169334,-0.299861 z"
         style="font-family:HelveticaNeueCyr;-inkscape-font-specification:HelveticaNeueCyr"
         id="path503" />
      <path
         d="m 73.115098,86.510643 h 0.818444 q 0.638529,0 0.941918,0.296334 0.303389,0.296333 0.303389,0.938389 0,0.631473 -0.282223,0.956029 -0.282222,0.321028 -0.903111,0.321028 h -0.878417 z m 0.331611,0.285751 v 1.940279 h 0.504472 q 0.472723,0 0.68439,-0.229306 0.215194,-0.232834 0.215194,-0.723195 0,-0.515056 -0.208139,-0.751417 -0.208139,-0.236361 -0.705556,-0.236361 z"
         style="font-family:HelveticaNeueCyr;-inkscape-font-specification:HelveticaNeueCyr"
         id="path505" />
      <path
         d="m 75.598656,86.510643 h 1.072445 q 0.345723,0 0.571501,0.151695 0.229305,0.151694 0.229305,0.47625 0,0.186973 -0.102305,0.335139 -0.09878,0.144639 -0.268112,0.204612 0.232834,0.05292 0.356306,0.218722 0.127,0.165806 0.127,0.416278 0,0.709084 -0.9525,0.709084 h -1.03364 z m 0.324556,0.282223 v 0.79375 h 0.596195 q 0.102305,0 0.172861,-0.0035 0.07408,-0.0071 0.165806,-0.02822 0.09172,-0.02117 0.144639,-0.05997 0.05644,-0.04233 0.09525,-0.119944 0.04233,-0.07761 0.04233,-0.186973 0,-0.109361 -0.03528,-0.183444 -0.03528,-0.07761 -0.08467,-0.116417 -0.04939,-0.04233 -0.137584,-0.0635 -0.08467,-0.02117 -0.155222,-0.0247 -0.06703,-0.0071 -0.176389,-0.0071 z m 0,1.054806 v 0.896056 h 0.663223 q 0.123472,0 0.201083,-0.0035 0.07761,-0.0071 0.172861,-0.03175 0.09878,-0.02469 0.155223,-0.07055 0.05644,-0.04939 0.09525,-0.137584 0.0388,-0.09172 0.0388,-0.218722 0,-0.105833 -0.02822,-0.183445 -0.02469,-0.07761 -0.08819,-0.123472 -0.05997,-0.04586 -0.116416,-0.07408 -0.05292,-0.02822 -0.155223,-0.03881 -0.102305,-0.01058 -0.15875,-0.01058 -0.05644,-0.0035 -0.172861,-0.0035 z"
         style="font-family:HelveticaNeueCyr;-inkscape-font-specification:HelveticaNeueCyr"
         id="path507" />
    </g>
    <g
       aria-label="Oracle, PostgreSQL"
       id="text11762"
       style="font-size:3.52778px;line-height:1.25;stroke-width:0.264583">
      <path
         d="m 53.193802,76.916285 q 0.5715,0 0.889001,0.359834 0.3175,0.356306 0.3175,0.934862 0,0.582083 -0.313973,0.959556 -0.313972,0.377472 -0.889,0.377472 -0.292806,0 -0.525639,-0.105833 -0.232834,-0.105833 -0.381001,-0.292806 -0.144639,-0.186972 -0.22225,-0.426861 -0.07408,-0.239889 -0.07408,-0.518584 0,-0.589139 0.324556,-0.938389 0.328083,-0.349251 0.874889,-0.349251 z m 0,0.289278 q -0.419806,0 -0.645584,0.296334 -0.22225,0.292806 -0.22225,0.726723 0,0.472722 0.236361,0.754945 0.239889,0.278694 0.638529,0.278694 0.395111,0 0.631472,-0.282222 0.236361,-0.282223 0.236361,-0.751417 0,-0.465667 -0.239889,-0.744362 -0.236361,-0.278695 -0.635,-0.278695 z"
         style="font-family:HelveticaNeueCyr;-inkscape-font-specification:HelveticaNeueCyr"
         id="path452" />
      <path
         d="m 55.712638,77.625369 v 0.310445 q -0.03175,-0.0035 -0.07761,-0.0035 -0.144639,0 -0.250473,0.04586 -0.105833,0.04233 -0.169333,0.112889 -0.05997,0.07056 -0.09878,0.176389 -0.03881,0.105834 -0.05292,0.211667 -0.01058,0.105833 -0.01058,0.239889 v 0.769056 h -0.299861 v -1.820334 h 0.28575 v 0.391583 q 0.179917,-0.433917 0.673806,-0.433917 z"
         style="font-family:HelveticaNeueCyr;-inkscape-font-specification:HelveticaNeueCyr"
         id="path454" />
      <path
         d="m 57.550612,79.248148 v 0.232834 q -0.09172,0.03528 -0.204611,0.03528 -0.257528,0 -0.264584,-0.268111 -0.257528,0.289278 -0.659695,0.289278 -0.268111,0 -0.426861,-0.137583 -0.155223,-0.137584 -0.155223,-0.377473 0,-0.486834 0.645584,-0.567972 0.381,-0.04586 0.440973,-0.06703 0.127,-0.04233 0.137583,-0.176389 0.0035,-0.02117 0.0035,-0.04586 0,-0.299862 -0.41275,-0.299862 -0.211667,0 -0.321028,0.08819 -0.109362,0.08467 -0.130528,0.282222 h -0.292806 q 0.0071,-0.292806 0.208139,-0.455083 0.201084,-0.162278 0.553862,-0.162278 0.384528,0 0.5715,0.176389 0.05997,0.05644 0.08819,0.148166 0.02822,0.09172 0.03175,0.151695 0.0035,0.05644 0.0035,0.172861 0,0.137584 -0.0071,0.409223 -0.0071,0.268111 -0.0071,0.402167 0,0.09878 0.0247,0.141111 0.02822,0.0388 0.09878,0.0388 0.02822,0 0.07408,-0.01058 z m -0.483306,-0.705556 q -0.03175,0.02469 -0.06703,0.04233 -0.03528,0.01764 -0.09172,0.02822 -0.05292,0.01058 -0.07408,0.01764 -0.01764,0.0035 -0.09172,0.01411 -0.07408,0.0071 -0.07761,0.0071 -0.109361,0.01411 -0.144639,0.02117 -0.03175,0.0035 -0.127,0.02822 -0.09172,0.0247 -0.130528,0.05644 -0.03881,0.03175 -0.07761,0.09525 -0.03528,0.05997 -0.03528,0.144639 0,0.141111 0.09525,0.22225 0.09878,0.08114 0.268111,0.08114 0.215195,0 0.384528,-0.127 0.169334,-0.127 0.169334,-0.299862 z"
         style="font-family:HelveticaNeueCyr;-inkscape-font-specification:HelveticaNeueCyr"
         id="path456" />
      <path
         d="m 59.399171,78.824814 q -0.03881,0.328084 -0.250473,0.522112 -0.208139,0.194028 -0.543278,0.194028 -0.41275,0 -0.638528,-0.254 -0.225778,-0.257528 -0.225778,-0.68439 0,-0.455083 0.236361,-0.719667 0.236362,-0.268111 0.638529,-0.268111 0.335139,0 0.536222,0.169333 0.201084,0.165806 0.236361,0.476251 h -0.310444 q -0.08114,-0.395112 -0.458612,-0.395112 -0.261055,0 -0.41275,0.194028 -0.151694,0.1905 -0.151694,0.518584 0,0.331611 0.144639,0.522111 0.144639,0.1905 0.398639,0.1905 0.204611,0 0.331611,-0.119944 0.130528,-0.119945 0.165806,-0.345723 z"
         style="font-family:HelveticaNeueCyr;-inkscape-font-specification:HelveticaNeueCyr"
         id="path458" />
      <path
         d="m 60.044757,76.976258 v 2.511779 h -0.303389 v -2.511779 z"
         style="font-family:HelveticaNeueCyr;-inkscape-font-specification:HelveticaNeueCyr"
         id="path460" />
      <path
         d="m 62.066175,78.913009 q -0.137583,0.635 -0.793751,0.635 -0.402166,0 -0.631472,-0.250472 -0.225778,-0.250472 -0.225778,-0.694973 0,-0.440972 0.232833,-0.712611 0.236362,-0.275167 0.613834,-0.275167 0.419806,0 0.620889,0.28575 0.204612,0.282222 0.204612,0.716139 v 0.04233 h -1.368779 l -0.0035,0.02117 q 0,0.289278 0.151695,0.455084 0.151694,0.165806 0.416278,0.165806 0.197555,0 0.310444,-0.09172 0.116417,-0.09172 0.179917,-0.296333 z m -0.289278,-0.497417 q -0.02117,-0.261056 -0.15875,-0.405695 -0.137584,-0.148166 -0.363361,-0.148166 -0.218723,0 -0.363362,0.148166 -0.144639,0.148167 -0.172861,0.405695 z"
         style="font-family:HelveticaNeueCyr;-inkscape-font-specification:HelveticaNeueCyr"
         id="path462" />
      <path
         d="m 62.863456,79.096454 v 0.239889 q 0,0.134055 -0.01411,0.225777 -0.01058,0.09525 -0.04939,0.190501 -0.03881,0.09525 -0.119945,0.15875 -0.08114,0.06703 -0.208139,0.09878 V 79.83376 q 0.190501,-0.0635 0.194028,-0.345723 h -0.194028 v -0.391583 z"
         style="font-family:HelveticaNeueCyr;-inkscape-font-specification:HelveticaNeueCyr"
         id="path464" />
      <path
         d="m 64.433317,76.976258 h 1.03364 q 0.384528,0 0.610306,0.176389 0.225778,0.172861 0.225778,0.546806 0,0.758472 -0.857251,0.758472 h -0.680861 v 1.030112 h -0.331612 z m 0.331612,0.28575 v 0.917223 h 0.638528 q 0.268111,0 0.416278,-0.09878 0.151694,-0.102306 0.151694,-0.359834 0,-0.144639 -0.04939,-0.239889 -0.04586,-0.09525 -0.137583,-0.141111 -0.09172,-0.04586 -0.1905,-0.05997 -0.09878,-0.01764 -0.236361,-0.01764 z"
         style="font-family:HelveticaNeueCyr;-inkscape-font-specification:HelveticaNeueCyr"
         id="path466" />
      <path
         d="m 66.796932,77.875842 q 0.23989,-0.261056 0.65264,-0.261056 0.41275,0 0.642056,0.250472 0.229305,0.250473 0.229305,0.702029 0,0.462139 -0.229305,0.719667 -0.229306,0.257528 -0.645584,0.257528 -0.416278,0 -0.652639,-0.254001 -0.236362,-0.254 -0.236362,-0.705556 0,-0.448028 0.239889,-0.709083 z m 1.061862,0.183444 q -0.151694,-0.194028 -0.416278,-0.194028 -0.264583,0 -0.419806,0.194028 -0.155222,0.194028 -0.155222,0.518584 0,0.335139 0.151695,0.525639 0.155222,0.186972 0.430389,0.186972 0.264583,0 0.41275,-0.1905 0.151695,-0.1905 0.151695,-0.525639 0,-0.324556 -0.155223,-0.515056 z"
         style="font-family:HelveticaNeueCyr;-inkscape-font-specification:HelveticaNeueCyr"
         id="path468" />
      <path
         d="m 70.028378,78.19687 h -0.299862 q -0.02822,-0.331612 -0.4445,-0.331612 -0.172861,0 -0.271639,0.06703 -0.09878,0.06703 -0.09878,0.179917 0,0.03175 0.0071,0.0635 0.0071,0.02822 0.02469,0.05292 0.02117,0.02117 0.03528,0.0388 0.01764,0.01764 0.05292,0.03528 0.0388,0.01411 0.05644,0.02469 0.02117,0.01058 0.07056,0.02469 0.05292,0.01058 0.07408,0.01764 0.02117,0.0035 0.08114,0.01764 0.0635,0.01411 0.08114,0.01764 0.130528,0.02822 0.194028,0.04586 0.06703,0.01764 0.179917,0.06703 0.116416,0.04586 0.176389,0.09878 0.05997,0.04939 0.105833,0.141112 0.04939,0.08819 0.04939,0.201083 0,0.264584 -0.208139,0.426861 -0.204611,0.158751 -0.546806,0.158751 -0.370417,0 -0.5715,-0.162278 -0.197556,-0.162278 -0.211667,-0.469195 h 0.296333 q 0.0247,0.384528 0.49389,0.384528 0.201083,0 0.321028,-0.08114 0.123472,-0.08467 0.123472,-0.22225 0,-0.09172 -0.0635,-0.151695 -0.0635,-0.05997 -0.141111,-0.08467 -0.07761,-0.02822 -0.222251,-0.0635 -0.02117,-0.0035 -0.03175,-0.0071 -0.03175,-0.0071 -0.137583,-0.02822 -0.102306,-0.02469 -0.148167,-0.03881 -0.04586,-0.01411 -0.134055,-0.04233 -0.08467,-0.03175 -0.127,-0.0635 -0.04233,-0.03528 -0.09525,-0.08467 -0.04939,-0.05292 -0.07055,-0.119944 -0.02117,-0.07056 -0.02117,-0.158751 0,-0.246944 0.186973,-0.391583 0.1905,-0.144639 0.508,-0.144639 0.321028,0 0.522111,0.151694 0.204612,0.151695 0.204612,0.43039 z"
         style="font-family:HelveticaNeueCyr;-inkscape-font-specification:HelveticaNeueCyr"
         id="path470" />
      <path
         d="m 71.220767,77.667703 v 0.246944 h -0.363362 v 1.061862 q 0,0.0882 0,0.116417 0.0035,0.02822 0.02117,0.07761 0.01764,0.04586 0.05997,0.05997 0.04233,0.01411 0.119945,0.01411 0.06703,0 0.162278,-0.01058 v 0.257528 q -0.127001,0.01411 -0.229306,0.01411 -0.127,0 -0.211667,-0.02822 -0.08467,-0.02822 -0.130528,-0.0635 -0.04233,-0.03528 -0.0635,-0.123473 -0.02117,-0.09172 -0.02469,-0.151694 -0.0035,-0.0635 -0.0035,-0.208139 0,-0.03175 0,-0.04939 v -0.966612 h -0.306917 v -0.246944 h 0.306917 v -0.539751 h 0.299861 v 0.539751 z"
         style="font-family:HelveticaNeueCyr;-inkscape-font-specification:HelveticaNeueCyr"
         id="path472" />
      <path
         d="m 73.129297,77.667703 v 1.622778 q 0,0.236362 -0.02469,0.363362 -0.02469,0.130528 -0.09172,0.243417 -0.201084,0.331611 -0.719667,0.331611 -0.306917,0 -0.518584,-0.127 -0.211667,-0.123472 -0.246945,-0.409223 h 0.306917 q 0.05292,0.303389 0.469195,0.303389 0.278695,0 0.402167,-0.141111 0.127,-0.141111 0.134056,-0.455083 l 0.0035,-0.222251 q -0.172861,0.331612 -0.578555,0.331612 -0.36689,0 -0.585612,-0.250473 -0.215195,-0.250472 -0.215195,-0.673806 0,-0.398639 0.215195,-0.680861 0.215195,-0.28575 0.599723,-0.28575 0.1905,0 0.338667,0.08114 0.151694,0.08114 0.236361,0.232833 v -0.264583 z m -0.836084,0.211666 q -0.243417,0 -0.384528,0.190501 -0.137584,0.186972 -0.137584,0.518583 0,0.299861 0.144639,0.483306 0.144639,0.179917 0.384528,0.179917 0.250473,0 0.391584,-0.1905 0.144639,-0.1905 0.144639,-0.522112 0,-0.310444 -0.144639,-0.483306 -0.141111,-0.176389 -0.398639,-0.176389 z"
         style="font-family:HelveticaNeueCyr;-inkscape-font-specification:HelveticaNeueCyr"
         id="path474" />
      <path
         d="m 74.526296,77.625369 v 0.310445 q -0.03175,-0.0035 -0.07761,-0.0035 -0.144639,0 -0.250472,0.04586 -0.105834,0.04233 -0.169334,0.112889 -0.05997,0.07056 -0.09878,0.176389 -0.0388,0.105834 -0.05292,0.211667 -0.01058,0.105833 -0.01058,0.239889 v 0.769056 H 73.56674 v -1.820334 h 0.28575 v 0.391583 q 0.179917,-0.433917 0.673806,-0.433917 z"
         style="font-family:HelveticaNeueCyr;-inkscape-font-specification:HelveticaNeueCyr"
         id="path476" />
      <path
         d="m 76.244326,78.913009 q -0.137583,0.635 -0.79375,0.635 -0.402167,0 -0.631473,-0.250472 -0.225778,-0.250472 -0.225778,-0.694973 0,-0.440972 0.232834,-0.712611 0.236361,-0.275167 0.613833,-0.275167 0.419806,0 0.62089,0.28575 0.204611,0.282222 0.204611,0.716139 v 0.04233 h -1.368779 l -0.0035,0.02117 q 0,0.289278 0.151695,0.455084 0.151694,0.165806 0.416278,0.165806 0.197556,0 0.310445,-0.09172 0.116416,-0.09172 0.179916,-0.296333 z m -0.289278,-0.497417 q -0.02117,-0.261056 -0.15875,-0.405695 -0.137583,-0.148166 -0.363361,-0.148166 -0.218723,0 -0.363362,0.148166 -0.144639,0.148167 -0.172861,0.405695 z"
         style="font-family:HelveticaNeueCyr;-inkscape-font-specification:HelveticaNeueCyr"
         id="path478" />
      <path
         d="m 78.413914,77.713564 h -0.321028 q -0.05292,-0.511528 -0.624417,-0.511528 -0.27164,0 -0.419806,0.109361 -0.148167,0.109361 -0.148167,0.306917 0,0.07055 0.02117,0.123472 0.02117,0.05292 0.07055,0.09525 0.05292,0.03881 0.09878,0.06703 0.04586,0.02822 0.144639,0.05644 0.09878,0.02822 0.15875,0.04233 0.05997,0.01058 0.186972,0.0388 0.155223,0.03175 0.257528,0.05997 0.102306,0.02469 0.243417,0.08467 0.141111,0.05997 0.22225,0.134056 0.08467,0.07056 0.144639,0.1905 0.0635,0.119945 0.0635,0.271639 0,0.264584 -0.148166,0.4445 -0.148167,0.176389 -0.359834,0.246945 -0.211667,0.07056 -0.469195,0.07056 -0.472722,0 -0.758472,-0.222251 -0.282223,-0.225777 -0.282223,-0.663222 h 0.321028 q 0.01058,0.321028 0.215195,0.469195 0.204611,0.144639 0.532695,0.144639 0.257528,0 0.440972,-0.105834 0.183445,-0.109361 0.183445,-0.352778 0,-0.112889 -0.04939,-0.1905 -0.04939,-0.08114 -0.155223,-0.130528 -0.105833,-0.05292 -0.211666,-0.08467 -0.105834,-0.03175 -0.278695,-0.07055 -0.02469,-0.0035 -0.03528,-0.0071 -0.388056,-0.08819 -0.508,-0.141111 -0.366889,-0.15875 -0.366889,-0.546806 0,-0.359833 0.264583,-0.536222 0.268112,-0.179917 0.645584,-0.179917 0.41275,0 0.659695,0.197555 0.246944,0.197556 0.261056,0.58914 z"
         style="font-family:HelveticaNeueCyr;-inkscape-font-specification:HelveticaNeueCyr"
         id="path480" />
      <path
         d="m 81.144419,79.495093 -0.172861,0.208139 -0.381001,-0.306917 q -0.261055,0.151694 -0.613833,0.151694 -0.564445,0 -0.881945,-0.381 -0.313973,-0.381 -0.313973,-0.963084 0,-0.582084 0.328084,-0.931334 0.328083,-0.352778 0.874889,-0.352778 0.557389,0 0.878417,0.34925 0.324556,0.345723 0.324556,0.952501 0,0.652639 -0.373944,1.008945 z m -0.910167,-0.726723 0.331611,0.271639 q 0.289278,-0.289278 0.289278,-0.811389 0,-0.46214 -0.236361,-0.740834 -0.236362,-0.282223 -0.627945,-0.282223 -0.419806,0 -0.649112,0.292806 -0.229305,0.289278 -0.229305,0.719667 0,0.448028 0.22225,0.74789 0.225778,0.299861 0.663222,0.299861 0.201084,0 0.342195,-0.07056 l -0.282222,-0.22225 z"
         style="font-family:HelveticaNeueCyr;-inkscape-font-specification:HelveticaNeueCyr"
         id="path482" />
      <path
         d="m 83.27167,79.198759 v 0.289278 h -1.665112 v -2.511779 h 0.331611 v 2.222501 z"
         style="font-family:HelveticaNeueCyr;-inkscape-font-specification:HelveticaNeueCyr"
         id="path484" />
    </g>
    <g
       aria-label="Picodata"
       id="text11766"
       style="font-size:3.52778px;line-height:1.25;stroke-width:0.264583">
      <path
         d="m 73.959965,66.536324 h 1.083028 q 0.423334,0 0.670279,0.204611 0.250472,0.201084 0.250472,0.603251 0,0.395111 -0.246945,0.599722 -0.246944,0.201084 -0.645583,0.201084 h -0.564445 v 0.903111 h -0.546806 z m 0.546806,0.451556 v 0.723195 h 0.490361 q 0.430389,0 0.430389,-0.359834 0,-0.363361 -0.426861,-0.363361 z"
         style="font-weight:bold;font-family:HelveticaNeueCyr;-inkscape-font-specification:'HelveticaNeueCyr Bold'"
         id="path435" />
      <path
         d="m 76.771605,66.536324 v 0.423334 H 76.27066 v -0.423334 z m 0,0.691445 v 1.820334 H 76.27066 v -1.820334 z"
         style="font-weight:bold;font-family:HelveticaNeueCyr;-inkscape-font-specification:'HelveticaNeueCyr Bold'"
         id="path437" />
      <path
         d="m 78.902382,68.346075 q -0.04586,0.352778 -0.278695,0.550334 -0.229305,0.197555 -0.592667,0.197555 -0.419806,0 -0.673806,-0.257527 -0.254,-0.257528 -0.254,-0.68439 0,-0.440972 0.254,-0.709084 0.257528,-0.268111 0.680862,-0.268111 0.363361,0 0.592667,0.186972 0.229305,0.183445 0.261056,0.500945 h -0.490362 q -0.05644,-0.313972 -0.359833,-0.313972 -0.204612,0 -0.321028,0.15875 -0.112889,0.155222 -0.112889,0.433917 0,0.271639 0.109361,0.423333 0.112889,0.148167 0.313972,0.148167 0.328084,0 0.388056,-0.366889 z"
         style="font-weight:bold;font-family:HelveticaNeueCyr;-inkscape-font-specification:'HelveticaNeueCyr Bold'"
         id="path439" />
      <path
         d="m 80.087714,67.174852 q 0.419806,0 0.673806,0.264584 0.257528,0.264583 0.257528,0.6985 0,0.437445 -0.257528,0.702028 -0.254,0.264584 -0.680862,0.264584 -0.426861,0 -0.684389,-0.264584 -0.257528,-0.264583 -0.257528,-0.702028 0,-0.433917 0.261056,-0.6985 0.261056,-0.264584 0.687917,-0.264584 z m -0.01411,0.381 q -0.201084,0 -0.3175,0.155223 -0.116417,0.155222 -0.116417,0.426861 0,0.278695 0.116417,0.433917 0.116416,0.155222 0.324555,0.155222 0.208139,0 0.321028,-0.155222 0.116417,-0.15875 0.116417,-0.437445 0,-0.271639 -0.119944,-0.423333 -0.116417,-0.155223 -0.324556,-0.155223 z"
         style="font-weight:bold;font-family:HelveticaNeueCyr;-inkscape-font-specification:'HelveticaNeueCyr Bold'"
         id="path441" />
      <path
         d="M 83.121605,69.048103 H 82.648882 V 68.81527 q -0.179916,0.282222 -0.550333,0.282222 -0.377473,0 -0.603251,-0.261055 -0.22225,-0.264584 -0.22225,-0.705556 0,-0.43039 0.215195,-0.691445 0.218722,-0.261056 0.582084,-0.261056 0.169333,0 0.3175,0.07056 0.151694,0.07055 0.236361,0.204611 v -0.917223 h 0.497417 z m -0.479778,-0.913695 q 0,-0.264583 -0.116417,-0.41275 -0.112889,-0.148167 -0.3175,-0.148167 -0.204611,0 -0.3175,0.148167 -0.112889,0.148167 -0.112889,0.409223 0,0.264583 0.112889,0.416278 0.116416,0.148166 0.3175,0.148166 0.208139,0 0.321028,-0.144639 0.112889,-0.148166 0.112889,-0.416278 z"
         style="font-weight:bold;font-family:HelveticaNeueCyr;-inkscape-font-specification:'HelveticaNeueCyr Bold'"
         id="path443" />
      <path
         d="m 85.19594,69.048103 h -0.508001 q -0.02469,-0.07055 -0.03528,-0.176389 -0.229306,0.229306 -0.58914,0.229306 -0.303389,0 -0.47625,-0.144639 -0.172861,-0.148167 -0.172861,-0.405695 0,-0.116416 0.02822,-0.204611 0.03175,-0.08819 0.09878,-0.148167 0.07055,-0.05997 0.130528,-0.09878 0.0635,-0.0388 0.172861,-0.0635 0.109361,-0.02469 0.176389,-0.03528 0.06703,-0.01411 0.186972,-0.02822 0.264584,-0.03528 0.352778,-0.07408 0.09172,-0.03881 0.09172,-0.144639 0,-0.243417 -0.328084,-0.243417 -0.172861,0 -0.254,0.0635 -0.08114,0.05997 -0.105834,0.215195 H 83.49555 q 0.04233,-0.613834 0.843139,-0.613834 0.793751,0 0.793751,0.592667 v 0.786695 q 0,0.345723 0.0635,0.493889 z m -0.546806,-0.885472 q -0.08819,0.05292 -0.352778,0.09525 -0.22225,0.03528 -0.289278,0.08819 -0.07761,0.0635 -0.07761,0.183445 0,0.112889 0.07055,0.179916 0.07408,0.0635 0.204612,0.0635 0.201083,0 0.321028,-0.105833 0.123472,-0.109361 0.123472,-0.299861 z"
         style="font-weight:bold;font-family:HelveticaNeueCyr;-inkscape-font-specification:'HelveticaNeueCyr Bold'"
         id="path445" />
      <path
         d="m 86.529439,67.227769 v 0.338667 h -0.370417 v 0.85725 q 0,0.08114 0.0035,0.119945 0.0035,0.03528 0.02469,0.07408 0.02117,0.03881 0.0635,0.05292 0.04586,0.01058 0.127,0.01058 0.09172,0 0.151694,-0.0071 v 0.381 q -0.183444,0.01411 -0.303389,0.01411 -0.328083,0 -0.448028,-0.112889 -0.116417,-0.116417 -0.116417,-0.4445 v -0.945445 h -0.303389 v -0.338667 h 0.303389 v -0.550334 h 0.497417 v 0.550334 z"
         style="font-weight:bold;font-family:HelveticaNeueCyr;-inkscape-font-specification:'HelveticaNeueCyr Bold'"
         id="path447" />
      <path
         d="m 88.46266,69.048103 h -0.508001 q -0.02469,-0.07055 -0.03528,-0.176389 -0.229305,0.229306 -0.589139,0.229306 -0.303389,0 -0.47625,-0.144639 -0.172861,-0.148167 -0.172861,-0.405695 0,-0.116416 0.02822,-0.204611 0.03175,-0.08819 0.09878,-0.148167 0.07055,-0.05997 0.130528,-0.09878 0.0635,-0.0388 0.172861,-0.0635 0.109361,-0.02469 0.176389,-0.03528 0.06703,-0.01411 0.186972,-0.02822 0.264584,-0.03528 0.352778,-0.07408 0.09172,-0.03881 0.09172,-0.144639 0,-0.243417 -0.328083,-0.243417 -0.172861,0 -0.254,0.0635 -0.08114,0.05997 -0.105834,0.215195 H 86.76227 q 0.04233,-0.613834 0.843139,-0.613834 0.793751,0 0.793751,0.592667 v 0.786695 q 0,0.345723 0.0635,0.493889 z m -0.546806,-0.885472 q -0.08819,0.05292 -0.352778,0.09525 -0.222251,0.03528 -0.289278,0.08819 -0.07761,0.0635 -0.07761,0.183445 0,0.112889 0.07055,0.179916 0.07408,0.0635 0.204611,0.0635 0.201084,0 0.321028,-0.105833 0.123473,-0.109361 0.123473,-0.299861 z"
         style="font-weight:bold;font-family:HelveticaNeueCyr;-inkscape-font-specification:'HelveticaNeueCyr Bold'"
         id="path449" />
    </g>
  </g>
</svg>
