<?xml version="1.0" encoding="UTF-8" standalone="no"?>
<!-- Created with Inkscape (http://www.inkscape.org/) -->

<svg
   width="399.22681"
   height="260.92468"
   viewBox="0 0 399.22681 260.92468"
   version="1.1"
   id="svg1"
   inkscape:version="1.4 (unknown)"
   sodipodi:docname="replicaset.svg"
   inkscape:export-filename="cluster_map.png"
   inkscape:export-xdpi="200"
   inkscape:export-ydpi="200"
   xmlns:inkscape="http://www.inkscape.org/namespaces/inkscape"
   xmlns:sodipodi="http://sodipodi.sourceforge.net/DTD/sodipodi-0.dtd"
   xmlns:xlink="http://www.w3.org/1999/xlink"
   xmlns="http://www.w3.org/2000/svg"
   xmlns:svg="http://www.w3.org/2000/svg">
  <sodipodi:namedview
     id="namedview1"
     pagecolor="#ffffff"
     bordercolor="#666666"
     borderopacity="1.0"
     inkscape:showpageshadow="2"
     inkscape:pageopacity="0.0"
     inkscape:pagecheckerboard="0"
     inkscape:deskcolor="#d1d1d1"
     inkscape:document-units="mm"
     showguides="false"
     inkscape:zoom="2.0283688"
     inkscape:cx="232.4528"
     inkscape:cy="94.410839"
     inkscape:window-width="1920"
     inkscape:window-height="1134"
     inkscape:window-x="0"
     inkscape:window-y="0"
     inkscape:window-maximized="1"
     inkscape:current-layer="layer1" />
  <defs
     id="defs1">
    <linearGradient
       id="linearGradient139"
       inkscape:collect="always">
      <stop
         style="stop-color:#ffffff;stop-opacity:1;"
         offset="0"
         id="stop139" />
      <stop
         style="stop-color:#c3c3c3;stop-opacity:1;"
         offset="0.99773723"
         id="stop140" />
    </linearGradient>
    <linearGradient
       id="linearGradient133"
       inkscape:collect="always">
      <stop
         style="stop-color:#cccccc;stop-opacity:0.50736368;"
         offset="0"
         id="stop133" />
      <stop
         style="stop-color:#e7e7e7;stop-opacity:0;"
         offset="0.49700609"
         id="stop135" />
      <stop
         style="stop-color:#d1d1d1;stop-opacity:0.52094537;"
         offset="1"
         id="stop134" />
    </linearGradient>
    <inkscape:perspective
       sodipodi:type="inkscape:persp3d"
       inkscape:vp_x="-94.727726 : 595.42588 : 1"
       inkscape:vp_y="0 : 6124.1835 : 0"
       inkscape:vp_z="960.61461 : 662.28347 : 1"
       inkscape:persp3d-origin="245.27192 : -72.424673 : 1"
       id="perspective1" />
    <linearGradient
       inkscape:collect="always"
       xlink:href="#linearGradient133"
       id="linearGradient145"
       gradientUnits="userSpaceOnUse"
       gradientTransform="translate(-905.05183,66.22866)"
       x1="1232.27"
       y1="-189.80646"
       x2="1291.3629"
       y2="-189.80646" />
    <radialGradient
       inkscape:collect="always"
       xlink:href="#linearGradient139"
       id="radialGradient61"
       gradientUnits="userSpaceOnUse"
       gradientTransform="matrix(2.2436668e-6,-0.9734035,2.1474922,0,541.73697,993.82588)"
       cx="1112.4368"
       cy="-85.774612"
       fx="1112.4368"
       fy="-85.774612"
       r="30.264471" />
    <marker
       style="overflow:visible"
       id="ConcaveTriangle-7"
       refX="0"
       refY="0"
       orient="auto-start-reverse"
       inkscape:stockid="Concave triangle arrow"
       markerWidth="2"
       markerHeight="2"
       viewBox="0 0 1 1"
       inkscape:isstock="true"
       inkscape:collect="always"
       preserveAspectRatio="xMidYMid">
      <path
         transform="scale(0.7)"
         d="M -2,-4 9,0 -2,4 c 2,-2.33 2,-5.66 0,-8 z"
         style="fill:context-stroke;fill-rule:evenodd;stroke:none"
         id="path7-5" />
    </marker>
    <radialGradient
       inkscape:collect="always"
       xlink:href="#linearGradient1945"
       id="radialGradient35"
       gradientUnits="userSpaceOnUse"
       gradientTransform="matrix(2.2436668e-6,-0.9734035,2.1474922,0,541.73697,993.82588)"
       cx="1112.4368"
       cy="-85.774612"
       fx="1112.4368"
       fy="-85.774612"
       r="30.264471" />
    <linearGradient
       inkscape:collect="always"
       xlink:href="#linearGradient4220"
       id="linearGradient35"
       gradientUnits="userSpaceOnUse"
       gradientTransform="translate(-905.05183,66.22866)"
       x1="1232.27"
       y1="-189.80646"
       x2="1291.3629"
       y2="-189.80646" />
    <linearGradient
       inkscape:collect="always"
       id="linearGradient1945">
      <stop
         style="stop-color:#ffffff;stop-opacity:1"
         offset="0"
         id="stop139-1" />
      <stop
         style="stop-color:#c3c3c3;stop-opacity:1"
         offset="0.99773723"
         id="stop140-1" />
    </linearGradient>
    <linearGradient
       inkscape:collect="always"
       id="linearGradient4220">
      <stop
         style="stop-color:#cccccc;stop-opacity:0.50736368"
         offset="0"
         id="stop133-1" />
      <stop
         style="stop-color:#e7e7e7;stop-opacity:0"
         offset="0.49700609"
         id="stop135-1" />
      <stop
         style="stop-color:#d1d1d1;stop-opacity:0.52094537"
         offset="1"
         id="stop134-1" />
    </linearGradient>
  </defs>
  <g
     inkscape:label="Layer 1"
     inkscape:groupmode="layer"
     id="layer1"
     transform="translate(-437.47318,197.12508)">
    <path
       d="M 633.09392,59.610161 629.8456,53.54526 h -3.51558 v 6.064901 h -1.98395 V 44.64322 h 4.95472 q 2.51848,0 3.87537,1.151303 1.36717,1.151303 1.36717,3.340835 0,1.398011 -0.76068,2.446519 -0.7504,1.038229 -2.08674,1.552204 l 3.51559,6.352726 v 0.123354 z m -6.7639,-13.342781 v 5.664 h 3.03245 q 1.59332,0 2.39512,-0.81208 0.81208,-0.822359 0.81208,-1.983942 0,-1.295216 -0.78124,-2.076457 -0.77096,-0.791521 -2.48764,-0.791521 z m 19.50019,11.399957 q -0.54481,0.822359 -1.54192,1.490526 -0.99711,0.657888 -2.64183,0.657888 -2.32316,0 -3.72118,-1.511086 -1.38773,-1.511085 -1.38773,-3.865089 v -0.431739 q 0,-1.81947 0.68873,-3.094127 0.699,-1.284936 1.80919,-1.953103 1.11018,-0.678447 2.36428,-0.678447 2.38484,0 3.47447,1.562483 1.09991,1.552203 1.09991,3.885648 v 0.853198 h -7.52459 q 0.0411,1.531644 0.90459,2.610991 0.87376,1.069067 2.39513,1.069067 1.00739,0 1.70639,-0.411179 0.69901,-0.41118 1.22326,-1.099906 z m -4.43046,-7.822694 q -1.13074,0 -1.91198,0.822359 -0.78124,0.82236 -0.97655,2.364284 h 5.5612 v -0.143913 q -0.072,-1.110185 -0.64761,-2.076458 -0.56537,-0.966272 -2.02506,-0.966272 z m 11.87282,9.971108 q -2.00451,0 -3.17637,-1.284937 v 5.355616 h -1.91198 V 48.48775 h 1.74751 l 0.0925,1.22326 q 1.17186,-1.42885 3.21748,-1.42885 2.10729,0 3.22776,1.562483 1.12046,1.562483 1.12046,4.111797 v 0.215869 q 0,2.43624 -1.13074,4.039841 -1.12047,1.603601 -3.18664,1.603601 z m -0.58594,-9.92999 q -1.72695,0 -2.59043,1.531644 v 5.324777 q 0.87376,1.511086 2.61099,1.511086 1.54193,0 2.25121,-1.21298 0.71957,-1.21298 0.71957,-2.867979 V 53.95644 q 0,-1.654998 -0.71957,-2.857699 -0.70928,-1.21298 -2.27177,-1.21298 z m 9.39546,-6.064901 v 15.789301 h -1.91198 V 43.82086 Z m 3.06329,1.716676 q 0,-0.462578 0.27755,-0.781242 0.28782,-0.318664 0.84291,-0.318664 0.54482,0 0.83264,0.318664 0.29811,0.318664 0.29811,0.781242 0,0.442018 -0.29811,0.760682 -0.28782,0.308385 -0.83264,0.308385 -0.55509,0 -0.84291,-0.308385 -0.27755,-0.318664 -0.27755,-0.760682 z m 2.0559,2.950214 v 11.122411 h -1.91199 V 48.48775 Z m 7.50403,9.765518 q 1.01767,0 1.77835,-0.60649 0.77096,-0.60649 0.84292,-1.552204 h 1.80919 q -0.072,1.490527 -1.36717,2.610991 -1.29522,1.110186 -3.06329,1.110186 -2.5082,0 -3.73146,-1.654999 -1.21298,-1.654998 -1.21298,-3.895927 v -0.431739 q 0,-2.240929 1.21298,-3.895928 1.22326,-1.654998 3.73146,-1.654998 1.9531,0 3.1558,1.161583 1.2027,1.151303 1.27466,2.867978 h -1.80919 q -0.072,-1.027949 -0.78124,-1.747514 -0.69901,-0.719564 -1.84003,-0.719564 -1.17187,0 -1.84003,0.596211 -0.65789,0.59621 -0.93544,1.511085 -0.26726,0.914875 -0.26726,1.881147 v 0.431739 q 0,0.976552 0.26726,1.891426 0.26727,0.914875 0.92516,1.511086 0.66816,0.585931 1.85031,0.585931 z m 13.43529,1.356893 q -0.18503,-0.4009 -0.26726,-1.171862 -0.53454,0.565372 -1.33634,0.976551 -0.8018,0.400901 -1.82975,0.400901 -1.70639,0 -2.73434,-0.955993 -1.02795,-0.955993 -1.02795,-2.343724 0,-1.788632 1.35689,-2.713786 1.35689,-0.935434 3.64922,-0.935434 h 1.88115 v -0.884037 q 0,-0.986831 -0.59621,-1.572762 -0.58593,-0.596211 -1.74752,-0.596211 -1.07934,0 -1.74751,0.534534 -0.65789,0.524254 -0.65789,1.22326 h -1.9017 q 0,-1.192421 1.2027,-2.24093 1.2027,-1.048508 3.21748,-1.048508 1.80919,0 2.97077,0.925154 1.16158,0.925155 1.16158,2.796022 v 4.995834 q 0,1.541924 0.39062,2.446519 v 0.164472 z m -3.1558,-1.459688 q 1.02795,0 1.77835,-0.513975 0.76068,-0.513974 1.06907,-1.141023 v -2.292327 h -1.76807 q -3.20721,0.06168 -3.20721,2.055898 0,0.791521 0.53454,1.346614 0.53453,0.544813 1.59332,0.544813 z m 14.21654,-1.490527 q 0,-0.60649 -0.4523,-1.089626 -0.44202,-0.493415 -2.0559,-0.822359 -1.86059,-0.380341 -2.96049,-1.099906 -1.09991,-0.729844 -1.09991,-2.117575 0,-1.315775 1.12047,-2.282048 1.13074,-0.966272 3.00161,-0.966272 1.99422,0 3.11468,1.01767 1.12047,1.01767 1.12047,2.456799 h -1.90171 q 0,-0.688726 -0.60649,-1.295216 -0.60649,-0.61677 -1.72695,-0.61677 -1.18214,0 -1.69612,0.513975 -0.51397,0.513974 -0.51397,1.120464 0,0.60649 0.47285,0.986832 0.48314,0.370061 2.03534,0.719564 2.04562,0.462577 3.04273,1.21298 1.00739,0.750403 1.00739,2.117576 0,1.469967 -1.18214,2.384842 -1.17186,0.914875 -3.11468,0.914875 -2.2101,0 -3.38196,-1.130744 -1.17186,-1.130745 -1.17186,-2.508197 h 1.91199 q 0.0617,1.182142 0.90459,1.63444 0.8532,0.442018 1.73724,0.442018 1.16158,0 1.77835,-0.452298 0.61677,-0.452298 0.61677,-1.141024 z m 13.18859,1.007391 q -0.54482,0.822359 -1.54193,1.490526 -0.99711,0.657888 -2.64183,0.657888 -2.32316,0 -3.72117,-1.511086 -1.38773,-1.511085 -1.38773,-3.865089 v -0.431739 q 0,-1.81947 0.68872,-3.094127 0.69901,-1.284936 1.80919,-1.953103 1.11019,-0.678447 2.36429,-0.678447 2.38484,0 3.47446,1.562483 1.09991,1.552203 1.09991,3.885648 v 0.853198 h -7.52459 q 0.0411,1.531644 0.9046,2.610991 0.87375,1.069067 2.39512,1.069067 1.00739,0 1.70639,-0.411179 0.69901,-0.41118 1.22326,-1.099906 z m -4.43046,-7.822694 q -1.13075,0 -1.91199,0.822359 -0.78124,0.82236 -0.97655,2.364284 h 5.5612 v -0.143913 q -0.072,-1.110185 -0.6476,-2.076458 -0.56538,-0.966272 -2.02506,-0.966272 z m 11.50275,9.765518 q -0.64761,0.20559 -1.46997,0.20559 -1.05879,0 -1.80919,-0.647608 -0.7504,-0.647608 -0.7504,-2.323166 v -6.897539 h -2.03534 V 48.48775 h 2.03534 v -2.703507 h 1.9017 v 2.703507 h 2.07646 v 1.459688 h -2.07646 v 6.907819 q 0,0.853198 0.37006,1.089626 0.37007,0.236428 0.8532,0.236428 0.35978,0 0.89432,-0.123354 z"
       id="text103-2"
       style="font-size:21.0524px;line-height:1.25;font-family:HelveticaNeueCyr;-inkscape-font-specification:HelveticaNeueCyr;text-align:center;text-anchor:middle;stroke-width:0.526308"
       aria-label="Replicaset" />
    <g
       id="g37"
       transform="matrix(1.9891981,0,0,1.9891981,-449.30389,194.99575)">
      <path
         d="m 563.65434,-133.47259 a 82.650212,27.178347 0 0 0 -82.65032,27.17854 82.650212,27.178347 0 0 0 82.65032,27.178569 82.650212,27.178347 0 0 0 82.6503,-27.178569 82.650212,27.178347 0 0 0 -82.6503,-27.17854 z"
         style="fill:none;fill-opacity:1;stroke:#000000;stroke-width:0.377953;stroke-dasharray:none;stroke-opacity:1"
         id="path276" />
      <g
         id="g35"
         transform="translate(225.4291,-21.893953)"
         style="opacity:0.696675">
        <path
           id="path4"
           style="fill:#ffffff;fill-opacity:0.86519;stroke:#000000;stroke-width:0.264999"
           d="m 356.76745,-175.09862 c -16.6416,-1e-5 -30.1322,4.8473 -30.1321,10.82673 0.01,0.04 0.013,0.0799 0.02,0.11989 v 68.598387 c -0.01,0.0399 -0.014,0.0799 -0.02,0.11989 0.01,0.04 0.013,0.0799 0.02,0.11989 v 0.0961 h 0.016 c 0.327,5.88986 13.7004,10.60484 30.096,10.61072 16.4046,-0.001 29.792,-4.71762 30.1191,-10.61073 h 0.017 v -69.138377 h -0.01 c -0.1286,-5.94585 -13.5787,-10.74176 -30.1273,-10.7425 z"
           sodipodi:nodetypes="ccccccccccccccc" />
        <path
           id="ellipse4"
           style="fill:url(#radialGradient35);stroke:#000000;stroke-width:0.264999"
           d="m 386.90013,-95.433655 a 30.131971,10.826639 0 0 1 -30.13197,10.826639 30.131971,10.826639 0 0 1 -30.13197,-10.826639 30.131971,10.826639 0 0 1 30.13197,-10.826635 30.131971,10.826639 0 0 1 30.13197,10.826635 z" />
        <g
           id="g7"
           transform="translate(157.71423,-125.98414)">
          <path
             id="path5"
             style="fill:#444444;fill-opacity:0.988235;stroke:#000000;stroke-width:0.264999"
             d="m 198.98148,19.723587 c -11.04678,0.003 -21.20295,2.17824 -26.46661,5.66788 h -3.69486 v 4.85551 c 0,0 0.003,-0.15598 2.3e-4,-0.005 -1.4e-4,5.97943 13.51929,11.13516 30.16084,11.13515 16.64154,10e-6 30.16241,-5.11536 30.16227,-11.09479 0.002,-0.032 -0.004,-0.003 -8.6e-4,-0.0209 v -4.86993 h -3.67573 c -5.26693,-3.49185 -15.43209,-5.66716 -26.48572,-5.66792 z"
             sodipodi:nodetypes="cccccscccccc" />
          <path
             d="m 199.15585,14.383863 a 30.131971,10.826639 0 0 0 -30.13203,10.82673 30.131971,10.826639 0 0 0 30.13203,10.82673 30.131971,10.826639 0 0 0 30.13201,-10.82673 30.131971,10.826639 0 0 0 -30.13201,-10.82673 z"
             style="fill:#4e4e4e;fill-opacity:0.988235;stroke:#000000;stroke-width:0.264999"
             id="path7" />
        </g>
        <g
           id="g12"
           transform="translate(164.93257,-119.51034)">
          <path
             id="path11"
             style="fill:#b1b1b1;fill-opacity:0.988235;stroke:#000000;stroke-width:0.264999"
             d="m 191.835,0.37581 c -11.04678,0.003 -21.20295,2.17824 -26.46661,5.66788 h -3.69486 v 4.85551 c 0,0 0.003,-0.15598 2.3e-4,-0.005 -1.4e-4,5.97943 13.51929,11.13516 30.16084,11.13515 16.64154,10e-6 30.16241,-5.11536 30.16227,-11.09479 0.002,-0.032 -0.004,-0.003 -8.6e-4,-0.0209 V 6.04373 h -3.67573 C 213.05335,2.55188 202.88819,0.37657 191.83456,0.37581 Z"
             sodipodi:nodetypes="cccccscccccc" />
          <path
             d="M 191.83507,-4.78961 A 30.131971,10.826639 0 0 0 161.70304,6.03712 30.131971,10.826639 0 0 0 191.83507,16.86385 30.131971,10.826639 0 0 0 221.96708,6.03712 30.131971,10.826639 0 0 0 191.83507,-4.78961 Z"
             style="fill:#c6c6c6;fill-opacity:1;stroke:#000000;stroke-width:0.264999"
             id="path12" />
        </g>
        <g
           id="g16"
           transform="translate(165.90363,-286.5212)">
          <path
             id="path15"
             style="fill:#c3c3c3;fill-opacity:0.866667;stroke:#000000;stroke-width:0.264999"
             d="m 190.86394,154.687 c -11.04678,0.003 -21.20295,2.17824 -26.46661,5.66788 h -3.69486 v 4.85551 c 0,0 0.003,-0.15598 2.3e-4,-0.005 -1.4e-4,5.97943 13.51929,11.13516 30.16084,11.13515 16.64154,1e-5 30.16241,-5.11536 30.16227,-11.09479 0.002,-0.032 -0.004,-0.003 -8.6e-4,-0.0209 v -4.86993 h -3.67573 c -5.26693,-3.49185 -15.43209,-5.66716 -26.48572,-5.66792 z"
             sodipodi:nodetypes="cccccscccccc" />
          <path
             d="m 190.86401,149.52158 a 30.131971,10.826639 0 0 0 -30.13203,10.82673 30.131971,10.826639 0 0 0 30.13203,10.82673 30.131971,10.826639 0 0 0 30.13201,-10.82673 30.131971,10.826639 0 0 0 -30.13201,-10.82673 z"
             style="fill:#cfcfcf;fill-opacity:1;stroke:#000000;stroke-width:0.264999"
             id="path16" />
        </g>
        <g
           id="g21"
           transform="translate(166.06776,-149.56315)">
          <path
             id="path20"
             style="fill:#757575;fill-opacity:1;stroke:#000000;stroke-width:0.264999"
             d="m 190.69981,5.029293 c -11.04678,0.0033 -21.20295,2.178235 -26.46661,5.667871 h -3.69486 v 4.855518 c 0,0 0.003,-0.155984 2.3e-4,-0.005 -1.4e-4,5.97943 13.51929,11.135154 30.16084,11.135144 16.64154,8e-6 30.16241,-5.115362 30.16227,-11.094791 0.002,-0.03197 -0.004,-0.0032 -8.6e-4,-0.02087 v -4.86993 h -3.67574 C 211.91815,7.205392 201.75299,5.030075 190.69936,5.02932 Z"
             sodipodi:nodetypes="cccccscccccc" />
          <path
             d="M 190.69987,-0.136133 A 30.131971,10.826639 0 0 0 160.56785,10.690596 30.131971,10.826639 0 0 0 190.69987,21.517327 30.131971,10.826639 0 0 0 220.83189,10.690596 30.131971,10.826639 0 0 0 190.69987,-0.136133 Z"
             style="fill:#868686;fill-opacity:1;stroke:#000000;stroke-width:0.264999"
             id="path21" />
        </g>
        <path
           d="m 356.76822,-175.09862 a 30.131971,10.826639 0 0 0 -30.1321,10.82673 30.131971,10.826639 0 0 0 30.1321,10.82673 30.131971,10.826639 0 0 0 30.132,-10.82673 30.131971,10.826639 0 0 0 -30.132,-10.82673 z"
           style="fill:#ffffff;fill-opacity:1;stroke:#000000;stroke-width:0.264999"
           id="path27" />
        <g
           id="g31"
           transform="translate(165.90363,-282.85894)">
          <path
             id="path28"
             style="fill:#646464;fill-opacity:1;stroke:#000000;stroke-width:0.264999"
             d="m 190.86394,125.62541 c -11.04678,0.003 -21.20295,2.17823 -26.46661,5.66787 h -3.69486 v 4.85552 c 0,0 0.003,-0.15599 2.3e-4,-0.005 -1.4e-4,5.97943 13.51929,11.13515 30.16084,11.13514 16.64154,1e-5 30.16241,-5.11536 30.16227,-11.09479 0.002,-0.032 -0.004,-0.003 -8.6e-4,-0.0209 v -4.86993 h -3.67573 c -5.26693,-3.49184 -15.4321,-5.66716 -26.48573,-5.66791 z"
             sodipodi:nodetypes="cccccscccccc" />
          <path
             d="m 190.86401,120.45998 a 30.131971,10.826639 0 0 0 -30.13203,10.82673 30.131971,10.826639 0 0 0 30.13203,10.82673 30.131971,10.826639 0 0 0 30.13201,-10.82673 30.131971,10.826639 0 0 0 -30.13201,-10.82673 z"
             style="fill:#787878;fill-opacity:1;stroke:#000000;stroke-width:0.264999"
             id="path31" />
        </g>
        <path
           id="path32"
           style="fill:url(#linearGradient35);fill-opacity:1;stroke:none;stroke-width:0.264999"
           d="m 356.77064,-168.37536 c -11.046,0.003 -21.2015,2.17658 -26.4648,5.66601 h -3.6953 v 16.95457 0.0547 0.006 c 0,0.16204 0.015,0.32362 0.035,0.48437 -4e-4,0.0235 -0.01,0.0468 -0.01,0.0703 0.01,0.04 0.013,0.0791 0.02,0.11914 v 49.59849 c -0.01,0.04 -0.014,0.0811 -0.02,0.1211 0.01,0.04 0.013,0.0792 0.02,0.119137 v 0.0957 h 0.016 c 0.327,5.88986 13.7002,10.60545 30.0957,10.61133 16.4046,-0.001 29.79209,-4.71823 30.11919,-10.61133 h 0.018 v -50.137547 h -0.01 c 0.016,-0.14513 0.031,-0.28932 0.031,-0.43555 0,-0.032 8e-4,-0.004 0,-0.0215 v -17.02879 h -3.6758 c -5.26649,-3.49163 -15.43139,-5.66501 -26.48429,-5.66601 z"
           sodipodi:nodetypes="ccccsscccccccccccccsccccc" />
        <g
           id="g34"
           transform="translate(166.06776,-145.93132)">
          <path
             id="path33"
             style="fill:#939393;fill-opacity:1;stroke:#000000;stroke-width:0.264999"
             d="m 190.69981,-24.001879 c -11.04678,0.0033 -21.20295,2.178235 -26.46661,5.667871 h -3.69486 v 4.855518 c 0,0 0.003,-0.155984 2.3e-4,-0.005 -1.4e-4,5.97943 13.51929,11.135154 30.16084,11.135144 16.64154,8e-6 30.16241,-5.115362 30.16227,-11.094791 0.002,-0.03197 -0.004,-0.0032 -8.6e-4,-0.02087 v -4.86993 h -3.67574 c -5.26693,-3.491843 -15.43209,-5.66716 -26.48572,-5.667915 z"
             sodipodi:nodetypes="cccccscccccc" />
          <path
             d="m 190.69987,-29.167305 a 30.131971,10.826639 0 0 0 -30.13202,10.826729 30.131971,10.826639 0 0 0 30.13202,10.826731 30.131971,10.826639 0 0 0 30.13202,-10.826731 30.131971,10.826639 0 0 0 -30.13202,-10.826729 z"
             style="fill:#9b9b9b;fill-opacity:1;stroke:#000000;stroke-width:0.264999"
             id="path34" />
        </g>
      </g>
      <path
         d="m 579.1345,-95.612136 q -0.60966,0.07412 -0.76809,0.626593 l 0.31448,2.586841 -0.62313,0.07575 -0.44305,-3.644482 0.60629,-0.07371 0.0642,0.416029 q 0.24082,-0.521476 0.80669,-0.590268 0.17515,-0.02129 0.28193,0.01358 l 0.0671,0.579754 q -0.14137,-0.01016 -0.30642,0.0099 z m 3.99134,1.996289 q -0.14281,0.292622 -0.44029,0.554299 -0.29792,0.258312 -0.83616,0.329269 -0.76025,0.100228 -1.28295,-0.333963 -0.51933,-0.434634 -0.62088,-1.204984 l -0.0186,-0.141287 q -0.0785,-0.595423 0.0919,-1.042269 0.17331,-0.450654 0.5078,-0.717208 0.33404,-0.269919 0.74444,-0.324024 0.78044,-0.102888 1.20443,0.361427 0.42691,0.460507 0.52758,1.224129 l 0.0368,0.27921 -2.46242,0.32463 q 0.0795,0.499458 0.40867,0.815423 0.33206,0.312157 0.82993,0.246521 0.32967,-0.04346 0.54068,-0.208177 0.21101,-0.164716 0.35286,-0.41272 z m -1.78736,-2.368843 q -0.37004,0.04878 -0.59022,0.351606 -0.22018,0.302823 -0.21758,0.815845 l 1.81991,-0.239925 -0.006,-0.04709 q -0.0714,-0.360205 -0.30151,-0.651584 -0.22671,-0.291822 -0.70439,-0.228847 z m 4.31413,2.72333 q -0.65478,0.09511 -1.09854,-0.269009 l 0.25412,1.749434 -0.62455,0.09073 -0.73068,-5.030043 0.57083,-0.08292 0.0883,0.395193 q 0.31499,-0.522346 0.9832,-0.619412 0.68836,-0.09999 1.1285,0.357233 0.44015,0.457224 0.56111,1.289968 l 0.0103,0.07052 q 0.1156,0.795808 -0.17767,1.373285 -0.28992,0.57699 -0.96484,0.675031 z m -0.66258,-3.215869 q -0.56412,0.08194 -0.7735,0.623235 l 0.25266,1.739361 q 0.35712,0.452142 0.9246,0.369709 0.50367,-0.07317 0.67781,-0.503046 0.17749,-0.430369 0.099,-0.970981 l -0.0102,-0.07052 q -0.0785,-0.540612 -0.37065,-0.899335 -0.28925,-0.362569 -0.79964,-0.288428 z m 2.72659,-2.436004 0.80106,5.149843 -0.62361,0.097 -0.80106,-5.149843 z m 1.05643,0.406194 q -0.0244,-0.150724 0.0492,-0.269207 0.077,-0.119025 0.25783,-0.148327 0.17752,-0.02876 0.28813,0.05988 0.11395,0.0881 0.13837,0.238819 0.0233,0.144025 -0.057,0.263593 -0.0775,0.115676 -0.25502,0.144435 -0.18087,0.0293 -0.29093,-0.05599 -0.10726,-0.08918 -0.13059,-0.233205 z m 0.82562,0.852755 0.58712,3.624063 -0.62299,0.100929 -0.58713,-3.624063 z m 2.95518,2.77159 q 0.33102,-0.05715 0.54439,-0.297142 0.21671,-0.24057 0.18701,-0.552223 l 0.58847,-0.101601 q 0.0603,0.488864 -0.29807,0.926056 -0.35895,0.433847 -0.93405,0.533139 -0.81584,0.140857 -1.30667,-0.328768 -0.48749,-0.470203 -0.61334,-1.19911 l -0.0242,-0.140432 q -0.12585,-0.728908 0.17575,-1.335348 0.30495,-0.607019 1.12079,-0.747875 0.63529,-0.109683 1.09172,0.200603 0.45586,0.306943 0.57567,0.861285 l -0.58847,0.101602 q -0.0811,-0.330321 -0.35226,-0.524541 -0.26777,-0.194798 -0.63891,-0.13072 -0.38117,0.06581 -0.56503,0.297263 -0.1805,0.230875 -0.2194,0.544044 -0.0356,0.31259 0.0187,0.62689 l 0.0242,0.140432 q 0.0548,0.317643 0.19315,0.600215 0.13832,0.282572 0.38579,0.439556 0.25024,0.153063 0.63475,0.08667 z m 4.43756,-0.353369 q -0.0845,-0.11872 -0.15837,-0.363764 -0.1388,0.216084 -0.37373,0.3985 -0.23555,0.179083 -0.56898,0.24196 -0.5535,0.104376 -0.94541,-0.142838 -0.3919,-0.247214 -0.47679,-0.697346 -0.10941,-0.58017 0.27413,-0.963256 0.38292,-0.386421 1.12647,-0.526637 l 0.61018,-0.115065 -0.0541,-0.286751 q -0.0604,-0.320094 -0.28959,-0.473681 -0.22652,-0.157551 -0.6033,-0.0865 -0.3501,0.06602 -0.53414,0.280275 -0.18133,0.210292 -0.13857,0.437025 l -0.61685,0.116323 q -0.0729,-0.386781 0.25304,-0.800447 0.32598,-0.413666 0.97951,-0.536905 0.58684,-0.110664 1.0202,0.118373 0.43337,0.229037 0.54781,0.835882 l 0.30558,1.620476 q 0.0943,0.500147 0.27635,0.769673 l 0.0101,0.05335 z m -1.11292,-0.280439 q 0.33343,-0.06288 0.5454,-0.275494 0.2153,-0.213244 0.27697,-0.435501 l -0.14021,-0.743552 -0.5735,0.108149 q -1.03654,0.216183 -0.91456,0.86304 0.0484,0.256742 0.25576,0.404099 0.20671,0.144022 0.55014,0.07926 z m 4.12434,-0.320654 q -0.19601,0.108999 -0.46204,0.162956 -0.34251,0.06947 -0.62776,-0.09079 -0.28524,-0.160262 -0.39518,-0.702298 l -0.45256,-2.231324 -0.65843,0.133544 -0.0958,-0.472202 0.65842,-0.133544 -0.17738,-0.874573 0.61519,-0.12478 0.17738,0.874576 0.67173,-0.136242 0.0958,0.472203 -0.67172,0.136242 0.45324,2.23465 q 0.056,0.276005 0.19121,0.328208 0.13522,0.0522 0.29152,0.0205 0.11638,-0.02361 0.28121,-0.09858 z m -0.26042,-4.692764 q -0.0318,-0.14934 0.0359,-0.2713 0.071,-0.12267 0.25022,-0.16084 0.17588,-0.0375 0.29072,0.0456 0.11815,0.0824 0.14996,0.23172 0.0304,0.1427 -0.0439,0.26608 -0.0717,0.11935 -0.24761,0.15681 -0.1792,0.0382 -0.29333,-0.0416 -0.11152,-0.0838 -0.14191,-0.2265 z m 0.86659,0.811081 0.76481,3.590767 -0.61727,0.131474 -0.76481,-3.590767 z m 1.16897,1.594612 q -0.17807,-0.777235 0.13953,-1.396519 0.31685,-0.622594 1.06763,-0.794604 0.75078,-0.17201 1.3048,0.24061 0.55327,0.409314 0.73824,1.171047 l 0.025,0.109144 q 0.17808,0.777235 -0.14284,1.397277 -0.3176,0.619283 -1.06838,0.791295 -0.75408,0.172769 -1.31293,-0.245709 -0.55555,-0.419235 -0.73362,-1.196471 z m 0.62929,-0.06412 q 0.122,0.532489 0.46278,0.865171 0.34409,0.331924 0.85673,0.214471 0.49942,-0.114422 0.66618,-0.556426 0.16601,-0.445311 0.0473,-0.978558 l -0.0197,-0.08599 q -0.12048,-0.525875 -0.46532,-0.861106 -0.3456,-0.338539 -0.85494,-0.221844 -0.50603,0.115937 -0.66977,0.571171 -0.16119,0.451168 -0.0407,0.977043 z m 4.49329,-2.528818 q -0.29261,0.0746 -0.47593,0.28947 -0.18332,0.21484 -0.24698,0.500704 l 0.64822,2.541487 -0.60824,0.155138 -0.90735,-3.557429 0.57537,-0.14675 0.13294,0.43883 q 0.27442,-0.61276 0.93198,-0.78048 0.52277,-0.13333 0.90317,0.0813 0.38369,0.21379 0.56308,0.90339 l 0.59874,2.347507 -0.61153,0.155976 -0.59623,-2.337643 q -0.1065,-0.41755 -0.3359,-0.54814 -0.22612,-0.13142 -0.57134,-0.0434 z"
         id="text319"
         style="font-size:6.94903px;line-height:1.25;font-family:HelveticaNeueCyr;-inkscape-font-specification:HelveticaNeueCyr;text-align:center;text-anchor:middle;stroke-width:0.135951"
         transform="translate(0.12325,-2)"
         aria-label="replication" />
      <path
         style="fill:none;stroke:#000000;stroke-width:0.465;stroke-linecap:butt;stroke-linejoin:miter;stroke-miterlimit:4;stroke-dasharray:none;stroke-opacity:1;marker-end:url(#ConcaveTriangle-7)"
         d="m 544.84744,-90.315531 c 43.9608,0.28546 106.2582,-13.754179 73.1086,-23.510059"
         id="path320"
         sodipodi:nodetypes="cc" />
      <g
         id="g132"
         transform="translate(184.83804,-5.5463287)">
        <path
           id="path260"
           style="fill:#ffffff;fill-opacity:0.86519;stroke:#000000;stroke-width:0.264999"
           d="m 356.76745,-175.09862 c -16.6416,-1e-5 -30.1322,4.8473 -30.1321,10.82673 0.01,0.04 0.013,0.0799 0.02,0.11989 v 68.598387 c -0.01,0.0399 -0.014,0.0799 -0.02,0.11989 0.01,0.04 0.013,0.0799 0.02,0.11989 v 0.0961 h 0.016 c 0.327,5.88986 13.7004,10.60484 30.096,10.61072 16.4046,-0.001 29.792,-4.71762 30.1191,-10.61073 h 0.017 v -69.138377 h -0.01 c -0.1286,-5.94585 -13.5787,-10.74176 -30.1273,-10.7425 z"
           sodipodi:nodetypes="ccccccccccccccc" />
        <path
           id="ellipse48"
           style="fill:url(#radialGradient61);stroke:#000000;stroke-width:0.264999"
           d="m 386.90013,-95.433655 a 30.131971,10.826639 0 0 1 -30.13197,10.826639 30.131971,10.826639 0 0 1 -30.13197,-10.826639 30.131971,10.826639 0 0 1 30.13197,-10.826635 30.131971,10.826639 0 0 1 30.13197,10.826635 z" />
        <g
           id="g9"
           transform="translate(157.71423,-125.98414)">
          <path
             id="path8"
             style="fill:#378503;fill-opacity:0.988235;stroke:#000000;stroke-width:0.264999"
             d="m 198.98148,19.723587 c -11.04678,0.003 -21.20295,2.17824 -26.46661,5.66788 h -3.69486 v 4.85551 c 0,0 0.003,-0.15598 2.3e-4,-0.005 -1.4e-4,5.97943 13.51929,11.13516 30.16084,11.13515 16.64154,10e-6 30.16241,-5.11536 30.16227,-11.09479 0.002,-0.032 -0.004,-0.003 -8.6e-4,-0.0209 v -4.86993 h -3.67573 c -5.26693,-3.49185 -15.43209,-5.66716 -26.48572,-5.66792 z"
             sodipodi:nodetypes="cccccscccccc" />
          <path
             d="m 199.15585,14.383863 a 30.131971,10.826639 0 0 0 -30.13203,10.82673 30.131971,10.826639 0 0 0 30.13203,10.82673 30.131971,10.826639 0 0 0 30.13201,-10.82673 30.131971,10.826639 0 0 0 -30.13201,-10.82673 z"
             style="fill:#409a02;fill-opacity:0.988235;stroke:#000000;stroke-width:0.264999"
             id="path9" />
        </g>
        <g
           id="g6"
           transform="translate(164.93257,-119.51034)">
          <path
             id="path3"
             style="fill:#8ad8d5;fill-opacity:0.988235;stroke:#000000;stroke-width:0.264999"
             d="m 191.835,0.37581 c -11.04678,0.003 -21.20295,2.17824 -26.46661,5.66788 h -3.69486 v 4.85551 c 0,0 0.003,-0.15598 2.3e-4,-0.005 -1.4e-4,5.97943 13.51929,11.13516 30.16084,11.13515 16.64154,10e-6 30.16241,-5.11536 30.16227,-11.09479 0.002,-0.032 -0.004,-0.003 -8.6e-4,-0.0209 V 6.04373 h -3.67573 C 213.05335,2.55188 202.88819,0.37657 191.83456,0.37581 Z"
             sodipodi:nodetypes="cccccscccccc" />
          <path
             d="M 191.83507,-4.78961 A 30.131971,10.826639 0 0 0 161.70304,6.03712 30.131971,10.826639 0 0 0 191.83507,16.86385 30.131971,10.826639 0 0 0 221.96708,6.03712 30.131971,10.826639 0 0 0 191.83507,-4.78961 Z"
             style="fill:#a9e3e1;fill-opacity:1;stroke:#000000;stroke-width:0.264999"
             id="path6" />
        </g>
        <g
           id="g124"
           transform="translate(165.90363,-286.5212)">
          <path
             id="path1"
             style="fill:#eda699;fill-opacity:0.866667;stroke:#000000;stroke-width:0.264999"
             d="m 190.86394,154.687 c -11.04678,0.003 -21.20295,2.17824 -26.46661,5.66788 h -3.69486 v 4.85551 c 0,0 0.003,-0.15598 2.3e-4,-0.005 -1.4e-4,5.97943 13.51929,11.13516 30.16084,11.13515 16.64154,1e-5 30.16241,-5.11536 30.16227,-11.09479 0.002,-0.032 -0.004,-0.003 -8.6e-4,-0.0209 v -4.86993 h -3.67573 c -5.26693,-3.49185 -15.43209,-5.66716 -26.48572,-5.66792 z"
             sodipodi:nodetypes="cccccscccccc" />
          <path
             d="m 190.86401,149.52158 a 30.131971,10.826639 0 0 0 -30.13203,10.82673 30.131971,10.826639 0 0 0 30.13203,10.82673 30.131971,10.826639 0 0 0 30.13201,-10.82673 30.131971,10.826639 0 0 0 -30.13201,-10.82673 z"
             style="fill:#ebbdb4;fill-opacity:1;stroke:#000000;stroke-width:0.264999"
             id="path2" />
        </g>
        <g
           id="g117"
           transform="translate(166.06776,-149.56315)">
          <path
             id="path261"
             style="fill:#a4468c;fill-opacity:1;stroke:#000000;stroke-width:0.264999"
             d="m 190.69981,5.029293 c -11.04678,0.0033 -21.20295,2.178235 -26.46661,5.667871 h -3.69486 v 4.855518 c 0,0 0.003,-0.155984 2.3e-4,-0.005 -1.4e-4,5.97943 13.51929,11.135154 30.16084,11.135144 16.64154,8e-6 30.16241,-5.115362 30.16227,-11.094791 0.002,-0.03197 -0.004,-0.0032 -8.6e-4,-0.02087 v -4.86993 h -3.67574 C 211.91815,7.205392 201.75299,5.030075 190.69936,5.02932 Z"
             sodipodi:nodetypes="cccccscccccc" />
          <path
             d="M 190.69987,-0.136133 A 30.131971,10.826639 0 0 0 160.56785,10.690596 30.131971,10.826639 0 0 0 190.69987,21.517327 30.131971,10.826639 0 0 0 220.83189,10.690596 30.131971,10.826639 0 0 0 190.69987,-0.136133 Z"
             style="fill:#ad6099;fill-opacity:1;stroke:#000000;stroke-width:0.264999"
             id="path262" />
        </g>
        <path
           d="m 356.76822,-175.09862 a 30.131971,10.826639 0 0 0 -30.1321,10.82673 30.131971,10.826639 0 0 0 30.1321,10.82673 30.131971,10.826639 0 0 0 30.132,-10.82673 30.131971,10.826639 0 0 0 -30.132,-10.82673 z"
           style="fill:#ffffff;fill-opacity:1;stroke:#000000;stroke-width:0.264999"
           id="path267" />
        <g
           id="g121"
           transform="translate(165.90363,-282.85894)">
          <path
             id="path263"
             style="fill:#47817f;fill-opacity:1;stroke:#000000;stroke-width:0.264999"
             d="m 190.86394,125.62541 c -11.04678,0.003 -21.20295,2.17823 -26.46661,5.66787 h -3.69486 v 4.85552 c 0,0 0.003,-0.15599 2.3e-4,-0.005 -1.4e-4,5.97943 13.51929,11.13515 30.16084,11.13514 16.64154,1e-5 30.16241,-5.11536 30.16227,-11.09479 0.002,-0.032 -0.004,-0.003 -8.6e-4,-0.0209 v -4.86993 h -3.67573 c -5.26693,-3.49184 -15.4321,-5.66716 -26.48573,-5.66791 z"
             sodipodi:nodetypes="cccccscccccc" />
          <path
             d="m 190.86401,120.45998 a 30.131971,10.826639 0 0 0 -30.13203,10.82673 30.131971,10.826639 0 0 0 30.13203,10.82673 30.131971,10.826639 0 0 0 30.13201,-10.82673 30.131971,10.826639 0 0 0 -30.13201,-10.82673 z"
             style="fill:#5b9593;fill-opacity:1;stroke:#000000;stroke-width:0.264999"
             id="path264" />
        </g>
        <path
           id="path145"
           style="fill:url(#linearGradient145);fill-opacity:1;stroke:none;stroke-width:0.264999"
           d="m 356.77064,-168.37536 c -11.046,0.003 -21.2015,2.17658 -26.4648,5.66601 h -3.6953 v 16.95457 0.0547 0.006 c 0,0.16204 0.015,0.32362 0.035,0.48437 -4e-4,0.0235 -0.01,0.0468 -0.01,0.0703 0.01,0.04 0.013,0.0791 0.02,0.11914 v 49.59849 c -0.01,0.04 -0.014,0.0811 -0.02,0.1211 0.01,0.04 0.013,0.0792 0.02,0.119137 v 0.0957 h 0.016 c 0.327,5.88986 13.7002,10.60545 30.0957,10.61133 16.4046,-0.001 29.79209,-4.71823 30.11919,-10.61133 h 0.018 v -50.137547 h -0.01 c 0.016,-0.14513 0.031,-0.28932 0.031,-0.43555 0,-0.032 8e-4,-0.004 0,-0.0215 v -17.02879 h -3.6758 c -5.26649,-3.49163 -15.43139,-5.66501 -26.48429,-5.66601 z"
           sodipodi:nodetypes="ccccsscccccccccccccsccccc" />
        <g
           id="g111"
           transform="translate(166.06776,-145.93132)">
          <path
             id="path265"
             style="fill:#ed453a;fill-opacity:1;stroke:#000000;stroke-width:0.264999"
             d="m 190.69981,-24.001879 c -11.04678,0.0033 -21.20295,2.178235 -26.46661,5.667871 h -3.69486 v 4.855518 c 0,0 0.003,-0.155984 2.3e-4,-0.005 -1.4e-4,5.97943 13.51929,11.135154 30.16084,11.135144 16.64154,8e-6 30.16241,-5.115362 30.16227,-11.094791 0.002,-0.03197 -0.004,-0.0032 -8.6e-4,-0.02087 v -4.86993 h -3.67574 c -5.26693,-3.491843 -15.43209,-5.66716 -26.48572,-5.667915 z"
             sodipodi:nodetypes="cccccscccccc" />
          <path
             d="m 190.69987,-29.167305 a 30.131971,10.826639 0 0 0 -30.13202,10.826729 30.131971,10.826639 0 0 0 30.13202,10.826731 30.131971,10.826639 0 0 0 30.13202,-10.826731 30.131971,10.826639 0 0 0 -30.13202,-10.826729 z"
             style="fill:#e45c52;fill-opacity:1;stroke:#000000;stroke-width:0.264999"
             id="path266" />
        </g>
      </g>
    </g>
    <path
       d="m 437.94274,-146.73181 5.0586,-13.27086 h 1.54037 l 5.07683,13.27086 h -1.80469 l -1.26693,-3.47266 h -5.55079 l -1.25782,3.47266 z m 3.58203,-4.91277 h 4.50262 l -2.25131,-6.18881 z m 13.56253,3.70964 q 0.90234,0 1.57682,-0.53776 0.6836,-0.53776 0.7474,-1.3763 h 1.60417 q -0.0638,1.32161 -1.21224,2.3151 -1.14844,0.98438 -2.71615,0.98438 -2.22396,0 -3.3086,-1.46745 -1.07552,-1.46745 -1.07552,-3.45443 v -0.38282 q 0,-1.98698 1.07552,-3.45443 1.08464,-1.46745 3.3086,-1.46745 1.73177,0 2.79818,1.02995 1.06641,1.02083 1.13021,2.54297 h -1.60417 q -0.0638,-0.91146 -0.69271,-1.54948 -0.61979,-0.63802 -1.63151,-0.63802 -1.03907,0 -1.63151,0.52865 -0.58334,0.52864 -0.82943,1.33984 -0.23698,0.8112 -0.23698,1.66797 v 0.38282 q 0,0.86588 0.23698,1.67708 0.23698,0.8112 0.82031,1.33985 0.59245,0.51953 1.64063,0.51953 z m 9.99871,1.20313 q -0.57422,0.18229 -1.30338,0.18229 -0.93881,0 -1.60417,-0.57422 -0.66537,-0.57422 -0.66537,-2.0599 v -6.1159 h -1.80469 v -1.29427 h 1.80469 v -2.39714 h 1.6862 v 2.39714 h 1.84115 v 1.29427 h -1.84115 v 6.12502 q 0,0.75651 0.32813,0.96614 0.32812,0.20964 0.75651,0.20964 0.31901,0 0.79297,-0.10938 z m 1.94141,-12.47789 q 0,-0.41016 0.2461,-0.69271 0.25521,-0.28255 0.7474,-0.28255 0.48307,0 0.73828,0.28255 0.26432,0.28255 0.26432,0.69271 0,0.39193 -0.26432,0.67448 -0.25521,0.27344 -0.73828,0.27344 -0.49219,0 -0.7474,-0.27344 -0.2461,-0.28255 -0.2461,-0.67448 z m 1.82292,2.61589 v 9.862 h -1.69531 v -9.862 z m 10.12632,0 -3.54558,9.862 h -1.28515 l -3.57293,-9.862 h 1.73178 l 2.50651,7.556 2.44271,-7.556 z m 9.30601,8.13934 q -0.48307,0.72917 -1.36719,1.32162 -0.88411,0.58333 -2.34245,0.58333 -2.0599,0 -3.29949,-1.33985 -1.23047,-1.33984 -1.23047,-3.42709 v -0.38281 q 0,-1.61328 0.61068,-2.74349 0.61979,-1.13933 1.60417,-1.73178 0.98438,-0.60156 2.09636,-0.60156 2.11459,0 3.08073,1.38542 0.97527,1.3763 0.97527,3.44532 v 0.75651 h -6.67189 q 0.0365,1.35807 0.80208,2.31511 0.77474,0.94792 2.12371,0.94792 0.89323,0 1.51302,-0.36459 0.61979,-0.36458 1.08464,-0.97526 z m -3.92839,-6.93621 q -1.00261,0 -1.69532,0.72917 -0.69271,0.72916 -0.86588,2.09635 h 4.93099 v -0.1276 q -0.0638,-0.98438 -0.57421,-1.84115 -0.50131,-0.85677 -1.79558,-0.85677 z m 10.66408,-3.81902 q 0,-0.41016 0.24609,-0.69271 0.25521,-0.28255 0.7474,-0.28255 0.48308,0 0.73828,0.28255 0.26433,0.28255 0.26433,0.69271 0,0.39193 -0.26433,0.67448 -0.2552,0.27344 -0.73828,0.27344 -0.49219,0 -0.7474,-0.27344 -0.24609,-0.28255 -0.24609,-0.67448 z m 1.82292,2.61589 v 9.862 h -1.69532 v -9.862 z m 6.79949,1.23959 q -0.8112,0 -1.43099,0.4375 -0.61979,0.4375 -0.97526,1.13932 v 7.04559 h -1.6862 v -9.862 h 1.59505 l 0.0547,1.23047 q 1.12109,-1.41276 2.94401,-1.41276 1.44923,0 2.29688,0.8112 0.85678,0.8112 0.86589,2.72526 v 6.50783 h -1.69532 v -6.48048 q 0,-1.15756 -0.51041,-1.64974 -0.50131,-0.49219 -1.45834,-0.49219 z m 11.95836,6.00652 q 0,-0.53776 -0.40105,-0.96615 -0.39192,-0.4375 -1.82292,-0.72917 -1.64974,-0.33724 -2.625,-0.97526 -0.97526,-0.64714 -0.97526,-1.87761 0,-1.16667 0.99349,-2.02344 1.0026,-0.85677 2.66146,-0.85677 1.76823,0 2.76173,0.90234 0.99349,0.90235 0.99349,2.17839 h -1.6862 q 0,-0.61067 -0.53777,-1.14844 -0.53776,-0.54687 -1.53125,-0.54687 -1.04818,0 -1.50391,0.45573 -0.45573,0.45573 -0.45573,0.99349 0,0.53776 0.41927,0.875 0.42839,0.32813 1.80469,0.63802 1.81381,0.41016 2.69793,1.07553 0.89323,0.66536 0.89323,1.8776 0,1.30339 -1.04818,2.11459 -1.03907,0.8112 -2.76173,0.8112 -1.95963,0 -2.9987,-1.00261 -1.03906,-1.0026 -1.03906,-2.22396 h 1.69531 q 0.0547,1.04818 0.80209,1.44922 0.75651,0.39193 1.54036,0.39193 1.02995,0 1.57683,-0.40104 0.54688,-0.40104 0.54688,-1.01172 z m 8.06642,2.61589 q -0.57422,0.18229 -1.30339,0.18229 -0.9388,0 -1.60417,-0.57422 -0.66537,-0.57422 -0.66537,-2.0599 v -6.1159 h -1.80469 v -1.29427 h 1.80469 v -2.39714 h 1.68621 v 2.39714 h 1.84114 v 1.29427 h -1.84114 v 6.12502 q 0,0.75651 0.32812,0.96614 0.32813,0.20964 0.75651,0.20964 0.31901,0 0.79297,-0.10938 z m 8.02084,0 q -0.16406,-0.35547 -0.23698,-1.03907 -0.47395,0.50131 -1.18489,0.86589 -0.71094,0.35547 -1.6224,0.35547 -1.51303,0 -2.42449,-0.84766 -0.91146,-0.84766 -0.91146,-2.07813 0,-1.58594 1.20313,-2.40625 1.20313,-0.82943 3.23568,-0.82943 h 1.66798 v -0.78385 q 0,-0.87501 -0.52865,-1.39454 -0.51953,-0.52865 -1.54948,-0.52865 -0.95704,0 -1.54948,0.47396 -0.58334,0.46485 -0.58334,1.08464 h -1.6862 q 0,-1.05729 1.06641,-1.98698 1.06641,-0.92969 2.85287,-0.92969 1.60417,0 2.63412,0.82031 1.02995,0.82032 1.02995,2.47917 v 4.4297 q 0,1.36719 0.34635,2.16927 v 0.14584 z m -2.79818,-1.29427 q 0.91146,0 1.57683,-0.45573 0.67448,-0.45573 0.94792,-1.01173 v -2.03255 h -1.56771 q -2.84376,0.0547 -2.84376,1.82292 0,0.70182 0.47396,1.19401 0.47396,0.48308 1.41276,0.48308 z m 10.95575,-7.32814 q -0.8112,0 -1.43099,0.4375 -0.61979,0.4375 -0.97526,1.13932 v 7.04559 h -1.6862 v -9.862 h 1.59505 l 0.0547,1.23047 q 1.12109,-1.41276 2.94401,-1.41276 1.44922,0 2.29688,0.8112 0.85678,0.8112 0.86589,2.72526 v 6.50783 h -1.69532 v -6.48048 q 0,-1.15756 -0.51041,-1.64974 -0.50131,-0.49219 -1.45834,-0.49219 z m 10.16278,7.41928 q 0.90235,0 1.57683,-0.53776 0.68359,-0.53776 0.7474,-1.3763 h 1.60417 q -0.0638,1.32161 -1.21225,2.3151 -1.14844,0.98438 -2.71615,0.98438 -2.22396,0 -3.3086,-1.46745 -1.07552,-1.46745 -1.07552,-3.45443 v -0.38282 q 0,-1.98698 1.07552,-3.45443 1.08464,-1.46745 3.3086,-1.46745 1.73178,0 2.79819,1.02995 1.0664,1.02083 1.13021,2.54297 h -1.60417 q -0.0638,-0.91146 -0.69271,-1.54948 -0.6198,-0.63802 -1.63152,-0.63802 -1.03906,0 -1.63151,0.52865 -0.58333,0.52864 -0.82943,1.33984 -0.23698,0.8112 -0.23698,1.66797 v 0.38282 q 0,0.86588 0.23698,1.67708 0.23698,0.8112 0.82032,1.33985 0.59244,0.51953 1.64062,0.51953 z m 13.62633,-0.51953 q -0.48307,0.72917 -1.36719,1.32162 -0.88412,0.58333 -2.34245,0.58333 -2.0599,0 -3.29949,-1.33985 -1.23047,-1.33984 -1.23047,-3.42709 v -0.38281 q 0,-1.61328 0.61068,-2.74349 0.61979,-1.13933 1.60417,-1.73178 0.98438,-0.60156 2.09636,-0.60156 2.11459,0 3.08073,1.38542 0.97526,1.3763 0.97526,3.44532 v 0.75651 h -6.67188 q 0.0365,1.35807 0.80208,2.31511 0.77474,0.94792 2.1237,0.94792 0.89324,0 1.51303,-0.36459 0.61979,-0.36458 1.08464,-0.97526 z m -3.92839,-6.93621 q -1.00261,0 -1.69532,0.72917 -0.69271,0.72916 -0.86588,2.09635 h 4.93099 v -0.1276 q -0.0638,-0.98438 -0.57422,-1.84115 -0.5013,-0.85677 -1.79557,-0.85677 z"
       id="text101"
       style="font-size:18.6667px;line-height:1.25;font-family:HelveticaNeueCyr;-inkscape-font-specification:HelveticaNeueCyr;text-align:center;text-anchor:middle;stroke-width:0.374466"
       aria-label="Active instance" />
    <path
       d="m 511.57404,-180.85793 -2.88021,-5.37761 h -3.11719 v 5.37761 h -1.75912 v -13.27085 h 4.39324 q 2.23307,0 3.4362,1.02083 1.21224,1.02084 1.21224,2.96225 0,1.23958 -0.67448,2.16927 -0.66536,0.92058 -1.85026,1.37631 l 3.11719,5.63282 v 0.10937 z m -5.9974,-11.83075 v 5.02215 h 2.6888 q 1.41277,0 2.12371,-0.72005 0.72005,-0.72917 0.72005,-1.75912 0,-1.14844 -0.69271,-1.84115 -0.68359,-0.70183 -2.20573,-0.70183 z m 17.29039,10.1081 q -0.48307,0.72916 -1.36719,1.32161 -0.88411,0.58334 -2.34245,0.58334 -2.0599,0 -3.29948,-1.33985 -1.23048,-1.33985 -1.23048,-3.42709 v -0.38281 q 0,-1.61329 0.61068,-2.7435 0.6198,-1.13932 1.60417,-1.73177 0.98438,-0.60156 2.09636,-0.60156 2.11459,0 3.08074,1.38541 0.97526,1.37631 0.97526,3.44532 v 0.75652 h -6.67189 q 0.0365,1.35807 0.80209,2.3151 0.77474,0.94792 2.1237,0.94792 0.89323,0 1.51302,-0.36458 0.61979,-0.36459 1.08464,-0.97526 z m -3.92839,-6.93622 q -1.00261,0 -1.69532,0.72917 -0.6927,0.72917 -0.86588,2.09636 h 4.931 v -0.1276 q -0.0638,-0.98438 -0.57422,-1.84115 -0.50131,-0.85678 -1.79558,-0.85678 z m 10.52736,8.84117 q -1.77734,0 -2.81641,-1.13933 v 4.74871 h -1.69531 v -13.65367 h 1.54948 l 0.082,1.08463 q 1.03907,-1.26692 2.85287,-1.26692 1.86849,0 2.86198,1.38541 0.9935,1.38542 0.9935,3.64584 v 0.19141 q 0,2.16016 -1.00261,3.58204 -0.99349,1.42188 -2.82553,1.42188 z m -0.51953,-8.80471 q -1.53125,0 -2.29688,1.35808 v 4.72136 q 0.77474,1.33985 2.31511,1.33985 1.36719,0 1.9961,-1.07553 0.63802,-1.07552 0.63802,-2.54297 v -0.19141 q 0,-1.46745 -0.63802,-2.53385 -0.62891,-1.07553 -2.01433,-1.07553 z m 8.33075,-5.37761 v 14.00002 h -1.69532 v -14.00002 z m 2.71615,1.52214 q 0,-0.41016 0.24609,-0.69271 0.25521,-0.28255 0.7474,-0.28255 0.48307,0 0.73828,0.28255 0.26432,0.28255 0.26432,0.69271 0,0.39193 -0.26432,0.67448 -0.25521,0.27344 -0.73828,0.27344 -0.49219,0 -0.7474,-0.27344 -0.24609,-0.28255 -0.24609,-0.67448 z m 1.82292,2.61589 v 9.86199 h -1.69532 v -9.86199 z m 6.65365,8.65887 q 0.90235,0 1.57683,-0.53776 0.68359,-0.53777 0.7474,-1.37631 h 1.60417 q -0.0638,1.32162 -1.21225,2.31511 -1.14844,0.98438 -2.71615,0.98438 -2.22396,0 -3.3086,-1.46745 -1.07552,-1.46745 -1.07552,-3.45444 v -0.38281 q 0,-1.98698 1.07552,-3.45443 1.08464,-1.46745 3.3086,-1.46745 1.73178,0 2.79818,1.02995 1.06641,1.02083 1.13022,2.54297 h -1.60417 q -0.0638,-0.91146 -0.69271,-1.54948 -0.6198,-0.63803 -1.63152,-0.63803 -1.03906,0 -1.63151,0.52865 -0.58334,0.52865 -0.82943,1.33985 -0.23698,0.8112 -0.23698,1.66797 v 0.38281 q 0,0.86589 0.23698,1.67709 0.23698,0.8112 0.82031,1.33985 0.59245,0.51953 1.64063,0.51953 z m 11.91278,1.20312 q -0.16406,-0.35546 -0.23697,-1.03906 -0.47396,0.5013 -1.1849,0.86589 -0.71094,0.35547 -1.6224,0.35547 -1.51303,0 -2.42449,-0.84766 -0.91146,-0.84766 -0.91146,-2.07813 0,-1.58594 1.20313,-2.40625 1.20313,-0.82943 3.23569,-0.82943 h 1.66797 v -0.78386 q 0,-0.875 -0.52865,-1.39453 -0.51953,-0.52865 -1.54948,-0.52865 -0.95703,0 -1.54948,0.47396 -0.58334,0.46484 -0.58334,1.08464 h -1.6862 q 0,-1.0573 1.06641,-1.98699 1.06641,-0.92968 2.85287,-0.92968 1.60417,0 2.63412,0.82031 1.02995,0.82031 1.02995,2.47917 v 4.4297 q 0,1.36719 0.34635,2.16927 v 0.14583 z m -2.79818,-1.29427 q 0.91146,0 1.57683,-0.45573 0.67448,-0.45573 0.94792,-1.01172 v -2.03255 h -1.56771 q -2.84376,0.0547 -2.84376,1.82292 0,0.70182 0.47396,1.19401 0.47396,0.48307 1.41276,0.48307 z m 11.42972,-4.10157 q 0,-2.64323 0.75651,-4.6211 0.75651,-1.97787 1.79557,-3.22657 1.03907,-1.2487 1.90496,-1.73177 l 0.35546,1.11198 q -1.07552,0.8112 -2.10547,2.89844 -1.02083,2.07813 -1.02083,5.6784 0,3.46354 1.02083,5.56902 1.02995,2.10547 2.10547,2.98047 l -0.35546,1.02084 q -0.86589,-0.47396 -1.90496,-1.72266 -1.03906,-1.2487 -1.79557,-3.21746 -0.75651,-1.97786 -0.75651,-4.73959 z m 12.19532,2.77995 q 0,-0.53776 -0.40104,-0.96614 -0.39193,-0.4375 -1.82292,-0.72917 -1.64974,-0.33724 -2.625,-0.97526 -0.97527,-0.64714 -0.97527,-1.87761 0,-1.16667 0.9935,-2.02344 1.0026,-0.85677 2.66146,-0.85677 1.76823,0 2.76172,0.90234 0.99349,0.90235 0.99349,2.17839 h -1.6862 q 0,-0.61068 -0.53776,-1.14844 -0.53776,-0.54688 -1.53125,-0.54688 -1.04818,0 -1.50391,0.45573 -0.45573,0.45573 -0.45573,0.9935 0,0.53776 0.41927,0.875 0.42839,0.32812 1.80469,0.63802 1.81381,0.41016 2.69792,1.07552 0.89323,0.66537 0.89323,1.87761 0,1.30339 -1.04817,2.11459 -1.03907,0.8112 -2.76173,0.8112 -1.95964,0 -2.9987,-1.00261 -1.03907,-1.00261 -1.03907,-2.22396 h 1.69532 q 0.0547,1.04818 0.80208,1.44922 0.75652,0.39193 1.54037,0.39193 1.02995,0 1.57683,-0.40104 0.54687,-0.40105 0.54687,-1.01173 z m 8.06643,2.61589 q -0.57422,0.1823 -1.30339,0.1823 -0.93881,0 -1.60417,-0.57422 -0.66537,-0.57422 -0.66537,-2.0599 v -6.1159 h -1.80469 v -1.29427 h 1.80469 v -2.39714 h 1.6862 v 2.39714 h 1.84115 v 1.29427 h -1.84115 v 6.12501 q 0,0.75651 0.32813,0.96615 0.32812,0.20964 0.75651,0.20964 0.31901,0 0.79297,-0.10938 z m 8.02085,0 q -0.16406,-0.35546 -0.23698,-1.03906 -0.47396,0.5013 -1.1849,0.86589 -0.71094,0.35547 -1.6224,0.35547 -1.51302,0 -2.42448,-0.84766 -0.91146,-0.84766 -0.91146,-2.07813 0,-1.58594 1.20313,-2.40625 1.20312,-0.82943 3.23568,-0.82943 h 1.66797 v -0.78386 q 0,-0.875 -0.52865,-1.39453 -0.51953,-0.52865 -1.54948,-0.52865 -0.95703,0 -1.54948,0.47396 -0.58333,0.46484 -0.58333,1.08464 h -1.6862 q 0,-1.0573 1.0664,-1.98699 1.06641,-0.92968 2.85287,-0.92968 1.60417,0 2.63412,0.82031 1.02995,0.82031 1.02995,2.47917 v 4.4297 q 0,1.36719 0.34636,2.16927 v 0.14583 z m -2.79818,-1.29427 q 0.91146,0 1.57682,-0.45573 0.67448,-0.45573 0.94792,-1.01172 v -2.03255 h -1.56771 q -2.84375,0.0547 -2.84375,1.82292 0,0.70182 0.47395,1.19401 0.47396,0.48307 1.41277,0.48307 z m 10.95575,-7.32814 q -0.8112,0 -1.431,0.4375 -0.61979,0.4375 -0.97526,1.13933 v 7.04558 h -1.6862 v -9.86199 h 1.59506 l 0.0547,1.23047 q 1.1211,-1.41276 2.94402,-1.41276 1.44922,0 2.29688,0.8112 0.85677,0.81119 0.86589,2.72526 v 6.50782 h -1.69532 v -6.48048 q 0,-1.15755 -0.51042,-1.64974 -0.5013,-0.49219 -1.45833,-0.49219 z m 12.57814,8.62241 -0.082,-1.05729 q -1.01172,1.23959 -2.81641,1.23959 -1.73178,0 -2.79818,-1.40365 -1.06641,-1.40365 -1.08464,-3.52735 v -0.26433 q 0,-2.26042 1.06641,-3.64584 1.07552,-1.38541 2.83464,-1.38541 1.74089,0 2.73438,1.16666 v -5.1224 h 1.69531 v 14.00002 z m -5.08595,-4.82162 q 0,1.46745 0.6198,2.52475 0.61979,1.04817 1.98698,1.04817 1.56771,0 2.33334,-1.43099 v -4.53907 q -0.75651,-1.40365 -2.31511,-1.40365 -1.37631,0 -2.00521,1.07553 -0.6198,1.0664 -0.6198,2.53385 z m 17.6003,0 q 0,2.16016 -1.00261,3.58204 -1.0026,1.42188 -2.83464,1.42188 -1.86849,0 -2.88021,-1.32162 l -0.0912,1.13932 h -1.54948 v -14.00002 h 1.69532 v 5.20444 q 1.0026,-1.2487 2.80729,-1.2487 1.85938,0 2.85287,1.38541 1.00261,1.38542 1.00261,3.64584 z m -4.27475,-3.80079 q -0.92057,0 -1.49479,0.44662 -0.57422,0.4375 -0.89323,1.08464 v 4.29297 q 0.32812,0.65625 0.91146,1.10287 0.58333,0.44661 1.49479,0.44661 1.36719,0 1.95964,-1.04817 0.60156,-1.0573 0.60156,-2.52475 v -0.19141 q 0,-1.46745 -0.57422,-2.53385 -0.5651,-1.07553 -2.00521,-1.07553 z m 9.67059,10.14455 q -0.875,2.31511 -2.64323,2.45183 l -0.28255,0.009 q -0.53776,0 -0.94792,-0.14583 l -0.009,-1.36719 0.45573,0.0365 q 0.85678,0 1.33985,-0.35547 0.48307,-0.34635 0.79297,-1.25781 l 0.36459,-1.00261 -3.51824,-9.75262 h 1.84115 l 2.47006,7.38282 2.28776,-7.38282 h 1.80469 z m 9.35158,-6.82683 q 0,2.66146 -0.75651,4.63933 -0.75651,1.97787 -1.80469,3.22657 -1.03906,1.2487 -1.89584,1.72266 l -0.35547,-1.02084 q 1.06641,-0.8112 2.09636,-2.94401 1.02995,-2.13282 1.02995,-5.73309 0,-2.30599 -0.51042,-4.01954 -0.51041,-1.72266 -1.23958,-2.85287 -0.72917,-1.13021 -1.37631,-1.65885 l 0.35547,-1.02995 q 0.85678,0.48307 1.89584,1.73177 1.04818,1.2487 1.80469,3.22657 0.75651,1.96875 0.75651,4.71225 z"
       id="text102"
       style="font-size:18.6667px;line-height:1.25;font-family:HelveticaNeueCyr;-inkscape-font-specification:HelveticaNeueCyr;text-align:center;text-anchor:middle;opacity:0.615435;stroke-width:0.374466"
       aria-label="Replica (standby)" />
  </g>
</svg>
