<?xml version="1.0" encoding="UTF-8" standalone="no"?>
<!-- Created with Inkscape (http://www.inkscape.org/) -->

<svg
   width="199.18764mm"
   height="55.832mm"
   viewBox="0 0 199.18764 55.832"
   version="1.1"
   id="svg1"
   xml:space="preserve"
   inkscape:version="1.3.2 (091e20ef0f, 2023-11-25)"
   sodipodi:docname="synapse_general.svg"
   xmlns:inkscape="http://www.inkscape.org/namespaces/inkscape"
   xmlns:sodipodi="http://sodipodi.sourceforge.net/DTD/sodipodi-0.dtd"
   xmlns="http://www.w3.org/2000/svg"
   xmlns:svg="http://www.w3.org/2000/svg"><sodipodi:namedview
     id="namedview1"
     pagecolor="#ffffff"
     bordercolor="#666666"
     borderopacity="1.0"
     inkscape:showpageshadow="2"
     inkscape:pageopacity="0.0"
     inkscape:pagecheckerboard="0"
     inkscape:deskcolor="#d1d1d1"
     inkscape:document-units="mm"
     inkscape:zoom="1.4378367"
     inkscape:cx="285.84609"
     inkscape:cy="135.96815"
     inkscape:window-width="1920"
     inkscape:window-height="1056"
     inkscape:window-x="0"
     inkscape:window-y="24"
     inkscape:window-maximized="1"
     inkscape:current-layer="layer1" /><defs
     id="defs1"><marker
       style="overflow:visible"
       id="Triangle"
       refX="0"
       refY="0"
       orient="auto-start-reverse"
       inkscape:stockid="Triangle arrow"
       markerWidth="1"
       markerHeight="1"
       viewBox="0 0 1 1"
       inkscape:isstock="true"
       inkscape:collect="always"
       preserveAspectRatio="xMidYMid"><path
         transform="scale(0.5)"
         style="fill:context-stroke;fill-rule:evenodd;stroke:context-stroke;stroke-width:1pt"
         d="M 5.77,0 -2.88,5 V -5 Z"
         id="path135" /></marker></defs><g
     inkscape:label="Layer 1"
     inkscape:groupmode="layer"
     id="layer1"
     transform="translate(-2.5915543,-78.521695)"><path
       d="m 55.659436,105.98375 -0.940283,1.36876 0.99186,1.45605 h -0.452289 l -0.761748,-1.16246 -0.789521,1.16246 h -0.428483 l 0.995827,-1.45605 -0.932348,-1.36876 h 0.448321 l 0.710171,1.08707 0.733977,-1.08707 z m 2.376497,0.82919 h -0.361037 q -0.05951,-0.57528 -0.702237,-0.57528 -0.305493,0 -0.472126,0.12299 -0.166632,0.12299 -0.166632,0.34517 0,0.0793 0.02381,0.13886 0.0238,0.0595 0.07935,0.10712 0.05951,0.0436 0.111089,0.0754 0.05158,0.0317 0.162665,0.0635 0.111088,0.0317 0.178535,0.0476 0.06745,0.0119 0.210274,0.0436 0.174567,0.0357 0.289623,0.0674 0.115056,0.0278 0.273753,0.0952 0.158698,0.0674 0.249949,0.15076 0.09522,0.0794 0.162665,0.21424 0.07141,0.1349 0.07141,0.3055 0,0.29755 -0.166633,0.49989 -0.166632,0.19837 -0.404678,0.27772 -0.238047,0.0794 -0.52767,0.0794 -0.531637,0 -0.852999,-0.24995 -0.317396,-0.25391 -0.317396,-0.74588 h 0.361037 q 0.0119,0.36104 0.242014,0.52767 0.230112,0.16267 0.599084,0.16267 0.289623,0 0.49593,-0.11902 0.206306,-0.12299 0.206306,-0.39675 0,-0.12696 -0.05554,-0.21424 -0.05554,-0.0913 -0.174567,-0.14679 -0.119023,-0.0595 -0.238046,-0.0952 -0.119024,-0.0357 -0.313428,-0.0794 -0.02777,-0.004 -0.03967,-0.008 -0.436418,-0.0992 -0.571311,-0.15869 -0.412614,-0.17854 -0.412614,-0.61496 0,-0.40468 0.297558,-0.60305 0.301526,-0.20234 0.726042,-0.20234 0.46419,0 0.741911,0.22218 0.277721,0.22218 0.293591,0.66256 z m 2.531229,-0.82919 v 0.32533 h -0.948218 v 2.49948 h -0.372939 v -2.49948 h -0.948219 v -0.32533 z m 0.317393,0 h 1.241808 q 0.948219,0 0.948219,0.78158 0,0.24598 -0.134893,0.43642 -0.130926,0.18647 -0.349135,0.24995 0.142828,0.0317 0.230111,0.0913 0.08728,0.0595 0.126958,0.16663 0.03968,0.10712 0.05158,0.19044 0.0119,0.0833 0.01984,0.24598 0,0.0159 0.004,0.0794 0.004,0.0595 0.004,0.0833 0,0.0198 0.004,0.0754 0.0079,0.0555 0.0119,0.0833 0.004,0.0278 0.0119,0.0754 0.0079,0.0476 0.01984,0.0794 0.0119,0.0278 0.02777,0.0674 0.01587,0.0357 0.03571,0.0675 0.01984,0.0278 0.04364,0.0516 H 62.75332 q -0.02777,-0.0397 -0.04761,-0.0992 -0.01587,-0.0595 -0.02381,-0.13886 -0.0079,-0.0833 -0.0119,-0.13093 -0.004,-0.0516 -0.0079,-0.14679 -0.004,-0.0952 -0.004,-0.10712 -0.01984,-0.36104 -0.150762,-0.48007 -0.126958,-0.11902 -0.507833,-0.11902 h -0.741911 v 1.22197 h -0.372939 z m 0.372939,0.31739 v 0.98789 h 0.702237 q 0.130925,0 0.218209,-0.008 0.09125,-0.008 0.198372,-0.0357 0.107121,-0.0278 0.1706,-0.0794 0.06745,-0.0516 0.111088,-0.14679 0.04364,-0.0952 0.04364,-0.23011 0,-0.28566 -0.174567,-0.38485 -0.1706,-0.10315 -0.468158,-0.10315 z m 4.300703,-0.31739 v 0.32533 h -1.583009 v 0.88474 h 1.479855 v 0.31342 h -1.479855 v 0.97599 h 1.602846 v 0.32533 h -1.975785 v -2.82481 z m 1.654423,0 1.102948,2.82481 h -0.416581 l -0.313428,-0.8649 h -1.186264 l -0.321363,0.8649 h -0.396744 l 1.110883,-2.82481 z m 0.261851,1.66235 -0.48006,-1.30528 -0.487995,1.30528 z m 1.126756,-1.66235 h 0.515767 l 0.908544,2.39236 0.876804,-2.39236 h 0.519735 v 2.82481 h -0.353103 v -2.35666 l -0.884739,2.35666 h -0.32533 l -0.900609,-2.35666 v 2.35666 h -0.357069 z"
       id="text34"
       style="font-size:3.96744px;line-height:1.25;font-family:HelveticaNeueCyr;-inkscape-font-specification:HelveticaNeueCyr;stroke-width:0.0991862"
       aria-label="XSTREAM" /><path
       style="fill:none;stroke:#000000;stroke-width:0.665;stroke-linecap:butt;stroke-linejoin:miter;stroke-dasharray:7.97999, 0.665;stroke-dashoffset:0;stroke-opacity:1;marker-end:url(#Triangle)"
       d="m 45.380522,110.76085 c 30.681402,0 30.681402,0 30.681402,0"
       id="path31" /><path
       style="fill:none;stroke:#000000;stroke-width:0.665;stroke-linecap:butt;stroke-linejoin:miter;stroke-dasharray:7.97999, 0.665;stroke-dashoffset:0;stroke-opacity:1;marker-end:url(#Triangle)"
       d="m 120.11589,111.57685 c 30.68141,0 30.68141,0 30.68141,0"
       id="path12" /><g
       id="Layer_2"
       transform="matrix(0.26458333,0,0,0.26458333,150.17679,53.732703)"
       style="fill:#607979;fill-opacity:0.156863;stroke:#000000;stroke-width:0.623622;stroke-dasharray:none;stroke-opacity:0.156863" /><g
       id="g32"><path
         id="path1"
         style="fill:none;stroke:#000000;stroke-width:0.316972"
         d="m 50.181877,83.292811 c 1e-5,2.53976 -9.5229,4.59864 -21.27002,4.59864 -11.747109,0 -21.2700218,-2.05888 -21.2700098,-4.59864 1e-6,-2.53976 9.5229098,-4.59864 21.2700098,-4.59864 11.74711,0 21.27002,2.05888 21.27002,4.59864 z m -21.27027,-4.61263 c -11.382001,0.004 -20.7588758,1.92893 -21.2422268,4.38754 l -0.0268,0.22723 -0.01495,41.290429 -4.29e-4,6.1e-4 c 0.703055,2.41977 10.0702368,4.30524 21.2843958,4.30972 10.40858,-0.004 20.40008,-1.46167 21.29265,-4.33393 l -0.0232,-41.270889 -0.0186,-0.20737 c -0.48391,-2.46158 -9.85505,-4.40335 -21.25085,-4.40334 z"
         sodipodi:nodetypes="ssssscccccccccc" /><path
         id="ellipse2"
         style="fill:#ffffff;fill-opacity:1;stroke:#000000;stroke-width:0.316972"
         d="m 45.319671,87.592501 c 1e-5,2.53976 -9.5229,4.59864 -21.270023,4.59864 -11.747112,0 -21.2700248,-2.05888 -21.2700128,-4.59864 1e-6,-2.53976 9.5229098,-4.59864 21.2700128,-4.59864 11.747113,0 21.270023,2.05888 21.270023,4.59864 z M 24.04939,82.979871 c -11.381996,0.004 -20.7588708,1.92893 -21.2422218,4.38754 l -0.0268,0.22723 -0.01495,41.290429 -4.29e-4,6.1e-4 c 0.703055,2.41977 10.0702368,4.30524 21.2843958,4.30972 10.408586,-0.004 20.400086,-1.46167 21.292656,-4.33393 l -0.0232,-41.270889 -0.0186,-0.20737 c -0.48391,-2.46158 -9.85505,-4.40335 -21.250861,-4.40334 z"
         sodipodi:nodetypes="ssssscccccccccc" /><path
         d="m 44.327241,86.191561 c -2.72108,-1.86183 -10.76979,-3.21169 -20.28093,-3.21169 -11.254876,0 -20.4618898,1.89035 -21.2142078,4.28242 -0.0087,0.0304 -0.02242,0.0604 -0.02842,0.091 l -0.02687,0.22738 c 0.0053,2.53879 9.5256608,4.59662 21.2694978,4.59662 11.73349,0 21.24694,-2.05421 21.26899,-4.5899 v -0.0109 l -0.003,-0.0279 c -0.0126,-0.42347 -0.29291,-0.83319 -0.80099,-1.22215 -0.0585,-0.0453 -0.11981,-0.0902 -0.18448,-0.13487 z"
         style="fill:#ffffff;fill-opacity:1;stroke:#000000;stroke-width:0.316972"
         id="path4" /><g
         id="g7"
         transform="matrix(0.34817868,0,0,0.34817868,0.06661023,59.474532)"
         style="stroke-width:2.87209"><g
           id="g6"
           style="stroke-width:2.87209"><path
             d="m 60.109083,143.35215 h 4.846006 l -2.559739,-4.13374 -4.706091,7.46616 h -2.140007 l 5.72363,-8.95747 a 1.3641316,1.3641316 0 0 1 2.225851,-0.0159 l 5.73953,8.97338 h -2.139995 l -1.007995,-1.66939 h -4.903249 l -1.068411,-1.66303 m 22.236309,1.66303 v -7.78096 h -1.818846 v 8.54728 a 0.87762313,0.87762313 0 0 0 0.270275,0.63597 0.91896045,0.91896045 0 0 0 0.661405,0.27664 h 8.267457 l 1.077953,-1.6694 h -8.467787 m -30.061774,-1.3991 a 3.195696,3.195696 0 0 0 0,-6.39139 h -7.949481 v 9.45035 h 1.815661 v -7.77778 h 6.022532 a 1.5294809,1.5294809 0 0 1 0,3.05896 h -5.122651 l 5.424727,4.71882 h 2.636054 l -3.64405,-3.05896 h 0.817208 m -19.116921,3.05896 h 5.491499 a 4.7251738,4.7251738 0 0 0 0,-9.44717 h -5.491499 a 4.7251738,4.7251738 0 1 0 0,9.44717 m 5.367496,-1.66303 h -5.246666 a 3.0589617,3.0589617 0 0 1 0,-6.11475 h 5.246666 a 3.0589617,3.0589617 0 1 1 0,6.11475 m 34.497578,1.66303 h 5.605984 l 1.062041,-1.66303 h -6.54401 a 3.0589617,3.0589617 0 1 1 0,-6.11475 h 5.326154 l 1.074768,-1.66939 h -6.524937 a 4.7251738,4.7251738 0 1 0 0,9.44717 m 22.217223,-1.66303 a 3.0589617,3.0589617 0 0 1 -2.944487,-2.22583 h 7.765056 l 1.06841,-1.66621 h -8.833466 a 3.055782,3.055782 0 0 1 2.944487,-2.22585 h 5.329349 l 1.06522,-1.6694 h -6.518584 a 4.7251738,4.7251738 0 0 0 0,9.44716 h 5.605994 l 1.06522,-1.66303 h -6.550383"
             style="fill:#ff0011;fill-opacity:1;stroke-width:0.759906"
             id="path1-62" /><path
             style="font-weight:bold;font-size:8.12656px;line-height:1.25;font-family:Cantarell;-inkscape-font-specification:'Cantarell Bold';letter-spacing:0.609493px;stroke-width:0.759906"
             d="m 46.479964,162.17212 h 3.80323 v -0.9183 H 47.52829 v -1.51154 h 2.52736 v -0.9183 h -2.52736 v -1.37339 h 2.754904 v -0.9183 h -3.80323 z m 8.703541,0 h 1.259617 l -2.064146,-2.97432 1.844729,-2.66551 h -1.210858 l -1.178351,1.84473 -1.170225,-1.84473 h -1.243363 l 1.844729,2.70614 -1.991007,2.93369 h 1.210857 l 1.324629,-2.12103 z m 1.828477,0 h 1.113339 l 0.463214,-1.41402 H 60.7502 l 0.455087,1.41402 h 1.162098 l -1.950374,-5.63983 h -1.349009 z m 1.877235,-2.34858 0.78015,-2.38921 0.78015,2.38921 z m 4.745915,2.34858 h 1.869109 c 1.82035,0 3.04746,-1.13772 3.04746,-2.93369 0,-1.69845 -1.097085,-2.70614 -2.933688,-2.70614 h -1.982881 z m 1.0402,-0.90205 v -3.83574 h 0.861415 c 1.227111,0 1.925995,0.71514 1.925995,1.94225 0,1.21086 -0.658251,1.89349 -1.836602,1.89349 z m 4.851565,0.90205 h 1.113339 l 0.463214,-1.41402 h 2.161665 l 0.455087,1.41402 h 1.162099 l -1.950375,-5.63983 h -1.349009 z m 1.877236,-2.34858 0.78015,-2.38921 0.780149,2.38921 z m 5.964899,2.34858 h 1.032073 v -4.72153 h 1.82035 v -0.9183 h -4.664646 v 0.9183 h 1.812223 z m 3.535051,0 h 1.113339 l 0.463214,-1.41402 h 2.161665 l 0.455087,1.41402 h 1.162098 l -1.950374,-5.63983 h -1.349009 z m 1.877236,-2.34858 0.780149,-2.38921 0.78015,2.38921 z"
             id="text3"
             aria-label="EXADATA" /><path
             style="fill:none;stroke:#000000;stroke-width:1.33552;stroke-linecap:butt;stroke-linejoin:miter;stroke-dasharray:none;stroke-opacity:1"
             d="m 29.102401,151.71841 c 72.723609,0 72.723609,0 72.723609,0"
             id="path5" /></g></g></g><path
       id="path7"
       style="fill:none;stroke:#000000;stroke-width:0.316972"
       d="m 126.41931,83.292813 c 1e-5,2.53976 -9.5229,4.59864 -21.27002,4.59864 -11.747101,0 -21.270011,-2.05888 -21.270001,-4.59864 0,-2.53976 9.52291,-4.59864 21.270001,-4.59864 11.74711,0 21.27002,2.05888 21.27002,4.59864 z m -21.27027,-4.61263 c -11.381991,0.004 -20.758861,1.92893 -21.242211,4.38754 l -0.0268,0.22723 -0.015,41.290427 -4.3e-4,6.1e-4 c 0.70305,2.41977 10.07023,4.30524 21.284381,4.30972 10.40858,-0.004 20.40008,-1.46167 21.29265,-4.33393 l -0.0232,-41.270887 -0.0186,-0.20737 c -0.48391,-2.46158 -9.85505,-4.40335 -21.25085,-4.40334 z"
       sodipodi:nodetypes="ssssscccccccccc" /><path
       id="path8"
       style="fill:#ffffff;fill-opacity:1;stroke:#000000;stroke-width:0.316972"
       d="m 121.55711,87.592503 c 1e-5,2.53976 -9.5229,4.59864 -21.27003,4.59864 -11.747101,0 -21.270011,-2.05888 -21.270001,-4.59864 0,-2.53976 9.52291,-4.59864 21.270001,-4.59864 11.74712,0 21.27003,2.05888 21.27003,4.59864 z m -21.27028,-4.61263 c -11.381991,0.004 -20.758871,1.92893 -21.242221,4.38754 l -0.0268,0.22723 -0.0149,41.290427 -4.3e-4,6.1e-4 c 0.70306,2.41977 10.07024,4.30524 21.284391,4.30972 10.40859,-0.004 20.40009,-1.46167 21.29266,-4.33393 l -0.0232,-41.270887 -0.0186,-0.20737 c -0.48391,-2.46158 -9.85505,-4.40335 -21.25086,-4.40334 z"
       sodipodi:nodetypes="ssssscccccccccc" /><path
       d="m 120.56468,86.191563 c -2.72108,-1.86183 -10.76979,-3.21169 -20.28093,-3.21169 -11.254871,0 -20.461881,1.89035 -21.214201,4.28242 -0.009,0.0304 -0.0224,0.0604 -0.0284,0.091 l -0.0269,0.22738 c 0.005,2.53879 9.52566,4.59662 21.269491,4.59662 11.73349,0 21.24694,-2.05421 21.26899,-4.5899 v -0.0109 l -0.003,-0.0279 c -0.0126,-0.42347 -0.29291,-0.83319 -0.80099,-1.22215 -0.0585,-0.0453 -0.11981,-0.0902 -0.18448,-0.13487 z"
       style="fill:#ffffff;fill-opacity:1;stroke:#000000;stroke-width:0.316972"
       id="path14" /><g
       id="g21"
       transform="matrix(0.95512928,0,0,0.95512928,38.39941,-16.866907)"
       style="stroke-width:1.04697"><path
         d="m 68.914169,128.91724 -3.775445,3.77542 c -0.591979,0.592 -1.552496,0.592 -2.144475,0 l -3.775421,-3.77542 c -0.591993,-0.59201 -0.591993,-1.5525 0,-2.1445 l 3.775421,-3.77543 c 0.591979,-0.59199 1.552496,-0.59199 2.144475,0 l 3.775445,3.77543 c 0.592005,0.592 0.592005,1.55249 0,2.1445 z"
         fill="#ed453a"
         id="path15"
         style="stroke-width:0.277012" /><path
         d="m 64.031416,125.59595 -0.453734,0.46122 0.432699,0.43984 1.740033,1.76885 0.0047,0.005 1.251241,-1.27194 -0.0047,-0.005 -0.425661,-0.4327 -1.314371,-1.33614 -0.432673,-0.43983 z m 0.774118,0.0903 1.314397,1.33614 -0.341471,0.34711 -1.314371,-1.33612 z"
         fill="#ffffff"
         id="path17"
         style="stroke-width:0.277012" /><path
         d="m 62.381633,128.23257 0.425662,-0.43269 -0.432674,-0.43982 -0.425635,-0.4327 -0.432699,-0.43984 -1.330751,1.35278 0.0047,0.005 1.155343,1.17448 0.130984,0.13314 2.542196,2.58432 0.453708,-0.46122 -2.542196,-2.58432 z m -0.432647,-0.43984 -0.449051,0.45649 -0.425674,-0.4327 0.449064,-0.45646 z"
         fill="#ffffff"
         id="path18"
         style="stroke-width:0.277012" /><path
         d="m 67.410568,127.40999 -1.655842,1.68322 -2.970212,-3.01699 1.655842,-1.68327 -0.430318,-0.43983 -2.111905,2.14451 0.007,0.007 3.395874,3.45207 0.432673,0.43985 0.453708,-0.46363 1.655841,-1.68323 z"
         fill="#ffffff"
         id="path19"
         style="stroke-width:0.277012" /><path
         d="m 64.034432,129.14144 -0.431641,0.43876 1.268439,1.28942 0.431615,-0.43875 z"
         fill="#ffffff"
         id="path20"
         style="stroke-width:0.277012" /><path
         d="m 63.180198,128.27337 -0.431641,0.43879 0.45974,0.46736 0.431641,-0.43879 z"
         fill="#ffffff"
         id="path21"
         style="stroke-width:0.277012" /></g><g
       id="orginal"
       style="clip-rule:nonzero;fill-rule:nonzero;stroke:#000000;stroke-miterlimit:4"
       transform="matrix(0.11386149,0,0,0.11386149,176.057,77.522942)">
	</g><g
       id="g34"
       transform="translate(-8.4666671,-1.1437335)"><path
         id="path22"
         style="fill:none;stroke:#000000;stroke-width:0.316972"
         d="m 210.06504,84.436548 c 1e-5,2.53976 -9.5229,4.59864 -21.27002,4.59864 -11.74711,0 -21.27002,-2.05888 -21.27001,-4.59864 0,-2.53976 9.52291,-4.59864 21.27001,-4.59864 11.74711,0 21.27002,2.05888 21.27002,4.59864 z m -21.27027,-4.61263 c -11.382,0.004 -20.75887,1.92893 -21.24222,4.38754 l -0.0268,0.22723 -0.015,41.290422 -4.3e-4,6.1e-4 c 0.70305,2.41977 10.07023,4.30524 21.28439,4.30972 10.40858,-0.004 20.40008,-1.46167 21.29265,-4.33393 l -0.0232,-41.270882 -0.0186,-0.20737 c -0.48391,-2.46158 -9.85505,-4.40335 -21.25085,-4.40334 z"
         sodipodi:nodetypes="ssssscccccccccc" /><path
         id="path23"
         style="fill:#ffffff;fill-opacity:1;stroke:#000000;stroke-width:0.316972"
         d="m 205.20284,88.736238 c 1e-5,2.53976 -9.5229,4.59864 -21.27003,4.59864 -11.74711,0 -21.27002,-2.05888 -21.27001,-4.59864 0,-2.53976 9.52291,-4.59864 21.27001,-4.59864 11.74712,0 21.27003,2.05888 21.27003,4.59864 z m -21.27028,-4.61263 c -11.382,0.004 -20.75888,1.92893 -21.24223,4.38754 l -0.0268,0.22723 -0.0149,41.290422 -4.3e-4,6.1e-4 c 0.70306,2.41977 10.07024,4.30524 21.2844,4.30972 10.40859,-0.004 20.40009,-1.46167 21.29266,-4.33393 l -0.0232,-41.270882 -0.0186,-0.20737 c -0.48391,-2.46158 -9.85505,-4.40335 -21.25086,-4.40334 z"
         sodipodi:nodetypes="ssssscccccccccc" /><path
         d="m 204.21041,87.335298 c -2.72108,-1.86183 -10.76979,-3.21169 -20.28093,-3.21169 -11.25488,0 -20.46189,1.89035 -21.21421,4.28242 -0.009,0.0304 -0.0224,0.0604 -0.0284,0.091 l -0.0269,0.22738 c 0.005,2.53879 9.52566,4.59662 21.2695,4.59662 11.73349,0 21.24694,-2.05421 21.26899,-4.5899 v -0.0109 l -0.003,-0.0279 c -0.0126,-0.42347 -0.29291,-0.83319 -0.80099,-1.22215 -0.0585,-0.0453 -0.11981,-0.0902 -0.18448,-0.13487 z"
         style="fill:#ffffff;fill-opacity:1;stroke:#000000;stroke-width:0.316972"
         id="path24" /><g
         id="g30"
         transform="translate(25.037977,-1.9013081)"><g
           id="text24"
           style="font-size:4.23138px;line-height:1.25;font-family:HelveticaNeueCyr;-inkscape-font-specification:HelveticaNeueCyr;stroke-width:0.264583"
           aria-label="PostgreSQL&#10;cluster"><path
             style="font-weight:bold;text-align:center;text-anchor:middle"
             d="m 146.00007,116.04252 h 1.29903 q 0.50777,0 0.80396,0.24542 0.30043,0.24119 0.30043,0.72357 0,0.47392 -0.2962,0.71934 -0.29619,0.24118 -0.77434,0.24118 h -0.67702 v 1.08324 h -0.65586 z m 0.65586,0.54162 v 0.86743 h 0.58816 q 0.51623,0 0.51623,-0.4316 0,-0.43583 -0.512,-0.43583 z m 3.17354,0.22426 q 0.50353,0 0.80819,0.31736 0.30889,0.31735 0.30889,0.83781 0,0.52469 -0.30889,0.84205 -0.30466,0.31735 -0.81666,0.31735 -0.51199,0 -0.82088,-0.31735 -0.3089,-0.31736 -0.3089,-0.84205 0,-0.52046 0.31313,-0.83781 0.31312,-0.31736 0.82512,-0.31736 z m -0.0169,0.45699 q -0.24119,0 -0.38082,0.18618 -0.13964,0.18619 -0.13964,0.512 0,0.33428 0.13964,0.52046 0.13963,0.18618 0.38928,0.18618 0.24965,0 0.38506,-0.18618 0.13963,-0.19041 0.13963,-0.52469 0,-0.32582 -0.14386,-0.50777 -0.13964,-0.18618 -0.38929,-0.18618 z m 3.37241,0.24119 h -0.55854 q -0.0254,-0.16502 -0.12694,-0.23272 -0.0973,-0.0677 -0.28774,-0.0677 -0.16079,0 -0.24965,0.0592 -0.0889,0.055 -0.0889,0.15656 0,0.11848 0.10156,0.16503 0.10155,0.0465 0.36389,0.10155 0.0465,0.008 0.0677,0.0127 0.15233,0.0296 0.24119,0.055 0.0931,0.0212 0.22426,0.0762 0.13117,0.0508 0.2031,0.11848 0.0719,0.0635 0.12695,0.17348 0.055,0.11002 0.055,0.25389 0,0.34274 -0.26657,0.54161 -0.26658,0.19888 -0.73203,0.19888 -0.4443,0 -0.73203,-0.19041 -0.28773,-0.19042 -0.29197,-0.58393 h 0.57124 q 0.0296,0.36389 0.46545,0.36389 0.18195,0 0.28774,-0.0719 0.11001,-0.0762 0.11001,-0.19887 0,-0.12271 -0.0973,-0.17349 -0.0973,-0.0508 -0.35967,-0.11002 -0.0211,-0.004 -0.0339,-0.008 -0.0296,-0.008 -0.13117,-0.0296 -0.10155,-0.0212 -0.14387,-0.0296 -0.0381,-0.0127 -0.13117,-0.0381 -0.0889,-0.0254 -0.13117,-0.0465 -0.0423,-0.0254 -0.11425,-0.0592 -0.0677,-0.0381 -0.10155,-0.0804 -0.0339,-0.0423 -0.0762,-0.0973 -0.0381,-0.0592 -0.055,-0.13118 -0.0127,-0.0719 -0.0127,-0.15656 0,-0.32158 0.24965,-0.49507 0.24965,-0.17349 0.70664,-0.17349 0.41045,0 0.67279,0.16926 0.26235,0.16925 0.27504,0.52892 z m 1.62908,-0.6347 v 0.40621 h -0.44429 v 1.02822 q 0,0.0973 0.004,0.14387 0.004,0.0423 0.0296,0.0889 0.0254,0.0465 0.0762,0.0635 0.055,0.0127 0.15232,0.0127 0.11002,0 0.18195,-0.008 v 0.45699 q -0.22003,0.0169 -0.36389,0.0169 -0.39352,0 -0.53739,-0.13541 -0.13964,-0.13963 -0.13964,-0.53315 v -1.13401 h -0.36389 v -0.40621 h 0.36389 v -0.6601 h 0.59663 v 0.6601 z m 2.38227,0 v 1.95489 q 0,0.53739 -0.26658,0.78704 -0.26658,0.25388 -0.80819,0.25388 -0.93514,0 -1.024,-0.68125 h 0.59663 q 0.0339,0.1481 0.13963,0.21157 0.10579,0.0677 0.30043,0.0677 0.2835,0 0.38083,-0.13963 0.0973,-0.13541 0.10155,-0.42737 l 0.004,-0.24542 q -0.24542,0.33851 -0.66856,0.33851 -0.42737,0 -0.68125,-0.29197 -0.24965,-0.29196 -0.24965,-0.7828 0,-0.49931 0.26234,-0.79973 0.26235,-0.30466 0.69395,-0.30466 0.22849,0 0.37659,0.0846 0.15233,0.0804 0.27504,0.26658 v -0.29196 z m -0.70664,0.57123 q -0.13541,-0.16502 -0.37236,-0.16502 -0.23696,0 -0.37237,0.16925 -0.13117,0.16503 -0.13117,0.46545 0,0.28774 0.13541,0.46123 0.13963,0.16925 0.37236,0.16925 0.23272,0 0.36813,-0.17349 0.1354,-0.17348 0.1354,-0.46968 0,-0.29196 -0.1354,-0.45699 z m 2.61499,-0.60932 v 0.55431 q -0.12694,-0.0254 -0.23273,-0.0254 -0.29619,0 -0.43583,0.19041 -0.13963,0.18618 -0.13963,0.50353 v 0.99861 h -0.60086 v -2.18339 h 0.57124 v 0.40198 q 0.2158,-0.45276 0.70664,-0.45276 0.0423,0 0.13117,0.0127 z m 2.20455,1.54446 q -0.10155,0.3512 -0.37659,0.54584 -0.27081,0.19465 -0.6474,0.19465 -0.50354,0 -0.81243,-0.31312 -0.30466,-0.31313 -0.30466,-0.82935 0,-0.50777 0.30889,-0.83782 0.30889,-0.33005 0.78704,-0.33005 0.49507,0 0.78704,0.33851 0.29196,0.33428 0.29196,0.90975 v 0.0592 h -1.56561 q 0.004,0.2835 0.13541,0.4316 0.1354,0.1481 0.37659,0.1481 0.31735,0 0.44429,-0.31735 z m -0.57547,-0.64317 q -0.0212,-0.2158 -0.13963,-0.35121 -0.11848,-0.13963 -0.33005,-0.13963 -0.19887,0 -0.33005,0.13117 -0.13117,0.13117 -0.15656,0.35967 z m 3.24547,-0.7955 h -0.62625 q -0.0381,-0.44853 -0.57123,-0.44853 -0.2285,0 -0.35967,0.0931 -0.12694,0.0889 -0.12694,0.24965 0,0.055 0.0169,0.0973 0.0169,0.0423 0.0635,0.0804 0.0465,0.0339 0.0931,0.0592 0.0465,0.0212 0.1354,0.0508 0.0931,0.0254 0.16502,0.0465 0.0762,0.0212 0.21157,0.055 0.13541,0.0339 0.23696,0.0635 0.4443,0.12694 0.6601,0.31735 0.22003,0.19042 0.22003,0.54585 0,0.25812 -0.10579,0.45276 -0.10578,0.19041 -0.28773,0.30466 -0.17772,0.11001 -0.39352,0.16079 -0.21157,0.055 -0.45276,0.055 -0.61355,0 -0.96052,-0.27927 -0.34274,-0.2835 -0.34697,-0.7955 h 0.65586 q 0.0169,0.567 0.68125,0.567 0.25812,0 0.40622,-0.10578 0.15233,-0.11002 0.15233,-0.2962 0,-0.15656 -0.13964,-0.22849 -0.1354,-0.0719 -0.57547,-0.19888 -0.0719,-0.0169 -0.11001,-0.0296 -0.15233,-0.0423 -0.21157,-0.0592 -0.0592,-0.0212 -0.19042,-0.0677 -0.12694,-0.0465 -0.18618,-0.0846 -0.0592,-0.0381 -0.14809,-0.10578 -0.0846,-0.0677 -0.12271,-0.13964 -0.0381,-0.0762 -0.0719,-0.18194 -0.0296,-0.11002 -0.0296,-0.23696 0,-0.41045 0.31736,-0.65587 0.31735,-0.24542 0.84204,-0.24542 0.50777,0 0.82935,0.24119 0.32159,0.23696 0.33005,0.71934 z m 3.3301,2.08184 -0.3089,0.33428 -0.44429,-0.40199 q -0.27081,0.17349 -0.7278,0.17349 -0.65586,0 -1.06207,-0.4316 -0.40198,-0.4316 -0.40198,-1.13824 0,-0.69818 0.41467,-1.13824 0.41891,-0.4443 1.079,-0.4443 0.6474,0 1.05785,0.44007 0.41044,0.43583 0.41044,1.12554 0,0.35121 -0.10578,0.6474 -0.10579,0.2962 -0.30043,0.47815 z m -0.84628,-0.77858 q 0.20311,-0.24119 0.20311,-0.69818 0,-0.47391 -0.22004,-0.74895 -0.22003,-0.27504 -0.60085,-0.27504 -0.37236,0 -0.59663,0.27927 -0.22003,0.27927 -0.22003,0.75319 0,0.47814 0.22003,0.76165 0.22004,0.2835 0.5924,0.2835 0.15233,0 0.28773,-0.0592 l -0.30043,-0.26235 0.30889,-0.33004 z m 3.45704,0.24542 v 0.56701 h -2.13262 v -3.01275 h 0.6601 v 2.44574 z"
             id="path34" /><path
             style="font-weight:bold;text-align:center;text-anchor:middle"
             d="m 153.2315,123.50245 q -0.055,0.42314 -0.33428,0.66009 -0.27504,0.23696 -0.71087,0.23696 -0.50354,0 -0.8082,-0.30889 -0.30465,-0.30889 -0.30465,-0.82089 0,-0.52892 0.30465,-0.85051 0.3089,-0.32158 0.81666,-0.32158 0.43583,0 0.71087,0.22426 0.27504,0.22003 0.31312,0.60086 h -0.58816 q -0.0677,-0.37659 -0.4316,-0.37659 -0.24542,0 -0.38505,0.19041 -0.13541,0.18618 -0.13541,0.52046 0,0.32581 0.13118,0.50776 0.1354,0.17772 0.37659,0.17772 0.39352,0 0.46545,-0.44006 z m 0.96475,-2.1707 v 3.01274 h -0.60085 v -3.01274 z m 2.5219,0.82935 v 2.18339 h -0.57123 v -0.30889 q -0.25389,0.37236 -0.71088,0.37236 -0.35966,0 -0.56277,-0.19464 -0.19888,-0.19888 -0.19888,-0.58393 v -1.46829 h 0.60509 v 1.24826 q 0,0.12271 0.008,0.19887 0.0127,0.0719 0.0465,0.1481 0.0339,0.0762 0.11002,0.11425 0.0804,0.0339 0.2031,0.0339 0.47392,0 0.47392,-0.61778 v -1.12555 z m 2.30611,0.63471 h -0.55855 q -0.0254,-0.16503 -0.12694,-0.23273 -0.0973,-0.0677 -0.28773,-0.0677 -0.16079,0 -0.24965,0.0592 -0.0889,0.055 -0.0889,0.15656 0,0.11848 0.10155,0.16502 0.10155,0.0465 0.3639,0.10156 0.0465,0.008 0.0677,0.0127 0.15233,0.0296 0.24119,0.055 0.0931,0.0212 0.22426,0.0762 0.13118,0.0508 0.20311,0.11848 0.0719,0.0635 0.12694,0.17349 0.055,0.11001 0.055,0.25388 0,0.34274 -0.26658,0.54162 -0.26658,0.19887 -0.73203,0.19887 -0.44429,0 -0.73203,-0.19041 -0.28773,-0.19041 -0.29196,-0.58393 h 0.57124 q 0.0296,0.3639 0.46545,0.3639 0.18195,0 0.28773,-0.0719 0.11002,-0.0762 0.11002,-0.19888 0,-0.12271 -0.0973,-0.17349 -0.0973,-0.0508 -0.35967,-0.11001 -0.0212,-0.004 -0.0339,-0.008 -0.0296,-0.008 -0.13118,-0.0296 -0.10155,-0.0212 -0.14386,-0.0296 -0.0381,-0.0127 -0.13118,-0.0381 -0.0889,-0.0254 -0.13117,-0.0465 -0.0423,-0.0254 -0.11425,-0.0592 -0.0677,-0.0381 -0.10155,-0.0804 -0.0339,-0.0423 -0.0762,-0.0973 -0.0381,-0.0592 -0.055,-0.13117 -0.0127,-0.0719 -0.0127,-0.15656 0,-0.32159 0.24966,-0.49507 0.24965,-0.17349 0.70664,-0.17349 0.41044,0 0.67279,0.16925 0.26234,0.16926 0.27504,0.52893 z m 1.62908,-0.63471 v 0.40621 h -0.4443 v 1.02823 q 0,0.0973 0.004,0.14386 0.004,0.0423 0.0296,0.0889 0.0254,0.0465 0.0762,0.0635 0.055,0.0127 0.15233,0.0127 0.11002,0 0.18195,-0.008 v 0.45699 q -0.22003,0.0169 -0.3639,0.0169 -0.39352,0 -0.53738,-0.1354 -0.13964,-0.13964 -0.13964,-0.53316 v -1.13401 h -0.3639 v -0.40621 h 0.3639 v -0.6601 h 0.59662 v 0.6601 z m 2.33995,1.50637 q -0.10155,0.35121 -0.37659,0.54585 -0.27081,0.19464 -0.64741,0.19464 -0.50353,0 -0.81242,-0.31312 -0.30466,-0.31312 -0.30466,-0.82935 0,-0.50777 0.30889,-0.83781 0.30889,-0.33005 0.78704,-0.33005 0.49507,0 0.78703,0.33851 0.29197,0.33428 0.29197,0.90975 v 0.0592 h -1.56561 q 0.004,0.2835 0.1354,0.4316 0.13541,0.1481 0.3766,0.1481 0.31735,0 0.44429,-0.31736 z m -0.57547,-0.64317 q -0.0212,-0.2158 -0.13963,-0.3512 -0.11848,-0.13964 -0.33005,-0.13964 -0.19888,0 -0.33005,0.13117 -0.13117,0.13118 -0.15656,0.35967 z m 2.36957,-0.90128 v 0.55431 q -0.12694,-0.0254 -0.23272,-0.0254 -0.2962,0 -0.43584,0.19041 -0.13963,0.18618 -0.13963,0.50354 v 0.9986 h -0.60086 v -2.18339 h 0.57124 v 0.40198 q 0.2158,-0.45276 0.70664,-0.45276 0.0423,0 0.13117,0.0127 z"
             id="path35" /></g><g
           id="Layer_x0020_3"
           style="clip-rule:nonzero;fill:none;fill-rule:nonzero;stroke:#ffffff;stroke-width:12.4651;stroke-linecap:round;stroke-linejoin:round;stroke-miterlimit:4"
           transform="matrix(0.02245276,0,0,0.02245276,153.10629,102.83664)">
<path
   style="fill:#000000;stroke:#000000;stroke-width:37.3953;stroke-linecap:butt;stroke-linejoin:miter"
   d="m 323.205,324.227 c 2.833,-23.601 1.984,-27.062 19.563,-23.239 l 4.463,0.392 c 13.517,0.615 31.199,-2.174 41.587,-7 22.362,-10.376 35.622,-27.7 13.572,-23.148 -50.297,10.376 -53.755,-6.655 -53.755,-6.655 C 401.746,185.774 423.948,85.741 404.784,61.255 352.514,-5.534 262.036,26.049 260.522,26.869 l -0.482,0.089 c -9.938,-2.062 -21.06,-3.294 -33.554,-3.496 -22.761,-0.374 -40.032,5.967 -53.133,15.904 0,0 -161.408,-66.498 -153.899,83.628 1.597,31.936 45.777,241.655 98.47,178.31 19.259,-23.163 37.871,-42.748 37.871,-42.748 9.242,6.14 20.307,9.272 31.912,8.147 l 0.897,-0.765 c -0.281,2.876 -0.157,5.689 0.359,9.019 -13.572,15.167 -9.584,17.83 -36.723,23.416 -27.457,5.659 -11.326,15.734 -0.797,18.367 12.768,3.193 42.305,7.716 62.268,-20.224 l -0.795,3.188 c 5.325,4.26 4.965,30.619 5.72,49.452 0.756,18.834 2.017,36.409 5.856,46.771 3.839,10.36 8.369,37.05 44.036,29.406 29.809,-6.388 52.6,-15.582 54.677,-101.107"
   id="path1-8" />
<path
   style="fill:#336791;stroke:none"
   d="m 402.395,271.23 c -50.302,10.376 -53.76,-6.655 -53.76,-6.655 53.111,-78.808 75.313,-178.843 56.153,-203.326 -52.27,-66.785 -142.752,-35.2 -144.262,-34.38 l -0.486,0.087 c -9.938,-2.063 -21.06,-3.292 -33.56,-3.496 -22.761,-0.373 -40.026,5.967 -53.127,15.902 0,0 -161.411,-66.495 -153.904,83.63 1.597,31.938 45.776,241.657 98.471,178.312 19.26,-23.163 37.869,-42.748 37.869,-42.748 9.243,6.14 20.308,9.272 31.908,8.147 l 0.901,-0.765 c -0.28,2.876 -0.152,5.689 0.361,9.019 -13.575,15.167 -9.586,17.83 -36.723,23.416 -27.459,5.659 -11.328,15.734 -0.796,18.367 12.768,3.193 42.307,7.716 62.266,-20.224 l -0.796,3.188 c 5.319,4.26 9.054,27.711 8.428,48.969 -0.626,21.259 -1.044,35.854 3.147,47.254 4.191,11.4 8.368,37.05 44.042,29.406 29.809,-6.388 45.256,-22.942 47.405,-50.555 1.525,-19.631 4.976,-16.729 5.194,-34.28 l 2.768,-8.309 c 3.192,-26.611 0.507,-35.196 18.872,-31.203 l 4.463,0.392 c 13.517,0.615 31.208,-2.174 41.591,-7 22.358,-10.376 35.618,-27.7 13.573,-23.148 z"
   id="path2" />
<path
   d="m 215.866,286.484 c -1.385,49.516 0.348,99.377 5.193,111.495 4.848,12.118 15.223,35.688 50.9,28.045 29.806,-6.39 40.651,-18.756 45.357,-46.051 3.466,-20.082 10.148,-75.854 11.005,-87.281"
   id="path3" />
<path
   d="m 173.104,38.256 c 0,0 -161.521,-66.016 -154.012,84.109 1.597,31.938 45.779,241.664 98.473,178.316 19.256,-23.166 36.671,-41.335 36.671,-41.335"
   id="path4-4" />
<path
   d="m 260.349,26.207 c -5.591,1.753 89.848,-34.889 144.087,34.417 19.159,24.484 -3.043,124.519 -56.153,203.329"
   id="path5-5" />
<path
   style="stroke-linejoin:bevel"
   d="m 348.282,263.953 c 0,0 3.461,17.036 53.764,6.653 22.04,-4.552 8.776,12.774 -13.577,23.155 -18.345,8.514 -59.474,10.696 -60.146,-1.069 -1.729,-30.355 21.647,-21.133 19.96,-28.739 -1.525,-6.85 -11.979,-13.573 -18.894,-30.338 -6.037,-14.633 -82.796,-126.849 21.287,-110.183 3.813,-0.789 -27.146,-99.002 -124.553,-100.599 -97.385,-1.597 -94.19,119.762 -94.19,119.762"
   id="path6" />
<path
   d="m 188.604,274.334 c -13.577,15.166 -9.584,17.829 -36.723,23.417 -27.459,5.66 -11.326,15.733 -0.797,18.365 12.768,3.195 42.307,7.718 62.266,-20.229 6.078,-8.509 -0.036,-22.086 -8.385,-25.547 -4.034,-1.671 -9.428,-3.765 -16.361,3.994 z"
   id="path7-0" />
<path
   d="m 187.715,274.069 c -1.368,-8.917 2.93,-19.528 7.536,-31.942 6.922,-18.626 22.893,-37.255 10.117,-96.339 -9.523,-44.029 -73.396,-9.163 -73.436,-3.193 -0.039,5.968 2.889,30.26 -1.067,58.548 -5.162,36.913 23.488,68.132 56.479,64.938"
   id="path8-3" />
<path
   style="fill:#ffffff;stroke-width:4.155;stroke-linecap:butt;stroke-linejoin:miter"
   d="m 172.517,141.7 c -0.288,2.039 3.733,7.48 8.976,8.207 5.234,0.73 9.714,-3.522 9.998,-5.559 0.284,-2.039 -3.732,-4.285 -8.977,-5.015 -5.237,-0.731 -9.719,0.333 -9.996,2.367 z"
   id="path9" />
<path
   style="fill:#ffffff;stroke-width:2.0775;stroke-linecap:butt;stroke-linejoin:miter"
   d="m 331.941,137.543 c 0.284,2.039 -3.732,7.48 -8.976,8.207 -5.238,0.73 -9.718,-3.522 -10.005,-5.559 -0.277,-2.039 3.74,-4.285 8.979,-5.015 5.239,-0.73 9.718,0.333 10.002,2.368 z"
   id="path10" />
<path
   d="m 350.676,123.432 c 0.863,15.994 -3.445,26.888 -3.988,43.914 -0.804,24.748 11.799,53.074 -7.191,81.435"
   id="path11" />
<path
   style="stroke-width:3"
   d="M 0,60.232"
   id="path12-6" />
</g></g></g><g
       id="text1"
       style="font-size:4.10112px;font-family:HelveticaNeueCyr;-inkscape-font-specification:HelveticaNeueCyr;stroke-width:0.34176"
       aria-label="Picodata&#10;+ Synapse"><path
         style="font-weight:bold;text-align:center;text-anchor:middle"
         d="m 91.410251,114.15717 v 2.91999 h 0.635673 v -1.04988 h 0.65618 c 0.58646,0 1.037583,-0.29528 1.037583,-0.93096 0,-0.64387 -0.43882,-0.93915 -1.070392,-0.93915 z m 0.635673,0.52494 h 0.574157 c 0.282977,0 0.496236,0.11073 0.496236,0.42241 0,0.32399 -0.213259,0.41832 -0.500337,0.41832 h -0.570056 z m 2.632919,-0.52494 h -0.582359 v 0.49213 h 0.582359 z m 0,0.80382 h -0.582359 v 2.11617 h 0.582359 z m 2.477074,1.30005 h -0.561854 c -0.04511,0.27888 -0.200955,0.42652 -0.451123,0.42652 -0.311685,0 -0.492134,-0.24197 -0.492134,-0.66438 0,-0.43472 0.188651,-0.68899 0.504437,-0.68899 0.225562,0 0.377304,0.13123 0.418315,0.365 h 0.570055 c -0.04921,-0.49214 -0.426516,-0.79972 -0.992471,-0.79972 -0.656179,0 -1.086796,0.45112 -1.086796,1.13601 0,0.66028 0.426516,1.095 1.078594,1.095 0.561854,0 0.939157,-0.31989 1.012977,-0.86944 z m 1.377974,-1.36157 c -0.664382,0 -1.103201,0.44702 -1.103201,1.1196 0,0.67669 0.434718,1.12371 1.094999,1.12371 0.66028,0 1.090898,-0.44292 1.090898,-1.12371 0,-0.67258 -0.430618,-1.1196 -1.082696,-1.1196 z m -0.0164,0.44292 c 0.323989,0 0.516741,0.25017 0.516741,0.67258 0,0.43472 -0.188651,0.68899 -0.508538,0.68899 -0.323989,0 -0.51264,-0.25017 -0.51264,-0.68489 0,-0.42241 0.192752,-0.67668 0.504437,-0.67668 z m 3.543364,1.73477 v -2.91999 h -0.57825 v 1.06629 c -0.13534,-0.21736 -0.39371,-0.31989 -0.64388,-0.31989 -0.56185,0 -0.926853,0.43882 -0.926853,1.1073 0,0.68489 0.373203,1.12371 0.959663,1.12371 0.29118,0 0.50034,-0.11073 0.63977,-0.32809 v 0.27067 z m -0.55775,-1.06219 c 0,0.41422 -0.18455,0.65208 -0.50444,0.65208 -0.31168,0 -0.50033,-0.24607 -0.50033,-0.65618 0,-0.40601 0.18455,-0.64797 0.50033,-0.64797 0.31579,0 0.50444,0.24196 0.50444,0.65207 z m 2.96921,1.06219 c -0.0779,-0.18045 -0.0738,-0.3814 -0.0738,-0.57415 v -0.91455 c 0,-0.59056 -0.49623,-0.68899 -0.92275,-0.68899 -0.61107,0 -0.94736,0.24197 -0.98017,0.71359 h 0.54545 c 0.041,-0.24196 0.15174,-0.32398 0.41832,-0.32398 0.25837,0 0.3814,0.0902 0.3814,0.28297 0,0.17225 -0.13944,0.20506 -0.51674,0.25427 -0.41831,0.0533 -0.92275,0.11893 -0.92275,0.67259 0,0.3978 0.28708,0.63977 0.7546,0.63977 0.25427,0 0.50444,-0.0861 0.68489,-0.26657 0.008,0.0943 0.0123,0.12713 0.041,0.20505 z m -0.63567,-1.02938 v 0.23787 c 0,0.30348 -0.21326,0.47163 -0.51674,0.47163 -0.20096,0 -0.31989,-0.10663 -0.31989,-0.28298 0,-0.25837 0.22556,-0.28298 0.42652,-0.31579 0.14764,-0.0246 0.27477,-0.0328 0.41011,-0.11073 z m 2.18589,-1.08679 h -0.43061 v -0.63978 h -0.57826 v 0.63978 h -0.3527 v 0.3937 h 0.3527 v 1.0991 c 0,0.51674 0.15584,0.64798 0.65618,0.64798 0.13123,0 0.19275,-0.004 0.35269,-0.0164 v -0.44293 c -0.0697,0.008 -0.11483,0.008 -0.17634,0.008 -0.25017,0 -0.25427,-0.0943 -0.25427,-0.29938 v -0.99658 h 0.43061 z m 2.24741,2.11617 c -0.0779,-0.18045 -0.0738,-0.3814 -0.0738,-0.57415 v -0.91455 c 0,-0.59056 -0.49623,-0.68899 -0.92275,-0.68899 -0.61106,0 -0.94736,0.24197 -0.98017,0.71359 h 0.54545 c 0.041,-0.24196 0.15174,-0.32398 0.41832,-0.32398 0.25837,0 0.3814,0.0902 0.3814,0.28297 0,0.17225 -0.13944,0.20506 -0.51674,0.25427 -0.41831,0.0533 -0.92275,0.11893 -0.92275,0.67259 0,0.3978 0.28708,0.63977 0.7546,0.63977 0.25427,0 0.50444,-0.0861 0.68489,-0.26657 0.008,0.0943 0.0123,0.12713 0.041,0.20505 z m -0.63567,-1.02938 v 0.23787 c 0,0.30348 -0.21326,0.47163 -0.51674,0.47163 -0.20096,0 -0.31989,-0.10663 -0.31989,-0.28298 0,-0.25837 0.22556,-0.28298 0.42652,-0.31579 0.14764,-0.0246 0.27477,-0.0328 0.41011,-0.11073 z"
         id="path13" /><path
         style="font-weight:bold;text-align:center;text-anchor:middle"
         d="m 90.667943,122.20356 h 0.442921 v -0.85713 h 0.84483 v -0.41421 h -0.84483 v -0.85714 h -0.442921 v 0.85714 h -0.844831 v 0.41421 h 0.844831 z m 5.036176,-2.05056 c -0.0123,-0.65207 -0.508539,-0.93095 -1.123707,-0.93095 -0.680786,0 -1.123707,0.34449 -1.123707,0.87354 0,0.59466 0.455225,0.71359 0.930955,0.84893 0.602864,0.17225 0.799718,0.21326 0.799718,0.44292 0,0.24197 -0.205056,0.38961 -0.541348,0.38961 -0.389606,0 -0.647977,-0.15585 -0.66028,-0.54955 h -0.635674 c 0.0082,0.66028 0.47573,1.04168 1.267246,1.04168 0.594663,0 1.201628,-0.25427 1.201628,-0.94326 0,-0.48803 -0.33219,-0.68898 -0.853033,-0.83662 -0.582359,-0.16405 -0.894044,-0.18455 -0.894044,-0.43882 0,-0.20916 0.176348,-0.3322 0.471629,-0.3322 0.340393,0 0.529045,0.15175 0.553651,0.43472 z m 2.362246,-0.0656 H 97.4635 l -0.467527,1.43949 -0.483932,-1.43949 h -0.627472 l 0.76691,2.02185 c 0.0082,0.0246 0.0164,0.0615 0.0164,0.082 0,0.17635 -0.102528,0.28298 -0.295281,0.28298 h -0.282977 v 0.47983 c 0.282977,0.004 0.209157,0.004 0.389607,0.004 0.537246,0 0.635673,-0.29528 0.80792,-0.76281 z m 2.198195,2.11617 v -1.41488 c 0,-0.49214 -0.287077,-0.75871 -0.734099,-0.75871 -0.299382,0 -0.533146,0.12713 -0.701292,0.3527 v -0.29528 h -0.553651 v 2.11617 h 0.578258 v -1.13601 c 0,-0.30758 0.11073,-0.55775 0.459325,-0.55775 0.311685,0 0.360899,0.19685 0.360899,0.45933 v 1.23443 z m 2.40736,0 c -0.0779,-0.18045 -0.0738,-0.3814 -0.0738,-0.57415 v -0.91455 c 0,-0.59056 -0.49624,-0.68899 -0.92275,-0.68899 -0.61107,0 -0.94736,0.24197 -0.98017,0.71359 h 0.54545 c 0.041,-0.24196 0.15174,-0.32398 0.41831,-0.32398 0.25837,0 0.38141,0.0902 0.38141,0.28297 0,0.17225 -0.13944,0.20506 -0.51674,0.25427 -0.41832,0.0533 -0.92276,0.11893 -0.92276,0.67259 0,0.3978 0.28708,0.63977 0.75461,0.63977 0.25427,0 0.50444,-0.0861 0.68489,-0.26657 0.008,0.0943 0.0123,0.12713 0.041,0.20505 z m -0.63567,-1.02938 v 0.23787 c 0,0.30348 -0.21326,0.47163 -0.51674,0.47163 -0.20096,0 -0.31989,-0.10663 -0.31989,-0.28298 0,-0.25837 0.22556,-0.28298 0.42651,-0.31579 0.14765,-0.0246 0.27478,-0.0328 0.41012,-0.11073 z m 1.57072,-1.08679 h -0.54955 v 2.86668 h 0.57826 v -1.01298 c 0.15584,0.21736 0.38551,0.31579 0.65208,0.31579 0.55365,0 0.91865,-0.43472 0.91865,-1.0991 0,-0.68079 -0.3732,-1.12781 -0.94326,-1.12781 -0.27067,0 -0.50033,0.10253 -0.65618,0.31989 z m 0.51264,0.41011 c 0.31169,0 0.50444,0.24606 0.50444,0.66028 0,0.40191 -0.18865,0.64387 -0.50034,0.64387 -0.31988,0 -0.50853,-0.24196 -0.50853,-0.65207 0,-0.41012 0.18865,-0.65208 0.50443,-0.65208 z m 3.23169,0.20505 c -0.0164,-0.49213 -0.43472,-0.67668 -0.91865,-0.67668 -0.59057,0 -0.92686,0.23376 -0.92686,0.64798 0,0.50443 0.49214,0.56185 0.86944,0.64797 0.30348,0.0697 0.47573,0.10253 0.47573,0.28298 0,0.15994 -0.14764,0.26247 -0.38551,0.26247 -0.26657,0 -0.43061,-0.0984 -0.45112,-0.35269 h -0.55365 c 0.008,0.54134 0.46343,0.7505 0.99247,0.7505 0.60287,0 0.96787,-0.27477 0.96787,-0.7177 0,-0.47983 -0.44293,-0.57825 -0.82433,-0.65617 -0.33629,-0.0697 -0.51674,-0.0943 -0.51674,-0.27068 0,-0.13123 0.12303,-0.20916 0.32809,-0.20916 0.23376,0 0.3691,0.0697 0.40191,0.29118 z m 2.40326,0.84483 h -0.55776 c -0.0861,0.21326 -0.21736,0.30759 -0.43061,0.30759 -0.31169,0 -0.48804,-0.19686 -0.49624,-0.56185 h 1.51741 v -0.0574 c 0,-0.7423 -0.40601,-1.20983 -1.04578,-1.20983 -0.61517,0 -1.06219,0.47573 -1.06219,1.13191 0,0.66438 0.43062,1.1073 1.08269,1.1073 0.47984,0 0.86124,-0.25837 0.99248,-0.7177 z m -0.55776,-0.62337 h -0.92685 c 0.0328,-0.29528 0.21326,-0.47573 0.47163,-0.47573 0.29118,0 0.43062,0.21736 0.45522,0.47573 z"
         id="path16" /></g></g></svg>
