<?xml version="1.0" encoding="UTF-8" standalone="no"?>
<!-- Created with Inkscape (http://www.inkscape.org/) -->

<svg
   width="82.83223mm"
   height="71.001617mm"
   viewBox="0 0 82.83223 71.001617"
   version="1.1"
   id="svg1"
   inkscape:version="1.3 (0e150ed6c4, 2023-07-21)"
   sodipodi:docname="user_roles.svg"
   xmlns:inkscape="http://www.inkscape.org/namespaces/inkscape"
   xmlns:sodipodi="http://sodipodi.sourceforge.net/DTD/sodipodi-0.dtd"
   xmlns="http://www.w3.org/2000/svg"
   xmlns:svg="http://www.w3.org/2000/svg">
  <sodipodi:namedview
     id="namedview1"
     pagecolor="#ffffff"
     bordercolor="#666666"
     borderopacity="1.0"
     inkscape:showpageshadow="2"
     inkscape:pageopacity="0.0"
     inkscape:pagecheckerboard="0"
     inkscape:deskcolor="#d1d1d1"
     inkscape:document-units="mm"
     inkscape:zoom="2.8756734"
     inkscape:cx="181.69657"
     inkscape:cy="184.13078"
     inkscape:window-width="1854"
     inkscape:window-height="1011"
     inkscape:window-x="66"
     inkscape:window-y="32"
     inkscape:window-maximized="1"
     inkscape:current-layer="layer1" />
  <defs
     id="defs1" />
  <g
     inkscape:label="Layer 1"
     inkscape:groupmode="layer"
     id="layer1"
     transform="translate(-31.975545,-127.1622)">
    <g
       id="g2"
       transform="matrix(0.42324853,0,0,0.42324853,16.711383,97.333773)"
       style="stroke:#0038f7;stroke-opacity:1">
      <circle
         cx="53.923332"
         cy="142.6087"
         r="8.1640606"
         stroke="#1c274c"
         stroke-width="3.06153"
         id="circle1"
         style="fill:none;stroke:#0038f7;stroke-opacity:1" />
      <path
         d="m 70.24635,167.10089 c 0.0051,-0.33513 0.0051,-0.67557 0.0051,-1.0205 0,-5.07254 -7.310303,-9.18457 -16.328119,-9.18457 -9.017777,0 -16.328121,4.11203 -16.328121,9.18457 0,5.07253 0,9.18457 16.328121,9.18457 4.553504,0 7.837089,-0.31983 10.205075,-0.89111"
         stroke="#1c274c"
         stroke-width="3.06153"
         stroke-linecap="round"
         id="path9"
         style="fill:none;stroke:#0038f7;stroke-opacity:1" />
    </g>
    <g
       id="path31">
      <path
         style="color:#000000;fill:#0038f7;-inkscape-stroke:none"
         d="m 79.457031,144.4082 -24.830078,11.39844 0.310547,0.67773 24.830078,-11.39843 z"
         id="path45" />
      <g
         id="g42">
        <g
           id="path42">
          <path
             style="color:#000000;fill:#0038f7;fill-rule:evenodd;-inkscape-stroke:none"
             d="m 52.826836,157.04281 2.153787,-3.04051 1.555911,3.3893 z"
             id="path43" />
          <path
             style="color:#000000;fill:#0038f7;fill-rule:evenodd;-inkscape-stroke:none"
             d="M 55.027344,153.50781 52.375,157.25 l 0.427734,0.041 4.138672,0.38867 z m -0.09375,0.99024 1.197265,2.60547 -2.851562,-0.26758 z"
             id="path44" />
        </g>
      </g>
    </g>
    <g
       id="path32">
      <path
         style="color:#000000;fill:#0038f7;-inkscape-stroke:none"
         d="m 55.320312,162.45898 -0.0039,0.7461 24.5,0.11133 0.0039,-0.7461 z"
         id="path49" />
      <g
         id="g46">
        <g
           id="path46">
          <path
             style="color:#000000;fill:#0038f7;fill-rule:evenodd;-inkscape-stroke:none"
             d="m 53.166928,162.82158 3.234434,-1.84985 -0.01713,3.72933 z"
             id="path47" />
          <path
             style="color:#000000;fill:#0038f7;fill-rule:evenodd;-inkscape-stroke:none"
             d="m 56.652344,160.54102 -3.982422,2.27734 0.371094,0.21875 3.589843,2.0957 z m -0.501953,0.86132 -0.01367,2.86524 -2.472657,-1.44336 z"
             id="path48" />
        </g>
      </g>
    </g>
    <g
       id="path33">
      <path
         style="color:#000000;fill:#0038f7;-inkscape-stroke:none"
         d="m 55.183594,169.19141 -0.310547,0.67773 24.830078,11.39844 0.310547,-0.67774 z"
         id="path53" />
      <g
         id="g50">
        <g
           id="path50">
          <path
             style="color:#000000;fill:#0038f7;fill-rule:evenodd;-inkscape-stroke:none"
             d="m 53.072286,168.63227 3.709698,-0.34879 -1.555911,3.3893 z"
             id="path51" />
          <path
             style="color:#000000;fill:#0038f7;fill-rule:evenodd;-inkscape-stroke:none"
             d="m 57.1875,167.99609 -4.566406,0.42969 0.248047,0.34961 2.402343,3.39258 z m -0.810547,0.57618 -1.197266,2.60351 -1.65625,-2.33789 z"
             id="path52" />
        </g>
      </g>
    </g>
    <g
       id="g40"
       transform="matrix(0.58395935,0,0,0.58395935,16.513672,58.306234)">
      <path
         fill="#494c4e"
         d="m 143.25425,126.43177 h -0.10459 c -0.4817,-2.38749 -2.59693,-4.1886 -5.13103,-4.1886 -1.39268,0 -2.64927,0.54452 -3.59169,1.42412 -0.82726,-0.24085 -1.73827,-0.37697 -2.69117,-0.37697 -0.95292,0 -1.86392,0.12566 -2.69117,0.37697 -0.94244,-0.8796 -2.19901,-1.42412 -3.59171,-1.42412 -2.5341,0 -4.64934,1.80111 -5.13103,4.1886 h -0.10459 c -0.57594,0 -1.04713,0.4712 -1.04713,1.04714 0,0.57592 0.47119,1.04714 1.04713,1.04714 h 0.10459 c 0.48169,2.38749 2.59693,4.18858 5.13103,4.18858 2.89013,0 5.23571,-2.34559 5.23571,-5.23572 0,-0.69113 -0.13612,-1.35081 -0.37696,-1.95816 0.45028,-0.0838 0.92148,-0.13612 1.42413,-0.13612 0.50262,0 0.98431,0.042 1.42412,0.13612 -0.24085,0.60735 -0.37698,1.26703 -0.37698,1.95816 0,2.89013 2.34561,5.23572 5.23572,5.23572 2.5341,0 4.64934,-1.80109 5.13103,-4.18858 h 0.10459 c 0.57593,0 1.04716,-0.47122 1.04716,-1.04714 0,-0.57594 -0.47123,-1.04714 -1.04716,-1.04714 z m -17.80149,4.18859 c -1.72779,0 -3.14145,-1.41368 -3.14145,-3.14145 0,-1.72781 1.41366,-3.14145 3.14145,-3.14145 1.72779,0 3.14144,1.41364 3.14144,3.14145 0,1.72777 -1.41365,3.14145 -3.14144,3.14145 z m 12.56575,0 c -1.7278,0 -3.14143,-1.41368 -3.14143,-3.14145 0,-1.72781 1.41363,-3.14145 3.14143,-3.14145 1.72778,0 3.14145,1.41364 3.14145,3.14145 0,1.72777 -1.41367,3.14145 -3.14145,3.14145 z"
         id="path1-3"
         style="fill:#484848;fill-opacity:1;stroke-width:0.113292;stroke-dasharray:none" />
      <g
         id="g8"
         transform="matrix(0.5810708,0,0,0.5810708,70.497789,57.588948)"
         style="fill:#ffffff;fill-opacity:1;stroke:#00c202;stroke-opacity:1">
        <path
           d="m 159.8773,142.17251 c 0.53883,0.87215 0.84962,1.899 0.84962,2.99813 0,3.1641 -2.57552,5.72914 -5.75267,5.72914 -0.5797,0 -1.89968,-0.13327 -2.54183,-0.66618 l -0.80273,0.79946 c -0.66882,0.66608 -0.13373,0.66608 0.13382,1.19909 0,0 0.66891,0.93263 0,1.86527 -0.40137,0.53291 -1.52517,1.27901 -2.80944,0 l -0.26756,0.26645 c 0,0 0.8027,0.93264 0.13378,1.86527 -0.40134,0.533 -1.47159,1.06591 -2.40807,0.13328 -0.0446,0.0444 -0.29432,0.29312 -0.93647,0.93263 -0.64216,0.63951 -1.42699,0.26645 -1.73913,0 l -0.80269,-0.79945 c -0.74918,-0.74611 -0.31216,-1.55439 0,-1.86527 l 6.95666,-6.92818 c 0,0 -0.66891,-1.06593 -0.66891,-2.53151 0,-3.16411 2.57551,-5.72912 5.75257,-5.72912 0.74538,0 1.45772,0.14118 2.11133,0.39816"
           stroke="#1c274c"
           stroke-width="1.3655"
           stroke-linecap="round"
           stroke-linejoin="round"
           id="path7"
           style="fill:#ffffff;fill-opacity:1;stroke:#00c202;stroke-opacity:1" />
        <path
           d="m 156.98099,145.17072 c 0,1.10377 -0.89841,1.99852 -2.00674,1.99852 -1.10824,0 -2.00673,-0.89475 -2.00673,-1.99852 0,-1.10376 0.89849,-1.99853 2.00673,-1.99853 1.10833,0 2.00674,0.89477 2.00674,1.99853 z"
           stroke="#1c274c"
           stroke-width="1.3655"
           id="path8"
           style="fill:#ffffff;fill-opacity:1;stroke:#00c202;stroke-opacity:1" />
      </g>
      <rect
         style="fill:none;stroke:#484848;stroke-width:1.01;stroke-dasharray:none;stroke-opacity:1"
         id="rect34"
         width="51.886444"
         height="34.261768"
         x="115.93209"
         y="118.41727"
         rx="2.6458333" />
    </g>
    <g
       id="g38"
       transform="matrix(0.58395935,0,0,0.58395935,43.519591,13.538409)">
      <g
         id="g1"
         transform="matrix(0.89852247,0,0,0.89852247,73.22529,241.22163)"
         style="fill:#484848;fill-opacity:1">
        <path
           fill="#494c4e"
           d="M 8,6 H 5 C 4.447,6 4,5.552 4,5 4,4.448 4.447,4 5,4 H 8 C 8.553,4 9,4.448 9,5 9,5.552 8.553,6 8,6 Z m 5,4 H 5 C 4.447,10 4,9.552 4,9 4,8.448 4.447,8 5,8 h 8 c 0.553,0 1,0.448 1,1 0,0.552 -0.447,1 -1,1 z m 0,4 H 5 C 4.447,14 4,13.552 4,13 4,12.448 4.447,12 5,12 h 8 c 0.553,0 1,0.448 1,1 0,0.552 -0.447,1 -1,1 z"
           id="path1-6"
           style="fill:#484848;fill-opacity:1" />
        <path
           fill="#494c4e"
           d="m 18,2 v 8 c 0,0.55 -0.45,1 -1,1 -0.55,0 -1,-0.45 -1,-1 V 2.5 C 16,2.22 15.78,2 15.5,2 H 2.5 C 2.22,2 2,2.22 2,2.5 v 19 C 2,21.78 2.22,22 2.5,22 h 13 C 15.78,22 16,21.78 16,21.5 V 21 c 0,-0.55 0.45,-1 1,-1 0.55,0 1,0.45 1,1 v 1 c 0,1.1 -0.9,2 -2,2 H 2 C 0.9,24 0,23.1 0,22 V 2 C 0,0.9 0.9,0 2,0 h 14 c 1.1,0 2,0.9 2,2 z"
           id="path10"
           style="fill:#484848;fill-opacity:1" />
        <path
           fill="#494c4e"
           d="m 23.71,8.817 c 0.44,0.438 0.372,1.212 -0.148,1.732 l -7.835,7.84 c -0.07,0.068 -0.148,0.126 -0.227,0.173 l -2.382,1.317 c -0.33,0.183 -0.7,0.152 -0.927,-0.075 -0.226,-0.227 -0.25,-0.603 -0.07,-0.923 l 1.328,-2.373 c 0.042,-0.085 0.1,-0.153 0.162,-0.216 0,-0.012 0.007,-0.018 0.007,-0.018 l 7.835,-7.84 c 0.52,-0.52 1.294,-0.587 1.73,-0.15 l 0.53,0.53 z"
           id="path11"
           style="fill:#484848;fill-opacity:1" />
      </g>
      <g
         id="g20"
         transform="matrix(0.5810708,0,0,0.5810708,20.235389,156.56069)">
        <g
           id="g17"
           transform="translate(7.0365525,35.492783)"
           style="fill:#ffffff;fill-opacity:1;stroke:#ffd800;stroke-opacity:1">
          <path
             d="m 159.8773,142.17251 c 0.53883,0.87215 0.84962,1.899 0.84962,2.99813 0,3.1641 -2.57552,5.72914 -5.75267,5.72914 -0.5797,0 -1.89968,-0.13327 -2.54183,-0.66618 l -0.80273,0.79946 c -0.66882,0.66608 -0.13373,0.66608 0.13382,1.19909 0,0 0.66891,0.93263 0,1.86527 -0.40137,0.53291 -1.52517,1.27901 -2.80944,0 l -0.26756,0.26645 c 0,0 0.8027,0.93264 0.13378,1.86527 -0.40134,0.533 -1.47159,1.06591 -2.40807,0.13328 -0.0446,0.0444 -0.29432,0.29312 -0.93647,0.93263 -0.64216,0.63951 -1.42699,0.26645 -1.73913,0 l -0.80269,-0.79945 c -0.74918,-0.74611 -0.31216,-1.55439 0,-1.86527 l 6.95666,-6.92818 c 0,0 -0.66891,-1.06593 -0.66891,-2.53151 0,-3.16411 2.57551,-5.72912 5.75257,-5.72912 0.74538,0 1.45772,0.14118 2.11133,0.39816"
             stroke="#1c274c"
             stroke-width="1.3655"
             stroke-linecap="round"
             stroke-linejoin="round"
             id="path20"
             style="fill:#ffffff;fill-opacity:1;stroke:#ffd800;stroke-opacity:1" />
          <path
             d="m 156.98099,145.17072 c 0,1.10377 -0.89841,1.99852 -2.00674,1.99852 -1.10824,0 -2.00673,-0.89475 -2.00673,-1.99852 0,-1.10376 0.89849,-1.99853 2.00673,-1.99853 1.10833,0 2.00674,0.89477 2.00674,1.99853 z"
             stroke="#1c274c"
             stroke-width="1.3655"
             id="path21"
             style="fill:#ffffff;fill-opacity:1;stroke:#ffd800;stroke-opacity:1" />
        </g>
        <g
           id="g19"
           transform="translate(-4.3518722,35.492783)"
           style="fill:#ffffff;fill-opacity:1;stroke:#00c202;stroke-opacity:1">
          <path
             d="m 159.8773,142.17251 c 0.53883,0.87215 0.84962,1.899 0.84962,2.99813 0,3.1641 -2.57552,5.72914 -5.75267,5.72914 -0.5797,0 -1.89968,-0.13327 -2.54183,-0.66618 l -0.80273,0.79946 c -0.66882,0.66608 -0.13373,0.66608 0.13382,1.19909 0,0 0.66891,0.93263 0,1.86527 -0.40137,0.53291 -1.52517,1.27901 -2.80944,0 l -0.26756,0.26645 c 0,0 0.8027,0.93264 0.13378,1.86527 -0.40134,0.533 -1.47159,1.06591 -2.40807,0.13328 -0.0446,0.0444 -0.29432,0.29312 -0.93647,0.93263 -0.64216,0.63951 -1.42699,0.26645 -1.73913,0 l -0.80269,-0.79945 c -0.74918,-0.74611 -0.31216,-1.55439 0,-1.86527 l 6.95666,-6.92818 c 0,0 -0.66891,-1.06593 -0.66891,-2.53151 0,-3.16411 2.57551,-5.72912 5.75257,-5.72912 0.74538,0 1.45772,0.14118 2.11133,0.39816"
             stroke="#1c274c"
             stroke-width="1.3655"
             stroke-linecap="round"
             stroke-linejoin="round"
             id="path22"
             style="fill:#ffffff;fill-opacity:1;stroke:#00c202;stroke-opacity:1" />
          <path
             d="m 156.98099,145.17072 c 0,1.10377 -0.89841,1.99852 -2.00674,1.99852 -1.10824,0 -2.00673,-0.89475 -2.00673,-1.99852 0,-1.10376 0.89849,-1.99853 2.00673,-1.99853 1.10833,0 2.00674,0.89477 2.00674,1.99853 z"
             stroke="#1c274c"
             stroke-width="1.3655"
             id="path23"
             style="fill:#ffffff;fill-opacity:1;stroke:#00c202;stroke-opacity:1" />
        </g>
      </g>
      <rect
         style="fill:none;stroke:#484848;stroke-width:1.01;stroke-dasharray:none;stroke-opacity:1"
         id="rect36"
         width="51.886444"
         height="34.261768"
         x="69.68586"
         y="238.23724"
         rx="2.6458333" />
    </g>
    <g
       id="g39"
       transform="matrix(0.58395935,0,0,0.58395935,3.8700062,39.373307)">
      <path
         d="m 149.84091,252.50487 7.80815,8.05504 c 0.43515,0.44896 1.14566,0.44896 1.58204,0 l 1.51835,-1.56759 c 0.21158,-0.21827 0.3282,-0.50724 0.3282,-0.81483 0,-0.30878 -0.11651,-0.59776 -0.3282,-0.81605 l -7.67229,-7.91491 0.12621,-0.36958 c 0.69726,-2.02401 0.20079,-4.30967 -1.26589,-5.82271 -1.35845,-1.40019 -3.35046,-1.93719 -5.17897,-1.45353 l 2.98981,3.08438 c 0.35705,0.36709 0.553,0.85697 0.553,1.3791 0,0.52089 -0.19595,1.01077 -0.553,1.3791 l -1.21539,1.25382 c -0.73815,0.759 -1.93669,0.759 -2.67365,0 l -2.98982,-3.08435 c -0.46764,1.88632 0.0518,3.94134 1.40896,5.34277 1.35846,1.40143 3.36248,1.95205 5.22707,1.44109 z m 8.59795,9.63257 c -0.59388,0 -1.18774,-0.23438 -1.63975,-0.7007 l -7.32607,-7.55775 c -2.17593,0.4725 -4.46607,-0.21826 -6.04454,-1.84665 -1.92348,-1.98432 -2.46927,-5.04263 -1.35966,-7.60861 l 0.35585,-0.82347 4.28454,4.42005 c 0.26809,0.27531 0.70567,0.27531 0.97376,0 l 1.21542,-1.25384 c 0.1299,-0.13514 0.20075,-0.31253 0.20075,-0.50228 0,-0.18976 -0.071,-0.36833 -0.20075,-0.50228 l -4.28457,-4.42006 0.79826,-0.36708 c 2.48849,-1.14471 5.45304,-0.58167 7.37534,1.40141 1.70228,1.75735 2.33704,4.36301 1.66741,6.73798 l 7.14453,7.37047 c 0.4388,0.45145 0.68044,1.05291 0.68044,1.69286 0,0.63871 -0.24164,1.24021 -0.68044,1.69166 l -1.51833,1.56759 c -0.45322,0.46632 -1.04711,0.7007 -1.64219,0.7007 z"
         fill-rule="evenodd"
         id="path1-23"
         style="fill:#484848;fill-opacity:1;stroke:#484848;stroke-width:0.331744;stroke-dasharray:none;stroke-opacity:1" />
      <g
         id="g30"
         transform="matrix(0.5810708,0,0,0.5810708,80.503044,134.98017)">
        <g
           id="g29"
           transform="translate(19.857752,71.37739)"
           style="fill:#ffffff;fill-opacity:1;stroke:#ff3500;stroke-opacity:1">
          <path
             d="m 159.8773,142.17251 c 0.53883,0.87215 0.84962,1.899 0.84962,2.99813 0,3.1641 -2.57552,5.72914 -5.75267,5.72914 -0.5797,0 -1.89968,-0.13327 -2.54183,-0.66618 l -0.80273,0.79946 c -0.66882,0.66608 -0.13373,0.66608 0.13382,1.19909 0,0 0.66891,0.93263 0,1.86527 -0.40137,0.53291 -1.52517,1.27901 -2.80944,0 l -0.26756,0.26645 c 0,0 0.8027,0.93264 0.13378,1.86527 -0.40134,0.533 -1.47159,1.06591 -2.40807,0.13328 -0.0446,0.0444 -0.29432,0.29312 -0.93647,0.93263 -0.64216,0.63951 -1.42699,0.26645 -1.73913,0 l -0.80269,-0.79945 c -0.74918,-0.74611 -0.31216,-1.55439 0,-1.86527 l 6.95666,-6.92818 c 0,0 -0.66891,-1.06593 -0.66891,-2.53151 0,-3.16411 2.57551,-5.72912 5.75257,-5.72912 0.74538,0 1.45772,0.14118 2.11133,0.39816"
             stroke="#1c274c"
             stroke-width="1.3655"
             stroke-linecap="round"
             stroke-linejoin="round"
             id="path28"
             style="fill:#ffffff;fill-opacity:1;stroke:#ff3500;stroke-opacity:1" />
          <path
             d="m 156.98099,145.17072 c 0,1.10377 -0.89841,1.99852 -2.00674,1.99852 -1.10824,0 -2.00673,-0.89475 -2.00673,-1.99852 0,-1.10376 0.89849,-1.99853 2.00673,-1.99853 1.10833,0 2.00674,0.89477 2.00674,1.99853 z"
             stroke="#1c274c"
             stroke-width="1.3655"
             id="path29"
             style="fill:#ffffff;fill-opacity:1;stroke:#ff3500;stroke-opacity:1" />
        </g>
        <g
           id="g21"
           transform="translate(8.6421729,71.37739)"
           style="fill:#ffffff;fill-opacity:1;stroke:#ffd800;stroke-opacity:1">
          <path
             d="m 159.8773,142.17251 c 0.53883,0.87215 0.84962,1.899 0.84962,2.99813 0,3.1641 -2.57552,5.72914 -5.75267,5.72914 -0.5797,0 -1.89968,-0.13327 -2.54183,-0.66618 l -0.80273,0.79946 c -0.66882,0.66608 -0.13373,0.66608 0.13382,1.19909 0,0 0.66891,0.93263 0,1.86527 -0.40137,0.53291 -1.52517,1.27901 -2.80944,0 l -0.26756,0.26645 c 0,0 0.8027,0.93264 0.13378,1.86527 -0.40134,0.533 -1.47159,1.06591 -2.40807,0.13328 -0.0446,0.0444 -0.29432,0.29312 -0.93647,0.93263 -0.64216,0.63951 -1.42699,0.26645 -1.73913,0 l -0.80269,-0.79945 c -0.74918,-0.74611 -0.31216,-1.55439 0,-1.86527 l 6.95666,-6.92818 c 0,0 -0.66891,-1.06593 -0.66891,-2.53151 0,-3.16411 2.57551,-5.72912 5.75257,-5.72912 0.74538,0 1.45772,0.14118 2.11133,0.39816"
             stroke="#1c274c"
             stroke-width="1.3655"
             stroke-linecap="round"
             stroke-linejoin="round"
             id="path24"
             style="fill:#ffffff;fill-opacity:1;stroke:#ffd800;stroke-opacity:1" />
          <path
             d="m 156.98099,145.17072 c 0,1.10377 -0.89841,1.99852 -2.00674,1.99852 -1.10824,0 -2.00673,-0.89475 -2.00673,-1.99852 0,-1.10376 0.89849,-1.99853 2.00673,-1.99853 1.10833,0 2.00674,0.89477 2.00674,1.99853 z"
             stroke="#1c274c"
             stroke-width="1.3655"
             id="path25"
             style="fill:#ffffff;fill-opacity:1;stroke:#ffd800;stroke-opacity:1" />
        </g>
        <g
           id="g23"
           transform="translate(-2.5734062,71.37739)"
           style="fill:#ffffff;fill-opacity:1;stroke:#00c202;stroke-opacity:1">
          <path
             d="m 159.8773,142.17251 c 0.53883,0.87215 0.84962,1.899 0.84962,2.99813 0,3.1641 -2.57552,5.72914 -5.75267,5.72914 -0.5797,0 -1.89968,-0.13327 -2.54183,-0.66618 l -0.80273,0.79946 c -0.66882,0.66608 -0.13373,0.66608 0.13382,1.19909 0,0 0.66891,0.93263 0,1.86527 -0.40137,0.53291 -1.52517,1.27901 -2.80944,0 l -0.26756,0.26645 c 0,0 0.8027,0.93264 0.13378,1.86527 -0.40134,0.533 -1.47159,1.06591 -2.40807,0.13328 -0.0446,0.0444 -0.29432,0.29312 -0.93647,0.93263 -0.64216,0.63951 -1.42699,0.26645 -1.73913,0 l -0.80269,-0.79945 c -0.74918,-0.74611 -0.31216,-1.55439 0,-1.86527 l 6.95666,-6.92818 c 0,0 -0.66891,-1.06593 -0.66891,-2.53151 0,-3.16411 2.57551,-5.72912 5.75257,-5.72912 0.74538,0 1.45772,0.14118 2.11133,0.39816"
             stroke="#1c274c"
             stroke-width="1.3655"
             stroke-linecap="round"
             stroke-linejoin="round"
             id="path26"
             style="fill:#ffffff;fill-opacity:1;stroke:#00c202;stroke-opacity:1" />
          <path
             d="m 156.98099,145.17072 c 0,1.10377 -0.89841,1.99852 -2.00674,1.99852 -1.10824,0 -2.00673,-0.89475 -2.00673,-1.99852 0,-1.10376 0.89849,-1.99853 2.00673,-1.99853 1.10833,0 2.00674,0.89477 2.00674,1.99853 z"
             stroke="#1c274c"
             stroke-width="1.3655"
             id="path27"
             style="fill:#ffffff;fill-opacity:1;stroke:#00c202;stroke-opacity:1" />
        </g>
      </g>
      <rect
         style="fill:none;stroke:#484848;stroke-width:1.01;stroke-dasharray:none;stroke-opacity:1"
         id="rect38"
         width="51.886444"
         height="34.261768"
         x="137.58371"
         y="237.15373"
         rx="2.6458333" />
    </g>
  </g>
</svg>
