<?xml version="1.0" encoding="UTF-8"?>
<svg xmlns="http://www.w3.org/2000/svg" width="325" height="125" viewBox="0 0 325 125">
    <defs>
        <style type="text/css">
            @namespace "http://www.w3.org/2000/svg";
            .line                 {fill: none; stroke: #330000; stroke-width: 1;}
            .bold-line            {stroke: #140000; shape-rendering: crispEdges; stroke-width: 2;}
            .thin-line            {stroke: #1F0000; shape-rendering: crispEdges}
            .filled               {fill: #330000; stroke: none;}
            text.terminal         {font-family: Verdana, Sans-serif;
            font-size: 12px;
            fill: #140000;
            font-weight: bold;
            }
            text.nonterminal      {font-family: Verdana, Sans-serif;
            font-size: 12px;
            fill: #1A0000;
            font-weight: normal;
            }
            text.regexp           {font-family: Verdana, Sans-serif;
            font-size: 12px;
            fill: #1F0000;
            font-weight: normal;
            }
            rect, circle, polygon {fill: #330000; stroke: #330000;}
            rect.terminal         {fill: #FF4D4D; stroke: #330000; stroke-width: 1;}
            rect.nonterminal      {fill: #FF9E9E; stroke: #330000; stroke-width: 1;}
            rect.text             {fill: none; stroke: none;}
            polygon.regexp        {fill: #FFC7C7; stroke: #330000; stroke-width: 1;}
        </style>
        <style class="darkreader darkreader--sync" media="screen"/>
    </defs>
   <polygon points="9 17 1 13 1 21"/>
   <polygon points="17 17 9 13 9 21"/>
   <rect x="31" y="3" width="46" height="32" rx="10"/>
   <rect x="29"
         y="1"
         width="46"
         height="32"
         class="terminal"
         rx="10"/>
   <text class="terminal" x="39" y="21">ABS</text>
   <rect x="97" y="3" width="26" height="32" rx="10"/>
   <rect x="95"
         y="1"
         width="26"
         height="32"
         class="terminal"
         rx="10"/>
   <text class="terminal" x="105" y="21">(</text>
   <a xmlns:xlink="http://www.w3.org/1999/xlink"
      xlink:href="../../sql_types#decimal"
      xlink:title="decimal">
      <rect x="163" y="3" width="68" height="32"/>
      <rect x="161" y="1" width="68" height="32" class="nonterminal"/>
      <text class="nonterminal" x="171" y="21">decimal</text>
   </a>
   <a xmlns:xlink="http://www.w3.org/1999/xlink"
      xlink:href="../../sql_types#double"
      xlink:title="double">
      <rect x="163" y="47" width="62" height="32"/>
      <rect x="161" y="45" width="62" height="32" class="nonterminal"/>
      <text class="nonterminal" x="171" y="65">double</text>
   </a>
   <a xmlns:xlink="http://www.w3.org/1999/xlink"
      xlink:href="../../sql_types#integer"
      xlink:title="integer">
      <rect x="163" y="91" width="64" height="32"/>
      <rect x="161" y="89" width="64" height="32" class="nonterminal"/>
      <text class="nonterminal" x="171" y="109">integer</text>
   </a>
   <rect x="271" y="3" width="26" height="32" rx="10"/>
   <rect x="269"
         y="1"
         width="26"
         height="32"
         class="terminal"
         rx="10"/>
   <text class="terminal" x="279" y="21">)</text>
   <path class="line"
         d="m17 17 h2 m0 0 h10 m46 0 h10 m0 0 h10 m26 0 h10 m20 0 h10 m68 0 h10 m-108 0 h20 m88 0 h20 m-128 0 q10 0 10 10 m108 0 q0 -10 10 -10 m-118 10 v24 m108 0 v-24 m-108 24 q0 10 10 10 m88 0 q10 0 10 -10 m-98 10 h10 m62 0 h10 m0 0 h6 m-98 -10 v20 m108 0 v-20 m-108 20 v24 m108 0 v-24 m-108 24 q0 10 10 10 m88 0 q10 0 10 -10 m-98 10 h10 m64 0 h10 m0 0 h4 m20 -88 h10 m26 0 h10 m3 0 h-3"/>
   <polygon points="315 17 323 13 323 21"/>
   <polygon points="315 17 307 13 307 21"/>
</svg>
