<?xml version="1.0" encoding="UTF-8"?>
<svg xmlns="http://www.w3.org/2000/svg" width="657" height="301" viewBox="0 0 657 301">
   <defs>
      <style type="text/css">
    @namespace "http://www.w3.org/2000/svg";
    .line                 {fill: none; stroke: #330000; stroke-width: 1;}
    .bold-line            {stroke: #140000; shape-rendering: crispEdges; stroke-width: 2;}
    .thin-line            {stroke: #1F0000; shape-rendering: crispEdges}
    .filled               {fill: #330000; stroke: none;}
    text.terminal         {font-family: Verdana, Sans-serif;
                            font-size: 12px;
                            fill: #140000;
                            font-weight: bold;
                          }
    text.nonterminal      {font-family: Verdana, Sans-serif;
                            font-size: 12px;
                            fill: #1A0000;
                            font-weight: normal;
                          }
    text.regexp           {font-family: Verdana, Sans-serif;
                            font-size: 12px;
                            fill: #1F0000;
                            font-weight: normal;
                          }
    rect, circle, polygon {fill: #330000; stroke: #330000;}
    rect.terminal         {fill: #FF4D4D; stroke: #330000; stroke-width: 1;}
    rect.nonterminal      {fill: #FF9E9E; stroke: #330000; stroke-width: 1;}
    rect.text             {fill: none; stroke: none;}
    polygon.regexp        {fill: #FFC7C7; stroke: #330000; stroke-width: 1;}
  </style>
      <style class="darkreader darkreader--sync" media="screen"/>
   </defs>
   <polygon points="9 17 1 13 1 21"/>
   <polygon points="17 17 9 13 9 21"/>
   <a xmlns:xlink="http://www.w3.org/1999/xlink"
      xlink:href="../alter_user"
      xlink:title="alter_user">
      <rect x="51" y="3" width="86" height="32"/>
      <rect x="49" y="1" width="86" height="32" class="nonterminal"/>
      <text class="nonterminal" x="59" y="21">alter_user</text>
   </a>
   <a xmlns:xlink="http://www.w3.org/1999/xlink"
      xlink:href="../create_role"
      xlink:title="create_role">
      <rect x="51" y="47" width="92" height="32"/>
      <rect x="49" y="45" width="92" height="32" class="nonterminal"/>
      <text class="nonterminal" x="59" y="65">create_role</text>
   </a>
   <a xmlns:xlink="http://www.w3.org/1999/xlink"
      xlink:href="../create_user"
      xlink:title="create_user">
      <rect x="51" y="91" width="96" height="32"/>
      <rect x="49" y="89" width="96" height="32" class="nonterminal"/>
      <text class="nonterminal" x="59" y="109">create_user</text>
   </a>
   <a xmlns:xlink="http://www.w3.org/1999/xlink"
      xlink:href="../drop_role"
      xlink:title="drop_role">
      <rect x="51" y="135" width="82" height="32"/>
      <rect x="49" y="133" width="82" height="32" class="nonterminal"/>
      <text class="nonterminal" x="59" y="153">drop_role</text>
   </a>
   <a xmlns:xlink="http://www.w3.org/1999/xlink"
      xlink:href="../drop_user"
      xlink:title="drop_user">
      <rect x="51" y="179" width="84" height="32"/>
      <rect x="49" y="177" width="84" height="32" class="nonterminal"/>
      <text class="nonterminal" x="59" y="197">drop_user</text>
   </a>
   <a xmlns:xlink="http://www.w3.org/1999/xlink"
      xlink:href="../grant"
      xlink:title="grant">
      <rect x="51" y="223" width="54" height="32"/>
      <rect x="49" y="221" width="54" height="32" class="nonterminal"/>
      <text class="nonterminal" x="59" y="241">grant</text>
   </a>
   <a xmlns:xlink="http://www.w3.org/1999/xlink"
      xlink:href="../revoke"
      xlink:title="revoke">
      <rect x="51" y="267" width="62" height="32"/>
      <rect x="49" y="265" width="62" height="32" class="nonterminal"/>
      <text class="nonterminal" x="59" y="285">revoke</text>
   </a>
   <rect x="207" y="35" width="76" height="32" rx="10"/>
   <rect x="205"
         y="33"
         width="76"
         height="32"
         class="terminal"
         rx="10"/>
   <text class="terminal" x="215" y="53">OPTION</text>
   <rect x="303" y="35" width="26" height="32" rx="10"/>
   <rect x="301"
         y="33"
         width="26"
         height="32"
         class="terminal"
         rx="10"/>
   <text class="terminal" x="311" y="53">(</text>
   <rect x="349" y="35" width="82" height="32" rx="10"/>
   <rect x="347"
         y="33"
         width="82"
         height="32"
         class="terminal"
         rx="10"/>
   <text class="terminal" x="357" y="53">TIMEOUT</text>
   <rect x="451" y="35" width="30" height="32" rx="10"/>
   <rect x="449"
         y="33"
         width="30"
         height="32"
         class="terminal"
         rx="10"/>
   <text class="terminal" x="459" y="53">=</text>
   <a xmlns:xlink="http://www.w3.org/1999/xlink"
      xlink:href="../../sql_types#double"
      xlink:title="double">
      <rect x="501" y="35" width="62" height="32"/>
      <rect x="499" y="33" width="62" height="32" class="nonterminal"/>
      <text class="nonterminal" x="509" y="53">double</text>
   </a>
   <rect x="583" y="35" width="26" height="32" rx="10"/>
   <rect x="581"
         y="33"
         width="26"
         height="32"
         class="terminal"
         rx="10"/>
   <text class="terminal" x="591" y="53">)</text>
   <path class="line"
         d="m17 17 h2 m20 0 h10 m86 0 h10 m0 0 h10 m-136 0 h20 m116 0 h20 m-156 0 q10 0 10 10 m136 0 q0 -10 10 -10 m-146 10 v24 m136 0 v-24 m-136 24 q0 10 10 10 m116 0 q10 0 10 -10 m-126 10 h10 m92 0 h10 m0 0 h4 m-126 -10 v20 m136 0 v-20 m-136 20 v24 m136 0 v-24 m-136 24 q0 10 10 10 m116 0 q10 0 10 -10 m-126 10 h10 m96 0 h10 m-126 -10 v20 m136 0 v-20 m-136 20 v24 m136 0 v-24 m-136 24 q0 10 10 10 m116 0 q10 0 10 -10 m-126 10 h10 m82 0 h10 m0 0 h14 m-126 -10 v20 m136 0 v-20 m-136 20 v24 m136 0 v-24 m-136 24 q0 10 10 10 m116 0 q10 0 10 -10 m-126 10 h10 m84 0 h10 m0 0 h12 m-126 -10 v20 m136 0 v-20 m-136 20 v24 m136 0 v-24 m-136 24 q0 10 10 10 m116 0 q10 0 10 -10 m-126 10 h10 m54 0 h10 m0 0 h42 m-126 -10 v20 m136 0 v-20 m-136 20 v24 m136 0 v-24 m-136 24 q0 10 10 10 m116 0 q10 0 10 -10 m-126 10 h10 m62 0 h10 m0 0 h34 m40 -264 h10 m0 0 h412 m-442 0 h20 m422 0 h20 m-462 0 q10 0 10 10 m442 0 q0 -10 10 -10 m-452 10 v12 m442 0 v-12 m-442 12 q0 10 10 10 m422 0 q10 0 10 -10 m-432 10 h10 m76 0 h10 m0 0 h10 m26 0 h10 m0 0 h10 m82 0 h10 m0 0 h10 m30 0 h10 m0 0 h10 m62 0 h10 m0 0 h10 m26 0 h10 m23 -32 h-3"/>
   <polygon points="647 17 655 13 655 21"/>
   <polygon points="647 17 639 13 639 21"/>
</svg>
