<?xml version="1.0" encoding="UTF-8" standalone="no"?>
<svg
   width="195"
   height="345"
   viewBox="0 0 195 345"
   version="1.1"
   id="svg18"
   sodipodi:docname="acl.svg"
   inkscape:version="1.4.2 (ebf0e940d0, 2025-05-08)"
   xmlns:inkscape="http://www.inkscape.org/namespaces/inkscape"
   xmlns:sodipodi="http://sodipodi.sourceforge.net/DTD/sodipodi-0.dtd"
   xmlns:xlink="http://www.w3.org/1999/xlink"
   xmlns="http://www.w3.org/2000/svg"
   xmlns:svg="http://www.w3.org/2000/svg">
  <sodipodi:namedview
     id="namedview18"
     pagecolor="#ffffff"
     bordercolor="#666666"
     borderopacity="1.0"
     inkscape:showpageshadow="2"
     inkscape:pageopacity="0.0"
     inkscape:pagecheckerboard="0"
     inkscape:deskcolor="#d1d1d1"
     inkscape:zoom="2.3507246"
     inkscape:cx="97.62947"
     inkscape:cy="172.5"
     inkscape:window-width="1858"
     inkscape:window-height="1014"
     inkscape:window-x="62"
     inkscape:window-y="29"
     inkscape:window-maximized="1"
     inkscape:current-layer="svg18" />
  <defs
     id="defs1">
    <style
       type="text/css"
       id="style1">@namespace &quot;http://www.w3.org/2000/svg&quot;;.line { fill: none; stroke: #330000; stroke-width: 1; }
.bold-line { stroke: #140000; shape-rendering: crispEdges; stroke-width: 2; }
.thin-line { stroke: #1F0000; shape-rendering: crispEdges }
.filled { fill: #330000; stroke: none; }
text.terminal { font-family: Verdana, Sans-serif;                            font-size: 12px;                            fill: #140000;                            font-weight: bold; }
text.nonterminal { font-family: Verdana, Sans-serif;                            font-size: 12px;                            fill: #1A0000;                            font-weight: normal; }
text.regexp { font-family: Verdana, Sans-serif;                            font-size: 12px;                            fill: #1F0000;                            font-weight: normal; }
rect, circle, polygon { fill: #330000; stroke: #330000; }
rect.terminal { fill: #FF4D4D; stroke: #330000; stroke-width: 1; }
rect.nonterminal { fill: #FF9E9E; stroke: #330000; stroke-width: 1; }
rect.text { fill: none; stroke: none; }
polygon.regexp { fill: #FFC7C7; stroke: #330000; stroke-width: 1; }
</style>
  </defs>
  <polygon
     points="9 17 1 13 1 21"
     id="polygon1" />
  <polygon
     points="17 17 9 13 9 21"
     id="polygon2" />
  <a
     xlink:href="../alter_user"
     xlink:title="alter_user"
     id="a3">
    <rect
       x="51"
       y="3"
       width="86"
       height="32"
       id="rect2" />
    <rect
       x="49"
       y="1"
       width="86"
       height="32"
       class="nonterminal"
       id="rect3" />
    <text
       class="nonterminal"
       x="59"
       y="21"
       id="text3">alter_user</text>
  </a>
  <a
     xlink:href="../create_role"
     xlink:title="create_role"
     id="a5">
    <rect
       x="51"
       y="47"
       width="92"
       height="32"
       id="rect4" />
    <rect
       x="49"
       y="45"
       width="92"
       height="32"
       class="nonterminal"
       id="rect5" />
    <text
       class="nonterminal"
       x="59"
       y="65"
       id="text5">create_role</text>
  </a>
  <a
     xlink:href="../create_user"
     xlink:title="create_user"
     id="a7">
    <rect
       x="51"
       y="91"
       width="96"
       height="32"
       id="rect6" />
    <rect
       x="49"
       y="89"
       width="96"
       height="32"
       class="nonterminal"
       id="rect7" />
    <text
       class="nonterminal"
       x="59"
       y="109"
       id="text7">create_user</text>
  </a>
  <a
     xlink:href="../drop_role"
     xlink:title="drop_role"
     id="a9"
     transform="translate(1.2762022)">
    <rect
       x="51"
       y="135"
       width="82"
       height="32"
       id="rect8" />
    <rect
       x="49"
       y="133"
       width="82"
       height="32"
       class="nonterminal"
       id="rect9" />
    <text
       class="nonterminal"
       x="59"
       y="153"
       id="text9">drop_role</text>
  </a>
  <a
     xlink:href="../drop_user"
     xlink:title="drop_user"
     id="a11">
    <rect
       x="51"
       y="179"
       width="84"
       height="32"
       id="rect10" />
    <rect
       x="49"
       y="177"
       width="84"
       height="32"
       class="nonterminal"
       id="rect11" />
    <text
       class="nonterminal"
       x="59"
       y="197"
       id="text11">drop_user</text>
  </a>
  <a
     xlink:href="../grant"
     xlink:title="grant"
     id="a13">
    <rect
       x="51"
       y="223"
       width="54"
       height="32"
       id="rect12" />
    <rect
       x="49"
       y="221"
       width="54"
       height="32"
       class="nonterminal"
       id="rect13" />
    <text
       class="nonterminal"
       x="59"
       y="241"
       id="text13">grant</text>
  </a>
  <a
     xlink:href="../revoke"
     xlink:title="revoke"
     id="a15">
    <rect
       x="51"
       y="267"
       width="62"
       height="32"
       id="rect14" />
    <rect
       x="49"
       y="265"
       width="62"
       height="32"
       class="nonterminal"
       id="rect15" />
    <text
       class="nonterminal"
       x="59"
       y="285"
       id="text15">revoke</text>
  </a>
  <a
     xlink:href="../audit_policy"
     xlink:title="audit_policy"
     id="a17">
    <rect
       x="51"
       y="311"
       width="96"
       height="32"
       id="rect16" />
    <rect
       x="49"
       y="309"
       width="96"
       height="32"
       class="nonterminal"
       id="rect17" />
    <text
       class="nonterminal"
       x="59"
       y="329"
       id="text17">audit_policy</text>
  </a>
  <path
     class="line"
     d="m17 17 h2 m20 0 h10 m86 0 h10 m0 0 h10 m-136 0 h20 m116 0 h20 m-156 0 q10 0 10 10 m136 0 q0 -10 10 -10 m-146 10 v24 m136 0 v-24 m-136 24 q0 10 10 10 m116 0 q10 0 10 -10 m-126 10 h10 m92 0 h10 m0 0 h4 m-126 -10 v20 m136 0 v-20 m-136 20 v24 m136 0 v-24 m-136 24 q0 10 10 10 m116 0 q10 0 10 -10 m-126 10 h10 m96 0 h10 m-126 -10 v20 m136 0 v-20 m-136 20 v24 m136 0 v-24 m-136 24 q0 10 10 10 m116 0 q10 0 10 -10 m-126 10 h10 m82 0 h10 m0 0 h14 m-126 -10 v20 m136 0 v-20 m-136 20 v24 m136 0 v-24 m-136 24 q0 10 10 10 m116 0 q10 0 10 -10 m-126 10 h10 m84 0 h10 m0 0 h12 m-126 -10 v20 m136 0 v-20 m-136 20 v24 m136 0 v-24 m-136 24 q0 10 10 10 m116 0 q10 0 10 -10 m-126 10 h10 m54 0 h10 m0 0 h42 m-126 -10 v20 m136 0 v-20 m-136 20 v24 m136 0 v-24 m-136 24 q0 10 10 10 m116 0 q10 0 10 -10 m-126 10 h10 m62 0 h10 m0 0 h34 m-126 -10 v20 m136 0 v-20 m-136 20 v24 m136 0 v-24 m-136 24 q0 10 10 10 m116 0 q10 0 10 -10 m-126 10 h10 m96 0 h10 m23 -308 h-3"
     id="path17" />
  <polygon
     points="185 17 193 13 193 21"
     id="polygon17" />
  <polygon
     points="185 17 177 13 177 21"
     id="polygon18" />
</svg>
