<?xml version="1.0" encoding="UTF-8"?>
<svg xmlns="http://www.w3.org/2000/svg" width="205" height="345" viewBox="0 0 205 345">
   <defs>
      <style type="text/css">
    @namespace "http://www.w3.org/2000/svg";
    .line                 {fill: none; stroke: #330000; stroke-width: 1;}
    .bold-line            {stroke: #140000; shape-rendering: crispEdges; stroke-width: 2;}
    .thin-line            {stroke: #1F0000; shape-rendering: crispEdges}
    .filled               {fill: #330000; stroke: none;}
    text.terminal         {font-family: Verdana, Sans-serif;
                            font-size: 12px;
                            fill: #140000;
                            font-weight: bold;
                          }
    text.nonterminal      {font-family: Verdana, Sans-serif;
                            font-size: 12px;
                            fill: #1A0000;
                            font-weight: normal;
                          }
    text.regexp           {font-family: Verdana, Sans-serif;
                            font-size: 12px;
                            fill: #1F0000;
                            font-weight: normal;
                          }
    rect, circle, polygon {fill: #330000; stroke: #330000;}
    rect.terminal         {fill: #ff4d4d; stroke: #330000; stroke-width: 1;}
    rect.nonterminal      {fill: #FF9E9E; stroke: #330000; stroke-width: 1;}
    rect.text             {fill: none; stroke: none;}
    polygon.regexp        {fill: #FFC7C7; stroke: #330000; stroke-width: 1;}
  </style>
   </defs>
   <polygon points="9 17 1 13 1 21"/>
   <polygon points="17 17 9 13 9 21"/>
   <a xmlns:xlink="http://www.w3.org/1999/xlink"
      xlink:href="../avg"
      xlink:title="avg">
      <rect x="51" y="3" width="42" height="32"/>
      <rect x="49" y="1" width="42" height="32" class="nonterminal"/>
      <text class="nonterminal" x="59" y="21">avg</text>
   </a>
   <a xmlns:xlink="http://www.w3.org/1999/xlink"
      xlink:href="../count"
      xlink:title="count">
      <rect x="51" y="47" width="54" height="32"/>
      <rect x="49" y="45" width="54" height="32" class="nonterminal"/>
      <text class="nonterminal" x="59" y="65">count</text>
   </a>
   <a xmlns:xlink="http://www.w3.org/1999/xlink"
      xlink:href="../group_concat"
      xlink:title="group_concat">
      <rect x="51" y="91" width="106" height="32"/>
      <rect x="49" y="89" width="106" height="32" class="nonterminal"/>
      <text class="nonterminal" x="59" y="109">group_concat</text>
   </a>
   <a xmlns:xlink="http://www.w3.org/1999/xlink"
      xlink:href="../max"
      xlink:title="max">
      <rect x="51" y="135" width="46" height="32"/>
      <rect x="49" y="133" width="46" height="32" class="nonterminal"/>
      <text class="nonterminal" x="59" y="153">max</text>
   </a>
   <a xmlns:xlink="http://www.w3.org/1999/xlink"
      xlink:href="../min"
      xlink:title="min">
      <rect x="51" y="179" width="42" height="32"/>
      <rect x="49" y="177" width="42" height="32" class="nonterminal"/>
      <text class="nonterminal" x="59" y="197">min</text>
   </a>
   <a xmlns:xlink="http://www.w3.org/1999/xlink"
      xlink:href="../string_agg"
      xlink:title="string_agg">
      <rect x="51" y="223" width="88" height="32"/>
      <rect x="49" y="221" width="88" height="32" class="nonterminal"/>
      <text class="nonterminal" x="59" y="241">string_agg</text>
   </a>
   <a xmlns:xlink="http://www.w3.org/1999/xlink"
      xlink:href="../sum"
      xlink:title="sum">
      <rect x="51" y="267" width="46" height="32"/>
      <rect x="49" y="265" width="46" height="32" class="nonterminal"/>
      <text class="nonterminal" x="59" y="285">sum</text>
   </a>
   <a xmlns:xlink="http://www.w3.org/1999/xlink"
      xlink:href="../total"
      xlink:title="total">
      <rect x="51" y="311" width="48" height="32"/>
      <rect x="49" y="309" width="48" height="32" class="nonterminal"/>
      <text class="nonterminal" x="59" y="329">total</text>
   </a>
   <path class="line"
         d="m17 17 h2 m20 0 h10 m42 0 h10 m0 0 h64 m-146 0 h20 m126 0 h20 m-166 0 q10 0 10 10 m146 0 q0 -10 10 -10 m-156 10 v24 m146 0 v-24 m-146 24 q0 10 10 10 m126 0 q10 0 10 -10 m-136 10 h10 m54 0 h10 m0 0 h52 m-136 -10 v20 m146 0 v-20 m-146 20 v24 m146 0 v-24 m-146 24 q0 10 10 10 m126 0 q10 0 10 -10 m-136 10 h10 m106 0 h10 m-136 -10 v20 m146 0 v-20 m-146 20 v24 m146 0 v-24 m-146 24 q0 10 10 10 m126 0 q10 0 10 -10 m-136 10 h10 m46 0 h10 m0 0 h60 m-136 -10 v20 m146 0 v-20 m-146 20 v24 m146 0 v-24 m-146 24 q0 10 10 10 m126 0 q10 0 10 -10 m-136 10 h10 m42 0 h10 m0 0 h64 m-136 -10 v20 m146 0 v-20 m-146 20 v24 m146 0 v-24 m-146 24 q0 10 10 10 m126 0 q10 0 10 -10 m-136 10 h10 m88 0 h10 m0 0 h18 m-136 -10 v20 m146 0 v-20 m-146 20 v24 m146 0 v-24 m-146 24 q0 10 10 10 m126 0 q10 0 10 -10 m-136 10 h10 m46 0 h10 m0 0 h60 m-136 -10 v20 m146 0 v-20 m-146 20 v24 m146 0 v-24 m-146 24 q0 10 10 10 m126 0 q10 0 10 -10 m-136 10 h10 m48 0 h10 m0 0 h58 m23 -308 h-3"/>
   <polygon points="195 17 203 13 203 21"/>
   <polygon points="195 17 187 13 187 21"/>
</svg>
