<?xml version="1.0" encoding="UTF-8" standalone="no"?>
<svg
   width="865"
   height="227"
   version="1.1"
   viewBox="0 0 865 227"
   id="svg42"
   sodipodi:docname="alter_procedure.svg"
   inkscape:version="1.4 (e7c3feb100, 2024-10-09)"
   xmlns:inkscape="http://www.inkscape.org/namespaces/inkscape"
   xmlns:sodipodi="http://sodipodi.sourceforge.net/DTD/sodipodi-0.dtd"
   xmlns:xlink="http://www.w3.org/1999/xlink"
   xmlns="http://www.w3.org/2000/svg"
   xmlns:svg="http://www.w3.org/2000/svg">
  <sodipodi:namedview
     id="namedview42"
     pagecolor="#ffffff"
     bordercolor="#666666"
     borderopacity="1.0"
     inkscape:showpageshadow="2"
     inkscape:pageopacity="0.0"
     inkscape:pagecheckerboard="0"
     inkscape:deskcolor="#d1d1d1"
     inkscape:zoom="1.1895954"
     inkscape:cx="432.5"
     inkscape:cy="113.90428"
     inkscape:window-width="1858"
     inkscape:window-height="1014"
     inkscape:window-x="0"
     inkscape:window-y="0"
     inkscape:window-maximized="1"
     inkscape:current-layer="svg42" />
  <defs
     id="defs1">
    <style
       type="text/css"
       id="style1">@namespace &quot;http://www.w3.org/2000/svg&quot;;.line { fill: none; stroke: #330000; stroke-width: 1; }
.bold-line { stroke: #140000; shape-rendering: crispEdges; stroke-width: 2; }
.thin-line { stroke: #1F0000; shape-rendering: crispEdges }
.filled { fill: #330000; stroke: none; }
text.terminal { font-family: Verdana, Sans-serif;                            font-size: 12px;                            fill: #140000;                            font-weight: bold; }
text.nonterminal { font-family: Verdana, Sans-serif;                            font-size: 12px;                            fill: #1A0000;                            font-weight: normal; }
text.regexp { font-family: Verdana, Sans-serif;                            font-size: 12px;                            fill: #1F0000;                            font-weight: normal; }
rect, circle, polygon { fill: #330000; stroke: #330000; }
rect.terminal { fill: #FF4D4D; stroke: #330000; stroke-width: 1; }
rect.nonterminal { fill: #FF9E9E; stroke: #330000; stroke-width: 1; }
rect.text { fill: none; stroke: none; }
polygon.regexp { fill: #FFC7C7; stroke: #330000; stroke-width: 1; }
</style>
  </defs>
  <polygon
     points="11 61 3 57 3 65"
     id="polygon1" />
  <polygon
     points="19 61 11 57 11 65"
     id="polygon2" />
  <rect
     x="33"
     y="47"
     width="62"
     height="32"
     rx="10"
     id="rect2" />
  <rect
     x="31"
     y="45"
     width="62"
     height="32"
     class="terminal"
     rx="10"
     id="rect3" />
  <text
     class="terminal"
     x="41"
     y="65"
     id="text3">ALTER</text>
  <rect
     x="115"
     y="47"
     width="104"
     height="32"
     rx="10"
     id="rect4" />
  <rect
     x="113"
     y="45"
     width="104"
     height="32"
     class="terminal"
     rx="10"
     id="rect5" />
  <text
     class="terminal"
     x="123"
     y="65"
     id="text5">PROCEDURE</text>
  <a
     xlink:href="../object"
     xlink:title="procedure"
     id="a7">
    <rect
       x="239"
       y="47"
       width="84"
       height="32"
       id="rect6" />
    <rect
       x="237"
       y="45"
       width="84"
       height="32"
       class="nonterminal"
       id="rect7" />
    <text
       class="nonterminal"
       x="247"
       y="65"
       id="text7">procedure</text>
  </a>
  <rect
     x="363"
     y="47"
     width="26"
     height="32"
     rx="10"
     id="rect8" />
  <rect
     x="361"
     y="45"
     width="26"
     height="32"
     class="terminal"
     rx="10"
     id="rect9" />
  <text
     class="terminal"
     x="371"
     y="65"
     id="text9">(</text>
  <a
     xlink:href="#type"
     xlink:title="type"
     id="a11">
    <rect
       x="429"
       y="47"
       width="48"
       height="32"
       id="rect10" />
    <rect
       x="427"
       y="45"
       width="48"
       height="32"
       class="nonterminal"
       id="rect11" />
    <text
       class="nonterminal"
       x="437"
       y="65"
       id="text11">type</text>
  </a>
  <rect
     x="429"
     y="3"
     width="24"
     height="32"
     rx="10"
     id="rect12" />
  <rect
     x="427"
     y="1"
     width="24"
     height="32"
     class="terminal"
     rx="10"
     id="rect13" />
  <text
     class="terminal"
     x="437"
     y="21"
     id="text13">,</text>
  <rect
     x="517"
     y="47"
     width="26"
     height="32"
     rx="10"
     id="rect14" />
  <rect
     x="515"
     y="45"
     width="26"
     height="32"
     class="terminal"
     rx="10"
     id="rect15" />
  <text
     class="terminal"
     x="525"
     y="65"
     id="text15">)</text>
  <rect
     x="583"
     y="47"
     width="76"
     height="32"
     rx="10"
     id="rect16" />
  <rect
     x="581"
     y="45"
     width="76"
     height="32"
     class="terminal"
     rx="10"
     id="rect17" />
  <text
     class="terminal"
     x="591"
     y="65"
     id="text17">RENAME</text>
  <rect
     x="679"
     y="47"
     width="38"
     height="32"
     rx="10"
     id="rect18" />
  <rect
     x="677"
     y="45"
     width="38"
     height="32"
     class="terminal"
     rx="10"
     id="rect19" />
  <text
     class="terminal"
     x="687"
     y="65"
     id="text19">TO</text>
  <a
     xlink:href="../object"
     xlink:title="procedure"
     id="a21">
    <rect
       x="737"
       y="47"
       width="84"
       height="32"
       id="rect20" />
    <rect
       x="735"
       y="45"
       width="84"
       height="32"
       class="nonterminal"
       id="rect21" />
    <text
       class="nonterminal"
       x="745"
       y="65"
       id="text21">procedure</text>
  </a>
  <rect
     x="45"
     y="149"
     width="58"
     height="32"
     rx="10"
     id="rect22" />
  <rect
     x="43"
     y="147"
     width="58"
     height="32"
     class="terminal"
     rx="10"
     id="rect23" />
  <text
     class="terminal"
     x="53"
     y="167"
     id="text23">WAIT</text>
  <rect
     x="123"
     y="149"
     width="80"
     height="32"
     rx="10"
     id="rect24" />
  <rect
     x="121"
     y="147"
     width="80"
     height="32"
     class="terminal"
     rx="10"
     id="rect25" />
  <text
     class="terminal"
     x="131"
     y="167"
     id="text25">APPLIED</text>
  <rect
     x="243"
     y="149"
     width="92"
     height="32"
     rx="10"
     id="rect26" />
  <rect
     x="241"
     y="147"
     width="92"
     height="32"
     class="terminal"
     rx="10"
     id="rect27" />
  <text
     class="terminal"
     x="251"
     y="167"
     id="text27">GLOBALLY</text>
  <rect
     x="243"
     y="193"
     width="82"
     height="32"
     rx="10"
     id="rect28" />
  <rect
     x="241"
     y="191"
     width="82"
     height="32"
     class="terminal"
     rx="10"
     id="rect29" />
  <text
     class="terminal"
     x="251"
     y="211"
     id="text29">LOCALLY</text>
  <rect
     x="415"
     y="149"
     width="76"
     height="32"
     rx="10"
     id="rect30" />
  <rect
     x="413"
     y="147"
     width="76"
     height="32"
     class="terminal"
     rx="10"
     id="rect31" />
  <text
     class="terminal"
     x="423"
     y="167"
     id="text31">OPTION</text>
  <rect
     x="511"
     y="149"
     width="26"
     height="32"
     rx="10"
     id="rect32" />
  <rect
     x="509"
     y="147"
     width="26"
     height="32"
     class="terminal"
     rx="10"
     id="rect33" />
  <text
     class="terminal"
     x="519"
     y="167"
     id="text33">(</text>
  <rect
     x="557"
     y="149"
     width="82"
     height="32"
     rx="10"
     id="rect34" />
  <rect
     x="555"
     y="147"
     width="82"
     height="32"
     class="terminal"
     rx="10"
     id="rect35" />
  <text
     class="terminal"
     x="565"
     y="167"
     id="text35">TIMEOUT</text>
  <rect
     x="659"
     y="149"
     width="30"
     height="32"
     rx="10"
     id="rect36" />
  <rect
     x="657"
     y="147"
     width="30"
     height="32"
     class="terminal"
     rx="10"
     id="rect37" />
  <text
     class="terminal"
     x="667"
     y="167"
     id="text37">=</text>
  <a
     xlink:href="../../sql_types#double"
     xlink:title="double"
     id="a39">
    <rect
       x="709"
       y="149"
       width="62"
       height="32"
       id="rect38" />
    <rect
       x="707"
       y="147"
       width="62"
       height="32"
       class="nonterminal"
       id="rect39" />
    <text
       class="nonterminal"
       x="717"
       y="167"
       id="text39">double</text>
  </a>
  <rect
     x="791"
     y="149"
     width="26"
     height="32"
     rx="10"
     id="rect40" />
  <rect
     x="789"
     y="147"
     width="26"
     height="32"
     class="terminal"
     rx="10"
     id="rect41" />
  <text
     class="terminal"
     x="799"
     y="167"
     id="text41">)</text>
  <path
     class="line"
     d="m19 61 h2 m0 0 h10 m62 0 h10 m0 0 h10 m104 0 h10 m0 0 h10 m84 0 h10 m20 0 h10 m26 0 h10 m20 0 h10 m48 0 h10 m-88 0 l20 0 m-1 0 q-9 0 -9 -10 l0 -24 q0 -10 10 -10 m68 44 l20 0 m-20 0 q10 0 10 -10 l0 -24 q0 -10 -10 -10 m-68 0 h10 m24 0 h10 m0 0 h24 m20 44 h10 m26 0 h10 m-220 0 h20 m200 0 h20 m-240 0 q10 0 10 10 m220 0 q0 -10 10 -10 m-230 10 v14 m220 0 v-14 m-220 14 q0 10 10 10 m200 0 q10 0 10 -10 m-210 10 h10 m0 0 h190 m20 -34 h10 m76 0 h10 m0 0 h10 m38 0 h10 m0 0 h10 m84 0 h10 m2 0 l2 0 m2 0 l2 0 m2 0 l2 0 m-840 70 l2 0 m2 0 l2 0 m2 0 l2 0 m22 0 h10 m0 0 h320 m-350 0 h20 m330 0 h20 m-370 0 q10 0 10 10 m350 0 q0 -10 10 -10 m-360 10 v12 m350 0 v-12 m-350 12 q0 10 10 10 m330 0 q10 0 10 -10 m-340 10 h10 m58 0 h10 m0 0 h10 m80 0 h10 m20 0 h10 m92 0 h10 m-132 0 h20 m112 0 h20 m-152 0 q10 0 10 10 m132 0 q0 -10 10 -10 m-142 10 v24 m132 0 v-24 m-132 24 q0 10 10 10 m112 0 q10 0 10 -10 m-122 10 h10 m82 0 h10 m0 0 h10 m60 -76 h10 m0 0 h412 m-442 0 h20 m422 0 h20 m-462 0 q10 0 10 10 m442 0 q0 -10 10 -10 m-452 10 v12 m442 0 v-12 m-442 12 q0 10 10 10 m422 0 q10 0 10 -10 m-432 10 h10 m76 0 h10 m0 0 h10 m26 0 h10 m0 0 h10 m82 0 h10 m0 0 h10 m30 0 h10 m0 0 h10 m62 0 h10 m0 0 h10 m26 0 h10 m23 -32 h-3"
     id="path41" />
  <polygon
     points="855 131 863 127 863 135"
     id="polygon41" />
  <polygon
     points="855 131 847 127 847 135"
     id="polygon42" />
</svg>
