<?xml version="1.0" encoding="UTF-8"?>
<svg xmlns="http://www.w3.org/2000/svg" width="865" height="561" viewBox="0 0 865 561">
   <defs>
      <style type="text/css">
    @namespace "http://www.w3.org/2000/svg";
    .line                 {fill: none; stroke: #330000; stroke-width: 1;}
    .bold-line            {stroke: #140000; shape-rendering: crispEdges; stroke-width: 2;}
    .thin-line            {stroke: #1F0000; shape-rendering: crispEdges}
    .filled               {fill: #330000; stroke: none;}
    text.terminal         {font-family: Verdana, Sans-serif;
                            font-size: 12px;
                            fill: #140000;
                            font-weight: bold;
                          }
    text.nonterminal      {font-family: Verdana, Sans-serif;
                            font-size: 12px;
                            fill: #1A0000;
                            font-weight: normal;
                          }
    text.regexp           {font-family: Verdana, Sans-serif;
                            font-size: 12px;
                            fill: #1F0000;
                            font-weight: normal;
                          }
    rect, circle, polygon {fill: #330000; stroke: #330000;}
    rect.terminal         {fill: #FF4D4D; stroke: #330000; stroke-width: 1;}
    rect.nonterminal      {fill: #FF9E9E; stroke: #330000; stroke-width: 1;}
    rect.text             {fill: none; stroke: none;}
    polygon.regexp        {fill: #FFC7C7; stroke: #330000; stroke-width: 1;}
  </style>
   </defs>
   <polygon points="11 17 3 13 3 21"/>
   <polygon points="19 17 11 13 11 21"/>
   <rect x="33" y="3" width="62" height="32" rx="10"/>
   <rect x="31"
         y="1"
         width="62"
         height="32"
         class="terminal"
         rx="10"/>
   <text class="terminal" x="41" y="21">ALTER</text>
   <rect x="115" y="3" width="56" height="32" rx="10"/>
   <rect x="113"
         y="1"
         width="56"
         height="32"
         class="terminal"
         rx="10"/>
   <text class="terminal" x="123" y="21">USER</text>
   <a xmlns:xlink="http://www.w3.org/1999/xlink"
      xlink:href="../object"
      xlink:title="user">
      <rect x="191" y="3" width="48" height="32"/>
      <rect x="189" y="1" width="48" height="32" class="nonterminal"/>
      <text class="nonterminal" x="199" y="21">user</text>
   </a>
   <rect x="279" y="35" width="58" height="32" rx="10"/>
   <rect x="277"
         y="33"
         width="58"
         height="32"
         class="terminal"
         rx="10"/>
   <text class="terminal" x="287" y="53">WITH</text>
   <rect x="115" y="101" width="64" height="32" rx="10"/>
   <rect x="113"
         y="99"
         width="64"
         height="32"
         class="terminal"
         rx="10"/>
   <text class="terminal" x="123" y="119">LOGIN</text>
   <rect x="115" y="145" width="86" height="32" rx="10"/>
   <rect x="113"
         y="143"
         width="86"
         height="32"
         class="terminal"
         rx="10"/>
   <text class="terminal" x="123" y="163">NOLOGIN</text>
   <rect x="115" y="189" width="100" height="32" rx="10"/>
   <rect x="113"
         y="187"
         width="100"
         height="32"
         class="terminal"
         rx="10"/>
   <text class="terminal" x="123" y="207">PASSWORD</text>
   <rect x="255" y="189" width="64" height="32" rx="10"/>
   <rect x="253"
         y="187"
         width="64"
         height="32"
         class="terminal"
         rx="10"/>
   <text class="terminal" x="263" y="207">USING</text>
   <rect x="339" y="189" width="56" height="32" rx="10"/>
   <rect x="337"
         y="187"
         width="56"
         height="32"
         class="terminal"
         rx="10"/>
   <text class="terminal" x="347" y="207">LDAP</text>
   <rect x="255" y="233" width="24" height="32" rx="10"/>
   <rect x="253"
         y="231"
         width="24"
         height="32"
         class="terminal"
         rx="10"/>
   <text class="terminal" x="263" y="251">'</text>
   <a xmlns:xlink="http://www.w3.org/1999/xlink"
      xlink:href="../../sql_types#text"
      xlink:title="password">
      <rect x="299" y="233" width="80" height="32"/>
      <rect x="297" y="231" width="80" height="32" class="nonterminal"/>
      <text class="nonterminal" x="307" y="251">password</text>
   </a>
   <rect x="399" y="233" width="24" height="32" rx="10"/>
   <rect x="397"
         y="231"
         width="24"
         height="32"
         class="terminal"
         rx="10"/>
   <text class="terminal" x="407" y="251">'</text>
   <rect x="463" y="265" width="64" height="32" rx="10"/>
   <rect x="461"
         y="263"
         width="64"
         height="32"
         class="terminal"
         rx="10"/>
   <text class="terminal" x="471" y="283">USING</text>
   <rect x="567" y="265" width="100" height="32" rx="10"/>
   <rect x="565"
         y="263"
         width="100"
         height="32"
         class="terminal"
         rx="10"/>
   <text class="terminal" x="575" y="283">CHAP-SHA1</text>
   <rect x="567" y="309" width="50" height="32" rx="10"/>
   <rect x="565"
         y="307"
         width="50"
         height="32"
         class="terminal"
         rx="10"/>
   <text class="terminal" x="575" y="327">MD5</text>
   <rect x="567" y="353" width="128" height="32" rx="10"/>
   <rect x="565"
         y="351"
         width="128"
         height="32"
         class="terminal"
         rx="10"/>
   <text class="terminal" x="575" y="371">SCRAM-SHA256</text>
   <rect x="115" y="397" width="76" height="32" rx="10"/>
   <rect x="113"
         y="395"
         width="76"
         height="32"
         class="terminal"
         rx="10"/>
   <text class="terminal" x="123" y="415">RENAME</text>
   <rect x="211" y="397" width="38" height="32" rx="10"/>
   <rect x="209"
         y="395"
         width="38"
         height="32"
         class="terminal"
         rx="10"/>
   <text class="terminal" x="219" y="415">TO</text>
   <a xmlns:xlink="http://www.w3.org/1999/xlink"
      xlink:href="../object"
      xlink:title="user">
      <rect x="269" y="397" width="48" height="32"/>
      <rect x="267" y="395" width="48" height="32" class="nonterminal"/>
      <text class="nonterminal" x="277" y="415">user</text>
   </a>
   <rect x="45" y="483" width="58" height="32" rx="10"/>
   <rect x="43"
         y="481"
         width="58"
         height="32"
         class="terminal"
         rx="10"/>
   <text class="terminal" x="53" y="501">WAIT</text>
   <rect x="123" y="483" width="80" height="32" rx="10"/>
   <rect x="121"
         y="481"
         width="80"
         height="32"
         class="terminal"
         rx="10"/>
   <text class="terminal" x="131" y="501">APPLIED</text>
   <rect x="243" y="483" width="92" height="32" rx="10"/>
   <rect x="241"
         y="481"
         width="92"
         height="32"
         class="terminal"
         rx="10"/>
   <text class="terminal" x="251" y="501">GLOBALLY</text>
   <rect x="243" y="527" width="82" height="32" rx="10"/>
   <rect x="241"
         y="525"
         width="82"
         height="32"
         class="terminal"
         rx="10"/>
   <text class="terminal" x="251" y="545">LOCALLY</text>
   <rect x="415" y="483" width="76" height="32" rx="10"/>
   <rect x="413"
         y="481"
         width="76"
         height="32"
         class="terminal"
         rx="10"/>
   <text class="terminal" x="423" y="501">OPTION</text>
   <rect x="511" y="483" width="26" height="32" rx="10"/>
   <rect x="509"
         y="481"
         width="26"
         height="32"
         class="terminal"
         rx="10"/>
   <text class="terminal" x="519" y="501">(</text>
   <rect x="557" y="483" width="82" height="32" rx="10"/>
   <rect x="555"
         y="481"
         width="82"
         height="32"
         class="terminal"
         rx="10"/>
   <text class="terminal" x="565" y="501">TIMEOUT</text>
   <rect x="659" y="483" width="30" height="32" rx="10"/>
   <rect x="657"
         y="481"
         width="30"
         height="32"
         class="terminal"
         rx="10"/>
   <text class="terminal" x="667" y="501">=</text>
   <a xmlns:xlink="http://www.w3.org/1999/xlink"
      xlink:href="../../sql_types#double"
      xlink:title="double">
      <rect x="709" y="483" width="62" height="32"/>
      <rect x="707" y="481" width="62" height="32" class="nonterminal"/>
      <text class="nonterminal" x="717" y="501">double</text>
   </a>
   <rect x="791" y="483" width="26" height="32" rx="10"/>
   <rect x="789"
         y="481"
         width="26"
         height="32"
         class="terminal"
         rx="10"/>
   <text class="terminal" x="799" y="501">)</text>
   <path class="line"
         d="m19 17 h2 m0 0 h10 m62 0 h10 m0 0 h10 m56 0 h10 m0 0 h10 m48 0 h10 m20 0 h10 m0 0 h68 m-98 0 h20 m78 0 h20 m-118 0 q10 0 10 10 m98 0 q0 -10 10 -10 m-108 10 v12 m98 0 v-12 m-98 12 q0 10 10 10 m78 0 q10 0 10 -10 m-88 10 h10 m58 0 h10 m22 -32 l2 0 m2 0 l2 0 m2 0 l2 0 m-306 98 l2 0 m2 0 l2 0 m2 0 l2 0 m22 0 h10 m64 0 h10 m0 0 h576 m-680 0 h20 m660 0 h20 m-700 0 q10 0 10 10 m680 0 q0 -10 10 -10 m-690 10 v24 m680 0 v-24 m-680 24 q0 10 10 10 m660 0 q10 0 10 -10 m-670 10 h10 m86 0 h10 m0 0 h554 m-670 -10 v20 m680 0 v-20 m-680 20 v24 m680 0 v-24 m-680 24 q0 10 10 10 m660 0 q10 0 10 -10 m-670 10 h10 m100 0 h10 m20 0 h10 m64 0 h10 m0 0 h10 m56 0 h10 m0 0 h340 m-520 0 h20 m500 0 h20 m-540 0 q10 0 10 10 m520 0 q0 -10 10 -10 m-530 10 v24 m520 0 v-24 m-520 24 q0 10 10 10 m500 0 q10 0 10 -10 m-510 10 h10 m24 0 h10 m0 0 h10 m80 0 h10 m0 0 h10 m24 0 h10 m20 0 h10 m0 0 h262 m-292 0 h20 m272 0 h20 m-312 0 q10 0 10 10 m292 0 q0 -10 10 -10 m-302 10 v12 m292 0 v-12 m-292 12 q0 10 10 10 m272 0 q10 0 10 -10 m-282 10 h10 m64 0 h10 m20 0 h10 m100 0 h10 m0 0 h28 m-168 0 h20 m148 0 h20 m-188 0 q10 0 10 10 m168 0 q0 -10 10 -10 m-178 10 v24 m168 0 v-24 m-168 24 q0 10 10 10 m148 0 q10 0 10 -10 m-158 10 h10 m50 0 h10 m0 0 h78 m-158 -10 v20 m168 0 v-20 m-168 20 v24 m168 0 v-24 m-168 24 q0 10 10 10 m148 0 q10 0 10 -10 m-158 10 h10 m128 0 h10 m-610 -174 v20 m680 0 v-20 m-680 20 v188 m680 0 v-188 m-680 188 q0 10 10 10 m660 0 q10 0 10 -10 m-670 10 h10 m76 0 h10 m0 0 h10 m38 0 h10 m0 0 h10 m48 0 h10 m0 0 h438 m22 -296 l2 0 m2 0 l2 0 m2 0 l2 0 m-794 350 l2 0 m2 0 l2 0 m2 0 l2 0 m22 0 h10 m0 0 h320 m-350 0 h20 m330 0 h20 m-370 0 q10 0 10 10 m350 0 q0 -10 10 -10 m-360 10 v12 m350 0 v-12 m-350 12 q0 10 10 10 m330 0 q10 0 10 -10 m-340 10 h10 m58 0 h10 m0 0 h10 m80 0 h10 m20 0 h10 m92 0 h10 m-132 0 h20 m112 0 h20 m-152 0 q10 0 10 10 m132 0 q0 -10 10 -10 m-142 10 v24 m132 0 v-24 m-132 24 q0 10 10 10 m112 0 q10 0 10 -10 m-122 10 h10 m82 0 h10 m0 0 h10 m60 -76 h10 m0 0 h412 m-442 0 h20 m422 0 h20 m-462 0 q10 0 10 10 m442 0 q0 -10 10 -10 m-452 10 v12 m442 0 v-12 m-442 12 q0 10 10 10 m422 0 q10 0 10 -10 m-432 10 h10 m76 0 h10 m0 0 h10 m26 0 h10 m0 0 h10 m82 0 h10 m0 0 h10 m30 0 h10 m0 0 h10 m62 0 h10 m0 0 h10 m26 0 h10 m23 -32 h-3"/>
   <polygon points="855 465 863 461 863 469"/>
   <polygon points="855 465 847 461 847 469"/>
</svg>
