<?xml version="1.0" encoding="UTF-8"?>
<svg xmlns="http://www.w3.org/2000/svg" width="847" height="97" viewBox="0 0 847 97">
   <defs>
      <style type="text/css">
    @namespace "http://www.w3.org/2000/svg";
    .line                 {fill: none; stroke: #330000; stroke-width: 1;}
    .bold-line            {stroke: #140000; shape-rendering: crispEdges; stroke-width: 2;}
    .thin-line            {stroke: #1F0000; shape-rendering: crispEdges}
    .filled               {fill: #330000; stroke: none;}
    text.terminal         {font-family: Verdana, Sans-serif;
                            font-size: 12px;
                            fill: #140000;
                            font-weight: bold;
                          }
    text.nonterminal      {font-family: Verdana, Sans-serif;
                            font-size: 12px;
                            fill: #1A0000;
                            font-weight: normal;
                          }
    text.regexp           {font-family: Verdana, Sans-serif;
                            font-size: 12px;
                            fill: #1F0000;
                            font-weight: normal;
                          }
    rect, circle, polygon {fill: #330000; stroke: #330000;}
    rect.terminal         {fill: #FF4D4D; stroke: #330000; stroke-width: 1;}
    rect.nonterminal      {fill: #FF9E9E; stroke: #330000; stroke-width: 1;}
    rect.text             {fill: none; stroke: none;}
    polygon.regexp        {fill: #FFC7C7; stroke: #330000; stroke-width: 1;}
  </style>
      <style class="darkreader darkreader--sync" media="screen"/>
   </defs>
   <polygon points="9 61 1 57 1 65"/>
   <polygon points="17 61 9 57 9 65"/>
   <rect x="31" y="47" width="62" height="32" rx="10"/>
   <rect x="29"
         y="45"
         width="62"
         height="32"
         class="terminal"
         rx="10"/>
   <text class="terminal" x="39" y="65">ALTER</text>
   <rect x="113" y="47" width="104" height="32" rx="10"/>
   <rect x="111"
         y="45"
         width="104"
         height="32"
         class="terminal"
         rx="10"/>
   <text class="terminal" x="121" y="65">PROCEDURE</text>
   <a xmlns:xlink="http://www.w3.org/1999/xlink"
      xlink:href="../object"
      xlink:title="procedure">
      <rect x="237" y="47" width="84" height="32"/>
      <rect x="235" y="45" width="84" height="32" class="nonterminal"/>
      <text class="nonterminal" x="245" y="65">procedure</text>
   </a>
   <rect x="361" y="47" width="26" height="32" rx="10"/>
   <rect x="359"
         y="45"
         width="26"
         height="32"
         class="terminal"
         rx="10"/>
   <text class="terminal" x="369" y="65">(</text>
   <a xmlns:xlink="http://www.w3.org/1999/xlink"
      xlink:href="#type"
      xlink:title="type">
      <rect x="427" y="47" width="48" height="32"/>
      <rect x="425" y="45" width="48" height="32" class="nonterminal"/>
      <text class="nonterminal" x="435" y="65">type</text>
   </a>
   <rect x="427" y="3" width="24" height="32" rx="10"/>
   <rect x="425"
         y="1"
         width="24"
         height="32"
         class="terminal"
         rx="10"/>
   <text class="terminal" x="435" y="21">,</text>
   <rect x="515" y="47" width="26" height="32" rx="10"/>
   <rect x="513"
         y="45"
         width="26"
         height="32"
         class="terminal"
         rx="10"/>
   <text class="terminal" x="523" y="65">)</text>
   <rect x="581" y="47" width="76" height="32" rx="10"/>
   <rect x="579"
         y="45"
         width="76"
         height="32"
         class="terminal"
         rx="10"/>
   <text class="terminal" x="589" y="65">RENAME</text>
   <rect x="677" y="47" width="38" height="32" rx="10"/>
   <rect x="675"
         y="45"
         width="38"
         height="32"
         class="terminal"
         rx="10"/>
   <text class="terminal" x="685" y="65">TO</text>
   <a xmlns:xlink="http://www.w3.org/1999/xlink"
      xlink:href="../object"
      xlink:title="procedure">
      <rect x="735" y="47" width="84" height="32"/>
      <rect x="733" y="45" width="84" height="32" class="nonterminal"/>
      <text class="nonterminal" x="743" y="65">procedure</text>
   </a>
   <path class="line"
         d="m17 61 h2 m0 0 h10 m62 0 h10 m0 0 h10 m104 0 h10 m0 0 h10 m84 0 h10 m20 0 h10 m26 0 h10 m20 0 h10 m48 0 h10 m-88 0 l20 0 m-1 0 q-9 0 -9 -10 l0 -24 q0 -10 10 -10 m68 44 l20 0 m-20 0 q10 0 10 -10 l0 -24 q0 -10 -10 -10 m-68 0 h10 m24 0 h10 m0 0 h24 m20 44 h10 m26 0 h10 m-220 0 h20 m200 0 h20 m-240 0 q10 0 10 10 m220 0 q0 -10 10 -10 m-230 10 v14 m220 0 v-14 m-220 14 q0 10 10 10 m200 0 q10 0 10 -10 m-210 10 h10 m0 0 h190 m20 -34 h10 m76 0 h10 m0 0 h10 m38 0 h10 m0 0 h10 m84 0 h10 m3 0 h-3"/>
   <polygon points="837 61 845 57 845 65"/>
   <polygon points="837 61 829 57 829 65"/>
</svg>
