<?xml version="1.0" encoding="UTF-8" standalone="no"?>
<svg
   width="727"
   height="517"
   version="1.1"
   viewBox="0 0 727 517"
   id="svg52"
   sodipodi:docname="alter_user.svg"
   inkscape:version="1.4.2 (ebf0e940d0, 2025-05-08)"
   xmlns:inkscape="http://www.inkscape.org/namespaces/inkscape"
   xmlns:sodipodi="http://sodipodi.sourceforge.net/DTD/sodipodi-0.dtd"
   xmlns:xlink="http://www.w3.org/1999/xlink"
   xmlns="http://www.w3.org/2000/svg"
   xmlns:svg="http://www.w3.org/2000/svg">
  <sodipodi:namedview
     id="namedview52"
     pagecolor="#ffffff"
     bordercolor="#666666"
     borderopacity="1.0"
     inkscape:showpageshadow="2"
     inkscape:pageopacity="0.0"
     inkscape:pagecheckerboard="0"
     inkscape:deskcolor="#d1d1d1"
     inkscape:zoom="1.2145805"
     inkscape:cx="363.5"
     inkscape:cy="258.11382"
     inkscape:window-width="1858"
     inkscape:window-height="1014"
     inkscape:window-x="62"
     inkscape:window-y="29"
     inkscape:window-maximized="1"
     inkscape:current-layer="svg52" />
  <defs
     id="defs1">
    <style
       type="text/css"
       id="style1">@namespace &quot;http://www.w3.org/2000/svg&quot;;.line { fill: none; stroke: #330000; stroke-width: 1; }
.bold-line { stroke: #140000; shape-rendering: crispEdges; stroke-width: 2; }
.thin-line { stroke: #1F0000; shape-rendering: crispEdges }
.filled { fill: #330000; stroke: none; }
text.terminal { font-family: Verdana, Sans-serif;                            font-size: 12px;                            fill: #140000;                            font-weight: bold; }
text.nonterminal { font-family: Verdana, Sans-serif;                            font-size: 12px;                            fill: #1A0000;                            font-weight: normal; }
text.regexp { font-family: Verdana, Sans-serif;                            font-size: 12px;                            fill: #1F0000;                            font-weight: normal; }
rect, circle, polygon { fill: #330000; stroke: #330000; }
rect.terminal { fill: #FF4D4D; stroke: #330000; stroke-width: 1; }
rect.nonterminal { fill: #FF9E9E; stroke: #330000; stroke-width: 1; }
rect.text { fill: none; stroke: none; }
polygon.regexp { fill: #FFC7C7; stroke: #330000; stroke-width: 1; }
</style>
  </defs>
  <polygon
     points="9 17 1 13 1 21"
     id="polygon1" />
  <polygon
     points="17 17 9 13 9 21"
     id="polygon2" />
  <rect
     x="31"
     y="3"
     width="62"
     height="32"
     rx="10"
     id="rect2" />
  <rect
     x="29"
     y="1"
     width="62"
     height="32"
     class="terminal"
     rx="10"
     id="rect3" />
  <text
     class="terminal"
     x="39"
     y="21"
     id="text3">ALTER</text>
  <rect
     x="113"
     y="3"
     width="56"
     height="32"
     rx="10"
     id="rect4" />
  <rect
     x="111"
     y="1"
     width="56"
     height="32"
     class="terminal"
     rx="10"
     id="rect5" />
  <text
     class="terminal"
     x="121"
     y="21"
     id="text5">USER</text>
  <a
     xlink:href="../object"
     xlink:title="user"
     id="a7">
    <rect
       x="189"
       y="3"
       width="48"
       height="32"
       id="rect6" />
    <rect
       x="187"
       y="1"
       width="48"
       height="32"
       class="nonterminal"
       id="rect7" />
    <text
       class="nonterminal"
       x="197"
       y="21"
       id="text7">user</text>
  </a>
  <rect
     x="277"
     y="35"
     width="58"
     height="32"
     rx="10"
     id="rect8" />
  <rect
     x="275"
     y="33"
     width="58"
     height="32"
     class="terminal"
     rx="10"
     id="rect9" />
  <text
     class="terminal"
     x="285"
     y="53"
     id="text9">WITH</text>
  <rect
     x="45"
     y="101"
     width="64"
     height="32"
     rx="10"
     id="rect10" />
  <rect
     x="43"
     y="99"
     width="64"
     height="32"
     class="terminal"
     rx="10"
     id="rect11" />
  <text
     class="terminal"
     x="53"
     y="119"
     id="text11">LOGIN</text>
  <rect
     x="45"
     y="145"
     width="86"
     height="32"
     rx="10"
     id="rect12" />
  <rect
     x="43"
     y="143"
     width="86"
     height="32"
     class="terminal"
     rx="10"
     id="rect13" />
  <text
     class="terminal"
     x="53"
     y="163"
     id="text13">NOLOGIN</text>
  <rect
     x="45"
     y="189"
     width="100"
     height="32"
     rx="10"
     id="rect14" />
  <rect
     x="43"
     y="187"
     width="100"
     height="32"
     class="terminal"
     rx="10"
     id="rect15" />
  <text
     class="terminal"
     x="53"
     y="207"
     id="text15">PASSWORD</text>
  <rect
     x="185"
     y="189"
     width="64"
     height="32"
     rx="10"
     id="rect16" />
  <rect
     x="183"
     y="187"
     width="64"
     height="32"
     class="terminal"
     rx="10"
     id="rect17" />
  <text
     class="terminal"
     x="193"
     y="207"
     id="text17">USING</text>
  <rect
     x="269"
     y="189"
     width="56"
     height="32"
     rx="10"
     id="rect18" />
  <rect
     x="267"
     y="187"
     width="56"
     height="32"
     class="terminal"
     rx="10"
     id="rect19" />
  <text
     class="terminal"
     x="277"
     y="207"
     id="text19">LDAP</text>
  <rect
     x="185"
     y="233"
     width="24"
     height="32"
     rx="10"
     id="rect20" />
  <rect
     x="183"
     y="231"
     width="24"
     height="32"
     class="terminal"
     rx="10"
     id="rect21" />
  <text
     class="terminal"
     x="193"
     y="251"
     id="text21">'</text>
  <a
     xlink:href="../../sql_types#text"
     xlink:title="password"
     id="a23">
    <rect
       x="229"
       y="233"
       width="80"
       height="32"
       id="rect22" />
    <rect
       x="227"
       y="231"
       width="80"
       height="32"
       class="nonterminal"
       id="rect23" />
    <text
       class="nonterminal"
       x="237"
       y="251"
       id="text23">password</text>
  </a>
  <rect
     x="329"
     y="233"
     width="24"
     height="32"
     rx="10"
     id="rect24" />
  <rect
     x="327"
     y="231"
     width="24"
     height="32"
     class="terminal"
     rx="10"
     id="rect25" />
  <text
     class="terminal"
     x="337"
     y="251"
     id="text25">'</text>
  <rect
     x="393"
     y="265"
     width="64"
     height="32"
     rx="10"
     id="rect26" />
  <rect
     x="391"
     y="263"
     width="64"
     height="32"
     class="terminal"
     rx="10"
     id="rect27" />
  <text
     class="terminal"
     x="401"
     y="283"
     id="text27">USING</text>
  <rect
     x="497"
     y="265"
     width="100"
     height="32"
     rx="10"
     id="rect28" />
  <rect
     x="495"
     y="263"
     width="100"
     height="32"
     class="terminal"
     rx="10"
     id="rect29" />
  <text
     class="terminal"
     x="505"
     y="283"
     id="text29">CHAP-SHA1</text>
  <rect
     x="497"
     y="309"
     width="50"
     height="32"
     rx="10"
     id="rect30" />
  <rect
     x="495"
     y="307"
     width="50"
     height="32"
     class="terminal"
     rx="10"
     id="rect31" />
  <text
     class="terminal"
     x="505"
     y="327"
     id="text31">MD5</text>
  <rect
     x="497"
     y="353"
     width="128"
     height="32"
     rx="10"
     id="rect32" />
  <rect
     x="495"
     y="351"
     width="128"
     height="32"
     class="terminal"
     rx="10"
     id="rect33" />
  <text
     class="terminal"
     x="505"
     y="371"
     id="text33">SCRAM-SHA256</text>
  <rect
     x="45"
     y="397"
     width="76"
     height="32"
     rx="10"
     id="rect34" />
  <rect
     x="43"
     y="395"
     width="76"
     height="32"
     class="terminal"
     rx="10"
     id="rect35" />
  <text
     class="terminal"
     x="53"
     y="415"
     id="text35">RENAME</text>
  <rect
     x="141"
     y="397"
     width="38"
     height="32"
     rx="10"
     id="rect36" />
  <rect
     x="139"
     y="395"
     width="38"
     height="32"
     class="terminal"
     rx="10"
     id="rect37" />
  <text
     class="terminal"
     x="149"
     y="415"
     id="text37">TO</text>
  <a
     xlink:href="../object"
     xlink:title="user"
     id="a39">
    <rect
       x="199"
       y="397"
       width="48"
       height="32"
       id="rect38" />
    <rect
       x="197"
       y="395"
       width="48"
       height="32"
       class="nonterminal"
       id="rect39" />
    <text
       class="nonterminal"
       x="207"
       y="415"
       id="text39">user</text>
  </a>
  <rect
     x="277"
     y="483"
     width="76"
     height="32"
     rx="10"
     id="rect40" />
  <rect
     x="275"
     y="481"
     width="76"
     height="32"
     class="terminal"
     rx="10"
     id="rect41" />
  <text
     class="terminal"
     x="285"
     y="501"
     id="text41">OPTION</text>
  <rect
     x="373"
     y="483"
     width="26"
     height="32"
     rx="10"
     id="rect42" />
  <rect
     x="371"
     y="481"
     width="26"
     height="32"
     class="terminal"
     rx="10"
     id="rect43" />
  <text
     class="terminal"
     x="381"
     y="501"
     id="text43">(</text>
  <rect
     x="419"
     y="483"
     width="82"
     height="32"
     rx="10"
     id="rect44" />
  <rect
     x="417"
     y="481"
     width="82"
     height="32"
     class="terminal"
     rx="10"
     id="rect45" />
  <text
     class="terminal"
     x="427"
     y="501"
     id="text45">TIMEOUT</text>
  <rect
     x="521"
     y="483"
     width="30"
     height="32"
     rx="10"
     id="rect46" />
  <rect
     x="519"
     y="481"
     width="30"
     height="32"
     class="terminal"
     rx="10"
     id="rect47" />
  <text
     class="terminal"
     x="529"
     y="501"
     id="text47">=</text>
  <a
     xlink:href="../../sql_types#double"
     xlink:title="double"
     id="a49">
    <rect
       x="571"
       y="483"
       width="62"
       height="32"
       id="rect48" />
    <rect
       x="569"
       y="481"
       width="62"
       height="32"
       class="nonterminal"
       id="rect49" />
    <text
       class="nonterminal"
       x="579"
       y="501"
       id="text49">double</text>
  </a>
  <rect
     x="653"
     y="483"
     width="26"
     height="32"
     rx="10"
     id="rect50" />
  <rect
     x="651"
     y="481"
     width="26"
     height="32"
     class="terminal"
     rx="10"
     id="rect51" />
  <text
     class="terminal"
     x="661"
     y="501"
     id="text51">)</text>
  <path
     class="line"
     d="m17 17 h2 m0 0 h10 m62 0 h10 m0 0 h10 m56 0 h10 m0 0 h10 m48 0 h10 m20 0 h10 m0 0 h68 m-98 0 h20 m78 0 h20 m-118 0 q10 0 10 10 m98 0 q0 -10 10 -10 m-108 10 v12 m98 0 v-12 m-98 12 q0 10 10 10 m78 0 q10 0 10 -10 m-88 10 h10 m58 0 h10 m22 -32 l2 0 m2 0 l2 0 m2 0 l2 0 m-374 98 l2 0 m2 0 l2 0 m2 0 l2 0 m22 0 h10 m64 0 h10 m0 0 h576 m-680 0 h20 m660 0 h20 m-700 0 q10 0 10 10 m680 0 q0 -10 10 -10 m-690 10 v24 m680 0 v-24 m-680 24 q0 10 10 10 m660 0 q10 0 10 -10 m-670 10 h10 m86 0 h10 m0 0 h554 m-670 -10 v20 m680 0 v-20 m-680 20 v24 m680 0 v-24 m-680 24 q0 10 10 10 m660 0 q10 0 10 -10 m-670 10 h10 m100 0 h10 m20 0 h10 m64 0 h10 m0 0 h10 m56 0 h10 m0 0 h340 m-520 0 h20 m500 0 h20 m-540 0 q10 0 10 10 m520 0 q0 -10 10 -10 m-530 10 v24 m520 0 v-24 m-520 24 q0 10 10 10 m500 0 q10 0 10 -10 m-510 10 h10 m24 0 h10 m0 0 h10 m80 0 h10 m0 0 h10 m24 0 h10 m20 0 h10 m0 0 h262 m-292 0 h20 m272 0 h20 m-312 0 q10 0 10 10 m292 0 q0 -10 10 -10 m-302 10 v12 m292 0 v-12 m-292 12 q0 10 10 10 m272 0 q10 0 10 -10 m-282 10 h10 m64 0 h10 m20 0 h10 m100 0 h10 m0 0 h28 m-168 0 h20 m148 0 h20 m-188 0 q10 0 10 10 m168 0 q0 -10 10 -10 m-178 10 v24 m168 0 v-24 m-168 24 q0 10 10 10 m148 0 q10 0 10 -10 m-158 10 h10 m50 0 h10 m0 0 h78 m-158 -10 v20 m168 0 v-20 m-168 20 v24 m168 0 v-24 m-168 24 q0 10 10 10 m148 0 q10 0 10 -10 m-158 10 h10 m128 0 h10 m-610 -174 v20 m680 0 v-20 m-680 20 v188 m680 0 v-188 m-680 188 q0 10 10 10 m660 0 q10 0 10 -10 m-670 10 h10 m76 0 h10 m0 0 h10 m38 0 h10 m0 0 h10 m48 0 h10 m0 0 h438 m22 -296 l2 0 m2 0 l2 0 m2 0 l2 0 m-492 350 l2 0 m2 0 l2 0 m2 0 l2 0 m22 0 h10 m0 0 h412 m-442 0 h20 m422 0 h20 m-462 0 q10 0 10 10 m442 0 q0 -10 10 -10 m-452 10 v12 m442 0 v-12 m-442 12 q0 10 10 10 m422 0 q10 0 10 -10 m-432 10 h10 m76 0 h10 m0 0 h10 m26 0 h10 m0 0 h10 m82 0 h10 m0 0 h10 m30 0 h10 m0 0 h10 m62 0 h10 m0 0 h10 m26 0 h10 m23 -32 h-3"
     id="path51" />
  <polygon
     points="717 465 725 461 725 469"
     id="polygon51" />
  <polygon
     points="717 465 709 461 709 469"
     id="polygon52" />
</svg>
