<?xml version="1.0" encoding="UTF-8" standalone="no"?>
<svg
   width="865"
   height="353"
   version="1.1"
   viewBox="0 0 865 353"
   id="svg48"
   sodipodi:docname="alter_table.svg"
   inkscape:version="1.4.2 (ebf0e940d0, 2025-05-08)"
   xmlns:inkscape="http://www.inkscape.org/namespaces/inkscape"
   xmlns:sodipodi="http://sodipodi.sourceforge.net/DTD/sodipodi-0.dtd"
   xmlns:xlink="http://www.w3.org/1999/xlink"
   xmlns="http://www.w3.org/2000/svg"
   xmlns:svg="http://www.w3.org/2000/svg">
  <sodipodi:namedview
     id="namedview48"
     pagecolor="#ffffff"
     bordercolor="#666666"
     borderopacity="1.0"
     inkscape:showpageshadow="2"
     inkscape:pageopacity="0.0"
     inkscape:pagecheckerboard="0"
     inkscape:deskcolor="#d1d1d1"
     inkscape:zoom="1.0208092"
     inkscape:cx="341.88562"
     inkscape:cy="279.68007"
     inkscape:window-width="1858"
     inkscape:window-height="1014"
     inkscape:window-x="62"
     inkscape:window-y="29"
     inkscape:window-maximized="1"
     inkscape:current-layer="svg48" />
  <defs
     id="defs1">
    <style
       type="text/css"
       id="style1">@namespace &quot;http://www.w3.org/2000/svg&quot;;.line { fill: none; stroke: #330000; stroke-width: 1; }
.bold-line { stroke: #140000; shape-rendering: crispEdges; stroke-width: 2; }
.thin-line { stroke: #1F0000; shape-rendering: crispEdges }
.filled { fill: #330000; stroke: none; }
text.terminal { font-family: Verdana, Sans-serif;                            font-size: 12px;                            fill: #140000;                            font-weight: bold; }
text.nonterminal { font-family: Verdana, Sans-serif;                            font-size: 12px;                            fill: #1A0000;                            font-weight: normal; }
text.regexp { font-family: Verdana, Sans-serif;                            font-size: 12px;                            fill: #1F0000;                            font-weight: normal; }
rect, circle, polygon { fill: #330000; stroke: #330000; }
rect.terminal { fill: #FF4D4D; stroke: #330000; stroke-width: 1; }
rect.nonterminal { fill: #FF9E9E; stroke: #330000; stroke-width: 1; }
rect.text { fill: none; stroke: none; }
polygon.regexp { fill: #FFC7C7; stroke: #330000; stroke-width: 1; }
</style>
  </defs>
  <polygon
     points="11 17 3 13 3 21"
     id="polygon1" />
  <polygon
     points="19 17 11 13 11 21"
     id="polygon2" />
  <rect
     x="33"
     y="3"
     width="62"
     height="32"
     rx="10"
     id="rect2" />
  <rect
     x="31"
     y="1"
     width="62"
     height="32"
     class="terminal"
     rx="10"
     id="rect3" />
  <text
     class="terminal"
     x="41"
     y="21"
     id="text3">ALTER</text>
  <rect
     x="115"
     y="3"
     width="62"
     height="32"
     rx="10"
     id="rect4" />
  <rect
     x="113"
     y="1"
     width="62"
     height="32"
     class="terminal"
     rx="10"
     id="rect5" />
  <text
     class="terminal"
     x="123"
     y="21"
     id="text5">TABLE</text>
  <a
     xlink:href="../object"
     xlink:title="table"
     id="a7">
    <rect
       x="197"
       y="3"
       width="52"
       height="32"
       id="rect6" />
    <rect
       x="195"
       y="1"
       width="52"
       height="32"
       class="nonterminal"
       id="rect7" />
    <text
       class="nonterminal"
       x="205"
       y="21"
       id="text7">table</text>
  </a>
  <rect
     x="114"
     y="69"
     width="76"
     height="32"
     rx="10"
     id="rect8" />
  <rect
     x="112"
     y="67"
     width="76"
     height="32"
     class="terminal"
     rx="10"
     id="rect9" />
  <text
     class="terminal"
     x="122"
     y="87"
     id="text9">RENAME</text>
  <rect
     x="210"
     y="69"
     width="38"
     height="32"
     rx="10"
     id="rect10" />
  <rect
     x="208"
     y="67"
     width="38"
     height="32"
     class="terminal"
     rx="10"
     id="rect11" />
  <text
     class="terminal"
     x="218"
     y="87"
     id="text11">TO</text>
  <a
     xlink:href="../object"
     xlink:title="table"
     id="a13">
    <rect
       x="268"
       y="69"
       width="52"
       height="32"
       id="rect12" />
    <rect
       x="266"
       y="67"
       width="52"
       height="32"
       class="nonterminal"
       id="rect13" />
    <text
       class="nonterminal"
       x="276"
       y="87"
       id="text13">table</text>
  </a>
  <rect
     x="134"
     y="157"
     width="48"
     height="32"
     rx="10"
     id="rect14" />
  <rect
     x="132"
     y="155"
     width="48"
     height="32"
     class="terminal"
     rx="10"
     id="rect15" />
  <text
     class="terminal"
     x="142"
     y="175"
     id="text15">ADD</text>
  <rect
     x="222"
     y="189"
     width="78"
     height="32"
     rx="10"
     id="rect16" />
  <rect
     x="220"
     y="187"
     width="78"
     height="32"
     class="terminal"
     rx="10"
     id="rect17" />
  <text
     class="terminal"
     x="230"
     y="207"
     id="text17">COLUMN</text>
  <a
     xlink:href="../object"
     xlink:title="column"
     id="a19">
    <rect
       x="340"
       y="157"
       width="64"
       height="32"
       id="rect18" />
    <rect
       x="338"
       y="155"
       width="64"
       height="32"
       class="nonterminal"
       id="rect19" />
    <text
       class="nonterminal"
       x="348"
       y="175"
       id="text19">column</text>
  </a>
  <a
     xlink:href="#domain_type"
     xlink:title="column_def_type"
     id="a21">
    <rect
       x="424"
       y="157"
       width="128"
       height="32"
       id="rect20" />
    <rect
       x="422"
       y="155"
       width="128"
       height="32"
       class="nonterminal"
       id="rect21" />
    <text
       class="nonterminal"
       x="444"
       y="175"
       id="text21">domain_type</text>
  </a>
  <rect
     x="592"
     y="189"
     width="48"
     height="32"
     rx="10"
     id="rect22" />
  <rect
     x="590"
     y="187"
     width="48"
     height="32"
     class="terminal"
     rx="10"
     id="rect23" />
  <text
     class="terminal"
     x="600"
     y="207"
     id="text23">NOT</text>
  <rect
     x="660"
     y="189"
     width="56"
     height="32"
     rx="10"
     id="rect24" />
  <rect
     x="658"
     y="187"
     width="56"
     height="32"
     class="terminal"
     rx="10"
     id="rect25" />
  <text
     class="terminal"
     x="668"
     y="207"
     id="text25">NULL</text>
  <rect
     x="134"
     y="113"
     width="24"
     height="32"
     rx="10"
     id="rect26" />
  <rect
     x="132"
     y="111"
     width="24"
     height="32"
     class="terminal"
     rx="10"
     id="rect27" />
  <text
     class="terminal"
     x="142"
     y="131"
     id="text27">,</text>
  <rect
     x="45"
     y="275"
     width="58"
     height="32"
     rx="10"
     id="rect28" />
  <rect
     x="43"
     y="273"
     width="58"
     height="32"
     class="terminal"
     rx="10"
     id="rect29" />
  <text
     class="terminal"
     x="53"
     y="293"
     id="text29">WAIT</text>
  <rect
     x="123"
     y="275"
     width="80"
     height="32"
     rx="10"
     id="rect30" />
  <rect
     x="121"
     y="273"
     width="80"
     height="32"
     class="terminal"
     rx="10"
     id="rect31" />
  <text
     class="terminal"
     x="131"
     y="293"
     id="text31">APPLIED</text>
  <rect
     x="243"
     y="275"
     width="92"
     height="32"
     rx="10"
     id="rect32" />
  <rect
     x="241"
     y="273"
     width="92"
     height="32"
     class="terminal"
     rx="10"
     id="rect33" />
  <text
     class="terminal"
     x="251"
     y="293"
     id="text33">GLOBALLY</text>
  <rect
     x="243"
     y="319"
     width="82"
     height="32"
     rx="10"
     id="rect34" />
  <rect
     x="241"
     y="317"
     width="82"
     height="32"
     class="terminal"
     rx="10"
     id="rect35" />
  <text
     class="terminal"
     x="251"
     y="337"
     id="text35">LOCALLY</text>
  <rect
     x="415"
     y="275"
     width="76"
     height="32"
     rx="10"
     id="rect36" />
  <rect
     x="413"
     y="273"
     width="76"
     height="32"
     class="terminal"
     rx="10"
     id="rect37" />
  <text
     class="terminal"
     x="423"
     y="293"
     id="text37">OPTION</text>
  <rect
     x="511"
     y="275"
     width="26"
     height="32"
     rx="10"
     id="rect38" />
  <rect
     x="509"
     y="273"
     width="26"
     height="32"
     class="terminal"
     rx="10"
     id="rect39" />
  <text
     class="terminal"
     x="519"
     y="293"
     id="text39">(</text>
  <rect
     x="557"
     y="275"
     width="82"
     height="32"
     rx="10"
     id="rect40" />
  <rect
     x="555"
     y="273"
     width="82"
     height="32"
     class="terminal"
     rx="10"
     id="rect41" />
  <text
     class="terminal"
     x="565"
     y="293"
     id="text41">TIMEOUT</text>
  <rect
     x="659"
     y="275"
     width="30"
     height="32"
     rx="10"
     id="rect42" />
  <rect
     x="657"
     y="273"
     width="30"
     height="32"
     class="terminal"
     rx="10"
     id="rect43" />
  <text
     class="terminal"
     x="667"
     y="293"
     id="text43">=</text>
  <a
     xlink:href="../../sql_types#double"
     xlink:title="double"
     id="a45">
    <rect
       x="709"
       y="275"
       width="62"
       height="32"
       id="rect44" />
    <rect
       x="707"
       y="273"
       width="62"
       height="32"
       class="nonterminal"
       id="rect45" />
    <text
       class="nonterminal"
       x="717"
       y="293"
       id="text45">double</text>
  </a>
  <rect
     x="791"
     y="275"
     width="26"
     height="32"
     rx="10"
     id="rect46" />
  <rect
     x="789"
     y="273"
     width="26"
     height="32"
     class="terminal"
     rx="10"
     id="rect47" />
  <text
     class="terminal"
     x="799"
     y="293"
     id="text47">)</text>
  <path
     class="line"
     d="m19 17 h2 m0 0 h10 m62 0 h10 m0 0 h10 m62 0 h10 m0 0 h10 m52 0 h10 m2 0 l2 0 m2 0 l2 0 m2 0 l2 0 m-199 66 l2 0 m2 0 l2 0 m2 0 l2 0 m22 0 h10 m76 0 h10 m0 0 h10 m38 0 h10 m0 0 h10 m52 0 h10 m0 0 h436 m-682 0 h20 m662 0 h20 m-702 0 q10 0 10 10 m682 0 q0 -10 10 -10 m-692 10 v68 m682 0 v-68 m-682 68 q0 10 10 10 m662 0 q10 0 10 -10 m-652 10 h10 m48 0 h10 m20 0 h10 m0 0 h88 m-118 0 h20 m98 0 h20 m-138 0 q10 0 10 10 m118 0 q0 -10 10 -10 m-128 10 v12 m118 0 v-12 m-118 12 q0 10 10 10 m98 0 q10 0 10 -10 m-108 10 h10 m78 0 h10 m20 -32 h10 m64 0 h10 m0 0 h10 m128 0 h10 m20 0 h10 m0 0 h134 m-164 0 h20 m144 0 h20 m-184 0 q10 0 10 10 m164 0 q0 -10 10 -10 m-174 10 v12 m164 0 v-12 m-164 12 q0 10 10 10 m144 0 q10 0 10 -10 m-154 10 h10 m48 0 h10 m0 0 h10 m56 0 h10 m-622 -32 l20 0 m-1 0 q-9 0 -9 -10 l0 -24 q0 -10 10 -10 m622 44 l20 0 m-20 0 q10 0 10 -10 l0 -24 q0 -10 -10 -10 m-622 0 h10 m24 0 h10 m0 0 h578 m42 -44 l2 0 m2 0 l2 0 m2 0 l2 0 m-795 174 l2 0 m2 0 l2 0 m2 0 l2 0 m22 0 h10 m0 0 h320 m-350 0 h20 m330 0 h20 m-370 0 q10 0 10 10 m350 0 q0 -10 10 -10 m-360 10 v12 m350 0 v-12 m-350 12 q0 10 10 10 m330 0 q10 0 10 -10 m-340 10 h10 m58 0 h10 m0 0 h10 m80 0 h10 m20 0 h10 m92 0 h10 m-132 0 h20 m112 0 h20 m-152 0 q10 0 10 10 m132 0 q0 -10 10 -10 m-142 10 v24 m132 0 v-24 m-132 24 q0 10 10 10 m112 0 q10 0 10 -10 m-122 10 h10 m82 0 h10 m0 0 h10 m60 -76 h10 m0 0 h412 m-442 0 h20 m422 0 h20 m-462 0 q10 0 10 10 m442 0 q0 -10 10 -10 m-452 10 v12 m442 0 v-12 m-442 12 q0 10 10 10 m422 0 q10 0 10 -10 m-432 10 h10 m76 0 h10 m0 0 h10 m26 0 h10 m0 0 h10 m82 0 h10 m0 0 h10 m30 0 h10 m0 0 h10 m62 0 h10 m0 0 h10 m26 0 h10 m23 -32 h-3"
     id="path47" />
  <polygon
     points="855 257 863 253 863 261"
     id="polygon47" />
  <polygon
     points="855 257 847 253 847 261"
     id="polygon48" />
</svg>
