<?xml version="1.0" encoding="UTF-8"?>
<svg xmlns="http://www.w3.org/2000/svg" width="989" height="299" viewBox="0 0 989 299">
   <defs>
      <style type="text/css">
    @namespace "http://www.w3.org/2000/svg";
    .line                 {fill: none; stroke: #330000; stroke-width: 1;}
    .bold-line            {stroke: #140000; shape-rendering: crispEdges; stroke-width: 2;}
    .thin-line            {stroke: #1F0000; shape-rendering: crispEdges}
    .filled               {fill: #330000; stroke: none;}
    text.terminal         {font-family: Verdana, Sans-serif;
                            font-size: 12px;
                            fill: #140000;
                            font-weight: bold;
                          }
    text.nonterminal      {font-family: Verdana, Sans-serif;
                            font-size: 12px;
                            fill: #1A0000;
                            font-weight: normal;
                          }
    text.regexp           {font-family: Verdana, Sans-serif;
                            font-size: 12px;
                            fill: #1F0000;
                            font-weight: normal;
                          }
    rect, circle, polygon {fill: #330000; stroke: #330000;}
    rect.terminal         {fill: #FF4D4D; stroke: #330000; stroke-width: 1;}
    rect.nonterminal      {fill: #FF9E9E; stroke: #330000; stroke-width: 1;}
    rect.text             {fill: none; stroke: none;}
    polygon.regexp        {fill: #FFC7C7; stroke: #330000; stroke-width: 1;}
  </style>
   </defs>
   <polygon points="9 17 1 13 1 21"/>
   <polygon points="17 17 9 13 9 21"/>
   <rect x="31" y="3" width="62" height="32" rx="10"/>
   <rect x="29"
         y="1"
         width="62"
         height="32"
         class="terminal"
         rx="10"/>
   <text class="terminal" x="39" y="21">ALTER</text>
   <rect x="113" y="3" width="74" height="32" rx="10"/>
   <rect x="111"
         y="1"
         width="74"
         height="32"
         class="terminal"
         rx="10"/>
   <text class="terminal" x="121" y="21">SYSTEM</text>
   <rect x="227" y="3" width="62" height="32" rx="10"/>
   <rect x="225"
         y="1"
         width="62"
         height="32"
         class="terminal"
         rx="10"/>
   <text class="terminal" x="235" y="21">RESET</text>
   <rect x="329" y="3" width="44" height="32" rx="10"/>
   <rect x="327"
         y="1"
         width="44"
         height="32"
         class="terminal"
         rx="10"/>
   <text class="terminal" x="337" y="21">ALL</text>
   <a xmlns:xlink="http://www.w3.org/1999/xlink"
      xlink:href="../object"
      xlink:title="param_name">
      <rect x="329" y="47" width="104" height="32"/>
      <rect x="327" y="45" width="104" height="32" class="nonterminal"/>
      <text class="nonterminal" x="337" y="65">param_name</text>
   </a>
   <rect x="227" y="91" width="44" height="32" rx="10"/>
   <rect x="225"
         y="89"
         width="44"
         height="32"
         class="terminal"
         rx="10"/>
   <text class="terminal" x="235" y="109">SET</text>
   <a xmlns:xlink="http://www.w3.org/1999/xlink"
      xlink:href="../object"
      xlink:title="param_name">
      <rect x="291" y="91" width="104" height="32"/>
      <rect x="289" y="89" width="104" height="32" class="nonterminal"/>
      <text class="nonterminal" x="299" y="109">param_name</text>
   </a>
   <rect x="435" y="91" width="30" height="32" rx="10"/>
   <rect x="433"
         y="89"
         width="30"
         height="32"
         class="terminal"
         rx="10"/>
   <text class="terminal" x="443" y="109">=</text>
   <rect x="435" y="135" width="38" height="32" rx="10"/>
   <rect x="433"
         y="133"
         width="38"
         height="32"
         class="terminal"
         rx="10"/>
   <text class="terminal" x="443" y="153">TO</text>
   <rect x="533" y="91" width="80" height="32" rx="10"/>
   <rect x="531"
         y="89"
         width="80"
         height="32"
         class="terminal"
         rx="10"/>
   <text class="terminal" x="541" y="109">DEFAULT</text>
   <a xmlns:xlink="http://www.w3.org/1999/xlink"
      xlink:href="../../sql_types#text"
      xlink:title="param_value">
      <rect x="533" y="135" width="102" height="32"/>
      <rect x="531" y="133" width="102" height="32" class="nonterminal"/>
      <text class="nonterminal" x="541" y="153">param_value</text>
   </a>
   <rect x="715" y="35" width="48" height="32" rx="10"/>
   <rect x="713"
         y="33"
         width="48"
         height="32"
         class="terminal"
         rx="10"/>
   <text class="terminal" x="723" y="53">FOR</text>
   <rect x="803" y="35" width="44" height="32" rx="10"/>
   <rect x="801"
         y="33"
         width="44"
         height="32"
         class="terminal"
         rx="10"/>
   <text class="terminal" x="811" y="53">ALL</text>
   <rect x="867" y="35" width="60" height="32" rx="10"/>
   <rect x="865"
         y="33"
         width="60"
         height="32"
         class="terminal"
         rx="10"/>
   <text class="terminal" x="875" y="53">TIERS</text>
   <rect x="803" y="79" width="52" height="32" rx="10"/>
   <rect x="801"
         y="77"
         width="52"
         height="32"
         class="terminal"
         rx="10"/>
   <text class="terminal" x="811" y="97">TIER</text>
   <a xmlns:xlink="http://www.w3.org/1999/xlink"
      xlink:href="../object"
      xlink:title="tier">
      <rect x="875" y="79" width="40" height="32"/>
      <rect x="873" y="77" width="40" height="32" class="nonterminal"/>
      <text class="nonterminal" x="883" y="97">tier</text>
   </a>
   <rect x="169" y="221" width="58" height="32" rx="10"/>
   <rect x="167"
         y="219"
         width="58"
         height="32"
         class="terminal"
         rx="10"/>
   <text class="terminal" x="177" y="239">WAIT</text>
   <rect x="247" y="221" width="80" height="32" rx="10"/>
   <rect x="245"
         y="219"
         width="80"
         height="32"
         class="terminal"
         rx="10"/>
   <text class="terminal" x="255" y="239">APPLIED</text>
   <rect x="367" y="221" width="92" height="32" rx="10"/>
   <rect x="365"
         y="219"
         width="92"
         height="32"
         class="terminal"
         rx="10"/>
   <text class="terminal" x="375" y="239">GLOBALLY</text>
   <rect x="367" y="265" width="82" height="32" rx="10"/>
   <rect x="365"
         y="263"
         width="82"
         height="32"
         class="terminal"
         rx="10"/>
   <text class="terminal" x="375" y="283">LOCALLY</text>
   <rect x="539" y="221" width="76" height="32" rx="10"/>
   <rect x="537"
         y="219"
         width="76"
         height="32"
         class="terminal"
         rx="10"/>
   <text class="terminal" x="547" y="239">OPTION</text>
   <rect x="635" y="221" width="26" height="32" rx="10"/>
   <rect x="633"
         y="219"
         width="26"
         height="32"
         class="terminal"
         rx="10"/>
   <text class="terminal" x="643" y="239">(</text>
   <rect x="681" y="221" width="82" height="32" rx="10"/>
   <rect x="679"
         y="219"
         width="82"
         height="32"
         class="terminal"
         rx="10"/>
   <text class="terminal" x="689" y="239">TIMEOUT</text>
   <rect x="783" y="221" width="30" height="32" rx="10"/>
   <rect x="781"
         y="219"
         width="30"
         height="32"
         class="terminal"
         rx="10"/>
   <text class="terminal" x="791" y="239">=</text>
   <a xmlns:xlink="http://www.w3.org/1999/xlink"
      xlink:href="../../sql_types#double"
      xlink:title="double">
      <rect x="833" y="221" width="62" height="32"/>
      <rect x="831" y="219" width="62" height="32" class="nonterminal"/>
      <text class="nonterminal" x="841" y="239">double</text>
   </a>
   <rect x="915" y="221" width="26" height="32" rx="10"/>
   <rect x="913"
         y="219"
         width="26"
         height="32"
         class="terminal"
         rx="10"/>
   <text class="terminal" x="923" y="239">)</text>
   <path class="line"
         d="m17 17 h2 m0 0 h10 m62 0 h10 m0 0 h10 m74 0 h10 m20 0 h10 m62 0 h10 m20 0 h10 m44 0 h10 m0 0 h60 m-144 0 h20 m124 0 h20 m-164 0 q10 0 10 10 m144 0 q0 -10 10 -10 m-154 10 v24 m144 0 v-24 m-144 24 q0 10 10 10 m124 0 q10 0 10 -10 m-134 10 h10 m104 0 h10 m20 -44 h202 m-468 0 h20 m448 0 h20 m-488 0 q10 0 10 10 m468 0 q0 -10 10 -10 m-478 10 v68 m468 0 v-68 m-468 68 q0 10 10 10 m448 0 q10 0 10 -10 m-458 10 h10 m44 0 h10 m0 0 h10 m104 0 h10 m20 0 h10 m30 0 h10 m0 0 h8 m-78 0 h20 m58 0 h20 m-98 0 q10 0 10 10 m78 0 q0 -10 10 -10 m-88 10 v24 m78 0 v-24 m-78 24 q0 10 10 10 m58 0 q10 0 10 -10 m-68 10 h10 m38 0 h10 m40 -44 h10 m80 0 h10 m0 0 h22 m-142 0 h20 m122 0 h20 m-162 0 q10 0 10 10 m142 0 q0 -10 10 -10 m-152 10 v24 m142 0 v-24 m-142 24 q0 10 10 10 m122 0 q10 0 10 -10 m-132 10 h10 m102 0 h10 m60 -132 h10 m0 0 h242 m-272 0 h20 m252 0 h20 m-292 0 q10 0 10 10 m272 0 q0 -10 10 -10 m-282 10 v12 m272 0 v-12 m-272 12 q0 10 10 10 m252 0 q10 0 10 -10 m-262 10 h10 m48 0 h10 m20 0 h10 m44 0 h10 m0 0 h10 m60 0 h10 m-164 0 h20 m144 0 h20 m-184 0 q10 0 10 10 m164 0 q0 -10 10 -10 m-174 10 v24 m164 0 v-24 m-164 24 q0 10 10 10 m144 0 q10 0 10 -10 m-154 10 h10 m52 0 h10 m0 0 h10 m40 0 h10 m0 0 h12 m42 -76 l2 0 m2 0 l2 0 m2 0 l2 0 m-862 186 l2 0 m2 0 l2 0 m2 0 l2 0 m22 0 h10 m0 0 h320 m-350 0 h20 m330 0 h20 m-370 0 q10 0 10 10 m350 0 q0 -10 10 -10 m-360 10 v12 m350 0 v-12 m-350 12 q0 10 10 10 m330 0 q10 0 10 -10 m-340 10 h10 m58 0 h10 m0 0 h10 m80 0 h10 m20 0 h10 m92 0 h10 m-132 0 h20 m112 0 h20 m-152 0 q10 0 10 10 m132 0 q0 -10 10 -10 m-142 10 v24 m132 0 v-24 m-132 24 q0 10 10 10 m112 0 q10 0 10 -10 m-122 10 h10 m82 0 h10 m0 0 h10 m60 -76 h10 m0 0 h412 m-442 0 h20 m422 0 h20 m-462 0 q10 0 10 10 m442 0 q0 -10 10 -10 m-452 10 v12 m442 0 v-12 m-442 12 q0 10 10 10 m422 0 q10 0 10 -10 m-432 10 h10 m76 0 h10 m0 0 h10 m26 0 h10 m0 0 h10 m82 0 h10 m0 0 h10 m30 0 h10 m0 0 h10 m62 0 h10 m0 0 h10 m26 0 h10 m23 -32 h-3"/>
   <polygon points="979 203 987 199 987 207"/>
   <polygon points="979 203 971 199 971 207"/>
</svg>
