<?xml version="1.0" encoding="UTF-8" standalone="no"?>
<svg
   width="817"
   height="325"
   viewBox="0 0 817 325"
   version="1.1"
   id="svg42"
   sodipodi:docname="alter_procedure.svg"
   inkscape:version="1.4.2 (ebf0e940d0, 2025-05-08)"
   xmlns:inkscape="http://www.inkscape.org/namespaces/inkscape"
   xmlns:sodipodi="http://sodipodi.sourceforge.net/DTD/sodipodi-0.dtd"
   xmlns:xlink="http://www.w3.org/1999/xlink"
   xmlns="http://www.w3.org/2000/svg"
   xmlns:svg="http://www.w3.org/2000/svg">
  <sodipodi:namedview
     id="namedview42"
     pagecolor="#ffffff"
     bordercolor="#666666"
     borderopacity="1.0"
     inkscape:showpageshadow="2"
     inkscape:pageopacity="0.0"
     inkscape:pagecheckerboard="0"
     inkscape:deskcolor="#d1d1d1"
     inkscape:zoom="1.0709914"
     inkscape:cx="408.50001"
     inkscape:cy="162.93315"
     inkscape:window-width="1858"
     inkscape:window-height="1014"
     inkscape:window-x="62"
     inkscape:window-y="29"
     inkscape:window-maximized="1"
     inkscape:current-layer="svg42" />
  <defs
     id="defs1">
    <style
       type="text/css"
       id="style1">@namespace &quot;http://www.w3.org/2000/svg&quot;;.line { fill: none; stroke: #330000; stroke-width: 1; }
.bold-line { stroke: #140000; shape-rendering: crispEdges; stroke-width: 2; }
.thin-line { stroke: #1F0000; shape-rendering: crispEdges }
.filled { fill: #330000; stroke: none; }
text.terminal { font-family: Verdana, Sans-serif;                            font-size: 12px;                            fill: #140000;                            font-weight: bold; }
text.nonterminal { font-family: Verdana, Sans-serif;                            font-size: 12px;                            fill: #1A0000;                            font-weight: normal; }
text.regexp { font-family: Verdana, Sans-serif;                            font-size: 12px;                            fill: #1F0000;                            font-weight: normal; }
rect, circle, polygon { fill: #330000; stroke: #330000; }
rect.terminal { fill: #FF4D4D; stroke: #330000; stroke-width: 1; }
rect.nonterminal { fill: #FF9E9E; stroke: #330000; stroke-width: 1; }
rect.text { fill: none; stroke: none; }
polygon.regexp { fill: #FFC7C7; stroke: #330000; stroke-width: 1; }
</style>
  </defs>
  <polygon
     points="9 61 1 57 1 65"
     id="polygon1" />
  <polygon
     points="17 61 9 57 9 65"
     id="polygon2" />
  <rect
     x="31"
     y="47"
     width="62"
     height="32"
     rx="10"
     id="rect2" />
  <rect
     x="29"
     y="45"
     width="62"
     height="32"
     class="terminal"
     rx="10"
     id="rect3" />
  <text
     class="terminal"
     x="39"
     y="65"
     id="text3">ALTER</text>
  <rect
     x="113"
     y="47"
     width="104"
     height="32"
     rx="10"
     id="rect4" />
  <rect
     x="111"
     y="45"
     width="104"
     height="32"
     class="terminal"
     rx="10"
     id="rect5" />
  <text
     class="terminal"
     x="121"
     y="65"
     id="text5">PROCEDURE</text>
  <a
     xlink:href="../object"
     xlink:title="procedure"
     id="a7">
    <rect
       x="237"
       y="47"
       width="84"
       height="32"
       id="rect6" />
    <rect
       x="235"
       y="45"
       width="84"
       height="32"
       class="nonterminal"
       id="rect7" />
    <text
       class="nonterminal"
       x="245"
       y="65"
       id="text7">procedure</text>
  </a>
  <rect
     x="361"
     y="47"
     width="26"
     height="32"
     rx="10"
     id="rect8" />
  <rect
     x="359"
     y="45"
     width="26"
     height="32"
     class="terminal"
     rx="10"
     id="rect9" />
  <text
     class="terminal"
     x="369"
     y="65"
     id="text9">(</text>
  <a
     xlink:href="#unrestricted_type"
     xlink:title="unrestricted_type"
     id="a11">
    <rect
       x="427"
       y="47"
       width="128"
       height="32"
       id="rect10" />
    <rect
       x="425"
       y="45"
       width="128"
       height="32"
       class="nonterminal"
       id="rect11" />
    <text
       class="nonterminal"
       x="435"
       y="65"
       id="text11">unrestricted_type</text>
  </a>
  <rect
     x="427"
     y="3"
     width="24"
     height="32"
     rx="10"
     id="rect12" />
  <rect
     x="425"
     y="1"
     width="24"
     height="32"
     class="terminal"
     rx="10"
     id="rect13" />
  <text
     class="terminal"
     x="435"
     y="21"
     id="text13">,</text>
  <rect
     x="595"
     y="47"
     width="26"
     height="32"
     rx="10"
     id="rect14" />
  <rect
     x="593"
     y="45"
     width="26"
     height="32"
     class="terminal"
     rx="10"
     id="rect15" />
  <text
     class="terminal"
     x="603"
     y="65"
     id="text15">)</text>
  <rect
     x="661"
     y="47"
     width="76"
     height="32"
     rx="10"
     id="rect16" />
  <rect
     x="659"
     y="45"
     width="76"
     height="32"
     class="terminal"
     rx="10"
     id="rect17" />
  <text
     class="terminal"
     x="669"
     y="65"
     id="text17">RENAME</text>
  <rect
     x="757"
     y="47"
     width="38"
     height="32"
     rx="10"
     id="rect18" />
  <rect
     x="755"
     y="45"
     width="38"
     height="32"
     class="terminal"
     rx="10"
     id="rect19" />
  <text
     class="terminal"
     x="765"
     y="65"
     id="text19">TO</text>
  <a
     xlink:href="../object"
     xlink:title="procedure"
     id="a21">
    <rect
       x="183"
       y="129"
       width="84"
       height="32"
       id="rect20" />
    <rect
       x="181"
       y="127"
       width="84"
       height="32"
       class="nonterminal"
       id="rect21" />
    <text
       class="nonterminal"
       x="191"
       y="147"
       id="text21">procedure</text>
  </a>
  <rect
     x="307"
     y="161"
     width="58"
     height="32"
     rx="10"
     id="rect22" />
  <rect
     x="305"
     y="159"
     width="58"
     height="32"
     class="terminal"
     rx="10"
     id="rect23" />
  <text
     class="terminal"
     x="315"
     y="179"
     id="text23">WAIT</text>
  <rect
     x="385"
     y="161"
     width="80"
     height="32"
     rx="10"
     id="rect24" />
  <rect
     x="383"
     y="159"
     width="80"
     height="32"
     class="terminal"
     rx="10"
     id="rect25" />
  <text
     class="terminal"
     x="393"
     y="179"
     id="text25">APPLIED</text>
  <rect
     x="505"
     y="161"
     width="92"
     height="32"
     rx="10"
     id="rect26" />
  <rect
     x="503"
     y="159"
     width="92"
     height="32"
     class="terminal"
     rx="10"
     id="rect27" />
  <text
     class="terminal"
     x="513"
     y="179"
     id="text27">GLOBALLY</text>
  <rect
     x="505"
     y="205"
     width="82"
     height="32"
     rx="10"
     id="rect28" />
  <rect
     x="503"
     y="203"
     width="82"
     height="32"
     class="terminal"
     rx="10"
     id="rect29" />
  <text
     class="terminal"
     x="513"
     y="223"
     id="text29">LOCALLY</text>
  <rect
     x="367"
     y="291"
     width="76"
     height="32"
     rx="10"
     id="rect30" />
  <rect
     x="365"
     y="289"
     width="76"
     height="32"
     class="terminal"
     rx="10"
     id="rect31" />
  <text
     class="terminal"
     x="375"
     y="309"
     id="text31">OPTION</text>
  <rect
     x="463"
     y="291"
     width="26"
     height="32"
     rx="10"
     id="rect32" />
  <rect
     x="461"
     y="289"
     width="26"
     height="32"
     class="terminal"
     rx="10"
     id="rect33" />
  <text
     class="terminal"
     x="471"
     y="309"
     id="text33">(</text>
  <rect
     x="509"
     y="291"
     width="82"
     height="32"
     rx="10"
     id="rect34" />
  <rect
     x="507"
     y="289"
     width="82"
     height="32"
     class="terminal"
     rx="10"
     id="rect35" />
  <text
     class="terminal"
     x="517"
     y="309"
     id="text35">TIMEOUT</text>
  <rect
     x="611"
     y="291"
     width="30"
     height="32"
     rx="10"
     id="rect36" />
  <rect
     x="609"
     y="289"
     width="30"
     height="32"
     class="terminal"
     rx="10"
     id="rect37" />
  <text
     class="terminal"
     x="619"
     y="309"
     id="text37">=</text>
  <a
     xlink:href="../../sql_types#double"
     xlink:title="double"
     id="a39">
    <rect
       x="661"
       y="291"
       width="62"
       height="32"
       id="rect38" />
    <rect
       x="659"
       y="289"
       width="62"
       height="32"
       class="nonterminal"
       id="rect39" />
    <text
       class="nonterminal"
       x="669"
       y="309"
       id="text39">double</text>
  </a>
  <rect
     x="743"
     y="291"
     width="26"
     height="32"
     rx="10"
     id="rect40" />
  <rect
     x="741"
     y="289"
     width="26"
     height="32"
     class="terminal"
     rx="10"
     id="rect41" />
  <text
     class="terminal"
     x="751"
     y="309"
     id="text41">)</text>
  <path
     class="line"
     d="m17 61 h2 m0 0 h10 m62 0 h10 m0 0 h10 m104 0 h10 m0 0 h10 m84 0 h10 m20 0 h10 m26 0 h10 m20 0 h10 m128 0 h10 m-168 0 l20 0 m-1 0 q-9 0 -9 -10 l0 -24 q0 -10 10 -10 m148 44 l20 0 m-20 0 q10 0 10 -10 l0 -24 q0 -10 -10 -10 m-148 0 h10 m24 0 h10 m0 0 h104 m20 44 h10 m26 0 h10 m-300 0 h20 m280 0 h20 m-320 0 q10 0 10 10 m300 0 q0 -10 10 -10 m-310 10 v14 m300 0 v-14 m-300 14 q0 10 10 10 m280 0 q10 0 10 -10 m-290 10 h10 m0 0 h270 m20 -34 h10 m76 0 h10 m0 0 h10 m38 0 h10 m2 0 l2 0 m2 0 l2 0 m2 0 l2 0 m-656 82 l2 0 m2 0 l2 0 m2 0 l2 0 m2 0 h10 m84 0 h10 m20 0 h10 m0 0 h320 m-350 0 h20 m330 0 h20 m-370 0 q10 0 10 10 m350 0 q0 -10 10 -10 m-360 10 v12 m350 0 v-12 m-350 12 q0 10 10 10 m330 0 q10 0 10 -10 m-340 10 h10 m58 0 h10 m0 0 h10 m80 0 h10 m20 0 h10 m92 0 h10 m-132 0 h20 m112 0 h20 m-152 0 q10 0 10 10 m132 0 q0 -10 10 -10 m-142 10 v24 m132 0 v-24 m-132 24 q0 10 10 10 m112 0 q10 0 10 -10 m-122 10 h10 m82 0 h10 m0 0 h10 m42 -76 l2 0 m2 0 l2 0 m2 0 l2 0 m-334 130 l2 0 m2 0 l2 0 m2 0 l2 0 m22 0 h10 m0 0 h412 m-442 0 h20 m422 0 h20 m-462 0 q10 0 10 10 m442 0 q0 -10 10 -10 m-452 10 v12 m442 0 v-12 m-442 12 q0 10 10 10 m422 0 q10 0 10 -10 m-432 10 h10 m76 0 h10 m0 0 h10 m26 0 h10 m0 0 h10 m82 0 h10 m0 0 h10 m30 0 h10 m0 0 h10 m62 0 h10 m0 0 h10 m26 0 h10 m23 -32 h-3"
     id="path41" />
  <polygon
     points="807 273 815 269 815 277"
     id="polygon41" />
  <polygon
     points="807 273 799 269 799 277"
     id="polygon42" />
</svg>
