<?xml version="1.0" encoding="UTF-8" standalone="no"?>
<svg
   width="1685"
   height="411"
   version="1.1"
   id="svg76"
   viewBox="0 0 1685 411"
   sodipodi:docname="alter_system.svg"
   inkscape:version="1.4.4 (dcaf3e7d9e, 2026-05-05)"
   xmlns:inkscape="http://www.inkscape.org/namespaces/inkscape"
   xmlns:sodipodi="http://sodipodi.sourceforge.net/DTD/sodipodi-0.dtd"
   xmlns:xlink="http://www.w3.org/1999/xlink"
   xmlns="http://www.w3.org/2000/svg"
   xmlns:svg="http://www.w3.org/2000/svg">
  <sodipodi:namedview
     id="namedview76"
     pagecolor="#ffffff"
     bordercolor="#666666"
     borderopacity="1.0"
     inkscape:showpageshadow="2"
     inkscape:pageopacity="0.0"
     inkscape:pagecheckerboard="0"
     inkscape:deskcolor="#d1d1d1"
     inkscape:zoom="0.71759798"
     inkscape:cx="650.08544"
     inkscape:cy="131.68933"
     inkscape:window-width="1920"
     inkscape:window-height="988"
     inkscape:window-x="0"
     inkscape:window-y="0"
     inkscape:window-maximized="1"
     inkscape:current-layer="svg76" />
  <defs
     id="defs1">
    <style
       type="text/css"
       id="style1">
    @namespace &quot;http://www.w3.org/2000/svg&quot;;
    .line                 {fill: none; stroke: #330000; stroke-width: 1;}
    .bold-line            {stroke: #140000; shape-rendering: crispEdges; stroke-width: 2;}
    .thin-line            {stroke: #1F0000; shape-rendering: crispEdges}
    .filled               {fill: #330000; stroke: none;}
    text.terminal         {font-family: Verdana, Sans-serif;
                            font-size: 12px;
                            fill: #140000;
                            font-weight: bold;
                          }
    text.nonterminal      {font-family: Verdana, Sans-serif;
                            font-size: 12px;
                            fill: #1A0000;
                            font-weight: normal;
                          }
    text.regexp           {font-family: Verdana, Sans-serif;
                            font-size: 12px;
                            fill: #1F0000;
                            font-weight: normal;
                          }
    rect, circle, polygon {fill: #330000; stroke: #330000;}
    rect.terminal         {fill: #FF4D4D; stroke: #330000; stroke-width: 1;}
    rect.nonterminal      {fill: #FF9E9E; stroke: #330000; stroke-width: 1;}
    rect.text             {fill: none; stroke: none;}
    polygon.regexp        {fill: #FFC7C7; stroke: #330000; stroke-width: 1;}
  </style>
  </defs>
  <polygon
     points="11 17 3 13 3 21"
     id="polygon1" />
  <polygon
     points="19 17 11 13 11 21"
     id="polygon2" />
  <rect
     x="33"
     y="3"
     width="62"
     height="32"
     rx="10"
     id="rect2" />
  <rect
     x="31"
     y="1"
     width="62"
     height="32"
     class="terminal"
     rx="10"
     id="rect3" />
  <text
     class="terminal"
     x="41"
     y="21"
     id="text3">ALTER</text>
  <rect
     x="115"
     y="3"
     width="74"
     height="32"
     rx="10"
     id="rect4" />
  <rect
     x="113"
     y="1"
     width="74"
     height="32"
     class="terminal"
     rx="10"
     id="rect5" />
  <text
     class="terminal"
     x="123"
     y="21"
     id="text5">SYSTEM</text>
  <rect
     x="65"
     y="69"
     width="62"
     height="32"
     rx="10"
     id="rect6" />
  <rect
     x="63"
     y="67"
     width="62"
     height="32"
     class="terminal"
     rx="10"
     id="rect7" />
  <text
     class="terminal"
     x="73"
     y="87"
     id="text7">RESET</text>
  <rect
     x="167"
     y="69"
     width="44"
     height="32"
     rx="10"
     id="rect8" />
  <rect
     x="165"
     y="67"
     width="44"
     height="32"
     class="terminal"
     rx="10"
     id="rect9" />
  <text
     class="terminal"
     x="175"
     y="87"
     id="text9">ALL</text>
  <a
     xlink:href="../object"
     xlink:title="param_name"
     id="a11">
    <rect
       x="167"
       y="113"
       width="104"
       height="32"
       id="rect10" />
    <rect
       x="165"
       y="111"
       width="104"
       height="32"
       class="nonterminal"
       id="rect11" />
    <text
       class="nonterminal"
       x="175"
       y="131"
       id="text11">param_name</text>
  </a>
  <rect
     x="65"
     y="157"
     width="44"
     height="32"
     rx="10"
     id="rect12" />
  <rect
     x="63"
     y="155"
     width="44"
     height="32"
     class="terminal"
     rx="10"
     id="rect13" />
  <text
     class="terminal"
     x="73"
     y="175"
     id="text13">SET</text>
  <a
     xlink:href="../object"
     xlink:title="param_name"
     id="a15">
    <rect
       x="129"
       y="157"
       width="104"
       height="32"
       id="rect14" />
    <rect
       x="127"
       y="155"
       width="104"
       height="32"
       class="nonterminal"
       id="rect15" />
    <text
       class="nonterminal"
       x="137"
       y="175"
       id="text15">param_name</text>
  </a>
  <rect
     x="273"
     y="157"
     width="30"
     height="32"
     rx="10"
     id="rect16" />
  <rect
     x="271"
     y="155"
     width="30"
     height="32"
     class="terminal"
     rx="10"
     id="rect17" />
  <text
     class="terminal"
     x="281"
     y="175"
     id="text17">=</text>
  <rect
     x="273"
     y="201"
     width="38"
     height="32"
     rx="10"
     id="rect18" />
  <rect
     x="271"
     y="199"
     width="38"
     height="32"
     class="terminal"
     rx="10"
     id="rect19" />
  <text
     class="terminal"
     x="281"
     y="219"
     id="text19">TO</text>
  <rect
     x="371"
     y="157"
     width="80"
     height="32"
     rx="10"
     id="rect20" />
  <rect
     x="369"
     y="155"
     width="80"
     height="32"
     class="terminal"
     rx="10"
     id="rect21" />
  <text
     class="terminal"
     x="379"
     y="175"
     id="text21">DEFAULT</text>
  <a
     xlink:href="../../sql_types#text"
     xlink:title="param_value"
     id="a23">
    <rect
       x="371"
       y="201"
       width="102"
       height="32"
       id="rect22" />
    <rect
       x="369"
       y="199"
       width="102"
       height="32"
       class="nonterminal"
       id="rect23" />
    <text
       class="nonterminal"
       x="379"
       y="219"
       id="text23">param_value</text>
  </a>
  <rect
     x="553"
     y="101"
     width="48"
     height="32"
     rx="10"
     id="rect24" />
  <rect
     x="551"
     y="99"
     width="48"
     height="32"
     class="terminal"
     rx="10"
     id="rect25" />
  <text
     class="terminal"
     x="561"
     y="119"
     id="text25">FOR</text>
  <rect
     x="641"
     y="101"
     width="44"
     height="32"
     rx="10"
     id="rect26" />
  <rect
     x="639"
     y="99"
     width="44"
     height="32"
     class="terminal"
     rx="10"
     id="rect27" />
  <text
     class="terminal"
     x="649"
     y="119"
     id="text27">ALL</text>
  <rect
     x="705"
     y="101"
     width="60"
     height="32"
     rx="10"
     id="rect28" />
  <rect
     x="703"
     y="99"
     width="60"
     height="32"
     class="terminal"
     rx="10"
     id="rect29" />
  <text
     class="terminal"
     x="713"
     y="119"
     id="text29">TIERS</text>
  <rect
     x="641"
     y="145"
     width="52"
     height="32"
     rx="10"
     id="rect30" />
  <rect
     x="639"
     y="143"
     width="52"
     height="32"
     class="terminal"
     rx="10"
     id="rect31" />
  <text
     class="terminal"
     x="649"
     y="163"
     id="text31">TIER</text>
  <a
     xlink:href="../object"
     xlink:title="tier"
     id="a33">
    <rect
       x="713"
       y="145"
       width="40"
       height="32"
       id="rect32" />
    <rect
       x="711"
       y="143"
       width="40"
       height="32"
       class="nonterminal"
       id="rect33" />
    <text
       class="nonterminal"
       x="721"
       y="163"
       id="text33">tier</text>
  </a>
  <rect
     x="845"
     y="101"
     width="58"
     height="32"
     rx="10"
     id="rect34" />
  <rect
     x="843"
     y="99"
     width="58"
     height="32"
     class="terminal"
     rx="10"
     id="rect35" />
  <text
     class="terminal"
     x="853"
     y="119"
     id="text35">WAIT</text>
  <rect
     x="923"
     y="101"
     width="80"
     height="32"
     rx="10"
     id="rect36" />
  <rect
     x="921"
     y="99"
     width="80"
     height="32"
     class="terminal"
     rx="10"
     id="rect37" />
  <text
     class="terminal"
     x="931"
     y="119"
     id="text37">APPLIED</text>
  <rect
     x="1043"
     y="101"
     width="92"
     height="32"
     rx="10"
     id="rect38" />
  <rect
     x="1041"
     y="99"
     width="92"
     height="32"
     class="terminal"
     rx="10"
     id="rect39" />
  <text
     class="terminal"
     x="1051"
     y="119"
     id="text39">GLOBALLY</text>
  <rect
     x="1043"
     y="145"
     width="82"
     height="32"
     rx="10"
     id="rect40" />
  <rect
     x="1041"
     y="143"
     width="82"
     height="32"
     class="terminal"
     rx="10"
     id="rect41" />
  <text
     class="terminal"
     x="1051"
     y="163"
     id="text41">LOCALLY</text>
  <rect
     x="1215"
     y="101"
     width="76"
     height="32"
     rx="10"
     id="rect42" />
  <rect
     x="1213"
     y="99"
     width="76"
     height="32"
     class="terminal"
     rx="10"
     id="rect43" />
  <text
     class="terminal"
     x="1223"
     y="119"
     id="text43">OPTION</text>
  <rect
     x="1311"
     y="101"
     width="26"
     height="32"
     rx="10"
     id="rect44" />
  <rect
     x="1309"
     y="99"
     width="26"
     height="32"
     class="terminal"
     rx="10"
     id="rect45" />
  <text
     class="terminal"
     x="1319"
     y="119"
     id="text45">(</text>
  <rect
     x="1357"
     y="101"
     width="82"
     height="32"
     rx="10"
     id="rect46" />
  <rect
     x="1355"
     y="99"
     width="82"
     height="32"
     class="terminal"
     rx="10"
     id="rect47" />
  <text
     class="terminal"
     x="1365"
     y="119"
     id="text47">TIMEOUT</text>
  <rect
     x="1459"
     y="101"
     width="30"
     height="32"
     rx="10"
     id="rect48" />
  <rect
     x="1457"
     y="99"
     width="30"
     height="32"
     class="terminal"
     rx="10"
     id="rect49" />
  <text
     class="terminal"
     x="1467"
     y="119"
     id="text49">=</text>
  <a
     xlink:href="../../sql_types#double"
     xlink:title="double"
     id="a51">
    <rect
       x="1509"
       y="101"
       width="62"
       height="32"
       id="rect50" />
    <rect
       x="1507"
       y="99"
       width="62"
       height="32"
       class="nonterminal"
       id="rect51" />
    <text
       class="nonterminal"
       x="1517"
       y="119"
       id="text51">double</text>
  </a>
  <rect
     x="1591"
     y="101"
     width="26"
     height="32"
     rx="10"
     id="rect52" />
  <rect
     x="1589"
     y="99"
     width="26"
     height="32"
     class="terminal"
     rx="10"
     id="rect53" />
  <text
     class="terminal"
     x="1599"
     y="119"
     id="text53">)</text>
  <rect
     x="45"
     y="245"
     width="62"
     height="32"
     rx="10"
     id="rect54" />
  <rect
     x="43"
     y="243"
     width="62"
     height="32"
     class="terminal"
     rx="10"
     id="rect55" />
  <text
     class="terminal"
     x="53"
     y="263"
     id="text55">RESET</text>
  <rect
     x="127"
     y="245"
     width="64"
     height="32"
     rx="10"
     id="rect56" />
  <rect
     x="125"
     y="243"
     width="64"
     height="32"
     class="terminal"
     rx="10"
     id="rect57" />
  <text
     class="terminal"
     x="135"
     y="263"
     id="text57">LOCAL</text>
  <rect
     x="231"
     y="245"
     width="44"
     height="32"
     rx="10"
     id="rect58" />
  <rect
     x="229"
     y="243"
     width="44"
     height="32"
     class="terminal"
     rx="10"
     id="rect59" />
  <text
     class="terminal"
     x="239"
     y="263"
     id="text59">ALL</text>
  <a
     xlink:href="../object"
     xlink:title="param_name"
     id="a61">
    <rect
       x="231"
       y="289"
       width="104"
       height="32"
       id="rect60" />
    <rect
       x="229"
       y="287"
       width="104"
       height="32"
       class="nonterminal"
       id="rect61" />
    <text
       class="nonterminal"
       x="239"
       y="307"
       id="text61">param_name</text>
  </a>
  <rect
     x="45"
     y="333"
     width="44"
     height="32"
     rx="10"
     id="rect62" />
  <rect
     x="43"
     y="331"
     width="44"
     height="32"
     class="terminal"
     rx="10"
     id="rect63" />
  <text
     class="terminal"
     x="53"
     y="351"
     id="text63">SET</text>
  <rect
     x="109"
     y="333"
     width="64"
     height="32"
     rx="10"
     id="rect64" />
  <rect
     x="107"
     y="331"
     width="64"
     height="32"
     class="terminal"
     rx="10"
     id="rect65" />
  <text
     class="terminal"
     x="117"
     y="351"
     id="text65">LOCAL</text>
  <a
     xlink:href="../object"
     xlink:title="param_name"
     id="a67">
    <rect
       x="193"
       y="333"
       width="104"
       height="32"
       id="rect66" />
    <rect
       x="191"
       y="331"
       width="104"
       height="32"
       class="nonterminal"
       id="rect67" />
    <text
       class="nonterminal"
       x="201"
       y="351"
       id="text67">param_name</text>
  </a>
  <rect
     x="337"
     y="333"
     width="30"
     height="32"
     rx="10"
     id="rect68" />
  <rect
     x="335"
     y="331"
     width="30"
     height="32"
     class="terminal"
     rx="10"
     id="rect69" />
  <text
     class="terminal"
     x="345"
     y="351"
     id="text69">=</text>
  <rect
     x="337"
     y="377"
     width="38"
     height="32"
     rx="10"
     id="rect70" />
  <rect
     x="335"
     y="375"
     width="38"
     height="32"
     class="terminal"
     rx="10"
     id="rect71" />
  <text
     class="terminal"
     x="345"
     y="395"
     id="text71">TO</text>
  <rect
     x="435"
     y="333"
     width="80"
     height="32"
     rx="10"
     id="rect72" />
  <rect
     x="433"
     y="331"
     width="80"
     height="32"
     class="terminal"
     rx="10"
     id="rect73" />
  <text
     class="terminal"
     x="443"
     y="351"
     id="text73">DEFAULT</text>
  <a
     xlink:href="../../sql_types#text"
     xlink:title="param_value"
     id="a75">
    <rect
       x="435"
       y="377"
       width="102"
       height="32"
       id="rect74" />
    <rect
       x="433"
       y="375"
       width="102"
       height="32"
       class="nonterminal"
       id="rect75" />
    <text
       class="nonterminal"
       x="443"
       y="395"
       id="text75">param_value</text>
  </a>
  <path
     class="line"
     d="m19 17 h2 m0 0 h10 m62 0 h10 m0 0 h10 m74 0 h10 m2 0 l2 0 m2 0 l2 0 m2 0 l2 0 m-208 66 l2 0 m2 0 l2 0 m2 0 l2 0 m42 0 h10 m62 0 h10 m20 0 h10 m44 0 h10 m0 0 h60 m-144 0 h20 m124 0 h20 m-164 0 q10 0 10 10 m144 0 q0 -10 10 -10 m-154 10 v24 m144 0 v-24 m-144 24 q0 10 10 10 m124 0 q10 0 10 -10 m-134 10 h10 m104 0 h10 m20 -44 h202 m-468 0 h20 m448 0 h20 m-488 0 q10 0 10 10 m468 0 q0 -10 10 -10 m-478 10 v68 m468 0 v-68 m-468 68 q0 10 10 10 m448 0 q10 0 10 -10 m-458 10 h10 m44 0 h10 m0 0 h10 m104 0 h10 m20 0 h10 m30 0 h10 m0 0 h8 m-78 0 h20 m58 0 h20 m-98 0 q10 0 10 10 m78 0 q0 -10 10 -10 m-88 10 v24 m78 0 v-24 m-78 24 q0 10 10 10 m58 0 q10 0 10 -10 m-68 10 h10 m38 0 h10 m40 -44 h10 m80 0 h10 m0 0 h22 m-142 0 h20 m122 0 h20 m-162 0 q10 0 10 10 m142 0 q0 -10 10 -10 m-152 10 v24 m142 0 v-24 m-142 24 q0 10 10 10 m122 0 q10 0 10 -10 m-132 10 h10 m102 0 h10 m60 -132 h10 m0 0 h242 m-272 0 h20 m252 0 h20 m-292 0 q10 0 10 10 m272 0 q0 -10 10 -10 m-282 10 v12 m272 0 v-12 m-272 12 q0 10 10 10 m252 0 q10 0 10 -10 m-262 10 h10 m48 0 h10 m20 0 h10 m44 0 h10 m0 0 h10 m60 0 h10 m-164 0 h20 m144 0 h20 m-184 0 q10 0 10 10 m164 0 q0 -10 10 -10 m-174 10 v24 m164 0 v-24 m-164 24 q0 10 10 10 m144 0 q10 0 10 -10 m-154 10 h10 m52 0 h10 m0 0 h10 m40 0 h10 m0 0 h12 m60 -76 h10 m0 0 h320 m-350 0 h20 m330 0 h20 m-370 0 q10 0 10 10 m350 0 q0 -10 10 -10 m-360 10 v12 m350 0 v-12 m-350 12 q0 10 10 10 m330 0 q10 0 10 -10 m-340 10 h10 m58 0 h10 m0 0 h10 m80 0 h10 m20 0 h10 m92 0 h10 m-132 0 h20 m112 0 h20 m-152 0 q10 0 10 10 m132 0 q0 -10 10 -10 m-142 10 v24 m132 0 v-24 m-132 24 q0 10 10 10 m112 0 q10 0 10 -10 m-122 10 h10 m82 0 h10 m0 0 h10 m60 -76 h10 m0 0 h412 m-442 0 h20 m422 0 h20 m-462 0 q10 0 10 10 m442 0 q0 -10 10 -10 m-452 10 v12 m442 0 v-12 m-442 12 q0 10 10 10 m422 0 q10 0 10 -10 m-432 10 h10 m76 0 h10 m0 0 h10 m26 0 h10 m0 0 h10 m82 0 h10 m0 0 h10 m30 0 h10 m0 0 h10 m62 0 h10 m0 0 h10 m26 0 h10 m-1612 -32 h20 m1612 0 h20 m-1652 0 q10 0 10 10 m1632 0 q0 -10 10 -10 m-1642 10 v156 m1632 0 v-156 m-1632 156 q0 10 10 10 m1612 0 q10 0 10 -10 m-1622 10 h10 m62 0 h10 m0 0 h10 m64 0 h10 m20 0 h10 m44 0 h10 m0 0 h60 m-144 0 h20 m124 0 h20 m-164 0 q10 0 10 10 m144 0 q0 -10 10 -10 m-154 10 v24 m144 0 v-24 m-144 24 q0 10 10 10 m124 0 q10 0 10 -10 m-134 10 h10 m104 0 h10 m20 -44 h1282 m-1622 -10 v20 m1632 0 v-20 m-1632 20 v68 m1632 0 v-68 m-1632 68 q0 10 10 10 m1612 0 q10 0 10 -10 m-1622 10 h10 m44 0 h10 m0 0 h10 m64 0 h10 m0 0 h10 m104 0 h10 m20 0 h10 m30 0 h10 m0 0 h8 m-78 0 h20 m58 0 h20 m-98 0 q10 0 10 10 m78 0 q0 -10 10 -10 m-88 10 v24 m78 0 v-24 m-78 24 q0 10 10 10 m58 0 q10 0 10 -10 m-68 10 h10 m38 0 h10 m40 -44 h10 m80 0 h10 m0 0 h22 m-142 0 h20 m122 0 h20 m-162 0 q10 0 10 10 m142 0 q0 -10 10 -10 m-152 10 v24 m142 0 v-24 m-142 24 q0 10 10 10 m122 0 q10 0 10 -10 m-132 10 h10 m102 0 h10 m20 -44 h1080 m23 -264 h-3"
     id="path75" />
  <polygon
     points="1675 83 1683 79 1683 87"
     id="polygon75" />
  <polygon
     points="1675 83 1667 79 1667 87"
     id="polygon76" />
</svg>
