<?xml version="1.0" encoding="UTF-8" standalone="no"?>
<svg
   width="495"
   height="167"
   viewBox="0 0 495 167"
   version="1.1"
   id="svg26"
   sodipodi:docname="audit_policy.svg"
   inkscape:version="1.4.2 (ebf0e940d0, 2025-05-08)"
   xmlns:inkscape="http://www.inkscape.org/namespaces/inkscape"
   xmlns:sodipodi="http://sodipodi.sourceforge.net/DTD/sodipodi-0.dtd"
   xmlns:xlink="http://www.w3.org/1999/xlink"
   xmlns="http://www.w3.org/2000/svg"
   xmlns:svg="http://www.w3.org/2000/svg">
  <sodipodi:namedview
     id="namedview26"
     pagecolor="#ffffff"
     bordercolor="#666666"
     borderopacity="1.0"
     inkscape:showpageshadow="2"
     inkscape:pageopacity="0.0"
     inkscape:pagecheckerboard="0"
     inkscape:deskcolor="#d1d1d1"
     inkscape:zoom="1.7838384"
     inkscape:cx="247.5"
     inkscape:cy="83.247452"
     inkscape:window-width="1858"
     inkscape:window-height="1014"
     inkscape:window-x="62"
     inkscape:window-y="29"
     inkscape:window-maximized="1"
     inkscape:current-layer="svg26" />
  <defs
     id="defs1">
    <style
       type="text/css"
       id="style1">@namespace &quot;http://www.w3.org/2000/svg&quot;;.line { fill: none; stroke: #330000; stroke-width: 1; }
.bold-line { stroke: #140000; shape-rendering: crispEdges; stroke-width: 2; }
.thin-line { stroke: #1F0000; shape-rendering: crispEdges }
.filled { fill: #330000; stroke: none; }
text.terminal { font-family: Verdana, Sans-serif;                            font-size: 12px;                            fill: #140000;                            font-weight: bold; }
text.nonterminal { font-family: Verdana, Sans-serif;                            font-size: 12px;                            fill: #1A0000;                            font-weight: normal; }
text.regexp { font-family: Verdana, Sans-serif;                            font-size: 12px;                            fill: #1F0000;                            font-weight: normal; }
rect, circle, polygon { fill: #330000; stroke: #330000; }
rect.terminal { fill: #FF4D4D; stroke: #330000; stroke-width: 1; }
rect.nonterminal { fill: #FF9E9E; stroke: #330000; stroke-width: 1; }
rect.text { fill: none; stroke: none; }
polygon.regexp { fill: #FFC7C7; stroke: #330000; stroke-width: 1; }
</style>
  </defs>
  <polygon
     points="11 17 3 13 3 21"
     id="polygon1" />
  <polygon
     points="19 17 11 13 11 21"
     id="polygon2" />
  <rect
     x="33"
     y="3"
     width="64"
     height="32"
     rx="10"
     id="rect2" />
  <rect
     x="31"
     y="1"
     width="64"
     height="32"
     class="terminal"
     rx="10"
     id="rect3" />
  <text
     class="terminal"
     x="41"
     y="21"
     id="text3">AUDIT</text>
  <rect
     x="117"
     y="3"
     width="72"
     height="32"
     rx="10"
     id="rect4" />
  <rect
     x="115"
     y="1"
     width="72"
     height="32"
     class="terminal"
     rx="10"
     id="rect5" />
  <text
     class="terminal"
     x="125"
     y="21"
     id="text5">POLICY</text>
  <a
     xlink:href="../object"
     xlink:title="policy"
     id="a7">
    <rect
       x="209"
       y="3"
       width="56"
       height="32"
       id="rect6" />
    <rect
       x="207"
       y="1"
       width="56"
       height="32"
       class="nonterminal"
       id="rect7" />
    <text
       class="nonterminal"
       x="217"
       y="21"
       id="text7">policy</text>
  </a>
  <rect
     x="305"
     y="3"
     width="38"
     height="32"
     rx="10"
     id="rect8" />
  <rect
     x="303"
     y="1"
     width="38"
     height="32"
     class="terminal"
     rx="10"
     id="rect9" />
  <text
     class="terminal"
     x="313"
     y="21"
     id="text9">BY</text>
  <rect
     x="305"
     y="47"
     width="72"
     height="32"
     rx="10"
     id="rect10" />
  <rect
     x="303"
     y="45"
     width="72"
     height="32"
     class="terminal"
     rx="10"
     id="rect11" />
  <text
     class="terminal"
     x="313"
     y="65"
     id="text11">EXCEPT</text>
  <a
     xlink:href="../object"
     xlink:title="user"
     id="a13">
    <rect
       x="417"
       y="3"
       width="48"
       height="32"
       id="rect12" />
    <rect
       x="415"
       y="1"
       width="48"
       height="32"
       class="nonterminal"
       id="rect13" />
    <text
       class="nonterminal"
       x="425"
       y="21"
       id="text13">user</text>
  </a>
  <rect
     x="45"
     y="133"
     width="76"
     height="32"
     rx="10"
     id="rect14" />
  <rect
     x="43"
     y="131"
     width="76"
     height="32"
     class="terminal"
     rx="10"
     id="rect15" />
  <text
     class="terminal"
     x="53"
     y="151"
     id="text15">OPTION</text>
  <rect
     x="141"
     y="133"
     width="26"
     height="32"
     rx="10"
     id="rect16" />
  <rect
     x="139"
     y="131"
     width="26"
     height="32"
     class="terminal"
     rx="10"
     id="rect17" />
  <text
     class="terminal"
     x="149"
     y="151"
     id="text17">(</text>
  <rect
     x="187"
     y="133"
     width="82"
     height="32"
     rx="10"
     id="rect18" />
  <rect
     x="185"
     y="131"
     width="82"
     height="32"
     class="terminal"
     rx="10"
     id="rect19" />
  <text
     class="terminal"
     x="195"
     y="151"
     id="text19">TIMEOUT</text>
  <rect
     x="289"
     y="133"
     width="30"
     height="32"
     rx="10"
     id="rect20" />
  <rect
     x="287"
     y="131"
     width="30"
     height="32"
     class="terminal"
     rx="10"
     id="rect21" />
  <text
     class="terminal"
     x="297"
     y="151"
     id="text21">=</text>
  <a
     xlink:href="../../sql_types#double"
     xlink:title="double"
     id="a23">
    <rect
       x="339"
       y="133"
       width="62"
       height="32"
       id="rect22" />
    <rect
       x="337"
       y="131"
       width="62"
       height="32"
       class="nonterminal"
       id="rect23" />
    <text
       class="nonterminal"
       x="347"
       y="151"
       id="text23">double</text>
  </a>
  <rect
     x="421"
     y="133"
     width="26"
     height="32"
     rx="10"
     id="rect24" />
  <rect
     x="419"
     y="131"
     width="26"
     height="32"
     class="terminal"
     rx="10"
     id="rect25" />
  <text
     class="terminal"
     x="429"
     y="151"
     id="text25">)</text>
  <path
     class="line"
     d="m19 17 h2 m0 0 h10 m64 0 h10 m0 0 h10 m72 0 h10 m0 0 h10 m56 0 h10 m20 0 h10 m38 0 h10 m0 0 h34 m-112 0 h20 m92 0 h20 m-132 0 q10 0 10 10 m112 0 q0 -10 10 -10 m-122 10 v24 m112 0 v-24 m-112 24 q0 10 10 10 m92 0 q10 0 10 -10 m-102 10 h10 m72 0 h10 m20 -44 h10 m48 0 h10 m2 0 l2 0 m2 0 l2 0 m2 0 l2 0 m-484 98 l2 0 m2 0 l2 0 m2 0 l2 0 m22 0 h10 m0 0 h412 m-442 0 h20 m422 0 h20 m-462 0 q10 0 10 10 m442 0 q0 -10 10 -10 m-452 10 v12 m442 0 v-12 m-442 12 q0 10 10 10 m422 0 q10 0 10 -10 m-432 10 h10 m76 0 h10 m0 0 h10 m26 0 h10 m0 0 h10 m82 0 h10 m0 0 h10 m30 0 h10 m0 0 h10 m62 0 h10 m0 0 h10 m26 0 h10 m23 -32 h-3"
     id="path25" />
  <polygon
     points="485 115 493 111 493 119"
     id="polygon25" />
  <polygon
     points="485 115 477 111 477 119"
     id="polygon26" />
</svg>
