<?xml version="1.0" encoding="UTF-8"?>
<svg xmlns="http://www.w3.org/2000/svg" width="855" height="199" viewBox="0 0 855 199">
   <defs>
      <style type="text/css">
    @namespace "http://www.w3.org/2000/svg";
    .line                 {fill: none; stroke: #330000; stroke-width: 1;}
    .bold-line            {stroke: #140000; shape-rendering: crispEdges; stroke-width: 2;}
    .thin-line            {stroke: #1F0000; shape-rendering: crispEdges}
    .filled               {fill: #330000; stroke: none;}
    text.terminal         {font-family: Verdana, Sans-serif;
                            font-size: 12px;
                            fill: #140000;
                            font-weight: bold;
                          }
    text.nonterminal      {font-family: Verdana, Sans-serif;
                            font-size: 12px;
                            fill: #1A0000;
                            font-weight: normal;
                          }
    text.regexp           {font-family: Verdana, Sans-serif;
                            font-size: 12px;
                            fill: #1F0000;
                            font-weight: normal;
                          }
    rect, circle, polygon {fill: #330000; stroke: #330000;}
    rect.terminal         {fill: #FF4D4D; stroke: #330000; stroke-width: 1;}
    rect.nonterminal      {fill: #FF9E9E; stroke: #330000; stroke-width: 1;}
    rect.text             {fill: none; stroke: none;}
    polygon.regexp        {fill: #FFC7C7; stroke: #330000; stroke-width: 1;}
  </style>
   </defs>
   <polygon points="9 17 1 13 1 21"/>
   <polygon points="17 17 9 13 9 21"/>
   <rect x="31" y="3" width="64" height="32" rx="10"/>
   <rect x="29"
         y="1"
         width="64"
         height="32"
         class="terminal"
         rx="10"/>
   <text class="terminal" x="39" y="21">AUDIT</text>
   <rect x="115" y="3" width="72" height="32" rx="10"/>
   <rect x="113"
         y="1"
         width="72"
         height="32"
         class="terminal"
         rx="10"/>
   <text class="terminal" x="123" y="21">POLICY</text>
   <a xmlns:xlink="http://www.w3.org/1999/xlink"
      xlink:href="../object"
      xlink:title="policy">
      <rect x="207" y="3" width="56" height="32"/>
      <rect x="205" y="1" width="56" height="32" class="nonterminal"/>
      <text class="nonterminal" x="215" y="21">policy</text>
   </a>
   <rect x="303" y="3" width="38" height="32" rx="10"/>
   <rect x="301"
         y="1"
         width="38"
         height="32"
         class="terminal"
         rx="10"/>
   <text class="terminal" x="311" y="21">BY</text>
   <rect x="303" y="47" width="72" height="32" rx="10"/>
   <rect x="301"
         y="45"
         width="72"
         height="32"
         class="terminal"
         rx="10"/>
   <text class="terminal" x="311" y="65">EXCEPT</text>
   <a xmlns:xlink="http://www.w3.org/1999/xlink"
      xlink:href="../object"
      xlink:title="user">
      <rect x="415" y="3" width="48" height="32"/>
      <rect x="413" y="1" width="48" height="32" class="nonterminal"/>
      <text class="nonterminal" x="423" y="21">user</text>
   </a>
   <rect x="503" y="35" width="58" height="32" rx="10"/>
   <rect x="501"
         y="33"
         width="58"
         height="32"
         class="terminal"
         rx="10"/>
   <text class="terminal" x="511" y="53">WAIT</text>
   <rect x="581" y="35" width="80" height="32" rx="10"/>
   <rect x="579"
         y="33"
         width="80"
         height="32"
         class="terminal"
         rx="10"/>
   <text class="terminal" x="589" y="53">APPLIED</text>
   <rect x="701" y="35" width="92" height="32" rx="10"/>
   <rect x="699"
         y="33"
         width="92"
         height="32"
         class="terminal"
         rx="10"/>
   <text class="terminal" x="709" y="53">GLOBALLY</text>
   <rect x="701" y="79" width="82" height="32" rx="10"/>
   <rect x="699"
         y="77"
         width="82"
         height="32"
         class="terminal"
         rx="10"/>
   <text class="terminal" x="709" y="97">LOCALLY</text>
   <rect x="405" y="165" width="76" height="32" rx="10"/>
   <rect x="403"
         y="163"
         width="76"
         height="32"
         class="terminal"
         rx="10"/>
   <text class="terminal" x="413" y="183">OPTION</text>
   <rect x="501" y="165" width="26" height="32" rx="10"/>
   <rect x="499"
         y="163"
         width="26"
         height="32"
         class="terminal"
         rx="10"/>
   <text class="terminal" x="509" y="183">(</text>
   <rect x="547" y="165" width="82" height="32" rx="10"/>
   <rect x="545"
         y="163"
         width="82"
         height="32"
         class="terminal"
         rx="10"/>
   <text class="terminal" x="555" y="183">TIMEOUT</text>
   <rect x="649" y="165" width="30" height="32" rx="10"/>
   <rect x="647"
         y="163"
         width="30"
         height="32"
         class="terminal"
         rx="10"/>
   <text class="terminal" x="657" y="183">=</text>
   <a xmlns:xlink="http://www.w3.org/1999/xlink"
      xlink:href="../../sql_types#double"
      xlink:title="double">
      <rect x="699" y="165" width="62" height="32"/>
      <rect x="697" y="163" width="62" height="32" class="nonterminal"/>
      <text class="nonterminal" x="707" y="183">double</text>
   </a>
   <rect x="781" y="165" width="26" height="32" rx="10"/>
   <rect x="779"
         y="163"
         width="26"
         height="32"
         class="terminal"
         rx="10"/>
   <text class="terminal" x="789" y="183">)</text>
   <path class="line"
         d="m17 17 h2 m0 0 h10 m64 0 h10 m0 0 h10 m72 0 h10 m0 0 h10 m56 0 h10 m20 0 h10 m38 0 h10 m0 0 h34 m-112 0 h20 m92 0 h20 m-132 0 q10 0 10 10 m112 0 q0 -10 10 -10 m-122 10 v24 m112 0 v-24 m-112 24 q0 10 10 10 m92 0 q10 0 10 -10 m-102 10 h10 m72 0 h10 m20 -44 h10 m48 0 h10 m20 0 h10 m0 0 h320 m-350 0 h20 m330 0 h20 m-370 0 q10 0 10 10 m350 0 q0 -10 10 -10 m-360 10 v12 m350 0 v-12 m-350 12 q0 10 10 10 m330 0 q10 0 10 -10 m-340 10 h10 m58 0 h10 m0 0 h10 m80 0 h10 m20 0 h10 m92 0 h10 m-132 0 h20 m112 0 h20 m-152 0 q10 0 10 10 m132 0 q0 -10 10 -10 m-142 10 v24 m132 0 v-24 m-132 24 q0 10 10 10 m112 0 q10 0 10 -10 m-122 10 h10 m82 0 h10 m0 0 h10 m42 -76 l2 0 m2 0 l2 0 m2 0 l2 0 m-492 130 l2 0 m2 0 l2 0 m2 0 l2 0 m22 0 h10 m0 0 h412 m-442 0 h20 m422 0 h20 m-462 0 q10 0 10 10 m442 0 q0 -10 10 -10 m-452 10 v12 m442 0 v-12 m-442 12 q0 10 10 10 m422 0 q10 0 10 -10 m-432 10 h10 m76 0 h10 m0 0 h10 m26 0 h10 m0 0 h10 m82 0 h10 m0 0 h10 m30 0 h10 m0 0 h10 m62 0 h10 m0 0 h10 m26 0 h10 m23 -32 h-3"/>
   <polygon points="845 147 853 143 853 151"/>
   <polygon points="845 147 837 143 837 151"/>
</svg>
