<?xml version="1.0" encoding="UTF-8"?>
<svg xmlns="http://www.w3.org/2000/svg" width="965" height="113" viewBox="0 0 965 113">
    <defs>
        <style type="text/css">
            @namespace "http://www.w3.org/2000/svg";
            .line                 {fill: none; stroke: #330000; stroke-width: 1;}
            .bold-line            {stroke: #140000; shape-rendering: crispEdges; stroke-width: 2;}
            .thin-line            {stroke: #1F0000; shape-rendering: crispEdges}
            .filled               {fill: #330000; stroke: none;}
            text.terminal         {font-family: Verdana, Sans-serif;
            font-size: 12px;
            fill: #140000;
            font-weight: bold;
            }
            text.nonterminal      {font-family: Verdana, Sans-serif;
            font-size: 12px;
            fill: #1A0000;
            font-weight: normal;
            }
            text.regexp           {font-family: Verdana, Sans-serif;
            font-size: 12px;
            fill: #1F0000;
            font-weight: normal;
            }
            rect, circle, polygon {fill: #330000; stroke: #330000;}
            rect.terminal         {fill: #FF4D4D; stroke: #330000; stroke-width: 1;}
            rect.nonterminal      {fill: #FF9E9E; stroke: #330000; stroke-width: 1;}
            rect.text             {fill: none; stroke: none;}
            polygon.regexp        {fill: #FFC7C7; stroke: #330000; stroke-width: 1;}
        </style>
    </defs>
   <polygon points="9 17 1 13 1 21"/>
   <polygon points="17 17 9 13 9 21"/>
   <rect x="31" y="3" width="74" height="32" rx="10"/>
   <rect x="29"
         y="1"
         width="74"
         height="32"
         class="terminal"
         rx="10"/>
   <text class="terminal" x="39" y="21">BACKUP</text>
   <rect x="145" y="35" width="58" height="32" rx="10"/>
   <rect x="143"
         y="33"
         width="58"
         height="32"
         class="terminal"
         rx="10"/>
   <text class="terminal" x="153" y="53">WAIT</text>
   <rect x="223" y="35" width="80" height="32" rx="10"/>
   <rect x="221"
         y="33"
         width="80"
         height="32"
         class="terminal"
         rx="10"/>
   <text class="terminal" x="231" y="53">APPLIED</text>
   <rect x="343" y="35" width="92" height="32" rx="10"/>
   <rect x="341"
         y="33"
         width="92"
         height="32"
         class="terminal"
         rx="10"/>
   <text class="terminal" x="351" y="53">GLOBALLY</text>
   <rect x="343" y="79" width="82" height="32" rx="10"/>
   <rect x="341"
         y="77"
         width="82"
         height="32"
         class="terminal"
         rx="10"/>
   <text class="terminal" x="351" y="97">LOCALLY</text>
   <rect x="515" y="35" width="76" height="32" rx="10"/>
   <rect x="513"
         y="33"
         width="76"
         height="32"
         class="terminal"
         rx="10"/>
   <text class="terminal" x="523" y="53">OPTION</text>
   <rect x="611" y="35" width="26" height="32" rx="10"/>
   <rect x="609"
         y="33"
         width="26"
         height="32"
         class="terminal"
         rx="10"/>
   <text class="terminal" x="619" y="53">(</text>
   <rect x="657" y="35" width="82" height="32" rx="10"/>
   <rect x="655"
         y="33"
         width="82"
         height="32"
         class="terminal"
         rx="10"/>
   <text class="terminal" x="665" y="53">TIMEOUT</text>
   <rect x="759" y="35" width="30" height="32" rx="10"/>
   <rect x="757"
         y="33"
         width="30"
         height="32"
         class="terminal"
         rx="10"/>
   <text class="terminal" x="767" y="53">=</text>
   <a xmlns:xlink="http://www.w3.org/1999/xlink"
      xlink:href="../../sql_types#double"
      xlink:title="double">
      <rect x="809" y="35" width="62" height="32"/>
      <rect x="807" y="33" width="62" height="32" class="nonterminal"/>
      <text class="nonterminal" x="817" y="53">double</text>
   </a>
   <rect x="891" y="35" width="26" height="32" rx="10"/>
   <rect x="889"
         y="33"
         width="26"
         height="32"
         class="terminal"
         rx="10"/>
   <text class="terminal" x="899" y="53">)</text>
   <path class="line"
         d="m17 17 h2 m0 0 h10 m74 0 h10 m20 0 h10 m0 0 h320 m-350 0 h20 m330 0 h20 m-370 0 q10 0 10 10 m350 0 q0 -10 10 -10 m-360 10 v12 m350 0 v-12 m-350 12 q0 10 10 10 m330 0 q10 0 10 -10 m-340 10 h10 m58 0 h10 m0 0 h10 m80 0 h10 m20 0 h10 m92 0 h10 m-132 0 h20 m112 0 h20 m-152 0 q10 0 10 10 m132 0 q0 -10 10 -10 m-142 10 v24 m132 0 v-24 m-132 24 q0 10 10 10 m112 0 q10 0 10 -10 m-122 10 h10 m82 0 h10 m0 0 h10 m60 -76 h10 m0 0 h412 m-442 0 h20 m422 0 h20 m-462 0 q10 0 10 10 m442 0 q0 -10 10 -10 m-452 10 v12 m442 0 v-12 m-442 12 q0 10 10 10 m422 0 q10 0 10 -10 m-432 10 h10 m76 0 h10 m0 0 h10 m26 0 h10 m0 0 h10 m82 0 h10 m0 0 h10 m30 0 h10 m0 0 h10 m62 0 h10 m0 0 h10 m26 0 h10 m23 -32 h-3"/>
   <polygon points="955 17 963 13 963 21"/>
   <polygon points="955 17 947 13 947 21"/>
</svg>
