<?xml version="1.0" encoding="UTF-8" standalone="no"?>
<svg
   width="409"
   height="81"
   viewBox="0 0 409 81"
   version="1.1"
   id="svg14"
   sodipodi:docname="builtin.svg"
   inkscape:version="1.4.2 (ebf0e940d0, 2025-05-08)"
   xmlns:inkscape="http://www.inkscape.org/namespaces/inkscape"
   xmlns:sodipodi="http://sodipodi.sourceforge.net/DTD/sodipodi-0.dtd"
   xmlns:xlink="http://www.w3.org/1999/xlink"
   xmlns="http://www.w3.org/2000/svg"
   xmlns:svg="http://www.w3.org/2000/svg">
  <sodipodi:namedview
     id="namedview14"
     pagecolor="#ffffff"
     bordercolor="#666666"
     borderopacity="1.0"
     inkscape:showpageshadow="2"
     inkscape:pageopacity="0.0"
     inkscape:pagecheckerboard="0"
     inkscape:deskcolor="#d1d1d1"
     inkscape:zoom="1.9193154"
     inkscape:cx="204.5"
     inkscape:cy="40.378981"
     inkscape:window-width="1858"
     inkscape:window-height="1014"
     inkscape:window-x="0"
     inkscape:window-y="0"
     inkscape:window-maximized="1"
     inkscape:current-layer="a3" />
  <defs
     id="defs1">
    <style
       type="text/css"
       id="style1">@namespace &quot;http://www.w3.org/2000/svg&quot;;.line { fill: none; stroke: #330000; stroke-width: 1; }
.bold-line { stroke: #140000; shape-rendering: crispEdges; stroke-width: 2; }
.thin-line { stroke: #1F0000; shape-rendering: crispEdges }
.filled { fill: #330000; stroke: none; }
text.terminal { font-family: Verdana, Sans-serif;                            font-size: 12px;                            fill: #140000;                            font-weight: bold; }
text.nonterminal { font-family: Verdana, Sans-serif;                            font-size: 12px;                            fill: #1A0000;                            font-weight: normal; }
text.regexp { font-family: Verdana, Sans-serif;                            font-size: 12px;                            fill: #1F0000;                            font-weight: normal; }
rect, circle, polygon { fill: #330000; stroke: #330000; }
rect.terminal { fill: #FF4D4D; stroke: #330000; stroke-width: 1; }
rect.nonterminal { fill: #FF9E9E; stroke: #330000; stroke-width: 1; }
rect.text { fill: none; stroke: none; }
polygon.regexp { fill: #FFC7C7; stroke: #330000; stroke-width: 1; }
</style>
  </defs>
  <polygon
     points="9 17 1 13 1 21"
     id="polygon1" />
  <polygon
     points="17 17 9 13 9 21"
     id="polygon2" />
  <a
     xlink:href="#last_value"
     xlink:title="LAST_VALUE"
     id="a3">
    <rect
       x="51"
       y="3"
       width="108"
       height="32"
       rx="10"
       id="rect2" />
    <rect
       x="49"
       y="1"
       width="108"
       height="32"
       class="terminal"
       rx="10"
       id="rect3" />
    <text
       class="nonterminal"
       x="59.87516"
       y="20.210192"
       id="text3"><tspan
         style="font-weight:bold"
         id="tspan15">LAST_VALUE</tspan></text>
  </a>
  <rect
     x="179"
     y="3"
     width="26"
     height="32"
     rx="10"
     id="rect4" />
  <rect
     x="177"
     y="1"
     width="26"
     height="32"
     class="terminal"
     rx="10"
     id="rect5" />
  <text
     class="terminal"
     x="187"
     y="21"
     id="text5">(</text>
  <a
     xlink:href="#expression"
     xlink:title="expression"
     id="a7">
    <rect
       x="225"
       y="3"
       width="90"
       height="32"
       id="rect6" />
    <rect
       x="223"
       y="1"
       width="90"
       height="32"
       class="nonterminal"
       id="rect7" />
    <text
       class="nonterminal"
       x="233"
       y="21"
       id="text7">expression</text>
  </a>
  <a
     xlink:href="#row_number"
     xlink:title="ROW_NUMBER"
     id="a9">
    <rect
       x="51"
       y="47"
       width="120"
       height="32"
       rx="10"
       id="rect8" />
    <rect
       x="49"
       y="45"
       width="120"
       height="32"
       class="terminal"
       rx="10"
       id="rect9" />
    <text
       class="nonterminal"
       x="59"
       y="65"
       id="text9"><tspan
         style="font-weight:bold"
         id="tspan14">ROW_NUMBER</tspan></text>
  </a>
  <rect
     x="191"
     y="47"
     width="26"
     height="32"
     rx="10"
     id="rect10" />
  <rect
     x="189"
     y="45"
     width="26"
     height="32"
     class="terminal"
     rx="10"
     id="rect11" />
  <text
     class="terminal"
     x="199"
     y="65"
     id="text11">(</text>
  <rect
     x="355"
     y="3"
     width="26"
     height="32"
     rx="10"
     id="rect12" />
  <rect
     x="353"
     y="1"
     width="26"
     height="32"
     class="terminal"
     rx="10"
     id="rect13" />
  <text
     class="terminal"
     x="363"
     y="21"
     id="text13">)</text>
  <path
     class="line"
     d="m17 17 h2 m20 0 h10 m108 0 h10 m0 0 h10 m26 0 h10 m0 0 h10 m90 0 h10 m-304 0 h20 m284 0 h20 m-324 0 q10 0 10 10 m304 0 q0 -10 10 -10 m-314 10 v24 m304 0 v-24 m-304 24 q0 10 10 10 m284 0 q10 0 10 -10 m-294 10 h10 m120 0 h10 m0 0 h10 m26 0 h10 m0 0 h98 m20 -44 h10 m26 0 h10 m3 0 h-3"
     id="path13" />
  <polygon
     points="399 17 407 13 407 21"
     id="polygon13" />
  <polygon
     points="399 17 391 13 391 21"
     id="polygon14" />
</svg>
