<?xml version="1.0" encoding="UTF-8"?>
<svg xmlns="http://www.w3.org/2000/svg" width="409" height="81" viewBox="0 0 409 81">
   <defs>
      <style type="text/css">
    @namespace "http://www.w3.org/2000/svg";
    .line                 {fill: none; stroke: #330000; stroke-width: 1;}
    .bold-line            {stroke: #140000; shape-rendering: crispEdges; stroke-width: 2;}
    .thin-line            {stroke: #1F0000; shape-rendering: crispEdges}
    .filled               {fill: #330000; stroke: none;}
    text.terminal         {font-family: Verdana, Sans-serif;
                            font-size: 12px;
                            fill: #140000;
                            font-weight: bold;
                          }
    text.nonterminal      {font-family: Verdana, Sans-serif;
                            font-size: 12px;
                            fill: #1A0000;
                            font-weight: normal;
                          }
    text.regexp           {font-family: Verdana, Sans-serif;
                            font-size: 12px;
                            fill: #1F0000;
                            font-weight: normal;
                          }
    rect, circle, polygon {fill: #330000; stroke: #330000;}
    rect.terminal         {fill: #FF4D4D; stroke: #330000; stroke-width: 1;}
    rect.nonterminal      {fill: #FF9E9E; stroke: #330000; stroke-width: 1;}
    rect.text             {fill: none; stroke: none;}
    polygon.regexp        {fill: #FFC7C7; stroke: #330000; stroke-width: 1;}
  </style>
   </defs>
   <polygon points="9 17 1 13 1 21"/>
   <polygon points="17 17 9 13 9 21"/>
   <a xmlns:xlink="http://www.w3.org/1999/xlink"
      xlink:href="#last_value"
      xlink:title="LAST_VALUE">
      <rect x="51" y="3" width="108" height="32" rx="10"/>
      <rect x="49"
            y="1"
            width="108"
            height="32"
            class="terminal"
            rx="10"/>
      <text class="nonterminal" x="1" y="15">LAST_VALUE</text>
   </a>
   <rect x="179" y="3" width="26" height="32" rx="10"/>
   <rect x="177"
         y="1"
         width="26"
         height="32"
         class="terminal"
         rx="10"/>
   <text class="terminal" x="187" y="21">(</text>
   <a xmlns:xlink="http://www.w3.org/1999/xlink"
      xlink:href="#expression"
      xlink:title="expression">
      <rect x="225" y="3" width="90" height="32"/>
      <rect x="223" y="1" width="90" height="32" class="nonterminal"/>
      <text class="nonterminal" x="233" y="21">expression</text>
   </a>
   <a xmlns:xlink="http://www.w3.org/1999/xlink"
      xlink:href="#row_number"
      xlink:title="ROW_NUMBER">
      <rect x="51" y="47" width="120" height="32" rx="10"/>
      <rect x="49"
            y="45"
            width="120"
            height="32"
            class="terminal"
            rx="10"/>
      <text class="nonterminal" x="59" y="65">ROW_NUMBER</text>
   </a>
   <rect x="191" y="47" width="26" height="32" rx="10"/>
   <rect x="189"
         y="45"
         width="26"
         height="32"
         class="terminal"
         rx="10"/>
   <text class="terminal" x="199" y="65">(</text>
   <rect x="355" y="3" width="26" height="32" rx="10"/>
   <rect x="353"
         y="1"
         width="26"
         height="32"
         class="terminal"
         rx="10"/>
   <text class="terminal" x="363" y="21">)</text>
   <path class="line"
         d="m17 17 h2 m20 0 h10 m108 0 h10 m0 0 h10 m26 0 h10 m0 0 h10 m90 0 h10 m-304 0 h20 m284 0 h20 m-324 0 q10 0 10 10 m304 0 q0 -10 10 -10 m-314 10 v24 m304 0 v-24 m-304 24 q0 10 10 10 m284 0 q10 0 10 -10 m-294 10 h10 m120 0 h10 m0 0 h10 m26 0 h10 m0 0 h98 m20 -44 h10 m26 0 h10 m3 0 h-3"/>
   <polygon points="399 17 407 13 407 21"/>
   <polygon points="399 17 391 13 391 21"/>
</svg>
