<?xml version="1.0" encoding="UTF-8"?>
<svg xmlns="http://www.w3.org/2000/svg" width="677" height="183" viewBox="0 0 677 183">
   <defs>
      <style type="text/css">
    @namespace "http://www.w3.org/2000/svg";
    .line                 {fill: none; stroke: #330000; stroke-width: 1;}
    .bold-line            {stroke: #140000; shape-rendering: crispEdges; stroke-width: 2;}
    .thin-line            {stroke: #1F0000; shape-rendering: crispEdges}
    .filled               {fill: #330000; stroke: none;}
    text.terminal         {font-family: Verdana, Sans-serif;
                            font-size: 12px;
                            fill: #140000;
                            font-weight: bold;
                          }
    text.nonterminal      {font-family: Verdana, Sans-serif;
                            font-size: 12px;
                            fill: #1A0000;
                            font-weight: normal;
                          }
    text.regexp           {font-family: Verdana, Sans-serif;
                            font-size: 12px;
                            fill: #1F0000;
                            font-weight: normal;
                          }
    rect, circle, polygon {fill: #330000; stroke: #330000;}
    rect.terminal         {fill: #FF4D4D; stroke: #330000; stroke-width: 1;}
    rect.nonterminal      {fill: #FF9E9E; stroke: #330000; stroke-width: 1;}
    rect.text             {fill: none; stroke: none;}
    polygon.regexp        {fill: #FFC7C7; stroke: #330000; stroke-width: 1;}
  </style>
   </defs>
   <polygon points="9 33 1 29 1 37"/>
   <polygon points="17 33 9 29 9 37"/>
   <rect x="31" y="19" width="56" height="32" rx="10"/>
   <rect x="29"
         y="17"
         width="56"
         height="32"
         class="terminal"
         rx="10"/>
   <text class="terminal" x="39" y="37">CASE</text>
   <a xmlns:xlink="http://www.w3.org/1999/xlink"
      xlink:href="#expression"
      xlink:title="expression">
      <rect x="127" y="51" width="90" height="32"/>
      <rect x="125" y="49" width="90" height="32" class="nonterminal"/>
      <text class="nonterminal" x="135" y="69">expression</text>
   </a>
   <rect x="277" y="19" width="62" height="32" rx="10"/>
   <rect x="275"
         y="17"
         width="62"
         height="32"
         class="terminal"
         rx="10"/>
   <text class="terminal" x="285" y="37">WHEN</text>
   <a xmlns:xlink="http://www.w3.org/1999/xlink"
      xlink:href="#expression"
      xlink:title="expression">
      <rect x="359" y="19" width="90" height="32"/>
      <rect x="357" y="17" width="90" height="32" class="nonterminal"/>
      <text class="nonterminal" x="367" y="37">expression</text>
   </a>
   <rect x="469" y="19" width="56" height="32" rx="10"/>
   <rect x="467"
         y="17"
         width="56"
         height="32"
         class="terminal"
         rx="10"/>
   <text class="terminal" x="477" y="37">THEN</text>
   <a xmlns:xlink="http://www.w3.org/1999/xlink"
      xlink:href="#expression"
      xlink:title="expression">
      <rect x="545" y="19" width="90" height="32"/>
      <rect x="543" y="17" width="90" height="32" class="nonterminal"/>
      <text class="nonterminal" x="553" y="37">expression</text>
   </a>
   <rect x="399" y="149" width="52" height="32" rx="10"/>
   <rect x="397"
         y="147"
         width="52"
         height="32"
         class="terminal"
         rx="10"/>
   <text class="terminal" x="407" y="167">ELSE</text>
   <a xmlns:xlink="http://www.w3.org/1999/xlink"
      xlink:href="#expression"
      xlink:title="expression">
      <rect x="471" y="149" width="90" height="32"/>
      <rect x="469" y="147" width="90" height="32" class="nonterminal"/>
      <text class="nonterminal" x="479" y="167">expression</text>
   </a>
   <rect x="601" y="117" width="48" height="32" rx="10"/>
   <rect x="599"
         y="115"
         width="48"
         height="32"
         class="terminal"
         rx="10"/>
   <text class="terminal" x="609" y="135">END</text>
   <path class="line"
         d="m17 33 h2 m0 0 h10 m56 0 h10 m20 0 h10 m0 0 h100 m-130 0 h20 m110 0 h20 m-150 0 q10 0 10 10 m130 0 q0 -10 10 -10 m-140 10 v12 m130 0 v-12 m-130 12 q0 10 10 10 m110 0 q10 0 10 -10 m-120 10 h10 m90 0 h10 m40 -32 h10 m62 0 h10 m0 0 h10 m90 0 h10 m0 0 h10 m56 0 h10 m0 0 h10 m90 0 h10 m-398 0 l20 0 m-1 0 q-9 0 -9 -10 l0 -12 q0 -10 10 -10 m378 32 l20 0 m-20 0 q10 0 10 -10 l0 -12 q0 -10 -10 -10 m-378 0 h10 m0 0 h368 m22 32 l2 0 m2 0 l2 0 m2 0 l2 0 m-320 98 l2 0 m2 0 l2 0 m2 0 l2 0 m22 0 h10 m0 0 h172 m-202 0 h20 m182 0 h20 m-222 0 q10 0 10 10 m202 0 q0 -10 10 -10 m-212 10 v12 m202 0 v-12 m-202 12 q0 10 10 10 m182 0 q10 0 10 -10 m-192 10 h10 m52 0 h10 m0 0 h10 m90 0 h10 m20 -32 h10 m48 0 h10 m3 0 h-3"/>
   <polygon points="667 131 675 127 675 135"/>
   <polygon points="667 131 659 127 659 135"/>
</svg>
