<?xml version="1.0" encoding="UTF-8" ?>
<svg
    xmlns="http://www.w3.org/2000/svg"
    width="587"
    height="221"
    viewBox="0 0 587 221"
>
   <defs>
      <style type="text/css">
@namespace "http://www.w3.org/2000/svg";
.line {
    fill: none;
    stroke: #330000;
    stroke-width: 1;
}
.bold-line {
    stroke: #140000;
    shape-rendering: crispEdges;
    stroke-width: 2;
}
.thin-line {
    stroke: #1f0000;
    shape-rendering: crispEdges;
}
.filled {
    fill: #330000;
    stroke: none;
}
text.terminal {
    font-family: Verdana, Sans-serif;
    font-size: 12px;
    fill: #140000;
    font-weight: bold;
}
text.nonterminal {
    font-family: Verdana, Sans-serif;
    font-size: 12px;
    fill: #1a0000;
    font-weight: normal;
}
text.regexp {
    font-family: Verdana, Sans-serif;
    font-size: 12px;
    fill: #1f0000;
    font-weight: normal;
}
rect,
circle,
polygon {
    fill: #330000;
    stroke: #330000;
}
rect.terminal {
    fill: #ff4d4d;
    stroke: #330000;
    stroke-width: 1;
}
rect.nonterminal {
    fill: #ff9e9e;
    stroke: #330000;
    stroke-width: 1;
}
rect.text {
    fill: none;
    stroke: none;
}
polygon.regexp {
    fill: #ffc7c7;
    stroke: #330000;
    stroke-width: 1;
}
        </style>
   </defs>
   <polygon points="9 17 1 13 1 21" />
   <polygon points="17 17 9 13 9 21" />
   <a
        xmlns:xlink="http://www.w3.org/1999/xlink"
        xlink:href="../cast#unrestricted_type"
        xlink:title="unrestricted_type"
    >
      <rect x="51" y="3" width="132" height="32" />
      <rect x="49" y="1" width="132" height="32" class="nonterminal" />
      <text class="nonterminal" x="59" y="21">unrestricted_type</text>
   </a>
   <rect x="223" y="35" width="26" height="32" rx="10" />
   <rect x="221" y="33" width="26" height="32" class="terminal" rx="10" />
   <text class="terminal" x="231" y="53">[</text>
   <a
        xmlns:xlink="http://www.w3.org/1999/xlink"
        xlink:href="../../sql_types#unsigned"
        xlink:title="unsigned"
    >
      <rect x="289" y="67" width="78" height="32" />
      <rect x="287" y="65" width="78" height="32" class="nonterminal" />
      <text class="nonterminal" x="297" y="85">unsigned</text>
   </a>
   <rect x="407" y="35" width="26" height="32" rx="10" />
   <rect x="405" y="33" width="26" height="32" class="terminal" rx="10" />
   <text class="terminal" x="415" y="53">]</text>
   <rect x="223" y="111" width="66" height="32" rx="10" />
   <rect x="221" y="109" width="66" height="32" class="terminal" rx="10" />
   <text class="terminal" x="231" y="129">ARRAY</text>
   <rect x="329" y="143" width="26" height="32" rx="10" />
   <rect x="327" y="141" width="26" height="32" class="terminal" rx="10" />
   <text class="terminal" x="337" y="161">[</text>
   <a
        xmlns:xlink="http://www.w3.org/1999/xlink"
        xlink:href="../../sql_types#unsigned"
        xlink:title="unsigned"
    >
      <rect x="375" y="143" width="78" height="32" />
      <rect x="373" y="141" width="78" height="32" class="nonterminal" />
      <text class="nonterminal" x="383" y="161">unsigned</text>
   </a>
   <rect x="473" y="143" width="26" height="32" rx="10" />
   <rect x="471" y="141" width="26" height="32" class="terminal" rx="10" />
   <text class="terminal" x="481" y="161">]</text>
   <rect x="51" y="187" width="92" height="32" rx="10" />
   <rect x="49" y="185" width="92" height="32" class="terminal" rx="10" />
   <text class="terminal" x="59" y="205">UNSIGNED</text>
   <path
        class="line"
        d="m17 17 h2 m20 0 h10 m132 0 h10 m20 0 h10 m0 0 h306 m-336 0 h20 m316 0 h20 m-356 0 q10 0 10 10 m336 0 q0 -10 10 -10 m-346 10 v12 m336 0 v-12 m-336 12 q0 10 10 10 m316 0 q10 0 10 -10 m-326 10 h10 m26 0 h10 m20 0 h10 m0 0 h88 m-118 0 h20 m98 0 h20 m-138 0 q10 0 10 10 m118 0 q0 -10 10 -10 m-128 10 v12 m118 0 v-12 m-118 12 q0 10 10 10 m98 0 q10 0 10 -10 m-108 10 h10 m78 0 h10 m20 -32 h10 m26 0 h10 m0 0 h86 m-326 -10 v20 m336 0 v-20 m-336 20 v56 m336 0 v-56 m-336 56 q0 10 10 10 m316 0 q10 0 10 -10 m-326 10 h10 m66 0 h10 m20 0 h10 m0 0 h180 m-210 0 h20 m190 0 h20 m-230 0 q10 0 10 10 m210 0 q0 -10 10 -10 m-220 10 v12 m210 0 v-12 m-210 12 q0 10 10 10 m190 0 q10 0 10 -10 m-200 10 h10 m26 0 h10 m0 0 h10 m78 0 h10 m0 0 h10 m26 0 h10 m-488 -140 h20 m508 0 h20 m-548 0 q10 0 10 10 m528 0 q0 -10 10 -10 m-538 10 v164 m528 0 v-164 m-528 164 q0 10 10 10 m508 0 q10 0 10 -10 m-518 10 h10 m92 0 h10 m0 0 h396 m23 -184 h-3"
    />
   <polygon points="577 17 585 13 585 21" />
   <polygon points="577 17 569 13 569 21" />
</svg>
