<?xml version="1.0" encoding="UTF-8"?>
<svg xmlns="http://www.w3.org/2000/svg" width="865" height="461" viewBox="0 0 865 461">
   <defs>
      <style type="text/css">
    @namespace "http://www.w3.org/2000/svg";
    .line                 {fill: none; stroke: #330000; stroke-width: 1;}
    .bold-line            {stroke: #140000; shape-rendering: crispEdges; stroke-width: 2;}
    .thin-line            {stroke: #1F0000; shape-rendering: crispEdges}
    .filled               {fill: #330000; stroke: none;}
    text.terminal         {font-family: Verdana, Sans-serif;
                            font-size: 12px;
                            fill: #140000;
                            font-weight: bold;
                          }
    text.nonterminal      {font-family: Verdana, Sans-serif;
                            font-size: 12px;
                            fill: #1A0000;
                            font-weight: normal;
                          }
    text.regexp           {font-family: Verdana, Sans-serif;
                            font-size: 12px;
                            fill: #1F0000;
                            font-weight: normal;
                          }
    rect, circle, polygon {fill: #330000; stroke: #330000;}
    rect.terminal         {fill: #FF4D4D; stroke: #330000; stroke-width: 1;}
    rect.nonterminal      {fill: #FF9E9E; stroke: #330000; stroke-width: 1;}
    rect.text             {fill: none; stroke: none;}
    polygon.regexp        {fill: #FFC7C7; stroke: #330000; stroke-width: 1;}
  </style>
   </defs>
   <polygon points="11 17 3 13 3 21"/>
   <polygon points="19 17 11 13 11 21"/>
   <rect x="33" y="3" width="72" height="32" rx="10"/>
   <rect x="31"
         y="1"
         width="72"
         height="32"
         class="terminal"
         rx="10"/>
   <text class="terminal" x="41" y="21">CREATE</text>
   <rect x="125" y="3" width="56" height="32" rx="10"/>
   <rect x="123"
         y="1"
         width="56"
         height="32"
         class="terminal"
         rx="10"/>
   <text class="terminal" x="133" y="21">USER</text>
   <rect x="221" y="35" width="34" height="32" rx="10"/>
   <rect x="219"
         y="33"
         width="34"
         height="32"
         class="terminal"
         rx="10"/>
   <text class="terminal" x="229" y="53">IF</text>
   <rect x="275" y="35" width="48" height="32" rx="10"/>
   <rect x="273"
         y="33"
         width="48"
         height="32"
         class="terminal"
         rx="10"/>
   <text class="terminal" x="283" y="53">NOT</text>
   <rect x="343" y="35" width="70" height="32" rx="10"/>
   <rect x="341"
         y="33"
         width="70"
         height="32"
         class="terminal"
         rx="10"/>
   <text class="terminal" x="351" y="53">EXISTS</text>
   <a xmlns:xlink="http://www.w3.org/1999/xlink"
      xlink:href="../object"
      xlink:title="user">
      <rect x="453" y="3" width="48" height="32"/>
      <rect x="451" y="1" width="48" height="32" class="nonterminal"/>
      <text class="nonterminal" x="461" y="21">user</text>
   </a>
   <rect x="76" y="101" width="64" height="32" rx="10"/>
   <rect x="74"
         y="99"
         width="64"
         height="32"
         class="terminal"
         rx="10"/>
   <text class="terminal" x="84" y="119">USING</text>
   <rect x="160" y="101" width="56" height="32" rx="10"/>
   <rect x="158"
         y="99"
         width="56"
         height="32"
         class="terminal"
         rx="10"/>
   <text class="terminal" x="168" y="119">LDAP</text>
   <rect x="96" y="177" width="58" height="32" rx="10"/>
   <rect x="94"
         y="175"
         width="58"
         height="32"
         class="terminal"
         rx="10"/>
   <text class="terminal" x="104" y="195">WITH</text>
   <rect x="194" y="145" width="100" height="32" rx="10"/>
   <rect x="192"
         y="143"
         width="100"
         height="32"
         class="terminal"
         rx="10"/>
   <text class="terminal" x="202" y="163">PASSWORD</text>
   <rect x="314" y="145" width="24" height="32" rx="10"/>
   <rect x="312"
         y="143"
         width="24"
         height="32"
         class="terminal"
         rx="10"/>
   <text class="terminal" x="322" y="163">'</text>
   <a xmlns:xlink="http://www.w3.org/1999/xlink"
      xlink:href="../../sql_types#text"
      xlink:title="password">
      <rect x="358" y="145" width="80" height="32"/>
      <rect x="356" y="143" width="80" height="32" class="nonterminal"/>
      <text class="nonterminal" x="366" y="163">password</text>
   </a>
   <rect x="458" y="145" width="24" height="32" rx="10"/>
   <rect x="456"
         y="143"
         width="24"
         height="32"
         class="terminal"
         rx="10"/>
   <text class="terminal" x="466" y="163">'</text>
   <rect x="522" y="177" width="64" height="32" rx="10"/>
   <rect x="520"
         y="175"
         width="64"
         height="32"
         class="terminal"
         rx="10"/>
   <text class="terminal" x="530" y="195">USING</text>
   <rect x="626" y="209" width="100" height="32" rx="10"/>
   <rect x="624"
         y="207"
         width="100"
         height="32"
         class="terminal"
         rx="10"/>
   <text class="terminal" x="634" y="227">CHAP-SHA1</text>
   <rect x="626" y="253" width="50" height="32" rx="10"/>
   <rect x="624"
         y="251"
         width="50"
         height="32"
         class="terminal"
         rx="10"/>
   <text class="terminal" x="634" y="271">MD5</text>
   <rect x="626" y="297" width="128" height="32" rx="10"/>
   <rect x="624"
         y="295"
         width="128"
         height="32"
         class="terminal"
         rx="10"/>
   <text class="terminal" x="634" y="315">SCRAM-SHA256</text>
   <rect x="45" y="383" width="58" height="32" rx="10"/>
   <rect x="43"
         y="381"
         width="58"
         height="32"
         class="terminal"
         rx="10"/>
   <text class="terminal" x="53" y="401">WAIT</text>
   <rect x="123" y="383" width="80" height="32" rx="10"/>
   <rect x="121"
         y="381"
         width="80"
         height="32"
         class="terminal"
         rx="10"/>
   <text class="terminal" x="131" y="401">APPLIED</text>
   <rect x="243" y="383" width="92" height="32" rx="10"/>
   <rect x="241"
         y="381"
         width="92"
         height="32"
         class="terminal"
         rx="10"/>
   <text class="terminal" x="251" y="401">GLOBALLY</text>
   <rect x="243" y="427" width="82" height="32" rx="10"/>
   <rect x="241"
         y="425"
         width="82"
         height="32"
         class="terminal"
         rx="10"/>
   <text class="terminal" x="251" y="445">LOCALLY</text>
   <rect x="415" y="383" width="76" height="32" rx="10"/>
   <rect x="413"
         y="381"
         width="76"
         height="32"
         class="terminal"
         rx="10"/>
   <text class="terminal" x="423" y="401">OPTION</text>
   <rect x="511" y="383" width="26" height="32" rx="10"/>
   <rect x="509"
         y="381"
         width="26"
         height="32"
         class="terminal"
         rx="10"/>
   <text class="terminal" x="519" y="401">(</text>
   <rect x="557" y="383" width="82" height="32" rx="10"/>
   <rect x="555"
         y="381"
         width="82"
         height="32"
         class="terminal"
         rx="10"/>
   <text class="terminal" x="565" y="401">TIMEOUT</text>
   <rect x="659" y="383" width="30" height="32" rx="10"/>
   <rect x="657"
         y="381"
         width="30"
         height="32"
         class="terminal"
         rx="10"/>
   <text class="terminal" x="667" y="401">=</text>
   <a xmlns:xlink="http://www.w3.org/1999/xlink"
      xlink:href="../../sql_types#double"
      xlink:title="double">
      <rect x="709" y="383" width="62" height="32"/>
      <rect x="707" y="381" width="62" height="32" class="nonterminal"/>
      <text class="nonterminal" x="717" y="401">double</text>
   </a>
   <rect x="791" y="383" width="26" height="32" rx="10"/>
   <rect x="789"
         y="381"
         width="26"
         height="32"
         class="terminal"
         rx="10"/>
   <text class="terminal" x="799" y="401">)</text>
   <path class="line"
         d="m19 17 h2 m0 0 h10 m72 0 h10 m0 0 h10 m56 0 h10 m20 0 h10 m0 0 h202 m-232 0 h20 m212 0 h20 m-252 0 q10 0 10 10 m232 0 q0 -10 10 -10 m-242 10 v12 m232 0 v-12 m-232 12 q0 10 10 10 m212 0 q10 0 10 -10 m-222 10 h10 m34 0 h10 m0 0 h10 m48 0 h10 m0 0 h10 m70 0 h10 m20 -32 h10 m48 0 h10 m2 0 l2 0 m2 0 l2 0 m2 0 l2 0 m-489 98 l2 0 m2 0 l2 0 m2 0 l2 0 m22 0 h10 m64 0 h10 m0 0 h10 m56 0 h10 m0 0 h578 m-758 0 h20 m738 0 h20 m-778 0 q10 0 10 10 m758 0 q0 -10 10 -10 m-768 10 v24 m758 0 v-24 m-758 24 q0 10 10 10 m738 0 q10 0 10 -10 m-728 10 h10 m0 0 h68 m-98 0 h20 m78 0 h20 m-118 0 q10 0 10 10 m98 0 q0 -10 10 -10 m-108 10 v12 m98 0 v-12 m-98 12 q0 10 10 10 m78 0 q10 0 10 -10 m-88 10 h10 m58 0 h10 m20 -32 h10 m100 0 h10 m0 0 h10 m24 0 h10 m0 0 h10 m80 0 h10 m0 0 h10 m24 0 h10 m20 0 h10 m0 0 h262 m-292 0 h20 m272 0 h20 m-312 0 q10 0 10 10 m292 0 q0 -10 10 -10 m-302 10 v12 m292 0 v-12 m-292 12 q0 10 10 10 m272 0 q10 0 10 -10 m-282 10 h10 m64 0 h10 m20 0 h10 m0 0 h138 m-168 0 h20 m148 0 h20 m-188 0 q10 0 10 10 m168 0 q0 -10 10 -10 m-178 10 v12 m168 0 v-12 m-168 12 q0 10 10 10 m148 0 q10 0 10 -10 m-158 10 h10 m100 0 h10 m0 0 h28 m-158 -10 v20 m168 0 v-20 m-168 20 v24 m168 0 v-24 m-168 24 q0 10 10 10 m148 0 q10 0 10 -10 m-158 10 h10 m50 0 h10 m0 0 h78 m-158 -10 v20 m168 0 v-20 m-168 20 v24 m168 0 v-24 m-168 24 q0 10 10 10 m148 0 q10 0 10 -10 m-158 10 h10 m128 0 h10 m62 -196 l2 0 m2 0 l2 0 m2 0 l2 0 m-833 250 l2 0 m2 0 l2 0 m2 0 l2 0 m22 0 h10 m0 0 h320 m-350 0 h20 m330 0 h20 m-370 0 q10 0 10 10 m350 0 q0 -10 10 -10 m-360 10 v12 m350 0 v-12 m-350 12 q0 10 10 10 m330 0 q10 0 10 -10 m-340 10 h10 m58 0 h10 m0 0 h10 m80 0 h10 m20 0 h10 m92 0 h10 m-132 0 h20 m112 0 h20 m-152 0 q10 0 10 10 m132 0 q0 -10 10 -10 m-142 10 v24 m132 0 v-24 m-132 24 q0 10 10 10 m112 0 q10 0 10 -10 m-122 10 h10 m82 0 h10 m0 0 h10 m60 -76 h10 m0 0 h412 m-442 0 h20 m422 0 h20 m-462 0 q10 0 10 10 m442 0 q0 -10 10 -10 m-452 10 v12 m442 0 v-12 m-442 12 q0 10 10 10 m422 0 q10 0 10 -10 m-432 10 h10 m76 0 h10 m0 0 h10 m26 0 h10 m0 0 h10 m82 0 h10 m0 0 h10 m30 0 h10 m0 0 h10 m62 0 h10 m0 0 h10 m26 0 h10 m23 -32 h-3"/>
   <polygon points="855 365 863 361 863 369"/>
   <polygon points="855 365 847 361 847 369"/>
</svg>
