<?xml version="1.0" encoding="UTF-8"?>
<svg xmlns="http://www.w3.org/2000/svg" width="1249" height="1335" viewBox="0 0 1249 1335">
   <defs>
      <style type="text/css">
    @namespace "http://www.w3.org/2000/svg";
    .line                 {fill: none; stroke: #330000; stroke-width: 1;}
    .bold-line            {stroke: #140000; shape-rendering: crispEdges; stroke-width: 2;}
    .thin-line            {stroke: #1F0000; shape-rendering: crispEdges}
    .filled               {fill: #330000; stroke: none;}
    text.terminal         {font-family: Verdana, Sans-serif;
                            font-size: 12px;
                            fill: #140000;
                            font-weight: bold;
                          }
    text.nonterminal      {font-family: Verdana, Sans-serif;
                            font-size: 12px;
                            fill: #1A0000;
                            font-weight: normal;
                          }
    text.regexp           {font-family: Verdana, Sans-serif;
                            font-size: 12px;
                            fill: #1F0000;
                            font-weight: normal;
                          }
    rect, circle, polygon {fill: #330000; stroke: #330000;}
    rect.terminal         {fill: #ff4d4d; stroke: #330000; stroke-width: 1;}
    rect.nonterminal      {fill: #FF9E9E; stroke: #330000; stroke-width: 1;}
    rect.text             {fill: none; stroke: none;}
    polygon.regexp        {fill: #FFC7C7; stroke: #330000; stroke-width: 1;}
  </style>
   </defs>
   <polygon points="9 17 1 13 1 21"/>
   <polygon points="17 17 9 13 9 21"/>
   <rect x="31" y="3" width="72" height="32" rx="10"/>
   <rect x="29"
         y="1"
         width="72"
         height="32"
         class="terminal"
         rx="10"/>
   <text class="terminal" x="39" y="21">CREATE</text>
   <rect x="143" y="35" width="96" height="32" rx="10"/>
   <rect x="141"
         y="33"
         width="96"
         height="32"
         class="terminal"
         rx="10"/>
   <text class="terminal" x="151" y="53">UNLOGGED</text>
   <rect x="279" y="3" width="62" height="32" rx="10"/>
   <rect x="277"
         y="1"
         width="62"
         height="32"
         class="terminal"
         rx="10"/>
   <text class="terminal" x="287" y="21">TABLE</text>
   <rect x="381" y="35" width="34" height="32" rx="10"/>
   <rect x="379"
         y="33"
         width="34"
         height="32"
         class="terminal"
         rx="10"/>
   <text class="terminal" x="389" y="53">IF</text>
   <rect x="435" y="35" width="48" height="32" rx="10"/>
   <rect x="433"
         y="33"
         width="48"
         height="32"
         class="terminal"
         rx="10"/>
   <text class="terminal" x="443" y="53">NOT</text>
   <rect x="503" y="35" width="70" height="32" rx="10"/>
   <rect x="501"
         y="33"
         width="70"
         height="32"
         class="terminal"
         rx="10"/>
   <text class="terminal" x="511" y="53">EXISTS</text>
   <a xmlns:xlink="http://www.w3.org/1999/xlink"
      xlink:href="../object"
      xlink:title="table">
      <rect x="613" y="3" width="52" height="32"/>
      <rect x="611" y="1" width="52" height="32" class="nonterminal"/>
      <text class="nonterminal" x="621" y="21">table</text>
   </a>
   <rect x="685" y="3" width="26" height="32" rx="10"/>
   <rect x="683"
         y="1"
         width="26"
         height="32"
         class="terminal"
         rx="10"/>
   <text class="terminal" x="693" y="21">(</text>
   <a xmlns:xlink="http://www.w3.org/1999/xlink"
      xlink:href="../object"
      xlink:title="column">
      <rect x="45" y="145" width="64" height="32"/>
      <rect x="43" y="143" width="64" height="32" class="nonterminal"/>
      <text class="nonterminal" x="53" y="163">column</text>
   </a>
   <a xmlns:xlink="http://www.w3.org/1999/xlink"
      xlink:href="#unrestricted_type"
      xlink:title="unrestricted_type">
      <rect x="149" y="145" width="132" height="32"/>
      <rect x="147" y="143" width="132" height="32" class="nonterminal"/>
      <text class="nonterminal" x="157" y="163">unrestricted_type</text>
   </a>
   <rect x="321" y="177" width="26" height="32" rx="10"/>
   <rect x="319"
         y="175"
         width="26"
         height="32"
         class="terminal"
         rx="10"/>
   <text class="terminal" x="329" y="195">[</text>
   <a xmlns:xlink="http://www.w3.org/1999/xlink"
      xlink:href="../../sql_types#unsigned"
      xlink:title="unsigned">
      <rect x="387" y="209" width="78" height="32"/>
      <rect x="385" y="207" width="78" height="32" class="nonterminal"/>
      <text class="nonterminal" x="395" y="227">unsigned</text>
   </a>
   <rect x="505" y="177" width="26" height="32" rx="10"/>
   <rect x="503"
         y="175"
         width="26"
         height="32"
         class="terminal"
         rx="10"/>
   <text class="terminal" x="513" y="195">]</text>
   <rect x="321" y="253" width="66" height="32" rx="10"/>
   <rect x="319"
         y="251"
         width="66"
         height="32"
         class="terminal"
         rx="10"/>
   <text class="terminal" x="329" y="271">ARRAY</text>
   <rect x="427" y="285" width="26" height="32" rx="10"/>
   <rect x="425"
         y="283"
         width="26"
         height="32"
         class="terminal"
         rx="10"/>
   <text class="terminal" x="435" y="303">[</text>
   <a xmlns:xlink="http://www.w3.org/1999/xlink"
      xlink:href="../../sql_types#unsigned"
      xlink:title="unsigned">
      <rect x="473" y="285" width="78" height="32"/>
      <rect x="471" y="283" width="78" height="32" class="nonterminal"/>
      <text class="nonterminal" x="481" y="303">unsigned</text>
   </a>
   <rect x="571" y="285" width="26" height="32" rx="10"/>
   <rect x="569"
         y="283"
         width="26"
         height="32"
         class="terminal"
         rx="10"/>
   <text class="terminal" x="579" y="303">]</text>
   <rect x="149" y="329" width="92" height="32" rx="10"/>
   <rect x="147"
         y="327"
         width="92"
         height="32"
         class="terminal"
         rx="10"/>
   <text class="terminal" x="157" y="347">UNSIGNED</text>
   <rect x="717" y="209" width="48" height="32" rx="10"/>
   <rect x="715"
         y="207"
         width="48"
         height="32"
         class="terminal"
         rx="10"/>
   <text class="terminal" x="725" y="227">NOT</text>
   <rect x="805" y="177" width="56" height="32" rx="10"/>
   <rect x="803"
         y="175"
         width="56"
         height="32"
         class="terminal"
         rx="10"/>
   <text class="terminal" x="813" y="195">NULL</text>
   <rect x="921" y="177" width="84" height="32" rx="10"/>
   <rect x="919"
         y="175"
         width="84"
         height="32"
         class="terminal"
         rx="10"/>
   <text class="terminal" x="929" y="195">PRIMARY</text>
   <rect x="1025" y="177" width="46" height="32" rx="10"/>
   <rect x="1023"
         y="175"
         width="46"
         height="32"
         class="terminal"
         rx="10"/>
   <text class="terminal" x="1033" y="195">KEY</text>
   <rect x="1111" y="209" width="46" height="32" rx="10"/>
   <rect x="1109"
         y="207"
         width="46"
         height="32"
         class="terminal"
         rx="10"/>
   <text class="terminal" x="1119" y="227">ASC</text>
   <rect x="1111" y="253" width="56" height="32" rx="10"/>
   <rect x="1109"
         y="251"
         width="56"
         height="32"
         class="terminal"
         rx="10"/>
   <text class="terminal" x="1119" y="271">DESC</text>
   <rect x="45" y="101" width="24" height="32" rx="10"/>
   <rect x="43"
         y="99"
         width="24"
         height="32"
         class="terminal"
         rx="10"/>
   <text class="terminal" x="53" y="119">,</text>
   <rect x="189" y="439" width="24" height="32" rx="10"/>
   <rect x="187"
         y="437"
         width="24"
         height="32"
         class="terminal"
         rx="10"/>
   <text class="terminal" x="197" y="457">,</text>
   <rect x="233" y="439" width="84" height="32" rx="10"/>
   <rect x="231"
         y="437"
         width="84"
         height="32"
         class="terminal"
         rx="10"/>
   <text class="terminal" x="241" y="457">PRIMARY</text>
   <rect x="337" y="439" width="46" height="32" rx="10"/>
   <rect x="335"
         y="437"
         width="46"
         height="32"
         class="terminal"
         rx="10"/>
   <text class="terminal" x="345" y="457">KEY</text>
   <rect x="403" y="439" width="26" height="32" rx="10"/>
   <rect x="401"
         y="437"
         width="26"
         height="32"
         class="terminal"
         rx="10"/>
   <text class="terminal" x="411" y="457">(</text>
   <a xmlns:xlink="http://www.w3.org/1999/xlink"
      xlink:href="../../../overview/glossary#bucket"
      xlink:title="bucket_id">
      <rect x="469" y="471" width="82" height="32"/>
      <rect x="467" y="469" width="82" height="32" class="nonterminal"/>
      <text class="nonterminal" x="477" y="489">bucket_id</text>
   </a>
   <rect x="591" y="503" width="46" height="32" rx="10"/>
   <rect x="589"
         y="501"
         width="46"
         height="32"
         class="terminal"
         rx="10"/>
   <text class="terminal" x="599" y="521">ASC</text>
   <rect x="591" y="547" width="56" height="32" rx="10"/>
   <rect x="589"
         y="545"
         width="56"
         height="32"
         class="terminal"
         rx="10"/>
   <text class="terminal" x="599" y="565">DESC</text>
   <rect x="687" y="471" width="24" height="32" rx="10"/>
   <rect x="685"
         y="469"
         width="24"
         height="32"
         class="terminal"
         rx="10"/>
   <text class="terminal" x="695" y="489">,</text>
   <a xmlns:xlink="http://www.w3.org/1999/xlink"
      xlink:href="../object"
      xlink:title="column">
      <rect x="771" y="439" width="64" height="32"/>
      <rect x="769" y="437" width="64" height="32" class="nonterminal"/>
      <text class="nonterminal" x="779" y="457">column</text>
   </a>
   <rect x="875" y="471" width="46" height="32" rx="10"/>
   <rect x="873"
         y="469"
         width="46"
         height="32"
         class="terminal"
         rx="10"/>
   <text class="terminal" x="883" y="489">ASC</text>
   <rect x="875" y="515" width="56" height="32" rx="10"/>
   <rect x="873"
         y="513"
         width="56"
         height="32"
         class="terminal"
         rx="10"/>
   <text class="terminal" x="883" y="533">DESC</text>
   <rect x="771" y="395" width="24" height="32" rx="10"/>
   <rect x="769"
         y="393"
         width="24"
         height="32"
         class="terminal"
         rx="10"/>
   <text class="terminal" x="779" y="413">,</text>
   <rect x="991" y="439" width="26" height="32" rx="10"/>
   <rect x="989"
         y="437"
         width="26"
         height="32"
         class="terminal"
         rx="10"/>
   <text class="terminal" x="999" y="457">)</text>
   <rect x="1057" y="439" width="26" height="32" rx="10"/>
   <rect x="1055"
         y="437"
         width="26"
         height="32"
         class="terminal"
         rx="10"/>
   <text class="terminal" x="1065" y="457">)</text>
   <rect x="188" y="629" width="64" height="32" rx="10"/>
   <rect x="186"
         y="627"
         width="64"
         height="32"
         class="terminal"
         rx="10"/>
   <text class="terminal" x="196" y="647">USING</text>
   <rect x="292" y="629" width="68" height="32" rx="10"/>
   <rect x="290"
         y="627"
         width="68"
         height="32"
         class="terminal"
         rx="10"/>
   <text class="terminal" x="300" y="647">MEMTX</text>
   <rect x="292" y="717" width="62" height="32" rx="10"/>
   <rect x="290"
         y="715"
         width="62"
         height="32"
         class="terminal"
         rx="10"/>
   <text class="terminal" x="300" y="735">VINYL</text>
   <rect x="394" y="717" width="58" height="32" rx="10"/>
   <rect x="392"
         y="715"
         width="58"
         height="32"
         class="terminal"
         rx="10"/>
   <text class="terminal" x="402" y="735">WITH</text>
   <rect x="472" y="717" width="26" height="32" rx="10"/>
   <rect x="470"
         y="715"
         width="26"
         height="32"
         class="terminal"
         rx="10"/>
   <text class="terminal" x="480" y="735">(</text>
   <rect x="578" y="717" width="106" height="32" rx="10"/>
   <rect x="576"
         y="715"
         width="106"
         height="32"
         class="terminal"
         rx="10"/>
   <text class="terminal" x="586" y="735">BLOOM_FPR</text>
   <rect x="578" y="761" width="144" height="32" rx="10"/>
   <rect x="576"
         y="759"
         width="144"
         height="32"
         class="terminal"
         rx="10"/>
   <text class="terminal" x="586" y="779">RUN_SIZE_RATIO</text>
   <rect x="762" y="717" width="30" height="32" rx="10"/>
   <rect x="760"
         y="715"
         width="30"
         height="32"
         class="terminal"
         rx="10"/>
   <text class="terminal" x="770" y="735">=</text>
   <a xmlns:xlink="http://www.w3.org/1999/xlink"
      xlink:href="../../sql_types#decimal"
      xlink:title="decimal">
      <rect x="812" y="717" width="68" height="32"/>
      <rect x="810" y="715" width="68" height="32" class="nonterminal"/>
      <text class="nonterminal" x="820" y="735">decimal</text>
   </a>
   <rect x="578" y="805" width="96" height="32" rx="10"/>
   <rect x="576"
         y="803"
         width="96"
         height="32"
         class="terminal"
         rx="10"/>
   <text class="terminal" x="586" y="823">PAGE_SIZE</text>
   <rect x="578" y="849" width="108" height="32" rx="10"/>
   <rect x="576"
         y="847"
         width="108"
         height="32"
         class="terminal"
         rx="10"/>
   <text class="terminal" x="586" y="867">RANGE_SIZE</text>
   <rect x="578" y="893" width="192" height="32" rx="10"/>
   <rect x="576"
         y="891"
         width="192"
         height="32"
         class="terminal"
         rx="10"/>
   <text class="terminal" x="586" y="911">RUN_COUNT_PER_LEVEL</text>
   <rect x="810" y="805" width="30" height="32" rx="10"/>
   <rect x="808"
         y="803"
         width="30"
         height="32"
         class="terminal"
         rx="10"/>
   <text class="terminal" x="818" y="823">=</text>
   <a xmlns:xlink="http://www.w3.org/1999/xlink"
      xlink:href="../../sql_types#unsigned"
      xlink:title="unsigned">
      <rect x="860" y="805" width="78" height="32"/>
      <rect x="858" y="803" width="78" height="32" class="nonterminal"/>
      <text class="nonterminal" x="868" y="823">unsigned</text>
   </a>
   <rect x="558" y="937" width="174" height="32" rx="10"/>
   <rect x="556"
         y="935"
         width="174"
         height="32"
         class="terminal"
         rx="10"/>
   <text class="terminal" x="566" y="955">COMPRESSION_LEVEL</text>
   <rect x="752" y="937" width="30" height="32" rx="10"/>
   <rect x="750"
         y="935"
         width="30"
         height="32"
         class="terminal"
         rx="10"/>
   <text class="terminal" x="760" y="955">=</text>
   <a xmlns:xlink="http://www.w3.org/1999/xlink"
      xlink:href="../../sql_types#integer"
      xlink:title="integer">
      <rect x="802" y="937" width="64" height="32"/>
      <rect x="800" y="935" width="64" height="32" class="nonterminal"/>
      <text class="nonterminal" x="810" y="955">integer</text>
   </a>
   <rect x="538" y="673" width="24" height="32" rx="10"/>
   <rect x="536"
         y="671"
         width="24"
         height="32"
         class="terminal"
         rx="10"/>
   <text class="terminal" x="546" y="691">,</text>
   <rect x="998" y="717" width="26" height="32" rx="10"/>
   <rect x="996"
         y="715"
         width="26"
         height="32"
         class="terminal"
         rx="10"/>
   <text class="terminal" x="1006" y="735">)</text>
   <rect x="298" y="1079" width="114" height="32" rx="10"/>
   <rect x="296"
         y="1077"
         width="114"
         height="32"
         class="terminal"
         rx="10"/>
   <text class="terminal" x="306" y="1097">DISTRIBUTED</text>
   <rect x="452" y="1079" width="38" height="32" rx="10"/>
   <rect x="450"
         y="1077"
         width="38"
         height="32"
         class="terminal"
         rx="10"/>
   <text class="terminal" x="460" y="1097">BY</text>
   <rect x="510" y="1079" width="26" height="32" rx="10"/>
   <rect x="508"
         y="1077"
         width="26"
         height="32"
         class="terminal"
         rx="10"/>
   <text class="terminal" x="518" y="1097">(</text>
   <a xmlns:xlink="http://www.w3.org/1999/xlink"
      xlink:href="../object"
      xlink:title="column">
      <rect x="576" y="1079" width="64" height="32"/>
      <rect x="574" y="1077" width="64" height="32" class="nonterminal"/>
      <text class="nonterminal" x="584" y="1097">column</text>
   </a>
   <rect x="576" y="1035" width="24" height="32" rx="10"/>
   <rect x="574"
         y="1033"
         width="24"
         height="32"
         class="terminal"
         rx="10"/>
   <text class="terminal" x="584" y="1053">,</text>
   <rect x="680" y="1079" width="26" height="32" rx="10"/>
   <rect x="678"
         y="1077"
         width="26"
         height="32"
         class="terminal"
         rx="10"/>
   <text class="terminal" x="688" y="1097">)</text>
   <rect x="746" y="1111" width="36" height="32" rx="10"/>
   <rect x="744"
         y="1109"
         width="36"
         height="32"
         class="terminal"
         rx="10"/>
   <text class="terminal" x="754" y="1129">IN</text>
   <rect x="802" y="1111" width="52" height="32" rx="10"/>
   <rect x="800"
         y="1109"
         width="52"
         height="32"
         class="terminal"
         rx="10"/>
   <text class="terminal" x="810" y="1129">TIER</text>
   <a xmlns:xlink="http://www.w3.org/1999/xlink"
      xlink:href="../object"
      xlink:title="tier">
      <rect x="874" y="1111" width="40" height="32"/>
      <rect x="872" y="1109" width="40" height="32" class="nonterminal"/>
      <text class="nonterminal" x="882" y="1129">tier</text>
   </a>
   <rect x="452" y="1155" width="92" height="32" rx="10"/>
   <rect x="450"
         y="1153"
         width="92"
         height="32"
         class="terminal"
         rx="10"/>
   <text class="terminal" x="460" y="1173">GLOBALLY</text>
   <rect x="429" y="1257" width="58" height="32" rx="10"/>
   <rect x="427"
         y="1255"
         width="58"
         height="32"
         class="terminal"
         rx="10"/>
   <text class="terminal" x="437" y="1275">WAIT</text>
   <rect x="507" y="1257" width="80" height="32" rx="10"/>
   <rect x="505"
         y="1255"
         width="80"
         height="32"
         class="terminal"
         rx="10"/>
   <text class="terminal" x="515" y="1275">APPLIED</text>
   <rect x="627" y="1257" width="92" height="32" rx="10"/>
   <rect x="625"
         y="1255"
         width="92"
         height="32"
         class="terminal"
         rx="10"/>
   <text class="terminal" x="635" y="1275">GLOBALLY</text>
   <rect x="627" y="1301" width="82" height="32" rx="10"/>
   <rect x="625"
         y="1299"
         width="82"
         height="32"
         class="terminal"
         rx="10"/>
   <text class="terminal" x="635" y="1319">LOCALLY</text>
   <rect x="799" y="1257" width="76" height="32" rx="10"/>
   <rect x="797"
         y="1255"
         width="76"
         height="32"
         class="terminal"
         rx="10"/>
   <text class="terminal" x="807" y="1275">OPTION</text>
   <rect x="895" y="1257" width="26" height="32" rx="10"/>
   <rect x="893"
         y="1255"
         width="26"
         height="32"
         class="terminal"
         rx="10"/>
   <text class="terminal" x="903" y="1275">(</text>
   <rect x="941" y="1257" width="82" height="32" rx="10"/>
   <rect x="939"
         y="1255"
         width="82"
         height="32"
         class="terminal"
         rx="10"/>
   <text class="terminal" x="949" y="1275">TIMEOUT</text>
   <rect x="1043" y="1257" width="30" height="32" rx="10"/>
   <rect x="1041"
         y="1255"
         width="30"
         height="32"
         class="terminal"
         rx="10"/>
   <text class="terminal" x="1051" y="1275">=</text>
   <a xmlns:xlink="http://www.w3.org/1999/xlink"
      xlink:href="../../sql_types#double"
      xlink:title="double">
      <rect x="1093" y="1257" width="62" height="32"/>
      <rect x="1091"
            y="1255"
            width="62"
            height="32"
            class="nonterminal"/>
      <text class="nonterminal" x="1101" y="1275">double</text>
   </a>
   <rect x="1175" y="1257" width="26" height="32" rx="10"/>
   <rect x="1173"
         y="1255"
         width="26"
         height="32"
         class="terminal"
         rx="10"/>
   <text class="terminal" x="1183" y="1275">)</text>
   <path class="line"
         d="m17 17 h2 m0 0 h10 m72 0 h10 m20 0 h10 m0 0 h106 m-136 0 h20 m116 0 h20 m-156 0 q10 0 10 10 m136 0 q0 -10 10 -10 m-146 10 v12 m136 0 v-12 m-136 12 q0 10 10 10 m116 0 q10 0 10 -10 m-126 10 h10 m96 0 h10 m20 -32 h10 m62 0 h10 m20 0 h10 m0 0 h202 m-232 0 h20 m212 0 h20 m-252 0 q10 0 10 10 m232 0 q0 -10 10 -10 m-242 10 v12 m232 0 v-12 m-232 12 q0 10 10 10 m212 0 q10 0 10 -10 m-222 10 h10 m34 0 h10 m0 0 h10 m48 0 h10 m0 0 h10 m70 0 h10 m20 -32 h10 m52 0 h10 m0 0 h10 m26 0 h10 m2 0 l2 0 m2 0 l2 0 m2 0 l2 0 m-730 142 l2 0 m2 0 l2 0 m2 0 l2 0 m22 0 h10 m64 0 h10 m20 0 h10 m132 0 h10 m20 0 h10 m0 0 h306 m-336 0 h20 m316 0 h20 m-356 0 q10 0 10 10 m336 0 q0 -10 10 -10 m-346 10 v12 m336 0 v-12 m-336 12 q0 10 10 10 m316 0 q10 0 10 -10 m-326 10 h10 m26 0 h10 m20 0 h10 m0 0 h88 m-118 0 h20 m98 0 h20 m-138 0 q10 0 10 10 m118 0 q0 -10 10 -10 m-128 10 v12 m118 0 v-12 m-118 12 q0 10 10 10 m98 0 q10 0 10 -10 m-108 10 h10 m78 0 h10 m20 -32 h10 m26 0 h10 m0 0 h86 m-326 -10 v20 m336 0 v-20 m-336 20 v56 m336 0 v-56 m-336 56 q0 10 10 10 m316 0 q10 0 10 -10 m-326 10 h10 m66 0 h10 m20 0 h10 m0 0 h180 m-210 0 h20 m190 0 h20 m-230 0 q10 0 10 10 m210 0 q0 -10 10 -10 m-220 10 v12 m210 0 v-12 m-210 12 q0 10 10 10 m190 0 q10 0 10 -10 m-200 10 h10 m26 0 h10 m0 0 h10 m78 0 h10 m0 0 h10 m26 0 h10 m-488 -140 h20 m508 0 h20 m-548 0 q10 0 10 10 m528 0 q0 -10 10 -10 m-538 10 v164 m528 0 v-164 m-528 164 q0 10 10 10 m508 0 q10 0 10 -10 m-518 10 h10 m92 0 h10 m0 0 h396 m40 -184 h10 m0 0 h174 m-204 0 h20 m184 0 h20 m-224 0 q10 0 10 10 m204 0 q0 -10 10 -10 m-214 10 v12 m204 0 v-12 m-204 12 q0 10 10 10 m184 0 q10 0 10 -10 m-174 10 h10 m0 0 h58 m-88 0 h20 m68 0 h20 m-108 0 q10 0 10 10 m88 0 q0 -10 10 -10 m-98 10 v12 m88 0 v-12 m-88 12 q0 10 10 10 m68 0 q10 0 10 -10 m-78 10 h10 m48 0 h10 m20 -32 h10 m56 0 h10 m40 -32 h10 m0 0 h276 m-306 0 h20 m286 0 h20 m-326 0 q10 0 10 10 m306 0 q0 -10 10 -10 m-316 10 v12 m306 0 v-12 m-306 12 q0 10 10 10 m286 0 q10 0 10 -10 m-296 10 h10 m84 0 h10 m0 0 h10 m46 0 h10 m20 0 h10 m0 0 h66 m-96 0 h20 m76 0 h20 m-116 0 q10 0 10 10 m96 0 q0 -10 10 -10 m-106 10 v12 m96 0 v-12 m-96 12 q0 10 10 10 m76 0 q10 0 10 -10 m-86 10 h10 m46 0 h10 m0 0 h10 m-86 -10 v20 m96 0 v-20 m-96 20 v24 m96 0 v-24 m-96 24 q0 10 10 10 m76 0 q10 0 10 -10 m-86 10 h10 m56 0 h10 m-1162 -108 l20 0 m-1 0 q-9 0 -9 -10 l0 -24 q0 -10 10 -10 m1182 44 l20 0 m-20 0 q10 0 10 -10 l0 -24 q0 -10 -10 -10 m-1182 0 h10 m24 0 h10 m0 0 h1138 m22 44 l2 0 m2 0 l2 0 m2 0 l2 0 m-1102 294 l2 0 m2 0 l2 0 m2 0 l2 0 m22 0 h10 m24 0 h10 m0 0 h10 m84 0 h10 m0 0 h10 m46 0 h10 m0 0 h10 m26 0 h10 m20 0 h10 m0 0 h252 m-282 0 h20 m262 0 h20 m-302 0 q10 0 10 10 m282 0 q0 -10 10 -10 m-292 10 v12 m282 0 v-12 m-282 12 q0 10 10 10 m262 0 q10 0 10 -10 m-272 10 h10 m82 0 h10 m20 0 h10 m0 0 h66 m-96 0 h20 m76 0 h20 m-116 0 q10 0 10 10 m96 0 q0 -10 10 -10 m-106 10 v12 m96 0 v-12 m-96 12 q0 10 10 10 m76 0 q10 0 10 -10 m-86 10 h10 m46 0 h10 m0 0 h10 m-86 -10 v20 m96 0 v-20 m-96 20 v24 m96 0 v-24 m-96 24 q0 10 10 10 m76 0 q10 0 10 -10 m-86 10 h10 m56 0 h10 m20 -76 h10 m24 0 h10 m40 -32 h10 m64 0 h10 m20 0 h10 m0 0 h66 m-96 0 h20 m76 0 h20 m-116 0 q10 0 10 10 m96 0 q0 -10 10 -10 m-106 10 v12 m96 0 v-12 m-96 12 q0 10 10 10 m76 0 q10 0 10 -10 m-86 10 h10 m46 0 h10 m0 0 h10 m-86 -10 v20 m96 0 v-20 m-96 20 v24 m96 0 v-24 m-96 24 q0 10 10 10 m76 0 q10 0 10 -10 m-86 10 h10 m56 0 h10 m-200 -76 l20 0 m-1 0 q-9 0 -9 -10 l0 -24 q0 -10 10 -10 m200 44 l20 0 m-20 0 q10 0 10 -10 l0 -24 q0 -10 -10 -10 m-200 0 h10 m24 0 h10 m0 0 h156 m20 44 h10 m26 0 h10 m-868 0 h20 m848 0 h20 m-888 0 q10 0 10 10 m868 0 q0 -10 10 -10 m-878 10 v122 m868 0 v-122 m-868 122 q0 10 10 10 m848 0 q10 0 10 -10 m-858 10 h10 m0 0 h838 m20 -142 h10 m26 0 h10 m2 0 l2 0 m2 0 l2 0 m2 0 l2 0 m-959 190 l2 0 m2 0 l2 0 m2 0 l2 0 m22 0 h10 m64 0 h10 m20 0 h10 m68 0 h10 m0 0 h684 m-792 0 h20 m772 0 h20 m-812 0 q10 0 10 10 m792 0 q0 -10 10 -10 m-802 10 v68 m792 0 v-68 m-792 68 q0 10 10 10 m772 0 q10 0 10 -10 m-782 10 h10 m62 0 h10 m20 0 h10 m58 0 h10 m0 0 h10 m26 0 h10 m60 0 h10 m106 0 h10 m0 0 h38 m-184 0 h20 m164 0 h20 m-204 0 q10 0 10 10 m184 0 q0 -10 10 -10 m-194 10 v24 m184 0 v-24 m-184 24 q0 10 10 10 m164 0 q10 0 10 -10 m-174 10 h10 m144 0 h10 m20 -44 h10 m30 0 h10 m0 0 h10 m68 0 h10 m0 0 h58 m-420 0 h20 m400 0 h20 m-440 0 q10 0 10 10 m420 0 q0 -10 10 -10 m-430 10 v68 m420 0 v-68 m-420 68 q0 10 10 10 m400 0 q10 0 10 -10 m-390 10 h10 m96 0 h10 m0 0 h96 m-232 0 h20 m212 0 h20 m-252 0 q10 0 10 10 m232 0 q0 -10 10 -10 m-242 10 v24 m232 0 v-24 m-232 24 q0 10 10 10 m212 0 q10 0 10 -10 m-222 10 h10 m108 0 h10 m0 0 h84 m-222 -10 v20 m232 0 v-20 m-232 20 v24 m232 0 v-24 m-232 24 q0 10 10 10 m212 0 q10 0 10 -10 m-222 10 h10 m192 0 h10 m20 -88 h10 m30 0 h10 m0 0 h10 m78 0 h10 m-410 -10 v20 m420 0 v-20 m-420 20 v112 m420 0 v-112 m-420 112 q0 10 10 10 m400 0 q10 0 10 -10 m-410 10 h10 m174 0 h10 m0 0 h10 m30 0 h10 m0 0 h10 m64 0 h10 m0 0 h72 m-440 -220 l20 0 m-1 0 q-9 0 -9 -10 l0 -24 q0 -10 10 -10 m440 44 l20 0 m-20 0 q10 0 10 -10 l0 -24 q0 -10 -10 -10 m-440 0 h10 m24 0 h10 m0 0 h396 m20 44 h10 m26 0 h10 m-670 0 h20 m650 0 h20 m-690 0 q10 0 10 10 m670 0 q0 -10 10 -10 m-680 10 v234 m670 0 v-234 m-670 234 q0 10 10 10 m650 0 q10 0 10 -10 m-660 10 h10 m0 0 h640 m-876 -342 h20 m896 0 h20 m-936 0 q10 0 10 10 m916 0 q0 -10 10 -10 m-926 10 v338 m916 0 v-338 m-916 338 q0 10 10 10 m896 0 q10 0 10 -10 m-906 10 h10 m0 0 h886 m22 -358 l2 0 m2 0 l2 0 m2 0 l2 0 m-850 450 l2 0 m2 0 l2 0 m2 0 l2 0 m22 0 h10 m114 0 h10 m20 0 h10 m38 0 h10 m0 0 h10 m26 0 h10 m20 0 h10 m64 0 h10 m-104 0 l20 0 m-1 0 q-9 0 -9 -10 l0 -24 q0 -10 10 -10 m84 44 l20 0 m-20 0 q10 0 10 -10 l0 -24 q0 -10 -10 -10 m-84 0 h10 m24 0 h10 m0 0 h40 m20 44 h10 m26 0 h10 m20 0 h10 m0 0 h178 m-208 0 h20 m188 0 h20 m-228 0 q10 0 10 10 m208 0 q0 -10 10 -10 m-218 10 v12 m208 0 v-12 m-208 12 q0 10 10 10 m188 0 q10 0 10 -10 m-198 10 h10 m36 0 h10 m0 0 h10 m52 0 h10 m0 0 h10 m40 0 h10 m-502 -32 h20 m502 0 h20 m-542 0 q10 0 10 10 m522 0 q0 -10 10 -10 m-532 10 v56 m522 0 v-56 m-522 56 q0 10 10 10 m502 0 q10 0 10 -10 m-512 10 h10 m92 0 h10 m0 0 h390 m-676 -76 h20 m676 0 h20 m-716 0 q10 0 10 10 m696 0 q0 -10 10 -10 m-706 10 v90 m696 0 v-90 m-696 90 q0 10 10 10 m676 0 q10 0 10 -10 m-686 10 h10 m0 0 h666 m22 -110 l2 0 m2 0 l2 0 m2 0 l2 0 m-609 146 l2 0 m2 0 l2 0 m2 0 l2 0 m22 0 h10 m0 0 h320 m-350 0 h20 m330 0 h20 m-370 0 q10 0 10 10 m350 0 q0 -10 10 -10 m-360 10 v12 m350 0 v-12 m-350 12 q0 10 10 10 m330 0 q10 0 10 -10 m-340 10 h10 m58 0 h10 m0 0 h10 m80 0 h10 m20 0 h10 m92 0 h10 m-132 0 h20 m112 0 h20 m-152 0 q10 0 10 10 m132 0 q0 -10 10 -10 m-142 10 v24 m132 0 v-24 m-132 24 q0 10 10 10 m112 0 q10 0 10 -10 m-122 10 h10 m82 0 h10 m0 0 h10 m60 -76 h10 m0 0 h412 m-442 0 h20 m422 0 h20 m-462 0 q10 0 10 10 m442 0 q0 -10 10 -10 m-452 10 v12 m442 0 v-12 m-442 12 q0 10 10 10 m422 0 q10 0 10 -10 m-432 10 h10 m76 0 h10 m0 0 h10 m26 0 h10 m0 0 h10 m82 0 h10 m0 0 h10 m30 0 h10 m0 0 h10 m62 0 h10 m0 0 h10 m26 0 h10 m23 -32 h-3"/>
   <polygon points="1239 1239 1247 1235 1247 1243"/>
   <polygon points="1239 1239 1231 1235 1231 1243"/>
</svg>
