<?xml version="1.0" encoding="UTF-8"?>
<svg xmlns="http://www.w3.org/2000/svg" width="887" height="199" viewBox="0 0 887 199">
   <defs>
      <style type="text/css">
    @namespace "http://www.w3.org/2000/svg";
    .line                 {fill: none; stroke: #330000; stroke-width: 1;}
    .bold-line            {stroke: #140000; shape-rendering: crispEdges; stroke-width: 2;}
    .thin-line            {stroke: #1F0000; shape-rendering: crispEdges}
    .filled               {fill: #330000; stroke: none;}
    text.terminal         {font-family: Verdana, Sans-serif;
                            font-size: 12px;
                            fill: #140000;
                            font-weight: bold;
                          }
    text.nonterminal      {font-family: Verdana, Sans-serif;
                            font-size: 12px;
                            fill: #1A0000;
                            font-weight: normal;
                          }
    text.regexp           {font-family: Verdana, Sans-serif;
                            font-size: 12px;
                            fill: #1F0000;
                            font-weight: normal;
                          }
    rect, circle, polygon {fill: #330000; stroke: #330000;}
    rect.terminal         {fill: #FF4D4D; stroke: #330000; stroke-width: 1;}
    rect.nonterminal      {fill: #FF9E9E; stroke: #330000; stroke-width: 1;}
    rect.text             {fill: none; stroke: none;}
    polygon.regexp        {fill: #FFC7C7; stroke: #330000; stroke-width: 1;}
  </style>
   </defs>
   <polygon points="9 17 1 13 1 21"/>
   <polygon points="17 17 9 13 9 21"/>
   <rect x="31" y="3" width="72" height="32" rx="10"/>
   <rect x="29"
         y="1"
         width="72"
         height="32"
         class="terminal"
         rx="10"/>
   <text class="terminal" x="39" y="21">CREATE</text>
   <rect x="123" y="3" width="56" height="32" rx="10"/>
   <rect x="121"
         y="1"
         width="56"
         height="32"
         class="terminal"
         rx="10"/>
   <text class="terminal" x="131" y="21">ROLE</text>
   <rect x="219" y="35" width="34" height="32" rx="10"/>
   <rect x="217"
         y="33"
         width="34"
         height="32"
         class="terminal"
         rx="10"/>
   <text class="terminal" x="227" y="53">IF</text>
   <rect x="273" y="35" width="48" height="32" rx="10"/>
   <rect x="271"
         y="33"
         width="48"
         height="32"
         class="terminal"
         rx="10"/>
   <text class="terminal" x="281" y="53">NOT</text>
   <rect x="341" y="35" width="70" height="32" rx="10"/>
   <rect x="339"
         y="33"
         width="70"
         height="32"
         class="terminal"
         rx="10"/>
   <text class="terminal" x="349" y="53">EXISTS</text>
   <a xmlns:xlink="http://www.w3.org/1999/xlink"
      xlink:href="../object"
      xlink:title="role">
      <rect x="451" y="3" width="44" height="32"/>
      <rect x="449" y="1" width="44" height="32" class="nonterminal"/>
      <text class="nonterminal" x="459" y="21">role</text>
   </a>
   <rect x="535" y="35" width="58" height="32" rx="10"/>
   <rect x="533"
         y="33"
         width="58"
         height="32"
         class="terminal"
         rx="10"/>
   <text class="terminal" x="543" y="53">WAIT</text>
   <rect x="613" y="35" width="80" height="32" rx="10"/>
   <rect x="611"
         y="33"
         width="80"
         height="32"
         class="terminal"
         rx="10"/>
   <text class="terminal" x="621" y="53">APPLIED</text>
   <rect x="733" y="35" width="92" height="32" rx="10"/>
   <rect x="731"
         y="33"
         width="92"
         height="32"
         class="terminal"
         rx="10"/>
   <text class="terminal" x="741" y="53">GLOBALLY</text>
   <rect x="733" y="79" width="82" height="32" rx="10"/>
   <rect x="731"
         y="77"
         width="82"
         height="32"
         class="terminal"
         rx="10"/>
   <text class="terminal" x="741" y="97">LOCALLY</text>
   <rect x="437" y="165" width="76" height="32" rx="10"/>
   <rect x="435"
         y="163"
         width="76"
         height="32"
         class="terminal"
         rx="10"/>
   <text class="terminal" x="445" y="183">OPTION</text>
   <rect x="533" y="165" width="26" height="32" rx="10"/>
   <rect x="531"
         y="163"
         width="26"
         height="32"
         class="terminal"
         rx="10"/>
   <text class="terminal" x="541" y="183">(</text>
   <rect x="579" y="165" width="82" height="32" rx="10"/>
   <rect x="577"
         y="163"
         width="82"
         height="32"
         class="terminal"
         rx="10"/>
   <text class="terminal" x="587" y="183">TIMEOUT</text>
   <rect x="681" y="165" width="30" height="32" rx="10"/>
   <rect x="679"
         y="163"
         width="30"
         height="32"
         class="terminal"
         rx="10"/>
   <text class="terminal" x="689" y="183">=</text>
   <a xmlns:xlink="http://www.w3.org/1999/xlink"
      xlink:href="../../sql_types#double"
      xlink:title="double">
      <rect x="731" y="165" width="62" height="32"/>
      <rect x="729" y="163" width="62" height="32" class="nonterminal"/>
      <text class="nonterminal" x="739" y="183">double</text>
   </a>
   <rect x="813" y="165" width="26" height="32" rx="10"/>
   <rect x="811"
         y="163"
         width="26"
         height="32"
         class="terminal"
         rx="10"/>
   <text class="terminal" x="821" y="183">)</text>
   <path class="line"
         d="m17 17 h2 m0 0 h10 m72 0 h10 m0 0 h10 m56 0 h10 m20 0 h10 m0 0 h202 m-232 0 h20 m212 0 h20 m-252 0 q10 0 10 10 m232 0 q0 -10 10 -10 m-242 10 v12 m232 0 v-12 m-232 12 q0 10 10 10 m212 0 q10 0 10 -10 m-222 10 h10 m34 0 h10 m0 0 h10 m48 0 h10 m0 0 h10 m70 0 h10 m20 -32 h10 m44 0 h10 m20 0 h10 m0 0 h320 m-350 0 h20 m330 0 h20 m-370 0 q10 0 10 10 m350 0 q0 -10 10 -10 m-360 10 v12 m350 0 v-12 m-350 12 q0 10 10 10 m330 0 q10 0 10 -10 m-340 10 h10 m58 0 h10 m0 0 h10 m80 0 h10 m20 0 h10 m92 0 h10 m-132 0 h20 m112 0 h20 m-152 0 q10 0 10 10 m132 0 q0 -10 10 -10 m-142 10 v24 m132 0 v-24 m-132 24 q0 10 10 10 m112 0 q10 0 10 -10 m-122 10 h10 m82 0 h10 m0 0 h10 m42 -76 l2 0 m2 0 l2 0 m2 0 l2 0 m-492 130 l2 0 m2 0 l2 0 m2 0 l2 0 m22 0 h10 m0 0 h412 m-442 0 h20 m422 0 h20 m-462 0 q10 0 10 10 m442 0 q0 -10 10 -10 m-452 10 v12 m442 0 v-12 m-442 12 q0 10 10 10 m422 0 q10 0 10 -10 m-432 10 h10 m76 0 h10 m0 0 h10 m26 0 h10 m0 0 h10 m82 0 h10 m0 0 h10 m30 0 h10 m0 0 h10 m62 0 h10 m0 0 h10 m26 0 h10 m23 -32 h-3"/>
   <polygon points="877 147 885 143 885 151"/>
   <polygon points="877 147 869 143 869 151"/>
</svg>
