<?xml version="1.0" encoding="UTF-8" standalone="no"?>
<svg
   width="885"
   height="529"
   viewBox="0 0 885 529"
   version="1.1"
   id="svg70"
   sodipodi:docname="create_procedure.svg"
   inkscape:version="1.4.2 (ebf0e940d0, 2025-05-08)"
   xmlns:inkscape="http://www.inkscape.org/namespaces/inkscape"
   xmlns:sodipodi="http://sodipodi.sourceforge.net/DTD/sodipodi-0.dtd"
   xmlns:xlink="http://www.w3.org/1999/xlink"
   xmlns="http://www.w3.org/2000/svg"
   xmlns:svg="http://www.w3.org/2000/svg">
  <sodipodi:namedview
     id="namedview70"
     pagecolor="#ffffff"
     bordercolor="#666666"
     borderopacity="1.0"
     inkscape:showpageshadow="2"
     inkscape:pageopacity="0.0"
     inkscape:pagecheckerboard="0"
     inkscape:deskcolor="#d1d1d1"
     inkscape:zoom="0.7055088"
     inkscape:cx="683.90359"
     inkscape:cy="-64.492463"
     inkscape:window-width="1858"
     inkscape:window-height="1014"
     inkscape:window-x="62"
     inkscape:window-y="29"
     inkscape:window-maximized="1"
     inkscape:current-layer="svg70" />
  <defs
     id="defs1">
    <style
       type="text/css"
       id="style1">@namespace &quot;http://www.w3.org/2000/svg&quot;;.line { fill: none; stroke: #330000; stroke-width: 1; }
.bold-line { stroke: #140000; shape-rendering: crispEdges; stroke-width: 2; }
.thin-line { stroke: #1F0000; shape-rendering: crispEdges }
.filled { fill: #330000; stroke: none; }
text.terminal { font-family: Verdana, Sans-serif;                            font-size: 12px;                            fill: #140000;                            font-weight: bold; }
text.nonterminal { font-family: Verdana, Sans-serif;                            font-size: 12px;                            fill: #1A0000;                            font-weight: normal; }
text.regexp { font-family: Verdana, Sans-serif;                            font-size: 12px;                            fill: #1F0000;                            font-weight: normal; }
rect, circle, polygon { fill: #330000; stroke: #330000; }
rect.terminal { fill: #FF4D4D; stroke: #330000; stroke-width: 1; }
rect.nonterminal { fill: #FF9E9E; stroke: #330000; stroke-width: 1; }
rect.text { fill: none; stroke: none; }
polygon.regexp { fill: #FFC7C7; stroke: #330000; stroke-width: 1; }
</style>
  </defs>
  <polygon
     points="9 61 1 57 1 65"
     id="polygon1" />
  <polygon
     points="17 61 9 57 9 65"
     id="polygon2" />
  <rect
     x="31"
     y="47"
     width="72"
     height="32"
     rx="10"
     id="rect2" />
  <rect
     x="29"
     y="45"
     width="72"
     height="32"
     class="terminal"
     rx="10"
     id="rect3" />
  <text
     class="terminal"
     x="39"
     y="65"
     id="text3">CREATE</text>
  <rect
     x="123"
     y="47"
     width="104"
     height="32"
     rx="10"
     id="rect4" />
  <rect
     x="121"
     y="45"
     width="104"
     height="32"
     class="terminal"
     rx="10"
     id="rect5" />
  <text
     class="terminal"
     x="131"
     y="65"
     id="text5">PROCEDURE</text>
  <rect
     x="267"
     y="79"
     width="34"
     height="32"
     rx="10"
     id="rect6" />
  <rect
     x="265"
     y="77"
     width="34"
     height="32"
     class="terminal"
     rx="10"
     id="rect7" />
  <text
     class="terminal"
     x="275"
     y="97"
     id="text7">IF</text>
  <rect
     x="321"
     y="79"
     width="48"
     height="32"
     rx="10"
     id="rect8" />
  <rect
     x="319"
     y="77"
     width="48"
     height="32"
     class="terminal"
     rx="10"
     id="rect9" />
  <text
     class="terminal"
     x="329"
     y="97"
     id="text9">NOT</text>
  <rect
     x="389"
     y="79"
     width="70"
     height="32"
     rx="10"
     id="rect10" />
  <rect
     x="387"
     y="77"
     width="70"
     height="32"
     class="terminal"
     rx="10"
     id="rect11" />
  <text
     class="terminal"
     x="397"
     y="97"
     id="text11">EXISTS</text>
  <a
     xlink:href="../object"
     xlink:title="procedure"
     id="a13">
    <rect
       x="499"
       y="47"
       width="84"
       height="32"
       id="rect12" />
    <rect
       x="497"
       y="45"
       width="84"
       height="32"
       class="nonterminal"
       id="rect13" />
    <text
       class="nonterminal"
       x="507"
       y="65"
       id="text13">procedure</text>
  </a>
  <rect
     x="603"
     y="47"
     width="26"
     height="32"
     rx="10"
     id="rect14" />
  <rect
     x="601"
     y="45"
     width="26"
     height="32"
     class="terminal"
     rx="10"
     id="rect15" />
  <text
     class="terminal"
     x="611"
     y="65"
     id="text15">(</text>
  <a
     xlink:href="#unrestricted_type"
     xlink:title="unrestricted_type"
     id="a17">
    <rect
       x="669"
       y="47"
       width="128"
       height="32"
       id="rect16" />
    <rect
       x="667"
       y="45"
       width="128"
       height="32"
       class="nonterminal"
       id="rect17" />
    <text
       class="nonterminal"
       x="677"
       y="65"
       id="text17">unrestricted_type</text>
  </a>
  <rect
     x="669"
     y="3"
     width="24"
     height="32"
     rx="10"
     id="rect18" />
  <rect
     x="667"
     y="1"
     width="24"
     height="32"
     class="terminal"
     rx="10"
     id="rect19" />
  <text
     class="terminal"
     x="677"
     y="21"
     id="text19">,</text>
  <rect
     x="837"
     y="47"
     width="26"
     height="32"
     rx="10"
     id="rect20" />
  <rect
     x="835"
     y="45"
     width="26"
     height="32"
     class="terminal"
     rx="10"
     id="rect21" />
  <text
     class="terminal"
     x="845"
     y="65"
     id="text21">)</text>
  <rect
     x="158"
     y="177"
     width="94"
     height="32"
     rx="10"
     id="rect22" />
  <rect
     x="156"
     y="175"
     width="94"
     height="32"
     class="terminal"
     rx="10"
     id="rect23" />
  <text
     class="terminal"
     x="166"
     y="195"
     id="text23">LANGUAGE</text>
  <rect
     x="272"
     y="177"
     width="48"
     height="32"
     rx="10"
     id="rect24" />
  <rect
     x="270"
     y="175"
     width="48"
     height="32"
     class="terminal"
     rx="10"
     id="rect25" />
  <text
     class="terminal"
     x="280"
     y="195"
     id="text25">SQL</text>
  <rect
     x="380"
     y="145"
     width="38"
     height="32"
     rx="10"
     id="rect26" />
  <rect
     x="378"
     y="143"
     width="38"
     height="32"
     class="terminal"
     rx="10"
     id="rect27" />
  <text
     class="terminal"
     x="388"
     y="163"
     id="text27">AS</text>
  <rect
     x="438"
     y="145"
     width="38"
     height="32"
     rx="10"
     id="rect28" />
  <rect
     x="436"
     y="143"
     width="38"
     height="32"
     class="terminal"
     rx="10"
     id="rect29" />
  <text
     class="terminal"
     x="446"
     y="163"
     id="text29">SS</text>
  <a
     xlink:href="../insert"
     xlink:title="insert"
     id="a31">
    <rect
       x="516"
       y="145"
       width="56"
       height="32"
       id="rect30" />
    <rect
       x="514"
       y="143"
       width="56"
       height="32"
       class="nonterminal"
       id="rect31" />
    <text
       class="nonterminal"
       x="524"
       y="163"
       id="text31">insert</text>
  </a>
  <a
     xlink:href="../update"
     xlink:title="update"
     id="a33">
    <rect
       x="516"
       y="189"
       width="64"
       height="32"
       id="rect32" />
    <rect
       x="514"
       y="187"
       width="64"
       height="32"
       class="nonterminal"
       id="rect33" />
    <text
       class="nonterminal"
       x="524"
       y="207"
       id="text33">update</text>
  </a>
  <a
     xlink:href="../delete"
     xlink:title="delete"
     id="a35">
    <rect
       x="516"
       y="233"
       width="60"
       height="32"
       id="rect34" />
    <rect
       x="514"
       y="231"
       width="60"
       height="32"
       class="nonterminal"
       id="rect35" />
    <text
       class="nonterminal"
       x="524"
       y="251"
       id="text35">delete</text>
  </a>
  <rect
     x="620"
     y="145"
     width="38"
     height="32"
     rx="10"
     id="rect36" />
  <rect
     x="618"
     y="143"
     width="38"
     height="32"
     class="terminal"
     rx="10"
     id="rect37" />
  <text
     class="terminal"
     x="628"
     y="163"
     id="text37">SS</text>
  <rect
     x="380"
     y="277"
     width="64"
     height="32"
     rx="10"
     id="rect38" />
  <rect
     x="378"
     y="275"
     width="64"
     height="32"
     class="terminal"
     rx="10"
     id="rect39" />
  <text
     class="terminal"
     x="388"
     y="295"
     id="text39">BEGIN</text>
  <rect
     x="464"
     y="277"
     width="74"
     height="32"
     rx="10"
     id="rect40" />
  <rect
     x="462"
     y="275"
     width="74"
     height="32"
     class="terminal"
     rx="10"
     id="rect41" />
  <text
     class="terminal"
     x="472"
     y="295"
     id="text41">ATOMIC</text>
  <a
     xlink:href="../insert"
     xlink:title="insert"
     id="a43">
    <rect
       x="578"
       y="277"
       width="56"
       height="32"
       id="rect42" />
    <rect
       x="576"
       y="275"
       width="56"
       height="32"
       class="nonterminal"
       id="rect43" />
    <text
       class="nonterminal"
       x="586"
       y="295"
       id="text43">insert</text>
  </a>
  <a
     xlink:href="../update"
     xlink:title="update"
     id="a45">
    <rect
       x="578"
       y="321"
       width="64"
       height="32"
       id="rect44" />
    <rect
       x="576"
       y="319"
       width="64"
       height="32"
       class="nonterminal"
       id="rect45" />
    <text
       class="nonterminal"
       x="586"
       y="339"
       id="text45">update</text>
  </a>
  <a
     xlink:href="../delete"
     xlink:title="delete"
     id="a47">
    <rect
       x="578"
       y="365"
       width="60"
       height="32"
       id="rect46" />
    <rect
       x="576"
       y="363"
       width="60"
       height="32"
       class="nonterminal"
       id="rect47" />
    <text
       class="nonterminal"
       x="586"
       y="383"
       id="text47">delete</text>
  </a>
  <rect
     x="682"
     y="277"
     width="48"
     height="32"
     rx="10"
     id="rect48" />
  <rect
     x="680"
     y="275"
     width="48"
     height="32"
     class="terminal"
     rx="10"
     id="rect49" />
  <text
     class="terminal"
     x="690"
     y="295"
     id="text49">END</text>
  <rect
     x="65"
     y="451"
     width="58"
     height="32"
     rx="10"
     id="rect50" />
  <rect
     x="63"
     y="449"
     width="58"
     height="32"
     class="terminal"
     rx="10"
     id="rect51" />
  <text
     class="terminal"
     x="73"
     y="469"
     id="text51">WAIT</text>
  <rect
     x="143"
     y="451"
     width="80"
     height="32"
     rx="10"
     id="rect52" />
  <rect
     x="141"
     y="449"
     width="80"
     height="32"
     class="terminal"
     rx="10"
     id="rect53" />
  <text
     class="terminal"
     x="151"
     y="469"
     id="text53">APPLIED</text>
  <rect
     x="263"
     y="451"
     width="92"
     height="32"
     rx="10"
     id="rect54" />
  <rect
     x="261"
     y="449"
     width="92"
     height="32"
     class="terminal"
     rx="10"
     id="rect55" />
  <text
     class="terminal"
     x="271"
     y="469"
     id="text55">GLOBALLY</text>
  <rect
     x="263"
     y="495"
     width="82"
     height="32"
     rx="10"
     id="rect56" />
  <rect
     x="261"
     y="493"
     width="82"
     height="32"
     class="terminal"
     rx="10"
     id="rect57" />
  <text
     class="terminal"
     x="271"
     y="513"
     id="text57">LOCALLY</text>
  <rect
     x="435"
     y="451"
     width="76"
     height="32"
     rx="10"
     id="rect58" />
  <rect
     x="433"
     y="449"
     width="76"
     height="32"
     class="terminal"
     rx="10"
     id="rect59" />
  <text
     class="terminal"
     x="443"
     y="469"
     id="text59">OPTION</text>
  <rect
     x="531"
     y="451"
     width="26"
     height="32"
     rx="10"
     id="rect60" />
  <rect
     x="529"
     y="449"
     width="26"
     height="32"
     class="terminal"
     rx="10"
     id="rect61" />
  <text
     class="terminal"
     x="539"
     y="469"
     id="text61">(</text>
  <rect
     x="577"
     y="451"
     width="82"
     height="32"
     rx="10"
     id="rect62" />
  <rect
     x="575"
     y="449"
     width="82"
     height="32"
     class="terminal"
     rx="10"
     id="rect63" />
  <text
     class="terminal"
     x="585"
     y="469"
     id="text63">TIMEOUT</text>
  <rect
     x="679"
     y="451"
     width="30"
     height="32"
     rx="10"
     id="rect64" />
  <rect
     x="677"
     y="449"
     width="30"
     height="32"
     class="terminal"
     rx="10"
     id="rect65" />
  <text
     class="terminal"
     x="687"
     y="469"
     id="text65">=</text>
  <a
     xlink:href="../../sql_types#double"
     xlink:title="double"
     id="a67">
    <rect
       x="729"
       y="451"
       width="62"
       height="32"
       id="rect66" />
    <rect
       x="727"
       y="449"
       width="62"
       height="32"
       class="nonterminal"
       id="rect67" />
    <text
       class="nonterminal"
       x="737"
       y="469"
       id="text67">double</text>
  </a>
  <rect
     x="811"
     y="451"
     width="26"
     height="32"
     rx="10"
     id="rect68" />
  <rect
     x="809"
     y="449"
     width="26"
     height="32"
     class="terminal"
     rx="10"
     id="rect69" />
  <text
     class="terminal"
     x="819"
     y="469"
     id="text69">)</text>
  <path
     class="line"
     d="m17 61 h2 m0 0 h10 m72 0 h10 m0 0 h10 m104 0 h10 m20 0 h10 m0 0 h202 m-232 0 h20 m212 0 h20 m-252 0 q10 0 10 10 m232 0 q0 -10 10 -10 m-242 10 v12 m232 0 v-12 m-232 12 q0 10 10 10 m212 0 q10 0 10 -10 m-222 10 h10 m34 0 h10 m0 0 h10 m48 0 h10 m0 0 h10 m70 0 h10 m20 -32 h10 m84 0 h10 m0 0 h10 m26 0 h10 m20 0 h10 m128 0 h10 m-168 0 l20 0 m-1 0 q-9 0 -9 -10 l0 -24 q0 -10 10 -10 m148 44 l20 0 m-20 0 q10 0 10 -10 l0 -24 q0 -10 -10 -10 m-148 0 h10 m24 0 h10 m0 0 h104 m20 44 h10 m26 0 h10 m2 0 l2 0 m2 0 l2 0 m2 0 l2 0 m-769 98 l2 0 m2 0 l2 0 m2 0 l2 0 m22 0 h10 m0 0 h172 m-202 0 h20 m182 0 h20 m-222 0 q10 0 10 10 m202 0 q0 -10 10 -10 m-212 10 v12 m202 0 v-12 m-202 12 q0 10 10 10 m182 0 q10 0 10 -10 m-192 10 h10 m94 0 h10 m0 0 h10 m48 0 h10 m40 -32 h10 m38 0 h10 m0 0 h10 m38 0 h10 m20 0 h10 m56 0 h10 m0 0 h8 m-104 0 h20 m84 0 h20 m-124 0 q10 0 10 10 m104 0 q0 -10 10 -10 m-114 10 v24 m104 0 v-24 m-104 24 q0 10 10 10 m84 0 q10 0 10 -10 m-94 10 h10 m64 0 h10 m-94 -10 v20 m104 0 v-20 m-104 20 v24 m104 0 v-24 m-104 24 q0 10 10 10 m84 0 q10 0 10 -10 m-94 10 h10 m60 0 h10 m0 0 h4 m20 -88 h10 m38 0 h10 m0 0 h72 m-390 0 h20 m370 0 h20 m-410 0 q10 0 10 10 m390 0 q0 -10 10 -10 m-400 10 v112 m390 0 v-112 m-390 112 q0 10 10 10 m370 0 q10 0 10 -10 m-380 10 h10 m64 0 h10 m0 0 h10 m74 0 h10 m20 0 h10 m56 0 h10 m0 0 h8 m-104 0 h20 m84 0 h20 m-124 0 q10 0 10 10 m104 0 q0 -10 10 -10 m-114 10 v24 m104 0 v-24 m-104 24 q0 10 10 10 m84 0 q10 0 10 -10 m-94 10 h10 m64 0 h10 m-94 -10 v20 m104 0 v-20 m-104 20 v24 m104 0 v-24 m-104 24 q0 10 10 10 m84 0 q10 0 10 -10 m-94 10 h10 m60 0 h10 m0 0 h4 m20 -88 h10 m48 0 h10 m22 -132 l2 0 m2 0 l2 0 m2 0 l2 0 m-749 274 l2 0 m2 0 l2 0 m2 0 l2 0 m22 0 h10 m0 0 h320 m-350 0 h20 m330 0 h20 m-370 0 q10 0 10 10 m350 0 q0 -10 10 -10 m-360 10 v12 m350 0 v-12 m-350 12 q0 10 10 10 m330 0 q10 0 10 -10 m-340 10 h10 m58 0 h10 m0 0 h10 m80 0 h10 m20 0 h10 m92 0 h10 m-132 0 h20 m112 0 h20 m-152 0 q10 0 10 10 m132 0 q0 -10 10 -10 m-142 10 v24 m132 0 v-24 m-132 24 q0 10 10 10 m112 0 q10 0 10 -10 m-122 10 h10 m82 0 h10 m0 0 h10 m60 -76 h10 m0 0 h412 m-442 0 h20 m422 0 h20 m-462 0 q10 0 10 10 m442 0 q0 -10 10 -10 m-452 10 v12 m442 0 v-12 m-442 12 q0 10 10 10 m422 0 q10 0 10 -10 m-432 10 h10 m76 0 h10 m0 0 h10 m26 0 h10 m0 0 h10 m82 0 h10 m0 0 h10 m30 0 h10 m0 0 h10 m62 0 h10 m0 0 h10 m26 0 h10 m23 -32 h-3"
     id="path69" />
  <polygon
     points="875 433 883 429 883 437"
     id="polygon69" />
  <polygon
     points="875 433 867 429 867 437"
     id="polygon70" />
  <path
     style="fill:none;stroke:#000000;stroke-width:0.916334px;stroke-linecap:butt;stroke-linejoin:miter;stroke-opacity:1"
     d="m 450.69202,152.38489 c 0,12.79421 0,12.79421 0,12.79421"
     id="path1" />
  <path
     style="fill:none;stroke:#000000;stroke-width:0.916334px;stroke-linecap:butt;stroke-linejoin:miter;stroke-opacity:1"
     d="m 459.1133,152.38489 c 0,12.79421 0,12.79421 0,12.79421"
     id="path2" />
  <path
     style="fill:none;stroke:#000000;stroke-width:0.916334px;stroke-linecap:butt;stroke-linejoin:miter;stroke-opacity:1"
     d="m 632.54216,152.38489 c 0,12.79421 0,12.79421 0,12.79421"
     id="path3" />
  <path
     style="fill:none;stroke:#000000;stroke-width:0.916334px;stroke-linecap:butt;stroke-linejoin:miter;stroke-opacity:1"
     d="m 640.96344,152.38489 c 0,12.79421 0,12.79421 0,12.79421"
     id="path4" />
</svg>
