<?xml version="1.0" encoding="UTF-8"?>
<svg xmlns="http://www.w3.org/2000/svg" width="865" height="199" viewBox="0 0 865 199">
   <defs>
      <style type="text/css">
    @namespace "http://www.w3.org/2000/svg";
    .line                 {fill: none; stroke: #330000; stroke-width: 1;}
    .bold-line            {stroke: #140000; shape-rendering: crispEdges; stroke-width: 2;}
    .thin-line            {stroke: #1F0000; shape-rendering: crispEdges}
    .filled               {fill: #330000; stroke: none;}
    text.terminal         {font-family: Verdana, Sans-serif;
                            font-size: 12px;
                            fill: #140000;
                            font-weight: bold;
                          }
    text.nonterminal      {font-family: Verdana, Sans-serif;
                            font-size: 12px;
                            fill: #1A0000;
                            font-weight: normal;
                          }
    text.regexp           {font-family: Verdana, Sans-serif;
                            font-size: 12px;
                            fill: #1F0000;
                            font-weight: normal;
                          }
    rect, circle, polygon {fill: #330000; stroke: #330000;}
    rect.terminal         {fill: #FF4D4D; stroke: #330000; stroke-width: 1;}
    rect.nonterminal      {fill: #FF9E9E; stroke: #330000; stroke-width: 1;}
    rect.text             {fill: none; stroke: none;}
    polygon.regexp        {fill: #FFC7C7; stroke: #330000; stroke-width: 1;}
  </style>
   </defs>
   <polygon points="11 17 3 13 3 21"/>
   <polygon points="19 17 11 13 11 21"/>
   <rect x="33" y="3" width="72" height="32" rx="10"/>
   <rect x="31"
         y="1"
         width="72"
         height="32"
         class="terminal"
         rx="10"/>
   <text class="terminal" x="41" y="21">CREATE</text>
   <rect x="125" y="3" width="72" height="32" rx="10"/>
   <rect x="123"
         y="1"
         width="72"
         height="32"
         class="terminal"
         rx="10"/>
   <text class="terminal" x="133" y="21">PLUGIN</text>
   <rect x="237" y="35" width="34" height="32" rx="10"/>
   <rect x="235"
         y="33"
         width="34"
         height="32"
         class="terminal"
         rx="10"/>
   <text class="terminal" x="245" y="53">IF</text>
   <rect x="291" y="35" width="48" height="32" rx="10"/>
   <rect x="289"
         y="33"
         width="48"
         height="32"
         class="terminal"
         rx="10"/>
   <text class="terminal" x="299" y="53">NOT</text>
   <rect x="359" y="35" width="70" height="32" rx="10"/>
   <rect x="357"
         y="33"
         width="70"
         height="32"
         class="terminal"
         rx="10"/>
   <text class="terminal" x="367" y="53">EXISTS</text>
   <a xmlns:xlink="http://www.w3.org/1999/xlink"
      xlink:href="../object"
      xlink:title="plugin">
      <rect x="469" y="3" width="58" height="32"/>
      <rect x="467" y="1" width="58" height="32" class="nonterminal"/>
      <text class="nonterminal" x="477" y="21">plugin</text>
   </a>
   <a xmlns:xlink="http://www.w3.org/1999/xlink"
      xlink:href=""
      xlink:title="version">
      <rect x="547" y="3" width="66" height="32"/>
      <rect x="545" y="1" width="66" height="32" class="nonterminal"/>
      <text class="nonterminal" x="555" y="21">version</text>
   </a>
   <rect x="45" y="121" width="58" height="32" rx="10"/>
   <rect x="43"
         y="119"
         width="58"
         height="32"
         class="terminal"
         rx="10"/>
   <text class="terminal" x="53" y="139">WAIT</text>
   <rect x="123" y="121" width="80" height="32" rx="10"/>
   <rect x="121"
         y="119"
         width="80"
         height="32"
         class="terminal"
         rx="10"/>
   <text class="terminal" x="131" y="139">APPLIED</text>
   <rect x="243" y="121" width="92" height="32" rx="10"/>
   <rect x="241"
         y="119"
         width="92"
         height="32"
         class="terminal"
         rx="10"/>
   <text class="terminal" x="251" y="139">GLOBALLY</text>
   <rect x="243" y="165" width="82" height="32" rx="10"/>
   <rect x="241"
         y="163"
         width="82"
         height="32"
         class="terminal"
         rx="10"/>
   <text class="terminal" x="251" y="183">LOCALLY</text>
   <rect x="415" y="121" width="76" height="32" rx="10"/>
   <rect x="413"
         y="119"
         width="76"
         height="32"
         class="terminal"
         rx="10"/>
   <text class="terminal" x="423" y="139">OPTION</text>
   <rect x="511" y="121" width="26" height="32" rx="10"/>
   <rect x="509"
         y="119"
         width="26"
         height="32"
         class="terminal"
         rx="10"/>
   <text class="terminal" x="519" y="139">(</text>
   <rect x="557" y="121" width="82" height="32" rx="10"/>
   <rect x="555"
         y="119"
         width="82"
         height="32"
         class="terminal"
         rx="10"/>
   <text class="terminal" x="565" y="139">TIMEOUT</text>
   <rect x="659" y="121" width="30" height="32" rx="10"/>
   <rect x="657"
         y="119"
         width="30"
         height="32"
         class="terminal"
         rx="10"/>
   <text class="terminal" x="667" y="139">=</text>
   <a xmlns:xlink="http://www.w3.org/1999/xlink"
      xlink:href="../../sql_types#double"
      xlink:title="double">
      <rect x="709" y="121" width="62" height="32"/>
      <rect x="707" y="119" width="62" height="32" class="nonterminal"/>
      <text class="nonterminal" x="717" y="139">double</text>
   </a>
   <rect x="791" y="121" width="26" height="32" rx="10"/>
   <rect x="789"
         y="119"
         width="26"
         height="32"
         class="terminal"
         rx="10"/>
   <text class="terminal" x="799" y="139">)</text>
   <path class="line"
         d="m19 17 h2 m0 0 h10 m72 0 h10 m0 0 h10 m72 0 h10 m20 0 h10 m0 0 h202 m-232 0 h20 m212 0 h20 m-252 0 q10 0 10 10 m232 0 q0 -10 10 -10 m-242 10 v12 m232 0 v-12 m-232 12 q0 10 10 10 m212 0 q10 0 10 -10 m-222 10 h10 m34 0 h10 m0 0 h10 m48 0 h10 m0 0 h10 m70 0 h10 m20 -32 h10 m58 0 h10 m0 0 h10 m66 0 h10 m2 0 l2 0 m2 0 l2 0 m2 0 l2 0 m-632 86 l2 0 m2 0 l2 0 m2 0 l2 0 m22 0 h10 m0 0 h320 m-350 0 h20 m330 0 h20 m-370 0 q10 0 10 10 m350 0 q0 -10 10 -10 m-360 10 v12 m350 0 v-12 m-350 12 q0 10 10 10 m330 0 q10 0 10 -10 m-340 10 h10 m58 0 h10 m0 0 h10 m80 0 h10 m20 0 h10 m92 0 h10 m-132 0 h20 m112 0 h20 m-152 0 q10 0 10 10 m132 0 q0 -10 10 -10 m-142 10 v24 m132 0 v-24 m-132 24 q0 10 10 10 m112 0 q10 0 10 -10 m-122 10 h10 m82 0 h10 m0 0 h10 m60 -76 h10 m0 0 h412 m-442 0 h20 m422 0 h20 m-462 0 q10 0 10 10 m442 0 q0 -10 10 -10 m-452 10 v12 m442 0 v-12 m-442 12 q0 10 10 10 m422 0 q10 0 10 -10 m-432 10 h10 m76 0 h10 m0 0 h10 m26 0 h10 m0 0 h10 m82 0 h10 m0 0 h10 m30 0 h10 m0 0 h10 m62 0 h10 m0 0 h10 m26 0 h10 m23 -32 h-3"/>
   <polygon points="855 103 863 99 863 107"/>
   <polygon points="855 103 847 99 847 107"/>
</svg>
