<?xml version="1.0" encoding="UTF-8" standalone="no"?>
<svg
   width="743"
   height="909"
   viewBox="0 0 743 909"
   version="1.1"
   id="svg92"
   sodipodi:docname="create_table.svg"
   inkscape:version="1.3.2 (091e20ef0f, 2023-11-25)"
   xmlns:inkscape="http://www.inkscape.org/namespaces/inkscape"
   xmlns:sodipodi="http://sodipodi.sourceforge.net/DTD/sodipodi-0.dtd"
   xmlns:xlink="http://www.w3.org/1999/xlink"
   xmlns="http://www.w3.org/2000/svg"
   xmlns:svg="http://www.w3.org/2000/svg">
  <sodipodi:namedview
     id="namedview92"
     pagecolor="#ffffff"
     bordercolor="#666666"
     borderopacity="1.0"
     inkscape:showpageshadow="2"
     inkscape:pageopacity="0.0"
     inkscape:pagecheckerboard="0"
     inkscape:deskcolor="#d1d1d1"
     inkscape:zoom="0.89839677"
     inkscape:cx="375.11266"
     inkscape:cy="376.22575"
     inkscape:window-width="1858"
     inkscape:window-height="1014"
     inkscape:window-x="62"
     inkscape:window-y="29"
     inkscape:window-maximized="1"
     inkscape:current-layer="svg92" />
  <defs
     id="defs1">
    <style
       type="text/css"
       id="style1">@namespace &quot;http://www.w3.org/2000/svg&quot;;.line { fill: none; stroke: #330000; stroke-width: 1; }
.bold-line { stroke: #140000; shape-rendering: crispEdges; stroke-width: 2; }
.thin-line { stroke: #1F0000; shape-rendering: crispEdges }
.filled { fill: #330000; stroke: none; }
text.terminal { font-family: Verdana, Sans-serif;                            font-size: 12px;                            fill: #140000;                            font-weight: bold; }
text.nonterminal { font-family: Verdana, Sans-serif;                            font-size: 12px;                            fill: #1A0000;                            font-weight: normal; }
text.regexp { font-family: Verdana, Sans-serif;                            font-size: 12px;                            fill: #1F0000;                            font-weight: normal; }
rect, circle, polygon { fill: #330000; stroke: #330000; }
rect.terminal { fill: #FF4D4D; stroke: #330000; stroke-width: 1; }
rect.nonterminal { fill: #FF9E9E; stroke: #330000; stroke-width: 1; }
rect.text { fill: none; stroke: none; }
polygon.regexp { fill: #FFC7C7; stroke: #330000; stroke-width: 1; }
</style>
  </defs>
  <polygon
     points="9 17 1 13 1 21"
     id="polygon1" />
  <polygon
     points="17 17 9 13 9 21"
     id="polygon2" />
  <rect
     x="31"
     y="3"
     width="72"
     height="32"
     rx="10"
     id="rect2" />
  <rect
     x="29"
     y="1"
     width="72"
     height="32"
     class="terminal"
     rx="10"
     id="rect3" />
  <text
     class="terminal"
     x="39"
     y="21"
     id="text3">CREATE</text>
  <rect
     x="123"
     y="3"
     width="62"
     height="32"
     rx="10"
     id="rect4" />
  <rect
     x="121"
     y="1"
     width="62"
     height="32"
     class="terminal"
     rx="10"
     id="rect5" />
  <text
     class="terminal"
     x="131"
     y="21"
     id="text5">TABLE</text>
  <rect
     x="225"
     y="35"
     width="34"
     height="32"
     rx="10"
     id="rect6" />
  <rect
     x="223"
     y="33"
     width="34"
     height="32"
     class="terminal"
     rx="10"
     id="rect7" />
  <text
     class="terminal"
     x="233"
     y="53"
     id="text7">IF</text>
  <rect
     x="279"
     y="35"
     width="48"
     height="32"
     rx="10"
     id="rect8" />
  <rect
     x="277"
     y="33"
     width="48"
     height="32"
     class="terminal"
     rx="10"
     id="rect9" />
  <text
     class="terminal"
     x="287"
     y="53"
     id="text9">NOT</text>
  <rect
     x="347"
     y="35"
     width="70"
     height="32"
     rx="10"
     id="rect10" />
  <rect
     x="345"
     y="33"
     width="70"
     height="32"
     class="terminal"
     rx="10"
     id="rect11" />
  <text
     class="terminal"
     x="355"
     y="53"
     id="text11">EXISTS</text>
  <a
     xlink:href="../object"
     xlink:title="table"
     id="a13">
    <rect
       x="457"
       y="3"
       width="52"
       height="32"
       id="rect12" />
    <rect
       x="455"
       y="1"
       width="52"
       height="32"
       class="nonterminal"
       id="rect13" />
    <text
       class="nonterminal"
       x="465"
       y="21"
       id="text13">table</text>
  </a>
  <rect
     x="529"
     y="3"
     width="26"
     height="32"
     rx="10"
     id="rect14" />
  <rect
     x="527"
     y="1"
     width="26"
     height="32"
     class="terminal"
     rx="10"
     id="rect15" />
  <text
     class="terminal"
     x="537"
     y="21"
     id="text15">(</text>
  <a
     xlink:href="../object"
     xlink:title="column"
     id="a17">
    <rect
       x="90"
       y="145"
       width="64"
       height="32"
       id="rect16" />
    <rect
       x="88"
       y="143"
       width="64"
       height="32"
       class="nonterminal"
       id="rect17" />
    <text
       class="nonterminal"
       x="98"
       y="163"
       id="text17">column</text>
  </a>
  <a
     xlink:href="#type"
     xlink:title="type"
     id="a19">
    <rect
       x="174"
       y="145"
       width="48"
       height="32"
       id="rect18" />
    <rect
       x="172"
       y="143"
       width="48"
       height="32"
       class="nonterminal"
       id="rect19" />
    <text
       class="nonterminal"
       x="182"
       y="163"
       id="text19">type</text>
  </a>
  <rect
     x="282"
     y="209"
     width="48"
     height="32"
     rx="10"
     id="rect20" />
  <rect
     x="280"
     y="207"
     width="48"
     height="32"
     class="terminal"
     rx="10"
     id="rect21" />
  <text
     class="terminal"
     x="290"
     y="227"
     id="text21">NOT</text>
  <rect
     x="370"
     y="177"
     width="56"
     height="32"
     rx="10"
     id="rect22" />
  <rect
     x="368"
     y="175"
     width="56"
     height="32"
     class="terminal"
     rx="10"
     id="rect23" />
  <text
     class="terminal"
     x="378"
     y="195"
     id="text23">NULL</text>
  <rect
     x="486"
     y="177"
     width="84"
     height="32"
     rx="10"
     id="rect24" />
  <rect
     x="484"
     y="175"
     width="84"
     height="32"
     class="terminal"
     rx="10"
     id="rect25" />
  <text
     class="terminal"
     x="494"
     y="195"
     id="text25">PRIMARY</text>
  <rect
     x="590"
     y="177"
     width="46"
     height="32"
     rx="10"
     id="rect26" />
  <rect
     x="588"
     y="175"
     width="46"
     height="32"
     class="terminal"
     rx="10"
     id="rect27" />
  <text
     class="terminal"
     x="598"
     y="195"
     id="text27">KEY</text>
  <rect
     x="90"
     y="101"
     width="24"
     height="32"
     rx="10"
     id="rect28" />
  <rect
     x="88"
     y="99"
     width="24"
     height="32"
     class="terminal"
     rx="10"
     id="rect29" />
  <text
     class="terminal"
     x="98"
     y="119"
     id="text29">,</text>
  <rect
     x="145"
     y="319"
     width="24"
     height="32"
     rx="10"
     id="rect30" />
  <rect
     x="143"
     y="317"
     width="24"
     height="32"
     class="terminal"
     rx="10"
     id="rect31" />
  <text
     class="terminal"
     x="153"
     y="337"
     id="text31">,</text>
  <rect
     x="189"
     y="319"
     width="84"
     height="32"
     rx="10"
     id="rect32" />
  <rect
     x="187"
     y="317"
     width="84"
     height="32"
     class="terminal"
     rx="10"
     id="rect33" />
  <text
     class="terminal"
     x="197"
     y="337"
     id="text33">PRIMARY</text>
  <rect
     x="293"
     y="319"
     width="46"
     height="32"
     rx="10"
     id="rect34" />
  <rect
     x="291"
     y="317"
     width="46"
     height="32"
     class="terminal"
     rx="10"
     id="rect35" />
  <text
     class="terminal"
     x="301"
     y="337"
     id="text35">KEY</text>
  <rect
     x="359"
     y="319"
     width="26"
     height="32"
     rx="10"
     id="rect36" />
  <rect
     x="357"
     y="317"
     width="26"
     height="32"
     class="terminal"
     rx="10"
     id="rect37" />
  <text
     class="terminal"
     x="367"
     y="337"
     id="text37">(</text>
  <a
     xlink:href="../object"
     xlink:title="column"
     id="a39">
    <rect
       x="425"
       y="319"
       width="64"
       height="32"
       id="rect38" />
    <rect
       x="423"
       y="317"
       width="64"
       height="32"
       class="nonterminal"
       id="rect39" />
    <text
       class="nonterminal"
       x="433"
       y="337"
       id="text39">column</text>
  </a>
  <rect
     x="425"
     y="275"
     width="24"
     height="32"
     rx="10"
     id="rect40" />
  <rect
     x="423"
     y="273"
     width="24"
     height="32"
     class="terminal"
     rx="10"
     id="rect41" />
  <text
     class="terminal"
     x="433"
     y="293"
     id="text41">,</text>
  <rect
     x="529"
     y="319"
     width="26"
     height="32"
     rx="10"
     id="rect42" />
  <rect
     x="527"
     y="317"
     width="26"
     height="32"
     class="terminal"
     rx="10"
     id="rect43" />
  <text
     class="terminal"
     x="537"
     y="337"
     id="text43">)</text>
  <rect
     x="595"
     y="319"
     width="26"
     height="32"
     rx="10"
     id="rect44" />
  <rect
     x="593"
     y="317"
     width="26"
     height="32"
     class="terminal"
     rx="10"
     id="rect45" />
  <text
     class="terminal"
     x="603"
     y="337"
     id="text45">)</text>
  <rect
     x="277"
     y="417"
     width="64"
     height="32"
     rx="10"
     id="rect46" />
  <rect
     x="275"
     y="415"
     width="64"
     height="32"
     class="terminal"
     rx="10"
     id="rect47" />
  <text
     class="terminal"
     x="285"
     y="435"
     id="text47">USING</text>
  <rect
     x="381"
     y="417"
     width="68"
     height="32"
     rx="10"
     id="rect48" />
  <rect
     x="379"
     y="415"
     width="68"
     height="32"
     class="terminal"
     rx="10"
     id="rect49" />
  <text
     class="terminal"
     x="389"
     y="435"
     id="text49">MEMTX</text>
  <rect
     x="381"
     y="461"
     width="62"
     height="32"
     rx="10"
     id="rect50" />
  <rect
     x="379"
     y="459"
     width="62"
     height="32"
     class="terminal"
     rx="10"
     id="rect51" />
  <text
     class="terminal"
     x="389"
     y="479"
     id="text51">VINYL</text>
  <rect
     x="45"
     y="571"
     width="114"
     height="32"
     rx="10"
     id="rect52" />
  <rect
     x="43"
     y="569"
     width="114"
     height="32"
     class="terminal"
     rx="10"
     id="rect53" />
  <text
     class="terminal"
     x="53"
     y="589"
     id="text53">DISTRIBUTED</text>
  <rect
     x="199"
     y="571"
     width="38"
     height="32"
     rx="10"
     id="rect54" />
  <rect
     x="197"
     y="569"
     width="38"
     height="32"
     class="terminal"
     rx="10"
     id="rect55" />
  <text
     class="terminal"
     x="207"
     y="589"
     id="text55">BY</text>
  <rect
     x="257"
     y="571"
     width="26"
     height="32"
     rx="10"
     id="rect56" />
  <rect
     x="255"
     y="569"
     width="26"
     height="32"
     class="terminal"
     rx="10"
     id="rect57" />
  <text
     class="terminal"
     x="265"
     y="589"
     id="text57">(</text>
  <a
     xlink:href="../object"
     xlink:title="column"
     id="a59">
    <rect
       x="323"
       y="571"
       width="64"
       height="32"
       id="rect58" />
    <rect
       x="321"
       y="569"
       width="64"
       height="32"
       class="nonterminal"
       id="rect59" />
    <text
       class="nonterminal"
       x="331"
       y="589"
       id="text59">column</text>
  </a>
  <rect
     x="323"
     y="527"
     width="24"
     height="32"
     rx="10"
     id="rect60" />
  <rect
     x="321"
     y="525"
     width="24"
     height="32"
     class="terminal"
     rx="10"
     id="rect61" />
  <text
     class="terminal"
     x="331"
     y="545"
     id="text61">,</text>
  <rect
     x="427"
     y="571"
     width="26"
     height="32"
     rx="10"
     id="rect62" />
  <rect
     x="425"
     y="569"
     width="26"
     height="32"
     class="terminal"
     rx="10"
     id="rect63" />
  <text
     class="terminal"
     x="435"
     y="589"
     id="text63">)</text>
  <rect
     x="493"
     y="603"
     width="36"
     height="32"
     rx="10"
     id="rect64" />
  <rect
     x="491"
     y="601"
     width="36"
     height="32"
     class="terminal"
     rx="10"
     id="rect65" />
  <text
     class="terminal"
     x="501"
     y="621"
     id="text65">IN</text>
  <rect
     x="549"
     y="603"
     width="52"
     height="32"
     rx="10"
     id="rect66" />
  <rect
     x="547"
     y="601"
     width="52"
     height="32"
     class="terminal"
     rx="10"
     id="rect67" />
  <text
     class="terminal"
     x="557"
     y="621"
     id="text67">TIER</text>
  <a
     xlink:href="../object"
     xlink:title="tier"
     id="a69">
    <rect
       x="621"
       y="603"
       width="40"
       height="32"
       id="rect68" />
    <rect
       x="619"
       y="601"
       width="40"
       height="32"
       class="nonterminal"
       id="rect69" />
    <text
       class="nonterminal"
       x="629"
       y="621"
       id="text69">tier</text>
  </a>
  <rect
     x="199"
     y="647"
     width="92"
     height="32"
     rx="10"
     id="rect70" />
  <rect
     x="197"
     y="645"
     width="92"
     height="32"
     class="terminal"
     rx="10"
     id="rect71" />
  <text
     class="terminal"
     x="207"
     y="665"
     id="text71">GLOBALLY</text>
  <rect
     x="218"
     y="745"
     width="58"
     height="32"
     rx="10"
     id="rect72" />
  <rect
     x="216"
     y="743"
     width="58"
     height="32"
     class="terminal"
     rx="10"
     id="rect73" />
  <text
     class="terminal"
     x="226"
     y="763"
     id="text73">WAIT</text>
  <rect
     x="296"
     y="745"
     width="80"
     height="32"
     rx="10"
     id="rect74" />
  <rect
     x="294"
     y="743"
     width="80"
     height="32"
     class="terminal"
     rx="10"
     id="rect75" />
  <text
     class="terminal"
     x="304"
     y="763"
     id="text75">APPLIED</text>
  <rect
     x="416"
     y="745"
     width="92"
     height="32"
     rx="10"
     id="rect76" />
  <rect
     x="414"
     y="743"
     width="92"
     height="32"
     class="terminal"
     rx="10"
     id="rect77" />
  <text
     class="terminal"
     x="424"
     y="763"
     id="text77">GLOBALLY</text>
  <rect
     x="416"
     y="789"
     width="82"
     height="32"
     rx="10"
     id="rect78" />
  <rect
     x="414"
     y="787"
     width="82"
     height="32"
     class="terminal"
     rx="10"
     id="rect79" />
  <text
     class="terminal"
     x="424"
     y="807"
     id="text79">LOCALLY</text>
  <rect
     x="293"
     y="875"
     width="76"
     height="32"
     rx="10"
     id="rect80" />
  <rect
     x="291"
     y="873"
     width="76"
     height="32"
     class="terminal"
     rx="10"
     id="rect81" />
  <text
     class="terminal"
     x="301"
     y="893"
     id="text81">OPTION</text>
  <rect
     x="389"
     y="875"
     width="26"
     height="32"
     rx="10"
     id="rect82" />
  <rect
     x="387"
     y="873"
     width="26"
     height="32"
     class="terminal"
     rx="10"
     id="rect83" />
  <text
     class="terminal"
     x="397"
     y="893"
     id="text83">(</text>
  <rect
     x="435"
     y="875"
     width="82"
     height="32"
     rx="10"
     id="rect84" />
  <rect
     x="433"
     y="873"
     width="82"
     height="32"
     class="terminal"
     rx="10"
     id="rect85" />
  <text
     class="terminal"
     x="443"
     y="893"
     id="text85">TIMEOUT</text>
  <rect
     x="537"
     y="875"
     width="30"
     height="32"
     rx="10"
     id="rect86" />
  <rect
     x="535"
     y="873"
     width="30"
     height="32"
     class="terminal"
     rx="10"
     id="rect87" />
  <text
     class="terminal"
     x="545"
     y="893"
     id="text87">=</text>
  <a
     xlink:href="../../sql_types#double"
     xlink:title="double"
     id="a89">
    <rect
       x="587"
       y="875"
       width="62"
       height="32"
       id="rect88" />
    <rect
       x="585"
       y="873"
       width="62"
       height="32"
       class="nonterminal"
       id="rect89" />
    <text
       class="nonterminal"
       x="595"
       y="893"
       id="text89">double</text>
  </a>
  <rect
     x="669"
     y="875"
     width="26"
     height="32"
     rx="10"
     id="rect90" />
  <rect
     x="667"
     y="873"
     width="26"
     height="32"
     class="terminal"
     rx="10"
     id="rect91" />
  <text
     class="terminal"
     x="677"
     y="893"
     id="text91">)</text>
  <path
     class="line"
     d="m17 17 h2 m0 0 h10 m72 0 h10 m0 0 h10 m62 0 h10 m20 0 h10 m0 0 h202 m-232 0 h20 m212 0 h20 m-252 0 q10 0 10 10 m232 0 q0 -10 10 -10 m-242 10 v12 m232 0 v-12 m-232 12 q0 10 10 10 m212 0 q10 0 10 -10 m-222 10 h10 m34 0 h10 m0 0 h10 m48 0 h10 m0 0 h10 m70 0 h10 m20 -32 h10 m52 0 h10 m0 0 h10 m26 0 h10 m2 0 l2 0 m2 0 l2 0 m2 0 l2 0 m-529 142 l2 0 m2 0 l2 0 m2 0 l2 0 m22 0 h10 m64 0 h10 m0 0 h10 m48 0 h10 m20 0 h10 m0 0 h174 m-204 0 h20 m184 0 h20 m-224 0 q10 0 10 10 m204 0 q0 -10 10 -10 m-214 10 v12 m204 0 v-12 m-204 12 q0 10 10 10 m184 0 q10 0 10 -10 m-174 10 h10 m0 0 h58 m-88 0 h20 m68 0 h20 m-108 0 q10 0 10 10 m88 0 q0 -10 10 -10 m-98 10 v12 m88 0 v-12 m-88 12 q0 10 10 10 m68 0 q10 0 10 -10 m-78 10 h10 m48 0 h10 m20 -32 h10 m56 0 h10 m40 -32 h10 m0 0 h160 m-190 0 h20 m170 0 h20 m-210 0 q10 0 10 10 m190 0 q0 -10 10 -10 m-200 10 v12 m190 0 v-12 m-190 12 q0 10 10 10 m170 0 q10 0 10 -10 m-180 10 h10 m84 0 h10 m0 0 h10 m46 0 h10 m-586 -32 l20 0 m-1 0 q-9 0 -9 -10 l0 -24 q0 -10 10 -10 m586 44 l20 0 m-20 0 q10 0 10 -10 l0 -24 q0 -10 -10 -10 m-586 0 h10 m24 0 h10 m0 0 h542 m22 44 l2 0 m2 0 l2 0 m2 0 l2 0 m-595 174 l2 0 m2 0 l2 0 m2 0 l2 0 m22 0 h10 m24 0 h10 m0 0 h10 m84 0 h10 m0 0 h10 m46 0 h10 m0 0 h10 m26 0 h10 m20 0 h10 m64 0 h10 m-104 0 l20 0 m-1 0 q-9 0 -9 -10 l0 -24 q0 -10 10 -10 m84 44 l20 0 m-20 0 q10 0 10 -10 l0 -24 q0 -10 -10 -10 m-84 0 h10 m24 0 h10 m0 0 h40 m20 44 h10 m26 0 h10 m-450 0 h20 m430 0 h20 m-470 0 q10 0 10 10 m450 0 q0 -10 10 -10 m-460 10 v14 m450 0 v-14 m-450 14 q0 10 10 10 m430 0 q10 0 10 -10 m-440 10 h10 m0 0 h420 m20 -34 h10 m26 0 h10 m2 0 l2 0 m2 0 l2 0 m2 0 l2 0 m-408 66 l2 0 m2 0 l2 0 m2 0 l2 0 m22 0 h10 m0 0 h202 m-232 0 h20 m212 0 h20 m-252 0 q10 0 10 10 m232 0 q0 -10 10 -10 m-242 10 v12 m232 0 v-12 m-232 12 q0 10 10 10 m212 0 q10 0 10 -10 m-222 10 h10 m64 0 h10 m20 0 h10 m68 0 h10 m-108 0 h20 m88 0 h20 m-128 0 q10 0 10 10 m108 0 q0 -10 10 -10 m-118 10 v24 m108 0 v-24 m-108 24 q0 10 10 10 m88 0 q10 0 10 -10 m-98 10 h10 m62 0 h10 m0 0 h6 m42 -76 l2 0 m2 0 l2 0 m2 0 l2 0 m-508 186 l2 0 m2 0 l2 0 m2 0 l2 0 m22 0 h10 m114 0 h10 m20 0 h10 m38 0 h10 m0 0 h10 m26 0 h10 m20 0 h10 m64 0 h10 m-104 0 l20 0 m-1 0 q-9 0 -9 -10 l0 -24 q0 -10 10 -10 m84 44 l20 0 m-20 0 q10 0 10 -10 l0 -24 q0 -10 -10 -10 m-84 0 h10 m24 0 h10 m0 0 h40 m20 44 h10 m26 0 h10 m20 0 h10 m0 0 h178 m-208 0 h20 m188 0 h20 m-228 0 q10 0 10 10 m208 0 q0 -10 10 -10 m-218 10 v12 m208 0 v-12 m-208 12 q0 10 10 10 m188 0 q10 0 10 -10 m-198 10 h10 m36 0 h10 m0 0 h10 m52 0 h10 m0 0 h10 m40 0 h10 m-502 -32 h20 m502 0 h20 m-542 0 q10 0 10 10 m522 0 q0 -10 10 -10 m-532 10 v56 m522 0 v-56 m-522 56 q0 10 10 10 m502 0 q10 0 10 -10 m-512 10 h10 m92 0 h10 m0 0 h390 m-676 -76 h20 m676 0 h20 m-716 0 q10 0 10 10 m696 0 q0 -10 10 -10 m-706 10 v90 m696 0 v-90 m-696 90 q0 10 10 10 m676 0 q10 0 10 -10 m-686 10 h10 m0 0 h666 m22 -110 l2 0 m2 0 l2 0 m2 0 l2 0 m-567 142 l2 0 m2 0 l2 0 m2 0 l2 0 m22 0 h10 m0 0 h320 m-350 0 h20 m330 0 h20 m-370 0 q10 0 10 10 m350 0 q0 -10 10 -10 m-360 10 v12 m350 0 v-12 m-350 12 q0 10 10 10 m330 0 q10 0 10 -10 m-340 10 h10 m58 0 h10 m0 0 h10 m80 0 h10 m20 0 h10 m92 0 h10 m-132 0 h20 m112 0 h20 m-152 0 q10 0 10 10 m132 0 q0 -10 10 -10 m-142 10 v24 m132 0 v-24 m-132 24 q0 10 10 10 m112 0 q10 0 10 -10 m-122 10 h10 m82 0 h10 m0 0 h10 m42 -76 l2 0 m2 0 l2 0 m2 0 l2 0 m-319 130 l2 0 m2 0 l2 0 m2 0 l2 0 m22 0 h10 m0 0 h412 m-442 0 h20 m422 0 h20 m-462 0 q10 0 10 10 m442 0 q0 -10 10 -10 m-452 10 v12 m442 0 v-12 m-442 12 q0 10 10 10 m422 0 q10 0 10 -10 m-432 10 h10 m76 0 h10 m0 0 h10 m26 0 h10 m0 0 h10 m82 0 h10 m0 0 h10 m30 0 h10 m0 0 h10 m62 0 h10 m0 0 h10 m26 0 h10 m23 -32 h-3"
     id="path91" />
  <polygon
     points="733 857 741 853 741 861"
     id="polygon91" />
  <polygon
     points="733 857 725 853 725 861"
     id="polygon92" />
</svg>
