<?xml version="1.0" encoding="UTF-8" standalone="no"?>
<svg
   width="517"
   height="155"
   viewBox="0 0 517 155"
   version="1.1"
   id="svg26"
   sodipodi:docname="create_role.svg"
   inkscape:version="1.4.2 (ebf0e940d0, 2025-05-08)"
   xmlns:inkscape="http://www.inkscape.org/namespaces/inkscape"
   xmlns:sodipodi="http://sodipodi.sourceforge.net/DTD/sodipodi-0.dtd"
   xmlns:xlink="http://www.w3.org/1999/xlink"
   xmlns="http://www.w3.org/2000/svg"
   xmlns:svg="http://www.w3.org/2000/svg">
  <sodipodi:namedview
     id="namedview26"
     pagecolor="#ffffff"
     bordercolor="#666666"
     borderopacity="1.0"
     inkscape:showpageshadow="2"
     inkscape:pageopacity="0.0"
     inkscape:pagecheckerboard="0"
     inkscape:deskcolor="#d1d1d1"
     inkscape:zoom="1.7079304"
     inkscape:cx="258.5"
     inkscape:cy="77.579275"
     inkscape:window-width="1858"
     inkscape:window-height="1014"
     inkscape:window-x="62"
     inkscape:window-y="29"
     inkscape:window-maximized="1"
     inkscape:current-layer="svg26" />
  <defs
     id="defs1">
    <style
       type="text/css"
       id="style1">@namespace &quot;http://www.w3.org/2000/svg&quot;;.line { fill: none; stroke: #330000; stroke-width: 1; }
.bold-line { stroke: #140000; shape-rendering: crispEdges; stroke-width: 2; }
.thin-line { stroke: #1F0000; shape-rendering: crispEdges }
.filled { fill: #330000; stroke: none; }
text.terminal { font-family: Verdana, Sans-serif;                            font-size: 12px;                            fill: #140000;                            font-weight: bold; }
text.nonterminal { font-family: Verdana, Sans-serif;                            font-size: 12px;                            fill: #1A0000;                            font-weight: normal; }
text.regexp { font-family: Verdana, Sans-serif;                            font-size: 12px;                            fill: #1F0000;                            font-weight: normal; }
rect, circle, polygon { fill: #330000; stroke: #330000; }
rect.terminal { fill: #FF4D4D; stroke: #330000; stroke-width: 1; }
rect.nonterminal { fill: #FF9E9E; stroke: #330000; stroke-width: 1; }
rect.text { fill: none; stroke: none; }
polygon.regexp { fill: #FFC7C7; stroke: #330000; stroke-width: 1; }
</style>
  </defs>
  <polygon
     points="9 17 1 13 1 21"
     id="polygon1" />
  <polygon
     points="17 17 9 13 9 21"
     id="polygon2" />
  <rect
     x="31"
     y="3"
     width="72"
     height="32"
     rx="10"
     id="rect2" />
  <rect
     x="29"
     y="1"
     width="72"
     height="32"
     class="terminal"
     rx="10"
     id="rect3" />
  <text
     class="terminal"
     x="39"
     y="21"
     id="text3">CREATE</text>
  <rect
     x="123"
     y="3"
     width="56"
     height="32"
     rx="10"
     id="rect4" />
  <rect
     x="121"
     y="1"
     width="56"
     height="32"
     class="terminal"
     rx="10"
     id="rect5" />
  <text
     class="terminal"
     x="131"
     y="21"
     id="text5">ROLE</text>
  <rect
     x="219"
     y="35"
     width="34"
     height="32"
     rx="10"
     id="rect6" />
  <rect
     x="217"
     y="33"
     width="34"
     height="32"
     class="terminal"
     rx="10"
     id="rect7" />
  <text
     class="terminal"
     x="227"
     y="53"
     id="text7">IF</text>
  <rect
     x="273"
     y="35"
     width="48"
     height="32"
     rx="10"
     id="rect8" />
  <rect
     x="271"
     y="33"
     width="48"
     height="32"
     class="terminal"
     rx="10"
     id="rect9" />
  <text
     class="terminal"
     x="281"
     y="53"
     id="text9">NOT</text>
  <rect
     x="341"
     y="35"
     width="70"
     height="32"
     rx="10"
     id="rect10" />
  <rect
     x="339"
     y="33"
     width="70"
     height="32"
     class="terminal"
     rx="10"
     id="rect11" />
  <text
     class="terminal"
     x="349"
     y="53"
     id="text11">EXISTS</text>
  <a
     xlink:href="../object"
     xlink:title="role"
     id="a13">
    <rect
       x="451"
       y="3"
       width="44"
       height="32"
       id="rect12" />
    <rect
       x="449"
       y="1"
       width="44"
       height="32"
       class="nonterminal"
       id="rect13" />
    <text
       class="nonterminal"
       x="459"
       y="21"
       id="text13">role</text>
  </a>
  <rect
     x="67"
     y="121"
     width="76"
     height="32"
     rx="10"
     id="rect14" />
  <rect
     x="65"
     y="119"
     width="76"
     height="32"
     class="terminal"
     rx="10"
     id="rect15" />
  <text
     class="terminal"
     x="75"
     y="139"
     id="text15">OPTION</text>
  <rect
     x="163"
     y="121"
     width="26"
     height="32"
     rx="10"
     id="rect16" />
  <rect
     x="161"
     y="119"
     width="26"
     height="32"
     class="terminal"
     rx="10"
     id="rect17" />
  <text
     class="terminal"
     x="171"
     y="139"
     id="text17">(</text>
  <rect
     x="209"
     y="121"
     width="82"
     height="32"
     rx="10"
     id="rect18" />
  <rect
     x="207"
     y="119"
     width="82"
     height="32"
     class="terminal"
     rx="10"
     id="rect19" />
  <text
     class="terminal"
     x="217"
     y="139"
     id="text19">TIMEOUT</text>
  <rect
     x="311"
     y="121"
     width="30"
     height="32"
     rx="10"
     id="rect20" />
  <rect
     x="309"
     y="119"
     width="30"
     height="32"
     class="terminal"
     rx="10"
     id="rect21" />
  <text
     class="terminal"
     x="319"
     y="139"
     id="text21">=</text>
  <a
     xlink:href="../../sql_types#double"
     xlink:title="double"
     id="a23">
    <rect
       x="361"
       y="121"
       width="62"
       height="32"
       id="rect22" />
    <rect
       x="359"
       y="119"
       width="62"
       height="32"
       class="nonterminal"
       id="rect23" />
    <text
       class="nonterminal"
       x="369"
       y="139"
       id="text23">double</text>
  </a>
  <rect
     x="443"
     y="121"
     width="26"
     height="32"
     rx="10"
     id="rect24" />
  <rect
     x="441"
     y="119"
     width="26"
     height="32"
     class="terminal"
     rx="10"
     id="rect25" />
  <text
     class="terminal"
     x="451"
     y="139"
     id="text25">)</text>
  <path
     class="line"
     d="m17 17 h2 m0 0 h10 m72 0 h10 m0 0 h10 m56 0 h10 m20 0 h10 m0 0 h202 m-232 0 h20 m212 0 h20 m-252 0 q10 0 10 10 m232 0 q0 -10 10 -10 m-242 10 v12 m232 0 v-12 m-232 12 q0 10 10 10 m212 0 q10 0 10 -10 m-222 10 h10 m34 0 h10 m0 0 h10 m48 0 h10 m0 0 h10 m70 0 h10 m20 -32 h10 m44 0 h10 m2 0 l2 0 m2 0 l2 0 m2 0 l2 0 m-492 86 l2 0 m2 0 l2 0 m2 0 l2 0 m22 0 h10 m0 0 h412 m-442 0 h20 m422 0 h20 m-462 0 q10 0 10 10 m442 0 q0 -10 10 -10 m-452 10 v12 m442 0 v-12 m-442 12 q0 10 10 10 m422 0 q10 0 10 -10 m-432 10 h10 m76 0 h10 m0 0 h10 m26 0 h10 m0 0 h10 m82 0 h10 m0 0 h10 m30 0 h10 m0 0 h10 m62 0 h10 m0 0 h10 m26 0 h10 m23 -32 h-3"
     id="path25" />
  <polygon
     points="507 103 515 99 515 107"
     id="polygon25" />
  <polygon
     points="507 103 499 99 499 107"
     id="polygon26" />
</svg>
