<?xml version="1.0" encoding="UTF-8" standalone="no"?>
<svg
   width="777"
   height="373"
   viewBox="0 0 777 373"
   version="1.1"
   id="svg46"
   sodipodi:docname="create_user.svg"
   inkscape:version="1.4.2 (ebf0e940d0, 2025-05-08)"
   xmlns:inkscape="http://www.inkscape.org/namespaces/inkscape"
   xmlns:sodipodi="http://sodipodi.sourceforge.net/DTD/sodipodi-0.dtd"
   xmlns:xlink="http://www.w3.org/1999/xlink"
   xmlns="http://www.w3.org/2000/svg"
   xmlns:svg="http://www.w3.org/2000/svg">
  <sodipodi:namedview
     id="namedview46"
     pagecolor="#ffffff"
     bordercolor="#666666"
     borderopacity="1.0"
     inkscape:showpageshadow="2"
     inkscape:pageopacity="0.0"
     inkscape:pagecheckerboard="0"
     inkscape:deskcolor="#d1d1d1"
     inkscape:zoom="1.1364221"
     inkscape:cx="388.06004"
     inkscape:cy="186.11042"
     inkscape:window-width="1858"
     inkscape:window-height="1014"
     inkscape:window-x="62"
     inkscape:window-y="29"
     inkscape:window-maximized="1"
     inkscape:current-layer="svg46" />
  <defs
     id="defs1">
    <style
       type="text/css"
       id="style1">@namespace &quot;http://www.w3.org/2000/svg&quot;;.line { fill: none; stroke: #330000; stroke-width: 1; }
.bold-line { stroke: #140000; shape-rendering: crispEdges; stroke-width: 2; }
.thin-line { stroke: #1F0000; shape-rendering: crispEdges }
.filled { fill: #330000; stroke: none; }
text.terminal { font-family: Verdana, Sans-serif;                            font-size: 12px;                            fill: #140000;                            font-weight: bold; }
text.nonterminal { font-family: Verdana, Sans-serif;                            font-size: 12px;                            fill: #1A0000;                            font-weight: normal; }
text.regexp { font-family: Verdana, Sans-serif;                            font-size: 12px;                            fill: #1F0000;                            font-weight: normal; }
rect, circle, polygon { fill: #330000; stroke: #330000; }
rect.terminal { fill: #FF4D4D; stroke: #330000; stroke-width: 1; }
rect.nonterminal { fill: #FF9E9E; stroke: #330000; stroke-width: 1; }
rect.text { fill: none; stroke: none; }
polygon.regexp { fill: #FFC7C7; stroke: #330000; stroke-width: 1; }
</style>
  </defs>
  <polygon
     points="9 17 1 13 1 21"
     id="polygon1" />
  <polygon
     points="17 17 9 13 9 21"
     id="polygon2" />
  <rect
     x="31"
     y="3"
     width="72"
     height="32"
     rx="10"
     id="rect2" />
  <rect
     x="29"
     y="1"
     width="72"
     height="32"
     class="terminal"
     rx="10"
     id="rect3" />
  <text
     class="terminal"
     x="39"
     y="21"
     id="text3">CREATE</text>
  <rect
     x="123"
     y="3"
     width="56"
     height="32"
     rx="10"
     id="rect4" />
  <rect
     x="121"
     y="1"
     width="56"
     height="32"
     class="terminal"
     rx="10"
     id="rect5" />
  <text
     class="terminal"
     x="131"
     y="21"
     id="text5">USER</text>
  <rect
     x="219"
     y="35"
     width="34"
     height="32"
     rx="10"
     id="rect6" />
  <rect
     x="217"
     y="33"
     width="34"
     height="32"
     class="terminal"
     rx="10"
     id="rect7" />
  <text
     class="terminal"
     x="227"
     y="53"
     id="text7">IF</text>
  <rect
     x="273"
     y="35"
     width="48"
     height="32"
     rx="10"
     id="rect8" />
  <rect
     x="271"
     y="33"
     width="48"
     height="32"
     class="terminal"
     rx="10"
     id="rect9" />
  <text
     class="terminal"
     x="281"
     y="53"
     id="text9">NOT</text>
  <rect
     x="341"
     y="35"
     width="70"
     height="32"
     rx="10"
     id="rect10" />
  <rect
     x="339"
     y="33"
     width="70"
     height="32"
     class="terminal"
     rx="10"
     id="rect11" />
  <text
     class="terminal"
     x="349"
     y="53"
     id="text11">EXISTS</text>
  <a
     xlink:href="../object"
     xlink:title="user"
     id="a13">
    <rect
       x="451"
       y="3"
       width="48"
       height="32"
       id="rect12" />
    <rect
       x="449"
       y="1"
       width="48"
       height="32"
       class="nonterminal"
       id="rect13" />
    <text
       class="nonterminal"
       x="459"
       y="21"
       id="text13">user</text>
  </a>
  <rect
     x="45"
     y="101"
     width="64"
     height="32"
     rx="10"
     id="rect14" />
  <rect
     x="43"
     y="99"
     width="64"
     height="32"
     class="terminal"
     rx="10"
     id="rect15" />
  <text
     class="terminal"
     x="53"
     y="119"
     id="text15">USING</text>
  <rect
     x="129"
     y="101"
     width="56"
     height="32"
     rx="10"
     id="rect16" />
  <rect
     x="127"
     y="99"
     width="56"
     height="32"
     class="terminal"
     rx="10"
     id="rect17" />
  <text
     class="terminal"
     x="137"
     y="119"
     id="text17">LDAP</text>
  <rect
     x="65"
     y="177"
     width="58"
     height="32"
     rx="10"
     id="rect18" />
  <rect
     x="63"
     y="175"
     width="58"
     height="32"
     class="terminal"
     rx="10"
     id="rect19" />
  <text
     class="terminal"
     x="73"
     y="195"
     id="text19">WITH</text>
  <rect
     x="163"
     y="145"
     width="100"
     height="32"
     rx="10"
     id="rect20" />
  <rect
     x="161"
     y="143"
     width="100"
     height="32"
     class="terminal"
     rx="10"
     id="rect21" />
  <text
     class="terminal"
     x="171"
     y="163"
     id="text21">PASSWORD</text>
  <rect
     x="283"
     y="145"
     width="24"
     height="32"
     rx="10"
     id="rect22" />
  <rect
     x="281"
     y="143"
     width="24"
     height="32"
     class="terminal"
     rx="10"
     id="rect23" />
  <text
     class="terminal"
     x="291"
     y="163"
     id="text23">'</text>
  <a
     xlink:href="../../sql_types#text"
     xlink:title="password"
     id="a25">
    <rect
       x="327"
       y="145"
       width="80"
       height="32"
       id="rect24" />
    <rect
       x="325"
       y="143"
       width="80"
       height="32"
       class="nonterminal"
       id="rect25" />
    <text
       class="nonterminal"
       x="335"
       y="163"
       id="text25">password</text>
  </a>
  <rect
     x="427"
     y="145"
     width="24"
     height="32"
     rx="10"
     id="rect26" />
  <rect
     x="425"
     y="143"
     width="24"
     height="32"
     class="terminal"
     rx="10"
     id="rect27" />
  <text
     class="terminal"
     x="435"
     y="163"
     id="text27">'</text>
  <rect
     x="491"
     y="177"
     width="64"
     height="32"
     rx="10"
     id="rect28" />
  <rect
     x="489"
     y="175"
     width="64"
     height="32"
     class="terminal"
     rx="10"
     id="rect29" />
  <text
     class="terminal"
     x="499"
     y="195"
     id="text29">USING</text>
  <rect
     x="595"
     y="209"
     width="100"
     height="32"
     rx="10"
     id="rect30" />
  <rect
     x="593"
     y="207"
     width="100"
     height="32"
     class="terminal"
     rx="10"
     id="rect31" />
  <text
     class="terminal"
     x="603"
     y="227"
     id="text31">CHAP-SHA1</text>
  <rect
     x="595"
     y="253"
     width="50"
     height="32"
     rx="10"
     id="rect32" />
  <rect
     x="593"
     y="251"
     width="50"
     height="32"
     class="terminal"
     rx="10"
     id="rect33" />
  <text
     class="terminal"
     x="603"
     y="271"
     id="text33">MD5</text>
  <rect
     x="327"
     y="339"
     width="76"
     height="32"
     rx="10"
     id="rect34" />
  <rect
     x="325"
     y="337"
     width="76"
     height="32"
     class="terminal"
     rx="10"
     id="rect35" />
  <text
     class="terminal"
     x="335"
     y="357"
     id="text35">OPTION</text>
  <rect
     x="423"
     y="339"
     width="26"
     height="32"
     rx="10"
     id="rect36" />
  <rect
     x="421"
     y="337"
     width="26"
     height="32"
     class="terminal"
     rx="10"
     id="rect37" />
  <text
     class="terminal"
     x="431"
     y="357"
     id="text37">(</text>
  <rect
     x="469"
     y="339"
     width="82"
     height="32"
     rx="10"
     id="rect38" />
  <rect
     x="467"
     y="337"
     width="82"
     height="32"
     class="terminal"
     rx="10"
     id="rect39" />
  <text
     class="terminal"
     x="477"
     y="357"
     id="text39">TIMEOUT</text>
  <rect
     x="571"
     y="339"
     width="30"
     height="32"
     rx="10"
     id="rect40" />
  <rect
     x="569"
     y="337"
     width="30"
     height="32"
     class="terminal"
     rx="10"
     id="rect41" />
  <text
     class="terminal"
     x="579"
     y="357"
     id="text41">=</text>
  <a
     xlink:href="../../sql_types#double"
     xlink:title="double"
     id="a43">
    <rect
       x="621"
       y="339"
       width="62"
       height="32"
       id="rect42" />
    <rect
       x="619"
       y="337"
       width="62"
       height="32"
       class="nonterminal"
       id="rect43" />
    <text
       class="nonterminal"
       x="629"
       y="357"
       id="text43">double</text>
  </a>
  <rect
     x="703"
     y="339"
     width="26"
     height="32"
     rx="10"
     id="rect44" />
  <rect
     x="701"
     y="337"
     width="26"
     height="32"
     class="terminal"
     rx="10"
     id="rect45" />
  <text
     class="terminal"
     x="711"
     y="357"
     id="text45">)</text>
  <path
     class="line"
     d="m17 17 h2 m0 0 h10 m72 0 h10 m0 0 h10 m56 0 h10 m20 0 h10 m0 0 h202 m-232 0 h20 m212 0 h20 m-252 0 q10 0 10 10 m232 0 q0 -10 10 -10 m-242 10 v12 m232 0 v-12 m-232 12 q0 10 10 10 m212 0 q10 0 10 -10 m-222 10 h10 m34 0 h10 m0 0 h10 m48 0 h10 m0 0 h10 m70 0 h10 m20 -32 h10 m48 0 h10 m2 0 l2 0 m2 0 l2 0 m2 0 l2 0 m-518 98 l2 0 m2 0 l2 0 m2 0 l2 0 m22 0 h10 m64 0 h10 m0 0 h10 m56 0 h10 m0 0 h550 m-730 0 h20 m710 0 h20 m-750 0 q10 0 10 10 m730 0 q0 -10 10 -10 m-740 10 v24 m730 0 v-24 m-730 24 q0 10 10 10 m710 0 q10 0 10 -10 m-700 10 h10 m0 0 h68 m-98 0 h20 m78 0 h20 m-118 0 q10 0 10 10 m98 0 q0 -10 10 -10 m-108 10 v12 m98 0 v-12 m-98 12 q0 10 10 10 m78 0 q10 0 10 -10 m-88 10 h10 m58 0 h10 m20 -32 h10 m100 0 h10 m0 0 h10 m24 0 h10 m0 0 h10 m80 0 h10 m0 0 h10 m24 0 h10 m20 0 h10 m0 0 h234 m-264 0 h20 m244 0 h20 m-284 0 q10 0 10 10 m264 0 q0 -10 10 -10 m-274 10 v12 m264 0 v-12 m-264 12 q0 10 10 10 m244 0 q10 0 10 -10 m-254 10 h10 m64 0 h10 m20 0 h10 m0 0 h110 m-140 0 h20 m120 0 h20 m-160 0 q10 0 10 10 m140 0 q0 -10 10 -10 m-150 10 v12 m140 0 v-12 m-140 12 q0 10 10 10 m120 0 q10 0 10 -10 m-130 10 h10 m100 0 h10 m-130 -10 v20 m140 0 v-20 m-140 20 v24 m140 0 v-24 m-140 24 q0 10 10 10 m120 0 q10 0 10 -10 m-130 10 h10 m50 0 h10 m0 0 h50 m62 -152 l2 0 m2 0 l2 0 m2 0 l2 0 m-492 206 l2 0 m2 0 l2 0 m2 0 l2 0 m22 0 h10 m0 0 h412 m-442 0 h20 m422 0 h20 m-462 0 q10 0 10 10 m442 0 q0 -10 10 -10 m-452 10 v12 m442 0 v-12 m-442 12 q0 10 10 10 m422 0 q10 0 10 -10 m-432 10 h10 m76 0 h10 m0 0 h10 m26 0 h10 m0 0 h10 m82 0 h10 m0 0 h10 m30 0 h10 m0 0 h10 m62 0 h10 m0 0 h10 m26 0 h10 m23 -32 h-3"
     id="path45" />
  <polygon
     points="767 321 775 317 775 325"
     id="polygon45" />
  <polygon
     points="767 321 759 317 759 325"
     id="polygon46" />
</svg>
