<?xml version="1.0" encoding="UTF-8" standalone="no"?>
<svg
   width="865"
   height="761"
   viewBox="0 0 865 761"
   version="1.1"
   id="svg92"
   sodipodi:docname="create_table.svg"
   inkscape:version="1.4.2 (ebf0e940d0, 2025-05-08)"
   xmlns:inkscape="http://www.inkscape.org/namespaces/inkscape"
   xmlns:sodipodi="http://sodipodi.sourceforge.net/DTD/sodipodi-0.dtd"
   xmlns:xlink="http://www.w3.org/1999/xlink"
   xmlns="http://www.w3.org/2000/svg"
   xmlns:svg="http://www.w3.org/2000/svg">
  <sodipodi:namedview
     id="namedview92"
     pagecolor="#ffffff"
     bordercolor="#666666"
     borderopacity="1.0"
     inkscape:showpageshadow="2"
     inkscape:pageopacity="0.0"
     inkscape:pagecheckerboard="0"
     inkscape:deskcolor="#d1d1d1"
     inkscape:zoom="1.0115607"
     inkscape:cx="432.5"
     inkscape:cy="380.10571"
     inkscape:window-width="1858"
     inkscape:window-height="1014"
     inkscape:window-x="62"
     inkscape:window-y="29"
     inkscape:window-maximized="1"
     inkscape:current-layer="svg92" />
  <defs
     id="defs1">
    <style
       type="text/css"
       id="style1">@namespace &quot;http://www.w3.org/2000/svg&quot;;.line { fill: none; stroke: #330000; stroke-width: 1; }
.bold-line { stroke: #140000; shape-rendering: crispEdges; stroke-width: 2; }
.thin-line { stroke: #1F0000; shape-rendering: crispEdges }
.filled { fill: #330000; stroke: none; }
text.terminal { font-family: Verdana, Sans-serif;                            font-size: 12px;                            fill: #140000;                            font-weight: bold; }
text.nonterminal { font-family: Verdana, Sans-serif;                            font-size: 12px;                            fill: #1A0000;                            font-weight: normal; }
text.regexp { font-family: Verdana, Sans-serif;                            font-size: 12px;                            fill: #1F0000;                            font-weight: normal; }
rect, circle, polygon { fill: #330000; stroke: #330000; }
rect.terminal { fill: #FF4D4D; stroke: #330000; stroke-width: 1; }
rect.nonterminal { fill: #FF9E9E; stroke: #330000; stroke-width: 1; }
rect.text { fill: none; stroke: none; }
polygon.regexp { fill: #FFC7C7; stroke: #330000; stroke-width: 1; }
</style>
  </defs>
  <polygon
     points="11 17 3 13 3 21"
     id="polygon1" />
  <polygon
     points="19 17 11 13 11 21"
     id="polygon2" />
  <rect
     x="33"
     y="3"
     width="72"
     height="32"
     rx="10"
     id="rect2" />
  <rect
     x="31"
     y="1"
     width="72"
     height="32"
     class="terminal"
     rx="10"
     id="rect3" />
  <text
     class="terminal"
     x="41"
     y="21"
     id="text3">CREATE</text>
  <rect
     x="125"
     y="3"
     width="62"
     height="32"
     rx="10"
     id="rect4" />
  <rect
     x="123"
     y="1"
     width="62"
     height="32"
     class="terminal"
     rx="10"
     id="rect5" />
  <text
     class="terminal"
     x="133"
     y="21"
     id="text5">TABLE</text>
  <rect
     x="227"
     y="35"
     width="34"
     height="32"
     rx="10"
     id="rect6" />
  <rect
     x="225"
     y="33"
     width="34"
     height="32"
     class="terminal"
     rx="10"
     id="rect7" />
  <text
     class="terminal"
     x="235"
     y="53"
     id="text7">IF</text>
  <rect
     x="281"
     y="35"
     width="48"
     height="32"
     rx="10"
     id="rect8" />
  <rect
     x="279"
     y="33"
     width="48"
     height="32"
     class="terminal"
     rx="10"
     id="rect9" />
  <text
     class="terminal"
     x="289"
     y="53"
     id="text9">NOT</text>
  <rect
     x="349"
     y="35"
     width="70"
     height="32"
     rx="10"
     id="rect10" />
  <rect
     x="347"
     y="33"
     width="70"
     height="32"
     class="terminal"
     rx="10"
     id="rect11" />
  <text
     class="terminal"
     x="357"
     y="53"
     id="text11">EXISTS</text>
  <a
     xlink:href="../object"
     xlink:title="table"
     id="a13">
    <rect
       x="459"
       y="3"
       width="52"
       height="32"
       id="rect12" />
    <rect
       x="457"
       y="1"
       width="52"
       height="32"
       class="nonterminal"
       id="rect13" />
    <text
       class="nonterminal"
       x="467"
       y="21"
       id="text13">table</text>
  </a>
  <rect
     x="531"
     y="3"
     width="26"
     height="32"
     rx="10"
     id="rect14" />
  <rect
     x="529"
     y="1"
     width="26"
     height="32"
     class="terminal"
     rx="10"
     id="rect15" />
  <text
     class="terminal"
     x="539"
     y="21"
     id="text15">(</text>
  <a
     xlink:href="../object"
     xlink:title="column"
     id="a17">
    <rect
       x="112"
       y="145"
       width="64"
       height="32"
       id="rect16" />
    <rect
       x="110"
       y="143"
       width="64"
       height="32"
       class="nonterminal"
       id="rect17" />
    <text
       class="nonterminal"
       x="120"
       y="163"
       id="text17">column</text>
  </a>
  <a
     xlink:href="#domain_type"
     xlink:title="domain_type"
     id="a19">
    <rect
       x="196"
       y="145"
       width="128"
       height="32"
       id="rect18" />
    <rect
       x="194"
       y="143"
       width="128"
       height="32"
       class="nonterminal"
       id="rect19" />
    <text
       class="nonterminal"
       x="204"
       y="163"
       id="text19">domain_type</text>
  </a>
  <rect
     x="384"
     y="209"
     width="48"
     height="32"
     rx="10"
     id="rect20" />
  <rect
     x="382"
     y="207"
     width="48"
     height="32"
     class="terminal"
     rx="10"
     id="rect21" />
  <text
     class="terminal"
     x="392"
     y="227"
     id="text21">NOT</text>
  <rect
     x="472"
     y="177"
     width="56"
     height="32"
     rx="10"
     id="rect22" />
  <rect
     x="470"
     y="175"
     width="56"
     height="32"
     class="terminal"
     rx="10"
     id="rect23" />
  <text
     class="terminal"
     x="480"
     y="195"
     id="text23">NULL</text>
  <rect
     x="588"
     y="177"
     width="84"
     height="32"
     rx="10"
     id="rect24" />
  <rect
     x="586"
     y="175"
     width="84"
     height="32"
     class="terminal"
     rx="10"
     id="rect25" />
  <text
     class="terminal"
     x="596"
     y="195"
     id="text25">PRIMARY</text>
  <rect
     x="692"
     y="177"
     width="46"
     height="32"
     rx="10"
     id="rect26" />
  <rect
     x="690"
     y="175"
     width="46"
     height="32"
     class="terminal"
     rx="10"
     id="rect27" />
  <text
     class="terminal"
     x="700"
     y="195"
     id="text27">KEY</text>
  <rect
     x="112"
     y="101"
     width="24"
     height="32"
     rx="10"
     id="rect28" />
  <rect
     x="110"
     y="99"
     width="24"
     height="32"
     class="terminal"
     rx="10"
     id="rect29" />
  <text
     class="terminal"
     x="120"
     y="119"
     id="text29">,</text>
  <rect
     x="81"
     y="319"
     width="24"
     height="32"
     rx="10"
     id="rect30" />
  <rect
     x="79"
     y="317"
     width="24"
     height="32"
     class="terminal"
     rx="10"
     id="rect31" />
  <text
     class="terminal"
     x="89"
     y="337"
     id="text31">,</text>
  <rect
     x="125"
     y="319"
     width="84"
     height="32"
     rx="10"
     id="rect32" />
  <rect
     x="123"
     y="317"
     width="84"
     height="32"
     class="terminal"
     rx="10"
     id="rect33" />
  <text
     class="terminal"
     x="133"
     y="337"
     id="text33">PRIMARY</text>
  <rect
     x="229"
     y="319"
     width="46"
     height="32"
     rx="10"
     id="rect34" />
  <rect
     x="227"
     y="317"
     width="46"
     height="32"
     class="terminal"
     rx="10"
     id="rect35" />
  <text
     class="terminal"
     x="237"
     y="337"
     id="text35">KEY</text>
  <rect
     x="295"
     y="319"
     width="26"
     height="32"
     rx="10"
     id="rect36" />
  <rect
     x="293"
     y="317"
     width="26"
     height="32"
     class="terminal"
     rx="10"
     id="rect37" />
  <text
     class="terminal"
     x="303"
     y="337"
     id="text37">(</text>
  <a
     xlink:href="../object"
     xlink:title="column"
     id="a39">
    <rect
       x="361"
       y="319"
       width="64"
       height="32"
       id="rect38" />
    <rect
       x="359"
       y="317"
       width="64"
       height="32"
       class="nonterminal"
       id="rect39" />
    <text
       class="nonterminal"
       x="369"
       y="337"
       id="text39">column</text>
  </a>
  <rect
     x="361"
     y="275"
     width="24"
     height="32"
     rx="10"
     id="rect40" />
  <rect
     x="359"
     y="273"
     width="24"
     height="32"
     class="terminal"
     rx="10"
     id="rect41" />
  <text
     class="terminal"
     x="369"
     y="293"
     id="text41">,</text>
  <rect
     x="465"
     y="319"
     width="26"
     height="32"
     rx="10"
     id="rect42" />
  <rect
     x="463"
     y="317"
     width="26"
     height="32"
     class="terminal"
     rx="10"
     id="rect43" />
  <text
     class="terminal"
     x="473"
     y="337"
     id="text43">)</text>
  <rect
     x="531"
     y="319"
     width="26"
     height="32"
     rx="10"
     id="rect44" />
  <rect
     x="529"
     y="317"
     width="26"
     height="32"
     class="terminal"
     rx="10"
     id="rect45" />
  <text
     class="terminal"
     x="539"
     y="337"
     id="text45">)</text>
  <rect
     x="597"
     y="351"
     width="64"
     height="32"
     rx="10"
     id="rect46" />
  <rect
     x="595"
     y="349"
     width="64"
     height="32"
     class="terminal"
     rx="10"
     id="rect47" />
  <text
     class="terminal"
     x="605"
     y="369"
     id="text47">USING</text>
  <rect
     x="701"
     y="351"
     width="68"
     height="32"
     rx="10"
     id="rect48" />
  <rect
     x="699"
     y="349"
     width="68"
     height="32"
     class="terminal"
     rx="10"
     id="rect49" />
  <text
     class="terminal"
     x="709"
     y="369"
     id="text49">MEMTX</text>
  <rect
     x="701"
     y="395"
     width="62"
     height="32"
     rx="10"
     id="rect50" />
  <rect
     x="699"
     y="393"
     width="62"
     height="32"
     class="terminal"
     rx="10"
     id="rect51" />
  <text
     class="terminal"
     x="709"
     y="413"
     id="text51">VINYL</text>
  <rect
     x="107"
     y="505"
     width="114"
     height="32"
     rx="10"
     id="rect52" />
  <rect
     x="105"
     y="503"
     width="114"
     height="32"
     class="terminal"
     rx="10"
     id="rect53" />
  <text
     class="terminal"
     x="115"
     y="523"
     id="text53">DISTRIBUTED</text>
  <rect
     x="261"
     y="505"
     width="38"
     height="32"
     rx="10"
     id="rect54" />
  <rect
     x="259"
     y="503"
     width="38"
     height="32"
     class="terminal"
     rx="10"
     id="rect55" />
  <text
     class="terminal"
     x="269"
     y="523"
     id="text55">BY</text>
  <rect
     x="319"
     y="505"
     width="26"
     height="32"
     rx="10"
     id="rect56" />
  <rect
     x="317"
     y="503"
     width="26"
     height="32"
     class="terminal"
     rx="10"
     id="rect57" />
  <text
     class="terminal"
     x="327"
     y="523"
     id="text57">(</text>
  <a
     xlink:href="../object"
     xlink:title="column"
     id="a59">
    <rect
       x="385"
       y="505"
       width="64"
       height="32"
       id="rect58" />
    <rect
       x="383"
       y="503"
       width="64"
       height="32"
       class="nonterminal"
       id="rect59" />
    <text
       class="nonterminal"
       x="393"
       y="523"
       id="text59">column</text>
  </a>
  <rect
     x="385"
     y="461"
     width="24"
     height="32"
     rx="10"
     id="rect60" />
  <rect
     x="383"
     y="459"
     width="24"
     height="32"
     class="terminal"
     rx="10"
     id="rect61" />
  <text
     class="terminal"
     x="393"
     y="479"
     id="text61">,</text>
  <rect
     x="489"
     y="505"
     width="26"
     height="32"
     rx="10"
     id="rect62" />
  <rect
     x="487"
     y="503"
     width="26"
     height="32"
     class="terminal"
     rx="10"
     id="rect63" />
  <text
     class="terminal"
     x="497"
     y="523"
     id="text63">)</text>
  <rect
     x="555"
     y="537"
     width="36"
     height="32"
     rx="10"
     id="rect64" />
  <rect
     x="553"
     y="535"
     width="36"
     height="32"
     class="terminal"
     rx="10"
     id="rect65" />
  <text
     class="terminal"
     x="563"
     y="555"
     id="text65">IN</text>
  <rect
     x="611"
     y="537"
     width="52"
     height="32"
     rx="10"
     id="rect66" />
  <rect
     x="609"
     y="535"
     width="52"
     height="32"
     class="terminal"
     rx="10"
     id="rect67" />
  <text
     class="terminal"
     x="619"
     y="555"
     id="text67">TIER</text>
  <a
     xlink:href="../object"
     xlink:title="tier"
     id="a69">
    <rect
       x="683"
       y="537"
       width="40"
       height="32"
       id="rect68" />
    <rect
       x="681"
       y="535"
       width="40"
       height="32"
       class="nonterminal"
       id="rect69" />
    <text
       class="nonterminal"
       x="691"
       y="555"
       id="text69">tier</text>
  </a>
  <rect
     x="261"
     y="581"
     width="92"
     height="32"
     rx="10"
     id="rect70" />
  <rect
     x="259"
     y="579"
     width="92"
     height="32"
     class="terminal"
     rx="10"
     id="rect71" />
  <text
     class="terminal"
     x="269"
     y="599"
     id="text71">GLOBALLY</text>
  <rect
     x="45"
     y="683"
     width="58"
     height="32"
     rx="10"
     id="rect72" />
  <rect
     x="43"
     y="681"
     width="58"
     height="32"
     class="terminal"
     rx="10"
     id="rect73" />
  <text
     class="terminal"
     x="53"
     y="701"
     id="text73">WAIT</text>
  <rect
     x="123"
     y="683"
     width="80"
     height="32"
     rx="10"
     id="rect74" />
  <rect
     x="121"
     y="681"
     width="80"
     height="32"
     class="terminal"
     rx="10"
     id="rect75" />
  <text
     class="terminal"
     x="131"
     y="701"
     id="text75">APPLIED</text>
  <rect
     x="243"
     y="683"
     width="92"
     height="32"
     rx="10"
     id="rect76" />
  <rect
     x="241"
     y="681"
     width="92"
     height="32"
     class="terminal"
     rx="10"
     id="rect77" />
  <text
     class="terminal"
     x="251"
     y="701"
     id="text77">GLOBALLY</text>
  <rect
     x="243"
     y="727"
     width="82"
     height="32"
     rx="10"
     id="rect78" />
  <rect
     x="241"
     y="725"
     width="82"
     height="32"
     class="terminal"
     rx="10"
     id="rect79" />
  <text
     class="terminal"
     x="251"
     y="745"
     id="text79">LOCALLY</text>
  <rect
     x="415"
     y="683"
     width="76"
     height="32"
     rx="10"
     id="rect80" />
  <rect
     x="413"
     y="681"
     width="76"
     height="32"
     class="terminal"
     rx="10"
     id="rect81" />
  <text
     class="terminal"
     x="423"
     y="701"
     id="text81">OPTION</text>
  <rect
     x="511"
     y="683"
     width="26"
     height="32"
     rx="10"
     id="rect82" />
  <rect
     x="509"
     y="681"
     width="26"
     height="32"
     class="terminal"
     rx="10"
     id="rect83" />
  <text
     class="terminal"
     x="519"
     y="701"
     id="text83">(</text>
  <rect
     x="557"
     y="683"
     width="82"
     height="32"
     rx="10"
     id="rect84" />
  <rect
     x="555"
     y="681"
     width="82"
     height="32"
     class="terminal"
     rx="10"
     id="rect85" />
  <text
     class="terminal"
     x="565"
     y="701"
     id="text85">TIMEOUT</text>
  <rect
     x="659"
     y="683"
     width="30"
     height="32"
     rx="10"
     id="rect86" />
  <rect
     x="657"
     y="681"
     width="30"
     height="32"
     class="terminal"
     rx="10"
     id="rect87" />
  <text
     class="terminal"
     x="667"
     y="701"
     id="text87">=</text>
  <a
     xlink:href="../../sql_types#double"
     xlink:title="double"
     id="a89">
    <rect
       x="709"
       y="683"
       width="62"
       height="32"
       id="rect88" />
    <rect
       x="707"
       y="681"
       width="62"
       height="32"
       class="nonterminal"
       id="rect89" />
    <text
       class="nonterminal"
       x="717"
       y="701"
       id="text89">double</text>
  </a>
  <rect
     x="791"
     y="683"
     width="26"
     height="32"
     rx="10"
     id="rect90" />
  <rect
     x="789"
     y="681"
     width="26"
     height="32"
     class="terminal"
     rx="10"
     id="rect91" />
  <text
     class="terminal"
     x="799"
     y="701"
     id="text91">)</text>
  <path
     class="line"
     d="m19 17 h2 m0 0 h10 m72 0 h10 m0 0 h10 m62 0 h10 m20 0 h10 m0 0 h202 m-232 0 h20 m212 0 h20 m-252 0 q10 0 10 10 m232 0 q0 -10 10 -10 m-242 10 v12 m232 0 v-12 m-232 12 q0 10 10 10 m212 0 q10 0 10 -10 m-222 10 h10 m34 0 h10 m0 0 h10 m48 0 h10 m0 0 h10 m70 0 h10 m20 -32 h10 m52 0 h10 m0 0 h10 m26 0 h10 m2 0 l2 0 m2 0 l2 0 m2 0 l2 0 m-509 142 l2 0 m2 0 l2 0 m2 0 l2 0 m22 0 h10 m64 0 h10 m0 0 h10 m128 0 h10 m20 0 h10 m0 0 h174 m-204 0 h20 m184 0 h20 m-224 0 q10 0 10 10 m204 0 q0 -10 10 -10 m-214 10 v12 m204 0 v-12 m-204 12 q0 10 10 10 m184 0 q10 0 10 -10 m-174 10 h10 m0 0 h58 m-88 0 h20 m68 0 h20 m-108 0 q10 0 10 10 m88 0 q0 -10 10 -10 m-98 10 v12 m88 0 v-12 m-88 12 q0 10 10 10 m68 0 q10 0 10 -10 m-78 10 h10 m48 0 h10 m20 -32 h10 m56 0 h10 m40 -32 h10 m0 0 h160 m-190 0 h20 m170 0 h20 m-210 0 q10 0 10 10 m190 0 q0 -10 10 -10 m-200 10 v12 m190 0 v-12 m-190 12 q0 10 10 10 m170 0 q10 0 10 -10 m-180 10 h10 m84 0 h10 m0 0 h10 m46 0 h10 m-666 -32 l20 0 m-1 0 q-9 0 -9 -10 l0 -24 q0 -10 10 -10 m666 44 l20 0 m-20 0 q10 0 10 -10 l0 -24 q0 -10 -10 -10 m-666 0 h10 m24 0 h10 m0 0 h622 m22 44 l2 0 m2 0 l2 0 m2 0 l2 0 m-761 174 l2 0 m2 0 l2 0 m2 0 l2 0 m22 0 h10 m24 0 h10 m0 0 h10 m84 0 h10 m0 0 h10 m46 0 h10 m0 0 h10 m26 0 h10 m20 0 h10 m64 0 h10 m-104 0 l20 0 m-1 0 q-9 0 -9 -10 l0 -24 q0 -10 10 -10 m84 44 l20 0 m-20 0 q10 0 10 -10 l0 -24 q0 -10 -10 -10 m-84 0 h10 m24 0 h10 m0 0 h40 m20 44 h10 m26 0 h10 m-450 0 h20 m430 0 h20 m-470 0 q10 0 10 10 m450 0 q0 -10 10 -10 m-460 10 v14 m450 0 v-14 m-450 14 q0 10 10 10 m430 0 q10 0 10 -10 m-440 10 h10 m0 0 h420 m20 -34 h10 m26 0 h10 m20 0 h10 m0 0 h202 m-232 0 h20 m212 0 h20 m-252 0 q10 0 10 10 m232 0 q0 -10 10 -10 m-242 10 v12 m232 0 v-12 m-232 12 q0 10 10 10 m212 0 q10 0 10 -10 m-222 10 h10 m64 0 h10 m20 0 h10 m68 0 h10 m-108 0 h20 m88 0 h20 m-128 0 q10 0 10 10 m108 0 q0 -10 10 -10 m-118 10 v24 m108 0 v-24 m-108 24 q0 10 10 10 m88 0 q10 0 10 -10 m-98 10 h10 m62 0 h10 m0 0 h6 m42 -76 l2 0 m2 0 l2 0 m2 0 l2 0 m-766 186 l2 0 m2 0 l2 0 m2 0 l2 0 m22 0 h10 m114 0 h10 m20 0 h10 m38 0 h10 m0 0 h10 m26 0 h10 m20 0 h10 m64 0 h10 m-104 0 l20 0 m-1 0 q-9 0 -9 -10 l0 -24 q0 -10 10 -10 m84 44 l20 0 m-20 0 q10 0 10 -10 l0 -24 q0 -10 -10 -10 m-84 0 h10 m24 0 h10 m0 0 h40 m20 44 h10 m26 0 h10 m20 0 h10 m0 0 h178 m-208 0 h20 m188 0 h20 m-228 0 q10 0 10 10 m208 0 q0 -10 10 -10 m-218 10 v12 m208 0 v-12 m-208 12 q0 10 10 10 m188 0 q10 0 10 -10 m-198 10 h10 m36 0 h10 m0 0 h10 m52 0 h10 m0 0 h10 m40 0 h10 m-502 -32 h20 m502 0 h20 m-542 0 q10 0 10 10 m522 0 q0 -10 10 -10 m-532 10 v56 m522 0 v-56 m-522 56 q0 10 10 10 m502 0 q10 0 10 -10 m-512 10 h10 m92 0 h10 m0 0 h390 m-676 -76 h20 m676 0 h20 m-716 0 q10 0 10 10 m696 0 q0 -10 10 -10 m-706 10 v90 m696 0 v-90 m-696 90 q0 10 10 10 m676 0 q10 0 10 -10 m-686 10 h10 m0 0 h666 m22 -110 l2 0 m2 0 l2 0 m2 0 l2 0 m-802 146 l2 0 m2 0 l2 0 m2 0 l2 0 m22 0 h10 m0 0 h320 m-350 0 h20 m330 0 h20 m-370 0 q10 0 10 10 m350 0 q0 -10 10 -10 m-360 10 v12 m350 0 v-12 m-350 12 q0 10 10 10 m330 0 q10 0 10 -10 m-340 10 h10 m58 0 h10 m0 0 h10 m80 0 h10 m20 0 h10 m92 0 h10 m-132 0 h20 m112 0 h20 m-152 0 q10 0 10 10 m132 0 q0 -10 10 -10 m-142 10 v24 m132 0 v-24 m-132 24 q0 10 10 10 m112 0 q10 0 10 -10 m-122 10 h10 m82 0 h10 m0 0 h10 m60 -76 h10 m0 0 h412 m-442 0 h20 m422 0 h20 m-462 0 q10 0 10 10 m442 0 q0 -10 10 -10 m-452 10 v12 m442 0 v-12 m-442 12 q0 10 10 10 m422 0 q10 0 10 -10 m-432 10 h10 m76 0 h10 m0 0 h10 m26 0 h10 m0 0 h10 m82 0 h10 m0 0 h10 m30 0 h10 m0 0 h10 m62 0 h10 m0 0 h10 m26 0 h10 m23 -32 h-3"
     id="path91" />
  <polygon
     points="855 665 863 661 863 669"
     id="polygon91" />
  <polygon
     points="855 665 847 661 847 669"
     id="polygon92" />
</svg>
