<?xml version="1.0" encoding="UTF-8" standalone="no"?>
<svg
   width="981"
   height="761"
   viewBox="0 0 981 761"
   version="1.1"
   id="svg98"
   sodipodi:docname="create_table.svg"
   inkscape:version="1.4.3 (unknown)"
   xmlns:inkscape="http://www.inkscape.org/namespaces/inkscape"
   xmlns:sodipodi="http://sodipodi.sourceforge.net/DTD/sodipodi-0.dtd"
   xmlns:xlink="http://www.w3.org/1999/xlink"
   xmlns="http://www.w3.org/2000/svg"
   xmlns:svg="http://www.w3.org/2000/svg">
  <sodipodi:namedview
     id="namedview98"
     pagecolor="#ffffff"
     bordercolor="#000000"
     borderopacity="0.25"
     inkscape:showpageshadow="2"
     inkscape:pageopacity="0.0"
     inkscape:pagecheckerboard="0"
     inkscape:deskcolor="#d1d1d1"
     inkscape:zoom="1.1590013"
     inkscape:cx="490.0771"
     inkscape:cy="587.57483"
     inkscape:window-width="1920"
     inkscape:window-height="1128"
     inkscape:window-x="0"
     inkscape:window-y="0"
     inkscape:window-maximized="1"
     inkscape:current-layer="svg98" />
  <defs
     id="defs1">
    <style
       type="text/css"
       id="style1">
    @namespace &quot;http://www.w3.org/2000/svg&quot;;
    .line                 {fill: none; stroke: #330000; stroke-width: 1;}
    .bold-line            {stroke: #140000; shape-rendering: crispEdges; stroke-width: 2;}
    .thin-line            {stroke: #1F0000; shape-rendering: crispEdges}
    .filled               {fill: #330000; stroke: none;}
    text.terminal         {font-family: Verdana, Sans-serif;
                            font-size: 12px;
                            fill: #140000;
                            font-weight: bold;
                          }
    text.nonterminal      {font-family: Verdana, Sans-serif;
                            font-size: 12px;
                            fill: #1A0000;
                            font-weight: normal;
                          }
    text.regexp           {font-family: Verdana, Sans-serif;
                            font-size: 12px;
                            fill: #1F0000;
                            font-weight: normal;
                          }
    rect, circle, polygon {fill: #330000; stroke: #330000;}
    rect.terminal         {fill: #FF4D4D; stroke: #330000; stroke-width: 1;}
    rect.nonterminal      {fill: #FF9E9E; stroke: #330000; stroke-width: 1;}
    rect.text             {fill: none; stroke: none;}
    polygon.regexp        {fill: #FFC7C7; stroke: #330000; stroke-width: 1;}
  </style>
  </defs>
  <polygon
     points="9 17 1 13 1 21"
     id="polygon1" />
  <polygon
     points="17 17 9 13 9 21"
     id="polygon2" />
  <rect
     x="31"
     y="3"
     width="72"
     height="32"
     rx="10"
     id="rect2" />
  <rect
     x="29"
     y="1"
     width="72"
     height="32"
     class="terminal"
     rx="10"
     id="rect3" />
  <text
     class="terminal"
     x="39"
     y="21"
     id="text3">CREATE</text>
  <rect
     x="143"
     y="35"
     width="96"
     height="32"
     rx="10"
     id="rect4" />
  <rect
     x="141"
     y="33"
     width="96"
     height="32"
     class="terminal"
     rx="10"
     id="rect5" />
  <text
     class="terminal"
     x="151"
     y="53"
     id="text5">UNLOGGED</text>
  <rect
     x="279"
     y="3"
     width="62"
     height="32"
     rx="10"
     id="rect6" />
  <rect
     x="277"
     y="1"
     width="62"
     height="32"
     class="terminal"
     rx="10"
     id="rect7" />
  <text
     class="terminal"
     x="287"
     y="21"
     id="text7">TABLE</text>
  <rect
     x="381"
     y="35"
     width="34"
     height="32"
     rx="10"
     id="rect8" />
  <rect
     x="379"
     y="33"
     width="34"
     height="32"
     class="terminal"
     rx="10"
     id="rect9" />
  <text
     class="terminal"
     x="389"
     y="53"
     id="text9">IF</text>
  <rect
     x="435"
     y="35"
     width="48"
     height="32"
     rx="10"
     id="rect10" />
  <rect
     x="433"
     y="33"
     width="48"
     height="32"
     class="terminal"
     rx="10"
     id="rect11" />
  <text
     class="terminal"
     x="443"
     y="53"
     id="text11">NOT</text>
  <rect
     x="503"
     y="35"
     width="70"
     height="32"
     rx="10"
     id="rect12" />
  <rect
     x="501"
     y="33"
     width="70"
     height="32"
     class="terminal"
     rx="10"
     id="rect13" />
  <text
     class="terminal"
     x="511"
     y="53"
     id="text13">EXISTS</text>
  <a
     xlink:href="../object"
     xlink:title="table"
     id="a15">
    <rect
       x="613"
       y="3"
       width="52"
       height="32"
       id="rect14" />
    <rect
       x="611"
       y="1"
       width="52"
       height="32"
       class="nonterminal"
       id="rect15" />
    <text
       class="nonterminal"
       x="621"
       y="21"
       id="text15">table</text>
  </a>
  <rect
     x="685"
     y="3"
     width="26"
     height="32"
     rx="10"
     id="rect16" />
  <rect
     x="683"
     y="1"
     width="26"
     height="32"
     class="terminal"
     rx="10"
     id="rect17" />
  <text
     class="terminal"
     x="693"
     y="21"
     id="text17">(</text>
  <a
     xlink:href="../object"
     xlink:title="column"
     id="a19">
    <rect
       x="169"
       y="145"
       width="64"
       height="32"
       id="rect18" />
    <rect
       x="167"
       y="143"
       width="64"
       height="32"
       class="nonterminal"
       id="rect19" />
    <text
       class="nonterminal"
       x="177"
       y="163"
       id="text19">column</text>
  </a>
  <a
     xlink:href="#domain_type"
     xlink:title="column_def_type"
     id="a21">
    <rect
       x="253"
       y="145"
       width="128"
       height="32"
       id="rect20" />
    <rect
       x="251"
       y="143"
       width="128"
       height="32"
       class="nonterminal"
       id="rect21" />
    <text
       class="nonterminal"
       x="261"
       y="163"
       id="text21">column_def_type</text>
  </a>
  <rect
     x="441"
     y="209"
     width="48"
     height="32"
     rx="10"
     id="rect22" />
  <rect
     x="439"
     y="207"
     width="48"
     height="32"
     class="terminal"
     rx="10"
     id="rect23" />
  <text
     class="terminal"
     x="449"
     y="227"
     id="text23">NOT</text>
  <rect
     x="529"
     y="177"
     width="56"
     height="32"
     rx="10"
     id="rect24" />
  <rect
     x="527"
     y="175"
     width="56"
     height="32"
     class="terminal"
     rx="10"
     id="rect25" />
  <text
     class="terminal"
     x="537"
     y="195"
     id="text25">NULL</text>
  <rect
     x="645"
     y="177"
     width="84"
     height="32"
     rx="10"
     id="rect26" />
  <rect
     x="643"
     y="175"
     width="84"
     height="32"
     class="terminal"
     rx="10"
     id="rect27" />
  <text
     class="terminal"
     x="653"
     y="195"
     id="text27">PRIMARY</text>
  <rect
     x="749"
     y="177"
     width="46"
     height="32"
     rx="10"
     id="rect28" />
  <rect
     x="747"
     y="175"
     width="46"
     height="32"
     class="terminal"
     rx="10"
     id="rect29" />
  <text
     class="terminal"
     x="757"
     y="195"
     id="text29">KEY</text>
  <rect
     x="169"
     y="101"
     width="24"
     height="32"
     rx="10"
     id="rect30" />
  <rect
     x="167"
     y="99"
     width="24"
     height="32"
     class="terminal"
     rx="10"
     id="rect31" />
  <text
     class="terminal"
     x="177"
     y="119"
     id="text31">,</text>
  <rect
     x="45"
     y="319"
     width="24"
     height="32"
     rx="10"
     id="rect32" />
  <rect
     x="43"
     y="317"
     width="24"
     height="32"
     class="terminal"
     rx="10"
     id="rect33" />
  <text
     class="terminal"
     x="53"
     y="337"
     id="text33">,</text>
  <rect
     x="89"
     y="319"
     width="84"
     height="32"
     rx="10"
     id="rect34" />
  <rect
     x="87"
     y="317"
     width="84"
     height="32"
     class="terminal"
     rx="10"
     id="rect35" />
  <text
     class="terminal"
     x="97"
     y="337"
     id="text35">PRIMARY</text>
  <rect
     x="193"
     y="319"
     width="46"
     height="32"
     rx="10"
     id="rect36" />
  <rect
     x="191"
     y="317"
     width="46"
     height="32"
     class="terminal"
     rx="10"
     id="rect37" />
  <text
     class="terminal"
     x="201"
     y="337"
     id="text37">KEY</text>
  <rect
     x="259"
     y="319"
     width="26"
     height="32"
     rx="10"
     id="rect38" />
  <rect
     x="257"
     y="317"
     width="26"
     height="32"
     class="terminal"
     rx="10"
     id="rect39" />
  <text
     class="terminal"
     x="267"
     y="337"
     id="text39">(</text>
  <a
     xlink:href="../../../overview/glossary/#auto_index"
     xlink:title="bucket_id"
     id="a41">
    <rect
       x="325"
       y="351"
       width="82"
       height="32"
       id="rect40" />
    <rect
       x="323"
       y="349"
       width="82"
       height="32"
       class="nonterminal"
       id="rect41" />
    <text
       class="nonterminal"
       x="333"
       y="369"
       id="text41">bucket_id</text>
  </a>
  <rect
     x="427"
     y="351"
     width="24"
     height="32"
     rx="10"
     id="rect42" />
  <rect
     x="425"
     y="349"
     width="24"
     height="32"
     class="terminal"
     rx="10"
     id="rect43" />
  <text
     class="terminal"
     x="435"
     y="369"
     id="text43">,</text>
  <a
     xlink:href="../object"
     xlink:title="column"
     id="a45">
    <rect
       x="511"
       y="319"
       width="64"
       height="32"
       id="rect44" />
    <rect
       x="509"
       y="317"
       width="64"
       height="32"
       class="nonterminal"
       id="rect45" />
    <text
       class="nonterminal"
       x="519"
       y="337"
       id="text45">column</text>
  </a>
  <rect
     x="511"
     y="275"
     width="24"
     height="32"
     rx="10"
     id="rect46" />
  <rect
     x="509"
     y="273"
     width="24"
     height="32"
     class="terminal"
     rx="10"
     id="rect47" />
  <text
     class="terminal"
     x="519"
     y="293"
     id="text47">,</text>
  <rect
     x="615"
     y="319"
     width="26"
     height="32"
     rx="10"
     id="rect48" />
  <rect
     x="613"
     y="317"
     width="26"
     height="32"
     class="terminal"
     rx="10"
     id="rect49" />
  <text
     class="terminal"
     x="623"
     y="337"
     id="text49">)</text>
  <rect
     x="681"
     y="319"
     width="26"
     height="32"
     rx="10"
     id="rect50" />
  <rect
     x="679"
     y="317"
     width="26"
     height="32"
     class="terminal"
     rx="10"
     id="rect51" />
  <text
     class="terminal"
     x="689"
     y="337"
     id="text51">)</text>
  <rect
     x="747"
     y="351"
     width="64"
     height="32"
     rx="10"
     id="rect52" />
  <rect
     x="745"
     y="349"
     width="64"
     height="32"
     class="terminal"
     rx="10"
     id="rect53" />
  <text
     class="terminal"
     x="755"
     y="369"
     id="text53">USING</text>
  <rect
     x="851"
     y="351"
     width="68"
     height="32"
     rx="10"
     id="rect54" />
  <rect
     x="849"
     y="349"
     width="68"
     height="32"
     class="terminal"
     rx="10"
     id="rect55" />
  <text
     class="terminal"
     x="859"
     y="369"
     id="text55">MEMTX</text>
  <rect
     x="851"
     y="395"
     width="62"
     height="32"
     rx="10"
     id="rect56" />
  <rect
     x="849"
     y="393"
     width="62"
     height="32"
     class="terminal"
     rx="10"
     id="rect57" />
  <text
     class="terminal"
     x="859"
     y="413"
     id="text57">VINYL</text>
  <rect
     x="164"
     y="505"
     width="114"
     height="32"
     rx="10"
     id="rect58" />
  <rect
     x="162"
     y="503"
     width="114"
     height="32"
     class="terminal"
     rx="10"
     id="rect59" />
  <text
     class="terminal"
     x="172"
     y="523"
     id="text59">DISTRIBUTED</text>
  <rect
     x="318"
     y="505"
     width="38"
     height="32"
     rx="10"
     id="rect60" />
  <rect
     x="316"
     y="503"
     width="38"
     height="32"
     class="terminal"
     rx="10"
     id="rect61" />
  <text
     class="terminal"
     x="326"
     y="523"
     id="text61">BY</text>
  <rect
     x="376"
     y="505"
     width="26"
     height="32"
     rx="10"
     id="rect62" />
  <rect
     x="374"
     y="503"
     width="26"
     height="32"
     class="terminal"
     rx="10"
     id="rect63" />
  <text
     class="terminal"
     x="384"
     y="523"
     id="text63">(</text>
  <a
     xlink:href="../object"
     xlink:title="column"
     id="a65">
    <rect
       x="442"
       y="505"
       width="64"
       height="32"
       id="rect64" />
    <rect
       x="440"
       y="503"
       width="64"
       height="32"
       class="nonterminal"
       id="rect65" />
    <text
       class="nonterminal"
       x="450"
       y="523"
       id="text65">column</text>
  </a>
  <rect
     x="442"
     y="461"
     width="24"
     height="32"
     rx="10"
     id="rect66" />
  <rect
     x="440"
     y="459"
     width="24"
     height="32"
     class="terminal"
     rx="10"
     id="rect67" />
  <text
     class="terminal"
     x="450"
     y="479"
     id="text67">,</text>
  <rect
     x="546"
     y="505"
     width="26"
     height="32"
     rx="10"
     id="rect68" />
  <rect
     x="544"
     y="503"
     width="26"
     height="32"
     class="terminal"
     rx="10"
     id="rect69" />
  <text
     class="terminal"
     x="554"
     y="523"
     id="text69">)</text>
  <rect
     x="612"
     y="537"
     width="36"
     height="32"
     rx="10"
     id="rect70" />
  <rect
     x="610"
     y="535"
     width="36"
     height="32"
     class="terminal"
     rx="10"
     id="rect71" />
  <text
     class="terminal"
     x="620"
     y="555"
     id="text71">IN</text>
  <rect
     x="668"
     y="537"
     width="52"
     height="32"
     rx="10"
     id="rect72" />
  <rect
     x="666"
     y="535"
     width="52"
     height="32"
     class="terminal"
     rx="10"
     id="rect73" />
  <text
     class="terminal"
     x="676"
     y="555"
     id="text73">TIER</text>
  <a
     xlink:href="../object"
     xlink:title="tier"
     id="a75">
    <rect
       x="740"
       y="537"
       width="40"
       height="32"
       id="rect74" />
    <rect
       x="738"
       y="535"
       width="40"
       height="32"
       class="nonterminal"
       id="rect75" />
    <text
       class="nonterminal"
       x="748"
       y="555"
       id="text75">tier</text>
  </a>
  <rect
     x="318"
     y="581"
     width="92"
     height="32"
     rx="10"
     id="rect76" />
  <rect
     x="316"
     y="579"
     width="92"
     height="32"
     class="terminal"
     rx="10"
     id="rect77" />
  <text
     class="terminal"
     x="326"
     y="599"
     id="text77">GLOBALLY</text>
  <rect
     x="161"
     y="683"
     width="58"
     height="32"
     rx="10"
     id="rect78" />
  <rect
     x="159"
     y="681"
     width="58"
     height="32"
     class="terminal"
     rx="10"
     id="rect79" />
  <text
     class="terminal"
     x="169"
     y="701"
     id="text79">WAIT</text>
  <rect
     x="239"
     y="683"
     width="80"
     height="32"
     rx="10"
     id="rect80" />
  <rect
     x="237"
     y="681"
     width="80"
     height="32"
     class="terminal"
     rx="10"
     id="rect81" />
  <text
     class="terminal"
     x="247"
     y="701"
     id="text81">APPLIED</text>
  <rect
     x="359"
     y="683"
     width="92"
     height="32"
     rx="10"
     id="rect82" />
  <rect
     x="357"
     y="681"
     width="92"
     height="32"
     class="terminal"
     rx="10"
     id="rect83" />
  <text
     class="terminal"
     x="367"
     y="701"
     id="text83">GLOBALLY</text>
  <rect
     x="359"
     y="727"
     width="82"
     height="32"
     rx="10"
     id="rect84" />
  <rect
     x="357"
     y="725"
     width="82"
     height="32"
     class="terminal"
     rx="10"
     id="rect85" />
  <text
     class="terminal"
     x="367"
     y="745"
     id="text85">LOCALLY</text>
  <rect
     x="531"
     y="683"
     width="76"
     height="32"
     rx="10"
     id="rect86" />
  <rect
     x="529"
     y="681"
     width="76"
     height="32"
     class="terminal"
     rx="10"
     id="rect87" />
  <text
     class="terminal"
     x="539"
     y="701"
     id="text87">OPTION</text>
  <rect
     x="627"
     y="683"
     width="26"
     height="32"
     rx="10"
     id="rect88" />
  <rect
     x="625"
     y="681"
     width="26"
     height="32"
     class="terminal"
     rx="10"
     id="rect89" />
  <text
     class="terminal"
     x="635"
     y="701"
     id="text89">(</text>
  <rect
     x="673"
     y="683"
     width="82"
     height="32"
     rx="10"
     id="rect90" />
  <rect
     x="671"
     y="681"
     width="82"
     height="32"
     class="terminal"
     rx="10"
     id="rect91" />
  <text
     class="terminal"
     x="681"
     y="701"
     id="text91">TIMEOUT</text>
  <rect
     x="775"
     y="683"
     width="30"
     height="32"
     rx="10"
     id="rect92" />
  <rect
     x="773"
     y="681"
     width="30"
     height="32"
     class="terminal"
     rx="10"
     id="rect93" />
  <text
     class="terminal"
     x="783"
     y="701"
     id="text93">=</text>
  <a
     xlink:href="../../sql_types#double"
     xlink:title="double"
     id="a95">
    <rect
       x="825"
       y="683"
       width="62"
       height="32"
       id="rect94" />
    <rect
       x="823"
       y="681"
       width="62"
       height="32"
       class="nonterminal"
       id="rect95" />
    <text
       class="nonterminal"
       x="833"
       y="701"
       id="text95">double</text>
  </a>
  <rect
     x="907"
     y="683"
     width="26"
     height="32"
     rx="10"
     id="rect96" />
  <rect
     x="905"
     y="681"
     width="26"
     height="32"
     class="terminal"
     rx="10"
     id="rect97" />
  <text
     class="terminal"
     x="915"
     y="701"
     id="text97">)</text>
  <path
     class="line"
     d="m17 17 h2 m0 0 h10 m72 0 h10 m20 0 h10 m0 0 h106 m-136 0 h20 m116 0 h20 m-156 0 q10 0 10 10 m136 0 q0 -10 10 -10 m-146 10 v12 m136 0 v-12 m-136 12 q0 10 10 10 m116 0 q10 0 10 -10 m-126 10 h10 m96 0 h10 m20 -32 h10 m62 0 h10 m20 0 h10 m0 0 h202 m-232 0 h20 m212 0 h20 m-252 0 q10 0 10 10 m232 0 q0 -10 10 -10 m-242 10 v12 m232 0 v-12 m-232 12 q0 10 10 10 m212 0 q10 0 10 -10 m-222 10 h10 m34 0 h10 m0 0 h10 m48 0 h10 m0 0 h10 m70 0 h10 m20 -32 h10 m52 0 h10 m0 0 h10 m26 0 h10 m2 0 l2 0 m2 0 l2 0 m2 0 l2 0 m-606 142 l2 0 m2 0 l2 0 m2 0 l2 0 m22 0 h10 m64 0 h10 m0 0 h10 m128 0 h10 m20 0 h10 m0 0 h174 m-204 0 h20 m184 0 h20 m-224 0 q10 0 10 10 m204 0 q0 -10 10 -10 m-214 10 v12 m204 0 v-12 m-204 12 q0 10 10 10 m184 0 q10 0 10 -10 m-174 10 h10 m0 0 h58 m-88 0 h20 m68 0 h20 m-108 0 q10 0 10 10 m88 0 q0 -10 10 -10 m-98 10 v12 m88 0 v-12 m-88 12 q0 10 10 10 m68 0 q10 0 10 -10 m-78 10 h10 m48 0 h10 m20 -32 h10 m56 0 h10 m40 -32 h10 m0 0 h160 m-190 0 h20 m170 0 h20 m-210 0 q10 0 10 10 m190 0 q0 -10 10 -10 m-200 10 v12 m190 0 v-12 m-190 12 q0 10 10 10 m170 0 q10 0 10 -10 m-180 10 h10 m84 0 h10 m0 0 h10 m46 0 h10 m-666 -32 l20 0 m-1 0 q-9 0 -9 -10 l0 -24 q0 -10 10 -10 m666 44 l20 0 m-20 0 q10 0 10 -10 l0 -24 q0 -10 -10 -10 m-666 0 h10 m24 0 h10 m0 0 h622 m22 44 l2 0 m2 0 l2 0 m2 0 l2 0 m-854 174 l2 0 m2 0 l2 0 m2 0 l2 0 m22 0 h10 m24 0 h10 m0 0 h10 m84 0 h10 m0 0 h10 m46 0 h10 m0 0 h10 m26 0 h10 m20 0 h10 m0 0 h136 m-166 0 h20 m146 0 h20 m-186 0 q10 0 10 10 m166 0 q0 -10 10 -10 m-176 10 v12 m166 0 v-12 m-166 12 q0 10 10 10 m146 0 q10 0 10 -10 m-156 10 h10 m82 0 h10 m0 0 h10 m24 0 h10 m40 -32 h10 m64 0 h10 m-104 0 l20 0 m-1 0 q-9 0 -9 -10 l0 -24 q0 -10 10 -10 m84 44 l20 0 m-20 0 q10 0 10 -10 l0 -24 q0 -10 -10 -10 m-84 0 h10 m24 0 h10 m0 0 h40 m20 44 h10 m26 0 h10 m-636 0 h20 m616 0 h20 m-656 0 q10 0 10 10 m636 0 q0 -10 10 -10 m-646 10 v46 m636 0 v-46 m-636 46 q0 10 10 10 m616 0 q10 0 10 -10 m-626 10 h10 m0 0 h606 m20 -66 h10 m26 0 h10 m20 0 h10 m0 0 h202 m-232 0 h20 m212 0 h20 m-252 0 q10 0 10 10 m232 0 q0 -10 10 -10 m-242 10 v12 m232 0 v-12 m-232 12 q0 10 10 10 m212 0 q10 0 10 -10 m-222 10 h10 m64 0 h10 m20 0 h10 m68 0 h10 m-108 0 h20 m88 0 h20 m-128 0 q10 0 10 10 m108 0 q0 -10 10 -10 m-118 10 v24 m108 0 v-24 m-108 24 q0 10 10 10 m88 0 q10 0 10 -10 m-98 10 h10 m62 0 h10 m0 0 h6 m42 -76 l2 0 m2 0 l2 0 m2 0 l2 0 m-859 186 l2 0 m2 0 l2 0 m2 0 l2 0 m22 0 h10 m114 0 h10 m20 0 h10 m38 0 h10 m0 0 h10 m26 0 h10 m20 0 h10 m64 0 h10 m-104 0 l20 0 m-1 0 q-9 0 -9 -10 l0 -24 q0 -10 10 -10 m84 44 l20 0 m-20 0 q10 0 10 -10 l0 -24 q0 -10 -10 -10 m-84 0 h10 m24 0 h10 m0 0 h40 m20 44 h10 m26 0 h10 m20 0 h10 m0 0 h178 m-208 0 h20 m188 0 h20 m-228 0 q10 0 10 10 m208 0 q0 -10 10 -10 m-218 10 v12 m208 0 v-12 m-208 12 q0 10 10 10 m188 0 q10 0 10 -10 m-198 10 h10 m36 0 h10 m0 0 h10 m52 0 h10 m0 0 h10 m40 0 h10 m-502 -32 h20 m502 0 h20 m-542 0 q10 0 10 10 m522 0 q0 -10 10 -10 m-532 10 v56 m522 0 v-56 m-522 56 q0 10 10 10 m502 0 q10 0 10 -10 m-512 10 h10 m92 0 h10 m0 0 h390 m-676 -76 h20 m676 0 h20 m-716 0 q10 0 10 10 m696 0 q0 -10 10 -10 m-706 10 v90 m696 0 v-90 m-696 90 q0 10 10 10 m676 0 q10 0 10 -10 m-686 10 h10 m0 0 h666 m22 -110 l2 0 m2 0 l2 0 m2 0 l2 0 m-743 146 l2 0 m2 0 l2 0 m2 0 l2 0 m22 0 h10 m0 0 h320 m-350 0 h20 m330 0 h20 m-370 0 q10 0 10 10 m350 0 q0 -10 10 -10 m-360 10 v12 m350 0 v-12 m-350 12 q0 10 10 10 m330 0 q10 0 10 -10 m-340 10 h10 m58 0 h10 m0 0 h10 m80 0 h10 m20 0 h10 m92 0 h10 m-132 0 h20 m112 0 h20 m-152 0 q10 0 10 10 m132 0 q0 -10 10 -10 m-142 10 v24 m132 0 v-24 m-132 24 q0 10 10 10 m112 0 q10 0 10 -10 m-122 10 h10 m82 0 h10 m0 0 h10 m60 -76 h10 m0 0 h412 m-442 0 h20 m422 0 h20 m-462 0 q10 0 10 10 m442 0 q0 -10 10 -10 m-452 10 v12 m442 0 v-12 m-442 12 q0 10 10 10 m422 0 q10 0 10 -10 m-432 10 h10 m76 0 h10 m0 0 h10 m26 0 h10 m0 0 h10 m82 0 h10 m0 0 h10 m30 0 h10 m0 0 h10 m62 0 h10 m0 0 h10 m26 0 h10 m23 -32 h-3"
     id="path97" />
  <polygon
     points="971 665 979 661 979 669"
     id="polygon97" />
  <polygon
     points="971 665 963 661 963 669"
     id="polygon98" />
</svg>
