<?xml version="1.0" encoding="UTF-8"?>
<svg xmlns="http://www.w3.org/2000/svg" width="231" height="653" viewBox="0 0 231 653">
   <defs>
      <style type="text/css">
    @namespace "http://www.w3.org/2000/svg";
    .line                 {fill: none; stroke: #330000; stroke-width: 1;}
    .bold-line            {stroke: #140000; shape-rendering: crispEdges; stroke-width: 2;}
    .thin-line            {stroke: #1F0000; shape-rendering: crispEdges}
    .filled               {fill: #330000; stroke: none;}
    text.terminal         {font-family: Verdana, Sans-serif;
                            font-size: 12px;
                            fill: #140000;
                            font-weight: bold;
                          }
    text.nonterminal      {font-family: Verdana, Sans-serif;
                            font-size: 12px;
                            fill: #1A0000;
                            font-weight: normal;
                          }
    text.regexp           {font-family: Verdana, Sans-serif;
                            font-size: 12px;
                            fill: #1F0000;
                            font-weight: normal;
                          }
    rect, circle, polygon {fill: #330000; stroke: #330000;}
    rect.terminal         {fill: #FF4D4D; stroke: #330000; stroke-width: 1;}
    rect.nonterminal      {fill: #FF9E9E; stroke: #330000; stroke-width: 1;}
    rect.text             {fill: none; stroke: none;}
    polygon.regexp        {fill: #FFC7C7; stroke: #330000; stroke-width: 1;}
  </style>
      <style class="darkreader darkreader--sync" media="screen"/>
   </defs>
   <polygon points="9 17 1 13 1 21"/>
   <polygon points="17 17 9 13 9 21"/>
   <a xmlns:xlink="http://www.w3.org/1999/xlink"
      xlink:href="../alter_index"
      xlink:title="alter_index">
      <rect x="51" y="3" width="92" height="32"/>
      <rect x="49" y="1" width="92" height="32" class="nonterminal"/>
      <text class="nonterminal" x="59" y="21">alter_index</text>
   </a>
   <a xmlns:xlink="http://www.w3.org/1999/xlink"
      xlink:href="../alter_plugin"
      xlink:title="alter_plugin">
      <rect x="51" y="47" width="96" height="32"/>
      <rect x="49" y="45" width="96" height="32" class="nonterminal"/>
      <text class="nonterminal" x="59" y="65">alter_plugin</text>
   </a>
   <a xmlns:xlink="http://www.w3.org/1999/xlink"
      xlink:href="../alter_procedure"
      xlink:title="alter_procedure">
      <rect x="51" y="91" width="122" height="32"/>
      <rect x="49" y="89" width="122" height="32" class="nonterminal"/>
      <text class="nonterminal" x="59" y="109">alter_procedure</text>
   </a>
   <a xmlns:xlink="http://www.w3.org/1999/xlink"
      xlink:href="../alter_system"
      xlink:title="alter_system">
      <rect x="51" y="135" width="102" height="32"/>
      <rect x="49" y="133" width="102" height="32" class="nonterminal"/>
      <text class="nonterminal" x="59" y="153">alter_system</text>
   </a>
   <a xmlns:xlink="http://www.w3.org/1999/xlink"
      xlink:href="../alter_table"
      xlink:title="alter_table">
      <rect x="51" y="179" width="90" height="32"/>
      <rect x="49" y="177" width="90" height="32" class="nonterminal"/>
      <text class="nonterminal" x="59" y="197">alter_table</text>
   </a>
   <a xmlns:xlink="http://www.w3.org/1999/xlink"
      xlink:href="../create_index"
      xlink:title="create_index">
      <rect x="51" y="223" width="102" height="32"/>
      <rect x="49" y="221" width="102" height="32" class="nonterminal"/>
      <text class="nonterminal" x="59" y="241">create_index</text>
   </a>
   <a xmlns:xlink="http://www.w3.org/1999/xlink"
      xlink:href="../create_plugin"
      xlink:title="create_plugin">
      <rect x="51" y="267" width="106" height="32"/>
      <rect x="49" y="265" width="106" height="32" class="nonterminal"/>
      <text class="nonterminal" x="59" y="285">create_plugin</text>
   </a>
   <a xmlns:xlink="http://www.w3.org/1999/xlink"
      xlink:href="../create_procedure"
      xlink:title="create_procedure">
      <rect x="51" y="311" width="132" height="32"/>
      <rect x="49" y="309" width="132" height="32" class="nonterminal"/>
      <text class="nonterminal" x="59" y="329">create_procedure</text>
   </a>
   <a xmlns:xlink="http://www.w3.org/1999/xlink"
      xlink:href="../create_table"
      xlink:title="create_table">
      <rect x="51" y="355" width="100" height="32"/>
      <rect x="49" y="353" width="100" height="32" class="nonterminal"/>
      <text class="nonterminal" x="59" y="373">create_table</text>
   </a>
   <a xmlns:xlink="http://www.w3.org/1999/xlink"
      xlink:href="../drop_index"
      xlink:title="drop_index">
      <rect x="51" y="399" width="92" height="32"/>
      <rect x="49" y="397" width="92" height="32" class="nonterminal"/>
      <text class="nonterminal" x="59" y="417">drop_index</text>
   </a>
   <a xmlns:xlink="http://www.w3.org/1999/xlink"
      xlink:href="../drop_plugin"
      xlink:title="drop_plugin">
      <rect x="51" y="443" width="96" height="32"/>
      <rect x="49" y="441" width="96" height="32" class="nonterminal"/>
      <text class="nonterminal" x="59" y="461">drop_plugin</text>
   </a>
   <a xmlns:xlink="http://www.w3.org/1999/xlink"
      xlink:href="../drop_procedure"
      xlink:title="drop_procedure">
      <rect x="51" y="487" width="122" height="32"/>
      <rect x="49" y="485" width="122" height="32" class="nonterminal"/>
      <text class="nonterminal" x="59" y="505">drop_procedure</text>
   </a>
   <a xmlns:xlink="http://www.w3.org/1999/xlink"
      xlink:href="../drop_table"
      xlink:title="drop_table">
      <rect x="51" y="531" width="88" height="32"/>
      <rect x="49" y="529" width="88" height="32" class="nonterminal"/>
      <text class="nonterminal" x="59" y="549">drop_table</text>
   </a>
   <a xmlns:xlink="http://www.w3.org/1999/xlink"
      xlink:href="../truncate_table"
      xlink:title="truncate_table">
      <rect x="51" y="575" width="114" height="32"/>
      <rect x="49" y="573" width="114" height="32" class="nonterminal"/>
      <text class="nonterminal" x="59" y="593">truncate_table</text>
   </a>
   <a xmlns:xlink="http://www.w3.org/1999/xlink"
      xlink:href="../backup"
      xlink:title="backup">
      <rect x="51" y="619" width="64" height="32"/>
      <rect x="49" y="617" width="64" height="32" class="nonterminal"/>
      <text class="nonterminal" x="59" y="637">backup</text>
   </a>
   <path class="line"
         d="m17 17 h2 m20 0 h10 m92 0 h10 m0 0 h40 m-172 0 h20 m152 0 h20 m-192 0 q10 0 10 10 m172 0 q0 -10 10 -10 m-182 10 v24 m172 0 v-24 m-172 24 q0 10 10 10 m152 0 q10 0 10 -10 m-162 10 h10 m96 0 h10 m0 0 h36 m-162 -10 v20 m172 0 v-20 m-172 20 v24 m172 0 v-24 m-172 24 q0 10 10 10 m152 0 q10 0 10 -10 m-162 10 h10 m122 0 h10 m0 0 h10 m-162 -10 v20 m172 0 v-20 m-172 20 v24 m172 0 v-24 m-172 24 q0 10 10 10 m152 0 q10 0 10 -10 m-162 10 h10 m102 0 h10 m0 0 h30 m-162 -10 v20 m172 0 v-20 m-172 20 v24 m172 0 v-24 m-172 24 q0 10 10 10 m152 0 q10 0 10 -10 m-162 10 h10 m90 0 h10 m0 0 h42 m-162 -10 v20 m172 0 v-20 m-172 20 v24 m172 0 v-24 m-172 24 q0 10 10 10 m152 0 q10 0 10 -10 m-162 10 h10 m102 0 h10 m0 0 h30 m-162 -10 v20 m172 0 v-20 m-172 20 v24 m172 0 v-24 m-172 24 q0 10 10 10 m152 0 q10 0 10 -10 m-162 10 h10 m106 0 h10 m0 0 h26 m-162 -10 v20 m172 0 v-20 m-172 20 v24 m172 0 v-24 m-172 24 q0 10 10 10 m152 0 q10 0 10 -10 m-162 10 h10 m132 0 h10 m-162 -10 v20 m172 0 v-20 m-172 20 v24 m172 0 v-24 m-172 24 q0 10 10 10 m152 0 q10 0 10 -10 m-162 10 h10 m100 0 h10 m0 0 h32 m-162 -10 v20 m172 0 v-20 m-172 20 v24 m172 0 v-24 m-172 24 q0 10 10 10 m152 0 q10 0 10 -10 m-162 10 h10 m92 0 h10 m0 0 h40 m-162 -10 v20 m172 0 v-20 m-172 20 v24 m172 0 v-24 m-172 24 q0 10 10 10 m152 0 q10 0 10 -10 m-162 10 h10 m96 0 h10 m0 0 h36 m-162 -10 v20 m172 0 v-20 m-172 20 v24 m172 0 v-24 m-172 24 q0 10 10 10 m152 0 q10 0 10 -10 m-162 10 h10 m122 0 h10 m0 0 h10 m-162 -10 v20 m172 0 v-20 m-172 20 v24 m172 0 v-24 m-172 24 q0 10 10 10 m152 0 q10 0 10 -10 m-162 10 h10 m88 0 h10 m0 0 h44 m-162 -10 v20 m172 0 v-20 m-172 20 v24 m172 0 v-24 m-172 24 q0 10 10 10 m152 0 q10 0 10 -10 m-162 10 h10 m114 0 h10 m0 0 h18 m-162 -10 v20 m172 0 v-20 m-172 20 v24 m172 0 v-24 m-172 24 q0 10 10 10 m152 0 q10 0 10 -10 m-162 10 h10 m64 0 h10 m0 0 h68 m23 -616 h-3"/>
   <polygon points="221 17 229 13 229 21"/>
   <polygon points="221 17 213 13 213 21"/>
</svg>
