<?xml version="1.0" encoding="UTF-8" standalone="no"?>
<svg
   width="231"
   height="477"
   version="1.1"
   viewBox="0 0 231 477"
   id="svg24"
   sodipodi:docname="ddl.svg"
   inkscape:version="1.3.2 (091e20ef0f, 2023-11-25)"
   xmlns:inkscape="http://www.inkscape.org/namespaces/inkscape"
   xmlns:sodipodi="http://sodipodi.sourceforge.net/DTD/sodipodi-0.dtd"
   xmlns:xlink="http://www.w3.org/1999/xlink"
   xmlns="http://www.w3.org/2000/svg"
   xmlns:svg="http://www.w3.org/2000/svg">
  <sodipodi:namedview
     id="namedview24"
     pagecolor="#ffffff"
     bordercolor="#666666"
     borderopacity="1.0"
     inkscape:showpageshadow="2"
     inkscape:pageopacity="0.0"
     inkscape:pagecheckerboard="0"
     inkscape:deskcolor="#d1d1d1"
     inkscape:zoom="1.5930736"
     inkscape:cx="115.5"
     inkscape:cy="238.53261"
     inkscape:window-width="1358"
     inkscape:window-height="930"
     inkscape:window-x="339"
     inkscape:window-y="151"
     inkscape:window-maximized="0"
     inkscape:current-layer="svg24" />
  <defs
     id="defs1">
    <style
       type="text/css"
       id="style1">@namespace &quot;http://www.w3.org/2000/svg&quot;;.line { fill: none; stroke: #330000; stroke-width: 1; }
.bold-line { stroke: #140000; shape-rendering: crispEdges; stroke-width: 2; }
.thin-line { stroke: #1F0000; shape-rendering: crispEdges }
.filled { fill: #330000; stroke: none; }
text.terminal { font-family: Verdana, Sans-serif;                            font-size: 12px;                            fill: #140000;                            font-weight: bold; }
text.nonterminal { font-family: Verdana, Sans-serif;                            font-size: 12px;                            fill: #1A0000;                            font-weight: normal; }
text.regexp { font-family: Verdana, Sans-serif;                            font-size: 12px;                            fill: #1F0000;                            font-weight: normal; }
rect, circle, polygon { fill: #330000; stroke: #330000; }
rect.terminal { fill: #FF4D4D; stroke: #330000; stroke-width: 1; }
rect.nonterminal { fill: #FF9E9E; stroke: #330000; stroke-width: 1; }
rect.text { fill: none; stroke: none; }
polygon.regexp { fill: #FFC7C7; stroke: #330000; stroke-width: 1; }
</style>
  </defs>
  <polygon
     points="9 17 1 13 1 21"
     id="polygon1" />
  <polygon
     points="17 17 9 13 9 21"
     id="polygon2" />
  <a
     xlink:href="../alter_plugin"
     xlink:title="alter_plugin"
     id="a3">
    <rect
       x="51"
       y="3"
       width="96"
       height="32"
       id="rect2" />
    <rect
       x="49"
       y="1"
       width="96"
       height="32"
       class="nonterminal"
       id="rect3" />
    <text
       class="nonterminal"
       x="59"
       y="21"
       id="text3">alter_plugin</text>
  </a>
  <a
     xlink:href="../alter_procedure"
     xlink:title="alter_procedure"
     id="a5">
    <rect
       x="51"
       y="47"
       width="122"
       height="32"
       id="rect4" />
    <rect
       x="49"
       y="45"
       width="122"
       height="32"
       class="nonterminal"
       id="rect5" />
    <text
       class="nonterminal"
       x="59"
       y="65"
       id="text5">alter_procedure</text>
  </a>
  <a
     xlink:href="../alter_system"
     xlink:title="alter_system"
     id="a7">
    <rect
       x="51"
       y="91"
       width="102"
       height="32"
       id="rect6" />
    <rect
       x="49"
       y="89"
       width="102"
       height="32"
       class="nonterminal"
       id="rect7" />
    <text
       class="nonterminal"
       x="59"
       y="109"
       id="text7">alter_system</text>
  </a>
  <a
     xlink:href="../create_index"
     xlink:title="create_index"
     id="a9">
    <rect
       x="51"
       y="135"
       width="102"
       height="32"
       id="rect8" />
    <rect
       x="49"
       y="133"
       width="102"
       height="32"
       class="nonterminal"
       id="rect9" />
    <text
       class="nonterminal"
       x="59"
       y="153"
       id="text9">create_index</text>
  </a>
  <a
     xlink:href="../create_plugin"
     xlink:title="create_plugin"
     id="a11">
    <rect
       x="51"
       y="179"
       width="106"
       height="32"
       id="rect10" />
    <rect
       x="49"
       y="177"
       width="106"
       height="32"
       class="nonterminal"
       id="rect11" />
    <text
       class="nonterminal"
       x="59"
       y="197"
       id="text11">create_plugin</text>
  </a>
  <a
     xlink:href="../create_procedure"
     xlink:title="create_procedure"
     id="a13">
    <rect
       x="51"
       y="223"
       width="132"
       height="32"
       id="rect12" />
    <rect
       x="49"
       y="221"
       width="132"
       height="32"
       class="nonterminal"
       id="rect13" />
    <text
       class="nonterminal"
       x="59"
       y="241"
       id="text13">create_procedure</text>
  </a>
  <a
     xlink:href="../create_table"
     xlink:title="create_table"
     id="a15">
    <rect
       x="51"
       y="267"
       width="100"
       height="32"
       id="rect14" />
    <rect
       x="49"
       y="265"
       width="100"
       height="32"
       class="nonterminal"
       id="rect15" />
    <text
       class="nonterminal"
       x="59"
       y="285"
       id="text15">create_table</text>
  </a>
  <a
     xlink:href="../drop_index"
     xlink:title="drop_index"
     id="a17">
    <rect
       x="51"
       y="311"
       width="92"
       height="32"
       id="rect16" />
    <rect
       x="49"
       y="309"
       width="92"
       height="32"
       class="nonterminal"
       id="rect17" />
    <text
       class="nonterminal"
       x="59"
       y="329"
       id="text17">drop_index</text>
  </a>
  <a
     xlink:href="../drop_plugin"
     xlink:title="drop_plugin"
     id="a19">
    <rect
       x="51"
       y="355"
       width="96"
       height="32"
       id="rect18" />
    <rect
       x="49"
       y="353"
       width="96"
       height="32"
       class="nonterminal"
       id="rect19" />
    <text
       class="nonterminal"
       x="59"
       y="373"
       id="text19">drop_plugin</text>
  </a>
  <a
     xlink:href="../drop_procedure"
     xlink:title="drop_procedure"
     id="a21">
    <rect
       x="51"
       y="399"
       width="122"
       height="32"
       id="rect20" />
    <rect
       x="49"
       y="397"
       width="122"
       height="32"
       class="nonterminal"
       id="rect21" />
    <text
       class="nonterminal"
       x="59"
       y="417"
       id="text21">drop_procedure</text>
  </a>
  <a
     xlink:href="../drop_table"
     xlink:title="drop_table"
     id="a23">
    <rect
       x="51"
       y="443"
       width="88"
       height="32"
       id="rect22" />
    <rect
       x="49"
       y="441"
       width="88"
       height="32"
       class="nonterminal"
       id="rect23" />
    <text
       class="nonterminal"
       x="59"
       y="461"
       id="text23">drop_table</text>
  </a>
  <path
     class="line"
     d="m17 17 h2 m20 0 h10 m96 0 h10 m0 0 h36 m-172 0 h20 m152 0 h20 m-192 0 q10 0 10 10 m172 0 q0 -10 10 -10 m-182 10 v24 m172 0 v-24 m-172 24 q0 10 10 10 m152 0 q10 0 10 -10 m-162 10 h10 m122 0 h10 m0 0 h10 m-162 -10 v20 m172 0 v-20 m-172 20 v24 m172 0 v-24 m-172 24 q0 10 10 10 m152 0 q10 0 10 -10 m-162 10 h10 m102 0 h10 m0 0 h30 m-162 -10 v20 m172 0 v-20 m-172 20 v24 m172 0 v-24 m-172 24 q0 10 10 10 m152 0 q10 0 10 -10 m-162 10 h10 m102 0 h10 m0 0 h30 m-162 -10 v20 m172 0 v-20 m-172 20 v24 m172 0 v-24 m-172 24 q0 10 10 10 m152 0 q10 0 10 -10 m-162 10 h10 m106 0 h10 m0 0 h26 m-162 -10 v20 m172 0 v-20 m-172 20 v24 m172 0 v-24 m-172 24 q0 10 10 10 m152 0 q10 0 10 -10 m-162 10 h10 m132 0 h10 m-162 -10 v20 m172 0 v-20 m-172 20 v24 m172 0 v-24 m-172 24 q0 10 10 10 m152 0 q10 0 10 -10 m-162 10 h10 m100 0 h10 m0 0 h32 m-162 -10 v20 m172 0 v-20 m-172 20 v24 m172 0 v-24 m-172 24 q0 10 10 10 m152 0 q10 0 10 -10 m-162 10 h10 m92 0 h10 m0 0 h40 m-162 -10 v20 m172 0 v-20 m-172 20 v24 m172 0 v-24 m-172 24 q0 10 10 10 m152 0 q10 0 10 -10 m-162 10 h10 m96 0 h10 m0 0 h36 m-162 -10 v20 m172 0 v-20 m-172 20 v24 m172 0 v-24 m-172 24 q0 10 10 10 m152 0 q10 0 10 -10 m-162 10 h10 m122 0 h10 m0 0 h10 m-162 -10 v20 m172 0 v-20 m-172 20 v24 m172 0 v-24 m-172 24 q0 10 10 10 m152 0 q10 0 10 -10 m-162 10 h10 m88 0 h10 m0 0 h44 m23 -440 h-3"
     id="path23" />
  <polygon
     points="221 17 229 13 229 21"
     id="polygon23" />
  <polygon
     points="221 17 213 13 213 21"
     id="polygon24" />
</svg>
