<?xml version="1.0" encoding="UTF-8"?>
<svg
   width="955"
   height="273"
   version="1.1"
   id="svg24"
   viewBox="0 0 955 273"
   sodipodi:docname="dql.svg"
   inkscape:version="1.4 (e7c3feb100, 2024-10-09)"
   xmlns:inkscape="http://www.inkscape.org/namespaces/inkscape"
   xmlns:sodipodi="http://sodipodi.sourceforge.net/DTD/sodipodi-0.dtd"
   xmlns:xlink="http://www.w3.org/1999/xlink"
   xmlns="http://www.w3.org/2000/svg"
   xmlns:svg="http://www.w3.org/2000/svg">
  <sodipodi:namedview
     id="namedview24"
     pagecolor="#ffffff"
     bordercolor="#666666"
     borderopacity="1.0"
     inkscape:showpageshadow="2"
     inkscape:pageopacity="0.0"
     inkscape:pagecheckerboard="0"
     inkscape:deskcolor="#d1d1d1"
     inkscape:zoom="1.5839416"
     inkscape:cx="484.23502"
     inkscape:cy="141.73502"
     inkscape:window-width="1858"
     inkscape:window-height="1014"
     inkscape:window-x="62"
     inkscape:window-y="29"
     inkscape:window-maximized="1"
     inkscape:current-layer="svg24" />
  <defs
     id="defs1">
    <style
       type="text/css"
       id="style1">@namespace &quot;http://www.w3.org/2000/svg&quot;;.line { fill: none; stroke: #330000; stroke-width: 1; }
.bold-line { stroke: #140000; shape-rendering: crispEdges; stroke-width: 2; }
.thin-line { stroke: #1F0000; shape-rendering: crispEdges }
.filled { fill: #330000; stroke: none; }
text.terminal { font-family: Verdana, Sans-serif;                            font-size: 12px;                            fill: #140000;                            font-weight: bold; }
text.nonterminal { font-family: Verdana, Sans-serif;                            font-size: 12px;                            fill: #1A0000;                            font-weight: normal; }
text.regexp { font-family: Verdana, Sans-serif;                            font-size: 12px;                            fill: #1F0000;                            font-weight: normal; }
rect, circle, polygon { fill: #330000; stroke: #330000; }
rect.terminal { fill: #FF4D4D; stroke: #330000; stroke-width: 1; }
rect.nonterminal { fill: #FF9E9E; stroke: #330000; stroke-width: 1; }
rect.text { fill: none; stroke: none; }
polygon.regexp { fill: #FFC7C7; stroke: #330000; stroke-width: 1; }
</style>
  </defs>
   <polygon points="9 61 1 57 1 65"/>
   <polygon points="17 61 9 57 9 65"/>
   <a xmlns:xlink="http://www.w3.org/1999/xlink"
      xlink:href="../with"
      xlink:title="with">
      <rect x="71" y="79" width="46" height="32"/>
      <rect x="69" y="77" width="46" height="32" class="nonterminal"/>
      <text class="nonterminal" x="79" y="97">with</text>
   </a>
   <a xmlns:xlink="http://www.w3.org/1999/xlink"
      xlink:href="../select"
      xlink:title="select">
      <rect x="157" y="47" width="58" height="32"/>
      <rect x="155" y="45" width="58" height="32" class="nonterminal"/>
      <text class="nonterminal" x="165" y="65">select</text>
   </a>
   <a xmlns:xlink="http://www.w3.org/1999/xlink"
      xlink:href="../values"
      xlink:title="values">
      <rect x="51" y="123" width="60" height="32"/>
      <rect x="49" y="121" width="60" height="32" class="nonterminal"/>
      <text class="nonterminal" x="59" y="141">values</text>
   </a>
   <rect x="275" y="47" width="76" height="32" rx="10"/>
   <rect x="273"
         y="45"
         width="76"
         height="32"
         class="terminal"
         rx="10"/>
   <text class="terminal" x="283" y="65">OPTION</text>
   <rect x="371" y="47" width="26" height="32" rx="10"/>
   <rect x="369"
         y="45"
         width="26"
         height="32"
         class="terminal"
         rx="10"/>
   <text class="terminal" x="379" y="65">(</text>
   <rect x="457" y="47" width="132" height="32" rx="10"/>
   <rect x="455"
         y="45"
         width="132"
         height="32"
         class="terminal"
         rx="10"/>
   <text class="terminal" x="465" y="65">read_preference</text>
   <rect x="609" y="47" width="30" height="32" rx="10"/>
   <rect x="607"
         y="45"
         width="30"
         height="32"
         class="terminal"
         rx="10"/>
   <text class="terminal" x="617" y="65">=</text>
   <rect x="679" y="47" width="72" height="32" rx="10"/>
   <rect x="677"
         y="45"
         width="72"
         height="32"
         class="terminal"
         rx="10"/>
   <text class="terminal" x="687" y="65">LEADER</text>
   <rect x="679" y="91" width="78" height="32" rx="10"/>
   <rect x="677"
         y="89"
         width="78"
         height="32"
         class="terminal"
         rx="10"/>
   <text class="terminal" x="687" y="109">REPLICA</text>
   <rect x="679" y="135" width="48" height="32" rx="10"/>
   <rect x="677"
         y="133"
         width="48"
         height="32"
         class="terminal"
         rx="10"/>
   <text class="terminal" x="687" y="153">ANY</text>
   <rect x="477" y="179" width="168" height="32" rx="10"/>
   <rect x="475"
         y="177"
         width="168"
         height="32"
         class="terminal"
         rx="10"/>
   <text class="terminal" x="485" y="197">sql_motion_row_max</text>
   <rect x="477" y="223" width="176" height="32" rx="10"/>
   <rect x="475"
         y="221"
         width="176"
         height="32"
         class="terminal"
         rx="10"/>
   <text class="terminal" x="485" y="241">sql_vdbe_opcode_max</text>
   <rect x="693" y="179" width="30" height="32" rx="10"/>
   <rect x="691"
         y="177"
         width="30"
         height="32"
         class="terminal"
         rx="10"/>
   <text class="terminal" x="701" y="197">=</text>
   <a xmlns:xlink="http://www.w3.org/1999/xlink"
      xlink:href="../../sql_types#unsigned"
      xlink:title="unsigned">
      <rect x="743" y="179" width="78" height="32"/>
      <rect x="741" y="177" width="78" height="32" class="nonterminal"/>
      <text class="nonterminal" x="751" y="197">unsigned</text>
   </a>
   <rect x="437" y="3" width="24" height="32" rx="10"/>
   <rect x="435"
         y="1"
         width="24"
         height="32"
         class="terminal"
         rx="10"/>
   <text class="terminal" x="445" y="21">,</text>
   <rect x="881" y="47" width="26" height="32" rx="10"/>
   <rect x="879"
         y="45"
         width="26"
         height="32"
         class="terminal"
         rx="10"/>
   <text class="terminal" x="889" y="65">)</text>
   <path class="line"
         d="m17 61 h2 m40 0 h10 m0 0 h56 m-86 0 h20 m66 0 h20 m-106 0 q10 0 10 10 m86 0 q0 -10 10 -10 m-96 10 v12 m86 0 v-12 m-86 12 q0 10 10 10 m66 0 q10 0 10 -10 m-76 10 h10 m46 0 h10 m20 -32 h10 m58 0 h10 m-204 0 h20 m184 0 h20 m-224 0 q10 0 10 10 m204 0 q0 -10 10 -10 m-214 10 v56 m204 0 v-56 m-204 56 q0 10 10 10 m184 0 q10 0 10 -10 m-194 10 h10 m60 0 h10 m0 0 h104 m40 -76 h10 m76 0 h10 m0 0 h10 m26 0 h10 m40 0 h10 m132 0 h10 m0 0 h10 m30 0 h10 m20 0 h10 m72 0 h10 m0 0 h6 m-118 0 h20 m98 0 h20 m-138 0 q10 0 10 10 m118 0 q0 -10 10 -10 m-128 10 v24 m118 0 v-24 m-118 24 q0 10 10 10 m98 0 q10 0 10 -10 m-108 10 h10 m78 0 h10 m-108 -10 v20 m118 0 v-20 m-118 20 v24 m118 0 v-24 m-118 24 q0 10 10 10 m98 0 q10 0 10 -10 m-108 10 h10 m48 0 h10 m0 0 h30 m20 -88 h44 m-404 0 h20 m384 0 h20 m-424 0 q10 0 10 10 m404 0 q0 -10 10 -10 m-414 10 v112 m404 0 v-112 m-404 112 q0 10 10 10 m384 0 q10 0 10 -10 m-374 10 h10 m168 0 h10 m0 0 h8 m-216 0 h20 m196 0 h20 m-236 0 q10 0 10 10 m216 0 q0 -10 10 -10 m-226 10 v24 m216 0 v-24 m-216 24 q0 10 10 10 m196 0 q10 0 10 -10 m-206 10 h10 m176 0 h10 m20 -44 h10 m30 0 h10 m0 0 h10 m78 0 h10 m-424 -132 l20 0 m-1 0 q-9 0 -9 -10 l0 -24 q0 -10 10 -10 m424 44 l20 0 m-20 0 q10 0 10 -10 l0 -24 q0 -10 -10 -10 m-424 0 h10 m24 0 h10 m0 0 h380 m20 44 h10 m26 0 h10 m-672 0 h20 m652 0 h20 m-692 0 q10 0 10 10 m672 0 q0 -10 10 -10 m-682 10 v190 m672 0 v-190 m-672 190 q0 10 10 10 m652 0 q10 0 10 -10 m-662 10 h10 m0 0 h642 m23 -210 h-3"/>
   <polygon points="945 61 953 57 953 65"/>
   <polygon points="945 61 937 57 937 65"/>
</svg>
