<?xml version="1.0" encoding="UTF-8" standalone="no"?>
<svg
   width="495"
   height="155"
   viewBox="0 0 495 155"
   version="1.1"
   id="svg24"
   sodipodi:docname="drop_role.svg"
   inkscape:version="1.4.2 (ebf0e940d0, 2025-05-08)"
   xmlns:inkscape="http://www.inkscape.org/namespaces/inkscape"
   xmlns:sodipodi="http://sodipodi.sourceforge.net/DTD/sodipodi-0.dtd"
   xmlns:xlink="http://www.w3.org/1999/xlink"
   xmlns="http://www.w3.org/2000/svg"
   xmlns:svg="http://www.w3.org/2000/svg">
  <sodipodi:namedview
     id="namedview24"
     pagecolor="#ffffff"
     bordercolor="#666666"
     borderopacity="1.0"
     inkscape:showpageshadow="2"
     inkscape:pageopacity="0.0"
     inkscape:pagecheckerboard="0"
     inkscape:deskcolor="#d1d1d1"
     inkscape:zoom="1.7838384"
     inkscape:cx="247.5"
     inkscape:cy="77.641563"
     inkscape:window-width="1858"
     inkscape:window-height="1014"
     inkscape:window-x="62"
     inkscape:window-y="29"
     inkscape:window-maximized="1"
     inkscape:current-layer="svg24" />
  <defs
     id="defs1">
    <style
       type="text/css"
       id="style1">@namespace &quot;http://www.w3.org/2000/svg&quot;;.line { fill: none; stroke: #330000; stroke-width: 1; }
.bold-line { stroke: #140000; shape-rendering: crispEdges; stroke-width: 2; }
.thin-line { stroke: #1F0000; shape-rendering: crispEdges }
.filled { fill: #330000; stroke: none; }
text.terminal { font-family: Verdana, Sans-serif;                            font-size: 12px;                            fill: #140000;                            font-weight: bold; }
text.nonterminal { font-family: Verdana, Sans-serif;                            font-size: 12px;                            fill: #1A0000;                            font-weight: normal; }
text.regexp { font-family: Verdana, Sans-serif;                            font-size: 12px;                            fill: #1F0000;                            font-weight: normal; }
rect, circle, polygon { fill: #330000; stroke: #330000; }
rect.terminal { fill: #FF4D4D; stroke: #330000; stroke-width: 1; }
rect.nonterminal { fill: #FF9E9E; stroke: #330000; stroke-width: 1; }
rect.text { fill: none; stroke: none; }
polygon.regexp { fill: #FFC7C7; stroke: #330000; stroke-width: 1; }
</style>
  </defs>
  <polygon
     points="11 17 3 13 3 21"
     id="polygon1" />
  <polygon
     points="19 17 11 13 11 21"
     id="polygon2" />
  <rect
     x="33"
     y="3"
     width="58"
     height="32"
     rx="10"
     id="rect2" />
  <rect
     x="31"
     y="1"
     width="58"
     height="32"
     class="terminal"
     rx="10"
     id="rect3" />
  <text
     class="terminal"
     x="41"
     y="21"
     id="text3">DROP</text>
  <rect
     x="111"
     y="3"
     width="56"
     height="32"
     rx="10"
     id="rect4" />
  <rect
     x="109"
     y="1"
     width="56"
     height="32"
     class="terminal"
     rx="10"
     id="rect5" />
  <text
     class="terminal"
     x="119"
     y="21"
     id="text5">ROLE</text>
  <rect
     x="207"
     y="35"
     width="34"
     height="32"
     rx="10"
     id="rect6" />
  <rect
     x="205"
     y="33"
     width="34"
     height="32"
     class="terminal"
     rx="10"
     id="rect7" />
  <text
     class="terminal"
     x="215"
     y="53"
     id="text7">IF</text>
  <rect
     x="261"
     y="35"
     width="70"
     height="32"
     rx="10"
     id="rect8" />
  <rect
     x="259"
     y="33"
     width="70"
     height="32"
     class="terminal"
     rx="10"
     id="rect9" />
  <text
     class="terminal"
     x="269"
     y="53"
     id="text9">EXISTS</text>
  <a
     xlink:href="../object"
     xlink:title="role"
     id="a11">
    <rect
       x="371"
       y="3"
       width="44"
       height="32"
       id="rect10" />
    <rect
       x="369"
       y="1"
       width="44"
       height="32"
       class="nonterminal"
       id="rect11" />
    <text
       class="nonterminal"
       x="379"
       y="21"
       id="text11">role</text>
  </a>
  <rect
     x="45"
     y="121"
     width="76"
     height="32"
     rx="10"
     id="rect12" />
  <rect
     x="43"
     y="119"
     width="76"
     height="32"
     class="terminal"
     rx="10"
     id="rect13" />
  <text
     class="terminal"
     x="53"
     y="139"
     id="text13">OPTION</text>
  <rect
     x="141"
     y="121"
     width="26"
     height="32"
     rx="10"
     id="rect14" />
  <rect
     x="139"
     y="119"
     width="26"
     height="32"
     class="terminal"
     rx="10"
     id="rect15" />
  <text
     class="terminal"
     x="149"
     y="139"
     id="text15">(</text>
  <rect
     x="187"
     y="121"
     width="82"
     height="32"
     rx="10"
     id="rect16" />
  <rect
     x="185"
     y="119"
     width="82"
     height="32"
     class="terminal"
     rx="10"
     id="rect17" />
  <text
     class="terminal"
     x="195"
     y="139"
     id="text17">TIMEOUT</text>
  <rect
     x="289"
     y="121"
     width="30"
     height="32"
     rx="10"
     id="rect18" />
  <rect
     x="287"
     y="119"
     width="30"
     height="32"
     class="terminal"
     rx="10"
     id="rect19" />
  <text
     class="terminal"
     x="297"
     y="139"
     id="text19">=</text>
  <a
     xlink:href="../../sql_types#double"
     xlink:title="double"
     id="a21">
    <rect
       x="339"
       y="121"
       width="62"
       height="32"
       id="rect20" />
    <rect
       x="337"
       y="119"
       width="62"
       height="32"
       class="nonterminal"
       id="rect21" />
    <text
       class="nonterminal"
       x="347"
       y="139"
       id="text21">double</text>
  </a>
  <rect
     x="421"
     y="121"
     width="26"
     height="32"
     rx="10"
     id="rect22" />
  <rect
     x="419"
     y="119"
     width="26"
     height="32"
     class="terminal"
     rx="10"
     id="rect23" />
  <text
     class="terminal"
     x="429"
     y="139"
     id="text23">)</text>
  <path
     class="line"
     d="m19 17 h2 m0 0 h10 m58 0 h10 m0 0 h10 m56 0 h10 m20 0 h10 m0 0 h134 m-164 0 h20 m144 0 h20 m-184 0 q10 0 10 10 m164 0 q0 -10 10 -10 m-174 10 v12 m164 0 v-12 m-164 12 q0 10 10 10 m144 0 q10 0 10 -10 m-154 10 h10 m34 0 h10 m0 0 h10 m70 0 h10 m20 -32 h10 m44 0 h10 m2 0 l2 0 m2 0 l2 0 m2 0 l2 0 m-434 86 l2 0 m2 0 l2 0 m2 0 l2 0 m22 0 h10 m0 0 h412 m-442 0 h20 m422 0 h20 m-462 0 q10 0 10 10 m442 0 q0 -10 10 -10 m-452 10 v12 m442 0 v-12 m-442 12 q0 10 10 10 m422 0 q10 0 10 -10 m-432 10 h10 m76 0 h10 m0 0 h10 m26 0 h10 m0 0 h10 m82 0 h10 m0 0 h10 m30 0 h10 m0 0 h10 m62 0 h10 m0 0 h10 m26 0 h10 m23 -32 h-3"
     id="path23" />
  <polygon
     points="485 103 493 99 493 107"
     id="polygon23" />
  <polygon
     points="485 103 477 99 477 107"
     id="polygon24" />
</svg>
