<?xml version="1.0" encoding="UTF-8" standalone="no"?>
<svg
   width="445"
   height="69"
   version="1.1"
   viewBox="0 0 445 69"
   id="svg12"
   sodipodi:docname="drop_user.svg"
   inkscape:version="1.3.2 (091e20ef0f, 2023-11-25)"
   xmlns:inkscape="http://www.inkscape.org/namespaces/inkscape"
   xmlns:sodipodi="http://sodipodi.sourceforge.net/DTD/sodipodi-0.dtd"
   xmlns:xlink="http://www.w3.org/1999/xlink"
   xmlns="http://www.w3.org/2000/svg"
   xmlns:svg="http://www.w3.org/2000/svg">
  <sodipodi:namedview
     id="namedview12"
     pagecolor="#ffffff"
     bordercolor="#666666"
     borderopacity="1.0"
     inkscape:showpageshadow="2"
     inkscape:pageopacity="0.0"
     inkscape:pagecheckerboard="0"
     inkscape:deskcolor="#d1d1d1"
     inkscape:zoom="1.1595506"
     inkscape:cx="345.39244"
     inkscape:cy="6.0368217"
     inkscape:window-width="1858"
     inkscape:window-height="1014"
     inkscape:window-x="62"
     inkscape:window-y="29"
     inkscape:window-maximized="1"
     inkscape:current-layer="svg12" />
  <defs
     id="defs1">
    <style
       type="text/css"
       id="style1">@namespace &quot;http://www.w3.org/2000/svg&quot;;.line { fill: none; stroke: #330000; stroke-width: 1; }
.bold-line { stroke: #140000; shape-rendering: crispEdges; stroke-width: 2; }
.thin-line { stroke: #1F0000; shape-rendering: crispEdges }
.filled { fill: #330000; stroke: none; }
text.terminal { font-family: Verdana, Sans-serif;                            font-size: 12px;                            fill: #140000;                            font-weight: bold; }
text.nonterminal { font-family: Verdana, Sans-serif;                            font-size: 12px;                            fill: #1A0000;                            font-weight: normal; }
text.regexp { font-family: Verdana, Sans-serif;                            font-size: 12px;                            fill: #1F0000;                            font-weight: normal; }
rect, circle, polygon { fill: #330000; stroke: #330000; }
rect.terminal { fill: #FF4D4D; stroke: #330000; stroke-width: 1; }
rect.nonterminal { fill: #FF9E9E; stroke: #330000; stroke-width: 1; }
rect.text { fill: none; stroke: none; }
polygon.regexp { fill: #FFC7C7; stroke: #330000; stroke-width: 1; }
</style>
  </defs>
  <polygon
     points="9 17 1 13 1 21"
     id="polygon1" />
  <polygon
     points="17 17 9 13 9 21"
     id="polygon2" />
  <rect
     x="31"
     y="3"
     width="58"
     height="32"
     rx="10"
     id="rect2" />
  <rect
     x="29"
     y="1"
     width="58"
     height="32"
     class="terminal"
     rx="10"
     id="rect3" />
  <text
     class="terminal"
     x="39"
     y="21"
     id="text3">DROP</text>
  <rect
     x="109"
     y="3"
     width="56"
     height="32"
     rx="10"
     id="rect4" />
  <rect
     x="107"
     y="1"
     width="56"
     height="32"
     class="terminal"
     rx="10"
     id="rect5" />
  <text
     class="terminal"
     x="117"
     y="21"
     id="text5">USER</text>
  <rect
     x="205"
     y="35"
     width="34"
     height="32"
     rx="10"
     id="rect6" />
  <rect
     x="203"
     y="33"
     width="34"
     height="32"
     class="terminal"
     rx="10"
     id="rect7" />
  <text
     class="terminal"
     x="213"
     y="53"
     id="text7">IF</text>
  <rect
     x="259"
     y="35"
     width="70"
     height="32"
     rx="10"
     id="rect8" />
  <rect
     x="257"
     y="33"
     width="70"
     height="32"
     class="terminal"
     rx="10"
     id="rect9" />
  <text
     class="terminal"
     x="267"
     y="53"
     id="text9">EXISTS</text>
  <a
     xlink:href="../object"
     xlink:title="user"
     id="a11">
    <rect
       x="369"
       y="3"
       width="48"
       height="32"
       id="rect10" />
    <rect
       x="367"
       y="1"
       width="48"
       height="32"
       class="nonterminal"
       id="rect11" />
    <text
       class="nonterminal"
       x="377"
       y="21"
       id="text11">user</text>
  </a>
  <path
     class="line"
     d="m17 17 h2 m0 0 h10 m58 0 h10 m0 0 h10 m56 0 h10 m20 0 h10 m0 0 h134 m-164 0 h20 m144 0 h20 m-184 0 q10 0 10 10 m164 0 q0 -10 10 -10 m-174 10 v12 m164 0 v-12 m-164 12 q0 10 10 10 m144 0 q10 0 10 -10 m-154 10 h10 m34 0 h10 m0 0 h10 m70 0 h10 m20 -32 h10 m48 0 h10 m3 0 h-3"
     id="path11" />
  <polygon
     points="435 17 443 13 443 21"
     id="polygon11" />
  <polygon
     points="435 17 427 13 427 21"
     id="polygon12" />
</svg>
