<?xml version="1.0" encoding="UTF-8" standalone="no"?>
<svg
   width="495"
   height="281"
   viewBox="0 0 495 281"
   version="1.1"
   id="svg32"
   sodipodi:docname="drop_index.svg"
   inkscape:version="1.3.2 (091e20ef0f, 2023-11-25)"
   xmlns:inkscape="http://www.inkscape.org/namespaces/inkscape"
   xmlns:sodipodi="http://sodipodi.sourceforge.net/DTD/sodipodi-0.dtd"
   xmlns:xlink="http://www.w3.org/1999/xlink"
   xmlns="http://www.w3.org/2000/svg"
   xmlns:svg="http://www.w3.org/2000/svg">
  <sodipodi:namedview
     id="namedview32"
     pagecolor="#ffffff"
     bordercolor="#666666"
     borderopacity="1.0"
     inkscape:showpageshadow="2"
     inkscape:pageopacity="0.0"
     inkscape:pagecheckerboard="0"
     inkscape:deskcolor="#d1d1d1"
     inkscape:zoom="0.52121212"
     inkscape:cx="248.4593"
     inkscape:cy="140.05814"
     inkscape:window-width="1858"
     inkscape:window-height="1014"
     inkscape:window-x="62"
     inkscape:window-y="29"
     inkscape:window-maximized="1"
     inkscape:current-layer="svg32" />
  <defs
     id="defs1">
    <style
       type="text/css"
       id="style1">@namespace &quot;http://www.w3.org/2000/svg&quot;;.line { fill: none; stroke: #330000; stroke-width: 1; }
.bold-line { stroke: #140000; shape-rendering: crispEdges; stroke-width: 2; }
.thin-line { stroke: #1F0000; shape-rendering: crispEdges }
.filled { fill: #330000; stroke: none; }
text.terminal { font-family: Verdana, Sans-serif;                            font-size: 12px;                            fill: #140000;                            font-weight: bold; }
text.nonterminal { font-family: Verdana, Sans-serif;                            font-size: 12px;                            fill: #1A0000;                            font-weight: normal; }
text.regexp { font-family: Verdana, Sans-serif;                            font-size: 12px;                            fill: #1F0000;                            font-weight: normal; }
rect, circle, polygon { fill: #330000; stroke: #330000; }
rect.terminal { fill: #FF4D4D; stroke: #330000; stroke-width: 1; }
rect.nonterminal { fill: #FF9E9E; stroke: #330000; stroke-width: 1; }
rect.text { fill: none; stroke: none; }
polygon.regexp { fill: #FFC7C7; stroke: #330000; stroke-width: 1; }
</style>
  </defs>
  <polygon
     points="11 17 3 13 3 21"
     id="polygon1" />
  <polygon
     points="19 17 11 13 11 21"
     id="polygon2" />
  <rect
     x="33"
     y="3"
     width="58"
     height="32"
     rx="10"
     id="rect2" />
  <rect
     x="31"
     y="1"
     width="58"
     height="32"
     class="terminal"
     rx="10"
     id="rect3" />
  <text
     class="terminal"
     x="41"
     y="21"
     id="text3">DROP</text>
  <rect
     x="111"
     y="3"
     width="64"
     height="32"
     rx="10"
     id="rect4" />
  <rect
     x="109"
     y="1"
     width="64"
     height="32"
     class="terminal"
     rx="10"
     id="rect5" />
  <text
     class="terminal"
     x="119"
     y="21"
     id="text5">INDEX</text>
  <rect
     x="215"
     y="35"
     width="34"
     height="32"
     rx="10"
     id="rect6" />
  <rect
     x="213"
     y="33"
     width="34"
     height="32"
     class="terminal"
     rx="10"
     id="rect7" />
  <text
     class="terminal"
     x="223"
     y="53"
     id="text7">IF</text>
  <rect
     x="269"
     y="35"
     width="70"
     height="32"
     rx="10"
     id="rect8" />
  <rect
     x="267"
     y="33"
     width="70"
     height="32"
     class="terminal"
     rx="10"
     id="rect9" />
  <text
     class="terminal"
     x="277"
     y="53"
     id="text9">EXISTS</text>
  <a
     xlink:href="../object"
     xlink:title="index"
     id="a11">
    <rect
       x="379"
       y="3"
       width="54"
       height="32"
       id="rect10" />
    <rect
       x="377"
       y="1"
       width="54"
       height="32"
       class="nonterminal"
       id="rect11" />
    <text
       class="nonterminal"
       x="387"
       y="21"
       id="text11">index</text>
  </a>
  <rect
     x="95"
     y="117"
     width="58"
     height="32"
     rx="10"
     id="rect12" />
  <rect
     x="93"
     y="115"
     width="58"
     height="32"
     class="terminal"
     rx="10"
     id="rect13" />
  <text
     class="terminal"
     x="103"
     y="135"
     id="text13">WAIT</text>
  <rect
     x="173"
     y="117"
     width="80"
     height="32"
     rx="10"
     id="rect14" />
  <rect
     x="171"
     y="115"
     width="80"
     height="32"
     class="terminal"
     rx="10"
     id="rect15" />
  <text
     class="terminal"
     x="181"
     y="135"
     id="text15">APPLIED</text>
  <rect
     x="293"
     y="117"
     width="92"
     height="32"
     rx="10"
     id="rect16" />
  <rect
     x="291"
     y="115"
     width="92"
     height="32"
     class="terminal"
     rx="10"
     id="rect17" />
  <text
     class="terminal"
     x="301"
     y="135"
     id="text17">GLOBALLY</text>
  <rect
     x="293"
     y="161"
     width="82"
     height="32"
     rx="10"
     id="rect18" />
  <rect
     x="291"
     y="159"
     width="82"
     height="32"
     class="terminal"
     rx="10"
     id="rect19" />
  <text
     class="terminal"
     x="301"
     y="179"
     id="text19">LOCALLY</text>
  <rect
     x="45"
     y="247"
     width="76"
     height="32"
     rx="10"
     id="rect20" />
  <rect
     x="43"
     y="245"
     width="76"
     height="32"
     class="terminal"
     rx="10"
     id="rect21" />
  <text
     class="terminal"
     x="53"
     y="265"
     id="text21">OPTION</text>
  <rect
     x="141"
     y="247"
     width="26"
     height="32"
     rx="10"
     id="rect22" />
  <rect
     x="139"
     y="245"
     width="26"
     height="32"
     class="terminal"
     rx="10"
     id="rect23" />
  <text
     class="terminal"
     x="149"
     y="265"
     id="text23">(</text>
  <rect
     x="187"
     y="247"
     width="82"
     height="32"
     rx="10"
     id="rect24" />
  <rect
     x="185"
     y="245"
     width="82"
     height="32"
     class="terminal"
     rx="10"
     id="rect25" />
  <text
     class="terminal"
     x="195"
     y="265"
     id="text25">TIMEOUT</text>
  <rect
     x="289"
     y="247"
     width="30"
     height="32"
     rx="10"
     id="rect26" />
  <rect
     x="287"
     y="245"
     width="30"
     height="32"
     class="terminal"
     rx="10"
     id="rect27" />
  <text
     class="terminal"
     x="297"
     y="265"
     id="text27">=</text>
  <a
     xlink:href="../../sql_types#double"
     xlink:title="double"
     id="a29">
    <rect
       x="339"
       y="247"
       width="62"
       height="32"
       id="rect28" />
    <rect
       x="337"
       y="245"
       width="62"
       height="32"
       class="nonterminal"
       id="rect29" />
    <text
       class="nonterminal"
       x="347"
       y="265"
       id="text29">double</text>
  </a>
  <rect
     x="421"
     y="247"
     width="26"
     height="32"
     rx="10"
     id="rect30" />
  <rect
     x="419"
     y="245"
     width="26"
     height="32"
     class="terminal"
     rx="10"
     id="rect31" />
  <text
     class="terminal"
     x="429"
     y="265"
     id="text31">)</text>
  <path
     class="line"
     d="m19 17 h2 m0 0 h10 m58 0 h10 m0 0 h10 m64 0 h10 m20 0 h10 m0 0 h134 m-164 0 h20 m144 0 h20 m-184 0 q10 0 10 10 m164 0 q0 -10 10 -10 m-174 10 v12 m164 0 v-12 m-164 12 q0 10 10 10 m144 0 q10 0 10 -10 m-154 10 h10 m34 0 h10 m0 0 h10 m70 0 h10 m20 -32 h10 m54 0 h10 m2 0 l2 0 m2 0 l2 0 m2 0 l2 0 m-402 82 l2 0 m2 0 l2 0 m2 0 l2 0 m22 0 h10 m0 0 h320 m-350 0 h20 m330 0 h20 m-370 0 q10 0 10 10 m350 0 q0 -10 10 -10 m-360 10 v12 m350 0 v-12 m-350 12 q0 10 10 10 m330 0 q10 0 10 -10 m-340 10 h10 m58 0 h10 m0 0 h10 m80 0 h10 m20 0 h10 m92 0 h10 m-132 0 h20 m112 0 h20 m-152 0 q10 0 10 10 m132 0 q0 -10 10 -10 m-142 10 v24 m132 0 v-24 m-132 24 q0 10 10 10 m112 0 q10 0 10 -10 m-122 10 h10 m82 0 h10 m0 0 h10 m42 -76 l2 0 m2 0 l2 0 m2 0 l2 0 m-444 130 l2 0 m2 0 l2 0 m2 0 l2 0 m22 0 h10 m0 0 h412 m-442 0 h20 m422 0 h20 m-462 0 q10 0 10 10 m442 0 q0 -10 10 -10 m-452 10 v12 m442 0 v-12 m-442 12 q0 10 10 10 m422 0 q10 0 10 -10 m-432 10 h10 m76 0 h10 m0 0 h10 m26 0 h10 m0 0 h10 m82 0 h10 m0 0 h10 m30 0 h10 m0 0 h10 m62 0 h10 m0 0 h10 m26 0 h10 m23 -32 h-3"
     id="path31" />
  <polygon
     points="485 229 493 225 493 233"
     id="polygon31" />
  <polygon
     points="485 229 477 225 477 233"
     id="polygon32" />
</svg>
