<?xml version="1.0" encoding="UTF-8" standalone="no"?>
<svg
   width="637"
   height="341"
   viewBox="0 0 637 341"
   version="1.1"
   id="svg40"
   sodipodi:docname="drop_procedure.svg"
   inkscape:version="1.3.2 (091e20ef0f, 2023-11-25)"
   xmlns:inkscape="http://www.inkscape.org/namespaces/inkscape"
   xmlns:sodipodi="http://sodipodi.sourceforge.net/DTD/sodipodi-0.dtd"
   xmlns:xlink="http://www.w3.org/1999/xlink"
   xmlns="http://www.w3.org/2000/svg"
   xmlns:svg="http://www.w3.org/2000/svg">
  <sodipodi:namedview
     id="namedview40"
     pagecolor="#ffffff"
     bordercolor="#666666"
     borderopacity="1.0"
     inkscape:showpageshadow="2"
     inkscape:pageopacity="0.0"
     inkscape:pagecheckerboard="0"
     inkscape:deskcolor="#d1d1d1"
     inkscape:zoom="0.8170025"
     inkscape:cx="369.03192"
     inkscape:cy="140.75844"
     inkscape:window-width="1858"
     inkscape:window-height="1014"
     inkscape:window-x="62"
     inkscape:window-y="29"
     inkscape:window-maximized="1"
     inkscape:current-layer="svg40" />
  <defs
     id="defs1">
    <style
       type="text/css"
       id="style1">@namespace &quot;http://www.w3.org/2000/svg&quot;;.line { fill: none; stroke: #330000; stroke-width: 1; }
.bold-line { stroke: #140000; shape-rendering: crispEdges; stroke-width: 2; }
.thin-line { stroke: #1F0000; shape-rendering: crispEdges }
.filled { fill: #330000; stroke: none; }
text.terminal { font-family: Verdana, Sans-serif;                            font-size: 12px;                            fill: #140000;                            font-weight: bold; }
text.nonterminal { font-family: Verdana, Sans-serif;                            font-size: 12px;                            fill: #1A0000;                            font-weight: normal; }
text.regexp { font-family: Verdana, Sans-serif;                            font-size: 12px;                            fill: #1F0000;                            font-weight: normal; }
rect, circle, polygon { fill: #330000; stroke: #330000; }
rect.terminal { fill: #FF4D4D; stroke: #330000; stroke-width: 1; }
rect.nonterminal { fill: #FF9E9E; stroke: #330000; stroke-width: 1; }
rect.text { fill: none; stroke: none; }
polygon.regexp { fill: #FFC7C7; stroke: #330000; stroke-width: 1; }
</style>
  </defs>
  <polygon
     points="9 17 1 13 1 21"
     id="polygon1" />
  <polygon
     points="17 17 9 13 9 21"
     id="polygon2" />
  <rect
     x="31"
     y="3"
     width="58"
     height="32"
     rx="10"
     id="rect2" />
  <rect
     x="29"
     y="1"
     width="58"
     height="32"
     class="terminal"
     rx="10"
     id="rect3" />
  <text
     class="terminal"
     x="39"
     y="21"
     id="text3">DROP</text>
  <rect
     x="109"
     y="3"
     width="104"
     height="32"
     rx="10"
     id="rect4" />
  <rect
     x="107"
     y="1"
     width="104"
     height="32"
     class="terminal"
     rx="10"
     id="rect5" />
  <text
     class="terminal"
     x="117"
     y="21"
     id="text5">PROCEDURE</text>
  <rect
     x="253"
     y="35"
     width="34"
     height="32"
     rx="10"
     id="rect6" />
  <rect
     x="251"
     y="33"
     width="34"
     height="32"
     class="terminal"
     rx="10"
     id="rect7" />
  <text
     class="terminal"
     x="261"
     y="53"
     id="text7">IF</text>
  <rect
     x="307"
     y="35"
     width="70"
     height="32"
     rx="10"
     id="rect8" />
  <rect
     x="305"
     y="33"
     width="70"
     height="32"
     class="terminal"
     rx="10"
     id="rect9" />
  <text
     class="terminal"
     x="315"
     y="53"
     id="text9">EXISTS</text>
  <a
     xlink:href="../object"
     xlink:title="procedure"
     id="a11">
    <rect
       x="417"
       y="3"
       width="84"
       height="32"
       id="rect10" />
    <rect
       x="415"
       y="1"
       width="84"
       height="32"
       class="nonterminal"
       id="rect11" />
    <text
       class="nonterminal"
       x="425"
       y="21"
       id="text11">procedure</text>
  </a>
  <rect
     x="45"
     y="145"
     width="26"
     height="32"
     rx="10"
     id="rect12" />
  <rect
     x="43"
     y="143"
     width="26"
     height="32"
     class="terminal"
     rx="10"
     id="rect13" />
  <text
     class="terminal"
     x="53"
     y="163"
     id="text13">(</text>
  <a
     xlink:href="#type"
     xlink:title="type"
     id="a15">
    <rect
       x="111"
       y="145"
       width="48"
       height="32"
       id="rect14" />
    <rect
       x="109"
       y="143"
       width="48"
       height="32"
       class="nonterminal"
       id="rect15" />
    <text
       class="nonterminal"
       x="119"
       y="163"
       id="text15">type</text>
  </a>
  <rect
     x="111"
     y="101"
     width="24"
     height="32"
     rx="10"
     id="rect16" />
  <rect
     x="109"
     y="99"
     width="24"
     height="32"
     class="terminal"
     rx="10"
     id="rect17" />
  <text
     class="terminal"
     x="119"
     y="119"
     id="text17">,</text>
  <rect
     x="199"
     y="145"
     width="26"
     height="32"
     rx="10"
     id="rect18" />
  <rect
     x="197"
     y="143"
     width="26"
     height="32"
     class="terminal"
     rx="10"
     id="rect19" />
  <text
     class="terminal"
     x="207"
     y="163"
     id="text19">)</text>
  <rect
     x="285"
     y="177"
     width="58"
     height="32"
     rx="10"
     id="rect20" />
  <rect
     x="283"
     y="175"
     width="58"
     height="32"
     class="terminal"
     rx="10"
     id="rect21" />
  <text
     class="terminal"
     x="293"
     y="195"
     id="text21">WAIT</text>
  <rect
     x="363"
     y="177"
     width="80"
     height="32"
     rx="10"
     id="rect22" />
  <rect
     x="361"
     y="175"
     width="80"
     height="32"
     class="terminal"
     rx="10"
     id="rect23" />
  <text
     class="terminal"
     x="371"
     y="195"
     id="text23">APPLIED</text>
  <rect
     x="483"
     y="177"
     width="92"
     height="32"
     rx="10"
     id="rect24" />
  <rect
     x="481"
     y="175"
     width="92"
     height="32"
     class="terminal"
     rx="10"
     id="rect25" />
  <text
     class="terminal"
     x="491"
     y="195"
     id="text25">GLOBALLY</text>
  <rect
     x="483"
     y="221"
     width="82"
     height="32"
     rx="10"
     id="rect26" />
  <rect
     x="481"
     y="219"
     width="82"
     height="32"
     class="terminal"
     rx="10"
     id="rect27" />
  <text
     class="terminal"
     x="491"
     y="239"
     id="text27">LOCALLY</text>
  <rect
     x="187"
     y="307"
     width="76"
     height="32"
     rx="10"
     id="rect28" />
  <rect
     x="185"
     y="305"
     width="76"
     height="32"
     class="terminal"
     rx="10"
     id="rect29" />
  <text
     class="terminal"
     x="195"
     y="325"
     id="text29">OPTION</text>
  <rect
     x="283"
     y="307"
     width="26"
     height="32"
     rx="10"
     id="rect30" />
  <rect
     x="281"
     y="305"
     width="26"
     height="32"
     class="terminal"
     rx="10"
     id="rect31" />
  <text
     class="terminal"
     x="291"
     y="325"
     id="text31">(</text>
  <rect
     x="329"
     y="307"
     width="82"
     height="32"
     rx="10"
     id="rect32" />
  <rect
     x="327"
     y="305"
     width="82"
     height="32"
     class="terminal"
     rx="10"
     id="rect33" />
  <text
     class="terminal"
     x="337"
     y="325"
     id="text33">TIMEOUT</text>
  <rect
     x="431"
     y="307"
     width="30"
     height="32"
     rx="10"
     id="rect34" />
  <rect
     x="429"
     y="305"
     width="30"
     height="32"
     class="terminal"
     rx="10"
     id="rect35" />
  <text
     class="terminal"
     x="439"
     y="325"
     id="text35">=</text>
  <a
     xlink:href="../../sql_types#double"
     xlink:title="double"
     id="a37">
    <rect
       x="481"
       y="307"
       width="62"
       height="32"
       id="rect36" />
    <rect
       x="479"
       y="305"
       width="62"
       height="32"
       class="nonterminal"
       id="rect37" />
    <text
       class="nonterminal"
       x="489"
       y="325"
       id="text37">double</text>
  </a>
  <rect
     x="563"
     y="307"
     width="26"
     height="32"
     rx="10"
     id="rect38" />
  <rect
     x="561"
     y="305"
     width="26"
     height="32"
     class="terminal"
     rx="10"
     id="rect39" />
  <text
     class="terminal"
     x="571"
     y="325"
     id="text39">)</text>
  <path
     class="line"
     d="m17 17 h2 m0 0 h10 m58 0 h10 m0 0 h10 m104 0 h10 m20 0 h10 m0 0 h134 m-164 0 h20 m144 0 h20 m-184 0 q10 0 10 10 m164 0 q0 -10 10 -10 m-174 10 v12 m164 0 v-12 m-164 12 q0 10 10 10 m144 0 q10 0 10 -10 m-154 10 h10 m34 0 h10 m0 0 h10 m70 0 h10 m20 -32 h10 m84 0 h10 m2 0 l2 0 m2 0 l2 0 m2 0 l2 0 m-520 142 l2 0 m2 0 l2 0 m2 0 l2 0 m22 0 h10 m26 0 h10 m20 0 h10 m48 0 h10 m-88 0 l20 0 m-1 0 q-9 0 -9 -10 l0 -24 q0 -10 10 -10 m68 44 l20 0 m-20 0 q10 0 10 -10 l0 -24 q0 -10 -10 -10 m-68 0 h10 m24 0 h10 m0 0 h24 m20 44 h10 m26 0 h10 m-220 0 h20 m200 0 h20 m-240 0 q10 0 10 10 m220 0 q0 -10 10 -10 m-230 10 v14 m220 0 v-14 m-220 14 q0 10 10 10 m200 0 q10 0 10 -10 m-210 10 h10 m0 0 h190 m40 -34 h10 m0 0 h320 m-350 0 h20 m330 0 h20 m-370 0 q10 0 10 10 m350 0 q0 -10 10 -10 m-360 10 v12 m350 0 v-12 m-350 12 q0 10 10 10 m330 0 q10 0 10 -10 m-340 10 h10 m58 0 h10 m0 0 h10 m80 0 h10 m20 0 h10 m92 0 h10 m-132 0 h20 m112 0 h20 m-152 0 q10 0 10 10 m132 0 q0 -10 10 -10 m-142 10 v24 m132 0 v-24 m-132 24 q0 10 10 10 m112 0 q10 0 10 -10 m-122 10 h10 m82 0 h10 m0 0 h10 m42 -76 l2 0 m2 0 l2 0 m2 0 l2 0 m-492 130 l2 0 m2 0 l2 0 m2 0 l2 0 m22 0 h10 m0 0 h412 m-442 0 h20 m422 0 h20 m-462 0 q10 0 10 10 m442 0 q0 -10 10 -10 m-452 10 v12 m442 0 v-12 m-442 12 q0 10 10 10 m422 0 q10 0 10 -10 m-432 10 h10 m76 0 h10 m0 0 h10 m26 0 h10 m0 0 h10 m82 0 h10 m0 0 h10 m30 0 h10 m0 0 h10 m62 0 h10 m0 0 h10 m26 0 h10 m23 -32 h-3"
     id="path39" />
  <polygon
     points="627 289 635 285 635 293"
     id="polygon39" />
  <polygon
     points="627 289 619 285 619 293"
     id="polygon40" />
</svg>
