<?xml version="1.0" encoding="UTF-8" standalone="no"?>
<svg
   width="865"
   height="243"
  viewBox="0 0 865 243"
   version="1.1"
   id="svg40"
   sodipodi:docname="drop_procedure.svg"
   inkscape:version="1.4.2 (ebf0e940d0, 2025-05-08)"
   xmlns:inkscape="http://www.inkscape.org/namespaces/inkscape"
   xmlns:sodipodi="http://sodipodi.sourceforge.net/DTD/sodipodi-0.dtd"
   xmlns:xlink="http://www.w3.org/1999/xlink"
   xmlns="http://www.w3.org/2000/svg"
   xmlns:svg="http://www.w3.org/2000/svg">
  <sodipodi:namedview
     id="namedview40"
     pagecolor="#ffffff"
     bordercolor="#666666"
     borderopacity="1.0"
     inkscape:showpageshadow="2"
     inkscape:pageopacity="0.0"
     inkscape:pagecheckerboard="0"
     inkscape:deskcolor="#d1d1d1"
     inkscape:zoom="1.0115607"
     inkscape:cx="432.99429"
     inkscape:cy="121.1"
     inkscape:window-width="1858"
     inkscape:window-height="1014"
     inkscape:window-x="62"
     inkscape:window-y="29"
     inkscape:window-maximized="1"
     inkscape:current-layer="svg40" />
  <defs
     id="defs1">
    <style
       type="text/css"
       id="style1">@namespace &quot;http://www.w3.org/2000/svg&quot;;.line { fill: none; stroke: #330000; stroke-width: 1; }
.bold-line { stroke: #140000; shape-rendering: crispEdges; stroke-width: 2; }
.thin-line { stroke: #1F0000; shape-rendering: crispEdges }
.filled { fill: #330000; stroke: none; }
text.terminal { font-family: Verdana, Sans-serif;                            font-size: 12px;                            fill: #140000;                            font-weight: bold; }
text.nonterminal { font-family: Verdana, Sans-serif;                            font-size: 12px;                            fill: #1A0000;                            font-weight: normal; }
text.regexp { font-family: Verdana, Sans-serif;                            font-size: 12px;                            fill: #1F0000;                            font-weight: normal; }
rect, circle, polygon { fill: #330000; stroke: #330000; }
rect.terminal { fill: #FF4D4D; stroke: #330000; stroke-width: 1; }
rect.nonterminal { fill: #FF9E9E; stroke: #330000; stroke-width: 1; }
rect.text { fill: none; stroke: none; }
polygon.regexp { fill: #FFC7C7; stroke: #330000; stroke-width: 1; }
</style>
  </defs>
  <polygon
     points="11 61 3 57 3 65"
     id="polygon1" />
  <polygon
     points="19 61 11 57 11 65"
     id="polygon2" />
  <rect
     x="33"
     y="47"
     width="58"
     height="32"
     rx="10"
     id="rect2" />
  <rect
     x="31"
     y="45"
     width="58"
     height="32"
     class="terminal"
     rx="10"
     id="rect3" />
  <text
     class="terminal"
     x="41"
     y="65"
     id="text3">DROP</text>
  <rect
     x="111"
     y="47"
     width="104"
     height="32"
     rx="10"
     id="rect4" />
  <rect
     x="109"
     y="45"
     width="104"
     height="32"
     class="terminal"
     rx="10"
     id="rect5" />
  <text
     class="terminal"
     x="119"
     y="65"
     id="text5">PROCEDURE</text>
  <rect
     x="255"
     y="79"
     width="34"
     height="32"
     rx="10"
     id="rect6" />
  <rect
     x="253"
     y="77"
     width="34"
     height="32"
     class="terminal"
     rx="10"
     id="rect7" />
  <text
     class="terminal"
     x="263"
     y="97"
     id="text7">IF</text>
  <rect
     x="309"
     y="79"
     width="70"
     height="32"
     rx="10"
     id="rect8" />
  <rect
     x="307"
     y="77"
     width="70"
     height="32"
     class="terminal"
     rx="10"
     id="rect9" />
  <text
     class="terminal"
     x="317"
     y="97"
     id="text9">EXISTS</text>
  <a
     xlink:href="../object"
     xlink:title="procedure"
     id="a11">
    <rect
       x="419"
       y="47"
       width="84"
       height="32"
       id="rect10" />
    <rect
       x="417"
       y="45"
       width="84"
       height="32"
       class="nonterminal"
       id="rect11" />
    <text
       class="nonterminal"
       x="427"
       y="65"
       id="text11">procedure</text>
  </a>
  <rect
     x="543"
     y="47"
     width="26"
     height="32"
     rx="10"
     id="rect12" />
  <rect
     x="541"
     y="45"
     width="26"
     height="32"
     class="terminal"
     rx="10"
     id="rect13" />
  <text
     class="terminal"
     x="551"
     y="65"
     id="text13">(</text>
  <a
     xlink:href="#unrestricted_type"
     xlink:title="unrestricted_type"
     id="a15">
    <rect
       x="609"
       y="47"
       width="128"
       height="32"
       id="rect14" />
    <rect
       x="607"
       y="45"
       width="128"
       height="32"
       class="nonterminal"
       id="rect15" />
    <text
       class="nonterminal"
       x="617"
       y="65"
       id="text15">unrestricted_type</text>
  </a>
  <rect
     x="609"
     y="3"
     width="24"
     height="32"
     rx="10"
     id="rect16" />
  <rect
     x="607"
     y="1"
     width="24"
     height="32"
     class="terminal"
     rx="10"
     id="rect17" />
  <text
     class="terminal"
     x="617"
     y="21"
     id="text17">,</text>
  <rect
     x="777"
     y="47"
     width="26"
     height="32"
     rx="10"
     id="rect18" />
  <rect
     x="775"
     y="45"
     width="26"
     height="32"
     class="terminal"
     rx="10"
     id="rect19" />
  <text
     class="terminal"
     x="785"
     y="65"
     id="text19">)</text>
  <rect
     x="45"
     y="165"
     width="58"
     height="32"
     rx="10"
     id="rect20" />
  <rect
     x="43"
     y="163"
     width="58"
     height="32"
     class="terminal"
     rx="10"
     id="rect21" />
  <text
     class="terminal"
     x="53"
     y="183"
     id="text21">WAIT</text>
  <rect
     x="123"
     y="165"
     width="80"
     height="32"
     rx="10"
     id="rect22" />
  <rect
     x="121"
     y="163"
     width="80"
     height="32"
     class="terminal"
     rx="10"
     id="rect23" />
  <text
     class="terminal"
     x="131"
     y="183"
     id="text23">APPLIED</text>
  <rect
     x="243"
     y="165"
     width="92"
     height="32"
     rx="10"
     id="rect24" />
  <rect
     x="241"
     y="163"
     width="92"
     height="32"
     class="terminal"
     rx="10"
     id="rect25" />
  <text
     class="terminal"
     x="251"
     y="183"
     id="text25">GLOBALLY</text>
  <rect
     x="243"
     y="209"
     width="82"
     height="32"
     rx="10"
     id="rect26" />
  <rect
     x="241"
     y="207"
     width="82"
     height="32"
     class="terminal"
     rx="10"
     id="rect27" />
  <text
     class="terminal"
     x="251"
     y="227"
     id="text27">LOCALLY</text>
  <rect
     x="415"
     y="165"
     width="76"
     height="32"
     rx="10"
     id="rect28" />
  <rect
     x="413"
     y="163"
     width="76"
     height="32"
     class="terminal"
     rx="10"
     id="rect29" />
  <text
     class="terminal"
     x="423"
     y="183"
     id="text29">OPTION</text>
  <rect
     x="511"
     y="165"
     width="26"
     height="32"
     rx="10"
     id="rect30" />
  <rect
     x="509"
     y="163"
     width="26"
     height="32"
     class="terminal"
     rx="10"
     id="rect31" />
  <text
     class="terminal"
     x="519"
     y="183"
     id="text31">(</text>
  <rect
     x="557"
     y="165"
     width="82"
     height="32"
     rx="10"
     id="rect32" />
  <rect
     x="555"
     y="163"
     width="82"
     height="32"
     class="terminal"
     rx="10"
     id="rect33" />
  <text
     class="terminal"
     x="565"
     y="183"
     id="text33">TIMEOUT</text>
  <rect
     x="659"
     y="165"
     width="30"
     height="32"
     rx="10"
     id="rect34" />
  <rect
     x="657"
     y="163"
     width="30"
     height="32"
     class="terminal"
     rx="10"
     id="rect35" />
  <text
     class="terminal"
     x="667"
     y="183"
     id="text35">=</text>
  <a
     xlink:href="../../sql_types#double"
     xlink:title="double"
     id="a37">
    <rect
       x="709"
       y="165"
       width="62"
       height="32"
       id="rect36" />
    <rect
       x="707"
       y="163"
       width="62"
       height="32"
       class="nonterminal"
       id="rect37" />
    <text
       class="nonterminal"
       x="717"
       y="183"
       id="text37">double</text>
  </a>
  <rect
     x="791"
     y="165"
     width="26"
     height="32"
     rx="10"
     id="rect38" />
  <rect
     x="789"
     y="163"
     width="26"
     height="32"
     class="terminal"
     rx="10"
     id="rect39" />
  <text
     class="terminal"
     x="799"
     y="183"
     id="text39">)</text>
  <path
     class="line"
     d="m19 61 h2 m0 0 h10 m58 0 h10 m0 0 h10 m104 0 h10 m20 0 h10 m0 0 h134 m-164 0 h20 m144 0 h20 m-184 0 q10 0 10 10 m164 0 q0 -10 10 -10 m-174 10 v12 m164 0 v-12 m-164 12 q0 10 10 10 m144 0 q10 0 10 -10 m-154 10 h10 m34 0 h10 m0 0 h10 m70 0 h10 m20 -32 h10 m84 0 h10 m20 0 h10 m26 0 h10 m20 0 h10 m128 0 h10 m-168 0 l20 0 m-1 0 q-9 0 -9 -10 l0 -24 q0 -10 10 -10 m148 44 l20 0 m-20 0 q10 0 10 -10 l0 -24 q0 -10 -10 -10 m-148 0 h10 m24 0 h10 m0 0 h104 m20 44 h10 m26 0 h10 m-300 0 h20 m280 0 h20 m-320 0 q10 0 10 10 m300 0 q0 -10 10 -10 m-310 10 v14 m300 0 v-14 m-300 14 q0 10 10 10 m280 0 q10 0 10 -10 m-290 10 h10 m0 0 h270 m22 -34 l2 0 m2 0 l2 0 m2 0 l2 0 m-842 86 l2 0 m2 0 l2 0 m2 0 l2 0 m22 0 h10 m0 0 h320 m-350 0 h20 m330 0 h20 m-370 0 q10 0 10 10 m350 0 q0 -10 10 -10 m-360 10 v12 m350 0 v-12 m-350 12 q0 10 10 10 m330 0 q10 0 10 -10 m-340 10 h10 m58 0 h10 m0 0 h10 m80 0 h10 m20 0 h10 m92 0 h10 m-132 0 h20 m112 0 h20 m-152 0 q10 0 10 10 m132 0 q0 -10 10 -10 m-142 10 v24 m132 0 v-24 m-132 24 q0 10 10 10 m112 0 q10 0 10 -10 m-122 10 h10 m82 0 h10 m0 0 h10 m60 -76 h10 m0 0 h412 m-442 0 h20 m422 0 h20 m-462 0 q10 0 10 10 m442 0 q0 -10 10 -10 m-452 10 v12 m442 0 v-12 m-442 12 q0 10 10 10 m422 0 q10 0 10 -10 m-432 10 h10 m76 0 h10 m0 0 h10 m26 0 h10 m0 0 h10 m82 0 h10 m0 0 h10 m30 0 h10 m0 0 h10 m62 0 h10 m0 0 h10 m26 0 h10 m23 -32 h-3"
     id="path39" />
  <polygon
     points="855 147 863 143 863 151"
     id="polygon39" />
  <polygon
     points="855 147 847 143 847 151"
     id="polygon40" />
</svg>
