<?xml version="1.0" encoding="UTF-8" standalone="no"?>
<svg
   width="593"
   height="145"
   viewBox="0 0 593 145"
   version="1.1"
   id="svg18"
   sodipodi:docname="explain.svg"
   inkscape:version="1.4.2 (unknown)"
   xmlns:inkscape="http://www.inkscape.org/namespaces/inkscape"
   xmlns:sodipodi="http://sodipodi.sourceforge.net/DTD/sodipodi-0.dtd"
   xmlns:xlink="http://www.w3.org/1999/xlink"
   xmlns="http://www.w3.org/2000/svg"
   xmlns:svg="http://www.w3.org/2000/svg">
  <sodipodi:namedview
     id="namedview18"
     pagecolor="#ffffff"
     bordercolor="#000000"
     borderopacity="0.25"
     inkscape:showpageshadow="2"
     inkscape:pageopacity="0.0"
     inkscape:pagecheckerboard="0"
     inkscape:deskcolor="#d1d1d1"
     inkscape:zoom="3.0708263"
     inkscape:cx="571.18177"
     inkscape:cy="72.618891"
     inkscape:window-width="1920"
     inkscape:window-height="1135"
     inkscape:window-x="0"
     inkscape:window-y="0"
     inkscape:window-maximized="1"
     inkscape:current-layer="svg18" />
  <defs
     id="defs1">
    <style
       type="text/css"
       id="style1">
    @namespace &quot;http://www.w3.org/2000/svg&quot;;
    .line                 {fill: none; stroke: #330000; stroke-width: 1;}
    .bold-line            {stroke: #140000; shape-rendering: crispEdges; stroke-width: 2;}
    .thin-line            {stroke: #1F0000; shape-rendering: crispEdges}
    .filled               {fill: #330000; stroke: none;}
    text.terminal         {font-family: Verdana, Sans-serif;
                            font-size: 12px;
                            fill: #140000;
                            font-weight: bold;
                          }
    text.nonterminal      {font-family: Verdana, Sans-serif;
                            font-size: 12px;
                            fill: #1A0000;
                            font-weight: normal;
                          }
    text.regexp           {font-family: Verdana, Sans-serif;
                            font-size: 12px;
                            fill: #1F0000;
                            font-weight: normal;
                          }
    rect, circle, polygon {fill: #330000; stroke: #330000;}
    rect.terminal         {fill: #FF4D4D; stroke: #330000; stroke-width: 1;}
    rect.nonterminal      {fill: #FF9E9E; stroke: #330000; stroke-width: 1;}
    rect.text             {fill: none; stroke: none;}
    polygon.regexp        {fill: #FFC7C7; stroke: #330000; stroke-width: 1;}
  </style>
  </defs>
  <polygon
     points="9 17 1 13 1 21"
     id="polygon1" />
  <polygon
     points="17 17 9 13 9 21"
     id="polygon2" />
  <rect
     x="31"
     y="3"
     width="80"
     height="32"
     rx="10"
     id="rect2" />
  <rect
     x="29"
     y="1"
     width="80"
     height="32"
     class="terminal"
     rx="10"
     id="rect3" />
  <text
     class="terminal"
     x="39"
     y="21"
     id="text3">EXPLAIN</text>
  <a
     xlink:href="../dml"
     xlink:title="dml"
     id="a5">
    <rect
       x="151"
       y="3"
       width="42"
       height="32"
       id="rect4" />
    <rect
       x="149"
       y="1"
       width="42"
       height="32"
       class="nonterminal"
       id="rect5" />
    <text
       class="nonterminal"
       x="159"
       y="21"
       id="text5">dml</text>
  </a>
  <rect
     x="171"
     y="79"
     width="26"
     height="32"
     rx="10"
     id="rect6" />
  <rect
     x="169"
     y="77"
     width="26"
     height="32"
     class="terminal"
     rx="10"
     id="rect7" />
  <text
     class="terminal"
     x="179"
     y="97"
     id="text7">(</text>
  <rect
     x="217"
     y="79"
     width="52"
     height="32"
     rx="10"
     id="rect8" />
  <rect
     x="215"
     y="77"
     width="52"
     height="32"
     class="terminal"
     rx="10"
     id="rect9" />
  <text
     class="terminal"
     x="225"
     y="97"
     id="text9">RAW</text>
  <rect
     x="309"
     y="111"
     width="24"
     height="32"
     rx="10"
     id="rect10" />
  <rect
     x="307"
     y="109"
     width="24"
     height="32"
     class="terminal"
     rx="10"
     id="rect11" />
  <text
     class="terminal"
     x="317"
     y="129"
     id="text11">,</text>
  <rect
     x="353"
     y="111"
     width="48"
     height="32"
     rx="10"
     id="rect12" />
  <rect
     x="351"
     y="109"
     width="48"
     height="32"
     class="terminal"
     rx="10"
     id="rect13" />
  <text
     class="terminal"
     x="361"
     y="129"
     id="text13">FMT</text>
  <rect
     x="441"
     y="79"
     width="26"
     height="32"
     rx="10"
     id="rect14" />
  <rect
     x="439"
     y="77"
     width="26"
     height="32"
     class="terminal"
     rx="10"
     id="rect15" />
  <text
     class="terminal"
     x="449"
     y="97"
     id="text15">)</text>
  <a
     xlink:href="../dql"
     xlink:title="dql"
     id="a17">
    <rect
       x="507"
       y="47"
       width="38"
       height="32"
       id="rect16" />
    <rect
       x="505"
       y="45"
       width="38"
       height="32"
       class="nonterminal"
       id="rect17" />
    <text
       class="nonterminal"
       x="515"
       y="65"
       id="text17">dql</text>
  </a>
  <path
     class="line"
     d="m17 17 h2 m0 0 h10 m80 0 h10 m20 0 h10 m42 0 h10 m0 0 h352 m-434 0 h20 m414 0 h20 m-454 0 q10 0 10 10 m434 0 q0 -10 10 -10 m-444 10 v24 m434 0 v-24 m-434 24 q0 10 10 10 m414 0 q10 0 10 -10 m-404 10 h10 m0 0 h306 m-336 0 h20 m316 0 h20 m-356 0 q10 0 10 10 m336 0 q0 -10 10 -10 m-346 10 v12 m336 0 v-12 m-336 12 q0 10 10 10 m316 0 q10 0 10 -10 m-326 10 h10 m26 0 h10 m0 0 h10 m52 0 h10 m20 0 h10 m0 0 h102 m-132 0 h20 m112 0 h20 m-152 0 q10 0 10 10 m132 0 q0 -10 10 -10 m-142 10 v12 m132 0 v-12 m-132 12 q0 10 10 10 m112 0 q10 0 10 -10 m-122 10 h10 m24 0 h10 m0 0 h10 m48 0 h10 m20 -32 h10 m26 0 h10 m20 -32 h10 m38 0 h10 m23 -44 h-3"
     id="path17" />
  <polygon
     points="583 17 591 13 591 21"
     id="polygon17" />
  <polygon
     points="583 17 575 13 575 21"
     id="polygon18" />
</svg>
