<?xml version="1.0" encoding="UTF-8"?>
<svg xmlns="http://www.w3.org/2000/svg" width="523" height="141" viewBox="0 0 523 141">
   <defs>
      <style type="text/css">
    @namespace "http://www.w3.org/2000/svg";
    .line                 {fill: none; stroke: #330000; stroke-width: 1;}
    .bold-line            {stroke: #140000; shape-rendering: crispEdges; stroke-width: 2;}
    .thin-line            {stroke: #1F0000; shape-rendering: crispEdges}
    .filled               {fill: #330000; stroke: none;}
    text.terminal         {font-family: Verdana, Sans-serif;
                            font-size: 12px;
                            fill: #140000;
                            font-weight: bold;
                          }
    text.nonterminal      {font-family: Verdana, Sans-serif;
                            font-size: 12px;
                            fill: #1A0000;
                            font-weight: normal;
                          }
    text.regexp           {font-family: Verdana, Sans-serif;
                            font-size: 12px;
                            fill: #1F0000;
                            font-weight: normal;
                          }
    rect, circle, polygon {fill: #330000; stroke: #330000;}
    rect.terminal         {fill: #FF4D4D; stroke: #330000; stroke-width: 1;}
    rect.nonterminal      {fill: #FF9E9E; stroke: #330000; stroke-width: 1;}
    rect.text             {fill: none; stroke: none;}
    polygon.regexp        {fill: #FFC7C7; stroke: #330000; stroke-width: 1;}
  </style>
   </defs>
   <polygon points="9 61 1 57 1 65"/>
   <polygon points="17 61 9 57 9 65"/>
   <rect x="31" y="47" width="80" height="32" rx="10"/>
   <rect x="29"
         y="45"
         width="80"
         height="32"
         class="terminal"
         rx="10"/>
   <text class="terminal" x="39" y="65">EXPLAIN</text>
   <rect x="151" y="47" width="26" height="32" rx="10"/>
   <rect x="149"
         y="45"
         width="26"
         height="32"
         class="terminal"
         rx="10"/>
   <text class="terminal" x="159" y="65">(</text>
   <a xmlns:xlink="http://www.w3.org/1999/xlink"
      xlink:href="#facets"
      xlink:title="facet">
      <rect x="237" y="47" width="50" height="32"/>
      <rect x="235" y="45" width="50" height="32" class="nonterminal"/>
      <text class="nonterminal" x="245" y="65">facet</text>
   </a>
   <rect x="237" y="91" width="48" height="32" rx="10"/>
   <rect x="235"
         y="89"
         width="48"
         height="32"
         class="terminal"
         rx="10"/>
   <text class="terminal" x="245" y="109">FMT</text>
   <rect x="217" y="3" width="24" height="32" rx="10"/>
   <rect x="215"
         y="1"
         width="24"
         height="32"
         class="terminal"
         rx="10"/>
   <text class="terminal" x="225" y="21">,</text>
   <rect x="347" y="47" width="26" height="32" rx="10"/>
   <rect x="345"
         y="45"
         width="26"
         height="32"
         class="terminal"
         rx="10"/>
   <text class="terminal" x="355" y="65">)</text>
   <a xmlns:xlink="http://www.w3.org/1999/xlink"
      xlink:href="../dml"
      xlink:title="dml">
      <rect x="433" y="47" width="42" height="32"/>
      <rect x="431" y="45" width="42" height="32" class="nonterminal"/>
      <text class="nonterminal" x="441" y="65">dml</text>
   </a>
   <a xmlns:xlink="http://www.w3.org/1999/xlink"
      xlink:href="../dql"
      xlink:title="dql">
      <rect x="433" y="91" width="38" height="32"/>
      <rect x="431" y="89" width="38" height="32" class="nonterminal"/>
      <text class="nonterminal" x="441" y="109">dql</text>
   </a>
   <path class="line"
         d="m17 61 h2 m0 0 h10 m80 0 h10 m20 0 h10 m26 0 h10 m40 0 h10 m50 0 h10 m-90 0 h20 m70 0 h20 m-110 0 q10 0 10 10 m90 0 q0 -10 10 -10 m-100 10 v24 m90 0 v-24 m-90 24 q0 10 10 10 m70 0 q10 0 10 -10 m-80 10 h10 m48 0 h10 m0 0 h2 m-110 -44 l20 0 m-1 0 q-9 0 -9 -10 l0 -24 q0 -10 10 -10 m110 44 l20 0 m-20 0 q10 0 10 -10 l0 -24 q0 -10 -10 -10 m-110 0 h10 m24 0 h10 m0 0 h66 m20 44 h10 m26 0 h10 m-262 0 h20 m242 0 h20 m-282 0 q10 0 10 10 m262 0 q0 -10 10 -10 m-272 10 v58 m262 0 v-58 m-262 58 q0 10 10 10 m242 0 q10 0 10 -10 m-252 10 h10 m0 0 h232 m40 -78 h10 m42 0 h10 m-82 0 h20 m62 0 h20 m-102 0 q10 0 10 10 m82 0 q0 -10 10 -10 m-92 10 v24 m82 0 v-24 m-82 24 q0 10 10 10 m62 0 q10 0 10 -10 m-72 10 h10 m38 0 h10 m0 0 h4 m23 -44 h-3"/>
   <polygon points="513 61 521 57 521 65"/>
   <polygon points="513 61 505 57 505 65"/>
</svg>
