<?xml version="1.0" encoding="UTF-8"?>
<svg xmlns="http://www.w3.org/2000/svg" width="241" height="81" viewBox="0 0 241 81">
   <defs>
      <style type="text/css">
    @namespace "http://www.w3.org/2000/svg";
    .line                 {fill: none; stroke: #330000; stroke-width: 1;}
    .bold-line            {stroke: #140000; shape-rendering: crispEdges; stroke-width: 2;}
    .thin-line            {stroke: #1F0000; shape-rendering: crispEdges}
    .filled               {fill: #330000; stroke: none;}
    text.terminal         {font-family: Verdana, Sans-serif;
                            font-size: 12px;
                            fill: #140000;
                            font-weight: bold;
                          }
    text.nonterminal      {font-family: Verdana, Sans-serif;
                            font-size: 12px;
                            fill: #1A0000;
                            font-weight: normal;
                          }
    text.regexp           {font-family: Verdana, Sans-serif;
                            font-size: 12px;
                            fill: #1F0000;
                            font-weight: normal;
                          }
    rect, circle, polygon {fill: #330000; stroke: #330000;}
    rect.terminal         {fill: #FF4D4D; stroke: #330000; stroke-width: 1;}
    rect.nonterminal      {fill: #FF9E9E; stroke: #330000; stroke-width: 1;}
    rect.text             {fill: none; stroke: none;}
    polygon.regexp        {fill: #FFC7C7; stroke: #330000; stroke-width: 1;}
  </style>
      <style class="darkreader darkreader--sync" media="screen"/>
   </defs>
   <polygon points="9 17 1 13 1 21"/>
   <polygon points="17 17 9 13 9 21"/>
   <rect x="31" y="3" width="80" height="32" rx="10"/>
   <rect x="29"
         y="1"
         width="80"
         height="32"
         class="terminal"
         rx="10"/>
   <text class="terminal" x="39" y="21">EXPLAIN</text>
   <a xmlns:xlink="http://www.w3.org/1999/xlink"
      xlink:href="../dml"
      xlink:title="dml">
      <rect x="151" y="3" width="42" height="32"/>
      <rect x="149" y="1" width="42" height="32" class="nonterminal"/>
      <text class="nonterminal" x="159" y="21">dml</text>
   </a>
   <a xmlns:xlink="http://www.w3.org/1999/xlink"
      xlink:href="../dql"
      xlink:title="dql">
      <rect x="151" y="47" width="38" height="32"/>
      <rect x="149" y="45" width="38" height="32" class="nonterminal"/>
      <text class="nonterminal" x="159" y="65">dql</text>
   </a>
   <path class="line"
         d="m17 17 h2 m0 0 h10 m80 0 h10 m20 0 h10 m42 0 h10 m-82 0 h20 m62 0 h20 m-102 0 q10 0 10 10 m82 0 q0 -10 10 -10 m-92 10 v24 m82 0 v-24 m-82 24 q0 10 10 10 m62 0 q10 0 10 -10 m-72 10 h10 m38 0 h10 m0 0 h4 m23 -44 h-3"/>
   <polygon points="231 17 239 13 239 21"/>
   <polygon points="231 17 223 13 223 21"/>
</svg>
