<?xml version="1.0" encoding="UTF-8" standalone="no"?>
<svg
   width="1013"
   height="2203"
   viewBox="0 0 1013 2203"
   version="1.1"
   id="svg136"
   sodipodi:docname="expression.svg"
   inkscape:version="1.4.2 (unknown)"
   xmlns:inkscape="http://www.inkscape.org/namespaces/inkscape"
   xmlns:sodipodi="http://sodipodi.sourceforge.net/DTD/sodipodi-0.dtd"
   xmlns:xlink="http://www.w3.org/1999/xlink"
   xmlns="http://www.w3.org/2000/svg"
   xmlns:svg="http://www.w3.org/2000/svg">
  <sodipodi:namedview
     id="namedview136"
     pagecolor="#ffffff"
     bordercolor="#000000"
     borderopacity="0.25"
     inkscape:showpageshadow="2"
     inkscape:pageopacity="0.0"
     inkscape:pagecheckerboard="0"
     inkscape:deskcolor="#d1d1d1"
     inkscape:zoom="1.605084"
     inkscape:cx="373.50071"
     inkscape:cy="462.90413"
     inkscape:window-width="1920"
     inkscape:window-height="1135"
     inkscape:window-x="0"
     inkscape:window-y="0"
     inkscape:window-maximized="1"
     inkscape:current-layer="svg136" />
  <defs
     id="defs1">
    <style
       type="text/css"
       id="style1">
    @namespace &quot;http://www.w3.org/2000/svg&quot;;
    .line                 {fill: none; stroke: #330000; stroke-width: 1;}
    .bold-line            {stroke: #140000; shape-rendering: crispEdges; stroke-width: 2;}
    .thin-line            {stroke: #1F0000; shape-rendering: crispEdges}
    .filled               {fill: #330000; stroke: none;}
    text.terminal         {font-family: Verdana, Sans-serif;
                            font-size: 12px;
                            fill: #140000;
                            font-weight: bold;
                          }
    text.nonterminal      {font-family: Verdana, Sans-serif;
                            font-size: 12px;
                            fill: #1A0000;
                            font-weight: normal;
                          }
    text.regexp           {font-family: Verdana, Sans-serif;
                            font-size: 12px;
                            fill: #1F0000;
                            font-weight: normal;
                          }
    rect, circle, polygon {fill: #330000; stroke: #330000;}
    rect.terminal         {fill: #FF4D4D; stroke: #330000; stroke-width: 1;}
    rect.nonterminal      {fill: #FF9E9E; stroke: #330000; stroke-width: 1;}
    rect.text             {fill: none; stroke: none;}
    polygon.regexp        {fill: #FFC7C7; stroke: #330000; stroke-width: 1;}
  </style>
  </defs>
  <polygon
     points="9 51 1 47 1 55"
     id="polygon1" />
  <polygon
     points="17 51 9 47 9 55"
     id="polygon2" />
  <rect
     x="71"
     y="3"
     width="48"
     height="32"
     rx="10"
     id="rect2" />
  <rect
     x="69"
     y="1"
     width="48"
     height="32"
     class="terminal"
     rx="10"
     id="rect3" />
  <text
     class="terminal"
     x="79"
     y="21"
     id="text3">NOT</text>
  <a
     xlink:href="../object"
     xlink:title="table"
     id="a5">
    <rect
       x="199"
       y="69"
       width="52"
       height="32"
       id="rect4" />
    <rect
       x="197"
       y="67"
       width="52"
       height="32"
       class="nonterminal"
       id="rect5" />
    <text
       class="nonterminal"
       x="207"
       y="87"
       id="text5">table</text>
  </a>
  <rect
     x="271"
     y="69"
     width="24"
     height="32"
     rx="10"
     id="rect6" />
  <rect
     x="269"
     y="67"
     width="24"
     height="32"
     class="terminal"
     rx="10"
     id="rect7" />
  <text
     class="terminal"
     x="279"
     y="87"
     id="text7">.</text>
  <a
     xlink:href="../object"
     xlink:title="column"
     id="a9">
    <rect
       x="335"
       y="37"
       width="64"
       height="32"
       id="rect8" />
    <rect
       x="333"
       y="35"
       width="64"
       height="32"
       class="nonterminal"
       id="rect9" />
    <text
       class="nonterminal"
       x="343"
       y="55"
       id="text9">column</text>
  </a>
  <a
     xlink:href="../abs"
     xlink:title="abs"
     id="a11">
    <rect
       x="179"
       y="113"
       width="42"
       height="32"
       id="rect10" />
    <rect
       x="177"
       y="111"
       width="42"
       height="32"
       class="nonterminal"
       id="rect11" />
    <text
       class="nonterminal"
       x="187"
       y="131"
       id="text11">abs</text>
  </a>
  <a
     xlink:href="../case"
     xlink:title="case"
     id="a13">
    <rect
       x="179"
       y="157"
       width="48"
       height="32"
       id="rect12" />
    <rect
       x="177"
       y="155"
       width="48"
       height="32"
       class="nonterminal"
       id="rect13" />
    <text
       class="nonterminal"
       x="187"
       y="175"
       id="text13">case</text>
  </a>
  <a
     xlink:href="../cast"
     xlink:title="cast"
     id="a15">
    <rect
       x="179"
       y="201"
       width="46"
       height="32"
       id="rect14" />
    <rect
       x="177"
       y="199"
       width="46"
       height="32"
       class="nonterminal"
       id="rect15" />
    <text
       class="nonterminal"
       x="187"
       y="219"
       id="text15">cast</text>
  </a>
  <a
     xlink:href="../coalesce"
     xlink:title="coalesce"
     id="a17">
    <rect
       x="179"
       y="245"
       width="74"
       height="32"
       id="rect16" />
    <rect
       x="177"
       y="243"
       width="74"
       height="32"
       class="nonterminal"
       id="rect17" />
    <text
       class="nonterminal"
       x="187"
       y="263"
       id="text17">coalesce</text>
  </a>
  <a
     xlink:href="../time_and_date/#current_date"
     xlink:title="current_date"
     id="a19">
    <rect
       x="179"
       y="289"
       width="102"
       height="32"
       id="rect18" />
    <rect
       x="177"
       y="287"
       width="102"
       height="32"
       class="nonterminal"
       id="rect19" />
    <text
       class="nonterminal"
       x="187"
       y="307"
       id="text19">current_date</text>
  </a>
  <a
     xlink:href="../ilike"
     xlink:title="ilike"
     id="a21">
    <rect
       x="179"
       y="333"
       width="44"
       height="32"
       id="rect20" />
    <rect
       x="177"
       y="331"
       width="44"
       height="32"
       class="nonterminal"
       id="rect21" />
    <text
       class="nonterminal"
       x="187"
       y="351"
       id="text21">ilike</text>
  </a>
  <a
     xlink:href="../instance_uuid"
     xlink:title="instance_uuid"
     id="a23">
    <rect
       x="179"
       y="377"
       width="108"
       height="32"
       id="rect22" />
    <rect
       x="177"
       y="375"
       width="108"
       height="32"
       class="nonterminal"
       id="rect23" />
    <text
       class="nonterminal"
       x="187"
       y="395"
       id="text23">instance_uuid</text>
  </a>
  <a
     xlink:href="../like"
     xlink:title="like"
     id="a25">
    <rect
       x="179"
       y="421"
       width="42"
       height="32"
       id="rect24" />
    <rect
       x="177"
       y="419"
       width="42"
       height="32"
       class="nonterminal"
       id="rect25" />
    <text
       class="nonterminal"
       x="187"
       y="439"
       id="text25">like</text>
  </a>
  <a
     xlink:href="#literal"
     xlink:title="literal"
     id="a27">
    <rect
       x="179"
       y="465"
       width="56"
       height="32"
       id="rect26" />
    <rect
       x="177"
       y="463"
       width="56"
       height="32"
       class="nonterminal"
       id="rect27" />
    <text
       class="nonterminal"
       x="187"
       y="483"
       id="text27">literal</text>
  </a>
  <a
     xlink:href="../time_and_date/#localtimestamp"
     xlink:title="localtimestamp"
     id="a29">
    <rect
       x="179"
       y="509"
       width="116"
       height="32"
       id="rect28" />
    <rect
       x="177"
       y="507"
       width="116"
       height="32"
       class="nonterminal"
       id="rect29" />
    <text
       class="nonterminal"
       x="187"
       y="527"
       id="text29">localtimestamp</text>
  </a>
  <a
     xlink:href="../lower"
     xlink:title="lower"
     id="a31">
    <rect
       x="179"
       y="553"
       width="54"
       height="32"
       id="rect30" />
    <rect
       x="177"
       y="551"
       width="54"
       height="32"
       class="nonterminal"
       id="rect31" />
    <text
       class="nonterminal"
       x="187"
       y="571"
       id="text31">lower</text>
  </a>
  <a
     xlink:href="../pico_config_file_path"
     xlink:title="pico_config_file_path"
     id="a33">
    <rect
       x="179"
       y="597"
       width="154"
       height="32"
       id="rect32" />
    <rect
       x="177"
       y="595"
       width="154"
       height="32"
       class="nonterminal"
       id="rect33" />
    <text
       class="nonterminal"
       x="187"
       y="615"
       id="text33">pico_config_file_path</text>
  </a>
  <a
     xlink:href="../pico_instance_dir"
     xlink:title="pico_instance_dir"
     id="a35">
    <rect
       x="179"
       y="641"
       width="130"
       height="32"
       id="rect34" />
    <rect
       x="177"
       y="639"
       width="130"
       height="32"
       class="nonterminal"
       id="rect35" />
    <text
       class="nonterminal"
       x="187"
       y="659"
       id="text35">pico_instance_dir</text>
  </a>
  <a
     xlink:href="../pico_instance_name"
     xlink:title="pico_instance_name"
     id="a37">
    <rect
       x="179"
       y="685"
       width="150"
       height="32"
       id="rect36" />
    <rect
       x="177"
       y="683"
       width="150"
       height="32"
       class="nonterminal"
       id="rect37" />
    <text
       class="nonterminal"
       x="187"
       y="703"
       id="text37">pico_instance_name</text>
  </a>
  <a
     xlink:href="../pico_instance_uuid"
     xlink:title="pico_instance_uuid"
     id="a39">
    <rect
       x="179"
       y="729"
       width="142"
       height="32"
       id="rect38" />
    <rect
       x="177"
       y="727"
       width="142"
       height="32"
       class="nonterminal"
       id="rect39" />
    <text
       class="nonterminal"
       x="187"
       y="747"
       id="text39">pico_instance_uuid</text>
  </a>
  <a
     xlink:href="../pico_raft_leader_id"
     xlink:title="pico_raft_leader_id"
     id="a41">
    <rect
       x="179"
       y="773"
       width="144"
       height="32"
       id="rect40" />
    <rect
       x="177"
       y="771"
       width="144"
       height="32"
       class="nonterminal"
       id="rect41" />
    <text
       class="nonterminal"
       x="187"
       y="791"
       id="text41">pico_raft_leader_id</text>
  </a>
  <a
     xlink:href="../pico_raft_leader_uuid"
     xlink:title="pico_raft_leader_uuid"
     id="a43">
    <rect
       x="179"
       y="817"
       width="160"
       height="32"
       id="rect42" />
    <rect
       x="177"
       y="815"
       width="160"
       height="32"
       class="nonterminal"
       id="rect43" />
    <text
       class="nonterminal"
       x="187"
       y="835"
       id="text43">pico_raft_leader_uuid</text>
  </a>
  <a
     xlink:href="../pico_replicaset_name"
     xlink:title="pico_replicaset_name"
     id="a45">
    <rect
       x="179"
       y="861"
       width="158"
       height="32"
       id="rect44" />
    <rect
       x="177"
       y="859"
       width="158"
       height="32"
       class="nonterminal"
       id="rect45" />
    <text
       class="nonterminal"
       x="187"
       y="879"
       id="text45">pico_replicaset_name</text>
  </a>
  <a
     xlink:href="../pico_tier_name"
     xlink:title="pico_tier_name"
     id="a47">
    <rect
       x="179"
       y="905"
       width="118"
       height="32"
       id="rect46" />
    <rect
       x="177"
       y="903"
       width="118"
       height="32"
       class="nonterminal"
       id="rect47" />
    <text
       class="nonterminal"
       x="187"
       y="923"
       id="text47">pico_tier_name</text>
  </a>
  <a
     xlink:href="../substr"
     xlink:title="substr"
     id="a49">
    <rect
       x="179"
       y="949"
       width="60"
       height="32"
       id="rect48" />
    <rect
       x="177"
       y="947"
       width="60"
       height="32"
       class="nonterminal"
       id="rect49" />
    <text
       class="nonterminal"
       x="187"
       y="967"
       id="text49">substr</text>
  </a>
  <a
     xlink:href="../substring"
     xlink:title="substring"
     id="a51">
    <rect
       x="179"
       y="993"
       width="78"
       height="32"
       id="rect50" />
    <rect
       x="177"
       y="991"
       width="78"
       height="32"
       class="nonterminal"
       id="rect51" />
    <text
       class="nonterminal"
       x="187"
       y="1011"
       id="text51">substring</text>
  </a>
  <a
     xlink:href="../time_and_date/#to_char"
     xlink:title="to_char"
     id="a53">
    <rect
       x="179"
       y="1037"
       width="68"
       height="32"
       id="rect52" />
    <rect
       x="177"
       y="1035"
       width="68"
       height="32"
       class="nonterminal"
       id="rect53" />
    <text
       class="nonterminal"
       x="187"
       y="1055"
       id="text53">to_char</text>
  </a>
  <a
     xlink:href="../time_and_date/#to_date"
     xlink:title="to_date"
     id="a55">
    <rect
       x="179"
       y="1081"
       width="70"
       height="32"
       id="rect54" />
    <rect
       x="177"
       y="1079"
       width="70"
       height="32"
       class="nonterminal"
       id="rect55" />
    <text
       class="nonterminal"
       x="187"
       y="1099"
       id="text55">to_date</text>
  </a>
  <a
     xlink:href="../trim"
     xlink:title="trim"
     id="a57">
    <rect
       x="179"
       y="1125"
       width="44"
       height="32"
       id="rect56" />
    <rect
       x="177"
       y="1123"
       width="44"
       height="32"
       class="nonterminal"
       id="rect57" />
    <text
       class="nonterminal"
       x="187"
       y="1143"
       id="text57">trim</text>
  </a>
  <a
     xlink:href="../upper"
     xlink:title="upper"
     id="a59">
    <rect
       x="179"
       y="1169"
       width="56"
       height="32"
       id="rect58" />
    <rect
       x="177"
       y="1167"
       width="56"
       height="32"
       class="nonterminal"
       id="rect59" />
    <text
       class="nonterminal"
       x="187"
       y="1187"
       id="text59">upper</text>
  </a>
  <a
     xlink:href="../version"
     xlink:title="version"
     id="a61">
    <rect
       x="179"
       y="1213"
       width="66"
       height="32"
       id="rect60" />
    <rect
       x="177"
       y="1211"
       width="66"
       height="32"
       class="nonterminal"
       id="rect61" />
    <text
       class="nonterminal"
       x="187"
       y="1231"
       id="text61">version</text>
  </a>
  <rect
     x="219"
     y="1289"
     width="48"
     height="32"
     rx="10"
     id="rect62" />
  <rect
     x="217"
     y="1287"
     width="48"
     height="32"
     class="terminal"
     rx="10"
     id="rect63" />
  <text
     class="terminal"
     x="227"
     y="1307"
     id="text63">NOT</text>
  <rect
     x="307"
     y="1257"
     width="70"
     height="32"
     rx="10"
     id="rect64" />
  <rect
     x="305"
     y="1255"
     width="70"
     height="32"
     class="terminal"
     rx="10"
     id="rect65" />
  <text
     class="terminal"
     x="315"
     y="1275"
     id="text65">EXISTS</text>
  <rect
     x="397"
     y="1257"
     width="26"
     height="32"
     rx="10"
     id="rect66" />
  <rect
     x="395"
     y="1255"
     width="26"
     height="32"
     class="terminal"
     rx="10"
     id="rect67" />
  <text
     class="terminal"
     x="405"
     y="1275"
     id="text67">(</text>
  <a
     xlink:href="../dql"
     xlink:title="dql"
     id="a69">
    <rect
       x="443"
       y="1257"
       width="38"
       height="32"
       id="rect68" />
    <rect
       x="441"
       y="1255"
       width="38"
       height="32"
       class="nonterminal"
       id="rect69" />
    <text
       class="nonterminal"
       x="451"
       y="1275"
       id="text69">dql</text>
  </a>
  <rect
     x="199"
     y="1333"
     width="26"
     height="32"
     rx="10"
     id="rect70" />
  <rect
     x="197"
     y="1331"
     width="26"
     height="32"
     class="terminal"
     rx="10"
     id="rect71" />
  <text
     class="terminal"
     x="207"
     y="1351"
     id="text71">(</text>
  <a
     xlink:href="../dql"
     xlink:title="dql"
     id="a73">
    <rect
       x="265"
       y="1333"
       width="38"
       height="32"
       id="rect72" />
    <rect
       x="263"
       y="1331"
       width="38"
       height="32"
       class="nonterminal"
       id="rect73" />
    <text
       class="nonterminal"
       x="273"
       y="1351"
       id="text73">dql</text>
  </a>
  <a
     xlink:href="#expression"
     xlink:title="expression"
     id="a75">
    <rect
       x="285"
       y="1421"
       width="90"
       height="32"
       id="rect74" />
    <rect
       x="283"
       y="1419"
       width="90"
       height="32"
       class="nonterminal"
       id="rect75" />
    <text
       class="nonterminal"
       x="293"
       y="1439"
       id="text75">expression</text>
  </a>
  <rect
     x="285"
     y="1377"
     width="24"
     height="32"
     rx="10"
     id="rect76" />
  <rect
     x="283"
     y="1375"
     width="24"
     height="32"
     class="terminal"
     rx="10"
     id="rect77" />
  <text
     class="terminal"
     x="293"
     y="1395"
     id="text77">,</text>
  <rect
     x="521"
     y="1257"
     width="26"
     height="32"
     rx="10"
     id="rect78" />
  <rect
     x="519"
     y="1255"
     width="26"
     height="32"
     class="terminal"
     rx="10"
     id="rect79" />
  <text
     class="terminal"
     x="529"
     y="1275"
     id="text79">)</text>
  <rect
     x="627"
     y="37"
     width="36"
     height="32"
     rx="10"
     id="rect80" />
  <rect
     x="625"
     y="35"
     width="36"
     height="32"
     class="terminal"
     rx="10"
     id="rect81" />
  <text
     class="terminal"
     x="635"
     y="55"
     id="text81">IS</text>
  <rect
     x="703"
     y="69"
     width="48"
     height="32"
     rx="10"
     id="rect82" />
  <rect
     x="701"
     y="67"
     width="48"
     height="32"
     class="terminal"
     rx="10"
     id="rect83" />
  <text
     class="terminal"
     x="711"
     y="87"
     id="text83">NOT</text>
  <rect
     x="811"
     y="37"
     width="56"
     height="32"
     rx="10"
     id="rect84" />
  <rect
     x="809"
     y="35"
     width="56"
     height="32"
     class="terminal"
     rx="10"
     id="rect85" />
  <text
     class="terminal"
     x="819"
     y="55"
     id="text85">NULL</text>
  <rect
     x="811"
     y="81"
     width="56"
     height="32"
     rx="10"
     id="rect86" />
  <rect
     x="809"
     y="79"
     width="56"
     height="32"
     class="terminal"
     rx="10"
     id="rect87" />
  <text
     class="terminal"
     x="819"
     y="99"
     id="text87">TRUE</text>
  <rect
     x="811"
     y="125"
     width="62"
     height="32"
     rx="10"
     id="rect88" />
  <rect
     x="809"
     y="123"
     width="62"
     height="32"
     class="terminal"
     rx="10"
     id="rect89" />
  <text
     class="terminal"
     x="819"
     y="143"
     id="text89">FALSE</text>
  <rect
     x="811"
     y="169"
     width="94"
     height="32"
     rx="10"
     id="rect90" />
  <rect
     x="809"
     y="167"
     width="94"
     height="32"
     class="terminal"
     rx="10"
     id="rect91" />
  <text
     class="terminal"
     x="819"
     y="187"
     id="text91">UNKNOWN</text>
  <a
     xlink:href="#expression"
     xlink:title="expression"
     id="a93">
    <rect
       x="51"
       y="1465"
       width="90"
       height="32"
       id="rect92" />
    <rect
       x="49"
       y="1463"
       width="90"
       height="32"
       class="nonterminal"
       id="rect93" />
    <text
       class="nonterminal"
       x="59"
       y="1483"
       id="text93">expression</text>
  </a>
  <rect
     x="201"
     y="1497"
     width="48"
     height="32"
     rx="10"
     id="rect94" />
  <rect
     x="199"
     y="1495"
     width="48"
     height="32"
     class="terminal"
     rx="10"
     id="rect95" />
  <text
     class="terminal"
     x="209"
     y="1515"
     id="text95">NOT</text>
  <rect
     x="309"
     y="1465"
     width="86"
     height="32"
     rx="10"
     id="rect96" />
  <rect
     x="307"
     y="1463"
     width="86"
     height="32"
     class="terminal"
     rx="10"
     id="rect97" />
  <text
     class="terminal"
     x="317"
     y="1483"
     id="text97">BETWEEN</text>
  <a
     xlink:href="#expression"
     xlink:title="expression"
     id="a99">
    <rect
       x="415"
       y="1465"
       width="90"
       height="32"
       id="rect98" />
    <rect
       x="413"
       y="1463"
       width="90"
       height="32"
       class="nonterminal"
       id="rect99" />
    <text
       class="nonterminal"
       x="423"
       y="1483"
       id="text99">expression</text>
  </a>
  <rect
     x="525"
     y="1465"
     width="48"
     height="32"
     rx="10"
     id="rect100" />
  <rect
     x="523"
     y="1463"
     width="48"
     height="32"
     class="terminal"
     rx="10"
     id="rect101" />
  <text
     class="terminal"
     x="533"
     y="1483"
     id="text101">AND</text>
  <rect
     x="309"
     y="1509"
     width="36"
     height="32"
     rx="10"
     id="rect102" />
  <rect
     x="307"
     y="1507"
     width="36"
     height="32"
     class="terminal"
     rx="10"
     id="rect103" />
  <text
     class="terminal"
     x="317"
     y="1527"
     id="text103">IN</text>
  <rect
     x="181"
     y="1553"
     width="30"
     height="32"
     rx="10"
     id="rect104" />
  <rect
     x="179"
     y="1551"
     width="30"
     height="32"
     class="terminal"
     rx="10"
     id="rect105" />
  <text
     class="terminal"
     x="189"
     y="1571"
     id="text105">+</text>
  <rect
     x="181"
     y="1597"
     width="26"
     height="32"
     rx="10"
     id="rect106" />
  <rect
     x="179"
     y="1595"
     width="26"
     height="32"
     class="terminal"
     rx="10"
     id="rect107" />
  <text
     class="terminal"
     x="189"
     y="1615"
     id="text107">-</text>
  <rect
     x="181"
     y="1641"
     width="28"
     height="32"
     rx="10"
     id="rect108" />
  <rect
     x="179"
     y="1639"
     width="28"
     height="32"
     class="terminal"
     rx="10"
     id="rect109" />
  <text
     class="terminal"
     x="189"
     y="1659"
     id="text109">*</text>
  <rect
     x="181"
     y="1685"
     width="28"
     height="32"
     rx="10"
     id="rect110" />
  <rect
     x="179"
     y="1683"
     width="28"
     height="32"
     class="terminal"
     rx="10"
     id="rect111" />
  <text
     class="terminal"
     x="189"
     y="1703"
     id="text111">/</text>
  <rect
     x="181"
     y="1729"
     width="34"
     height="32"
     rx="10"
     id="rect112" />
  <rect
     x="179"
     y="1727"
     width="34"
     height="32"
     class="terminal"
     rx="10"
     id="rect113" />
  <text
     class="terminal"
     x="189"
     y="1747"
     id="text113">%</text>
  <rect
     x="181"
     y="1773"
     width="40"
     height="32"
     rx="10"
     id="rect114" />
  <rect
     x="179"
     y="1771"
     width="40"
     height="32"
     class="terminal"
     rx="10"
     id="rect115" />
  <text
     class="terminal"
     x="189"
     y="1791"
     id="text115">&lt;&gt;</text>
  <rect
     x="181"
     y="1817"
     width="34"
     height="32"
     rx="10"
     id="rect116" />
  <rect
     x="179"
     y="1815"
     width="34"
     height="32"
     class="terminal"
     rx="10"
     id="rect117" />
  <text
     class="terminal"
     x="189"
     y="1835"
     id="text117">!=</text>
  <rect
     x="181"
     y="1861"
     width="40"
     height="32"
     rx="10"
     id="rect118" />
  <rect
     x="179"
     y="1859"
     width="40"
     height="32"
     class="terminal"
     rx="10"
     id="rect119" />
  <text
     class="terminal"
     x="189"
     y="1879"
     id="text119">&gt;=</text>
  <rect
     x="181"
     y="1905"
     width="30"
     height="32"
     rx="10"
     id="rect120" />
  <rect
     x="179"
     y="1903"
     width="30"
     height="32"
     class="terminal"
     rx="10"
     id="rect121" />
  <text
     class="terminal"
     x="189"
     y="1923"
     id="text121">&gt;</text>
  <rect
     x="181"
     y="1949"
     width="40"
     height="32"
     rx="10"
     id="rect122" />
  <rect
     x="179"
     y="1947"
     width="40"
     height="32"
     class="terminal"
     rx="10"
     id="rect123" />
  <text
     class="terminal"
     x="189"
     y="1967"
     id="text123">&lt;=</text>
  <rect
     x="181"
     y="1993"
     width="30"
     height="32"
     rx="10"
     id="rect124" />
  <rect
     x="179"
     y="1991"
     width="30"
     height="32"
     class="terminal"
     rx="10"
     id="rect125" />
  <text
     class="terminal"
     x="189"
     y="2011"
     id="text125">&lt;</text>
  <rect
     x="181"
     y="2037"
     width="30"
     height="32"
     rx="10"
     id="rect126" />
  <rect
     x="179"
     y="2035"
     width="30"
     height="32"
     class="terminal"
     rx="10"
     id="rect127" />
  <text
     class="terminal"
     x="189"
     y="2055"
     id="text127">=</text>
  <rect
     x="181"
     y="2081"
     width="32"
     height="32"
     rx="10"
     id="rect128" />
  <rect
     x="179"
     y="2079"
     width="32"
     height="32"
     class="terminal"
     rx="10"
     id="rect129" />
  <text
     class="terminal"
     x="189"
     y="2099"
     id="text129">||</text>
  <rect
     x="181"
     y="2125"
     width="48"
     height="32"
     rx="10"
     id="rect130" />
  <rect
     x="179"
     y="2123"
     width="48"
     height="32"
     class="terminal"
     rx="10"
     id="rect131" />
  <text
     class="terminal"
     x="189"
     y="2143"
     id="text131">AND</text>
  <rect
     x="181"
     y="2169"
     width="40"
     height="32"
     rx="10"
     id="rect132" />
  <rect
     x="179"
     y="2167"
     width="40"
     height="32"
     class="terminal"
     rx="10"
     id="rect133" />
  <text
     class="terminal"
     x="189"
     y="2187"
     id="text133">OR</text>
  <a
     xlink:href="#expression"
     xlink:title="expression"
     id="a135">
    <rect
       x="633"
       y="1465"
       width="90"
       height="32"
       id="rect134" />
    <rect
       x="631"
       y="1463"
       width="90"
       height="32"
       class="nonterminal"
       id="rect135" />
    <text
       class="nonterminal"
       x="641"
       y="1483"
       id="text135">expression</text>
  </a>
  <path
     class="line"
     d="m17 51 h2 m40 0 h10 m0 0 h58 m-88 0 l20 0 m-1 0 q-9 0 -9 -10 l0 -14 q0 -10 10 -10 m68 34 l20 0 m-20 0 q10 0 10 -10 l0 -14 q0 -10 -10 -10 m-68 0 h10 m48 0 h10 m60 34 h10 m0 0 h106 m-136 0 h20 m116 0 h20 m-156 0 q10 0 10 10 m136 0 q0 -10 10 -10 m-146 10 v12 m136 0 v-12 m-136 12 q0 10 10 10 m116 0 q10 0 10 -10 m-126 10 h10 m52 0 h10 m0 0 h10 m24 0 h10 m20 -32 h10 m64 0 h10 m0 0 h148 m-408 0 h20 m388 0 h20 m-428 0 q10 0 10 10 m408 0 q0 -10 10 -10 m-418 10 v56 m408 0 v-56 m-408 56 q0 10 10 10 m388 0 q10 0 10 -10 m-398 10 h10 m42 0 h10 m0 0 h326 m-398 -10 v20 m408 0 v-20 m-408 20 v24 m408 0 v-24 m-408 24 q0 10 10 10 m388 0 q10 0 10 -10 m-398 10 h10 m48 0 h10 m0 0 h320 m-398 -10 v20 m408 0 v-20 m-408 20 v24 m408 0 v-24 m-408 24 q0 10 10 10 m388 0 q10 0 10 -10 m-398 10 h10 m46 0 h10 m0 0 h322 m-398 -10 v20 m408 0 v-20 m-408 20 v24 m408 0 v-24 m-408 24 q0 10 10 10 m388 0 q10 0 10 -10 m-398 10 h10 m74 0 h10 m0 0 h294 m-398 -10 v20 m408 0 v-20 m-408 20 v24 m408 0 v-24 m-408 24 q0 10 10 10 m388 0 q10 0 10 -10 m-398 10 h10 m102 0 h10 m0 0 h266 m-398 -10 v20 m408 0 v-20 m-408 20 v24 m408 0 v-24 m-408 24 q0 10 10 10 m388 0 q10 0 10 -10 m-398 10 h10 m44 0 h10 m0 0 h324 m-398 -10 v20 m408 0 v-20 m-408 20 v24 m408 0 v-24 m-408 24 q0 10 10 10 m388 0 q10 0 10 -10 m-398 10 h10 m108 0 h10 m0 0 h260 m-398 -10 v20 m408 0 v-20 m-408 20 v24 m408 0 v-24 m-408 24 q0 10 10 10 m388 0 q10 0 10 -10 m-398 10 h10 m42 0 h10 m0 0 h326 m-398 -10 v20 m408 0 v-20 m-408 20 v24 m408 0 v-24 m-408 24 q0 10 10 10 m388 0 q10 0 10 -10 m-398 10 h10 m56 0 h10 m0 0 h312 m-398 -10 v20 m408 0 v-20 m-408 20 v24 m408 0 v-24 m-408 24 q0 10 10 10 m388 0 q10 0 10 -10 m-398 10 h10 m116 0 h10 m0 0 h252 m-398 -10 v20 m408 0 v-20 m-408 20 v24 m408 0 v-24 m-408 24 q0 10 10 10 m388 0 q10 0 10 -10 m-398 10 h10 m54 0 h10 m0 0 h314 m-398 -10 v20 m408 0 v-20 m-408 20 v24 m408 0 v-24 m-408 24 q0 10 10 10 m388 0 q10 0 10 -10 m-398 10 h10 m154 0 h10 m0 0 h214 m-398 -10 v20 m408 0 v-20 m-408 20 v24 m408 0 v-24 m-408 24 q0 10 10 10 m388 0 q10 0 10 -10 m-398 10 h10 m130 0 h10 m0 0 h238 m-398 -10 v20 m408 0 v-20 m-408 20 v24 m408 0 v-24 m-408 24 q0 10 10 10 m388 0 q10 0 10 -10 m-398 10 h10 m150 0 h10 m0 0 h218 m-398 -10 v20 m408 0 v-20 m-408 20 v24 m408 0 v-24 m-408 24 q0 10 10 10 m388 0 q10 0 10 -10 m-398 10 h10 m142 0 h10 m0 0 h226 m-398 -10 v20 m408 0 v-20 m-408 20 v24 m408 0 v-24 m-408 24 q0 10 10 10 m388 0 q10 0 10 -10 m-398 10 h10 m144 0 h10 m0 0 h224 m-398 -10 v20 m408 0 v-20 m-408 20 v24 m408 0 v-24 m-408 24 q0 10 10 10 m388 0 q10 0 10 -10 m-398 10 h10 m160 0 h10 m0 0 h208 m-398 -10 v20 m408 0 v-20 m-408 20 v24 m408 0 v-24 m-408 24 q0 10 10 10 m388 0 q10 0 10 -10 m-398 10 h10 m158 0 h10 m0 0 h210 m-398 -10 v20 m408 0 v-20 m-408 20 v24 m408 0 v-24 m-408 24 q0 10 10 10 m388 0 q10 0 10 -10 m-398 10 h10 m118 0 h10 m0 0 h250 m-398 -10 v20 m408 0 v-20 m-408 20 v24 m408 0 v-24 m-408 24 q0 10 10 10 m388 0 q10 0 10 -10 m-398 10 h10 m60 0 h10 m0 0 h308 m-398 -10 v20 m408 0 v-20 m-408 20 v24 m408 0 v-24 m-408 24 q0 10 10 10 m388 0 q10 0 10 -10 m-398 10 h10 m78 0 h10 m0 0 h290 m-398 -10 v20 m408 0 v-20 m-408 20 v24 m408 0 v-24 m-408 24 q0 10 10 10 m388 0 q10 0 10 -10 m-398 10 h10 m68 0 h10 m0 0 h300 m-398 -10 v20 m408 0 v-20 m-408 20 v24 m408 0 v-24 m-408 24 q0 10 10 10 m388 0 q10 0 10 -10 m-398 10 h10 m70 0 h10 m0 0 h298 m-398 -10 v20 m408 0 v-20 m-408 20 v24 m408 0 v-24 m-408 24 q0 10 10 10 m388 0 q10 0 10 -10 m-398 10 h10 m44 0 h10 m0 0 h324 m-398 -10 v20 m408 0 v-20 m-408 20 v24 m408 0 v-24 m-408 24 q0 10 10 10 m388 0 q10 0 10 -10 m-398 10 h10 m56 0 h10 m0 0 h312 m-398 -10 v20 m408 0 v-20 m-408 20 v24 m408 0 v-24 m-408 24 q0 10 10 10 m388 0 q10 0 10 -10 m-398 10 h10 m66 0 h10 m0 0 h302 m-398 -10 v20 m408 0 v-20 m-408 20 v24 m408 0 v-24 m-408 24 q0 10 10 10 m388 0 q10 0 10 -10 m-358 10 h10 m0 0 h58 m-88 0 h20 m68 0 h20 m-108 0 q10 0 10 10 m88 0 q0 -10 10 -10 m-98 10 v12 m88 0 v-12 m-88 12 q0 10 10 10 m68 0 q10 0 10 -10 m-78 10 h10 m48 0 h10 m20 -32 h10 m70 0 h10 m0 0 h10 m26 0 h10 m0 0 h10 m38 0 h10 m-322 0 h20 m302 0 h20 m-342 0 q10 0 10 10 m322 0 q0 -10 10 -10 m-332 10 v56 m322 0 v-56 m-322 56 q0 10 10 10 m302 0 q10 0 10 -10 m-312 10 h10 m26 0 h10 m20 0 h10 m38 0 h10 m0 0 h92 m-170 0 h20 m150 0 h20 m-190 0 q10 0 10 10 m170 0 q0 -10 10 -10 m-180 10 v68 m170 0 v-68 m-170 68 q0 10 10 10 m150 0 q10 0 10 -10 m-140 10 h10 m90 0 h10 m-130 0 l20 0 m-1 0 q-9 0 -9 -10 l0 -24 q0 -10 10 -10 m110 44 l20 0 m-20 0 q10 0 10 -10 l0 -24 q0 -10 -10 -10 m-110 0 h10 m24 0 h10 m0 0 h66 m40 -44 h66 m20 -76 h10 m26 0 h10 m60 -1220 h10 m36 0 h10 m20 0 h10 m0 0 h58 m-88 0 h20 m68 0 h20 m-108 0 q10 0 10 10 m88 0 q0 -10 10 -10 m-98 10 v12 m88 0 v-12 m-88 12 q0 10 10 10 m68 0 q10 0 10 -10 m-78 10 h10 m48 0 h10 m40 -32 h10 m56 0 h10 m0 0 h38 m-134 0 h20 m114 0 h20 m-154 0 q10 0 10 10 m134 0 q0 -10 10 -10 m-144 10 v24 m134 0 v-24 m-134 24 q0 10 10 10 m114 0 q10 0 10 -10 m-124 10 h10 m56 0 h10 m0 0 h38 m-124 -10 v20 m134 0 v-20 m-134 20 v24 m134 0 v-24 m-134 24 q0 10 10 10 m114 0 q10 0 10 -10 m-124 10 h10 m62 0 h10 m0 0 h32 m-124 -10 v20 m134 0 v-20 m-134 20 v24 m134 0 v-24 m-134 24 q0 10 10 10 m114 0 q10 0 10 -10 m-124 10 h10 m94 0 h10 m-318 -132 l20 0 m-1 0 q-9 0 -9 -10 l0 -12 q0 -10 10 -10 m318 32 l20 0 m-20 0 q10 0 10 -10 l0 -12 q0 -10 -10 -10 m-318 0 h10 m0 0 h308 m-358 32 h20 m358 0 h20 m-398 0 q10 0 10 10 m378 0 q0 -10 10 -10 m-388 10 v146 m378 0 v-146 m-378 146 q0 10 10 10 m358 0 q10 0 10 -10 m-368 10 h10 m0 0 h348 m-934 -166 h20 m934 0 h20 m-974 0 q10 0 10 10 m954 0 q0 -10 10 -10 m-964 10 v1408 m954 0 v-1408 m-954 1408 q0 10 10 10 m934 0 q10 0 10 -10 m-944 10 h10 m90 0 h10 m40 0 h10 m0 0 h58 m-88 0 h20 m68 0 h20 m-108 0 q10 0 10 10 m88 0 q0 -10 10 -10 m-98 10 v12 m88 0 v-12 m-88 12 q0 10 10 10 m68 0 q10 0 10 -10 m-78 10 h10 m48 0 h10 m40 -32 h10 m86 0 h10 m0 0 h10 m90 0 h10 m0 0 h10 m48 0 h10 m-304 0 h20 m284 0 h20 m-324 0 q10 0 10 10 m304 0 q0 -10 10 -10 m-314 10 v24 m304 0 v-24 m-304 24 q0 10 10 10 m284 0 q10 0 10 -10 m-294 10 h10 m36 0 h10 m0 0 h228 m-432 -44 h20 m432 0 h20 m-472 0 q10 0 10 10 m452 0 q0 -10 10 -10 m-462 10 v68 m452 0 v-68 m-452 68 q0 10 10 10 m432 0 q10 0 10 -10 m-442 10 h10 m30 0 h10 m0 0 h382 m-442 -10 v20 m452 0 v-20 m-452 20 v24 m452 0 v-24 m-452 24 q0 10 10 10 m432 0 q10 0 10 -10 m-442 10 h10 m26 0 h10 m0 0 h386 m-442 -10 v20 m452 0 v-20 m-452 20 v24 m452 0 v-24 m-452 24 q0 10 10 10 m432 0 q10 0 10 -10 m-442 10 h10 m28 0 h10 m0 0 h384 m-442 -10 v20 m452 0 v-20 m-452 20 v24 m452 0 v-24 m-452 24 q0 10 10 10 m432 0 q10 0 10 -10 m-442 10 h10 m28 0 h10 m0 0 h384 m-442 -10 v20 m452 0 v-20 m-452 20 v24 m452 0 v-24 m-452 24 q0 10 10 10 m432 0 q10 0 10 -10 m-442 10 h10 m34 0 h10 m0 0 h378 m-442 -10 v20 m452 0 v-20 m-452 20 v24 m452 0 v-24 m-452 24 q0 10 10 10 m432 0 q10 0 10 -10 m-442 10 h10 m40 0 h10 m0 0 h372 m-442 -10 v20 m452 0 v-20 m-452 20 v24 m452 0 v-24 m-452 24 q0 10 10 10 m432 0 q10 0 10 -10 m-442 10 h10 m34 0 h10 m0 0 h378 m-442 -10 v20 m452 0 v-20 m-452 20 v24 m452 0 v-24 m-452 24 q0 10 10 10 m432 0 q10 0 10 -10 m-442 10 h10 m40 0 h10 m0 0 h372 m-442 -10 v20 m452 0 v-20 m-452 20 v24 m452 0 v-24 m-452 24 q0 10 10 10 m432 0 q10 0 10 -10 m-442 10 h10 m30 0 h10 m0 0 h382 m-442 -10 v20 m452 0 v-20 m-452 20 v24 m452 0 v-24 m-452 24 q0 10 10 10 m432 0 q10 0 10 -10 m-442 10 h10 m40 0 h10 m0 0 h372 m-442 -10 v20 m452 0 v-20 m-452 20 v24 m452 0 v-24 m-452 24 q0 10 10 10 m432 0 q10 0 10 -10 m-442 10 h10 m30 0 h10 m0 0 h382 m-442 -10 v20 m452 0 v-20 m-452 20 v24 m452 0 v-24 m-452 24 q0 10 10 10 m432 0 q10 0 10 -10 m-442 10 h10 m30 0 h10 m0 0 h382 m-442 -10 v20 m452 0 v-20 m-452 20 v24 m452 0 v-24 m-452 24 q0 10 10 10 m432 0 q10 0 10 -10 m-442 10 h10 m32 0 h10 m0 0 h380 m-442 -10 v20 m452 0 v-20 m-452 20 v24 m452 0 v-24 m-452 24 q0 10 10 10 m432 0 q10 0 10 -10 m-442 10 h10 m48 0 h10 m0 0 h364 m-442 -10 v20 m452 0 v-20 m-452 20 v24 m452 0 v-24 m-452 24 q0 10 10 10 m432 0 q10 0 10 -10 m-442 10 h10 m40 0 h10 m0 0 h372 m20 -704 h10 m90 0 h10 m0 0 h242 m23 -1428 h-3"
     id="path135" />
  <polygon
     points="1003 51 1011 47 1011 55"
     id="polygon135" />
  <polygon
     points="1003 51 995 47 995 55"
     id="polygon136" />
</svg>
