<?xml version="1.0" encoding="UTF-8" standalone="no"?>
<svg
   width="1013"
   height="1675"
   version="1.1"
   id="svg112"
   viewBox="0 0 1013 1675"
   sodipodi:docname="expression.svg"
   inkscape:version="1.4 (e7c3feb100, 2024-10-09)"
   xmlns:inkscape="http://www.inkscape.org/namespaces/inkscape"
   xmlns:sodipodi="http://sodipodi.sourceforge.net/DTD/sodipodi-0.dtd"
   xmlns:xlink="http://www.w3.org/1999/xlink"
   xmlns="http://www.w3.org/2000/svg"
   xmlns:svg="http://www.w3.org/2000/svg">
  <sodipodi:namedview
     id="namedview112"
     pagecolor="#ffffff"
     bordercolor="#666666"
     borderopacity="1.0"
     inkscape:showpageshadow="2"
     inkscape:pageopacity="0.0"
     inkscape:pagecheckerboard="0"
     inkscape:deskcolor="#d1d1d1"
     inkscape:zoom="0.96119403"
     inkscape:cx="357.8882"
     inkscape:cy="748.54814"
     inkscape:window-width="1238"
     inkscape:window-height="1014"
     inkscape:window-x="112"
     inkscape:window-y="29"
     inkscape:window-maximized="0"
     inkscape:current-layer="svg112" />
  <defs
     id="defs1">
    <style
       type="text/css"
       id="style1">@namespace &quot;http://www.w3.org/2000/svg&quot;;.line { fill: none; stroke: #330000; stroke-width: 1; }
.bold-line { stroke: #140000; shape-rendering: crispEdges; stroke-width: 2; }
.thin-line { stroke: #1F0000; shape-rendering: crispEdges }
.filled { fill: #330000; stroke: none; }
text.terminal { font-family: Verdana, Sans-serif;                            font-size: 12px;                            fill: #140000;                            font-weight: bold; }
text.nonterminal { font-family: Verdana, Sans-serif;                            font-size: 12px;                            fill: #1A0000;                            font-weight: normal; }
text.regexp { font-family: Verdana, Sans-serif;                            font-size: 12px;                            fill: #1F0000;                            font-weight: normal; }
rect, circle, polygon { fill: #330000; stroke: #330000; }
rect.terminal { fill: #FF4D4D; stroke: #330000; stroke-width: 1; }
rect.nonterminal { fill: #FF9E9E; stroke: #330000; stroke-width: 1; }
rect.text { fill: none; stroke: none; }
polygon.regexp { fill: #FFC7C7; stroke: #330000; stroke-width: 1; }
</style>
  </defs>
  <polygon
     points="9 51 1 47 1 55"
     id="polygon1" />
  <polygon
     points="17 51 9 47 9 55"
     id="polygon2" />
  <rect
     x="71"
     y="3"
     width="48"
     height="32"
     rx="10"
     id="rect2" />
  <rect
     x="69"
     y="1"
     width="48"
     height="32"
     class="terminal"
     rx="10"
     id="rect3" />
  <text
     class="terminal"
     x="79"
     y="21"
     id="text3">NOT</text>
  <a
     xlink:href="../object"
     xlink:title="table"
     id="a5">
    <rect
       x="199"
       y="69"
       width="52"
       height="32"
       id="rect4" />
    <rect
       x="197"
       y="67"
       width="52"
       height="32"
       class="nonterminal"
       id="rect5" />
    <text
       class="nonterminal"
       x="207"
       y="87"
       id="text5">table</text>
  </a>
  <rect
     x="271"
     y="69"
     width="24"
     height="32"
     rx="10"
     id="rect6" />
  <rect
     x="269"
     y="67"
     width="24"
     height="32"
     class="terminal"
     rx="10"
     id="rect7" />
  <text
     class="terminal"
     x="279"
     y="87"
     id="text7">.</text>
  <a
     xlink:href="../object"
     xlink:title="column"
     id="a9">
    <rect
       x="335"
       y="37"
       width="64"
       height="32"
       id="rect8" />
    <rect
       x="333"
       y="35"
       width="64"
       height="32"
       class="nonterminal"
       id="rect9" />
    <text
       class="nonterminal"
       x="343"
       y="55"
       id="text9">column</text>
  </a>
  <a
     xlink:href="#literal"
     xlink:title="literal"
     id="a11">
    <rect
       x="179"
       y="113"
       width="56"
       height="32"
       id="rect10" />
    <rect
       x="177"
       y="111"
       width="56"
       height="32"
       class="nonterminal"
       id="rect11" />
    <text
       class="nonterminal"
       x="187"
       y="131"
       id="text11">literal</text>
  </a>
  <a
     xlink:href="../case"
     xlink:title="case"
     id="a13">
    <rect
       x="179"
       y="157"
       width="48"
       height="32"
       id="rect12" />
    <rect
       x="177"
       y="155"
       width="48"
       height="32"
       class="nonterminal"
       id="rect13" />
    <text
       class="nonterminal"
       x="187"
       y="175"
       id="text13">case</text>
  </a>
  <a
     xlink:href="../cast"
     xlink:title="cast"
     id="a15">
    <rect
       x="179"
       y="201"
       width="46"
       height="32"
       id="rect14" />
    <rect
       x="177"
       y="199"
       width="46"
       height="32"
       class="nonterminal"
       id="rect15" />
    <text
       class="nonterminal"
       x="187"
       y="219"
       id="text15">cast</text>
  </a>
  <a
     xlink:href="../coalesce"
     xlink:title="coalesce"
     id="a17">
    <rect
       x="179"
       y="245"
       width="74"
       height="32"
       id="rect16" />
    <rect
       x="177"
       y="243"
       width="74"
       height="32"
       class="nonterminal"
       id="rect17" />
    <text
       class="nonterminal"
       x="187"
       y="263"
       id="text17">coalesce</text>
  </a>
  <a
     xlink:href="../current_date"
     xlink:title="current_date"
     id="a19">
    <rect
       x="179"
       y="289"
       width="102"
       height="32"
       id="rect18" />
    <rect
       x="177"
       y="287"
       width="102"
       height="32"
       class="nonterminal"
       id="rect19" />
    <text
       class="nonterminal"
       x="187"
       y="307"
       id="text19">current_date</text>
  </a>
  <a
     xlink:href="../like"
     xlink:title="like"
     id="a21">
    <rect
       x="179"
       y="333"
       width="42"
       height="32"
       id="rect20" />
    <rect
       x="177"
       y="331"
       width="42"
       height="32"
       class="nonterminal"
       id="rect21" />
    <text
       class="nonterminal"
       x="187"
       y="351"
       id="text21">like</text>
  </a>
  <a
     xlink:href="../localtimestamp"
     xlink:title="localtimestamp"
     id="a23">
    <rect
       x="179"
       y="377"
       width="116"
       height="32"
       id="rect22" />
    <rect
       x="177"
       y="375"
       width="116"
       height="32"
       class="nonterminal"
       id="rect23" />
    <text
       class="nonterminal"
       x="187"
       y="395"
       id="text23">localtimestamp</text>
  </a>
  <a
     xlink:href="../ilike"
     xlink:title="ilike"
     id="a25">
    <rect
       x="179"
       y="421"
       width="44"
       height="32"
       id="rect24" />
    <rect
       x="177"
       y="419"
       width="44"
       height="32"
       class="nonterminal"
       id="rect25" />
    <text
       class="nonterminal"
       x="187"
       y="439"
       id="text25">ilike</text>
  </a>
  <a
     xlink:href="../substr"
     xlink:title="substr"
     id="a27"
     transform="translate(0,-2.0807453)">
    <rect
       x="179"
       y="465"
       width="60"
       height="32"
       id="rect26" />
    <rect
       x="177"
       y="463"
       width="60"
       height="32"
       class="nonterminal"
       id="rect27" />
    <text
       class="nonterminal"
       x="187"
       y="483"
       id="text27">substr</text>
  </a>
  <a
     xlink:href="../substring"
     xlink:title="substring"
     id="a29">
    <rect
       x="179"
       y="509"
       width="78"
       height="32"
       id="rect28" />
    <rect
       x="177"
       y="507"
       width="78"
       height="32"
       class="nonterminal"
       id="rect29" />
    <text
       class="nonterminal"
       x="187"
       y="527"
       id="text29">substring</text>
  </a>
  <a
     xlink:href="../to_char"
     xlink:title="to_char"
     id="a31">
    <rect
       x="179"
       y="553"
       width="68"
       height="32"
       id="rect30" />
    <rect
       x="177"
       y="551"
       width="68"
       height="32"
       class="nonterminal"
       id="rect31" />
    <text
       class="nonterminal"
       x="187"
       y="571"
       id="text31">to_char</text>
  </a>
  <a
     xlink:href="../to_date"
     xlink:title="to_date"
     id="a33">
    <rect
       x="179"
       y="597"
       width="70"
       height="32"
       id="rect32" />
    <rect
       x="177"
       y="595"
       width="70"
       height="32"
       class="nonterminal"
       id="rect33" />
    <text
       class="nonterminal"
       x="187"
       y="615"
       id="text33">to_date</text>
  </a>
  <a
     xlink:href="../trim"
     xlink:title="trim"
     id="a35">
    <rect
       x="179"
       y="641"
       width="44"
       height="32"
       id="rect34" />
    <rect
       x="177"
       y="639"
       width="44"
       height="32"
       class="nonterminal"
       id="rect35" />
    <text
       class="nonterminal"
       x="187"
       y="659"
       id="text35">trim</text>
  </a>
  <a
     xlink:href="../lower"
     xlink:title="lower"
     id="a37">
    <rect
       x="179"
       y="685"
       width="54"
       height="32"
       id="rect36" />
    <rect
       x="177"
       y="683"
       width="54"
       height="32"
       class="nonterminal"
       id="rect37" />
    <text
       class="nonterminal"
       x="187"
       y="703"
       id="text37">lower</text>
  </a>
  <a
     xlink:href="../upper"
     xlink:title="upper"
     id="a39">
    <rect
       x="179"
       y="729"
       width="56"
       height="32"
       id="rect38" />
    <rect
       x="177"
       y="727"
       width="56"
       height="32"
       class="nonterminal"
       id="rect39" />
    <text
       class="nonterminal"
       x="187"
       y="747"
       id="text39">upper</text>
  </a>
  <rect
     x="219"
     y="805"
     width="48"
     height="32"
     rx="10"
     id="rect40" />
  <rect
     x="217"
     y="803"
     width="48"
     height="32"
     class="terminal"
     rx="10"
     id="rect41" />
  <text
     class="terminal"
     x="227"
     y="823"
     id="text41">NOT</text>
  <rect
     x="307"
     y="773"
     width="70"
     height="32"
     rx="10"
     id="rect42" />
  <rect
     x="305"
     y="771"
     width="70"
     height="32"
     class="terminal"
     rx="10"
     id="rect43" />
  <text
     class="terminal"
     x="315"
     y="791"
     id="text43">EXISTS</text>
  <rect
     x="397"
     y="773"
     width="26"
     height="32"
     rx="10"
     id="rect44" />
  <rect
     x="395"
     y="771"
     width="26"
     height="32"
     class="terminal"
     rx="10"
     id="rect45" />
  <text
     class="terminal"
     x="405"
     y="791"
     id="text45">(</text>
  <a
     xlink:href="../dql"
     xlink:title="dql"
     id="a47">
    <rect
       x="443"
       y="773"
       width="38"
       height="32"
       id="rect46" />
    <rect
       x="441"
       y="771"
       width="38"
       height="32"
       class="nonterminal"
       id="rect47" />
    <text
       class="nonterminal"
       x="451"
       y="791"
       id="text47">dql</text>
  </a>
  <rect
     x="199"
     y="849"
     width="26"
     height="32"
     rx="10"
     id="rect48" />
  <rect
     x="197"
     y="847"
     width="26"
     height="32"
     class="terminal"
     rx="10"
     id="rect49" />
  <text
     class="terminal"
     x="207"
     y="867"
     id="text49">(</text>
  <a
     xlink:href="../dql"
     xlink:title="dql"
     id="a51">
    <rect
       x="265"
       y="849"
       width="38"
       height="32"
       id="rect50" />
    <rect
       x="263"
       y="847"
       width="38"
       height="32"
       class="nonterminal"
       id="rect51" />
    <text
       class="nonterminal"
       x="273"
       y="867"
       id="text51">dql</text>
  </a>
  <a
     xlink:href="#expression"
     xlink:title="expression"
     id="a53">
    <rect
       x="285"
       y="937"
       width="90"
       height="32"
       id="rect52" />
    <rect
       x="283"
       y="935"
       width="90"
       height="32"
       class="nonterminal"
       id="rect53" />
    <text
       class="nonterminal"
       x="293"
       y="955"
       id="text53">expression</text>
  </a>
  <rect
     x="285"
     y="893"
     width="24"
     height="32"
     rx="10"
     id="rect54" />
  <rect
     x="283"
     y="891"
     width="24"
     height="32"
     class="terminal"
     rx="10"
     id="rect55" />
  <text
     class="terminal"
     x="293"
     y="911"
     id="text55">,</text>
  <rect
     x="521"
     y="773"
     width="26"
     height="32"
     rx="10"
     id="rect56" />
  <rect
     x="519"
     y="771"
     width="26"
     height="32"
     class="terminal"
     rx="10"
     id="rect57" />
  <text
     class="terminal"
     x="529"
     y="791"
     id="text57">)</text>
  <rect
     x="627"
     y="37"
     width="36"
     height="32"
     rx="10"
     id="rect58" />
  <rect
     x="625"
     y="35"
     width="36"
     height="32"
     class="terminal"
     rx="10"
     id="rect59" />
  <text
     class="terminal"
     x="635"
     y="55"
     id="text59">IS</text>
  <rect
     x="703"
     y="69"
     width="48"
     height="32"
     rx="10"
     id="rect60" />
  <rect
     x="701"
     y="67"
     width="48"
     height="32"
     class="terminal"
     rx="10"
     id="rect61" />
  <text
     class="terminal"
     x="711"
     y="87"
     id="text61">NOT</text>
  <rect
     x="811"
     y="37"
     width="56"
     height="32"
     rx="10"
     id="rect62" />
  <rect
     x="809"
     y="35"
     width="56"
     height="32"
     class="terminal"
     rx="10"
     id="rect63" />
  <text
     class="terminal"
     x="819"
     y="55"
     id="text63">NULL</text>
  <rect
     x="811"
     y="81"
     width="56"
     height="32"
     rx="10"
     id="rect64" />
  <rect
     x="809"
     y="79"
     width="56"
     height="32"
     class="terminal"
     rx="10"
     id="rect65" />
  <text
     class="terminal"
     x="819"
     y="99"
     id="text65">TRUE</text>
  <rect
     x="811"
     y="125"
     width="62"
     height="32"
     rx="10"
     id="rect66" />
  <rect
     x="809"
     y="123"
     width="62"
     height="32"
     class="terminal"
     rx="10"
     id="rect67" />
  <text
     class="terminal"
     x="819"
     y="143"
     id="text67">FALSE</text>
  <rect
     x="811"
     y="169"
     width="94"
     height="32"
     rx="10"
     id="rect68" />
  <rect
     x="809"
     y="167"
     width="94"
     height="32"
     class="terminal"
     rx="10"
     id="rect69" />
  <text
     class="terminal"
     x="819"
     y="187"
     id="text69">UNKNOWN</text>
  <a
     xlink:href="#expression"
     xlink:title="expression"
     id="a71">
    <rect
       x="51"
       y="981"
       width="90"
       height="32"
       id="rect70" />
    <rect
       x="49"
       y="979"
       width="90"
       height="32"
       class="nonterminal"
       id="rect71" />
    <text
       class="nonterminal"
       x="59"
       y="999"
       id="text71">expression</text>
  </a>
  <rect
     x="201"
     y="1013"
     width="48"
     height="32"
     rx="10"
     id="rect72" />
  <rect
     x="199"
     y="1011"
     width="48"
     height="32"
     class="terminal"
     rx="10"
     id="rect73" />
  <text
     class="terminal"
     x="209"
     y="1031"
     id="text73">NOT</text>
  <rect
     x="309"
     y="981"
     width="86"
     height="32"
     rx="10"
     id="rect74" />
  <rect
     x="307"
     y="979"
     width="86"
     height="32"
     class="terminal"
     rx="10"
     id="rect75" />
  <text
     class="terminal"
     x="317"
     y="999"
     id="text75">BETWEEN</text>
  <a
     xlink:href="#expression"
     xlink:title="expression"
     id="a77">
    <rect
       x="415"
       y="981"
       width="90"
       height="32"
       id="rect76" />
    <rect
       x="413"
       y="979"
       width="90"
       height="32"
       class="nonterminal"
       id="rect77" />
    <text
       class="nonterminal"
       x="423"
       y="999"
       id="text77">expression</text>
  </a>
  <rect
     x="525"
     y="981"
     width="48"
     height="32"
     rx="10"
     id="rect78" />
  <rect
     x="523"
     y="979"
     width="48"
     height="32"
     class="terminal"
     rx="10"
     id="rect79" />
  <text
     class="terminal"
     x="533"
     y="999"
     id="text79">AND</text>
  <rect
     x="309"
     y="1025"
     width="36"
     height="32"
     rx="10"
     id="rect80" />
  <rect
     x="307"
     y="1023"
     width="36"
     height="32"
     class="terminal"
     rx="10"
     id="rect81" />
  <text
     class="terminal"
     x="317"
     y="1043"
     id="text81">IN</text>
  <rect
     x="181"
     y="1069"
     width="30"
     height="32"
     rx="10"
     id="rect82" />
  <rect
     x="179"
     y="1067"
     width="30"
     height="32"
     class="terminal"
     rx="10"
     id="rect83" />
  <text
     class="terminal"
     x="189"
     y="1087"
     id="text83">+</text>
  <rect
     x="181"
     y="1113"
     width="26"
     height="32"
     rx="10"
     id="rect84" />
  <rect
     x="179"
     y="1111"
     width="26"
     height="32"
     class="terminal"
     rx="10"
     id="rect85" />
  <text
     class="terminal"
     x="189"
     y="1131"
     id="text85">-</text>
  <rect
     x="181"
     y="1157"
     width="28"
     height="32"
     rx="10"
     id="rect86" />
  <rect
     x="179"
     y="1155"
     width="28"
     height="32"
     class="terminal"
     rx="10"
     id="rect87" />
  <text
     class="terminal"
     x="189"
     y="1175"
     id="text87">*</text>
  <rect
     x="181"
     y="1201"
     width="28"
     height="32"
     rx="10"
     id="rect88" />
  <rect
     x="179"
     y="1199"
     width="28"
     height="32"
     class="terminal"
     rx="10"
     id="rect89" />
  <text
     class="terminal"
     x="189"
     y="1219"
     id="text89">/</text>
  <rect
     x="181"
     y="1245"
     width="40"
     height="32"
     rx="10"
     id="rect90" />
  <rect
     x="179"
     y="1243"
     width="40"
     height="32"
     class="terminal"
     rx="10"
     id="rect91" />
  <text
     class="terminal"
     x="189"
     y="1263"
     id="text91">&lt;&gt;</text>
  <rect
     x="181"
     y="1289"
     width="34"
     height="32"
     rx="10"
     id="rect92" />
  <rect
     x="179"
     y="1287"
     width="34"
     height="32"
     class="terminal"
     rx="10"
     id="rect93" />
  <text
     class="terminal"
     x="189"
     y="1307"
     id="text93">!=</text>
  <rect
     x="181"
     y="1333"
     width="40"
     height="32"
     rx="10"
     id="rect94" />
  <rect
     x="179"
     y="1331"
     width="40"
     height="32"
     class="terminal"
     rx="10"
     id="rect95" />
  <text
     class="terminal"
     x="189"
     y="1351"
     id="text95">&gt;=</text>
  <rect
     x="181"
     y="1377"
     width="30"
     height="32"
     rx="10"
     id="rect96" />
  <rect
     x="179"
     y="1375"
     width="30"
     height="32"
     class="terminal"
     rx="10"
     id="rect97" />
  <text
     class="terminal"
     x="189"
     y="1395"
     id="text97">&gt;</text>
  <rect
     x="181"
     y="1421"
     width="40"
     height="32"
     rx="10"
     id="rect98" />
  <rect
     x="179"
     y="1419"
     width="40"
     height="32"
     class="terminal"
     rx="10"
     id="rect99" />
  <text
     class="terminal"
     x="189"
     y="1439"
     id="text99">&lt;=</text>
  <rect
     x="181"
     y="1465"
     width="30"
     height="32"
     rx="10"
     id="rect100" />
  <rect
     x="179"
     y="1463"
     width="30"
     height="32"
     class="terminal"
     rx="10"
     id="rect101" />
  <text
     class="terminal"
     x="189"
     y="1483"
     id="text101">&lt;</text>
  <rect
     x="181"
     y="1509"
     width="30"
     height="32"
     rx="10"
     id="rect102" />
  <rect
     x="179"
     y="1507"
     width="30"
     height="32"
     class="terminal"
     rx="10"
     id="rect103" />
  <text
     class="terminal"
     x="189"
     y="1527"
     id="text103">=</text>
  <rect
     x="181"
     y="1553"
     width="32"
     height="32"
     rx="10"
     id="rect104" />
  <rect
     x="179"
     y="1551"
     width="32"
     height="32"
     class="terminal"
     rx="10"
     id="rect105" />
  <text
     class="terminal"
     x="189"
     y="1571"
     id="text105">||</text>
  <rect
     x="181"
     y="1597"
     width="48"
     height="32"
     rx="10"
     id="rect106" />
  <rect
     x="179"
     y="1595"
     width="48"
     height="32"
     class="terminal"
     rx="10"
     id="rect107" />
  <text
     class="terminal"
     x="189"
     y="1615"
     id="text107">AND</text>
  <rect
     x="181"
     y="1641"
     width="40"
     height="32"
     rx="10"
     id="rect108" />
  <rect
     x="179"
     y="1639"
     width="40"
     height="32"
     class="terminal"
     rx="10"
     id="rect109" />
  <text
     class="terminal"
     x="189"
     y="1659"
     id="text109">OR</text>
  <a
     xlink:href="#expression"
     xlink:title="expression"
     id="a111">
    <rect
       x="633"
       y="981"
       width="90"
       height="32"
       id="rect110" />
    <rect
       x="631"
       y="979"
       width="90"
       height="32"
       class="nonterminal"
       id="rect111" />
    <text
       class="nonterminal"
       x="641"
       y="999"
       id="text111">expression</text>
  </a>
  <path
     class="line"
     d="m17 51 h2 m40 0 h10 m0 0 h58 m-88 0 l20 0 m-1 0 q-9 0 -9 -10 l0 -14 q0 -10 10 -10 m68 34 l20 0 m-20 0 q10 0 10 -10 l0 -14 q0 -10 -10 -10 m-68 0 h10 m48 0 h10 m60 34 h10 m0 0 h106 m-136 0 h20 m116 0 h20 m-156 0 q10 0 10 10 m136 0 q0 -10 10 -10 m-146 10 v12 m136 0 v-12 m-136 12 q0 10 10 10 m116 0 q10 0 10 -10 m-126 10 h10 m52 0 h10 m0 0 h10 m24 0 h10 m20 -32 h10 m64 0 h10 m0 0 h148 m-408 0 h20 m388 0 h20 m-428 0 q10 0 10 10 m408 0 q0 -10 10 -10 m-418 10 v56 m408 0 v-56 m-408 56 q0 10 10 10 m388 0 q10 0 10 -10 m-398 10 h10 m56 0 h10 m0 0 h312 m-398 -10 v20 m408 0 v-20 m-408 20 v24 m408 0 v-24 m-408 24 q0 10 10 10 m388 0 q10 0 10 -10 m-398 10 h10 m48 0 h10 m0 0 h320 m-398 -10 v20 m408 0 v-20 m-408 20 v24 m408 0 v-24 m-408 24 q0 10 10 10 m388 0 q10 0 10 -10 m-398 10 h10 m46 0 h10 m0 0 h322 m-398 -10 v20 m408 0 v-20 m-408 20 v24 m408 0 v-24 m-408 24 q0 10 10 10 m388 0 q10 0 10 -10 m-398 10 h10 m74 0 h10 m0 0 h294 m-398 -10 v20 m408 0 v-20 m-408 20 v24 m408 0 v-24 m-408 24 q0 10 10 10 m388 0 q10 0 10 -10 m-398 10 h10 m102 0 h10 m0 0 h266 m-398 -10 v20 m408 0 v-20 m-408 20 v24 m408 0 v-24 m-408 24 q0 10 10 10 m388 0 q10 0 10 -10 m-398 10 h10 m42 0 h10 m0 0 h326 m-398 -10 v20 m408 0 v-20 m-408 20 v24 m408 0 v-24 m-408 24 q0 10 10 10 m388 0 q10 0 10 -10 m-398 10 h10 m116 0 h10 m0 0 h252 m-398 -10 v20 m408 0 v-20 m-408 20 v24 m408 0 v-24 m-408 24 q0 10 10 10 m388 0 q10 0 10 -10 m-398 10 h10 m44 0 h10 m0 0 h324 m-398 -10 v20 m408 0 v-20 m-408 20 v24 m408 0 v-24 m-408 24 q0 10 10 10 m388 0 q10 0 10 -10 m-398 10 h10 m60 0 h10 m0 0 h308 m-398 -10 v20 m408 0 v-20 m-408 20 v24 m408 0 v-24 m-408 24 q0 10 10 10 m388 0 q10 0 10 -10 m-398 10 h10 m78 0 h10 m0 0 h290 m-398 -10 v20 m408 0 v-20 m-408 20 v24 m408 0 v-24 m-408 24 q0 10 10 10 m388 0 q10 0 10 -10 m-398 10 h10 m68 0 h10 m0 0 h300 m-398 -10 v20 m408 0 v-20 m-408 20 v24 m408 0 v-24 m-408 24 q0 10 10 10 m388 0 q10 0 10 -10 m-398 10 h10 m70 0 h10 m0 0 h298 m-398 -10 v20 m408 0 v-20 m-408 20 v24 m408 0 v-24 m-408 24 q0 10 10 10 m388 0 q10 0 10 -10 m-398 10 h10 m44 0 h10 m0 0 h324 m-398 -10 v20 m408 0 v-20 m-408 20 v24 m408 0 v-24 m-408 24 q0 10 10 10 m388 0 q10 0 10 -10 m-398 10 h10 m54 0 h10 m0 0 h314 m-398 -10 v20 m408 0 v-20 m-408 20 v24 m408 0 v-24 m-408 24 q0 10 10 10 m388 0 q10 0 10 -10 m-398 10 h10 m56 0 h10 m0 0 h312 m-398 -10 v20 m408 0 v-20 m-408 20 v24 m408 0 v-24 m-408 24 q0 10 10 10 m388 0 q10 0 10 -10 m-358 10 h10 m0 0 h58 m-88 0 h20 m68 0 h20 m-108 0 q10 0 10 10 m88 0 q0 -10 10 -10 m-98 10 v12 m88 0 v-12 m-88 12 q0 10 10 10 m68 0 q10 0 10 -10 m-78 10 h10 m48 0 h10 m20 -32 h10 m70 0 h10 m0 0 h10 m26 0 h10 m0 0 h10 m38 0 h10 m-322 0 h20 m302 0 h20 m-342 0 q10 0 10 10 m322 0 q0 -10 10 -10 m-332 10 v56 m322 0 v-56 m-322 56 q0 10 10 10 m302 0 q10 0 10 -10 m-312 10 h10 m26 0 h10 m20 0 h10 m38 0 h10 m0 0 h92 m-170 0 h20 m150 0 h20 m-190 0 q10 0 10 10 m170 0 q0 -10 10 -10 m-180 10 v68 m170 0 v-68 m-170 68 q0 10 10 10 m150 0 q10 0 10 -10 m-140 10 h10 m90 0 h10 m-130 0 l20 0 m-1 0 q-9 0 -9 -10 l0 -24 q0 -10 10 -10 m110 44 l20 0 m-20 0 q10 0 10 -10 l0 -24 q0 -10 -10 -10 m-110 0 h10 m24 0 h10 m0 0 h66 m40 -44 h66 m20 -76 h10 m26 0 h10 m60 -736 h10 m36 0 h10 m20 0 h10 m0 0 h58 m-88 0 h20 m68 0 h20 m-108 0 q10 0 10 10 m88 0 q0 -10 10 -10 m-98 10 v12 m88 0 v-12 m-88 12 q0 10 10 10 m68 0 q10 0 10 -10 m-78 10 h10 m48 0 h10 m40 -32 h10 m56 0 h10 m0 0 h38 m-134 0 h20 m114 0 h20 m-154 0 q10 0 10 10 m134 0 q0 -10 10 -10 m-144 10 v24 m134 0 v-24 m-134 24 q0 10 10 10 m114 0 q10 0 10 -10 m-124 10 h10 m56 0 h10 m0 0 h38 m-124 -10 v20 m134 0 v-20 m-134 20 v24 m134 0 v-24 m-134 24 q0 10 10 10 m114 0 q10 0 10 -10 m-124 10 h10 m62 0 h10 m0 0 h32 m-124 -10 v20 m134 0 v-20 m-134 20 v24 m134 0 v-24 m-134 24 q0 10 10 10 m114 0 q10 0 10 -10 m-124 10 h10 m94 0 h10 m-318 -132 l20 0 m-1 0 q-9 0 -9 -10 l0 -12 q0 -10 10 -10 m318 32 l20 0 m-20 0 q10 0 10 -10 l0 -12 q0 -10 -10 -10 m-318 0 h10 m0 0 h308 m-358 32 h20 m358 0 h20 m-398 0 q10 0 10 10 m378 0 q0 -10 10 -10 m-388 10 v146 m378 0 v-146 m-378 146 q0 10 10 10 m358 0 q10 0 10 -10 m-368 10 h10 m0 0 h348 m-934 -166 h20 m934 0 h20 m-974 0 q10 0 10 10 m954 0 q0 -10 10 -10 m-964 10 v924 m954 0 v-924 m-954 924 q0 10 10 10 m934 0 q10 0 10 -10 m-944 10 h10 m90 0 h10 m40 0 h10 m0 0 h58 m-88 0 h20 m68 0 h20 m-108 0 q10 0 10 10 m88 0 q0 -10 10 -10 m-98 10 v12 m88 0 v-12 m-88 12 q0 10 10 10 m68 0 q10 0 10 -10 m-78 10 h10 m48 0 h10 m40 -32 h10 m86 0 h10 m0 0 h10 m90 0 h10 m0 0 h10 m48 0 h10 m-304 0 h20 m284 0 h20 m-324 0 q10 0 10 10 m304 0 q0 -10 10 -10 m-314 10 v24 m304 0 v-24 m-304 24 q0 10 10 10 m284 0 q10 0 10 -10 m-294 10 h10 m36 0 h10 m0 0 h228 m-432 -44 h20 m432 0 h20 m-472 0 q10 0 10 10 m452 0 q0 -10 10 -10 m-462 10 v68 m452 0 v-68 m-452 68 q0 10 10 10 m432 0 q10 0 10 -10 m-442 10 h10 m30 0 h10 m0 0 h382 m-442 -10 v20 m452 0 v-20 m-452 20 v24 m452 0 v-24 m-452 24 q0 10 10 10 m432 0 q10 0 10 -10 m-442 10 h10 m26 0 h10 m0 0 h386 m-442 -10 v20 m452 0 v-20 m-452 20 v24 m452 0 v-24 m-452 24 q0 10 10 10 m432 0 q10 0 10 -10 m-442 10 h10 m28 0 h10 m0 0 h384 m-442 -10 v20 m452 0 v-20 m-452 20 v24 m452 0 v-24 m-452 24 q0 10 10 10 m432 0 q10 0 10 -10 m-442 10 h10 m28 0 h10 m0 0 h384 m-442 -10 v20 m452 0 v-20 m-452 20 v24 m452 0 v-24 m-452 24 q0 10 10 10 m432 0 q10 0 10 -10 m-442 10 h10 m40 0 h10 m0 0 h372 m-442 -10 v20 m452 0 v-20 m-452 20 v24 m452 0 v-24 m-452 24 q0 10 10 10 m432 0 q10 0 10 -10 m-442 10 h10 m34 0 h10 m0 0 h378 m-442 -10 v20 m452 0 v-20 m-452 20 v24 m452 0 v-24 m-452 24 q0 10 10 10 m432 0 q10 0 10 -10 m-442 10 h10 m40 0 h10 m0 0 h372 m-442 -10 v20 m452 0 v-20 m-452 20 v24 m452 0 v-24 m-452 24 q0 10 10 10 m432 0 q10 0 10 -10 m-442 10 h10 m30 0 h10 m0 0 h382 m-442 -10 v20 m452 0 v-20 m-452 20 v24 m452 0 v-24 m-452 24 q0 10 10 10 m432 0 q10 0 10 -10 m-442 10 h10 m40 0 h10 m0 0 h372 m-442 -10 v20 m452 0 v-20 m-452 20 v24 m452 0 v-24 m-452 24 q0 10 10 10 m432 0 q10 0 10 -10 m-442 10 h10 m30 0 h10 m0 0 h382 m-442 -10 v20 m452 0 v-20 m-452 20 v24 m452 0 v-24 m-452 24 q0 10 10 10 m432 0 q10 0 10 -10 m-442 10 h10 m30 0 h10 m0 0 h382 m-442 -10 v20 m452 0 v-20 m-452 20 v24 m452 0 v-24 m-452 24 q0 10 10 10 m432 0 q10 0 10 -10 m-442 10 h10 m32 0 h10 m0 0 h380 m-442 -10 v20 m452 0 v-20 m-452 20 v24 m452 0 v-24 m-452 24 q0 10 10 10 m432 0 q10 0 10 -10 m-442 10 h10 m48 0 h10 m0 0 h364 m-442 -10 v20 m452 0 v-20 m-452 20 v24 m452 0 v-24 m-452 24 q0 10 10 10 m432 0 q10 0 10 -10 m-442 10 h10 m40 0 h10 m0 0 h372 m20 -660 h10 m90 0 h10 m0 0 h242 m23 -944 h-3"
     id="path111" />
  <polygon
     points="1003 51 1011 47 1011 55"
     id="polygon111" />
  <polygon
     points="1003 51 995 47 995 55"
     id="polygon112" />
</svg>
