<?xml version="1.0" encoding="UTF-8"?>
<svg xmlns="http://www.w3.org/2000/svg" width="1013" height="1851" viewBox="0 0 1013 1851">
  <defs>
    <style type="text/css">
      @namespace "http://www.w3.org/2000/svg";
      .line                 {fill: none; stroke: #330000; stroke-width: 1;}
      .bold-line            {stroke: #140000; shape-rendering: crispEdges; stroke-width: 2;}
      .thin-line            {stroke: #1F0000; shape-rendering: crispEdges}
      .filled               {fill: #330000; stroke: none;}
      text.terminal         {font-family: Verdana, Sans-serif;
      font-size: 12px;
      fill: #140000;
      font-weight: bold;
      }
      text.nonterminal      {font-family: Verdana, Sans-serif;
      font-size: 12px;
      fill: #1A0000;
      font-weight: normal;
      }
      text.regexp           {font-family: Verdana, Sans-serif;
      font-size: 12px;
      fill: #1F0000;
      font-weight: normal;
      }
      rect, circle, polygon {fill: #330000; stroke: #330000;}
      rect.terminal         {fill: #FF4D4D; stroke: #330000; stroke-width: 1;}
      rect.nonterminal      {fill: #FF9E9E; stroke: #330000; stroke-width: 1;}
      rect.text             {fill: none; stroke: none;}
      polygon.regexp        {fill: #FFC7C7; stroke: #330000; stroke-width: 1;}
    </style>
    <style class="darkreader darkreader--sync" media="screen"/>
  </defs>
  <polygon points="9 51 1 47 1 55"/>
  <polygon points="17 51 9 47 9 55"/>
  <rect x="71" y="3" width="48" height="32" rx="10"/>
  <rect x="69"
        y="1"
        width="48"
        height="32"
        class="terminal"
        rx="10"/>
  <text class="terminal" x="79" y="21">NOT</text>
  <a xmlns:xlink="http://www.w3.org/1999/xlink"
     xlink:href="../object"
     xlink:title="table">
    <rect x="199" y="69" width="52" height="32"/>
    <rect x="197" y="67" width="52" height="32" class="nonterminal"/>
    <text class="nonterminal" x="207" y="87">table</text>
  </a>
  <rect x="271" y="69" width="24" height="32" rx="10"/>
  <rect x="269"
        y="67"
        width="24"
        height="32"
        class="terminal"
        rx="10"/>
  <text class="terminal" x="279" y="87">.</text>
  <a xmlns:xlink="http://www.w3.org/1999/xlink"
     xlink:href="../object"
     xlink:title="column">
    <rect x="335" y="37" width="64" height="32"/>
    <rect x="333" y="35" width="64" height="32" class="nonterminal"/>
    <text class="nonterminal" x="343" y="55">column</text>
  </a>
  <a xmlns:xlink="http://www.w3.org/1999/xlink"
     xlink:href="../abs"
     xlink:title="abs">
    <rect x="179" y="113" width="42" height="32"/>
    <rect x="177" y="111" width="42" height="32" class="nonterminal"/>
    <text class="nonterminal" x="187" y="131">abs</text>
  </a>
  <a xmlns:xlink="http://www.w3.org/1999/xlink"
     xlink:href="../case"
     xlink:title="case">
    <rect x="179" y="157" width="48" height="32"/>
    <rect x="177" y="155" width="48" height="32" class="nonterminal"/>
    <text class="nonterminal" x="187" y="175">case</text>
  </a>
  <a xmlns:xlink="http://www.w3.org/1999/xlink"
     xlink:href="../cast"
     xlink:title="cast">
    <rect x="179" y="201" width="46" height="32"/>
    <rect x="177" y="199" width="46" height="32" class="nonterminal"/>
    <text class="nonterminal" x="187" y="219">cast</text>
  </a>
  <a xmlns:xlink="http://www.w3.org/1999/xlink"
     xlink:href="../coalesce"
     xlink:title="coalesce">
    <rect x="179" y="245" width="74" height="32"/>
    <rect x="177" y="243" width="74" height="32" class="nonterminal"/>
    <text class="nonterminal" x="187" y="263">coalesce</text>
  </a>
  <a xmlns:xlink="http://www.w3.org/1999/xlink"
     xlink:href="../current_date"
     xlink:title="current_date">
    <rect x="179" y="289" width="102" height="32"/>
    <rect x="177" y="287" width="102" height="32" class="nonterminal"/>
    <text class="nonterminal" x="187" y="307">current_date</text>
  </a>
  <a xmlns:xlink="http://www.w3.org/1999/xlink"
     xlink:href="../ilike"
     xlink:title="ilike">
    <rect x="179" y="333" width="44" height="32"/>
    <rect x="177" y="331" width="44" height="32" class="nonterminal"/>
    <text class="nonterminal" x="187" y="351">ilike</text>
  </a>
  <a xmlns:xlink="http://www.w3.org/1999/xlink"
     xlink:href="../instance_uuid"
     xlink:title="instance_uuid">
    <rect x="179" y="377" width="108" height="32"/>
    <rect x="177" y="375" width="108" height="32" class="nonterminal"/>
    <text class="nonterminal" x="187" y="395">instance_uuid</text>
  </a>
  <a xmlns:xlink="http://www.w3.org/1999/xlink"
     xlink:href="../like"
     xlink:title="like">
    <rect x="179" y="421" width="42" height="32"/>
    <rect x="177" y="419" width="42" height="32" class="nonterminal"/>
    <text class="nonterminal" x="187" y="439">like</text>
  </a>
  <a xmlns:xlink="http://www.w3.org/1999/xlink"
     xlink:href="#literal"
     xlink:title="literal">
    <rect x="179" y="465" width="56" height="32"/>
    <rect x="177" y="463" width="56" height="32" class="nonterminal"/>
    <text class="nonterminal" x="187" y="483">literal</text>
  </a>
  <a xmlns:xlink="http://www.w3.org/1999/xlink"
     xlink:href="../localtimestamp"
     xlink:title="localtimestamp">
    <rect x="179" y="509" width="116" height="32"/>
    <rect x="177" y="507" width="116" height="32" class="nonterminal"/>
    <text class="nonterminal" x="187" y="527">localtimestamp</text>
  </a>
  <a xmlns:xlink="http://www.w3.org/1999/xlink"
     xlink:href="../lower"
     xlink:title="lower">
    <rect x="179" y="553" width="54" height="32"/>
    <rect x="177" y="551" width="54" height="32" class="nonterminal"/>
    <text class="nonterminal" x="187" y="571">lower</text>
  </a>
  <a xmlns:xlink="http://www.w3.org/1999/xlink"
     xlink:href="../pico_instance_uuid"
     xlink:title="pico_instance_uuid">
    <rect x="179" y="597" width="142" height="32"/>
    <rect x="177" y="595" width="142" height="32" class="nonterminal"/>
    <text class="nonterminal" x="187" y="615">pico_instance_uuid</text>
  </a>
  <a xmlns:xlink="http://www.w3.org/1999/xlink"
     xlink:href="../substr"
     xlink:title="substr">
    <rect x="179" y="641" width="60" height="32"/>
    <rect x="177" y="639" width="60" height="32" class="nonterminal"/>
    <text class="nonterminal" x="187" y="659">substr</text>
  </a>
  <a xmlns:xlink="http://www.w3.org/1999/xlink"
     xlink:href="../substring"
     xlink:title="substring">
    <rect x="179" y="685" width="78" height="32"/>
    <rect x="177" y="683" width="78" height="32" class="nonterminal"/>
    <text class="nonterminal" x="187" y="703">substring</text>
  </a>
  <a xmlns:xlink="http://www.w3.org/1999/xlink"
     xlink:href="../to_char"
     xlink:title="to_char">
    <rect x="179" y="729" width="68" height="32"/>
    <rect x="177" y="727" width="68" height="32" class="nonterminal"/>
    <text class="nonterminal" x="187" y="747">to_char</text>
  </a>
  <a xmlns:xlink="http://www.w3.org/1999/xlink"
     xlink:href="../to_date"
     xlink:title="to_date">
    <rect x="179" y="773" width="70" height="32"/>
    <rect x="177" y="771" width="70" height="32" class="nonterminal"/>
    <text class="nonterminal" x="187" y="791">to_date</text>
  </a>
  <a xmlns:xlink="http://www.w3.org/1999/xlink"
     xlink:href="../trim"
     xlink:title="trim">
    <rect x="179" y="817" width="44" height="32"/>
    <rect x="177" y="815" width="44" height="32" class="nonterminal"/>
    <text class="nonterminal" x="187" y="835">trim</text>
  </a>
  <a xmlns:xlink="http://www.w3.org/1999/xlink"
     xlink:href="../upper"
     xlink:title="upper">
    <rect x="179" y="861" width="56" height="32"/>
    <rect x="177" y="859" width="56" height="32" class="nonterminal"/>
    <text class="nonterminal" x="187" y="879">upper</text>
  </a>
  <rect x="219" y="937" width="48" height="32" rx="10"/>
  <rect x="217"
        y="935"
        width="48"
        height="32"
        class="terminal"
        rx="10"/>
  <text class="terminal" x="227" y="955">NOT</text>
  <rect x="307" y="905" width="70" height="32" rx="10"/>
  <rect x="305"
        y="903"
        width="70"
        height="32"
        class="terminal"
        rx="10"/>
  <text class="terminal" x="315" y="923">EXISTS</text>
  <rect x="397" y="905" width="26" height="32" rx="10"/>
  <rect x="395"
        y="903"
        width="26"
        height="32"
        class="terminal"
        rx="10"/>
  <text class="terminal" x="405" y="923">(</text>
  <a xmlns:xlink="http://www.w3.org/1999/xlink"
     xlink:href="../dql"
     xlink:title="dql">
    <rect x="443" y="905" width="38" height="32"/>
    <rect x="441" y="903" width="38" height="32" class="nonterminal"/>
    <text class="nonterminal" x="451" y="923">dql</text>
  </a>
  <rect x="199" y="981" width="26" height="32" rx="10"/>
  <rect x="197"
        y="979"
        width="26"
        height="32"
        class="terminal"
        rx="10"/>
  <text class="terminal" x="207" y="999">(</text>
  <a xmlns:xlink="http://www.w3.org/1999/xlink"
     xlink:href="../dql"
     xlink:title="dql">
    <rect x="265" y="981" width="38" height="32"/>
    <rect x="263" y="979" width="38" height="32" class="nonterminal"/>
    <text class="nonterminal" x="273" y="999">dql</text>
  </a>
  <a xmlns:xlink="http://www.w3.org/1999/xlink"
     xlink:href="#expression"
     xlink:title="expression">
    <rect x="285" y="1069" width="90" height="32"/>
    <rect x="283" y="1067" width="90" height="32" class="nonterminal"/>
    <text class="nonterminal" x="293" y="1087">expression</text>
  </a>
  <rect x="285" y="1025" width="24" height="32" rx="10"/>
  <rect x="283"
        y="1023"
        width="24"
        height="32"
        class="terminal"
        rx="10"/>
  <text class="terminal" x="293" y="1043">,</text>
  <rect x="521" y="905" width="26" height="32" rx="10"/>
  <rect x="519"
        y="903"
        width="26"
        height="32"
        class="terminal"
        rx="10"/>
  <text class="terminal" x="529" y="923">)</text>
  <rect x="627" y="37" width="36" height="32" rx="10"/>
  <rect x="625"
        y="35"
        width="36"
        height="32"
        class="terminal"
        rx="10"/>
  <text class="terminal" x="635" y="55">IS</text>
  <rect x="703" y="69" width="48" height="32" rx="10"/>
  <rect x="701"
        y="67"
        width="48"
        height="32"
        class="terminal"
        rx="10"/>
  <text class="terminal" x="711" y="87">NOT</text>
  <rect x="811" y="37" width="56" height="32" rx="10"/>
  <rect x="809"
        y="35"
        width="56"
        height="32"
        class="terminal"
        rx="10"/>
  <text class="terminal" x="819" y="55">NULL</text>
  <rect x="811" y="81" width="56" height="32" rx="10"/>
  <rect x="809"
        y="79"
        width="56"
        height="32"
        class="terminal"
        rx="10"/>
  <text class="terminal" x="819" y="99">TRUE</text>
  <rect x="811" y="125" width="62" height="32" rx="10"/>
  <rect x="809"
        y="123"
        width="62"
        height="32"
        class="terminal"
        rx="10"/>
  <text class="terminal" x="819" y="143">FALSE</text>
  <rect x="811" y="169" width="94" height="32" rx="10"/>
  <rect x="809"
        y="167"
        width="94"
        height="32"
        class="terminal"
        rx="10"/>
  <text class="terminal" x="819" y="187">UNKNOWN</text>
  <a xmlns:xlink="http://www.w3.org/1999/xlink"
     xlink:href="#expression"
     xlink:title="expression">
    <rect x="51" y="1113" width="90" height="32"/>
    <rect x="49" y="1111" width="90" height="32" class="nonterminal"/>
    <text class="nonterminal" x="59" y="1131">expression</text>
  </a>
  <rect x="201" y="1145" width="48" height="32" rx="10"/>
  <rect x="199"
        y="1143"
        width="48"
        height="32"
        class="terminal"
        rx="10"/>
  <text class="terminal" x="209" y="1163">NOT</text>
  <rect x="309" y="1113" width="86" height="32" rx="10"/>
  <rect x="307"
        y="1111"
        width="86"
        height="32"
        class="terminal"
        rx="10"/>
  <text class="terminal" x="317" y="1131">BETWEEN</text>
  <a xmlns:xlink="http://www.w3.org/1999/xlink"
     xlink:href="#expression"
     xlink:title="expression">
    <rect x="415" y="1113" width="90" height="32"/>
    <rect x="413" y="1111" width="90" height="32" class="nonterminal"/>
    <text class="nonterminal" x="423" y="1131">expression</text>
  </a>
  <rect x="525" y="1113" width="48" height="32" rx="10"/>
  <rect x="523"
        y="1111"
        width="48"
        height="32"
        class="terminal"
        rx="10"/>
  <text class="terminal" x="533" y="1131">AND</text>
  <rect x="309" y="1157" width="36" height="32" rx="10"/>
  <rect x="307"
        y="1155"
        width="36"
        height="32"
        class="terminal"
        rx="10"/>
  <text class="terminal" x="317" y="1175">IN</text>
  <rect x="181" y="1201" width="30" height="32" rx="10"/>
  <rect x="179"
        y="1199"
        width="30"
        height="32"
        class="terminal"
        rx="10"/>
  <text class="terminal" x="189" y="1219">+</text>
  <rect x="181" y="1245" width="26" height="32" rx="10"/>
  <rect x="179"
        y="1243"
        width="26"
        height="32"
        class="terminal"
        rx="10"/>
  <text class="terminal" x="189" y="1263">-</text>
  <rect x="181" y="1289" width="28" height="32" rx="10"/>
  <rect x="179"
        y="1287"
        width="28"
        height="32"
        class="terminal"
        rx="10"/>
  <text class="terminal" x="189" y="1307">*</text>
  <rect x="181" y="1333" width="28" height="32" rx="10"/>
  <rect x="179"
        y="1331"
        width="28"
        height="32"
        class="terminal"
        rx="10"/>
  <text class="terminal" x="189" y="1351">/</text>
  <rect x="181" y="1377" width="34" height="32" rx="10"/>
  <rect x="179"
        y="1375"
        width="34"
        height="32"
        class="terminal"
        rx="10"/>
  <text class="terminal" x="189" y="1395">%</text>
  <rect x="181" y="1421" width="40" height="32" rx="10"/>
  <rect x="179"
        y="1419"
        width="40"
        height="32"
        class="terminal"
        rx="10"/>
  <text class="terminal" x="189" y="1439">&lt;&gt;</text>
  <rect x="181" y="1465" width="34" height="32" rx="10"/>
  <rect x="179"
        y="1463"
        width="34"
        height="32"
        class="terminal"
        rx="10"/>
  <text class="terminal" x="189" y="1483">!=</text>
  <rect x="181" y="1509" width="40" height="32" rx="10"/>
  <rect x="179"
        y="1507"
        width="40"
        height="32"
        class="terminal"
        rx="10"/>
  <text class="terminal" x="189" y="1527">&gt;=</text>
  <rect x="181" y="1553" width="30" height="32" rx="10"/>
  <rect x="179"
        y="1551"
        width="30"
        height="32"
        class="terminal"
        rx="10"/>
  <text class="terminal" x="189" y="1571">&gt;</text>
  <rect x="181" y="1597" width="40" height="32" rx="10"/>
  <rect x="179"
        y="1595"
        width="40"
        height="32"
        class="terminal"
        rx="10"/>
  <text class="terminal" x="189" y="1615">&lt;=</text>
  <rect x="181" y="1641" width="30" height="32" rx="10"/>
  <rect x="179"
        y="1639"
        width="30"
        height="32"
        class="terminal"
        rx="10"/>
  <text class="terminal" x="189" y="1659">&lt;</text>
  <rect x="181" y="1685" width="30" height="32" rx="10"/>
  <rect x="179"
        y="1683"
        width="30"
        height="32"
        class="terminal"
        rx="10"/>
  <text class="terminal" x="189" y="1703">=</text>
  <rect x="181" y="1729" width="32" height="32" rx="10"/>
  <rect x="179"
        y="1727"
        width="32"
        height="32"
        class="terminal"
        rx="10"/>
  <text class="terminal" x="189" y="1747">||</text>
  <rect x="181" y="1773" width="48" height="32" rx="10"/>
  <rect x="179"
        y="1771"
        width="48"
        height="32"
        class="terminal"
        rx="10"/>
  <text class="terminal" x="189" y="1791">AND</text>
  <rect x="181" y="1817" width="40" height="32" rx="10"/>
  <rect x="179"
        y="1815"
        width="40"
        height="32"
        class="terminal"
        rx="10"/>
  <text class="terminal" x="189" y="1835">OR</text>
  <a xmlns:xlink="http://www.w3.org/1999/xlink"
     xlink:href="#expression"
     xlink:title="expression">
    <rect x="633" y="1113" width="90" height="32"/>
    <rect x="631" y="1111" width="90" height="32" class="nonterminal"/>
    <text class="nonterminal" x="641" y="1131">expression</text>
  </a>
  <path class="line"
        d="m17 51 h2 m40 0 h10 m0 0 h58 m-88 0 l20 0 m-1 0 q-9 0 -9 -10 l0 -14 q0 -10 10 -10 m68 34 l20 0 m-20 0 q10 0 10 -10 l0 -14 q0 -10 -10 -10 m-68 0 h10 m48 0 h10 m60 34 h10 m0 0 h106 m-136 0 h20 m116 0 h20 m-156 0 q10 0 10 10 m136 0 q0 -10 10 -10 m-146 10 v12 m136 0 v-12 m-136 12 q0 10 10 10 m116 0 q10 0 10 -10 m-126 10 h10 m52 0 h10 m0 0 h10 m24 0 h10 m20 -32 h10 m64 0 h10 m0 0 h148 m-408 0 h20 m388 0 h20 m-428 0 q10 0 10 10 m408 0 q0 -10 10 -10 m-418 10 v56 m408 0 v-56 m-408 56 q0 10 10 10 m388 0 q10 0 10 -10 m-398 10 h10 m42 0 h10 m0 0 h326 m-398 -10 v20 m408 0 v-20 m-408 20 v24 m408 0 v-24 m-408 24 q0 10 10 10 m388 0 q10 0 10 -10 m-398 10 h10 m48 0 h10 m0 0 h320 m-398 -10 v20 m408 0 v-20 m-408 20 v24 m408 0 v-24 m-408 24 q0 10 10 10 m388 0 q10 0 10 -10 m-398 10 h10 m46 0 h10 m0 0 h322 m-398 -10 v20 m408 0 v-20 m-408 20 v24 m408 0 v-24 m-408 24 q0 10 10 10 m388 0 q10 0 10 -10 m-398 10 h10 m74 0 h10 m0 0 h294 m-398 -10 v20 m408 0 v-20 m-408 20 v24 m408 0 v-24 m-408 24 q0 10 10 10 m388 0 q10 0 10 -10 m-398 10 h10 m102 0 h10 m0 0 h266 m-398 -10 v20 m408 0 v-20 m-408 20 v24 m408 0 v-24 m-408 24 q0 10 10 10 m388 0 q10 0 10 -10 m-398 10 h10 m44 0 h10 m0 0 h324 m-398 -10 v20 m408 0 v-20 m-408 20 v24 m408 0 v-24 m-408 24 q0 10 10 10 m388 0 q10 0 10 -10 m-398 10 h10 m108 0 h10 m0 0 h260 m-398 -10 v20 m408 0 v-20 m-408 20 v24 m408 0 v-24 m-408 24 q0 10 10 10 m388 0 q10 0 10 -10 m-398 10 h10 m42 0 h10 m0 0 h326 m-398 -10 v20 m408 0 v-20 m-408 20 v24 m408 0 v-24 m-408 24 q0 10 10 10 m388 0 q10 0 10 -10 m-398 10 h10 m56 0 h10 m0 0 h312 m-398 -10 v20 m408 0 v-20 m-408 20 v24 m408 0 v-24 m-408 24 q0 10 10 10 m388 0 q10 0 10 -10 m-398 10 h10 m116 0 h10 m0 0 h252 m-398 -10 v20 m408 0 v-20 m-408 20 v24 m408 0 v-24 m-408 24 q0 10 10 10 m388 0 q10 0 10 -10 m-398 10 h10 m54 0 h10 m0 0 h314 m-398 -10 v20 m408 0 v-20 m-408 20 v24 m408 0 v-24 m-408 24 q0 10 10 10 m388 0 q10 0 10 -10 m-398 10 h10 m142 0 h10 m0 0 h226 m-398 -10 v20 m408 0 v-20 m-408 20 v24 m408 0 v-24 m-408 24 q0 10 10 10 m388 0 q10 0 10 -10 m-398 10 h10 m60 0 h10 m0 0 h308 m-398 -10 v20 m408 0 v-20 m-408 20 v24 m408 0 v-24 m-408 24 q0 10 10 10 m388 0 q10 0 10 -10 m-398 10 h10 m78 0 h10 m0 0 h290 m-398 -10 v20 m408 0 v-20 m-408 20 v24 m408 0 v-24 m-408 24 q0 10 10 10 m388 0 q10 0 10 -10 m-398 10 h10 m68 0 h10 m0 0 h300 m-398 -10 v20 m408 0 v-20 m-408 20 v24 m408 0 v-24 m-408 24 q0 10 10 10 m388 0 q10 0 10 -10 m-398 10 h10 m70 0 h10 m0 0 h298 m-398 -10 v20 m408 0 v-20 m-408 20 v24 m408 0 v-24 m-408 24 q0 10 10 10 m388 0 q10 0 10 -10 m-398 10 h10 m44 0 h10 m0 0 h324 m-398 -10 v20 m408 0 v-20 m-408 20 v24 m408 0 v-24 m-408 24 q0 10 10 10 m388 0 q10 0 10 -10 m-398 10 h10 m56 0 h10 m0 0 h312 m-398 -10 v20 m408 0 v-20 m-408 20 v24 m408 0 v-24 m-408 24 q0 10 10 10 m388 0 q10 0 10 -10 m-358 10 h10 m0 0 h58 m-88 0 h20 m68 0 h20 m-108 0 q10 0 10 10 m88 0 q0 -10 10 -10 m-98 10 v12 m88 0 v-12 m-88 12 q0 10 10 10 m68 0 q10 0 10 -10 m-78 10 h10 m48 0 h10 m20 -32 h10 m70 0 h10 m0 0 h10 m26 0 h10 m0 0 h10 m38 0 h10 m-322 0 h20 m302 0 h20 m-342 0 q10 0 10 10 m322 0 q0 -10 10 -10 m-332 10 v56 m322 0 v-56 m-322 56 q0 10 10 10 m302 0 q10 0 10 -10 m-312 10 h10 m26 0 h10 m20 0 h10 m38 0 h10 m0 0 h92 m-170 0 h20 m150 0 h20 m-190 0 q10 0 10 10 m170 0 q0 -10 10 -10 m-180 10 v68 m170 0 v-68 m-170 68 q0 10 10 10 m150 0 q10 0 10 -10 m-140 10 h10 m90 0 h10 m-130 0 l20 0 m-1 0 q-9 0 -9 -10 l0 -24 q0 -10 10 -10 m110 44 l20 0 m-20 0 q10 0 10 -10 l0 -24 q0 -10 -10 -10 m-110 0 h10 m24 0 h10 m0 0 h66 m40 -44 h66 m20 -76 h10 m26 0 h10 m60 -868 h10 m36 0 h10 m20 0 h10 m0 0 h58 m-88 0 h20 m68 0 h20 m-108 0 q10 0 10 10 m88 0 q0 -10 10 -10 m-98 10 v12 m88 0 v-12 m-88 12 q0 10 10 10 m68 0 q10 0 10 -10 m-78 10 h10 m48 0 h10 m40 -32 h10 m56 0 h10 m0 0 h38 m-134 0 h20 m114 0 h20 m-154 0 q10 0 10 10 m134 0 q0 -10 10 -10 m-144 10 v24 m134 0 v-24 m-134 24 q0 10 10 10 m114 0 q10 0 10 -10 m-124 10 h10 m56 0 h10 m0 0 h38 m-124 -10 v20 m134 0 v-20 m-134 20 v24 m134 0 v-24 m-134 24 q0 10 10 10 m114 0 q10 0 10 -10 m-124 10 h10 m62 0 h10 m0 0 h32 m-124 -10 v20 m134 0 v-20 m-134 20 v24 m134 0 v-24 m-134 24 q0 10 10 10 m114 0 q10 0 10 -10 m-124 10 h10 m94 0 h10 m-318 -132 l20 0 m-1 0 q-9 0 -9 -10 l0 -12 q0 -10 10 -10 m318 32 l20 0 m-20 0 q10 0 10 -10 l0 -12 q0 -10 -10 -10 m-318 0 h10 m0 0 h308 m-358 32 h20 m358 0 h20 m-398 0 q10 0 10 10 m378 0 q0 -10 10 -10 m-388 10 v146 m378 0 v-146 m-378 146 q0 10 10 10 m358 0 q10 0 10 -10 m-368 10 h10 m0 0 h348 m-934 -166 h20 m934 0 h20 m-974 0 q10 0 10 10 m954 0 q0 -10 10 -10 m-964 10 v1056 m954 0 v-1056 m-954 1056 q0 10 10 10 m934 0 q10 0 10 -10 m-944 10 h10 m90 0 h10 m40 0 h10 m0 0 h58 m-88 0 h20 m68 0 h20 m-108 0 q10 0 10 10 m88 0 q0 -10 10 -10 m-98 10 v12 m88 0 v-12 m-88 12 q0 10 10 10 m68 0 q10 0 10 -10 m-78 10 h10 m48 0 h10 m40 -32 h10 m86 0 h10 m0 0 h10 m90 0 h10 m0 0 h10 m48 0 h10 m-304 0 h20 m284 0 h20 m-324 0 q10 0 10 10 m304 0 q0 -10 10 -10 m-314 10 v24 m304 0 v-24 m-304 24 q0 10 10 10 m284 0 q10 0 10 -10 m-294 10 h10 m36 0 h10 m0 0 h228 m-432 -44 h20 m432 0 h20 m-472 0 q10 0 10 10 m452 0 q0 -10 10 -10 m-462 10 v68 m452 0 v-68 m-452 68 q0 10 10 10 m432 0 q10 0 10 -10 m-442 10 h10 m30 0 h10 m0 0 h382 m-442 -10 v20 m452 0 v-20 m-452 20 v24 m452 0 v-24 m-452 24 q0 10 10 10 m432 0 q10 0 10 -10 m-442 10 h10 m26 0 h10 m0 0 h386 m-442 -10 v20 m452 0 v-20 m-452 20 v24 m452 0 v-24 m-452 24 q0 10 10 10 m432 0 q10 0 10 -10 m-442 10 h10 m28 0 h10 m0 0 h384 m-442 -10 v20 m452 0 v-20 m-452 20 v24 m452 0 v-24 m-452 24 q0 10 10 10 m432 0 q10 0 10 -10 m-442 10 h10 m28 0 h10 m0 0 h384 m-442 -10 v20 m452 0 v-20 m-452 20 v24 m452 0 v-24 m-452 24 q0 10 10 10 m432 0 q10 0 10 -10 m-442 10 h10 m34 0 h10 m0 0 h378 m-442 -10 v20 m452 0 v-20 m-452 20 v24 m452 0 v-24 m-452 24 q0 10 10 10 m432 0 q10 0 10 -10 m-442 10 h10 m40 0 h10 m0 0 h372 m-442 -10 v20 m452 0 v-20 m-452 20 v24 m452 0 v-24 m-452 24 q0 10 10 10 m432 0 q10 0 10 -10 m-442 10 h10 m34 0 h10 m0 0 h378 m-442 -10 v20 m452 0 v-20 m-452 20 v24 m452 0 v-24 m-452 24 q0 10 10 10 m432 0 q10 0 10 -10 m-442 10 h10 m40 0 h10 m0 0 h372 m-442 -10 v20 m452 0 v-20 m-452 20 v24 m452 0 v-24 m-452 24 q0 10 10 10 m432 0 q10 0 10 -10 m-442 10 h10 m30 0 h10 m0 0 h382 m-442 -10 v20 m452 0 v-20 m-452 20 v24 m452 0 v-24 m-452 24 q0 10 10 10 m432 0 q10 0 10 -10 m-442 10 h10 m40 0 h10 m0 0 h372 m-442 -10 v20 m452 0 v-20 m-452 20 v24 m452 0 v-24 m-452 24 q0 10 10 10 m432 0 q10 0 10 -10 m-442 10 h10 m30 0 h10 m0 0 h382 m-442 -10 v20 m452 0 v-20 m-452 20 v24 m452 0 v-24 m-452 24 q0 10 10 10 m432 0 q10 0 10 -10 m-442 10 h10 m30 0 h10 m0 0 h382 m-442 -10 v20 m452 0 v-20 m-452 20 v24 m452 0 v-24 m-452 24 q0 10 10 10 m432 0 q10 0 10 -10 m-442 10 h10 m32 0 h10 m0 0 h380 m-442 -10 v20 m452 0 v-20 m-452 20 v24 m452 0 v-24 m-452 24 q0 10 10 10 m432 0 q10 0 10 -10 m-442 10 h10 m48 0 h10 m0 0 h364 m-442 -10 v20 m452 0 v-20 m-452 20 v24 m452 0 v-24 m-452 24 q0 10 10 10 m432 0 q10 0 10 -10 m-442 10 h10 m40 0 h10 m0 0 h372 m20 -704 h10 m90 0 h10 m0 0 h242 m23 -1076 h-3"/>
  <polygon points="1003 51 1011 47 1011 55"/>
  <polygon points="1003 51 995 47 995 55"/>
</svg>
