<?xml version="1.0" encoding="UTF-8" standalone="no"?>
<svg
   width="1033"
   height="785"
   viewBox="0 0 1033 785"
   version="1.1"
   id="svg90"
   sodipodi:docname="from.svg"
   inkscape:version="1.4.2 (ebf0e940d0, 2025-05-08)"
   xmlns:inkscape="http://www.inkscape.org/namespaces/inkscape"
   xmlns:sodipodi="http://sodipodi.sourceforge.net/DTD/sodipodi-0.dtd"
   xmlns:xlink="http://www.w3.org/1999/xlink"
   xmlns="http://www.w3.org/2000/svg"
   xmlns:svg="http://www.w3.org/2000/svg">
  <sodipodi:namedview
     id="namedview90"
     pagecolor="#ffffff"
     bordercolor="#666666"
     borderopacity="1.0"
     inkscape:showpageshadow="2"
     inkscape:pageopacity="0.0"
     inkscape:pagecheckerboard="0"
     inkscape:deskcolor="#d1d1d1"
     inkscape:zoom="0.85479187"
     inkscape:cx="516.5"
     inkscape:cy="-174.89638"
     inkscape:window-width="1858"
     inkscape:window-height="1014"
     inkscape:window-x="62"
     inkscape:window-y="29"
     inkscape:window-maximized="1"
     inkscape:current-layer="svg90" />
  <defs
     id="defs1">
    <style
       type="text/css"
       id="style1">@namespace &quot;http://www.w3.org/2000/svg&quot;;.line { fill: none; stroke: #330000; stroke-width: 1; }
.bold-line { stroke: #140000; shape-rendering: crispEdges; stroke-width: 2; }
.thin-line { stroke: #1F0000; shape-rendering: crispEdges }
.filled { fill: #330000; stroke: none; }
text.terminal { font-family: Verdana, Sans-serif;                            font-size: 12px;                            fill: #140000;                            font-weight: bold; }
text.nonterminal { font-family: Verdana, Sans-serif;                            font-size: 12px;                            fill: #1A0000;                            font-weight: normal; }
text.regexp { font-family: Verdana, Sans-serif;                            font-size: 12px;                            fill: #1F0000;                            font-weight: normal; }
rect, circle, polygon { fill: #330000; stroke: #330000; }
rect.terminal { fill: #FF4D4D; stroke: #330000; stroke-width: 1; }
rect.nonterminal { fill: #FF9E9E; stroke: #330000; stroke-width: 1; }
rect.text { fill: none; stroke: none; }
polygon.regexp { fill: #FFC7C7; stroke: #330000; stroke-width: 1; }
</style>
  </defs>
  <polygon
     points="9 33 1 29 1 37"
     id="polygon1" />
  <polygon
     points="17 33 9 29 9 37"
     id="polygon2" />
  <rect
     x="31"
     y="19"
     width="60"
     height="32"
     rx="10"
     id="rect2" />
  <rect
     x="29"
     y="17"
     width="60"
     height="32"
     class="terminal"
     rx="10"
     id="rect3" />
  <text
     class="terminal"
     x="39"
     y="37"
     id="text3">FROM</text>
  <a
     xlink:href="#scan"
     xlink:title="scan"
     id="a5">
    <rect
       x="111"
       y="19"
       width="48"
       height="32"
       id="rect4" />
    <rect
       x="109"
       y="17"
       width="48"
       height="32"
       class="nonterminal"
       id="rect5" />
    <text
       class="nonterminal"
       x="119"
       y="37"
       id="text5">scan</text>
  </a>
  <rect
     x="239"
     y="51"
     width="64"
     height="32"
     rx="10"
     id="rect6" />
  <rect
     x="237"
     y="49"
     width="64"
     height="32"
     class="terminal"
     rx="10"
     id="rect7" />
  <text
     class="terminal"
     x="247"
     y="69"
     id="text7">INNER</text>
  <rect
     x="239"
     y="95"
     width="52"
     height="32"
     rx="10"
     id="rect8" />
  <rect
     x="237"
     y="93"
     width="52"
     height="32"
     class="terminal"
     rx="10"
     id="rect9" />
  <text
     class="terminal"
     x="247"
     y="113"
     id="text9">LEFT</text>
  <rect
     x="331"
     y="127"
     width="66"
     height="32"
     rx="10"
     id="rect10" />
  <rect
     x="329"
     y="125"
     width="66"
     height="32"
     class="terminal"
     rx="10"
     id="rect11" />
  <text
     class="terminal"
     x="339"
     y="145"
     id="text11">OUTER</text>
  <rect
     x="457"
     y="19"
     width="54"
     height="32"
     rx="10"
     id="rect12" />
  <rect
     x="455"
     y="17"
     width="54"
     height="32"
     class="terminal"
     rx="10"
     id="rect13" />
  <text
     class="terminal"
     x="465"
     y="37"
     id="text13">JOIN</text>
  <a
     xlink:href="#scan"
     xlink:title="scan"
     id="a15">
    <rect
       x="531"
       y="19"
       width="48"
       height="32"
       id="rect14" />
    <rect
       x="529"
       y="17"
       width="48"
       height="32"
       class="nonterminal"
       id="rect15" />
    <text
       class="nonterminal"
       x="539"
       y="37"
       id="text15">scan</text>
  </a>
  <rect
     x="599"
     y="19"
     width="40"
     height="32"
     rx="10"
     id="rect16" />
  <rect
     x="597"
     y="17"
     width="40"
     height="32"
     class="terminal"
     rx="10"
     id="rect17" />
  <text
     class="terminal"
     x="607"
     y="37"
     id="text17">ON</text>
  <a
     xlink:href="#expression"
     xlink:title="expression"
     id="a19">
    <rect
       x="659"
       y="19"
       width="90"
       height="32"
       id="rect18" />
    <rect
       x="657"
       y="17"
       width="90"
       height="32"
       class="nonterminal"
       id="rect19" />
    <text
       class="nonterminal"
       x="667"
       y="37"
       id="text19">expression</text>
  </a>
  <rect
     x="138"
     y="285"
     width="70"
     height="32"
     rx="10"
     id="rect20" />
  <rect
     x="136"
     y="283"
     width="70"
     height="32"
     class="terminal"
     rx="10"
     id="rect21" />
  <text
     class="terminal"
     x="146"
     y="303"
     id="text21">WHERE</text>
  <a
     xlink:href="#expression"
     xlink:title="expression"
     id="a23">
    <rect
       x="228"
       y="285"
       width="90"
       height="32"
       id="rect22" />
    <rect
       x="226"
       y="283"
       width="90"
       height="32"
       class="nonterminal"
       id="rect23" />
    <text
       class="nonterminal"
       x="236"
       y="303"
       id="text23">expression</text>
  </a>
  <rect
     x="378"
     y="253"
     width="68"
     height="32"
     rx="10"
     id="rect24" />
  <rect
     x="376"
     y="251"
     width="68"
     height="32"
     class="terminal"
     rx="10"
     id="rect25" />
  <text
     class="terminal"
     x="386"
     y="271"
     id="text25">GROUP</text>
  <rect
     x="466"
     y="253"
     width="38"
     height="32"
     rx="10"
     id="rect26" />
  <rect
     x="464"
     y="251"
     width="38"
     height="32"
     class="terminal"
     rx="10"
     id="rect27" />
  <text
     class="terminal"
     x="474"
     y="271"
     id="text27">BY</text>
  <a
     xlink:href="#expression"
     xlink:title="expression"
     id="a29">
    <rect
       x="544"
       y="253"
       width="90"
       height="32"
       id="rect28" />
    <rect
       x="542"
       y="251"
       width="90"
       height="32"
       class="nonterminal"
       id="rect29" />
    <text
       class="nonterminal"
       x="552"
       y="271"
       id="text29">expression</text>
  </a>
  <rect
     x="544"
     y="209"
     width="24"
     height="32"
     rx="10"
     id="rect30" />
  <rect
     x="542"
     y="207"
     width="24"
     height="32"
     class="terminal"
     rx="10"
     id="rect31" />
  <text
     class="terminal"
     x="552"
     y="227"
     id="text31">,</text>
  <rect
     x="714"
     y="285"
     width="74"
     height="32"
     rx="10"
     id="rect32" />
  <rect
     x="712"
     y="283"
     width="74"
     height="32"
     class="terminal"
     rx="10"
     id="rect33" />
  <text
     class="terminal"
     x="722"
     y="303"
     id="text33">HAVING</text>
  <a
     xlink:href="#expression"
     xlink:title="expression"
     id="a35">
    <rect
       x="808"
       y="285"
       width="90"
       height="32"
       id="rect34" />
    <rect
       x="806"
       y="283"
       width="90"
       height="32"
       class="nonterminal"
       id="rect35" />
    <text
       class="nonterminal"
       x="816"
       y="303"
       id="text35">expression</text>
  </a>
  <rect
     x="315"
     y="367"
     width="86"
     height="32"
     rx="10"
     id="rect36" />
  <rect
     x="313"
     y="365"
     width="86"
     height="32"
     class="terminal"
     rx="10"
     id="rect37" />
  <text
     class="terminal"
     x="323"
     y="385"
     id="text37">WINDOW</text>
  <a
     xlink:href="../object"
     xlink:title="name"
     id="a39">
    <rect
       x="421"
       y="367"
       width="56"
       height="32"
       id="rect38" />
    <rect
       x="419"
       y="365"
       width="56"
       height="32"
       class="nonterminal"
       id="rect39" />
    <text
       class="nonterminal"
       x="429"
       y="385"
       id="text39">name</text>
  </a>
  <rect
     x="497"
     y="367"
     width="38"
     height="32"
     rx="10"
     id="rect40" />
  <rect
     x="495"
     y="365"
     width="38"
     height="32"
     class="terminal"
     rx="10"
     id="rect41" />
  <text
     class="terminal"
     x="505"
     y="385"
     id="text41">AS</text>
  <rect
     x="555"
     y="367"
     width="26"
     height="32"
     rx="10"
     id="rect42" />
  <rect
     x="553"
     y="365"
     width="26"
     height="32"
     class="terminal"
     rx="10"
     id="rect43" />
  <text
     class="terminal"
     x="563"
     y="385"
     id="text43">(</text>
  <a
     xlink:href="../window#partition"
     xlink:title="partition"
     id="a45">
    <rect
       x="601"
       y="367"
       width="74"
       height="32"
       id="rect44" />
    <rect
       x="599"
       y="365"
       width="74"
       height="32"
       class="nonterminal"
       id="rect45" />
    <text
       class="nonterminal"
       x="609"
       y="385"
       id="text45">partition</text>
  </a>
  <rect
     x="695"
     y="367"
     width="26"
     height="32"
     rx="10"
     id="rect46" />
  <rect
     x="693"
     y="365"
     width="26"
     height="32"
     class="terminal"
     rx="10"
     id="rect47" />
  <text
     class="terminal"
     x="703"
     y="385"
     id="text47">)</text>
  <rect
     x="45"
     y="449"
     width="68"
     height="32"
     rx="10"
     id="rect48" />
  <rect
     x="43"
     y="447"
     width="68"
     height="32"
     class="terminal"
     rx="10"
     id="rect49" />
  <text
     class="terminal"
     x="53"
     y="467"
     id="text49">ORDER</text>
  <rect
     x="133"
     y="449"
     width="38"
     height="32"
     rx="10"
     id="rect50" />
  <rect
     x="131"
     y="447"
     width="38"
     height="32"
     class="terminal"
     rx="10"
     id="rect51" />
  <text
     class="terminal"
     x="141"
     y="467"
     id="text51">BY</text>
  <a
     xlink:href="#expression"
     xlink:title="expression"
     id="a53">
    <rect
       x="191"
       y="449"
       width="90"
       height="32"
       id="rect52" />
    <rect
       x="189"
       y="447"
       width="90"
       height="32"
       class="nonterminal"
       id="rect53" />
    <text
       class="nonterminal"
       x="199"
       y="467"
       id="text53">expression</text>
  </a>
  <rect
     x="321"
     y="481"
     width="46"
     height="32"
     rx="10"
     id="rect54" />
  <rect
     x="319"
     y="479"
     width="46"
     height="32"
     class="terminal"
     rx="10"
     id="rect55" />
  <text
     class="terminal"
     x="329"
     y="499"
     id="text55">ASC</text>
  <rect
     x="321"
     y="525"
     width="56"
     height="32"
     rx="10"
     id="rect56" />
  <rect
     x="319"
     y="523"
     width="56"
     height="32"
     class="terminal"
     rx="10"
     id="rect57" />
  <text
     class="terminal"
     x="329"
     y="543"
     id="text57">DESC</text>
  <rect
     x="457"
     y="449"
     width="24"
     height="32"
     rx="10"
     id="rect58" />
  <rect
     x="455"
     y="447"
     width="24"
     height="32"
     class="terminal"
     rx="10"
     id="rect59" />
  <text
     class="terminal"
     x="465"
     y="467"
     id="text59">,</text>
  <a
     xlink:href="#expression"
     xlink:title="expression"
     id="a61">
    <rect
       x="501"
       y="449"
       width="90"
       height="32"
       id="rect60" />
    <rect
       x="499"
       y="447"
       width="90"
       height="32"
       class="nonterminal"
       id="rect61" />
    <text
       class="nonterminal"
       x="509"
       y="467"
       id="text61">expression</text>
  </a>
  <rect
     x="631"
     y="481"
     width="46"
     height="32"
     rx="10"
     id="rect62" />
  <rect
     x="629"
     y="479"
     width="46"
     height="32"
     class="terminal"
     rx="10"
     id="rect63" />
  <text
     class="terminal"
     x="639"
     y="499"
     id="text63">ASC</text>
  <rect
     x="631"
     y="525"
     width="56"
     height="32"
     rx="10"
     id="rect64" />
  <rect
     x="629"
     y="523"
     width="56"
     height="32"
     class="terminal"
     rx="10"
     id="rect65" />
  <text
     class="terminal"
     x="639"
     y="543"
     id="text65">DESC</text>
  <rect
     x="747"
     y="481"
     width="64"
     height="32"
     rx="10"
     id="rect66" />
  <rect
     x="745"
     y="479"
     width="64"
     height="32"
     class="terminal"
     rx="10"
     id="rect67" />
  <text
     class="terminal"
     x="755"
     y="499"
     id="text67">NULLS</text>
  <rect
     x="851"
     y="481"
     width="60"
     height="32"
     rx="10"
     id="rect68" />
  <rect
     x="849"
     y="479"
     width="60"
     height="32"
     class="terminal"
     rx="10"
     id="rect69" />
  <text
     class="terminal"
     x="859"
     y="499"
     id="text69">FIRST</text>
  <rect
     x="851"
     y="525"
     width="54"
     height="32"
     rx="10"
     id="rect70" />
  <rect
     x="849"
     y="523"
     width="54"
     height="32"
     class="terminal"
     rx="10"
     id="rect71" />
  <text
     class="terminal"
     x="859"
     y="543"
     id="text71">LAST</text>
  <rect
     x="411"
     y="643"
     width="66"
     height="32"
     rx="10"
     id="rect72" />
  <rect
     x="409"
     y="641"
     width="66"
     height="32"
     class="terminal"
     rx="10"
     id="rect73" />
  <text
     class="terminal"
     x="419"
     y="661"
     id="text73">UNION</text>
  <rect
     x="517"
     y="675"
     width="44"
     height="32"
     rx="10"
     id="rect74" />
  <rect
     x="515"
     y="673"
     width="44"
     height="32"
     class="terminal"
     rx="10"
     id="rect75" />
  <text
     class="terminal"
     x="525"
     y="693"
     id="text75">ALL</text>
  <rect
     x="411"
     y="719"
     width="72"
     height="32"
     rx="10"
     id="rect76" />
  <rect
     x="409"
     y="717"
     width="72"
     height="32"
     class="terminal"
     rx="10"
     id="rect77" />
  <text
     class="terminal"
     x="419"
     y="737"
     id="text77">EXCEPT</text>
  <rect
     x="523"
     y="751"
     width="86"
     height="32"
     rx="10"
     id="rect78" />
  <rect
     x="521"
     y="749"
     width="86"
     height="32"
     class="terminal"
     rx="10"
     id="rect79" />
  <text
     class="terminal"
     x="531"
     y="769"
     id="text79">DISTINCT</text>
  <a
     xlink:href="../select"
     xlink:title="select"
     id="a81">
    <rect
       x="669"
       y="643"
       width="58"
       height="32"
       id="rect80" />
    <rect
       x="667"
       y="641"
       width="58"
       height="32"
       class="nonterminal"
       id="rect81" />
    <text
       class="nonterminal"
       x="677"
       y="661"
       id="text81">select</text>
  </a>
  <rect
     x="787"
     y="643"
     width="60"
     height="32"
     rx="10"
     id="rect82" />
  <rect
     x="785"
     y="641"
     width="60"
     height="32"
     class="terminal"
     rx="10"
     id="rect83" />
  <text
     class="terminal"
     x="795"
     y="661"
     id="text83">LIMIT</text>
  <a
     xlink:href="../../sql_types#unsigned"
     xlink:title="unsigned"
     id="a85">
    <rect
       x="887"
       y="643"
       width="78"
       height="32"
       id="rect84" />
    <rect
       x="885"
       y="641"
       width="78"
       height="32"
       class="nonterminal"
       id="rect85" />
    <text
       class="nonterminal"
       x="895"
       y="661"
       id="text85">unsigned</text>
  </a>
  <rect
     x="887"
     y="687"
     width="44"
     height="32"
     rx="10"
     id="rect86" />
  <rect
     x="885"
     y="685"
     width="44"
     height="32"
     class="terminal"
     rx="10"
     id="rect87" />
  <text
     class="terminal"
     x="895"
     y="705"
     id="text87">ALL</text>
  <rect
     x="887"
     y="731"
     width="56"
     height="32"
     rx="10"
     id="rect88" />
  <rect
     x="885"
     y="729"
     width="56"
     height="32"
     class="terminal"
     rx="10"
     id="rect89" />
  <text
     class="terminal"
     x="895"
     y="749"
     id="text89">NULL</text>
  <path
     class="line"
     d="m17 33 h2 m0 0 h10 m60 0 h10 m0 0 h10 m48 0 h10 m60 0 h10 m0 0 h188 m-218 0 h20 m198 0 h20 m-238 0 q10 0 10 10 m218 0 q0 -10 10 -10 m-228 10 v12 m218 0 v-12 m-218 12 q0 10 10 10 m198 0 q10 0 10 -10 m-208 10 h10 m64 0 h10 m0 0 h114 m-208 -10 v20 m218 0 v-20 m-218 20 v24 m218 0 v-24 m-218 24 q0 10 10 10 m198 0 q10 0 10 -10 m-208 10 h10 m52 0 h10 m20 0 h10 m0 0 h76 m-106 0 h20 m86 0 h20 m-126 0 q10 0 10 10 m106 0 q0 -10 10 -10 m-116 10 v12 m106 0 v-12 m-106 12 q0 10 10 10 m86 0 q10 0 10 -10 m-96 10 h10 m66 0 h10 m40 -108 h10 m54 0 h10 m0 0 h10 m48 0 h10 m0 0 h10 m40 0 h10 m0 0 h10 m90 0 h10 m-570 0 l20 0 m-1 0 q-9 0 -9 -10 l0 -12 q0 -10 10 -10 m550 32 l20 0 m-20 0 q10 0 10 -10 l0 -12 q0 -10 -10 -10 m-550 0 h10 m0 0 h540 m-590 32 h20 m590 0 h20 m-630 0 q10 0 10 10 m610 0 q0 -10 10 -10 m-620 10 v122 m610 0 v-122 m-610 122 q0 10 10 10 m590 0 q10 0 10 -10 m-600 10 h10 m0 0 h580 m22 -142 l2 0 m2 0 l2 0 m2 0 l2 0 m-715 234 l2 0 m2 0 l2 0 m2 0 l2 0 m22 0 h10 m0 0 h190 m-220 0 h20 m200 0 h20 m-240 0 q10 0 10 10 m220 0 q0 -10 10 -10 m-230 10 v12 m220 0 v-12 m-220 12 q0 10 10 10 m200 0 q10 0 10 -10 m-210 10 h10 m70 0 h10 m0 0 h10 m90 0 h10 m40 -32 h10 m68 0 h10 m0 0 h10 m38 0 h10 m20 0 h10 m90 0 h10 m-130 0 l20 0 m-1 0 q-9 0 -9 -10 l0 -24 q0 -10 10 -10 m110 44 l20 0 m-20 0 q10 0 10 -10 l0 -24 q0 -10 -10 -10 m-110 0 h10 m24 0 h10 m0 0 h66 m-296 44 h20 m296 0 h20 m-336 0 q10 0 10 10 m316 0 q0 -10 10 -10 m-326 10 v14 m316 0 v-14 m-316 14 q0 10 10 10 m296 0 q10 0 10 -10 m-306 10 h10 m0 0 h286 m40 -34 h10 m0 0 h194 m-224 0 h20 m204 0 h20 m-244 0 q10 0 10 10 m224 0 q0 -10 10 -10 m-234 10 v12 m224 0 v-12 m-224 12 q0 10 10 10 m204 0 q10 0 10 -10 m-214 10 h10 m74 0 h10 m0 0 h10 m90 0 h10 m22 -32 l2 0 m2 0 l2 0 m2 0 l2 0 m-667 82 l2 0 m2 0 l2 0 m2 0 l2 0 m22 0 h10 m0 0 h416 m-446 0 h20 m426 0 h20 m-466 0 q10 0 10 10 m446 0 q0 -10 10 -10 m-456 10 v12 m446 0 v-12 m-446 12 q0 10 10 10 m426 0 q10 0 10 -10 m-436 10 h10 m86 0 h10 m0 0 h10 m56 0 h10 m0 0 h10 m38 0 h10 m0 0 h10 m26 0 h10 m0 0 h10 m74 0 h10 m0 0 h10 m26 0 h10 m22 -32 l2 0 m2 0 l2 0 m2 0 l2 0 m-760 114 l2 0 m2 0 l2 0 m2 0 l2 0 m22 0 h10 m68 0 h10 m0 0 h10 m38 0 h10 m0 0 h10 m90 0 h10 m20 0 h10 m0 0 h66 m-96 0 h20 m76 0 h20 m-116 0 q10 0 10 10 m96 0 q0 -10 10 -10 m-106 10 v12 m96 0 v-12 m-96 12 q0 10 10 10 m76 0 q10 0 10 -10 m-86 10 h10 m46 0 h10 m0 0 h10 m-86 -10 v20 m96 0 v-20 m-96 20 v24 m96 0 v-24 m-96 24 q0 10 10 10 m76 0 q10 0 10 -10 m-86 10 h10 m56 0 h10 m60 -76 h10 m24 0 h10 m0 0 h10 m90 0 h10 m20 0 h10 m0 0 h66 m-96 0 h20 m76 0 h20 m-116 0 q10 0 10 10 m96 0 q0 -10 10 -10 m-106 10 v12 m96 0 v-12 m-96 12 q0 10 10 10 m76 0 q10 0 10 -10 m-86 10 h10 m46 0 h10 m0 0 h10 m-86 -10 v20 m96 0 v-20 m-96 20 v24 m96 0 v-24 m-96 24 q0 10 10 10 m76 0 q10 0 10 -10 m-86 10 h10 m56 0 h10 m40 -76 h10 m0 0 h194 m-224 0 h20 m204 0 h20 m-244 0 q10 0 10 10 m224 0 q0 -10 10 -10 m-234 10 v12 m224 0 v-12 m-224 12 q0 10 10 10 m204 0 q10 0 10 -10 m-214 10 h10 m64 0 h10 m20 0 h10 m60 0 h10 m-100 0 h20 m80 0 h20 m-120 0 q10 0 10 10 m100 0 q0 -10 10 -10 m-110 10 v24 m100 0 v-24 m-100 24 q0 10 10 10 m80 0 q10 0 10 -10 m-90 10 h10 m54 0 h10 m0 0 h6 m-494 -76 l20 0 m-1 0 q-9 0 -9 -10 l0 -12 q0 -10 10 -10 m514 32 l20 0 m-20 0 q10 0 10 -10 l0 -12 q0 -10 -10 -10 m-514 0 h10 m0 0 h504 m-554 32 h20 m554 0 h20 m-594 0 q10 0 10 10 m574 0 q0 -10 10 -10 m-584 10 v90 m574 0 v-90 m-574 90 q0 10 10 10 m554 0 q10 0 10 -10 m-564 10 h10 m0 0 h544 m-966 -110 h20 m966 0 h20 m-1006 0 q10 0 10 10 m986 0 q0 -10 10 -10 m-996 10 v106 m986 0 v-106 m-986 106 q0 10 10 10 m966 0 q10 0 10 -10 m-976 10 h10 m0 0 h956 m22 -126 l2 0 m2 0 l2 0 m2 0 l2 0 m-684 162 l2 0 m2 0 l2 0 m2 0 l2 0 m22 0 h10 m0 0 h346 m-376 0 h20 m356 0 h20 m-396 0 q10 0 10 10 m376 0 q0 -10 10 -10 m-386 10 v12 m376 0 v-12 m-376 12 q0 10 10 10 m356 0 q10 0 10 -10 m-346 10 h10 m66 0 h10 m20 0 h10 m0 0 h54 m-84 0 h20 m64 0 h20 m-104 0 q10 0 10 10 m84 0 q0 -10 10 -10 m-94 10 v12 m84 0 v-12 m-84 12 q0 10 10 10 m64 0 q10 0 10 -10 m-74 10 h10 m44 0 h10 m20 -32 h48 m-258 0 h20 m238 0 h20 m-278 0 q10 0 10 10 m258 0 q0 -10 10 -10 m-268 10 v56 m258 0 v-56 m-258 56 q0 10 10 10 m238 0 q10 0 10 -10 m-248 10 h10 m72 0 h10 m20 0 h10 m0 0 h96 m-126 0 h20 m106 0 h20 m-146 0 q10 0 10 10 m126 0 q0 -10 10 -10 m-136 10 v12 m126 0 v-12 m-126 12 q0 10 10 10 m106 0 q10 0 10 -10 m-116 10 h10 m86 0 h10 m40 -108 h10 m58 0 h10 m40 -32 h10 m0 0 h208 m-238 0 h20 m218 0 h20 m-258 0 q10 0 10 10 m238 0 q0 -10 10 -10 m-248 10 v12 m238 0 v-12 m-238 12 q0 10 10 10 m218 0 q10 0 10 -10 m-228 10 h10 m60 0 h10 m20 0 h10 m78 0 h10 m-118 0 h20 m98 0 h20 m-138 0 q10 0 10 10 m118 0 q0 -10 10 -10 m-128 10 v24 m118 0 v-24 m-118 24 q0 10 10 10 m98 0 q10 0 10 -10 m-108 10 h10 m44 0 h10 m0 0 h34 m-108 -10 v20 m118 0 v-20 m-118 20 v24 m118 0 v-24 m-118 24 q0 10 10 10 m98 0 q10 0 10 -10 m-108 10 h10 m56 0 h10 m0 0 h22 m43 -120 h-3"
     id="path89" />
  <polygon
     points="1023 625 1031 621 1031 629"
     id="polygon89" />
  <polygon
     points="1023 625 1015 621 1015 629"
     id="polygon90" />
</svg>
