<?xml version="1.0" encoding="UTF-8"?>
<svg xmlns="http://www.w3.org/2000/svg" width="945" height="715" viewBox="0 0 945 715">
   <defs>
      <style type="text/css">
    @namespace "http://www.w3.org/2000/svg";
    .line                 {fill: none; stroke: #330000; stroke-width: 1;}
    .bold-line            {stroke: #140000; shape-rendering: crispEdges; stroke-width: 2;}
    .thin-line            {stroke: #1F0000; shape-rendering: crispEdges}
    .filled               {fill: #330000; stroke: none;}
    text.terminal         {font-family: Verdana, Sans-serif;
                            font-size: 12px;
                            fill: #140000;
                            font-weight: bold;
                          }
    text.nonterminal      {font-family: Verdana, Sans-serif;
                            font-size: 12px;
                            fill: #1A0000;
                            font-weight: normal;
                          }
    text.regexp           {font-family: Verdana, Sans-serif;
                            font-size: 12px;
                            fill: #1F0000;
                            font-weight: normal;
                          }
    rect, circle, polygon {fill: #330000; stroke: #330000;}
    rect.terminal         {fill: #FF4D4D; stroke: #330000; stroke-width: 1;}
    rect.nonterminal      {fill: #FF9E9E; stroke: #330000; stroke-width: 1;}
    rect.text             {fill: none; stroke: none;}
    polygon.regexp        {fill: #FFC7C7; stroke: #330000; stroke-width: 1;}
  </style>
      <style class="darkreader darkreader--sync" media="screen"/>
   </defs>
   <polygon points="9 33 1 29 1 37"/>
   <polygon points="17 33 9 29 9 37"/>
   <rect x="31" y="19" width="60" height="32" rx="10"/>
   <rect x="29"
         y="17"
         width="60"
         height="32"
         class="terminal"
         rx="10"/>
   <text class="terminal" x="39" y="37">FROM</text>
   <a xmlns:xlink="http://www.w3.org/1999/xlink"
      xlink:href="#scan"
      xlink:title="scan">
      <rect x="111" y="19" width="48" height="32"/>
      <rect x="109" y="17" width="48" height="32" class="nonterminal"/>
      <text class="nonterminal" x="119" y="37">scan</text>
   </a>
   <rect x="239" y="51" width="64" height="32" rx="10"/>
   <rect x="237"
         y="49"
         width="64"
         height="32"
         class="terminal"
         rx="10"/>
   <text class="terminal" x="247" y="69">INNER</text>
   <rect x="239" y="95" width="52" height="32" rx="10"/>
   <rect x="237"
         y="93"
         width="52"
         height="32"
         class="terminal"
         rx="10"/>
   <text class="terminal" x="247" y="113">LEFT</text>
   <rect x="331" y="127" width="66" height="32" rx="10"/>
   <rect x="329"
         y="125"
         width="66"
         height="32"
         class="terminal"
         rx="10"/>
   <text class="terminal" x="339" y="145">OUTER</text>
   <rect x="457" y="19" width="54" height="32" rx="10"/>
   <rect x="455"
         y="17"
         width="54"
         height="32"
         class="terminal"
         rx="10"/>
   <text class="terminal" x="465" y="37">JOIN</text>
   <a xmlns:xlink="http://www.w3.org/1999/xlink"
      xlink:href="#scan"
      xlink:title="scan">
      <rect x="531" y="19" width="48" height="32"/>
      <rect x="529" y="17" width="48" height="32" class="nonterminal"/>
      <text class="nonterminal" x="539" y="37">scan</text>
   </a>
   <rect x="599" y="19" width="40" height="32" rx="10"/>
   <rect x="597"
         y="17"
         width="40"
         height="32"
         class="terminal"
         rx="10"/>
   <text class="terminal" x="607" y="37">ON</text>
   <a xmlns:xlink="http://www.w3.org/1999/xlink"
      xlink:href="#expression"
      xlink:title="expression">
      <rect x="659" y="19" width="90" height="32"/>
      <rect x="657" y="17" width="90" height="32" class="nonterminal"/>
      <text class="nonterminal" x="667" y="37">expression</text>
   </a>
   <rect x="94" y="285" width="70" height="32" rx="10"/>
   <rect x="92"
         y="283"
         width="70"
         height="32"
         class="terminal"
         rx="10"/>
   <text class="terminal" x="102" y="303">WHERE</text>
   <a xmlns:xlink="http://www.w3.org/1999/xlink"
      xlink:href="#expression"
      xlink:title="expression">
      <rect x="184" y="285" width="90" height="32"/>
      <rect x="182" y="283" width="90" height="32" class="nonterminal"/>
      <text class="nonterminal" x="192" y="303">expression</text>
   </a>
   <rect x="334" y="253" width="68" height="32" rx="10"/>
   <rect x="332"
         y="251"
         width="68"
         height="32"
         class="terminal"
         rx="10"/>
   <text class="terminal" x="342" y="271">GROUP</text>
   <rect x="422" y="253" width="38" height="32" rx="10"/>
   <rect x="420"
         y="251"
         width="38"
         height="32"
         class="terminal"
         rx="10"/>
   <text class="terminal" x="430" y="271">BY</text>
   <a xmlns:xlink="http://www.w3.org/1999/xlink"
      xlink:href="#expression"
      xlink:title="expression">
      <rect x="500" y="253" width="90" height="32"/>
      <rect x="498" y="251" width="90" height="32" class="nonterminal"/>
      <text class="nonterminal" x="508" y="271">expression</text>
   </a>
   <rect x="500" y="209" width="24" height="32" rx="10"/>
   <rect x="498"
         y="207"
         width="24"
         height="32"
         class="terminal"
         rx="10"/>
   <text class="terminal" x="508" y="227">,</text>
   <rect x="670" y="285" width="74" height="32" rx="10"/>
   <rect x="668"
         y="283"
         width="74"
         height="32"
         class="terminal"
         rx="10"/>
   <text class="terminal" x="678" y="303">HAVING</text>
   <a xmlns:xlink="http://www.w3.org/1999/xlink"
      xlink:href="#expression"
      xlink:title="expression">
      <rect x="764" y="285" width="90" height="32"/>
      <rect x="762" y="283" width="90" height="32" class="nonterminal"/>
      <text class="nonterminal" x="772" y="303">expression</text>
   </a>
   <rect x="45" y="427" width="86" height="32" rx="10"/>
   <rect x="43"
         y="425"
         width="86"
         height="32"
         class="terminal"
         rx="10"/>
   <text class="terminal" x="53" y="445">WINDOW</text>
   <a xmlns:xlink="http://www.w3.org/1999/xlink"
      xlink:href="../object"
      xlink:title="name">
      <rect x="151" y="427" width="56" height="32"/>
      <rect x="149" y="425" width="56" height="32" class="nonterminal"/>
      <text class="nonterminal" x="159" y="445">name</text>
   </a>
   <rect x="227" y="427" width="38" height="32" rx="10"/>
   <rect x="225"
         y="425"
         width="38"
         height="32"
         class="terminal"
         rx="10"/>
   <text class="terminal" x="235" y="445">AS</text>
   <rect x="285" y="427" width="26" height="32" rx="10"/>
   <rect x="283"
         y="425"
         width="26"
         height="32"
         class="terminal"
         rx="10"/>
   <text class="terminal" x="293" y="445">(</text>
   <a xmlns:xlink="http://www.w3.org/1999/xlink"
      xlink:href="../window#partition"
      xlink:title="partition">
      <rect x="331" y="427" width="74" height="32"/>
      <rect x="329" y="425" width="74" height="32" class="nonterminal"/>
      <text class="nonterminal" x="339" y="445">partition</text>
   </a>
   <rect x="425" y="427" width="26" height="32" rx="10"/>
   <rect x="423"
         y="425"
         width="26"
         height="32"
         class="terminal"
         rx="10"/>
   <text class="terminal" x="433" y="445">)</text>
   <rect x="511" y="395" width="68" height="32" rx="10"/>
   <rect x="509"
         y="393"
         width="68"
         height="32"
         class="terminal"
         rx="10"/>
   <text class="terminal" x="519" y="413">ORDER</text>
   <rect x="599" y="395" width="38" height="32" rx="10"/>
   <rect x="597"
         y="393"
         width="38"
         height="32"
         class="terminal"
         rx="10"/>
   <text class="terminal" x="607" y="413">BY</text>
   <a xmlns:xlink="http://www.w3.org/1999/xlink"
      xlink:href="#expression"
      xlink:title="expression">
      <rect x="677" y="395" width="90" height="32"/>
      <rect x="675" y="393" width="90" height="32" class="nonterminal"/>
      <text class="nonterminal" x="685" y="413">expression</text>
   </a>
   <rect x="807" y="427" width="46" height="32" rx="10"/>
   <rect x="805"
         y="425"
         width="46"
         height="32"
         class="terminal"
         rx="10"/>
   <text class="terminal" x="815" y="445">ASC</text>
   <rect x="807" y="471" width="56" height="32" rx="10"/>
   <rect x="805"
         y="469"
         width="56"
         height="32"
         class="terminal"
         rx="10"/>
   <text class="terminal" x="815" y="489">DESC</text>
   <rect x="677" y="351" width="24" height="32" rx="10"/>
   <rect x="675"
         y="349"
         width="24"
         height="32"
         class="terminal"
         rx="10"/>
   <text class="terminal" x="685" y="369">,</text>
   <rect x="323" y="573" width="66" height="32" rx="10"/>
   <rect x="321"
         y="571"
         width="66"
         height="32"
         class="terminal"
         rx="10"/>
   <text class="terminal" x="331" y="591">UNION</text>
   <rect x="429" y="605" width="44" height="32" rx="10"/>
   <rect x="427"
         y="603"
         width="44"
         height="32"
         class="terminal"
         rx="10"/>
   <text class="terminal" x="437" y="623">ALL</text>
   <rect x="323" y="649" width="72" height="32" rx="10"/>
   <rect x="321"
         y="647"
         width="72"
         height="32"
         class="terminal"
         rx="10"/>
   <text class="terminal" x="331" y="667">EXCEPT</text>
   <rect x="435" y="681" width="86" height="32" rx="10"/>
   <rect x="433"
         y="679"
         width="86"
         height="32"
         class="terminal"
         rx="10"/>
   <text class="terminal" x="443" y="699">DISTINCT</text>
   <a xmlns:xlink="http://www.w3.org/1999/xlink"
      xlink:href="../select"
      xlink:title="select">
      <rect x="581" y="573" width="58" height="32"/>
      <rect x="579" y="571" width="58" height="32" class="nonterminal"/>
      <text class="nonterminal" x="589" y="591">select</text>
   </a>
   <rect x="699" y="573" width="60" height="32" rx="10"/>
   <rect x="697"
         y="571"
         width="60"
         height="32"
         class="terminal"
         rx="10"/>
   <text class="terminal" x="707" y="591">LIMIT</text>
   <a xmlns:xlink="http://www.w3.org/1999/xlink"
      xlink:href="../../sql_types#unsigned"
      xlink:title="unsigned">
      <rect x="799" y="573" width="78" height="32"/>
      <rect x="797" y="571" width="78" height="32" class="nonterminal"/>
      <text class="nonterminal" x="807" y="591">unsigned</text>
   </a>
   <rect x="799" y="617" width="44" height="32" rx="10"/>
   <rect x="797"
         y="615"
         width="44"
         height="32"
         class="terminal"
         rx="10"/>
   <text class="terminal" x="807" y="635">ALL</text>
   <rect x="799" y="661" width="56" height="32" rx="10"/>
   <rect x="797"
         y="659"
         width="56"
         height="32"
         class="terminal"
         rx="10"/>
   <text class="terminal" x="807" y="679">NULL</text>
   <path class="line"
         d="m17 33 h2 m0 0 h10 m60 0 h10 m0 0 h10 m48 0 h10 m60 0 h10 m0 0 h188 m-218 0 h20 m198 0 h20 m-238 0 q10 0 10 10 m218 0 q0 -10 10 -10 m-228 10 v12 m218 0 v-12 m-218 12 q0 10 10 10 m198 0 q10 0 10 -10 m-208 10 h10 m64 0 h10 m0 0 h114 m-208 -10 v20 m218 0 v-20 m-218 20 v24 m218 0 v-24 m-218 24 q0 10 10 10 m198 0 q10 0 10 -10 m-208 10 h10 m52 0 h10 m20 0 h10 m0 0 h76 m-106 0 h20 m86 0 h20 m-126 0 q10 0 10 10 m106 0 q0 -10 10 -10 m-116 10 v12 m106 0 v-12 m-106 12 q0 10 10 10 m86 0 q10 0 10 -10 m-96 10 h10 m66 0 h10 m40 -108 h10 m54 0 h10 m0 0 h10 m48 0 h10 m0 0 h10 m40 0 h10 m0 0 h10 m90 0 h10 m-570 0 l20 0 m-1 0 q-9 0 -9 -10 l0 -12 q0 -10 10 -10 m550 32 l20 0 m-20 0 q10 0 10 -10 l0 -12 q0 -10 -10 -10 m-550 0 h10 m0 0 h540 m-590 32 h20 m590 0 h20 m-630 0 q10 0 10 10 m610 0 q0 -10 10 -10 m-620 10 v122 m610 0 v-122 m-610 122 q0 10 10 10 m590 0 q10 0 10 -10 m-600 10 h10 m0 0 h580 m22 -142 l2 0 m2 0 l2 0 m2 0 l2 0 m-759 234 l2 0 m2 0 l2 0 m2 0 l2 0 m22 0 h10 m0 0 h190 m-220 0 h20 m200 0 h20 m-240 0 q10 0 10 10 m220 0 q0 -10 10 -10 m-230 10 v12 m220 0 v-12 m-220 12 q0 10 10 10 m200 0 q10 0 10 -10 m-210 10 h10 m70 0 h10 m0 0 h10 m90 0 h10 m40 -32 h10 m68 0 h10 m0 0 h10 m38 0 h10 m20 0 h10 m90 0 h10 m-130 0 l20 0 m-1 0 q-9 0 -9 -10 l0 -24 q0 -10 10 -10 m110 44 l20 0 m-20 0 q10 0 10 -10 l0 -24 q0 -10 -10 -10 m-110 0 h10 m24 0 h10 m0 0 h66 m-296 44 h20 m296 0 h20 m-336 0 q10 0 10 10 m316 0 q0 -10 10 -10 m-326 10 v14 m316 0 v-14 m-316 14 q0 10 10 10 m296 0 q10 0 10 -10 m-306 10 h10 m0 0 h286 m40 -34 h10 m0 0 h194 m-224 0 h20 m204 0 h20 m-244 0 q10 0 10 10 m224 0 q0 -10 10 -10 m-234 10 v12 m224 0 v-12 m-224 12 q0 10 10 10 m204 0 q10 0 10 -10 m-214 10 h10 m74 0 h10 m0 0 h10 m90 0 h10 m22 -32 l2 0 m2 0 l2 0 m2 0 l2 0 m-893 142 l2 0 m2 0 l2 0 m2 0 l2 0 m22 0 h10 m0 0 h416 m-446 0 h20 m426 0 h20 m-466 0 q10 0 10 10 m446 0 q0 -10 10 -10 m-456 10 v12 m446 0 v-12 m-446 12 q0 10 10 10 m426 0 q10 0 10 -10 m-436 10 h10 m86 0 h10 m0 0 h10 m56 0 h10 m0 0 h10 m38 0 h10 m0 0 h10 m26 0 h10 m0 0 h10 m74 0 h10 m0 0 h10 m26 0 h10 m40 -32 h10 m68 0 h10 m0 0 h10 m38 0 h10 m20 0 h10 m90 0 h10 m20 0 h10 m0 0 h66 m-96 0 h20 m76 0 h20 m-116 0 q10 0 10 10 m96 0 q0 -10 10 -10 m-106 10 v12 m96 0 v-12 m-96 12 q0 10 10 10 m76 0 q10 0 10 -10 m-86 10 h10 m46 0 h10 m0 0 h10 m-86 -10 v20 m96 0 v-20 m-96 20 v24 m96 0 v-24 m-96 24 q0 10 10 10 m76 0 q10 0 10 -10 m-86 10 h10 m56 0 h10 m-226 -76 l20 0 m-1 0 q-9 0 -9 -10 l0 -24 q0 -10 10 -10 m226 44 l20 0 m-20 0 q10 0 10 -10 l0 -24 q0 -10 -10 -10 m-226 0 h10 m24 0 h10 m0 0 h182 m-412 44 h20 m412 0 h20 m-452 0 q10 0 10 10 m432 0 q0 -10 10 -10 m-442 10 v90 m432 0 v-90 m-432 90 q0 10 10 10 m412 0 q10 0 10 -10 m-422 10 h10 m0 0 h402 m22 -110 l2 0 m2 0 l2 0 m2 0 l2 0 m-684 146 l2 0 m2 0 l2 0 m2 0 l2 0 m22 0 h10 m0 0 h346 m-376 0 h20 m356 0 h20 m-396 0 q10 0 10 10 m376 0 q0 -10 10 -10 m-386 10 v12 m376 0 v-12 m-376 12 q0 10 10 10 m356 0 q10 0 10 -10 m-346 10 h10 m66 0 h10 m20 0 h10 m0 0 h54 m-84 0 h20 m64 0 h20 m-104 0 q10 0 10 10 m84 0 q0 -10 10 -10 m-94 10 v12 m84 0 v-12 m-84 12 q0 10 10 10 m64 0 q10 0 10 -10 m-74 10 h10 m44 0 h10 m20 -32 h48 m-258 0 h20 m238 0 h20 m-278 0 q10 0 10 10 m258 0 q0 -10 10 -10 m-268 10 v56 m258 0 v-56 m-258 56 q0 10 10 10 m238 0 q10 0 10 -10 m-248 10 h10 m72 0 h10 m20 0 h10 m0 0 h96 m-126 0 h20 m106 0 h20 m-146 0 q10 0 10 10 m126 0 q0 -10 10 -10 m-136 10 v12 m126 0 v-12 m-126 12 q0 10 10 10 m106 0 q10 0 10 -10 m-116 10 h10 m86 0 h10 m40 -108 h10 m58 0 h10 m40 -32 h10 m0 0 h208 m-238 0 h20 m218 0 h20 m-258 0 q10 0 10 10 m238 0 q0 -10 10 -10 m-248 10 v12 m238 0 v-12 m-238 12 q0 10 10 10 m218 0 q10 0 10 -10 m-228 10 h10 m60 0 h10 m20 0 h10 m78 0 h10 m-118 0 h20 m98 0 h20 m-138 0 q10 0 10 10 m118 0 q0 -10 10 -10 m-128 10 v24 m118 0 v-24 m-118 24 q0 10 10 10 m98 0 q10 0 10 -10 m-108 10 h10 m44 0 h10 m0 0 h34 m-108 -10 v20 m118 0 v-20 m-118 20 v24 m118 0 v-24 m-118 24 q0 10 10 10 m98 0 q10 0 10 -10 m-108 10 h10 m56 0 h10 m0 0 h22 m43 -120 h-3"/>
   <polygon points="935 555 943 551 943 559"/>
   <polygon points="935 555 927 551 927 559"/>
</svg>
