<?xml version="1.0" encoding="UTF-8"?>
<svg xmlns="http://www.w3.org/2000/svg" width="969" height="971" viewBox="0 0 969 971">
   <defs>
      <style type="text/css">
    @namespace "http://www.w3.org/2000/svg";
    .line                 {fill: none; stroke: #330000; stroke-width: 1;}
    .bold-line            {stroke: #140000; shape-rendering: crispEdges; stroke-width: 2;}
    .thin-line            {stroke: #1F0000; shape-rendering: crispEdges}
    .filled               {fill: #330000; stroke: none;}
    text.terminal         {font-family: Verdana, Sans-serif;
                            font-size: 12px;
                            fill: #140000;
                            font-weight: bold;
                          }
    text.nonterminal      {font-family: Verdana, Sans-serif;
                            font-size: 12px;
                            fill: #1A0000;
                            font-weight: normal;
                          }
    text.regexp           {font-family: Verdana, Sans-serif;
                            font-size: 12px;
                            fill: #1F0000;
                            font-weight: normal;
                          }
    rect, circle, polygon {fill: #330000; stroke: #330000;}
    rect.terminal         {fill: #FF4D4D; stroke: #330000; stroke-width: 1;}
    rect.nonterminal      {fill: #FF9E9E; stroke: #330000; stroke-width: 1;}
    rect.text             {fill: none; stroke: none;}
    polygon.regexp        {fill: #FFC7C7; stroke: #330000; stroke-width: 1;}
  </style>
   </defs>
   <polygon points="9 17 1 13 1 21"/>
   <polygon points="17 17 9 13 9 21"/>
   <rect x="31" y="3" width="66" height="32" rx="10"/>
   <rect x="29"
         y="1"
         width="66"
         height="32"
         class="terminal"
         rx="10"/>
   <text class="terminal" x="39" y="21">GRANT</text>
   <rect x="157" y="3" width="72" height="32" rx="10"/>
   <rect x="155"
         y="1"
         width="72"
         height="32"
         class="terminal"
         rx="10"/>
   <text class="terminal" x="165" y="21">CREATE</text>
   <rect x="157" y="47" width="62" height="32" rx="10"/>
   <rect x="155"
         y="45"
         width="62"
         height="32"
         class="terminal"
         rx="10"/>
   <text class="terminal" x="165" y="65">ALTER</text>
   <rect x="157" y="91" width="58" height="32" rx="10"/>
   <rect x="155"
         y="89"
         width="58"
         height="32"
         class="terminal"
         rx="10"/>
   <text class="terminal" x="165" y="109">DROP</text>
   <rect x="269" y="3" width="56" height="32" rx="10"/>
   <rect x="267"
         y="1"
         width="56"
         height="32"
         class="terminal"
         rx="10"/>
   <text class="terminal" x="277" y="21">USER</text>
   <rect x="157" y="135" width="62" height="32" rx="10"/>
   <rect x="155"
         y="133"
         width="62"
         height="32"
         class="terminal"
         rx="10"/>
   <text class="terminal" x="165" y="153">ALTER</text>
   <rect x="157" y="179" width="58" height="32" rx="10"/>
   <rect x="155"
         y="177"
         width="58"
         height="32"
         class="terminal"
         rx="10"/>
   <text class="terminal" x="165" y="197">DROP</text>
   <rect x="259" y="135" width="40" height="32" rx="10"/>
   <rect x="257"
         y="133"
         width="40"
         height="32"
         class="terminal"
         rx="10"/>
   <text class="terminal" x="267" y="153">ON</text>
   <rect x="319" y="135" width="56" height="32" rx="10"/>
   <rect x="317"
         y="133"
         width="56"
         height="32"
         class="terminal"
         rx="10"/>
   <text class="terminal" x="327" y="153">USER</text>
   <a xmlns:xlink="http://www.w3.org/1999/xlink"
      xlink:href="../object"
      xlink:title="user">
      <rect x="395" y="135" width="48" height="32"/>
      <rect x="393" y="133" width="48" height="32" class="nonterminal"/>
      <text class="nonterminal" x="403" y="153">user</text>
   </a>
   <rect x="157" y="223" width="72" height="32" rx="10"/>
   <rect x="155"
         y="221"
         width="72"
         height="32"
         class="terminal"
         rx="10"/>
   <text class="terminal" x="165" y="241">CREATE</text>
   <rect x="157" y="267" width="58" height="32" rx="10"/>
   <rect x="155"
         y="265"
         width="58"
         height="32"
         class="terminal"
         rx="10"/>
   <text class="terminal" x="165" y="285">DROP</text>
   <rect x="269" y="223" width="56" height="32" rx="10"/>
   <rect x="267"
         y="221"
         width="56"
         height="32"
         class="terminal"
         rx="10"/>
   <text class="terminal" x="277" y="241">ROLE</text>
   <rect x="157" y="343" width="58" height="32" rx="10"/>
   <rect x="155"
         y="341"
         width="58"
         height="32"
         class="terminal"
         rx="10"/>
   <text class="terminal" x="165" y="361">DROP</text>
   <rect x="235" y="343" width="40" height="32" rx="10"/>
   <rect x="233"
         y="341"
         width="40"
         height="32"
         class="terminal"
         rx="10"/>
   <text class="terminal" x="243" y="361">ON</text>
   <rect x="295" y="343" width="56" height="32" rx="10"/>
   <rect x="293"
         y="341"
         width="56"
         height="32"
         class="terminal"
         rx="10"/>
   <text class="terminal" x="303" y="361">ROLE</text>
   <a xmlns:xlink="http://www.w3.org/1999/xlink"
      xlink:href="../object"
      xlink:title="role">
      <rect x="391" y="311" width="44" height="32"/>
      <rect x="389" y="309" width="44" height="32" class="nonterminal"/>
      <text class="nonterminal" x="399" y="329">role</text>
   </a>
   <rect x="157" y="387" width="72" height="32" rx="10"/>
   <rect x="155"
         y="385"
         width="72"
         height="32"
         class="terminal"
         rx="10"/>
   <text class="terminal" x="165" y="405">CREATE</text>
   <rect x="157" y="431" width="62" height="32" rx="10"/>
   <rect x="155"
         y="429"
         width="62"
         height="32"
         class="terminal"
         rx="10"/>
   <text class="terminal" x="165" y="449">ALTER</text>
   <rect x="157" y="475" width="58" height="32" rx="10"/>
   <rect x="155"
         y="473"
         width="58"
         height="32"
         class="terminal"
         rx="10"/>
   <text class="terminal" x="165" y="493">DROP</text>
   <rect x="157" y="519" width="56" height="32" rx="10"/>
   <rect x="155"
         y="517"
         width="56"
         height="32"
         class="terminal"
         rx="10"/>
   <text class="terminal" x="165" y="537">READ</text>
   <rect x="157" y="563" width="66" height="32" rx="10"/>
   <rect x="155"
         y="561"
         width="66"
         height="32"
         class="terminal"
         rx="10"/>
   <text class="terminal" x="165" y="581">WRITE</text>
   <rect x="289" y="387" width="62" height="32" rx="10"/>
   <rect x="287"
         y="385"
         width="62"
         height="32"
         class="terminal"
         rx="10"/>
   <text class="terminal" x="297" y="405">TABLE</text>
   <rect x="289" y="431" width="40" height="32" rx="10"/>
   <rect x="287"
         y="429"
         width="40"
         height="32"
         class="terminal"
         rx="10"/>
   <text class="terminal" x="297" y="449">ON</text>
   <rect x="349" y="431" width="62" height="32" rx="10"/>
   <rect x="347"
         y="429"
         width="62"
         height="32"
         class="terminal"
         rx="10"/>
   <text class="terminal" x="357" y="449">TABLE</text>
   <a xmlns:xlink="http://www.w3.org/1999/xlink"
      xlink:href="../object"
      xlink:title="table">
      <rect x="431" y="431" width="52" height="32"/>
      <rect x="429" y="429" width="52" height="32" class="nonterminal"/>
      <text class="nonterminal" x="439" y="449">table</text>
   </a>
   <rect x="157" y="607" width="72" height="32" rx="10"/>
   <rect x="155"
         y="605"
         width="72"
         height="32"
         class="terminal"
         rx="10"/>
   <text class="terminal" x="165" y="625">CREATE</text>
   <rect x="157" y="651" width="80" height="32" rx="10"/>
   <rect x="155"
         y="649"
         width="80"
         height="32"
         class="terminal"
         rx="10"/>
   <text class="terminal" x="165" y="669">EXECUTE</text>
   <rect x="157" y="695" width="58" height="32" rx="10"/>
   <rect x="155"
         y="693"
         width="58"
         height="32"
         class="terminal"
         rx="10"/>
   <text class="terminal" x="165" y="713">DROP</text>
   <rect x="277" y="607" width="104" height="32" rx="10"/>
   <rect x="275"
         y="605"
         width="104"
         height="32"
         class="terminal"
         rx="10"/>
   <text class="terminal" x="285" y="625">PROCEDURE</text>
   <rect x="157" y="783" width="80" height="32" rx="10"/>
   <rect x="155"
         y="781"
         width="80"
         height="32"
         class="terminal"
         rx="10"/>
   <text class="terminal" x="165" y="801">EXECUTE</text>
   <rect x="157" y="827" width="58" height="32" rx="10"/>
   <rect x="155"
         y="825"
         width="58"
         height="32"
         class="terminal"
         rx="10"/>
   <text class="terminal" x="165" y="845">DROP</text>
   <rect x="277" y="783" width="40" height="32" rx="10"/>
   <rect x="275"
         y="781"
         width="40"
         height="32"
         class="terminal"
         rx="10"/>
   <text class="terminal" x="285" y="801">ON</text>
   <rect x="337" y="783" width="104" height="32" rx="10"/>
   <rect x="335"
         y="781"
         width="104"
         height="32"
         class="terminal"
         rx="10"/>
   <text class="terminal" x="345" y="801">PROCEDURE</text>
   <a xmlns:xlink="http://www.w3.org/1999/xlink"
      xlink:href="../object"
      xlink:title="procedure">
      <rect x="461" y="783" width="84" height="32"/>
      <rect x="459" y="781" width="84" height="32" class="nonterminal"/>
      <text class="nonterminal" x="469" y="801">procedure</text>
   </a>
   <rect x="585" y="783" width="26" height="32" rx="10"/>
   <rect x="583"
         y="781"
         width="26"
         height="32"
         class="terminal"
         rx="10"/>
   <text class="terminal" x="593" y="801">(</text>
   <a xmlns:xlink="http://www.w3.org/1999/xlink"
      xlink:href="#unrestricted_type"
      xlink:title="unrestricted_type">
      <rect x="651" y="783" width="132" height="32"/>
      <rect x="649" y="781" width="132" height="32" class="nonterminal"/>
      <text class="nonterminal" x="659" y="801">unrestricted_type</text>
   </a>
   <rect x="651" y="739" width="24" height="32" rx="10"/>
   <rect x="649"
         y="737"
         width="24"
         height="32"
         class="terminal"
         rx="10"/>
   <text class="terminal" x="659" y="757">,</text>
   <rect x="823" y="783" width="26" height="32" rx="10"/>
   <rect x="821"
         y="781"
         width="26"
         height="32"
         class="terminal"
         rx="10"/>
   <text class="terminal" x="831" y="801">)</text>
   <rect x="909" y="3" width="38" height="32" rx="10"/>
   <rect x="907"
         y="1"
         width="38"
         height="32"
         class="terminal"
         rx="10"/>
   <text class="terminal" x="917" y="21">TO</text>
   <a xmlns:xlink="http://www.w3.org/1999/xlink"
      xlink:href="../object"
      xlink:title="role">
      <rect x="411" y="893" width="44" height="32"/>
      <rect x="409" y="891" width="44" height="32" class="nonterminal"/>
      <text class="nonterminal" x="419" y="911">role</text>
   </a>
   <a xmlns:xlink="http://www.w3.org/1999/xlink"
      xlink:href="../object"
      xlink:title="user">
      <rect x="411" y="937" width="48" height="32"/>
      <rect x="409" y="935" width="48" height="32" class="nonterminal"/>
      <text class="nonterminal" x="419" y="955">user</text>
   </a>
   <rect x="519" y="925" width="76" height="32" rx="10"/>
   <rect x="517"
         y="923"
         width="76"
         height="32"
         class="terminal"
         rx="10"/>
   <text class="terminal" x="527" y="943">OPTION</text>
   <rect x="615" y="925" width="26" height="32" rx="10"/>
   <rect x="613"
         y="923"
         width="26"
         height="32"
         class="terminal"
         rx="10"/>
   <text class="terminal" x="623" y="943">(</text>
   <rect x="661" y="925" width="82" height="32" rx="10"/>
   <rect x="659"
         y="923"
         width="82"
         height="32"
         class="terminal"
         rx="10"/>
   <text class="terminal" x="669" y="943">TIMEOUT</text>
   <rect x="763" y="925" width="30" height="32" rx="10"/>
   <rect x="761"
         y="923"
         width="30"
         height="32"
         class="terminal"
         rx="10"/>
   <text class="terminal" x="771" y="943">=</text>
   <a xmlns:xlink="http://www.w3.org/1999/xlink"
      xlink:href="../../sql_types#double"
      xlink:title="double">
      <rect x="813" y="925" width="62" height="32"/>
      <rect x="811" y="923" width="62" height="32" class="nonterminal"/>
      <text class="nonterminal" x="821" y="943">double</text>
   </a>
   <rect x="895" y="925" width="26" height="32" rx="10"/>
   <rect x="893"
         y="923"
         width="26"
         height="32"
         class="terminal"
         rx="10"/>
   <text class="terminal" x="903" y="943">)</text>
   <path class="line"
         d="m17 17 h2 m0 0 h10 m66 0 h10 m40 0 h10 m72 0 h10 m-112 0 h20 m92 0 h20 m-132 0 q10 0 10 10 m112 0 q0 -10 10 -10 m-122 10 v24 m112 0 v-24 m-112 24 q0 10 10 10 m92 0 q10 0 10 -10 m-102 10 h10 m62 0 h10 m0 0 h10 m-102 -10 v20 m112 0 v-20 m-112 20 v24 m112 0 v-24 m-112 24 q0 10 10 10 m92 0 q10 0 10 -10 m-102 10 h10 m58 0 h10 m0 0 h14 m20 -88 h10 m56 0 h10 m0 0 h544 m-772 0 h20 m752 0 h20 m-792 0 q10 0 10 10 m772 0 q0 -10 10 -10 m-782 10 v112 m772 0 v-112 m-772 112 q0 10 10 10 m752 0 q10 0 10 -10 m-742 10 h10 m62 0 h10 m-102 0 h20 m82 0 h20 m-122 0 q10 0 10 10 m102 0 q0 -10 10 -10 m-112 10 v24 m102 0 v-24 m-102 24 q0 10 10 10 m82 0 q10 0 10 -10 m-92 10 h10 m58 0 h10 m0 0 h4 m20 -44 h10 m40 0 h10 m0 0 h10 m56 0 h10 m0 0 h10 m48 0 h10 m0 0 h426 m-762 -10 v20 m772 0 v-20 m-772 20 v68 m772 0 v-68 m-772 68 q0 10 10 10 m752 0 q10 0 10 -10 m-742 10 h10 m72 0 h10 m-112 0 h20 m92 0 h20 m-132 0 q10 0 10 10 m112 0 q0 -10 10 -10 m-122 10 v24 m112 0 v-24 m-112 24 q0 10 10 10 m92 0 q10 0 10 -10 m-102 10 h10 m58 0 h10 m0 0 h14 m20 -44 h10 m56 0 h10 m0 0 h544 m-762 -10 v20 m772 0 v-20 m-772 20 v68 m772 0 v-68 m-772 68 q0 10 10 10 m752 0 q10 0 10 -10 m-742 10 h10 m0 0 h204 m-234 0 h20 m214 0 h20 m-254 0 q10 0 10 10 m234 0 q0 -10 10 -10 m-244 10 v12 m234 0 v-12 m-234 12 q0 10 10 10 m214 0 q10 0 10 -10 m-224 10 h10 m58 0 h10 m0 0 h10 m40 0 h10 m0 0 h10 m56 0 h10 m20 -32 h10 m44 0 h10 m0 0 h434 m-762 -10 v20 m772 0 v-20 m-772 20 v56 m772 0 v-56 m-772 56 q0 10 10 10 m752 0 q10 0 10 -10 m-742 10 h10 m72 0 h10 m-112 0 h20 m92 0 h20 m-132 0 q10 0 10 10 m112 0 q0 -10 10 -10 m-122 10 v24 m112 0 v-24 m-112 24 q0 10 10 10 m92 0 q10 0 10 -10 m-102 10 h10 m62 0 h10 m0 0 h10 m-102 -10 v20 m112 0 v-20 m-112 20 v24 m112 0 v-24 m-112 24 q0 10 10 10 m92 0 q10 0 10 -10 m-102 10 h10 m58 0 h10 m0 0 h14 m-102 -10 v20 m112 0 v-20 m-112 20 v24 m112 0 v-24 m-112 24 q0 10 10 10 m92 0 q10 0 10 -10 m-102 10 h10 m56 0 h10 m0 0 h16 m-102 -10 v20 m112 0 v-20 m-112 20 v24 m112 0 v-24 m-112 24 q0 10 10 10 m92 0 q10 0 10 -10 m-102 10 h10 m66 0 h10 m0 0 h6 m40 -176 h10 m62 0 h10 m0 0 h132 m-234 0 h20 m214 0 h20 m-254 0 q10 0 10 10 m234 0 q0 -10 10 -10 m-244 10 v24 m234 0 v-24 m-234 24 q0 10 10 10 m214 0 q10 0 10 -10 m-224 10 h10 m40 0 h10 m0 0 h10 m62 0 h10 m0 0 h10 m52 0 h10 m20 -44 h366 m-762 -10 v20 m772 0 v-20 m-772 20 v200 m772 0 v-200 m-772 200 q0 10 10 10 m752 0 q10 0 10 -10 m-742 10 h10 m72 0 h10 m0 0 h8 m-120 0 h20 m100 0 h20 m-140 0 q10 0 10 10 m120 0 q0 -10 10 -10 m-130 10 v24 m120 0 v-24 m-120 24 q0 10 10 10 m100 0 q10 0 10 -10 m-110 10 h10 m80 0 h10 m-110 -10 v20 m120 0 v-20 m-120 20 v24 m120 0 v-24 m-120 24 q0 10 10 10 m100 0 q10 0 10 -10 m-110 10 h10 m58 0 h10 m0 0 h22 m20 -88 h10 m104 0 h10 m0 0 h488 m-762 -10 v20 m772 0 v-20 m-772 20 v156 m772 0 v-156 m-772 156 q0 10 10 10 m752 0 q10 0 10 -10 m-742 10 h10 m80 0 h10 m-120 0 h20 m100 0 h20 m-140 0 q10 0 10 10 m120 0 q0 -10 10 -10 m-130 10 v24 m120 0 v-24 m-120 24 q0 10 10 10 m100 0 q10 0 10 -10 m-110 10 h10 m58 0 h10 m0 0 h22 m20 -44 h10 m40 0 h10 m0 0 h10 m104 0 h10 m0 0 h10 m84 0 h10 m20 0 h10 m26 0 h10 m20 0 h10 m132 0 h10 m-172 0 l20 0 m-1 0 q-9 0 -9 -10 l0 -24 q0 -10 10 -10 m152 44 l20 0 m-20 0 q10 0 10 -10 l0 -24 q0 -10 -10 -10 m-152 0 h10 m24 0 h10 m0 0 h108 m20 44 h10 m26 0 h10 m-304 0 h20 m284 0 h20 m-324 0 q10 0 10 10 m304 0 q0 -10 10 -10 m-314 10 v14 m304 0 v-14 m-304 14 q0 10 10 10 m284 0 q10 0 10 -10 m-294 10 h10 m0 0 h274 m40 -814 h10 m38 0 h10 m2 0 l2 0 m2 0 l2 0 m2 0 l2 0 m-600 890 l2 0 m2 0 l2 0 m2 0 l2 0 m22 0 h10 m44 0 h10 m0 0 h4 m-88 0 h20 m68 0 h20 m-108 0 q10 0 10 10 m88 0 q0 -10 10 -10 m-98 10 v24 m88 0 v-24 m-88 24 q0 10 10 10 m68 0 q10 0 10 -10 m-78 10 h10 m48 0 h10 m40 -44 h10 m0 0 h412 m-442 0 h20 m422 0 h20 m-462 0 q10 0 10 10 m442 0 q0 -10 10 -10 m-452 10 v12 m442 0 v-12 m-442 12 q0 10 10 10 m422 0 q10 0 10 -10 m-432 10 h10 m76 0 h10 m0 0 h10 m26 0 h10 m0 0 h10 m82 0 h10 m0 0 h10 m30 0 h10 m0 0 h10 m62 0 h10 m0 0 h10 m26 0 h10 m23 -32 h-3"/>
   <polygon points="959 907 967 903 967 911"/>
   <polygon points="959 907 951 903 951 911"/>
</svg>
