<?xml version="1.0" encoding="UTF-8"?>
<svg xmlns="http://www.w3.org/2000/svg" width="973" height="1003" viewBox="0 0 973 1003">
   <defs>
      <style type="text/css">
    @namespace "http://www.w3.org/2000/svg";
    .line                 {fill: none; stroke: #330000; stroke-width: 1;}
    .bold-line            {stroke: #140000; shape-rendering: crispEdges; stroke-width: 2;}
    .thin-line            {stroke: #1F0000; shape-rendering: crispEdges}
    .filled               {fill: #330000; stroke: none;}
    text.terminal         {font-family: Verdana, Sans-serif;
                            font-size: 12px;
                            fill: #140000;
                            font-weight: bold;
                          }
    text.nonterminal      {font-family: Verdana, Sans-serif;
                            font-size: 12px;
                            fill: #1A0000;
                            font-weight: normal;
                          }
    text.regexp           {font-family: Verdana, Sans-serif;
                            font-size: 12px;
                            fill: #1F0000;
                            font-weight: normal;
                          }
    rect, circle, polygon {fill: #330000; stroke: #330000;}
    rect.terminal         {fill: #FF4D4D; stroke: #330000; stroke-width: 1;}
    rect.nonterminal      {fill: #FF9E9E; stroke: #330000; stroke-width: 1;}
    rect.text             {fill: none; stroke: none;}
    polygon.regexp        {fill: #FFC7C7; stroke: #330000; stroke-width: 1;}
  </style>
   </defs>
   <polygon points="11 17 3 13 3 21"/>
   <polygon points="19 17 11 13 11 21"/>
   <rect x="33" y="3" width="66" height="32" rx="10"/>
   <rect x="31"
         y="1"
         width="66"
         height="32"
         class="terminal"
         rx="10"/>
   <text class="terminal" x="41" y="21">GRANT</text>
   <rect x="159" y="3" width="72" height="32" rx="10"/>
   <rect x="157"
         y="1"
         width="72"
         height="32"
         class="terminal"
         rx="10"/>
   <text class="terminal" x="167" y="21">CREATE</text>
   <rect x="159" y="47" width="62" height="32" rx="10"/>
   <rect x="157"
         y="45"
         width="62"
         height="32"
         class="terminal"
         rx="10"/>
   <text class="terminal" x="167" y="65">ALTER</text>
   <rect x="159" y="91" width="58" height="32" rx="10"/>
   <rect x="157"
         y="89"
         width="58"
         height="32"
         class="terminal"
         rx="10"/>
   <text class="terminal" x="167" y="109">DROP</text>
   <rect x="271" y="3" width="56" height="32" rx="10"/>
   <rect x="269"
         y="1"
         width="56"
         height="32"
         class="terminal"
         rx="10"/>
   <text class="terminal" x="279" y="21">USER</text>
   <rect x="159" y="135" width="62" height="32" rx="10"/>
   <rect x="157"
         y="133"
         width="62"
         height="32"
         class="terminal"
         rx="10"/>
   <text class="terminal" x="167" y="153">ALTER</text>
   <rect x="159" y="179" width="58" height="32" rx="10"/>
   <rect x="157"
         y="177"
         width="58"
         height="32"
         class="terminal"
         rx="10"/>
   <text class="terminal" x="167" y="197">DROP</text>
   <rect x="261" y="135" width="40" height="32" rx="10"/>
   <rect x="259"
         y="133"
         width="40"
         height="32"
         class="terminal"
         rx="10"/>
   <text class="terminal" x="269" y="153">ON</text>
   <rect x="321" y="135" width="56" height="32" rx="10"/>
   <rect x="319"
         y="133"
         width="56"
         height="32"
         class="terminal"
         rx="10"/>
   <text class="terminal" x="329" y="153">USER</text>
   <a xmlns:xlink="http://www.w3.org/1999/xlink"
      xlink:href="../object"
      xlink:title="user">
      <rect x="397" y="135" width="48" height="32"/>
      <rect x="395" y="133" width="48" height="32" class="nonterminal"/>
      <text class="nonterminal" x="405" y="153">user</text>
   </a>
   <rect x="159" y="223" width="72" height="32" rx="10"/>
   <rect x="157"
         y="221"
         width="72"
         height="32"
         class="terminal"
         rx="10"/>
   <text class="terminal" x="167" y="241">CREATE</text>
   <rect x="159" y="267" width="58" height="32" rx="10"/>
   <rect x="157"
         y="265"
         width="58"
         height="32"
         class="terminal"
         rx="10"/>
   <text class="terminal" x="167" y="285">DROP</text>
   <rect x="271" y="223" width="56" height="32" rx="10"/>
   <rect x="269"
         y="221"
         width="56"
         height="32"
         class="terminal"
         rx="10"/>
   <text class="terminal" x="279" y="241">ROLE</text>
   <rect x="159" y="343" width="58" height="32" rx="10"/>
   <rect x="157"
         y="341"
         width="58"
         height="32"
         class="terminal"
         rx="10"/>
   <text class="terminal" x="167" y="361">DROP</text>
   <rect x="237" y="343" width="40" height="32" rx="10"/>
   <rect x="235"
         y="341"
         width="40"
         height="32"
         class="terminal"
         rx="10"/>
   <text class="terminal" x="245" y="361">ON</text>
   <rect x="297" y="343" width="56" height="32" rx="10"/>
   <rect x="295"
         y="341"
         width="56"
         height="32"
         class="terminal"
         rx="10"/>
   <text class="terminal" x="305" y="361">ROLE</text>
   <a xmlns:xlink="http://www.w3.org/1999/xlink"
      xlink:href="../object"
      xlink:title="role">
      <rect x="393" y="311" width="44" height="32"/>
      <rect x="391" y="309" width="44" height="32" class="nonterminal"/>
      <text class="nonterminal" x="401" y="329">role</text>
   </a>
   <rect x="159" y="387" width="72" height="32" rx="10"/>
   <rect x="157"
         y="385"
         width="72"
         height="32"
         class="terminal"
         rx="10"/>
   <text class="terminal" x="167" y="405">CREATE</text>
   <rect x="159" y="431" width="62" height="32" rx="10"/>
   <rect x="157"
         y="429"
         width="62"
         height="32"
         class="terminal"
         rx="10"/>
   <text class="terminal" x="167" y="449">ALTER</text>
   <rect x="159" y="475" width="58" height="32" rx="10"/>
   <rect x="157"
         y="473"
         width="58"
         height="32"
         class="terminal"
         rx="10"/>
   <text class="terminal" x="167" y="493">DROP</text>
   <rect x="159" y="519" width="56" height="32" rx="10"/>
   <rect x="157"
         y="517"
         width="56"
         height="32"
         class="terminal"
         rx="10"/>
   <text class="terminal" x="167" y="537">READ</text>
   <rect x="159" y="563" width="66" height="32" rx="10"/>
   <rect x="157"
         y="561"
         width="66"
         height="32"
         class="terminal"
         rx="10"/>
   <text class="terminal" x="167" y="581">WRITE</text>
   <rect x="291" y="387" width="62" height="32" rx="10"/>
   <rect x="289"
         y="385"
         width="62"
         height="32"
         class="terminal"
         rx="10"/>
   <text class="terminal" x="299" y="405">TABLE</text>
   <rect x="291" y="431" width="40" height="32" rx="10"/>
   <rect x="289"
         y="429"
         width="40"
         height="32"
         class="terminal"
         rx="10"/>
   <text class="terminal" x="299" y="449">ON</text>
   <rect x="351" y="431" width="62" height="32" rx="10"/>
   <rect x="349"
         y="429"
         width="62"
         height="32"
         class="terminal"
         rx="10"/>
   <text class="terminal" x="359" y="449">TABLE</text>
   <a xmlns:xlink="http://www.w3.org/1999/xlink"
      xlink:href="../object"
      xlink:title="table">
      <rect x="433" y="431" width="52" height="32"/>
      <rect x="431" y="429" width="52" height="32" class="nonterminal"/>
      <text class="nonterminal" x="441" y="449">table</text>
   </a>
   <rect x="159" y="607" width="72" height="32" rx="10"/>
   <rect x="157"
         y="605"
         width="72"
         height="32"
         class="terminal"
         rx="10"/>
   <text class="terminal" x="167" y="625">CREATE</text>
   <rect x="159" y="651" width="80" height="32" rx="10"/>
   <rect x="157"
         y="649"
         width="80"
         height="32"
         class="terminal"
         rx="10"/>
   <text class="terminal" x="167" y="669">EXECUTE</text>
   <rect x="159" y="695" width="58" height="32" rx="10"/>
   <rect x="157"
         y="693"
         width="58"
         height="32"
         class="terminal"
         rx="10"/>
   <text class="terminal" x="167" y="713">DROP</text>
   <rect x="279" y="607" width="104" height="32" rx="10"/>
   <rect x="277"
         y="605"
         width="104"
         height="32"
         class="terminal"
         rx="10"/>
   <text class="terminal" x="287" y="625">PROCEDURE</text>
   <rect x="159" y="783" width="80" height="32" rx="10"/>
   <rect x="157"
         y="781"
         width="80"
         height="32"
         class="terminal"
         rx="10"/>
   <text class="terminal" x="167" y="801">EXECUTE</text>
   <rect x="159" y="827" width="58" height="32" rx="10"/>
   <rect x="157"
         y="825"
         width="58"
         height="32"
         class="terminal"
         rx="10"/>
   <text class="terminal" x="167" y="845">DROP</text>
   <rect x="279" y="783" width="40" height="32" rx="10"/>
   <rect x="277"
         y="781"
         width="40"
         height="32"
         class="terminal"
         rx="10"/>
   <text class="terminal" x="287" y="801">ON</text>
   <rect x="339" y="783" width="104" height="32" rx="10"/>
   <rect x="337"
         y="781"
         width="104"
         height="32"
         class="terminal"
         rx="10"/>
   <text class="terminal" x="347" y="801">PROCEDURE</text>
   <a xmlns:xlink="http://www.w3.org/1999/xlink"
      xlink:href="../object"
      xlink:title="procedure">
      <rect x="463" y="783" width="84" height="32"/>
      <rect x="461" y="781" width="84" height="32" class="nonterminal"/>
      <text class="nonterminal" x="471" y="801">procedure</text>
   </a>
   <rect x="587" y="783" width="26" height="32" rx="10"/>
   <rect x="585"
         y="781"
         width="26"
         height="32"
         class="terminal"
         rx="10"/>
   <text class="terminal" x="595" y="801">(</text>
   <a xmlns:xlink="http://www.w3.org/1999/xlink"
      xlink:href="#unrestricted_type"
      xlink:title="unrestricted_type">
      <rect x="653" y="783" width="132" height="32"/>
      <rect x="651" y="781" width="132" height="32" class="nonterminal"/>
      <text class="nonterminal" x="661" y="801">unrestricted_type</text>
   </a>
   <rect x="653" y="739" width="24" height="32" rx="10"/>
   <rect x="651"
         y="737"
         width="24"
         height="32"
         class="terminal"
         rx="10"/>
   <text class="terminal" x="661" y="757">,</text>
   <rect x="825" y="783" width="26" height="32" rx="10"/>
   <rect x="823"
         y="781"
         width="26"
         height="32"
         class="terminal"
         rx="10"/>
   <text class="terminal" x="833" y="801">)</text>
   <rect x="911" y="3" width="38" height="32" rx="10"/>
   <rect x="909"
         y="1"
         width="38"
         height="32"
         class="terminal"
         rx="10"/>
   <text class="terminal" x="919" y="21">TO</text>
   <a xmlns:xlink="http://www.w3.org/1999/xlink"
      xlink:href="../object"
      xlink:title="role">
      <rect x="45" y="893" width="44" height="32"/>
      <rect x="43" y="891" width="44" height="32" class="nonterminal"/>
      <text class="nonterminal" x="53" y="911">role</text>
   </a>
   <a xmlns:xlink="http://www.w3.org/1999/xlink"
      xlink:href="../object"
      xlink:title="user">
      <rect x="45" y="937" width="48" height="32"/>
      <rect x="43" y="935" width="48" height="32" class="nonterminal"/>
      <text class="nonterminal" x="53" y="955">user</text>
   </a>
   <rect x="153" y="925" width="58" height="32" rx="10"/>
   <rect x="151"
         y="923"
         width="58"
         height="32"
         class="terminal"
         rx="10"/>
   <text class="terminal" x="161" y="943">WAIT</text>
   <rect x="231" y="925" width="80" height="32" rx="10"/>
   <rect x="229"
         y="923"
         width="80"
         height="32"
         class="terminal"
         rx="10"/>
   <text class="terminal" x="239" y="943">APPLIED</text>
   <rect x="351" y="925" width="92" height="32" rx="10"/>
   <rect x="349"
         y="923"
         width="92"
         height="32"
         class="terminal"
         rx="10"/>
   <text class="terminal" x="359" y="943">GLOBALLY</text>
   <rect x="351" y="969" width="82" height="32" rx="10"/>
   <rect x="349"
         y="967"
         width="82"
         height="32"
         class="terminal"
         rx="10"/>
   <text class="terminal" x="359" y="987">LOCALLY</text>
   <rect x="523" y="925" width="76" height="32" rx="10"/>
   <rect x="521"
         y="923"
         width="76"
         height="32"
         class="terminal"
         rx="10"/>
   <text class="terminal" x="531" y="943">OPTION</text>
   <rect x="619" y="925" width="26" height="32" rx="10"/>
   <rect x="617"
         y="923"
         width="26"
         height="32"
         class="terminal"
         rx="10"/>
   <text class="terminal" x="627" y="943">(</text>
   <rect x="665" y="925" width="82" height="32" rx="10"/>
   <rect x="663"
         y="923"
         width="82"
         height="32"
         class="terminal"
         rx="10"/>
   <text class="terminal" x="673" y="943">TIMEOUT</text>
   <rect x="767" y="925" width="30" height="32" rx="10"/>
   <rect x="765"
         y="923"
         width="30"
         height="32"
         class="terminal"
         rx="10"/>
   <text class="terminal" x="775" y="943">=</text>
   <a xmlns:xlink="http://www.w3.org/1999/xlink"
      xlink:href="../../sql_types#double"
      xlink:title="double">
      <rect x="817" y="925" width="62" height="32"/>
      <rect x="815" y="923" width="62" height="32" class="nonterminal"/>
      <text class="nonterminal" x="825" y="943">double</text>
   </a>
   <rect x="899" y="925" width="26" height="32" rx="10"/>
   <rect x="897"
         y="923"
         width="26"
         height="32"
         class="terminal"
         rx="10"/>
   <text class="terminal" x="907" y="943">)</text>
   <path class="line"
         d="m19 17 h2 m0 0 h10 m66 0 h10 m40 0 h10 m72 0 h10 m-112 0 h20 m92 0 h20 m-132 0 q10 0 10 10 m112 0 q0 -10 10 -10 m-122 10 v24 m112 0 v-24 m-112 24 q0 10 10 10 m92 0 q10 0 10 -10 m-102 10 h10 m62 0 h10 m0 0 h10 m-102 -10 v20 m112 0 v-20 m-112 20 v24 m112 0 v-24 m-112 24 q0 10 10 10 m92 0 q10 0 10 -10 m-102 10 h10 m58 0 h10 m0 0 h14 m20 -88 h10 m56 0 h10 m0 0 h544 m-772 0 h20 m752 0 h20 m-792 0 q10 0 10 10 m772 0 q0 -10 10 -10 m-782 10 v112 m772 0 v-112 m-772 112 q0 10 10 10 m752 0 q10 0 10 -10 m-742 10 h10 m62 0 h10 m-102 0 h20 m82 0 h20 m-122 0 q10 0 10 10 m102 0 q0 -10 10 -10 m-112 10 v24 m102 0 v-24 m-102 24 q0 10 10 10 m82 0 q10 0 10 -10 m-92 10 h10 m58 0 h10 m0 0 h4 m20 -44 h10 m40 0 h10 m0 0 h10 m56 0 h10 m0 0 h10 m48 0 h10 m0 0 h426 m-762 -10 v20 m772 0 v-20 m-772 20 v68 m772 0 v-68 m-772 68 q0 10 10 10 m752 0 q10 0 10 -10 m-742 10 h10 m72 0 h10 m-112 0 h20 m92 0 h20 m-132 0 q10 0 10 10 m112 0 q0 -10 10 -10 m-122 10 v24 m112 0 v-24 m-112 24 q0 10 10 10 m92 0 q10 0 10 -10 m-102 10 h10 m58 0 h10 m0 0 h14 m20 -44 h10 m56 0 h10 m0 0 h544 m-762 -10 v20 m772 0 v-20 m-772 20 v68 m772 0 v-68 m-772 68 q0 10 10 10 m752 0 q10 0 10 -10 m-742 10 h10 m0 0 h204 m-234 0 h20 m214 0 h20 m-254 0 q10 0 10 10 m234 0 q0 -10 10 -10 m-244 10 v12 m234 0 v-12 m-234 12 q0 10 10 10 m214 0 q10 0 10 -10 m-224 10 h10 m58 0 h10 m0 0 h10 m40 0 h10 m0 0 h10 m56 0 h10 m20 -32 h10 m44 0 h10 m0 0 h434 m-762 -10 v20 m772 0 v-20 m-772 20 v56 m772 0 v-56 m-772 56 q0 10 10 10 m752 0 q10 0 10 -10 m-742 10 h10 m72 0 h10 m-112 0 h20 m92 0 h20 m-132 0 q10 0 10 10 m112 0 q0 -10 10 -10 m-122 10 v24 m112 0 v-24 m-112 24 q0 10 10 10 m92 0 q10 0 10 -10 m-102 10 h10 m62 0 h10 m0 0 h10 m-102 -10 v20 m112 0 v-20 m-112 20 v24 m112 0 v-24 m-112 24 q0 10 10 10 m92 0 q10 0 10 -10 m-102 10 h10 m58 0 h10 m0 0 h14 m-102 -10 v20 m112 0 v-20 m-112 20 v24 m112 0 v-24 m-112 24 q0 10 10 10 m92 0 q10 0 10 -10 m-102 10 h10 m56 0 h10 m0 0 h16 m-102 -10 v20 m112 0 v-20 m-112 20 v24 m112 0 v-24 m-112 24 q0 10 10 10 m92 0 q10 0 10 -10 m-102 10 h10 m66 0 h10 m0 0 h6 m40 -176 h10 m62 0 h10 m0 0 h132 m-234 0 h20 m214 0 h20 m-254 0 q10 0 10 10 m234 0 q0 -10 10 -10 m-244 10 v24 m234 0 v-24 m-234 24 q0 10 10 10 m214 0 q10 0 10 -10 m-224 10 h10 m40 0 h10 m0 0 h10 m62 0 h10 m0 0 h10 m52 0 h10 m20 -44 h366 m-762 -10 v20 m772 0 v-20 m-772 20 v200 m772 0 v-200 m-772 200 q0 10 10 10 m752 0 q10 0 10 -10 m-742 10 h10 m72 0 h10 m0 0 h8 m-120 0 h20 m100 0 h20 m-140 0 q10 0 10 10 m120 0 q0 -10 10 -10 m-130 10 v24 m120 0 v-24 m-120 24 q0 10 10 10 m100 0 q10 0 10 -10 m-110 10 h10 m80 0 h10 m-110 -10 v20 m120 0 v-20 m-120 20 v24 m120 0 v-24 m-120 24 q0 10 10 10 m100 0 q10 0 10 -10 m-110 10 h10 m58 0 h10 m0 0 h22 m20 -88 h10 m104 0 h10 m0 0 h488 m-762 -10 v20 m772 0 v-20 m-772 20 v156 m772 0 v-156 m-772 156 q0 10 10 10 m752 0 q10 0 10 -10 m-742 10 h10 m80 0 h10 m-120 0 h20 m100 0 h20 m-140 0 q10 0 10 10 m120 0 q0 -10 10 -10 m-130 10 v24 m120 0 v-24 m-120 24 q0 10 10 10 m100 0 q10 0 10 -10 m-110 10 h10 m58 0 h10 m0 0 h22 m20 -44 h10 m40 0 h10 m0 0 h10 m104 0 h10 m0 0 h10 m84 0 h10 m20 0 h10 m26 0 h10 m20 0 h10 m132 0 h10 m-172 0 l20 0 m-1 0 q-9 0 -9 -10 l0 -24 q0 -10 10 -10 m152 44 l20 0 m-20 0 q10 0 10 -10 l0 -24 q0 -10 -10 -10 m-152 0 h10 m24 0 h10 m0 0 h108 m20 44 h10 m26 0 h10 m-304 0 h20 m284 0 h20 m-324 0 q10 0 10 10 m304 0 q0 -10 10 -10 m-314 10 v14 m304 0 v-14 m-304 14 q0 10 10 10 m284 0 q10 0 10 -10 m-294 10 h10 m0 0 h274 m40 -814 h10 m38 0 h10 m2 0 l2 0 m2 0 l2 0 m2 0 l2 0 m-968 890 l2 0 m2 0 l2 0 m2 0 l2 0 m22 0 h10 m44 0 h10 m0 0 h4 m-88 0 h20 m68 0 h20 m-108 0 q10 0 10 10 m88 0 q0 -10 10 -10 m-98 10 v24 m88 0 v-24 m-88 24 q0 10 10 10 m68 0 q10 0 10 -10 m-78 10 h10 m48 0 h10 m40 -44 h10 m0 0 h320 m-350 0 h20 m330 0 h20 m-370 0 q10 0 10 10 m350 0 q0 -10 10 -10 m-360 10 v12 m350 0 v-12 m-350 12 q0 10 10 10 m330 0 q10 0 10 -10 m-340 10 h10 m58 0 h10 m0 0 h10 m80 0 h10 m20 0 h10 m92 0 h10 m-132 0 h20 m112 0 h20 m-152 0 q10 0 10 10 m132 0 q0 -10 10 -10 m-142 10 v24 m132 0 v-24 m-132 24 q0 10 10 10 m112 0 q10 0 10 -10 m-122 10 h10 m82 0 h10 m0 0 h10 m60 -76 h10 m0 0 h412 m-442 0 h20 m422 0 h20 m-462 0 q10 0 10 10 m442 0 q0 -10 10 -10 m-452 10 v12 m442 0 v-12 m-442 12 q0 10 10 10 m422 0 q10 0 10 -10 m-432 10 h10 m76 0 h10 m0 0 h10 m26 0 h10 m0 0 h10 m82 0 h10 m0 0 h10 m30 0 h10 m0 0 h10 m62 0 h10 m0 0 h10 m26 0 h10 m23 -32 h-3"/>
   <polygon points="963 907 971 903 971 911"/>
   <polygon points="963 907 955 903 955 911"/>
</svg>
