<?xml version="1.0" encoding="UTF-8" standalone="no"?>
<svg
   width="877"
   height="1213"
   viewBox="0 0 877 1213"
   version="1.1"
   id="svg106"
   sodipodi:docname="grant.svg"
   inkscape:version="1.4.2 (ebf0e940d0, 2025-05-08)"
   xmlns:inkscape="http://www.inkscape.org/namespaces/inkscape"
   xmlns:sodipodi="http://sodipodi.sourceforge.net/DTD/sodipodi-0.dtd"
   xmlns:xlink="http://www.w3.org/1999/xlink"
   xmlns="http://www.w3.org/2000/svg"
   xmlns:svg="http://www.w3.org/2000/svg">
  <sodipodi:namedview
     id="namedview106"
     pagecolor="#ffffff"
     bordercolor="#666666"
     borderopacity="1.0"
     inkscape:showpageshadow="2"
     inkscape:pageopacity="0.0"
     inkscape:pagecheckerboard="0"
     inkscape:deskcolor="#d1d1d1"
     inkscape:zoom="0.66859027"
     inkscape:cx="438.98335"
     inkscape:cy="606.5"
     inkscape:window-width="1858"
     inkscape:window-height="1014"
     inkscape:window-x="62"
     inkscape:window-y="29"
     inkscape:window-maximized="1"
     inkscape:current-layer="svg106" />
  <defs
     id="defs1">
    <style
       type="text/css"
       id="style1">@namespace &quot;http://www.w3.org/2000/svg&quot;;.line { fill: none; stroke: #330000; stroke-width: 1; }
.bold-line { stroke: #140000; shape-rendering: crispEdges; stroke-width: 2; }
.thin-line { stroke: #1F0000; shape-rendering: crispEdges }
.filled { fill: #330000; stroke: none; }
text.terminal { font-family: Verdana, Sans-serif;                            font-size: 12px;                            fill: #140000;                            font-weight: bold; }
text.nonterminal { font-family: Verdana, Sans-serif;                            font-size: 12px;                            fill: #1A0000;                            font-weight: normal; }
text.regexp { font-family: Verdana, Sans-serif;                            font-size: 12px;                            fill: #1F0000;                            font-weight: normal; }
rect, circle, polygon { fill: #330000; stroke: #330000; }
rect.terminal { fill: #FF4D4D; stroke: #330000; stroke-width: 1; }
rect.nonterminal { fill: #FF9E9E; stroke: #330000; stroke-width: 1; }
rect.text { fill: none; stroke: none; }
polygon.regexp { fill: #FFC7C7; stroke: #330000; stroke-width: 1; }
</style>
  </defs>
  <polygon
     points="9 17 1 13 1 21"
     id="polygon1" />
  <polygon
     points="17 17 9 13 9 21"
     id="polygon2" />
  <rect
     x="31"
     y="3"
     width="66"
     height="32"
     rx="10"
     id="rect2" />
  <rect
     x="29"
     y="1"
     width="66"
     height="32"
     class="terminal"
     rx="10"
     id="rect3" />
  <text
     class="terminal"
     x="39"
     y="21"
     id="text3">GRANT</text>
  <rect
     x="65"
     y="69"
     width="72"
     height="32"
     rx="10"
     id="rect4" />
  <rect
     x="63"
     y="67"
     width="72"
     height="32"
     class="terminal"
     rx="10"
     id="rect5" />
  <text
     class="terminal"
     x="73"
     y="87"
     id="text5">CREATE</text>
  <rect
     x="65"
     y="113"
     width="62"
     height="32"
     rx="10"
     id="rect6" />
  <rect
     x="63"
     y="111"
     width="62"
     height="32"
     class="terminal"
     rx="10"
     id="rect7" />
  <text
     class="terminal"
     x="73"
     y="131"
     id="text7">ALTER</text>
  <rect
     x="65"
     y="157"
     width="58"
     height="32"
     rx="10"
     id="rect8" />
  <rect
     x="63"
     y="155"
     width="58"
     height="32"
     class="terminal"
     rx="10"
     id="rect9" />
  <text
     class="terminal"
     x="73"
     y="175"
     id="text9">DROP</text>
  <rect
     x="177"
     y="69"
     width="56"
     height="32"
     rx="10"
     id="rect10" />
  <rect
     x="175"
     y="67"
     width="56"
     height="32"
     class="terminal"
     rx="10"
     id="rect11" />
  <text
     class="terminal"
     x="185"
     y="87"
     id="text11">USER</text>
  <rect
     x="65"
     y="201"
     width="62"
     height="32"
     rx="10"
     id="rect12" />
  <rect
     x="63"
     y="199"
     width="62"
     height="32"
     class="terminal"
     rx="10"
     id="rect13" />
  <text
     class="terminal"
     x="73"
     y="219"
     id="text13">ALTER</text>
  <rect
     x="65"
     y="245"
     width="58"
     height="32"
     rx="10"
     id="rect14" />
  <rect
     x="63"
     y="243"
     width="58"
     height="32"
     class="terminal"
     rx="10"
     id="rect15" />
  <text
     class="terminal"
     x="73"
     y="263"
     id="text15">DROP</text>
  <rect
     x="167"
     y="201"
     width="40"
     height="32"
     rx="10"
     id="rect16" />
  <rect
     x="165"
     y="199"
     width="40"
     height="32"
     class="terminal"
     rx="10"
     id="rect17" />
  <text
     class="terminal"
     x="175"
     y="219"
     id="text17">ON</text>
  <rect
     x="227"
     y="201"
     width="56"
     height="32"
     rx="10"
     id="rect18" />
  <rect
     x="225"
     y="199"
     width="56"
     height="32"
     class="terminal"
     rx="10"
     id="rect19" />
  <text
     class="terminal"
     x="235"
     y="219"
     id="text19">USER</text>
  <a
     xlink:href="../object"
     xlink:title="user"
     id="a21">
    <rect
       x="303"
       y="201"
       width="48"
       height="32"
       id="rect20" />
    <rect
       x="301"
       y="199"
       width="48"
       height="32"
       class="nonterminal"
       id="rect21" />
    <text
       class="nonterminal"
       x="311"
       y="219"
       id="text21">user</text>
  </a>
  <rect
     x="65"
     y="289"
     width="72"
     height="32"
     rx="10"
     id="rect22" />
  <rect
     x="63"
     y="287"
     width="72"
     height="32"
     class="terminal"
     rx="10"
     id="rect23" />
  <text
     class="terminal"
     x="73"
     y="307"
     id="text23">CREATE</text>
  <rect
     x="65"
     y="333"
     width="58"
     height="32"
     rx="10"
     id="rect24" />
  <rect
     x="63"
     y="331"
     width="58"
     height="32"
     class="terminal"
     rx="10"
     id="rect25" />
  <text
     class="terminal"
     x="73"
     y="351"
     id="text25">DROP</text>
  <rect
     x="177"
     y="289"
     width="56"
     height="32"
     rx="10"
     id="rect26" />
  <rect
     x="175"
     y="287"
     width="56"
     height="32"
     class="terminal"
     rx="10"
     id="rect27" />
  <text
     class="terminal"
     x="185"
     y="307"
     id="text27">ROLE</text>
  <rect
     x="65"
     y="409"
     width="58"
     height="32"
     rx="10"
     id="rect28" />
  <rect
     x="63"
     y="407"
     width="58"
     height="32"
     class="terminal"
     rx="10"
     id="rect29" />
  <text
     class="terminal"
     x="73"
     y="427"
     id="text29">DROP</text>
  <rect
     x="143"
     y="409"
     width="40"
     height="32"
     rx="10"
     id="rect30" />
  <rect
     x="141"
     y="407"
     width="40"
     height="32"
     class="terminal"
     rx="10"
     id="rect31" />
  <text
     class="terminal"
     x="151"
     y="427"
     id="text31">ON</text>
  <rect
     x="203"
     y="409"
     width="56"
     height="32"
     rx="10"
     id="rect32" />
  <rect
     x="201"
     y="407"
     width="56"
     height="32"
     class="terminal"
     rx="10"
     id="rect33" />
  <text
     class="terminal"
     x="211"
     y="427"
     id="text33">ROLE</text>
  <a
     xlink:href="../object"
     xlink:title="role"
     id="a35">
    <rect
       x="299"
       y="377"
       width="44"
       height="32"
       id="rect34" />
    <rect
       x="297"
       y="375"
       width="44"
       height="32"
       class="nonterminal"
       id="rect35" />
    <text
       class="nonterminal"
       x="307"
       y="395"
       id="text35">role</text>
  </a>
  <rect
     x="65"
     y="453"
     width="72"
     height="32"
     rx="10"
     id="rect36" />
  <rect
     x="63"
     y="451"
     width="72"
     height="32"
     class="terminal"
     rx="10"
     id="rect37" />
  <text
     class="terminal"
     x="73"
     y="471"
     id="text37">CREATE</text>
  <rect
     x="65"
     y="497"
     width="62"
     height="32"
     rx="10"
     id="rect38" />
  <rect
     x="63"
     y="495"
     width="62"
     height="32"
     class="terminal"
     rx="10"
     id="rect39" />
  <text
     class="terminal"
     x="73"
     y="515"
     id="text39">ALTER</text>
  <rect
     x="65"
     y="541"
     width="58"
     height="32"
     rx="10"
     id="rect40" />
  <rect
     x="63"
     y="539"
     width="58"
     height="32"
     class="terminal"
     rx="10"
     id="rect41" />
  <text
     class="terminal"
     x="73"
     y="559"
     id="text41">DROP</text>
  <rect
     x="65"
     y="585"
     width="56"
     height="32"
     rx="10"
     id="rect42" />
  <rect
     x="63"
     y="583"
     width="56"
     height="32"
     class="terminal"
     rx="10"
     id="rect43" />
  <text
     class="terminal"
     x="73"
     y="603"
     id="text43">READ</text>
  <rect
     x="65"
     y="629"
     width="66"
     height="32"
     rx="10"
     id="rect44" />
  <rect
     x="63"
     y="627"
     width="66"
     height="32"
     class="terminal"
     rx="10"
     id="rect45" />
  <text
     class="terminal"
     x="73"
     y="647"
     id="text45">WRITE</text>
  <rect
     x="177"
     y="453"
     width="62"
     height="32"
     rx="10"
     id="rect46" />
  <rect
     x="175"
     y="451"
     width="62"
     height="32"
     class="terminal"
     rx="10"
     id="rect47" />
  <text
     class="terminal"
     x="185"
     y="471"
     id="text47">TABLE</text>
  <rect
     x="65"
     y="673"
     width="62"
     height="32"
     rx="10"
     id="rect48" />
  <rect
     x="63"
     y="671"
     width="62"
     height="32"
     class="terminal"
     rx="10"
     id="rect49" />
  <text
     class="terminal"
     x="73"
     y="691"
     id="text49">ALTER</text>
  <rect
     x="65"
     y="717"
     width="58"
     height="32"
     rx="10"
     id="rect50" />
  <rect
     x="63"
     y="715"
     width="58"
     height="32"
     class="terminal"
     rx="10"
     id="rect51" />
  <text
     class="terminal"
     x="73"
     y="735"
     id="text51">DROP</text>
  <rect
     x="65"
     y="761"
     width="56"
     height="32"
     rx="10"
     id="rect52" />
  <rect
     x="63"
     y="759"
     width="56"
     height="32"
     class="terminal"
     rx="10"
     id="rect53" />
  <text
     class="terminal"
     x="73"
     y="779"
     id="text53">READ</text>
  <rect
     x="65"
     y="805"
     width="66"
     height="32"
     rx="10"
     id="rect54" />
  <rect
     x="63"
     y="803"
     width="66"
     height="32"
     class="terminal"
     rx="10"
     id="rect55" />
  <text
     class="terminal"
     x="73"
     y="823"
     id="text55">WRITE</text>
  <rect
     x="171"
     y="673"
     width="40"
     height="32"
     rx="10"
     id="rect56" />
  <rect
     x="169"
     y="671"
     width="40"
     height="32"
     class="terminal"
     rx="10"
     id="rect57" />
  <text
     class="terminal"
     x="179"
     y="691"
     id="text57">ON</text>
  <rect
     x="231"
     y="673"
     width="62"
     height="32"
     rx="10"
     id="rect58" />
  <rect
     x="229"
     y="671"
     width="62"
     height="32"
     class="terminal"
     rx="10"
     id="rect59" />
  <text
     class="terminal"
     x="239"
     y="691"
     id="text59">TABLE</text>
  <a
     xlink:href="../object"
     xlink:title="table"
     id="a61">
    <rect
       x="313"
       y="673"
       width="52"
       height="32"
       id="rect60" />
    <rect
       x="311"
       y="671"
       width="52"
       height="32"
       class="nonterminal"
       id="rect61" />
    <text
       class="nonterminal"
       x="321"
       y="691"
       id="text61">table</text>
  </a>
  <rect
     x="65"
     y="849"
     width="72"
     height="32"
     rx="10"
     id="rect62" />
  <rect
     x="63"
     y="847"
     width="72"
     height="32"
     class="terminal"
     rx="10"
     id="rect63" />
  <text
     class="terminal"
     x="73"
     y="867"
     id="text63">CREATE</text>
  <rect
     x="65"
     y="893"
     width="80"
     height="32"
     rx="10"
     id="rect64" />
  <rect
     x="63"
     y="891"
     width="80"
     height="32"
     class="terminal"
     rx="10"
     id="rect65" />
  <text
     class="terminal"
     x="73"
     y="911"
     id="text65">EXECUTE</text>
  <rect
     x="65"
     y="937"
     width="58"
     height="32"
     rx="10"
     id="rect66" />
  <rect
     x="63"
     y="935"
     width="58"
     height="32"
     class="terminal"
     rx="10"
     id="rect67" />
  <text
     class="terminal"
     x="73"
     y="955"
     id="text67">DROP</text>
  <rect
     x="185"
     y="849"
     width="104"
     height="32"
     rx="10"
     id="rect68" />
  <rect
     x="183"
     y="847"
     width="104"
     height="32"
     class="terminal"
     rx="10"
     id="rect69" />
  <text
     class="terminal"
     x="193"
     y="867"
     id="text69">PROCEDURE</text>
  <rect
     x="65"
     y="1025"
     width="80"
     height="32"
     rx="10"
     id="rect70" />
  <rect
     x="63"
     y="1023"
     width="80"
     height="32"
     class="terminal"
     rx="10"
     id="rect71" />
  <text
     class="terminal"
     x="73"
     y="1043"
     id="text71">EXECUTE</text>
  <rect
     x="65"
     y="1069"
     width="58"
     height="32"
     rx="10"
     id="rect72" />
  <rect
     x="63"
     y="1067"
     width="58"
     height="32"
     class="terminal"
     rx="10"
     id="rect73" />
  <text
     class="terminal"
     x="73"
     y="1087"
     id="text73">DROP</text>
  <rect
     x="185"
     y="1025"
     width="40"
     height="32"
     rx="10"
     id="rect74" />
  <rect
     x="183"
     y="1023"
     width="40"
     height="32"
     class="terminal"
     rx="10"
     id="rect75" />
  <text
     class="terminal"
     x="193"
     y="1043"
     id="text75">ON</text>
  <rect
     x="245"
     y="1025"
     width="104"
     height="32"
     rx="10"
     id="rect76" />
  <rect
     x="243"
     y="1023"
     width="104"
     height="32"
     class="terminal"
     rx="10"
     id="rect77" />
  <text
     class="terminal"
     x="253"
     y="1043"
     id="text77">PROCEDURE</text>
  <a
     xlink:href="../object"
     xlink:title="procedure"
     id="a79">
    <rect
       x="369"
       y="1025"
       width="84"
       height="32"
       id="rect78" />
    <rect
       x="367"
       y="1023"
       width="84"
       height="32"
       class="nonterminal"
       id="rect79" />
    <text
       class="nonterminal"
       x="377"
       y="1043"
       id="text79">procedure</text>
  </a>
  <rect
     x="493"
     y="1025"
     width="26"
     height="32"
     rx="10"
     id="rect80" />
  <rect
     x="491"
     y="1023"
     width="26"
     height="32"
     class="terminal"
     rx="10"
     id="rect81" />
  <text
     class="terminal"
     x="501"
     y="1043"
     id="text81">(</text>
  <a
     xlink:href="#unrestricted_type"
     xlink:title="unrestricted_type"
     id="a83">
    <rect
       x="559"
       y="1025"
       width="132"
       height="32"
       id="rect82" />
    <rect
       x="557"
       y="1023"
       width="132"
       height="32"
       class="nonterminal"
       id="rect83" />
    <text
       class="nonterminal"
       x="567"
       y="1043"
       id="text83">unrestricted_type</text>
  </a>
  <rect
     x="559"
     y="981"
     width="24"
     height="32"
     rx="10"
     id="rect84" />
  <rect
     x="557"
     y="979"
     width="24"
     height="32"
     class="terminal"
     rx="10"
     id="rect85" />
  <text
     class="terminal"
     x="567"
     y="999"
     id="text85">,</text>
  <rect
     x="731"
     y="1025"
     width="26"
     height="32"
     rx="10"
     id="rect86" />
  <rect
     x="729"
     y="1023"
     width="26"
     height="32"
     class="terminal"
     rx="10"
     id="rect87" />
  <text
     class="terminal"
     x="739"
     y="1043"
     id="text87">)</text>
  <rect
     x="817"
     y="69"
     width="38"
     height="32"
     rx="10"
     id="rect88" />
  <rect
     x="815"
     y="67"
     width="38"
     height="32"
     class="terminal"
     rx="10"
     id="rect89" />
  <text
     class="terminal"
     x="825"
     y="87"
     id="text89">TO</text>
  <a
     xlink:href="../object"
     xlink:title="role"
     id="a91">
    <rect
       x="319"
       y="1135"
       width="44"
       height="32"
       id="rect90" />
    <rect
       x="317"
       y="1133"
       width="44"
       height="32"
       class="nonterminal"
       id="rect91" />
    <text
       class="nonterminal"
       x="327"
       y="1153"
       id="text91">role</text>
  </a>
  <a
     xlink:href="../object"
     xlink:title="user"
     id="a93">
    <rect
       x="319"
       y="1179"
       width="48"
       height="32"
       id="rect92" />
    <rect
       x="317"
       y="1177"
       width="48"
       height="32"
       class="nonterminal"
       id="rect93" />
    <text
       class="nonterminal"
       x="327"
       y="1197"
       id="text93">user</text>
  </a>
  <rect
     x="427"
     y="1167"
     width="76"
     height="32"
     rx="10"
     id="rect94" />
  <rect
     x="425"
     y="1165"
     width="76"
     height="32"
     class="terminal"
     rx="10"
     id="rect95" />
  <text
     class="terminal"
     x="435"
     y="1185"
     id="text95">OPTION</text>
  <rect
     x="523"
     y="1167"
     width="26"
     height="32"
     rx="10"
     id="rect96" />
  <rect
     x="521"
     y="1165"
     width="26"
     height="32"
     class="terminal"
     rx="10"
     id="rect97" />
  <text
     class="terminal"
     x="531"
     y="1185"
     id="text97">(</text>
  <rect
     x="569"
     y="1167"
     width="82"
     height="32"
     rx="10"
     id="rect98" />
  <rect
     x="567"
     y="1165"
     width="82"
     height="32"
     class="terminal"
     rx="10"
     id="rect99" />
  <text
     class="terminal"
     x="577"
     y="1185"
     id="text99">TIMEOUT</text>
  <rect
     x="671"
     y="1167"
     width="30"
     height="32"
     rx="10"
     id="rect100" />
  <rect
     x="669"
     y="1165"
     width="30"
     height="32"
     class="terminal"
     rx="10"
     id="rect101" />
  <text
     class="terminal"
     x="679"
     y="1185"
     id="text101">=</text>
  <a
     xlink:href="../../sql_types#double"
     xlink:title="double"
     id="a103">
    <rect
       x="721"
       y="1167"
       width="62"
       height="32"
       id="rect102" />
    <rect
       x="719"
       y="1165"
       width="62"
       height="32"
       class="nonterminal"
       id="rect103" />
    <text
       class="nonterminal"
       x="729"
       y="1185"
       id="text103">double</text>
  </a>
  <rect
     x="803"
     y="1167"
     width="26"
     height="32"
     rx="10"
     id="rect104" />
  <rect
     x="801"
     y="1165"
     width="26"
     height="32"
     class="terminal"
     rx="10"
     id="rect105" />
  <text
     class="terminal"
     x="811"
     y="1185"
     id="text105">)</text>
  <path
     class="line"
     d="m17 17 h2 m0 0 h10 m66 0 h10 m2 0 l2 0 m2 0 l2 0 m2 0 l2 0 m-116 66 l2 0 m2 0 l2 0 m2 0 l2 0 m42 0 h10 m72 0 h10 m-112 0 h20 m92 0 h20 m-132 0 q10 0 10 10 m112 0 q0 -10 10 -10 m-122 10 v24 m112 0 v-24 m-112 24 q0 10 10 10 m92 0 q10 0 10 -10 m-102 10 h10 m62 0 h10 m0 0 h10 m-102 -10 v20 m112 0 v-20 m-112 20 v24 m112 0 v-24 m-112 24 q0 10 10 10 m92 0 q10 0 10 -10 m-102 10 h10 m58 0 h10 m0 0 h14 m20 -88 h10 m56 0 h10 m0 0 h544 m-772 0 h20 m752 0 h20 m-792 0 q10 0 10 10 m772 0 q0 -10 10 -10 m-782 10 v112 m772 0 v-112 m-772 112 q0 10 10 10 m752 0 q10 0 10 -10 m-742 10 h10 m62 0 h10 m-102 0 h20 m82 0 h20 m-122 0 q10 0 10 10 m102 0 q0 -10 10 -10 m-112 10 v24 m102 0 v-24 m-102 24 q0 10 10 10 m82 0 q10 0 10 -10 m-92 10 h10 m58 0 h10 m0 0 h4 m20 -44 h10 m40 0 h10 m0 0 h10 m56 0 h10 m0 0 h10 m48 0 h10 m0 0 h426 m-762 -10 v20 m772 0 v-20 m-772 20 v68 m772 0 v-68 m-772 68 q0 10 10 10 m752 0 q10 0 10 -10 m-742 10 h10 m72 0 h10 m-112 0 h20 m92 0 h20 m-132 0 q10 0 10 10 m112 0 q0 -10 10 -10 m-122 10 v24 m112 0 v-24 m-112 24 q0 10 10 10 m92 0 q10 0 10 -10 m-102 10 h10 m58 0 h10 m0 0 h14 m20 -44 h10 m56 0 h10 m0 0 h544 m-762 -10 v20 m772 0 v-20 m-772 20 v68 m772 0 v-68 m-772 68 q0 10 10 10 m752 0 q10 0 10 -10 m-742 10 h10 m0 0 h204 m-234 0 h20 m214 0 h20 m-254 0 q10 0 10 10 m234 0 q0 -10 10 -10 m-244 10 v12 m234 0 v-12 m-234 12 q0 10 10 10 m214 0 q10 0 10 -10 m-224 10 h10 m58 0 h10 m0 0 h10 m40 0 h10 m0 0 h10 m56 0 h10 m20 -32 h10 m44 0 h10 m0 0 h434 m-762 -10 v20 m772 0 v-20 m-772 20 v56 m772 0 v-56 m-772 56 q0 10 10 10 m752 0 q10 0 10 -10 m-742 10 h10 m72 0 h10 m-112 0 h20 m92 0 h20 m-132 0 q10 0 10 10 m112 0 q0 -10 10 -10 m-122 10 v24 m112 0 v-24 m-112 24 q0 10 10 10 m92 0 q10 0 10 -10 m-102 10 h10 m62 0 h10 m0 0 h10 m-102 -10 v20 m112 0 v-20 m-112 20 v24 m112 0 v-24 m-112 24 q0 10 10 10 m92 0 q10 0 10 -10 m-102 10 h10 m58 0 h10 m0 0 h14 m-102 -10 v20 m112 0 v-20 m-112 20 v24 m112 0 v-24 m-112 24 q0 10 10 10 m92 0 q10 0 10 -10 m-102 10 h10 m56 0 h10 m0 0 h16 m-102 -10 v20 m112 0 v-20 m-112 20 v24 m112 0 v-24 m-112 24 q0 10 10 10 m92 0 q10 0 10 -10 m-102 10 h10 m66 0 h10 m0 0 h6 m20 -176 h10 m62 0 h10 m0 0 h538 m-762 -10 v20 m772 0 v-20 m-772 20 v200 m772 0 v-200 m-772 200 q0 10 10 10 m752 0 q10 0 10 -10 m-742 10 h10 m62 0 h10 m0 0 h4 m-106 0 h20 m86 0 h20 m-126 0 q10 0 10 10 m106 0 q0 -10 10 -10 m-116 10 v24 m106 0 v-24 m-106 24 q0 10 10 10 m86 0 q10 0 10 -10 m-96 10 h10 m58 0 h10 m0 0 h8 m-96 -10 v20 m106 0 v-20 m-106 20 v24 m106 0 v-24 m-106 24 q0 10 10 10 m86 0 q10 0 10 -10 m-96 10 h10 m56 0 h10 m0 0 h10 m-96 -10 v20 m106 0 v-20 m-106 20 v24 m106 0 v-24 m-106 24 q0 10 10 10 m86 0 q10 0 10 -10 m-96 10 h10 m66 0 h10 m20 -132 h10 m40 0 h10 m0 0 h10 m62 0 h10 m0 0 h10 m52 0 h10 m0 0 h412 m-762 -10 v20 m772 0 v-20 m-772 20 v156 m772 0 v-156 m-772 156 q0 10 10 10 m752 0 q10 0 10 -10 m-742 10 h10 m72 0 h10 m0 0 h8 m-120 0 h20 m100 0 h20 m-140 0 q10 0 10 10 m120 0 q0 -10 10 -10 m-130 10 v24 m120 0 v-24 m-120 24 q0 10 10 10 m100 0 q10 0 10 -10 m-110 10 h10 m80 0 h10 m-110 -10 v20 m120 0 v-20 m-120 20 v24 m120 0 v-24 m-120 24 q0 10 10 10 m100 0 q10 0 10 -10 m-110 10 h10 m58 0 h10 m0 0 h22 m20 -88 h10 m104 0 h10 m0 0 h488 m-762 -10 v20 m772 0 v-20 m-772 20 v156 m772 0 v-156 m-772 156 q0 10 10 10 m752 0 q10 0 10 -10 m-742 10 h10 m80 0 h10 m-120 0 h20 m100 0 h20 m-140 0 q10 0 10 10 m120 0 q0 -10 10 -10 m-130 10 v24 m120 0 v-24 m-120 24 q0 10 10 10 m100 0 q10 0 10 -10 m-110 10 h10 m58 0 h10 m0 0 h22 m20 -44 h10 m40 0 h10 m0 0 h10 m104 0 h10 m0 0 h10 m84 0 h10 m20 0 h10 m26 0 h10 m20 0 h10 m132 0 h10 m-172 0 l20 0 m-1 0 q-9 0 -9 -10 l0 -24 q0 -10 10 -10 m152 44 l20 0 m-20 0 q10 0 10 -10 l0 -24 q0 -10 -10 -10 m-152 0 h10 m24 0 h10 m0 0 h108 m20 44 h10 m26 0 h10 m-304 0 h20 m284 0 h20 m-324 0 q10 0 10 10 m304 0 q0 -10 10 -10 m-314 10 v14 m304 0 v-14 m-304 14 q0 10 10 10 m284 0 q10 0 10 -10 m-294 10 h10 m0 0 h274 m40 -990 h10 m38 0 h10 m2 0 l2 0 m2 0 l2 0 m2 0 l2 0 m-600 1066 l2 0 m2 0 l2 0 m2 0 l2 0 m22 0 h10 m44 0 h10 m0 0 h4 m-88 0 h20 m68 0 h20 m-108 0 q10 0 10 10 m88 0 q0 -10 10 -10 m-98 10 v24 m88 0 v-24 m-88 24 q0 10 10 10 m68 0 q10 0 10 -10 m-78 10 h10 m48 0 h10 m40 -44 h10 m0 0 h412 m-442 0 h20 m422 0 h20 m-462 0 q10 0 10 10 m442 0 q0 -10 10 -10 m-452 10 v12 m442 0 v-12 m-442 12 q0 10 10 10 m422 0 q10 0 10 -10 m-432 10 h10 m76 0 h10 m0 0 h10 m26 0 h10 m0 0 h10 m82 0 h10 m0 0 h10 m30 0 h10 m0 0 h10 m62 0 h10 m0 0 h10 m26 0 h10 m23 -32 h-3"
     id="path105" />
  <polygon
     points="867 1149 875 1145 875 1153"
     id="polygon105" />
  <polygon
     points="867 1149 859 1145 859 1153"
     id="polygon106" />
</svg>
