<?xml version="1.0" encoding="UTF-8" standalone="no"?>
<svg
   width="579"
   height="69"
   viewBox="0 0 579 69"
   version="1.1"
   id="svg12"
   sodipodi:docname="ilike.svg"
   inkscape:version="1.3.2 (091e20ef0f, 2023-11-25)"
   xmlns:inkscape="http://www.inkscape.org/namespaces/inkscape"
   xmlns:sodipodi="http://sodipodi.sourceforge.net/DTD/sodipodi-0.dtd"
   xmlns:xlink="http://www.w3.org/1999/xlink"
   xmlns="http://www.w3.org/2000/svg"
   xmlns:svg="http://www.w3.org/2000/svg">
  <sodipodi:namedview
     id="namedview12"
     pagecolor="#ffffff"
     bordercolor="#666666"
     borderopacity="1.0"
     inkscape:showpageshadow="2"
     inkscape:pageopacity="0.0"
     inkscape:pagecheckerboard="0"
     inkscape:deskcolor="#d1d1d1"
     inkscape:zoom="0.40759931"
     inkscape:cx="288.27331"
     inkscape:cy="34.347458"
     inkscape:window-width="1858"
     inkscape:window-height="1014"
     inkscape:window-x="62"
     inkscape:window-y="29"
     inkscape:window-maximized="1"
     inkscape:current-layer="svg12" />
  <defs
     id="defs1">
    <style
       type="text/css"
       id="style1">@namespace &quot;http://www.w3.org/2000/svg&quot;;.line { fill: none; stroke: #330000; stroke-width: 1; }
.bold-line { stroke: #140000; shape-rendering: crispEdges; stroke-width: 2; }
.thin-line { stroke: #1F0000; shape-rendering: crispEdges }
.filled { fill: #330000; stroke: none; }
text.terminal { font-family: Verdana, Sans-serif;                            font-size: 12px;                            fill: #140000;                            font-weight: bold; }
text.nonterminal { font-family: Verdana, Sans-serif;                            font-size: 12px;                            fill: #1A0000;                            font-weight: normal; }
text.regexp { font-family: Verdana, Sans-serif;                            font-size: 12px;                            fill: #1F0000;                            font-weight: normal; }
rect, circle, polygon { fill: #330000; stroke: #330000; }
rect.terminal { fill: #FF4D4D; stroke: #330000; stroke-width: 1; }
rect.nonterminal { fill: #FF9E9E; stroke: #330000; stroke-width: 1; }
rect.text { fill: none; stroke: none; }
polygon.regexp { fill: #FFC7C7; stroke: #330000; stroke-width: 1; }
</style>
  </defs>
  <polygon
     points="9 17 1 13 1 21"
     id="polygon1" />
  <polygon
     points="17 17 9 13 9 21"
     id="polygon2" />
  <a
     xlink:href="#expression"
     xlink:title="expression"
     id="a3">
    <rect
       x="31"
       y="3"
       width="90"
       height="32"
       id="rect2" />
    <rect
       x="29"
       y="1"
       width="90"
       height="32"
       class="nonterminal"
       id="rect3" />
    <text
       class="nonterminal"
       x="39"
       y="21"
       id="text3">expression</text>
  </a>
  <rect
     x="141"
     y="3"
     width="58"
     height="32"
     rx="10"
     id="rect4" />
  <rect
     x="139"
     y="1"
     width="58"
     height="32"
     class="terminal"
     rx="10"
     id="rect5" />
  <text
     class="terminal"
     x="149"
     y="21"
     id="text5">ILIKE</text>
  <a
     xlink:href="#expression"
     xlink:title="expression"
     id="a7">
    <rect
       x="219"
       y="3"
       width="90"
       height="32"
       id="rect6" />
    <rect
       x="217"
       y="1"
       width="90"
       height="32"
       class="nonterminal"
       id="rect7" />
    <text
       class="nonterminal"
       x="227"
       y="21"
       id="text7">expression</text>
  </a>
  <rect
     x="349"
     y="35"
     width="72"
     height="32"
     rx="10"
     id="rect8" />
  <rect
     x="347"
     y="33"
     width="72"
     height="32"
     class="terminal"
     rx="10"
     id="rect9" />
  <text
     class="terminal"
     x="357"
     y="53"
     id="text9">ESCAPE</text>
  <a
     xlink:href="#expression"
     xlink:title="expression"
     id="a11">
    <rect
       x="441"
       y="35"
       width="90"
       height="32"
       id="rect10" />
    <rect
       x="439"
       y="33"
       width="90"
       height="32"
       class="nonterminal"
       id="rect11" />
    <text
       class="nonterminal"
       x="449"
       y="53"
       id="text11">expression</text>
  </a>
  <path
     class="line"
     d="m17 17 h2 m0 0 h10 m90 0 h10 m0 0 h10 m58 0 h10 m0 0 h10 m90 0 h10 m20 0 h10 m0 0 h192 m-222 0 h20 m202 0 h20 m-242 0 q10 0 10 10 m222 0 q0 -10 10 -10 m-232 10 v12 m222 0 v-12 m-222 12 q0 10 10 10 m202 0 q10 0 10 -10 m-212 10 h10 m72 0 h10 m0 0 h10 m90 0 h10 m23 -32 h-3"
     id="path11" />
  <polygon
     points="569 17 577 13 577 21"
     id="polygon11" />
  <polygon
     points="569 17 561 13 561 21"
     id="polygon12" />
</svg>
