<?xml version="1.0" encoding="UTF-8"?>
<svg xmlns="http://www.w3.org/2000/svg" width="993" height="691" viewBox="0 0 993 691">
   <defs>
      <style type="text/css">
    @namespace "http://www.w3.org/2000/svg";
    .line                 {fill: none; stroke: #330000; stroke-width: 1;}
    .bold-line            {stroke: #140000; shape-rendering: crispEdges; stroke-width: 2;}
    .thin-line            {stroke: #1F0000; shape-rendering: crispEdges}
    .filled               {fill: #330000; stroke: none;}
    text.terminal         {font-family: Verdana, Sans-serif;
                            font-size: 12px;
                            fill: #140000;
                            font-weight: bold;
                          }
    text.nonterminal      {font-family: Verdana, Sans-serif;
                            font-size: 12px;
                            fill: #1A0000;
                            font-weight: normal;
                          }
    text.regexp           {font-family: Verdana, Sans-serif;
                            font-size: 12px;
                            fill: #1F0000;
                            font-weight: normal;
                          }
    rect, circle, polygon {fill: #330000; stroke: #330000;}
    rect.terminal         {fill: #ff4d4d; stroke: #330000; stroke-width: 1;}
    rect.nonterminal      {fill: #FF9E9E; stroke: #330000; stroke-width: 1;}
    rect.text             {fill: none; stroke: none;}
    polygon.regexp        {fill: #FFC7C7; stroke: #330000; stroke-width: 1;}
  </style>
   </defs>
   <polygon points="9 61 1 57 1 65"/>
   <polygon points="17 61 9 57 9 65"/>
   <rect x="31" y="47" width="70" height="32" rx="10"/>
   <rect x="29"
         y="45"
         width="70"
         height="32"
         class="terminal"
         rx="10"/>
   <text class="terminal" x="39" y="65">INSERT</text>
   <rect x="121" y="47" width="56" height="32" rx="10"/>
   <rect x="119"
         y="45"
         width="56"
         height="32"
         class="terminal"
         rx="10"/>
   <text class="terminal" x="129" y="65">INTO</text>
   <a xmlns:xlink="http://www.w3.org/1999/xlink"
      xlink:href="../object"
      xlink:title="table">
      <rect x="197" y="47" width="52" height="32"/>
      <rect x="195" y="45" width="52" height="32" class="nonterminal"/>
      <text class="nonterminal" x="205" y="65">table</text>
   </a>
   <rect x="289" y="47" width="26" height="32" rx="10"/>
   <rect x="287"
         y="45"
         width="26"
         height="32"
         class="terminal"
         rx="10"/>
   <text class="terminal" x="297" y="65">(</text>
   <a xmlns:xlink="http://www.w3.org/1999/xlink"
      xlink:href="../object"
      xlink:title="column">
      <rect x="355" y="47" width="64" height="32"/>
      <rect x="353" y="45" width="64" height="32" class="nonterminal"/>
      <text class="nonterminal" x="363" y="65">column</text>
   </a>
   <rect x="355" y="3" width="24" height="32" rx="10"/>
   <rect x="353"
         y="1"
         width="24"
         height="32"
         class="terminal"
         rx="10"/>
   <text class="terminal" x="363" y="21">,</text>
   <rect x="459" y="47" width="26" height="32" rx="10"/>
   <rect x="457"
         y="45"
         width="26"
         height="32"
         class="terminal"
         rx="10"/>
   <text class="terminal" x="467" y="65">)</text>
   <a xmlns:xlink="http://www.w3.org/1999/xlink"
      xlink:href="../values"
      xlink:title="values">
      <rect x="525" y="47" width="60" height="32"/>
      <rect x="523" y="45" width="60" height="32" class="nonterminal"/>
      <text class="nonterminal" x="533" y="65">values</text>
   </a>
   <rect x="605" y="47" width="40" height="32" rx="10"/>
   <rect x="603"
         y="45"
         width="40"
         height="32"
         class="terminal"
         rx="10"/>
   <text class="terminal" x="613" y="65">ON</text>
   <rect x="665" y="47" width="90" height="32" rx="10"/>
   <rect x="663"
         y="45"
         width="90"
         height="32"
         class="terminal"
         rx="10"/>
   <text class="terminal" x="673" y="65">CONFLICT</text>
   <rect x="775" y="47" width="26" height="32" rx="10"/>
   <rect x="773"
         y="45"
         width="26"
         height="32"
         class="terminal"
         rx="10"/>
   <text class="terminal" x="783" y="65">(</text>
   <a xmlns:xlink="http://www.w3.org/1999/xlink"
      xlink:href="../object"
      xlink:title="column">
      <rect x="841" y="47" width="64" height="32"/>
      <rect x="839" y="45" width="64" height="32" class="nonterminal"/>
      <text class="nonterminal" x="849" y="65">column</text>
   </a>
   <rect x="841" y="3" width="24" height="32" rx="10"/>
   <rect x="839"
         y="1"
         width="24"
         height="32"
         class="terminal"
         rx="10"/>
   <text class="terminal" x="849" y="21">,</text>
   <rect x="945" y="47" width="26" height="32" rx="10"/>
   <rect x="943"
         y="45"
         width="26"
         height="32"
         class="terminal"
         rx="10"/>
   <text class="terminal" x="953" y="65">)</text>
   <rect x="201" y="173" width="40" height="32" rx="10"/>
   <rect x="199"
         y="171"
         width="40"
         height="32"
         class="terminal"
         rx="10"/>
   <text class="terminal" x="209" y="191">DO</text>
   <rect x="261" y="173" width="74" height="32" rx="10"/>
   <rect x="259"
         y="171"
         width="74"
         height="32"
         class="terminal"
         rx="10"/>
   <text class="terminal" x="269" y="191">UPDATE</text>
   <rect x="355" y="173" width="44" height="32" rx="10"/>
   <rect x="353"
         y="171"
         width="44"
         height="32"
         class="terminal"
         rx="10"/>
   <text class="terminal" x="363" y="191">SET</text>
   <a xmlns:xlink="http://www.w3.org/1999/xlink"
      xlink:href="../object"
      xlink:title="column">
      <rect x="439" y="173" width="64" height="32"/>
      <rect x="437" y="171" width="64" height="32" class="nonterminal"/>
      <text class="nonterminal" x="447" y="191">column</text>
   </a>
   <rect x="523" y="173" width="30" height="32" rx="10"/>
   <rect x="521"
         y="171"
         width="30"
         height="32"
         class="terminal"
         rx="10"/>
   <text class="terminal" x="531" y="191">=</text>
   <a xmlns:xlink="http://www.w3.org/1999/xlink"
      xlink:href="../object"
      xlink:title="column">
      <rect x="593" y="173" width="64" height="32"/>
      <rect x="591" y="171" width="64" height="32" class="nonterminal"/>
      <text class="nonterminal" x="601" y="191">column</text>
   </a>
   <rect x="717" y="173" width="30" height="32" rx="10"/>
   <rect x="715"
         y="171"
         width="30"
         height="32"
         class="terminal"
         rx="10"/>
   <text class="terminal" x="725" y="191">+</text>
   <rect x="717" y="217" width="26" height="32" rx="10"/>
   <rect x="715"
         y="215"
         width="26"
         height="32"
         class="terminal"
         rx="10"/>
   <text class="terminal" x="725" y="235">-</text>
   <a xmlns:xlink="http://www.w3.org/1999/xlink"
      xlink:href="../../sql_types#integer"
      xlink:title="integer">
      <rect x="807" y="173" width="64" height="32"/>
      <rect x="805" y="171" width="64" height="32" class="nonterminal"/>
      <text class="nonterminal" x="815" y="191">integer</text>
   </a>
   <a xmlns:xlink="http://www.w3.org/1999/xlink"
      xlink:href="../../sql_types#unsigned"
      xlink:title="unsigned">
      <rect x="807" y="217" width="78" height="32"/>
      <rect x="805" y="215" width="78" height="32" class="nonterminal"/>
      <text class="nonterminal" x="815" y="235">unsigned</text>
   </a>
   <a xmlns:xlink="http://www.w3.org/1999/xlink"
      xlink:href="../../sql_types#decimal"
      xlink:title="decimal">
      <rect x="807" y="261" width="68" height="32"/>
      <rect x="805" y="259" width="68" height="32" class="nonterminal"/>
      <text class="nonterminal" x="815" y="279">decimal</text>
   </a>
   <a xmlns:xlink="http://www.w3.org/1999/xlink"
      xlink:href="../../sql_types#double"
      xlink:title="double">
      <rect x="807" y="305" width="62" height="32"/>
      <rect x="805" y="303" width="62" height="32" class="nonterminal"/>
      <text class="nonterminal" x="815" y="323">double</text>
   </a>
   <rect x="717" y="349" width="48" height="32" rx="10"/>
   <rect x="715"
         y="347"
         width="48"
         height="32"
         class="terminal"
         rx="10"/>
   <text class="terminal" x="725" y="367">AND</text>
   <rect x="717" y="393" width="40" height="32" rx="10"/>
   <rect x="715"
         y="391"
         width="40"
         height="32"
         class="terminal"
         rx="10"/>
   <text class="terminal" x="725" y="411">OR</text>
   <a xmlns:xlink="http://www.w3.org/1999/xlink"
      xlink:href="../../sql_types#boolean"
      xlink:title="boolean">
      <rect x="805" y="349" width="70" height="32"/>
      <rect x="803" y="347" width="70" height="32" class="nonterminal"/>
      <text class="nonterminal" x="813" y="367">boolean</text>
   </a>
   <a xmlns:xlink="http://www.w3.org/1999/xlink"
      xlink:href="../../sql_types#integer"
      xlink:title="integer">
      <rect x="633" y="437" width="64" height="32"/>
      <rect x="631" y="435" width="64" height="32" class="nonterminal"/>
      <text class="nonterminal" x="641" y="455">integer</text>
   </a>
   <a xmlns:xlink="http://www.w3.org/1999/xlink"
      xlink:href="../../sql_types#unsigned"
      xlink:title="unsigned">
      <rect x="633" y="481" width="78" height="32"/>
      <rect x="631" y="479" width="78" height="32" class="nonterminal"/>
      <text class="nonterminal" x="641" y="499">unsigned</text>
   </a>
   <a xmlns:xlink="http://www.w3.org/1999/xlink"
      xlink:href="../../sql_types#decimal"
      xlink:title="decimal">
      <rect x="633" y="525" width="68" height="32"/>
      <rect x="631" y="523" width="68" height="32" class="nonterminal"/>
      <text class="nonterminal" x="641" y="543">decimal</text>
   </a>
   <a xmlns:xlink="http://www.w3.org/1999/xlink"
      xlink:href="../../sql_types#double"
      xlink:title="double">
      <rect x="633" y="569" width="62" height="32"/>
      <rect x="631" y="567" width="62" height="32" class="nonterminal"/>
      <text class="nonterminal" x="641" y="587">double</text>
   </a>
   <rect x="751" y="437" width="30" height="32" rx="10"/>
   <rect x="749"
         y="435"
         width="30"
         height="32"
         class="terminal"
         rx="10"/>
   <text class="terminal" x="759" y="455">+</text>
   <a xmlns:xlink="http://www.w3.org/1999/xlink"
      xlink:href="../../sql_types#boolean"
      xlink:title="boolean">
      <rect x="613" y="613" width="70" height="32"/>
      <rect x="611" y="611" width="70" height="32" class="nonterminal"/>
      <text class="nonterminal" x="621" y="631">boolean</text>
   </a>
   <rect x="723" y="613" width="48" height="32" rx="10"/>
   <rect x="721"
         y="611"
         width="48"
         height="32"
         class="terminal"
         rx="10"/>
   <text class="terminal" x="731" y="631">AND</text>
   <rect x="723" y="657" width="40" height="32" rx="10"/>
   <rect x="721"
         y="655"
         width="40"
         height="32"
         class="terminal"
         rx="10"/>
   <text class="terminal" x="731" y="675">OR</text>
   <a xmlns:xlink="http://www.w3.org/1999/xlink"
      xlink:href="../object"
      xlink:title="column">
      <rect x="831" y="437" width="64" height="32"/>
      <rect x="829" y="435" width="64" height="32" class="nonterminal"/>
      <text class="nonterminal" x="839" y="455">column</text>
   </a>
   <rect x="439" y="129" width="24" height="32" rx="10"/>
   <rect x="437"
         y="127"
         width="24"
         height="32"
         class="terminal"
         rx="10"/>
   <text class="terminal" x="447" y="147">,</text>
   <path class="line"
         d="m17 61 h2 m0 0 h10 m70 0 h10 m0 0 h10 m56 0 h10 m0 0 h10 m52 0 h10 m20 0 h10 m26 0 h10 m20 0 h10 m64 0 h10 m-104 0 l20 0 m-1 0 q-9 0 -9 -10 l0 -24 q0 -10 10 -10 m84 44 l20 0 m-20 0 q10 0 10 -10 l0 -24 q0 -10 -10 -10 m-84 0 h10 m24 0 h10 m0 0 h40 m20 44 h10 m26 0 h10 m-236 0 h20 m216 0 h20 m-256 0 q10 0 10 10 m236 0 q0 -10 10 -10 m-246 10 v14 m236 0 v-14 m-236 14 q0 10 10 10 m216 0 q10 0 10 -10 m-226 10 h10 m0 0 h206 m20 -34 h10 m60 0 h10 m0 0 h10 m40 0 h10 m0 0 h10 m90 0 h10 m0 0 h10 m26 0 h10 m20 0 h10 m64 0 h10 m-104 0 l20 0 m-1 0 q-9 0 -9 -10 l0 -24 q0 -10 10 -10 m84 44 l20 0 m-20 0 q10 0 10 -10 l0 -24 q0 -10 -10 -10 m-84 0 h10 m24 0 h10 m0 0 h40 m20 44 h10 m26 0 h10 m2 0 l2 0 m2 0 l2 0 m2 0 l2 0 m-814 126 l2 0 m2 0 l2 0 m2 0 l2 0 m2 0 h10 m40 0 h10 m0 0 h10 m74 0 h10 m0 0 h10 m44 0 h10 m20 0 h10 m64 0 h10 m0 0 h10 m30 0 h10 m20 0 h10 m64 0 h10 m40 0 h10 m30 0 h10 m-70 0 h20 m50 0 h20 m-90 0 q10 0 10 10 m70 0 q0 -10 10 -10 m-80 10 v24 m70 0 v-24 m-70 24 q0 10 10 10 m50 0 q10 0 10 -10 m-60 10 h10 m26 0 h10 m0 0 h4 m40 -44 h10 m64 0 h10 m0 0 h14 m-118 0 h20 m98 0 h20 m-138 0 q10 0 10 10 m118 0 q0 -10 10 -10 m-128 10 v24 m118 0 v-24 m-118 24 q0 10 10 10 m98 0 q10 0 10 -10 m-108 10 h10 m78 0 h10 m-108 -10 v20 m118 0 v-20 m-118 20 v24 m118 0 v-24 m-118 24 q0 10 10 10 m98 0 q10 0 10 -10 m-108 10 h10 m68 0 h10 m0 0 h10 m-108 -10 v20 m118 0 v-20 m-118 20 v24 m118 0 v-24 m-118 24 q0 10 10 10 m98 0 q10 0 10 -10 m-108 10 h10 m62 0 h10 m0 0 h16 m-228 -132 h20 m228 0 h20 m-268 0 q10 0 10 10 m248 0 q0 -10 10 -10 m-258 10 v156 m248 0 v-156 m-248 156 q0 10 10 10 m228 0 q10 0 10 -10 m-218 10 h10 m48 0 h10 m-88 0 h20 m68 0 h20 m-108 0 q10 0 10 10 m88 0 q0 -10 10 -10 m-98 10 v24 m88 0 v-24 m-88 24 q0 10 10 10 m68 0 q10 0 10 -10 m-78 10 h10 m40 0 h10 m0 0 h8 m20 -44 h10 m70 0 h10 m0 0 h30 m-352 -176 h20 m352 0 h20 m-392 0 q10 0 10 10 m372 0 q0 -10 10 -10 m-382 10 v244 m372 0 v-244 m-372 244 q0 10 10 10 m352 0 q10 0 10 -10 m-322 10 h10 m64 0 h10 m0 0 h14 m-118 0 h20 m98 0 h20 m-138 0 q10 0 10 10 m118 0 q0 -10 10 -10 m-128 10 v24 m118 0 v-24 m-118 24 q0 10 10 10 m98 0 q10 0 10 -10 m-108 10 h10 m78 0 h10 m-108 -10 v20 m118 0 v-20 m-118 20 v24 m118 0 v-24 m-118 24 q0 10 10 10 m98 0 q10 0 10 -10 m-108 10 h10 m68 0 h10 m0 0 h10 m-108 -10 v20 m118 0 v-20 m-118 20 v24 m118 0 v-24 m-118 24 q0 10 10 10 m98 0 q10 0 10 -10 m-108 10 h10 m62 0 h10 m0 0 h16 m20 -132 h10 m30 0 h10 m0 0 h10 m-218 0 h20 m198 0 h20 m-238 0 q10 0 10 10 m218 0 q0 -10 10 -10 m-228 10 v156 m218 0 v-156 m-218 156 q0 10 10 10 m198 0 q10 0 10 -10 m-208 10 h10 m70 0 h10 m20 0 h10 m48 0 h10 m-88 0 h20 m68 0 h20 m-108 0 q10 0 10 10 m88 0 q0 -10 10 -10 m-98 10 v24 m88 0 v-24 m-88 24 q0 10 10 10 m68 0 q10 0 10 -10 m-78 10 h10 m40 0 h10 m0 0 h8 m40 -220 h10 m64 0 h10 m0 0 h30 m-526 -264 l20 0 m-1 0 q-9 0 -9 -10 l0 -24 q0 -10 10 -10 m526 44 l20 0 m-20 0 q10 0 10 -10 l0 -24 q0 -10 -10 -10 m-526 0 h10 m24 0 h10 m0 0 h482 m23 44 h-3"/>
   <polygon points="983 187 991 183 991 191"/>
   <polygon points="983 187 975 183 975 191"/>
</svg>
