<?xml version="1.0" encoding="UTF-8"?>
<svg xmlns="http://www.w3.org/2000/svg" width="627" height="53" viewBox="0 0 627 53">
   <defs>
      <style type="text/css">
    @namespace "http://www.w3.org/2000/svg";
    .line                 {fill: none; stroke: #330000; stroke-width: 1;}
    .bold-line            {stroke: #140000; shape-rendering: crispEdges; stroke-width: 2;}
    .thin-line            {stroke: #1F0000; shape-rendering: crispEdges}
    .filled               {fill: #330000; stroke: none;}
    text.terminal         {font-family: Verdana, Sans-serif;
                            font-size: 12px;
                            fill: #140000;
                            font-weight: bold;
                          }
    text.nonterminal      {font-family: Verdana, Sans-serif;
                            font-size: 12px;
                            fill: #1A0000;
                            font-weight: normal;
                          }
    text.regexp           {font-family: Verdana, Sans-serif;
                            font-size: 12px;
                            fill: #1F0000;
                            font-weight: normal;
                          }
    rect, circle, polygon {fill: #330000; stroke: #330000;}
    rect.terminal         {fill: #FF4D4D; stroke: #330000; stroke-width: 1;}
    rect.nonterminal      {fill: #FF9E9E; stroke: #330000; stroke-width: 1;}
    rect.text             {fill: none; stroke: none;}
    polygon.regexp        {fill: #FFC7C7; stroke: #330000; stroke-width: 1;}
  </style>
   </defs>
   <polygon points="9 33 1 29 1 37"/>
   <polygon points="17 33 9 29 9 37"/>
   <rect x="31" y="19" width="172" height="32" rx="10"/>
   <rect x="29"
         y="17"
         width="172"
         height="32"
         class="terminal"
         rx="10"/>
   <text class="terminal" x="39" y="37">JSON_EXTRACT_PATH</text>
   <rect x="223" y="19" width="26" height="32" rx="10"/>
   <rect x="221"
         y="17"
         width="26"
         height="32"
         class="terminal"
         rx="10"/>
   <text class="terminal" x="231" y="37">(</text>
   <a xmlns:xlink="http://www.w3.org/1999/xlink"
      xlink:href="#expression"
      xlink:title="expression">
      <rect x="269" y="19" width="90" height="32"/>
      <rect x="267" y="17" width="90" height="32" class="nonterminal"/>
      <text class="nonterminal" x="277" y="37">expression</text>
   </a>
   <rect x="399" y="19" width="24" height="32" rx="10"/>
   <rect x="397"
         y="17"
         width="24"
         height="32"
         class="terminal"
         rx="10"/>
   <text class="terminal" x="407" y="37">,</text>
   <a xmlns:xlink="http://www.w3.org/1999/xlink"
      xlink:href="#expression"
      xlink:title="expression">
      <rect x="443" y="19" width="90" height="32"/>
      <rect x="441" y="17" width="90" height="32" class="nonterminal"/>
      <text class="nonterminal" x="451" y="37">expression</text>
   </a>
   <rect x="573" y="19" width="26" height="32" rx="10"/>
   <rect x="571"
         y="17"
         width="26"
         height="32"
         class="terminal"
         rx="10"/>
   <text class="terminal" x="581" y="37">)</text>
   <path class="line"
         d="m17 33 h2 m0 0 h10 m172 0 h10 m0 0 h10 m26 0 h10 m0 0 h10 m90 0 h10 m20 0 h10 m24 0 h10 m0 0 h10 m90 0 h10 m-174 0 l20 0 m-1 0 q-9 0 -9 -10 l0 -12 q0 -10 10 -10 m154 32 l20 0 m-20 0 q10 0 10 -10 l0 -12 q0 -10 -10 -10 m-154 0 h10 m0 0 h144 m20 32 h10 m26 0 h10 m3 0 h-3"/>
   <polygon points="617 33 625 29 625 37"/>
   <polygon points="617 33 609 29 609 37"/>
</svg>
