<?xml version="1.0" encoding="UTF-8"?>
<svg xmlns="http://www.w3.org/2000/svg" width="225" height="433" viewBox="0 0 225 433">
   <defs>
      <style type="text/css">
    @namespace "http://www.w3.org/2000/svg";
    .line                 {fill: none; stroke: #330000; stroke-width: 1;}
    .bold-line            {stroke: #140000; shape-rendering: crispEdges; stroke-width: 2;}
    .thin-line            {stroke: #1F0000; shape-rendering: crispEdges}
    .filled               {fill: #330000; stroke: none;}
    text.terminal         {font-family: Verdana, Sans-serif;
                            font-size: 12px;
                            fill: #140000;
                            font-weight: bold;
                          }
    text.nonterminal      {font-family: Verdana, Sans-serif;
                            font-size: 12px;
                            fill: #1A0000;
                            font-weight: normal;
                          }
    text.regexp           {font-family: Verdana, Sans-serif;
                            font-size: 12px;
                            fill: #1F0000;
                            font-weight: normal;
                          }
    rect, circle, polygon {fill: #330000; stroke: #330000;}
    rect.terminal         {fill: #FF4D4D; stroke: #330000; stroke-width: 1;}
    rect.nonterminal      {fill: #FF9E9E; stroke: #330000; stroke-width: 1;}
    rect.text             {fill: none; stroke: none;}
    polygon.regexp        {fill: #FFC7C7; stroke: #330000; stroke-width: 1;}
  </style>
   </defs>
   <polygon points="9 17 1 13 1 21"/>
   <polygon points="17 17 9 13 9 21"/>
   <rect x="51" y="3" width="56" height="32" rx="10"/>
   <rect x="49"
         y="1"
         width="56"
         height="32"
         class="terminal"
         rx="10"/>
   <text class="terminal" x="59" y="21">TRUE</text>
   <rect x="51" y="47" width="62" height="32" rx="10"/>
   <rect x="49"
         y="45"
         width="62"
         height="32"
         class="terminal"
         rx="10"/>
   <text class="terminal" x="59" y="65">FALSE</text>
   <rect x="51" y="91" width="56" height="32" rx="10"/>
   <rect x="49"
         y="89"
         width="56"
         height="32"
         class="terminal"
         rx="10"/>
   <text class="terminal" x="59" y="109">NULL</text>
   <a xmlns:xlink="http://www.w3.org/1999/xlink"
      xlink:href="../../sql_types#decimal"
      xlink:title="decimal">
      <rect x="51" y="135" width="68" height="32"/>
      <rect x="49" y="133" width="68" height="32" class="nonterminal"/>
      <text class="nonterminal" x="59" y="153">decimal</text>
   </a>
   <a xmlns:xlink="http://www.w3.org/1999/xlink"
      xlink:href="../../sql_types#double"
      xlink:title="double">
      <rect x="51" y="179" width="62" height="32"/>
      <rect x="49" y="177" width="62" height="32" class="nonterminal"/>
      <text class="nonterminal" x="59" y="197">double</text>
   </a>
   <a xmlns:xlink="http://www.w3.org/1999/xlink"
      xlink:href="../../sql_types#integer"
      xlink:title="integer">
      <rect x="51" y="223" width="64" height="32"/>
      <rect x="49" y="221" width="64" height="32" class="nonterminal"/>
      <text class="nonterminal" x="59" y="241">integer</text>
   </a>
   <a xmlns:xlink="http://www.w3.org/1999/xlink"
      xlink:href="../../sql_types#text"
      xlink:title="string">
      <rect x="51" y="267" width="56" height="32"/>
      <rect x="49" y="265" width="56" height="32" class="nonterminal"/>
      <text class="nonterminal" x="59" y="285">string</text>
   </a>
   <a xmlns:xlink="http://www.w3.org/1999/xlink"
      xlink:href="../../sql_types#unsigned"
      xlink:title="unsigned">
      <rect x="51" y="311" width="78" height="32"/>
      <rect x="49" y="309" width="78" height="32" class="nonterminal"/>
      <text class="nonterminal" x="59" y="329">unsigned</text>
   </a>
   <rect x="51" y="355" width="28" height="32" rx="10"/>
   <rect x="49"
         y="353"
         width="28"
         height="32"
         class="terminal"
         rx="10"/>
   <text class="terminal" x="59" y="373">$</text>
   <a xmlns:xlink="http://www.w3.org/1999/xlink"
      xlink:href="../../sql_types#unsigned"
      xlink:title="unsigned">
      <rect x="99" y="355" width="78" height="32"/>
      <rect x="97" y="353" width="78" height="32" class="nonterminal"/>
      <text class="nonterminal" x="107" y="373">unsigned</text>
   </a>
   <rect x="51" y="399" width="26" height="32" rx="10"/>
   <rect x="49"
         y="397"
         width="26"
         height="32"
         class="terminal"
         rx="10"/>
   <text class="terminal" x="59" y="417">?</text>
   <path class="line"
         d="m17 17 h2 m20 0 h10 m56 0 h10 m0 0 h70 m-166 0 h20 m146 0 h20 m-186 0 q10 0 10 10 m166 0 q0 -10 10 -10 m-176 10 v24 m166 0 v-24 m-166 24 q0 10 10 10 m146 0 q10 0 10 -10 m-156 10 h10 m62 0 h10 m0 0 h64 m-156 -10 v20 m166 0 v-20 m-166 20 v24 m166 0 v-24 m-166 24 q0 10 10 10 m146 0 q10 0 10 -10 m-156 10 h10 m56 0 h10 m0 0 h70 m-156 -10 v20 m166 0 v-20 m-166 20 v24 m166 0 v-24 m-166 24 q0 10 10 10 m146 0 q10 0 10 -10 m-156 10 h10 m68 0 h10 m0 0 h58 m-156 -10 v20 m166 0 v-20 m-166 20 v24 m166 0 v-24 m-166 24 q0 10 10 10 m146 0 q10 0 10 -10 m-156 10 h10 m62 0 h10 m0 0 h64 m-156 -10 v20 m166 0 v-20 m-166 20 v24 m166 0 v-24 m-166 24 q0 10 10 10 m146 0 q10 0 10 -10 m-156 10 h10 m64 0 h10 m0 0 h62 m-156 -10 v20 m166 0 v-20 m-166 20 v24 m166 0 v-24 m-166 24 q0 10 10 10 m146 0 q10 0 10 -10 m-156 10 h10 m56 0 h10 m0 0 h70 m-156 -10 v20 m166 0 v-20 m-166 20 v24 m166 0 v-24 m-166 24 q0 10 10 10 m146 0 q10 0 10 -10 m-156 10 h10 m78 0 h10 m0 0 h48 m-156 -10 v20 m166 0 v-20 m-166 20 v24 m166 0 v-24 m-166 24 q0 10 10 10 m146 0 q10 0 10 -10 m-156 10 h10 m28 0 h10 m0 0 h10 m78 0 h10 m-156 -10 v20 m166 0 v-20 m-166 20 v24 m166 0 v-24 m-166 24 q0 10 10 10 m146 0 q10 0 10 -10 m-156 10 h10 m26 0 h10 m0 0 h100 m23 -396 h-3"/>
   <polygon points="215 17 223 13 223 21"/>
   <polygon points="215 17 207 13 207 21"/>
</svg>
