<?xml version="1.0" encoding="UTF-8"?>
<svg xmlns="http://www.w3.org/2000/svg" width="971" height="1133" viewBox="0 0 971 1133">
   <defs>
      <style type="text/css">
    @namespace "http://www.w3.org/2000/svg";
    .line                 {fill: none; stroke: #330000; stroke-width: 1;}
    .bold-line            {stroke: #140000; shape-rendering: crispEdges; stroke-width: 2;}
    .thin-line            {stroke: #1F0000; shape-rendering: crispEdges}
    .filled               {fill: #330000; stroke: none;}
    text.terminal         {font-family: Verdana, Sans-serif;
                            font-size: 12px;
                            fill: #140000;
                            font-weight: bold;
                          }
    text.nonterminal      {font-family: Verdana, Sans-serif;
                            font-size: 12px;
                            fill: #1A0000;
                            font-weight: normal;
                          }
    text.regexp           {font-family: Verdana, Sans-serif;
                            font-size: 12px;
                            fill: #1F0000;
                            font-weight: normal;
                          }
    rect, circle, polygon {fill: #330000; stroke: #330000;}
    rect.terminal         {fill: #FF4D4D; stroke: #330000; stroke-width: 1;}
    rect.nonterminal      {fill: #FF9E9E; stroke: #330000; stroke-width: 1;}
    rect.text             {fill: none; stroke: none;}
    polygon.regexp        {fill: #FFC7C7; stroke: #330000; stroke-width: 1;}
  </style>
   </defs>
   <polygon points="9 17 1 13 1 21"/>
   <polygon points="17 17 9 13 9 21"/>
   <rect x="31" y="3" width="74" height="32" rx="10"/>
   <rect x="29"
         y="1"
         width="74"
         height="32"
         class="terminal"
         rx="10"/>
   <text class="terminal" x="39" y="21">REVOKE</text>
   <rect x="65" y="69" width="72" height="32" rx="10"/>
   <rect x="63"
         y="67"
         width="72"
         height="32"
         class="terminal"
         rx="10"/>
   <text class="terminal" x="73" y="87">CREATE</text>
   <rect x="65" y="113" width="62" height="32" rx="10"/>
   <rect x="63"
         y="111"
         width="62"
         height="32"
         class="terminal"
         rx="10"/>
   <text class="terminal" x="73" y="131">ALTER</text>
   <rect x="65" y="157" width="58" height="32" rx="10"/>
   <rect x="63"
         y="155"
         width="58"
         height="32"
         class="terminal"
         rx="10"/>
   <text class="terminal" x="73" y="175">DROP</text>
   <rect x="177" y="69" width="56" height="32" rx="10"/>
   <rect x="175"
         y="67"
         width="56"
         height="32"
         class="terminal"
         rx="10"/>
   <text class="terminal" x="185" y="87">USER</text>
   <rect x="65" y="201" width="62" height="32" rx="10"/>
   <rect x="63"
         y="199"
         width="62"
         height="32"
         class="terminal"
         rx="10"/>
   <text class="terminal" x="73" y="219">ALTER</text>
   <rect x="65" y="245" width="58" height="32" rx="10"/>
   <rect x="63"
         y="243"
         width="58"
         height="32"
         class="terminal"
         rx="10"/>
   <text class="terminal" x="73" y="263">DROP</text>
   <rect x="167" y="201" width="40" height="32" rx="10"/>
   <rect x="165"
         y="199"
         width="40"
         height="32"
         class="terminal"
         rx="10"/>
   <text class="terminal" x="175" y="219">ON</text>
   <rect x="227" y="201" width="56" height="32" rx="10"/>
   <rect x="225"
         y="199"
         width="56"
         height="32"
         class="terminal"
         rx="10"/>
   <text class="terminal" x="235" y="219">USER</text>
   <a xmlns:xlink="http://www.w3.org/1999/xlink"
      xlink:href="../object"
      xlink:title="user">
      <rect x="303" y="201" width="48" height="32"/>
      <rect x="301" y="199" width="48" height="32" class="nonterminal"/>
      <text class="nonterminal" x="311" y="219">user</text>
   </a>
   <rect x="65" y="289" width="72" height="32" rx="10"/>
   <rect x="63"
         y="287"
         width="72"
         height="32"
         class="terminal"
         rx="10"/>
   <text class="terminal" x="73" y="307">CREATE</text>
   <rect x="65" y="333" width="58" height="32" rx="10"/>
   <rect x="63"
         y="331"
         width="58"
         height="32"
         class="terminal"
         rx="10"/>
   <text class="terminal" x="73" y="351">DROP</text>
   <rect x="177" y="289" width="56" height="32" rx="10"/>
   <rect x="175"
         y="287"
         width="56"
         height="32"
         class="terminal"
         rx="10"/>
   <text class="terminal" x="185" y="307">ROLE</text>
   <rect x="65" y="409" width="58" height="32" rx="10"/>
   <rect x="63"
         y="407"
         width="58"
         height="32"
         class="terminal"
         rx="10"/>
   <text class="terminal" x="73" y="427">DROP</text>
   <rect x="143" y="409" width="40" height="32" rx="10"/>
   <rect x="141"
         y="407"
         width="40"
         height="32"
         class="terminal"
         rx="10"/>
   <text class="terminal" x="151" y="427">ON</text>
   <rect x="203" y="409" width="56" height="32" rx="10"/>
   <rect x="201"
         y="407"
         width="56"
         height="32"
         class="terminal"
         rx="10"/>
   <text class="terminal" x="211" y="427">ROLE</text>
   <a xmlns:xlink="http://www.w3.org/1999/xlink"
      xlink:href="../object"
      xlink:title="role">
      <rect x="299" y="377" width="44" height="32"/>
      <rect x="297" y="375" width="44" height="32" class="nonterminal"/>
      <text class="nonterminal" x="307" y="395">role</text>
   </a>
   <rect x="65" y="453" width="72" height="32" rx="10"/>
   <rect x="63"
         y="451"
         width="72"
         height="32"
         class="terminal"
         rx="10"/>
   <text class="terminal" x="73" y="471">CREATE</text>
   <rect x="65" y="497" width="62" height="32" rx="10"/>
   <rect x="63"
         y="495"
         width="62"
         height="32"
         class="terminal"
         rx="10"/>
   <text class="terminal" x="73" y="515">ALTER</text>
   <rect x="65" y="541" width="58" height="32" rx="10"/>
   <rect x="63"
         y="539"
         width="58"
         height="32"
         class="terminal"
         rx="10"/>
   <text class="terminal" x="73" y="559">DROP</text>
   <rect x="65" y="585" width="56" height="32" rx="10"/>
   <rect x="63"
         y="583"
         width="56"
         height="32"
         class="terminal"
         rx="10"/>
   <text class="terminal" x="73" y="603">READ</text>
   <rect x="65" y="629" width="66" height="32" rx="10"/>
   <rect x="63"
         y="627"
         width="66"
         height="32"
         class="terminal"
         rx="10"/>
   <text class="terminal" x="73" y="647">WRITE</text>
   <rect x="197" y="453" width="62" height="32" rx="10"/>
   <rect x="195"
         y="451"
         width="62"
         height="32"
         class="terminal"
         rx="10"/>
   <text class="terminal" x="205" y="471">TABLE</text>
   <rect x="197" y="497" width="40" height="32" rx="10"/>
   <rect x="195"
         y="495"
         width="40"
         height="32"
         class="terminal"
         rx="10"/>
   <text class="terminal" x="205" y="515">ON</text>
   <rect x="257" y="497" width="62" height="32" rx="10"/>
   <rect x="255"
         y="495"
         width="62"
         height="32"
         class="terminal"
         rx="10"/>
   <text class="terminal" x="265" y="515">TABLE</text>
   <a xmlns:xlink="http://www.w3.org/1999/xlink"
      xlink:href="../object"
      xlink:title="table">
      <rect x="339" y="497" width="52" height="32"/>
      <rect x="337" y="495" width="52" height="32" class="nonterminal"/>
      <text class="nonterminal" x="347" y="515">table</text>
   </a>
   <rect x="65" y="673" width="72" height="32" rx="10"/>
   <rect x="63"
         y="671"
         width="72"
         height="32"
         class="terminal"
         rx="10"/>
   <text class="terminal" x="73" y="691">CREATE</text>
   <rect x="65" y="717" width="80" height="32" rx="10"/>
   <rect x="63"
         y="715"
         width="80"
         height="32"
         class="terminal"
         rx="10"/>
   <text class="terminal" x="73" y="735">EXECUTE</text>
   <rect x="65" y="761" width="58" height="32" rx="10"/>
   <rect x="63"
         y="759"
         width="58"
         height="32"
         class="terminal"
         rx="10"/>
   <text class="terminal" x="73" y="779">DROP</text>
   <rect x="185" y="673" width="104" height="32" rx="10"/>
   <rect x="183"
         y="671"
         width="104"
         height="32"
         class="terminal"
         rx="10"/>
   <text class="terminal" x="193" y="691">PROCEDURE</text>
   <rect x="65" y="827" width="80" height="32" rx="10"/>
   <rect x="63"
         y="825"
         width="80"
         height="32"
         class="terminal"
         rx="10"/>
   <text class="terminal" x="73" y="845">EXECUTE</text>
   <rect x="65" y="871" width="58" height="32" rx="10"/>
   <rect x="63"
         y="869"
         width="58"
         height="32"
         class="terminal"
         rx="10"/>
   <text class="terminal" x="73" y="889">DROP</text>
   <rect x="185" y="827" width="40" height="32" rx="10"/>
   <rect x="183"
         y="825"
         width="40"
         height="32"
         class="terminal"
         rx="10"/>
   <text class="terminal" x="193" y="845">ON</text>
   <rect x="245" y="827" width="104" height="32" rx="10"/>
   <rect x="243"
         y="825"
         width="104"
         height="32"
         class="terminal"
         rx="10"/>
   <text class="terminal" x="253" y="845">PROCEDURE</text>
   <a xmlns:xlink="http://www.w3.org/1999/xlink"
      xlink:href="../object"
      xlink:title="procedure">
      <rect x="369" y="827" width="84" height="32"/>
      <rect x="367" y="825" width="84" height="32" class="nonterminal"/>
      <text class="nonterminal" x="377" y="845">procedure</text>
   </a>
   <rect x="493" y="827" width="26" height="32" rx="10"/>
   <rect x="491"
         y="825"
         width="26"
         height="32"
         class="terminal"
         rx="10"/>
   <text class="terminal" x="501" y="845">(</text>
   <a xmlns:xlink="http://www.w3.org/1999/xlink"
      xlink:href="#unrestricted_type"
      xlink:title="unrestricted_type">
      <rect x="539" y="827" width="132" height="32"/>
      <rect x="537" y="825" width="132" height="32" class="nonterminal"/>
      <text class="nonterminal" x="547" y="845">unrestricted_type</text>
   </a>
   <rect x="731" y="827" width="24" height="32" rx="10"/>
   <rect x="729"
         y="825"
         width="24"
         height="32"
         class="terminal"
         rx="10"/>
   <text class="terminal" x="739" y="845">,</text>
   <a xmlns:xlink="http://www.w3.org/1999/xlink"
      xlink:href="#unrestricted_type"
      xlink:title="type">
      <rect x="775" y="827" width="48" height="32"/>
      <rect x="773" y="825" width="48" height="32" class="nonterminal"/>
      <text class="nonterminal" x="783" y="845">type</text>
   </a>
   <rect x="883" y="827" width="26" height="32" rx="10"/>
   <rect x="881"
         y="825"
         width="26"
         height="32"
         class="terminal"
         rx="10"/>
   <text class="terminal" x="891" y="845">)</text>
   <rect x="218" y="937" width="60" height="32" rx="10"/>
   <rect x="216"
         y="935"
         width="60"
         height="32"
         class="terminal"
         rx="10"/>
   <text class="terminal" x="226" y="955">FROM</text>
   <a xmlns:xlink="http://www.w3.org/1999/xlink"
      xlink:href="../object"
      xlink:title="role">
      <rect x="318" y="937" width="44" height="32"/>
      <rect x="316" y="935" width="44" height="32" class="nonterminal"/>
      <text class="nonterminal" x="326" y="955">role</text>
   </a>
   <a xmlns:xlink="http://www.w3.org/1999/xlink"
      xlink:href="../object"
      xlink:title="user">
      <rect x="318" y="981" width="48" height="32"/>
      <rect x="316" y="979" width="48" height="32" class="nonterminal"/>
      <text class="nonterminal" x="326" y="999">user</text>
   </a>
   <rect x="426" y="969" width="58" height="32" rx="10"/>
   <rect x="424"
         y="967"
         width="58"
         height="32"
         class="terminal"
         rx="10"/>
   <text class="terminal" x="434" y="987">WAIT</text>
   <rect x="504" y="969" width="80" height="32" rx="10"/>
   <rect x="502"
         y="967"
         width="80"
         height="32"
         class="terminal"
         rx="10"/>
   <text class="terminal" x="512" y="987">APPLIED</text>
   <rect x="624" y="969" width="92" height="32" rx="10"/>
   <rect x="622"
         y="967"
         width="92"
         height="32"
         class="terminal"
         rx="10"/>
   <text class="terminal" x="632" y="987">GLOBALLY</text>
   <rect x="624" y="1013" width="82" height="32" rx="10"/>
   <rect x="622"
         y="1011"
         width="82"
         height="32"
         class="terminal"
         rx="10"/>
   <text class="terminal" x="632" y="1031">LOCALLY</text>
   <rect x="521" y="1099" width="76" height="32" rx="10"/>
   <rect x="519"
         y="1097"
         width="76"
         height="32"
         class="terminal"
         rx="10"/>
   <text class="terminal" x="529" y="1117">OPTION</text>
   <rect x="617" y="1099" width="26" height="32" rx="10"/>
   <rect x="615"
         y="1097"
         width="26"
         height="32"
         class="terminal"
         rx="10"/>
   <text class="terminal" x="625" y="1117">(</text>
   <rect x="663" y="1099" width="82" height="32" rx="10"/>
   <rect x="661"
         y="1097"
         width="82"
         height="32"
         class="terminal"
         rx="10"/>
   <text class="terminal" x="671" y="1117">TIMEOUT</text>
   <rect x="765" y="1099" width="30" height="32" rx="10"/>
   <rect x="763"
         y="1097"
         width="30"
         height="32"
         class="terminal"
         rx="10"/>
   <text class="terminal" x="773" y="1117">=</text>
   <a xmlns:xlink="http://www.w3.org/1999/xlink"
      xlink:href="../../sql_types#double"
      xlink:title="double">
      <rect x="815" y="1099" width="62" height="32"/>
      <rect x="813" y="1097" width="62" height="32" class="nonterminal"/>
      <text class="nonterminal" x="823" y="1117">double</text>
   </a>
   <rect x="897" y="1099" width="26" height="32" rx="10"/>
   <rect x="895"
         y="1097"
         width="26"
         height="32"
         class="terminal"
         rx="10"/>
   <text class="terminal" x="905" y="1117">)</text>
   <path class="line"
         d="m17 17 h2 m0 0 h10 m74 0 h10 m2 0 l2 0 m2 0 l2 0 m2 0 l2 0 m-124 66 l2 0 m2 0 l2 0 m2 0 l2 0 m42 0 h10 m72 0 h10 m-112 0 h20 m92 0 h20 m-132 0 q10 0 10 10 m112 0 q0 -10 10 -10 m-122 10 v24 m112 0 v-24 m-112 24 q0 10 10 10 m92 0 q10 0 10 -10 m-102 10 h10 m62 0 h10 m0 0 h10 m-102 -10 v20 m112 0 v-20 m-112 20 v24 m112 0 v-24 m-112 24 q0 10 10 10 m92 0 q10 0 10 -10 m-102 10 h10 m58 0 h10 m0 0 h14 m20 -88 h10 m56 0 h10 m0 0 h696 m-924 0 h20 m904 0 h20 m-944 0 q10 0 10 10 m924 0 q0 -10 10 -10 m-934 10 v112 m924 0 v-112 m-924 112 q0 10 10 10 m904 0 q10 0 10 -10 m-894 10 h10 m62 0 h10 m-102 0 h20 m82 0 h20 m-122 0 q10 0 10 10 m102 0 q0 -10 10 -10 m-112 10 v24 m102 0 v-24 m-102 24 q0 10 10 10 m82 0 q10 0 10 -10 m-92 10 h10 m58 0 h10 m0 0 h4 m20 -44 h10 m40 0 h10 m0 0 h10 m56 0 h10 m0 0 h10 m48 0 h10 m0 0 h578 m-914 -10 v20 m924 0 v-20 m-924 20 v68 m924 0 v-68 m-924 68 q0 10 10 10 m904 0 q10 0 10 -10 m-894 10 h10 m72 0 h10 m-112 0 h20 m92 0 h20 m-132 0 q10 0 10 10 m112 0 q0 -10 10 -10 m-122 10 v24 m112 0 v-24 m-112 24 q0 10 10 10 m92 0 q10 0 10 -10 m-102 10 h10 m58 0 h10 m0 0 h14 m20 -44 h10 m56 0 h10 m0 0 h696 m-914 -10 v20 m924 0 v-20 m-924 20 v68 m924 0 v-68 m-924 68 q0 10 10 10 m904 0 q10 0 10 -10 m-894 10 h10 m0 0 h204 m-234 0 h20 m214 0 h20 m-254 0 q10 0 10 10 m234 0 q0 -10 10 -10 m-244 10 v12 m234 0 v-12 m-234 12 q0 10 10 10 m214 0 q10 0 10 -10 m-224 10 h10 m58 0 h10 m0 0 h10 m40 0 h10 m0 0 h10 m56 0 h10 m20 -32 h10 m44 0 h10 m0 0 h586 m-914 -10 v20 m924 0 v-20 m-924 20 v56 m924 0 v-56 m-924 56 q0 10 10 10 m904 0 q10 0 10 -10 m-894 10 h10 m72 0 h10 m-112 0 h20 m92 0 h20 m-132 0 q10 0 10 10 m112 0 q0 -10 10 -10 m-122 10 v24 m112 0 v-24 m-112 24 q0 10 10 10 m92 0 q10 0 10 -10 m-102 10 h10 m62 0 h10 m0 0 h10 m-102 -10 v20 m112 0 v-20 m-112 20 v24 m112 0 v-24 m-112 24 q0 10 10 10 m92 0 q10 0 10 -10 m-102 10 h10 m58 0 h10 m0 0 h14 m-102 -10 v20 m112 0 v-20 m-112 20 v24 m112 0 v-24 m-112 24 q0 10 10 10 m92 0 q10 0 10 -10 m-102 10 h10 m56 0 h10 m0 0 h16 m-102 -10 v20 m112 0 v-20 m-112 20 v24 m112 0 v-24 m-112 24 q0 10 10 10 m92 0 q10 0 10 -10 m-102 10 h10 m66 0 h10 m0 0 h6 m40 -176 h10 m62 0 h10 m0 0 h132 m-234 0 h20 m214 0 h20 m-254 0 q10 0 10 10 m234 0 q0 -10 10 -10 m-244 10 v24 m234 0 v-24 m-234 24 q0 10 10 10 m214 0 q10 0 10 -10 m-224 10 h10 m40 0 h10 m0 0 h10 m62 0 h10 m0 0 h10 m52 0 h10 m20 -44 h518 m-914 -10 v20 m924 0 v-20 m-924 20 v200 m924 0 v-200 m-924 200 q0 10 10 10 m904 0 q10 0 10 -10 m-894 10 h10 m72 0 h10 m0 0 h8 m-120 0 h20 m100 0 h20 m-140 0 q10 0 10 10 m120 0 q0 -10 10 -10 m-130 10 v24 m120 0 v-24 m-120 24 q0 10 10 10 m100 0 q10 0 10 -10 m-110 10 h10 m80 0 h10 m-110 -10 v20 m120 0 v-20 m-120 20 v24 m120 0 v-24 m-120 24 q0 10 10 10 m100 0 q10 0 10 -10 m-110 10 h10 m58 0 h10 m0 0 h22 m20 -88 h10 m104 0 h10 m0 0 h640 m-914 -10 v20 m924 0 v-20 m-924 20 v134 m924 0 v-134 m-924 134 q0 10 10 10 m904 0 q10 0 10 -10 m-894 10 h10 m80 0 h10 m-120 0 h20 m100 0 h20 m-140 0 q10 0 10 10 m120 0 q0 -10 10 -10 m-130 10 v24 m120 0 v-24 m-120 24 q0 10 10 10 m100 0 q10 0 10 -10 m-110 10 h10 m58 0 h10 m0 0 h22 m20 -44 h10 m40 0 h10 m0 0 h10 m104 0 h10 m0 0 h10 m84 0 h10 m20 0 h10 m26 0 h10 m0 0 h10 m132 0 h10 m40 0 h10 m24 0 h10 m0 0 h10 m48 0 h10 m-132 0 l20 0 m-1 0 q-9 0 -9 -10 l0 -12 q0 -10 10 -10 m112 32 l20 0 m-20 0 q10 0 10 -10 l0 -12 q0 -10 -10 -10 m-112 0 h10 m0 0 h102 m-152 32 h20 m152 0 h20 m-192 0 q10 0 10 10 m172 0 q0 -10 10 -10 m-182 10 v14 m172 0 v-14 m-172 14 q0 10 10 10 m152 0 q10 0 10 -10 m-162 10 h10 m0 0 h142 m20 -34 h10 m26 0 h10 m-456 0 h20 m436 0 h20 m-476 0 q10 0 10 10 m456 0 q0 -10 10 -10 m-466 10 v30 m456 0 v-30 m-456 30 q0 10 10 10 m436 0 q10 0 10 -10 m-446 10 h10 m0 0 h426 m42 -808 l2 0 m2 0 l2 0 m2 0 l2 0 m-775 868 l2 0 m2 0 l2 0 m2 0 l2 0 m2 0 h10 m60 0 h10 m20 0 h10 m44 0 h10 m0 0 h4 m-88 0 h20 m68 0 h20 m-108 0 q10 0 10 10 m88 0 q0 -10 10 -10 m-98 10 v24 m88 0 v-24 m-88 24 q0 10 10 10 m68 0 q10 0 10 -10 m-78 10 h10 m48 0 h10 m40 -44 h10 m0 0 h320 m-350 0 h20 m330 0 h20 m-370 0 q10 0 10 10 m350 0 q0 -10 10 -10 m-360 10 v12 m350 0 v-12 m-350 12 q0 10 10 10 m330 0 q10 0 10 -10 m-340 10 h10 m58 0 h10 m0 0 h10 m80 0 h10 m20 0 h10 m92 0 h10 m-132 0 h20 m112 0 h20 m-152 0 q10 0 10 10 m132 0 q0 -10 10 -10 m-142 10 v24 m132 0 v-24 m-132 24 q0 10 10 10 m112 0 q10 0 10 -10 m-122 10 h10 m82 0 h10 m0 0 h10 m42 -76 l2 0 m2 0 l2 0 m2 0 l2 0 m-299 130 l2 0 m2 0 l2 0 m2 0 l2 0 m22 0 h10 m0 0 h412 m-442 0 h20 m422 0 h20 m-462 0 q10 0 10 10 m442 0 q0 -10 10 -10 m-452 10 v12 m442 0 v-12 m-442 12 q0 10 10 10 m422 0 q10 0 10 -10 m-432 10 h10 m76 0 h10 m0 0 h10 m26 0 h10 m0 0 h10 m82 0 h10 m0 0 h10 m30 0 h10 m0 0 h10 m62 0 h10 m0 0 h10 m26 0 h10 m23 -32 h-3"/>
   <polygon points="961 1081 969 1077 969 1085"/>
   <polygon points="961 1081 953 1077 953 1085"/>
</svg>
