<?xml version="1.0" encoding="UTF-8"?>
<svg xmlns="http://www.w3.org/2000/svg" width="599" height="101" viewBox = "0 0 599 101">
   <defs>
      <style type="text/css">
    @namespace "http://www.w3.org/2000/svg";
    .line                 {fill: none; stroke: #330000; stroke-width: 1;}
    .bold-line            {stroke: #140000; shape-rendering: crispEdges; stroke-width: 2;}
    .thin-line            {stroke: #1F0000; shape-rendering: crispEdges}
    .filled               {fill: #330000; stroke: none;}
    text.terminal         {font-family: Verdana, Sans-serif;
                            font-size: 12px;
                            fill: #140000;
                            font-weight: bold;
                          }
    text.nonterminal      {font-family: Verdana, Sans-serif;
                            font-size: 12px;
                            fill: #1A0000;
                            font-weight: normal;
                          }
    text.regexp           {font-family: Verdana, Sans-serif;
                            font-size: 12px;
                            fill: #1F0000;
                            font-weight: normal;
                          }
    rect, circle, polygon {fill: #330000; stroke: #330000;}
    rect.terminal         {fill: #FF4D4D; stroke: #330000; stroke-width: 1;}
    rect.nonterminal      {fill: #FF9E9E; stroke: #330000; stroke-width: 1;}
    rect.text             {fill: none; stroke: none;}
    polygon.regexp        {fill: #FFC7C7; stroke: #330000; stroke-width: 1;}
  </style>
   </defs>
   <polygon points="9 17 1 13 1 21"/>
   <polygon points="17 17 9 13 9 21"/>
   <a xmlns:xlink="http://www.w3.org/1999/xlink"
      xlink:href="../object"
      xlink:title="table">
      <rect x="31" y="3" width="52" height="32"/>
      <rect x="29" y="1" width="52" height="32" class="nonterminal"/>
      <text class="nonterminal" x="39" y="21">table</text>
   </a>
   <rect x="143" y="67" width="38" height="32" rx="10"/>
   <rect x="141"
         y="65"
         width="38"
         height="32"
         class="terminal"
         rx="10"/>
   <text class="terminal" x="151" y="85">AS</text>
   <a xmlns:xlink="http://www.w3.org/1999/xlink"
      xlink:href="../object"
      xlink:title="name">
      <rect x="221" y="35" width="56" height="32"/>
      <rect x="219" y="33" width="56" height="32" class="nonterminal"/>
      <text class="nonterminal" x="229" y="53">name</text>
   </a>
   <rect x="337" y="35" width="82" height="32" rx="10"/>
   <rect x="335"
         y="33"
         width="82"
         height="32"
         class="terminal"
         rx="10"/>
   <text class="terminal" x="345" y="53">INDEXED</text>
   <rect x="439" y="35" width="38" height="32" rx="10"/>
   <rect x="437"
         y="33"
         width="38"
         height="32"
         class="terminal"
         rx="10"/>
   <text class="terminal" x="447" y="53">BY</text>
   <a xmlns:xlink="http://www.w3.org/1999/xlink"
      xlink:href="../object"
      xlink:title="index">
      <rect x="497" y="35" width="54" height="32"/>
      <rect x="495" y="33" width="54" height="32" class="nonterminal"/>
      <text class="nonterminal" x="505" y="53">index</text>
   </a>
   <path class="line"
         d="m17 17 h2 m0 0 h10 m52 0 h10 m20 0 h10 m0 0 h164 m-194 0 h20 m174 0 h20 m-214 0 q10 0 10 10 m194 0 q0 -10 10 -10 m-204 10 v12 m194 0 v-12 m-194 12 q0 10 10 10 m174 0 q10 0 10 -10 m-164 10 h10 m0 0 h48 m-78 0 h20 m58 0 h20 m-98 0 q10 0 10 10 m78 0 q0 -10 10 -10 m-88 10 v12 m78 0 v-12 m-78 12 q0 10 10 10 m58 0 q10 0 10 -10 m-68 10 h10 m38 0 h10 m20 -32 h10 m56 0 h10 m40 -32 h10 m0 0 h224 m-254 0 h20 m234 0 h20 m-274 0 q10 0 10 10 m254 0 q0 -10 10 -10 m-264 10 v12 m254 0 v-12 m-254 12 q0 10 10 10 m234 0 q10 0 10 -10 m-244 10 h10 m82 0 h10 m0 0 h10 m38 0 h10 m0 0 h10 m54 0 h10 m23 -32 h-3"/>
   <polygon points="589 17 597 13 597 21"/>
   <polygon points="589 17 581 13 581 21"/>
</svg>
