<?xml version="1.0" encoding="UTF-8"?>
<svg xmlns="http://www.w3.org/2000/svg" width="603" height="209" viewBox = "0 0 603 209">
   <defs>
      <style type="text/css">
    @namespace "http://www.w3.org/2000/svg";
    .line                 {fill: none; stroke: #330000; stroke-width: 1;}
    .bold-line            {stroke: #140000; shape-rendering: crispEdges; stroke-width: 2;}
    .thin-line            {stroke: #1F0000; shape-rendering: crispEdges}
    .filled               {fill: #330000; stroke: none;}
    text.terminal         {font-family: Verdana, Sans-serif;
                            font-size: 12px;
                            fill: #140000;
                            font-weight: bold;
                          }
    text.nonterminal      {font-family: Verdana, Sans-serif;
                            font-size: 12px;
                            fill: #1A0000;
                            font-weight: normal;
                          }
    text.regexp           {font-family: Verdana, Sans-serif;
                            font-size: 12px;
                            fill: #1F0000;
                            font-weight: normal;
                          }
    rect, circle, polygon {fill: #330000; stroke: #330000;}
    rect.terminal         {fill: #FF4D4D; stroke: #330000; stroke-width: 1;}
    rect.nonterminal      {fill: #FF9E9E; stroke: #330000; stroke-width: 1;}
    rect.text             {fill: none; stroke: none;}
    polygon.regexp        {fill: #FFC7C7; stroke: #330000; stroke-width: 1;}
  </style>
   </defs>
   <polygon points="9 17 1 13 1 21"/>
   <polygon points="17 17 9 13 9 21"/>
   <a xmlns:xlink="http://www.w3.org/1999/xlink"
      xlink:href="../object"
      xlink:title="table">
      <rect x="51" y="3" width="52" height="32"/>
      <rect x="49" y="1" width="52" height="32" class="nonterminal"/>
      <text class="nonterminal" x="59" y="21">table</text>
   </a>
   <rect x="163" y="67" width="38" height="32" rx="10"/>
   <rect x="161"
         y="65"
         width="38"
         height="32"
         class="terminal"
         rx="10"/>
   <text class="terminal" x="171" y="85">AS</text>
   <a xmlns:xlink="http://www.w3.org/1999/xlink"
      xlink:href="../object"
      xlink:title="name">
      <rect x="241" y="35" width="56" height="32"/>
      <rect x="239" y="33" width="56" height="32" class="nonterminal"/>
      <text class="nonterminal" x="249" y="53">name</text>
   </a>
   <rect x="357" y="35" width="104" height="32" rx="10"/>
   <rect x="355"
         y="33"
         width="104"
         height="32"
         class="terminal"
         rx="10"/>
   <text class="terminal" x="365" y="53">INDEXED BY</text>
   <a xmlns:xlink="http://www.w3.org/1999/xlink"
      xlink:href="../object"
      xlink:title="index">
      <rect x="481" y="35" width="54" height="32"/>
      <rect x="479" y="33" width="54" height="32" class="nonterminal"/>
      <text class="nonterminal" x="489" y="53">index</text>
   </a>
   <rect x="51" y="111" width="26" height="32" rx="10"/>
   <rect x="49"
         y="109"
         width="26"
         height="32"
         class="terminal"
         rx="10"/>
   <text class="terminal" x="59" y="129">(</text>
   <a xmlns:xlink="http://www.w3.org/1999/xlink"
      xlink:href="../dql"
      xlink:title="dql">
      <rect x="97" y="111" width="38" height="32"/>
      <rect x="95" y="109" width="38" height="32" class="nonterminal"/>
      <text class="nonterminal" x="105" y="129">dql</text>
   </a>
   <rect x="155" y="111" width="26" height="32" rx="10"/>
   <rect x="153"
         y="109"
         width="26"
         height="32"
         class="terminal"
         rx="10"/>
   <text class="terminal" x="163" y="129">)</text>
   <rect x="241" y="175" width="38" height="32" rx="10"/>
   <rect x="239"
         y="173"
         width="38"
         height="32"
         class="terminal"
         rx="10"/>
   <text class="terminal" x="249" y="193">AS</text>
   <a xmlns:xlink="http://www.w3.org/1999/xlink"
      xlink:href="../object"
      xlink:title="name">
      <rect x="319" y="143" width="56" height="32"/>
      <rect x="317" y="141" width="56" height="32" class="nonterminal"/>
      <text class="nonterminal" x="327" y="161">name</text>
   </a>
   <path class="line"
         d="m17 17 h2 m20 0 h10 m52 0 h10 m20 0 h10 m0 0 h164 m-194 0 h20 m174 0 h20 m-214 0 q10 0 10 10 m194 0 q0 -10 10 -10 m-204 10 v12 m194 0 v-12 m-194 12 q0 10 10 10 m174 0 q10 0 10 -10 m-164 10 h10 m0 0 h48 m-78 0 h20 m58 0 h20 m-98 0 q10 0 10 10 m78 0 q0 -10 10 -10 m-88 10 v12 m78 0 v-12 m-78 12 q0 10 10 10 m58 0 q10 0 10 -10 m-68 10 h10 m38 0 h10 m20 -32 h10 m56 0 h10 m40 -32 h10 m0 0 h188 m-218 0 h20 m198 0 h20 m-238 0 q10 0 10 10 m218 0 q0 -10 10 -10 m-228 10 v12 m218 0 v-12 m-218 12 q0 10 10 10 m198 0 q10 0 10 -10 m-208 10 h10 m104 0 h10 m0 0 h10 m54 0 h10 m-524 -32 h20 m524 0 h20 m-564 0 q10 0 10 10 m544 0 q0 -10 10 -10 m-554 10 v88 m544 0 v-88 m-544 88 q0 10 10 10 m524 0 q10 0 10 -10 m-534 10 h10 m26 0 h10 m0 0 h10 m38 0 h10 m0 0 h10 m26 0 h10 m20 0 h10 m0 0 h164 m-194 0 h20 m174 0 h20 m-214 0 q10 0 10 10 m194 0 q0 -10 10 -10 m-204 10 v12 m194 0 v-12 m-194 12 q0 10 10 10 m174 0 q10 0 10 -10 m-164 10 h10 m0 0 h48 m-78 0 h20 m58 0 h20 m-98 0 q10 0 10 10 m78 0 q0 -10 10 -10 m-88 10 v12 m78 0 v-12 m-78 12 q0 10 10 10 m58 0 q10 0 10 -10 m-68 10 h10 m38 0 h10 m20 -32 h10 m56 0 h10 m20 -32 h160 m23 -108 h-3"/>
   <polygon points="593 17 601 13 601 21"/>
   <polygon points="593 17 585 13 585 21"/>
</svg>
