<?xml version="1.0" encoding="UTF-8"?>
<svg xmlns="http://www.w3.org/2000/svg" width="471" height="37" viewBox="0 0 471 37">
   <defs>
      <style type="text/css">
    @namespace "http://www.w3.org/2000/svg";
    .line                 {fill: none; stroke: #330000; stroke-width: 1;}
    .bold-line            {stroke: #140000; shape-rendering: crispEdges; stroke-width: 2;}
    .thin-line            {stroke: #1F0000; shape-rendering: crispEdges}
    .filled               {fill: #330000; stroke: none;}
    text.terminal         {font-family: Verdana, Sans-serif;
                            font-size: 12px;
                            fill: #140000;
                            font-weight: bold;
                          }
    text.nonterminal      {font-family: Verdana, Sans-serif;
                            font-size: 12px;
                            fill: #1A0000;
                            font-weight: normal;
                          }
    text.regexp           {font-family: Verdana, Sans-serif;
                            font-size: 12px;
                            fill: #1F0000;
                            font-weight: normal;
                          }
    rect, circle, polygon {fill: #330000; stroke: #330000;}
    rect.terminal         {fill: #FF4D4D; stroke: #330000; stroke-width: 1;}
    rect.nonterminal      {fill: #FF9E9E; stroke: #330000; stroke-width: 1;}
    rect.text             {fill: none; stroke: none;}
    polygon.regexp        {fill: #FFC7C7; stroke: #330000; stroke-width: 1;}
  </style>
   </defs>
   <polygon points="9 17 1 13 1 21"/>
   <polygon points="17 17 9 13 9 21"/>
   <rect x="31" y="3" width="84" height="32" rx="10"/>
   <rect x="29"
         y="1"
         width="84"
         height="32"
         class="terminal"
         rx="10"/>
   <text class="terminal" x="39" y="21">TO_DATE</text>
   <rect x="135" y="3" width="26" height="32" rx="10"/>
   <rect x="133"
         y="1"
         width="26"
         height="32"
         class="terminal"
         rx="10"/>
   <text class="terminal" x="143" y="21">(</text>
   <a xmlns:xlink="http://www.w3.org/1999/xlink"
      xlink:href="#expression"
      xlink:title="expression">
      <rect x="181" y="3" width="90" height="32"/>
      <rect x="179" y="1" width="90" height="32" class="nonterminal"/>
      <text class="nonterminal" x="189" y="21">expression</text>
   </a>
   <rect x="291" y="3" width="24" height="32" rx="10"/>
   <rect x="289"
         y="1"
         width="24"
         height="32"
         class="terminal"
         rx="10"/>
   <text class="terminal" x="299" y="21">,</text>
   <a xmlns:xlink="http://www.w3.org/1999/xlink"
      href="https://man.freebsd.org/cgi/man.cgi?query=strftime"
      xlink:title="format"
      target="_blank"
      rel="noopener">
      <rect x="335" y="3" width="62" height="32"/>
      <rect x="333" y="1" width="62" height="32" class="nonterminal"/>
      <text class="nonterminal" x="343" y="21">format</text>
   </a>
   <rect x="417" y="3" width="26" height="32" rx="10"/>
   <rect x="415"
         y="1"
         width="26"
         height="32"
         class="terminal"
         rx="10"/>
   <text class="terminal" x="425" y="21">)</text>
   <path class="line"
         d="m17 17 h2 m0 0 h10 m84 0 h10 m0 0 h10 m26 0 h10 m0 0 h10 m90 0 h10 m0 0 h10 m24 0 h10 m0 0 h10 m62 0 h10 m0 0 h10 m26 0 h10 m3 0 h-3"/>
   <polygon points="461 17 469 13 469 21"/>
   <polygon points="461 17 453 13 453 21"/>
</svg>
