<?xml version="1.0" encoding="UTF-8"?>
<svg xmlns="http://www.w3.org/2000/svg" width="769" height="475" viewBox="0 0 769 475">
   <defs>
      <style type="text/css">
    @namespace "http://www.w3.org/2000/svg";
    .line                 {fill: none; stroke: #330000; stroke-width: 1;}
    .bold-line            {stroke: #140000; shape-rendering: crispEdges; stroke-width: 2;}
    .thin-line            {stroke: #1F0000; shape-rendering: crispEdges}
    .filled               {fill: #330000; stroke: none;}
    text.terminal         {font-family: Verdana, Sans-serif;
                            font-size: 12px;
                            fill: #140000;
                            font-weight: bold;
                          }
    text.nonterminal      {font-family: Verdana, Sans-serif;
                            font-size: 12px;
                            fill: #1A0000;
                            font-weight: normal;
                          }
    text.regexp           {font-family: Verdana, Sans-serif;
                            font-size: 12px;
                            fill: #1F0000;
                            font-weight: normal;
                          }
    rect, circle, polygon {fill: #330000; stroke: #330000;}
    rect.terminal         {fill: #FF4D4D; stroke: #330000; stroke-width: 1;}
    rect.nonterminal      {fill: #FF9E9E; stroke: #330000; stroke-width: 1;}
    rect.text             {fill: none; stroke: none;}
    polygon.regexp        {fill: #FFC7C7; stroke: #330000; stroke-width: 1;}
  </style>
   </defs>
   <polygon points="9 33 1 29 1 37"/>
   <polygon points="17 33 9 29 9 37"/>
   <rect x="31" y="19" width="40" height="32" rx="10"/>
   <rect x="29"
         y="17"
         width="40"
         height="32"
         class="terminal"
         rx="10"/>
   <text class="terminal" x="39" y="37">DO</text>
   <rect x="111" y="51" width="94" height="32" rx="10"/>
   <rect x="109"
         y="49"
         width="94"
         height="32"
         class="terminal"
         rx="10"/>
   <text class="terminal" x="119" y="69">LANGUAGE</text>
   <rect x="225" y="51" width="48" height="32" rx="10"/>
   <rect x="223"
         y="49"
         width="48"
         height="32"
         class="terminal"
         rx="10"/>
   <text class="terminal" x="233" y="69">SQL</text>
   <rect x="313" y="19" width="38" height="32" rx="10"/>
   <rect x="311"
         y="17"
         width="38"
         height="32"
         class="terminal"
         rx="10"/>
   <text class="terminal" x="321" y="37">\$\$</text>
   <rect x="371" y="19" width="64" height="32" rx="10"/>
   <rect x="369"
         y="17"
         width="64"
         height="32"
         class="terminal"
         rx="10"/>
   <text class="terminal" x="379" y="37">BEGIN</text>
   <a xmlns:xlink="http://www.w3.org/1999/xlink"
       xlink:href="#block_statement"
       xlink:title="block_statement">
      <rect x="475" y="19" width="126" height="32"/>
      <rect x="473" y="17" width="126" height="32" class="nonterminal"/>
      <text class="nonterminal" x="483" y="37">block_statement</text>
   </a>
   <rect x="641" y="19" width="48" height="32" rx="10"/>
   <rect x="639"
         y="17"
         width="48"
         height="32"
         class="terminal"
         rx="10"/>
   <text class="terminal" x="649" y="37">END</text>
   <rect x="709" y="19" width="38" height="32" rx="10"/>
   <rect x="707"
         y="17"
         width="38"
         height="32"
         class="terminal"
         rx="10"/>
   <text class="terminal" x="717" y="37">\$\$</text>
   <rect x="129" y="161" width="76" height="32" rx="10"/>
   <rect x="127"
         y="159"
         width="76"
         height="32"
         class="terminal"
         rx="10"/>
   <text class="terminal" x="137" y="179">OPTION</text>
   <rect x="225" y="161" width="26" height="32" rx="10"/>
   <rect x="223"
         y="159"
         width="26"
         height="32"
         class="terminal"
         rx="10"/>
   <text class="terminal" x="233" y="179">(</text>
   <rect x="311" y="161" width="74" height="32" rx="10"/>
   <rect x="309"
         y="159"
         width="74"
         height="32"
         class="terminal"
         rx="10"/>
   <text class="terminal" x="319" y="179">forward</text>
   <rect x="405" y="161" width="30" height="32" rx="10"/>
   <rect x="403"
         y="159"
         width="30"
         height="32"
         class="terminal"
         rx="10"/>
   <text class="terminal" x="413" y="179">=</text>
   <rect x="475" y="161" width="40" height="32" rx="10"/>
   <rect x="473"
         y="159"
         width="40"
         height="32"
         class="terminal"
         rx="10"/>
   <text class="terminal" x="483" y="179">ON</text>
   <rect x="475" y="205" width="46" height="32" rx="10"/>
   <rect x="473"
         y="203"
         width="46"
         height="32"
         class="terminal"
         rx="10"/>
   <text class="terminal" x="483" y="223">OFF</text>
   <rect x="475" y="249" width="100" height="32" rx="10"/>
   <rect x="473"
         y="247"
         width="100"
         height="32"
         class="terminal"
         rx="10"/>
   <text class="terminal" x="483" y="267">RO_TO_RW</text>
   <rect x="311" y="293" width="132" height="32" rx="10"/>
   <rect x="309"
         y="291"
         width="132"
         height="32"
         class="terminal"
         rx="10"/>
   <text class="terminal" x="319" y="311">read_preference</text>
   <rect x="463" y="293" width="30" height="32" rx="10"/>
   <rect x="461"
         y="291"
         width="30"
         height="32"
         class="terminal"
         rx="10"/>
   <text class="terminal" x="471" y="311">=</text>
   <rect x="533" y="293" width="72" height="32" rx="10"/>
   <rect x="531"
         y="291"
         width="72"
         height="32"
         class="terminal"
         rx="10"/>
   <text class="terminal" x="541" y="311">LEADER</text>
   <rect x="533" y="337" width="78" height="32" rx="10"/>
   <rect x="531"
         y="335"
         width="78"
         height="32"
         class="terminal"
         rx="10"/>
   <text class="terminal" x="541" y="355">REPLICA</text>
   <rect x="533" y="381" width="48" height="32" rx="10"/>
   <rect x="531"
         y="379"
         width="48"
         height="32"
         class="terminal"
         rx="10"/>
   <text class="terminal" x="541" y="399">ANY</text>
   <rect x="311" y="425" width="176" height="32" rx="10"/>
   <rect x="309"
         y="423"
         width="176"
         height="32"
         class="terminal"
         rx="10"/>
   <text class="terminal" x="319" y="443">sql_vdbe_opcode_max</text>
   <rect x="507" y="425" width="30" height="32" rx="10"/>
   <rect x="505"
         y="423"
         width="30"
         height="32"
         class="terminal"
         rx="10"/>
   <text class="terminal" x="515" y="443">=</text>
   <a xmlns:xlink="http://www.w3.org/1999/xlink"
      xlink:href="../../sql_types#unsigned"
      xlink:title="unsigned">
      <rect x="557" y="425" width="78" height="32"/>
      <rect x="555" y="423" width="78" height="32" class="nonterminal"/>
      <text class="nonterminal" x="565" y="443">unsigned</text>
   </a>
   <rect x="291" y="117" width="24" height="32" rx="10"/>
   <rect x="289"
         y="115"
         width="24"
         height="32"
         class="terminal"
         rx="10"/>
   <text class="terminal" x="299" y="135">,</text>
   <rect x="695" y="161" width="26" height="32" rx="10"/>
   <rect x="693"
         y="159"
         width="26"
         height="32"
         class="terminal"
         rx="10"/>
   <text class="terminal" x="703" y="179">)</text>
   <path class="line"
         d="m17 33 h2 m0 0 h10 m40 0 h10 m20 0 h10 m0 0 h172 m-202 0 h20 m182 0 h20 m-222 0 q10 0 10 10 m202 0 q0 -10 10 -10 m-212 10 v12 m202 0 v-12 m-202 12 q0 10 10 10 m182 0 q10 0 10 -10 m-192 10 h10 m94 0 h10 m0 0 h10 m48 0 h10 m20 -32 h10 m38 0 h10 m0 0 h10 m64 0 h10 m20 0 h10 m126 0 h10 m-166 0 l20 0 m-1 0 q-9 0 -9 -10 l0 -12 q0 -10 10 -10 m146 32 l20 0 m-20 0 q10 0 10 -10 l0 -12 q0 -10 -10 -10 m-146 0 h10 m0 0 h136 m20 32 h10 m48 0 h10 m0 0 h10 m38 0 h10 m2 0 l2 0 m2 0 l2 0 m2 0 l2 0 m-682 142 l2 0 m2 0 l2 0 m2 0 l2 0 m22 0 h10 m76 0 h10 m0 0 h10 m26 0 h10 m40 0 h10 m74 0 h10 m0 0 h10 m30 0 h10 m20 0 h10 m40 0 h10 m0 0 h60 m-140 0 h20 m120 0 h20 m-160 0 q10 0 10 10 m140 0 q0 -10 10 -10 m-150 10 v24 m140 0 v-24 m-140 24 q0 10 10 10 m120 0 q10 0 10 -10 m-130 10 h10 m46 0 h10 m0 0 h54 m-130 -10 v20 m140 0 v-20 m-140 20 v24 m140 0 v-24 m-140 24 q0 10 10 10 m120 0 q10 0 10 -10 m-130 10 h10 m100 0 h10 m20 -88 h40 m-364 0 h20 m344 0 h20 m-384 0 q10 0 10 10 m364 0 q0 -10 10 -10 m-374 10 v112 m364 0 v-112 m-364 112 q0 10 10 10 m344 0 q10 0 10 -10 m-354 10 h10 m132 0 h10 m0 0 h10 m30 0 h10 m20 0 h10 m72 0 h10 m0 0 h6 m-118 0 h20 m98 0 h20 m-138 0 q10 0 10 10 m118 0 q0 -10 10 -10 m-128 10 v24 m118 0 v-24 m-118 24 q0 10 10 10 m98 0 q10 0 10 -10 m-108 10 h10 m78 0 h10 m-108 -10 v20 m118 0 v-20 m-118 20 v24 m118 0 v-24 m-118 24 q0 10 10 10 m98 0 q10 0 10 -10 m-108 10 h10 m48 0 h10 m0 0 h30 m20 -88 h4 m-354 -10 v20 m364 0 v-20 m-364 20 v112 m364 0 v-112 m-364 112 q0 10 10 10 m344 0 q10 0 10 -10 m-354 10 h10 m176 0 h10 m0 0 h10 m30 0 h10 m0 0 h10 m78 0 h10 m-384 -264 l20 0 m-1 0 q-9 0 -9 -10 l0 -24 q0 -10 10 -10 m384 44 l20 0 m-20 0 q10 0 10 -10 l0 -24 q0 -10 -10 -10 m-384 0 h10 m24 0 h10 m0 0 h340 m20 44 h10 m26 0 h10 m-632 0 h20 m612 0 h20 m-652 0 q10 0 10 10 m632 0 q0 -10 10 -10 m-642 10 v278 m632 0 v-278 m-632 278 q0 10 10 10 m612 0 q10 0 10 -10 m-622 10 h10 m0 0 h602 m23 -298 h-3"/>
   <polygon points="759 175 767 171 767 179"/>
   <polygon points="759 175 751 171 751 179"/>
</svg>
