<?xml version="1.0" encoding="UTF-8"?>
<svg xmlns="http://www.w3.org/2000/svg" width="723" height="321" viewBox="0 0 723 321">
   <defs>
      <style type="text/css">
    @namespace "http://www.w3.org/2000/svg";
    .line                 {fill: none; stroke: #330000; stroke-width: 1;}
    .bold-line            {stroke: #140000; shape-rendering: crispEdges; stroke-width: 2;}
    .thin-line            {stroke: #1F0000; shape-rendering: crispEdges}
    .filled               {fill: #330000; stroke: none;}
    text.terminal         {font-family: Verdana, Sans-serif;
                            font-size: 12px;
                            fill: #140000;
                            font-weight: bold;
                          }
    text.nonterminal      {font-family: Verdana, Sans-serif;
                            font-size: 12px;
                            fill: #1A0000;
                            font-weight: normal;
                          }
    text.regexp           {font-family: Verdana, Sans-serif;
                            font-size: 12px;
                            fill: #1F0000;
                            font-weight: normal;
                          }
    rect, circle, polygon {fill: #330000; stroke: #330000;}
    rect.terminal         {fill: #FF4D4D; stroke: #330000; stroke-width: 1;}
    rect.nonterminal      {fill: #FF9E9E; stroke: #330000; stroke-width: 1;}
    rect.text             {fill: none; stroke: none;}
    polygon.regexp        {fill: #FFC7C7; stroke: #330000; stroke-width: 1;}
  </style>
   </defs>
   <polygon points="9 17 1 13 1 21"/>
   <polygon points="17 17 9 13 9 21"/>
   <rect x="31" y="3" width="56" height="32" rx="10"/>
   <rect x="29"
         y="1"
         width="56"
         height="32"
         class="terminal"
         rx="10"/>
   <text class="terminal" x="39" y="21">TRIM</text>
   <rect x="107" y="3" width="26" height="32" rx="10"/>
   <rect x="105"
         y="1"
         width="26"
         height="32"
         class="terminal"
         rx="10"/>
   <text class="terminal" x="115" y="21">(</text>
   <rect x="213" y="67" width="82" height="32" rx="10"/>
   <rect x="211"
         y="65"
         width="82"
         height="32"
         class="terminal"
         rx="10"/>
   <text class="terminal" x="221" y="85">LEADING</text>
   <rect x="213" y="111" width="88" height="32" rx="10"/>
   <rect x="211"
         y="109"
         width="88"
         height="32"
         class="terminal"
         rx="10"/>
   <text class="terminal" x="221" y="129">TRAILING</text>
   <rect x="213" y="155" width="58" height="32" rx="10"/>
   <rect x="211"
         y="153"
         width="58"
         height="32"
         class="terminal"
         rx="10"/>
   <text class="terminal" x="221" y="173">BOTH</text>
   <a xmlns:xlink="http://www.w3.org/1999/xlink"
      xlink:href="#expression"
      xlink:title="removal_chars">
      <rect x="341" y="35" width="112" height="32"/>
      <rect x="339" y="33" width="112" height="32" class="nonterminal"/>
      <text class="nonterminal" x="349" y="53">removal_chars</text>
   </a>
   <rect x="193" y="199" width="82" height="32" rx="10"/>
   <rect x="191"
         y="197"
         width="82"
         height="32"
         class="terminal"
         rx="10"/>
   <text class="terminal" x="201" y="217">LEADING</text>
   <rect x="193" y="243" width="88" height="32" rx="10"/>
   <rect x="191"
         y="241"
         width="88"
         height="32"
         class="terminal"
         rx="10"/>
   <text class="terminal" x="201" y="261">TRAILING</text>
   <rect x="193" y="287" width="58" height="32" rx="10"/>
   <rect x="191"
         y="285"
         width="58"
         height="32"
         class="terminal"
         rx="10"/>
   <text class="terminal" x="201" y="305">BOTH</text>
   <rect x="493" y="35" width="60" height="32" rx="10"/>
   <rect x="491"
         y="33"
         width="60"
         height="32"
         class="terminal"
         rx="10"/>
   <text class="terminal" x="501" y="53">FROM</text>
   <a xmlns:xlink="http://www.w3.org/1999/xlink"
      xlink:href="#expression"
      xlink:title="string">
      <rect x="593" y="3" width="56" height="32"/>
      <rect x="591" y="1" width="56" height="32" class="nonterminal"/>
      <text class="nonterminal" x="601" y="21">string</text>
   </a>
   <rect x="669" y="3" width="26" height="32" rx="10"/>
   <rect x="667"
         y="1"
         width="26"
         height="32"
         class="terminal"
         rx="10"/>
   <text class="terminal" x="677" y="21">)</text>
   <path class="line"
         d="m17 17 h2 m0 0 h10 m56 0 h10 m0 0 h10 m26 0 h10 m20 0 h10 m0 0 h390 m-420 0 h20 m400 0 h20 m-440 0 q10 0 10 10 m420 0 q0 -10 10 -10 m-430 10 v12 m420 0 v-12 m-420 12 q0 10 10 10 m400 0 q10 0 10 -10 m-370 10 h10 m0 0 h98 m-128 0 h20 m108 0 h20 m-148 0 q10 0 10 10 m128 0 q0 -10 10 -10 m-138 10 v12 m128 0 v-12 m-128 12 q0 10 10 10 m108 0 q10 0 10 -10 m-118 10 h10 m82 0 h10 m0 0 h6 m-118 -10 v20 m128 0 v-20 m-128 20 v24 m128 0 v-24 m-128 24 q0 10 10 10 m108 0 q10 0 10 -10 m-118 10 h10 m88 0 h10 m-118 -10 v20 m128 0 v-20 m-128 20 v24 m128 0 v-24 m-128 24 q0 10 10 10 m108 0 q10 0 10 -10 m-118 10 h10 m58 0 h10 m0 0 h30 m20 -120 h10 m112 0 h10 m-300 0 h20 m280 0 h20 m-320 0 q10 0 10 10 m300 0 q0 -10 10 -10 m-310 10 v144 m300 0 v-144 m-300 144 q0 10 10 10 m280 0 q10 0 10 -10 m-290 10 h10 m82 0 h10 m0 0 h178 m-290 -10 v20 m300 0 v-20 m-300 20 v24 m300 0 v-24 m-300 24 q0 10 10 10 m280 0 q10 0 10 -10 m-290 10 h10 m88 0 h10 m0 0 h172 m-290 -10 v20 m300 0 v-20 m-300 20 v24 m300 0 v-24 m-300 24 q0 10 10 10 m280 0 q10 0 10 -10 m-290 10 h10 m58 0 h10 m0 0 h202 m20 -252 h10 m60 0 h10 m20 -32 h10 m56 0 h10 m0 0 h10 m26 0 h10 m3 0 h-3"/>
   <polygon points="713 17 721 13 721 21"/>
   <polygon points="713 17 705 13 705 21"/>
</svg>
