<?xml version="1.0" encoding="UTF-8" standalone="no"?>
<svg
   width="357"
   height="565"
   viewBox="0 0 357 565"
   version="1.1"
   id="svg34"
   sodipodi:docname="type.svg"
   inkscape:version="1.4 (e7c3feb100, 2024-10-09)"
   xmlns:inkscape="http://www.inkscape.org/namespaces/inkscape"
   xmlns:sodipodi="http://sodipodi.sourceforge.net/DTD/sodipodi-0.dtd"
   xmlns:xlink="http://www.w3.org/1999/xlink"
   xmlns="http://www.w3.org/2000/svg"
   xmlns:svg="http://www.w3.org/2000/svg">
  <sodipodi:namedview
     id="namedview34"
     pagecolor="#ffffff"
     bordercolor="#666666"
     borderopacity="1.0"
     inkscape:showpageshadow="2"
     inkscape:pageopacity="0.0"
     inkscape:pagecheckerboard="0"
     inkscape:deskcolor="#d1d1d1"
     inkscape:zoom="1.4247788"
     inkscape:cx="178.97515"
     inkscape:cy="282.49999"
     inkscape:window-width="1238"
     inkscape:window-height="1014"
     inkscape:window-x="112"
     inkscape:window-y="29"
     inkscape:window-maximized="0"
     inkscape:current-layer="svg34" />
  <defs
     id="defs1">
    <style
       type="text/css"
       id="style1">@namespace &quot;http://www.w3.org/2000/svg&quot;;.line { fill: none; stroke: #330000; stroke-width: 1; }
.bold-line { stroke: #140000; shape-rendering: crispEdges; stroke-width: 2; }
.thin-line { stroke: #1F0000; shape-rendering: crispEdges }
.filled { fill: #330000; stroke: none; }
text.terminal { font-family: Verdana, Sans-serif;                            font-size: 12px;                            fill: #140000;                            font-weight: bold; }
text.nonterminal { font-family: Verdana, Sans-serif;                            font-size: 12px;                            fill: #1A0000;                            font-weight: normal; }
text.regexp { font-family: Verdana, Sans-serif;                            font-size: 12px;                            fill: #1F0000;                            font-weight: normal; }
rect, circle, polygon { fill: #330000; stroke: #330000; }
rect.terminal { fill: #FF4D4D; stroke: #330000; stroke-width: 1; }
rect.nonterminal { fill: #FF9E9E; stroke: #330000; stroke-width: 1; }
rect.text { fill: none; stroke: none; }
polygon.regexp { fill: #FFC7C7; stroke: #330000; stroke-width: 1; }
</style>
  </defs>
  <polygon
     points="9 17 1 13 1 21"
     id="polygon1" />
  <polygon
     points="17 17 9 13 9 21"
     id="polygon2" />
  <rect
     x="51"
     y="3"
     width="58"
     height="32"
     rx="10"
     id="rect2" />
  <rect
     x="49"
     y="1"
     width="58"
     height="32"
     class="terminal"
     rx="10"
     id="rect3" />
  <text
     class="terminal"
     x="59"
     y="21"
     id="text3">BOOL</text>
  <rect
     x="51"
     y="47"
     width="86"
     height="32"
     rx="10"
     id="rect4" />
  <rect
     x="49"
     y="45"
     width="86"
     height="32"
     class="terminal"
     rx="10"
     id="rect5" />
  <text
     class="terminal"
     x="59"
     y="65"
     id="text5">BOOLEAN</text>
  <rect
     x="51"
     y="91"
     width="90"
     height="32"
     rx="10"
     id="rect6" />
  <rect
     x="49"
     y="89"
     width="90"
     height="32"
     class="terminal"
     rx="10"
     id="rect7" />
  <text
     class="terminal"
     x="59"
     y="109"
     id="text7">DATETIME</text>
  <rect
     x="51"
     y="135"
     width="82"
     height="32"
     rx="10"
     id="rect8" />
  <rect
     x="49"
     y="133"
     width="82"
     height="32"
     class="terminal"
     rx="10"
     id="rect9" />
  <text
     class="terminal"
     x="59"
     y="153"
     id="text9">DECIMAL</text>
  <rect
     x="51"
     y="179"
     width="76"
     height="32"
     rx="10"
     id="rect10" />
  <rect
     x="49"
     y="177"
     width="76"
     height="32"
     class="terminal"
     rx="10"
     id="rect11" />
  <text
     class="terminal"
     x="59"
     y="197"
     id="text11">DOUBLE</text>
  <rect
     x="51"
     y="223"
     width="44"
     height="32"
     rx="10"
     id="rect12" />
  <rect
     x="49"
     y="221"
     width="44"
     height="32"
     class="terminal"
     rx="10"
     id="rect13" />
  <text
     class="terminal"
     x="59"
     y="241"
     id="text13">INT</text>
  <rect
     x="51"
     y="267"
     width="80"
     height="32"
     rx="10"
     id="rect14" />
  <rect
     x="49"
     y="265"
     width="80"
     height="32"
     class="terminal"
     rx="10"
     id="rect15" />
  <text
     class="terminal"
     x="59"
     y="285"
     id="text15">INTEGER</text>
  <rect
     x="51"
     y="311"
     width="56"
     height="32"
     rx="10"
     id="rect16" />
  <rect
     x="49"
     y="309"
     width="56"
     height="32"
     class="terminal"
     rx="10"
     id="rect17" />
  <text
     class="terminal"
     x="59"
     y="329"
     id="text17">JSON</text>
  <rect
     x="51"
     y="355"
     width="72"
     height="32"
     rx="10"
     id="rect18" />
  <rect
     x="49"
     y="353"
     width="72"
     height="32"
     class="terminal"
     rx="10"
     id="rect19" />
  <text
     class="terminal"
     x="59"
     y="373"
     id="text19">STRING</text>
  <rect
     x="51"
     y="399"
     width="54"
     height="32"
     rx="10"
     id="rect20" />
  <rect
     x="49"
     y="397"
     width="54"
     height="32"
     class="terminal"
     rx="10"
     id="rect21" />
  <text
     class="terminal"
     x="59"
     y="417"
     id="text21">TEXT</text>
  <rect
     x="51"
     y="443"
     width="92"
     height="32"
     rx="10"
     id="rect22" />
  <rect
     x="49"
     y="441"
     width="92"
     height="32"
     class="terminal"
     rx="10"
     id="rect23" />
  <text
     class="terminal"
     x="59"
     y="461"
     id="text23">UNSIGNED</text>
  <rect
     x="51"
     y="487"
     width="56"
     height="32"
     rx="10"
     id="rect24" />
  <rect
     x="49"
     y="485"
     width="56"
     height="32"
     class="terminal"
     rx="10"
     id="rect25" />
  <text
     class="terminal"
     x="59"
     y="505"
     id="text25">UUID</text>
  <rect
     x="51"
     y="531"
     width="86"
     height="32"
     rx="10"
     id="rect26" />
  <rect
     x="49"
     y="529"
     width="86"
     height="32"
     class="terminal"
     rx="10"
     id="rect27" />
  <text
     class="terminal"
     x="59"
     y="549"
     id="text27">VARCHAR</text>
  <rect
     x="157"
     y="531"
     width="26"
     height="32"
     rx="10"
     id="rect28" />
  <rect
     x="155"
     y="529"
     width="26"
     height="32"
     class="terminal"
     rx="10"
     id="rect29" />
  <text
     class="terminal"
     x="165"
     y="549"
     id="text29">(</text>
  <a
     xlink:href="../../sql_types#unsigned"
     xlink:title="length"
     id="a31">
    <rect
       x="203"
       y="531"
       width="60"
       height="32"
       id="rect30" />
    <rect
       x="201"
       y="529"
       width="60"
       height="32"
       class="nonterminal"
       id="rect31" />
    <text
       class="nonterminal"
       x="211"
       y="549"
       id="text31">length</text>
  </a>
  <rect
     x="283"
     y="531"
     width="26"
     height="32"
     rx="10"
     id="rect32" />
  <rect
     x="281"
     y="529"
     width="26"
     height="32"
     class="terminal"
     rx="10"
     id="rect33" />
  <text
     class="terminal"
     x="291"
     y="549"
     id="text33">)</text>
  <path
     class="line"
     d="m17 17 h2 m20 0 h10 m58 0 h10 m0 0 h200 m-298 0 h20 m278 0 h20 m-318 0 q10 0 10 10 m298 0 q0 -10 10 -10 m-308 10 v24 m298 0 v-24 m-298 24 q0 10 10 10 m278 0 q10 0 10 -10 m-288 10 h10 m86 0 h10 m0 0 h172 m-288 -10 v20 m298 0 v-20 m-298 20 v24 m298 0 v-24 m-298 24 q0 10 10 10 m278 0 q10 0 10 -10 m-288 10 h10 m90 0 h10 m0 0 h168 m-288 -10 v20 m298 0 v-20 m-298 20 v24 m298 0 v-24 m-298 24 q0 10 10 10 m278 0 q10 0 10 -10 m-288 10 h10 m82 0 h10 m0 0 h176 m-288 -10 v20 m298 0 v-20 m-298 20 v24 m298 0 v-24 m-298 24 q0 10 10 10 m278 0 q10 0 10 -10 m-288 10 h10 m76 0 h10 m0 0 h182 m-288 -10 v20 m298 0 v-20 m-298 20 v24 m298 0 v-24 m-298 24 q0 10 10 10 m278 0 q10 0 10 -10 m-288 10 h10 m44 0 h10 m0 0 h214 m-288 -10 v20 m298 0 v-20 m-298 20 v24 m298 0 v-24 m-298 24 q0 10 10 10 m278 0 q10 0 10 -10 m-288 10 h10 m80 0 h10 m0 0 h178 m-288 -10 v20 m298 0 v-20 m-298 20 v24 m298 0 v-24 m-298 24 q0 10 10 10 m278 0 q10 0 10 -10 m-288 10 h10 m56 0 h10 m0 0 h202 m-288 -10 v20 m298 0 v-20 m-298 20 v24 m298 0 v-24 m-298 24 q0 10 10 10 m278 0 q10 0 10 -10 m-288 10 h10 m72 0 h10 m0 0 h186 m-288 -10 v20 m298 0 v-20 m-298 20 v24 m298 0 v-24 m-298 24 q0 10 10 10 m278 0 q10 0 10 -10 m-288 10 h10 m54 0 h10 m0 0 h204 m-288 -10 v20 m298 0 v-20 m-298 20 v24 m298 0 v-24 m-298 24 q0 10 10 10 m278 0 q10 0 10 -10 m-288 10 h10 m92 0 h10 m0 0 h166 m-288 -10 v20 m298 0 v-20 m-298 20 v24 m298 0 v-24 m-298 24 q0 10 10 10 m278 0 q10 0 10 -10 m-288 10 h10 m56 0 h10 m0 0 h202 m-288 -10 v20 m298 0 v-20 m-298 20 v24 m298 0 v-24 m-298 24 q0 10 10 10 m278 0 q10 0 10 -10 m-288 10 h10 m86 0 h10 m0 0 h10 m26 0 h10 m0 0 h10 m60 0 h10 m0 0 h10 m26 0 h10 m23 -528 h-3"
     id="path33" />
  <polygon
     points="347 17 355 13 355 21"
     id="polygon33" />
  <polygon
     points="347 17 339 13 339 21"
     id="polygon34" />
</svg>
