<?xml version="1.0" encoding="UTF-8" standalone="no"?>
<svg
   width="357"
   height="521"
   viewBox="0 0 357 521"
   version="1.1"
   id="svg32"
   sodipodi:docname="unrestricted_type.svg"
   inkscape:version="1.4.3 (0d15f75042, 2025-12-25)"
   xmlns:inkscape="http://www.inkscape.org/namespaces/inkscape"
   xmlns:sodipodi="http://sodipodi.sourceforge.net/DTD/sodipodi-0.dtd"
   xmlns:xlink="http://www.w3.org/1999/xlink"
   xmlns="http://www.w3.org/2000/svg"
   xmlns:svg="http://www.w3.org/2000/svg">
  <sodipodi:namedview
     id="namedview32"
     pagecolor="#ffffff"
     bordercolor="#666666"
     borderopacity="1.0"
     inkscape:showpageshadow="2"
     inkscape:pageopacity="0.0"
     inkscape:pagecheckerboard="0"
     inkscape:deskcolor="#d1d1d1"
     inkscape:zoom="3.1132438"
     inkscape:cx="114.51079"
     inkscape:cy="379.02589"
     inkscape:window-width="1858"
     inkscape:window-height="1009"
     inkscape:window-x="0"
     inkscape:window-y="0"
     inkscape:window-maximized="1"
     inkscape:current-layer="svg32" />
  <defs
     id="defs1">
    <style
       type="text/css"
       id="style1">@namespace &quot;http://www.w3.org/2000/svg&quot;;.line { fill: none; stroke: #330000; stroke-width: 1; }
.bold-line { stroke: #140000; shape-rendering: crispEdges; stroke-width: 2; }
.thin-line { stroke: #1F0000; shape-rendering: crispEdges }
.filled { fill: #330000; stroke: none; }
text.terminal { font-family: Verdana, Sans-serif;                            font-size: 12px;                            fill: #140000;                            font-weight: bold; }
text.nonterminal { font-family: Verdana, Sans-serif;                            font-size: 12px;                            fill: #1A0000;                            font-weight: normal; }
text.regexp { font-family: Verdana, Sans-serif;                            font-size: 12px;                            fill: #1F0000;                            font-weight: normal; }
rect, circle, polygon { fill: #330000; stroke: #330000; }
rect.terminal { fill: #FF4D4D; stroke: #330000; stroke-width: 1; }
rect.nonterminal { fill: #FF9E9E; stroke: #330000; stroke-width: 1; }
rect.text { fill: none; stroke: none; }
polygon.regexp { fill: #FFC7C7; stroke: #330000; stroke-width: 1; }
</style>
  </defs>
  <path
     id="polygon1"
     style="fill:#330000;stroke:#330000"
     d="M 9,17 1,13 v 8 z" />
  <path
     id="polygon2"
     style="fill:#330000;stroke:#330000"
     d="M 17,17 9,13 v 8 z" />
  <path
     id="rect2"
     style="fill:#330000;stroke:#330000"
     d="m 61,3 h 38 c 5.54,0 10,4.46 10,10 v 12 c 0,5.54 -4.46,10 -10,10 H 61 C 55.46,35 51,30.54 51,25 V 13 C 51,7.46 55.46,3 61,3 Z" />
  <g
     id="g1">
    <path
       id="rect3"
       class="terminal"
       style="fill:#ff4d4d;stroke:#330000"
       d="m 59,1 h 38 c 5.54,0 10,4.46 10,10 v 12 c 0,5.54 -4.46,10 -10,10 H 59 C 53.46,33 49,28.54 49,23 V 11 C 49,5.46 53.46,1 59,1 Z" />
    <path
       d="m 67.578125,18.328125 q 0,0.632812 -0.257813,1.130859 -0.251953,0.498047 -0.697265,0.826172 -0.515625,0.386719 -1.136719,0.550781 Q 64.871094,21 63.921875,21 H 60.113281 V 12.275391 H 63.5 q 1.054687,0 1.541016,0.07031 0.492187,0.07031 0.972656,0.310547 0.498047,0.251953 0.738281,0.679688 0.246094,0.421875 0.246094,0.966796 0,0.632813 -0.333985,1.119141 -0.333984,0.480469 -0.943359,0.75 v 0.04687 q 0.855469,0.169922 1.353516,0.703125 0.503906,0.533203 0.503906,1.40625 z m -2.882813,-3.585937 q 0,-0.216797 -0.111328,-0.433594 -0.105468,-0.216797 -0.380859,-0.322266 -0.246094,-0.09375 -0.615234,-0.09961 Q 63.224609,13.875 62.5625,13.875 h -0.210938 v 1.845703 h 0.351563 q 0.533203,0 0.908203,-0.01758 0.375,-0.01758 0.591797,-0.117187 0.304687,-0.134766 0.398437,-0.345704 0.09375,-0.216796 0.09375,-0.498046 z m 0.550782,3.550781 q 0,-0.416016 -0.164063,-0.638672 -0.158203,-0.228516 -0.544922,-0.339844 -0.263672,-0.07617 -0.726562,-0.08203 -0.462891,-0.0059 -0.966797,-0.0059 h -0.492188 v 2.173829 h 0.164063 q 0.949219,0 1.359375,-0.0059 0.410156,-0.0059 0.755859,-0.152344 0.351563,-0.146484 0.480469,-0.386718 0.134766,-0.246094 0.134766,-0.5625 z m 12.492187,-1.652344 q 0,2.085937 -1.195312,3.316406 -1.195313,1.22461 -3.304688,1.22461 -2.103515,0 -3.298828,-1.22461 -1.195312,-1.230469 -1.195312,-3.316406 0,-2.103516 1.195312,-3.322266 1.195313,-1.224609 3.298828,-1.224609 2.097656,0 3.298828,1.224609 1.201172,1.21875 1.201172,3.322266 z m -2.982422,2.208984 q 0.328125,-0.398437 0.486328,-0.9375 0.158204,-0.544922 0.158204,-1.277343 0,-0.785157 -0.181641,-1.335938 -0.181641,-0.550781 -0.474609,-0.890625 -0.298829,-0.351562 -0.691407,-0.509765 -0.386718,-0.158204 -0.808593,-0.158204 -0.427735,0 -0.808594,0.152344 -0.375,0.152344 -0.691406,0.503906 -0.292969,0.328125 -0.480469,0.908204 -0.181641,0.574218 -0.181641,1.335937 0,0.779297 0.175781,1.330078 0.181641,0.544922 0.47461,0.890625 0.292969,0.345703 0.685547,0.509766 0.392578,0.164062 0.826172,0.164062 0.433593,0 0.826171,-0.164062 0.392579,-0.169922 0.685547,-0.521485 z m 13.183594,-2.208984 q 0,2.085937 -1.195312,3.316406 -1.195313,1.22461 -3.304688,1.22461 -2.103516,0 -3.298828,-1.22461 -1.195313,-1.230469 -1.195313,-3.316406 0,-2.103516 1.195313,-3.322266 1.195312,-1.224609 3.298828,-1.224609 2.097656,0 3.298828,1.224609 1.201172,1.21875 1.201172,3.322266 z m -2.982422,2.208984 q 0.328125,-0.398437 0.486328,-0.9375 0.158203,-0.544922 0.158203,-1.277343 0,-0.785157 -0.18164,-1.335938 -0.181641,-0.550781 -0.47461,-0.890625 -0.298828,-0.351562 -0.691406,-0.509765 -0.386719,-0.158204 -0.808594,-0.158204 -0.427734,0 -0.808593,0.152344 -0.375,0.152344 -0.691407,0.503906 -0.292968,0.328125 -0.480468,0.908204 -0.181641,0.574218 -0.181641,1.335937 0,0.779297 0.175781,1.330078 0.181641,0.544922 0.47461,0.890625 0.292968,0.345703 0.685547,0.509766 0.392578,0.164062 0.826171,0.164062 0.433594,0 0.826172,-0.164062 0.392578,-0.169922 0.685547,-0.521485 z M 95.949219,21 H 89.65625 v -8.724609 h 2.25 V 19.3125 h 4.042969 z"
       id="text3"
       class="terminal"
       style="font-weight:bold;font-size:12px;font-family:Verdana, Sans-serif;fill:#140000"
       aria-label="BOOL" />
  </g>
  <a
     id="a3"
     xlink:href="../../sql_types#boolean">
    <g
       id="g33">
      <path
         id="rect4"
         style="fill:#330000;stroke:#330000"
         d="m 61,47 h 66 c 5.54,0 10,4.46 10,10 v 12 c 0,5.54 -4.46,10 -10,10 H 61 C 55.46,79 51,74.54 51,69 V 57 c 0,-5.54 4.46,-10 10,-10 z" />
      <path
         id="rect5"
         class="terminal"
         style="fill:#ff4d4d;stroke:#330000"
         d="m 59,45 h 66 c 5.54,0 10,4.46 10,10 v 12 c 0,5.54 -4.46,10 -10,10 H 59 C 53.46,77 49,72.54 49,67 V 55 c 0,-5.54 4.46,-10 10,-10 z" />
      <path
         d="m 67.578125,62.328125 q 0,0.632812 -0.257813,1.130859 -0.251953,0.498047 -0.697265,0.826172 -0.515625,0.386719 -1.136719,0.550781 Q 64.871094,65 63.921875,65 H 60.113281 V 56.275391 H 63.5 q 1.054687,0 1.541016,0.07031 0.492187,0.07031 0.972656,0.310547 0.498047,0.251953 0.738281,0.679687 0.246094,0.421875 0.246094,0.966797 0,0.632813 -0.333985,1.119141 -0.333984,0.480469 -0.943359,0.75 v 0.04687 q 0.855469,0.169922 1.353516,0.703125 0.503906,0.533203 0.503906,1.40625 z m -2.882813,-3.585938 q 0,-0.216796 -0.111328,-0.433593 -0.105468,-0.216797 -0.380859,-0.322266 -0.246094,-0.09375 -0.615234,-0.09961 Q 63.224609,57.875 62.5625,57.875 h -0.210938 v 1.845703 h 0.351563 q 0.533203,0 0.908203,-0.01758 0.375,-0.01758 0.591797,-0.117188 0.304687,-0.134765 0.398437,-0.345703 0.09375,-0.216797 0.09375,-0.498047 z m 0.550782,3.550782 q 0,-0.416016 -0.164063,-0.638672 -0.158203,-0.228516 -0.544922,-0.339844 -0.263672,-0.07617 -0.726562,-0.08203 -0.462891,-0.0059 -0.966797,-0.0059 h -0.492188 v 2.173829 h 0.164063 q 0.949219,0 1.359375,-0.0059 0.410156,-0.0059 0.755859,-0.152344 0.351563,-0.146484 0.480469,-0.386718 0.134766,-0.246094 0.134766,-0.5625 z m 12.492187,-1.652344 q 0,2.085937 -1.195312,3.316406 -1.195313,1.22461 -3.304688,1.22461 -2.103515,0 -3.298828,-1.22461 -1.195312,-1.230469 -1.195312,-3.316406 0,-2.103516 1.195312,-3.322266 1.195313,-1.224609 3.298828,-1.224609 2.097656,0 3.298828,1.224609 1.201172,1.21875 1.201172,3.322266 z m -2.982422,2.208984 q 0.328125,-0.398437 0.486328,-0.9375 0.158204,-0.544922 0.158204,-1.277343 0,-0.785157 -0.181641,-1.335938 -0.181641,-0.550781 -0.474609,-0.890625 -0.298829,-0.351562 -0.691407,-0.509766 -0.386718,-0.158203 -0.808593,-0.158203 -0.427735,0 -0.808594,0.152344 -0.375,0.152344 -0.691406,0.503906 -0.292969,0.328125 -0.480469,0.908203 -0.181641,0.574219 -0.181641,1.335938 0,0.779297 0.175781,1.330078 0.181641,0.544922 0.47461,0.890625 0.292969,0.345703 0.685547,0.509766 0.392578,0.164062 0.826172,0.164062 0.433593,0 0.826171,-0.164062 0.392579,-0.169922 0.685547,-0.521485 z m 13.183594,-2.208984 q 0,2.085937 -1.195312,3.316406 -1.195313,1.22461 -3.304688,1.22461 -2.103516,0 -3.298828,-1.22461 -1.195313,-1.230469 -1.195313,-3.316406 0,-2.103516 1.195313,-3.322266 1.195312,-1.224609 3.298828,-1.224609 2.097656,0 3.298828,1.224609 1.201172,1.21875 1.201172,3.322266 z m -2.982422,2.208984 q 0.328125,-0.398437 0.486328,-0.9375 0.158203,-0.544922 0.158203,-1.277343 0,-0.785157 -0.18164,-1.335938 -0.181641,-0.550781 -0.47461,-0.890625 -0.298828,-0.351562 -0.691406,-0.509766 -0.386719,-0.158203 -0.808594,-0.158203 -0.427734,0 -0.808593,0.152344 -0.375,0.152344 -0.691407,0.503906 -0.292968,0.328125 -0.480468,0.908203 -0.181641,0.574219 -0.181641,1.335938 0,0.779297 0.175781,1.330078 0.181641,0.544922 0.47461,0.890625 0.292968,0.345703 0.685547,0.509766 0.392578,0.164062 0.826171,0.164062 0.433594,0 0.826172,-0.164062 0.392578,-0.169922 0.685547,-0.521485 z M 95.949219,65 H 89.65625 v -8.724609 h 2.25 V 63.3125 h 4.042969 z m 7.664061,0 h -6.310546 v -8.724609 h 6.310546 v 1.6875 h -4.072264 v 1.505859 h 3.779294 v 1.6875 h -3.779294 v 2.15625 h 4.072264 z m 9.94922,0 h -2.32617 l -0.60352,-1.763672 h -3.23437 L 106.79492,65 h -2.26758 L 107.75,56.275391 h 2.58984 z m -3.47461,-3.363281 -1.07226,-3.128907 -1.07227,3.128907 z M 122.75,65 h -2.16797 l -3.70312,-5.988281 V 65 h -2.0625 v -8.724609 h 2.68945 l 3.18164,4.998046 v -4.998046 h 2.0625 z"
         id="text5"
         class="terminal"
         style="font-weight:bold;font-size:12px;font-family:Verdana, Sans-serif;fill:#140000"
         aria-label="BOOLEAN" />
    </g>
  </a>
  <a
     id="a4"
     xlink:href="../../sql_types#datetime">
    <g
       id="g34">
      <path
         id="rect6"
         style="fill:#330000;stroke:#330000"
         d="m 61,91 h 70 c 5.54,0 10,4.46 10,10 v 12 c 0,5.54 -4.46,10 -10,10 H 61 c -5.54,0 -10,-4.46 -10,-10 v -12 c 0,-5.54 4.46,-10 10,-10 z" />
      <path
         id="rect7"
         class="terminal"
         style="fill:#ff4d4d;stroke:#330000"
         d="m 59,89 h 70 c 5.54,0 10,4.46 10,10 v 12 c 0,5.54 -4.46,10 -10,10 H 59 c -5.54,0 -10,-4.46 -10,-10 V 99 c 0,-5.54 4.46,-10 10,-10 z" />
      <path
         d="m 68.357422,104.64648 q 0,1.21875 -0.556641,2.18555 -0.55664,0.96094 -1.40625,1.47656 -0.638672,0.38672 -1.40039,0.53907 Q 64.232422,109 63.189453,109 h -3.076172 v -8.72461 h 3.164063 q 1.066406,0 1.839843,0.18164 0.773438,0.17578 1.300782,0.50391 0.902343,0.55078 1.417968,1.48828 0.521485,0.93164 0.521485,2.19726 z m -2.326172,-0.0176 q 0,-0.86133 -0.316406,-1.47071 -0.310547,-0.61523 -0.990235,-0.96093 -0.345703,-0.16993 -0.708984,-0.22852 -0.357422,-0.0644 -1.083984,-0.0644 h -0.56836 v 5.46093 h 0.56836 q 0.802734,0 1.177734,-0.0703 0.375,-0.0762 0.732422,-0.26953 0.615234,-0.35156 0.902344,-0.9375 0.287109,-0.5918 0.287109,-1.45898 z M 78.136719,109 h -2.326172 l -0.603516,-1.76367 H 71.972656 L 71.369141,109 h -2.267579 l 3.222657,-8.72461 h 2.589843 z m -3.47461,-3.36328 -1.072265,-3.12891 -1.072266,3.12891 z m 11.554688,-3.67383 h -2.72461 V 109 h -2.25 v -7.03711 h -2.724609 v -1.6875 h 7.699219 z M 93.880859,109 h -6.310547 v -8.72461 h 6.310547 v 1.6875 h -4.072265 v 1.50586 h 3.779297 v 1.6875 h -3.779297 v 2.15625 h 4.072265 z m 8.712891,-7.03711 H 99.869141 V 109 h -2.25 v -7.03711 h -2.72461 v -1.6875 h 7.699219 z M 108.66406,109 h -5.10937 v -1.54687 h 1.42969 v -5.63086 h -1.42969 v -1.54688 h 5.10937 v 1.54688 h -1.42968 v 5.63086 h 1.42968 z m 10.98047,0 h -2.23828 v -5.8418 l -1.61719,3.79102 h -1.55273 l -1.61719,-3.79102 V 109 h -2.12109 v -8.72461 h 2.61328 l 1.96289,4.37695 1.95703,-4.37695 h 2.61328 z m 8.53711,0 h -6.31055 v -8.72461 h 6.31055 v 1.6875 h -4.07226 v 1.50586 h 3.77929 v 1.6875 h -3.77929 v 2.15625 h 4.07226 z"
         id="text7"
         class="terminal"
         style="font-weight:bold;font-size:12px;font-family:Verdana, Sans-serif;fill:#140000"
         aria-label="DATETIME" />
    </g>
  </a>
  <a
     id="a5"
     xlink:href="../../sql_types#decimal">
    <g
       id="g35">
      <path
         id="rect8"
         style="fill:#330000;stroke:#330000"
         d="m 61,135 h 62 c 5.54,0 10,4.46 10,10 v 12 c 0,5.54 -4.46,10 -10,10 H 61 c -5.54,0 -10,-4.46 -10,-10 v -12 c 0,-5.54 4.46,-10 10,-10 z" />
      <path
         id="rect9"
         class="terminal"
         style="fill:#ff4d4d;stroke:#330000"
         d="m 59,133 h 62 c 5.54,0 10,4.46 10,10 v 12 c 0,5.54 -4.46,10 -10,10 H 59 c -5.54,0 -10,-4.46 -10,-10 v -12 c 0,-5.54 4.46,-10 10,-10 z" />
      <path
         d="m 68.357422,148.64648 q 0,1.21875 -0.556641,2.18555 -0.55664,0.96094 -1.40625,1.47656 -0.638672,0.38672 -1.40039,0.53907 Q 64.232422,153 63.189453,153 h -3.076172 v -8.72461 h 3.164063 q 1.066406,0 1.839843,0.18164 0.773438,0.17578 1.300782,0.50391 0.902343,0.55078 1.417968,1.48828 0.521485,0.93164 0.521485,2.19726 z m -2.326172,-0.0176 q 0,-0.86133 -0.316406,-1.47071 -0.310547,-0.61523 -0.990235,-0.96093 -0.345703,-0.16993 -0.708984,-0.22852 -0.357422,-0.0644 -1.083984,-0.0644 h -0.56836 v 5.46093 h 0.56836 q 0.802734,0 1.177734,-0.0703 0.375,-0.0762 0.732422,-0.26953 0.615234,-0.35156 0.902344,-0.9375 0.287109,-0.5918 0.287109,-1.45898 z M 76.384766,153 h -6.310547 v -8.72461 h 6.310547 v 1.6875 H 72.3125 v 1.50586 h 3.779297 v 1.6875 H 72.3125 v 2.15625 h 4.072266 z m 5.830078,0.16992 q -0.972657,0 -1.798828,-0.28711 -0.820313,-0.28711 -1.41211,-0.85547 -0.591797,-0.56836 -0.919922,-1.41797 -0.322265,-0.8496 -0.322265,-1.96289 0,-1.03711 0.310547,-1.88086 0.310546,-0.84375 0.902343,-1.44726 0.56836,-0.58008 1.40625,-0.89649 0.84375,-0.3164 1.839844,-0.3164 0.550781,0 0.990234,0.0644 0.445313,0.0586 0.820313,0.1582 0.392578,0.11133 0.708984,0.25196 0.322266,0.13476 0.5625,0.25195 v 2.11524 h -0.257812 q -0.164063,-0.14063 -0.416016,-0.33399 -0.246094,-0.19336 -0.5625,-0.38086 -0.322265,-0.1875 -0.697265,-0.3164 -0.375,-0.12891 -0.802735,-0.12891 -0.474609,0 -0.902344,0.15234 -0.427734,0.14649 -0.791015,0.49219 -0.345703,0.33398 -0.5625,0.88477 -0.210938,0.55078 -0.210938,1.33593 0,0.82032 0.228516,1.3711 0.234375,0.55078 0.585937,0.86718 0.357422,0.32227 0.796875,0.4629 0.439454,0.13476 0.867188,0.13476 0.410156,0 0.808594,-0.12305 0.404297,-0.12304 0.74414,-0.33398 0.28711,-0.16992 0.533203,-0.36328 0.246094,-0.19336 0.404297,-0.33399 h 0.234375 v 2.08594 q -0.328125,0.14649 -0.626953,0.27539 -0.298828,0.12891 -0.626953,0.22266 -0.427734,0.12305 -0.802734,0.1875 -0.375,0.0644 -1.03125,0.0644 z M 91.671875,153 H 86.5625 v -1.54688 h 1.429687 v -5.63085 H 86.5625 v -1.54688 h 5.109375 v 1.54688 h -1.429688 v 5.63085 h 1.429688 z m 10.980465,0 h -2.23828 v -5.8418 l -1.617185,3.79102 H 97.244141 L 95.626953,147.1582 V 153 h -2.121094 v -8.72461 h 2.613282 l 1.96289,4.37695 1.957029,-4.37695 h 2.61328 z m 10.28907,0 h -2.32618 l -0.60351,-1.76367 h -3.23438 L 106.17383,153 h -2.26758 l 3.22266,-8.72461 h 2.58984 z m -3.47461,-3.36328 -1.07227,-3.12891 -1.07226,3.12891 z M 120.48828,153 h -6.29297 v -8.72461 h 2.25 v 7.03711 h 4.04297 z"
         id="text9"
         class="terminal"
         style="font-weight:bold;font-size:12px;font-family:Verdana, Sans-serif;fill:#140000"
         aria-label="DECIMAL" />
    </g>
  </a>
  <a
     id="a6"
     xlink:href="../../sql_types#double">
    <g
       id="g36">
      <path
         id="rect10"
         style="fill:#330000;stroke:#330000"
         d="m 61,179 h 56 c 5.54,0 10,4.46 10,10 v 12 c 0,5.54 -4.46,10 -10,10 H 61 c -5.54,0 -10,-4.46 -10,-10 v -12 c 0,-5.54 4.46,-10 10,-10 z" />
      <path
         id="rect11"
         class="terminal"
         style="fill:#ff4d4d;stroke:#330000"
         d="m 59,177 h 56 c 5.54,0 10,4.46 10,10 v 12 c 0,5.54 -4.46,10 -10,10 H 59 c -5.54,0 -10,-4.46 -10,-10 v -12 c 0,-5.54 4.46,-10 10,-10 z" />
      <path
         d="m 68.357422,192.64648 q 0,1.21875 -0.556641,2.18555 -0.55664,0.96094 -1.40625,1.47656 -0.638672,0.38672 -1.40039,0.53907 Q 64.232422,197 63.189453,197 h -3.076172 v -8.72461 h 3.164063 q 1.066406,0 1.839843,0.18164 0.773438,0.17578 1.300782,0.50391 0.902343,0.55078 1.417968,1.48828 0.521485,0.93164 0.521485,2.19726 z m -2.326172,-0.0176 q 0,-0.86133 -0.316406,-1.47071 -0.310547,-0.61523 -0.990235,-0.96093 -0.345703,-0.16993 -0.708984,-0.22852 -0.357422,-0.0644 -1.083984,-0.0644 h -0.56836 v 5.46093 h 0.56836 q 0.802734,0 1.177734,-0.0703 0.375,-0.0762 0.732422,-0.26953 0.615234,-0.35156 0.902344,-0.9375 0.287109,-0.5918 0.287109,-1.45898 z m 12.527344,0.0117 q 0,2.08594 -1.195313,3.31641 -1.195312,1.22461 -3.304687,1.22461 -2.103516,0 -3.298828,-1.22461 -1.195313,-1.23047 -1.195313,-3.31641 0,-2.10351 1.195313,-3.32226 1.195312,-1.22461 3.298828,-1.22461 2.097656,0 3.298828,1.22461 1.201172,1.21875 1.201172,3.32226 z m -2.982422,2.20899 q 0.328125,-0.39844 0.486328,-0.9375 0.158203,-0.54492 0.158203,-1.27734 0,-0.78516 -0.181641,-1.33594 -0.18164,-0.55078 -0.474609,-0.89063 -0.298828,-0.35156 -0.691406,-0.50976 -0.386719,-0.15821 -0.808594,-0.15821 -0.427734,0 -0.808594,0.15235 -0.375,0.15234 -0.691406,0.5039 -0.292969,0.32813 -0.480469,0.90821 -0.18164,0.57422 -0.18164,1.33593 0,0.7793 0.175781,1.33008 0.181641,0.54492 0.474609,0.89063 0.292969,0.3457 0.685547,0.50976 0.392578,0.16407 0.826172,0.16407 0.433594,0 0.826172,-0.16407 0.392578,-0.16992 0.685547,-0.52148 z m 12.339844,-1.00781 q 0,1.61718 -0.984375,2.47851 -0.984375,0.86133 -2.900391,0.86133 -1.916016,0 -2.900391,-0.86133 -0.978515,-0.86133 -0.978515,-2.47265 v -5.57227 h 2.261718 v 5.44336 q 0,0.9082 0.38086,1.35352 0.380859,0.44531 1.236328,0.44531 0.84375,0 1.230469,-0.42774 0.392578,-0.42773 0.392578,-1.37109 v -5.44336 h 2.261719 z m 9.568359,0.48632 q 0,0.63282 -0.257813,1.13086 -0.251953,0.49805 -0.697265,0.82618 -0.515625,0.38671 -1.136719,0.55078 Q 94.777344,197 93.828125,197 h -3.808594 v -8.72461 h 3.386719 q 1.054687,0 1.541016,0.0703 0.492187,0.0703 0.972656,0.31055 0.498047,0.25195 0.738281,0.67969 0.246094,0.42187 0.246094,0.96679 0,0.63282 -0.333985,1.11914 -0.333984,0.48047 -0.943359,0.75 v 0.0469 q 0.855469,0.16992 1.353516,0.70312 0.503906,0.53321 0.503906,1.40625 z m -2.882813,-3.58593 q 0,-0.2168 -0.111328,-0.4336 -0.105468,-0.21679 -0.380859,-0.32226 -0.246094,-0.0937 -0.615234,-0.0996 -0.363282,-0.0117 -1.025391,-0.0117 h -0.210938 v 1.8457 h 0.351563 q 0.533203,0 0.908203,-0.0176 0.375,-0.0176 0.591797,-0.11718 0.304687,-0.13477 0.398437,-0.34571 0.09375,-0.21679 0.09375,-0.49804 z m 0.550782,3.55078 q 0,-0.41602 -0.164063,-0.63867 -0.158203,-0.22852 -0.544922,-0.33985 -0.263672,-0.0762 -0.726562,-0.082 -0.462891,-0.006 -0.966797,-0.006 h -0.492188 v 2.17383 h 0.164063 q 0.949219,0 1.359375,-0.006 0.410156,-0.006 0.755859,-0.15234 0.351563,-0.14649 0.480469,-0.38672 0.134766,-0.2461 0.134766,-0.5625 z M 105.45313,197 h -6.292974 v -8.72461 h 2.250004 v 7.03711 h 4.04297 z m 7.66406,0 h -6.31055 v -8.72461 h 6.31055 v 1.6875 h -4.07227 v 1.50586 h 3.7793 v 1.6875 h -3.7793 v 2.15625 h 4.07227 z"
         id="text11"
         class="terminal"
         style="font-weight:bold;font-size:12px;font-family:Verdana, Sans-serif;fill:#140000"
         aria-label="DOUBLE" />
    </g>
  </a>
  <a
     id="a7"
     xlink:href="../../sql_types#integer">
    <g
       id="g37">
      <path
         id="rect12"
         style="fill:#330000;stroke:#330000"
         d="m 61,223 h 24 c 5.54,0 10,4.46 10,10 v 12 c 0,5.54 -4.46,10 -10,10 H 61 c -5.54,0 -10,-4.46 -10,-10 v -12 c 0,-5.54 4.46,-10 10,-10 z" />
      <path
         id="rect13"
         class="terminal"
         style="fill:#ff4d4d;stroke:#330000"
         d="m 59,221 h 24 c 5.54,0 10,4.46 10,10 v 12 c 0,5.54 -4.46,10 -10,10 H 59 c -5.54,0 -10,-4.46 -10,-10 v -12 c 0,-5.54 4.46,-10 10,-10 z" />
      <path
         d="m 64.830078,241 h -5.109375 v -1.54688 h 1.429688 v -5.63085 h -1.429688 v -1.54688 h 5.109375 v 1.54688 h -1.429687 v 5.63085 h 1.429687 z m 9.767578,0 h -2.167969 l -3.703125,-5.98828 V 241 h -2.0625 v -8.72461 h 2.689454 l 3.18164,4.99805 v -4.99805 h 2.0625 z m 9.052735,-7.03711 h -2.72461 V 241 h -2.25 v -7.03711 h -2.724609 v -1.6875 h 7.699219 z"
         id="text13"
         class="terminal"
         style="font-weight:bold;font-size:12px;font-family:Verdana, Sans-serif;fill:#140000"
         aria-label="INT" />
    </g>
  </a>
  <a
     id="a8"
     xlink:href="../../sql_types#integer">
    <g
       id="g38">
      <path
         id="rect14"
         style="fill:#330000;stroke:#330000"
         d="m 61,267 h 60 c 5.54,0 10,4.46 10,10 v 12 c 0,5.54 -4.46,10 -10,10 H 61 c -5.54,0 -10,-4.46 -10,-10 v -12 c 0,-5.54 4.46,-10 10,-10 z" />
      <path
         id="rect15"
         class="terminal"
         style="fill:#ff4d4d;stroke:#330000"
         d="m 59,265 h 60 c 5.54,0 10,4.46 10,10 v 12 c 0,5.54 -4.46,10 -10,10 H 59 c -5.54,0 -10,-4.46 -10,-10 v -12 c 0,-5.54 4.46,-10 10,-10 z" />
      <path
         d="m 64.830078,285 h -5.109375 v -1.54688 h 1.429688 v -5.63085 h -1.429688 v -1.54688 h 5.109375 v 1.54688 h -1.429687 v 5.63085 h 1.429687 z m 9.767578,0 h -2.167969 l -3.703125,-5.98828 V 285 h -2.0625 v -8.72461 h 2.689454 l 3.18164,4.99805 v -4.99805 h 2.0625 z m 9.052735,-7.03711 h -2.72461 V 285 h -2.25 v -7.03711 h -2.724609 v -1.6875 h 7.699219 z M 91.314453,285 h -6.310547 v -8.72461 h 6.310547 v 1.6875 h -4.072266 v 1.50586 h 3.779297 v 1.6875 h -3.779297 v 2.15625 h 4.072266 z m 9.603517,-0.49805 q -0.58594,0.22852 -1.552736,0.45703 -0.966797,0.22266 -1.927734,0.22266 -2.226563,0 -3.486328,-1.20703 -1.259766,-1.21289 -1.259766,-3.3457 0,-2.03321 1.271485,-3.27539 1.271484,-1.24805 3.544921,-1.24805 0.861329,0 1.640625,0.1582 0.779297,0.15235 1.734373,0.61524 v 2.04492 h -0.25195 q -0.16406,-0.12305 -0.48047,-0.34571 -0.316406,-0.22851 -0.609374,-0.38671 -0.339844,-0.1875 -0.796875,-0.32227 -0.451172,-0.13477 -0.960938,-0.13477 -0.597656,0 -1.083984,0.17579 -0.486328,0.17578 -0.873047,0.53906 -0.369141,0.35156 -0.585938,0.89648 -0.210937,0.53907 -0.210937,1.24805 0,1.44727 0.767578,2.21484 0.767578,0.76758 2.267578,0.76758 0.128906,0 0.28125,-0.006 0.158203,-0.006 0.287109,-0.0176 v -1.71093 h -1.740234 v -1.64649 h 4.025392 z M 109.24414,285 h -6.31055 v -8.72461 h 6.31055 v 1.6875 h -4.07226 v 1.50586 h 3.77929 v 1.6875 h -3.77929 v 2.15625 h 4.07226 z m 6.7793,-6.05273 q 0,-0.32813 -0.13477,-0.5625 -0.13476,-0.23438 -0.46289,-0.36915 -0.22851,-0.0937 -0.5332,-0.11132 -0.30469,-0.0234 -0.70899,-0.0234 h -0.81445 v 2.34961 h 0.69141 q 0.53906,0 0.90234,-0.0527 0.36328,-0.0527 0.60938,-0.24023 0.23437,-0.18164 0.33984,-0.39844 0.11133,-0.22265 0.11133,-0.59179 z M 119.5332,285 h -2.74804 l -2.37891,-3.19922 h -1.03711 V 285 h -2.23828 v -8.72461 h 3.77344 q 0.77343,0 1.33008,0.0879 0.55664,0.0879 1.04296,0.38086 0.49219,0.29297 0.7793,0.76172 0.29297,0.46289 0.29297,1.16601 0,0.9668 -0.45117,1.57618 -0.44531,0.60937 -1.27735,1.01367 z"
         id="text15"
         class="terminal"
         style="font-weight:bold;font-size:12px;font-family:Verdana, Sans-serif;fill:#140000"
         aria-label="INTEGER" />
    </g>
  </a>
  <a
     id="a9"
     xlink:href="../../sql_types#json">
    <g
       id="g39">
      <path
         id="rect16"
         style="fill:#330000;stroke:#330000"
         d="m 61,311 h 36 c 5.54,0 10,4.46 10,10 v 12 c 0,5.54 -4.46,10 -10,10 H 61 c -5.54,0 -10,-4.46 -10,-10 v -12 c 0,-5.54 4.46,-10 10,-10 z" />
      <path
         id="rect17"
         class="terminal"
         style="fill:#ff4d4d;stroke:#330000"
         d="m 59,309 h 36 c 5.54,0 10,4.46 10,10 v 12 c 0,5.54 -4.46,10 -10,10 H 59 c -5.54,0 -10,-4.46 -10,-10 v -12 c 0,-5.54 4.46,-10 10,-10 z" />
      <path
         d="m 64.660156,326.43945 q 0,0.57422 -0.205078,1.07813 -0.205078,0.49804 -0.609375,0.84375 -0.427734,0.36914 -1.03125,0.57422 -0.603516,0.19922 -1.494141,0.19922 -0.603515,0 -1.136718,-0.0469 -0.533203,-0.041 -0.9375,-0.12305 v -1.76953 h 0.210937 q 0.28125,0.10547 0.585938,0.19922 0.304687,0.0879 0.779297,0.0879 0.615234,0 0.943359,-0.16406 0.333984,-0.16406 0.474609,-0.45703 0.134766,-0.28711 0.152344,-0.62696 0.01758,-0.3457 0.01758,-0.8789 v -3.47461 h -1.998047 v -1.60547 h 4.248047 z m 9.09961,-0.18164 q 0,1.28906 -1.095704,2.09766 -1.089843,0.80273 -2.964843,0.80273 -1.083985,0 -1.892578,-0.1875 -0.802735,-0.19336 -1.50586,-0.48633 v -2.09179 h 0.246094 q 0.697266,0.55664 1.558594,0.85547 0.867187,0.29882 1.664062,0.29882 0.205078,0 0.539063,-0.0351 0.333984,-0.0352 0.544922,-0.11719 0.257812,-0.10547 0.421875,-0.26367 0.169921,-0.1582 0.169921,-0.46875 0,-0.28711 -0.246093,-0.49219 -0.240235,-0.21094 -0.708985,-0.32226 -0.492187,-0.11719 -1.042968,-0.2168 -0.544922,-0.10547 -1.025391,-0.26367 -1.101563,-0.35742 -1.587891,-0.9668 -0.480468,-0.61523 -0.480468,-1.52344 0,-1.21875 1.089843,-1.98633 1.095703,-0.77343 2.8125,-0.77343 0.861328,0 1.699219,0.16992 0.84375,0.16406 1.458984,0.41601 v 2.00977 h -0.240234 q -0.527344,-0.42187 -1.294922,-0.70312 -0.761719,-0.28711 -1.558594,-0.28711 -0.28125,0 -0.5625,0.041 -0.27539,0.0352 -0.533203,0.14063 -0.228515,0.0879 -0.392578,0.26953 -0.164062,0.17578 -0.164062,0.40429 0,0.34571 0.263672,0.53321 0.263671,0.18164 0.996093,0.33398 0.480469,0.0996 0.919922,0.19336 0.445313,0.0937 0.955078,0.25781 1.001953,0.32813 1.476563,0.89649 0.480469,0.5625 0.480469,1.46484 z m 10.02539,-1.61719 q 0,2.08594 -1.195312,3.31641 -1.195313,1.22461 -3.304688,1.22461 -2.103515,0 -3.298828,-1.22461 -1.195312,-1.23047 -1.195312,-3.31641 0,-2.10351 1.195312,-3.32226 1.195313,-1.22461 3.298828,-1.22461 2.097656,0 3.298828,1.22461 1.201172,1.21875 1.201172,3.32226 z m -2.982422,2.20899 q 0.328125,-0.39844 0.486328,-0.9375 0.158204,-0.54492 0.158204,-1.27734 0,-0.78516 -0.181641,-1.33594 -0.181641,-0.55078 -0.474609,-0.89063 -0.298829,-0.35156 -0.691407,-0.50976 -0.386718,-0.15821 -0.808593,-0.15821 -0.427735,0 -0.808594,0.15235 -0.375,0.15234 -0.691406,0.5039 -0.292969,0.32813 -0.480469,0.90821 -0.181641,0.57422 -0.181641,1.33593 0,0.7793 0.175781,1.33008 0.181641,0.54492 0.47461,0.89063 0.292969,0.3457 0.685547,0.50976 0.392578,0.16407 0.826172,0.16407 0.433593,0 0.826171,-0.16407 0.392579,-0.16992 0.685547,-0.52148 z M 93.435547,329 h -2.167969 l -3.703125,-5.98828 V 329 h -2.0625 v -8.72461 h 2.689453 l 3.181641,4.99805 v -4.99805 h 2.0625 z"
         id="text17"
         class="terminal"
         style="font-weight:bold;font-size:12px;font-family:Verdana, Sans-serif;fill:#140000"
         aria-label="JSON" />
    </g>
  </a>
  <a
     id="a10"
     xlink:href="../../sql_types#text">
    <g
       id="g40"
       transform="translate(1.2848335,1.2848335)">
      <path
         id="rect18"
         style="fill:#330000;stroke:#330000"
         d="m 61,355 h 52 c 5.54,0 10,4.46 10,10 v 12 c 0,5.54 -4.46,10 -10,10 H 61 c -5.54,0 -10,-4.46 -10,-10 v -12 c 0,-5.54 4.46,-10 10,-10 z" />
      <path
         id="rect19"
         class="terminal"
         style="fill:#ff4d4d;stroke:#330000"
         d="m 59,353 h 52 c 5.54,0 10,4.46 10,10 v 12 c 0,5.54 -4.46,10 -10,10 H 59 c -5.54,0 -10,-4.46 -10,-10 v -12 c 0,-5.54 4.46,-10 10,-10 z" />
      <path
         d="m 67.097656,370.25781 q 0,1.28906 -1.095703,2.09766 -1.089844,0.80273 -2.964844,0.80273 -1.083984,0 -1.892578,-0.1875 -0.802734,-0.19336 -1.505859,-0.48633 v -2.09179 h 0.246094 q 0.697265,0.55664 1.558593,0.85547 0.867188,0.29882 1.664063,0.29882 0.205078,0 0.539062,-0.0351 0.333985,-0.0352 0.544922,-0.11719 0.257813,-0.10547 0.421875,-0.26367 0.169922,-0.1582 0.169922,-0.46875 0,-0.28711 -0.246094,-0.49219 -0.240234,-0.21094 -0.708984,-0.32226 -0.492188,-0.11719 -1.042969,-0.2168 -0.544922,-0.10547 -1.02539,-0.26367 -1.101563,-0.35742 -1.587891,-0.9668 -0.480469,-0.61523 -0.480469,-1.52344 0,-1.21875 1.089844,-1.98633 1.095703,-0.77343 2.8125,-0.77343 0.861328,0 1.699219,0.16992 0.84375,0.16406 1.458984,0.41601 v 2.00977 h -0.240234 q -0.527344,-0.42187 -1.294922,-0.70312 -0.761719,-0.28711 -1.558594,-0.28711 -0.28125,0 -0.5625,0.041 -0.275391,0.0352 -0.533203,0.14063 -0.228516,0.0879 -0.392578,0.26953 -0.164063,0.17578 -0.164063,0.40429 0,0.34571 0.263672,0.53321 0.263672,0.18164 0.996094,0.33398 0.480469,0.0996 0.919922,0.19336 0.445312,0.0937 0.955078,0.25781 1.001953,0.32813 1.476562,0.89649 0.480469,0.5625 0.480469,1.46484 z m 8.367188,-4.29492 h -2.72461 V 373 h -2.25 v -7.03711 h -2.724609 v -1.6875 h 7.699219 z m 6.246093,0.98438 q 0,-0.32813 -0.134765,-0.5625 -0.134766,-0.23438 -0.462891,-0.36915 -0.228515,-0.0937 -0.533203,-0.11132 -0.304687,-0.0234 -0.708984,-0.0234 h -0.814453 v 2.34961 h 0.691406 q 0.539062,0 0.902344,-0.0527 0.363281,-0.0527 0.609375,-0.24023 0.234375,-0.18164 0.339843,-0.39844 0.111328,-0.22265 0.111328,-0.59179 z M 85.220703,373 H 82.472656 L 80.09375,369.80078 H 79.056641 V 373 h -2.238282 v -8.72461 h 3.773438 q 0.773437,0 1.330078,0.0879 0.556641,0.0879 1.042969,0.38086 0.492187,0.29297 0.779297,0.76172 0.292968,0.46289 0.292968,1.16601 0,0.9668 -0.451172,1.57618 -0.445312,0.60937 -1.277343,1.01367 z m 5.701172,0 H 85.8125 v -1.54688 h 1.429687 v -5.63085 H 85.8125 v -1.54688 h 5.109375 v 1.54688 h -1.429688 v 5.63085 h 1.429688 z m 9.767575,0 h -2.167966 l -3.703125,-5.98828 V 373 h -2.0625 v -8.72461 h 2.689453 l 3.181641,4.99805 v -4.99805 h 2.062497 z m 9.94336,-0.49805 q -0.58593,0.22852 -1.55273,0.45703 -0.9668,0.22266 -1.92774,0.22266 -2.22656,0 -3.48632,-1.20703 -1.25977,-1.21289 -1.25977,-3.3457 0,-2.03321 1.27148,-3.27539 1.27149,-1.24805 3.54493,-1.24805 0.86132,0 1.64062,0.1582 0.7793,0.15235 1.73438,0.61524 v 2.04492 h -0.25196 q -0.16406,-0.12305 -0.48047,-0.34571 -0.3164,-0.22851 -0.60937,-0.38671 -0.33984,-0.1875 -0.79688,-0.32227 -0.45117,-0.13477 -0.96093,-0.13477 -0.59766,0 -1.08399,0.17579 -0.48633,0.17578 -0.87304,0.53906 -0.36914,0.35156 -0.58594,0.89648 -0.21094,0.53907 -0.21094,1.24805 0,1.44727 0.76758,2.21484 0.76758,0.76758 2.26758,0.76758 0.1289,0 0.28125,-0.006 0.1582,-0.006 0.28711,-0.0176 v -1.71093 h -1.74024 v -1.64649 h 4.02539 z"
         id="text19"
         class="terminal"
         style="font-weight:bold;font-size:12px;font-family:Verdana, Sans-serif;fill:#140000"
         aria-label="STRING" />
    </g>
  </a>
  <a
     id="a11"
     xlink:href="../../sql_types#text">
    <g
       id="g41">
      <path
         id="rect20"
         style="fill:#330000;stroke:#330000"
         d="m 61,399 h 34 c 5.54,0 10,4.46 10,10 v 12 c 0,5.54 -4.46,10 -10,10 H 61 c -5.54,0 -10,-4.46 -10,-10 v -12 c 0,-5.54 4.46,-10 10,-10 z" />
      <path
         id="rect21"
         class="terminal"
         style="fill:#ff4d4d;stroke:#330000"
         d="m 59,397 h 34 c 5.54,0 10,4.46 10,10 v 12 c 0,5.54 -4.46,10 -10,10 H 59 c -5.54,0 -10,-4.46 -10,-10 v -12 c 0,-5.54 4.46,-10 10,-10 z" />
      <path
         d="M 66.939453,409.96289 H 64.214844 V 417 h -2.25 v -7.03711 h -2.72461 v -1.6875 h 7.699219 z M 74.603516,417 h -6.310547 v -8.72461 h 6.310547 v 1.6875 H 70.53125 v 1.50586 h 3.779297 v 1.6875 H 70.53125 v 2.15625 h 4.072266 z m 9.796875,0 H 81.798828 L 79.917969,414.12891 78.001953,417 h -2.484375 l 3.09375,-4.39453 -3.029297,-4.33008 h 2.595703 l 1.816407,2.71875 1.86914,-2.71875 h 2.490235 l -3.046875,4.24219 z m 8.080078,-7.03711 h -2.72461 V 417 h -2.25 v -7.03711 H 84.78125 v -1.6875 h 7.699219 z"
         id="text21"
         class="terminal"
         style="font-weight:bold;font-size:12px;font-family:Verdana, Sans-serif;fill:#140000"
         aria-label="TEXT" />
    </g>
  </a>
  <a
     id="a12"
     xlink:href="../../sql_types#uuid">
    <g
       id="g42">
      <path
         id="rect22"
         style="fill:#330000;stroke:#330000"
         d="m 61,443 h 36 c 5.54,0 10,4.46 10,10 v 12 c 0,5.54 -4.46,10 -10,10 H 61 c -5.54,0 -10,-4.46 -10,-10 v -12 c 0,-5.54 4.46,-10 10,-10 z" />
      <path
         id="rect23"
         class="terminal"
         style="fill:#ff4d4d;stroke:#330000"
         d="m 59,441 h 36 c 5.54,0 10,4.46 10,10 v 12 c 0,5.54 -4.46,10 -10,10 H 59 c -5.54,0 -10,-4.46 -10,-10 v -12 c 0,-5.54 4.46,-10 10,-10 z" />
      <path
         d="m 67.753906,457.8418 q 0,1.61718 -0.984375,2.47851 -0.984375,0.86133 -2.90039,0.86133 -1.916016,0 -2.900391,-0.86133 -0.978516,-0.86133 -0.978516,-2.47265 v -5.57227 h 2.261719 v 5.44336 q 0,0.9082 0.380859,1.35352 0.38086,0.44531 1.236329,0.44531 0.84375,0 1.230468,-0.42774 0.392578,-0.42773 0.392578,-1.37109 v -5.44336 h 2.261719 z m 9.744141,0 q 0,1.61718 -0.984375,2.47851 -0.984375,0.86133 -2.900391,0.86133 -1.916015,0 -2.90039,-0.86133 -0.978516,-0.86133 -0.978516,-2.47265 v -5.57227 h 2.261719 v 5.44336 q 0,0.9082 0.380859,1.35352 0.380859,0.44531 1.236328,0.44531 0.84375,0 1.230469,-0.42774 0.392578,-0.42773 0.392578,-1.37109 v -5.44336 h 2.261719 z M 84.318359,461 h -5.109375 v -1.54688 h 1.429688 v -5.63085 h -1.429688 v -1.54688 h 5.109375 v 1.54688 h -1.429687 v 5.63085 h 1.429687 z m 10.078125,-4.35352 q 0,1.21875 -0.55664,2.18555 -0.556641,0.96094 -1.40625,1.47656 -0.638672,0.38672 -1.400391,0.53907 Q 90.271484,461 89.228516,461 h -3.076172 v -8.72461 h 3.164062 q 1.066406,0 1.839844,0.18164 0.773437,0.17578 1.300781,0.50391 0.902344,0.55078 1.417969,1.48828 0.521484,0.93164 0.521484,2.19726 z m -2.326172,-0.0176 q 0,-0.86133 -0.316406,-1.47071 -0.310547,-0.61523 -0.990234,-0.96093 -0.345703,-0.16993 -0.708985,-0.22852 -0.357421,-0.0645 -1.083984,-0.0645 h -0.568359 v 5.46093 h 0.568359 q 0.802734,0 1.177734,-0.0703 0.375,-0.0762 0.732422,-0.26953 0.615235,-0.35156 0.902344,-0.9375 0.287109,-0.5918 0.287109,-1.45898 z"
         id="text23"
         class="terminal"
         style="font-weight:bold;font-size:12px;font-family:Verdana, Sans-serif;fill:#140000"
         aria-label="UUID" />
    </g>
  </a>
  <a
     id="a13"
     xlink:href="../../sql_types#text">
    <g
       id="g43">
      <path
         id="rect24"
         style="fill:#330000;stroke:#330000"
         d="m 61,487 h 66 c 5.54,0 10,4.46 10,10 v 12 c 0,5.54 -4.46,10 -10,10 H 61 c -5.54,0 -10,-4.46 -10,-10 v -12 c 0,-5.54 4.46,-10 10,-10 z" />
      <path
         id="rect25"
         class="terminal"
         style="fill:#ff4d4d;stroke:#330000"
         d="m 59,485 h 66 c 5.54,0 10,4.46 10,10 v 12 c 0,5.54 -4.46,10 -10,10 H 59 c -5.54,0 -10,-4.46 -10,-10 v -12 c 0,-5.54 4.46,-10 10,-10 z" />
      <path
         d="M 68.023437,496.27539 64.841797,505 h -2.519531 l -3.181641,-8.72461 h 2.361328 l 2.109375,6.12891 2.109375,-6.12891 z M 77.339844,505 h -2.326172 l -0.603516,-1.76367 H 71.175781 L 70.572266,505 h -2.267579 l 3.222657,-8.72461 h 2.589843 z m -3.47461,-3.36328 -1.072265,-3.12891 -1.072266,3.12891 z m 9.621094,-2.68945 q 0,-0.32813 -0.134766,-0.5625 -0.134765,-0.23438 -0.46289,-0.36915 -0.228516,-0.0937 -0.533203,-0.11132 -0.304688,-0.0234 -0.708985,-0.0234 h -0.814453 v 2.34961 h 0.691406 q 0.539063,0 0.902344,-0.0527 0.363281,-0.0527 0.609375,-0.24023 0.234375,-0.18164 0.339844,-0.39844 0.111328,-0.22265 0.111328,-0.59179 z M 86.996094,505 h -2.748047 l -2.378906,-3.19922 h -1.03711 V 505 H 78.59375 v -8.72461 h 3.773437 q 0.773438,0 1.330079,0.0879 0.55664,0.0879 1.042968,0.38086 0.492188,0.29297 0.779297,0.76172 0.292969,0.46289 0.292969,1.16601 0,0.9668 -0.451172,1.57618 -0.445312,0.60937 -1.277344,1.01367 z m 4.927734,0.16992 q -0.972656,0 -1.798828,-0.28711 -0.820313,-0.28711 -1.412109,-0.85547 -0.591797,-0.56836 -0.919922,-1.41797 -0.322266,-0.8496 -0.322266,-1.96289 0,-1.03711 0.310547,-1.88086 0.310547,-0.84375 0.902344,-1.44726 0.568359,-0.58008 1.40625,-0.89649 0.84375,-0.3164 1.839843,-0.3164 0.550782,0 0.990235,0.0644 0.445312,0.0586 0.820312,0.1582 0.392578,0.11133 0.708985,0.25196 0.322265,0.13476 0.5625,0.25195 v 2.11524 h -0.257813 q -0.164062,-0.14063 -0.416015,-0.33399 -0.246094,-0.19336 -0.5625,-0.38086 -0.322266,-0.1875 -0.697266,-0.3164 -0.375,-0.12891 -0.802734,-0.12891 -0.47461,0 -0.902344,0.15234 -0.427735,0.14649 -0.791016,0.49219 -0.345703,0.33398 -0.5625,0.88477 -0.210937,0.55078 -0.210937,1.33593 0,0.82032 0.228515,1.3711 0.234375,0.55078 0.585938,0.86718 0.357422,0.32227 0.796875,0.4629 0.439453,0.13476 0.867187,0.13476 0.410157,0 0.808594,-0.12305 0.404297,-0.12304 0.744141,-0.33398 0.287109,-0.16992 0.533203,-0.36328 0.246094,-0.19336 0.404297,-0.33399 h 0.234375 v 2.08594 q -0.328125,0.14649 -0.626953,0.27539 -0.298829,0.12891 -0.626954,0.22266 -0.427734,0.12305 -0.802734,0.1875 -0.375,0.0644 -1.03125,0.0644 z M 104.48633,505 h -2.25 v -3.84375 H 98.914062 V 505 h -2.25 v -8.72461 h 2.25 v 3.19336 h 3.322268 v -3.19336 h 2.25 z m 10.28906,0 h -2.32617 l -0.60352,-1.76367 h -3.23437 L 108.00781,505 h -2.26758 l 3.22266,-8.72461 h 2.58984 z m -3.47461,-3.36328 -1.07226,-3.12891 -1.07227,3.12891 z m 9.6211,-2.68945 q 0,-0.32813 -0.13477,-0.5625 -0.13477,-0.23438 -0.46289,-0.36915 -0.22852,-0.0937 -0.5332,-0.11132 -0.30469,-0.0234 -0.70899,-0.0234 h -0.81445 v 2.34961 h 0.6914 q 0.53907,0 0.90235,-0.0527 0.36328,-0.0527 0.60937,-0.24023 0.23438,-0.18164 0.33985,-0.39844 0.11133,-0.22265 0.11133,-0.59179 z M 124.43164,505 h -2.74805 l -2.3789,-3.19922 h -1.03711 V 505 h -2.23828 v -8.72461 h 3.77343 q 0.77344,0 1.33008,0.0879 0.55664,0.0879 1.04297,0.38086 0.49219,0.29297 0.7793,0.76172 0.29297,0.46289 0.29297,1.16601 0,0.9668 -0.45117,1.57618 -0.44532,0.60937 -1.27735,1.01367 z"
         id="text25"
         class="terminal"
         style="font-weight:bold;font-size:12px;font-family:Verdana, Sans-serif;fill:#140000"
         aria-label="VARCHAR" />
    </g>
  </a>
  <path
     id="rect26"
     style="fill:#330000;stroke:#330000"
     d="m 167,487 h 6 c 5.54,0 10,4.46 10,10 v 12 c 0,5.54 -4.46,10 -10,10 h -6 c -5.54,0 -10,-4.46 -10,-10 v -12 c 0,-5.54 4.46,-10 10,-10 z" />
  <path
     id="rect27"
     class="terminal"
     style="fill:#ff4d4d;stroke:#330000"
     d="m 165,485 h 6 c 5.54,0 10,4.46 10,10 v 12 c 0,5.54 -4.46,10 -10,10 h -6 c -5.54,0 -10,-4.46 -10,-10 v -12 c 0,-5.54 4.46,-10 10,-10 z" />
  <path
     d="m 170.54883,507.41406 h -2.20899 q -1.125,-1.31836 -1.66992,-2.71289 -0.53906,-1.39453 -0.53906,-3.05273 0,-1.65821 0.53906,-3.05274 0.54492,-1.39453 1.66992,-2.71289 h 2.20899 v 0.16992 q -0.47461,0.42774 -0.90821,0.97266 -0.42773,0.53906 -0.79687,1.26563 -0.35156,0.69726 -0.57422,1.54687 -0.2168,0.84961 -0.2168,1.81055 0,1.00195 0.21094,1.8164 0.2168,0.81446 0.58008,1.54102 0.35156,0.69141 0.79102,1.25391 0.44531,0.56835 0.91406,0.98437 z"
     id="text27"
     class="terminal"
     style="font-weight:bold;font-size:12px;font-family:Verdana, Sans-serif;fill:#140000"
     aria-label="(" />
  <a
     xlink:href="../../sql_types#unsigned"
     xlink:title="length"
     id="a29">
    <path
       id="rect28"
       style="fill:#330000;stroke:#330000"
       d="m 203,487 h 60 v 32 h -60 z" />
    <path
       id="rect29"
       class="nonterminal"
       style="fill:#ff9e9e;stroke:#330000"
       d="m 201,485 h 60 v 32 h -60 z" />
    <path
       d="m 213.19727,505 h -1.10157 v -9.11719 h 1.10157 z m 7.6582,-3.1582 h -4.82227 q 0,0.60351 0.18164,1.05468 0.18164,0.44532 0.49805,0.73243 0.30469,0.28125 0.7207,0.42187 0.42188,0.14063 0.92578,0.14063 0.66797,0 1.3418,-0.26368 0.67969,-0.26953 0.9668,-0.52734 h 0.0586 v 1.20117 q -0.55664,0.23438 -1.13672,0.39258 -0.58007,0.1582 -1.21875,0.1582 -1.6289,0 -2.54297,-0.8789 -0.91406,-0.88477 -0.91406,-2.50782 0,-1.60546 0.87305,-2.54882 0.87891,-0.94336 2.30859,-0.94336 1.32422,0 2.03907,0.77343 0.7207,0.77344 0.7207,2.19727 z m -1.07227,-0.84375 q -0.006,-0.86719 -0.43945,-1.3418 -0.42773,-0.47461 -1.30664,-0.47461 -0.88477,0 -1.41211,0.52148 -0.52148,0.52149 -0.5918,1.29493 z M 227.99805,505 h -1.10157 v -3.72656 q 0,-0.45117 -0.0527,-0.84375 -0.0527,-0.39844 -0.19336,-0.6211 -0.14648,-0.24609 -0.42187,-0.36328 -0.2754,-0.12304 -0.71485,-0.12304 -0.45117,0 -0.94336,0.22265 -0.49219,0.22266 -0.94336,0.56836 V 505 h -1.10156 v -6.54492 h 1.10156 v 0.72656 q 0.51563,-0.42773 1.06641,-0.66797 0.55078,-0.24023 1.13086,-0.24023 1.06055,0 1.61719,0.63867 0.55664,0.63867 0.55664,1.83984 z m 7.42968,-0.74414 q 0,1.66406 -0.75586,2.44336 -0.75585,0.7793 -2.32617,0.7793 -0.52148,0 -1.01953,-0.0762 -0.49219,-0.0703 -0.97265,-0.20507 v -1.125 h 0.0586 q 0.26953,0.10546 0.85547,0.25781 0.58594,0.1582 1.17187,0.1582 0.5625,0 0.93164,-0.13476 0.36914,-0.13477 0.57422,-0.375 0.20508,-0.22852 0.29297,-0.55079 0.0879,-0.32226 0.0879,-0.7207 v -0.59766 q -0.49805,0.39844 -0.95508,0.59766 -0.45117,0.19336 -1.15429,0.19336 -1.17188,0 -1.86328,-0.84375 -0.68555,-0.84961 -0.68555,-2.39062 0,-0.84375 0.23437,-1.45313 0.24024,-0.61523 0.65039,-1.06055 0.38086,-0.41601 0.92579,-0.64453 0.54492,-0.23437 1.08398,-0.23437 0.56836,0 0.94922,0.11718 0.38672,0.11133 0.81445,0.34571 l 0.0703,-0.28125 h 1.03125 z m -1.10156,-1.05469 v -3.56836 q -0.43945,-0.19922 -0.82031,-0.28125 -0.375,-0.0879 -0.75,-0.0879 -0.9082,0 -1.42969,0.60938 -0.52148,0.60937 -0.52148,1.76953 0,1.10156 0.38672,1.66992 0.38671,0.56836 1.2832,0.56836 0.48047,0 0.96094,-0.18164 0.48632,-0.1875 0.89062,-0.49805 z m 6.66797,1.74024 q -0.31055,0.082 -0.67969,0.13476 -0.36328,0.0527 -0.65039,0.0527 -1.00195,0 -1.52344,-0.53907 -0.52148,-0.53906 -0.52148,-1.72851 v -3.48047 H 236.875 v -0.92578 h 0.74414 v -1.88086 h 1.10156 v 1.88086 h 2.27344 v 0.92578 h -2.27344 v 2.98242 q 0,0.51563 0.0234,0.80859 0.0234,0.28711 0.16406,0.53907 0.12891,0.23437 0.35157,0.3457 0.22851,0.10547 0.6914,0.10547 0.26953,0 0.5625,-0.0762 0.29297,-0.082 0.42188,-0.13477 h 0.0586 z M 247.79687,505 h -1.10156 v -3.72656 q 0,-0.45117 -0.0527,-0.84375 -0.0527,-0.39844 -0.19336,-0.6211 -0.14649,-0.24609 -0.42188,-0.36328 -0.27539,-0.12304 -0.71484,-0.12304 -0.45117,0 -0.94336,0.22265 -0.49219,0.22266 -0.94336,0.56836 V 505 h -1.10156 v -9.11719 h 1.10156 v 3.29883 q 0.51563,-0.42773 1.06641,-0.66797 0.55078,-0.24023 1.13086,-0.24023 1.06054,0 1.61718,0.63867 0.55664,0.63867 0.55664,1.83984 z"
       id="text29"
       class="nonterminal"
       style="font-size:12px;font-family:Verdana, Sans-serif;fill:#1a0000"
       aria-label="length" />
  </a>
  <path
     id="rect30"
     style="fill:#330000;stroke:#330000"
     d="m 293,487 h 6 c 5.54,0 10,4.46 10,10 v 12 c 0,5.54 -4.46,10 -10,10 h -6 c -5.54,0 -10,-4.46 -10,-10 v -12 c 0,-5.54 4.46,-10 10,-10 z" />
  <path
     id="rect31"
     class="terminal"
     style="fill:#ff4d4d;stroke:#330000"
     d="m 291,485 h 6 c 5.54,0 10,4.46 10,10 v 12 c 0,5.54 -4.46,10 -10,10 h -6 c -5.54,0 -10,-4.46 -10,-10 v -12 c 0,-5.54 4.46,-10 10,-10 z" />
  <path
     d="m 296.39062,501.64844 q 0,1.6582 -0.54492,3.05273 -0.53906,1.39453 -1.66406,2.71289 h -2.20898 v -0.16992 q 0.46875,-0.41602 0.91406,-0.97852 0.44531,-0.5625 0.79101,-1.25976 0.36329,-0.72656 0.57422,-1.54102 0.2168,-0.81445 0.2168,-1.8164 0,-0.96094 -0.22266,-1.81055 -0.21679,-0.84961 -0.56836,-1.54687 -0.36914,-0.72657 -0.80273,-1.26563 -0.42773,-0.54492 -0.90234,-0.97266 v -0.16992 h 2.20898 q 1.125,1.31836 1.66406,2.71289 0.54492,1.39453 0.54492,3.05274 z"
     id="text31"
     class="terminal"
     style="font-weight:bold;font-size:12px;font-family:Verdana, Sans-serif;fill:#140000"
     aria-label=")" />
  <a
     id="a41"
     xlink:href="../../sql_types#text">
    <path
       class="line"
       d="m17 17 h2 m20 0 h10 m58 0 h10 m0 0 h200 m-298 0 h20 m278 0 h20 m-318 0 q10 0 10 10 m298 0 q0 -10 10 -10 m-308 10 v24 m298 0 v-24 m-298 24 q0 10 10 10 m278 0 q10 0 10 -10 m-288 10 h10 m86 0 h10 m0 0 h172 m-288 -10 v20 m298 0 v-20 m-298 20 v24 m298 0 v-24 m-298 24 q0 10 10 10 m278 0 q10 0 10 -10 m-288 10 h10 m90 0 h10 m0 0 h168 m-288 -10 v20 m298 0 v-20 m-298 20 v24 m298 0 v-24 m-298 24 q0 10 10 10 m278 0 q10 0 10 -10 m-288 10 h10 m82 0 h10 m0 0 h176 m-288 -10 v20 m298 0 v-20 m-298 20 v24 m298 0 v-24 m-298 24 q0 10 10 10 m278 0 q10 0 10 -10 m-288 10 h10 m76 0 h10 m0 0 h182 m-288 -10 v20 m298 0 v-20 m-298 20 v24 m298 0 v-24 m-298 24 q0 10 10 10 m278 0 q10 0 10 -10 m-288 10 h10 m44 0 h10 m0 0 h214 m-288 -10 v20 m298 0 v-20 m-298 20 v24 m298 0 v-24 m-298 24 q0 10 10 10 m278 0 q10 0 10 -10 m-288 10 h10 m80 0 h10 m0 0 h178 m-288 -10 v20 m298 0 v-20 m-298 20 v24 m298 0 v-24 m-298 24 q0 10 10 10 m278 0 q10 0 10 -10 m-288 10 h10 m56 0 h10 m0 0 h202 m-288 -10 v20 m298 0 v-20 m-298 20 v24 m298 0 v-24 m-298 24 q0 10 10 10 m278 0 q10 0 10 -10 m-288 10 h10 m72 0 h10 m0 0 h186 m-288 -10 v20 m298 0 v-20 m-298 20 v24 m298 0 v-24 m-298 24 q0 10 10 10 m278 0 q10 0 10 -10 m-288 10 h10 m54 0 h10 m0 0 h204 m-288 -10 v20 m298 0 v-20 m-298 20 v24 m298 0 v-24 m-298 24 q0 10 10 10 m278 0 q10 0 10 -10 m-288 10 h10 m56 0 h10 m0 0 h202 m-288 -10 v20 m298 0 v-20 m-298 20 v24 m298 0 v-24 m-298 24 q0 10 10 10 m278 0 q10 0 10 -10 m-288 10 h10 m86 0 h10 m0 0 h10 m26 0 h10 m0 0 h10 m60 0 h10 m0 0 h10 m26 0 h10 m23 -484 h-3"
       id="path31" />
  </a>
  <path
     id="polygon31"
     style="fill:#330000;stroke:#330000"
     d="m 347,17 8,-4 v 8 z" />
  <path
     id="polygon32"
     style="fill:#330000;stroke:#330000"
     d="m 347,17 -8,-4 v 8 z" />
  <a
     id="a2"
     xlink:href="../../sql_types#boolean">
    <g
       id="g2">
      <path
         id="path1"
         class="terminal"
         style="fill:#ff4d4d;stroke:#330000"
         d="m 59,1 h 38 c 5.54,0 10,4.46 10,10 v 12 c 0,5.54 -4.46,10 -10,10 H 59 C 53.46,33 49,28.54 49,23 V 11 C 49,5.46 53.46,1 59,1 Z" />
      <path
         d="m 67.578125,18.328125 q 0,0.632812 -0.257813,1.130859 -0.251953,0.498047 -0.697265,0.826172 -0.515625,0.386719 -1.136719,0.550781 Q 64.871094,21 63.921875,21 H 60.113281 V 12.275391 H 63.5 q 1.054687,0 1.541016,0.07031 0.492187,0.07031 0.972656,0.310547 0.498047,0.251953 0.738281,0.679688 0.246094,0.421875 0.246094,0.966796 0,0.632813 -0.333985,1.119141 -0.333984,0.480469 -0.943359,0.75 v 0.04687 q 0.855469,0.169922 1.353516,0.703125 0.503906,0.533203 0.503906,1.40625 z m -2.882813,-3.585937 q 0,-0.216797 -0.111328,-0.433594 -0.105468,-0.216797 -0.380859,-0.322266 -0.246094,-0.09375 -0.615234,-0.09961 Q 63.224609,13.875 62.5625,13.875 h -0.210938 v 1.845703 h 0.351563 q 0.533203,0 0.908203,-0.01758 0.375,-0.01758 0.591797,-0.117187 0.304687,-0.134766 0.398437,-0.345704 0.09375,-0.216796 0.09375,-0.498046 z m 0.550782,3.550781 q 0,-0.416016 -0.164063,-0.638672 -0.158203,-0.228516 -0.544922,-0.339844 -0.263672,-0.07617 -0.726562,-0.08203 -0.462891,-0.0059 -0.966797,-0.0059 h -0.492188 v 2.173829 h 0.164063 q 0.949219,0 1.359375,-0.0059 0.410156,-0.0059 0.755859,-0.152344 0.351563,-0.146484 0.480469,-0.386718 0.134766,-0.246094 0.134766,-0.5625 z m 12.492187,-1.652344 q 0,2.085937 -1.195312,3.316406 -1.195313,1.22461 -3.304688,1.22461 -2.103515,0 -3.298828,-1.22461 -1.195312,-1.230469 -1.195312,-3.316406 0,-2.103516 1.195312,-3.322266 1.195313,-1.224609 3.298828,-1.224609 2.097656,0 3.298828,1.224609 1.201172,1.21875 1.201172,3.322266 z m -2.982422,2.208984 q 0.328125,-0.398437 0.486328,-0.9375 0.158204,-0.544922 0.158204,-1.277343 0,-0.785157 -0.181641,-1.335938 -0.181641,-0.550781 -0.474609,-0.890625 -0.298829,-0.351562 -0.691407,-0.509765 -0.386718,-0.158204 -0.808593,-0.158204 -0.427735,0 -0.808594,0.152344 -0.375,0.152344 -0.691406,0.503906 -0.292969,0.328125 -0.480469,0.908204 -0.181641,0.574218 -0.181641,1.335937 0,0.779297 0.175781,1.330078 0.181641,0.544922 0.47461,0.890625 0.292969,0.345703 0.685547,0.509766 0.392578,0.164062 0.826172,0.164062 0.433593,0 0.826171,-0.164062 0.392579,-0.169922 0.685547,-0.521485 z m 13.183594,-2.208984 q 0,2.085937 -1.195312,3.316406 -1.195313,1.22461 -3.304688,1.22461 -2.103516,0 -3.298828,-1.22461 -1.195313,-1.230469 -1.195313,-3.316406 0,-2.103516 1.195313,-3.322266 1.195312,-1.224609 3.298828,-1.224609 2.097656,0 3.298828,1.224609 1.201172,1.21875 1.201172,3.322266 z m -2.982422,2.208984 q 0.328125,-0.398437 0.486328,-0.9375 0.158203,-0.544922 0.158203,-1.277343 0,-0.785157 -0.18164,-1.335938 -0.181641,-0.550781 -0.47461,-0.890625 -0.298828,-0.351562 -0.691406,-0.509765 -0.386719,-0.158204 -0.808594,-0.158204 -0.427734,0 -0.808593,0.152344 -0.375,0.152344 -0.691407,0.503906 -0.292968,0.328125 -0.480468,0.908204 -0.181641,0.574218 -0.181641,1.335937 0,0.779297 0.175781,1.330078 0.181641,0.544922 0.47461,0.890625 0.292968,0.345703 0.685547,0.509766 0.392578,0.164062 0.826171,0.164062 0.433594,0 0.826172,-0.164062 0.392578,-0.169922 0.685547,-0.521485 z M 95.949219,21 H 89.65625 v -8.724609 h 2.25 V 19.3125 h 4.042969 z"
         id="path2"
         class="terminal"
         style="font-weight:bold;font-size:12px;font-family:Verdana, Sans-serif;fill:#140000"
         aria-label="BOOL" />
    </g>
  </a>
</svg>
