<?xml version="1.0" encoding="UTF-8"?>
<svg xmlns="http://www.w3.org/2000/svg" width="909" height="81" viewBox="0 0 909 81">
   <defs>
      <style type="text/css">
    @namespace "http://www.w3.org/2000/svg";
    .line                 {fill: none; stroke: #330000; stroke-width: 1;}
    .bold-line            {stroke: #140000; shape-rendering: crispEdges; stroke-width: 2;}
    .thin-line            {stroke: #1F0000; shape-rendering: crispEdges}
    .filled               {fill: #330000; stroke: none;}
    text.terminal         {font-family: Verdana, Sans-serif;
                            font-size: 12px;
                            fill: #140000;
                            font-weight: bold;
                          }
    text.nonterminal      {font-family: Verdana, Sans-serif;
                            font-size: 12px;
                            fill: #1A0000;
                            font-weight: normal;
                          }
    text.regexp           {font-family: Verdana, Sans-serif;
                            font-size: 12px;
                            fill: #1F0000;
                            font-weight: normal;
                          }
    rect, circle, polygon {fill: #330000; stroke: #330000;}
    rect.terminal         {fill: #FF4D4D; stroke: #330000; stroke-width: 1;}
    rect.nonterminal      {fill: #FF9E9E; stroke: #330000; stroke-width: 1;}
    rect.text             {fill: none; stroke: none;}
    polygon.regexp        {fill: #FFC7C7; stroke: #330000; stroke-width: 1;}
  </style>
      <style class="darkreader darkreader--sync" media="screen"/>
   </defs>
   <polygon points="9 17 1 13 1 21"/>
   <polygon points="17 17 9 13 9 21"/>
   <a xmlns:xlink="http://www.w3.org/1999/xlink"
      xlink:href="#builtin"
      xlink:title="builtin">
      <rect x="51" y="3" width="58" height="32"/>
      <rect x="49" y="1" width="58" height="32" class="nonterminal"/>
      <text class="nonterminal" x="59" y="21">builtin</text>
   </a>
   <a xmlns:xlink="http://www.w3.org/1999/xlink"
      xlink:href="#aggregate"
      xlink:title="aggregate">
      <rect x="51" y="47" width="86" height="32"/>
      <rect x="49" y="45" width="86" height="32" class="nonterminal"/>
      <text class="nonterminal" x="59" y="65">aggregate</text>
   </a>
   <rect x="197" y="35" width="68" height="32" rx="10"/>
   <rect x="195"
         y="33"
         width="68"
         height="32"
         class="terminal"
         rx="10"/>
   <text class="terminal" x="205" y="53">FILTER</text>
   <rect x="285" y="35" width="26" height="32" rx="10"/>
   <rect x="283"
         y="33"
         width="26"
         height="32"
         class="terminal"
         rx="10"/>
   <text class="terminal" x="293" y="53">(</text>
   <rect x="331" y="35" width="70" height="32" rx="10"/>
   <rect x="329"
         y="33"
         width="70"
         height="32"
         class="terminal"
         rx="10"/>
   <text class="terminal" x="339" y="53">WHERE</text>
   <a xmlns:xlink="http://www.w3.org/1999/xlink"
      xlink:href="#expression"
      xlink:title="expression">
      <rect x="421" y="35" width="90" height="32"/>
      <rect x="419" y="33" width="90" height="32" class="nonterminal"/>
      <text class="nonterminal" x="429" y="53">expression</text>
   </a>
   <rect x="531" y="35" width="26" height="32" rx="10"/>
   <rect x="529"
         y="33"
         width="26"
         height="32"
         class="terminal"
         rx="10"/>
   <text class="terminal" x="539" y="53">)</text>
   <rect x="597" y="3" width="58" height="32" rx="10"/>
   <rect x="595"
         y="1"
         width="58"
         height="32"
         class="terminal"
         rx="10"/>
   <text class="terminal" x="605" y="21">OVER</text>
   <a xmlns:xlink="http://www.w3.org/1999/xlink"
      xlink:href="../object"
      xlink:title="name">
      <rect x="695" y="3" width="56" height="32"/>
      <rect x="693" y="1" width="56" height="32" class="nonterminal"/>
      <text class="nonterminal" x="703" y="21">name</text>
   </a>
   <rect x="695" y="47" width="26" height="32" rx="10"/>
   <rect x="693"
         y="45"
         width="26"
         height="32"
         class="terminal"
         rx="10"/>
   <text class="terminal" x="703" y="65">(</text>
   <a xmlns:xlink="http://www.w3.org/1999/xlink"
      xlink:href="#partition"
      xlink:title="partition">
      <rect x="741" y="47" width="74" height="32"/>
      <rect x="739" y="45" width="74" height="32" class="nonterminal"/>
      <text class="nonterminal" x="749" y="65">partition</text>
   </a>
   <rect x="835" y="47" width="26" height="32" rx="10"/>
   <rect x="833"
         y="45"
         width="26"
         height="32"
         class="terminal"
         rx="10"/>
   <text class="terminal" x="843" y="65">)</text>
   <path class="line"
         d="m17 17 h2 m20 0 h10 m58 0 h10 m0 0 h28 m-126 0 h20 m106 0 h20 m-146 0 q10 0 10 10 m126 0 q0 -10 10 -10 m-136 10 v24 m126 0 v-24 m-126 24 q0 10 10 10 m106 0 q10 0 10 -10 m-116 10 h10 m86 0 h10 m40 -44 h10 m0 0 h370 m-400 0 h20 m380 0 h20 m-420 0 q10 0 10 10 m400 0 q0 -10 10 -10 m-410 10 v12 m400 0 v-12 m-400 12 q0 10 10 10 m380 0 q10 0 10 -10 m-390 10 h10 m68 0 h10 m0 0 h10 m26 0 h10 m0 0 h10 m70 0 h10 m0 0 h10 m90 0 h10 m0 0 h10 m26 0 h10 m20 -32 h10 m58 0 h10 m20 0 h10 m56 0 h10 m0 0 h110 m-206 0 h20 m186 0 h20 m-226 0 q10 0 10 10 m206 0 q0 -10 10 -10 m-216 10 v24 m206 0 v-24 m-206 24 q0 10 10 10 m186 0 q10 0 10 -10 m-196 10 h10 m26 0 h10 m0 0 h10 m74 0 h10 m0 0 h10 m26 0 h10 m23 -44 h-3"/>
   <polygon points="899 17 907 13 907 21"/>
   <polygon points="899 17 891 13 891 21"/>
</svg>
