<?xml version="1.0" encoding="UTF-8"?>
<svg xmlns="http://www.w3.org/2000/svg" width="741" height="169" viewBox="0 0 741 169">
   <defs>
      <style type="text/css">
    @namespace "http://www.w3.org/2000/svg";
    .line                 {fill: none; stroke: #330000; stroke-width: 1;}
    .bold-line            {stroke: #140000; shape-rendering: crispEdges; stroke-width: 2;}
    .thin-line            {stroke: #1F0000; shape-rendering: crispEdges}
    .filled               {fill: #330000; stroke: none;}
    text.terminal         {font-family: Verdana, Sans-serif;
                            font-size: 12px;
                            fill: #140000;
                            font-weight: bold;
                          }
    text.nonterminal      {font-family: Verdana, Sans-serif;
                            font-size: 12px;
                            fill: #1A0000;
                            font-weight: normal;
                          }
    text.regexp           {font-family: Verdana, Sans-serif;
                            font-size: 12px;
                            fill: #1F0000;
                            font-weight: normal;
                          }
    rect, circle, polygon {fill: #330000; stroke: #330000;}
    rect.terminal         {fill: #FF4D4D; stroke: #330000; stroke-width: 1;}
    rect.nonterminal      {fill: #FF9E9E; stroke: #330000; stroke-width: 1;}
    rect.text             {fill: none; stroke: none;}
    polygon.regexp        {fill: #FFC7C7; stroke: #330000; stroke-width: 1;}
  </style>
   </defs>
   <polygon points="9 105 1 101 1 109"/>
   <polygon points="17 105 9 101 9 109"/>
   <rect x="31" y="91" width="58" height="32" rx="10"/>
   <rect x="29"
         y="89"
         width="58"
         height="32"
         class="terminal"
         rx="10"/>
   <text class="terminal" x="39" y="109">WITH</text>
   <a xmlns:xlink="http://www.w3.org/1999/xlink"
      xlink:href="../object"
      xlink:title="cte">
      <rect x="129" y="91" width="38" height="32"/>
      <rect x="127" y="89" width="38" height="32" class="nonterminal"/>
      <text class="nonterminal" x="137" y="109">cte</text>
   </a>
   <rect x="207" y="91" width="26" height="32" rx="10"/>
   <rect x="205"
         y="89"
         width="26"
         height="32"
         class="terminal"
         rx="10"/>
   <text class="terminal" x="215" y="109">(</text>
   <a xmlns:xlink="http://www.w3.org/1999/xlink"
      xlink:href="../object"
      xlink:title="column">
      <rect x="273" y="91" width="64" height="32"/>
      <rect x="271" y="89" width="64" height="32" class="nonterminal"/>
      <text class="nonterminal" x="281" y="109">column</text>
   </a>
   <rect x="273" y="47" width="24" height="32" rx="10"/>
   <rect x="271"
         y="45"
         width="24"
         height="32"
         class="terminal"
         rx="10"/>
   <text class="terminal" x="281" y="65">,</text>
   <rect x="377" y="91" width="26" height="32" rx="10"/>
   <rect x="375"
         y="89"
         width="26"
         height="32"
         class="terminal"
         rx="10"/>
   <text class="terminal" x="385" y="109">)</text>
   <rect x="443" y="91" width="38" height="32" rx="10"/>
   <rect x="441"
         y="89"
         width="38"
         height="32"
         class="terminal"
         rx="10"/>
   <text class="terminal" x="451" y="109">AS</text>
   <rect x="501" y="91" width="26" height="32" rx="10"/>
   <rect x="499"
         y="89"
         width="26"
         height="32"
         class="terminal"
         rx="10"/>
   <text class="terminal" x="509" y="109">(</text>
   <a xmlns:xlink="http://www.w3.org/1999/xlink"
      xlink:href="../select"
      xlink:title="select">
      <rect x="567" y="91" width="58" height="32"/>
      <rect x="565" y="89" width="58" height="32" class="nonterminal"/>
      <text class="nonterminal" x="575" y="109">select</text>
   </a>
   <a xmlns:xlink="http://www.w3.org/1999/xlink"
      xlink:href="../values"
      xlink:title="values">
      <rect x="567" y="135" width="60" height="32"/>
      <rect x="565" y="133" width="60" height="32" class="nonterminal"/>
      <text class="nonterminal" x="575" y="153">values</text>
   </a>
   <rect x="667" y="91" width="26" height="32" rx="10"/>
   <rect x="665"
         y="89"
         width="26"
         height="32"
         class="terminal"
         rx="10"/>
   <text class="terminal" x="675" y="109">)</text>
   <rect x="129" y="3" width="24" height="32" rx="10"/>
   <rect x="127"
         y="1"
         width="24"
         height="32"
         class="terminal"
         rx="10"/>
   <text class="terminal" x="137" y="21">,</text>
   <path class="line"
         d="m17 105 h2 m0 0 h10 m58 0 h10 m20 0 h10 m38 0 h10 m20 0 h10 m26 0 h10 m20 0 h10 m64 0 h10 m-104 0 l20 0 m-1 0 q-9 0 -9 -10 l0 -24 q0 -10 10 -10 m84 44 l20 0 m-20 0 q10 0 10 -10 l0 -24 q0 -10 -10 -10 m-84 0 h10 m24 0 h10 m0 0 h40 m20 44 h10 m26 0 h10 m-236 0 h20 m216 0 h20 m-256 0 q10 0 10 10 m236 0 q0 -10 10 -10 m-246 10 v14 m236 0 v-14 m-236 14 q0 10 10 10 m216 0 q10 0 10 -10 m-226 10 h10 m0 0 h206 m20 -34 h10 m38 0 h10 m0 0 h10 m26 0 h10 m20 0 h10 m58 0 h10 m0 0 h2 m-100 0 h20 m80 0 h20 m-120 0 q10 0 10 10 m100 0 q0 -10 10 -10 m-110 10 v24 m100 0 v-24 m-100 24 q0 10 10 10 m80 0 q10 0 10 -10 m-90 10 h10 m60 0 h10 m20 -44 h10 m26 0 h10 m-604 0 l20 0 m-1 0 q-9 0 -9 -10 l0 -68 q0 -10 10 -10 m584 88 l20 0 m-20 0 q10 0 10 -10 l0 -68 q0 -10 -10 -10 m-584 0 h10 m24 0 h10 m0 0 h540 m23 88 h-3"/>
   <polygon points="731 105 739 101 739 109"/>
   <polygon points="731 105 723 101 723 109"/>
</svg>
