<?xml version="1.0" encoding="UTF-8" standalone="no"?>
<svg
   width="245"
   height="81"
   version="1.1"
   id="svg42"
   sodipodi:docname="row.svg"
   inkscape:version="1.2.2 (b0a8486541, 2022-12-01)"
   xmlns:inkscape="http://www.inkscape.org/namespaces/inkscape"
   xmlns:sodipodi="http://sodipodi.sourceforge.net/DTD/sodipodi-0.dtd"
   xmlns:xlink="http://www.w3.org/1999/xlink"
   xmlns="http://www.w3.org/2000/svg"
   xmlns:svg="http://www.w3.org/2000/svg">
  <sodipodi:namedview
     id="namedview44"
     pagecolor="#ffffff"
     bordercolor="#666666"
     borderopacity="1.0"
     inkscape:showpageshadow="2"
     inkscape:pageopacity="0.0"
     inkscape:pagecheckerboard="0"
     inkscape:deskcolor="#d1d1d1"
     showgrid="false"
     inkscape:zoom="5.2938776"
     inkscape:cx="122.6889"
     inkscape:cy="40.424056"
     inkscape:window-width="1920"
     inkscape:window-height="1011"
     inkscape:window-x="0"
     inkscape:window-y="32"
     inkscape:window-maximized="1"
     inkscape:current-layer="svg42" />
  <defs
     id="defs4">
    <style
       type="text/css"
       id="style2">
    @namespace &quot;http://www.w3.org/2000/svg&quot;;
    .line                 {fill: none; stroke: #320000; stroke-width: 1;}
    .bold-line            {stroke: #FFE0E0; shape-rendering: crispEdges; stroke-width: 2;}
    .thin-line            {stroke: #1F0000; shape-rendering: crispEdges}
    .filled               {fill: #320000; stroke: none;}
    text.terminal         {font-family: HelveticaNeueCyr, Sans-serif;
                            font-size: 14px;
                            fill: #FFE0E0;
                            font-weight: bold;
                          }
    text.nonterminal      {font-family: HelveticaNeueCyr, Sans-serif;
                            font-size: 14px;
                            fill: #FFE0E0;
                            font-weight: normal;
                          }
    text.regexp           {font-family: HelveticaNeueCyr, Sans-serif;
                            font-size: 14px;
                            fill: #1F0000;
                            font-weight: normal;
                          }
    rect, circle, polygon {fill: #320000; stroke: #320000;}
    rect.terminal         {fill: #FF0000; stroke: #320000; stroke-width: 1;}
    rect.nonterminal      {fill: #FF3F3F; stroke: #320000; stroke-width: 1;}
    rect.text             {fill: none; stroke: none;}
    polygon.regexp        {fill: #FF5E5E; stroke: #320000; stroke-width: 1;}
  </style>
  </defs>
  <path
     id="polygon6"
     style="fill:#320000;stroke:#320000"
     d="M 9,61 1,57 v 8 z" />
  <path
     id="polygon8"
     style="fill:#320000;stroke:#320000"
     d="M 17,61 9,57 v 8 z" />
  <path
     id="rect10"
     style="fill:#320000;stroke:#320000"
     d="m 41,47 h 6 c 5.54,0 10,4.46 10,10 v 12 c 0,5.54 -4.46,10 -10,10 H 41 C 35.46,79 31,74.54 31,69 V 57 c 0,-5.54 4.46,-10 10,-10 z" />
  <path
     id="rect12"
     class="terminal"
     style="fill:#ff0000;stroke:#320000"
     d="m 39,45 h 6 c 5.54,0 10,4.46 10,10 v 12 c 0,5.54 -4.46,10 -10,10 H 39 C 33.46,77 29,72.54 29,67 V 55 c 0,-5.54 4.46,-10 10,-10 z" />
  <g
     aria-label="("
     id="text14"
     class="terminal"
     style="font-weight:bold;font-size:14px;font-family:HelveticaNeueCyr, Sans-serif;fill:#ffe0e0">
    <path
       d="m 43.228,54.878 q -0.812,1.624 -1.19,3.108 -0.364,1.484 -0.364,3.262 0,3.08 1.582,6.244 h -1.68 Q 40.708,66.176 40.218,64.538 39.742,62.9 39.742,61.29 q 0,-1.68 0.462,-3.388 0.476,-1.722 1.372,-3.024 z"
       id="path298" />
  </g>
  <a
     xlink:href="#value"
     xlink:title="value"
     id="a22">
    <path
       id="rect16"
       style="fill:#320000;stroke:#320000"
       d="m 97,47 h 54 V 79 H 97 Z" />
    <path
       id="rect18"
       class="nonterminal"
       style="fill:#ff3f3f;stroke:#320000"
       d="m 95,45 h 54 V 77 H 95 Z" />
    <g
       aria-label="value"
       id="text20"
       class="nonterminal"
       style="font-size:14px;font-family:HelveticaNeueCyr, Sans-serif;fill:#ffe0e0">
      <path
         d="m 105.196,57.776 h 1.33 l 2.044,6.062 1.988,-6.062 h 1.246 L 109.158,65 h -1.274 z"
         id="path287" />
      <path
         d="m 119.294,64.048 v 0.924 q -0.364,0.14 -0.812,0.14 -1.022,0 -1.05,-1.064 -1.022,1.148 -2.618,1.148 -1.064,0 -1.694,-0.546 -0.616,-0.546 -0.616,-1.498 0,-1.932 2.562,-2.254 1.512,-0.182 1.75,-0.266 0.504,-0.168 0.546,-0.7 0.014,-0.084 0.014,-0.182 0,-1.19 -1.638,-1.19 -0.84,0 -1.274,0.35 -0.434,0.336 -0.518,1.12 h -1.162 q 0.028,-1.162 0.826,-1.806 0.798,-0.644 2.198,-0.644 1.526,0 2.268,0.7 0.238,0.224 0.35,0.588 0.112,0.364 0.126,0.602 0.014,0.224 0.014,0.686 0,0.546 -0.028,1.624 -0.028,1.064 -0.028,1.596 0,0.392 0.098,0.56 0.112,0.154 0.392,0.154 0.112,0 0.294,-0.042 z m -1.918,-2.8 q -0.126,0.098 -0.266,0.168 -0.14,0.07 -0.364,0.112 -0.21,0.042 -0.294,0.07 -0.07,0.014 -0.364,0.056 -0.294,0.028 -0.308,0.028 -0.434,0.056 -0.574,0.084 -0.126,0.014 -0.504,0.112 -0.364,0.098 -0.518,0.224 -0.154,0.126 -0.308,0.378 -0.14,0.238 -0.14,0.574 0,0.56 0.378,0.882 0.392,0.322 1.064,0.322 0.854,0 1.526,-0.504 0.672,-0.504 0.672,-1.19 z"
         id="path289" />
      <path
         d="M 121.67401,55.032 V 65 h -1.204 v -9.968 z"
         id="path291" />
      <path
         d="M 129.51401,57.776 V 65 h -1.106 v -1.134 q -0.924,1.33 -2.492,1.33 -1.148,0 -1.778,-0.63 -0.63,-0.63 -0.63,-1.82 v -4.97 h 1.19 v 4.648 q 0,0.854 0.322,1.302 0.336,0.434 1.19,0.434 2.114,0 2.114,-2.604 v -3.78 z"
         id="path293" />
      <path
         d="m 137.48001,62.718 q -0.546,2.52 -3.15,2.52 -1.596,0 -2.506,-0.994 -0.896,-0.994 -0.896,-2.758 0,-1.75 0.924,-2.828 0.938,-1.092 2.436,-1.092 1.666,0 2.464,1.134 0.812,1.12 0.812,2.842 v 0.168 h -5.432 l -0.014,0.084 q 0,1.148 0.602,1.806 0.602,0.658 1.652,0.658 0.784,0 1.232,-0.364 0.462,-0.364 0.714,-1.176 z m -1.148,-1.974 q -0.084,-1.036 -0.63,-1.61 -0.546,-0.588 -1.442,-0.588 -0.868,0 -1.442,0.588 -0.574,0.588 -0.686,1.61 z"
         id="path295" />
    </g>
  </a>
  <path
     id="rect24"
     style="fill:#320000;stroke:#320000"
     d="m 107,3 h 4 c 5.54,0 10,4.46 10,10 v 12 c 0,5.54 -4.46,10 -10,10 h -4 C 101.46,35 97,30.54 97,25 V 13 C 97,7.46 101.46,3 107,3 Z" />
  <path
     id="rect26"
     class="terminal"
     style="fill:#ff0000;stroke:#320000"
     d="m 105,1 h 4 c 5.54,0 10,4.46 10,10 v 12 c 0,5.54 -4.46,10 -10,10 h -4 C 99.46,33 95,28.54 95,23 V 11 C 95,5.46 99.46,1 105,1 Z" />
  <g
     aria-label=","
     id="text28"
     class="terminal"
     style="font-weight:bold;font-size:14px;font-family:HelveticaNeueCyr, Sans-serif;fill:#ffe0e0">
    <path
       d="m 108.052,18.816 v 1.778 q 0,1.218 -0.546,1.876 -0.532,0.672 -1.666,0.854 v -0.98 q 0.938,-0.28 0.994,-1.344 h -0.994 v -2.184 z"
       id="path280" />
  </g>
  <path
     id="rect30"
     style="fill:#320000;stroke:#320000"
     d="m 201,47 h 6 c 5.54,0 10,4.46 10,10 v 12 c 0,5.54 -4.46,10 -10,10 h -6 c -5.54,0 -10,-4.46 -10,-10 V 57 c 0,-5.54 4.46,-10 10,-10 z" />
  <path
     id="rect32"
     class="terminal"
     style="fill:#ff0000;stroke:#320000"
     d="m 199,45 h 6 c 5.54,0 10,4.46 10,10 v 12 c 0,5.54 -4.46,10 -10,10 h -6 c -5.54,0 -10,-4.46 -10,-10 V 55 c 0,-5.54 4.46,-10 10,-10 z" />
  <g
     aria-label=")"
     id="text34"
     class="terminal"
     style="font-weight:bold;font-size:14px;font-family:HelveticaNeueCyr, Sans-serif;fill:#ffe0e0">
    <path
       d="m 198.944,54.878 h 1.652 q 1.862,2.856 1.862,6.23 0,1.582 -0.49,3.416 -0.49,1.834 -1.344,2.968 h -1.666 q 0.84,-1.708 1.19,-3.15 0.364,-1.456 0.364,-3.262 0,-3.388 -1.568,-6.202 z"
       id="path275" />
  </g>
  <path
     class="line"
     d="m17 61 h2 m0 0 h10 m26 0 h10 m20 0 h10 m54 0 h10 m-94 0 l20 0 m-1 0 q-9 0 -9 -10 l0 -24 q0 -10 10 -10 m74 44 l20 0 m-20 0 q10 0 10 -10 l0 -24 q0 -10 -10 -10 m-74 0 h10 m24 0 h10 m0 0 h30 m20 44 h10 m26 0 h10 m3 0 h-3"
     id="path36" />
  <path
     id="polygon38"
     style="fill:#320000;stroke:#320000"
     d="m 235,61 8,-4 v 8 z" />
  <path
     id="polygon40"
     style="fill:#320000;stroke:#320000"
     d="m 235,61 -8,-4 v 8 z" />
</svg>
