<?xml version="1.0" encoding="UTF-8" standalone="no"?>
<svg
   width="185"
   height="433"
   version="1.1"
   id="svg2406"
   sodipodi:docname="value.svg"
   inkscape:version="1.2.2 (b0a8486541, 2022-12-01)"
   xmlns:inkscape="http://www.inkscape.org/namespaces/inkscape"
   xmlns:sodipodi="http://sodipodi.sourceforge.net/DTD/sodipodi-0.dtd"
   xmlns="http://www.w3.org/2000/svg"
   xmlns:svg="http://www.w3.org/2000/svg">
  <sodipodi:namedview
     id="namedview2408"
     pagecolor="#ffffff"
     bordercolor="#666666"
     borderopacity="1.0"
     inkscape:showpageshadow="2"
     inkscape:pageopacity="0.0"
     inkscape:pagecheckerboard="0"
     inkscape:deskcolor="#d1d1d1"
     showgrid="false"
     inkscape:zoom="1.9376443"
     inkscape:cx="93.154352"
     inkscape:cy="257.52921"
     inkscape:window-width="1920"
     inkscape:window-height="1011"
     inkscape:window-x="0"
     inkscape:window-y="32"
     inkscape:window-maximized="1"
     inkscape:current-layer="svg2406" />
  <defs
     id="defs2322">
    <style
       type="text/css"
       id="style2320">
    @namespace &quot;http://www.w3.org/2000/svg&quot;;
    .line                 {fill: none; stroke: #320000; stroke-width: 1;}
    .bold-line            {stroke: #FFE0E0; shape-rendering: crispEdges; stroke-width: 2;}
    .thin-line            {stroke: #1F0000; shape-rendering: crispEdges}
    .filled               {fill: #320000; stroke: none;}
    text.terminal         {font-family: HelveticaNeueCyr, Sans-serif;
                            font-size: 14px;
                            fill: #FFE0E0;
                            font-weight: bold;
                          }
    text.nonterminal      {font-family: HelveticaNeueCyr, Sans-serif;
                            font-size: 14px;
                            fill: #FFE0E0;
                            font-weight: normal;
                          }
    text.regexp           {font-family: HelveticaNeueCyr, Sans-serif;
                            font-size: 14px;
                            fill: #1F0000;
                            font-weight: normal;
                          }
    rect, circle, polygon {fill: #320000; stroke: #320000;}
    rect.terminal         {fill: #FF0000; stroke: #320000; stroke-width: 1;}
    rect.nonterminal      {fill: #FF3F3F; stroke: #320000; stroke-width: 1;}
    rect.text             {fill: none; stroke: none;}
    polygon.regexp        {fill: #FF5E5E; stroke: #320000; stroke-width: 1;}
  </style>
  </defs>
  <path
     id="polygon2324"
     style="fill:#320000;stroke:#320000"
     d="M 9,17 1,13 v 8 z" />
  <path
     id="polygon2326"
     style="fill:#320000;stroke:#320000"
     d="M 17,17 9,13 v 8 z" />
  <path
     id="rect2328"
     style="fill:#320000;stroke:#320000"
     d="m 61,3 h 36 c 5.54,0 10,4.46 10,10 v 12 c 0,5.54 -4.46,10 -10,10 H 61 C 55.46,35 51,30.54 51,25 V 13 C 51,7.46 55.46,3 61,3 Z" />
  <path
     id="rect2330"
     class="terminal"
     style="fill:#ff0000;stroke:#320000"
     d="m 59,1 h 36 c 5.54,0 10,4.46 10,10 v 12 c 0,5.54 -4.46,10 -10,10 H 59 C 53.46,33 49,28.54 49,23 V 11 C 49,5.46 53.46,1 59,1 Z" />
  <path
     d="m 67.372,11.032 v 1.862 H 64.376 V 21 h -2.198 v -8.106 h -2.996 v -1.862 z"
     id="path2918"
     style="font-weight:bold;font-size:14px;font-family:HelveticaNeueCyr, Sans-serif;fill:#ffe0e0" />
  <path
     d="m 68.604001,11.032 h 4.956 q 1.484,0 2.422,0.7 0.938,0.7 0.938,2.128 0,0.868 -0.42,1.526 -0.42,0.644 -1.162,0.924 1.288,0.266 1.47,2.324 0,0.07 0.028,0.434 0.028,0.364 0.056,0.588 0.028,0.21 0.07,0.518 0.042,0.308 0.126,0.518 0.084,0.21 0.196,0.308 h -2.268 q -0.112,-0.224 -0.168,-0.56 -0.056,-0.35 -0.098,-0.882 -0.042,-0.546 -0.042,-0.602 -0.112,-1.05 -0.532,-1.456 -0.406,-0.406 -1.456,-0.406 h -1.946 V 21 h -2.17 z m 2.17,1.722 v 2.758 h 2.072 q 0.91,0 1.414,-0.28 0.518,-0.294 0.518,-1.134 0,-0.784 -0.504,-1.064 -0.49,-0.28 -1.33,-0.28 z"
     id="path2920"
     style="font-weight:bold;font-size:14px;font-family:HelveticaNeueCyr, Sans-serif;fill:#ffe0e0" />
  <path
     d="m 87.112003,11.032 v 5.992 q 0,2.142 -1.036,3.164 -1.022,1.008 -3.206,1.008 -2.212,0 -3.262,-1.022 -1.036,-1.036 -1.036,-3.178 v -5.964 h 2.184 v 5.964 q 0,1.218 0.462,1.806 0.462,0.588 1.68,0.588 1.176,0 1.596,-0.588 0.434,-0.588 0.434,-1.806 v -5.964 z"
     id="path2922"
     style="font-weight:bold;font-size:14px;font-family:HelveticaNeueCyr, Sans-serif;fill:#ffe0e0" />
  <path
     d="m 96.477992,11.032 v 1.792 h -5.306 v 2.17 h 4.872 v 1.722 h -4.872 v 2.45 h 5.404 V 21 h -7.574 v -9.968 z"
     id="path2924"
     style="font-weight:bold;font-size:14px;font-family:HelveticaNeueCyr, Sans-serif;fill:#ffe0e0" />
  <path
     id="rect2334"
     style="fill:#320000;stroke:#320000"
     d="m 61,47 h 42 c 5.54,0 10,4.46 10,10 v 12 c 0,5.54 -4.46,10 -10,10 H 61 C 55.46,79 51,74.54 51,69 V 57 c 0,-5.54 4.46,-10 10,-10 z" />
  <path
     id="rect2336"
     class="terminal"
     style="fill:#ff0000;stroke:#320000"
     d="m 59,45 h 42 c 5.54,0 10,4.46 10,10 v 12 c 0,5.54 -4.46,10 -10,10 H 59 C 53.46,77 49,72.54 49,67 V 55 c 0,-5.54 4.46,-10 10,-10 z" />
  <path
     d="m 66.994,55.032 v 1.834 H 62.15 v 2.31 h 4.214 v 1.736 H 62.15 V 65 h -2.184 v -9.968 z"
     id="path2905"
     style="font-weight:bold;font-size:14px;font-family:HelveticaNeueCyr, Sans-serif;fill:#ffe0e0" />
  <path
     d="m 72.454001,55.018 3.794,9.982 h -2.296 l -0.784,-2.226 h -3.71 l -0.812,2.226 h -2.24 l 3.794,-9.982 z m 0.182,6.16 -1.316,-3.71 -1.33,3.71 z"
     id="path2907"
     style="font-weight:bold;font-size:14px;font-family:HelveticaNeueCyr, Sans-serif;fill:#ffe0e0" />
  <path
     d="M 84.143994,63.124 V 65 h -7.056 v -9.968 h 2.184 v 8.092 z"
     id="path2909"
     style="font-weight:bold;font-size:14px;font-family:HelveticaNeueCyr, Sans-serif;fill:#ffe0e0" />
  <path
     d="m 92.768,58 h -2.072 q -0.126,-1.484 -1.89,-1.484 -0.756,0 -1.19,0.308 -0.42,0.294 -0.42,0.826 0,0.182 0.056,0.322 0.056,0.14 0.21,0.266 0.154,0.112 0.308,0.196 0.154,0.07 0.448,0.168 0.308,0.084 0.546,0.154 0.252,0.07 0.7,0.182 0.448,0.112 0.784,0.21 1.47,0.42 2.184,1.05 0.728,0.63 0.728,1.806 0,0.854 -0.35,1.498 -0.35,0.63 -0.952,1.008 -0.588,0.364 -1.302,0.532 -0.7,0.182 -1.498,0.182 -2.03,0 -3.178,-0.924 -1.134,-0.938 -1.148,-2.632 h 2.17 q 0.056,1.876 2.254,1.876 0.854,0 1.344,-0.35 0.504,-0.364 0.504,-0.98 0,-0.518 -0.462,-0.756 Q 90.094,61.22 88.638,60.8 88.4,60.744 88.274,60.702 q -0.504,-0.14 -0.7,-0.196 -0.196,-0.07 -0.63,-0.224 -0.42,-0.154 -0.616,-0.28 -0.196,-0.126 -0.49,-0.35 -0.28,-0.224 -0.406,-0.462 -0.126,-0.252 -0.238,-0.602 -0.098,-0.364 -0.098,-0.784 0,-1.358 1.05,-2.17 1.05,-0.812 2.786,-0.812 1.68,0 2.744,0.798 1.064,0.784 1.092,2.38 z"
     id="path2911"
     style="font-weight:bold;font-size:14px;font-family:HelveticaNeueCyr, Sans-serif;fill:#ffe0e0" />
  <path
     d="m 101.952,55.032 v 1.792 h -5.305998 v 2.17 H 101.518 v 1.722 h -4.871998 v 2.45 H 102.05 V 65 h -7.573998 v -9.968 z"
     id="path2913"
     style="font-weight:bold;font-size:14px;font-family:HelveticaNeueCyr, Sans-serif;fill:#ffe0e0" />
  <path
     id="rect2340"
     style="fill:#320000;stroke:#320000"
     d="m 61,91 h 36 c 5.54,0 10,4.46 10,10 v 12 c 0,5.54 -4.46,10 -10,10 H 61 c -5.54,0 -10,-4.46 -10,-10 v -12 c 0,-5.54 4.46,-10 10,-10 z" />
  <path
     id="rect2342"
     class="terminal"
     style="fill:#ff0000;stroke:#320000"
     d="m 59,89 h 36 c 5.54,0 10,4.46 10,10 v 12 c 0,5.54 -4.46,10 -10,10 H 59 c -5.54,0 -10,-4.46 -10,-10 V 99 c 0,-5.54 4.46,-10 10,-10 z" />
  <path
     d="m 59.966,109 v -9.968 h 2.226 l 4.102,6.678 v -6.678 h 2.1 V 109 H 66.21 l -4.13,-6.692 V 109 Z"
     id="path2894"
     style="font-weight:bold;font-size:14px;font-family:HelveticaNeueCyr, Sans-serif;fill:#ffe0e0" />
  <path
     d="m 78.823989,99.032 v 5.992 q 0,2.142 -1.036,3.164 -1.022,1.008 -3.206,1.008 -2.212,0 -3.262,-1.022 -1.036,-1.036 -1.036,-3.178 v -5.964 h 2.184 v 5.964 q 0,1.218 0.462,1.806 0.462,0.588 1.68,0.588 1.176,0 1.596,-0.588 0.434,-0.588 0.434,-1.806 v -5.964 z"
     id="path2896"
     style="font-weight:bold;font-size:14px;font-family:HelveticaNeueCyr, Sans-serif;fill:#ffe0e0" />
  <path
     d="M 87.769978,107.124 V 109 h -7.056 v -9.968 h 2.184 v 8.092 z"
     id="path2898"
     style="font-weight:bold;font-size:14px;font-family:HelveticaNeueCyr, Sans-serif;fill:#ffe0e0" />
  <path
     d="M 96.071984,107.124 V 109 h -7.056 v -9.968 h 2.184 v 8.092 z"
     id="path2900"
     style="font-weight:bold;font-size:14px;font-family:HelveticaNeueCyr, Sans-serif;fill:#ffe0e0" />
  <path
     id="rect2346"
     style="fill:#320000;stroke:#320000"
     d="m 61,135 h 6 c 5.54,0 10,4.46 10,10 v 12 c 0,5.54 -4.46,10 -10,10 h -6 c -5.54,0 -10,-4.46 -10,-10 v -12 c 0,-5.54 4.46,-10 10,-10 z" />
  <path
     id="rect2348"
     class="terminal"
     style="fill:#ff0000;stroke:#320000"
     d="m 59,133 h 6 c 5.54,0 10,4.46 10,10 v 12 c 0,5.54 -4.46,10 -10,10 h -6 c -5.54,0 -10,-4.46 -10,-10 v -12 c 0,-5.54 4.46,-10 10,-10 z" />
  <path
     d="m 59.434,146.252 q 0.098,-1.61 0.994,-2.52 0.896,-0.91 2.534,-0.91 1.498,0 2.408,0.798 0.91,0.784 0.91,2.072 0,0.812 -0.42,1.4 -0.406,0.588 -1.162,1.106 -0.616,0.42 -0.798,0.756 -0.182,0.322 -0.182,1.05 h -1.862 q 0,-0.98 0.154,-1.498 0.168,-0.532 0.812,-1.078 0.084,-0.07 0.35,-0.28 0.266,-0.21 0.378,-0.322 0.112,-0.112 0.28,-0.308 0.168,-0.196 0.238,-0.406 0.07,-0.21 0.07,-0.462 0,-0.504 -0.336,-0.812 -0.322,-0.308 -0.868,-0.308 -1.4,0 -1.456,1.722 z m 4.424,4.606 V 153 h -2.17 v -2.142 z"
     id="path2889"
     style="font-weight:bold;font-size:14px;font-family:HelveticaNeueCyr, Sans-serif;fill:#ffe0e0" />
  <path
     id="rect2352"
     style="fill:#320000;stroke:#320000"
     d="m 51,179 h 74 v 32 H 51 Z" />
  <path
     id="rect2354"
     class="nonterminal"
     style="fill:#ff3f3f;stroke:#320000"
     d="m 49,177 h 74 v 32 H 49 Z" />
  <path
     d="M 59.478,187.032 V 197 h -1.316 v -9.968 z"
     id="path2874"
     style="font-size:14px;font-family:HelveticaNeueCyr, Sans-serif;fill:#ffe0e0" />
  <path
     d="m 61.676011,187.032 h 1.442 l 5.264,8.092 v -8.092 h 1.274 V 197 h -1.484 l -5.236,-7.994 V 197 h -1.26 z"
     id="path2876"
     style="font-size:14px;font-family:HelveticaNeueCyr, Sans-serif;fill:#ffe0e0" />
  <path
     d="m 78.756013,187.032 v 1.148 h -3.346 V 197 h -1.316 v -8.82 h -3.346 v -1.148 z"
     id="path2878"
     style="font-size:14px;font-family:HelveticaNeueCyr, Sans-serif;fill:#ffe0e0" />
  <path
     d="m 86.778004,187.032 v 1.148 h -5.586 v 3.122 h 5.222 v 1.106 h -5.222 v 3.444 h 5.656 V 197 h -6.972 v -9.968 z"
     id="path2880"
     style="font-size:14px;font-family:HelveticaNeueCyr, Sans-serif;fill:#ffe0e0" />
  <path
     d="M 97.082005,191.722 V 197 h -0.84 l -0.336,-1.246 q -1.204,1.484 -3.22,1.484 -2.128,0 -3.444,-1.414 -1.302,-1.428 -1.302,-3.724 0,-2.282 1.288,-3.78 1.302,-1.498 3.556,-1.498 1.036,0 1.932,0.364 0.896,0.35 1.526,1.12 0.63,0.756 0.714,1.792 h -1.288 q -0.154,-0.98 -0.952,-1.568 -0.784,-0.602 -1.932,-0.602 -1.624,0 -2.576,1.12 -0.952,1.106 -0.952,3.01 0,1.876 0.952,2.982 0.952,1.106 2.562,1.106 1.512,0 2.296,-0.91 0.798,-0.924 0.84,-2.436 h -3.192 v -1.078 z"
     id="path2882"
     style="font-size:14px;font-family:HelveticaNeueCyr, Sans-serif;fill:#ffe0e0" />
  <path
     d="m 105.95802,187.032 v 1.148 h -5.586 v 3.122 h 5.222 v 1.106 h -5.222 v 3.444 h 5.656 V 197 h -6.972 v -9.968 z"
     id="path2884"
     style="font-size:14px;font-family:HelveticaNeueCyr, Sans-serif;fill:#ffe0e0" />
  <path
     d="m 107.61002,187.032 h 4.382 q 3.346,0 3.346,2.758 0,0.868 -0.476,1.54 -0.462,0.658 -1.232,0.882 0.504,0.112 0.812,0.322 0.308,0.21 0.448,0.588 0.14,0.378 0.182,0.672 0.042,0.294 0.07,0.868 0,0.056 0.014,0.28 0.014,0.21 0.014,0.294 0,0.07 0.014,0.266 0.028,0.196 0.042,0.294 0.014,0.098 0.042,0.266 0.028,0.168 0.07,0.28 0.042,0.098 0.098,0.238 0.056,0.126 0.126,0.238 0.07,0.098 0.154,0.182 h -1.512 q -0.098,-0.14 -0.168,-0.35 -0.056,-0.21 -0.084,-0.49 -0.028,-0.294 -0.042,-0.462 -0.014,-0.182 -0.028,-0.518 -0.014,-0.336 -0.014,-0.378 -0.07,-1.274 -0.532,-1.694 -0.448,-0.42 -1.792,-0.42 h -2.618 V 197 h -1.316 z m 1.316,1.12 v 3.486 h 2.478 q 0.462,0 0.77,-0.028 0.322,-0.028 0.7,-0.126 0.378,-0.098 0.602,-0.28 0.238,-0.182 0.392,-0.518 0.154,-0.336 0.154,-0.812 0,-1.008 -0.616,-1.358 -0.602,-0.364 -1.652,-0.364 z"
     id="path2886"
     style="font-size:14px;font-family:HelveticaNeueCyr, Sans-serif;fill:#ffe0e0" />
  <path
     id="rect2360"
     style="fill:#320000;stroke:#320000"
     d="m 51,223 h 86 v 32 H 51 Z" />
  <path
     id="rect2362"
     class="nonterminal"
     style="fill:#ff3f3f;stroke:#320000"
     d="m 49,221 h 86 v 32 H 49 Z" />
  <path
     d="m 58.036,231.032 h 1.33 v 6.286 q 0,1.456 0.63,2.128 0.63,0.672 2.058,0.672 1.47,0 2.072,-0.686 0.616,-0.686 0.616,-2.114 v -6.286 h 1.33 v 5.936 q 0,2.184 -0.91,3.22 -0.91,1.022 -3.108,1.022 -2.128,0 -3.08,-0.994 -0.938,-1.008 -0.938,-3.108 z"
     id="path2855"
     style="font-size:14px;font-family:HelveticaNeueCyr, Sans-serif;fill:#ffe0e0" />
  <path
     d="m 68.158002,231.032 h 1.442 l 5.264,8.092 v -8.092 h 1.274 V 241 h -1.484 l -5.236,-7.994 V 241 h -1.26 z"
     id="path2857"
     style="font-size:14px;font-family:HelveticaNeueCyr, Sans-serif;fill:#ffe0e0" />
  <path
     d="m 85.378003,233.958 h -1.274 q -0.21,-2.03 -2.478,-2.03 -1.078,0 -1.666,0.434 -0.588,0.434 -0.588,1.218 0,0.28 0.084,0.49 0.084,0.21 0.28,0.378 0.21,0.154 0.392,0.266 0.182,0.112 0.574,0.224 0.392,0.112 0.63,0.168 0.238,0.042 0.742,0.154 0.616,0.126 1.022,0.238 0.406,0.098 0.966,0.336 0.56,0.238 0.882,0.532 0.336,0.28 0.574,0.756 0.252,0.476 0.252,1.078 0,1.05 -0.588,1.764 -0.588,0.7 -1.428,0.98 -0.84,0.28 -1.862,0.28 -1.876,0 -3.01,-0.882 -1.12,-0.896 -1.12,-2.632 h 1.274 q 0.042,1.274 0.854,1.862 0.812,0.574 2.114,0.574 1.022,0 1.75,-0.42 0.728,-0.434 0.728,-1.4 0,-0.448 -0.196,-0.756 -0.196,-0.322 -0.616,-0.518 -0.42,-0.21 -0.84,-0.336 -0.42,-0.126 -1.106,-0.28 -0.098,-0.014 -0.14,-0.028 -1.54,-0.35 -2.016,-0.56 -1.456,-0.63 -1.456,-2.17 0,-1.428 1.05,-2.128 1.064,-0.714 2.562,-0.714 1.638,0 2.618,0.784 0.98,0.784 1.036,2.338 z"
     id="path2859"
     style="font-size:14px;font-family:HelveticaNeueCyr, Sans-serif;fill:#ffe0e0" />
  <path
     d="M 88.766013,231.032 V 241 h -1.316 v -9.968 z"
     id="path2861"
     style="font-size:14px;font-family:HelveticaNeueCyr, Sans-serif;fill:#ffe0e0" />
  <path
     d="M 99.67202,235.722 V 241 h -0.84 l -0.336,-1.246 q -1.203996,1.484 -3.219996,1.484 -2.128,0 -3.444,-1.414 -1.302,-1.428 -1.302,-3.724 0,-2.282 1.288,-3.78 1.302,-1.498 3.556,-1.498 1.036,0 1.932,0.364 0.895996,0.35 1.525996,1.12 0.63,0.756 0.714,1.792 h -1.288 q -0.154,-0.98 -0.951996,-1.568 -0.784,-0.602 -1.932,-0.602 -1.624,0 -2.576,1.12 -0.952,1.106 -0.952,3.01 0,1.876 0.952,2.982 0.952,1.106 2.562,1.106 1.512,0 2.296,-0.91 0.797996,-0.924 0.839996,-2.436 h -3.191996 v -1.078 z"
     id="path2863"
     style="font-size:14px;font-family:HelveticaNeueCyr, Sans-serif;fill:#ffe0e0" />
  <path
     d="m 101.59004,231.032 h 1.442 l 5.264,8.092 v -8.092 h 1.274 V 241 h -1.484 l -5.236,-7.994 V 241 h -1.26 z"
     id="path2865"
     style="font-size:14px;font-family:HelveticaNeueCyr, Sans-serif;fill:#ffe0e0" />
  <path
     d="m 118.65604,231.032 v 1.148 h -5.586 v 3.122 h 5.222 v 1.106 h -5.222 v 3.444 h 5.656 V 241 h -6.972 v -9.968 z"
     id="path2867"
     style="font-size:14px;font-family:HelveticaNeueCyr, Sans-serif;fill:#ffe0e0" />
  <path
     d="m 120.30804,231.032 h 3.248 q 2.534,0 3.738,1.176 1.204,1.176 1.204,3.724 0,2.506 -1.12,3.794 -1.12,1.274 -3.584,1.274 h -3.486 z m 1.316,1.134 v 7.7 h 2.002 q 1.876,0 2.716,-0.91 0.854,-0.924 0.854,-2.87 0,-2.044 -0.826,-2.982 -0.826,-0.938 -2.8,-0.938 z"
     id="path2869"
     style="font-size:14px;font-family:HelveticaNeueCyr, Sans-serif;fill:#ffe0e0" />
  <path
     id="rect2368"
     style="fill:#320000;stroke:#320000"
     d="m 51,267 h 70 v 32 H 51 Z" />
  <path
     id="rect2370"
     class="nonterminal"
     style="fill:#ff3f3f;stroke:#320000"
     d="m 49,265 h 70 v 32 H 49 Z" />
  <path
     d="m 58.106,275.032 h 3.248 q 2.534,0 3.738,1.176 1.204,1.176 1.204,3.724 0,2.506 -1.12,3.794 Q 64.056,285 61.592,285 h -3.486 z m 1.316,1.134 v 7.7 h 2.002 q 1.876,0 2.716,-0.91 0.854,-0.924 0.854,-2.87 0,-2.044 -0.826,-2.982 -0.826,-0.938 -2.8,-0.938 z"
     id="path2840"
     style="font-size:14px;font-family:HelveticaNeueCyr, Sans-serif;fill:#ffe0e0" />
  <path
     d="m 72.162007,274.794 q 2.268,0 3.528,1.428 1.26,1.414 1.26,3.71 0,2.31 -1.246,3.808 -1.246,1.498 -3.528,1.498 -1.162,0 -2.086,-0.42 -0.924,-0.42 -1.512,-1.162 -0.574,-0.742 -0.882,-1.694 -0.294,-0.952 -0.294,-2.058 0,-2.338 1.288,-3.724 1.302,-1.386 3.472,-1.386 z m 0,1.148 q -1.666,0 -2.562,1.176 -0.882,1.162 -0.882,2.884 0,1.876 0.938,2.996 0.952,1.106 2.534,1.106 1.568,0 2.506,-1.12 0.938,-1.12 0.938,-2.982 0,-1.848 -0.952,-2.954 -0.938,-1.106 -2.52,-1.106 z"
     id="path2842"
     style="font-size:14px;font-family:HelveticaNeueCyr, Sans-serif;fill:#ffe0e0" />
  <path
     d="m 78.53201,275.032 h 1.33 v 6.286 q 0,1.456 0.63,2.128 0.63,0.672 2.058,0.672 1.47,0 2.072,-0.686 0.616,-0.686 0.616,-2.114 v -6.286 h 1.33 v 5.936 q 0,2.184 -0.91,3.22 -0.91,1.022 -3.108,1.022 -2.128,0 -3.08,-0.994 -0.938,-1.008 -0.938,-3.108 z"
     id="path2844"
     style="font-size:14px;font-family:HelveticaNeueCyr, Sans-serif;fill:#ffe0e0" />
  <path
     d="m 88.710012,275.032 h 4.256 q 1.372,0 2.268,0.602 0.91,0.602 0.91,1.89 0,0.742 -0.406,1.33 -0.392,0.574 -1.064,0.812 0.924,0.21 1.414,0.868 0.504,0.658 0.504,1.652 0,2.814 -3.78,2.814 h -4.102 z m 1.288,1.12 v 3.15 h 2.366 q 0.406,0 0.686,-0.014 0.294,-0.028 0.658,-0.112 0.364,-0.084 0.574,-0.238 0.224,-0.168 0.378,-0.476 0.168,-0.308 0.168,-0.742 0,-0.434 -0.14,-0.728 -0.14,-0.308 -0.336,-0.462 -0.196,-0.168 -0.546,-0.252 -0.336,-0.084 -0.616,-0.098 -0.266,-0.028 -0.7,-0.028 z m 0,4.186 v 3.556 h 2.632 q 0.49,0 0.798,-0.014 0.308,-0.028 0.686,-0.126 0.392,-0.098 0.616,-0.28 0.224,-0.196 0.378,-0.546 0.154,-0.364 0.154,-0.868 0,-0.42 -0.112,-0.728 -0.098,-0.308 -0.35,-0.49 -0.238,-0.182 -0.462,-0.294 -0.21,-0.112 -0.616,-0.154 -0.406,-0.042 -0.63,-0.042 -0.224,-0.014 -0.686,-0.014 z"
     id="path2846"
     style="font-size:14px;font-family:HelveticaNeueCyr, Sans-serif;fill:#ffe0e0" />
  <path
     d="M 104.922,283.852 V 285 h -6.608 v -9.968 h 1.316 v 8.82 z"
     id="path2848"
     style="font-size:14px;font-family:HelveticaNeueCyr, Sans-serif;fill:#ffe0e0" />
  <path
     d="m 112.986,275.032 v 1.148 H 107.4 v 3.122 h 5.222 v 1.106 H 107.4 v 3.444 h 5.656 V 285 h -6.972 v -9.968 z"
     id="path2850"
     style="font-size:14px;font-family:HelveticaNeueCyr, Sans-serif;fill:#ffe0e0" />
  <path
     id="rect2376"
     style="fill:#320000;stroke:#320000"
     d="m 51,311 h 76 v 32 H 51 Z" />
  <path
     id="rect2378"
     class="nonterminal"
     style="fill:#ff3f3f;stroke:#320000"
     d="m 49,309 h 76 v 32 H 49 Z" />
  <path
     d="m 58.106,319.032 h 3.248 q 2.534,0 3.738,1.176 1.204,1.176 1.204,3.724 0,2.506 -1.12,3.794 Q 64.056,329 61.592,329 h -3.486 z m 1.316,1.134 v 7.7 h 2.002 q 1.876,0 2.716,-0.91 0.854,-0.924 0.854,-2.87 0,-2.044 -0.826,-2.982 -0.826,-0.938 -2.8,-0.938 z"
     id="path2823"
     style="font-size:14px;font-family:HelveticaNeueCyr, Sans-serif;fill:#ffe0e0" />
  <path
     d="m 74.864007,319.032 v 1.148 h -5.586 v 3.122 h 5.222 v 1.106 h -5.222 v 3.444 h 5.656 V 329 h -6.972 v -9.968 z"
     id="path2825"
     style="font-size:14px;font-family:HelveticaNeueCyr, Sans-serif;fill:#ffe0e0" />
  <path
     d="m 84.958007,325.234 q -0.168,1.89 -1.316,2.954 -1.134,1.05 -2.996,1.05 -2.128,0 -3.374,-1.4 -1.246,-1.414 -1.246,-3.808 0,-2.24 1.246,-3.724 1.26,-1.498 3.472,-1.498 1.582,0 2.786,0.854 1.204,0.854 1.344,2.366 h -1.316 q -0.224,-0.98 -0.98,-1.526 -0.756,-0.56 -1.862,-0.56 -1.666,0 -2.52,1.176 -0.84,1.176 -0.84,2.898 0,1.904 0.896,2.996 0.896,1.092 2.45,1.092 1.274,0 2.03,-0.728 0.756,-0.742 0.91,-2.142 z"
     id="path2827"
     style="font-size:14px;font-family:HelveticaNeueCyr, Sans-serif;fill:#ffe0e0" />
  <path
     d="M 87.996009,319.032 V 329 h -1.316 v -9.968 z"
     id="path2829"
     style="font-size:14px;font-family:HelveticaNeueCyr, Sans-serif;fill:#ffe0e0" />
  <path
     d="m 90.26402,319.032 h 1.82 l 3.206,8.442 3.094,-8.442 h 1.834 V 329 h -1.246 v -8.316 l -3.122,8.316 h -1.148 l -3.178,-8.316 V 329 h -1.26 z"
     id="path2831"
     style="font-size:14px;font-family:HelveticaNeueCyr, Sans-serif;fill:#ffe0e0" />
  <path
     d="m 106.63002,319.032 3.892,9.968 h -1.47 l -1.106,-3.052 h -4.186 l -1.134,3.052 h -1.4 l 3.92,-9.968 z m 0.924,5.866 -1.694,-4.606 -1.722,4.606 z"
     id="path2833"
     style="font-size:14px;font-family:HelveticaNeueCyr, Sans-serif;fill:#ffe0e0" />
  <path
     d="M 118.13803,327.852 V 329 h -6.608 v -9.968 h 1.316 v 8.82 z"
     id="path2835"
     style="font-size:14px;font-family:HelveticaNeueCyr, Sans-serif;fill:#ffe0e0" />
  <path
     id="rect2384"
     style="fill:#320000;stroke:#320000"
     d="m 51,355 h 66 v 32 H 51 Z" />
  <path
     id="rect2386"
     class="nonterminal"
     style="fill:#ff3f3f;stroke:#320000"
     d="m 49,353 h 66 v 32 H 49 Z" />
  <path
     d="m 65.162,365.958 h -1.274 q -0.21,-2.03 -2.478,-2.03 -1.078,0 -1.666,0.434 -0.588,0.434 -0.588,1.218 0,0.28 0.084,0.49 0.084,0.21 0.28,0.378 0.21,0.154 0.392,0.266 0.182,0.112 0.574,0.224 0.392,0.112 0.63,0.168 0.238,0.042 0.742,0.154 0.616,0.126 1.022,0.238 0.406,0.098 0.966,0.336 0.56,0.238 0.882,0.532 0.336,0.28 0.574,0.756 0.252,0.476 0.252,1.078 0,1.05 -0.588,1.764 -0.588,0.7 -1.428,0.98 -0.84,0.28 -1.862,0.28 -1.876,0 -3.01,-0.882 -1.12,-0.896 -1.12,-2.632 h 1.274 q 0.042,1.274 0.854,1.862 0.812,0.574 2.114,0.574 1.022,0 1.75,-0.42 0.728,-0.434 0.728,-1.4 0,-0.448 -0.196,-0.756 -0.196,-0.322 -0.616,-0.518 -0.42,-0.21 -0.84,-0.336 -0.42,-0.126 -1.106,-0.28 -0.098,-0.014 -0.14,-0.028 -1.54,-0.35 -2.016,-0.56 -1.456,-0.63 -1.456,-2.17 0,-1.428 1.05,-2.128 1.064,-0.714 2.562,-0.714 1.638,0 2.618,0.784 0.98,0.784 1.036,2.338 z"
     id="path2808"
     style="font-size:14px;font-family:HelveticaNeueCyr, Sans-serif;fill:#ffe0e0" />
  <path
     d="m 74.09401,363.032 v 1.148 h -3.346 V 373 h -1.316 v -8.82 h -3.346 v -1.148 z"
     id="path2810"
     style="font-size:14px;font-family:HelveticaNeueCyr, Sans-serif;fill:#ffe0e0" />
  <path
     d="m 75.214002,363.032 h 4.382 q 3.346,0 3.346,2.758 0,0.868 -0.476,1.54 -0.462,0.658 -1.232,0.882 0.504,0.112 0.812,0.322 0.308,0.21 0.448,0.588 0.14,0.378 0.182,0.672 0.042,0.294 0.07,0.868 0,0.056 0.014,0.28 0.014,0.21 0.014,0.294 0,0.07 0.014,0.266 0.028,0.196 0.042,0.294 0.014,0.098 0.042,0.266 0.028,0.168 0.07,0.28 0.042,0.098 0.098,0.238 0.056,0.126 0.126,0.238 0.07,0.098 0.154,0.182 h -1.512 q -0.098,-0.14 -0.168,-0.35 -0.056,-0.21 -0.084,-0.49 -0.028,-0.294 -0.042,-0.462 -0.014,-0.182 -0.028,-0.518 -0.014,-0.336 -0.014,-0.378 -0.07,-1.274 -0.532,-1.694 -0.448,-0.42 -1.792,-0.42 h -2.618 V 373 h -1.316 z m 1.316,1.12 v 3.486 h 2.478 q 0.462,0 0.77,-0.028 0.322,-0.028 0.7,-0.126 0.378,-0.098 0.602,-0.28 0.238,-0.182 0.392,-0.518 0.154,-0.336 0.154,-0.812 0,-1.008 -0.616,-1.358 -0.602,-0.364 -1.652,-0.364 z"
     id="path2812"
     style="font-size:14px;font-family:HelveticaNeueCyr, Sans-serif;fill:#ffe0e0" />
  <path
     d="M 86.175994,363.032 V 373 h -1.316 v -9.968 z"
     id="path2814"
     style="font-size:14px;font-family:HelveticaNeueCyr, Sans-serif;fill:#ffe0e0" />
  <path
     d="m 88.374005,363.032 h 1.442 l 5.264,8.092 v -8.092 h 1.274 V 373 h -1.484 l -5.236,-7.994 V 373 h -1.26 z"
     id="path2816"
     style="font-size:14px;font-family:HelveticaNeueCyr, Sans-serif;fill:#ffe0e0" />
  <path
     d="M 107.19001,367.722 V 373 h -0.84 l -0.336,-1.246 q -1.204,1.484 -3.22,1.484 -2.128,0 -3.444,-1.414 -1.302,-1.428 -1.302,-3.724 0,-2.282 1.288,-3.78 1.302,-1.498 3.556,-1.498 1.036,0 1.932,0.364 0.896,0.35 1.526,1.12 0.63,0.756 0.714,1.792 h -1.288 q -0.154,-0.98 -0.952,-1.568 -0.784,-0.602 -1.932,-0.602 -1.624,0 -2.576,1.12 -0.952,1.106 -0.952,3.01 0,1.876 0.952,2.982 0.952,1.106 2.562,1.106 1.512,0 2.296,-0.91 0.798,-0.924 0.84,-2.436 h -3.192 v -1.078 z"
     id="path2818"
     style="font-size:14px;font-family:HelveticaNeueCyr, Sans-serif;fill:#ffe0e0" />
  <path
     id="rect2392"
     style="fill:#320000;stroke:#320000"
     d="m 51,399 h 50 v 32 H 51 Z" />
  <path
     id="rect2394"
     class="nonterminal"
     style="fill:#ff3f3f;stroke:#320000"
     d="m 49,397 h 50 v 32 H 49 Z" />
  <path
     d="m 58.106,407.032 h 4.382 q 3.346,0 3.346,2.758 0,0.868 -0.476,1.54 -0.462,0.658 -1.232,0.882 0.504,0.112 0.812,0.322 0.308,0.21 0.448,0.588 0.14,0.378 0.182,0.672 0.042,0.294 0.07,0.868 0,0.056 0.014,0.28 0.014,0.21 0.014,0.294 0,0.07 0.014,0.266 0.028,0.196 0.042,0.294 0.014,0.098 0.042,0.266 0.028,0.168 0.07,0.28 0.042,0.098 0.098,0.238 0.056,0.126 0.126,0.238 0.07,0.098 0.154,0.182 H 64.7 q -0.098,-0.14 -0.168,-0.35 -0.056,-0.21 -0.084,-0.49 -0.028,-0.294 -0.042,-0.462 -0.014,-0.182 -0.028,-0.518 -0.014,-0.336 -0.014,-0.378 -0.07,-1.274 -0.532,-1.694 -0.448,-0.42 -1.792,-0.42 H 59.422 V 417 h -1.316 z m 1.316,1.12 v 3.486 H 61.9 q 0.462,0 0.77,-0.028 0.322,-0.028 0.7,-0.126 0.378,-0.098 0.602,-0.28 0.238,-0.182 0.392,-0.518 0.154,-0.336 0.154,-0.812 0,-1.008 -0.616,-1.358 -0.602,-0.364 -1.652,-0.364 z"
     id="path2799"
     style="font-size:14px;font-family:HelveticaNeueCyr, Sans-serif;fill:#ffe0e0" />
  <path
     d="m 71.895993,406.794 q 2.268,0 3.528,1.428 1.26,1.414 1.26,3.71 0,2.31 -1.246,3.808 -1.246,1.498 -3.528,1.498 -1.162,0 -2.086,-0.42 -0.924,-0.42 -1.512,-1.162 -0.574,-0.742 -0.882,-1.694 -0.294,-0.952 -0.294,-2.058 0,-2.338 1.288,-3.724 1.302,-1.386 3.472,-1.386 z m 0,1.148 q -1.666,0 -2.562,1.176 -0.882,1.162 -0.882,2.884 0,1.876 0.938,2.996 0.952,1.106 2.534,1.106 1.568,0 2.506,-1.12 0.938,-1.12 0.938,-2.982 0,-1.848 -0.952,-2.954 -0.938,-1.106 -2.52,-1.106 z"
     id="path2801"
     style="font-size:14px;font-family:HelveticaNeueCyr, Sans-serif;fill:#ffe0e0" />
  <path
     d="m 77.425996,407.032 h 1.358 l 1.974,8.33 2.254,-8.33 h 1.442 l 2.226,8.33 2.044,-8.33 h 1.316 l -2.66,9.968 h -1.386 l -2.296,-8.344 -2.324,8.344 h -1.386 z"
     id="path2803"
     style="font-size:14px;font-family:HelveticaNeueCyr, Sans-serif;fill:#ffe0e0" />
  <path
     class="line"
     d="m17 17 h2 m20 0 h10 m56 0 h10 m0 0 h30 m-126 0 h20 m106 0 h20 m-146 0 q10 0 10 10 m126 0 q0 -10 10 -10 m-136 10 v24 m126 0 v-24 m-126 24 q0 10 10 10 m106 0 q10 0 10 -10 m-116 10 h10 m62 0 h10 m0 0 h24 m-116 -10 v20 m126 0 v-20 m-126 20 v24 m126 0 v-24 m-126 24 q0 10 10 10 m106 0 q10 0 10 -10 m-116 10 h10 m56 0 h10 m0 0 h30 m-116 -10 v20 m126 0 v-20 m-126 20 v24 m126 0 v-24 m-126 24 q0 10 10 10 m106 0 q10 0 10 -10 m-116 10 h10 m26 0 h10 m0 0 h60 m-116 -10 v20 m126 0 v-20 m-126 20 v24 m126 0 v-24 m-126 24 q0 10 10 10 m106 0 q10 0 10 -10 m-116 10 h10 m74 0 h10 m0 0 h12 m-116 -10 v20 m126 0 v-20 m-126 20 v24 m126 0 v-24 m-126 24 q0 10 10 10 m106 0 q10 0 10 -10 m-116 10 h10 m86 0 h10 m-116 -10 v20 m126 0 v-20 m-126 20 v24 m126 0 v-24 m-126 24 q0 10 10 10 m106 0 q10 0 10 -10 m-116 10 h10 m70 0 h10 m0 0 h16 m-116 -10 v20 m126 0 v-20 m-126 20 v24 m126 0 v-24 m-126 24 q0 10 10 10 m106 0 q10 0 10 -10 m-116 10 h10 m76 0 h10 m0 0 h10 m-116 -10 v20 m126 0 v-20 m-126 20 v24 m126 0 v-24 m-126 24 q0 10 10 10 m106 0 q10 0 10 -10 m-116 10 h10 m66 0 h10 m0 0 h20 m-116 -10 v20 m126 0 v-20 m-126 20 v24 m126 0 v-24 m-126 24 q0 10 10 10 m106 0 q10 0 10 -10 m-116 10 h10 m50 0 h10 m0 0 h36 m23 -396 h-3"
     id="path2400" />
  <path
     id="polygon2402"
     style="fill:#320000;stroke:#320000"
     d="m 175,17 8,-4 v 8 z" />
  <path
     id="polygon2404"
     style="fill:#320000;stroke:#320000"
     d="m 175,17 -8,-4 v 8 z" />
</svg>
