<svg width="24" height="24" viewBox="0 0 24 24" fill="none" xmlns="http://www.w3.org/2000/svg">
<path fill-rule="evenodd" clip-rule="evenodd" d="M18.4788 11.2857C18.8371 11.0779 19.296 11.2 19.5038 11.5584L21.6506 15.2615C21.8584 15.6198 21.7363 16.0788 21.378 16.2865C21.0196 16.4943 20.5607 16.3722 20.353 16.0138L18.2061 12.3107C17.9983 11.9524 18.1204 11.4934 18.4788 11.2857Z" fill="#060606"/>
<path fill-rule="evenodd" clip-rule="evenodd" d="M14.3279 13.2584C14.7358 13.1865 15.1248 13.459 15.1966 13.8669L15.8623 17.645C15.9341 18.053 15.6617 18.4419 15.2538 18.5138C14.8458 18.5857 14.4569 18.3132 14.385 17.9053L13.7194 14.1272C13.6475 13.7192 13.9199 13.3303 14.3279 13.2584Z" fill="#060606"/>
<path fill-rule="evenodd" clip-rule="evenodd" d="M9.66599 13.2489C10.074 13.3206 10.3465 13.7095 10.2749 14.1174L9.60923 17.9049C9.53753 18.3129 9.14869 18.5855 8.74073 18.5138C8.33277 18.4421 8.06017 18.0533 8.13187 17.6453L8.79749 13.8578C8.86919 13.4498 9.25803 13.1772 9.66599 13.2489Z" fill="#060606"/>
<path fill-rule="evenodd" clip-rule="evenodd" d="M5.51393 11.2849C5.87273 11.4918 5.99582 11.9505 5.78885 12.3093L3.64198 16.0312C3.43501 16.39 2.97637 16.5131 2.61757 16.3061C2.25877 16.0991 2.13568 15.6405 2.34265 15.2817L4.48952 11.5598C4.69649 11.201 5.15513 11.0779 5.51393 11.2849Z" fill="#060606"/>
<path fill-rule="evenodd" clip-rule="evenodd" d="M2.53048 9.25104C2.85272 8.99078 3.32492 9.04101 3.58519 9.36325C5.07734 11.2107 7.77111 13.5001 12.0017 13.5001C16.2324 13.5001 18.9261 11.2107 20.4183 9.36325C20.6785 9.04101 21.1508 8.99078 21.473 9.25104C21.7952 9.51131 21.8455 9.98352 21.5852 10.3058C19.9273 12.3583 16.8461 15.0001 12.0017 15.0001C7.15736 15.0001 4.07613 12.3583 2.41828 10.3058C2.15801 9.98352 2.20825 9.51131 2.53048 9.25104Z" fill="#060606"/>
</svg>
