<?xml version="1.0" encoding="UTF-8" standalone="no"?>
<svg
   width="37.181362"
   height="36.287052"
   viewBox="0 0 37.181362 36.287052"
   fill="none"
   version="1.1"
   id="svg16"
   sodipodi:docname="icon.svg"
   inkscape:version="1.4.2 (ebf0e940d0, 2025-05-08)"
   xmlns:inkscape="http://www.inkscape.org/namespaces/inkscape"
   xmlns:sodipodi="http://sodipodi.sourceforge.net/DTD/sodipodi-0.dtd"
   xmlns="http://www.w3.org/2000/svg"
   xmlns:svg="http://www.w3.org/2000/svg">
  <defs
     id="defs20" />
  <sodipodi:namedview
     id="namedview18"
     pagecolor="#ffffff"
     bordercolor="#000000"
     borderopacity="0.25"
     inkscape:showpageshadow="2"
     inkscape:pageopacity="0.0"
     inkscape:pagecheckerboard="0"
     inkscape:deskcolor="#d1d1d1"
     showgrid="false"
     inkscape:zoom="5.9416611"
     inkscape:cx="37.44744"
     inkscape:cy="48.387142"
     inkscape:window-width="1858"
     inkscape:window-height="1014"
     inkscape:window-x="0"
     inkscape:window-y="0"
     inkscape:window-maximized="1"
     inkscape:current-layer="svg16" />
  <g
     id="g12"
     transform="matrix(0.35488558,0,0,0.35488558,-7.0764185,-5.3090883)">
    <path
       class="st0"
       d="M 42.53,34.89 H 19.95 c 0,0 0,-15.68 0,-15.68 0,-2.35 1.9,-4.25 4.25,-4.25 h 41.97 l -12.9,15 c -2.69,3.13 -6.62,4.93 -10.75,4.93 z"
       id="path9"
       style="fill:#e23956" />
    <path
       class="st0"
       d="m 124.7,34.92 c 0,-11.02 -8.93,-19.95 -19.95,-19.95 H 86.31 c -4.13,0 -8.05,1.8 -10.75,4.93 L 60.45,37.47 C 57.76,40.6 53.83,42.4 49.7,42.4 H 19.94 v 19.95 h 22.58 c 4.13,0 8.05,-1.8 10.75,-4.93 L 68.38,39.85 C 71.07,36.72 75,34.92 79.13,34.92 Z"
       id="path10-2"
       style="fill:#e23956" />
    <path
       class="st0"
       d="m 86.31,69.83 c -4.13,0 -8.05,1.8 -10.75,4.93 L 60.45,92.33 c -2.69,3.13 -6.62,4.93 -10.75,4.93 H 19.94 v 15.7 c 0,2.35 1.9,4.25 4.25,4.25 h 18.33 c 4.13,0 8.05,-1.8 10.75,-4.93 L 68.38,94.71 C 71.07,91.58 75,89.78 79.13,89.78 h 25.62 c 11.02,0 19.95,-8.93 19.95,-19.95 z"
       id="path11"
       style="fill:#e23956" />
    <path
       class="st0"
       d="M 75.57,47.33 60.46,64.9 c -2.69,3.13 -6.62,4.93 -10.75,4.93 H 19.95 v 19.95 h 22.58 c 4.13,0 8.05,-1.8 10.75,-4.93 L 68.39,67.28 c 2.69,-3.13 6.62,-4.93 10.75,-4.93 h 45.57 c 0,0 0,-19.95 0,-19.95 H 86.32 c -4.13,0 -8.05,1.8 -10.75,4.93 z"
       id="path12-9"
       style="fill:#e23956" />
  </g>
</svg>
