<?xml version="1.0" encoding="UTF-8" standalone="no"?>
<svg
   width="37"
   height="37"
   viewBox="0 0 37 37"
   fill="none"
   version="1.1"
   id="svg16"
   sodipodi:docname="icon.svg"
   inkscape:version="1.2.1 (9c6d41e410, 2022-07-14)"
   xmlns:inkscape="http://www.inkscape.org/namespaces/inkscape"
   xmlns:sodipodi="http://sodipodi.sourceforge.net/DTD/sodipodi-0.dtd"
   xmlns="http://www.w3.org/2000/svg"
   xmlns:svg="http://www.w3.org/2000/svg">
  <defs
     id="defs20" />
  <sodipodi:namedview
     id="namedview18"
     pagecolor="#ffffff"
     bordercolor="#000000"
     borderopacity="0.25"
     inkscape:showpageshadow="2"
     inkscape:pageopacity="0.0"
     inkscape:pagecheckerboard="0"
     inkscape:deskcolor="#d1d1d1"
     showgrid="false"
     inkscape:zoom="5.9416611"
     inkscape:cx="37.531592"
     inkscape:cy="48.8079"
     inkscape:window-width="1350"
     inkscape:window-height="1041"
     inkscape:window-x="382"
     inkscape:window-y="0"
     inkscape:window-maximized="0"
     inkscape:current-layer="svg16" />
  <path
     d="M 35.31604,22.219549 22.219434,35.31604 c -2.05349,2.053605 -5.385493,2.053605 -7.438983,0 L 1.6839257,22.219549 c -2.05355885,-2.053605 -2.05355885,-5.385493 0,-7.439098 L 14.780451,1.6839257 c 2.05349,-2.05355885 5.385493,-2.05355885 7.438983,0 L 35.31604,14.780451 c 2.053605,2.053605 2.053605,5.385493 0,7.439098 z"
     fill="#dd4a4a"
     id="path2"
     style="stroke-width:1.14727" />
  <path
     d="m 18.377703,10.697908 -1.573933,1.599862 1.500965,1.525748 6.035992,6.136033 0.01618,0.01641 4.340448,-4.412268 -0.01629,-0.01652 -1.476529,-1.500967 -4.559462,-4.6349518 -1.500852,-1.525748 z m 2.685287,0.313318 4.559577,4.634952 -1.184552,1.204055 -4.55946,-4.634837 z"
     fill="#ffffff"
     id="path4"
     style="stroke-width:1.14727" />
  <path
     d="m 12.655602,19.843333 1.476531,-1.500967 -1.500852,-1.525634 -1.476531,-1.501081 -1.5009897,-1.525748 -4.6162063,4.692659 0.016257,0.01652 4.0077656,4.074168 0.4543285,0.461775 8.8186589,8.96473 1.573934,-1.599861 -8.818729,-8.964731 z M 11.154749,18.317585 9.5970395,19.90104 8.1204507,18.400073 9.6781741,16.816732 Z"
     fill="#ffffff"
     id="path6"
     style="stroke-width:1.14727" />
  <path
     d="m 30.099884,16.990887 -5.744013,5.839007 -10.303359,-10.465698 5.744012,-5.8389947 -1.492706,-1.5257365 -7.326023,7.4390742 0.02432,0.02467 11.779936,11.974925 1.500852,1.525748 1.573933,-1.608236 5.743898,-5.838892 z"
     fill="#ffffff"
     id="path8"
     style="stroke-width:1.14727" />
  <path
     d="m 18.388487,22.997165 -1.497296,1.522077 4.399992,4.472843 1.497296,-1.522077 z"
     fill="#ffffff"
     id="path10"
     style="stroke-width:1.14727" />
  <path
     d="m 15.426133,19.985594 -1.497295,1.522076 1.594813,1.621316 1.497296,-1.522192 z"
     fill="#ffffff"
     id="path12"
     style="stroke-width:1.14727" />
</svg>
