<svg width="152" height="32" viewBox="0 0 152 32" fill="none" xmlns="http://www.w3.org/2000/svg">
<path d="M22.9931 18.4316L14.4315 26.9931C13.0891 28.3356 10.9109 28.3356 9.56843 26.9931L1.00685 18.4316C-0.335618 17.0891 -0.335618 14.9109 1.00685 13.5684L9.56843 5.00685C10.9109 3.66438 13.0891 3.66438 14.4315 5.00685L22.9931 13.5684C24.3356 14.9109 24.3356 17.0891 22.9931 18.4316Z" fill="#DD4A4A"/>
<path d="M11.9205 10.9L10.8916 11.9459L11.8728 12.9434L15.8187 16.9546L15.8293 16.9653L18.6668 14.081L18.6561 14.0702L17.6909 13.0889L14.7102 10.0589L13.7291 9.06152L11.9205 10.9ZM13.676 11.1049L16.6567 14.1349L15.8823 14.922L12.9017 11.8921L13.676 11.1049Z" fill="white"/>
<path d="M8.17932 16.8792L9.1446 15.8979L8.16342 14.9006L7.1982 13.9193L6.21696 12.9219L3.19922 15.9896L3.20984 16.0004L5.82983 18.6638L6.12684 18.9657L11.8919 24.8262L12.9208 23.7802L7.15572 17.9198L8.17932 16.8792ZM7.1982 15.8817L6.17988 16.9169L5.21459 15.9357L6.23292 14.9006L7.1982 15.8817Z" fill="white"/>
<path d="M19.5836 15.0135L15.8287 18.8306L9.09307 11.9889L12.848 8.17173L11.8722 7.17432L7.08301 12.0374L7.09891 12.0536L14.7998 19.8819L15.781 20.8794L16.8098 19.828L20.5648 16.0109L19.5836 15.0135Z" fill="white"/>
<path d="M11.9271 18.9399L10.9482 19.9349L13.8247 22.859L14.8035 21.864L11.9271 18.9399Z" fill="white"/>
<path d="M9.99056 16.9717L9.01172 17.9667L10.0543 19.0266L11.0331 18.0315L9.99056 16.9717Z" fill="white"/>
<path d="M33.88 23V9H39.64C40.88 9 41.94 9.2 42.82 9.6C43.7133 10 44.4 10.5733 44.88 11.32C45.36 12.0667 45.6 12.9533 45.6 13.98C45.6 15.0067 45.36 15.8933 44.88 16.64C44.4 17.3867 43.7133 17.96 42.82 18.36C41.94 18.76 40.88 18.96 39.64 18.96H35.32L36.48 17.74V23H33.88ZM36.48 18.02L35.32 16.76H39.52C40.6667 16.76 41.5267 16.52 42.1 16.04C42.6867 15.5467 42.98 14.86 42.98 13.98C42.98 13.0867 42.6867 12.4 42.1 11.92C41.5267 11.44 40.6667 11.2 39.52 11.2H35.32L36.48 9.92V18.02ZM49.7964 23V9H52.3964V23H49.7964ZM64.2631 23.2C63.1965 23.2 62.2031 23.0267 61.2831 22.68C60.3765 22.32 59.5831 21.82 58.9031 21.18C58.2365 20.5267 57.7165 19.76 57.3431 18.88C56.9698 18 56.7831 17.04 56.7831 16C56.7831 14.96 56.9698 14 57.3431 13.12C57.7165 12.24 58.2431 11.48 58.9231 10.84C59.6031 10.1867 60.3965 9.68667 61.3031 9.34C62.2098 8.98 63.2031 8.8 64.2831 8.8C65.4298 8.8 66.4765 9 67.4231 9.4C68.3698 9.78667 69.1698 10.3667 69.8231 11.14L68.1431 12.72C67.6365 12.1733 67.0698 11.7667 66.4431 11.5C65.8165 11.22 65.1365 11.08 64.4031 11.08C63.6698 11.08 62.9965 11.2 62.3831 11.44C61.7831 11.68 61.2565 12.02 60.8031 12.46C60.3631 12.9 60.0165 13.42 59.7631 14.02C59.5231 14.62 59.4031 15.28 59.4031 16C59.4031 16.72 59.5231 17.38 59.7631 17.98C60.0165 18.58 60.3631 19.1 60.8031 19.54C61.2565 19.98 61.7831 20.32 62.3831 20.56C62.9965 20.8 63.6698 20.92 64.4031 20.92C65.1365 20.92 65.8165 20.7867 66.4431 20.52C67.0698 20.24 67.6365 19.82 68.1431 19.26L69.8231 20.86C69.1698 21.62 68.3698 22.2 67.4231 22.6C66.4765 23 65.4231 23.2 64.2631 23.2ZM80.1814 23.2C79.0881 23.2 78.0814 23.02 77.1614 22.66C76.2414 22.3 75.4414 21.8 74.7614 21.16C74.0814 20.5067 73.5547 19.7467 73.1814 18.88C72.8081 18 72.6214 17.04 72.6214 16C72.6214 14.96 72.8081 14.0067 73.1814 13.14C73.5547 12.26 74.0814 11.5 74.7614 10.86C75.4414 10.2067 76.2414 9.7 77.1614 9.34C78.0814 8.98 79.0814 8.8 80.1614 8.8C81.2547 8.8 82.2547 8.98 83.1614 9.34C84.0814 9.7 84.8814 10.2067 85.5614 10.86C86.2414 11.5 86.7681 12.26 87.1414 13.14C87.5147 14.0067 87.7014 14.96 87.7014 16C87.7014 17.04 87.5147 18 87.1414 18.88C86.7681 19.76 86.2414 20.52 85.5614 21.16C84.8814 21.8 84.0814 22.3 83.1614 22.66C82.2547 23.02 81.2614 23.2 80.1814 23.2ZM80.1614 20.92C80.8681 20.92 81.5214 20.8 82.1214 20.56C82.7214 20.32 83.2414 19.98 83.6814 19.54C84.1214 19.0867 84.4614 18.5667 84.7014 17.98C84.9547 17.38 85.0814 16.72 85.0814 16C85.0814 15.28 84.9547 14.6267 84.7014 14.04C84.4614 13.44 84.1214 12.92 83.6814 12.48C83.2414 12.0267 82.7214 11.68 82.1214 11.44C81.5214 11.2 80.8681 11.08 80.1614 11.08C79.4547 11.08 78.8014 11.2 78.2014 11.44C77.6147 11.68 77.0947 12.0267 76.6414 12.48C76.2014 12.92 75.8547 13.44 75.6014 14.04C75.3614 14.6267 75.2414 15.28 75.2414 16C75.2414 16.7067 75.3614 17.36 75.6014 17.96C75.8547 18.56 76.2014 19.0867 76.6414 19.54C77.0814 19.98 77.6014 20.32 78.2014 20.56C78.8014 20.8 79.4547 20.92 80.1614 20.92ZM92.0573 23V9H98.1773C99.6973 9 101.031 9.29333 102.177 9.88C103.324 10.4667 104.217 11.28 104.857 12.32C105.497 13.36 105.817 14.5867 105.817 16C105.817 17.4 105.497 18.6267 104.857 19.68C104.217 20.72 103.324 21.5333 102.177 22.12C101.031 22.7067 99.6973 23 98.1773 23H92.0573ZM94.6573 20.8H98.0573C99.1107 20.8 100.017 20.6 100.777 20.2C101.551 19.8 102.144 19.24 102.557 18.52C102.984 17.8 103.197 16.96 103.197 16C103.197 15.0267 102.984 14.1867 102.557 13.48C102.144 12.76 101.551 12.2 100.777 11.8C100.017 11.4 99.1107 11.2 98.0573 11.2H94.6573V20.8ZM108.005 23L114.305 9H116.865L123.185 23H120.465L115.045 10.38H116.085L110.685 23H108.005ZM110.905 19.76L111.605 17.72H119.165L119.865 19.76H110.905ZM128.703 23V11.2H124.063V9H135.943V11.2H131.303V23H128.703ZM136.811 23L143.111 9H145.671L151.991 23H149.271L143.851 10.38H144.891L139.491 23H136.811ZM139.711 19.76L140.411 17.72H147.971L148.671 19.76H139.711Z" fill="white"/>
</svg>
