<svg width="368" height="64" viewBox="0 0 368 64" fill="none" xmlns="http://www.w3.org/2000/svg">
<path d="M61.315 38.4841L38.484 61.315C34.9041 64.895 29.0957 64.895 25.5158 61.315L2.68494 38.4841C-0.89498 34.9041 -0.89498 29.0958 2.68494 25.5158L25.5158 2.68494C29.0957 -0.89498 34.9041 -0.89498 38.484 2.68494L61.315 25.5158C64.895 29.0958 64.895 34.9041 61.315 38.4841Z" fill="#DD4A4A"/>
<path d="M31.7878 18.3997L29.0439 21.1888L31.6606 23.8487L42.183 34.5453L42.2111 34.5739L49.7777 26.8823L49.7494 26.8535L47.1753 24.2368L39.227 16.1568L36.6105 13.4971L31.7878 18.3997ZM36.4691 18.9459L44.4175 27.0259L42.3526 29.125L34.4043 21.0451L36.4691 18.9459Z" fill="white"/>
<path d="M21.8115 34.3438L24.3856 31.7272L21.7691 29.0675L19.1952 26.4509L16.5786 23.791L8.53125 31.9717L8.55957 32.0003L15.5462 39.1027L16.3382 39.9078L31.7117 55.5358L34.4553 52.7467L19.0819 37.1187L21.8115 34.3438ZM19.1952 31.684L16.4797 34.4444L13.9056 31.8278L16.6211 29.0675L19.1952 31.684Z" fill="white"/>
<path d="M52.2227 29.3693L42.2094 39.5483L24.2479 21.3037L34.2611 11.1246L31.6589 8.46484L18.8877 21.4331L18.9301 21.4761L39.4658 42.3518L42.0822 45.0117L44.8259 42.208L54.8392 32.0291L52.2227 29.3693Z" fill="white"/>
<path d="M31.8065 39.8398L29.1963 42.4931L36.8668 50.2906L39.4769 47.6373L31.8065 39.8398Z" fill="white"/>
<path d="M26.6405 34.5908L24.0303 37.2443L26.8104 40.0705L29.4207 37.4171L26.6405 34.5908Z" fill="white"/>
<path d="M84.512 49V15.4H98.336C101.312 15.4 103.856 15.88 105.968 16.84C108.112 17.8 109.76 19.176 110.912 20.968C112.064 22.76 112.64 24.888 112.64 27.352C112.64 29.816 112.064 31.944 110.912 33.736C109.76 35.528 108.112 36.904 105.968 37.864C103.856 38.824 101.312 39.304 98.336 39.304H87.968L90.752 36.376V49H84.512ZM90.752 37.048L87.968 34.024H98.048C100.8 34.024 102.864 33.448 104.24 32.296C105.648 31.112 106.352 29.464 106.352 27.352C106.352 25.208 105.648 23.56 104.24 22.408C102.864 21.256 100.8 20.68 98.048 20.68H87.968L90.752 17.608V37.048ZM122.711 49V15.4H128.951V49H122.711ZM157.432 49.48C154.872 49.48 152.488 49.064 150.28 48.232C148.104 47.368 146.2 46.168 144.568 44.632C142.968 43.064 141.72 41.224 140.824 39.112C139.928 37 139.48 34.696 139.48 32.2C139.48 29.704 139.928 27.4 140.824 25.288C141.72 23.176 142.984 21.352 144.616 19.816C146.248 18.248 148.152 17.048 150.328 16.216C152.504 15.352 154.888 14.92 157.48 14.92C160.232 14.92 162.744 15.4 165.016 16.36C167.288 17.288 169.208 18.68 170.776 20.536L166.744 24.328C165.528 23.016 164.168 22.04 162.664 21.4C161.16 20.728 159.528 20.392 157.768 20.392C156.008 20.392 154.392 20.68 152.92 21.256C151.48 21.832 150.216 22.648 149.128 23.704C148.072 24.76 147.24 26.008 146.632 27.448C146.056 28.888 145.768 30.472 145.768 32.2C145.768 33.928 146.056 35.512 146.632 36.952C147.24 38.392 148.072 39.64 149.128 40.696C150.216 41.752 151.48 42.568 152.92 43.144C154.392 43.72 156.008 44.008 157.768 44.008C159.528 44.008 161.16 43.688 162.664 43.048C164.168 42.376 165.528 41.368 166.744 40.024L170.776 43.864C169.208 45.688 167.288 47.08 165.016 48.04C162.744 49 160.216 49.48 157.432 49.48ZM195.635 49.48C193.011 49.48 190.595 49.048 188.387 48.184C186.179 47.32 184.259 46.12 182.627 44.584C180.995 43.016 179.731 41.192 178.835 39.112C177.939 37 177.491 34.696 177.491 32.2C177.491 29.704 177.939 27.416 178.835 25.336C179.731 23.224 180.995 21.4 182.627 19.864C184.259 18.296 186.179 17.08 188.387 16.216C190.595 15.352 192.995 14.92 195.587 14.92C198.211 14.92 200.611 15.352 202.787 16.216C204.995 17.08 206.915 18.296 208.547 19.864C210.179 21.4 211.443 23.224 212.339 25.336C213.235 27.416 213.683 29.704 213.683 32.2C213.683 34.696 213.235 37 212.339 39.112C211.443 41.224 210.179 43.048 208.547 44.584C206.915 46.12 204.995 47.32 202.787 48.184C200.611 49.048 198.227 49.48 195.635 49.48ZM195.587 44.008C197.283 44.008 198.851 43.72 200.291 43.144C201.731 42.568 202.979 41.752 204.035 40.696C205.091 39.608 205.907 38.36 206.483 36.952C207.091 35.512 207.395 33.928 207.395 32.2C207.395 30.472 207.091 28.904 206.483 27.496C205.907 26.056 205.091 24.808 204.035 23.752C202.979 22.664 201.731 21.832 200.291 21.256C198.851 20.68 197.283 20.392 195.587 20.392C193.891 20.392 192.323 20.68 190.883 21.256C189.475 21.832 188.227 22.664 187.139 23.752C186.083 24.808 185.251 26.056 184.643 27.496C184.067 28.904 183.779 30.472 183.779 32.2C183.779 33.896 184.067 35.464 184.643 36.904C185.251 38.344 186.083 39.608 187.139 40.696C188.195 41.752 189.443 42.568 190.883 43.144C192.323 43.72 193.891 44.008 195.587 44.008ZM224.138 49V15.4H238.826C242.474 15.4 245.674 16.104 248.426 17.512C251.178 18.92 253.322 20.872 254.858 23.368C256.394 25.864 257.162 28.808 257.162 32.2C257.162 35.56 256.394 38.504 254.858 41.032C253.322 43.528 251.178 45.48 248.426 46.888C245.674 48.296 242.474 49 238.826 49H224.138ZM230.378 43.72H238.538C241.066 43.72 243.242 43.24 245.066 42.28C246.922 41.32 248.346 39.976 249.338 38.248C250.362 36.52 250.874 34.504 250.874 32.2C250.874 29.864 250.362 27.848 249.338 26.152C248.346 24.424 246.922 23.08 245.066 22.12C243.242 21.16 241.066 20.68 238.538 20.68H230.378V43.72ZM262.413 49L277.533 15.4H283.677L298.845 49H292.317L279.309 18.712H281.805L268.845 49H262.413ZM269.373 41.224L271.053 36.328H289.197L290.877 41.224H269.373ZM312.087 49V20.68H300.951V15.4H329.463V20.68H318.327V49H312.087ZM331.546 49L346.666 15.4H352.81L367.978 49H361.45L348.442 18.712H350.938L337.978 49H331.546ZM338.506 41.224L340.186 36.328H358.33L360.01 41.224H338.506Z" fill="white"/>
</svg>
