<?xml version="1.0" encoding="UTF-8" standalone="no"?>
<svg
   width="126.82702"
   height="24.953459"
   viewBox="0 0 126.82702 24.953459"
   fill="none"
   version="1.1"
   id="svg7"
   sodipodi:docname="logo.svg"
   xml:space="preserve"
   inkscape:version="1.4.2 (ebf0e940d0, 2025-05-08)"
   xmlns:inkscape="http://www.inkscape.org/namespaces/inkscape"
   xmlns:sodipodi="http://sodipodi.sourceforge.net/DTD/sodipodi-0.dtd"
   xmlns="http://www.w3.org/2000/svg"
   xmlns:svg="http://www.w3.org/2000/svg"><defs
     id="defs7"><style
       id="style1">
      .st0 {
        fill: #e23956;
      }

      .st1 {
        fill: #16222e;
      }
    </style></defs><sodipodi:namedview
     id="namedview7"
     pagecolor="#ffffff"
     bordercolor="#666666"
     borderopacity="1.0"
     inkscape:showpageshadow="2"
     inkscape:pageopacity="0.0"
     inkscape:pagecheckerboard="0"
     inkscape:deskcolor="#d1d1d1"
     inkscape:zoom="3.6518344"
     inkscape:cx="82.561247"
     inkscape:cy="10.542647"
     inkscape:window-width="1858"
     inkscape:window-height="1014"
     inkscape:window-x="0"
     inkscape:window-y="0"
     inkscape:window-maximized="1"
     inkscape:current-layer="svg7" /><g
     id="g8"
     transform="matrix(0.2440436,0,0,0.2440436,-4.8662294,-3.6508923)"><path
       class="st0"
       d="m 195.62,54.51 c 0,12.07 -8.94,19.52 -23.36,19.52 H 159.88 V 89.86 H 149.69 V 34.99 h 22.57 c 14.42,0 23.36,7.37 23.36,19.52 z m -10.27,0 c 0,-6.9 -4.62,-10.9 -13.56,-10.9 H 159.88 V 65.4 h 11.91 c 8.94,0 13.56,-4 13.56,-10.9 z"
       id="path1-3" /><path
       class="st0"
       d="m 201.65,35 h 10.19 v 54.87 h -10.19 z"
       id="path2-6" /><path
       class="st0"
       d="m 263.77,74.36 c -0.2,0.3 -0.46,0.43 -0.65,0.82 -3.96,4.31 -8.83,6.47 -14.61,6.47 -2.12,0 -4.12,-0.27 -5.99,-0.8 -1.44,-0.4 -2.81,-0.95 -4.1,-1.67 -2.97,-1.64 -5.3,-3.93 -6.97,-6.85 -1.67,-2.92 -2.5,-6.23 -2.5,-9.94 0,-3.71 0.83,-7.02 2.5,-9.94 1.67,-2.92 3.99,-5.2 6.97,-6.85 1.29,-0.71 2.66,-1.26 4.1,-1.67 1.87,-0.53 3.87,-0.8 5.99,-0.8 5.71,0 10.54,2.09 14.47,6.26 0.05,0.06 0.11,0.1 0.16,0.16 h 0.01 c 0.24,0.29 0.52,0.61 0.64,0.87 1.06,-3.13 2.52,-6.05 4.36,-8.68 -2.24,-2.18 -4.84,-3.92 -7.83,-5.18 -1.58,-0.67 -3.23,-1.18 -4.95,-1.57 -2.32,-0.52 -4.76,-0.78 -7.34,-0.78 -1.95,0 -3.84,0.16 -5.66,0.46 -0.55,0.09 -1.09,0.2 -1.63,0.32 -2.72,0.6 -5.29,1.55 -7.7,2.86 -4.46,2.43 -7.97,5.78 -10.53,10.06 -0.55,0.92 -1.03,1.87 -1.46,2.83 -1.58,3.55 -2.38,7.42 -2.38,11.65 0,4.23 0.77,8.01 2.3,11.52 0.44,1.01 0.93,2 1.5,2.96 2.53,4.28 6.03,7.63 10.49,10.06 2.9,1.58 6.02,2.63 9.37,3.18 1.81,0.3 3.68,0.46 5.62,0.46 4.49,0 8.6,-0.78 12.33,-2.35 2.99,-1.26 5.59,-2.99 7.83,-5.15 -1.83,-2.65 -3.29,-5.57 -4.35,-8.71 z"
       id="path3-7" /><path
       class="st0"
       d="m 270.23,62.43 c 0,-16.23 12.54,-28.22 29.55,-28.22 17.01,0 29.55,11.92 29.55,28.22 0,16.3 -12.54,28.22 -29.55,28.22 -17.01,0 -29.55,-11.99 -29.55,-28.22 z m 48.84,0 c 0,-11.21 -8.23,-19.28 -19.28,-19.28 -11.05,0 -19.28,8.07 -19.28,19.28 0,11.21 8.23,19.28 19.28,19.28 11.05,0 19.28,-8.07 19.28,-19.28 z"
       id="path4-5" /><path
       class="st1"
       d="m 335.99,35 h 23.99 c 17.79,0 29.94,10.97 29.94,27.43 0,16.46 -12.15,27.43 -29.94,27.43 H 335.99 V 34.99 Z m 23.52,46.24 c 12.23,0 20.15,-7.45 20.15,-18.81 0,-11.36 -7.92,-18.81 -20.15,-18.81 h -13.33 v 37.62 z"
       id="path5-3"
       style="fill-opacity:1" /><path
       class="st1"
       d="m 431.38,77.17 h -27.43 l -5.41,12.7 h -10.5 L 412.73,35 h 10.03 l 24.77,54.87 h -10.66 z m -3.37,-8 -10.35,-23.99 -10.27,23.99 z"
       id="path6-5"
       style="fill-opacity:1" /><path
       class="st1"
       d="M 458.73,43.62 H 440.54 V 35 h 46.56 v 8.62 H 468.91 V 89.87 H 458.72 V 43.62 Z"
       id="path7-6"
       style="fill-opacity:1" /><path
       class="st1"
       d="m 523.48,77.17 h -27.43 l -5.41,12.7 h -10.5 L 504.83,35 h 10.03 l 24.77,54.87 h -10.66 z m -3.37,-8 -10.35,-23.99 -10.27,23.99 z"
       id="path8"
       style="fill-opacity:1" /></g><g
     id="g12"
     transform="matrix(0.2440436,0,0,0.2440436,-4.8662294,-3.6508923)"><path
       class="st0"
       d="M 42.53,34.89 H 19.95 c 0,0 0,-15.68 0,-15.68 0,-2.35 1.9,-4.25 4.25,-4.25 h 41.97 l -12.9,15 c -2.69,3.13 -6.62,4.93 -10.75,4.93 z"
       id="path9" /><path
       class="st0"
       d="m 124.7,34.92 c 0,-11.02 -8.93,-19.95 -19.95,-19.95 H 86.31 c -4.13,0 -8.05,1.8 -10.75,4.93 L 60.45,37.47 C 57.76,40.6 53.83,42.4 49.7,42.4 H 19.94 v 19.95 h 22.58 c 4.13,0 8.05,-1.8 10.75,-4.93 L 68.38,39.85 C 71.07,36.72 75,34.92 79.13,34.92 Z"
       id="path10" /><path
       class="st0"
       d="m 86.31,69.83 c -4.13,0 -8.05,1.8 -10.75,4.93 L 60.45,92.33 c -2.69,3.13 -6.62,4.93 -10.75,4.93 H 19.94 v 15.7 c 0,2.35 1.9,4.25 4.25,4.25 h 18.33 c 4.13,0 8.05,-1.8 10.75,-4.93 L 68.38,94.71 C 71.07,91.58 75,89.78 79.13,89.78 h 25.62 c 11.02,0 19.95,-8.93 19.95,-19.95 z"
       id="path11" /><path
       class="st0"
       d="M 75.57,47.33 60.46,64.9 c -2.69,3.13 -6.62,4.93 -10.75,4.93 H 19.95 v 19.95 h 22.58 c 4.13,0 8.05,-1.8 10.75,-4.93 L 68.39,67.28 c 2.69,-3.13 6.62,-4.93 10.75,-4.93 h 45.57 c 0,0 0,-19.95 0,-19.95 H 86.32 c -4.13,0 -8.05,1.8 -10.75,4.93 z"
       id="path12" /></g></svg>
