<svg width="288" height="40" viewBox="0 0 288 40" fill="none" xmlns="http://www.w3.org/2000/svg">
<path d="M30.6575 23.2421L19.242 34.6575C17.4521 36.4475 14.5478 36.4475 12.7579 34.6575L1.34247 23.2421C-0.44749 21.4521 -0.44749 18.5479 1.34247 16.7579L12.7579 5.34247C14.5478 3.55251 17.4521 3.55251 19.242 5.34247L30.6575 16.7579C32.4475 18.5479 32.4475 21.4521 30.6575 23.2421Z" fill="#DD4A4A"/>
<path d="M15.8934 13.1994L14.5215 14.5939L15.8298 15.9238L21.091 21.2722L21.1051 21.2865L24.8884 17.4406L24.8742 17.4262L23.5872 16.1179L19.613 12.0779L18.3048 10.748L15.8934 13.1994ZM18.234 13.4725L22.2083 17.5125L21.1758 18.562L17.2016 14.5221L18.234 13.4725Z" fill="white"/>
<path d="M10.9058 21.1709L12.1928 19.8626L10.8846 18.5328L9.5976 17.2244L8.28928 15.8945L4.26562 19.9848L4.27979 19.9992L7.77311 23.5504L8.16912 23.9529L15.8558 31.7669L17.2277 30.3724L9.54096 22.5584L10.9058 21.1709ZM9.5976 19.841L8.23984 21.2212L6.95279 19.9129L8.31056 18.5328L9.5976 19.841Z" fill="white"/>
<path d="M26.1109 18.6846L21.1042 23.7741L12.1234 14.6518L17.1301 9.56231L15.829 8.23242L9.44336 14.7166L9.46456 14.7381L19.7324 25.1759L21.0406 26.5058L22.4125 25.104L27.4191 20.0146L26.1109 18.6846Z" fill="white"/>
<path d="M15.9028 23.9199L14.5977 25.2466L18.4329 29.1453L19.738 27.8186L15.9028 23.9199Z" fill="white"/>
<path d="M13.3207 21.2949L12.0156 22.6216L13.4057 24.0348L14.7108 22.708L13.3207 21.2949Z" fill="white"/>
<path d="M42.256 29V12.2H49.168C50.656 12.2 51.928 12.44 52.984 12.92C54.056 13.4 54.88 14.088 55.456 14.984C56.032 15.88 56.32 16.944 56.32 18.176C56.32 19.408 56.032 20.472 55.456 21.368C54.88 22.264 54.056 22.952 52.984 23.432C51.928 23.912 50.656 24.152 49.168 24.152H43.984L45.376 22.688V29H42.256ZM45.376 23.024L43.984 21.512H49.024C50.4 21.512 51.432 21.224 52.12 20.648C52.824 20.056 53.176 19.232 53.176 18.176C53.176 17.104 52.824 16.28 52.12 15.704C51.432 15.128 50.4 14.84 49.024 14.84H43.984L45.376 13.304V23.024ZM61.3557 29V12.2H64.4757V29H61.3557ZM78.7158 29.24C77.4358 29.24 76.2438 29.032 75.1398 28.616C74.0518 28.184 73.0998 27.584 72.2838 26.816C71.4838 26.032 70.8598 25.112 70.4118 24.056C69.9638 23 69.7398 21.848 69.7398 20.6C69.7398 19.352 69.9638 18.2 70.4118 17.144C70.8598 16.088 71.4918 15.176 72.3078 14.408C73.1238 13.624 74.0758 13.024 75.1638 12.608C76.2518 12.176 77.4438 11.96 78.7398 11.96C80.1158 11.96 81.3718 12.2 82.5078 12.68C83.6438 13.144 84.6038 13.84 85.3878 14.768L83.3718 16.664C82.7638 16.008 82.0838 15.52 81.3318 15.2C80.5798 14.864 79.7638 14.696 78.8838 14.696C78.0038 14.696 77.1958 14.84 76.4598 15.128C75.7398 15.416 75.1078 15.824 74.5638 16.352C74.0358 16.88 73.6198 17.504 73.3158 18.224C73.0278 18.944 72.8838 19.736 72.8838 20.6C72.8838 21.464 73.0278 22.256 73.3158 22.976C73.6198 23.696 74.0358 24.32 74.5638 24.848C75.1078 25.376 75.7398 25.784 76.4598 26.072C77.1958 26.36 78.0038 26.504 78.8838 26.504C79.7638 26.504 80.5798 26.344 81.3318 26.024C82.0838 25.688 82.7638 25.184 83.3718 24.512L85.3878 26.432C84.6038 27.344 83.6438 28.04 82.5078 28.52C81.3718 29 80.1078 29.24 78.7158 29.24ZM97.8177 29.24C96.5057 29.24 95.2977 29.024 94.1937 28.592C93.0897 28.16 92.1297 27.56 91.3137 26.792C90.4977 26.008 89.8657 25.096 89.4177 24.056C88.9697 23 88.7457 21.848 88.7457 20.6C88.7457 19.352 88.9697 18.208 89.4177 17.168C89.8657 16.112 90.4977 15.2 91.3137 14.432C92.1297 13.648 93.0897 13.04 94.1937 12.608C95.2977 12.176 96.4977 11.96 97.7937 11.96C99.1057 11.96 100.306 12.176 101.394 12.608C102.498 13.04 103.458 13.648 104.274 14.432C105.09 15.2 105.722 16.112 106.17 17.168C106.618 18.208 106.842 19.352 106.842 20.6C106.842 21.848 106.618 23 106.17 24.056C105.722 25.112 105.09 26.024 104.274 26.792C103.458 27.56 102.498 28.16 101.394 28.592C100.306 29.024 99.1137 29.24 97.8177 29.24ZM97.7937 26.504C98.6417 26.504 99.4257 26.36 100.146 26.072C100.866 25.784 101.49 25.376 102.018 24.848C102.546 24.304 102.954 23.68 103.242 22.976C103.546 22.256 103.698 21.464 103.698 20.6C103.698 19.736 103.546 18.952 103.242 18.248C102.954 17.528 102.546 16.904 102.018 16.376C101.49 15.832 100.866 15.416 100.146 15.128C99.4257 14.84 98.6417 14.696 97.7937 14.696C96.9457 14.696 96.1617 14.84 95.4417 15.128C94.7377 15.416 94.1137 15.832 93.5697 16.376C93.0417 16.904 92.6257 17.528 92.3217 18.248C92.0337 18.952 91.8897 19.736 91.8897 20.6C91.8897 21.448 92.0337 22.232 92.3217 22.952C92.6257 23.672 93.0417 24.304 93.5697 24.848C94.0977 25.376 94.7217 25.784 95.4417 26.072C96.1617 26.36 96.9457 26.504 97.7937 26.504ZM112.069 29V12.2H119.413C121.237 12.2 122.837 12.552 124.213 13.256C125.589 13.96 126.661 14.936 127.429 16.184C128.197 17.432 128.581 18.904 128.581 20.6C128.581 22.28 128.197 23.752 127.429 25.016C126.661 26.264 125.589 27.24 124.213 27.944C122.837 28.648 121.237 29 119.413 29H112.069ZM115.189 26.36H119.269C120.533 26.36 121.621 26.12 122.533 25.64C123.461 25.16 124.173 24.488 124.669 23.624C125.181 22.76 125.437 21.752 125.437 20.6C125.437 19.432 125.181 18.424 124.669 17.576C124.173 16.712 123.461 16.04 122.533 15.56C121.621 15.08 120.533 14.84 119.269 14.84H115.189V26.36ZM131.207 29L138.767 12.2H141.839L149.423 29H146.159L139.655 13.856H140.903L134.423 29H131.207ZM134.687 25.112L135.527 22.664H144.599L145.439 25.112H134.687ZM156.043 29V14.84H150.475V12.2H164.731V14.84H159.163V29H156.043ZM165.773 29L173.333 12.2H176.405L183.989 29H180.725L174.221 13.856H175.469L168.989 29H165.773ZM169.253 25.112L170.093 22.664H179.165L180.005 25.112H169.253Z" fill="white"/>
</svg>
