<?xml version="1.0" encoding="UTF-8" standalone="no"?>
<svg
   width="219"
   height="301"
   version="1.1"
   id="svg16"
   sodipodi:docname="ACL.svg"
   inkscape:version="1.3 (0e150ed6c4, 2023-07-21)"
   xmlns:inkscape="http://www.inkscape.org/namespaces/inkscape"
   xmlns:sodipodi="http://sodipodi.sourceforge.net/DTD/sodipodi-0.dtd"
   xmlns:xlink="http://www.w3.org/1999/xlink"
   xmlns="http://www.w3.org/2000/svg"
   xmlns:svg="http://www.w3.org/2000/svg">
  <sodipodi:namedview
     id="namedview16"
     pagecolor="#ffffff"
     bordercolor="#666666"
     borderopacity="1.0"
     inkscape:showpageshadow="2"
     inkscape:pageopacity="0.0"
     inkscape:pagecheckerboard="0"
     inkscape:deskcolor="#d1d1d1"
     inkscape:zoom="2.6810631"
     inkscape:cx="109.4715"
     inkscape:cy="150.5"
     inkscape:window-width="1854"
     inkscape:window-height="1011"
     inkscape:window-x="66"
     inkscape:window-y="32"
     inkscape:window-maximized="1"
     inkscape:current-layer="svg16" />
  <defs
     id="defs1">
    <style
       type="text/css"
       id="style1">@namespace &quot;http://www.w3.org/2000/svg&quot;;.line { fill: none; stroke: #330000; stroke-width: 1; }&#10;.bold-line { stroke: #140000; shape-rendering: crispEdges; stroke-width: 2; }&#10;.thin-line { stroke: #1F0000; shape-rendering: crispEdges }&#10;.filled { fill: #330000; stroke: none; }&#10;text.terminal { font-family: HelveticaNeueCyr, Sans-serif;                            font-size: 14px;                            fill: #140000;                            font-weight: bold; }&#10;text.nonterminal { font-family: HelveticaNeueCyr, Sans-serif;                            font-size: 14px;                            fill: #1A0000;                            font-weight: normal; }&#10;text.regexp { font-family: HelveticaNeueCyr, Sans-serif;                            font-size: 14px;                            fill: #1F0000;                            font-weight: normal; }&#10;rect, circle, polygon { fill: #330000; stroke: #330000; }&#10;rect.terminal { fill: #FF4D4D; stroke: #330000; stroke-width: 1; }&#10;rect.nonterminal { fill: #FF9E9E; stroke: #330000; stroke-width: 1; }&#10;rect.text { fill: none; stroke: none; }&#10;polygon.regexp { fill: #FFC7C7; stroke: #330000; stroke-width: 1; }&#10;</style>
  </defs>
  <path
     id="polygon1"
     style="fill:#330000;stroke:#330000"
     d="M 9,17 1,13 v 8 z" />
  <path
     id="polygon2"
     style="fill:#330000;stroke:#330000"
     d="M 17,17 9,13 v 8 z" />
  <a
     xlink:href="#DropRole"
     xlink:title="DropRole"
     id="a3">
    <path
       id="rect2"
       style="fill:#330000;stroke:#330000"
       d="m 51,3 h 78 V 35 H 51 Z" />
    <path
       id="rect3"
       class="nonterminal"
       style="fill:#ff9e9e;stroke:#330000"
       d="m 49,1 h 78 V 33 H 49 Z" />
    <path
       d="m 60.106,11.032 h 3.248 q 2.534,0 3.738,1.176 1.204,1.176 1.204,3.724 0,2.506 -1.12,3.794 Q 66.056,21 63.592,21 h -3.486 z m 1.316,1.134 v 7.7 h 2.002 q 1.876,0 2.716,-0.91 0.854,-0.924 0.854,-2.87 0,-2.044 -0.826,-2.982 -0.826,-0.938 -2.8,-0.938 z m 12.096007,1.442 v 1.232 q -0.126,-0.014 -0.308,-0.014 -0.574,0 -0.994,0.182 -0.42,0.168 -0.672,0.448 -0.238,0.28 -0.392,0.7 -0.154,0.42 -0.21,0.84 -0.042,0.42 -0.042,0.952 V 21 h -1.19 v -7.224 h 1.134 v 1.554 q 0.714,-1.722 2.674,-1.722 z m 1.218007,0.994 q 0.952,-1.036 2.59,-1.036 1.638,0 2.548,0.994 0.91,0.994 0.91,2.786 0,1.834 -0.91,2.856 -0.91,1.022 -2.562,1.022 -1.652,0 -2.59,-1.008 -0.938,-1.008 -0.938,-2.8 0,-1.778 0.952,-2.814 z m 4.214,0.728 q -0.602,-0.77 -1.652,-0.77 -1.05,0 -1.666,0.77 -0.616,0.77 -0.616,2.058 0,1.33 0.602,2.086 0.616,0.742 1.708,0.742 1.05,0 1.638,-0.756 0.602,-0.756 0.602,-2.086 0,-1.288 -0.616,-2.044 z m 4.367992,-1.554 v 1.022 q 0.784,-1.246 2.436,-1.246 1.512,0 2.394,1.022 0.896,1.022 0.896,2.772 0,1.75 -0.882,2.8 -0.868,1.036 -2.352,1.036 -1.554,0 -2.422,-1.19 v 3.794 h -1.19 v -10.01 z m 2.254,0.77 q -1.036,0 -1.638,0.756 -0.588,0.742 -0.588,2.058 0,1.316 0.602,2.072 0.616,0.742 1.666,0.742 1.022,0 1.61,-0.756 0.588,-0.756 0.588,-2.058 0,-1.316 -0.602,-2.058 -0.588,-0.756 -1.638,-0.756 z m 5.138006,-3.514 h 4.382 q 3.346,0 3.346,2.758 0,0.868 -0.476,1.54 -0.462,0.658 -1.232,0.882 0.504,0.112 0.812,0.322 0.308,0.21 0.448,0.588 0.14,0.378 0.182,0.672 0.042,0.294 0.07,0.868 0,0.056 0.014,0.28 0.014,0.21 0.014,0.294 0,0.07 0.014,0.266 0.028,0.196 0.042,0.294 0.014,0.098 0.042,0.266 0.028,0.168 0.07,0.28 0.042,0.098 0.098,0.238 0.056,0.126 0.126,0.238 0.07,0.098 0.154,0.182 h -1.512 q -0.098,-0.14 -0.168,-0.35 -0.056,-0.21 -0.084,-0.49 -0.028,-0.294 -0.042,-0.462 -0.014,-0.182 -0.028,-0.518 -0.014,-0.336 -0.014,-0.378 -0.07,-1.274 -0.532,-1.694 -0.448,-0.42 -1.792,-0.42 h -2.618 V 21 h -1.316 z m 1.316,1.12 v 3.486 h 2.478 q 0.462,0 0.77,-0.028 0.322,-0.028 0.7,-0.126 0.378,-0.098 0.602,-0.28 0.238,-0.182 0.392,-0.518 0.154,-0.336 0.154,-0.812 0,-1.008 -0.616,-1.358 -0.602,-0.364 -1.652,-0.364 z m 8.637988,2.45 q 0.952,-1.036 2.59,-1.036 1.638,0 2.548,0.994 0.91,0.994 0.91,2.786 0,1.834 -0.91,2.856 -0.91,1.022 -2.562,1.022 -1.652,0 -2.59,-1.008 -0.937996,-1.008 -0.937996,-2.8 0,-1.778 0.951996,-2.814 z m 4.214,0.728 q -0.602,-0.77 -1.652,-0.77 -1.05,0 -1.666,0.77 -0.616,0.77 -0.616,2.058 0,1.33 0.602,2.086 0.616,0.742 1.708,0.742 1.05,0 1.638,-0.756 0.602,-0.756 0.602,-2.086 0,-1.288 -0.616,-2.044 z m 4.508,-4.298 V 21 h -1.204 v -9.968 z m 8.022,7.686 q -0.546,2.52 -3.15,2.52 -1.596,0 -2.506,-0.994 -0.896,-0.994 -0.896,-2.758 0,-1.75 0.924,-2.828 0.938,-1.092 2.436,-1.092 1.666,0 2.464,1.134 0.812,1.12 0.812,2.842 v 0.168 h -5.432 l -0.014,0.084 q 0,1.148 0.602,1.806 0.602,0.658 1.652,0.658 0.784,0 1.232,-0.364 0.462,-0.364 0.714,-1.176 z m -1.148,-1.974 q -0.084,-1.036 -0.63,-1.61 -0.546,-0.588 -1.442,-0.588 -0.868,0 -1.442,0.588 -0.574,0.588 -0.686,1.61 z"
       id="text3"
       class="nonterminal"
       style="font-size:14px;font-family:HelveticaNeueCyr, Sans-serif;fill:#1a0000"
       aria-label="DropRole" />
  </a>
  <a
     xlink:href="#DropUser"
     xlink:title="DropUser"
     id="a5">
    <path
       id="rect4"
       style="fill:#330000;stroke:#330000"
       d="m 51,47 h 78 V 79 H 51 Z" />
    <path
       id="rect5"
       class="nonterminal"
       style="fill:#ff9e9e;stroke:#330000"
       d="m 49,45 h 78 V 77 H 49 Z" />
    <path
       d="m 60.106,55.032 h 3.248 q 2.534,0 3.738,1.176 1.204,1.176 1.204,3.724 0,2.506 -1.12,3.794 Q 66.056,65 63.592,65 h -3.486 z m 1.316,1.134 v 7.7 h 2.002 q 1.876,0 2.716,-0.91 0.854,-0.924 0.854,-2.87 0,-2.044 -0.826,-2.982 -0.826,-0.938 -2.8,-0.938 z m 12.096007,1.442 v 1.232 q -0.126,-0.014 -0.308,-0.014 -0.574,0 -0.994,0.182 -0.42,0.168 -0.672,0.448 -0.238,0.28 -0.392,0.7 -0.154,0.42 -0.21,0.84 -0.042,0.42 -0.042,0.952 V 65 h -1.19 v -7.224 h 1.134 v 1.554 q 0.714,-1.722 2.674,-1.722 z m 1.218007,0.994 q 0.952,-1.036 2.59,-1.036 1.638,0 2.548,0.994 0.91,0.994 0.91,2.786 0,1.834 -0.91,2.856 -0.91,1.022 -2.562,1.022 -1.652,0 -2.59,-1.008 -0.938,-1.008 -0.938,-2.8 0,-1.778 0.952,-2.814 z m 4.214,0.728 q -0.602,-0.77 -1.652,-0.77 -1.05,0 -1.666,0.77 -0.616,0.77 -0.616,2.058 0,1.33 0.602,2.086 0.616,0.742 1.708,0.742 1.05,0 1.638,-0.756 0.602,-0.756 0.602,-2.086 0,-1.288 -0.616,-2.044 z m 4.367992,-1.554 v 1.022 q 0.784,-1.246 2.436,-1.246 1.512,0 2.394,1.022 0.896,1.022 0.896,2.772 0,1.75 -0.882,2.8 -0.868,1.036 -2.352,1.036 -1.554,0 -2.422,-1.19 v 3.794 h -1.19 v -10.01 z m 2.254,0.77 q -1.036,0 -1.638,0.756 -0.588,0.742 -0.588,2.058 0,1.316 0.602,2.072 0.616,0.742 1.666,0.742 1.022,0 1.61,-0.756 0.588,-0.756 0.588,-2.058 0,-1.316 -0.602,-2.058 -0.588,-0.756 -1.638,-0.756 z m 5.068006,-3.514 h 1.33 v 6.286 q 0,1.456 0.63,2.128 0.63,0.672 2.058,0.672 1.47,0 2.072,-0.686 0.616,-0.686 0.616,-2.114 v -6.286 h 1.33 v 5.936 q 0,2.184 -0.91,3.22 -0.91,1.022 -3.108,1.022 -2.128,0 -3.08,-0.994 -0.938,-1.008 -0.938,-3.108 z m 15.329998,4.844 h -1.19 q -0.112,-1.316 -1.764,-1.316 -0.686,0 -1.078,0.266 -0.392,0.266 -0.392,0.714 0,0.126 0.028,0.252 0.028,0.112 0.098,0.21 0.084,0.084 0.14,0.154 0.07,0.07 0.21,0.14 0.154,0.056 0.224,0.098 0.084,0.042 0.28,0.098 0.21,0.042 0.294,0.07 0.084,0.014 0.322,0.07 0.252,0.056 0.322,0.07 0.518,0.112 0.77,0.182 0.266,0.07 0.714,0.266 0.462,0.182 0.7,0.392 0.238,0.196 0.42,0.56 0.196,0.35 0.196,0.798 0,1.05 -0.826,1.694 -0.812,0.63 -2.17,0.63 -1.47,0 -2.268,-0.644 -0.784,-0.644 -0.84,-1.862 h 1.176 q 0.098,1.526 1.96,1.526 0.798,0 1.274,-0.322 0.49,-0.336 0.49,-0.882 0,-0.364 -0.252,-0.602 -0.252,-0.238 -0.56,-0.336 -0.308,-0.112 -0.882,-0.252 -0.084,-0.014 -0.126,-0.028 -0.126,-0.028 -0.546,-0.112 -0.406,-0.098 -0.588,-0.154 -0.182,-0.056 -0.532,-0.168 -0.336,-0.126 -0.504,-0.252 -0.168,-0.14 -0.378,-0.336 -0.196,-0.21 -0.28,-0.476 -0.084,-0.28 -0.084,-0.63 0,-0.98 0.742,-1.554 0.756,-0.574 2.016,-0.574 1.274,0 2.072,0.602 0.812,0.602 0.812,1.708 z m 7.812,2.842 q -0.546,2.52 -3.15,2.52 -1.596,0 -2.506,-0.994 -0.896,-0.994 -0.896,-2.758 0,-1.75 0.924,-2.828 0.938,-1.092 2.436,-1.092 1.666,0 2.464,1.134 0.812,1.12 0.812,2.842 v 0.168 h -5.432 l -0.014,0.084 q 0,1.148 0.602,1.806 0.602,0.658 1.652,0.658 0.784,0 1.232,-0.364 0.462,-0.364 0.714,-1.176 z m -1.148,-1.974 q -0.084,-1.036 -0.63,-1.61 -0.546,-0.588 -1.442,-0.588 -0.868,0 -1.442,0.588 -0.574,0.588 -0.686,1.61 z m 6.25801,-3.136 v 1.232 q -0.126,-0.014 -0.308,-0.014 -0.574,0 -0.994,0.182 -0.42,0.168 -0.672,0.448 -0.238,0.28 -0.392,0.7 -0.154,0.42 -0.21,0.84 -0.042,0.42 -0.042,0.952 V 65 h -1.19 v -7.224 h 1.134 v 1.554 q 0.714,-1.722 2.674,-1.722 z"
       id="text5"
       class="nonterminal"
       style="font-size:14px;font-family:HelveticaNeueCyr, Sans-serif;fill:#1a0000"
       aria-label="DropUser" />
  </a>
  <a
     xlink:href="#CreateRole"
     xlink:title="CreateRole"
     id="a7">
    <path
       id="rect6"
       style="fill:#330000;stroke:#330000"
       d="m 51,91 h 90 v 32 H 51 Z" />
    <path
       id="rect7"
       class="nonterminal"
       style="fill:#ff9e9e;stroke:#330000"
       d="m 49,89 h 90 v 32 H 49 Z" />
    <path
       d="m 68.548,105.234 q -0.168,1.89 -1.316,2.954 -1.134,1.05 -2.996,1.05 -2.128,0 -3.374,-1.4 -1.246,-1.414 -1.246,-3.808 0,-2.24 1.246,-3.724 1.26,-1.498 3.472,-1.498 1.582,0 2.786,0.854 1.204,0.854 1.344,2.366 h -1.316 q -0.224,-0.98 -0.98,-1.526 -0.756,-0.56 -1.862,-0.56 -1.666,0 -2.52,1.176 -0.84,1.176 -0.84,2.898 0,1.904 0.896,2.996 0.896,1.092 2.45,1.092 1.274,0 2.03,-0.728 0.756,-0.742 0.91,-2.142 z m 5.222002,-3.626 v 1.232 q -0.126,-0.014 -0.308,-0.014 -0.574,0 -0.994,0.182 -0.42,0.168 -0.672,0.448 -0.238,0.28 -0.392,0.7 -0.154,0.42 -0.21,0.84 -0.042,0.42 -0.042,0.952 V 109 h -1.19 v -7.224 h 1.134 v 1.554 q 0.714,-1.722 2.674,-1.722 z m 6.818007,5.11 q -0.546,2.52 -3.15,2.52 -1.596,0 -2.506,-0.994 -0.896,-0.994 -0.896,-2.758 0,-1.75 0.924,-2.828 0.938,-1.092 2.436,-1.092 1.666,0 2.464,1.134 0.812,1.12 0.812,2.842 v 0.168 h -5.432 l -0.014,0.084 q 0,1.148 0.602,1.806 0.602,0.658 1.652,0.658 0.784,0 1.232,-0.364 0.462,-0.364 0.714,-1.176 z m -1.148,-1.974 q -0.084,-1.036 -0.63,-1.61 -0.546,-0.588 -1.442,-0.588 -0.868,0 -1.442,0.588 -0.574,0.588 -0.686,1.61 z m 8.890009,3.304 v 0.924 q -0.364,0.14 -0.812,0.14 -1.022,0 -1.05,-1.064 -1.022,1.148 -2.618,1.148 -1.064,0 -1.694,-0.546 -0.616,-0.546 -0.616,-1.498 0,-1.932 2.562,-2.254 1.512,-0.182 1.75,-0.266 0.504,-0.168 0.546,-0.7 0.014,-0.084 0.014,-0.182 0,-1.19 -1.638,-1.19 -0.84,0 -1.274,0.35 -0.434,0.336 -0.518,1.12 h -1.162 q 0.028,-1.162 0.826,-1.806 0.798,-0.644 2.198,-0.644 1.526,0 2.268,0.7 0.238,0.224 0.35,0.588 0.112,0.364 0.126,0.602 0.014,0.224 0.014,0.686 0,0.546 -0.028,1.624 -0.028,1.064 -0.028,1.596 0,0.392 0.098,0.56 0.112,0.154 0.392,0.154 0.112,0 0.294,-0.042 z m -1.918,-2.8 q -0.126,0.098 -0.266,0.168 -0.14,0.07 -0.364,0.112 -0.21,0.042 -0.294,0.07 -0.07,0.014 -0.364,0.056 -0.294,0.028 -0.308,0.028 -0.434,0.056 -0.574,0.084 -0.126,0.014 -0.504,0.112 -0.364,0.098 -0.518,0.224 -0.154,0.126 -0.308,0.378 -0.14,0.238 -0.14,0.574 0,0.56 0.378,0.882 0.392,0.322 1.064,0.322 0.854,0 1.526,-0.504 0.672,-0.504 0.672,-1.19 z m 6.13201,-3.472 v 0.98 h -1.442 v 4.214 q 0,0.35 0,0.462 0.014,0.112 0.084,0.308 0.07,0.182 0.238,0.238 0.168,0.056 0.476,0.056 0.266,0 0.644,-0.042 v 1.022 q -0.504,0.056 -0.91,0.056 -0.504,0 -0.84,-0.112 -0.336,-0.112 -0.518,-0.252 -0.168,-0.14 -0.252,-0.49 -0.084,-0.364 -0.098,-0.602 -0.014,-0.252 -0.014,-0.826 0,-0.126 0,-0.196 v -3.836 h -1.218 v -0.98 h 1.218 v -2.142 h 1.19 v 2.142 z m 7.490012,4.942 q -0.546005,2.52 -3.150005,2.52 -1.596,0 -2.506,-0.994 -0.896,-0.994 -0.896,-2.758 0,-1.75 0.924,-2.828 0.938,-1.092 2.436,-1.092 1.666,0 2.464,1.134 0.812005,1.12 0.812005,2.842 v 0.168 h -5.432005 l -0.014,0.084 q 0,1.148 0.602,1.806 0.602,0.658 1.652,0.658 0.784,0 1.232,-0.364 0.462,-0.364 0.714,-1.176 z m -1.148005,-1.974 q -0.084,-1.036 -0.63,-1.61 -0.546,-0.588 -1.442,-0.588 -0.868,0 -1.442,0.588 -0.574,0.588 -0.686,1.61 z m 2.702005,-5.712 h 4.382 q 3.346,0 3.346,2.758 0,0.868 -0.476,1.54 -0.462,0.658 -1.232,0.882 0.504,0.112 0.812,0.322 0.308,0.21 0.448,0.588 0.14,0.378 0.182,0.672 0.042,0.294 0.07,0.868 0,0.056 0.014,0.28 0.014,0.21 0.014,0.294 0,0.07 0.014,0.266 0.028,0.196 0.042,0.294 0.014,0.098 0.042,0.266 0.028,0.168 0.07,0.28 0.042,0.098 0.098,0.238 0.056,0.126 0.126,0.238 0.07,0.098 0.154,0.182 h -1.512 q -0.098,-0.14 -0.168,-0.35 -0.056,-0.21 -0.084,-0.49 -0.028,-0.294 -0.042,-0.462 -0.014,-0.182 -0.028,-0.518 -0.014,-0.336 -0.014,-0.378 -0.07,-1.274 -0.532,-1.694 -0.448,-0.42 -1.792,-0.42 h -2.618 V 109 h -1.316 z m 1.316,1.12 v 3.486 h 2.478 q 0.462,0 0.77,-0.028 0.322,-0.028 0.7,-0.126 0.378,-0.098 0.602,-0.28 0.238,-0.182 0.392,-0.518 0.154,-0.336 0.154,-0.812 0,-1.008 -0.616,-1.358 -0.602,-0.364 -1.652,-0.364 z m 8.638,2.45 q 0.952,-1.036 2.59,-1.036 1.638,0 2.548,0.994 0.91,0.994 0.91,2.786 0,1.834 -0.91,2.856 -0.91,1.022 -2.562,1.022 -1.652,0 -2.59,-1.008 -0.938,-1.008 -0.938,-2.8 0,-1.778 0.952,-2.814 z m 4.214,0.728 q -0.602,-0.77 -1.652,-0.77 -1.05,0 -1.666,0.77 -0.616,0.77 -0.616,2.058 0,1.33 0.602,2.086 0.616,0.742 1.708,0.742 1.05,0 1.638,-0.756 0.602,-0.756 0.602,-2.086 0,-1.288 -0.616,-2.044 z m 4.50799,-4.298 V 109 h -1.204 v -9.968 z m 8.022,7.686 q -0.546,2.52 -3.15,2.52 -1.596,0 -2.506,-0.994 -0.896,-0.994 -0.896,-2.758 0,-1.75 0.924,-2.828 0.938,-1.092 2.436,-1.092 1.666,0 2.464,1.134 0.812,1.12 0.812,2.842 v 0.168 h -5.432 l -0.014,0.084 q 0,1.148 0.602,1.806 0.602,0.658 1.652,0.658 0.784,0 1.232,-0.364 0.462,-0.364 0.714,-1.176 z m -1.148,-1.974 q -0.084,-1.036 -0.63,-1.61 -0.546,-0.588 -1.442,-0.588 -0.868,0 -1.442,0.588 -0.574,0.588 -0.686,1.61 z"
       id="text7"
       class="nonterminal"
       style="font-size:14px;font-family:HelveticaNeueCyr, Sans-serif;fill:#1a0000"
       aria-label="CreateRole" />
  </a>
  <a
     xlink:href="#CreateUser"
     xlink:title="CreateUser"
     id="a9">
    <path
       id="rect8"
       style="fill:#330000;stroke:#330000"
       d="m 51,135 h 92 v 32 H 51 Z" />
    <path
       id="rect9"
       class="nonterminal"
       style="fill:#ff9e9e;stroke:#330000"
       d="m 49,133 h 92 v 32 H 49 Z" />
    <path
       d="m 68.548,149.234 q -0.168,1.89 -1.316,2.954 -1.134,1.05 -2.996,1.05 -2.128,0 -3.374,-1.4 -1.246,-1.414 -1.246,-3.808 0,-2.24 1.246,-3.724 1.26,-1.498 3.472,-1.498 1.582,0 2.786,0.854 1.204,0.854 1.344,2.366 h -1.316 q -0.224,-0.98 -0.98,-1.526 -0.756,-0.56 -1.862,-0.56 -1.666,0 -2.52,1.176 -0.84,1.176 -0.84,2.898 0,1.904 0.896,2.996 0.896,1.092 2.45,1.092 1.274,0 2.03,-0.728 0.756,-0.742 0.91,-2.142 z m 5.222002,-3.626 v 1.232 q -0.126,-0.014 -0.308,-0.014 -0.574,0 -0.994,0.182 -0.42,0.168 -0.672,0.448 -0.238,0.28 -0.392,0.7 -0.154,0.42 -0.21,0.84 -0.042,0.42 -0.042,0.952 V 153 h -1.19 v -7.224 h 1.134 v 1.554 q 0.714,-1.722 2.674,-1.722 z m 6.818007,5.11 q -0.546,2.52 -3.15,2.52 -1.596,0 -2.506,-0.994 -0.896,-0.994 -0.896,-2.758 0,-1.75 0.924,-2.828 0.938,-1.092 2.436,-1.092 1.666,0 2.464,1.134 0.812,1.12 0.812,2.842 v 0.168 h -5.432 l -0.014,0.084 q 0,1.148 0.602,1.806 0.602,0.658 1.652,0.658 0.784,0 1.232,-0.364 0.462,-0.364 0.714,-1.176 z m -1.148,-1.974 q -0.084,-1.036 -0.63,-1.61 -0.546,-0.588 -1.442,-0.588 -0.868,0 -1.442,0.588 -0.574,0.588 -0.686,1.61 z m 8.890009,3.304 v 0.924 q -0.364,0.14 -0.812,0.14 -1.022,0 -1.05,-1.064 -1.022,1.148 -2.618,1.148 -1.064,0 -1.694,-0.546 -0.616,-0.546 -0.616,-1.498 0,-1.932 2.562,-2.254 1.512,-0.182 1.75,-0.266 0.504,-0.168 0.546,-0.7 0.014,-0.084 0.014,-0.182 0,-1.19 -1.638,-1.19 -0.84,0 -1.274,0.35 -0.434,0.336 -0.518,1.12 h -1.162 q 0.028,-1.162 0.826,-1.806 0.798,-0.644 2.198,-0.644 1.526,0 2.268,0.7 0.238,0.224 0.35,0.588 0.112,0.364 0.126,0.602 0.014,0.224 0.014,0.686 0,0.546 -0.028,1.624 -0.028,1.064 -0.028,1.596 0,0.392 0.098,0.56 0.112,0.154 0.392,0.154 0.112,0 0.294,-0.042 z m -1.918,-2.8 q -0.126,0.098 -0.266,0.168 -0.14,0.07 -0.364,0.112 -0.21,0.042 -0.294,0.07 -0.07,0.014 -0.364,0.056 -0.294,0.028 -0.308,0.028 -0.434,0.056 -0.574,0.084 -0.126,0.014 -0.504,0.112 -0.364,0.098 -0.518,0.224 -0.154,0.126 -0.308,0.378 -0.14,0.238 -0.14,0.574 0,0.56 0.378,0.882 0.392,0.322 1.064,0.322 0.854,0 1.526,-0.504 0.672,-0.504 0.672,-1.19 z m 6.13201,-3.472 v 0.98 h -1.442 v 4.214 q 0,0.35 0,0.462 0.014,0.112 0.084,0.308 0.07,0.182 0.238,0.238 0.168,0.056 0.476,0.056 0.266,0 0.644,-0.042 v 1.022 q -0.504,0.056 -0.91,0.056 -0.504,0 -0.84,-0.112 -0.336,-0.112 -0.518,-0.252 -0.168,-0.14 -0.252,-0.49 -0.084,-0.364 -0.098,-0.602 -0.014,-0.252 -0.014,-0.826 0,-0.126 0,-0.196 v -3.836 h -1.218 v -0.98 h 1.218 v -2.142 h 1.19 v 2.142 z m 7.490012,4.942 q -0.546005,2.52 -3.150005,2.52 -1.596,0 -2.506,-0.994 -0.896,-0.994 -0.896,-2.758 0,-1.75 0.924,-2.828 0.938,-1.092 2.436,-1.092 1.666,0 2.464,1.134 0.812005,1.12 0.812005,2.842 v 0.168 h -5.432005 l -0.014,0.084 q 0,1.148 0.602,1.806 0.602,0.658 1.652,0.658 0.784,0 1.232,-0.364 0.462,-0.364 0.714,-1.176 z m -1.148005,-1.974 q -0.084,-1.036 -0.63,-1.61 -0.546,-0.588 -1.442,-0.588 -0.868,0 -1.442,0.588 -0.574,0.588 -0.686,1.61 z m 2.632005,-5.712 h 1.33 v 6.286 q 0,1.456 0.63,2.128 0.63,0.672 2.058,0.672 1.47,0 2.072,-0.686 0.616,-0.686 0.616,-2.114 v -6.286 h 1.33 v 5.936 q 0,2.184 -0.91,3.22 -0.91,1.022 -3.108,1.022 -2.128,0 -3.08,-0.994 -0.938,-1.008 -0.938,-3.108 z m 15.33001,4.844 h -1.19 q -0.112,-1.316 -1.764,-1.316 -0.686,0 -1.078,0.266 -0.392,0.266 -0.392,0.714 0,0.126 0.028,0.252 0.028,0.112 0.098,0.21 0.084,0.084 0.14,0.154 0.07,0.07 0.21,0.14 0.154,0.056 0.224,0.098 0.084,0.042 0.28,0.098 0.21,0.042 0.294,0.07 0.084,0.014 0.322,0.07 0.252,0.056 0.322,0.07 0.518,0.112 0.77,0.182 0.266,0.07 0.714,0.266 0.462,0.182 0.7,0.392 0.238,0.196 0.42,0.56 0.196,0.35 0.196,0.798 0,1.05 -0.826,1.694 -0.812,0.63 -2.17,0.63 -1.47,0 -2.268,-0.644 -0.784,-0.644 -0.84,-1.862 h 1.176 q 0.098,1.526 1.96,1.526 0.798,0 1.274,-0.322 0.49,-0.336 0.49,-0.882 0,-0.364 -0.252,-0.602 -0.252,-0.238 -0.56,-0.336 -0.308,-0.112 -0.882,-0.252 -0.084,-0.014 -0.126,-0.028 -0.126,-0.028 -0.546,-0.112 -0.406,-0.098 -0.588,-0.154 -0.182,-0.056 -0.532,-0.168 -0.336,-0.126 -0.504,-0.252 -0.168,-0.14 -0.378,-0.336 -0.196,-0.21 -0.28,-0.476 -0.084,-0.28 -0.084,-0.63 0,-0.98 0.742,-1.554 0.756,-0.574 2.016,-0.574 1.274,0 2.072,0.602 0.812,0.602 0.812,1.708 z m 7.812,2.842 q -0.546,2.52 -3.15,2.52 -1.596,0 -2.506,-0.994 -0.896,-0.994 -0.896,-2.758 0,-1.75 0.924,-2.828 0.938,-1.092 2.436,-1.092 1.666,0 2.464,1.134 0.812,1.12 0.812,2.842 v 0.168 h -5.432 l -0.014,0.084 q 0,1.148 0.602,1.806 0.602,0.658 1.652,0.658 0.784,0 1.232,-0.364 0.462,-0.364 0.714,-1.176 z m -1.148,-1.974 q -0.084,-1.036 -0.63,-1.61 -0.546,-0.588 -1.442,-0.588 -0.868,0 -1.442,0.588 -0.574,0.588 -0.686,1.61 z m 6.25801,-3.136 v 1.232 q -0.126,-0.014 -0.308,-0.014 -0.574,0 -0.994,0.182 -0.42,0.168 -0.672,0.448 -0.238,0.28 -0.392,0.7 -0.154,0.42 -0.21,0.84 -0.042,0.42 -0.042,0.952 V 153 h -1.19 v -7.224 h 1.134 v 1.554 q 0.714,-1.722 2.674,-1.722 z"
       id="text9"
       class="nonterminal"
       style="font-size:14px;font-family:HelveticaNeueCyr, Sans-serif;fill:#1a0000"
       aria-label="CreateUser" />
  </a>
  <a
     xlink:href="#AlterUser"
     xlink:title="AlterUser"
     id="a11">
    <path
       id="rect10"
       style="fill:#330000;stroke:#330000"
       d="m 51,179 h 78 v 32 H 51 Z" />
    <path
       id="rect11"
       class="nonterminal"
       style="fill:#ff9e9e;stroke:#330000"
       d="m 49,177 h 78 v 32 H 49 Z" />
    <path
       d="M 64.292,187.032 68.184,197 h -1.47 l -1.106,-3.052 H 61.422 L 60.288,197 h -1.4 l 3.92,-9.968 z m 0.924,5.866 -1.694,-4.606 -1.722,4.606 z m 5.01201,-5.866 V 197 h -1.204 v -9.968 z m 4.942002,2.744 v 0.98 h -1.442 v 4.214 q 0,0.35 0,0.462 0.014,0.112 0.084,0.308 0.07,0.182 0.238,0.238 0.168,0.056 0.476,0.056 0.266,0 0.644,-0.042 v 1.022 q -0.504,0.056 -0.91,0.056 -0.504,0 -0.84,-0.112 -0.336,-0.112 -0.518,-0.252 -0.168,-0.14 -0.252,-0.49 -0.084,-0.364 -0.098,-0.602 -0.014,-0.252 -0.014,-0.826 0,-0.126 0,-0.196 v -3.836 h -1.218 v -0.98 h 1.218 v -2.142 h 1.19 v 2.142 z m 7.490007,4.942 q -0.546,2.52 -3.15,2.52 -1.596,0 -2.506,-0.994 -0.896,-0.994 -0.896,-2.758 0,-1.75 0.924,-2.828 0.938,-1.092 2.436,-1.092 1.666,0 2.464,1.134 0.812,1.12 0.812,2.842 v 0.168 h -5.432 l -0.014,0.084 q 0,1.148 0.602,1.806 0.602,0.658 1.652,0.658 0.784,0 1.232,-0.364 0.462,-0.364 0.714,-1.176 z m -1.148,-1.974 q -0.084,-1.036 -0.63,-1.61 -0.546,-0.588 -1.442,-0.588 -0.868,0 -1.442,0.588 -0.574,0.588 -0.686,1.61 z m 6.258009,-3.136 v 1.232 q -0.126,-0.014 -0.308,-0.014 -0.574,0 -0.994,0.182 -0.42,0.168 -0.672,0.448 -0.238,0.28 -0.392,0.7 -0.154,0.42 -0.21,0.84 -0.042,0.42 -0.042,0.952 V 197 h -1.19 v -7.224 h 1.134 v 1.554 q 0.714,-1.722 2.674,-1.722 z m 1.036003,-2.576 h 1.33 v 6.286 q 0,1.456 0.63,2.128 0.63,0.672 2.058,0.672 1.47,0 2.072,-0.686 0.616,-0.686 0.616,-2.114 v -6.286 h 1.33 v 5.936 q 0,2.184 -0.91,3.22 -0.91,1.022 -3.108,1.022 -2.128,0 -3.08,-0.994 -0.938,-1.008 -0.938,-3.108 z m 15.329999,4.844 h -1.19 q -0.112,-1.316 -1.764,-1.316 -0.686,0 -1.078,0.266 -0.391997,0.266 -0.391997,0.714 0,0.126 0.028,0.252 0.028,0.112 0.098,0.21 0.084,0.084 0.14,0.154 0.07,0.07 0.209997,0.14 0.154,0.056 0.224,0.098 0.084,0.042 0.28,0.098 0.21,0.042 0.294,0.07 0.084,0.014 0.322,0.07 0.252,0.056 0.322,0.07 0.518,0.112 0.77,0.182 0.266,0.07 0.714,0.266 0.462,0.182 0.7,0.392 0.238,0.196 0.42,0.56 0.196,0.35 0.196,0.798 0,1.05 -0.826,1.694 -0.812,0.63 -2.17,0.63 -1.469997,0 -2.267997,-0.644 -0.784,-0.644 -0.84,-1.862 h 1.176 q 0.098,1.526 1.959997,1.526 0.798,0 1.274,-0.322 0.49,-0.336 0.49,-0.882 0,-0.364 -0.252,-0.602 -0.252,-0.238 -0.56,-0.336 -0.308,-0.112 -0.882,-0.252 -0.084,-0.014 -0.126,-0.028 -0.126,-0.028 -0.546,-0.112 -0.406,-0.098 -0.588,-0.154 -0.182,-0.056 -0.531997,-0.168 -0.336,-0.126 -0.504,-0.252 -0.168,-0.14 -0.378,-0.336 -0.196,-0.21 -0.28,-0.476 -0.084,-0.28 -0.084,-0.63 0,-0.98 0.742,-1.554 0.756,-0.574 2.015997,-0.574 1.274,0 2.072,0.602 0.812,0.602 0.812,1.708 z m 7.812,2.842 q -0.546,2.52 -3.15,2.52 -1.596,0 -2.506,-0.994 -0.896,-0.994 -0.896,-2.758 0,-1.75 0.924,-2.828 0.938,-1.092 2.436,-1.092 1.666,0 2.464,1.134 0.812,1.12 0.812,2.842 v 0.168 h -5.432 l -0.014,0.084 q 0,1.148 0.602,1.806 0.602,0.658 1.652,0.658 0.784,0 1.232,-0.364 0.462,-0.364 0.714,-1.176 z m -1.148,-1.974 q -0.084,-1.036 -0.63,-1.61 -0.546,-0.588 -1.442,-0.588 -0.868,0 -1.442,0.588 -0.574,0.588 -0.686,1.61 z m 6.25801,-3.136 v 1.232 q -0.126,-0.014 -0.308,-0.014 -0.574,0 -0.994,0.182 -0.42,0.168 -0.672,0.448 -0.238,0.28 -0.392,0.7 -0.154,0.42 -0.21,0.84 -0.042,0.42 -0.042,0.952 V 197 h -1.19 v -7.224 h 1.134 v 1.554 q 0.714,-1.722 2.674,-1.722 z"
       id="text11"
       class="nonterminal"
       style="font-size:14px;font-family:HelveticaNeueCyr, Sans-serif;fill:#1a0000"
       aria-label="AlterUser" />
  </a>
  <a
     xlink:href="#GrantPrivilege"
     xlink:title="GrantPrivilege"
     id="a13">
    <path
       id="rect12"
       style="fill:#330000;stroke:#330000"
       d="m 51,223 h 110 v 32 H 51 Z" />
    <path
       id="rect13"
       class="nonterminal"
       style="fill:#ff9e9e;stroke:#330000"
       d="m 49,221 h 110 v 32 H 49 Z" />
    <path
       d="M 68.758,235.722 V 241 h -0.84 l -0.336,-1.246 q -1.204,1.484 -3.22,1.484 -2.128,0 -3.444,-1.414 -1.302,-1.428 -1.302,-3.724 0,-2.282 1.288,-3.78 1.302,-1.498 3.556,-1.498 1.036,0 1.932,0.364 0.896,0.35 1.526,1.12 0.63,0.756 0.714,1.792 h -1.288 q -0.154,-0.98 -0.952,-1.568 -0.784,-0.602 -1.932,-0.602 -1.624,0 -2.576,1.12 -0.952,1.106 -0.952,3.01 0,1.876 0.952,2.982 0.952,1.106 2.562,1.106 1.512,0 2.296,-0.91 0.798,-0.924 0.84,-2.436 H 64.39 v -1.078 z m 5.530011,-2.114 v 1.232 q -0.126,-0.014 -0.308,-0.014 -0.574,0 -0.994,0.182 -0.42,0.168 -0.672,0.448 -0.238,0.28 -0.392,0.7 -0.154,0.42 -0.21,0.84 -0.042,0.42 -0.042,0.952 V 241 h -1.19 v -7.224 h 1.134 v 1.554 q 0.714,-1.722 2.674,-1.722 z m 7.294002,6.44 v 0.924 q -0.364,0.14 -0.812,0.14 -1.022,0 -1.05,-1.064 -1.022,1.148 -2.618,1.148 -1.064,0 -1.694,-0.546 -0.616,-0.546 -0.616,-1.498 0,-1.932 2.562,-2.254 1.512,-0.182 1.75,-0.266 0.504,-0.168 0.546,-0.7 0.014,-0.084 0.014,-0.182 0,-1.19 -1.638,-1.19 -0.84,0 -1.274,0.35 -0.434,0.336 -0.518,1.12 h -1.162 q 0.028,-1.162 0.826,-1.806 0.798,-0.644 2.198,-0.644 1.526,0 2.268,0.7 0.238,0.224 0.35,0.588 0.112,0.364 0.126,0.602 0.014,0.224 0.014,0.686 0,0.546 -0.028,1.624 -0.028,1.064 -0.028,1.596 0,0.392 0.098,0.56 0.112,0.154 0.392,0.154 0.112,0 0.294,-0.042 z m -1.918,-2.8 q -0.126,0.098 -0.266,0.168 -0.14,0.07 -0.364,0.112 -0.21,0.042 -0.294,0.07 -0.07,0.014 -0.364,0.056 -0.294,0.028 -0.308,0.028 -0.434,0.056 -0.574,0.084 -0.126,0.014 -0.504,0.112 -0.364,0.098 -0.518,0.224 -0.154,0.126 -0.308,0.378 -0.14,0.238 -0.14,0.574 0,0.56 0.378,0.882 0.392,0.322 1.064,0.322 0.854,0 1.526,-0.504 0.672,-0.504 0.672,-1.19 z m 4.15801,-3.472 v 1.12 q 0.896,-1.316 2.464,-1.316 1.274,0 1.834,0.672 0.574,0.658 0.574,1.946 V 241 h -1.19 v -4.256 q 0,-0.532 -0.042,-0.826 -0.028,-0.308 -0.168,-0.644 -0.14,-0.35 -0.476,-0.504 -0.336,-0.154 -0.868,-0.154 -2.058,0 -2.058,2.604 V 241 h -1.19 v -7.224 z m 9.757996,0 v 0.98 h -1.442 v 4.214 q 0,0.35 0,0.462 0.014,0.112 0.084,0.308 0.07,0.182 0.238,0.238 0.168,0.056 0.476,0.056 0.266,0 0.644,-0.042 v 1.022 q -0.504,0.056 -0.91,0.056 -0.504,0 -0.84,-0.112 -0.336,-0.112 -0.518,-0.252 -0.168,-0.14 -0.252,-0.49 -0.084,-0.364 -0.098,-0.602 -0.014,-0.252 -0.014,-0.826 0,-0.126 0,-0.196 v -3.836 h -1.218 v -0.98 h 1.218 v -2.142 h 1.19 v 2.142 z m 1.582008,-2.744 h 4.102 q 1.526003,0 2.422003,0.7 0.896,0.686 0.896,2.17 0,3.01 -3.402003,3.01 h -2.702 V 241 h -1.316 z m 1.316,1.134 v 3.64 h 2.534 q 1.064003,0 1.652003,-0.392 0.602,-0.406 0.602,-1.428 0,-0.574 -0.196,-0.952 -0.182,-0.378 -0.546,-0.56 -0.364,-0.182 -0.756003,-0.238 -0.392,-0.07 -0.938,-0.07 z m 11.256013,1.442 v 1.232 q -0.126,-0.014 -0.308,-0.014 -0.574,0 -0.994,0.182 -0.42,0.168 -0.672,0.448 -0.238,0.28 -0.392,0.7 -0.154,0.42 -0.21,0.84 -0.042,0.42 -0.042,0.952 V 241 h -1.19 v -7.224 h 1.134 v 1.554 q 0.714,-1.722 2.674,-1.722 z m 2.156,-2.576 v 1.456 h -1.204 v -1.456 z m 0,2.744 V 241 h -1.204 v -7.224 z m 1.148,0 h 1.33 l 2.044,6.062 1.988,-6.062 h 1.246 l -2.646,7.224 h -1.274 z m 8.96,-2.744 v 1.456 h -1.204 v -1.456 z m 0,2.744 V 241 h -1.204 v -7.224 z m 3.108,-2.744 V 241 h -1.204 v -9.968 z m 8.022,7.686 q -0.546,2.52 -3.15,2.52 -1.596,0 -2.506,-0.994 -0.896,-0.994 -0.896,-2.758 0,-1.75 0.924,-2.828 0.938,-1.092 2.436,-1.092 1.666,0 2.464,1.134 0.812,1.12 0.812,2.842 v 0.168 h -5.432 l -0.014,0.084 q 0,1.148 0.602,1.806 0.602,0.658 1.652,0.658 0.784,0 1.232,-0.364 0.462,-0.364 0.714,-1.176 z m -1.148,-1.974 q -0.084,-1.036 -0.63,-1.61 -0.546,-0.588 -1.442,-0.588 -0.868,0 -1.442,0.588 -0.574,0.588 -0.686,1.61 z m 8.75001,-2.968 v 6.44 q 0,0.938 -0.098,1.442 -0.098,0.518 -0.364,0.966 -0.798,1.316 -2.856,1.316 -1.218,0 -2.058,-0.504 -0.84,-0.49 -0.98,-1.624 h 1.218 q 0.21,1.204 1.862,1.204 1.106,0 1.596,-0.56 0.504,-0.56 0.532,-1.806 l 0.014,-0.882 q -0.686,1.316 -2.296,1.316 -1.456,0 -2.324,-0.994 -0.854,-0.994 -0.854,-2.674 0,-1.582 0.854,-2.702 0.854,-1.134 2.38,-1.134 0.756,0 1.344,0.322 0.602,0.322 0.938,0.924 v -1.05 z m -3.318,0.84 q -0.966,0 -1.526,0.756 -0.546,0.742 -0.546,2.058 0,1.19 0.574,1.918 0.574,0.714 1.526,0.714 0.994,0 1.554,-0.756 0.574,-0.756 0.574,-2.072 0,-1.232 -0.574,-1.918 -0.56,-0.7 -1.582,-0.7 z m 11.27,4.102 q -0.546,2.52 -3.15,2.52 -1.596,0 -2.506,-0.994 -0.896,-0.994 -0.896,-2.758 0,-1.75 0.924,-2.828 0.938,-1.092 2.436,-1.092 1.666,0 2.464,1.134 0.812,1.12 0.812,2.842 v 0.168 h -5.432 l -0.014,0.084 q 0,1.148 0.602,1.806 0.602,0.658 1.652,0.658 0.784,0 1.232,-0.364 0.462,-0.364 0.714,-1.176 z m -1.148,-1.974 q -0.084,-1.036 -0.63,-1.61 -0.546,-0.588 -1.442,-0.588 -0.868,0 -1.442,0.588 -0.574,0.588 -0.686,1.61 z"
       id="text13"
       class="nonterminal"
       style="font-size:14px;font-family:HelveticaNeueCyr, Sans-serif;fill:#1a0000"
       aria-label="GrantPrivilege" />
  </a>
  <a
     xlink:href="#RevokePrivilege"
     xlink:title="RevokePrivilege"
     id="a15">
    <path
       id="rect14"
       style="fill:#330000;stroke:#330000"
       d="m 51,267 h 120 v 32 H 51 Z" />
    <path
       id="rect15"
       class="nonterminal"
       style="fill:#ff9e9e;stroke:#330000"
       d="m 49,265 h 120 v 32 H 49 Z" />
    <path
       d="m 60.106,275.032 h 4.382 q 3.346,0 3.346,2.758 0,0.868 -0.476,1.54 -0.462,0.658 -1.232,0.882 0.504,0.112 0.812,0.322 0.308,0.21 0.448,0.588 0.14,0.378 0.182,0.672 0.042,0.294 0.07,0.868 0,0.056 0.014,0.28 0.014,0.21 0.014,0.294 0,0.07 0.014,0.266 0.028,0.196 0.042,0.294 0.014,0.098 0.042,0.266 0.028,0.168 0.07,0.28 0.042,0.098 0.098,0.238 0.056,0.126 0.126,0.238 0.07,0.098 0.154,0.182 H 66.7 q -0.098,-0.14 -0.168,-0.35 -0.056,-0.21 -0.084,-0.49 -0.028,-0.294 -0.042,-0.462 -0.014,-0.182 -0.028,-0.518 -0.014,-0.336 -0.014,-0.378 -0.07,-1.274 -0.532,-1.694 -0.448,-0.42 -1.792,-0.42 H 61.422 V 285 h -1.316 z m 1.316,1.12 v 3.486 H 63.9 q 0.462,0 0.77,-0.028 0.322,-0.028 0.7,-0.126 0.378,-0.098 0.602,-0.28 0.238,-0.182 0.392,-0.518 0.154,-0.336 0.154,-0.812 0,-1.008 -0.616,-1.358 -0.602,-0.364 -1.652,-0.364 z m 14.237993,6.566 q -0.546,2.52 -3.15,2.52 -1.596,0 -2.506,-0.994 -0.896,-0.994 -0.896,-2.758 0,-1.75 0.924,-2.828 0.938,-1.092 2.436,-1.092 1.666,0 2.464,1.134 0.812,1.12 0.812,2.842 v 0.168 h -5.432 l -0.014,0.084 q 0,1.148 0.602,1.806 0.602,0.658 1.652,0.658 0.784,0 1.232,-0.364 0.462,-0.364 0.714,-1.176 z m -1.148,-1.974 q -0.084,-1.036 -0.63,-1.61 -0.546,-0.588 -1.442,-0.588 -0.868,0 -1.442,0.588 -0.574,0.588 -0.686,1.61 z m 1.792009,-2.968 h 1.33 l 2.044,6.062 1.988,-6.062 h 1.246 l -2.646,7.224 h -1.274 z m 8.274,0.826 q 0.952,-1.036 2.59,-1.036 1.638,0 2.548,0.994 0.91,0.994 0.91,2.786 0,1.834 -0.91,2.856 -0.91,1.022 -2.562,1.022 -1.652,0 -2.59,-1.008 -0.938,-1.008 -0.938,-2.8 0,-1.778 0.952,-2.814 z m 4.214,0.728 q -0.602,-0.77 -1.652,-0.77 -1.05,0 -1.666,0.77 -0.616,0.77 -0.616,2.058 0,1.33 0.602,2.086 0.616,0.742 1.708,0.742 1.05,0 1.638,-0.756 0.602,-0.756 0.602,-2.086 0,-1.288 -0.616,-2.044 z m 9.323991,-1.554 -2.87,2.618 3.08,4.606 h -1.512 l -2.478,-3.78 -1.134,1.05 V 285 h -1.162 v -9.968 h 1.162 v 5.894 l 3.318,-3.15 z m 7.363987,4.942 q -0.546,2.52 -3.15,2.52 -1.596,0 -2.505999,-0.994 -0.896,-0.994 -0.896,-2.758 0,-1.75 0.924,-2.828 0.937999,-1.092 2.435999,-1.092 1.666,0 2.464,1.134 0.812,1.12 0.812,2.842 v 0.168 h -5.432 l -0.014,0.084 q 0,1.148 0.602,1.806 0.602,0.658 1.652,0.658 0.784,0 1.232,-0.364 0.462,-0.364 0.714,-1.176 z m -1.148,-1.974 q -0.084,-1.036 -0.63,-1.61 -0.546,-0.588 -1.442,-0.588 -0.868,0 -1.442,0.588 -0.574,0.588 -0.686,1.61 z m 2.75801,-5.712 h 4.102 q 1.526,0 2.422,0.7 0.896,0.686 0.896,2.17 0,3.01 -3.402,3.01 h -2.702 V 285 h -1.316 z m 1.316,1.134 v 3.64 h 2.534 q 1.064,0 1.652,-0.392 0.602,-0.406 0.602,-1.428 0,-0.574 -0.196,-0.952 -0.182,-0.378 -0.546,-0.56 -0.364,-0.182 -0.756,-0.238 -0.392,-0.07 -0.938,-0.07 z m 11.25601,1.442 v 1.232 q -0.126,-0.014 -0.308,-0.014 -0.574,0 -0.994,0.182 -0.42,0.168 -0.672,0.448 -0.238,0.28 -0.392,0.7 -0.154,0.42 -0.21,0.84 -0.042,0.42 -0.042,0.952 V 285 h -1.19 v -7.224 h 1.134 v 1.554 q 0.714,-1.722 2.674,-1.722 z m 2.156,-2.576 v 1.456 h -1.204 v -1.456 z m 0,2.744 V 285 h -1.204 v -7.224 z m 1.148,0 h 1.33 l 2.044,6.062 1.988,-6.062 h 1.246 L 126.928,285 h -1.274 z m 8.96,-2.744 v 1.456 h -1.204 v -1.456 z m 0,2.744 V 285 h -1.204 v -7.224 z m 3.10801,-2.744 V 285 h -1.204 v -9.968 z m 8.022,7.686 q -0.546,2.52 -3.15,2.52 -1.596,0 -2.506,-0.994 -0.896,-0.994 -0.896,-2.758 0,-1.75 0.924,-2.828 0.938,-1.092 2.436,-1.092 1.666,0 2.464,1.134 0.812,1.12 0.812,2.842 v 0.168 h -5.432 l -0.014,0.084 q 0,1.148 0.602,1.806 0.602,0.658 1.652,0.658 0.784,0 1.232,-0.364 0.462,-0.364 0.714,-1.176 z m -1.148,-1.974 q -0.084,-1.036 -0.63,-1.61 -0.546,-0.588 -1.442,-0.588 -0.868,0 -1.442,0.588 -0.574,0.588 -0.686,1.61 z m 8.75,-2.968 v 6.44 q 0,0.938 -0.098,1.442 -0.098,0.518 -0.364,0.966 -0.798,1.316 -2.856,1.316 -1.218,0 -2.058,-0.504 -0.84,-0.49 -0.98,-1.624 h 1.218 q 0.21,1.204 1.862,1.204 1.106,0 1.596,-0.56 0.504,-0.56 0.532,-1.806 l 0.014,-0.882 q -0.686,1.316 -2.296,1.316 -1.456,0 -2.324,-0.994 -0.854,-0.994 -0.854,-2.674 0,-1.582 0.854,-2.702 0.854,-1.134 2.38,-1.134 0.756,0 1.344,0.322 0.602,0.322 0.938,0.924 v -1.05 z m -3.318,0.84 q -0.966,0 -1.526,0.756 -0.546,0.742 -0.546,2.058 0,1.19 0.574,1.918 0.574,0.714 1.526,0.714 0.994,0 1.554,-0.756 0.574,-0.756 0.574,-2.072 0,-1.232 -0.574,-1.918 -0.56,-0.7 -1.582,-0.7 z m 11.27,4.102 q -0.546,2.52 -3.15,2.52 -1.596,0 -2.506,-0.994 -0.896,-0.994 -0.896,-2.758 0,-1.75 0.924,-2.828 0.938,-1.092 2.436,-1.092 1.666,0 2.464,1.134 0.812,1.12 0.812,2.842 v 0.168 h -5.432 l -0.014,0.084 q 0,1.148 0.602,1.806 0.602,0.658 1.652,0.658 0.784,0 1.232,-0.364 0.462,-0.364 0.714,-1.176 z m -1.148,-1.974 q -0.084,-1.036 -0.63,-1.61 -0.546,-0.588 -1.442,-0.588 -0.868,0 -1.442,0.588 -0.574,0.588 -0.686,1.61 z"
       id="text15"
       class="nonterminal"
       style="font-size:14px;font-family:HelveticaNeueCyr, Sans-serif;fill:#1a0000"
       aria-label="RevokePrivilege" />
  </a>
  <path
     class="line"
     d="m17 17 h2 m20 0 h10 m78 0 h10 m0 0 h42 m-160 0 h20 m140 0 h20 m-180 0 q10 0 10 10 m160 0 q0 -10 10 -10 m-170 10 v24 m160 0 v-24 m-160 24 q0 10 10 10 m140 0 q10 0 10 -10 m-150 10 h10 m78 0 h10 m0 0 h42 m-150 -10 v20 m160 0 v-20 m-160 20 v24 m160 0 v-24 m-160 24 q0 10 10 10 m140 0 q10 0 10 -10 m-150 10 h10 m90 0 h10 m0 0 h30 m-150 -10 v20 m160 0 v-20 m-160 20 v24 m160 0 v-24 m-160 24 q0 10 10 10 m140 0 q10 0 10 -10 m-150 10 h10 m92 0 h10 m0 0 h28 m-150 -10 v20 m160 0 v-20 m-160 20 v24 m160 0 v-24 m-160 24 q0 10 10 10 m140 0 q10 0 10 -10 m-150 10 h10 m78 0 h10 m0 0 h42 m-150 -10 v20 m160 0 v-20 m-160 20 v24 m160 0 v-24 m-160 24 q0 10 10 10 m140 0 q10 0 10 -10 m-150 10 h10 m110 0 h10 m0 0 h10 m-150 -10 v20 m160 0 v-20 m-160 20 v24 m160 0 v-24 m-160 24 q0 10 10 10 m140 0 q10 0 10 -10 m-150 10 h10 m120 0 h10 m23 -264 h-3"
     id="path15" />
  <path
     id="polygon15"
     style="fill:#330000;stroke:#330000"
     d="m 209,17 8,-4 v 8 z" />
  <path
     id="polygon16"
     style="fill:#330000;stroke:#330000"
     d="m 209,17 -8,-4 v 8 z" />
</svg>
