<?xml version="1.0" encoding="UTF-8" standalone="no"?>
<svg
   width="683"
   height="345"
   version="1.1"
   viewBox="0 0 683 345"
   id="svg38"
   sodipodi:docname="aggregate.svg"
   inkscape:version="1.4 (e7c3feb100, 2024-10-09)"
   xmlns:inkscape="http://www.inkscape.org/namespaces/inkscape"
   xmlns:sodipodi="http://sodipodi.sourceforge.net/DTD/sodipodi-0.dtd"
   xmlns:xlink="http://www.w3.org/1999/xlink"
   xmlns="http://www.w3.org/2000/svg"
   xmlns:svg="http://www.w3.org/2000/svg">
  <sodipodi:namedview
     id="namedview38"
     pagecolor="#ffffff"
     bordercolor="#666666"
     borderopacity="1.0"
     inkscape:showpageshadow="2"
     inkscape:pageopacity="0.0"
     inkscape:pagecheckerboard="0"
     inkscape:deskcolor="#d1d1d1"
     inkscape:zoom="1.1232955"
     inkscape:cx="482.50881"
     inkscape:cy="150.89528"
     inkscape:window-width="1858"
     inkscape:window-height="1014"
     inkscape:window-x="62"
     inkscape:window-y="29"
     inkscape:window-maximized="1"
     inkscape:current-layer="a27" />
  <defs
     id="defs1">
    <style
       type="text/css"
       id="style1">@namespace &quot;http://www.w3.org/2000/svg&quot;;.line { fill: none; stroke: #330000; stroke-width: 1; }
.bold-line { stroke: #140000; shape-rendering: crispEdges; stroke-width: 2; }
.thin-line { stroke: #1F0000; shape-rendering: crispEdges }
.filled { fill: #330000; stroke: none; }
text.terminal { font-family: Verdana, Sans-serif;                            font-size: 12px;                            fill: #140000;                            font-weight: bold; }
text.nonterminal { font-family: Verdana, Sans-serif;                            font-size: 12px;                            fill: #1A0000;                            font-weight: normal; }
text.regexp { font-family: Verdana, Sans-serif;                            font-size: 12px;                            fill: #1F0000;                            font-weight: normal; }
rect, circle, polygon { fill: #330000; stroke: #330000; }
rect.terminal { fill: #FF4D4D; stroke: #330000; stroke-width: 1; }
rect.nonterminal { fill: #FF9E9E; stroke: #330000; stroke-width: 1; }
rect.text { fill: none; stroke: none; }
polygon.regexp { fill: #FFC7C7; stroke: #330000; stroke-width: 1; }
</style>
  </defs>
  <polygon
     points="9 17 1 13 1 21"
     id="polygon1" />
  <polygon
     points="17 17 9 13 9 21"
     id="polygon2" />
  <rect
     x="71"
     y="3"
     width="48"
     height="32"
     rx="10"
     id="rect2" />
  <rect
     x="69"
     y="1"
     width="48"
     height="32"
     class="terminal"
     rx="10"
     id="rect3" />
  <text
     class="terminal"
     x="79"
     y="21"
     id="text3">AVG</text>
  <rect
     x="71"
     y="47"
     width="68"
     height="32"
     rx="10"
     id="rect4" />
  <rect
     x="69"
     y="45"
     width="68"
     height="32"
     class="terminal"
     rx="10"
     id="rect5" />
  <text
     class="terminal"
     x="79"
     y="65"
     id="text5">COUNT</text>
  <rect
     x="71"
     y="91"
     width="50"
     height="32"
     rx="10"
     id="rect6" />
  <rect
     x="69"
     y="89"
     width="50"
     height="32"
     class="terminal"
     rx="10"
     id="rect7" />
  <text
     class="terminal"
     x="79"
     y="109"
     id="text7">MAX</text>
  <rect
     x="71"
     y="135"
     width="48"
     height="32"
     rx="10"
     id="rect8" />
  <rect
     x="69"
     y="133"
     width="48"
     height="32"
     class="terminal"
     rx="10"
     id="rect9" />
  <text
     class="terminal"
     x="79"
     y="153"
     id="text9">MIN</text>
  <rect
     x="71"
     y="179"
     width="50"
     height="32"
     rx="10"
     id="rect10" />
  <rect
     x="69"
     y="177"
     width="50"
     height="32"
     class="terminal"
     rx="10"
     id="rect11" />
  <text
     class="terminal"
     x="79"
     y="197"
     id="text11">SUM</text>
  <rect
     x="71"
     y="223"
     width="64"
     height="32"
     rx="10"
     id="rect12" />
  <rect
     x="69"
     y="221"
     width="64"
     height="32"
     class="terminal"
     rx="10"
     id="rect13" />
  <text
     class="terminal"
     x="79"
     y="241"
     id="text13">TOTAL</text>
  <rect
     x="179"
     y="3"
     width="26"
     height="32"
     rx="10"
     id="rect14" />
  <rect
     x="177"
     y="1"
     width="26"
     height="32"
     class="terminal"
     rx="10"
     id="rect15" />
  <text
     class="terminal"
     x="187"
     y="21"
     id="text15">(</text>
  <rect
     x="245"
     y="35"
     width="86"
     height="32"
     rx="10"
     id="rect16" />
  <rect
     x="243"
     y="33"
     width="86"
     height="32"
     class="terminal"
     rx="10"
     id="rect17" />
  <text
     class="terminal"
     x="253"
     y="53"
     id="text17">DISTINCT</text>
  <a
     xlink:href="#expression"
     xlink:title="expression"
     id="a19">
    <rect
       x="371"
       y="3"
       width="90"
       height="32"
       id="rect18" />
    <rect
       x="369"
       y="1"
       width="90"
       height="32"
       class="nonterminal"
       id="rect19" />
    <text
       class="nonterminal"
       x="381"
       y="21"
       id="text19">expression</text>
  </a>
  <rect
     x="71"
     y="267"
     width="134"
     height="32"
     rx="10"
     id="rect20" />
  <rect
     x="69"
     y="265"
     width="134"
     height="32"
     class="terminal"
     rx="10"
     id="rect21" />
  <text
     class="terminal"
     x="79"
     y="285"
     id="text21">GROUP_CONCAT</text>
  <rect
     x="71"
     y="311"
     width="110"
     height="32"
     rx="10"
     id="rect22" />
  <rect
     x="69"
     y="309"
     width="110"
     height="32"
     class="terminal"
     rx="10"
     id="rect23" />
  <text
     class="terminal"
     x="79"
     y="329"
     id="text23">STRING_AGG</text>
  <rect
     x="245"
     y="267"
     width="26"
     height="32"
     rx="10"
     id="rect24" />
  <rect
     x="243"
     y="265"
     width="26"
     height="32"
     class="terminal"
     rx="10"
     id="rect25" />
  <text
     class="terminal"
     x="253"
     y="285"
     id="text25">(</text>
  <a
     xlink:href="#expression"
     xlink:title="expression"
     id="a27">
    <rect
       x="291"
       y="267"
       width="90"
       height="32"
       id="rect26" />
    <rect
       x="289"
       y="265"
       width="90"
       height="32"
       class="nonterminal"
       id="rect27" />
    <text
       class="nonterminal"
       x="301"
       y="285"
       id="text27">expression</text>
  </a>
  <rect
     x="401"
     y="267"
     width="24"
     height="32"
     rx="10"
     id="rect28" />
  <rect
     x="399"
     y="265"
     width="24"
     height="32"
     class="terminal"
     rx="10"
     id="rect29" />
  <text
     class="terminal"
     x="409"
     y="285"
     id="text29">,</text>
  <rect
     x="445"
     y="267"
     width="24"
     height="32"
     rx="10"
     id="rect30" />
  <rect
     x="443"
     y="265"
     width="24"
     height="32"
     class="terminal"
     rx="10"
     id="rect31" />
  <text
     class="terminal"
     x="453"
     y="285"
     id="text31">'</text>
  <a
     xlink:href="../../sql_types#text"
     xlink:title="string"
     id="a33">
    <rect
       x="489"
       y="267"
       width="56"
       height="32"
       id="rect32" />
    <rect
       x="487"
       y="265"
       width="56"
       height="32"
       class="nonterminal"
       id="rect33" />
    <text
       class="nonterminal"
       x="497"
       y="285"
       id="text33">string</text>
  </a>
  <rect
     x="565"
     y="267"
     width="24"
     height="32"
     rx="10"
     id="rect34" />
  <rect
     x="563"
     y="265"
     width="24"
     height="32"
     class="terminal"
     rx="10"
     id="rect35" />
  <text
     class="terminal"
     x="573"
     y="285"
     id="text35">'</text>
  <rect
     x="629"
     y="3"
     width="26"
     height="32"
     rx="10"
     id="rect36" />
  <rect
     x="627"
     y="1"
     width="26"
     height="32"
     class="terminal"
     rx="10"
     id="rect37" />
  <text
     class="terminal"
     x="637"
     y="21"
     id="text37">)</text>
  <path
     class="line"
     d="m17 17 h2 m40 0 h10 m48 0 h10 m0 0 h20 m-108 0 h20 m88 0 h20 m-128 0 q10 0 10 10 m108 0 q0 -10 10 -10 m-118 10 v24 m108 0 v-24 m-108 24 q0 10 10 10 m88 0 q10 0 10 -10 m-98 10 h10 m68 0 h10 m-98 -10 v20 m108 0 v-20 m-108 20 v24 m108 0 v-24 m-108 24 q0 10 10 10 m88 0 q10 0 10 -10 m-98 10 h10 m50 0 h10 m0 0 h18 m-98 -10 v20 m108 0 v-20 m-108 20 v24 m108 0 v-24 m-108 24 q0 10 10 10 m88 0 q10 0 10 -10 m-98 10 h10 m48 0 h10 m0 0 h20 m-98 -10 v20 m108 0 v-20 m-108 20 v24 m108 0 v-24 m-108 24 q0 10 10 10 m88 0 q10 0 10 -10 m-98 10 h10 m50 0 h10 m0 0 h18 m-98 -10 v20 m108 0 v-20 m-108 20 v24 m108 0 v-24 m-108 24 q0 10 10 10 m88 0 q10 0 10 -10 m-98 10 h10 m64 0 h10 m0 0 h4 m20 -220 h10 m26 0 h10 m20 0 h10 m0 0 h96 m-126 0 h20 m106 0 h20 m-146 0 q10 0 10 10 m126 0 q0 -10 10 -10 m-136 10 v12 m126 0 v-12 m-126 12 q0 10 10 10 m106 0 q10 0 10 -10 m-116 10 h10 m86 0 h10 m20 -32 h10 m90 0 h10 m0 0 h128 m-578 0 h20 m558 0 h20 m-598 0 q10 0 10 10 m578 0 q0 -10 10 -10 m-588 10 v244 m578 0 v-244 m-578 244 q0 10 10 10 m558 0 q10 0 10 -10 m-548 10 h10 m134 0 h10 m-174 0 h20 m154 0 h20 m-194 0 q10 0 10 10 m174 0 q0 -10 10 -10 m-184 10 v24 m174 0 v-24 m-174 24 q0 10 10 10 m154 0 q10 0 10 -10 m-164 10 h10 m110 0 h10 m0 0 h24 m20 -44 h10 m26 0 h10 m0 0 h10 m90 0 h10 m0 0 h10 m24 0 h10 m0 0 h10 m24 0 h10 m0 0 h10 m56 0 h10 m0 0 h10 m24 0 h10 m20 -264 h10 m26 0 h10 m3 0 h-3"
     id="path37" />
  <polygon
     points="673 17 681 13 681 21"
     id="polygon37" />
  <polygon
     points="673 17 665 13 665 21"
     id="polygon38" />
</svg>
