<?xml version="1.0" encoding="UTF-8"?>
<svg xmlns="http://www.w3.org/2000/svg" width="643" height="301" viewBox="0 0 643 301">
   <defs>
      <style type="text/css">
    @namespace "http://www.w3.org/2000/svg";
    .line                 {fill: none; stroke: #330000; stroke-width: 1;}
    .bold-line            {stroke: #140000; shape-rendering: crispEdges; stroke-width: 2;}
    .thin-line            {stroke: #1F0000; shape-rendering: crispEdges}
    .filled               {fill: #330000; stroke: none;}
    text.terminal         {font-family: Verdana, Sans-serif;
                            font-size: 12px;
                            fill: #140000;
                            font-weight: bold;
                          }
    text.nonterminal      {font-family: Verdana, Sans-serif;
                            font-size: 12px;
                            fill: #1A0000;
                            font-weight: normal;
                          }
    text.regexp           {font-family: Verdana, Sans-serif;
                            font-size: 12px;
                            fill: #1F0000;
                            font-weight: normal;
                          }
    rect, circle, polygon {fill: #330000; stroke: #330000;}
    rect.terminal         {fill: #FF4D4D; stroke: #330000; stroke-width: 1;}
    rect.nonterminal      {fill: #FF9E9E; stroke: #330000; stroke-width: 1;}
    rect.text             {fill: none; stroke: none;}
    polygon.regexp        {fill: #FFC7C7; stroke: #330000; stroke-width: 1;}
  </style>
   </defs>
   <polygon points="9 17 1 13 1 21"/>
   <polygon points="17 17 9 13 9 21"/>
   <rect x="71" y="3" width="48" height="32" rx="10"/>
   <rect x="69"
         y="1"
         width="48"
         height="32"
         class="terminal"
         rx="10"/>
   <text class="terminal" x="79" y="21">AVG</text>
   <rect x="71" y="47" width="68" height="32" rx="10"/>
   <rect x="69"
         y="45"
         width="68"
         height="32"
         class="terminal"
         rx="10"/>
   <text class="terminal" x="79" y="65">COUNT</text>
   <rect x="71" y="91" width="50" height="32" rx="10"/>
   <rect x="69"
         y="89"
         width="50"
         height="32"
         class="terminal"
         rx="10"/>
   <text class="terminal" x="79" y="109">MAX</text>
   <rect x="71" y="135" width="48" height="32" rx="10"/>
   <rect x="69"
         y="133"
         width="48"
         height="32"
         class="terminal"
         rx="10"/>
   <text class="terminal" x="79" y="153">MIN</text>
   <rect x="71" y="179" width="50" height="32" rx="10"/>
   <rect x="69"
         y="177"
         width="50"
         height="32"
         class="terminal"
         rx="10"/>
   <text class="terminal" x="79" y="197">SUM</text>
   <rect x="71" y="223" width="64" height="32" rx="10"/>
   <rect x="69"
         y="221"
         width="64"
         height="32"
         class="terminal"
         rx="10"/>
   <text class="terminal" x="79" y="241">TOTAL</text>
   <rect x="179" y="3" width="26" height="32" rx="10"/>
   <rect x="177"
         y="1"
         width="26"
         height="32"
         class="terminal"
         rx="10"/>
   <text class="terminal" x="187" y="21">(</text>
   <rect x="245" y="35" width="86" height="32" rx="10"/>
   <rect x="243"
         y="33"
         width="86"
         height="32"
         class="terminal"
         rx="10"/>
   <text class="terminal" x="253" y="53">DISTINCT</text>
   <a xmlns:xlink="http://www.w3.org/1999/xlink"
      xlink:href="#expression"
      xlink:title="expression">
      <rect x="371" y="3" width="90" height="32"/>
      <rect x="369" y="1" width="90" height="32" class="nonterminal"/>
      <text class="nonterminal" x="379" y="21">expression</text>
   </a>
   <rect x="51" y="267" width="134" height="32" rx="10"/>
   <rect x="49"
         y="265"
         width="134"
         height="32"
         class="terminal"
         rx="10"/>
   <text class="terminal" x="59" y="285">GROUP_CONCAT</text>
   <rect x="205" y="267" width="26" height="32" rx="10"/>
   <rect x="203"
         y="265"
         width="26"
         height="32"
         class="terminal"
         rx="10"/>
   <text class="terminal" x="213" y="285">(</text>
   <a xmlns:xlink="http://www.w3.org/1999/xlink"
      xlink:href="#expression"
      xlink:title="expression">
      <rect x="251" y="267" width="90" height="32"/>
      <rect x="249" y="265" width="90" height="32" class="nonterminal"/>
      <text class="nonterminal" x="259" y="285">expression</text>
   </a>
   <rect x="361" y="267" width="24" height="32" rx="10"/>
   <rect x="359"
         y="265"
         width="24"
         height="32"
         class="terminal"
         rx="10"/>
   <text class="terminal" x="369" y="285">,</text>
   <rect x="405" y="267" width="24" height="32" rx="10"/>
   <rect x="403"
         y="265"
         width="24"
         height="32"
         class="terminal"
         rx="10"/>
   <text class="terminal" x="413" y="285">'</text>
   <a xmlns:xlink="http://www.w3.org/1999/xlink"
      xlink:href="../../sql_types#text"
      xlink:title="string">
      <rect x="449" y="267" width="56" height="32"/>
      <rect x="447" y="265" width="56" height="32" class="nonterminal"/>
      <text class="nonterminal" x="457" y="285">string</text>
   </a>
   <rect x="525" y="267" width="24" height="32" rx="10"/>
   <rect x="523"
         y="265"
         width="24"
         height="32"
         class="terminal"
         rx="10"/>
   <text class="terminal" x="533" y="285">'</text>
   <rect x="589" y="3" width="26" height="32" rx="10"/>
   <rect x="587"
         y="1"
         width="26"
         height="32"
         class="terminal"
         rx="10"/>
   <text class="terminal" x="597" y="21">)</text>
   <path class="line"
         d="m17 17 h2 m40 0 h10 m48 0 h10 m0 0 h20 m-108 0 h20 m88 0 h20 m-128 0 q10 0 10 10 m108 0 q0 -10 10 -10 m-118 10 v24 m108 0 v-24 m-108 24 q0 10 10 10 m88 0 q10 0 10 -10 m-98 10 h10 m68 0 h10 m-98 -10 v20 m108 0 v-20 m-108 20 v24 m108 0 v-24 m-108 24 q0 10 10 10 m88 0 q10 0 10 -10 m-98 10 h10 m50 0 h10 m0 0 h18 m-98 -10 v20 m108 0 v-20 m-108 20 v24 m108 0 v-24 m-108 24 q0 10 10 10 m88 0 q10 0 10 -10 m-98 10 h10 m48 0 h10 m0 0 h20 m-98 -10 v20 m108 0 v-20 m-108 20 v24 m108 0 v-24 m-108 24 q0 10 10 10 m88 0 q10 0 10 -10 m-98 10 h10 m50 0 h10 m0 0 h18 m-98 -10 v20 m108 0 v-20 m-108 20 v24 m108 0 v-24 m-108 24 q0 10 10 10 m88 0 q10 0 10 -10 m-98 10 h10 m64 0 h10 m0 0 h4 m20 -220 h10 m26 0 h10 m20 0 h10 m0 0 h96 m-126 0 h20 m106 0 h20 m-146 0 q10 0 10 10 m126 0 q0 -10 10 -10 m-136 10 v12 m126 0 v-12 m-126 12 q0 10 10 10 m106 0 q10 0 10 -10 m-116 10 h10 m86 0 h10 m20 -32 h10 m90 0 h10 m0 0 h88 m-538 0 h20 m518 0 h20 m-558 0 q10 0 10 10 m538 0 q0 -10 10 -10 m-548 10 v244 m538 0 v-244 m-538 244 q0 10 10 10 m518 0 q10 0 10 -10 m-528 10 h10 m134 0 h10 m0 0 h10 m26 0 h10 m0 0 h10 m90 0 h10 m0 0 h10 m24 0 h10 m0 0 h10 m24 0 h10 m0 0 h10 m56 0 h10 m0 0 h10 m24 0 h10 m20 -264 h10 m26 0 h10 m3 0 h-3"/>
   <polygon points="633 17 641 13 641 21"/>
   <polygon points="633 17 625 13 625 21"/>
</svg>
