<?xml version="1.0" encoding="UTF-8" standalone="no"?>
<svg
   width="625"
   height="429"
   version="1.1"
   id="svg40"
   sodipodi:docname="AlterUser.svg"
   inkscape:version="1.3 (0e150ed6c4, 2023-07-21)"
   xmlns:inkscape="http://www.inkscape.org/namespaces/inkscape"
   xmlns:sodipodi="http://sodipodi.sourceforge.net/DTD/sodipodi-0.dtd"
   xmlns:xlink="http://www.w3.org/1999/xlink"
   xmlns="http://www.w3.org/2000/svg"
   xmlns:svg="http://www.w3.org/2000/svg">
  <sodipodi:namedview
     id="namedview40"
     pagecolor="#ffffff"
     bordercolor="#666666"
     borderopacity="1.0"
     inkscape:showpageshadow="2"
     inkscape:pageopacity="0.0"
     inkscape:pagecheckerboard="0"
     inkscape:deskcolor="#d1d1d1"
     inkscape:zoom="1.0768"
     inkscape:cx="312.5"
     inkscape:cy="214.06018"
     inkscape:window-width="1854"
     inkscape:window-height="1011"
     inkscape:window-x="66"
     inkscape:window-y="32"
     inkscape:window-maximized="1"
     inkscape:current-layer="svg40" />
  <defs
     id="defs1">
    <style
       type="text/css"
       id="style1">@namespace &quot;http://www.w3.org/2000/svg&quot;;.line { fill: none; stroke: #330000; stroke-width: 1; }&#10;.bold-line { stroke: #140000; shape-rendering: crispEdges; stroke-width: 2; }&#10;.thin-line { stroke: #1F0000; shape-rendering: crispEdges }&#10;.filled { fill: #330000; stroke: none; }&#10;text.terminal { font-family: HelveticaNeueCyr, Sans-serif;                            font-size: 14px;                            fill: #140000;                            font-weight: bold; }&#10;text.nonterminal { font-family: HelveticaNeueCyr, Sans-serif;                            font-size: 14px;                            fill: #1A0000;                            font-weight: normal; }&#10;text.regexp { font-family: HelveticaNeueCyr, Sans-serif;                            font-size: 14px;                            fill: #1F0000;                            font-weight: normal; }&#10;rect, circle, polygon { fill: #330000; stroke: #330000; }&#10;rect.terminal { fill: #FF4D4D; stroke: #330000; stroke-width: 1; }&#10;rect.nonterminal { fill: #FF9E9E; stroke: #330000; stroke-width: 1; }&#10;rect.text { fill: none; stroke: none; }&#10;polygon.regexp { fill: #FFC7C7; stroke: #330000; stroke-width: 1; }&#10;</style>
  </defs>
  <polygon
     points="9 17 1 13 1 21"
     id="polygon1" />
  <polygon
     points="17 17 9 13 9 21"
     id="polygon2" />
  <rect
     x="31"
     y="3"
     width="84"
     height="32"
     rx="10"
     id="rect2" />
  <rect
     x="29"
     y="1"
     width="84"
     height="32"
     class="terminal"
     rx="10"
     id="rect3" />
  <text
     class="terminal"
     x="39"
     y="21"
     id="text3">alter user</text>
  <a
     xlink:href="#name"
     xlink:title="user"
     id="a5">
    <rect
       x="135"
       y="3"
       width="48"
       height="32"
       id="rect4" />
    <rect
       x="133"
       y="1"
       width="48"
       height="32"
       class="nonterminal"
       id="rect5" />
    <text
       class="nonterminal"
       x="143"
       y="21"
       id="text5">user</text>
  </a>
  <rect
     x="223"
     y="35"
     width="50"
     height="32"
     rx="10"
     id="rect6" />
  <rect
     x="221"
     y="33"
     width="50"
     height="32"
     class="terminal"
     rx="10"
     id="rect7" />
  <text
     class="terminal"
     x="231"
     y="53"
     id="text7">with</text>
  <rect
     x="45"
     y="101"
     width="52"
     height="32"
     rx="10"
     id="rect8" />
  <rect
     x="43"
     y="99"
     width="52"
     height="32"
     class="terminal"
     rx="10"
     id="rect9" />
  <text
     class="terminal"
     x="53"
     y="119"
     id="text9">login</text>
  <rect
     x="45"
     y="145"
     width="70"
     height="32"
     rx="10"
     id="rect10" />
  <rect
     x="43"
     y="143"
     width="70"
     height="32"
     class="terminal"
     rx="10"
     id="rect11" />
  <text
     class="terminal"
     x="53"
     y="163"
     id="text11">nologin</text>
  <rect
     x="45"
     y="189"
     width="84"
     height="32"
     rx="10"
     id="rect12" />
  <rect
     x="43"
     y="187"
     width="84"
     height="32"
     class="terminal"
     rx="10"
     id="rect13" />
  <text
     class="terminal"
     x="53"
     y="207"
     id="text13">password</text>
  <rect
     x="149"
     y="189"
     width="24"
     height="32"
     rx="10"
     id="rect14" />
  <rect
     x="147"
     y="187"
     width="24"
     height="32"
     class="terminal"
     rx="10"
     id="rect15" />
  <text
     class="terminal"
     x="157"
     y="207"
     id="text15">'</text>
  <a
     xlink:href="#name"
     xlink:title="password"
     id="a17">
    <rect
       x="193"
       y="189"
       width="80"
       height="32"
       id="rect16" />
    <rect
       x="191"
       y="187"
       width="80"
       height="32"
       class="nonterminal"
       id="rect17" />
    <text
       class="nonterminal"
       x="201"
       y="207"
       id="text17">password</text>
  </a>
  <rect
     x="293"
     y="189"
     width="24"
     height="32"
     rx="10"
     id="rect18" />
  <rect
     x="291"
     y="187"
     width="24"
     height="32"
     class="terminal"
     rx="10"
     id="rect19" />
  <text
     class="terminal"
     x="301"
     y="207"
     id="text19">'</text>
  <rect
     x="357"
     y="221"
     width="56"
     height="32"
     rx="10"
     id="rect20" />
  <rect
     x="355"
     y="219"
     width="56"
     height="32"
     class="terminal"
     rx="10"
     id="rect21" />
  <text
     class="terminal"
     x="365"
     y="239"
     id="text21">using</text>
  <rect
     x="453"
     y="221"
     width="90"
     height="32"
     rx="10"
     id="rect22" />
  <rect
     x="451"
     y="219"
     width="90"
     height="32"
     class="terminal"
     rx="10"
     id="rect23" />
  <text
     class="terminal"
     x="461"
     y="239"
     id="text23">chap-sha1</text>
  <rect
     x="453"
     y="265"
     width="48"
     height="32"
     rx="10"
     id="rect24" />
  <rect
     x="451"
     y="263"
     width="48"
     height="32"
     class="terminal"
     rx="10"
     id="rect25" />
  <text
     class="terminal"
     x="461"
     y="283"
     id="text25">ldap</text>
  <rect
     x="453"
     y="309"
     width="50"
     height="32"
     rx="10"
     id="rect26" />
  <rect
     x="451"
     y="307"
     width="50"
     height="32"
     class="terminal"
     rx="10"
     id="rect27" />
  <text
     class="terminal"
     x="461"
     y="327"
     id="text27">md5</text>
  <rect
     x="191"
     y="395"
     width="62"
     height="32"
     rx="10"
     id="rect28" />
  <rect
     x="189"
     y="393"
     width="62"
     height="32"
     class="terminal"
     rx="10"
     id="rect29" />
  <text
     class="terminal"
     x="199"
     y="413"
     id="text29">option</text>
  <rect
     x="273"
     y="395"
     width="26"
     height="32"
     rx="10"
     id="rect30" />
  <rect
     x="271"
     y="393"
     width="26"
     height="32"
     class="terminal"
     rx="10"
     id="rect31" />
  <text
     class="terminal"
     x="281"
     y="413"
     id="text31">(</text>
  <rect
     x="319"
     y="395"
     width="72"
     height="32"
     rx="10"
     id="rect32" />
  <rect
     x="317"
     y="393"
     width="72"
     height="32"
     class="terminal"
     rx="10"
     id="rect33" />
  <text
     class="terminal"
     x="327"
     y="413"
     id="text33">timeout</text>
  <rect
     x="411"
     y="395"
     width="30"
     height="32"
     rx="10"
     id="rect34" />
  <rect
     x="409"
     y="393"
     width="30"
     height="32"
     class="terminal"
     rx="10"
     id="rect35" />
  <text
     class="terminal"
     x="419"
     y="413"
     id="text35">=</text>
  <a
     xlink:href="../sql_types/#double"
     xlink:title="DOUBLE"
     id="a37">
    <rect
       x="461"
       y="395"
       width="70"
       height="32"
       id="rect36" />
    <rect
       x="459"
       y="393"
       width="70"
       height="32"
       class="nonterminal"
       id="rect37" />
    <text
       class="nonterminal"
       x="467"
       y="413"
       id="text37">DOUBLE</text>
  </a>
  <rect
     x="551"
     y="395"
     width="26"
     height="32"
     rx="10"
     id="rect38" />
  <rect
     x="549"
     y="393"
     width="26"
     height="32"
     class="terminal"
     rx="10"
     id="rect39" />
  <text
     class="terminal"
     x="559"
     y="413"
     id="text39">)</text>
  <path
     class="line"
     d="m17 17 h2 m0 0 h10 m84 0 h10 m0 0 h10 m48 0 h10 m20 0 h10 m0 0 h60 m-90 0 h20 m70 0 h20 m-110 0 q10 0 10 10 m90 0 q0 -10 10 -10 m-100 10 v12 m90 0 v-12 m-90 12 q0 10 10 10 m70 0 q10 0 10 -10 m-80 10 h10 m50 0 h10 m22 -32 l2 0 m2 0 l2 0 m2 0 l2 0 m-312 98 l2 0 m2 0 l2 0 m2 0 l2 0 m22 0 h10 m52 0 h10 m0 0 h486 m-578 0 h20 m558 0 h20 m-598 0 q10 0 10 10 m578 0 q0 -10 10 -10 m-588 10 v24 m578 0 v-24 m-578 24 q0 10 10 10 m558 0 q10 0 10 -10 m-568 10 h10 m70 0 h10 m0 0 h468 m-568 -10 v20 m578 0 v-20 m-578 20 v24 m578 0 v-24 m-578 24 q0 10 10 10 m558 0 q10 0 10 -10 m-568 10 h10 m84 0 h10 m0 0 h10 m24 0 h10 m0 0 h10 m80 0 h10 m0 0 h10 m24 0 h10 m20 0 h10 m0 0 h216 m-246 0 h20 m226 0 h20 m-266 0 q10 0 10 10 m246 0 q0 -10 10 -10 m-256 10 v12 m246 0 v-12 m-246 12 q0 10 10 10 m226 0 q10 0 10 -10 m-236 10 h10 m56 0 h10 m20 0 h10 m90 0 h10 m-130 0 h20 m110 0 h20 m-150 0 q10 0 10 10 m130 0 q0 -10 10 -10 m-140 10 v24 m130 0 v-24 m-130 24 q0 10 10 10 m110 0 q10 0 10 -10 m-120 10 h10 m48 0 h10 m0 0 h42 m-120 -10 v20 m130 0 v-20 m-130 20 v24 m130 0 v-24 m-130 24 q0 10 10 10 m110 0 q10 0 10 -10 m-120 10 h10 m50 0 h10 m0 0 h40 m62 -208 l2 0 m2 0 l2 0 m2 0 l2 0 m-476 262 l2 0 m2 0 l2 0 m2 0 l2 0 m22 0 h10 m0 0 h396 m-426 0 h20 m406 0 h20 m-446 0 q10 0 10 10 m426 0 q0 -10 10 -10 m-436 10 v12 m426 0 v-12 m-426 12 q0 10 10 10 m406 0 q10 0 10 -10 m-416 10 h10 m62 0 h10 m0 0 h10 m26 0 h10 m0 0 h10 m72 0 h10 m0 0 h10 m30 0 h10 m0 0 h10 m70 0 h10 m0 0 h10 m26 0 h10 m23 -32 h-3"
     id="path39" />
  <polygon
     points="615 377 623 373 623 381"
     id="polygon39" />
  <polygon
     points="615 377 607 373 607 381"
     id="polygon40" />
</svg>
