<?xml version="1.0" encoding="UTF-8" standalone="no"?>
<svg
   width="625"
   height="429"
   version="1.1"
   id="svg40"
   sodipodi:docname="AlterUser.svg"
   inkscape:version="1.3.1 (91b66b0783, 2023-11-16)"
   xmlns:inkscape="http://www.inkscape.org/namespaces/inkscape"
   xmlns:sodipodi="http://sodipodi.sourceforge.net/DTD/sodipodi-0.dtd"
   xmlns:xlink="http://www.w3.org/1999/xlink"
   xmlns="http://www.w3.org/2000/svg"
   xmlns:svg="http://www.w3.org/2000/svg">
  <sodipodi:namedview
     id="namedview40"
     pagecolor="#ffffff"
     bordercolor="#666666"
     borderopacity="1.0"
     inkscape:showpageshadow="2"
     inkscape:pageopacity="0.0"
     inkscape:pagecheckerboard="0"
     inkscape:deskcolor="#d1d1d1"
     inkscape:zoom="1.0768"
     inkscape:cx="312.5"
     inkscape:cy="214.98886"
     inkscape:window-width="1920"
     inkscape:window-height="1032"
     inkscape:window-x="0"
     inkscape:window-y="25"
     inkscape:window-maximized="1"
     inkscape:current-layer="svg40" />
  <defs
     id="defs1">
    <style
       type="text/css"
       id="style1">@namespace &quot;http://www.w3.org/2000/svg&quot;;.line { fill: none; stroke: #330000; stroke-width: 1; }
.bold-line { stroke: #140000; shape-rendering: crispEdges; stroke-width: 2; }
.thin-line { stroke: #1F0000; shape-rendering: crispEdges }
.filled { fill: #330000; stroke: none; }
text.terminal { font-family: HelveticaNeueCyr, Sans-serif;                            font-size: 14px;                            fill: #140000;                            font-weight: bold; }
text.nonterminal { font-family: HelveticaNeueCyr, Sans-serif;                            font-size: 14px;                            fill: #1A0000;                            font-weight: normal; }
text.regexp { font-family: HelveticaNeueCyr, Sans-serif;                            font-size: 14px;                            fill: #1F0000;                            font-weight: normal; }
rect, circle, polygon { fill: #330000; stroke: #330000; }
rect.terminal { fill: #FF4D4D; stroke: #330000; stroke-width: 1; }
rect.nonterminal { fill: #FF9E9E; stroke: #330000; stroke-width: 1; }
rect.text { fill: none; stroke: none; }
polygon.regexp { fill: #FFC7C7; stroke: #330000; stroke-width: 1; }
</style>
  </defs>
  <path
     id="polygon1"
     style="fill:#330000;stroke:#330000"
     d="M 9,17 1,13 v 8 z" />
  <path
     id="polygon2"
     style="fill:#330000;stroke:#330000"
     d="M 17,17 9,13 v 8 z" />
  <path
     id="rect2"
     style="fill:#330000;stroke:#330000"
     d="m 41,3 h 64 c 5.54,0 10,4.46 10,10 v 12 c 0,5.54 -4.46,10 -10,10 H 41 C 35.46,35 31,30.54 31,25 V 13 C 31,7.46 35.46,3 41,3 Z" />
  <path
     id="rect3"
     class="terminal"
     style="fill:#ff4d4d;stroke:#330000"
     d="m 39,1 h 64 c 5.54,0 10,4.46 10,10 v 12 c 0,5.54 -4.46,10 -10,10 H 39 C 33.46,33 29,28.54 29,23 V 11 C 29,5.46 33.46,1 39,1 Z" />
  <path
     d="M 46.476,21 C 46.21,20.384 46.224,19.698 46.224,19.04 v -3.122 c 0,-2.016 -1.694,-2.352 -3.15,-2.352 -2.086,0 -3.234,0.826 -3.346,2.436 h 1.862 c 0.14,-0.826 0.518,-1.106 1.428,-1.106 0.882,0 1.302,0.308 1.302,0.966 0,0.588 -0.476,0.7 -1.764,0.868 -1.428,0.182 -3.15,0.406 -3.15,2.296 0,1.358 0.98,2.184 2.576,2.184 0.868,0 1.722,-0.294 2.338,-0.91 0.028,0.322 0.042,0.434 0.14,0.7 z m -2.17,-3.514 v 0.812 c 0,1.036 -0.728,1.61 -1.764,1.61 -0.686,0 -1.092,-0.364 -1.092,-0.966 0,-0.882 0.77,-0.966 1.456,-1.078 0.504,-0.084 0.938,-0.112 1.4,-0.378 z m 5.529992,-6.454 h -1.988 V 21 h 1.988 z m 5.543992,2.744 h -1.47 v -2.184 h -1.974 v 2.184 h -1.204 v 1.344 h 1.204 v 3.752 c 0,1.764 0.532,2.212 2.24,2.212 0.448,0 0.658,-0.014 1.204,-0.056 v -1.512 c -0.238,0.028 -0.392,0.028 -0.602,0.028 -0.854,0 -0.868,-0.322 -0.868,-1.022 V 15.12 h 1.47 z m 7.74199,4.984 h -1.904 c -0.294,0.728 -0.742,1.05 -1.47,1.05 -1.064,0 -1.666,-0.672 -1.694,-1.918 h 5.18 v -0.196 c 0,-2.534 -1.386,-4.13 -3.57,-4.13 -2.1,0 -3.626,1.624 -3.626,3.864 0,2.268 1.47,3.78 3.696,3.78 1.638,0 2.94,-0.882 3.388,-2.45 z m -1.904,-2.128 h -3.164 c 0.112,-1.008 0.728,-1.624 1.61,-1.624 0.994,0 1.47,0.742 1.554,1.624 z m 7.839991,-2.982 c -0.196,-0.028 -0.28,-0.042 -0.434,-0.042 -1.078,0 -1.89,0.56 -2.338,1.498 v -1.33 h -1.89 V 21 h 1.988 v -3.304 c 0,-1.316 0.532,-2.296 1.904,-2.296 0.224,0 0.42,0.014 0.77,0.084 z m 11.423998,0.126 h -1.974 V 17.5 c 0,1.092 -0.322,2.044 -1.568,2.044 -1.134,0 -1.218,-0.728 -1.218,-1.638 v -4.13 h -2.002 v 4.858 c 0,1.722 0.966,2.576 2.52,2.576 1.036,0 1.806,-0.434 2.352,-1.232 V 21 h 1.89 z m 7.630005,2.1 c -0.056,-1.68 -1.484,-2.31 -3.136,-2.31 -2.016,0 -3.164,0.798 -3.164,2.212 0,1.722 1.68,1.918 2.968,2.212 1.036,0.238 1.624,0.35 1.624,0.966 0,0.546 -0.504,0.896 -1.316,0.896 -0.91,0 -1.47,-0.336 -1.54,-1.204 h -1.89 c 0.028,1.848 1.582,2.562 3.388,2.562 2.058,0 3.304,-0.938 3.304,-2.45 0,-1.638 -1.512,-1.974 -2.814,-2.24 -1.148,-0.238 -1.764,-0.322 -1.764,-0.924 0,-0.448 0.42,-0.714 1.12,-0.714 0.798,0 1.26,0.238 1.372,0.994 z m 8.20401,2.884 h -1.904 c -0.294,0.728 -0.742,1.05 -1.47,1.05 -1.064,0 -1.666,-0.672 -1.694,-1.918 h 5.18 v -0.196 c 0,-2.534 -1.386,-4.13 -3.57,-4.13 -2.1,0 -3.626,1.624 -3.626,3.864 0,2.268 1.47,3.78 3.696,3.78 1.638,0 2.94,-0.882 3.388,-2.45 z m -1.904,-2.128 h -3.164 c 0.112,-1.008 0.728,-1.624 1.61,-1.624 0.994,0 1.47,0.742 1.554,1.624 z m 7.839992,-2.982 c -0.196,-0.028 -0.28,-0.042 -0.434,-0.042 -1.078,0 -1.890001,0.56 -2.338001,1.498 v -1.33 h -1.89 V 21 h 1.988 v -3.304 c 0,-1.316 0.532001,-2.296 1.904001,-2.296 0.224,0 0.42,0.014 0.77,0.084 z"
     id="text3"
     class="terminal"
     style="font-weight:bold;font-size:14px;font-family:HelveticaNeueCyr, Sans-serif;fill:#140000"
     aria-label="alter user" />
  <a
     xlink:href="#name"
     xlink:title="user"
     id="a5">
    <path
       id="rect4"
       style="fill:#330000;stroke:#330000"
       d="m 135,3 h 48 v 32 h -48 z" />
    <path
       id="rect5"
       class="nonterminal"
       style="fill:#ff9e9e;stroke:#330000"
       d="m 133,1 h 48 v 32 h -48 z" />
    <path
       d="m 149.888,13.776 h -1.19 v 3.78 c 0,1.484 -0.546,2.604 -2.114,2.604 -1.218,0 -1.512,-0.7 -1.512,-1.736 v -4.648 h -1.19 v 4.97 c 0,1.596 0.896,2.45 2.408,2.45 1.064,0 1.862,-0.42 2.492,-1.33 V 21 h 1.106 z m 7.154,2.1 c 0,-1.526 -1.26,-2.31 -2.884,-2.31 -1.68,0 -2.758,0.826 -2.758,2.128 0,1.666 1.666,1.82 2.912,2.128 1.008,0.252 1.82,0.42 1.82,1.218 0,0.728 -0.7,1.204 -1.764,1.204 -1.148,0 -1.89,-0.434 -1.96,-1.526 h -1.176 c 0.07,1.624 1.148,2.506 3.108,2.506 1.806,0 2.996,-0.924 2.996,-2.324 0,-1.568 -1.582,-1.918 -2.8,-2.198 -0.98,-0.224 -1.918,-0.35 -1.918,-1.162 0,-0.602 0.56,-0.98 1.47,-0.98 1.022,0 1.68,0.364 1.764,1.316 z m 7.812,2.842 h -1.162 c -0.336,1.092 -0.91,1.54 -1.946,1.54 -1.4,0 -2.254,-0.924 -2.254,-2.464 l 0.014,-0.084 h 5.432 v -0.168 c 0,-2.086 -0.896,-3.976 -3.276,-3.976 -2.002,0 -3.36,1.582 -3.36,3.92 0,2.352 1.274,3.752 3.402,3.752 1.708,0 2.786,-0.854 3.15,-2.52 z m -1.148,-1.974 h -4.2 c 0.154,-1.358 0.966,-2.198 2.128,-2.198 1.19,0 1.96,0.826 2.072,2.198 z m 6.25801,-3.136 c -1.288,0 -2.17,0.504 -2.674,1.722 v -1.554 h -1.134 V 21 h 1.19 v -3.052 c 0,-1.624 0.35,-3.122 2.31,-3.122 0.126,0 0.182,0 0.308,0.014 z"
       id="text5"
       class="nonterminal"
       style="font-size:14px;font-family:HelveticaNeueCyr, Sans-serif;fill:#1a0000"
       aria-label="user" />
  </a>
  <path
     id="rect6"
     style="fill:#330000;stroke:#330000"
     d="m 233,35 h 30 c 5.54,0 10,4.46 10,10 v 12 c 0,5.54 -4.46,10 -10,10 h -30 c -5.54,0 -10,-4.46 -10,-10 V 45 c 0,-5.54 4.46,-10 10,-10 z" />
  <path
     id="rect7"
     class="terminal"
     style="fill:#ff4d4d;stroke:#330000"
     d="m 231,33 h 30 c 5.54,0 10,4.46 10,10 v 12 c 0,5.54 -4.46,10 -10,10 h -30 c -5.54,0 -10,-4.46 -10,-10 V 43 c 0,-5.54 4.46,-10 10,-10 z" />
  <path
     d="M 231.07,45.776 233.38,53 h 2.058 l 1.246,-4.858 1.288,4.858 h 2.044 l 2.282,-7.224 h -2.03 l -1.344,4.886 -1.26,-4.886 h -1.918 l -1.218,4.914 -1.344,-4.914 z m 14.12599,-2.744 h -1.988 v 1.68 h 1.988 z m 0,2.744 h -1.988 V 53 h 1.988 z m 5.54399,0 h -1.47 v -2.184 h -1.974 v 2.184 h -1.204 v 1.344 h 1.204 v 3.752 c 0,1.764 0.532,2.212 2.24,2.212 0.448,0 0.658,-0.014 1.204,-0.056 v -1.512 c -0.238,0.028 -0.392,0.028 -0.602,0.028 -0.854,0 -0.868,-0.322 -0.868,-1.022 V 47.12 h 1.47 z m 2.92599,-2.744 h -1.96 V 53 h 1.96 v -3.682 c 0,-1.064 0.238,-2.1 1.554,-2.1 1.064,0 1.274,0.644 1.274,1.526 V 53 h 1.988 v -4.732 c 0,-1.68 -0.77,-2.674 -2.534,-2.674 -0.994,0 -1.708,0.378 -2.282,1.148 z"
     id="text7"
     class="terminal"
     style="font-weight:bold;font-size:14px;font-family:HelveticaNeueCyr, Sans-serif;fill:#140000"
     aria-label="with" />
  <path
     id="rect8"
     style="fill:#330000;stroke:#330000"
     d="m 55,101 h 32 c 5.54,0 10,4.46 10,10 v 12 c 0,5.54 -4.46,10 -10,10 H 55 c -5.54,0 -10,-4.46 -10,-10 v -12 c 0,-5.54 4.46,-10 10,-10 z" />
  <path
     id="rect9"
     class="terminal"
     style="fill:#ff4d4d;stroke:#330000"
     d="m 53,99 h 32 c 5.54,0 10,4.46 10,10 v 12 c 0,5.54 -4.46,10 -10,10 H 53 c -5.54,0 -10,-4.46 -10,-10 v -12 c 0,-5.54 4.46,-10 10,-10 z" />
  <path
     d="M 55.8,109.032 H 53.812 V 119 H 55.8 Z m 5.123992,2.534 c -2.268,0 -3.766,1.526 -3.766,3.822 0,2.31 1.484,3.836 3.738,3.836 2.254,0 3.724,-1.512 3.724,-3.836 0,-2.296 -1.47,-3.822 -3.696,-3.822 z m -0.056,1.512 c 1.106,0 1.764,0.854 1.764,2.296 0,1.484 -0.644,2.352 -1.736,2.352 -1.106,0 -1.75,-0.854 -1.75,-2.338 0,-1.442 0.658,-2.31 1.722,-2.31 z m 11.984001,-1.302 h -1.876 v 0.966 c -0.532,-0.812 -1.148,-1.162 -2.156,-1.162 -1.904,0 -3.164,1.456 -3.164,3.654 0,2.17 1.204,3.556 3.08,3.556 0.952,0 1.666,-0.364 2.212,-1.12 l -0.014,0.812 c -0.014,1.162 -0.266,1.876 -1.596,1.876 -0.868,0 -1.302,-0.28 -1.456,-0.924 h -1.974 c 0.196,1.512 1.302,2.254 3.388,2.254 2.352,0 3.556,-1.036 3.556,-3.444 z m -3.57,1.344 c 1.05,0 1.68,0.77 1.68,2.058 0,1.316 -0.644,2.128 -1.666,2.128 -1.036,0 -1.68,-0.812 -1.68,-2.086 0,-1.316 0.616,-2.1 1.666,-2.1 z m 7.238001,-4.088 h -1.988 v 1.68 h 1.988 z m 0,2.744 h -1.988 V 119 h 1.988 z M 84.891985,119 v -4.83 c 0,-1.68 -0.98,-2.59 -2.506,-2.59 -1.022,0 -1.82,0.434 -2.394,1.204 v -1.008 h -1.89 V 119 h 1.974 v -3.878 c 0,-1.05 0.378,-1.904 1.568,-1.904 1.064,0 1.232,0.672 1.232,1.568 V 119 Z"
     id="text9"
     class="terminal"
     style="font-weight:bold;font-size:14px;font-family:HelveticaNeueCyr, Sans-serif;fill:#140000"
     aria-label="login" />
  <path
     id="rect10"
     style="fill:#330000;stroke:#330000"
     d="m 55,145 h 50 c 5.54,0 10,4.46 10,10 v 12 c 0,5.54 -4.46,10 -10,10 H 55 c -5.54,0 -10,-4.46 -10,-10 v -12 c 0,-5.54 4.46,-10 10,-10 z" />
  <path
     id="rect11"
     class="terminal"
     style="fill:#ff4d4d;stroke:#330000"
     d="m 53,143 h 50 c 5.54,0 10,4.46 10,10 v 12 c 0,5.54 -4.46,10 -10,10 H 53 c -5.54,0 -10,-4.46 -10,-10 v -12 c 0,-5.54 4.46,-10 10,-10 z" />
  <path
     d="m 60.56,163 v -4.83 c 0,-1.68 -0.98,-2.59 -2.506,-2.59 -1.022,0 -1.82,0.434 -2.394,1.204 v -1.008 H 53.77 V 163 h 1.974 v -3.878 c 0,-1.05 0.378,-1.904 1.568,-1.904 1.064,0 1.232,0.672 1.232,1.568 V 163 Z m 5.054006,-7.434 c -2.268,0 -3.766,1.526 -3.766,3.822 0,2.31 1.484,3.836 3.738,3.836 2.254,0 3.724,-1.512 3.724,-3.836 0,-2.296 -1.47,-3.822 -3.696,-3.822 z m -0.056,1.512 c 1.106,0 1.764,0.854 1.764,2.296 0,1.484 -0.644,2.352 -1.736,2.352 -1.106,0 -1.75,-0.854 -1.75,-2.338 0,-1.442 0.658,-2.31 1.722,-2.31 z m 7.098001,-4.046 h -1.988 V 163 h 1.988 z m 5.123992,2.534 c -2.268,0 -3.766,1.526 -3.766,3.822 0,2.31 1.484,3.836 3.738,3.836 2.254,0 3.724,-1.512 3.724,-3.836 0,-2.296 -1.47,-3.822 -3.696,-3.822 z m -0.056,1.512 c 1.106,0 1.764,0.854 1.764,2.296 0,1.484 -0.644,2.352 -1.736,2.352 -1.106,0 -1.75,-0.854 -1.75,-2.338 0,-1.442 0.658,-2.31 1.722,-2.31 z m 11.984,-1.302 h -1.876 v 0.966 c -0.532,-0.812 -1.148,-1.162 -2.156,-1.162 -1.904,0 -3.164,1.456 -3.164,3.654 0,2.17 1.204,3.556 3.08,3.556 0.952,0 1.666,-0.364 2.212,-1.12 l -0.014,0.812 c -0.014,1.162 -0.266,1.876 -1.596,1.876 -0.868,0 -1.302,-0.28 -1.456,-0.924 h -1.974 c 0.196,1.512 1.302,2.254 3.388,2.254 2.352,0 3.556,-1.036 3.556,-3.444 z m -3.57,1.344 c 1.05,0 1.68,0.77 1.68,2.058 0,1.316 -0.644,2.128 -1.666,2.128 -1.036,0 -1.68,-0.812 -1.68,-2.086 0,-1.316 0.616,-2.1 1.666,-2.1 z M 93.376,153.032 h -1.988 v 1.68 h 1.988 z m 0,2.744 H 91.388 V 163 h 1.988 z m 8.37199,7.224 v -4.83 c 0,-1.68 -0.98,-2.59 -2.505998,-2.59 -1.022,0 -1.82,0.434 -2.394,1.204 v -1.008 h -1.89 V 163 h 1.974 v -3.878 c 0,-1.05 0.378,-1.904 1.568,-1.904 1.064,0 1.232,0.672 1.232,1.568 V 163 Z"
     id="text11"
     class="terminal"
     style="font-weight:bold;font-size:14px;font-family:HelveticaNeueCyr, Sans-serif;fill:#140000"
     aria-label="nologin" />
  <path
     id="rect12"
     style="fill:#330000;stroke:#330000"
     d="m 55,189 h 64 c 5.54,0 10,4.46 10,10 v 12 c 0,5.54 -4.46,10 -10,10 H 55 c -5.54,0 -10,-4.46 -10,-10 v -12 c 0,-5.54 4.46,-10 10,-10 z" />
  <path
     id="rect13"
     class="terminal"
     style="fill:#ff4d4d;stroke:#330000"
     d="m 53,187 h 64 c 5.54,0 10,4.46 10,10 v 12 c 0,5.54 -4.46,10 -10,10 H 53 c -5.54,0 -10,-4.46 -10,-10 v -12 c 0,-5.54 4.46,-10 10,-10 z" />
  <path
     d="m 55.632,199.776 h -1.876 v 9.786 h 1.974 v -3.458 c 0.532,0.742 1.316,1.078 2.226,1.078 1.89,0 3.136,-1.484 3.136,-3.752 0,-2.324 -1.274,-3.85 -3.22,-3.85 -0.924,0 -1.708,0.35 -2.24,1.092 z m 1.75,1.4 c 1.064,0 1.722,0.84 1.722,2.254 0,1.372 -0.644,2.198 -1.708,2.198 -1.092,0 -1.736,-0.826 -1.736,-2.226 0,-1.4 0.644,-2.226 1.722,-2.226 z M 69.030001,207 c -0.266,-0.616 -0.252,-1.302 -0.252,-1.96 v -3.122 c 0,-2.016 -1.694,-2.352 -3.15,-2.352 -2.086,0 -3.234,0.826 -3.346,2.436 h 1.862 c 0.14,-0.826 0.518,-1.106 1.428,-1.106 0.882,0 1.302,0.308 1.302,0.966 0,0.588 -0.476,0.7 -1.764,0.868 -1.428,0.182 -3.15,0.406 -3.15,2.296 0,1.358 0.98,2.184 2.576,2.184 0.868,0 1.722,-0.294 2.338,-0.91 0.028,0.322 0.042,0.434 0.14,0.7 z m -2.17,-3.514 v 0.812 c 0,1.036 -0.728,1.61 -1.764,1.61 -0.686,0 -1.092,-0.364 -1.092,-0.966 0,-0.882 0.77,-0.966 1.456,-1.078 0.504,-0.084 0.938,-0.112 1.4,-0.378 z m 9.589992,-1.61 c -0.056,-1.68 -1.484,-2.31 -3.136,-2.31 -2.016,0 -3.164,0.798 -3.164,2.212 0,1.722 1.68,1.918 2.968,2.212 1.036,0.238 1.624,0.35 1.624,0.966 0,0.546 -0.504,0.896 -1.316,0.896 -0.91,0 -1.47,-0.336 -1.54,-1.204 h -1.89 c 0.028,1.848 1.582,2.562 3.388,2.562 2.058,0 3.304,-0.938 3.304,-2.45 0,-1.638 -1.512,-1.974 -2.814,-2.24 -1.148,-0.238 -1.764,-0.322 -1.764,-0.924 0,-0.448 0.42,-0.714 1.12,-0.714 0.798,0 1.26,0.238 1.372,0.994 z m 7.518009,0 c -0.056,-1.68 -1.484,-2.31 -3.136,-2.31 -2.016,0 -3.164,0.798 -3.164,2.212 0,1.722 1.68,1.918 2.968,2.212 1.036,0.238 1.624,0.35 1.624,0.966 0,0.546 -0.504,0.896 -1.316,0.896 -0.91,0 -1.47,-0.336 -1.54,-1.204 h -1.89 c 0.028,1.848 1.582,2.562 3.388,2.562 2.058,0 3.304,-0.938 3.304,-2.45 0,-1.638 -1.512,-1.974 -2.814,-2.24 -1.148,-0.238 -1.764,-0.322 -1.764,-0.924 0,-0.448 0.42,-0.714 1.12,-0.714 0.798,0 1.26,0.238 1.372,0.994 z m 0.728009,-2.1 2.31,7.224 h 2.058 l 1.246,-4.858 1.288,4.858 h 2.044 l 2.282,-7.224 h -2.03 l -1.344,4.886 -1.26,-4.886 h -1.918 l -1.218,4.914 -1.344,-4.914 z m 15.637989,-0.21 c -2.268001,0 -3.766001,1.526 -3.766001,3.822 0,2.31 1.484,3.836 3.738001,3.836 2.254,0 3.724,-1.512 3.724,-3.836 0,-2.296 -1.47,-3.822 -3.696,-3.822 z m -0.056,1.512 c 1.106,0 1.764,0.854 1.764,2.296 0,1.484 -0.644,2.352 -1.736,2.352 -1.106001,0 -1.750001,-0.854 -1.750001,-2.338 0,-1.442 0.658,-2.31 1.722001,-2.31 z m 9.744,-1.428 c -0.196,-0.028 -0.28,-0.042 -0.434,-0.042 -1.078,0 -1.89,0.56 -2.338,1.498 v -1.33 h -1.89 V 207 h 1.988 v -3.304 c 0,-1.316 0.532,-2.296 1.904,-2.296 0.224,0 0.42,0.014 0.77,0.084 z m 7.546,7.35 v -9.968 h -1.974 v 3.64 c -0.462,-0.742 -1.344,-1.092 -2.198,-1.092 -1.918,0 -3.164,1.498 -3.164,3.78 0,2.338 1.274,3.836 3.276,3.836 0.994,0 1.708,-0.378 2.184,-1.12 V 207 Z m -1.904,-3.626 c 0,1.414 -0.63,2.226 -1.722,2.226 -1.064,0 -1.708,-0.84 -1.708,-2.24 0,-1.386 0.63,-2.212 1.708,-2.212 1.078,0 1.722,0.826 1.722,2.226 z"
     id="text13"
     class="terminal"
     style="font-weight:bold;font-size:14px;font-family:HelveticaNeueCyr, Sans-serif;fill:#140000"
     aria-label="password" />
  <path
     id="rect14"
     style="fill:#330000;stroke:#330000"
     d="m 159,189 h 4 c 5.54,0 10,4.46 10,10 v 12 c 0,5.54 -4.46,10 -10,10 h -4 c -5.54,0 -10,-4.46 -10,-10 v -12 c 0,-5.54 4.46,-10 10,-10 z" />
  <path
     id="rect15"
     class="terminal"
     style="fill:#ff4d4d;stroke:#330000"
     d="m 157,187 h 4 c 5.54,0 10,4.46 10,10 v 12 c 0,5.54 -4.46,10 -10,10 h -4 c -5.54,0 -10,-4.46 -10,-10 v -12 c 0,-5.54 4.46,-10 10,-10 z" />
  <path
     d="m 159.408,201.386 0.294,-4.102 h -1.512 l 0.294,4.102 z"
     id="text15"
     class="terminal"
     style="font-weight:bold;font-size:14px;font-family:HelveticaNeueCyr, Sans-serif;fill:#140000"
     aria-label="'" />
  <a
     xlink:href="#name"
     xlink:title="password"
     id="a17">
    <path
       id="rect16"
       style="fill:#330000;stroke:#330000"
       d="m 193,189 h 80 v 32 h -80 z" />
    <path
       id="rect17"
       class="nonterminal"
       style="fill:#ff9e9e;stroke:#330000"
       d="m 191,187 h 80 v 32 h -80 z" />
    <path
       d="m 203.016,199.776 h -1.12 v 10.01 h 1.19 v -3.794 c 0.616,0.84 1.358,1.19 2.422,1.19 1.974,0 3.234,-1.498 3.234,-3.836 0,-2.338 -1.274,-3.794 -3.29,-3.794 -1.064,0 -1.876,0.35 -2.436,1.246 z m 2.254,0.77 c 1.4,0 2.24,1.064 2.24,2.814 0,1.736 -0.84,2.814 -2.198,2.814 -1.4,0 -2.268,-1.064 -2.268,-2.814 0,-1.75 0.84,-2.814 2.226,-2.814 z m 11.32601,5.502 c -0.126,0.028 -0.182,0.042 -0.294,0.042 -0.364,0 -0.49,-0.182 -0.49,-0.714 0,-1.078 0.056,-2.142 0.056,-3.22 0,-0.644 0.014,-1.386 -0.49,-1.876 -0.476,-0.448 -1.302,-0.7 -2.268,-0.7 -1.862,0 -2.982,0.91 -3.024,2.45 h 1.162 c 0.112,-1.064 0.686,-1.47 1.792,-1.47 1.064,0 1.638,0.42 1.638,1.19 0,0.98 -0.588,0.938 -2.31,1.148 -1.708,0.21 -2.562,0.966 -2.562,2.254 0,1.26 0.882,2.044 2.31,2.044 1.12,0 1.904,-0.35 2.618,-1.148 0.014,0.686 0.378,1.064 1.05,1.064 0.266,0 0.56,-0.042 0.812,-0.14 z m -1.918,-2.8 v 1.316 c 0,0.924 -1.078,1.694 -2.198,1.694 -0.896,0 -1.442,-0.462 -1.442,-1.204 0,-1.162 1.176,-1.26 2.044,-1.372 0.532,-0.07 1.148,-0.098 1.596,-0.434 z m 8.4,-1.372 c 0,-1.526 -1.26,-2.31 -2.884,-2.31 -1.68,0 -2.758,0.826 -2.758,2.128 0,1.666 1.666,1.82 2.912,2.128 1.008,0.252 1.82,0.42 1.82,1.218 0,0.728 -0.7,1.204 -1.764,1.204 -1.148,0 -1.89,-0.434 -1.96,-1.526 h -1.176 c 0.07,1.624 1.148,2.506 3.108,2.506 1.806,0 2.996,-0.924 2.996,-2.324 0,-1.568 -1.582,-1.918 -2.8,-2.198 -0.98,-0.224 -1.918,-0.35 -1.918,-1.162 0,-0.602 0.56,-0.98 1.47,-0.98 1.022,0 1.68,0.364 1.764,1.316 z m 7,0 c 0,-1.526 -1.26,-2.31 -2.884,-2.31 -1.68,0 -2.758,0.826 -2.758,2.128 0,1.666 1.666,1.82 2.912,2.128 1.008,0.252 1.82,0.42 1.82,1.218 0,0.728 -0.7,1.204 -1.764,1.204 -1.148,0 -1.89,-0.434 -1.96,-1.526 h -1.176 c 0.07,1.624 1.148,2.506 3.108,2.506 1.806,0 2.996,-0.924 2.996,-2.324 0,-1.568 -1.582,-1.918 -2.8,-2.198 -0.98,-0.224 -1.918,-0.35 -1.918,-1.162 0,-0.602 0.56,-0.98 1.47,-0.98 1.022,0 1.68,0.364 1.764,1.316 z m 0.98,-2.1 2.324,7.224 h 1.288 l 1.47,-5.712 1.484,5.712 h 1.26 l 2.31,-7.224 h -1.232 l -1.638,5.95 -1.526,-5.95 h -1.302 l -1.47,5.95 -1.652,-5.95 z m 14.434,-0.21 c -2.184,0 -3.542,1.47 -3.542,3.85 0,2.38 1.316,3.808 3.528,3.808 2.198,0 3.472,-1.428 3.472,-3.878 0,-2.394 -1.274,-3.78 -3.458,-3.78 z m -0.028,0.994 c 1.4,0 2.268,1.092 2.268,2.814 0,1.778 -0.84,2.842 -2.24,2.842 -1.456,0 -2.31,-1.05 -2.31,-2.828 0,-1.722 0.882,-2.828 2.282,-2.828 z m 8.66599,-0.952 c -1.288,0 -2.17,0.504 -2.674,1.722 v -1.554 h -1.134 V 207 h 1.19 v -3.052 c 0,-1.624 0.35,-3.122 2.31,-3.122 0.126,0 0.182,0 0.308,0.014 z m 7.15401,-2.576 h -1.19 v 3.71 c -0.532,-0.77 -1.316,-1.176 -2.366,-1.176 -2.226,0 -3.29,1.764 -3.29,3.808 0,2.352 1.302,3.822 3.346,3.822 1.106,0 1.932,-0.434 2.38,-1.26 V 207 h 1.12 z m -3.402,3.556 c 1.624,0 2.24,1.358 2.24,2.8 0,1.764 -0.826,2.828 -2.212,2.828 -1.372,0 -2.24,-1.12 -2.24,-2.87 0,-1.694 0.854,-2.758 2.212,-2.758 z"
       id="text17"
       class="nonterminal"
       style="font-size:14px;font-family:HelveticaNeueCyr, Sans-serif;fill:#1a0000"
       aria-label="password" />
  </a>
  <path
     id="rect18"
     style="fill:#330000;stroke:#330000"
     d="m 303,189 h 4 c 5.54,0 10,4.46 10,10 v 12 c 0,5.54 -4.46,10 -10,10 h -4 c -5.54,0 -10,-4.46 -10,-10 v -12 c 0,-5.54 4.46,-10 10,-10 z" />
  <path
     id="rect19"
     class="terminal"
     style="fill:#ff4d4d;stroke:#330000"
     d="m 301,187 h 4 c 5.54,0 10,4.46 10,10 v 12 c 0,5.54 -4.46,10 -10,10 h -4 c -5.54,0 -10,-4.46 -10,-10 v -12 c 0,-5.54 4.46,-10 10,-10 z" />
  <path
     d="m 303.408,201.386 0.294,-4.102 h -1.512 l 0.294,4.102 z"
     id="text19"
     class="terminal"
     style="font-weight:bold;font-size:14px;font-family:HelveticaNeueCyr, Sans-serif;fill:#140000"
     aria-label="'" />
  <path
     id="rect20"
     style="fill:#330000;stroke:#330000"
     d="m 367,221 h 36 c 5.54,0 10,4.46 10,10 v 12 c 0,5.54 -4.46,10 -10,10 h -36 c -5.54,0 -10,-4.46 -10,-10 v -12 c 0,-5.54 4.46,-10 10,-10 z" />
  <path
     id="rect21"
     class="terminal"
     style="fill:#ff4d4d;stroke:#330000"
     d="m 365,219 h 36 c 5.54,0 10,4.46 10,10 v 12 c 0,5.54 -4.46,10 -10,10 h -36 c -5.54,0 -10,-4.46 -10,-10 v -12 c 0,-5.54 4.46,-10 10,-10 z" />
  <path
     d="m 372.532,231.776 h -1.974 v 3.724 c 0,1.092 -0.322,2.044 -1.568,2.044 -1.134,0 -1.218,-0.728 -1.218,-1.638 v -4.13 h -2.002 v 4.858 c 0,1.722 0.966,2.576 2.52,2.576 1.036,0 1.806,-0.434 2.352,-1.232 V 239 h 1.89 z m 7.63001,2.1 c -0.056,-1.68 -1.484,-2.31 -3.136,-2.31 -2.016,0 -3.164,0.798 -3.164,2.212 0,1.722 1.68,1.918 2.968,2.212 1.036,0.238 1.624,0.35 1.624,0.966 0,0.546 -0.504,0.896 -1.316,0.896 -0.91,0 -1.47,-0.336 -1.54,-1.204 h -1.89 c 0.028,1.848 1.582,2.562 3.388,2.562 2.058,0 3.304,-0.938 3.304,-2.45 0,-1.638 -1.512,-1.974 -2.814,-2.24 -1.148,-0.238 -1.764,-0.322 -1.764,-0.924 0,-0.448 0.42,-0.714 1.12,-0.714 0.798,0 1.26,0.238 1.372,0.994 z m 3.458,-4.844 h -1.988 v 1.68 h 1.988 z m 0,2.744 h -1.988 V 239 h 1.988 z m 8.372,7.224 v -4.83 c 0,-1.68 -0.98,-2.59 -2.506,-2.59 -1.022,0 -1.82,0.434 -2.394,1.204 v -1.008 h -1.89 V 239 h 1.974 v -3.878 c 0,-1.05 0.378,-1.904 1.568,-1.904 1.064,0 1.232,0.672 1.232,1.568 V 239 Z m 8.428,-7.224 h -1.876 v 0.966 c -0.532,-0.812 -1.148,-1.162 -2.156,-1.162 -1.904,0 -3.164,1.456 -3.164,3.654 0,2.17 1.204,3.556 3.08,3.556 0.952,0 1.666,-0.364 2.212,-1.12 l -0.014,0.812 c -0.014,1.162 -0.266,1.876 -1.596,1.876 -0.868,0 -1.302,-0.28 -1.456,-0.924 h -1.974 c 0.196,1.512 1.302,2.254 3.388,2.254 2.352,0 3.556,-1.036 3.556,-3.444 z m -3.57,1.344 c 1.05,0 1.68,0.77 1.68,2.058 0,1.316 -0.644,2.128 -1.666,2.128 -1.036,0 -1.68,-0.812 -1.68,-2.086 0,-1.316 0.616,-2.1 1.666,-2.1 z"
     id="text21"
     class="terminal"
     style="font-weight:bold;font-size:14px;font-family:HelveticaNeueCyr, Sans-serif;fill:#140000"
     aria-label="using" />
  <path
     id="rect22"
     style="fill:#330000;stroke:#330000"
     d="m 463,221 h 70 c 5.54,0 10,4.46 10,10 v 12 c 0,5.54 -4.46,10 -10,10 h -70 c -5.54,0 -10,-4.46 -10,-10 v -12 c 0,-5.54 4.46,-10 10,-10 z" />
  <path
     id="rect23"
     class="terminal"
     style="fill:#ff4d4d;stroke:#330000"
     d="m 461,219 h 70 c 5.54,0 10,4.46 10,10 v 12 c 0,5.54 -4.46,10 -10,10 h -70 c -5.54,0 -10,-4.46 -10,-10 v -12 c 0,-5.54 4.46,-10 10,-10 z" />
  <path
     d="m 468.644,236.214 h -1.918 c -0.154,0.952 -0.686,1.456 -1.54,1.456 -1.064,0 -1.68,-0.826 -1.68,-2.268 0,-1.484 0.644,-2.352 1.722,-2.352 0.77,0 1.288,0.448 1.428,1.246 h 1.946 c -0.168,-1.68 -1.456,-2.73 -3.388,-2.73 -2.24,0 -3.71,1.54 -3.71,3.878 0,2.254 1.456,3.738 3.682,3.738 1.918,0 3.206,-1.092 3.458,-2.968 z m 3.12199,-7.182 h -1.96 V 239 h 1.96 v -3.682 c 0,-1.064 0.238,-2.1 1.554,-2.1 1.064,0 1.274,0.644 1.274,1.526 V 239 h 1.988 v -4.732 c 0,-1.68 -0.77,-2.674 -2.534,-2.674 -0.994,0 -1.708,0.378 -2.282,1.148 z M 484.814,239 c -0.266,-0.616 -0.252,-1.302 -0.252,-1.96 v -3.122 c 0,-2.016 -1.694,-2.352 -3.15,-2.352 -2.086,0 -3.234,0.826 -3.346,2.436 h 1.862 c 0.14,-0.826 0.518,-1.106 1.428,-1.106 0.882,0 1.302,0.308 1.302,0.966 0,0.588 -0.476,0.7 -1.764,0.868 -1.428,0.182 -3.15,0.406 -3.15,2.296 0,1.358 0.98,2.184 2.576,2.184 0.868,0 1.722,-0.294 2.338,-0.91 0.028,0.322 0.042,0.434 0.14,0.7 z m -2.17,-3.514 v 0.812 c 0,1.036 -0.728,1.61 -1.764,1.61 -0.686,0 -1.092,-0.364 -1.092,-0.966 0,-0.882 0.77,-0.966 1.456,-1.078 0.504,-0.084 0.938,-0.112 1.4,-0.378 z m 5.36199,-3.71 h -1.876 v 9.786 h 1.974 v -3.458 c 0.532,0.742 1.316,1.078 2.226,1.078 1.89,0 3.136,-1.484 3.136,-3.752 0,-2.324 -1.274,-3.85 -3.22,-3.85 -0.924,0 -1.708,0.35 -2.24,1.092 z m 1.75,1.4 c 1.064,0 1.722,0.84 1.722,2.254 0,1.372 -0.644,2.198 -1.708,2.198 -1.092,0 -1.736,-0.826 -1.736,-2.226 0,-1.4 0.644,-2.226 1.722,-2.226 z m 9.128,1.12 h -4.214 v 1.778 h 4.214 z m 7.60199,-0.42 c -0.056,-1.68 -1.484,-2.31 -3.136,-2.31 -2.016,0 -3.164,0.798 -3.164,2.212 0,1.722 1.68,1.918 2.968,2.212 1.036,0.238 1.624,0.35 1.624,0.966 0,0.546 -0.504,0.896 -1.316,0.896 -0.91,0 -1.47,-0.336 -1.54,-1.204 h -1.89 c 0.028,1.848 1.582,2.562 3.388,2.562 2.058,0 3.304,-0.938 3.304,-2.45 0,-1.638 -1.512,-1.974 -2.814,-2.24 -1.148,-0.238 -1.764,-0.322 -1.764,-0.924 0,-0.448 0.42,-0.714 1.12,-0.714 0.798,0 1.26,0.238 1.372,0.994 z m 3.38801,-4.844 h -1.96 V 239 h 1.96 v -3.682 c 0,-1.064 0.238,-2.1 1.554,-2.1 1.064,0 1.274,0.644 1.274,1.526 V 239 h 1.988 v -4.732 c 0,-1.68 -0.77,-2.674 -2.534,-2.674 -0.994,0 -1.708,0.378 -2.282,1.148 z M 522.922,239 c -0.266,-0.616 -0.252,-1.302 -0.252,-1.96 v -3.122 c 0,-2.016 -1.694,-2.352 -3.15,-2.352 -2.086,0 -3.234,0.826 -3.346,2.436 h 1.862 c 0.14,-0.826 0.518,-1.106 1.428,-1.106 0.882,0 1.302,0.308 1.302,0.966 0,0.588 -0.476,0.7 -1.764,0.868 -1.428,0.182 -3.15,0.406 -3.15,2.296 0,1.358 0.98,2.184 2.576,2.184 0.868,0 1.722,-0.294 2.338,-0.91 0.028,0.322 0.042,0.434 0.14,0.7 z m -2.17,-3.514 v 0.812 c 0,1.036 -0.728,1.61 -1.764,1.61 -0.686,0 -1.092,-0.364 -1.092,-0.966 0,-0.882 0.77,-0.966 1.456,-1.078 0.504,-0.084 0.938,-0.112 1.4,-0.378 z m 8.27399,-6.286 h -1.638 c -0.28,1.428 -1.232,1.96 -2.604,1.96 h -0.252 v 1.47 h 2.38 V 239 h 2.114 z"
     id="text23"
     class="terminal"
     style="font-weight:bold;font-size:14px;font-family:HelveticaNeueCyr, Sans-serif;fill:#140000"
     aria-label="chap-sha1" />
  <path
     id="rect24"
     style="fill:#330000;stroke:#330000"
     d="m 463,265 h 28 c 5.54,0 10,4.46 10,10 v 12 c 0,5.54 -4.46,10 -10,10 h -28 c -5.54,0 -10,-4.46 -10,-10 v -12 c 0,-5.54 4.46,-10 10,-10 z" />
  <path
     id="rect25"
     class="terminal"
     style="fill:#ff4d4d;stroke:#330000"
     d="m 461,263 h 28 c 5.54,0 10,4.46 10,10 v 12 c 0,5.54 -4.46,10 -10,10 h -28 c -5.54,0 -10,-4.46 -10,-10 v -12 c 0,-5.54 4.46,-10 10,-10 z" />
  <path
     d="m 463.8,273.032 h -1.988 V 283 h 1.988 z m 8.60999,9.968 v -9.968 h -1.974 v 3.64 c -0.462,-0.742 -1.344,-1.092 -2.198,-1.092 -1.918,0 -3.164,1.498 -3.164,3.78 0,2.338 1.274,3.836 3.276,3.836 0.994,0 1.708,-0.378 2.184,-1.12 V 283 Z m -1.904,-3.626 c 0,1.414 -0.63,2.226 -1.722,2.226 -1.064,0 -1.708,-0.84 -1.708,-2.24 0,-1.386 0.63,-2.212 1.708,-2.212 1.078,0 1.722,0.826 1.722,2.226 z m 10.136,3.626 c -0.266,-0.616 -0.252,-1.302 -0.252,-1.96 v -3.122 c 0,-2.016 -1.694,-2.352 -3.15,-2.352 -2.086,0 -3.234,0.826 -3.346,2.436 h 1.862 c 0.14,-0.826 0.518,-1.106 1.428,-1.106 0.882,0 1.302,0.308 1.302,0.966 0,0.588 -0.476,0.7 -1.764,0.868 -1.428,0.182 -3.15,0.406 -3.15,2.296 0,1.358 0.98,2.184 2.576,2.184 0.868,0 1.722,-0.294 2.338,-0.91 0.028,0.322 0.042,0.434 0.14,0.7 z m -2.17,-3.514 v 0.812 c 0,1.036 -0.728,1.61 -1.764,1.61 -0.686,0 -1.092,-0.364 -1.092,-0.966 0,-0.882 0.77,-0.966 1.456,-1.078 0.504,-0.084 0.938,-0.112 1.4,-0.378 z m 5.36199,-3.71 h -1.876 v 9.786 h 1.974 v -3.458 c 0.532,0.742 1.316,1.078 2.226,1.078 1.89,0 3.136,-1.484 3.136,-3.752 0,-2.324 -1.274,-3.85 -3.22,-3.85 -0.924,0 -1.708,0.35 -2.24,1.092 z m 1.75,1.4 c 1.064,0 1.722,0.84 1.722,2.254 0,1.372 -0.644,2.198 -1.708,2.198 -1.092,0 -1.736,-0.826 -1.736,-2.226 0,-1.4 0.644,-2.226 1.722,-2.226 z"
     id="text25"
     class="terminal"
     style="font-weight:bold;font-size:14px;font-family:HelveticaNeueCyr, Sans-serif;fill:#140000"
     aria-label="ldap" />
  <path
     id="rect26"
     style="fill:#330000;stroke:#330000"
     d="m 463,309 h 30 c 5.54,0 10,4.46 10,10 v 12 c 0,5.54 -4.46,10 -10,10 h -30 c -5.54,0 -10,-4.46 -10,-10 v -12 c 0,-5.54 4.46,-10 10,-10 z" />
  <path
     id="rect27"
     class="terminal"
     style="fill:#ff4d4d;stroke:#330000"
     d="m 461,307 h 30 c 5.54,0 10,4.46 10,10 v 12 c 0,5.54 -4.46,10 -10,10 h -30 c -5.54,0 -10,-4.46 -10,-10 v -12 c 0,-5.54 4.46,-10 10,-10 z" />
  <path
     d="m 472.886,327 v -4.858 c 0,-1.54 -0.84,-2.562 -2.464,-2.562 -1.022,0 -1.792,0.406 -2.366,1.19 -0.364,-0.798 -1.092,-1.19 -2.044,-1.19 -1.022,0 -1.736,0.406 -2.296,1.19 v -0.994 h -1.89 V 327 h 1.988 v -3.92 c 0,-0.98 0.294,-1.89 1.442,-1.89 0.938,0 1.092,0.644 1.092,1.414 V 327 h 1.988 v -4.06 c 0,-0.98 0.35,-1.736 1.386,-1.736 1.022,0 1.148,0.686 1.148,1.484 V 327 Z m 8.596,0 v -9.968 h -1.974 v 3.64 c -0.462,-0.742 -1.344,-1.092 -2.198,-1.092 -1.918,0 -3.164,1.498 -3.164,3.78 0,2.338 1.274,3.836 3.276,3.836 0.994,0 1.708,-0.378 2.184,-1.12 V 327 Z m -1.904,-3.626 c 0,1.414 -0.63,2.226 -1.722,2.226 -1.064,0 -1.708,-0.84 -1.708,-2.24 0,-1.386 0.63,-2.212 1.708,-2.212 1.078,0 1.722,0.826 1.722,2.226 z m 9.548,-6.09 h -5.474 l -0.952,5.39 h 1.778 c 0.378,-0.574 0.812,-0.812 1.47,-0.812 1.036,0 1.708,0.7 1.708,1.806 0,1.106 -0.7,1.876 -1.694,1.876 -0.882,0 -1.526,-0.588 -1.61,-1.442 h -1.96 c 0.112,2.002 1.582,3.052 3.57,3.052 2.156,0 3.696,-1.47 3.696,-3.528 0,-1.932 -1.246,-3.206 -3.122,-3.206 -0.784,0 -1.33,0.21 -1.806,0.686 l 0.378,-2.128 h 4.018 z"
     id="text27"
     class="terminal"
     style="font-weight:bold;font-size:14px;font-family:HelveticaNeueCyr, Sans-serif;fill:#140000"
     aria-label="md5" />
  <path
     id="rect28"
     style="fill:#330000;stroke:#330000"
     d="m 201,395 h 42 c 5.54,0 10,4.46 10,10 v 12 c 0,5.54 -4.46,10 -10,10 h -42 c -5.54,0 -10,-4.46 -10,-10 v -12 c 0,-5.54 4.46,-10 10,-10 z" />
  <path
     id="rect29"
     class="terminal"
     style="fill:#ff4d4d;stroke:#330000"
     d="m 199,393 h 42 c 5.54,0 10,4.46 10,10 v 12 c 0,5.54 -4.46,10 -10,10 h -42 c -5.54,0 -10,-4.46 -10,-10 v -12 c 0,-5.54 4.46,-10 10,-10 z" />
  <path
     d="m 203.312,405.566 c -2.268,0 -3.766,1.526 -3.766,3.822 0,2.31 1.484,3.836 3.738,3.836 2.254,0 3.724,-1.512 3.724,-3.836 0,-2.296 -1.47,-3.822 -3.696,-3.822 z m -0.056,1.512 c 1.106,0 1.764,0.854 1.764,2.296 0,1.484 -0.644,2.352 -1.736,2.352 -1.106,0 -1.75,-0.854 -1.75,-2.338 0,-1.442 0.658,-2.31 1.722,-2.31 z m 6.93,-1.302 h -1.876 v 9.786 h 1.974 v -3.458 c 0.532,0.742 1.316,1.078 2.226,1.078 1.89,0 3.136,-1.484 3.136,-3.752 0,-2.324 -1.274,-3.85 -3.22,-3.85 -0.924,0 -1.708,0.35 -2.24,1.092 z m 1.75,1.4 c 1.064,0 1.722,0.84 1.722,2.254 0,1.372 -0.644,2.198 -1.708,2.198 -1.092,0 -1.736,-0.826 -1.736,-2.226 0,-1.4 0.644,-2.226 1.722,-2.226 z m 8.904,-1.4 h -1.47 v -2.184 h -1.974 v 2.184 h -1.204 v 1.344 h 1.204 v 3.752 c 0,1.764 0.532,2.212 2.24,2.212 0.448,0 0.658,-0.014 1.204,-0.056 v -1.512 c -0.238,0.028 -0.392,0.028 -0.602,0.028 -0.854,0 -0.868,-0.322 -0.868,-1.022 v -3.402 h 1.47 z m 2.99599,-2.744 h -1.988 v 1.68 h 1.988 z m 0,2.744 h -1.988 V 413 h 1.988 z m 5.12399,-0.21 c -2.268,0 -3.766,1.526 -3.766,3.822 0,2.31 1.484,3.836 3.738,3.836 2.254,0 3.724,-1.512 3.724,-3.836 0,-2.296 -1.47,-3.822 -3.696,-3.822 z m -0.056,1.512 c 1.106,0 1.764,0.854 1.764,2.296 0,1.484 -0.644,2.352 -1.736,2.352 -1.106,0 -1.75,-0.854 -1.75,-2.338 0,-1.442 0.658,-2.31 1.722,-2.31 z m 11.858,5.922 v -4.83 c 0,-1.68 -0.98,-2.59 -2.506,-2.59 -1.022,0 -1.82,0.434 -2.394,1.204 v -1.008 h -1.89 V 413 h 1.974 v -3.878 c 0,-1.05 0.378,-1.904 1.568,-1.904 1.064,0 1.232,0.672 1.232,1.568 V 413 Z"
     id="text29"
     class="terminal"
     style="font-weight:bold;font-size:14px;font-family:HelveticaNeueCyr, Sans-serif;fill:#140000"
     aria-label="option" />
  <path
     id="rect30"
     style="fill:#330000;stroke:#330000"
     d="m 283,395 h 6 c 5.54,0 10,4.46 10,10 v 12 c 0,5.54 -4.46,10 -10,10 h -6 c -5.54,0 -10,-4.46 -10,-10 v -12 c 0,-5.54 4.46,-10 10,-10 z" />
  <path
     id="rect31"
     class="terminal"
     style="fill:#ff4d4d;stroke:#330000"
     d="m 281,393 h 6 c 5.54,0 10,4.46 10,10 v 12 c 0,5.54 -4.46,10 -10,10 h -6 c -5.54,0 -10,-4.46 -10,-10 v -12 c 0,-5.54 4.46,-10 10,-10 z" />
  <path
     d="m 285.228,402.878 h -1.652 c -1.232,1.792 -1.834,4.27 -1.834,6.412 0,2.128 0.658,4.438 1.834,6.202 h 1.68 c -0.994,-1.988 -1.582,-4.018 -1.582,-6.244 0,-2.408 0.49,-4.242 1.554,-6.37 z"
     id="text31"
     class="terminal"
     style="font-weight:bold;font-size:14px;font-family:HelveticaNeueCyr, Sans-serif;fill:#140000"
     aria-label="(" />
  <path
     id="rect32"
     style="fill:#330000;stroke:#330000"
     d="m 329,395 h 52 c 5.54,0 10,4.46 10,10 v 12 c 0,5.54 -4.46,10 -10,10 h -52 c -5.54,0 -10,-4.46 -10,-10 v -12 c 0,-5.54 4.46,-10 10,-10 z" />
  <path
     id="rect33"
     class="terminal"
     style="fill:#ff4d4d;stroke:#330000"
     d="m 327,393 h 52 c 5.54,0 10,4.46 10,10 v 12 c 0,5.54 -4.46,10 -10,10 h -52 c -5.54,0 -10,-4.46 -10,-10 v -12 c 0,-5.54 4.46,-10 10,-10 z" />
  <path
     d="m 331.732,405.776 h -1.47 v -2.184 h -1.974 v 2.184 h -1.204 v 1.344 h 1.204 v 3.752 c 0,1.764 0.532,2.212 2.24,2.212 0.448,0 0.658,-0.014 1.204,-0.056 v -1.512 c -0.238,0.028 -0.392,0.028 -0.602,0.028 -0.854,0 -0.868,-0.322 -0.868,-1.022 v -3.402 h 1.47 z m 2.99599,-2.744 h -1.988 v 1.68 h 1.988 z m 0,2.744 h -1.988 V 413 h 1.988 z M 347.42598,413 v -4.858 c 0,-1.54 -0.84,-2.562 -2.464,-2.562 -1.022,0 -1.792,0.406 -2.366,1.19 -0.364,-0.798 -1.092,-1.19 -2.044,-1.19 -1.022,0 -1.736,0.406 -2.296,1.19 v -0.994 h -1.89 V 413 h 1.988 v -3.92 c 0,-0.98 0.294,-1.89 1.442,-1.89 0.938,0 1.092,0.644 1.092,1.414 V 413 h 1.988 v -4.06 c 0,-0.98 0.35,-1.736 1.386,-1.736 1.022,0 1.148,0.686 1.148,1.484 V 413 Z m 8.344,-2.24 h -1.904 c -0.294,0.728 -0.742,1.05 -1.47,1.05 -1.064,0 -1.666,-0.672 -1.694,-1.918 h 5.18 v -0.196 c 0,-2.534 -1.386,-4.13 -3.57,-4.13 -2.1,0 -3.626,1.624 -3.626,3.864 0,2.268 1.47,3.78 3.696,3.78 1.638,0 2.94,-0.882 3.388,-2.45 z m -1.904,-2.128 h -3.164 c 0.112,-1.008 0.728,-1.624 1.61,-1.624 0.994,0 1.47,0.742 1.554,1.624 z m 6.706,-3.066 c -2.268,0 -3.766,1.526 -3.766,3.822 0,2.31 1.484,3.836 3.738,3.836 2.254,0 3.724,-1.512 3.724,-3.836 0,-2.296 -1.47,-3.822 -3.696,-3.822 z m -0.056,1.512 c 1.106,0 1.764,0.854 1.764,2.296 0,1.484 -0.644,2.352 -1.736,2.352 -1.106,0 -1.75,-0.854 -1.75,-2.338 0,-1.442 0.658,-2.31 1.722,-2.31 z m 11.83,-1.302 h -1.974 v 3.724 c 0,1.092 -0.322,2.044 -1.568,2.044 -1.134,0 -1.218,-0.728 -1.218,-1.638 v -4.13 h -2.002 v 4.858 c 0,1.722 0.966,2.576 2.52,2.576 1.036,0 1.806,-0.434 2.352,-1.232 V 413 h 1.89 z m 5.502,0 h -1.47 v -2.184 h -1.974 v 2.184 h -1.204 v 1.344 h 1.204 v 3.752 c 0,1.764 0.532,2.212 2.24,2.212 0.448,0 0.658,-0.014 1.204,-0.056 v -1.512 c -0.238,0.028 -0.392,0.028 -0.602,0.028 -0.854,0 -0.868,-0.322 -0.868,-1.022 v -3.402 h 1.47 z"
     id="text33"
     class="terminal"
     style="font-weight:bold;font-size:14px;font-family:HelveticaNeueCyr, Sans-serif;fill:#140000"
     aria-label="timeout" />
  <path
     id="rect34"
     style="fill:#330000;stroke:#330000"
     d="m 421,395 h 10 c 5.54,0 10,4.46 10,10 v 12 c 0,5.54 -4.46,10 -10,10 h -10 c -5.54,0 -10,-4.46 -10,-10 v -12 c 0,-5.54 4.46,-10 10,-10 z" />
  <path
     id="rect35"
     class="terminal"
     style="fill:#ff4d4d;stroke:#330000"
     d="m 419,393 h 10 c 5.54,0 10,4.46 10,10 v 12 c 0,5.54 -4.46,10 -10,10 h -10 c -5.54,0 -10,-4.46 -10,-10 v -12 c 0,-5.54 4.46,-10 10,-10 z" />
  <path
     d="m 419.56,408.688 h 7.28 v -1.568 h -7.28 z m 0,2.926 h 7.28 v -1.568 h -7.28 z"
     id="text35"
     class="terminal"
     style="font-weight:bold;font-size:14px;font-family:HelveticaNeueCyr, Sans-serif;fill:#140000"
     aria-label="=" />
  <a
     xlink:href="../sql_types/#double"
     xlink:title="DOUBLE"
     id="a37">
    <path
       id="rect36"
       style="fill:#330000;stroke:#330000"
       d="m 461,395 h 70 v 32 h -70 z" />
    <path
       id="rect37"
       class="nonterminal"
       style="fill:#ff9e9e;stroke:#330000"
       d="m 459,393 h 70 v 32 h -70 z" />
    <path
       d="M 468.106,403.032 V 413 h 3.486 c 3.374,0 4.704,-1.82 4.704,-5.068 0,-3.416 -1.582,-4.9 -4.942,-4.9 z m 1.316,1.134 h 1.946 c 2.702,0 3.626,1.26 3.626,3.92 0,2.562 -1.05,3.78 -3.57,3.78 h -2.002 z m 12.74001,-1.372 c -2.898,0 -4.76,2.002 -4.76,5.11 0,2.898 1.582,5.334 4.774,5.334 3.164,0 4.774,-2.38 4.774,-5.306 0,-2.968 -1.694,-5.138 -4.788,-5.138 z m 0,1.148 c 2.114,0 3.472,1.596 3.472,4.06 0,2.478 -1.358,4.102 -3.444,4.102 -2.114,0 -3.472,-1.61 -3.472,-4.102 0,-2.128 1.092,-4.06 3.444,-4.06 z m 6.37,-0.91 v 6.076 c 0,2.758 1.134,4.102 4.018,4.102 3.024,0 4.018,-1.442 4.018,-4.242 v -5.936 h -1.33 v 6.286 c 0,1.834 -0.672,2.8 -2.688,2.8 -1.918,0 -2.688,-0.882 -2.688,-2.8 v -6.286 z m 10.178,0 V 413 h 4.102 c 1.904,0 3.78,-0.518 3.78,-2.814 0,-1.316 -0.686,-2.24 -1.918,-2.52 0.896,-0.322 1.47,-1.162 1.47,-2.142 0,-1.834 -1.526,-2.492 -3.178,-2.492 z m 1.288,1.12 h 2.492 c 1.176,0 2.338,0.07 2.338,1.568 0,1.498 -1.344,1.582 -2.464,1.582 h -2.366 z m 0,4.186 h 2.408 c 1.33,0 2.856,-0.014 2.856,1.722 0,1.75 -1.302,1.834 -2.632,1.834 h -2.632 z m 14.92399,3.514 h -5.292 v -8.82 h -1.316 V 413 h 6.608 z m 8.064,-8.82 h -6.902 V 413 h 6.972 v -1.148 H 517.4 v -3.444 h 5.222 v -1.106 H 517.4 v -3.122 h 5.586 z"
       id="text37"
       class="nonterminal"
       style="font-size:14px;font-family:HelveticaNeueCyr, Sans-serif;fill:#1a0000"
       aria-label="DOUBLE" />
  </a>
  <path
     id="rect38"
     style="fill:#330000;stroke:#330000"
     d="m 561,395 h 6 c 5.54,0 10,4.46 10,10 v 12 c 0,5.54 -4.46,10 -10,10 h -6 c -5.54,0 -10,-4.46 -10,-10 v -12 c 0,-5.54 4.46,-10 10,-10 z" />
  <path
     id="rect39"
     class="terminal"
     style="fill:#ff4d4d;stroke:#330000"
     d="m 559,393 h 6 c 5.54,0 10,4.46 10,10 v 12 c 0,5.54 -4.46,10 -10,10 h -6 c -5.54,0 -10,-4.46 -10,-10 v -12 c 0,-5.54 4.46,-10 10,-10 z" />
  <path
     d="m 558.944,402.878 c 1.036,1.862 1.568,4.074 1.568,6.202 0,2.464 -0.462,4.186 -1.554,6.412 h 1.666 c 1.204,-1.596 1.834,-4.424 1.834,-6.384 0,-2.198 -0.658,-4.382 -1.862,-6.23 z"
     id="text39"
     class="terminal"
     style="font-weight:bold;font-size:14px;font-family:HelveticaNeueCyr, Sans-serif;fill:#140000"
     aria-label=")" />
  <path
     class="line"
     d="m17 17 h2 m0 0 h10 m84 0 h10 m0 0 h10 m48 0 h10 m20 0 h10 m0 0 h60 m-90 0 h20 m70 0 h20 m-110 0 q10 0 10 10 m90 0 q0 -10 10 -10 m-100 10 v12 m90 0 v-12 m-90 12 q0 10 10 10 m70 0 q10 0 10 -10 m-80 10 h10 m50 0 h10 m22 -32 l2 0 m2 0 l2 0 m2 0 l2 0 m-312 98 l2 0 m2 0 l2 0 m2 0 l2 0 m22 0 h10 m52 0 h10 m0 0 h486 m-578 0 h20 m558 0 h20 m-598 0 q10 0 10 10 m578 0 q0 -10 10 -10 m-588 10 v24 m578 0 v-24 m-578 24 q0 10 10 10 m558 0 q10 0 10 -10 m-568 10 h10 m70 0 h10 m0 0 h468 m-568 -10 v20 m578 0 v-20 m-578 20 v24 m578 0 v-24 m-578 24 q0 10 10 10 m558 0 q10 0 10 -10 m-568 10 h10 m84 0 h10 m0 0 h10 m24 0 h10 m0 0 h10 m80 0 h10 m0 0 h10 m24 0 h10 m20 0 h10 m0 0 h216 m-246 0 h20 m226 0 h20 m-266 0 q10 0 10 10 m246 0 q0 -10 10 -10 m-256 10 v12 m246 0 v-12 m-246 12 q0 10 10 10 m226 0 q10 0 10 -10 m-236 10 h10 m56 0 h10 m20 0 h10 m90 0 h10 m-130 0 h20 m110 0 h20 m-150 0 q10 0 10 10 m130 0 q0 -10 10 -10 m-140 10 v24 m130 0 v-24 m-130 24 q0 10 10 10 m110 0 q10 0 10 -10 m-120 10 h10 m48 0 h10 m0 0 h42 m-120 -10 v20 m130 0 v-20 m-130 20 v24 m130 0 v-24 m-130 24 q0 10 10 10 m110 0 q10 0 10 -10 m-120 10 h10 m50 0 h10 m0 0 h40 m62 -208 l2 0 m2 0 l2 0 m2 0 l2 0 m-476 262 l2 0 m2 0 l2 0 m2 0 l2 0 m22 0 h10 m0 0 h396 m-426 0 h20 m406 0 h20 m-446 0 q10 0 10 10 m426 0 q0 -10 10 -10 m-436 10 v12 m426 0 v-12 m-426 12 q0 10 10 10 m406 0 q10 0 10 -10 m-416 10 h10 m62 0 h10 m0 0 h10 m26 0 h10 m0 0 h10 m72 0 h10 m0 0 h10 m30 0 h10 m0 0 h10 m70 0 h10 m0 0 h10 m26 0 h10 m23 -32 h-3"
     id="path39" />
  <path
     id="polygon39"
     style="fill:#330000;stroke:#330000"
     d="m 615,377 8,-4 v 8 z" />
  <path
     id="polygon40"
     style="fill:#330000;stroke:#330000"
     d="m 615,377 -8,-4 v 8 z" />
</svg>
