<?xml version="1.0" encoding="UTF-8"?>
<svg xmlns="http://www.w3.org/2000/svg" width="465" height="97" viewBox="0 0 465 97">
   <defs>
      <style type="text/css">
    @namespace "http://www.w3.org/2000/svg";
    .line                 {fill: none; stroke: #330000; stroke-width: 1;}
    .bold-line            {stroke: #140000; shape-rendering: crispEdges; stroke-width: 2;}
    .thin-line            {stroke: #1F0000; shape-rendering: crispEdges}
    .filled               {fill: #330000; stroke: none;}
    text.terminal         {font-family: Verdana, Sans-serif;
                            font-size: 12px;
                            fill: #140000;
                            font-weight: bold;
                          }
    text.nonterminal      {font-family: Verdana, Sans-serif;
                            font-size: 12px;
                            fill: #1A0000;
                            font-weight: normal;
                          }
    text.regexp           {font-family: Verdana, Sans-serif;
                            font-size: 12px;
                            fill: #1F0000;
                            font-weight: normal;
                          }
    rect, circle, polygon {fill: #330000; stroke: #330000;}
    rect.terminal         {fill: #FF4D4D; stroke: #330000; stroke-width: 1;}
    rect.nonterminal      {fill: #FF9E9E; stroke: #330000; stroke-width: 1;}
    rect.text             {fill: none; stroke: none;}
    polygon.regexp        {fill: #FFC7C7; stroke: #330000; stroke-width: 1;}
  </style>
   </defs>
   <polygon points="9 61 1 57 1 65"/>
   <polygon points="17 61 9 57 9 65"/>
   <rect x="31" y="47" width="54" height="32" rx="10"/>
   <rect x="29"
         y="45"
         width="54"
         height="32"
         class="terminal"
         rx="10"/>
   <text class="terminal" x="39" y="65">CALL</text>
   <a xmlns:xlink="http://www.w3.org/1999/xlink"
      xlink:href="../object"
      xlink:title="procedure">
      <rect x="105" y="47" width="84" height="32"/>
      <rect x="103" y="45" width="84" height="32" class="nonterminal"/>
      <text class="nonterminal" x="113" y="65">procedure</text>
   </a>
   <rect x="209" y="47" width="26" height="32" rx="10"/>
   <rect x="207"
         y="45"
         width="26"
         height="32"
         class="terminal"
         rx="10"/>
   <text class="terminal" x="217" y="65">(</text>
   <a xmlns:xlink="http://www.w3.org/1999/xlink"
      xlink:href="#literal"
      xlink:title="literal">
      <rect x="295" y="47" width="56" height="32"/>
      <rect x="293" y="45" width="56" height="32" class="nonterminal"/>
      <text class="nonterminal" x="303" y="65">literal</text>
   </a>
   <rect x="295" y="3" width="24" height="32" rx="10"/>
   <rect x="293"
         y="1"
         width="24"
         height="32"
         class="terminal"
         rx="10"/>
   <text class="terminal" x="303" y="21">,</text>
   <rect x="411" y="47" width="26" height="32" rx="10"/>
   <rect x="409"
         y="45"
         width="26"
         height="32"
         class="terminal"
         rx="10"/>
   <text class="terminal" x="419" y="65">)</text>
   <path class="line"
         d="m17 61 h2 m0 0 h10 m54 0 h10 m0 0 h10 m84 0 h10 m0 0 h10 m26 0 h10 m40 0 h10 m56 0 h10 m-96 0 l20 0 m-1 0 q-9 0 -9 -10 l0 -24 q0 -10 10 -10 m76 44 l20 0 m-20 0 q10 0 10 -10 l0 -24 q0 -10 -10 -10 m-76 0 h10 m24 0 h10 m0 0 h32 m-116 44 h20 m116 0 h20 m-156 0 q10 0 10 10 m136 0 q0 -10 10 -10 m-146 10 v14 m136 0 v-14 m-136 14 q0 10 10 10 m116 0 q10 0 10 -10 m-126 10 h10 m0 0 h106 m20 -34 h10 m26 0 h10 m3 0 h-3"/>
   <polygon points="455 61 463 57 463 65"/>
   <polygon points="455 61 447 57 447 65"/>
</svg>
