<?xml version="1.0" encoding="UTF-8"?>
<svg xmlns="http://www.w3.org/2000/svg" width="547" height="53" viewBox="0 0 547 53">
   <defs>
      <style type="text/css">
    @namespace "http://www.w3.org/2000/svg";
    .line                 {fill: none; stroke: #330000; stroke-width: 1;}
    .bold-line            {stroke: #140000; shape-rendering: crispEdges; stroke-width: 2;}
    .thin-line            {stroke: #1F0000; shape-rendering: crispEdges}
    .filled               {fill: #330000; stroke: none;}
    text.terminal         {font-family: Verdana, Sans-serif;
                            font-size: 12px;
                            fill: #140000;
                            font-weight: bold;
                          }
    text.nonterminal      {font-family: Verdana, Sans-serif;
                            font-size: 12px;
                            fill: #1A0000;
                            font-weight: normal;
                          }
    text.regexp           {font-family: Verdana, Sans-serif;
                            font-size: 12px;
                            fill: #1F0000;
                            font-weight: normal;
                          }
    rect, circle, polygon {fill: #330000; stroke: #330000;}
    rect.terminal         {fill: #FF4D4D; stroke: #330000; stroke-width: 1;}
    rect.nonterminal      {fill: #FF9E9E; stroke: #330000; stroke-width: 1;}
    rect.text             {fill: none; stroke: none;}
    polygon.regexp        {fill: #FFC7C7; stroke: #330000; stroke-width: 1;}
  </style>
   </defs>
   <polygon points="9 33 1 29 1 37"/>
   <polygon points="17 33 9 29 9 37"/>
   <rect x="31" y="19" width="92" height="32" rx="10"/>
   <rect x="29"
         y="17"
         width="92"
         height="32"
         class="terminal"
         rx="10"/>
   <text class="terminal" x="39" y="37">COALESCE</text>
   <rect x="143" y="19" width="26" height="32" rx="10"/>
   <rect x="141"
         y="17"
         width="26"
         height="32"
         class="terminal"
         rx="10"/>
   <text class="terminal" x="151" y="37">(</text>
   <a xmlns:xlink="http://www.w3.org/1999/xlink"
      xlink:href="#expression"
      xlink:title="expression">
      <rect x="189" y="19" width="90" height="32"/>
      <rect x="187" y="17" width="90" height="32" class="nonterminal"/>
      <text class="nonterminal" x="197" y="37">expression</text>
   </a>
   <rect x="319" y="19" width="24" height="32" rx="10"/>
   <rect x="317"
         y="17"
         width="24"
         height="32"
         class="terminal"
         rx="10"/>
   <text class="terminal" x="327" y="37">,</text>
   <a xmlns:xlink="http://www.w3.org/1999/xlink"
      xlink:href="#expression"
      xlink:title="expression">
      <rect x="363" y="19" width="90" height="32"/>
      <rect x="361" y="17" width="90" height="32" class="nonterminal"/>
      <text class="nonterminal" x="371" y="37">expression</text>
   </a>
   <rect x="493" y="19" width="26" height="32" rx="10"/>
   <rect x="491"
         y="17"
         width="26"
         height="32"
         class="terminal"
         rx="10"/>
   <text class="terminal" x="501" y="37">)</text>
   <path class="line"
         d="m17 33 h2 m0 0 h10 m92 0 h10 m0 0 h10 m26 0 h10 m0 0 h10 m90 0 h10 m20 0 h10 m24 0 h10 m0 0 h10 m90 0 h10 m-174 0 l20 0 m-1 0 q-9 0 -9 -10 l0 -12 q0 -10 10 -10 m154 32 l20 0 m-20 0 q10 0 10 -10 l0 -12 q0 -10 -10 -10 m-154 0 h10 m0 0 h144 m20 32 h10 m26 0 h10 m3 0 h-3"/>
   <polygon points="537 33 545 29 545 37"/>
   <polygon points="537 33 529 29 529 37"/>
</svg>
