<?xml version="1.0" encoding="UTF-8" standalone="no"?>
<svg
   width="491"
   height="433"
   viewBox="0 0 491 433"
   version="1.1"
   id="svg28"
   sodipodi:docname="column.svg"
   inkscape:version="1.3 (0e150ed6c4, 2023-07-21)"
   xmlns:inkscape="http://www.inkscape.org/namespaces/inkscape"
   xmlns:sodipodi="http://sodipodi.sourceforge.net/DTD/sodipodi-0.dtd"
   xmlns:xlink="http://www.w3.org/1999/xlink"
   xmlns="http://www.w3.org/2000/svg"
   xmlns:svg="http://www.w3.org/2000/svg">
  <sodipodi:namedview
     id="namedview28"
     pagecolor="#ffffff"
     bordercolor="#666666"
     borderopacity="1.0"
     inkscape:showpageshadow="2"
     inkscape:pageopacity="0.0"
     inkscape:pagecheckerboard="0"
     inkscape:deskcolor="#d1d1d1"
     inkscape:zoom="1.3706721"
     inkscape:cx="245.5"
     inkscape:cy="216.31724"
     inkscape:window-width="1854"
     inkscape:window-height="1011"
     inkscape:window-x="66"
     inkscape:window-y="32"
     inkscape:window-maximized="1"
     inkscape:current-layer="svg28" />
  <defs
     id="defs1">
    <style
       type="text/css"
       id="style1">@namespace &quot;http://www.w3.org/2000/svg&quot;;.line { fill: none; stroke: #330000; stroke-width: 1; }&#10;.bold-line { stroke: #140000; shape-rendering: crispEdges; stroke-width: 2; }&#10;.thin-line { stroke: #1F0000; shape-rendering: crispEdges }&#10;.filled { fill: #330000; stroke: none; }&#10;text.terminal { font-family: HelveticaNeueCyr, Sans-serif;                            font-size: 14px;                            fill: #140000;                            font-weight: bold; }&#10;text.nonterminal { font-family: HelveticaNeueCyr, Sans-serif;                            font-size: 14px;                            fill: #1A0000;                            font-weight: normal; }&#10;text.regexp { font-family: HelveticaNeueCyr, Sans-serif;                            font-size: 14px;                            fill: #1F0000;                            font-weight: normal; }&#10;rect, circle, polygon { fill: #330000; stroke: #330000; }&#10;rect.terminal { fill: #FF4D4D; stroke: #330000; stroke-width: 1; }&#10;rect.nonterminal { fill: #FF9E9E; stroke: #330000; stroke-width: 1; }&#10;rect.text { fill: none; stroke: none; }&#10;polygon.regexp { fill: #FFC7C7; stroke: #330000; stroke-width: 1; }&#10;</style>
  </defs>
  <path
     id="polygon1"
     style="fill:#330000;stroke:#330000"
     d="M 9,17 1,13 v 8 z" />
  <path
     id="polygon2"
     style="fill:#330000;stroke:#330000"
     d="M 17,17 9,13 v 8 z" />
  <a
     xlink:href="#name"
     xlink:title="name"
     id="a3">
    <path
       id="rect2"
       style="fill:#330000;stroke:#330000"
       d="M 31,3 H 87 V 35 H 31 Z" />
    <path
       id="rect3"
       class="nonterminal"
       style="fill:#ff9e9e;stroke:#330000"
       d="M 29,1 H 85 V 33 H 29 Z" />
    <path
       d="m 41.016,13.776 v 1.12 q 0.896,-1.316 2.464,-1.316 1.274,0 1.834,0.672 0.574,0.658 0.574,1.946 V 21 h -1.19 v -4.256 q 0,-0.532 -0.042,-0.826 -0.028,-0.308 -0.168,-0.644 -0.14,-0.35 -0.476,-0.504 -0.336,-0.154 -0.868,-0.154 -2.058,0 -2.058,2.604 V 21 h -1.19 v -7.224 z m 13.061997,6.272 v 0.924 q -0.364,0.14 -0.812,0.14 -1.022,0 -1.05,-1.064 -1.022,1.148 -2.618,1.148 -1.064,0 -1.694,-0.546 -0.616,-0.546 -0.616,-1.498 0,-1.932 2.562,-2.254 1.512,-0.182 1.75,-0.266 0.504,-0.168 0.546,-0.7 0.014,-0.084 0.014,-0.182 0,-1.19 -1.638,-1.19 -0.84,0 -1.274,0.35 -0.434,0.336 -0.518,1.12 h -1.162 q 0.028,-1.162 0.826,-1.806 0.798,-0.644 2.198,-0.644 1.526,0 2.268,0.7 0.238,0.224 0.35,0.588 0.112,0.364 0.126,0.602 0.014,0.224 0.014,0.686 0,0.546 -0.028,1.624 -0.028,1.064 -0.028,1.596 0,0.392 0.098,0.56 0.112,0.154 0.392,0.154 0.112,0 0.294,-0.042 z m -1.918,-2.8 q -0.126,0.098 -0.266,0.168 -0.14,0.07 -0.364,0.112 -0.21,0.042 -0.294,0.07 -0.07,0.014 -0.364,0.056 -0.294,0.028 -0.308,0.028 -0.434,0.056 -0.574,0.084 -0.126,0.014 -0.504,0.112 -0.364,0.098 -0.518,0.224 -0.154,0.126 -0.308,0.378 -0.14,0.238 -0.14,0.574 0,0.56 0.378,0.882 0.392,0.322 1.064,0.322 0.854,0 1.526,-0.504 0.672,-0.504 0.672,-1.19 z m 4.158009,-3.472 v 1.05 q 0.476,-0.644 1.022,-0.938 0.546,-0.294 1.33,-0.294 1.484,0 2.002,1.246 0.938,-1.26 2.394,-1.26 1.12,0 1.694,0.63 0.588,0.616 0.588,1.736 V 21 h -1.19 v -4.55 q 0,-0.896 -0.28,-1.344 -0.28,-0.462 -1.162,-0.462 -1.848,0 -1.848,2.254 V 21 h -1.19 v -4.634 q 0,-0.826 -0.28,-1.26 -0.266,-0.448 -1.05,-0.448 -1.106,0 -1.54,0.686 -0.42,0.672 -0.42,1.834 V 21 h -1.19 v -7.224 z m 16.996009,4.942 q -0.546,2.52 -3.15,2.52 -1.596,0 -2.506,-0.994 -0.896,-0.994 -0.896,-2.758 0,-1.75 0.924,-2.828 0.938,-1.092 2.436,-1.092 1.666,0 2.464,1.134 0.812,1.12 0.812,2.842 v 0.168 h -5.432 l -0.014,0.084 q 0,1.148 0.602,1.806 0.602,0.658 1.652,0.658 0.784,0 1.232,-0.364 0.462,-0.364 0.714,-1.176 z m -1.148,-1.974 q -0.084,-1.036 -0.63,-1.61 -0.546,-0.588 -1.442,-0.588 -0.868,0 -1.442,0.588 -0.574,0.588 -0.686,1.61 z"
       id="text3"
       class="nonterminal"
       style="font-size:14px;font-family:HelveticaNeueCyr, Sans-serif;fill:#1a0000"
       aria-label="name" />
  </a>
  <path
     id="rect4"
     style="fill:#330000;stroke:#330000"
     d="m 137,3 h 38 c 5.54,0 10,4.46 10,10 v 12 c 0,5.54 -4.46,10 -10,10 h -38 c -5.54,0 -10,-4.46 -10,-10 V 13 c 0,-5.54 4.46,-10 10,-10 z" />
  <path
     id="rect5"
     class="terminal"
     style="fill:#ff4d4d;stroke:#330000"
     d="m 135,1 h 38 c 5.54,0 10,4.46 10,10 v 12 c 0,5.54 -4.46,10 -10,10 h -38 c -5.54,0 -10,-4.46 -10,-10 V 11 c 0,-5.54 4.46,-10 10,-10 z" />
  <path
     d="m 135.952,11.032 h 4.718 q 1.4,0 2.282,0.63 0.896,0.616 0.896,1.876 0,0.7 -0.364,1.246 -0.364,0.532 -0.994,0.812 1.82,0.518 1.82,2.436 0,1.414 -0.952,2.198 -0.952,0.77 -2.422,0.77 h -4.984 z m 2.128,1.694 v 2.338 h 1.988 q 1.652,0 1.652,-1.162 0,-0.686 -0.448,-0.924 -0.448,-0.252 -1.204,-0.252 z m 0,3.822 v 2.716 h 2.198 q 0.854,0 1.344,-0.28 0.504,-0.28 0.504,-1.078 0,-0.812 -0.532,-1.078 -0.518,-0.28 -1.428,-0.28 z m 12.25001,-5.754 q 2.184,0 3.528,1.456 1.358,1.442 1.358,3.78 0,2.338 -1.358,3.78 -1.344,1.428 -3.542,1.428 -2.212,0 -3.57,-1.428 -1.358,-1.442 -1.358,-3.78 0,-2.366 1.344,-3.794 1.358,-1.442 3.598,-1.442 z m -0.028,1.792 q -1.232,0 -1.974,0.924 -0.728,0.924 -0.728,2.478 0,1.61 0.728,2.52 0.728,0.91 2.002,0.924 1.246,0 1.96,-0.924 0.714,-0.924 0.714,-2.52 0,-1.568 -0.728,-2.478 -0.728,-0.924 -1.974,-0.924 z M 161.222,10.794 q 2.184,0 3.528,1.456 1.358,1.442 1.358,3.78 0,2.338 -1.358,3.78 -1.344,1.428 -3.542,1.428 -2.212,0 -3.57,-1.428 -1.358,-1.442 -1.358,-3.78 0,-2.366 1.344,-3.794 1.358,-1.442 3.598,-1.442 z m -0.028,1.792 q -1.232,0 -1.974,0.924 -0.728,0.924 -0.728,2.478 0,1.61 0.728,2.52 0.728,0.91 2.002,0.924 1.246,0 1.96,-0.924 0.714,-0.924 0.714,-2.52 0,-1.568 -0.728,-2.478 -0.728,-0.924 -1.974,-0.924 z m 13.468,6.538 V 21 h -7.056 v -9.968 h 2.184 v 8.092 z"
     id="text5"
     class="terminal"
     style="font-weight:bold;font-size:14px;font-family:HelveticaNeueCyr, Sans-serif;fill:#140000"
     aria-label="BOOL" />
  <path
     id="rect6"
     style="fill:#330000;stroke:#330000"
     d="m 137,47 h 62 c 5.54,0 10,4.46 10,10 v 12 c 0,5.54 -4.46,10 -10,10 h -62 c -5.54,0 -10,-4.46 -10,-10 V 57 c 0,-5.54 4.46,-10 10,-10 z" />
  <path
     id="rect7"
     class="terminal"
     style="fill:#ff4d4d;stroke:#330000"
     d="m 135,45 h 62 c 5.54,0 10,4.46 10,10 v 12 c 0,5.54 -4.46,10 -10,10 h -62 c -5.54,0 -10,-4.46 -10,-10 V 55 c 0,-5.54 4.46,-10 10,-10 z" />
  <path
     d="m 135.98,65 v -9.968 h 4.032 q 2.324,0 3.57,1.288 1.26,1.288 1.26,3.696 0,2.408 -1.26,3.696 Q 142.336,65 140.012,65 Z m 2.17,-1.82 h 1.596 q 2.898,0 2.898,-3.164 0,-1.526 -0.728,-2.338 -0.714,-0.826 -2.17,-0.826 h -1.596 z m 15.66599,-8.148 v 1.792 h -5.306 v 2.17 h 4.872 v 1.722 h -4.872 v 2.45 h 5.404 V 65 h -7.574 V 55.032 Z M 164.316,61.15 q -0.168,1.876 -1.316,2.982 -1.148,1.106 -3.15,1.106 -2.17,0 -3.5,-1.428 -1.316,-1.442 -1.316,-3.808 0,-2.24 1.33,-3.724 1.344,-1.484 3.57,-1.484 1.778,0 2.982,1.008 1.204,1.008 1.33,2.562 h -2.142 q -0.168,-0.826 -0.756,-1.274 -0.574,-0.462 -1.456,-0.462 -0.91,0 -1.54,0.518 -0.616,0.504 -0.868,1.246 -0.252,0.742 -0.252,1.624 0,1.54 0.714,2.464 0.714,0.91 1.918,0.91 2.002,0 2.282,-2.24 z m 3.66799,-6.118 V 65 h -2.198 v -9.968 z m 1.932,9.968 v -9.968 h 3.122 l 2.324,6.846 2.268,-6.846 h 3.052 V 65 h -2.058 v -7.084 l -2.45,7.084 h -1.694 l -2.478,-7.014 V 65 Z m 17.65399,-9.982 3.794,9.982 h -2.296 l -0.784,-2.226 h -3.71 l -0.812,2.226 h -2.24 l 3.794,-9.982 z m 0.182,6.16 -1.316,-3.71 -1.33,3.71 z m 11.508,1.946 V 65 h -7.056 v -9.968 h 2.184 v 8.092 z"
     id="text7"
     class="terminal"
     style="font-weight:bold;font-size:14px;font-family:HelveticaNeueCyr, Sans-serif;fill:#140000"
     aria-label="DECIMAL" />
  <path
     id="rect8"
     style="fill:#330000;stroke:#330000"
     d="m 137,91 h 56 c 5.54,0 10,4.46 10,10 v 12 c 0,5.54 -4.46,10 -10,10 h -56 c -5.54,0 -10,-4.46 -10,-10 v -12 c 0,-5.54 4.46,-10 10,-10 z" />
  <path
     id="rect9"
     class="terminal"
     style="fill:#ff4d4d;stroke:#330000"
     d="m 135,89 h 56 c 5.54,0 10,4.46 10,10 v 12 c 0,5.54 -4.46,10 -10,10 h -56 c -5.54,0 -10,-4.46 -10,-10 V 99 c 0,-5.54 4.46,-10 10,-10 z" />
  <path
     d="m 135.98,109 v -9.968 h 4.032 q 2.324,0 3.57,1.288 1.26,1.288 1.26,3.696 0,2.408 -1.26,3.696 -1.246,1.288 -3.57,1.288 z m 2.17,-1.82 h 1.596 q 2.898,0 2.898,-3.164 0,-1.526 -0.728,-2.338 -0.714,-0.826 -2.17,-0.826 h -1.596 z m 12.69799,-8.386 q 2.184,0 3.528,1.456 1.358,1.442 1.358,3.78 0,2.338 -1.358,3.78 -1.344,1.428 -3.542,1.428 -2.212,0 -3.57,-1.428 -1.358,-1.442 -1.358,-3.78 0,-2.366 1.344,-3.794 1.358,-1.442 3.598,-1.442 z m -0.028,1.792 q -1.232,0 -1.974,0.924 -0.728,0.924 -0.728,2.478 0,1.61 0.728,2.52 0.728,0.91 2.002,0.924 1.246,0 1.96,-0.924 0.714,-0.924 0.714,-2.52 0,-1.568 -0.728,-2.478 -0.728,-0.924 -1.974,-0.924 z m 14.896,-1.554 v 5.992 q 0,2.142 -1.036,3.164 -1.022,1.008 -3.206,1.008 -2.212,0 -3.262,-1.022 -1.036,-1.036 -1.036,-3.178 v -5.964 h 2.184 v 5.964 q 0,1.218 0.462,1.806 0.462,0.588 1.68,0.588 1.176,0 1.596,-0.588 0.434,-0.588 0.434,-1.806 v -5.964 z m 1.87599,0 h 4.718 q 1.4,0 2.282,0.63 0.896,0.616 0.896,1.876 0,0.7 -0.364,1.246 -0.364,0.532 -0.994,0.812 1.82,0.518 1.82,2.436 0,1.414 -0.952,2.198 -0.952,0.77 -2.422,0.77 h -4.984 z m 2.128,1.694 v 2.338 h 1.988 q 1.652,0 1.652,-1.162 0,-0.686 -0.448,-0.924 -0.448,-0.252 -1.204,-0.252 z m 0,3.822 v 2.716 h 2.198 q 0.854,0 1.344,-0.28 0.504,-0.28 0.504,-1.078 0,-0.812 -0.532,-1.078 -0.518,-0.28 -1.428,-0.28 z m 14.798,2.576 V 109 h -7.056 v -9.968 h 2.184 v 8.092 z m 8.72201,-8.092 v 1.792 h -5.306 v 2.17 h 4.872 v 1.722 h -4.872 v 2.45 h 5.404 V 109 h -7.574 v -9.968 z"
     id="text9"
     class="terminal"
     style="font-weight:bold;font-size:14px;font-family:HelveticaNeueCyr, Sans-serif;fill:#140000"
     aria-label="DOUBLE" />
  <path
     id="rect10"
     style="fill:#330000;stroke:#330000"
     d="m 137,135 h 24 c 5.54,0 10,4.46 10,10 v 12 c 0,5.54 -4.46,10 -10,10 h -24 c -5.54,0 -10,-4.46 -10,-10 v -12 c 0,-5.54 4.46,-10 10,-10 z" />
  <path
     id="rect11"
     class="terminal"
     style="fill:#ff4d4d;stroke:#330000"
     d="m 135,133 h 24 c 5.54,0 10,4.46 10,10 v 12 c 0,5.54 -4.46,10 -10,10 h -24 c -5.54,0 -10,-4.46 -10,-10 v -12 c 0,-5.54 4.46,-10 10,-10 z" />
  <path
     d="M 138.164,143.032 V 153 h -2.198 v -9.968 z m 1.932,9.968 v -9.968 h 2.226 l 4.102,6.678 v -6.678 h 2.1 V 153 h -2.184 l -4.13,-6.692 V 153 Z m 17.77999,-9.968 v 1.862 h -2.996 V 153 h -2.198 v -8.106 h -2.996 v -1.862 z"
     id="text11"
     class="terminal"
     style="font-weight:bold;font-size:14px;font-family:HelveticaNeueCyr, Sans-serif;fill:#140000"
     aria-label="INT" />
  <path
     id="rect12"
     style="fill:#330000;stroke:#330000"
     d="m 137,179 h 58 c 5.54,0 10,4.46 10,10 v 12 c 0,5.54 -4.46,10 -10,10 h -58 c -5.54,0 -10,-4.46 -10,-10 v -12 c 0,-5.54 4.46,-10 10,-10 z" />
  <path
     id="rect13"
     class="terminal"
     style="fill:#ff4d4d;stroke:#330000"
     d="m 135,177 h 58 c 5.54,0 10,4.46 10,10 v 12 c 0,5.54 -4.46,10 -10,10 h -58 c -5.54,0 -10,-4.46 -10,-10 v -12 c 0,-5.54 4.46,-10 10,-10 z" />
  <path
     d="m 135.966,197 v -9.968 h 2.226 l 4.102,6.678 v -6.678 h 2.1 V 197 h -2.184 l -4.13,-6.692 V 197 Z m 18.85799,-9.968 v 5.992 q 0,2.142 -1.036,3.164 -1.022,1.008 -3.206,1.008 -2.212,0 -3.262,-1.022 -1.036,-1.036 -1.036,-3.178 v -5.964 h 2.184 v 5.964 q 0,1.218 0.462,1.806 0.462,0.588 1.68,0.588 1.176,0 1.596,-0.588 0.434,-0.588 0.434,-1.806 v -5.964 z m 1.88999,9.968 v -9.968 h 3.122 l 2.324,6.846 2.268,-6.846 h 3.052 V 197 h -2.058 v -7.084 l -2.45,7.084 h -1.694 l -2.478,-7.014 V 197 Z m 12.68399,-9.968 h 4.718 q 1.4,0 2.282,0.63 0.896,0.616 0.896,1.876 0,0.7 -0.364,1.246 -0.364,0.532 -0.994,0.812 1.82,0.518 1.82,2.436 0,1.414 -0.952,2.198 -0.952,0.77 -2.422,0.77 h -4.984 z m 2.128,1.694 v 2.338 h 1.988 q 1.652,0 1.652,-1.162 0,-0.686 -0.448,-0.924 -0.448,-0.252 -1.204,-0.252 z m 0,3.822 v 2.716 h 2.198 q 0.854,0 1.344,-0.28 0.504,-0.28 0.504,-1.078 0,-0.812 -0.532,-1.078 -0.518,-0.28 -1.428,-0.28 z m 15.21801,-5.516 v 1.792 h -5.306 v 2.17 h 4.872 v 1.722 h -4.872 v 2.45 h 5.404 V 197 h -7.574 v -9.968 z m 1.68001,0 h 4.956 q 1.484,0 2.422,0.7 0.938,0.7 0.938,2.128 0,0.868 -0.42,1.526 -0.42,0.644 -1.162,0.924 1.288,0.266 1.47,2.324 0,0.07 0.028,0.434 0.028,0.364 0.056,0.588 0.028,0.21 0.07,0.518 0.042,0.308 0.126,0.518 0.084,0.21 0.196,0.308 h -2.268 q -0.112,-0.224 -0.168,-0.56 -0.056,-0.35 -0.098,-0.882 -0.042,-0.546 -0.042,-0.602 -0.112,-1.05 -0.532,-1.456 -0.406,-0.406 -1.456,-0.406 h -1.946 V 197 h -2.17 z m 2.17,1.722 v 2.758 h 2.072 q 0.91,0 1.414,-0.28 0.518,-0.294 0.518,-1.134 0,-0.784 -0.504,-1.064 -0.49,-0.28 -1.33,-0.28 z"
     id="text13"
     class="terminal"
     style="font-weight:bold;font-size:14px;font-family:HelveticaNeueCyr, Sans-serif;fill:#140000"
     aria-label="NUMBER" />
  <path
     id="rect14"
     style="fill:#330000;stroke:#330000"
     d="m 137,223 h 54 c 5.54,0 10,4.46 10,10 v 12 c 0,5.54 -4.46,10 -10,10 h -54 c -5.54,0 -10,-4.46 -10,-10 v -12 c 0,-5.54 4.46,-10 10,-10 z" />
  <path
     id="rect15"
     class="terminal"
     style="fill:#ff4d4d;stroke:#330000"
     d="m 135,221 h 54 c 5.54,0 10,4.46 10,10 v 12 c 0,5.54 -4.46,10 -10,10 h -54 c -5.54,0 -10,-4.46 -10,-10 v -12 c 0,-5.54 4.46,-10 10,-10 z" />
  <path
     d="m 143.344,234 h -2.072 q -0.126,-1.484 -1.89,-1.484 -0.756,0 -1.19,0.308 -0.42,0.294 -0.42,0.826 0,0.182 0.056,0.322 0.056,0.14 0.21,0.266 0.154,0.112 0.308,0.196 0.154,0.07 0.448,0.168 0.308,0.084 0.546,0.154 0.252,0.07 0.7,0.182 0.448,0.112 0.784,0.21 1.47,0.42 2.184,1.05 0.728,0.63 0.728,1.806 0,0.854 -0.35,1.498 -0.35,0.63 -0.952,1.008 -0.588,0.364 -1.302,0.532 -0.7,0.182 -1.498,0.182 -2.03,0 -3.178,-0.924 -1.134,-0.938 -1.148,-2.632 h 2.17 q 0.056,1.876 2.254,1.876 0.854,0 1.344,-0.35 0.504,-0.364 0.504,-0.98 0,-0.518 -0.462,-0.756 -0.448,-0.238 -1.904,-0.658 -0.238,-0.056 -0.364,-0.098 -0.504,-0.14 -0.7,-0.196 -0.196,-0.07 -0.63,-0.224 -0.42,-0.154 -0.616,-0.28 -0.196,-0.126 -0.49,-0.35 -0.28,-0.224 -0.406,-0.462 -0.126,-0.252 -0.238,-0.602 -0.098,-0.364 -0.098,-0.784 0,-1.358 1.05,-2.17 1.05,-0.812 2.786,-0.812 1.68,0 2.744,0.798 1.064,0.784 1.092,2.38 z m 10.612,3.15 q -0.168,1.876 -1.316,2.982 -1.148,1.106 -3.15,1.106 -2.17,0 -3.5,-1.428 -1.316,-1.442 -1.316,-3.808 0,-2.24 1.33,-3.724 1.344,-1.484 3.57,-1.484 1.778,0 2.982,1.008 1.204,1.008 1.33,2.562 h -2.142 q -0.168,-0.826 -0.756,-1.274 -0.574,-0.462 -1.456,-0.462 -0.91,0 -1.54,0.518 -0.616,0.504 -0.868,1.246 -0.252,0.742 -0.252,1.624 0,1.54 0.714,2.464 0.714,0.91 1.918,0.91 2.002,0 2.282,-2.24 z m 6.42599,-6.132 3.794,9.982 h -2.296 l -0.784,-2.226 h -3.71 l -0.812,2.226 h -2.24 l 3.794,-9.982 z m 0.182,6.16 -1.316,-3.71 -1.33,3.71 z m 11.50799,1.946 V 241 h -7.056 v -9.968 h 2.184 v 8.092 z m 6.20201,-8.106 3.794,9.982 h -2.296 l -0.784,-2.226 h -3.71 l -0.812,2.226 h -2.24 l 3.794,-9.982 z m 0.182,6.16 -1.316,-3.71 -1.33,3.71 z m 4.53599,-6.146 h 4.956 q 1.484,0 2.422,0.7 0.938,0.7 0.938,2.128 0,0.868 -0.42,1.526 -0.42,0.644 -1.162,0.924 1.288,0.266 1.47,2.324 0,0.07 0.028,0.434 0.028,0.364 0.056,0.588 0.028,0.21 0.07,0.518 0.042,0.308 0.126,0.518 0.084,0.21 0.196,0.308 h -2.268 q -0.112,-0.224 -0.168,-0.56 -0.056,-0.35 -0.098,-0.882 -0.042,-0.546 -0.042,-0.602 -0.112,-1.05 -0.532,-1.456 -0.406,-0.406 -1.456,-0.406 h -1.946 V 241 h -2.17 z m 2.17,1.722 v 2.758 h 2.072 q 0.91,0 1.414,-0.28 0.518,-0.294 0.518,-1.134 0,-0.784 -0.504,-1.064 -0.49,-0.28 -1.33,-0.28 z"
     id="text15"
     class="terminal"
     style="font-weight:bold;font-size:14px;font-family:HelveticaNeueCyr, Sans-serif;fill:#140000"
     aria-label="SCALAR" />
  <path
     id="rect16"
     style="fill:#330000;stroke:#330000"
     d="m 137,267 h 52 c 5.54,0 10,4.46 10,10 v 12 c 0,5.54 -4.46,10 -10,10 h -52 c -5.54,0 -10,-4.46 -10,-10 v -12 c 0,-5.54 4.46,-10 10,-10 z" />
  <path
     id="rect17"
     class="terminal"
     style="fill:#ff4d4d;stroke:#330000"
     d="m 135,265 h 52 c 5.54,0 10,4.46 10,10 v 12 c 0,5.54 -4.46,10 -10,10 h -52 c -5.54,0 -10,-4.46 -10,-10 v -12 c 0,-5.54 4.46,-10 10,-10 z" />
  <path
     d="m 143.344,278 h -2.072 q -0.126,-1.484 -1.89,-1.484 -0.756,0 -1.19,0.308 -0.42,0.294 -0.42,0.826 0,0.182 0.056,0.322 0.056,0.14 0.21,0.266 0.154,0.112 0.308,0.196 0.154,0.07 0.448,0.168 0.308,0.084 0.546,0.154 0.252,0.07 0.7,0.182 0.448,0.112 0.784,0.21 1.47,0.42 2.184,1.05 0.728,0.63 0.728,1.806 0,0.854 -0.35,1.498 -0.35,0.63 -0.952,1.008 -0.588,0.364 -1.302,0.532 -0.7,0.182 -1.498,0.182 -2.03,0 -3.178,-0.924 -1.134,-0.938 -1.148,-2.632 h 2.17 q 0.056,1.876 2.254,1.876 0.854,0 1.344,-0.35 0.504,-0.364 0.504,-0.98 0,-0.518 -0.462,-0.756 -0.448,-0.238 -1.904,-0.658 -0.238,-0.056 -0.364,-0.098 -0.504,-0.14 -0.7,-0.196 -0.196,-0.07 -0.63,-0.224 -0.42,-0.154 -0.616,-0.28 -0.196,-0.126 -0.49,-0.35 -0.28,-0.224 -0.406,-0.462 -0.126,-0.252 -0.238,-0.602 -0.098,-0.364 -0.098,-0.784 0,-1.358 1.05,-2.17 1.05,-0.812 2.786,-0.812 1.68,0 2.744,0.798 1.064,0.784 1.092,2.38 z m 9.114,-2.968 v 1.862 h -2.996 V 285 h -2.198 v -8.106 h -2.996 v -1.862 z m 1.232,0 h 4.956 q 1.484,0 2.422,0.7 0.938,0.7 0.938,2.128 0,0.868 -0.42,1.526 -0.42,0.644 -1.162,0.924 1.288,0.266 1.47,2.324 0,0.07 0.028,0.434 0.028,0.364 0.056,0.588 0.028,0.21 0.07,0.518 0.042,0.308 0.126,0.518 0.084,0.21 0.196,0.308 h -2.268 q -0.112,-0.224 -0.168,-0.56 -0.056,-0.35 -0.098,-0.882 -0.042,-0.546 -0.042,-0.602 -0.112,-1.05 -0.532,-1.456 -0.406,-0.406 -1.456,-0.406 H 155.86 V 285 h -2.17 z m 2.17,1.722 v 2.758 h 2.072 q 0.91,0 1.414,-0.28 0.518,-0.294 0.518,-1.134 0,-0.784 -0.504,-1.064 -0.49,-0.28 -1.33,-0.28 z m 10.052,-1.722 V 285 h -2.198 v -9.968 z m 1.93201,9.968 v -9.968 h 2.226 l 4.102,6.678 v -6.678 h 2.1 V 285 h -2.184 l -4.13,-6.692 V 285 Z M 187.094,279.61 V 285 h -1.386 l -0.21,-1.134 q -1.12,1.372 -2.996,1.372 -2.086,0 -3.388,-1.442 -1.302,-1.442 -1.302,-3.738 0,-2.31 1.372,-3.766 1.372,-1.47 3.528,-1.47 1.708,0 2.884,0.966 1.176,0.952 1.372,2.52 h -2.114 q -0.154,-0.784 -0.728,-1.218 -0.574,-0.434 -1.442,-0.434 -1.246,0 -1.96,0.91 -0.714,0.896 -0.714,2.492 0,1.624 0.714,2.534 0.728,0.896 2.03,0.896 1.022,0 1.68,-0.616 0.658,-0.63 0.7,-1.638 h -2.226 v -1.624 z"
     id="text17"
     class="terminal"
     style="font-weight:bold;font-size:14px;font-family:HelveticaNeueCyr, Sans-serif;fill:#140000"
     aria-label="STRING" />
  <path
     id="rect18"
     style="fill:#330000;stroke:#330000"
     d="m 137,311 h 34 c 5.54,0 10,4.46 10,10 v 12 c 0,5.54 -4.46,10 -10,10 h -34 c -5.54,0 -10,-4.46 -10,-10 v -12 c 0,-5.54 4.46,-10 10,-10 z" />
  <path
     id="rect19"
     class="terminal"
     style="fill:#ff4d4d;stroke:#330000"
     d="m 135,309 h 34 c 5.54,0 10,4.46 10,10 v 12 c 0,5.54 -4.46,10 -10,10 h -34 c -5.54,0 -10,-4.46 -10,-10 v -12 c 0,-5.54 4.46,-10 10,-10 z" />
  <path
     d="m 143.372,319.032 v 1.862 h -2.996 V 329 h -2.198 v -8.106 h -2.996 v -1.862 z m 8.624,0 v 1.792 h -5.306 v 2.17 h 4.872 v 1.722 h -4.872 v 2.45 h 5.404 V 329 h -7.574 v -9.968 z m 9.74401,0 -3.206,4.76 3.5,5.208 h -2.618 l -2.184,-3.458 -2.212,3.458 h -2.492 l 3.514,-5.208 -3.248,-4.76 h 2.548 l 1.988,3.206 2.002,-3.206 z m 8.596,0 v 1.862 h -2.996 V 329 h -2.198 v -8.106 h -2.996 v -1.862 z"
     id="text19"
     class="terminal"
     style="font-weight:bold;font-size:14px;font-family:HelveticaNeueCyr, Sans-serif;fill:#140000"
     aria-label="TEXT" />
  <path
     id="rect20"
     style="fill:#330000;stroke:#330000"
     d="m 137,355 h 72 c 5.54,0 10,4.46 10,10 v 12 c 0,5.54 -4.46,10 -10,10 h -72 c -5.54,0 -10,-4.46 -10,-10 v -12 c 0,-5.54 4.46,-10 10,-10 z" />
  <path
     id="rect21"
     class="terminal"
     style="fill:#ff4d4d;stroke:#330000"
     d="m 135,353 h 72 c 5.54,0 10,4.46 10,10 v 12 c 0,5.54 -4.46,10 -10,10 h -72 c -5.54,0 -10,-4.46 -10,-10 v -12 c 0,-5.54 4.46,-10 10,-10 z" />
  <path
     d="m 144.45,363.032 v 5.992 q 0,2.142 -1.036,3.164 -1.022,1.008 -3.206,1.008 -2.212,0 -3.262,-1.022 -1.036,-1.036 -1.036,-3.178 v -5.964 h 2.184 v 5.964 q 0,1.218 0.462,1.806 0.462,0.588 1.68,0.588 1.176,0 1.596,-0.588 0.434,-0.588 0.434,-1.806 v -5.964 z m 1.88999,9.968 v -9.968 h 2.226 l 4.102,6.678 v -6.678 h 2.1 V 373 h -2.184 l -4.13,-6.692 V 373 Z m 17.75199,-7 h -2.072 q -0.126,-1.484 -1.89,-1.484 -0.756,0 -1.19,0.308 -0.42,0.294 -0.42,0.826 0,0.182 0.056,0.322 0.056,0.14 0.21,0.266 0.154,0.112 0.308,0.196 0.154,0.07 0.448,0.168 0.308,0.084 0.546,0.154 0.252,0.07 0.7,0.182 0.448,0.112 0.784,0.21 1.47,0.42 2.184,1.05 0.728,0.63 0.728,1.806 0,0.854 -0.35,1.498 -0.35,0.63 -0.952,1.008 -0.588,0.364 -1.302,0.532 -0.7,0.182 -1.498,0.182 -2.03,0 -3.178,-0.924 -1.134,-0.938 -1.148,-2.632 h 2.17 q 0.056,1.876 2.254,1.876 0.854,0 1.344,-0.35 0.504,-0.364 0.504,-0.98 0,-0.518 -0.462,-0.756 -0.448,-0.238 -1.904,-0.658 -0.238,-0.056 -0.364,-0.098 -0.504,-0.14 -0.7,-0.196 -0.196,-0.07 -0.63,-0.224 -0.42,-0.154 -0.616,-0.28 -0.196,-0.126 -0.49,-0.35 -0.28,-0.224 -0.406,-0.462 -0.126,-0.252 -0.238,-0.602 -0.098,-0.364 -0.098,-0.784 0,-1.358 1.05,-2.17 1.05,-0.812 2.786,-0.812 1.68,0 2.744,0.798 1.064,0.784 1.092,2.38 z m 3.906,-2.968 V 373 h -2.198 v -9.968 z m 10.808,4.578 V 373 h -1.386 l -0.21,-1.134 q -1.12,1.372 -2.996,1.372 -2.086,0 -3.388,-1.442 -1.302,-1.442 -1.302,-3.738 0,-2.31 1.372,-3.766 1.372,-1.47 3.528,-1.47 1.708,0 2.884,0.966 1.176,0.952 1.372,2.52 h -2.114 q -0.154,-0.784 -0.728,-1.218 -0.574,-0.434 -1.442,-0.434 -1.246,0 -1.96,0.91 -0.714,0.896 -0.714,2.492 0,1.624 0.714,2.534 0.728,0.896 2.03,0.896 1.022,0 1.68,-0.616 0.658,-0.63 0.7,-1.638 h -2.226 v -1.624 z m 1.75001,5.39 v -9.968 h 2.226 l 4.102,6.678 v -6.678 h 2.1 V 373 h -2.184 l -4.13,-6.692 V 373 Z m 17.84999,-9.968 v 1.792 h -5.306 v 2.17 h 4.872 v 1.722 h -4.872 v 2.45 h 5.404 V 373 h -7.574 v -9.968 z M 200.016,373 v -9.968 h 4.032 q 2.324,0 3.57,1.288 1.26,1.288 1.26,3.696 0,2.408 -1.26,3.696 -1.246,1.288 -3.57,1.288 z m 2.17,-1.82 h 1.596 q 2.898,0 2.898,-3.164 0,-1.526 -0.728,-2.338 -0.714,-0.826 -2.17,-0.826 h -1.596 z"
     id="text21"
     class="terminal"
     style="font-weight:bold;font-size:14px;font-family:HelveticaNeueCyr, Sans-serif;fill:#140000"
     aria-label="UNSIGNED" />
  <path
     id="rect22"
     style="fill:#330000;stroke:#330000"
     d="m 137,399 h 66 c 5.54,0 10,4.46 10,10 v 12 c 0,5.54 -4.46,10 -10,10 h -66 c -5.54,0 -10,-4.46 -10,-10 v -12 c 0,-5.54 4.46,-10 10,-10 z" />
  <path
     id="rect23"
     class="terminal"
     style="fill:#ff4d4d;stroke:#330000"
     d="m 135,397 h 66 c 5.54,0 10,4.46 10,10 v 12 c 0,5.54 -4.46,10 -10,10 h -66 c -5.54,0 -10,-4.46 -10,-10 v -12 c 0,-5.54 4.46,-10 10,-10 z" />
  <path
     d="m 134.888,407.032 h 2.282 l 2.24,7 2.268,-7 h 2.268 L 140.628,417 h -2.478 z m 14.20999,-0.014 3.794,9.982 h -2.296 l -0.784,-2.226 h -3.71 l -0.812,2.226 h -2.24 l 3.794,-9.982 z m 0.182,6.16 -1.316,-3.71 -1.33,3.71 z m 4.536,-6.146 h 4.956 q 1.484,0 2.422,0.7 0.938,0.7 0.938,2.128 0,0.868 -0.42,1.526 -0.42,0.644 -1.162,0.924 1.288,0.266 1.47,2.324 0,0.07 0.028,0.434 0.028,0.364 0.056,0.588 0.028,0.21 0.07,0.518 0.042,0.308 0.126,0.518 0.084,0.21 0.196,0.308 h -2.268 q -0.112,-0.224 -0.168,-0.56 -0.056,-0.35 -0.098,-0.882 -0.042,-0.546 -0.042,-0.602 -0.112,-1.05 -0.532,-1.456 -0.406,-0.406 -1.456,-0.406 h -1.946 V 417 h -2.17 z m 2.17,1.722 v 2.758 h 2.072 q 0.91,0 1.414,-0.28 0.518,-0.294 0.518,-1.134 0,-0.784 -0.504,-1.064 -0.49,-0.28 -1.33,-0.28 z m 16.758,4.396 q -0.168,1.876 -1.316,2.982 -1.148,1.106 -3.15,1.106 -2.17,0 -3.5,-1.428 -1.316,-1.442 -1.316,-3.808 0,-2.24 1.33,-3.724 1.344,-1.484 3.57,-1.484 1.778,0 2.982,1.008 1.204,1.008 1.33,2.562 h -2.142 q -0.168,-0.826 -0.756,-1.274 -0.574,-0.462 -1.456,-0.462 -0.91,0 -1.54,0.518 -0.616,0.504 -0.868,1.246 -0.252,0.742 -0.252,1.624 0,1.54 0.714,2.464 0.714,0.91 1.918,0.91 2.002,0 2.282,-2.24 z m 9.91199,-6.118 V 417 h -2.184 v -4.298 h -4.074 V 417 h -2.184 v -9.968 h 2.184 v 3.752 h 4.074 v -3.752 z m 6.88799,-0.014 3.794,9.982 h -2.296 l -0.784,-2.226 h -3.71 l -0.812,2.226 h -2.24 l 3.794,-9.982 z m 0.182,6.16 -1.316,-3.71 -1.33,3.71 z m 4.53599,-6.146 h 4.956 q 1.484,0 2.422,0.7 0.938,0.7 0.938,2.128 0,0.868 -0.42,1.526 -0.42,0.644 -1.162,0.924 1.288,0.266 1.47,2.324 0,0.07 0.028,0.434 0.028,0.364 0.056,0.588 0.028,0.21 0.07,0.518 0.042,0.308 0.126,0.518 0.084,0.21 0.196,0.308 h -2.268 q -0.112,-0.224 -0.168,-0.56 -0.056,-0.35 -0.098,-0.882 -0.042,-0.546 -0.042,-0.602 -0.112,-1.05 -0.532,-1.456 -0.406,-0.406 -1.456,-0.406 h -1.946 V 417 h -2.17 z m 2.17,1.722 v 2.758 h 2.072 q 0.91,0 1.414,-0.28 0.518,-0.294 0.518,-1.134 0,-0.784 -0.504,-1.064 -0.49,-0.28 -1.33,-0.28 z"
     id="text23"
     class="terminal"
     style="font-weight:bold;font-size:14px;font-family:HelveticaNeueCyr, Sans-serif;fill:#140000"
     aria-label="VARCHAR" />
  <path
     id="rect24"
     style="fill:#330000;stroke:#330000"
     d="m 309,67 h 28 c 5.54,0 10,4.46 10,10 v 12 c 0,5.54 -4.46,10 -10,10 h -28 c -5.54,0 -10,-4.46 -10,-10 V 77 c 0,-5.54 4.46,-10 10,-10 z" />
  <path
     id="rect25"
     class="terminal"
     style="fill:#ff4d4d;stroke:#330000"
     d="m 307,65 h 28 c 5.54,0 10,4.46 10,10 v 12 c 0,5.54 -4.46,10 -10,10 h -28 c -5.54,0 -10,-4.46 -10,-10 V 75 c 0,-5.54 4.46,-10 10,-10 z" />
  <path
     d="m 307.966,85 v -9.968 h 2.226 l 4.102,6.678 v -6.678 h 2.1 V 85 h -2.184 l -4.13,-6.692 V 85 Z m 14.88199,-10.206 q 2.184,0 3.528,1.456 1.358,1.442 1.358,3.78 0,2.338 -1.358,3.78 -1.344,1.428 -3.542,1.428 -2.212,0 -3.57,-1.428 -1.358,-1.442 -1.358,-3.78 0,-2.366 1.344,-3.794 1.358,-1.442 3.598,-1.442 z m -0.028,1.792 q -1.232,0 -1.974,0.924 -0.728,0.924 -0.728,2.478 0,1.61 0.728,2.52 0.728,0.91 2.002,0.924 1.246,0 1.96,-0.924 0.714,-0.924 0.714,-2.52 0,-1.568 -0.728,-2.478 -0.728,-0.924 -1.974,-0.924 z m 13.818,-1.554 v 1.862 h -2.996 V 85 h -2.198 v -8.106 h -2.996 v -1.862 z"
     id="text25"
     class="terminal"
     style="font-weight:bold;font-size:14px;font-family:HelveticaNeueCyr, Sans-serif;fill:#140000"
     aria-label="NOT" />
  <path
     id="rect26"
     style="fill:#330000;stroke:#330000"
     d="m 397,35 h 36 c 5.54,0 10,4.46 10,10 v 12 c 0,5.54 -4.46,10 -10,10 h -36 c -5.54,0 -10,-4.46 -10,-10 V 45 c 0,-5.54 4.46,-10 10,-10 z" />
  <path
     id="rect27"
     class="terminal"
     style="fill:#ff4d4d;stroke:#330000"
     d="m 395,33 h 36 c 5.54,0 10,4.46 10,10 v 12 c 0,5.54 -4.46,10 -10,10 h -36 c -5.54,0 -10,-4.46 -10,-10 V 43 c 0,-5.54 4.46,-10 10,-10 z" />
  <path
     d="m 395.966,53 v -9.968 h 2.226 l 4.102,6.678 v -6.678 h 2.1 V 53 h -2.184 l -4.13,-6.692 V 53 Z m 18.85799,-9.968 v 5.992 q 0,2.142 -1.036,3.164 -1.022,1.008 -3.206,1.008 -2.212,0 -3.262,-1.022 -1.036,-1.036 -1.036,-3.178 v -5.964 h 2.184 v 5.964 q 0,1.218 0.462,1.806 0.462,0.588 1.68,0.588 1.176,0 1.596,-0.588 0.434,-0.588 0.434,-1.806 v -5.964 z m 8.94599,8.092 V 53 h -7.056 v -9.968 h 2.184 v 8.092 z m 8.302,0 V 53 h -7.056 v -9.968 h 2.184 v 8.092 z"
     id="text27"
     class="terminal"
     style="font-weight:bold;font-size:14px;font-family:HelveticaNeueCyr, Sans-serif;fill:#140000"
     aria-label="NULL" />
  <path
     class="line"
     d="m17 17 h2 m0 0 h10 m56 0 h10 m20 0 h10 m58 0 h10 m0 0 h34 m-132 0 h20 m112 0 h20 m-152 0 q10 0 10 10 m132 0 q0 -10 10 -10 m-142 10 v24 m132 0 v-24 m-132 24 q0 10 10 10 m112 0 q10 0 10 -10 m-122 10 h10 m82 0 h10 m0 0 h10 m-122 -10 v20 m132 0 v-20 m-132 20 v24 m132 0 v-24 m-132 24 q0 10 10 10 m112 0 q10 0 10 -10 m-122 10 h10 m76 0 h10 m0 0 h16 m-122 -10 v20 m132 0 v-20 m-132 20 v24 m132 0 v-24 m-132 24 q0 10 10 10 m112 0 q10 0 10 -10 m-122 10 h10 m44 0 h10 m0 0 h48 m-122 -10 v20 m132 0 v-20 m-132 20 v24 m132 0 v-24 m-132 24 q0 10 10 10 m112 0 q10 0 10 -10 m-122 10 h10 m78 0 h10 m0 0 h14 m-122 -10 v20 m132 0 v-20 m-132 20 v24 m132 0 v-24 m-132 24 q0 10 10 10 m112 0 q10 0 10 -10 m-122 10 h10 m74 0 h10 m0 0 h18 m-122 -10 v20 m132 0 v-20 m-132 20 v24 m132 0 v-24 m-132 24 q0 10 10 10 m112 0 q10 0 10 -10 m-122 10 h10 m72 0 h10 m0 0 h20 m-122 -10 v20 m132 0 v-20 m-132 20 v24 m132 0 v-24 m-132 24 q0 10 10 10 m112 0 q10 0 10 -10 m-122 10 h10 m54 0 h10 m0 0 h38 m-122 -10 v20 m132 0 v-20 m-132 20 v24 m132 0 v-24 m-132 24 q0 10 10 10 m112 0 q10 0 10 -10 m-122 10 h10 m92 0 h10 m-122 -10 v20 m132 0 v-20 m-132 20 v24 m132 0 v-24 m-132 24 q0 10 10 10 m112 0 q10 0 10 -10 m-122 10 h10 m86 0 h10 m0 0 h6 m40 -396 h10 m0 0 h174 m-204 0 h20 m184 0 h20 m-224 0 q10 0 10 10 m204 0 q0 -10 10 -10 m-214 10 v12 m204 0 v-12 m-204 12 q0 10 10 10 m184 0 q10 0 10 -10 m-174 10 h10 m0 0 h58 m-88 0 h20 m68 0 h20 m-108 0 q10 0 10 10 m88 0 q0 -10 10 -10 m-98 10 v12 m88 0 v-12 m-88 12 q0 10 10 10 m68 0 q10 0 10 -10 m-78 10 h10 m48 0 h10 m20 -32 h10 m56 0 h10 m23 -32 h-3"
     id="path27" />
  <path
     id="polygon27"
     style="fill:#330000;stroke:#330000"
     d="m 481,17 8,-4 v 8 z" />
  <path
     id="polygon28"
     style="fill:#330000;stroke:#330000"
     d="m 481,17 -8,-4 v 8 z" />
</svg>
