<?xml version="1.0" encoding="UTF-8" standalone="no"?>
<svg
   width="463"
   height="433"
   version="1.1"
   id="svg28"
   sodipodi:docname="Column.svg"
   inkscape:version="1.3 (0e150ed6c4, 2023-07-21)"
   xmlns:inkscape="http://www.inkscape.org/namespaces/inkscape"
   xmlns:sodipodi="http://sodipodi.sourceforge.net/DTD/sodipodi-0.dtd"
   xmlns:xlink="http://www.w3.org/1999/xlink"
   xmlns="http://www.w3.org/2000/svg"
   xmlns:svg="http://www.w3.org/2000/svg">
  <sodipodi:namedview
     id="namedview28"
     pagecolor="#ffffff"
     bordercolor="#666666"
     borderopacity="1.0"
     inkscape:showpageshadow="2"
     inkscape:pageopacity="0.0"
     inkscape:pagecheckerboard="0"
     inkscape:deskcolor="#d1d1d1"
     inkscape:zoom="1.8637413"
     inkscape:cx="231.52354"
     inkscape:cy="216.5"
     inkscape:window-width="1854"
     inkscape:window-height="1011"
     inkscape:window-x="66"
     inkscape:window-y="32"
     inkscape:window-maximized="1"
     inkscape:current-layer="svg28" />
  <defs
     id="defs1">
    <style
       type="text/css"
       id="style1">@namespace &quot;http://www.w3.org/2000/svg&quot;;.line { fill: none; stroke: #330000; stroke-width: 1; }&#10;.bold-line { stroke: #140000; shape-rendering: crispEdges; stroke-width: 2; }&#10;.thin-line { stroke: #1F0000; shape-rendering: crispEdges }&#10;.filled { fill: #330000; stroke: none; }&#10;text.terminal { font-family: HelveticaNeueCyr, Sans-serif;                            font-size: 14px;                            fill: #140000;                            font-weight: bold; }&#10;text.nonterminal { font-family: HelveticaNeueCyr, Sans-serif;                            font-size: 14px;                            fill: #1A0000;                            font-weight: normal; }&#10;text.regexp { font-family: HelveticaNeueCyr, Sans-serif;                            font-size: 14px;                            fill: #1F0000;                            font-weight: normal; }&#10;rect, circle, polygon { fill: #330000; stroke: #330000; }&#10;rect.terminal { fill: #FF4D4D; stroke: #330000; stroke-width: 1; }&#10;rect.nonterminal { fill: #FF9E9E; stroke: #330000; stroke-width: 1; }&#10;rect.text { fill: none; stroke: none; }&#10;polygon.regexp { fill: #FFC7C7; stroke: #330000; stroke-width: 1; }&#10;</style>
  </defs>
  <path
     id="polygon1"
     style="fill:#330000;stroke:#330000"
     d="M 9,17 1,13 v 8 z" />
  <path
     id="polygon2"
     style="fill:#330000;stroke:#330000"
     d="M 17,17 9,13 v 8 z" />
  <a
     xlink:href="#name"
     xlink:title="name"
     id="a3">
    <path
       id="rect2"
       style="fill:#330000;stroke:#330000"
       d="M 31,3 H 87 V 35 H 31 Z" />
    <path
       id="rect3"
       class="nonterminal"
       style="fill:#ff9e9e;stroke:#330000"
       d="M 29,1 H 85 V 33 H 29 Z" />
    <path
       d="m 41.016,13.776 v 1.12 q 0.896,-1.316 2.464,-1.316 1.274,0 1.834,0.672 0.574,0.658 0.574,1.946 V 21 h -1.19 v -4.256 q 0,-0.532 -0.042,-0.826 -0.028,-0.308 -0.168,-0.644 -0.14,-0.35 -0.476,-0.504 -0.336,-0.154 -0.868,-0.154 -2.058,0 -2.058,2.604 V 21 h -1.19 v -7.224 z m 13.061997,6.272 v 0.924 q -0.364,0.14 -0.812,0.14 -1.022,0 -1.05,-1.064 -1.022,1.148 -2.618,1.148 -1.064,0 -1.694,-0.546 -0.616,-0.546 -0.616,-1.498 0,-1.932 2.562,-2.254 1.512,-0.182 1.75,-0.266 0.504,-0.168 0.546,-0.7 0.014,-0.084 0.014,-0.182 0,-1.19 -1.638,-1.19 -0.84,0 -1.274,0.35 -0.434,0.336 -0.518,1.12 h -1.162 q 0.028,-1.162 0.826,-1.806 0.798,-0.644 2.198,-0.644 1.526,0 2.268,0.7 0.238,0.224 0.35,0.588 0.112,0.364 0.126,0.602 0.014,0.224 0.014,0.686 0,0.546 -0.028,1.624 -0.028,1.064 -0.028,1.596 0,0.392 0.098,0.56 0.112,0.154 0.392,0.154 0.112,0 0.294,-0.042 z m -1.918,-2.8 q -0.126,0.098 -0.266,0.168 -0.14,0.07 -0.364,0.112 -0.21,0.042 -0.294,0.07 -0.07,0.014 -0.364,0.056 -0.294,0.028 -0.308,0.028 -0.434,0.056 -0.574,0.084 -0.126,0.014 -0.504,0.112 -0.364,0.098 -0.518,0.224 -0.154,0.126 -0.308,0.378 -0.14,0.238 -0.14,0.574 0,0.56 0.378,0.882 0.392,0.322 1.064,0.322 0.854,0 1.526,-0.504 0.672,-0.504 0.672,-1.19 z m 4.158009,-3.472 v 1.05 q 0.476,-0.644 1.022,-0.938 0.546,-0.294 1.33,-0.294 1.484,0 2.002,1.246 0.938,-1.26 2.394,-1.26 1.12,0 1.694,0.63 0.588,0.616 0.588,1.736 V 21 h -1.19 v -4.55 q 0,-0.896 -0.28,-1.344 -0.28,-0.462 -1.162,-0.462 -1.848,0 -1.848,2.254 V 21 h -1.19 v -4.634 q 0,-0.826 -0.28,-1.26 -0.266,-0.448 -1.05,-0.448 -1.106,0 -1.54,0.686 -0.42,0.672 -0.42,1.834 V 21 h -1.19 v -7.224 z m 16.996009,4.942 q -0.546,2.52 -3.15,2.52 -1.596,0 -2.506,-0.994 -0.896,-0.994 -0.896,-2.758 0,-1.75 0.924,-2.828 0.938,-1.092 2.436,-1.092 1.666,0 2.464,1.134 0.812,1.12 0.812,2.842 v 0.168 h -5.432 l -0.014,0.084 q 0,1.148 0.602,1.806 0.602,0.658 1.652,0.658 0.784,0 1.232,-0.364 0.462,-0.364 0.714,-1.176 z m -1.148,-1.974 q -0.084,-1.036 -0.63,-1.61 -0.546,-0.588 -1.442,-0.588 -0.868,0 -1.442,0.588 -0.574,0.588 -0.686,1.61 z"
       id="text3"
       class="nonterminal"
       style="font-size:14px;font-family:HelveticaNeueCyr, Sans-serif;fill:#1a0000"
       aria-label="name" />
  </a>
  <path
     id="rect4"
     style="fill:#330000;stroke:#330000"
     d="m 137,3 h 30 c 5.54,0 10,4.46 10,10 v 12 c 0,5.54 -4.46,10 -10,10 h -30 c -5.54,0 -10,-4.46 -10,-10 V 13 c 0,-5.54 4.46,-10 10,-10 z" />
  <path
     id="rect5"
     class="terminal"
     style="fill:#ff4d4d;stroke:#330000"
     d="m 135,1 h 30 c 5.54,0 10,4.46 10,10 v 12 c 0,5.54 -4.46,10 -10,10 h -30 c -5.54,0 -10,-4.46 -10,-10 V 11 c 0,-5.54 4.46,-10 10,-10 z" />
  <path
     d="m 135.952,11.032 h 4.718 q 1.4,0 2.282,0.63 0.896,0.616 0.896,1.876 0,0.7 -0.364,1.246 -0.364,0.532 -0.994,0.812 1.82,0.518 1.82,2.436 0,1.414 -0.952,2.198 -0.952,0.77 -2.422,0.77 h -4.984 z m 2.128,1.694 v 2.338 h 1.988 q 1.652,0 1.652,-1.162 0,-0.686 -0.448,-0.924 -0.448,-0.252 -1.204,-0.252 z m 0,3.822 v 2.716 h 2.198 q 0.854,0 1.344,-0.28 0.504,-0.28 0.504,-1.078 0,-0.812 -0.532,-1.078 -0.518,-0.28 -1.428,-0.28 z m 11.08801,-2.982 q 1.666,0 2.674,1.05 1.022,1.05 1.022,2.772 0,1.736 -1.022,2.786 -1.008,1.05 -2.702,1.05 -1.694,0 -2.716,-1.05 -1.022,-1.05 -1.022,-2.786 0,-1.722 1.036,-2.772 1.036,-1.05 2.73,-1.05 z m -0.056,1.512 q -0.798,0 -1.26,0.616 -0.462,0.616 -0.462,1.694 0,1.106 0.462,1.722 0.462,0.616 1.288,0.616 0.826,0 1.274,-0.616 0.462,-0.63 0.462,-1.736 0,-1.078 -0.476,-1.68 -0.462,-0.616 -1.288,-0.616 z m 8.61,-1.512 q 1.666,0 2.674,1.05 1.022,1.05 1.022,2.772 0,1.736 -1.022,2.786 -1.008,1.05 -2.702,1.05 -1.694,0 -2.716,-1.05 -1.022,-1.05 -1.022,-2.786 0,-1.722 1.036,-2.772 1.036,-1.05 2.73,-1.05 z m -0.056,1.512 q -0.798,0 -1.26,0.616 -0.462,0.616 -0.462,1.694 0,1.106 0.462,1.722 0.462,0.616 1.288,0.616 0.826,0 1.274,-0.616 0.462,-0.63 0.462,-1.736 0,-1.078 -0.476,-1.68 -0.462,-0.616 -1.288,-0.616 z m 7.098,-4.046 V 21 h -1.988 v -9.968 z"
     id="text5"
     class="terminal"
     style="font-weight:bold;font-size:14px;font-family:HelveticaNeueCyr, Sans-serif;fill:#140000"
     aria-label="Bool" />
  <path
     id="rect6"
     style="fill:#330000;stroke:#330000"
     d="m 137,47 h 54 c 5.54,0 10,4.46 10,10 v 12 c 0,5.54 -4.46,10 -10,10 h -54 c -5.54,0 -10,-4.46 -10,-10 V 57 c 0,-5.54 4.46,-10 10,-10 z" />
  <path
     id="rect7"
     class="terminal"
     style="fill:#ff4d4d;stroke:#330000"
     d="m 135,45 h 54 c 5.54,0 10,4.46 10,10 v 12 c 0,5.54 -4.46,10 -10,10 h -54 c -5.54,0 -10,-4.46 -10,-10 V 55 c 0,-5.54 4.46,-10 10,-10 z" />
  <path
     d="m 135.98,65 v -9.968 h 4.032 q 2.324,0 3.57,1.288 1.26,1.288 1.26,3.696 0,2.408 -1.26,3.696 Q 142.336,65 140.012,65 Z m 2.17,-1.82 h 1.596 q 2.898,0 2.898,-3.164 0,-1.526 -0.728,-2.338 -0.714,-0.826 -2.17,-0.826 h -1.596 z m 14.76999,-0.42 q -0.336,1.162 -1.246,1.806 -0.896,0.644 -2.142,0.644 -1.666,0 -2.688,-1.036 -1.008,-1.036 -1.008,-2.744 0,-1.68 1.022,-2.772 1.022,-1.092 2.604,-1.092 1.638,0 2.604,1.12 0.966,1.106 0.966,3.01 v 0.196 h -5.18 q 0.014,0.938 0.448,1.428 0.448,0.49 1.246,0.49 1.05,0 1.47,-1.05 z m -1.904,-2.128 q -0.07,-0.714 -0.462,-1.162 -0.392,-0.462 -1.092,-0.462 -0.658,0 -1.092,0.434 -0.434,0.434 -0.518,1.19 z m 10.03799,1.582 q -0.182,1.4 -1.106,2.184 -0.91,0.784 -2.352,0.784 -1.666,0 -2.674,-1.022 -1.008,-1.022 -1.008,-2.716 0,-1.75 1.008,-2.814 1.022,-1.064 2.702,-1.064 1.442,0 2.352,0.742 0.91,0.728 1.036,1.988 h -1.946 q -0.224,-1.246 -1.428,-1.246 -0.812,0 -1.274,0.63 -0.448,0.616 -0.448,1.722 0,1.078 0.434,1.68 0.448,0.588 1.246,0.588 1.302,0 1.54,-1.456 z m 3.19199,-7.182 v 1.68 h -1.988 v -1.68 z m 0,2.744 V 65 h -1.988 V 57.776 Z M 176.94396,65 h -2.016 v -4.312 q 0,-0.714 -0.224,-1.092 -0.224,-0.392 -0.924,-0.392 -1.386,0 -1.386,1.736 V 65 h -1.988 v -4.396 q 0,-0.672 -0.224,-1.036 -0.224,-0.378 -0.868,-0.378 -1.442,0 -1.442,1.89 V 65 h -1.988 v -7.224 h 1.89 v 0.994 q 0.854,-1.19 2.296,-1.19 1.498,0 2.044,1.19 0.868,-1.19 2.366,-1.19 1.19,0 1.82,0.7 0.644,0.686 0.644,1.862 z m 8.27401,0 h -2.016 q -0.098,-0.28 -0.14,-0.7 -0.91,0.91 -2.338,0.91 -1.204,0 -1.89,-0.574 -0.686,-0.588 -0.686,-1.61 0,-0.462 0.112,-0.812 0.126,-0.35 0.392,-0.588 0.28,-0.238 0.518,-0.392 0.252,-0.154 0.686,-0.252 0.434,-0.098 0.7,-0.14 0.266,-0.056 0.742,-0.112 1.05,-0.14 1.4,-0.294 0.364,-0.154 0.364,-0.574 0,-0.966 -1.302,-0.966 -0.686,0 -1.008,0.252 -0.322,0.238 -0.42,0.854 h -1.862 q 0.168,-2.436 3.346,-2.436 3.15,0 3.15,2.352 v 3.122 q 0,1.372 0.252,1.96 z m -2.17,-3.514 q -0.35,0.21 -1.4,0.378 -0.882,0.14 -1.148,0.35 -0.308,0.252 -0.308,0.728 0,0.448 0.28,0.714 0.294,0.252 0.812,0.252 0.798,0 1.274,-0.42 0.49,-0.434 0.49,-1.19 z m 5.52999,-6.454 V 65 h -1.988 v -9.968 z"
     id="text7"
     class="terminal"
     style="font-weight:bold;font-size:14px;font-family:HelveticaNeueCyr, Sans-serif;fill:#140000"
     aria-label="Decimal" />
  <path
     id="rect8"
     style="fill:#330000;stroke:#330000"
     d="m 137,91 h 46 c 5.54,0 10,4.46 10,10 v 12 c 0,5.54 -4.46,10 -10,10 h -46 c -5.54,0 -10,-4.46 -10,-10 v -12 c 0,-5.54 4.46,-10 10,-10 z" />
  <path
     id="rect9"
     class="terminal"
     style="fill:#ff4d4d;stroke:#330000"
     d="m 135,89 h 46 c 5.54,0 10,4.46 10,10 v 12 c 0,5.54 -4.46,10 -10,10 h -46 c -5.54,0 -10,-4.46 -10,-10 V 99 c 0,-5.54 4.46,-10 10,-10 z" />
  <path
     d="m 135.98,109 v -9.968 h 4.032 q 2.324,0 3.57,1.288 1.26,1.288 1.26,3.696 0,2.408 -1.26,3.696 -1.246,1.288 -3.57,1.288 z m 2.17,-1.82 h 1.596 q 2.898,0 2.898,-3.164 0,-1.526 -0.728,-2.338 -0.714,-0.826 -2.17,-0.826 h -1.596 z m 11.53599,-5.614 q 1.666,0 2.674,1.05 1.022,1.05 1.022,2.772 0,1.736 -1.022,2.786 -1.008,1.05 -2.702,1.05 -1.694,0 -2.716,-1.05 -1.022,-1.05 -1.022,-2.786 0,-1.722 1.036,-2.772 1.036,-1.05 2.73,-1.05 z m -0.056,1.512 q -0.798,0 -1.26,0.616 -0.462,0.616 -0.462,1.694 0,1.106 0.462,1.722 0.462,0.616 1.288,0.616 0.826,0 1.274,-0.616 0.462,-0.63 0.462,-1.736 0,-1.078 -0.476,-1.68 -0.462,-0.616 -1.288,-0.616 z m 11.83,-1.302 V 109 h -1.89 v -1.022 q -0.84,1.232 -2.352,1.232 -1.19,0 -1.862,-0.644 -0.658,-0.658 -0.658,-1.932 v -4.858 h 2.002 v 4.13 q 0,0.406 0.028,0.658 0.042,0.238 0.154,0.49 0.112,0.252 0.364,0.378 0.266,0.112 0.672,0.112 1.568,0 1.568,-2.044 v -3.724 z m 3.48601,-2.744 v 3.626 q 0.84,-1.05 2.282,-1.05 1.442,0 2.268,1.05 0.826,1.05 0.826,2.66 0,1.736 -0.896,2.814 -0.882,1.064 -2.31,1.064 -1.498,0 -2.268,-1.106 l 0.014,0.91 h -1.89 v -9.968 z m 1.666,4.102 q -0.798,0 -1.274,0.602 -0.462,0.588 -0.462,1.61 0,1.05 0.462,1.652 0.462,0.602 1.274,0.602 0.77,0 1.232,-0.616 0.476,-0.616 0.476,-1.652 0,-0.994 -0.476,-1.596 -0.462,-0.602 -1.232,-0.602 z m 6.972,-4.102 V 109 h -1.988 v -9.968 z m 8.35799,7.728 q -0.336,1.162 -1.246,1.806 -0.896,0.644 -2.142,0.644 -1.666,0 -2.688,-1.036 -1.008,-1.036 -1.008,-2.744 0,-1.68 1.022,-2.772 1.022,-1.092 2.604,-1.092 1.638,0 2.604,1.12 0.966,1.106 0.966,3.01 v 0.196 h -5.18 q 0.014,0.938 0.448,1.428 0.448,0.49 1.246,0.49 1.05,0 1.47,-1.05 z m -1.904,-2.128 q -0.07,-0.714 -0.462,-1.162 -0.392,-0.462 -1.092,-0.462 -0.658,0 -1.092,0.434 -0.434,0.434 -0.518,1.19 z"
     id="text9"
     class="terminal"
     style="font-weight:bold;font-size:14px;font-family:HelveticaNeueCyr, Sans-serif;fill:#140000"
     aria-label="Double" />
  <path
     id="rect10"
     style="fill:#330000;stroke:#330000"
     d="m 137,135 h 20 c 5.54,0 10,4.46 10,10 v 12 c 0,5.54 -4.46,10 -10,10 h -20 c -5.54,0 -10,-4.46 -10,-10 v -12 c 0,-5.54 4.46,-10 10,-10 z" />
  <path
     id="rect11"
     class="terminal"
     style="fill:#ff4d4d;stroke:#330000"
     d="m 135,133 h 20 c 5.54,0 10,4.46 10,10 v 12 c 0,5.54 -4.46,10 -10,10 h -20 c -5.54,0 -10,-4.46 -10,-10 v -12 c 0,-5.54 4.46,-10 10,-10 z" />
  <path
     d="M 138.164,143.032 V 153 h -2.198 v -9.968 z M 146.69,153 h -2.016 v -4.214 q 0,-0.77 -0.252,-1.162 -0.252,-0.406 -0.98,-0.406 -1.568,0 -1.568,1.904 V 153 H 139.9 v -7.224 h 1.89 v 1.008 q 0.896,-1.204 2.394,-1.204 1.162,0 1.834,0.672 0.672,0.672 0.672,1.918 z m 5.47401,-7.224 v 1.344 h -1.47 v 3.402 q 0,0.322 0.014,0.476 0.014,0.14 0.098,0.294 0.084,0.154 0.252,0.21 0.182,0.042 0.504,0.042 0.364,0 0.602,-0.028 v 1.512 q -0.728,0.056 -1.204,0.056 -1.302,0 -1.778,-0.448 -0.462,-0.462 -0.462,-1.764 v -3.752 h -1.204 v -1.344 h 1.204 v -2.184 h 1.974 v 2.184 z"
     id="text11"
     class="terminal"
     style="font-weight:bold;font-size:14px;font-family:HelveticaNeueCyr, Sans-serif;fill:#140000"
     aria-label="Int" />
  <path
     id="rect12"
     style="fill:#330000;stroke:#330000"
     d="m 137,179 h 54 c 5.54,0 10,4.46 10,10 v 12 c 0,5.54 -4.46,10 -10,10 h -54 c -5.54,0 -10,-4.46 -10,-10 v -12 c 0,-5.54 4.46,-10 10,-10 z" />
  <path
     id="rect13"
     class="terminal"
     style="fill:#ff4d4d;stroke:#330000"
     d="m 135,177 h 54 c 5.54,0 10,4.46 10,10 v 12 c 0,5.54 -4.46,10 -10,10 h -54 c -5.54,0 -10,-4.46 -10,-10 v -12 c 0,-5.54 4.46,-10 10,-10 z" />
  <path
     d="m 135.966,197 v -9.968 h 2.226 l 4.102,6.678 v -6.678 h 2.1 V 197 h -2.184 l -4.13,-6.692 V 197 Z m 16.93999,-7.224 V 197 h -1.89 v -1.022 q -0.84,1.232 -2.352,1.232 -1.19,0 -1.862,-0.644 -0.658,-0.658 -0.658,-1.932 v -4.858 h 2.002 v 4.13 q 0,0.406 0.028,0.658 0.042,0.238 0.154,0.49 0.112,0.252 0.364,0.378 0.266,0.112 0.672,0.112 1.568,0 1.568,-2.044 v -3.724 z m 12.656,7.224 h -2.016 v -4.312 q 0,-0.714 -0.224,-1.092 -0.224,-0.392 -0.924,-0.392 -1.386,0 -1.386,1.736 V 197 h -1.988 v -4.396 q 0,-0.672 -0.224,-1.036 -0.224,-0.378 -0.868,-0.378 -1.442,0 -1.442,1.89 V 197 h -1.988 v -7.224 h 1.89 v 0.994 q 0.854,-1.19 2.296,-1.19 1.498,0 2.044,1.19 0.868,-1.19 2.366,-1.19 1.19,0 1.82,0.7 0.644,0.686 0.644,1.862 z m 3.51401,-9.968 v 3.626 q 0.84,-1.05 2.282,-1.05 1.442,0 2.268,1.05 0.826,1.05 0.826,2.66 0,1.736 -0.896,2.814 -0.882,1.064 -2.31,1.064 -1.498,0 -2.268,-1.106 l 0.014,0.91 h -1.89 v -9.968 z m 1.666,4.102 q -0.798,0 -1.274,0.602 -0.462,0.588 -0.462,1.61 0,1.05 0.462,1.652 0.462,0.602 1.274,0.602 0.77,0 1.232,-0.616 0.476,-0.616 0.476,-1.652 0,-0.994 -0.476,-1.596 -0.462,-0.602 -1.232,-0.602 z m 11.718,3.626 q -0.336,1.162 -1.246,1.806 -0.896,0.644 -2.142,0.644 -1.666,0 -2.688,-1.036 -1.008,-1.036 -1.008,-2.744 0,-1.68 1.022,-2.772 1.022,-1.092 2.604,-1.092 1.638,0 2.604,1.12 0.966,1.106 0.966,3.01 v 0.196 h -5.18 q 0.014,0.938 0.448,1.428 0.448,0.49 1.246,0.49 1.05,0 1.47,-1.05 z m -1.904,-2.128 q -0.07,-0.714 -0.462,-1.162 -0.392,-0.462 -1.092,-0.462 -0.658,0 -1.092,0.434 -0.434,0.434 -0.518,1.19 z m 7.83999,-2.982 v 1.834 q -0.42,-0.084 -0.77,-0.084 -0.98,0 -1.442,0.63 -0.462,0.616 -0.462,1.666 V 197 h -1.988 v -7.224 h 1.89 v 1.33 q 0.714,-1.498 2.338,-1.498 0.14,0 0.434,0.042 z"
     id="text13"
     class="terminal"
     style="font-weight:bold;font-size:14px;font-family:HelveticaNeueCyr, Sans-serif;fill:#140000"
     aria-label="Number" />
  <path
     id="rect14"
     style="fill:#330000;stroke:#330000"
     d="m 137,223 h 42 c 5.54,0 10,4.46 10,10 v 12 c 0,5.54 -4.46,10 -10,10 h -42 c -5.54,0 -10,-4.46 -10,-10 v -12 c 0,-5.54 4.46,-10 10,-10 z" />
  <path
     id="rect15"
     class="terminal"
     style="fill:#ff4d4d;stroke:#330000"
     d="m 135,221 h 42 c 5.54,0 10,4.46 10,10 v 12 c 0,5.54 -4.46,10 -10,10 h -42 c -5.54,0 -10,-4.46 -10,-10 v -12 c 0,-5.54 4.46,-10 10,-10 z" />
  <path
     d="m 143.344,234 h -2.072 q -0.126,-1.484 -1.89,-1.484 -0.756,0 -1.19,0.308 -0.42,0.294 -0.42,0.826 0,0.182 0.056,0.322 0.056,0.14 0.21,0.266 0.154,0.112 0.308,0.196 0.154,0.07 0.448,0.168 0.308,0.084 0.546,0.154 0.252,0.07 0.7,0.182 0.448,0.112 0.784,0.21 1.47,0.42 2.184,1.05 0.728,0.63 0.728,1.806 0,0.854 -0.35,1.498 -0.35,0.63 -0.952,1.008 -0.588,0.364 -1.302,0.532 -0.7,0.182 -1.498,0.182 -2.03,0 -3.178,-0.924 -1.134,-0.938 -1.148,-2.632 h 2.17 q 0.056,1.876 2.254,1.876 0.854,0 1.344,-0.35 0.504,-0.364 0.504,-0.98 0,-0.518 -0.462,-0.756 -0.448,-0.238 -1.904,-0.658 -0.238,-0.056 -0.364,-0.098 -0.504,-0.14 -0.7,-0.196 -0.196,-0.07 -0.63,-0.224 -0.42,-0.154 -0.616,-0.28 -0.196,-0.126 -0.49,-0.35 -0.28,-0.224 -0.406,-0.462 -0.126,-0.252 -0.238,-0.602 -0.098,-0.364 -0.098,-0.784 0,-1.358 1.05,-2.17 1.05,-0.812 2.786,-0.812 1.68,0 2.744,0.798 1.064,0.784 1.092,2.38 z m 8.386,4.214 q -0.182,1.4 -1.106,2.184 -0.91,0.784 -2.352,0.784 -1.666,0 -2.674,-1.022 -1.008,-1.022 -1.008,-2.716 0,-1.75 1.008,-2.814 1.022,-1.064 2.702,-1.064 1.442,0 2.352,0.742 0.91,0.728 1.036,1.988 h -1.946 q -0.224,-1.246 -1.428,-1.246 -0.812,0 -1.274,0.63 -0.448,0.616 -0.448,1.722 0,1.078 0.434,1.68 0.448,0.588 1.246,0.588 1.302,0 1.54,-1.456 z m 7.86799,2.786 h -2.016 q -0.098,-0.28 -0.14,-0.7 -0.91,0.91 -2.338,0.91 -1.204,0 -1.89,-0.574 -0.686,-0.588 -0.686,-1.61 0,-0.462 0.112,-0.812 0.126,-0.35 0.392,-0.588 0.28,-0.238 0.518,-0.392 0.252,-0.154 0.686,-0.252 0.434,-0.098 0.7,-0.14 0.266,-0.056 0.742,-0.112 1.05,-0.14 1.4,-0.294 0.364,-0.154 0.364,-0.574 0,-0.966 -1.302,-0.966 -0.686,0 -1.008,0.252 -0.322,0.238 -0.42,0.854 h -1.862 q 0.168,-2.436 3.346,-2.436 3.15,0 3.15,2.352 v 3.122 q 0,1.372 0.252,1.96 z m -2.17,-3.514 q -0.35,0.21 -1.4,0.378 -0.882,0.14 -1.148,0.35 -0.308,0.252 -0.308,0.728 0,0.448 0.28,0.714 0.294,0.252 0.812,0.252 0.798,0 1.274,-0.42 0.49,-0.434 0.49,-1.19 z m 5.53,-6.454 V 241 h -1.988 v -9.968 z m 8.28799,9.968 h -2.016 q -0.098,-0.28 -0.14,-0.7 -0.91,0.91 -2.338,0.91 -1.204,0 -1.89,-0.574 -0.686,-0.588 -0.686,-1.61 0,-0.462 0.112,-0.812 0.126,-0.35 0.392,-0.588 0.28,-0.238 0.518,-0.392 0.252,-0.154 0.686,-0.252 0.434,-0.098 0.7,-0.14 0.266,-0.056 0.742,-0.112 1.05,-0.14 1.4,-0.294 0.364,-0.154 0.364,-0.574 0,-0.966 -1.302,-0.966 -0.686,0 -1.008,0.252 -0.322,0.238 -0.42,0.854 h -1.862 q 0.168,-2.436 3.346,-2.436 3.15,0 3.15,2.352 v 3.122 q 0,1.372 0.252,1.96 z m -2.17,-3.514 q -0.35,0.21 -1.4,0.378 -0.882,0.14 -1.148,0.35 -0.308,0.252 -0.308,0.728 0,0.448 0.28,0.714 0.294,0.252 0.812,0.252 0.798,0 1.274,-0.42 0.49,-0.434 0.49,-1.19 z m 8.17599,-3.836 v 1.834 q -0.42,-0.084 -0.77,-0.084 -0.98,0 -1.442,0.63 -0.462,0.616 -0.462,1.666 V 241 h -1.988 v -7.224 h 1.89 v 1.33 q 0.714,-1.498 2.338,-1.498 0.14,0 0.434,0.042 z"
     id="text15"
     class="terminal"
     style="font-weight:bold;font-size:14px;font-family:HelveticaNeueCyr, Sans-serif;fill:#140000"
     aria-label="Scalar" />
  <path
     id="rect16"
     style="fill:#330000;stroke:#330000"
     d="m 137,267 h 40 c 5.54,0 10,4.46 10,10 v 12 c 0,5.54 -4.46,10 -10,10 h -40 c -5.54,0 -10,-4.46 -10,-10 v -12 c 0,-5.54 4.46,-10 10,-10 z" />
  <path
     id="rect17"
     class="terminal"
     style="fill:#ff4d4d;stroke:#330000"
     d="m 135,265 h 40 c 5.54,0 10,4.46 10,10 v 12 c 0,5.54 -4.46,10 -10,10 h -40 c -5.54,0 -10,-4.46 -10,-10 v -12 c 0,-5.54 4.46,-10 10,-10 z" />
  <path
     d="m 143.344,278 h -2.072 q -0.126,-1.484 -1.89,-1.484 -0.756,0 -1.19,0.308 -0.42,0.294 -0.42,0.826 0,0.182 0.056,0.322 0.056,0.14 0.21,0.266 0.154,0.112 0.308,0.196 0.154,0.07 0.448,0.168 0.308,0.084 0.546,0.154 0.252,0.07 0.7,0.182 0.448,0.112 0.784,0.21 1.47,0.42 2.184,1.05 0.728,0.63 0.728,1.806 0,0.854 -0.35,1.498 -0.35,0.63 -0.952,1.008 -0.588,0.364 -1.302,0.532 -0.7,0.182 -1.498,0.182 -2.03,0 -3.178,-0.924 -1.134,-0.938 -1.148,-2.632 h 2.17 q 0.056,1.876 2.254,1.876 0.854,0 1.344,-0.35 0.504,-0.364 0.504,-0.98 0,-0.518 -0.462,-0.756 -0.448,-0.238 -1.904,-0.658 -0.238,-0.056 -0.364,-0.098 -0.504,-0.14 -0.7,-0.196 -0.196,-0.07 -0.63,-0.224 -0.42,-0.154 -0.616,-0.28 -0.196,-0.126 -0.49,-0.35 -0.28,-0.224 -0.406,-0.462 -0.126,-0.252 -0.238,-0.602 -0.098,-0.364 -0.098,-0.784 0,-1.358 1.05,-2.17 1.05,-0.812 2.786,-0.812 1.68,0 2.744,0.798 1.064,0.784 1.092,2.38 z m 5.474,-0.224 v 1.344 h -1.47 v 3.402 q 0,0.322 0.014,0.476 0.014,0.14 0.098,0.294 0.084,0.154 0.252,0.21 0.182,0.042 0.504,0.042 0.364,0 0.602,-0.028 v 1.512 q -0.728,0.056 -1.204,0.056 -1.302,0 -1.778,-0.448 -0.462,-0.462 -0.462,-1.764 v -3.752 h -1.204 v -1.344 h 1.204 v -2.184 h 1.974 v 2.184 z m 5.64199,-0.126 v 1.834 q -0.42,-0.084 -0.77,-0.084 -0.98,0 -1.442,0.63 -0.462,0.616 -0.462,1.666 V 285 h -1.988 v -7.224 h 1.89 v 1.33 q 0.714,-1.498 2.338,-1.498 0.14,0 0.434,0.042 z m 2.8,-2.618 v 1.68 h -1.988 v -1.68 z m 0,2.744 V 285 h -1.988 v -7.224 z m 8.37199,7.224 h -2.016 v -4.214 q 0,-0.77 -0.252,-1.162 -0.252,-0.406 -0.98,-0.406 -1.568,0 -1.568,1.904 V 285 h -1.974 v -7.224 h 1.89 v 1.008 q 0.896,-1.204 2.394,-1.204 1.162,0 1.834,0.672 0.672,0.672 0.672,1.918 z m 8.42801,-7.224 v 6.468 q 0,1.778 -0.882,2.604 -0.882,0.84 -2.674,0.84 -3.094,0 -3.388,-2.254 h 1.974 q 0.112,0.49 0.462,0.7 0.35,0.224 0.994,0.224 0.938,0 1.26,-0.462 0.322,-0.448 0.336,-1.414 l 0.014,-0.812 q -0.812,1.12 -2.212,1.12 -1.414,0 -2.254,-0.966 -0.826,-0.966 -0.826,-2.59 0,-1.652 0.868,-2.646 0.868,-1.008 2.296,-1.008 0.756,0 1.246,0.28 0.504,0.266 0.91,0.882 v -0.966 z m -2.338,1.89 q -0.448,-0.546 -1.232,-0.546 -0.784,0 -1.232,0.56 -0.434,0.546 -0.434,1.54 0,0.952 0.448,1.526 0.462,0.56 1.232,0.56 0.77,0 1.218,-0.574 0.448,-0.574 0.448,-1.554 0,-0.966 -0.448,-1.512 z"
     id="text17"
     class="terminal"
     style="font-weight:bold;font-size:14px;font-family:HelveticaNeueCyr, Sans-serif;fill:#140000"
     aria-label="String" />
  <path
     id="rect18"
     style="fill:#330000;stroke:#330000"
     d="m 137,311 h 30 c 5.54,0 10,4.46 10,10 v 12 c 0,5.54 -4.46,10 -10,10 h -30 c -5.54,0 -10,-4.46 -10,-10 v -12 c 0,-5.54 4.46,-10 10,-10 z" />
  <path
     id="rect19"
     class="terminal"
     style="fill:#ff4d4d;stroke:#330000"
     d="m 135,309 h 30 c 5.54,0 10,4.46 10,10 v 12 c 0,5.54 -4.46,10 -10,10 h -30 c -5.54,0 -10,-4.46 -10,-10 v -12 c 0,-5.54 4.46,-10 10,-10 z" />
  <path
     d="m 143.372,319.032 v 1.862 h -2.996 V 329 h -2.198 v -8.106 h -2.996 v -1.862 z m 6.174,7.728 q -0.336,1.162 -1.246,1.806 -0.896,0.644 -2.142,0.644 -1.666,0 -2.688,-1.036 -1.008,-1.036 -1.008,-2.744 0,-1.68 1.022,-2.772 1.022,-1.092 2.604,-1.092 1.638,0 2.604,1.12 0.966,1.106 0.966,3.01 v 0.196 h -5.18 q 0.014,0.938 0.448,1.428 0.448,0.49 1.246,0.49 1.05,0 1.47,-1.05 z m -1.904,-2.128 q -0.07,-0.714 -0.462,-1.162 -0.392,-0.462 -1.092,-0.462 -0.658,0 -1.092,0.434 -0.434,0.434 -0.518,1.19 z m 9.63199,-2.856 -2.38,3.374 2.674,3.85 h -2.268 l -1.526,-2.338 -1.512,2.338 h -2.254 l 2.632,-3.808 -2.394,-3.416 h 2.268 l 1.288,1.932 1.274,-1.932 z m 5.01201,0 v 1.344 h -1.47 v 3.402 q 0,0.322 0.014,0.476 0.014,0.14 0.098,0.294 0.084,0.154 0.252,0.21 0.182,0.042 0.504,0.042 0.364,0 0.602,-0.028 v 1.512 q -0.728,0.056 -1.204,0.056 -1.302,0 -1.778,-0.448 -0.462,-0.462 -0.462,-1.764 v -3.752 h -1.204 v -1.344 h 1.204 v -2.184 h 1.974 v 2.184 z"
     id="text19"
     class="terminal"
     style="font-weight:bold;font-size:14px;font-family:HelveticaNeueCyr, Sans-serif;fill:#140000"
     aria-label="Text" />
  <path
     id="rect20"
     style="fill:#330000;stroke:#330000"
     d="m 137,355 h 62 c 5.54,0 10,4.46 10,10 v 12 c 0,5.54 -4.46,10 -10,10 h -62 c -5.54,0 -10,-4.46 -10,-10 v -12 c 0,-5.54 4.46,-10 10,-10 z" />
  <path
     id="rect21"
     class="terminal"
     style="fill:#ff4d4d;stroke:#330000"
     d="m 135,353 h 62 c 5.54,0 10,4.46 10,10 v 12 c 0,5.54 -4.46,10 -10,10 h -62 c -5.54,0 -10,-4.46 -10,-10 v -12 c 0,-5.54 4.46,-10 10,-10 z" />
  <path
     d="m 144.45,363.032 v 5.992 q 0,2.142 -1.036,3.164 -1.022,1.008 -3.206,1.008 -2.212,0 -3.262,-1.022 -1.036,-1.036 -1.036,-3.178 v -5.964 h 2.184 v 5.964 q 0,1.218 0.462,1.806 0.462,0.588 1.68,0.588 1.176,0 1.596,-0.588 0.434,-0.588 0.434,-1.806 v -5.964 z m 8.48399,9.968 h -2.016 v -4.214 q 0,-0.77 -0.252,-1.162 -0.252,-0.406 -0.98,-0.406 -1.568,0 -1.568,1.904 V 373 h -1.974 v -7.224 h 1.89 v 1.008 q 0.896,-1.204 2.394,-1.204 1.162,0 1.834,0.672 0.672,0.672 0.672,1.918 z m 7.602,-5.124 h -1.848 q -0.084,-0.546 -0.42,-0.77 -0.322,-0.224 -0.952,-0.224 -0.532,0 -0.826,0.196 -0.294,0.182 -0.294,0.518 0,0.392 0.336,0.546 0.336,0.154 1.204,0.336 0.154,0.028 0.224,0.042 0.504,0.098 0.798,0.182 0.308,0.07 0.742,0.252 0.434,0.168 0.672,0.392 0.238,0.21 0.42,0.574 0.182,0.364 0.182,0.84 0,1.134 -0.882,1.792 -0.882,0.658 -2.422,0.658 -1.47,0 -2.422,-0.63 -0.952,-0.63 -0.966,-1.932 h 1.89 q 0.098,1.204 1.54,1.204 0.602,0 0.952,-0.238 0.364,-0.252 0.364,-0.658 0,-0.406 -0.322,-0.574 -0.322,-0.168 -1.19,-0.364 -0.07,-0.014 -0.112,-0.028 -0.098,-0.028 -0.434,-0.098 -0.336,-0.07 -0.476,-0.098 -0.126,-0.042 -0.434,-0.126 -0.294,-0.084 -0.434,-0.154 -0.14,-0.084 -0.378,-0.196 -0.224,-0.126 -0.336,-0.266 -0.112,-0.14 -0.252,-0.322 -0.126,-0.196 -0.182,-0.434 -0.042,-0.238 -0.042,-0.518 0,-1.064 0.826,-1.638 0.826,-0.574 2.338,-0.574 1.358,0 2.226,0.56 0.868,0.56 0.91,1.75 z m 3.45801,-4.844 v 1.68 h -1.988 v -1.68 z m 0,2.744 V 373 h -1.988 v -7.224 z m 8.498,0 v 6.468 q 0,1.778 -0.882,2.604 -0.882,0.84 -2.674,0.84 -3.094,0 -3.388,-2.254 h 1.974 q 0.112,0.49 0.462,0.7 0.35,0.224 0.994,0.224 0.938,0 1.26,-0.462 0.322,-0.448 0.336,-1.414 l 0.014,-0.812 q -0.812,1.12 -2.212,1.12 -1.414,0 -2.254,-0.966 -0.826,-0.966 -0.826,-2.59 0,-1.652 0.868,-2.646 0.868,-1.008 2.296,-1.008 0.756,0 1.246,0.28 0.504,0.266 0.91,0.882 v -0.966 z m -2.338,1.89 q -0.448,-0.546 -1.232,-0.546 -0.784,0 -1.232,0.56 -0.434,0.546 -0.434,1.54 0,0.952 0.448,1.526 0.462,0.56 1.232,0.56 0.77,0 1.218,-0.574 0.448,-0.574 0.448,-1.554 0,-0.966 -0.448,-1.512 z M 180.92,373 h -2.016 v -4.214 q 0,-0.77 -0.252,-1.162 -0.252,-0.406 -0.98,-0.406 -1.568,0 -1.568,1.904 V 373 h -1.974 v -7.224 h 1.89 v 1.008 q 0.896,-1.204 2.394,-1.204 1.162,0 1.834,0.672 0.672,0.672 0.672,1.918 z m 8.288,-2.24 q -0.336,1.162 -1.246,1.806 -0.896,0.644 -2.142,0.644 -1.666,0 -2.688,-1.036 -1.008,-1.036 -1.008,-2.744 0,-1.68 1.022,-2.772 1.022,-1.092 2.604,-1.092 1.638,0 2.604,1.12 0.966,1.106 0.966,3.01 v 0.196 h -5.18 q 0.014,0.938 0.448,1.428 0.448,0.49 1.246,0.49 1.05,0 1.47,-1.05 z m -1.904,-2.128 q -0.07,-0.714 -0.462,-1.162 -0.392,-0.462 -1.092,-0.462 -0.658,0 -1.092,0.434 -0.434,0.434 -0.518,1.19 z M 197.49599,373 h -1.876 v -0.924 q -0.714,1.12 -2.184,1.12 -1.498,0 -2.394,-1.036 -0.882,-1.05 -0.882,-2.8 0,-1.708 0.854,-2.744 0.868,-1.036 2.31,-1.036 0.672,0 1.26,0.28 0.602,0.28 0.938,0.812 v -3.64 h 1.974 z m -1.904,-3.626 q 0,-1.05 -0.462,-1.638 -0.448,-0.588 -1.26,-0.588 -0.812,0 -1.26,0.588 -0.448,0.588 -0.448,1.624 0,1.05 0.448,1.652 0.462,0.588 1.26,0.588 0.826,0 1.274,-0.574 0.448,-0.588 0.448,-1.652 z"
     id="text21"
     class="terminal"
     style="font-weight:bold;font-size:14px;font-family:HelveticaNeueCyr, Sans-serif;fill:#140000"
     aria-label="Unsigned" />
  <path
     id="rect22"
     style="fill:#330000;stroke:#330000"
     d="m 137,399 h 52 c 5.54,0 10,4.46 10,10 v 12 c 0,5.54 -4.46,10 -10,10 h -52 c -5.54,0 -10,-4.46 -10,-10 v -12 c 0,-5.54 4.46,-10 10,-10 z" />
  <path
     id="rect23"
     class="terminal"
     style="fill:#ff4d4d;stroke:#330000"
     d="m 135,397 h 52 c 5.54,0 10,4.46 10,10 v 12 c 0,5.54 -4.46,10 -10,10 h -52 c -5.54,0 -10,-4.46 -10,-10 v -12 c 0,-5.54 4.46,-10 10,-10 z" />
  <path
     d="m 134.888,407.032 h 2.282 l 2.24,7 2.268,-7 h 2.268 L 140.628,417 H 138.15 Z M 150.52598,417 h -2.016 q -0.098,-0.28 -0.14,-0.7 -0.91,0.91 -2.338,0.91 -1.204,0 -1.89,-0.574 -0.686,-0.588 -0.686,-1.61 0,-0.462 0.112,-0.812 0.126,-0.35 0.392,-0.588 0.28,-0.238 0.518,-0.392 0.252,-0.154 0.686,-0.252 0.434,-0.098 0.7,-0.14 0.266,-0.056 0.742,-0.112 1.05,-0.14 1.4,-0.294 0.364,-0.154 0.364,-0.574 0,-0.966 -1.302,-0.966 -0.686,0 -1.008,0.252 -0.322,0.238 -0.42,0.854 h -1.862 q 0.168,-2.436 3.346,-2.436 3.15,0 3.15,2.352 v 3.122 q 0,1.372 0.252,1.96 z m -2.17,-3.514 q -0.35,0.21 -1.4,0.378 -0.882,0.14 -1.148,0.35 -0.308,0.252 -0.308,0.728 0,0.448 0.28,0.714 0.294,0.252 0.812,0.252 0.798,0 1.274,-0.42 0.49,-0.434 0.49,-1.19 z m 8.176,-3.836 v 1.834 q -0.42,-0.084 -0.77,-0.084 -0.98,0 -1.442,0.63 -0.462,0.616 -0.462,1.666 V 417 h -1.988 v -7.224 h 1.89 v 1.33 q 0.714,-1.498 2.338,-1.498 0.14,0 0.434,0.042 z m 7.392,4.564 q -0.182,1.4 -1.106,2.184 -0.91,0.784 -2.352,0.784 -1.666,0 -2.674,-1.022 -1.008,-1.022 -1.008,-2.716 0,-1.75 1.008,-2.814 1.022,-1.064 2.702,-1.064 1.442,0 2.352,0.742 0.91,0.728 1.036,1.988 h -1.946 q -0.224,-1.246 -1.428,-1.246 -0.812,0 -1.274,0.63 -0.448,0.616 -0.448,1.722 0,1.078 0.434,1.68 0.448,0.588 1.246,0.588 1.302,0 1.54,-1.456 z m 3.12199,-7.182 v 3.71 q 0.854,-1.148 2.282,-1.148 2.534,0 2.534,2.674 V 417 h -1.988 v -4.256 q 0,-0.742 -0.266,-1.134 -0.266,-0.392 -1.008,-0.392 -0.896,0 -1.232,0.574 -0.322,0.574 -0.322,1.526 V 417 h -1.96 v -9.968 z M 180.09398,417 h -2.016 q -0.098,-0.28 -0.14,-0.7 -0.91,0.91 -2.338,0.91 -1.204,0 -1.89,-0.574 -0.686,-0.588 -0.686,-1.61 0,-0.462 0.112,-0.812 0.126,-0.35 0.392,-0.588 0.28,-0.238 0.518,-0.392 0.252,-0.154 0.686,-0.252 0.434,-0.098 0.7,-0.14 0.266,-0.056 0.742,-0.112 1.05,-0.14 1.4,-0.294 0.364,-0.154 0.364,-0.574 0,-0.966 -1.302,-0.966 -0.686,0 -1.008,0.252 -0.322,0.238 -0.42,0.854 h -1.862 q 0.168,-2.436 3.346,-2.436 3.15,0 3.15,2.352 v 3.122 q 0,1.372 0.252,1.96 z m -2.17,-3.514 q -0.35,0.21 -1.4,0.378 -0.882,0.14 -1.148,0.35 -0.308,0.252 -0.308,0.728 0,0.448 0.28,0.714 0.294,0.252 0.812,0.252 0.798,0 1.274,-0.42 0.49,-0.434 0.49,-1.19 z m 8.17599,-3.836 v 1.834 q -0.42,-0.084 -0.77,-0.084 -0.98,0 -1.442,0.63 -0.462,0.616 -0.462,1.666 V 417 h -1.988 v -7.224 h 1.89 v 1.33 q 0.714,-1.498 2.338,-1.498 0.14,0 0.434,0.042 z"
     id="text23"
     class="terminal"
     style="font-weight:bold;font-size:14px;font-family:HelveticaNeueCyr, Sans-serif;fill:#140000"
     aria-label="Varchar" />
  <path
     id="rect24"
     style="fill:#330000;stroke:#330000"
     d="m 299,67 h 22 c 5.54,0 10,4.46 10,10 v 12 c 0,5.54 -4.46,10 -10,10 h -22 c -5.54,0 -10,-4.46 -10,-10 V 77 c 0,-5.54 4.46,-10 10,-10 z" />
  <path
     id="rect25"
     class="terminal"
     style="fill:#ff4d4d;stroke:#330000"
     d="m 297,65 h 22 c 5.54,0 10,4.46 10,10 v 12 c 0,5.54 -4.46,10 -10,10 h -22 c -5.54,0 -10,-4.46 -10,-10 V 75 c 0,-5.54 4.46,-10 10,-10 z" />
  <path
     d="m 304.56,85 h -2.016 v -4.214 q 0,-0.77 -0.252,-1.162 -0.252,-0.406 -0.98,-0.406 -1.568,0 -1.568,1.904 V 85 h -1.974 v -7.224 h 1.89 v 1.008 q 0.896,-1.204 2.394,-1.204 1.162,0 1.834,0.672 0.672,0.672 0.672,1.918 z m 5.05401,-7.434 q 1.666,0 2.674,1.05 1.022,1.05 1.022,2.772 0,1.736 -1.022,2.786 -1.008,1.05 -2.702,1.05 -1.694,0 -2.716,-1.05 -1.022,-1.05 -1.022,-2.786 0,-1.722 1.036,-2.772 1.036,-1.05 2.73,-1.05 z m -0.056,1.512 q -0.798,0 -1.26,0.616 -0.462,0.616 -0.462,1.694 0,1.106 0.462,1.722 0.462,0.616 1.288,0.616 0.826,0 1.274,-0.616 0.462,-0.63 0.462,-1.736 0,-1.078 -0.476,-1.68 -0.462,-0.616 -1.288,-0.616 z m 9.03,-1.302 v 1.344 h -1.47 v 3.402 q 0,0.322 0.014,0.476 0.014,0.14 0.098,0.294 0.084,0.154 0.252,0.21 0.182,0.042 0.504,0.042 0.364,0 0.602,-0.028 v 1.512 q -0.728,0.056 -1.204,0.056 -1.302,0 -1.778,-0.448 -0.462,-0.462 -0.462,-1.764 V 79.12 h -1.204 v -1.344 h 1.204 v -2.184 h 1.974 v 2.184 z"
     id="text25"
     class="terminal"
     style="font-weight:bold;font-size:14px;font-family:HelveticaNeueCyr, Sans-serif;fill:#140000"
     aria-label="not" />
  <path
     id="rect26"
     style="fill:#330000;stroke:#330000"
     d="m 381,35 h 24 c 5.54,0 10,4.46 10,10 v 12 c 0,5.54 -4.46,10 -10,10 h -24 c -5.54,0 -10,-4.46 -10,-10 V 45 c 0,-5.54 4.46,-10 10,-10 z" />
  <path
     id="rect27"
     class="terminal"
     style="fill:#ff4d4d;stroke:#330000"
     d="m 379,33 h 24 c 5.54,0 10,4.46 10,10 v 12 c 0,5.54 -4.46,10 -10,10 h -24 c -5.54,0 -10,-4.46 -10,-10 V 43 c 0,-5.54 4.46,-10 10,-10 z" />
  <path
     d="m 386.56,53 h -2.016 v -4.214 q 0,-0.77 -0.252,-1.162 -0.252,-0.406 -0.98,-0.406 -1.568,0 -1.568,1.904 V 53 h -1.974 v -7.224 h 1.89 v 1.008 q 0.896,-1.204 2.394,-1.204 1.162,0 1.834,0.672 0.672,0.672 0.672,1.918 z m 8.27401,-7.224 V 53 h -1.89 v -1.022 q -0.84,1.232 -2.352,1.232 -1.19,0 -1.862,-0.644 -0.658,-0.658 -0.658,-1.932 v -4.858 h 2.002 v 4.13 q 0,0.406 0.028,0.658 0.042,0.238 0.154,0.49 0.112,0.252 0.364,0.378 0.266,0.112 0.672,0.112 1.568,0 1.568,-2.044 v -3.724 z m 3.57,-2.744 V 53 h -1.988 v -9.968 z m 3.61199,0 V 53 h -1.988 v -9.968 z"
     id="text27"
     class="terminal"
     style="font-weight:bold;font-size:14px;font-family:HelveticaNeueCyr, Sans-serif;fill:#140000"
     aria-label="null" />
  <path
     class="line"
     d="m17 17 h2 m0 0 h10 m56 0 h10 m20 0 h10 m50 0 h10 m0 0 h32 m-122 0 h20 m102 0 h20 m-142 0 q10 0 10 10 m122 0 q0 -10 10 -10 m-132 10 v24 m122 0 v-24 m-122 24 q0 10 10 10 m102 0 q10 0 10 -10 m-112 10 h10 m74 0 h10 m0 0 h8 m-112 -10 v20 m122 0 v-20 m-122 20 v24 m122 0 v-24 m-122 24 q0 10 10 10 m102 0 q10 0 10 -10 m-112 10 h10 m66 0 h10 m0 0 h16 m-112 -10 v20 m122 0 v-20 m-122 20 v24 m122 0 v-24 m-122 24 q0 10 10 10 m102 0 q10 0 10 -10 m-112 10 h10 m40 0 h10 m0 0 h42 m-112 -10 v20 m122 0 v-20 m-122 20 v24 m122 0 v-24 m-122 24 q0 10 10 10 m102 0 q10 0 10 -10 m-112 10 h10 m74 0 h10 m0 0 h8 m-112 -10 v20 m122 0 v-20 m-122 20 v24 m122 0 v-24 m-122 24 q0 10 10 10 m102 0 q10 0 10 -10 m-112 10 h10 m62 0 h10 m0 0 h20 m-112 -10 v20 m122 0 v-20 m-122 20 v24 m122 0 v-24 m-122 24 q0 10 10 10 m102 0 q10 0 10 -10 m-112 10 h10 m60 0 h10 m0 0 h22 m-112 -10 v20 m122 0 v-20 m-122 20 v24 m122 0 v-24 m-122 24 q0 10 10 10 m102 0 q10 0 10 -10 m-112 10 h10 m50 0 h10 m0 0 h32 m-112 -10 v20 m122 0 v-20 m-122 20 v24 m122 0 v-24 m-122 24 q0 10 10 10 m102 0 q10 0 10 -10 m-112 10 h10 m82 0 h10 m-112 -10 v20 m122 0 v-20 m-122 20 v24 m122 0 v-24 m-122 24 q0 10 10 10 m102 0 q10 0 10 -10 m-112 10 h10 m72 0 h10 m0 0 h10 m40 -396 h10 m0 0 h156 m-186 0 h20 m166 0 h20 m-206 0 q10 0 10 10 m186 0 q0 -10 10 -10 m-196 10 v12 m186 0 v-12 m-186 12 q0 10 10 10 m166 0 q10 0 10 -10 m-156 10 h10 m0 0 h52 m-82 0 h20 m62 0 h20 m-102 0 q10 0 10 10 m82 0 q0 -10 10 -10 m-92 10 v12 m82 0 v-12 m-82 12 q0 10 10 10 m62 0 q10 0 10 -10 m-72 10 h10 m42 0 h10 m20 -32 h10 m44 0 h10 m23 -32 h-3"
     id="path27" />
  <path
     id="polygon27"
     style="fill:#330000;stroke:#330000"
     d="m 453,17 8,-4 v 8 z" />
  <path
     id="polygon28"
     style="fill:#330000;stroke:#330000"
     d="m 453,17 -8,-4 v 8 z" />
</svg>
