<?xml version="1.0" encoding="UTF-8"?>
<svg xmlns="http://www.w3.org/2000/svg" width="763" height="399" viewBox="0 0 763 399">
   <defs>
      <style type="text/css">
    @namespace "http://www.w3.org/2000/svg";
    .line                 {fill: none; stroke: #330000; stroke-width: 1;}
    .bold-line            {stroke: #140000; shape-rendering: crispEdges; stroke-width: 2;}
    .thin-line            {stroke: #1F0000; shape-rendering: crispEdges}
    .filled               {fill: #330000; stroke: none;}
    text.terminal         {font-family: Verdana, Sans-serif;
                            font-size: 12px;
                            fill: #140000;
                            font-weight: bold;
                          }
    text.nonterminal      {font-family: Verdana, Sans-serif;
                            font-size: 12px;
                            fill: #1A0000;
                            font-weight: normal;
                          }
    text.regexp           {font-family: Verdana, Sans-serif;
                            font-size: 12px;
                            fill: #1F0000;
                            font-weight: normal;
                          }
    rect, circle, polygon {fill: #330000; stroke: #330000;}
    rect.terminal         {fill: #FF4D4D; stroke: #330000; stroke-width: 1;}
    rect.nonterminal      {fill: #FF9E9E; stroke: #330000; stroke-width: 1;}
    rect.text             {fill: none; stroke: none;}
    polygon.regexp        {fill: #FFC7C7; stroke: #330000; stroke-width: 1;}
  </style>
      <style class="darkreader darkreader--sync" media="screen"/>
   </defs>
   <polygon points="9 61 1 57 1 65"/>
   <polygon points="17 61 9 57 9 65"/>
   <rect x="31" y="47" width="72" height="32" rx="10"/>
   <rect x="29"
         y="45"
         width="72"
         height="32"
         class="terminal"
         rx="10"/>
   <text class="terminal" x="39" y="65">CREATE</text>
   <rect x="123" y="47" width="104" height="32" rx="10"/>
   <rect x="121"
         y="45"
         width="104"
         height="32"
         class="terminal"
         rx="10"/>
   <text class="terminal" x="131" y="65">PROCEDURE</text>
   <a xmlns:xlink="http://www.w3.org/1999/xlink"
      xlink:href="../object"
      xlink:title="procedure">
      <rect x="247" y="47" width="84" height="32"/>
      <rect x="245" y="45" width="84" height="32" class="nonterminal"/>
      <text class="nonterminal" x="255" y="65">procedure</text>
   </a>
   <rect x="351" y="47" width="26" height="32" rx="10"/>
   <rect x="349"
         y="45"
         width="26"
         height="32"
         class="terminal"
         rx="10"/>
   <text class="terminal" x="359" y="65">(</text>
   <a xmlns:xlink="http://www.w3.org/1999/xlink"
      xlink:href="#type"
      xlink:title="type">
      <rect x="417" y="47" width="48" height="32"/>
      <rect x="415" y="45" width="48" height="32" class="nonterminal"/>
      <text class="nonterminal" x="425" y="65">type</text>
   </a>
   <rect x="417" y="3" width="24" height="32" rx="10"/>
   <rect x="415"
         y="1"
         width="24"
         height="32"
         class="terminal"
         rx="10"/>
   <text class="terminal" x="425" y="21">,</text>
   <rect x="505" y="47" width="26" height="32" rx="10"/>
   <rect x="503"
         y="45"
         width="26"
         height="32"
         class="terminal"
         rx="10"/>
   <text class="terminal" x="513" y="65">)</text>
   <rect x="571" y="79" width="82" height="32" rx="10"/>
   <rect x="569"
         y="77"
         width="82"
         height="32"
         class="terminal"
         rx="10"/>
   <text class="terminal" x="579" y="97">language</text>
   <rect x="673" y="79" width="48" height="32" rx="10"/>
   <rect x="671"
         y="77"
         width="48"
         height="32"
         class="terminal"
         rx="10"/>
   <text class="terminal" x="681" y="97">SQL</text>
   <rect x="387" y="145" width="34" height="32" rx="10"/>
   <rect x="385"
         y="143"
         width="34"
         height="32"
         class="terminal"
         rx="10"/>
   <text class="terminal" x="395" y="163">as</text>
   <rect x="441" y="145" width="38" height="32" rx="10"/>
   <rect x="439"
         y="143"
         width="38"
         height="32"
         class="terminal"
         rx="10"/>
   <text class="terminal" x="449" y="163">$$</text>
   <a xmlns:xlink="http://www.w3.org/1999/xlink"
      xlink:href="../insert"
      xlink:title="insert">
      <rect x="519" y="145" width="56" height="32"/>
      <rect x="517" y="143" width="56" height="32" class="nonterminal"/>
      <text class="nonterminal" x="527" y="163">insert</text>
   </a>
   <a xmlns:xlink="http://www.w3.org/1999/xlink"
      xlink:href="../update"
      xlink:title="update">
      <rect x="519" y="189" width="64" height="32"/>
      <rect x="517" y="187" width="64" height="32" class="nonterminal"/>
      <text class="nonterminal" x="527" y="207">update</text>
   </a>
   <a xmlns:xlink="http://www.w3.org/1999/xlink"
      xlink:href="../delete"
      xlink:title="delete">
      <rect x="519" y="233" width="60" height="32"/>
      <rect x="517" y="231" width="60" height="32" class="nonterminal"/>
      <text class="nonterminal" x="527" y="251">delete</text>
   </a>
   <rect x="623" y="145" width="38" height="32" rx="10"/>
   <rect x="621"
         y="143"
         width="38"
         height="32"
         class="terminal"
         rx="10"/>
   <text class="terminal" x="631" y="163">$$</text>
   <rect x="387" y="277" width="56" height="32" rx="10"/>
   <rect x="385"
         y="275"
         width="56"
         height="32"
         class="terminal"
         rx="10"/>
   <text class="terminal" x="395" y="295">begin</text>
   <rect x="463" y="277" width="64" height="32" rx="10"/>
   <rect x="461"
         y="275"
         width="64"
         height="32"
         class="terminal"
         rx="10"/>
   <text class="terminal" x="471" y="295">atomic</text>
   <a xmlns:xlink="http://www.w3.org/1999/xlink"
      xlink:href="../insert"
      xlink:title="insert">
      <rect x="567" y="277" width="56" height="32"/>
      <rect x="565" y="275" width="56" height="32" class="nonterminal"/>
      <text class="nonterminal" x="575" y="295">insert</text>
   </a>
   <a xmlns:xlink="http://www.w3.org/1999/xlink"
      xlink:href="../update"
      xlink:title="update">
      <rect x="567" y="321" width="64" height="32"/>
      <rect x="565" y="319" width="64" height="32" class="nonterminal"/>
      <text class="nonterminal" x="575" y="339">update</text>
   </a>
   <a xmlns:xlink="http://www.w3.org/1999/xlink"
      xlink:href="../delete"
      xlink:title="delete">
      <rect x="567" y="365" width="60" height="32"/>
      <rect x="565" y="363" width="60" height="32" class="nonterminal"/>
      <text class="nonterminal" x="575" y="383">delete</text>
   </a>
   <rect x="671" y="277" width="44" height="32" rx="10"/>
   <rect x="669"
         y="275"
         width="44"
         height="32"
         class="terminal"
         rx="10"/>
   <text class="terminal" x="679" y="295">end</text>
   <path class="line"
         d="m17 61 h2 m0 0 h10 m72 0 h10 m0 0 h10 m104 0 h10 m0 0 h10 m84 0 h10 m0 0 h10 m26 0 h10 m20 0 h10 m48 0 h10 m-88 0 l20 0 m-1 0 q-9 0 -9 -10 l0 -24 q0 -10 10 -10 m68 44 l20 0 m-20 0 q10 0 10 -10 l0 -24 q0 -10 -10 -10 m-68 0 h10 m24 0 h10 m0 0 h24 m20 44 h10 m26 0 h10 m20 0 h10 m0 0 h160 m-190 0 h20 m170 0 h20 m-210 0 q10 0 10 10 m190 0 q0 -10 10 -10 m-200 10 v12 m190 0 v-12 m-190 12 q0 10 10 10 m170 0 q10 0 10 -10 m-180 10 h10 m82 0 h10 m0 0 h10 m48 0 h10 m22 -32 l2 0 m2 0 l2 0 m2 0 l2 0 m-418 98 l2 0 m2 0 l2 0 m2 0 l2 0 m22 0 h10 m34 0 h10 m0 0 h10 m38 0 h10 m20 0 h10 m56 0 h10 m0 0 h8 m-104 0 h20 m84 0 h20 m-124 0 q10 0 10 10 m104 0 q0 -10 10 -10 m-114 10 v24 m104 0 v-24 m-104 24 q0 10 10 10 m84 0 q10 0 10 -10 m-94 10 h10 m64 0 h10 m-94 -10 v20 m104 0 v-20 m-104 20 v24 m104 0 v-24 m-104 24 q0 10 10 10 m84 0 q10 0 10 -10 m-94 10 h10 m60 0 h10 m0 0 h4 m20 -88 h10 m38 0 h10 m0 0 h54 m-368 0 h20 m348 0 h20 m-388 0 q10 0 10 10 m368 0 q0 -10 10 -10 m-378 10 v112 m368 0 v-112 m-368 112 q0 10 10 10 m348 0 q10 0 10 -10 m-358 10 h10 m56 0 h10 m0 0 h10 m64 0 h10 m20 0 h10 m56 0 h10 m0 0 h8 m-104 0 h20 m84 0 h20 m-124 0 q10 0 10 10 m104 0 q0 -10 10 -10 m-114 10 v24 m104 0 v-24 m-104 24 q0 10 10 10 m84 0 q10 0 10 -10 m-94 10 h10 m64 0 h10 m-94 -10 v20 m104 0 v-20 m-104 20 v24 m104 0 v-24 m-104 24 q0 10 10 10 m84 0 q10 0 10 -10 m-94 10 h10 m60 0 h10 m0 0 h4 m20 -88 h10 m44 0 h10 m23 -132 h-3"/>
   <polygon points="753 159 761 155 761 163"/>
   <polygon points="753 159 745 155 745 163"/>
</svg>
