<?xml version="1.0" encoding="UTF-8"?>
<svg xmlns="http://www.w3.org/2000/svg" width="965" height="303" viewBox="0 0 965 303">
   <defs>
      <style type="text/css">
    @namespace "http://www.w3.org/2000/svg";
    .line                 {fill: none; stroke: #330000; stroke-width: 1;}
    .bold-line            {stroke: #140000; shape-rendering: crispEdges; stroke-width: 2;}
    .thin-line            {stroke: #1F0000; shape-rendering: crispEdges}
    .filled               {fill: #330000; stroke: none;}
    text.terminal         {font-family: Verdana, Sans-serif;
                            font-size: 12px;
                            fill: #140000;
                            font-weight: bold;
                          }
    text.nonterminal      {font-family: Verdana, Sans-serif;
                            font-size: 12px;
                            fill: #1A0000;
                            font-weight: normal;
                          }
    text.regexp           {font-family: Verdana, Sans-serif;
                            font-size: 12px;
                            fill: #1F0000;
                            font-weight: normal;
                          }
    rect, circle, polygon {fill: #330000; stroke: #330000;}
    rect.terminal         {fill: #FF4D4D; stroke: #330000; stroke-width: 1;}
    rect.nonterminal      {fill: #FF9E9E; stroke: #330000; stroke-width: 1;}
    rect.text             {fill: none; stroke: none;}
    polygon.regexp        {fill: #FFC7C7; stroke: #330000; stroke-width: 1;}
  </style>
      <style class="darkreader darkreader--sync" media="screen"/>
   </defs>
   <polygon points="9 33 1 29 1 37"/>
   <polygon points="17 33 9 29 9 37"/>
   <rect x="31" y="19" width="72" height="32" rx="10"/>
   <rect x="29"
         y="17"
         width="72"
         height="32"
         class="terminal"
         rx="10"/>
   <text class="terminal" x="39" y="37">CREATE</text>
   <rect x="123" y="19" width="62" height="32" rx="10"/>
   <rect x="121"
         y="17"
         width="62"
         height="32"
         class="terminal"
         rx="10"/>
   <text class="terminal" x="131" y="37">TABLE</text>
   <a xmlns:xlink="http://www.w3.org/1999/xlink"
      xlink:href="../object"
      xlink:title="table">
      <rect x="205" y="19" width="52" height="32"/>
      <rect x="203" y="17" width="52" height="32" class="nonterminal"/>
      <text class="nonterminal" x="213" y="37">table</text>
   </a>
   <rect x="277" y="19" width="26" height="32" rx="10"/>
   <rect x="275"
         y="17"
         width="26"
         height="32"
         class="terminal"
         rx="10"/>
   <text class="terminal" x="285" y="37">(</text>
   <a xmlns:xlink="http://www.w3.org/1999/xlink"
      xlink:href="../object"
      xlink:title="column">
      <rect x="343" y="19" width="64" height="32"/>
      <rect x="341" y="17" width="64" height="32" class="nonterminal"/>
      <text class="nonterminal" x="351" y="37">column</text>
   </a>
   <a xmlns:xlink="http://www.w3.org/1999/xlink"
      xlink:href="#type"
      xlink:title="type">
      <rect x="427" y="19" width="48" height="32"/>
      <rect x="425" y="17" width="48" height="32" class="nonterminal"/>
      <text class="nonterminal" x="435" y="37">type</text>
   </a>
   <rect x="535" y="83" width="48" height="32" rx="10"/>
   <rect x="533"
         y="81"
         width="48"
         height="32"
         class="terminal"
         rx="10"/>
   <text class="terminal" x="543" y="101">NOT</text>
   <rect x="623" y="51" width="56" height="32" rx="10"/>
   <rect x="621"
         y="49"
         width="56"
         height="32"
         class="terminal"
         rx="10"/>
   <text class="terminal" x="631" y="69">NULL</text>
   <rect x="719" y="19" width="24" height="32" rx="10"/>
   <rect x="717"
         y="17"
         width="24"
         height="32"
         class="terminal"
         rx="10"/>
   <text class="terminal" x="727" y="37">,</text>
   <rect x="783" y="19" width="114" height="32" rx="10"/>
   <rect x="781"
         y="17"
         width="114"
         height="32"
         class="terminal"
         rx="10"/>
   <text class="terminal" x="791" y="37">PRIMARY KEY</text>
   <rect x="917" y="19" width="26" height="32" rx="10"/>
   <rect x="915"
         y="17"
         width="26"
         height="32"
         class="terminal"
         rx="10"/>
   <text class="terminal" x="925" y="37">(</text>
   <a xmlns:xlink="http://www.w3.org/1999/xlink"
      xlink:href="../object"
      xlink:title="column">
      <rect x="61" y="193" width="64" height="32"/>
      <rect x="59" y="191" width="64" height="32" class="nonterminal"/>
      <text class="nonterminal" x="69" y="211">column</text>
   </a>
   <rect x="61" y="149" width="24" height="32" rx="10"/>
   <rect x="59"
         y="147"
         width="24"
         height="32"
         class="terminal"
         rx="10"/>
   <text class="terminal" x="69" y="167">,</text>
   <rect x="165" y="193" width="26" height="32" rx="10"/>
   <rect x="163"
         y="191"
         width="26"
         height="32"
         class="terminal"
         rx="10"/>
   <text class="terminal" x="173" y="211">)</text>
   <rect x="211" y="193" width="26" height="32" rx="10"/>
   <rect x="209"
         y="191"
         width="26"
         height="32"
         class="terminal"
         rx="10"/>
   <text class="terminal" x="219" y="211">)</text>
   <rect x="277" y="225" width="64" height="32" rx="10"/>
   <rect x="275"
         y="223"
         width="64"
         height="32"
         class="terminal"
         rx="10"/>
   <text class="terminal" x="285" y="243">USING</text>
   <rect x="381" y="225" width="68" height="32" rx="10"/>
   <rect x="379"
         y="223"
         width="68"
         height="32"
         class="terminal"
         rx="10"/>
   <text class="terminal" x="389" y="243">MEMTX</text>
   <rect x="381" y="269" width="62" height="32" rx="10"/>
   <rect x="379"
         y="267"
         width="62"
         height="32"
         class="terminal"
         rx="10"/>
   <text class="terminal" x="389" y="287">VINYL</text>
   <rect x="509" y="193" width="114" height="32" rx="10"/>
   <rect x="507"
         y="191"
         width="114"
         height="32"
         class="terminal"
         rx="10"/>
   <text class="terminal" x="517" y="211">DISTRIBUTED</text>
   <rect x="663" y="193" width="38" height="32" rx="10"/>
   <rect x="661"
         y="191"
         width="38"
         height="32"
         class="terminal"
         rx="10"/>
   <text class="terminal" x="671" y="211">BY</text>
   <rect x="721" y="193" width="26" height="32" rx="10"/>
   <rect x="719"
         y="191"
         width="26"
         height="32"
         class="terminal"
         rx="10"/>
   <text class="terminal" x="729" y="211">(</text>
   <a xmlns:xlink="http://www.w3.org/1999/xlink"
      xlink:href="../object"
      xlink:title="column">
      <rect x="787" y="193" width="64" height="32"/>
      <rect x="785" y="191" width="64" height="32" class="nonterminal"/>
      <text class="nonterminal" x="795" y="211">column</text>
   </a>
   <rect x="787" y="149" width="24" height="32" rx="10"/>
   <rect x="785"
         y="147"
         width="24"
         height="32"
         class="terminal"
         rx="10"/>
   <text class="terminal" x="795" y="167">,</text>
   <rect x="891" y="193" width="26" height="32" rx="10"/>
   <rect x="889"
         y="191"
         width="26"
         height="32"
         class="terminal"
         rx="10"/>
   <text class="terminal" x="899" y="211">)</text>
   <rect x="663" y="237" width="92" height="32" rx="10"/>
   <rect x="661"
         y="235"
         width="92"
         height="32"
         class="terminal"
         rx="10"/>
   <text class="terminal" x="671" y="255">GLOBALLY</text>
   <path class="line"
         d="m17 33 h2 m0 0 h10 m72 0 h10 m0 0 h10 m62 0 h10 m0 0 h10 m52 0 h10 m0 0 h10 m26 0 h10 m20 0 h10 m64 0 h10 m0 0 h10 m48 0 h10 m20 0 h10 m0 0 h174 m-204 0 h20 m184 0 h20 m-224 0 q10 0 10 10 m204 0 q0 -10 10 -10 m-214 10 v12 m204 0 v-12 m-204 12 q0 10 10 10 m184 0 q10 0 10 -10 m-174 10 h10 m0 0 h58 m-88 0 h20 m68 0 h20 m-108 0 q10 0 10 10 m88 0 q0 -10 10 -10 m-98 10 v12 m88 0 v-12 m-88 12 q0 10 10 10 m68 0 q10 0 10 -10 m-78 10 h10 m48 0 h10 m20 -32 h10 m56 0 h10 m20 -32 h10 m24 0 h10 m-440 0 l20 0 m-1 0 q-9 0 -9 -10 l0 -12 q0 -10 10 -10 m420 32 l20 0 m-20 0 q10 0 10 -10 l0 -12 q0 -10 -10 -10 m-420 0 h10 m0 0 h410 m20 32 h10 m114 0 h10 m0 0 h10 m26 0 h10 m2 0 l2 0 m2 0 l2 0 m2 0 l2 0 m-946 174 l2 0 m2 0 l2 0 m2 0 l2 0 m22 0 h10 m64 0 h10 m-104 0 l20 0 m-1 0 q-9 0 -9 -10 l0 -24 q0 -10 10 -10 m84 44 l20 0 m-20 0 q10 0 10 -10 l0 -24 q0 -10 -10 -10 m-84 0 h10 m24 0 h10 m0 0 h40 m20 44 h10 m26 0 h10 m0 0 h10 m26 0 h10 m20 0 h10 m0 0 h202 m-232 0 h20 m212 0 h20 m-252 0 q10 0 10 10 m232 0 q0 -10 10 -10 m-242 10 v12 m232 0 v-12 m-232 12 q0 10 10 10 m212 0 q10 0 10 -10 m-222 10 h10 m64 0 h10 m20 0 h10 m68 0 h10 m-108 0 h20 m88 0 h20 m-128 0 q10 0 10 10 m108 0 q0 -10 10 -10 m-118 10 v24 m108 0 v-24 m-108 24 q0 10 10 10 m88 0 q10 0 10 -10 m-98 10 h10 m62 0 h10 m0 0 h6 m40 -76 h10 m114 0 h10 m20 0 h10 m38 0 h10 m0 0 h10 m26 0 h10 m20 0 h10 m64 0 h10 m-104 0 l20 0 m-1 0 q-9 0 -9 -10 l0 -24 q0 -10 10 -10 m84 44 l20 0 m-20 0 q10 0 10 -10 l0 -24 q0 -10 -10 -10 m-84 0 h10 m24 0 h10 m0 0 h40 m20 44 h10 m26 0 h10 m-294 0 h20 m274 0 h20 m-314 0 q10 0 10 10 m294 0 q0 -10 10 -10 m-304 10 v24 m294 0 v-24 m-294 24 q0 10 10 10 m274 0 q10 0 10 -10 m-284 10 h10 m92 0 h10 m0 0 h162 m23 -44 h-3"/>
   <polygon points="955 207 963 203 963 211"/>
   <polygon points="955 207 947 203 947 211"/>
</svg>
