<?xml version="1.0" encoding="UTF-8"?>
<svg xmlns="http://www.w3.org/2000/svg" width="695" height="243" viewBox="0 0 695 243">
   <defs>
      <style type="text/css">
    @namespace "http://www.w3.org/2000/svg";
    .line                 {fill: none; stroke: #330000; stroke-width: 1;}
    .bold-line            {stroke: #140000; shape-rendering: crispEdges; stroke-width: 2;}
    .thin-line            {stroke: #1F0000; shape-rendering: crispEdges}
    .filled               {fill: #330000; stroke: none;}
    text.terminal         {font-family: Verdana, Sans-serif;
                            font-size: 12px;
                            fill: #140000;
                            font-weight: bold;
                          }
    text.nonterminal      {font-family: Verdana, Sans-serif;
                            font-size: 12px;
                            fill: #1A0000;
                            font-weight: normal;
                          }
    text.regexp           {font-family: Verdana, Sans-serif;
                            font-size: 12px;
                            fill: #1F0000;
                            font-weight: normal;
                          }
    rect, circle, polygon {fill: #330000; stroke: #330000;}
    rect.terminal         {fill: #FF4D4D; stroke: #330000; stroke-width: 1;}
    rect.nonterminal      {fill: #FF9E9E; stroke: #330000; stroke-width: 1;}
    rect.text             {fill: none; stroke: none;}
    polygon.regexp        {fill: #FFC7C7; stroke: #330000; stroke-width: 1;}
  </style>
      <style class="darkreader darkreader--sync" media="screen"/>
   </defs>
   <polygon points="9 17 1 13 1 21"/>
   <polygon points="17 17 9 13 9 21"/>
   <rect x="31" y="3" width="72" height="32" rx="10"/>
   <rect x="29"
         y="1"
         width="72"
         height="32"
         class="terminal"
         rx="10"/>
   <text class="terminal" x="39" y="21">CREATE</text>
   <rect x="123" y="3" width="56" height="32" rx="10"/>
   <rect x="121"
         y="1"
         width="56"
         height="32"
         class="terminal"
         rx="10"/>
   <text class="terminal" x="131" y="21">USER</text>
   <a xmlns:xlink="http://www.w3.org/1999/xlink"
      xlink:href="../object"
      xlink:title="user">
      <rect x="199" y="3" width="48" height="32"/>
      <rect x="197" y="1" width="48" height="32" class="nonterminal"/>
      <text class="nonterminal" x="207" y="21">user</text>
   </a>
   <rect x="287" y="35" width="58" height="32" rx="10"/>
   <rect x="285"
         y="33"
         width="58"
         height="32"
         class="terminal"
         rx="10"/>
   <text class="terminal" x="295" y="53">WITH</text>
   <rect x="385" y="3" width="100" height="32" rx="10"/>
   <rect x="383"
         y="1"
         width="100"
         height="32"
         class="terminal"
         rx="10"/>
   <text class="terminal" x="393" y="21">PASSWORD</text>
   <rect x="505" y="3" width="24" height="32" rx="10"/>
   <rect x="503"
         y="1"
         width="24"
         height="32"
         class="terminal"
         rx="10"/>
   <text class="terminal" x="513" y="21">'</text>
   <a xmlns:xlink="http://www.w3.org/1999/xlink"
      xlink:href="../../sql_types#text"
      xlink:title="password">
      <rect x="549" y="3" width="80" height="32"/>
      <rect x="547" y="1" width="80" height="32" class="nonterminal"/>
      <text class="nonterminal" x="557" y="21">password</text>
   </a>
   <rect x="649" y="3" width="24" height="32" rx="10"/>
   <rect x="647"
         y="1"
         width="24"
         height="32"
         class="terminal"
         rx="10"/>
   <text class="terminal" x="657" y="21">'</text>
   <rect x="423" y="121" width="64" height="32" rx="10"/>
   <rect x="421"
         y="119"
         width="64"
         height="32"
         class="terminal"
         rx="10"/>
   <text class="terminal" x="431" y="139">USING</text>
   <rect x="527" y="121" width="100" height="32" rx="10"/>
   <rect x="525"
         y="119"
         width="100"
         height="32"
         class="terminal"
         rx="10"/>
   <text class="terminal" x="535" y="139">CHAP-SHA1</text>
   <rect x="527" y="165" width="56" height="32" rx="10"/>
   <rect x="525"
         y="163"
         width="56"
         height="32"
         class="terminal"
         rx="10"/>
   <text class="terminal" x="535" y="183">LDAP</text>
   <rect x="527" y="209" width="50" height="32" rx="10"/>
   <rect x="525"
         y="207"
         width="50"
         height="32"
         class="terminal"
         rx="10"/>
   <text class="terminal" x="535" y="227">MD5</text>
   <path class="line"
         d="m17 17 h2 m0 0 h10 m72 0 h10 m0 0 h10 m56 0 h10 m0 0 h10 m48 0 h10 m20 0 h10 m0 0 h68 m-98 0 h20 m78 0 h20 m-118 0 q10 0 10 10 m98 0 q0 -10 10 -10 m-108 10 v12 m98 0 v-12 m-98 12 q0 10 10 10 m78 0 q10 0 10 -10 m-88 10 h10 m58 0 h10 m20 -32 h10 m100 0 h10 m0 0 h10 m24 0 h10 m0 0 h10 m80 0 h10 m0 0 h10 m24 0 h10 m2 0 l2 0 m2 0 l2 0 m2 0 l2 0 m-314 86 l2 0 m2 0 l2 0 m2 0 l2 0 m22 0 h10 m0 0 h234 m-264 0 h20 m244 0 h20 m-284 0 q10 0 10 10 m264 0 q0 -10 10 -10 m-274 10 v12 m264 0 v-12 m-264 12 q0 10 10 10 m244 0 q10 0 10 -10 m-254 10 h10 m64 0 h10 m20 0 h10 m100 0 h10 m-140 0 h20 m120 0 h20 m-160 0 q10 0 10 10 m140 0 q0 -10 10 -10 m-150 10 v24 m140 0 v-24 m-140 24 q0 10 10 10 m120 0 q10 0 10 -10 m-130 10 h10 m56 0 h10 m0 0 h44 m-130 -10 v20 m140 0 v-20 m-140 20 v24 m140 0 v-24 m-140 24 q0 10 10 10 m120 0 q10 0 10 -10 m-130 10 h10 m50 0 h10 m0 0 h50 m43 -120 h-3"/>
   <polygon points="685 103 693 99 693 107"/>
   <polygon points="685 103 677 99 677 107"/>
</svg>
