<?xml version="1.0" encoding="UTF-8" standalone="no"?>
<svg
   width="803"
   height="255"
   version="1.1"
   viewBox="0 0 803 255"
   id="svg32"
   sodipodi:docname="create_user.svg"
   inkscape:version="1.3.2 (091e20ef0f, 2023-11-25)"
   xmlns:inkscape="http://www.inkscape.org/namespaces/inkscape"
   xmlns:sodipodi="http://sodipodi.sourceforge.net/DTD/sodipodi-0.dtd"
   xmlns:xlink="http://www.w3.org/1999/xlink"
   xmlns="http://www.w3.org/2000/svg"
   xmlns:svg="http://www.w3.org/2000/svg">
  <sodipodi:namedview
     id="namedview32"
     pagecolor="#ffffff"
     bordercolor="#666666"
     borderopacity="1.0"
     inkscape:showpageshadow="2"
     inkscape:pageopacity="0.0"
     inkscape:pagecheckerboard="0"
     inkscape:deskcolor="#d1d1d1"
     inkscape:zoom="1.1606476"
     inkscape:cx="409.68509"
     inkscape:cy="137.85408"
     inkscape:window-width="1858"
     inkscape:window-height="1014"
     inkscape:window-x="62"
     inkscape:window-y="29"
     inkscape:window-maximized="1"
     inkscape:current-layer="svg32" />
  <defs
     id="defs1">
    <style
       type="text/css"
       id="style1">@namespace &quot;http://www.w3.org/2000/svg&quot;;.line { fill: none; stroke: #330000; stroke-width: 1; }
.bold-line { stroke: #140000; shape-rendering: crispEdges; stroke-width: 2; }
.thin-line { stroke: #1F0000; shape-rendering: crispEdges }
.filled { fill: #330000; stroke: none; }
text.terminal { font-family: Verdana, Sans-serif;                            font-size: 12px;                            fill: #140000;                            font-weight: bold; }
text.nonterminal { font-family: Verdana, Sans-serif;                            font-size: 12px;                            fill: #1A0000;                            font-weight: normal; }
text.regexp { font-family: Verdana, Sans-serif;                            font-size: 12px;                            fill: #1F0000;                            font-weight: normal; }
rect, circle, polygon { fill: #330000; stroke: #330000; }
rect.terminal { fill: #FF4D4D; stroke: #330000; stroke-width: 1; }
rect.nonterminal { fill: #FF9E9E; stroke: #330000; stroke-width: 1; }
rect.text { fill: none; stroke: none; }
polygon.regexp { fill: #FFC7C7; stroke: #330000; stroke-width: 1; }
</style>
  </defs>
  <polygon
     points="9 17 1 13 1 21"
     id="polygon1" />
  <polygon
     points="17 17 9 13 9 21"
     id="polygon2" />
  <rect
     x="31"
     y="3"
     width="72"
     height="32"
     rx="10"
     id="rect2" />
  <rect
     x="29"
     y="1"
     width="72"
     height="32"
     class="terminal"
     rx="10"
     id="rect3" />
  <text
     class="terminal"
     x="39"
     y="21"
     id="text3">CREATE</text>
  <rect
     x="123"
     y="3"
     width="56"
     height="32"
     rx="10"
     id="rect4" />
  <rect
     x="121"
     y="1"
     width="56"
     height="32"
     class="terminal"
     rx="10"
     id="rect5" />
  <text
     class="terminal"
     x="131"
     y="21"
     id="text5">USER</text>
  <rect
     x="219"
     y="35"
     width="34"
     height="32"
     rx="10"
     id="rect6" />
  <rect
     x="217"
     y="33"
     width="34"
     height="32"
     class="terminal"
     rx="10"
     id="rect7" />
  <text
     class="terminal"
     x="227"
     y="53"
     id="text7">IF</text>
  <rect
     x="273"
     y="35"
     width="48"
     height="32"
     rx="10"
     id="rect8" />
  <rect
     x="271"
     y="33"
     width="48"
     height="32"
     class="terminal"
     rx="10"
     id="rect9" />
  <text
     class="terminal"
     x="281"
     y="53"
     id="text9">NOT</text>
  <rect
     x="341"
     y="35"
     width="70"
     height="32"
     rx="10"
     id="rect10" />
  <rect
     x="339"
     y="33"
     width="70"
     height="32"
     class="terminal"
     rx="10"
     id="rect11" />
  <text
     class="terminal"
     x="349"
     y="53"
     id="text11">EXISTS</text>
  <a
     xlink:href="../object"
     xlink:title="user"
     id="a13">
    <rect
       x="451"
       y="3"
       width="48"
       height="32"
       id="rect12" />
    <rect
       x="449"
       y="1"
       width="48"
       height="32"
       class="nonterminal"
       id="rect13" />
    <text
       class="nonterminal"
       x="459"
       y="21"
       id="text13">user</text>
  </a>
  <rect
     x="539"
     y="35"
     width="58"
     height="32"
     rx="10"
     id="rect14" />
  <rect
     x="537"
     y="33"
     width="58"
     height="32"
     class="terminal"
     rx="10"
     id="rect15" />
  <text
     class="terminal"
     x="547"
     y="53"
     id="text15">WITH</text>
  <rect
     x="637"
     y="3"
     width="100"
     height="32"
     rx="10"
     id="rect16" />
  <rect
     x="635"
     y="1"
     width="100"
     height="32"
     class="terminal"
     rx="10"
     id="rect17" />
  <text
     class="terminal"
     x="645"
     y="21"
     id="text17">PASSWORD</text>
  <rect
     x="757"
     y="3"
     width="24"
     height="32"
     rx="10"
     id="rect18" />
  <rect
     x="755"
     y="1"
     width="24"
     height="32"
     class="terminal"
     rx="10"
     id="rect19" />
  <text
     class="terminal"
     x="765"
     y="21"
     id="text19">'</text>
  <a
     xlink:href="../../sql_types#text"
     xlink:title="password"
     id="a21">
    <rect
       x="367"
       y="101"
       width="80"
       height="32"
       id="rect20" />
    <rect
       x="365"
       y="99"
       width="80"
       height="32"
       class="nonterminal"
       id="rect21" />
    <text
       class="nonterminal"
       x="375"
       y="119"
       id="text21">password</text>
  </a>
  <rect
     x="467"
     y="101"
     width="24"
     height="32"
     rx="10"
     id="rect22" />
  <rect
     x="465"
     y="99"
     width="24"
     height="32"
     class="terminal"
     rx="10"
     id="rect23" />
  <text
     class="terminal"
     x="475"
     y="119"
     id="text23">'</text>
  <rect
     x="531"
     y="133"
     width="64"
     height="32"
     rx="10"
     id="rect24" />
  <rect
     x="529"
     y="131"
     width="64"
     height="32"
     class="terminal"
     rx="10"
     id="rect25" />
  <text
     class="terminal"
     x="539"
     y="151"
     id="text25">USING</text>
  <rect
     x="635"
     y="133"
     width="100"
     height="32"
     rx="10"
     id="rect26" />
  <rect
     x="633"
     y="131"
     width="100"
     height="32"
     class="terminal"
     rx="10"
     id="rect27" />
  <text
     class="terminal"
     x="643"
     y="151"
     id="text27">CHAP-SHA1</text>
  <rect
     x="635"
     y="177"
     width="56"
     height="32"
     rx="10"
     id="rect28" />
  <rect
     x="633"
     y="175"
     width="56"
     height="32"
     class="terminal"
     rx="10"
     id="rect29" />
  <text
     class="terminal"
     x="643"
     y="195"
     id="text29">LDAP</text>
  <rect
     x="635"
     y="221"
     width="50"
     height="32"
     rx="10"
     id="rect30" />
  <rect
     x="633"
     y="219"
     width="50"
     height="32"
     class="terminal"
     rx="10"
     id="rect31" />
  <text
     class="terminal"
     x="643"
     y="239"
     id="text31">MD5</text>
  <path
     class="line"
     d="m17 17 h2 m0 0 h10 m72 0 h10 m0 0 h10 m56 0 h10 m20 0 h10 m0 0 h202 m-232 0 h20 m212 0 h20 m-252 0 q10 0 10 10 m232 0 q0 -10 10 -10 m-242 10 v12 m232 0 v-12 m-232 12 q0 10 10 10 m212 0 q10 0 10 -10 m-222 10 h10 m34 0 h10 m0 0 h10 m48 0 h10 m0 0 h10 m70 0 h10 m20 -32 h10 m48 0 h10 m20 0 h10 m0 0 h68 m-98 0 h20 m78 0 h20 m-118 0 q10 0 10 10 m98 0 q0 -10 10 -10 m-108 10 v12 m98 0 v-12 m-98 12 q0 10 10 10 m78 0 q10 0 10 -10 m-88 10 h10 m58 0 h10 m20 -32 h10 m100 0 h10 m0 0 h10 m24 0 h10 m2 0 l2 0 m2 0 l2 0 m2 0 l2 0 m-458 98 l2 0 m2 0 l2 0 m2 0 l2 0 m2 0 h10 m80 0 h10 m0 0 h10 m24 0 h10 m20 0 h10 m0 0 h234 m-264 0 h20 m244 0 h20 m-284 0 q10 0 10 10 m264 0 q0 -10 10 -10 m-274 10 v12 m264 0 v-12 m-264 12 q0 10 10 10 m244 0 q10 0 10 -10 m-254 10 h10 m64 0 h10 m20 0 h10 m100 0 h10 m-140 0 h20 m120 0 h20 m-160 0 q10 0 10 10 m140 0 q0 -10 10 -10 m-150 10 v24 m140 0 v-24 m-140 24 q0 10 10 10 m120 0 q10 0 10 -10 m-130 10 h10 m56 0 h10 m0 0 h44 m-130 -10 v20 m140 0 v-20 m-140 20 v24 m140 0 v-24 m-140 24 q0 10 10 10 m120 0 q10 0 10 -10 m-130 10 h10 m50 0 h10 m0 0 h50 m43 -120 h-3"
     id="path31" />
  <polygon
     points="793 115 801 111 801 119"
     id="polygon31" />
  <polygon
     points="793 115 785 111 785 119"
     id="polygon32" />
</svg>
