<?xml version="1.0" encoding="UTF-8" standalone="no"?>
<svg
   width="795"
   height="685"
   viewBox="0 0 795 685"
   version="1.1"
   id="svg78"
   sodipodi:docname="create_table.svg"
   inkscape:version="1.3.2 (091e20ef0f, 2023-11-25)"
   xmlns:inkscape="http://www.inkscape.org/namespaces/inkscape"
   xmlns:sodipodi="http://sodipodi.sourceforge.net/DTD/sodipodi-0.dtd"
   xmlns:xlink="http://www.w3.org/1999/xlink"
   xmlns="http://www.w3.org/2000/svg"
   xmlns:svg="http://www.w3.org/2000/svg">
  <sodipodi:namedview
     id="namedview78"
     pagecolor="#ffffff"
     bordercolor="#666666"
     borderopacity="1.0"
     inkscape:showpageshadow="2"
     inkscape:pageopacity="0.0"
     inkscape:pagecheckerboard="0"
     inkscape:deskcolor="#d1d1d1"
     inkscape:zoom="1.2981132"
     inkscape:cx="449.11337"
     inkscape:cy="352.04942"
     inkscape:window-width="1858"
     inkscape:window-height="1014"
     inkscape:window-x="62"
     inkscape:window-y="29"
     inkscape:window-maximized="1"
     inkscape:current-layer="svg78" />
  <defs
     id="defs1">
    <style
       type="text/css"
       id="style1">@namespace &quot;http://www.w3.org/2000/svg&quot;;.line { fill: none; stroke: #330000; stroke-width: 1; }
.bold-line { stroke: #140000; shape-rendering: crispEdges; stroke-width: 2; }
.thin-line { stroke: #1F0000; shape-rendering: crispEdges }
.filled { fill: #330000; stroke: none; }
text.terminal { font-family: Verdana, Sans-serif;                            font-size: 12px;                            fill: #140000;                            font-weight: bold; }
text.nonterminal { font-family: Verdana, Sans-serif;                            font-size: 12px;                            fill: #1A0000;                            font-weight: normal; }
text.regexp { font-family: Verdana, Sans-serif;                            font-size: 12px;                            fill: #1F0000;                            font-weight: normal; }
rect, circle, polygon { fill: #330000; stroke: #330000; }
rect.terminal { fill: #FF4D4D; stroke: #330000; stroke-width: 1; }
rect.nonterminal { fill: #FF9E9E; stroke: #330000; stroke-width: 1; }
rect.text { fill: none; stroke: none; }
polygon.regexp { fill: #FFC7C7; stroke: #330000; stroke-width: 1; }
</style>
  </defs>
  <polygon
     points="9 17 1 13 1 21"
     id="polygon1" />
  <polygon
     points="17 17 9 13 9 21"
     id="polygon2" />
  <rect
     x="31"
     y="3"
     width="72"
     height="32"
     rx="10"
     id="rect2" />
  <rect
     x="29"
     y="1"
     width="72"
     height="32"
     class="terminal"
     rx="10"
     id="rect3" />
  <text
     class="terminal"
     x="39"
     y="21"
     id="text3">CREATE</text>
  <rect
     x="123"
     y="3"
     width="62"
     height="32"
     rx="10"
     id="rect4" />
  <rect
     x="121"
     y="1"
     width="62"
     height="32"
     class="terminal"
     rx="10"
     id="rect5" />
  <text
     class="terminal"
     x="131"
     y="21"
     id="text5">TABLE</text>
  <a
     xlink:href="../object"
     xlink:title="table"
     id="a7">
    <rect
       x="205"
       y="3"
       width="52"
       height="32"
       id="rect6" />
    <rect
       x="203"
       y="1"
       width="52"
       height="32"
       class="nonterminal"
       id="rect7" />
    <text
       class="nonterminal"
       x="213"
       y="21"
       id="text7">table</text>
  </a>
  <rect
     x="277"
     y="3"
     width="26"
     height="32"
     rx="10"
     id="rect8" />
  <rect
     x="275"
     y="1"
     width="26"
     height="32"
     class="terminal"
     rx="10"
     id="rect9" />
  <text
     class="terminal"
     x="285"
     y="21"
     id="text9">(</text>
  <a
     xlink:href="../object"
     xlink:title="column"
     id="a11">
    <rect
       x="116"
       y="113"
       width="64"
       height="32"
       id="rect10" />
    <rect
       x="114"
       y="111"
       width="64"
       height="32"
       class="nonterminal"
       id="rect11" />
    <text
       class="nonterminal"
       x="124"
       y="131"
       id="text11">column</text>
  </a>
  <a
     xlink:href="#type"
     xlink:title="type"
     id="a13">
    <rect
       x="200"
       y="113"
       width="48"
       height="32"
       id="rect12" />
    <rect
       x="198"
       y="111"
       width="48"
       height="32"
       class="nonterminal"
       id="rect13" />
    <text
       class="nonterminal"
       x="208"
       y="131"
       id="text13">type</text>
  </a>
  <rect
     x="308"
     y="177"
     width="48"
     height="32"
     rx="10"
     id="rect14" />
  <rect
     x="306"
     y="175"
     width="48"
     height="32"
     class="terminal"
     rx="10"
     id="rect15" />
  <text
     class="terminal"
     x="316"
     y="195"
     id="text15">NOT</text>
  <rect
     x="396"
     y="145"
     width="56"
     height="32"
     rx="10"
     id="rect16" />
  <rect
     x="394"
     y="143"
     width="56"
     height="32"
     class="terminal"
     rx="10"
     id="rect17" />
  <text
     class="terminal"
     x="404"
     y="163"
     id="text17">NULL</text>
  <rect
     x="512"
     y="145"
     width="84"
     height="32"
     rx="10"
     id="rect18" />
  <rect
     x="510"
     y="143"
     width="84"
     height="32"
     class="terminal"
     rx="10"
     id="rect19" />
  <text
     class="terminal"
     x="520"
     y="163"
     id="text19">PRIMARY</text>
  <rect
     x="616"
     y="145"
     width="46"
     height="32"
     rx="10"
     id="rect20" />
  <rect
     x="614"
     y="143"
     width="46"
     height="32"
     class="terminal"
     rx="10"
     id="rect21" />
  <text
     class="terminal"
     x="624"
     y="163"
     id="text21">KEY</text>
  <rect
     x="116"
     y="69"
     width="24"
     height="32"
     rx="10"
     id="rect22" />
  <rect
     x="114"
     y="67"
     width="24"
     height="32"
     class="terminal"
     rx="10"
     id="rect23" />
  <text
     class="terminal"
     x="124"
     y="87"
     id="text23">,</text>
  <rect
     x="45"
     y="287"
     width="24"
     height="32"
     rx="10"
     id="rect24" />
  <rect
     x="43"
     y="285"
     width="24"
     height="32"
     class="terminal"
     rx="10"
     id="rect25" />
  <text
     class="terminal"
     x="53"
     y="305"
     id="text25">,</text>
  <rect
     x="89"
     y="287"
     width="84"
     height="32"
     rx="10"
     id="rect26" />
  <rect
     x="87"
     y="285"
     width="84"
     height="32"
     class="terminal"
     rx="10"
     id="rect27" />
  <text
     class="terminal"
     x="97"
     y="305"
     id="text27">PRIMARY</text>
  <rect
     x="193"
     y="287"
     width="46"
     height="32"
     rx="10"
     id="rect28" />
  <rect
     x="191"
     y="285"
     width="46"
     height="32"
     class="terminal"
     rx="10"
     id="rect29" />
  <text
     class="terminal"
     x="201"
     y="305"
     id="text29">KEY</text>
  <rect
     x="259"
     y="287"
     width="26"
     height="32"
     rx="10"
     id="rect30" />
  <rect
     x="257"
     y="285"
     width="26"
     height="32"
     class="terminal"
     rx="10"
     id="rect31" />
  <text
     class="terminal"
     x="267"
     y="305"
     id="text31">(</text>
  <a
     xlink:href="../object"
     xlink:title="column"
     id="a33">
    <rect
       x="325"
       y="287"
       width="64"
       height="32"
       id="rect32" />
    <rect
       x="323"
       y="285"
       width="64"
       height="32"
       class="nonterminal"
       id="rect33" />
    <text
       class="nonterminal"
       x="333"
       y="305"
       id="text33">column</text>
  </a>
  <rect
     x="325"
     y="243"
     width="24"
     height="32"
     rx="10"
     id="rect34" />
  <rect
     x="323"
     y="241"
     width="24"
     height="32"
     class="terminal"
     rx="10"
     id="rect35" />
  <text
     class="terminal"
     x="333"
     y="261"
     id="text35">,</text>
  <rect
     x="429"
     y="287"
     width="26"
     height="32"
     rx="10"
     id="rect36" />
  <rect
     x="427"
     y="285"
     width="26"
     height="32"
     class="terminal"
     rx="10"
     id="rect37" />
  <text
     class="terminal"
     x="437"
     y="305"
     id="text37">)</text>
  <rect
     x="495"
     y="287"
     width="26"
     height="32"
     rx="10"
     id="rect38" />
  <rect
     x="493"
     y="285"
     width="26"
     height="32"
     class="terminal"
     rx="10"
     id="rect39" />
  <text
     class="terminal"
     x="503"
     y="305"
     id="text39">)</text>
  <rect
     x="561"
     y="319"
     width="64"
     height="32"
     rx="10"
     id="rect40" />
  <rect
     x="559"
     y="317"
     width="64"
     height="32"
     class="terminal"
     rx="10"
     id="rect41" />
  <text
     class="terminal"
     x="569"
     y="337"
     id="text41">USING</text>
  <rect
     x="665"
     y="319"
     width="68"
     height="32"
     rx="10"
     id="rect42" />
  <rect
     x="663"
     y="317"
     width="68"
     height="32"
     class="terminal"
     rx="10"
     id="rect43" />
  <text
     class="terminal"
     x="673"
     y="337"
     id="text43">MEMTX</text>
  <rect
     x="665"
     y="363"
     width="62"
     height="32"
     rx="10"
     id="rect44" />
  <rect
     x="663"
     y="361"
     width="62"
     height="32"
     class="terminal"
     rx="10"
     id="rect45" />
  <text
     class="terminal"
     x="673"
     y="381"
     id="text45">VINYL</text>
  <rect
     x="71"
     y="473"
     width="114"
     height="32"
     rx="10"
     id="rect46" />
  <rect
     x="69"
     y="471"
     width="114"
     height="32"
     class="terminal"
     rx="10"
     id="rect47" />
  <text
     class="terminal"
     x="79"
     y="491"
     id="text47">DISTRIBUTED</text>
  <rect
     x="225"
     y="473"
     width="38"
     height="32"
     rx="10"
     id="rect48" />
  <rect
     x="223"
     y="471"
     width="38"
     height="32"
     class="terminal"
     rx="10"
     id="rect49" />
  <text
     class="terminal"
     x="233"
     y="491"
     id="text49">BY</text>
  <rect
     x="283"
     y="473"
     width="26"
     height="32"
     rx="10"
     id="rect50" />
  <rect
     x="281"
     y="471"
     width="26"
     height="32"
     class="terminal"
     rx="10"
     id="rect51" />
  <text
     class="terminal"
     x="291"
     y="491"
     id="text51">(</text>
  <a
     xlink:href="../object"
     xlink:title="column"
     id="a53">
    <rect
       x="349"
       y="473"
       width="64"
       height="32"
       id="rect52" />
    <rect
       x="347"
       y="471"
       width="64"
       height="32"
       class="nonterminal"
       id="rect53" />
    <text
       class="nonterminal"
       x="357"
       y="491"
       id="text53">column</text>
  </a>
  <rect
     x="349"
     y="429"
     width="24"
     height="32"
     rx="10"
     id="rect54" />
  <rect
     x="347"
     y="427"
     width="24"
     height="32"
     class="terminal"
     rx="10"
     id="rect55" />
  <text
     class="terminal"
     x="357"
     y="447"
     id="text55">,</text>
  <rect
     x="453"
     y="473"
     width="26"
     height="32"
     rx="10"
     id="rect56" />
  <rect
     x="451"
     y="471"
     width="26"
     height="32"
     class="terminal"
     rx="10"
     id="rect57" />
  <text
     class="terminal"
     x="461"
     y="491"
     id="text57">)</text>
  <rect
     x="519"
     y="505"
     width="36"
     height="32"
     rx="10"
     id="rect58" />
  <rect
     x="517"
     y="503"
     width="36"
     height="32"
     class="terminal"
     rx="10"
     id="rect59" />
  <text
     class="terminal"
     x="527"
     y="523"
     id="text59">IN</text>
  <rect
     x="575"
     y="505"
     width="52"
     height="32"
     rx="10"
     id="rect60" />
  <rect
     x="573"
     y="503"
     width="52"
     height="32"
     class="terminal"
     rx="10"
     id="rect61" />
  <text
     class="terminal"
     x="583"
     y="523"
     id="text61">TIER</text>
  <a
     xlink:href="../object"
     xlink:title="tier"
     id="a63">
    <rect
       x="647"
       y="505"
       width="40"
       height="32"
       id="rect62" />
    <rect
       x="645"
       y="503"
       width="40"
       height="32"
       class="nonterminal"
       id="rect63" />
    <text
       class="nonterminal"
       x="655"
       y="523"
       id="text63">tier</text>
  </a>
  <rect
     x="225"
     y="549"
     width="92"
     height="32"
     rx="10"
     id="rect64" />
  <rect
     x="223"
     y="547"
     width="92"
     height="32"
     class="terminal"
     rx="10"
     id="rect65" />
  <text
     class="terminal"
     x="233"
     y="567"
     id="text65">GLOBALLY</text>
  <rect
     x="345"
     y="651"
     width="76"
     height="32"
     rx="10"
     id="rect66" />
  <rect
     x="343"
     y="649"
     width="76"
     height="32"
     class="terminal"
     rx="10"
     id="rect67" />
  <text
     class="terminal"
     x="353"
     y="669"
     id="text67">OPTION</text>
  <rect
     x="441"
     y="651"
     width="26"
     height="32"
     rx="10"
     id="rect68" />
  <rect
     x="439"
     y="649"
     width="26"
     height="32"
     class="terminal"
     rx="10"
     id="rect69" />
  <text
     class="terminal"
     x="449"
     y="669"
     id="text69">(</text>
  <rect
     x="487"
     y="651"
     width="82"
     height="32"
     rx="10"
     id="rect70" />
  <rect
     x="485"
     y="649"
     width="82"
     height="32"
     class="terminal"
     rx="10"
     id="rect71" />
  <text
     class="terminal"
     x="495"
     y="669"
     id="text71">TIMEOUT</text>
  <rect
     x="589"
     y="651"
     width="30"
     height="32"
     rx="10"
     id="rect72" />
  <rect
     x="587"
     y="649"
     width="30"
     height="32"
     class="terminal"
     rx="10"
     id="rect73" />
  <text
     class="terminal"
     x="597"
     y="669"
     id="text73">=</text>
  <a
     xlink:href="../../sql_types#double"
     xlink:title="double"
     id="a75">
    <rect
       x="639"
       y="651"
       width="62"
       height="32"
       id="rect74" />
    <rect
       x="637"
       y="649"
       width="62"
       height="32"
       class="nonterminal"
       id="rect75" />
    <text
       class="nonterminal"
       x="647"
       y="669"
       id="text75">double</text>
  </a>
  <rect
     x="721"
     y="651"
     width="26"
     height="32"
     rx="10"
     id="rect76" />
  <rect
     x="719"
     y="649"
     width="26"
     height="32"
     class="terminal"
     rx="10"
     id="rect77" />
  <text
     class="terminal"
     x="729"
     y="669"
     id="text77">)</text>
  <path
     class="line"
     d="m17 17 h2 m0 0 h10 m72 0 h10 m0 0 h10 m62 0 h10 m0 0 h10 m52 0 h10 m0 0 h10 m26 0 h10 m2 0 l2 0 m2 0 l2 0 m2 0 l2 0 m-251 110 l2 0 m2 0 l2 0 m2 0 l2 0 m22 0 h10 m64 0 h10 m0 0 h10 m48 0 h10 m20 0 h10 m0 0 h174 m-204 0 h20 m184 0 h20 m-224 0 q10 0 10 10 m204 0 q0 -10 10 -10 m-214 10 v12 m204 0 v-12 m-204 12 q0 10 10 10 m184 0 q10 0 10 -10 m-174 10 h10 m0 0 h58 m-88 0 h20 m68 0 h20 m-108 0 q10 0 10 10 m88 0 q0 -10 10 -10 m-98 10 v12 m88 0 v-12 m-88 12 q0 10 10 10 m68 0 q10 0 10 -10 m-78 10 h10 m48 0 h10 m20 -32 h10 m56 0 h10 m40 -32 h10 m0 0 h160 m-190 0 h20 m170 0 h20 m-210 0 q10 0 10 10 m190 0 q0 -10 10 -10 m-200 10 v12 m190 0 v-12 m-190 12 q0 10 10 10 m170 0 q10 0 10 -10 m-180 10 h10 m84 0 h10 m0 0 h10 m46 0 h10 m-586 -32 l20 0 m-1 0 q-9 0 -9 -10 l0 -24 q0 -10 10 -10 m586 44 l20 0 m-20 0 q10 0 10 -10 l0 -24 q0 -10 -10 -10 m-586 0 h10 m24 0 h10 m0 0 h542 m22 44 l2 0 m2 0 l2 0 m2 0 l2 0 m-721 174 l2 0 m2 0 l2 0 m2 0 l2 0 m22 0 h10 m24 0 h10 m0 0 h10 m84 0 h10 m0 0 h10 m46 0 h10 m0 0 h10 m26 0 h10 m20 0 h10 m64 0 h10 m-104 0 l20 0 m-1 0 q-9 0 -9 -10 l0 -24 q0 -10 10 -10 m84 44 l20 0 m-20 0 q10 0 10 -10 l0 -24 q0 -10 -10 -10 m-84 0 h10 m24 0 h10 m0 0 h40 m20 44 h10 m26 0 h10 m-450 0 h20 m430 0 h20 m-470 0 q10 0 10 10 m450 0 q0 -10 10 -10 m-460 10 v14 m450 0 v-14 m-450 14 q0 10 10 10 m430 0 q10 0 10 -10 m-440 10 h10 m0 0 h420 m20 -34 h10 m26 0 h10 m20 0 h10 m0 0 h202 m-232 0 h20 m212 0 h20 m-252 0 q10 0 10 10 m232 0 q0 -10 10 -10 m-242 10 v12 m232 0 v-12 m-232 12 q0 10 10 10 m212 0 q10 0 10 -10 m-222 10 h10 m64 0 h10 m20 0 h10 m68 0 h10 m-108 0 h20 m88 0 h20 m-128 0 q10 0 10 10 m108 0 q0 -10 10 -10 m-118 10 v24 m108 0 v-24 m-108 24 q0 10 10 10 m88 0 q10 0 10 -10 m-98 10 h10 m62 0 h10 m0 0 h6 m42 -76 l2 0 m2 0 l2 0 m2 0 l2 0 m-766 186 l2 0 m2 0 l2 0 m2 0 l2 0 m22 0 h10 m114 0 h10 m20 0 h10 m38 0 h10 m0 0 h10 m26 0 h10 m20 0 h10 m64 0 h10 m-104 0 l20 0 m-1 0 q-9 0 -9 -10 l0 -24 q0 -10 10 -10 m84 44 l20 0 m-20 0 q10 0 10 -10 l0 -24 q0 -10 -10 -10 m-84 0 h10 m24 0 h10 m0 0 h40 m20 44 h10 m26 0 h10 m20 0 h10 m0 0 h178 m-208 0 h20 m188 0 h20 m-228 0 q10 0 10 10 m208 0 q0 -10 10 -10 m-218 10 v12 m208 0 v-12 m-208 12 q0 10 10 10 m188 0 q10 0 10 -10 m-198 10 h10 m36 0 h10 m0 0 h10 m52 0 h10 m0 0 h10 m40 0 h10 m-502 -32 h20 m502 0 h20 m-542 0 q10 0 10 10 m522 0 q0 -10 10 -10 m-532 10 v56 m522 0 v-56 m-522 56 q0 10 10 10 m502 0 q10 0 10 -10 m-512 10 h10 m92 0 h10 m0 0 h390 m-676 -76 h20 m676 0 h20 m-716 0 q10 0 10 10 m696 0 q0 -10 10 -10 m-706 10 v90 m696 0 v-90 m-696 90 q0 10 10 10 m676 0 q10 0 10 -10 m-686 10 h10 m0 0 h666 m22 -110 l2 0 m2 0 l2 0 m2 0 l2 0 m-466 146 l2 0 m2 0 l2 0 m2 0 l2 0 m22 0 h10 m0 0 h412 m-442 0 h20 m422 0 h20 m-462 0 q10 0 10 10 m442 0 q0 -10 10 -10 m-452 10 v12 m442 0 v-12 m-442 12 q0 10 10 10 m422 0 q10 0 10 -10 m-432 10 h10 m76 0 h10 m0 0 h10 m26 0 h10 m0 0 h10 m82 0 h10 m0 0 h10 m30 0 h10 m0 0 h10 m62 0 h10 m0 0 h10 m26 0 h10 m23 -32 h-3"
     id="path77" />
  <polygon
     points="785 633 793 629 793 637"
     id="polygon77" />
  <polygon
     points="785 633 777 629 777 637"
     id="polygon78" />
</svg>
