<?xml version="1.0" encoding="UTF-8" standalone="no"?>
<svg
   width="577"
   height="191"
   viewBox="0 0 577 191"
   version="1.1"
   id="svg34"
   sodipodi:docname="create_procedure.svg"
   inkscape:version="1.3.2 (091e20ef0f, 2023-11-25)"
   xmlns:inkscape="http://www.inkscape.org/namespaces/inkscape"
   xmlns:sodipodi="http://sodipodi.sourceforge.net/DTD/sodipodi-0.dtd"
   xmlns:xlink="http://www.w3.org/1999/xlink"
   xmlns="http://www.w3.org/2000/svg"
   xmlns:svg="http://www.w3.org/2000/svg">
  <sodipodi:namedview
     id="namedview34"
     pagecolor="#ffffff"
     bordercolor="#666666"
     borderopacity="1.0"
     inkscape:showpageshadow="2"
     inkscape:pageopacity="0.0"
     inkscape:pagecheckerboard="0"
     inkscape:deskcolor="#d1d1d1"
     inkscape:zoom="1.1282496"
     inkscape:cx="235.32027"
     inkscape:cy="89.076034"
     inkscape:window-width="1854"
     inkscape:window-height="1011"
     inkscape:window-x="66"
     inkscape:window-y="32"
     inkscape:window-maximized="1"
     inkscape:current-layer="svg34" />
  <defs
     id="defs1">
    <style
       type="text/css"
       id="style1">@namespace &quot;http://www.w3.org/2000/svg&quot;;.line { fill: none; stroke: #330000; stroke-width: 1; }
.bold-line { stroke: #140000; shape-rendering: crispEdges; stroke-width: 2; }
.thin-line { stroke: #1F0000; shape-rendering: crispEdges }
.filled { fill: #330000; stroke: none; }
text.terminal { font-family: HelveticaNeueCyr, Sans-serif;                            font-size: 14px;                            fill: #140000;                            font-weight: bold; }
text.nonterminal { font-family: HelveticaNeueCyr, Sans-serif;                            font-size: 14px;                            fill: #1A0000;                            font-weight: normal; }
text.regexp { font-family: HelveticaNeueCyr, Sans-serif;                            font-size: 14px;                            fill: #1F0000;                            font-weight: normal; }
rect, circle, polygon { fill: #330000; stroke: #330000; }
rect.terminal { fill: #FF4D4D; stroke: #330000; stroke-width: 1; }
rect.nonterminal { fill: #FF9E9E; stroke: #330000; stroke-width: 1; }
rect.text { fill: none; stroke: none; }
polygon.regexp { fill: #FFC7C7; stroke: #330000; stroke-width: 1; }
</style>
  </defs>
  <path
     id="polygon1"
     style="fill:#330000;stroke:#330000"
     d="M 11,61 3,57 v 8 z" />
  <path
     id="polygon2"
     style="fill:#330000;stroke:#330000"
     d="m 19,61 -8,-4 v 8 z" />
  <path
     id="rect2"
     style="fill:#330000;stroke:#330000"
     d="m 43,47 h 140 c 5.54,0 10,4.46 10,10 v 12 c 0,5.54 -4.46,10 -10,10 H 43 C 37.46,79 33,74.54 33,69 V 57 c 0,-5.54 4.46,-10 10,-10 z" />
  <path
     id="rect3"
     class="terminal"
     style="fill:#ff4d4d;stroke:#330000"
     d="m 41,45 h 140 c 5.54,0 10,4.46 10,10 v 12 c 0,5.54 -4.46,10 -10,10 H 41 C 35.46,77 31,72.54 31,67 V 55 c 0,-5.54 4.46,-10 10,-10 z" />
  <path
     d="m 46.87,61.15 q -0.168,1.876 -1.316,2.982 -1.148,1.106 -3.15,1.106 -2.17,0 -3.5,-1.428 -1.316,-1.442 -1.316,-3.808 0,-2.24 1.33,-3.724 1.344,-1.484 3.57,-1.484 1.778,0 2.982,1.008 1.204,1.008 1.33,2.562 h -2.142 q -0.168,-0.826 -0.756,-1.274 -0.574,-0.462 -1.456,-0.462 -0.91,0 -1.54,0.518 -0.616,0.504 -0.868,1.246 -0.252,0.742 -0.252,1.624 0,1.54 0.714,2.464 0.714,0.91 1.918,0.91 2.002,0 2.282,-2.24 z m 1.553989,-6.118 h 4.956 q 1.484,0 2.422,0.7 0.938,0.7 0.938,2.128 0,0.868 -0.42,1.526 -0.42,0.644 -1.162,0.924 1.288,0.266 1.47,2.324 0,0.07 0.028,0.434 0.028,0.364 0.056,0.588 0.028,0.21 0.07,0.518 0.042,0.308 0.126,0.518 0.084,0.21 0.196,0.308 h -2.268 q -0.112,-0.224 -0.168,-0.56 -0.056,-0.35 -0.098,-0.882 -0.042,-0.546 -0.042,-0.602 -0.112,-1.05 -0.532,-1.456 -0.406,-0.406 -1.456,-0.406 h -1.946 V 65 h -2.17 z m 2.17,1.722 v 2.758 h 2.072 q 0.91,0 1.414,-0.28 0.518,-0.294 0.518,-1.134 0,-0.784 -0.504,-1.064 -0.49,-0.28 -1.33,-0.28 z m 15.330002,-1.722 v 1.792 h -5.306 v 2.17 h 4.872 v 1.722 h -4.872 v 2.45 h 5.404 V 65 h -7.574 v -9.968 z m 6.55201,-0.014 3.794,9.982 h -2.296 l -0.784,-2.226 h -3.71 l -0.812,2.226 h -2.24 l 3.794,-9.982 z m 0.182,6.16 -1.316,-3.71 -1.33,3.71 z m 10.822001,-6.146 v 1.862 h -2.996 V 65 h -2.198 v -8.106 h -2.996 v -1.862 z m 8.624001,0 v 1.792 h -5.306 v 2.17 h 4.872 v 1.722 h -4.872 v 2.45 h 5.404 V 65 h -7.574 v -9.968 z m 5.502008,0 h 4.297999 q 1.68,0 2.66,0.812 0.994,0.798 0.994,2.394 0,1.568 -0.98,2.38 -0.98,0.798 -2.562,0.798 H 99.776011 V 65 h -2.17 z m 2.17,1.792 v 2.87 h 1.945999 q 1.708,0 1.708,-1.428 0,-1.442 -1.694,-1.442 z M 107.014,55.032 h 4.956 q 1.484,0 2.422,0.7 0.938,0.7 0.938,2.128 0,0.868 -0.42,1.526 -0.42,0.644 -1.162,0.924 1.288,0.266 1.47,2.324 0,0.07 0.028,0.434 0.028,0.364 0.056,0.588 0.028,0.21 0.07,0.518 0.042,0.308 0.126,0.518 0.084,0.21 0.196,0.308 h -2.268 q -0.112,-0.224 -0.168,-0.56 -0.056,-0.35 -0.098,-0.882 -0.042,-0.546 -0.042,-0.602 -0.112,-1.05 -0.532,-1.456 -0.406,-0.406 -1.456,-0.406 h -1.946 V 65 h -2.17 z m 2.17,1.722 v 2.758 h 2.072 q 0.91,0 1.414,-0.28 0.518,-0.294 0.518,-1.134 0,-0.784 -0.504,-1.064 -0.49,-0.28 -1.33,-0.28 z m 12.36201,-1.96 q 2.184,0 3.528,1.456 1.358,1.442 1.358,3.78 0,2.338 -1.358,3.78 -1.344,1.428 -3.542,1.428 -2.212,0 -3.57,-1.428 -1.358,-1.442 -1.358,-3.78 0,-2.366 1.344,-3.794 1.358,-1.442 3.598,-1.442 z m -0.028,1.792 q -1.232,0 -1.974,0.924 -0.728,0.924 -0.728,2.478 0,1.61 0.728,2.52 0.728,0.91 2.002,0.924 1.246,0 1.96,-0.924 0.714,-0.924 0.714,-2.52 0,-1.568 -0.728,-2.478 -0.728,-0.924 -1.974,-0.924 z M 136.834,61.15 q -0.168,1.876 -1.316,2.982 -1.148,1.106 -3.15,1.106 -2.17,0 -3.5,-1.428 -1.316,-1.442 -1.316,-3.808 0,-2.24 1.33,-3.724 1.344,-1.484 3.57,-1.484 1.778,0 2.982,1.008 1.204,1.008 1.33,2.562 h -2.142 q -0.168,-0.826 -0.756,-1.274 -0.574,-0.462 -1.456,-0.462 -0.91,0 -1.54,0.518 -0.616,0.504 -0.868,1.246 -0.252,0.742 -0.252,1.624 0,1.54 0.714,2.464 0.714,0.91 1.918,0.91 2.002,0 2.282,-2.24 z m 8.946,-6.118 v 1.792 h -5.306 v 2.17 h 4.872 v 1.722 h -4.872 v 2.45 h 5.404 V 65 h -7.574 V 55.032 Z M 147.39,65 v -9.968 h 4.032 q 2.324,0 3.57,1.288 1.26,1.288 1.26,3.696 0,2.408 -1.26,3.696 Q 153.746,65 151.422,65 Z m 2.17,-1.82 h 1.596 q 2.898,0 2.898,-3.164 0,-1.526 -0.728,-2.338 -0.714,-0.826 -2.17,-0.826 h -1.596 z m 16.674,-8.148 v 5.992 q 0,2.142 -1.036,3.164 -1.022,1.008 -3.206,1.008 -2.212,0 -3.262,-1.022 -1.036,-1.036 -1.036,-3.178 v -5.964 h 2.184 v 5.964 q 0,1.218 0.462,1.806 0.462,0.588 1.68,0.588 1.176,0 1.596,-0.588 0.434,-0.588 0.434,-1.806 v -5.964 z m 1.97399,0 h 4.956 q 1.484,0 2.422,0.7 0.938,0.7 0.938,2.128 0,0.868 -0.42,1.526 -0.42,0.644 -1.162,0.924 1.288,0.266 1.47,2.324 0,0.07 0.028,0.434 0.028,0.364 0.056,0.588 0.028,0.21 0.07,0.518 0.042,0.308 0.126,0.518 0.084,0.21 0.196,0.308 h -2.268 q -0.112,-0.224 -0.168,-0.56 -0.056,-0.35 -0.098,-0.882 -0.042,-0.546 -0.042,-0.602 -0.112,-1.05 -0.532,-1.456 -0.406,-0.406 -1.456,-0.406 h -1.946 V 65 h -2.17 z m 2.17,1.722 v 2.758 h 2.072 q 0.91,0 1.414,-0.28 0.518,-0.294 0.518,-1.134 0,-0.784 -0.504,-1.064 -0.49,-0.28 -1.33,-0.28 z m 15.33,-1.722 v 1.792 h -5.306 v 2.17 h 4.872 v 1.722 h -4.872 v 2.45 h 5.404 V 65 h -7.574 v -9.968 z"
     id="text3"
     class="terminal"
     style="font-weight:bold;font-size:14px;font-family:HelveticaNeueCyr, Sans-serif;fill:#140000"
     aria-label="CREATE PROCEDURE" />
  <a
     xlink:href="#name"
     xlink:title="procedure"
     id="a5">
    <path
       id="rect4"
       style="fill:#330000;stroke:#330000"
       d="m 213,47 h 84 v 32 h -84 z" />
    <path
       id="rect5"
       class="nonterminal"
       style="fill:#ff9e9e;stroke:#330000"
       d="m 211,45 h 84 v 32 h -84 z" />
    <path
       d="m 223.016,57.776 v 1.022 q 0.784,-1.246 2.436,-1.246 1.512,0 2.394,1.022 0.896,1.022 0.896,2.772 0,1.75 -0.882,2.8 -0.868,1.036 -2.352,1.036 -1.554,0 -2.422,-1.19 v 3.794 h -1.19 v -10.01 z m 2.254,0.77 q -1.036,0 -1.638,0.756 -0.588,0.742 -0.588,2.058 0,1.316 0.602,2.072 0.616,0.742 1.666,0.742 1.022,0 1.61,-0.756 0.588,-0.756 0.588,-2.058 0,-1.316 -0.602,-2.058 -0.588,-0.756 -1.638,-0.756 z m 8.69401,-0.938 v 1.232 q -0.126,-0.014 -0.308,-0.014 -0.574,0 -0.994,0.182 -0.42,0.168 -0.672,0.448 -0.238,0.28 -0.392,0.7 -0.154,0.42 -0.21,0.84 -0.042,0.42 -0.042,0.952 V 65 h -1.19 v -7.224 h 1.134 v 1.554 q 0.714,-1.722 2.674,-1.722 z m 1.218,0.994 q 0.952,-1.036 2.59,-1.036 1.638,0 2.548,0.994 0.91,0.994 0.91,2.786 0,1.834 -0.91,2.856 -0.91,1.022 -2.562,1.022 -1.652,0 -2.59,-1.008 -0.938,-1.008 -0.938,-2.8 0,-1.778 0.952,-2.814 z m 4.214,0.728 q -0.602,-0.77 -1.652,-0.77 -1.05,0 -1.666,0.77 -0.616,0.77 -0.616,2.058 0,1.33 0.602,2.086 0.616,0.742 1.708,0.742 1.05,0 1.638,-0.756 0.602,-0.756 0.602,-2.086 0,-1.288 -0.616,-2.044 z m 9.46399,3.038 q -0.154,1.302 -0.994,2.072 -0.826,0.77 -2.156,0.77 -1.638,0 -2.534,-1.008 -0.896,-1.022 -0.896,-2.716 0,-1.806 0.938,-2.856 0.938,-1.064 2.534,-1.064 1.33,0 2.128,0.672 0.798,0.658 0.938,1.89 h -1.232 q -0.322,-1.568 -1.82,-1.568 -1.036,0 -1.638,0.77 -0.602,0.756 -0.602,2.058 0,1.316 0.574,2.072 0.574,0.756 1.582,0.756 0.812,0 1.316,-0.476 0.518,-0.476 0.658,-1.372 z m 7.47601,0.35 q -0.546,2.52 -3.15,2.52 -1.596,0 -2.506,-0.994 -0.896,-0.994 -0.896,-2.758 0,-1.75 0.924,-2.828 0.938,-1.092 2.436,-1.092 1.666,0 2.464,1.134 0.812,1.12 0.812,2.842 v 0.168 h -5.432 l -0.014,0.084 q 0,1.148 0.602,1.806 0.602,0.658 1.652,0.658 0.784,0 1.232,-0.364 0.462,-0.364 0.714,-1.176 z m -1.148,-1.974 q -0.084,-1.036 -0.63,-1.61 -0.546,-0.588 -1.442,-0.588 -0.868,0 -1.442,0.588 -0.574,0.588 -0.686,1.61 z m 9.00201,-5.712 V 65 h -1.12 v -1.064 q -0.686,1.26 -2.38,1.26 -1.54,0 -2.45,-1.022 -0.896,-1.036 -0.896,-2.8 0,-1.638 0.84,-2.716 0.854,-1.092 2.45,-1.092 1.554,0 2.366,1.176 v -3.71 z m -3.402,3.556 q -1.022,0 -1.624,0.742 -0.588,0.742 -0.588,2.016 0,1.316 0.602,2.1 0.616,0.77 1.638,0.77 1.036,0 1.624,-0.742 0.588,-0.756 0.588,-2.086 0,-1.19 -0.56,-1.988 -0.546,-0.812 -1.68,-0.812 z m 11.18601,-0.812 V 65 h -1.106 v -1.134 q -0.924,1.33 -2.492,1.33 -1.148,0 -1.778,-0.63 -0.63,-0.63 -0.63,-1.82 v -4.97 h 1.19 v 4.648 q 0,0.854 0.322,1.302 0.336,0.434 1.19,0.434 2.114,0 2.114,-2.604 v -3.78 z m 5.558,-0.168 v 1.232 q -0.126,-0.014 -0.308,-0.014 -0.574,0 -0.994,0.182 -0.42,0.168 -0.672,0.448 -0.238,0.28 -0.392,0.7 -0.154,0.42 -0.21,0.84 -0.042,0.42 -0.042,0.952 V 65 h -1.19 v -7.224 h 1.134 v 1.554 q 0.714,-1.722 2.674,-1.722 z m 6.818,5.11 q -0.546,2.52 -3.15,2.52 -1.596,0 -2.506,-0.994 -0.896,-0.994 -0.896,-2.758 0,-1.75 0.924,-2.828 0.938,-1.092 2.436,-1.092 1.666,0 2.464,1.134 0.812,1.12 0.812,2.842 v 0.168 h -5.432 l -0.014,0.084 q 0,1.148 0.602,1.806 0.602,0.658 1.652,0.658 0.784,0 1.232,-0.364 0.462,-0.364 0.714,-1.176 z m -1.148,-1.974 q -0.084,-1.036 -0.63,-1.61 -0.546,-0.588 -1.442,-0.588 -0.868,0 -1.442,0.588 -0.574,0.588 -0.686,1.61 z"
       id="text5"
       class="nonterminal"
       style="font-size:14px;font-family:HelveticaNeueCyr, Sans-serif;fill:#1a0000"
       aria-label="procedure" />
  </a>
  <path
     id="rect6"
     style="fill:#330000;stroke:#330000"
     d="m 327,47 h 6 c 5.54,0 10,4.46 10,10 v 12 c 0,5.54 -4.46,10 -10,10 h -6 c -5.54,0 -10,-4.46 -10,-10 V 57 c 0,-5.54 4.46,-10 10,-10 z" />
  <path
     id="rect7"
     class="terminal"
     style="fill:#ff4d4d;stroke:#330000"
     d="m 325,45 h 6 c 5.54,0 10,4.46 10,10 v 12 c 0,5.54 -4.46,10 -10,10 h -6 c -5.54,0 -10,-4.46 -10,-10 V 55 c 0,-5.54 4.46,-10 10,-10 z" />
  <path
     d="m 329.228,54.878 q -0.812,1.624 -1.19,3.108 -0.364,1.484 -0.364,3.262 0,3.08 1.582,6.244 h -1.68 q -0.868,-1.316 -1.358,-2.954 -0.476,-1.638 -0.476,-3.248 0,-1.68 0.462,-3.388 0.476,-1.722 1.372,-3.024 z"
     id="text7"
     class="terminal"
     style="font-weight:bold;font-size:14px;font-family:HelveticaNeueCyr, Sans-serif;fill:#140000"
     aria-label="(" />
  <a
     xlink:href="#type"
     xlink:title="type"
     id="a9">
    <path
       id="rect8"
       style="fill:#330000;stroke:#330000"
       d="m 383,47 h 48 v 32 h -48 z" />
    <path
       id="rect9"
       class="nonterminal"
       style="fill:#ff9e9e;stroke:#330000"
       d="m 381,45 h 48 v 32 h -48 z" />
    <path
       d="m 394.99,57.776 v 0.98 h -1.442 v 4.214 q 0,0.35 0,0.462 0.014,0.112 0.084,0.308 0.07,0.182 0.238,0.238 0.168,0.056 0.476,0.056 0.266,0 0.644,-0.042 v 1.022 q -0.504,0.056 -0.91,0.056 -0.504,0 -0.84,-0.112 -0.336,-0.112 -0.518,-0.252 -0.168,-0.14 -0.252,-0.49 -0.084,-0.364 -0.098,-0.602 -0.014,-0.252 -0.014,-0.826 0,-0.126 0,-0.196 v -3.836 h -1.218 v -0.98 h 1.218 v -2.142 h 1.19 v 2.142 z m 7.29401,0 -3.094,8.148 q -0.182,0.49 -0.322,0.756 -0.126,0.28 -0.378,0.602 -0.238,0.336 -0.588,0.476 -0.336,0.154 -0.798,0.154 -0.35,0 -0.882,-0.126 v -1.064 q 0.518,0.154 0.77,0.154 0.588,0 0.84,-0.602 l 0.56,-1.316 -2.87,-7.182 h 1.344 l 2.142,5.754 2.03,-5.754 z m 2.142,0 v 1.022 q 0.784,-1.246 2.436,-1.246 1.512,0 2.394,1.022 0.896,1.022 0.896,2.772 0,1.75 -0.882,2.8 -0.868,1.036 -2.352,1.036 -1.554,0 -2.422,-1.19 v 3.794 h -1.19 v -10.01 z m 2.254,0.77 q -1.036,0 -1.638,0.756 -0.588,0.742 -0.588,2.058 0,1.316 0.602,2.072 0.616,0.742 1.666,0.742 1.022,0 1.61,-0.756 0.588,-0.756 0.588,-2.058 0,-1.316 -0.602,-2.058 -0.588,-0.756 -1.638,-0.756 z m 11.102,4.172 q -0.546,2.52 -3.15,2.52 -1.596,0 -2.506,-0.994 -0.896,-0.994 -0.896,-2.758 0,-1.75 0.924,-2.828 0.938,-1.092 2.436,-1.092 1.666,0 2.464,1.134 0.812,1.12 0.812,2.842 v 0.168 h -5.432 l -0.014,0.084 q 0,1.148 0.602,1.806 0.602,0.658 1.652,0.658 0.784,0 1.232,-0.364 0.462,-0.364 0.714,-1.176 z m -1.148,-1.974 q -0.084,-1.036 -0.63,-1.61 -0.546,-0.588 -1.442,-0.588 -0.868,0 -1.442,0.588 -0.574,0.588 -0.686,1.61 z"
       id="text9"
       class="nonterminal"
       style="font-size:14px;font-family:HelveticaNeueCyr, Sans-serif;fill:#1a0000"
       aria-label="type" />
  </a>
  <path
     id="rect10"
     style="fill:#330000;stroke:#330000"
     d="m 393,3 h 4 c 5.54,0 10,4.46 10,10 v 12 c 0,5.54 -4.46,10 -10,10 h -4 c -5.54,0 -10,-4.46 -10,-10 V 13 c 0,-5.54 4.46,-10 10,-10 z" />
  <path
     id="rect11"
     class="terminal"
     style="fill:#ff4d4d;stroke:#330000"
     d="m 391,1 h 4 c 5.54,0 10,4.46 10,10 v 12 c 0,5.54 -4.46,10 -10,10 h -4 c -5.54,0 -10,-4.46 -10,-10 V 11 c 0,-5.54 4.46,-10 10,-10 z" />
  <path
     d="m 394.052,18.816 v 1.778 q 0,1.218 -0.546,1.876 -0.532,0.672 -1.666,0.854 v -0.98 q 0.938,-0.28 0.994,-1.344 h -0.994 v -2.184 z"
     id="text11"
     class="terminal"
     style="font-weight:bold;font-size:14px;font-family:HelveticaNeueCyr, Sans-serif;fill:#140000"
     aria-label="," />
  <path
     id="rect12"
     style="fill:#330000;stroke:#330000"
     d="m 481,47 h 6 c 5.54,0 10,4.46 10,10 v 12 c 0,5.54 -4.46,10 -10,10 h -6 c -5.54,0 -10,-4.46 -10,-10 V 57 c 0,-5.54 4.46,-10 10,-10 z" />
  <path
     id="rect13"
     class="terminal"
     style="fill:#ff4d4d;stroke:#330000"
     d="m 479,45 h 6 c 5.54,0 10,4.46 10,10 v 12 c 0,5.54 -4.46,10 -10,10 h -6 c -5.54,0 -10,-4.46 -10,-10 V 55 c 0,-5.54 4.46,-10 10,-10 z" />
  <path
     d="m 478.944,54.878 h 1.652 q 1.862,2.856 1.862,6.23 0,1.582 -0.49,3.416 -0.49,1.834 -1.344,2.968 h -1.666 q 0.84,-1.708 1.19,-3.15 0.364,-1.456 0.364,-3.262 0,-3.388 -1.568,-6.202 z"
     id="text13"
     class="terminal"
     style="font-weight:bold;font-size:14px;font-family:HelveticaNeueCyr, Sans-serif;fill:#140000"
     aria-label=")" />
  <path
     id="rect14"
     style="fill:#330000;stroke:#330000"
     d="m 55,145 h 62 c 5.54,0 10,4.46 10,10 v 12 c 0,5.54 -4.46,10 -10,10 H 55 c -5.54,0 -10,-4.46 -10,-10 v -12 c 0,-5.54 4.46,-10 10,-10 z" />
  <path
     id="rect15"
     class="terminal"
     style="fill:#ff4d4d;stroke:#330000"
     d="m 53,143 h 62 c 5.54,0 10,4.46 10,10 v 12 c 0,5.54 -4.46,10 -10,10 H 53 c -5.54,0 -10,-4.46 -10,-10 v -12 c 0,-5.54 4.46,-10 10,-10 z" />
  <path
     d="M 55.8,153.032 V 163 h -1.988 v -9.968 z M 64.087992,163 h -2.016 q -0.098,-0.28 -0.14,-0.7 -0.91,0.91 -2.338,0.91 -1.204,0 -1.89,-0.574 -0.686,-0.588 -0.686,-1.61 0,-0.462 0.112,-0.812 0.126,-0.35 0.392,-0.588 0.28,-0.238 0.518,-0.392 0.252,-0.154 0.686,-0.252 0.434,-0.098 0.7,-0.14 0.266,-0.056 0.742,-0.112 1.05,-0.14 1.4,-0.294 0.364,-0.154 0.364,-0.574 0,-0.966 -1.302,-0.966 -0.686,0 -1.008,0.252 -0.322,0.238 -0.42,0.854 h -1.862 q 0.168,-2.436 3.346,-2.436 3.15,0 3.15,2.352 v 3.122 q 0,1.372 0.252,1.96 z m -2.17,-3.514 q -0.35,0.21 -1.4,0.378 -0.882,0.14 -1.148,0.35 -0.308,0.252 -0.308,0.728 0,0.448 0.28,0.714 0.294,0.252 0.812,0.252 0.798,0 1.274,-0.42 0.49,-0.434 0.49,-1.19 z M 72.207984,163 h -2.016 v -4.214 q 0,-0.77 -0.252,-1.162 -0.252,-0.406 -0.98,-0.406 -1.568,0 -1.568,1.904 V 163 h -1.974 v -7.224 h 1.89 v 1.008 q 0.896,-1.204 2.394,-1.204 1.162,0 1.834,0.672 0.672,0.672 0.672,1.918 z m 8.428005,-7.224 v 6.468 q 0,1.778 -0.882,2.604 -0.882,0.84 -2.674,0.84 -3.094,0 -3.388,-2.254 h 1.974 q 0.112,0.49 0.462,0.7 0.35,0.224 0.994,0.224 0.938,0 1.26,-0.462 0.322,-0.448 0.336,-1.414 l 0.014,-0.812 q -0.812,1.12 -2.212,1.12 -1.414,0 -2.254,-0.966 -0.826,-0.966 -0.826,-2.59 0,-1.652 0.868,-2.646 0.868,-1.008 2.296,-1.008 0.756,0 1.246,0.28 0.504,0.266 0.91,0.882 v -0.966 z m -2.338,1.89 q -0.448,-0.546 -1.232,-0.546 -0.784,0 -1.232,0.56 -0.434,0.546 -0.434,1.54 0,0.952 0.448,1.526 0.462,0.56 1.232,0.56 0.77,0 1.218,-0.574 0.448,-0.574 0.448,-1.554 0,-0.966 -0.448,-1.512 z m 10.738001,-1.89 V 163 h -1.89 v -1.022 q -0.84,1.232 -2.352,1.232 -1.19,0 -1.862,-0.644 -0.658,-0.658 -0.658,-1.932 v -4.858 h 2.002 v 4.13 q 0,0.406 0.028,0.658 0.042,0.238 0.154,0.49 0.112,0.252 0.364,0.378 0.266,0.112 0.672,0.112 1.568,0 1.568,-2.044 v -3.724 z M 97.281996,163 h -2.016 q -0.098,-0.28 -0.14,-0.7 -0.91,0.91 -2.338,0.91 -1.204,0 -1.89,-0.574 -0.686,-0.588 -0.686,-1.61 0,-0.462 0.112,-0.812 0.126,-0.35 0.392,-0.588 0.28,-0.238 0.518,-0.392 0.252,-0.154 0.686,-0.252 0.434,-0.098 0.7,-0.14 0.266,-0.056 0.742,-0.112 1.05,-0.14 1.4,-0.294 0.364,-0.154 0.364,-0.574 0,-0.966 -1.302,-0.966 -0.686,0 -1.008,0.252 -0.322,0.238 -0.42,0.854 h -1.862 q 0.168,-2.436 3.346,-2.436 3.15,0 3.15,2.352 v 3.122 q 0,1.372 0.252,1.96 z m -2.17,-3.514 q -0.35,0.21 -1.4,0.378 -0.882,0.14 -1.148,0.35 -0.308,0.252 -0.308,0.728 0,0.448 0.28,0.714 0.294,0.252 0.812,0.252 0.798,0 1.274,-0.42 0.49,-0.434 0.49,-1.19 z m 10.415994,-3.71 v 6.468 q 0,1.778 -0.882,2.604 -0.882,0.84 -2.674,0.84 -3.094002,0 -3.388002,-2.254 h 1.974002 q 0.112,0.49 0.462,0.7 0.35,0.224 0.994,0.224 0.938,0 1.26,-0.462 0.322,-0.448 0.336,-1.414 l 0.014,-0.812 q -0.812,1.12 -2.212,1.12 -1.414002,0 -2.254002,-0.966 -0.826,-0.966 -0.826,-2.59 0,-1.652 0.868,-2.646 0.868002,-1.008 2.296002,-1.008 0.756,0 1.246,0.28 0.504,0.266 0.91,0.882 v -0.966 z m -2.338,1.89 q -0.448,-0.546 -1.232,-0.546 -0.784,0 -1.232,0.56 -0.434,0.546 -0.434,1.54 0,0.952 0.448,1.526 0.462,0.56 1.232,0.56 0.77,0 1.218,-0.574 0.448,-0.574 0.448,-1.554 0,-0.966 -0.448,-1.512 z m 10.752,3.094 q -0.336,1.162 -1.246,1.806 -0.896,0.644 -2.142,0.644 -1.666,0 -2.688,-1.036 -1.008,-1.036 -1.008,-2.744 0,-1.68 1.022,-2.772 1.022,-1.092 2.604,-1.092 1.638,0 2.604,1.12 0.966,1.106 0.966,3.01 v 0.196 h -5.18 q 0.014,0.938 0.448,1.428 0.448,0.49 1.246,0.49 1.05,0 1.47,-1.05 z m -1.904,-2.128 q -0.07,-0.714 -0.462,-1.162 -0.392,-0.462 -1.092,-0.462 -0.658,0 -1.092,0.434 -0.434,0.434 -0.518,1.19 z"
     id="text15"
     class="terminal"
     style="font-weight:bold;font-size:14px;font-family:HelveticaNeueCyr, Sans-serif;fill:#140000"
     aria-label="language" />
  <path
     id="rect16"
     style="fill:#330000;stroke:#330000"
     d="m 157,145 h 28 c 5.54,0 10,4.46 10,10 v 12 c 0,5.54 -4.46,10 -10,10 h -28 c -5.54,0 -10,-4.46 -10,-10 v -12 c 0,-5.54 4.46,-10 10,-10 z" />
  <path
     id="rect17"
     class="terminal"
     style="fill:#ff4d4d;stroke:#330000"
     d="m 155,143 h 28 c 5.54,0 10,4.46 10,10 v 12 c 0,5.54 -4.46,10 -10,10 h -28 c -5.54,0 -10,-4.46 -10,-10 v -12 c 0,-5.54 4.46,-10 10,-10 z" />
  <path
     d="m 163.344,156 h -2.072 q -0.126,-1.484 -1.89,-1.484 -0.756,0 -1.19,0.308 -0.42,0.294 -0.42,0.826 0,0.182 0.056,0.322 0.056,0.14 0.21,0.266 0.154,0.112 0.308,0.196 0.154,0.07 0.448,0.168 0.308,0.084 0.546,0.154 0.252,0.07 0.7,0.182 0.448,0.112 0.784,0.21 1.47,0.42 2.184,1.05 0.728,0.63 0.728,1.806 0,0.854 -0.35,1.498 -0.35,0.63 -0.952,1.008 -0.588,0.364 -1.302,0.532 -0.7,0.182 -1.498,0.182 -2.03,0 -3.178,-0.924 -1.134,-0.938 -1.148,-2.632 h 2.17 q 0.056,1.876 2.254,1.876 0.854,0 1.344,-0.35 0.504,-0.364 0.504,-0.98 0,-0.518 -0.462,-0.756 -0.448,-0.238 -1.904,-0.658 -0.238,-0.056 -0.364,-0.098 -0.504,-0.14 -0.7,-0.196 -0.196,-0.07 -0.63,-0.224 -0.42,-0.154 -0.616,-0.28 -0.196,-0.126 -0.49,-0.35 -0.28,-0.224 -0.406,-0.462 -0.126,-0.252 -0.238,-0.602 -0.098,-0.364 -0.098,-0.784 0,-1.358 1.05,-2.17 1.05,-0.812 2.786,-0.812 1.68,0 2.744,0.798 1.064,0.784 1.092,2.38 z m 11.018,6.888 -1.022,1.106 -1.47,-1.33 q -0.896,0.574 -2.408,0.574 -2.17,0 -3.514,-1.428 -1.33,-1.428 -1.33,-3.766 0,-2.31 1.372,-3.766 1.386,-1.47 3.57,-1.47 2.142,0 3.5,1.456 1.358,1.442 1.358,3.724 0,1.162 -0.35,2.142 -0.35,0.98 -0.994,1.582 z m -2.8,-2.576 q 0.672,-0.798 0.672,-2.31 0,-1.568 -0.728,-2.478 -0.728,-0.91 -1.988,-0.91 -1.232,0 -1.974,0.924 -0.728,0.924 -0.728,2.492 0,1.582 0.728,2.52 0.728,0.938 1.96,0.938 0.504,0 0.952,-0.196 l -0.994,-0.868 1.022,-1.092 z M 183,161.124 V 163 h -7.056 v -9.968 h 2.184 v 8.092 z"
     id="text17"
     class="terminal"
     style="font-weight:bold;font-size:14px;font-family:HelveticaNeueCyr, Sans-serif;fill:#140000"
     aria-label="SQL" />
  <path
     id="rect18"
     style="fill:#330000;stroke:#330000"
     d="m 265,113 h 14 c 5.54,0 10,4.46 10,10 v 12 c 0,5.54 -4.46,10 -10,10 h -14 c -5.54,0 -10,-4.46 -10,-10 v -12 c 0,-5.54 4.46,-10 10,-10 z" />
  <path
     id="rect19"
     class="terminal"
     style="fill:#ff4d4d;stroke:#330000"
     d="m 263,111 h 14 c 5.54,0 10,4.46 10,10 v 12 c 0,5.54 -4.46,10 -10,10 h -14 c -5.54,0 -10,-4.46 -10,-10 v -12 c 0,-5.54 4.46,-10 10,-10 z" />
  <path
     d="m 270.476,131 h -2.016 q -0.098,-0.28 -0.14,-0.7 -0.91,0.91 -2.338,0.91 -1.204,0 -1.89,-0.574 -0.686,-0.588 -0.686,-1.61 0,-0.462 0.112,-0.812 0.126,-0.35 0.392,-0.588 0.28,-0.238 0.518,-0.392 0.252,-0.154 0.686,-0.252 0.434,-0.098 0.7,-0.14 0.266,-0.056 0.742,-0.112 1.05,-0.14 1.4,-0.294 0.364,-0.154 0.364,-0.574 0,-0.966 -1.302,-0.966 -0.686,0 -1.008,0.252 -0.322,0.238 -0.42,0.854 h -1.862 q 0.168,-2.436 3.346,-2.436 3.15,0 3.15,2.352 v 3.122 q 0,1.372 0.252,1.96 z m -2.17,-3.514 q -0.35,0.21 -1.4,0.378 -0.882,0.14 -1.148,0.35 -0.308,0.252 -0.308,0.728 0,0.448 0.28,0.714 0.294,0.252 0.812,0.252 0.798,0 1.274,-0.42 0.49,-0.434 0.49,-1.19 z m 9.58999,-1.61 h -1.848 q -0.084,-0.546 -0.42,-0.77 -0.322,-0.224 -0.952,-0.224 -0.532,0 -0.826,0.196 -0.294,0.182 -0.294,0.518 0,0.392 0.336,0.546 0.336,0.154 1.204,0.336 0.154,0.028 0.224,0.042 0.504,0.098 0.798,0.182 0.308,0.07 0.742,0.252 0.434,0.168 0.672,0.392 0.238,0.21 0.42,0.574 0.182,0.364 0.182,0.84 0,1.134 -0.882,1.792 -0.882,0.658 -2.422,0.658 -1.47,0 -2.422,-0.63 -0.952,-0.63 -0.966,-1.932 h 1.89 q 0.098,1.204 1.54,1.204 0.602,0 0.952,-0.238 0.364,-0.252 0.364,-0.658 0,-0.406 -0.322,-0.574 -0.322,-0.168 -1.19,-0.364 -0.07,-0.014 -0.112,-0.028 -0.098,-0.028 -0.434,-0.098 -0.336,-0.07 -0.476,-0.098 -0.126,-0.042 -0.434,-0.126 -0.294,-0.084 -0.434,-0.154 -0.14,-0.084 -0.378,-0.196 -0.224,-0.126 -0.336,-0.266 -0.112,-0.14 -0.252,-0.322 -0.126,-0.196 -0.182,-0.434 -0.042,-0.238 -0.042,-0.518 0,-1.064 0.826,-1.638 0.826,-0.574 2.338,-0.574 1.358,0 2.226,0.56 0.868,0.56 0.91,1.75 z"
     id="text19"
     class="terminal"
     style="font-weight:bold;font-size:14px;font-family:HelveticaNeueCyr, Sans-serif;fill:#140000"
     aria-label="as" />
  <path
     id="rect20"
     style="fill:#330000;stroke:#330000"
     d="m 319,113 h 18 c 5.54,0 10,4.46 10,10 v 12 c 0,5.54 -4.46,10 -10,10 h -18 c -5.54,0 -10,-4.46 -10,-10 v -12 c 0,-5.54 4.46,-10 10,-10 z" />
  <path
     id="rect21"
     class="terminal"
     style="fill:#ff4d4d;stroke:#330000"
     d="m 317,111 h 18 c 5.54,0 10,4.46 10,10 v 12 c 0,5.54 -4.46,10 -10,10 h -18 c -5.54,0 -10,-4.46 -10,-10 v -12 c 0,-5.54 4.46,-10 10,-10 z" />
  <path
     d="m 321.256,119.954 v 1.064 q 1.498,0.028 2.352,0.756 0.868,0.728 0.868,1.96 v 0.196 h -1.862 v -0.098 q 0,-1.246 -1.358,-1.4 v 2.702 l 0.084,0.014 q 0.714,0.112 1.274,0.308 0.56,0.182 1.078,0.518 0.518,0.336 0.798,0.896 0.294,0.546 0.294,1.274 0,1.372 -0.98,2.226 -0.966,0.84 -2.548,0.868 v 1.176 H 320.5 v -1.176 q -1.582,-0.028 -2.59,-0.868 -0.994,-0.854 -0.994,-2.408 l 0.014,-0.084 h 1.988 v 0.126 q 0,1.596 1.582,1.722 v -2.982 q -0.686,-0.112 -1.218,-0.294 -0.518,-0.182 -1.022,-0.49 -0.504,-0.308 -0.77,-0.826 -0.266,-0.518 -0.266,-1.218 0,-1.386 0.91,-2.086 0.924,-0.714 2.366,-0.812 v -1.064 z m -0.756,5.012 v -2.52 q -0.672,0.028 -1.05,0.364 -0.378,0.336 -0.378,0.882 0,0.252 0.084,0.462 0.098,0.196 0.196,0.322 0.112,0.112 0.35,0.224 0.238,0.098 0.364,0.14 0.126,0.042 0.434,0.126 z m 0.756,1.946 v 2.828 q 0.7,-0.014 1.12,-0.406 0.434,-0.406 0.434,-1.036 0,-1.078 -1.554,-1.386 z m 7.784,-6.958 v 1.064 q 1.498,0.028 2.352,0.756 0.868,0.728 0.868,1.96 v 0.196 h -1.862 v -0.098 q 0,-1.246 -1.358,-1.4 v 2.702 l 0.084,0.014 q 0.714,0.112 1.274,0.308 0.56,0.182 1.078,0.518 0.518,0.336 0.798,0.896 0.294,0.546 0.294,1.274 0,1.372 -0.98,2.226 -0.966,0.84 -2.548,0.868 v 1.176 h -0.756 v -1.176 q -1.582,-0.028 -2.59,-0.868 -0.994,-0.854 -0.994,-2.408 l 0.014,-0.084 h 1.988 v 0.126 q 0,1.596 1.582,1.722 v -2.982 q -0.686,-0.112 -1.218,-0.294 -0.518,-0.182 -1.022,-0.49 -0.504,-0.308 -0.77,-0.826 -0.266,-0.518 -0.266,-1.218 0,-1.386 0.91,-2.086 0.924,-0.714 2.366,-0.812 v -1.064 z m -0.756,5.012 v -2.52 q -0.672,0.028 -1.05,0.364 -0.378,0.336 -0.378,0.882 0,0.252 0.084,0.462 0.098,0.196 0.196,0.322 0.112,0.112 0.35,0.224 0.238,0.098 0.364,0.14 0.126,0.042 0.434,0.126 z m 0.756,1.946 v 2.828 q 0.7,-0.014 1.12,-0.406 0.434,-0.406 0.434,-1.036 0,-1.078 -1.554,-1.386 z"
     id="text21"
     class="terminal"
     style="font-weight:bold;font-size:14px;font-family:HelveticaNeueCyr, Sans-serif;fill:#140000"
     aria-label="$$" />
  <a
     xlink:href="#body"
     xlink:title="body"
     id="a23">
    <path
       id="rect22"
       style="fill:#330000;stroke:#330000"
       d="m 367,113 h 50 v 32 h -50 z" />
    <path
       id="rect23"
       class="nonterminal"
       style="fill:#ff9e9e;stroke:#330000"
       d="m 365,111 h 50 v 32 h -50 z" />
    <path
       d="m 377.072,121.032 v 3.738 q 0.784,-1.19 2.394,-1.19 1.484,0 2.366,1.036 0.896,1.022 0.896,2.744 0,1.75 -0.91,2.8 -0.91,1.05 -2.422,1.05 -1.722,0 -2.394,-1.26 V 131 h -1.12 v -9.968 z m 2.212,3.556 q -1.148,0 -1.708,0.826 -0.546,0.826 -0.546,2.03 0,1.274 0.602,2.03 0.616,0.742 1.652,0.742 0.994,0 1.596,-0.77 0.616,-0.784 0.616,-2.072 0,-1.274 -0.602,-2.03 -0.602,-0.756 -1.61,-0.756 z m 5.48801,0.014 q 0.952,-1.036 2.59,-1.036 1.638,0 2.548,0.994 0.91,0.994 0.91,2.786 0,1.834 -0.91,2.856 -0.91,1.022 -2.562,1.022 -1.652,0 -2.59,-1.008 -0.938,-1.008 -0.938,-2.8 0,-1.778 0.952,-2.814 z m 4.214,0.728 q -0.602,-0.77 -1.652,-0.77 -1.05,0 -1.666,0.77 -0.616,0.77 -0.616,2.058 0,1.33 0.602,2.086 0.616,0.742 1.708,0.742 1.05,0 1.638,-0.756 0.602,-0.756 0.602,-2.086 0,-1.288 -0.616,-2.044 z m 9.75799,-4.298 V 131 h -1.12 v -1.064 q -0.686,1.26 -2.38,1.26 -1.54,0 -2.45,-1.022 -0.896,-1.036 -0.896,-2.8 0,-1.638 0.84,-2.716 0.854,-1.092 2.45,-1.092 1.554,0 2.366,1.176 v -3.71 z m -3.402,3.556 q -1.022,0 -1.624,0.742 -0.588,0.742 -0.588,2.016 0,1.316 0.602,2.1 0.616,0.77 1.638,0.77 1.036,0 1.624,-0.742 0.588,-0.756 0.588,-2.086 0,-1.19 -0.56,-1.988 -0.546,-0.812 -1.68,-0.812 z m 11.172,-0.812 -3.094,8.148 q -0.182,0.49 -0.322,0.756 -0.126,0.28 -0.378,0.602 -0.238,0.336 -0.588,0.476 -0.336,0.154 -0.798,0.154 -0.35,0 -0.882,-0.126 v -1.064 q 0.518,0.154 0.77,0.154 0.588,0 0.84,-0.602 l 0.56,-1.316 -2.87,-7.182 h 1.344 l 2.142,5.754 2.03,-5.754 z"
       id="text23"
       class="nonterminal"
       style="font-size:14px;font-family:HelveticaNeueCyr, Sans-serif;fill:#1a0000"
       aria-label="body" />
  </a>
  <path
     id="rect24"
     style="fill:#330000;stroke:#330000"
     d="m 447,113 h 18 c 5.54,0 10,4.46 10,10 v 12 c 0,5.54 -4.46,10 -10,10 h -18 c -5.54,0 -10,-4.46 -10,-10 v -12 c 0,-5.54 4.46,-10 10,-10 z" />
  <path
     id="rect25"
     class="terminal"
     style="fill:#ff4d4d;stroke:#330000"
     d="m 445,111 h 18 c 5.54,0 10,4.46 10,10 v 12 c 0,5.54 -4.46,10 -10,10 h -18 c -5.54,0 -10,-4.46 -10,-10 v -12 c 0,-5.54 4.46,-10 10,-10 z" />
  <path
     d="m 449.256,119.954 v 1.064 q 1.498,0.028 2.352,0.756 0.868,0.728 0.868,1.96 v 0.196 h -1.862 v -0.098 q 0,-1.246 -1.358,-1.4 v 2.702 l 0.084,0.014 q 0.714,0.112 1.274,0.308 0.56,0.182 1.078,0.518 0.518,0.336 0.798,0.896 0.294,0.546 0.294,1.274 0,1.372 -0.98,2.226 -0.966,0.84 -2.548,0.868 v 1.176 H 448.5 v -1.176 q -1.582,-0.028 -2.59,-0.868 -0.994,-0.854 -0.994,-2.408 l 0.014,-0.084 h 1.988 v 0.126 q 0,1.596 1.582,1.722 v -2.982 q -0.686,-0.112 -1.218,-0.294 -0.518,-0.182 -1.022,-0.49 -0.504,-0.308 -0.77,-0.826 -0.266,-0.518 -0.266,-1.218 0,-1.386 0.91,-2.086 0.924,-0.714 2.366,-0.812 v -1.064 z m -0.756,5.012 v -2.52 q -0.672,0.028 -1.05,0.364 -0.378,0.336 -0.378,0.882 0,0.252 0.084,0.462 0.098,0.196 0.196,0.322 0.112,0.112 0.35,0.224 0.238,0.098 0.364,0.14 0.126,0.042 0.434,0.126 z m 0.756,1.946 v 2.828 q 0.7,-0.014 1.12,-0.406 0.434,-0.406 0.434,-1.036 0,-1.078 -1.554,-1.386 z m 7.784,-6.958 v 1.064 q 1.498,0.028 2.352,0.756 0.868,0.728 0.868,1.96 v 0.196 h -1.862 v -0.098 q 0,-1.246 -1.358,-1.4 v 2.702 l 0.084,0.014 q 0.714,0.112 1.274,0.308 0.56,0.182 1.078,0.518 0.518,0.336 0.798,0.896 0.294,0.546 0.294,1.274 0,1.372 -0.98,2.226 -0.966,0.84 -2.548,0.868 v 1.176 h -0.756 v -1.176 q -1.582,-0.028 -2.59,-0.868 -0.994,-0.854 -0.994,-2.408 l 0.014,-0.084 h 1.988 v 0.126 q 0,1.596 1.582,1.722 v -2.982 q -0.686,-0.112 -1.218,-0.294 -0.518,-0.182 -1.022,-0.49 -0.504,-0.308 -0.77,-0.826 -0.266,-0.518 -0.266,-1.218 0,-1.386 0.91,-2.086 0.924,-0.714 2.366,-0.812 v -1.064 z m -0.756,5.012 v -2.52 q -0.672,0.028 -1.05,0.364 -0.378,0.336 -0.378,0.882 0,0.252 0.084,0.462 0.098,0.196 0.196,0.322 0.112,0.112 0.35,0.224 0.238,0.098 0.364,0.14 0.126,0.042 0.434,0.126 z m 0.756,1.946 v 2.828 q 0.7,-0.014 1.12,-0.406 0.434,-0.406 0.434,-1.036 0,-1.078 -1.554,-1.386 z"
     id="text25"
     class="terminal"
     style="font-weight:bold;font-size:14px;font-family:HelveticaNeueCyr, Sans-serif;fill:#140000"
     aria-label="$$" />
  <path
     id="rect26"
     style="fill:#330000;stroke:#330000"
     d="m 265,157 h 36 c 5.54,0 10,4.46 10,10 v 12 c 0,5.54 -4.46,10 -10,10 h -36 c -5.54,0 -10,-4.46 -10,-10 v -12 c 0,-5.54 4.46,-10 10,-10 z" />
  <path
     id="rect27"
     class="terminal"
     style="fill:#ff4d4d;stroke:#330000"
     d="m 263,155 h 36 c 5.54,0 10,4.46 10,10 v 12 c 0,5.54 -4.46,10 -10,10 h -36 c -5.54,0 -10,-4.46 -10,-10 v -12 c 0,-5.54 4.46,-10 10,-10 z" />
  <path
     d="m 265.716,165.032 v 3.626 q 0.84,-1.05 2.282,-1.05 1.442,0 2.268,1.05 0.826,1.05 0.826,2.66 0,1.736 -0.896,2.814 -0.882,1.064 -2.31,1.064 -1.498,0 -2.268,-1.106 l 0.014,0.91 h -1.89 v -9.968 z m 1.666,4.102 q -0.798,0 -1.274,0.602 -0.462,0.588 -0.462,1.61 0,1.05 0.462,1.652 0.462,0.602 1.274,0.602 0.77,0 1.232,-0.616 0.476,-0.616 0.476,-1.652 0,-0.994 -0.476,-1.596 -0.462,-0.602 -1.232,-0.602 z m 11.718,3.626 q -0.336,1.162 -1.246,1.806 -0.896,0.644 -2.142,0.644 -1.666,0 -2.688,-1.036 -1.008,-1.036 -1.008,-2.744 0,-1.68 1.022,-2.772 1.022,-1.092 2.604,-1.092 1.638,0 2.604,1.12 0.966,1.106 0.966,3.01 v 0.196 h -5.18 q 0.014,0.938 0.448,1.428 0.448,0.49 1.246,0.49 1.05,0 1.47,-1.05 z m -1.904,-2.128 q -0.07,-0.714 -0.462,-1.162 -0.392,-0.462 -1.092,-0.462 -0.658,0 -1.092,0.434 -0.434,0.434 -0.518,1.19 z m 10.07999,-2.856 v 6.468 q 0,1.778 -0.882,2.604 -0.882,0.84 -2.674,0.84 -3.094,0 -3.388,-2.254 h 1.974 q 0.112,0.49 0.462,0.7 0.35,0.224 0.994,0.224 0.938,0 1.26,-0.462 0.322,-0.448 0.336,-1.414 l 0.014,-0.812 q -0.812,1.12 -2.212,1.12 -1.414,0 -2.254,-0.966 -0.826,-0.966 -0.826,-2.59 0,-1.652 0.868,-2.646 0.868,-1.008 2.296,-1.008 0.756,0 1.246,0.28 0.504,0.266 0.91,0.882 v -0.966 z m -2.338,1.89 q -0.448,-0.546 -1.232,-0.546 -0.784,0 -1.232,0.56 -0.434,0.546 -0.434,1.54 0,0.952 0.448,1.526 0.462,0.56 1.232,0.56 0.77,0 1.218,-0.574 0.448,-0.574 0.448,-1.554 0,-0.966 -0.448,-1.512 z m 6.006,-4.634 v 1.68 h -1.988 v -1.68 z m 0,2.744 V 175 h -1.988 v -7.224 z m 8.372,7.224 h -2.016 v -4.214 q 0,-0.77 -0.252,-1.162 -0.252,-0.406 -0.98,-0.406 -1.568,0 -1.568,1.904 V 175 h -1.974 v -7.224 h 1.89 v 1.008 q 0.896,-1.204 2.394,-1.204 1.162,0 1.834,0.672 0.672,0.672 0.672,1.918 z"
     id="text27"
     class="terminal"
     style="font-weight:bold;font-size:14px;font-family:HelveticaNeueCyr, Sans-serif;fill:#140000"
     aria-label="begin" />
  <path
     id="rect28"
     style="fill:#330000;stroke:#330000"
     d="m 341,157 h 44 c 5.54,0 10,4.46 10,10 v 12 c 0,5.54 -4.46,10 -10,10 h -44 c -5.54,0 -10,-4.46 -10,-10 v -12 c 0,-5.54 4.46,-10 10,-10 z" />
  <path
     id="rect29"
     class="terminal"
     style="fill:#ff4d4d;stroke:#330000"
     d="m 339,155 h 44 c 5.54,0 10,4.46 10,10 v 12 c 0,5.54 -4.46,10 -10,10 h -44 c -5.54,0 -10,-4.46 -10,-10 v -12 c 0,-5.54 4.46,-10 10,-10 z" />
  <path
     d="m 346.476,175 h -2.016 q -0.098,-0.28 -0.14,-0.7 -0.91,0.91 -2.338,0.91 -1.204,0 -1.89,-0.574 -0.686,-0.588 -0.686,-1.61 0,-0.462 0.112,-0.812 0.126,-0.35 0.392,-0.588 0.28,-0.238 0.518,-0.392 0.252,-0.154 0.686,-0.252 0.434,-0.098 0.7,-0.14 0.266,-0.056 0.742,-0.112 1.05,-0.14 1.4,-0.294 0.364,-0.154 0.364,-0.574 0,-0.966 -1.302,-0.966 -0.686,0 -1.008,0.252 -0.322,0.238 -0.42,0.854 h -1.862 q 0.168,-2.436 3.346,-2.436 3.15,0 3.15,2.352 v 3.122 q 0,1.372 0.252,1.96 z m -2.17,-3.514 q -0.35,0.21 -1.4,0.378 -0.882,0.14 -1.148,0.35 -0.308,0.252 -0.308,0.728 0,0.448 0.28,0.714 0.294,0.252 0.812,0.252 0.798,0 1.274,-0.42 0.49,-0.434 0.49,-1.19 z m 7.46199,-3.71 v 1.344 h -1.47 v 3.402 q 0,0.322 0.014,0.476 0.014,0.14 0.098,0.294 0.084,0.154 0.252,0.21 0.182,0.042 0.504,0.042 0.364,0 0.602,-0.028 v 1.512 q -0.728,0.056 -1.204,0.056 -1.302,0 -1.778,-0.448 -0.462,-0.462 -0.462,-1.764 v -3.752 h -1.204 v -1.344 h 1.204 v -2.184 h 1.974 v 2.184 z m 4.50799,-0.21 q 1.666,0 2.674,1.05 1.022,1.05 1.022,2.772 0,1.736 -1.022,2.786 -1.008,1.05 -2.702,1.05 -1.694,0 -2.716,-1.05 -1.022,-1.05 -1.022,-2.786 0,-1.722 1.036,-2.772 1.036,-1.05 2.73,-1.05 z m -0.056,1.512 q -0.798,0 -1.26,0.616 -0.462,0.616 -0.462,1.694 0,1.106 0.462,1.722 0.462,0.616 1.288,0.616 0.826,0 1.274,-0.616 0.462,-0.63 0.462,-1.736 0,-1.078 -0.476,-1.68 -0.462,-0.616 -1.288,-0.616 z m 16.184,5.922 h -2.016 v -4.312 q 0,-0.714 -0.224,-1.092 -0.224,-0.392 -0.924,-0.392 -1.386,0 -1.386,1.736 V 175 h -1.988 v -4.396 q 0,-0.672 -0.224,-1.036 -0.224,-0.378 -0.868,-0.378 -1.442,0 -1.442,1.89 V 175 h -1.988 v -7.224 h 1.89 v 0.994 q 0.854,-1.19 2.296,-1.19 1.498,0 2.044,1.19 0.868,-1.19 2.366,-1.19 1.19,0 1.82,0.7 0.644,0.686 0.644,1.862 z m 3.598,-9.968 v 1.68 h -1.988 v -1.68 z m 0,2.744 V 175 h -1.988 v -7.224 z m 8.456,4.438 q -0.182,1.4 -1.106,2.184 -0.91,0.784 -2.352,0.784 -1.666,0 -2.674,-1.022 -1.008,-1.022 -1.008,-2.716 0,-1.75 1.008,-2.814 1.022,-1.064 2.702,-1.064 1.442,0 2.352,0.742 0.91,0.728 1.036,1.988 h -1.946 q -0.224,-1.246 -1.428,-1.246 -0.812,0 -1.274,0.63 -0.448,0.616 -0.448,1.722 0,1.078 0.434,1.68 0.448,0.588 1.246,0.588 1.302,0 1.54,-1.456 z"
     id="text29"
     class="terminal"
     style="font-weight:bold;font-size:14px;font-family:HelveticaNeueCyr, Sans-serif;fill:#140000"
     aria-label="atomic" />
  <a
     xlink:href="#body"
     xlink:title="body"
     id="a31">
    <path
       id="rect30"
       style="fill:#330000;stroke:#330000"
       d="m 415,157 h 50 v 32 h -50 z" />
    <path
       id="rect31"
       class="nonterminal"
       style="fill:#ff9e9e;stroke:#330000"
       d="m 413,155 h 50 v 32 h -50 z" />
    <path
       d="m 425.072,165.032 v 3.738 q 0.784,-1.19 2.394,-1.19 1.484,0 2.366,1.036 0.896,1.022 0.896,2.744 0,1.75 -0.91,2.8 -0.91,1.05 -2.422,1.05 -1.722,0 -2.394,-1.26 V 175 h -1.12 v -9.968 z m 2.212,3.556 q -1.148,0 -1.708,0.826 -0.546,0.826 -0.546,2.03 0,1.274 0.602,2.03 0.616,0.742 1.652,0.742 0.994,0 1.596,-0.77 0.616,-0.784 0.616,-2.072 0,-1.274 -0.602,-2.03 -0.602,-0.756 -1.61,-0.756 z m 5.48801,0.014 q 0.952,-1.036 2.59,-1.036 1.638,0 2.548,0.994 0.91,0.994 0.91,2.786 0,1.834 -0.91,2.856 -0.91,1.022 -2.562,1.022 -1.652,0 -2.59,-1.008 -0.938,-1.008 -0.938,-2.8 0,-1.778 0.952,-2.814 z m 4.214,0.728 q -0.602,-0.77 -1.652,-0.77 -1.05,0 -1.666,0.77 -0.616,0.77 -0.616,2.058 0,1.33 0.602,2.086 0.616,0.742 1.708,0.742 1.05,0 1.638,-0.756 0.602,-0.756 0.602,-2.086 0,-1.288 -0.616,-2.044 z m 9.75799,-4.298 V 175 h -1.12 v -1.064 q -0.686,1.26 -2.38,1.26 -1.54,0 -2.45,-1.022 -0.896,-1.036 -0.896,-2.8 0,-1.638 0.84,-2.716 0.854,-1.092 2.45,-1.092 1.554,0 2.366,1.176 v -3.71 z m -3.402,3.556 q -1.022,0 -1.624,0.742 -0.588,0.742 -0.588,2.016 0,1.316 0.602,2.1 0.616,0.77 1.638,0.77 1.036,0 1.624,-0.742 0.588,-0.756 0.588,-2.086 0,-1.19 -0.56,-1.988 -0.546,-0.812 -1.68,-0.812 z m 11.172,-0.812 -3.094,8.148 q -0.182,0.49 -0.322,0.756 -0.126,0.28 -0.378,0.602 -0.238,0.336 -0.588,0.476 -0.336,0.154 -0.798,0.154 -0.35,0 -0.882,-0.126 v -1.064 q 0.518,0.154 0.77,0.154 0.588,0 0.84,-0.602 l 0.56,-1.316 -2.87,-7.182 h 1.344 l 2.142,5.754 2.03,-5.754 z"
       id="text31"
       class="nonterminal"
       style="font-size:14px;font-family:HelveticaNeueCyr, Sans-serif;fill:#1a0000"
       aria-label="body" />
  </a>
  <path
     id="rect32"
     style="fill:#330000;stroke:#330000"
     d="m 495,157 h 24 c 5.54,0 10,4.46 10,10 v 12 c 0,5.54 -4.46,10 -10,10 h -24 c -5.54,0 -10,-4.46 -10,-10 v -12 c 0,-5.54 4.46,-10 10,-10 z" />
  <path
     id="rect33"
     class="terminal"
     style="fill:#ff4d4d;stroke:#330000"
     d="m 493,155 h 24 c 5.54,0 10,4.46 10,10 v 12 c 0,5.54 -4.46,10 -10,10 h -24 c -5.54,0 -10,-4.46 -10,-10 v -12 c 0,-5.54 4.46,-10 10,-10 z" />
  <path
     d="m 500.546,172.76 q -0.336,1.162 -1.246,1.806 -0.896,0.644 -2.142,0.644 -1.666,0 -2.688,-1.036 -1.008,-1.036 -1.008,-2.744 0,-1.68 1.022,-2.772 1.022,-1.092 2.604,-1.092 1.638,0 2.604,1.12 0.966,1.106 0.966,3.01 v 0.196 h -5.18 q 0.014,0.938 0.448,1.428 0.448,0.49 1.246,0.49 1.05,0 1.47,-1.05 z m -1.904,-2.128 q -0.07,-0.714 -0.462,-1.162 -0.392,-0.462 -1.092,-0.462 -0.658,0 -1.092,0.434 -0.434,0.434 -0.518,1.19 z m 9.95399,4.368 h -2.016 v -4.214 q 0,-0.77 -0.252,-1.162 -0.252,-0.406 -0.98,-0.406 -1.568,0 -1.568,1.904 V 175 h -1.974 v -7.224 h 1.89 v 1.008 q 0.896,-1.204 2.394,-1.204 1.162,0 1.834,0.672 0.672,0.672 0.672,1.918 z m 8.54001,0 h -1.876 v -0.924 q -0.714,1.12 -2.184,1.12 -1.498,0 -2.394,-1.036 -0.882,-1.05 -0.882,-2.8 0,-1.708 0.854,-2.744 0.868,-1.036 2.31,-1.036 0.672,0 1.26,0.28 0.602,0.28 0.938,0.812 v -3.64 h 1.974 z m -1.904,-3.626 q 0,-1.05 -0.462,-1.638 -0.448,-0.588 -1.26,-0.588 -0.812,0 -1.26,0.588 -0.448,0.588 -0.448,1.624 0,1.05 0.448,1.652 0.462,0.588 1.26,0.588 0.826,0 1.274,-0.574 0.448,-0.588 0.448,-1.652 z"
     id="text33"
     class="terminal"
     style="font-weight:bold;font-size:14px;font-family:HelveticaNeueCyr, Sans-serif;fill:#140000"
     aria-label="end" />
  <path
     class="line"
     d="m19 61 h2 m0 0 h10 m160 0 h10 m0 0 h10 m84 0 h10 m0 0 h10 m26 0 h10 m20 0 h10 m48 0 h10 m-88 0 l20 0 m-1 0 q-9 0 -9 -10 l0 -24 q0 -10 10 -10 m68 44 l20 0 m-20 0 q10 0 10 -10 l0 -24 q0 -10 -10 -10 m-68 0 h10 m24 0 h10 m0 0 h24 m20 44 h10 m26 0 h10 m2 0 l2 0 m2 0 l2 0 m2 0 l2 0 m-516 66 l2 0 m2 0 l2 0 m2 0 l2 0 m22 0 h10 m0 0 h160 m-190 0 h20 m170 0 h20 m-210 0 q10 0 10 10 m190 0 q0 -10 10 -10 m-200 10 v12 m190 0 v-12 m-190 12 q0 10 10 10 m170 0 q10 0 10 -10 m-180 10 h10 m82 0 h10 m0 0 h10 m48 0 h10 m40 -32 h10 m34 0 h10 m0 0 h10 m38 0 h10 m0 0 h10 m50 0 h10 m0 0 h10 m38 0 h10 m0 0 h54 m-314 0 h20 m294 0 h20 m-334 0 q10 0 10 10 m314 0 q0 -10 10 -10 m-324 10 v24 m314 0 v-24 m-314 24 q0 10 10 10 m294 0 q10 0 10 -10 m-304 10 h10 m56 0 h10 m0 0 h10 m64 0 h10 m0 0 h10 m50 0 h10 m0 0 h10 m44 0 h10 m23 -44 h-3"
     id="path33" />
  <path
     id="polygon33"
     style="fill:#330000;stroke:#330000"
     d="m 567,127 8,-4 v 8 z" />
  <path
     id="polygon34"
     style="fill:#330000;stroke:#330000"
     d="m 567,127 -8,-4 v 8 z" />
</svg>
