<?xml version="1.0" encoding="UTF-8"?>
<svg xmlns="http://www.w3.org/2000/svg" width="893" height="723" viewBox="0 0 893 723">
   <defs>
      <style type="text/css">
    @namespace "http://www.w3.org/2000/svg";
    .line                 {fill: none; stroke: #330000; stroke-width: 1;}
    .bold-line            {stroke: #140000; shape-rendering: crispEdges; stroke-width: 2;}
    .thin-line            {stroke: #1F0000; shape-rendering: crispEdges}
    .filled               {fill: #330000; stroke: none;}
    text.terminal         {font-family: Verdana, Sans-serif;
                            font-size: 12px;
                            fill: #140000;
                            font-weight: bold;
                          }
    text.nonterminal      {font-family: Verdana, Sans-serif;
                            font-size: 12px;
                            fill: #1A0000;
                            font-weight: normal;
                          }
    text.regexp           {font-family: Verdana, Sans-serif;
                            font-size: 12px;
                            fill: #1F0000;
                            font-weight: normal;
                          }
    rect, circle, polygon {fill: #330000; stroke: #330000;}
    rect.terminal         {fill: #FF4D4D; stroke: #330000; stroke-width: 1;}
    rect.nonterminal      {fill: #FF9E9E; stroke: #330000; stroke-width: 1;}
    rect.text             {fill: none; stroke: none;}
    polygon.regexp        {fill: #FFC7C7; stroke: #330000; stroke-width: 1;}
  </style>
   </defs>
   <polygon points="11 17 3 13 3 21"/>
   <polygon points="19 17 11 13 11 21"/>
   <rect x="33" y="3" width="72" height="32" rx="10"/>
   <rect x="31"
         y="1"
         width="72"
         height="32"
         class="terminal"
         rx="10"/>
   <text class="terminal" x="41" y="21">CREATE</text>
   <rect x="145" y="35" width="74" height="32" rx="10"/>
   <rect x="143"
         y="33"
         width="74"
         height="32"
         class="terminal"
         rx="10"/>
   <text class="terminal" x="153" y="53">UNIQUE</text>
   <rect x="259" y="3" width="64" height="32" rx="10"/>
   <rect x="257"
         y="1"
         width="64"
         height="32"
         class="terminal"
         rx="10"/>
   <text class="terminal" x="267" y="21">INDEX</text>
   <a xmlns:xlink="http://www.w3.org/1999/xlink"
      xlink:href="../object"
      xlink:title="index">
      <rect x="343" y="3" width="54" height="32"/>
      <rect x="341" y="1" width="54" height="32" class="nonterminal"/>
      <text class="nonterminal" x="351" y="21">index</text>
   </a>
   <rect x="417" y="3" width="40" height="32" rx="10"/>
   <rect x="415"
         y="1"
         width="40"
         height="32"
         class="terminal"
         rx="10"/>
   <text class="terminal" x="425" y="21">ON</text>
   <a xmlns:xlink="http://www.w3.org/1999/xlink"
      xlink:href="../object"
      xlink:title="table">
      <rect x="477" y="3" width="52" height="32"/>
      <rect x="475" y="1" width="52" height="32" class="nonterminal"/>
      <text class="nonterminal" x="485" y="21">table</text>
   </a>
   <rect x="569" y="35" width="64" height="32" rx="10"/>
   <rect x="567"
         y="33"
         width="64"
         height="32"
         class="terminal"
         rx="10"/>
   <text class="terminal" x="577" y="53">USING</text>
   <rect x="673" y="35" width="54" height="32" rx="10"/>
   <rect x="671"
         y="33"
         width="54"
         height="32"
         class="terminal"
         rx="10"/>
   <text class="terminal" x="681" y="53">TREE</text>
   <rect x="673" y="79" width="58" height="32" rx="10"/>
   <rect x="671"
         y="77"
         width="58"
         height="32"
         class="terminal"
         rx="10"/>
   <text class="terminal" x="681" y="97">HASH</text>
   <rect x="673" y="123" width="62" height="32" rx="10"/>
   <rect x="671"
         y="121"
         width="62"
         height="32"
         class="terminal"
         rx="10"/>
   <text class="terminal" x="681" y="141">RTREE</text>
   <rect x="673" y="167" width="68" height="32" rx="10"/>
   <rect x="671"
         y="165"
         width="68"
         height="32"
         class="terminal"
         rx="10"/>
   <text class="terminal" x="681" y="185">BITSET</text>
   <rect x="801" y="3" width="26" height="32" rx="10"/>
   <rect x="799"
         y="1"
         width="26"
         height="32"
         class="terminal"
         rx="10"/>
   <text class="terminal" x="809" y="21">(</text>
   <a xmlns:xlink="http://www.w3.org/1999/xlink"
      xlink:href="../object"
      xlink:title="column">
      <rect x="45" y="277" width="64" height="32"/>
      <rect x="43" y="275" width="64" height="32" class="nonterminal"/>
      <text class="nonterminal" x="53" y="295">column</text>
   </a>
   <rect x="45" y="233" width="24" height="32" rx="10"/>
   <rect x="43"
         y="231"
         width="24"
         height="32"
         class="terminal"
         rx="10"/>
   <text class="terminal" x="53" y="251">,</text>
   <rect x="149" y="277" width="26" height="32" rx="10"/>
   <rect x="147"
         y="275"
         width="26"
         height="32"
         class="terminal"
         rx="10"/>
   <text class="terminal" x="157" y="295">)</text>
   <rect x="215" y="277" width="58" height="32" rx="10"/>
   <rect x="213"
         y="275"
         width="58"
         height="32"
         class="terminal"
         rx="10"/>
   <text class="terminal" x="223" y="295">WITH</text>
   <rect x="293" y="277" width="26" height="32" rx="10"/>
   <rect x="291"
         y="275"
         width="26"
         height="32"
         class="terminal"
         rx="10"/>
   <text class="terminal" x="301" y="295">(</text>
   <rect x="399" y="277" width="106" height="32" rx="10"/>
   <rect x="397"
         y="275"
         width="106"
         height="32"
         class="terminal"
         rx="10"/>
   <text class="terminal" x="407" y="295">BLOOM_FPR</text>
   <rect x="399" y="321" width="144" height="32" rx="10"/>
   <rect x="397"
         y="319"
         width="144"
         height="32"
         class="terminal"
         rx="10"/>
   <text class="terminal" x="407" y="339">RUN_SIZE_RATIO</text>
   <rect x="583" y="277" width="30" height="32" rx="10"/>
   <rect x="581"
         y="275"
         width="30"
         height="32"
         class="terminal"
         rx="10"/>
   <text class="terminal" x="591" y="295">=</text>
   <a xmlns:xlink="http://www.w3.org/1999/xlink"
      xlink:href="../../sql_types#decimal"
      xlink:title="decimal">
      <rect x="633" y="277" width="68" height="32"/>
      <rect x="631" y="275" width="68" height="32" class="nonterminal"/>
      <text class="nonterminal" x="641" y="295">decimal</text>
   </a>
   <rect x="399" y="365" width="96" height="32" rx="10"/>
   <rect x="397"
         y="363"
         width="96"
         height="32"
         class="terminal"
         rx="10"/>
   <text class="terminal" x="407" y="383">PAGE_SIZE</text>
   <rect x="399" y="409" width="108" height="32" rx="10"/>
   <rect x="397"
         y="407"
         width="108"
         height="32"
         class="terminal"
         rx="10"/>
   <text class="terminal" x="407" y="427">RANGE_SIZE</text>
   <rect x="399" y="453" width="192" height="32" rx="10"/>
   <rect x="397"
         y="451"
         width="192"
         height="32"
         class="terminal"
         rx="10"/>
   <text class="terminal" x="407" y="471">RUN_COUNT_PER_LEVEL</text>
   <rect x="399" y="497" width="102" height="32" rx="10"/>
   <rect x="397"
         y="495"
         width="102"
         height="32"
         class="terminal"
         rx="10"/>
   <text class="terminal" x="407" y="515">DIMENSION</text>
   <rect x="631" y="365" width="30" height="32" rx="10"/>
   <rect x="629"
         y="363"
         width="30"
         height="32"
         class="terminal"
         rx="10"/>
   <text class="terminal" x="639" y="383">=</text>
   <a xmlns:xlink="http://www.w3.org/1999/xlink"
      xlink:href="../../sql_types#unsigned"
      xlink:title="unsigned">
      <rect x="681" y="365" width="78" height="32"/>
      <rect x="679" y="363" width="78" height="32" class="nonterminal"/>
      <text class="nonterminal" x="689" y="383">unsigned</text>
   </a>
   <rect x="379" y="541" width="90" height="32" rx="10"/>
   <rect x="377"
         y="539"
         width="90"
         height="32"
         class="terminal"
         rx="10"/>
   <text class="terminal" x="387" y="559">DISTANCE</text>
   <rect x="489" y="541" width="30" height="32" rx="10"/>
   <rect x="487"
         y="539"
         width="30"
         height="32"
         class="terminal"
         rx="10"/>
   <text class="terminal" x="497" y="559">=</text>
   <rect x="559" y="541" width="70" height="32" rx="10"/>
   <rect x="557"
         y="539"
         width="70"
         height="32"
         class="terminal"
         rx="10"/>
   <text class="terminal" x="567" y="559">EUCLID</text>
   <rect x="559" y="585" width="106" height="32" rx="10"/>
   <rect x="557"
         y="583"
         width="106"
         height="32"
         class="terminal"
         rx="10"/>
   <text class="terminal" x="567" y="603">MANHATTAN</text>
   <rect x="379" y="629" width="54" height="32" rx="10"/>
   <rect x="377"
         y="627"
         width="54"
         height="32"
         class="terminal"
         rx="10"/>
   <text class="terminal" x="387" y="647">HINT</text>
   <rect x="453" y="629" width="30" height="32" rx="10"/>
   <rect x="451"
         y="627"
         width="30"
         height="32"
         class="terminal"
         rx="10"/>
   <text class="terminal" x="461" y="647">=</text>
   <rect x="523" y="629" width="56" height="32" rx="10"/>
   <rect x="521"
         y="627"
         width="56"
         height="32"
         class="terminal"
         rx="10"/>
   <text class="terminal" x="531" y="647">TRUE</text>
   <rect x="523" y="673" width="62" height="32" rx="10"/>
   <rect x="521"
         y="671"
         width="62"
         height="32"
         class="terminal"
         rx="10"/>
   <text class="terminal" x="531" y="691">FALSE</text>
   <rect x="359" y="233" width="24" height="32" rx="10"/>
   <rect x="357"
         y="231"
         width="24"
         height="32"
         class="terminal"
         rx="10"/>
   <text class="terminal" x="367" y="251">,</text>
   <rect x="819" y="277" width="26" height="32" rx="10"/>
   <rect x="817"
         y="275"
         width="26"
         height="32"
         class="terminal"
         rx="10"/>
   <text class="terminal" x="827" y="295">)</text>
   <path class="line"
         d="m19 17 h2 m0 0 h10 m72 0 h10 m20 0 h10 m0 0 h84 m-114 0 h20 m94 0 h20 m-134 0 q10 0 10 10 m114 0 q0 -10 10 -10 m-124 10 v12 m114 0 v-12 m-114 12 q0 10 10 10 m94 0 q10 0 10 -10 m-104 10 h10 m74 0 h10 m20 -32 h10 m64 0 h10 m0 0 h10 m54 0 h10 m0 0 h10 m40 0 h10 m0 0 h10 m52 0 h10 m20 0 h10 m0 0 h202 m-232 0 h20 m212 0 h20 m-252 0 q10 0 10 10 m232 0 q0 -10 10 -10 m-242 10 v12 m232 0 v-12 m-232 12 q0 10 10 10 m212 0 q10 0 10 -10 m-222 10 h10 m64 0 h10 m20 0 h10 m54 0 h10 m0 0 h14 m-108 0 h20 m88 0 h20 m-128 0 q10 0 10 10 m108 0 q0 -10 10 -10 m-118 10 v24 m108 0 v-24 m-108 24 q0 10 10 10 m88 0 q10 0 10 -10 m-98 10 h10 m58 0 h10 m0 0 h10 m-98 -10 v20 m108 0 v-20 m-108 20 v24 m108 0 v-24 m-108 24 q0 10 10 10 m88 0 q10 0 10 -10 m-98 10 h10 m62 0 h10 m0 0 h6 m-98 -10 v20 m108 0 v-20 m-108 20 v24 m108 0 v-24 m-108 24 q0 10 10 10 m88 0 q10 0 10 -10 m-98 10 h10 m68 0 h10 m40 -164 h10 m26 0 h10 m2 0 l2 0 m2 0 l2 0 m2 0 l2 0 m-846 274 l2 0 m2 0 l2 0 m2 0 l2 0 m22 0 h10 m64 0 h10 m-104 0 l20 0 m-1 0 q-9 0 -9 -10 l0 -24 q0 -10 10 -10 m84 44 l20 0 m-20 0 q10 0 10 -10 l0 -24 q0 -10 -10 -10 m-84 0 h10 m24 0 h10 m0 0 h40 m20 44 h10 m26 0 h10 m20 0 h10 m58 0 h10 m0 0 h10 m26 0 h10 m60 0 h10 m106 0 h10 m0 0 h38 m-184 0 h20 m164 0 h20 m-204 0 q10 0 10 10 m184 0 q0 -10 10 -10 m-194 10 v24 m184 0 v-24 m-184 24 q0 10 10 10 m164 0 q10 0 10 -10 m-174 10 h10 m144 0 h10 m20 -44 h10 m30 0 h10 m0 0 h10 m68 0 h10 m0 0 h58 m-420 0 h20 m400 0 h20 m-440 0 q10 0 10 10 m420 0 q0 -10 10 -10 m-430 10 v68 m420 0 v-68 m-420 68 q0 10 10 10 m400 0 q10 0 10 -10 m-390 10 h10 m96 0 h10 m0 0 h96 m-232 0 h20 m212 0 h20 m-252 0 q10 0 10 10 m232 0 q0 -10 10 -10 m-242 10 v24 m232 0 v-24 m-232 24 q0 10 10 10 m212 0 q10 0 10 -10 m-222 10 h10 m108 0 h10 m0 0 h84 m-222 -10 v20 m232 0 v-20 m-232 20 v24 m232 0 v-24 m-232 24 q0 10 10 10 m212 0 q10 0 10 -10 m-222 10 h10 m192 0 h10 m-222 -10 v20 m232 0 v-20 m-232 20 v24 m232 0 v-24 m-232 24 q0 10 10 10 m212 0 q10 0 10 -10 m-222 10 h10 m102 0 h10 m0 0 h90 m20 -132 h10 m30 0 h10 m0 0 h10 m78 0 h10 m-410 -10 v20 m420 0 v-20 m-420 20 v156 m420 0 v-156 m-420 156 q0 10 10 10 m400 0 q10 0 10 -10 m-410 10 h10 m90 0 h10 m0 0 h10 m30 0 h10 m20 0 h10 m70 0 h10 m0 0 h36 m-146 0 h20 m126 0 h20 m-166 0 q10 0 10 10 m146 0 q0 -10 10 -10 m-156 10 v24 m146 0 v-24 m-146 24 q0 10 10 10 m126 0 q10 0 10 -10 m-136 10 h10 m106 0 h10 m20 -44 h74 m-410 -10 v20 m420 0 v-20 m-420 20 v68 m420 0 v-68 m-420 68 q0 10 10 10 m400 0 q10 0 10 -10 m-410 10 h10 m54 0 h10 m0 0 h10 m30 0 h10 m20 0 h10 m56 0 h10 m0 0 h6 m-102 0 h20 m82 0 h20 m-122 0 q10 0 10 10 m102 0 q0 -10 10 -10 m-112 10 v24 m102 0 v-24 m-102 24 q0 10 10 10 m82 0 q10 0 10 -10 m-92 10 h10 m62 0 h10 m20 -44 h154 m-440 -352 l20 0 m-1 0 q-9 0 -9 -10 l0 -24 q0 -10 10 -10 m440 44 l20 0 m-20 0 q10 0 10 -10 l0 -24 q0 -10 -10 -10 m-440 0 h10 m24 0 h10 m0 0 h396 m20 44 h10 m26 0 h10 m-670 0 h20 m650 0 h20 m-690 0 q10 0 10 10 m670 0 q0 -10 10 -10 m-680 10 v410 m670 0 v-410 m-670 410 q0 10 10 10 m650 0 q10 0 10 -10 m-660 10 h10 m0 0 h640 m23 -430 h-3"/>
   <polygon points="883 291 891 287 891 295"/>
   <polygon points="883 291 875 287 875 295"/>
</svg>
