<?xml version="1.0" encoding="UTF-8"?>
<svg xmlns="http://www.w3.org/2000/svg" width="971" height="767" viewBox="0 0 971 767">
   <defs>
      <style type="text/css">
    @namespace "http://www.w3.org/2000/svg";
    .line                 {fill: none; stroke: #330000; stroke-width: 1;}
    .bold-line            {stroke: #140000; shape-rendering: crispEdges; stroke-width: 2;}
    .thin-line            {stroke: #1F0000; shape-rendering: crispEdges}
    .filled               {fill: #330000; stroke: none;}
    text.terminal         {font-family: Verdana, Sans-serif;
                            font-size: 12px;
                            fill: #140000;
                            font-weight: bold;
                          }
    text.nonterminal      {font-family: Verdana, Sans-serif;
                            font-size: 12px;
                            fill: #1A0000;
                            font-weight: normal;
                          }
    text.regexp           {font-family: Verdana, Sans-serif;
                            font-size: 12px;
                            fill: #1F0000;
                            font-weight: normal;
                          }
    rect, circle, polygon {fill: #330000; stroke: #330000;}
    rect.terminal         {fill: #FF4D4D; stroke: #330000; stroke-width: 1;}
    rect.nonterminal      {fill: #FF9E9E; stroke: #330000; stroke-width: 1;}
    rect.text             {fill: none; stroke: none;}
    polygon.regexp        {fill: #FFC7C7; stroke: #330000; stroke-width: 1;}
  </style>
   </defs>
   <polygon points="9 61 1 57 1 65"/>
   <polygon points="17 61 9 57 9 65"/>
   <rect x="31" y="47" width="72" height="32" rx="10"/>
   <rect x="29"
         y="45"
         width="72"
         height="32"
         class="terminal"
         rx="10"/>
   <text class="terminal" x="39" y="65">CREATE</text>
   <rect x="143" y="79" width="74" height="32" rx="10"/>
   <rect x="141"
         y="77"
         width="74"
         height="32"
         class="terminal"
         rx="10"/>
   <text class="terminal" x="151" y="97">UNIQUE</text>
   <rect x="257" y="47" width="64" height="32" rx="10"/>
   <rect x="255"
         y="45"
         width="64"
         height="32"
         class="terminal"
         rx="10"/>
   <text class="terminal" x="265" y="65">INDEX</text>
   <a xmlns:xlink="http://www.w3.org/1999/xlink"
      xlink:href="../object"
      xlink:title="index">
      <rect x="341" y="47" width="54" height="32"/>
      <rect x="339" y="45" width="54" height="32" class="nonterminal"/>
      <text class="nonterminal" x="349" y="65">index</text>
   </a>
   <rect x="415" y="47" width="40" height="32" rx="10"/>
   <rect x="413"
         y="45"
         width="40"
         height="32"
         class="terminal"
         rx="10"/>
   <text class="terminal" x="423" y="65">ON</text>
   <a xmlns:xlink="http://www.w3.org/1999/xlink"
      xlink:href="../object"
      xlink:title="table">
      <rect x="475" y="47" width="52" height="32"/>
      <rect x="473" y="45" width="52" height="32" class="nonterminal"/>
      <text class="nonterminal" x="483" y="65">table</text>
   </a>
   <rect x="567" y="79" width="64" height="32" rx="10"/>
   <rect x="565"
         y="77"
         width="64"
         height="32"
         class="terminal"
         rx="10"/>
   <text class="terminal" x="575" y="97">USING</text>
   <rect x="671" y="79" width="54" height="32" rx="10"/>
   <rect x="669"
         y="77"
         width="54"
         height="32"
         class="terminal"
         rx="10"/>
   <text class="terminal" x="679" y="97">TREE</text>
   <rect x="671" y="123" width="58" height="32" rx="10"/>
   <rect x="669"
         y="121"
         width="58"
         height="32"
         class="terminal"
         rx="10"/>
   <text class="terminal" x="679" y="141">HASH</text>
   <rect x="671" y="167" width="62" height="32" rx="10"/>
   <rect x="669"
         y="165"
         width="62"
         height="32"
         class="terminal"
         rx="10"/>
   <text class="terminal" x="679" y="185">RTREE</text>
   <rect x="671" y="211" width="68" height="32" rx="10"/>
   <rect x="669"
         y="209"
         width="68"
         height="32"
         class="terminal"
         rx="10"/>
   <text class="terminal" x="679" y="229">BITSET</text>
   <rect x="799" y="47" width="26" height="32" rx="10"/>
   <rect x="797"
         y="45"
         width="26"
         height="32"
         class="terminal"
         rx="10"/>
   <text class="terminal" x="807" y="65">(</text>
   <a xmlns:xlink="http://www.w3.org/1999/xlink"
      xlink:href="../object"
      xlink:title="column">
      <rect x="865" y="47" width="64" height="32"/>
      <rect x="863" y="45" width="64" height="32" class="nonterminal"/>
      <text class="nonterminal" x="873" y="65">column</text>
   </a>
   <rect x="865" y="3" width="24" height="32" rx="10"/>
   <rect x="863"
         y="1"
         width="24"
         height="32"
         class="terminal"
         rx="10"/>
   <text class="terminal" x="873" y="21">,</text>
   <rect x="227" y="321" width="26" height="32" rx="10"/>
   <rect x="225"
         y="319"
         width="26"
         height="32"
         class="terminal"
         rx="10"/>
   <text class="terminal" x="235" y="339">)</text>
   <rect x="293" y="321" width="58" height="32" rx="10"/>
   <rect x="291"
         y="319"
         width="58"
         height="32"
         class="terminal"
         rx="10"/>
   <text class="terminal" x="301" y="339">WITH</text>
   <rect x="371" y="321" width="26" height="32" rx="10"/>
   <rect x="369"
         y="319"
         width="26"
         height="32"
         class="terminal"
         rx="10"/>
   <text class="terminal" x="379" y="339">(</text>
   <rect x="477" y="321" width="106" height="32" rx="10"/>
   <rect x="475"
         y="319"
         width="106"
         height="32"
         class="terminal"
         rx="10"/>
   <text class="terminal" x="485" y="339">BLOOM_FPR</text>
   <rect x="477" y="365" width="144" height="32" rx="10"/>
   <rect x="475"
         y="363"
         width="144"
         height="32"
         class="terminal"
         rx="10"/>
   <text class="terminal" x="485" y="383">RUN_SIZE_RATIO</text>
   <rect x="661" y="321" width="30" height="32" rx="10"/>
   <rect x="659"
         y="319"
         width="30"
         height="32"
         class="terminal"
         rx="10"/>
   <text class="terminal" x="669" y="339">=</text>
   <a xmlns:xlink="http://www.w3.org/1999/xlink"
      xlink:href="../../sql_types#decimal"
      xlink:title="decimal">
      <rect x="711" y="321" width="68" height="32"/>
      <rect x="709" y="319" width="68" height="32" class="nonterminal"/>
      <text class="nonterminal" x="719" y="339">decimal</text>
   </a>
   <rect x="477" y="409" width="96" height="32" rx="10"/>
   <rect x="475"
         y="407"
         width="96"
         height="32"
         class="terminal"
         rx="10"/>
   <text class="terminal" x="485" y="427">PAGE_SIZE</text>
   <rect x="477" y="453" width="108" height="32" rx="10"/>
   <rect x="475"
         y="451"
         width="108"
         height="32"
         class="terminal"
         rx="10"/>
   <text class="terminal" x="485" y="471">RANGE_SIZE</text>
   <rect x="477" y="497" width="192" height="32" rx="10"/>
   <rect x="475"
         y="495"
         width="192"
         height="32"
         class="terminal"
         rx="10"/>
   <text class="terminal" x="485" y="515">RUN_COUNT_PER_LEVEL</text>
   <rect x="477" y="541" width="102" height="32" rx="10"/>
   <rect x="475"
         y="539"
         width="102"
         height="32"
         class="terminal"
         rx="10"/>
   <text class="terminal" x="485" y="559">DIMENSION</text>
   <rect x="709" y="409" width="30" height="32" rx="10"/>
   <rect x="707"
         y="407"
         width="30"
         height="32"
         class="terminal"
         rx="10"/>
   <text class="terminal" x="717" y="427">=</text>
   <a xmlns:xlink="http://www.w3.org/1999/xlink"
      xlink:href="../../sql_types#unsigned"
      xlink:title="unsigned">
      <rect x="759" y="409" width="78" height="32"/>
      <rect x="757" y="407" width="78" height="32" class="nonterminal"/>
      <text class="nonterminal" x="767" y="427">unsigned</text>
   </a>
   <rect x="457" y="585" width="90" height="32" rx="10"/>
   <rect x="455"
         y="583"
         width="90"
         height="32"
         class="terminal"
         rx="10"/>
   <text class="terminal" x="465" y="603">DISTANCE</text>
   <rect x="567" y="585" width="30" height="32" rx="10"/>
   <rect x="565"
         y="583"
         width="30"
         height="32"
         class="terminal"
         rx="10"/>
   <text class="terminal" x="575" y="603">=</text>
   <rect x="637" y="585" width="70" height="32" rx="10"/>
   <rect x="635"
         y="583"
         width="70"
         height="32"
         class="terminal"
         rx="10"/>
   <text class="terminal" x="645" y="603">EUCLID</text>
   <rect x="637" y="629" width="106" height="32" rx="10"/>
   <rect x="635"
         y="627"
         width="106"
         height="32"
         class="terminal"
         rx="10"/>
   <text class="terminal" x="645" y="647">MANHATTAN</text>
   <rect x="457" y="673" width="54" height="32" rx="10"/>
   <rect x="455"
         y="671"
         width="54"
         height="32"
         class="terminal"
         rx="10"/>
   <text class="terminal" x="465" y="691">HINT</text>
   <rect x="531" y="673" width="30" height="32" rx="10"/>
   <rect x="529"
         y="671"
         width="30"
         height="32"
         class="terminal"
         rx="10"/>
   <text class="terminal" x="539" y="691">=</text>
   <a xmlns:xlink="http://www.w3.org/1999/xlink"
      xlink:href="../../sql_types#boolean"
      xlink:title="TRUE">
      <rect x="601" y="673" width="52" height="32"/>
      <rect x="599" y="671" width="52" height="32" class="nonterminal"/>
      <text class="nonterminal" x="609" y="691">TRUE</text>
   </a>
   <a xmlns:xlink="http://www.w3.org/1999/xlink"
      xlink:href="../../sql_types#boolean"
      xlink:title="FALSE">
      <rect x="601" y="717" width="58" height="32"/>
      <rect x="599" y="715" width="58" height="32" class="nonterminal"/>
      <text class="nonterminal" x="609" y="735">FALSE</text>
   </a>
   <rect x="437" y="277" width="24" height="32" rx="10"/>
   <rect x="435"
         y="275"
         width="24"
         height="32"
         class="terminal"
         rx="10"/>
   <text class="terminal" x="445" y="295">,</text>
   <rect x="897" y="321" width="26" height="32" rx="10"/>
   <rect x="895"
         y="319"
         width="26"
         height="32"
         class="terminal"
         rx="10"/>
   <text class="terminal" x="905" y="339">)</text>
   <path class="line"
         d="m17 61 h2 m0 0 h10 m72 0 h10 m20 0 h10 m0 0 h84 m-114 0 h20 m94 0 h20 m-134 0 q10 0 10 10 m114 0 q0 -10 10 -10 m-124 10 v12 m114 0 v-12 m-114 12 q0 10 10 10 m94 0 q10 0 10 -10 m-104 10 h10 m74 0 h10 m20 -32 h10 m64 0 h10 m0 0 h10 m54 0 h10 m0 0 h10 m40 0 h10 m0 0 h10 m52 0 h10 m20 0 h10 m0 0 h202 m-232 0 h20 m212 0 h20 m-252 0 q10 0 10 10 m232 0 q0 -10 10 -10 m-242 10 v12 m232 0 v-12 m-232 12 q0 10 10 10 m212 0 q10 0 10 -10 m-222 10 h10 m64 0 h10 m20 0 h10 m54 0 h10 m0 0 h14 m-108 0 h20 m88 0 h20 m-128 0 q10 0 10 10 m108 0 q0 -10 10 -10 m-118 10 v24 m108 0 v-24 m-108 24 q0 10 10 10 m88 0 q10 0 10 -10 m-98 10 h10 m58 0 h10 m0 0 h10 m-98 -10 v20 m108 0 v-20 m-108 20 v24 m108 0 v-24 m-108 24 q0 10 10 10 m88 0 q10 0 10 -10 m-98 10 h10 m62 0 h10 m0 0 h6 m-98 -10 v20 m108 0 v-20 m-108 20 v24 m108 0 v-24 m-108 24 q0 10 10 10 m88 0 q10 0 10 -10 m-98 10 h10 m68 0 h10 m40 -164 h10 m26 0 h10 m20 0 h10 m64 0 h10 m-104 0 l20 0 m-1 0 q-9 0 -9 -10 l0 -24 q0 -10 10 -10 m84 44 l20 0 m-20 0 q10 0 10 -10 l0 -24 q0 -10 -10 -10 m-84 0 h10 m24 0 h10 m0 0 h40 m22 44 l2 0 m2 0 l2 0 m2 0 l2 0 m-766 274 l2 0 m2 0 l2 0 m2 0 l2 0 m2 0 h10 m26 0 h10 m20 0 h10 m58 0 h10 m0 0 h10 m26 0 h10 m60 0 h10 m106 0 h10 m0 0 h38 m-184 0 h20 m164 0 h20 m-204 0 q10 0 10 10 m184 0 q0 -10 10 -10 m-194 10 v24 m184 0 v-24 m-184 24 q0 10 10 10 m164 0 q10 0 10 -10 m-174 10 h10 m144 0 h10 m20 -44 h10 m30 0 h10 m0 0 h10 m68 0 h10 m0 0 h58 m-420 0 h20 m400 0 h20 m-440 0 q10 0 10 10 m420 0 q0 -10 10 -10 m-430 10 v68 m420 0 v-68 m-420 68 q0 10 10 10 m400 0 q10 0 10 -10 m-390 10 h10 m96 0 h10 m0 0 h96 m-232 0 h20 m212 0 h20 m-252 0 q10 0 10 10 m232 0 q0 -10 10 -10 m-242 10 v24 m232 0 v-24 m-232 24 q0 10 10 10 m212 0 q10 0 10 -10 m-222 10 h10 m108 0 h10 m0 0 h84 m-222 -10 v20 m232 0 v-20 m-232 20 v24 m232 0 v-24 m-232 24 q0 10 10 10 m212 0 q10 0 10 -10 m-222 10 h10 m192 0 h10 m-222 -10 v20 m232 0 v-20 m-232 20 v24 m232 0 v-24 m-232 24 q0 10 10 10 m212 0 q10 0 10 -10 m-222 10 h10 m102 0 h10 m0 0 h90 m20 -132 h10 m30 0 h10 m0 0 h10 m78 0 h10 m-410 -10 v20 m420 0 v-20 m-420 20 v156 m420 0 v-156 m-420 156 q0 10 10 10 m400 0 q10 0 10 -10 m-410 10 h10 m90 0 h10 m0 0 h10 m30 0 h10 m20 0 h10 m70 0 h10 m0 0 h36 m-146 0 h20 m126 0 h20 m-166 0 q10 0 10 10 m146 0 q0 -10 10 -10 m-156 10 v24 m146 0 v-24 m-146 24 q0 10 10 10 m126 0 q10 0 10 -10 m-136 10 h10 m106 0 h10 m20 -44 h74 m-410 -10 v20 m420 0 v-20 m-420 20 v68 m420 0 v-68 m-420 68 q0 10 10 10 m400 0 q10 0 10 -10 m-410 10 h10 m54 0 h10 m0 0 h10 m30 0 h10 m20 0 h10 m52 0 h10 m0 0 h6 m-98 0 h20 m78 0 h20 m-118 0 q10 0 10 10 m98 0 q0 -10 10 -10 m-108 10 v24 m98 0 v-24 m-98 24 q0 10 10 10 m78 0 q10 0 10 -10 m-88 10 h10 m58 0 h10 m20 -44 h158 m-440 -352 l20 0 m-1 0 q-9 0 -9 -10 l0 -24 q0 -10 10 -10 m440 44 l20 0 m-20 0 q10 0 10 -10 l0 -24 q0 -10 -10 -10 m-440 0 h10 m24 0 h10 m0 0 h396 m20 44 h10 m26 0 h10 m-670 0 h20 m650 0 h20 m-690 0 q10 0 10 10 m670 0 q0 -10 10 -10 m-680 10 v410 m670 0 v-410 m-670 410 q0 10 10 10 m650 0 q10 0 10 -10 m-660 10 h10 m0 0 h640 m23 -430 h-3"/>
   <polygon points="961 335 969 331 969 339"/>
   <polygon points="961 335 953 331 953 339"/>
</svg>
