<?xml version="1.0" encoding="UTF-8" standalone="no"?>
<svg
   width="633"
   height="155"
   version="1.1"
   viewBox="0 0 633 155"
   id="svg28"
   sodipodi:docname="create_plugin.svg"
   inkscape:version="1.3.2 (091e20ef0f, 2023-11-25)"
   xmlns:inkscape="http://www.inkscape.org/namespaces/inkscape"
   xmlns:sodipodi="http://sodipodi.sourceforge.net/DTD/sodipodi-0.dtd"
   xmlns:xlink="http://www.w3.org/1999/xlink"
   xmlns="http://www.w3.org/2000/svg"
   xmlns:svg="http://www.w3.org/2000/svg">
  <sodipodi:namedview
     id="namedview28"
     pagecolor="#ffffff"
     bordercolor="#666666"
     borderopacity="1.0"
     inkscape:showpageshadow="2"
     inkscape:pageopacity="0.0"
     inkscape:pagecheckerboard="0"
     inkscape:deskcolor="#d1d1d1"
     inkscape:zoom="1.1627172"
     inkscape:cx="391.75476"
     inkscape:cy="69.664403"
     inkscape:window-width="1858"
     inkscape:window-height="1014"
     inkscape:window-x="62"
     inkscape:window-y="29"
     inkscape:window-maximized="1"
     inkscape:current-layer="svg28" />
  <defs
     id="defs1">
    <style
       type="text/css"
       id="style1">@namespace &quot;http://www.w3.org/2000/svg&quot;;.line { fill: none; stroke: #330000; stroke-width: 1; }
.bold-line { stroke: #140000; shape-rendering: crispEdges; stroke-width: 2; }
.thin-line { stroke: #1F0000; shape-rendering: crispEdges }
.filled { fill: #330000; stroke: none; }
text.terminal { font-family: Verdana, Sans-serif;                            font-size: 12px;                            fill: #140000;                            font-weight: bold; }
text.nonterminal { font-family: Verdana, Sans-serif;                            font-size: 12px;                            fill: #1A0000;                            font-weight: normal; }
text.regexp { font-family: Verdana, Sans-serif;                            font-size: 12px;                            fill: #1F0000;                            font-weight: normal; }
rect, circle, polygon { fill: #330000; stroke: #330000; }
rect.terminal { fill: #FF4D4D; stroke: #330000; stroke-width: 1; }
rect.nonterminal { fill: #FF9E9E; stroke: #330000; stroke-width: 1; }
rect.text { fill: none; stroke: none; }
polygon.regexp { fill: #FFC7C7; stroke: #330000; stroke-width: 1; }
</style>
  </defs>
  <polygon
     points="9 17 1 13 1 21"
     id="polygon1" />
  <polygon
     points="17 17 9 13 9 21"
     id="polygon2" />
  <rect
     x="31"
     y="3"
     width="72"
     height="32"
     rx="10"
     id="rect2" />
  <rect
     x="29"
     y="1"
     width="72"
     height="32"
     class="terminal"
     rx="10"
     id="rect3" />
  <text
     class="terminal"
     x="39"
     y="21"
     id="text3">CREATE</text>
  <rect
     x="123"
     y="3"
     width="72"
     height="32"
     rx="10"
     id="rect4" />
  <rect
     x="121"
     y="1"
     width="72"
     height="32"
     class="terminal"
     rx="10"
     id="rect5" />
  <text
     class="terminal"
     x="131"
     y="21"
     id="text5">PLUGIN</text>
  <rect
     x="235"
     y="35"
     width="34"
     height="32"
     rx="10"
     id="rect6" />
  <rect
     x="233"
     y="33"
     width="34"
     height="32"
     class="terminal"
     rx="10"
     id="rect7" />
  <text
     class="terminal"
     x="243"
     y="53"
     id="text7">IF</text>
  <rect
     x="289"
     y="35"
     width="48"
     height="32"
     rx="10"
     id="rect8" />
  <rect
     x="287"
     y="33"
     width="48"
     height="32"
     class="terminal"
     rx="10"
     id="rect9" />
  <text
     class="terminal"
     x="297"
     y="53"
     id="text9">NOT</text>
  <rect
     x="357"
     y="35"
     width="70"
     height="32"
     rx="10"
     id="rect10" />
  <rect
     x="355"
     y="33"
     width="70"
     height="32"
     class="terminal"
     rx="10"
     id="rect11" />
  <text
     class="terminal"
     x="365"
     y="53"
     id="text11">EXISTS</text>
  <a
     xlink:href="../object"
     xlink:title="plugin"
     id="a13">
    <rect
       x="467"
       y="3"
       width="58"
       height="32"
       id="rect12" />
    <rect
       x="465"
       y="1"
       width="58"
       height="32"
       class="nonterminal"
       id="rect13" />
    <text
       class="nonterminal"
       x="475"
       y="21"
       id="text13">plugin</text>
  </a>
  <a
     xlink:href=""
     xlink:title="version"
     id="a15">
    <rect
       x="545"
       y="3"
       width="66"
       height="32"
       id="rect14" />
    <rect
       x="543"
       y="1"
       width="66"
       height="32"
       class="nonterminal"
       id="rect15" />
    <text
       class="nonterminal"
       x="553"
       y="21"
       id="text15">version</text>
  </a>
  <rect
     x="183"
     y="121"
     width="76"
     height="32"
     rx="10"
     id="rect16" />
  <rect
     x="181"
     y="119"
     width="76"
     height="32"
     class="terminal"
     rx="10"
     id="rect17" />
  <text
     class="terminal"
     x="191"
     y="139"
     id="text17">OPTION</text>
  <rect
     x="279"
     y="121"
     width="26"
     height="32"
     rx="10"
     id="rect18" />
  <rect
     x="277"
     y="119"
     width="26"
     height="32"
     class="terminal"
     rx="10"
     id="rect19" />
  <text
     class="terminal"
     x="287"
     y="139"
     id="text19">(</text>
  <rect
     x="325"
     y="121"
     width="82"
     height="32"
     rx="10"
     id="rect20" />
  <rect
     x="323"
     y="119"
     width="82"
     height="32"
     class="terminal"
     rx="10"
     id="rect21" />
  <text
     class="terminal"
     x="333"
     y="139"
     id="text21">TIMEOUT</text>
  <rect
     x="427"
     y="121"
     width="30"
     height="32"
     rx="10"
     id="rect22" />
  <rect
     x="425"
     y="119"
     width="30"
     height="32"
     class="terminal"
     rx="10"
     id="rect23" />
  <text
     class="terminal"
     x="435"
     y="139"
     id="text23">=</text>
  <a
     xlink:href="../../sql_types#double"
     xlink:title="double"
     id="a25">
    <rect
       x="477"
       y="121"
       width="62"
       height="32"
       id="rect24" />
    <rect
       x="475"
       y="119"
       width="62"
       height="32"
       class="nonterminal"
       id="rect25" />
    <text
       class="nonterminal"
       x="485"
       y="139"
       id="text25">double</text>
  </a>
  <rect
     x="559"
     y="121"
     width="26"
     height="32"
     rx="10"
     id="rect26" />
  <rect
     x="557"
     y="119"
     width="26"
     height="32"
     class="terminal"
     rx="10"
     id="rect27" />
  <text
     class="terminal"
     x="567"
     y="139"
     id="text27">)</text>
  <path
     class="line"
     d="m17 17 h2 m0 0 h10 m72 0 h10 m0 0 h10 m72 0 h10 m20 0 h10 m0 0 h202 m-232 0 h20 m212 0 h20 m-252 0 q10 0 10 10 m232 0 q0 -10 10 -10 m-242 10 v12 m232 0 v-12 m-232 12 q0 10 10 10 m212 0 q10 0 10 -10 m-222 10 h10 m34 0 h10 m0 0 h10 m48 0 h10 m0 0 h10 m70 0 h10 m20 -32 h10 m58 0 h10 m0 0 h10 m66 0 h10 m2 0 l2 0 m2 0 l2 0 m2 0 l2 0 m-492 86 l2 0 m2 0 l2 0 m2 0 l2 0 m22 0 h10 m0 0 h412 m-442 0 h20 m422 0 h20 m-462 0 q10 0 10 10 m442 0 q0 -10 10 -10 m-452 10 v12 m442 0 v-12 m-442 12 q0 10 10 10 m422 0 q10 0 10 -10 m-432 10 h10 m76 0 h10 m0 0 h10 m26 0 h10 m0 0 h10 m82 0 h10 m0 0 h10 m30 0 h10 m0 0 h10 m62 0 h10 m0 0 h10 m26 0 h10 m23 -32 h-3"
     id="path27" />
  <polygon
     points="623 103 631 99 631 107"
     id="polygon27" />
  <polygon
     points="623 103 615 99 615 107"
     id="polygon28" />
</svg>
