<?xml version="1.0" encoding="UTF-8"?>
<svg xmlns="http://www.w3.org/2000/svg" width="805" height="627" viewBox="0 0 805 627">
   <defs>
      <style type="text/css">
    @namespace "http://www.w3.org/2000/svg";
    .line                 {fill: none; stroke: #330000; stroke-width: 1;}
    .bold-line            {stroke: #140000; shape-rendering: crispEdges; stroke-width: 2;}
    .thin-line            {stroke: #1F0000; shape-rendering: crispEdges}
    .filled               {fill: #330000; stroke: none;}
    text.terminal         {font-family: Verdana, Sans-serif;
                            font-size: 12px;
                            fill: #140000;
                            font-weight: bold;
                          }
    text.nonterminal      {font-family: Verdana, Sans-serif;
                            font-size: 12px;
                            fill: #1A0000;
                            font-weight: normal;
                          }
    text.regexp           {font-family: Verdana, Sans-serif;
                            font-size: 12px;
                            fill: #1F0000;
                            font-weight: normal;
                          }
    rect, circle, polygon {fill: #330000; stroke: #330000;}
    rect.terminal         {fill: #FF4D4D; stroke: #330000; stroke-width: 1;}
    rect.nonterminal      {fill: #FF9E9E; stroke: #330000; stroke-width: 1;}
    rect.text             {fill: none; stroke: none;}
    polygon.regexp        {fill: #FFC7C7; stroke: #330000; stroke-width: 1;}
  </style>
   </defs>
   <polygon points="11 17 3 13 3 21"/>
   <polygon points="19 17 11 13 11 21"/>
   <rect x="33" y="3" width="72" height="32" rx="10"/>
   <rect x="31"
         y="1"
         width="72"
         height="32"
         class="terminal"
         rx="10"/>
   <text class="terminal" x="41" y="21">CREATE</text>
   <rect x="125" y="3" width="62" height="32" rx="10"/>
   <rect x="123"
         y="1"
         width="62"
         height="32"
         class="terminal"
         rx="10"/>
   <text class="terminal" x="133" y="21">TABLE</text>
   <a xmlns:xlink="http://www.w3.org/1999/xlink"
      xlink:href="../object"
      xlink:title="table">
      <rect x="207" y="3" width="52" height="32"/>
      <rect x="205" y="1" width="52" height="32" class="nonterminal"/>
      <text class="nonterminal" x="215" y="21">table</text>
   </a>
   <rect x="279" y="3" width="26" height="32" rx="10"/>
   <rect x="277"
         y="1"
         width="26"
         height="32"
         class="terminal"
         rx="10"/>
   <text class="terminal" x="287" y="21">(</text>
   <a xmlns:xlink="http://www.w3.org/1999/xlink"
      xlink:href="../object"
      xlink:title="column">
      <rect x="162" y="113" width="64" height="32"/>
      <rect x="160" y="111" width="64" height="32" class="nonterminal"/>
      <text class="nonterminal" x="170" y="131">column</text>
   </a>
   <a xmlns:xlink="http://www.w3.org/1999/xlink"
      xlink:href="#type"
      xlink:title="type">
      <rect x="246" y="113" width="48" height="32"/>
      <rect x="244" y="111" width="48" height="32" class="nonterminal"/>
      <text class="nonterminal" x="254" y="131">type</text>
   </a>
   <rect x="354" y="177" width="48" height="32" rx="10"/>
   <rect x="352"
         y="175"
         width="48"
         height="32"
         class="terminal"
         rx="10"/>
   <text class="terminal" x="362" y="195">NOT</text>
   <rect x="442" y="145" width="56" height="32" rx="10"/>
   <rect x="440"
         y="143"
         width="56"
         height="32"
         class="terminal"
         rx="10"/>
   <text class="terminal" x="450" y="163">NULL</text>
   <rect x="334" y="221" width="48" height="32" rx="10"/>
   <rect x="332"
         y="219"
         width="48"
         height="32"
         class="terminal"
         rx="10"/>
   <text class="terminal" x="342" y="239">NOT</text>
   <rect x="402" y="221" width="56" height="32" rx="10"/>
   <rect x="400"
         y="219"
         width="56"
         height="32"
         class="terminal"
         rx="10"/>
   <text class="terminal" x="410" y="239">NULL</text>
   <rect x="478" y="221" width="84" height="32" rx="10"/>
   <rect x="476"
         y="219"
         width="84"
         height="32"
         class="terminal"
         rx="10"/>
   <text class="terminal" x="486" y="239">PRIMARY</text>
   <rect x="582" y="221" width="46" height="32" rx="10"/>
   <rect x="580"
         y="219"
         width="46"
         height="32"
         class="terminal"
         rx="10"/>
   <text class="terminal" x="590" y="239">KEY</text>
   <rect x="162" y="69" width="24" height="32" rx="10"/>
   <rect x="160"
         y="67"
         width="24"
         height="32"
         class="terminal"
         rx="10"/>
   <text class="terminal" x="170" y="87">,</text>
   <rect x="51" y="331" width="24" height="32" rx="10"/>
   <rect x="49"
         y="329"
         width="24"
         height="32"
         class="terminal"
         rx="10"/>
   <text class="terminal" x="59" y="349">,</text>
   <rect x="95" y="331" width="84" height="32" rx="10"/>
   <rect x="93"
         y="329"
         width="84"
         height="32"
         class="terminal"
         rx="10"/>
   <text class="terminal" x="103" y="349">PRIMARY</text>
   <rect x="199" y="331" width="46" height="32" rx="10"/>
   <rect x="197"
         y="329"
         width="46"
         height="32"
         class="terminal"
         rx="10"/>
   <text class="terminal" x="207" y="349">KEY</text>
   <rect x="265" y="331" width="26" height="32" rx="10"/>
   <rect x="263"
         y="329"
         width="26"
         height="32"
         class="terminal"
         rx="10"/>
   <text class="terminal" x="273" y="349">(</text>
   <a xmlns:xlink="http://www.w3.org/1999/xlink"
      xlink:href="../object"
      xlink:title="column">
      <rect x="331" y="331" width="64" height="32"/>
      <rect x="329" y="329" width="64" height="32" class="nonterminal"/>
      <text class="nonterminal" x="339" y="349">column</text>
   </a>
   <rect x="331" y="287" width="24" height="32" rx="10"/>
   <rect x="329"
         y="285"
         width="24"
         height="32"
         class="terminal"
         rx="10"/>
   <text class="terminal" x="339" y="305">,</text>
   <rect x="435" y="331" width="26" height="32" rx="10"/>
   <rect x="433"
         y="329"
         width="26"
         height="32"
         class="terminal"
         rx="10"/>
   <text class="terminal" x="443" y="349">)</text>
   <rect x="501" y="331" width="26" height="32" rx="10"/>
   <rect x="499"
         y="329"
         width="26"
         height="32"
         class="terminal"
         rx="10"/>
   <text class="terminal" x="509" y="349">)</text>
   <rect x="567" y="363" width="64" height="32" rx="10"/>
   <rect x="565"
         y="361"
         width="64"
         height="32"
         class="terminal"
         rx="10"/>
   <text class="terminal" x="575" y="381">USING</text>
   <rect x="671" y="363" width="68" height="32" rx="10"/>
   <rect x="669"
         y="361"
         width="68"
         height="32"
         class="terminal"
         rx="10"/>
   <text class="terminal" x="679" y="381">MEMTX</text>
   <rect x="671" y="407" width="62" height="32" rx="10"/>
   <rect x="669"
         y="405"
         width="62"
         height="32"
         class="terminal"
         rx="10"/>
   <text class="terminal" x="679" y="425">VINYL</text>
   <rect x="25" y="517" width="114" height="32" rx="10"/>
   <rect x="23"
         y="515"
         width="114"
         height="32"
         class="terminal"
         rx="10"/>
   <text class="terminal" x="33" y="535">DISTRIBUTED</text>
   <rect x="179" y="517" width="38" height="32" rx="10"/>
   <rect x="177"
         y="515"
         width="38"
         height="32"
         class="terminal"
         rx="10"/>
   <text class="terminal" x="187" y="535">BY</text>
   <rect x="237" y="517" width="26" height="32" rx="10"/>
   <rect x="235"
         y="515"
         width="26"
         height="32"
         class="terminal"
         rx="10"/>
   <text class="terminal" x="245" y="535">(</text>
   <a xmlns:xlink="http://www.w3.org/1999/xlink"
      xlink:href="../object"
      xlink:title="column">
      <rect x="303" y="517" width="64" height="32"/>
      <rect x="301" y="515" width="64" height="32" class="nonterminal"/>
      <text class="nonterminal" x="311" y="535">column</text>
   </a>
   <rect x="303" y="473" width="24" height="32" rx="10"/>
   <rect x="301"
         y="471"
         width="24"
         height="32"
         class="terminal"
         rx="10"/>
   <text class="terminal" x="311" y="491">,</text>
   <rect x="407" y="517" width="26" height="32" rx="10"/>
   <rect x="405"
         y="515"
         width="26"
         height="32"
         class="terminal"
         rx="10"/>
   <text class="terminal" x="415" y="535">)</text>
   <rect x="473" y="549" width="40" height="32" rx="10"/>
   <rect x="471"
         y="547"
         width="40"
         height="32"
         class="terminal"
         rx="10"/>
   <text class="terminal" x="481" y="567">ON</text>
   <rect x="533" y="549" width="52" height="32" rx="10"/>
   <rect x="531"
         y="547"
         width="52"
         height="32"
         class="terminal"
         rx="10"/>
   <text class="terminal" x="541" y="567">TIER</text>
   <rect x="605" y="549" width="26" height="32" rx="10"/>
   <rect x="603"
         y="547"
         width="26"
         height="32"
         class="terminal"
         rx="10"/>
   <text class="terminal" x="613" y="567">(</text>
   <a xmlns:xlink="http://www.w3.org/1999/xlink"
      xlink:href="../object"
      xlink:title="tier">
      <rect x="651" y="549" width="40" height="32"/>
      <rect x="649" y="547" width="40" height="32" class="nonterminal"/>
      <text class="nonterminal" x="659" y="567">tier</text>
   </a>
   <rect x="711" y="549" width="26" height="32" rx="10"/>
   <rect x="709"
         y="547"
         width="26"
         height="32"
         class="terminal"
         rx="10"/>
   <text class="terminal" x="719" y="567">)</text>
   <rect x="179" y="593" width="92" height="32" rx="10"/>
   <rect x="177"
         y="591"
         width="92"
         height="32"
         class="terminal"
         rx="10"/>
   <text class="terminal" x="187" y="611">GLOBALLY</text>
   <path class="line"
         d="m19 17 h2 m0 0 h10 m72 0 h10 m0 0 h10 m62 0 h10 m0 0 h10 m52 0 h10 m0 0 h10 m26 0 h10 m2 0 l2 0 m2 0 l2 0 m2 0 l2 0 m-207 110 l2 0 m2 0 l2 0 m2 0 l2 0 m22 0 h10 m64 0 h10 m0 0 h10 m48 0 h10 m20 0 h10 m0 0 h304 m-334 0 h20 m314 0 h20 m-354 0 q10 0 10 10 m334 0 q0 -10 10 -10 m-344 10 v12 m334 0 v-12 m-334 12 q0 10 10 10 m314 0 q10 0 10 -10 m-304 10 h10 m0 0 h58 m-88 0 h20 m68 0 h20 m-108 0 q10 0 10 10 m88 0 q0 -10 10 -10 m-98 10 v12 m88 0 v-12 m-88 12 q0 10 10 10 m68 0 q10 0 10 -10 m-78 10 h10 m48 0 h10 m20 -32 h10 m56 0 h10 m0 0 h130 m-324 -10 v20 m334 0 v-20 m-334 20 v56 m334 0 v-56 m-334 56 q0 10 10 10 m314 0 q10 0 10 -10 m-324 10 h10 m48 0 h10 m0 0 h10 m56 0 h10 m0 0 h10 m84 0 h10 m0 0 h10 m46 0 h10 m-506 -108 l20 0 m-1 0 q-9 0 -9 -10 l0 -24 q0 -10 10 -10 m506 44 l20 0 m-20 0 q10 0 10 -10 l0 -24 q0 -10 -10 -10 m-506 0 h10 m24 0 h10 m0 0 h462 m22 44 l2 0 m2 0 l2 0 m2 0 l2 0 m-681 218 l2 0 m2 0 l2 0 m2 0 l2 0 m22 0 h10 m24 0 h10 m0 0 h10 m84 0 h10 m0 0 h10 m46 0 h10 m0 0 h10 m26 0 h10 m20 0 h10 m64 0 h10 m-104 0 l20 0 m-1 0 q-9 0 -9 -10 l0 -24 q0 -10 10 -10 m84 44 l20 0 m-20 0 q10 0 10 -10 l0 -24 q0 -10 -10 -10 m-84 0 h10 m24 0 h10 m0 0 h40 m20 44 h10 m26 0 h10 m-450 0 h20 m430 0 h20 m-470 0 q10 0 10 10 m450 0 q0 -10 10 -10 m-460 10 v14 m450 0 v-14 m-450 14 q0 10 10 10 m430 0 q10 0 10 -10 m-440 10 h10 m0 0 h420 m20 -34 h10 m26 0 h10 m20 0 h10 m0 0 h202 m-232 0 h20 m212 0 h20 m-252 0 q10 0 10 10 m232 0 q0 -10 10 -10 m-242 10 v12 m232 0 v-12 m-232 12 q0 10 10 10 m212 0 q10 0 10 -10 m-222 10 h10 m64 0 h10 m20 0 h10 m68 0 h10 m-108 0 h20 m88 0 h20 m-128 0 q10 0 10 10 m108 0 q0 -10 10 -10 m-118 10 v24 m108 0 v-24 m-108 24 q0 10 10 10 m88 0 q10 0 10 -10 m-98 10 h10 m62 0 h10 m0 0 h6 m42 -76 l2 0 m2 0 l2 0 m2 0 l2 0 m-798 186 l2 0 m2 0 l2 0 m2 0 l2 0 m2 0 h10 m114 0 h10 m20 0 h10 m38 0 h10 m0 0 h10 m26 0 h10 m20 0 h10 m64 0 h10 m-104 0 l20 0 m-1 0 q-9 0 -9 -10 l0 -24 q0 -10 10 -10 m84 44 l20 0 m-20 0 q10 0 10 -10 l0 -24 q0 -10 -10 -10 m-84 0 h10 m24 0 h10 m0 0 h40 m20 44 h10 m26 0 h10 m20 0 h10 m0 0 h274 m-304 0 h20 m284 0 h20 m-324 0 q10 0 10 10 m304 0 q0 -10 10 -10 m-314 10 v12 m304 0 v-12 m-304 12 q0 10 10 10 m284 0 q10 0 10 -10 m-294 10 h10 m40 0 h10 m0 0 h10 m52 0 h10 m0 0 h10 m26 0 h10 m0 0 h10 m40 0 h10 m0 0 h10 m26 0 h10 m-598 -32 h20 m598 0 h20 m-638 0 q10 0 10 10 m618 0 q0 -10 10 -10 m-628 10 v56 m618 0 v-56 m-618 56 q0 10 10 10 m598 0 q10 0 10 -10 m-608 10 h10 m92 0 h10 m0 0 h486 m23 -76 h-3"/>
   <polygon points="795 531 803 527 803 535"/>
   <polygon points="795 531 787 527 787 535"/>
</svg>
