<?xml version="1.0" encoding="UTF-8" standalone="no"?>
<svg
   width="231"
   height="125"
   viewBox="0 0 231 125"
   version="1.1"
   id="svg8"
   sodipodi:docname="ddl.svg"
   inkscape:version="1.3.2 (091e20ef0f, 2023-11-25)"
   xmlns:inkscape="http://www.inkscape.org/namespaces/inkscape"
   xmlns:sodipodi="http://sodipodi.sourceforge.net/DTD/sodipodi-0.dtd"
   xmlns:xlink="http://www.w3.org/1999/xlink"
   xmlns="http://www.w3.org/2000/svg"
   xmlns:svg="http://www.w3.org/2000/svg">
  <sodipodi:namedview
     id="namedview8"
     pagecolor="#ffffff"
     bordercolor="#666666"
     borderopacity="1.0"
     inkscape:showpageshadow="2"
     inkscape:pageopacity="0.0"
     inkscape:pagecheckerboard="0"
     inkscape:deskcolor="#d1d1d1"
     inkscape:zoom="2.8181818"
     inkscape:cx="115.5"
     inkscape:cy="62.629032"
     inkscape:window-width="1854"
     inkscape:window-height="1011"
     inkscape:window-x="66"
     inkscape:window-y="32"
     inkscape:window-maximized="1"
     inkscape:current-layer="svg8" />
  <defs
     id="defs1">
    <style
       type="text/css"
       id="style1">@namespace &quot;http://www.w3.org/2000/svg&quot;;.line { fill: none; stroke: #330000; stroke-width: 1; }
.bold-line { stroke: #140000; shape-rendering: crispEdges; stroke-width: 2; }
.thin-line { stroke: #1F0000; shape-rendering: crispEdges }
.filled { fill: #330000; stroke: none; }
text.terminal { font-family: HelveticaNeueCyr, Sans-serif;                            font-size: 14px;                            fill: #140000;                            font-weight: bold; }
text.nonterminal { font-family: HelveticaNeueCyr, Sans-serif;                            font-size: 14px;                            fill: #1A0000;                            font-weight: normal; }
text.regexp { font-family: HelveticaNeueCyr, Sans-serif;                            font-size: 14px;                            fill: #1F0000;                            font-weight: normal; }
rect, circle, polygon { fill: #330000; stroke: #330000; }
rect.terminal { fill: #FF4D4D; stroke: #330000; stroke-width: 1; }
rect.nonterminal { fill: #FF9E9E; stroke: #330000; stroke-width: 1; }
rect.text { fill: none; stroke: none; }
polygon.regexp { fill: #FFC7C7; stroke: #330000; stroke-width: 1; }
</style>
  </defs>
  <path
     id="polygon1"
     style="fill:#330000;stroke:#330000"
     d="M 9,17 1,13 v 8 z" />
  <path
     id="polygon2"
     style="fill:#330000;stroke:#330000"
     d="M 17,17 9,13 v 8 z" />
  <a
     xlink:href="#create_table"
     xlink:title="create_table"
     id="a3">
    <path
       id="rect2"
       style="fill:#330000;stroke:#330000"
       d="M 51,3 H 151 V 35 H 51 Z" />
    <path
       id="rect3"
       class="nonterminal"
       style="fill:#ff9e9e;stroke:#330000"
       d="M 49,1 H 149 V 33 H 49 Z" />
    <path
       d="m 66.112,18.368 q -0.154,1.302 -0.994,2.072 -0.826,0.77 -2.156,0.77 -1.638,0 -2.534,-1.008 -0.896,-1.022 -0.896,-2.716 0,-1.806 0.938,-2.856 0.938,-1.064 2.534,-1.064 1.33,0 2.128,0.672 0.798,0.658 0.938,1.89 h -1.232 q -0.322,-1.568 -1.82,-1.568 -1.036,0 -1.638,0.77 -0.602,0.756 -0.602,2.058 0,1.316 0.574,2.072 0.574,0.756 1.582,0.756 0.812,0 1.316,-0.476 0.518,-0.476 0.658,-1.372 z m 5.068009,-4.76 v 1.232 q -0.126,-0.014 -0.308,-0.014 -0.574,0 -0.994,0.182 -0.42,0.168 -0.672,0.448 -0.238,0.28 -0.392,0.7 -0.154,0.42 -0.21,0.84 -0.042,0.42 -0.042,0.952 V 21 h -1.19 v -7.224 h 1.134 v 1.554 q 0.714,-1.722 2.674,-1.722 z m 6.818008,5.11 q -0.546,2.52 -3.15,2.52 -1.596,0 -2.506,-0.994 -0.896,-0.994 -0.896,-2.758 0,-1.75 0.924,-2.828 0.938,-1.092 2.436,-1.092 1.666,0 2.464,1.134 0.812,1.12 0.812,2.842 v 0.168 h -5.432 l -0.014,0.084 q 0,1.148 0.602,1.806 0.602,0.658 1.652,0.658 0.784,0 1.232,-0.364 0.462,-0.364 0.714,-1.176 z m -1.148,-1.974 q -0.084,-1.036 -0.63,-1.61 -0.546,-0.588 -1.442,-0.588 -0.868,0 -1.442,0.588 -0.574,0.588 -0.686,1.61 z m 8.890009,3.304 v 0.924 q -0.364,0.14 -0.812,0.14 -1.022,0 -1.05,-1.064 -1.022,1.148 -2.618,1.148 -1.064,0 -1.694,-0.546 -0.616,-0.546 -0.616,-1.498 0,-1.932 2.562,-2.254 1.512,-0.182 1.75,-0.266 0.504,-0.168 0.546,-0.7 0.014,-0.084 0.014,-0.182 0,-1.19 -1.638,-1.19 -0.84,0 -1.274,0.35 -0.434,0.336 -0.518,1.12 h -1.162 q 0.028,-1.162 0.826,-1.806 0.798,-0.644 2.198,-0.644 1.526,0 2.268,0.7 0.238,0.224 0.35,0.588 0.112,0.364 0.126,0.602 0.014,0.224 0.014,0.686 0,0.546 -0.028,1.624 -0.028,1.064 -0.028,1.596 0,0.392 0.098,0.56 0.112,0.154 0.392,0.154 0.112,0 0.294,-0.042 z m -1.918,-2.8 q -0.126,0.098 -0.266,0.168 -0.14,0.07 -0.364,0.112 -0.21,0.042 -0.294,0.07 -0.07,0.014 -0.364,0.056 -0.294,0.028 -0.308,0.028 -0.434,0.056 -0.574,0.084 -0.126,0.014 -0.504,0.112 -0.364,0.098 -0.518,0.224 -0.154,0.126 -0.308,0.378 -0.14,0.238 -0.14,0.574 0,0.56 0.378,0.882 0.392,0.322 1.064,0.322 0.854,0 1.526,-0.504 0.672,-0.504 0.672,-1.19 z m 6.132009,-3.472 v 0.98 h -1.442 v 4.214 q 0,0.35 0,0.462 0.014,0.112 0.084,0.308 0.07,0.182 0.238,0.238 0.168,0.056 0.476,0.056 0.266,0 0.644,-0.042 v 1.022 q -0.504,0.056 -0.91,0.056 -0.504,0 -0.84,-0.112 -0.336,-0.112 -0.518,-0.252 -0.168,-0.14 -0.252,-0.49 -0.084,-0.364 -0.098,-0.602 -0.014,-0.252 -0.014,-0.826 0,-0.126 0,-0.196 v -3.836 h -1.218 v -0.98 h 1.218 v -2.142 h 1.19 v 2.142 z m 7.490008,4.942 q -0.546,2.52 -3.15,2.52 -1.596,0 -2.506,-0.994 -0.896,-0.994 -0.896,-2.758 0,-1.75 0.924,-2.828 0.938,-1.092 2.436,-1.092 1.666,0 2.464,1.134 0.812,1.12 0.812,2.842 v 0.168 h -5.432 l -0.014,0.084 q 0,1.148 0.602,1.806 0.602,0.658 1.652,0.658 0.784,0 1.232,-0.364 0.462,-0.364 0.714,-1.176 z m -1.148,-1.974 q -0.084,-1.036 -0.63,-1.61 -0.546,-0.588 -1.442,-0.588 -0.868,0 -1.442,0.588 -0.574,0.588 -0.686,1.61 z m 1.596009,6.006 v -0.7 h 6.999998 v 0.7 z m 10.989998,-8.974 v 0.98 h -1.442 v 4.214 q 0,0.35 0,0.462 0.014,0.112 0.084,0.308 0.07,0.182 0.238,0.238 0.168,0.056 0.476,0.056 0.266,0 0.644,-0.042 v 1.022 q -0.504,0.056 -0.91,0.056 -0.504,0 -0.84,-0.112 -0.336,-0.112 -0.518,-0.252 -0.168,-0.14 -0.252,-0.49 -0.084,-0.364 -0.098,-0.602 -0.014,-0.252 -0.014,-0.826 0,-0.126 0,-0.196 v -3.836 h -1.218 v -0.98 h 1.218 v -2.142 h 1.19 v 2.142 z m 7.71401,6.272 v 0.924 q -0.364,0.14 -0.812,0.14 -1.022,0 -1.05,-1.064 -1.022,1.148 -2.618,1.148 -1.064,0 -1.694,-0.546 -0.616,-0.546 -0.616,-1.498 0,-1.932 2.562,-2.254 1.512,-0.182 1.75,-0.266 0.504,-0.168 0.546,-0.7 0.014,-0.084 0.014,-0.182 0,-1.19 -1.638,-1.19 -0.84,0 -1.274,0.35 -0.434,0.336 -0.518,1.12 h -1.162 q 0.028,-1.162 0.826,-1.806 0.798,-0.644 2.198,-0.644 1.526,0 2.268,0.7 0.238,0.224 0.35,0.588 0.112,0.364 0.126,0.602 0.014,0.224 0.014,0.686 0,0.546 -0.028,1.624 -0.028,1.064 -0.028,1.596 0,0.392 0.098,0.56 0.112,0.154 0.392,0.154 0.112,0 0.294,-0.042 z m -1.918,-2.8 q -0.126,0.098 -0.266,0.168 -0.14,0.07 -0.364,0.112 -0.21,0.042 -0.294,0.07 -0.07,0.014 -0.364,0.056 -0.294,0.028 -0.308,0.028 -0.434,0.056 -0.574,0.084 -0.126,0.014 -0.504,0.112 -0.364,0.098 -0.518,0.224 -0.154,0.126 -0.308,0.378 -0.14,0.238 -0.14,0.574 0,0.56 0.378,0.882 0.392,0.322 1.064,0.322 0.854,0 1.526,-0.504 0.672,-0.504 0.672,-1.19 z m 4.21401,-6.216 v 3.738 q 0.784,-1.19 2.394,-1.19 1.484,0 2.366,1.036 0.896,1.022 0.896,2.744 0,1.75 -0.91,2.8 -0.91,1.05 -2.422,1.05 -1.722,0 -2.394,-1.26 V 21 h -1.12 v -9.968 z m 2.212,3.556 q -1.148,0 -1.708,0.826 -0.546,0.826 -0.546,2.03 0,1.274 0.602,2.03 0.616,0.742 1.652,0.742 0.994,0 1.596,-0.77 0.616,-0.784 0.616,-2.072 0,-1.274 -0.602,-2.03 -0.602,-0.756 -1.61,-0.756 z m 6.174,-3.556 V 21 h -1.204 v -9.968 z m 8.022,7.686 q -0.546,2.52 -3.15,2.52 -1.596,0 -2.506,-0.994 -0.896,-0.994 -0.896,-2.758 0,-1.75 0.924,-2.828 0.938,-1.092 2.436,-1.092 1.666,0 2.464,1.134 0.812,1.12 0.812,2.842 v 0.168 h -5.432 l -0.014,0.084 q 0,1.148 0.602,1.806 0.602,0.658 1.652,0.658 0.784,0 1.232,-0.364 0.462,-0.364 0.714,-1.176 z m -1.148,-1.974 q -0.084,-1.036 -0.63,-1.61 -0.546,-0.588 -1.442,-0.588 -0.868,0 -1.442,0.588 -0.574,0.588 -0.686,1.61 z"
       id="text3"
       class="nonterminal"
       style="font-size:14px;font-family:HelveticaNeueCyr, Sans-serif;fill:#1a0000"
       aria-label="create_table" />
  </a>
  <a
     xlink:href="#drop_table"
     xlink:title="drop_table"
     id="a5">
    <path
       id="rect4"
       style="fill:#330000;stroke:#330000"
       d="m 51,47 h 88 V 79 H 51 Z" />
    <path
       id="rect5"
       class="nonterminal"
       style="fill:#ff9e9e;stroke:#330000"
       d="m 49,45 h 88 V 77 H 49 Z" />
    <path
       d="M 66.406,55.032 V 65 h -1.12 v -1.064 q -0.686,1.26 -2.38,1.26 -1.54,0 -2.45,-1.022 -0.896,-1.036 -0.896,-2.8 0,-1.638 0.84,-2.716 0.854,-1.092 2.45,-1.092 1.554,0 2.366,1.176 v -3.71 z m -3.402,3.556 q -1.022,0 -1.624,0.742 -0.588,0.742 -0.588,2.016 0,1.316 0.602,2.1 0.616,0.77 1.638,0.77 1.036,0 1.624,-0.742 0.588,-0.756 0.588,-2.086 0,-1.19 -0.56,-1.988 -0.546,-0.812 -1.68,-0.812 z m 8.960006,-0.98 v 1.232 q -0.126,-0.014 -0.308,-0.014 -0.574,0 -0.994,0.182 -0.42,0.168 -0.672,0.448 -0.238,0.28 -0.392,0.7 -0.154,0.42 -0.21,0.84 -0.042,0.42 -0.042,0.952 V 65 h -1.19 v -7.224 h 1.134 v 1.554 q 0.714,-1.722 2.674,-1.722 z m 1.218007,0.994 q 0.952,-1.036 2.59,-1.036 1.638,0 2.548,0.994 0.91,0.994 0.91,2.786 0,1.834 -0.91,2.856 -0.91,1.022 -2.562,1.022 -1.652,0 -2.59,-1.008 -0.938,-1.008 -0.938,-2.8 0,-1.778 0.952,-2.814 z m 4.214,0.728 q -0.602,-0.77 -1.652,-0.77 -1.05,0 -1.666,0.77 -0.616,0.77 -0.616,2.058 0,1.33 0.602,2.086 0.616,0.742 1.708,0.742 1.05,0 1.638,-0.756 0.602,-0.756 0.602,-2.086 0,-1.288 -0.616,-2.044 z m 4.367992,-1.554 v 1.022 q 0.784,-1.246 2.436,-1.246 1.512,0 2.394,1.022 0.896,1.022 0.896,2.772 0,1.75 -0.882,2.8 -0.868,1.036 -2.352,1.036 -1.554,0 -2.422,-1.19 v 3.794 h -1.19 v -10.01 z m 2.254,0.77 q -1.036,0 -1.638,0.756 -0.588,0.742 -0.588,2.058 0,1.316 0.602,2.072 0.616,0.742 1.666,0.742 1.022,0 1.61,-0.756 0.588,-0.756 0.588,-2.058 0,-1.316 -0.602,-2.058 -0.588,-0.756 -1.638,-0.756 z m 4.032006,8.204 v -0.7 h 7 v 0.7 z m 10.99,-8.974 v 0.98 h -1.442 v 4.214 q 0,0.35 0,0.462 0.014,0.112 0.084,0.308 0.07,0.182 0.238,0.238 0.168,0.056 0.476,0.056 0.266,0 0.644,-0.042 v 1.022 q -0.504,0.056 -0.91,0.056 -0.504,0 -0.84,-0.112 -0.336,-0.112 -0.518,-0.252 -0.168,-0.14 -0.252,-0.49 -0.084,-0.364 -0.098,-0.602 -0.014,-0.252 -0.014,-0.826 0,-0.126 0,-0.196 v -3.836 h -1.218 v -0.98 h 1.218 v -2.142 h 1.19 v 2.142 z m 7.714009,6.272 v 0.924 q -0.364,0.14 -0.812,0.14 -1.022,0 -1.05,-1.064 -1.022,1.148 -2.618,1.148 -1.064,0 -1.694,-0.546 -0.616002,-0.546 -0.616002,-1.498 0,-1.932 2.562002,-2.254 1.512,-0.182 1.75,-0.266 0.504,-0.168 0.546,-0.7 0.014,-0.084 0.014,-0.182 0,-1.19 -1.638,-1.19 -0.84,0 -1.274,0.35 -0.434,0.336 -0.518,1.12 h -1.162 q 0.028,-1.162 0.826,-1.806 0.798,-0.644 2.198,-0.644 1.526,0 2.268,0.7 0.238,0.224 0.35,0.588 0.112,0.364 0.126,0.602 0.014,0.224 0.014,0.686 0,0.546 -0.028,1.624 -0.028,1.064 -0.028,1.596 0,0.392 0.098,0.56 0.112,0.154 0.392,0.154 0.112,0 0.294,-0.042 z m -1.918,-2.8 q -0.126,0.098 -0.266,0.168 -0.14,0.07 -0.364,0.112 -0.21,0.042 -0.294,0.07 -0.07,0.014 -0.364,0.056 -0.294,0.028 -0.308,0.028 -0.434,0.056 -0.574,0.084 -0.126,0.014 -0.504,0.112 -0.364,0.098 -0.518,0.224 -0.154,0.126 -0.308,0.378 -0.14,0.238 -0.14,0.574 0,0.56 0.378,0.882 0.392,0.322 1.064,0.322 0.854,0 1.526,-0.504 0.672,-0.504 0.672,-1.19 z m 4.21401,-6.216 v 3.738 q 0.784,-1.19 2.394,-1.19 1.484,0 2.366,1.036 0.896,1.022 0.896,2.744 0,1.75 -0.91,2.8 -0.91,1.05 -2.422,1.05 -1.722,0 -2.394,-1.26 V 65 h -1.12 v -9.968 z m 2.212,3.556 q -1.148,0 -1.708,0.826 -0.546,0.826 -0.546,2.03 0,1.274 0.602,2.03 0.616,0.742 1.652,0.742 0.994,0 1.596,-0.77 0.616,-0.784 0.616,-2.072 0,-1.274 -0.602,-2.03 -0.602,-0.756 -1.61,-0.756 z m 6.174,-3.556 V 65 h -1.204 v -9.968 z m 8.022,7.686 q -0.546,2.52 -3.15,2.52 -1.596,0 -2.506,-0.994 -0.896,-0.994 -0.896,-2.758 0,-1.75 0.924,-2.828 0.938,-1.092 2.436,-1.092 1.666,0 2.464,1.134 0.812,1.12 0.812,2.842 v 0.168 h -5.432 l -0.014,0.084 q 0,1.148 0.602,1.806 0.602,0.658 1.652,0.658 0.784,0 1.232,-0.364 0.462,-0.364 0.714,-1.176 z m -1.148,-1.974 q -0.084,-1.036 -0.63,-1.61 -0.546,-0.588 -1.442,-0.588 -0.868,0 -1.442,0.588 -0.574,0.588 -0.686,1.61 z"
       id="text5"
       class="nonterminal"
       style="font-size:14px;font-family:HelveticaNeueCyr, Sans-serif;fill:#1a0000"
       aria-label="drop_table" />
  </a>
  <a
     xlink:href="#create_procedure"
     xlink:title="create_procedure"
     id="a7">
    <path
       id="rect6"
       style="fill:#330000;stroke:#330000"
       d="m 51,91 h 132 v 32 H 51 Z" />
    <path
       id="rect7"
       class="nonterminal"
       style="fill:#ff9e9e;stroke:#330000"
       d="m 49,89 h 132 v 32 H 49 Z" />
    <path
       d="m 66.112,106.368 q -0.154,1.302 -0.994,2.072 -0.826,0.77 -2.156,0.77 -1.638,0 -2.534,-1.008 -0.896,-1.022 -0.896,-2.716 0,-1.806 0.938,-2.856 0.938,-1.064 2.534,-1.064 1.33,0 2.128,0.672 0.798,0.658 0.938,1.89 h -1.232 q -0.322,-1.568 -1.82,-1.568 -1.036,0 -1.638,0.77 -0.602,0.756 -0.602,2.058 0,1.316 0.574,2.072 0.574,0.756 1.582,0.756 0.812,0 1.316,-0.476 0.518,-0.476 0.658,-1.372 z m 5.068009,-4.76 v 1.232 q -0.126,-0.014 -0.308,-0.014 -0.574,0 -0.994,0.182 -0.42,0.168 -0.672,0.448 -0.238,0.28 -0.392,0.7 -0.154,0.42 -0.21,0.84 -0.042,0.42 -0.042,0.952 V 109 h -1.19 v -7.224 h 1.134 v 1.554 q 0.714,-1.722 2.674,-1.722 z m 6.818008,5.11 q -0.546,2.52 -3.15,2.52 -1.596,0 -2.506,-0.994 -0.896,-0.994 -0.896,-2.758 0,-1.75 0.924,-2.828 0.938,-1.092 2.436,-1.092 1.666,0 2.464,1.134 0.812,1.12 0.812,2.842 v 0.168 h -5.432 l -0.014,0.084 q 0,1.148 0.602,1.806 0.602,0.658 1.652,0.658 0.784,0 1.232,-0.364 0.462,-0.364 0.714,-1.176 z m -1.148,-1.974 q -0.084,-1.036 -0.63,-1.61 -0.546,-0.588 -1.442,-0.588 -0.868,0 -1.442,0.588 -0.574,0.588 -0.686,1.61 z m 8.890009,3.304 v 0.924 q -0.364,0.14 -0.812,0.14 -1.022,0 -1.05,-1.064 -1.022,1.148 -2.618,1.148 -1.064,0 -1.694,-0.546 -0.616,-0.546 -0.616,-1.498 0,-1.932 2.562,-2.254 1.512,-0.182 1.75,-0.266 0.504,-0.168 0.546,-0.7 0.014,-0.084 0.014,-0.182 0,-1.19 -1.638,-1.19 -0.84,0 -1.274,0.35 -0.434,0.336 -0.518,1.12 h -1.162 q 0.028,-1.162 0.826,-1.806 0.798,-0.644 2.198,-0.644 1.526,0 2.268,0.7 0.238,0.224 0.35,0.588 0.112,0.364 0.126,0.602 0.014,0.224 0.014,0.686 0,0.546 -0.028,1.624 -0.028,1.064 -0.028,1.596 0,0.392 0.098,0.56 0.112,0.154 0.392,0.154 0.112,0 0.294,-0.042 z m -1.918,-2.8 q -0.126,0.098 -0.266,0.168 -0.14,0.07 -0.364,0.112 -0.21,0.042 -0.294,0.07 -0.07,0.014 -0.364,0.056 -0.294,0.028 -0.308,0.028 -0.434,0.056 -0.574,0.084 -0.126,0.014 -0.504,0.112 -0.364,0.098 -0.518,0.224 -0.154,0.126 -0.308,0.378 -0.14,0.238 -0.14,0.574 0,0.56 0.378,0.882 0.392,0.322 1.064,0.322 0.854,0 1.526,-0.504 0.672,-0.504 0.672,-1.19 z m 6.132009,-3.472 v 0.98 h -1.442 v 4.214 q 0,0.35 0,0.462 0.014,0.112 0.084,0.308 0.07,0.182 0.238,0.238 0.168,0.056 0.476,0.056 0.266,0 0.644,-0.042 v 1.022 q -0.504,0.056 -0.91,0.056 -0.504,0 -0.84,-0.112 -0.336,-0.112 -0.518,-0.252 -0.168,-0.14 -0.252,-0.49 -0.084,-0.364 -0.098,-0.602 -0.014,-0.252 -0.014,-0.826 0,-0.126 0,-0.196 v -3.836 h -1.218 v -0.98 h 1.218 v -2.142 h 1.19 v 2.142 z m 7.490008,4.942 q -0.546,2.52 -3.15,2.52 -1.596,0 -2.506,-0.994 -0.896,-0.994 -0.896,-2.758 0,-1.75 0.924,-2.828 0.938,-1.092 2.436,-1.092 1.666,0 2.464,1.134 0.812,1.12 0.812,2.842 v 0.168 h -5.432 l -0.014,0.084 q 0,1.148 0.602,1.806 0.602,0.658 1.652,0.658 0.784,0 1.232,-0.364 0.462,-0.364 0.714,-1.176 z m -1.148,-1.974 q -0.084,-1.036 -0.63,-1.61 -0.546,-0.588 -1.442,-0.588 -0.868,0 -1.442,0.588 -0.574,0.588 -0.686,1.61 z m 1.596009,6.006 v -0.7 h 6.999998 v 0.7 z m 9.015998,-8.974 v 1.022 q 0.784,-1.246 2.436,-1.246 1.512,0 2.394,1.022 0.896,1.022 0.896,2.772 0,1.75 -0.882,2.8 -0.868,1.036 -2.352,1.036 -1.554,0 -2.422,-1.19 v 3.794 h -1.19 v -10.01 z m 2.254,0.77 q -1.036,0 -1.638,0.756 -0.588,0.742 -0.588,2.058 0,1.316 0.602,2.072 0.616,0.742 1.666,0.742 1.022,0 1.61,-0.756 0.588,-0.756 0.588,-2.058 0,-1.316 -0.602,-2.058 -0.588,-0.756 -1.638,-0.756 z m 8.69401,-0.938 v 1.232 q -0.126,-0.014 -0.308,-0.014 -0.574,0 -0.994,0.182 -0.42,0.168 -0.672,0.448 -0.238,0.28 -0.392,0.7 -0.154,0.42 -0.21,0.84 -0.042,0.42 -0.042,0.952 V 109 h -1.19 v -7.224 h 1.134 v 1.554 q 0.714,-1.722 2.674,-1.722 z m 1.218,0.994 q 0.952,-1.036 2.59,-1.036 1.638,0 2.548,0.994 0.91,0.994 0.91,2.786 0,1.834 -0.91,2.856 -0.91,1.022 -2.562,1.022 -1.652,0 -2.59,-1.008 -0.938,-1.008 -0.938,-2.8 0,-1.778 0.952,-2.814 z m 4.214,0.728 q -0.602,-0.77 -1.652,-0.77 -1.05,0 -1.666,0.77 -0.616,0.77 -0.616,2.058 0,1.33 0.602,2.086 0.616,0.742 1.708,0.742 1.05,0 1.638,-0.756 0.602,-0.756 0.602,-2.086 0,-1.288 -0.616,-2.044 z m 9.464,3.038 q -0.154,1.302 -0.994,2.072 -0.826,0.77 -2.156,0.77 -1.638,0 -2.534,-1.008 -0.896,-1.022 -0.896,-2.716 0,-1.806 0.938,-2.856 0.938,-1.064 2.534,-1.064 1.33,0 2.128,0.672 0.798,0.658 0.938,1.89 h -1.232 q -0.322,-1.568 -1.82,-1.568 -1.036,0 -1.638,0.77 -0.602,0.756 -0.602,2.058 0,1.316 0.574,2.072 0.574,0.756 1.582,0.756 0.812,0 1.316,-0.476 0.518,-0.476 0.658,-1.372 z m 7.47601,0.35 q -0.546,2.52 -3.15,2.52 -1.596,0 -2.506,-0.994 -0.896,-0.994 -0.896,-2.758 0,-1.75 0.924,-2.828 0.938,-1.092 2.436,-1.092 1.666,0 2.464,1.134 0.812,1.12 0.812,2.842 v 0.168 h -5.432 l -0.014,0.084 q 0,1.148 0.602,1.806 0.602,0.658 1.652,0.658 0.784,0 1.232,-0.364 0.462,-0.364 0.714,-1.176 z m -1.148,-1.974 q -0.084,-1.036 -0.63,-1.61 -0.546,-0.588 -1.442,-0.588 -0.868,0 -1.442,0.588 -0.574,0.588 -0.686,1.61 z m 9.002,-5.712 V 109 h -1.12 v -1.064 q -0.686,1.26 -2.38,1.26 -1.54,0 -2.45,-1.022 -0.896,-1.036 -0.896,-2.8 0,-1.638 0.84,-2.716 0.854,-1.092 2.45,-1.092 1.554,0 2.366,1.176 v -3.71 z m -3.402,3.556 q -1.022,0 -1.624,0.742 -0.588,0.742 -0.588,2.016 0,1.316 0.602,2.1 0.616,0.77 1.638,0.77 1.036,0 1.624,-0.742 0.588,-0.756 0.588,-2.086 0,-1.19 -0.56,-1.988 -0.546,-0.812 -1.68,-0.812 z m 11.18601,-0.812 V 109 h -1.106 v -1.134 q -0.924,1.33 -2.492,1.33 -1.148,0 -1.778,-0.63 -0.63,-0.63 -0.63,-1.82 v -4.97 h 1.19 v 4.648 q 0,0.854 0.322,1.302 0.336,0.434 1.19,0.434 2.114,0 2.114,-2.604 v -3.78 z m 5.558,-0.168 v 1.232 q -0.126,-0.014 -0.308,-0.014 -0.574,0 -0.994,0.182 -0.42,0.168 -0.672,0.448 -0.238,0.28 -0.392,0.7 -0.154,0.42 -0.21,0.84 -0.042,0.42 -0.042,0.952 V 109 h -1.19 v -7.224 h 1.134 v 1.554 q 0.714,-1.722 2.674,-1.722 z m 6.81801,5.11 q -0.546,2.52 -3.15,2.52 -1.596,0 -2.506,-0.994 -0.896,-0.994 -0.896,-2.758 0,-1.75 0.924,-2.828 0.938,-1.092 2.436,-1.092 1.666,0 2.464,1.134 0.812,1.12 0.812,2.842 v 0.168 h -5.432 l -0.014,0.084 q 0,1.148 0.602,1.806 0.602,0.658 1.652,0.658 0.784,0 1.232,-0.364 0.462,-0.364 0.714,-1.176 z m -1.148,-1.974 q -0.084,-1.036 -0.63,-1.61 -0.546,-0.588 -1.442,-0.588 -0.868,0 -1.442,0.588 -0.574,0.588 -0.686,1.61 z"
       id="text7"
       class="nonterminal"
       style="font-size:14px;font-family:HelveticaNeueCyr, Sans-serif;fill:#1a0000"
       aria-label="create_procedure" />
  </a>
  <path
     class="line"
     d="m17 17 h2 m20 0 h10 m100 0 h10 m0 0 h32 m-172 0 h20 m152 0 h20 m-192 0 q10 0 10 10 m172 0 q0 -10 10 -10 m-182 10 v24 m172 0 v-24 m-172 24 q0 10 10 10 m152 0 q10 0 10 -10 m-162 10 h10 m88 0 h10 m0 0 h44 m-162 -10 v20 m172 0 v-20 m-172 20 v24 m172 0 v-24 m-172 24 q0 10 10 10 m152 0 q10 0 10 -10 m-162 10 h10 m132 0 h10 m23 -88 h-3"
     id="path7" />
  <path
     id="polygon7"
     style="fill:#330000;stroke:#330000"
     d="m 221,17 8,-4 v 8 z" />
  <path
     id="polygon8"
     style="fill:#330000;stroke:#330000"
     d="m 221,17 -8,-4 v 8 z" />
</svg>
