<?xml version="1.0" encoding="UTF-8"?>
<svg xmlns="http://www.w3.org/2000/svg" width="693" height="257" viewBox="0 0 693 257">
   <defs>
      <style type="text/css">
    @namespace "http://www.w3.org/2000/svg";
    .line                 {fill: none; stroke: #330000; stroke-width: 1;}
    .bold-line            {stroke: #140000; shape-rendering: crispEdges; stroke-width: 2;}
    .thin-line            {stroke: #1F0000; shape-rendering: crispEdges}
    .filled               {fill: #330000; stroke: none;}
    text.terminal         {font-family: Verdana, Sans-serif;
                            font-size: 12px;
                            fill: #140000;
                            font-weight: bold;
                          }
    text.nonterminal      {font-family: Verdana, Sans-serif;
                            font-size: 12px;
                            fill: #1A0000;
                            font-weight: normal;
                          }
    text.regexp           {font-family: Verdana, Sans-serif;
                            font-size: 12px;
                            fill: #1F0000;
                            font-weight: normal;
                          }
    rect, circle, polygon {fill: #330000; stroke: #330000;}
    rect.terminal         {fill: #FF4D4D; stroke: #330000; stroke-width: 1;}
    rect.nonterminal      {fill: #FF9E9E; stroke: #330000; stroke-width: 1;}
    rect.text             {fill: none; stroke: none;}
    polygon.regexp        {fill: #FFC7C7; stroke: #330000; stroke-width: 1;}
  </style>
   </defs>
   <polygon points="9 17 1 13 1 21"/>
   <polygon points="17 17 9 13 9 21"/>
   <a xmlns:xlink="http://www.w3.org/1999/xlink"
      xlink:href="../alter_procedure"
      xlink:title="alter_procedure">
      <rect x="51" y="3" width="122" height="32"/>
      <rect x="49" y="1" width="122" height="32" class="nonterminal"/>
      <text class="nonterminal" x="59" y="21">alter_procedure</text>
   </a>
   <a xmlns:xlink="http://www.w3.org/1999/xlink"
      xlink:href="../create_index"
      xlink:title="create_index">
      <rect x="51" y="47" width="102" height="32"/>
      <rect x="49" y="45" width="102" height="32" class="nonterminal"/>
      <text class="nonterminal" x="59" y="65">create_index</text>
   </a>
   <a xmlns:xlink="http://www.w3.org/1999/xlink"
      xlink:href="../create_procedure"
      xlink:title="create_procedure">
      <rect x="51" y="91" width="132" height="32"/>
      <rect x="49" y="89" width="132" height="32" class="nonterminal"/>
      <text class="nonterminal" x="59" y="109">create_procedure</text>
   </a>
   <a xmlns:xlink="http://www.w3.org/1999/xlink"
      xlink:href="../create_table"
      xlink:title="create_table">
      <rect x="51" y="135" width="100" height="32"/>
      <rect x="49" y="133" width="100" height="32" class="nonterminal"/>
      <text class="nonterminal" x="59" y="153">create_table</text>
   </a>
   <a xmlns:xlink="http://www.w3.org/1999/xlink"
      xlink:href="../drop_procedure"
      xlink:title="drop_procedure">
      <rect x="51" y="179" width="122" height="32"/>
      <rect x="49" y="177" width="122" height="32" class="nonterminal"/>
      <text class="nonterminal" x="59" y="197">drop_procedure</text>
   </a>
   <a xmlns:xlink="http://www.w3.org/1999/xlink"
      xlink:href="../drop_table"
      xlink:title="drop_table">
      <rect x="51" y="223" width="88" height="32"/>
      <rect x="49" y="221" width="88" height="32" class="nonterminal"/>
      <text class="nonterminal" x="59" y="241">drop_table</text>
   </a>
   <rect x="243" y="35" width="76" height="32" rx="10"/>
   <rect x="241"
         y="33"
         width="76"
         height="32"
         class="terminal"
         rx="10"/>
   <text class="terminal" x="251" y="53">OPTION</text>
   <rect x="339" y="35" width="26" height="32" rx="10"/>
   <rect x="337"
         y="33"
         width="26"
         height="32"
         class="terminal"
         rx="10"/>
   <text class="terminal" x="347" y="53">(</text>
   <rect x="385" y="35" width="82" height="32" rx="10"/>
   <rect x="383"
         y="33"
         width="82"
         height="32"
         class="terminal"
         rx="10"/>
   <text class="terminal" x="393" y="53">TIMEOUT</text>
   <rect x="487" y="35" width="30" height="32" rx="10"/>
   <rect x="485"
         y="33"
         width="30"
         height="32"
         class="terminal"
         rx="10"/>
   <text class="terminal" x="495" y="53">=</text>
   <a xmlns:xlink="http://www.w3.org/1999/xlink"
      xlink:href="../../sql_types#double"
      xlink:title="double">
      <rect x="537" y="35" width="62" height="32"/>
      <rect x="535" y="33" width="62" height="32" class="nonterminal"/>
      <text class="nonterminal" x="545" y="53">double</text>
   </a>
   <rect x="619" y="35" width="26" height="32" rx="10"/>
   <rect x="617"
         y="33"
         width="26"
         height="32"
         class="terminal"
         rx="10"/>
   <text class="terminal" x="627" y="53">)</text>
   <path class="line"
         d="m17 17 h2 m20 0 h10 m122 0 h10 m0 0 h10 m-172 0 h20 m152 0 h20 m-192 0 q10 0 10 10 m172 0 q0 -10 10 -10 m-182 10 v24 m172 0 v-24 m-172 24 q0 10 10 10 m152 0 q10 0 10 -10 m-162 10 h10 m102 0 h10 m0 0 h30 m-162 -10 v20 m172 0 v-20 m-172 20 v24 m172 0 v-24 m-172 24 q0 10 10 10 m152 0 q10 0 10 -10 m-162 10 h10 m132 0 h10 m-162 -10 v20 m172 0 v-20 m-172 20 v24 m172 0 v-24 m-172 24 q0 10 10 10 m152 0 q10 0 10 -10 m-162 10 h10 m100 0 h10 m0 0 h32 m-162 -10 v20 m172 0 v-20 m-172 20 v24 m172 0 v-24 m-172 24 q0 10 10 10 m152 0 q10 0 10 -10 m-162 10 h10 m122 0 h10 m0 0 h10 m-162 -10 v20 m172 0 v-20 m-172 20 v24 m172 0 v-24 m-172 24 q0 10 10 10 m152 0 q10 0 10 -10 m-162 10 h10 m88 0 h10 m0 0 h44 m40 -220 h10 m0 0 h412 m-442 0 h20 m422 0 h20 m-462 0 q10 0 10 10 m442 0 q0 -10 10 -10 m-452 10 v12 m442 0 v-12 m-442 12 q0 10 10 10 m422 0 q10 0 10 -10 m-432 10 h10 m76 0 h10 m0 0 h10 m26 0 h10 m0 0 h10 m82 0 h10 m0 0 h10 m30 0 h10 m0 0 h10 m62 0 h10 m0 0 h10 m26 0 h10 m23 -32 h-3"/>
   <polygon points="683 17 691 13 691 21"/>
   <polygon points="683 17 675 13 675 21"/>
</svg>
