<?xml version="1.0" encoding="UTF-8"?>
<svg xmlns="http://www.w3.org/2000/svg" width="521" height="69" viewBox="0 0 521 69">
   <defs>
      <style type="text/css">
    @namespace "http://www.w3.org/2000/svg";
    .line                 {fill: none; stroke: #330000; stroke-width: 1;}
    .bold-line            {stroke: #140000; shape-rendering: crispEdges; stroke-width: 2;}
    .thin-line            {stroke: #1F0000; shape-rendering: crispEdges}
    .filled               {fill: #330000; stroke: none;}
    text.terminal         {font-family: Verdana, Sans-serif;
                            font-size: 12px;
                            fill: #140000;
                            font-weight: bold;
                          }
    text.nonterminal      {font-family: Verdana, Sans-serif;
                            font-size: 12px;
                            fill: #1A0000;
                            font-weight: normal;
                          }
    text.regexp           {font-family: Verdana, Sans-serif;
                            font-size: 12px;
                            fill: #1F0000;
                            font-weight: normal;
                          }
    rect, circle, polygon {fill: #330000; stroke: #330000;}
    rect.terminal         {fill: #FF4D4D; stroke: #330000; stroke-width: 1;}
    rect.nonterminal      {fill: #FF9E9E; stroke: #330000; stroke-width: 1;}
    rect.text             {fill: none; stroke: none;}
    polygon.regexp        {fill: #FFC7C7; stroke: #330000; stroke-width: 1;}
  </style>
      <style class="darkreader darkreader--sync" media="screen"/>
   </defs>
   <polygon points="9 17 1 13 1 21"/>
   <polygon points="17 17 9 13 9 21"/>
   <rect x="31" y="3" width="70" height="32" rx="10"/>
   <rect x="29"
         y="1"
         width="70"
         height="32"
         class="terminal"
         rx="10"/>
   <text class="terminal" x="39" y="21">DELETE</text>
   <rect x="121" y="3" width="60" height="32" rx="10"/>
   <rect x="119"
         y="1"
         width="60"
         height="32"
         class="terminal"
         rx="10"/>
   <text class="terminal" x="129" y="21">FROM</text>
   <a xmlns:xlink="http://www.w3.org/1999/xlink"
      xlink:href="../object"
      xlink:title="table">
      <rect x="201" y="3" width="52" height="32"/>
      <rect x="199" y="1" width="52" height="32" class="nonterminal"/>
      <text class="nonterminal" x="209" y="21">table</text>
   </a>
   <rect x="293" y="35" width="70" height="32" rx="10"/>
   <rect x="291"
         y="33"
         width="70"
         height="32"
         class="terminal"
         rx="10"/>
   <text class="terminal" x="301" y="53">WHERE</text>
   <a xmlns:xlink="http://www.w3.org/1999/xlink"
      xlink:href="#expression"
      xlink:title="expression">
      <rect x="383" y="35" width="90" height="32"/>
      <rect x="381" y="33" width="90" height="32" class="nonterminal"/>
      <text class="nonterminal" x="391" y="53">expression</text>
   </a>
   <path class="line"
         d="m17 17 h2 m0 0 h10 m70 0 h10 m0 0 h10 m60 0 h10 m0 0 h10 m52 0 h10 m20 0 h10 m0 0 h190 m-220 0 h20 m200 0 h20 m-240 0 q10 0 10 10 m220 0 q0 -10 10 -10 m-230 10 v12 m220 0 v-12 m-220 12 q0 10 10 10 m200 0 q10 0 10 -10 m-210 10 h10 m70 0 h10 m0 0 h10 m90 0 h10 m23 -32 h-3"/>
   <polygon points="511 17 519 13 519 21"/>
   <polygon points="511 17 503 13 503 21"/>
</svg>
