<?xml version="1.0" encoding="UTF-8" standalone="no"?>
<svg
   width="421"
   height="125"
   version="1.1"
   id="svg1705"
   sodipodi:docname="Distribution.svg"
   inkscape:version="1.2.2 (b0a8486541, 2022-12-01)"
   xmlns:inkscape="http://www.inkscape.org/namespaces/inkscape"
   xmlns:sodipodi="http://sodipodi.sourceforge.net/DTD/sodipodi-0.dtd"
   xmlns:xlink="http://www.w3.org/1999/xlink"
   xmlns="http://www.w3.org/2000/svg"
   xmlns:svg="http://www.w3.org/2000/svg">
  <sodipodi:namedview
     id="namedview1707"
     pagecolor="#ffffff"
     bordercolor="#666666"
     borderopacity="1.0"
     inkscape:showpageshadow="2"
     inkscape:pageopacity="0.0"
     inkscape:pagecheckerboard="0"
     inkscape:deskcolor="#d1d1d1"
     showgrid="false"
     inkscape:zoom="3.0807601"
     inkscape:cx="186.96685"
     inkscape:cy="62.646877"
     inkscape:window-width="1439"
     inkscape:window-height="749"
     inkscape:window-x="50"
     inkscape:window-y="118"
     inkscape:window-maximized="0"
     inkscape:current-layer="svg1705" />
  <defs
     id="defs1655">
    <style
       type="text/css"
       id="style1653">@namespace &quot;http://www.w3.org/2000/svg&quot;;.line { fill: none; stroke: #330000; stroke-width: 1; }
.bold-line { stroke: #140000; shape-rendering: crispEdges; stroke-width: 2; }
.thin-line { stroke: #1F0000; shape-rendering: crispEdges }
.filled { fill: #330000; stroke: none; }
text.terminal { font-family: HelveticaNeueCyr, Sans-serif;                            font-size: 14px;                            fill: #140000;                            font-weight: bold; }
text.nonterminal { font-family: HelveticaNeueCyr, Sans-serif;                            font-size: 14px;                            fill: #1A0000;                            font-weight: normal; }
text.regexp { font-family: HelveticaNeueCyr, Sans-serif;                            font-size: 14px;                            fill: #1F0000;                            font-weight: normal; }
rect, circle, polygon { fill: #330000; stroke: #330000; }
rect.terminal { fill: #FF4D4D; stroke: #330000; stroke-width: 1; }
rect.nonterminal { fill: #FF9E9E; stroke: #330000; stroke-width: 1; }
rect.text { fill: none; stroke: none; }
polygon.regexp { fill: #FFC7C7; stroke: #330000; stroke-width: 1; }
</style>
  </defs>
  <path
     id="polygon1657"
     style="fill:#330000;stroke:#330000"
     d="M 9,17 1,13 v 8 z" />
  <path
     id="polygon1659"
     style="fill:#330000;stroke:#330000"
     d="M 17,17 9,13 v 8 z" />
  <path
     id="rect1661"
     style="fill:#330000;stroke:#330000"
     d="m 61,3 h 40 c 5.54,0 10,4.46 10,10 v 12 c 0,5.54 -4.46,10 -10,10 H 61 C 55.46,35 51,30.54 51,25 V 13 C 51,7.46 55.46,3 61,3 Z" />
  <path
     id="rect1663"
     class="terminal"
     style="fill:#ff4d4d;stroke:#330000"
     d="m 59,1 h 40 c 5.54,0 10,4.46 10,10 v 12 c 0,5.54 -4.46,10 -10,10 H 59 C 53.46,33 49,28.54 49,23 V 11 C 49,5.46 53.46,1 59,1 Z" />
  <g
     aria-label="global"
     id="text1665"
     class="terminal"
     style="font-weight:bold;font-size:14px;font-family:HelveticaNeueCyr, Sans-serif;fill:#140000">
    <path
       d="m 66.686,13.776 v 6.468 q 0,1.778 -0.882,2.604 -0.882,0.84 -2.674,0.84 -3.094,0 -3.388,-2.254 h 1.974 q 0.112,0.49 0.462,0.7 0.35,0.224 0.994,0.224 0.938,0 1.26,-0.462 0.322,-0.448 0.336,-1.414 l 0.014,-0.812 q -0.812,1.12 -2.212,1.12 -1.414,0 -2.254,-0.966 -0.826,-0.966 -0.826,-2.59 0,-1.652 0.868,-2.646 0.868,-1.008 2.296,-1.008 0.756,0 1.246,0.28 0.504,0.266 0.91,0.882 v -0.966 z m -2.338,1.89 Q 63.9,15.12 63.116,15.12 q -0.784,0 -1.232,0.56 -0.434,0.546 -0.434,1.54 0,0.952 0.448,1.526 0.462,0.56 1.232,0.56 0.77,0 1.218,-0.574 0.448,-0.574 0.448,-1.554 0,-0.966 -0.448,-1.512 z"
       id="path1883" />
    <path
       d="M 70.354001,11.032 V 21 h -1.988 v -9.968 z"
       id="path1885" />
    <path
       d="m 75.477993,13.566 q 1.666,0 2.674,1.05 1.022,1.05 1.022,2.772 0,1.736 -1.022,2.786 -1.008,1.05 -2.702,1.05 -1.694,0 -2.716,-1.05 -1.022,-1.05 -1.022,-2.786 0,-1.722 1.036,-2.772 1.036,-1.05 2.73,-1.05 z m -0.056,1.512 q -0.798,0 -1.26,0.616 -0.462,0.616 -0.462,1.694 0,1.106 0.462,1.722 0.462,0.616 1.288,0.616 0.826,0 1.274,-0.616 0.462,-0.63 0.462,-1.736 0,-1.078 -0.476,-1.68 -0.462,-0.616 -1.288,-0.616 z"
       id="path1887" />
    <path
       d="m 82.435994,11.032 v 3.626 q 0.84,-1.05 2.282,-1.05 1.442,0 2.268,1.05 0.826,1.05 0.826,2.66 0,1.736 -0.896,2.814 -0.882,1.064 -2.31,1.064 -1.498,0 -2.268,-1.106 l 0.014,0.91 h -1.89 v -9.968 z m 1.666,4.102 q -0.798,0 -1.274,0.602 -0.462,0.588 -0.462,1.61 0,1.05 0.462,1.652 0.462,0.602 1.274,0.602 0.77,0 1.232,-0.616 0.476,-0.616 0.476,-1.652 0,-0.994 -0.476,-1.596 -0.462,-0.602 -1.232,-0.602 z"
       id="path1889" />
    <path
       d="m 95.749994,21 h -2.016 q -0.098,-0.28 -0.14,-0.7 -0.91,0.91 -2.338,0.91 -1.204,0 -1.89,-0.574 -0.686,-0.588 -0.686,-1.61 0,-0.462 0.112,-0.812 0.126,-0.35 0.392,-0.588 0.28,-0.238 0.518,-0.392 0.252,-0.154 0.686,-0.252 0.434,-0.098 0.7,-0.14 0.266,-0.056 0.742,-0.112 1.05,-0.14 1.4,-0.294 0.364,-0.154 0.364,-0.574 0,-0.966 -1.302,-0.966 -0.686,0 -1.008,0.252 -0.322,0.238 -0.42,0.854 h -1.862 q 0.168,-2.436 3.346,-2.436 3.15,0 3.15,2.352 v 3.122 q 0,1.372 0.252,1.96 z m -2.17,-3.514 q -0.35,0.21 -1.4,0.378 -0.882,0.14 -1.148,0.35 -0.308,0.252 -0.308,0.728 0,0.448 0.28,0.714 0.294,0.252 0.812,0.252 0.798,0 1.274,-0.42 0.49,-0.434 0.49,-1.19 z"
       id="path1891" />
    <path
       d="M 99.109986,11.032 V 21 h -1.988 v -9.968 z"
       id="path1893" />
  </g>
  <path
     id="rect1667"
     style="fill:#330000;stroke:#330000"
     d="m 61,91 h 94 c 5.54,0 10,4.46 10,10 v 12 c 0,5.54 -4.46,10 -10,10 H 61 c -5.54,0 -10,-4.46 -10,-10 v -12 c 0,-5.54 4.46,-10 10,-10 z" />
  <path
     id="rect1669"
     class="terminal"
     style="fill:#ff4d4d;stroke:#330000"
     d="m 59,89 h 94 c 5.54,0 10,4.46 10,10 v 12 c 0,5.54 -4.46,10 -10,10 H 59 c -5.54,0 -10,-4.46 -10,-10 V 99 c 0,-5.54 4.46,-10 10,-10 z" />
  <g
     aria-label="distributed by"
     id="text1671"
     class="terminal"
     style="font-weight:bold;font-size:14px;font-family:HelveticaNeueCyr, Sans-serif;fill:#140000">
    <path
       d="m 66.798,109 h -1.876 v -0.924 q -0.714,1.12 -2.184,1.12 -1.498,0 -2.394,-1.036 -0.882,-1.05 -0.882,-2.8 0,-1.708 0.854,-2.744 0.868,-1.036 2.31,-1.036 0.672,0 1.26,0.28 0.602,0.28 0.938,0.812 v -3.64 h 1.974 z m -1.904,-3.626 q 0,-1.05 -0.462,-1.638 -0.448,-0.588 -1.26,-0.588 -0.812,0 -1.26,0.588 -0.448,0.588 -0.448,1.624 0,1.05 0.448,1.652 0.462,0.588 1.26,0.588 0.826,0 1.274,-0.574 0.448,-0.588 0.448,-1.652 z"
       id="path1854" />
    <path
       d="m 70.354001,99.032 v 1.68 h -1.988 v -1.68 z m 0,2.744 V 109 h -1.988 v -7.224 z"
       id="path1856" />
    <path
       d="m 78.025993,103.876 h -1.848 q -0.084,-0.546 -0.42,-0.77 -0.322,-0.224 -0.952,-0.224 -0.532,0 -0.826,0.196 -0.294,0.182 -0.294,0.518 0,0.392 0.336,0.546 0.336,0.154 1.204,0.336 0.154,0.028 0.224,0.042 0.504,0.098 0.798,0.182 0.308,0.07 0.742,0.252 0.434,0.168 0.672,0.392 0.238,0.21 0.42,0.574 0.182,0.364 0.182,0.84 0,1.134 -0.882,1.792 -0.882,0.658 -2.422,0.658 -1.47,0 -2.422,-0.63 -0.952,-0.63 -0.966,-1.932 h 1.89 q 0.098,1.204 1.54,1.204 0.602,0 0.952,-0.238 0.364,-0.252 0.364,-0.658 0,-0.406 -0.322,-0.574 -0.322,-0.168 -1.19,-0.364 -0.07,-0.014 -0.112,-0.028 -0.098,-0.028 -0.434,-0.098 -0.336,-0.07 -0.476,-0.098 -0.126,-0.042 -0.434,-0.126 -0.294,-0.084 -0.434,-0.154 -0.14,-0.084 -0.378,-0.196 -0.224,-0.126 -0.336,-0.266 -0.112,-0.14 -0.252,-0.322 -0.126,-0.196 -0.182,-0.434 -0.042,-0.238 -0.042,-0.518 0,-1.064 0.826,-1.638 0.826,-0.574 2.338,-0.574 1.358,0 2.226,0.56 0.868,0.56 0.91,1.75 z"
       id="path1858" />
    <path
       d="m 83.416002,101.776 v 1.344 h -1.47 v 3.402 q 0,0.322 0.014,0.476 0.014,0.14 0.098,0.294 0.084,0.154 0.252,0.21 0.182,0.042 0.504,0.042 0.364,0 0.602,-0.028 v 1.512 q -0.728,0.056 -1.204,0.056 -1.302,0 -1.778,-0.448 -0.462,-0.462 -0.462,-1.764 v -3.752 h -1.204 v -1.344 h 1.204 v -2.184 h 1.974 v 2.184 z"
       id="path1860" />
    <path
       d="m 89.057992,101.65 v 1.834 q -0.42,-0.084 -0.77,-0.084 -0.98,0 -1.442,0.63 -0.462,0.616 -0.462,1.666 V 109 h -1.988 v -7.224 h 1.89 v 1.33 q 0.714,-1.498 2.338,-1.498 0.14,0 0.434,0.042 z"
       id="path1862" />
    <path
       d="m 91.857991,99.032 v 1.68 h -1.988 v -1.68 z m 0,2.744 V 109 h -1.988 v -7.224 z"
       id="path1864" />
    <path
       d="m 95.385983,99.032 v 3.626 q 0.84,-1.05 2.282,-1.05 1.442,0 2.268,1.05 0.825997,1.05 0.825997,2.66 0,1.736 -0.895997,2.814 -0.882,1.064 -2.31,1.064 -1.498,0 -2.268,-1.106 l 0.014,0.91 h -1.89 v -9.968 z m 1.666,4.102 q -0.798,0 -1.274,0.602 -0.462,0.588 -0.462,1.61 0,1.05 0.462,1.652 0.462,0.602 1.274,0.602 0.77,0 1.232,-0.616 0.476,-0.616 0.476,-1.652 0,-0.994 -0.476,-1.596 -0.462,-0.602 -1.232,-0.602 z"
       id="path1866" />
    <path
       d="M 108.75598,101.776 V 109 h -1.89 v -1.022 q -0.84,1.232 -2.352,1.232 -1.19,0 -1.862,-0.644 -0.658,-0.658 -0.658,-1.932 v -4.858 h 2.002 v 4.13 q 0,0.406 0.028,0.658 0.042,0.238 0.154,0.49 0.112,0.252 0.364,0.378 0.266,0.112 0.672,0.112 1.568,0 1.568,-2.044 v -3.724 z"
       id="path1868" />
    <path
       d="m 114.25799,101.776 v 1.344 h -1.47 v 3.402 q 0,0.322 0.014,0.476 0.014,0.14 0.098,0.294 0.084,0.154 0.252,0.21 0.182,0.042 0.504,0.042 0.364,0 0.602,-0.028 v 1.512 q -0.728,0.056 -1.204,0.056 -1.302,0 -1.778,-0.448 -0.462,-0.462 -0.462,-1.764 v -3.752 h -1.204 v -1.344 h 1.204 v -2.184 h 1.974 v 2.184 z"
       id="path1870" />
    <path
       d="m 121.99998,106.76 q -0.336,1.162 -1.246,1.806 -0.896,0.644 -2.142,0.644 -1.666,0 -2.688,-1.036 -1.008,-1.036 -1.008,-2.744 0,-1.68 1.022,-2.772 1.022,-1.092 2.604,-1.092 1.638,0 2.604,1.12 0.966,1.106 0.966,3.01 v 0.196 h -5.18 q 0.014,0.938 0.448,1.428 0.448,0.49 1.246,0.49 1.05,0 1.47,-1.05 z m -1.904,-2.128 q -0.07,-0.714 -0.462,-1.162 -0.392,-0.462 -1.092,-0.462 -0.658,0 -1.092,0.434 -0.434,0.434 -0.518,1.19 z"
       id="path1872" />
    <path
       d="m 130.28797,109 h -1.876 v -0.924 q -0.714,1.12 -2.184,1.12 -1.498,0 -2.394,-1.036 -0.882,-1.05 -0.882,-2.8 0,-1.708 0.854,-2.744 0.868,-1.036 2.31,-1.036 0.672,0 1.26,0.28 0.602,0.28 0.938,0.812 v -3.64 h 1.974 z m -1.904,-3.626 q 0,-1.05 -0.462,-1.638 -0.448,-0.588 -1.26,-0.588 -0.812,0 -1.26,0.588 -0.448,0.588 -0.448,1.624 0,1.05 0.448,1.652 0.462,0.588 1.26,0.588 0.826,0 1.274,-0.574 0.448,-0.588 0.448,-1.652 z"
       id="path1874" />
    <path
       d="m 137.65197,99.032 v 3.626 q 0.84,-1.05 2.282,-1.05 1.442,0 2.268,1.05 0.826,1.05 0.826,2.66 0,1.736 -0.896,2.814 -0.882,1.064 -2.31,1.064 -1.498,0 -2.268,-1.106 l 0.014,0.91 h -1.89 v -9.968 z m 1.666,4.102 q -0.798,0 -1.274,0.602 -0.462,0.588 -0.462,1.61 0,1.05 0.462,1.652 0.462,0.602 1.274,0.602 0.77,0 1.232,-0.616 0.476,-0.616 0.476,-1.652 0,-0.994 -0.476,-1.596 -0.462,-0.602 -1.232,-0.602 z"
       id="path1876" />
    <path
       d="m 150.81197,101.776 -2.66,7.196 q -0.196,0.546 -0.294,0.756 -0.084,0.224 -0.28,0.616 -0.182,0.392 -0.35,0.546 -0.154,0.154 -0.434,0.35 -0.266,0.196 -0.616,0.266 -0.336,0.07 -0.784,0.07 -0.364,0 -1.33,-0.014 v -1.638 h 0.966 q 0.49,0 0.742,-0.252 0.266,-0.252 0.266,-0.714 0,-0.112 -0.056,-0.28 l -2.618,-6.902 h 2.142 l 1.652,4.914 1.596,-4.914 z"
       id="path1878" />
  </g>
  <path
     id="rect1673"
     style="fill:#330000;stroke:#330000"
     d="m 195,91 h 6 c 5.54,0 10,4.46 10,10 v 12 c 0,5.54 -4.46,10 -10,10 h -6 c -5.54,0 -10,-4.46 -10,-10 v -12 c 0,-5.54 4.46,-10 10,-10 z" />
  <path
     id="rect1675"
     class="terminal"
     style="fill:#ff4d4d;stroke:#330000"
     d="m 193,89 h 6 c 5.54,0 10,4.46 10,10 v 12 c 0,5.54 -4.46,10 -10,10 h -6 c -5.54,0 -10,-4.46 -10,-10 V 99 c 0,-5.54 4.46,-10 10,-10 z" />
  <g
     aria-label="("
     id="text1677"
     class="terminal"
     style="font-weight:bold;font-size:14px;font-family:HelveticaNeueCyr, Sans-serif;fill:#140000">
    <path
       d="m 197.228,98.878 q -0.812,1.624 -1.19,3.108 -0.364,1.484 -0.364,3.262 0,3.08 1.582,6.244 h -1.68 q -0.868,-1.316 -1.358,-2.954 -0.476,-1.638 -0.476,-3.248 0,-1.68 0.462,-3.388 0.476,-1.722 1.372,-3.024 z"
       id="path1849" />
  </g>
  <a
     xlink:href="#name"
     xlink:title="name"
     id="a1685">
    <path
       id="rect1679"
       style="fill:#330000;stroke:#330000"
       d="m 251,91 h 56 v 32 h -56 z" />
    <path
       id="rect1681"
       class="nonterminal"
       style="fill:#ff9e9e;stroke:#330000"
       d="m 249,89 h 56 v 32 h -56 z" />
    <g
       aria-label="name"
       id="text1683"
       class="nonterminal"
       style="font-size:14px;font-family:HelveticaNeueCyr, Sans-serif;fill:#1a0000">
      <path
         d="m 261.016,101.776 v 1.12 q 0.896,-1.316 2.464,-1.316 1.274,0 1.834,0.672 0.574,0.658 0.574,1.946 V 109 h -1.19 v -4.256 q 0,-0.532 -0.042,-0.826 -0.028,-0.308 -0.168,-0.644 -0.14,-0.35 -0.476,-0.504 -0.336,-0.154 -0.868,-0.154 -2.058,0 -2.058,2.604 V 109 h -1.19 v -7.224 z"
         id="path1840" />
      <path
         d="m 274.078,108.048 v 0.924 q -0.364,0.14 -0.812,0.14 -1.022,0 -1.05,-1.064 -1.022,1.148 -2.618,1.148 -1.064,0 -1.694,-0.546 -0.616,-0.546 -0.616,-1.498 0,-1.932 2.562,-2.254 1.512,-0.182 1.75,-0.266 0.504,-0.168 0.546,-0.7 0.014,-0.084 0.014,-0.182 0,-1.19 -1.638,-1.19 -0.84,0 -1.274,0.35 -0.434,0.336 -0.518,1.12 h -1.162 q 0.028,-1.162 0.826,-1.806 0.798,-0.644 2.198,-0.644 1.526,0 2.268,0.7 0.238,0.224 0.35,0.588 0.112,0.364 0.126,0.602 0.014,0.224 0.014,0.686 0,0.546 -0.028,1.624 -0.028,1.064 -0.028,1.596 0,0.392 0.098,0.56 0.112,0.154 0.392,0.154 0.112,0 0.294,-0.042 z m -1.918,-2.8 q -0.126,0.098 -0.266,0.168 -0.14,0.07 -0.364,0.112 -0.21,0.042 -0.294,0.07 -0.07,0.014 -0.364,0.056 -0.294,0.028 -0.308,0.028 -0.434,0.056 -0.574,0.084 -0.126,0.014 -0.504,0.112 -0.364,0.098 -0.518,0.224 -0.154,0.126 -0.308,0.378 -0.14,0.238 -0.14,0.574 0,0.56 0.378,0.882 0.392,0.322 1.064,0.322 0.854,0 1.526,-0.504 0.672,-0.504 0.672,-1.19 z"
         id="path1842" />
      <path
         d="m 276.31801,101.776 v 1.05 q 0.476,-0.644 1.022,-0.938 0.546,-0.294 1.33,-0.294 1.484,0 2.002,1.246 0.938,-1.26 2.394,-1.26 1.12,0 1.694,0.63 0.588,0.616 0.588,1.736 V 109 h -1.19 v -4.55 q 0,-0.896 -0.28,-1.344 -0.28,-0.462 -1.162,-0.462 -1.848,0 -1.848,2.254 V 109 h -1.19 v -4.634 q 0,-0.826 -0.28,-1.26 -0.266,-0.448 -1.05,-0.448 -1.106,0 -1.54,0.686 -0.42,0.672 -0.42,1.834 V 109 h -1.19 v -7.224 z"
         id="path1844" />
      <path
         d="m 293.31401,106.718 q -0.546,2.52 -3.15,2.52 -1.596,0 -2.506,-0.994 -0.896,-0.994 -0.896,-2.758 0,-1.75 0.924,-2.828 0.938,-1.092 2.436,-1.092 1.666,0 2.464,1.134 0.812,1.12 0.812,2.842 v 0.168 h -5.432 l -0.014,0.084 q 0,1.148 0.602,1.806 0.602,0.658 1.652,0.658 0.784,0 1.232,-0.364 0.462,-0.364 0.714,-1.176 z m -1.148,-1.974 q -0.084,-1.036 -0.63,-1.61 -0.546,-0.588 -1.442,-0.588 -0.868,0 -1.442,0.588 -0.574,0.588 -0.686,1.61 z"
         id="path1846" />
    </g>
  </a>
  <path
     id="rect1687"
     style="fill:#330000;stroke:#330000"
     d="m 261,47 h 4 c 5.54,0 10,4.46 10,10 v 12 c 0,5.54 -4.46,10 -10,10 h -4 c -5.54,0 -10,-4.46 -10,-10 V 57 c 0,-5.54 4.46,-10 10,-10 z" />
  <path
     id="rect1689"
     class="terminal"
     style="fill:#ff4d4d;stroke:#330000"
     d="m 259,45 h 4 c 5.54,0 10,4.46 10,10 v 12 c 0,5.54 -4.46,10 -10,10 h -4 c -5.54,0 -10,-4.46 -10,-10 V 55 c 0,-5.54 4.46,-10 10,-10 z" />
  <g
     aria-label=","
     id="text1691"
     class="terminal"
     style="font-weight:bold;font-size:14px;font-family:HelveticaNeueCyr, Sans-serif;fill:#140000">
    <path
       d="m 262.052,62.816 v 1.778 q 0,1.218 -0.546,1.876 -0.532,0.672 -1.666,0.854 v -0.98 q 0.938,-0.28 0.994,-1.344 h -0.994 v -2.184 z"
       id="path1833" />
  </g>
  <path
     id="rect1693"
     style="fill:#330000;stroke:#330000"
     d="m 357,91 h 6 c 5.54,0 10,4.46 10,10 v 12 c 0,5.54 -4.46,10 -10,10 h -6 c -5.54,0 -10,-4.46 -10,-10 v -12 c 0,-5.54 4.46,-10 10,-10 z" />
  <path
     id="rect1695"
     class="terminal"
     style="fill:#ff4d4d;stroke:#330000"
     d="m 355,89 h 6 c 5.54,0 10,4.46 10,10 v 12 c 0,5.54 -4.46,10 -10,10 h -6 c -5.54,0 -10,-4.46 -10,-10 V 99 c 0,-5.54 4.46,-10 10,-10 z" />
  <g
     aria-label=")"
     id="text1697"
     class="terminal"
     style="font-weight:bold;font-size:14px;font-family:HelveticaNeueCyr, Sans-serif;fill:#140000">
    <path
       d="m 354.944,98.878 h 1.652 q 1.862,2.856 1.862,6.23 0,1.582 -0.49,3.416 -0.49,1.834 -1.344,2.968 h -1.666 q 0.84,-1.708 1.19,-3.15 0.364,-1.456 0.364,-3.262 0,-3.388 -1.568,-6.202 z"
       id="path1828" />
  </g>
  <path
     class="line"
     d="m17 17 h2 m20 0 h10 m60 0 h10 m0 0 h262 m-362 0 h20 m342 0 h20 m-382 0 q10 0 10 10 m362 0 q0 -10 10 -10 m-372 10 v68 m362 0 v-68 m-362 68 q0 10 10 10 m342 0 q10 0 10 -10 m-352 10 h10 m114 0 h10 m0 0 h10 m26 0 h10 m20 0 h10 m56 0 h10 m-96 0 l20 0 m-1 0 q-9 0 -9 -10 l0 -24 q0 -10 10 -10 m76 44 l20 0 m-20 0 q10 0 10 -10 l0 -24 q0 -10 -10 -10 m-76 0 h10 m24 0 h10 m0 0 h32 m20 44 h10 m26 0 h10 m23 -88 h-3"
     id="path1699" />
  <path
     id="polygon1701"
     style="fill:#330000;stroke:#330000"
     d="m 411,17 8,-4 v 8 z" />
  <path
     id="polygon1703"
     style="fill:#330000;stroke:#330000"
     d="m 411,17 -8,-4 v 8 z" />
</svg>
