<?xml version="1.0" encoding="UTF-8" standalone="no"?>
<svg
   width="823"
   height="213"
   viewBox="0 0 823 213"
   version="1.1"
   id="svg27"
   sodipodi:docname="dml.svg"
   inkscape:version="1.3.2 (091e20ef0f, 2023-11-25)"
   xmlns:inkscape="http://www.inkscape.org/namespaces/inkscape"
   xmlns:sodipodi="http://sodipodi.sourceforge.net/DTD/sodipodi-0.dtd"
   xmlns:xlink="http://www.w3.org/1999/xlink"
   xmlns="http://www.w3.org/2000/svg"
   xmlns:svg="http://www.w3.org/2000/svg">
  <sodipodi:namedview
     id="namedview27"
     pagecolor="#ffffff"
     bordercolor="#666666"
     borderopacity="1.0"
     inkscape:showpageshadow="2"
     inkscape:pageopacity="0.0"
     inkscape:pagecheckerboard="0"
     inkscape:deskcolor="#d1d1d1"
     inkscape:zoom="3.2442712"
     inkscape:cx="474.52876"
     inkscape:cy="98.943639"
     inkscape:window-width="1858"
     inkscape:window-height="1014"
     inkscape:window-x="62"
     inkscape:window-y="29"
     inkscape:window-maximized="1"
     inkscape:current-layer="svg27" />
  <defs
     id="defs2">
    <style
       type="text/css"
       id="style1">@namespace &quot;http://www.w3.org/2000/svg&quot;;.line { fill: none; stroke: #330000; stroke-width: 1; }
.bold-line { stroke: #140000; shape-rendering: crispEdges; stroke-width: 2; }
.thin-line { stroke: #1F0000; shape-rendering: crispEdges }
.filled { fill: #330000; stroke: none; }
text.terminal { font-family: Verdana, Sans-serif;                            font-size: 12px;                            fill: #140000;                            font-weight: bold; }
text.nonterminal { font-family: Verdana, Sans-serif;                            font-size: 12px;                            fill: #1A0000;                            font-weight: normal; }
text.regexp { font-family: Verdana, Sans-serif;                            font-size: 12px;                            fill: #1F0000;                            font-weight: normal; }
rect, circle, polygon { fill: #330000; stroke: #330000; }
rect.terminal { fill: #FF4D4D; stroke: #330000; stroke-width: 1; }
rect.nonterminal { fill: #FF9E9E; stroke: #330000; stroke-width: 1; }
rect.text { fill: none; stroke: none; }
polygon.regexp { fill: #FFC7C7; stroke: #330000; stroke-width: 1; }
</style>
    <style
       class="darkreader darkreader--sync"
       media="screen"
       id="style2" />
  </defs>
  <polygon
     points="9 61 1 57 1 65"
     id="polygon2" />
  <polygon
     points="17 61 9 57 9 65"
     id="polygon3" />
  <a
     xlink:href="../call"
     xlink:title="call"
     id="a4">
    <rect
       x="51"
       y="47"
       width="40"
       height="32"
       id="rect3" />
    <rect
       x="49"
       y="45"
       width="40"
       height="32"
       class="nonterminal"
       id="rect4" />
    <text
       class="nonterminal"
       x="59"
       y="65"
       id="text4">call</text>
  </a>
  <a
     xlink:href="../delete"
     xlink:title="delete"
     id="a6">
    <rect
       x="51"
       y="91"
       width="60"
       height="32"
       id="rect5" />
    <rect
       x="49"
       y="89"
       width="60"
       height="32"
       class="nonterminal"
       id="rect6" />
    <text
       class="nonterminal"
       x="59"
       y="109"
       id="text6">delete</text>
  </a>
  <a
     xlink:href="../insert"
     xlink:title="insert"
     id="a8">
    <rect
       x="51"
       y="135"
       width="56"
       height="32"
       id="rect7" />
    <rect
       x="49"
       y="133"
       width="56"
       height="32"
       class="nonterminal"
       id="rect8" />
    <text
       class="nonterminal"
       x="59"
       y="153"
       id="text8">insert</text>
  </a>
  <a
     xlink:href="../update"
     xlink:title="update"
     id="a10">
    <rect
       x="51"
       y="179"
       width="64"
       height="32"
       id="rect9" />
    <rect
       x="49"
       y="177"
       width="64"
       height="32"
       class="nonterminal"
       id="rect10" />
    <text
       class="nonterminal"
       x="59"
       y="197"
       id="text10">update</text>
  </a>
  <rect
     x="175"
     y="47"
     width="76"
     height="32"
     rx="10"
     id="rect11" />
  <rect
     x="173"
     y="45"
     width="76"
     height="32"
     class="terminal"
     rx="10"
     id="rect12" />
  <text
     class="terminal"
     x="183"
     y="65"
     id="text12">OPTION</text>
  <rect
     x="271"
     y="47"
     width="26"
     height="32"
     rx="10"
     id="rect13" />
  <rect
     x="269"
     y="45"
     width="26"
     height="32"
     class="terminal"
     rx="10"
     id="rect14" />
  <text
     class="terminal"
     x="279"
     y="65"
     id="text14">(</text>
  <rect
     x="357"
     y="47"
     width="162"
     height="32"
     rx="10"
     id="rect15" />
  <rect
     x="355"
     y="45"
     width="162"
     height="32"
     class="terminal"
     rx="10"
     id="rect16" />
  <text
     class="terminal"
     x="365"
     y="65"
     id="text16">VTABLE_MAX_ROWS</text>
  <rect
     x="356.76944"
     y="91"
     width="162.7878"
     height="32"
     rx="10"
     id="rect17"
     style="stroke-width:1"
     ry="10" />
  <rect
     x="355"
     y="89"
     width="162.7878"
     height="32"
     class="terminal"
     rx="10"
     id="rect18"
     ry="10" />
  <text
     class="terminal"
     x="373.73666"
     y="109"
     id="text18">VDBE_MAX_STEPS</text>
  <rect
     x="581"
     y="47"
     width="30"
     height="32"
     rx="10"
     id="rect19" />
  <rect
     x="579"
     y="45"
     width="30"
     height="32"
     class="terminal"
     rx="10"
     id="rect20" />
  <text
     class="terminal"
     x="589"
     y="65"
     id="text20">=</text>
  <a
     xlink:href="../../sql_types#unsigned"
     xlink:title="unsigned"
     id="a22">
    <rect
       x="631"
       y="47"
       width="78"
       height="32"
       id="rect21" />
    <rect
       x="629"
       y="45"
       width="78"
       height="32"
       class="nonterminal"
       id="rect22" />
    <text
       class="nonterminal"
       x="639"
       y="65"
       id="text22">unsigned</text>
  </a>
  <rect
     x="337"
     y="3"
     width="24"
     height="32"
     rx="10"
     id="rect23" />
  <rect
     x="335"
     y="1"
     width="24"
     height="32"
     class="terminal"
     rx="10"
     id="rect24" />
  <text
     class="terminal"
     x="345"
     y="21"
     id="text24">,</text>
  <rect
     x="749"
     y="47"
     width="26"
     height="32"
     rx="10"
     id="rect25" />
  <rect
     x="747"
     y="45"
     width="26"
     height="32"
     class="terminal"
     rx="10"
     id="rect26" />
  <text
     class="terminal"
     x="757"
     y="65"
     id="text26">)</text>
  <path
     class="line"
     d="m 17,61 h 2 m 20,0 h 10 m 40,0 h 10 m 0,0 h 24 M 19,61 h 20 m 84,0 h 20 M 19,61 c 6.666667,0 10,3.333333 10,10 m 104,0 c 0,-6.666667 3.33333,-10 10,-10 M 29,71 v 24 m 104,0 V 71 M 29,95 c 0,6.66667 3.333333,10 10,10 m 84,0 c 6.66667,0 10,-3.33333 10,-10 m -94,10 h 10 m 60,0 h 10 m 0,0 h 4 M 29,95 v 20 m 104,0 V 95 M 29,115 v 24 m 104,0 V 115 M 29,139 c 0,6.66667 3.333333,10 10,10 m 84,0 c 6.66667,0 10,-3.33333 10,-10 m -94,10 h 10 m 56,0 h 10 m 0,0 h 8 M 29,139 v 20 m 104,0 V 139 M 29,159 v 24 m 104,0 V 159 M 29,183 c 0,6.66667 3.333333,10 10,10 m 84,0 c 6.66667,0 10,-3.33333 10,-10 m -94,10 h 10 m 64,0 h 10 M 163,61 h 10 m 76,0 h 10 m 0,0 h 10 m 26,0 h 10 m 40,0 h 10 m 162,0 h 10 m 0,0 h 22 m -224,0 h 20 m 204,0 h 20 m -244,0 c 6.66667,0 10,3.333333 10,10 m 224,0 c 0,-6.666667 3.33333,-10 10,-10 M 335,71 v 24 m 224,0 V 71 M 335,95 c 0,6.66667 3.33333,10 10,10 m 204,0 c 6.66667,0 10,-3.33333 10,-10 m -214,10 h 10 m 162.709,0 H 549 m 20,-44 h 10 m 30,0 h 10 m 0,0 h 10 m 78,0 h 10 m -412,0 h 20 m -1,0 c -6,0 -9,-3.333333 -9,-10 V 27 c 0,-6.666667 3.33333,-10 10,-10 m 392,44 h 20 m -20,0 c 6.66667,0 10,-3.333333 10,-10 V 27 c 0,-6.666667 -3.33333,-10 -10,-10 m -392,0 h 10 m 24,0 h 10 m 0,0 h 348 m 20,44 h 10 m 26,0 h 10 m -640,0 h 20 m 620,0 h 20 m -660,0 c 6.66667,0 10,3.333333 10,10 m 640,0 c 0,-6.666667 3.33333,-10 10,-10 M 153,71 v 58 m 640,0 V 71 m -640,58 c 0,6.66667 3.33333,10 10,10 m 620,0 c 6.66667,0 10,-3.33333 10,-10 m -630,10 h 10 m 0,0 h 610 m 23,-78 h -3"
     id="path26"
     sodipodi:nodetypes="cccccccccccccccccccccccccccccccccccccccccccccccccccccccccccccccccccccccccccccccccccccccccccccccccccccccccccccssccccssccccccccccccccccccccccccccccccccc" />
  <polygon
     points="813 61 821 57 821 65"
     id="polygon26" />
  <polygon
     points="813 61 805 57 805 65"
     id="polygon27" />
</svg>
