<?xml version="1.0" encoding="UTF-8"?>
<svg xmlns="http://www.w3.org/2000/svg" width="823" height="213" viewBox="0 0 823 213">
   <defs>
      <style type="text/css">
    @namespace "http://www.w3.org/2000/svg";
    .line                 {fill: none; stroke: #330000; stroke-width: 1;}
    .bold-line            {stroke: #140000; shape-rendering: crispEdges; stroke-width: 2;}
    .thin-line            {stroke: #1F0000; shape-rendering: crispEdges}
    .filled               {fill: #330000; stroke: none;}
    text.terminal         {font-family: Verdana, Sans-serif;
                            font-size: 12px;
                            fill: #140000;
                            font-weight: bold;
                          }
    text.nonterminal      {font-family: Verdana, Sans-serif;
                            font-size: 12px;
                            fill: #1A0000;
                            font-weight: normal;
                          }
    text.regexp           {font-family: Verdana, Sans-serif;
                            font-size: 12px;
                            fill: #1F0000;
                            font-weight: normal;
                          }
    rect, circle, polygon {fill: #330000; stroke: #330000;}
    rect.terminal         {fill: #FF4D4D; stroke: #330000; stroke-width: 1;}
    rect.nonterminal      {fill: #FF9E9E; stroke: #330000; stroke-width: 1;}
    rect.text             {fill: none; stroke: none;}
    polygon.regexp        {fill: #FFC7C7; stroke: #330000; stroke-width: 1;}
  </style>
      <style class="darkreader darkreader--sync" media="screen"/>
   </defs>
   <polygon points="9 61 1 57 1 65"/>
   <polygon points="17 61 9 57 9 65"/>
   <a xmlns:xlink="http://www.w3.org/1999/xlink"
      xlink:href="../call"
      xlink:title="call">
      <rect x="51" y="47" width="40" height="32"/>
      <rect x="49" y="45" width="40" height="32" class="nonterminal"/>
      <text class="nonterminal" x="59" y="65">call</text>
   </a>
   <a xmlns:xlink="http://www.w3.org/1999/xlink"
      xlink:href="../delete"
      xlink:title="delete">
      <rect x="51" y="91" width="60" height="32"/>
      <rect x="49" y="89" width="60" height="32" class="nonterminal"/>
      <text class="nonterminal" x="59" y="109">delete</text>
   </a>
   <a xmlns:xlink="http://www.w3.org/1999/xlink"
      xlink:href="../insert"
      xlink:title="insert">
      <rect x="51" y="135" width="56" height="32"/>
      <rect x="49" y="133" width="56" height="32" class="nonterminal"/>
      <text class="nonterminal" x="59" y="153">insert</text>
   </a>
   <a xmlns:xlink="http://www.w3.org/1999/xlink"
      xlink:href="../update"
      xlink:title="update">
      <rect x="51" y="179" width="64" height="32"/>
      <rect x="49" y="177" width="64" height="32" class="nonterminal"/>
      <text class="nonterminal" x="59" y="197">update</text>
   </a>
   <rect x="175" y="47" width="76" height="32" rx="10"/>
   <rect x="173"
         y="45"
         width="76"
         height="32"
         class="terminal"
         rx="10"/>
   <text class="terminal" x="183" y="65">OPTION</text>
   <rect x="271" y="47" width="26" height="32" rx="10"/>
   <rect x="269"
         y="45"
         width="26"
         height="32"
         class="terminal"
         rx="10"/>
   <text class="terminal" x="279" y="65">(</text>
   <rect x="357" y="47" width="162" height="32" rx="10"/>
   <rect x="355"
         y="45"
         width="162"
         height="32"
         class="terminal"
         rx="10"/>
   <text class="terminal" x="365" y="65">VTABLE_MAX_ROWS</text>
   <rect x="357" y="91" width="184" height="32" rx="10"/>
   <rect x="355"
         y="89"
         width="184"
         height="32"
         class="terminal"
         rx="10"/>
   <text class="terminal" x="365" y="109">SQL_VDBE_MAX_STEPS</text>
   <rect x="581" y="47" width="30" height="32" rx="10"/>
   <rect x="579"
         y="45"
         width="30"
         height="32"
         class="terminal"
         rx="10"/>
   <text class="terminal" x="589" y="65">=</text>
   <a xmlns:xlink="http://www.w3.org/1999/xlink"
      xlink:href="../../sql_types#unsigned"
      xlink:title="unsigned">
      <rect x="631" y="47" width="78" height="32"/>
      <rect x="629" y="45" width="78" height="32" class="nonterminal"/>
      <text class="nonterminal" x="639" y="65">unsigned</text>
   </a>
   <rect x="337" y="3" width="24" height="32" rx="10"/>
   <rect x="335"
         y="1"
         width="24"
         height="32"
         class="terminal"
         rx="10"/>
   <text class="terminal" x="345" y="21">,</text>
   <rect x="749" y="47" width="26" height="32" rx="10"/>
   <rect x="747"
         y="45"
         width="26"
         height="32"
         class="terminal"
         rx="10"/>
   <text class="terminal" x="757" y="65">)</text>
   <path class="line"
         d="m17 61 h2 m20 0 h10 m40 0 h10 m0 0 h24 m-104 0 h20 m84 0 h20 m-124 0 q10 0 10 10 m104 0 q0 -10 10 -10 m-114 10 v24 m104 0 v-24 m-104 24 q0 10 10 10 m84 0 q10 0 10 -10 m-94 10 h10 m60 0 h10 m0 0 h4 m-94 -10 v20 m104 0 v-20 m-104 20 v24 m104 0 v-24 m-104 24 q0 10 10 10 m84 0 q10 0 10 -10 m-94 10 h10 m56 0 h10 m0 0 h8 m-94 -10 v20 m104 0 v-20 m-104 20 v24 m104 0 v-24 m-104 24 q0 10 10 10 m84 0 q10 0 10 -10 m-94 10 h10 m64 0 h10 m40 -132 h10 m76 0 h10 m0 0 h10 m26 0 h10 m40 0 h10 m162 0 h10 m0 0 h22 m-224 0 h20 m204 0 h20 m-244 0 q10 0 10 10 m224 0 q0 -10 10 -10 m-234 10 v24 m224 0 v-24 m-224 24 q0 10 10 10 m204 0 q10 0 10 -10 m-214 10 h10 m184 0 h10 m20 -44 h10 m30 0 h10 m0 0 h10 m78 0 h10 m-412 0 l20 0 m-1 0 q-9 0 -9 -10 l0 -24 q0 -10 10 -10 m392 44 l20 0 m-20 0 q10 0 10 -10 l0 -24 q0 -10 -10 -10 m-392 0 h10 m24 0 h10 m0 0 h348 m20 44 h10 m26 0 h10 m-640 0 h20 m620 0 h20 m-660 0 q10 0 10 10 m640 0 q0 -10 10 -10 m-650 10 v58 m640 0 v-58 m-640 58 q0 10 10 10 m620 0 q10 0 10 -10 m-630 10 h10 m0 0 h610 m23 -78 h-3"/>
   <polygon points="813 61 821 57 821 65"/>
   <polygon points="813 61 805 57 805 65"/>
</svg>
