<?xml version="1.0" encoding="UTF-8"?>
<svg xmlns="http://www.w3.org/2000/svg" width="819" height="141" viewBox="0 0 819 141">
   <defs>
      <style type="text/css">
    @namespace "http://www.w3.org/2000/svg";
    .line                 {fill: none; stroke: #330000; stroke-width: 1;}
    .bold-line            {stroke: #140000; shape-rendering: crispEdges; stroke-width: 2;}
    .thin-line            {stroke: #1F0000; shape-rendering: crispEdges}
    .filled               {fill: #330000; stroke: none;}
    text.terminal         {font-family: Verdana, Sans-serif;
                            font-size: 12px;
                            fill: #140000;
                            font-weight: bold;
                          }
    text.nonterminal      {font-family: Verdana, Sans-serif;
                            font-size: 12px;
                            fill: #1A0000;
                            font-weight: normal;
                          }
    text.regexp           {font-family: Verdana, Sans-serif;
                            font-size: 12px;
                            fill: #1F0000;
                            font-weight: normal;
                          }
    rect, circle, polygon {fill: #330000; stroke: #330000;}
    rect.terminal         {fill: #FF4D4D; stroke: #330000; stroke-width: 1;}
    rect.nonterminal      {fill: #FF9E9E; stroke: #330000; stroke-width: 1;}
    rect.text             {fill: none; stroke: none;}
    polygon.regexp        {fill: #FFC7C7; stroke: #330000; stroke-width: 1;}
  </style>
      <style class="darkreader darkreader--sync" media="screen"/>
   </defs>
   <polygon points="9 61 1 57 1 65"/>
   <polygon points="17 61 9 57 9 65"/>
   <a xmlns:xlink="http://www.w3.org/1999/xlink"
      xlink:href="../select"
      xlink:title="select">
      <rect x="51" y="47" width="58" height="32"/>
      <rect x="49" y="45" width="58" height="32" class="nonterminal"/>
      <text class="nonterminal" x="59" y="65">select</text>
   </a>
   <a xmlns:xlink="http://www.w3.org/1999/xlink"
      xlink:href="../values"
      xlink:title="values">
      <rect x="51" y="91" width="60" height="32"/>
      <rect x="49" y="89" width="60" height="32" class="nonterminal"/>
      <text class="nonterminal" x="59" y="109">values</text>
   </a>
   <rect x="171" y="47" width="76" height="32" rx="10"/>
   <rect x="169"
         y="45"
         width="76"
         height="32"
         class="terminal"
         rx="10"/>
   <text class="terminal" x="179" y="65">OPTION</text>
   <rect x="267" y="47" width="26" height="32" rx="10"/>
   <rect x="265"
         y="45"
         width="26"
         height="32"
         class="terminal"
         rx="10"/>
   <text class="terminal" x="275" y="65">(</text>
   <rect x="353" y="47" width="162" height="32" rx="10"/>
   <rect x="351"
         y="45"
         width="162"
         height="32"
         class="terminal"
         rx="10"/>
   <text class="terminal" x="361" y="65">VTABLE_MAX_ROWS</text>
   <rect x="353" y="91" width="184" height="32" rx="10"/>
   <rect x="351"
         y="89"
         width="184"
         height="32"
         class="terminal"
         rx="10"/>
   <text class="terminal" x="361" y="109">SQL_VDBE_MAX_STEPS</text>
   <rect x="577" y="47" width="30" height="32" rx="10"/>
   <rect x="575"
         y="45"
         width="30"
         height="32"
         class="terminal"
         rx="10"/>
   <text class="terminal" x="585" y="65">=</text>
   <a xmlns:xlink="http://www.w3.org/1999/xlink"
      xlink:href="../../sql_types#unsigned"
      xlink:title="unsigned">
      <rect x="627" y="47" width="78" height="32"/>
      <rect x="625" y="45" width="78" height="32" class="nonterminal"/>
      <text class="nonterminal" x="635" y="65">unsigned</text>
   </a>
   <rect x="333" y="3" width="24" height="32" rx="10"/>
   <rect x="331"
         y="1"
         width="24"
         height="32"
         class="terminal"
         rx="10"/>
   <text class="terminal" x="341" y="21">,</text>
   <rect x="745" y="47" width="26" height="32" rx="10"/>
   <rect x="743"
         y="45"
         width="26"
         height="32"
         class="terminal"
         rx="10"/>
   <text class="terminal" x="753" y="65">)</text>
   <path class="line"
         d="m17 61 h2 m20 0 h10 m58 0 h10 m0 0 h2 m-100 0 h20 m80 0 h20 m-120 0 q10 0 10 10 m100 0 q0 -10 10 -10 m-110 10 v24 m100 0 v-24 m-100 24 q0 10 10 10 m80 0 q10 0 10 -10 m-90 10 h10 m60 0 h10 m40 -44 h10 m76 0 h10 m0 0 h10 m26 0 h10 m40 0 h10 m162 0 h10 m0 0 h22 m-224 0 h20 m204 0 h20 m-244 0 q10 0 10 10 m224 0 q0 -10 10 -10 m-234 10 v24 m224 0 v-24 m-224 24 q0 10 10 10 m204 0 q10 0 10 -10 m-214 10 h10 m184 0 h10 m20 -44 h10 m30 0 h10 m0 0 h10 m78 0 h10 m-412 0 l20 0 m-1 0 q-9 0 -9 -10 l0 -24 q0 -10 10 -10 m392 44 l20 0 m-20 0 q10 0 10 -10 l0 -24 q0 -10 -10 -10 m-392 0 h10 m24 0 h10 m0 0 h348 m20 44 h10 m26 0 h10 m-640 0 h20 m620 0 h20 m-660 0 q10 0 10 10 m640 0 q0 -10 10 -10 m-650 10 v58 m640 0 v-58 m-640 58 q0 10 10 10 m620 0 q10 0 10 -10 m-630 10 h10 m0 0 h610 m23 -78 h-3"/>
   <polygon points="809 61 817 57 817 65"/>
   <polygon points="809 61 801 57 801 65"/>
</svg>
