<?xml version="1.0" encoding="UTF-8" standalone="no"?>
<svg
   width="685"
   height="283"
   version="1.1"
   id="svg24"
   viewBox="0 0 685 283"
   sodipodi:docname="dql.svg"
   inkscape:version="1.4 (e7c3feb100, 2024-10-09)"
   xmlns:inkscape="http://www.inkscape.org/namespaces/inkscape"
   xmlns:sodipodi="http://sodipodi.sourceforge.net/DTD/sodipodi-0.dtd"
   xmlns:xlink="http://www.w3.org/1999/xlink"
   xmlns="http://www.w3.org/2000/svg"
   xmlns:svg="http://www.w3.org/2000/svg">
  <sodipodi:namedview
     id="namedview24"
     pagecolor="#ffffff"
     bordercolor="#666666"
     borderopacity="1.0"
     inkscape:showpageshadow="2"
     inkscape:pageopacity="0.0"
     inkscape:pagecheckerboard="0"
     inkscape:deskcolor="#d1d1d1"
     inkscape:zoom="1.5839416"
     inkscape:cx="484.23502"
     inkscape:cy="141.73502"
     inkscape:window-width="1858"
     inkscape:window-height="1014"
     inkscape:window-x="62"
     inkscape:window-y="29"
     inkscape:window-maximized="1"
     inkscape:current-layer="svg24" />
  <defs
     id="defs1">
    <style
       type="text/css"
       id="style1">@namespace &quot;http://www.w3.org/2000/svg&quot;;.line { fill: none; stroke: #330000; stroke-width: 1; }
.bold-line { stroke: #140000; shape-rendering: crispEdges; stroke-width: 2; }
.thin-line { stroke: #1F0000; shape-rendering: crispEdges }
.filled { fill: #330000; stroke: none; }
text.terminal { font-family: Verdana, Sans-serif;                            font-size: 12px;                            fill: #140000;                            font-weight: bold; }
text.nonterminal { font-family: Verdana, Sans-serif;                            font-size: 12px;                            fill: #1A0000;                            font-weight: normal; }
text.regexp { font-family: Verdana, Sans-serif;                            font-size: 12px;                            fill: #1F0000;                            font-weight: normal; }
rect, circle, polygon { fill: #330000; stroke: #330000; }
rect.terminal { fill: #FF4D4D; stroke: #330000; stroke-width: 1; }
rect.nonterminal { fill: #FF9E9E; stroke: #330000; stroke-width: 1; }
rect.text { fill: none; stroke: none; }
polygon.regexp { fill: #FFC7C7; stroke: #330000; stroke-width: 1; }
</style>
  </defs>
  <polygon
     points="11 17 3 13 3 21"
     id="polygon1" />
  <polygon
     points="19 17 11 13 11 21"
     id="polygon2" />
  <a
     xlink:href="../with"
     xlink:title="with"
     id="a3">
    <rect
       x="73"
       y="35"
       width="46"
       height="32"
       id="rect2" />
    <rect
       x="71"
       y="33"
       width="46"
       height="32"
       class="nonterminal"
       id="rect3" />
    <text
       class="nonterminal"
       x="81"
       y="53"
       id="text3">with</text>
  </a>
  <a
     xlink:href="../select"
     xlink:title="select"
     id="a5">
    <rect
       x="159"
       y="3"
       width="58"
       height="32"
       id="rect4" />
    <rect
       x="157"
       y="1"
       width="58"
       height="32"
       class="nonterminal"
       id="rect5" />
    <text
       class="nonterminal"
       x="167"
       y="21"
       id="text5">select</text>
  </a>
  <a
     xlink:href="../values"
     xlink:title="values"
     id="a7">
    <rect
       x="53"
       y="79"
       width="60"
       height="32"
       id="rect6" />
    <rect
       x="51"
       y="77"
       width="60"
       height="32"
       class="nonterminal"
       id="rect7" />
    <text
       class="nonterminal"
       x="61"
       y="97"
       id="text7">values</text>
  </a>
  <rect
     x="45"
     y="189"
     width="76"
     height="32"
     rx="10"
     id="rect8" />
  <rect
     x="43"
     y="187"
     width="76"
     height="32"
     class="terminal"
     rx="10"
     id="rect9" />
  <text
     class="terminal"
     x="53"
     y="207"
     id="text9">OPTION</text>
  <rect
     x="141"
     y="189"
     width="26"
     height="32"
     rx="10"
     id="rect10" />
  <rect
     x="139"
     y="187"
     width="26"
     height="32"
     class="terminal"
     rx="10"
     id="rect11" />
  <text
     class="terminal"
     x="149"
     y="207"
     id="text11">(</text>
  <rect
     x="227"
     y="189"
     width="168"
     height="32"
     rx="10"
     id="rect12" />
  <rect
     x="225"
     y="187"
     width="168"
     height="32"
     class="terminal"
     rx="10"
     id="rect13" />
  <text
     class="terminal"
     x="235"
     y="207"
     id="text13">sql_motion_row_max</text>
  <rect
     x="227"
     y="233"
     width="176"
     height="32"
     rx="10"
     id="rect14" />
  <rect
     x="225"
     y="231"
     width="176"
     height="32"
     class="terminal"
     rx="10"
     id="rect15" />
  <text
     class="terminal"
     x="235"
     y="251"
     id="text15">sql_vdbe_opcode_max</text>
  <rect
     x="443"
     y="189"
     width="30"
     height="32"
     rx="10"
     id="rect16" />
  <rect
     x="441"
     y="187"
     width="30"
     height="32"
     class="terminal"
     rx="10"
     id="rect17" />
  <text
     class="terminal"
     x="451"
     y="207"
     id="text17">=</text>
  <a
     xlink:href="../../sql_types#unsigned"
     xlink:title="unsigned"
     id="a19">
    <rect
       x="493"
       y="189"
       width="78"
       height="32"
       id="rect18" />
    <rect
       x="491"
       y="187"
       width="78"
       height="32"
       class="nonterminal"
       id="rect19" />
    <text
       class="nonterminal"
       x="501"
       y="207"
       id="text19">unsigned</text>
  </a>
  <rect
     x="207"
     y="145"
     width="24"
     height="32"
     rx="10"
     id="rect20" />
  <rect
     x="205"
     y="143"
     width="24"
     height="32"
     class="terminal"
     rx="10"
     id="rect21" />
  <text
     class="terminal"
     x="215"
     y="163"
     id="text21">,</text>
  <rect
     x="611"
     y="189"
     width="26"
     height="32"
     rx="10"
     id="rect22" />
  <rect
     x="609"
     y="187"
     width="26"
     height="32"
     class="terminal"
     rx="10"
     id="rect23" />
  <text
     class="terminal"
     x="619"
     y="207"
     id="text23">)</text>
  <path
     class="line"
     d="m19 17 h2 m40 0 h10 m0 0 h56 m-86 0 h20 m66 0 h20 m-106 0 q10 0 10 10 m86 0 q0 -10 10 -10 m-96 10 v12 m86 0 v-12 m-86 12 q0 10 10 10 m66 0 q10 0 10 -10 m-76 10 h10 m46 0 h10 m20 -32 h10 m58 0 h10 m-204 0 h20 m184 0 h20 m-224 0 q10 0 10 10 m204 0 q0 -10 10 -10 m-214 10 v56 m204 0 v-56 m-204 56 q0 10 10 10 m184 0 q10 0 10 -10 m-194 10 h10 m60 0 h10 m0 0 h104 m22 -76 l2 0 m2 0 l2 0 m2 0 l2 0 m-256 186 l2 0 m2 0 l2 0 m2 0 l2 0 m22 0 h10 m76 0 h10 m0 0 h10 m26 0 h10 m40 0 h10 m168 0 h10 m0 0 h8 m-216 0 h20 m196 0 h20 m-236 0 q10 0 10 10 m216 0 q0 -10 10 -10 m-226 10 v24 m216 0 v-24 m-216 24 q0 10 10 10 m196 0 q10 0 10 -10 m-206 10 h10 m176 0 h10 m20 -44 h10 m30 0 h10 m0 0 h10 m78 0 h10 m-404 0 l20 0 m-1 0 q-9 0 -9 -10 l0 -24 q0 -10 10 -10 m384 44 l20 0 m-20 0 q10 0 10 -10 l0 -24 q0 -10 -10 -10 m-384 0 h10 m24 0 h10 m0 0 h340 m20 44 h10 m26 0 h10 m-632 0 h20 m612 0 h20 m-652 0 q10 0 10 10 m632 0 q0 -10 10 -10 m-642 10 v58 m632 0 v-58 m-632 58 q0 10 10 10 m612 0 q10 0 10 -10 m-622 10 h10 m0 0 h602 m23 -78 h-3"
     id="path23" />
  <polygon
     points="675 203 683 199 683 207"
     id="polygon23" />
  <polygon
     points="675 203 667 199 667 207"
     id="polygon24" />
</svg>
