<?xml version="1.0" encoding="UTF-8"?>
<svg xmlns="http://www.w3.org/2000/svg" width="693" height="283" viewBox="0 0 693 283">
   <defs>
      <style type="text/css">
    @namespace "http://www.w3.org/2000/svg";
    .line                 {fill: none; stroke: #330000; stroke-width: 1;}
    .bold-line            {stroke: #140000; shape-rendering: crispEdges; stroke-width: 2;}
    .thin-line            {stroke: #1F0000; shape-rendering: crispEdges}
    .filled               {fill: #330000; stroke: none;}
    text.terminal         {font-family: Verdana, Sans-serif;
                            font-size: 12px;
                            fill: #140000;
                            font-weight: bold;
                          }
    text.nonterminal      {font-family: Verdana, Sans-serif;
                            font-size: 12px;
                            fill: #1A0000;
                            font-weight: normal;
                          }
    text.regexp           {font-family: Verdana, Sans-serif;
                            font-size: 12px;
                            fill: #1F0000;
                            font-weight: normal;
                          }
    rect, circle, polygon {fill: #330000; stroke: #330000;}
    rect.terminal         {fill: #FF4D4D; stroke: #330000; stroke-width: 1;}
    rect.nonterminal      {fill: #FF9E9E; stroke: #330000; stroke-width: 1;}
    rect.text             {fill: none; stroke: none;}
    polygon.regexp        {fill: #FFC7C7; stroke: #330000; stroke-width: 1;}
  </style>
   </defs>
   <polygon points="11 17 3 13 3 21"/>
   <polygon points="19 17 11 13 11 21"/>
   <a xmlns:xlink="http://www.w3.org/1999/xlink"
      xlink:href="../with"
      xlink:title="with">
      <rect x="73" y="35" width="46" height="32"/>
      <rect x="71" y="33" width="46" height="32" class="nonterminal"/>
      <text class="nonterminal" x="81" y="53">with</text>
   </a>
   <a xmlns:xlink="http://www.w3.org/1999/xlink"
      xlink:href="../select"
      xlink:title="select">
      <rect x="159" y="3" width="58" height="32"/>
      <rect x="157" y="1" width="58" height="32" class="nonterminal"/>
      <text class="nonterminal" x="167" y="21">select</text>
   </a>
   <a xmlns:xlink="http://www.w3.org/1999/xlink"
      xlink:href="../values"
      xlink:title="values">
      <rect x="53" y="79" width="60" height="32"/>
      <rect x="51" y="77" width="60" height="32" class="nonterminal"/>
      <text class="nonterminal" x="61" y="97">values</text>
   </a>
   <rect x="45" y="189" width="76" height="32" rx="10"/>
   <rect x="43"
         y="187"
         width="76"
         height="32"
         class="terminal"
         rx="10"/>
   <text class="terminal" x="53" y="207">OPTION</text>
   <rect x="141" y="189" width="26" height="32" rx="10"/>
   <rect x="139"
         y="187"
         width="26"
         height="32"
         class="terminal"
         rx="10"/>
   <text class="terminal" x="149" y="207">(</text>
   <rect x="227" y="189" width="162" height="32" rx="10"/>
   <rect x="225"
         y="187"
         width="162"
         height="32"
         class="terminal"
         rx="10"/>
   <text class="terminal" x="235" y="207">VTABLE_MAX_ROWS</text>
   <rect x="227" y="233" width="184" height="32" rx="10"/>
   <rect x="225"
         y="231"
         width="184"
         height="32"
         class="terminal"
         rx="10"/>
   <text class="terminal" x="235" y="251">SQL_VDBE_MAX_STEPS</text>
   <rect x="451" y="189" width="30" height="32" rx="10"/>
   <rect x="449"
         y="187"
         width="30"
         height="32"
         class="terminal"
         rx="10"/>
   <text class="terminal" x="459" y="207">=</text>
   <a xmlns:xlink="http://www.w3.org/1999/xlink"
      xlink:href="../../sql_types#unsigned"
      xlink:title="unsigned">
      <rect x="501" y="189" width="78" height="32"/>
      <rect x="499" y="187" width="78" height="32" class="nonterminal"/>
      <text class="nonterminal" x="509" y="207">unsigned</text>
   </a>
   <rect x="207" y="145" width="24" height="32" rx="10"/>
   <rect x="205"
         y="143"
         width="24"
         height="32"
         class="terminal"
         rx="10"/>
   <text class="terminal" x="215" y="163">,</text>
   <rect x="619" y="189" width="26" height="32" rx="10"/>
   <rect x="617"
         y="187"
         width="26"
         height="32"
         class="terminal"
         rx="10"/>
   <text class="terminal" x="627" y="207">)</text>
   <path class="line"
         d="m19 17 h2 m40 0 h10 m0 0 h56 m-86 0 h20 m66 0 h20 m-106 0 q10 0 10 10 m86 0 q0 -10 10 -10 m-96 10 v12 m86 0 v-12 m-86 12 q0 10 10 10 m66 0 q10 0 10 -10 m-76 10 h10 m46 0 h10 m20 -32 h10 m58 0 h10 m-204 0 h20 m184 0 h20 m-224 0 q10 0 10 10 m204 0 q0 -10 10 -10 m-214 10 v56 m204 0 v-56 m-204 56 q0 10 10 10 m184 0 q10 0 10 -10 m-194 10 h10 m60 0 h10 m0 0 h104 m22 -76 l2 0 m2 0 l2 0 m2 0 l2 0 m-256 186 l2 0 m2 0 l2 0 m2 0 l2 0 m22 0 h10 m76 0 h10 m0 0 h10 m26 0 h10 m40 0 h10 m162 0 h10 m0 0 h22 m-224 0 h20 m204 0 h20 m-244 0 q10 0 10 10 m224 0 q0 -10 10 -10 m-234 10 v24 m224 0 v-24 m-224 24 q0 10 10 10 m204 0 q10 0 10 -10 m-214 10 h10 m184 0 h10 m20 -44 h10 m30 0 h10 m0 0 h10 m78 0 h10 m-412 0 l20 0 m-1 0 q-9 0 -9 -10 l0 -24 q0 -10 10 -10 m392 44 l20 0 m-20 0 q10 0 10 -10 l0 -24 q0 -10 -10 -10 m-392 0 h10 m24 0 h10 m0 0 h348 m20 44 h10 m26 0 h10 m-640 0 h20 m620 0 h20 m-660 0 q10 0 10 10 m640 0 q0 -10 10 -10 m-650 10 v58 m640 0 v-58 m-640 58 q0 10 10 10 m620 0 q10 0 10 -10 m-630 10 h10 m0 0 h610 m23 -78 h-3"/>
   <polygon points="683 203 691 199 691 207"/>
   <polygon points="683 203 675 199 675 207"/>
</svg>
