<?xml version="1.0" encoding="UTF-8" standalone="no"?>
<svg
   width="693"
   height="283"
   viewBox="0 0 693 283"
   version="1.1"
   id="svg24"
   sodipodi:docname="dql.svg"
   inkscape:version="1.3.2 (091e20ef0f, 2023-11-25)"
   xmlns:inkscape="http://www.inkscape.org/namespaces/inkscape"
   xmlns:sodipodi="http://sodipodi.sourceforge.net/DTD/sodipodi-0.dtd"
   xmlns:xlink="http://www.w3.org/1999/xlink"
   xmlns="http://www.w3.org/2000/svg"
   xmlns:svg="http://www.w3.org/2000/svg">
  <sodipodi:namedview
     id="namedview24"
     pagecolor="#ffffff"
     bordercolor="#666666"
     borderopacity="1.0"
     inkscape:showpageshadow="2"
     inkscape:pageopacity="0.0"
     inkscape:pagecheckerboard="0"
     inkscape:deskcolor="#d1d1d1"
     inkscape:zoom="3.0039284"
     inkscape:cx="340.72051"
     inkscape:cy="197.07527"
     inkscape:window-width="1858"
     inkscape:window-height="1014"
     inkscape:window-x="62"
     inkscape:window-y="29"
     inkscape:window-maximized="1"
     inkscape:current-layer="svg24" />
  <defs
     id="defs1">
    <style
       type="text/css"
       id="style1">@namespace &quot;http://www.w3.org/2000/svg&quot;;.line { fill: none; stroke: #330000; stroke-width: 1; }
.bold-line { stroke: #140000; shape-rendering: crispEdges; stroke-width: 2; }
.thin-line { stroke: #1F0000; shape-rendering: crispEdges }
.filled { fill: #330000; stroke: none; }
text.terminal { font-family: Verdana, Sans-serif;                            font-size: 12px;                            fill: #140000;                            font-weight: bold; }
text.nonterminal { font-family: Verdana, Sans-serif;                            font-size: 12px;                            fill: #1A0000;                            font-weight: normal; }
text.regexp { font-family: Verdana, Sans-serif;                            font-size: 12px;                            fill: #1F0000;                            font-weight: normal; }
rect, circle, polygon { fill: #330000; stroke: #330000; }
rect.terminal { fill: #FF4D4D; stroke: #330000; stroke-width: 1; }
rect.nonterminal { fill: #FF9E9E; stroke: #330000; stroke-width: 1; }
rect.text { fill: none; stroke: none; }
polygon.regexp { fill: #FFC7C7; stroke: #330000; stroke-width: 1; }
</style>
  </defs>
  <polygon
     points="11 17 3 13 3 21"
     id="polygon1" />
  <polygon
     points="19 17 11 13 11 21"
     id="polygon2" />
  <a
     xlink:href="../with"
     xlink:title="with"
     id="a3">
    <rect
       x="73"
       y="35"
       width="46"
       height="32"
       id="rect2" />
    <rect
       x="71"
       y="33"
       width="46"
       height="32"
       class="nonterminal"
       id="rect3" />
    <text
       class="nonterminal"
       x="81"
       y="53"
       id="text3">with</text>
  </a>
  <a
     xlink:href="../select"
     xlink:title="select"
     id="a5">
    <rect
       x="159"
       y="3"
       width="58"
       height="32"
       id="rect4" />
    <rect
       x="157"
       y="1"
       width="58"
       height="32"
       class="nonterminal"
       id="rect5" />
    <text
       class="nonterminal"
       x="167"
       y="21"
       id="text5">select</text>
  </a>
  <a
     xlink:href="../values"
     xlink:title="values"
     id="a7">
    <rect
       x="53"
       y="79"
       width="60"
       height="32"
       id="rect6" />
    <rect
       x="51"
       y="77"
       width="60"
       height="32"
       class="nonterminal"
       id="rect7" />
    <text
       class="nonterminal"
       x="61"
       y="97"
       id="text7">values</text>
  </a>
  <rect
     x="45"
     y="189"
     width="76"
     height="32"
     rx="10"
     id="rect8" />
  <rect
     x="43"
     y="187"
     width="76"
     height="32"
     class="terminal"
     rx="10"
     id="rect9" />
  <text
     class="terminal"
     x="53"
     y="207"
     id="text9">OPTION</text>
  <rect
     x="141"
     y="189"
     width="26"
     height="32"
     rx="10"
     id="rect10" />
  <rect
     x="139"
     y="187"
     width="26"
     height="32"
     class="terminal"
     rx="10"
     id="rect11" />
  <text
     class="terminal"
     x="149"
     y="207"
     id="text11">(</text>
  <rect
     x="227"
     y="189"
     width="162"
     height="32"
     rx="10"
     id="rect12" />
  <rect
     x="225"
     y="187"
     width="162"
     height="32"
     class="terminal"
     rx="10"
     id="rect13" />
  <text
     class="terminal"
     x="235"
     y="207"
     id="text13">VTABLE_MAX_ROWS</text>
  <rect
     x="226.76993"
     y="233"
     width="162.83356"
     height="32"
     rx="10"
     id="rect14"
     style="stroke-width:1"
     ry="10" />
  <rect
     x="225"
     y="231"
     width="162.83356"
     height="32"
     class="terminal"
     rx="10"
     id="rect15"
     ry="10" />
  <text
     class="terminal"
     x="243.75955"
     y="251"
     id="text15">VDBE_MAX_STEPS</text>
  <rect
     x="451"
     y="189"
     width="30"
     height="32"
     rx="10"
     id="rect16" />
  <rect
     x="449"
     y="187"
     width="30"
     height="32"
     class="terminal"
     rx="10"
     id="rect17" />
  <text
     class="terminal"
     x="459"
     y="207"
     id="text17">=</text>
  <a
     xlink:href="../../sql_types#unsigned"
     xlink:title="unsigned"
     id="a19">
    <rect
       x="501"
       y="189"
       width="78"
       height="32"
       id="rect18" />
    <rect
       x="499"
       y="187"
       width="78"
       height="32"
       class="nonterminal"
       id="rect19" />
    <text
       class="nonterminal"
       x="509"
       y="207"
       id="text19">unsigned</text>
  </a>
  <rect
     x="207"
     y="145"
     width="24"
     height="32"
     rx="10"
     id="rect20" />
  <rect
     x="205"
     y="143"
     width="24"
     height="32"
     class="terminal"
     rx="10"
     id="rect21" />
  <text
     class="terminal"
     x="215"
     y="163"
     id="text21">,</text>
  <rect
     x="619"
     y="189"
     width="26"
     height="32"
     rx="10"
     id="rect22" />
  <rect
     x="617"
     y="187"
     width="26"
     height="32"
     class="terminal"
     rx="10"
     id="rect23" />
  <text
     class="terminal"
     x="627"
     y="207"
     id="text23">)</text>
  <path
     class="line"
     d="m 19,17 h 2 m 40,0 h 10 m 0,0 h 56 m -86,0 h 20 m 66,0 h 20 M 41,17 c 6.666667,0 10,3.333333 10,10 m 86,0 c 0,-6.666667 3.33333,-10 10,-10 M 51,27 v 12 m 86,0 V 27 M 51,39 c 0,6.666667 3.333333,10 10,10 m 66,0 c 6.66667,0 10,-3.333333 10,-10 M 61,49 h 10 m 46,0 h 10 m 20,-32 h 10 m 58,0 h 10 M 21,17 h 20 m 184,0 h 20 M 21,17 c 6.666667,0 10,3.333333 10,10 m 204,0 c 0,-6.666667 3.33333,-10 10,-10 M 31,27 v 56 m 204,0 V 27 M 31,83 c 0,6.666667 3.333333,10 10,10 m 184,0 c 6.66667,0 10,-3.333333 10,-10 M 41,93 h 10 m 60,0 h 10 m 0,0 h 104 m 22,-76 h 2 m 2,0 h 2 m 2,0 h 2 M 1,203 h 2 m 2,0 h 2 m 2,0 h 2 m 22,0 h 10 m 76,0 h 10 m 0,0 h 10 m 26,0 h 10 m 40,0 h 10 m 162,0 h 10 m 0,0 h 22 m -224,0 h 20 m 204,0 h 20 m -244,0 c 6.66667,0 10,3.33333 10,10 m 224,0 c 0,-6.66667 3.33333,-10 10,-10 m -234,10 v 24 m 224,0 v -24 m -224,24 c 0,6.66667 3.33333,10 10,10 m 204,0 c 6.66667,0 10,-3.33333 10,-10 m -214,10 h 10 m 162.98498,0 H 419 m 20,-44 h 10 m 30,0 h 10 m 0,0 h 10 m 78,0 h 10 m -412,0 h 20 m -1,0 c -6,0 -9,-3.33333 -9,-10 v -24 c 0,-6.66667 3.33333,-10 10,-10 m 392,44 h 20 m -20,0 c 6.66667,0 10,-3.33333 10,-10 v -24 c 0,-6.66667 -3.33333,-10 -10,-10 m -392,0 h 10 m 24,0 h 10 m 0,0 h 348 m 20,44 h 10 m 26,0 h 10 m -640,0 h 20 m 620,0 h 20 m -660,0 c 6.666667,0 10,3.33333 10,10 m 640,0 c 0,-6.66667 3.33333,-10 10,-10 M 23,213 v 58 m 640,0 V 213 M 23,271 c 0,6.66667 3.333333,10 10,10 m 620,0 c 6.66667,0 10,-3.33333 10,-10 M 33,281 h 10 m 0,0 h 610 m 23,-78 h -3"
     id="path23"
     sodipodi:nodetypes="cccccccccccccccccccccccccccccccccccccccccccccccccccccccccccccccccccccccccccccccccccccccccccccccccccccccccccccssccccssccccccccccccccccccccccccccccccccc" />
  <polygon
     points="683 203 691 199 691 207"
     id="polygon23" />
  <polygon
     points="683 203 675 199 675 207"
     id="polygon24" />
</svg>
