<?xml version="1.0" encoding="UTF-8" standalone="no"?>
<svg
   width="543"
   height="183"
   viewBox="0 0 543 183"
   version="1.1"
   id="svg26"
   sodipodi:docname="drop_procedure.svg"
   inkscape:version="1.3.2 (091e20ef0f, 2023-11-25)"
   xmlns:inkscape="http://www.inkscape.org/namespaces/inkscape"
   xmlns:sodipodi="http://sodipodi.sourceforge.net/DTD/sodipodi-0.dtd"
   xmlns:xlink="http://www.w3.org/1999/xlink"
   xmlns="http://www.w3.org/2000/svg"
   xmlns:svg="http://www.w3.org/2000/svg">
  <sodipodi:namedview
     id="namedview26"
     pagecolor="#ffffff"
     bordercolor="#666666"
     borderopacity="1.0"
     inkscape:showpageshadow="2"
     inkscape:pageopacity="0.0"
     inkscape:pagecheckerboard="0"
     inkscape:deskcolor="#d1d1d1"
     inkscape:zoom="1.198895"
     inkscape:cx="271.50001"
     inkscape:cy="91.334103"
     inkscape:window-width="1854"
     inkscape:window-height="1011"
     inkscape:window-x="66"
     inkscape:window-y="32"
     inkscape:window-maximized="1"
     inkscape:current-layer="svg26" />
  <defs
     id="defs1">
    <style
       type="text/css"
       id="style1">@namespace &quot;http://www.w3.org/2000/svg&quot;;.line { fill: none; stroke: #330000; stroke-width: 1; }
.bold-line { stroke: #140000; shape-rendering: crispEdges; stroke-width: 2; }
.thin-line { stroke: #1F0000; shape-rendering: crispEdges }
.filled { fill: #330000; stroke: none; }
text.terminal { font-family: HelveticaNeueCyr, Sans-serif;                            font-size: 14px;                            fill: #140000;                            font-weight: bold; }
text.nonterminal { font-family: HelveticaNeueCyr, Sans-serif;                            font-size: 14px;                            fill: #1A0000;                            font-weight: normal; }
text.regexp { font-family: HelveticaNeueCyr, Sans-serif;                            font-size: 14px;                            fill: #1F0000;                            font-weight: normal; }
rect, circle, polygon { fill: #330000; stroke: #330000; }
rect.terminal { fill: #FF4D4D; stroke: #330000; stroke-width: 1; }
rect.nonterminal { fill: #FF9E9E; stroke: #330000; stroke-width: 1; }
rect.text { fill: none; stroke: none; }
polygon.regexp { fill: #FFC7C7; stroke: #330000; stroke-width: 1; }
</style>
  </defs>
  <path
     id="polygon1"
     style="fill:#330000;stroke:#330000"
     d="M 9,61 1,57 v 8 z" />
  <path
     id="polygon2"
     style="fill:#330000;stroke:#330000"
     d="M 17,61 9,57 v 8 z" />
  <path
     id="rect2"
     style="fill:#330000;stroke:#330000"
     d="m 41,47 h 126 c 5.54,0 10,4.46 10,10 v 12 c 0,5.54 -4.46,10 -10,10 H 41 C 35.46,79 31,74.54 31,69 V 57 c 0,-5.54 4.46,-10 10,-10 z" />
  <path
     id="rect3"
     class="terminal"
     style="fill:#ff4d4d;stroke:#330000"
     d="m 39,45 h 126 c 5.54,0 10,4.46 10,10 v 12 c 0,5.54 -4.46,10 -10,10 H 39 C 33.46,77 29,72.54 29,67 V 55 c 0,-5.54 4.46,-10 10,-10 z" />
  <path
     d="m 35.98,65 v -9.968 h 4.032 q 2.324,0 3.57,1.288 1.26,1.288 1.26,3.696 0,2.408 -1.26,3.696 Q 42.336,65 40.012,65 Z m 2.17,-1.82 h 1.596 q 2.898,0 2.898,-3.164 0,-1.526 -0.728,-2.338 -0.714,-0.826 -2.17,-0.826 H 38.15 Z m 8.273989,-8.148 h 4.956 q 1.484,0 2.422,0.7 0.938,0.7 0.938,2.128 0,0.868 -0.42,1.526 -0.42,0.644 -1.162,0.924 1.288,0.266 1.47,2.324 0,0.07 0.028,0.434 0.028,0.364 0.056,0.588 0.028,0.21 0.07,0.518 0.042,0.308 0.126,0.518 0.084,0.21 0.196,0.308 h -2.268 q -0.112,-0.224 -0.168,-0.56 -0.056,-0.35 -0.098,-0.882 -0.042,-0.546 -0.042,-0.602 -0.112,-1.05 -0.532,-1.456 -0.406,-0.406 -1.456,-0.406 h -1.946 V 65 h -2.17 z m 2.17,1.722 v 2.758 h 2.072 q 0.91,0 1.414,-0.28 0.518,-0.294 0.518,-1.134 0,-0.784 -0.504,-1.064 -0.49,-0.28 -1.33,-0.28 z m 12.362002,-1.96 q 2.184,0 3.528,1.456 1.358,1.442 1.358,3.78 0,2.338 -1.358,3.78 -1.344,1.428 -3.542,1.428 -2.212,0 -3.57,-1.428 -1.358,-1.442 -1.358,-3.78 0,-2.366 1.344,-3.794 1.358,-1.442 3.598,-1.442 z m -0.028,1.792 q -1.232,0 -1.974,0.924 -0.728,0.924 -0.728,2.478 0,1.61 0.728,2.52 0.728,0.91 2.002,0.924 1.246,0 1.96,-0.924 0.714,-0.924 0.714,-2.52 0,-1.568 -0.728,-2.478 -0.728,-0.924 -1.974,-0.924 z m 6.425998,-1.554 h 4.298 q 1.68,0 2.66,0.812 0.994,0.798 0.994,2.394 0,1.568 -0.98,2.38 -0.98,0.798 -2.562,0.798 h -2.24 V 65 h -2.17 z m 2.17,1.792 v 2.87 h 1.946 q 1.708,0 1.708,-1.428 0,-1.442 -1.694,-1.442 z m 11.059996,-1.792 h 4.298 q 1.68,0 2.66,0.812 0.994,0.798 0.994,2.394 0,1.568 -0.98,2.38 -0.98,0.798 -2.562,0.798 h -2.24 V 65 h -2.17 z m 2.17,1.792 v 2.87 h 1.946 q 1.708,0 1.708,-1.428 0,-1.442 -1.694,-1.442 z m 7.237997,-1.792 h 4.956 q 1.484,0 2.422,0.7 0.938,0.7 0.938,2.128 0,0.868 -0.42,1.526 -0.42,0.644 -1.162,0.924 1.288,0.266 1.47,2.324 0,0.07 0.028,0.434 0.028,0.364 0.056,0.588 0.028,0.21 0.07,0.518 0.042,0.308 0.126,0.518 0.084,0.21 0.196,0.308 h -2.268 q -0.112,-0.224 -0.168,-0.56 -0.056,-0.35 -0.098,-0.882 -0.042,-0.546 -0.042,-0.602 -0.112,-1.05 -0.532,-1.456 -0.406,-0.406 -1.456,-0.406 h -1.946 V 65 h -2.17 z m 2.17,1.722 v 2.758 h 2.072 q 0.91,0 1.414,-0.28 0.518,-0.294 0.518,-1.134 0,-0.784 -0.504,-1.064 -0.49,-0.28 -1.33,-0.28 z m 12.362008,-1.96 q 2.184,0 3.528,1.456 1.358,1.442 1.358,3.78 0,2.338 -1.358,3.78 -1.344,1.428 -3.542,1.428 -2.212,0 -3.57,-1.428 -1.358002,-1.442 -1.358002,-3.78 0,-2.366 1.344002,-3.794 1.358,-1.442 3.598,-1.442 z m -0.028,1.792 q -1.232,0 -1.974,0.924 -0.728,0.924 -0.728,2.478 0,1.61 0.728,2.52 0.728,0.91 2.002,0.924 1.246,0 1.96,-0.924 0.714,-0.924 0.714,-2.52 0,-1.568 -0.728,-2.478 -0.728,-0.924 -1.974,-0.924 z m 15.316,4.564 q -0.168,1.876 -1.316,2.982 -1.148,1.106 -3.15,1.106 -2.17,0 -3.5,-1.428 -1.316,-1.442 -1.316,-3.808 0,-2.24 1.33,-3.724 1.344,-1.484 3.57,-1.484 1.778,0 2.982,1.008 1.204,1.008 1.33,2.562 h -2.142 q -0.168,-0.826 -0.756,-1.274 -0.574,-0.462 -1.456,-0.462 -0.91,0 -1.54,0.518 -0.616,0.504 -0.868,1.246 -0.252,0.742 -0.252,1.624 0,1.54 0.714,2.464 0.714,0.91 1.918,0.91 2.002,0 2.282,-2.24 z m 8.94598,-6.118 v 1.792 h -5.306 v 2.17 h 4.872 v 1.722 h -4.872 v 2.45 h 5.404 V 65 h -7.574 V 55.032 Z M 130.36799,65 v -9.968 h 4.032 q 2.324,0 3.57,1.288 1.26,1.288 1.26,3.696 0,2.408 -1.26,3.696 -1.246,1.288 -3.57,1.288 z m 2.17,-1.82 h 1.596 q 2.898,0 2.898,-3.164 0,-1.526 -0.728,-2.338 -0.714,-0.826 -2.17,-0.826 h -1.596 z m 16.67398,-8.148 v 5.992 q 0,2.142 -1.036,3.164 -1.022,1.008 -3.206,1.008 -2.212,0 -3.262,-1.022 -1.036,-1.036 -1.036,-3.178 v -5.964 h 2.184 v 5.964 q 0,1.218 0.462,1.806 0.462,0.588 1.68,0.588 1.176,0 1.596,-0.588 0.434,-0.588 0.434,-1.806 v -5.964 z m 1.97399,0 h 4.956 q 1.484,0 2.422,0.7 0.938,0.7 0.938,2.128 0,0.868 -0.42,1.526 -0.42,0.644 -1.162,0.924 1.288,0.266 1.47,2.324 0,0.07 0.028,0.434 0.028,0.364 0.056,0.588 0.028,0.21 0.07,0.518 0.042,0.308 0.126,0.518 0.084,0.21 0.196,0.308 h -2.268 q -0.112,-0.224 -0.168,-0.56 -0.056,-0.35 -0.098,-0.882 -0.042,-0.546 -0.042,-0.602 -0.112,-1.05 -0.532,-1.456 -0.406,-0.406 -1.456,-0.406 h -1.946 V 65 h -2.17 z m 2.17,1.722 v 2.758 h 2.072 q 0.91,0 1.414,-0.28 0.518,-0.294 0.518,-1.134 0,-0.784 -0.504,-1.064 -0.49,-0.28 -1.33,-0.28 z m 15.33,-1.722 v 1.792 h -5.306 v 2.17 h 4.872 v 1.722 h -4.872 v 2.45 h 5.404 V 65 h -7.574 v -9.968 z"
     id="text3"
     class="terminal"
     style="font-weight:bold;font-size:14px;font-family:HelveticaNeueCyr, Sans-serif;fill:#140000"
     aria-label="DROP PROCEDURE" />
  <a
     xlink:href="#name"
     xlink:title="procedure"
     id="a5">
    <path
       id="rect4"
       style="fill:#330000;stroke:#330000"
       d="m 197,47 h 84 v 32 h -84 z" />
    <path
       id="rect5"
       class="nonterminal"
       style="fill:#ff9e9e;stroke:#330000"
       d="m 195,45 h 84 v 32 h -84 z" />
    <path
       d="m 207.016,57.776 v 1.022 q 0.784,-1.246 2.436,-1.246 1.512,0 2.394,1.022 0.896,1.022 0.896,2.772 0,1.75 -0.882,2.8 -0.868,1.036 -2.352,1.036 -1.554,0 -2.422,-1.19 v 3.794 h -1.19 v -10.01 z m 2.254,0.77 q -1.036,0 -1.638,0.756 -0.588,0.742 -0.588,2.058 0,1.316 0.602,2.072 0.616,0.742 1.666,0.742 1.022,0 1.61,-0.756 0.588,-0.756 0.588,-2.058 0,-1.316 -0.602,-2.058 -0.588,-0.756 -1.638,-0.756 z m 8.69401,-0.938 v 1.232 q -0.126,-0.014 -0.308,-0.014 -0.574,0 -0.994,0.182 -0.42,0.168 -0.672,0.448 -0.238,0.28 -0.392,0.7 -0.154,0.42 -0.21,0.84 -0.042,0.42 -0.042,0.952 V 65 h -1.19 v -7.224 h 1.134 v 1.554 q 0.714,-1.722 2.674,-1.722 z m 1.218,0.994 q 0.952,-1.036 2.59,-1.036 1.638,0 2.548,0.994 0.91,0.994 0.91,2.786 0,1.834 -0.91,2.856 -0.91,1.022 -2.562,1.022 -1.652,0 -2.59,-1.008 -0.938,-1.008 -0.938,-2.8 0,-1.778 0.952,-2.814 z m 4.214,0.728 q -0.602,-0.77 -1.652,-0.77 -1.05,0 -1.666,0.77 -0.616,0.77 -0.616,2.058 0,1.33 0.602,2.086 0.616,0.742 1.708,0.742 1.05,0 1.638,-0.756 0.602,-0.756 0.602,-2.086 0,-1.288 -0.616,-2.044 z m 9.46399,3.038 q -0.154,1.302 -0.994,2.072 -0.826,0.77 -2.156,0.77 -1.638,0 -2.534,-1.008 -0.896,-1.022 -0.896,-2.716 0,-1.806 0.938,-2.856 0.938,-1.064 2.534,-1.064 1.33,0 2.128,0.672 0.798,0.658 0.938,1.89 h -1.232 q -0.322,-1.568 -1.82,-1.568 -1.036,0 -1.638,0.77 -0.602,0.756 -0.602,2.058 0,1.316 0.574,2.072 0.574,0.756 1.582,0.756 0.812,0 1.316,-0.476 0.518,-0.476 0.658,-1.372 z m 7.47601,0.35 q -0.546,2.52 -3.15,2.52 -1.596,0 -2.506,-0.994 -0.896,-0.994 -0.896,-2.758 0,-1.75 0.924,-2.828 0.938,-1.092 2.436,-1.092 1.666,0 2.464,1.134 0.812,1.12 0.812,2.842 v 0.168 h -5.432 l -0.014,0.084 q 0,1.148 0.602,1.806 0.602,0.658 1.652,0.658 0.784,0 1.232,-0.364 0.462,-0.364 0.714,-1.176 z m -1.148,-1.974 q -0.084,-1.036 -0.63,-1.61 -0.546,-0.588 -1.442,-0.588 -0.868,0 -1.442,0.588 -0.574,0.588 -0.686,1.61 z m 9.00201,-5.712 V 65 h -1.12 v -1.064 q -0.686,1.26 -2.38,1.26 -1.54,0 -2.45,-1.022 -0.896,-1.036 -0.896,-2.8 0,-1.638 0.84,-2.716 0.854,-1.092 2.45,-1.092 1.554,0 2.366,1.176 v -3.71 z m -3.402,3.556 q -1.022,0 -1.624,0.742 -0.588,0.742 -0.588,2.016 0,1.316 0.602,2.1 0.616,0.77 1.638,0.77 1.036,0 1.624,-0.742 0.588,-0.756 0.588,-2.086 0,-1.19 -0.56,-1.988 -0.546,-0.812 -1.68,-0.812 z m 11.18601,-0.812 V 65 h -1.106 v -1.134 q -0.924,1.33 -2.492,1.33 -1.148,0 -1.778,-0.63 -0.63,-0.63 -0.63,-1.82 v -4.97 h 1.19 v 4.648 q 0,0.854 0.322,1.302 0.336,0.434 1.19,0.434 2.114,0 2.114,-2.604 v -3.78 z m 5.558,-0.168 v 1.232 q -0.126,-0.014 -0.308,-0.014 -0.574,0 -0.994,0.182 -0.42,0.168 -0.672,0.448 -0.238,0.28 -0.392,0.7 -0.154,0.42 -0.21,0.84 -0.042,0.42 -0.042,0.952 V 65 h -1.19 v -7.224 h 1.134 v 1.554 q 0.714,-1.722 2.674,-1.722 z m 6.818,5.11 q -0.546,2.52 -3.15,2.52 -1.596,0 -2.506,-0.994 -0.896,-0.994 -0.896,-2.758 0,-1.75 0.924,-2.828 0.938,-1.092 2.436,-1.092 1.666,0 2.464,1.134 0.812,1.12 0.812,2.842 v 0.168 h -5.432 l -0.014,0.084 q 0,1.148 0.602,1.806 0.602,0.658 1.652,0.658 0.784,0 1.232,-0.364 0.462,-0.364 0.714,-1.176 z m -1.148,-1.974 q -0.084,-1.036 -0.63,-1.61 -0.546,-0.588 -1.442,-0.588 -0.868,0 -1.442,0.588 -0.574,0.588 -0.686,1.61 z"
       id="text5"
       class="nonterminal"
       style="font-size:14px;font-family:HelveticaNeueCyr, Sans-serif;fill:#1a0000"
       aria-label="procedure" />
  </a>
  <path
     id="rect6"
     style="fill:#330000;stroke:#330000"
     d="m 331,47 h 6 c 5.54,0 10,4.46 10,10 v 12 c 0,5.54 -4.46,10 -10,10 h -6 c -5.54,0 -10,-4.46 -10,-10 V 57 c 0,-5.54 4.46,-10 10,-10 z" />
  <path
     id="rect7"
     class="terminal"
     style="fill:#ff4d4d;stroke:#330000"
     d="m 329,45 h 6 c 5.54,0 10,4.46 10,10 v 12 c 0,5.54 -4.46,10 -10,10 h -6 c -5.54,0 -10,-4.46 -10,-10 V 55 c 0,-5.54 4.46,-10 10,-10 z" />
  <path
     d="m 333.228,54.878 q -0.812,1.624 -1.19,3.108 -0.364,1.484 -0.364,3.262 0,3.08 1.582,6.244 h -1.68 q -0.868,-1.316 -1.358,-2.954 -0.476,-1.638 -0.476,-3.248 0,-1.68 0.462,-3.388 0.476,-1.722 1.372,-3.024 z"
     id="text7"
     class="terminal"
     style="font-weight:bold;font-size:14px;font-family:HelveticaNeueCyr, Sans-serif;fill:#140000"
     aria-label="(" />
  <a
     xlink:href="#type"
     xlink:title="type"
     id="a9">
    <path
       id="rect8"
       style="fill:#330000;stroke:#330000"
       d="m 387,47 h 48 v 32 h -48 z" />
    <path
       id="rect9"
       class="nonterminal"
       style="fill:#ff9e9e;stroke:#330000"
       d="m 385,45 h 48 v 32 h -48 z" />
    <path
       d="m 398.99,57.776 v 0.98 h -1.442 v 4.214 q 0,0.35 0,0.462 0.014,0.112 0.084,0.308 0.07,0.182 0.238,0.238 0.168,0.056 0.476,0.056 0.266,0 0.644,-0.042 v 1.022 q -0.504,0.056 -0.91,0.056 -0.504,0 -0.84,-0.112 -0.336,-0.112 -0.518,-0.252 -0.168,-0.14 -0.252,-0.49 -0.084,-0.364 -0.098,-0.602 -0.014,-0.252 -0.014,-0.826 0,-0.126 0,-0.196 v -3.836 h -1.218 v -0.98 h 1.218 v -2.142 h 1.19 v 2.142 z m 7.29401,0 -3.094,8.148 q -0.182,0.49 -0.322,0.756 -0.126,0.28 -0.378,0.602 -0.238,0.336 -0.588,0.476 -0.336,0.154 -0.798,0.154 -0.35,0 -0.882,-0.126 v -1.064 q 0.518,0.154 0.77,0.154 0.588,0 0.84,-0.602 l 0.56,-1.316 -2.87,-7.182 h 1.344 l 2.142,5.754 2.03,-5.754 z m 2.142,0 v 1.022 q 0.784,-1.246 2.436,-1.246 1.512,0 2.394,1.022 0.896,1.022 0.896,2.772 0,1.75 -0.882,2.8 -0.868,1.036 -2.352,1.036 -1.554,0 -2.422,-1.19 v 3.794 h -1.19 v -10.01 z m 2.254,0.77 q -1.036,0 -1.638,0.756 -0.588,0.742 -0.588,2.058 0,1.316 0.602,2.072 0.616,0.742 1.666,0.742 1.022,0 1.61,-0.756 0.588,-0.756 0.588,-2.058 0,-1.316 -0.602,-2.058 -0.588,-0.756 -1.638,-0.756 z m 11.102,4.172 q -0.546,2.52 -3.15,2.52 -1.596,0 -2.506,-0.994 -0.896,-0.994 -0.896,-2.758 0,-1.75 0.924,-2.828 0.938,-1.092 2.436,-1.092 1.666,0 2.464,1.134 0.812,1.12 0.812,2.842 v 0.168 h -5.432 l -0.014,0.084 q 0,1.148 0.602,1.806 0.602,0.658 1.652,0.658 0.784,0 1.232,-0.364 0.462,-0.364 0.714,-1.176 z m -1.148,-1.974 q -0.084,-1.036 -0.63,-1.61 -0.546,-0.588 -1.442,-0.588 -0.868,0 -1.442,0.588 -0.574,0.588 -0.686,1.61 z"
       id="text9"
       class="nonterminal"
       style="font-size:14px;font-family:HelveticaNeueCyr, Sans-serif;fill:#1a0000"
       aria-label="type" />
  </a>
  <path
     id="rect10"
     style="fill:#330000;stroke:#330000"
     d="m 397,3 h 4 c 5.54,0 10,4.46 10,10 v 12 c 0,5.54 -4.46,10 -10,10 h -4 c -5.54,0 -10,-4.46 -10,-10 V 13 c 0,-5.54 4.46,-10 10,-10 z" />
  <path
     id="rect11"
     class="terminal"
     style="fill:#ff4d4d;stroke:#330000"
     d="m 395,1 h 4 c 5.54,0 10,4.46 10,10 v 12 c 0,5.54 -4.46,10 -10,10 h -4 c -5.54,0 -10,-4.46 -10,-10 V 11 c 0,-5.54 4.46,-10 10,-10 z" />
  <path
     d="m 398.052,18.816 v 1.778 q 0,1.218 -0.546,1.876 -0.532,0.672 -1.666,0.854 v -0.98 q 0.938,-0.28 0.994,-1.344 h -0.994 v -2.184 z"
     id="text11"
     class="terminal"
     style="font-weight:bold;font-size:14px;font-family:HelveticaNeueCyr, Sans-serif;fill:#140000"
     aria-label="," />
  <path
     id="rect12"
     style="fill:#330000;stroke:#330000"
     d="m 485,47 h 6 c 5.54,0 10,4.46 10,10 v 12 c 0,5.54 -4.46,10 -10,10 h -6 c -5.54,0 -10,-4.46 -10,-10 V 57 c 0,-5.54 4.46,-10 10,-10 z" />
  <path
     id="rect13"
     class="terminal"
     style="fill:#ff4d4d;stroke:#330000"
     d="m 483,45 h 6 c 5.54,0 10,4.46 10,10 v 12 c 0,5.54 -4.46,10 -10,10 h -6 c -5.54,0 -10,-4.46 -10,-10 V 55 c 0,-5.54 4.46,-10 10,-10 z" />
  <path
     d="m 482.944,54.878 h 1.652 q 1.862,2.856 1.862,6.23 0,1.582 -0.49,3.416 -0.49,1.834 -1.344,2.968 h -1.666 q 0.84,-1.708 1.19,-3.15 0.364,-1.456 0.364,-3.262 0,-3.388 -1.568,-6.202 z"
     id="text13"
     class="terminal"
     style="font-weight:bold;font-size:14px;font-family:HelveticaNeueCyr, Sans-serif;fill:#140000"
     aria-label=")" />
  <path
     id="rect14"
     style="fill:#330000;stroke:#330000"
     d="m 103,149 h 56 c 5.54,0 10,4.46 10,10 v 12 c 0,5.54 -4.46,10 -10,10 h -56 c -5.54,0 -10,-4.46 -10,-10 v -12 c 0,-5.54 4.46,-10 10,-10 z" />
  <path
     id="rect15"
     class="terminal"
     style="fill:#ff4d4d;stroke:#330000"
     d="m 101,147 h 56 c 5.54,0 10,4.46 10,10 v 12 c 0,5.54 -4.46,10 -10,10 h -56 c -5.54,0 -10,-4.46 -10,-10 v -12 c 0,-5.54 4.46,-10 10,-10 z" />
  <path
     d="m 106.474,156.794 q 2.184,0 3.528,1.456 1.358,1.442 1.358,3.78 0,2.338 -1.358,3.78 -1.344,1.428 -3.542,1.428 -2.212,0 -3.57,-1.428 -1.358,-1.442 -1.358,-3.78 0,-2.366 1.344,-3.794 1.358,-1.442 3.598,-1.442 z m -0.028,1.792 q -1.232,0 -1.974,0.924 -0.728,0.924 -0.728,2.478 0,1.61 0.728,2.52 0.728,0.91 2.002,0.924 1.246,0 1.96,-0.924 0.714,-0.924 0.714,-2.52 0,-1.568 -0.728,-2.478 -0.728,-0.924 -1.974,-0.924 z m 6.426,-1.554 h 4.298 q 1.68,0 2.66,0.812 0.994,0.798 0.994,2.394 0,1.568 -0.98,2.38 -0.98,0.798 -2.562,0.798 h -2.24 V 167 h -2.17 z m 2.17,1.792 v 2.87 h 1.946 q 1.708,0 1.708,-1.428 0,-1.442 -1.694,-1.442 z m 14.56,-1.792 v 1.862 h -2.996 V 167 h -2.198 v -8.106 h -2.996 v -1.862 z m 3.346,0 V 167 h -2.198 v -9.968 z m 6.44,-0.238 q 2.184,0 3.528,1.456 1.358,1.442 1.358,3.78 0,2.338 -1.358,3.78 -1.344,1.428 -3.542,1.428 -2.212,0 -3.57,-1.428 -1.358,-1.442 -1.358,-3.78 0,-2.366 1.344,-3.794 1.358,-1.442 3.598,-1.442 z m -0.028,1.792 q -1.232,0 -1.974,0.924 -0.728,0.924 -0.728,2.478 0,1.61 0.728,2.52 0.728,0.91 2.002,0.924 1.246,0 1.96,-0.924 0.714,-0.924 0.714,-2.52 0,-1.568 -0.728,-2.478 -0.728,-0.924 -1.974,-0.924 z m 6.412,8.414 v -9.968 h 2.226 l 4.102,6.678 v -6.678 h 2.1 V 167 h -2.184 l -4.13,-6.692 V 167 Z"
     id="text15"
     class="terminal"
     style="font-weight:bold;font-size:14px;font-family:HelveticaNeueCyr, Sans-serif;fill:#140000"
     aria-label="OPTION" />
  <path
     id="rect16"
     style="fill:#330000;stroke:#330000"
     d="m 199,149 h 6 c 5.54,0 10,4.46 10,10 v 12 c 0,5.54 -4.46,10 -10,10 h -6 c -5.54,0 -10,-4.46 -10,-10 v -12 c 0,-5.54 4.46,-10 10,-10 z" />
  <path
     id="rect17"
     class="terminal"
     style="fill:#ff4d4d;stroke:#330000"
     d="m 197,147 h 6 c 5.54,0 10,4.46 10,10 v 12 c 0,5.54 -4.46,10 -10,10 h -6 c -5.54,0 -10,-4.46 -10,-10 v -12 c 0,-5.54 4.46,-10 10,-10 z" />
  <path
     d="m 201.228,156.878 q -0.812,1.624 -1.19,3.108 -0.364,1.484 -0.364,3.262 0,3.08 1.582,6.244 h -1.68 q -0.868,-1.316 -1.358,-2.954 -0.476,-1.638 -0.476,-3.248 0,-1.68 0.462,-3.388 0.476,-1.722 1.372,-3.024 z"
     id="text17"
     class="terminal"
     style="font-weight:bold;font-size:14px;font-family:HelveticaNeueCyr, Sans-serif;fill:#140000"
     aria-label="(" />
  <path
     id="rect18"
     style="fill:#330000;stroke:#330000"
     d="m 245,149 h 62 c 5.54,0 10,4.46 10,10 v 12 c 0,5.54 -4.46,10 -10,10 h -62 c -5.54,0 -10,-4.46 -10,-10 v -12 c 0,-5.54 4.46,-10 10,-10 z" />
  <path
     id="rect19"
     class="terminal"
     style="fill:#ff4d4d;stroke:#330000"
     d="m 243,147 h 62 c 5.54,0 10,4.46 10,10 v 12 c 0,5.54 -4.46,10 -10,10 h -62 c -5.54,0 -10,-4.46 -10,-10 v -12 c 0,-5.54 4.46,-10 10,-10 z" />
  <path
     d="m 251.372,157.032 v 1.862 h -2.996 V 167 h -2.198 v -8.106 h -2.996 v -1.862 z m 3.346,0 V 167 h -2.198 v -9.968 z M 256.65,167 v -9.968 h 3.122 l 2.324,6.846 2.268,-6.846 h 3.052 V 167 h -2.058 v -7.084 l -2.45,7.084 h -1.694 l -2.478,-7.014 V 167 Z m 20.174,-9.968 v 1.792 h -5.306 v 2.17 h 4.872 v 1.722 h -4.872 v 2.45 h 5.404 V 167 h -7.574 v -9.968 z m 6.10401,-0.238 q 2.184,0 3.528,1.456 1.358,1.442 1.358,3.78 0,2.338 -1.358,3.78 -1.344,1.428 -3.542,1.428 -2.212,0 -3.57,-1.428 -1.358,-1.442 -1.358,-3.78 0,-2.366 1.344,-3.794 1.358,-1.442 3.598,-1.442 z m -0.028,1.792 q -1.232,0 -1.974,0.924 -0.728,0.924 -0.728,2.478 0,1.61 0.728,2.52 0.728,0.91 2.002,0.924 1.246,0 1.96,-0.924 0.714,-0.924 0.714,-2.52 0,-1.568 -0.728,-2.478 -0.728,-0.924 -1.974,-0.924 z m 14.89599,-1.554 v 5.992 q 0,2.142 -1.036,3.164 -1.022,1.008 -3.206,1.008 -2.212,0 -3.262,-1.022 -1.036,-1.036 -1.036,-3.178 v -5.964 h 2.184 v 5.964 q 0,1.218 0.462,1.806 0.462,0.588 1.68,0.588 1.176,0 1.596,-0.588 0.434,-0.588 0.434,-1.806 v -5.964 z m 9.29599,0 v 1.862 h -2.996 V 167 h -2.198 v -8.106 h -2.996 v -1.862 z"
     id="text19"
     class="terminal"
     style="font-weight:bold;font-size:14px;font-family:HelveticaNeueCyr, Sans-serif;fill:#140000"
     aria-label="TIMEOUT" />
  <path
     id="rect20"
     style="fill:#330000;stroke:#330000"
     d="m 347,149 h 10 c 5.54,0 10,4.46 10,10 v 12 c 0,5.54 -4.46,10 -10,10 h -10 c -5.54,0 -10,-4.46 -10,-10 v -12 c 0,-5.54 4.46,-10 10,-10 z" />
  <path
     id="rect21"
     class="terminal"
     style="fill:#ff4d4d;stroke:#330000"
     d="m 345,147 h 10 c 5.54,0 10,4.46 10,10 v 12 c 0,5.54 -4.46,10 -10,10 h -10 c -5.54,0 -10,-4.46 -10,-10 v -12 c 0,-5.54 4.46,-10 10,-10 z" />
  <path
     d="m 345.56,162.688 v -1.568 h 7.28 v 1.568 z m 0,2.926 v -1.568 h 7.28 v 1.568 z"
     id="text21"
     class="terminal"
     style="font-weight:bold;font-size:14px;font-family:HelveticaNeueCyr, Sans-serif;fill:#140000"
     aria-label="=" />
  <a
     xlink:href="../sql_types/#double"
     xlink:title="double"
     id="a23">
    <path
       id="rect22"
       style="fill:#330000;stroke:#330000"
       d="m 387,149 h 62 v 32 h -62 z" />
    <path
       id="rect23"
       class="nonterminal"
       style="fill:#ff9e9e;stroke:#330000"
       d="m 385,147 h 62 v 32 h -62 z" />
    <path
       d="M 402.406,157.032 V 167 h -1.12 v -1.064 q -0.686,1.26 -2.38,1.26 -1.54,0 -2.45,-1.022 -0.896,-1.036 -0.896,-2.8 0,-1.638 0.84,-2.716 0.854,-1.092 2.45,-1.092 1.554,0 2.366,1.176 v -3.71 z m -3.402,3.556 q -1.022,0 -1.624,0.742 -0.588,0.742 -0.588,2.016 0,1.316 0.602,2.1 0.616,0.77 1.638,0.77 1.036,0 1.624,-0.742 0.588,-0.756 0.588,-2.086 0,-1.19 -0.56,-1.988 -0.546,-0.812 -1.68,-0.812 z m 5.76801,0.014 q 0.952,-1.036 2.59,-1.036 1.638,0 2.548,0.994 0.91,0.994 0.91,2.786 0,1.834 -0.91,2.856 -0.91,1.022 -2.562,1.022 -1.652,0 -2.59,-1.008 -0.938,-1.008 -0.938,-2.8 0,-1.778 0.952,-2.814 z m 4.214,0.728 q -0.602,-0.77 -1.652,-0.77 -1.05,0 -1.666,0.77 -0.616,0.77 -0.616,2.058 0,1.33 0.602,2.086 0.616,0.742 1.708,0.742 1.05,0 1.638,-0.756 0.602,-0.756 0.602,-2.086 0,-1.288 -0.616,-2.044 z m 9.23999,-1.554 V 167 h -1.106 v -1.134 q -0.924,1.33 -2.492,1.33 -1.148,0 -1.778,-0.63 -0.63,-0.63 -0.63,-1.82 v -4.97 h 1.19 v 4.648 q 0,0.854 0.322,1.302 0.336,0.434 1.19,0.434 2.114,0 2.114,-2.604 v -3.78 z m 2.96799,-2.744 v 3.738 q 0.784,-1.19 2.394,-1.19 1.484,0 2.366,1.036 0.896,1.022 0.896,2.744 0,1.75 -0.91,2.8 -0.91,1.05 -2.422,1.05 -1.722,0 -2.394,-1.26 V 167 h -1.12 v -9.968 z m 2.212,3.556 q -1.148,0 -1.708,0.826 -0.546,0.826 -0.546,2.03 0,1.274 0.602,2.03 0.616,0.742 1.652,0.742 0.994,0 1.596,-0.77 0.616,-0.784 0.616,-2.072 0,-1.274 -0.602,-2.03 -0.602,-0.756 -1.61,-0.756 z M 429.58,157.032 V 167 h -1.204 v -9.968 z m 8.022,7.686 q -0.546,2.52 -3.15,2.52 -1.596,0 -2.506,-0.994 -0.896,-0.994 -0.896,-2.758 0,-1.75 0.924,-2.828 0.938,-1.092 2.436,-1.092 1.666,0 2.464,1.134 0.812,1.12 0.812,2.842 v 0.168 h -5.432 l -0.014,0.084 q 0,1.148 0.602,1.806 0.602,0.658 1.652,0.658 0.784,0 1.232,-0.364 0.462,-0.364 0.714,-1.176 z m -1.148,-1.974 q -0.084,-1.036 -0.63,-1.61 -0.546,-0.588 -1.442,-0.588 -0.868,0 -1.442,0.588 -0.574,0.588 -0.686,1.61 z"
       id="text23"
       class="nonterminal"
       style="font-size:14px;font-family:HelveticaNeueCyr, Sans-serif;fill:#1a0000"
       aria-label="double" />
  </a>
  <path
     id="rect24"
     style="fill:#330000;stroke:#330000"
     d="m 479,149 h 6 c 5.54,0 10,4.46 10,10 v 12 c 0,5.54 -4.46,10 -10,10 h -6 c -5.54,0 -10,-4.46 -10,-10 v -12 c 0,-5.54 4.46,-10 10,-10 z" />
  <path
     id="rect25"
     class="terminal"
     style="fill:#ff4d4d;stroke:#330000"
     d="m 477,147 h 6 c 5.54,0 10,4.46 10,10 v 12 c 0,5.54 -4.46,10 -10,10 h -6 c -5.54,0 -10,-4.46 -10,-10 v -12 c 0,-5.54 4.46,-10 10,-10 z" />
  <path
     d="m 476.944,156.878 h 1.652 q 1.862,2.856 1.862,6.23 0,1.582 -0.49,3.416 -0.49,1.834 -1.344,2.968 h -1.666 q 0.84,-1.708 1.19,-3.15 0.364,-1.456 0.364,-3.262 0,-3.388 -1.568,-6.202 z"
     id="text25"
     class="terminal"
     style="font-weight:bold;font-size:14px;font-family:HelveticaNeueCyr, Sans-serif;fill:#140000"
     aria-label=")" />
  <path
     class="line"
     d="m17 61 h2 m0 0 h10 m146 0 h10 m0 0 h10 m84 0 h10 m20 0 h10 m26 0 h10 m20 0 h10 m48 0 h10 m-88 0 l20 0 m-1 0 q-9 0 -9 -10 l0 -24 q0 -10 10 -10 m68 44 l20 0 m-20 0 q10 0 10 -10 l0 -24 q0 -10 -10 -10 m-68 0 h10 m24 0 h10 m0 0 h24 m20 44 h10 m26 0 h10 m-220 0 h20 m200 0 h20 m-240 0 q10 0 10 10 m220 0 q0 -10 10 -10 m-230 10 v14 m220 0 v-14 m-220 14 q0 10 10 10 m200 0 q10 0 10 -10 m-210 10 h10 m0 0 h190 m22 -34 l2 0 m2 0 l2 0 m2 0 l2 0 m-492 70 l2 0 m2 0 l2 0 m2 0 l2 0 m22 0 h10 m0 0 h412 m-442 0 h20 m422 0 h20 m-462 0 q10 0 10 10 m442 0 q0 -10 10 -10 m-452 10 v12 m442 0 v-12 m-442 12 q0 10 10 10 m422 0 q10 0 10 -10 m-432 10 h10 m76 0 h10 m0 0 h10 m26 0 h10 m0 0 h10 m82 0 h10 m0 0 h10 m30 0 h10 m0 0 h10 m62 0 h10 m0 0 h10 m26 0 h10 m23 -32 h-3"
     id="path25" />
  <path
     id="polygon25"
     style="fill:#330000;stroke:#330000"
     d="m 533,131 8,-4 v 8 z" />
  <path
     id="polygon26"
     style="fill:#330000;stroke:#330000"
     d="m 533,131 -8,-4 v 8 z" />
</svg>
