<?xml version="1.0" encoding="UTF-8" standalone="no"?>
<svg
   width="745"
   height="155"
   version="1.1"
   viewBox="0 0 745 155"
   id="svg30"
   sodipodi:docname="drop_plugin.svg"
   inkscape:version="1.3.2 (091e20ef0f, 2023-11-25)"
   xmlns:inkscape="http://www.inkscape.org/namespaces/inkscape"
   xmlns:sodipodi="http://sodipodi.sourceforge.net/DTD/sodipodi-0.dtd"
   xmlns:xlink="http://www.w3.org/1999/xlink"
   xmlns="http://www.w3.org/2000/svg"
   xmlns:svg="http://www.w3.org/2000/svg">
  <sodipodi:namedview
     id="namedview30"
     pagecolor="#ffffff"
     bordercolor="#666666"
     borderopacity="1.0"
     inkscape:showpageshadow="2"
     inkscape:pageopacity="0.0"
     inkscape:pagecheckerboard="0"
     inkscape:deskcolor="#d1d1d1"
     inkscape:zoom="0.98791946"
     inkscape:cx="391.22622"
     inkscape:cy="96.161685"
     inkscape:window-width="1858"
     inkscape:window-height="1014"
     inkscape:window-x="62"
     inkscape:window-y="29"
     inkscape:window-maximized="1"
     inkscape:current-layer="svg30" />
  <defs
     id="defs1">
    <style
       type="text/css"
       id="style1">@namespace &quot;http://www.w3.org/2000/svg&quot;;.line { fill: none; stroke: #330000; stroke-width: 1; }
.bold-line { stroke: #140000; shape-rendering: crispEdges; stroke-width: 2; }
.thin-line { stroke: #1F0000; shape-rendering: crispEdges }
.filled { fill: #330000; stroke: none; }
text.terminal { font-family: Verdana, Sans-serif;                            font-size: 12px;                            fill: #140000;                            font-weight: bold; }
text.nonterminal { font-family: Verdana, Sans-serif;                            font-size: 12px;                            fill: #1A0000;                            font-weight: normal; }
text.regexp { font-family: Verdana, Sans-serif;                            font-size: 12px;                            fill: #1F0000;                            font-weight: normal; }
rect, circle, polygon { fill: #330000; stroke: #330000; }
rect.terminal { fill: #FF4D4D; stroke: #330000; stroke-width: 1; }
rect.nonterminal { fill: #FF9E9E; stroke: #330000; stroke-width: 1; }
rect.text { fill: none; stroke: none; }
polygon.regexp { fill: #FFC7C7; stroke: #330000; stroke-width: 1; }
</style>
  </defs>
  <polygon
     points="9 17 1 13 1 21"
     id="polygon1" />
  <polygon
     points="17 17 9 13 9 21"
     id="polygon2" />
  <rect
     x="31"
     y="3"
     width="58"
     height="32"
     rx="10"
     id="rect2" />
  <rect
     x="29"
     y="1"
     width="58"
     height="32"
     class="terminal"
     rx="10"
     id="rect3" />
  <text
     class="terminal"
     x="39"
     y="21"
     id="text3">DROP</text>
  <rect
     x="109"
     y="3"
     width="72"
     height="32"
     rx="10"
     id="rect4" />
  <rect
     x="107"
     y="1"
     width="72"
     height="32"
     class="terminal"
     rx="10"
     id="rect5" />
  <text
     class="terminal"
     x="117"
     y="21"
     id="text5">PLUGIN</text>
  <rect
     x="221"
     y="35"
     width="34"
     height="32"
     rx="10"
     id="rect6" />
  <rect
     x="219"
     y="33"
     width="34"
     height="32"
     class="terminal"
     rx="10"
     id="rect7" />
  <text
     class="terminal"
     x="229"
     y="53"
     id="text7">IF</text>
  <rect
     x="275"
     y="35"
     width="70"
     height="32"
     rx="10"
     id="rect8" />
  <rect
     x="273"
     y="33"
     width="70"
     height="32"
     class="terminal"
     rx="10"
     id="rect9" />
  <text
     class="terminal"
     x="283"
     y="53"
     id="text9">EXISTS</text>
  <a
     xlink:href="../object"
     xlink:title="plugin"
     id="a11">
    <rect
       x="385"
       y="3"
       width="58"
       height="32"
       id="rect10" />
    <rect
       x="383"
       y="1"
       width="58"
       height="32"
       class="nonterminal"
       id="rect11" />
    <text
       class="nonterminal"
       x="393"
       y="21"
       id="text11">plugin</text>
  </a>
  <a
     xlink:href=""
     xlink:title="version"
     id="a13">
    <rect
       x="463"
       y="3"
       width="66"
       height="32"
       id="rect12" />
    <rect
       x="461"
       y="1"
       width="66"
       height="32"
       class="nonterminal"
       id="rect13" />
    <text
       class="nonterminal"
       x="471"
       y="21"
       id="text13">version</text>
  </a>
  <rect
     x="569"
     y="35"
     width="58"
     height="32"
     rx="10"
     id="rect14" />
  <rect
     x="567"
     y="33"
     width="58"
     height="32"
     class="terminal"
     rx="10"
     id="rect15" />
  <text
     class="terminal"
     x="577"
     y="53"
     id="text15">WITH</text>
  <rect
     x="647"
     y="35"
     width="56"
     height="32"
     rx="10"
     id="rect16" />
  <rect
     x="645"
     y="33"
     width="56"
     height="32"
     class="terminal"
     rx="10"
     id="rect17" />
  <text
     class="terminal"
     x="655"
     y="53"
     id="text17">DATA</text>
  <rect
     x="295"
     y="121"
     width="76"
     height="32"
     rx="10"
     id="rect18" />
  <rect
     x="293"
     y="119"
     width="76"
     height="32"
     class="terminal"
     rx="10"
     id="rect19" />
  <text
     class="terminal"
     x="303"
     y="139"
     id="text19">OPTION</text>
  <rect
     x="391"
     y="121"
     width="26"
     height="32"
     rx="10"
     id="rect20" />
  <rect
     x="389"
     y="119"
     width="26"
     height="32"
     class="terminal"
     rx="10"
     id="rect21" />
  <text
     class="terminal"
     x="399"
     y="139"
     id="text21">(</text>
  <rect
     x="437"
     y="121"
     width="82"
     height="32"
     rx="10"
     id="rect22" />
  <rect
     x="435"
     y="119"
     width="82"
     height="32"
     class="terminal"
     rx="10"
     id="rect23" />
  <text
     class="terminal"
     x="445"
     y="139"
     id="text23">TIMEOUT</text>
  <rect
     x="539"
     y="121"
     width="30"
     height="32"
     rx="10"
     id="rect24" />
  <rect
     x="537"
     y="119"
     width="30"
     height="32"
     class="terminal"
     rx="10"
     id="rect25" />
  <text
     class="terminal"
     x="547"
     y="139"
     id="text25">=</text>
  <a
     xlink:href="../../sql_types#double"
     xlink:title="double"
     id="a27">
    <rect
       x="589"
       y="121"
       width="62"
       height="32"
       id="rect26" />
    <rect
       x="587"
       y="119"
       width="62"
       height="32"
       class="nonterminal"
       id="rect27" />
    <text
       class="nonterminal"
       x="597"
       y="139"
       id="text27">double</text>
  </a>
  <rect
     x="671"
     y="121"
     width="26"
     height="32"
     rx="10"
     id="rect28" />
  <rect
     x="669"
     y="119"
     width="26"
     height="32"
     class="terminal"
     rx="10"
     id="rect29" />
  <text
     class="terminal"
     x="679"
     y="139"
     id="text29">)</text>
  <path
     class="line"
     d="m17 17 h2 m0 0 h10 m58 0 h10 m0 0 h10 m72 0 h10 m20 0 h10 m0 0 h134 m-164 0 h20 m144 0 h20 m-184 0 q10 0 10 10 m164 0 q0 -10 10 -10 m-174 10 v12 m164 0 v-12 m-164 12 q0 10 10 10 m144 0 q10 0 10 -10 m-154 10 h10 m34 0 h10 m0 0 h10 m70 0 h10 m20 -32 h10 m58 0 h10 m0 0 h10 m66 0 h10 m20 0 h10 m0 0 h144 m-174 0 h20 m154 0 h20 m-194 0 q10 0 10 10 m174 0 q0 -10 10 -10 m-184 10 v12 m174 0 v-12 m-174 12 q0 10 10 10 m154 0 q10 0 10 -10 m-164 10 h10 m58 0 h10 m0 0 h10 m56 0 h10 m22 -32 l2 0 m2 0 l2 0 m2 0 l2 0 m-492 86 l2 0 m2 0 l2 0 m2 0 l2 0 m22 0 h10 m0 0 h412 m-442 0 h20 m422 0 h20 m-462 0 q10 0 10 10 m442 0 q0 -10 10 -10 m-452 10 v12 m442 0 v-12 m-442 12 q0 10 10 10 m422 0 q10 0 10 -10 m-432 10 h10 m76 0 h10 m0 0 h10 m26 0 h10 m0 0 h10 m82 0 h10 m0 0 h10 m30 0 h10 m0 0 h10 m62 0 h10 m0 0 h10 m26 0 h10 m23 -32 h-3"
     id="path29" />
  <polygon
     points="735 103 743 99 743 107"
     id="polygon29" />
  <polygon
     points="735 103 727 99 727 107"
     id="polygon30" />
</svg>
