<?xml version="1.0" encoding="UTF-8" standalone="no"?>
<svg
   width="245"
   height="81"
   version="1.1"
   id="svg38"
   sodipodi:docname="EXPLAIN.svg"
   inkscape:version="1.2.2 (b0a8486541, 2022-12-01)"
   xmlns:inkscape="http://www.inkscape.org/namespaces/inkscape"
   xmlns:sodipodi="http://sodipodi.sourceforge.net/DTD/sodipodi-0.dtd"
   xmlns:xlink="http://www.w3.org/1999/xlink"
   xmlns="http://www.w3.org/2000/svg"
   xmlns:svg="http://www.w3.org/2000/svg">
  <sodipodi:namedview
     id="namedview40"
     pagecolor="#ffffff"
     bordercolor="#666666"
     borderopacity="1.0"
     inkscape:showpageshadow="2"
     inkscape:pageopacity="0.0"
     inkscape:pagecheckerboard="0"
     inkscape:deskcolor="#d1d1d1"
     showgrid="false"
     inkscape:zoom="5.2938776"
     inkscape:cx="95.204317"
     inkscape:cy="40.424055"
     inkscape:window-width="1439"
     inkscape:window-height="749"
     inkscape:window-x="50"
     inkscape:window-y="118"
     inkscape:window-maximized="0"
     inkscape:current-layer="svg38" />
  <defs
     id="defs4">
    <style
       type="text/css"
       id="style2">@namespace &quot;http://www.w3.org/2000/svg&quot;;.line { fill: none; stroke: #330000; stroke-width: 1; }
.bold-line { stroke: #140000; shape-rendering: crispEdges; stroke-width: 2; }
.thin-line { stroke: #1F0000; shape-rendering: crispEdges }
.filled { fill: #330000; stroke: none; }
text.terminal { font-family: HelveticaNeueCyr, Sans-serif;                            font-size: 14px;                            fill: #140000;                            font-weight: bold; }
text.nonterminal { font-family: HelveticaNeueCyr, Sans-serif;                            font-size: 14px;                            fill: #1A0000;                            font-weight: normal; }
text.regexp { font-family: HelveticaNeueCyr, Sans-serif;                            font-size: 14px;                            fill: #1F0000;                            font-weight: normal; }
rect, circle, polygon { fill: #330000; stroke: #330000; }
rect.terminal { fill: #FF4D4D; stroke: #330000; stroke-width: 1; }
rect.nonterminal { fill: #FF9E9E; stroke: #330000; stroke-width: 1; }
rect.text { fill: none; stroke: none; }
polygon.regexp { fill: #FFC7C7; stroke: #330000; stroke-width: 1; }
</style>
  </defs>
  <path
     id="polygon6"
     style="fill:#330000;stroke:#330000"
     d="M 9,17 1,13 v 8 z" />
  <path
     id="polygon8"
     style="fill:#330000;stroke:#330000"
     d="M 17,17 9,13 v 8 z" />
  <path
     id="rect10"
     style="fill:#330000;stroke:#330000"
     d="m 41,3 h 60 c 5.54,0 10,4.46 10,10 v 12 c 0,5.54 -4.46,10 -10,10 H 41 C 35.46,35 31,30.54 31,25 V 13 C 31,7.46 35.46,3 41,3 Z" />
  <path
     id="rect12"
     class="terminal"
     style="fill:#ff4d4d;stroke:#330000"
     d="m 39,1 h 60 c 5.54,0 10,4.46 10,10 v 12 c 0,5.54 -4.46,10 -10,10 H 39 C 33.46,33 29,28.54 29,23 V 11 C 29,5.46 33.46,1 39,1 Z" />
  <g
     aria-label="EXPLAIN"
     id="text14"
     class="terminal"
     style="font-weight:bold;font-size:14px;font-family:HelveticaNeueCyr, Sans-serif;fill:#140000">
    <path
       d="m 47.442,11.032 v 1.792 h -5.306 v 2.17 h 4.872 v 1.722 h -4.872 v 2.45 H 47.54 V 21 h -7.574 v -9.968 z"
       id="path289" />
    <path
       d="m 57.18601,11.032 -3.206,4.76 3.5,5.208 h -2.618 l -2.184,-3.458 -2.212,3.458 h -2.492 l 3.514,-5.208 -3.248,-4.76 h 2.548 l 1.988,3.206 2.002,-3.206 z"
       id="path291" />
    <path
       d="m 58.390007,11.032 h 4.298 q 1.68,0 2.66,0.812 0.994,0.798 0.994,2.394 0,1.568 -0.98,2.38 -0.98,0.798 -2.562,0.798 h -2.24 V 21 h -2.17 z m 2.17,1.792 v 2.87 h 1.946 q 1.708,0 1.708,-1.428 0,-1.442 -1.694,-1.442 z"
       id="path293" />
    <path
       d="M 74.770005,19.124 V 21 h -7.056 v -9.968 h 2.184 v 8.092 z"
       id="path295" />
    <path
       d="m 80.972011,11.018 3.794,9.982 h -2.296 l -0.784,-2.226 h -3.71 l -0.812,2.226 h -2.24 l 3.794,-9.982 z m 0.182,6.16 -1.316,-3.71 -1.33,3.71 z"
       id="path297" />
    <path
       d="M 87.804003,11.032 V 21 h -2.198 v -9.968 z"
       id="path299" />
    <path
       d="m 89.736004,21 v -9.968 h 2.226 l 4.102,6.678 v -6.678 h 2.1 V 21 h -2.184 l -4.13,-6.692 V 21 Z"
       id="path301" />
  </g>
  <a
     xlink:href="#dml"
     xlink:title="DML"
     id="a22">
    <path
       id="rect16"
       style="fill:#330000;stroke:#330000"
       d="m 151,3 h 46 v 32 h -46 z" />
    <path
       id="rect18"
       class="nonterminal"
       style="fill:#ff9e9e;stroke:#330000"
       d="m 149,1 h 46 v 32 h -46 z" />
    <g
       aria-label="DML"
       id="text20"
       class="nonterminal"
       style="font-size:14px;font-family:HelveticaNeueCyr, Sans-serif;fill:#1a0000">
      <path
         d="m 160.106,11.032 h 3.248 q 2.534,0 3.738,1.176 1.204,1.176 1.204,3.724 0,2.506 -1.12,3.794 Q 166.056,21 163.592,21 h -3.486 z m 1.316,1.134 v 7.7 h 2.002 q 1.876,0 2.716,-0.91 0.854,-0.924 0.854,-2.87 0,-2.044 -0.826,-2.982 -0.826,-0.938 -2.8,-0.938 z"
         id="path282" />
      <path
         d="m 169.97601,11.032 h 1.82 l 3.206,8.442 3.094,-8.442 h 1.834 V 21 h -1.246 v -8.316 l -3.122,8.316 h -1.148 l -3.178,-8.316 V 21 h -1.26 z"
         id="path284" />
      <path
         d="M 188.77801,19.852 V 21 h -6.608 v -9.968 h 1.316 v 8.82 z"
         id="path286" />
    </g>
  </a>
  <a
     xlink:href="#dql"
     xlink:title="DQL"
     id="a30">
    <path
       id="rect24"
       style="fill:#330000;stroke:#330000"
       d="m 151,47 h 46 v 32 h -46 z" />
    <path
       id="rect26"
       class="nonterminal"
       style="fill:#ff9e9e;stroke:#330000"
       d="m 149,45 h 46 v 32 h -46 z" />
    <g
       aria-label="DQL"
       id="text28"
       class="nonterminal"
       style="font-size:14px;font-family:HelveticaNeueCyr, Sans-serif;fill:#1a0000">
      <path
         d="m 160.106,55.032 h 3.248 q 2.534,0 3.738,1.176 1.204,1.176 1.204,3.724 0,2.506 -1.12,3.794 Q 166.056,65 163.592,65 h -3.486 z m 1.316,1.134 v 7.7 h 2.002 q 1.876,0 2.716,-0.91 0.854,-0.924 0.854,-2.87 0,-2.044 -0.826,-2.982 -0.826,-0.938 -2.8,-0.938 z"
         id="path273" />
      <path
         d="m 178.78201,65.028 -0.686,0.826 -1.512,-1.218 q -1.036,0.602 -2.436,0.602 -2.24,0 -3.5,-1.512 -1.246,-1.512 -1.246,-3.822 0,-2.31 1.302,-3.696 1.302,-1.4 3.472,-1.4 2.212,0 3.486,1.386 1.288,1.372 1.288,3.78 0,2.59 -1.484,4.004 z m -3.612,-2.884 1.316,1.078 q 1.148,-1.148 1.148,-3.22 0,-1.834 -0.938,-2.94 -0.938,-1.12 -2.492,-1.12 -1.666,0 -2.576,1.162 -0.91,1.148 -0.91,2.856 0,1.778 0.882,2.968 0.896,1.19 2.632,1.19 0.798,0 1.358,-0.28 l -1.12,-0.882 z"
         id="path275" />
      <path
         d="M 187.22401,63.852 V 65 h -6.608 v -9.968 h 1.316 v 8.82 z"
         id="path277" />
    </g>
  </a>
  <path
     class="line"
     d="m17 17 h2 m0 0 h10 m80 0 h10 m20 0 h10 m46 0 h10 m-86 0 h20 m66 0 h20 m-106 0 q10 0 10 10 m86 0 q0 -10 10 -10 m-96 10 v24 m86 0 v-24 m-86 24 q0 10 10 10 m66 0 q10 0 10 -10 m-76 10 h10 m46 0 h10 m23 -44 h-3"
     id="path32" />
  <path
     id="polygon34"
     style="fill:#330000;stroke:#330000"
     d="m 235,17 8,-4 v 8 z" />
  <path
     id="polygon36"
     style="fill:#330000;stroke:#330000"
     d="m 235,17 -8,-4 v 8 z" />
</svg>
