<?xml version="1.0" encoding="UTF-8" standalone="no"?>
<svg
   width="895"
   height="1543"
   version="1.1"
   viewBox="0 0 895 1543"
   id="svg104"
   sodipodi:docname="expression.svg"
   inkscape:version="1.3.2 (091e20ef0f, 2023-11-25)"
   xmlns:inkscape="http://www.inkscape.org/namespaces/inkscape"
   xmlns:sodipodi="http://sodipodi.sourceforge.net/DTD/sodipodi-0.dtd"
   xmlns:xlink="http://www.w3.org/1999/xlink"
   xmlns="http://www.w3.org/2000/svg"
   xmlns:svg="http://www.w3.org/2000/svg">
  <sodipodi:namedview
     id="namedview104"
     pagecolor="#ffffff"
     bordercolor="#666666"
     borderopacity="1.0"
     inkscape:showpageshadow="2"
     inkscape:pageopacity="0.0"
     inkscape:pagecheckerboard="0"
     inkscape:deskcolor="#d1d1d1"
     inkscape:zoom="0.81534547"
     inkscape:cx="464.2204"
     inkscape:cy="421.90705"
     inkscape:window-width="1858"
     inkscape:window-height="1014"
     inkscape:window-x="62"
     inkscape:window-y="29"
     inkscape:window-maximized="1"
     inkscape:current-layer="svg104" />
  <defs
     id="defs1">
    <style
       type="text/css"
       id="style1">@namespace &quot;http://www.w3.org/2000/svg&quot;;.line { fill: none; stroke: #330000; stroke-width: 1; }
.bold-line { stroke: #140000; shape-rendering: crispEdges; stroke-width: 2; }
.thin-line { stroke: #1F0000; shape-rendering: crispEdges }
.filled { fill: #330000; stroke: none; }
text.terminal { font-family: Verdana, Sans-serif;                            font-size: 12px;                            fill: #140000;                            font-weight: bold; }
text.nonterminal { font-family: Verdana, Sans-serif;                            font-size: 12px;                            fill: #1A0000;                            font-weight: normal; }
text.regexp { font-family: Verdana, Sans-serif;                            font-size: 12px;                            fill: #1F0000;                            font-weight: normal; }
rect, circle, polygon { fill: #330000; stroke: #330000; }
rect.terminal { fill: #FF4D4D; stroke: #330000; stroke-width: 1; }
rect.nonterminal { fill: #FF9E9E; stroke: #330000; stroke-width: 1; }
rect.text { fill: none; stroke: none; }
polygon.regexp { fill: #FFC7C7; stroke: #330000; stroke-width: 1; }
</style>
  </defs>
  <polygon
     points="9 51 1 47 1 55"
     id="polygon1" />
  <polygon
     points="17 51 9 47 9 55"
     id="polygon2" />
  <rect
     x="71"
     y="3"
     width="48"
     height="32"
     rx="10"
     id="rect2" />
  <rect
     x="69"
     y="1"
     width="48"
     height="32"
     class="terminal"
     rx="10"
     id="rect3" />
  <text
     class="terminal"
     x="79"
     y="21"
     id="text3">NOT</text>
  <a
     xlink:href="../object"
     xlink:title="table"
     id="a5">
    <rect
       x="199"
       y="69"
       width="52"
       height="32"
       id="rect4" />
    <rect
       x="197"
       y="67"
       width="52"
       height="32"
       class="nonterminal"
       id="rect5" />
    <text
       class="nonterminal"
       x="207"
       y="87"
       id="text5">table</text>
  </a>
  <rect
     x="271"
     y="69"
     width="24"
     height="32"
     rx="10"
     id="rect6" />
  <rect
     x="269"
     y="67"
     width="24"
     height="32"
     class="terminal"
     rx="10"
     id="rect7" />
  <text
     class="terminal"
     x="279"
     y="87"
     id="text7">.</text>
  <a
     xlink:href="../object"
     xlink:title="column"
     id="a9">
    <rect
       x="335"
       y="37"
       width="64"
       height="32"
       id="rect8" />
    <rect
       x="333"
       y="35"
       width="64"
       height="32"
       class="nonterminal"
       id="rect9" />
    <text
       class="nonterminal"
       x="343"
       y="55"
       id="text9">column</text>
  </a>
  <a
     xlink:href="#literal"
     xlink:title="literal"
     id="a11">
    <rect
       x="179"
       y="113"
       width="56"
       height="32"
       id="rect10" />
    <rect
       x="177"
       y="111"
       width="56"
       height="32"
       class="nonterminal"
       id="rect11" />
    <text
       class="nonterminal"
       x="187"
       y="131"
       id="text11">literal</text>
  </a>
  <a
     xlink:href="../case"
     xlink:title="case"
     id="a13">
    <rect
       x="179"
       y="157"
       width="48"
       height="32"
       id="rect12" />
    <rect
       x="177"
       y="155"
       width="48"
       height="32"
       class="nonterminal"
       id="rect13" />
    <text
       class="nonterminal"
       x="187"
       y="175"
       id="text13">case</text>
  </a>
  <a
     xlink:href="../cast"
     xlink:title="cast"
     id="a15">
    <rect
       x="179"
       y="201"
       width="46"
       height="32"
       id="rect14" />
    <rect
       x="177"
       y="199"
       width="46"
       height="32"
       class="nonterminal"
       id="rect15" />
    <text
       class="nonterminal"
       x="187"
       y="219"
       id="text15">cast</text>
  </a>
  <a
     xlink:href="../current_date"
     xlink:title="current_date"
     id="a17">
    <rect
       x="179"
       y="245"
       width="102"
       height="32"
       id="rect16" />
    <rect
       x="177"
       y="243"
       width="102"
       height="32"
       class="nonterminal"
       id="rect17" />
    <text
       class="nonterminal"
       x="187"
       y="263"
       id="text17">current_date</text>
  </a>
  <a
     xlink:href="../like"
     xlink:title="like"
     id="a19">
    <rect
       x="179"
       y="289"
       width="42"
       height="32"
       id="rect18" />
    <rect
       x="177"
       y="287"
       width="42"
       height="32"
       class="nonterminal"
       id="rect19" />
    <text
       class="nonterminal"
       x="187"
       y="307"
       id="text19">like</text>
  </a>
  <a
     xlink:href=""
     xlink:title="ilike"
     id="a21">
    <rect
       x="179"
       y="333"
       width="44"
       height="32"
       id="rect20" />
    <rect
       x="177"
       y="331"
       width="44"
       height="32"
       class="nonterminal"
       id="rect21" />
    <text
       class="nonterminal"
       x="187"
       y="351"
       id="text21">ilike</text>
  </a>
  <a
     xlink:href="../substr"
     xlink:title="substr"
     id="a23">
    <rect
       x="179"
       y="377"
       width="60"
       height="32"
       id="rect22" />
    <rect
       x="177"
       y="375"
       width="60"
       height="32"
       class="nonterminal"
       id="rect23" />
    <text
       class="nonterminal"
       x="187"
       y="395"
       id="text23">substr</text>
  </a>
  <a
     xlink:href="../to_char"
     xlink:title="to_char"
     id="a25">
    <rect
       x="179"
       y="421"
       width="68"
       height="32"
       id="rect24" />
    <rect
       x="177"
       y="419"
       width="68"
       height="32"
       class="nonterminal"
       id="rect25" />
    <text
       class="nonterminal"
       x="187"
       y="439"
       id="text25">to_char</text>
  </a>
  <a
     xlink:href="../to_date"
     xlink:title="to_date"
     id="a27">
    <rect
       x="179"
       y="465"
       width="70"
       height="32"
       id="rect26" />
    <rect
       x="177"
       y="463"
       width="70"
       height="32"
       class="nonterminal"
       id="rect27" />
    <text
       class="nonterminal"
       x="187"
       y="483"
       id="text27">to_date</text>
  </a>
  <a
     xlink:href="../trim"
     xlink:title="trim"
     id="a29">
    <rect
       x="179"
       y="509"
       width="44"
       height="32"
       id="rect28" />
    <rect
       x="177"
       y="507"
       width="44"
       height="32"
       class="nonterminal"
       id="rect29" />
    <text
       class="nonterminal"
       x="187"
       y="527"
       id="text29">trim</text>
  </a>
  <rect
     x="219"
     y="553"
     width="70"
     height="32"
     rx="10"
     id="rect30" />
  <rect
     x="217"
     y="551"
     width="70"
     height="32"
     class="terminal"
     rx="10"
     id="rect31" />
  <text
     class="terminal"
     x="227"
     y="571"
     id="text31">LOWER</text>
  <rect
     x="219"
     y="597"
     width="64"
     height="32"
     rx="10"
     id="rect32" />
  <rect
     x="217"
     y="595"
     width="64"
     height="32"
     class="terminal"
     rx="10"
     id="rect33" />
  <text
     class="terminal"
     x="227"
     y="615"
     id="text33">UPPER</text>
  <rect
     x="329"
     y="553"
     width="26"
     height="32"
     rx="10"
     id="rect34" />
  <rect
     x="327"
     y="551"
     width="26"
     height="32"
     class="terminal"
     rx="10"
     id="rect35" />
  <text
     class="terminal"
     x="337"
     y="571"
     id="text35">(</text>
  <a
     xlink:href="../../sql_types#text"
     xlink:title="string"
     id="a37">
    <rect
       x="375"
       y="553"
       width="56"
       height="32"
       id="rect36" />
    <rect
       x="373"
       y="551"
       width="56"
       height="32"
       class="nonterminal"
       id="rect37" />
    <text
       class="nonterminal"
       x="383"
       y="571"
       id="text37">string</text>
  </a>
  <rect
     x="219"
     y="673"
     width="48"
     height="32"
     rx="10"
     id="rect38" />
  <rect
     x="217"
     y="671"
     width="48"
     height="32"
     class="terminal"
     rx="10"
     id="rect39" />
  <text
     class="terminal"
     x="227"
     y="691"
     id="text39">NOT</text>
  <rect
     x="307"
     y="641"
     width="70"
     height="32"
     rx="10"
     id="rect40" />
  <rect
     x="305"
     y="639"
     width="70"
     height="32"
     class="terminal"
     rx="10"
     id="rect41" />
  <text
     class="terminal"
     x="315"
     y="659"
     id="text41">EXISTS</text>
  <rect
     x="397"
     y="641"
     width="26"
     height="32"
     rx="10"
     id="rect42" />
  <rect
     x="395"
     y="639"
     width="26"
     height="32"
     class="terminal"
     rx="10"
     id="rect43" />
  <text
     class="terminal"
     x="405"
     y="659"
     id="text43">(</text>
  <a
     xlink:href="../dql"
     xlink:title="dql"
     id="a45">
    <rect
       x="443"
       y="641"
       width="38"
       height="32"
       id="rect44" />
    <rect
       x="441"
       y="639"
       width="38"
       height="32"
       class="nonterminal"
       id="rect45" />
    <text
       class="nonterminal"
       x="451"
       y="659"
       id="text45">dql</text>
  </a>
  <rect
     x="199"
     y="761"
     width="26"
     height="32"
     rx="10"
     id="rect46" />
  <rect
     x="197"
     y="759"
     width="26"
     height="32"
     class="terminal"
     rx="10"
     id="rect47" />
  <text
     class="terminal"
     x="207"
     y="779"
     id="text47">(</text>
  <a
     xlink:href="#expression"
     xlink:title="expression"
     id="a49">
    <rect
       x="285"
       y="761"
       width="90"
       height="32"
       id="rect48" />
    <rect
       x="283"
       y="759"
       width="90"
       height="32"
       class="nonterminal"
       id="rect49" />
    <text
       class="nonterminal"
       x="293"
       y="779"
       id="text49">expression</text>
  </a>
  <rect
     x="285"
     y="717"
     width="24"
     height="32"
     rx="10"
     id="rect50" />
  <rect
     x="283"
     y="715"
     width="24"
     height="32"
     class="terminal"
     rx="10"
     id="rect51" />
  <text
     class="terminal"
     x="293"
     y="735"
     id="text51">,</text>
  <a
     xlink:href="../dql"
     xlink:title="dql"
     id="a53">
    <rect
       x="265"
       y="805"
       width="38"
       height="32"
       id="rect52" />
    <rect
       x="263"
       y="803"
       width="38"
       height="32"
       class="nonterminal"
       id="rect53" />
    <text
       class="nonterminal"
       x="273"
       y="823"
       id="text53">dql</text>
  </a>
  <rect
     x="521"
     y="553"
     width="26"
     height="32"
     rx="10"
     id="rect54" />
  <rect
     x="519"
     y="551"
     width="26"
     height="32"
     class="terminal"
     rx="10"
     id="rect55" />
  <text
     class="terminal"
     x="529"
     y="571"
     id="text55">)</text>
  <rect
     x="607"
     y="69"
     width="36"
     height="32"
     rx="10"
     id="rect56" />
  <rect
     x="605"
     y="67"
     width="36"
     height="32"
     class="terminal"
     rx="10"
     id="rect57" />
  <text
     class="terminal"
     x="615"
     y="87"
     id="text57">IS</text>
  <rect
     x="683"
     y="101"
     width="48"
     height="32"
     rx="10"
     id="rect58" />
  <rect
     x="681"
     y="99"
     width="48"
     height="32"
     class="terminal"
     rx="10"
     id="rect59" />
  <text
     class="terminal"
     x="691"
     y="119"
     id="text59">NOT</text>
  <rect
     x="771"
     y="69"
     width="56"
     height="32"
     rx="10"
     id="rect60" />
  <rect
     x="769"
     y="67"
     width="56"
     height="32"
     class="terminal"
     rx="10"
     id="rect61" />
  <text
     class="terminal"
     x="779"
     y="87"
     id="text61">NULL</text>
  <a
     xlink:href="#expression"
     xlink:title="expression"
     id="a63">
    <rect
       x="51"
       y="849"
       width="90"
       height="32"
       id="rect62" />
    <rect
       x="49"
       y="847"
       width="90"
       height="32"
       class="nonterminal"
       id="rect63" />
    <text
       class="nonterminal"
       x="59"
       y="867"
       id="text63">expression</text>
  </a>
  <rect
     x="201"
     y="881"
     width="48"
     height="32"
     rx="10"
     id="rect64" />
  <rect
     x="199"
     y="879"
     width="48"
     height="32"
     class="terminal"
     rx="10"
     id="rect65" />
  <text
     class="terminal"
     x="209"
     y="899"
     id="text65">NOT</text>
  <rect
     x="309"
     y="849"
     width="86"
     height="32"
     rx="10"
     id="rect66" />
  <rect
     x="307"
     y="847"
     width="86"
     height="32"
     class="terminal"
     rx="10"
     id="rect67" />
  <text
     class="terminal"
     x="317"
     y="867"
     id="text67">BETWEEN</text>
  <a
     xlink:href="#expression"
     xlink:title="expression"
     id="a69">
    <rect
       x="415"
       y="849"
       width="90"
       height="32"
       id="rect68" />
    <rect
       x="413"
       y="847"
       width="90"
       height="32"
       class="nonterminal"
       id="rect69" />
    <text
       class="nonterminal"
       x="423"
       y="867"
       id="text69">expression</text>
  </a>
  <rect
     x="525"
     y="849"
     width="48"
     height="32"
     rx="10"
     id="rect70" />
  <rect
     x="523"
     y="847"
     width="48"
     height="32"
     class="terminal"
     rx="10"
     id="rect71" />
  <text
     class="terminal"
     x="533"
     y="867"
     id="text71">AND</text>
  <rect
     x="309"
     y="893"
     width="36"
     height="32"
     rx="10"
     id="rect72" />
  <rect
     x="307"
     y="891"
     width="36"
     height="32"
     class="terminal"
     rx="10"
     id="rect73" />
  <text
     class="terminal"
     x="317"
     y="911"
     id="text73">IN</text>
  <rect
     x="181"
     y="937"
     width="30"
     height="32"
     rx="10"
     id="rect74" />
  <rect
     x="179"
     y="935"
     width="30"
     height="32"
     class="terminal"
     rx="10"
     id="rect75" />
  <text
     class="terminal"
     x="189"
     y="955"
     id="text75">+</text>
  <rect
     x="181"
     y="981"
     width="26"
     height="32"
     rx="10"
     id="rect76" />
  <rect
     x="179"
     y="979"
     width="26"
     height="32"
     class="terminal"
     rx="10"
     id="rect77" />
  <text
     class="terminal"
     x="189"
     y="999"
     id="text77">-</text>
  <rect
     x="181"
     y="1025"
     width="28"
     height="32"
     rx="10"
     id="rect78" />
  <rect
     x="179"
     y="1023"
     width="28"
     height="32"
     class="terminal"
     rx="10"
     id="rect79" />
  <text
     class="terminal"
     x="189"
     y="1043"
     id="text79">*</text>
  <rect
     x="181"
     y="1069"
     width="28"
     height="32"
     rx="10"
     id="rect80" />
  <rect
     x="179"
     y="1067"
     width="28"
     height="32"
     class="terminal"
     rx="10"
     id="rect81" />
  <text
     class="terminal"
     x="189"
     y="1087"
     id="text81">/</text>
  <rect
     x="181"
     y="1113"
     width="40"
     height="32"
     rx="10"
     id="rect82" />
  <rect
     x="179"
     y="1111"
     width="40"
     height="32"
     class="terminal"
     rx="10"
     id="rect83" />
  <text
     class="terminal"
     x="189"
     y="1131"
     id="text83">&lt;&gt;</text>
  <rect
     x="181"
     y="1157"
     width="34"
     height="32"
     rx="10"
     id="rect84" />
  <rect
     x="179"
     y="1155"
     width="34"
     height="32"
     class="terminal"
     rx="10"
     id="rect85" />
  <text
     class="terminal"
     x="189"
     y="1175"
     id="text85">!=</text>
  <rect
     x="181"
     y="1201"
     width="40"
     height="32"
     rx="10"
     id="rect86" />
  <rect
     x="179"
     y="1199"
     width="40"
     height="32"
     class="terminal"
     rx="10"
     id="rect87" />
  <text
     class="terminal"
     x="189"
     y="1219"
     id="text87">&gt;=</text>
  <rect
     x="181"
     y="1245"
     width="30"
     height="32"
     rx="10"
     id="rect88" />
  <rect
     x="179"
     y="1243"
     width="30"
     height="32"
     class="terminal"
     rx="10"
     id="rect89" />
  <text
     class="terminal"
     x="189"
     y="1263"
     id="text89">&gt;</text>
  <rect
     x="181"
     y="1289"
     width="40"
     height="32"
     rx="10"
     id="rect90" />
  <rect
     x="179"
     y="1287"
     width="40"
     height="32"
     class="terminal"
     rx="10"
     id="rect91" />
  <text
     class="terminal"
     x="189"
     y="1307"
     id="text91">&lt;=</text>
  <rect
     x="181"
     y="1333"
     width="30"
     height="32"
     rx="10"
     id="rect92" />
  <rect
     x="179"
     y="1331"
     width="30"
     height="32"
     class="terminal"
     rx="10"
     id="rect93" />
  <text
     class="terminal"
     x="189"
     y="1351"
     id="text93">&lt;</text>
  <rect
     x="181"
     y="1377"
     width="30"
     height="32"
     rx="10"
     id="rect94" />
  <rect
     x="179"
     y="1375"
     width="30"
     height="32"
     class="terminal"
     rx="10"
     id="rect95" />
  <text
     class="terminal"
     x="189"
     y="1395"
     id="text95">=</text>
  <rect
     x="181"
     y="1421"
     width="32"
     height="32"
     rx="10"
     id="rect96" />
  <rect
     x="179"
     y="1419"
     width="32"
     height="32"
     class="terminal"
     rx="10"
     id="rect97" />
  <text
     class="terminal"
     x="189"
     y="1439"
     id="text97">||</text>
  <rect
     x="181"
     y="1465"
     width="48"
     height="32"
     rx="10"
     id="rect98" />
  <rect
     x="179"
     y="1463"
     width="48"
     height="32"
     class="terminal"
     rx="10"
     id="rect99" />
  <text
     class="terminal"
     x="189"
     y="1483"
     id="text99">AND</text>
  <rect
     x="181"
     y="1509"
     width="40"
     height="32"
     rx="10"
     id="rect100" />
  <rect
     x="179"
     y="1507"
     width="40"
     height="32"
     class="terminal"
     rx="10"
     id="rect101" />
  <text
     class="terminal"
     x="189"
     y="1527"
     id="text101">OR</text>
  <a
     xlink:href="#expression"
     xlink:title="expression"
     id="a103">
    <rect
       x="633"
       y="849"
       width="90"
       height="32"
       id="rect102" />
    <rect
       x="631"
       y="847"
       width="90"
       height="32"
       class="nonterminal"
       id="rect103" />
    <text
       class="nonterminal"
       x="641"
       y="867"
       id="text103">expression</text>
  </a>
  <path
     class="line"
     d="m17 51 h2 m40 0 h10 m0 0 h58 m-88 0 l20 0 m-1 0 q-9 0 -9 -10 l0 -14 q0 -10 10 -10 m68 34 l20 0 m-20 0 q10 0 10 -10 l0 -14 q0 -10 -10 -10 m-68 0 h10 m48 0 h10 m60 34 h10 m0 0 h106 m-136 0 h20 m116 0 h20 m-156 0 q10 0 10 10 m136 0 q0 -10 10 -10 m-146 10 v12 m136 0 v-12 m-136 12 q0 10 10 10 m116 0 q10 0 10 -10 m-126 10 h10 m52 0 h10 m0 0 h10 m24 0 h10 m20 -32 h10 m64 0 h10 m0 0 h148 m-408 0 h20 m388 0 h20 m-428 0 q10 0 10 10 m408 0 q0 -10 10 -10 m-418 10 v56 m408 0 v-56 m-408 56 q0 10 10 10 m388 0 q10 0 10 -10 m-398 10 h10 m56 0 h10 m0 0 h312 m-398 -10 v20 m408 0 v-20 m-408 20 v24 m408 0 v-24 m-408 24 q0 10 10 10 m388 0 q10 0 10 -10 m-398 10 h10 m48 0 h10 m0 0 h320 m-398 -10 v20 m408 0 v-20 m-408 20 v24 m408 0 v-24 m-408 24 q0 10 10 10 m388 0 q10 0 10 -10 m-398 10 h10 m46 0 h10 m0 0 h322 m-398 -10 v20 m408 0 v-20 m-408 20 v24 m408 0 v-24 m-408 24 q0 10 10 10 m388 0 q10 0 10 -10 m-398 10 h10 m102 0 h10 m0 0 h266 m-398 -10 v20 m408 0 v-20 m-408 20 v24 m408 0 v-24 m-408 24 q0 10 10 10 m388 0 q10 0 10 -10 m-398 10 h10 m42 0 h10 m0 0 h326 m-398 -10 v20 m408 0 v-20 m-408 20 v24 m408 0 v-24 m-408 24 q0 10 10 10 m388 0 q10 0 10 -10 m-398 10 h10 m44 0 h10 m0 0 h324 m-398 -10 v20 m408 0 v-20 m-408 20 v24 m408 0 v-24 m-408 24 q0 10 10 10 m388 0 q10 0 10 -10 m-398 10 h10 m60 0 h10 m0 0 h308 m-398 -10 v20 m408 0 v-20 m-408 20 v24 m408 0 v-24 m-408 24 q0 10 10 10 m388 0 q10 0 10 -10 m-398 10 h10 m68 0 h10 m0 0 h300 m-398 -10 v20 m408 0 v-20 m-408 20 v24 m408 0 v-24 m-408 24 q0 10 10 10 m388 0 q10 0 10 -10 m-398 10 h10 m70 0 h10 m0 0 h298 m-398 -10 v20 m408 0 v-20 m-408 20 v24 m408 0 v-24 m-408 24 q0 10 10 10 m388 0 q10 0 10 -10 m-398 10 h10 m44 0 h10 m0 0 h324 m-398 -10 v20 m408 0 v-20 m-408 20 v24 m408 0 v-24 m-408 24 q0 10 10 10 m388 0 q10 0 10 -10 m-358 10 h10 m70 0 h10 m-110 0 h20 m90 0 h20 m-130 0 q10 0 10 10 m110 0 q0 -10 10 -10 m-120 10 v24 m110 0 v-24 m-110 24 q0 10 10 10 m90 0 q10 0 10 -10 m-100 10 h10 m64 0 h10 m0 0 h6 m20 -44 h10 m26 0 h10 m0 0 h10 m56 0 h10 m0 0 h50 m-322 0 h20 m302 0 h20 m-342 0 q10 0 10 10 m322 0 q0 -10 10 -10 m-332 10 v68 m322 0 v-68 m-322 68 q0 10 10 10 m302 0 q10 0 10 -10 m-292 10 h10 m0 0 h58 m-88 0 h20 m68 0 h20 m-108 0 q10 0 10 10 m88 0 q0 -10 10 -10 m-98 10 v12 m88 0 v-12 m-88 12 q0 10 10 10 m68 0 q10 0 10 -10 m-78 10 h10 m48 0 h10 m20 -32 h10 m70 0 h10 m0 0 h10 m26 0 h10 m0 0 h10 m38 0 h10 m-312 -10 v20 m322 0 v-20 m-322 20 v100 m322 0 v-100 m-322 100 q0 10 10 10 m302 0 q10 0 10 -10 m-312 10 h10 m26 0 h10 m40 0 h10 m90 0 h10 m-130 0 l20 0 m-1 0 q-9 0 -9 -10 l0 -24 q0 -10 10 -10 m110 44 l20 0 m-20 0 q10 0 10 -10 l0 -24 q0 -10 -10 -10 m-110 0 h10 m24 0 h10 m0 0 h66 m-150 44 h20 m150 0 h20 m-190 0 q10 0 10 10 m170 0 q0 -10 10 -10 m-180 10 v24 m170 0 v-24 m-170 24 q0 10 10 10 m150 0 q10 0 10 -10 m-160 10 h10 m38 0 h10 m0 0 h92 m20 -44 h66 m20 -208 h10 m26 0 h10 m40 -516 h10 m0 0 h230 m-260 0 h20 m240 0 h20 m-280 0 q10 0 10 10 m260 0 q0 -10 10 -10 m-270 10 v12 m260 0 v-12 m-260 12 q0 10 10 10 m240 0 q10 0 10 -10 m-250 10 h10 m36 0 h10 m20 0 h10 m0 0 h58 m-88 0 h20 m68 0 h20 m-108 0 q10 0 10 10 m88 0 q0 -10 10 -10 m-98 10 v12 m88 0 v-12 m-88 12 q0 10 10 10 m68 0 q10 0 10 -10 m-78 10 h10 m48 0 h10 m20 -32 h10 m56 0 h10 m-816 -32 h20 m816 0 h20 m-856 0 q10 0 10 10 m836 0 q0 -10 10 -10 m-846 10 v792 m836 0 v-792 m-836 792 q0 10 10 10 m816 0 q10 0 10 -10 m-826 10 h10 m90 0 h10 m40 0 h10 m0 0 h58 m-88 0 h20 m68 0 h20 m-108 0 q10 0 10 10 m88 0 q0 -10 10 -10 m-98 10 v12 m88 0 v-12 m-88 12 q0 10 10 10 m68 0 q10 0 10 -10 m-78 10 h10 m48 0 h10 m40 -32 h10 m86 0 h10 m0 0 h10 m90 0 h10 m0 0 h10 m48 0 h10 m-304 0 h20 m284 0 h20 m-324 0 q10 0 10 10 m304 0 q0 -10 10 -10 m-314 10 v24 m304 0 v-24 m-304 24 q0 10 10 10 m284 0 q10 0 10 -10 m-294 10 h10 m36 0 h10 m0 0 h228 m-432 -44 h20 m432 0 h20 m-472 0 q10 0 10 10 m452 0 q0 -10 10 -10 m-462 10 v68 m452 0 v-68 m-452 68 q0 10 10 10 m432 0 q10 0 10 -10 m-442 10 h10 m30 0 h10 m0 0 h382 m-442 -10 v20 m452 0 v-20 m-452 20 v24 m452 0 v-24 m-452 24 q0 10 10 10 m432 0 q10 0 10 -10 m-442 10 h10 m26 0 h10 m0 0 h386 m-442 -10 v20 m452 0 v-20 m-452 20 v24 m452 0 v-24 m-452 24 q0 10 10 10 m432 0 q10 0 10 -10 m-442 10 h10 m28 0 h10 m0 0 h384 m-442 -10 v20 m452 0 v-20 m-452 20 v24 m452 0 v-24 m-452 24 q0 10 10 10 m432 0 q10 0 10 -10 m-442 10 h10 m28 0 h10 m0 0 h384 m-442 -10 v20 m452 0 v-20 m-452 20 v24 m452 0 v-24 m-452 24 q0 10 10 10 m432 0 q10 0 10 -10 m-442 10 h10 m40 0 h10 m0 0 h372 m-442 -10 v20 m452 0 v-20 m-452 20 v24 m452 0 v-24 m-452 24 q0 10 10 10 m432 0 q10 0 10 -10 m-442 10 h10 m34 0 h10 m0 0 h378 m-442 -10 v20 m452 0 v-20 m-452 20 v24 m452 0 v-24 m-452 24 q0 10 10 10 m432 0 q10 0 10 -10 m-442 10 h10 m40 0 h10 m0 0 h372 m-442 -10 v20 m452 0 v-20 m-452 20 v24 m452 0 v-24 m-452 24 q0 10 10 10 m432 0 q10 0 10 -10 m-442 10 h10 m30 0 h10 m0 0 h382 m-442 -10 v20 m452 0 v-20 m-452 20 v24 m452 0 v-24 m-452 24 q0 10 10 10 m432 0 q10 0 10 -10 m-442 10 h10 m40 0 h10 m0 0 h372 m-442 -10 v20 m452 0 v-20 m-452 20 v24 m452 0 v-24 m-452 24 q0 10 10 10 m432 0 q10 0 10 -10 m-442 10 h10 m30 0 h10 m0 0 h382 m-442 -10 v20 m452 0 v-20 m-452 20 v24 m452 0 v-24 m-452 24 q0 10 10 10 m432 0 q10 0 10 -10 m-442 10 h10 m30 0 h10 m0 0 h382 m-442 -10 v20 m452 0 v-20 m-452 20 v24 m452 0 v-24 m-452 24 q0 10 10 10 m432 0 q10 0 10 -10 m-442 10 h10 m32 0 h10 m0 0 h380 m-442 -10 v20 m452 0 v-20 m-452 20 v24 m452 0 v-24 m-452 24 q0 10 10 10 m432 0 q10 0 10 -10 m-442 10 h10 m48 0 h10 m0 0 h364 m-442 -10 v20 m452 0 v-20 m-452 20 v24 m452 0 v-24 m-452 24 q0 10 10 10 m432 0 q10 0 10 -10 m-442 10 h10 m40 0 h10 m0 0 h372 m20 -660 h10 m90 0 h10 m0 0 h124 m23 -812 h-3"
     id="path103" />
  <polygon
     points="885 51 893 47 893 55"
     id="polygon103" />
  <polygon
     points="885 51 877 47 877 55"
     id="polygon104" />
</svg>
