<?xml version="1.0" encoding="UTF-8" standalone="no"?>
<svg
   width="703"
   height="905"
   version="1.1"
   id="svg206"
   sodipodi:docname="expression.svg"
   inkscape:version="1.3.1 (91b66b0783, 2023-11-16)"
   xmlns:inkscape="http://www.inkscape.org/namespaces/inkscape"
   xmlns:sodipodi="http://sodipodi.sourceforge.net/DTD/sodipodi-0.dtd"
   xmlns:xlink="http://www.w3.org/1999/xlink"
   xmlns="http://www.w3.org/2000/svg"
   xmlns:svg="http://www.w3.org/2000/svg">
  <sodipodi:namedview
     id="namedview208"
     pagecolor="#ffffff"
     bordercolor="#666666"
     borderopacity="1.0"
     inkscape:showpageshadow="2"
     inkscape:pageopacity="0.0"
     inkscape:pagecheckerboard="0"
     inkscape:deskcolor="#d1d1d1"
     showgrid="false"
     inkscape:zoom="1.3110775"
     inkscape:cx="69.027193"
     inkscape:cy="609.80377"
     inkscape:window-width="1920"
     inkscape:window-height="1032"
     inkscape:window-x="0"
     inkscape:window-y="25"
     inkscape:window-maximized="1"
     inkscape:current-layer="svg206" />
  <defs
     id="defs4">
    <style
       type="text/css"
       id="style2">@namespace &quot;http://www.w3.org/2000/svg&quot;;.line { fill: none; stroke: #320000; stroke-width: 1; }
.bold-line { stroke: #FFE0E0; shape-rendering: crispEdges; stroke-width: 2; }
.thin-line { stroke: #1F0000; shape-rendering: crispEdges }
.filled { fill: #320000; stroke: none; }
text.terminal { font-family: HelveticaNeueCyr, Sans-serif;                            font-size: 14px;                            fill: #FFE0E0;                            font-weight: bold; }
text.nonterminal { font-family: HelveticaNeueCyr, Sans-serif;                            font-size: 14px;                            fill: #FFE0E0;                            font-weight: normal; }
text.regexp { font-family: HelveticaNeueCyr, Sans-serif;                            font-size: 14px;                            fill: #1F0000;                            font-weight: normal; }
rect, circle, polygon { fill: #320000; stroke: #320000; }
rect.terminal { fill: #FF0000; stroke: #320000; stroke-width: 1; }
rect.nonterminal { fill: #FF3F3F; stroke: #320000; stroke-width: 1; }
rect.text { fill: none; stroke: none; }
polygon.regexp { fill: #FF5E5E; stroke: #320000; stroke-width: 1; }
</style>
  </defs>
  <path
     id="polygon6"
     style="fill:#320000;stroke:#320000"
     d="M 9,17 1,13 v 8 z" />
  <path
     id="polygon8"
     style="fill:#320000;stroke:#320000"
     d="M 17,17 9,13 v 8 z" />
  <a
     xlink:href="#name"
     xlink:title="column_name"
     id="a16">
    <path
       id="rect10"
       style="fill:#320000;stroke:#320000"
       d="M 51,3 H 159 V 35 H 51 Z" />
    <path
       id="rect12"
       class="nonterminal"
       style="fill:#ff3f3f;stroke:#320000"
       d="M 49,1 H 157 V 33 H 49 Z" />
    <path
       d="m 66.112,18.368 h -1.204 c -0.182,1.19 -0.896,1.848 -1.974,1.848 -1.344,0 -2.156,-1.064 -2.156,-2.828 0,-1.736 0.868,-2.828 2.24,-2.828 0.98,0 1.61,0.546 1.82,1.568 h 1.232 c -0.196,-1.638 -1.302,-2.562 -3.066,-2.562 -2.128,0 -3.472,1.512 -3.472,3.92 0,2.198 1.19,3.724 3.43,3.724 1.792,0 2.94,-1.12 3.15,-2.842 z m 4.466009,-4.802 c -2.184,0 -3.542,1.47 -3.542,3.85 0,2.38 1.316,3.808 3.528,3.808 2.198,0 3.472,-1.428 3.472,-3.878 0,-2.394 -1.274,-3.78 -3.458,-3.78 z m -0.028,0.994 c 1.4,0 2.268,1.092 2.268,2.814 0,1.778 -0.84,2.842 -2.24,2.842 -1.456,0 -2.31,-1.05 -2.31,-2.828 0,-1.722 0.882,-2.828 2.282,-2.828 z m 6.159992,-3.528 h -1.204 V 21 h 1.204 z m 7.840002,2.744 h -1.19 v 3.78 c 0,1.484 -0.546,2.604 -2.114,2.604 -1.218,0 -1.512,-0.7 -1.512,-1.736 v -4.648 h -1.19 v 4.97 c 0,1.596 0.896,2.45 2.408,2.45 1.064,0 1.862,-0.42 2.492,-1.33 V 21 h 1.106 z m 2.911996,0 h -1.12 V 21 h 1.19 v -3.822 c 0,-1.358 0.364,-2.52 1.96,-2.52 1.148,0 1.33,0.756 1.33,1.708 V 21 h 1.19 v -4.102 c 0,-1.33 0.49,-2.254 1.848,-2.254 1.288,0 1.442,0.784 1.442,1.806 V 21 h 1.19 v -5.054 c 0,-1.47 -0.756,-2.366 -2.282,-2.366 -1.078,0 -1.778,0.434 -2.394,1.26 -0.364,-0.868 -1.036,-1.246 -2.002,-1.246 -1.064,0 -1.736,0.406 -2.352,1.232 z m 11.942009,0 h -1.12 V 21 h 1.19 v -3.78 c 0,-1.428 0.504,-2.604 2.058002,-2.604 1.498,0 1.554,0.98 1.554,2.128 V 21 h 1.19 v -4.802 c 0,-1.652 -0.644,-2.618 -2.408,-2.618 -1.106,0 -1.862,0.434 -2.464002,1.316 z M 105.172,22.75 h 7 v -0.7 h -7 z m 9.016,-8.974 h -1.12 V 21 h 1.19 v -3.78 c 0,-1.428 0.504,-2.604 2.058,-2.604 1.498,0 1.554,0.98 1.554,2.128 V 21 h 1.19 v -4.802 c 0,-1.652 -0.644,-2.618 -2.408,-2.618 -1.106,0 -1.862,0.434 -2.464,1.316 z m 13.062,6.272 c -0.126,0.028 -0.182,0.042 -0.294,0.042 -0.364,0 -0.49,-0.182 -0.49,-0.714 0,-1.078 0.056,-2.142 0.056,-3.22 0,-0.644 0.014,-1.386 -0.49,-1.876 -0.476,-0.448 -1.302,-0.7 -2.268,-0.7 -1.862,0 -2.982,0.91 -3.024,2.45 h 1.162 c 0.112,-1.064 0.686,-1.47 1.792,-1.47 1.064,0 1.638,0.42 1.638,1.19 0,0.98 -0.588,0.938 -2.31,1.148 -1.708,0.21 -2.562,0.966 -2.562,2.254 0,1.26 0.882,2.044 2.31,2.044 1.12,0 1.904,-0.35 2.618,-1.148 0.014,0.686 0.378,1.064 1.05,1.064 0.266,0 0.56,-0.042 0.812,-0.14 z m -1.918,-2.8 v 1.316 c 0,0.924 -1.078,1.694 -2.198,1.694 -0.896,0 -1.442,-0.462 -1.442,-1.204 0,-1.162 1.176,-1.26 2.044,-1.372 0.532,-0.07 1.148,-0.098 1.596,-0.434 z m 4.15801,-3.472 h -1.12 V 21 h 1.19 v -3.822 c 0,-1.358 0.364,-2.52 1.96,-2.52 1.148,0 1.33,0.756 1.33,1.708 V 21 h 1.19 v -4.102 c 0,-1.33 0.49,-2.254 1.848,-2.254 1.288,0 1.442,0.784 1.442,1.806 V 21 h 1.19 v -5.054 c 0,-1.47 -0.756,-2.366 -2.282,-2.366 -1.078,0 -1.778,0.434 -2.394,1.26 -0.364,-0.868 -1.036,-1.246 -2.002,-1.246 -1.064,0 -1.736,0.406 -2.352,1.232 z m 16.99601,4.942 h -1.162 c -0.336,1.092 -0.91,1.54 -1.946,1.54 -1.4,0 -2.254,-0.924 -2.254,-2.464 l 0.014,-0.084 h 5.432 v -0.168 c 0,-2.086 -0.896,-3.976 -3.276,-3.976 -2.002,0 -3.36,1.582 -3.36,3.92 0,2.352 1.274,3.752 3.402,3.752 1.708,0 2.786,-0.854 3.15,-2.52 z m -1.148,-1.974 h -4.2 c 0.154,-1.358 0.966,-2.198 2.128,-2.198 1.19,0 1.96,0.826 2.072,2.198 z"
       id="text14"
       class="nonterminal"
       style="font-size:14px;font-family:HelveticaNeueCyr, Sans-serif;fill:#ffe0e0"
       aria-label="column_name" />
  </a>
  <path
     id="rect18"
     style="fill:#320000;stroke:#320000"
     d="m 61,47 h 36 c 5.54,0 10,4.46 10,10 v 12 c 0,5.54 -4.46,10 -10,10 H 61 C 55.46,79 51,74.54 51,69 V 57 c 0,-5.54 4.46,-10 10,-10 z" />
  <path
     id="rect20"
     class="terminal"
     style="fill:#ff0000;stroke:#320000"
     d="m 59,45 h 36 c 5.54,0 10,4.46 10,10 v 12 c 0,5.54 -4.46,10 -10,10 H 59 C 53.46,77 49,72.54 49,67 V 55 c 0,-5.54 4.46,-10 10,-10 z" />
  <path
     d="M 68.87,61.15 H 66.7 c -0.182,1.456 -0.966,2.24 -2.282,2.24 -1.61,0 -2.632,-1.316 -2.632,-3.374 0,-1.666 0.742,-3.388 2.66,-3.388 1.176,0 1.988,0.644 2.212,1.736 H 68.8 c -0.168,-2.058 -1.918,-3.57 -4.312,-3.57 -3.052,0 -4.9,2.31 -4.9,5.208 0,3.15 1.918,5.236 4.816,5.236 2.73,0 4.242,-1.652 4.466,-4.088 z m 6.425989,-6.132 h -2.254 l -3.794,9.982 h 2.24 l 0.812,-2.226 h 3.71 l 0.784,2.226 h 2.296 z m 0.182,6.16 h -2.646 l 1.33,-3.71 z M 87.307982,58 c -0.042,-2.226 -1.736,-3.178 -3.836,-3.178 -2.324,0 -3.836,1.176 -3.836,2.982 0,2.03 1.554,2.436 3.178,2.898 2.058,0.588 2.73,0.728 2.73,1.512 0,0.826 -0.7,1.33 -1.848,1.33 -1.33,0 -2.212,-0.532 -2.254,-1.876 h -2.17 c 0.028,2.254 1.624,3.556 4.326,3.556 2.03,0 4.102,-0.868 4.102,-3.22 0,-1.666 -1.134,-2.352 -2.912,-2.856 -1.988,-0.56 -3.052,-0.63 -3.052,-1.498 0,-0.714 0.602,-1.134 1.61,-1.134 1.162,0 1.806,0.518 1.89,1.484 z m 9.114002,-2.968 h -8.19 v 1.862 h 2.996 V 65 h 2.198 v -8.106 h 2.996 z"
     id="text22"
     class="terminal"
     style="font-weight:bold;font-size:14px;font-family:HelveticaNeueCyr, Sans-serif;fill:#ffe0e0"
     aria-label="CAST" />
  <path
     id="rect24"
     style="fill:#320000;stroke:#320000"
     d="m 137,47 h 6 c 5.54,0 10,4.46 10,10 v 12 c 0,5.54 -4.46,10 -10,10 h -6 c -5.54,0 -10,-4.46 -10,-10 V 57 c 0,-5.54 4.46,-10 10,-10 z" />
  <path
     id="rect26"
     class="terminal"
     style="fill:#ff0000;stroke:#320000"
     d="m 135,45 h 6 c 5.54,0 10,4.46 10,10 v 12 c 0,5.54 -4.46,10 -10,10 h -6 c -5.54,0 -10,-4.46 -10,-10 V 55 c 0,-5.54 4.46,-10 10,-10 z" />
  <path
     d="m 139.228,54.878 h -1.652 c -1.232,1.792 -1.834,4.27 -1.834,6.412 0,2.128 0.658,4.438 1.834,6.202 h 1.68 c -0.994,-1.988 -1.582,-4.018 -1.582,-6.244 0,-2.408 0.49,-4.242 1.554,-6.37 z"
     id="text28"
     class="terminal"
     style="font-weight:bold;font-size:14px;font-family:HelveticaNeueCyr, Sans-serif;fill:#ffe0e0"
     aria-label="(" />
  <a
     xlink:href="#expression"
     xlink:title="expression"
     id="a36">
    <path
       id="rect30"
       style="fill:#320000;stroke:#320000"
       d="m 173,47 h 90 v 32 h -90 z" />
    <path
       id="rect32"
       class="nonterminal"
       style="fill:#ff3f3f;stroke:#320000"
       d="m 171,45 h 90 v 32 h -90 z" />
    <path
       d="m 188.07,62.718 h -1.162 c -0.336,1.092 -0.91,1.54 -1.946,1.54 -1.4,0 -2.254,-0.924 -2.254,-2.464 l 0.014,-0.084 h 5.432 v -0.168 c 0,-2.086 -0.896,-3.976 -3.276,-3.976 -2.002,0 -3.36,1.582 -3.36,3.92 0,2.352 1.274,3.752 3.402,3.752 1.708,0 2.786,-0.854 3.15,-2.52 z m -1.148,-1.974 h -4.2 c 0.154,-1.358 0.966,-2.198 2.128,-2.198 1.19,0 1.96,0.826 2.072,2.198 z m 8.42801,-2.968 h -1.442 l -1.792,2.478 -1.75,-2.478 h -1.512 l 2.506,3.416 -2.716,3.808 h 1.442 l 2.002,-2.968 2.03,2.968 h 1.526 l -2.814,-3.892 z m 2.43599,0 h -1.12 v 10.01 h 1.19 v -3.794 c 0.616,0.84 1.358,1.19 2.422,1.19 1.974,0 3.234,-1.498 3.234,-3.836 0,-2.338 -1.274,-3.794 -3.29,-3.794 -1.064,0 -1.876,0.35 -2.436,1.246 z m 2.254,0.77 c 1.4,0 2.24,1.064 2.24,2.814 0,1.736 -0.84,2.814 -2.198,2.814 -1.4,0 -2.268,-1.064 -2.268,-2.814 0,-1.75 0.84,-2.814 2.226,-2.814 z m 8.69401,-0.938 c -1.288,0 -2.17,0.504 -2.674,1.722 v -1.554 h -1.134 V 65 h 1.19 v -3.052 c 0,-1.624 0.35,-3.122 2.31,-3.122 0.126,0 0.182,0 0.308,0.014 z m 6.81801,5.11 h -1.162 c -0.336,1.092 -0.91,1.54 -1.946,1.54 -1.4,0 -2.254,-0.924 -2.254,-2.464 l 0.014,-0.084 h 5.432 v -0.168 c 0,-2.086 -0.896,-3.976 -3.276,-3.976 -2.002,0 -3.36,1.582 -3.36,3.92 0,2.352 1.274,3.752 3.402,3.752 1.708,0 2.786,-0.854 3.15,-2.52 z m -1.148,-1.974 h -4.2 c 0.154,-1.358 0.966,-2.198 2.128,-2.198 1.19,0 1.96,0.826 2.072,2.198 z m 7.85401,-0.868 c 0,-1.526 -1.26,-2.31 -2.884,-2.31 -1.68,0 -2.758,0.826 -2.758,2.128 0,1.666 1.666,1.82 2.912,2.128 1.008,0.252 1.82,0.42 1.82,1.218 0,0.728 -0.7,1.204 -1.764,1.204 -1.148,0 -1.89,-0.434 -1.96,-1.526 h -1.176 c 0.07,1.624 1.148,2.506 3.108,2.506 1.806,0 2.996,-0.924 2.996,-2.324 0,-1.568 -1.582,-1.918 -2.8,-2.198 -0.98,-0.224 -1.918,-0.35 -1.918,-1.162 0,-0.602 0.56,-0.98 1.47,-0.98 1.022,0 1.68,0.364 1.764,1.316 z m 7,0 c 0,-1.526 -1.26,-2.31 -2.884,-2.31 -1.68,0 -2.758,0.826 -2.758,2.128 0,1.666 1.666,1.82 2.912,2.128 1.008,0.252 1.82,0.42 1.82,1.218 0,0.728 -0.7,1.204 -1.764,1.204 -1.148,0 -1.89,-0.434 -1.96,-1.526 h -1.176 c 0.07,1.624 1.148,2.506 3.108,2.506 1.806,0 2.996,-0.924 2.996,-2.324 0,-1.568 -1.582,-1.918 -2.8,-2.198 -0.98,-0.224 -1.918,-0.35 -1.918,-1.162 0,-0.602 0.56,-0.98 1.47,-0.98 1.022,0 1.68,0.364 1.764,1.316 z m 2.898,-4.844 h -1.204 v 1.456 h 1.204 z m 0,2.744 h -1.204 V 65 h 1.204 z m 5.012,-0.21 c -2.184,0 -3.542,1.47 -3.542,3.85 0,2.38 1.316,3.808 3.528,3.808 2.198,0 3.472,-1.428 3.472,-3.878 0,-2.394 -1.274,-3.78 -3.458,-3.78 z m -0.028,0.994 c 1.4,0 2.268,1.092 2.268,2.814 0,1.778 -0.84,2.842 -2.24,2.842 -1.456,0 -2.31,-1.05 -2.31,-2.828 0,-1.722 0.882,-2.828 2.282,-2.828 z m 6.01999,-0.784 h -1.12 V 65 h 1.19 v -3.78 c 0,-1.428 0.504,-2.604 2.058,-2.604 1.498,0 1.554,0.98 1.554,2.128 V 65 h 1.19 v -4.802 c 0,-1.652 -0.644,-2.618 -2.408,-2.618 -1.106,0 -1.862,0.434 -2.464,1.316 z"
       id="text34"
       class="nonterminal"
       style="font-size:14px;font-family:HelveticaNeueCyr, Sans-serif;fill:#ffe0e0"
       aria-label="expression" />
  </a>
  <path
     id="rect38"
     style="fill:#320000;stroke:#320000"
     d="m 293,47 h 18 c 5.54,0 10,4.46 10,10 v 12 c 0,5.54 -4.46,10 -10,10 h -18 c -5.54,0 -10,-4.46 -10,-10 V 57 c 0,-5.54 4.46,-10 10,-10 z" />
  <path
     id="rect40"
     class="terminal"
     style="fill:#ff0000;stroke:#320000"
     d="m 291,45 h 18 c 5.54,0 10,4.46 10,10 v 12 c 0,5.54 -4.46,10 -10,10 h -18 c -5.54,0 -10,-4.46 -10,-10 V 55 c 0,-5.54 4.46,-10 10,-10 z" />
  <path
     d="m 296.922,55.018 h -2.254 L 290.874,65 h 2.24 l 0.812,-2.226 h 3.71 L 298.42,65 h 2.296 z m 0.182,6.16 h -2.646 l 1.33,-3.71 z M 308.93399,58 c -0.042,-2.226 -1.736,-3.178 -3.836,-3.178 -2.324,0 -3.836,1.176 -3.836,2.982 0,2.03 1.554,2.436 3.178,2.898 2.058,0.588 2.73,0.728 2.73,1.512 0,0.826 -0.7,1.33 -1.848,1.33 -1.33,0 -2.212,-0.532 -2.254,-1.876 h -2.17 c 0.028,2.254 1.624,3.556 4.326,3.556 2.03,0 4.102,-0.868 4.102,-3.22 0,-1.666 -1.134,-2.352 -2.912,-2.856 -1.988,-0.56 -3.052,-0.63 -3.052,-1.498 0,-0.714 0.602,-1.134 1.61,-1.134 1.162,0 1.806,0.518 1.89,1.484 z"
     id="text42"
     class="terminal"
     style="font-weight:bold;font-size:14px;font-family:HelveticaNeueCyr, Sans-serif;fill:#ffe0e0"
     aria-label="AS" />
  <a
     xlink:href="#type"
     xlink:title="type"
     id="a50">
    <path
       id="rect44"
       style="fill:#320000;stroke:#320000"
       d="m 341,47 h 48 v 32 h -48 z" />
    <path
       id="rect46"
       class="nonterminal"
       style="fill:#ff3f3f;stroke:#320000"
       d="m 339,45 h 48 v 32 h -48 z" />
    <path
       d="m 352.99,57.776 h -1.442 v -2.142 h -1.19 v 2.142 h -1.218 v 0.98 h 1.218 v 3.836 c 0,1.582 -0.084,2.478 1.722,2.478 0.378,0 0.532,-0.014 0.91,-0.056 v -1.022 c -0.252,0.028 -0.406,0.042 -0.644,0.042 -0.84,0 -0.798,-0.406 -0.798,-1.064 v -4.214 h 1.442 z m 7.29401,0 h -1.246 l -2.03,5.754 -2.142,-5.754 h -1.344 l 2.87,7.182 -0.56,1.316 c -0.14,0.336 -0.448,0.602 -0.84,0.602 -0.21,0 -0.392,-0.042 -0.77,-0.154 v 1.064 c 0.294,0.07 0.574,0.126 0.882,0.126 1.288,0 1.694,-0.966 2.086,-1.988 z m 2.142,0 h -1.12 v 10.01 h 1.19 v -3.794 c 0.616,0.84 1.358,1.19 2.422,1.19 1.974,0 3.234,-1.498 3.234,-3.836 0,-2.338 -1.274,-3.794 -3.29,-3.794 -1.064,0 -1.876,0.35 -2.436,1.246 z m 2.254,0.77 c 1.4,0 2.24,1.064 2.24,2.814 0,1.736 -0.84,2.814 -2.198,2.814 -1.4,0 -2.268,-1.064 -2.268,-2.814 0,-1.75 0.84,-2.814 2.226,-2.814 z m 11.102,4.172 h -1.162 c -0.336,1.092 -0.91,1.54 -1.946,1.54 -1.4,0 -2.254,-0.924 -2.254,-2.464 l 0.014,-0.084 h 5.432 v -0.168 c 0,-2.086 -0.896,-3.976 -3.276,-3.976 -2.002,0 -3.36,1.582 -3.36,3.92 0,2.352 1.274,3.752 3.402,3.752 1.708,0 2.786,-0.854 3.15,-2.52 z m -1.148,-1.974 h -4.2 c 0.154,-1.358 0.966,-2.198 2.128,-2.198 1.19,0 1.96,0.826 2.072,2.198 z"
       id="text48"
       class="nonterminal"
       style="font-size:14px;font-family:HelveticaNeueCyr, Sans-serif;fill:#ffe0e0"
       aria-label="type" />
  </a>
  <path
     id="rect52"
     style="fill:#320000;stroke:#320000"
     d="m 419,47 h 6 c 5.54,0 10,4.46 10,10 v 12 c 0,5.54 -4.46,10 -10,10 h -6 c -5.54,0 -10,-4.46 -10,-10 V 57 c 0,-5.54 4.46,-10 10,-10 z" />
  <path
     id="rect54"
     class="terminal"
     style="fill:#ff0000;stroke:#320000"
     d="m 417,45 h 6 c 5.54,0 10,4.46 10,10 v 12 c 0,5.54 -4.46,10 -10,10 h -6 c -5.54,0 -10,-4.46 -10,-10 V 55 c 0,-5.54 4.46,-10 10,-10 z" />
  <path
     d="m 416.944,54.878 c 1.036,1.862 1.568,4.074 1.568,6.202 0,2.464 -0.462,4.186 -1.554,6.412 h 1.666 c 1.204,-1.596 1.834,-4.424 1.834,-6.384 0,-2.198 -0.658,-4.382 -1.862,-6.23 z"
     id="text56"
     class="terminal"
     style="font-weight:bold;font-size:14px;font-family:HelveticaNeueCyr, Sans-serif;fill:#ffe0e0"
     aria-label=")" />
  <a
     xlink:href="#expression"
     xlink:title="expression"
     id="a64">
    <path
       id="rect58"
       style="fill:#320000;stroke:#320000"
       d="m 51,91 h 90 v 32 H 51 Z" />
    <path
       id="rect60"
       class="nonterminal"
       style="fill:#ff3f3f;stroke:#320000"
       d="m 49,89 h 90 v 32 H 49 Z" />
    <path
       d="m 66.07,106.718 h -1.162 c -0.336,1.092 -0.91,1.54 -1.946,1.54 -1.4,0 -2.254,-0.924 -2.254,-2.464 l 0.014,-0.084 h 5.432 v -0.168 c 0,-2.086 -0.896,-3.976 -3.276,-3.976 -2.002,0 -3.36,1.582 -3.36,3.92 0,2.352 1.274,3.752 3.402,3.752 1.708,0 2.786,-0.854 3.15,-2.52 z m -1.148,-1.974 h -4.2 c 0.154,-1.358 0.966,-2.198 2.128,-2.198 1.19,0 1.96,0.826 2.072,2.198 z m 8.428009,-2.968 h -1.442 l -1.792,2.478 -1.75,-2.478 h -1.512 l 2.506,3.416 -2.716,3.808 h 1.442 l 2.002,-2.968 2.03,2.968 h 1.526 l -2.814,-3.892 z m 2.435995,0 h -1.12 v 10.01 h 1.19 v -3.794 c 0.616,0.84 1.358,1.19 2.422,1.19 1.974,0 3.234,-1.498 3.234,-3.836 0,-2.338 -1.274,-3.794 -3.29,-3.794 -1.064,0 -1.876,0.35 -2.436,1.246 z m 2.254,0.77 c 1.4,0 2.24,1.064 2.24,2.814 0,1.736 -0.84,2.814 -2.198,2.814 -1.4,0 -2.268,-1.064 -2.268,-2.814 0,-1.75 0.84,-2.814 2.226,-2.814 z m 8.694006,-0.938 c -1.288,0 -2.17,0.504 -2.674,1.722 v -1.554 h -1.134 V 109 h 1.19 v -3.052 c 0,-1.624 0.35,-3.122 2.31,-3.122 0.126,0 0.182,0 0.308,0.014 z m 6.818008,5.11 h -1.162 c -0.336,1.092 -0.91,1.54 -1.946,1.54 -1.4,0 -2.254,-0.924 -2.254,-2.464 l 0.014,-0.084 h 5.432 v -0.168 c 0,-2.086 -0.896,-3.976 -3.276,-3.976 -2.002,0 -3.36,1.582 -3.36,3.92 0,2.352 1.274,3.752 3.402,3.752 1.708,0 2.786,-0.854 3.15,-2.52 z m -1.148,-1.974 h -4.2 c 0.154,-1.358 0.966,-2.198 2.128,-2.198 1.19,0 1.96,0.826 2.072,2.198 z m 7.854012,-0.868 c 0,-1.526 -1.260003,-2.31 -2.884003,-2.31 -1.68,0 -2.758,0.826 -2.758,2.128 0,1.666 1.666,1.82 2.912,2.128 1.008,0.252 1.82,0.42 1.82,1.218 0,0.728 -0.7,1.204 -1.764,1.204 -1.148,0 -1.89,-0.434 -1.96,-1.526 h -1.176 c 0.07,1.624 1.148,2.506 3.108,2.506 1.806,0 2.996003,-0.924 2.996003,-2.324 0,-1.568 -1.582003,-1.918 -2.800003,-2.198 -0.98,-0.224 -1.918,-0.35 -1.918,-1.162 0,-0.602 0.56,-0.98 1.47,-0.98 1.022,0 1.68,0.364 1.764,1.316 z m 7,0 c 0,-1.526 -1.26,-2.31 -2.884,-2.31 -1.68,0 -2.758,0.826 -2.758,2.128 0,1.666 1.666,1.82 2.912,2.128 1.008,0.252 1.82,0.42 1.82,1.218 0,0.728 -0.7,1.204 -1.764,1.204 -1.148,0 -1.89,-0.434 -1.96,-1.526 h -1.176 c 0.07,1.624 1.148,2.506 3.108,2.506 1.806,0 2.996,-0.924 2.996,-2.324 0,-1.568 -1.582,-1.918 -2.8,-2.198 -0.98,-0.224 -1.918,-0.35 -1.918,-1.162 0,-0.602 0.56,-0.98 1.47,-0.98 1.022,0 1.68,0.364 1.764,1.316 z m 2.898,-4.844 h -1.204 v 1.456 h 1.204 z m 0,2.744 h -1.204 V 109 h 1.204 z m 5.012,-0.21 c -2.184,0 -3.542,1.47 -3.542,3.85 0,2.38 1.316,3.808 3.528,3.808 2.198,0 3.472,-1.428 3.472,-3.878 0,-2.394 -1.274,-3.78 -3.458,-3.78 z m -0.028,0.994 c 1.4,0 2.268,1.092 2.268,2.814 0,1.778 -0.84,2.842 -2.24,2.842 -1.456,0 -2.31,-1.05 -2.31,-2.828 0,-1.722 0.882,-2.828 2.282,-2.828 z m 6.01999,-0.784 h -1.12 V 109 h 1.19 v -3.78 c 0,-1.428 0.504,-2.604 2.058,-2.604 1.498,0 1.554,0.98 1.554,2.128 V 109 h 1.19 v -4.802 c 0,-1.652 -0.644,-2.618 -2.408,-2.618 -1.106,0 -1.862,0.434 -2.464,1.316 z"
       id="text62"
       class="nonterminal"
       style="font-size:14px;font-family:HelveticaNeueCyr, Sans-serif;fill:#ffe0e0"
       aria-label="expression" />
  </a>
  <path
     id="rect66"
     style="fill:#320000;stroke:#320000"
     d="m 191,91 h 54 c 5.54,0 10,4.46 10,10 v 12 c 0,5.54 -4.46,10 -10,10 h -54 c -5.54,0 -10,-4.46 -10,-10 v -12 c 0,-5.54 4.46,-10 10,-10 z" />
  <path
     id="rect68"
     class="terminal"
     style="fill:#ff0000;stroke:#320000"
     d="m 189,89 h 54 c 5.54,0 10,4.46 10,10 v 12 c 0,5.54 -4.46,10 -10,10 h -54 c -5.54,0 -10,-4.46 -10,-10 V 99 c 0,-5.54 4.46,-10 10,-10 z" />
  <path
     d="m 192.164,99.032 h -2.198 V 109 h 2.198 z m 9.31,2.968 c -0.042,-2.226 -1.736,-3.178 -3.836,-3.178 -2.324,0 -3.836,1.176 -3.836,2.982 0,2.03 1.554,2.436 3.178,2.898 2.058,0.588 2.73,0.728 2.73,1.512 0,0.826 -0.7,1.33 -1.848,1.33 -1.33,0 -2.212,-0.532 -2.254,-1.876 h -2.17 c 0.028,2.254 1.624,3.556 4.326,3.556 2.03,0 4.102,-0.868 4.102,-3.22 0,-1.666 -1.134,-2.352 -2.912,-2.856 -1.988,-0.56 -3.052,-0.63 -3.052,-1.498 0,-0.714 0.602,-1.134 1.61,-1.134 1.162,0 1.806,0.518 1.89,1.484 z m 5.6,7 h 2.114 v -6.692 l 4.13,6.692 h 2.184 v -9.968 h -2.1 v 6.678 L 209.3,99.032 h -2.226 z m 18.85799,-9.968 h -2.184 v 5.964 c 0,1.47 -0.35,2.394 -2.03,2.394 -1.708,0 -2.142,-0.868 -2.142,-2.394 v -5.964 h -2.184 v 5.964 c 0,2.842 1.33,4.2 4.298,4.2 2.912,0 4.242,-1.33 4.242,-4.172 z m 8.94599,8.092 h -4.872 v -8.092 h -2.184 V 109 h 7.056 z m 8.30201,0 h -4.872 v -8.092 h -2.184 V 109 h 7.056 z"
     id="text70"
     class="terminal"
     style="font-weight:bold;font-size:14px;font-family:HelveticaNeueCyr, Sans-serif;fill:#ffe0e0"
     aria-label="IS NULL" />
  <path
     id="rect72"
     style="fill:#320000;stroke:#320000"
     d="m 191,135 h 88 c 5.54,0 10,4.46 10,10 v 12 c 0,5.54 -4.46,10 -10,10 h -88 c -5.54,0 -10,-4.46 -10,-10 v -12 c 0,-5.54 4.46,-10 10,-10 z" />
  <path
     id="rect74"
     class="terminal"
     style="fill:#ff0000;stroke:#320000"
     d="m 189,133 h 88 c 5.54,0 10,4.46 10,10 v 12 c 0,5.54 -4.46,10 -10,10 h -88 c -5.54,0 -10,-4.46 -10,-10 v -12 c 0,-5.54 4.46,-10 10,-10 z" />
  <path
     d="m 192.164,143.032 h -2.198 V 153 h 2.198 z m 9.31,2.968 c -0.042,-2.226 -1.736,-3.178 -3.836,-3.178 -2.324,0 -3.836,1.176 -3.836,2.982 0,2.03 1.554,2.436 3.178,2.898 2.058,0.588 2.73,0.728 2.73,1.512 0,0.826 -0.7,1.33 -1.848,1.33 -1.33,0 -2.212,-0.532 -2.254,-1.876 h -2.17 c 0.028,2.254 1.624,3.556 4.326,3.556 2.03,0 4.102,-0.868 4.102,-3.22 0,-1.666 -1.134,-2.352 -2.912,-2.856 -1.988,-0.56 -3.052,-0.63 -3.052,-1.498 0,-0.714 0.602,-1.134 1.61,-1.134 1.162,0 1.806,0.518 1.89,1.484 z m 5.6,7 h 2.114 v -6.692 l 4.13,6.692 h 2.184 v -9.968 h -2.1 v 6.678 l -4.102,-6.678 h -2.226 z m 14.88199,-10.206 c -2.982,0 -4.942,2.072 -4.942,5.236 0,3.122 1.974,5.208 4.928,5.208 2.926,0 4.9,-2.1 4.9,-5.208 0,-3.122 -1.974,-5.236 -4.886,-5.236 z m -0.028,1.792 c 1.666,0 2.702,1.302 2.702,3.402 0,2.128 -1.022,3.444 -2.674,3.444 -1.694,-0.014 -2.73,-1.302 -2.73,-3.444 0,-2.072 1.05,-3.402 2.702,-3.402 z m 13.818,-1.554 h -8.19 v 1.862 h 2.996 V 153 h 2.198 v -8.106 h 2.996 z m 5.04,9.968 h 2.114 v -6.692 l 4.13,6.692 h 2.184 v -9.968 h -2.1 v 6.678 l -4.102,-6.678 h -2.226 z m 18.85799,-9.968 h -2.184 v 5.964 c 0,1.47 -0.35,2.394 -2.03,2.394 -1.708,0 -2.142,-0.868 -2.142,-2.394 v -5.964 h -2.184 v 5.964 c 0,2.842 1.33,4.2 4.298,4.2 2.912,0 4.242,-1.33 4.242,-4.172 z m 8.94598,8.092 h -4.872 v -8.092 h -2.184 V 153 h 7.056 z m 8.30201,0 h -4.872 v -8.092 h -2.184 V 153 h 7.056 z"
     id="text76"
     class="terminal"
     style="font-weight:bold;font-size:14px;font-family:HelveticaNeueCyr, Sans-serif;fill:#ffe0e0"
     aria-label="IS NOT NULL" />
  <path
     id="rect78"
     style="fill:#320000;stroke:#320000"
     d="m 211,179 h 20 c 5.54,0 10,4.46 10,10 v 12 c 0,5.54 -4.46,10 -10,10 h -20 c -5.54,0 -10,-4.46 -10,-10 v -12 c 0,-5.54 4.46,-10 10,-10 z" />
  <path
     id="rect80"
     class="terminal"
     style="fill:#ff0000;stroke:#320000"
     d="m 209,177 h 20 c 5.54,0 10,4.46 10,10 v 12 c 0,5.54 -4.46,10 -10,10 h -20 c -5.54,0 -10,-4.46 -10,-10 v -12 c 0,-5.54 4.46,-10 10,-10 z" />
  <path
     d="m 214.474,186.794 c -2.982,0 -4.942,2.072 -4.942,5.236 0,3.122 1.974,5.208 4.928,5.208 2.926,0 4.9,-2.1 4.9,-5.208 0,-3.122 -1.974,-5.236 -4.886,-5.236 z m -0.028,1.792 c 1.666,0 2.702,1.302 2.702,3.402 0,2.128 -1.022,3.444 -2.674,3.444 -1.694,-0.014 -2.73,-1.302 -2.73,-3.444 0,-2.072 1.05,-3.402 2.702,-3.402 z m 6.496,-1.554 V 197 h 2.17 v -3.906 h 1.946 c 1.428,0 1.848,0.49 1.988,1.862 0.056,0.546 0.056,1.54 0.308,2.044 h 2.268 c -0.392,-0.364 -0.42,-1.736 -0.476,-2.366 -0.084,-0.98 -0.364,-2.1 -1.47,-2.324 0.994,-0.378 1.582,-1.288 1.582,-2.45 0,-2.002 -1.526,-2.828 -3.36,-2.828 z m 2.17,1.722 h 2.17 c 0.924,0 1.834,0.196 1.834,1.344 0,1.232 -0.91,1.414 -1.932,1.414 h -2.072 z"
     id="text82"
     class="terminal"
     style="font-weight:bold;font-size:14px;font-family:HelveticaNeueCyr, Sans-serif;fill:#ffe0e0"
     aria-label="OR" />
  <path
     id="rect84"
     style="fill:#320000;stroke:#320000"
     d="m 231,255 h 66 c 5.54,0 10,4.46 10,10 v 12 c 0,5.54 -4.46,10 -10,10 h -66 c -5.54,0 -10,-4.46 -10,-10 v -12 c 0,-5.54 4.46,-10 10,-10 z" />
  <path
     id="rect86"
     class="terminal"
     style="fill:#ff0000;stroke:#320000"
     d="m 229,253 h 66 c 5.54,0 10,4.46 10,10 v 12 c 0,5.54 -4.46,10 -10,10 h -66 c -5.54,0 -10,-4.46 -10,-10 v -12 c 0,-5.54 4.46,-10 10,-10 z" />
  <path
     d="M 229.952,263.032 V 273 h 4.984 c 1.876,0 3.374,-1.022 3.374,-2.968 0,-1.386 -0.784,-2.142 -1.82,-2.436 0.812,-0.364 1.358,-1.092 1.358,-2.058 0,-1.764 -1.428,-2.506 -3.178,-2.506 z m 2.128,1.694 h 1.988 c 0.84,0 1.652,0.168 1.652,1.176 0,1.008 -0.854,1.162 -1.652,1.162 h -1.988 z m 0,3.822 h 2.086 c 0.98,0 1.96,0.154 1.96,1.358 0,1.176 -0.91,1.358 -1.848,1.358 h -2.198 z m 15.21801,-5.516 h -7.476 V 273 h 7.574 v -1.834 h -5.404 v -2.45 h 4.872 v -1.722 h -4.872 v -2.17 h 5.306 z m 9.00201,0 h -8.19 v 1.862 h 2.996 V 273 h 2.198 v -8.106 h 2.996 z m 0.224,0 2.646,9.968 h 2.226 l 1.68,-6.804 1.708,6.804 h 2.184 l 2.688,-9.968 h -2.156 l -1.652,6.86 -1.722,-6.86 h -2.058 l -1.75,6.776 -1.596,-6.776 z m 21.616,0 h -7.476 V 273 h 7.574 v -1.834 h -5.404 v -2.45 h 4.872 v -1.722 h -4.872 v -2.17 h 5.306 z m 9.07201,0 h -7.476 V 273 h 7.574 v -1.834 h -5.404 v -2.45 h 4.872 v -1.722 h -4.872 v -2.17 h 5.306 z m 1.59601,9.968 h 2.114 v -6.692 l 4.13,6.692 h 2.184 v -9.968 h -2.1 v 6.678 l -4.102,-6.678 h -2.226 z"
     id="text88"
     class="terminal"
     style="font-weight:bold;font-size:14px;font-family:HelveticaNeueCyr, Sans-serif;fill:#ffe0e0"
     aria-label="BETWEEN" />
  <a
     xlink:href="#expression"
     xlink:title="expression"
     id="a96">
    <path
       id="rect90"
       style="fill:#320000;stroke:#320000"
       d="m 327,255 h 90 v 32 h -90 z" />
    <path
       id="rect92"
       class="nonterminal"
       style="fill:#ff3f3f;stroke:#320000"
       d="m 325,253 h 90 v 32 h -90 z" />
    <path
       d="m 342.07,270.718 h -1.162 c -0.336,1.092 -0.91,1.54 -1.946,1.54 -1.4,0 -2.254,-0.924 -2.254,-2.464 l 0.014,-0.084 h 5.432 v -0.168 c 0,-2.086 -0.896,-3.976 -3.276,-3.976 -2.002,0 -3.36,1.582 -3.36,3.92 0,2.352 1.274,3.752 3.402,3.752 1.708,0 2.786,-0.854 3.15,-2.52 z m -1.148,-1.974 h -4.2 c 0.154,-1.358 0.966,-2.198 2.128,-2.198 1.19,0 1.96,0.826 2.072,2.198 z m 8.42801,-2.968 h -1.442 l -1.792,2.478 -1.75,-2.478 h -1.512 l 2.506,3.416 -2.716,3.808 h 1.442 l 2.002,-2.968 2.03,2.968 h 1.526 l -2.814,-3.892 z m 2.43599,0 h -1.12 v 10.01 h 1.19 v -3.794 c 0.616,0.84 1.358,1.19 2.422,1.19 1.974,0 3.234,-1.498 3.234,-3.836 0,-2.338 -1.274,-3.794 -3.29,-3.794 -1.064,0 -1.876,0.35 -2.436,1.246 z m 2.254,0.77 c 1.4,0 2.24,1.064 2.24,2.814 0,1.736 -0.84,2.814 -2.198,2.814 -1.4,0 -2.268,-1.064 -2.268,-2.814 0,-1.75 0.84,-2.814 2.226,-2.814 z m 8.69401,-0.938 c -1.288,0 -2.17,0.504 -2.674,1.722 v -1.554 h -1.134 V 273 h 1.19 v -3.052 c 0,-1.624 0.35,-3.122 2.31,-3.122 0.126,0 0.182,0 0.308,0.014 z m 6.81801,5.11 h -1.162 c -0.336,1.092 -0.91,1.54 -1.946,1.54 -1.4,0 -2.254,-0.924 -2.254,-2.464 l 0.014,-0.084 h 5.432 v -0.168 c 0,-2.086 -0.896,-3.976 -3.276,-3.976 -2.002,0 -3.36,1.582 -3.36,3.92 0,2.352 1.274,3.752 3.402,3.752 1.708,0 2.786,-0.854 3.15,-2.52 z m -1.148,-1.974 h -4.2 c 0.154,-1.358 0.966,-2.198 2.128,-2.198 1.19,0 1.96,0.826 2.072,2.198 z m 7.85401,-0.868 c 0,-1.526 -1.26,-2.31 -2.884,-2.31 -1.68,0 -2.758,0.826 -2.758,2.128 0,1.666 1.666,1.82 2.912,2.128 1.008,0.252 1.82,0.42 1.82,1.218 0,0.728 -0.7,1.204 -1.764,1.204 -1.148,0 -1.89,-0.434 -1.96,-1.526 h -1.176 c 0.07,1.624 1.148,2.506 3.108,2.506 1.806,0 2.996,-0.924 2.996,-2.324 0,-1.568 -1.582,-1.918 -2.8,-2.198 -0.98,-0.224 -1.918,-0.35 -1.918,-1.162 0,-0.602 0.56,-0.98 1.47,-0.98 1.022,0 1.68,0.364 1.764,1.316 z m 7,0 c 0,-1.526 -1.26,-2.31 -2.884,-2.31 -1.68,0 -2.758,0.826 -2.758,2.128 0,1.666 1.666,1.82 2.912,2.128 1.008,0.252 1.82,0.42 1.82,1.218 0,0.728 -0.7,1.204 -1.764,1.204 -1.148,0 -1.89,-0.434 -1.96,-1.526 h -1.176 c 0.07,1.624 1.148,2.506 3.108,2.506 1.806,0 2.996,-0.924 2.996,-2.324 0,-1.568 -1.582,-1.918 -2.8,-2.198 -0.98,-0.224 -1.918,-0.35 -1.918,-1.162 0,-0.602 0.56,-0.98 1.47,-0.98 1.022,0 1.68,0.364 1.764,1.316 z m 2.898,-4.844 h -1.204 v 1.456 h 1.204 z m 0,2.744 h -1.204 V 273 h 1.204 z m 5.012,-0.21 c -2.184,0 -3.542,1.47 -3.542,3.85 0,2.38 1.316,3.808 3.528,3.808 2.198,0 3.472,-1.428 3.472,-3.878 0,-2.394 -1.274,-3.78 -3.458,-3.78 z m -0.028,0.994 c 1.4,0 2.268,1.092 2.268,2.814 0,1.778 -0.84,2.842 -2.24,2.842 -1.456,0 -2.31,-1.05 -2.31,-2.828 0,-1.722 0.882,-2.828 2.282,-2.828 z m 6.01999,-0.784 h -1.12 V 273 h 1.19 v -3.78 c 0,-1.428 0.504,-2.604 2.058,-2.604 1.498,0 1.554,0.98 1.554,2.128 V 273 h 1.19 v -4.802 c 0,-1.652 -0.644,-2.618 -2.408,-2.618 -1.106,0 -1.862,0.434 -2.464,1.316 z"
       id="text94"
       class="nonterminal"
       style="font-size:14px;font-family:HelveticaNeueCyr, Sans-serif;fill:#ffe0e0"
       aria-label="expression" />
  </a>
  <path
     id="rect98"
     style="fill:#320000;stroke:#320000"
     d="m 467,223 h 28 c 5.54,0 10,4.46 10,10 v 12 c 0,5.54 -4.46,10 -10,10 h -28 c -5.54,0 -10,-4.46 -10,-10 v -12 c 0,-5.54 4.46,-10 10,-10 z" />
  <path
     id="rect100"
     class="terminal"
     style="fill:#ff0000;stroke:#320000"
     d="m 465,221 h 28 c 5.54,0 10,4.46 10,10 v 12 c 0,5.54 -4.46,10 -10,10 h -28 c -5.54,0 -10,-4.46 -10,-10 v -12 c 0,-5.54 4.46,-10 10,-10 z" />
  <path
     d="m 470.922,231.018 h -2.254 L 464.874,241 h 2.24 l 0.812,-2.226 h 3.71 L 472.42,241 h 2.296 z m 0.182,6.16 h -2.646 l 1.33,-3.71 z m 4.45199,3.822 h 2.114 v -6.692 l 4.13,6.692 h 2.184 v -9.968 h -2.1 v 6.678 l -4.102,-6.678 h -2.226 z m 10.38799,0 h 4.032 c 3.094,0 4.83,-1.778 4.83,-4.984 0,-3.22 -1.736,-4.984 -4.83,-4.984 h -4.032 z m 2.17,-1.82 v -6.328 h 1.596 c 1.974,0 2.898,1.162 2.898,3.164 0,2.002 -0.896,3.164 -2.898,3.164 z"
     id="text102"
     class="terminal"
     style="font-weight:bold;font-size:14px;font-family:HelveticaNeueCyr, Sans-serif;fill:#ffe0e0"
     aria-label="AND" />
  <path
     id="rect104"
     style="fill:#320000;stroke:#320000"
     d="m 211,299 h 8 c 5.54,0 10,4.46 10,10 v 12 c 0,5.54 -4.46,10 -10,10 h -8 c -5.54,0 -10,-4.46 -10,-10 v -12 c 0,-5.54 4.46,-10 10,-10 z" />
  <path
     id="rect106"
     class="terminal"
     style="fill:#ff0000;stroke:#320000"
     d="m 209,297 h 8 c 5.54,0 10,4.46 10,10 v 12 c 0,5.54 -4.46,10 -10,10 h -8 c -5.54,0 -10,-4.46 -10,-10 v -12 c 0,-5.54 4.46,-10 10,-10 z" />
  <path
     d="m 214.404,309.104 -0.406,-1.078 -1.624,0.616 0.056,-1.75 h -1.176 l 0.042,1.75 -1.624,-0.616 -0.364,1.078 1.624,0.546 -1.036,1.372 0.938,0.686 0.994,-1.442 1.022,1.442 0.924,-0.686 -1.022,-1.372 z"
     id="text108"
     class="terminal"
     style="font-weight:bold;font-size:14px;font-family:HelveticaNeueCyr, Sans-serif;fill:#ffe0e0"
     aria-label="*" />
  <path
     id="rect110"
     style="fill:#320000;stroke:#320000"
     d="m 211,343 h 8 c 5.54,0 10,4.46 10,10 v 12 c 0,5.54 -4.46,10 -10,10 h -8 c -5.54,0 -10,-4.46 -10,-10 v -12 c 0,-5.54 4.46,-10 10,-10 z" />
  <path
     id="rect112"
     class="terminal"
     style="fill:#ff0000;stroke:#320000"
     d="m 209,341 h 8 c 5.54,0 10,4.46 10,10 v 12 c 0,5.54 -4.46,10 -10,10 h -8 c -5.54,0 -10,-4.46 -10,-10 v -12 c 0,-5.54 4.46,-10 10,-10 z" />
  <path
     d="m 212.64,350.794 -3.822,10.444 h 1.722 l 3.808,-10.444 z"
     id="text114"
     class="terminal"
     style="font-weight:bold;font-size:14px;font-family:HelveticaNeueCyr, Sans-serif;fill:#ffe0e0"
     aria-label="/" />
  <path
     id="rect116"
     style="fill:#320000;stroke:#320000"
     d="m 211,387 h 10 c 5.54,0 10,4.46 10,10 v 12 c 0,5.54 -4.46,10 -10,10 h -10 c -5.54,0 -10,-4.46 -10,-10 v -12 c 0,-5.54 4.46,-10 10,-10 z" />
  <path
     id="rect118"
     class="terminal"
     style="fill:#ff0000;stroke:#320000"
     d="m 209,385 h 10 c 5.54,0 10,4.46 10,10 v 12 c 0,5.54 -4.46,10 -10,10 h -10 c -5.54,0 -10,-4.46 -10,-10 v -12 c 0,-5.54 4.46,-10 10,-10 z" />
  <path
     d="m 212.444,405 h 1.512 v -2.926 h 2.884 v -1.414 h -2.884 v -2.926 h -1.512 v 2.926 h -2.884 v 1.414 h 2.884 z"
     id="text120"
     class="terminal"
     style="font-weight:bold;font-size:14px;font-family:HelveticaNeueCyr, Sans-serif;fill:#ffe0e0"
     aria-label="+" />
  <path
     id="rect122"
     style="fill:#320000;stroke:#320000"
     d="m 211,431 h 6 c 5.54,0 10,4.46 10,10 v 12 c 0,5.54 -4.46,10 -10,10 h -6 c -5.54,0 -10,-4.46 -10,-10 v -12 c 0,-5.54 4.46,-10 10,-10 z" />
  <path
     id="rect124"
     class="terminal"
     style="fill:#ff0000;stroke:#320000"
     d="m 209,429 h 6 c 5.54,0 10,4.46 10,10 v 12 c 0,5.54 -4.46,10 -10,10 h -6 c -5.54,0 -10,-4.46 -10,-10 v -12 c 0,-5.54 4.46,-10 10,-10 z" />
  <path
     d="m 213.956,444.296 h -4.214 v 1.778 h 4.214 z"
     id="text126"
     class="terminal"
     style="font-weight:bold;font-size:14px;font-family:HelveticaNeueCyr, Sans-serif;fill:#ffe0e0"
     aria-label="-" />
  <path
     id="rect128"
     style="fill:#320000;stroke:#320000"
     d="m 211,475 h 10 c 5.54,0 10,4.46 10,10 v 12 c 0,5.54 -4.46,10 -10,10 h -10 c -5.54,0 -10,-4.46 -10,-10 v -12 c 0,-5.54 4.46,-10 10,-10 z" />
  <path
     id="rect130"
     class="terminal"
     style="fill:#ff0000;stroke:#320000"
     d="m 209,473 h 10 c 5.54,0 10,4.46 10,10 v 12 c 0,5.54 -4.46,10 -10,10 h -10 c -5.54,0 -10,-4.46 -10,-10 v -12 c 0,-5.54 4.46,-10 10,-10 z" />
  <path
     d="m 209.56,488.688 h 7.28 v -1.568 h -7.28 z m 0,2.926 h 7.28 v -1.568 h -7.28 z"
     id="text132"
     class="terminal"
     style="font-weight:bold;font-size:14px;font-family:HelveticaNeueCyr, Sans-serif;fill:#ffe0e0"
     aria-label="=" />
  <path
     id="rect134"
     style="fill:#320000;stroke:#320000"
     d="m 211,519 h 10 c 5.54,0 10,4.46 10,10 v 12 c 0,5.54 -4.46,10 -10,10 h -10 c -5.54,0 -10,-4.46 -10,-10 v -12 c 0,-5.54 4.46,-10 10,-10 z" />
  <path
     id="rect136"
     class="terminal"
     style="fill:#ff0000;stroke:#320000"
     d="m 209,517 h 10 c 5.54,0 10,4.46 10,10 v 12 c 0,5.54 -4.46,10 -10,10 h -10 c -5.54,0 -10,-4.46 -10,-10 v -12 c 0,-5.54 4.46,-10 10,-10 z" />
  <path
     d="m 216.84,534.102 v -1.47 l -7.28,-2.8 v 1.708 l 5.068,1.82 -5.068,1.82 v 1.736 z"
     id="text138"
     class="terminal"
     style="font-weight:bold;font-size:14px;font-family:HelveticaNeueCyr, Sans-serif;fill:#ffe0e0"
     aria-label="&gt;" />
  <path
     id="rect140"
     style="fill:#320000;stroke:#320000"
     d="m 211,563 h 10 c 5.54,0 10,4.46 10,10 v 12 c 0,5.54 -4.46,10 -10,10 h -10 c -5.54,0 -10,-4.46 -10,-10 v -12 c 0,-5.54 4.46,-10 10,-10 z" />
  <path
     id="rect142"
     class="terminal"
     style="fill:#ff0000;stroke:#320000"
     d="m 209,561 h 10 c 5.54,0 10,4.46 10,10 v 12 c 0,5.54 -4.46,10 -10,10 h -10 c -5.54,0 -10,-4.46 -10,-10 v -12 c 0,-5.54 4.46,-10 10,-10 z" />
  <path
     d="m 209.56,578.102 7.28,2.814 v -1.736 l -5.068,-1.82 5.068,-1.82 v -1.708 l -7.28,2.8 z"
     id="text144"
     class="terminal"
     style="font-weight:bold;font-size:14px;font-family:HelveticaNeueCyr, Sans-serif;fill:#ffe0e0"
     aria-label="&lt;" />
  <path
     id="rect146"
     style="fill:#320000;stroke:#320000"
     d="m 211,607 h 20 c 5.54,0 10,4.46 10,10 v 12 c 0,5.54 -4.46,10 -10,10 h -20 c -5.54,0 -10,-4.46 -10,-10 v -12 c 0,-5.54 4.46,-10 10,-10 z" />
  <path
     id="rect148"
     class="terminal"
     style="fill:#ff0000;stroke:#320000"
     d="m 209,605 h 20 c 5.54,0 10,4.46 10,10 v 12 c 0,5.54 -4.46,10 -10,10 h -20 c -5.54,0 -10,-4.46 -10,-10 v -12 c 0,-5.54 4.46,-10 10,-10 z" />
  <path
     d="m 216.84,622.102 v -1.47 l -7.28,-2.8 v 1.708 l 5.068,1.82 -5.068,1.82 v 1.736 z m 1.12001,-1.414 h 7.28 v -1.568 h -7.28 z m 0,2.926 h 7.28 v -1.568 h -7.28 z"
     id="text150"
     class="terminal"
     style="font-weight:bold;font-size:14px;font-family:HelveticaNeueCyr, Sans-serif;fill:#ffe0e0"
     aria-label="&gt;=" />
  <path
     id="rect152"
     style="fill:#320000;stroke:#320000"
     d="m 211,651 h 20 c 5.54,0 10,4.46 10,10 v 12 c 0,5.54 -4.46,10 -10,10 h -20 c -5.54,0 -10,-4.46 -10,-10 v -12 c 0,-5.54 4.46,-10 10,-10 z" />
  <path
     id="rect154"
     class="terminal"
     style="fill:#ff0000;stroke:#320000"
     d="m 209,649 h 20 c 5.54,0 10,4.46 10,10 v 12 c 0,5.54 -4.46,10 -10,10 h -20 c -5.54,0 -10,-4.46 -10,-10 v -12 c 0,-5.54 4.46,-10 10,-10 z" />
  <path
     d="m 209.56,666.102 7.28,2.814 v -1.736 l -5.068,-1.82 5.068,-1.82 v -1.708 l -7.28,2.8 z m 8.40001,-1.414 h 7.28 v -1.568 h -7.28 z m 0,2.926 h 7.28 v -1.568 h -7.28 z"
     id="text156"
     class="terminal"
     style="font-weight:bold;font-size:14px;font-family:HelveticaNeueCyr, Sans-serif;fill:#ffe0e0"
     aria-label="&lt;=" />
  <path
     id="rect158"
     style="fill:#320000;stroke:#320000"
     d="m 211,695 h 20 c 5.54,0 10,4.46 10,10 v 12 c 0,5.54 -4.46,10 -10,10 h -20 c -5.54,0 -10,-4.46 -10,-10 v -12 c 0,-5.54 4.46,-10 10,-10 z" />
  <path
     id="rect160"
     class="terminal"
     style="fill:#ff0000;stroke:#320000"
     d="m 209,693 h 20 c 5.54,0 10,4.46 10,10 v 12 c 0,5.54 -4.46,10 -10,10 h -20 c -5.54,0 -10,-4.46 -10,-10 v -12 c 0,-5.54 4.46,-10 10,-10 z" />
  <path
     d="m 209.56,710.102 7.28,2.814 v -1.736 l -5.068,-1.82 5.068,-1.82 v -1.708 l -7.28,2.8 z m 15.68001,0 v -1.47 l -7.28,-2.8 v 1.708 l 5.068,1.82 -5.068,1.82 v 1.736 z"
     id="text162"
     class="terminal"
     style="font-weight:bold;font-size:14px;font-family:HelveticaNeueCyr, Sans-serif;fill:#ffe0e0"
     aria-label="&lt;&gt;" />
  <path
     id="rect164"
     style="fill:#320000;stroke:#320000"
     d="m 211,739 h 14 c 5.54,0 10,4.46 10,10 v 12 c 0,5.54 -4.46,10 -10,10 h -14 c -5.54,0 -10,-4.46 -10,-10 v -12 c 0,-5.54 4.46,-10 10,-10 z" />
  <path
     id="rect166"
     class="terminal"
     style="fill:#ff0000;stroke:#320000"
     d="m 209,737 h 14 c 5.54,0 10,4.46 10,10 v 12 c 0,5.54 -4.46,10 -10,10 h -14 c -5.54,0 -10,-4.46 -10,-10 v -12 c 0,-5.54 4.46,-10 10,-10 z" />
  <path
     d="m 211.982,747.032 h -2.086 v 2.688 l 0.546,4.242 h 0.994 l 0.546,-4.27 z m 0.042,7.826 h -2.17 V 757 h 2.17 z m 1.428,-2.17 h 7.28 v -1.568 h -7.28 z m 0,2.926 h 7.28 v -1.568 h -7.28 z"
     id="text168"
     class="terminal"
     style="font-weight:bold;font-size:14px;font-family:HelveticaNeueCyr, Sans-serif;fill:#ffe0e0"
     aria-label="!=" />
  <a
     xlink:href="#expression"
     xlink:title="expression"
     id="a176">
    <path
       id="rect170"
       style="fill:#320000;stroke:#320000"
       d="m 545,179 h 90 v 32 h -90 z" />
    <path
       id="rect172"
       class="nonterminal"
       style="fill:#ff3f3f;stroke:#320000"
       d="m 543,177 h 90 v 32 h -90 z" />
    <path
       d="m 560.07,194.718 h -1.162 c -0.336,1.092 -0.91,1.54 -1.946,1.54 -1.4,0 -2.254,-0.924 -2.254,-2.464 l 0.014,-0.084 h 5.432 v -0.168 c 0,-2.086 -0.896,-3.976 -3.276,-3.976 -2.002,0 -3.36,1.582 -3.36,3.92 0,2.352 1.274,3.752 3.402,3.752 1.708,0 2.786,-0.854 3.15,-2.52 z m -1.148,-1.974 h -4.2 c 0.154,-1.358 0.966,-2.198 2.128,-2.198 1.19,0 1.96,0.826 2.072,2.198 z m 8.42801,-2.968 h -1.442 l -1.792,2.478 -1.75,-2.478 h -1.512 l 2.506,3.416 -2.716,3.808 h 1.442 l 2.002,-2.968 2.03,2.968 h 1.526 l -2.814,-3.892 z m 2.43599,0 h -1.12 v 10.01 h 1.19 v -3.794 c 0.616,0.84 1.358,1.19 2.422,1.19 1.974,0 3.234,-1.498 3.234,-3.836 0,-2.338 -1.274,-3.794 -3.29,-3.794 -1.064,0 -1.876,0.35 -2.436,1.246 z m 2.254,0.77 c 1.4,0 2.24,1.064 2.24,2.814 0,1.736 -0.84,2.814 -2.198,2.814 -1.4,0 -2.268,-1.064 -2.268,-2.814 0,-1.75 0.84,-2.814 2.226,-2.814 z m 8.69401,-0.938 c -1.288,0 -2.17,0.504 -2.674,1.722 v -1.554 h -1.134 V 197 h 1.19 v -3.052 c 0,-1.624 0.35,-3.122 2.31,-3.122 0.126,0 0.182,0 0.308,0.014 z m 6.81801,5.11 h -1.162 c -0.336,1.092 -0.91,1.54 -1.946,1.54 -1.4,0 -2.254,-0.924 -2.254,-2.464 l 0.014,-0.084 h 5.432 v -0.168 c 0,-2.086 -0.896,-3.976 -3.276,-3.976 -2.002,0 -3.36,1.582 -3.36,3.92 0,2.352 1.274,3.752 3.402,3.752 1.708,0 2.786,-0.854 3.15,-2.52 z m -1.148,-1.974 h -4.2 c 0.154,-1.358 0.966,-2.198 2.128,-2.198 1.19,0 1.96,0.826 2.072,2.198 z m 7.85401,-0.868 c 0,-1.526 -1.26,-2.31 -2.884,-2.31 -1.68,0 -2.758,0.826 -2.758,2.128 0,1.666 1.666,1.82 2.912,2.128 1.008,0.252 1.82,0.42 1.82,1.218 0,0.728 -0.7,1.204 -1.764,1.204 -1.148,0 -1.89,-0.434 -1.96,-1.526 h -1.176 c 0.07,1.624 1.148,2.506 3.108,2.506 1.806,0 2.996,-0.924 2.996,-2.324 0,-1.568 -1.582,-1.918 -2.8,-2.198 -0.98,-0.224 -1.918,-0.35 -1.918,-1.162 0,-0.602 0.56,-0.98 1.47,-0.98 1.022,0 1.68,0.364 1.764,1.316 z m 7,0 c 0,-1.526 -1.26,-2.31 -2.884,-2.31 -1.68,0 -2.758,0.826 -2.758,2.128 0,1.666 1.666,1.82 2.912,2.128 1.008,0.252 1.82,0.42 1.82,1.218 0,0.728 -0.7,1.204 -1.764,1.204 -1.148,0 -1.89,-0.434 -1.96,-1.526 h -1.176 c 0.07,1.624 1.148,2.506 3.108,2.506 1.806,0 2.996,-0.924 2.996,-2.324 0,-1.568 -1.582,-1.918 -2.8,-2.198 -0.98,-0.224 -1.918,-0.35 -1.918,-1.162 0,-0.602 0.56,-0.98 1.47,-0.98 1.022,0 1.68,0.364 1.764,1.316 z m 2.898,-4.844 h -1.204 v 1.456 h 1.204 z m 0,2.744 h -1.204 V 197 h 1.204 z m 5.012,-0.21 c -2.184,0 -3.542,1.47 -3.542,3.85 0,2.38 1.316,3.808 3.528,3.808 2.198,0 3.472,-1.428 3.472,-3.878 0,-2.394 -1.274,-3.78 -3.458,-3.78 z m -0.028,0.994 c 1.4,0 2.268,1.092 2.268,2.814 0,1.778 -0.84,2.842 -2.24,2.842 -1.456,0 -2.31,-1.05 -2.31,-2.828 0,-1.722 0.882,-2.828 2.282,-2.828 z m 6.01999,-0.784 h -1.12 V 197 h 1.19 v -3.78 c 0,-1.428 0.504,-2.604 2.058,-2.604 1.498,0 1.554,0.98 1.554,2.128 V 197 h 1.19 v -4.802 c 0,-1.652 -0.644,-2.618 -2.408,-2.618 -1.106,0 -1.862,0.434 -2.464,1.316 z"
       id="text174"
       class="nonterminal"
       style="font-size:14px;font-family:HelveticaNeueCyr, Sans-serif;fill:#ffe0e0"
       aria-label="expression" />
  </a>
  <a
     xlink:href="#reference"
     xlink:title="reference"
     id="a184">
    <path
       id="rect178"
       style="fill:#320000;stroke:#320000"
       d="m 51,783 h 80 v 32 H 51 Z" />
    <path
       id="rect180"
       class="nonterminal"
       style="fill:#ff3f3f;stroke:#320000"
       d="m 49,781 h 80 v 32 H 49 Z" />
    <path
       d="m 63.662,793.608 c -1.288,0 -2.17,0.504 -2.674,1.722 v -1.554 H 59.854 V 801 h 1.19 v -3.052 c 0,-1.624 0.35,-3.122 2.31,-3.122 0.126,0 0.182,0 0.308,0.014 z m 6.818007,5.11 h -1.162 c -0.336,1.092 -0.91,1.54 -1.946,1.54 -1.4,0 -2.254,-0.924 -2.254,-2.464 l 0.014,-0.084 h 5.432 v -0.168 c 0,-2.086 -0.896,-3.976 -3.276,-3.976 -2.002,0 -3.36,1.582 -3.36,3.92 0,2.352 1.274,3.752 3.402,3.752 1.708,0 2.786,-0.854 3.15,-2.52 z m -1.148,-1.974 h -4.2 c 0.154,-1.358 0.966,-2.198 2.128,-2.198 1.19,0 1.96,0.826 2.072,2.198 z m 5.75401,-5.74 c -0.35,-0.042 -0.476,-0.056 -0.77,-0.056 -1.274,0 -2.002,0.518 -2.002,1.862 v 0.966 h -1.218 v 0.98 h 1.218 V 801 h 1.204 v -6.244 h 1.386 v -0.98 h -1.386 v -0.826 c 0,-0.798 0.154,-0.966 0.91,-0.966 0.238,0 0.504,0.028 0.658,0.056 z m 7.055993,7.714 h -1.162 c -0.336,1.092 -0.91,1.54 -1.946,1.54 -1.4,0 -2.254,-0.924 -2.254,-2.464 l 0.014,-0.084 h 5.432 v -0.168 c 0,-2.086 -0.896,-3.976 -3.276,-3.976 -2.002,0 -3.36,1.582 -3.36,3.92 0,2.352 1.274,3.752 3.402,3.752 1.708,0 2.786,-0.854 3.15,-2.52 z m -1.148,-1.974 h -4.2 c 0.154,-1.358 0.966,-2.198 2.128,-2.198 1.19,0 1.96,0.826 2.072,2.198 z m 6.258009,-3.136 c -1.288,0 -2.17,0.504 -2.674,1.722 v -1.554 h -1.134 V 801 h 1.19 v -3.052 c 0,-1.624 0.35,-3.122 2.31,-3.122 0.126,0 0.182,0 0.308,0.014 z m 6.818008,5.11 h -1.162 c -0.336,1.092 -0.91,1.54 -1.946,1.54 -1.4,0 -2.254,-0.924 -2.254,-2.464 l 0.014,-0.084 h 5.432 v -0.168 c 0,-2.086 -0.896,-3.976 -3.276,-3.976 -2.002,0 -3.36,1.582 -3.36,3.92 0,2.352 1.274,3.752 3.402,3.752 1.708,0 2.786,-0.854 3.15,-2.52 z m -1.148,-1.974 h -4.2 c 0.154,-1.358 0.966,-2.198 2.128,-2.198 1.19,0 1.96,0.826 2.072,2.198 z m 3.612009,-2.968 h -1.12 V 801 h 1.19 v -3.78 c 0,-1.428 0.504,-2.604 2.058,-2.604 1.498004,0 1.554004,0.98 1.554004,2.128 V 801 h 1.19 v -4.802 c 0,-1.652 -0.644,-2.618 -2.408004,-2.618 -1.106,0 -1.862,0.434 -2.464,1.316 z m 12.879994,4.592 h -1.204 c -0.182,1.19 -0.896,1.848 -1.974,1.848 -1.344,0 -2.156,-1.064 -2.156,-2.828 0,-1.736 0.868,-2.828 2.24,-2.828 0.98,0 1.61,0.546 1.82,1.568 h 1.232 c -0.196,-1.638 -1.302,-2.562 -3.066,-2.562 -2.128,0 -3.472,1.512 -3.472,3.92 0,2.198 1.19,3.724 3.43,3.724 1.792,0 2.94,-1.12 3.15,-2.842 z m 7.47601,0.35 h -1.162 c -0.336,1.092 -0.91,1.54 -1.946,1.54 -1.4,0 -2.254,-0.924 -2.254,-2.464 l 0.014,-0.084 h 5.432 v -0.168 c 0,-2.086 -0.896,-3.976 -3.276,-3.976 -2.002,0 -3.36,1.582 -3.36,3.92 0,2.352 1.274,3.752 3.402,3.752 1.708,0 2.786,-0.854 3.15,-2.52 z m -1.148,-1.974 h -4.2 c 0.154,-1.358 0.966,-2.198 2.128,-2.198 1.19,0 1.96,0.826 2.072,2.198 z"
       id="text182"
       class="nonterminal"
       style="font-size:14px;font-family:HelveticaNeueCyr, Sans-serif;fill:#ffe0e0"
       aria-label="reference" />
  </a>
  <a
     xlink:href="#value"
     xlink:title="value"
     id="a198">
    <path
       id="rect192"
       style="fill:#320000;stroke:#320000"
       d="m 51,871 h 54 v 32 H 51 Z" />
    <path
       id="rect194"
       class="nonterminal"
       style="fill:#ff3f3f;stroke:#320000"
       d="m 49,869 h 54 v 32 H 49 Z" />
    <path
       d="M 59.196,881.776 61.884,889 h 1.274 l 2.646,-7.224 h -1.246 l -1.988,6.062 -2.044,-6.062 z m 14.098,6.272 c -0.126,0.028 -0.182,0.042 -0.294,0.042 -0.364,0 -0.49,-0.182 -0.49,-0.714 0,-1.078 0.056,-2.142 0.056,-3.22 0,-0.644 0.014,-1.386 -0.49,-1.876 -0.476,-0.448 -1.302,-0.7 -2.268,-0.7 -1.862,0 -2.982,0.91 -3.024,2.45 h 1.162 c 0.112,-1.064 0.686,-1.47 1.792,-1.47 1.064,0 1.638,0.42 1.638,1.19 0,0.98 -0.588,0.938 -2.31,1.148 -1.708,0.21 -2.562,0.966 -2.562,2.254 0,1.26 0.882,2.044 2.31,2.044 1.12,0 1.904,-0.35 2.618,-1.148 0.014,0.686 0.378,1.064 1.05,1.064 0.266,0 0.56,-0.042 0.812,-0.14 z m -1.918,-2.8 v 1.316 c 0,0.924 -1.078,1.694 -2.198,1.694 -0.896,0 -1.442,-0.462 -1.442,-1.204 0,-1.162 1.176,-1.26 2.044,-1.372 0.532,-0.07 1.148,-0.098 1.596,-0.434 z m 4.298009,-6.216 h -1.204 V 889 h 1.204 z m 7.840002,2.744 h -1.19 v 3.78 c 0,1.484 -0.546,2.604 -2.114,2.604 -1.218,0 -1.512,-0.7 -1.512,-1.736 v -4.648 h -1.19 v 4.97 c 0,1.596 0.896,2.45 2.408,2.45 1.064,0 1.862,-0.42 2.492,-1.33 V 889 h 1.106 z m 7.965996,4.942 h -1.162 c -0.336,1.092 -0.91,1.54 -1.946,1.54 -1.4,0 -2.254,-0.924 -2.254,-2.464 l 0.014,-0.084 h 5.432 v -0.168 c 0,-2.086 -0.896,-3.976 -3.276,-3.976 -2.002,0 -3.36,1.582 -3.36,3.92 0,2.352 1.274,3.752 3.402,3.752 1.708,0 2.786,-0.854 3.15,-2.52 z m -1.148,-1.974 h -4.2 c 0.154,-1.358 0.966,-2.198 2.128,-2.198 1.19,0 1.96,0.826 2.072,2.198 z"
       id="text196"
       class="nonterminal"
       style="font-size:14px;font-family:HelveticaNeueCyr, Sans-serif;fill:#ffe0e0"
       aria-label="value" />
  </a>
  <path
     class="line"
     d="m 17,17 h 2 m 20,0 h 10 m 108,0 h 10 m 0,0 H 663 M 19,17 h 20 m 624,0 h 20 M 19,17 c 6.666667,0 10,3.333333 10,10 m 644,0 c 0,-6.666667 3.33333,-10 10,-10 M 29,27 v 24 m 644,0 V 27 M 29,51 c 0,6.666667 3.333333,10 10,10 m 624,0 c 6.66667,0 10,-3.333333 10,-10 M 39,61 h 10 m 56,0 h 10 m 0,0 h 10 m 26,0 h 10 m 0,0 h 10 m 90,0 h 10 m 0,0 h 10 m 38,0 h 10 m 0,0 h 10 m 48,0 h 10 m 0,0 h 10 m 26,0 h 10 m 0,0 H 663 M 29,51 v 20 m 644,0 V 51 M 29,71 v 24 m 644,0 V 71 M 29,95 c 0,6.66667 3.333333,10 10,10 m 624,0 c 6.66667,0 10,-3.33333 10,-10 M 39,105 h 10 m 90,0 h 10 m 20,0 h 10 m 74,0 h 10 m 0,0 h 380 m -494,0 h 20 m 474,0 h 20 m -514,0 c 6.66667,0 10,3.33333 10,10 m 494,0 c 0,-6.66667 3.33333,-10 10,-10 m -504,10 v 24 m 494,0 v -24 m -494,24 c 0,6.66667 3.33333,10 10,10 m 474,0 c 6.66667,0 10,-3.33333 10,-10 m -484,10 h 10 m 108,0 h 10 m 0,0 H 643 M 159,139 v 20 m 494,0 v -20 m -494,20 v 24 m 494,0 v -24 m -494,24 c 0,6.66667 3.33333,10 10,10 m 474,0 c 6.66667,0 10,-3.33333 10,-10 m -464,10 h 10 m 40,0 h 10 m 0,0 h 264 m -344,0 h 20 m 324,0 h 20 m -364,0 c 6.66667,0 10,3.33333 10,10 m 344,0 c 0,-6.66667 3.33333,-10 10,-10 m -354,10 v 24 m 344,0 v -24 m -344,24 c 0,6.66667 3.33333,10 10,10 m 324,0 c 6.66667,0 10,-3.33333 10,-10 m -314,10 h 10 m 0,0 h 206 m -236,0 h 20 m 216,0 h 20 m -256,0 c 6.66667,0 10,3.33333 10,10 m 236,0 c 0,-6.66667 3.33333,-10 10,-10 m -246,10 v 12 m 236,0 v -12 m -236,12 c 0,6.66667 3.33333,10 10,10 m 216,0 c 6.66667,0 10,-3.33333 10,-10 m -226,10 h 10 m 86,0 h 10 m 0,0 h 10 m 90,0 h 10 m 20,-32 h 10 m 48,0 h 10 M 179,227 v 20 m 344,0 v -20 m -344,20 v 56 m 344,0 v -56 m -344,56 c 0,6.66667 3.33333,10 10,10 m 324,0 c 6.66667,0 10,-3.33333 10,-10 m -334,10 h 10 m 28,0 h 10 m 0,0 H 513 M 179,303 v 20 m 344,0 v -20 m -344,20 v 24 m 344,0 v -24 m -344,24 c 0,6.66667 3.33333,10 10,10 m 324,0 c 6.66667,0 10,-3.33333 10,-10 m -334,10 h 10 m 28,0 h 10 m 0,0 H 513 M 179,347 v 20 m 344,0 v -20 m -344,20 v 24 m 344,0 v -24 m -344,24 c 0,6.66667 3.33333,10 10,10 m 324,0 c 6.66667,0 10,-3.33333 10,-10 m -334,10 h 10 m 30,0 h 10 m 0,0 H 513 M 179,391 v 20 m 344,0 v -20 m -344,20 v 24 m 344,0 v -24 m -344,24 c 0,6.66667 3.33333,10 10,10 m 324,0 c 6.66667,0 10,-3.33333 10,-10 m -334,10 h 10 m 26,0 h 10 m 0,0 H 513 M 179,435 v 20 m 344,0 v -20 m -344,20 v 24 m 344,0 v -24 m -344,24 c 0,6.66667 3.33333,10 10,10 m 324,0 c 6.66667,0 10,-3.33333 10,-10 m -334,10 h 10 m 30,0 h 10 m 0,0 H 513 M 179,479 v 20 m 344,0 v -20 m -344,20 v 24 m 344,0 v -24 m -344,24 c 0,6.66667 3.33333,10 10,10 m 324,0 c 6.66667,0 10,-3.33333 10,-10 m -334,10 h 10 m 30,0 h 10 m 0,0 H 513 M 179,523 v 20 m 344,0 v -20 m -344,20 v 24 m 344,0 v -24 m -344,24 c 0,6.66667 3.33333,10 10,10 m 324,0 c 6.66667,0 10,-3.33333 10,-10 m -334,10 h 10 m 30,0 h 10 m 0,0 H 513 M 179,567 v 20 m 344,0 v -20 m -344,20 v 24 m 344,0 v -24 m -344,24 c 0,6.66667 3.33333,10 10,10 m 324,0 c 6.66667,0 10,-3.33333 10,-10 m -334,10 h 10 m 40,0 h 10 m 0,0 H 513 M 179,611 v 20 m 344,0 v -20 m -344,20 v 24 m 344,0 v -24 m -344,24 c 0,6.66667 3.33333,10 10,10 m 324,0 c 6.66667,0 10,-3.33333 10,-10 m -334,10 h 10 m 40,0 h 10 m 0,0 H 513 M 179,655 v 20 m 344,0 v -20 m -344,20 v 24 m 344,0 v -24 m -344,24 c 0,6.66667 3.33333,10 10,10 m 324,0 c 6.66667,0 10,-3.33333 10,-10 m -334,10 h 10 m 40,0 h 10 m 0,0 H 513 M 179,699 v 20 m 344,0 v -20 m -344,20 v 24 m 344,0 v -24 m -344,24 c 0,6.66667 3.33333,10 10,10 m 324,0 c 6.66667,0 10,-3.33333 10,-10 m -334,10 h 10 m 34,0 h 10 m 0,0 h 270 m 20,-560 h 10 m 90,0 h 10 M 29,95 v 20 m 644,0 V 95 M 29,115 v 672 m 644,0 V 115 M 29,787 c 0,6.66667 3.333333,10 10,10 m 624,0 c 6.66667,0 10,-3.33333 10,-10 M 39,797 h 10 m 80,0 h 10 m 0,0 H 663 M 29,787 v 20 m 644,0 V 787 M 29,807 v 24 m 644,0 V 807 M 29,831 c 0,6.66667 3.333333,10 10,10 m 624,0 c 6.66667,0 10,-3.33333 10,-10 M 39,841 h 10 m 68.0781,0 11.9219,0 m 0,0 H 663 M 29,831 v 20 m 644,0 V 831 M 29,851 v 24 m 644,0 V 851 M 29,875 c 0,6.66667 3.333333,10 10,10 m 624,0 c 6.66667,0 10,-3.33333 10,-10 M 39,885 h 10 m 54,0 h 10 m 0,0 H 663 M 686,17 h -3"
     id="path200"
     sodipodi:nodetypes="cccccccccccccccccccccccccccccccccccccccccccccccccccccccccccccccccccccccccccccccccccccccccccccccccccccccccccccccccccccccccccccccccccccccccccccccccccccccccccccccccccccccccccccccccccccccccccccccccccccccccccccccccccccccccccccccccccccccccccccccccccccccccccccccccccccccccccccccccccccccccccccccccccccccccccccccccccccccccccccccccccccccccccccccccccccccccccccccccccccccccccccccccccccccccccccccccccccccccccccccccccccccccccccccccc" />
  <path
     id="polygon202"
     style="fill:#320000;stroke:#320000"
     d="m 693,17 8,-4 v 8 z" />
  <path
     id="polygon204"
     style="fill:#320000;stroke:#320000"
     d="m 693,17 -8,-4 v 8 z" />
  <a
     xlink:href="#select"
     xlink:title="SELECT"
     id="a12485"
     transform="translate(0.34458658,823.206)">
    <path
       id="rect12479"
       style="fill:#320000;stroke:#320000"
       d="m 51,3 h 66 V 35 H 51 Z" />
    <path
       id="rect12481"
       style="fill:#ff3f3f;stroke:#320000"
       class="nonterminal"
       d="m 49,1 h 66 V 33 H 49 Z" />
    <path
       d="m 65.461294,14.172561 c -0.084,-2.142 -1.54,-3.122 -3.654,-3.122 -1.792,0 -3.612,0.798 -3.612,2.842 0,2.1 1.862,2.366 3.472,2.73 1.638,0.378 2.898,0.63 2.898,1.918 0,1.414 -1.316,1.82 -2.478,1.82 -1.596,0 -2.912,-0.63 -2.968,-2.436 h -1.274 c 0,2.408 1.75,3.514 4.13,3.514 1.904,0 3.878,-0.812 3.878,-3.024 0,-2.1 -2.072,-2.604 -3.696,-2.94 -1.54,-0.322 -2.702,-0.56 -2.702,-1.68 0,-1.05 0.826,-1.652 2.254,-1.652 1.47,0 2.324,0.588 2.478,2.03 z m 8.91801,-2.926 h -6.902 v 9.968 h 6.972 v -1.148 h -5.656 v -3.444 h 5.222 v -1.106 h -5.222 v -3.122 h 5.586 z m 8.274,8.82 h -5.292 v -8.82 h -1.316 v 9.968 h 6.608 z m 8.063997,-8.82 h -6.902 v 9.968 h 6.972 v -1.148 h -5.656 v -3.444 h 5.222 v -1.106 h -5.222 v -3.122 h 5.586 z m 10.093999,6.202 h -1.315998 c -0.21,1.862 -1.246,2.87 -2.94,2.87 -2.072,0 -3.346,-1.554 -3.346,-4.088 0,-2.1 0.994,-4.074 3.36,-4.074 1.484,0 2.548,0.784 2.842,2.086 h 1.315998 c -0.196,-2.128 -2.169998,-3.22 -4.129998,-3.22 -3.066,0 -4.718,2.366 -4.718,5.222 0,3.192 1.778,5.208 4.62,5.208 2.464,0 4.087998,-1.47 4.311998,-4.004 z m 8.582,-6.202 h -8.008 v 1.148 h 3.346 v 8.82 h 1.316 v -8.82 h 3.346 z"
       id="text12483"
       style="font-size:14px;font-family:HelveticaNeueCyr, Sans-serif;fill:#ffe0e0"
       class="nonterminal"
       aria-label="SELECT" />
  </a>
</svg>
