<?xml version="1.0" encoding="UTF-8"?>
<svg xmlns="http://www.w3.org/2000/svg" width="855" height="1431" viewBox="0 0 855 1431">
   <defs>
      <style type="text/css">
    @namespace "http://www.w3.org/2000/svg";
    .line                 {fill: none; stroke: #330000; stroke-width: 1;}
    .bold-line            {stroke: #140000; shape-rendering: crispEdges; stroke-width: 2;}
    .thin-line            {stroke: #1F0000; shape-rendering: crispEdges}
    .filled               {fill: #330000; stroke: none;}
    text.terminal         {font-family: Verdana, Sans-serif;
                            font-size: 12px;
                            fill: #140000;
                            font-weight: bold;
                          }
    text.nonterminal      {font-family: Verdana, Sans-serif;
                            font-size: 12px;
                            fill: #1A0000;
                            font-weight: normal;
                          }
    text.regexp           {font-family: Verdana, Sans-serif;
                            font-size: 12px;
                            fill: #1F0000;
                            font-weight: normal;
                          }
    rect, circle, polygon {fill: #330000; stroke: #330000;}
    rect.terminal         {fill: #FF4D4D; stroke: #330000; stroke-width: 1;}
    rect.nonterminal      {fill: #FF9E9E; stroke: #330000; stroke-width: 1;}
    rect.text             {fill: none; stroke: none;}
    polygon.regexp        {fill: #FFC7C7; stroke: #330000; stroke-width: 1;}
  </style>
   </defs>
   <polygon points="9 51 1 47 1 55"/>
   <polygon points="17 51 9 47 9 55"/>
   <rect x="71" y="3" width="48" height="32" rx="10"/>
   <rect x="69"
         y="1"
         width="48"
         height="32"
         class="terminal"
         rx="10"/>
   <text class="terminal" x="79" y="21">NOT</text>
   <a xmlns:xlink="http://www.w3.org/1999/xlink"
      xlink:href="../object"
      xlink:title="table">
      <rect x="199" y="69" width="52" height="32"/>
      <rect x="197" y="67" width="52" height="32" class="nonterminal"/>
      <text class="nonterminal" x="207" y="87">table</text>
   </a>
   <rect x="271" y="69" width="24" height="32" rx="10"/>
   <rect x="269"
         y="67"
         width="24"
         height="32"
         class="terminal"
         rx="10"/>
   <text class="terminal" x="279" y="87">.</text>
   <a xmlns:xlink="http://www.w3.org/1999/xlink"
      xlink:href="../object"
      xlink:title="column">
      <rect x="335" y="37" width="64" height="32"/>
      <rect x="333" y="35" width="64" height="32" class="nonterminal"/>
      <text class="nonterminal" x="343" y="55">column</text>
   </a>
   <a xmlns:xlink="http://www.w3.org/1999/xlink"
      xlink:href="#literal"
      xlink:title="literal">
      <rect x="179" y="113" width="56" height="32"/>
      <rect x="177" y="111" width="56" height="32" class="nonterminal"/>
      <text class="nonterminal" x="187" y="131">literal</text>
   </a>
   <a xmlns:xlink="http://www.w3.org/1999/xlink"
      xlink:href="../case"
      xlink:title="case">
      <rect x="179" y="157" width="48" height="32"/>
      <rect x="177" y="155" width="48" height="32" class="nonterminal"/>
      <text class="nonterminal" x="187" y="175">case</text>
   </a>
   <a xmlns:xlink="http://www.w3.org/1999/xlink"
      xlink:href="../cast"
      xlink:title="cast">
      <rect x="179" y="201" width="46" height="32"/>
      <rect x="177" y="199" width="46" height="32" class="nonterminal"/>
      <text class="nonterminal" x="187" y="219">cast</text>
   </a>
   <a xmlns:xlink="http://www.w3.org/1999/xlink"
      xlink:href="../current_date"
      xlink:title="current_date">
      <rect x="179" y="245" width="102" height="32"/>
      <rect x="177" y="243" width="102" height="32" class="nonterminal"/>
      <text class="nonterminal" x="187" y="263">current_date</text>
   </a>
   <a xmlns:xlink="http://www.w3.org/1999/xlink"
      xlink:href="../substr"
      xlink:title="substr">
      <rect x="179" y="289" width="60" height="32"/>
      <rect x="177" y="287" width="60" height="32" class="nonterminal"/>
      <text class="nonterminal" x="187" y="307">substr</text>
   </a>
   <a xmlns:xlink="http://www.w3.org/1999/xlink"
      xlink:href="../to_char"
      xlink:title="to_char">
      <rect x="179" y="333" width="68" height="32"/>
      <rect x="177" y="331" width="68" height="32" class="nonterminal"/>
      <text class="nonterminal" x="187" y="351">to_char</text>
   </a>
   <a xmlns:xlink="http://www.w3.org/1999/xlink"
      xlink:href="../to_date"
      xlink:title="to_date">
      <rect x="179" y="377" width="70" height="32"/>
      <rect x="177" y="375" width="70" height="32" class="nonterminal"/>
      <text class="nonterminal" x="187" y="395">to_date</text>
   </a>
   <a xmlns:xlink="http://www.w3.org/1999/xlink"
      xlink:href="../trim"
      xlink:title="trim">
      <rect x="179" y="421" width="44" height="32"/>
      <rect x="177" y="419" width="44" height="32" class="nonterminal"/>
      <text class="nonterminal" x="187" y="439">trim</text>
   </a>
   <rect x="199" y="497" width="48" height="32" rx="10"/>
   <rect x="197"
         y="495"
         width="48"
         height="32"
         class="terminal"
         rx="10"/>
   <text class="terminal" x="207" y="515">NOT</text>
   <rect x="287" y="465" width="70" height="32" rx="10"/>
   <rect x="285"
         y="463"
         width="70"
         height="32"
         class="terminal"
         rx="10"/>
   <text class="terminal" x="295" y="483">EXISTS</text>
   <rect x="377" y="465" width="26" height="32" rx="10"/>
   <rect x="375"
         y="463"
         width="26"
         height="32"
         class="terminal"
         rx="10"/>
   <text class="terminal" x="385" y="483">(</text>
   <a xmlns:xlink="http://www.w3.org/1999/xlink"
      xlink:href="../dql"
      xlink:title="dql">
      <rect x="423" y="465" width="38" height="32"/>
      <rect x="421" y="463" width="38" height="32" class="nonterminal"/>
      <text class="nonterminal" x="431" y="483">dql</text>
   </a>
   <rect x="481" y="465" width="26" height="32" rx="10"/>
   <rect x="479"
         y="463"
         width="26"
         height="32"
         class="terminal"
         rx="10"/>
   <text class="terminal" x="489" y="483">)</text>
   <rect x="179" y="541" width="26" height="32" rx="10"/>
   <rect x="177"
         y="539"
         width="26"
         height="32"
         class="terminal"
         rx="10"/>
   <text class="terminal" x="187" y="559">(</text>
   <a xmlns:xlink="http://www.w3.org/1999/xlink"
      xlink:href="../dql"
      xlink:title="dql">
      <rect x="225" y="541" width="38" height="32"/>
      <rect x="223" y="539" width="38" height="32" class="nonterminal"/>
      <text class="nonterminal" x="233" y="559">dql</text>
   </a>
   <rect x="283" y="541" width="26" height="32" rx="10"/>
   <rect x="281"
         y="539"
         width="26"
         height="32"
         class="terminal"
         rx="10"/>
   <text class="terminal" x="291" y="559">)</text>
   <rect x="179" y="629" width="26" height="32" rx="10"/>
   <rect x="177"
         y="627"
         width="26"
         height="32"
         class="terminal"
         rx="10"/>
   <text class="terminal" x="187" y="647">(</text>
   <a xmlns:xlink="http://www.w3.org/1999/xlink"
      xlink:href="#expression"
      xlink:title="expression">
      <rect x="245" y="629" width="90" height="32"/>
      <rect x="243" y="627" width="90" height="32" class="nonterminal"/>
      <text class="nonterminal" x="253" y="647">expression</text>
   </a>
   <rect x="245" y="585" width="24" height="32" rx="10"/>
   <rect x="243"
         y="583"
         width="24"
         height="32"
         class="terminal"
         rx="10"/>
   <text class="terminal" x="253" y="603">,</text>
   <rect x="375" y="629" width="26" height="32" rx="10"/>
   <rect x="373"
         y="627"
         width="26"
         height="32"
         class="terminal"
         rx="10"/>
   <text class="terminal" x="383" y="647">)</text>
   <rect x="567" y="69" width="36" height="32" rx="10"/>
   <rect x="565"
         y="67"
         width="36"
         height="32"
         class="terminal"
         rx="10"/>
   <text class="terminal" x="575" y="87">IS</text>
   <rect x="643" y="101" width="48" height="32" rx="10"/>
   <rect x="641"
         y="99"
         width="48"
         height="32"
         class="terminal"
         rx="10"/>
   <text class="terminal" x="651" y="119">NOT</text>
   <rect x="731" y="69" width="56" height="32" rx="10"/>
   <rect x="729"
         y="67"
         width="56"
         height="32"
         class="terminal"
         rx="10"/>
   <text class="terminal" x="739" y="87">NULL</text>
   <a xmlns:xlink="http://www.w3.org/1999/xlink"
      xlink:href="#expression"
      xlink:title="expression">
      <rect x="51" y="673" width="90" height="32"/>
      <rect x="49" y="671" width="90" height="32" class="nonterminal"/>
      <text class="nonterminal" x="59" y="691">expression</text>
   </a>
   <rect x="201" y="705" width="48" height="32" rx="10"/>
   <rect x="199"
         y="703"
         width="48"
         height="32"
         class="terminal"
         rx="10"/>
   <text class="terminal" x="209" y="723">NOT</text>
   <rect x="289" y="673" width="86" height="32" rx="10"/>
   <rect x="287"
         y="671"
         width="86"
         height="32"
         class="terminal"
         rx="10"/>
   <text class="terminal" x="297" y="691">BETWEEN</text>
   <a xmlns:xlink="http://www.w3.org/1999/xlink"
      xlink:href="#expression"
      xlink:title="expression">
      <rect x="395" y="673" width="90" height="32"/>
      <rect x="393" y="671" width="90" height="32" class="nonterminal"/>
      <text class="nonterminal" x="403" y="691">expression</text>
   </a>
   <rect x="505" y="673" width="48" height="32" rx="10"/>
   <rect x="503"
         y="671"
         width="48"
         height="32"
         class="terminal"
         rx="10"/>
   <text class="terminal" x="513" y="691">AND</text>
   <rect x="181" y="749" width="30" height="32" rx="10"/>
   <rect x="179"
         y="747"
         width="30"
         height="32"
         class="terminal"
         rx="10"/>
   <text class="terminal" x="189" y="767">+</text>
   <rect x="181" y="793" width="26" height="32" rx="10"/>
   <rect x="179"
         y="791"
         width="26"
         height="32"
         class="terminal"
         rx="10"/>
   <text class="terminal" x="189" y="811">-</text>
   <rect x="181" y="837" width="28" height="32" rx="10"/>
   <rect x="179"
         y="835"
         width="28"
         height="32"
         class="terminal"
         rx="10"/>
   <text class="terminal" x="189" y="855">*</text>
   <rect x="181" y="881" width="28" height="32" rx="10"/>
   <rect x="179"
         y="879"
         width="28"
         height="32"
         class="terminal"
         rx="10"/>
   <text class="terminal" x="189" y="899">/</text>
   <rect x="181" y="925" width="40" height="32" rx="10"/>
   <rect x="179"
         y="923"
         width="40"
         height="32"
         class="terminal"
         rx="10"/>
   <text class="terminal" x="189" y="943">&lt;&gt;</text>
   <rect x="181" y="969" width="34" height="32" rx="10"/>
   <rect x="179"
         y="967"
         width="34"
         height="32"
         class="terminal"
         rx="10"/>
   <text class="terminal" x="189" y="987">!=</text>
   <rect x="181" y="1013" width="40" height="32" rx="10"/>
   <rect x="179"
         y="1011"
         width="40"
         height="32"
         class="terminal"
         rx="10"/>
   <text class="terminal" x="189" y="1031">&gt;=</text>
   <rect x="181" y="1057" width="30" height="32" rx="10"/>
   <rect x="179"
         y="1055"
         width="30"
         height="32"
         class="terminal"
         rx="10"/>
   <text class="terminal" x="189" y="1075">&gt;</text>
   <rect x="181" y="1101" width="40" height="32" rx="10"/>
   <rect x="179"
         y="1099"
         width="40"
         height="32"
         class="terminal"
         rx="10"/>
   <text class="terminal" x="189" y="1119">&lt;=</text>
   <rect x="181" y="1145" width="30" height="32" rx="10"/>
   <rect x="179"
         y="1143"
         width="30"
         height="32"
         class="terminal"
         rx="10"/>
   <text class="terminal" x="189" y="1163">&lt;</text>
   <rect x="181" y="1189" width="30" height="32" rx="10"/>
   <rect x="179"
         y="1187"
         width="30"
         height="32"
         class="terminal"
         rx="10"/>
   <text class="terminal" x="189" y="1207">=</text>
   <rect x="201" y="1265" width="48" height="32" rx="10"/>
   <rect x="199"
         y="1263"
         width="48"
         height="32"
         class="terminal"
         rx="10"/>
   <text class="terminal" x="209" y="1283">NOT</text>
   <rect x="289" y="1233" width="36" height="32" rx="10"/>
   <rect x="287"
         y="1231"
         width="36"
         height="32"
         class="terminal"
         rx="10"/>
   <text class="terminal" x="297" y="1251">IN</text>
   <rect x="181" y="1309" width="32" height="32" rx="10"/>
   <rect x="179"
         y="1307"
         width="32"
         height="32"
         class="terminal"
         rx="10"/>
   <text class="terminal" x="189" y="1327">||</text>
   <rect x="181" y="1353" width="48" height="32" rx="10"/>
   <rect x="179"
         y="1351"
         width="48"
         height="32"
         class="terminal"
         rx="10"/>
   <text class="terminal" x="189" y="1371">AND</text>
   <rect x="181" y="1397" width="40" height="32" rx="10"/>
   <rect x="179"
         y="1395"
         width="40"
         height="32"
         class="terminal"
         rx="10"/>
   <text class="terminal" x="189" y="1415">OR</text>
   <a xmlns:xlink="http://www.w3.org/1999/xlink"
      xlink:href="#expression"
      xlink:title="expression">
      <rect x="593" y="673" width="90" height="32"/>
      <rect x="591" y="671" width="90" height="32" class="nonterminal"/>
      <text class="nonterminal" x="601" y="691">expression</text>
   </a>
   <path class="line"
         d="m17 51 h2 m40 0 h10 m0 0 h58 m-88 0 l20 0 m-1 0 q-9 0 -9 -10 l0 -14 q0 -10 10 -10 m68 34 l20 0 m-20 0 q10 0 10 -10 l0 -14 q0 -10 -10 -10 m-68 0 h10 m48 0 h10 m60 34 h10 m0 0 h106 m-136 0 h20 m116 0 h20 m-156 0 q10 0 10 10 m136 0 q0 -10 10 -10 m-146 10 v12 m136 0 v-12 m-136 12 q0 10 10 10 m116 0 q10 0 10 -10 m-126 10 h10 m52 0 h10 m0 0 h10 m24 0 h10 m20 -32 h10 m64 0 h10 m0 0 h108 m-368 0 h20 m348 0 h20 m-388 0 q10 0 10 10 m368 0 q0 -10 10 -10 m-378 10 v56 m368 0 v-56 m-368 56 q0 10 10 10 m348 0 q10 0 10 -10 m-358 10 h10 m56 0 h10 m0 0 h272 m-358 -10 v20 m368 0 v-20 m-368 20 v24 m368 0 v-24 m-368 24 q0 10 10 10 m348 0 q10 0 10 -10 m-358 10 h10 m48 0 h10 m0 0 h280 m-358 -10 v20 m368 0 v-20 m-368 20 v24 m368 0 v-24 m-368 24 q0 10 10 10 m348 0 q10 0 10 -10 m-358 10 h10 m46 0 h10 m0 0 h282 m-358 -10 v20 m368 0 v-20 m-368 20 v24 m368 0 v-24 m-368 24 q0 10 10 10 m348 0 q10 0 10 -10 m-358 10 h10 m102 0 h10 m0 0 h226 m-358 -10 v20 m368 0 v-20 m-368 20 v24 m368 0 v-24 m-368 24 q0 10 10 10 m348 0 q10 0 10 -10 m-358 10 h10 m60 0 h10 m0 0 h268 m-358 -10 v20 m368 0 v-20 m-368 20 v24 m368 0 v-24 m-368 24 q0 10 10 10 m348 0 q10 0 10 -10 m-358 10 h10 m68 0 h10 m0 0 h260 m-358 -10 v20 m368 0 v-20 m-368 20 v24 m368 0 v-24 m-368 24 q0 10 10 10 m348 0 q10 0 10 -10 m-358 10 h10 m70 0 h10 m0 0 h258 m-358 -10 v20 m368 0 v-20 m-368 20 v24 m368 0 v-24 m-368 24 q0 10 10 10 m348 0 q10 0 10 -10 m-358 10 h10 m44 0 h10 m0 0 h284 m-358 -10 v20 m368 0 v-20 m-368 20 v24 m368 0 v-24 m-368 24 q0 10 10 10 m348 0 q10 0 10 -10 m-338 10 h10 m0 0 h58 m-88 0 h20 m68 0 h20 m-108 0 q10 0 10 10 m88 0 q0 -10 10 -10 m-98 10 v12 m88 0 v-12 m-88 12 q0 10 10 10 m68 0 q10 0 10 -10 m-78 10 h10 m48 0 h10 m20 -32 h10 m70 0 h10 m0 0 h10 m26 0 h10 m0 0 h10 m38 0 h10 m0 0 h10 m26 0 h10 m-358 -10 v20 m368 0 v-20 m-368 20 v56 m368 0 v-56 m-368 56 q0 10 10 10 m348 0 q10 0 10 -10 m-358 10 h10 m26 0 h10 m0 0 h10 m38 0 h10 m0 0 h10 m26 0 h10 m0 0 h198 m-358 -10 v20 m368 0 v-20 m-368 20 v68 m368 0 v-68 m-368 68 q0 10 10 10 m348 0 q10 0 10 -10 m-358 10 h10 m26 0 h10 m20 0 h10 m90 0 h10 m-130 0 l20 0 m-1 0 q-9 0 -9 -10 l0 -24 q0 -10 10 -10 m110 44 l20 0 m-20 0 q10 0 10 -10 l0 -24 q0 -10 -10 -10 m-110 0 h10 m24 0 h10 m0 0 h66 m20 44 h10 m26 0 h10 m0 0 h106 m40 -592 h10 m0 0 h230 m-260 0 h20 m240 0 h20 m-280 0 q10 0 10 10 m260 0 q0 -10 10 -10 m-270 10 v12 m260 0 v-12 m-260 12 q0 10 10 10 m240 0 q10 0 10 -10 m-250 10 h10 m36 0 h10 m20 0 h10 m0 0 h58 m-88 0 h20 m68 0 h20 m-108 0 q10 0 10 10 m88 0 q0 -10 10 -10 m-98 10 v12 m88 0 v-12 m-88 12 q0 10 10 10 m68 0 q10 0 10 -10 m-78 10 h10 m48 0 h10 m20 -32 h10 m56 0 h10 m-776 -32 h20 m776 0 h20 m-816 0 q10 0 10 10 m796 0 q0 -10 10 -10 m-806 10 v616 m796 0 v-616 m-796 616 q0 10 10 10 m776 0 q10 0 10 -10 m-786 10 h10 m90 0 h10 m40 0 h10 m0 0 h58 m-88 0 h20 m68 0 h20 m-108 0 q10 0 10 10 m88 0 q0 -10 10 -10 m-98 10 v12 m88 0 v-12 m-88 12 q0 10 10 10 m68 0 q10 0 10 -10 m-78 10 h10 m48 0 h10 m20 -32 h10 m86 0 h10 m0 0 h10 m90 0 h10 m0 0 h10 m48 0 h10 m-412 0 h20 m392 0 h20 m-432 0 q10 0 10 10 m412 0 q0 -10 10 -10 m-422 10 v56 m412 0 v-56 m-412 56 q0 10 10 10 m392 0 q10 0 10 -10 m-402 10 h10 m30 0 h10 m0 0 h342 m-402 -10 v20 m412 0 v-20 m-412 20 v24 m412 0 v-24 m-412 24 q0 10 10 10 m392 0 q10 0 10 -10 m-402 10 h10 m26 0 h10 m0 0 h346 m-402 -10 v20 m412 0 v-20 m-412 20 v24 m412 0 v-24 m-412 24 q0 10 10 10 m392 0 q10 0 10 -10 m-402 10 h10 m28 0 h10 m0 0 h344 m-402 -10 v20 m412 0 v-20 m-412 20 v24 m412 0 v-24 m-412 24 q0 10 10 10 m392 0 q10 0 10 -10 m-402 10 h10 m28 0 h10 m0 0 h344 m-402 -10 v20 m412 0 v-20 m-412 20 v24 m412 0 v-24 m-412 24 q0 10 10 10 m392 0 q10 0 10 -10 m-402 10 h10 m40 0 h10 m0 0 h332 m-402 -10 v20 m412 0 v-20 m-412 20 v24 m412 0 v-24 m-412 24 q0 10 10 10 m392 0 q10 0 10 -10 m-402 10 h10 m34 0 h10 m0 0 h338 m-402 -10 v20 m412 0 v-20 m-412 20 v24 m412 0 v-24 m-412 24 q0 10 10 10 m392 0 q10 0 10 -10 m-402 10 h10 m40 0 h10 m0 0 h332 m-402 -10 v20 m412 0 v-20 m-412 20 v24 m412 0 v-24 m-412 24 q0 10 10 10 m392 0 q10 0 10 -10 m-402 10 h10 m30 0 h10 m0 0 h342 m-402 -10 v20 m412 0 v-20 m-412 20 v24 m412 0 v-24 m-412 24 q0 10 10 10 m392 0 q10 0 10 -10 m-402 10 h10 m40 0 h10 m0 0 h332 m-402 -10 v20 m412 0 v-20 m-412 20 v24 m412 0 v-24 m-412 24 q0 10 10 10 m392 0 q10 0 10 -10 m-402 10 h10 m30 0 h10 m0 0 h342 m-402 -10 v20 m412 0 v-20 m-412 20 v24 m412 0 v-24 m-412 24 q0 10 10 10 m392 0 q10 0 10 -10 m-402 10 h10 m30 0 h10 m0 0 h342 m-402 -10 v20 m412 0 v-20 m-412 20 v24 m412 0 v-24 m-412 24 q0 10 10 10 m392 0 q10 0 10 -10 m-382 10 h10 m0 0 h58 m-88 0 h20 m68 0 h20 m-108 0 q10 0 10 10 m88 0 q0 -10 10 -10 m-98 10 v12 m88 0 v-12 m-88 12 q0 10 10 10 m68 0 q10 0 10 -10 m-78 10 h10 m48 0 h10 m20 -32 h10 m36 0 h10 m0 0 h228 m-402 -10 v20 m412 0 v-20 m-412 20 v56 m412 0 v-56 m-412 56 q0 10 10 10 m392 0 q10 0 10 -10 m-402 10 h10 m32 0 h10 m0 0 h340 m-402 -10 v20 m412 0 v-20 m-412 20 v24 m412 0 v-24 m-412 24 q0 10 10 10 m392 0 q10 0 10 -10 m-402 10 h10 m48 0 h10 m0 0 h324 m-402 -10 v20 m412 0 v-20 m-412 20 v24 m412 0 v-24 m-412 24 q0 10 10 10 m392 0 q10 0 10 -10 m-402 10 h10 m40 0 h10 m0 0 h332 m20 -724 h10 m90 0 h10 m0 0 h124 m23 -636 h-3"/>
   <polygon points="845 51 853 47 853 55"/>
   <polygon points="845 51 837 47 837 55"/>
</svg>
