<?xml version="1.0" encoding="UTF-8"?>
<svg xmlns="http://www.w3.org/2000/svg" width="771" height="1245" viewBox="0 0 771 1245">
   <defs>
      <style type="text/css">
    @namespace "http://www.w3.org/2000/svg";
    .line                 {fill: none; stroke: #330000; stroke-width: 1;}
    .bold-line            {stroke: #140000; shape-rendering: crispEdges; stroke-width: 2;}
    .thin-line            {stroke: #1F0000; shape-rendering: crispEdges}
    .filled               {fill: #330000; stroke: none;}
    text.terminal         {font-family: Verdana, Sans-serif;
                            font-size: 12px;
                            fill: #140000;
                            font-weight: bold;
                          }
    text.nonterminal      {font-family: Verdana, Sans-serif;
                            font-size: 12px;
                            fill: #1A0000;
                            font-weight: normal;
                          }
    text.regexp           {font-family: Verdana, Sans-serif;
                            font-size: 12px;
                            fill: #1F0000;
                            font-weight: normal;
                          }
    rect, circle, polygon {fill: #330000; stroke: #330000;}
    rect.terminal         {fill: #FF4D4D; stroke: #330000; stroke-width: 1;}
    rect.nonterminal      {fill: #FF9E9E; stroke: #330000; stroke-width: 1;}
    rect.text             {fill: none; stroke: none;}
    polygon.regexp        {fill: #FFC7C7; stroke: #330000; stroke-width: 1;}
  </style>
      <style class="darkreader darkreader--sync" media="screen"/>
   </defs>
   <polygon points="9 17 1 13 1 21"/>
   <polygon points="17 17 9 13 9 21"/>
   <a xmlns:xlink="http://www.w3.org/1999/xlink"
      xlink:href="../object"
      xlink:title="table">
      <rect x="71" y="35" width="52" height="32"/>
      <rect x="69" y="33" width="52" height="32" class="nonterminal"/>
      <text class="nonterminal" x="79" y="53">table</text>
   </a>
   <rect x="143" y="35" width="24" height="32" rx="10"/>
   <rect x="141"
         y="33"
         width="24"
         height="32"
         class="terminal"
         rx="10"/>
   <text class="terminal" x="151" y="53">.</text>
   <a xmlns:xlink="http://www.w3.org/1999/xlink"
      xlink:href="../object"
      xlink:title="column">
      <rect x="207" y="3" width="64" height="32"/>
      <rect x="205" y="1" width="64" height="32" class="nonterminal"/>
      <text class="nonterminal" x="215" y="21">column</text>
   </a>
   <a xmlns:xlink="http://www.w3.org/1999/xlink"
      xlink:href="#expression"
      xlink:title="expression">
      <rect x="51" y="79" width="90" height="32"/>
      <rect x="49" y="77" width="90" height="32" class="nonterminal"/>
      <text class="nonterminal" x="59" y="97">expression</text>
   </a>
   <rect x="181" y="79" width="36" height="32" rx="10"/>
   <rect x="179"
         y="77"
         width="36"
         height="32"
         class="terminal"
         rx="10"/>
   <text class="terminal" x="189" y="97">IS</text>
   <rect x="257" y="111" width="48" height="32" rx="10"/>
   <rect x="255"
         y="109"
         width="48"
         height="32"
         class="terminal"
         rx="10"/>
   <text class="terminal" x="265" y="129">NOT</text>
   <rect x="345" y="79" width="56" height="32" rx="10"/>
   <rect x="343"
         y="77"
         width="56"
         height="32"
         class="terminal"
         rx="10"/>
   <text class="terminal" x="353" y="97">NULL</text>
   <rect x="201" y="155" width="40" height="32" rx="10"/>
   <rect x="199"
         y="153"
         width="40"
         height="32"
         class="terminal"
         rx="10"/>
   <text class="terminal" x="209" y="173">OR</text>
   <rect x="201" y="199" width="48" height="32" rx="10"/>
   <rect x="199"
         y="197"
         width="48"
         height="32"
         class="terminal"
         rx="10"/>
   <text class="terminal" x="209" y="217">AND</text>
   <rect x="201" y="243" width="28" height="32" rx="10"/>
   <rect x="199"
         y="241"
         width="28"
         height="32"
         class="terminal"
         rx="10"/>
   <text class="terminal" x="209" y="261">*</text>
   <rect x="201" y="287" width="28" height="32" rx="10"/>
   <rect x="199"
         y="285"
         width="28"
         height="32"
         class="terminal"
         rx="10"/>
   <text class="terminal" x="209" y="305">/</text>
   <rect x="201" y="331" width="30" height="32" rx="10"/>
   <rect x="199"
         y="329"
         width="30"
         height="32"
         class="terminal"
         rx="10"/>
   <text class="terminal" x="209" y="349">+</text>
   <rect x="201" y="375" width="26" height="32" rx="10"/>
   <rect x="199"
         y="373"
         width="26"
         height="32"
         class="terminal"
         rx="10"/>
   <text class="terminal" x="209" y="393">-</text>
   <rect x="201" y="419" width="30" height="32" rx="10"/>
   <rect x="199"
         y="417"
         width="30"
         height="32"
         class="terminal"
         rx="10"/>
   <text class="terminal" x="209" y="437">=</text>
   <rect x="201" y="463" width="30" height="32" rx="10"/>
   <rect x="199"
         y="461"
         width="30"
         height="32"
         class="terminal"
         rx="10"/>
   <text class="terminal" x="209" y="481">&gt;</text>
   <rect x="201" y="507" width="30" height="32" rx="10"/>
   <rect x="199"
         y="505"
         width="30"
         height="32"
         class="terminal"
         rx="10"/>
   <text class="terminal" x="209" y="525">&lt;</text>
   <rect x="201" y="551" width="40" height="32" rx="10"/>
   <rect x="199"
         y="549"
         width="40"
         height="32"
         class="terminal"
         rx="10"/>
   <text class="terminal" x="209" y="569">&gt;=</text>
   <rect x="201" y="595" width="40" height="32" rx="10"/>
   <rect x="199"
         y="593"
         width="40"
         height="32"
         class="terminal"
         rx="10"/>
   <text class="terminal" x="209" y="613">&lt;=</text>
   <rect x="201" y="639" width="40" height="32" rx="10"/>
   <rect x="199"
         y="637"
         width="40"
         height="32"
         class="terminal"
         rx="10"/>
   <text class="terminal" x="209" y="657">&lt;&gt;</text>
   <rect x="201" y="683" width="34" height="32" rx="10"/>
   <rect x="199"
         y="681"
         width="34"
         height="32"
         class="terminal"
         rx="10"/>
   <text class="terminal" x="209" y="701">!=</text>
   <a xmlns:xlink="http://www.w3.org/1999/xlink"
      xlink:href="#expression"
      xlink:title="expression">
      <rect x="289" y="155" width="90" height="32"/>
      <rect x="287" y="153" width="90" height="32" class="nonterminal"/>
      <text class="nonterminal" x="297" y="173">expression</text>
   </a>
   <rect x="201" y="759" width="48" height="32" rx="10"/>
   <rect x="199"
         y="757"
         width="48"
         height="32"
         class="terminal"
         rx="10"/>
   <text class="terminal" x="209" y="777">NOT</text>
   <rect x="309" y="727" width="86" height="32" rx="10"/>
   <rect x="307"
         y="725"
         width="86"
         height="32"
         class="terminal"
         rx="10"/>
   <text class="terminal" x="317" y="745">BETWEEN</text>
   <a xmlns:xlink="http://www.w3.org/1999/xlink"
      xlink:href="#expression"
      xlink:title="expression">
      <rect x="415" y="727" width="90" height="32"/>
      <rect x="413" y="725" width="90" height="32" class="nonterminal"/>
      <text class="nonterminal" x="423" y="745">expression</text>
   </a>
   <rect x="525" y="727" width="48" height="32" rx="10"/>
   <rect x="523"
         y="725"
         width="48"
         height="32"
         class="terminal"
         rx="10"/>
   <text class="terminal" x="533" y="745">AND</text>
   <a xmlns:xlink="http://www.w3.org/1999/xlink"
      xlink:href="#expression"
      xlink:title="expression">
      <rect x="593" y="727" width="90" height="32"/>
      <rect x="591" y="725" width="90" height="32" class="nonterminal"/>
      <text class="nonterminal" x="601" y="745">expression</text>
   </a>
   <rect x="309" y="771" width="36" height="32" rx="10"/>
   <rect x="307"
         y="769"
         width="36"
         height="32"
         class="terminal"
         rx="10"/>
   <text class="terminal" x="317" y="789">IN</text>
   <rect x="365" y="771" width="26" height="32" rx="10"/>
   <rect x="363"
         y="769"
         width="26"
         height="32"
         class="terminal"
         rx="10"/>
   <text class="terminal" x="373" y="789">(</text>
   <a xmlns:xlink="http://www.w3.org/1999/xlink"
      xlink:href="../select"
      xlink:title="select">
      <rect x="431" y="771" width="58" height="32"/>
      <rect x="429" y="769" width="58" height="32" class="nonterminal"/>
      <text class="nonterminal" x="439" y="789">select</text>
   </a>
   <a xmlns:xlink="http://www.w3.org/1999/xlink"
      xlink:href="../values"
      xlink:title="values">
      <rect x="431" y="815" width="60" height="32"/>
      <rect x="429" y="813" width="60" height="32" class="nonterminal"/>
      <text class="nonterminal" x="439" y="833">values</text>
   </a>
   <rect x="531" y="771" width="26" height="32" rx="10"/>
   <rect x="529"
         y="769"
         width="26"
         height="32"
         class="terminal"
         rx="10"/>
   <text class="terminal" x="539" y="789">)</text>
   <rect x="91" y="891" width="48" height="32" rx="10"/>
   <rect x="89"
         y="889"
         width="48"
         height="32"
         class="terminal"
         rx="10"/>
   <text class="terminal" x="99" y="909">NOT</text>
   <rect x="179" y="859" width="70" height="32" rx="10"/>
   <rect x="177"
         y="857"
         width="70"
         height="32"
         class="terminal"
         rx="10"/>
   <text class="terminal" x="187" y="877">EXISTS</text>
   <rect x="269" y="859" width="26" height="32" rx="10"/>
   <rect x="267"
         y="857"
         width="26"
         height="32"
         class="terminal"
         rx="10"/>
   <text class="terminal" x="277" y="877">(</text>
   <a xmlns:xlink="http://www.w3.org/1999/xlink"
      xlink:href="../select"
      xlink:title="select">
      <rect x="335" y="859" width="58" height="32"/>
      <rect x="333" y="857" width="58" height="32" class="nonterminal"/>
      <text class="nonterminal" x="343" y="877">select</text>
   </a>
   <a xmlns:xlink="http://www.w3.org/1999/xlink"
      xlink:href="../values"
      xlink:title="values">
      <rect x="335" y="903" width="60" height="32"/>
      <rect x="333" y="901" width="60" height="32" class="nonterminal"/>
      <text class="nonterminal" x="343" y="921">values</text>
   </a>
   <rect x="71" y="947" width="26" height="32" rx="10"/>
   <rect x="69"
         y="945"
         width="26"
         height="32"
         class="terminal"
         rx="10"/>
   <text class="terminal" x="79" y="965">(</text>
   <a xmlns:xlink="http://www.w3.org/1999/xlink"
      xlink:href="../select"
      xlink:title="select">
      <rect x="137" y="947" width="58" height="32"/>
      <rect x="135" y="945" width="58" height="32" class="nonterminal"/>
      <text class="nonterminal" x="145" y="965">select</text>
   </a>
   <a xmlns:xlink="http://www.w3.org/1999/xlink"
      xlink:href="../values"
      xlink:title="values">
      <rect x="137" y="991" width="60" height="32"/>
      <rect x="135" y="989" width="60" height="32" class="nonterminal"/>
      <text class="nonterminal" x="145" y="1009">values</text>
   </a>
   <a xmlns:xlink="http://www.w3.org/1999/xlink"
      xlink:href="#expression"
      xlink:title="expression">
      <rect x="157" y="1079" width="90" height="32"/>
      <rect x="155" y="1077" width="90" height="32" class="nonterminal"/>
      <text class="nonterminal" x="165" y="1097">expression</text>
   </a>
   <rect x="157" y="1035" width="24" height="32" rx="10"/>
   <rect x="155"
         y="1033"
         width="24"
         height="32"
         class="terminal"
         rx="10"/>
   <text class="terminal" x="165" y="1053">,</text>
   <rect x="455" y="859" width="26" height="32" rx="10"/>
   <rect x="453"
         y="857"
         width="26"
         height="32"
         class="terminal"
         rx="10"/>
   <text class="terminal" x="463" y="877">)</text>
   <a xmlns:xlink="http://www.w3.org/1999/xlink"
      xlink:href="#literal"
      xlink:title="literal">
      <rect x="51" y="1123" width="56" height="32"/>
      <rect x="49" y="1121" width="56" height="32" class="nonterminal"/>
      <text class="nonterminal" x="59" y="1141">literal</text>
   </a>
   <a xmlns:xlink="http://www.w3.org/1999/xlink"
      xlink:href="../cast"
      xlink:title="cast">
      <rect x="51" y="1167" width="46" height="32"/>
      <rect x="49" y="1165" width="46" height="32" class="nonterminal"/>
      <text class="nonterminal" x="59" y="1185">cast</text>
   </a>
   <rect x="51" y="1211" width="48" height="32" rx="10"/>
   <rect x="49"
         y="1209"
         width="48"
         height="32"
         class="terminal"
         rx="10"/>
   <text class="terminal" x="59" y="1229">NOT</text>
   <a xmlns:xlink="http://www.w3.org/1999/xlink"
      xlink:href="#expression"
      xlink:title="expression">
      <rect x="119" y="1211" width="90" height="32"/>
      <rect x="117" y="1209" width="90" height="32" class="nonterminal"/>
      <text class="nonterminal" x="127" y="1229">expression</text>
   </a>
   <path class="line"
         d="m17 17 h2 m40 0 h10 m0 0 h106 m-136 0 h20 m116 0 h20 m-156 0 q10 0 10 10 m136 0 q0 -10 10 -10 m-146 10 v12 m136 0 v-12 m-136 12 q0 10 10 10 m116 0 q10 0 10 -10 m-126 10 h10 m52 0 h10 m0 0 h10 m24 0 h10 m20 -32 h10 m64 0 h10 m0 0 h452 m-712 0 h20 m692 0 h20 m-732 0 q10 0 10 10 m712 0 q0 -10 10 -10 m-722 10 v56 m712 0 v-56 m-712 56 q0 10 10 10 m692 0 q10 0 10 -10 m-702 10 h10 m90 0 h10 m20 0 h10 m36 0 h10 m20 0 h10 m0 0 h58 m-88 0 h20 m68 0 h20 m-108 0 q10 0 10 10 m88 0 q0 -10 10 -10 m-98 10 v12 m88 0 v-12 m-88 12 q0 10 10 10 m68 0 q10 0 10 -10 m-78 10 h10 m48 0 h10 m20 -32 h10 m56 0 h10 m0 0 h302 m-562 0 h20 m542 0 h20 m-582 0 q10 0 10 10 m562 0 q0 -10 10 -10 m-572 10 v56 m562 0 v-56 m-562 56 q0 10 10 10 m542 0 q10 0 10 -10 m-532 10 h10 m40 0 h10 m0 0 h8 m-88 0 h20 m68 0 h20 m-108 0 q10 0 10 10 m88 0 q0 -10 10 -10 m-98 10 v24 m88 0 v-24 m-88 24 q0 10 10 10 m68 0 q10 0 10 -10 m-78 10 h10 m48 0 h10 m-78 -10 v20 m88 0 v-20 m-88 20 v24 m88 0 v-24 m-88 24 q0 10 10 10 m68 0 q10 0 10 -10 m-78 10 h10 m28 0 h10 m0 0 h20 m-78 -10 v20 m88 0 v-20 m-88 20 v24 m88 0 v-24 m-88 24 q0 10 10 10 m68 0 q10 0 10 -10 m-78 10 h10 m28 0 h10 m0 0 h20 m-78 -10 v20 m88 0 v-20 m-88 20 v24 m88 0 v-24 m-88 24 q0 10 10 10 m68 0 q10 0 10 -10 m-78 10 h10 m30 0 h10 m0 0 h18 m-78 -10 v20 m88 0 v-20 m-88 20 v24 m88 0 v-24 m-88 24 q0 10 10 10 m68 0 q10 0 10 -10 m-78 10 h10 m26 0 h10 m0 0 h22 m-78 -10 v20 m88 0 v-20 m-88 20 v24 m88 0 v-24 m-88 24 q0 10 10 10 m68 0 q10 0 10 -10 m-78 10 h10 m30 0 h10 m0 0 h18 m-78 -10 v20 m88 0 v-20 m-88 20 v24 m88 0 v-24 m-88 24 q0 10 10 10 m68 0 q10 0 10 -10 m-78 10 h10 m30 0 h10 m0 0 h18 m-78 -10 v20 m88 0 v-20 m-88 20 v24 m88 0 v-24 m-88 24 q0 10 10 10 m68 0 q10 0 10 -10 m-78 10 h10 m30 0 h10 m0 0 h18 m-78 -10 v20 m88 0 v-20 m-88 20 v24 m88 0 v-24 m-88 24 q0 10 10 10 m68 0 q10 0 10 -10 m-78 10 h10 m40 0 h10 m0 0 h8 m-78 -10 v20 m88 0 v-20 m-88 20 v24 m88 0 v-24 m-88 24 q0 10 10 10 m68 0 q10 0 10 -10 m-78 10 h10 m40 0 h10 m0 0 h8 m-78 -10 v20 m88 0 v-20 m-88 20 v24 m88 0 v-24 m-88 24 q0 10 10 10 m68 0 q10 0 10 -10 m-78 10 h10 m40 0 h10 m0 0 h8 m-78 -10 v20 m88 0 v-20 m-88 20 v24 m88 0 v-24 m-88 24 q0 10 10 10 m68 0 q10 0 10 -10 m-78 10 h10 m34 0 h10 m0 0 h14 m20 -528 h10 m90 0 h10 m0 0 h324 m-552 -10 v20 m562 0 v-20 m-562 20 v552 m562 0 v-552 m-562 552 q0 10 10 10 m542 0 q10 0 10 -10 m-532 10 h10 m0 0 h58 m-88 0 h20 m68 0 h20 m-108 0 q10 0 10 10 m88 0 q0 -10 10 -10 m-98 10 v12 m88 0 v-12 m-88 12 q0 10 10 10 m68 0 q10 0 10 -10 m-78 10 h10 m48 0 h10 m40 -32 h10 m86 0 h10 m0 0 h10 m90 0 h10 m0 0 h10 m48 0 h10 m0 0 h10 m90 0 h10 m-414 0 h20 m394 0 h20 m-434 0 q10 0 10 10 m414 0 q0 -10 10 -10 m-424 10 v24 m414 0 v-24 m-414 24 q0 10 10 10 m394 0 q10 0 10 -10 m-404 10 h10 m36 0 h10 m0 0 h10 m26 0 h10 m20 0 h10 m58 0 h10 m0 0 h2 m-100 0 h20 m80 0 h20 m-120 0 q10 0 10 10 m100 0 q0 -10 10 -10 m-110 10 v24 m100 0 v-24 m-100 24 q0 10 10 10 m80 0 q10 0 10 -10 m-90 10 h10 m60 0 h10 m20 -44 h10 m26 0 h10 m0 0 h126 m-662 -702 v20 m712 0 v-20 m-712 20 v760 m712 0 v-760 m-712 760 q0 10 10 10 m692 0 q10 0 10 -10 m-662 10 h10 m0 0 h58 m-88 0 h20 m68 0 h20 m-108 0 q10 0 10 10 m88 0 q0 -10 10 -10 m-98 10 v12 m88 0 v-12 m-88 12 q0 10 10 10 m68 0 q10 0 10 -10 m-78 10 h10 m48 0 h10 m20 -32 h10 m70 0 h10 m0 0 h10 m26 0 h10 m20 0 h10 m58 0 h10 m0 0 h2 m-100 0 h20 m80 0 h20 m-120 0 q10 0 10 10 m100 0 q0 -10 10 -10 m-110 10 v24 m100 0 v-24 m-100 24 q0 10 10 10 m80 0 q10 0 10 -10 m-90 10 h10 m60 0 h10 m-364 -44 h20 m364 0 h20 m-404 0 q10 0 10 10 m384 0 q0 -10 10 -10 m-394 10 v68 m384 0 v-68 m-384 68 q0 10 10 10 m364 0 q10 0 10 -10 m-374 10 h10 m26 0 h10 m20 0 h10 m58 0 h10 m0 0 h72 m-170 0 h20 m150 0 h20 m-190 0 q10 0 10 10 m170 0 q0 -10 10 -10 m-180 10 v24 m170 0 v-24 m-170 24 q0 10 10 10 m150 0 q10 0 10 -10 m-160 10 h10 m60 0 h10 m0 0 h70 m-160 -10 v20 m170 0 v-20 m-170 20 v68 m170 0 v-68 m-170 68 q0 10 10 10 m150 0 q10 0 10 -10 m-140 10 h10 m90 0 h10 m-130 0 l20 0 m-1 0 q-9 0 -9 -10 l0 -24 q0 -10 10 -10 m110 44 l20 0 m-20 0 q10 0 10 -10 l0 -24 q0 -10 -10 -10 m-110 0 h10 m24 0 h10 m0 0 h66 m40 -88 h128 m20 -88 h10 m26 0 h10 m0 0 h242 m-702 -10 v20 m712 0 v-20 m-712 20 v244 m712 0 v-244 m-712 244 q0 10 10 10 m692 0 q10 0 10 -10 m-702 10 h10 m56 0 h10 m0 0 h616 m-702 -10 v20 m712 0 v-20 m-712 20 v24 m712 0 v-24 m-712 24 q0 10 10 10 m692 0 q10 0 10 -10 m-702 10 h10 m46 0 h10 m0 0 h626 m-702 -10 v20 m712 0 v-20 m-712 20 v24 m712 0 v-24 m-712 24 q0 10 10 10 m692 0 q10 0 10 -10 m-702 10 h10 m48 0 h10 m0 0 h10 m90 0 h10 m0 0 h514 m23 -1208 h-3"/>
   <polygon points="761 17 769 13 769 21"/>
   <polygon points="761 17 753 13 753 21"/>
</svg>
