<?xml version="1.0" encoding="UTF-8"?>
<svg xmlns="http://www.w3.org/2000/svg" width="917" height="1487" viewBox="0 0 917 1487">
   <defs>
      <style type="text/css">
    @namespace "http://www.w3.org/2000/svg";
    .line                 {fill: none; stroke: #330000; stroke-width: 1;}
    .bold-line            {stroke: #140000; shape-rendering: crispEdges; stroke-width: 2;}
    .thin-line            {stroke: #1F0000; shape-rendering: crispEdges}
    .filled               {fill: #330000; stroke: none;}
    text.terminal         {font-family: Verdana, Sans-serif;
                            font-size: 12px;
                            fill: #140000;
                            font-weight: bold;
                          }
    text.nonterminal      {font-family: Verdana, Sans-serif;
                            font-size: 12px;
                            fill: #1A0000;
                            font-weight: normal;
                          }
    text.regexp           {font-family: Verdana, Sans-serif;
                            font-size: 12px;
                            fill: #1F0000;
                            font-weight: normal;
                          }
    rect, circle, polygon {fill: #330000; stroke: #330000;}
    rect.terminal         {fill: #FF4D4D; stroke: #330000; stroke-width: 1;}
    rect.nonterminal      {fill: #FF9E9E; stroke: #330000; stroke-width: 1;}
    rect.text             {fill: none; stroke: none;}
    polygon.regexp        {fill: #FFC7C7; stroke: #330000; stroke-width: 1;}
  </style>
   </defs>
   <polygon points="9 51 1 47 1 55"/>
   <polygon points="17 51 9 47 9 55"/>
   <rect x="71" y="3" width="48" height="32" rx="10"/>
   <rect x="69"
         y="1"
         width="48"
         height="32"
         class="terminal"
         rx="10"/>
   <text class="terminal" x="79" y="21">NOT</text>
   <a xmlns:xlink="http://www.w3.org/1999/xlink"
      xlink:href="../object"
      xlink:title="table">
      <rect x="199" y="69" width="52" height="32"/>
      <rect x="197" y="67" width="52" height="32" class="nonterminal"/>
      <text class="nonterminal" x="207" y="87">table</text>
   </a>
   <rect x="271" y="69" width="24" height="32" rx="10"/>
   <rect x="269"
         y="67"
         width="24"
         height="32"
         class="terminal"
         rx="10"/>
   <text class="terminal" x="279" y="87">.</text>
   <a xmlns:xlink="http://www.w3.org/1999/xlink"
      xlink:href="../object"
      xlink:title="column">
      <rect x="335" y="37" width="64" height="32"/>
      <rect x="333" y="35" width="64" height="32" class="nonterminal"/>
      <text class="nonterminal" x="343" y="55">column</text>
   </a>
   <a xmlns:xlink="http://www.w3.org/1999/xlink"
      xlink:href="#literal"
      xlink:title="literal">
      <rect x="179" y="113" width="56" height="32"/>
      <rect x="177" y="111" width="56" height="32" class="nonterminal"/>
      <text class="nonterminal" x="187" y="131">literal</text>
   </a>
   <a xmlns:xlink="http://www.w3.org/1999/xlink"
      xlink:href="../case"
      xlink:title="case">
      <rect x="179" y="157" width="48" height="32"/>
      <rect x="177" y="155" width="48" height="32" class="nonterminal"/>
      <text class="nonterminal" x="187" y="175">case</text>
   </a>
   <a xmlns:xlink="http://www.w3.org/1999/xlink"
      xlink:href="../cast"
      xlink:title="cast">
      <rect x="179" y="201" width="46" height="32"/>
      <rect x="177" y="199" width="46" height="32" class="nonterminal"/>
      <text class="nonterminal" x="187" y="219">cast</text>
   </a>
   <a xmlns:xlink="http://www.w3.org/1999/xlink"
      xlink:href="../current_date"
      xlink:title="current_date">
      <rect x="179" y="245" width="102" height="32"/>
      <rect x="177" y="243" width="102" height="32" class="nonterminal"/>
      <text class="nonterminal" x="187" y="263">current_date</text>
   </a>
   <a xmlns:xlink="http://www.w3.org/1999/xlink"
      xlink:href="../substr"
      xlink:title="substr">
      <rect x="179" y="289" width="60" height="32"/>
      <rect x="177" y="287" width="60" height="32" class="nonterminal"/>
      <text class="nonterminal" x="187" y="307">substr</text>
   </a>
   <a xmlns:xlink="http://www.w3.org/1999/xlink"
      xlink:href="../to_char"
      xlink:title="to_char">
      <rect x="179" y="333" width="68" height="32"/>
      <rect x="177" y="331" width="68" height="32" class="nonterminal"/>
      <text class="nonterminal" x="187" y="351">to_char</text>
   </a>
   <a xmlns:xlink="http://www.w3.org/1999/xlink"
      xlink:href="../to_date"
      xlink:title="to_date">
      <rect x="179" y="377" width="70" height="32"/>
      <rect x="177" y="375" width="70" height="32" class="nonterminal"/>
      <text class="nonterminal" x="187" y="395">to_date</text>
   </a>
   <a xmlns:xlink="http://www.w3.org/1999/xlink"
      xlink:href="../trim"
      xlink:title="trim">
      <rect x="179" y="421" width="44" height="32"/>
      <rect x="177" y="419" width="44" height="32" class="nonterminal"/>
      <text class="nonterminal" x="187" y="439">trim</text>
   </a>
   <rect x="199" y="497" width="48" height="32" rx="10"/>
   <rect x="197"
         y="495"
         width="48"
         height="32"
         class="terminal"
         rx="10"/>
   <text class="terminal" x="207" y="515">NOT</text>
   <rect x="287" y="465" width="70" height="32" rx="10"/>
   <rect x="285"
         y="463"
         width="70"
         height="32"
         class="terminal"
         rx="10"/>
   <text class="terminal" x="295" y="483">EXISTS</text>
   <rect x="377" y="465" width="26" height="32" rx="10"/>
   <rect x="375"
         y="463"
         width="26"
         height="32"
         class="terminal"
         rx="10"/>
   <text class="terminal" x="385" y="483">(</text>
   <a xmlns:xlink="http://www.w3.org/1999/xlink"
      xlink:href="../select"
      xlink:title="select">
      <rect x="443" y="465" width="58" height="32"/>
      <rect x="441" y="463" width="58" height="32" class="nonterminal"/>
      <text class="nonterminal" x="451" y="483">select</text>
   </a>
   <a xmlns:xlink="http://www.w3.org/1999/xlink"
      xlink:href="../values"
      xlink:title="values">
      <rect x="443" y="509" width="60" height="32"/>
      <rect x="441" y="507" width="60" height="32" class="nonterminal"/>
      <text class="nonterminal" x="451" y="527">values</text>
   </a>
   <rect x="543" y="465" width="26" height="32" rx="10"/>
   <rect x="541"
         y="463"
         width="26"
         height="32"
         class="terminal"
         rx="10"/>
   <text class="terminal" x="551" y="483">)</text>
   <rect x="179" y="553" width="26" height="32" rx="10"/>
   <rect x="177"
         y="551"
         width="26"
         height="32"
         class="terminal"
         rx="10"/>
   <text class="terminal" x="187" y="571">(</text>
   <a xmlns:xlink="http://www.w3.org/1999/xlink"
      xlink:href="../select"
      xlink:title="select">
      <rect x="245" y="553" width="58" height="32"/>
      <rect x="243" y="551" width="58" height="32" class="nonterminal"/>
      <text class="nonterminal" x="253" y="571">select</text>
   </a>
   <a xmlns:xlink="http://www.w3.org/1999/xlink"
      xlink:href="../values"
      xlink:title="values">
      <rect x="245" y="597" width="60" height="32"/>
      <rect x="243" y="595" width="60" height="32" class="nonterminal"/>
      <text class="nonterminal" x="253" y="615">values</text>
   </a>
   <rect x="345" y="553" width="26" height="32" rx="10"/>
   <rect x="343"
         y="551"
         width="26"
         height="32"
         class="terminal"
         rx="10"/>
   <text class="terminal" x="353" y="571">)</text>
   <rect x="179" y="685" width="26" height="32" rx="10"/>
   <rect x="177"
         y="683"
         width="26"
         height="32"
         class="terminal"
         rx="10"/>
   <text class="terminal" x="187" y="703">(</text>
   <a xmlns:xlink="http://www.w3.org/1999/xlink"
      xlink:href="#expression"
      xlink:title="expression">
      <rect x="245" y="685" width="90" height="32"/>
      <rect x="243" y="683" width="90" height="32" class="nonterminal"/>
      <text class="nonterminal" x="253" y="703">expression</text>
   </a>
   <rect x="245" y="641" width="24" height="32" rx="10"/>
   <rect x="243"
         y="639"
         width="24"
         height="32"
         class="terminal"
         rx="10"/>
   <text class="terminal" x="253" y="659">,</text>
   <rect x="375" y="685" width="26" height="32" rx="10"/>
   <rect x="373"
         y="683"
         width="26"
         height="32"
         class="terminal"
         rx="10"/>
   <text class="terminal" x="383" y="703">)</text>
   <rect x="629" y="69" width="36" height="32" rx="10"/>
   <rect x="627"
         y="67"
         width="36"
         height="32"
         class="terminal"
         rx="10"/>
   <text class="terminal" x="637" y="87">IS</text>
   <rect x="705" y="101" width="48" height="32" rx="10"/>
   <rect x="703"
         y="99"
         width="48"
         height="32"
         class="terminal"
         rx="10"/>
   <text class="terminal" x="713" y="119">NOT</text>
   <rect x="793" y="69" width="56" height="32" rx="10"/>
   <rect x="791"
         y="67"
         width="56"
         height="32"
         class="terminal"
         rx="10"/>
   <text class="terminal" x="801" y="87">NULL</text>
   <a xmlns:xlink="http://www.w3.org/1999/xlink"
      xlink:href="#expression"
      xlink:title="expression">
      <rect x="51" y="729" width="90" height="32"/>
      <rect x="49" y="727" width="90" height="32" class="nonterminal"/>
      <text class="nonterminal" x="59" y="747">expression</text>
   </a>
   <rect x="201" y="761" width="48" height="32" rx="10"/>
   <rect x="199"
         y="759"
         width="48"
         height="32"
         class="terminal"
         rx="10"/>
   <text class="terminal" x="209" y="779">NOT</text>
   <rect x="289" y="729" width="86" height="32" rx="10"/>
   <rect x="287"
         y="727"
         width="86"
         height="32"
         class="terminal"
         rx="10"/>
   <text class="terminal" x="297" y="747">BETWEEN</text>
   <a xmlns:xlink="http://www.w3.org/1999/xlink"
      xlink:href="#expression"
      xlink:title="expression">
      <rect x="395" y="729" width="90" height="32"/>
      <rect x="393" y="727" width="90" height="32" class="nonterminal"/>
      <text class="nonterminal" x="403" y="747">expression</text>
   </a>
   <rect x="505" y="729" width="48" height="32" rx="10"/>
   <rect x="503"
         y="727"
         width="48"
         height="32"
         class="terminal"
         rx="10"/>
   <text class="terminal" x="513" y="747">AND</text>
   <rect x="181" y="805" width="30" height="32" rx="10"/>
   <rect x="179"
         y="803"
         width="30"
         height="32"
         class="terminal"
         rx="10"/>
   <text class="terminal" x="189" y="823">+</text>
   <rect x="181" y="849" width="26" height="32" rx="10"/>
   <rect x="179"
         y="847"
         width="26"
         height="32"
         class="terminal"
         rx="10"/>
   <text class="terminal" x="189" y="867">-</text>
   <rect x="181" y="893" width="28" height="32" rx="10"/>
   <rect x="179"
         y="891"
         width="28"
         height="32"
         class="terminal"
         rx="10"/>
   <text class="terminal" x="189" y="911">*</text>
   <rect x="181" y="937" width="28" height="32" rx="10"/>
   <rect x="179"
         y="935"
         width="28"
         height="32"
         class="terminal"
         rx="10"/>
   <text class="terminal" x="189" y="955">/</text>
   <rect x="181" y="981" width="40" height="32" rx="10"/>
   <rect x="179"
         y="979"
         width="40"
         height="32"
         class="terminal"
         rx="10"/>
   <text class="terminal" x="189" y="999">&lt;&gt;</text>
   <rect x="181" y="1025" width="34" height="32" rx="10"/>
   <rect x="179"
         y="1023"
         width="34"
         height="32"
         class="terminal"
         rx="10"/>
   <text class="terminal" x="189" y="1043">!=</text>
   <rect x="181" y="1069" width="40" height="32" rx="10"/>
   <rect x="179"
         y="1067"
         width="40"
         height="32"
         class="terminal"
         rx="10"/>
   <text class="terminal" x="189" y="1087">&gt;=</text>
   <rect x="181" y="1113" width="30" height="32" rx="10"/>
   <rect x="179"
         y="1111"
         width="30"
         height="32"
         class="terminal"
         rx="10"/>
   <text class="terminal" x="189" y="1131">&gt;</text>
   <rect x="181" y="1157" width="40" height="32" rx="10"/>
   <rect x="179"
         y="1155"
         width="40"
         height="32"
         class="terminal"
         rx="10"/>
   <text class="terminal" x="189" y="1175">&lt;=</text>
   <rect x="181" y="1201" width="30" height="32" rx="10"/>
   <rect x="179"
         y="1199"
         width="30"
         height="32"
         class="terminal"
         rx="10"/>
   <text class="terminal" x="189" y="1219">&lt;</text>
   <rect x="181" y="1245" width="30" height="32" rx="10"/>
   <rect x="179"
         y="1243"
         width="30"
         height="32"
         class="terminal"
         rx="10"/>
   <text class="terminal" x="189" y="1263">=</text>
   <rect x="201" y="1321" width="48" height="32" rx="10"/>
   <rect x="199"
         y="1319"
         width="48"
         height="32"
         class="terminal"
         rx="10"/>
   <text class="terminal" x="209" y="1339">NOT</text>
   <rect x="289" y="1289" width="36" height="32" rx="10"/>
   <rect x="287"
         y="1287"
         width="36"
         height="32"
         class="terminal"
         rx="10"/>
   <text class="terminal" x="297" y="1307">IN</text>
   <rect x="181" y="1365" width="32" height="32" rx="10"/>
   <rect x="179"
         y="1363"
         width="32"
         height="32"
         class="terminal"
         rx="10"/>
   <text class="terminal" x="189" y="1383">||</text>
   <rect x="181" y="1409" width="48" height="32" rx="10"/>
   <rect x="179"
         y="1407"
         width="48"
         height="32"
         class="terminal"
         rx="10"/>
   <text class="terminal" x="189" y="1427">AND</text>
   <rect x="181" y="1453" width="40" height="32" rx="10"/>
   <rect x="179"
         y="1451"
         width="40"
         height="32"
         class="terminal"
         rx="10"/>
   <text class="terminal" x="189" y="1471">OR</text>
   <a xmlns:xlink="http://www.w3.org/1999/xlink"
      xlink:href="#expression"
      xlink:title="expression">
      <rect x="593" y="729" width="90" height="32"/>
      <rect x="591" y="727" width="90" height="32" class="nonterminal"/>
      <text class="nonterminal" x="601" y="747">expression</text>
   </a>
   <path class="line"
         d="m17 51 h2 m40 0 h10 m0 0 h58 m-88 0 l20 0 m-1 0 q-9 0 -9 -10 l0 -14 q0 -10 10 -10 m68 34 l20 0 m-20 0 q10 0 10 -10 l0 -14 q0 -10 -10 -10 m-68 0 h10 m48 0 h10 m60 34 h10 m0 0 h106 m-136 0 h20 m116 0 h20 m-156 0 q10 0 10 10 m136 0 q0 -10 10 -10 m-146 10 v12 m136 0 v-12 m-136 12 q0 10 10 10 m116 0 q10 0 10 -10 m-126 10 h10 m52 0 h10 m0 0 h10 m24 0 h10 m20 -32 h10 m64 0 h10 m0 0 h170 m-430 0 h20 m410 0 h20 m-450 0 q10 0 10 10 m430 0 q0 -10 10 -10 m-440 10 v56 m430 0 v-56 m-430 56 q0 10 10 10 m410 0 q10 0 10 -10 m-420 10 h10 m56 0 h10 m0 0 h334 m-420 -10 v20 m430 0 v-20 m-430 20 v24 m430 0 v-24 m-430 24 q0 10 10 10 m410 0 q10 0 10 -10 m-420 10 h10 m48 0 h10 m0 0 h342 m-420 -10 v20 m430 0 v-20 m-430 20 v24 m430 0 v-24 m-430 24 q0 10 10 10 m410 0 q10 0 10 -10 m-420 10 h10 m46 0 h10 m0 0 h344 m-420 -10 v20 m430 0 v-20 m-430 20 v24 m430 0 v-24 m-430 24 q0 10 10 10 m410 0 q10 0 10 -10 m-420 10 h10 m102 0 h10 m0 0 h288 m-420 -10 v20 m430 0 v-20 m-430 20 v24 m430 0 v-24 m-430 24 q0 10 10 10 m410 0 q10 0 10 -10 m-420 10 h10 m60 0 h10 m0 0 h330 m-420 -10 v20 m430 0 v-20 m-430 20 v24 m430 0 v-24 m-430 24 q0 10 10 10 m410 0 q10 0 10 -10 m-420 10 h10 m68 0 h10 m0 0 h322 m-420 -10 v20 m430 0 v-20 m-430 20 v24 m430 0 v-24 m-430 24 q0 10 10 10 m410 0 q10 0 10 -10 m-420 10 h10 m70 0 h10 m0 0 h320 m-420 -10 v20 m430 0 v-20 m-430 20 v24 m430 0 v-24 m-430 24 q0 10 10 10 m410 0 q10 0 10 -10 m-420 10 h10 m44 0 h10 m0 0 h346 m-420 -10 v20 m430 0 v-20 m-430 20 v24 m430 0 v-24 m-430 24 q0 10 10 10 m410 0 q10 0 10 -10 m-400 10 h10 m0 0 h58 m-88 0 h20 m68 0 h20 m-108 0 q10 0 10 10 m88 0 q0 -10 10 -10 m-98 10 v12 m88 0 v-12 m-88 12 q0 10 10 10 m68 0 q10 0 10 -10 m-78 10 h10 m48 0 h10 m20 -32 h10 m70 0 h10 m0 0 h10 m26 0 h10 m20 0 h10 m58 0 h10 m0 0 h2 m-100 0 h20 m80 0 h20 m-120 0 q10 0 10 10 m100 0 q0 -10 10 -10 m-110 10 v24 m100 0 v-24 m-100 24 q0 10 10 10 m80 0 q10 0 10 -10 m-90 10 h10 m60 0 h10 m20 -44 h10 m26 0 h10 m-420 -10 v20 m430 0 v-20 m-430 20 v68 m430 0 v-68 m-430 68 q0 10 10 10 m410 0 q10 0 10 -10 m-420 10 h10 m26 0 h10 m20 0 h10 m58 0 h10 m0 0 h2 m-100 0 h20 m80 0 h20 m-120 0 q10 0 10 10 m100 0 q0 -10 10 -10 m-110 10 v24 m100 0 v-24 m-100 24 q0 10 10 10 m80 0 q10 0 10 -10 m-90 10 h10 m60 0 h10 m20 -44 h10 m26 0 h10 m0 0 h198 m-420 -10 v20 m430 0 v-20 m-430 20 v112 m430 0 v-112 m-430 112 q0 10 10 10 m410 0 q10 0 10 -10 m-420 10 h10 m26 0 h10 m20 0 h10 m90 0 h10 m-130 0 l20 0 m-1 0 q-9 0 -9 -10 l0 -24 q0 -10 10 -10 m110 44 l20 0 m-20 0 q10 0 10 -10 l0 -24 q0 -10 -10 -10 m-110 0 h10 m24 0 h10 m0 0 h66 m20 44 h10 m26 0 h10 m0 0 h168 m40 -648 h10 m0 0 h230 m-260 0 h20 m240 0 h20 m-280 0 q10 0 10 10 m260 0 q0 -10 10 -10 m-270 10 v12 m260 0 v-12 m-260 12 q0 10 10 10 m240 0 q10 0 10 -10 m-250 10 h10 m36 0 h10 m20 0 h10 m0 0 h58 m-88 0 h20 m68 0 h20 m-108 0 q10 0 10 10 m88 0 q0 -10 10 -10 m-98 10 v12 m88 0 v-12 m-88 12 q0 10 10 10 m68 0 q10 0 10 -10 m-78 10 h10 m48 0 h10 m20 -32 h10 m56 0 h10 m-838 -32 h20 m838 0 h20 m-878 0 q10 0 10 10 m858 0 q0 -10 10 -10 m-868 10 v672 m858 0 v-672 m-858 672 q0 10 10 10 m838 0 q10 0 10 -10 m-848 10 h10 m90 0 h10 m40 0 h10 m0 0 h58 m-88 0 h20 m68 0 h20 m-108 0 q10 0 10 10 m88 0 q0 -10 10 -10 m-98 10 v12 m88 0 v-12 m-88 12 q0 10 10 10 m68 0 q10 0 10 -10 m-78 10 h10 m48 0 h10 m20 -32 h10 m86 0 h10 m0 0 h10 m90 0 h10 m0 0 h10 m48 0 h10 m-412 0 h20 m392 0 h20 m-432 0 q10 0 10 10 m412 0 q0 -10 10 -10 m-422 10 v56 m412 0 v-56 m-412 56 q0 10 10 10 m392 0 q10 0 10 -10 m-402 10 h10 m30 0 h10 m0 0 h342 m-402 -10 v20 m412 0 v-20 m-412 20 v24 m412 0 v-24 m-412 24 q0 10 10 10 m392 0 q10 0 10 -10 m-402 10 h10 m26 0 h10 m0 0 h346 m-402 -10 v20 m412 0 v-20 m-412 20 v24 m412 0 v-24 m-412 24 q0 10 10 10 m392 0 q10 0 10 -10 m-402 10 h10 m28 0 h10 m0 0 h344 m-402 -10 v20 m412 0 v-20 m-412 20 v24 m412 0 v-24 m-412 24 q0 10 10 10 m392 0 q10 0 10 -10 m-402 10 h10 m28 0 h10 m0 0 h344 m-402 -10 v20 m412 0 v-20 m-412 20 v24 m412 0 v-24 m-412 24 q0 10 10 10 m392 0 q10 0 10 -10 m-402 10 h10 m40 0 h10 m0 0 h332 m-402 -10 v20 m412 0 v-20 m-412 20 v24 m412 0 v-24 m-412 24 q0 10 10 10 m392 0 q10 0 10 -10 m-402 10 h10 m34 0 h10 m0 0 h338 m-402 -10 v20 m412 0 v-20 m-412 20 v24 m412 0 v-24 m-412 24 q0 10 10 10 m392 0 q10 0 10 -10 m-402 10 h10 m40 0 h10 m0 0 h332 m-402 -10 v20 m412 0 v-20 m-412 20 v24 m412 0 v-24 m-412 24 q0 10 10 10 m392 0 q10 0 10 -10 m-402 10 h10 m30 0 h10 m0 0 h342 m-402 -10 v20 m412 0 v-20 m-412 20 v24 m412 0 v-24 m-412 24 q0 10 10 10 m392 0 q10 0 10 -10 m-402 10 h10 m40 0 h10 m0 0 h332 m-402 -10 v20 m412 0 v-20 m-412 20 v24 m412 0 v-24 m-412 24 q0 10 10 10 m392 0 q10 0 10 -10 m-402 10 h10 m30 0 h10 m0 0 h342 m-402 -10 v20 m412 0 v-20 m-412 20 v24 m412 0 v-24 m-412 24 q0 10 10 10 m392 0 q10 0 10 -10 m-402 10 h10 m30 0 h10 m0 0 h342 m-402 -10 v20 m412 0 v-20 m-412 20 v24 m412 0 v-24 m-412 24 q0 10 10 10 m392 0 q10 0 10 -10 m-382 10 h10 m0 0 h58 m-88 0 h20 m68 0 h20 m-108 0 q10 0 10 10 m88 0 q0 -10 10 -10 m-98 10 v12 m88 0 v-12 m-88 12 q0 10 10 10 m68 0 q10 0 10 -10 m-78 10 h10 m48 0 h10 m20 -32 h10 m36 0 h10 m0 0 h228 m-402 -10 v20 m412 0 v-20 m-412 20 v56 m412 0 v-56 m-412 56 q0 10 10 10 m392 0 q10 0 10 -10 m-402 10 h10 m32 0 h10 m0 0 h340 m-402 -10 v20 m412 0 v-20 m-412 20 v24 m412 0 v-24 m-412 24 q0 10 10 10 m392 0 q10 0 10 -10 m-402 10 h10 m48 0 h10 m0 0 h324 m-402 -10 v20 m412 0 v-20 m-412 20 v24 m412 0 v-24 m-412 24 q0 10 10 10 m392 0 q10 0 10 -10 m-402 10 h10 m40 0 h10 m0 0 h332 m20 -724 h10 m90 0 h10 m0 0 h186 m23 -692 h-3"/>
   <polygon points="907 51 915 47 915 55"/>
   <polygon points="907 51 899 47 899 55"/>
</svg>
