<?xml version="1.0" encoding="UTF-8"?>
<svg xmlns="http://www.w3.org/2000/svg" width="585" height="271" viewBox="0 0 585 271">
   <defs>
      <style type="text/css">
    @namespace "http://www.w3.org/2000/svg";
    .line                 {fill: none; stroke: #330000; stroke-width: 1;}
    .bold-line            {stroke: #140000; shape-rendering: crispEdges; stroke-width: 2;}
    .thin-line            {stroke: #1F0000; shape-rendering: crispEdges}
    .filled               {fill: #330000; stroke: none;}
    text.terminal         {font-family: Verdana, Sans-serif;
                            font-size: 12px;
                            fill: #140000;
                            font-weight: bold;
                          }
    text.nonterminal      {font-family: Verdana, Sans-serif;
                            font-size: 12px;
                            fill: #1A0000;
                            font-weight: normal;
                          }
    text.regexp           {font-family: Verdana, Sans-serif;
                            font-size: 12px;
                            fill: #1F0000;
                            font-weight: normal;
                          }
    rect, circle, polygon {fill: #330000; stroke: #330000;}
    rect.terminal         {fill: #FF4D4D; stroke: #330000; stroke-width: 1;}
    rect.nonterminal      {fill: #FF9E9E; stroke: #330000; stroke-width: 1;}
    rect.text             {fill: none; stroke: none;}
    polygon.regexp        {fill: #FFC7C7; stroke: #330000; stroke-width: 1;}
  </style>
   </defs>
   <polygon points="9 61 1 57 1 65"/>
   <polygon points="17 61 9 57 9 65"/>
   <rect x="31" y="47" width="70" height="32" rx="10"/>
   <rect x="29"
         y="45"
         width="70"
         height="32"
         class="terminal"
         rx="10"/>
   <text class="terminal" x="39" y="65">INSERT</text>
   <rect x="121" y="47" width="56" height="32" rx="10"/>
   <rect x="119"
         y="45"
         width="56"
         height="32"
         class="terminal"
         rx="10"/>
   <text class="terminal" x="129" y="65">INTO</text>
   <a xmlns:xlink="http://www.w3.org/1999/xlink"
      xlink:href="../object"
      xlink:title="table">
      <rect x="197" y="47" width="52" height="32"/>
      <rect x="195" y="45" width="52" height="32" class="nonterminal"/>
      <text class="nonterminal" x="205" y="65">table</text>
   </a>
   <rect x="289" y="47" width="26" height="32" rx="10"/>
   <rect x="287"
         y="45"
         width="26"
         height="32"
         class="terminal"
         rx="10"/>
   <text class="terminal" x="297" y="65">(</text>
   <a xmlns:xlink="http://www.w3.org/1999/xlink"
      xlink:href="../object"
      xlink:title="column">
      <rect x="355" y="47" width="64" height="32"/>
      <rect x="353" y="45" width="64" height="32" class="nonterminal"/>
      <text class="nonterminal" x="363" y="65">column</text>
   </a>
   <rect x="355" y="3" width="24" height="32" rx="10"/>
   <rect x="353"
         y="1"
         width="24"
         height="32"
         class="terminal"
         rx="10"/>
   <text class="terminal" x="363" y="21">,</text>
   <rect x="459" y="47" width="26" height="32" rx="10"/>
   <rect x="457"
         y="45"
         width="26"
         height="32"
         class="terminal"
         rx="10"/>
   <text class="terminal" x="467" y="65">)</text>
   <a xmlns:xlink="http://www.w3.org/1999/xlink"
      xlink:href="../dql"
      xlink:title="dql">
      <rect x="525" y="47" width="38" height="32"/>
      <rect x="523" y="45" width="38" height="32" class="nonterminal"/>
      <text class="nonterminal" x="533" y="65">dql</text>
   </a>
   <rect x="181" y="149" width="40" height="32" rx="10"/>
   <rect x="179"
         y="147"
         width="40"
         height="32"
         class="terminal"
         rx="10"/>
   <text class="terminal" x="189" y="167">ON</text>
   <rect x="241" y="149" width="90" height="32" rx="10"/>
   <rect x="239"
         y="147"
         width="90"
         height="32"
         class="terminal"
         rx="10"/>
   <text class="terminal" x="249" y="167">CONFLICT</text>
   <rect x="351" y="149" width="40" height="32" rx="10"/>
   <rect x="349"
         y="147"
         width="40"
         height="32"
         class="terminal"
         rx="10"/>
   <text class="terminal" x="359" y="167">DO</text>
   <rect x="431" y="149" width="86" height="32" rx="10"/>
   <rect x="429"
         y="147"
         width="86"
         height="32"
         class="terminal"
         rx="10"/>
   <text class="terminal" x="439" y="167">NOTHING</text>
   <rect x="431" y="193" width="80" height="32" rx="10"/>
   <rect x="429"
         y="191"
         width="80"
         height="32"
         class="terminal"
         rx="10"/>
   <text class="terminal" x="439" y="211">REPLACE</text>
   <rect x="431" y="237" width="52" height="32" rx="10"/>
   <rect x="429"
         y="235"
         width="52"
         height="32"
         class="terminal"
         rx="10"/>
   <text class="terminal" x="439" y="255">FAIL</text>
   <path class="line"
         d="m17 61 h2 m0 0 h10 m70 0 h10 m0 0 h10 m56 0 h10 m0 0 h10 m52 0 h10 m20 0 h10 m26 0 h10 m20 0 h10 m64 0 h10 m-104 0 l20 0 m-1 0 q-9 0 -9 -10 l0 -24 q0 -10 10 -10 m84 44 l20 0 m-20 0 q10 0 10 -10 l0 -24 q0 -10 -10 -10 m-84 0 h10 m24 0 h10 m0 0 h40 m20 44 h10 m26 0 h10 m-236 0 h20 m216 0 h20 m-256 0 q10 0 10 10 m236 0 q0 -10 10 -10 m-246 10 v14 m236 0 v-14 m-236 14 q0 10 10 10 m216 0 q10 0 10 -10 m-226 10 h10 m0 0 h206 m20 -34 h10 m38 0 h10 m2 0 l2 0 m2 0 l2 0 m2 0 l2 0 m-446 70 l2 0 m2 0 l2 0 m2 0 l2 0 m22 0 h10 m0 0 h366 m-396 0 h20 m376 0 h20 m-416 0 q10 0 10 10 m396 0 q0 -10 10 -10 m-406 10 v12 m396 0 v-12 m-396 12 q0 10 10 10 m376 0 q10 0 10 -10 m-386 10 h10 m40 0 h10 m0 0 h10 m90 0 h10 m0 0 h10 m40 0 h10 m20 0 h10 m86 0 h10 m-126 0 h20 m106 0 h20 m-146 0 q10 0 10 10 m126 0 q0 -10 10 -10 m-136 10 v24 m126 0 v-24 m-126 24 q0 10 10 10 m106 0 q10 0 10 -10 m-116 10 h10 m80 0 h10 m0 0 h6 m-116 -10 v20 m126 0 v-20 m-126 20 v24 m126 0 v-24 m-126 24 q0 10 10 10 m106 0 q10 0 10 -10 m-116 10 h10 m52 0 h10 m0 0 h34 m43 -120 h-3"/>
   <polygon points="575 131 583 127 583 135"/>
   <polygon points="575 131 567 127 567 135"/>
</svg>
