<?xml version="1.0" encoding="UTF-8"?>
<svg xmlns="http://www.w3.org/2000/svg" width="647" height="299" viewBox="0 0 647 299">
   <defs>
      <style type="text/css">
    @namespace "http://www.w3.org/2000/svg";
    .line                 {fill: none; stroke: #330000; stroke-width: 1;}
    .bold-line            {stroke: #140000; shape-rendering: crispEdges; stroke-width: 2;}
    .thin-line            {stroke: #1F0000; shape-rendering: crispEdges}
    .filled               {fill: #330000; stroke: none;}
    text.terminal         {font-family: Verdana, Sans-serif;
                            font-size: 12px;
                            fill: #140000;
                            font-weight: bold;
                          }
    text.nonterminal      {font-family: Verdana, Sans-serif;
                            font-size: 12px;
                            fill: #1A0000;
                            font-weight: normal;
                          }
    text.regexp           {font-family: Verdana, Sans-serif;
                            font-size: 12px;
                            fill: #1F0000;
                            font-weight: normal;
                          }
    rect, circle, polygon {fill: #330000; stroke: #330000;}
    rect.terminal         {fill: #FF4D4D; stroke: #330000; stroke-width: 1;}
    rect.nonterminal      {fill: #FF9E9E; stroke: #330000; stroke-width: 1;}
    rect.text             {fill: none; stroke: none;}
    polygon.regexp        {fill: #FFC7C7; stroke: #330000; stroke-width: 1;}
  </style>
      <style class="darkreader darkreader--sync" media="screen"/>
   </defs>
   <polygon points="9 61 1 57 1 65"/>
   <polygon points="17 61 9 57 9 65"/>
   <rect x="31" y="47" width="70" height="32" rx="10"/>
   <rect x="29"
         y="45"
         width="70"
         height="32"
         class="terminal"
         rx="10"/>
   <text class="terminal" x="39" y="65">INSERT</text>
   <rect x="121" y="47" width="56" height="32" rx="10"/>
   <rect x="119"
         y="45"
         width="56"
         height="32"
         class="terminal"
         rx="10"/>
   <text class="terminal" x="129" y="65">INTO</text>
   <a xmlns:xlink="http://www.w3.org/1999/xlink"
      xlink:href="../object"
      xlink:title="table">
      <rect x="197" y="47" width="52" height="32"/>
      <rect x="195" y="45" width="52" height="32" class="nonterminal"/>
      <text class="nonterminal" x="205" y="65">table</text>
   </a>
   <rect x="289" y="47" width="26" height="32" rx="10"/>
   <rect x="287"
         y="45"
         width="26"
         height="32"
         class="terminal"
         rx="10"/>
   <text class="terminal" x="297" y="65">(</text>
   <a xmlns:xlink="http://www.w3.org/1999/xlink"
      xlink:href="../object"
      xlink:title="column">
      <rect x="355" y="47" width="64" height="32"/>
      <rect x="353" y="45" width="64" height="32" class="nonterminal"/>
      <text class="nonterminal" x="363" y="65">column</text>
   </a>
   <rect x="355" y="3" width="24" height="32" rx="10"/>
   <rect x="353"
         y="1"
         width="24"
         height="32"
         class="terminal"
         rx="10"/>
   <text class="terminal" x="363" y="21">,</text>
   <rect x="459" y="47" width="26" height="32" rx="10"/>
   <rect x="457"
         y="45"
         width="26"
         height="32"
         class="terminal"
         rx="10"/>
   <text class="terminal" x="467" y="65">)</text>
   <a xmlns:xlink="http://www.w3.org/1999/xlink"
      xlink:href="../values"
      xlink:title="values">
      <rect x="545" y="47" width="60" height="32"/>
      <rect x="543" y="45" width="60" height="32" class="nonterminal"/>
      <text class="nonterminal" x="553" y="65">values</text>
   </a>
   <a xmlns:xlink="http://www.w3.org/1999/xlink"
      xlink:href="../select"
      xlink:title="select">
      <rect x="545" y="91" width="58" height="32"/>
      <rect x="543" y="89" width="58" height="32" class="nonterminal"/>
      <text class="nonterminal" x="553" y="109">select</text>
   </a>
   <rect x="243" y="177" width="40" height="32" rx="10"/>
   <rect x="241"
         y="175"
         width="40"
         height="32"
         class="terminal"
         rx="10"/>
   <text class="terminal" x="251" y="195">ON</text>
   <rect x="303" y="177" width="90" height="32" rx="10"/>
   <rect x="301"
         y="175"
         width="90"
         height="32"
         class="terminal"
         rx="10"/>
   <text class="terminal" x="311" y="195">CONFLICT</text>
   <rect x="413" y="177" width="40" height="32" rx="10"/>
   <rect x="411"
         y="175"
         width="40"
         height="32"
         class="terminal"
         rx="10"/>
   <text class="terminal" x="421" y="195">DO</text>
   <rect x="493" y="177" width="86" height="32" rx="10"/>
   <rect x="491"
         y="175"
         width="86"
         height="32"
         class="terminal"
         rx="10"/>
   <text class="terminal" x="501" y="195">NOTHING</text>
   <rect x="493" y="221" width="80" height="32" rx="10"/>
   <rect x="491"
         y="219"
         width="80"
         height="32"
         class="terminal"
         rx="10"/>
   <text class="terminal" x="501" y="239">REPLACE</text>
   <rect x="493" y="265" width="52" height="32" rx="10"/>
   <rect x="491"
         y="263"
         width="52"
         height="32"
         class="terminal"
         rx="10"/>
   <text class="terminal" x="501" y="283">FAIL</text>
   <path class="line"
         d="m17 61 h2 m0 0 h10 m70 0 h10 m0 0 h10 m56 0 h10 m0 0 h10 m52 0 h10 m20 0 h10 m26 0 h10 m20 0 h10 m64 0 h10 m-104 0 l20 0 m-1 0 q-9 0 -9 -10 l0 -24 q0 -10 10 -10 m84 44 l20 0 m-20 0 q10 0 10 -10 l0 -24 q0 -10 -10 -10 m-84 0 h10 m24 0 h10 m0 0 h40 m20 44 h10 m26 0 h10 m-236 0 h20 m216 0 h20 m-256 0 q10 0 10 10 m236 0 q0 -10 10 -10 m-246 10 v14 m236 0 v-14 m-236 14 q0 10 10 10 m216 0 q10 0 10 -10 m-226 10 h10 m0 0 h206 m40 -34 h10 m60 0 h10 m-100 0 h20 m80 0 h20 m-120 0 q10 0 10 10 m100 0 q0 -10 10 -10 m-110 10 v24 m100 0 v-24 m-100 24 q0 10 10 10 m80 0 q10 0 10 -10 m-90 10 h10 m58 0 h10 m0 0 h2 m22 -44 l2 0 m2 0 l2 0 m2 0 l2 0 m-446 98 l2 0 m2 0 l2 0 m2 0 l2 0 m22 0 h10 m0 0 h366 m-396 0 h20 m376 0 h20 m-416 0 q10 0 10 10 m396 0 q0 -10 10 -10 m-406 10 v12 m396 0 v-12 m-396 12 q0 10 10 10 m376 0 q10 0 10 -10 m-386 10 h10 m40 0 h10 m0 0 h10 m90 0 h10 m0 0 h10 m40 0 h10 m20 0 h10 m86 0 h10 m-126 0 h20 m106 0 h20 m-146 0 q10 0 10 10 m126 0 q0 -10 10 -10 m-136 10 v24 m126 0 v-24 m-126 24 q0 10 10 10 m106 0 q10 0 10 -10 m-116 10 h10 m80 0 h10 m0 0 h6 m-116 -10 v20 m126 0 v-20 m-126 20 v24 m126 0 v-24 m-126 24 q0 10 10 10 m106 0 q10 0 10 -10 m-116 10 h10 m52 0 h10 m0 0 h34 m43 -120 h-3"/>
   <polygon points="637 159 645 155 645 163"/>
   <polygon points="637 159 629 155 629 163"/>
</svg>
