<?xml version="1.0" encoding="UTF-8" standalone="no"?>
<svg
   width="435"
   height="69"
   viewBox="0 0 435 69"
   version="1.1"
   id="svg10"
   sodipodi:docname="localtimestamp.svg"
   inkscape:version="1.4 (e7c3feb100, 2024-10-09)"
   xmlns:inkscape="http://www.inkscape.org/namespaces/inkscape"
   xmlns:sodipodi="http://sodipodi.sourceforge.net/DTD/sodipodi-0.dtd"
   xmlns:xlink="http://www.w3.org/1999/xlink"
   xmlns="http://www.w3.org/2000/svg"
   xmlns:svg="http://www.w3.org/2000/svg">
  <sodipodi:namedview
     id="namedview10"
     pagecolor="#ffffff"
     bordercolor="#666666"
     borderopacity="1.0"
     inkscape:showpageshadow="2"
     inkscape:pageopacity="0.0"
     inkscape:pagecheckerboard="0"
     inkscape:deskcolor="#d1d1d1"
     inkscape:zoom="2.4942529"
     inkscape:cx="217.29954"
     inkscape:cy="34.679723"
     inkscape:window-width="1238"
     inkscape:window-height="1014"
     inkscape:window-x="112"
     inkscape:window-y="29"
     inkscape:window-maximized="0"
     inkscape:current-layer="svg10" />
  <defs
     id="defs1">
    <style
       type="text/css"
       id="style1">@namespace &quot;http://www.w3.org/2000/svg&quot;;.line { fill: none; stroke: #330000; stroke-width: 1; }
.bold-line { stroke: #140000; shape-rendering: crispEdges; stroke-width: 2; }
.thin-line { stroke: #1F0000; shape-rendering: crispEdges }
.filled { fill: #330000; stroke: none; }
text.terminal { font-family: Verdana, Sans-serif;                            font-size: 12px;                            fill: #140000;                            font-weight: bold; }
text.nonterminal { font-family: Verdana, Sans-serif;                            font-size: 12px;                            fill: #1A0000;                            font-weight: normal; }
text.regexp { font-family: Verdana, Sans-serif;                            font-size: 12px;                            fill: #1F0000;                            font-weight: normal; }
rect, circle, polygon { fill: #330000; stroke: #330000; }
rect.terminal { fill: #FF4D4D; stroke: #330000; stroke-width: 1; }
rect.nonterminal { fill: #FF9E9E; stroke: #330000; stroke-width: 1; }
rect.text { fill: none; stroke: none; }
polygon.regexp { fill: #FFC7C7; stroke: #330000; stroke-width: 1; }
</style>
  </defs>
  <polygon
     points="9 17 1 13 1 21"
     id="polygon1" />
  <polygon
     points="17 17 9 13 9 21"
     id="polygon2" />
  <rect
     x="31"
     y="3"
     width="146"
     height="32"
     rx="10"
     id="rect2" />
  <rect
     x="29"
     y="1"
     width="146"
     height="32"
     class="terminal"
     rx="10"
     id="rect3" />
  <text
     class="terminal"
     x="39"
     y="21"
     id="text3">LOCALTIMESTAMP</text>
  <rect
     x="217"
     y="35"
     width="26"
     height="32"
     rx="10"
     id="rect4" />
  <rect
     x="215"
     y="33"
     width="26"
     height="32"
     class="terminal"
     rx="10"
     id="rect5" />
  <text
     class="terminal"
     x="225"
     y="53"
     id="text5">(</text>
  <a
     xlink:href="../../sql_types/#unsigned"
     xlink:title="unsigned"
     id="a7">
    <rect
       x="263"
       y="35"
       width="78"
       height="32"
       id="rect6" />
    <rect
       x="261"
       y="33"
       width="78"
       height="32"
       class="nonterminal"
       id="rect7" />
    <text
       class="nonterminal"
       x="271"
       y="53"
       id="text7">unsigned</text>
  </a>
  <rect
     x="361"
     y="35"
     width="26"
     height="32"
     rx="10"
     id="rect8" />
  <rect
     x="359"
     y="33"
     width="26"
     height="32"
     class="terminal"
     rx="10"
     id="rect9" />
  <text
     class="terminal"
     x="369"
     y="53"
     id="text9">)</text>
  <path
     class="line"
     d="m17 17 h2 m0 0 h10 m146 0 h10 m20 0 h10 m0 0 h180 m-210 0 h20 m190 0 h20 m-230 0 q10 0 10 10 m210 0 q0 -10 10 -10 m-220 10 v12 m210 0 v-12 m-210 12 q0 10 10 10 m190 0 q10 0 10 -10 m-200 10 h10 m26 0 h10 m0 0 h10 m78 0 h10 m0 0 h10 m26 0 h10 m23 -32 h-3"
     id="path9" />
  <polygon
     points="425 17 433 13 433 21"
     id="polygon9" />
  <polygon
     points="425 17 417 13 417 21"
     id="polygon10" />
</svg>
