<?xml version="1.0" encoding="UTF-8" standalone="no"?>
<svg
   width="297"
   height="37"
   version="1.1"
   viewBox="0 0 297 37"
   id="svg10"
   sodipodi:docname="lower.svg"
   inkscape:version="1.3.2 (091e20ef0f, 2023-11-25)"
   xmlns:inkscape="http://www.inkscape.org/namespaces/inkscape"
   xmlns:sodipodi="http://sodipodi.sourceforge.net/DTD/sodipodi-0.dtd"
   xmlns:xlink="http://www.w3.org/1999/xlink"
   xmlns="http://www.w3.org/2000/svg"
   xmlns:svg="http://www.w3.org/2000/svg">
  <sodipodi:namedview
     id="namedview10"
     pagecolor="#ffffff"
     bordercolor="#666666"
     borderopacity="1.0"
     inkscape:showpageshadow="2"
     inkscape:pageopacity="0.0"
     inkscape:pagecheckerboard="0"
     inkscape:deskcolor="#d1d1d1"
     inkscape:zoom="0.79461279"
     inkscape:cx="147.87076"
     inkscape:cy="18.877119"
     inkscape:window-width="1858"
     inkscape:window-height="1014"
     inkscape:window-x="62"
     inkscape:window-y="29"
     inkscape:window-maximized="1"
     inkscape:current-layer="svg10" />
  <defs
     id="defs1">
    <style
       type="text/css"
       id="style1">@namespace &quot;http://www.w3.org/2000/svg&quot;;.line { fill: none; stroke: #330000; stroke-width: 1; }
.bold-line { stroke: #140000; shape-rendering: crispEdges; stroke-width: 2; }
.thin-line { stroke: #1F0000; shape-rendering: crispEdges }
.filled { fill: #330000; stroke: none; }
text.terminal { font-family: Verdana, Sans-serif;                            font-size: 12px;                            fill: #140000;                            font-weight: bold; }
text.nonterminal { font-family: Verdana, Sans-serif;                            font-size: 12px;                            fill: #1A0000;                            font-weight: normal; }
text.regexp { font-family: Verdana, Sans-serif;                            font-size: 12px;                            fill: #1F0000;                            font-weight: normal; }
rect, circle, polygon { fill: #330000; stroke: #330000; }
rect.terminal { fill: #FF4D4D; stroke: #330000; stroke-width: 1; }
rect.nonterminal { fill: #FF9E9E; stroke: #330000; stroke-width: 1; }
rect.text { fill: none; stroke: none; }
polygon.regexp { fill: #FFC7C7; stroke: #330000; stroke-width: 1; }
</style>
  </defs>
  <polygon
     points="9 17 1 13 1 21"
     id="polygon1" />
  <polygon
     points="17 17 9 13 9 21"
     id="polygon2" />
  <rect
     x="31"
     y="3"
     width="70"
     height="32"
     rx="10"
     id="rect2" />
  <rect
     x="29"
     y="1"
     width="70"
     height="32"
     class="terminal"
     rx="10"
     id="rect3" />
  <text
     class="terminal"
     x="39"
     y="21"
     id="text3">LOWER</text>
  <rect
     x="121"
     y="3"
     width="26"
     height="32"
     rx="10"
     id="rect4" />
  <rect
     x="119"
     y="1"
     width="26"
     height="32"
     class="terminal"
     rx="10"
     id="rect5" />
  <text
     class="terminal"
     x="129"
     y="21"
     id="text5">(</text>
  <a
     xlink:href="../../sql_types#text"
     xlink:title="string"
     id="a7">
    <rect
       x="167"
       y="3"
       width="56"
       height="32"
       id="rect6" />
    <rect
       x="165"
       y="1"
       width="56"
       height="32"
       class="nonterminal"
       id="rect7" />
    <text
       class="nonterminal"
       x="175"
       y="21"
       id="text7">string</text>
  </a>
  <rect
     x="243"
     y="3"
     width="26"
     height="32"
     rx="10"
     id="rect8" />
  <rect
     x="241"
     y="1"
     width="26"
     height="32"
     class="terminal"
     rx="10"
     id="rect9" />
  <text
     class="terminal"
     x="251"
     y="21"
     id="text9">)</text>
  <path
     class="line"
     d="m17 17 h2 m0 0 h10 m70 0 h10 m0 0 h10 m26 0 h10 m0 0 h10 m56 0 h10 m0 0 h10 m26 0 h10 m3 0 h-3"
     id="path9" />
  <polygon
     points="287 17 295 13 295 21"
     id="polygon9" />
  <polygon
     points="287 17 279 13 279 21"
     id="polygon10" />
</svg>
