<?xml version="1.0" encoding="UTF-8" standalone="no"?>
<svg
   width="545"
   height="167"
   version="1.1"
   id="svg22"
   sodipodi:docname="options.svg"
   inkscape:version="1.3 (0e150ed6c4, 2023-07-21)"
   xmlns:inkscape="http://www.inkscape.org/namespaces/inkscape"
   xmlns:sodipodi="http://sodipodi.sourceforge.net/DTD/sodipodi-0.dtd"
   xmlns:xlink="http://www.w3.org/1999/xlink"
   xmlns="http://www.w3.org/2000/svg"
   xmlns:svg="http://www.w3.org/2000/svg">
  <sodipodi:namedview
     id="namedview22"
     pagecolor="#ffffff"
     bordercolor="#666666"
     borderopacity="1.0"
     inkscape:showpageshadow="2"
     inkscape:pageopacity="0.0"
     inkscape:pagecheckerboard="0"
     inkscape:deskcolor="#d1d1d1"
     inkscape:zoom="1.2348624"
     inkscape:cx="272.5"
     inkscape:cy="83.815006"
     inkscape:window-width="1854"
     inkscape:window-height="1011"
     inkscape:window-x="66"
     inkscape:window-y="32"
     inkscape:window-maximized="1"
     inkscape:current-layer="svg22" />
  <defs
     id="defs1">
    <style
       type="text/css"
       id="style1">@namespace &quot;http://www.w3.org/2000/svg&quot;;.line { fill: none; stroke: #330000; stroke-width: 1; }&#10;.bold-line { stroke: #140000; shape-rendering: crispEdges; stroke-width: 2; }&#10;.thin-line { stroke: #1F0000; shape-rendering: crispEdges }&#10;.filled { fill: #330000; stroke: none; }&#10;text.terminal { font-family: HelveticaNeueCyr, Sans-serif;                            font-size: 14px;                            fill: #140000;                            font-weight: bold; }&#10;text.nonterminal { font-family: HelveticaNeueCyr, Sans-serif;                            font-size: 14px;                            fill: #1A0000;                            font-weight: normal; }&#10;text.regexp { font-family: HelveticaNeueCyr, Sans-serif;                            font-size: 14px;                            fill: #1F0000;                            font-weight: normal; }&#10;rect, circle, polygon { fill: #330000; stroke: #330000; }&#10;rect.terminal { fill: #FF4D4D; stroke: #330000; stroke-width: 1; }&#10;rect.nonterminal { fill: #FF9E9E; stroke: #330000; stroke-width: 1; }&#10;rect.text { fill: none; stroke: none; }&#10;polygon.regexp { fill: #FFC7C7; stroke: #330000; stroke-width: 1; }&#10;</style>
  </defs>
  <path
     id="polygon1"
     style="fill:#330000;stroke:#330000"
     d="M 9,17 1,13 v 8 z" />
  <path
     id="polygon2"
     style="fill:#330000;stroke:#330000"
     d="M 17,17 9,13 v 8 z" />
  <path
     id="rect2"
     style="fill:#330000;stroke:#330000"
     d="m 41,3 h 56 c 5.54,0 10,4.46 10,10 v 12 c 0,5.54 -4.46,10 -10,10 H 41 C 35.46,35 31,30.54 31,25 V 13 C 31,7.46 35.46,3 41,3 Z" />
  <path
     id="rect3"
     class="terminal"
     style="fill:#ff4d4d;stroke:#330000"
     d="m 39,1 h 56 c 5.54,0 10,4.46 10,10 v 12 c 0,5.54 -4.46,10 -10,10 H 39 C 33.46,33 29,28.54 29,23 V 11 C 29,5.46 33.46,1 39,1 Z" />
  <path
     d="m 44.474,10.794 q 2.184,0 3.528,1.456 1.358,1.442 1.358,3.78 0,2.338 -1.358,3.78 -1.344,1.428 -3.542,1.428 -2.212,0 -3.57,-1.428 -1.358,-1.442 -1.358,-3.78 0,-2.366 1.344,-3.794 1.358,-1.442 3.598,-1.442 z m -0.028,1.792 q -1.232,0 -1.974,0.924 -0.728,0.924 -0.728,2.478 0,1.61 0.728,2.52 0.728,0.91 2.002,0.924 1.246,0 1.96,-0.924 0.714,-0.924 0.714,-2.52 0,-1.568 -0.728,-2.478 -0.728,-0.924 -1.974,-0.924 z m 6.425998,-1.554 h 4.298 q 1.68,0 2.66,0.812 0.994,0.798 0.994,2.394 0,1.568 -0.98,2.38 -0.98,0.798 -2.562,0.798 h -2.24 V 21 h -2.17 z m 2.17,1.792 v 2.87 h 1.946 q 1.708,0 1.708,-1.428 0,-1.442 -1.694,-1.442 z m 14.559998,-1.792 v 1.862 h -2.996 V 21 h -2.198 v -8.106 h -2.996 v -1.862 z m 3.346001,0 V 21 h -2.198 v -9.968 z m 6.440001,-0.238 q 2.184,0 3.528,1.456 1.358,1.442 1.358,3.78 0,2.338 -1.358,3.78 -1.344,1.428 -3.542,1.428 -2.212,0 -3.57,-1.428 -1.358,-1.442 -1.358,-3.78 0,-2.366 1.344,-3.794 1.358,-1.442 3.598,-1.442 z m -0.028,1.792 q -1.232,0 -1.974,0.924 -0.728,0.924 -0.728,2.478 0,1.61 0.728,2.52 0.728,0.91 2.002,0.924 1.246,0 1.96,-0.924 0.714,-0.924 0.714,-2.52 0,-1.568 -0.728,-2.478 -0.728,-0.924 -1.974,-0.924 z M 83.771996,21 v -9.968 h 2.226 l 4.102,6.678 v -6.678 h 2.1 V 21 h -2.184 l -4.13,-6.692 V 21 Z"
     id="text3"
     class="terminal"
     style="font-weight:bold;font-size:14px;font-family:HelveticaNeueCyr, Sans-serif;fill:#140000"
     aria-label="OPTION" />
  <path
     id="rect4"
     style="fill:#330000;stroke:#330000"
     d="m 137,3 h 6 c 5.54,0 10,4.46 10,10 v 12 c 0,5.54 -4.46,10 -10,10 h -6 c -5.54,0 -10,-4.46 -10,-10 V 13 c 0,-5.54 4.46,-10 10,-10 z" />
  <path
     id="rect5"
     class="terminal"
     style="fill:#ff4d4d;stroke:#330000"
     d="m 135,1 h 6 c 5.54,0 10,4.46 10,10 v 12 c 0,5.54 -4.46,10 -10,10 h -6 c -5.54,0 -10,-4.46 -10,-10 V 11 c 0,-5.54 4.46,-10 10,-10 z" />
  <path
     d="m 139.228,10.878 q -0.812,1.624 -1.19,3.108 -0.364,1.484 -0.364,3.262 0,3.08 1.582,6.244 h -1.68 q -0.868,-1.316 -1.358,-2.954 -0.476,-1.638 -0.476,-3.248 0,-1.68 0.462,-3.388 0.476,-1.722 1.372,-3.024 z"
     id="text5"
     class="terminal"
     style="font-weight:bold;font-size:14px;font-family:HelveticaNeueCyr, Sans-serif;fill:#140000"
     aria-label="(" />
  <path
     id="rect6"
     style="fill:#330000;stroke:#330000"
     d="m 203,35 h 142 c 5.54,0 10,4.46 10,10 v 12 c 0,5.54 -4.46,10 -10,10 H 203 c -5.54,0 -10,-4.46 -10,-10 V 45 c 0,-5.54 4.46,-10 10,-10 z" />
  <path
     id="rect7"
     class="terminal"
     style="fill:#ff4d4d;stroke:#330000"
     d="m 201,33 h 142 c 5.54,0 10,4.46 10,10 v 12 c 0,5.54 -4.46,10 -10,10 H 201 c -5.54,0 -10,-4.46 -10,-10 V 43 c 0,-5.54 4.46,-10 10,-10 z" />
  <path
     d="m 200.888,43.032 h 2.282 l 2.24,7 2.268,-7 h 2.268 L 206.628,53 h -2.478 z m 17.30399,0 v 1.862 h -2.996 V 53 h -2.198 v -8.106 h -2.996 V 43.032 Z M 223.26,43.018 227.054,53 h -2.296 l -0.784,-2.226 h -3.71 L 219.452,53 h -2.24 l 3.794,-9.982 z m 0.182,6.16 -1.316,-3.71 -1.33,3.71 z m 4.43799,-6.146 h 4.718 q 1.4,0 2.282,0.63 0.896,0.616 0.896,1.876 0,0.7 -0.364,1.246 -0.364,0.532 -0.994,0.812 1.82,0.518 1.82,2.436 0,1.414 -0.952,2.198 -0.952,0.77 -2.422,0.77 h -4.984 z m 2.128,1.694 v 2.338 h 1.988 q 1.652,0 1.652,-1.162 0,-0.686 -0.448,-0.924 -0.448,-0.252 -1.204,-0.252 z m 0,3.822 v 2.716 h 2.198 q 0.854,0 1.344,-0.28 0.504,-0.28 0.504,-1.078 0,-0.812 -0.532,-1.078 -0.518,-0.28 -1.428,-0.28 z M 244.806,51.124 V 53 h -7.056 v -9.968 h 2.184 v 8.092 z m 8.722,-8.092 v 1.792 h -5.306 v 2.17 h 4.872 v 1.722 h -4.872 v 2.45 h 5.404 V 53 h -7.574 v -9.968 z m 0.63001,11.718 v -0.7 h 7 v 0.7 z m 7.966,-1.75 v -9.968 h 3.122 l 2.324,6.846 2.268,-6.846 h 3.052 V 53 h -2.058 v -7.084 l -2.45,7.084 h -1.694 l -2.478,-7.014 V 53 Z M 279.778,43.018 283.572,53 h -2.296 l -0.784,-2.226 h -3.71 L 275.97,53 h -2.24 l 3.794,-9.982 z m 0.182,6.16 -1.316,-3.71 -1.33,3.71 z m 12.6,-6.146 -3.206,4.76 3.5,5.208 h -2.618 L 288.052,49.542 285.84,53 h -2.492 l 3.514,-5.208 -3.248,-4.76 h 2.548 l 1.988,3.206 2.002,-3.206 z m 0.224,11.718 v -0.7 h 7 v 0.7 z m 8.05,-11.718 h 4.956 q 1.484,0 2.422,0.7 0.938,0.7 0.938,2.128 0,0.868 -0.42,1.526 -0.42,0.644 -1.162,0.924 1.288,0.266 1.47,2.324 0,0.07 0.028,0.434 0.028,0.364 0.056,0.588 0.028,0.21 0.07,0.518 0.042,0.308 0.126,0.518 0.084,0.21 0.196,0.308 h -2.268 q -0.112,-0.224 -0.168,-0.56 -0.056,-0.35 -0.098,-0.882 -0.042,-0.546 -0.042,-0.602 -0.112,-1.05 -0.532,-1.456 Q 306,49.094 304.95,49.094 h -1.946 V 53 h -2.17 z m 2.17,1.722 v 2.758 h 2.072 q 0.91,0 1.414,-0.28 0.518,-0.294 0.518,-1.134 0,-0.784 -0.504,-1.064 -0.49,-0.28 -1.33,-0.28 z m 12.362,-1.96 q 2.184,0 3.528,1.456 1.358,1.442 1.358,3.78 0,2.338 -1.358,3.78 -1.344,1.428 -3.542,1.428 -2.212,0 -3.57,-1.428 -1.358,-1.442 -1.358,-3.78 0,-2.366 1.344,-3.794 1.358,-1.442 3.598,-1.442 z m -0.028,1.792 q -1.232,0 -1.974,0.924 -0.728,0.924 -0.728,2.478 0,1.61 0.728,2.52 0.728,0.91 2.002,0.924 1.246,0 1.96,-0.924 0.714,-0.924 0.714,-2.52 0,-1.568 -0.728,-2.478 -0.728,-0.924 -1.974,-0.924 z m 5.488,-1.554 h 2.198 l 1.596,6.776 1.75,-6.776 h 2.058 l 1.722,6.86 1.652,-6.86 h 2.156 L 331.27,53 h -2.184 l -1.708,-6.804 -1.68,6.804 h -2.226 z M 342.344,46 h -2.072 q -0.126,-1.484 -1.89,-1.484 -0.756,0 -1.19,0.308 -0.42,0.294 -0.42,0.826 0,0.182 0.056,0.322 0.056,0.14 0.21,0.266 0.154,0.112 0.308,0.196 0.154,0.07 0.448,0.168 0.308,0.084 0.546,0.154 0.252,0.07 0.7,0.182 0.448,0.112 0.784,0.21 1.47,0.42 2.184,1.05 0.728,0.63 0.728,1.806 0,0.854 -0.35,1.498 -0.35,0.63 -0.952,1.008 -0.588,0.364 -1.302,0.532 -0.7,0.182 -1.498,0.182 -2.03,0 -3.178,-0.924 -1.134,-0.938 -1.148,-2.632 h 2.17 q 0.056,1.876 2.254,1.876 0.854,0 1.344,-0.35 0.504,-0.364 0.504,-0.98 0,-0.518 -0.462,-0.756 -0.448,-0.238 -1.904,-0.658 -0.238,-0.056 -0.364,-0.098 -0.504,-0.14 -0.7,-0.196 -0.196,-0.07 -0.63,-0.224 -0.42,-0.154 -0.616,-0.28 -0.196,-0.126 -0.49,-0.35 -0.28,-0.224 -0.406,-0.462 -0.126,-0.252 -0.238,-0.602 -0.098,-0.364 -0.098,-0.784 0,-1.358 1.05,-2.17 1.05,-0.812 2.786,-0.812 1.68,0 2.744,0.798 1.064,0.784 1.092,2.38 z"
     id="text7"
     class="terminal"
     style="font-weight:bold;font-size:14px;font-family:HelveticaNeueCyr, Sans-serif;fill:#140000"
     aria-label="VTABLE_MAX_ROWS" />
  <path
     id="rect8"
     style="fill:#330000;stroke:#330000"
     d="m 385,35 h 10 c 5.54,0 10,4.46 10,10 v 12 c 0,5.54 -4.46,10 -10,10 h -10 c -5.54,0 -10,-4.46 -10,-10 V 45 c 0,-5.54 4.46,-10 10,-10 z" />
  <path
     id="rect9"
     class="terminal"
     style="fill:#ff4d4d;stroke:#330000"
     d="m 383,33 h 10 c 5.54,0 10,4.46 10,10 v 12 c 0,5.54 -4.46,10 -10,10 h -10 c -5.54,0 -10,-4.46 -10,-10 V 43 c 0,-5.54 4.46,-10 10,-10 z" />
  <path
     d="M 383.56,48.688 V 47.12 h 7.28 v 1.568 z m 0,2.926 v -1.568 h 7.28 v 1.568 z"
     id="text9"
     class="terminal"
     style="font-weight:bold;font-size:14px;font-family:HelveticaNeueCyr, Sans-serif;fill:#140000"
     aria-label="=" />
  <a
     xlink:href="../sql_types/#unsigned"
     xlink:title="unsigned"
     id="a11">
    <path
       id="rect10"
       style="fill:#330000;stroke:#330000"
       d="m 425,35 h 78 v 32 h -78 z" />
    <path
       id="rect11"
       class="nonterminal"
       style="fill:#ff9e9e;stroke:#330000"
       d="m 423,33 h 78 v 32 h -78 z" />
    <path
       d="M 439.888,45.776 V 53 h -1.106 v -1.134 q -0.924,1.33 -2.492,1.33 -1.148,0 -1.778,-0.63 -0.63,-0.63 -0.63,-1.82 v -4.97 h 1.19 v 4.648 q 0,0.854 0.322,1.302 0.336,0.434 1.19,0.434 2.114,0 2.114,-2.604 v -3.78 z m 2.912,0 v 1.12 q 0.896,-1.316 2.464,-1.316 1.274,0 1.834,0.672 0.574,0.658 0.574,1.946 V 53 h -1.19 v -4.256 q 0,-0.532 -0.042,-0.826 -0.028,-0.308 -0.168,-0.644 -0.14,-0.35 -0.476,-0.504 -0.336,-0.154 -0.868,-0.154 -2.058,0 -2.058,2.604 V 53 h -1.19 v -7.224 z m 12.02599,2.1 h -1.19 q -0.112,-1.316 -1.764,-1.316 -0.686,0 -1.078,0.266 -0.392,0.266 -0.392,0.714 0,0.126 0.028,0.252 0.028,0.112 0.098,0.21 0.084,0.084 0.14,0.154 0.07,0.07 0.21,0.14 0.154,0.056 0.224,0.098 0.084,0.042 0.28,0.098 0.21,0.042 0.294,0.07 0.084,0.014 0.322,0.07 0.252,0.056 0.322,0.07 0.518,0.112 0.77,0.182 0.266,0.07 0.714,0.266 0.462,0.182 0.7,0.392 0.238,0.196 0.42,0.56 0.196,0.35 0.196,0.798 0,1.05 -0.826,1.694 -0.812,0.63 -2.17,0.63 -1.47,0 -2.268,-0.644 -0.784,-0.644 -0.84,-1.862 h 1.176 q 0.098,1.526 1.96,1.526 0.798,0 1.274,-0.322 0.49,-0.336 0.49,-0.882 0,-0.364 -0.252,-0.602 -0.252,-0.238 -0.56,-0.336 -0.308,-0.112 -0.882,-0.252 -0.084,-0.014 -0.126,-0.028 -0.126,-0.028 -0.546,-0.112 -0.406,-0.098 -0.588,-0.154 -0.182,-0.056 -0.532,-0.168 -0.336,-0.126 -0.504,-0.252 -0.168,-0.14 -0.378,-0.336 -0.196,-0.21 -0.28,-0.476 -0.084,-0.28 -0.084,-0.63 0,-0.98 0.742,-1.554 0.756,-0.574 2.016,-0.574 1.274,0 2.072,0.602 0.812,0.602 0.812,1.708 z m 2.898,-4.844 v 1.456 h -1.204 v -1.456 z m 0,2.744 V 53 h -1.204 v -7.224 z m 8.106,0 v 6.44 q 0,0.938 -0.098,1.442 -0.098,0.518 -0.364,0.966 -0.798,1.316 -2.856,1.316 -1.218,0 -2.058,-0.504 -0.84,-0.49 -0.98,-1.624 h 1.218 q 0.21,1.204 1.862,1.204 1.106,0 1.596,-0.56 0.504,-0.56 0.532,-1.806 l 0.014,-0.882 q -0.686,1.316 -2.296,1.316 -1.456,0 -2.324,-0.994 -0.854,-0.994 -0.854,-2.674 0,-1.582 0.854,-2.702 0.854,-1.134 2.38,-1.134 0.756,0 1.344,0.322 0.602,0.322 0.938,0.924 v -1.05 z m -3.318,0.84 q -0.966,0 -1.526,0.756 -0.546,0.742 -0.546,2.058 0,1.19 0.574,1.918 0.574,0.714 1.526,0.714 0.994,0 1.554,-0.756 0.574,-0.756 0.574,-2.072 0,-1.232 -0.574,-1.918 -0.56,-0.7 -1.582,-0.7 z m 6.216,-0.84 v 1.12 q 0.896,-1.316 2.464,-1.316 1.274,0 1.834,0.672 0.574,0.658 0.574,1.946 V 53 h -1.19 v -4.256 q 0,-0.532 -0.042,-0.826 -0.028,-0.308 -0.168,-0.644 -0.14,-0.35 -0.476,-0.504 -0.336,-0.154 -0.868,-0.154 -2.058,0 -2.058,2.604 V 53 h -1.19 v -7.224 z m 12.83799,4.942 q -0.546,2.52 -3.15,2.52 -1.596,0 -2.506,-0.994 -0.896,-0.994 -0.896,-2.758 0,-1.75 0.924,-2.828 0.938,-1.092 2.436,-1.092 1.666,0 2.464,1.134 0.812,1.12 0.812,2.842 v 0.168 h -5.432 l -0.014,0.084 q 0,1.148 0.602,1.806 0.602,0.658 1.652,0.658 0.784,0 1.232,-0.364 0.462,-0.364 0.714,-1.176 z m -1.148,-1.974 q -0.084,-1.036 -0.63,-1.61 -0.546,-0.588 -1.442,-0.588 -0.868,0 -1.442,0.588 -0.574,0.588 -0.686,1.61 z m 9.00201,-5.712 V 53 h -1.12 v -1.064 q -0.686,1.26 -2.38,1.26 -1.54,0 -2.45,-1.022 -0.896,-1.036 -0.896,-2.8 0,-1.638 0.84,-2.716 0.854,-1.092 2.45,-1.092 1.554,0 2.366,1.176 v -3.71 z m -3.402,3.556 q -1.022,0 -1.624,0.742 -0.588,0.742 -0.588,2.016 0,1.316 0.602,2.1 0.616,0.77 1.638,0.77 1.036,0 1.624,-0.742 0.588,-0.756 0.588,-2.086 0,-1.19 -0.56,-1.988 -0.546,-0.812 -1.68,-0.812 z"
       id="text11"
       class="nonterminal"
       style="font-size:14px;font-family:HelveticaNeueCyr, Sans-serif;fill:#1a0000"
       aria-label="unsigned" />
  </a>
  <path
     id="rect12"
     style="fill:#330000;stroke:#330000"
     d="m 85,133 h 4 c 5.54,0 10,4.46 10,10 v 12 c 0,5.54 -4.46,10 -10,10 h -4 c -5.54,0 -10,-4.46 -10,-10 v -12 c 0,-5.54 4.46,-10 10,-10 z" />
  <path
     id="rect13"
     class="terminal"
     style="fill:#ff4d4d;stroke:#330000"
     d="m 83,131 h 4 c 5.54,0 10,4.46 10,10 v 12 c 0,5.54 -4.46,10 -10,10 h -4 c -5.54,0 -10,-4.46 -10,-10 v -12 c 0,-5.54 4.46,-10 10,-10 z" />
  <path
     d="m 86.052,148.816 v 1.778 q 0,1.218 -0.546,1.876 -0.532,0.672 -1.666,0.854 v -0.98 q 0.938,-0.28 0.994,-1.344 H 83.84 v -2.184 z"
     id="text13"
     class="terminal"
     style="font-weight:bold;font-size:14px;font-family:HelveticaNeueCyr, Sans-serif;fill:#140000"
     aria-label="," />
  <path
     id="rect14"
     style="fill:#330000;stroke:#330000"
     d="m 129,133 h 164 c 5.54,0 10,4.46 10,10 v 12 c 0,5.54 -4.46,10 -10,10 H 129 c -5.54,0 -10,-4.46 -10,-10 v -12 c 0,-5.54 4.46,-10 10,-10 z" />
  <path
     id="rect15"
     class="terminal"
     style="fill:#ff4d4d;stroke:#330000"
     d="m 127,131 h 164 c 5.54,0 10,4.46 10,10 v 12 c 0,5.54 -4.46,10 -10,10 H 127 c -5.54,0 -10,-4.46 -10,-10 v -12 c 0,-5.54 4.46,-10 10,-10 z" />
  <path
     d="m 135.344,144 h -2.072 q -0.126,-1.484 -1.89,-1.484 -0.756,0 -1.19,0.308 -0.42,0.294 -0.42,0.826 0,0.182 0.056,0.322 0.056,0.14 0.21,0.266 0.154,0.112 0.308,0.196 0.154,0.07 0.448,0.168 0.308,0.084 0.546,0.154 0.252,0.07 0.7,0.182 0.448,0.112 0.784,0.21 1.47,0.42 2.184,1.05 0.728,0.63 0.728,1.806 0,0.854 -0.35,1.498 -0.35,0.63 -0.952,1.008 -0.588,0.364 -1.302,0.532 -0.7,0.182 -1.498,0.182 -2.03,0 -3.178,-0.924 -1.134,-0.938 -1.148,-2.632 h 2.17 q 0.056,1.876 2.254,1.876 0.854,0 1.344,-0.35 0.504,-0.364 0.504,-0.98 0,-0.518 -0.462,-0.756 -0.448,-0.238 -1.904,-0.658 -0.238,-0.056 -0.364,-0.098 -0.504,-0.14 -0.7,-0.196 -0.196,-0.07 -0.63,-0.224 -0.42,-0.154 -0.616,-0.28 -0.196,-0.126 -0.49,-0.35 -0.28,-0.224 -0.406,-0.462 -0.126,-0.252 -0.238,-0.602 -0.098,-0.364 -0.098,-0.784 0,-1.358 1.05,-2.17 1.05,-0.812 2.786,-0.812 1.68,0 2.744,0.798 1.064,0.784 1.092,2.38 z m 11.018,6.888 -1.022,1.106 -1.47,-1.33 q -0.896,0.574 -2.408,0.574 -2.17,0 -3.514,-1.428 -1.33,-1.428 -1.33,-3.766 0,-2.31 1.372,-3.766 1.386,-1.47 3.57,-1.47 2.142,0 3.5,1.456 1.358,1.442 1.358,3.724 0,1.162 -0.35,2.142 -0.35,0.98 -0.994,1.582 z m -2.8,-2.576 q 0.672,-0.798 0.672,-2.31 0,-1.568 -0.728,-2.478 -0.728,-0.91 -1.988,-0.91 -1.232,0 -1.974,0.924 -0.728,0.924 -0.728,2.492 0,1.582 0.728,2.52 0.728,0.938 1.96,0.938 0.504,0 0.952,-0.196 l -0.994,-0.868 1.022,-1.092 z M 155,149.124 V 151 h -7.056 v -9.968 h 2.184 v 8.092 z m 0.28001,3.626 v -0.7 h 7 v 0.7 z m 6.888,-11.718 h 2.282 l 2.24,7 2.268,-7 h 2.268 l -3.318,9.968 h -2.478 z m 9.91198,9.968 v -9.968 h 4.032 q 2.324,0 3.57,1.288 1.26,1.288 1.26,3.696 0,2.408 -1.26,3.696 -1.246,1.288 -3.57,1.288 z m 2.17,-1.82 h 1.596 q 2.898,0 2.898,-3.164 0,-1.526 -0.728,-2.338 -0.714,-0.826 -2.17,-0.826 h -1.596 z m 8.17599,-8.148 h 4.718 q 1.4,0 2.282,0.63 0.896,0.616 0.896,1.876 0,0.7 -0.364,1.246 -0.364,0.532 -0.994,0.812 1.82,0.518 1.82,2.436 0,1.414 -0.952,2.198 -0.952,0.77 -2.422,0.77 h -4.984 z m 2.128,1.694 v 2.338 h 1.988 q 1.652,0 1.652,-1.162 0,-0.686 -0.448,-0.924 -0.448,-0.252 -1.204,-0.252 z m 0,3.822 v 2.716 h 2.198 q 0.854,0 1.344,-0.28 0.504,-0.28 0.504,-1.078 0,-0.812 -0.532,-1.078 -0.518,-0.28 -1.428,-0.28 z m 15.21801,-5.516 v 1.792 h -5.306 v 2.17 h 4.872 v 1.722 h -4.872 v 2.45 h 5.404 V 151 h -7.574 v -9.968 z m 0.63001,11.718 v -0.7 h 7 v 0.7 z m 7.966,-1.75 v -9.968 h 3.122 l 2.324,6.846 2.268,-6.846 h 3.052 V 151 h -2.058 v -7.084 l -2.45,7.084 h -1.694 l -2.478,-7.014 V 151 Z m 17.65399,-9.982 3.794,9.982 h -2.296 l -0.784,-2.226 h -3.71 l -0.812,2.226 h -2.24 l 3.794,-9.982 z m 0.182,6.16 -1.316,-3.71 -1.33,3.71 z m 12.6,-6.146 -3.206,4.76 3.5,5.208 h -2.618 l -2.184,-3.458 -2.212,3.458 h -2.492 l 3.514,-5.208 -3.248,-4.76 h 2.548 l 1.988,3.206 2.002,-3.206 z m 0.22399,11.718 v -0.7 h 7 v 0.7 z m 15.344,-8.75 h -2.072 q -0.126,-1.484 -1.89,-1.484 -0.756,0 -1.19,0.308 -0.42,0.294 -0.42,0.826 0,0.182 0.056,0.322 0.056,0.14 0.21,0.266 0.154,0.112 0.308,0.196 0.154,0.07 0.448,0.168 0.308,0.084 0.546,0.154 0.252,0.07 0.7,0.182 0.448,0.112 0.784,0.21 1.47,0.42 2.184,1.05 0.728,0.63 0.728,1.806 0,0.854 -0.35,1.498 -0.35,0.63 -0.952,1.008 -0.588,0.364 -1.302,0.532 -0.7,0.182 -1.498,0.182 -2.03,0 -3.178,-0.924 -1.134,-0.938 -1.148,-2.632 h 2.17 q 0.056,1.876 2.254,1.876 0.854,0 1.344,-0.35 0.504,-0.364 0.504,-0.98 0,-0.518 -0.462,-0.756 -0.448,-0.238 -1.904,-0.658 -0.238,-0.056 -0.364,-0.098 -0.504,-0.14 -0.7,-0.196 -0.196,-0.07 -0.63,-0.224 -0.42,-0.154 -0.616,-0.28 -0.196,-0.126 -0.49,-0.35 -0.28,-0.224 -0.406,-0.462 -0.126,-0.252 -0.238,-0.602 -0.098,-0.364 -0.098,-0.784 0,-1.358 1.05,-2.17 1.05,-0.812 2.786,-0.812 1.68,0 2.744,0.798 1.064,0.784 1.092,2.38 z m 9.114,-2.968 v 1.862 h -2.996 V 151 h -2.198 v -8.106 h -2.996 v -1.862 z m 8.624,0 v 1.792 h -5.306 v 2.17 h 4.872 v 1.722 h -4.872 v 2.45 h 5.404 V 151 h -7.574 v -9.968 z m 1.61001,0 h 4.298 q 1.68,0 2.66,0.812 0.994,0.798 0.994,2.394 0,1.568 -0.98,2.38 -0.98,0.798 -2.562,0.798 h -2.24 V 151 h -2.17 z m 2.17,1.792 v 2.87 h 1.946 q 1.708,0 1.708,-1.428 0,-1.442 -1.694,-1.442 z M 290.422,144 h -2.072 q -0.126,-1.484 -1.89,-1.484 -0.756,0 -1.19,0.308 -0.42,0.294 -0.42,0.826 0,0.182 0.056,0.322 0.056,0.14 0.21,0.266 0.154,0.112 0.308,0.196 0.154,0.07 0.448,0.168 0.308,0.084 0.546,0.154 0.252,0.07 0.7,0.182 0.448,0.112 0.784,0.21 1.47,0.42 2.184,1.05 0.728,0.63 0.728,1.806 0,0.854 -0.35,1.498 -0.35,0.63 -0.952,1.008 -0.588,0.364 -1.302,0.532 -0.7,0.182 -1.498,0.182 -2.03,0 -3.178,-0.924 -1.134,-0.938 -1.148,-2.632 h 2.17 q 0.056,1.876 2.254,1.876 0.854,0 1.344,-0.35 0.504,-0.364 0.504,-0.98 0,-0.518 -0.462,-0.756 -0.448,-0.238 -1.904,-0.658 -0.238,-0.056 -0.364,-0.098 -0.504,-0.14 -0.7,-0.196 -0.196,-0.07 -0.63,-0.224 -0.42,-0.154 -0.616,-0.28 -0.196,-0.126 -0.49,-0.35 -0.28,-0.224 -0.406,-0.462 -0.126,-0.252 -0.238,-0.602 -0.098,-0.364 -0.098,-0.784 0,-1.358 1.05,-2.17 1.05,-0.812 2.786,-0.812 1.68,0 2.744,0.798 1.064,0.784 1.092,2.38 z"
     id="text15"
     class="terminal"
     style="font-weight:bold;font-size:14px;font-family:HelveticaNeueCyr, Sans-serif;fill:#140000"
     aria-label="SQL_VDBE_MAX_STEPS" />
  <path
     id="rect16"
     style="fill:#330000;stroke:#330000"
     d="m 333,133 h 10 c 5.54,0 10,4.46 10,10 v 12 c 0,5.54 -4.46,10 -10,10 h -10 c -5.54,0 -10,-4.46 -10,-10 v -12 c 0,-5.54 4.46,-10 10,-10 z" />
  <path
     id="rect17"
     class="terminal"
     style="fill:#ff4d4d;stroke:#330000"
     d="m 331,131 h 10 c 5.54,0 10,4.46 10,10 v 12 c 0,5.54 -4.46,10 -10,10 h -10 c -5.54,0 -10,-4.46 -10,-10 v -12 c 0,-5.54 4.46,-10 10,-10 z" />
  <path
     d="m 331.56,146.688 v -1.568 h 7.28 v 1.568 z m 0,2.926 v -1.568 h 7.28 v 1.568 z"
     id="text17"
     class="terminal"
     style="font-weight:bold;font-size:14px;font-family:HelveticaNeueCyr, Sans-serif;fill:#140000"
     aria-label="=" />
  <a
     xlink:href="../sql_types/#unsigned"
     xlink:title="../sql_types/#unsigned"
     id="a19">
    <path
       id="rect18"
       style="fill:#330000;stroke:#330000"
       d="m 373,133 h 78 v 32 h -78 z" />
    <path
       id="rect19"
       class="nonterminal"
       style="fill:#ff9e9e;stroke:#330000"
       d="m 371,131 h 78 v 32 h -78 z" />
    <path
       d="M 387.888,143.776 V 151 h -1.106 v -1.134 q -0.924,1.33 -2.492,1.33 -1.148,0 -1.778,-0.63 -0.63,-0.63 -0.63,-1.82 v -4.97 h 1.19 v 4.648 q 0,0.854 0.322,1.302 0.336,0.434 1.19,0.434 2.114,0 2.114,-2.604 v -3.78 z m 2.912,0 v 1.12 q 0.896,-1.316 2.464,-1.316 1.274,0 1.834,0.672 0.574,0.658 0.574,1.946 V 151 h -1.19 v -4.256 q 0,-0.532 -0.042,-0.826 -0.028,-0.308 -0.168,-0.644 -0.14,-0.35 -0.476,-0.504 -0.336,-0.154 -0.868,-0.154 -2.058,0 -2.058,2.604 V 151 h -1.19 v -7.224 z m 12.02599,2.1 h -1.19 q -0.112,-1.316 -1.764,-1.316 -0.686,0 -1.078,0.266 -0.392,0.266 -0.392,0.714 0,0.126 0.028,0.252 0.028,0.112 0.098,0.21 0.084,0.084 0.14,0.154 0.07,0.07 0.21,0.14 0.154,0.056 0.224,0.098 0.084,0.042 0.28,0.098 0.21,0.042 0.294,0.07 0.084,0.014 0.322,0.07 0.252,0.056 0.322,0.07 0.518,0.112 0.77,0.182 0.266,0.07 0.714,0.266 0.462,0.182 0.7,0.392 0.238,0.196 0.42,0.56 0.196,0.35 0.196,0.798 0,1.05 -0.826,1.694 -0.812,0.63 -2.17,0.63 -1.47,0 -2.268,-0.644 -0.784,-0.644 -0.84,-1.862 h 1.176 q 0.098,1.526 1.96,1.526 0.798,0 1.274,-0.322 0.49,-0.336 0.49,-0.882 0,-0.364 -0.252,-0.602 -0.252,-0.238 -0.56,-0.336 -0.308,-0.112 -0.882,-0.252 -0.084,-0.014 -0.126,-0.028 -0.126,-0.028 -0.546,-0.112 -0.406,-0.098 -0.588,-0.154 -0.182,-0.056 -0.532,-0.168 -0.336,-0.126 -0.504,-0.252 -0.168,-0.14 -0.378,-0.336 -0.196,-0.21 -0.28,-0.476 -0.084,-0.28 -0.084,-0.63 0,-0.98 0.742,-1.554 0.756,-0.574 2.016,-0.574 1.274,0 2.072,0.602 0.812,0.602 0.812,1.708 z m 2.898,-4.844 v 1.456 h -1.204 v -1.456 z m 0,2.744 V 151 h -1.204 v -7.224 z m 8.106,0 v 6.44 q 0,0.938 -0.098,1.442 -0.098,0.518 -0.364,0.966 -0.798,1.316 -2.856,1.316 -1.218,0 -2.058,-0.504 -0.84,-0.49 -0.98,-1.624 h 1.218 q 0.21,1.204 1.862,1.204 1.106,0 1.596,-0.56 0.504,-0.56 0.532,-1.806 l 0.014,-0.882 q -0.686,1.316 -2.296,1.316 -1.456,0 -2.324,-0.994 -0.854,-0.994 -0.854,-2.674 0,-1.582 0.854,-2.702 0.854,-1.134 2.38,-1.134 0.756,0 1.344,0.322 0.602,0.322 0.938,0.924 v -1.05 z m -3.318,0.84 q -0.966,0 -1.526,0.756 -0.546,0.742 -0.546,2.058 0,1.19 0.574,1.918 0.574,0.714 1.526,0.714 0.994,0 1.554,-0.756 0.574,-0.756 0.574,-2.072 0,-1.232 -0.574,-1.918 -0.56,-0.7 -1.582,-0.7 z m 6.216,-0.84 v 1.12 q 0.896,-1.316 2.464,-1.316 1.274,0 1.834,0.672 0.574,0.658 0.574,1.946 V 151 h -1.19 v -4.256 q 0,-0.532 -0.042,-0.826 -0.028,-0.308 -0.168,-0.644 -0.14,-0.35 -0.476,-0.504 -0.336,-0.154 -0.868,-0.154 -2.058,0 -2.058,2.604 V 151 h -1.19 v -7.224 z m 12.83799,4.942 q -0.546,2.52 -3.15,2.52 -1.596,0 -2.506,-0.994 -0.896,-0.994 -0.896,-2.758 0,-1.75 0.924,-2.828 0.938,-1.092 2.436,-1.092 1.666,0 2.464,1.134 0.812,1.12 0.812,2.842 v 0.168 h -5.432 l -0.014,0.084 q 0,1.148 0.602,1.806 0.602,0.658 1.652,0.658 0.784,0 1.232,-0.364 0.462,-0.364 0.714,-1.176 z m -1.148,-1.974 q -0.084,-1.036 -0.63,-1.61 -0.546,-0.588 -1.442,-0.588 -0.868,0 -1.442,0.588 -0.574,0.588 -0.686,1.61 z m 9.00201,-5.712 V 151 h -1.12 v -1.064 q -0.686,1.26 -2.38,1.26 -1.54,0 -2.45,-1.022 -0.896,-1.036 -0.896,-2.8 0,-1.638 0.84,-2.716 0.854,-1.092 2.45,-1.092 1.554,0 2.366,1.176 v -3.71 z m -3.402,3.556 q -1.022,0 -1.624,0.742 -0.588,0.742 -0.588,2.016 0,1.316 0.602,2.1 0.616,0.77 1.638,0.77 1.036,0 1.624,-0.742 0.588,-0.756 0.588,-2.086 0,-1.19 -0.56,-1.988 -0.546,-0.812 -1.68,-0.812 z"
       id="text19"
       class="nonterminal"
       style="font-size:14px;font-family:HelveticaNeueCyr, Sans-serif;fill:#1a0000"
       aria-label="unsigned" />
  </a>
  <path
     id="rect20"
     style="fill:#330000;stroke:#330000"
     d="m 501,101 h 6 c 5.54,0 10,4.46 10,10 v 12 c 0,5.54 -4.46,10 -10,10 h -6 c -5.54,0 -10,-4.46 -10,-10 v -12 c 0,-5.54 4.46,-10 10,-10 z" />
  <path
     id="rect21"
     class="terminal"
     style="fill:#ff4d4d;stroke:#330000"
     d="m 499,99 h 6 c 5.54,0 10,4.46 10,10 v 12 c 0,5.54 -4.46,10 -10,10 h -6 c -5.54,0 -10,-4.46 -10,-10 v -12 c 0,-5.54 4.46,-10 10,-10 z" />
  <path
     d="m 498.944,108.878 h 1.652 q 1.862,2.856 1.862,6.23 0,1.582 -0.49,3.416 -0.49,1.834 -1.344,2.968 h -1.666 q 0.84,-1.708 1.19,-3.15 0.364,-1.456 0.364,-3.262 0,-3.388 -1.568,-6.202 z"
     id="text21"
     class="terminal"
     style="font-weight:bold;font-size:14px;font-family:HelveticaNeueCyr, Sans-serif;fill:#140000"
     aria-label=")" />
  <path
     class="line"
     d="m17 17 h2 m0 0 h10 m76 0 h10 m0 0 h10 m26 0 h10 m20 0 h10 m0 0 h320 m-350 0 h20 m330 0 h20 m-370 0 q10 0 10 10 m350 0 q0 -10 10 -10 m-360 10 v12 m350 0 v-12 m-350 12 q0 10 10 10 m330 0 q10 0 10 -10 m-340 10 h10 m162 0 h10 m0 0 h10 m30 0 h10 m0 0 h10 m78 0 h10 m22 -32 l2 0 m2 0 l2 0 m2 0 l2 0 m-512 98 l2 0 m2 0 l2 0 m2 0 l2 0 m22 0 h10 m0 0 h386 m-416 0 h20 m396 0 h20 m-436 0 q10 0 10 10 m416 0 q0 -10 10 -10 m-426 10 v12 m416 0 v-12 m-416 12 q0 10 10 10 m396 0 q10 0 10 -10 m-406 10 h10 m24 0 h10 m0 0 h10 m184 0 h10 m0 0 h10 m30 0 h10 m0 0 h10 m78 0 h10 m20 -32 h10 m26 0 h10 m3 0 h-3"
     id="path21" />
  <path
     id="polygon21"
     style="fill:#330000;stroke:#330000"
     d="m 535,115 8,-4 v 8 z" />
  <path
     id="polygon22"
     style="fill:#330000;stroke:#330000"
     d="m 535,115 -8,-4 v 8 z" />
</svg>
