<?xml version="1.0" encoding="UTF-8" standalone="no"?>
<svg
   width="465"
   height="785"
   version="1.1"
   id="svg62"
   sodipodi:docname="Privilege.svg"
   inkscape:version="1.3 (0e150ed6c4, 2023-07-21)"
   xmlns:inkscape="http://www.inkscape.org/namespaces/inkscape"
   xmlns:sodipodi="http://sodipodi.sourceforge.net/DTD/sodipodi-0.dtd"
   xmlns:xlink="http://www.w3.org/1999/xlink"
   xmlns="http://www.w3.org/2000/svg"
   xmlns:svg="http://www.w3.org/2000/svg">
  <sodipodi:namedview
     id="namedview62"
     pagecolor="#ffffff"
     bordercolor="#666666"
     borderopacity="1.0"
     inkscape:showpageshadow="2"
     inkscape:pageopacity="0.0"
     inkscape:pagecheckerboard="0"
     inkscape:deskcolor="#d1d1d1"
     inkscape:zoom="1.0280255"
     inkscape:cx="232.97087"
     inkscape:cy="392.49999"
     inkscape:window-width="1854"
     inkscape:window-height="1011"
     inkscape:window-x="66"
     inkscape:window-y="32"
     inkscape:window-maximized="1"
     inkscape:current-layer="svg62" />
  <defs
     id="defs1">
    <style
       type="text/css"
       id="style1">@namespace &quot;http://www.w3.org/2000/svg&quot;;.line { fill: none; stroke: #330000; stroke-width: 1; }&#10;.bold-line { stroke: #140000; shape-rendering: crispEdges; stroke-width: 2; }&#10;.thin-line { stroke: #1F0000; shape-rendering: crispEdges }&#10;.filled { fill: #330000; stroke: none; }&#10;text.terminal { font-family: HelveticaNeueCyr, Sans-serif;                            font-size: 14px;                            fill: #140000;                            font-weight: bold; }&#10;text.nonterminal { font-family: HelveticaNeueCyr, Sans-serif;                            font-size: 14px;                            fill: #1A0000;                            font-weight: normal; }&#10;text.regexp { font-family: HelveticaNeueCyr, Sans-serif;                            font-size: 14px;                            fill: #1F0000;                            font-weight: normal; }&#10;rect, circle, polygon { fill: #330000; stroke: #330000; }&#10;rect.terminal { fill: #FF4D4D; stroke: #330000; stroke-width: 1; }&#10;rect.nonterminal { fill: #FF9E9E; stroke: #330000; stroke-width: 1; }&#10;rect.text { fill: none; stroke: none; }&#10;polygon.regexp { fill: #FFC7C7; stroke: #330000; stroke-width: 1; }&#10;</style>
  </defs>
  <polygon
     points="9 17 1 13 1 21"
     id="polygon1" />
  <polygon
     points="17 17 9 13 9 21"
     id="polygon2" />
  <rect
     x="71"
     y="3"
     width="62"
     height="32"
     rx="10"
     id="rect2" />
  <rect
     x="69"
     y="1"
     width="62"
     height="32"
     class="terminal"
     rx="10"
     id="rect3" />
  <text
     class="terminal"
     x="79"
     y="21"
     id="text3">create</text>
  <rect
     x="71"
     y="47"
     width="52"
     height="32"
     rx="10"
     id="rect4" />
  <rect
     x="69"
     y="45"
     width="52"
     height="32"
     class="terminal"
     rx="10"
     id="rect5" />
  <text
     class="terminal"
     x="79"
     y="65"
     id="text5">alter</text>
  <rect
     x="71"
     y="91"
     width="50"
     height="32"
     rx="10"
     id="rect6" />
  <rect
     x="69"
     y="89"
     width="50"
     height="32"
     class="terminal"
     rx="10"
     id="rect7" />
  <text
     class="terminal"
     x="79"
     y="109"
     id="text7">drop</text>
  <rect
     x="173"
     y="3"
     width="50"
     height="32"
     rx="10"
     id="rect8" />
  <rect
     x="171"
     y="1"
     width="50"
     height="32"
     class="terminal"
     rx="10"
     id="rect9" />
  <text
     class="terminal"
     x="181"
     y="21"
     id="text9">user</text>
  <rect
     x="91"
     y="135"
     width="52"
     height="32"
     rx="10"
     id="rect10" />
  <rect
     x="89"
     y="133"
     width="52"
     height="32"
     class="terminal"
     rx="10"
     id="rect11" />
  <text
     class="terminal"
     x="99"
     y="153"
     id="text11">alter</text>
  <rect
     x="91"
     y="179"
     width="50"
     height="32"
     rx="10"
     id="rect12" />
  <rect
     x="89"
     y="177"
     width="50"
     height="32"
     class="terminal"
     rx="10"
     id="rect13" />
  <text
     class="terminal"
     x="99"
     y="197"
     id="text13">drop</text>
  <rect
     x="183"
     y="135"
     width="36"
     height="32"
     rx="10"
     id="rect14" />
  <rect
     x="181"
     y="133"
     width="36"
     height="32"
     class="terminal"
     rx="10"
     id="rect15" />
  <text
     class="terminal"
     x="191"
     y="153"
     id="text15">on</text>
  <rect
     x="239"
     y="135"
     width="50"
     height="32"
     rx="10"
     id="rect16" />
  <rect
     x="237"
     y="133"
     width="50"
     height="32"
     class="terminal"
     rx="10"
     id="rect17" />
  <text
     class="terminal"
     x="247"
     y="153"
     id="text17">user</text>
  <rect
     x="71"
     y="223"
     width="50"
     height="32"
     rx="10"
     id="rect18" />
  <rect
     x="69"
     y="221"
     width="50"
     height="32"
     class="terminal"
     rx="10"
     id="rect19" />
  <text
     class="terminal"
     x="79"
     y="241"
     id="text19">drop</text>
  <rect
     x="141"
     y="223"
     width="36"
     height="32"
     rx="10"
     id="rect20" />
  <rect
     x="139"
     y="221"
     width="36"
     height="32"
     class="terminal"
     rx="10"
     id="rect21" />
  <text
     class="terminal"
     x="149"
     y="241"
     id="text21">on</text>
  <rect
     x="197"
     y="223"
     width="46"
     height="32"
     rx="10"
     id="rect22" />
  <rect
     x="195"
     y="221"
     width="46"
     height="32"
     class="terminal"
     rx="10"
     id="rect23" />
  <text
     class="terminal"
     x="205"
     y="241"
     id="text23">role</text>
  <a
     xlink:href="#name"
     xlink:title="role"
     id="a25">
    <rect
       x="349"
       y="135"
       width="44"
       height="32"
       id="rect24" />
    <rect
       x="347"
       y="133"
       width="44"
       height="32"
       class="nonterminal"
       id="rect25" />
    <text
       class="nonterminal"
       x="357"
       y="153"
       id="text25">role</text>
  </a>
  <a
     xlink:href="#name"
     xlink:title="user"
     id="a27">
    <rect
       x="349"
       y="179"
       width="48"
       height="32"
       id="rect26" />
    <rect
       x="347"
       y="177"
       width="48"
       height="32"
       class="nonterminal"
       id="rect27" />
    <text
       class="nonterminal"
       x="357"
       y="197"
       id="text27">user</text>
  </a>
  <rect
     x="71"
     y="267"
     width="62"
     height="32"
     rx="10"
     id="rect28" />
  <rect
     x="69"
     y="265"
     width="62"
     height="32"
     class="terminal"
     rx="10"
     id="rect29" />
  <text
     class="terminal"
     x="79"
     y="285"
     id="text29">create</text>
  <rect
     x="71"
     y="311"
     width="50"
     height="32"
     rx="10"
     id="rect30" />
  <rect
     x="69"
     y="309"
     width="50"
     height="32"
     class="terminal"
     rx="10"
     id="rect31" />
  <text
     class="terminal"
     x="79"
     y="329"
     id="text31">drop</text>
  <rect
     x="173"
     y="267"
     width="46"
     height="32"
     rx="10"
     id="rect32" />
  <rect
     x="171"
     y="265"
     width="46"
     height="32"
     class="terminal"
     rx="10"
     id="rect33" />
  <text
     class="terminal"
     x="181"
     y="285"
     id="text33">role</text>
  <rect
     x="71"
     y="355"
     width="50"
     height="32"
     rx="10"
     id="rect34" />
  <rect
     x="69"
     y="353"
     width="50"
     height="32"
     class="terminal"
     rx="10"
     id="rect35" />
  <text
     class="terminal"
     x="79"
     y="373"
     id="text35">read</text>
  <rect
     x="71"
     y="399"
     width="56"
     height="32"
     rx="10"
     id="rect36" />
  <rect
     x="69"
     y="397"
     width="56"
     height="32"
     class="terminal"
     rx="10"
     id="rect37" />
  <text
     class="terminal"
     x="79"
     y="417"
     id="text37">write</text>
  <rect
     x="71"
     y="443"
     width="62"
     height="32"
     rx="10"
     id="rect38" />
  <rect
     x="69"
     y="441"
     width="62"
     height="32"
     class="terminal"
     rx="10"
     id="rect39" />
  <text
     class="terminal"
     x="79"
     y="461"
     id="text39">create</text>
  <rect
     x="71"
     y="487"
     width="52"
     height="32"
     rx="10"
     id="rect40" />
  <rect
     x="69"
     y="485"
     width="52"
     height="32"
     class="terminal"
     rx="10"
     id="rect41" />
  <text
     class="terminal"
     x="79"
     y="505"
     id="text41">alter</text>
  <rect
     x="71"
     y="531"
     width="50"
     height="32"
     rx="10"
     id="rect42" />
  <rect
     x="69"
     y="529"
     width="50"
     height="32"
     class="terminal"
     rx="10"
     id="rect43" />
  <text
     class="terminal"
     x="79"
     y="549"
     id="text43">drop</text>
  <rect
     x="173"
     y="355"
     width="54"
     height="32"
     rx="10"
     id="rect44" />
  <rect
     x="171"
     y="353"
     width="54"
     height="32"
     class="terminal"
     rx="10"
     id="rect45" />
  <text
     class="terminal"
     x="181"
     y="373"
     id="text45">table</text>
  <rect
     x="71"
     y="575"
     width="52"
     height="32"
     rx="10"
     id="rect46" />
  <rect
     x="69"
     y="573"
     width="52"
     height="32"
     class="terminal"
     rx="10"
     id="rect47" />
  <text
     class="terminal"
     x="79"
     y="593"
     id="text47">alter</text>
  <rect
     x="71"
     y="619"
     width="50"
     height="32"
     rx="10"
     id="rect48" />
  <rect
     x="69"
     y="617"
     width="50"
     height="32"
     class="terminal"
     rx="10"
     id="rect49" />
  <text
     class="terminal"
     x="79"
     y="637"
     id="text49">drop</text>
  <rect
     x="71"
     y="663"
     width="50"
     height="32"
     rx="10"
     id="rect50" />
  <rect
     x="69"
     y="661"
     width="50"
     height="32"
     class="terminal"
     rx="10"
     id="rect51" />
  <text
     class="terminal"
     x="79"
     y="681"
     id="text51">read</text>
  <rect
     x="71"
     y="707"
     width="56"
     height="32"
     rx="10"
     id="rect52" />
  <rect
     x="69"
     y="705"
     width="56"
     height="32"
     class="terminal"
     rx="10"
     id="rect53" />
  <text
     class="terminal"
     x="79"
     y="725"
     id="text53">write</text>
  <rect
     x="167"
     y="575"
     width="36"
     height="32"
     rx="10"
     id="rect54" />
  <rect
     x="165"
     y="573"
     width="36"
     height="32"
     class="terminal"
     rx="10"
     id="rect55" />
  <text
     class="terminal"
     x="175"
     y="593"
     id="text55">on</text>
  <rect
     x="243"
     y="607"
     width="54"
     height="32"
     rx="10"
     id="rect56" />
  <rect
     x="241"
     y="605"
     width="54"
     height="32"
     class="terminal"
     rx="10"
     id="rect57" />
  <text
     class="terminal"
     x="251"
     y="625"
     id="text57">table</text>
  <a
     xlink:href="#name"
     xlink:title="table"
     id="a59">
    <rect
       x="337"
       y="575"
       width="52"
       height="32"
       id="rect58" />
    <rect
       x="335"
       y="573"
       width="52"
       height="32"
       class="nonterminal"
       id="rect59" />
    <text
       class="nonterminal"
       x="345"
       y="593"
       id="text59">table</text>
  </a>
  <a
     xlink:href="#name"
     xlink:title="role"
     id="a61">
    <rect
       x="51"
       y="751"
       width="44"
       height="32"
       id="rect60" />
    <rect
       x="49"
       y="749"
       width="44"
       height="32"
       class="nonterminal"
       id="rect61" />
    <text
       class="nonterminal"
       x="59"
       y="769"
       id="text61">role</text>
  </a>
  <path
     class="line"
     d="m17 17 h2 m40 0 h10 m62 0 h10 m-102 0 h20 m82 0 h20 m-122 0 q10 0 10 10 m102 0 q0 -10 10 -10 m-112 10 v24 m102 0 v-24 m-102 24 q0 10 10 10 m82 0 q10 0 10 -10 m-92 10 h10 m52 0 h10 m0 0 h10 m-92 -10 v20 m102 0 v-20 m-102 20 v24 m102 0 v-24 m-102 24 q0 10 10 10 m82 0 q10 0 10 -10 m-92 10 h10 m50 0 h10 m0 0 h12 m20 -88 h10 m50 0 h10 m0 0 h194 m-406 0 h20 m386 0 h20 m-426 0 q10 0 10 10 m406 0 q0 -10 10 -10 m-416 10 v112 m406 0 v-112 m-406 112 q0 10 10 10 m386 0 q10 0 10 -10 m-356 10 h10 m52 0 h10 m-92 0 h20 m72 0 h20 m-112 0 q10 0 10 10 m92 0 q0 -10 10 -10 m-102 10 v24 m92 0 v-24 m-92 24 q0 10 10 10 m72 0 q10 0 10 -10 m-82 10 h10 m50 0 h10 m0 0 h2 m20 -44 h10 m36 0 h10 m0 0 h10 m50 0 h10 m-258 0 h20 m238 0 h20 m-278 0 q10 0 10 10 m258 0 q0 -10 10 -10 m-268 10 v68 m258 0 v-68 m-258 68 q0 10 10 10 m238 0 q10 0 10 -10 m-248 10 h10 m50 0 h10 m0 0 h10 m36 0 h10 m0 0 h10 m46 0 h10 m0 0 h46 m40 -88 h10 m44 0 h10 m0 0 h4 m-88 0 h20 m68 0 h20 m-108 0 q10 0 10 10 m88 0 q0 -10 10 -10 m-98 10 v24 m88 0 v-24 m-88 24 q0 10 10 10 m68 0 q10 0 10 -10 m-78 10 h10 m48 0 h10 m-376 -54 v20 m406 0 v-20 m-406 20 v112 m406 0 v-112 m-406 112 q0 10 10 10 m386 0 q10 0 10 -10 m-376 10 h10 m62 0 h10 m-102 0 h20 m82 0 h20 m-122 0 q10 0 10 10 m102 0 q0 -10 10 -10 m-112 10 v24 m102 0 v-24 m-102 24 q0 10 10 10 m82 0 q10 0 10 -10 m-92 10 h10 m50 0 h10 m0 0 h12 m20 -44 h10 m46 0 h10 m0 0 h198 m-396 -10 v20 m406 0 v-20 m-406 20 v68 m406 0 v-68 m-406 68 q0 10 10 10 m386 0 q10 0 10 -10 m-376 10 h10 m50 0 h10 m0 0 h12 m-102 0 h20 m82 0 h20 m-122 0 q10 0 10 10 m102 0 q0 -10 10 -10 m-112 10 v24 m102 0 v-24 m-102 24 q0 10 10 10 m82 0 q10 0 10 -10 m-92 10 h10 m56 0 h10 m0 0 h6 m-92 -10 v20 m102 0 v-20 m-102 20 v24 m102 0 v-24 m-102 24 q0 10 10 10 m82 0 q10 0 10 -10 m-92 10 h10 m62 0 h10 m-92 -10 v20 m102 0 v-20 m-102 20 v24 m102 0 v-24 m-102 24 q0 10 10 10 m82 0 q10 0 10 -10 m-92 10 h10 m52 0 h10 m0 0 h10 m-92 -10 v20 m102 0 v-20 m-102 20 v24 m102 0 v-24 m-102 24 q0 10 10 10 m82 0 q10 0 10 -10 m-92 10 h10 m50 0 h10 m0 0 h12 m20 -176 h10 m54 0 h10 m0 0 h190 m-396 -10 v20 m406 0 v-20 m-406 20 v200 m406 0 v-200 m-406 200 q0 10 10 10 m386 0 q10 0 10 -10 m-376 10 h10 m52 0 h10 m0 0 h4 m-96 0 h20 m76 0 h20 m-116 0 q10 0 10 10 m96 0 q0 -10 10 -10 m-106 10 v24 m96 0 v-24 m-96 24 q0 10 10 10 m76 0 q10 0 10 -10 m-86 10 h10 m50 0 h10 m0 0 h6 m-86 -10 v20 m96 0 v-20 m-96 20 v24 m96 0 v-24 m-96 24 q0 10 10 10 m76 0 q10 0 10 -10 m-86 10 h10 m50 0 h10 m0 0 h6 m-86 -10 v20 m96 0 v-20 m-96 20 v24 m96 0 v-24 m-96 24 q0 10 10 10 m76 0 q10 0 10 -10 m-86 10 h10 m56 0 h10 m20 -132 h10 m36 0 h10 m20 0 h10 m0 0 h64 m-94 0 h20 m74 0 h20 m-114 0 q10 0 10 10 m94 0 q0 -10 10 -10 m-104 10 v12 m94 0 v-12 m-94 12 q0 10 10 10 m74 0 q10 0 10 -10 m-84 10 h10 m54 0 h10 m20 -32 h10 m52 0 h10 m0 0 h28 m-396 -10 v20 m406 0 v-20 m-406 20 v156 m406 0 v-156 m-406 156 q0 10 10 10 m386 0 q10 0 10 -10 m-396 10 h10 m44 0 h10 m0 0 h322 m23 -748 h-3"
     id="path61" />
  <polygon
     points="455 17 463 13 463 21"
     id="polygon61" />
  <polygon
     points="455 17 447 13 447 21"
     id="polygon62" />
</svg>
