<?xml version="1.0" encoding="UTF-8" standalone="no"?>
<svg
   width="465"
   height="785"
   version="1.1"
   id="svg62"
   sodipodi:docname="Privilege.svg"
   inkscape:version="1.3.1 (91b66b0783, 2023-11-16)"
   xmlns:inkscape="http://www.inkscape.org/namespaces/inkscape"
   xmlns:sodipodi="http://sodipodi.sourceforge.net/DTD/sodipodi-0.dtd"
   xmlns:xlink="http://www.w3.org/1999/xlink"
   xmlns="http://www.w3.org/2000/svg"
   xmlns:svg="http://www.w3.org/2000/svg">
  <sodipodi:namedview
     id="namedview62"
     pagecolor="#ffffff"
     bordercolor="#666666"
     borderopacity="1.0"
     inkscape:showpageshadow="2"
     inkscape:pageopacity="0.0"
     inkscape:pagecheckerboard="0"
     inkscape:deskcolor="#d1d1d1"
     inkscape:zoom="1.0280255"
     inkscape:cx="232.97087"
     inkscape:cy="391.52725"
     inkscape:window-width="1920"
     inkscape:window-height="1032"
     inkscape:window-x="0"
     inkscape:window-y="25"
     inkscape:window-maximized="1"
     inkscape:current-layer="svg62" />
  <defs
     id="defs1">
    <style
       type="text/css"
       id="style1">@namespace &quot;http://www.w3.org/2000/svg&quot;;.line { fill: none; stroke: #330000; stroke-width: 1; }
.bold-line { stroke: #140000; shape-rendering: crispEdges; stroke-width: 2; }
.thin-line { stroke: #1F0000; shape-rendering: crispEdges }
.filled { fill: #330000; stroke: none; }
text.terminal { font-family: HelveticaNeueCyr, Sans-serif;                            font-size: 14px;                            fill: #140000;                            font-weight: bold; }
text.nonterminal { font-family: HelveticaNeueCyr, Sans-serif;                            font-size: 14px;                            fill: #1A0000;                            font-weight: normal; }
text.regexp { font-family: HelveticaNeueCyr, Sans-serif;                            font-size: 14px;                            fill: #1F0000;                            font-weight: normal; }
rect, circle, polygon { fill: #330000; stroke: #330000; }
rect.terminal { fill: #FF4D4D; stroke: #330000; stroke-width: 1; }
rect.nonterminal { fill: #FF9E9E; stroke: #330000; stroke-width: 1; }
rect.text { fill: none; stroke: none; }
polygon.regexp { fill: #FFC7C7; stroke: #330000; stroke-width: 1; }
</style>
  </defs>
  <path
     id="polygon1"
     style="fill:#330000;stroke:#330000"
     d="M 9,17 1,13 v 8 z" />
  <path
     id="polygon2"
     style="fill:#330000;stroke:#330000"
     d="M 17,17 9,13 v 8 z" />
  <path
     id="rect2"
     style="fill:#330000;stroke:#330000"
     d="m 81,3 h 42 c 5.54,0 10,4.46 10,10 v 12 c 0,5.54 -4.46,10 -10,10 H 81 C 75.46,35 71,30.54 71,25 V 13 C 71,7.46 75.46,3 81,3 Z" />
  <path
     id="rect3"
     class="terminal"
     style="fill:#ff4d4d;stroke:#330000"
     d="m 79,1 h 42 c 5.54,0 10,4.46 10,10 v 12 c 0,5.54 -4.46,10 -10,10 H 79 C 73.46,33 69,28.54 69,23 V 11 C 69,5.46 73.46,1 79,1 Z" />
  <path
     d="m 86.644,18.214 h -1.918 c -0.154,0.952 -0.686,1.456 -1.54,1.456 -1.064,0 -1.68,-0.826 -1.68,-2.268 0,-1.484 0.644,-2.352 1.722,-2.352 0.77,0 1.288,0.448 1.428,1.246 h 1.946 c -0.168,-1.68 -1.456,-2.73 -3.388,-2.73 -2.24,0 -3.71,1.54 -3.71,3.878 0,2.254 1.456,3.738 3.682,3.738 1.918,0 3.206,-1.092 3.458,-2.968 z m 5.837992,-4.564 c -0.196,-0.028 -0.28,-0.042 -0.434,-0.042 -1.078,0 -1.89,0.56 -2.338,1.498 v -1.33 h -1.89 V 21 h 1.988 v -3.304 c 0,-1.316 0.532,-2.296 1.904,-2.296 0.224,0 0.42,0.014 0.77,0.084 z m 7.294004,5.11 h -1.904 c -0.294,0.728 -0.742,1.05 -1.47,1.05 -1.064,0 -1.666,-0.672 -1.694,-1.918 h 5.18 v -0.196 c 0,-2.534 -1.386,-4.13 -3.57,-4.13 -2.1,0 -3.626,1.624 -3.626,3.864 0,2.268 1.47,3.78 3.696,3.78 1.638,0 2.94,-0.882 3.388,-2.45 z m -1.904,-2.128 h -3.164 c 0.112,-1.008 0.728,-1.624 1.61,-1.624 0.994,0 1.47,0.742 1.554,1.624 z M 107.74199,21 c -0.266,-0.616 -0.252,-1.302 -0.252,-1.96 v -3.122 c 0,-2.016 -1.694,-2.352 -3.15,-2.352 -2.086,0 -3.234,0.826 -3.346,2.436 h 1.862 c 0.14,-0.826 0.518,-1.106 1.428,-1.106 0.882,0 1.302,0.308 1.302,0.966 0,0.588 -0.476,0.7 -1.764,0.868 -1.428,0.182 -3.15,0.406 -3.15,2.296 0,1.358 0.98,2.184 2.576,2.184 0.868,0 1.722,-0.294 2.338,-0.91 0.028,0.322 0.042,0.434 0.14,0.7 z m -2.17,-3.514 v 0.812 c 0,1.036 -0.728,1.61 -1.764,1.61 -0.686,0 -1.092,-0.364 -1.092,-0.966 0,-0.882 0.77,-0.966 1.456,-1.078 0.504,-0.084 0.938,-0.112 1.4,-0.378 z m 7.46199,-3.71 h -1.47 v -2.184 h -1.974 v 2.184 h -1.204 v 1.344 h 1.204 v 3.752 c 0,1.764 0.532,2.212 2.24,2.212 0.448,0 0.658,-0.014 1.204,-0.056 v -1.512 c -0.238,0.028 -0.392,0.028 -0.602,0.028 -0.854,0 -0.868,-0.322 -0.868,-1.022 V 15.12 h 1.47 z m 7.74199,4.984 h -1.904 c -0.294,0.728 -0.742,1.05 -1.47,1.05 -1.064,0 -1.666,-0.672 -1.694,-1.918 h 5.18 v -0.196 c 0,-2.534 -1.386,-4.13 -3.57,-4.13 -2.1,0 -3.626,1.624 -3.626,3.864 0,2.268 1.47,3.78 3.696,3.78 1.638,0 2.94,-0.882 3.388,-2.45 z m -1.904,-2.128 h -3.164 c 0.112,-1.008 0.728,-1.624 1.61,-1.624 0.994,0 1.47,0.742 1.554,1.624 z"
     id="text3"
     class="terminal"
     style="font-weight:bold;font-size:14px;font-family:HelveticaNeueCyr, Sans-serif;fill:#140000"
     aria-label="create" />
  <path
     id="rect4"
     style="fill:#330000;stroke:#330000"
     d="m 81,47 h 32 c 5.54,0 10,4.46 10,10 v 12 c 0,5.54 -4.46,10 -10,10 H 81 C 75.46,79 71,74.54 71,69 V 57 c 0,-5.54 4.46,-10 10,-10 z" />
  <path
     id="rect5"
     class="terminal"
     style="fill:#ff4d4d;stroke:#330000"
     d="m 79,45 h 32 c 5.54,0 10,4.46 10,10 v 12 c 0,5.54 -4.46,10 -10,10 H 79 C 73.46,77 69,72.54 69,67 V 55 c 0,-5.54 4.46,-10 10,-10 z" />
  <path
     d="M 86.476,65 C 86.21,64.384 86.224,63.698 86.224,63.04 v -3.122 c 0,-2.016 -1.694,-2.352 -3.15,-2.352 -2.086,0 -3.234,0.826 -3.346,2.436 h 1.862 c 0.14,-0.826 0.518,-1.106 1.428,-1.106 0.882,0 1.302,0.308 1.302,0.966 0,0.588 -0.476,0.7 -1.764,0.868 -1.428,0.182 -3.15,0.406 -3.15,2.296 0,1.358 0.98,2.184 2.576,2.184 0.868,0 1.722,-0.294 2.338,-0.91 0.028,0.322 0.042,0.434 0.14,0.7 z m -2.17,-3.514 v 0.812 c 0,1.036 -0.728,1.61 -1.764,1.61 -0.686,0 -1.092,-0.364 -1.092,-0.966 0,-0.882 0.77,-0.966 1.456,-1.078 0.504,-0.084 0.938,-0.112 1.4,-0.378 z m 5.529992,-6.454 h -1.988 V 65 h 1.988 z m 5.543992,2.744 h -1.47 v -2.184 h -1.974 v 2.184 h -1.204 v 1.344 h 1.204 v 3.752 c 0,1.764 0.532,2.212 2.24,2.212 0.448,0 0.658,-0.014 1.204,-0.056 v -1.512 c -0.238,0.028 -0.392,0.028 -0.602,0.028 -0.854,0 -0.868,-0.322 -0.868,-1.022 V 59.12 h 1.47 z m 7.741986,4.984 h -1.904 c -0.294,0.728 -0.742,1.05 -1.469996,1.05 -1.064,0 -1.666,-0.672 -1.694,-1.918 h 5.179996 v -0.196 c 0,-2.534 -1.386,-4.13 -3.569996,-4.13 -2.1,0 -3.626,1.624 -3.626,3.864 0,2.268 1.47,3.78 3.696,3.78 1.637996,0 2.939996,-0.882 3.387996,-2.45 z m -1.904,-2.128 h -3.163996 c 0.112,-1.008 0.728,-1.624 1.61,-1.624 0.993996,0 1.469996,0.742 1.553996,1.624 z m 7.84,-2.982 c -0.196,-0.028 -0.28,-0.042 -0.434,-0.042 -1.078,0 -1.89,0.56 -2.338,1.498 v -1.33 h -1.89 V 65 h 1.988 v -3.304 c 0,-1.316 0.532,-2.296 1.904,-2.296 0.224,0 0.42,0.014 0.77,0.084 z"
     id="text5"
     class="terminal"
     style="font-weight:bold;font-size:14px;font-family:HelveticaNeueCyr, Sans-serif;fill:#140000"
     aria-label="alter" />
  <path
     id="rect6"
     style="fill:#330000;stroke:#330000"
     d="m 81,91 h 30 c 5.54,0 10,4.46 10,10 v 12 c 0,5.54 -4.46,10 -10,10 H 81 c -5.54,0 -10,-4.46 -10,-10 v -12 c 0,-5.54 4.46,-10 10,-10 z" />
  <path
     id="rect7"
     class="terminal"
     style="fill:#ff4d4d;stroke:#330000"
     d="m 79,89 h 30 c 5.54,0 10,4.46 10,10 v 12 c 0,5.54 -4.46,10 -10,10 H 79 c -5.54,0 -10,-4.46 -10,-10 V 99 c 0,-5.54 4.46,-10 10,-10 z" />
  <path
     d="m 86.798,109 v -9.968 h -1.974 v 3.64 c -0.462,-0.742 -1.344,-1.092 -2.198,-1.092 -1.918,0 -3.164,1.498 -3.164,3.78 0,2.338 1.274,3.836 3.276,3.836 0.994,0 1.708,-0.378 2.184,-1.12 V 109 Z m -1.904,-3.626 c 0,1.414 -0.63,2.226 -1.722,2.226 -1.064,0 -1.708,-0.84 -1.708,-2.24 0,-1.386 0.63,-2.212 1.708,-2.212 1.078,0 1.722,0.826 1.722,2.226 z m 8.106001,-3.724 c -0.196,-0.028 -0.28,-0.042 -0.434,-0.042 -1.078,0 -1.89,0.56 -2.338,1.498 v -1.33 h -1.89 V 109 h 1.988 v -3.304 c 0,-1.316 0.532,-2.296 1.904,-2.296 0.224,0 0.42,0.014 0.77,0.084 z m 4.060004,-0.084 c -2.268,0 -3.766,1.526 -3.766,3.822 0,2.31 1.484,3.836 3.738,3.836 2.254,0 3.723995,-1.512 3.723995,-3.836 0,-2.296 -1.469995,-3.822 -3.695995,-3.822 z m -0.056,1.512 c 1.106,0 1.764,0.854 1.764,2.296 0,1.484 -0.644,2.352 -1.736,2.352 -1.106,0 -1.75,-0.854 -1.75,-2.338 0,-1.442 0.658,-2.31 1.722,-2.31 z m 6.930005,-1.302 h -1.876 v 9.786 h 1.974 v -3.458 c 0.532,0.742 1.316,1.078 2.226,1.078 1.89,0 3.136,-1.484 3.136,-3.752 0,-2.324 -1.274,-3.85 -3.22,-3.85 -0.924,0 -1.708,0.35 -2.24,1.092 z m 1.75,1.4 c 1.064,0 1.722,0.84 1.722,2.254 0,1.372 -0.644,2.198 -1.708,2.198 -1.092,0 -1.736,-0.826 -1.736,-2.226 0,-1.4 0.644,-2.226 1.722,-2.226 z"
     id="text7"
     class="terminal"
     style="font-weight:bold;font-size:14px;font-family:HelveticaNeueCyr, Sans-serif;fill:#140000"
     aria-label="drop" />
  <path
     id="rect8"
     style="fill:#330000;stroke:#330000"
     d="m 183,3 h 30 c 5.54,0 10,4.46 10,10 v 12 c 0,5.54 -4.46,10 -10,10 h -30 c -5.54,0 -10,-4.46 -10,-10 V 13 c 0,-5.54 4.46,-10 10,-10 z" />
  <path
     id="rect9"
     class="terminal"
     style="fill:#ff4d4d;stroke:#330000"
     d="m 181,1 h 30 c 5.54,0 10,4.46 10,10 v 12 c 0,5.54 -4.46,10 -10,10 h -30 c -5.54,0 -10,-4.46 -10,-10 V 11 c 0,-5.54 4.46,-10 10,-10 z" />
  <path
     d="m 188.532,13.776 h -1.974 V 17.5 c 0,1.092 -0.322,2.044 -1.568,2.044 -1.134,0 -1.218,-0.728 -1.218,-1.638 v -4.13 h -2.002 v 4.858 c 0,1.722 0.966,2.576 2.52,2.576 1.036,0 1.806,-0.434 2.352,-1.232 V 21 h 1.89 z m 7.63001,2.1 c -0.056,-1.68 -1.484,-2.31 -3.136,-2.31 -2.016,0 -3.164,0.798 -3.164,2.212 0,1.722 1.68,1.918 2.968,2.212 1.036,0.238 1.624,0.35 1.624,0.966 0,0.546 -0.504,0.896 -1.316,0.896 -0.91,0 -1.47,-0.336 -1.54,-1.204 h -1.89 c 0.028,1.848 1.582,2.562 3.388,2.562 2.058,0 3.304,-0.938 3.304,-2.45 0,-1.638 -1.512,-1.974 -2.814,-2.24 -1.148,-0.238 -1.764,-0.322 -1.764,-0.924 0,-0.448 0.42,-0.714 1.12,-0.714 0.798,0 1.26,0.238 1.372,0.994 z m 8.204,2.884 h -1.904 c -0.294,0.728 -0.742,1.05 -1.47,1.05 -1.064,0 -1.666,-0.672 -1.694,-1.918 h 5.18 v -0.196 c 0,-2.534 -1.386,-4.13 -3.57,-4.13 -2.1,0 -3.626,1.624 -3.626,3.864 0,2.268 1.47,3.78 3.696,3.78 1.638,0 2.94,-0.882 3.388,-2.45 z m -1.904,-2.128 h -3.164 c 0.112,-1.008 0.728,-1.624 1.61,-1.624 0.994,0 1.47,0.742 1.554,1.624 z m 7.84,-2.982 c -0.196,-0.028 -0.28,-0.042 -0.434,-0.042 -1.078,0 -1.89,0.56 -2.338,1.498 v -1.33 h -1.89 V 21 h 1.988 v -3.304 c 0,-1.316 0.532,-2.296 1.904,-2.296 0.224,0 0.42,0.014 0.77,0.084 z"
     id="text9"
     class="terminal"
     style="font-weight:bold;font-size:14px;font-family:HelveticaNeueCyr, Sans-serif;fill:#140000"
     aria-label="user" />
  <path
     id="rect10"
     style="fill:#330000;stroke:#330000"
     d="m 101,135 h 32 c 5.54,0 10,4.46 10,10 v 12 c 0,5.54 -4.46,10 -10,10 h -32 c -5.54,0 -10,-4.46 -10,-10 v -12 c 0,-5.54 4.46,-10 10,-10 z" />
  <path
     id="rect11"
     class="terminal"
     style="fill:#ff4d4d;stroke:#330000"
     d="m 99,133 h 32 c 5.54,0 10,4.46 10,10 v 12 c 0,5.54 -4.46,10 -10,10 H 99 c -5.54,0 -10,-4.46 -10,-10 v -12 c 0,-5.54 4.46,-10 10,-10 z" />
  <path
     d="m 106.476,153 c -0.266,-0.616 -0.252,-1.302 -0.252,-1.96 v -3.122 c 0,-2.016 -1.694,-2.352 -3.15,-2.352 -2.086,0 -3.234,0.826 -3.346,2.436 h 1.862 c 0.14,-0.826 0.518,-1.106 1.428,-1.106 0.882,0 1.302,0.308 1.302,0.966 0,0.588 -0.476,0.7 -1.764,0.868 -1.428,0.182 -3.15,0.406 -3.15,2.296 0,1.358 0.98,2.184 2.576,2.184 0.868,0 1.722,-0.294 2.338,-0.91 0.028,0.322 0.042,0.434 0.14,0.7 z m -2.17,-3.514 v 0.812 c 0,1.036 -0.728,1.61 -1.764,1.61 -0.686,0 -1.092,-0.364 -1.092,-0.966 0,-0.882 0.77,-0.966 1.456,-1.078 0.504,-0.084 0.938,-0.112 1.4,-0.378 z m 5.52999,-6.454 h -1.988 V 153 h 1.988 z m 5.54399,2.744 h -1.47 v -2.184 h -1.974 v 2.184 h -1.204 v 1.344 h 1.204 v 3.752 c 0,1.764 0.532,2.212 2.24,2.212 0.448,0 0.658,-0.014 1.204,-0.056 v -1.512 c -0.238,0.028 -0.392,0.028 -0.602,0.028 -0.854,0 -0.868,-0.322 -0.868,-1.022 v -3.402 h 1.47 z m 7.74199,4.984 h -1.904 c -0.294,0.728 -0.742,1.05 -1.47,1.05 -1.064,0 -1.666,-0.672 -1.694,-1.918 h 5.18 v -0.196 c 0,-2.534 -1.386,-4.13 -3.57,-4.13 -2.1,0 -3.626,1.624 -3.626,3.864 0,2.268 1.47,3.78 3.696,3.78 1.638,0 2.94,-0.882 3.388,-2.45 z m -1.904,-2.128 h -3.164 c 0.112,-1.008 0.728,-1.624 1.61,-1.624 0.994,0 1.47,0.742 1.554,1.624 z m 7.84,-2.982 c -0.196,-0.028 -0.28,-0.042 -0.434,-0.042 -1.078,0 -1.89,0.56 -2.338,1.498 v -1.33 h -1.89 V 153 h 1.988 v -3.304 c 0,-1.316 0.532,-2.296 1.904,-2.296 0.224,0 0.42,0.014 0.77,0.084 z"
     id="text11"
     class="terminal"
     style="font-weight:bold;font-size:14px;font-family:HelveticaNeueCyr, Sans-serif;fill:#140000"
     aria-label="alter" />
  <path
     id="rect12"
     style="fill:#330000;stroke:#330000"
     d="m 101,179 h 30 c 5.54,0 10,4.46 10,10 v 12 c 0,5.54 -4.46,10 -10,10 h -30 c -5.54,0 -10,-4.46 -10,-10 v -12 c 0,-5.54 4.46,-10 10,-10 z" />
  <path
     id="rect13"
     class="terminal"
     style="fill:#ff4d4d;stroke:#330000"
     d="m 99,177 h 30 c 5.54,0 10,4.46 10,10 v 12 c 0,5.54 -4.46,10 -10,10 H 99 c -5.54,0 -10,-4.46 -10,-10 v -12 c 0,-5.54 4.46,-10 10,-10 z" />
  <path
     d="m 106.798,197 v -9.968 h -1.974 v 3.64 c -0.462,-0.742 -1.344,-1.092 -2.198,-1.092 -1.918,0 -3.164,1.498 -3.164,3.78 0,2.338 1.274,3.836 3.276,3.836 0.994,0 1.708,-0.378 2.184,-1.12 V 197 Z m -1.904,-3.626 c 0,1.414 -0.63,2.226 -1.722,2.226 -1.064,0 -1.708,-0.84 -1.708,-2.24 0,-1.386 0.63,-2.212 1.708,-2.212 1.078,0 1.722,0.826 1.722,2.226 z M 113,189.65 c -0.196,-0.028 -0.28,-0.042 -0.434,-0.042 -1.078,0 -1.89,0.56 -2.338,1.498 v -1.33 h -1.89 V 197 h 1.988 v -3.304 c 0,-1.316 0.532,-2.296 1.904,-2.296 0.224,0 0.42,0.014 0.77,0.084 z m 4.06,-0.084 c -2.268,0 -3.766,1.526 -3.766,3.822 0,2.31 1.484,3.836 3.738,3.836 2.254,0 3.724,-1.512 3.724,-3.836 0,-2.296 -1.47,-3.822 -3.696,-3.822 z m -0.056,1.512 c 1.106,0 1.764,0.854 1.764,2.296 0,1.484 -0.644,2.352 -1.736,2.352 -1.106,0 -1.75,-0.854 -1.75,-2.338 0,-1.442 0.658,-2.31 1.722,-2.31 z m 6.93001,-1.302 h -1.876 v 9.786 h 1.974 v -3.458 c 0.532,0.742 1.316,1.078 2.226,1.078 1.89,0 3.136,-1.484 3.136,-3.752 0,-2.324 -1.274,-3.85 -3.22,-3.85 -0.924,0 -1.708,0.35 -2.24,1.092 z m 1.75,1.4 c 1.064,0 1.722,0.84 1.722,2.254 0,1.372 -0.644,2.198 -1.708,2.198 -1.092,0 -1.736,-0.826 -1.736,-2.226 0,-1.4 0.644,-2.226 1.722,-2.226 z"
     id="text13"
     class="terminal"
     style="font-weight:bold;font-size:14px;font-family:HelveticaNeueCyr, Sans-serif;fill:#140000"
     aria-label="drop" />
  <path
     id="rect14"
     style="fill:#330000;stroke:#330000"
     d="m 193,135 h 16 c 5.54,0 10,4.46 10,10 v 12 c 0,5.54 -4.46,10 -10,10 h -16 c -5.54,0 -10,-4.46 -10,-10 v -12 c 0,-5.54 4.46,-10 10,-10 z" />
  <path
     id="rect15"
     class="terminal"
     style="fill:#ff4d4d;stroke:#330000"
     d="m 191,133 h 16 c 5.54,0 10,4.46 10,10 v 12 c 0,5.54 -4.46,10 -10,10 h -16 c -5.54,0 -10,-4.46 -10,-10 v -12 c 0,-5.54 4.46,-10 10,-10 z" />
  <path
     d="m 195.312,145.566 c -2.268,0 -3.766,1.526 -3.766,3.822 0,2.31 1.484,3.836 3.738,3.836 2.254,0 3.724,-1.512 3.724,-3.836 0,-2.296 -1.47,-3.822 -3.696,-3.822 z m -0.056,1.512 c 1.106,0 1.764,0.854 1.764,2.296 0,1.484 -0.644,2.352 -1.736,2.352 -1.106,0 -1.75,-0.854 -1.75,-2.338 0,-1.442 0.658,-2.31 1.722,-2.31 z M 207.114,153 v -4.83 c 0,-1.68 -0.98,-2.59 -2.506,-2.59 -1.022,0 -1.82,0.434 -2.394,1.204 v -1.008 h -1.89 V 153 h 1.974 v -3.878 c 0,-1.05 0.378,-1.904 1.568,-1.904 1.064,0 1.232,0.672 1.232,1.568 V 153 Z"
     id="text15"
     class="terminal"
     style="font-weight:bold;font-size:14px;font-family:HelveticaNeueCyr, Sans-serif;fill:#140000"
     aria-label="on" />
  <path
     id="rect16"
     style="fill:#330000;stroke:#330000"
     d="m 249,135 h 30 c 5.54,0 10,4.46 10,10 v 12 c 0,5.54 -4.46,10 -10,10 h -30 c -5.54,0 -10,-4.46 -10,-10 v -12 c 0,-5.54 4.46,-10 10,-10 z" />
  <path
     id="rect17"
     class="terminal"
     style="fill:#ff4d4d;stroke:#330000"
     d="m 247,133 h 30 c 5.54,0 10,4.46 10,10 v 12 c 0,5.54 -4.46,10 -10,10 h -30 c -5.54,0 -10,-4.46 -10,-10 v -12 c 0,-5.54 4.46,-10 10,-10 z" />
  <path
     d="m 254.532,145.776 h -1.974 v 3.724 c 0,1.092 -0.322,2.044 -1.568,2.044 -1.134,0 -1.218,-0.728 -1.218,-1.638 v -4.13 h -2.002 v 4.858 c 0,1.722 0.966,2.576 2.52,2.576 1.036,0 1.806,-0.434 2.352,-1.232 V 153 h 1.89 z m 7.63001,2.1 c -0.056,-1.68 -1.484,-2.31 -3.136,-2.31 -2.016,0 -3.164,0.798 -3.164,2.212 0,1.722 1.68,1.918 2.968,2.212 1.036,0.238 1.624,0.35 1.624,0.966 0,0.546 -0.504,0.896 -1.316,0.896 -0.91,0 -1.47,-0.336 -1.54,-1.204 h -1.89 c 0.028,1.848 1.582,2.562 3.388,2.562 2.058,0 3.304,-0.938 3.304,-2.45 0,-1.638 -1.512,-1.974 -2.814,-2.24 -1.148,-0.238 -1.764,-0.322 -1.764,-0.924 0,-0.448 0.42,-0.714 1.12,-0.714 0.798,0 1.26,0.238 1.372,0.994 z m 8.204,2.884 h -1.904 c -0.294,0.728 -0.742,1.05 -1.47,1.05 -1.064,0 -1.666,-0.672 -1.694,-1.918 h 5.18 v -0.196 c 0,-2.534 -1.386,-4.13 -3.57,-4.13 -2.1,0 -3.626,1.624 -3.626,3.864 0,2.268 1.47,3.78 3.696,3.78 1.638,0 2.94,-0.882 3.388,-2.45 z m -1.904,-2.128 h -3.164 c 0.112,-1.008 0.728,-1.624 1.61,-1.624 0.994,0 1.47,0.742 1.554,1.624 z m 7.84,-2.982 c -0.196,-0.028 -0.28,-0.042 -0.434,-0.042 -1.078,0 -1.89,0.56 -2.338,1.498 v -1.33 h -1.89 V 153 h 1.988 v -3.304 c 0,-1.316 0.532,-2.296 1.904,-2.296 0.224,0 0.42,0.014 0.77,0.084 z"
     id="text17"
     class="terminal"
     style="font-weight:bold;font-size:14px;font-family:HelveticaNeueCyr, Sans-serif;fill:#140000"
     aria-label="user" />
  <path
     id="rect18"
     style="fill:#330000;stroke:#330000"
     d="m 81,223 h 30 c 5.54,0 10,4.46 10,10 v 12 c 0,5.54 -4.46,10 -10,10 H 81 c -5.54,0 -10,-4.46 -10,-10 v -12 c 0,-5.54 4.46,-10 10,-10 z" />
  <path
     id="rect19"
     class="terminal"
     style="fill:#ff4d4d;stroke:#330000"
     d="m 79,221 h 30 c 5.54,0 10,4.46 10,10 v 12 c 0,5.54 -4.46,10 -10,10 H 79 c -5.54,0 -10,-4.46 -10,-10 v -12 c 0,-5.54 4.46,-10 10,-10 z" />
  <path
     d="m 86.798,241 v -9.968 h -1.974 v 3.64 c -0.462,-0.742 -1.344,-1.092 -2.198,-1.092 -1.918,0 -3.164,1.498 -3.164,3.78 0,2.338 1.274,3.836 3.276,3.836 0.994,0 1.708,-0.378 2.184,-1.12 V 241 Z m -1.904,-3.626 c 0,1.414 -0.63,2.226 -1.722,2.226 -1.064,0 -1.708,-0.84 -1.708,-2.24 0,-1.386 0.63,-2.212 1.708,-2.212 1.078,0 1.722,0.826 1.722,2.226 z m 8.106001,-3.724 c -0.196,-0.028 -0.28,-0.042 -0.434,-0.042 -1.078,0 -1.89,0.56 -2.338,1.498 v -1.33 h -1.89 V 241 h 1.988 v -3.304 c 0,-1.316 0.532,-2.296 1.904,-2.296 0.224,0 0.42,0.014 0.77,0.084 z m 4.060004,-0.084 c -2.268,0 -3.766,1.526 -3.766,3.822 0,2.31 1.484,3.836 3.738,3.836 2.254,0 3.723995,-1.512 3.723995,-3.836 0,-2.296 -1.469995,-3.822 -3.695995,-3.822 z m -0.056,1.512 c 1.106,0 1.764,0.854 1.764,2.296 0,1.484 -0.644,2.352 -1.736,2.352 -1.106,0 -1.75,-0.854 -1.75,-2.338 0,-1.442 0.658,-2.31 1.722,-2.31 z m 6.930005,-1.302 h -1.876 v 9.786 h 1.974 v -3.458 c 0.532,0.742 1.316,1.078 2.226,1.078 1.89,0 3.136,-1.484 3.136,-3.752 0,-2.324 -1.274,-3.85 -3.22,-3.85 -0.924,0 -1.708,0.35 -2.24,1.092 z m 1.75,1.4 c 1.064,0 1.722,0.84 1.722,2.254 0,1.372 -0.644,2.198 -1.708,2.198 -1.092,0 -1.736,-0.826 -1.736,-2.226 0,-1.4 0.644,-2.226 1.722,-2.226 z"
     id="text19"
     class="terminal"
     style="font-weight:bold;font-size:14px;font-family:HelveticaNeueCyr, Sans-serif;fill:#140000"
     aria-label="drop" />
  <path
     id="rect20"
     style="fill:#330000;stroke:#330000"
     d="m 151,223 h 16 c 5.54,0 10,4.46 10,10 v 12 c 0,5.54 -4.46,10 -10,10 h -16 c -5.54,0 -10,-4.46 -10,-10 v -12 c 0,-5.54 4.46,-10 10,-10 z" />
  <path
     id="rect21"
     class="terminal"
     style="fill:#ff4d4d;stroke:#330000"
     d="m 149,221 h 16 c 5.54,0 10,4.46 10,10 v 12 c 0,5.54 -4.46,10 -10,10 h -16 c -5.54,0 -10,-4.46 -10,-10 v -12 c 0,-5.54 4.46,-10 10,-10 z" />
  <path
     d="m 153.312,233.566 c -2.268,0 -3.766,1.526 -3.766,3.822 0,2.31 1.484,3.836 3.738,3.836 2.254,0 3.724,-1.512 3.724,-3.836 0,-2.296 -1.47,-3.822 -3.696,-3.822 z m -0.056,1.512 c 1.106,0 1.764,0.854 1.764,2.296 0,1.484 -0.644,2.352 -1.736,2.352 -1.106,0 -1.75,-0.854 -1.75,-2.338 0,-1.442 0.658,-2.31 1.722,-2.31 z M 165.114,241 v -4.83 c 0,-1.68 -0.98,-2.59 -2.506,-2.59 -1.022,0 -1.82,0.434 -2.394,1.204 v -1.008 h -1.89 V 241 h 1.974 v -3.878 c 0,-1.05 0.378,-1.904 1.568,-1.904 1.064,0 1.232,0.672 1.232,1.568 V 241 Z"
     id="text21"
     class="terminal"
     style="font-weight:bold;font-size:14px;font-family:HelveticaNeueCyr, Sans-serif;fill:#140000"
     aria-label="on" />
  <path
     id="rect22"
     style="fill:#330000;stroke:#330000"
     d="m 207,223 h 26 c 5.54,0 10,4.46 10,10 v 12 c 0,5.54 -4.46,10 -10,10 h -26 c -5.54,0 -10,-4.46 -10,-10 v -12 c 0,-5.54 4.46,-10 10,-10 z" />
  <path
     id="rect23"
     class="terminal"
     style="fill:#ff4d4d;stroke:#330000"
     d="m 205,221 h 26 c 5.54,0 10,4.46 10,10 v 12 c 0,5.54 -4.46,10 -10,10 h -26 c -5.54,0 -10,-4.46 -10,-10 v -12 c 0,-5.54 4.46,-10 10,-10 z" />
  <path
     d="m 210.446,233.65 c -0.196,-0.028 -0.28,-0.042 -0.434,-0.042 -1.078,0 -1.89,0.56 -2.338,1.498 v -1.33 h -1.89 V 241 h 1.988 v -3.304 c 0,-1.316 0.532,-2.296 1.904,-2.296 0.224,0 0.42,0.014 0.77,0.084 z m 4.06,-0.084 c -2.268,0 -3.766,1.526 -3.766,3.822 0,2.31 1.484,3.836 3.738,3.836 2.254,0 3.724,-1.512 3.724,-3.836 0,-2.296 -1.47,-3.822 -3.696,-3.822 z m -0.056,1.512 c 1.106,0 1.764,0.854 1.764,2.296 0,1.484 -0.644,2.352 -1.736,2.352 -1.106,0 -1.75,-0.854 -1.75,-2.338 0,-1.442 0.658,-2.31 1.722,-2.31 z m 7.098,-4.046 H 219.56 V 241 h 1.988 z m 8.358,7.728 h -1.904 c -0.294,0.728 -0.742,1.05 -1.47,1.05 -1.064,0 -1.666,-0.672 -1.694,-1.918 h 5.18 v -0.196 c 0,-2.534 -1.386,-4.13 -3.57,-4.13 -2.1,0 -3.626,1.624 -3.626,3.864 0,2.268 1.47,3.78 3.696,3.78 1.638,0 2.94,-0.882 3.388,-2.45 z m -1.904,-2.128 h -3.164 c 0.112,-1.008 0.728,-1.624 1.61,-1.624 0.994,0 1.47,0.742 1.554,1.624 z"
     id="text23"
     class="terminal"
     style="font-weight:bold;font-size:14px;font-family:HelveticaNeueCyr, Sans-serif;fill:#140000"
     aria-label="role" />
  <a
     xlink:href="#name"
     xlink:title="role"
     id="a25">
    <path
       id="rect24"
       style="fill:#330000;stroke:#330000"
       d="m 349,135 h 44 v 32 h -44 z" />
    <path
       id="rect25"
       class="nonterminal"
       style="fill:#ff9e9e;stroke:#330000"
       d="m 347,133 h 44 v 32 h -44 z" />
    <path
       d="m 361.662,145.608 c -1.288,0 -2.17,0.504 -2.674,1.722 v -1.554 h -1.134 V 153 h 1.19 v -3.052 c 0,-1.624 0.35,-3.122 2.31,-3.122 0.126,0 0.182,0 0.308,0.014 z m 3.80801,-0.042 c -2.184,0 -3.542,1.47 -3.542,3.85 0,2.38 1.316,3.808 3.528,3.808 2.198,0 3.472,-1.428 3.472,-3.878 0,-2.394 -1.274,-3.78 -3.458,-3.78 z m -0.028,0.994 c 1.4,0 2.268,1.092 2.268,2.814 0,1.778 -0.84,2.842 -2.24,2.842 -1.456,0 -2.31,-1.05 -2.31,-2.828 0,-1.722 0.882,-2.828 2.282,-2.828 z m 6.15999,-3.528 h -1.204 V 153 h 1.204 z m 8.022,7.686 h -1.162 c -0.336,1.092 -0.91,1.54 -1.946,1.54 -1.4,0 -2.254,-0.924 -2.254,-2.464 l 0.014,-0.084 h 5.432 v -0.168 c 0,-2.086 -0.896,-3.976 -3.276,-3.976 -2.002,0 -3.36,1.582 -3.36,3.92 0,2.352 1.274,3.752 3.402,3.752 1.708,0 2.786,-0.854 3.15,-2.52 z m -1.148,-1.974 h -4.2 c 0.154,-1.358 0.966,-2.198 2.128,-2.198 1.19,0 1.96,0.826 2.072,2.198 z"
       id="text25"
       class="nonterminal"
       style="font-size:14px;font-family:HelveticaNeueCyr, Sans-serif;fill:#1a0000"
       aria-label="role" />
  </a>
  <a
     xlink:href="#name"
     xlink:title="user"
     id="a27">
    <path
       id="rect26"
       style="fill:#330000;stroke:#330000"
       d="m 349,179 h 48 v 32 h -48 z" />
    <path
       id="rect27"
       class="nonterminal"
       style="fill:#ff9e9e;stroke:#330000"
       d="m 347,177 h 48 v 32 h -48 z" />
    <path
       d="m 363.888,189.776 h -1.19 v 3.78 c 0,1.484 -0.546,2.604 -2.114,2.604 -1.218,0 -1.512,-0.7 -1.512,-1.736 v -4.648 h -1.19 v 4.97 c 0,1.596 0.896,2.45 2.408,2.45 1.064,0 1.862,-0.42 2.492,-1.33 V 197 h 1.106 z m 7.154,2.1 c 0,-1.526 -1.26,-2.31 -2.884,-2.31 -1.68,0 -2.758,0.826 -2.758,2.128 0,1.666 1.666,1.82 2.912,2.128 1.008,0.252 1.82,0.42 1.82,1.218 0,0.728 -0.7,1.204 -1.764,1.204 -1.148,0 -1.89,-0.434 -1.96,-1.526 h -1.176 c 0.07,1.624 1.148,2.506 3.108,2.506 1.806,0 2.996,-0.924 2.996,-2.324 0,-1.568 -1.582,-1.918 -2.8,-2.198 -0.98,-0.224 -1.918,-0.35 -1.918,-1.162 0,-0.602 0.56,-0.98 1.47,-0.98 1.022,0 1.68,0.364 1.764,1.316 z m 7.812,2.842 h -1.162 c -0.336,1.092 -0.91,1.54 -1.946,1.54 -1.4,0 -2.254,-0.924 -2.254,-2.464 l 0.014,-0.084 h 5.432 v -0.168 c 0,-2.086 -0.896,-3.976 -3.276,-3.976 -2.002,0 -3.36,1.582 -3.36,3.92 0,2.352 1.274,3.752 3.402,3.752 1.708,0 2.786,-0.854 3.15,-2.52 z m -1.148,-1.974 h -4.2 c 0.154,-1.358 0.966,-2.198 2.128,-2.198 1.19,0 1.96,0.826 2.072,2.198 z m 6.25801,-3.136 c -1.288,0 -2.17,0.504 -2.674,1.722 v -1.554 h -1.134 V 197 h 1.19 v -3.052 c 0,-1.624 0.35,-3.122 2.31,-3.122 0.126,0 0.182,0 0.308,0.014 z"
       id="text27"
       class="nonterminal"
       style="font-size:14px;font-family:HelveticaNeueCyr, Sans-serif;fill:#1a0000"
       aria-label="user" />
  </a>
  <path
     id="rect28"
     style="fill:#330000;stroke:#330000"
     d="m 81,267 h 42 c 5.54,0 10,4.46 10,10 v 12 c 0,5.54 -4.46,10 -10,10 H 81 c -5.54,0 -10,-4.46 -10,-10 v -12 c 0,-5.54 4.46,-10 10,-10 z" />
  <path
     id="rect29"
     class="terminal"
     style="fill:#ff4d4d;stroke:#330000"
     d="m 79,265 h 42 c 5.54,0 10,4.46 10,10 v 12 c 0,5.54 -4.46,10 -10,10 H 79 c -5.54,0 -10,-4.46 -10,-10 v -12 c 0,-5.54 4.46,-10 10,-10 z" />
  <path
     d="m 86.644,282.214 h -1.918 c -0.154,0.952 -0.686,1.456 -1.54,1.456 -1.064,0 -1.68,-0.826 -1.68,-2.268 0,-1.484 0.644,-2.352 1.722,-2.352 0.77,0 1.288,0.448 1.428,1.246 h 1.946 c -0.168,-1.68 -1.456,-2.73 -3.388,-2.73 -2.24,0 -3.71,1.54 -3.71,3.878 0,2.254 1.456,3.738 3.682,3.738 1.918,0 3.206,-1.092 3.458,-2.968 z m 5.837992,-4.564 c -0.196,-0.028 -0.28,-0.042 -0.434,-0.042 -1.078,0 -1.89,0.56 -2.338,1.498 v -1.33 h -1.89 V 285 h 1.988 v -3.304 c 0,-1.316 0.532,-2.296 1.904,-2.296 0.224,0 0.42,0.014 0.77,0.084 z m 7.294004,5.11 h -1.904 c -0.294,0.728 -0.742,1.05 -1.47,1.05 -1.064,0 -1.666,-0.672 -1.694,-1.918 h 5.18 v -0.196 c 0,-2.534 -1.386,-4.13 -3.57,-4.13 -2.1,0 -3.626,1.624 -3.626,3.864 0,2.268 1.47,3.78 3.696,3.78 1.638,0 2.94,-0.882 3.388,-2.45 z m -1.904,-2.128 h -3.164 c 0.112,-1.008 0.728,-1.624 1.61,-1.624 0.994,0 1.47,0.742 1.554,1.624 z M 107.74199,285 c -0.266,-0.616 -0.252,-1.302 -0.252,-1.96 v -3.122 c 0,-2.016 -1.694,-2.352 -3.15,-2.352 -2.086,0 -3.234,0.826 -3.346,2.436 h 1.862 c 0.14,-0.826 0.518,-1.106 1.428,-1.106 0.882,0 1.302,0.308 1.302,0.966 0,0.588 -0.476,0.7 -1.764,0.868 -1.428,0.182 -3.15,0.406 -3.15,2.296 0,1.358 0.98,2.184 2.576,2.184 0.868,0 1.722,-0.294 2.338,-0.91 0.028,0.322 0.042,0.434 0.14,0.7 z m -2.17,-3.514 v 0.812 c 0,1.036 -0.728,1.61 -1.764,1.61 -0.686,0 -1.092,-0.364 -1.092,-0.966 0,-0.882 0.77,-0.966 1.456,-1.078 0.504,-0.084 0.938,-0.112 1.4,-0.378 z m 7.46199,-3.71 h -1.47 v -2.184 h -1.974 v 2.184 h -1.204 v 1.344 h 1.204 v 3.752 c 0,1.764 0.532,2.212 2.24,2.212 0.448,0 0.658,-0.014 1.204,-0.056 v -1.512 c -0.238,0.028 -0.392,0.028 -0.602,0.028 -0.854,0 -0.868,-0.322 -0.868,-1.022 v -3.402 h 1.47 z m 7.74199,4.984 h -1.904 c -0.294,0.728 -0.742,1.05 -1.47,1.05 -1.064,0 -1.666,-0.672 -1.694,-1.918 h 5.18 v -0.196 c 0,-2.534 -1.386,-4.13 -3.57,-4.13 -2.1,0 -3.626,1.624 -3.626,3.864 0,2.268 1.47,3.78 3.696,3.78 1.638,0 2.94,-0.882 3.388,-2.45 z m -1.904,-2.128 h -3.164 c 0.112,-1.008 0.728,-1.624 1.61,-1.624 0.994,0 1.47,0.742 1.554,1.624 z"
     id="text29"
     class="terminal"
     style="font-weight:bold;font-size:14px;font-family:HelveticaNeueCyr, Sans-serif;fill:#140000"
     aria-label="create" />
  <path
     id="rect30"
     style="fill:#330000;stroke:#330000"
     d="m 81,311 h 30 c 5.54,0 10,4.46 10,10 v 12 c 0,5.54 -4.46,10 -10,10 H 81 c -5.54,0 -10,-4.46 -10,-10 v -12 c 0,-5.54 4.46,-10 10,-10 z" />
  <path
     id="rect31"
     class="terminal"
     style="fill:#ff4d4d;stroke:#330000"
     d="m 79,309 h 30 c 5.54,0 10,4.46 10,10 v 12 c 0,5.54 -4.46,10 -10,10 H 79 c -5.54,0 -10,-4.46 -10,-10 v -12 c 0,-5.54 4.46,-10 10,-10 z" />
  <path
     d="m 86.798,329 v -9.968 h -1.974 v 3.64 c -0.462,-0.742 -1.344,-1.092 -2.198,-1.092 -1.918,0 -3.164,1.498 -3.164,3.78 0,2.338 1.274,3.836 3.276,3.836 0.994,0 1.708,-0.378 2.184,-1.12 V 329 Z m -1.904,-3.626 c 0,1.414 -0.63,2.226 -1.722,2.226 -1.064,0 -1.708,-0.84 -1.708,-2.24 0,-1.386 0.63,-2.212 1.708,-2.212 1.078,0 1.722,0.826 1.722,2.226 z m 8.106001,-3.724 c -0.196,-0.028 -0.28,-0.042 -0.434,-0.042 -1.078,0 -1.89,0.56 -2.338,1.498 v -1.33 h -1.89 V 329 h 1.988 v -3.304 c 0,-1.316 0.532,-2.296 1.904,-2.296 0.224,0 0.42,0.014 0.77,0.084 z m 4.060004,-0.084 c -2.268,0 -3.766,1.526 -3.766,3.822 0,2.31 1.484,3.836 3.738,3.836 2.254,0 3.723995,-1.512 3.723995,-3.836 0,-2.296 -1.469995,-3.822 -3.695995,-3.822 z m -0.056,1.512 c 1.106,0 1.764,0.854 1.764,2.296 0,1.484 -0.644,2.352 -1.736,2.352 -1.106,0 -1.75,-0.854 -1.75,-2.338 0,-1.442 0.658,-2.31 1.722,-2.31 z m 6.930005,-1.302 h -1.876 v 9.786 h 1.974 v -3.458 c 0.532,0.742 1.316,1.078 2.226,1.078 1.89,0 3.136,-1.484 3.136,-3.752 0,-2.324 -1.274,-3.85 -3.22,-3.85 -0.924,0 -1.708,0.35 -2.24,1.092 z m 1.75,1.4 c 1.064,0 1.722,0.84 1.722,2.254 0,1.372 -0.644,2.198 -1.708,2.198 -1.092,0 -1.736,-0.826 -1.736,-2.226 0,-1.4 0.644,-2.226 1.722,-2.226 z"
     id="text31"
     class="terminal"
     style="font-weight:bold;font-size:14px;font-family:HelveticaNeueCyr, Sans-serif;fill:#140000"
     aria-label="drop" />
  <path
     id="rect32"
     style="fill:#330000;stroke:#330000"
     d="m 183,267 h 26 c 5.54,0 10,4.46 10,10 v 12 c 0,5.54 -4.46,10 -10,10 h -26 c -5.54,0 -10,-4.46 -10,-10 v -12 c 0,-5.54 4.46,-10 10,-10 z" />
  <path
     id="rect33"
     class="terminal"
     style="fill:#ff4d4d;stroke:#330000"
     d="m 181,265 h 26 c 5.54,0 10,4.46 10,10 v 12 c 0,5.54 -4.46,10 -10,10 h -26 c -5.54,0 -10,-4.46 -10,-10 v -12 c 0,-5.54 4.46,-10 10,-10 z" />
  <path
     d="m 186.446,277.65 c -0.196,-0.028 -0.28,-0.042 -0.434,-0.042 -1.078,0 -1.89,0.56 -2.338,1.498 v -1.33 h -1.89 V 285 h 1.988 v -3.304 c 0,-1.316 0.532,-2.296 1.904,-2.296 0.224,0 0.42,0.014 0.77,0.084 z m 4.06,-0.084 c -2.268,0 -3.766,1.526 -3.766,3.822 0,2.31 1.484,3.836 3.738,3.836 2.254,0 3.724,-1.512 3.724,-3.836 0,-2.296 -1.47,-3.822 -3.696,-3.822 z m -0.056,1.512 c 1.106,0 1.764,0.854 1.764,2.296 0,1.484 -0.644,2.352 -1.736,2.352 -1.106,0 -1.75,-0.854 -1.75,-2.338 0,-1.442 0.658,-2.31 1.722,-2.31 z m 7.098,-4.046 H 195.56 V 285 h 1.988 z m 8.358,7.728 h -1.904 c -0.294,0.728 -0.742,1.05 -1.47,1.05 -1.064,0 -1.666,-0.672 -1.694,-1.918 h 5.18 v -0.196 c 0,-2.534 -1.386,-4.13 -3.57,-4.13 -2.1,0 -3.626,1.624 -3.626,3.864 0,2.268 1.47,3.78 3.696,3.78 1.638,0 2.94,-0.882 3.388,-2.45 z m -1.904,-2.128 h -3.164 c 0.112,-1.008 0.728,-1.624 1.61,-1.624 0.994,0 1.47,0.742 1.554,1.624 z"
     id="text33"
     class="terminal"
     style="font-weight:bold;font-size:14px;font-family:HelveticaNeueCyr, Sans-serif;fill:#140000"
     aria-label="role" />
  <path
     id="rect34"
     style="fill:#330000;stroke:#330000"
     d="m 81,355 h 30 c 5.54,0 10,4.46 10,10 v 12 c 0,5.54 -4.46,10 -10,10 H 81 c -5.54,0 -10,-4.46 -10,-10 v -12 c 0,-5.54 4.46,-10 10,-10 z" />
  <path
     id="rect35"
     class="terminal"
     style="fill:#ff4d4d;stroke:#330000"
     d="m 79,353 h 30 c 5.54,0 10,4.46 10,10 v 12 c 0,5.54 -4.46,10 -10,10 H 79 c -5.54,0 -10,-4.46 -10,-10 v -12 c 0,-5.54 4.46,-10 10,-10 z" />
  <path
     d="m 84.446,365.65 c -0.196,-0.028 -0.28,-0.042 -0.434,-0.042 -1.078,0 -1.89,0.56 -2.338,1.498 v -1.33 h -1.89 V 373 h 1.988 v -3.304 c 0,-1.316 0.532,-2.296 1.904,-2.296 0.224,0 0.42,0.014 0.77,0.084 z m 7.294004,5.11 h -1.904 c -0.294,0.728 -0.742,1.05 -1.47,1.05 -1.064,0 -1.666,-0.672 -1.694,-1.918 h 5.18 v -0.196 c 0,-2.534 -1.386,-4.13 -3.57,-4.13 -2.1,0 -3.626,1.624 -3.626,3.864 0,2.268 1.47,3.78 3.696,3.78 1.638,0 2.94,-0.882 3.388,-2.45 z m -1.904,-2.128 h -3.164 c 0.112,-1.008 0.728,-1.624 1.61,-1.624 0.994,0 1.47,0.742 1.554,1.624 z M 99.705996,373 c -0.266,-0.616 -0.252,-1.302 -0.252,-1.96 v -3.122 c 0,-2.016 -1.694,-2.352 -3.15,-2.352 -2.086,0 -3.234,0.826 -3.346,2.436 h 1.862 c 0.14,-0.826 0.518,-1.106 1.428,-1.106 0.882,0 1.302,0.308 1.302,0.966 0,0.588 -0.476,0.7 -1.764,0.868 -1.428,0.182 -3.15,0.406 -3.15,2.296 0,1.358 0.98,2.184 2.576,2.184 0.868,0 1.722,-0.294 2.338,-0.91 0.028,0.322 0.042,0.434 0.14,0.7 z m -2.17,-3.514 v 0.812 c 0,1.036 -0.728,1.61 -1.764,1.61 -0.686,0 -1.092,-0.364 -1.092,-0.966 0,-0.882 0.77,-0.966 1.456,-1.078 0.504,-0.084 0.938,-0.112 1.4,-0.378 z M 108.06399,373 v -9.968 h -1.974 v 3.64 c -0.462,-0.742 -1.344,-1.092 -2.198,-1.092 -1.918,0 -3.164,1.498 -3.164,3.78 0,2.338 1.274,3.836 3.276,3.836 0.994,0 1.708,-0.378 2.184,-1.12 V 373 Z m -1.904,-3.626 c 0,1.414 -0.63,2.226 -1.722,2.226 -1.064,0 -1.708,-0.84 -1.708,-2.24 0,-1.386 0.63,-2.212 1.708,-2.212 1.078,0 1.722,0.826 1.722,2.226 z"
     id="text35"
     class="terminal"
     style="font-weight:bold;font-size:14px;font-family:HelveticaNeueCyr, Sans-serif;fill:#140000"
     aria-label="read" />
  <path
     id="rect36"
     style="fill:#330000;stroke:#330000"
     d="m 81,399 h 36 c 5.54,0 10,4.46 10,10 v 12 c 0,5.54 -4.46,10 -10,10 H 81 c -5.54,0 -10,-4.46 -10,-10 v -12 c 0,-5.54 4.46,-10 10,-10 z" />
  <path
     id="rect37"
     class="terminal"
     style="fill:#ff4d4d;stroke:#330000"
     d="m 79,397 h 36 c 5.54,0 10,4.46 10,10 v 12 c 0,5.54 -4.46,10 -10,10 H 79 c -5.54,0 -10,-4.46 -10,-10 v -12 c 0,-5.54 4.46,-10 10,-10 z" />
  <path
     d="M 79.07,409.776 81.38,417 h 2.058 l 1.246,-4.858 1.288,4.858 h 2.044 l 2.282,-7.224 h -2.03 l -1.344,4.886 -1.26,-4.886 h -1.918 l -1.218,4.914 -1.344,-4.914 z m 16.771988,-0.126 c -0.196,-0.028 -0.28,-0.042 -0.434,-0.042 -1.078,0 -1.89,0.56 -2.338,1.498 v -1.33 h -1.89 V 417 h 1.988 v -3.304 c 0,-1.316 0.532,-2.296 1.904,-2.296 0.224,0 0.42,0.014 0.77,0.084 z m 2.8,-2.618 h -1.988 v 1.68 h 1.988 z m 0,2.744 h -1.988 V 417 h 1.988 z m 5.543992,0 h -1.47 v -2.184 h -1.974 v 2.184 h -1.204001 v 1.344 h 1.204001 v 3.752 c 0,1.764 0.532,2.212 2.24,2.212 0.448,0 0.658,-0.014 1.204,-0.056 v -1.512 c -0.238,0.028 -0.392,0.028 -0.602,0.028 -0.854,0 -0.868,-0.322 -0.868,-1.022 v -3.402 h 1.47 z m 7.74199,4.984 h -1.904 c -0.294,0.728 -0.742,1.05 -1.47,1.05 -1.064,0 -1.666,-0.672 -1.694,-1.918 h 5.18 v -0.196 c 0,-2.534 -1.386,-4.13 -3.57,-4.13 -2.1,0 -3.626,1.624 -3.626,3.864 0,2.268 1.47,3.78 3.696,3.78 1.638,0 2.94,-0.882 3.388,-2.45 z m -1.904,-2.128 h -3.164 c 0.112,-1.008 0.728,-1.624 1.61,-1.624 0.994,0 1.47,0.742 1.554,1.624 z"
     id="text37"
     class="terminal"
     style="font-weight:bold;font-size:14px;font-family:HelveticaNeueCyr, Sans-serif;fill:#140000"
     aria-label="write" />
  <path
     id="rect38"
     style="fill:#330000;stroke:#330000"
     d="m 81,443 h 42 c 5.54,0 10,4.46 10,10 v 12 c 0,5.54 -4.46,10 -10,10 H 81 c -5.54,0 -10,-4.46 -10,-10 v -12 c 0,-5.54 4.46,-10 10,-10 z" />
  <path
     id="rect39"
     class="terminal"
     style="fill:#ff4d4d;stroke:#330000"
     d="m 79,441 h 42 c 5.54,0 10,4.46 10,10 v 12 c 0,5.54 -4.46,10 -10,10 H 79 c -5.54,0 -10,-4.46 -10,-10 v -12 c 0,-5.54 4.46,-10 10,-10 z" />
  <path
     d="m 86.644,458.214 h -1.918 c -0.154,0.952 -0.686,1.456 -1.54,1.456 -1.064,0 -1.68,-0.826 -1.68,-2.268 0,-1.484 0.644,-2.352 1.722,-2.352 0.77,0 1.288,0.448 1.428,1.246 h 1.946 c -0.168,-1.68 -1.456,-2.73 -3.388,-2.73 -2.24,0 -3.71,1.54 -3.71,3.878 0,2.254 1.456,3.738 3.682,3.738 1.918,0 3.206,-1.092 3.458,-2.968 z m 5.837992,-4.564 c -0.196,-0.028 -0.28,-0.042 -0.434,-0.042 -1.078,0 -1.89,0.56 -2.338,1.498 v -1.33 h -1.89 V 461 h 1.988 v -3.304 c 0,-1.316 0.532,-2.296 1.904,-2.296 0.224,0 0.42,0.014 0.77,0.084 z m 7.294004,5.11 h -1.904 c -0.294,0.728 -0.742,1.05 -1.47,1.05 -1.064,0 -1.666,-0.672 -1.694,-1.918 h 5.18 v -0.196 c 0,-2.534 -1.386,-4.13 -3.57,-4.13 -2.1,0 -3.626,1.624 -3.626,3.864 0,2.268 1.47,3.78 3.696,3.78 1.638,0 2.94,-0.882 3.388,-2.45 z m -1.904,-2.128 h -3.164 c 0.112,-1.008 0.728,-1.624 1.61,-1.624 0.994,0 1.47,0.742 1.554,1.624 z M 107.74199,461 c -0.266,-0.616 -0.252,-1.302 -0.252,-1.96 v -3.122 c 0,-2.016 -1.694,-2.352 -3.15,-2.352 -2.086,0 -3.234,0.826 -3.346,2.436 h 1.862 c 0.14,-0.826 0.518,-1.106 1.428,-1.106 0.882,0 1.302,0.308 1.302,0.966 0,0.588 -0.476,0.7 -1.764,0.868 -1.428,0.182 -3.15,0.406 -3.15,2.296 0,1.358 0.98,2.184 2.576,2.184 0.868,0 1.722,-0.294 2.338,-0.91 0.028,0.322 0.042,0.434 0.14,0.7 z m -2.17,-3.514 v 0.812 c 0,1.036 -0.728,1.61 -1.764,1.61 -0.686,0 -1.092,-0.364 -1.092,-0.966 0,-0.882 0.77,-0.966 1.456,-1.078 0.504,-0.084 0.938,-0.112 1.4,-0.378 z m 7.46199,-3.71 h -1.47 v -2.184 h -1.974 v 2.184 h -1.204 v 1.344 h 1.204 v 3.752 c 0,1.764 0.532,2.212 2.24,2.212 0.448,0 0.658,-0.014 1.204,-0.056 v -1.512 c -0.238,0.028 -0.392,0.028 -0.602,0.028 -0.854,0 -0.868,-0.322 -0.868,-1.022 v -3.402 h 1.47 z m 7.74199,4.984 h -1.904 c -0.294,0.728 -0.742,1.05 -1.47,1.05 -1.064,0 -1.666,-0.672 -1.694,-1.918 h 5.18 v -0.196 c 0,-2.534 -1.386,-4.13 -3.57,-4.13 -2.1,0 -3.626,1.624 -3.626,3.864 0,2.268 1.47,3.78 3.696,3.78 1.638,0 2.94,-0.882 3.388,-2.45 z m -1.904,-2.128 h -3.164 c 0.112,-1.008 0.728,-1.624 1.61,-1.624 0.994,0 1.47,0.742 1.554,1.624 z"
     id="text39"
     class="terminal"
     style="font-weight:bold;font-size:14px;font-family:HelveticaNeueCyr, Sans-serif;fill:#140000"
     aria-label="create" />
  <path
     id="rect40"
     style="fill:#330000;stroke:#330000"
     d="m 81,487 h 32 c 5.54,0 10,4.46 10,10 v 12 c 0,5.54 -4.46,10 -10,10 H 81 c -5.54,0 -10,-4.46 -10,-10 v -12 c 0,-5.54 4.46,-10 10,-10 z" />
  <path
     id="rect41"
     class="terminal"
     style="fill:#ff4d4d;stroke:#330000"
     d="m 79,485 h 32 c 5.54,0 10,4.46 10,10 v 12 c 0,5.54 -4.46,10 -10,10 H 79 c -5.54,0 -10,-4.46 -10,-10 v -12 c 0,-5.54 4.46,-10 10,-10 z" />
  <path
     d="m 86.476,505 c -0.266,-0.616 -0.252,-1.302 -0.252,-1.96 v -3.122 c 0,-2.016 -1.694,-2.352 -3.15,-2.352 -2.086,0 -3.234,0.826 -3.346,2.436 h 1.862 c 0.14,-0.826 0.518,-1.106 1.428,-1.106 0.882,0 1.302,0.308 1.302,0.966 0,0.588 -0.476,0.7 -1.764,0.868 -1.428,0.182 -3.15,0.406 -3.15,2.296 0,1.358 0.98,2.184 2.576,2.184 0.868,0 1.722,-0.294 2.338,-0.91 0.028,0.322 0.042,0.434 0.14,0.7 z m -2.17,-3.514 v 0.812 c 0,1.036 -0.728,1.61 -1.764,1.61 -0.686,0 -1.092,-0.364 -1.092,-0.966 0,-0.882 0.77,-0.966 1.456,-1.078 0.504,-0.084 0.938,-0.112 1.4,-0.378 z m 5.529992,-6.454 h -1.988 V 505 h 1.988 z m 5.543992,2.744 h -1.47 v -2.184 h -1.974 v 2.184 h -1.204 v 1.344 h 1.204 v 3.752 c 0,1.764 0.532,2.212 2.24,2.212 0.448,0 0.658,-0.014 1.204,-0.056 v -1.512 c -0.238,0.028 -0.392,0.028 -0.602,0.028 -0.854,0 -0.868,-0.322 -0.868,-1.022 v -3.402 h 1.47 z m 7.741986,4.984 h -1.904 c -0.294,0.728 -0.742,1.05 -1.469996,1.05 -1.064,0 -1.666,-0.672 -1.694,-1.918 h 5.179996 v -0.196 c 0,-2.534 -1.386,-4.13 -3.569996,-4.13 -2.1,0 -3.626,1.624 -3.626,3.864 0,2.268 1.47,3.78 3.696,3.78 1.637996,0 2.939996,-0.882 3.387996,-2.45 z m -1.904,-2.128 h -3.163996 c 0.112,-1.008 0.728,-1.624 1.61,-1.624 0.993996,0 1.469996,0.742 1.553996,1.624 z m 7.84,-2.982 c -0.196,-0.028 -0.28,-0.042 -0.434,-0.042 -1.078,0 -1.89,0.56 -2.338,1.498 v -1.33 h -1.89 V 505 h 1.988 v -3.304 c 0,-1.316 0.532,-2.296 1.904,-2.296 0.224,0 0.42,0.014 0.77,0.084 z"
     id="text41"
     class="terminal"
     style="font-weight:bold;font-size:14px;font-family:HelveticaNeueCyr, Sans-serif;fill:#140000"
     aria-label="alter" />
  <path
     id="rect42"
     style="fill:#330000;stroke:#330000"
     d="m 81,531 h 30 c 5.54,0 10,4.46 10,10 v 12 c 0,5.54 -4.46,10 -10,10 H 81 c -5.54,0 -10,-4.46 -10,-10 v -12 c 0,-5.54 4.46,-10 10,-10 z" />
  <path
     id="rect43"
     class="terminal"
     style="fill:#ff4d4d;stroke:#330000"
     d="m 79,529 h 30 c 5.54,0 10,4.46 10,10 v 12 c 0,5.54 -4.46,10 -10,10 H 79 c -5.54,0 -10,-4.46 -10,-10 v -12 c 0,-5.54 4.46,-10 10,-10 z" />
  <path
     d="m 86.798,549 v -9.968 h -1.974 v 3.64 c -0.462,-0.742 -1.344,-1.092 -2.198,-1.092 -1.918,0 -3.164,1.498 -3.164,3.78 0,2.338 1.274,3.836 3.276,3.836 0.994,0 1.708,-0.378 2.184,-1.12 V 549 Z m -1.904,-3.626 c 0,1.414 -0.63,2.226 -1.722,2.226 -1.064,0 -1.708,-0.84 -1.708,-2.24 0,-1.386 0.63,-2.212 1.708,-2.212 1.078,0 1.722,0.826 1.722,2.226 z m 8.106001,-3.724 c -0.196,-0.028 -0.28,-0.042 -0.434,-0.042 -1.078,0 -1.89,0.56 -2.338,1.498 v -1.33 h -1.89 V 549 h 1.988 v -3.304 c 0,-1.316 0.532,-2.296 1.904,-2.296 0.224,0 0.42,0.014 0.77,0.084 z m 4.060004,-0.084 c -2.268,0 -3.766,1.526 -3.766,3.822 0,2.31 1.484,3.836 3.738,3.836 2.254,0 3.723995,-1.512 3.723995,-3.836 0,-2.296 -1.469995,-3.822 -3.695995,-3.822 z m -0.056,1.512 c 1.106,0 1.764,0.854 1.764,2.296 0,1.484 -0.644,2.352 -1.736,2.352 -1.106,0 -1.75,-0.854 -1.75,-2.338 0,-1.442 0.658,-2.31 1.722,-2.31 z m 6.930005,-1.302 h -1.876 v 9.786 h 1.974 v -3.458 c 0.532,0.742 1.316,1.078 2.226,1.078 1.89,0 3.136,-1.484 3.136,-3.752 0,-2.324 -1.274,-3.85 -3.22,-3.85 -0.924,0 -1.708,0.35 -2.24,1.092 z m 1.75,1.4 c 1.064,0 1.722,0.84 1.722,2.254 0,1.372 -0.644,2.198 -1.708,2.198 -1.092,0 -1.736,-0.826 -1.736,-2.226 0,-1.4 0.644,-2.226 1.722,-2.226 z"
     id="text43"
     class="terminal"
     style="font-weight:bold;font-size:14px;font-family:HelveticaNeueCyr, Sans-serif;fill:#140000"
     aria-label="drop" />
  <path
     id="rect44"
     style="fill:#330000;stroke:#330000"
     d="m 183,355 h 34 c 5.54,0 10,4.46 10,10 v 12 c 0,5.54 -4.46,10 -10,10 h -34 c -5.54,0 -10,-4.46 -10,-10 v -12 c 0,-5.54 4.46,-10 10,-10 z" />
  <path
     id="rect45"
     class="terminal"
     style="fill:#ff4d4d;stroke:#330000"
     d="m 181,353 h 34 c 5.54,0 10,4.46 10,10 v 12 c 0,5.54 -4.46,10 -10,10 h -34 c -5.54,0 -10,-4.46 -10,-10 v -12 c 0,-5.54 4.46,-10 10,-10 z" />
  <path
     d="m 185.732,365.776 h -1.47 v -2.184 h -1.974 v 2.184 h -1.204 v 1.344 h 1.204 v 3.752 c 0,1.764 0.532,2.212 2.24,2.212 0.448,0 0.658,-0.014 1.204,-0.056 v -1.512 c -0.238,0.028 -0.392,0.028 -0.602,0.028 -0.854,0 -0.868,-0.322 -0.868,-1.022 v -3.402 h 1.47 z m 7.67199,7.224 c -0.266,-0.616 -0.252,-1.302 -0.252,-1.96 v -3.122 c 0,-2.016 -1.694,-2.352 -3.15,-2.352 -2.086,0 -3.234,0.826 -3.346,2.436 h 1.862 c 0.14,-0.826 0.518,-1.106 1.428,-1.106 0.882,0 1.302,0.308 1.302,0.966 0,0.588 -0.476,0.7 -1.764,0.868 -1.428,0.182 -3.15,0.406 -3.15,2.296 0,1.358 0.98,2.184 2.576,2.184 0.868,0 1.722,-0.294 2.338,-0.91 0.028,0.322 0.042,0.434 0.14,0.7 z m -2.17,-3.514 v 0.812 c 0,1.036 -0.728,1.61 -1.764,1.61 -0.686,0 -1.092,-0.364 -1.092,-0.966 0,-0.882 0.77,-0.966 1.456,-1.078 0.504,-0.084 0.938,-0.112 1.4,-0.378 z m 5.44599,-6.454 h -1.974 V 373 h 1.89 l -0.014,-0.91 c 0.532,0.77 1.33,1.106 2.268,1.106 1.904,0 3.206,-1.568 3.206,-3.878 0,-2.058 -1.106,-3.71 -3.094,-3.71 -0.924,0 -1.708,0.336 -2.282,1.05 z m 1.666,4.102 c 1.036,0 1.708,0.868 1.708,2.198 0,1.372 -0.672,2.268 -1.708,2.268 -1.078,0 -1.736,-0.854 -1.736,-2.254 0,-1.358 0.672,-2.212 1.736,-2.212 z m 6.972,-4.102 h -1.988 V 373 h 1.988 z m 8.35799,7.728 h -1.904 c -0.294,0.728 -0.742,1.05 -1.47,1.05 -1.064,0 -1.666,-0.672 -1.694,-1.918 h 5.18 v -0.196 c 0,-2.534 -1.386,-4.13 -3.57,-4.13 -2.1,0 -3.626,1.624 -3.626,3.864 0,2.268 1.47,3.78 3.696,3.78 1.638,0 2.94,-0.882 3.388,-2.45 z m -1.904,-2.128 h -3.164 c 0.112,-1.008 0.728,-1.624 1.61,-1.624 0.994,0 1.47,0.742 1.554,1.624 z"
     id="text45"
     class="terminal"
     style="font-weight:bold;font-size:14px;font-family:HelveticaNeueCyr, Sans-serif;fill:#140000"
     aria-label="table" />
  <path
     id="rect46"
     style="fill:#330000;stroke:#330000"
     d="m 81,575 h 32 c 5.54,0 10,4.46 10,10 v 12 c 0,5.54 -4.46,10 -10,10 H 81 c -5.54,0 -10,-4.46 -10,-10 v -12 c 0,-5.54 4.46,-10 10,-10 z" />
  <path
     id="rect47"
     class="terminal"
     style="fill:#ff4d4d;stroke:#330000"
     d="m 79,573 h 32 c 5.54,0 10,4.46 10,10 v 12 c 0,5.54 -4.46,10 -10,10 H 79 c -5.54,0 -10,-4.46 -10,-10 v -12 c 0,-5.54 4.46,-10 10,-10 z" />
  <path
     d="m 86.476,593 c -0.266,-0.616 -0.252,-1.302 -0.252,-1.96 v -3.122 c 0,-2.016 -1.694,-2.352 -3.15,-2.352 -2.086,0 -3.234,0.826 -3.346,2.436 h 1.862 c 0.14,-0.826 0.518,-1.106 1.428,-1.106 0.882,0 1.302,0.308 1.302,0.966 0,0.588 -0.476,0.7 -1.764,0.868 -1.428,0.182 -3.15,0.406 -3.15,2.296 0,1.358 0.98,2.184 2.576,2.184 0.868,0 1.722,-0.294 2.338,-0.91 0.028,0.322 0.042,0.434 0.14,0.7 z m -2.17,-3.514 v 0.812 c 0,1.036 -0.728,1.61 -1.764,1.61 -0.686,0 -1.092,-0.364 -1.092,-0.966 0,-0.882 0.77,-0.966 1.456,-1.078 0.504,-0.084 0.938,-0.112 1.4,-0.378 z m 5.529992,-6.454 h -1.988 V 593 h 1.988 z m 5.543992,2.744 h -1.47 v -2.184 h -1.974 v 2.184 h -1.204 v 1.344 h 1.204 v 3.752 c 0,1.764 0.532,2.212 2.24,2.212 0.448,0 0.658,-0.014 1.204,-0.056 v -1.512 c -0.238,0.028 -0.392,0.028 -0.602,0.028 -0.854,0 -0.868,-0.322 -0.868,-1.022 v -3.402 h 1.47 z m 7.741986,4.984 h -1.904 c -0.294,0.728 -0.742,1.05 -1.469996,1.05 -1.064,0 -1.666,-0.672 -1.694,-1.918 h 5.179996 v -0.196 c 0,-2.534 -1.386,-4.13 -3.569996,-4.13 -2.1,0 -3.626,1.624 -3.626,3.864 0,2.268 1.47,3.78 3.696,3.78 1.637996,0 2.939996,-0.882 3.387996,-2.45 z m -1.904,-2.128 h -3.163996 c 0.112,-1.008 0.728,-1.624 1.61,-1.624 0.993996,0 1.469996,0.742 1.553996,1.624 z m 7.84,-2.982 c -0.196,-0.028 -0.28,-0.042 -0.434,-0.042 -1.078,0 -1.89,0.56 -2.338,1.498 v -1.33 h -1.89 V 593 h 1.988 v -3.304 c 0,-1.316 0.532,-2.296 1.904,-2.296 0.224,0 0.42,0.014 0.77,0.084 z"
     id="text47"
     class="terminal"
     style="font-weight:bold;font-size:14px;font-family:HelveticaNeueCyr, Sans-serif;fill:#140000"
     aria-label="alter" />
  <path
     id="rect48"
     style="fill:#330000;stroke:#330000"
     d="m 81,619 h 30 c 5.54,0 10,4.46 10,10 v 12 c 0,5.54 -4.46,10 -10,10 H 81 c -5.54,0 -10,-4.46 -10,-10 v -12 c 0,-5.54 4.46,-10 10,-10 z" />
  <path
     id="rect49"
     class="terminal"
     style="fill:#ff4d4d;stroke:#330000"
     d="m 79,617 h 30 c 5.54,0 10,4.46 10,10 v 12 c 0,5.54 -4.46,10 -10,10 H 79 c -5.54,0 -10,-4.46 -10,-10 v -12 c 0,-5.54 4.46,-10 10,-10 z" />
  <path
     d="m 86.798,637 v -9.968 h -1.974 v 3.64 c -0.462,-0.742 -1.344,-1.092 -2.198,-1.092 -1.918,0 -3.164,1.498 -3.164,3.78 0,2.338 1.274,3.836 3.276,3.836 0.994,0 1.708,-0.378 2.184,-1.12 V 637 Z m -1.904,-3.626 c 0,1.414 -0.63,2.226 -1.722,2.226 -1.064,0 -1.708,-0.84 -1.708,-2.24 0,-1.386 0.63,-2.212 1.708,-2.212 1.078,0 1.722,0.826 1.722,2.226 z m 8.106001,-3.724 c -0.196,-0.028 -0.28,-0.042 -0.434,-0.042 -1.078,0 -1.89,0.56 -2.338,1.498 v -1.33 h -1.89 V 637 h 1.988 v -3.304 c 0,-1.316 0.532,-2.296 1.904,-2.296 0.224,0 0.42,0.014 0.77,0.084 z m 4.060004,-0.084 c -2.268,0 -3.766,1.526 -3.766,3.822 0,2.31 1.484,3.836 3.738,3.836 2.254,0 3.723995,-1.512 3.723995,-3.836 0,-2.296 -1.469995,-3.822 -3.695995,-3.822 z m -0.056,1.512 c 1.106,0 1.764,0.854 1.764,2.296 0,1.484 -0.644,2.352 -1.736,2.352 -1.106,0 -1.75,-0.854 -1.75,-2.338 0,-1.442 0.658,-2.31 1.722,-2.31 z m 6.930005,-1.302 h -1.876 v 9.786 h 1.974 v -3.458 c 0.532,0.742 1.316,1.078 2.226,1.078 1.89,0 3.136,-1.484 3.136,-3.752 0,-2.324 -1.274,-3.85 -3.22,-3.85 -0.924,0 -1.708,0.35 -2.24,1.092 z m 1.75,1.4 c 1.064,0 1.722,0.84 1.722,2.254 0,1.372 -0.644,2.198 -1.708,2.198 -1.092,0 -1.736,-0.826 -1.736,-2.226 0,-1.4 0.644,-2.226 1.722,-2.226 z"
     id="text49"
     class="terminal"
     style="font-weight:bold;font-size:14px;font-family:HelveticaNeueCyr, Sans-serif;fill:#140000"
     aria-label="drop" />
  <path
     id="rect50"
     style="fill:#330000;stroke:#330000"
     d="m 81,663 h 30 c 5.54,0 10,4.46 10,10 v 12 c 0,5.54 -4.46,10 -10,10 H 81 c -5.54,0 -10,-4.46 -10,-10 v -12 c 0,-5.54 4.46,-10 10,-10 z" />
  <path
     id="rect51"
     class="terminal"
     style="fill:#ff4d4d;stroke:#330000"
     d="m 79,661 h 30 c 5.54,0 10,4.46 10,10 v 12 c 0,5.54 -4.46,10 -10,10 H 79 c -5.54,0 -10,-4.46 -10,-10 v -12 c 0,-5.54 4.46,-10 10,-10 z" />
  <path
     d="m 84.446,673.65 c -0.196,-0.028 -0.28,-0.042 -0.434,-0.042 -1.078,0 -1.89,0.56 -2.338,1.498 v -1.33 h -1.89 V 681 h 1.988 v -3.304 c 0,-1.316 0.532,-2.296 1.904,-2.296 0.224,0 0.42,0.014 0.77,0.084 z m 7.294004,5.11 h -1.904 c -0.294,0.728 -0.742,1.05 -1.47,1.05 -1.064,0 -1.666,-0.672 -1.694,-1.918 h 5.18 v -0.196 c 0,-2.534 -1.386,-4.13 -3.57,-4.13 -2.1,0 -3.626,1.624 -3.626,3.864 0,2.268 1.47,3.78 3.696,3.78 1.638,0 2.94,-0.882 3.388,-2.45 z m -1.904,-2.128 h -3.164 c 0.112,-1.008 0.728,-1.624 1.61,-1.624 0.994,0 1.47,0.742 1.554,1.624 z M 99.705996,681 c -0.266,-0.616 -0.252,-1.302 -0.252,-1.96 v -3.122 c 0,-2.016 -1.694,-2.352 -3.15,-2.352 -2.086,0 -3.234,0.826 -3.346,2.436 h 1.862 c 0.14,-0.826 0.518,-1.106 1.428,-1.106 0.882,0 1.302,0.308 1.302,0.966 0,0.588 -0.476,0.7 -1.764,0.868 -1.428,0.182 -3.15,0.406 -3.15,2.296 0,1.358 0.98,2.184 2.576,2.184 0.868,0 1.722,-0.294 2.338,-0.91 0.028,0.322 0.042,0.434 0.14,0.7 z m -2.17,-3.514 v 0.812 c 0,1.036 -0.728,1.61 -1.764,1.61 -0.686,0 -1.092,-0.364 -1.092,-0.966 0,-0.882 0.77,-0.966 1.456,-1.078 0.504,-0.084 0.938,-0.112 1.4,-0.378 z M 108.06399,681 v -9.968 h -1.974 v 3.64 c -0.462,-0.742 -1.344,-1.092 -2.198,-1.092 -1.918,0 -3.164,1.498 -3.164,3.78 0,2.338 1.274,3.836 3.276,3.836 0.994,0 1.708,-0.378 2.184,-1.12 V 681 Z m -1.904,-3.626 c 0,1.414 -0.63,2.226 -1.722,2.226 -1.064,0 -1.708,-0.84 -1.708,-2.24 0,-1.386 0.63,-2.212 1.708,-2.212 1.078,0 1.722,0.826 1.722,2.226 z"
     id="text51"
     class="terminal"
     style="font-weight:bold;font-size:14px;font-family:HelveticaNeueCyr, Sans-serif;fill:#140000"
     aria-label="read" />
  <path
     id="rect52"
     style="fill:#330000;stroke:#330000"
     d="m 81,707 h 36 c 5.54,0 10,4.46 10,10 v 12 c 0,5.54 -4.46,10 -10,10 H 81 c -5.54,0 -10,-4.46 -10,-10 v -12 c 0,-5.54 4.46,-10 10,-10 z" />
  <path
     id="rect53"
     class="terminal"
     style="fill:#ff4d4d;stroke:#330000"
     d="m 79,705 h 36 c 5.54,0 10,4.46 10,10 v 12 c 0,5.54 -4.46,10 -10,10 H 79 c -5.54,0 -10,-4.46 -10,-10 v -12 c 0,-5.54 4.46,-10 10,-10 z" />
  <path
     d="M 79.07,717.776 81.38,725 h 2.058 l 1.246,-4.858 1.288,4.858 h 2.044 l 2.282,-7.224 h -2.03 l -1.344,4.886 -1.26,-4.886 h -1.918 l -1.218,4.914 -1.344,-4.914 z m 16.771988,-0.126 c -0.196,-0.028 -0.28,-0.042 -0.434,-0.042 -1.078,0 -1.89,0.56 -2.338,1.498 v -1.33 h -1.89 V 725 h 1.988 v -3.304 c 0,-1.316 0.532,-2.296 1.904,-2.296 0.224,0 0.42,0.014 0.77,0.084 z m 2.8,-2.618 h -1.988 v 1.68 h 1.988 z m 0,2.744 h -1.988 V 725 h 1.988 z m 5.543992,0 h -1.47 v -2.184 h -1.974 v 2.184 h -1.204001 v 1.344 h 1.204001 v 3.752 c 0,1.764 0.532,2.212 2.24,2.212 0.448,0 0.658,-0.014 1.204,-0.056 v -1.512 c -0.238,0.028 -0.392,0.028 -0.602,0.028 -0.854,0 -0.868,-0.322 -0.868,-1.022 v -3.402 h 1.47 z m 7.74199,4.984 h -1.904 c -0.294,0.728 -0.742,1.05 -1.47,1.05 -1.064,0 -1.666,-0.672 -1.694,-1.918 h 5.18 v -0.196 c 0,-2.534 -1.386,-4.13 -3.57,-4.13 -2.1,0 -3.626,1.624 -3.626,3.864 0,2.268 1.47,3.78 3.696,3.78 1.638,0 2.94,-0.882 3.388,-2.45 z m -1.904,-2.128 h -3.164 c 0.112,-1.008 0.728,-1.624 1.61,-1.624 0.994,0 1.47,0.742 1.554,1.624 z"
     id="text53"
     class="terminal"
     style="font-weight:bold;font-size:14px;font-family:HelveticaNeueCyr, Sans-serif;fill:#140000"
     aria-label="write" />
  <path
     id="rect54"
     style="fill:#330000;stroke:#330000"
     d="m 177,575 h 16 c 5.54,0 10,4.46 10,10 v 12 c 0,5.54 -4.46,10 -10,10 h -16 c -5.54,0 -10,-4.46 -10,-10 v -12 c 0,-5.54 4.46,-10 10,-10 z" />
  <path
     id="rect55"
     class="terminal"
     style="fill:#ff4d4d;stroke:#330000"
     d="m 175,573 h 16 c 5.54,0 10,4.46 10,10 v 12 c 0,5.54 -4.46,10 -10,10 h -16 c -5.54,0 -10,-4.46 -10,-10 v -12 c 0,-5.54 4.46,-10 10,-10 z" />
  <path
     d="m 179.312,585.566 c -2.268,0 -3.766,1.526 -3.766,3.822 0,2.31 1.484,3.836 3.738,3.836 2.254,0 3.724,-1.512 3.724,-3.836 0,-2.296 -1.47,-3.822 -3.696,-3.822 z m -0.056,1.512 c 1.106,0 1.764,0.854 1.764,2.296 0,1.484 -0.644,2.352 -1.736,2.352 -1.106,0 -1.75,-0.854 -1.75,-2.338 0,-1.442 0.658,-2.31 1.722,-2.31 z M 191.114,593 v -4.83 c 0,-1.68 -0.98,-2.59 -2.506,-2.59 -1.022,0 -1.82,0.434 -2.394,1.204 v -1.008 h -1.89 V 593 h 1.974 v -3.878 c 0,-1.05 0.378,-1.904 1.568,-1.904 1.064,0 1.232,0.672 1.232,1.568 V 593 Z"
     id="text55"
     class="terminal"
     style="font-weight:bold;font-size:14px;font-family:HelveticaNeueCyr, Sans-serif;fill:#140000"
     aria-label="on" />
  <path
     id="rect56"
     style="fill:#330000;stroke:#330000"
     d="m 253,607 h 34 c 5.54,0 10,4.46 10,10 v 12 c 0,5.54 -4.46,10 -10,10 h -34 c -5.54,0 -10,-4.46 -10,-10 v -12 c 0,-5.54 4.46,-10 10,-10 z" />
  <path
     id="rect57"
     class="terminal"
     style="fill:#ff4d4d;stroke:#330000"
     d="m 251,605 h 34 c 5.54,0 10,4.46 10,10 v 12 c 0,5.54 -4.46,10 -10,10 h -34 c -5.54,0 -10,-4.46 -10,-10 v -12 c 0,-5.54 4.46,-10 10,-10 z" />
  <path
     d="m 255.732,617.776 h -1.47 v -2.184 h -1.974 v 2.184 h -1.204 v 1.344 h 1.204 v 3.752 c 0,1.764 0.532,2.212 2.24,2.212 0.448,0 0.658,-0.014 1.204,-0.056 v -1.512 c -0.238,0.028 -0.392,0.028 -0.602,0.028 -0.854,0 -0.868,-0.322 -0.868,-1.022 v -3.402 h 1.47 z m 7.67199,7.224 c -0.266,-0.616 -0.252,-1.302 -0.252,-1.96 v -3.122 c 0,-2.016 -1.694,-2.352 -3.15,-2.352 -2.086,0 -3.234,0.826 -3.346,2.436 h 1.862 c 0.14,-0.826 0.518,-1.106 1.428,-1.106 0.882,0 1.302,0.308 1.302,0.966 0,0.588 -0.476,0.7 -1.764,0.868 -1.428,0.182 -3.15,0.406 -3.15,2.296 0,1.358 0.98,2.184 2.576,2.184 0.868,0 1.722,-0.294 2.338,-0.91 0.028,0.322 0.042,0.434 0.14,0.7 z m -2.17,-3.514 v 0.812 c 0,1.036 -0.728,1.61 -1.764,1.61 -0.686,0 -1.092,-0.364 -1.092,-0.966 0,-0.882 0.77,-0.966 1.456,-1.078 0.504,-0.084 0.938,-0.112 1.4,-0.378 z m 5.44599,-6.454 h -1.974 V 625 h 1.89 l -0.014,-0.91 c 0.532,0.77 1.33,1.106 2.268,1.106 1.904,0 3.206,-1.568 3.206,-3.878 0,-2.058 -1.106,-3.71 -3.094,-3.71 -0.924,0 -1.708,0.336 -2.282,1.05 z m 1.666,4.102 c 1.036,0 1.708,0.868 1.708,2.198 0,1.372 -0.672,2.268 -1.708,2.268 -1.078,0 -1.736,-0.854 -1.736,-2.254 0,-1.358 0.672,-2.212 1.736,-2.212 z m 6.972,-4.102 h -1.988 V 625 h 1.988 z m 8.35799,7.728 h -1.904 c -0.294,0.728 -0.742,1.05 -1.47,1.05 -1.064,0 -1.666,-0.672 -1.694,-1.918 h 5.18 v -0.196 c 0,-2.534 -1.386,-4.13 -3.57,-4.13 -2.1,0 -3.626,1.624 -3.626,3.864 0,2.268 1.47,3.78 3.696,3.78 1.638,0 2.94,-0.882 3.388,-2.45 z m -1.904,-2.128 h -3.164 c 0.112,-1.008 0.728,-1.624 1.61,-1.624 0.994,0 1.47,0.742 1.554,1.624 z"
     id="text57"
     class="terminal"
     style="font-weight:bold;font-size:14px;font-family:HelveticaNeueCyr, Sans-serif;fill:#140000"
     aria-label="table" />
  <a
     xlink:href="#name"
     xlink:title="table"
     id="a59">
    <path
       id="rect58"
       style="fill:#330000;stroke:#330000"
       d="m 337,575 h 52 v 32 h -52 z" />
    <path
       id="rect59"
       class="nonterminal"
       style="fill:#ff9e9e;stroke:#330000"
       d="m 335,573 h 52 v 32 h -52 z" />
    <path
       d="m 348.99,585.776 h -1.442 v -2.142 h -1.19 v 2.142 h -1.218 v 0.98 h 1.218 v 3.836 c 0,1.582 -0.084,2.478 1.722,2.478 0.378,0 0.532,-0.014 0.91,-0.056 v -1.022 c -0.252,0.028 -0.406,0.042 -0.644,0.042 -0.84,0 -0.798,-0.406 -0.798,-1.064 v -4.214 h 1.442 z m 7.71401,6.272 c -0.126,0.028 -0.182,0.042 -0.294,0.042 -0.364,0 -0.49,-0.182 -0.49,-0.714 0,-1.078 0.056,-2.142 0.056,-3.22 0,-0.644 0.014,-1.386 -0.49,-1.876 -0.476,-0.448 -1.302,-0.7 -2.268,-0.7 -1.862,0 -2.982,0.91 -3.024,2.45 h 1.162 c 0.112,-1.064 0.686,-1.47 1.792,-1.47 1.064,0 1.638,0.42 1.638,1.19 0,0.98 -0.588,0.938 -2.31,1.148 -1.708,0.21 -2.562,0.966 -2.562,2.254 0,1.26 0.882,2.044 2.31,2.044 1.12,0 1.904,-0.35 2.618,-1.148 0.014,0.686 0.378,1.064 1.05,1.064 0.266,0 0.56,-0.042 0.812,-0.14 z m -1.918,-2.8 v 1.316 c 0,0.924 -1.078,1.694 -2.198,1.694 -0.896,0 -1.442,-0.462 -1.442,-1.204 0,-1.162 1.176,-1.26 2.044,-1.372 0.532,-0.07 1.148,-0.098 1.596,-0.434 z m 4.21401,-6.216 h -1.19 V 593 h 1.12 v -1.05 c 0.476,0.896 1.4,1.26 2.394,1.26 2.016,0 3.332,-1.512 3.332,-3.85 0,-2.296 -1.288,-3.78 -3.262,-3.78 -0.994,0 -1.848,0.364 -2.394,1.19 z m 2.212,3.556 c 1.344,0 2.212,1.078 2.212,2.786 0,1.722 -0.882,2.842 -2.212,2.842 -1.386,0 -2.254,-1.064 -2.254,-2.772 0,-1.442 0.602,-2.856 2.254,-2.856 z m 6.174,-3.556 h -1.204 V 593 h 1.204 z m 8.022,7.686 h -1.162 c -0.336,1.092 -0.91,1.54 -1.946,1.54 -1.4,0 -2.254,-0.924 -2.254,-2.464 l 0.014,-0.084 h 5.432 v -0.168 c 0,-2.086 -0.896,-3.976 -3.276,-3.976 -2.002,0 -3.36,1.582 -3.36,3.92 0,2.352 1.274,3.752 3.402,3.752 1.708,0 2.786,-0.854 3.15,-2.52 z m -1.148,-1.974 h -4.2 c 0.154,-1.358 0.966,-2.198 2.128,-2.198 1.19,0 1.96,0.826 2.072,2.198 z"
       id="text59"
       class="nonterminal"
       style="font-size:14px;font-family:HelveticaNeueCyr, Sans-serif;fill:#1a0000"
       aria-label="table" />
  </a>
  <a
     xlink:href="#name"
     xlink:title="role"
     id="a61">
    <path
       id="rect60"
       style="fill:#330000;stroke:#330000"
       d="m 51,751 h 44 v 32 H 51 Z" />
    <path
       id="rect61"
       class="nonterminal"
       style="fill:#ff9e9e;stroke:#330000"
       d="m 49,749 h 44 v 32 H 49 Z" />
    <path
       d="m 63.662,761.608 c -1.288,0 -2.17,0.504 -2.674,1.722 v -1.554 H 59.854 V 769 h 1.19 v -3.052 c 0,-1.624 0.35,-3.122 2.31,-3.122 0.126,0 0.182,0 0.308,0.014 z m 3.808007,-0.042 c -2.184,0 -3.542,1.47 -3.542,3.85 0,2.38 1.316,3.808 3.528,3.808 2.198,0 3.472,-1.428 3.472,-3.878 0,-2.394 -1.274,-3.78 -3.458,-3.78 z m -0.028,0.994 c 1.4,0 2.268,1.092 2.268,2.814 0,1.778 -0.84,2.842 -2.24,2.842 -1.456,0 -2.31,-1.05 -2.31,-2.828 0,-1.722 0.882,-2.828 2.282,-2.828 z m 6.159992,-3.528 h -1.204 V 769 h 1.204 z m 8.022002,7.686 h -1.162 c -0.336,1.092 -0.91,1.54 -1.946,1.54 -1.4,0 -2.254,-0.924 -2.254,-2.464 l 0.014,-0.084 h 5.432 v -0.168 c 0,-2.086 -0.896,-3.976 -3.276,-3.976 -2.002,0 -3.36,1.582 -3.36,3.92 0,2.352 1.274,3.752 3.402,3.752 1.708,0 2.786,-0.854 3.15,-2.52 z m -1.148,-1.974 h -4.2 c 0.154,-1.358 0.966,-2.198 2.128,-2.198 1.19,0 1.96,0.826 2.072,2.198 z"
       id="text61"
       class="nonterminal"
       style="font-size:14px;font-family:HelveticaNeueCyr, Sans-serif;fill:#1a0000"
       aria-label="role" />
  </a>
  <path
     class="line"
     d="m17 17 h2 m40 0 h10 m62 0 h10 m-102 0 h20 m82 0 h20 m-122 0 q10 0 10 10 m102 0 q0 -10 10 -10 m-112 10 v24 m102 0 v-24 m-102 24 q0 10 10 10 m82 0 q10 0 10 -10 m-92 10 h10 m52 0 h10 m0 0 h10 m-92 -10 v20 m102 0 v-20 m-102 20 v24 m102 0 v-24 m-102 24 q0 10 10 10 m82 0 q10 0 10 -10 m-92 10 h10 m50 0 h10 m0 0 h12 m20 -88 h10 m50 0 h10 m0 0 h194 m-406 0 h20 m386 0 h20 m-426 0 q10 0 10 10 m406 0 q0 -10 10 -10 m-416 10 v112 m406 0 v-112 m-406 112 q0 10 10 10 m386 0 q10 0 10 -10 m-356 10 h10 m52 0 h10 m-92 0 h20 m72 0 h20 m-112 0 q10 0 10 10 m92 0 q0 -10 10 -10 m-102 10 v24 m92 0 v-24 m-92 24 q0 10 10 10 m72 0 q10 0 10 -10 m-82 10 h10 m50 0 h10 m0 0 h2 m20 -44 h10 m36 0 h10 m0 0 h10 m50 0 h10 m-258 0 h20 m238 0 h20 m-278 0 q10 0 10 10 m258 0 q0 -10 10 -10 m-268 10 v68 m258 0 v-68 m-258 68 q0 10 10 10 m238 0 q10 0 10 -10 m-248 10 h10 m50 0 h10 m0 0 h10 m36 0 h10 m0 0 h10 m46 0 h10 m0 0 h46 m40 -88 h10 m44 0 h10 m0 0 h4 m-88 0 h20 m68 0 h20 m-108 0 q10 0 10 10 m88 0 q0 -10 10 -10 m-98 10 v24 m88 0 v-24 m-88 24 q0 10 10 10 m68 0 q10 0 10 -10 m-78 10 h10 m48 0 h10 m-376 -54 v20 m406 0 v-20 m-406 20 v112 m406 0 v-112 m-406 112 q0 10 10 10 m386 0 q10 0 10 -10 m-376 10 h10 m62 0 h10 m-102 0 h20 m82 0 h20 m-122 0 q10 0 10 10 m102 0 q0 -10 10 -10 m-112 10 v24 m102 0 v-24 m-102 24 q0 10 10 10 m82 0 q10 0 10 -10 m-92 10 h10 m50 0 h10 m0 0 h12 m20 -44 h10 m46 0 h10 m0 0 h198 m-396 -10 v20 m406 0 v-20 m-406 20 v68 m406 0 v-68 m-406 68 q0 10 10 10 m386 0 q10 0 10 -10 m-376 10 h10 m50 0 h10 m0 0 h12 m-102 0 h20 m82 0 h20 m-122 0 q10 0 10 10 m102 0 q0 -10 10 -10 m-112 10 v24 m102 0 v-24 m-102 24 q0 10 10 10 m82 0 q10 0 10 -10 m-92 10 h10 m56 0 h10 m0 0 h6 m-92 -10 v20 m102 0 v-20 m-102 20 v24 m102 0 v-24 m-102 24 q0 10 10 10 m82 0 q10 0 10 -10 m-92 10 h10 m62 0 h10 m-92 -10 v20 m102 0 v-20 m-102 20 v24 m102 0 v-24 m-102 24 q0 10 10 10 m82 0 q10 0 10 -10 m-92 10 h10 m52 0 h10 m0 0 h10 m-92 -10 v20 m102 0 v-20 m-102 20 v24 m102 0 v-24 m-102 24 q0 10 10 10 m82 0 q10 0 10 -10 m-92 10 h10 m50 0 h10 m0 0 h12 m20 -176 h10 m54 0 h10 m0 0 h190 m-396 -10 v20 m406 0 v-20 m-406 20 v200 m406 0 v-200 m-406 200 q0 10 10 10 m386 0 q10 0 10 -10 m-376 10 h10 m52 0 h10 m0 0 h4 m-96 0 h20 m76 0 h20 m-116 0 q10 0 10 10 m96 0 q0 -10 10 -10 m-106 10 v24 m96 0 v-24 m-96 24 q0 10 10 10 m76 0 q10 0 10 -10 m-86 10 h10 m50 0 h10 m0 0 h6 m-86 -10 v20 m96 0 v-20 m-96 20 v24 m96 0 v-24 m-96 24 q0 10 10 10 m76 0 q10 0 10 -10 m-86 10 h10 m50 0 h10 m0 0 h6 m-86 -10 v20 m96 0 v-20 m-96 20 v24 m96 0 v-24 m-96 24 q0 10 10 10 m76 0 q10 0 10 -10 m-86 10 h10 m56 0 h10 m20 -132 h10 m36 0 h10 m20 0 h10 m0 0 h64 m-94 0 h20 m74 0 h20 m-114 0 q10 0 10 10 m94 0 q0 -10 10 -10 m-104 10 v12 m94 0 v-12 m-94 12 q0 10 10 10 m74 0 q10 0 10 -10 m-84 10 h10 m54 0 h10 m20 -32 h10 m52 0 h10 m0 0 h28 m-396 -10 v20 m406 0 v-20 m-406 20 v156 m406 0 v-156 m-406 156 q0 10 10 10 m386 0 q10 0 10 -10 m-396 10 h10 m44 0 h10 m0 0 h322 m23 -748 h-3"
     id="path61" />
  <path
     id="polygon61"
     style="fill:#330000;stroke:#330000"
     d="m 455,17 8,-4 v 8 z" />
  <path
     id="polygon62"
     style="fill:#330000;stroke:#330000"
     d="m 455,17 -8,-4 v 8 z" />
</svg>
