<?xml version="1.0" encoding="UTF-8" standalone="no"?>
<svg
   width="271"
   height="69"
   version="1.1"
   id="svg8"
   sodipodi:docname="reference.svg"
   inkscape:version="1.3.1 (91b66b0783, 2023-11-16)"
   xmlns:inkscape="http://www.inkscape.org/namespaces/inkscape"
   xmlns:sodipodi="http://sodipodi.sourceforge.net/DTD/sodipodi-0.dtd"
   xmlns:xlink="http://www.w3.org/1999/xlink"
   xmlns="http://www.w3.org/2000/svg"
   xmlns:svg="http://www.w3.org/2000/svg">
  <sodipodi:namedview
     id="namedview8"
     pagecolor="#ffffff"
     bordercolor="#000000"
     borderopacity="0.25"
     inkscape:showpageshadow="2"
     inkscape:pageopacity="0.0"
     inkscape:pagecheckerboard="0"
     inkscape:deskcolor="#d1d1d1"
     inkscape:zoom="3.8413284"
     inkscape:cx="135.5"
     inkscape:cy="34.493276"
     inkscape:window-width="1920"
     inkscape:window-height="1032"
     inkscape:window-x="0"
     inkscape:window-y="25"
     inkscape:window-maximized="1"
     inkscape:current-layer="svg8" />
  <defs
     id="defs1">
    <style
       type="text/css"
       id="style1">
    @namespace &quot;http://www.w3.org/2000/svg&quot;;
    .line                 {fill: none; stroke: #320000; stroke-width: 1;}
    .bold-line            {stroke: #FFE0E0; shape-rendering: crispEdges; stroke-width: 2;}
    .thin-line            {stroke: #1F0000; shape-rendering: crispEdges}
    .filled               {fill: #320000; stroke: none;}
    text.terminal         {font-family: HelveticaNeueCyr, Sans-serif;
                            font-size: 14px;
                            fill: #FFE0E0;
                            font-weight: bold;
                          }
    text.nonterminal      {font-family: HelveticaNeueCyr, Sans-serif;
                            font-size: 14px;
                            fill: #FFE0E0;
                            font-weight: normal;
                          }
    text.regexp           {font-family: HelveticaNeueCyr, Sans-serif;
                            font-size: 14px;
                            fill: #1F0000;
                            font-weight: normal;
                          }
    rect, circle, polygon {fill: #320000; stroke: #320000;}
    rect.terminal         {fill: #FF0000; stroke: #320000; stroke-width: 1;}
    rect.nonterminal      {fill: #FF3F3F; stroke: #320000; stroke-width: 1;}
    rect.text             {fill: none; stroke: none;}
    polygon.regexp        {fill: #FF5E5E; stroke: #320000; stroke-width: 1;}
  </style>
  </defs>
  <path
     id="polygon1"
     style="fill:#320000;stroke:#320000"
     d="M 9,17 1,13 v 8 z" />
  <path
     id="polygon2"
     style="fill:#320000;stroke:#320000"
     d="M 17,17 9,13 v 8 z" />
  <a
     xlink:href="#name"
     xlink:title="table"
     id="a3">
    <path
       id="rect2"
       style="fill:#320000;stroke:#320000"
       d="m 51,35 h 52 V 67 H 51 Z" />
    <path
       id="rect3"
       class="nonterminal"
       style="fill:#ff3f3f;stroke:#320000"
       d="m 49,33 h 52 V 65 H 49 Z" />
    <path
       d="m 62.99,45.776 h -1.442 v -2.142 h -1.19 v 2.142 H 59.14 v 0.98 h 1.218 v 3.836 c 0,1.582 -0.084,2.478 1.722,2.478 0.378,0 0.532,-0.014 0.91,-0.056 v -1.022 c -0.252,0.028 -0.406,0.042 -0.644,0.042 -0.84,0 -0.798,-0.406 -0.798,-1.064 v -4.214 h 1.442 z m 7.714007,6.272 c -0.126,0.028 -0.182,0.042 -0.294,0.042 -0.364,0 -0.49,-0.182 -0.49,-0.714 0,-1.078 0.056,-2.142 0.056,-3.22 0,-0.644 0.014,-1.386 -0.49,-1.876 -0.476,-0.448 -1.302,-0.7 -2.268,-0.7 -1.862,0 -2.982,0.91 -3.024,2.45 h 1.162 c 0.112,-1.064 0.686,-1.47 1.792,-1.47 1.064,0 1.638,0.42 1.638,1.19 0,0.98 -0.588,0.938 -2.31,1.148 -1.708,0.21 -2.562,0.966 -2.562,2.254 0,1.26 0.882,2.044 2.31,2.044 1.12,0 1.904,-0.35 2.618,-1.148 0.014,0.686 0.378,1.064 1.05,1.064 0.266,0 0.56,-0.042 0.812,-0.14 z m -1.918,-2.8 v 1.316 c 0,0.924 -1.078,1.694 -2.198,1.694 -0.896,0 -1.442,-0.462 -1.442,-1.204 0,-1.162 1.176,-1.26 2.044,-1.372 0.532,-0.07 1.148,-0.098 1.596,-0.434 z m 4.21401,-6.216 h -1.19 V 53 h 1.12 v -1.05 c 0.476,0.896 1.4,1.26 2.394,1.26 2.016,0 3.332,-1.512 3.332,-3.85 0,-2.296 -1.288,-3.78 -3.262,-3.78 -0.994,0 -1.848,0.364 -2.394,1.19 z m 2.212,3.556 c 1.344,0 2.212,1.078 2.212,2.786 0,1.722 -0.882,2.842 -2.212,2.842 -1.386,0 -2.254,-1.064 -2.254,-2.772 0,-1.442 0.602,-2.856 2.254,-2.856 z m 6.174005,-3.556 h -1.204 V 53 h 1.204 z m 8.022002,7.686 h -1.162 c -0.336,1.092 -0.91,1.54 -1.946,1.54 -1.4,0 -2.254,-0.924 -2.254,-2.464 l 0.014,-0.084 h 5.432 v -0.168 c 0,-2.086 -0.896,-3.976 -3.276,-3.976 -2.002,0 -3.36,1.582 -3.36,3.92 0,2.352 1.274,3.752 3.402,3.752 1.708,0 2.786,-0.854 3.15,-2.52 z m -1.148,-1.974 h -4.2 c 0.154,-1.358 0.966,-2.198 2.128,-2.198 1.19,0 1.96,0.826 2.072,2.198 z"
       id="text3"
       class="nonterminal"
       style="font-size:14px;font-family:HelveticaNeueCyr, Sans-serif;fill:#ffe0e0"
       aria-label="table" />
  </a>
  <path
     id="rect4"
     style="fill:#320000;stroke:#320000"
     d="m 133,35 h 4 c 5.54,0 10,4.46 10,10 v 12 c 0,5.54 -4.46,10 -10,10 h -4 c -5.54,0 -10,-4.46 -10,-10 V 45 c 0,-5.54 4.46,-10 10,-10 z" />
  <path
     id="rect5"
     class="terminal"
     style="fill:#ff0000;stroke:#320000"
     d="m 131,33 h 4 c 5.54,0 10,4.46 10,10 v 12 c 0,5.54 -4.46,10 -10,10 h -4 c -5.54,0 -10,-4.46 -10,-10 V 43 c 0,-5.54 4.46,-10 10,-10 z" />
  <path
     d="M 134.052,50.816 H 131.84 V 53 h 2.212 z"
     id="text5"
     class="terminal"
     style="font-weight:bold;font-size:14px;font-family:HelveticaNeueCyr, Sans-serif;fill:#ffe0e0"
     aria-label="." />
  <a
     xlink:href="#name"
     xlink:title="name"
     id="a7">
    <path
       id="rect6"
       style="fill:#320000;stroke:#320000"
       d="m 187,3 h 56 v 32 h -56 z" />
    <path
       id="rect7"
       class="nonterminal"
       style="fill:#ff3f3f;stroke:#320000"
       d="m 185,1 h 56 v 32 h -56 z" />
    <path
       d="m 197.016,13.776 h -1.12 V 21 h 1.19 v -3.78 c 0,-1.428 0.504,-2.604 2.058,-2.604 1.498,0 1.554,0.98 1.554,2.128 V 21 h 1.19 v -4.802 c 0,-1.652 -0.644,-2.618 -2.408,-2.618 -1.106,0 -1.862,0.434 -2.464,1.316 z m 13.062,6.272 c -0.126,0.028 -0.182,0.042 -0.294,0.042 -0.364,0 -0.49,-0.182 -0.49,-0.714 0,-1.078 0.056,-2.142 0.056,-3.22 0,-0.644 0.014,-1.386 -0.49,-1.876 -0.476,-0.448 -1.302,-0.7 -2.268,-0.7 -1.862,0 -2.982,0.91 -3.024,2.45 h 1.162 c 0.112,-1.064 0.686,-1.47 1.792,-1.47 1.064,0 1.638,0.42 1.638,1.19 0,0.98 -0.588,0.938 -2.31,1.148 -1.708,0.21 -2.562,0.966 -2.562,2.254 0,1.26 0.882,2.044 2.31,2.044 1.12,0 1.904,-0.35 2.618,-1.148 0.014,0.686 0.378,1.064 1.05,1.064 0.266,0 0.56,-0.042 0.812,-0.14 z m -1.918,-2.8 v 1.316 c 0,0.924 -1.078,1.694 -2.198,1.694 -0.896,0 -1.442,-0.462 -1.442,-1.204 0,-1.162 1.176,-1.26 2.044,-1.372 0.532,-0.07 1.148,-0.098 1.596,-0.434 z m 4.15801,-3.472 h -1.12 V 21 h 1.19 v -3.822 c 0,-1.358 0.364,-2.52 1.96,-2.52 1.148,0 1.33,0.756 1.33,1.708 V 21 h 1.19 v -4.102 c 0,-1.33 0.49,-2.254 1.848,-2.254 1.288,0 1.442,0.784 1.442,1.806 V 21 h 1.19 v -5.054 c 0,-1.47 -0.756,-2.366 -2.282,-2.366 -1.078,0 -1.778,0.434 -2.394,1.26 -0.364,-0.868 -1.036,-1.246 -2.002,-1.246 -1.064,0 -1.736,0.406 -2.352,1.232 z m 16.996,4.942 h -1.162 c -0.336,1.092 -0.91,1.54 -1.946,1.54 -1.4,0 -2.254,-0.924 -2.254,-2.464 l 0.014,-0.084 h 5.432 v -0.168 c 0,-2.086 -0.896,-3.976 -3.276,-3.976 -2.002,0 -3.36,1.582 -3.36,3.92 0,2.352 1.274,3.752 3.402,3.752 1.708,0 2.786,-0.854 3.15,-2.52 z m -1.148,-1.974 h -4.2 c 0.154,-1.358 0.966,-2.198 2.128,-2.198 1.19,0 1.96,0.826 2.072,2.198 z"
       id="text7"
       class="nonterminal"
       style="font-size:14px;font-family:HelveticaNeueCyr, Sans-serif;fill:#ffe0e0"
       aria-label="name" />
  </a>
  <path
     class="line"
     d="m17 17 h2 m20 0 h10 m0 0 h106 m-136 0 h20 m116 0 h20 m-156 0 q10 0 10 10 m136 0 q0 -10 10 -10 m-146 10 v12 m136 0 v-12 m-136 12 q0 10 10 10 m116 0 q10 0 10 -10 m-126 10 h10 m52 0 h10 m0 0 h10 m24 0 h10 m20 -32 h10 m56 0 h10 m3 0 h-3"
     id="path7" />
  <path
     id="polygon7"
     style="fill:#320000;stroke:#320000"
     d="m 261,17 8,-4 v 8 z" />
  <path
     id="polygon8"
     style="fill:#320000;stroke:#320000"
     d="m 261,17 -8,-4 v 8 z" />
</svg>
