<?xml version="1.0" encoding="UTF-8"?>
<svg xmlns="http://www.w3.org/2000/svg" width="915" height="1147" viewBox="0 0 915 1147">
   <defs>
      <style type="text/css">
    @namespace "http://www.w3.org/2000/svg";
    .line                 {fill: none; stroke: #330000; stroke-width: 1;}
    .bold-line            {stroke: #140000; shape-rendering: crispEdges; stroke-width: 2;}
    .thin-line            {stroke: #1F0000; shape-rendering: crispEdges}
    .filled               {fill: #330000; stroke: none;}
    text.terminal         {font-family: Verdana, Sans-serif;
                            font-size: 12px;
                            fill: #140000;
                            font-weight: bold;
                          }
    text.nonterminal      {font-family: Verdana, Sans-serif;
                            font-size: 12px;
                            fill: #1A0000;
                            font-weight: normal;
                          }
    text.regexp           {font-family: Verdana, Sans-serif;
                            font-size: 12px;
                            fill: #1F0000;
                            font-weight: normal;
                          }
    rect, circle, polygon {fill: #330000; stroke: #330000;}
    rect.terminal         {fill: #FF4D4D; stroke: #330000; stroke-width: 1;}
    rect.nonterminal      {fill: #FF9E9E; stroke: #330000; stroke-width: 1;}
    rect.text             {fill: none; stroke: none;}
    polygon.regexp        {fill: #FFC7C7; stroke: #330000; stroke-width: 1;}
  </style>
      <style class="darkreader darkreader--sync" media="screen"/>
   </defs>
   <polygon points="9 17 1 13 1 21"/>
   <polygon points="17 17 9 13 9 21"/>
   <rect x="31" y="3" width="74" height="32" rx="10"/>
   <rect x="29"
         y="1"
         width="74"
         height="32"
         class="terminal"
         rx="10"/>
   <text class="terminal" x="39" y="21">REVOKE</text>
   <rect x="165" y="3" width="72" height="32" rx="10"/>
   <rect x="163"
         y="1"
         width="72"
         height="32"
         class="terminal"
         rx="10"/>
   <text class="terminal" x="173" y="21">CREATE</text>
   <rect x="165" y="47" width="62" height="32" rx="10"/>
   <rect x="163"
         y="45"
         width="62"
         height="32"
         class="terminal"
         rx="10"/>
   <text class="terminal" x="173" y="65">ALTER</text>
   <rect x="165" y="91" width="58" height="32" rx="10"/>
   <rect x="163"
         y="89"
         width="58"
         height="32"
         class="terminal"
         rx="10"/>
   <text class="terminal" x="173" y="109">DROP</text>
   <rect x="277" y="3" width="56" height="32" rx="10"/>
   <rect x="275"
         y="1"
         width="56"
         height="32"
         class="terminal"
         rx="10"/>
   <text class="terminal" x="285" y="21">USER</text>
   <rect x="165" y="135" width="62" height="32" rx="10"/>
   <rect x="163"
         y="133"
         width="62"
         height="32"
         class="terminal"
         rx="10"/>
   <text class="terminal" x="173" y="153">ALTER</text>
   <rect x="165" y="179" width="58" height="32" rx="10"/>
   <rect x="163"
         y="177"
         width="58"
         height="32"
         class="terminal"
         rx="10"/>
   <text class="terminal" x="173" y="197">DROP</text>
   <rect x="267" y="135" width="40" height="32" rx="10"/>
   <rect x="265"
         y="133"
         width="40"
         height="32"
         class="terminal"
         rx="10"/>
   <text class="terminal" x="275" y="153">ON</text>
   <rect x="327" y="135" width="56" height="32" rx="10"/>
   <rect x="325"
         y="133"
         width="56"
         height="32"
         class="terminal"
         rx="10"/>
   <text class="terminal" x="335" y="153">USER</text>
   <a xmlns:xlink="http://www.w3.org/1999/xlink"
      xlink:href="../object"
      xlink:title="user">
      <rect x="403" y="135" width="48" height="32"/>
      <rect x="401" y="133" width="48" height="32" class="nonterminal"/>
      <text class="nonterminal" x="411" y="153">user</text>
   </a>
   <rect x="165" y="223" width="72" height="32" rx="10"/>
   <rect x="163"
         y="221"
         width="72"
         height="32"
         class="terminal"
         rx="10"/>
   <text class="terminal" x="173" y="241">CREATE</text>
   <rect x="165" y="267" width="58" height="32" rx="10"/>
   <rect x="163"
         y="265"
         width="58"
         height="32"
         class="terminal"
         rx="10"/>
   <text class="terminal" x="173" y="285">DROP</text>
   <rect x="277" y="223" width="56" height="32" rx="10"/>
   <rect x="275"
         y="221"
         width="56"
         height="32"
         class="terminal"
         rx="10"/>
   <text class="terminal" x="285" y="241">ROLE</text>
   <rect x="165" y="343" width="58" height="32" rx="10"/>
   <rect x="163"
         y="341"
         width="58"
         height="32"
         class="terminal"
         rx="10"/>
   <text class="terminal" x="173" y="361">DROP</text>
   <rect x="243" y="343" width="40" height="32" rx="10"/>
   <rect x="241"
         y="341"
         width="40"
         height="32"
         class="terminal"
         rx="10"/>
   <text class="terminal" x="251" y="361">ON</text>
   <rect x="303" y="343" width="56" height="32" rx="10"/>
   <rect x="301"
         y="341"
         width="56"
         height="32"
         class="terminal"
         rx="10"/>
   <text class="terminal" x="311" y="361">ROLE</text>
   <a xmlns:xlink="http://www.w3.org/1999/xlink"
      xlink:href="../object"
      xlink:title="role">
      <rect x="399" y="311" width="44" height="32"/>
      <rect x="397" y="309" width="44" height="32" class="nonterminal"/>
      <text class="nonterminal" x="407" y="329">role</text>
   </a>
   <rect x="165" y="387" width="72" height="32" rx="10"/>
   <rect x="163"
         y="385"
         width="72"
         height="32"
         class="terminal"
         rx="10"/>
   <text class="terminal" x="173" y="405">CREATE</text>
   <rect x="165" y="431" width="62" height="32" rx="10"/>
   <rect x="163"
         y="429"
         width="62"
         height="32"
         class="terminal"
         rx="10"/>
   <text class="terminal" x="173" y="449">ALTER</text>
   <rect x="165" y="475" width="58" height="32" rx="10"/>
   <rect x="163"
         y="473"
         width="58"
         height="32"
         class="terminal"
         rx="10"/>
   <text class="terminal" x="173" y="493">DROP</text>
   <rect x="165" y="519" width="56" height="32" rx="10"/>
   <rect x="163"
         y="517"
         width="56"
         height="32"
         class="terminal"
         rx="10"/>
   <text class="terminal" x="173" y="537">READ</text>
   <rect x="165" y="563" width="66" height="32" rx="10"/>
   <rect x="163"
         y="561"
         width="66"
         height="32"
         class="terminal"
         rx="10"/>
   <text class="terminal" x="173" y="581">WRITE</text>
   <rect x="277" y="387" width="62" height="32" rx="10"/>
   <rect x="275"
         y="385"
         width="62"
         height="32"
         class="terminal"
         rx="10"/>
   <text class="terminal" x="285" y="405">TABLE</text>
   <rect x="165" y="607" width="62" height="32" rx="10"/>
   <rect x="163"
         y="605"
         width="62"
         height="32"
         class="terminal"
         rx="10"/>
   <text class="terminal" x="173" y="625">ALTER</text>
   <rect x="165" y="651" width="58" height="32" rx="10"/>
   <rect x="163"
         y="649"
         width="58"
         height="32"
         class="terminal"
         rx="10"/>
   <text class="terminal" x="173" y="669">DROP</text>
   <rect x="165" y="695" width="56" height="32" rx="10"/>
   <rect x="163"
         y="693"
         width="56"
         height="32"
         class="terminal"
         rx="10"/>
   <text class="terminal" x="173" y="713">READ</text>
   <rect x="165" y="739" width="66" height="32" rx="10"/>
   <rect x="163"
         y="737"
         width="66"
         height="32"
         class="terminal"
         rx="10"/>
   <text class="terminal" x="173" y="757">WRITE</text>
   <rect x="271" y="607" width="40" height="32" rx="10"/>
   <rect x="269"
         y="605"
         width="40"
         height="32"
         class="terminal"
         rx="10"/>
   <text class="terminal" x="279" y="625">ON</text>
   <rect x="331" y="607" width="62" height="32" rx="10"/>
   <rect x="329"
         y="605"
         width="62"
         height="32"
         class="terminal"
         rx="10"/>
   <text class="terminal" x="339" y="625">TABLE</text>
   <a xmlns:xlink="http://www.w3.org/1999/xlink"
      xlink:href="../object"
      xlink:title="table">
      <rect x="413" y="607" width="52" height="32"/>
      <rect x="411" y="605" width="52" height="32" class="nonterminal"/>
      <text class="nonterminal" x="421" y="625">table</text>
   </a>
   <rect x="165" y="783" width="72" height="32" rx="10"/>
   <rect x="163"
         y="781"
         width="72"
         height="32"
         class="terminal"
         rx="10"/>
   <text class="terminal" x="173" y="801">CREATE</text>
   <rect x="165" y="827" width="80" height="32" rx="10"/>
   <rect x="163"
         y="825"
         width="80"
         height="32"
         class="terminal"
         rx="10"/>
   <text class="terminal" x="173" y="845">EXECUTE</text>
   <rect x="165" y="871" width="58" height="32" rx="10"/>
   <rect x="163"
         y="869"
         width="58"
         height="32"
         class="terminal"
         rx="10"/>
   <text class="terminal" x="173" y="889">DROP</text>
   <rect x="285" y="783" width="104" height="32" rx="10"/>
   <rect x="283"
         y="781"
         width="104"
         height="32"
         class="terminal"
         rx="10"/>
   <text class="terminal" x="293" y="801">PROCEDURE</text>
   <rect x="165" y="959" width="80" height="32" rx="10"/>
   <rect x="163"
         y="957"
         width="80"
         height="32"
         class="terminal"
         rx="10"/>
   <text class="terminal" x="173" y="977">EXECUTE</text>
   <rect x="165" y="1003" width="58" height="32" rx="10"/>
   <rect x="163"
         y="1001"
         width="58"
         height="32"
         class="terminal"
         rx="10"/>
   <text class="terminal" x="173" y="1021">DROP</text>
   <rect x="285" y="959" width="40" height="32" rx="10"/>
   <rect x="283"
         y="957"
         width="40"
         height="32"
         class="terminal"
         rx="10"/>
   <text class="terminal" x="293" y="977">ON</text>
   <rect x="345" y="959" width="104" height="32" rx="10"/>
   <rect x="343"
         y="957"
         width="104"
         height="32"
         class="terminal"
         rx="10"/>
   <text class="terminal" x="353" y="977">PROCEDURE</text>
   <a xmlns:xlink="http://www.w3.org/1999/xlink"
      xlink:href="../object"
      xlink:title="procedure">
      <rect x="469" y="959" width="84" height="32"/>
      <rect x="467" y="957" width="84" height="32" class="nonterminal"/>
      <text class="nonterminal" x="477" y="977">procedure</text>
   </a>
   <rect x="593" y="959" width="26" height="32" rx="10"/>
   <rect x="591"
         y="957"
         width="26"
         height="32"
         class="terminal"
         rx="10"/>
   <text class="terminal" x="601" y="977">(</text>
   <a xmlns:xlink="http://www.w3.org/1999/xlink"
      xlink:href="#type"
      xlink:title="type">
      <rect x="659" y="959" width="48" height="32"/>
      <rect x="657" y="957" width="48" height="32" class="nonterminal"/>
      <text class="nonterminal" x="667" y="977">type</text>
   </a>
   <rect x="659" y="915" width="24" height="32" rx="10"/>
   <rect x="657"
         y="913"
         width="24"
         height="32"
         class="terminal"
         rx="10"/>
   <text class="terminal" x="667" y="933">,</text>
   <rect x="747" y="959" width="26" height="32" rx="10"/>
   <rect x="745"
         y="957"
         width="26"
         height="32"
         class="terminal"
         rx="10"/>
   <text class="terminal" x="755" y="977">)</text>
   <rect x="833" y="3" width="60" height="32" rx="10"/>
   <rect x="831"
         y="1"
         width="60"
         height="32"
         class="terminal"
         rx="10"/>
   <text class="terminal" x="841" y="21">FROM</text>
   <a xmlns:xlink="http://www.w3.org/1999/xlink"
      xlink:href="../object"
      xlink:title="role">
      <rect x="819" y="1069" width="44" height="32"/>
      <rect x="817" y="1067" width="44" height="32" class="nonterminal"/>
      <text class="nonterminal" x="827" y="1087">role</text>
   </a>
   <a xmlns:xlink="http://www.w3.org/1999/xlink"
      xlink:href="../object"
      xlink:title="user">
      <rect x="819" y="1113" width="48" height="32"/>
      <rect x="817" y="1111" width="48" height="32" class="nonterminal"/>
      <text class="nonterminal" x="827" y="1131">user</text>
   </a>
   <path class="line"
         d="m17 17 h2 m0 0 h10 m74 0 h10 m40 0 h10 m72 0 h10 m-112 0 h20 m92 0 h20 m-132 0 q10 0 10 10 m112 0 q0 -10 10 -10 m-122 10 v24 m112 0 v-24 m-112 24 q0 10 10 10 m92 0 q10 0 10 -10 m-102 10 h10 m62 0 h10 m0 0 h10 m-102 -10 v20 m112 0 v-20 m-112 20 v24 m112 0 v-24 m-112 24 q0 10 10 10 m92 0 q10 0 10 -10 m-102 10 h10 m58 0 h10 m0 0 h14 m20 -88 h10 m56 0 h10 m0 0 h460 m-688 0 h20 m668 0 h20 m-708 0 q10 0 10 10 m688 0 q0 -10 10 -10 m-698 10 v112 m688 0 v-112 m-688 112 q0 10 10 10 m668 0 q10 0 10 -10 m-658 10 h10 m62 0 h10 m-102 0 h20 m82 0 h20 m-122 0 q10 0 10 10 m102 0 q0 -10 10 -10 m-112 10 v24 m102 0 v-24 m-102 24 q0 10 10 10 m82 0 q10 0 10 -10 m-92 10 h10 m58 0 h10 m0 0 h4 m20 -44 h10 m40 0 h10 m0 0 h10 m56 0 h10 m0 0 h10 m48 0 h10 m0 0 h342 m-678 -10 v20 m688 0 v-20 m-688 20 v68 m688 0 v-68 m-688 68 q0 10 10 10 m668 0 q10 0 10 -10 m-658 10 h10 m72 0 h10 m-112 0 h20 m92 0 h20 m-132 0 q10 0 10 10 m112 0 q0 -10 10 -10 m-122 10 v24 m112 0 v-24 m-112 24 q0 10 10 10 m92 0 q10 0 10 -10 m-102 10 h10 m58 0 h10 m0 0 h14 m20 -44 h10 m56 0 h10 m0 0 h460 m-678 -10 v20 m688 0 v-20 m-688 20 v68 m688 0 v-68 m-688 68 q0 10 10 10 m668 0 q10 0 10 -10 m-658 10 h10 m0 0 h204 m-234 0 h20 m214 0 h20 m-254 0 q10 0 10 10 m234 0 q0 -10 10 -10 m-244 10 v12 m234 0 v-12 m-234 12 q0 10 10 10 m214 0 q10 0 10 -10 m-224 10 h10 m58 0 h10 m0 0 h10 m40 0 h10 m0 0 h10 m56 0 h10 m20 -32 h10 m44 0 h10 m0 0 h350 m-678 -10 v20 m688 0 v-20 m-688 20 v56 m688 0 v-56 m-688 56 q0 10 10 10 m668 0 q10 0 10 -10 m-658 10 h10 m72 0 h10 m-112 0 h20 m92 0 h20 m-132 0 q10 0 10 10 m112 0 q0 -10 10 -10 m-122 10 v24 m112 0 v-24 m-112 24 q0 10 10 10 m92 0 q10 0 10 -10 m-102 10 h10 m62 0 h10 m0 0 h10 m-102 -10 v20 m112 0 v-20 m-112 20 v24 m112 0 v-24 m-112 24 q0 10 10 10 m92 0 q10 0 10 -10 m-102 10 h10 m58 0 h10 m0 0 h14 m-102 -10 v20 m112 0 v-20 m-112 20 v24 m112 0 v-24 m-112 24 q0 10 10 10 m92 0 q10 0 10 -10 m-102 10 h10 m56 0 h10 m0 0 h16 m-102 -10 v20 m112 0 v-20 m-112 20 v24 m112 0 v-24 m-112 24 q0 10 10 10 m92 0 q10 0 10 -10 m-102 10 h10 m66 0 h10 m0 0 h6 m20 -176 h10 m62 0 h10 m0 0 h454 m-678 -10 v20 m688 0 v-20 m-688 20 v200 m688 0 v-200 m-688 200 q0 10 10 10 m668 0 q10 0 10 -10 m-658 10 h10 m62 0 h10 m0 0 h4 m-106 0 h20 m86 0 h20 m-126 0 q10 0 10 10 m106 0 q0 -10 10 -10 m-116 10 v24 m106 0 v-24 m-106 24 q0 10 10 10 m86 0 q10 0 10 -10 m-96 10 h10 m58 0 h10 m0 0 h8 m-96 -10 v20 m106 0 v-20 m-106 20 v24 m106 0 v-24 m-106 24 q0 10 10 10 m86 0 q10 0 10 -10 m-96 10 h10 m56 0 h10 m0 0 h10 m-96 -10 v20 m106 0 v-20 m-106 20 v24 m106 0 v-24 m-106 24 q0 10 10 10 m86 0 q10 0 10 -10 m-96 10 h10 m66 0 h10 m20 -132 h10 m40 0 h10 m0 0 h10 m62 0 h10 m0 0 h10 m52 0 h10 m0 0 h328 m-678 -10 v20 m688 0 v-20 m-688 20 v156 m688 0 v-156 m-688 156 q0 10 10 10 m668 0 q10 0 10 -10 m-658 10 h10 m72 0 h10 m0 0 h8 m-120 0 h20 m100 0 h20 m-140 0 q10 0 10 10 m120 0 q0 -10 10 -10 m-130 10 v24 m120 0 v-24 m-120 24 q0 10 10 10 m100 0 q10 0 10 -10 m-110 10 h10 m80 0 h10 m-110 -10 v20 m120 0 v-20 m-120 20 v24 m120 0 v-24 m-120 24 q0 10 10 10 m100 0 q10 0 10 -10 m-110 10 h10 m58 0 h10 m0 0 h22 m20 -88 h10 m104 0 h10 m0 0 h404 m-678 -10 v20 m688 0 v-20 m-688 20 v156 m688 0 v-156 m-688 156 q0 10 10 10 m668 0 q10 0 10 -10 m-658 10 h10 m80 0 h10 m-120 0 h20 m100 0 h20 m-140 0 q10 0 10 10 m120 0 q0 -10 10 -10 m-130 10 v24 m120 0 v-24 m-120 24 q0 10 10 10 m100 0 q10 0 10 -10 m-110 10 h10 m58 0 h10 m0 0 h22 m20 -44 h10 m40 0 h10 m0 0 h10 m104 0 h10 m0 0 h10 m84 0 h10 m20 0 h10 m26 0 h10 m20 0 h10 m48 0 h10 m-88 0 l20 0 m-1 0 q-9 0 -9 -10 l0 -24 q0 -10 10 -10 m68 44 l20 0 m-20 0 q10 0 10 -10 l0 -24 q0 -10 -10 -10 m-68 0 h10 m24 0 h10 m0 0 h24 m20 44 h10 m26 0 h10 m-220 0 h20 m200 0 h20 m-240 0 q10 0 10 10 m220 0 q0 -10 10 -10 m-230 10 v14 m220 0 v-14 m-220 14 q0 10 10 10 m200 0 q10 0 10 -10 m-210 10 h10 m0 0 h190 m40 -990 h10 m60 0 h10 m2 0 l2 0 m2 0 l2 0 m2 0 l2 0 m-138 1066 l2 0 m2 0 l2 0 m2 0 l2 0 m22 0 h10 m44 0 h10 m0 0 h4 m-88 0 h20 m68 0 h20 m-108 0 q10 0 10 10 m88 0 q0 -10 10 -10 m-98 10 v24 m88 0 v-24 m-88 24 q0 10 10 10 m68 0 q10 0 10 -10 m-78 10 h10 m48 0 h10 m23 -44 h-3"/>
   <polygon points="905 1083 913 1079 913 1087"/>
   <polygon points="905 1083 897 1079 897 1087"/>
</svg>
