<?xml version="1.0" encoding="UTF-8"?>
<svg xmlns="http://www.w3.org/2000/svg" width="443" height="101" viewBox="0 0 443 101">
   <defs>
      <style type="text/css">
    @namespace "http://www.w3.org/2000/svg";
    .line                 {fill: none; stroke: #330000; stroke-width: 1;}
    .bold-line            {stroke: #140000; shape-rendering: crispEdges; stroke-width: 2;}
    .thin-line            {stroke: #1F0000; shape-rendering: crispEdges}
    .filled               {fill: #330000; stroke: none;}
    text.terminal         {font-family: Verdana, Sans-serif;
                            font-size: 12px;
                            fill: #140000;
                            font-weight: bold;
                          }
    text.nonterminal      {font-family: Verdana, Sans-serif;
                            font-size: 12px;
                            fill: #1A0000;
                            font-weight: normal;
                          }
    text.regexp           {font-family: Verdana, Sans-serif;
                            font-size: 12px;
                            fill: #1F0000;
                            font-weight: normal;
                          }
    rect, circle, polygon {fill: #330000; stroke: #330000;}
    rect.terminal         {fill: #FF4D4D; stroke: #330000; stroke-width: 1;}
    rect.nonterminal      {fill: #FF9E9E; stroke: #330000; stroke-width: 1;}
    rect.text             {fill: none; stroke: none;}
    polygon.regexp        {fill: #FFC7C7; stroke: #330000; stroke-width: 1;}
  </style>
   </defs>
   <polygon points="9 17 1 13 1 21"/>
   <polygon points="17 17 9 13 9 21"/>
   <a xmlns:xlink="http://www.w3.org/1999/xlink"
      xlink:href="../object"
      xlink:title="table">
      <rect x="51" y="3" width="52" height="32"/>
      <rect x="49" y="1" width="52" height="32" class="nonterminal"/>
      <text class="nonterminal" x="59" y="21">table</text>
   </a>
   <rect x="51" y="47" width="26" height="32" rx="10"/>
   <rect x="49"
         y="45"
         width="26"
         height="32"
         class="terminal"
         rx="10"/>
   <text class="terminal" x="59" y="65">(</text>
   <a xmlns:xlink="http://www.w3.org/1999/xlink"
      xlink:href="../dql"
      xlink:title="dql">
      <rect x="97" y="47" width="38" height="32"/>
      <rect x="95" y="45" width="38" height="32" class="nonterminal"/>
      <text class="nonterminal" x="105" y="65">dql</text>
   </a>
   <rect x="155" y="47" width="26" height="32" rx="10"/>
   <rect x="153"
         y="45"
         width="26"
         height="32"
         class="terminal"
         rx="10"/>
   <text class="terminal" x="163" y="65">)</text>
   <rect x="261" y="67" width="38" height="32" rx="10"/>
   <rect x="259"
         y="65"
         width="38"
         height="32"
         class="terminal"
         rx="10"/>
   <text class="terminal" x="269" y="85">AS</text>
   <a xmlns:xlink="http://www.w3.org/1999/xlink"
      xlink:href="../object"
      xlink:title="name">
      <rect x="339" y="35" width="56" height="32"/>
      <rect x="337" y="33" width="56" height="32" class="nonterminal"/>
      <text class="nonterminal" x="347" y="53">name</text>
   </a>
   <path class="line"
         d="m17 17 h2 m20 0 h10 m52 0 h10 m0 0 h78 m-170 0 h20 m150 0 h20 m-190 0 q10 0 10 10 m170 0 q0 -10 10 -10 m-180 10 v24 m170 0 v-24 m-170 24 q0 10 10 10 m150 0 q10 0 10 -10 m-160 10 h10 m26 0 h10 m0 0 h10 m38 0 h10 m0 0 h10 m26 0 h10 m40 -44 h10 m0 0 h164 m-194 0 h20 m174 0 h20 m-214 0 q10 0 10 10 m194 0 q0 -10 10 -10 m-204 10 v12 m194 0 v-12 m-194 12 q0 10 10 10 m174 0 q10 0 10 -10 m-164 10 h10 m0 0 h48 m-78 0 h20 m58 0 h20 m-98 0 q10 0 10 10 m78 0 q0 -10 10 -10 m-88 10 v12 m78 0 v-12 m-78 12 q0 10 10 10 m58 0 q10 0 10 -10 m-68 10 h10 m38 0 h10 m20 -32 h10 m56 0 h10 m23 -32 h-3"/>
   <polygon points="433 17 441 13 441 21"/>
   <polygon points="433 17 425 13 425 21"/>
</svg>
