<?xml version="1.0" encoding="UTF-8"?>
<svg xmlns="http://www.w3.org/2000/svg" width="723" height="857" viewBox="0 0 723 857">
   <defs>
      <style type="text/css">
    @namespace "http://www.w3.org/2000/svg";
    .line                 {fill: none; stroke: #330000; stroke-width: 1;}
    .bold-line            {stroke: #140000; shape-rendering: crispEdges; stroke-width: 2;}
    .thin-line            {stroke: #1F0000; shape-rendering: crispEdges}
    .filled               {fill: #330000; stroke: none;}
    text.terminal         {font-family: Verdana, Sans-serif;
                            font-size: 12px;
                            fill: #140000;
                            font-weight: bold;
                          }
    text.nonterminal      {font-family: Verdana, Sans-serif;
                            font-size: 12px;
                            fill: #1A0000;
                            font-weight: normal;
                          }
    text.regexp           {font-family: Verdana, Sans-serif;
                            font-size: 12px;
                            fill: #1F0000;
                            font-weight: normal;
                          }
    rect, circle, polygon {fill: #330000; stroke: #330000;}
    rect.terminal         {fill: #FF4D4D; stroke: #330000; stroke-width: 1;}
    rect.nonterminal      {fill: #FF9E9E; stroke: #330000; stroke-width: 1;}
    rect.text             {fill: none; stroke: none;}
    polygon.regexp        {fill: #FFC7C7; stroke: #330000; stroke-width: 1;}
  </style>
   </defs>
   <polygon points="9 61 1 57 1 65"/>
   <polygon points="17 61 9 57 9 65"/>
   <rect x="31" y="47" width="70" height="32" rx="10"/>
   <rect x="29"
         y="45"
         width="70"
         height="32"
         class="terminal"
         rx="10"/>
   <text class="terminal" x="39" y="65">SELECT</text>
   <rect x="141" y="79" width="86" height="32" rx="10"/>
   <rect x="139"
         y="77"
         width="86"
         height="32"
         class="terminal"
         rx="10"/>
   <text class="terminal" x="149" y="97">DISTINCT</text>
   <a xmlns:xlink="http://www.w3.org/1999/xlink"
      xlink:href="#projection"
      xlink:title="projection">
      <rect x="287" y="47" width="84" height="32"/>
      <rect x="285" y="45" width="84" height="32" class="nonterminal"/>
      <text class="nonterminal" x="295" y="65">projection</text>
   </a>
   <rect x="287" y="3" width="24" height="32" rx="10"/>
   <rect x="285"
         y="1"
         width="24"
         height="32"
         class="terminal"
         rx="10"/>
   <text class="terminal" x="295" y="21">,</text>
   <rect x="411" y="47" width="60" height="32" rx="10"/>
   <rect x="409"
         y="45"
         width="60"
         height="32"
         class="terminal"
         rx="10"/>
   <text class="terminal" x="419" y="65">FROM</text>
   <a xmlns:xlink="http://www.w3.org/1999/xlink"
      xlink:href="#scan"
      xlink:title="scan">
      <rect x="491" y="47" width="48" height="32"/>
      <rect x="489" y="45" width="48" height="32" class="nonterminal"/>
      <text class="nonterminal" x="499" y="65">scan</text>
   </a>
   <rect x="118" y="193" width="64" height="32" rx="10"/>
   <rect x="116"
         y="191"
         width="64"
         height="32"
         class="terminal"
         rx="10"/>
   <text class="terminal" x="126" y="211">INNER</text>
   <rect x="118" y="237" width="52" height="32" rx="10"/>
   <rect x="116"
         y="235"
         width="52"
         height="32"
         class="terminal"
         rx="10"/>
   <text class="terminal" x="126" y="255">LEFT</text>
   <rect x="210" y="269" width="66" height="32" rx="10"/>
   <rect x="208"
         y="267"
         width="66"
         height="32"
         class="terminal"
         rx="10"/>
   <text class="terminal" x="218" y="287">OUTER</text>
   <rect x="336" y="161" width="54" height="32" rx="10"/>
   <rect x="334"
         y="159"
         width="54"
         height="32"
         class="terminal"
         rx="10"/>
   <text class="terminal" x="344" y="179">JOIN</text>
   <a xmlns:xlink="http://www.w3.org/1999/xlink"
      xlink:href="#scan"
      xlink:title="scan">
      <rect x="410" y="161" width="48" height="32"/>
      <rect x="408" y="159" width="48" height="32" class="nonterminal"/>
      <text class="nonterminal" x="418" y="179">scan</text>
   </a>
   <rect x="478" y="161" width="40" height="32" rx="10"/>
   <rect x="476"
         y="159"
         width="40"
         height="32"
         class="terminal"
         rx="10"/>
   <text class="terminal" x="486" y="179">ON</text>
   <a xmlns:xlink="http://www.w3.org/1999/xlink"
      xlink:href="#expression"
      xlink:title="expression">
      <rect x="538" y="161" width="90" height="32"/>
      <rect x="536" y="159" width="90" height="32" class="nonterminal"/>
      <text class="nonterminal" x="546" y="179">expression</text>
   </a>
   <rect x="105" y="427" width="70" height="32" rx="10"/>
   <rect x="103"
         y="425"
         width="70"
         height="32"
         class="terminal"
         rx="10"/>
   <text class="terminal" x="113" y="445">WHERE</text>
   <a xmlns:xlink="http://www.w3.org/1999/xlink"
      xlink:href="#expression"
      xlink:title="expression">
      <rect x="195" y="427" width="90" height="32"/>
      <rect x="193" y="425" width="90" height="32" class="nonterminal"/>
      <text class="nonterminal" x="203" y="445">expression</text>
   </a>
   <rect x="345" y="395" width="68" height="32" rx="10"/>
   <rect x="343"
         y="393"
         width="68"
         height="32"
         class="terminal"
         rx="10"/>
   <text class="terminal" x="353" y="413">GROUP</text>
   <rect x="433" y="395" width="38" height="32" rx="10"/>
   <rect x="431"
         y="393"
         width="38"
         height="32"
         class="terminal"
         rx="10"/>
   <text class="terminal" x="441" y="413">BY</text>
   <a xmlns:xlink="http://www.w3.org/1999/xlink"
      xlink:href="#expression"
      xlink:title="expression">
      <rect x="511" y="395" width="90" height="32"/>
      <rect x="509" y="393" width="90" height="32" class="nonterminal"/>
      <text class="nonterminal" x="519" y="413">expression</text>
   </a>
   <rect x="511" y="351" width="24" height="32" rx="10"/>
   <rect x="509"
         y="349"
         width="24"
         height="32"
         class="terminal"
         rx="10"/>
   <text class="terminal" x="519" y="369">,</text>
   <rect x="45" y="569" width="74" height="32" rx="10"/>
   <rect x="43"
         y="567"
         width="74"
         height="32"
         class="terminal"
         rx="10"/>
   <text class="terminal" x="53" y="587">HAVING</text>
   <a xmlns:xlink="http://www.w3.org/1999/xlink"
      xlink:href="#expression"
      xlink:title="expression">
      <rect x="139" y="569" width="90" height="32"/>
      <rect x="137" y="567" width="90" height="32" class="nonterminal"/>
      <text class="nonterminal" x="147" y="587">expression</text>
   </a>
   <rect x="289" y="537" width="68" height="32" rx="10"/>
   <rect x="287"
         y="535"
         width="68"
         height="32"
         class="terminal"
         rx="10"/>
   <text class="terminal" x="297" y="555">ORDER</text>
   <rect x="377" y="537" width="38" height="32" rx="10"/>
   <rect x="375"
         y="535"
         width="38"
         height="32"
         class="terminal"
         rx="10"/>
   <text class="terminal" x="385" y="555">BY</text>
   <a xmlns:xlink="http://www.w3.org/1999/xlink"
      xlink:href="#expression"
      xlink:title="expression">
      <rect x="455" y="537" width="90" height="32"/>
      <rect x="453" y="535" width="90" height="32" class="nonterminal"/>
      <text class="nonterminal" x="463" y="555">expression</text>
   </a>
   <rect x="585" y="569" width="46" height="32" rx="10"/>
   <rect x="583"
         y="567"
         width="46"
         height="32"
         class="terminal"
         rx="10"/>
   <text class="terminal" x="593" y="587">ASC</text>
   <rect x="585" y="613" width="56" height="32" rx="10"/>
   <rect x="583"
         y="611"
         width="56"
         height="32"
         class="terminal"
         rx="10"/>
   <text class="terminal" x="593" y="631">DESC</text>
   <rect x="455" y="493" width="24" height="32" rx="10"/>
   <rect x="453"
         y="491"
         width="24"
         height="32"
         class="terminal"
         rx="10"/>
   <text class="terminal" x="463" y="511">,</text>
   <rect x="359" y="715" width="66" height="32" rx="10"/>
   <rect x="357"
         y="713"
         width="66"
         height="32"
         class="terminal"
         rx="10"/>
   <text class="terminal" x="367" y="733">UNION</text>
   <rect x="465" y="747" width="44" height="32" rx="10"/>
   <rect x="463"
         y="745"
         width="44"
         height="32"
         class="terminal"
         rx="10"/>
   <text class="terminal" x="473" y="765">ALL</text>
   <rect x="359" y="791" width="72" height="32" rx="10"/>
   <rect x="357"
         y="789"
         width="72"
         height="32"
         class="terminal"
         rx="10"/>
   <text class="terminal" x="367" y="809">EXCEPT</text>
   <rect x="471" y="823" width="86" height="32" rx="10"/>
   <rect x="469"
         y="821"
         width="86"
         height="32"
         class="terminal"
         rx="10"/>
   <text class="terminal" x="479" y="841">DISTINCT</text>
   <a xmlns:xlink="http://www.w3.org/1999/xlink"
      xlink:href="../select"
      xlink:title="select">
      <rect x="617" y="715" width="58" height="32"/>
      <rect x="615" y="713" width="58" height="32" class="nonterminal"/>
      <text class="nonterminal" x="625" y="733">select</text>
   </a>
   <path class="line"
         d="m17 61 h2 m0 0 h10 m70 0 h10 m20 0 h10 m0 0 h96 m-126 0 h20 m106 0 h20 m-146 0 q10 0 10 10 m126 0 q0 -10 10 -10 m-136 10 v12 m126 0 v-12 m-126 12 q0 10 10 10 m106 0 q10 0 10 -10 m-116 10 h10 m86 0 h10 m40 -32 h10 m84 0 h10 m-124 0 l20 0 m-1 0 q-9 0 -9 -10 l0 -24 q0 -10 10 -10 m104 44 l20 0 m-20 0 q10 0 10 -10 l0 -24 q0 -10 -10 -10 m-104 0 h10 m24 0 h10 m0 0 h60 m20 44 h10 m60 0 h10 m0 0 h10 m48 0 h10 m2 0 l2 0 m2 0 l2 0 m2 0 l2 0 m-525 114 l2 0 m2 0 l2 0 m2 0 l2 0 m62 0 h10 m0 0 h188 m-218 0 h20 m198 0 h20 m-238 0 q10 0 10 10 m218 0 q0 -10 10 -10 m-228 10 v12 m218 0 v-12 m-218 12 q0 10 10 10 m198 0 q10 0 10 -10 m-208 10 h10 m64 0 h10 m0 0 h114 m-208 -10 v20 m218 0 v-20 m-218 20 v24 m218 0 v-24 m-218 24 q0 10 10 10 m198 0 q10 0 10 -10 m-208 10 h10 m52 0 h10 m20 0 h10 m0 0 h76 m-106 0 h20 m86 0 h20 m-126 0 q10 0 10 10 m106 0 q0 -10 10 -10 m-116 10 v12 m106 0 v-12 m-106 12 q0 10 10 10 m86 0 q10 0 10 -10 m-96 10 h10 m66 0 h10 m40 -108 h10 m54 0 h10 m0 0 h10 m48 0 h10 m0 0 h10 m40 0 h10 m0 0 h10 m90 0 h10 m-570 0 l20 0 m-1 0 q-9 0 -9 -10 l0 -12 q0 -10 10 -10 m550 32 l20 0 m-20 0 q10 0 10 -10 l0 -12 q0 -10 -10 -10 m-550 0 h10 m0 0 h540 m-590 32 h20 m590 0 h20 m-630 0 q10 0 10 10 m610 0 q0 -10 10 -10 m-620 10 v122 m610 0 v-122 m-610 122 q0 10 10 10 m590 0 q10 0 10 -10 m-600 10 h10 m0 0 h580 m22 -142 l2 0 m2 0 l2 0 m2 0 l2 0 m-627 234 l2 0 m2 0 l2 0 m2 0 l2 0 m22 0 h10 m0 0 h190 m-220 0 h20 m200 0 h20 m-240 0 q10 0 10 10 m220 0 q0 -10 10 -10 m-230 10 v12 m220 0 v-12 m-220 12 q0 10 10 10 m200 0 q10 0 10 -10 m-210 10 h10 m70 0 h10 m0 0 h10 m90 0 h10 m40 -32 h10 m68 0 h10 m0 0 h10 m38 0 h10 m20 0 h10 m90 0 h10 m-130 0 l20 0 m-1 0 q-9 0 -9 -10 l0 -24 q0 -10 10 -10 m110 44 l20 0 m-20 0 q10 0 10 -10 l0 -24 q0 -10 -10 -10 m-110 0 h10 m24 0 h10 m0 0 h66 m-296 44 h20 m296 0 h20 m-336 0 q10 0 10 10 m316 0 q0 -10 10 -10 m-326 10 v14 m316 0 v-14 m-316 14 q0 10 10 10 m296 0 q10 0 10 -10 m-306 10 h10 m0 0 h286 m22 -34 l2 0 m2 0 l2 0 m2 0 l2 0 m-660 142 l2 0 m2 0 l2 0 m2 0 l2 0 m22 0 h10 m0 0 h194 m-224 0 h20 m204 0 h20 m-244 0 q10 0 10 10 m224 0 q0 -10 10 -10 m-234 10 v12 m224 0 v-12 m-224 12 q0 10 10 10 m204 0 q10 0 10 -10 m-214 10 h10 m74 0 h10 m0 0 h10 m90 0 h10 m40 -32 h10 m68 0 h10 m0 0 h10 m38 0 h10 m20 0 h10 m90 0 h10 m20 0 h10 m0 0 h66 m-96 0 h20 m76 0 h20 m-116 0 q10 0 10 10 m96 0 q0 -10 10 -10 m-106 10 v12 m96 0 v-12 m-96 12 q0 10 10 10 m76 0 q10 0 10 -10 m-86 10 h10 m46 0 h10 m0 0 h10 m-86 -10 v20 m96 0 v-20 m-96 20 v24 m96 0 v-24 m-96 24 q0 10 10 10 m76 0 q10 0 10 -10 m-86 10 h10 m56 0 h10 m-226 -76 l20 0 m-1 0 q-9 0 -9 -10 l0 -24 q0 -10 10 -10 m226 44 l20 0 m-20 0 q10 0 10 -10 l0 -24 q0 -10 -10 -10 m-226 0 h10 m24 0 h10 m0 0 h182 m-412 44 h20 m412 0 h20 m-452 0 q10 0 10 10 m432 0 q0 -10 10 -10 m-442 10 v90 m432 0 v-90 m-432 90 q0 10 10 10 m412 0 q10 0 10 -10 m-422 10 h10 m0 0 h402 m22 -110 l2 0 m2 0 l2 0 m2 0 l2 0 m-426 146 l2 0 m2 0 l2 0 m2 0 l2 0 m22 0 h10 m0 0 h346 m-376 0 h20 m356 0 h20 m-396 0 q10 0 10 10 m376 0 q0 -10 10 -10 m-386 10 v12 m376 0 v-12 m-376 12 q0 10 10 10 m356 0 q10 0 10 -10 m-346 10 h10 m66 0 h10 m20 0 h10 m0 0 h54 m-84 0 h20 m64 0 h20 m-104 0 q10 0 10 10 m84 0 q0 -10 10 -10 m-94 10 v12 m84 0 v-12 m-84 12 q0 10 10 10 m64 0 q10 0 10 -10 m-74 10 h10 m44 0 h10 m20 -32 h48 m-258 0 h20 m238 0 h20 m-278 0 q10 0 10 10 m258 0 q0 -10 10 -10 m-268 10 v56 m258 0 v-56 m-258 56 q0 10 10 10 m238 0 q10 0 10 -10 m-248 10 h10 m72 0 h10 m20 0 h10 m0 0 h96 m-126 0 h20 m106 0 h20 m-146 0 q10 0 10 10 m126 0 q0 -10 10 -10 m-136 10 v12 m126 0 v-12 m-126 12 q0 10 10 10 m106 0 q10 0 10 -10 m-116 10 h10 m86 0 h10 m40 -108 h10 m58 0 h10 m23 -32 h-3"/>
   <polygon points="713 697 721 693 721 701"/>
   <polygon points="713 697 705 693 705 701"/>
</svg>
