<?xml version="1.0" encoding="UTF-8"?>
<svg xmlns="http://www.w3.org/2000/svg" width="959" height="643" viewBox="0 0 959 643">
   <defs>
      <style type="text/css">
    @namespace "http://www.w3.org/2000/svg";
    .line                 {fill: none; stroke: #330000; stroke-width: 1;}
    .bold-line            {stroke: #140000; shape-rendering: crispEdges; stroke-width: 2;}
    .thin-line            {stroke: #1F0000; shape-rendering: crispEdges}
    .filled               {fill: #330000; stroke: none;}
    text.terminal         {font-family: Verdana, Sans-serif;
                            font-size: 12px;
                            fill: #140000;
                            font-weight: bold;
                          }
    text.nonterminal      {font-family: Verdana, Sans-serif;
                            font-size: 12px;
                            fill: #1A0000;
                            font-weight: normal;
                          }
    text.regexp           {font-family: Verdana, Sans-serif;
                            font-size: 12px;
                            fill: #1F0000;
                            font-weight: normal;
                          }
    rect, circle, polygon {fill: #330000; stroke: #330000;}
    rect.terminal         {fill: #FF4D4D; stroke: #330000; stroke-width: 1;}
    rect.nonterminal      {fill: #FF9E9E; stroke: #330000; stroke-width: 1;}
    rect.text             {fill: none; stroke: none;}
    polygon.regexp        {fill: #FFC7C7; stroke: #330000; stroke-width: 1;}
  </style>
      <style class="darkreader darkreader--sync" media="screen"/>
   </defs>
   <polygon points="9 61 1 57 1 65"/>
   <polygon points="17 61 9 57 9 65"/>
   <rect x="31" y="47" width="70" height="32" rx="10"/>
   <rect x="29"
         y="45"
         width="70"
         height="32"
         class="terminal"
         rx="10"/>
   <text class="terminal" x="39" y="65">SELECT</text>
   <rect x="141" y="79" width="86" height="32" rx="10"/>
   <rect x="139"
         y="77"
         width="86"
         height="32"
         class="terminal"
         rx="10"/>
   <text class="terminal" x="149" y="97">DISTINCT</text>
   <a xmlns:xlink="http://www.w3.org/1999/xlink"
      xlink:href="#projection"
      xlink:title="projection">
      <rect x="287" y="47" width="84" height="32"/>
      <rect x="285" y="45" width="84" height="32" class="nonterminal"/>
      <text class="nonterminal" x="295" y="65">projection</text>
   </a>
   <rect x="287" y="3" width="24" height="32" rx="10"/>
   <rect x="285"
         y="1"
         width="24"
         height="32"
         class="terminal"
         rx="10"/>
   <text class="terminal" x="295" y="21">,</text>
   <rect x="411" y="47" width="60" height="32" rx="10"/>
   <rect x="409"
         y="45"
         width="60"
         height="32"
         class="terminal"
         rx="10"/>
   <text class="terminal" x="419" y="65">FROM</text>
   <a xmlns:xlink="http://www.w3.org/1999/xlink"
      xlink:href="../object"
      xlink:title="table">
      <rect x="511" y="47" width="52" height="32"/>
      <rect x="509" y="45" width="52" height="32" class="nonterminal"/>
      <text class="nonterminal" x="519" y="65">table</text>
   </a>
   <rect x="511" y="91" width="26" height="32" rx="10"/>
   <rect x="509"
         y="89"
         width="26"
         height="32"
         class="terminal"
         rx="10"/>
   <text class="terminal" x="519" y="109">(</text>
   <a xmlns:xlink="http://www.w3.org/1999/xlink"
      xlink:href="../select"
      xlink:title="select">
      <rect x="577" y="91" width="58" height="32"/>
      <rect x="575" y="89" width="58" height="32" class="nonterminal"/>
      <text class="nonterminal" x="585" y="109">select</text>
   </a>
   <a xmlns:xlink="http://www.w3.org/1999/xlink"
      xlink:href="../values"
      xlink:title="values">
      <rect x="577" y="135" width="60" height="32"/>
      <rect x="575" y="133" width="60" height="32" class="nonterminal"/>
      <text class="nonterminal" x="585" y="153">values</text>
   </a>
   <rect x="677" y="91" width="26" height="32" rx="10"/>
   <rect x="675"
         y="89"
         width="26"
         height="32"
         class="terminal"
         rx="10"/>
   <text class="terminal" x="685" y="109">)</text>
   <rect x="783" y="111" width="38" height="32" rx="10"/>
   <rect x="781"
         y="109"
         width="38"
         height="32"
         class="terminal"
         rx="10"/>
   <text class="terminal" x="791" y="129">AS</text>
   <a xmlns:xlink="http://www.w3.org/1999/xlink"
      xlink:href="../object"
      xlink:title="name">
      <rect x="861" y="79" width="56" height="32"/>
      <rect x="859" y="77" width="56" height="32" class="nonterminal"/>
      <text class="nonterminal" x="869" y="97">name</text>
   </a>
   <rect x="94" y="249" width="64" height="32" rx="10"/>
   <rect x="92"
         y="247"
         width="64"
         height="32"
         class="terminal"
         rx="10"/>
   <text class="terminal" x="102" y="267">INNER</text>
   <rect x="198" y="217" width="54" height="32" rx="10"/>
   <rect x="196"
         y="215"
         width="54"
         height="32"
         class="terminal"
         rx="10"/>
   <text class="terminal" x="206" y="235">JOIN</text>
   <a xmlns:xlink="http://www.w3.org/1999/xlink"
      xlink:href="../object"
      xlink:title="table">
      <rect x="292" y="217" width="52" height="32"/>
      <rect x="290" y="215" width="52" height="32" class="nonterminal"/>
      <text class="nonterminal" x="300" y="235">table</text>
   </a>
   <rect x="292" y="261" width="26" height="32" rx="10"/>
   <rect x="290"
         y="259"
         width="26"
         height="32"
         class="terminal"
         rx="10"/>
   <text class="terminal" x="300" y="279">(</text>
   <a xmlns:xlink="http://www.w3.org/1999/xlink"
      xlink:href="../select"
      xlink:title="select">
      <rect x="358" y="261" width="58" height="32"/>
      <rect x="356" y="259" width="58" height="32" class="nonterminal"/>
      <text class="nonterminal" x="366" y="279">select</text>
   </a>
   <a xmlns:xlink="http://www.w3.org/1999/xlink"
      xlink:href="../values"
      xlink:title="values">
      <rect x="358" y="305" width="60" height="32"/>
      <rect x="356" y="303" width="60" height="32" class="nonterminal"/>
      <text class="nonterminal" x="366" y="323">values</text>
   </a>
   <rect x="458" y="261" width="26" height="32" rx="10"/>
   <rect x="456"
         y="259"
         width="26"
         height="32"
         class="terminal"
         rx="10"/>
   <text class="terminal" x="466" y="279">)</text>
   <rect x="564" y="281" width="38" height="32" rx="10"/>
   <rect x="562"
         y="279"
         width="38"
         height="32"
         class="terminal"
         rx="10"/>
   <text class="terminal" x="572" y="299">AS</text>
   <a xmlns:xlink="http://www.w3.org/1999/xlink"
      xlink:href="../object"
      xlink:title="name">
      <rect x="642" y="249" width="56" height="32"/>
      <rect x="640" y="247" width="56" height="32" class="nonterminal"/>
      <text class="nonterminal" x="650" y="267">name</text>
   </a>
   <rect x="738" y="217" width="40" height="32" rx="10"/>
   <rect x="736"
         y="215"
         width="40"
         height="32"
         class="terminal"
         rx="10"/>
   <text class="terminal" x="746" y="235">ON</text>
   <a xmlns:xlink="http://www.w3.org/1999/xlink"
      xlink:href="#expression"
      xlink:title="expression">
      <rect x="798" y="217" width="90" height="32"/>
      <rect x="796" y="215" width="90" height="32" class="nonterminal"/>
      <text class="nonterminal" x="806" y="235">expression</text>
   </a>
   <rect x="101" y="447" width="70" height="32" rx="10"/>
   <rect x="99"
         y="445"
         width="70"
         height="32"
         class="terminal"
         rx="10"/>
   <text class="terminal" x="109" y="465">WHERE</text>
   <a xmlns:xlink="http://www.w3.org/1999/xlink"
      xlink:href="#expression"
      xlink:title="expression">
      <rect x="191" y="447" width="90" height="32"/>
      <rect x="189" y="445" width="90" height="32" class="nonterminal"/>
      <text class="nonterminal" x="199" y="465">expression</text>
   </a>
   <rect x="341" y="415" width="68" height="32" rx="10"/>
   <rect x="339"
         y="413"
         width="68"
         height="32"
         class="terminal"
         rx="10"/>
   <text class="terminal" x="349" y="433">GROUP</text>
   <rect x="429" y="415" width="38" height="32" rx="10"/>
   <rect x="427"
         y="413"
         width="38"
         height="32"
         class="terminal"
         rx="10"/>
   <text class="terminal" x="437" y="433">BY</text>
   <a xmlns:xlink="http://www.w3.org/1999/xlink"
      xlink:href="#expression"
      xlink:title="expression">
      <rect x="507" y="415" width="90" height="32"/>
      <rect x="505" y="413" width="90" height="32" class="nonterminal"/>
      <text class="nonterminal" x="515" y="433">expression</text>
   </a>
   <rect x="507" y="371" width="24" height="32" rx="10"/>
   <rect x="505"
         y="369"
         width="24"
         height="32"
         class="terminal"
         rx="10"/>
   <text class="terminal" x="515" y="389">,</text>
   <rect x="677" y="447" width="74" height="32" rx="10"/>
   <rect x="675"
         y="445"
         width="74"
         height="32"
         class="terminal"
         rx="10"/>
   <text class="terminal" x="685" y="465">HAVING</text>
   <a xmlns:xlink="http://www.w3.org/1999/xlink"
      xlink:href="#expression"
      xlink:title="expression">
      <rect x="771" y="447" width="90" height="32"/>
      <rect x="769" y="445" width="90" height="32" class="nonterminal"/>
      <text class="nonterminal" x="779" y="465">expression</text>
   </a>
   <rect x="595" y="533" width="66" height="32" rx="10"/>
   <rect x="593"
         y="531"
         width="66"
         height="32"
         class="terminal"
         rx="10"/>
   <text class="terminal" x="603" y="551">UNION</text>
   <rect x="681" y="533" width="44" height="32" rx="10"/>
   <rect x="679"
         y="531"
         width="44"
         height="32"
         class="terminal"
         rx="10"/>
   <text class="terminal" x="689" y="551">ALL</text>
   <rect x="595" y="577" width="72" height="32" rx="10"/>
   <rect x="593"
         y="575"
         width="72"
         height="32"
         class="terminal"
         rx="10"/>
   <text class="terminal" x="603" y="595">EXCEPT</text>
   <rect x="707" y="609" width="86" height="32" rx="10"/>
   <rect x="705"
         y="607"
         width="86"
         height="32"
         class="terminal"
         rx="10"/>
   <text class="terminal" x="715" y="627">DISTINCT</text>
   <a xmlns:xlink="http://www.w3.org/1999/xlink"
      xlink:href="../select"
      xlink:title="select">
      <rect x="853" y="533" width="58" height="32"/>
      <rect x="851" y="531" width="58" height="32" class="nonterminal"/>
      <text class="nonterminal" x="861" y="551">select</text>
   </a>
   <path class="line"
         d="m17 61 h2 m0 0 h10 m70 0 h10 m20 0 h10 m0 0 h96 m-126 0 h20 m106 0 h20 m-146 0 q10 0 10 10 m126 0 q0 -10 10 -10 m-136 10 v12 m126 0 v-12 m-126 12 q0 10 10 10 m106 0 q10 0 10 -10 m-116 10 h10 m86 0 h10 m40 -32 h10 m84 0 h10 m-124 0 l20 0 m-1 0 q-9 0 -9 -10 l0 -24 q0 -10 10 -10 m104 44 l20 0 m-20 0 q10 0 10 -10 l0 -24 q0 -10 -10 -10 m-104 0 h10 m24 0 h10 m0 0 h60 m20 44 h10 m60 0 h10 m20 0 h10 m52 0 h10 m0 0 h140 m-232 0 h20 m212 0 h20 m-252 0 q10 0 10 10 m232 0 q0 -10 10 -10 m-242 10 v24 m232 0 v-24 m-232 24 q0 10 10 10 m212 0 q10 0 10 -10 m-222 10 h10 m26 0 h10 m20 0 h10 m58 0 h10 m0 0 h2 m-100 0 h20 m80 0 h20 m-120 0 q10 0 10 10 m100 0 q0 -10 10 -10 m-110 10 v24 m100 0 v-24 m-100 24 q0 10 10 10 m80 0 q10 0 10 -10 m-90 10 h10 m60 0 h10 m20 -44 h10 m26 0 h10 m40 -44 h10 m0 0 h164 m-194 0 h20 m174 0 h20 m-214 0 q10 0 10 10 m194 0 q0 -10 10 -10 m-204 10 v12 m194 0 v-12 m-194 12 q0 10 10 10 m174 0 q10 0 10 -10 m-164 10 h10 m0 0 h48 m-78 0 h20 m58 0 h20 m-98 0 q10 0 10 10 m78 0 q0 -10 10 -10 m-88 10 v12 m78 0 v-12 m-78 12 q0 10 10 10 m58 0 q10 0 10 -10 m-68 10 h10 m38 0 h10 m20 -32 h10 m56 0 h10 m22 -32 l2 0 m2 0 l2 0 m2 0 l2 0 m-927 138 l2 0 m2 0 l2 0 m2 0 l2 0 m22 0 h10 m0 0 h824 m-854 0 h20 m834 0 h20 m-874 0 q10 0 10 10 m854 0 q0 -10 10 -10 m-864 10 v12 m854 0 v-12 m-854 12 q0 10 10 10 m834 0 q10 0 10 -10 m-824 10 h10 m0 0 h74 m-104 0 h20 m84 0 h20 m-124 0 q10 0 10 10 m104 0 q0 -10 10 -10 m-114 10 v12 m104 0 v-12 m-104 12 q0 10 10 10 m84 0 q10 0 10 -10 m-94 10 h10 m64 0 h10 m20 -32 h10 m54 0 h10 m20 0 h10 m52 0 h10 m0 0 h140 m-232 0 h20 m212 0 h20 m-252 0 q10 0 10 10 m232 0 q0 -10 10 -10 m-242 10 v24 m232 0 v-24 m-232 24 q0 10 10 10 m212 0 q10 0 10 -10 m-222 10 h10 m26 0 h10 m20 0 h10 m58 0 h10 m0 0 h2 m-100 0 h20 m80 0 h20 m-120 0 q10 0 10 10 m100 0 q0 -10 10 -10 m-110 10 v24 m100 0 v-24 m-100 24 q0 10 10 10 m80 0 q10 0 10 -10 m-90 10 h10 m60 0 h10 m20 -44 h10 m26 0 h10 m40 -44 h10 m0 0 h164 m-194 0 h20 m174 0 h20 m-214 0 q10 0 10 10 m194 0 q0 -10 10 -10 m-204 10 v12 m194 0 v-12 m-194 12 q0 10 10 10 m174 0 q10 0 10 -10 m-164 10 h10 m0 0 h48 m-78 0 h20 m58 0 h20 m-98 0 q10 0 10 10 m78 0 q0 -10 10 -10 m-88 10 v12 m78 0 v-12 m-78 12 q0 10 10 10 m58 0 q10 0 10 -10 m-68 10 h10 m38 0 h10 m20 -32 h10 m56 0 h10 m20 -32 h10 m40 0 h10 m0 0 h10 m90 0 h10 m22 -32 l2 0 m2 0 l2 0 m2 0 l2 0 m-871 230 l2 0 m2 0 l2 0 m2 0 l2 0 m22 0 h10 m0 0 h190 m-220 0 h20 m200 0 h20 m-240 0 q10 0 10 10 m220 0 q0 -10 10 -10 m-230 10 v12 m220 0 v-12 m-220 12 q0 10 10 10 m200 0 q10 0 10 -10 m-210 10 h10 m70 0 h10 m0 0 h10 m90 0 h10 m40 -32 h10 m68 0 h10 m0 0 h10 m38 0 h10 m20 0 h10 m90 0 h10 m-130 0 l20 0 m-1 0 q-9 0 -9 -10 l0 -24 q0 -10 10 -10 m110 44 l20 0 m-20 0 q10 0 10 -10 l0 -24 q0 -10 -10 -10 m-110 0 h10 m24 0 h10 m0 0 h66 m-296 44 h20 m296 0 h20 m-336 0 q10 0 10 10 m316 0 q0 -10 10 -10 m-326 10 v14 m316 0 v-14 m-316 14 q0 10 10 10 m296 0 q10 0 10 -10 m-306 10 h10 m0 0 h286 m40 -34 h10 m0 0 h194 m-224 0 h20 m204 0 h20 m-244 0 q10 0 10 10 m224 0 q0 -10 10 -10 m-234 10 v12 m224 0 v-12 m-224 12 q0 10 10 10 m204 0 q10 0 10 -10 m-214 10 h10 m74 0 h10 m0 0 h10 m90 0 h10 m22 -32 l2 0 m2 0 l2 0 m2 0 l2 0 m-370 86 l2 0 m2 0 l2 0 m2 0 l2 0 m22 0 h10 m0 0 h346 m-376 0 h20 m356 0 h20 m-396 0 q10 0 10 10 m376 0 q0 -10 10 -10 m-386 10 v12 m376 0 v-12 m-376 12 q0 10 10 10 m356 0 q10 0 10 -10 m-346 10 h10 m66 0 h10 m0 0 h10 m44 0 h10 m0 0 h88 m-258 0 h20 m238 0 h20 m-278 0 q10 0 10 10 m258 0 q0 -10 10 -10 m-268 10 v24 m258 0 v-24 m-258 24 q0 10 10 10 m238 0 q10 0 10 -10 m-248 10 h10 m72 0 h10 m20 0 h10 m0 0 h96 m-126 0 h20 m106 0 h20 m-146 0 q10 0 10 10 m126 0 q0 -10 10 -10 m-136 10 v12 m126 0 v-12 m-126 12 q0 10 10 10 m106 0 q10 0 10 -10 m-116 10 h10 m86 0 h10 m40 -76 h10 m58 0 h10 m23 -32 h-3"/>
   <polygon points="949 515 957 511 957 519"/>
   <polygon points="949 515 941 511 941 519"/>
</svg>
