<?xml version="1.0" encoding="UTF-8" standalone="no"?>
<svg
   width="754.81152"
   height="417.01813"
   version="1.1"
   id="svg56"
   sodipodi:docname="SELECT.svg"
   inkscape:version="1.3 (0e150ed6c4, 2023-07-21)"
   xmlns:inkscape="http://www.inkscape.org/namespaces/inkscape"
   xmlns:sodipodi="http://sodipodi.sourceforge.net/DTD/sodipodi-0.dtd"
   xmlns:xlink="http://www.w3.org/1999/xlink"
   xmlns="http://www.w3.org/2000/svg"
   xmlns:svg="http://www.w3.org/2000/svg">
  <sodipodi:namedview
     id="namedview56"
     pagecolor="#ffffff"
     bordercolor="#666666"
     borderopacity="1.0"
     inkscape:showpageshadow="2"
     inkscape:pageopacity="0.0"
     inkscape:pagecheckerboard="0"
     inkscape:deskcolor="#d1d1d1"
     inkscape:zoom="0.77445339"
     inkscape:cx="320.22586"
     inkscape:cy="267.93091"
     inkscape:window-width="1854"
     inkscape:window-height="1011"
     inkscape:window-x="66"
     inkscape:window-y="32"
     inkscape:window-maximized="1"
     inkscape:current-layer="svg56"
     showguides="true">
    <sodipodi:guide
       position="755.41984,618.30827"
       orientation="1,0"
       id="guide1"
       inkscape:locked="false" />
  </sodipodi:namedview>
  <defs
     id="defs1">
    <style
       type="text/css"
       id="style1">@namespace &quot;http://www.w3.org/2000/svg&quot;;.line { fill: none; stroke: #330000; stroke-width: 1; }&#10;.bold-line { stroke: #140000; shape-rendering: crispEdges; stroke-width: 2; }&#10;.thin-line { stroke: #1F0000; shape-rendering: crispEdges }&#10;.filled { fill: #330000; stroke: none; }&#10;text.terminal { font-family: HelveticaNeueCyr, Sans-serif;                            font-size: 14px;                            fill: #140000;                            font-weight: bold; }&#10;text.nonterminal { font-family: HelveticaNeueCyr, Sans-serif;                            font-size: 14px;                            fill: #1A0000;                            font-weight: normal; }&#10;text.regexp { font-family: HelveticaNeueCyr, Sans-serif;                            font-size: 14px;                            fill: #1F0000;                            font-weight: normal; }&#10;rect, circle, polygon { fill: #330000; stroke: #330000; }&#10;rect.terminal { fill: #FF4D4D; stroke: #330000; stroke-width: 1; }&#10;rect.nonterminal { fill: #FF9E9E; stroke: #330000; stroke-width: 1; }&#10;rect.text { fill: none; stroke: none; }&#10;polygon.regexp { fill: #FFC7C7; stroke: #330000; stroke-width: 1; }&#10;</style>
  </defs>
  <path
     id="polygon1"
     style="fill:#330000;stroke:#330000;stroke-width:0.870601"
     d="M 7.4001124,52.671391 0.4353005,49.188985 v 6.964812 z" />
  <path
     id="polygon2"
     style="fill:#330000;stroke:#330000;stroke-width:0.870601"
     d="M 14.364925,52.671391 7.4001124,49.188985 v 6.964812 z" />
  <path
     id="rect2"
     style="fill:#330000;stroke:#330000;stroke-width:0.870601"
     d="m 35.259361,40.48297 h 43.530074 c 4.823133,0 8.706015,3.882882 8.706015,8.706015 v 10.447218 c 0,4.823132 -3.882882,8.706015 -8.706015,8.706015 H 35.259361 c -4.823133,0 -8.706015,-3.882883 -8.706015,-8.706015 V 49.188985 c 0,-4.823133 3.882882,-8.706015 8.706015,-8.706015 z" />
  <path
     id="rect3"
     class="terminal"
     style="fill:#ff4d4d;stroke:#330000;stroke-width:0.870601"
     d="m 33.518158,38.741767 h 43.530075 c 4.823132,0 8.706014,3.882882 8.706014,8.706015 V 57.895 c 0,4.823132 -3.882882,8.706015 -8.706014,8.706015 H 33.518158 c -4.823133,0 -8.706015,-3.882883 -8.706015,-8.706015 V 47.447782 c 0,-4.823133 3.882882,-8.706015 8.706015,-8.706015 z" />
  <path
     d="M 40.782457,50.059586 H 38.97857 q -0.109696,-1.291973 -1.645437,-1.291973 -0.658174,0 -1.036015,0.268146 -0.365653,0.255957 -0.365653,0.719117 0,0.158449 0.04875,0.280333 0.04875,0.121884 0.182826,0.23158 0.134073,0.09751 0.268145,0.170638 0.134073,0.06094 0.39003,0.146261 0.268145,0.07313 0.475348,0.134073 0.219392,0.06094 0.609421,0.158449 0.39003,0.09751 0.682552,0.182827 1.279784,0.365652 1.901393,0.914131 0.633798,0.548479 0.633798,1.572306 0,0.743494 -0.30471,1.304162 -0.304711,0.548478 -0.828813,0.877566 -0.511914,0.316899 -1.133523,0.46316 -0.609421,0.158449 -1.304161,0.158449 -1.767321,0 -2.766772,-0.804435 -0.987262,-0.816625 -0.99945,-2.291424 h 1.889205 q 0.04875,1.633249 1.962336,1.633249 0.743494,0 1.170088,-0.304711 0.438783,-0.316899 0.438783,-0.853189 0,-0.450972 -0.402217,-0.658175 -0.39003,-0.207203 -1.657626,-0.572856 -0.207203,-0.04875 -0.316899,-0.08532 -0.438783,-0.121884 -0.609421,-0.170638 -0.170638,-0.06094 -0.548479,-0.195014 -0.365652,-0.134073 -0.53629,-0.243769 -0.170638,-0.109696 -0.426595,-0.30471 -0.243768,-0.195015 -0.353464,-0.402218 -0.109696,-0.219392 -0.207203,-0.524102 -0.08532,-0.316899 -0.08532,-0.682552 0,-1.182277 0.914131,-1.889205 0.914132,-0.706928 2.425496,-0.706928 1.462611,0 2.388931,0.69474 0.92632,0.682551 0.950697,2.072031 z m 7.995605,-2.583945 v 1.560118 h -4.619411 v 1.889205 h 4.24157 v 1.499176 h -4.24157 v 2.132973 h 4.70473 v 1.596684 h -6.593935 v -8.678156 z m 7.532453,7.044907 v 1.633249 h -6.142964 v -8.678156 h 1.901394 v 7.044907 z m 7.593392,-7.044907 v 1.560118 h -4.619412 v 1.889205 h 4.241571 v 1.499176 h -4.241571 v 2.132973 h 4.704731 v 1.596684 H 57.39529 v -8.678156 z m 9.141324,5.32634 Q 72.89897,54.435229 71.89952,55.398114 70.900069,56.361 69.157125,56.361 q -1.889205,0 -3.047105,-1.243219 -1.145712,-1.255408 -1.145712,-3.315251 0,-1.950147 1.1579,-3.24212 1.170089,-1.291972 3.108047,-1.291972 1.54793,0 2.596134,0.877566 1.048204,0.877566 1.1579,2.230481 H 71.119461 Q 70.9732,49.657368 70.461286,49.267339 69.961561,48.865121 69.19369,48.865121 q -0.792247,0 -1.340726,0.450971 -0.536291,0.438784 -0.755682,1.08477 -0.219392,0.645986 -0.219392,1.413857 0,1.340726 0.62161,2.145162 0.621609,0.792247 1.669813,0.792247 1.742945,0 1.986713,-1.950147 z m 7.72745,-5.32634 v 1.62106 h -2.608323 v 7.057096 h -1.913582 v -7.057096 h -2.608322 v -1.62106 z"
     id="text3"
     class="terminal"
     style="font-weight:bold;font-size:14px;font-family:HelveticaNeueCyr, Sans-serif;fill:#140000;stroke-width:0.870601"
     aria-label="SELECT" />
  <a
     xlink:href="#alias"
     xlink:title="alias"
     id="a5"
     transform="matrix(0.8706015,0,0,0.8706015,-0.435301,-0.435301)">
    <path
       id="rect4"
       style="fill:#330000;stroke:#330000"
       d="m 141,47 h 50 v 32 h -50 z" />
    <path
       id="rect5"
       class="nonterminal"
       style="fill:#ff9e9e;stroke:#330000"
       d="m 139,45 h 50 v 32 h -50 z" />
    <path
       d="m 156.294,64.048 v 0.924 q -0.364,0.14 -0.812,0.14 -1.022,0 -1.05,-1.064 -1.022,1.148 -2.618,1.148 -1.064,0 -1.694,-0.546 -0.616,-0.546 -0.616,-1.498 0,-1.932 2.562,-2.254 1.512,-0.182 1.75,-0.266 0.504,-0.168 0.546,-0.7 0.014,-0.084 0.014,-0.182 0,-1.19 -1.638,-1.19 -0.84,0 -1.274,0.35 -0.434,0.336 -0.518,1.12 h -1.162 q 0.028,-1.162 0.826,-1.806 0.798,-0.644 2.198,-0.644 1.526,0 2.268,0.7 0.238,0.224 0.35,0.588 0.112,0.364 0.126,0.602 0.014,0.224 0.014,0.686 0,0.546 -0.028,1.624 -0.028,1.064 -0.028,1.596 0,0.392 0.098,0.56 0.112,0.154 0.392,0.154 0.112,0 0.294,-0.042 z m -1.918,-2.8 q -0.126,0.098 -0.266,0.168 -0.14,0.07 -0.364,0.112 -0.21,0.042 -0.294,0.07 -0.07,0.014 -0.364,0.056 -0.294,0.028 -0.308,0.028 -0.434,0.056 -0.574,0.084 -0.126,0.014 -0.504,0.112 -0.364,0.098 -0.518,0.224 -0.154,0.126 -0.308,0.378 -0.14,0.238 -0.14,0.574 0,0.56 0.378,0.882 0.392,0.322 1.064,0.322 0.854,0 1.526,-0.504 0.672,-0.504 0.672,-1.19 z m 4.29801,-6.216 V 65 h -1.204 v -9.968 z m 3.108,0 v 1.456 h -1.204 v -1.456 z m 0,2.744 V 65 h -1.204 v -7.224 z m 8.246,6.272 v 0.924 q -0.364,0.14 -0.812,0.14 -1.022,0 -1.05,-1.064 -1.022,1.148 -2.618,1.148 -1.064,0 -1.694,-0.546 -0.616,-0.546 -0.616,-1.498 0,-1.932 2.562,-2.254 1.512,-0.182 1.75,-0.266 0.504,-0.168 0.546,-0.7 0.014,-0.084 0.014,-0.182 0,-1.19 -1.638,-1.19 -0.84,0 -1.274,0.35 -0.434,0.336 -0.518,1.12 h -1.162 q 0.028,-1.162 0.826,-1.806 0.798,-0.644 2.198,-0.644 1.526,0 2.268,0.7 0.238,0.224 0.35,0.588 0.112,0.364 0.126,0.602 0.014,0.224 0.014,0.686 0,0.546 -0.028,1.624 -0.028,1.064 -0.028,1.596 0,0.392 0.098,0.56 0.112,0.154 0.392,0.154 0.112,0 0.294,-0.042 z m -1.918,-2.8 q -0.126,0.098 -0.266,0.168 -0.14,0.07 -0.364,0.112 -0.21,0.042 -0.294,0.07 -0.07,0.014 -0.364,0.056 -0.294,0.028 -0.308,0.028 -0.434,0.056 -0.574,0.084 -0.126,0.014 -0.504,0.112 -0.364,0.098 -0.518,0.224 -0.154,0.126 -0.308,0.378 -0.14,0.238 -0.14,0.574 0,0.56 0.378,0.882 0.392,0.322 1.064,0.322 0.854,0 1.526,-0.504 0.672,-0.504 0.672,-1.19 z m 8.40001,-1.372 h -1.19 q -0.112,-1.316 -1.764,-1.316 -0.686,0 -1.078,0.266 -0.392,0.266 -0.392,0.714 0,0.126 0.028,0.252 0.028,0.112 0.098,0.21 0.084,0.084 0.14,0.154 0.07,0.07 0.21,0.14 0.154,0.056 0.224,0.098 0.084,0.042 0.28,0.098 0.21,0.042 0.294,0.07 0.084,0.014 0.322,0.07 0.252,0.056 0.322,0.07 0.518,0.112 0.77,0.182 0.266,0.07 0.714,0.266 0.462,0.182 0.7,0.392 0.238,0.196 0.42,0.56 0.196,0.35 0.196,0.798 0,1.05 -0.826,1.694 -0.812,0.63 -2.17,0.63 -1.47,0 -2.268,-0.644 -0.784,-0.644 -0.84,-1.862 h 1.176 q 0.098,1.526 1.96,1.526 0.798,0 1.274,-0.322 0.49,-0.336 0.49,-0.882 0,-0.364 -0.252,-0.602 -0.252,-0.238 -0.56,-0.336 -0.308,-0.112 -0.882,-0.252 -0.084,-0.014 -0.126,-0.028 -0.126,-0.028 -0.546,-0.112 -0.406,-0.098 -0.588,-0.154 -0.182,-0.056 -0.532,-0.168 -0.336,-0.126 -0.504,-0.252 -0.168,-0.14 -0.378,-0.336 -0.196,-0.21 -0.28,-0.476 -0.084,-0.28 -0.084,-0.63 0,-0.98 0.742,-1.554 0.756,-0.574 2.016,-0.574 1.274,0 2.072,0.602 0.812,0.602 0.812,1.708 z"
       id="text5"
       class="nonterminal"
       style="font-size:14px;font-family:HelveticaNeueCyr, Sans-serif;fill:#1a0000"
       aria-label="alias" />
  </a>
  <path
     id="rect6"
     style="fill:#330000;stroke:#330000;stroke-width:0.870601"
     d="m 131.02553,2.1765034 h 3.4824 c 4.82313,0 8.70602,3.8828827 8.70602,8.7060156 v 10.447218 c 0,4.823132 -3.88289,8.706015 -8.70602,8.706015 h -3.4824 c -4.82314,0 -8.70602,-3.882883 -8.70602,-8.706015 V 10.882519 c 0,-4.8231329 3.88288,-8.7060156 8.70602,-8.7060156 z" />
  <path
     id="rect7"
     class="terminal"
     style="fill:#ff4d4d;stroke:#330000;stroke-width:0.870601"
     d="m 129.28432,0.4353005 h 3.48241 c 4.82313,0 8.70601,3.8828826 8.70601,8.7060149 V 19.588534 c 0,4.823132 -3.88288,8.706015 -8.70601,8.706015 h -3.48241 c -4.82313,0 -8.70601,-3.882883 -8.70601,-8.706015 V 9.1413154 c 0,-4.8231323 3.88288,-8.7060149 8.70601,-8.7060149 z" />
  <path
     d="m 131.9414,15.945937 v 1.547929 q 0,1.060393 -0.47535,1.633249 -0.46316,0.585044 -1.45042,0.743494 v -0.85319 q 0.81662,-0.243768 0.86538,-1.170088 h -0.86538 v -1.901394 z"
     id="text7"
     class="terminal"
     style="font-weight:bold;font-size:14px;font-family:HelveticaNeueCyr, Sans-serif;fill:#140000;stroke-width:0.870601"
     aria-label="," />
  <path
     id="rect8"
     style="fill:#330000;stroke:#330000;stroke-width:0.870601"
     d="m 209.37966,40.48297 h 34.82406 c 4.82313,0 8.70601,3.882882 8.70601,8.706015 v 10.447218 c 0,4.823132 -3.88288,8.706015 -8.70601,8.706015 h -34.82406 c -4.82313,0 -8.70601,-3.882883 -8.70601,-8.706015 V 49.188985 c 0,-4.823133 3.88288,-8.706015 8.70601,-8.706015 z" />
  <path
     id="rect9"
     class="terminal"
     style="fill:#ff4d4d;stroke:#330000;stroke-width:0.870601"
     d="m 207.63846,38.741767 h 34.82406 c 4.82313,0 8.70601,3.882882 8.70601,8.706015 V 57.895 c 0,4.823132 -3.88288,8.706015 -8.70601,8.706015 h -34.82406 c -4.82314,0 -8.70602,-3.882883 -8.70602,-8.706015 V 47.447782 c 0,-4.823133 3.88288,-8.706015 8.70602,-8.706015 z" />
  <path
     d="m 214.59805,47.475641 v 1.596683 h -4.2172 v 2.011089 h 3.66872 v 1.511365 h -3.66872 v 3.559019 h -1.90139 v -8.678156 z m 1.18228,0 h 4.3147 q 1.29197,0 2.1086,0.609421 0.81662,0.609421 0.81662,1.85264 0,0.755682 -0.36565,1.328538 -0.36565,0.560667 -1.01164,0.804436 1.12134,0.23158 1.27979,2.023277 0,0.06094 0.0244,0.377841 0.0244,0.316899 0.0488,0.511914 0.0244,0.182826 0.0609,0.450972 0.0366,0.268145 0.10969,0.450971 0.0731,0.182827 0.17064,0.268146 h -1.97452 q -0.0975,-0.195015 -0.14626,-0.487537 -0.0488,-0.304711 -0.0853,-0.767871 -0.0366,-0.475348 -0.0366,-0.524102 -0.0975,-0.914131 -0.46316,-1.267596 -0.35346,-0.353464 -1.26759,-0.353464 h -1.69419 v 3.40057 h -1.88921 z m 1.88921,1.499176 v 2.401119 h 1.80388 q 0.79225,0 1.23103,-0.243769 0.45097,-0.255957 0.45097,-0.987262 0,-0.682552 -0.43878,-0.92632 -0.42659,-0.243768 -1.1579,-0.243768 z m 10.76237,-1.706379 q 1.9014,0 3.07148,1.267595 1.18228,1.255408 1.18228,3.290874 0,2.035466 -1.18228,3.290874 -1.17008,1.243219 -3.08367,1.243219 -1.92577,0 -3.10804,-1.243219 -1.18228,-1.255408 -1.18228,-3.290874 0,-2.059843 1.17009,-3.303062 1.18227,-1.255407 3.13242,-1.255407 z m -0.0244,1.560118 q -1.07259,0 -1.71857,0.804435 -0.6338,0.804436 -0.6338,2.157351 0,1.401668 0.6338,2.193916 0.6338,0.792247 1.74294,0.804435 1.08477,0 1.70638,-0.804435 0.62161,-0.804436 0.62161,-2.193916 0,-1.365103 -0.6338,-2.157351 -0.6338,-0.804435 -1.71856,-0.804435 z m 5.58229,7.325241 v -8.678156 h 2.71802 l 2.02328,5.960138 1.97452,-5.960138 h 2.65708 v 8.678156 h -1.7917 v -6.167341 l -2.13297,6.167341 h -1.4748 l -2.15735,-6.106399 v 6.106399 z"
     id="text9"
     class="terminal"
     style="font-weight:bold;font-size:14px;font-family:HelveticaNeueCyr, Sans-serif;fill:#140000;stroke-width:0.870601"
     aria-label="FROM" />
  <a
     xlink:href="#table"
     xlink:title="table"
     id="a11"
     transform="matrix(0.8706015,0,0,0.8706015,-0.435301,-0.435301)">
    <path
       id="rect10"
       style="fill:#330000;stroke:#330000"
       d="m 331,47 h 52 v 32 h -52 z" />
    <path
       id="rect11"
       class="nonterminal"
       style="fill:#ff9e9e;stroke:#330000"
       d="m 329,45 h 52 v 32 h -52 z" />
    <path
       d="m 342.99,57.776 v 0.98 h -1.442 v 4.214 q 0,0.35 0,0.462 0.014,0.112 0.084,0.308 0.07,0.182 0.238,0.238 0.168,0.056 0.476,0.056 0.266,0 0.644,-0.042 v 1.022 q -0.504,0.056 -0.91,0.056 -0.504,0 -0.84,-0.112 -0.336,-0.112 -0.518,-0.252 -0.168,-0.14 -0.252,-0.49 -0.084,-0.364 -0.098,-0.602 -0.014,-0.252 -0.014,-0.826 0,-0.126 0,-0.196 v -3.836 h -1.218 v -0.98 h 1.218 v -2.142 h 1.19 v 2.142 z m 7.71401,6.272 v 0.924 q -0.364,0.14 -0.812,0.14 -1.022,0 -1.05,-1.064 -1.022,1.148 -2.618,1.148 -1.064,0 -1.694,-0.546 -0.616,-0.546 -0.616,-1.498 0,-1.932 2.562,-2.254 1.512,-0.182 1.75,-0.266 0.504,-0.168 0.546,-0.7 0.014,-0.084 0.014,-0.182 0,-1.19 -1.638,-1.19 -0.84,0 -1.274,0.35 -0.434,0.336 -0.518,1.12 h -1.162 q 0.028,-1.162 0.826,-1.806 0.798,-0.644 2.198,-0.644 1.526,0 2.268,0.7 0.238,0.224 0.35,0.588 0.112,0.364 0.126,0.602 0.014,0.224 0.014,0.686 0,0.546 -0.028,1.624 -0.028,1.064 -0.028,1.596 0,0.392 0.098,0.56 0.112,0.154 0.392,0.154 0.112,0 0.294,-0.042 z m -1.918,-2.8 q -0.126,0.098 -0.266,0.168 -0.14,0.07 -0.364,0.112 -0.21,0.042 -0.294,0.07 -0.07,0.014 -0.364,0.056 -0.294,0.028 -0.308,0.028 -0.434,0.056 -0.574,0.084 -0.126,0.014 -0.504,0.112 -0.364,0.098 -0.518,0.224 -0.154,0.126 -0.308,0.378 -0.14,0.238 -0.14,0.574 0,0.56 0.378,0.882 0.392,0.322 1.064,0.322 0.854,0 1.526,-0.504 0.672,-0.504 0.672,-1.19 z m 4.21401,-6.216 v 3.738 q 0.784,-1.19 2.394,-1.19 1.484,0 2.366,1.036 0.896,1.022 0.896,2.744 0,1.75 -0.91,2.8 -0.91,1.05 -2.422,1.05 -1.722,0 -2.394,-1.26 V 65 h -1.12 v -9.968 z m 2.212,3.556 q -1.148,0 -1.708,0.826 -0.546,0.826 -0.546,2.03 0,1.274 0.602,2.03 0.616,0.742 1.652,0.742 0.994,0 1.596,-0.77 0.616,-0.784 0.616,-2.072 0,-1.274 -0.602,-2.03 -0.602,-0.756 -1.61,-0.756 z m 6.174,-3.556 V 65 h -1.204 v -9.968 z m 8.022,7.686 q -0.546,2.52 -3.15,2.52 -1.596,0 -2.506,-0.994 -0.896,-0.994 -0.896,-2.758 0,-1.75 0.924,-2.828 0.938,-1.092 2.436,-1.092 1.666,0 2.464,1.134 0.812,1.12 0.812,2.842 v 0.168 h -5.432 l -0.014,0.084 q 0,1.148 0.602,1.806 0.602,0.658 1.652,0.658 0.784,0 1.232,-0.364 0.462,-0.364 0.714,-1.176 z m -1.148,-1.974 q -0.084,-1.036 -0.63,-1.61 -0.546,-0.588 -1.442,-0.588 -0.868,0 -1.442,0.588 -0.574,0.588 -0.686,1.61 z"
       id="text11"
       class="nonterminal"
       style="font-size:14px;font-family:HelveticaNeueCyr, Sans-serif;fill:#1a0000"
       aria-label="table" />
  </a>
  <path
     id="rect12"
     style="fill:#330000;stroke:#330000;stroke-width:0.870601"
     d="m 296.43981,78.789435 h 5.22361 c 4.82313,0 8.70601,3.882883 8.70601,8.706015 v 10.447218 c 0,4.823132 -3.88288,8.706012 -8.70601,8.706012 h -5.22361 c -4.82313,0 -8.70602,-3.88288 -8.70602,-8.706012 V 87.49545 c 0,-4.823132 3.88289,-8.706015 8.70602,-8.706015 z" />
  <path
     id="rect13"
     class="terminal"
     style="fill:#ff4d4d;stroke:#330000;stroke-width:0.870601"
     d="m 294.69861,77.048233 h 5.22361 c 4.82313,0 8.70601,3.882882 8.70601,8.706014 v 10.447218 c 0,4.823135 -3.88288,8.706015 -8.70601,8.706015 h -5.22361 c -4.82314,0 -8.70602,-3.88288 -8.70602,-8.706015 V 85.754247 c 0,-4.823132 3.88288,-8.706014 8.70602,-8.706014 z" />
  <path
     d="m 298.37951,85.648034 q -0.70693,1.413857 -1.03602,2.70583 -0.31689,1.291972 -0.31689,2.839902 0,2.681452 1.37729,5.436035 h -1.46261 q -0.75569,-1.145711 -1.18228,-2.571756 -0.41441,-1.426046 -0.41441,-2.827714 0,-1.462611 0.40222,-2.949598 0.41441,-1.499176 1.19447,-2.632699 z"
     id="text13"
     class="terminal"
     style="font-weight:bold;font-size:14px;font-family:HelveticaNeueCyr, Sans-serif;fill:#140000;stroke-width:0.870601"
     aria-label="(" />
  <a
     xlink:href="#select"
     xlink:title="SELECT"
     id="a15"
     transform="matrix(0.8706015,0,0,0.8706015,-0.435301,-0.435301)">
    <path
       id="rect14"
       style="fill:#330000;stroke:#330000"
       d="m 397,91 h 66 v 32 h -66 z" />
    <path
       id="rect15"
       class="nonterminal"
       style="fill:#ff9e9e;stroke:#330000"
       d="m 395,89 h 66 v 32 h -66 z" />
    <path
       d="m 413.162,101.958 h -1.274 q -0.21,-2.03 -2.478,-2.03 -1.078,0 -1.666,0.434 -0.588,0.434 -0.588,1.218 0,0.28 0.084,0.49 0.084,0.21 0.28,0.378 0.21,0.154 0.392,0.266 0.182,0.112 0.574,0.224 0.392,0.112 0.63,0.168 0.238,0.042 0.742,0.154 0.616,0.126 1.022,0.238 0.406,0.098 0.966,0.336 0.56,0.238 0.882,0.532 0.336,0.28 0.574,0.756 0.252,0.476 0.252,1.078 0,1.05 -0.588,1.764 -0.588,0.7 -1.428,0.98 -0.84,0.28 -1.862,0.28 -1.876,0 -3.01,-0.882 -1.12,-0.896 -1.12,-2.632 h 1.274 q 0.042,1.274 0.854,1.862 0.812,0.574 2.114,0.574 1.022,0 1.75,-0.42 0.728,-0.434 0.728,-1.4 0,-0.448 -0.196,-0.756 -0.196,-0.322 -0.616,-0.518 -0.42,-0.21 -0.84,-0.336 -0.42,-0.126 -1.106,-0.28 -0.098,-0.014 -0.14,-0.028 -1.54,-0.35 -2.016,-0.56 -1.456,-0.63 -1.456,-2.17 0,-1.428 1.05,-2.128 1.064,-0.714 2.562,-0.714 1.638,0 2.618,0.784 0.98,0.784 1.036,2.338 z m 8.91801,-2.926 v 1.148 h -5.586 v 3.122 h 5.222 v 1.106 h -5.222 v 3.444 h 5.656 V 109 h -6.972 v -9.968 z m 8.274,8.82 V 109 h -6.608 v -9.968 h 1.316 v 8.82 z m 8.064,-8.82 v 1.148 h -5.586 v 3.122 h 5.222 v 1.106 h -5.222 v 3.444 h 5.656 V 109 h -6.972 v -9.968 z m 10.094,6.202 q -0.168,1.89 -1.316,2.954 -1.134,1.05 -2.996,1.05 -2.128,0 -3.374,-1.4 -1.246,-1.414 -1.246,-3.808 0,-2.24 1.246,-3.724 1.26,-1.498 3.472,-1.498 1.582,0 2.786,0.854 1.204,0.854 1.344,2.366 h -1.316 q -0.224,-0.98 -0.98,-1.526 -0.756,-0.56 -1.862,-0.56 -1.666,0 -2.52,1.176 -0.84,1.176 -0.84,2.898 0,1.904 0.896,2.996 0.896,1.092 2.45,1.092 1.274,0 2.03,-0.728 0.756,-0.742 0.91,-2.142 z m 8.582,-6.202 v 1.148 h -3.346 V 109 h -1.316 v -8.82 h -3.346 v -1.148 z"
       id="text15"
       class="nonterminal"
       style="font-size:14px;font-family:HelveticaNeueCyr, Sans-serif;fill:#1a0000"
       aria-label="SELECT" />
  </a>
  <a
     xlink:href="#values"
     xlink:title="VALUES"
     id="a17"
     transform="matrix(0.8706015,0,0,0.8706015,-0.435301,-0.435301)">
    <path
       id="rect16"
       style="fill:#330000;stroke:#330000"
       d="m 397,135 h 68 v 32 h -68 z" />
    <path
       id="rect17"
       class="nonterminal"
       style="fill:#ff9e9e;stroke:#330000"
       d="m 395,133 h 68 v 32 h -68 z" />
    <path
       d="m 404.972,143.032 h 1.456 l 2.87,8.68 2.898,-8.68 h 1.386 L 410.026,153 h -1.512 z m 13.23001,0 3.892,9.968 h -1.47 l -1.106,-3.052 h -4.186 l -1.134,3.052 h -1.4 l 3.92,-9.968 z m 0.924,5.866 -1.694,-4.606 -1.722,4.606 z m 10.58401,2.954 V 153 h -6.608 v -9.968 h 1.316 v 8.82 z m 1.09199,-8.82 h 1.33 v 6.286 q 0,1.456 0.63,2.128 0.63,0.672 2.058,0.672 1.47,0 2.072,-0.686 0.616,-0.686 0.616,-2.114 v -6.286 h 1.33 v 5.936 q 0,2.184 -0.91,3.22 -0.91,1.022 -3.108,1.022 -2.128,0 -3.08,-0.994 -0.938,-1.008 -0.938,-3.108 z m 17.08001,0 v 1.148 h -5.586 v 3.122 h 5.222 v 1.106 h -5.222 v 3.444 h 5.656 V 153 h -6.972 v -9.968 z m 8.708,2.926 h -1.274 q -0.21,-2.03 -2.478,-2.03 -1.078,0 -1.666,0.434 -0.588,0.434 -0.588,1.218 0,0.28 0.084,0.49 0.084,0.21 0.28,0.378 0.21,0.154 0.392,0.266 0.182,0.112 0.574,0.224 0.392,0.112 0.63,0.168 0.238,0.042 0.742,0.154 0.616,0.126 1.022,0.238 0.406,0.098 0.966,0.336 0.56,0.238 0.882,0.532 0.336,0.28 0.574,0.756 0.252,0.476 0.252,1.078 0,1.05 -0.588,1.764 -0.588,0.7 -1.428,0.98 -0.84,0.28 -1.862,0.28 -1.876,0 -3.01,-0.882 -1.12,-0.896 -1.12,-2.632 h 1.274 q 0.042,1.274 0.854,1.862 0.812,0.574 2.114,0.574 1.022,0 1.75,-0.42 0.728,-0.434 0.728,-1.4 0,-0.448 -0.196,-0.756 -0.196,-0.322 -0.616,-0.518 -0.42,-0.21 -0.84,-0.336 -0.42,-0.126 -1.106,-0.28 -0.098,-0.014 -0.14,-0.028 -1.54,-0.35 -2.016,-0.56 -1.456,-0.63 -1.456,-2.17 0,-1.428 1.05,-2.128 1.064,-0.714 2.562,-0.714 1.638,0 2.618,0.784 0.98,0.784 1.036,2.338 z"
       id="text17"
       class="nonterminal"
       style="font-size:14px;font-family:HelveticaNeueCyr, Sans-serif;fill:#1a0000"
       aria-label="VALUES" />
  </a>
  <path
     id="rect18"
     style="fill:#330000;stroke:#330000;stroke-width:0.870601"
     d="m 447.92447,78.789435 h 5.22361 c 4.82313,0 8.70601,3.882883 8.70601,8.706015 v 10.447218 c 0,4.823132 -3.88288,8.706012 -8.70601,8.706012 h -5.22361 c -4.82313,0 -8.70601,-3.88288 -8.70601,-8.706012 V 87.49545 c 0,-4.823132 3.88288,-8.706015 8.70601,-8.706015 z" />
  <path
     id="rect19"
     class="terminal"
     style="fill:#ff4d4d;stroke:#330000;stroke-width:0.870601"
     d="m 446.18327,77.048233 h 5.22361 c 4.82313,0 8.70601,3.882882 8.70601,8.706014 v 10.447218 c 0,4.823135 -3.88288,8.706015 -8.70601,8.706015 h -5.22361 c -4.82313,0 -8.70602,-3.88288 -8.70602,-8.706015 V 85.754247 c 0,-4.823132 3.88289,-8.706014 8.70602,-8.706014 z" />
  <path
     d="m 446.13451,85.648034 h 1.43824 q 1.62106,2.486438 1.62106,5.423847 0,1.377292 -0.4266,2.973975 -0.42659,1.596683 -1.17009,2.583945 h -1.45042 q 0.73131,-1.486987 1.03602,-2.742394 0.3169,-1.267596 0.3169,-2.839902 0,-2.949598 -1.36511,-5.399471 z"
     id="text19"
     class="terminal"
     style="font-weight:bold;font-size:14px;font-family:HelveticaNeueCyr, Sans-serif;fill:#140000;stroke-width:0.870601"
     aria-label=")" />
  <path
     id="rect20"
     style="fill:#330000;stroke:#330000;stroke-width:0.870601"
     d="m 522.7962,68.342218 h 15.67083 c 4.82313,0 8.70601,3.882882 8.70601,8.706015 V 87.49545 c 0,4.823133 -3.88288,8.706015 -8.70601,8.706015 H 522.7962 c -4.82313,0 -8.70602,-3.882882 -8.70602,-8.706015 V 77.048233 c 0,-4.823133 3.88289,-8.706015 8.70602,-8.706015 z" />
  <path
     id="rect21"
     class="terminal"
     style="fill:#ff4d4d;stroke:#330000;stroke-width:0.870601"
     d="m 521.055,66.601015 h 15.67082 c 4.82314,0 8.70602,3.882882 8.70602,8.706015 v 10.447217 c 0,4.823133 -3.88288,8.706015 -8.70602,8.706015 H 521.055 c -4.82314,0 -8.70602,-3.882882 -8.70602,-8.706015 V 75.30703 c 0,-4.823133 3.88288,-8.706015 8.70602,-8.706015 z" />
  <path
     d="m 526.2107,75.3227 3.30306,8.690344 h -1.9989 l -0.68255,-1.937958 h -3.22993 l -0.70693,1.937958 h -1.95015 l 3.30306,-8.690344 z m 0.15845,5.362906 -1.14571,-3.229932 -1.1579,3.229932 z m 10.2992,-2.766772 h -1.80388 q -0.1097,-1.291973 -1.64544,-1.291973 -0.65817,0 -1.03601,0.268146 -0.36566,0.255956 -0.36566,0.719116 0,0.15845 0.0488,0.280334 0.0487,0.121884 0.18282,0.23158 0.13408,0.09751 0.26815,0.170638 0.13407,0.06094 0.39003,0.146261 0.26814,0.07313 0.47535,0.134073 0.21939,0.06094 0.60942,0.158449 0.39003,0.09751 0.68255,0.182827 1.27978,0.365652 1.90139,0.914131 0.6338,0.548479 0.6338,1.572306 0,0.743494 -0.30471,1.304161 -0.30471,0.548479 -0.82881,0.877567 -0.51192,0.316899 -1.13353,0.46316 -0.60942,0.158449 -1.30416,0.158449 -1.76732,0 -2.76677,-0.804436 -0.98726,-0.816624 -0.99945,-2.291423 h 1.88921 q 0.0487,1.633249 1.96233,1.633249 0.7435,0 1.17009,-0.304711 0.43878,-0.316899 0.43878,-0.853189 0,-0.450972 -0.40221,-0.658175 -0.39003,-0.207203 -1.65763,-0.572856 -0.2072,-0.04875 -0.3169,-0.08532 -0.43878,-0.121884 -0.60942,-0.170638 -0.17064,-0.06094 -0.54848,-0.195014 -0.36565,-0.134073 -0.53629,-0.243769 -0.17064,-0.109696 -0.42659,-0.30471 -0.24377,-0.195015 -0.35347,-0.402218 -0.10969,-0.219392 -0.2072,-0.524102 -0.0853,-0.316899 -0.0853,-0.682552 0,-1.182277 0.91413,-1.889205 0.91413,-0.706929 2.4255,-0.706929 1.46261,0 2.38893,0.69474 0.92632,0.682552 0.95069,2.072032 z"
     id="text21"
     class="terminal"
     style="font-weight:bold;font-size:14px;font-family:HelveticaNeueCyr, Sans-serif;fill:#140000;stroke-width:0.870601"
     aria-label="AS" />
  <a
     xlink:href="#name"
     xlink:title="name"
     id="a23"
     transform="matrix(0.8706015,0,0,0.8706015,-0.435301,-0.435301)">
    <path
       id="rect22"
       style="fill:#330000;stroke:#330000"
       d="m 649,79 h 56 v 32 h -56 z" />
    <path
       id="rect23"
       class="nonterminal"
       style="fill:#ff9e9e;stroke:#330000"
       d="m 647,77 h 56 v 32 h -56 z" />
    <path
       d="m 659.016,89.776 v 1.12 q 0.896,-1.316 2.464,-1.316 1.274,0 1.834,0.672 0.574,0.658 0.574,1.946 V 97 h -1.19 v -4.256 q 0,-0.532 -0.042,-0.826 -0.028,-0.308 -0.168,-0.644 -0.14,-0.35 -0.476,-0.504 -0.336,-0.154 -0.868,-0.154 -2.058,0 -2.058,2.604 V 97 h -1.19 v -7.224 z m 13.062,6.272 v 0.924 q -0.364,0.14 -0.812,0.14 -1.022,0 -1.05,-1.064 -1.022,1.148 -2.618,1.148 -1.064,0 -1.694,-0.546 -0.616,-0.546 -0.616,-1.498 0,-1.932 2.562,-2.254 1.512,-0.182 1.75,-0.266 0.504,-0.168 0.546,-0.7 0.014,-0.084 0.014,-0.182 0,-1.19 -1.638,-1.19 -0.84,0 -1.274,0.35 -0.434,0.336 -0.518,1.12 h -1.162 q 0.028,-1.162 0.826,-1.806 0.798,-0.644 2.198,-0.644 1.526,0 2.268,0.7 0.238,0.224 0.35,0.588 0.112,0.364 0.126,0.602 0.014,0.224 0.014,0.686 0,0.546 -0.028,1.624 -0.028,1.064 -0.028,1.596 0,0.392 0.098,0.56 0.112,0.154 0.392,0.154 0.112,0 0.294,-0.042 z m -1.918,-2.8 q -0.126,0.098 -0.266,0.168 -0.14,0.07 -0.364,0.112 -0.21,0.042 -0.294,0.07 -0.07,0.014 -0.364,0.056 -0.294,0.028 -0.308,0.028 -0.434,0.056 -0.574,0.084 -0.126,0.014 -0.504,0.112 -0.364,0.098 -0.518,0.224 -0.154,0.126 -0.308,0.378 -0.14,0.238 -0.14,0.574 0,0.56 0.378,0.882 0.392,0.322 1.064,0.322 0.854,0 1.526,-0.504 0.672,-0.504 0.672,-1.19 z m 4.15801,-3.472 v 1.05 q 0.476,-0.644 1.022,-0.938 0.546,-0.294 1.33,-0.294 1.484,0 2.002,1.246 0.938,-1.26 2.394,-1.26 1.12,0 1.694,0.63 0.588,0.616 0.588,1.736 V 97 h -1.19 v -4.55 q 0,-0.896 -0.28,-1.344 -0.28,-0.462 -1.162,-0.462 -1.848,0 -1.848,2.254 V 97 h -1.19 v -4.634 q 0,-0.826 -0.28,-1.26 -0.266,-0.448 -1.05,-0.448 -1.106,0 -1.54,0.686 -0.42,0.672 -0.42,1.834 V 97 h -1.19 v -7.224 z m 16.996,4.942 q -0.546,2.52 -3.15,2.52 -1.596,0 -2.506,-0.994 -0.896,-0.994 -0.896,-2.758 0,-1.75 0.924,-2.828 0.938,-1.092 2.436,-1.092 1.666,0 2.464,1.134 0.812,1.12 0.812,2.842 v 0.168 h -5.432 l -0.014,0.084 q 0,1.148 0.602,1.806 0.602,0.658 1.652,0.658 0.784,0 1.232,-0.364 0.462,-0.364 0.714,-1.176 z m -1.148,-1.974 q -0.084,-1.036 -0.63,-1.61 -0.546,-0.588 -1.442,-0.588 -0.868,0 -1.442,0.588 -0.574,0.588 -0.686,1.61 z"
       id="text23"
       class="nonterminal"
       style="font-size:14px;font-family:HelveticaNeueCyr, Sans-serif;fill:#1a0000"
       aria-label="name" />
  </a>
  <path
     id="rect24"
     style="fill:#330000;stroke:#330000;stroke-width:0.870601"
     d="m 64.859812,216.34447 h 38.306468 c 4.82313,0 8.70601,3.88288 8.70601,8.70602 v 10.44721 c 0,4.82314 -3.88288,8.70602 -8.70601,8.70602 H 64.859812 c -4.823133,0 -8.706015,-3.88288 -8.706015,-8.70602 v -10.44721 c 0,-4.82314 3.882882,-8.70602 8.706015,-8.70602 z" />
  <path
     id="rect25"
     class="terminal"
     style="fill:#ff4d4d;stroke:#330000;stroke-width:0.870601"
     d="m 63.118609,214.60327 h 38.306461 c 4.82314,0 8.70602,3.88288 8.70602,8.70601 v 10.44722 c 0,4.82313 -3.88288,8.70602 -8.70602,8.70602 H 63.118609 c -4.823133,0 -8.706015,-3.88289 -8.706015,-8.70602 v -10.44722 c 0,-4.82313 3.882882,-8.70601 8.706015,-8.70601 z" />
  <path
     d="m 65.873192,223.33714 v 8.67816 H 63.95961 v -8.67816 z m 1.682003,8.67816 v -8.67816 h 1.937959 l 3.571207,5.81388 v -5.81388 h 1.828263 v 8.67816 H 72.99123 l -3.595584,-5.82607 v 5.82607 z m 9.03161,0 v -8.67816 h 1.937959 l 3.571207,5.81388 v -5.81388 h 1.828263 v 8.67816 h -1.901393 l -3.595584,-5.82607 v 5.82607 z m 15.540228,-8.67816 v 1.56012 h -4.619412 v 1.88921 h 4.241571 v 1.49917 h -4.241571 v 2.13298 h 4.704731 v 1.59668 h -6.593937 v -8.67816 z m 1.462619,0 h 4.314701 q 1.291973,0 2.108597,0.60942 0.81662,0.60943 0.81662,1.85264 0,0.75569 -0.36565,1.32854 -0.36565,0.56067 -1.011637,0.80444 1.121337,0.23158 1.279787,2.02328 0,0.0609 0.0244,0.37784 0.0244,0.3169 0.0488,0.51191 0.0244,0.18283 0.0609,0.45097 0.0366,0.26815 0.1097,0.45097 0.0731,0.18283 0.17063,0.26815 h -1.974521 q -0.09751,-0.19502 -0.146261,-0.48754 -0.04875,-0.30471 -0.08532,-0.76787 -0.03657,-0.47535 -0.03657,-0.5241 -0.09751,-0.91413 -0.46316,-1.2676 -0.353464,-0.35346 -1.267596,-0.35346 h -1.694191 v 3.40057 h -1.889205 z m 1.889205,1.49918 v 2.40112 h 1.803887 q 0.792247,0 1.23103,-0.24377 0.450972,-0.25596 0.450972,-0.98726 0,-0.68255 -0.438783,-0.92632 -0.426595,-0.24377 -1.1579,-0.24377 z"
     id="text25"
     class="terminal"
     style="font-weight:bold;font-size:14px;font-family:HelveticaNeueCyr, Sans-serif;fill:#140000;stroke-width:0.870601"
     aria-label="INNER" />
  <path
     id="rect26"
     style="fill:#330000;stroke:#330000;stroke-width:0.870601"
     d="m 155.40237,188.48522 h 29.60045 c 4.82313,0 8.70601,3.88289 8.70601,8.70602 v 10.44722 c 0,4.82313 -3.88288,8.70601 -8.70601,8.70601 h -29.60045 c -4.82314,0 -8.70602,-3.88288 -8.70602,-8.70601 v -10.44722 c 0,-4.82313 3.88288,-8.70602 8.70602,-8.70602 z" />
  <path
     id="rect27"
     class="terminal"
     style="fill:#ff4d4d;stroke:#330000;stroke-width:0.870601"
     d="m 153.66116,186.74402 h 29.60046 c 4.82313,0 8.70601,3.88288 8.70601,8.70602 v 10.44721 c 0,4.82314 -3.88288,8.70602 -8.70601,8.70602 h -29.60046 c -4.82313,0 -8.70601,-3.88288 -8.70601,-8.70602 v -10.44721 c 0,-4.82314 3.88288,-8.70602 8.70601,-8.70602 z" />
  <path
     d="m 159.731,195.4779 v 5.96013 q 0,2.92522 -2.85209,2.92522 -1.37729,0 -2.14516,-0.71911 -0.75569,-0.71912 -0.75569,-2.15735 v -0.57286 h 1.75514 v 0.26815 q 0,0.32908 0,0.49972 0.0122,0.15845 0.0609,0.4266 0.0609,0.25595 0.17064,0.39003 0.10969,0.12188 0.31689,0.23158 0.2194,0.0975 0.5363,0.0975 0.34127,0 0.54847,-0.10969 0.2194,-0.1097 0.3169,-0.32909 0.0975,-0.23158 0.12189,-0.45097 0.0244,-0.21939 0.0244,-0.56067 v -5.89919 z m 5.4726,-0.20721 q 1.90139,0 3.07148,1.2676 1.18228,1.25541 1.18228,3.29087 0,2.03547 -1.18228,3.29088 -1.17009,1.24321 -3.08367,1.24321 -1.92577,0 -3.10805,-1.24321 -1.18227,-1.25541 -1.18227,-3.29088 0,-2.05984 1.17008,-3.30306 1.18228,-1.25541 3.13243,-1.25541 z m -0.0244,1.56012 q -1.07258,0 -1.71857,0.80444 -0.63379,0.80443 -0.63379,2.15735 0,1.40166 0.63379,2.19391 0.6338,0.79225 1.74295,0.80444 1.08477,0 1.70638,-0.80444 0.62161,-0.80443 0.62161,-2.19391 0,-1.36511 -0.6338,-2.15735 -0.6338,-0.80444 -1.71857,-0.80444 z m 7.49587,-1.35291 v 8.67815 h -1.91358 v -8.67815 z m 1.68201,8.67815 v -8.67815 h 1.93796 l 3.57121,5.81387 v -5.81387 h 1.82826 v 8.67815 h -1.90139 l -3.59559,-5.82606 v 5.82606 z"
     id="text27"
     class="terminal"
     style="font-weight:bold;font-size:14px;font-family:HelveticaNeueCyr, Sans-serif;fill:#140000;stroke-width:0.870601"
     aria-label="JOIN" />
  <a
     xlink:href="#table"
     xlink:title="table"
     id="a29"
     transform="matrix(0.8706015,0,0,0.8706015,-0.435301,-0.435301)">
    <path
       id="rect28"
       style="fill:#330000;stroke:#330000"
       d="m 263,217 h 52 v 32 h -52 z" />
    <path
       id="rect29"
       class="nonterminal"
       style="fill:#ff9e9e;stroke:#330000"
       d="m 261,215 h 52 v 32 h -52 z" />
    <path
       d="m 274.99,227.776 v 0.98 h -1.442 v 4.214 q 0,0.35 0,0.462 0.014,0.112 0.084,0.308 0.07,0.182 0.238,0.238 0.168,0.056 0.476,0.056 0.266,0 0.644,-0.042 v 1.022 q -0.504,0.056 -0.91,0.056 -0.504,0 -0.84,-0.112 -0.336,-0.112 -0.518,-0.252 -0.168,-0.14 -0.252,-0.49 -0.084,-0.364 -0.098,-0.602 -0.014,-0.252 -0.014,-0.826 0,-0.126 0,-0.196 v -3.836 h -1.218 v -0.98 h 1.218 v -2.142 h 1.19 v 2.142 z m 7.71401,6.272 v 0.924 q -0.364,0.14 -0.812,0.14 -1.022,0 -1.05,-1.064 -1.022,1.148 -2.618,1.148 -1.064,0 -1.694,-0.546 -0.616,-0.546 -0.616,-1.498 0,-1.932 2.562,-2.254 1.512,-0.182 1.75,-0.266 0.504,-0.168 0.546,-0.7 0.014,-0.084 0.014,-0.182 0,-1.19 -1.638,-1.19 -0.84,0 -1.274,0.35 -0.434,0.336 -0.518,1.12 h -1.162 q 0.028,-1.162 0.826,-1.806 0.798,-0.644 2.198,-0.644 1.526,0 2.268,0.7 0.238,0.224 0.35,0.588 0.112,0.364 0.126,0.602 0.014,0.224 0.014,0.686 0,0.546 -0.028,1.624 -0.028,1.064 -0.028,1.596 0,0.392 0.098,0.56 0.112,0.154 0.392,0.154 0.112,0 0.294,-0.042 z m -1.918,-2.8 q -0.126,0.098 -0.266,0.168 -0.14,0.07 -0.364,0.112 -0.21,0.042 -0.294,0.07 -0.07,0.014 -0.364,0.056 -0.294,0.028 -0.308,0.028 -0.434,0.056 -0.574,0.084 -0.126,0.014 -0.504,0.112 -0.364,0.098 -0.518,0.224 -0.154,0.126 -0.308,0.378 -0.14,0.238 -0.14,0.574 0,0.56 0.378,0.882 0.392,0.322 1.064,0.322 0.854,0 1.526,-0.504 0.672,-0.504 0.672,-1.19 z m 4.21401,-6.216 v 3.738 q 0.784,-1.19 2.394,-1.19 1.484,0 2.366,1.036 0.896,1.022 0.896,2.744 0,1.75 -0.91,2.8 -0.91,1.05 -2.422,1.05 -1.722,0 -2.394,-1.26 V 235 h -1.12 v -9.968 z m 2.212,3.556 q -1.148,0 -1.708,0.826 -0.546,0.826 -0.546,2.03 0,1.274 0.602,2.03 0.616,0.742 1.652,0.742 0.994,0 1.596,-0.77 0.616,-0.784 0.616,-2.072 0,-1.274 -0.602,-2.03 -0.602,-0.756 -1.61,-0.756 z m 6.174,-3.556 V 235 h -1.204 v -9.968 z m 8.022,7.686 q -0.546,2.52 -3.15,2.52 -1.596,0 -2.506,-0.994 -0.896,-0.994 -0.896,-2.758 0,-1.75 0.924,-2.828 0.938,-1.092 2.436,-1.092 1.666,0 2.464,1.134 0.812,1.12 0.812,2.842 v 0.168 h -5.432 l -0.014,0.084 q 0,1.148 0.602,1.806 0.602,0.658 1.652,0.658 0.784,0 1.232,-0.364 0.462,-0.364 0.714,-1.176 z m -1.148,-1.974 q -0.084,-1.036 -0.63,-1.61 -0.546,-0.588 -1.442,-0.588 -0.868,0 -1.442,0.588 -0.574,0.588 -0.686,1.61 z"
       id="text29"
       class="nonterminal"
       style="font-size:14px;font-family:HelveticaNeueCyr, Sans-serif;fill:#1a0000"
       aria-label="table" />
  </a>
  <path
     id="rect30"
     style="fill:#330000;stroke:#330000;stroke-width:0.870601"
     d="m 237.23891,226.79169 h 5.22361 c 4.82313,0 8.70601,3.88288 8.70601,8.70601 v 10.44722 c 0,4.82314 -3.88288,8.70602 -8.70601,8.70602 h -5.22361 c -4.82313,0 -8.70602,-3.88288 -8.70602,-8.70602 V 235.4977 c 0,-4.82313 3.88289,-8.70601 8.70602,-8.70601 z" />
  <path
     id="rect31"
     class="terminal"
     style="fill:#ff4d4d;stroke:#330000;stroke-width:0.870601"
     d="m 235.4977,225.05049 h 5.22361 c 4.82314,0 8.70602,3.88288 8.70602,8.70601 v 10.44722 c 0,4.82313 -3.88288,8.70601 -8.70602,8.70601 h -5.22361 c -4.82313,0 -8.70601,-3.88288 -8.70601,-8.70601 V 233.7565 c 0,-4.82313 3.88288,-8.70601 8.70601,-8.70601 z" />
  <path
     d="m 239.17861,233.65029 q -0.70693,1.41386 -1.03602,2.70583 -0.3169,1.29197 -0.3169,2.8399 0,2.68145 1.37729,5.43604 h -1.46261 q -0.75568,-1.14572 -1.18227,-2.57176 -0.41441,-1.42605 -0.41441,-2.82771 0,-1.46262 0.40222,-2.9496 0.41441,-1.49918 1.19446,-2.6327 z"
     id="text31"
     class="terminal"
     style="font-weight:bold;font-size:14px;font-family:HelveticaNeueCyr, Sans-serif;fill:#140000;stroke-width:0.870601"
     aria-label="(" />
  <a
     xlink:href="#select"
     xlink:title="SELECT"
     id="a33"
     transform="matrix(0.8706015,0,0,0.8706015,-0.435301,-0.435301)">
    <path
       id="rect32"
       style="fill:#330000;stroke:#330000"
       d="m 329,261 h 66 v 32 h -66 z" />
    <path
       id="rect33"
       class="nonterminal"
       style="fill:#ff9e9e;stroke:#330000"
       d="m 327,259 h 66 v 32 h -66 z" />
    <path
       d="m 345.162,271.958 h -1.274 q -0.21,-2.03 -2.478,-2.03 -1.078,0 -1.666,0.434 -0.588,0.434 -0.588,1.218 0,0.28 0.084,0.49 0.084,0.21 0.28,0.378 0.21,0.154 0.392,0.266 0.182,0.112 0.574,0.224 0.392,0.112 0.63,0.168 0.238,0.042 0.742,0.154 0.616,0.126 1.022,0.238 0.406,0.098 0.966,0.336 0.56,0.238 0.882,0.532 0.336,0.28 0.574,0.756 0.252,0.476 0.252,1.078 0,1.05 -0.588,1.764 -0.588,0.7 -1.428,0.98 -0.84,0.28 -1.862,0.28 -1.876,0 -3.01,-0.882 -1.12,-0.896 -1.12,-2.632 h 1.274 q 0.042,1.274 0.854,1.862 0.812,0.574 2.114,0.574 1.022,0 1.75,-0.42 0.728,-0.434 0.728,-1.4 0,-0.448 -0.196,-0.756 -0.196,-0.322 -0.616,-0.518 -0.42,-0.21 -0.84,-0.336 -0.42,-0.126 -1.106,-0.28 -0.098,-0.014 -0.14,-0.028 -1.54,-0.35 -2.016,-0.56 -1.456,-0.63 -1.456,-2.17 0,-1.428 1.05,-2.128 1.064,-0.714 2.562,-0.714 1.638,0 2.618,0.784 0.98,0.784 1.036,2.338 z m 8.91801,-2.926 v 1.148 h -5.586 v 3.122 h 5.222 v 1.106 h -5.222 v 3.444 h 5.656 V 279 h -6.972 v -9.968 z m 8.274,8.82 V 279 h -6.608 v -9.968 h 1.316 v 8.82 z m 8.064,-8.82 v 1.148 h -5.586 v 3.122 h 5.222 v 1.106 h -5.222 v 3.444 h 5.656 V 279 h -6.972 v -9.968 z m 10.094,6.202 q -0.168,1.89 -1.316,2.954 -1.134,1.05 -2.996,1.05 -2.128,0 -3.374,-1.4 -1.246,-1.414 -1.246,-3.808 0,-2.24 1.246,-3.724 1.26,-1.498 3.472,-1.498 1.582,0 2.786,0.854 1.204,0.854 1.344,2.366 h -1.316 q -0.224,-0.98 -0.98,-1.526 -0.756,-0.56 -1.862,-0.56 -1.666,0 -2.52,1.176 -0.84,1.176 -0.84,2.898 0,1.904 0.896,2.996 0.896,1.092 2.45,1.092 1.274,0 2.03,-0.728 0.756,-0.742 0.91,-2.142 z m 8.582,-6.202 v 1.148 h -3.346 V 279 h -1.316 v -8.82 h -3.346 v -1.148 z"
       id="text33"
       class="nonterminal"
       style="font-size:14px;font-family:HelveticaNeueCyr, Sans-serif;fill:#1a0000"
       aria-label="SELECT" />
  </a>
  <a
     xlink:href="#values"
     xlink:title="VALUES"
     id="a35"
     transform="matrix(0.8706015,0,0,0.8706015,-0.435301,-0.435301)">
    <path
       id="rect34"
       style="fill:#330000;stroke:#330000"
       d="m 329,305 h 68 v 32 h -68 z" />
    <path
       id="rect35"
       class="nonterminal"
       style="fill:#ff9e9e;stroke:#330000"
       d="m 327,303 h 68 v 32 h -68 z" />
    <path
       d="m 336.972,313.032 h 1.456 l 2.87,8.68 2.898,-8.68 h 1.386 L 342.026,323 h -1.512 z m 13.23001,0 3.892,9.968 h -1.47 l -1.106,-3.052 h -4.186 l -1.134,3.052 h -1.4 l 3.92,-9.968 z m 0.924,5.866 -1.694,-4.606 -1.722,4.606 z m 10.58401,2.954 V 323 h -6.608 v -9.968 h 1.316 v 8.82 z m 1.09199,-8.82 h 1.33 v 6.286 q 0,1.456 0.63,2.128 0.63,0.672 2.058,0.672 1.47,0 2.072,-0.686 0.616,-0.686 0.616,-2.114 v -6.286 h 1.33 v 5.936 q 0,2.184 -0.91,3.22 -0.91,1.022 -3.108,1.022 -2.128,0 -3.08,-0.994 -0.938,-1.008 -0.938,-3.108 z m 17.08001,0 v 1.148 h -5.586 v 3.122 h 5.222 v 1.106 h -5.222 v 3.444 h 5.656 V 323 h -6.972 v -9.968 z m 8.708,2.926 h -1.274 q -0.21,-2.03 -2.478,-2.03 -1.078,0 -1.666,0.434 -0.588,0.434 -0.588,1.218 0,0.28 0.084,0.49 0.084,0.21 0.28,0.378 0.21,0.154 0.392,0.266 0.182,0.112 0.574,0.224 0.392,0.112 0.63,0.168 0.238,0.042 0.742,0.154 0.616,0.126 1.022,0.238 0.406,0.098 0.966,0.336 0.56,0.238 0.882,0.532 0.336,0.28 0.574,0.756 0.252,0.476 0.252,1.078 0,1.05 -0.588,1.764 -0.588,0.7 -1.428,0.98 -0.84,0.28 -1.862,0.28 -1.876,0 -3.01,-0.882 -1.12,-0.896 -1.12,-2.632 h 1.274 q 0.042,1.274 0.854,1.862 0.812,0.574 2.114,0.574 1.022,0 1.75,-0.42 0.728,-0.434 0.728,-1.4 0,-0.448 -0.196,-0.756 -0.196,-0.322 -0.616,-0.518 -0.42,-0.21 -0.84,-0.336 -0.42,-0.126 -1.106,-0.28 -0.098,-0.014 -0.14,-0.028 -1.54,-0.35 -2.016,-0.56 -1.456,-0.63 -1.456,-2.17 0,-1.428 1.05,-2.128 1.064,-0.714 2.562,-0.714 1.638,0 2.618,0.784 0.98,0.784 1.036,2.338 z"
       id="text35"
       class="nonterminal"
       style="font-size:14px;font-family:HelveticaNeueCyr, Sans-serif;fill:#1a0000"
       aria-label="VALUES" />
  </a>
  <path
     id="rect36"
     style="fill:#330000;stroke:#330000;stroke-width:0.870601"
     d="m 388.72357,226.79169 h 5.22361 c 4.82313,0 8.70601,3.88288 8.70601,8.70601 v 10.44722 c 0,4.82314 -3.88288,8.70602 -8.70601,8.70602 h -5.22361 c -4.82313,0 -8.70602,-3.88288 -8.70602,-8.70602 V 235.4977 c 0,-4.82313 3.88289,-8.70601 8.70602,-8.70601 z" />
  <path
     id="rect37"
     class="terminal"
     style="fill:#ff4d4d;stroke:#330000;stroke-width:0.870601"
     d="m 386.98237,225.05049 h 5.2236 c 4.82314,0 8.70602,3.88288 8.70602,8.70601 v 10.44722 c 0,4.82313 -3.88288,8.70601 -8.70602,8.70601 h -5.2236 c -4.82314,0 -8.70602,-3.88288 -8.70602,-8.70601 V 233.7565 c 0,-4.82313 3.88288,-8.70601 8.70602,-8.70601 z" />
  <path
     d="m 386.93361,233.65029 h 1.43824 q 1.62106,2.48644 1.62106,5.42385 0,1.37729 -0.4266,2.97397 -0.42659,1.59668 -1.17009,2.58395 h -1.45042 q 0.73131,-1.48699 1.03602,-2.7424 0.31689,-1.26759 0.31689,-2.8399 0,-2.9496 -1.3651,-5.39947 z"
     id="text37"
     class="terminal"
     style="font-weight:bold;font-size:14px;font-family:HelveticaNeueCyr, Sans-serif;fill:#140000;stroke-width:0.870601"
     aria-label=")" />
  <path
     id="rect38"
     style="fill:#330000;stroke:#330000;stroke-width:0.870601"
     d="m 463.5953,216.34447 h 15.67082 c 4.82314,0 8.70602,3.88288 8.70602,8.70602 v 10.44721 c 0,4.82314 -3.88288,8.70602 -8.70602,8.70602 H 463.5953 c -4.82314,0 -8.70602,-3.88288 -8.70602,-8.70602 v -10.44721 c 0,-4.82314 3.88288,-8.70602 8.70602,-8.70602 z" />
  <path
     id="rect39"
     class="terminal"
     style="fill:#ff4d4d;stroke:#330000;stroke-width:0.870601"
     d="m 461.85409,214.60327 h 15.67083 c 4.82313,0 8.70602,3.88288 8.70602,8.70601 v 10.44722 c 0,4.82313 -3.88289,8.70602 -8.70602,8.70602 h -15.67083 c -4.82313,0 -8.70601,-3.88289 -8.70601,-8.70602 v -10.44722 c 0,-4.82313 3.88288,-8.70601 8.70601,-8.70601 z" />
  <path
     d="m 467.0098,223.32495 3.30306,8.69035 h -1.9989 l -0.68255,-1.93796 h -3.22994 l -0.70692,1.93796 h -1.95015 l 3.30306,-8.69035 z m 0.15845,5.36291 -1.14572,-3.22993 -1.1579,3.22993 z m 10.2992,-2.76677 h -1.80388 q -0.1097,-1.29197 -1.64544,-1.29197 -0.65818,0 -1.03602,0.26814 -0.36565,0.25596 -0.36565,0.71912 0,0.15845 0.0487,0.28033 0.0488,0.12189 0.18283,0.23158 0.13407,0.0975 0.26815,0.17064 0.13407,0.0609 0.39003,0.14626 0.26814,0.0731 0.47534,0.13407 0.2194,0.0609 0.60943,0.15845 0.39002,0.0975 0.68255,0.18283 1.27978,0.36565 1.90139,0.91413 0.6338,0.54848 0.6338,1.57231 0,0.74349 -0.30471,1.30416 -0.30471,0.54848 -0.82881,0.87756 -0.51192,0.3169 -1.13353,0.46316 -0.60942,0.15845 -1.30416,0.15845 -1.76732,0 -2.76677,-0.80443 -0.98726,-0.81663 -0.99945,-2.29143 h 1.8892 q 0.0488,1.63325 1.96234,1.63325 0.74349,0 1.17009,-0.30471 0.43878,-0.3169 0.43878,-0.85319 0,-0.45097 -0.40222,-0.65817 -0.39003,-0.2072 -1.65762,-0.57286 -0.2072,-0.0487 -0.3169,-0.0853 -0.43878,-0.12188 -0.60942,-0.17063 -0.17064,-0.061 -0.54848,-0.19502 -0.36565,-0.13407 -0.53629,-0.24377 -0.17064,-0.10969 -0.4266,-0.30471 -0.24376,-0.19501 -0.35346,-0.40222 -0.1097,-0.21939 -0.2072,-0.5241 -0.0853,-0.3169 -0.0853,-0.68255 0,-1.18228 0.91413,-1.8892 0.91413,-0.70693 2.4255,-0.70693 1.46261,0 2.38893,0.69474 0.92632,0.68255 0.95069,2.07203 z"
     id="text39"
     class="terminal"
     style="font-weight:bold;font-size:14px;font-family:HelveticaNeueCyr, Sans-serif;fill:#140000;stroke-width:0.870601"
     aria-label="AS" />
  <a
     xlink:href="#name"
     xlink:title="name"
     id="a41"
     transform="matrix(0.8706015,0,0,0.8706015,-0.435301,-0.435301)">
    <path
       id="rect40"
       style="fill:#330000;stroke:#330000"
       d="m 581,249 h 56 v 32 h -56 z" />
    <path
       id="rect41"
       class="nonterminal"
       style="fill:#ff9e9e;stroke:#330000"
       d="m 579,247 h 56 v 32 h -56 z" />
    <path
       d="m 591.016,259.776 v 1.12 q 0.896,-1.316 2.464,-1.316 1.274,0 1.834,0.672 0.574,0.658 0.574,1.946 V 267 h -1.19 v -4.256 q 0,-0.532 -0.042,-0.826 -0.028,-0.308 -0.168,-0.644 -0.14,-0.35 -0.476,-0.504 -0.336,-0.154 -0.868,-0.154 -2.058,0 -2.058,2.604 V 267 h -1.19 v -7.224 z m 13.062,6.272 v 0.924 q -0.364,0.14 -0.812,0.14 -1.022,0 -1.05,-1.064 -1.022,1.148 -2.618,1.148 -1.064,0 -1.694,-0.546 -0.616,-0.546 -0.616,-1.498 0,-1.932 2.562,-2.254 1.512,-0.182 1.75,-0.266 0.504,-0.168 0.546,-0.7 0.014,-0.084 0.014,-0.182 0,-1.19 -1.638,-1.19 -0.84,0 -1.274,0.35 -0.434,0.336 -0.518,1.12 h -1.162 q 0.028,-1.162 0.826,-1.806 0.798,-0.644 2.198,-0.644 1.526,0 2.268,0.7 0.238,0.224 0.35,0.588 0.112,0.364 0.126,0.602 0.014,0.224 0.014,0.686 0,0.546 -0.028,1.624 -0.028,1.064 -0.028,1.596 0,0.392 0.098,0.56 0.112,0.154 0.392,0.154 0.112,0 0.294,-0.042 z m -1.918,-2.8 q -0.126,0.098 -0.266,0.168 -0.14,0.07 -0.364,0.112 -0.21,0.042 -0.294,0.07 -0.07,0.014 -0.364,0.056 -0.294,0.028 -0.308,0.028 -0.434,0.056 -0.574,0.084 -0.126,0.014 -0.504,0.112 -0.364,0.098 -0.518,0.224 -0.154,0.126 -0.308,0.378 -0.14,0.238 -0.14,0.574 0,0.56 0.378,0.882 0.392,0.322 1.064,0.322 0.854,0 1.526,-0.504 0.672,-0.504 0.672,-1.19 z m 4.15801,-3.472 v 1.05 q 0.476,-0.644 1.022,-0.938 0.546,-0.294 1.33,-0.294 1.484,0 2.002,1.246 0.938,-1.26 2.394,-1.26 1.12,0 1.694,0.63 0.588,0.616 0.588,1.736 V 267 h -1.19 v -4.55 q 0,-0.896 -0.28,-1.344 -0.28,-0.462 -1.162,-0.462 -1.848,0 -1.848,2.254 V 267 h -1.19 v -4.634 q 0,-0.826 -0.28,-1.26 -0.266,-0.448 -1.05,-0.448 -1.106,0 -1.54,0.686 -0.42,0.672 -0.42,1.834 V 267 h -1.19 v -7.224 z m 16.996,4.942 q -0.546,2.52 -3.15,2.52 -1.596,0 -2.506,-0.994 -0.896,-0.994 -0.896,-2.758 0,-1.75 0.924,-2.828 0.938,-1.092 2.436,-1.092 1.666,0 2.464,1.134 0.812,1.12 0.812,2.842 v 0.168 h -5.432 l -0.014,0.084 q 0,1.148 0.602,1.806 0.602,0.658 1.652,0.658 0.784,0 1.232,-0.364 0.462,-0.364 0.714,-1.176 z m -1.148,-1.974 q -0.084,-1.036 -0.63,-1.61 -0.546,-0.588 -1.442,-0.588 -0.868,0 -1.442,0.588 -0.574,0.588 -0.686,1.61 z"
       id="text41"
       class="nonterminal"
       style="font-size:14px;font-family:HelveticaNeueCyr, Sans-serif;fill:#1a0000"
       aria-label="name" />
  </a>
  <path
     id="rect42"
     style="fill:#330000;stroke:#330000;stroke-width:0.870601"
     d="m 597.66793,188.48522 h 17.41203 c 4.82313,0 8.70601,3.88289 8.70601,8.70602 v 10.44722 c 0,4.82313 -3.88288,8.70601 -8.70601,8.70601 h -17.41203 c -4.82313,0 -8.70602,-3.88288 -8.70602,-8.70601 v -10.44722 c 0,-4.82313 3.88289,-8.70602 8.70602,-8.70602 z" />
  <path
     id="rect43"
     class="terminal"
     style="fill:#ff4d4d;stroke:#330000;stroke-width:0.870601"
     d="m 595.92672,186.74402 h 17.41203 c 4.82314,0 8.70602,3.88288 8.70602,8.70602 v 10.44721 c 0,4.82314 -3.88288,8.70602 -8.70602,8.70602 h -17.41203 c -4.82313,0 -8.70601,-3.88288 -8.70601,-8.70602 v -10.44721 c 0,-4.82314 3.88288,-8.70602 8.70601,-8.70602 z" />
  <path
     d="m 600.6924,195.27069 q 1.90139,0 3.07148,1.2676 1.18228,1.25541 1.18228,3.29087 0,2.03547 -1.18228,3.29088 -1.17009,1.24321 -3.08367,1.24321 -1.92577,0 -3.10805,-1.24321 -1.18228,-1.25541 -1.18228,-3.29088 0,-2.05984 1.17009,-3.30306 1.18228,-1.25541 3.13243,-1.25541 z m -0.0244,1.56012 q -1.07258,0 -1.71857,0.80444 -0.63379,0.80443 -0.63379,2.15735 0,1.40166 0.63379,2.19391 0.6338,0.79225 1.74295,0.80444 1.08477,0 1.70638,-0.80444 0.62161,-0.80443 0.62161,-2.19391 0,-1.36511 -0.6338,-2.15735 -0.6338,-0.80444 -1.71857,-0.80444 z m 5.5823,7.32524 v -8.67815 h 1.93796 l 3.5712,5.81387 v -5.81387 h 1.82827 v 8.67815 h -1.9014 l -3.59558,-5.82606 v 5.82606 z"
     id="text43"
     class="terminal"
     style="font-weight:bold;font-size:14px;font-family:HelveticaNeueCyr, Sans-serif;fill:#140000;stroke-width:0.870601"
     aria-label="ON" />
  <a
     xlink:href="#expression"
     xlink:title="expression"
     id="a45"
     transform="matrix(0.8706015,0,0,0.8706015,-0.435301,-0.435301)">
    <path
       id="rect44"
       style="fill:#330000;stroke:#330000"
       d="m 737,217 h 90 v 32 h -90 z" />
    <path
       id="rect45"
       class="nonterminal"
       style="fill:#ff9e9e;stroke:#330000"
       d="m 735,215 h 90 v 32 h -90 z" />
    <path
       d="m 752.07,232.718 q -0.546,2.52 -3.15,2.52 -1.596,0 -2.506,-0.994 -0.896,-0.994 -0.896,-2.758 0,-1.75 0.924,-2.828 0.938,-1.092 2.436,-1.092 1.666,0 2.464,1.134 0.812,1.12 0.812,2.842 v 0.168 h -5.432 l -0.014,0.084 q 0,1.148 0.602,1.806 0.602,0.658 1.652,0.658 0.784,0 1.232,-0.364 0.462,-0.364 0.714,-1.176 z m -1.148,-1.974 q -0.084,-1.036 -0.63,-1.61 -0.546,-0.588 -1.442,-0.588 -0.868,0 -1.442,0.588 -0.574,0.588 -0.686,1.61 z m 8.42801,-2.968 -2.52,3.332 2.814,3.892 h -1.526 l -2.03,-2.968 -2.002,2.968 h -1.442 l 2.716,-3.808 -2.506,-3.416 h 1.512 l 1.75,2.478 1.792,-2.478 z m 2.43599,0 v 1.022 q 0.784,-1.246 2.436,-1.246 1.512,0 2.394,1.022 0.896,1.022 0.896,2.772 0,1.75 -0.882,2.8 -0.868,1.036 -2.352,1.036 -1.554,0 -2.422,-1.19 v 3.794 h -1.19 v -10.01 z m 2.254,0.77 q -1.036,0 -1.638,0.756 -0.588,0.742 -0.588,2.058 0,1.316 0.602,2.072 0.616,0.742 1.666,0.742 1.022,0 1.61,-0.756 0.588,-0.756 0.588,-2.058 0,-1.316 -0.602,-2.058 -0.588,-0.756 -1.638,-0.756 z m 8.69401,-0.938 v 1.232 q -0.126,-0.014 -0.308,-0.014 -0.574,0 -0.994,0.182 -0.42,0.168 -0.672,0.448 -0.238,0.28 -0.392,0.7 -0.154,0.42 -0.21,0.84 -0.042,0.42 -0.042,0.952 V 235 h -1.19 v -7.224 h 1.134 v 1.554 q 0.714,-1.722 2.674,-1.722 z m 6.81801,5.11 q -0.546,2.52 -3.15,2.52 -1.596,0 -2.506,-0.994 -0.896,-0.994 -0.896,-2.758 0,-1.75 0.924,-2.828 0.938,-1.092 2.436,-1.092 1.666,0 2.464,1.134 0.812,1.12 0.812,2.842 v 0.168 h -5.432 l -0.014,0.084 q 0,1.148 0.602,1.806 0.602,0.658 1.652,0.658 0.784,0 1.232,-0.364 0.462,-0.364 0.714,-1.176 z m -1.148,-1.974 q -0.084,-1.036 -0.63,-1.61 -0.546,-0.588 -1.442,-0.588 -0.868,0 -1.442,0.588 -0.574,0.588 -0.686,1.61 z m 7.85401,-0.868 h -1.19 q -0.112,-1.316 -1.764,-1.316 -0.686,0 -1.078,0.266 -0.392,0.266 -0.392,0.714 0,0.126 0.028,0.252 0.028,0.112 0.098,0.21 0.084,0.084 0.14,0.154 0.07,0.07 0.21,0.14 0.154,0.056 0.224,0.098 0.084,0.042 0.28,0.098 0.21,0.042 0.294,0.07 0.084,0.014 0.322,0.07 0.252,0.056 0.322,0.07 0.518,0.112 0.77,0.182 0.266,0.07 0.714,0.266 0.462,0.182 0.7,0.392 0.238,0.196 0.42,0.56 0.196,0.35 0.196,0.798 0,1.05 -0.826,1.694 -0.812,0.63 -2.17,0.63 -1.47,0 -2.268,-0.644 -0.784,-0.644 -0.84,-1.862 h 1.176 q 0.098,1.526 1.96,1.526 0.798,0 1.274,-0.322 0.49,-0.336 0.49,-0.882 0,-0.364 -0.252,-0.602 -0.252,-0.238 -0.56,-0.336 -0.308,-0.112 -0.882,-0.252 -0.084,-0.014 -0.126,-0.028 -0.126,-0.028 -0.546,-0.112 -0.406,-0.098 -0.588,-0.154 -0.182,-0.056 -0.532,-0.168 -0.336,-0.126 -0.504,-0.252 -0.168,-0.14 -0.378,-0.336 -0.196,-0.21 -0.28,-0.476 -0.084,-0.28 -0.084,-0.63 0,-0.98 0.742,-1.554 0.756,-0.574 2.016,-0.574 1.274,0 2.072,0.602 0.812,0.602 0.812,1.708 z m 7,0 h -1.19 q -0.112,-1.316 -1.764,-1.316 -0.686,0 -1.078,0.266 -0.392,0.266 -0.392,0.714 0,0.126 0.028,0.252 0.028,0.112 0.098,0.21 0.084,0.084 0.14,0.154 0.07,0.07 0.21,0.14 0.154,0.056 0.224,0.098 0.084,0.042 0.28,0.098 0.21,0.042 0.294,0.07 0.084,0.014 0.322,0.07 0.252,0.056 0.322,0.07 0.518,0.112 0.77,0.182 0.266,0.07 0.714,0.266 0.462,0.182 0.7,0.392 0.238,0.196 0.42,0.56 0.196,0.35 0.196,0.798 0,1.05 -0.826,1.694 -0.812,0.63 -2.17,0.63 -1.47,0 -2.268,-0.644 -0.784,-0.644 -0.84,-1.862 h 1.176 q 0.098,1.526 1.96,1.526 0.798,0 1.274,-0.322 0.49,-0.336 0.49,-0.882 0,-0.364 -0.252,-0.602 -0.252,-0.238 -0.56,-0.336 -0.308,-0.112 -0.882,-0.252 -0.084,-0.014 -0.126,-0.028 -0.126,-0.028 -0.546,-0.112 -0.406,-0.098 -0.588,-0.154 -0.182,-0.056 -0.532,-0.168 -0.336,-0.126 -0.504,-0.252 -0.168,-0.14 -0.378,-0.336 -0.196,-0.21 -0.28,-0.476 -0.084,-0.28 -0.084,-0.63 0,-0.98 0.742,-1.554 0.756,-0.574 2.016,-0.574 1.274,0 2.072,0.602 0.812,0.602 0.812,1.708 z m 2.898,-4.844 v 1.456 h -1.204 v -1.456 z m 0,2.744 V 235 h -1.204 v -7.224 z m 2.422,0.826 q 0.952,-1.036 2.59,-1.036 1.638,0 2.548,0.994 0.91,0.994 0.91,2.786 0,1.834 -0.91,2.856 -0.91,1.022 -2.562,1.022 -1.652,0 -2.59,-1.008 -0.938,-1.008 -0.938,-2.8 0,-1.778 0.952,-2.814 z m 4.214,0.728 q -0.602,-0.77 -1.652,-0.77 -1.05,0 -1.666,0.77 -0.616,0.77 -0.616,2.058 0,1.33 0.602,2.086 0.616,0.742 1.708,0.742 1.05,0 1.638,-0.756 0.602,-0.756 0.602,-2.086 0,-1.288 -0.616,-2.044 z m 4.36799,-1.554 v 1.12 q 0.896,-1.316 2.464,-1.316 1.274,0 1.834,0.672 0.574,0.658 0.574,1.946 V 235 h -1.19 v -4.256 q 0,-0.532 -0.042,-0.826 -0.028,-0.308 -0.168,-0.644 -0.14,-0.35 -0.476,-0.504 -0.336,-0.154 -0.868,-0.154 -2.058,0 -2.058,2.604 V 235 h -1.19 v -7.224 z"
       id="text45"
       class="nonterminal"
       style="font-size:14px;font-family:HelveticaNeueCyr, Sans-serif;fill:#1a0000"
       aria-label="expression" />
  </a>
  <path
     id="rect46"
     style="fill:#330000;stroke:#330000;stroke-width:0.870601"
     d="m 305.14582,388.72357 h 43.53008 c 4.82313,0 8.70601,3.88288 8.70601,8.70601 v 10.44722 c 0,4.82313 -3.88288,8.70602 -8.70601,8.70602 h -43.53008 c -4.82313,0 -8.70601,-3.88289 -8.70601,-8.70602 v -10.44722 c 0,-4.82313 3.88288,-8.70601 8.70601,-8.70601 z" />
  <path
     id="rect47"
     class="terminal"
     style="fill:#ff4d4d;stroke:#330000;stroke-width:0.870601"
     d="m 303.40462,386.98237 h 43.53008 c 4.82313,0 8.70601,3.88288 8.70601,8.70601 v 10.44722 c 0,4.82313 -3.88288,8.70601 -8.70601,8.70601 h -43.53008 c -4.82313,0 -8.70601,-3.88288 -8.70601,-8.70601 v -10.44722 c 0,-4.82313 3.88288,-8.70601 8.70601,-8.70601 z" />
  <path
     d="m 303.44119,395.71624 h 1.91358 l 1.38948,5.8992 1.52355,-5.8992 h 1.7917 l 1.49918,5.97233 1.43823,-5.97233 h 1.87702 l -2.34018,8.67816 h -1.90139 l -1.48699,-5.92358 -1.46261,5.92358 h -1.93796 z m 19.65992,0 v 8.67816 h -1.90139 v -3.74185 h -3.54683 v 3.74185 h -1.9014 v -8.67816 h 1.9014 v 3.2665 h 3.54683 v -3.2665 z m 8.19061,0 v 1.56012 h -4.61941 v 1.8892 h 4.24157 v 1.49918 h -4.24157 v 2.13297 h 4.70473 v 1.59669 h -6.59394 v -8.67816 z m 1.46262,0 h 4.3147 q 1.29197,0 2.1086,0.60942 0.81662,0.60942 0.81662,1.85264 0,0.75568 -0.36565,1.32854 -0.36565,0.56067 -1.01164,0.80443 1.12133,0.23158 1.27978,2.02328 0,0.0609 0.0244,0.37784 0.0244,0.3169 0.0487,0.51192 0.0244,0.18282 0.0609,0.45097 0.0366,0.26814 0.10969,0.45097 0.0731,0.18283 0.17064,0.26815 h -1.97452 q -0.0975,-0.19502 -0.14626,-0.48754 -0.0488,-0.30471 -0.0853,-0.76787 -0.0366,-0.47535 -0.0366,-0.5241 -0.0975,-0.91414 -0.46316,-1.2676 -0.35346,-0.35346 -1.26759,-0.35346 h -1.6942 v 3.40057 h -1.8892 z m 1.8892,1.49918 v 2.40111 h 1.80389 q 0.79225,0 1.23103,-0.24376 0.45097,-0.25596 0.45097,-0.98727 0,-0.68255 -0.43878,-0.92632 -0.42659,-0.24376 -1.1579,-0.24376 z m 13.34633,-1.49918 v 1.56012 h -4.61942 v 1.8892 h 4.24157 v 1.49918 h -4.24157 v 2.13297 h 4.70473 v 1.59669 h -6.59393 v -8.67816 z"
     id="text47"
     class="terminal"
     style="font-weight:bold;font-size:14px;font-family:HelveticaNeueCyr, Sans-serif;fill:#140000;stroke-width:0.870601"
     aria-label="WHERE" />
  <a
     xlink:href="#expression"
     xlink:title="expression"
     id="a49"
     transform="matrix(0.8706015,0,0,0.8706015,-0.435301,-0.435301)">
    <path
       id="rect48"
       style="fill:#330000;stroke:#330000"
       d="m 431,447 h 90 v 32 h -90 z" />
    <path
       id="rect49"
       class="nonterminal"
       style="fill:#ff9e9e;stroke:#330000"
       d="m 429,445 h 90 v 32 h -90 z" />
    <path
       d="m 446.07,462.718 q -0.546,2.52 -3.15,2.52 -1.596,0 -2.506,-0.994 -0.896,-0.994 -0.896,-2.758 0,-1.75 0.924,-2.828 0.938,-1.092 2.436,-1.092 1.666,0 2.464,1.134 0.812,1.12 0.812,2.842 v 0.168 h -5.432 l -0.014,0.084 q 0,1.148 0.602,1.806 0.602,0.658 1.652,0.658 0.784,0 1.232,-0.364 0.462,-0.364 0.714,-1.176 z m -1.148,-1.974 q -0.084,-1.036 -0.63,-1.61 -0.546,-0.588 -1.442,-0.588 -0.868,0 -1.442,0.588 -0.574,0.588 -0.686,1.61 z m 8.42801,-2.968 -2.52,3.332 2.814,3.892 h -1.526 l -2.03,-2.968 -2.002,2.968 h -1.442 l 2.716,-3.808 -2.506,-3.416 h 1.512 l 1.75,2.478 1.792,-2.478 z m 2.43599,0 v 1.022 q 0.784,-1.246 2.436,-1.246 1.512,0 2.394,1.022 0.896,1.022 0.896,2.772 0,1.75 -0.882,2.8 -0.868,1.036 -2.352,1.036 -1.554,0 -2.422,-1.19 v 3.794 h -1.19 v -10.01 z m 2.254,0.77 q -1.036,0 -1.638,0.756 -0.588,0.742 -0.588,2.058 0,1.316 0.602,2.072 0.616,0.742 1.666,0.742 1.022,0 1.61,-0.756 0.588,-0.756 0.588,-2.058 0,-1.316 -0.602,-2.058 -0.588,-0.756 -1.638,-0.756 z m 8.69401,-0.938 v 1.232 q -0.126,-0.014 -0.308,-0.014 -0.574,0 -0.994,0.182 -0.42,0.168 -0.672,0.448 -0.238,0.28 -0.392,0.7 -0.154,0.42 -0.21,0.84 -0.042,0.42 -0.042,0.952 V 465 h -1.19 v -7.224 h 1.134 v 1.554 q 0.714,-1.722 2.674,-1.722 z m 6.81801,5.11 q -0.546,2.52 -3.15,2.52 -1.596,0 -2.506,-0.994 -0.896,-0.994 -0.896,-2.758 0,-1.75 0.924,-2.828 0.938,-1.092 2.436,-1.092 1.666,0 2.464,1.134 0.812,1.12 0.812,2.842 v 0.168 h -5.432 l -0.014,0.084 q 0,1.148 0.602,1.806 0.602,0.658 1.652,0.658 0.784,0 1.232,-0.364 0.462,-0.364 0.714,-1.176 z m -1.148,-1.974 q -0.084,-1.036 -0.63,-1.61 -0.546,-0.588 -1.442,-0.588 -0.868,0 -1.442,0.588 -0.574,0.588 -0.686,1.61 z m 7.85401,-0.868 h -1.19 q -0.112,-1.316 -1.764,-1.316 -0.686,0 -1.078,0.266 -0.392,0.266 -0.392,0.714 0,0.126 0.028,0.252 0.028,0.112 0.098,0.21 0.084,0.084 0.14,0.154 0.07,0.07 0.21,0.14 0.154,0.056 0.224,0.098 0.084,0.042 0.28,0.098 0.21,0.042 0.294,0.07 0.084,0.014 0.322,0.07 0.252,0.056 0.322,0.07 0.518,0.112 0.77,0.182 0.266,0.07 0.714,0.266 0.462,0.182 0.7,0.392 0.238,0.196 0.42,0.56 0.196,0.35 0.196,0.798 0,1.05 -0.826,1.694 -0.812,0.63 -2.17,0.63 -1.47,0 -2.268,-0.644 -0.784,-0.644 -0.84,-1.862 h 1.176 q 0.098,1.526 1.96,1.526 0.798,0 1.274,-0.322 0.49,-0.336 0.49,-0.882 0,-0.364 -0.252,-0.602 -0.252,-0.238 -0.56,-0.336 -0.308,-0.112 -0.882,-0.252 -0.084,-0.014 -0.126,-0.028 -0.126,-0.028 -0.546,-0.112 -0.406,-0.098 -0.588,-0.154 -0.182,-0.056 -0.532,-0.168 -0.336,-0.126 -0.504,-0.252 -0.168,-0.14 -0.378,-0.336 -0.196,-0.21 -0.28,-0.476 -0.084,-0.28 -0.084,-0.63 0,-0.98 0.742,-1.554 0.756,-0.574 2.016,-0.574 1.274,0 2.072,0.602 0.812,0.602 0.812,1.708 z m 7,0 h -1.19 q -0.112,-1.316 -1.764,-1.316 -0.686,0 -1.078,0.266 -0.392,0.266 -0.392,0.714 0,0.126 0.028,0.252 0.028,0.112 0.098,0.21 0.084,0.084 0.14,0.154 0.07,0.07 0.21,0.14 0.154,0.056 0.224,0.098 0.084,0.042 0.28,0.098 0.21,0.042 0.294,0.07 0.084,0.014 0.322,0.07 0.252,0.056 0.322,0.07 0.518,0.112 0.77,0.182 0.266,0.07 0.714,0.266 0.462,0.182 0.7,0.392 0.238,0.196 0.42,0.56 0.196,0.35 0.196,0.798 0,1.05 -0.826,1.694 -0.812,0.63 -2.17,0.63 -1.47,0 -2.268,-0.644 -0.784,-0.644 -0.84,-1.862 h 1.176 q 0.098,1.526 1.96,1.526 0.798,0 1.274,-0.322 0.49,-0.336 0.49,-0.882 0,-0.364 -0.252,-0.602 -0.252,-0.238 -0.56,-0.336 -0.308,-0.112 -0.882,-0.252 -0.084,-0.014 -0.126,-0.028 -0.126,-0.028 -0.546,-0.112 -0.406,-0.098 -0.588,-0.154 -0.182,-0.056 -0.532,-0.168 -0.336,-0.126 -0.504,-0.252 -0.168,-0.14 -0.378,-0.336 -0.196,-0.21 -0.28,-0.476 -0.084,-0.28 -0.084,-0.63 0,-0.98 0.742,-1.554 0.756,-0.574 2.016,-0.574 1.274,0 2.072,0.602 0.812,0.602 0.812,1.708 z m 2.898,-4.844 v 1.456 h -1.204 v -1.456 z m 0,2.744 V 465 h -1.204 v -7.224 z m 2.422,0.826 q 0.952,-1.036 2.59,-1.036 1.638,0 2.548,0.994 0.91,0.994 0.91,2.786 0,1.834 -0.91,2.856 -0.91,1.022 -2.562,1.022 -1.652,0 -2.59,-1.008 -0.938,-1.008 -0.938,-2.8 0,-1.778 0.952,-2.814 z m 4.214,0.728 q -0.602,-0.77 -1.652,-0.77 -1.05,0 -1.666,0.77 -0.616,0.77 -0.616,2.058 0,1.33 0.602,2.086 0.616,0.742 1.708,0.742 1.05,0 1.638,-0.756 0.602,-0.756 0.602,-2.086 0,-1.288 -0.616,-2.044 z m 4.36799,-1.554 v 1.12 q 0.896,-1.316 2.464,-1.316 1.274,0 1.834,0.672 0.574,0.658 0.574,1.946 V 465 h -1.19 v -4.256 q 0,-0.532 -0.042,-0.826 -0.028,-0.308 -0.168,-0.644 -0.14,-0.35 -0.476,-0.504 -0.336,-0.154 -0.868,-0.154 -2.058,0 -2.058,2.604 V 465 h -1.19 v -7.224 z"
       id="text49"
       class="nonterminal"
       style="font-size:14px;font-family:HelveticaNeueCyr, Sans-serif;fill:#1a0000"
       aria-label="expression" />
  </a>
  <path
     id="rect50"
     style="fill:#330000;stroke:#330000;stroke-width:0.870601"
     d="m 514.09018,360.86432 h 60.94211 c 4.82313,0 8.70601,3.88288 8.70601,8.70602 v 10.44721 c 0,4.82314 -3.88288,8.70602 -8.70601,8.70602 h -60.94211 c -4.82313,0 -8.70601,-3.88288 -8.70601,-8.70602 v -10.44721 c 0,-4.82314 3.88288,-8.70602 8.70601,-8.70602 z" />
  <path
     id="rect51"
     class="terminal"
     style="fill:#ff4d4d;stroke:#330000;stroke-width:0.870601"
     d="m 512.34898,359.12312 h 60.94211 c 4.82313,0 8.70601,3.88288 8.70601,8.70601 v 10.44722 c 0,4.82313 -3.88288,8.70602 -8.70601,8.70602 h -60.94211 c -4.82313,0 -8.70601,-3.88289 -8.70601,-8.70602 v -10.44722 c 0,-4.82313 3.88288,-8.70601 8.70601,-8.70601 z" />
  <path
     d="m 520.91744,371.84261 v 4.69254 h -1.20665 l -0.18283,-0.98726 q -0.97507,1.19446 -2.60832,1.19446 -1.81608,0 -2.9496,-1.25541 -1.13352,-1.2554 -1.13352,-3.25431 0,-2.01108 1.19446,-3.27868 1.19447,-1.27978 3.07149,-1.27978 1.48698,0 2.51081,0.841 1.02383,0.82881 1.19447,2.19391 h -1.84046 q -0.13407,-0.68255 -0.63379,-1.06039 -0.49973,-0.37784 -1.25541,-0.37784 -1.08477,0 -1.70638,0.79225 -0.62161,0.78005 -0.62161,2.16953 0,1.41386 0.62161,2.20611 0.6338,0.78006 1.76732,0.78006 0.88976,0 1.46261,-0.53629 0.57286,-0.54848 0.60942,-1.42605 h -1.93796 v -1.41385 z m 1.59669,-3.98562 h 4.3147 q 1.29198,0 2.1086,0.60942 0.81662,0.60942 0.81662,1.85264 0,0.75568 -0.36565,1.32854 -0.36565,0.56067 -1.01164,0.80444 1.12134,0.23158 1.27979,2.02327 0,0.0609 0.0244,0.37785 0.0244,0.31689 0.0488,0.51191 0.0244,0.18283 0.0609,0.45097 0.0366,0.26815 0.1097,0.45097 0.0731,0.18283 0.17063,0.26815 h -1.97452 q -0.0975,-0.19502 -0.14626,-0.48754 -0.0488,-0.30471 -0.0853,-0.76787 -0.0366,-0.47535 -0.0366,-0.5241 -0.0975,-0.91413 -0.46316,-1.2676 -0.35346,-0.35346 -1.26759,-0.35346 h -1.69419 v 3.40057 h -1.88921 z m 1.88921,1.49918 v 2.40112 h 1.80388 q 0.79225,0 1.23103,-0.24377 0.45098,-0.25596 0.45098,-0.98726 0,-0.68256 -0.43879,-0.92632 -0.42659,-0.24377 -1.1579,-0.24377 z m 10.76237,-1.70638 q 1.9014,0 3.07149,1.26759 1.18227,1.25541 1.18227,3.29088 0,2.03546 -1.18227,3.29087 -1.17009,1.24322 -3.08367,1.24322 -1.92578,0 -3.10805,-1.24322 -1.18228,-1.25541 -1.18228,-3.29087 0,-2.05985 1.17009,-3.30306 1.18228,-1.25541 3.13242,-1.25541 z m -0.0244,1.56012 q -1.07258,0 -1.71857,0.80443 -0.6338,0.80444 -0.6338,2.15735 0,1.40167 0.6338,2.19392 0.6338,0.79225 1.74294,0.80443 1.08477,0 1.70638,-0.80443 0.62161,-0.80444 0.62161,-2.19392 0,-1.3651 -0.6338,-2.15735 -0.63379,-0.80443 -1.71856,-0.80443 z m 12.96848,-1.35292 v 5.21665 q 0,1.86482 -0.90195,2.75458 -0.88975,0.87757 -2.79114,0.87757 -1.92578,0 -2.83991,-0.88976 -0.90194,-0.90194 -0.90194,-2.76677 v -5.19227 h 1.90139 v 5.19227 q 0,1.06039 0.40222,1.57231 0.40222,0.51191 1.46261,0.51191 1.02383,0 1.38948,-0.51191 0.37784,-0.51192 0.37784,-1.57231 v -5.19227 z m 1.65761,0 h 3.74185 q 1.46261,0 2.3158,0.70693 0.86538,0.69474 0.86538,2.08422 0,1.3651 -0.85319,2.07203 -0.85319,0.69474 -2.23048,0.69474 h -1.95015 v 3.12024 h -1.88921 z m 1.88921,1.56012 v 2.49863 h 1.69419 q 1.48699,0 1.48699,-1.24322 0,-1.25541 -1.4748,-1.25541 z m 9.60447,-1.56012 h 4.1075 q 1.21884,0 1.98671,0.54848 0.78006,0.53629 0.78006,1.63325 0,0.60942 -0.3169,1.08477 -0.31689,0.46316 -0.86537,0.70693 1.58449,0.45097 1.58449,2.12078 0,1.23103 -0.82881,1.91358 -0.82881,0.67037 -2.1086,0.67037 h -4.33908 z m 1.85264,1.4748 v 2.03547 h 1.73076 q 1.43823,0 1.43823,-1.01164 0,-0.59723 -0.39003,-0.80444 -0.39003,-0.21939 -1.0482,-0.21939 z m 0,3.32744 v 2.36455 h 1.91359 q 0.74349,0 1.17008,-0.24377 0.43879,-0.24376 0.43879,-0.9385 0,-0.70693 -0.46316,-0.93851 -0.45097,-0.24377 -1.24322,-0.24377 z m 14.13857,-4.80224 -3.22993,5.33853 v 3.33963 h -1.87702 v -3.3762 l -3.24212,-5.30196 h 2.16954 l 2.02328,3.4737 2.04766,-3.4737 z"
     id="text51"
     class="terminal"
     style="font-weight:bold;font-size:14px;font-family:HelveticaNeueCyr, Sans-serif;fill:#140000;stroke-width:0.870601"
     aria-label="GROUP BY" />
  <a
     xlink:href="#expression"
     xlink:title="expression"
     id="a53"
     transform="matrix(0.8706015,0,0,0.8706015,-0.435301,-0.435301)">
    <path
       id="rect52"
       style="fill:#330000;stroke:#330000"
       d="m 711,415 h 90 v 32 h -90 z" />
    <path
       id="rect53"
       class="nonterminal"
       style="fill:#ff9e9e;stroke:#330000"
       d="m 709,413 h 90 v 32 h -90 z" />
    <path
       d="m 726.07,430.718 q -0.546,2.52 -3.15,2.52 -1.596,0 -2.506,-0.994 -0.896,-0.994 -0.896,-2.758 0,-1.75 0.924,-2.828 0.938,-1.092 2.436,-1.092 1.666,0 2.464,1.134 0.812,1.12 0.812,2.842 v 0.168 h -5.432 l -0.014,0.084 q 0,1.148 0.602,1.806 0.602,0.658 1.652,0.658 0.784,0 1.232,-0.364 0.462,-0.364 0.714,-1.176 z m -1.148,-1.974 q -0.084,-1.036 -0.63,-1.61 -0.546,-0.588 -1.442,-0.588 -0.868,0 -1.442,0.588 -0.574,0.588 -0.686,1.61 z m 8.42801,-2.968 -2.52,3.332 2.814,3.892 h -1.526 l -2.03,-2.968 -2.002,2.968 h -1.442 l 2.716,-3.808 -2.506,-3.416 h 1.512 l 1.75,2.478 1.792,-2.478 z m 2.43599,0 v 1.022 q 0.784,-1.246 2.436,-1.246 1.512,0 2.394,1.022 0.896,1.022 0.896,2.772 0,1.75 -0.882,2.8 -0.868,1.036 -2.352,1.036 -1.554,0 -2.422,-1.19 v 3.794 h -1.19 v -10.01 z m 2.254,0.77 q -1.036,0 -1.638,0.756 -0.588,0.742 -0.588,2.058 0,1.316 0.602,2.072 0.616,0.742 1.666,0.742 1.022,0 1.61,-0.756 0.588,-0.756 0.588,-2.058 0,-1.316 -0.602,-2.058 -0.588,-0.756 -1.638,-0.756 z m 8.69401,-0.938 v 1.232 q -0.126,-0.014 -0.308,-0.014 -0.574,0 -0.994,0.182 -0.42,0.168 -0.672,0.448 -0.238,0.28 -0.392,0.7 -0.154,0.42 -0.21,0.84 -0.042,0.42 -0.042,0.952 V 433 h -1.19 v -7.224 h 1.134 v 1.554 q 0.714,-1.722 2.674,-1.722 z m 6.81801,5.11 q -0.546,2.52 -3.15,2.52 -1.596,0 -2.506,-0.994 -0.896,-0.994 -0.896,-2.758 0,-1.75 0.924,-2.828 0.938,-1.092 2.436,-1.092 1.666,0 2.464,1.134 0.812,1.12 0.812,2.842 v 0.168 h -5.432 l -0.014,0.084 q 0,1.148 0.602,1.806 0.602,0.658 1.652,0.658 0.784,0 1.232,-0.364 0.462,-0.364 0.714,-1.176 z m -1.148,-1.974 q -0.084,-1.036 -0.63,-1.61 -0.546,-0.588 -1.442,-0.588 -0.868,0 -1.442,0.588 -0.574,0.588 -0.686,1.61 z m 7.85401,-0.868 h -1.19 q -0.112,-1.316 -1.764,-1.316 -0.686,0 -1.078,0.266 -0.392,0.266 -0.392,0.714 0,0.126 0.028,0.252 0.028,0.112 0.098,0.21 0.084,0.084 0.14,0.154 0.07,0.07 0.21,0.14 0.154,0.056 0.224,0.098 0.084,0.042 0.28,0.098 0.21,0.042 0.294,0.07 0.084,0.014 0.322,0.07 0.252,0.056 0.322,0.07 0.518,0.112 0.77,0.182 0.266,0.07 0.714,0.266 0.462,0.182 0.7,0.392 0.238,0.196 0.42,0.56 0.196,0.35 0.196,0.798 0,1.05 -0.826,1.694 -0.812,0.63 -2.17,0.63 -1.47,0 -2.268,-0.644 -0.784,-0.644 -0.84,-1.862 h 1.176 q 0.098,1.526 1.96,1.526 0.798,0 1.274,-0.322 0.49,-0.336 0.49,-0.882 0,-0.364 -0.252,-0.602 -0.252,-0.238 -0.56,-0.336 -0.308,-0.112 -0.882,-0.252 -0.084,-0.014 -0.126,-0.028 -0.126,-0.028 -0.546,-0.112 -0.406,-0.098 -0.588,-0.154 -0.182,-0.056 -0.532,-0.168 -0.336,-0.126 -0.504,-0.252 -0.168,-0.14 -0.378,-0.336 -0.196,-0.21 -0.28,-0.476 -0.084,-0.28 -0.084,-0.63 0,-0.98 0.742,-1.554 0.756,-0.574 2.016,-0.574 1.274,0 2.072,0.602 0.812,0.602 0.812,1.708 z m 7,0 h -1.19 q -0.112,-1.316 -1.764,-1.316 -0.686,0 -1.078,0.266 -0.392,0.266 -0.392,0.714 0,0.126 0.028,0.252 0.028,0.112 0.098,0.21 0.084,0.084 0.14,0.154 0.07,0.07 0.21,0.14 0.154,0.056 0.224,0.098 0.084,0.042 0.28,0.098 0.21,0.042 0.294,0.07 0.084,0.014 0.322,0.07 0.252,0.056 0.322,0.07 0.518,0.112 0.77,0.182 0.266,0.07 0.714,0.266 0.462,0.182 0.7,0.392 0.238,0.196 0.42,0.56 0.196,0.35 0.196,0.798 0,1.05 -0.826,1.694 -0.812,0.63 -2.17,0.63 -1.47,0 -2.268,-0.644 -0.784,-0.644 -0.84,-1.862 h 1.176 q 0.098,1.526 1.96,1.526 0.798,0 1.274,-0.322 0.49,-0.336 0.49,-0.882 0,-0.364 -0.252,-0.602 -0.252,-0.238 -0.56,-0.336 -0.308,-0.112 -0.882,-0.252 -0.084,-0.014 -0.126,-0.028 -0.126,-0.028 -0.546,-0.112 -0.406,-0.098 -0.588,-0.154 -0.182,-0.056 -0.532,-0.168 -0.336,-0.126 -0.504,-0.252 -0.168,-0.14 -0.378,-0.336 -0.196,-0.21 -0.28,-0.476 -0.084,-0.28 -0.084,-0.63 0,-0.98 0.742,-1.554 0.756,-0.574 2.016,-0.574 1.274,0 2.072,0.602 0.812,0.602 0.812,1.708 z m 2.898,-4.844 v 1.456 h -1.204 v -1.456 z m 0,2.744 V 433 h -1.204 v -7.224 z m 2.422,0.826 q 0.952,-1.036 2.59,-1.036 1.638,0 2.548,0.994 0.91,0.994 0.91,2.786 0,1.834 -0.91,2.856 -0.91,1.022 -2.562,1.022 -1.652,0 -2.59,-1.008 -0.938,-1.008 -0.938,-2.8 0,-1.778 0.952,-2.814 z m 4.214,0.728 q -0.602,-0.77 -1.652,-0.77 -1.05,0 -1.666,0.77 -0.616,0.77 -0.616,2.058 0,1.33 0.602,2.086 0.616,0.742 1.708,0.742 1.05,0 1.638,-0.756 0.602,-0.756 0.602,-2.086 0,-1.288 -0.616,-2.044 z m 4.36799,-1.554 v 1.12 q 0.896,-1.316 2.464,-1.316 1.274,0 1.834,0.672 0.574,0.658 0.574,1.946 V 433 h -1.19 v -4.256 q 0,-0.532 -0.042,-0.826 -0.028,-0.308 -0.168,-0.644 -0.14,-0.35 -0.476,-0.504 -0.336,-0.154 -0.868,-0.154 -2.058,0 -2.058,2.604 V 433 h -1.19 v -7.224 z"
       id="text53"
       class="nonterminal"
       style="font-size:14px;font-family:HelveticaNeueCyr, Sans-serif;fill:#1a0000"
       aria-label="expression" />
  </a>
  <path
     id="rect54"
     style="fill:#330000;stroke:#330000;stroke-width:0.870601"
     d="m 627.26838,322.55785 h 3.4824 c 4.82314,0 8.70602,3.88289 8.70602,8.70602 v 10.44722 c 0,4.82313 -3.88288,8.70601 -8.70602,8.70601 h -3.4824 c -4.82313,0 -8.70602,-3.88288 -8.70602,-8.70601 v -10.44722 c 0,-4.82313 3.88289,-8.70602 8.70602,-8.70602 z" />
  <path
     id="rect55"
     class="terminal"
     style="fill:#ff4d4d;stroke:#330000;stroke-width:0.870601"
     d="m 625.52718,320.81665 h 3.4824 c 4.82313,0 8.70602,3.88288 8.70602,8.70602 v 10.44721 c 0,4.82314 -3.88289,8.70602 -8.70602,8.70602 h -3.4824 c -4.82314,0 -8.70602,-3.88288 -8.70602,-8.70602 v -10.44721 c 0,-4.82314 3.88288,-8.70602 8.70602,-8.70602 z" />
  <path
     d="m 628.18425,336.32729 v 1.54793 q 0,1.06039 -0.47535,1.63325 -0.46316,0.58504 -1.45042,0.74349 v -0.85319 q 0.81663,-0.24377 0.86538,-1.17009 h -0.86538 v -1.90139 z"
     id="text55"
     class="terminal"
     style="font-weight:bold;font-size:14px;font-family:HelveticaNeueCyr, Sans-serif;fill:#140000;stroke-width:0.870601"
     aria-label="," />
  <path
     class="line"
     d="m 14.364925,52.671391 h 1.741203 m 0,0 h 8.706015 m 60.942104,0 h 8.706015 m 17.412028,0 h 8.70602 m 43.53007,0 h 8.70602 m -78.354138,0 h 17.412028 m -0.8706,0 q -7.83541,0 -7.83541,-8.706015 V 23.07094 q 0,-8.706015 8.70601,-8.706015 m 60.94211,38.306466 h 17.41203 m -17.41203,0 q 8.70601,0 8.70601,-8.706015 V 23.07094 q 0,-8.706015 -8.70601,-8.706015 m -60.94211,0 h 8.70602 m 20.89443,0 h 8.70602 m 0,0 h 22.63564 m 17.41203,38.306466 h 8.70601 m 52.23609,0 h 8.70602 m 17.41203,0 h 8.70601 m 45.27128,0 h 8.70601 m 0,0 h 128.84903 m -208.94436,0 h 17.41203 m 191.53233,0 h 17.41203 m -226.35639,0 q 8.70601,0 8.70601,8.706015 m 208.94436,0 q 0,-8.706015 8.70602,-8.706015 m -217.65038,8.706015 v 20.894435 m 208.94436,0 V 61.377406 M 268.58056,82.271841 q 0,8.706015 8.70602,8.706015 m 191.53233,0 q 8.70601,0 8.70601,-8.706015 m -200.23834,8.706015 h 8.70601 m 22.63564,0 h 8.70602 m 17.41203,0 h 8.70601 m 57.4597,0 h 8.70601 m 0,0 h 1.74121 m -94.02496,0 h 17.41203 m 76.61293,0 h 17.41203 m -111.43699,0 q 8.70601,0 8.70601,8.706014 m 94.02496,0 q 0,-8.706014 8.70602,-8.706014 M 326.04026,99.68387 v 20.89444 m 94.02496,0 V 99.68387 m -94.02496,20.89444 q 0,8.70601 8.70602,8.70601 m 76.61293,0 q 8.70601,0 8.70601,-8.70601 m -85.31894,8.70601 h 8.70601 m 59.2009,0 h 8.70602 m 17.41203,-38.306464 h 8.70601 m 22.63564,0 h 8.70602 m 34.82406,-38.306465 h 8.70601 m 0,0 h 107.95459 m -134.07263,0 h 17.41203 m 116.6606,0 h 17.41203 m -151.48466,0 q 8.70601,0 8.70601,8.706015 m 134.07263,0 q 0,-8.706015 8.70602,-8.706015 m -142.77865,8.706015 v 10.447218 m 134.07263,0 V 61.377406 M 494.93695,71.824624 q 0,8.706014 8.70602,8.706014 m 116.6606,0 q 8.70601,0 8.70601,-8.706014 m -125.36661,8.706014 h 8.70601 m 33.08286,0 h 8.70601 m 0,0 h 8.70602 m 48.75368,0 h 8.70602 M 639.4568,52.671391 h 1.7412 m 1.74121,0 h 1.7412 m 1.7412,0 h 1.7412 M 0.4353005,172.8144 h 1.7412029 m 1.741203,0 h 1.741203 m 1.741203,0 h 1.741203 m 19.1532336,0 h 8.706015 m 0,0 H 726.51695 m -715.634431,0 h 17.41203 m 698.222401,0 h 17.41203 m -733.046461,0 q 8.706015,0 8.706015,8.70601 m 715.634426,0 q 0,-8.70601 8.70602,-8.70601 m -724.340446,8.70601 v 10.44722 m 715.634426,0 V 181.52041 M 19.588534,191.96763 q 0,8.70602 8.706015,8.70602 m 698.222401,0 q 8.70601,0 8.70601,-8.70602 m -689.516381,8.70602 h 8.706015 m 0,0 H 118.8371 m -90.542551,0 h 17.41203 m 73.130521,0 h 17.41203 m -107.954581,0 q 8.706015,0 8.706015,8.70601 m 90.542556,0 q 0,-8.70601 8.70601,-8.70601 m -99.248566,8.70601 v 10.44722 m 90.542556,0 v -10.44722 m -90.542556,10.44722 q 0,8.70601 8.706015,8.70601 m 73.130521,0 q 8.70602,0 8.70602,-8.70601 m -81.836541,8.70601 h 8.706015 m 55.718496,0 h 8.70601 m 17.41203,-27.85924 h 8.70602 m 47.01248,0 h 8.70602 m 17.41203,0 h 8.70601 m 45.27128,0 h 8.70601 m 0,0 H 409.618 m -208.94435,0 h 17.41203 m 191.53232,0 h 17.41203 m -226.35638,0 q 8.70601,0 8.70601,8.70601 m 208.94436,0 q 0,-8.70601 8.70601,-8.70601 m -217.65037,8.70601 v 20.89444 m 208.94436,0 V 209.37966 M 209.37966,230.2741 q 0,8.70601 8.70602,8.70601 m 191.53232,0 q 8.70602,0 8.70602,-8.70601 m -200.23834,8.70601 h 8.70601 m 22.63564,0 h 8.70601 m 17.41203,0 h 8.70602 m 57.4597,0 h 8.70601 m 0,0 h 1.74121 m -94.02497,0 h 17.41203 m 76.61294,0 h 17.41203 m -111.437,0 q 8.70602,0 8.70602,8.70602 m 94.02496,0 q 0,-8.70602 8.70602,-8.70602 m -102.73098,8.70602 v 20.89443 m 94.02496,0 v -20.89443 m -94.02496,20.89443 q 0,8.70602 8.70601,8.70602 m 76.61294,0 q 8.70601,0 8.70601,-8.70602 m -85.31895,8.70602 h 8.70602 m 59.2009,0 h 8.70602 m 17.41203,-38.30647 h 8.70601 m 22.63564,0 h 8.70601 m 34.82406,-38.30646 h 8.70602 m 0,0 h 107.95458 m -134.07263,0 h 17.41203 m 116.6606,0 h 17.41203 m -151.48466,0 q 8.70602,0 8.70602,8.70601 m 134.07263,0 q 0,-8.70601 8.70601,-8.70601 m -142.77864,8.70601 v 10.44722 m 134.07263,0 v -10.44722 m -134.07263,10.44722 q 0,8.70601 8.70601,8.70601 m 116.6606,0 q 8.70602,0 8.70602,-8.70601 m -125.36662,8.70601 h 8.70602 m 33.08286,0 h 8.70601 m 0,0 h 8.70602 m 48.75368,0 h 8.70601 m 17.41203,-27.85924 h 8.70602 m 34.82406,0 h 8.70601 m 0,0 h 8.70602 m 78.35413,0 h 8.70602 m 19.15323,-27.85925 h 1.74121 m 1.7412,0 h 1.7412 m 1.7412,0 h 1.74121 M 258.13334,373.05274 h 1.74121 m 1.7412,0 h 1.7412 m 1.74121,0 h 1.7412 m 19.15323,0 h 8.70602 m 0,0 h 165.41428 m -191.53233,0 h 17.41203 m 174.1203,0 h 17.41203 m -208.94436,0 q 8.70602,0 8.70602,8.70602 m 191.53233,0 q 0,-8.70602 8.70601,-8.70602 m -200.23834,8.70602 v 10.44721 m 191.53233,0 v -10.44721 m -191.53233,10.44721 q 0,8.70602 8.70601,8.70602 m 174.1203,0 q 8.70602,0 8.70602,-8.70602 m -182.82632,8.70602 h 8.70602 m 60.9421,0 h 8.70602 m 0,0 h 8.70601 m 78.35414,0 h 8.70601 m 34.82406,-27.85925 h 8.70602 m 78.35413,0 h 8.70602 m 17.41203,0 h 8.70601 m 78.35414,0 h 8.70601 m -113.17819,0 h 17.41203 m -0.87061,0 q -7.83541,0 -7.83541,-8.70601 v -20.89444 q 0,-8.70601 8.70602,-8.70601 m 95.76616,38.30646 h 17.41203 m -17.41203,0 q 8.70602,0 8.70602,-8.70601 v -20.89444 q 0,-8.70601 -8.70602,-8.70601 m -95.76616,0 h 8.70601 m 20.89444,0 h 8.70601 m 0,0 h 57.4597 m -226.35639,38.30646 h 17.41203 m 226.35639,0 h 17.41203 m -261.18045,0 q 8.70602,0 8.70602,8.70602 m 243.76842,0 q 0,-8.70602 8.70601,-8.70602 m -252.47443,8.70602 v 12.18842 m 243.76842,0 v -12.18842 m -243.76842,12.18842 q 0,8.70601 8.70601,8.70601 m 226.35639,0 q 8.70602,0 8.70602,-8.70601 m -235.06241,8.70601 h 8.70602 m 0,0 h 217.65037 m 20.02383,-29.60045 h -2.6118"
     id="path55" />
  <path
     id="polygon55"
     style="fill:#330000;stroke:#330000;stroke-width:0.870601"
     d="m 747.41139,373.05274 6.96481,-3.4824 v 6.96481 z" />
  <path
     id="polygon56"
     style="fill:#330000;stroke:#330000;stroke-width:0.870601"
     d="m 747.41139,373.05274 -6.96482,-3.4824 v 6.96481 z" />
</svg>
