<?xml version="1.0" encoding="UTF-8" standalone="no"?>
<svg
   width="1055"
   height="1039"
   viewBox="0 0 1055 1039"
   version="1.1"
   id="svg90"
   sodipodi:docname="select.svg"
   inkscape:version="1.3.2 (091e20ef0f, 2023-11-25)"
   xmlns:inkscape="http://www.inkscape.org/namespaces/inkscape"
   xmlns:sodipodi="http://sodipodi.sourceforge.net/DTD/sodipodi-0.dtd"
   xmlns:xlink="http://www.w3.org/1999/xlink"
   xmlns="http://www.w3.org/2000/svg"
   xmlns:svg="http://www.w3.org/2000/svg">
  <sodipodi:namedview
     id="namedview90"
     pagecolor="#ffffff"
     bordercolor="#666666"
     borderopacity="1.0"
     inkscape:showpageshadow="2"
     inkscape:pageopacity="0.0"
     inkscape:pagecheckerboard="0"
     inkscape:deskcolor="#d1d1d1"
     inkscape:zoom="1.3833824"
     inkscape:cx="612.26746"
     inkscape:cy="556.60678"
     inkscape:window-width="1858"
     inkscape:window-height="1014"
     inkscape:window-x="62"
     inkscape:window-y="29"
     inkscape:window-maximized="1"
     inkscape:current-layer="svg90" />
  <defs
     id="defs1">
    <style
       type="text/css"
       id="style1">@namespace &quot;http://www.w3.org/2000/svg&quot;;.line { fill: none; stroke: #330000; stroke-width: 1; }
.bold-line { stroke: #140000; shape-rendering: crispEdges; stroke-width: 2; }
.thin-line { stroke: #1F0000; shape-rendering: crispEdges }
.filled { fill: #330000; stroke: none; }
text.terminal { font-family: HelveticaNeueCyr, Sans-serif;                            font-size: 14px;                            fill: #140000;                            font-weight: bold; }
text.nonterminal { font-family: HelveticaNeueCyr, Sans-serif;                            font-size: 14px;                            fill: #1A0000;                            font-weight: normal; }
text.regexp { font-family: HelveticaNeueCyr, Sans-serif;                            font-size: 14px;                            fill: #1F0000;                            font-weight: normal; }
rect, circle, polygon { fill: #330000; stroke: #330000; }
rect.terminal { fill: #FF4D4D; stroke: #330000; stroke-width: 1; }
rect.nonterminal { fill: #FF9E9E; stroke: #330000; stroke-width: 1; }
rect.text { fill: none; stroke: none; }
polygon.regexp { fill: #FFC7C7; stroke: #330000; stroke-width: 1; }
</style>
  </defs>
  <polygon
     points="9 61 1 57 1 65"
     id="polygon1" />
  <polygon
     points="17 61 9 57 9 65"
     id="polygon2" />
  <rect
     x="31"
     y="47"
     width="70"
     height="32"
     rx="10"
     id="rect2" />
  <rect
     x="29"
     y="45"
     width="70"
     height="32"
     class="terminal"
     rx="10"
     id="rect3" />
  <text
     class="terminal"
     x="39"
     y="65"
     id="text3">SELECT</text>
  <rect
     x="141"
     y="79"
     width="86"
     height="32"
     rx="10"
     id="rect4" />
  <rect
     x="139"
     y="77"
     width="86"
     height="32"
     class="terminal"
     rx="10"
     id="rect5" />
  <text
     class="terminal"
     x="149"
     y="97"
     id="text5">DISTINCT</text>
  <a
     xlink:href="#projection"
     xlink:title="projection"
     id="a7">
    <rect
       x="287"
       y="47"
       width="84"
       height="32"
       id="rect6" />
    <rect
       x="285"
       y="45"
       width="84"
       height="32"
       class="nonterminal"
       id="rect7" />
    <text
       class="nonterminal"
       x="295"
       y="65"
       id="text7">projection</text>
  </a>
  <rect
     x="287"
     y="3"
     width="24"
     height="32"
     rx="10"
     id="rect8" />
  <rect
     x="285"
     y="1"
     width="24"
     height="32"
     class="terminal"
     rx="10"
     id="rect9" />
  <text
     class="terminal"
     x="295"
     y="21"
     id="text9">,</text>
  <rect
     x="411"
     y="47"
     width="60"
     height="32"
     rx="10"
     id="rect10" />
  <rect
     x="409"
     y="45"
     width="60"
     height="32"
     class="terminal"
     rx="10"
     id="rect11" />
  <text
     class="terminal"
     x="419"
     y="65"
     id="text11">FROM</text>
  <a
     xlink:href="../object"
     xlink:title="table"
     id="a13">
    <rect
       x="511"
       y="47"
       width="52"
       height="32"
       id="rect12" />
    <rect
       x="509"
       y="45"
       width="52"
       height="32"
       class="nonterminal"
       id="rect13" />
    <text
       class="nonterminal"
       x="519"
       y="65"
       id="text13">table</text>
  </a>
  <rect
     x="511"
     y="91"
     width="26"
     height="32"
     rx="10"
     id="rect14" />
  <rect
     x="509"
     y="89"
     width="26"
     height="32"
     class="terminal"
     rx="10"
     id="rect15" />
  <text
     class="terminal"
     x="519"
     y="109"
     id="text15">(</text>
  <a
     xlink:href="../select"
     xlink:title="select"
     id="a17">
    <rect
       x="577"
       y="91"
       width="58"
       height="32"
       id="rect16" />
    <rect
       x="575"
       y="89"
       width="58"
       height="32"
       class="nonterminal"
       id="rect17" />
    <text
       class="nonterminal"
       x="585"
       y="109"
       id="text17">select</text>
  </a>
  <a
     xlink:href="../values"
     xlink:title="values"
     id="a19">
    <rect
       x="577"
       y="135"
       width="60"
       height="32"
       id="rect18" />
    <rect
       x="575"
       y="133"
       width="60"
       height="32"
       class="nonterminal"
       id="rect19" />
    <text
       class="nonterminal"
       x="585"
       y="153"
       id="text19">values</text>
  </a>
  <rect
     x="677"
     y="91"
     width="26"
     height="32"
     rx="10"
     id="rect20" />
  <rect
     x="675"
     y="89"
     width="26"
     height="32"
     class="terminal"
     rx="10"
     id="rect21" />
  <text
     class="terminal"
     x="685"
     y="109"
     id="text21">)</text>
  <rect
     x="472"
     y="249"
     width="38"
     height="32"
     rx="10"
     id="rect22" />
  <rect
     x="470"
     y="247"
     width="38"
     height="32"
     class="terminal"
     rx="10"
     id="rect23" />
  <text
     class="terminal"
     x="480"
     y="267"
     id="text23">AS</text>
  <a
     xlink:href="../object"
     xlink:title="name"
     id="a25">
    <rect
       x="550"
       y="217"
       width="56"
       height="32"
       id="rect24" />
    <rect
       x="548"
       y="215"
       width="56"
       height="32"
       class="nonterminal"
       id="rect25" />
    <text
       class="nonterminal"
       x="558"
       y="235"
       id="text25">name</text>
  </a>
  <rect
     x="85"
     y="363"
     width="64"
     height="32"
     rx="10"
     id="rect26" />
  <rect
     x="83"
     y="361"
     width="64"
     height="32"
     class="terminal"
     rx="10"
     id="rect27" />
  <text
     class="terminal"
     x="93"
     y="381"
     id="text27">INNER</text>
  <rect
     x="85"
     y="407"
     width="52"
     height="32"
     rx="10"
     id="rect28" />
  <rect
     x="83"
     y="405"
     width="52"
     height="32"
     class="terminal"
     rx="10"
     id="rect29" />
  <text
     class="terminal"
     x="93"
     y="425"
     id="text29">LEFT</text>
  <rect
     x="177"
     y="439"
     width="66"
     height="32"
     rx="10"
     id="rect30" />
  <rect
     x="175"
     y="437"
     width="66"
     height="32"
     class="terminal"
     rx="10"
     id="rect31" />
  <text
     class="terminal"
     x="185"
     y="457"
     id="text31">OUTER</text>
  <rect
     x="303"
     y="331"
     width="54"
     height="32"
     rx="10"
     id="rect32" />
  <rect
     x="301"
     y="329"
     width="54"
     height="32"
     class="terminal"
     rx="10"
     id="rect33" />
  <text
     class="terminal"
     x="311"
     y="349"
     id="text33">JOIN</text>
  <a
     xlink:href="../object"
     xlink:title="table"
     id="a35">
    <rect
       x="397"
       y="331"
       width="52"
       height="32"
       id="rect34" />
    <rect
       x="395"
       y="329"
       width="52"
       height="32"
       class="nonterminal"
       id="rect35" />
    <text
       class="nonterminal"
       x="405"
       y="349"
       id="text35">table</text>
  </a>
  <rect
     x="397"
     y="375"
     width="26"
     height="32"
     rx="10"
     id="rect36" />
  <rect
     x="395"
     y="373"
     width="26"
     height="32"
     class="terminal"
     rx="10"
     id="rect37" />
  <text
     class="terminal"
     x="405"
     y="393"
     id="text37">(</text>
  <a
     xlink:href="../select"
     xlink:title="select"
     id="a39">
    <rect
       x="463"
       y="375"
       width="58"
       height="32"
       id="rect38" />
    <rect
       x="461"
       y="373"
       width="58"
       height="32"
       class="nonterminal"
       id="rect39" />
    <text
       class="nonterminal"
       x="471"
       y="393"
       id="text39">select</text>
  </a>
  <a
     xlink:href="../values"
     xlink:title="values"
     id="a41">
    <rect
       x="463"
       y="419"
       width="60"
       height="32"
       id="rect40" />
    <rect
       x="461"
       y="417"
       width="60"
       height="32"
       class="nonterminal"
       id="rect41" />
    <text
       class="nonterminal"
       x="471"
       y="437"
       id="text41">values</text>
  </a>
  <rect
     x="563"
     y="375"
     width="26"
     height="32"
     rx="10"
     id="rect42" />
  <rect
     x="561"
     y="373"
     width="26"
     height="32"
     class="terminal"
     rx="10"
     id="rect43" />
  <text
     class="terminal"
     x="571"
     y="393"
     id="text43">)</text>
  <rect
     x="669"
     y="395"
     width="38"
     height="32"
     rx="10"
     id="rect44" />
  <rect
     x="667"
     y="393"
     width="38"
     height="32"
     class="terminal"
     rx="10"
     id="rect45" />
  <text
     class="terminal"
     x="677"
     y="413"
     id="text45">AS</text>
  <a
     xlink:href="../object"
     xlink:title="name"
     id="a47">
    <rect
       x="747"
       y="363"
       width="56"
       height="32"
       id="rect46" />
    <rect
       x="745"
       y="361"
       width="56"
       height="32"
       class="nonterminal"
       id="rect47" />
    <text
       class="nonterminal"
       x="755"
       y="381"
       id="text47">name</text>
  </a>
  <rect
     x="843"
     y="331"
     width="40"
     height="32"
     rx="10"
     id="rect48" />
  <rect
     x="841"
     y="329"
     width="40"
     height="32"
     class="terminal"
     rx="10"
     id="rect49" />
  <text
     class="terminal"
     x="851"
     y="349"
     id="text49">ON</text>
  <a
     xlink:href="#expression"
     xlink:title="expression"
     id="a51">
    <rect
       x="903"
       y="331"
       width="90"
       height="32"
       id="rect50" />
    <rect
       x="901"
       y="329"
       width="90"
       height="32"
       class="nonterminal"
       id="rect51" />
    <text
       class="nonterminal"
       x="911"
       y="349"
       id="text51">expression</text>
  </a>
  <rect
     x="271"
     y="597"
     width="70"
     height="32"
     rx="10"
     id="rect52" />
  <rect
     x="269"
     y="595"
     width="70"
     height="32"
     class="terminal"
     rx="10"
     id="rect53" />
  <text
     class="terminal"
     x="279"
     y="615"
     id="text53">WHERE</text>
  <a
     xlink:href="#expression"
     xlink:title="expression"
     id="a55">
    <rect
       x="361"
       y="597"
       width="90"
       height="32"
       id="rect54" />
    <rect
       x="359"
       y="595"
       width="90"
       height="32"
       class="nonterminal"
       id="rect55" />
    <text
       class="nonterminal"
       x="369"
       y="615"
       id="text55">expression</text>
  </a>
  <rect
     x="511"
     y="565"
     width="68"
     height="32"
     rx="10"
     id="rect56" />
  <rect
     x="509"
     y="563"
     width="68"
     height="32"
     class="terminal"
     rx="10"
     id="rect57" />
  <text
     class="terminal"
     x="519"
     y="583"
     id="text57">GROUP</text>
  <rect
     x="599"
     y="565"
     width="38"
     height="32"
     rx="10"
     id="rect58" />
  <rect
     x="597"
     y="563"
     width="38"
     height="32"
     class="terminal"
     rx="10"
     id="rect59" />
  <text
     class="terminal"
     x="607"
     y="583"
     id="text59">BY</text>
  <a
     xlink:href="#expression"
     xlink:title="expression"
     id="a61">
    <rect
       x="677"
       y="565"
       width="90"
       height="32"
       id="rect60" />
    <rect
       x="675"
       y="563"
       width="90"
       height="32"
       class="nonterminal"
       id="rect61" />
    <text
       class="nonterminal"
       x="685"
       y="583"
       id="text61">expression</text>
  </a>
  <rect
     x="677"
     y="521"
     width="24"
     height="32"
     rx="10"
     id="rect62" />
  <rect
     x="675"
     y="519"
     width="24"
     height="32"
     class="terminal"
     rx="10"
     id="rect63" />
  <text
     class="terminal"
     x="685"
     y="539"
     id="text63">,</text>
  <rect
     x="211"
     y="739"
     width="74"
     height="32"
     rx="10"
     id="rect64" />
  <rect
     x="209"
     y="737"
     width="74"
     height="32"
     class="terminal"
     rx="10"
     id="rect65" />
  <text
     class="terminal"
     x="219"
     y="757"
     id="text65">HAVING</text>
  <a
     xlink:href="#expression"
     xlink:title="expression"
     id="a67">
    <rect
       x="305"
       y="739"
       width="90"
       height="32"
       id="rect66" />
    <rect
       x="303"
       y="737"
       width="90"
       height="32"
       class="nonterminal"
       id="rect67" />
    <text
       class="nonterminal"
       x="313"
       y="757"
       id="text67">expression</text>
  </a>
  <rect
     x="455"
     y="707"
     width="68"
     height="32"
     rx="10"
     id="rect68" />
  <rect
     x="453"
     y="705"
     width="68"
     height="32"
     class="terminal"
     rx="10"
     id="rect69" />
  <text
     class="terminal"
     x="463"
     y="725"
     id="text69">ORDER</text>
  <rect
     x="543"
     y="707"
     width="38"
     height="32"
     rx="10"
     id="rect70" />
  <rect
     x="541"
     y="705"
     width="38"
     height="32"
     class="terminal"
     rx="10"
     id="rect71" />
  <text
     class="terminal"
     x="551"
     y="725"
     id="text71">BY</text>
  <a
     xlink:href="#expression"
     xlink:title="expression"
     id="a73">
    <rect
       x="621"
       y="707"
       width="90"
       height="32"
       id="rect72" />
    <rect
       x="619"
       y="705"
       width="90"
       height="32"
       class="nonterminal"
       id="rect73" />
    <text
       class="nonterminal"
       x="629"
       y="725"
       id="text73">expression</text>
  </a>
  <rect
     x="751"
     y="739"
     width="46"
     height="32"
     rx="10"
     id="rect74" />
  <rect
     x="749"
     y="737"
     width="46"
     height="32"
     class="terminal"
     rx="10"
     id="rect75" />
  <text
     class="terminal"
     x="759"
     y="757"
     id="text75">ASC</text>
  <rect
     x="751"
     y="783"
     width="56"
     height="32"
     rx="10"
     id="rect76" />
  <rect
     x="749"
     y="781"
     width="56"
     height="32"
     class="terminal"
     rx="10"
     id="rect77" />
  <text
     class="terminal"
     x="759"
     y="801"
     id="text77">DESC</text>
  <rect
     x="621"
     y="663"
     width="24"
     height="32"
     rx="10"
     id="rect78" />
  <rect
     x="619"
     y="661"
     width="24"
     height="32"
     class="terminal"
     rx="10"
     id="rect79" />
  <text
     class="terminal"
     x="629"
     y="681"
     id="text79">,</text>
  <rect
     x="671"
     y="881"
     width="66"
     height="32"
     rx="10"
     id="rect80" />
  <rect
     x="669"
     y="879"
     width="66"
     height="32"
     class="terminal"
     rx="10"
     id="rect81" />
  <text
     class="terminal"
     x="679"
     y="899"
     id="text81">UNION</text>
  <rect
     x="777"
     y="913"
     width="44"
     height="32"
     rx="10"
     id="rect82" />
  <rect
     x="775"
     y="911"
     width="44"
     height="32"
     class="terminal"
     rx="10"
     id="rect83" />
  <text
     class="terminal"
     x="785"
     y="931"
     id="text83">ALL</text>
  <rect
     x="671"
     y="957"
     width="72"
     height="32"
     rx="10"
     id="rect84" />
  <rect
     x="669"
     y="955"
     width="72"
     height="32"
     class="terminal"
     rx="10"
     id="rect85" />
  <text
     class="terminal"
     x="679"
     y="975"
     id="text85">EXCEPT</text>
  <rect
     x="783"
     y="989"
     width="86"
     height="32"
     rx="10"
     id="rect86" />
  <rect
     x="781"
     y="987"
     width="86"
     height="32"
     class="terminal"
     rx="10"
     id="rect87" />
  <text
     class="terminal"
     x="791"
     y="1007"
     id="text87">DISTINCT</text>
  <a
     xlink:href="../select"
     xlink:title="select"
     id="a89">
    <rect
       x="929"
       y="881"
       width="58"
       height="32"
       id="rect88" />
    <rect
       x="927"
       y="879"
       width="58"
       height="32"
       class="nonterminal"
       id="rect89" />
    <text
       class="nonterminal"
       x="937"
       y="899"
       id="text89">select</text>
  </a>
  <path
     class="line"
     d="m17 61 h2 m0 0 h10 m70 0 h10 m20 0 h10 m0 0 h96 m-126 0 h20 m106 0 h20 m-146 0 q10 0 10 10 m126 0 q0 -10 10 -10 m-136 10 v12 m126 0 v-12 m-126 12 q0 10 10 10 m106 0 q10 0 10 -10 m-116 10 h10 m86 0 h10 m40 -32 h10 m84 0 h10 m-124 0 l20 0 m-1 0 q-9 0 -9 -10 l0 -24 q0 -10 10 -10 m104 44 l20 0 m-20 0 q10 0 10 -10 l0 -24 q0 -10 -10 -10 m-104 0 h10 m24 0 h10 m0 0 h60 m20 44 h10 m60 0 h10 m20 0 h10 m52 0 h10 m0 0 h140 m-232 0 h20 m212 0 h20 m-252 0 q10 0 10 10 m232 0 q0 -10 10 -10 m-242 10 v24 m232 0 v-24 m-232 24 q0 10 10 10 m212 0 q10 0 10 -10 m-222 10 h10 m26 0 h10 m20 0 h10 m58 0 h10 m0 0 h2 m-100 0 h20 m80 0 h20 m-120 0 q10 0 10 10 m100 0 q0 -10 10 -10 m-110 10 v24 m100 0 v-24 m-100 24 q0 10 10 10 m80 0 q10 0 10 -10 m-90 10 h10 m60 0 h10 m20 -44 h10 m26 0 h10 m22 -44 l2 0 m2 0 l2 0 m2 0 l2 0 m-335 138 l2 0 m2 0 l2 0 m2 0 l2 0 m22 0 h10 m0 0 h164 m-194 0 h20 m174 0 h20 m-214 0 q10 0 10 10 m194 0 q0 -10 10 -10 m-204 10 v12 m194 0 v-12 m-194 12 q0 10 10 10 m174 0 q10 0 10 -10 m-164 10 h10 m0 0 h48 m-78 0 h20 m58 0 h20 m-98 0 q10 0 10 10 m78 0 q0 -10 10 -10 m-88 10 v12 m78 0 v-12 m-78 12 q0 10 10 10 m58 0 q10 0 10 -10 m-68 10 h10 m38 0 h10 m20 -32 h10 m56 0 h10 m22 -32 l2 0 m2 0 l2 0 m2 0 l2 0 m-645 146 l2 0 m2 0 l2 0 m2 0 l2 0 m62 0 h10 m0 0 h188 m-218 0 h20 m198 0 h20 m-238 0 q10 0 10 10 m218 0 q0 -10 10 -10 m-228 10 v12 m218 0 v-12 m-218 12 q0 10 10 10 m198 0 q10 0 10 -10 m-208 10 h10 m64 0 h10 m0 0 h114 m-208 -10 v20 m218 0 v-20 m-218 20 v24 m218 0 v-24 m-218 24 q0 10 10 10 m198 0 q10 0 10 -10 m-208 10 h10 m52 0 h10 m20 0 h10 m0 0 h76 m-106 0 h20 m86 0 h20 m-126 0 q10 0 10 10 m106 0 q0 -10 10 -10 m-116 10 v12 m106 0 v-12 m-106 12 q0 10 10 10 m86 0 q10 0 10 -10 m-96 10 h10 m66 0 h10 m40 -108 h10 m54 0 h10 m20 0 h10 m52 0 h10 m0 0 h140 m-232 0 h20 m212 0 h20 m-252 0 q10 0 10 10 m232 0 q0 -10 10 -10 m-242 10 v24 m232 0 v-24 m-232 24 q0 10 10 10 m212 0 q10 0 10 -10 m-222 10 h10 m26 0 h10 m20 0 h10 m58 0 h10 m0 0 h2 m-100 0 h20 m80 0 h20 m-120 0 q10 0 10 10 m100 0 q0 -10 10 -10 m-110 10 v24 m100 0 v-24 m-100 24 q0 10 10 10 m80 0 q10 0 10 -10 m-90 10 h10 m60 0 h10 m20 -44 h10 m26 0 h10 m40 -44 h10 m0 0 h164 m-194 0 h20 m174 0 h20 m-214 0 q10 0 10 10 m194 0 q0 -10 10 -10 m-204 10 v12 m194 0 v-12 m-194 12 q0 10 10 10 m174 0 q10 0 10 -10 m-164 10 h10 m0 0 h48 m-78 0 h20 m58 0 h20 m-98 0 q10 0 10 10 m78 0 q0 -10 10 -10 m-88 10 v12 m78 0 v-12 m-78 12 q0 10 10 10 m58 0 q10 0 10 -10 m-68 10 h10 m38 0 h10 m20 -32 h10 m56 0 h10 m20 -32 h10 m40 0 h10 m0 0 h10 m90 0 h10 m-968 0 l20 0 m-1 0 q-9 0 -9 -10 l0 -12 q0 -10 10 -10 m948 32 l20 0 m-20 0 q10 0 10 -10 l0 -12 q0 -10 -10 -10 m-948 0 h10 m0 0 h938 m-988 32 h20 m988 0 h20 m-1028 0 q10 0 10 10 m1008 0 q0 -10 10 -10 m-1018 10 v122 m1008 0 v-122 m-1008 122 q0 10 10 10 m988 0 q10 0 10 -10 m-998 10 h10 m0 0 h978 m22 -142 l2 0 m2 0 l2 0 m2 0 l2 0 m-826 234 l2 0 m2 0 l2 0 m2 0 l2 0 m22 0 h10 m0 0 h190 m-220 0 h20 m200 0 h20 m-240 0 q10 0 10 10 m220 0 q0 -10 10 -10 m-230 10 v12 m220 0 v-12 m-220 12 q0 10 10 10 m200 0 q10 0 10 -10 m-210 10 h10 m70 0 h10 m0 0 h10 m90 0 h10 m40 -32 h10 m68 0 h10 m0 0 h10 m38 0 h10 m20 0 h10 m90 0 h10 m-130 0 l20 0 m-1 0 q-9 0 -9 -10 l0 -24 q0 -10 10 -10 m110 44 l20 0 m-20 0 q10 0 10 -10 l0 -24 q0 -10 -10 -10 m-110 0 h10 m24 0 h10 m0 0 h66 m-296 44 h20 m296 0 h20 m-336 0 q10 0 10 10 m316 0 q0 -10 10 -10 m-326 10 v14 m316 0 v-14 m-316 14 q0 10 10 10 m296 0 q10 0 10 -10 m-306 10 h10 m0 0 h286 m22 -34 l2 0 m2 0 l2 0 m2 0 l2 0 m-660 142 l2 0 m2 0 l2 0 m2 0 l2 0 m22 0 h10 m0 0 h194 m-224 0 h20 m204 0 h20 m-244 0 q10 0 10 10 m224 0 q0 -10 10 -10 m-234 10 v12 m224 0 v-12 m-224 12 q0 10 10 10 m204 0 q10 0 10 -10 m-214 10 h10 m74 0 h10 m0 0 h10 m90 0 h10 m40 -32 h10 m68 0 h10 m0 0 h10 m38 0 h10 m20 0 h10 m90 0 h10 m20 0 h10 m0 0 h66 m-96 0 h20 m76 0 h20 m-116 0 q10 0 10 10 m96 0 q0 -10 10 -10 m-106 10 v12 m96 0 v-12 m-96 12 q0 10 10 10 m76 0 q10 0 10 -10 m-86 10 h10 m46 0 h10 m0 0 h10 m-86 -10 v20 m96 0 v-20 m-96 20 v24 m96 0 v-24 m-96 24 q0 10 10 10 m76 0 q10 0 10 -10 m-86 10 h10 m56 0 h10 m-226 -76 l20 0 m-1 0 q-9 0 -9 -10 l0 -24 q0 -10 10 -10 m226 44 l20 0 m-20 0 q10 0 10 -10 l0 -24 q0 -10 -10 -10 m-226 0 h10 m24 0 h10 m0 0 h182 m-412 44 h20 m412 0 h20 m-452 0 q10 0 10 10 m432 0 q0 -10 10 -10 m-442 10 v90 m432 0 v-90 m-432 90 q0 10 10 10 m412 0 q10 0 10 -10 m-422 10 h10 m0 0 h402 m22 -110 l2 0 m2 0 l2 0 m2 0 l2 0 m-300 174 l2 0 m2 0 l2 0 m2 0 l2 0 m62 0 h10 m66 0 h10 m20 0 h10 m0 0 h54 m-84 0 h20 m64 0 h20 m-104 0 q10 0 10 10 m84 0 q0 -10 10 -10 m-94 10 v12 m84 0 v-12 m-84 12 q0 10 10 10 m64 0 q10 0 10 -10 m-74 10 h10 m44 0 h10 m20 -32 h48 m-258 0 h20 m238 0 h20 m-278 0 q10 0 10 10 m258 0 q0 -10 10 -10 m-268 10 v56 m258 0 v-56 m-258 56 q0 10 10 10 m238 0 q10 0 10 -10 m-248 10 h10 m72 0 h10 m20 0 h10 m0 0 h96 m-126 0 h20 m106 0 h20 m-146 0 q10 0 10 10 m126 0 q0 -10 10 -10 m-136 10 v12 m126 0 v-12 m-126 12 q0 10 10 10 m106 0 q10 0 10 -10 m-116 10 h10 m86 0 h10 m40 -108 h10 m58 0 h10 m-376 0 l20 0 m-1 0 q-9 0 -9 -10 l0 -12 q0 -10 10 -10 m356 32 l20 0 m-20 0 q10 0 10 -10 l0 -12 q0 -10 -10 -10 m-356 0 h10 m0 0 h346 m-396 32 h20 m396 0 h20 m-436 0 q10 0 10 10 m416 0 q0 -10 10 -10 m-426 10 v122 m416 0 v-122 m-416 122 q0 10 10 10 m396 0 q10 0 10 -10 m-406 10 h10 m0 0 h386 m23 -142 h-3"
     id="path89" />
  <polygon
     points="1045 895 1053 891 1053 899"
     id="polygon89" />
  <polygon
     points="1045 895 1037 891 1037 899"
     id="polygon90" />
</svg>
