<?xml version="1.0" encoding="UTF-8" standalone="no"?>
<svg
   width="171"
   height="213"
   version="1.1"
   id="svg12"
   sodipodi:docname="STATEMENT.svg"
   inkscape:version="1.3 (0e150ed6c4, 2023-07-21)"
   xmlns:inkscape="http://www.inkscape.org/namespaces/inkscape"
   xmlns:sodipodi="http://sodipodi.sourceforge.net/DTD/sodipodi-0.dtd"
   xmlns:xlink="http://www.w3.org/1999/xlink"
   xmlns="http://www.w3.org/2000/svg"
   xmlns:svg="http://www.w3.org/2000/svg">
  <sodipodi:namedview
     id="namedview12"
     pagecolor="#ffffff"
     bordercolor="#666666"
     borderopacity="1.0"
     inkscape:showpageshadow="2"
     inkscape:pageopacity="0.0"
     inkscape:pagecheckerboard="0"
     inkscape:deskcolor="#d1d1d1"
     inkscape:zoom="3.7887324"
     inkscape:cx="85.516729"
     inkscape:cy="106.5"
     inkscape:window-width="1854"
     inkscape:window-height="1011"
     inkscape:window-x="66"
     inkscape:window-y="32"
     inkscape:window-maximized="1"
     inkscape:current-layer="svg12" />
  <defs
     id="defs1">
    <style
       type="text/css"
       id="style1">@namespace &quot;http://www.w3.org/2000/svg&quot;;.line { fill: none; stroke: #330000; stroke-width: 1; }&#10;.bold-line { stroke: #140000; shape-rendering: crispEdges; stroke-width: 2; }&#10;.thin-line { stroke: #1F0000; shape-rendering: crispEdges }&#10;.filled { fill: #330000; stroke: none; }&#10;text.terminal { font-family: HelveticaNeueCyr, Sans-serif;                            font-size: 14px;                            fill: #140000;                            font-weight: bold; }&#10;text.nonterminal { font-family: HelveticaNeueCyr, Sans-serif;                            font-size: 14px;                            fill: #1A0000;                            font-weight: normal; }&#10;text.regexp { font-family: HelveticaNeueCyr, Sans-serif;                            font-size: 14px;                            fill: #1F0000;                            font-weight: normal; }&#10;rect, circle, polygon { fill: #330000; stroke: #330000; }&#10;rect.terminal { fill: #FF4D4D; stroke: #330000; stroke-width: 1; }&#10;rect.nonterminal { fill: #FF9E9E; stroke: #330000; stroke-width: 1; }&#10;rect.text { fill: none; stroke: none; }&#10;polygon.regexp { fill: #FFC7C7; stroke: #330000; stroke-width: 1; }&#10;</style>
  </defs>
  <path
     id="polygon1"
     style="fill:#330000;stroke:#330000"
     d="M 9,17 1,13 v 8 z" />
  <path
     id="polygon2"
     style="fill:#330000;stroke:#330000"
     d="M 17,17 9,13 v 8 z" />
  <a
     xlink:href="#explain"
     xlink:title="EXPLAIN"
     id="a3">
    <path
       id="rect2"
       style="fill:#330000;stroke:#330000"
       d="m 51,3 h 72 V 35 H 51 Z" />
    <path
       id="rect3"
       class="nonterminal"
       style="fill:#ff9e9e;stroke:#330000"
       d="m 49,1 h 72 V 33 H 49 Z" />
    <path
       d="m 67.008,11.032 v 1.148 h -5.586 v 3.122 h 5.222 v 1.106 h -5.222 v 3.444 h 5.656 V 21 h -6.972 v -9.968 z m 8.876001,0 -3.318,4.83 3.5,5.138 h -1.596 l -2.688,-4.102 -2.786,4.102 h -1.512 l 3.514,-5.138 -3.29,-4.83 h 1.582 l 2.506,3.836 2.59,-3.836 z m 1.386001,0 h 4.102 q 1.526,0 2.422,0.7 0.896,0.686 0.896,2.17 0,3.01 -3.402,3.01 h -2.702 V 21 h -1.316 z m 1.316,1.134 v 3.64 h 2.534 q 1.064,0 1.652,-0.392 0.602,-0.406 0.602,-1.428 0,-0.574 -0.196,-0.952 -0.182,-0.378 -0.546,-0.56 -0.364,-0.182 -0.756,-0.238 -0.392,-0.07 -0.938,-0.07 z m 14.32201,7.686 V 21 h -6.608 v -9.968 h 1.316 v 8.82 z m 5.347996,-8.82 3.892002,9.968 h -1.47 l -1.106002,-3.052 h -4.186 l -1.134,3.052 h -1.4 l 3.92,-9.968 z m 0.924,5.866 -1.694,-4.606 -1.722,4.606 z m 5.334012,-5.866 V 21 h -1.316 v -9.968 z m 2.19801,0 h 1.442 l 5.264,8.092 v -8.092 h 1.274 V 21 h -1.484 l -5.236,-7.994 V 21 h -1.26 z"
       id="text3"
       class="nonterminal"
       style="font-size:14px;font-family:HelveticaNeueCyr, Sans-serif;fill:#1a0000"
       aria-label="EXPLAIN" />
  </a>
  <a
     xlink:href="#ddl"
     xlink:title="DDL"
     id="a5">
    <path
       id="rect4"
       style="fill:#330000;stroke:#330000"
       d="M 51,47 H 95 V 79 H 51 Z" />
    <path
       id="rect5"
       class="nonterminal"
       style="fill:#ff9e9e;stroke:#330000"
       d="M 49,45 H 93 V 77 H 49 Z" />
    <path
       d="m 60.106,55.032 h 3.248 q 2.534,0 3.738,1.176 1.204,1.176 1.204,3.724 0,2.506 -1.12,3.794 Q 66.056,65 63.592,65 h -3.486 z m 1.316,1.134 v 7.7 h 2.002 q 1.876,0 2.716,-0.91 0.854,-0.924 0.854,-2.87 0,-2.044 -0.826,-2.982 -0.826,-0.938 -2.8,-0.938 z m 8.540007,-1.134 h 3.248 q 2.534,0 3.738,1.176 1.204,1.176 1.204,3.724 0,2.506 -1.12,3.794 -1.12,1.274 -3.584,1.274 h -3.486 z m 1.316,1.134 v 7.7 h 2.002 q 1.876,0 2.716,-0.91 0.854,-0.924 0.854,-2.87 0,-2.044 -0.826,-2.982 -0.826,-0.938 -2.8,-0.938 z m 15.162006,7.686 V 65 h -6.608 v -9.968 h 1.316 v 8.82 z"
       id="text5"
       class="nonterminal"
       style="font-size:14px;font-family:HelveticaNeueCyr, Sans-serif;fill:#1a0000"
       aria-label="DDL" />
  </a>
  <a
     xlink:href="#dml"
     xlink:title="DML"
     id="a7">
    <path
       id="rect6"
       style="fill:#330000;stroke:#330000"
       d="m 51,91 h 46 v 32 H 51 Z" />
    <path
       id="rect7"
       class="nonterminal"
       style="fill:#ff9e9e;stroke:#330000"
       d="m 49,89 h 46 v 32 H 49 Z" />
    <path
       d="m 60.106,99.032 h 3.248 q 2.534,0 3.738,1.176 1.204,1.176 1.204,3.724 0,2.506 -1.12,3.794 Q 66.056,109 63.592,109 h -3.486 z m 1.316,1.134 v 7.7 h 2.002 q 1.876,0 2.716,-0.91 0.854,-0.924 0.854,-2.87 0,-2.044 -0.826,-2.982 -0.826,-0.938 -2.8,-0.938 z m 8.554007,-1.134 h 1.82 l 3.206,8.442 3.094,-8.442 h 1.834 V 109 h -1.246 v -8.316 l -3.122,8.316 h -1.148 l -3.178,-8.316 V 109 h -1.26 z m 18.802004,8.82 V 109 h -6.608 v -9.968 h 1.316 v 8.82 z"
       id="text7"
       class="nonterminal"
       style="font-size:14px;font-family:HelveticaNeueCyr, Sans-serif;fill:#1a0000"
       aria-label="DML" />
  </a>
  <a
     xlink:href="#dql"
     xlink:title="DQL"
     id="a9">
    <path
       id="rect8"
       style="fill:#330000;stroke:#330000"
       d="m 51,135 h 46 v 32 H 51 Z" />
    <path
       id="rect9"
       class="nonterminal"
       style="fill:#ff9e9e;stroke:#330000"
       d="m 49,133 h 46 v 32 H 49 Z" />
    <path
       d="m 60.106,143.032 h 3.248 q 2.534,0 3.738,1.176 1.204,1.176 1.204,3.724 0,2.506 -1.12,3.794 Q 66.056,153 63.592,153 h -3.486 z m 1.316,1.134 v 7.7 h 2.002 q 1.876,0 2.716,-0.91 0.854,-0.924 0.854,-2.87 0,-2.044 -0.826,-2.982 -0.826,-0.938 -2.8,-0.938 z m 17.360007,8.862 -0.686,0.826 -1.512,-1.218 q -1.036,0.602 -2.436,0.602 -2.24,0 -3.5,-1.512 -1.246,-1.512 -1.246,-3.822 0,-2.31 1.302,-3.696 1.302,-1.4 3.472,-1.4 2.212,0 3.486,1.386 1.288,1.372 1.288,3.78 0,2.59 -1.484,4.004 z m -3.612,-2.884 1.316,1.078 q 1.148,-1.148 1.148,-3.22 0,-1.834 -0.938,-2.94 -0.938,-1.12 -2.492,-1.12 -1.666,0 -2.576,1.162 -0.91,1.148 -0.91,2.856 0,1.778 0.882,2.968 0.896,1.19 2.632,1.19 0.798,0 1.358,-0.28 l -1.12,-0.882 z m 12.054003,1.708 V 153 h -6.608 v -9.968 h 1.316 v 8.82 z"
       id="text9"
       class="nonterminal"
       style="font-size:14px;font-family:HelveticaNeueCyr, Sans-serif;fill:#1a0000"
       aria-label="DQL" />
  </a>
  <a
     xlink:href="#acl"
     xlink:title="ACL"
     id="a11">
    <path
       id="rect10"
       style="fill:#330000;stroke:#330000"
       d="m 51,179 h 44 v 32 H 51 Z" />
    <path
       id="rect11"
       class="nonterminal"
       style="fill:#ff9e9e;stroke:#330000"
       d="m 49,177 h 44 v 32 H 49 Z" />
    <path
       d="M 64.292,187.032 68.184,197 h -1.47 l -1.106,-3.052 H 61.422 L 60.288,197 h -1.4 l 3.92,-9.968 z m 0.924,5.866 -1.694,-4.606 -1.722,4.606 z m 12.40401,0.336 q -0.168,1.89 -1.316,2.954 -1.134,1.05 -2.996,1.05 -2.128,0 -3.374,-1.4 -1.246,-1.414 -1.246,-3.808 0,-2.24 1.246,-3.724 1.26,-1.498 3.472,-1.498 1.582,0 2.786,0.854 1.204,0.854 1.344,2.366 h -1.316 q -0.224,-0.98 -0.98,-1.526 -0.756,-0.56 -1.862,-0.56 -1.666,0 -2.52,1.176 -0.84,1.176 -0.84,2.898 0,1.904 0.896,2.996 0.896,1.092 2.45,1.092 1.274,0 2.03,-0.728 0.756,-0.742 0.91,-2.142 z m 8.288002,2.618 V 197 h -6.608 v -9.968 h 1.316 v 8.82 z"
       id="text11"
       class="nonterminal"
       style="font-size:14px;font-family:HelveticaNeueCyr, Sans-serif;fill:#1a0000"
       aria-label="ACL" />
  </a>
  <path
     class="line"
     d="m17 17 h2 m20 0 h10 m72 0 h10 m-112 0 h20 m92 0 h20 m-132 0 q10 0 10 10 m112 0 q0 -10 10 -10 m-122 10 v24 m112 0 v-24 m-112 24 q0 10 10 10 m92 0 q10 0 10 -10 m-102 10 h10 m44 0 h10 m0 0 h28 m-102 -10 v20 m112 0 v-20 m-112 20 v24 m112 0 v-24 m-112 24 q0 10 10 10 m92 0 q10 0 10 -10 m-102 10 h10 m46 0 h10 m0 0 h26 m-102 -10 v20 m112 0 v-20 m-112 20 v24 m112 0 v-24 m-112 24 q0 10 10 10 m92 0 q10 0 10 -10 m-102 10 h10 m46 0 h10 m0 0 h26 m-102 -10 v20 m112 0 v-20 m-112 20 v24 m112 0 v-24 m-112 24 q0 10 10 10 m92 0 q10 0 10 -10 m-102 10 h10 m44 0 h10 m0 0 h28 m23 -176 h-3"
     id="path11" />
  <path
     id="polygon11"
     style="fill:#330000;stroke:#330000"
     d="m 161,17 8,-4 v 8 z" />
  <path
     id="polygon12"
     style="fill:#330000;stroke:#330000"
     d="m 161,17 -8,-4 v 8 z" />
</svg>
