<?xml version="1.0" encoding="UTF-8"?>
<svg xmlns="http://www.w3.org/2000/svg" width="395" height="37" viewBox="0 0 395 37">
   <defs>
      <style type="text/css">
    @namespace "http://www.w3.org/2000/svg";
    .line                 {fill: none; stroke: #330000; stroke-width: 1;}
    .bold-line            {stroke: #140000; shape-rendering: crispEdges; stroke-width: 2;}
    .thin-line            {stroke: #1F0000; shape-rendering: crispEdges}
    .filled               {fill: #330000; stroke: none;}
    text.terminal         {font-family: Verdana, Sans-serif;
                            font-size: 12px;
                            fill: #140000;
                            font-weight: bold;
                          }
    text.nonterminal      {font-family: Verdana, Sans-serif;
                            font-size: 12px;
                            fill: #1A0000;
                            font-weight: normal;
                          }
    text.regexp           {font-family: Verdana, Sans-serif;
                            font-size: 12px;
                            fill: #1F0000;
                            font-weight: normal;
                          }
    rect, circle, polygon {fill: #330000; stroke: #330000;}
    rect.terminal         {fill: #FF4D4D; stroke: #330000; stroke-width: 1;}
    rect.nonterminal      {fill: #FF9E9E; stroke: #330000; stroke-width: 1;}
    rect.text             {fill: none; stroke: none;}
    polygon.regexp        {fill: #FFC7C7; stroke: #330000; stroke-width: 1;}
  </style>
   </defs>
   <polygon points="9 17 1 13 1 21"/>
   <polygon points="17 17 9 13 9 21"/>
   <rect x="31" y="3" width="100" height="32" rx="10"/>
   <rect x="29"
         y="1"
         width="100"
         height="32"
         class="terminal"
         rx="10"/>
   <text class="terminal" x="39" y="21">SUBSTRING</text>
   <rect x="151" y="3" width="26" height="32" rx="10"/>
   <rect x="149"
         y="1"
         width="26"
         height="32"
         class="terminal"
         rx="10"/>
   <text class="terminal" x="159" y="21">(</text>
   <a xmlns:xlink="http://www.w3.org/1999/xlink"
      xlink:href="#substringVariant"
      xlink:title="substringVariant">
      <rect x="197" y="3" width="124" height="32"/>
      <rect x="195" y="1" width="124" height="32" class="nonterminal"/>
      <text class="nonterminal" x="205" y="21">substringVariant</text>
   </a>
   <rect x="341" y="3" width="26" height="32" rx="10"/>
   <rect x="339"
         y="1"
         width="26"
         height="32"
         class="terminal"
         rx="10"/>
   <text class="terminal" x="349" y="21">)</text>
   <path class="line"
         d="m17 17 h2 m0 0 h10 m100 0 h10 m0 0 h10 m26 0 h10 m0 0 h10 m124 0 h10 m0 0 h10 m26 0 h10 m3 0 h-3"/>
   <polygon points="385 17 393 13 393 21"/>
   <polygon points="385 17 377 13 377 21"/>
</svg>
