<?xml version="1.0" encoding="UTF-8" standalone="no"?>
<svg
   width="571"
   height="69"
   version="1.1"
   viewBox="0 0 571 69"
   id="svg18"
   sodipodi:docname="substr.svg"
   inkscape:version="1.3.2 (091e20ef0f, 2023-11-25)"
   xmlns:inkscape="http://www.inkscape.org/namespaces/inkscape"
   xmlns:sodipodi="http://sodipodi.sourceforge.net/DTD/sodipodi-0.dtd"
   xmlns:xlink="http://www.w3.org/1999/xlink"
   xmlns="http://www.w3.org/2000/svg"
   xmlns:svg="http://www.w3.org/2000/svg">
  <sodipodi:namedview
     id="namedview18"
     pagecolor="#ffffff"
     bordercolor="#666666"
     borderopacity="1.0"
     inkscape:showpageshadow="2"
     inkscape:pageopacity="0.0"
     inkscape:pagecheckerboard="0"
     inkscape:deskcolor="#d1d1d1"
     inkscape:zoom="1.2779933"
     inkscape:cx="176.44849"
     inkscape:cy="-16.432011"
     inkscape:window-width="1858"
     inkscape:window-height="1014"
     inkscape:window-x="62"
     inkscape:window-y="29"
     inkscape:window-maximized="1"
     inkscape:current-layer="svg18" />
  <defs
     id="defs1">
    <style
       type="text/css"
       id="style1">@namespace &quot;http://www.w3.org/2000/svg&quot;;.line { fill: none; stroke: #330000; stroke-width: 1; }
.bold-line { stroke: #140000; shape-rendering: crispEdges; stroke-width: 2; }
.thin-line { stroke: #1F0000; shape-rendering: crispEdges }
.filled { fill: #330000; stroke: none; }
text.terminal { font-family: Verdana, Sans-serif;                            font-size: 12px;                            fill: #140000;                            font-weight: bold; }
text.nonterminal { font-family: Verdana, Sans-serif;                            font-size: 12px;                            fill: #1A0000;                            font-weight: normal; }
text.regexp { font-family: Verdana, Sans-serif;                            font-size: 12px;                            fill: #1F0000;                            font-weight: normal; }
rect, circle, polygon { fill: #330000; stroke: #330000; }
rect.terminal { fill: #FF4D4D; stroke: #330000; stroke-width: 1; }
rect.nonterminal { fill: #FF9E9E; stroke: #330000; stroke-width: 1; }
rect.text { fill: none; stroke: none; }
polygon.regexp { fill: #FFC7C7; stroke: #330000; stroke-width: 1; }
</style>
  </defs>
  <polygon
     points="9 17 1 13 1 21"
     id="polygon1" />
  <polygon
     points="17 17 9 13 9 21"
     id="polygon2" />
  <rect
     x="31"
     y="3"
     width="74"
     height="32"
     rx="10"
     id="rect2" />
  <rect
     x="29"
     y="1"
     width="74"
     height="32"
     class="terminal"
     rx="10"
     id="rect3" />
  <text
     class="terminal"
     x="39"
     y="21"
     id="text3">SUBSTR</text>
  <rect
     x="125"
     y="3"
     width="26"
     height="32"
     rx="10"
     id="rect4" />
  <rect
     x="123"
     y="1"
     width="26"
     height="32"
     class="terminal"
     rx="10"
     id="rect5" />
  <text
     class="terminal"
     x="133"
     y="21"
     id="text5">(</text>
  <a
     xlink:href="../../sql_types#text"
     xlink:title="string"
     id="a7">
    <rect
       x="171"
       y="3"
       width="56"
       height="32"
       id="rect6" />
    <rect
       x="169"
       y="1"
       width="56"
       height="32"
       class="nonterminal"
       id="rect7" />
    <text
       class="nonterminal"
       x="179"
       y="21"
       id="text7">string</text>
  </a>
  <rect
     x="247"
     y="3"
     width="24"
     height="32"
     rx="10"
     id="rect8" />
  <rect
     x="245"
     y="1"
     width="24"
     height="32"
     class="terminal"
     rx="10"
     id="rect9" />
  <text
     class="terminal"
     x="255"
     y="21"
     id="text9">,</text>
  <a
     xlink:href="../../sql_types#integer"
     xlink:title="from"
     id="a11">
    <rect
       x="291"
       y="3"
       width="48"
       height="32"
       id="rect10" />
    <rect
       x="289"
       y="1"
       width="48"
       height="32"
       class="nonterminal"
       id="rect11" />
    <text
       class="nonterminal"
       x="299"
       y="21"
       id="text11">from</text>
  </a>
  <rect
     x="379"
     y="35"
     width="24"
     height="32"
     rx="10"
     id="rect12" />
  <rect
     x="377"
     y="33"
     width="24"
     height="32"
     class="terminal"
     rx="10"
     id="rect13" />
  <text
     class="terminal"
     x="387"
     y="53"
     id="text13">,</text>
  <a
     xlink:href="../../sql_types#integer"
     xlink:title="count"
     id="a15">
    <rect
       x="423"
       y="35"
       width="54"
       height="32"
       id="rect14" />
    <rect
       x="421"
       y="33"
       width="54"
       height="32"
       class="nonterminal"
       id="rect15" />
    <text
       class="nonterminal"
       x="431"
       y="53"
       id="text15">count</text>
  </a>
  <rect
     x="517"
     y="3"
     width="26"
     height="32"
     rx="10"
     id="rect16" />
  <rect
     x="515"
     y="1"
     width="26"
     height="32"
     class="terminal"
     rx="10"
     id="rect17" />
  <text
     class="terminal"
     x="525"
     y="21"
     id="text17">)</text>
  <path
     class="line"
     d="m17 17 h2 m0 0 h10 m74 0 h10 m0 0 h10 m26 0 h10 m0 0 h10 m56 0 h10 m0 0 h10 m24 0 h10 m0 0 h10 m48 0 h10 m20 0 h10 m0 0 h108 m-138 0 h20 m118 0 h20 m-158 0 q10 0 10 10 m138 0 q0 -10 10 -10 m-148 10 v12 m138 0 v-12 m-138 12 q0 10 10 10 m118 0 q10 0 10 -10 m-128 10 h10 m24 0 h10 m0 0 h10 m54 0 h10 m20 -32 h10 m26 0 h10 m3 0 h-3"
     id="path17" />
  <polygon
     points="561 17 569 13 569 21"
     id="polygon17" />
  <polygon
     points="561 17 553 13 553 21"
     id="polygon18" />
</svg>
