<?xml version="1.0" encoding="UTF-8" standalone="no"?>
<svg
   width="397"
   height="641"
   viewBox="0 0 397 641"
   version="1.1"
   id="svg36"
   sodipodi:docname="type.svg"
   inkscape:version="1.3.2 (091e20ef0f, 2023-11-25)"
   xmlns:inkscape="http://www.inkscape.org/namespaces/inkscape"
   xmlns:sodipodi="http://sodipodi.sourceforge.net/DTD/sodipodi-0.dtd"
   xmlns:xlink="http://www.w3.org/1999/xlink"
   xmlns="http://www.w3.org/2000/svg"
   xmlns:svg="http://www.w3.org/2000/svg">
  <sodipodi:namedview
     id="namedview36"
     pagecolor="#ffffff"
     bordercolor="#666666"
     borderopacity="1.0"
     inkscape:showpageshadow="2"
     inkscape:pageopacity="0.0"
     inkscape:pagecheckerboard="0"
     inkscape:deskcolor="#d1d1d1"
     inkscape:zoom="1.2589704"
     inkscape:cx="198.17782"
     inkscape:cy="320.5"
     inkscape:window-width="1854"
     inkscape:window-height="1011"
     inkscape:window-x="66"
     inkscape:window-y="32"
     inkscape:window-maximized="1"
     inkscape:current-layer="svg36" />
  <defs
     id="defs1">
    <style
       type="text/css"
       id="style1">@namespace &quot;http://www.w3.org/2000/svg&quot;;.line { fill: none; stroke: #330000; stroke-width: 1; }
.bold-line { stroke: #140000; shape-rendering: crispEdges; stroke-width: 2; }
.thin-line { stroke: #1F0000; shape-rendering: crispEdges }
.filled { fill: #330000; stroke: none; }
text.terminal { font-family: Verdana, Sans-serif;                            font-size: 12px;                            fill: #140000;                            font-weight: bold; }
text.nonterminal { font-family: Verdana, Sans-serif;                            font-size: 12px;                            fill: #1A0000;                            font-weight: normal; }
text.regexp { font-family: Verdana, Sans-serif;                            font-size: 12px;                            fill: #1F0000;                            font-weight: normal; }
rect, circle, polygon { fill: #330000; stroke: #330000; }
rect.terminal { fill: #FF4D4D; stroke: #330000; stroke-width: 1; }
rect.nonterminal { fill: #FF9E9E; stroke: #330000; stroke-width: 1; }
rect.text { fill: none; stroke: none; }
polygon.regexp { fill: #FFC7C7; stroke: #330000; stroke-width: 1; }
</style>
  </defs>
  <polygon
     points="9 17 1 13 1 21"
     id="polygon1" />
  <polygon
     points="17 17 9 13 9 21"
     id="polygon2" />
  <rect
     x="51"
     y="3"
     width="58"
     height="32"
     rx="10"
     id="rect2" />
  <rect
     x="49"
     y="1"
     width="58"
     height="32"
     class="terminal"
     rx="10"
     id="rect3" />
  <text
     class="terminal"
     x="59"
     y="21"
     id="text3">BOOL</text>
  <rect
     x="51"
     y="47"
     width="86"
     height="32"
     rx="10"
     id="rect4" />
  <rect
     x="49"
     y="45"
     width="86"
     height="32"
     class="terminal"
     rx="10"
     id="rect5" />
  <text
     class="terminal"
     x="59"
     y="65"
     id="text5">BOOLEAN</text>
  <rect
     x="51"
     y="91"
     width="90"
     height="32"
     rx="10"
     id="rect6" />
  <rect
     x="49"
     y="89"
     width="90"
     height="32"
     class="terminal"
     rx="10"
     id="rect7" />
  <text
     class="terminal"
     x="59"
     y="109"
     id="text7">DATETIME</text>
  <rect
     x="51"
     y="135"
     width="82"
     height="32"
     rx="10"
     id="rect8" />
  <rect
     x="49"
     y="133"
     width="82"
     height="32"
     class="terminal"
     rx="10"
     id="rect9" />
  <text
     class="terminal"
     x="59"
     y="153"
     id="text9">DECIMAL</text>
  <rect
     x="51"
     y="179"
     width="76"
     height="32"
     rx="10"
     id="rect10" />
  <rect
     x="49"
     y="177"
     width="76"
     height="32"
     class="terminal"
     rx="10"
     id="rect11" />
  <text
     class="terminal"
     x="59"
     y="197"
     id="text11">DOUBLE</text>
  <rect
     x="51"
     y="223"
     width="44"
     height="32"
     rx="10"
     id="rect12" />
  <rect
     x="49"
     y="221"
     width="44"
     height="32"
     class="terminal"
     rx="10"
     id="rect13" />
  <text
     class="terminal"
     x="59"
     y="241"
     id="text13">INT</text>
  <rect
     x="51"
     y="267"
     width="80"
     height="32"
     rx="10"
     id="rect14" />
  <rect
     x="49"
     y="265"
     width="80"
     height="32"
     class="terminal"
     rx="10"
     id="rect15" />
  <text
     class="terminal"
     x="59"
     y="285"
     id="text15">INTEGER</text>
  <rect
     x="51"
     y="311"
     width="78"
     height="32"
     rx="10"
     id="rect16" />
  <rect
     x="49"
     y="309"
     width="78"
     height="32"
     class="terminal"
     rx="10"
     id="rect17" />
  <text
     class="terminal"
     x="59"
     y="329"
     id="text17">NUMBER</text>
  <rect
     x="51"
     y="355"
     width="74"
     height="32"
     rx="10"
     id="rect18" />
  <rect
     x="49"
     y="353"
     width="74"
     height="32"
     class="terminal"
     rx="10"
     id="rect19" />
  <text
     class="terminal"
     x="59"
     y="373"
     id="text19">SCALAR</text>
  <rect
     x="51"
     y="399"
     width="72"
     height="32"
     rx="10"
     id="rect20" />
  <rect
     x="49"
     y="397"
     width="72"
     height="32"
     class="terminal"
     rx="10"
     id="rect21" />
  <text
     class="terminal"
     x="59"
     y="417"
     id="text21">STRING</text>
  <rect
     x="51"
     y="443"
     width="54"
     height="32"
     rx="10"
     id="rect22" />
  <rect
     x="49"
     y="441"
     width="54"
     height="32"
     class="terminal"
     rx="10"
     id="rect23" />
  <text
     class="terminal"
     x="59"
     y="461"
     id="text23">TEXT</text>
  <rect
     x="51"
     y="487"
     width="92"
     height="32"
     rx="10"
     id="rect24" />
  <rect
     x="49"
     y="485"
     width="92"
     height="32"
     class="terminal"
     rx="10"
     id="rect25" />
  <text
     class="terminal"
     x="59"
     y="505"
     id="text25">UNSIGNED</text>
  <rect
     x="51"
     y="531"
     width="56"
     height="32"
     rx="10"
     id="rect26" />
  <rect
     x="49"
     y="529"
     width="56"
     height="32"
     class="terminal"
     rx="10"
     id="rect27" />
  <text
     class="terminal"
     x="59"
     y="549"
     id="text27">UUID</text>
  <rect
     x="51"
     y="575"
     width="86"
     height="32"
     rx="10"
     id="rect28" />
  <rect
     x="49"
     y="573"
     width="86"
     height="32"
     class="terminal"
     rx="10"
     id="rect29" />
  <text
     class="terminal"
     x="59"
     y="593"
     id="text29">VARCHAR</text>
  <rect
     x="177"
     y="607"
     width="26"
     height="32"
     rx="10"
     id="rect30" />
  <rect
     x="175"
     y="605"
     width="26"
     height="32"
     class="terminal"
     rx="10"
     id="rect31" />
  <text
     class="terminal"
     x="185"
     y="625"
     id="text31">(</text>
  <a
     xlink:href="../../sql_types#unsigned"
     xlink:title="length"
     id="a33">
    <rect
       x="223"
       y="607"
       width="60"
       height="32"
       id="rect32" />
    <rect
       x="221"
       y="605"
       width="60"
       height="32"
       class="nonterminal"
       id="rect33" />
    <text
       class="nonterminal"
       x="231"
       y="625"
       id="text33">length</text>
  </a>
  <rect
     x="303"
     y="607"
     width="26"
     height="32"
     rx="10"
     id="rect34" />
  <rect
     x="301"
     y="605"
     width="26"
     height="32"
     class="terminal"
     rx="10"
     id="rect35" />
  <text
     class="terminal"
     x="311"
     y="625"
     id="text35">)</text>
  <path
     class="line"
     d="m17 17 h2 m20 0 h10 m58 0 h10 m0 0 h240 m-338 0 h20 m318 0 h20 m-358 0 q10 0 10 10 m338 0 q0 -10 10 -10 m-348 10 v24 m338 0 v-24 m-338 24 q0 10 10 10 m318 0 q10 0 10 -10 m-328 10 h10 m86 0 h10 m0 0 h212 m-328 -10 v20 m338 0 v-20 m-338 20 v24 m338 0 v-24 m-338 24 q0 10 10 10 m318 0 q10 0 10 -10 m-328 10 h10 m90 0 h10 m0 0 h208 m-328 -10 v20 m338 0 v-20 m-338 20 v24 m338 0 v-24 m-338 24 q0 10 10 10 m318 0 q10 0 10 -10 m-328 10 h10 m82 0 h10 m0 0 h216 m-328 -10 v20 m338 0 v-20 m-338 20 v24 m338 0 v-24 m-338 24 q0 10 10 10 m318 0 q10 0 10 -10 m-328 10 h10 m76 0 h10 m0 0 h222 m-328 -10 v20 m338 0 v-20 m-338 20 v24 m338 0 v-24 m-338 24 q0 10 10 10 m318 0 q10 0 10 -10 m-328 10 h10 m44 0 h10 m0 0 h254 m-328 -10 v20 m338 0 v-20 m-338 20 v24 m338 0 v-24 m-338 24 q0 10 10 10 m318 0 q10 0 10 -10 m-328 10 h10 m80 0 h10 m0 0 h218 m-328 -10 v20 m338 0 v-20 m-338 20 v24 m338 0 v-24 m-338 24 q0 10 10 10 m318 0 q10 0 10 -10 m-328 10 h10 m78 0 h10 m0 0 h220 m-328 -10 v20 m338 0 v-20 m-338 20 v24 m338 0 v-24 m-338 24 q0 10 10 10 m318 0 q10 0 10 -10 m-328 10 h10 m74 0 h10 m0 0 h224 m-328 -10 v20 m338 0 v-20 m-338 20 v24 m338 0 v-24 m-338 24 q0 10 10 10 m318 0 q10 0 10 -10 m-328 10 h10 m72 0 h10 m0 0 h226 m-328 -10 v20 m338 0 v-20 m-338 20 v24 m338 0 v-24 m-338 24 q0 10 10 10 m318 0 q10 0 10 -10 m-328 10 h10 m54 0 h10 m0 0 h244 m-328 -10 v20 m338 0 v-20 m-338 20 v24 m338 0 v-24 m-338 24 q0 10 10 10 m318 0 q10 0 10 -10 m-328 10 h10 m92 0 h10 m0 0 h206 m-328 -10 v20 m338 0 v-20 m-338 20 v24 m338 0 v-24 m-338 24 q0 10 10 10 m318 0 q10 0 10 -10 m-328 10 h10 m56 0 h10 m0 0 h242 m-328 -10 v20 m338 0 v-20 m-338 20 v24 m338 0 v-24 m-338 24 q0 10 10 10 m318 0 q10 0 10 -10 m-328 10 h10 m86 0 h10 m20 0 h10 m0 0 h162 m-192 0 h20 m172 0 h20 m-212 0 q10 0 10 10 m192 0 q0 -10 10 -10 m-202 10 v12 m192 0 v-12 m-192 12 q0 10 10 10 m172 0 q10 0 10 -10 m-182 10 h10 m26 0 h10 m0 0 h10 m60 0 h10 m0 0 h10 m26 0 h10 m43 -604 h-3"
     id="path35" />
  <polygon
     points="387 17 395 13 395 21"
     id="polygon35" />
  <polygon
     points="387 17 379 13 379 21"
     id="polygon36" />
</svg>
