<?xml version="1.0" encoding="UTF-8" standalone="no"?>
<svg
   width="397"
   height="597"
   version="1.1"
   id="svg34"
   sodipodi:docname="type.svg"
   inkscape:version="1.3.1 (91b66b0783, 2023-11-16)"
   xmlns:inkscape="http://www.inkscape.org/namespaces/inkscape"
   xmlns:sodipodi="http://sodipodi.sourceforge.net/DTD/sodipodi-0.dtd"
   xmlns:xlink="http://www.w3.org/1999/xlink"
   xmlns="http://www.w3.org/2000/svg"
   xmlns:svg="http://www.w3.org/2000/svg">
  <sodipodi:namedview
     id="namedview34"
     pagecolor="#ffffff"
     bordercolor="#000000"
     borderopacity="0.25"
     inkscape:showpageshadow="2"
     inkscape:pageopacity="0.0"
     inkscape:pagecheckerboard="0"
     inkscape:deskcolor="#d1d1d1"
     inkscape:zoom="1.4321608"
     inkscape:cx="198.65088"
     inkscape:cy="298.5"
     inkscape:window-width="1920"
     inkscape:window-height="1032"
     inkscape:window-x="0"
     inkscape:window-y="25"
     inkscape:window-maximized="1"
     inkscape:current-layer="svg34" />
  <defs
     id="defs1">
    <style
       type="text/css"
       id="style1">
    @namespace &quot;http://www.w3.org/2000/svg&quot;;
    .line                 {fill: none; stroke: #320000; stroke-width: 1;}
    .bold-line            {stroke: #FFE0E0; shape-rendering: crispEdges; stroke-width: 2;}
    .thin-line            {stroke: #1F0000; shape-rendering: crispEdges}
    .filled               {fill: #320000; stroke: none;}
    text.terminal         {font-family: HelveticaNeueCyr, Sans-serif;
                            font-size: 14px;
                            fill: #FFE0E0;
                            font-weight: bold;
                          }
    text.nonterminal      {font-family: HelveticaNeueCyr, Sans-serif;
                            font-size: 14px;
                            fill: #FFE0E0;
                            font-weight: normal;
                          }
    text.regexp           {font-family: HelveticaNeueCyr, Sans-serif;
                            font-size: 14px;
                            fill: #1F0000;
                            font-weight: normal;
                          }
    rect, circle, polygon {fill: #320000; stroke: #320000;}
    rect.terminal         {fill: #FF0000; stroke: #320000; stroke-width: 1;}
    rect.nonterminal      {fill: #FF3F3F; stroke: #320000; stroke-width: 1;}
    rect.text             {fill: none; stroke: none;}
    polygon.regexp        {fill: #FF5E5E; stroke: #320000; stroke-width: 1;}
  </style>
  </defs>
  <path
     id="polygon1"
     style="fill:#320000;stroke:#320000"
     d="M 9,17 1,13 v 8 z" />
  <path
     id="polygon2"
     style="fill:#320000;stroke:#320000"
     d="M 17,17 9,13 v 8 z" />
  <path
     id="rect2"
     style="fill:#320000;stroke:#320000"
     d="m 61,3 h 28 c 5.54,0 10,4.46 10,10 v 12 c 0,5.54 -4.46,10 -10,10 H 61 C 55.46,35 51,30.54 51,25 V 13 C 51,7.46 55.46,3 61,3 Z" />
  <path
     id="rect3"
     class="terminal"
     style="fill:#ff0000;stroke:#320000"
     d="m 59,1 h 28 c 5.54,0 10,4.46 10,10 v 12 c 0,5.54 -4.46,10 -10,10 H 59 C 53.46,33 49,28.54 49,23 V 11 C 49,5.46 53.46,1 59,1 Z" />
  <path
     d="M 64.922,11.018 H 62.668 L 58.874,21 h 2.24 l 0.812,-2.226 h 3.71 L 66.42,21 h 2.296 z m 0.182,6.16 h -2.646 l 1.33,-3.71 z M 69.555993,21 h 2.114 v -6.692 l 4.13,6.692 h 2.184 v -9.968 h -2.1 v 6.678 l -4.102,-6.678 h -2.226 z m 18.871989,-9.968 h -2.422 l -2.352,3.99 -2.324,-3.99 h -2.492 l 3.724,6.09 V 21 h 2.156 v -3.836 z"
     id="text3"
     class="terminal"
     style="font-weight:bold;font-size:14px;font-family:HelveticaNeueCyr, Sans-serif;fill:#ffe0e0"
     aria-label="ANY" />
  <path
     id="rect4"
     style="fill:#320000;stroke:#320000"
     d="m 61,47 h 38 c 5.54,0 10,4.46 10,10 v 12 c 0,5.54 -4.46,10 -10,10 H 61 C 55.46,79 51,74.54 51,69 V 57 c 0,-5.54 4.46,-10 10,-10 z" />
  <path
     id="rect5"
     class="terminal"
     style="fill:#ff0000;stroke:#320000"
     d="m 59,45 h 38 c 5.54,0 10,4.46 10,10 v 12 c 0,5.54 -4.46,10 -10,10 H 59 C 53.46,77 49,72.54 49,67 V 55 c 0,-5.54 4.46,-10 10,-10 z" />
  <path
     d="M 59.952,55.032 V 65 h 4.984 c 1.876,0 3.374,-1.022 3.374,-2.968 0,-1.386 -0.784,-2.142 -1.82,-2.436 0.812,-0.364 1.358,-1.092 1.358,-2.058 0,-1.764 -1.428,-2.506 -3.178,-2.506 z m 2.128,1.694 h 1.988 c 0.84,0 1.652,0.168 1.652,1.176 0,1.008 -0.854,1.162 -1.652,1.162 H 62.08 Z m 0,3.822 h 2.086 c 0.98,0 1.96,0.154 1.96,1.358 0,1.176 -0.91,1.358 -1.848,1.358 H 62.08 Z m 12.250007,-5.754 c -2.982,0 -4.942,2.072 -4.942,5.236 0,3.122 1.974,5.208 4.928,5.208 2.926,0 4.9,-2.1 4.9,-5.208 0,-3.122 -1.974,-5.236 -4.886,-5.236 z m -0.028,1.792 c 1.666,0 2.702,1.302 2.702,3.402 0,2.128 -1.022,3.444 -2.674,3.444 -1.694,-0.014 -2.73,-1.302 -2.73,-3.444 0,-2.072 1.05,-3.402 2.702,-3.402 z m 10.919998,-1.792 c -2.982,0 -4.942,2.072 -4.942,5.236 0,3.122 1.974,5.208 4.928,5.208 2.926,0 4.9,-2.1 4.9,-5.208 0,-3.122 -1.974,-5.236 -4.886,-5.236 z m -0.028,1.792 c 1.666,0 2.702,1.302 2.702,3.402 0,2.128 -1.022,3.444 -2.674,3.444 -1.694,-0.014 -2.73,-1.302 -2.73,-3.444 0,-2.072 1.05,-3.402 2.702,-3.402 z m 13.467998,6.538 h -4.872 v -8.092 h -2.184 V 65 h 7.056 z"
     id="text5"
     class="terminal"
     style="font-weight:bold;font-size:14px;font-family:HelveticaNeueCyr, Sans-serif;fill:#ffe0e0"
     aria-label="BOOL" />
  <path
     id="rect6"
     style="fill:#320000;stroke:#320000"
     d="m 61,91 h 66 c 5.54,0 10,4.46 10,10 v 12 c 0,5.54 -4.46,10 -10,10 H 61 c -5.54,0 -10,-4.46 -10,-10 v -12 c 0,-5.54 4.46,-10 10,-10 z" />
  <path
     id="rect7"
     class="terminal"
     style="fill:#ff0000;stroke:#320000"
     d="m 59,89 h 66 c 5.54,0 10,4.46 10,10 v 12 c 0,5.54 -4.46,10 -10,10 H 59 c -5.54,0 -10,-4.46 -10,-10 V 99 c 0,-5.54 4.46,-10 10,-10 z" />
  <path
     d="M 59.952,99.032 V 109 h 4.984 c 1.876,0 3.374,-1.022 3.374,-2.968 0,-1.386 -0.784,-2.142 -1.82,-2.436 0.812,-0.364 1.358,-1.092 1.358,-2.058 0,-1.764 -1.428,-2.506 -3.178,-2.506 z m 2.128,1.694 h 1.988 c 0.84,0 1.652,0.168 1.652,1.176 0,1.008 -0.854,1.162 -1.652,1.162 H 62.08 Z m 0,3.822 h 2.086 c 0.98,0 1.96,0.154 1.96,1.358 0,1.176 -0.91,1.358 -1.848,1.358 H 62.08 Z m 12.250007,-5.754 c -2.982,0 -4.942,2.072 -4.942,5.236 0,3.122 1.974,5.208 4.928,5.208 2.926,0 4.9,-2.1 4.9,-5.208 0,-3.122 -1.974,-5.236 -4.886,-5.236 z m -0.028,1.792 c 1.666,0 2.702,1.302 2.702,3.402 0,2.128 -1.022,3.444 -2.674,3.444 -1.694,-0.014 -2.73,-1.302 -2.73,-3.444 0,-2.072 1.05,-3.402 2.702,-3.402 z m 10.919998,-1.792 c -2.982,0 -4.942,2.072 -4.942,5.236 0,3.122 1.974,5.208 4.928,5.208 2.926,0 4.9,-2.1 4.9,-5.208 0,-3.122 -1.974,-5.236 -4.886,-5.236 z m -0.028,1.792 c 1.666,0 2.702,1.302 2.702,3.402 0,2.128 -1.022,3.444 -2.674,3.444 -1.694,-0.014 -2.73,-1.302 -2.73,-3.444 0,-2.072 1.05,-3.402 2.702,-3.402 z m 13.467998,6.538 h -4.872 v -8.092 h -2.184 V 109 h 7.056 z m 8.722007,-8.092 H 99.908009 V 109 h 7.574001 v -1.834 h -5.404 v -2.45 h 4.872 v -1.722 h -4.872 v -2.17 h 5.306 z m 6.55201,-0.014 h -2.254 l -3.794,9.982 h 2.24 l 0.812,-2.226 h 3.71 l 0.784,2.226 h 2.296 z m 0.182,6.16 h -2.646 l 1.33,-3.71 z m 4.45199,3.822 h 2.114 v -6.692 l 4.13,6.692 h 2.184 v -9.968 h -2.1 v 6.678 l -4.102,-6.678 h -2.226 z"
     id="text7"
     class="terminal"
     style="font-weight:bold;font-size:14px;font-family:HelveticaNeueCyr, Sans-serif;fill:#ffe0e0"
     aria-label="BOOLEAN" />
  <path
     id="rect8"
     style="fill:#320000;stroke:#320000"
     d="m 61,135 h 62 c 5.54,0 10,4.46 10,10 v 12 c 0,5.54 -4.46,10 -10,10 H 61 c -5.54,0 -10,-4.46 -10,-10 v -12 c 0,-5.54 4.46,-10 10,-10 z" />
  <path
     id="rect9"
     class="terminal"
     style="fill:#ff0000;stroke:#320000"
     d="m 59,133 h 62 c 5.54,0 10,4.46 10,10 v 12 c 0,5.54 -4.46,10 -10,10 H 59 c -5.54,0 -10,-4.46 -10,-10 v -12 c 0,-5.54 4.46,-10 10,-10 z" />
  <path
     d="m 59.98,153 h 4.032 c 3.094,0 4.83,-1.778 4.83,-4.984 0,-3.22 -1.736,-4.984 -4.83,-4.984 H 59.98 Z m 2.17,-1.82 v -6.328 h 1.596 c 1.974,0 2.898,1.162 2.898,3.164 0,2.002 -0.896,3.164 -2.898,3.164 z m 15.665989,-8.148 h -7.476 V 153 h 7.574 v -1.834 h -5.404 v -2.45 h 4.872 v -1.722 h -4.872 v -2.17 h 5.306 z m 10.50001,6.118 h -2.17 c -0.182,1.456 -0.966,2.24 -2.282,2.24 -1.61,0 -2.632,-1.316 -2.632,-3.374 0,-1.666 0.742,-3.388 2.66,-3.388 1.176,0 1.988,0.644 2.212,1.736 h 2.142 c -0.168,-2.058 -1.918,-3.57 -4.312,-3.57 -3.052,0 -4.9,2.31 -4.9,5.208 0,3.15 1.918,5.236 4.816,5.236 2.73,0 4.242,-1.652 4.466,-4.088 z m 3.667989,-6.118 h -2.198 V 153 h 2.198 z M 93.915989,153 h 2.086 v -7.014 l 2.478,7.014 h 1.694001 l 2.45,-7.084 V 153 h 2.058 v -9.968 h -3.052 l -2.268001,6.846 -2.324,-6.846 h -3.122 z m 17.653991,-9.982 h -2.254 l -3.794,9.982 h 2.24 l 0.812,-2.226 h 3.71 l 0.784,2.226 h 2.296 z m 0.182,6.16 h -2.646 l 1.33,-3.71 z m 11.508,1.946 h -4.872 v -8.092 h -2.184 V 153 h 7.056 z"
     id="text9"
     class="terminal"
     style="font-weight:bold;font-size:14px;font-family:HelveticaNeueCyr, Sans-serif;fill:#ffe0e0"
     aria-label="DECIMAL" />
  <path
     id="rect10"
     style="fill:#320000;stroke:#320000"
     d="m 61,179 h 56 c 5.54,0 10,4.46 10,10 v 12 c 0,5.54 -4.46,10 -10,10 H 61 c -5.54,0 -10,-4.46 -10,-10 v -12 c 0,-5.54 4.46,-10 10,-10 z" />
  <path
     id="rect11"
     class="terminal"
     style="fill:#ff0000;stroke:#320000"
     d="m 59,177 h 56 c 5.54,0 10,4.46 10,10 v 12 c 0,5.54 -4.46,10 -10,10 H 59 c -5.54,0 -10,-4.46 -10,-10 v -12 c 0,-5.54 4.46,-10 10,-10 z" />
  <path
     d="m 59.98,197 h 4.032 c 3.094,0 4.83,-1.778 4.83,-4.984 0,-3.22 -1.736,-4.984 -4.83,-4.984 H 59.98 Z m 2.17,-1.82 v -6.328 h 1.596 c 1.974,0 2.898,1.162 2.898,3.164 0,2.002 -0.896,3.164 -2.898,3.164 z m 12.697989,-8.386 c -2.982,0 -4.942,2.072 -4.942,5.236 0,3.122 1.974,5.208 4.928,5.208 2.926,0 4.9,-2.1 4.9,-5.208 0,-3.122 -1.974,-5.236 -4.886,-5.236 z m -0.028,1.792 c 1.666,0 2.702,1.302 2.702,3.402 0,2.128 -1.022,3.444 -2.674,3.444 -1.694,-0.014 -2.73,-1.302 -2.73,-3.444 0,-2.072 1.05,-3.402 2.702,-3.402 z m 14.895998,-1.554 h -2.184 v 5.964 c 0,1.47 -0.35,2.394 -2.03,2.394 -1.708,0 -2.142,-0.868 -2.142,-2.394 v -5.964 h -2.184 v 5.964 c 0,2.842 1.33,4.2 4.298,4.2 2.912,0 4.242,-1.33 4.242,-4.172 z m 1.87599,0 V 197 h 4.984 c 1.876,0 3.374,-1.022 3.374,-2.968 0,-1.386 -0.784,-2.142 -1.82,-2.436 0.812,-0.364 1.358,-1.092 1.358,-2.058 0,-1.764 -1.428,-2.506 -3.178,-2.506 z m 2.128,1.694 h 1.988 c 0.84,0 1.652,0.168 1.652,1.176 0,1.008 -0.854,1.162 -1.652,1.162 h -1.988 z m 0,3.822 h 2.086 c 0.98,0 1.96,0.154 1.96,1.358 0,1.176 -0.91,1.358 -1.848,1.358 h -2.198 z m 14.798003,2.576 h -4.872 v -8.092 h -2.184 V 197 h 7.056 z m 8.72201,-8.092 h -7.476 V 197 h 7.574 v -1.834 h -5.404 v -2.45 h 4.872 v -1.722 h -4.872 v -2.17 h 5.306 z"
     id="text11"
     class="terminal"
     style="font-weight:bold;font-size:14px;font-family:HelveticaNeueCyr, Sans-serif;fill:#ffe0e0"
     aria-label="DOUBLE" />
  <path
     id="rect12"
     style="fill:#320000;stroke:#320000"
     d="m 61,223 h 24 c 5.54,0 10,4.46 10,10 v 12 c 0,5.54 -4.46,10 -10,10 H 61 c -5.54,0 -10,-4.46 -10,-10 v -12 c 0,-5.54 4.46,-10 10,-10 z" />
  <path
     id="rect13"
     class="terminal"
     style="fill:#ff0000;stroke:#320000"
     d="m 59,221 h 24 c 5.54,0 10,4.46 10,10 v 12 c 0,5.54 -4.46,10 -10,10 H 59 c -5.54,0 -10,-4.46 -10,-10 v -12 c 0,-5.54 4.46,-10 10,-10 z" />
  <path
     d="M 62.164,231.032 H 59.966 V 241 h 2.198 z M 64.096001,241 h 2.114 v -6.692 l 4.13,6.692 h 2.184 v -9.968 h -2.1 v 6.678 l -4.102,-6.678 h -2.226 z m 17.779989,-9.968 h -8.19 v 1.862 h 2.996 V 241 h 2.198 v -8.106 h 2.996 z"
     id="text13"
     class="terminal"
     style="font-weight:bold;font-size:14px;font-family:HelveticaNeueCyr, Sans-serif;fill:#ffe0e0"
     aria-label="INT" />
  <path
     id="rect14"
     style="fill:#320000;stroke:#320000"
     d="m 61,267 h 60 c 5.54,0 10,4.46 10,10 v 12 c 0,5.54 -4.46,10 -10,10 H 61 c -5.54,0 -10,-4.46 -10,-10 v -12 c 0,-5.54 4.46,-10 10,-10 z" />
  <path
     id="rect15"
     class="terminal"
     style="fill:#ff0000;stroke:#320000"
     d="m 59,265 h 60 c 5.54,0 10,4.46 10,10 v 12 c 0,5.54 -4.46,10 -10,10 H 59 c -5.54,0 -10,-4.46 -10,-10 v -12 c 0,-5.54 4.46,-10 10,-10 z" />
  <path
     d="M 62.164,275.032 H 59.966 V 285 h 2.198 z M 64.096001,285 h 2.114 v -6.692 l 4.13,6.692 h 2.184 v -9.968 h -2.1 v 6.678 l -4.102,-6.678 h -2.226 z m 17.779989,-9.968 h -8.19 v 1.862 h 2.996 V 285 h 2.198 v -8.106 h 2.996 z m 8.624001,0 h -7.476 V 285 h 7.574 v -1.834 h -5.404 v -2.45 h 4.872 v -1.722 h -4.872 v -2.17 h 5.306 z M 100.972,279.61 h -4.185999 v 1.624 h 2.226 c -0.056,1.344 -1.008,2.254 -2.38,2.254 -1.736,0 -2.744,-1.26 -2.744,-3.43 0,-2.128 1.008,-3.402 2.674,-3.402 1.162,0 1.96,0.602 2.17,1.652 H 100.846 c -0.266,-2.1 -1.987999,-3.486 -4.255999,-3.486 -2.884,0 -4.9,2.156 -4.9,5.236 0,3.066 1.918,5.18 4.69,5.18 1.288,0 2.226,-0.434 2.996,-1.372 l 0.21,1.134 H 100.972 Z m 9.22601,-4.578 h -7.476 V 285 h 7.574 v -1.834 h -5.404 v -2.45 h 4.872 v -1.722 h -4.872 v -2.17 h 5.306 z m 1.68001,0 V 285 h 2.17 v -3.906 h 1.946 c 1.428,0 1.848,0.49 1.988,1.862 0.056,0.546 0.056,1.54 0.308,2.044 h 2.268 c -0.392,-0.364 -0.42,-1.736 -0.476,-2.366 -0.084,-0.98 -0.364,-2.1 -1.47,-2.324 0.994,-0.378 1.582,-1.288 1.582,-2.45 0,-2.002 -1.526,-2.828 -3.36,-2.828 z m 2.17,1.722 h 2.17 c 0.924,0 1.834,0.196 1.834,1.344 0,1.232 -0.91,1.414 -1.932,1.414 h -2.072 z"
     id="text15"
     class="terminal"
     style="font-weight:bold;font-size:14px;font-family:HelveticaNeueCyr, Sans-serif;fill:#ffe0e0"
     aria-label="INTEGER" />
  <path
     id="rect16"
     style="fill:#320000;stroke:#320000"
     d="m 61,311 h 58 c 5.54,0 10,4.46 10,10 v 12 c 0,5.54 -4.46,10 -10,10 H 61 c -5.54,0 -10,-4.46 -10,-10 v -12 c 0,-5.54 4.46,-10 10,-10 z" />
  <path
     id="rect17"
     class="terminal"
     style="fill:#ff0000;stroke:#320000"
     d="m 59,309 h 58 c 5.54,0 10,4.46 10,10 v 12 c 0,5.54 -4.46,10 -10,10 H 59 c -5.54,0 -10,-4.46 -10,-10 v -12 c 0,-5.54 4.46,-10 10,-10 z" />
  <path
     d="m 59.966,329 h 2.114 v -6.692 L 66.21,329 h 2.184 v -9.968 h -2.1 v 6.678 l -4.102,-6.678 h -2.226 z m 18.857989,-9.968 h -2.184 v 5.964 c 0,1.47 -0.35,2.394 -2.03,2.394 -1.708,0 -2.142,-0.868 -2.142,-2.394 v -5.964 h -2.184 v 5.964 c 0,2.842 1.33,4.2 4.298,4.2 2.912,0 4.242,-1.33 4.242,-4.172 z M 80.713978,329 h 2.086 v -7.014 l 2.478,7.014 h 1.694 l 2.45,-7.084 V 329 h 2.058 v -9.968 h -3.052 l -2.268,6.846 -2.324,-6.846 h -3.122 z m 12.683994,-9.968 V 329 h 4.984 c 1.875998,0 3.373998,-1.022 3.373998,-2.968 0,-1.386 -0.784,-2.142 -1.819998,-2.436 0.811998,-0.364 1.357998,-1.092 1.357998,-2.058 0,-1.764 -1.427998,-2.506 -3.177998,-2.506 z m 2.128,1.694 h 1.988 c 0.84,0 1.652,0.168 1.652,1.176 0,1.008 -0.854,1.162 -1.652,1.162 h -1.988 z m 0,3.822 h 2.086 c 0.98,0 1.96,0.154 1.96,1.358 0,1.176 -0.91,1.358 -1.848,1.358 h -2.198 z m 15.218008,-5.516 h -7.476 V 329 h 7.574 v -1.834 h -5.404 v -2.45 h 4.872 v -1.722 h -4.872 v -2.17 h 5.306 z m 1.68001,0 V 329 h 2.17 v -3.906 h 1.946 c 1.428,0 1.848,0.49 1.988,1.862 0.056,0.546 0.056,1.54 0.308,2.044 h 2.268 c -0.392,-0.364 -0.42,-1.736 -0.476,-2.366 -0.084,-0.98 -0.364,-2.1 -1.47,-2.324 0.994,-0.378 1.582,-1.288 1.582,-2.45 0,-2.002 -1.526,-2.828 -3.36,-2.828 z m 2.17,1.722 h 2.17 c 0.924,0 1.834,0.196 1.834,1.344 0,1.232 -0.91,1.414 -1.932,1.414 h -2.072 z"
     id="text17"
     class="terminal"
     style="font-weight:bold;font-size:14px;font-family:HelveticaNeueCyr, Sans-serif;fill:#ffe0e0"
     aria-label="NUMBER" />
  <path
     id="rect18"
     style="fill:#320000;stroke:#320000"
     d="m 61,355 h 54 c 5.54,0 10,4.46 10,10 v 12 c 0,5.54 -4.46,10 -10,10 H 61 c -5.54,0 -10,-4.46 -10,-10 v -12 c 0,-5.54 4.46,-10 10,-10 z" />
  <path
     id="rect19"
     class="terminal"
     style="fill:#ff0000;stroke:#320000"
     d="m 59,353 h 54 c 5.54,0 10,4.46 10,10 v 12 c 0,5.54 -4.46,10 -10,10 H 59 c -5.54,0 -10,-4.46 -10,-10 v -12 c 0,-5.54 4.46,-10 10,-10 z" />
  <path
     d="m 67.344,366 c -0.042,-2.226 -1.736,-3.178 -3.836,-3.178 -2.324,0 -3.836,1.176 -3.836,2.982 0,2.03 1.554,2.436 3.178,2.898 2.058,0.588 2.73,0.728 2.73,1.512 0,0.826 -0.7,1.33 -1.848,1.33 -1.33,0 -2.212,-0.532 -2.254,-1.876 h -2.17 c 0.028,2.254 1.624,3.556 4.326,3.556 2.03,0 4.102,-0.868 4.102,-3.22 0,-1.666 -1.134,-2.352 -2.912,-2.856 -1.988,-0.56 -3.052,-0.63 -3.052,-1.498 0,-0.714 0.602,-1.134 1.61,-1.134 1.162,0 1.806,0.518 1.89,1.484 z m 10.612002,3.15 h -2.17 c -0.182,1.456 -0.966,2.24 -2.282,2.24 -1.61,0 -2.632,-1.316 -2.632,-3.374 0,-1.666 0.742,-3.388 2.66,-3.388 1.176,0 1.988,0.644 2.212,1.736 h 2.142 c -0.168,-2.058 -1.918,-3.57 -4.312,-3.57 -3.052,0 -4.9,2.31 -4.9,5.208 0,3.15 1.918,5.236 4.816,5.236 2.73,0 4.242,-1.652 4.466,-4.088 z m 6.425989,-6.132 h -2.254 l -3.794,9.982 h 2.24 l 0.812,-2.226 h 3.71 l 0.784,2.226 h 2.296 z m 0.182,6.16 h -2.646 l 1.33,-3.71 z m 11.507993,1.946 h -4.872 v -8.092 h -2.184 V 373 h 7.056 z m 6.202006,-8.106 h -2.254 l -3.794,9.982 h 2.24 l 0.812,-2.226 h 3.71 l 0.784,2.226 h 2.296 z m 0.182,6.16 h -2.646 l 1.33,-3.71 z m 4.53599,-6.146 V 373 h 2.17 v -3.906 h 1.946 c 1.428,0 1.848,0.49 1.988,1.862 0.056,0.546 0.056,1.54 0.308,2.044 h 2.268 c -0.392,-0.364 -0.42,-1.736 -0.476,-2.366 -0.084,-0.98 -0.364,-2.1 -1.47,-2.324 0.994,-0.378 1.582,-1.288 1.582,-2.45 0,-2.002 -1.526,-2.828 -3.36,-2.828 z m 2.17,1.722 h 2.17 c 0.924,0 1.834,0.196 1.834,1.344 0,1.232 -0.91,1.414 -1.932,1.414 h -2.072 z"
     id="text19"
     class="terminal"
     style="font-weight:bold;font-size:14px;font-family:HelveticaNeueCyr, Sans-serif;fill:#ffe0e0"
     aria-label="SCALAR" />
  <path
     id="rect20"
     style="fill:#320000;stroke:#320000"
     d="m 61,399 h 52 c 5.54,0 10,4.46 10,10 v 12 c 0,5.54 -4.46,10 -10,10 H 61 c -5.54,0 -10,-4.46 -10,-10 v -12 c 0,-5.54 4.46,-10 10,-10 z" />
  <path
     id="rect21"
     class="terminal"
     style="fill:#ff0000;stroke:#320000"
     d="m 59,397 h 52 c 5.54,0 10,4.46 10,10 v 12 c 0,5.54 -4.46,10 -10,10 H 59 c -5.54,0 -10,-4.46 -10,-10 v -12 c 0,-5.54 4.46,-10 10,-10 z" />
  <path
     d="m 67.344,410 c -0.042,-2.226 -1.736,-3.178 -3.836,-3.178 -2.324,0 -3.836,1.176 -3.836,2.982 0,2.03 1.554,2.436 3.178,2.898 2.058,0.588 2.73,0.728 2.73,1.512 0,0.826 -0.7,1.33 -1.848,1.33 -1.33,0 -2.212,-0.532 -2.254,-1.876 h -2.17 c 0.028,2.254 1.624,3.556 4.326,3.556 2.03,0 4.102,-0.868 4.102,-3.22 0,-1.666 -1.134,-2.352 -2.912,-2.856 -1.988,-0.56 -3.052,-0.63 -3.052,-1.498 0,-0.714 0.602,-1.134 1.61,-1.134 1.162,0 1.806,0.518 1.89,1.484 z m 9.114002,-2.968 h -8.19 v 1.862 h 2.996 V 417 h 2.198 v -8.106 h 2.996 z m 1.232001,0 V 417 h 2.17 v -3.906 h 1.946 c 1.428,0 1.848,0.49 1.988,1.862 0.056,0.546 0.056,1.54 0.308,2.044 h 2.268 c -0.392,-0.364 -0.42,-1.736 -0.476,-2.366 -0.084,-0.98 -0.364,-2.1 -1.47,-2.324 0.994,-0.378 1.582,-1.288 1.582,-2.45 0,-2.002 -1.526,-2.828 -3.36,-2.828 z m 2.17,1.722 h 2.17 c 0.924,0 1.834,0.196 1.834,1.344 0,1.232 -0.91,1.414 -1.932,1.414 h -2.072 z m 10.052002,-1.722 h -2.198 V 417 h 2.198 z M 91.844006,417 h 2.114 v -6.692 l 4.13,6.692 h 2.184004 v -9.968 h -2.100004 v 6.678 l -4.102,-6.678 h -2.226 z M 111.094,411.61 h -4.186 v 1.624 h 2.226 c -0.056,1.344 -1.008,2.254 -2.38,2.254 -1.736,0 -2.744,-1.26 -2.744,-3.43 0,-2.128 1.008,-3.402 2.674,-3.402 1.162,0 1.96,0.602 2.17,1.652 h 2.114 c -0.266,-2.1 -1.988,-3.486 -4.256,-3.486 -2.884,0 -4.9,2.156 -4.9,5.236 0,3.066 1.918,5.18 4.69,5.18 1.288,0 2.226,-0.434 2.996,-1.372 l 0.21,1.134 h 1.386 z"
     id="text21"
     class="terminal"
     style="font-weight:bold;font-size:14px;font-family:HelveticaNeueCyr, Sans-serif;fill:#ffe0e0"
     aria-label="STRING" />
  <path
     id="rect22"
     style="fill:#320000;stroke:#320000"
     d="m 61,443 h 34 c 5.54,0 10,4.46 10,10 v 12 c 0,5.54 -4.46,10 -10,10 H 61 c -5.54,0 -10,-4.46 -10,-10 v -12 c 0,-5.54 4.46,-10 10,-10 z" />
  <path
     id="rect23"
     class="terminal"
     style="fill:#ff0000;stroke:#320000"
     d="m 59,441 h 34 c 5.54,0 10,4.46 10,10 v 12 c 0,5.54 -4.46,10 -10,10 H 59 c -5.54,0 -10,-4.46 -10,-10 v -12 c 0,-5.54 4.46,-10 10,-10 z" />
  <path
     d="m 67.372,451.032 h -8.19 v 1.862 h 2.996 V 461 h 2.198 v -8.106 h 2.996 z m 8.624001,0 h -7.476 V 461 h 7.574 v -1.834 h -5.404 v -2.45 h 4.872 v -1.722 h -4.872 v -2.17 h 5.306 z m 9.74401,0 h -2.408 l -2.002,3.206 -1.988,-3.206 h -2.548 l 3.248,4.76 -3.514,5.208 h 2.492 l 2.212,-3.458 2.184,3.458 h 2.618 l -3.5,-5.208 z m 8.595997,0 h -8.19 v 1.862 h 2.996 V 461 h 2.198 v -8.106 h 2.996 z"
     id="text23"
     class="terminal"
     style="font-weight:bold;font-size:14px;font-family:HelveticaNeueCyr, Sans-serif;fill:#ffe0e0"
     aria-label="TEXT" />
  <path
     id="rect24"
     style="fill:#320000;stroke:#320000"
     d="m 61,487 h 72 c 5.54,0 10,4.46 10,10 v 12 c 0,5.54 -4.46,10 -10,10 H 61 c -5.54,0 -10,-4.46 -10,-10 v -12 c 0,-5.54 4.46,-10 10,-10 z" />
  <path
     id="rect25"
     class="terminal"
     style="fill:#ff0000;stroke:#320000"
     d="m 59,485 h 72 c 5.54,0 10,4.46 10,10 v 12 c 0,5.54 -4.46,10 -10,10 H 59 c -5.54,0 -10,-4.46 -10,-10 v -12 c 0,-5.54 4.46,-10 10,-10 z" />
  <path
     d="m 68.45,495.032 h -2.184 v 5.964 c 0,1.47 -0.35,2.394 -2.03,2.394 -1.708,0 -2.142,-0.868 -2.142,-2.394 v -5.964 H 59.91 v 5.964 c 0,2.842 1.33,4.2 4.298,4.2 2.912,0 4.242,-1.33 4.242,-4.172 z M 70.339989,505 h 2.114 v -6.692 l 4.13,6.692 h 2.184 v -9.968 h -2.1 v 6.678 l -4.102,-6.678 h -2.226 z m 17.751989,-7 c -0.042,-2.226 -1.736,-3.178 -3.836,-3.178 -2.324,0 -3.836,1.176 -3.836,2.982 0,2.03 1.554,2.436 3.178,2.898 2.058,0.588 2.73,0.728 2.73,1.512 0,0.826 -0.7,1.33 -1.848,1.33 -1.33,0 -2.212,-0.532 -2.254,-1.876 h -2.17 c 0.028,2.254 1.624,3.556 4.326,3.556 2.03,0 4.102,-0.868 4.102,-3.22 0,-1.666 -1.134,-2.352 -2.912,-2.856 -1.988,-0.56 -3.052,-0.63 -3.052,-1.498 0,-0.714 0.602,-1.134 1.61,-1.134 1.162,0 1.806,0.518 1.89,1.484 z m 3.906003,-2.968 h -2.198 V 505 h 2.198 z m 10.807999,4.578 h -4.185998 v 1.624 h 2.225998 c -0.056,1.344 -1.007998,2.254 -2.379998,2.254 -1.736,0 -2.744,-1.26 -2.744,-3.43 0,-2.128 1.008,-3.402 2.674,-3.402 1.162,0 1.959998,0.602 2.169998,1.652 h 2.114 c -0.266,-2.1 -1.988,-3.486 -4.255998,-3.486 -2.884,0 -4.9,2.156 -4.9,5.236 0,3.066 1.918,5.18 4.69,5.18 1.288,0 2.225998,-0.434 2.995998,-1.372 l 0.21,1.134 h 1.386 z m 1.75001,5.39 h 2.114 v -6.692 l 4.13,6.692 h 2.184 v -9.968 h -2.1 v 6.678 l -4.102,-6.678 h -2.226 z m 17.84999,-9.968 h -7.476 V 505 h 7.574 v -1.834 h -5.404 v -2.45 h 4.872 v -1.722 h -4.872 v -2.17 h 5.306 z M 124.016,505 h 4.032 c 3.094,0 4.83,-1.778 4.83,-4.984 0,-3.22 -1.736,-4.984 -4.83,-4.984 h -4.032 z m 2.17,-1.82 v -6.328 h 1.596 c 1.974,0 2.898,1.162 2.898,3.164 0,2.002 -0.896,3.164 -2.898,3.164 z"
     id="text25"
     class="terminal"
     style="font-weight:bold;font-size:14px;font-family:HelveticaNeueCyr, Sans-serif;fill:#ffe0e0"
     aria-label="UNSIGNED" />
  <path
     id="rect26"
     style="fill:#320000;stroke:#320000"
     d="m 61,531 h 66 c 5.54,0 10,4.46 10,10 v 12 c 0,5.54 -4.46,10 -10,10 H 61 c -5.54,0 -10,-4.46 -10,-10 v -12 c 0,-5.54 4.46,-10 10,-10 z" />
  <path
     id="rect27"
     class="terminal"
     style="fill:#ff0000;stroke:#320000"
     d="m 59,529 h 66 c 5.54,0 10,4.46 10,10 v 12 c 0,5.54 -4.46,10 -10,10 H 59 c -5.54,0 -10,-4.46 -10,-10 v -12 c 0,-5.54 4.46,-10 10,-10 z" />
  <path
     d="M 58.888,539.032 62.15,549 h 2.478 l 3.318,-9.968 h -2.268 l -2.268,7 -2.24,-7 z m 14.209995,-0.014 h -2.254 l -3.794,9.982 h 2.24 l 0.812,-2.226 h 3.71 l 0.784,2.226 h 2.296 z m 0.182,6.16 h -2.646 l 1.33,-3.71 z m 4.535992,-6.146 V 549 h 2.17 v -3.906 h 1.946 c 1.428,0 1.848,0.49 1.988,1.862 0.056,0.546 0.056,1.54 0.308,2.044 h 2.268 c -0.392,-0.364 -0.42,-1.736 -0.476,-2.366 -0.084,-0.98 -0.364,-2.1 -1.47,-2.324 0.994,-0.378 1.582,-1.288 1.582,-2.45 0,-2.002 -1.526,-2.828 -3.36,-2.828 z m 2.17,1.722 h 2.17 c 0.924,0 1.834,0.196 1.834,1.344 0,1.232 -0.91,1.414 -1.932,1.414 h -2.072 z m 16.758002,4.396 h -2.17 c -0.182,1.456 -0.966,2.24 -2.282,2.24 -1.61,0 -2.632,-1.316 -2.632,-3.374 0,-1.666 0.742,-3.388 2.66,-3.388 1.176,0 1.988,0.644 2.212,1.736 h 2.142 c -0.168,-2.058 -1.918,-3.57 -4.312,-3.57 -3.052,0 -4.9,2.31 -4.9,5.208 0,3.15 1.918,5.236 4.816,5.236 2.73,0 4.242,-1.652 4.466,-4.088 z m 9.911991,-6.118 h -2.184 v 3.752 h -4.074 v -3.752 H 98.213978 V 549 h 2.184002 v -4.298 h 4.074 V 549 h 2.184 z m 6.88799,-0.014 h -2.254 l -3.794,9.982 h 2.24 l 0.812,-2.226 h 3.71 l 0.784,2.226 h 2.296 z m 0.182,6.16 h -2.646 l 1.33,-3.71 z m 4.53599,-6.146 V 549 h 2.17 v -3.906 h 1.946 c 1.428,0 1.848,0.49 1.988,1.862 0.056,0.546 0.056,1.54 0.308,2.044 h 2.268 c -0.392,-0.364 -0.42,-1.736 -0.476,-2.366 -0.084,-0.98 -0.364,-2.1 -1.47,-2.324 0.994,-0.378 1.582,-1.288 1.582,-2.45 0,-2.002 -1.526,-2.828 -3.36,-2.828 z m 2.17,1.722 h 2.17 c 0.924,0 1.834,0.196 1.834,1.344 0,1.232 -0.91,1.414 -1.932,1.414 h -2.072 z"
     id="text27"
     class="terminal"
     style="font-weight:bold;font-size:14px;font-family:HelveticaNeueCyr, Sans-serif;fill:#ffe0e0"
     aria-label="VARCHAR" />
  <path
     id="rect28"
     style="fill:#320000;stroke:#320000"
     d="m 187,563 h 6 c 5.54,0 10,4.46 10,10 v 12 c 0,5.54 -4.46,10 -10,10 h -6 c -5.54,0 -10,-4.46 -10,-10 v -12 c 0,-5.54 4.46,-10 10,-10 z" />
  <path
     id="rect29"
     class="terminal"
     style="fill:#ff0000;stroke:#320000"
     d="m 185,561 h 6 c 5.54,0 10,4.46 10,10 v 12 c 0,5.54 -4.46,10 -10,10 h -6 c -5.54,0 -10,-4.46 -10,-10 v -12 c 0,-5.54 4.46,-10 10,-10 z" />
  <path
     d="m 189.228,570.878 h -1.652 c -1.232,1.792 -1.834,4.27 -1.834,6.412 0,2.128 0.658,4.438 1.834,6.202 h 1.68 c -0.994,-1.988 -1.582,-4.018 -1.582,-6.244 0,-2.408 0.49,-4.242 1.554,-6.37 z"
     id="text29"
     class="terminal"
     style="font-weight:bold;font-size:14px;font-family:HelveticaNeueCyr, Sans-serif;fill:#ffe0e0"
     aria-label="(" />
  <a
     xlink:href="../sql_types/#unsigned"
     xlink:title="length"
     id="a31">
    <path
       id="rect30"
       style="fill:#320000;stroke:#320000"
       d="m 223,563 h 60 v 32 h -60 z" />
    <path
       id="rect31"
       class="nonterminal"
       style="fill:#ff3f3f;stroke:#320000"
       d="m 221,561 h 60 v 32 h -60 z" />
    <path
       d="m 233.156,571.032 h -1.204 V 581 h 1.204 z m 8.022,7.686 h -1.162 c -0.336,1.092 -0.91,1.54 -1.946,1.54 -1.4,0 -2.254,-0.924 -2.254,-2.464 l 0.014,-0.084 h 5.432 v -0.168 c 0,-2.086 -0.896,-3.976 -3.276,-3.976 -2.002,0 -3.36,1.582 -3.36,3.92 0,2.352 1.274,3.752 3.402,3.752 1.708,0 2.786,-0.854 3.15,-2.52 z m -1.148,-1.974 h -4.2 c 0.154,-1.358 0.966,-2.198 2.128,-2.198 1.19,0 1.96,0.826 2.072,2.198 z m 3.61201,-2.968 h -1.12 V 581 h 1.19 v -3.78 c 0,-1.428 0.504,-2.604 2.058,-2.604 1.498,0 1.554,0.98 1.554,2.128 V 581 h 1.19 v -4.802 c 0,-1.652 -0.644,-2.618 -2.408,-2.618 -1.106,0 -1.862,0.434 -2.464,1.316 z m 12.922,0 h -1.092 v 1.05 c -0.448,-0.798 -1.288,-1.246 -2.282,-1.246 -2.156,0 -3.234,1.876 -3.234,3.836 0,2.24 1.246,3.668 3.178,3.668 1.092,0 1.82,-0.406 2.296,-1.316 l -0.014,0.882 c -0.028,1.666 -0.644,2.366 -2.128,2.366 -1.12,0 -1.722,-0.378 -1.862,-1.204 h -1.218 c 0.21,1.624 1.582,2.128 3.038,2.128 1.33,0 2.338,-0.462 2.856,-1.316 0.35,-0.588 0.462,-1.162 0.462,-2.408 z m -3.318,0.84 c 1.358,0 2.156,0.98 2.156,2.618 0,1.75 -0.812,2.828 -2.128,2.828 -1.26,0 -2.1,-1.036 -2.1,-2.632 0,-1.75 0.784,-2.814 2.072,-2.814 z m 8.18999,-0.84 h -1.442 v -2.142 h -1.19 v 2.142 h -1.218 v 0.98 h 1.218 v 3.836 c 0,1.582 -0.084,2.478 1.722,2.478 0.378,0 0.532,-0.014 0.91,-0.056 v -1.022 c -0.252,0.028 -0.406,0.042 -0.644,0.042 -0.84,0 -0.798,-0.406 -0.798,-1.064 v -4.214 h 1.442 z m 2.50601,-2.744 h -1.19 V 581 h 1.19 v -3.668 c 0,-1.638 0.504,-2.702 2.03,-2.702 1.288,0 1.582,0.714 1.582,1.708 V 581 h 1.19 v -4.942 c 0,-1.512 -0.714,-2.464 -2.436,-2.464 -1.036,0 -1.834,0.406 -2.366,1.204 z"
       id="text31"
       class="nonterminal"
       style="font-size:14px;font-family:HelveticaNeueCyr, Sans-serif;fill:#ffe0e0"
       aria-label="length" />
  </a>
  <path
     id="rect32"
     style="fill:#320000;stroke:#320000"
     d="m 313,563 h 6 c 5.54,0 10,4.46 10,10 v 12 c 0,5.54 -4.46,10 -10,10 h -6 c -5.54,0 -10,-4.46 -10,-10 v -12 c 0,-5.54 4.46,-10 10,-10 z" />
  <path
     id="rect33"
     class="terminal"
     style="fill:#ff0000;stroke:#320000"
     d="m 311,561 h 6 c 5.54,0 10,4.46 10,10 v 12 c 0,5.54 -4.46,10 -10,10 h -6 c -5.54,0 -10,-4.46 -10,-10 v -12 c 0,-5.54 4.46,-10 10,-10 z" />
  <path
     d="m 310.944,570.878 c 1.036,1.862 1.568,4.074 1.568,6.202 0,2.464 -0.462,4.186 -1.554,6.412 h 1.666 c 1.204,-1.596 1.834,-4.424 1.834,-6.384 0,-2.198 -0.658,-4.382 -1.862,-6.23 z"
     id="text33"
     class="terminal"
     style="font-weight:bold;font-size:14px;font-family:HelveticaNeueCyr, Sans-serif;fill:#ffe0e0"
     aria-label=")" />
  <path
     class="line"
     d="m17 17 h2 m20 0 h10 m48 0 h10 m0 0 h250 m-338 0 h20 m318 0 h20 m-358 0 q10 0 10 10 m338 0 q0 -10 10 -10 m-348 10 v24 m338 0 v-24 m-338 24 q0 10 10 10 m318 0 q10 0 10 -10 m-328 10 h10 m58 0 h10 m0 0 h240 m-328 -10 v20 m338 0 v-20 m-338 20 v24 m338 0 v-24 m-338 24 q0 10 10 10 m318 0 q10 0 10 -10 m-328 10 h10 m86 0 h10 m0 0 h212 m-328 -10 v20 m338 0 v-20 m-338 20 v24 m338 0 v-24 m-338 24 q0 10 10 10 m318 0 q10 0 10 -10 m-328 10 h10 m82 0 h10 m0 0 h216 m-328 -10 v20 m338 0 v-20 m-338 20 v24 m338 0 v-24 m-338 24 q0 10 10 10 m318 0 q10 0 10 -10 m-328 10 h10 m76 0 h10 m0 0 h222 m-328 -10 v20 m338 0 v-20 m-338 20 v24 m338 0 v-24 m-338 24 q0 10 10 10 m318 0 q10 0 10 -10 m-328 10 h10 m44 0 h10 m0 0 h254 m-328 -10 v20 m338 0 v-20 m-338 20 v24 m338 0 v-24 m-338 24 q0 10 10 10 m318 0 q10 0 10 -10 m-328 10 h10 m80 0 h10 m0 0 h218 m-328 -10 v20 m338 0 v-20 m-338 20 v24 m338 0 v-24 m-338 24 q0 10 10 10 m318 0 q10 0 10 -10 m-328 10 h10 m78 0 h10 m0 0 h220 m-328 -10 v20 m338 0 v-20 m-338 20 v24 m338 0 v-24 m-338 24 q0 10 10 10 m318 0 q10 0 10 -10 m-328 10 h10 m74 0 h10 m0 0 h224 m-328 -10 v20 m338 0 v-20 m-338 20 v24 m338 0 v-24 m-338 24 q0 10 10 10 m318 0 q10 0 10 -10 m-328 10 h10 m72 0 h10 m0 0 h226 m-328 -10 v20 m338 0 v-20 m-338 20 v24 m338 0 v-24 m-338 24 q0 10 10 10 m318 0 q10 0 10 -10 m-328 10 h10 m54 0 h10 m0 0 h244 m-328 -10 v20 m338 0 v-20 m-338 20 v24 m338 0 v-24 m-338 24 q0 10 10 10 m318 0 q10 0 10 -10 m-328 10 h10 m92 0 h10 m0 0 h206 m-328 -10 v20 m338 0 v-20 m-338 20 v24 m338 0 v-24 m-338 24 q0 10 10 10 m318 0 q10 0 10 -10 m-328 10 h10 m86 0 h10 m20 0 h10 m0 0 h162 m-192 0 h20 m172 0 h20 m-212 0 q10 0 10 10 m192 0 q0 -10 10 -10 m-202 10 v12 m192 0 v-12 m-192 12 q0 10 10 10 m172 0 q10 0 10 -10 m-182 10 h10 m26 0 h10 m0 0 h10 m60 0 h10 m0 0 h10 m26 0 h10 m43 -560 h-3"
     id="path33" />
  <path
     id="polygon33"
     style="fill:#320000;stroke:#320000"
     d="m 387,17 8,-4 v 8 z" />
  <path
     id="polygon34"
     style="fill:#320000;stroke:#320000"
     d="m 387,17 -8,-4 v 8 z" />
</svg>
