<?xml version="1.0" encoding="UTF-8"?>
<svg xmlns="http://www.w3.org/2000/svg" width="397" height="597" viewBox="0 0 397 597">
   <defs>
      <style type="text/css">
    @namespace "http://www.w3.org/2000/svg";
    .line                 {fill: none; stroke: #330000; stroke-width: 1;}
    .bold-line            {stroke: #140000; shape-rendering: crispEdges; stroke-width: 2;}
    .thin-line            {stroke: #1F0000; shape-rendering: crispEdges}
    .filled               {fill: #330000; stroke: none;}
    text.terminal         {font-family: Verdana, Sans-serif;
                            font-size: 12px;
                            fill: #140000;
                            font-weight: bold;
                          }
    text.nonterminal      {font-family: Verdana, Sans-serif;
                            font-size: 12px;
                            fill: #1A0000;
                            font-weight: normal;
                          }
    text.regexp           {font-family: Verdana, Sans-serif;
                            font-size: 12px;
                            fill: #1F0000;
                            font-weight: normal;
                          }
    rect, circle, polygon {fill: #330000; stroke: #330000;}
    rect.terminal         {fill: #FF4D4D; stroke: #330000; stroke-width: 1;}
    rect.nonterminal      {fill: #FF9E9E; stroke: #330000; stroke-width: 1;}
    rect.text             {fill: none; stroke: none;}
    polygon.regexp        {fill: #FFC7C7; stroke: #330000; stroke-width: 1;}
  </style>
      <style class="darkreader darkreader--sync" media="screen"/>
   </defs>
   <polygon points="9 17 1 13 1 21"/>
   <polygon points="17 17 9 13 9 21"/>
   <rect x="51" y="3" width="58" height="32" rx="10"/>
   <rect x="49"
         y="1"
         width="58"
         height="32"
         class="terminal"
         rx="10"/>
   <text class="terminal" x="59" y="21">BOOL</text>
   <rect x="51" y="47" width="86" height="32" rx="10"/>
   <rect x="49"
         y="45"
         width="86"
         height="32"
         class="terminal"
         rx="10"/>
   <text class="terminal" x="59" y="65">BOOLEAN</text>
   <rect x="51" y="91" width="82" height="32" rx="10"/>
   <rect x="49"
         y="89"
         width="82"
         height="32"
         class="terminal"
         rx="10"/>
   <text class="terminal" x="59" y="109">DECIMAL</text>
   <rect x="51" y="135" width="76" height="32" rx="10"/>
   <rect x="49"
         y="133"
         width="76"
         height="32"
         class="terminal"
         rx="10"/>
   <text class="terminal" x="59" y="153">DOUBLE</text>
   <rect x="51" y="179" width="44" height="32" rx="10"/>
   <rect x="49"
         y="177"
         width="44"
         height="32"
         class="terminal"
         rx="10"/>
   <text class="terminal" x="59" y="197">INT</text>
   <rect x="51" y="223" width="80" height="32" rx="10"/>
   <rect x="49"
         y="221"
         width="80"
         height="32"
         class="terminal"
         rx="10"/>
   <text class="terminal" x="59" y="241">INTEGER</text>
   <rect x="51" y="267" width="78" height="32" rx="10"/>
   <rect x="49"
         y="265"
         width="78"
         height="32"
         class="terminal"
         rx="10"/>
   <text class="terminal" x="59" y="285">NUMBER</text>
   <rect x="51" y="311" width="74" height="32" rx="10"/>
   <rect x="49"
         y="309"
         width="74"
         height="32"
         class="terminal"
         rx="10"/>
   <text class="terminal" x="59" y="329">SCALAR</text>
   <rect x="51" y="355" width="72" height="32" rx="10"/>
   <rect x="49"
         y="353"
         width="72"
         height="32"
         class="terminal"
         rx="10"/>
   <text class="terminal" x="59" y="373">STRING</text>
   <rect x="51" y="399" width="54" height="32" rx="10"/>
   <rect x="49"
         y="397"
         width="54"
         height="32"
         class="terminal"
         rx="10"/>
   <text class="terminal" x="59" y="417">TEXT</text>
   <rect x="51" y="443" width="92" height="32" rx="10"/>
   <rect x="49"
         y="441"
         width="92"
         height="32"
         class="terminal"
         rx="10"/>
   <text class="terminal" x="59" y="461">UNSIGNED</text>
   <rect x="51" y="487" width="56" height="32" rx="10"/>
   <rect x="49"
         y="485"
         width="56"
         height="32"
         class="terminal"
         rx="10"/>
   <text class="terminal" x="59" y="505">UUID</text>
   <rect x="51" y="531" width="86" height="32" rx="10"/>
   <rect x="49"
         y="529"
         width="86"
         height="32"
         class="terminal"
         rx="10"/>
   <text class="terminal" x="59" y="549">VARCHAR</text>
   <rect x="177" y="563" width="26" height="32" rx="10"/>
   <rect x="175"
         y="561"
         width="26"
         height="32"
         class="terminal"
         rx="10"/>
   <text class="terminal" x="185" y="581">(</text>
   <a xmlns:xlink="http://www.w3.org/1999/xlink"
      xlink:href="../../sql_types#unsigned"
      xlink:title="length">
      <rect x="223" y="563" width="60" height="32"/>
      <rect x="221" y="561" width="60" height="32" class="nonterminal"/>
      <text class="nonterminal" x="231" y="581">length</text>
   </a>
   <rect x="303" y="563" width="26" height="32" rx="10"/>
   <rect x="301"
         y="561"
         width="26"
         height="32"
         class="terminal"
         rx="10"/>
   <text class="terminal" x="311" y="581">)</text>
   <path class="line"
         d="m17 17 h2 m20 0 h10 m58 0 h10 m0 0 h240 m-338 0 h20 m318 0 h20 m-358 0 q10 0 10 10 m338 0 q0 -10 10 -10 m-348 10 v24 m338 0 v-24 m-338 24 q0 10 10 10 m318 0 q10 0 10 -10 m-328 10 h10 m86 0 h10 m0 0 h212 m-328 -10 v20 m338 0 v-20 m-338 20 v24 m338 0 v-24 m-338 24 q0 10 10 10 m318 0 q10 0 10 -10 m-328 10 h10 m82 0 h10 m0 0 h216 m-328 -10 v20 m338 0 v-20 m-338 20 v24 m338 0 v-24 m-338 24 q0 10 10 10 m318 0 q10 0 10 -10 m-328 10 h10 m76 0 h10 m0 0 h222 m-328 -10 v20 m338 0 v-20 m-338 20 v24 m338 0 v-24 m-338 24 q0 10 10 10 m318 0 q10 0 10 -10 m-328 10 h10 m44 0 h10 m0 0 h254 m-328 -10 v20 m338 0 v-20 m-338 20 v24 m338 0 v-24 m-338 24 q0 10 10 10 m318 0 q10 0 10 -10 m-328 10 h10 m80 0 h10 m0 0 h218 m-328 -10 v20 m338 0 v-20 m-338 20 v24 m338 0 v-24 m-338 24 q0 10 10 10 m318 0 q10 0 10 -10 m-328 10 h10 m78 0 h10 m0 0 h220 m-328 -10 v20 m338 0 v-20 m-338 20 v24 m338 0 v-24 m-338 24 q0 10 10 10 m318 0 q10 0 10 -10 m-328 10 h10 m74 0 h10 m0 0 h224 m-328 -10 v20 m338 0 v-20 m-338 20 v24 m338 0 v-24 m-338 24 q0 10 10 10 m318 0 q10 0 10 -10 m-328 10 h10 m72 0 h10 m0 0 h226 m-328 -10 v20 m338 0 v-20 m-338 20 v24 m338 0 v-24 m-338 24 q0 10 10 10 m318 0 q10 0 10 -10 m-328 10 h10 m54 0 h10 m0 0 h244 m-328 -10 v20 m338 0 v-20 m-338 20 v24 m338 0 v-24 m-338 24 q0 10 10 10 m318 0 q10 0 10 -10 m-328 10 h10 m92 0 h10 m0 0 h206 m-328 -10 v20 m338 0 v-20 m-338 20 v24 m338 0 v-24 m-338 24 q0 10 10 10 m318 0 q10 0 10 -10 m-328 10 h10 m56 0 h10 m0 0 h242 m-328 -10 v20 m338 0 v-20 m-338 20 v24 m338 0 v-24 m-338 24 q0 10 10 10 m318 0 q10 0 10 -10 m-328 10 h10 m86 0 h10 m20 0 h10 m0 0 h162 m-192 0 h20 m172 0 h20 m-212 0 q10 0 10 10 m192 0 q0 -10 10 -10 m-202 10 v12 m192 0 v-12 m-192 12 q0 10 10 10 m172 0 q10 0 10 -10 m-182 10 h10 m26 0 h10 m0 0 h10 m60 0 h10 m0 0 h10 m26 0 h10 m43 -560 h-3"/>
   <polygon points="387 17 395 13 395 21"/>
   <polygon points="387 17 379 13 379 21"/>
</svg>
