<?xml version="1.0" encoding="UTF-8"?>
<svg xmlns="http://www.w3.org/2000/svg" width="357" height="609" viewBox="0 0 357 609">
   <defs>
      <style type="text/css">
    @namespace "http://www.w3.org/2000/svg";
    .line                 {fill: none; stroke: #330000; stroke-width: 1;}
    .bold-line            {stroke: #140000; shape-rendering: crispEdges; stroke-width: 2;}
    .thin-line            {stroke: #1F0000; shape-rendering: crispEdges}
    .filled               {fill: #330000; stroke: none;}
    text.terminal         {font-family: Verdana, Sans-serif;
                            font-size: 12px;
                            fill: #140000;
                            font-weight: bold;
                          }
    text.nonterminal      {font-family: Verdana, Sans-serif;
                            font-size: 12px;
                            fill: #1A0000;
                            font-weight: normal;
                          }
    text.regexp           {font-family: Verdana, Sans-serif;
                            font-size: 12px;
                            fill: #1F0000;
                            font-weight: normal;
                          }
    rect, circle, polygon {fill: #330000; stroke: #330000;}
    rect.terminal         {fill: #FF4D4D; stroke: #330000; stroke-width: 1;}
    rect.nonterminal      {fill: #FF9E9E; stroke: #330000; stroke-width: 1;}
    rect.text             {fill: none; stroke: none;}
    polygon.regexp        {fill: #FFC7C7; stroke: #330000; stroke-width: 1;}
  </style>
   </defs>
   <polygon points="9 17 1 13 1 21"/>
   <polygon points="17 17 9 13 9 21"/>
   <rect x="51" y="3" width="58" height="32" rx="10"/>
   <rect x="49"
         y="1"
         width="58"
         height="32"
         class="terminal"
         rx="10"/>
   <text class="terminal" x="59" y="21">BOOL</text>
   <rect x="51" y="47" width="86" height="32" rx="10"/>
   <rect x="49"
         y="45"
         width="86"
         height="32"
         class="terminal"
         rx="10"/>
   <text class="terminal" x="59" y="65">BOOLEAN</text>
   <rect x="51" y="91" width="90" height="32" rx="10"/>
   <rect x="49"
         y="89"
         width="90"
         height="32"
         class="terminal"
         rx="10"/>
   <text class="terminal" x="59" y="109">DATETIME</text>
   <rect x="51" y="135" width="82" height="32" rx="10"/>
   <rect x="49"
         y="133"
         width="82"
         height="32"
         class="terminal"
         rx="10"/>
   <text class="terminal" x="59" y="153">DECIMAL</text>
   <rect x="51" y="179" width="76" height="32" rx="10"/>
   <rect x="49"
         y="177"
         width="76"
         height="32"
         class="terminal"
         rx="10"/>
   <text class="terminal" x="59" y="197">DOUBLE</text>
   <rect x="51" y="223" width="44" height="32" rx="10"/>
   <rect x="49"
         y="221"
         width="44"
         height="32"
         class="terminal"
         rx="10"/>
   <text class="terminal" x="59" y="241">INT</text>
   <rect x="51" y="267" width="80" height="32" rx="10"/>
   <rect x="49"
         y="265"
         width="80"
         height="32"
         class="terminal"
         rx="10"/>
   <text class="terminal" x="59" y="285">INTEGER</text>
   <rect x="51" y="311" width="78" height="32" rx="10"/>
   <rect x="49"
         y="309"
         width="78"
         height="32"
         class="terminal"
         rx="10"/>
   <text class="terminal" x="59" y="329">NUMBER</text>
   <rect x="51" y="355" width="74" height="32" rx="10"/>
   <rect x="49"
         y="353"
         width="74"
         height="32"
         class="terminal"
         rx="10"/>
   <text class="terminal" x="59" y="373">SCALAR</text>
   <rect x="51" y="399" width="72" height="32" rx="10"/>
   <rect x="49"
         y="397"
         width="72"
         height="32"
         class="terminal"
         rx="10"/>
   <text class="terminal" x="59" y="417">STRING</text>
   <rect x="51" y="443" width="54" height="32" rx="10"/>
   <rect x="49"
         y="441"
         width="54"
         height="32"
         class="terminal"
         rx="10"/>
   <text class="terminal" x="59" y="461">TEXT</text>
   <rect x="51" y="487" width="92" height="32" rx="10"/>
   <rect x="49"
         y="485"
         width="92"
         height="32"
         class="terminal"
         rx="10"/>
   <text class="terminal" x="59" y="505">UNSIGNED</text>
   <rect x="51" y="531" width="56" height="32" rx="10"/>
   <rect x="49"
         y="529"
         width="56"
         height="32"
         class="terminal"
         rx="10"/>
   <text class="terminal" x="59" y="549">UUID</text>
   <rect x="51" y="575" width="86" height="32" rx="10"/>
   <rect x="49"
         y="573"
         width="86"
         height="32"
         class="terminal"
         rx="10"/>
   <text class="terminal" x="59" y="593">VARCHAR</text>
   <rect x="157" y="575" width="26" height="32" rx="10"/>
   <rect x="155"
         y="573"
         width="26"
         height="32"
         class="terminal"
         rx="10"/>
   <text class="terminal" x="165" y="593">(</text>
   <a xmlns:xlink="http://www.w3.org/1999/xlink"
      xlink:href="../../sql_types#unsigned"
      xlink:title="length">
      <rect x="203" y="575" width="60" height="32"/>
      <rect x="201" y="573" width="60" height="32" class="nonterminal"/>
      <text class="nonterminal" x="211" y="593">length</text>
   </a>
   <rect x="283" y="575" width="26" height="32" rx="10"/>
   <rect x="281"
         y="573"
         width="26"
         height="32"
         class="terminal"
         rx="10"/>
   <text class="terminal" x="291" y="593">)</text>
   <path class="line"
         d="m17 17 h2 m20 0 h10 m58 0 h10 m0 0 h200 m-298 0 h20 m278 0 h20 m-318 0 q10 0 10 10 m298 0 q0 -10 10 -10 m-308 10 v24 m298 0 v-24 m-298 24 q0 10 10 10 m278 0 q10 0 10 -10 m-288 10 h10 m86 0 h10 m0 0 h172 m-288 -10 v20 m298 0 v-20 m-298 20 v24 m298 0 v-24 m-298 24 q0 10 10 10 m278 0 q10 0 10 -10 m-288 10 h10 m90 0 h10 m0 0 h168 m-288 -10 v20 m298 0 v-20 m-298 20 v24 m298 0 v-24 m-298 24 q0 10 10 10 m278 0 q10 0 10 -10 m-288 10 h10 m82 0 h10 m0 0 h176 m-288 -10 v20 m298 0 v-20 m-298 20 v24 m298 0 v-24 m-298 24 q0 10 10 10 m278 0 q10 0 10 -10 m-288 10 h10 m76 0 h10 m0 0 h182 m-288 -10 v20 m298 0 v-20 m-298 20 v24 m298 0 v-24 m-298 24 q0 10 10 10 m278 0 q10 0 10 -10 m-288 10 h10 m44 0 h10 m0 0 h214 m-288 -10 v20 m298 0 v-20 m-298 20 v24 m298 0 v-24 m-298 24 q0 10 10 10 m278 0 q10 0 10 -10 m-288 10 h10 m80 0 h10 m0 0 h178 m-288 -10 v20 m298 0 v-20 m-298 20 v24 m298 0 v-24 m-298 24 q0 10 10 10 m278 0 q10 0 10 -10 m-288 10 h10 m78 0 h10 m0 0 h180 m-288 -10 v20 m298 0 v-20 m-298 20 v24 m298 0 v-24 m-298 24 q0 10 10 10 m278 0 q10 0 10 -10 m-288 10 h10 m74 0 h10 m0 0 h184 m-288 -10 v20 m298 0 v-20 m-298 20 v24 m298 0 v-24 m-298 24 q0 10 10 10 m278 0 q10 0 10 -10 m-288 10 h10 m72 0 h10 m0 0 h186 m-288 -10 v20 m298 0 v-20 m-298 20 v24 m298 0 v-24 m-298 24 q0 10 10 10 m278 0 q10 0 10 -10 m-288 10 h10 m54 0 h10 m0 0 h204 m-288 -10 v20 m298 0 v-20 m-298 20 v24 m298 0 v-24 m-298 24 q0 10 10 10 m278 0 q10 0 10 -10 m-288 10 h10 m92 0 h10 m0 0 h166 m-288 -10 v20 m298 0 v-20 m-298 20 v24 m298 0 v-24 m-298 24 q0 10 10 10 m278 0 q10 0 10 -10 m-288 10 h10 m56 0 h10 m0 0 h202 m-288 -10 v20 m298 0 v-20 m-298 20 v24 m298 0 v-24 m-298 24 q0 10 10 10 m278 0 q10 0 10 -10 m-288 10 h10 m86 0 h10 m0 0 h10 m26 0 h10 m0 0 h10 m60 0 h10 m0 0 h10 m26 0 h10 m23 -572 h-3"/>
   <polygon points="347 17 355 13 355 21"/>
   <polygon points="347 17 339 13 339 21"/>
</svg>
