<?xml version="1.0" encoding="UTF-8"?>
<svg xmlns="http://www.w3.org/2000/svg" width="819" height="231" viewBox="0 0 819 231">
   <defs>
      <style type="text/css">
    @namespace "http://www.w3.org/2000/svg";
    .line                 {fill: none; stroke: #330000; stroke-width: 1;}
    .bold-line            {stroke: #140000; shape-rendering: crispEdges; stroke-width: 2;}
    .thin-line            {stroke: #1F0000; shape-rendering: crispEdges}
    .filled               {fill: #330000; stroke: none;}
    text.terminal         {font-family: Verdana, Sans-serif;
                            font-size: 12px;
                            fill: #140000;
                            font-weight: bold;
                          }
    text.nonterminal      {font-family: Verdana, Sans-serif;
                            font-size: 12px;
                            fill: #1A0000;
                            font-weight: normal;
                          }
    text.regexp           {font-family: Verdana, Sans-serif;
                            font-size: 12px;
                            fill: #1F0000;
                            font-weight: normal;
                          }
    rect, circle, polygon {fill: #330000; stroke: #330000;}
    rect.terminal         {fill: #FF4D4D; stroke: #330000; stroke-width: 1;}
    rect.nonterminal      {fill: #FF9E9E; stroke: #330000; stroke-width: 1;}
    rect.text             {fill: none; stroke: none;}
    polygon.regexp        {fill: #FFC7C7; stroke: #330000; stroke-width: 1;}
  </style>
      <style class="darkreader darkreader--sync" media="screen"/>
   </defs>
   <polygon points="11 61 3 57 3 65"/>
   <polygon points="19 61 11 57 11 65"/>
   <rect x="33" y="47" width="74" height="32" rx="10"/>
   <rect x="31"
         y="45"
         width="74"
         height="32"
         class="terminal"
         rx="10"/>
   <text class="terminal" x="41" y="65">UPDATE</text>
   <a xmlns:xlink="http://www.w3.org/1999/xlink"
      xlink:href="../object"
      xlink:title="table">
      <rect x="127" y="47" width="52" height="32"/>
      <rect x="125" y="45" width="52" height="32" class="nonterminal"/>
      <text class="nonterminal" x="135" y="65">table</text>
   </a>
   <rect x="199" y="47" width="44" height="32" rx="10"/>
   <rect x="197"
         y="45"
         width="44"
         height="32"
         class="terminal"
         rx="10"/>
   <text class="terminal" x="207" y="65">SET</text>
   <a xmlns:xlink="http://www.w3.org/1999/xlink"
      xlink:href="../object"
      xlink:title="column">
      <rect x="283" y="47" width="64" height="32"/>
      <rect x="281" y="45" width="64" height="32" class="nonterminal"/>
      <text class="nonterminal" x="291" y="65">column</text>
   </a>
   <rect x="367" y="47" width="30" height="32" rx="10"/>
   <rect x="365"
         y="45"
         width="30"
         height="32"
         class="terminal"
         rx="10"/>
   <text class="terminal" x="375" y="65">=</text>
   <a xmlns:xlink="http://www.w3.org/1999/xlink"
      xlink:href="#expression"
      xlink:title="expression">
      <rect x="417" y="47" width="90" height="32"/>
      <rect x="415" y="45" width="90" height="32" class="nonterminal"/>
      <text class="nonterminal" x="425" y="65">expression</text>
   </a>
   <rect x="283" y="3" width="24" height="32" rx="10"/>
   <rect x="281"
         y="1"
         width="24"
         height="32"
         class="terminal"
         rx="10"/>
   <text class="terminal" x="291" y="21">,</text>
   <rect x="45" y="133" width="60" height="32" rx="10"/>
   <rect x="43"
         y="131"
         width="60"
         height="32"
         class="terminal"
         rx="10"/>
   <text class="terminal" x="53" y="151">FROM</text>
   <rect x="125" y="133" width="26" height="32" rx="10"/>
   <rect x="123"
         y="131"
         width="26"
         height="32"
         class="terminal"
         rx="10"/>
   <text class="terminal" x="133" y="151">(</text>
   <a xmlns:xlink="http://www.w3.org/1999/xlink"
      xlink:href="../select"
      xlink:title="select">
      <rect x="191" y="133" width="58" height="32"/>
      <rect x="189" y="131" width="58" height="32" class="nonterminal"/>
      <text class="nonterminal" x="199" y="151">select</text>
   </a>
   <a xmlns:xlink="http://www.w3.org/1999/xlink"
      xlink:href="../values"
      xlink:title="values">
      <rect x="191" y="177" width="60" height="32"/>
      <rect x="189" y="175" width="60" height="32" class="nonterminal"/>
      <text class="nonterminal" x="199" y="195">values</text>
   </a>
   <rect x="291" y="133" width="26" height="32" rx="10"/>
   <rect x="289"
         y="131"
         width="26"
         height="32"
         class="terminal"
         rx="10"/>
   <text class="terminal" x="299" y="151">)</text>
   <rect x="377" y="197" width="38" height="32" rx="10"/>
   <rect x="375"
         y="195"
         width="38"
         height="32"
         class="terminal"
         rx="10"/>
   <text class="terminal" x="385" y="215">AS</text>
   <a xmlns:xlink="http://www.w3.org/1999/xlink"
      xlink:href="../object"
      xlink:title="name">
      <rect x="455" y="165" width="56" height="32"/>
      <rect x="453" y="163" width="56" height="32" class="nonterminal"/>
      <text class="nonterminal" x="463" y="183">name</text>
   </a>
   <rect x="591" y="133" width="70" height="32" rx="10"/>
   <rect x="589"
         y="131"
         width="70"
         height="32"
         class="terminal"
         rx="10"/>
   <text class="terminal" x="599" y="151">WHERE</text>
   <a xmlns:xlink="http://www.w3.org/1999/xlink"
      xlink:href="#expression"
      xlink:title="expression">
      <rect x="681" y="133" width="90" height="32"/>
      <rect x="679" y="131" width="90" height="32" class="nonterminal"/>
      <text class="nonterminal" x="689" y="151">expression</text>
   </a>
   <path class="line"
         d="m19 61 h2 m0 0 h10 m74 0 h10 m0 0 h10 m52 0 h10 m0 0 h10 m44 0 h10 m20 0 h10 m64 0 h10 m0 0 h10 m30 0 h10 m0 0 h10 m90 0 h10 m-264 0 l20 0 m-1 0 q-9 0 -9 -10 l0 -24 q0 -10 10 -10 m244 44 l20 0 m-20 0 q10 0 10 -10 l0 -24 q0 -10 -10 -10 m-244 0 h10 m24 0 h10 m0 0 h200 m22 44 l2 0 m2 0 l2 0 m2 0 l2 0 m-546 54 l2 0 m2 0 l2 0 m2 0 l2 0 m22 0 h10 m0 0 h496 m-526 0 h20 m506 0 h20 m-546 0 q10 0 10 10 m526 0 q0 -10 10 -10 m-536 10 v12 m526 0 v-12 m-526 12 q0 10 10 10 m506 0 q10 0 10 -10 m-516 10 h10 m60 0 h10 m0 0 h10 m26 0 h10 m20 0 h10 m58 0 h10 m0 0 h2 m-100 0 h20 m80 0 h20 m-120 0 q10 0 10 10 m100 0 q0 -10 10 -10 m-110 10 v24 m100 0 v-24 m-100 24 q0 10 10 10 m80 0 q10 0 10 -10 m-90 10 h10 m60 0 h10 m20 -44 h10 m26 0 h10 m20 0 h10 m0 0 h164 m-194 0 h20 m174 0 h20 m-214 0 q10 0 10 10 m194 0 q0 -10 10 -10 m-204 10 v12 m194 0 v-12 m-194 12 q0 10 10 10 m174 0 q10 0 10 -10 m-164 10 h10 m0 0 h48 m-78 0 h20 m58 0 h20 m-98 0 q10 0 10 10 m78 0 q0 -10 10 -10 m-88 10 v12 m78 0 v-12 m-78 12 q0 10 10 10 m58 0 q10 0 10 -10 m-68 10 h10 m38 0 h10 m20 -32 h10 m56 0 h10 m60 -64 h10 m0 0 h190 m-220 0 h20 m200 0 h20 m-240 0 q10 0 10 10 m220 0 q0 -10 10 -10 m-230 10 v12 m220 0 v-12 m-220 12 q0 10 10 10 m200 0 q10 0 10 -10 m-210 10 h10 m70 0 h10 m0 0 h10 m90 0 h10 m23 -32 h-3"/>
   <polygon points="809 115 817 111 817 119"/>
   <polygon points="809 115 801 111 801 119"/>
</svg>
