<?xml version="1.0" encoding="UTF-8" standalone="no"?>
<svg
   width="325"
   height="81"
   version="1.1"
   id="svg12"
   sodipodi:docname="VALUES.svg"
   inkscape:version="1.3.1 (91b66b0783, 2023-11-16)"
   xmlns:inkscape="http://www.inkscape.org/namespaces/inkscape"
   xmlns:sodipodi="http://sodipodi.sourceforge.net/DTD/sodipodi-0.dtd"
   xmlns:xlink="http://www.w3.org/1999/xlink"
   xmlns="http://www.w3.org/2000/svg"
   xmlns:svg="http://www.w3.org/2000/svg">
  <sodipodi:namedview
     id="namedview12"
     pagecolor="#ffffff"
     bordercolor="#000000"
     borderopacity="0.25"
     inkscape:showpageshadow="2"
     inkscape:pageopacity="0.0"
     inkscape:pagecheckerboard="0"
     inkscape:deskcolor="#d1d1d1"
     inkscape:zoom="3.2030769"
     inkscape:cx="162.5"
     inkscape:cy="40.429875"
     inkscape:window-width="1920"
     inkscape:window-height="1032"
     inkscape:window-x="0"
     inkscape:window-y="25"
     inkscape:window-maximized="1"
     inkscape:current-layer="svg12" />
  <defs
     id="defs1">
    <style
       type="text/css"
       id="style1">
    @namespace &quot;http://www.w3.org/2000/svg&quot;;
    .line                 {fill: none; stroke: #320000; stroke-width: 1;}
    .bold-line            {stroke: #FFE0E0; shape-rendering: crispEdges; stroke-width: 2;}
    .thin-line            {stroke: #1F0000; shape-rendering: crispEdges}
    .filled               {fill: #320000; stroke: none;}
    text.terminal         {font-family: HelveticaNeueCyr, Sans-serif;
                            font-size: 14px;
                            fill: #FFE0E0;
                            font-weight: bold;
                          }
    text.nonterminal      {font-family: HelveticaNeueCyr, Sans-serif;
                            font-size: 14px;
                            fill: #FFE0E0;
                            font-weight: normal;
                          }
    text.regexp           {font-family: HelveticaNeueCyr, Sans-serif;
                            font-size: 14px;
                            fill: #1F0000;
                            font-weight: normal;
                          }
    rect, circle, polygon {fill: #320000; stroke: #320000;}
    rect.terminal         {fill: #FF0000; stroke: #320000; stroke-width: 1;}
    rect.nonterminal      {fill: #FF3F3F; stroke: #320000; stroke-width: 1;}
    rect.text             {fill: none; stroke: none;}
    polygon.regexp        {fill: #FF5E5E; stroke: #320000; stroke-width: 1;}
  </style>
  </defs>
  <path
     id="polygon1"
     style="fill:#320000;stroke:#320000"
     d="M 9,61 1,57 v 8 z" />
  <path
     id="polygon2"
     style="fill:#320000;stroke:#320000"
     d="M 17,61 9,57 v 8 z" />
  <path
     id="rect2"
     style="fill:#320000;stroke:#320000"
     d="m 41,47 h 52 c 5.54,0 10,4.46 10,10 v 12 c 0,5.54 -4.46,10 -10,10 H 41 C 35.46,79 31,74.54 31,69 V 57 c 0,-5.54 4.46,-10 10,-10 z" />
  <path
     id="rect3"
     class="terminal"
     style="fill:#ff0000;stroke:#320000"
     d="m 39,45 h 52 c 5.54,0 10,4.46 10,10 v 12 c 0,5.54 -4.46,10 -10,10 H 39 C 33.46,77 29,72.54 29,67 V 55 c 0,-5.54 4.46,-10 10,-10 z" />
  <path
     d="M 38.888,55.032 42.15,65 h 2.478 l 3.318,-9.968 h -2.268 l -2.268,7 -2.24,-7 z m 14.209995,-0.014 h -2.254 l -3.794,9.982 h 2.24 l 0.812,-2.226 h 3.71 l 0.784,2.226 h 2.296 z m 0.182,6.16 h -2.646 l 1.33,-3.71 z m 11.507992,1.946 h -4.872 v -8.092 h -2.184 V 65 h 7.056 z m 9.730006,-8.092 h -2.184 v 5.964 c 0,1.47 -0.35,2.394 -2.03,2.394 -1.708,0 -2.142,-0.868 -2.142,-2.394 v -5.964 h -2.184 v 5.964 c 0,2.842 1.33,4.2 4.298,4.2 2.912,0 4.242,-1.33 4.242,-4.172 z m 9.365989,0 h -7.476 V 65 h 7.574 v -1.834 h -5.404 v -2.45 h 4.872 v -1.722 h -4.872 v -2.17 h 5.306 z M 92.857992,58 c -0.042,-2.226 -1.736,-3.178 -3.836,-3.178 -2.324,0 -3.836,1.176 -3.836,2.982 0,2.03 1.554,2.436 3.178,2.898 2.058,0.588 2.73,0.728 2.73,1.512 0,0.826 -0.7,1.33 -1.848,1.33 -1.33,0 -2.212,-0.532 -2.254,-1.876 h -2.17 c 0.028,2.254 1.624,3.556 4.326,3.556 2.03,0 4.102,-0.868 4.102,-3.22 0,-1.666 -1.134,-2.352 -2.912,-2.856 -1.988,-0.56 -3.052,-0.63 -3.052,-1.498 0,-0.714 0.602,-1.134 1.61,-1.134 1.162,0 1.806,0.518 1.89,1.484 z"
     id="text3"
     class="terminal"
     style="font-weight:bold;font-size:14px;font-family:HelveticaNeueCyr, Sans-serif;fill:#ffe0e0"
     aria-label="VALUES" />
  <path
     id="rect4"
     style="fill:#320000;stroke:#320000"
     d="m 133,47 h 6 c 5.54,0 10,4.46 10,10 v 12 c 0,5.54 -4.46,10 -10,10 h -6 c -5.54,0 -10,-4.46 -10,-10 V 57 c 0,-5.54 4.46,-10 10,-10 z" />
  <path
     id="rect5"
     class="terminal"
     style="fill:#ff0000;stroke:#320000"
     d="m 131,45 h 6 c 5.54,0 10,4.46 10,10 v 12 c 0,5.54 -4.46,10 -10,10 h -6 c -5.54,0 -10,-4.46 -10,-10 V 55 c 0,-5.54 4.46,-10 10,-10 z" />
  <path
     d="m 135.228,54.878 h -1.652 c -1.232,1.792 -1.834,4.27 -1.834,6.412 0,2.128 0.658,4.438 1.834,6.202 h 1.68 c -0.994,-1.988 -1.582,-4.018 -1.582,-6.244 0,-2.408 0.49,-4.242 1.554,-6.37 z"
     id="text5"
     class="terminal"
     style="font-weight:bold;font-size:14px;font-family:HelveticaNeueCyr, Sans-serif;fill:#ffe0e0"
     aria-label="(" />
  <a
     xlink:href="#row"
     xlink:title="row"
     id="a7">
    <path
       id="rect6"
       style="fill:#320000;stroke:#320000"
       d="m 189,47 h 42 v 32 h -42 z" />
    <path
       id="rect7"
       class="nonterminal"
       style="fill:#ff3f3f;stroke:#320000"
       d="m 187,45 h 42 v 32 h -42 z" />
    <path
       d="m 201.662,57.608 c -1.288,0 -2.17,0.504 -2.674,1.722 v -1.554 h -1.134 V 65 h 1.19 v -3.052 c 0,-1.624 0.35,-3.122 2.31,-3.122 0.126,0 0.182,0 0.308,0.014 z m 3.80801,-0.042 c -2.184,0 -3.542,1.47 -3.542,3.85 0,2.38 1.316,3.808 3.528,3.808 2.198,0 3.472,-1.428 3.472,-3.878 0,-2.394 -1.274,-3.78 -3.458,-3.78 z m -0.028,0.994 c 1.4,0 2.268,1.092 2.268,2.814 0,1.778 -0.84,2.842 -2.24,2.842 -1.456,0 -2.31,-1.05 -2.31,-2.828 0,-1.722 0.882,-2.828 2.282,-2.828 z M 209.684,57.776 212.008,65 h 1.288 l 1.47,-5.712 1.484,5.712 h 1.26 l 2.31,-7.224 h -1.232 l -1.638,5.95 -1.526,-5.95 h -1.302 l -1.47,5.95 -1.652,-5.95 z"
       id="text7"
       class="nonterminal"
       style="font-size:14px;font-family:HelveticaNeueCyr, Sans-serif;fill:#ffe0e0"
       aria-label="row" />
  </a>
  <path
     id="rect8"
     style="fill:#320000;stroke:#320000"
     d="m 199,3 h 4 c 5.54,0 10,4.46 10,10 v 12 c 0,5.54 -4.46,10 -10,10 h -4 c -5.54,0 -10,-4.46 -10,-10 V 13 c 0,-5.54 4.46,-10 10,-10 z" />
  <path
     id="rect9"
     class="terminal"
     style="fill:#ff0000;stroke:#320000"
     d="m 197,1 h 4 c 5.54,0 10,4.46 10,10 v 12 c 0,5.54 -4.46,10 -10,10 h -4 c -5.54,0 -10,-4.46 -10,-10 V 11 c 0,-5.54 4.46,-10 10,-10 z" />
  <path
     d="M 200.052,18.816 H 197.84 V 21 h 0.994 c -0.042,0.742 -0.336,1.148 -0.994,1.344 v 0.98 c 1.512,-0.238 2.212,-1.106 2.212,-2.73 z"
     id="text9"
     class="terminal"
     style="font-weight:bold;font-size:14px;font-family:HelveticaNeueCyr, Sans-serif;fill:#ffe0e0"
     aria-label="," />
  <path
     id="rect10"
     style="fill:#320000;stroke:#320000"
     d="m 281,47 h 6 c 5.54,0 10,4.46 10,10 v 12 c 0,5.54 -4.46,10 -10,10 h -6 c -5.54,0 -10,-4.46 -10,-10 V 57 c 0,-5.54 4.46,-10 10,-10 z" />
  <path
     id="rect11"
     class="terminal"
     style="fill:#ff0000;stroke:#320000"
     d="m 279,45 h 6 c 5.54,0 10,4.46 10,10 v 12 c 0,5.54 -4.46,10 -10,10 h -6 c -5.54,0 -10,-4.46 -10,-10 V 55 c 0,-5.54 4.46,-10 10,-10 z" />
  <path
     d="m 278.944,54.878 c 1.036,1.862 1.568,4.074 1.568,6.202 0,2.464 -0.462,4.186 -1.554,6.412 h 1.666 c 1.204,-1.596 1.834,-4.424 1.834,-6.384 0,-2.198 -0.658,-4.382 -1.862,-6.23 z"
     id="text11"
     class="terminal"
     style="font-weight:bold;font-size:14px;font-family:HelveticaNeueCyr, Sans-serif;fill:#ffe0e0"
     aria-label=")" />
  <path
     class="line"
     d="m17 61 h2 m0 0 h10 m72 0 h10 m0 0 h10 m26 0 h10 m20 0 h10 m42 0 h10 m-82 0 l20 0 m-1 0 q-9 0 -9 -10 l0 -24 q0 -10 10 -10 m62 44 l20 0 m-20 0 q10 0 10 -10 l0 -24 q0 -10 -10 -10 m-62 0 h10 m24 0 h10 m0 0 h18 m20 44 h10 m26 0 h10 m3 0 h-3"
     id="path11" />
  <path
     id="polygon11"
     style="fill:#320000;stroke:#320000"
     d="m 315,61 8,-4 v 8 z" />
  <path
     id="polygon12"
     style="fill:#320000;stroke:#320000"
     d="m 315,61 -8,-4 v 8 z" />
</svg>
