<?xml version="1.0" encoding="UTF-8"?>
<svg xmlns="http://www.w3.org/2000/svg" width="185" height="433">
   <defs>
      <style type="text/css">
    @namespace "http://www.w3.org/2000/svg";
    .line                 {fill: none; stroke: #320000; stroke-width: 1;}
    .bold-line            {stroke: #FFE0E0; shape-rendering: crispEdges; stroke-width: 2;}
    .thin-line            {stroke: #1F0000; shape-rendering: crispEdges}
    .filled               {fill: #320000; stroke: none;}
    text.terminal         {font-family: HelveticaNeueCyr, Sans-serif;
                            font-size: 14px;
                            fill: #FFE0E0;
                            font-weight: bold;
                          }
    text.nonterminal      {font-family: HelveticaNeueCyr, Sans-serif;
                            font-size: 14px;
                            fill: #FFE0E0;
                            font-weight: normal;
                          }
    text.regexp           {font-family: HelveticaNeueCyr, Sans-serif;
                            font-size: 14px;
                            fill: #1F0000;
                            font-weight: normal;
                          }
    rect, circle, polygon {fill: #320000; stroke: #320000;}
    rect.terminal         {fill: #FF0000; stroke: #320000; stroke-width: 1;}
    rect.nonterminal      {fill: #FF3F3F; stroke: #320000; stroke-width: 1;}
    rect.text             {fill: none; stroke: none;}
    polygon.regexp        {fill: #FF5E5E; stroke: #320000; stroke-width: 1;}
  </style>
   </defs>
   <polygon points="9 17 1 13 1 21"/>
   <polygon points="17 17 9 13 9 21"/>
   <rect x="51" y="3" width="56" height="32" rx="10"/>
   <rect x="49"
          y="1"
          width="56"
          height="32"
          class="terminal"
          rx="10"/>
   <text class="terminal" x="59" y="21">TRUE</text>
   <rect x="51" y="47" width="62" height="32" rx="10"/>
   <rect x="49"
          y="45"
          width="62"
          height="32"
          class="terminal"
          rx="10"/>
   <text class="terminal" x="59" y="65">FALSE</text>
   <rect x="51" y="91" width="56" height="32" rx="10"/>
   <rect x="49"
          y="89"
          width="56"
          height="32"
          class="terminal"
          rx="10"/>
   <text class="terminal" x="59" y="109">NULL</text>
   <rect x="51" y="135" width="26" height="32" rx="10"/>
   <rect x="49"
          y="133"
          width="26"
          height="32"
          class="terminal"
          rx="10"/>
   <text class="terminal" x="59" y="153">?</text>
   <a xmlns:xlink="http://www.w3.org/1999/xlink"
       xlink:href="#INTEGER"
       xlink:title="INTEGER">
      <rect x="51" y="179" width="74" height="32"/>
      <rect x="49" y="177" width="74" height="32" class="nonterminal"/>
      <text class="nonterminal" x="59" y="197">INTEGER</text>
   </a>
   <a xmlns:xlink="http://www.w3.org/1999/xlink"
       xlink:href="#UNSIGNED"
       xlink:title="UNSIGNED">
      <rect x="51" y="223" width="86" height="32"/>
      <rect x="49" y="221" width="86" height="32" class="nonterminal"/>
      <text class="nonterminal" x="59" y="241">UNSIGNED</text>
   </a>
   <a xmlns:xlink="http://www.w3.org/1999/xlink"
       xlink:href="#DOUBLE"
       xlink:title="DOUBLE">
      <rect x="51" y="267" width="70" height="32"/>
      <rect x="49" y="265" width="70" height="32" class="nonterminal"/>
      <text class="nonterminal" x="59" y="285">DOUBLE</text>
   </a>
   <a xmlns:xlink="http://www.w3.org/1999/xlink"
       xlink:href="#DECIMAL"
       xlink:title="DECIMAL">
      <rect x="51" y="311" width="76" height="32"/>
      <rect x="49" y="309" width="76" height="32" class="nonterminal"/>
      <text class="nonterminal" x="59" y="329">DECIMAL</text>
   </a>
   <a xmlns:xlink="http://www.w3.org/1999/xlink"
       xlink:href="#STRING"
       xlink:title="STRING">
      <rect x="51" y="355" width="66" height="32"/>
      <rect x="49" y="353" width="66" height="32" class="nonterminal"/>
      <text class="nonterminal" x="59" y="373">STRING</text>
   </a>
   <a xmlns:xlink="http://www.w3.org/1999/xlink"
       xlink:href="#row"
       xlink:title="row">
      <rect x="51" y="399" width="42" height="32"/>
      <rect x="49" y="397" width="42" height="32" class="nonterminal"/>
      <text class="nonterminal" x="59" y="417">row</text>
   </a>
   <path class="line"
          d="m17 17 h2 m20 0 h10 m56 0 h10 m0 0 h30 m-126 0 h20 m106 0 h20 m-146 0 q10 0 10 10 m126 0 q0 -10 10 -10 m-136 10 v24 m126 0 v-24 m-126 24 q0 10 10 10 m106 0 q10 0 10 -10 m-116 10 h10 m62 0 h10 m0 0 h24 m-116 -10 v20 m126 0 v-20 m-126 20 v24 m126 0 v-24 m-126 24 q0 10 10 10 m106 0 q10 0 10 -10 m-116 10 h10 m56 0 h10 m0 0 h30 m-116 -10 v20 m126 0 v-20 m-126 20 v24 m126 0 v-24 m-126 24 q0 10 10 10 m106 0 q10 0 10 -10 m-116 10 h10 m26 0 h10 m0 0 h60 m-116 -10 v20 m126 0 v-20 m-126 20 v24 m126 0 v-24 m-126 24 q0 10 10 10 m106 0 q10 0 10 -10 m-116 10 h10 m74 0 h10 m0 0 h12 m-116 -10 v20 m126 0 v-20 m-126 20 v24 m126 0 v-24 m-126 24 q0 10 10 10 m106 0 q10 0 10 -10 m-116 10 h10 m86 0 h10 m-116 -10 v20 m126 0 v-20 m-126 20 v24 m126 0 v-24 m-126 24 q0 10 10 10 m106 0 q10 0 10 -10 m-116 10 h10 m70 0 h10 m0 0 h16 m-116 -10 v20 m126 0 v-20 m-126 20 v24 m126 0 v-24 m-126 24 q0 10 10 10 m106 0 q10 0 10 -10 m-116 10 h10 m76 0 h10 m0 0 h10 m-116 -10 v20 m126 0 v-20 m-126 20 v24 m126 0 v-24 m-126 24 q0 10 10 10 m106 0 q10 0 10 -10 m-116 10 h10 m66 0 h10 m0 0 h20 m-116 -10 v20 m126 0 v-20 m-126 20 v24 m126 0 v-24 m-126 24 q0 10 10 10 m106 0 q10 0 10 -10 m-116 10 h10 m42 0 h10 m0 0 h44 m23 -396 h-3"/>
   <polygon points="175 17 183 13 183 21"/>
   <polygon points="175 17 167 13 167 21"/>
</svg>
