<?xml version="1.0" encoding="UTF-8" standalone="no"?>
<svg
   width="185"
   height="433"
   version="1.1"
   id="svg22"
   sodipodi:docname="value.svg"
   inkscape:version="1.3.1 (91b66b0783, 2023-11-16)"
   xmlns:inkscape="http://www.inkscape.org/namespaces/inkscape"
   xmlns:sodipodi="http://sodipodi.sourceforge.net/DTD/sodipodi-0.dtd"
   xmlns:xlink="http://www.w3.org/1999/xlink"
   xmlns="http://www.w3.org/2000/svg"
   xmlns:svg="http://www.w3.org/2000/svg">
  <sodipodi:namedview
     id="namedview22"
     pagecolor="#ffffff"
     bordercolor="#000000"
     borderopacity="0.25"
     inkscape:showpageshadow="2"
     inkscape:pageopacity="0.0"
     inkscape:pagecheckerboard="0"
     inkscape:deskcolor="#d1d1d1"
     inkscape:zoom="1.9745958"
     inkscape:cx="92.423977"
     inkscape:cy="216.5"
     inkscape:window-width="1920"
     inkscape:window-height="1032"
     inkscape:window-x="0"
     inkscape:window-y="25"
     inkscape:window-maximized="1"
     inkscape:current-layer="svg22" />
  <defs
     id="defs1">
    <style
       type="text/css"
       id="style1">
    @namespace &quot;http://www.w3.org/2000/svg&quot;;
    .line                 {fill: none; stroke: #320000; stroke-width: 1;}
    .bold-line            {stroke: #FFE0E0; shape-rendering: crispEdges; stroke-width: 2;}
    .thin-line            {stroke: #1F0000; shape-rendering: crispEdges}
    .filled               {fill: #320000; stroke: none;}
    text.terminal         {font-family: HelveticaNeueCyr, Sans-serif;
                            font-size: 14px;
                            fill: #FFE0E0;
                            font-weight: bold;
                          }
    text.nonterminal      {font-family: HelveticaNeueCyr, Sans-serif;
                            font-size: 14px;
                            fill: #FFE0E0;
                            font-weight: normal;
                          }
    text.regexp           {font-family: HelveticaNeueCyr, Sans-serif;
                            font-size: 14px;
                            fill: #1F0000;
                            font-weight: normal;
                          }
    rect, circle, polygon {fill: #320000; stroke: #320000;}
    rect.terminal         {fill: #FF0000; stroke: #320000; stroke-width: 1;}
    rect.nonterminal      {fill: #FF3F3F; stroke: #320000; stroke-width: 1;}
    rect.text             {fill: none; stroke: none;}
    polygon.regexp        {fill: #FF5E5E; stroke: #320000; stroke-width: 1;}
  </style>
  </defs>
  <path
     id="polygon1"
     style="fill:#320000;stroke:#320000"
     d="M 9,17 1,13 v 8 z" />
  <path
     id="polygon2"
     style="fill:#320000;stroke:#320000"
     d="M 17,17 9,13 v 8 z" />
  <path
     id="rect2"
     style="fill:#320000;stroke:#320000"
     d="m 61,3 h 36 c 5.54,0 10,4.46 10,10 v 12 c 0,5.54 -4.46,10 -10,10 H 61 C 55.46,35 51,30.54 51,25 V 13 C 51,7.46 55.46,3 61,3 Z" />
  <path
     id="rect3"
     class="terminal"
     style="fill:#ff0000;stroke:#320000"
     d="m 59,1 h 36 c 5.54,0 10,4.46 10,10 v 12 c 0,5.54 -4.46,10 -10,10 H 59 C 53.46,33 49,28.54 49,23 V 11 C 49,5.46 53.46,1 59,1 Z" />
  <path
     d="m 67.372,11.032 h -8.19 v 1.862 h 2.996 V 21 h 2.198 v -8.106 h 2.996 z m 1.232001,0 V 21 h 2.17 v -3.906 h 1.946 c 1.428,0 1.848,0.49 1.988,1.862 0.056,0.546 0.056,1.54 0.308,2.044 h 2.268 c -0.392,-0.364 -0.42,-1.736 -0.476,-2.366 -0.084,-0.98 -0.364,-2.1 -1.47,-2.324 0.994,-0.378 1.582,-1.288 1.582,-2.45 0,-2.002 -1.526,-2.828 -3.36,-2.828 z m 2.17,1.722 h 2.17 c 0.924,0 1.834,0.196 1.834,1.344 0,1.232 -0.91,1.414 -1.932,1.414 h -2.072 z m 16.338002,-1.722 h -2.184 v 5.964 c 0,1.47 -0.35,2.394 -2.03,2.394 -1.708,0 -2.142,-0.868 -2.142,-2.394 v -5.964 h -2.184 v 5.964 c 0,2.842 1.33,4.2 4.298,4.2 2.912,0 4.242,-1.33 4.242,-4.172 z m 9.365989,0 h -7.476 V 21 h 7.574 v -1.834 h -5.404 v -2.45 h 4.872 v -1.722 h -4.872 v -2.17 h 5.306 z"
     id="text3"
     class="terminal"
     style="font-weight:bold;font-size:14px;font-family:HelveticaNeueCyr, Sans-serif;fill:#ffe0e0"
     aria-label="TRUE" />
  <path
     id="rect4"
     style="fill:#320000;stroke:#320000"
     d="m 61,47 h 42 c 5.54,0 10,4.46 10,10 v 12 c 0,5.54 -4.46,10 -10,10 H 61 C 55.46,79 51,74.54 51,69 V 57 c 0,-5.54 4.46,-10 10,-10 z" />
  <path
     id="rect5"
     class="terminal"
     style="fill:#ff0000;stroke:#320000"
     d="m 59,45 h 42 c 5.54,0 10,4.46 10,10 v 12 c 0,5.54 -4.46,10 -10,10 H 59 C 53.46,77 49,72.54 49,67 V 55 c 0,-5.54 4.46,-10 10,-10 z" />
  <path
     d="M 66.994,55.032 H 59.966 V 65 h 2.184 v -4.088 h 4.214 V 59.176 H 62.15 v -2.31 h 4.844 z m 5.460001,-0.014 h -2.254 l -3.794,9.982 h 2.24 l 0.812,-2.226 h 3.71 l 0.784,2.226 h 2.296 z m 0.182,6.16 h -2.646 l 1.33,-3.71 z m 11.507993,1.946 h -4.872 v -8.092 h -2.184 V 65 h 7.056 z M 92.768,58 c -0.042,-2.226 -1.736,-3.178 -3.836,-3.178 -2.324,0 -3.836,1.176 -3.836,2.982 0,2.03 1.554,2.436 3.178,2.898 2.058,0.588 2.73,0.728 2.73,1.512 0,0.826 -0.7,1.33 -1.848,1.33 -1.33,0 -2.212,-0.532 -2.254,-1.876 h -2.17 c 0.028,2.254 1.624,3.556 4.326,3.556 2.03,0 4.102,-0.868 4.102,-3.22 0,-1.666 -1.134,-2.352 -2.912,-2.856 -1.988,-0.56 -3.052,-0.63 -3.052,-1.498 0,-0.714 0.602,-1.134 1.61,-1.134 1.162,0 1.806,0.518 1.89,1.484 z m 9.184,-2.968 H 94.476002 V 65 H 102.05 v -1.834 h -5.403998 v -2.45 H 101.518 v -1.722 h -4.871998 v -2.17 H 101.952 Z"
     id="text5"
     class="terminal"
     style="font-weight:bold;font-size:14px;font-family:HelveticaNeueCyr, Sans-serif;fill:#ffe0e0"
     aria-label="FALSE" />
  <path
     id="rect6"
     style="fill:#320000;stroke:#320000"
     d="m 61,91 h 36 c 5.54,0 10,4.46 10,10 v 12 c 0,5.54 -4.46,10 -10,10 H 61 c -5.54,0 -10,-4.46 -10,-10 v -12 c 0,-5.54 4.46,-10 10,-10 z" />
  <path
     id="rect7"
     class="terminal"
     style="fill:#ff0000;stroke:#320000"
     d="m 59,89 h 36 c 5.54,0 10,4.46 10,10 v 12 c 0,5.54 -4.46,10 -10,10 H 59 c -5.54,0 -10,-4.46 -10,-10 V 99 c 0,-5.54 4.46,-10 10,-10 z" />
  <path
     d="m 59.966,109 h 2.114 v -6.692 L 66.21,109 h 2.184 v -9.968 h -2.1 v 6.678 l -4.102,-6.678 h -2.226 z m 18.857989,-9.968 h -2.184 v 5.964 c 0,1.47 -0.35,2.394 -2.03,2.394 -1.708,0 -2.142,-0.868 -2.142,-2.394 v -5.964 h -2.184 v 5.964 c 0,2.842 1.33,4.2 4.298,4.2 2.912,0 4.242,-1.33 4.242,-4.172 z m 8.945989,8.092 h -4.872 v -8.092 h -2.184 V 109 h 7.056 z m 8.302006,0 h -4.872 v -8.092 h -2.184 V 109 h 7.056 z"
     id="text7"
     class="terminal"
     style="font-weight:bold;font-size:14px;font-family:HelveticaNeueCyr, Sans-serif;fill:#ffe0e0"
     aria-label="NULL" />
  <path
     id="rect8"
     style="fill:#320000;stroke:#320000"
     d="m 61,135 h 6 c 5.54,0 10,4.46 10,10 v 12 c 0,5.54 -4.46,10 -10,10 h -6 c -5.54,0 -10,-4.46 -10,-10 v -12 c 0,-5.54 4.46,-10 10,-10 z" />
  <path
     id="rect9"
     class="terminal"
     style="fill:#ff0000;stroke:#320000"
     d="m 59,133 h 6 c 5.54,0 10,4.46 10,10 v 12 c 0,5.54 -4.46,10 -10,10 h -6 c -5.54,0 -10,-4.46 -10,-10 v -12 c 0,-5.54 4.46,-10 10,-10 z" />
  <path
     d="m 59.434,146.252 h 2.044 c 0.028,-0.952 0.35,-1.722 1.456,-1.722 0.728,0 1.204,0.448 1.204,1.12 0,0.868 -0.728,1.274 -1.316,1.778 -0.924,0.798 -0.966,1.428 -0.966,2.576 h 1.862 c 0,-0.98 0.168,-1.246 0.98,-1.806 0.896,-0.616 1.582,-1.344 1.582,-2.506 0,-1.722 -1.33,-2.87 -3.318,-2.87 -2.24,0 -3.402,1.344 -3.528,3.43 z m 4.424,4.606 h -2.17 V 153 h 2.17 z"
     id="text9"
     class="terminal"
     style="font-weight:bold;font-size:14px;font-family:HelveticaNeueCyr, Sans-serif;fill:#ffe0e0"
     aria-label="?" />
  <a
     xlink:href="../sql_types/#integer"
     xlink:title="INTEGER"
     id="a11">
    <path
       id="rect10"
       style="fill:#320000;stroke:#320000"
       d="m 51,179 h 74 v 32 H 51 Z" />
    <path
       id="rect11"
       class="nonterminal"
       style="fill:#ff3f3f;stroke:#320000"
       d="m 49,177 h 74 v 32 H 49 Z" />
    <path
       d="M 61.478,187.032 H 60.162 V 197 h 1.316 z m 2.198011,0 V 197 h 1.26 v -7.994 l 5.236,7.994 h 1.484 v -9.968 h -1.274 v 8.092 l -5.264,-8.092 z m 17.080002,0 h -8.008 v 1.148 h 3.346 V 197 h 1.316 v -8.82 h 3.346 z m 8.021991,0 h -6.902 V 197 h 6.972 v -1.148 h -5.656 v -3.444 h 5.222 v -1.106 h -5.222 v -3.122 h 5.586 z m 10.304001,4.69 h -4.368 v 1.078 h 3.192 c -0.056,1.918 -1.036,3.346 -3.136,3.346 -2.156,0 -3.514,-1.596 -3.514,-4.088 0,-2.534 1.358,-4.13 3.528,-4.13 1.54,0 2.688,0.868 2.884,2.17 h 1.288 c -0.182,-2.156 -2.17,-3.276 -4.172,-3.276 -3.108,0 -4.844,2.352 -4.844,5.278 0,3.066 1.918,5.138 4.746,5.138 1.386,0 2.38,-0.448 3.22,-1.484 l 0.336,1.246 h 0.84 z m 8.876015,-4.69 h -6.902 V 197 h 6.972 v -1.148 h -5.656 v -3.444 h 5.222 v -1.106 h -5.222 v -3.122 h 5.586 z m 1.652,0 V 197 h 1.316 v -4.312 h 2.618 c 1.806,0 2.24,0.434 2.324,2.114 0.028,0.574 0.014,1.694 0.336,2.198 h 1.512 c -0.532,-0.532 -0.532,-1.54 -0.574,-2.338 -0.056,-1.204 -0.112,-2.156 -1.512,-2.45 1.022,-0.294 1.708,-1.26 1.708,-2.422 0,-2.142 -1.47,-2.758 -3.346,-2.758 z m 1.316,1.12 h 2.828 c 1.176,0 2.268,0.238 2.268,1.722 0,1.638 -1.33,1.764 -2.618,1.764 h -2.478 z"
       id="text11"
       class="nonterminal"
       style="font-size:14px;font-family:HelveticaNeueCyr, Sans-serif;fill:#ffe0e0"
       aria-label="INTEGER" />
  </a>
  <a
     xlink:href="../sql_types/#unsigned"
     xlink:title="UNSIGNED"
     id="a13">
    <path
       id="rect12"
       style="fill:#320000;stroke:#320000"
       d="m 51,223 h 86 v 32 H 51 Z" />
    <path
       id="rect13"
       class="nonterminal"
       style="fill:#ff3f3f;stroke:#320000"
       d="m 49,221 h 86 v 32 H 49 Z" />
    <path
       d="m 60.036,231.032 v 6.076 c 0,2.758 1.134,4.102 4.018,4.102 3.024,0 4.018,-1.442 4.018,-4.242 v -5.936 h -1.33 v 6.286 c 0,1.834 -0.672,2.8 -2.688,2.8 -1.918,0 -2.688,-0.882 -2.688,-2.8 v -6.286 z m 10.122002,0 V 241 h 1.26 v -7.994 l 5.236,7.994 h 1.484 v -9.968 h -1.274 v 8.092 l -5.264,-8.092 z m 17.220001,2.926 c -0.084,-2.142 -1.54,-3.122 -3.654,-3.122 -1.792,0 -3.612,0.798 -3.612,2.842 0,2.1 1.862,2.366 3.472,2.73 1.638,0.378 2.898,0.63 2.898,1.918 0,1.414 -1.316,1.82 -2.478,1.82 -1.596,0 -2.912,-0.63 -2.968,-2.436 h -1.274 c 0,2.408 1.75,3.514 4.13,3.514 1.904,0 3.878,-0.812 3.878,-3.024 0,-2.1 -2.072,-2.604 -3.696,-2.94 -1.54,-0.322 -2.702,-0.56 -2.702,-1.68 0,-1.05 0.826,-1.652 2.254,-1.652 1.47,0 2.324,0.588 2.478,2.03 z m 3.38801,-2.926 h -1.316 V 241 h 1.316 z m 10.906007,4.69 h -4.367996 v 1.078 h 3.191996 c -0.056,1.918 -1.035996,3.346 -3.135996,3.346 -2.156,0 -3.514,-1.596 -3.514,-4.088 0,-2.534 1.358,-4.13 3.528,-4.13 1.54,0 2.687996,0.868 2.883996,2.17 h 1.288 c -0.182,-2.156 -2.169996,-3.276 -4.171996,-3.276 -3.108,0 -4.844,2.352 -4.844,5.278 0,3.066 1.918,5.138 4.746,5.138 1.386,0 2.38,-0.448 3.219996,-1.484 l 0.336,1.246 h 0.84 z m 1.91802,-4.69 V 241 h 1.26 v -7.994 l 5.236,7.994 h 1.484 v -9.968 h -1.274 v 8.092 l -5.264,-8.092 z m 17.066,0 h -6.902 V 241 h 6.972 v -1.148 h -5.656 v -3.444 h 5.222 v -1.106 h -5.222 v -3.122 h 5.586 z m 1.652,0 V 241 h 3.486 c 3.374,0 4.704,-1.82 4.704,-5.068 0,-3.416 -1.582,-4.9 -4.942,-4.9 z m 1.316,1.134 h 1.946 c 2.702,0 3.626,1.26 3.626,3.92 0,2.562 -1.05,3.78 -3.57,3.78 h -2.002 z"
       id="text13"
       class="nonterminal"
       style="font-size:14px;font-family:HelveticaNeueCyr, Sans-serif;fill:#ffe0e0"
       aria-label="UNSIGNED" />
  </a>
  <a
     xlink:href="../sql_types/#double"
     xlink:title="DOUBLE"
     id="a15">
    <path
       id="rect14"
       style="fill:#320000;stroke:#320000"
       d="m 51,267 h 70 v 32 H 51 Z" />
    <path
       id="rect15"
       class="nonterminal"
       style="fill:#ff3f3f;stroke:#320000"
       d="m 49,265 h 70 v 32 H 49 Z" />
    <path
       d="M 60.106,275.032 V 285 h 3.486 c 3.374,0 4.704,-1.82 4.704,-5.068 0,-3.416 -1.582,-4.9 -4.942,-4.9 z m 1.316,1.134 h 1.946 c 2.702,0 3.626,1.26 3.626,3.92 0,2.562 -1.05,3.78 -3.57,3.78 h -2.002 z m 12.740007,-1.372 c -2.898,0 -4.76,2.002 -4.76,5.11 0,2.898 1.582,5.334 4.774,5.334 3.164,0 4.774,-2.38 4.774,-5.306 0,-2.968 -1.694,-5.138 -4.788,-5.138 z m 0,1.148 c 2.114,0 3.472,1.596 3.472,4.06 0,2.478 -1.358,4.102 -3.444,4.102 -2.114,0 -3.472,-1.61 -3.472,-4.102 0,-2.128 1.092,-4.06 3.444,-4.06 z m 6.370003,-0.91 v 6.076 c 0,2.758 1.134,4.102 4.018,4.102 3.024,0 4.018,-1.442 4.018,-4.242 v -5.936 h -1.33 v 6.286 c 0,1.834 -0.672,2.8 -2.688,2.8 -1.918,0 -2.688,-0.882 -2.688,-2.8 v -6.286 z m 10.178002,0 V 285 h 4.102 c 1.904,0 3.78,-0.518 3.78,-2.814 0,-1.316 -0.686,-2.24 -1.918,-2.52 0.896,-0.322 1.47,-1.162 1.47,-2.142 0,-1.834 -1.526,-2.492 -3.178,-2.492 z m 1.288,1.12 h 2.492 c 1.176,0 2.338,0.07 2.338,1.568 0,1.498 -1.344,1.582 -2.464,1.582 h -2.366 z m 0,4.186 h 2.408 c 1.33,0 2.856,-0.014 2.856,1.722 0,1.75 -1.302,1.834 -2.632,1.834 h -2.632 z m 14.923988,3.514 h -5.292 v -8.82 h -1.316 V 285 h 6.608 z m 8.064,-8.82 h -6.902 V 285 h 6.972 v -1.148 H 109.4 v -3.444 h 5.222 v -1.106 H 109.4 v -3.122 h 5.586 z"
       id="text15"
       class="nonterminal"
       style="font-size:14px;font-family:HelveticaNeueCyr, Sans-serif;fill:#ffe0e0"
       aria-label="DOUBLE" />
  </a>
  <a
     xlink:href="../sql_types/#decimal"
     xlink:title="DECIMAL"
     id="a17">
    <path
       id="rect16"
       style="fill:#320000;stroke:#320000"
       d="m 51,311 h 76 v 32 H 51 Z" />
    <path
       id="rect17"
       class="nonterminal"
       style="fill:#ff3f3f;stroke:#320000"
       d="m 49,309 h 76 v 32 H 49 Z" />
    <path
       d="M 60.106,319.032 V 329 h 3.486 c 3.374,0 4.704,-1.82 4.704,-5.068 0,-3.416 -1.582,-4.9 -4.942,-4.9 z m 1.316,1.134 h 1.946 c 2.702,0 3.626,1.26 3.626,3.92 0,2.562 -1.05,3.78 -3.57,3.78 h -2.002 z m 15.442007,-1.134 h -6.902 V 329 h 6.972 v -1.148 h -5.656 v -3.444 h 5.222 v -1.106 h -5.222 v -3.122 h 5.586 z m 10.094,6.202 h -1.316 c -0.21,1.862 -1.246,2.87 -2.94,2.87 -2.072,0 -3.346,-1.554 -3.346,-4.088 0,-2.1 0.994,-4.074 3.36,-4.074 1.484,0 2.548,0.784 2.842,2.086 h 1.316 c -0.196,-2.128 -2.17,-3.22 -4.13,-3.22 -3.066,0 -4.718,2.366 -4.718,5.222 0,3.192 1.778,5.208 4.62,5.208 2.464,0 4.088,-1.47 4.312,-4.004 z m 3.038002,-6.202 h -1.316 V 329 h 1.316 z m 2.268011,0 V 329 h 1.26 v -8.316 l 3.178,8.316 h 1.148 l 3.122,-8.316 V 329 h 1.246 v -9.968 h -1.834 l -3.094,8.442 -3.206,-8.442 z m 16.366,0 h -1.484 l -3.92,9.968 h 1.4 l 1.134,-3.052 h 4.186 l 1.106,3.052 h 1.47 z m 0.924,5.866 h -3.416 l 1.722,-4.606 z m 10.58401,2.954 h -5.292 v -8.82 h -1.316 V 329 h 6.608 z"
       id="text17"
       class="nonterminal"
       style="font-size:14px;font-family:HelveticaNeueCyr, Sans-serif;fill:#ffe0e0"
       aria-label="DECIMAL" />
  </a>
  <a
     xlink:href="../sql_types/#string"
     xlink:title="STRING"
     id="a19">
    <path
       id="rect18"
       style="fill:#320000;stroke:#320000"
       d="m 51,355 h 66 v 32 H 51 Z" />
    <path
       id="rect19"
       class="nonterminal"
       style="fill:#ff3f3f;stroke:#320000"
       d="m 49,353 h 66 v 32 H 49 Z" />
    <path
       d="m 67.162,365.958 c -0.084,-2.142 -1.54,-3.122 -3.654,-3.122 -1.792,0 -3.612,0.798 -3.612,2.842 0,2.1 1.862,2.366 3.472,2.73 1.638,0.378 2.898,0.63 2.898,1.918 0,1.414 -1.316,1.82 -2.478,1.82 -1.596,0 -2.912,-0.63 -2.968,-2.436 h -1.274 c 0,2.408 1.75,3.514 4.13,3.514 1.904,0 3.878,-0.812 3.878,-3.024 0,-2.1 -2.072,-2.604 -3.696,-2.94 -1.54,-0.322 -2.702,-0.56 -2.702,-1.68 0,-1.05 0.826,-1.652 2.254,-1.652 1.47,0 2.324,0.588 2.478,2.03 z m 8.93201,-2.926 h -8.008 v 1.148 h 3.346 V 373 h 1.316 v -8.82 h 3.346 z m 1.119992,0 V 373 h 1.316 v -4.312 h 2.618 c 1.806,0 2.24,0.434 2.324,2.114 0.028,0.574 0.014,1.694 0.336,2.198 h 1.512 c -0.532,-0.532 -0.532,-1.54 -0.574,-2.338 -0.056,-1.204 -0.112,-2.156 -1.512,-2.45 1.022,-0.294 1.708,-1.26 1.708,-2.422 0,-2.142 -1.47,-2.758 -3.346,-2.758 z m 1.316,1.12 h 2.828 c 1.176,0 2.268,0.238 2.268,1.722 0,1.638 -1.33,1.764 -2.618,1.764 h -2.478 z m 9.645992,-1.12 h -1.316 V 373 h 1.316 z m 2.198011,0 V 373 h 1.26 v -7.994 l 5.236,7.994 h 1.484 v -9.968 h -1.274 v 8.092 l -5.264,-8.092 z m 18.816005,4.69 h -4.368 v 1.078 h 3.192 c -0.056,1.918 -1.036,3.346 -3.136,3.346 -2.156,0 -3.514,-1.596 -3.514,-4.088 0,-2.534 1.358,-4.13 3.528,-4.13 1.54,0 2.688,0.868 2.884,2.17 h 1.288 c -0.182,-2.156 -2.17,-3.276 -4.172,-3.276 -3.108,0 -4.844,2.352 -4.844,5.278 0,3.066 1.918,5.138 4.746,5.138 1.386,0 2.38,-0.448 3.22,-1.484 l 0.336,1.246 h 0.84 z"
       id="text19"
       class="nonterminal"
       style="font-size:14px;font-family:HelveticaNeueCyr, Sans-serif;fill:#ffe0e0"
       aria-label="STRING" />
  </a>
  <a
     xlink:href="#row"
     xlink:title="row"
     id="a21">
    <path
       id="rect20"
       style="fill:#320000;stroke:#320000"
       d="m 51,399 h 42 v 32 H 51 Z" />
    <path
       id="rect21"
       class="nonterminal"
       style="fill:#ff3f3f;stroke:#320000"
       d="m 49,397 h 42 v 32 H 49 Z" />
    <path
       d="m 63.662,409.608 c -1.288,0 -2.17,0.504 -2.674,1.722 v -1.554 H 59.854 V 417 h 1.19 v -3.052 c 0,-1.624 0.35,-3.122 2.31,-3.122 0.126,0 0.182,0 0.308,0.014 z m 3.808007,-0.042 c -2.184,0 -3.542,1.47 -3.542,3.85 0,2.38 1.316,3.808 3.528,3.808 2.198,0 3.472,-1.428 3.472,-3.878 0,-2.394 -1.274,-3.78 -3.458,-3.78 z m -0.028,0.994 c 1.4,0 2.268,1.092 2.268,2.814 0,1.778 -0.84,2.842 -2.24,2.842 -1.456,0 -2.31,-1.05 -2.31,-2.828 0,-1.722 0.882,-2.828 2.282,-2.828 z m 4.241992,-0.784 2.324,7.224 h 1.288 l 1.47,-5.712 1.484,5.712 h 1.26 l 2.31,-7.224 h -1.232 l -1.638,5.95 -1.526,-5.95 h -1.302 l -1.47,5.95 -1.652,-5.95 z"
       id="text21"
       class="nonterminal"
       style="font-size:14px;font-family:HelveticaNeueCyr, Sans-serif;fill:#ffe0e0"
       aria-label="row" />
  </a>
  <path
     class="line"
     d="m17 17 h2 m20 0 h10 m56 0 h10 m0 0 h30 m-126 0 h20 m106 0 h20 m-146 0 q10 0 10 10 m126 0 q0 -10 10 -10 m-136 10 v24 m126 0 v-24 m-126 24 q0 10 10 10 m106 0 q10 0 10 -10 m-116 10 h10 m62 0 h10 m0 0 h24 m-116 -10 v20 m126 0 v-20 m-126 20 v24 m126 0 v-24 m-126 24 q0 10 10 10 m106 0 q10 0 10 -10 m-116 10 h10 m56 0 h10 m0 0 h30 m-116 -10 v20 m126 0 v-20 m-126 20 v24 m126 0 v-24 m-126 24 q0 10 10 10 m106 0 q10 0 10 -10 m-116 10 h10 m26 0 h10 m0 0 h60 m-116 -10 v20 m126 0 v-20 m-126 20 v24 m126 0 v-24 m-126 24 q0 10 10 10 m106 0 q10 0 10 -10 m-116 10 h10 m74 0 h10 m0 0 h12 m-116 -10 v20 m126 0 v-20 m-126 20 v24 m126 0 v-24 m-126 24 q0 10 10 10 m106 0 q10 0 10 -10 m-116 10 h10 m86 0 h10 m-116 -10 v20 m126 0 v-20 m-126 20 v24 m126 0 v-24 m-126 24 q0 10 10 10 m106 0 q10 0 10 -10 m-116 10 h10 m70 0 h10 m0 0 h16 m-116 -10 v20 m126 0 v-20 m-126 20 v24 m126 0 v-24 m-126 24 q0 10 10 10 m106 0 q10 0 10 -10 m-116 10 h10 m76 0 h10 m0 0 h10 m-116 -10 v20 m126 0 v-20 m-126 20 v24 m126 0 v-24 m-126 24 q0 10 10 10 m106 0 q10 0 10 -10 m-116 10 h10 m66 0 h10 m0 0 h20 m-116 -10 v20 m126 0 v-20 m-126 20 v24 m126 0 v-24 m-126 24 q0 10 10 10 m106 0 q10 0 10 -10 m-116 10 h10 m42 0 h10 m0 0 h44 m23 -396 h-3"
     id="path21" />
  <path
     id="polygon21"
     style="fill:#320000;stroke:#320000"
     d="m 175,17 8,-4 v 8 z" />
  <path
     id="polygon22"
     style="fill:#320000;stroke:#320000"
     d="m 175,17 -8,-4 v 8 z" />
</svg>
