<?xml version="1.0" encoding="UTF-8" standalone="no"?>
<svg
   width="177"
   height="433"
   version="1.1"
   id="svg22"
   sodipodi:docname="value.svg"
   inkscape:version="1.3 (0e150ed6c4, 2023-07-21)"
   xmlns:inkscape="http://www.inkscape.org/namespaces/inkscape"
   xmlns:sodipodi="http://sodipodi.sourceforge.net/DTD/sodipodi-0.dtd"
   xmlns:xlink="http://www.w3.org/1999/xlink"
   xmlns="http://www.w3.org/2000/svg"
   xmlns:svg="http://www.w3.org/2000/svg">
  <sodipodi:namedview
     id="namedview22"
     pagecolor="#ffffff"
     bordercolor="#666666"
     borderopacity="1.0"
     inkscape:showpageshadow="2"
     inkscape:pageopacity="0.0"
     inkscape:pagecheckerboard="0"
     inkscape:deskcolor="#d1d1d1"
     inkscape:zoom="1.8637413"
     inkscape:cx="88.263323"
     inkscape:cy="301.27572"
     inkscape:window-width="1854"
     inkscape:window-height="1011"
     inkscape:window-x="66"
     inkscape:window-y="32"
     inkscape:window-maximized="1"
     inkscape:current-layer="svg22" />
  <defs
     id="defs1">
    <style
       type="text/css"
       id="style1">@namespace &quot;http://www.w3.org/2000/svg&quot;;.line { fill: none; stroke: #330000; stroke-width: 1; }&#10;.bold-line { stroke: #140000; shape-rendering: crispEdges; stroke-width: 2; }&#10;.thin-line { stroke: #1F0000; shape-rendering: crispEdges }&#10;.filled { fill: #330000; stroke: none; }&#10;text.terminal { font-family: HelveticaNeueCyr, Sans-serif;                            font-size: 14px;                            fill: #140000;                            font-weight: bold; }&#10;text.nonterminal { font-family: HelveticaNeueCyr, Sans-serif;                            font-size: 14px;                            fill: #1A0000;                            font-weight: normal; }&#10;text.regexp { font-family: HelveticaNeueCyr, Sans-serif;                            font-size: 14px;                            fill: #1F0000;                            font-weight: normal; }&#10;rect, circle, polygon { fill: #330000; stroke: #330000; }&#10;rect.terminal { fill: #FF4D4D; stroke: #330000; stroke-width: 1; }&#10;rect.nonterminal { fill: #FF9E9E; stroke: #330000; stroke-width: 1; }&#10;rect.text { fill: none; stroke: none; }&#10;polygon.regexp { fill: #FFC7C7; stroke: #330000; stroke-width: 1; }&#10;</style>
  </defs>
  <path
     id="polygon1"
     style="fill:#330000;stroke:#330000"
     d="M 9,17 1,13 v 8 z" />
  <path
     id="polygon2"
     style="fill:#330000;stroke:#330000"
     d="M 17,17 9,13 v 8 z" />
  <path
     id="rect2"
     style="fill:#330000;stroke:#330000"
     d="m 61,3 h 36 c 5.54,0 10,4.46 10,10 v 12 c 0,5.54 -4.46,10 -10,10 H 61 C 55.46,35 51,30.54 51,25 V 13 C 51,7.46 55.46,3 61,3 Z" />
  <path
     id="rect3"
     class="terminal"
     style="fill:#ff4d4d;stroke:#330000"
     d="m 59,1 h 36 c 5.54,0 10,4.46 10,10 v 12 c 0,5.54 -4.46,10 -10,10 H 59 C 53.46,33 49,28.54 49,23 V 11 C 49,5.46 53.46,1 59,1 Z" />
  <path
     d="m 67.372,11.032 v 1.862 H 64.376 V 21 h -2.198 v -8.106 h -2.996 v -1.862 z m 1.232001,0 h 4.956 q 1.484,0 2.422,0.7 0.938,0.7 0.938,2.128 0,0.868 -0.42,1.526 -0.42,0.644 -1.162,0.924 1.288,0.266 1.47,2.324 0,0.07 0.028,0.434 0.028,0.364 0.056,0.588 0.028,0.21 0.07,0.518 0.042,0.308 0.126,0.518 0.084,0.21 0.196,0.308 h -2.268 q -0.112,-0.224 -0.168,-0.56 -0.056,-0.35 -0.098,-0.882 -0.042,-0.546 -0.042,-0.602 -0.112,-1.05 -0.532,-1.456 -0.406,-0.406 -1.456,-0.406 h -1.946 V 21 h -2.17 z m 2.17,1.722 v 2.758 h 2.072 q 0.91,0 1.414,-0.28 0.518,-0.294 0.518,-1.134 0,-0.784 -0.504,-1.064 -0.49,-0.28 -1.33,-0.28 z m 16.338002,-1.722 v 5.992 q 0,2.142 -1.036,3.164 -1.022,1.008 -3.206,1.008 -2.212,0 -3.262,-1.022 -1.036,-1.036 -1.036,-3.178 v -5.964 h 2.184 v 5.964 q 0,1.218 0.462,1.806 0.462,0.588 1.68,0.588 1.176,0 1.596,-0.588 0.434,-0.588 0.434,-1.806 v -5.964 z m 9.365989,0 v 1.792 h -5.306 v 2.17 h 4.872 v 1.722 h -4.872 v 2.45 h 5.404 V 21 h -7.574 v -9.968 z"
     id="text3"
     class="terminal"
     style="font-weight:bold;font-size:14px;font-family:HelveticaNeueCyr, Sans-serif;fill:#140000"
     aria-label="TRUE" />
  <path
     id="rect4"
     style="fill:#330000;stroke:#330000"
     d="m 61,47 h 42 c 5.54,0 10,4.46 10,10 v 12 c 0,5.54 -4.46,10 -10,10 H 61 C 55.46,79 51,74.54 51,69 V 57 c 0,-5.54 4.46,-10 10,-10 z" />
  <path
     id="rect5"
     class="terminal"
     style="fill:#ff4d4d;stroke:#330000"
     d="m 59,45 h 42 c 5.54,0 10,4.46 10,10 v 12 c 0,5.54 -4.46,10 -10,10 H 59 C 53.46,77 49,72.54 49,67 V 55 c 0,-5.54 4.46,-10 10,-10 z" />
  <path
     d="m 66.994,55.032 v 1.834 H 62.15 v 2.31 h 4.214 v 1.736 H 62.15 V 65 h -2.184 v -9.968 z m 5.460001,-0.014 3.794,9.982 h -2.296 l -0.784,-2.226 h -3.71 l -0.812,2.226 h -2.24 l 3.794,-9.982 z m 0.182,6.16 -1.316,-3.71 -1.33,3.71 z m 11.507993,1.946 V 65 h -7.056 v -9.968 h 2.184 v 8.092 z M 92.768,58 h -2.072 q -0.126,-1.484 -1.89,-1.484 -0.756,0 -1.19,0.308 -0.42,0.294 -0.42,0.826 0,0.182 0.056,0.322 0.056,0.14 0.21,0.266 0.154,0.112 0.308,0.196 0.154,0.07 0.448,0.168 0.308,0.084 0.546,0.154 0.252,0.07 0.7,0.182 0.448,0.112 0.784,0.21 1.47,0.42 2.184,1.05 0.728,0.63 0.728,1.806 0,0.854 -0.35,1.498 -0.35,0.63 -0.952,1.008 -0.588,0.364 -1.302,0.532 -0.7,0.182 -1.498,0.182 -2.03,0 -3.178,-0.924 -1.134,-0.938 -1.148,-2.632 h 2.17 q 0.056,1.876 2.254,1.876 0.854,0 1.344,-0.35 0.504,-0.364 0.504,-0.98 0,-0.518 -0.462,-0.756 Q 90.094,61.22 88.638,60.8 88.4,60.744 88.274,60.702 q -0.504,-0.14 -0.7,-0.196 -0.196,-0.07 -0.63,-0.224 -0.42,-0.154 -0.616,-0.28 -0.196,-0.126 -0.49,-0.35 -0.28,-0.224 -0.406,-0.462 -0.126,-0.252 -0.238,-0.602 -0.098,-0.364 -0.098,-0.784 0,-1.358 1.05,-2.17 1.05,-0.812 2.786,-0.812 1.68,0 2.744,0.798 1.064,0.784 1.092,2.38 z m 9.184,-2.968 v 1.792 h -5.305998 v 2.17 H 101.518 v 1.722 h -4.871998 v 2.45 H 102.05 V 65 h -7.573998 v -9.968 z"
     id="text5"
     class="terminal"
     style="font-weight:bold;font-size:14px;font-family:HelveticaNeueCyr, Sans-serif;fill:#140000"
     aria-label="FALSE" />
  <path
     id="rect6"
     style="fill:#330000;stroke:#330000"
     d="m 61,91 h 36 c 5.54,0 10,4.46 10,10 v 12 c 0,5.54 -4.46,10 -10,10 H 61 c -5.54,0 -10,-4.46 -10,-10 v -12 c 0,-5.54 4.46,-10 10,-10 z" />
  <path
     id="rect7"
     class="terminal"
     style="fill:#ff4d4d;stroke:#330000"
     d="m 59,89 h 36 c 5.54,0 10,4.46 10,10 v 12 c 0,5.54 -4.46,10 -10,10 H 59 c -5.54,0 -10,-4.46 -10,-10 V 99 c 0,-5.54 4.46,-10 10,-10 z" />
  <path
     d="m 59.966,109 v -9.968 h 2.226 l 4.102,6.678 v -6.678 h 2.1 V 109 H 66.21 l -4.13,-6.692 V 109 Z m 18.857989,-9.968 v 5.992 q 0,2.142 -1.036,3.164 -1.022,1.008 -3.206,1.008 -2.212,0 -3.262,-1.022 -1.036,-1.036 -1.036,-3.178 v -5.964 h 2.184 v 5.964 q 0,1.218 0.462,1.806 0.462,0.588 1.68,0.588 1.176,0 1.596,-0.588 0.434,-0.588 0.434,-1.806 v -5.964 z m 8.945989,8.092 V 109 h -7.056 v -9.968 h 2.184 v 8.092 z m 8.302006,0 V 109 h -7.056 v -9.968 h 2.184 v 8.092 z"
     id="text7"
     class="terminal"
     style="font-weight:bold;font-size:14px;font-family:HelveticaNeueCyr, Sans-serif;fill:#140000"
     aria-label="NULL" />
  <path
     id="rect8"
     style="fill:#330000;stroke:#330000"
     d="m 61,135 h 6 c 5.54,0 10,4.46 10,10 v 12 c 0,5.54 -4.46,10 -10,10 h -6 c -5.54,0 -10,-4.46 -10,-10 v -12 c 0,-5.54 4.46,-10 10,-10 z" />
  <path
     id="rect9"
     class="terminal"
     style="fill:#ff4d4d;stroke:#330000"
     d="m 59,133 h 6 c 5.54,0 10,4.46 10,10 v 12 c 0,5.54 -4.46,10 -10,10 h -6 c -5.54,0 -10,-4.46 -10,-10 v -12 c 0,-5.54 4.46,-10 10,-10 z" />
  <path
     d="m 59.434,146.252 q 0.098,-1.61 0.994,-2.52 0.896,-0.91 2.534,-0.91 1.498,0 2.408,0.798 0.91,0.784 0.91,2.072 0,0.812 -0.42,1.4 -0.406,0.588 -1.162,1.106 -0.616,0.42 -0.798,0.756 -0.182,0.322 -0.182,1.05 h -1.862 q 0,-0.98 0.154,-1.498 0.168,-0.532 0.812,-1.078 0.084,-0.07 0.35,-0.28 0.266,-0.21 0.378,-0.322 0.112,-0.112 0.28,-0.308 0.168,-0.196 0.238,-0.406 0.07,-0.21 0.07,-0.462 0,-0.504 -0.336,-0.812 -0.322,-0.308 -0.868,-0.308 -1.4,0 -1.456,1.722 z m 4.424,4.606 V 153 h -2.17 v -2.142 z"
     id="text9"
     class="terminal"
     style="font-weight:bold;font-size:14px;font-family:HelveticaNeueCyr, Sans-serif;fill:#140000"
     aria-label="?" />
  <a
     xlink:href="../sql_types/#integer"
     xlink:title="integer"
     id="a11">
    <path
       id="rect10"
       style="fill:#330000;stroke:#330000"
       d="m 51,179 h 64 v 32 H 51 Z" />
    <path
       id="rect11"
       class="nonterminal"
       style="fill:#ff9e9e;stroke:#330000"
       d="m 49,177 h 64 v 32 H 49 Z" />
    <path
       d="m 61.156,187.032 v 1.456 h -1.204 v -1.456 z m 0,2.744 V 197 h -1.204 v -7.224 z m 2.968002,0 v 1.12 q 0.896,-1.316 2.464,-1.316 1.274,0 1.834,0.672 0.574,0.658 0.574,1.946 V 197 h -1.19 v -4.256 q 0,-0.532 -0.042,-0.826 -0.028,-0.308 -0.168,-0.644 -0.14,-0.35 -0.476,-0.504 -0.336,-0.154 -0.868,-0.154 -2.058,0 -2.058,2.604 V 197 h -1.19 v -7.224 z m 9.757996,0 v 0.98 h -1.442 v 4.214 q 0,0.35 0,0.462 0.014,0.112 0.084,0.308 0.07,0.182 0.238,0.238 0.168,0.056 0.476,0.056 0.266,0 0.644,-0.042 v 1.022 q -0.504,0.056 -0.91,0.056 -0.504,0 -0.84,-0.112 -0.336,-0.112 -0.518,-0.252 -0.168,-0.14 -0.252,-0.49 -0.084,-0.364 -0.098,-0.602 -0.014,-0.252 -0.014,-0.826 0,-0.126 0,-0.196 v -3.836 h -1.218 v -0.98 h 1.218 v -2.142 h 1.19 v 2.142 z m 7.490008,4.942 q -0.546,2.52 -3.15,2.52 -1.596,0 -2.506,-0.994 -0.896,-0.994 -0.896,-2.758 0,-1.75 0.924,-2.828 0.938,-1.092 2.436,-1.092 1.666,0 2.464,1.134 0.812,1.12 0.812,2.842 v 0.168 h -5.432 l -0.014,0.084 q 0,1.148 0.602,1.806 0.602,0.658 1.652,0.658 0.784,0 1.232,-0.364 0.462,-0.364 0.714,-1.176 z m -1.148,-1.974 q -0.084,-1.036 -0.63,-1.61 -0.546,-0.588 -1.442,-0.588 -0.868,0 -1.442,0.588 -0.574,0.588 -0.686,1.61 z m 8.750009,-2.968 v 6.44 q 0,0.938 -0.098,1.442 -0.098,0.518 -0.364,0.966 -0.798,1.316 -2.856,1.316 -1.218,0 -2.058,-0.504 -0.84,-0.49 -0.98,-1.624 h 1.218 q 0.21,1.204 1.862,1.204 1.106,0 1.596,-0.56 0.504,-0.56 0.532,-1.806 l 0.014,-0.882 q -0.686,1.316 -2.296,1.316 -1.456,0 -2.324,-0.994 -0.854,-0.994 -0.854,-2.674 0,-1.582 0.854,-2.702 0.854,-1.134 2.38,-1.134 0.756,0 1.344,0.322 0.602,0.322 0.938,0.924 v -1.05 z m -3.318,0.84 q -0.966,0 -1.526,0.756 -0.546,0.742 -0.546,2.058 0,1.19 0.574,1.918 0.574,0.714 1.526,0.714 0.994,0 1.554,-0.756 0.574,-0.756 0.574,-2.072 0,-1.232 -0.574,-1.918 -0.56,-0.7 -1.582,-0.7 z m 11.269992,4.102 q -0.546,2.52 -3.15,2.52 -1.596,0 -2.506,-0.994 -0.896,-0.994 -0.896,-2.758 0,-1.75 0.924,-2.828 0.938,-1.092 2.436,-1.092 1.666,0 2.464,1.134 0.812,1.12 0.812,2.842 v 0.168 h -5.432 l -0.014,0.084 q 0,1.148 0.602,1.806 0.602,0.658 1.652,0.658 0.784,0 1.232,-0.364 0.462,-0.364 0.714,-1.176 z m -1.148,-1.974 q -0.084,-1.036 -0.63,-1.61 -0.546,-0.588 -1.442,-0.588 -0.868,0 -1.442,0.588 -0.574,0.588 -0.686,1.61 z m 6.258013,-3.136 v 1.232 q -0.126,-0.014 -0.308,-0.014 -0.574,0 -0.994,0.182 -0.42,0.168 -0.672,0.448 -0.238004,0.28 -0.392004,0.7 -0.154,0.42 -0.21,0.84 -0.042,0.42 -0.042,0.952 V 197 h -1.19 v -7.224 h 1.134 v 1.554 q 0.714004,-1.722 2.674004,-1.722 z"
       id="text11"
       class="nonterminal"
       style="font-size:14px;font-family:HelveticaNeueCyr, Sans-serif;fill:#1a0000"
       aria-label="integer" />
  </a>
  <a
     xlink:href="../sql_types/#unsigned"
     xlink:title="unsigned"
     id="a13">
    <path
       id="rect12"
       style="fill:#330000;stroke:#330000"
       d="m 51,223 h 78 v 32 H 51 Z" />
    <path
       id="rect13"
       class="nonterminal"
       style="fill:#ff9e9e;stroke:#330000"
       d="m 49,221 h 78 v 32 H 49 Z" />
    <path
       d="M 65.888,233.776 V 241 h -1.106 v -1.134 q -0.924,1.33 -2.492,1.33 -1.148,0 -1.778,-0.63 -0.63,-0.63 -0.63,-1.82 v -4.97 h 1.19 v 4.648 q 0,0.854 0.322,1.302 0.336,0.434 1.19,0.434 2.114,0 2.114,-2.604 v -3.78 z m 2.911997,0 v 1.12 q 0.896,-1.316 2.464,-1.316 1.274,0 1.834,0.672 0.574,0.658 0.574,1.946 V 241 h -1.19 v -4.256 q 0,-0.532 -0.042,-0.826 -0.028,-0.308 -0.168,-0.644 -0.14,-0.35 -0.476,-0.504 -0.336,-0.154 -0.868,-0.154 -2.058,0 -2.058,2.604 V 241 h -1.19 v -7.224 z m 12.025996,2.1 h -1.19 q -0.112,-1.316 -1.764,-1.316 -0.686,0 -1.078,0.266 -0.392,0.266 -0.392,0.714 0,0.126 0.028,0.252 0.028,0.112 0.098,0.21 0.084,0.084 0.14,0.154 0.07,0.07 0.21,0.14 0.154,0.056 0.224,0.098 0.084,0.042 0.28,0.098 0.21,0.042 0.294,0.07 0.084,0.014 0.322,0.07 0.252,0.056 0.322,0.07 0.518,0.112 0.77,0.182 0.266,0.07 0.714,0.266 0.462,0.182 0.7,0.392 0.238,0.196 0.42,0.56 0.196,0.35 0.196,0.798 0,1.05 -0.826,1.694 -0.812,0.63 -2.17,0.63 -1.47,0 -2.268,-0.644 -0.784,-0.644 -0.84,-1.862 h 1.176 q 0.098,1.526 1.96,1.526 0.798,0 1.274,-0.322 0.49,-0.336 0.49,-0.882 0,-0.364 -0.252,-0.602 -0.252,-0.238 -0.56,-0.336 -0.308,-0.112 -0.882,-0.252 -0.084,-0.014 -0.126,-0.028 -0.126,-0.028 -0.546,-0.112 -0.406,-0.098 -0.588,-0.154 -0.182,-0.056 -0.532,-0.168 -0.336,-0.126 -0.504,-0.252 -0.168,-0.14 -0.378,-0.336 -0.196,-0.21 -0.28,-0.476 -0.084,-0.28 -0.084,-0.63 0,-0.98 0.742,-1.554 0.756,-0.574 2.016,-0.574 1.274,0 2.072,0.602 0.812,0.602 0.812,1.708 z m 2.898,-4.844 v 1.456 h -1.204 v -1.456 z m 0,2.744 V 241 h -1.204 v -7.224 z m 8.106002,0 v 6.44 q 0,0.938 -0.098,1.442 -0.098,0.518 -0.364,0.966 -0.798,1.316 -2.856,1.316 -1.218,0 -2.058,-0.504 -0.84,-0.49 -0.98,-1.624 h 1.218 q 0.21,1.204 1.862,1.204 1.106,0 1.596,-0.56 0.504,-0.56 0.532,-1.806 l 0.014,-0.882 q -0.686,1.316 -2.296,1.316 -1.456,0 -2.324,-0.994 -0.854,-0.994 -0.854,-2.674 0,-1.582 0.854,-2.702 0.854,-1.134 2.38,-1.134 0.756,0 1.344,0.322 0.602,0.322 0.938,0.924 v -1.05 z m -3.318,0.84 q -0.966,0 -1.526,0.756 -0.546,0.742 -0.546,2.058 0,1.19 0.574,1.918 0.574,0.714 1.526,0.714 0.994,0 1.554,-0.756 0.574,-0.756 0.574,-2.072 0,-1.232 -0.574,-1.918 -0.56,-0.7 -1.582,-0.7 z m 6.215992,-0.84 v 1.12 q 0.896,-1.316 2.464,-1.316 1.274,0 1.834,0.672 0.574,0.658 0.574,1.946 V 241 h -1.19 v -4.256 q 0,-0.532 -0.042,-0.826 -0.028,-0.308 -0.168,-0.644 -0.14,-0.35 -0.476,-0.504 -0.336,-0.154 -0.868,-0.154 -2.058,0 -2.058,2.604 V 241 h -1.19 v -7.224 z m 12.837993,4.942 q -0.546,2.52 -3.15,2.52 -1.596,0 -2.506,-0.994 -0.896,-0.994 -0.896,-2.758 0,-1.75 0.924,-2.828 0.938,-1.092 2.436,-1.092 1.666,0 2.464,1.134 0.812,1.12 0.812,2.842 v 0.168 h -5.432 l -0.014,0.084 q 0,1.148 0.602,1.806 0.602,0.658 1.652,0.658 0.784,0 1.232,-0.364 0.462,-0.364 0.714,-1.176 z m -1.148,-1.974 q -0.084,-1.036 -0.63,-1.61 -0.546,-0.588 -1.442,-0.588 -0.868,0 -1.442,0.588 -0.574,0.588 -0.686,1.61 z m 9.00201,-5.712 V 241 h -1.12 v -1.064 q -0.686,1.26 -2.38,1.26 -1.54,0 -2.45,-1.022 -0.896,-1.036 -0.896,-2.8 0,-1.638 0.84,-2.716 0.854,-1.092 2.45,-1.092 1.554,0 2.366,1.176 v -3.71 z m -3.402,3.556 q -1.022,0 -1.624,0.742 -0.588,0.742 -0.588,2.016 0,1.316 0.602,2.1 0.616,0.77 1.638,0.77 1.036,0 1.624,-0.742 0.588,-0.756 0.588,-2.086 0,-1.19 -0.56,-1.988 -0.546,-0.812 -1.68,-0.812 z"
       id="text13"
       class="nonterminal"
       style="font-size:14px;font-family:HelveticaNeueCyr, Sans-serif;fill:#1a0000"
       aria-label="unsigned" />
  </a>
  <a
     xlink:href="../sql_types/#double"
     xlink:title="double"
     id="a15">
    <path
       id="rect14"
       style="fill:#330000;stroke:#330000"
       d="m 51,267 h 62 v 32 H 51 Z" />
    <path
       id="rect15"
       class="nonterminal"
       style="fill:#ff9e9e;stroke:#330000"
       d="m 49,265 h 62 v 32 H 49 Z" />
    <path
       d="M 66.406,275.032 V 285 h -1.12 v -1.064 q -0.686,1.26 -2.38,1.26 -1.54,0 -2.45,-1.022 -0.896,-1.036 -0.896,-2.8 0,-1.638 0.84,-2.716 0.854,-1.092 2.45,-1.092 1.554,0 2.366,1.176 v -3.71 z m -3.402,3.556 q -1.022,0 -1.624,0.742 -0.588,0.742 -0.588,2.016 0,1.316 0.602,2.1 0.616,0.77 1.638,0.77 1.036,0 1.624,-0.742 0.588,-0.756 0.588,-2.086 0,-1.19 -0.56,-1.988 -0.546,-0.812 -1.68,-0.812 z m 5.768006,0.014 q 0.952,-1.036 2.59,-1.036 1.638,0 2.548,0.994 0.91,0.994 0.91,2.786 0,1.834 -0.91,2.856 -0.91,1.022 -2.562,1.022 -1.652,0 -2.59,-1.008 -0.938,-1.008 -0.938,-2.8 0,-1.778 0.952,-2.814 z m 4.214,0.728 q -0.602,-0.77 -1.652,-0.77 -1.05,0 -1.666,0.77 -0.616,0.77 -0.616,2.058 0,1.33 0.602,2.086 0.616,0.742 1.708,0.742 1.05,0 1.638,-0.756 0.602,-0.756 0.602,-2.086 0,-1.288 -0.616,-2.044 z m 9.239991,-1.554 V 285 h -1.106 v -1.134 q -0.924,1.33 -2.492,1.33 -1.148,0 -1.778,-0.63 -0.63,-0.63 -0.63,-1.82 v -4.97 h 1.19 v 4.648 q 0,0.854 0.322,1.302 0.336,0.434 1.19,0.434 2.114,0 2.114,-2.604 v -3.78 z m 2.967997,-2.744 v 3.738 q 0.784,-1.19 2.394,-1.19 1.484,0 2.366,1.036 0.896,1.022 0.896,2.744 0,1.75 -0.91,2.8 -0.91,1.05 -2.422,1.05 -1.722,0 -2.394,-1.26 V 285 h -1.12 v -9.968 z m 2.212,3.556 q -1.148,0 -1.708,0.826 -0.546,0.826 -0.546,2.03 0,1.274 0.602,2.03 0.616,0.742 1.652,0.742 0.994,0 1.596,-0.77 0.616,-0.784 0.616,-2.072 0,-1.274 -0.602,-2.03 -0.602,-0.756 -1.61,-0.756 z M 93.58,275.032 V 285 h -1.204 v -9.968 z m 8.022,7.686 q -0.546,2.52 -3.149999,2.52 -1.596,0 -2.506,-0.994 -0.896,-0.994 -0.896,-2.758 0,-1.75 0.924,-2.828 0.938,-1.092 2.436,-1.092 1.665999,0 2.463999,1.134 0.812,1.12 0.812,2.842 v 0.168 h -5.431999 l -0.014,0.084 q 0,1.148 0.602,1.806 0.602,0.658 1.652,0.658 0.784,0 1.232,-0.364 0.461999,-0.364 0.713999,-1.176 z m -1.148,-1.974 q -0.084,-1.036 -0.629999,-1.61 -0.546,-0.588 -1.442,-0.588 -0.868,0 -1.442,0.588 -0.574,0.588 -0.686,1.61 z"
       id="text15"
       class="nonterminal"
       style="font-size:14px;font-family:HelveticaNeueCyr, Sans-serif;fill:#1a0000"
       aria-label="double" />
  </a>
  <a
     xlink:href="../sql_types/#decimal"
     xlink:title="decimal"
     id="a17">
    <path
       id="rect16"
       style="fill:#330000;stroke:#330000"
       d="m 51,311 h 68 v 32 H 51 Z" />
    <path
       id="rect17"
       class="nonterminal"
       style="fill:#ff9e9e;stroke:#330000"
       d="m 49,309 h 68 v 32 H 49 Z" />
    <path
       d="M 66.406,319.032 V 329 h -1.12 v -1.064 q -0.686,1.26 -2.38,1.26 -1.54,0 -2.45,-1.022 -0.896,-1.036 -0.896,-2.8 0,-1.638 0.84,-2.716 0.854,-1.092 2.45,-1.092 1.554,0 2.366,1.176 v -3.71 z m -3.402,3.556 q -1.022,0 -1.624,0.742 -0.588,0.742 -0.588,2.016 0,1.316 0.602,2.1 0.616,0.77 1.638,0.77 1.036,0 1.624,-0.742 0.588,-0.756 0.588,-2.086 0,-1.19 -0.56,-1.988 -0.546,-0.812 -1.68,-0.812 z m 11.368006,4.13 q -0.546,2.52 -3.15,2.52 -1.596,0 -2.506,-0.994 -0.896,-0.994 -0.896,-2.758 0,-1.75 0.924,-2.828 0.938,-1.092 2.436,-1.092 1.666,0 2.464,1.134 0.812,1.12 0.812,2.842 v 0.168 h -5.432 l -0.014,0.084 q 0,1.148 0.602,1.806 0.602,0.658 1.652,0.658 0.784,0 1.232,-0.364 0.462,-0.364 0.714,-1.176 z m -1.148,-1.974 q -0.084,-1.036 -0.63,-1.61 -0.546,-0.588 -1.442,-0.588 -0.868,0 -1.442,0.588 -0.574,0.588 -0.686,1.61 z m 8.708009,1.624 q -0.154,1.302 -0.994,2.072 -0.826,0.77 -2.156,0.77 -1.638,0 -2.534,-1.008 -0.896,-1.022 -0.896,-2.716 0,-1.806 0.938,-2.856 0.938,-1.064 2.534,-1.064 1.33,0 2.128,0.672 0.798,0.658 0.938,1.89 h -1.232 q -0.322,-1.568 -1.82,-1.568 -1.036,0 -1.638,0.77 -0.602,0.756 -0.602,2.058 0,1.316 0.574,2.072 0.574,0.756 1.582,0.756 0.812,0 1.316,-0.476 0.518,-0.476 0.658,-1.372 z m 2.562009,-7.336 v 1.456 h -1.204 v -1.456 z m 0,2.744 V 329 h -1.204 v -7.224 z m 2.968002,0 v 1.05 q 0.476,-0.644 1.022,-0.938 0.546,-0.294 1.33,-0.294 1.484,0 2.002,1.246 0.938,-1.26 2.394,-1.26 1.12,0 1.694,0.63 0.588,0.616 0.588,1.736 V 329 h -1.19 v -4.55 q 0,-0.896 -0.28,-1.344 -0.28,-0.462 -1.162,-0.462 -1.848,0 -1.848,2.254 V 329 h -1.19 v -4.634 q 0,-0.826 -0.28,-1.26 -0.266,-0.448 -1.05,-0.448 -1.106,0 -1.54,0.686 -0.42,0.672 -0.42,1.834 V 329 h -1.19 v -7.224 z m 17.220004,6.272 v 0.924 q -0.364,0.14 -0.812,0.14 -1.022,0 -1.05,-1.064 -1.022,1.148 -2.618,1.148 -1.063995,0 -1.693995,-0.546 -0.616,-0.546 -0.616,-1.498 0,-1.932 2.561995,-2.254 1.512,-0.182 1.75,-0.266 0.504,-0.168 0.546,-0.7 0.014,-0.084 0.014,-0.182 0,-1.19 -1.638,-1.19 -0.84,0 -1.273995,0.35 -0.434,0.336 -0.518,1.12 h -1.162 q 0.028,-1.162 0.826,-1.806 0.798,-0.644 2.197995,-0.644 1.526,0 2.268,0.7 0.238,0.224 0.35,0.588 0.112,0.364 0.126,0.602 0.014,0.224 0.014,0.686 0,0.546 -0.028,1.624 -0.028,1.064 -0.028,1.596 0,0.392 0.098,0.56 0.112,0.154 0.392,0.154 0.112,0 0.294,-0.042 z m -1.918,-2.8 q -0.126,0.098 -0.266,0.168 -0.14,0.07 -0.364,0.112 -0.21,0.042 -0.294,0.07 -0.07,0.014 -0.364,0.056 -0.294,0.028 -0.308,0.028 -0.434,0.056 -0.574,0.084 -0.126,0.014 -0.504,0.112 -0.363995,0.098 -0.517995,0.224 -0.154,0.126 -0.308,0.378 -0.14,0.238 -0.14,0.574 0,0.56 0.378,0.882 0.392,0.322 1.063995,0.322 0.854,0 1.526,-0.504 0.672,-0.504 0.672,-1.19 z m 4.29801,-6.216 V 329 h -1.204 v -9.968 z"
       id="text17"
       class="nonterminal"
       style="font-size:14px;font-family:HelveticaNeueCyr, Sans-serif;fill:#1a0000"
       aria-label="decimal" />
  </a>
  <a
     xlink:href="../sql_types/#string"
     xlink:title="string"
     id="a19">
    <path
       id="rect18"
       style="fill:#330000;stroke:#330000"
       d="m 51,355 h 56 v 32 H 51 Z" />
    <path
       id="rect19"
       class="nonterminal"
       style="fill:#ff9e9e;stroke:#330000"
       d="m 49,353 h 56 v 32 H 49 Z" />
    <path
       d="m 65.258,367.876 h -1.19 q -0.112,-1.316 -1.764,-1.316 -0.686,0 -1.078,0.266 -0.392,0.266 -0.392,0.714 0,0.126 0.028,0.252 0.028,0.112 0.098,0.21 0.084,0.084 0.14,0.154 0.07,0.07 0.21,0.14 0.154,0.056 0.224,0.098 0.084,0.042 0.28,0.098 0.21,0.042 0.294,0.07 0.084,0.014 0.322,0.07 0.252,0.056 0.322,0.07 0.518,0.112 0.77,0.182 0.266,0.07 0.714,0.266 0.462,0.182 0.7,0.392 0.238,0.196 0.42,0.56 0.196,0.35 0.196,0.798 0,1.05 -0.826,1.694 -0.812,0.63 -2.17,0.63 -1.47,0 -2.268,-0.644 -0.784,-0.644 -0.84,-1.862 h 1.176 q 0.098,1.526 1.96,1.526 0.798,0 1.274,-0.322 0.49,-0.336 0.49,-0.882 0,-0.364 -0.252,-0.602 -0.252,-0.238 -0.56,-0.336 -0.308,-0.112 -0.882,-0.252 -0.084,-0.014 -0.126,-0.028 -0.126,-0.028 -0.546,-0.112 -0.406,-0.098 -0.588,-0.154 -0.182,-0.056 -0.532,-0.168 -0.336,-0.126 -0.504,-0.252 -0.168,-0.14 -0.378,-0.336 -0.196,-0.21 -0.28,-0.476 -0.084,-0.28 -0.084,-0.63 0,-0.98 0.742,-1.554 0.756,-0.574 2.016,-0.574 1.274,0 2.072,0.602 0.812,0.602 0.812,1.708 z m 4.732,-2.1 v 0.98 h -1.442 v 4.214 q 0,0.35 0,0.462 0.014,0.112 0.084,0.308 0.07,0.182 0.238,0.238 0.168,0.056 0.476,0.056 0.266,0 0.644,-0.042 v 1.022 q -0.504,0.056 -0.91,0.056 -0.504,0 -0.84,-0.112 -0.336,-0.112 -0.518,-0.252 -0.168,-0.14 -0.252,-0.49 -0.084,-0.364 -0.098,-0.602 -0.014,-0.252 -0.014,-0.826 0,-0.126 0,-0.196 v -3.836 H 66.14 v -0.98 h 1.218 v -2.142 h 1.19 v 2.142 z m 5.082007,-0.168 v 1.232 q -0.126,-0.014 -0.308,-0.014 -0.574,0 -0.994,0.182 -0.42,0.168 -0.672,0.448 -0.238,0.28 -0.392,0.7 -0.154,0.42 -0.21,0.84 -0.042,0.42 -0.042,0.952 V 373 h -1.19 v -7.224 h 1.134 v 1.554 q 0.714,-1.722 2.674,-1.722 z m 2.156003,-2.576 v 1.456 h -1.204 v -1.456 z m 0,2.744 V 373 h -1.204 v -7.224 z m 2.968002,0 v 1.12 q 0.896,-1.316 2.464,-1.316 1.274,0 1.834,0.672 0.574,0.658 0.574,1.946 V 373 h -1.19 v -4.256 q 0,-0.532 -0.042,-0.826 -0.028,-0.308 -0.168,-0.644 -0.14,-0.35 -0.476,-0.504 -0.336,-0.154 -0.868,-0.154 -2.058,0 -2.058,2.604 V 373 h -1.19 v -7.224 z m 12.921996,0 v 6.44 q 0,0.938 -0.098,1.442 -0.098,0.518 -0.364,0.966 -0.798,1.316 -2.856,1.316 -1.218,0 -2.058,-0.504 -0.84,-0.49 -0.98,-1.624 h 1.218 q 0.21,1.204 1.862,1.204 1.106,0 1.596,-0.56 0.504,-0.56 0.532,-1.806 l 0.014,-0.882 q -0.686,1.316 -2.296,1.316 -1.456,0 -2.324,-0.994 -0.854,-0.994 -0.854,-2.674 0,-1.582 0.854,-2.702 0.854,-1.134 2.38,-1.134 0.756,0 1.344,0.322 0.602,0.322 0.938,0.924 v -1.05 z m -3.318,0.84 q -0.966,0 -1.526,0.756 -0.546,0.742 -0.546,2.058 0,1.19 0.574,1.918 0.574,0.714 1.526,0.714 0.994,0 1.554,-0.756 0.574,-0.756 0.574,-2.072 0,-1.232 -0.574,-1.918 -0.56,-0.7 -1.582,-0.7 z"
       id="text19"
       class="nonterminal"
       style="font-size:14px;font-family:HelveticaNeueCyr, Sans-serif;fill:#1a0000"
       aria-label="string" />
  </a>
  <a
     xlink:href="#row"
     xlink:title="row"
     id="a21">
    <path
       id="rect20"
       style="fill:#330000;stroke:#330000"
       d="m 51,399 h 42 v 32 H 51 Z" />
    <path
       id="rect21"
       class="nonterminal"
       style="fill:#ff9e9e;stroke:#330000"
       d="m 49,397 h 42 v 32 H 49 Z" />
    <path
       d="m 63.662,409.608 v 1.232 q -0.126,-0.014 -0.308,-0.014 -0.574,0 -0.994,0.182 -0.42,0.168 -0.672,0.448 -0.238,0.28 -0.392,0.7 -0.154,0.42 -0.21,0.84 -0.042,0.42 -0.042,0.952 V 417 h -1.19 v -7.224 h 1.134 v 1.554 q 0.714,-1.722 2.674,-1.722 z m 1.218007,0.994 q 0.952,-1.036 2.59,-1.036 1.638,0 2.548,0.994 0.91,0.994 0.91,2.786 0,1.834 -0.91,2.856 -0.91,1.022 -2.562,1.022 -1.652,0 -2.59,-1.008 -0.938,-1.008 -0.938,-2.8 0,-1.778 0.952,-2.814 z m 4.214,0.728 q -0.602,-0.77 -1.652,-0.77 -1.05,0 -1.666,0.77 -0.616,0.77 -0.616,2.058 0,1.33 0.602,2.086 0.616,0.742 1.708,0.742 1.05,0 1.638,-0.756 0.602,-0.756 0.602,-2.086 0,-1.288 -0.616,-2.044 z m 2.589992,-1.554 h 1.316 l 1.652,5.95 1.47,-5.95 h 1.302 l 1.526,5.95 1.638,-5.95 h 1.232 l -2.31,7.224 h -1.26 l -1.484,-5.712 -1.47,5.712 h -1.288 z"
       id="text21"
       class="nonterminal"
       style="font-size:14px;font-family:HelveticaNeueCyr, Sans-serif;fill:#1a0000"
       aria-label="row" />
  </a>
  <path
     class="line"
     d="m17 17 h2 m20 0 h10 m56 0 h10 m0 0 h22 m-118 0 h20 m98 0 h20 m-138 0 q10 0 10 10 m118 0 q0 -10 10 -10 m-128 10 v24 m118 0 v-24 m-118 24 q0 10 10 10 m98 0 q10 0 10 -10 m-108 10 h10 m62 0 h10 m0 0 h16 m-108 -10 v20 m118 0 v-20 m-118 20 v24 m118 0 v-24 m-118 24 q0 10 10 10 m98 0 q10 0 10 -10 m-108 10 h10 m56 0 h10 m0 0 h22 m-108 -10 v20 m118 0 v-20 m-118 20 v24 m118 0 v-24 m-118 24 q0 10 10 10 m98 0 q10 0 10 -10 m-108 10 h10 m26 0 h10 m0 0 h52 m-108 -10 v20 m118 0 v-20 m-118 20 v24 m118 0 v-24 m-118 24 q0 10 10 10 m98 0 q10 0 10 -10 m-108 10 h10 m64 0 h10 m0 0 h14 m-108 -10 v20 m118 0 v-20 m-118 20 v24 m118 0 v-24 m-118 24 q0 10 10 10 m98 0 q10 0 10 -10 m-108 10 h10 m78 0 h10 m-108 -10 v20 m118 0 v-20 m-118 20 v24 m118 0 v-24 m-118 24 q0 10 10 10 m98 0 q10 0 10 -10 m-108 10 h10 m62 0 h10 m0 0 h16 m-108 -10 v20 m118 0 v-20 m-118 20 v24 m118 0 v-24 m-118 24 q0 10 10 10 m98 0 q10 0 10 -10 m-108 10 h10 m68 0 h10 m0 0 h10 m-108 -10 v20 m118 0 v-20 m-118 20 v24 m118 0 v-24 m-118 24 q0 10 10 10 m98 0 q10 0 10 -10 m-108 10 h10 m56 0 h10 m0 0 h22 m-108 -10 v20 m118 0 v-20 m-118 20 v24 m118 0 v-24 m-118 24 q0 10 10 10 m98 0 q10 0 10 -10 m-108 10 h10 m42 0 h10 m0 0 h36 m23 -396 h-3"
     id="path21" />
  <path
     id="polygon21"
     style="fill:#330000;stroke:#330000"
     d="m 167,17 8,-4 v 8 z" />
  <path
     id="polygon22"
     style="fill:#330000;stroke:#330000"
     d="m 167,17 -8,-4 v 8 z" />
</svg>
