<?xml version="1.0" encoding="UTF-8" standalone="no"?>
<!-- Created with Inkscape (http://www.inkscape.org/) -->

<svg
   width="157.96548mm"
   height="79.745338mm"
   viewBox="0 0 157.96549 79.745339"
   version="1.1"
   id="svg5"
   inkscape:version="1.2.1 (9c6d41e410, 2022-07-14)"
   sodipodi:docname="sbroad-query.svg"
   xmlns:inkscape="http://www.inkscape.org/namespaces/inkscape"
   xmlns:sodipodi="http://sodipodi.sourceforge.net/DTD/sodipodi-0.dtd"
   xmlns="http://www.w3.org/2000/svg"
   xmlns:svg="http://www.w3.org/2000/svg">
  <sodipodi:namedview
     id="namedview7"
     pagecolor="#ffffff"
     bordercolor="#666666"
     borderopacity="1.0"
     inkscape:showpageshadow="2"
     inkscape:pageopacity="0.0"
     inkscape:pagecheckerboard="0"
     inkscape:deskcolor="#d1d1d1"
     inkscape:document-units="mm"
     showgrid="false"
     inkscape:zoom="1.4948513"
     inkscape:cx="251.53003"
     inkscape:cy="156.20283"
     inkscape:window-width="1920"
     inkscape:window-height="1016"
     inkscape:window-x="0"
     inkscape:window-y="32"
     inkscape:window-maximized="1"
     inkscape:current-layer="text952" />
  <defs
     id="defs2">
    <marker
       style="overflow:visible"
       id="marker3948"
       refX="0"
       refY="0"
       orient="auto-start-reverse"
       inkscape:stockid="Arrow2"
       markerWidth="7.6999998"
       markerHeight="5.5999999"
       viewBox="0 0 7.7 5.6"
       inkscape:isstock="true"
       inkscape:collect="always"
       preserveAspectRatio="xMidYMid">
      <path
         transform="scale(0.7)"
         d="M -2,-4 9,0 -2,4 c 2,-2.33 2,-5.66 0,-8 z"
         style="fill:context-stroke;fill-rule:evenodd;stroke:none"
         id="path3946" />
    </marker>
    <marker
       style="overflow:visible"
       id="Arrow2"
       refX="0"
       refY="0"
       orient="auto-start-reverse"
       inkscape:stockid="Arrow2"
       markerWidth="7.6999998"
       markerHeight="5.5999999"
       viewBox="0 0 7.7 5.6"
       inkscape:isstock="true"
       inkscape:collect="always"
       preserveAspectRatio="xMidYMid">
      <path
         transform="scale(0.7)"
         d="M -2,-4 9,0 -2,4 c 2,-2.33 2,-5.66 0,-8 z"
         style="fill:context-stroke;fill-rule:evenodd;stroke:none"
         id="arrow2L" />
    </marker>
  </defs>
  <g
     inkscape:label="Слой 1"
     inkscape:groupmode="layer"
     id="layer1"
     transform="translate(-32.756941,-2.1445674)">
    <rect
       style="fill:none;fill-opacity:0.572549;stroke:#000000;stroke-width:0.559283"
       id="rect788"
       width="36.379311"
       height="19.399054"
       x="33.036583"
       y="22.211489" />
    <g
       aria-label="Запрос"
       id="text952"
       style="font-size:2.4674px;line-height:1.25;stroke-width:0.264582">
      <path
         d="m 43.635429,32.304304 q 0,0.241499 -0.110402,0.503693 -0.110403,0.255285 -0.324295,0.496789 -0.213898,0.241499 -0.60029,0.393294 -0.386392,0.15179 -0.876285,0.15179 -0.924582,0 -1.483474,-0.434692 -0.55199,-0.441594 -0.55199,-1.297177 h 0.62789 q 0.02069,0.627888 0.420892,0.917683 0.400192,0.282894 1.04188,0.282894 0.517491,0 0.862485,-0.282894 0.344994,-0.282896 0.344994,-0.745186 0,-0.255285 -0.09659,-0.434694 -0.09659,-0.179391 -0.282897,-0.2691 -0.186297,-0.08971 -0.393291,-0.124189 -0.200083,-0.03451 -0.469194,-0.03451 -0.234591,0 -0.44159,0.0137 v -0.53819 q 0.110402,0.0137 0.44159,0.0137 1.069482,0 1.069482,-0.883184 0,-0.786588 -1.055681,-0.786588 -1.117781,0 -1.221279,1.000483 h -0.627888 q 0.02768,-0.758987 0.53819,-1.145379 0.510592,-0.393294 1.331676,-0.393294 0.752088,0 1.21438,0.331194 0.469191,0.331194 0.469191,0.993584 0,0.372591 -0.241498,0.676187 -0.241499,0.296694 -0.57269,0.393294 v 0.02069 q 0.469192,0.08971 0.724488,0.420892 0.262192,0.331196 0.262192,0.758986 z"
         style="font-family:HelveticaNeueCyr;-inkscape-font-specification:HelveticaNeueCyr;stroke-width:0.739882"
         id="path13302" />
      <path
         d="m 47.499367,33.270287 v 0.455394 q -0.17939,0.06899 -0.400192,0.06899 -0.503694,0 -0.517491,-0.524392 -0.503694,0.56579 -1.290278,0.56579 -0.524392,0 -0.834887,-0.269099 -0.303593,-0.269099 -0.303593,-0.738287 0,-0.952183 1.262677,-1.110882 0.745187,-0.08971 0.862485,-0.131096 0.248406,-0.0828 0.269099,-0.344994 0.007,-0.04142 0.007,-0.08971 0,-0.58649 -0.807286,-0.58649 -0.413993,0 -0.627888,0.172511 -0.213898,0.165604 -0.255285,0.55199 H 44.29103 q 0.0137,-0.572692 0.407091,-0.890085 0.393294,-0.317394 1.083281,-0.317394 0.752088,0 1.117781,0.344994 0.11731,0.110403 0.172483,0.289793 0.0552,0.17939 0.06211,0.296697 0.007,0.110403 0.007,0.338092 0,0.2691 -0.0137,0.800388 -0.0137,0.52439 -0.0137,0.786584 0,0.193205 0.04829,0.276007 0.0552,0.0759 0.193204,0.0759 0.0552,0 0.144911,-0.02069 z m -0.945284,-1.379976 q -0.06211,0.04829 -0.131096,0.0828 -0.06899,0.03451 -0.17939,0.0552 -0.103495,0.02069 -0.14491,0.03451 -0.03451,0.007 -0.17939,0.02769 -0.144883,0.0137 -0.15179,0.0137 -0.213898,0.02769 -0.282894,0.04139 -0.06211,0.007 -0.248406,0.0552 -0.17939,0.04829 -0.255284,0.110403 -0.07589,0.06211 -0.15179,0.186297 -0.06899,0.11731 -0.06899,0.282894 0,0.276006 0.186297,0.434692 0.193204,0.158697 0.524389,0.158697 0.420895,0 0.752088,-0.248406 0.331194,-0.248406 0.331194,-0.58649 z"
         style="font-family:HelveticaNeueCyr;-inkscape-font-specification:HelveticaNeueCyr;stroke-width:0.739882"
         id="path13304" />
      <path
         d="m 48.63785,33.739481 h -0.58649 v -3.560339 h 2.95315 v 3.560339 H 50.418021 V 30.696633 H 48.63785 Z"
         style="font-family:HelveticaNeueCyr;-inkscape-font-specification:HelveticaNeueCyr;stroke-width:0.739882"
         id="path13306" />
      <path
         d="m 52.439682,30.179142 v 0.503691 q 0.386395,-0.614088 1.20058,-0.614088 0.745186,0 1.179878,0.503691 0.441593,0.50369 0.441593,1.366175 0,0.862485 -0.434691,1.379976 -0.427793,0.510592 -1.159182,0.510592 -0.765886,0 -1.193679,-0.58649 v 1.869866 h -0.586489 v -4.933413 z m 1.110882,0.379493 q -0.510592,0 -0.807286,0.372595 -0.289796,0.365693 -0.289796,1.014283 0,0.648586 0.296694,1.021181 0.303596,0.365693 0.821087,0.365693 0.503691,0 0.793486,-0.372595 0.289796,-0.372591 0.289796,-1.014279 0,-0.64859 -0.296697,-1.014283 -0.289793,-0.372595 -0.807284,-0.372595 z"
         style="font-family:HelveticaNeueCyr;-inkscape-font-specification:HelveticaNeueCyr;stroke-width:0.739882"
         id="path13308" />
      <path
         d="m 56.262219,30.586236 q 0.469191,-0.510592 1.276477,-0.510592 0.807286,0 1.255779,0.489893 0.448492,0.48989 0.448492,1.373074 0,0.903886 -0.448492,1.407576 -0.448493,0.503691 -1.262678,0.503691 -0.814185,0 -1.276477,-0.496792 -0.462293,-0.496792 -0.462293,-1.379976 0,-0.876285 0.469192,-1.386874 z m 2.076865,0.358794 q -0.296697,-0.379493 -0.814188,-0.379493 -0.517491,0 -0.821084,0.379493 -0.303596,0.379493 -0.303596,1.01428 0,0.655489 0.296694,1.028083 0.303596,0.365693 0.841786,0.365693 0.517491,0 0.807286,-0.372592 0.296695,-0.372594 0.296695,-1.028083 0,-0.634789 -0.303593,-1.007381 z"
         style="font-family:HelveticaNeueCyr;-inkscape-font-specification:HelveticaNeueCyr;stroke-width:0.739882"
         id="path13310" />
      <path
         d="m 63.003395,32.442302 q -0.07589,0.641691 -0.48989,1.021184 -0.407094,0.379493 -1.062583,0.379493 -0.807283,0 -1.248877,-0.496792 -0.441593,-0.50369 -0.441593,-1.338577 0,-0.890083 0.462292,-1.407574 0.462293,-0.524392 1.24888,-0.524392 0.655489,0 1.048779,0.331193 0.393294,0.324295 0.462293,0.931484 h -0.607189 q -0.158697,-0.772784 -0.896984,-0.772784 -0.510592,0 -0.807286,0.379493 -0.296695,0.372592 -0.296695,1.01428 0,0.64859 0.282894,1.021184 0.282897,0.372592 0.779689,0.372592 0.400192,0 0.648587,-0.234591 0.255285,-0.234592 0.324294,-0.676191 z"
         style="font-family:HelveticaNeueCyr;-inkscape-font-specification:HelveticaNeueCyr;stroke-width:0.739882"
         id="path13312" />
    </g>
    <rect
       style="fill:none;fill-opacity:0.572549;stroke:#000000;stroke-width:0.559283"
       id="rect3279"
       width="36.379311"
       height="19.399054"
       x="33.036583"
       y="62.211205" />
    <g
       aria-label="Ответ"
       id="text3283"
       style="font-size:2.4674px;line-height:1.25;stroke-width:0.264582"
       transform="matrix(2.7964167,0,0,2.7964167,-58.845117,-3.8525364)">
      <path
         d="m 36.87073,25.948107 q 0.399718,0 0.621784,0.251675 0.222066,0.249207 0.222066,0.653861 0,0.407121 -0.219598,0.671132 -0.219599,0.264012 -0.621785,0.264012 -0.204794,0 -0.367643,-0.07402 -0.162848,-0.07402 -0.266479,-0.204794 -0.101163,-0.130772 -0.155446,-0.298555 -0.05182,-0.167784 -0.05182,-0.362708 0,-0.412056 0.227,-0.656329 0.229469,-0.244272 0.611916,-0.244272 z m 0,0.202327 q -0.293621,0 -0.451535,0.207261 -0.155446,0.204794 -0.155446,0.508285 0,0.330631 0.165316,0.528023 0.167783,0.194925 0.446599,0.194925 0.276349,0 0.441665,-0.197392 0.165316,-0.197392 0.165316,-0.525556 0,-0.325697 -0.167783,-0.520622 -0.165316,-0.194924 -0.444132,-0.194924 z"
         style="font-family:HelveticaNeueCyr;-inkscape-font-specification:HelveticaNeueCyr"
         id="path13315" />
      <path
         d="m 38.943346,26.658718 h -0.456469 v 1.088123 h -0.209729 v -1.088123 h -0.456469 v -0.185055 h 1.122667 z"
         style="font-family:HelveticaNeueCyr;-inkscape-font-specification:HelveticaNeueCyr"
         id="path13317" />
      <path
         d="m 39.106193,27.746841 v -1.273178 h 0.589709 q 0.125837,0 0.214663,0.02221 0.08883,0.01974 0.155447,0.09129 0.06662,0.07156 0.06662,0.194925 0,0.187522 -0.187522,0.273881 v 0.0025 q 0.1135,0.02221 0.177653,0.106098 0.06415,0.08142 0.06415,0.207262 0,0.162848 -0.108565,0.268946 -0.108566,0.106098 -0.278817,0.106098 z m 0.567502,-0.759959 q 0.130772,0 0.185055,-0.04195 0.05675,-0.04441 0.05675,-0.128304 0,-0.08389 -0.05428,-0.12337 -0.05428,-0.03948 -0.187522,-0.03948 H 39.31099 v 0.333099 z m -0.362708,0.177653 v 0.402186 h 0.449067 q 0.0987,0 0.152979,-0.05922 0.05675,-0.05922 0.05675,-0.152979 0,-0.18999 -0.24674,-0.18999 z"
         style="font-family:HelveticaNeueCyr;-inkscape-font-specification:HelveticaNeueCyr"
         id="path13319" />
      <path
         d="m 41.524247,27.344655 q -0.09623,0.444132 -0.555165,0.444132 -0.281284,0 -0.441665,-0.175185 -0.157914,-0.175186 -0.157914,-0.486078 0,-0.308425 0.162849,-0.498415 0.165316,-0.192457 0.429328,-0.192457 0.29362,0 0.434262,0.199859 0.143109,0.197392 0.143109,0.500883 v 0.02961 H 40.5817 l -0.0025,0.0148 q 0,0.202327 0.106099,0.318294 0.106098,0.115968 0.291153,0.115968 0.138174,0 0.217131,-0.06415 0.08142,-0.06415 0.125838,-0.207262 z M 41.32192,26.996752 q -0.0148,-0.182588 -0.111033,-0.283751 -0.09623,-0.103631 -0.254142,-0.103631 -0.152979,0 -0.254143,0.103631 -0.101163,0.103631 -0.120902,0.283751 z"
         style="font-family:HelveticaNeueCyr;-inkscape-font-specification:HelveticaNeueCyr"
         id="path13321" />
      <path
         d="m 42.69133,26.658718 h -0.456469 v 1.088123 h -0.209729 v -1.088123 h -0.456469 v -0.185055 h 1.122667 z"
         style="font-family:HelveticaNeueCyr;-inkscape-font-specification:HelveticaNeueCyr"
         id="path13323" />
    </g>
    <path
       style="fill:none;stroke:#fcc501;stroke-width:0.739884px;stroke-linecap:butt;stroke-linejoin:miter;stroke-opacity:1;marker-end:url(#Arrow2)"
       d="m 108.87943,51.931425 13.13391,-0.0092"
       id="path3834"
       sodipodi:nodetypes="cc" />
    <path
       style="fill:none;stroke:#39cb00;stroke-width:0.739884px;stroke-linecap:butt;stroke-linejoin:miter;stroke-opacity:1;marker-end:url(#Arrow2)"
       d="M 153.64378,52.042333 C 215.46637,39.367091 164.14968,-11.728608 119.35442,7.9355133 101.53271,15.758844 98.761444,37.082776 98.761444,37.082776"
       id="path3843"
       sodipodi:nodetypes="csc" />
    <path
       style="fill:none;stroke:#39cb00;stroke-width:0.739884px;stroke-linecap:butt;stroke-linejoin:miter;stroke-opacity:1;marker-end:url(#Arrow2)"
       d="m 153.38952,75.492544 c 1.55109,0.03851 10.48648,-0.762549 20.0331,-6.75588 C 214.86225,42.721037 172.91023,-8.3522313 126.11926,4.5778169 100.54736,11.644263 98.846668,36.954286 98.846668,36.954286"
       id="path3845"
       sodipodi:nodetypes="cssc" />
    <path
       style="fill:none;stroke:#39cb00;stroke-width:0.739884px;stroke-linecap:butt;stroke-linejoin:miter;stroke-opacity:1;marker-end:url(#Arrow2)"
       d="M 153.26026,29.627177 C 202.48714,22.969788 144.72812,-8.1073969 117.07365,9.0208241 99.597698,19.844822 98.74716,37.0959 98.74716,37.0959"
       id="path3847"
       sodipodi:nodetypes="csc" />
    <path
       id="path4236"
       style="fill:none;fill-opacity:0.572549;stroke:#fcc501;stroke-width:0.74105;stroke-dasharray:none;stroke-opacity:1;marker-end:url(#marker3948)"
       d="m 108.4254,51.471218 c 5.88644,0.0076 6.46818,-21.749114 13.49354,-21.749114 0.0196,0 0.0383,7.6e-5 0.0576,2.24e-4"
       sodipodi:nodetypes="csc" />
    <path
       id="path4267"
       style="fill:none;fill-opacity:0.572549;stroke:#ff0000;stroke-width:0.74105;stroke-dasharray:none;stroke-opacity:1;marker-end:url(#marker3948)"
       d="m 69.571213,31.847881 c 6.368934,0.01538 14.371549,4.871266 20.762058,11.332764"
       sodipodi:nodetypes="cc" />
    <path
       id="path4330"
       style="fill:none;fill-opacity:0.572549;stroke:#fcc501;stroke-width:0.74105;stroke-dasharray:none;stroke-opacity:1;marker-end:url(#marker3948)"
       d="m 108.37867,52.362716 c 5.88644,-0.0076 6.46818,21.749114 13.49354,21.749114 0.0196,0 0.0383,-7.5e-5 0.0576,-2.24e-4"
       sodipodi:nodetypes="csc" />
    <rect
       style="fill:none;fill-opacity:0.572549;stroke:#000000;stroke-width:0.559283"
       id="rect3232"
       width="27.385054"
       height="14.490449"
       x="126.15417"
       y="44.665646" />
    <g
       aria-label="Локальный запрос 2"
       transform="matrix(2.8072481,0,0,2.7856271,-58.845117,-3.8525364)"
       id="text3238"
       style="font-size:1.37047px;line-height:1.25;stroke-width:0.264582">
      <path
         d="m 68.088549,18.587919 v 0.975775 h -0.128824 v -0.863396 h -0.360433 l -0.01919,0.549558 q -0.0055,0.153493 -0.06304,0.243944 -0.05619,0.09045 -0.163085,0.09045 -0.04386,0 -0.09319,-0.01919 v -0.109637 q 0.02193,0.0137 0.06989,0.0137 0.03974,0 0.06304,-0.01782 0.02467,-0.01919 0.04248,-0.08497 0.01919,-0.06578 0.02193,-0.183643 l 0.01782,-0.594784 z"
         style="font-family:HelveticaNeueCyr;-inkscape-font-specification:HelveticaNeueCyr;text-align:center;text-anchor:middle"
         id="path13359" />
      <path
         d="m 68.343456,18.937389 q 0.09319,-0.101415 0.253537,-0.101415 0.160345,0 0.249426,0.0973 0.08908,0.0973 0.08908,0.272723 0,0.179532 -0.08908,0.279576 -0.08908,0.100045 -0.250796,0.100045 -0.161716,0 -0.253537,-0.09867 -0.09182,-0.09867 -0.09182,-0.274094 0,-0.17405 0.09319,-0.275465 z m 0.412512,0.07127 q -0.05893,-0.07538 -0.161716,-0.07538 -0.102785,0 -0.163086,0.07538 -0.0603,0.07538 -0.0603,0.201459 0,0.130194 0.05893,0.2042 0.0603,0.07264 0.167197,0.07264 0.102785,0 0.160345,-0.07401 0.05893,-0.074 0.05893,-0.2042 0,-0.126083 -0.0603,-0.200089 z"
         style="font-family:HelveticaNeueCyr;-inkscape-font-specification:HelveticaNeueCyr;text-align:center;text-anchor:middle"
         id="path13361" />
      <path
         d="m 69.707073,19.563694 h -0.148011 l -0.257648,-0.348099 -0.111008,0.108267 v 0.239832 h -0.11649 v -0.707163 h 0.11649 v 0.337136 l 0.323431,-0.337136 h 0.156233 l -0.285057,0.278206 z"
         style="font-family:HelveticaNeueCyr;-inkscape-font-specification:HelveticaNeueCyr;text-align:center;text-anchor:middle"
         id="path13363" />
      <path
         d="m 70.411493,19.470502 v 0.09045 q -0.03563,0.0137 -0.07949,0.0137 -0.100044,0 -0.102785,-0.104156 -0.100044,0.112379 -0.256278,0.112379 -0.104156,0 -0.165827,-0.05345 -0.0603,-0.05345 -0.0603,-0.14664 0,-0.189125 0.250796,-0.220646 0.148011,-0.01782 0.171309,-0.02604 0.04934,-0.01644 0.05345,-0.06852 0.0014,-0.0082 0.0014,-0.01782 0,-0.11649 -0.160345,-0.11649 -0.08223,0 -0.124713,0.03426 -0.04248,0.03289 -0.05071,0.109637 h -0.113749 q 0.0027,-0.113749 0.08086,-0.176791 0.07812,-0.06304 0.215163,-0.06304 0.149382,0 0.222017,0.06852 0.0233,0.02193 0.03426,0.05756 0.01096,0.03563 0.01233,0.05893 0.0014,0.02193 0.0014,0.06715 0,0.05345 -0.0027,0.158975 -0.0027,0.104156 -0.0027,0.156233 0,0.03837 0.0096,0.05482 0.01096,0.01508 0.03837,0.01508 0.01096,0 0.02878,-0.0041 z m -0.187754,-0.274094 q -0.01233,0.0096 -0.02604,0.01645 -0.01371,0.0069 -0.03563,0.01096 -0.02056,0.0041 -0.02878,0.0069 -0.0069,0.0014 -0.03563,0.0055 -0.02878,0.0027 -0.03015,0.0027 -0.04248,0.0055 -0.05619,0.0082 -0.01233,0.0014 -0.04934,0.01096 -0.03563,0.0096 -0.05071,0.02193 -0.01507,0.01233 -0.03015,0.037 -0.01371,0.0233 -0.01371,0.05619 0,0.05482 0.037,0.08634 0.03837,0.03152 0.104155,0.03152 0.0836,0 0.149381,-0.04934 0.06578,-0.04934 0.06578,-0.11649 z"
         style="font-family:HelveticaNeueCyr;-inkscape-font-specification:HelveticaNeueCyr;text-align:center;text-anchor:middle"
         id="path13365" />
      <path
         d="m 71.110434,18.856531 v 0.707163 h -0.11649 v -0.604377 h -0.252166 l -0.0096,0.312467 q -0.0041,0.161715 -0.05893,0.23435 -0.05482,0.07264 -0.137047,0.07264 -0.05071,0 -0.0836,-0.01507 v -0.09456 q 0.01782,0.0096 0.06167,0.0096 0.04111,0 0.06989,-0.04386 0.03015,-0.04523 0.03289,-0.150752 l 0.01233,-0.427587 z"
         style="font-family:HelveticaNeueCyr;-inkscape-font-specification:HelveticaNeueCyr;text-align:center;text-anchor:middle"
         id="path13367" />
      <path
         d="m 71.814855,19.185444 q 0.06304,0.05756 0.06304,0.157604 0,0.100045 -0.06167,0.160345 -0.0603,0.0603 -0.163086,0.0603 H 71.279001 V 18.85653 h 0.116489 v 0.269983 h 0.252167 q 0.104156,0 0.167197,0.05893 z m -0.2042,0.04111 h -0.215164 v 0.234351 h 0.215164 q 0.07127,0 0.108267,-0.03015 0.03837,-0.03152 0.03837,-0.08771 0,-0.11649 -0.146641,-0.11649 z"
         style="font-family:HelveticaNeueCyr;-inkscape-font-specification:HelveticaNeueCyr;text-align:center;text-anchor:middle"
         id="path13369" />
      <path
         d="m 72.110876,19.563694 h -0.11649 v -0.707163 h 0.11649 v 0.280947 h 0.353581 v -0.280947 h 0.11649 v 0.707163 h -0.11649 v -0.323431 h -0.353581 z"
         style="font-family:HelveticaNeueCyr;-inkscape-font-specification:HelveticaNeueCyr;text-align:center;text-anchor:middle"
         id="path13371" />
      <path
         d="m 73.430638,18.856531 h 0.11649 v 0.707163 h -0.11649 z m -0.17542,0.328913 q 0.06304,0.05756 0.06304,0.157604 0,0.100045 -0.06167,0.160345 -0.0603,0.0603 -0.163085,0.0603 H 72.752255 V 18.85653 h 0.11649 v 0.269983 h 0.219276 q 0.104155,0 0.167197,0.05893 z m -0.2042,0.04111 h -0.182273 v 0.234351 h 0.182273 q 0.07126,0 0.108267,-0.03015 0.03837,-0.03152 0.03837,-0.08771 0,-0.11649 -0.14664,-0.11649 z"
         style="font-family:HelveticaNeueCyr;-inkscape-font-specification:HelveticaNeueCyr;text-align:center;text-anchor:middle"
         id="path13373" />
      <path
         d="m 74.2214,18.587919 q -0.01371,0.08634 -0.06715,0.138418 -0.05208,0.05071 -0.138418,0.05071 -0.0836,0 -0.141158,-0.05208 -0.05619,-0.05345 -0.06715,-0.137047 h 0.06989 q 0.03152,0.106897 0.137047,0.106897 0.101415,0 0.137047,-0.106897 z m -0.350841,0.975775 h -0.149381 v -0.707163 h 0.11649 v 0.576968 h 0.0027 l 0.317949,-0.576968 h 0.149381 v 0.707163 h -0.11649 v -0.576968 h -0.0027 z"
         style="font-family:HelveticaNeueCyr;-inkscape-font-specification:HelveticaNeueCyr;text-align:center;text-anchor:middle"
         id="path13375" />
      <path
         d="m 68.045378,20.805517 q 0.0082,-0.120602 0.09182,-0.172679 0.0836,-0.05208 0.206941,-0.05208 0.11649,0 0.190495,0.04797 0.07538,0.04797 0.07538,0.142529 0,0.05756 -0.03426,0.09867 -0.03289,0.04111 -0.07949,0.05071 v 0.0027 q 0.05619,0.01096 0.09593,0.05619 0.04111,0.04386 0.04111,0.11923 0,0.109638 -0.08634,0.171309 -0.08634,0.0603 -0.206941,0.0603 -0.138418,0 -0.220646,-0.06304 -0.08086,-0.06441 -0.08634,-0.179531 h 0.117861 q 0.0055,0.074 0.05619,0.111008 0.05071,0.037 0.131565,0.037 0.08086,0 0.127454,-0.03837 0.0466,-0.03974 0.0466,-0.09593 0,-0.115119 -0.150752,-0.115119 h -0.0973 v -0.09456 h 0.07812 q 0.06715,0 0.108267,-0.02741 0.04111,-0.02878 0.04111,-0.08771 0,-0.04111 -0.04111,-0.07127 -0.03974,-0.03015 -0.108267,-0.03015 -0.06989,0 -0.121972,0.03152 -0.05071,0.03152 -0.05756,0.09867 z"
         style="font-family:HelveticaNeueCyr;-inkscape-font-specification:HelveticaNeueCyr;text-align:center;text-anchor:middle"
         id="path13377" />
      <path
         d="m 69.396661,21.215287 v 0.09045 q -0.03563,0.0137 -0.07949,0.0137 -0.100045,0 -0.102785,-0.104156 -0.100045,0.112379 -0.256278,0.112379 -0.104156,0 -0.165827,-0.05345 -0.0603,-0.05345 -0.0603,-0.146641 0,-0.189125 0.250796,-0.220645 0.148011,-0.01782 0.171309,-0.02604 0.04934,-0.01645 0.05345,-0.06852 0.0014,-0.0082 0.0014,-0.01782 0,-0.11649 -0.160345,-0.11649 -0.08223,0 -0.124713,0.03426 -0.04248,0.03289 -0.05071,0.109637 h -0.113749 q 0.0027,-0.113749 0.08086,-0.17679 0.07812,-0.06304 0.215164,-0.06304 0.149381,0 0.222016,0.06852 0.0233,0.02193 0.03426,0.05756 0.01096,0.03563 0.01233,0.05893 0.0014,0.02193 0.0014,0.06715 0,0.05345 -0.0027,0.158974 -0.0027,0.104156 -0.0027,0.156234 0,0.03837 0.0096,0.05482 0.01096,0.01507 0.03837,0.01507 0.01096,0 0.02878,-0.0041 z m -0.187754,-0.274094 q -0.01233,0.0096 -0.02604,0.01645 -0.01371,0.0069 -0.03563,0.01096 -0.02056,0.0041 -0.02878,0.0069 -0.0069,0.0014 -0.03563,0.0055 -0.02878,0.0027 -0.03015,0.0027 -0.04248,0.0055 -0.05619,0.0082 -0.01233,0.0014 -0.04934,0.01096 -0.03563,0.0096 -0.05071,0.02193 -0.01507,0.01233 -0.03015,0.037 -0.01371,0.0233 -0.01371,0.05619 0,0.05482 0.037,0.08634 0.03837,0.03152 0.104156,0.03152 0.0836,0 0.149381,-0.04934 0.06578,-0.04934 0.06578,-0.116489 z"
         style="font-family:HelveticaNeueCyr;-inkscape-font-specification:HelveticaNeueCyr;text-align:center;text-anchor:middle"
         id="path13379" />
      <path
         d="M 69.62279,21.308479 H 69.5063 v -0.707162 h 0.586561 v 0.707162 h -0.11649 V 20.704102 H 69.62279 Z"
         style="font-family:HelveticaNeueCyr;-inkscape-font-specification:HelveticaNeueCyr;text-align:center;text-anchor:middle"
         id="path13381" />
      <path
         d="m 70.377918,20.601317 v 0.100044 q 0.07675,-0.121972 0.238462,-0.121972 0.148011,0 0.23435,0.100045 0.08771,0.100044 0.08771,0.271353 0,0.171308 -0.08634,0.274094 -0.08497,0.101414 -0.230239,0.101414 -0.152122,0 -0.237091,-0.11649 v 0.371398 h -0.11649 v -0.979886 z m 0.220646,0.07538 q -0.101415,0 -0.160345,0.074 -0.05756,0.07264 -0.05756,0.201459 0,0.128824 0.05893,0.20283 0.0603,0.07264 0.163086,0.07264 0.100045,0 0.157604,-0.07401 0.05756,-0.074 0.05756,-0.201459 0,-0.128824 -0.05893,-0.201459 -0.05756,-0.074 -0.160345,-0.074 z"
         style="font-family:HelveticaNeueCyr;-inkscape-font-specification:HelveticaNeueCyr;text-align:center;text-anchor:middle"
         id="path13383" />
      <path
         d="m 71.137159,20.682175 q 0.09319,-0.101415 0.253537,-0.101415 0.160345,0 0.249426,0.0973 0.08908,0.0973 0.08908,0.272724 0,0.179531 -0.08908,0.279576 -0.08908,0.100044 -0.250796,0.100044 -0.161716,0 -0.253537,-0.09867 -0.09182,-0.09867 -0.09182,-0.274094 0,-0.17405 0.09319,-0.275464 z m 0.412512,0.07126 q -0.05893,-0.07538 -0.161716,-0.07538 -0.102785,0 -0.163086,0.07538 -0.0603,0.07538 -0.0603,0.201459 0,0.130195 0.05893,0.2042 0.0603,0.07263 0.167197,0.07263 0.102785,0 0.160345,-0.074 0.05893,-0.07401 0.05893,-0.2042 0,-0.126084 -0.0603,-0.200089 z"
         style="font-family:HelveticaNeueCyr;-inkscape-font-specification:HelveticaNeueCyr;text-align:center;text-anchor:middle"
         id="path13385" />
      <path
         d="m 72.476108,21.050831 q -0.01508,0.127454 -0.0973,0.20283 -0.08086,0.07537 -0.211052,0.07537 -0.160345,0 -0.248055,-0.09867 -0.08771,-0.100045 -0.08771,-0.265872 0,-0.17679 0.09182,-0.279576 0.09182,-0.104155 0.248055,-0.104155 0.130195,0 0.208312,0.06578 0.07812,0.06441 0.09182,0.185014 h -0.120601 q -0.03152,-0.153493 -0.178161,-0.153493 -0.101415,0 -0.160345,0.07538 -0.05893,0.074 -0.05893,0.201459 0,0.128824 0.05619,0.20283 0.05619,0.074 0.154863,0.074 0.07949,0 0.128824,-0.0466 0.05071,-0.0466 0.06441,-0.134306 z"
         style="font-family:HelveticaNeueCyr;-inkscape-font-specification:HelveticaNeueCyr;text-align:center;text-anchor:middle"
         id="path13387" />
      <path
         d="m 73.564261,21.202953 v 0.105526 h -0.633157 q 0.0041,-0.08086 0.02467,-0.141158 0.02056,-0.0603 0.06304,-0.108267 0.04385,-0.04934 0.08497,-0.08086 0.04111,-0.03152 0.11649,-0.07812 0.117861,-0.07401 0.154863,-0.111008 0.07675,-0.07538 0.07675,-0.167197 0,-0.08086 -0.05208,-0.131565 -0.05208,-0.05208 -0.135677,-0.05208 -0.100044,0 -0.143899,0.06989 -0.04248,0.06852 -0.04523,0.17405 h -0.11786 v -0.02604 q 0,-0.1439 0.08497,-0.23161 0.08634,-0.08771 0.227498,-0.08771 0.138418,0 0.220646,0.07675 0.08223,0.07675 0.08223,0.205571 0,0.05482 -0.01919,0.104156 -0.01782,0.04797 -0.04112,0.08086 -0.02193,0.03289 -0.06852,0.06989 -0.04523,0.037 -0.07538,0.05756 -0.03015,0.01919 -0.08634,0.05345 -0.112378,0.06715 -0.149381,0.104156 -0.05208,0.05071 -0.06715,0.113749 z"
         style="font-family:HelveticaNeueCyr;-inkscape-font-specification:HelveticaNeueCyr;text-align:center;text-anchor:middle"
         id="path13389" />
    </g>
    <rect
       style="fill:none;fill-opacity:0.572549;stroke:#000000;stroke-width:0.559283"
       id="rect3240"
       width="27.385054"
       height="14.490449"
       x="126.15417"
       y="67.119812" />
    <g
       aria-label="Локальный запрос Х"
       transform="matrix(2.8072481,0,0,2.7856271,-58.845117,-3.8525364)"
       id="text3246"
       style="font-size:1.37047px;line-height:1.25;stroke-width:0.264582">
      <path
         d="m 68.088549,26.64864 v 0.975774 h -0.128824 v -0.863396 h -0.360433 l -0.01919,0.549559 q -0.0055,0.153492 -0.06304,0.243943 -0.05619,0.09045 -0.163085,0.09045 -0.04386,0 -0.09319,-0.01919 v -0.109638 q 0.02193,0.01371 0.06989,0.01371 0.03974,0 0.06304,-0.01782 0.02467,-0.01919 0.04248,-0.08497 0.01919,-0.06578 0.02193,-0.183643 l 0.01782,-0.594784 z"
         style="font-family:HelveticaNeueCyr;-inkscape-font-specification:HelveticaNeueCyr;text-align:center;text-anchor:middle"
         id="path13326" />
      <path
         d="m 68.343456,26.99811 q 0.09319,-0.101415 0.253537,-0.101415 0.160345,0 0.249426,0.0973 0.08908,0.0973 0.08908,0.272724 0,0.179531 -0.08908,0.279576 -0.08908,0.100044 -0.250796,0.100044 -0.161716,0 -0.253537,-0.09867 -0.09182,-0.09867 -0.09182,-0.274094 0,-0.17405 0.09319,-0.275464 z m 0.412512,0.07126 q -0.05893,-0.07538 -0.161716,-0.07538 -0.102785,0 -0.163086,0.07538 -0.0603,0.07538 -0.0603,0.201459 0,0.130195 0.05893,0.2042 0.0603,0.07264 0.167197,0.07264 0.102785,0 0.160345,-0.07401 0.05893,-0.07401 0.05893,-0.2042 0,-0.126084 -0.0603,-0.200089 z"
         style="font-family:HelveticaNeueCyr;-inkscape-font-specification:HelveticaNeueCyr;text-align:center;text-anchor:middle"
         id="path13328" />
      <path
         d="m 69.707073,27.624414 h -0.148011 l -0.257648,-0.348099 -0.111008,0.108267 v 0.239832 h -0.11649 v -0.707162 h 0.11649 v 0.337136 l 0.323431,-0.337136 h 0.156233 l -0.285057,0.278205 z"
         style="font-family:HelveticaNeueCyr;-inkscape-font-specification:HelveticaNeueCyr;text-align:center;text-anchor:middle"
         id="path13330" />
      <path
         d="m 70.411493,27.531222 v 0.09045 q -0.03563,0.0137 -0.07949,0.0137 -0.100044,0 -0.102785,-0.104156 -0.100044,0.112379 -0.256278,0.112379 -0.104156,0 -0.165827,-0.05345 -0.0603,-0.05345 -0.0603,-0.146641 0,-0.189124 0.250796,-0.220645 0.148011,-0.01782 0.171309,-0.02604 0.04934,-0.01645 0.05345,-0.06852 0.0014,-0.0082 0.0014,-0.01782 0,-0.11649 -0.160345,-0.11649 -0.08223,0 -0.124713,0.03426 -0.04248,0.03289 -0.05071,0.109638 h -0.113749 q 0.0027,-0.113749 0.08086,-0.176791 0.07812,-0.06304 0.215163,-0.06304 0.149382,0 0.222017,0.06852 0.0233,0.02193 0.03426,0.05756 0.01096,0.03563 0.01233,0.05893 0.0014,0.02193 0.0014,0.06715 0,0.05345 -0.0027,0.158974 -0.0027,0.104156 -0.0027,0.156234 0,0.03837 0.0096,0.05482 0.01096,0.01507 0.03837,0.01507 0.01096,0 0.02878,-0.0041 z m -0.187754,-0.274094 q -0.01233,0.0096 -0.02604,0.01645 -0.01371,0.0069 -0.03563,0.01096 -0.02056,0.0041 -0.02878,0.0069 -0.0069,0.0014 -0.03563,0.0055 -0.02878,0.0027 -0.03015,0.0027 -0.04248,0.0055 -0.05619,0.0082 -0.01233,0.0014 -0.04934,0.01096 -0.03563,0.0096 -0.05071,0.02193 -0.01507,0.01233 -0.03015,0.037 -0.01371,0.0233 -0.01371,0.05619 0,0.05482 0.037,0.08634 0.03837,0.03152 0.104155,0.03152 0.0836,0 0.149381,-0.04934 0.06578,-0.04934 0.06578,-0.11649 z"
         style="font-family:HelveticaNeueCyr;-inkscape-font-specification:HelveticaNeueCyr;text-align:center;text-anchor:middle"
         id="path13332" />
      <path
         d="m 71.110434,26.917252 v 0.707162 h -0.11649 v -0.604377 h -0.252166 l -0.0096,0.312467 q -0.0041,0.161716 -0.05893,0.234351 -0.05482,0.07263 -0.137047,0.07263 -0.05071,0 -0.0836,-0.01508 v -0.09456 q 0.01782,0.0096 0.06167,0.0096 0.04111,0 0.06989,-0.04386 0.03015,-0.04522 0.03289,-0.150751 l 0.01233,-0.427587 z"
         style="font-family:HelveticaNeueCyr;-inkscape-font-specification:HelveticaNeueCyr;text-align:center;text-anchor:middle"
         id="path13334" />
      <path
         d="m 71.814855,27.246165 q 0.06304,0.05756 0.06304,0.157604 0,0.100044 -0.06167,0.160345 -0.0603,0.0603 -0.163086,0.0603 h -0.374138 v -0.707162 h 0.116489 v 0.269982 h 0.252167 q 0.104156,0 0.167197,0.05893 z m -0.2042,0.04111 h -0.215164 v 0.23435 h 0.215164 q 0.07127,0 0.108267,-0.03015 0.03837,-0.03152 0.03837,-0.08771 0,-0.11649 -0.146641,-0.11649 z"
         style="font-family:HelveticaNeueCyr;-inkscape-font-specification:HelveticaNeueCyr;text-align:center;text-anchor:middle"
         id="path13336" />
      <path
         d="m 72.110876,27.624414 h -0.11649 v -0.707162 h 0.11649 v 0.280946 h 0.353581 v -0.280946 h 0.11649 v 0.707162 h -0.11649 v -0.32343 h -0.353581 z"
         style="font-family:HelveticaNeueCyr;-inkscape-font-specification:HelveticaNeueCyr;text-align:center;text-anchor:middle"
         id="path13338" />
      <path
         d="m 73.430638,26.917252 h 0.11649 v 0.707162 h -0.11649 z m -0.17542,0.328913 q 0.06304,0.05756 0.06304,0.157604 0,0.100044 -0.06167,0.160345 -0.0603,0.0603 -0.163085,0.0603 h -0.341248 v -0.707162 h 0.11649 v 0.269982 h 0.219276 q 0.104155,0 0.167197,0.05893 z m -0.2042,0.04111 h -0.182273 v 0.23435 h 0.182273 q 0.07126,0 0.108267,-0.03015 0.03837,-0.03152 0.03837,-0.08771 0,-0.11649 -0.14664,-0.11649 z"
         style="font-family:HelveticaNeueCyr;-inkscape-font-specification:HelveticaNeueCyr;text-align:center;text-anchor:middle"
         id="path13340" />
      <path
         d="m 74.2214,26.64864 q -0.01371,0.08634 -0.06715,0.138417 -0.05208,0.05071 -0.138418,0.05071 -0.0836,0 -0.141158,-0.05208 -0.05619,-0.05345 -0.06715,-0.137047 h 0.06989 q 0.03152,0.106896 0.137047,0.106896 0.101415,0 0.137047,-0.106896 z m -0.350841,0.975774 h -0.149381 v -0.707162 h 0.11649 v 0.576968 h 0.0027 l 0.317949,-0.576968 h 0.149381 v 0.707162 h -0.11649 v -0.576967 h -0.0027 z"
         style="font-family:HelveticaNeueCyr;-inkscape-font-specification:HelveticaNeueCyr;text-align:center;text-anchor:middle"
         id="path13342" />
      <path
         d="m 68.007689,28.866237 q 0.0082,-0.120601 0.09182,-0.172679 0.0836,-0.05208 0.206941,-0.05208 0.11649,0 0.190495,0.04797 0.07538,0.04797 0.07538,0.142528 0,0.05756 -0.03426,0.09867 -0.03289,0.04111 -0.07949,0.05071 v 0.0027 q 0.05619,0.01096 0.09593,0.05619 0.04111,0.04386 0.04111,0.119231 0,0.109637 -0.08634,0.171309 -0.08634,0.0603 -0.20694,0.0603 -0.138418,0 -0.220646,-0.06304 -0.08086,-0.06441 -0.08634,-0.179532 h 0.117861 q 0.0055,0.074 0.05619,0.111008 0.05071,0.037 0.131565,0.037 0.08086,0 0.127454,-0.03837 0.0466,-0.03974 0.0466,-0.09593 0,-0.11512 -0.150752,-0.11512 h -0.0973 v -0.09456 h 0.07812 q 0.06715,0 0.108268,-0.02741 0.04111,-0.02878 0.04111,-0.08771 0,-0.04111 -0.04111,-0.07126 -0.03974,-0.03015 -0.108268,-0.03015 -0.06989,0 -0.121971,0.03152 -0.05071,0.03152 -0.05756,0.09867 z"
         style="font-family:HelveticaNeueCyr;-inkscape-font-specification:HelveticaNeueCyr;text-align:center;text-anchor:middle"
         id="path13344" />
      <path
         d="m 69.358973,29.276008 v 0.09045 q -0.03563,0.01371 -0.07949,0.01371 -0.100045,0 -0.102786,-0.104156 -0.100044,0.112378 -0.256277,0.112378 -0.104156,0 -0.165827,-0.05345 -0.0603,-0.05345 -0.0603,-0.14664 0,-0.189125 0.250796,-0.220646 0.148011,-0.01782 0.171309,-0.02604 0.04934,-0.01645 0.05345,-0.06852 0.0014,-0.0082 0.0014,-0.01782 0,-0.116489 -0.160345,-0.116489 -0.08223,0 -0.124713,0.03426 -0.04248,0.03289 -0.05071,0.109638 h -0.113749 q 0.0027,-0.113749 0.08086,-0.176791 0.07812,-0.06304 0.215164,-0.06304 0.149381,0 0.222016,0.06852 0.0233,0.02193 0.03426,0.05756 0.01096,0.03563 0.01233,0.05893 0.0014,0.02193 0.0014,0.06715 0,0.05345 -0.0027,0.158975 -0.0027,0.104155 -0.0027,0.156233 0,0.03837 0.0096,0.05482 0.01096,0.01507 0.03837,0.01507 0.01096,0 0.02878,-0.0041 z m -0.187754,-0.274094 q -0.01233,0.0096 -0.02604,0.01645 -0.01371,0.0069 -0.03563,0.01096 -0.02056,0.0041 -0.02878,0.0069 -0.0069,0.0014 -0.03563,0.0055 -0.02878,0.0027 -0.03015,0.0027 -0.04248,0.0055 -0.05619,0.0082 -0.01234,0.0014 -0.04934,0.01096 -0.03563,0.0096 -0.05071,0.02193 -0.01507,0.01234 -0.03015,0.037 -0.01371,0.0233 -0.01371,0.05619 0,0.05482 0.037,0.08634 0.03837,0.03152 0.104156,0.03152 0.0836,0 0.149381,-0.04934 0.06578,-0.04934 0.06578,-0.11649 z"
         style="font-family:HelveticaNeueCyr;-inkscape-font-specification:HelveticaNeueCyr;text-align:center;text-anchor:middle"
         id="path13346" />
      <path
         d="m 69.585101,29.3692 h -0.11649 v -0.707163 h 0.586562 V 29.3692 h -0.11649 v -0.604378 h -0.353582 z"
         style="font-family:HelveticaNeueCyr;-inkscape-font-specification:HelveticaNeueCyr;text-align:center;text-anchor:middle"
         id="path13348" />
      <path
         d="m 70.34023,28.662037 v 0.100045 q 0.07675,-0.121972 0.238462,-0.121972 0.148011,0 0.23435,0.100044 0.08771,0.100044 0.08771,0.271353 0,0.171309 -0.08634,0.274094 -0.08497,0.101415 -0.230239,0.101415 -0.152122,0 -0.237092,-0.11649 v 0.371397 h -0.11649 v -0.979886 z m 0.220646,0.07538 q -0.101415,0 -0.160345,0.074 -0.05756,0.07264 -0.05756,0.20146 0,0.128824 0.05893,0.202829 0.0603,0.07264 0.163086,0.07264 0.100044,0 0.157604,-0.074 0.05756,-0.07401 0.05756,-0.201459 0,-0.128825 -0.05893,-0.20146 -0.05756,-0.074 -0.160345,-0.074 z"
         style="font-family:HelveticaNeueCyr;-inkscape-font-specification:HelveticaNeueCyr;text-align:center;text-anchor:middle"
         id="path13350" />
      <path
         d="m 71.099471,28.742895 q 0.09319,-0.101415 0.253537,-0.101415 0.160345,0 0.249426,0.0973 0.08908,0.0973 0.08908,0.272723 0,0.179532 -0.08908,0.279576 -0.08908,0.100044 -0.250797,0.100044 -0.161715,0 -0.253536,-0.09867 -0.09182,-0.09867 -0.09182,-0.274094 0,-0.174049 0.09319,-0.275464 z m 0.412511,0.07126 q -0.05893,-0.07538 -0.161715,-0.07538 -0.102785,0 -0.163086,0.07538 -0.0603,0.07538 -0.0603,0.201459 0,0.130195 0.05893,0.204201 0.0603,0.07263 0.167197,0.07263 0.102785,0 0.160345,-0.074 0.05893,-0.074 0.05893,-0.2042 0,-0.126083 -0.0603,-0.200089 z"
         style="font-family:HelveticaNeueCyr;-inkscape-font-specification:HelveticaNeueCyr;text-align:center;text-anchor:middle"
         id="path13352" />
      <path
         d="m 72.438419,29.111551 q -0.01507,0.127454 -0.0973,0.20283 -0.08086,0.07538 -0.211052,0.07538 -0.160345,0 -0.248055,-0.09867 -0.08771,-0.100044 -0.08771,-0.265871 0,-0.176791 0.09182,-0.279576 0.09182,-0.104156 0.248055,-0.104156 0.130195,0 0.208312,0.06578 0.07812,0.06441 0.09182,0.185013 h -0.120601 q -0.03152,-0.153492 -0.178161,-0.153492 -0.101415,0 -0.160345,0.07538 -0.05893,0.07401 -0.05893,0.201459 0,0.128825 0.05619,0.20283 0.05619,0.074 0.154863,0.074 0.07949,0 0.128824,-0.0466 0.05071,-0.0466 0.06441,-0.134306 z"
         style="font-family:HelveticaNeueCyr;-inkscape-font-specification:HelveticaNeueCyr;text-align:center;text-anchor:middle"
         id="path13354" />
      <path
         d="M 73.674584,28.393425 73.349783,28.866237 73.6924,29.3692 h -0.156234 l -0.26313,-0.401548 -0.272723,0.401548 h -0.148011 l 0.343988,-0.502963 -0.322061,-0.472812 h 0.154864 l 0.245314,0.375509 0.253537,-0.375509 z"
         style="font-family:HelveticaNeueCyr;-inkscape-font-specification:HelveticaNeueCyr;text-align:center;text-anchor:middle"
         id="path13356" />
    </g>
    <rect
       style="fill:none;fill-opacity:0.572549;stroke:#000000;stroke-width:0.559283"
       id="rect3248"
       width="27.385054"
       height="14.490449"
       x="126.15417"
       y="22.211489" />
    <g
       aria-label="Локальный запрос 1"
       transform="matrix(2.8072481,0,0,2.7856271,-58.845117,-3.8525364)"
       id="text3254"
       style="font-size:1.37047px;line-height:1.25;stroke-width:0.264582">
      <path
         d="m 68.088549,10.527198 v 0.975775 h -0.128824 v -0.863397 h -0.360433 l -0.01919,0.549559 q -0.0055,0.153493 -0.06304,0.243944 -0.05619,0.09045 -0.163085,0.09045 -0.04386,0 -0.09319,-0.01919 v -0.109638 q 0.02193,0.0137 0.06989,0.0137 0.03974,0 0.06304,-0.01782 0.02467,-0.01919 0.04248,-0.08497 0.01919,-0.06578 0.02193,-0.183643 l 0.01782,-0.594784 z"
         style="font-family:HelveticaNeueCyr;-inkscape-font-specification:HelveticaNeueCyr;text-align:center;text-anchor:middle"
         id="path13392" />
      <path
         d="m 68.343456,10.876668 q 0.09319,-0.101415 0.253537,-0.101415 0.160345,0 0.249426,0.0973 0.08908,0.0973 0.08908,0.272724 0,0.179531 -0.08908,0.279576 -0.08908,0.100044 -0.250796,0.100044 -0.161716,0 -0.253537,-0.09867 -0.09182,-0.09867 -0.09182,-0.274094 0,-0.174049 0.09319,-0.275464 z m 0.412512,0.07126 q -0.05893,-0.07538 -0.161716,-0.07538 -0.102785,0 -0.163086,0.07538 -0.0603,0.07538 -0.0603,0.201459 0,0.130195 0.05893,0.2042 0.0603,0.07264 0.167197,0.07264 0.102785,0 0.160345,-0.074 0.05893,-0.074 0.05893,-0.2042 0,-0.126083 -0.0603,-0.200089 z"
         style="font-family:HelveticaNeueCyr;-inkscape-font-specification:HelveticaNeueCyr;text-align:center;text-anchor:middle"
         id="path13394" />
      <path
         d="m 69.707073,11.502973 h -0.148011 l -0.257648,-0.3481 -0.111008,0.108267 v 0.239833 h -0.11649 V 10.79581 h 0.11649 v 0.337136 l 0.323431,-0.337136 h 0.156233 l -0.285057,0.278205 z"
         style="font-family:HelveticaNeueCyr;-inkscape-font-specification:HelveticaNeueCyr;text-align:center;text-anchor:middle"
         id="path13396" />
      <path
         d="m 70.411493,11.409781 v 0.09045 q -0.03563,0.0137 -0.07949,0.0137 -0.100044,0 -0.102785,-0.104155 -0.100044,0.112378 -0.256278,0.112378 -0.104156,0 -0.165827,-0.05345 -0.0603,-0.05345 -0.0603,-0.14664 0,-0.189125 0.250796,-0.220646 0.148011,-0.01782 0.171309,-0.02604 0.04934,-0.01645 0.05345,-0.06852 0.0014,-0.0082 0.0014,-0.01782 0,-0.11649 -0.160345,-0.11649 -0.08223,0 -0.124713,0.03426 -0.04248,0.03289 -0.05071,0.109638 h -0.113749 q 0.0027,-0.113749 0.08086,-0.176791 0.07812,-0.06304 0.215163,-0.06304 0.149382,0 0.222017,0.06852 0.0233,0.02193 0.03426,0.05756 0.01096,0.03563 0.01233,0.05893 0.0014,0.02193 0.0014,0.06715 0,0.05345 -0.0027,0.158974 -0.0027,0.104156 -0.0027,0.156234 0,0.03837 0.0096,0.05482 0.01096,0.01508 0.03837,0.01508 0.01096,0 0.02878,-0.0041 z m -0.187754,-0.274094 q -0.01233,0.0096 -0.02604,0.01644 -0.01371,0.0069 -0.03563,0.01096 -0.02056,0.0041 -0.02878,0.0069 -0.0069,0.0014 -0.03563,0.0055 -0.02878,0.0027 -0.03015,0.0027 -0.04248,0.0055 -0.05619,0.0082 -0.01233,0.0014 -0.04934,0.01096 -0.03563,0.0096 -0.05071,0.02193 -0.01507,0.01234 -0.03015,0.037 -0.01371,0.0233 -0.01371,0.05619 0,0.05482 0.037,0.08634 0.03837,0.03152 0.104155,0.03152 0.0836,0 0.149381,-0.04934 0.06578,-0.04934 0.06578,-0.11649 z"
         style="font-family:HelveticaNeueCyr;-inkscape-font-specification:HelveticaNeueCyr;text-align:center;text-anchor:middle"
         id="path13398" />
      <path
         d="m 71.110434,10.79581 v 0.707163 h -0.11649 v -0.604378 h -0.252166 l -0.0096,0.312467 q -0.0041,0.161716 -0.05893,0.234351 -0.05482,0.07264 -0.137047,0.07264 -0.05071,0 -0.0836,-0.01507 v -0.09456 q 0.01782,0.0096 0.06167,0.0096 0.04111,0 0.06989,-0.04386 0.03015,-0.04523 0.03289,-0.150751 l 0.01233,-0.427587 z"
         style="font-family:HelveticaNeueCyr;-inkscape-font-specification:HelveticaNeueCyr;text-align:center;text-anchor:middle"
         id="path13400" />
      <path
         d="m 71.814855,11.124723 q 0.06304,0.05756 0.06304,0.157604 0,0.100044 -0.06167,0.160345 -0.0603,0.0603 -0.163086,0.0603 H 71.279002 V 10.79581 h 0.116489 v 0.269983 h 0.252167 q 0.104156,0 0.167197,0.05893 z m -0.2042,0.04111 h -0.215164 v 0.23435 h 0.215164 q 0.07127,0 0.108267,-0.03015 0.03837,-0.03152 0.03837,-0.08771 0,-0.11649 -0.146641,-0.11649 z"
         style="font-family:HelveticaNeueCyr;-inkscape-font-specification:HelveticaNeueCyr;text-align:center;text-anchor:middle"
         id="path13402" />
      <path
         d="m 72.110876,11.502973 h -0.11649 V 10.79581 h 0.11649 v 0.280946 h 0.353581 V 10.79581 h 0.11649 v 0.707163 h -0.11649 v -0.323431 h -0.353581 z"
         style="font-family:HelveticaNeueCyr;-inkscape-font-specification:HelveticaNeueCyr;text-align:center;text-anchor:middle"
         id="path13404" />
      <path
         d="m 73.430638,10.79581 h 0.11649 v 0.707163 h -0.11649 z m -0.17542,0.328913 q 0.06304,0.05756 0.06304,0.157604 0,0.100044 -0.06167,0.160345 -0.0603,0.0603 -0.163085,0.0603 H 72.752255 V 10.79581 h 0.11649 v 0.269983 h 0.219276 q 0.104155,0 0.167197,0.05893 z m -0.2042,0.04111 h -0.182273 v 0.23435 h 0.182273 q 0.07126,0 0.108267,-0.03015 0.03837,-0.03152 0.03837,-0.08771 0,-0.11649 -0.14664,-0.11649 z"
         style="font-family:HelveticaNeueCyr;-inkscape-font-specification:HelveticaNeueCyr;text-align:center;text-anchor:middle"
         id="path13406" />
      <path
         d="m 74.2214,10.527198 q -0.01371,0.08634 -0.06715,0.138417 -0.05208,0.05071 -0.138418,0.05071 -0.0836,0 -0.141158,-0.05208 -0.05619,-0.05345 -0.06715,-0.137047 h 0.06989 q 0.03152,0.106897 0.137047,0.106897 0.101415,0 0.137047,-0.106897 z m -0.350841,0.975775 H 73.721178 V 10.79581 h 0.11649 v 0.576968 h 0.0027 l 0.317949,-0.576968 h 0.149381 v 0.707163 h -0.11649 v -0.576968 h -0.0027 z"
         style="font-family:HelveticaNeueCyr;-inkscape-font-specification:HelveticaNeueCyr;text-align:center;text-anchor:middle"
         id="path13408" />
      <path
         d="m 68.045378,12.744795 q 0.0082,-0.120601 0.09182,-0.172679 0.0836,-0.05208 0.206941,-0.05208 0.11649,0 0.190495,0.04797 0.07538,0.04797 0.07538,0.142529 0,0.05756 -0.03426,0.09867 -0.03289,0.04111 -0.07949,0.05071 v 0.0027 q 0.05619,0.01096 0.09593,0.05619 0.04111,0.04386 0.04111,0.119231 0,0.109638 -0.08634,0.171309 -0.08634,0.0603 -0.206941,0.0603 -0.138418,0 -0.220646,-0.06304 -0.08086,-0.06441 -0.08634,-0.179532 h 0.117861 q 0.0055,0.07401 0.05619,0.111008 0.05071,0.037 0.131565,0.037 0.08086,0 0.127454,-0.03837 0.0466,-0.03974 0.0466,-0.09593 0,-0.11512 -0.150752,-0.11512 h -0.0973 v -0.09456 h 0.07812 q 0.06715,0 0.108267,-0.02741 0.04111,-0.02878 0.04111,-0.08771 0,-0.04111 -0.04111,-0.07127 -0.03974,-0.03015 -0.108267,-0.03015 -0.06989,0 -0.121972,0.03152 -0.05071,0.03152 -0.05756,0.09867 z"
         style="font-family:HelveticaNeueCyr;-inkscape-font-specification:HelveticaNeueCyr;text-align:center;text-anchor:middle"
         id="path13410" />
      <path
         d="m 69.396661,13.154566 v 0.09045 q -0.03563,0.0137 -0.07949,0.0137 -0.100045,0 -0.102785,-0.104156 -0.100045,0.112378 -0.256278,0.112378 -0.104156,0 -0.165827,-0.05345 -0.0603,-0.05345 -0.0603,-0.14664 0,-0.189125 0.250796,-0.220646 0.148011,-0.01782 0.171309,-0.02604 0.04934,-0.01645 0.05345,-0.06852 0.0014,-0.0082 0.0014,-0.01782 0,-0.11649 -0.160345,-0.11649 -0.08223,0 -0.124713,0.03426 -0.04248,0.03289 -0.05071,0.109638 h -0.113749 q 0.0027,-0.113749 0.08086,-0.176791 0.07812,-0.06304 0.215164,-0.06304 0.149381,0 0.222016,0.06852 0.0233,0.02193 0.03426,0.05756 0.01096,0.03563 0.01233,0.05893 0.0014,0.02193 0.0014,0.06715 0,0.05345 -0.0027,0.158975 -0.0027,0.104156 -0.0027,0.156233 0,0.03837 0.0096,0.05482 0.01096,0.01508 0.03837,0.01508 0.01096,0 0.02878,-0.0041 z m -0.187754,-0.274094 q -0.01233,0.0096 -0.02604,0.01645 -0.01371,0.0069 -0.03563,0.01096 -0.02056,0.0041 -0.02878,0.0069 -0.0069,0.0014 -0.03563,0.0055 -0.02878,0.0027 -0.03015,0.0027 -0.04248,0.0055 -0.05619,0.0082 -0.01233,0.0014 -0.04934,0.01096 -0.03563,0.0096 -0.05071,0.02193 -0.01507,0.01233 -0.03015,0.037 -0.01371,0.0233 -0.01371,0.05619 0,0.05482 0.037,0.08634 0.03837,0.03152 0.104156,0.03152 0.0836,0 0.149381,-0.04934 0.06578,-0.04934 0.06578,-0.11649 z"
         style="font-family:HelveticaNeueCyr;-inkscape-font-specification:HelveticaNeueCyr;text-align:center;text-anchor:middle"
         id="path13412" />
      <path
         d="M 69.62279,13.247758 H 69.5063 v -0.707163 h 0.586561 v 0.707163 h -0.11649 V 12.643381 H 69.62279 Z"
         style="font-family:HelveticaNeueCyr;-inkscape-font-specification:HelveticaNeueCyr;text-align:center;text-anchor:middle"
         id="path13414" />
      <path
         d="m 70.377918,12.540595 v 0.100045 q 0.07675,-0.121972 0.238462,-0.121972 0.148011,0 0.23435,0.100044 0.08771,0.100044 0.08771,0.271353 0,0.171309 -0.08634,0.274094 -0.08497,0.101415 -0.230239,0.101415 -0.152122,0 -0.237091,-0.11649 v 0.371397 h -0.11649 v -0.979886 z m 0.220646,0.07538 q -0.101415,0 -0.160345,0.07401 -0.05756,0.07264 -0.05756,0.201459 0,0.128824 0.05893,0.202829 0.0603,0.07264 0.163086,0.07264 0.100045,0 0.157604,-0.074 0.05756,-0.07401 0.05756,-0.201459 0,-0.128824 -0.05893,-0.201459 -0.05756,-0.07401 -0.160345,-0.07401 z"
         style="font-family:HelveticaNeueCyr;-inkscape-font-specification:HelveticaNeueCyr;text-align:center;text-anchor:middle"
         id="path13416" />
      <path
         d="m 71.137159,12.621453 q 0.09319,-0.101415 0.253537,-0.101415 0.160345,0 0.249426,0.0973 0.08908,0.0973 0.08908,0.272723 0,0.179532 -0.08908,0.279576 -0.08908,0.100044 -0.250796,0.100044 -0.161716,0 -0.253537,-0.09867 -0.09182,-0.09867 -0.09182,-0.274094 0,-0.17405 0.09319,-0.275464 z m 0.412512,0.07126 q -0.05893,-0.07538 -0.161716,-0.07538 -0.102785,0 -0.163086,0.07538 -0.0603,0.07538 -0.0603,0.201459 0,0.130194 0.05893,0.2042 0.0603,0.07264 0.167197,0.07264 0.102785,0 0.160345,-0.07401 0.05893,-0.074 0.05893,-0.2042 0,-0.126083 -0.0603,-0.200088 z"
         style="font-family:HelveticaNeueCyr;-inkscape-font-specification:HelveticaNeueCyr;text-align:center;text-anchor:middle"
         id="path13418" />
      <path
         d="m 72.476108,12.99011 q -0.01508,0.127453 -0.0973,0.202829 -0.08086,0.07538 -0.211052,0.07538 -0.160345,0 -0.248055,-0.09867 -0.08771,-0.100044 -0.08771,-0.265871 0,-0.176791 0.09182,-0.279576 0.09182,-0.104156 0.248055,-0.104156 0.130195,0 0.208312,0.06578 0.07812,0.06441 0.09182,0.185013 h -0.120601 q -0.03152,-0.153492 -0.178161,-0.153492 -0.101415,0 -0.160345,0.07538 -0.05893,0.07401 -0.05893,0.201459 0,0.128824 0.05619,0.202829 0.05619,0.07401 0.154863,0.07401 0.07949,0 0.128824,-0.0466 0.05071,-0.0466 0.06441,-0.134306 z"
         style="font-family:HelveticaNeueCyr;-inkscape-font-specification:HelveticaNeueCyr;text-align:center;text-anchor:middle"
         id="path13420" />
      <path
         d="m 73.387471,12.277465 v 0.970293 h -0.127454 v -0.703051 h -0.243944 v -0.08771 q 0.117861,0 0.186384,-0.03837 0.06989,-0.03837 0.09319,-0.141159 z"
         style="font-family:HelveticaNeueCyr;-inkscape-font-specification:HelveticaNeueCyr;text-align:center;text-anchor:middle"
         id="path13422" />
    </g>
    <path
       id="path4354"
       style="fill:none;fill-opacity:0.572549;stroke:#00c8e5;stroke-width:0.74105;stroke-dasharray:none;stroke-opacity:1;marker-end:url(#marker3948)"
       d="m 93.155526,56.986834 c -2.399082,3.928689 -9.600837,14.679189 -19.08272,14.998212"
       sodipodi:nodetypes="cc" />
    <rect
       style="fill:#fff001;fill-opacity:1;stroke:#000000;stroke-width:0.559283"
       id="rect3216"
       width="14.595176"
       height="14.595176"
       x="25.668173"
       y="99.081223"
       transform="rotate(-45)" />
    <g
       aria-label="Роутер"
       id="text3214"
       style="font-size:1.46705px;line-height:1.25;stroke-width:0.264582"
       transform="matrix(2.7964167,0,0,2.7964167,-58.845117,-3.8525364)">
      <path
         d="m 53.958546,19.289613 h 0.429845 q 0.159909,0 0.2538,0.07335 0.09389,0.07189 0.09389,0.227393 0,0.315416 -0.356493,0.315416 h -0.283141 v 0.428378 h -0.137902 z m 0.137902,0.118831 v 0.381433 h 0.265536 q 0.111496,0 0.173112,-0.04108 0.06308,-0.04254 0.06308,-0.149639 0,-0.06015 -0.02054,-0.09976 -0.01907,-0.03961 -0.05721,-0.05868 -0.03814,-0.01907 -0.07922,-0.02494 -0.04108,-0.0073 -0.09829,-0.0073 z"
         style="font-family:HelveticaNeueCyr;-inkscape-font-specification:HelveticaNeueCyr"
         id="path13289" />
      <path
         d="m 54.94147,19.66371 q 0.09976,-0.108561 0.271404,-0.108561 0.171645,0 0.267004,0.10416 0.09536,0.104161 0.09536,0.291943 0,0.192184 -0.09536,0.299278 -0.09536,0.107095 -0.268471,0.107095 -0.173111,0 -0.271404,-0.105628 -0.09829,-0.105627 -0.09829,-0.29341 0,-0.186315 0.09976,-0.294877 z M 55.383052,19.74 q -0.06308,-0.08069 -0.173112,-0.08069 -0.110028,0 -0.174579,0.08069 -0.06455,0.08069 -0.06455,0.215656 0,0.13937 0.06308,0.218591 0.06455,0.07775 0.17898,0.07775 0.110029,0 0.171645,-0.07922 0.06308,-0.07922 0.06308,-0.218591 0,-0.134968 -0.06455,-0.214189 z"
         style="font-family:HelveticaNeueCyr;-inkscape-font-specification:HelveticaNeueCyr"
         id="path13291" />
      <path
         d="m 56.332234,19.577154 -0.324218,0.853824 q -0.01907,0.05135 -0.03374,0.07922 -0.0132,0.02934 -0.03961,0.06308 -0.02494,0.03521 -0.06162,0.04988 -0.03521,0.01614 -0.08362,0.01614 -0.03668,0 -0.09242,-0.0132 v -0.111496 q 0.05428,0.01614 0.08069,0.01614 0.06162,0 0.08802,-0.06308 l 0.05868,-0.137903 -0.300745,-0.752597 h 0.140837 l 0.224458,0.602958 0.212723,-0.602958 z"
         style="font-family:HelveticaNeueCyr;-inkscape-font-specification:HelveticaNeueCyr"
         id="path13293" />
      <path
         d="m 57.018813,19.687183 h -0.271404 v 0.646969 H 56.62271 v -0.646969 h -0.271404 v -0.110029 h 0.667507 z"
         style="font-family:HelveticaNeueCyr;-inkscape-font-specification:HelveticaNeueCyr"
         id="path13295" />
      <path
         d="m 57.739135,20.095023 q -0.05721,0.264069 -0.330087,0.264069 -0.167243,0 -0.262602,-0.10416 -0.09389,-0.104161 -0.09389,-0.289009 0,-0.183382 0.09683,-0.296344 0.09829,-0.11443 0.255267,-0.11443 0.174579,0 0.258201,0.118831 0.08509,0.117364 0.08509,0.297811 v 0.0176 h -0.569216 l -0.0015,0.0088 q 0,0.120298 0.06308,0.189249 0.06308,0.06895 0.173111,0.06895 0.08216,0 0.129101,-0.03814 0.04841,-0.03814 0.07482,-0.123232 z m -0.120299,-0.206854 q -0.0088,-0.108562 -0.06602,-0.168711 -0.05721,-0.06162 -0.151106,-0.06162 -0.09096,0 -0.151106,0.06162 -0.06015,0.06162 -0.07189,0.168711 z"
         style="font-family:HelveticaNeueCyr;-inkscape-font-specification:HelveticaNeueCyr"
         id="path13297" />
      <path
         d="m 57.997336,19.577154 v 0.107095 q 0.08216,-0.130567 0.255267,-0.130567 0.158441,0 0.250866,0.107094 0.09389,0.107095 0.09389,0.290476 0,0.183381 -0.09242,0.29341 -0.09096,0.108562 -0.246465,0.108562 -0.162842,0 -0.253799,-0.124699 v 0.39757 h -0.1247 v -1.048941 z m 0.236195,0.08069 q -0.108561,0 -0.171645,0.07922 -0.06162,0.07775 -0.06162,0.215656 0,0.137903 0.06308,0.217124 0.06455,0.07775 0.174578,0.07775 0.107095,0 0.168711,-0.07922 0.06162,-0.07922 0.06162,-0.215657 0,-0.137902 -0.06308,-0.215656 -0.06162,-0.07922 -0.171645,-0.07922 z"
         style="font-family:HelveticaNeueCyr;-inkscape-font-specification:HelveticaNeueCyr"
         id="path13299" />
    </g>
  </g>
</svg>
