<?xml version="1.0" encoding="UTF-8" standalone="no"?>
<!-- Created with Inkscape (http://www.inkscape.org/) -->

<svg
   width="163.14687mm"
   height="131.67662mm"
   viewBox="0 0 163.14687 131.67662"
   version="1.1"
   id="svg5"
   xml:space="preserve"
   inkscape:version="1.2.2 (b0a8486541, 2022-12-01)"
   sodipodi:docname="tables_curves.svg"
   xmlns:inkscape="http://www.inkscape.org/namespaces/inkscape"
   xmlns:sodipodi="http://sodipodi.sourceforge.net/DTD/sodipodi-0.dtd"
   xmlns="http://www.w3.org/2000/svg"
   xmlns:svg="http://www.w3.org/2000/svg"><sodipodi:namedview
     id="namedview7"
     pagecolor="#ffffff"
     bordercolor="#666666"
     borderopacity="1.0"
     inkscape:showpageshadow="2"
     inkscape:pageopacity="0.0"
     inkscape:pagecheckerboard="0"
     inkscape:deskcolor="#d1d1d1"
     inkscape:document-units="mm"
     showgrid="false"
     inkscape:zoom="0.70710678"
     inkscape:cx="19.091883"
     inkscape:cy="291.32799"
     inkscape:window-width="1920"
     inkscape:window-height="1011"
     inkscape:window-x="0"
     inkscape:window-y="32"
     inkscape:window-maximized="1"
     inkscape:current-layer="layer1" /><defs
     id="defs2"><marker
       style="overflow:visible"
       id="Arrow2"
       refX="0"
       refY="0"
       orient="auto-start-reverse"
       inkscape:stockid="Arrow2"
       markerWidth="7.6999998"
       markerHeight="5.5999999"
       viewBox="0 0 7.7 5.6"
       inkscape:isstock="true"
       inkscape:collect="always"
       preserveAspectRatio="xMidYMid"><path
         transform="scale(0.7)"
         d="M -2,-4 9,0 -2,4 c 2,-2.33 2,-5.66 0,-8 z"
         style="fill:context-stroke;fill-rule:evenodd;stroke:none"
         id="arrow2L" /></marker></defs><g
     inkscape:label="Layer 1"
     inkscape:groupmode="layer"
     id="layer1"
     transform="translate(-79.166482,-66.31666)"><path
       id="rect924"
       style="fill:#778ff8;stroke:#000000;stroke-width:0.508893"
       d="m 87.634795,82.289021 h 8.133261 v 8.133259 h -8.133261 z" /><path
       id="rect910"
       style="fill:#778ff8;stroke:#000000;stroke-width:0.508893"
       d="m 87.634795,74.120917 h 8.133261 v 8.133261 h -8.133261 z" /><path
       id="rect938"
       style="fill:#778ff8;stroke:#000000;stroke-width:0.508893"
       d="m 87.624432,98.62521 h 8.133261 v 8.13326 h -8.133261 z" /><path
       id="rect940"
       style="fill:#778ff8;stroke:#000000;stroke-width:0.508893"
       d="m 87.624432,90.457108 h 8.133261 v 8.13326 h -8.133261 z" /><path
       id="rect942"
       style="fill:#778ff8;stroke:#000000;stroke-width:0.508893"
       d="m 87.629386,114.9614 h 8.133259 v 8.13326 h -8.133259 z" /><path
       id="rect944"
       style="fill:#778ff8;stroke:#000000;stroke-width:0.508893"
       d="m 87.629386,106.7933 h 8.133259 v 8.13326 h -8.133259 z" /><path
       id="rect946"
       style="fill:#d70098;stroke:#000000;stroke-width:0.508893"
       d="m 79.455599,82.289021 h 8.133259 v 8.133259 h -8.133259 z" /><path
       id="rect948"
       style="fill:#d70098;stroke:#000000;stroke-width:0.508893"
       d="m 79.455599,74.120917 h 8.133259 v 8.133261 h -8.133259 z" /><path
       id="rect950"
       style="fill:#d70098;stroke:#000000;stroke-width:0.508893"
       d="m 79.445236,98.62521 h 8.133259 v 8.13326 h -8.133259 z" /><path
       id="rect952"
       style="fill:#d70098;stroke:#000000;stroke-width:0.508893"
       d="m 79.445236,90.457108 h 8.133259 v 8.13326 h -8.133259 z" /><path
       id="rect954"
       style="fill:#d70098;stroke:#000000;stroke-width:0.508893"
       d="m 79.450188,114.9614 h 8.133261 v 8.13326 h -8.133261 z" /><path
       id="rect956"
       style="fill:#d70098;stroke:#000000;stroke-width:0.508893"
       d="m 79.450188,106.7933 h 8.133261 v 8.13326 h -8.133261 z" /><path
       id="rect974"
       style="fill:#5a00e6;stroke:#000000;stroke-width:0.508893"
       d="m 95.814007,82.289021 h 8.133263 v 8.133259 h -8.133263 z" /><path
       id="rect976"
       style="fill:#5a00e6;stroke:#000000;stroke-width:0.508893"
       d="m 95.814007,74.120917 h 8.133263 v 8.133261 h -8.133263 z" /><path
       id="rect978"
       style="fill:#5a00e6;stroke:#000000;stroke-width:0.508893"
       d="m 95.803644,98.62521 h 8.133266 v 8.13326 h -8.133266 z" /><path
       id="rect980"
       style="fill:#5a00e6;stroke:#000000;stroke-width:0.508893"
       d="m 95.803644,90.457108 h 8.133266 v 8.13326 h -8.133266 z" /><path
       id="rect982"
       style="fill:#5a00e6;stroke:#000000;stroke-width:0.508893"
       d="m 95.808598,114.9614 h 8.133262 v 8.13326 h -8.133262 z" /><path
       id="rect984"
       style="fill:#5a00e6;stroke:#000000;stroke-width:0.508893"
       d="m 95.808598,106.7933 h 8.133262 v 8.13326 h -8.133262 z" /><path
       id="rect988"
       style="fill:#a455fd;stroke:#000000;stroke-width:0.508893"
       d="m 103.99322,82.289021 h 8.13326 v 8.133259 h -8.13326 z" /><path
       id="rect990"
       style="fill:#a455fd;stroke:#000000;stroke-width:0.508893"
       d="m 103.99322,74.120917 h 8.13326 v 8.133261 h -8.13326 z" /><path
       id="rect992"
       style="fill:#a455fd;stroke:#000000;stroke-width:0.508893"
       d="m 103.98286,98.62521 h 8.13326 v 8.13326 h -8.13326 z" /><path
       id="rect994"
       style="fill:#a455fd;stroke:#000000;stroke-width:0.508893"
       d="m 103.98286,90.457108 h 8.13326 v 8.13326 h -8.13326 z" /><path
       id="rect996"
       style="fill:#a455fd;stroke:#000000;stroke-width:0.508893"
       d="m 103.98781,114.9614 h 8.13326 v 8.13326 h -8.13326 z" /><path
       id="rect998"
       style="fill:#a455fd;stroke:#000000;stroke-width:0.508893"
       d="m 103.98781,106.7933 h 8.13326 v 8.13326 h -8.13326 z" /><path
       id="rect1002"
       style="fill:#7cdeff;stroke:#000000;stroke-width:0.508893"
       d="m 112.17243,82.289021 h 8.13326 v 8.133259 h -8.13326 z" /><path
       id="rect1004"
       style="fill:#7cdeff;stroke:#000000;stroke-width:0.508893"
       d="m 112.17243,74.120917 h 8.13326 v 8.133261 h -8.13326 z" /><path
       id="rect1006"
       style="fill:#7cdeff;stroke:#000000;stroke-width:0.508893"
       d="m 112.16207,98.62521 h 8.13326 v 8.13326 h -8.13326 z" /><path
       id="rect1008"
       style="fill:#7cdeff;stroke:#000000;stroke-width:0.508893"
       d="m 112.16207,90.457108 h 8.13326 v 8.13326 h -8.13326 z" /><path
       id="rect1010"
       style="fill:#7cdeff;stroke:#000000;stroke-width:0.508893"
       d="m 112.16702,114.9614 h 8.13326 v 8.13326 h -8.13326 z" /><path
       id="rect1012"
       style="fill:#7cdeff;stroke:#000000;stroke-width:0.508893"
       d="m 112.16702,106.7933 h 8.13326 v 8.13326 h -8.13326 z" /><g
       aria-label="Таблица 1"
       id="text1467"
       style="font-size:2.53025px;line-height:1.25;font-family:HelveticaNeueCyr;-inkscape-font-specification:HelveticaNeueCyr;stroke-width:0.189768"
       transform="matrix(1.9974431,0,0,1.9974431,-78.964065,-66.147101)"><path
         d="m 85.409924,66.359671 v 0.207481 h -0.60473 v 1.594057 h -0.237843 v -1.594057 h -0.60473 v -0.207481 z"
         id="path10399" /><path
         d="m 86.449855,67.989152 v 0.166997 q -0.06579,0.0253 -0.146754,0.0253 -0.184709,0 -0.189769,-0.192299 -0.184708,0.207481 -0.473157,0.207481 -0.192299,0 -0.30616,-0.09868 -0.111331,-0.09868 -0.111331,-0.270737 0,-0.349174 0.463036,-0.40737 0.273267,-0.03289 0.316281,-0.04808 0.09109,-0.03036 0.09868,-0.126512 0.0025,-0.01518 0.0025,-0.03289 0,-0.215071 -0.296039,-0.215071 -0.151815,0 -0.230253,0.06326 -0.07844,0.06073 -0.09362,0.20242 h -0.210011 q 0.0051,-0.21001 0.149285,-0.326402 0.144224,-0.116391 0.397249,-0.116391 0.275797,0 0.4099,0.126512 0.04301,0.04048 0.06326,0.106271 0.02024,0.06579 0.02277,0.1088 0.0025,0.04048 0.0025,0.123983 0,0.09868 -0.0051,0.293509 -0.0051,0.192299 -0.0051,0.288448 0,0.07085 0.01771,0.10121 0.02024,0.02783 0.07085,0.02783 0.02024,0 0.05313,-0.0076 z m -0.346644,-0.50605 q -0.02277,0.01771 -0.04807,0.03036 -0.0253,0.01265 -0.06579,0.02024 -0.03795,0.0076 -0.05314,0.01265 -0.01265,0.0025 -0.06579,0.01012 -0.05313,0.0051 -0.05567,0.0051 -0.07844,0.01012 -0.10374,0.01518 -0.02277,0.0025 -0.09109,0.02024 -0.06579,0.01771 -0.09362,0.04048 -0.02783,0.02277 -0.05567,0.06832 -0.0253,0.04301 -0.0253,0.10374 0,0.10121 0.06832,0.159406 0.07085,0.0582 0.192299,0.0582 0.154345,0 0.275797,-0.09109 0.121452,-0.09109 0.121452,-0.215071 z"
         id="path10401" /><path
         d="m 86.773729,66.673422 q 0.08603,-0.134103 0.20748,-0.197359 0.121452,-0.06579 0.308691,-0.07844 0.21001,-0.01518 0.255555,-0.04048 0.03036,-0.01518 0.04554,-0.04048 h 0.215072 q -0.0076,0.04048 -0.02277,0.07338 -0.01265,0.03289 -0.03036,0.0582 -0.01518,0.02277 -0.04554,0.04301 -0.02783,0.02024 -0.04807,0.03542 -0.02024,0.01265 -0.06073,0.0253 -0.03795,0.01012 -0.06073,0.01771 -0.02277,0.0051 -0.07085,0.01012 -0.04554,0.0051 -0.06579,0.0076 -0.02024,0.0025 -0.07338,0.0051 -0.05314,0.0025 -0.06832,0.0051 -0.207481,0.01518 -0.323872,0.161936 -0.116392,0.144224 -0.146755,0.387128 h 0.0076 q 0.05566,-0.134103 0.177117,-0.215071 0.121452,-0.08097 0.280858,-0.08097 0.278328,0 0.435203,0.177117 0.159406,0.174587 0.159406,0.490869 0,0.326402 -0.161936,0.50605 -0.159406,0.179647 -0.450385,0.179647 -0.237843,0 -0.402309,-0.139163 -0.164467,-0.141694 -0.20242,-0.40484 -0.01518,-0.106271 -0.01518,-0.237844 0,-0.50858 0.156876,-0.748954 z m 0.06326,0.852694 q 0,0.222662 0.10627,0.359296 0.108801,0.136633 0.29604,0.136633 0.182178,0 0.285918,-0.131573 0.10374,-0.131573 0.10374,-0.366886 0,-0.230253 -0.10627,-0.361826 -0.106271,-0.131573 -0.288449,-0.131573 -0.182178,0 -0.290979,0.134104 -0.10627,0.131573 -0.10627,0.361825 z"
         id="path10403" /><path
         d="m 89.13192,66.8556 v 1.305609 h -0.215071 v -1.11584 h -0.465566 l -0.01771,0.576897 q -0.0076,0.298569 -0.108801,0.432673 -0.10121,0.134103 -0.253025,0.134103 -0.09362,0 -0.154345,-0.02783 v -0.174587 q 0.03289,0.01771 0.113861,0.01771 0.07591,0 0.129043,-0.08097 0.05567,-0.0835 0.06073,-0.278328 l 0.02277,-0.789438 z"
         id="path10405" /><path
         d="M 89.726528,68.161209 H 89.450731 V 66.8556 h 0.215071 v 1.065235 h 0.0051 L 90.25788,66.8556 h 0.275798 v 1.305609 h -0.215072 v -1.065235 h -0.0051 z"
         id="path10407" /><path
         d="M 91.894951,68.57617 V 68.161209 H 90.857549 V 66.8556 h 0.215071 v 1.11584 h 0.642684 V 66.8556 h 0.215071 v 1.11584 h 0.169527 v 0.60473 z"
         id="path10409" /><path
         d="m 93.456115,67.989152 v 0.166997 q -0.06579,0.0253 -0.146755,0.0253 -0.184708,0 -0.189768,-0.192299 -0.184709,0.207481 -0.473157,0.207481 -0.192299,0 -0.30616,-0.09868 -0.111331,-0.09868 -0.111331,-0.270737 0,-0.349174 0.463035,-0.40737 0.273267,-0.03289 0.316282,-0.04808 0.09109,-0.03036 0.09868,-0.126512 0.0025,-0.01518 0.0025,-0.03289 0,-0.215071 -0.29604,-0.215071 -0.151815,0 -0.230252,0.06326 -0.07844,0.06073 -0.09362,0.20242 h -0.21001 q 0.0051,-0.21001 0.149284,-0.326402 0.144225,-0.116391 0.39725,-0.116391 0.275797,0 0.4099,0.126512 0.04301,0.04048 0.06326,0.106271 0.02024,0.06579 0.02277,0.1088 0.0025,0.04048 0.0025,0.123983 0,0.09868 -0.0051,0.293509 -0.0051,0.192299 -0.0051,0.288448 0,0.07085 0.01771,0.10121 0.02024,0.02783 0.07085,0.02783 0.02024,0 0.05313,-0.0076 z m -0.346644,-0.50605 q -0.02277,0.01771 -0.04807,0.03036 -0.0253,0.01265 -0.06579,0.02024 -0.03795,0.0076 -0.05313,0.01265 -0.01265,0.0025 -0.06579,0.01012 -0.05314,0.0051 -0.05567,0.0051 -0.07844,0.01012 -0.10374,0.01518 -0.02277,0.0025 -0.09109,0.02024 -0.06579,0.01771 -0.09362,0.04048 -0.02783,0.02277 -0.05567,0.06832 -0.0253,0.04301 -0.0253,0.10374 0,0.10121 0.06832,0.159406 0.07085,0.0582 0.192299,0.0582 0.154346,0 0.275798,-0.09109 0.121452,-0.09109 0.121452,-0.215071 z"
         id="path10411" /><path
         d="m 95.10584,66.369792 v 1.791417 h -0.235313 v -1.298018 h -0.450385 v -0.161936 q 0.217602,0 0.344114,-0.07085 0.129043,-0.07085 0.172057,-0.260616 z"
         id="path10413" /></g><path
       id="rect1016"
       style="fill:#ff2846;stroke:#000000;stroke-width:0.508893"
       d="m 87.610504,156.93318 h 8.133261 v 8.13327 h -8.133261 z" /><path
       id="rect1018"
       style="fill:#ff2846;stroke:#000000;stroke-width:0.508893"
       d="m 87.610504,148.76508 h 8.133261 v 8.13327 h -8.133261 z" /><path
       id="rect1020"
       style="fill:#ff2846;stroke:#000000;stroke-width:0.508893"
       d="m 87.600141,173.26937 h 8.133261 v 8.13327 h -8.133261 z" /><path
       id="rect1022"
       style="fill:#ff2846;stroke:#000000;stroke-width:0.508893"
       d="m 87.600141,165.10127 h 8.133261 v 8.13324 h -8.133261 z" /><path
       id="rect1024"
       style="fill:#ff2846;stroke:#000000;stroke-width:0.508893"
       d="m 87.605095,189.60556 h 8.133259 v 8.13327 h -8.133259 z" /><path
       id="rect1026"
       style="fill:#ff2846;stroke:#000000;stroke-width:0.508893"
       d="m 87.605095,181.43745 h 8.133259 v 8.13325 h -8.133259 z" /><path
       id="rect1030"
       style="fill:#ffb249;stroke:#000000;stroke-width:0.508893"
       d="m 79.431292,156.93318 h 8.133261 v 8.13327 h -8.133261 z" /><path
       id="rect1032"
       style="fill:#ffb249;stroke:#000000;stroke-width:0.508893"
       d="m 79.431292,148.76508 h 8.133261 v 8.13327 h -8.133261 z" /><path
       id="rect1034"
       style="fill:#ffb249;stroke:#000000;stroke-width:0.508893"
       d="m 79.420929,173.26937 h 8.133261 v 8.13327 h -8.133261 z" /><path
       id="rect1036"
       style="fill:#ffb249;stroke:#000000;stroke-width:0.508893"
       d="m 79.420929,165.10127 h 8.133261 v 8.13324 h -8.133261 z" /><path
       id="rect1038"
       style="fill:#ffb249;stroke:#000000;stroke-width:0.508893"
       d="m 79.425883,189.60556 h 8.133259 v 8.13327 h -8.133259 z" /><path
       id="rect1040"
       style="fill:#ffb249;stroke:#000000;stroke-width:0.508893"
       d="m 79.425883,181.43745 h 8.133259 v 8.13325 h -8.133259 z" /><path
       id="rect1044"
       style="fill:#e7ff27;stroke:#000000;stroke-width:0.508893"
       d="m 95.789716,156.93318 h 8.133264 v 8.13327 h -8.133264 z" /><path
       id="rect1046"
       style="fill:#e7ff27;stroke:#000000;stroke-width:0.508893"
       d="m 95.789716,148.76508 h 8.133264 v 8.13327 h -8.133264 z" /><path
       id="rect1048"
       style="fill:#e7ff27;stroke:#000000;stroke-width:0.508893"
       d="m 95.779353,173.26937 h 8.133257 v 8.13327 h -8.133257 z" /><path
       id="rect1050"
       style="fill:#e7ff27;stroke:#000000;stroke-width:0.508893"
       d="m 95.779353,165.10127 h 8.133257 v 8.13324 h -8.133257 z" /><path
       id="rect1052"
       style="fill:#e7ff27;stroke:#000000;stroke-width:0.508893"
       d="m 95.784307,189.60556 h 8.133263 v 8.13327 h -8.133263 z" /><path
       id="rect1054"
       style="fill:#e7ff27;stroke:#000000;stroke-width:0.508893"
       d="m 95.784307,181.43745 h 8.133263 v 8.13325 h -8.133263 z" /><path
       id="rect1058"
       style="fill:#83fd55;stroke:#000000;stroke-width:0.508893"
       d="m 103.96891,156.93318 h 8.13326 v 8.13327 h -8.13326 z" /><path
       id="rect1060"
       style="fill:#83fd55;stroke:#000000;stroke-width:0.508893"
       d="m 103.96891,148.76508 h 8.13326 v 8.13327 h -8.13326 z" /><path
       id="rect1062"
       style="fill:#83fd55;stroke:#000000;stroke-width:0.508893"
       d="m 103.95855,173.26937 h 8.13326 v 8.13327 h -8.13326 z" /><path
       id="rect1064"
       style="fill:#83fd55;stroke:#000000;stroke-width:0.508893"
       d="m 103.95855,165.10127 h 8.13326 v 8.13324 h -8.13326 z" /><path
       id="rect1066"
       style="fill:#83fd55;stroke:#000000;stroke-width:0.508893"
       d="m 103.9635,189.60556 h 8.13326 v 8.13327 h -8.13326 z" /><path
       id="rect1068"
       style="fill:#83fd55;stroke:#000000;stroke-width:0.508893"
       d="m 103.9635,181.43745 h 8.13326 v 8.13325 h -8.13326 z" /><path
       id="rect1072"
       style="fill:#ff7c92;stroke:#000000;stroke-width:0.508893"
       d="m 112.14812,156.93318 h 8.13327 v 8.13327 h -8.13327 z" /><path
       id="rect1074"
       style="fill:#ff7c92;stroke:#000000;stroke-width:0.508893"
       d="m 112.14812,148.76508 h 8.13327 v 8.13327 h -8.13327 z" /><path
       id="rect1076"
       style="fill:#ff7c92;stroke:#000000;stroke-width:0.508893"
       d="m 112.13776,173.26937 h 8.13326 v 8.13327 h -8.13326 z" /><path
       id="rect1078"
       style="fill:#ff7c92;stroke:#000000;stroke-width:0.508893"
       d="m 112.13776,165.10127 h 8.13326 v 8.13324 h -8.13326 z" /><path
       id="rect1080"
       style="fill:#ff7c92;stroke:#000000;stroke-width:0.508893"
       d="m 112.14272,189.60556 h 8.13325 v 8.13327 h -8.13325 z" /><path
       id="rect1082"
       style="fill:#ff7c92;stroke:#000000;stroke-width:0.508893"
       d="m 112.14272,181.43745 h 8.13325 v 8.13325 h -8.13325 z" /><g
       aria-label="Таблица 2"
       transform="matrix(1.9974431,0,0,1.9974431,-105.10292,-59.326823)"
       id="text1521"
       style="font-size:2.53025px;line-height:1.25;font-family:HelveticaNeueCyr;-inkscape-font-specification:HelveticaNeueCyr;white-space:pre;inline-size:12.8914;display:inline;stroke-width:0.189768"><path
         d="m 98.313115,100.31951 v 0.20748 h -0.60473 v 1.59406 h -0.237844 v -1.59406 h -0.604729 v -0.20748 z"
         id="path10380" /><path
         d="m 99.353046,101.94899 v 0.167 q -0.06579,0.0253 -0.146755,0.0253 -0.184708,0 -0.189769,-0.1923 -0.184708,0.20748 -0.473156,0.20748 -0.192299,0 -0.306161,-0.0987 -0.111331,-0.0987 -0.111331,-0.27074 0,-0.34917 0.463036,-0.40737 0.273267,-0.0329 0.316281,-0.0481 0.09109,-0.0304 0.09868,-0.12651 0.0025,-0.0152 0.0025,-0.0329 0,-0.21507 -0.296039,-0.21507 -0.151815,0 -0.230253,0.0633 -0.07844,0.0607 -0.09362,0.20242 h -0.210011 q 0.0051,-0.21001 0.149285,-0.3264 0.144224,-0.11639 0.397249,-0.11639 0.275798,0 0.409901,0.12651 0.04301,0.0405 0.06326,0.10627 0.02024,0.0658 0.02277,0.1088 0.0025,0.0405 0.0025,0.12398 0,0.0987 -0.0051,0.29351 -0.0051,0.1923 -0.0051,0.28845 0,0.0709 0.01771,0.10121 0.02024,0.0278 0.07085,0.0278 0.02024,0 0.05314,-0.008 z m -0.346645,-0.50605 q -0.02277,0.0177 -0.04807,0.0304 -0.0253,0.0127 -0.06579,0.0203 -0.03795,0.008 -0.05313,0.0127 -0.01265,0.003 -0.06579,0.0101 -0.05313,0.005 -0.05567,0.005 -0.07844,0.0101 -0.10374,0.0152 -0.02277,0.003 -0.09109,0.0202 -0.06579,0.0177 -0.09362,0.0405 -0.02783,0.0228 -0.05566,0.0683 -0.0253,0.043 -0.0253,0.10374 0,0.10121 0.06832,0.15941 0.07085,0.0582 0.192299,0.0582 0.154345,0 0.275797,-0.0911 0.121452,-0.0911 0.121452,-0.21508 z"
         id="path10382" /><path
         d="m 99.676919,100.63326 q 0.08603,-0.1341 0.207481,-0.19736 0.12145,-0.0658 0.30869,-0.0784 0.21001,-0.0152 0.25556,-0.0405 0.0304,-0.0152 0.0455,-0.0405 h 0.21507 q -0.008,0.0405 -0.0228,0.0734 -0.0127,0.0329 -0.0304,0.0582 -0.0152,0.0228 -0.0456,0.043 -0.0278,0.0202 -0.0481,0.0354 -0.0203,0.0127 -0.0607,0.0253 -0.0379,0.0101 -0.0607,0.0177 -0.0228,0.005 -0.0708,0.0101 -0.0456,0.005 -0.0658,0.008 -0.0202,0.003 -0.0734,0.005 -0.0531,0.003 -0.0683,0.005 -0.207483,0.0152 -0.323875,0.16194 -0.116391,0.14422 -0.146754,0.38713 h 0.0076 q 0.05567,-0.13411 0.177117,-0.21507 0.121452,-0.081 0.280862,-0.081 0.27832,0 0.4352,0.17712 0.15941,0.17458 0.15941,0.49086 0,0.32641 -0.16194,0.50605 -0.15941,0.17965 -0.45038,0.17965 -0.237849,0 -0.402316,-0.13916 -0.164466,-0.1417 -0.20242,-0.40484 -0.01518,-0.10627 -0.01518,-0.23785 0,-0.50858 0.156875,-0.74895 z m 0.06326,0.8527 q 0,0.22266 0.10627,0.35929 0.108801,0.13663 0.296041,0.13663 0.18217,0 0.28591,-0.13157 0.10374,-0.13157 0.10374,-0.36689 0,-0.23025 -0.10627,-0.36182 -0.10627,-0.13157 -0.28845,-0.13157 -0.18217,0 -0.290971,0.1341 -0.10627,0.13157 -0.10627,0.36183 z"
         id="path10384" /><path
         d="m 102.03511,100.81544 v 1.30561 h -0.21507 v -1.11584 h -0.46557 l -0.0177,0.57689 q -0.008,0.29857 -0.1088,0.43268 -0.10121,0.1341 -0.25302,0.1341 -0.0936,0 -0.15435,-0.0278 v -0.17459 q 0.0329,0.0177 0.11386,0.0177 0.0759,0 0.12904,-0.081 0.0557,-0.0835 0.0607,-0.27832 l 0.0228,-0.78944 z"
         id="path10386" /><path
         d="m 102.62972,102.12105 h -0.2758 v -1.30561 h 0.21507 v 1.06523 h 0.005 l 0.58702,-1.06523 h 0.2758 v 1.30561 h -0.21507 v -1.06524 h -0.005 z"
         id="path10388" /><path
         d="m 104.79814,102.53601 v -0.41496 h -1.0374 v -1.30561 h 0.21507 v 1.11584 h 0.64268 v -1.11584 h 0.21508 v 1.11584 h 0.16952 v 0.60473 z"
         id="path10390" /><path
         d="m 106.35931,101.94899 v 0.167 q -0.0658,0.0253 -0.14676,0.0253 -0.18471,0 -0.18977,-0.1923 -0.18471,0.20748 -0.47315,0.20748 -0.1923,0 -0.30616,-0.0987 -0.11134,-0.0987 -0.11134,-0.27074 0,-0.34917 0.46304,-0.40737 0.27327,-0.0329 0.31628,-0.0481 0.0911,-0.0304 0.0987,-0.12651 0.003,-0.0152 0.003,-0.0329 0,-0.21507 -0.29604,-0.21507 -0.15181,0 -0.23025,0.0633 -0.0784,0.0607 -0.0936,0.20242 h -0.21001 q 0.005,-0.21001 0.14928,-0.3264 0.14423,-0.11639 0.39725,-0.11639 0.2758,0 0.4099,0.12651 0.043,0.0405 0.0633,0.10627 0.0202,0.0658 0.0228,0.1088 0.003,0.0405 0.003,0.12398 0,0.0987 -0.005,0.29351 -0.005,0.1923 -0.005,0.28845 0,0.0709 0.0177,0.10121 0.0203,0.0278 0.0708,0.0278 0.0202,0 0.0531,-0.008 z m -0.34665,-0.50605 q -0.0228,0.0177 -0.0481,0.0304 -0.0253,0.0127 -0.0658,0.0203 -0.0379,0.008 -0.0531,0.0127 -0.0126,0.003 -0.0658,0.0101 -0.0531,0.005 -0.0557,0.005 -0.0784,0.0101 -0.10374,0.0152 -0.0228,0.003 -0.0911,0.0202 -0.0658,0.0177 -0.0936,0.0405 -0.0278,0.0228 -0.0557,0.0683 -0.0253,0.043 -0.0253,0.10374 0,0.10121 0.0683,0.15941 0.0709,0.0582 0.1923,0.0582 0.15435,0 0.2758,-0.0911 0.12145,-0.0911 0.12145,-0.21508 z"
         id="path10392" /><path
         d="m 108.33543,101.92622 v 0.19483 h -1.16897 q 0.008,-0.14929 0.0455,-0.26062 0.038,-0.11133 0.11639,-0.19989 0.081,-0.0911 0.15688,-0.14928 0.0759,-0.0582 0.21507,-0.14423 0.2176,-0.13663 0.28592,-0.20495 0.14169,-0.13916 0.14169,-0.30869 0,-0.14928 -0.0961,-0.2429 -0.0962,-0.0961 -0.25049,-0.0961 -0.18471,0 -0.26568,0.12904 -0.0784,0.12651 -0.0835,0.32134 h -0.2176 v -0.0481 q 0,-0.26568 0.15688,-0.42761 0.1594,-0.16194 0.42002,-0.16194 0.25555,0 0.40737,0.14169 0.15181,0.1417 0.15181,0.37954 0,0.10121 -0.0354,0.1923 -0.0329,0.0886 -0.0759,0.14929 -0.0405,0.0607 -0.12651,0.12904 -0.0835,0.0683 -0.13916,0.10627 -0.0557,0.0354 -0.15941,0.0987 -0.20748,0.12398 -0.2758,0.1923 -0.0961,0.0936 -0.12398,0.21001 z"
         id="path10394" /></g><path
       id="path1579"
       style="fill:#ff0700;stroke:#000000;stroke-width:0.500875"
       d="m 161.19112,135.32944 a 13.070535,7.5330893 0 0 1 -13.07053,7.53307 13.070535,7.5330893 0 0 1 -13.07055,-7.53307 13.070535,7.5330893 0 0 1 13.07055,-7.5331 13.070535,7.5330893 0 0 1 13.07053,7.5331 z" /><g
       aria-label="Запрос"
       transform="matrix(1.4688391,0,0,1.4688391,-0.85503808,-13.659067)"
       id="text1587"
       style="font-size:2.53025px;line-height:1.25;font-family:HelveticaNeueCyr;-inkscape-font-specification:HelveticaNeueCyr;white-space:pre;inline-size:12.8914;display:inline;stroke-width:0.189768"><path
         d="m 98.406734,101.56692 q 0,0.26062 -0.20242,0.42762 -0.20242,0.16699 -0.50605,0.16699 -0.366886,0 -0.574367,-0.16699 -0.20495,-0.16953 -0.20748,-0.47569 h 0.392188 q 0.0051,0.17206 0.111331,0.25555 0.106271,0.0835 0.278328,0.0835 0.136633,0 0.222662,-0.081 0.08856,-0.0835 0.08856,-0.20748 0,-0.25302 -0.339054,-0.25302 h -0.136633 v -0.26821 q 0.03036,0.003 0.10627,0.003 0.326402,0 0.326402,-0.24543 0,-0.10374 -0.07338,-0.15941 -0.07338,-0.0582 -0.197359,-0.0582 -0.146755,0 -0.235314,0.0708 -0.08856,0.0683 -0.09868,0.19736 h -0.374477 q 0.0051,-0.28592 0.20495,-0.43014 0.19989,-0.14422 0.50605,-0.14422 0.278327,0 0.457975,0.13916 0.182178,0.13663 0.182178,0.3593 0,0.1341 -0.07591,0.23531 -0.07591,0.0987 -0.19736,0.12651 0.149285,0.0228 0.245434,0.13916 0.09615,0.1164 0.09615,0.28592 z"
         style="font-weight:bold"
         id="path10436" /><path
         d="m 99.856568,102.12105 h -0.364356 q -0.01771,-0.0506 -0.0253,-0.12651 -0.164466,0.16446 -0.422552,0.16446 -0.217601,0 -0.341583,-0.10374 -0.123983,-0.10627 -0.123983,-0.29098 0,-0.0835 0.02024,-0.14675 0.02277,-0.0633 0.07085,-0.10627 0.0506,-0.043 0.09362,-0.0708 0.04554,-0.0278 0.123982,-0.0455 0.07844,-0.0177 0.126512,-0.0253 0.04807,-0.0101 0.134104,-0.0202 0.189768,-0.0253 0.253025,-0.0531 0.06579,-0.0278 0.06579,-0.10374 0,-0.17459 -0.235313,-0.17459 -0.123982,0 -0.182178,0.0455 -0.0582,0.043 -0.07591,0.15435 h -0.336523 q 0.03036,-0.44026 0.60473,-0.44026 0.569306,0 0.569306,0.42508 v 0.56424 q 0,0.24797 0.04554,0.35424 z m -0.392189,-0.63509 q -0.06326,0.0379 -0.253025,0.0683 -0.159406,0.0253 -0.207481,0.0633 -0.05567,0.0455 -0.05567,0.13157 0,0.081 0.05061,0.12904 0.05313,0.0455 0.146754,0.0455 0.144225,0 0.230253,-0.0759 0.08856,-0.0784 0.08856,-0.21507 z"
         style="font-weight:bold"
         id="path10438" /><path
         d="m 101.31652,102.12105 h -0.35676 v -1.02981 h -0.50352 v 1.02981 h -0.35677 v -1.30561 h 1.21705 z"
         style="font-weight:bold"
         id="path10440" /><path
         d="m 101.9339,100.81544 v 0.16193 q 0.1417,-0.19735 0.40484,-0.19735 0.26315,0 0.42255,0.18976 0.15941,0.18977 0.15941,0.50605 0,0.30616 -0.15688,0.4934 -0.15434,0.18471 -0.4099,0.18471 -0.26314,0 -0.40231,-0.19483 v 0.62497 h -0.35676 v -1.76864 z m 0.31628,0.25302 q -0.14675,0 -0.23025,0.10627 -0.081,0.10627 -0.081,0.29604 0,0.18977 0.0835,0.29604 0.0835,0.10627 0.23025,0.10627 0.14423,0 0.2252,-0.10627 0.0835,-0.10627 0.0835,-0.29098 0,-0.18976 -0.0835,-0.29857 -0.0835,-0.1088 -0.22773,-0.1088 z"
         style="font-weight:bold"
         id="path10442" /><path
         d="m 104.4515,101.46824 q 0,0.31375 -0.18471,0.50352 -0.18218,0.18977 -0.48834,0.18977 -0.30616,0 -0.49086,-0.18977 -0.18471,-0.18977 -0.18471,-0.50352 0,-0.31122 0.18724,-0.50099 0.18723,-0.18976 0.4934,-0.18976 0.30109,0 0.48327,0.18976 0.18471,0.18977 0.18471,0.50099 z m -0.35929,-0.003 q 0,-0.19483 -0.086,-0.30363 -0.0835,-0.11133 -0.23279,-0.11133 -0.14422,0 -0.22772,0.11133 -0.0835,0.11133 -0.0835,0.30616 0,0.19989 0.0835,0.31122 0.0835,0.11134 0.23278,0.11134 0.14929,0 0.23026,-0.11134 0.0835,-0.11386 0.0835,-0.31375 z"
         style="font-weight:bold"
         id="path10444" /><path
         d="m 105.9317,101.61753 q -0.0329,0.25302 -0.19989,0.39472 -0.16447,0.14169 -0.42508,0.14169 -0.3011,0 -0.48328,-0.18471 -0.18218,-0.18471 -0.18218,-0.49087 0,-0.31628 0.18218,-0.50858 0.18471,-0.19229 0.48834,-0.19229 0.26061,0 0.42508,0.1341 0.16446,0.13157 0.18724,0.35929 h -0.35171 q -0.0405,-0.22519 -0.25808,-0.22519 -0.14676,0 -0.23026,0.11386 -0.081,0.11133 -0.081,0.31122 0,0.19483 0.0784,0.30363 0.081,0.10627 0.2252,0.10627 0.23531,0 0.27832,-0.26314 z"
         style="font-weight:bold"
         id="path10446" /></g><path
       style="fill:none;stroke:#000000;stroke-width:0.729067;stroke-linecap:butt;stroke-linejoin:miter;stroke-dasharray:none;stroke-opacity:1;marker-end:url(#Arrow2)"
       d="m 121.94362,173.32194 c 7.54095,-0.14102 11.5271,-10.51779 19.50629,-26.36319"
       id="path2096"
       sodipodi:nodetypes="cc" /><path
       id="rect1177"
       style="fill:#778ff8;stroke:#000000;stroke-width:0.508893"
       d="m 187.60013,110.14382 h 8.13327 v 8.13326 h -8.13327 z" /><path
       id="rect1179"
       style="fill:#778ff8;stroke:#000000;stroke-width:0.508893"
       d="m 187.60013,101.97572 h 8.13327 v 8.13326 h -8.13327 z" /><path
       id="rect1181"
       style="fill:#778ff8;stroke:#000000;stroke-width:0.508893"
       d="m 187.60013,126.48001 h 8.13327 v 8.13326 h -8.13327 z" /><path
       id="rect1183"
       style="fill:#778ff8;stroke:#000000;stroke-width:0.508893"
       d="m 187.60013,118.31191 h 8.13327 v 8.13326 h -8.13327 z" /><path
       id="rect1185"
       style="fill:#778ff8;stroke:#000000;stroke-width:0.508893"
       d="m 187.60013,142.81619 h 8.13327 v 8.13325 h -8.13327 z" /><path
       id="rect1187"
       style="fill:#778ff8;stroke:#000000;stroke-width:0.508893"
       d="m 187.60013,134.64811 h 8.13327 v 8.13327 h -8.13327 z" /><path
       id="rect1191"
       style="fill:#d70098;stroke:#000000;stroke-width:0.508893"
       d="m 179.43856,110.14382 h 8.13325 v 8.13326 h -8.13325 z" /><path
       id="rect1193"
       style="fill:#d70098;stroke:#000000;stroke-width:0.508893"
       d="m 179.43856,101.97572 h 8.13325 v 8.13326 h -8.13325 z" /><path
       id="rect1195"
       style="fill:#d70098;stroke:#000000;stroke-width:0.508893"
       d="m 179.43856,126.48001 h 8.13325 v 8.13326 h -8.13325 z" /><path
       id="rect1197"
       style="fill:#d70098;stroke:#000000;stroke-width:0.508893"
       d="m 179.43856,118.31191 h 8.13325 v 8.13326 h -8.13325 z" /><path
       id="rect1199"
       style="fill:#d70098;stroke:#000000;stroke-width:0.508893"
       d="m 179.43856,142.81619 h 8.13325 v 8.13325 h -8.13325 z" /><path
       id="rect1201"
       style="fill:#d70098;stroke:#000000;stroke-width:0.508893"
       d="m 179.43856,134.64811 h 8.13325 v 8.13327 h -8.13325 z" /><path
       id="rect1205"
       style="fill:#e7ff27;stroke:#000000;stroke-width:0.508893"
       d="m 195.76173,110.14282 h 8.13325 v 8.13326 h -8.13325 z" /><path
       id="rect1207"
       style="fill:#e7ff27;stroke:#000000;stroke-width:0.508893"
       d="m 195.76173,101.97471 h 8.13325 v 8.13326 h -8.13325 z" /><path
       id="rect1209"
       style="fill:#e7ff27;stroke:#000000;stroke-width:0.508893"
       d="m 195.76173,126.47901 h 8.13325 v 8.13326 h -8.13325 z" /><path
       id="rect1211"
       style="fill:#e7ff27;stroke:#000000;stroke-width:0.508893"
       d="m 195.76173,118.3109 h 8.13325 v 8.13326 h -8.13325 z" /><path
       id="rect1213"
       style="fill:#e7ff27;stroke:#000000;stroke-width:0.508893"
       d="m 195.76173,142.81519 h 8.13325 v 8.13327 h -8.13325 z" /><path
       id="rect1215"
       style="fill:#e7ff27;stroke:#000000;stroke-width:0.508893"
       d="m 195.76173,134.64709 h 8.13325 v 8.13327 h -8.13325 z" /><path
       id="rect1219"
       style="fill:#83fd55;stroke:#000000;stroke-width:0.508893"
       d="m 203.92328,110.14282 h 8.13325 v 8.13326 h -8.13325 z" /><path
       id="rect1221"
       style="fill:#83fd55;stroke:#000000;stroke-width:0.508893"
       d="m 203.92328,101.97471 h 8.13325 v 8.13326 h -8.13325 z" /><path
       id="rect1223"
       style="fill:#83fd55;stroke:#000000;stroke-width:0.508893"
       d="m 203.92328,126.47901 h 8.13325 v 8.13326 h -8.13325 z" /><path
       id="rect1225"
       style="fill:#83fd55;stroke:#000000;stroke-width:0.508893"
       d="m 203.92328,118.3109 h 8.13325 v 8.13326 h -8.13325 z" /><path
       id="rect1227"
       style="fill:#83fd55;stroke:#000000;stroke-width:0.508893"
       d="m 203.92328,142.81519 h 8.13325 v 8.13327 h -8.13325 z" /><path
       id="rect1229"
       style="fill:#83fd55;stroke:#000000;stroke-width:0.508893"
       d="m 203.92328,134.64709 h 8.13325 v 8.13327 h -8.13325 z" /><path
       id="rect1233"
       style="fill:#ff7c92;stroke:#000000;stroke-width:0.508893"
       d="m 212.08485,110.14282 h 8.13325 v 8.13326 h -8.13325 z" /><path
       id="rect1235"
       style="fill:#ff7c92;stroke:#000000;stroke-width:0.508893"
       d="m 212.08485,101.97471 h 8.13325 v 8.13326 h -8.13325 z" /><path
       id="rect1237"
       style="fill:#ff7c92;stroke:#000000;stroke-width:0.508893"
       d="m 212.08485,126.47901 h 8.13325 v 8.13326 h -8.13325 z" /><path
       id="rect1239"
       style="fill:#ff7c92;stroke:#000000;stroke-width:0.508893"
       d="m 212.08485,118.3109 h 8.13325 v 8.13326 h -8.13325 z" /><path
       id="rect1241"
       style="fill:#ff7c92;stroke:#000000;stroke-width:0.508893"
       d="m 212.08485,142.81519 h 8.13325 v 8.13327 h -8.13325 z" /><path
       id="rect1243"
       style="fill:#ff7c92;stroke:#000000;stroke-width:0.508893"
       d="m 212.08485,134.64709 h 8.13325 v 8.13327 h -8.13325 z" /><path
       id="rect1277"
       style="fill:#778ff8;stroke:#000000;stroke-width:0.508893"
       d="m 187.60013,159.16055 h 8.13327 v 8.13325 h -8.13327 z" /><path
       id="rect1279"
       style="fill:#778ff8;stroke:#000000;stroke-width:0.508893"
       d="m 187.60013,150.99243 h 8.13327 v 8.13327 h -8.13327 z" /><path
       id="rect1281"
       style="fill:#d70098;stroke:#000000;stroke-width:0.508893"
       d="m 179.43856,159.16055 h 8.13325 v 8.13325 h -8.13325 z" /><path
       id="rect1283"
       style="fill:#d70098;stroke:#000000;stroke-width:0.508893"
       d="m 179.43856,150.99243 h 8.13325 v 8.13327 h -8.13325 z" /><path
       id="rect1285"
       style="fill:#e7ff27;stroke:#000000;stroke-width:0.508893"
       d="m 195.76173,159.15953 h 8.13325 v 8.13327 h -8.13325 z" /><path
       id="rect1287"
       style="fill:#e7ff27;stroke:#000000;stroke-width:0.508893"
       d="m 195.76173,150.99143 h 8.13325 v 8.13325 h -8.13325 z" /><path
       id="rect1289"
       style="fill:#83fd55;stroke:#000000;stroke-width:0.508893"
       d="m 203.92328,159.15953 h 8.13325 v 8.13327 h -8.13325 z" /><path
       id="rect1291"
       style="fill:#83fd55;stroke:#000000;stroke-width:0.508893"
       d="m 203.92328,150.99143 h 8.13325 v 8.13325 h -8.13325 z" /><path
       id="rect1293"
       style="fill:#ff7c92;stroke:#000000;stroke-width:0.508893"
       d="m 212.08485,159.15953 h 8.13325 v 8.13327 h -8.13325 z" /><path
       id="rect1295"
       style="fill:#ff7c92;stroke:#000000;stroke-width:0.508893"
       d="m 212.08485,150.99143 h 8.13325 v 8.13325 h -8.13325 z" /><g
       aria-label="Представление"
       id="text1525"
       style="font-size:2.53025px;line-height:1.25;font-family:HelveticaNeueCyr;-inkscape-font-specification:HelveticaNeueCyr;stroke-width:0.189768"
       transform="matrix(1.9974431,0,0,1.9974431,-78.964065,-66.147101)"><path
         d="m 132.04081,79.73017 v 1.801538 h -0.23784 V 79.93765 h -0.95137 v 1.594058 h -0.23785 V 79.73017 Z"
         id="path10231" /><path
         d="m 132.60506,80.226099 v 0.184708 q 0.1417,-0.225192 0.44026,-0.225192 0.27327,0 0.43268,0.184708 0.16193,0.184708 0.16193,0.500989 0,0.316282 -0.1594,0.506051 -0.15688,0.187238 -0.42508,0.187238 -0.28086,0 -0.43774,-0.215071 v 0.685698 h -0.21507 v -1.809129 z m 0.40737,0.139163 q -0.18724,0 -0.29604,0.136634 -0.10627,0.134103 -0.10627,0.371947 0,0.237843 0.1088,0.374477 0.11133,0.134103 0.3011,0.134103 0.18471,0 0.29098,-0.136633 0.10627,-0.136634 0.10627,-0.371947 0,-0.237844 -0.1088,-0.371947 -0.10627,-0.136634 -0.29604,-0.136634 z"
         id="path10233" /><path
         d="m 135.01892,81.119277 q -0.0987,0.455445 -0.56931,0.455445 -0.28844,0 -0.45291,-0.179648 -0.16194,-0.179647 -0.16194,-0.498459 0,-0.316281 0.167,-0.511111 0.16953,-0.197359 0.44026,-0.197359 0.3011,0 0.44533,0.20495 0.14675,0.20242 0.14675,0.513641 v 0.03036 h -0.98174 l -0.003,0.01518 q 0,0.207481 0.10881,0.326403 0.1088,0.118922 0.29856,0.118922 0.1417,0 0.22267,-0.06579 0.0835,-0.06579 0.12904,-0.212541 z m -0.20748,-0.356765 q -0.0152,-0.187239 -0.11386,-0.290979 -0.0987,-0.106271 -0.26062,-0.106271 -0.15687,0 -0.26061,0.106271 -0.10374,0.10627 -0.12399,0.290979 z"
         id="path10235" /><path
         d="m 136.48141,81.946669 h -0.20495 v -0.414961 h -0.99692 v 0.414961 h -0.20495 v -0.60473 h 0.14169 q 0.0607,-0.116391 0.11133,-0.359296 0.0531,-0.245434 0.0531,-0.478217 v -0.278327 h 0.93113 v 1.11584 h 0.16953 z m -0.3846,-0.60473 v -0.926072 h -0.50605 v 0.108801 q 0,0.230253 -0.0481,0.468096 -0.0455,0.235314 -0.10374,0.349175 z"
         id="path10237" /><path
         d="m 137.79208,81.056021 q -0.0278,0.235313 -0.17965,0.374477 -0.14929,0.139164 -0.38966,0.139164 -0.29604,0 -0.45798,-0.182178 -0.16193,-0.184709 -0.16193,-0.490869 0,-0.326402 0.16952,-0.516171 0.16953,-0.192299 0.45798,-0.192299 0.24037,0 0.3846,0.121452 0.14422,0.118922 0.16952,0.341584 h -0.22266 q -0.0582,-0.283388 -0.32893,-0.283388 -0.18724,0 -0.29604,0.139163 -0.1088,0.136634 -0.1088,0.371947 0,0.237844 0.10374,0.374477 0.10374,0.136634 0.28592,0.136634 0.14675,0 0.23784,-0.08603 0.0936,-0.08603 0.11892,-0.247964 z"
         id="path10239" /><path
         d="m 139.02684,80.415867 h -0.4681 v 1.115841 h -0.21507 v -1.115841 h -0.46809 v -0.189768 h 1.15126 z"
         id="path10241" /><path
         d="m 140.30968,81.359651 v 0.166996 q -0.0658,0.0253 -0.14676,0.0253 -0.18471,0 -0.18977,-0.192299 -0.18471,0.20748 -0.47315,0.20748 -0.1923,0 -0.30616,-0.09868 -0.11134,-0.09868 -0.11134,-0.270737 0,-0.349175 0.46304,-0.407371 0.27327,-0.03289 0.31628,-0.04807 0.0911,-0.03036 0.0987,-0.126513 0.003,-0.01518 0.003,-0.03289 0,-0.215071 -0.29604,-0.215071 -0.15181,0 -0.23025,0.06326 -0.0784,0.06073 -0.0936,0.20242 h -0.21001 q 0.005,-0.210011 0.14928,-0.326402 0.14423,-0.116392 0.39725,-0.116392 0.2758,0 0.4099,0.126513 0.043,0.04048 0.0633,0.10627 0.0202,0.06579 0.0228,0.108801 0.003,0.04048 0.003,0.123982 0,0.09868 -0.005,0.293509 -0.005,0.192299 -0.005,0.288449 0,0.07085 0.0177,0.10121 0.0203,0.02783 0.0709,0.02783 0.0202,0 0.0531,-0.0076 z m -0.34665,-0.50605 q -0.0228,0.01771 -0.0481,0.03036 -0.0253,0.01265 -0.0658,0.02024 -0.0379,0.0076 -0.0531,0.01265 -0.0127,0.0025 -0.0658,0.01012 -0.0531,0.0051 -0.0557,0.0051 -0.0784,0.01012 -0.10374,0.01518 -0.0228,0.0025 -0.0911,0.02024 -0.0658,0.01771 -0.0936,0.04048 -0.0278,0.02277 -0.0557,0.06832 -0.0253,0.04301 -0.0253,0.10374 0,0.10121 0.0683,0.159406 0.0709,0.0582 0.1923,0.0582 0.15435,0 0.2758,-0.09109 0.12145,-0.09109 0.12145,-0.215072 z"
         id="path10243" /><path
         d="m 140.50704,81.531708 v -1.305609 h 0.60473 q 0.12904,0 0.22013,0.02277 0.0911,0.02024 0.1594,0.09362 0.0683,0.07338 0.0683,0.19989 0,0.192299 -0.1923,0.280858 v 0.0025 q 0.11639,0.02277 0.18218,0.108801 0.0658,0.0835 0.0658,0.212541 0,0.166996 -0.11134,0.275797 -0.11133,0.108801 -0.28591,0.108801 z m 0.58195,-0.779317 q 0.13411,0 0.18977,-0.04301 0.0582,-0.04554 0.0582,-0.131573 0,-0.08603 -0.0557,-0.126512 -0.0557,-0.04048 -0.1923,-0.04048 h -0.37194 V 80.7524 Z m -0.37194,0.182178 V 81.347 h 0.4605 q 0.10121,0 0.15688,-0.06073 0.0582,-0.06073 0.0582,-0.156876 0,-0.194829 -0.25302,-0.194829 z"
         id="path10245" /><path
         d="m 142.91331,80.226099 v 1.305609 h -0.21507 v -1.115841 h -0.46557 l -0.0177,0.576897 q -0.008,0.29857 -0.1088,0.432673 -0.10121,0.134104 -0.25303,0.134104 -0.0936,0 -0.15434,-0.02783 v -0.174587 q 0.0329,0.01771 0.11386,0.01771 0.0759,0 0.12904,-0.08097 0.0557,-0.0835 0.0607,-0.278327 l 0.0228,-0.789438 z"
         id="path10247" /><path
         d="m 144.34796,81.119277 q -0.0987,0.455445 -0.56931,0.455445 -0.28845,0 -0.45291,-0.179648 -0.16194,-0.179647 -0.16194,-0.498459 0,-0.316281 0.167,-0.511111 0.16952,-0.197359 0.44026,-0.197359 0.3011,0 0.44533,0.20495 0.14675,0.20242 0.14675,0.513641 v 0.03036 h -0.98174 l -0.003,0.01518 q 0,0.207481 0.1088,0.326403 0.1088,0.118922 0.29857,0.118922 0.1417,0 0.22266,-0.06579 0.0835,-0.06579 0.12905,-0.212541 z m -0.20748,-0.356765 q -0.0152,-0.187239 -0.11386,-0.290979 -0.0987,-0.106271 -0.26062,-0.106271 -0.15687,0 -0.26062,0.106271 -0.10374,0.10627 -0.12398,0.290979 z"
         id="path10249" /><path
         d="m 144.80593,81.531708 h -0.21507 v -1.305609 h 0.21507 V 80.7448 h 0.65281 v -0.518701 h 0.21507 v 1.305609 h -0.21507 v -0.597139 h -0.65281 z"
         id="path10251" /><path
         d="m 146.27348,81.531708 h -0.2758 v -1.305609 h 0.21507 v 1.065235 h 0.005 l 0.58702,-1.065235 h 0.2758 v 1.305609 h -0.21507 v -1.065236 h -0.005 z"
         id="path10253" /><path
         d="m 148.52034,81.119277 q -0.0987,0.455445 -0.5693,0.455445 -0.28845,0 -0.45292,-0.179648 -0.16194,-0.179647 -0.16194,-0.498459 0,-0.316281 0.167,-0.511111 0.16953,-0.197359 0.44026,-0.197359 0.3011,0 0.44533,0.20495 0.14675,0.20242 0.14675,0.513641 v 0.03036 h -0.98173 l -0.003,0.01518 q 0,0.207481 0.1088,0.326403 0.1088,0.118922 0.29857,0.118922 0.14169,0 0.22266,-0.06579 0.0835,-0.06579 0.12904,-0.212541 z m -0.20748,-0.356765 q -0.0152,-0.187239 -0.11386,-0.290979 -0.0987,-0.106271 -0.26062,-0.106271 -0.15687,0 -0.26061,0.106271 -0.10374,0.10627 -0.12398,0.290979 z"
         id="path10255" /></g><path
       style="fill:none;stroke:#000000;stroke-width:0.75151;stroke-linecap:butt;stroke-linejoin:miter;stroke-dasharray:none;stroke-opacity:1;marker-end:url(#Arrow2)"
       d="m 162.08186,134.85646 11.06142,-0.19215"
       id="path2842"
       sodipodi:nodetypes="cc" /><path
       id="rect2898"
       style="fill:none;fill-opacity:0.609081;stroke:#8c8c8f;stroke-width:0.620564;stroke-dasharray:1.24113, 0.620564"
       d="m 178.84604,108.87439 h 61.33305 c 1.01047,0 1.82397,0.81349 1.82397,1.82397 v 7.02843 c 0,1.01048 -0.8135,1.82397 -1.82397,1.82397 h -61.33305 c -1.01049,0 -1.82396,-0.81349 -1.82396,-1.82397 v -7.02843 c 0,-1.01048 0.81347,-1.82397 1.82396,-1.82397 z" /><path
       id="rect6770"
       style="fill:none;fill-opacity:0.609081;stroke:#8c8c8f;stroke-width:0.677355;stroke-dasharray:1.35471, 0.677355"
       d="m 202.66076,175.67709 v -73.46297 c 0,-1.21033 0.97437,-2.18471 2.1847,-2.18471 h 6.25018 c 1.21033,0 2.1847,0.97438 2.1847,2.18471 v 73.46297 c 0,1.21033 -0.97437,2.1847 -2.1847,2.1847 h -6.25018 c -1.21033,0 -2.1847,-0.97437 -2.1847,-2.1847 z" /><g
       aria-label="строка"
       id="text7631"
       style="font-size:1.83791px;line-height:1.25;font-family:HelveticaNeueCyr;-inkscape-font-specification:HelveticaNeueCyr;opacity:0.506649;stroke-width:0.137842"
       transform="matrix(1.9974431,0,0,1.9974431,-78.964065,-66.147101)"><path
         d="m 154.74112,90.500947 q -0.0202,0.170925 -0.13049,0.27201 -0.10844,0.101085 -0.28304,0.101085 -0.21503,0 -0.33266,-0.132329 -0.11762,-0.134168 -0.11762,-0.356555 0,-0.23709 0.12314,-0.374933 0.12314,-0.139682 0.33266,-0.139682 0.1746,0 0.27936,0.08822 0.10476,0.08638 0.12314,0.248118 h -0.16174 q -0.0423,-0.205846 -0.23893,-0.205846 -0.136,0 -0.21503,0.101085 -0.079,0.09925 -0.079,0.270173 0,0.172763 0.0754,0.272011 0.0754,0.09925 0.20769,0.09925 0.1066,0 0.17276,-0.06249 0.068,-0.06249 0.0864,-0.180115 z"
         id="path10210" /><path
         d="m 155.63802,90.035955 h -0.34001 v 0.810519 h -0.15622 v -0.810519 h -0.34001 v -0.137843 h 0.83624 z"
         id="path10212" /><path
         d="m 155.91003,89.898112 v 0.134168 q 0.10293,-0.163574 0.3198,-0.163574 0.19849,0 0.31428,0.134167 0.11763,0.134167 0.11763,0.363906 0,0.229739 -0.11579,0.367582 -0.11395,0.136006 -0.30877,0.136006 -0.20401,0 -0.31796,-0.156223 v 0.498074 H 155.763 v -1.314106 z m 0.29591,0.101085 q -0.13601,0 -0.21504,0.09925 -0.0772,0.09741 -0.0772,0.270173 0,0.172764 0.079,0.272011 0.0809,0.09741 0.21871,0.09741 0.13417,0 0.21136,-0.09925 0.0772,-0.09925 0.0772,-0.270173 0,-0.172763 -0.079,-0.270173 -0.0772,-0.09925 -0.21503,-0.09925 z"
         id="path10214" /><path
         d="m 156.92824,90.006549 q 0.12497,-0.136006 0.34001,-0.136006 0.21504,0 0.3345,0.130492 0.11946,0.130492 0.11946,0.365744 0,0.240766 -0.11946,0.374934 -0.11946,0.134167 -0.33634,0.134167 -0.21687,0 -0.34001,-0.132329 -0.12314,-0.13233 -0.12314,-0.367582 0,-0.233415 0.12498,-0.36942 z m 0.55321,0.09557 q -0.079,-0.101085 -0.21688,-0.101085 -0.13784,0 -0.21871,0.101085 -0.0809,0.101085 -0.0809,0.270173 0,0.174601 0.079,0.273848 0.0809,0.09741 0.22422,0.09741 0.13784,0 0.21504,-0.09925 0.079,-0.09925 0.079,-0.273849 0,-0.169088 -0.0809,-0.268335 z"
         id="path10216" /><path
         d="m 158.75696,90.846474 h -0.1985 l -0.34553,-0.466829 -0.14887,0.145194 v 0.321635 h -0.15622 v -0.948362 h 0.15622 v 0.452126 l 0.43375,-0.452126 h 0.20952 l -0.38228,0.373096 z"
         id="path10218" /><path
         d="m 159.70164,90.721496 v 0.121302 q -0.0478,0.01838 -0.1066,0.01838 -0.13417,0 -0.13784,-0.139681 -0.13417,0.150708 -0.34369,0.150708 -0.13968,0 -0.22239,-0.07168 -0.0809,-0.07168 -0.0809,-0.196656 0,-0.253632 0.33634,-0.295904 0.1985,-0.02389 0.22974,-0.03492 0.0662,-0.02205 0.0717,-0.0919 0.002,-0.01103 0.002,-0.02389 0,-0.156222 -0.21504,-0.156222 -0.11027,0 -0.16725,0.04595 -0.057,0.04411 -0.068,0.147033 h -0.15255 q 0.004,-0.152547 0.10844,-0.237091 0.10476,-0.08454 0.28855,-0.08454 0.20033,0 0.29774,0.0919 0.0312,0.02941 0.046,0.07719 0.0147,0.04779 0.0165,0.07903 0.002,0.02941 0.002,0.09006 0,0.07168 -0.004,0.213197 -0.004,0.139682 -0.004,0.209522 0,0.05146 0.0129,0.07352 0.0147,0.02022 0.0515,0.02022 0.0147,0 0.0386,-0.0055 z m -0.25179,-0.367582 q -0.0165,0.01286 -0.0349,0.02205 -0.0184,0.0092 -0.0478,0.0147 -0.0276,0.0055 -0.0386,0.0092 -0.009,0.0018 -0.0478,0.0074 -0.0386,0.0037 -0.0404,0.0037 -0.057,0.0074 -0.0753,0.01103 -0.0165,0.0018 -0.0662,0.0147 -0.0478,0.01286 -0.068,0.02941 -0.0202,0.01654 -0.0404,0.04962 -0.0184,0.03124 -0.0184,0.07535 0,0.07352 0.0496,0.115789 0.0515,0.04227 0.13968,0.04227 0.11212,0 0.20034,-0.06616 0.0882,-0.06616 0.0882,-0.156223 z"
         id="path10220" /></g><g
       aria-label="столбец"
       id="text7635"
       style="font-size:1.83791px;line-height:1.25;font-family:HelveticaNeueCyr;-inkscape-font-specification:HelveticaNeueCyr;opacity:0.506649;stroke-width:0.137842"
       transform="matrix(1.9974431,0,0,1.9974431,-78.964065,-66.147101)"><path
         d="m 141.1399,123.98386 q -0.0202,0.17093 -0.1305,0.27202 -0.10843,0.10108 -0.28303,0.10108 -0.21504,0 -0.33267,-0.13233 -0.11762,-0.13417 -0.11762,-0.35655 0,-0.23709 0.12314,-0.37494 0.12314,-0.13968 0.33266,-0.13968 0.1746,0 0.27936,0.0882 0.10476,0.0864 0.12314,0.24812 h -0.16173 q -0.0423,-0.20585 -0.23893,-0.20585 -0.13601,0 -0.21504,0.10109 -0.079,0.0992 -0.079,0.27017 0,0.17276 0.0754,0.27201 0.0754,0.0993 0.20768,0.0993 0.1066,0 0.17276,-0.0625 0.068,-0.0625 0.0864,-0.18012 z"
         id="path10193" /><path
         d="m 142.0368,123.51887 h -0.34002 v 0.81052 h -0.15622 v -0.81052 h -0.34001 v -0.13784 h 0.83625 z"
         id="path10195" /><path
         d="m 142.20405,123.48947 q 0.12497,-0.13601 0.34001,-0.13601 0.21504,0 0.3345,0.13049 0.11946,0.13049 0.11946,0.36575 0,0.24076 -0.11946,0.37493 -0.11946,0.13417 -0.33634,0.13417 -0.21687,0 -0.34001,-0.13233 -0.12314,-0.13233 -0.12314,-0.36758 0,-0.23342 0.12498,-0.36942 z m 0.55321,0.0956 q -0.079,-0.10109 -0.21688,-0.10109 -0.13784,0 -0.21871,0.10109 -0.0809,0.10108 -0.0809,0.27017 0,0.1746 0.079,0.27385 0.0809,0.0974 0.22422,0.0974 0.13784,0 0.21504,-0.0993 0.079,-0.0992 0.079,-0.27385 0,-0.16908 -0.0809,-0.26833 z"
         id="path10197" /><path
         d="m 143.92984,123.38103 v 0.94836 h -0.15622 v -0.81052 h -0.33818 l -0.0129,0.41905 q -0.006,0.21687 -0.079,0.31428 -0.0735,0.0974 -0.18379,0.0974 -0.068,0 -0.11211,-0.0202 v -0.12681 q 0.0239,0.0129 0.0827,0.0129 0.0551,0 0.0937,-0.0588 0.0404,-0.0607 0.0441,-0.20217 l 0.0165,-0.57343 z"
         id="path10199" /><path
         d="m 144.24964,123.2487 q 0.0625,-0.0974 0.15071,-0.14336 0.0882,-0.0478 0.22422,-0.057 0.15255,-0.011 0.18563,-0.0294 0.0221,-0.011 0.0331,-0.0294 h 0.15623 q -0.006,0.0294 -0.0165,0.0533 -0.009,0.0239 -0.022,0.0423 -0.011,0.0165 -0.0331,0.0312 -0.0202,0.0147 -0.0349,0.0257 -0.0147,0.009 -0.0441,0.0184 -0.0276,0.007 -0.0441,0.0129 -0.0165,0.004 -0.0515,0.007 -0.0331,0.004 -0.0478,0.006 -0.0147,0.002 -0.0533,0.004 -0.0386,0.002 -0.0496,0.004 -0.15071,0.011 -0.23526,0.11763 -0.0845,0.10476 -0.10659,0.2812 h 0.006 q 0.0404,-0.0974 0.12865,-0.15622 0.0882,-0.0588 0.20401,-0.0588 0.20217,0 0.31612,0.12866 0.11579,0.12681 0.11579,0.35655 0,0.23709 -0.11763,0.36758 -0.11578,0.1305 -0.32714,0.1305 -0.17277,0 -0.29223,-0.10109 -0.11947,-0.10292 -0.14703,-0.29406 -0.011,-0.0772 -0.011,-0.17277 0,-0.36942 0.11395,-0.54402 z m 0.046,0.61938 q 0,0.16173 0.0772,0.26098 0.079,0.0992 0.21503,0.0992 0.13233,0 0.20769,-0.0956 0.0753,-0.0956 0.0753,-0.2665 0,-0.16725 -0.0772,-0.26282 -0.0772,-0.0956 -0.20952,-0.0956 -0.13233,0 -0.21136,0.0974 -0.0772,0.0956 -0.0772,0.26283 z"
         id="path10201" /><path
         d="m 146.0269,124.02981 q -0.0717,0.33083 -0.41353,0.33083 -0.20952,0 -0.32899,-0.1305 -0.11763,-0.13049 -0.11763,-0.36206 0,-0.22974 0.12131,-0.37126 0.12314,-0.14336 0.31979,-0.14336 0.21871,0 0.32348,0.14887 0.10659,0.14703 0.10659,0.3731 v 0.0221 h -0.71311 l -0.002,0.011 q 0,0.15071 0.079,0.23709 0.079,0.0864 0.21687,0.0864 0.10292,0 0.16174,-0.0478 0.0607,-0.0478 0.0937,-0.15439 z m -0.15071,-0.25914 q -0.011,-0.13601 -0.0827,-0.21136 -0.0717,-0.0772 -0.1893,-0.0772 -0.11395,0 -0.18931,0.0772 -0.0754,0.0772 -0.0901,0.21136 z"
         id="path10203" /><path
         d="m 146.95688,124.63081 v -0.30142 h -0.75354 v -0.94836 h 0.15622 v 0.81052 h 0.46683 v -0.81052 h 0.15622 v 0.81052 h 0.12314 v 0.43926 z"
         id="path10205" /></g><path
       style="fill:none;stroke:#000000;stroke-width:0.729067;stroke-linecap:butt;stroke-linejoin:miter;stroke-dasharray:none;stroke-opacity:1;marker-end:url(#Arrow2)"
       d="m 121.66466,96.966473 c 7.54094,0.14102 11.5271,10.517797 19.50629,26.363197"
       id="path7701"
       sodipodi:nodetypes="cc" /></g></svg>
