<?xml version="1.0" encoding="UTF-8" standalone="no"?>
<!-- Created with Inkscape (http://www.inkscape.org/) -->

<svg
   width="513.96973"
   height="445.00854"
   viewBox="0 0 513.96973 445.00854"
   version="1.1"
   id="svg1"
   inkscape:version="1.4 (e7c3feb100, 2024-10-09)"
   sodipodi:docname="cluster_auto_sharding.svg"
   inkscape:export-filename="cluster_map.png"
   inkscape:export-xdpi="200"
   inkscape:export-ydpi="200"
   xmlns:inkscape="http://www.inkscape.org/namespaces/inkscape"
   xmlns:sodipodi="http://sodipodi.sourceforge.net/DTD/sodipodi-0.dtd"
   xmlns:xlink="http://www.w3.org/1999/xlink"
   xmlns="http://www.w3.org/2000/svg"
   xmlns:svg="http://www.w3.org/2000/svg">
  <sodipodi:namedview
     id="namedview1"
     pagecolor="#ffffff"
     bordercolor="#666666"
     borderopacity="1.0"
     inkscape:showpageshadow="2"
     inkscape:pageopacity="0.0"
     inkscape:pagecheckerboard="0"
     inkscape:deskcolor="#d1d1d1"
     inkscape:document-units="mm"
     showguides="false"
     inkscape:zoom="1.4342733"
     inkscape:cx="306.07835"
     inkscape:cy="214.39429"
     inkscape:window-width="1858"
     inkscape:window-height="1014"
     inkscape:window-x="62"
     inkscape:window-y="29"
     inkscape:window-maximized="1"
     inkscape:current-layer="layer1" />
  <defs
     id="defs1">
    <linearGradient
       id="linearGradient139"
       inkscape:collect="always">
      <stop
         style="stop-color:#ffffff;stop-opacity:1;"
         offset="0"
         id="stop139" />
      <stop
         style="stop-color:#c3c3c3;stop-opacity:1;"
         offset="0.99773723"
         id="stop140" />
    </linearGradient>
    <linearGradient
       id="linearGradient133"
       inkscape:collect="always">
      <stop
         style="stop-color:#cccccc;stop-opacity:0.50736368;"
         offset="0"
         id="stop133" />
      <stop
         style="stop-color:#e7e7e7;stop-opacity:0;"
         offset="0.49700609"
         id="stop135" />
      <stop
         style="stop-color:#d1d1d1;stop-opacity:0.52094537;"
         offset="1"
         id="stop134" />
    </linearGradient>
    <inkscape:perspective
       sodipodi:type="inkscape:persp3d"
       inkscape:vp_x="-94.727724 : 780.01337 : 1"
       inkscape:vp_y="0 : 6124.1835 : 0"
       inkscape:vp_z="960.61459 : 846.87096 : 1"
       inkscape:persp3d-origin="245.27192 : 112.16281 : 1"
       id="perspective1" />
    <linearGradient
       inkscape:collect="always"
       xlink:href="#linearGradient133"
       id="linearGradient145"
       gradientUnits="userSpaceOnUse"
       gradientTransform="translate(-905.05183,66.22866)"
       x1="1232.27"
       y1="-189.80646"
       x2="1291.3629"
       y2="-189.80646" />
    <radialGradient
       inkscape:collect="always"
       xlink:href="#linearGradient139"
       id="radialGradient61"
       gradientUnits="userSpaceOnUse"
       gradientTransform="matrix(2.2436668e-6,-0.9734035,2.1474922,0,541.73697,993.82588)"
       cx="1112.4368"
       cy="-85.774612"
       fx="1112.4368"
       fy="-85.774612"
       r="30.264471" />
    <radialGradient
       inkscape:collect="always"
       xlink:href="#linearGradient139"
       id="radialGradient23"
       gradientUnits="userSpaceOnUse"
       gradientTransform="matrix(2.2436668e-6,-0.9734035,2.1474922,0,507.08156,1115.0994)"
       cx="1112.4368"
       cy="-85.774612"
       fx="1112.4368"
       fy="-85.774612"
       r="30.264471" />
    <radialGradient
       inkscape:collect="always"
       xlink:href="#linearGradient139"
       id="radialGradient39"
       gradientUnits="userSpaceOnUse"
       gradientTransform="matrix(2.2436668e-6,-0.9734035,2.1474922,0,620.37936,1113.705)"
       cx="1112.4368"
       cy="-85.774612"
       fx="1112.4368"
       fy="-85.774612"
       r="30.264471" />
    <radialGradient
       inkscape:collect="always"
       xlink:href="#linearGradient139"
       id="radialGradient53"
       gradientUnits="userSpaceOnUse"
       gradientTransform="matrix(2.2436668e-6,-0.9734035,2.1474922,0,454.18865,1232.6393)"
       cx="1112.4368"
       cy="-85.774612"
       fx="1112.4368"
       fy="-85.774612"
       r="30.264471" />
    <radialGradient
       inkscape:collect="always"
       xlink:href="#linearGradient139"
       id="radialGradient87"
       gradientUnits="userSpaceOnUse"
       gradientTransform="matrix(2.2436668e-6,-0.9734035,2.1474922,0,565.96937,1231.6533)"
       cx="1112.4368"
       cy="-85.774612"
       fx="1112.4368"
       fy="-85.774612"
       r="30.264471" />
    <radialGradient
       inkscape:collect="always"
       xlink:href="#linearGradient139"
       id="radialGradient110"
       gradientUnits="userSpaceOnUse"
       gradientTransform="matrix(2.2436668e-6,-0.9734035,2.1474922,0,678.99984,1230.6673)"
       cx="1112.4368"
       cy="-85.774612"
       fx="1112.4368"
       fy="-85.774612"
       r="30.264471" />
    <linearGradient
       inkscape:collect="always"
       xlink:href="#linearGradient133"
       id="linearGradient110"
       gradientUnits="userSpaceOnUse"
       gradientTransform="translate(-939.70722,187.50216)"
       x1="1232.27"
       y1="-189.80646"
       x2="1291.3629"
       y2="-189.80646" />
    <linearGradient
       inkscape:collect="always"
       xlink:href="#linearGradient133"
       id="linearGradient123"
       gradientUnits="userSpaceOnUse"
       gradientTransform="translate(-826.40943,186.10771)"
       x1="1232.27"
       y1="-189.80646"
       x2="1291.3629"
       y2="-189.80646" />
    <linearGradient
       inkscape:collect="always"
       xlink:href="#linearGradient133"
       id="linearGradient130"
       gradientUnits="userSpaceOnUse"
       gradientTransform="translate(-992.60015,305.04203)"
       x1="1232.27"
       y1="-189.80646"
       x2="1291.3629"
       y2="-189.80646" />
    <linearGradient
       inkscape:collect="always"
       xlink:href="#linearGradient133"
       id="linearGradient131"
       gradientUnits="userSpaceOnUse"
       gradientTransform="translate(-880.81942,304.05602)"
       x1="1232.27"
       y1="-189.80646"
       x2="1291.3629"
       y2="-189.80646" />
    <linearGradient
       inkscape:collect="always"
       xlink:href="#linearGradient133"
       id="linearGradient136"
       gradientUnits="userSpaceOnUse"
       gradientTransform="translate(-767.7888,303.06988)"
       x1="1232.27"
       y1="-189.80646"
       x2="1291.3629"
       y2="-189.80646" />
  </defs>
  <g
     inkscape:label="Layer 1"
     inkscape:groupmode="layer"
     id="layer1"
     transform="translate(-210.88057,184.98224)">
    <path
       id="rect141"
       style="fill:#dfdfdf;fill-opacity:0.61;stroke-width:0.749481"
       d="M 353.6431,-184.98224 H 492.574 c 8.0508,0 14.53214,6.48134 14.53214,14.53214 v 110.33598 c 0,8.050808 -6.48134,14.532144 -14.53214,14.532144 H 353.6431 c -8.05081,0 -14.53215,-6.481336 -14.53215,-14.532144 V -170.4501 c 0,-8.0508 6.48134,-14.53214 14.53215,-14.53214 z" />
    <g
       id="g132"
       transform="matrix(1.2816544,0,0,1.2816544,-27.537004,52.101059)">
      <path
         id="path260"
         style="fill:#ffffff;fill-opacity:0.86519;stroke:#000000;stroke-width:0.264999"
         d="m 356.76745,-175.09862 c -16.6416,-1e-5 -30.1322,4.8473 -30.1321,10.82673 0.01,0.04 0.013,0.0799 0.02,0.11989 v 68.598387 c -0.01,0.0399 -0.014,0.0799 -0.02,0.11989 0.01,0.04 0.013,0.0799 0.02,0.11989 v 0.0961 h 0.016 c 0.327,5.88986 13.7004,10.60484 30.096,10.61072 16.4046,-0.001 29.792,-4.71762 30.1191,-10.61073 h 0.017 v -69.138377 h -0.01 c -0.1286,-5.94585 -13.5787,-10.74176 -30.1273,-10.7425 z"
         sodipodi:nodetypes="ccccccccccccccc" />
      <path
         id="ellipse48"
         style="fill:url(#radialGradient61);stroke:#000000;stroke-width:0.264999"
         d="m 386.90013,-95.433655 a 30.131971,10.826639 0 0 1 -30.13197,10.826639 30.131971,10.826639 0 0 1 -30.13197,-10.826639 30.131971,10.826639 0 0 1 30.13197,-10.826635 30.131971,10.826639 0 0 1 30.13197,10.826635 z" />
      <g
         id="g9"
         transform="translate(157.71423,-125.98414)">
        <path
           id="path8"
           style="fill:#378503;fill-opacity:0.988235;stroke:#000000;stroke-width:0.264999"
           d="m 198.98148,19.723587 c -11.04678,0.003 -21.20295,2.17824 -26.46661,5.66788 h -3.69486 v 4.85551 c 0,0 0.003,-0.15598 2.3e-4,-0.005 -1.4e-4,5.97943 13.51929,11.13516 30.16084,11.13515 16.64154,10e-6 30.16241,-5.11536 30.16227,-11.09479 0.002,-0.032 -0.004,-0.003 -8.6e-4,-0.0209 v -4.86993 h -3.67573 c -5.26693,-3.49185 -15.43209,-5.66716 -26.48572,-5.66792 z"
           sodipodi:nodetypes="cccccscccccc" />
        <path
           d="m 199.15585,14.383863 a 30.131971,10.826639 0 0 0 -30.13203,10.82673 30.131971,10.826639 0 0 0 30.13203,10.82673 30.131971,10.826639 0 0 0 30.13201,-10.82673 30.131971,10.826639 0 0 0 -30.13201,-10.82673 z"
           style="fill:#409a02;fill-opacity:0.988235;stroke:#000000;stroke-width:0.264999"
           id="path9" />
      </g>
      <g
         id="g6"
         transform="translate(164.93257,-119.51034)">
        <path
           id="path3"
           style="fill:#8ad8d5;fill-opacity:0.988235;stroke:#000000;stroke-width:0.264999"
           d="m 191.835,0.37581 c -11.04678,0.003 -21.20295,2.17824 -26.46661,5.66788 h -3.69486 v 4.85551 c 0,0 0.003,-0.15598 2.3e-4,-0.005 -1.4e-4,5.97943 13.51929,11.13516 30.16084,11.13515 16.64154,10e-6 30.16241,-5.11536 30.16227,-11.09479 0.002,-0.032 -0.004,-0.003 -8.6e-4,-0.0209 V 6.04373 h -3.67573 C 213.05335,2.55188 202.88819,0.37657 191.83456,0.37581 Z"
           sodipodi:nodetypes="cccccscccccc" />
        <path
           d="M 191.83507,-4.78961 A 30.131971,10.826639 0 0 0 161.70304,6.03712 30.131971,10.826639 0 0 0 191.83507,16.86385 30.131971,10.826639 0 0 0 221.96708,6.03712 30.131971,10.826639 0 0 0 191.83507,-4.78961 Z"
           style="fill:#a9e3e1;fill-opacity:1;stroke:#000000;stroke-width:0.264999"
           id="path6" />
      </g>
      <g
         id="g124"
         transform="translate(165.90363,-286.5212)">
        <path
           id="path1"
           style="fill:#eda699;fill-opacity:0.866667;stroke:#000000;stroke-width:0.264999"
           d="m 190.86394,154.687 c -11.04678,0.003 -21.20295,2.17824 -26.46661,5.66788 h -3.69486 v 4.85551 c 0,0 0.003,-0.15598 2.3e-4,-0.005 -1.4e-4,5.97943 13.51929,11.13516 30.16084,11.13515 16.64154,1e-5 30.16241,-5.11536 30.16227,-11.09479 0.002,-0.032 -0.004,-0.003 -8.6e-4,-0.0209 v -4.86993 h -3.67573 c -5.26693,-3.49185 -15.43209,-5.66716 -26.48572,-5.66792 z"
           sodipodi:nodetypes="cccccscccccc" />
        <path
           d="m 190.86401,149.52158 a 30.131971,10.826639 0 0 0 -30.13203,10.82673 30.131971,10.826639 0 0 0 30.13203,10.82673 30.131971,10.826639 0 0 0 30.13201,-10.82673 30.131971,10.826639 0 0 0 -30.13201,-10.82673 z"
           style="fill:#ebbdb4;fill-opacity:1;stroke:#000000;stroke-width:0.264999"
           id="path2" />
      </g>
      <g
         id="g117"
         transform="translate(166.06776,-149.56315)">
        <path
           id="path261"
           style="fill:#a4468c;fill-opacity:1;stroke:#000000;stroke-width:0.264999"
           d="m 190.69981,5.029293 c -11.04678,0.0033 -21.20295,2.178235 -26.46661,5.667871 h -3.69486 v 4.855518 c 0,0 0.003,-0.155984 2.3e-4,-0.005 -1.4e-4,5.97943 13.51929,11.135154 30.16084,11.135144 16.64154,8e-6 30.16241,-5.115362 30.16227,-11.094791 0.002,-0.03197 -0.004,-0.0032 -8.6e-4,-0.02087 v -4.86993 h -3.67574 C 211.91815,7.205392 201.75299,5.030075 190.69936,5.02932 Z"
           sodipodi:nodetypes="cccccscccccc" />
        <path
           d="M 190.69987,-0.136133 A 30.131971,10.826639 0 0 0 160.56785,10.690596 30.131971,10.826639 0 0 0 190.69987,21.517327 30.131971,10.826639 0 0 0 220.83189,10.690596 30.131971,10.826639 0 0 0 190.69987,-0.136133 Z"
           style="fill:#ad6099;fill-opacity:1;stroke:#000000;stroke-width:0.264999"
           id="path262" />
      </g>
      <path
         d="m 356.76822,-175.09862 a 30.131971,10.826639 0 0 0 -30.1321,10.82673 30.131971,10.826639 0 0 0 30.1321,10.82673 30.131971,10.826639 0 0 0 30.132,-10.82673 30.131971,10.826639 0 0 0 -30.132,-10.82673 z"
         style="fill:#ffffff;fill-opacity:1;stroke:#000000;stroke-width:0.264999"
         id="path267" />
      <g
         id="g121"
         transform="translate(165.90363,-282.85894)">
        <path
           id="path263"
           style="fill:#47817f;fill-opacity:1;stroke:#000000;stroke-width:0.264999"
           d="m 190.86394,125.62541 c -11.04678,0.003 -21.20295,2.17823 -26.46661,5.66787 h -3.69486 v 4.85552 c 0,0 0.003,-0.15599 2.3e-4,-0.005 -1.4e-4,5.97943 13.51929,11.13515 30.16084,11.13514 16.64154,1e-5 30.16241,-5.11536 30.16227,-11.09479 0.002,-0.032 -0.004,-0.003 -8.6e-4,-0.0209 v -4.86993 h -3.67573 c -5.26693,-3.49184 -15.4321,-5.66716 -26.48573,-5.66791 z"
           sodipodi:nodetypes="cccccscccccc" />
        <path
           d="m 190.86401,120.45998 a 30.131971,10.826639 0 0 0 -30.13203,10.82673 30.131971,10.826639 0 0 0 30.13203,10.82673 30.131971,10.826639 0 0 0 30.13201,-10.82673 30.131971,10.826639 0 0 0 -30.13201,-10.82673 z"
           style="fill:#5b9593;fill-opacity:1;stroke:#000000;stroke-width:0.264999"
           id="path264" />
      </g>
      <path
         id="path145"
         style="fill:url(#linearGradient145);fill-opacity:1;stroke:none;stroke-width:0.264999"
         d="m 356.77064,-168.37536 c -11.046,0.003 -21.2015,2.17658 -26.4648,5.66601 h -3.6953 v 16.95457 0.0547 0.006 c 0,0.16204 0.015,0.32362 0.035,0.48437 -4e-4,0.0235 -0.01,0.0468 -0.01,0.0703 0.01,0.04 0.013,0.0791 0.02,0.11914 v 49.59849 c -0.01,0.04 -0.014,0.0811 -0.02,0.1211 0.01,0.04 0.013,0.0792 0.02,0.119137 v 0.0957 h 0.016 c 0.327,5.88986 13.7002,10.60545 30.0957,10.61133 16.4046,-0.001 29.79209,-4.71823 30.11919,-10.61133 h 0.018 v -50.137547 h -0.01 c 0.016,-0.14513 0.031,-0.28932 0.031,-0.43555 0,-0.032 8e-4,-0.004 0,-0.0215 v -17.02879 h -3.6758 c -5.26649,-3.49163 -15.43139,-5.66501 -26.48429,-5.66601 z"
         sodipodi:nodetypes="ccccsscccccccccccccsccccc" />
      <g
         id="g111"
         transform="translate(166.06776,-145.93132)">
        <path
           id="path265"
           style="fill:#ed453a;fill-opacity:1;stroke:#000000;stroke-width:0.264999"
           d="m 190.69981,-24.001879 c -11.04678,0.0033 -21.20295,2.178235 -26.46661,5.667871 h -3.69486 v 4.855518 c 0,0 0.003,-0.155984 2.3e-4,-0.005 -1.4e-4,5.97943 13.51929,11.135154 30.16084,11.135144 16.64154,8e-6 30.16241,-5.115362 30.16227,-11.094791 0.002,-0.03197 -0.004,-0.0032 -8.6e-4,-0.02087 v -4.86993 h -3.67574 c -5.26693,-3.491843 -15.43209,-5.66716 -26.48572,-5.667915 z"
           sodipodi:nodetypes="cccccscccccc" />
        <path
           d="m 190.69987,-29.167305 a 30.131971,10.826639 0 0 0 -30.13202,10.826729 30.131971,10.826639 0 0 0 30.13202,10.826731 30.131971,10.826639 0 0 0 30.13202,-10.826731 30.131971,10.826639 0 0 0 -30.13202,-10.826729 z"
           style="fill:#e45c52;fill-opacity:1;stroke:#000000;stroke-width:0.264999"
           id="path266" />
      </g>
    </g>
    <path
       id="rect142"
       style="fill:#dfdfdf;fill-opacity:0.61;stroke-width:1.01823"
       d="m 282.60256,-32.178101 h 281.01196 c 8.0508,0 14.53214,6.481337 14.53214,14.532145 V 92.690016 c 0,8.050804 -6.48134,14.532144 -14.53214,14.532144 H 282.60256 c -8.0508,0 -14.53214,-6.48134 -14.53214,-14.532144 V -17.645956 c 0,-8.050808 6.48134,-14.532145 14.53214,-14.532145 z" />
    <path
       id="rect143"
       style="fill:#dfdfdf;fill-opacity:0.61;stroke-width:1.19132"
       d="m 225.41271,120.62604 h 395.39166 c 8.0508,0 14.53214,6.48134 14.53214,14.53215 v 110.33597 c 0,8.05081 -6.48134,14.53214 -14.53214,14.53214 H 225.41271 c -8.0508,0 -14.53214,-6.48133 -14.53214,-14.53214 V 135.15819 c 0,-8.05081 6.48134,-14.53215 14.53214,-14.53215 z" />
    <path
       d="m 514.66744,-121.73511 v 10.88894 h -1.43032 v -7.88987 h -2.73762 v -0.98431 q 1.32267,0 2.09166,-0.43063 0.78438,-0.43064 1.04583,-1.58413 z m 12.4423,2.76838 v 1.35342 q -0.13841,-0.0154 -0.33835,-0.0154 -0.63058,0 -1.09197,0.19994 -0.4614,0.18456 -0.73824,0.49216 -0.26145,0.30759 -0.43063,0.76899 -0.16918,0.46139 -0.2307,0.92279 -0.0461,0.4614 -0.0461,1.04583 v 3.35281 h -1.30729 v -7.93601 h 1.24577 v 1.70717 q 0.78437,-1.89172 2.93755,-1.89172 z m 7.49,5.61364 q -0.59981,2.76837 -3.46046,2.76837 -1.75331,0 -2.753,-1.09196 -0.98431,-1.09197 -0.98431,-3.02984 0,-1.92248 1.01507,-3.10673 1.03045,-1.19962 2.6761,-1.19962 1.8302,0 2.70685,1.24576 0.89203,1.23039 0.89203,3.12211 v 0.18456 h -5.96738 l -0.0154,0.0923 q 0,1.26115 0.66134,1.984 0.66133,0.72286 1.81482,0.72286 0.86127,0 1.35342,-0.39988 0.50754,-0.39988 0.78438,-1.29191 z m -1.26114,-2.16856 q -0.0923,-1.13811 -0.6921,-1.76868 -0.59981,-0.64595 -1.58412,-0.64595 -0.95355,0 -1.58413,0.64595 -0.63057,0.64595 -0.75361,1.76868 z m 3.968,-3.26053 v 1.12273 q 0.86127,-1.3688 2.67609,-1.3688 1.66103,0 2.62996,1.12273 0.98431,1.12272 0.98431,3.04521 0,1.92248 -0.96893,3.07597 -0.95355,1.13811 -2.58382,1.13811 -1.70716,0 -2.66071,-1.30729 v 4.16794 h -1.30729 v -10.9966 z m 2.47616,0.8459 q -1.13811,0 -1.79945,0.83051 -0.64595,0.81513 -0.64595,2.26084 0,1.4457 0.66133,2.27621 0.67672,0.81514 1.8302,0.81514 1.12273,0 1.76869,-0.83052 0.64595,-0.83051 0.64595,-2.26083 0,-1.44571 -0.66133,-2.26084 -0.64596,-0.83051 -1.79944,-0.83051 z m 6.7979,-3.86035 v 10.95046 H 545.258 v -10.95046 z m 3.41433,0 v 1.59951 h -1.32267 v -1.59951 z m 0,3.01445 v 7.93601 h -1.32267 v -7.93601 z m 8.8588,5.0446 q -0.16918,1.43032 -1.09197,2.27621 -0.90742,0.8459 -2.3685,0.8459 -1.79944,0 -2.78375,-1.10735 -0.98432,-1.12273 -0.98432,-2.9837 0,-1.984 1.03045,-3.13749 1.03045,-1.16886 2.78376,-1.16886 1.46108,0 2.33774,0.73823 0.87665,0.72285 1.03045,2.07628 h -1.35343 q -0.35374,-1.72254 -1.99938,-1.72254 -1.13811,0 -1.79944,0.84589 -0.66134,0.83051 -0.66134,2.26084 0,1.4457 0.63058,2.27621 0.63057,0.83052 1.73792,0.83052 0.89203,0 1.4457,-0.52292 0.56906,-0.52291 0.72286,-1.50722 z m 8.45893,1.84558 v 1.01507 q -0.39988,0.1538 -0.89203,0.1538 -1.12273,0 -1.15349,-1.16887 -1.12273,1.26115 -2.87604,1.26115 -1.16886,0 -1.86096,-0.59982 -0.67671,-0.59981 -0.67671,-1.64564 0,-2.12242 2.81451,-2.47616 1.66103,-0.19994 1.92248,-0.29222 0.55368,-0.18455 0.59982,-0.76899 0.0154,-0.0923 0.0154,-0.19994 0,-1.30728 -1.79945,-1.30728 -0.92279,0 -1.39956,0.38449 -0.47678,0.36912 -0.56906,1.23039 h -1.27652 q 0.0308,-1.27653 0.90741,-1.984 0.87665,-0.70747 2.41463,-0.70747 1.67641,0 2.49154,0.76899 0.26146,0.24608 0.3845,0.64595 0.12304,0.39988 0.13841,0.66134 0.0154,0.24607 0.0154,0.75361 0,0.59981 -0.0308,1.78406 -0.0308,1.16887 -0.0308,1.7533 0,0.43064 0.10765,0.6152 0.12304,0.16918 0.43064,0.16918 0.12304,0 0.32298,-0.0461 z m -2.10704,-3.07597 q -0.13842,0.10766 -0.29222,0.18456 -0.1538,0.0769 -0.39988,0.12303 -0.23069,0.0461 -0.32297,0.0769 -0.0769,0.0154 -0.39988,0.0615 -0.32298,0.0308 -0.33836,0.0308 -0.47677,0.0615 -0.63057,0.0923 -0.13842,0.0154 -0.55367,0.12304 -0.39988,0.10766 -0.56906,0.24608 -0.16918,0.13842 -0.33836,0.41525 -0.15379,0.26146 -0.15379,0.63058 0,0.61519 0.41525,0.96893 0.43064,0.35374 1.16887,0.35374 0.93817,0 1.6764,-0.55368 0.73824,-0.55367 0.73824,-1.30729 z m 9.22792,-1.50723 h -1.30729 q -0.12303,-1.4457 -1.93786,-1.4457 -0.75361,0 -1.18425,0.29221 -0.43063,0.29222 -0.43063,0.78437 0,0.13842 0.0308,0.27684 0.0308,0.12304 0.10766,0.2307 0.0923,0.0923 0.1538,0.16918 0.0769,0.0769 0.23069,0.1538 0.16918,0.0615 0.24608,0.10766 0.0923,0.0461 0.3076,0.10765 0.2307,0.0461 0.32297,0.0769 0.0923,0.0154 0.35374,0.0769 0.27684,0.0615 0.35374,0.0769 0.56905,0.12304 0.84589,0.19994 0.29222,0.0769 0.78437,0.29222 0.50754,0.19994 0.769,0.43063 0.26145,0.21532 0.46139,0.6152 0.21532,0.38449 0.21532,0.87665 0,1.15349 -0.90741,1.86096 -0.89203,0.6921 -2.38388,0.6921 -1.61488,0 -2.49154,-0.70748 -0.86127,-0.70747 -0.92279,-2.04552 h 1.29191 q 0.10766,1.67641 2.15318,1.67641 0.87665,0 1.39957,-0.35374 0.53829,-0.36912 0.53829,-0.96893 0,-0.39988 -0.27684,-0.66134 -0.27683,-0.26145 -0.61519,-0.36911 -0.33836,-0.12304 -0.96893,-0.27684 -0.0923,-0.0154 -0.13842,-0.0308 -0.13842,-0.0308 -0.59981,-0.12304 -0.44602,-0.10766 -0.64596,-0.16918 -0.19994,-0.0615 -0.58443,-0.18455 -0.36912,-0.13842 -0.55368,-0.27684 -0.18455,-0.1538 -0.41525,-0.36912 -0.21532,-0.2307 -0.3076,-0.52291 -0.0923,-0.3076 -0.0923,-0.6921 0,-1.07659 0.81513,-1.70716 0.83052,-0.63057 2.2147,-0.63057 1.39957,0 2.27622,0.66133 0.89203,0.66133 0.89203,1.87634 z m 8.58196,3.12211 q -0.59981,2.76837 -3.46047,2.76837 -1.7533,0 -2.75299,-1.09196 -0.98431,-1.09197 -0.98431,-3.02984 0,-1.92248 1.01507,-3.10673 1.03045,-1.19962 2.67609,-1.19962 1.83021,0 2.70686,1.24576 0.89203,1.23039 0.89203,3.12211 v 0.18456 h -5.96738 l -0.0154,0.0923 q 0,1.26115 0.66133,1.984 0.66133,0.72286 1.81482,0.72286 0.86127,0 1.35343,-0.39988 0.50753,-0.39988 0.78437,-1.29191 z m -1.26115,-2.16856 q -0.0923,-1.13811 -0.69209,-1.76868 -0.59982,-0.64595 -1.58413,-0.64595 -0.95355,0 -1.58412,0.64595 -0.63058,0.64595 -0.75361,1.76868 z m 6.13656,-3.26053 v 1.07659 h -1.58412 v 4.62934 q 0,0.3845 0,0.50753 0.0154,0.12304 0.0923,0.33836 0.0769,0.19994 0.26145,0.26146 0.18456,0.0615 0.52292,0.0615 0.29222,0 0.70747,-0.0461 v 1.12273 q -0.55367,0.0615 -0.99969,0.0615 -0.55367,0 -0.92279,-0.12304 -0.36912,-0.12304 -0.56905,-0.27684 -0.18456,-0.1538 -0.27684,-0.53829 -0.0923,-0.39988 -0.10766,-0.66134 -0.0154,-0.27684 -0.0154,-0.90741 0,-0.13842 0,-0.21532 v -4.21408 h -1.33805 v -1.07659 h 1.33805 v -2.35311 h 1.30729 v 2.35311 z"
       id="text103"
       style="font-size:12px;line-height:1.25;font-family:HelveticaNeueCyr;-inkscape-font-specification:HelveticaNeueCyr;text-align:center;text-anchor:middle;stroke-width:0.339104"
       aria-label="1 replicaset" />
    <g
       id="g140"
       transform="matrix(1.2816544,0,0,1.2816544,-55.771119,50.231828)">
      <g
         id="g133"
         transform="translate(0,-1.3944345)">
        <path
           id="path10"
           style="fill:#ffffff;fill-opacity:0.86519;stroke:#000000;stroke-width:0.264999"
           d="m 322.11205,-53.825125 c -16.6416,-1e-5 -30.1322,4.8473 -30.1321,10.82673 0.01,0.04 0.013,0.0799 0.02,0.11989 v 68.59839 c -0.01,0.0399 -0.014,0.0799 -0.02,0.11989 0.01,0.04 0.013,0.0799 0.02,0.11989 v 0.0961 h 0.016 c 0.327,5.88986 13.7004,10.60484 30.096,10.61072 16.4046,-0.001 29.792,-4.71762 30.1191,-10.61073 h 0.017 v -69.13838 h -0.01 c -0.1286,-5.94585 -13.5787,-10.74176 -30.1273,-10.7425 z"
           sodipodi:nodetypes="ccccccccccccccc" />
        <path
           id="ellipse10"
           style="fill:url(#radialGradient23);stroke:#000000;stroke-width:0.264999"
           d="m 352.24473,25.839846 a 30.131971,10.826639 0 0 1 -30.13197,10.826639 30.131971,10.826639 0 0 1 -30.13197,-10.826639 30.131971,10.826639 0 0 1 30.13197,-10.82664 30.131971,10.826639 0 0 1 30.13197,10.82664 z" />
        <g
           id="g14"
           transform="translate(130.27717,1.7631612)">
          <path
             id="path13"
             style="fill:#8ad8d5;fill-opacity:0.988235;stroke:#000000;stroke-width:0.264999"
             d="m 191.835,0.37581 c -11.04678,0.003 -21.20295,2.17824 -26.46661,5.66788 h -3.69486 v 4.85551 c 0,0 0.003,-0.15598 2.3e-4,-0.005 -1.4e-4,5.97943 13.51929,11.13516 30.16084,11.13515 16.64154,10e-6 30.16241,-5.11536 30.16227,-11.09479 0.002,-0.032 -0.004,-0.003 -8.6e-4,-0.0209 V 6.04373 h -3.67573 C 213.05335,2.55188 202.88819,0.37657 191.83456,0.37581 Z"
             sodipodi:nodetypes="cccccscccccc" />
          <path
             d="M 191.83507,-4.78961 A 30.131971,10.826639 0 0 0 161.70304,6.03712 30.131971,10.826639 0 0 0 191.83507,16.86385 30.131971,10.826639 0 0 0 221.96708,6.03712 30.131971,10.826639 0 0 0 191.83507,-4.78961 Z"
             style="fill:#a9e3e1;fill-opacity:1;stroke:#000000;stroke-width:0.264999"
             id="path14" />
        </g>
        <g
           id="g18"
           transform="translate(131.41236,-28.289654)">
          <path
             id="path17"
             style="fill:#a4468c;fill-opacity:1;stroke:#000000;stroke-width:0.264999"
             d="m 190.69981,5.029293 c -11.04678,0.0033 -21.20295,2.178235 -26.46661,5.667871 h -3.69486 v 4.855518 c 0,0 0.003,-0.155984 2.3e-4,-0.005 -1.4e-4,5.97943 13.51929,11.135154 30.16084,11.135144 16.64154,8e-6 30.16241,-5.115362 30.16227,-11.094791 0.002,-0.03197 -0.004,-0.0032 -8.6e-4,-0.02087 v -4.86993 h -3.67574 C 211.91815,7.205392 201.75299,5.030075 190.69936,5.02932 Z"
             sodipodi:nodetypes="cccccscccccc" />
          <path
             d="M 190.69987,-0.136133 A 30.131971,10.826639 0 0 0 160.56785,10.690596 30.131971,10.826639 0 0 0 190.69987,21.517327 30.131971,10.826639 0 0 0 220.83189,10.690596 30.131971,10.826639 0 0 0 190.69987,-0.136133 Z"
             style="fill:#ad6099;fill-opacity:1;stroke:#000000;stroke-width:0.264999"
             id="path18" />
        </g>
        <path
           d="m 322.11282,-53.825125 a 30.131971,10.826639 0 0 0 -30.1321,10.82673 30.131971,10.826639 0 0 0 30.1321,10.82673 30.131971,10.826639 0 0 0 30.132,-10.82673 30.131971,10.826639 0 0 0 -30.132,-10.82673 z"
           style="fill:#ffffff;fill-opacity:1;stroke:#000000;stroke-width:0.264999"
           id="path19" />
        <path
           id="path22"
           style="fill:#ed453a;fill-opacity:1;stroke:#000000;stroke-width:0.264999"
           d="m 322.11217,-48.659699 c -11.04678,0.0033 -21.20295,2.178235 -26.46661,5.667871 h -3.69486 v 4.855518 c 0,0 0.003,-0.155984 2.3e-4,-0.005 -1.4e-4,5.97943 13.51929,11.135154 30.16084,11.135144 16.64154,8e-6 30.16241,-5.115362 30.16227,-11.094791 0.002,-0.03197 -0.004,-0.0032 -8.6e-4,-0.02087 v -4.86993 h -3.67574 c -5.26693,-3.491843 -15.43209,-5.66716 -26.48572,-5.667915 z"
           sodipodi:nodetypes="cccccscccccc" />
        <path
           id="path110"
           style="fill:url(#linearGradient110);fill-opacity:1;stroke:none;stroke-width:0.264999"
           d="m 322.11525,-47.101852 c -11.046,0.003 -21.2015,2.17658 -26.4648,5.66601 h -3.6953 v 16.95457 0.0547 0.006 c 0,0.16204 0.015,0.32362 0.035,0.48437 -4e-4,0.0235 -0.01,0.0468 -0.01,0.0703 0.01,0.04 0.013,0.0791 0.02,0.11914 v 49.59848 c -0.01,0.04 -0.014,0.0811 -0.02,0.1211 0.01,0.04 0.013,0.0792 0.02,0.119137 v 0.0957 h 0.016 c 0.327,5.88986 13.7002,10.60545 30.0957,10.61133 16.4046,-0.001 29.79209,-4.71823 30.11919,-10.61133 h 0.018 v -50.137537 h -0.01 c 0.016,-0.14513 0.031,-0.28932 0.031,-0.43555 0,-0.032 8e-4,-0.004 0,-0.0215 v -17.02879 h -3.6758 c -5.26649,-3.49163 -15.43139,-5.66501 -26.48429,-5.66601 z"
           sodipodi:nodetypes="ccccsscccccccccccccsccccc" />
        <path
           d="m 322.11223,-53.825125 a 30.131971,10.826639 0 0 0 -30.13202,10.826729 30.131971,10.826639 0 0 0 30.13202,10.826731 30.131971,10.826639 0 0 0 30.13202,-10.826731 30.131971,10.826639 0 0 0 -30.13202,-10.826729 z"
           style="fill:#e45c52;fill-opacity:1;stroke:#000000;stroke-width:0.264999"
           id="path23" />
      </g>
      <g
         id="g137">
        <path
           id="path24"
           style="fill:#ffffff;fill-opacity:0.86519;stroke:#000000;stroke-width:0.264999"
           d="m 435.40984,-55.219559 c -16.6416,-1e-5 -30.1322,4.8473 -30.1321,10.82673 0.01,0.04 0.013,0.0799 0.02,0.11989 v 68.59839 c -0.01,0.0399 -0.014,0.0799 -0.02,0.11989 0.01,0.04 0.013,0.0799 0.02,0.11989 v 0.0961 h 0.016 c 0.327,5.88986 13.7004,10.60484 30.096,10.61072 16.4046,-10e-4 29.792,-4.71762 30.1191,-10.61073 h 0.017 v -69.13838 h -0.01 c -0.1286,-5.94585 -13.5787,-10.74176 -30.1273,-10.7425 z"
           sodipodi:nodetypes="ccccccccccccccc" />
        <path
           id="ellipse24"
           style="fill:url(#radialGradient39);stroke:#000000;stroke-width:0.264999"
           d="M 465.54252,24.445412 A 30.131971,10.826639 0 0 1 435.41055,35.272051 30.131971,10.826639 0 0 1 405.27858,24.445412 30.131971,10.826639 0 0 1 435.41055,13.618773 30.131971,10.826639 0 0 1 465.54252,24.445412 Z" />
        <g
           id="g26"
           transform="translate(236.35663,-6.1050766)">
          <path
             id="path25"
             style="fill:#378503;fill-opacity:0.988235;stroke:#000000;stroke-width:0.264999"
             d="m 198.98148,19.723587 c -11.04678,0.003 -21.20295,2.17824 -26.46661,5.66788 h -3.69486 v 4.85551 c 0,0 0.003,-0.15598 2.3e-4,-0.005 -1.4e-4,5.97943 13.51929,11.13516 30.16084,11.13515 16.64154,10e-6 30.16241,-5.11536 30.16227,-11.09479 0.002,-0.032 -0.004,-0.003 -8.6e-4,-0.0209 v -4.86993 h -3.67573 c -5.26693,-3.49185 -15.43209,-5.66716 -26.48572,-5.66792 z"
             sodipodi:nodetypes="cccccscccccc" />
          <path
             d="m 199.15585,14.383863 a 30.131971,10.826639 0 0 0 -30.13203,10.82673 30.131971,10.826639 0 0 0 30.13203,10.82673 30.131971,10.826639 0 0 0 30.13201,-10.82673 30.131971,10.826639 0 0 0 -30.13201,-10.82673 z"
             style="fill:#409a02;fill-opacity:0.988235;stroke:#000000;stroke-width:0.264999"
             id="path26" />
        </g>
        <g
           id="g30"
           transform="translate(244.54602,-166.64213)">
          <path
             id="path29"
             style="fill:#eda699;fill-opacity:0.866667;stroke:#000000;stroke-width:0.264999"
             d="m 190.86394,154.687 c -11.04678,0.003 -21.20295,2.17824 -26.46661,5.66788 h -3.69486 v 4.85551 c 0,0 0.003,-0.15598 2.3e-4,-0.005 -1.4e-4,5.97943 13.51929,11.13516 30.16084,11.13515 16.64154,1e-5 30.16241,-5.11536 30.16227,-11.09479 0.002,-0.032 -0.004,-0.003 -8.6e-4,-0.0209 v -4.86993 h -3.67573 c -5.26693,-3.49185 -15.43209,-5.66716 -26.48572,-5.66792 z"
             sodipodi:nodetypes="cccccscccccc" />
          <path
             d="m 190.86401,149.52158 a 30.131971,10.826639 0 0 0 -30.13203,10.82673 30.131971,10.826639 0 0 0 30.13203,10.82673 30.131971,10.826639 0 0 0 30.13201,-10.82673 30.131971,10.826639 0 0 0 -30.13201,-10.82673 z"
             style="fill:#ebbdb4;fill-opacity:1;stroke:#000000;stroke-width:0.264999"
             id="path30" />
        </g>
        <g
           id="g36"
           transform="translate(244.54602,-162.97987)">
          <path
             id="path35"
             style="fill:#47817f;fill-opacity:1;stroke:#000000;stroke-width:0.264999"
             d="m 190.86394,125.62541 c -11.04678,0.003 -21.20295,2.17823 -26.46661,5.66787 h -3.69486 v 4.85552 c 0,0 0.003,-0.15599 2.3e-4,-0.005 -1.4e-4,5.97943 13.51929,11.13515 30.16084,11.13514 16.64154,1e-5 30.16241,-5.11536 30.16227,-11.09479 0.002,-0.032 -0.004,-0.003 -8.6e-4,-0.0209 v -4.86993 h -3.67573 c -5.26693,-3.49184 -15.4321,-5.66716 -26.48573,-5.66791 z"
             sodipodi:nodetypes="cccccscccccc" />
          <path
             d="m 190.86401,120.45998 a 30.131971,10.826639 0 0 0 -30.13203,10.82673 30.131971,10.826639 0 0 0 30.13203,10.82673 30.131971,10.826639 0 0 0 30.13201,-10.82673 30.131971,10.826639 0 0 0 -30.13201,-10.82673 z"
             style="fill:#5b9593;fill-opacity:1;stroke:#000000;stroke-width:0.264999"
             id="path36" />
        </g>
        <path
           id="path123"
           style="fill:url(#linearGradient123);fill-opacity:1;stroke:none;stroke-width:0.264999"
           d="m 405.25341,-42.83061 v 16.955078 0.05469 0.0059 c 0,0.16204 0.0152,0.323625 0.0352,0.484375 -4e-4,0.0235 -0.01,0.04681 -0.01,0.07031 0.01,0.04 0.0125,0.0791 0.0195,0.119141 V 24.4565 c -0.01,0.04 -0.0135,0.08109 -0.0195,0.121094 0.01,0.04 0.0125,0.0792 0.0195,0.119141 v 0.0957 h 0.0156 c 0.327,5.88986 13.7002,10.605448 30.0957,10.611328 16.4046,-10e-4 29.79204,-4.718228 30.11914,-10.611328 h 0.0176 v -50.13672 h -0.01 c 0.016,-0.14513 0.0312,-0.289317 0.0312,-0.435547 0,-0.032 8e-4,-0.004 0,-0.02148 V -42.83061 h -0.34766 a 30.131971,10.826639 0 0 1 -29.81055,9.263672 30.131971,10.826639 0 0 1 -29.78125,-9.263672 z" />
        <path
           d="m 435.41087,-55.219559 a 30.131971,10.826639 0 0 0 -30.1321,10.82673 30.131971,10.826639 0 0 0 30.1321,10.82673 30.131971,10.826639 0 0 0 30.132,-10.82673 30.131971,10.826639 0 0 0 -30.132,-10.82673 z"
           style="fill:#ffffff;fill-opacity:0.613284;stroke:#000000;stroke-width:0.264999"
           id="path134" />
      </g>
    </g>
    <g
       id="g139"
       transform="matrix(1.2816544,0,0,1.2816544,-59.395437,52.101059)">
      <g
         id="g135"
         transform="translate(0,-1.9720154)">
        <path
           id="path39"
           style="fill:#ffffff;fill-opacity:0.86519;stroke:#000000;stroke-width:0.264999"
           d="m 269.21912,63.714751 c -16.6416,-1e-5 -30.1322,4.8473 -30.1321,10.82673 0.01,0.04 0.013,0.0799 0.02,0.11989 v 68.598389 c -0.01,0.0399 -0.014,0.0799 -0.02,0.11989 0.01,0.04 0.013,0.0799 0.02,0.11989 v 0.0961 h 0.016 c 0.327,5.88986 13.7004,10.60484 30.096,10.61072 16.4046,-10e-4 29.792,-4.71762 30.1191,-10.61073 h 0.017 V 74.457251 h -0.01 c -0.1286,-5.94585 -13.5787,-10.74176 -30.1273,-10.7425 z"
           sodipodi:nodetypes="ccccccccccccccc" />
        <path
           id="ellipse39"
           style="fill:url(#radialGradient53);stroke:#000000;stroke-width:0.264999"
           d="m 299.35182,143.37973 a 30.131971,10.826639 0 0 1 -30.13197,10.82664 30.131971,10.826639 0 0 1 -30.13197,-10.82664 30.131971,10.826639 0 0 1 30.13197,-10.82664 30.131971,10.826639 0 0 1 30.13197,10.82664 z" />
        <g
           id="g48"
           transform="translate(78.519432,89.250222)">
          <path
             id="path46"
             style="fill:#a4468c;fill-opacity:1;stroke:#000000;stroke-width:0.264999"
             d="m 190.69981,5.029293 c -11.04678,0.0033 -21.20295,2.178235 -26.46661,5.667871 h -3.69486 v 4.855518 c 0,0 0.003,-0.155984 2.3e-4,-0.005 -1.4e-4,5.97943 13.51929,11.135154 30.16084,11.135144 16.64154,8e-6 30.16241,-5.115362 30.16227,-11.094791 0.002,-0.03197 -0.004,-0.0032 -8.6e-4,-0.02087 v -4.86993 h -3.67574 C 211.91815,7.205392 201.75299,5.030075 190.69936,5.02932 Z"
             sodipodi:nodetypes="cccccscccccc" />
          <path
             d="M 190.69987,-0.136133 A 30.131971,10.826639 0 0 0 160.56785,10.690596 30.131971,10.826639 0 0 0 190.69987,21.517327 30.131971,10.826639 0 0 0 220.83189,10.690596 30.131971,10.826639 0 0 0 190.69987,-0.136133 Z"
             style="fill:#ad6099;fill-opacity:1;stroke:#000000;stroke-width:0.264999"
             id="path48" />
        </g>
        <path
           d="m 269.21989,63.714751 a 30.131971,10.826639 0 0 0 -30.1321,10.82673 30.131971,10.826639 0 0 0 30.1321,10.82673 30.131971,10.826639 0 0 0 30.132,-10.82673 30.131971,10.826639 0 0 0 -30.132,-10.82673 z"
           style="fill:#ffffff;fill-opacity:1;stroke:#000000;stroke-width:0.264999"
           id="path49" />
        <path
           id="path52"
           style="fill:#ed453a;fill-opacity:1;stroke:#000000;stroke-width:0.264999"
           d="m 269.21924,68.880177 c -11.04678,0.0033 -21.20295,2.178235 -26.46661,5.667871 h -3.69486 v 4.855518 c 0,0 0.003,-0.155984 2.3e-4,-0.005 -1.4e-4,5.97943 13.51929,11.135154 30.16084,11.135144 16.64154,8e-6 30.16241,-5.115362 30.16227,-11.094791 0.002,-0.03197 -0.004,-0.0032 -8.6e-4,-0.02087 v -4.86993 h -3.67574 c -5.26693,-3.491843 -15.43209,-5.66716 -26.48572,-5.667915 z"
           sodipodi:nodetypes="cccccscccccc" />
        <path
           id="path130"
           style="fill:url(#linearGradient130);fill-opacity:1;stroke:none;stroke-width:0.264999"
           d="m 269.22232,70.438024 c -11.046,0.003 -21.2015,2.17658 -26.4648,5.66601 h -3.6953 v 16.95457 0.0547 0.006 c 0,0.16204 0.015,0.32362 0.035,0.48437 -4e-4,0.0235 -0.01,0.0468 -0.01,0.0703 0.01,0.04 0.013,0.0791 0.02,0.11914 V 143.3916 c -0.01,0.04 -0.014,0.0811 -0.02,0.1211 0.01,0.04 0.013,0.0792 0.02,0.11913 v 0.0957 h 0.016 c 0.327,5.88986 13.7002,10.60545 30.0957,10.61133 16.4046,-0.001 29.79209,-4.71823 30.11919,-10.61133 h 0.018 V 93.589994 h -0.01 c 0.016,-0.14513 0.031,-0.28932 0.031,-0.43555 0,-0.032 8e-4,-0.004 0,-0.0215 v -17.02879 h -3.6758 c -5.26649,-3.49163 -15.43139,-5.66501 -26.48429,-5.66601 z"
           sodipodi:nodetypes="ccccsscccccccccccccsccccc" />
        <path
           d="M 269.2193,63.714751 A 30.131971,10.826639 0 0 0 239.08728,74.54148 30.131971,10.826639 0 0 0 269.2193,85.368211 30.131971,10.826639 0 0 0 299.35132,74.54148 30.131971,10.826639 0 0 0 269.2193,63.714751 Z"
           style="fill:#e45c52;fill-opacity:1;stroke:#000000;stroke-width:0.264999"
           id="path53" />
      </g>
      <g
         id="g138"
         transform="translate(0.62486934,-0.98613648)">
        <path
           id="path54"
           style="fill:#ffffff;fill-opacity:0.86519;stroke:#000000;stroke-width:0.264999"
           d="m 380.99985,62.728737 c -16.6416,-1e-5 -30.1322,4.8473 -30.1321,10.82673 0.01,0.04 0.013,0.0799 0.02,0.11989 v 68.598393 c -0.01,0.0399 -0.014,0.0799 -0.02,0.11989 0.01,0.04 0.013,0.0799 0.02,0.11989 v 0.0961 h 0.016 c 0.327,5.88986 13.7004,10.60484 30.096,10.61072 16.4046,-0.001 29.792,-4.71762 30.1191,-10.61073 h 0.017 V 73.471237 h -0.01 c -0.1286,-5.94585 -13.5787,-10.74176 -30.1273,-10.7425 z"
           sodipodi:nodetypes="ccccccccccccccc" />
        <path
           id="ellipse54"
           style="fill:url(#radialGradient87);stroke:#000000;stroke-width:0.264999"
           d="m 411.13255,142.39372 a 30.131971,10.826639 0 0 1 -30.13197,10.82664 30.131971,10.826639 0 0 1 -30.13197,-10.82664 30.131971,10.826639 0 0 1 30.13197,-10.82664 30.131971,10.826639 0 0 1 30.13197,10.82664 z" />
        <g
           id="g56"
           transform="translate(181.94663,111.84322)">
          <path
             id="path55"
             style="fill:#378503;fill-opacity:0.988235;stroke:#000000;stroke-width:0.264999"
             d="m 198.98148,19.723587 c -11.04678,0.003 -21.20295,2.17824 -26.46661,5.66788 h -3.69486 v 4.85551 c 0,0 0.003,-0.15598 2.3e-4,-0.005 -1.4e-4,5.97943 13.51929,11.13516 30.16084,11.13515 16.64154,10e-6 30.16241,-5.11536 30.16227,-11.09479 0.002,-0.032 -0.004,-0.003 -8.6e-4,-0.0209 v -4.86993 h -3.67573 c -5.26693,-3.49185 -15.43209,-5.66716 -26.48572,-5.66792 z"
             sodipodi:nodetypes="cccccscccccc" />
          <path
             d="m 199.15585,14.383863 a 30.131971,10.826639 0 0 0 -30.13203,10.82673 30.131971,10.826639 0 0 0 30.13203,10.82673 30.131971,10.826639 0 0 0 30.13201,-10.82673 30.131971,10.826639 0 0 0 -30.13201,-10.82673 z"
             style="fill:#409a02;fill-opacity:0.988235;stroke:#000000;stroke-width:0.264999"
             id="path56" />
        </g>
        <g
           id="g62"
           transform="translate(190.13603,-48.693835)">
          <path
             id="path61"
             style="fill:#eda699;fill-opacity:0.866667;stroke:#000000;stroke-width:0.264999"
             d="m 190.86394,154.687 c -11.04678,0.003 -21.20295,2.17824 -26.46661,5.66788 h -3.69486 v 4.85551 c 0,0 0.003,-0.15598 2.3e-4,-0.005 -1.4e-4,5.97943 13.51929,11.13516 30.16084,11.13515 16.64154,1e-5 30.16241,-5.11536 30.16227,-11.09479 0.002,-0.032 -0.004,-0.003 -8.6e-4,-0.0209 v -4.86993 h -3.67573 c -5.26693,-3.49185 -15.43209,-5.66716 -26.48572,-5.66792 z"
             sodipodi:nodetypes="cccccscccccc" />
          <path
             d="m 190.86401,149.52158 a 30.131971,10.826639 0 0 0 -30.13203,10.82673 30.131971,10.826639 0 0 0 30.13203,10.82673 30.131971,10.826639 0 0 0 30.13201,-10.82673 30.131971,10.826639 0 0 0 -30.13201,-10.82673 z"
             style="fill:#ebbdb4;fill-opacity:1;stroke:#000000;stroke-width:0.264999"
             id="path62" />
        </g>
        <path
           id="path131"
           style="fill:url(#linearGradient131);fill-opacity:1;stroke:none;stroke-width:0.264999"
           d="m 350.84326,75.118611 v 16.953125 0.05469 0.0078 c 0,0.16204 0.0152,0.323625 0.0351,0.484375 -4e-4,0.0235 -0.01,0.04681 -0.01,0.07031 0.01,0.04 0.0125,0.0791 0.0195,0.119141 v 49.597658 c -0.01,0.04 -0.0135,0.0811 -0.0195,0.1211 0.01,0.04 0.0125,0.0792 0.0195,0.11914 v 0.0957 h 0.0156 c 0.327,5.88986 13.70021,10.60545 30.09571,10.61133 16.4046,-0.001 29.79204,-4.71823 30.11914,-10.61133 h 0.0176 V 92.604939 h -0.01 c 0.016,-0.14513 0.0312,-0.289317 0.0312,-0.435547 0,-0.032 8e-4,-0.004 0,-0.02148 V 75.118611 h -0.34766 a 30.131971,10.826639 0 0 1 -29.80859,9.263672 30.131971,10.826639 0 0 1 -29.7832,-9.263672 z" />
        <path
           d="m 381.00062,62.728737 a 30.131971,10.826639 0 0 0 -30.1321,10.82673 30.131971,10.826639 0 0 0 30.1321,10.82673 30.131971,10.826639 0 0 0 30.132,-10.82673 30.131971,10.826639 0 0 0 -30.132,-10.82673 z"
           style="fill:#ffffff;fill-opacity:1;stroke:#000000;stroke-width:0.264999"
           id="path135" />
      </g>
      <g
         id="g136">
        <path
           id="path89"
           style="fill:#ffffff;fill-opacity:0.86519;stroke:#000000;stroke-width:0.264999"
           d="m 494.03031,61.742723 c -16.6416,-10e-6 -30.1322,4.8473 -30.1321,10.82673 0.01,0.04 0.013,0.0799 0.02,0.11989 v 68.598397 c -0.01,0.0399 -0.014,0.0799 -0.02,0.11989 0.01,0.04 0.013,0.0799 0.02,0.11989 v 0.0961 h 0.016 c 0.327,5.88986 13.7004,10.60484 30.096,10.61072 16.4046,-0.001 29.792,-4.71762 30.1191,-10.61073 h 0.017 V 72.485223 h -0.01 c -0.1286,-5.94585 -13.5787,-10.74176 -30.1273,-10.7425 z"
           sodipodi:nodetypes="ccccccccccccccc" />
        <path
           id="ellipse89"
           style="fill:url(#radialGradient110);stroke:#000000;stroke-width:0.264999"
           d="m 524.16301,141.40771 a 30.131971,10.826639 0 0 1 -30.13197,10.82664 30.131971,10.826639 0 0 1 -30.13197,-10.82664 30.131971,10.826639 0 0 1 30.13197,-10.82663 30.131971,10.826639 0 0 1 30.13197,10.82663 z" />
        <g
           id="g96"
           transform="translate(302.19543,117.33102)">
          <path
             id="path93"
             style="fill:#8ad8d5;fill-opacity:0.988235;stroke:#000000;stroke-width:0.264999"
             d="m 191.835,0.37581 c -11.04678,0.003 -21.20295,2.17824 -26.46661,5.66788 h -3.69486 v 4.85551 c 0,0 0.003,-0.15598 2.3e-4,-0.005 -1.4e-4,5.97943 13.51929,11.13516 30.16084,11.13515 16.64154,10e-6 30.16241,-5.11536 30.16227,-11.09479 0.002,-0.032 -0.004,-0.003 -8.6e-4,-0.0209 V 6.04373 h -3.67573 C 213.05335,2.55188 202.88819,0.37657 191.83456,0.37581 Z"
             sodipodi:nodetypes="cccccscccccc" />
          <path
             d="M 191.83507,-4.78961 A 30.131971,10.826639 0 0 0 161.70304,6.03712 30.131971,10.826639 0 0 0 191.83507,16.86385 30.131971,10.826639 0 0 0 221.96708,6.03712 30.131971,10.826639 0 0 0 191.83507,-4.78961 Z"
             style="fill:#a9e3e1;fill-opacity:1;stroke:#000000;stroke-width:0.264999"
             id="path96" />
        </g>
        <g
           id="g108"
           transform="translate(303.16649,-46.017589)">
          <path
             id="path102"
             style="fill:#47817f;fill-opacity:1;stroke:#000000;stroke-width:0.264999"
             d="m 190.86394,125.62541 c -11.04678,0.003 -21.20295,2.17823 -26.46661,5.66787 h -3.69486 v 4.85552 c 0,0 0.003,-0.15599 2.3e-4,-0.005 -1.4e-4,5.97943 13.51929,11.13515 30.16084,11.13514 16.64154,1e-5 30.16241,-5.11536 30.16227,-11.09479 0.002,-0.032 -0.004,-0.003 -8.6e-4,-0.0209 v -4.86993 h -3.67573 c -5.26693,-3.49184 -15.4321,-5.66716 -26.48573,-5.66791 z"
             sodipodi:nodetypes="cccccscccccc" />
          <path
             d="m 190.86401,120.45998 a 30.131971,10.826639 0 0 0 -30.13203,10.82673 30.131971,10.826639 0 0 0 30.13203,10.82673 30.131971,10.826639 0 0 0 30.13201,-10.82673 30.131971,10.826639 0 0 0 -30.13201,-10.82673 z"
             style="fill:#5b9593;fill-opacity:1;stroke:#000000;stroke-width:0.264999"
             id="path108" />
        </g>
        <path
           id="path136"
           style="fill:url(#linearGradient136);fill-opacity:1;stroke:none;stroke-width:0.264999"
           d="m 463.87388,74.132474 v 16.953125 0.05469 0.0078 c 0,0.16204 0.0152,0.323625 0.0352,0.484375 -4e-4,0.0235 -0.01,0.04681 -0.01,0.07031 0.01,0.04 0.0125,0.0791 0.0195,0.119141 v 49.597655 c -0.01,0.04 -0.0135,0.0811 -0.0195,0.1211 0.01,0.04 0.0125,0.0792 0.0195,0.11914 v 0.0957 h 0.0156 c 0.327,5.88986 13.70021,10.60545 30.09571,10.61133 16.4046,-0.001 29.79204,-4.71823 30.11914,-10.61133 h 0.0176 V 91.618802 h -0.01 c 0.016,-0.14513 0.0312,-0.289317 0.0312,-0.435547 0,-0.032 8e-4,-0.004 0,-0.02148 V 74.132474 h -0.34766 a 30.131971,10.826639 0 0 1 -29.80859,9.263672 30.131971,10.826639 0 0 1 -29.7832,-9.263672 z" />
        <path
           d="m 494.03108,61.742723 a 30.131971,10.826639 0 0 0 -30.1321,10.82673 30.131971,10.826639 0 0 0 30.1321,10.82673 30.131971,10.826639 0 0 0 30.132,-10.82673 30.131971,10.826639 0 0 0 -30.132,-10.82673 z"
           style="fill:#ffffff;fill-opacity:0.61;stroke:#000000;stroke-width:0.264999"
           id="path101" />
      </g>
    </g>
    <path
       d="m 590.54894,39.816982 v 1.184248 h -7.10549 q 0.0461,-0.907411 0.27684,-1.584124 0.2307,-0.676713 0.70747,-1.215008 0.49216,-0.553675 0.95355,-0.907412 0.4614,-0.353736 1.30729,-0.876651 1.32267,-0.830512 1.73792,-1.245768 0.86128,-0.845892 0.86128,-1.876342 0,-0.907412 -0.58444,-1.476466 -0.58443,-0.584435 -1.5226,-0.584435 -1.12273,0 -1.61489,0.784373 -0.47677,0.768993 -0.50753,1.953241 h -1.32267 v -0.292217 q 0,-1.614885 0.95355,-2.599195 0.96893,-0.984311 2.55306,-0.984311 1.55336,0 2.47615,0.861272 0.92279,0.861272 0.92279,2.306978 0,0.615194 -0.21531,1.168869 -0.19994,0.538295 -0.4614,0.907411 -0.24608,0.369117 -0.76899,0.784373 -0.50754,0.415256 -0.84589,0.645953 -0.33836,0.215318 -0.96894,0.599815 -1.26114,0.753612 -1.6764,1.168868 -0.58443,0.569055 -0.75361,1.276528 z m 10.4583,-6.936313 v 1.353427 q -0.13841,-0.01538 -0.33835,-0.01538 -0.63058,0 -1.09197,0.199938 -0.4614,0.184558 -0.73823,0.492155 -0.26146,0.307597 -0.43064,0.768993 -0.16918,0.461395 -0.2307,0.922791 -0.0461,0.461396 -0.0461,1.04583 v 3.352807 h -1.30729 v -7.936003 h 1.24577 v 1.707164 q 0.78437,-1.891722 2.93755,-1.891722 z m 7.48999,5.613646 q -0.59981,2.768373 -3.46046,2.768373 -1.75331,0 -2.753,-1.09197 -0.98431,-1.091969 -0.98431,-3.02983 0,-1.922482 1.01507,-3.10673 1.03045,-1.199629 2.6761,-1.199629 1.8302,0 2.70685,1.245768 0.89203,1.230388 0.89203,3.12211 v 0.184558 h -5.96738 l -0.0154,0.09228 q 0,1.261148 0.66133,1.984 0.66134,0.722853 1.81483,0.722853 0.86127,0 1.35342,-0.399876 0.50754,-0.399876 0.78437,-1.291907 z m -1.26115,-2.168559 q -0.0923,-1.138109 -0.69209,-1.768683 -0.59981,-0.645954 -1.58412,-0.645954 -0.95355,0 -1.58413,0.645954 -0.63057,0.645953 -0.75361,1.768683 z m 3.96802,-3.260529 v 1.122729 q 0.86127,-1.368807 2.67609,-1.368807 1.66103,0 2.62996,1.12273 0.98431,1.122729 0.98431,3.04521 0,1.922482 -0.96893,3.07597 -0.95355,1.13811 -2.58382,1.13811 -1.70716,0 -2.66071,-1.307288 v 4.16794 h -1.30729 V 33.065227 Z m 2.47616,0.845892 q -1.13811,0 -1.79945,0.830512 -0.64595,0.815132 -0.64595,2.260838 0,1.445706 0.66133,2.276218 0.67672,0.815132 1.83021,0.815132 1.12272,0 1.76868,-0.830511 0.64595,-0.830513 0.64595,-2.260839 0,-1.445706 -0.66133,-2.260838 -0.64596,-0.830512 -1.79944,-0.830512 z m 6.7979,-3.860343 V 41.00123 H 619.1555 V 30.050776 Z m 3.41433,0 v 1.599504 h -1.32267 v -1.599504 z m 0,3.014451 v 7.936003 h -1.32267 v -7.936003 z m 8.8588,5.044592 q -0.16918,1.430325 -1.09197,2.276217 -0.90742,0.845892 -2.3685,0.845892 -1.79944,0 -2.78375,-1.107349 -0.98432,-1.122729 -0.98432,-2.983691 0,-1.984001 1.03046,-3.13749 1.03045,-1.168869 2.78375,-1.168869 1.46108,0 2.33774,0.738233 0.87665,0.722853 1.03045,2.07628 h -1.35343 q -0.35374,-1.722543 -1.99938,-1.722543 -1.13811,0 -1.79944,0.845892 -0.66134,0.830512 -0.66134,2.260838 0,1.445706 0.63058,2.276218 0.63057,0.830512 1.73792,0.830512 0.89203,0 1.44571,-0.522915 0.56905,-0.522915 0.72285,-1.507225 z m 8.45893,1.845581 v 1.015071 q -0.39988,0.153798 -0.89203,0.153798 -1.12273,0 -1.15349,-1.168869 -1.12273,1.261148 -2.87604,1.261148 -1.16886,0 -1.86096,-0.599814 -0.67671,-0.599814 -0.67671,-1.645644 0,-2.122419 2.81451,-2.476156 1.66103,-0.199938 1.92248,-0.292217 0.55368,-0.184558 0.59982,-0.768993 0.0154,-0.09228 0.0154,-0.199938 0,-1.307287 -1.79945,-1.307287 -0.92279,0 -1.39956,0.384496 -0.47678,0.369116 -0.56906,1.230388 h -1.27652 q 0.0308,-1.276528 0.90741,-1.984001 0.87665,-0.707473 2.41463,-0.707473 1.67641,0 2.49154,0.768993 0.26146,0.246077 0.3845,0.645953 0.12304,0.399877 0.13842,0.661334 0.0154,0.246078 0.0154,0.753613 0,0.599814 -0.0308,1.784063 -0.0308,1.168869 -0.0308,1.753303 0,0.430635 0.10765,0.615194 0.12304,0.169178 0.43064,0.169178 0.12304,0 0.32298,-0.04614 z m -2.10704,-3.07597 q -0.13842,0.107659 -0.29222,0.184559 -0.1538,0.0769 -0.39988,0.123038 -0.23069,0.04614 -0.32297,0.0769 -0.0769,0.01538 -0.39988,0.06152 -0.32298,0.03076 -0.33836,0.03076 -0.47677,0.06152 -0.63057,0.09228 -0.13842,0.01538 -0.55367,0.123039 -0.39988,0.107659 -0.56906,0.246077 -0.16918,0.138419 -0.33836,0.415256 -0.15379,0.261458 -0.15379,0.630574 0,0.615194 0.41525,0.968931 0.43064,0.353736 1.16887,0.353736 0.93817,0 1.6764,-0.553674 0.73824,-0.553675 0.73824,-1.307287 z m 9.22791,-1.507225 h -1.30729 q -0.12304,-1.445706 -1.93786,-1.445706 -0.75361,0 -1.18425,0.292217 -0.43063,0.292217 -0.43063,0.784372 0,0.138419 0.0308,0.276838 0.0308,0.123039 0.10765,0.230697 0.0923,0.09228 0.1538,0.169179 0.0769,0.0769 0.2307,0.153798 0.16918,0.06152 0.24608,0.107659 0.0923,0.04614 0.3076,0.107659 0.23069,0.04614 0.32297,0.0769 0.0923,0.01538 0.35374,0.0769 0.27684,0.06152 0.35374,0.0769 0.56905,0.123039 0.84589,0.199938 0.29221,0.0769 0.78437,0.292217 0.50754,0.199938 0.76899,0.430636 0.26146,0.215318 0.4614,0.615194 0.21532,0.384497 0.21532,0.876652 0,1.153489 -0.90742,1.860962 -0.89203,0.692093 -2.38387,0.692093 -1.61489,0 -2.49154,-0.707473 -0.86127,-0.707473 -0.92279,-2.04552 h 1.29191 q 0.10766,1.676403 2.15318,1.676403 0.87665,0 1.39956,-0.353736 0.5383,-0.369117 0.5383,-0.968931 0,-0.399876 -0.27684,-0.661333 -0.27684,-0.261458 -0.61519,-0.369117 -0.33836,-0.123038 -0.96893,-0.276837 -0.0923,-0.01538 -0.13842,-0.03076 -0.13842,-0.03076 -0.59982,-0.123039 -0.44601,-0.107658 -0.64595,-0.169178 -0.19994,-0.06152 -0.58443,-0.184558 -0.36912,-0.138419 -0.55368,-0.276837 -0.18456,-0.153799 -0.41526,-0.369117 -0.21531,-0.230698 -0.30759,-0.522915 -0.0923,-0.307597 -0.0923,-0.692093 0,-1.07659 0.81513,-1.707164 0.83051,-0.630574 2.2147,-0.630574 1.39957,0 2.27622,0.661334 0.89203,0.661333 0.89203,1.876342 z m 8.58196,3.12211 q -0.59982,2.768373 -3.46047,2.768373 -1.7533,0 -2.75299,-1.09197 -0.98431,-1.091969 -0.98431,-3.02983 0,-1.922482 1.01507,-3.10673 1.03045,-1.199629 2.67609,-1.199629 1.8302,0 2.70685,1.245768 0.89204,1.230388 0.89204,3.12211 v 0.184558 h -5.96739 l -0.0154,0.09228 q 0,1.261148 0.66134,1.984 0.66133,0.722853 1.81482,0.722853 0.86127,0 1.35343,-0.399876 0.50753,-0.399876 0.78437,-1.291907 z m -1.26115,-2.168559 q -0.0923,-1.138109 -0.69209,-1.768683 -0.59982,-0.645954 -1.58413,-0.645954 -0.95355,0 -1.58412,0.645954 -0.63058,0.645953 -0.75362,1.768683 z m 6.13657,-3.260529 v 1.07659 h -1.58412 v 4.629335 q 0,0.384497 0,0.507535 0.0154,0.123039 0.0923,0.338357 0.0769,0.199938 0.26145,0.261457 0.18456,0.06152 0.52292,0.06152 0.29222,0 0.70747,-0.04614 v 1.122729 q -0.55367,0.06152 -0.99969,0.06152 -0.55367,0 -0.92279,-0.123039 -0.36912,-0.123039 -0.56905,-0.276837 -0.18456,-0.153799 -0.27684,-0.538295 -0.0923,-0.399876 -0.10766,-0.661334 -0.0154,-0.276837 -0.0154,-0.907411 0,-0.138419 0,-0.215318 v -4.214079 h -1.33805 v -1.07659 h 1.33805 v -2.353118 h 1.30729 v 2.353118 z m 7.33621,2.306978 h -1.30729 q -0.12304,-1.445706 -1.93786,-1.445706 -0.75362,0 -1.18425,0.292217 -0.43064,0.292217 -0.43064,0.784372 0,0.138419 0.0308,0.276838 0.0308,0.123039 0.10766,0.230697 0.0923,0.09228 0.1538,0.169179 0.0769,0.0769 0.2307,0.153798 0.16918,0.06152 0.24607,0.107659 0.0923,0.04614 0.3076,0.107659 0.2307,0.04614 0.32298,0.0769 0.0923,0.01538 0.35374,0.0769 0.27683,0.06152 0.35373,0.0769 0.56906,0.123039 0.84589,0.199938 0.29222,0.0769 0.78438,0.292217 0.50753,0.199938 0.76899,0.430636 0.26146,0.215318 0.46139,0.615194 0.21532,0.384497 0.21532,0.876652 0,1.153489 -0.90741,1.860962 -0.89203,0.692093 -2.38388,0.692093 -1.61488,0 -2.49153,-0.707473 -0.86127,-0.707473 -0.92279,-2.04552 h 1.2919 q 0.10766,1.676403 2.15318,1.676403 0.87666,0 1.39957,-0.353736 0.5383,-0.369117 0.5383,-0.968931 0,-0.399876 -0.27684,-0.661333 -0.27684,-0.261458 -0.6152,-0.369117 -0.33835,-0.123038 -0.96893,-0.276837 -0.0923,-0.01538 -0.13842,-0.03076 -0.13841,-0.03076 -0.59981,-0.123039 -0.44602,-0.107658 -0.64595,-0.169178 -0.19994,-0.06152 -0.58444,-0.184558 -0.36911,-0.138419 -0.55367,-0.276837 -0.18456,-0.153799 -0.41526,-0.369117 -0.21532,-0.230698 -0.3076,-0.522915 -0.0923,-0.307597 -0.0923,-0.692093 0,-1.07659 0.81514,-1.707164 0.83051,-0.630574 2.2147,-0.630574 1.39956,0 2.27621,0.661334 0.89204,0.661333 0.89204,1.876342 z"
       id="text140"
       style="font-size:12px;line-height:1.25;font-family:HelveticaNeueCyr;-inkscape-font-specification:HelveticaNeueCyr;text-align:center;text-anchor:middle;stroke-width:0.339104"
       aria-label="2 replicasets" />
    <path
       d="m 639.16904,186.43842 q 0.0461,-1.69178 0.93817,-2.61458 0.90741,-0.92279 2.5223,-0.92279 1.4457,0 2.32236,0.78438 0.87665,0.78437 0.87665,2.0609 0,0.76899 -0.39988,1.38418 -0.38449,0.59982 -1.09197,0.89203 0.92279,0.21532 1.46109,0.9228 0.53829,0.70747 0.53829,1.70716 0.0154,1.50722 -1.04583,2.4454 -1.04583,0.92279 -2.72223,0.92279 -1.66102,0 -2.66072,-0.90741 -0.98431,-0.9228 -0.98431,-2.47616 v -0.19994 h 1.29191 q 0.0461,1.16887 0.66134,1.79944 0.61519,0.63058 1.70716,0.63058 1.04583,0 1.69178,-0.58444 0.66134,-0.59981 0.66134,-1.53798 0,-0.95355 -0.66134,-1.52261 -0.64595,-0.56905 -1.7533,-0.56905 -0.27684,0 -0.70747,0.0615 v -1.10735 q 0.21531,0.0154 0.44601,0.0154 1.01507,0 1.59951,-0.47678 0.59981,-0.49215 0.59981,-1.32266 0,-0.79976 -0.52291,-1.29191 -0.50754,-0.49216 -1.36881,-0.49216 -0.98431,0 -1.53799,0.63058 -0.55367,0.61519 -0.58443,1.76868 z m 17.2408,-0.75361 v 1.35342 q -0.13841,-0.0154 -0.33835,-0.0154 -0.63058,0 -1.09197,0.19994 -0.4614,0.18456 -0.73824,0.49216 -0.26145,0.30759 -0.43063,0.76899 -0.16918,0.4614 -0.2307,0.92279 -0.0461,0.4614 -0.0461,1.04583 v 3.35281 h -1.30729 v -7.93601 h 1.24577 v 1.70717 q 0.78437,-1.89172 2.93755,-1.89172 z m 7.49,5.61364 q -0.59981,2.76838 -3.46046,2.76838 -1.75331,0 -2.753,-1.09197 -0.98431,-1.09197 -0.98431,-3.02983 0,-1.92249 1.01507,-3.10673 1.03045,-1.19963 2.6761,-1.19963 1.8302,0 2.70685,1.24577 0.89203,1.23038 0.89203,3.12211 v 0.18455 h -5.96738 l -0.0154,0.0923 q 0,1.26115 0.66133,1.984 0.66134,0.72286 1.81483,0.72286 0.86127,0 1.35342,-0.39988 0.50754,-0.39988 0.78438,-1.29191 z m -1.26114,-2.16856 q -0.0923,-1.13811 -0.6921,-1.76868 -0.59981,-0.64595 -1.58412,-0.64595 -0.95355,0 -1.58413,0.64595 -0.63057,0.64595 -0.75361,1.76868 z m 3.96801,-3.26053 v 1.12273 q 0.86127,-1.3688 2.6761,-1.3688 1.66102,0 2.62995,1.12273 0.98431,1.12273 0.98431,3.04521 0,1.92248 -0.96893,3.07597 -0.95355,1.13811 -2.58381,1.13811 -1.70717,0 -2.66072,-1.30729 v 4.16794 h -1.30729 v -10.9966 z m 2.47616,0.8459 q -1.13811,0 -1.79944,0.83051 -0.64596,0.81513 -0.64596,2.26084 0,1.4457 0.66134,2.27622 0.67671,0.81513 1.8302,0.81513 1.12273,0 1.76868,-0.83051 0.64595,-0.83052 0.64595,-2.26084 0,-1.44571 -0.66133,-2.26084 -0.64595,-0.83051 -1.79944,-0.83051 z m 6.79789,-3.86035 v 10.95046 h -1.32266 v -10.95046 z m 3.41433,0 v 1.59951 h -1.32267 v -1.59951 z m 0,3.01445 v 7.93601 h -1.32267 v -7.93601 z m 8.85881,5.0446 q -0.16918,1.43032 -1.09197,2.27621 -0.90741,0.8459 -2.3685,0.8459 -1.79944,0 -2.78375,-1.10735 -0.98431,-1.12273 -0.98431,-2.98369 0,-1.98401 1.03045,-3.13749 1.03045,-1.16887 2.78375,-1.16887 1.46109,0 2.33774,0.73823 0.87665,0.72285 1.03045,2.07628 h -1.35343 q -0.35374,-1.72254 -1.99938,-1.72254 -1.13811,0 -1.79944,0.84589 -0.66134,0.83051 -0.66134,2.26084 0,1.4457 0.63058,2.27621 0.63057,0.83052 1.73792,0.83052 0.89203,0 1.44571,-0.52292 0.56905,-0.52291 0.72285,-1.50722 z m 8.45892,1.84558 v 1.01507 q -0.39988,0.1538 -0.89203,0.1538 -1.12273,0 -1.15349,-1.16887 -1.12273,1.26115 -2.87604,1.26115 -1.16886,0 -1.86096,-0.59982 -0.67671,-0.59981 -0.67671,-1.64564 0,-2.12242 2.81451,-2.47616 1.66103,-0.19994 1.92248,-0.29222 0.55368,-0.18455 0.59982,-0.76899 0.0154,-0.0923 0.0154,-0.19994 0,-1.30728 -1.79945,-1.30728 -0.92279,0 -1.39956,0.38449 -0.47678,0.36912 -0.56906,1.23039 h -1.27652 q 0.0308,-1.27653 0.90741,-1.984 0.87665,-0.70747 2.41463,-0.70747 1.67641,0 2.49154,0.76899 0.26146,0.24608 0.3845,0.64595 0.12303,0.39988 0.13841,0.66134 0.0154,0.24607 0.0154,0.75361 0,0.59981 -0.0308,1.78406 -0.0308,1.16887 -0.0308,1.75331 0,0.43063 0.10765,0.61519 0.12304,0.16918 0.43064,0.16918 0.12304,0 0.32298,-0.0461 z m -2.10704,-3.07597 q -0.13842,0.10766 -0.29222,0.18456 -0.1538,0.0769 -0.39988,0.12304 -0.23069,0.0461 -0.32297,0.0769 -0.0769,0.0154 -0.39988,0.0615 -0.32298,0.0308 -0.33836,0.0308 -0.47677,0.0615 -0.63057,0.0923 -0.13842,0.0154 -0.55367,0.12304 -0.39988,0.10766 -0.56906,0.24608 -0.16918,0.13842 -0.33836,0.41526 -0.15379,0.26145 -0.15379,0.63057 0,0.61519 0.41525,0.96893 0.43064,0.35374 1.16887,0.35374 0.93817,0 1.6764,-0.55368 0.73824,-0.55367 0.73824,-1.30729 z m 9.22792,-1.50723 h -1.30729 q -0.12303,-1.4457 -1.93786,-1.4457 -0.75361,0 -1.18425,0.29221 -0.43063,0.29222 -0.43063,0.78438 0,0.13841 0.0308,0.27683 0.0308,0.12304 0.10766,0.2307 0.0923,0.0923 0.1538,0.16918 0.0769,0.0769 0.23069,0.1538 0.16918,0.0615 0.24608,0.10766 0.0923,0.0461 0.3076,0.10766 0.2307,0.0461 0.32297,0.0769 0.0923,0.0154 0.35374,0.0769 0.27684,0.0615 0.35374,0.0769 0.56905,0.12304 0.84589,0.19994 0.29222,0.0769 0.78437,0.29222 0.50754,0.19994 0.76899,0.43064 0.26146,0.21531 0.4614,0.61519 0.21532,0.3845 0.21532,0.87665 0,1.15349 -0.90741,1.86096 -0.89203,0.6921 -2.38388,0.6921 -1.61488,0 -2.49154,-0.70748 -0.86127,-0.70747 -0.92279,-2.04552 h 1.29191 q 0.10766,1.67641 2.15318,1.67641 0.87665,0 1.39957,-0.35374 0.53829,-0.36912 0.53829,-0.96893 0,-0.39988 -0.27684,-0.66133 -0.27683,-0.26146 -0.61519,-0.36912 -0.33836,-0.12304 -0.96893,-0.27684 -0.0923,-0.0154 -0.13842,-0.0308 -0.13842,-0.0308 -0.59981,-0.12304 -0.44602,-0.10766 -0.64596,-0.16917 -0.19994,-0.0615 -0.58443,-0.18456 -0.36912,-0.13842 -0.55368,-0.27684 -0.18456,-0.1538 -0.41525,-0.36912 -0.21532,-0.23069 -0.3076,-0.52291 -0.0923,-0.3076 -0.0923,-0.6921 0,-1.07659 0.81513,-1.70716 0.83052,-0.63057 2.2147,-0.63057 1.39957,0 2.27622,0.66133 0.89203,0.66133 0.89203,1.87634 z m 8.58196,3.12211 q -0.59981,2.76838 -3.46047,2.76838 -1.7533,0 -2.75299,-1.09197 -0.98431,-1.09197 -0.98431,-3.02983 0,-1.92249 1.01507,-3.10673 1.03045,-1.19963 2.67609,-1.19963 1.83021,0 2.70686,1.24577 0.89203,1.23038 0.89203,3.12211 v 0.18455 h -5.96738 l -0.0154,0.0923 q 0,1.26115 0.66133,1.984 0.66133,0.72286 1.81482,0.72286 0.86127,0 1.35343,-0.39988 0.50753,-0.39988 0.78437,-1.29191 z m -1.26115,-2.16856 q -0.0923,-1.13811 -0.69209,-1.76868 -0.59982,-0.64595 -1.58413,-0.64595 -0.95355,0 -1.58412,0.64595 -0.63058,0.64595 -0.75361,1.76868 z m 6.13658,-3.26053 v 1.07659 h -1.58413 v 4.62934 q 0,0.3845 0,0.50754 0.0154,0.12303 0.0923,0.33835 0.0769,0.19994 0.26146,0.26146 0.18456,0.0615 0.52291,0.0615 0.29222,0 0.70748,-0.0461 v 1.12273 q -0.55368,0.0615 -0.9997,0.0615 -0.55367,0 -0.92279,-0.12304 -0.36911,-0.12304 -0.56905,-0.27684 -0.18456,-0.1538 -0.27684,-0.53829 -0.0923,-0.39988 -0.10766,-0.66134 -0.0154,-0.27683 -0.0154,-0.90741 0,-0.13842 0,-0.21532 v -4.21408 h -1.33804 v -1.07659 h 1.33804 v -2.35311 h 1.30729 v 2.35311 z m 7.3362,2.30698 H 723.22 q -0.12304,-1.4457 -1.93786,-1.4457 -0.75361,0 -1.18425,0.29221 -0.43064,0.29222 -0.43064,0.78438 0,0.13841 0.0308,0.27683 0.0308,0.12304 0.10766,0.2307 0.0923,0.0923 0.1538,0.16918 0.0769,0.0769 0.2307,0.1538 0.16918,0.0615 0.24608,0.10766 0.0923,0.0461 0.30759,0.10766 0.2307,0.0461 0.32298,0.0769 0.0923,0.0154 0.35374,0.0769 0.27684,0.0615 0.35373,0.0769 0.56906,0.12304 0.8459,0.19994 0.29221,0.0769 0.78437,0.29222 0.50753,0.19994 0.76899,0.43064 0.26146,0.21531 0.4614,0.61519 0.21531,0.3845 0.21531,0.87665 0,1.15349 -0.90741,1.86096 -0.89203,0.6921 -2.38387,0.6921 -1.61489,0 -2.49154,-0.70748 -0.86127,-0.70747 -0.92279,-2.04552 h 1.29191 q 0.10766,1.67641 2.15318,1.67641 0.87665,0 1.39956,-0.35374 0.5383,-0.36912 0.5383,-0.96893 0,-0.39988 -0.27684,-0.66133 -0.27684,-0.26146 -0.61519,-0.36912 -0.33836,-0.12304 -0.96893,-0.27684 -0.0923,-0.0154 -0.13842,-0.0308 -0.13842,-0.0308 -0.59982,-0.12304 -0.44601,-0.10766 -0.64595,-0.16917 -0.19994,-0.0615 -0.58444,-0.18456 -0.36911,-0.13842 -0.55367,-0.27684 -0.18456,-0.1538 -0.41526,-0.36912 -0.21531,-0.23069 -0.30759,-0.52291 -0.0923,-0.3076 -0.0923,-0.6921 0,-1.07659 0.81513,-1.70716 0.83051,-0.63057 2.2147,-0.63057 1.39956,0 2.27622,0.66133 0.89203,0.66133 0.89203,1.87634 z"
       id="text141"
       style="font-size:12px;line-height:1.25;font-family:HelveticaNeueCyr;-inkscape-font-specification:HelveticaNeueCyr;text-align:center;text-anchor:middle;stroke-width:0.339104"
       aria-label="3 replicasets" />
  </g>
</svg>
