<?xml version="1.0" encoding="UTF-8" standalone="no"?>
<!-- Created with Inkscape (http://www.inkscape.org/) -->

<svg
   width="177.60335mm"
   height="137.70819mm"
   viewBox="0 0 177.60335 137.70819"
   version="1.1"
   id="svg1"
   inkscape:version="1.3.2 (091e20ef0f, 2023-11-25)"
   sodipodi:docname="fibers.svg"
   xmlns:inkscape="http://www.inkscape.org/namespaces/inkscape"
   xmlns:sodipodi="http://sodipodi.sourceforge.net/DTD/sodipodi-0.dtd"
   xmlns="http://www.w3.org/2000/svg"
   xmlns:svg="http://www.w3.org/2000/svg">
  <sodipodi:namedview
     id="namedview1"
     pagecolor="#ffffff"
     bordercolor="#666666"
     borderopacity="1.0"
     inkscape:showpageshadow="2"
     inkscape:pageopacity="0.0"
     inkscape:pagecheckerboard="0"
     inkscape:deskcolor="#d1d1d1"
     inkscape:document-units="mm"
     inkscape:zoom="0.83031733"
     inkscape:cx="237.86087"
     inkscape:cy="107.18794"
     inkscape:window-width="1858"
     inkscape:window-height="1014"
     inkscape:window-x="62"
     inkscape:window-y="29"
     inkscape:window-maximized="1"
     inkscape:current-layer="layer1" />
  <defs
     id="defs1">
    <marker
       style="overflow:visible"
       id="Triangle"
       refX="0"
       refY="0"
       orient="auto-start-reverse"
       inkscape:stockid="Triangle arrow"
       markerWidth="1"
       markerHeight="1"
       viewBox="0 0 1 1"
       inkscape:isstock="true"
       inkscape:collect="always"
       preserveAspectRatio="xMidYMid">
      <path
         transform="scale(0.5)"
         style="fill:context-stroke;fill-rule:evenodd;stroke:context-stroke;stroke-width:1pt"
         d="M 5.77,0 -2.88,5 V -5 Z"
         id="path135" />
    </marker>
  </defs>
  <g
     inkscape:label="Layer 1"
     inkscape:groupmode="layer"
     id="layer1"
     transform="translate(-18.802312,-12.151095)">
    <path
       id="path1"
       style="fill:none;stroke:#ff0000;stroke-width:0.464999"
       d="M 84.613767,125.48512 A 16.646034,16.653458 0 0 1 67.967732,142.13858 16.646034,16.653458 0 0 1 51.321698,125.48512 16.646034,16.653458 0 0 1 67.967732,108.83167 16.646034,16.653458 0 0 1 84.613767,125.48512 Z" />
    <path
       d="m 61.644805,123.86645 v 0.48058 q -0.04913,-0.005 -0.120101,-0.005 -0.223805,0 -0.387567,0.071 -0.163761,0.0655 -0.262017,0.17475 -0.0928,0.10922 -0.152846,0.27306 -0.06005,0.16384 -0.08188,0.32767 -0.01643,0.16383 -0.01643,0.37136 v 1.19052 H 60.16004 v -2.81792 h 0.442155 v 0.60618 q 0.278393,-0.67172 1.04261,-0.67172 z m 2.685676,0.0655 v 2.81794 h -0.431237 v -0.44235 q -0.360273,0.51881 -0.971646,0.51881 -0.447613,0 -0.693253,-0.24575 -0.245643,-0.24575 -0.245643,-0.70995 v -1.9387 h 0.463989 v 1.81309 q 0,0.33313 0.125558,0.50788 0.131016,0.1693 0.463989,0.1693 0.824261,0 0.824261,-1.01577 v -1.4745 z m 1.135406,0 v 0.43689 q 0.349355,-0.51334 0.960728,-0.51334 0.496741,0 0.715089,0.26213 0.223807,0.25667 0.223807,0.7591 v 1.87316 h -0.463989 v -1.66018 q 0,-0.20752 -0.01643,-0.32221 -0.01095,-0.12013 -0.06551,-0.25121 -0.05459,-0.13653 -0.185596,-0.1966 -0.131015,-0.0601 -0.338439,-0.0601 -0.802427,0 -0.802427,1.01577 v 1.47451 h -0.463933 v -2.81794 z m 3.035029,0 v 0.43689 q 0.349356,-0.51334 0.960729,-0.51334 0.496741,0 0.715089,0.26213 0.223805,0.25667 0.223805,0.7591 v 1.87316 h -0.463988 v -1.66018 q 0,-0.20752 -0.01643,-0.32221 -0.01095,-0.12013 -0.06551,-0.25121 -0.05459,-0.13653 -0.185596,-0.1966 -0.131016,-0.0601 -0.338438,-0.0601 -0.802428,0 -0.802428,1.01577 v 1.47451 H 68.06422 v -2.81794 z m 3.089617,-1.07038 v 0.56796 h -0.469448 v -0.56796 z m 0,1.07038 v 2.81794 h -0.469448 v -2.81794 z m 1.157242,0 v 0.43689 q 0.349357,-0.51334 0.96073,-0.51334 0.49674,0 0.715088,0.26213 0.223806,0.25667 0.223806,0.7591 v 1.87316 h -0.463987 v -1.66018 q 0,-0.20752 -0.01643,-0.32221 -0.01095,-0.12013 -0.06551,-0.25121 -0.05459,-0.13653 -0.185594,-0.1966 -0.131016,-0.0601 -0.33844,-0.0601 -0.802426,0 -0.802426,1.01577 v 1.47451 h -0.463936 v -2.81794 z m 5.038368,0 v 2.51212 q 0,0.36589 -0.0382,0.56249 -0.03822,0.20206 -0.14193,0.37682 -0.311145,0.51335 -1.113572,0.51335 -0.474907,0 -0.802428,-0.1966 -0.327521,-0.19114 -0.382108,-0.63349 h 0.474907 q 0.08188,0.46965 0.726005,0.46965 0.431237,0 0.62229,-0.21844 0.196513,-0.21845 0.207432,-0.70449 l 0.0055,-0.34405 q -0.267476,0.51335 -0.895225,0.51335 -0.567702,0 -0.906142,-0.38774 -0.33298,-0.38774 -0.33298,-1.04308 0,-0.61711 0.33298,-1.05399 0.33298,-0.44235 0.927977,-0.44235 0.294769,0 0.524034,0.12559 0.234724,0.12562 0.365732,0.36044 v -0.40959 z m -1.293708,0.32767 q -0.376651,0 -0.594997,0.2949 -0.212889,0.28944 -0.212889,0.80278 0,0.4642 0.223806,0.74818 0.223805,0.27852 0.594997,0.27852 0.387567,0 0.605913,-0.29491 0.223808,-0.2949 0.223808,-0.80824 0,-0.48058 -0.223808,-0.74818 -0.218346,-0.27305 -0.61683,-0.27305 z"
       id="text1"
       style="font-size:2.99067px;line-height:1.25;font-family:HelveticaNeueCyr;-inkscape-font-specification:HelveticaNeueCyr;stroke-width:0.264584"
       aria-label="running" />
    <g
       id="g10"
       transform="matrix(1.8252395,0,0,1.8260535,-15.607431,-8.940475)"
       style="stroke-width:0.547751">
      <path
         id="circle1"
         style="fill:none;stroke:#a5a5a5;stroke-width:0.254704"
         d="m 54.908519,43.633358 a 9.1199179,9.1199179 0 0 1 -9.119918,9.119918 9.1199179,9.1199179 0 0 1 -9.119918,-9.119918 9.1199179,9.1199179 0 0 1 9.119918,-9.119918 9.1199179,9.1199179 0 0 1 9.119918,9.119918 z" />
      <path
         d="m 39.748939,43.305878 h -0.254207 q -0.02392,-0.281123 -0.376825,-0.281123 -0.146542,0 -0.230281,0.05682 -0.08374,0.05682 -0.08374,0.152524 0,0.02692 0.006,0.05383 0.006,0.02392 0.02094,0.04486 0.01794,0.01794 0.02991,0.0329 0.01495,0.01495 0.04486,0.02991 0.0329,0.01196 0.04785,0.02094 0.01794,0.009 0.05981,0.02093 0.04486,0.009 0.0628,0.01495 0.01794,0.003 0.06879,0.01495 0.05383,0.01196 0.06878,0.01495 0.110655,0.02393 0.164487,0.03888 0.05682,0.01495 0.152524,0.05682 0.09869,0.03888 0.149533,0.08374 0.05084,0.04187 0.08972,0.119626 0.04187,0.07477 0.04187,0.170469 0,0.2243 -0.17645,0.361871 -0.173458,0.13458 -0.463553,0.13458 -0.314021,0 -0.484489,-0.137571 -0.167478,-0.137571 -0.17944,-0.397759 h 0.251216 q 0.02093,0.325983 0.418694,0.325983 0.170468,0 0.272151,-0.06879 0.104673,-0.07178 0.104673,-0.188413 0,-0.07776 -0.05383,-0.128598 -0.05383,-0.05084 -0.119627,-0.07178 -0.06579,-0.02392 -0.188412,-0.05383 -0.01794,-0.003 -0.02692,-0.006 -0.02692,-0.006 -0.116636,-0.02392 -0.08673,-0.02094 -0.125608,-0.0329 -0.03888,-0.01196 -0.113646,-0.03589 -0.07178,-0.02692 -0.107664,-0.05383 -0.03589,-0.02991 -0.08075,-0.07178 -0.04187,-0.04486 -0.05981,-0.101683 -0.01794,-0.05981 -0.01794,-0.13458 0,-0.209347 0.158505,-0.331964 0.161497,-0.122618 0.430657,-0.122618 0.272151,0 0.442619,0.128599 0.173459,0.128599 0.173459,0.364862 z m 1.629915,-0.448601 v 1.543186 h -0.236263 v -0.242244 q -0.197384,0.284113 -0.532339,0.284113 -0.245235,0 -0.379815,-0.13458 -0.13458,-0.13458 -0.13458,-0.388787 v -1.061688 h 0.254207 v 0.992903 q 0,0.182431 0.06878,0.278132 0.07178,0.09271 0.254207,0.09271 0.451591,0 0.451591,-0.556265 v -0.807481 z m 1.528232,0.448601 h -0.254207 q -0.02393,-0.281123 -0.376825,-0.281123 -0.146542,0 -0.230281,0.05682 -0.08374,0.05682 -0.08374,0.152524 0,0.02692 0.006,0.05383 0.006,0.02392 0.02094,0.04486 0.01794,0.01794 0.02991,0.0329 0.01495,0.01495 0.04486,0.02991 0.0329,0.01196 0.04785,0.02094 0.01794,0.009 0.05981,0.02093 0.04486,0.009 0.0628,0.01495 0.01794,0.003 0.06879,0.01495 0.05383,0.01196 0.06879,0.01495 0.110655,0.02393 0.164487,0.03888 0.05682,0.01495 0.152524,0.05682 0.09869,0.03888 0.149533,0.08374 0.05084,0.04187 0.08972,0.119626 0.04187,0.07477 0.04187,0.170469 0,0.2243 -0.17645,0.361871 -0.173459,0.13458 -0.463554,0.13458 -0.31402,0 -0.484488,-0.137571 -0.167478,-0.137571 -0.17944,-0.397759 h 0.251216 q 0.02093,0.325983 0.418694,0.325983 0.170468,0 0.272151,-0.06879 0.104673,-0.07178 0.104673,-0.188413 0,-0.07776 -0.05383,-0.128598 -0.05383,-0.05084 -0.119627,-0.07178 -0.06579,-0.02392 -0.188412,-0.05383 -0.01794,-0.003 -0.02692,-0.006 -0.02692,-0.006 -0.116636,-0.02392 -0.08673,-0.02094 -0.125608,-0.0329 -0.03888,-0.01196 -0.113646,-0.03589 -0.07178,-0.02692 -0.107664,-0.05383 -0.03589,-0.02991 -0.08075,-0.07178 -0.04187,-0.04486 -0.05981,-0.101683 -0.01794,-0.05981 -0.01794,-0.13458 0,-0.209347 0.158505,-0.331964 0.161496,-0.122618 0.430657,-0.122618 0.272151,0 0.442619,0.128599 0.173459,0.128599 0.173459,0.364862 z m 0.589161,-0.448601 v 0.218319 q 0.167478,-0.266169 0.520377,-0.266169 0.322992,0 0.511404,0.218319 0.191403,0.218318 0.191403,0.592152 0,0.373834 -0.188412,0.598134 -0.185421,0.22131 -0.502432,0.22131 -0.331965,0 -0.517386,-0.254207 v 0.810471 h -0.254207 v -2.138329 z m 0.481498,0.164487 q -0.221309,0 -0.349908,0.161496 -0.125608,0.158506 -0.125608,0.439629 0,0.281123 0.128598,0.442619 0.13159,0.158506 0.35589,0.158506 0.218319,0 0.343927,-0.161497 0.125608,-0.161496 0.125608,-0.439628 0,-0.281123 -0.128598,-0.439629 -0.125609,-0.161496 -0.349909,-0.161496 z m 2.371603,0.89122 q -0.116636,0.53832 -0.672901,0.53832 -0.340936,0 -0.53533,-0.212337 -0.191402,-0.212338 -0.191402,-0.589162 0,-0.373834 0.197384,-0.604115 0.200375,-0.233273 0.520376,-0.233273 0.35589,0 0.526358,0.242245 0.173459,0.239253 0.173459,0.607106 v 0.03589 h -1.16038 l -0.003,0.01794 q 0,0.245235 0.128598,0.385796 0.128599,0.140562 0.352899,0.140562 0.167478,0 0.263179,-0.07776 0.09869,-0.07776 0.152525,-0.251216 z m -0.245235,-0.421685 q -0.01794,-0.221309 -0.13458,-0.343927 -0.116636,-0.125608 -0.308039,-0.125608 -0.185421,0 -0.308039,0.125608 -0.122617,0.125609 -0.146543,0.343927 z m 0.771595,-0.634022 v 0.239254 q 0.191403,-0.281123 0.526358,-0.281123 0.272151,0 0.391777,0.143552 0.122618,0.140562 0.122618,0.415703 v 1.0258 h -0.254207 v -0.909164 q 0,-0.113645 -0.009,-0.176449 -0.006,-0.0658 -0.03589,-0.137571 -0.02991,-0.07477 -0.101683,-0.107664 -0.07178,-0.0329 -0.185421,-0.0329 -0.439629,0 -0.439629,0.556264 v 0.807481 h -0.254207 v -1.543186 z m 2.81422,-0.586171 v 2.129357 h -0.239254 v -0.227291 q -0.146543,0.26916 -0.508414,0.26916 -0.328973,0 -0.523367,-0.218318 -0.191403,-0.22131 -0.191403,-0.598134 0,-0.349909 0.17944,-0.58019 0.182431,-0.233273 0.523368,-0.233273 0.331964,0 0.505423,0.251217 v -0.792528 z m -0.726733,0.75963 q -0.218319,0 -0.346918,0.158506 -0.125608,0.158505 -0.125608,0.430656 0,0.281123 0.128599,0.448601 0.131589,0.164487 0.349908,0.164487 0.22131,0 0.346918,-0.158506 0.125608,-0.161496 0.125608,-0.44561 0,-0.254207 -0.119627,-0.424675 -0.116636,-0.173459 -0.35888,-0.173459 z m 2.428425,0.882248 q -0.116636,0.53832 -0.672901,0.53832 -0.340936,0 -0.53533,-0.212337 -0.191403,-0.212338 -0.191403,-0.589162 0,-0.373834 0.197384,-0.604115 0.200375,-0.233273 0.520377,-0.233273 0.35589,0 0.526358,0.242245 0.173459,0.239253 0.173459,0.607106 v 0.03589 h -1.16038 l -0.003,0.01794 q 0,0.245235 0.128599,0.385796 0.128599,0.140562 0.352899,0.140562 0.167478,0 0.263179,-0.07776 0.09869,-0.07776 0.152524,-0.251216 z m -0.245235,-0.421685 q -0.01794,-0.221309 -0.13458,-0.343927 -0.116636,-0.125608 -0.308039,-0.125608 -0.185422,0 -0.308039,0.125608 -0.122618,0.125609 -0.146543,0.343927 z m 1.923003,-1.220193 v 2.129357 h -0.239253 v -0.227291 q -0.146543,0.26916 -0.508414,0.26916 -0.328974,0 -0.523368,-0.218318 -0.191402,-0.22131 -0.191402,-0.598134 0,-0.349909 0.17944,-0.58019 0.182431,-0.233273 0.523367,-0.233273 0.331964,0 0.505423,0.251217 v -0.792528 z m -0.726733,0.75963 q -0.218319,0 -0.346917,0.158506 -0.125608,0.158505 -0.125608,0.430656 0,0.281123 0.128598,0.448601 0.13159,0.164487 0.349909,0.164487 0.221309,0 0.346917,-0.158506 0.125609,-0.161496 0.125609,-0.44561 0,-0.254207 -0.119627,-0.424675 -0.116636,-0.173459 -0.358881,-0.173459 z"
         id="text2"
         style="font-size:2.99067px;line-height:1.25;font-family:HelveticaNeueCyr;-inkscape-font-specification:HelveticaNeueCyr;stroke-width:0.144926"
         aria-label="suspended" />
    </g>
    <path
       id="circle10"
       style="fill:#ffffff;stroke:#001bff;stroke-width:0.464999"
       d="M 183.02656,70.736371 A 16.646034,16.653458 0 0 1 166.38053,87.389828 16.646034,16.653458 0 0 1 149.73449,70.736371 16.646034,16.653458 0 0 1 166.38053,54.082913 16.646034,16.653458 0 0 1 183.02656,70.736371 Z" />
    <path
       id="circle9"
       style="fill:#ffffff;stroke:#001bff;stroke-width:0.464999"
       d="M 183.02656,78.467926 A 16.646034,16.653458 0 0 1 166.38053,95.121382 16.646034,16.653458 0 0 1 149.73449,78.467926 16.646034,16.653458 0 0 1 166.38053,61.814468 16.646034,16.653458 0 0 1 183.02656,78.467926 Z" />
    <path
       id="circle8"
       style="fill:#ffffff;stroke:#001bff;stroke-width:0.464999"
       d="M 183.02656,86.199473 A 16.646034,16.653458 0 0 1 166.38053,102.85293 16.646034,16.653458 0 0 1 149.73449,86.199473 16.646034,16.653458 0 0 1 166.38053,69.546015 16.646034,16.653458 0 0 1 183.02656,86.199473 Z" />
    <path
       id="circle7"
       style="fill:#ffffff;stroke:#001bff;stroke-width:0.464999"
       d="M 183.02656,93.931027 A 16.646034,16.653458 0 0 1 166.38053,110.58449 16.646034,16.653458 0 0 1 149.73449,93.931027 16.646034,16.653458 0 0 1 166.38053,77.277569 16.646034,16.653458 0 0 1 183.02656,93.931027 Z" />
    <path
       id="circle6"
       style="fill:#ffffff;stroke:#001bff;stroke-width:0.464999"
       d="m 183.02656,101.66258 a 16.646034,16.653458 0 0 1 -16.64603,16.65346 16.646034,16.653458 0 0 1 -16.64604,-16.65346 16.646034,16.653458 0 0 1 16.64604,-16.653457 16.646034,16.653458 0 0 1 16.64603,16.653457 z" />
    <path
       id="circle5"
       style="fill:#ffffff;stroke:#001bff;stroke-width:0.464999"
       d="m 183.02656,109.39413 a 16.646034,16.653458 0 0 1 -16.64603,16.65346 16.646034,16.653458 0 0 1 -16.64604,-16.65346 16.646034,16.653458 0 0 1 16.64604,-16.65346 16.646034,16.653458 0 0 1 16.64603,16.65346 z" />
    <path
       id="circle4"
       style="fill:#ffffff;stroke:#001bff;stroke-width:0.464999"
       d="m 183.09833,117.12568 a 16.646034,16.653458 0 0 1 -16.64603,16.65346 16.646034,16.653458 0 0 1 -16.64603,-16.65346 16.646034,16.653458 0 0 1 16.64603,-16.65346 16.646034,16.653458 0 0 1 16.64603,16.65346 z" />
    <path
       id="circle2"
       style="fill:#ffffff;stroke:#001bff;stroke-width:0.464999"
       d="m 183.09833,125.48512 a 16.646034,16.653458 0 0 1 -16.64603,16.65346 16.646034,16.653458 0 0 1 -16.64603,-16.65346 16.646034,16.653458 0 0 1 16.64603,-16.65345 16.646034,16.653458 0 0 1 16.64603,16.65345 z" />
    <path
       d="m 161.2821,124.10278 v 0.48057 q -0.0491,-0.005 -0.1201,-0.005 -0.2238,0 -0.38757,0.071 -0.16376,0.0655 -0.26201,0.17476 -0.0928,0.10921 -0.15285,0.27305 -0.06,0.16384 -0.0819,0.32767 -0.0164,0.16383 -0.0164,0.37136 v 1.19052 h -0.46399 v -2.81794 h 0.44215 v 0.60619 q 0.27839,-0.67172 1.04261,-0.67172 z m 2.65839,1.99331 q -0.21289,0.983 -1.22821,0.983 -0.62229,0 -0.9771,-0.38774 -0.34936,-0.38774 -0.34936,-1.07584 0,-0.68264 0.36027,-1.10315 0.36574,-0.42597 0.94981,-0.42597 0.64959,0 0.96073,0.44235 0.31661,0.43689 0.31661,1.10861 v 0.0655 h -2.11797 l -0.005,0.0328 q 0,0.44781 0.23473,0.70448 0.23472,0.25668 0.64412,0.25668 0.30569,0 0.48036,-0.142 0.18014,-0.14199 0.2784,-0.45873 z m -0.44762,-0.77002 q -0.0327,-0.40412 -0.24564,-0.62803 -0.21289,-0.22937 -0.56224,-0.22937 -0.33844,0 -0.56225,0.22937 -0.2238,0.22937 -0.26747,0.62803 z m 3.46627,1.28882 v 0.36044 q -0.14191,0.0546 -0.3166,0.0546 -0.39848,0 -0.4094,-0.41505 -0.39849,0.44781 -1.02078,0.44781 -0.41486,0 -0.6605,-0.21298 -0.24018,-0.21299 -0.24018,-0.58434 0,-0.75364 0.99894,-0.87924 0.58954,-0.071 0.68234,-0.10376 0.19651,-0.0655 0.21289,-0.27305 0.005,-0.0328 0.005,-0.071 0,-0.4642 -0.63867,-0.4642 -0.32752,0 -0.49674,0.13654 -0.16922,0.13107 -0.20197,0.43689 h -0.45307 q 0.0109,-0.45328 0.32206,-0.70449 0.31115,-0.25121 0.85702,-0.25121 0.595,0 0.8843,0.27306 0.0928,0.0874 0.13648,0.22936 0.0437,0.142 0.0491,0.23483 0.005,0.0874 0.005,0.2676 0,0.21298 -0.011,0.63349 -0.011,0.41504 -0.011,0.62257 0,0.15291 0.0382,0.21844 0.0437,0.0601 0.15284,0.0601 0.0437,0 0.11463,-0.0164 z m -0.74784,-1.09222 q -0.0491,0.0382 -0.10371,0.0655 -0.0546,0.0273 -0.14193,0.0437 -0.0819,0.0164 -0.11462,0.0273 -0.0273,0.005 -0.14193,0.0218 -0.11463,0.011 -0.12008,0.011 -0.16922,0.0218 -0.22381,0.0328 -0.0491,0.005 -0.19651,0.0437 -0.14193,0.0382 -0.20197,0.0874 -0.06,0.0492 -0.12009,0.14746 -0.0546,0.0928 -0.0546,0.2239 0,0.21845 0.14739,0.34405 0.15284,0.12562 0.41486,0.12562 0.33298,0 0.595,-0.1966 0.26201,-0.1966 0.26201,-0.4642 z m 3.72283,-2.42474 v 3.88832 h -0.43669 v -0.41505 q -0.26748,0.4915 -0.92798,0.4915 -0.60045,0 -0.95526,-0.39866 -0.34937,-0.40412 -0.34937,-1.09222 0,-0.63895 0.32752,-1.05946 0.33298,-0.42597 0.95528,-0.42597 0.6059,0 0.92251,0.45874 v -1.4472 z m -1.32645,1.38712 q -0.39849,0 -0.63322,0.28945 -0.22926,0.28943 -0.22926,0.7864 0,0.51334 0.23472,0.81917 0.24019,0.30036 0.63867,0.30036 0.40395,0 0.63321,-0.28944 0.22925,-0.2949 0.22925,-0.81371 0,-0.4642 -0.21833,-0.77548 -0.2129,-0.31675 -0.65504,-0.31675 z m 4.35602,-0.31674 -1.20635,3.17837 q -0.071,0.19114 -0.12558,0.2949 -0.0491,0.10922 -0.14748,0.23483 -0.0927,0.13108 -0.22927,0.18568 -0.13105,0.0601 -0.31113,0.0601 -0.13653,0 -0.34391,-0.0492 v -0.41504 q 0.20198,0.0601 0.30023,0.0601 0.22927,0 0.32752,-0.23483 l 0.21836,-0.51334 -1.11904,-2.80156 h 0.52403 l 0.83519,2.24452 0.7915,-2.24452 z"
       id="text3"
       style="font-size:2.99067px;line-height:1.25;font-family:HelveticaNeueCyr;-inkscape-font-specification:HelveticaNeueCyr;stroke-width:0.264584"
       aria-label="ready" />
    <path
       style="fill:none;stroke:#000000;stroke-width:0.464999;stroke-linecap:butt;stroke-linejoin:miter;stroke-dasharray:none;stroke-opacity:1;marker-end:url(#Triangle)"
       d="M 84.74335,123.62765 147.97183,73.291505"
       id="path3"
       sodipodi:nodetypes="cc" />
    <path
       d="m 105.73664,108.86083 0.25099,0.31673 q -0.10767,0.0575 -0.21462,0.14226 -0.17114,0.1356 -0.18266,0.23532 -0.007,0.0963 0.1386,0.28037 l 0.20011,0.25254 0.42355,-0.33563 0.23742,0.29961 -0.42356,0.33563 1.5127,1.90898 -0.36793,0.29155 -1.5127,-1.90898 -0.37221,0.29495 -0.23742,-0.29962 0.37221,-0.29495 -0.23402,-0.29534 q -0.23742,-0.29961 -0.18855,-0.55434 0.0455,-0.25901 0.34925,-0.49971 0.0941,-0.0746 0.24885,-0.16938 z m 0.66135,-0.51015 0.35274,0.44515 -0.36793,0.29155 -0.35274,-0.44515 z m 0.66477,0.83892 1.75011,2.2086 -0.36793,0.29155 -1.75011,-2.2086 z m 0.25935,-1.5712 0.90558,1.14282 q -0.0487,-0.55367 0.4433,-0.94354 0.4535,-0.35936 0.97402,-0.25621 0.5214,0.0955 0.93858,0.62196 0.42396,0.53503 0.40026,1.07641 -0.0237,0.54138 -0.48578,0.90752 -0.52623,0.41698 -1.03684,0.19449 l 0.25437,0.32102 -0.34227,0.27121 -2.41488,-3.04751 z m 1.53746,0.55153 q -0.35082,0.278 -0.32184,0.66614 0.0333,0.38474 0.32494,0.75284 0.30865,0.3895 0.67576,0.47486 0.36801,0.0777 0.6846,-0.17319 0.30376,-0.2407 0.30118,-0.62189 -0.002,-0.38887 -0.31372,-0.78265 -0.30864,-0.3895 -0.67576,-0.47485 -0.36712,-0.0854 -0.67516,0.15874 z m 4.38898,-1.42236 q 0.44365,0.90266 -0.35212,1.53323 -0.48773,0.38648 -1.00663,0.30295 -0.51462,-0.0869 -0.94197,-0.62623 -0.42396,-0.53503 -0.40276,-1.08836 0.0221,-0.561 0.47989,-0.92375 0.50911,-0.40343 1.02771,-0.24997 0.51947,0.14579 0.93665,0.67226 l 0.0407,0.0513 -1.65999,1.31539 0.0165,0.0288 q 0.27811,0.35098 0.6215,0.40637 0.34337,0.0554 0.66424,-0.19886 0.23959,-0.18986 0.28832,-0.40963 0.053,-0.22317 -0.0667,-0.53244 z m -0.82905,-0.32552 q -0.27661,-0.29642 -0.58257,-0.33967 -0.30931,-0.0475 -0.58312,0.16942 -0.26526,0.21019 -0.29822,0.52897 -0.033,0.31876 0.18041,0.65834 z m 1.15267,-2.47417 0.29847,0.37666 q -0.0416,0.0266 -0.0972,0.0707 -0.17541,0.139 -0.25967,0.29636 -0.0877,0.15304 -0.0968,0.29968 -0.005,0.14324 0.0498,0.30895 0.0546,0.16573 0.13932,0.30768 0.0889,0.13859 0.21777,0.30123 l 0.7394,0.93309 -0.36366,0.28817 -1.75011,-2.20859 0.34654,-0.27461 0.37648,0.4751 q -0.19899,-0.69937 0.39998,-1.174 z m 1.85073,1.43904 0.37648,0.4751 -0.4749,0.37632 -0.37648,-0.4751 z m 1.08639,-3.68284 1.02846,3.24032 q 0.0631,0.19391 0.0848,0.3091 0.0293,0.11609 0.0303,0.27559 0.009,0.16036 -0.0644,0.28791 -0.0654,0.12847 -0.20654,0.24035 -0.10696,0.0847 -0.30009,0.17502 l -0.25777,-0.3253 q 0.19563,-0.0783 0.27263,-0.13935 0.1797,-0.14239 0.11086,-0.38746 l -0.14769,-0.53796 -2.61698,-1.50076 0.41071,-0.32545 2.04857,1.24047 -0.77363,-2.25075 z m 0.0326,-1.39152 0.35273,0.44514 -0.36793,0.29156 -0.35274,-0.44515 z m 0.66477,0.83892 1.75011,2.20859 -0.36794,0.29156 -1.75011,-2.20859 z m 3.64874,-0.43165 q 0.44365,0.90265 -0.35212,1.53323 -0.48773,0.38648 -1.00662,0.30294 -0.51463,-0.0869 -0.94198,-0.62623 -0.42396,-0.53502 -0.40276,-1.08835 0.0221,-0.561 0.47989,-0.923748 0.50911,-0.403429 1.0277,-0.249968 0.51948,0.145784 0.93666,0.672256 l 0.0407,0.0513 -1.65998,1.31538 0.0165,0.0288 q 0.27811,0.35098 0.6215,0.40637 0.34337,0.0554 0.66425,-0.19887 0.23958,-0.18985 0.28831,-0.40962 0.053,-0.22316 -0.0667,-0.53243 z m -0.82906,-0.32551 q -0.27661,-0.29643 -0.58256,-0.33967 -0.30931,-0.0476 -0.58312,0.16941 -0.26526,0.21019 -0.29822,0.52896 -0.0329,0.31877 0.18042,0.65834 z m -0.23721,-2.654909 2.41489,3.047519 -0.36794,0.29155 -2.41489,-3.047512 z m 2.55415,-2.023932 2.41488,3.047519 -0.34226,0.271211 -0.25776,-0.325293 q 0.0956,0.551341 -0.42207,0.961551 -0.47061,0.372913 -0.99629,0.280827 -0.5248,-0.09977 -0.95215,-0.639081 -0.39683,-0.500785 -0.40129,-1.033775 -0.004,-0.540652 0.48415,-0.927132 0.47489,-0.376307 1.00794,-0.213406 l -0.8988,-1.134261 z m -0.17814,1.910993 q -0.31231,0.24748 -0.31652,0.620108 7e-5,0.369243 0.30871,0.758741 0.31882,0.402337 0.69273,0.496253 0.37479,0.08624 0.6871,-0.161236 0.3166,-0.250877 0.31653,-0.620114 -0.003,-0.373516 -0.32568,-0.78014 -0.28829,-0.363814 -0.65275,-0.472189 -0.36357,-0.116031 -0.71012,0.158577 z m 1.55873,-3.095566 q 0.12628,1.328342 0.99456,2.424081 0.82757,1.044371 2.10884,1.492325 l -0.27808,0.220358 q -0.77391,-0.264706 -1.27905,-0.568179 -0.50424,-0.311144 -0.92481,-0.841892 -0.8581,-1.082901 -0.89954,-2.506334 z m 2.41835,1.302818 q 0.42057,0.530748 0.60395,1.096154 0.18426,0.557735 0.26507,1.371652 l -0.27809,0.220365 q -0.14324,-1.349746 -0.97081,-2.394117 -0.86827,-1.095739 -2.13259,-1.522288 l 0.2781,-0.220365 q 1.37627,0.365698 2.23437,1.448599 z"
       id="text4"
       style="font-size:2.99067px;line-height:1.25;font-family:HelveticaNeueCyr;-inkscape-font-specification:HelveticaNeueCyr;stroke-width:0.264584"
       aria-label="fiber.yield()" />
    <g
       id="g21"
       transform="matrix(1.8252395,0,0,1.8260535,-14.493603,-10.285447)"
       style="stroke-width:0.547751">
      <g
         id="g11"
         transform="matrix(0.61583537,0,0,0.61583537,0.59411585,-1.1184032)"
         style="stroke-width:0.889444">
        <path
           id="circle11"
           style="fill:none;stroke:#a5a5a5;stroke-width:0.413592"
           d="m 54.908519,43.633358 a 9.1199179,9.1199179 0 0 1 -9.119918,9.119918 9.1199179,9.1199179 0 0 1 -9.119918,-9.119918 9.1199179,9.1199179 0 0 1 9.119918,-9.119918 9.1199179,9.1199179 0 0 1 9.119918,9.119918 z" />
        <path
           d="m 39.748939,43.305878 h -0.254207 q -0.02392,-0.281123 -0.376825,-0.281123 -0.146542,0 -0.230281,0.05682 -0.08374,0.05682 -0.08374,0.152524 0,0.02692 0.006,0.05383 0.006,0.02392 0.02094,0.04486 0.01794,0.01794 0.02991,0.0329 0.01495,0.01495 0.04486,0.02991 0.0329,0.01196 0.04785,0.02094 0.01794,0.009 0.05981,0.02093 0.04486,0.009 0.0628,0.01495 0.01794,0.003 0.06879,0.01495 0.05383,0.01196 0.06878,0.01495 0.110655,0.02393 0.164487,0.03888 0.05682,0.01495 0.152524,0.05682 0.09869,0.03888 0.149533,0.08374 0.05084,0.04187 0.08972,0.119626 0.04187,0.07477 0.04187,0.170469 0,0.2243 -0.17645,0.361871 -0.173458,0.13458 -0.463553,0.13458 -0.314021,0 -0.484489,-0.137571 -0.167478,-0.137571 -0.17944,-0.397759 h 0.251216 q 0.02093,0.325983 0.418694,0.325983 0.170468,0 0.272151,-0.06879 0.104673,-0.07178 0.104673,-0.188413 0,-0.07776 -0.05383,-0.128598 -0.05383,-0.05084 -0.119627,-0.07178 -0.06579,-0.02392 -0.188412,-0.05383 -0.01794,-0.003 -0.02692,-0.006 -0.02692,-0.006 -0.116636,-0.02392 -0.08673,-0.02094 -0.125608,-0.0329 -0.03888,-0.01196 -0.113646,-0.03589 -0.07178,-0.02692 -0.107664,-0.05383 -0.03589,-0.02991 -0.08075,-0.07178 -0.04187,-0.04486 -0.05981,-0.101683 -0.01794,-0.05981 -0.01794,-0.13458 0,-0.209347 0.158505,-0.331964 0.161497,-0.122618 0.430657,-0.122618 0.272151,0 0.442619,0.128599 0.173459,0.128599 0.173459,0.364862 z m 1.629915,-0.448601 v 1.543186 h -0.236263 v -0.242244 q -0.197384,0.284113 -0.532339,0.284113 -0.245235,0 -0.379815,-0.13458 -0.13458,-0.13458 -0.13458,-0.388787 v -1.061688 h 0.254207 v 0.992903 q 0,0.182431 0.06878,0.278132 0.07178,0.09271 0.254207,0.09271 0.451591,0 0.451591,-0.556265 v -0.807481 z m 1.528232,0.448601 h -0.254207 q -0.02393,-0.281123 -0.376825,-0.281123 -0.146542,0 -0.230281,0.05682 -0.08374,0.05682 -0.08374,0.152524 0,0.02692 0.006,0.05383 0.006,0.02392 0.02094,0.04486 0.01794,0.01794 0.02991,0.0329 0.01495,0.01495 0.04486,0.02991 0.0329,0.01196 0.04785,0.02094 0.01794,0.009 0.05981,0.02093 0.04486,0.009 0.0628,0.01495 0.01794,0.003 0.06879,0.01495 0.05383,0.01196 0.06879,0.01495 0.110655,0.02393 0.164487,0.03888 0.05682,0.01495 0.152524,0.05682 0.09869,0.03888 0.149533,0.08374 0.05084,0.04187 0.08972,0.119626 0.04187,0.07477 0.04187,0.170469 0,0.2243 -0.17645,0.361871 -0.173459,0.13458 -0.463554,0.13458 -0.31402,0 -0.484488,-0.137571 -0.167478,-0.137571 -0.17944,-0.397759 h 0.251216 q 0.02093,0.325983 0.418694,0.325983 0.170468,0 0.272151,-0.06879 0.104673,-0.07178 0.104673,-0.188413 0,-0.07776 -0.05383,-0.128598 -0.05383,-0.05084 -0.119627,-0.07178 -0.06579,-0.02392 -0.188412,-0.05383 -0.01794,-0.003 -0.02692,-0.006 -0.02692,-0.006 -0.116636,-0.02392 -0.08673,-0.02094 -0.125608,-0.0329 -0.03888,-0.01196 -0.113646,-0.03589 -0.07178,-0.02692 -0.107664,-0.05383 -0.03589,-0.02991 -0.08075,-0.07178 -0.04187,-0.04486 -0.05981,-0.101683 -0.01794,-0.05981 -0.01794,-0.13458 0,-0.209347 0.158505,-0.331964 0.161496,-0.122618 0.430657,-0.122618 0.272151,0 0.442619,0.128599 0.173459,0.128599 0.173459,0.364862 z m 0.589161,-0.448601 v 0.218319 q 0.167478,-0.266169 0.520377,-0.266169 0.322992,0 0.511404,0.218319 0.191403,0.218318 0.191403,0.592152 0,0.373834 -0.188412,0.598134 -0.185421,0.22131 -0.502432,0.22131 -0.331965,0 -0.517386,-0.254207 v 0.810471 h -0.254207 v -2.138329 z m 0.481498,0.164487 q -0.221309,0 -0.349908,0.161496 -0.125608,0.158506 -0.125608,0.439629 0,0.281123 0.128598,0.442619 0.13159,0.158506 0.35589,0.158506 0.218319,0 0.343927,-0.161497 0.125608,-0.161496 0.125608,-0.439628 0,-0.281123 -0.128598,-0.439629 -0.125609,-0.161496 -0.349909,-0.161496 z m 2.371603,0.89122 q -0.116636,0.53832 -0.672901,0.53832 -0.340936,0 -0.53533,-0.212337 -0.191402,-0.212338 -0.191402,-0.589162 0,-0.373834 0.197384,-0.604115 0.200375,-0.233273 0.520376,-0.233273 0.35589,0 0.526358,0.242245 0.173459,0.239253 0.173459,0.607106 v 0.03589 h -1.16038 l -0.003,0.01794 q 0,0.245235 0.128598,0.385796 0.128599,0.140562 0.352899,0.140562 0.167478,0 0.263179,-0.07776 0.09869,-0.07776 0.152525,-0.251216 z m -0.245235,-0.421685 q -0.01794,-0.221309 -0.13458,-0.343927 -0.116636,-0.125608 -0.308039,-0.125608 -0.185421,0 -0.308039,0.125608 -0.122617,0.125609 -0.146543,0.343927 z m 0.771595,-0.634022 v 0.239254 q 0.191403,-0.281123 0.526358,-0.281123 0.272151,0 0.391777,0.143552 0.122618,0.140562 0.122618,0.415703 v 1.0258 h -0.254207 v -0.909164 q 0,-0.113645 -0.009,-0.176449 -0.006,-0.0658 -0.03589,-0.137571 -0.02991,-0.07477 -0.101683,-0.107664 -0.07178,-0.0329 -0.185421,-0.0329 -0.439629,0 -0.439629,0.556264 v 0.807481 h -0.254207 v -1.543186 z m 2.81422,-0.586171 v 2.129357 h -0.239254 v -0.227291 q -0.146543,0.26916 -0.508414,0.26916 -0.328973,0 -0.523367,-0.218318 -0.191403,-0.22131 -0.191403,-0.598134 0,-0.349909 0.17944,-0.58019 0.182431,-0.233273 0.523368,-0.233273 0.331964,0 0.505423,0.251217 v -0.792528 z m -0.726733,0.75963 q -0.218319,0 -0.346918,0.158506 -0.125608,0.158505 -0.125608,0.430656 0,0.281123 0.128599,0.448601 0.131589,0.164487 0.349908,0.164487 0.22131,0 0.346918,-0.158506 0.125608,-0.161496 0.125608,-0.44561 0,-0.254207 -0.119627,-0.424675 -0.116636,-0.173459 -0.35888,-0.173459 z m 2.428425,0.882248 q -0.116636,0.53832 -0.672901,0.53832 -0.340936,0 -0.53533,-0.212337 -0.191403,-0.212338 -0.191403,-0.589162 0,-0.373834 0.197384,-0.604115 0.200375,-0.233273 0.520377,-0.233273 0.35589,0 0.526358,0.242245 0.173459,0.239253 0.173459,0.607106 v 0.03589 h -1.16038 l -0.003,0.01794 q 0,0.245235 0.128599,0.385796 0.128599,0.140562 0.352899,0.140562 0.167478,0 0.263179,-0.07776 0.09869,-0.07776 0.152524,-0.251216 z m -0.245235,-0.421685 q -0.01794,-0.221309 -0.13458,-0.343927 -0.116636,-0.125608 -0.308039,-0.125608 -0.185422,0 -0.308039,0.125608 -0.122618,0.125609 -0.146543,0.343927 z m 1.923003,-1.220193 v 2.129357 h -0.239253 v -0.227291 q -0.146543,0.26916 -0.508414,0.26916 -0.328974,0 -0.523368,-0.218318 -0.191402,-0.22131 -0.191402,-0.598134 0,-0.349909 0.17944,-0.58019 0.182431,-0.233273 0.523367,-0.233273 0.331964,0 0.505423,0.251217 v -0.792528 z m -0.726733,0.75963 q -0.218319,0 -0.346917,0.158506 -0.125608,0.158505 -0.125608,0.430656 0,0.281123 0.128598,0.448601 0.13159,0.164487 0.349909,0.164487 0.221309,0 0.346917,-0.158506 0.125609,-0.161496 0.125609,-0.44561 0,-0.254207 -0.119627,-0.424675 -0.116636,-0.173459 -0.358881,-0.173459 z"
           id="text11"
           style="font-size:2.99067px;line-height:1.25;font-family:HelveticaNeueCyr;-inkscape-font-specification:HelveticaNeueCyr;stroke-width:0.235332"
           aria-label="suspended" />
      </g>
      <g
         id="g12"
         transform="matrix(0.61583537,0,0,0.61583537,16.980124,-1.1184032)"
         style="stroke-width:0.889444">
        <path
           id="circle12"
           style="fill:none;stroke:#a5a5a5;stroke-width:0.413592"
           d="m 54.908519,43.633358 a 9.1199179,9.1199179 0 0 1 -9.119918,9.119918 9.1199179,9.1199179 0 0 1 -9.119918,-9.119918 9.1199179,9.1199179 0 0 1 9.119918,-9.119918 9.1199179,9.1199179 0 0 1 9.119918,9.119918 z" />
        <path
           d="m 39.748939,43.305878 h -0.254207 q -0.02392,-0.281123 -0.376825,-0.281123 -0.146542,0 -0.230281,0.05682 -0.08374,0.05682 -0.08374,0.152524 0,0.02692 0.006,0.05383 0.006,0.02392 0.02094,0.04486 0.01794,0.01794 0.02991,0.0329 0.01495,0.01495 0.04486,0.02991 0.0329,0.01196 0.04785,0.02094 0.01794,0.009 0.05981,0.02093 0.04486,0.009 0.0628,0.01495 0.01794,0.003 0.06879,0.01495 0.05383,0.01196 0.06878,0.01495 0.110655,0.02393 0.164487,0.03888 0.05682,0.01495 0.152524,0.05682 0.09869,0.03888 0.149533,0.08374 0.05084,0.04187 0.08972,0.119626 0.04187,0.07477 0.04187,0.170469 0,0.2243 -0.17645,0.361871 -0.173458,0.13458 -0.463553,0.13458 -0.314021,0 -0.484489,-0.137571 -0.167478,-0.137571 -0.17944,-0.397759 h 0.251216 q 0.02093,0.325983 0.418694,0.325983 0.170468,0 0.272151,-0.06879 0.104673,-0.07178 0.104673,-0.188413 0,-0.07776 -0.05383,-0.128598 -0.05383,-0.05084 -0.119627,-0.07178 -0.06579,-0.02392 -0.188412,-0.05383 -0.01794,-0.003 -0.02692,-0.006 -0.02692,-0.006 -0.116636,-0.02392 -0.08673,-0.02094 -0.125608,-0.0329 -0.03888,-0.01196 -0.113646,-0.03589 -0.07178,-0.02692 -0.107664,-0.05383 -0.03589,-0.02991 -0.08075,-0.07178 -0.04187,-0.04486 -0.05981,-0.101683 -0.01794,-0.05981 -0.01794,-0.13458 0,-0.209347 0.158505,-0.331964 0.161497,-0.122618 0.430657,-0.122618 0.272151,0 0.442619,0.128599 0.173459,0.128599 0.173459,0.364862 z m 1.629915,-0.448601 v 1.543186 h -0.236263 v -0.242244 q -0.197384,0.284113 -0.532339,0.284113 -0.245235,0 -0.379815,-0.13458 -0.13458,-0.13458 -0.13458,-0.388787 v -1.061688 h 0.254207 v 0.992903 q 0,0.182431 0.06878,0.278132 0.07178,0.09271 0.254207,0.09271 0.451591,0 0.451591,-0.556265 v -0.807481 z m 1.528232,0.448601 h -0.254207 q -0.02393,-0.281123 -0.376825,-0.281123 -0.146542,0 -0.230281,0.05682 -0.08374,0.05682 -0.08374,0.152524 0,0.02692 0.006,0.05383 0.006,0.02392 0.02094,0.04486 0.01794,0.01794 0.02991,0.0329 0.01495,0.01495 0.04486,0.02991 0.0329,0.01196 0.04785,0.02094 0.01794,0.009 0.05981,0.02093 0.04486,0.009 0.0628,0.01495 0.01794,0.003 0.06879,0.01495 0.05383,0.01196 0.06879,0.01495 0.110655,0.02393 0.164487,0.03888 0.05682,0.01495 0.152524,0.05682 0.09869,0.03888 0.149533,0.08374 0.05084,0.04187 0.08972,0.119626 0.04187,0.07477 0.04187,0.170469 0,0.2243 -0.17645,0.361871 -0.173459,0.13458 -0.463554,0.13458 -0.31402,0 -0.484488,-0.137571 -0.167478,-0.137571 -0.17944,-0.397759 h 0.251216 q 0.02093,0.325983 0.418694,0.325983 0.170468,0 0.272151,-0.06879 0.104673,-0.07178 0.104673,-0.188413 0,-0.07776 -0.05383,-0.128598 -0.05383,-0.05084 -0.119627,-0.07178 -0.06579,-0.02392 -0.188412,-0.05383 -0.01794,-0.003 -0.02692,-0.006 -0.02692,-0.006 -0.116636,-0.02392 -0.08673,-0.02094 -0.125608,-0.0329 -0.03888,-0.01196 -0.113646,-0.03589 -0.07178,-0.02692 -0.107664,-0.05383 -0.03589,-0.02991 -0.08075,-0.07178 -0.04187,-0.04486 -0.05981,-0.101683 -0.01794,-0.05981 -0.01794,-0.13458 0,-0.209347 0.158505,-0.331964 0.161496,-0.122618 0.430657,-0.122618 0.272151,0 0.442619,0.128599 0.173459,0.128599 0.173459,0.364862 z m 0.589161,-0.448601 v 0.218319 q 0.167478,-0.266169 0.520377,-0.266169 0.322992,0 0.511404,0.218319 0.191403,0.218318 0.191403,0.592152 0,0.373834 -0.188412,0.598134 -0.185421,0.22131 -0.502432,0.22131 -0.331965,0 -0.517386,-0.254207 v 0.810471 h -0.254207 v -2.138329 z m 0.481498,0.164487 q -0.221309,0 -0.349908,0.161496 -0.125608,0.158506 -0.125608,0.439629 0,0.281123 0.128598,0.442619 0.13159,0.158506 0.35589,0.158506 0.218319,0 0.343927,-0.161497 0.125608,-0.161496 0.125608,-0.439628 0,-0.281123 -0.128598,-0.439629 -0.125609,-0.161496 -0.349909,-0.161496 z m 2.371603,0.89122 q -0.116636,0.53832 -0.672901,0.53832 -0.340936,0 -0.53533,-0.212337 -0.191402,-0.212338 -0.191402,-0.589162 0,-0.373834 0.197384,-0.604115 0.200375,-0.233273 0.520376,-0.233273 0.35589,0 0.526358,0.242245 0.173459,0.239253 0.173459,0.607106 v 0.03589 h -1.16038 l -0.003,0.01794 q 0,0.245235 0.128598,0.385796 0.128599,0.140562 0.352899,0.140562 0.167478,0 0.263179,-0.07776 0.09869,-0.07776 0.152525,-0.251216 z m -0.245235,-0.421685 q -0.01794,-0.221309 -0.13458,-0.343927 -0.116636,-0.125608 -0.308039,-0.125608 -0.185421,0 -0.308039,0.125608 -0.122617,0.125609 -0.146543,0.343927 z m 0.771595,-0.634022 v 0.239254 q 0.191403,-0.281123 0.526358,-0.281123 0.272151,0 0.391777,0.143552 0.122618,0.140562 0.122618,0.415703 v 1.0258 h -0.254207 v -0.909164 q 0,-0.113645 -0.009,-0.176449 -0.006,-0.0658 -0.03589,-0.137571 -0.02991,-0.07477 -0.101683,-0.107664 -0.07178,-0.0329 -0.185421,-0.0329 -0.439629,0 -0.439629,0.556264 v 0.807481 h -0.254207 v -1.543186 z m 2.81422,-0.586171 v 2.129357 h -0.239254 v -0.227291 q -0.146543,0.26916 -0.508414,0.26916 -0.328973,0 -0.523367,-0.218318 -0.191403,-0.22131 -0.191403,-0.598134 0,-0.349909 0.17944,-0.58019 0.182431,-0.233273 0.523368,-0.233273 0.331964,0 0.505423,0.251217 v -0.792528 z m -0.726733,0.75963 q -0.218319,0 -0.346918,0.158506 -0.125608,0.158505 -0.125608,0.430656 0,0.281123 0.128599,0.448601 0.131589,0.164487 0.349908,0.164487 0.22131,0 0.346918,-0.158506 0.125608,-0.161496 0.125608,-0.44561 0,-0.254207 -0.119627,-0.424675 -0.116636,-0.173459 -0.35888,-0.173459 z m 2.428425,0.882248 q -0.116636,0.53832 -0.672901,0.53832 -0.340936,0 -0.53533,-0.212337 -0.191403,-0.212338 -0.191403,-0.589162 0,-0.373834 0.197384,-0.604115 0.200375,-0.233273 0.520377,-0.233273 0.35589,0 0.526358,0.242245 0.173459,0.239253 0.173459,0.607106 v 0.03589 h -1.16038 l -0.003,0.01794 q 0,0.245235 0.128599,0.385796 0.128599,0.140562 0.352899,0.140562 0.167478,0 0.263179,-0.07776 0.09869,-0.07776 0.152524,-0.251216 z m -0.245235,-0.421685 q -0.01794,-0.221309 -0.13458,-0.343927 -0.116636,-0.125608 -0.308039,-0.125608 -0.185422,0 -0.308039,0.125608 -0.122618,0.125609 -0.146543,0.343927 z m 1.923003,-1.220193 v 2.129357 h -0.239253 v -0.227291 q -0.146543,0.26916 -0.508414,0.26916 -0.328974,0 -0.523368,-0.218318 -0.191402,-0.22131 -0.191402,-0.598134 0,-0.349909 0.17944,-0.58019 0.182431,-0.233273 0.523367,-0.233273 0.331964,0 0.505423,0.251217 v -0.792528 z m -0.726733,0.75963 q -0.218319,0 -0.346917,0.158506 -0.125608,0.158505 -0.125608,0.430656 0,0.281123 0.128598,0.448601 0.13159,0.164487 0.349909,0.164487 0.221309,0 0.346917,-0.158506 0.125609,-0.161496 0.125609,-0.44561 0,-0.254207 -0.119627,-0.424675 -0.116636,-0.173459 -0.358881,-0.173459 z"
           id="text12"
           style="font-size:2.99067px;line-height:1.25;font-family:HelveticaNeueCyr;-inkscape-font-specification:HelveticaNeueCyr;stroke-width:0.235332"
           aria-label="suspended" />
      </g>
      <g
         id="g13"
         transform="matrix(0.61583537,0,0,0.61583537,33.366133,-1.1184032)"
         style="stroke-width:0.889444">
        <path
           id="circle13"
           style="fill:none;stroke:#a5a5a5;stroke-width:0.413592"
           d="m 54.908519,43.633358 a 9.1199179,9.1199179 0 0 1 -9.119918,9.119918 9.1199179,9.1199179 0 0 1 -9.119918,-9.119918 9.1199179,9.1199179 0 0 1 9.119918,-9.119918 9.1199179,9.1199179 0 0 1 9.119918,9.119918 z" />
        <path
           d="m 39.748939,43.305878 h -0.254207 q -0.02392,-0.281123 -0.376825,-0.281123 -0.146542,0 -0.230281,0.05682 -0.08374,0.05682 -0.08374,0.152524 0,0.02692 0.006,0.05383 0.006,0.02392 0.02094,0.04486 0.01794,0.01794 0.02991,0.0329 0.01495,0.01495 0.04486,0.02991 0.0329,0.01196 0.04785,0.02094 0.01794,0.009 0.05981,0.02093 0.04486,0.009 0.0628,0.01495 0.01794,0.003 0.06879,0.01495 0.05383,0.01196 0.06878,0.01495 0.110655,0.02393 0.164487,0.03888 0.05682,0.01495 0.152524,0.05682 0.09869,0.03888 0.149533,0.08374 0.05084,0.04187 0.08972,0.119626 0.04187,0.07477 0.04187,0.170469 0,0.2243 -0.17645,0.361871 -0.173458,0.13458 -0.463553,0.13458 -0.314021,0 -0.484489,-0.137571 -0.167478,-0.137571 -0.17944,-0.397759 h 0.251216 q 0.02093,0.325983 0.418694,0.325983 0.170468,0 0.272151,-0.06879 0.104673,-0.07178 0.104673,-0.188413 0,-0.07776 -0.05383,-0.128598 -0.05383,-0.05084 -0.119627,-0.07178 -0.06579,-0.02392 -0.188412,-0.05383 -0.01794,-0.003 -0.02692,-0.006 -0.02692,-0.006 -0.116636,-0.02392 -0.08673,-0.02094 -0.125608,-0.0329 -0.03888,-0.01196 -0.113646,-0.03589 -0.07178,-0.02692 -0.107664,-0.05383 -0.03589,-0.02991 -0.08075,-0.07178 -0.04187,-0.04486 -0.05981,-0.101683 -0.01794,-0.05981 -0.01794,-0.13458 0,-0.209347 0.158505,-0.331964 0.161497,-0.122618 0.430657,-0.122618 0.272151,0 0.442619,0.128599 0.173459,0.128599 0.173459,0.364862 z m 1.629915,-0.448601 v 1.543186 h -0.236263 v -0.242244 q -0.197384,0.284113 -0.532339,0.284113 -0.245235,0 -0.379815,-0.13458 -0.13458,-0.13458 -0.13458,-0.388787 v -1.061688 h 0.254207 v 0.992903 q 0,0.182431 0.06878,0.278132 0.07178,0.09271 0.254207,0.09271 0.451591,0 0.451591,-0.556265 v -0.807481 z m 1.528232,0.448601 h -0.254207 q -0.02393,-0.281123 -0.376825,-0.281123 -0.146542,0 -0.230281,0.05682 -0.08374,0.05682 -0.08374,0.152524 0,0.02692 0.006,0.05383 0.006,0.02392 0.02094,0.04486 0.01794,0.01794 0.02991,0.0329 0.01495,0.01495 0.04486,0.02991 0.0329,0.01196 0.04785,0.02094 0.01794,0.009 0.05981,0.02093 0.04486,0.009 0.0628,0.01495 0.01794,0.003 0.06879,0.01495 0.05383,0.01196 0.06879,0.01495 0.110655,0.02393 0.164487,0.03888 0.05682,0.01495 0.152524,0.05682 0.09869,0.03888 0.149533,0.08374 0.05084,0.04187 0.08972,0.119626 0.04187,0.07477 0.04187,0.170469 0,0.2243 -0.17645,0.361871 -0.173459,0.13458 -0.463554,0.13458 -0.31402,0 -0.484488,-0.137571 -0.167478,-0.137571 -0.17944,-0.397759 h 0.251216 q 0.02093,0.325983 0.418694,0.325983 0.170468,0 0.272151,-0.06879 0.104673,-0.07178 0.104673,-0.188413 0,-0.07776 -0.05383,-0.128598 -0.05383,-0.05084 -0.119627,-0.07178 -0.06579,-0.02392 -0.188412,-0.05383 -0.01794,-0.003 -0.02692,-0.006 -0.02692,-0.006 -0.116636,-0.02392 -0.08673,-0.02094 -0.125608,-0.0329 -0.03888,-0.01196 -0.113646,-0.03589 -0.07178,-0.02692 -0.107664,-0.05383 -0.03589,-0.02991 -0.08075,-0.07178 -0.04187,-0.04486 -0.05981,-0.101683 -0.01794,-0.05981 -0.01794,-0.13458 0,-0.209347 0.158505,-0.331964 0.161496,-0.122618 0.430657,-0.122618 0.272151,0 0.442619,0.128599 0.173459,0.128599 0.173459,0.364862 z m 0.589161,-0.448601 v 0.218319 q 0.167478,-0.266169 0.520377,-0.266169 0.322992,0 0.511404,0.218319 0.191403,0.218318 0.191403,0.592152 0,0.373834 -0.188412,0.598134 -0.185421,0.22131 -0.502432,0.22131 -0.331965,0 -0.517386,-0.254207 v 0.810471 h -0.254207 v -2.138329 z m 0.481498,0.164487 q -0.221309,0 -0.349908,0.161496 -0.125608,0.158506 -0.125608,0.439629 0,0.281123 0.128598,0.442619 0.13159,0.158506 0.35589,0.158506 0.218319,0 0.343927,-0.161497 0.125608,-0.161496 0.125608,-0.439628 0,-0.281123 -0.128598,-0.439629 -0.125609,-0.161496 -0.349909,-0.161496 z m 2.371603,0.89122 q -0.116636,0.53832 -0.672901,0.53832 -0.340936,0 -0.53533,-0.212337 -0.191402,-0.212338 -0.191402,-0.589162 0,-0.373834 0.197384,-0.604115 0.200375,-0.233273 0.520376,-0.233273 0.35589,0 0.526358,0.242245 0.173459,0.239253 0.173459,0.607106 v 0.03589 h -1.16038 l -0.003,0.01794 q 0,0.245235 0.128598,0.385796 0.128599,0.140562 0.352899,0.140562 0.167478,0 0.263179,-0.07776 0.09869,-0.07776 0.152525,-0.251216 z m -0.245235,-0.421685 q -0.01794,-0.221309 -0.13458,-0.343927 -0.116636,-0.125608 -0.308039,-0.125608 -0.185421,0 -0.308039,0.125608 -0.122617,0.125609 -0.146543,0.343927 z m 0.771595,-0.634022 v 0.239254 q 0.191403,-0.281123 0.526358,-0.281123 0.272151,0 0.391777,0.143552 0.122618,0.140562 0.122618,0.415703 v 1.0258 h -0.254207 v -0.909164 q 0,-0.113645 -0.009,-0.176449 -0.006,-0.0658 -0.03589,-0.137571 -0.02991,-0.07477 -0.101683,-0.107664 -0.07178,-0.0329 -0.185421,-0.0329 -0.439629,0 -0.439629,0.556264 v 0.807481 h -0.254207 v -1.543186 z m 2.81422,-0.586171 v 2.129357 h -0.239254 v -0.227291 q -0.146543,0.26916 -0.508414,0.26916 -0.328973,0 -0.523367,-0.218318 -0.191403,-0.22131 -0.191403,-0.598134 0,-0.349909 0.17944,-0.58019 0.182431,-0.233273 0.523368,-0.233273 0.331964,0 0.505423,0.251217 v -0.792528 z m -0.726733,0.75963 q -0.218319,0 -0.346918,0.158506 -0.125608,0.158505 -0.125608,0.430656 0,0.281123 0.128599,0.448601 0.131589,0.164487 0.349908,0.164487 0.22131,0 0.346918,-0.158506 0.125608,-0.161496 0.125608,-0.44561 0,-0.254207 -0.119627,-0.424675 -0.116636,-0.173459 -0.35888,-0.173459 z m 2.428425,0.882248 q -0.116636,0.53832 -0.672901,0.53832 -0.340936,0 -0.53533,-0.212337 -0.191403,-0.212338 -0.191403,-0.589162 0,-0.373834 0.197384,-0.604115 0.200375,-0.233273 0.520377,-0.233273 0.35589,0 0.526358,0.242245 0.173459,0.239253 0.173459,0.607106 v 0.03589 h -1.16038 l -0.003,0.01794 q 0,0.245235 0.128599,0.385796 0.128599,0.140562 0.352899,0.140562 0.167478,0 0.263179,-0.07776 0.09869,-0.07776 0.152524,-0.251216 z m -0.245235,-0.421685 q -0.01794,-0.221309 -0.13458,-0.343927 -0.116636,-0.125608 -0.308039,-0.125608 -0.185422,0 -0.308039,0.125608 -0.122618,0.125609 -0.146543,0.343927 z m 1.923003,-1.220193 v 2.129357 h -0.239253 v -0.227291 q -0.146543,0.26916 -0.508414,0.26916 -0.328974,0 -0.523368,-0.218318 -0.191402,-0.22131 -0.191402,-0.598134 0,-0.349909 0.17944,-0.58019 0.182431,-0.233273 0.523367,-0.233273 0.331964,0 0.505423,0.251217 v -0.792528 z m -0.726733,0.75963 q -0.218319,0 -0.346917,0.158506 -0.125608,0.158505 -0.125608,0.430656 0,0.281123 0.128598,0.448601 0.13159,0.164487 0.349909,0.164487 0.221309,0 0.346917,-0.158506 0.125609,-0.161496 0.125609,-0.44561 0,-0.254207 -0.119627,-0.424675 -0.116636,-0.173459 -0.358881,-0.173459 z"
           id="text13"
           style="font-size:2.99067px;line-height:1.25;font-family:HelveticaNeueCyr;-inkscape-font-specification:HelveticaNeueCyr;stroke-width:0.235332"
           aria-label="suspended" />
      </g>
    </g>
    <path
       id="rect13"
       style="fill:none;stroke:#a5a5a5;stroke-width:0.464999;stroke-dasharray:1.395, 0.464999"
       d="m 23.866679,19.332328 h 88.744911 c 2.67542,0 4.82928,2.15482 4.82928,4.831433 v 64.687647 c 0,2.676613 -2.15386,4.831433 -4.82928,4.831433 H 23.866679 c -2.67542,0 -4.829279,-2.15482 -4.829279,-4.831433 V 24.163761 c 0,-2.676613 2.153859,-4.831433 4.829279,-4.831433 z" />
    <path
       style="fill:none;stroke:#000000;stroke-width:0.464999;stroke-linecap:butt;stroke-linejoin:miter;stroke-dasharray:none;stroke-opacity:1;marker-end:url(#Triangle)"
       d="M 67.949615,108.66711 V 89.161916"
       id="path4"
       sodipodi:nodetypes="cc" />
    <path
       d="m 50.263245,12.222881 v 0.452724 H 48.06134 v 1.231186 h 2.058421 v 0.436162 H 48.06134 v 1.358169 h 2.229497 v 0.452724 H 47.542596 V 12.222881 Z M 50.555729,13.305 H 51.07999 L 51.8857,15.695602 52.669336,13.305 h 0.49115 l -1.043006,2.848846 h -0.502189 z m 5.468888,1.94892 q -0.215223,0.993784 -1.241674,0.993784 -0.629116,0 -0.987821,-0.391994 -0.35319,-0.391991 -0.35319,-1.087639 0,-0.690128 0.364225,-1.115246 0.369744,-0.43064 0.960229,-0.43064 0.656709,0 0.971267,0.447202 0.320076,0.441683 0.320076,1.120768 v 0.06625 h -2.1412 l -0.0055,0.03313 q 0,0.452724 0.237299,0.712212 0.237298,0.259488 0.651189,0.259488 0.309038,0 0.485632,-0.143546 0.182123,-0.143546 0.281447,-0.463767 z m -0.452521,-0.778463 q -0.03311,-0.408556 -0.248334,-0.634917 -0.215225,-0.231883 -0.568413,-0.231883 -0.34215,0 -0.56841,0.231883 -0.226261,0.231883 -0.27041,0.634917 z M 56.995887,13.305 v 0.441683 q 0.353188,-0.518976 0.971267,-0.518976 0.502189,0 0.72293,0.265008 0.226262,0.259488 0.226262,0.767423 v 1.893708 h -0.469078 v -1.678389 q 0,-0.209799 -0.01661,-0.325741 -0.01095,-0.121469 -0.06622,-0.253965 -0.05518,-0.138032 -0.187631,-0.198757 -0.132439,-0.06073 -0.34215,-0.06073 -0.811228,0 -0.811228,1.026911 v 1.490675 h -0.469077 v -2.848846 z m 3.846433,0 v 0.386472 h -0.568412 v 1.661827 q 0,0.138032 0,0.182186 0.0055,0.04417 0.03311,0.121469 0.0276,0.07178 0.09382,0.09386 0.06622,0.02208 0.187631,0.02208 0.10486,0 0.253854,-0.01662 v 0.403033 q -0.198668,0.02208 -0.358707,0.02208 -0.198668,0 -0.331113,-0.04417 -0.132439,-0.04417 -0.204186,-0.09937 -0.06622,-0.0552 -0.09933,-0.193236 -0.03311,-0.143546 -0.03862,-0.237404 -0.0055,-0.09937 -0.0055,-0.32574 0,-0.04969 0,-0.0773 v -1.512759 h -0.480115 v -0.386472 h 0.480115 V 12.46022 h 0.469076 v 0.844716 z m 2.549575,-1.082119 v 3.930965 H 62.9173 v -3.930965 z m 0.954712,1.40786 q 0.375262,-0.408556 1.020933,-0.408556 0.645671,0 1.004378,0.391994 0.358705,0.391991 0.358705,1.098681 0,0.723254 -0.358705,1.126288 -0.358707,0.403034 -1.009896,0.403034 -0.651191,0 -1.020933,-0.397514 -0.369744,-0.397512 -0.369744,-1.104203 0,-0.701168 0.375262,-1.109724 z m 1.661086,0.287092 q -0.237299,-0.303654 -0.65119,-0.303654 -0.413892,0 -0.656709,0.303654 -0.242815,0.303656 -0.242815,0.81159 0,0.524497 0.237297,0.822631 0.242816,0.292614 0.673264,0.292614 0.413891,0 0.645671,-0.298134 0.237298,-0.298134 0.237298,-0.822632 0,-0.507933 -0.242816,-0.806069 z m 1.506562,-0.287092 q 0.375262,-0.408556 1.020933,-0.408556 0.645671,0 1.004377,0.391994 0.358707,0.391991 0.358707,1.098681 0,0.723254 -0.358707,1.126288 -0.358706,0.403034 -1.009896,0.403034 -0.651189,0 -1.020932,-0.397514 -0.369744,-0.397512 -0.369744,-1.104203 0,-0.701168 0.375262,-1.109724 z m 1.661085,0.287092 q -0.237298,-0.303654 -0.651189,-0.303654 -0.413891,0 -0.656708,0.303654 -0.242818,0.303656 -0.242818,0.81159 0,0.524497 0.2373,0.822631 0.242815,0.292614 0.673263,0.292614 0.413892,0 0.645671,-0.298134 0.237298,-0.298134 0.237298,-0.822632 0,-0.507933 -0.242817,-0.806069 z M 70.897127,13.305 v 0.403036 q 0.309038,-0.491371 0.960229,-0.491371 0.596004,0 0.943672,0.403034 0.353188,0.403034 0.353188,1.093161 0,0.690128 -0.347668,1.104204 -0.34215,0.408556 -0.927118,0.408556 -0.612559,0 -0.954709,-0.469287 v 1.496195 H 70.455643 V 13.305 Z m 0.888488,0.303657 q -0.408374,0 -0.645671,0.298134 -0.23178,0.292614 -0.23178,0.811591 0,0.518976 0.237297,0.81711 0.242817,0.292614 0.656709,0.292614 0.402856,0 0.634634,-0.298134 0.23178,-0.298136 0.23178,-0.81159 0,-0.518977 -0.237298,-0.811591 -0.23178,-0.298134 -0.645671,-0.298134 z m 4.607996,-1.457549 q -0.733969,1.131808 -0.733969,2.54519 0,1.347127 0.733969,2.506541 h -0.358707 q -0.447003,-0.695647 -0.656709,-1.253271 -0.204185,-0.563144 -0.204185,-1.24775 0,-1.396818 0.860894,-2.55071 z m 0.794678,0.07176 v 3.930965 h -0.474597 v -3.930965 z m 1.225117,0 v 0.574186 h -0.474595 v -0.574186 z m 0,1.082119 v 2.848846 h -0.474595 v -2.848846 z m 1.192011,-1.082119 v 1.474113 q 0.309039,-0.469287 0.943673,-0.469287 0.584967,0 0.932635,0.408554 0.353188,0.403036 0.353188,1.082121 0,0.690126 -0.358706,1.104204 -0.358707,0.414076 -0.954709,0.414076 -0.678783,0 -0.943675,-0.496893 v 0.414077 H 79.13634 v -3.930965 z m 0.871932,1.402338 q -0.452523,0 -0.673265,0.32574 -0.215223,0.325741 -0.215223,0.800548 0,0.502413 0.237297,0.800547 0.242817,0.292614 0.651191,0.292614 0.391817,0 0.629114,-0.303654 0.242817,-0.309179 0.242817,-0.817112 0,-0.502413 -0.237297,-0.800547 -0.237298,-0.298136 -0.634634,-0.298136 z m 4.370698,1.628701 q -0.215223,0.993784 -1.241674,0.993784 -0.629116,0 -0.987821,-0.391994 -0.353188,-0.391991 -0.353188,-1.087639 0,-0.690128 0.364225,-1.115246 0.369742,-0.43064 0.960228,-0.43064 0.656708,0 0.971266,0.447202 0.320076,0.441683 0.320076,1.120768 v 0.06625 h -2.1412 l -0.0055,0.03313 q 0,0.452724 0.237299,0.712212 0.237298,0.259488 0.651189,0.259488 0.309039,0 0.485632,-0.143546 0.182123,-0.143547 0.281447,-0.463767 z m -0.45252,-0.778463 q -0.03311,-0.408556 -0.248335,-0.634917 -0.215225,-0.231884 -0.568413,-0.231884 -0.34215,0 -0.56841,0.231884 -0.226261,0.231883 -0.27041,0.634917 z m 0.706378,-1.170457 h 0.524264 l 0.80571,2.390602 0.783633,-2.390602 h 0.491152 l -1.043007,2.848846 h -0.502188 z m 3.835396,1.396818 q 0,0.684606 -0.209705,1.24775 -0.204186,0.557623 -0.651189,1.253271 H 87.7177 q 0.733969,-1.159414 0.733969,-2.506541 0,-1.413382 -0.733969,-2.54519 h 0.358707 q 0.860894,1.153892 0.860894,2.55071 z"
       id="text14"
       style="font-size:3.02347px;line-height:1.25;font-family:HelveticaNeueCyr;-inkscape-font-specification:HelveticaNeueCyr;stroke-width:0.264584"
       aria-label="Event loop (libev)" />
    <path
       id="rect14"
       style="fill:none;stroke:#a5a5a5;stroke-width:0.465001;stroke-dasharray:1.395, 0.465001"
       d="m 139.05645,45.888918 h 52.2867 c 2.67542,0 4.82928,2.15482 4.82928,4.831435 v 94.074987 c 0,2.67662 -2.15386,4.83144 -4.82928,4.83144 h -52.2867 c -2.67542,0 -4.82928,-2.15482 -4.82928,-4.83144 V 50.720353 c 0,-2.676615 2.15386,-4.831435 4.82928,-4.831435 z" />
    <path
       d="m 160.94637,42.149796 -0.27041,0.325739 -0.59601,-0.480327 q -0.40837,0.237403 -0.96023,0.237403 -0.88296,0 -1.37964,-0.59627 -0.49115,-0.59627 -0.49115,-1.507237 0,-0.910969 0.51323,-1.457549 0.51322,-0.552102 1.3686,-0.552102 0.87193,0 1.37412,0.54658 0.50771,0.54106 0.50771,1.490675 0,1.021388 -0.58497,1.57901 z m -1.42379,-1.13733 0.51874,0.425118 q 0.45252,-0.452722 0.45252,-1.269834 0,-0.723254 -0.36974,-1.159414 -0.36974,-0.44168 -0.9823,-0.44168 -0.65671,0 -1.01542,0.458244 -0.3587,0.452722 -0.3587,1.126288 0,0.701168 0.34767,1.170455 0.35318,0.469286 1.03749,0.469286 0.31455,0 0.53529,-0.110421 l -0.44148,-0.347823 z m 4.42036,-1.722558 v 2.848846 h -0.43596 v -0.447202 q -0.36423,0.524495 -0.98231,0.524495 -0.45252,0 -0.70085,-0.248445 -0.24834,-0.248446 -0.24834,-0.717733 v -1.959961 h 0.46908 v 1.832978 q 0,0.336782 0.12693,0.513455 0.13244,0.171156 0.46907,0.171156 0.83331,0 0.83331,-1.02691 v -1.490676 z m 3.14006,1.948919 q -0.21522,0.993784 -1.24167,0.993784 -0.62912,0 -0.98783,-0.391993 -0.35318,-0.391992 -0.35318,-1.08764 0,-0.690127 0.36422,-1.115245 0.36974,-0.43064 0.96023,-0.43064 0.65671,0 0.97126,0.447202 0.32008,0.441682 0.32008,1.120768 v 0.06625 h -2.1412 l -0.005,0.03312 q 0,0.452724 0.23729,0.712212 0.2373,0.259487 0.65119,0.259487 0.30904,0 0.48564,-0.143546 0.1821,-0.143546 0.28144,-0.463766 z m -0.45252,-0.778463 q -0.0331,-0.408555 -0.24834,-0.634917 -0.21522,-0.231883 -0.56841,-0.231883 -0.34215,0 -0.56841,0.231883 -0.22626,0.231884 -0.27041,0.634917 z m 3.34425,-1.170456 v 2.848846 h -0.43596 v -0.447202 q -0.36423,0.524495 -0.98231,0.524495 -0.45253,0 -0.70086,-0.248445 -0.24834,-0.248446 -0.24834,-0.717733 v -1.959961 h 0.46909 v 1.832978 q 0,0.336782 0.12685,0.513455 0.13252,0.171156 0.46907,0.171156 0.83331,0 0.83331,-1.02691 v -1.490676 z m 3.14005,1.948919 q -0.21522,0.993784 -1.24168,0.993784 -0.6291,0 -0.98782,-0.391993 -0.35318,-0.391992 -0.35318,-1.08764 0,-0.690127 0.36423,-1.115245 0.36973,-0.43064 0.96022,-0.43064 0.65672,0 0.97126,0.447202 0.32009,0.441682 0.32009,1.120768 v 0.06625 h -2.1412 l -0.005,0.03312 q 0,0.452724 0.23728,0.712212 0.2373,0.259487 0.65119,0.259487 0.30905,0 0.48565,-0.143546 0.18215,-0.143546 0.28145,-0.463766 z m -0.45252,-0.778463 q -0.033,-0.408555 -0.24834,-0.634917 -0.21521,-0.231883 -0.5684,-0.231883 -0.34216,0 -0.56841,0.231883 -0.22626,0.231884 -0.27041,0.634917 z"
       id="text15"
       style="font-size:3.02347px;line-height:1.25;font-family:HelveticaNeueCyr;-inkscape-font-specification:HelveticaNeueCyr;stroke-width:0.264584"
       aria-label="Queue" />
    <path
       d="m 71.788888,97.841621 v 0.404124 q -0.120083,-0.02184 -0.256558,-0.02184 -0.218348,0 -0.289311,0.071 -0.06551,0.071 -0.06551,0.305822 v 0.322208 h 0.540409 v 0.382278 h -0.540409 v 2.435657 h -0.469443 v -2.435664 h -0.474907 v -0.382279 h 0.474907 V 98.54611 q 0,-0.382279 0.196513,-0.551574 0.196512,-0.174753 0.584078,-0.174753 0.120083,0 0.300229,0.02184 z m 0.835176,0.01096 v 0.567957 h -0.469446 v -0.567957 z m 0,1.070381 v 2.817938 h -0.469446 v -2.817973 z m 1.179078,-1.070381 v 1.45812 q 0.305687,-0.464196 0.933436,-0.464196 0.578621,0 0.922518,0.404124 0.349356,0.398662 0.349356,1.070381 0,0.68264 -0.354815,1.09222 -0.354814,0.40959 -0.944352,0.40959 -0.67142,0 -0.933436,-0.49151 v 0.40959 h -0.436696 v -3.888319 z m 0.862473,1.387126 q -0.447613,0 -0.665961,0.322206 -0.212889,0.322207 -0.212889,0.791857 0,0.49696 0.234724,0.79186 0.240184,0.28945 0.644126,0.28945 0.387567,0 0.622291,-0.30037 0.240182,-0.30582 0.240182,-0.80824 0,-0.496962 -0.234724,-0.791862 -0.234724,-0.294901 -0.627749,-0.294901 z m 4.323284,1.611023 q -0.212889,0.98301 -1.228206,0.98301 -0.62229,0 -0.977105,-0.38774 -0.349356,-0.38774 -0.349356,-1.07584 0,-0.68264 0.360274,-1.103148 0.365733,-0.425967 0.949811,-0.425967 0.649585,0 0.96073,0.442351 0.316604,0.43689 0.316604,1.108604 v 0.0655 H 76.90368 l -0.0055,0.0328 q 0,0.44781 0.234724,0.70448 0.234724,0.25668 0.644125,0.25668 0.305687,0 0.480365,-0.142 0.180133,-0.14199 0.278392,-0.45873 z m -0.447613,-0.77001 q -0.03275,-0.404124 -0.245641,-0.628029 -0.212888,-0.229367 -0.562244,-0.229367 -0.33844,0 -0.562245,0.229367 -0.223808,0.229367 -0.267476,0.628029 z m 2.440037,-1.223291 v 0.480579 q -0.04914,-0.0055 -0.120083,-0.0055 -0.223807,0 -0.387567,0.071 -0.163761,0.06554 -0.262017,0.174754 -0.0928,0.109216 -0.152846,0.273057 -0.06005,0.163831 -0.08188,0.327661 -0.01643,0.16383 -0.01643,0.37136 v 1.19052 h -0.46394 v -2.817951 h 0.442153 v 0.606184 q 0.278395,-0.671717 1.04261,-0.671717 z m 0.556793,2.277281 v 0.60619 h -0.605914 v -0.60619 z m 2.898564,-1.39258 h -0.463988 q -0.04368,-0.513346 -0.687796,-0.513346 -0.267476,0 -0.420318,0.103756 -0.152846,0.103757 -0.152846,0.278517 0,0.04916 0.01095,0.0983 0.01095,0.0437 0.03822,0.08192 0.03275,0.03276 0.05459,0.06008 0.02729,0.0273 0.08188,0.05462 0.06005,0.02184 0.08734,0.03824 0.03275,0.01644 0.109168,0.03822 0.08188,0.01643 0.114625,0.0273 0.03274,0.005 0.125558,0.0273 0.09825,0.0218 0.125558,0.0273 0.20197,0.0437 0.300226,0.071 0.10371,0.0273 0.278395,0.10376 0.180133,0.071 0.272934,0.15291 0.0928,0.0765 0.16376,0.21845 0.07642,0.13653 0.07642,0.31128 0,0.40959 -0.322064,0.6608 -0.316604,0.24575 -0.846097,0.24575 -0.573161,0 -0.884306,-0.25121 -0.305688,-0.25121 -0.327523,-0.72633 h 0.458531 q 0.0382,0.59526 0.764217,0.59526 0.311145,0 0.496741,-0.1256 0.191053,-0.13107 0.191053,-0.34405 0,-0.14199 -0.09825,-0.23482 -0.09825,-0.0928 -0.218348,-0.13108 -0.120082,-0.0437 -0.343897,-0.0983 -0.03274,-0.005 -0.04913,-0.0109 -0.04914,-0.011 -0.212889,-0.0437 -0.158303,-0.0382 -0.229264,-0.0601 -0.07097,-0.0218 -0.207432,-0.0655 -0.131015,-0.0492 -0.196512,-0.0983 -0.06551,-0.0546 -0.147388,-0.13107 -0.07642,-0.0819 -0.109168,-0.185691 -0.03274,-0.109216 -0.03274,-0.24575 0,-0.382279 0.28931,-0.606186 0.294769,-0.223906 0.78605,-0.223906 0.496741,0 0.807888,0.234829 0.316604,0.234827 0.316604,0.666256 z m 1.129948,-1.889549 v 3.888319 h -0.469447 v -3.888319 z m 3.127829,2.998149 q -0.212889,0.98301 -1.228204,0.98301 -0.622292,0 -0.977106,-0.38774 -0.349356,-0.38774 -0.349356,-1.07584 0,-0.68264 0.360273,-1.103148 0.365733,-0.425967 0.949813,-0.425967 0.649582,0 0.960729,0.442351 0.316603,0.43689 0.316603,1.108604 v 0.0655 h -2.11797 l -0.0055,0.0328 q 0,0.44781 0.234724,0.70448 0.234722,0.25668 0.644126,0.25668 0.305685,0 0.480364,-0.142 0.180133,-0.14199 0.278393,-0.45873 z m -0.447611,-0.77001 q -0.03275,-0.404124 -0.245643,-0.628029 -0.212888,-0.229367 -0.562245,-0.229367 -0.338437,0 -0.562245,0.229367 -0.223805,0.229367 -0.267474,0.628029 z m 3.378932,0.77001 q -0.212888,0.98301 -1.228205,0.98301 -0.62229,0 -0.977106,-0.38774 -0.349356,-0.38774 -0.349356,-1.07584 0,-0.68264 0.360273,-1.103148 0.365733,-0.425967 0.949813,-0.425967 0.649584,0 0.960729,0.442351 0.316604,0.43689 0.316604,1.108604 v 0.0655 h -2.117971 l -0.0055,0.0328 q 0,0.44781 0.234724,0.70448 0.234724,0.25668 0.644126,0.25668 0.305687,0 0.480364,-0.142 0.180133,-0.14199 0.278393,-0.45873 z m -0.447612,-0.77001 q -0.03275,-0.404124 -0.245641,-0.628029 -0.212889,-0.229367 -0.562245,-0.229367 -0.338439,0 -0.562245,0.229367 -0.223807,0.229367 -0.267476,0.628029 z m 1.408344,-1.157758 v 0.398662 q 0.305687,-0.486041 0.949812,-0.486041 0.589538,0 0.933435,0.398663 0.349356,0.398662 0.349356,1.081304 0,0.68263 -0.343897,1.09222 -0.338437,0.40412 -0.917058,0.40412 -0.605916,0 -0.944354,-0.46419 v 1.47996 h -0.463988 v -3.904733 z m 0.878849,0.300362 q -0.403942,0 -0.638666,0.2949 -0.229265,0.289439 -0.229265,0.802786 0,0.51334 0.234722,0.80824 0.240184,0.28944 0.649585,0.28944 0.398484,0 0.627749,-0.2949 0.229265,-0.2949 0.229265,-0.80278 0,-0.513347 -0.234722,-0.802786 -0.229267,-0.2949 -0.638668,-0.2949 z m 3.040491,-1.441737 q -0.726005,1.11953 -0.726005,2.517573 0,1.33252 0.726005,2.47935 h -0.354816 q -0.442153,-0.6881 -0.649582,-1.23967 -0.201972,-0.55704 -0.201972,-1.23422 0,-1.381658 0.851554,-2.523033 z m 1.501145,1.141375 v 0.382279 H 97.44475 v 1.643789 q 0,0.13654 0,0.18022 0.0055,0.0437 0.03274,0.12013 0.02729,0.071 0.0928,0.0928 0.06551,0.0218 0.185595,0.0218 0.103711,0 0.251099,-0.0164 v 0.39866 q -0.196513,0.0218 -0.354814,0.0218 -0.196513,0 -0.327521,-0.0437 -0.131016,-0.0437 -0.201972,-0.0983 -0.06551,-0.0546 -0.09825,-0.19113 -0.03274,-0.142 -0.03822,-0.23483 -0.0055,-0.0983 -0.0055,-0.32221 0,-0.0492 0,-0.0765 v -1.496294 h -0.474872 v -0.382279 h 0.474905 v -0.835552 h 0.463989 v 0.835552 z m 1.30463,1.381658 q 0,0.67718 -0.207432,1.23422 -0.20197,0.55157 -0.644125,1.23967 h -0.354813 q 0.726005,-1.14683 0.726005,-2.47935 0,-1.398043 -0.726005,-2.517573 h 0.354813 q 0.851557,1.141375 0.851557,2.523033 z"
       id="text16"
       style="font-size:2.99067px;line-height:1.25;font-family:HelveticaNeueCyr;-inkscape-font-specification:HelveticaNeueCyr;stroke-width:0.264584"
       aria-label="fiber.sleep(t)" />
    <path
       style="fill:none;stroke:#000000;stroke-width:0.464999;stroke-linecap:butt;stroke-linejoin:miter;stroke-dasharray:none;stroke-opacity:1;marker-end:url(#Triangle)"
       d="m 150.62073,131.00714 -65.296664,0"
       id="path16"
       sodipodi:nodetypes="cc" />
    <path
       d="m 107.34368,134.36652 h -0.46399 q -0.0437,-0.51334 -0.68779,-0.51334 -0.26748,0 -0.42032,0.10375 -0.15285,0.10376 -0.15285,0.27852 0,0.0492 0.011,0.0983 0.011,0.0437 0.0382,0.0819 0.0327,0.0327 0.0546,0.0601 0.0273,0.0273 0.0819,0.0546 0.0601,0.0218 0.0873,0.0382 0.0327,0.0164 0.10917,0.0382 0.0819,0.0164 0.11462,0.0273 0.0328,0.005 0.12556,0.0273 0.0982,0.0218 0.12556,0.0273 0.20197,0.0437 0.30023,0.071 0.10371,0.0273 0.27839,0.10376 0.18013,0.071 0.27293,0.15291 0.0928,0.0765 0.16376,0.21845 0.0764,0.13653 0.0764,0.31128 0,0.40959 -0.32207,0.6608 -0.3166,0.24575 -0.84609,0.24575 -0.57317,0 -0.88431,-0.25121 -0.30569,-0.25122 -0.32752,-0.72633 h 0.45853 q 0.0382,0.59526 0.76421,0.59526 0.31115,0 0.49674,-0.1256 0.19106,-0.13107 0.19106,-0.34405 0,-0.14199 -0.0983,-0.23483 -0.0983,-0.0928 -0.21835,-0.13107 -0.12009,-0.0437 -0.3439,-0.0983 -0.0327,-0.005 -0.0491,-0.0109 -0.0491,-0.011 -0.21288,-0.0437 -0.15831,-0.0382 -0.22927,-0.0601 -0.071,-0.0218 -0.20743,-0.0655 -0.13102,-0.0491 -0.19651,-0.0983 -0.0655,-0.0546 -0.14739,-0.13108 -0.0764,-0.0819 -0.10917,-0.18567 -0.0327,-0.10922 -0.0327,-0.24575 0,-0.38228 0.28931,-0.60619 0.29477,-0.22391 0.78605,-0.22391 0.49674,0 0.80788,0.23483 0.31661,0.23483 0.31661,0.66626 z m 3.06233,0.97208 q -0.0601,0.50789 -0.38757,0.80825 -0.32206,0.30036 -0.84064,0.30036 -0.63867,0 -0.98802,-0.3932 -0.34936,-0.39866 -0.34936,-1.05946 0,-0.70448 0.36573,-1.11407 0.36574,-0.41504 0.98803,-0.41504 0.51857,0 0.82972,0.26213 0.31114,0.25668 0.36573,0.73725 h -0.48036 q -0.12556,-0.61164 -0.70963,-0.61164 -0.40395,0 -0.63867,0.30036 -0.23472,0.2949 -0.23472,0.80278 0,0.51335 0.2238,0.80825 0.22381,0.2949 0.61683,0.2949 0.31661,0 0.51312,-0.18568 0.20197,-0.18567 0.25656,-0.53519 z m 0.97165,-2.86162 v 1.46904 q 0.31114,-0.46966 0.92251,-0.46966 0.94982,0 0.94982,0.96116 v 1.92777 H 112.786 v -1.81855 q 0,-0.3222 -0.13647,-0.4915 -0.13102,-0.17475 -0.48037,-0.17475 -0.42578,0 -0.61137,0.27305 -0.18013,0.27306 -0.18013,0.78095 v 1.43081 h -0.46399 v -3.88832 z m 4.97832,2.99815 q -0.21289,0.98301 -1.22821,0.98301 -0.62229,0 -0.9771,-0.38775 -0.34936,-0.38774 -0.34936,-1.07584 0,-0.68264 0.36028,-1.10314 0.36573,-0.42597 0.94981,-0.42597 0.64958,0 0.96073,0.44235 0.3166,0.43689 0.3166,1.10861 v 0.0655 h -2.11797 l -0.005,0.0327 q 0,0.44782 0.23473,0.70449 0.23472,0.25667 0.64412,0.25667 0.30569,0 0.48037,-0.14199 0.18013,-0.142 0.27839,-0.45874 z m -0.44761,-0.77002 q -0.0328,-0.40412 -0.24564,-0.62803 -0.21289,-0.22936 -0.56225,-0.22936 -0.33844,0 -0.56224,0.22936 -0.22381,0.22937 -0.26748,0.62803 z m 3.50994,-2.22813 v 3.88831 h -0.4367 v -0.41504 q -0.26747,0.4915 -0.92798,0.4915 -0.60045,0 -0.95527,-0.39866 -0.34935,-0.40412 -0.34935,-1.09223 0,-0.63895 0.32752,-1.05945 0.33298,-0.42597 0.95527,-0.42597 0.60591,0 0.92252,0.45873 v -1.44719 z m -1.32646,1.38712 q -0.39849,0 -0.63321,0.28944 -0.22927,0.28944 -0.22927,0.7864 0,0.51335 0.23473,0.81917 0.24018,0.30036 0.63866,0.30036 0.40395,0 0.63321,-0.28944 0.22927,-0.2949 0.22927,-0.81371 0,-0.46419 -0.21835,-0.77547 -0.21289,-0.31675 -0.65504,-0.31675 z m 4.36149,-0.31675 v 2.81794 h -0.43124 v -0.44235 q -0.36027,0.51881 -0.97164,0.51881 -0.44762,0 -0.69326,-0.24575 -0.24564,-0.24575 -0.24564,-0.70995 v -1.9387 h 0.46399 v 1.8131 q 0,0.33313 0.12556,0.50788 0.13102,0.1693 0.46399,0.1693 0.82426,0 0.82426,-1.01577 v -1.47451 z m 1.18999,-1.07037 v 3.88831 h -0.46944 v -3.88831 z m 3.12783,2.99815 q -0.21289,0.98301 -1.2282,0.98301 -0.62229,0 -0.97711,-0.38775 -0.34935,-0.38774 -0.34935,-1.07584 0,-0.68264 0.36027,-1.10314 0.36573,-0.42597 0.94981,-0.42597 0.64959,0 0.96073,0.44235 0.3166,0.43689 0.3166,1.10861 v 0.0655 h -2.11797 l -0.005,0.0327 q 0,0.44782 0.23472,0.70449 0.23472,0.25667 0.64413,0.25667 0.30568,0 0.48036,-0.14199 0.18013,-0.142 0.27839,-0.45874 z m -0.44761,-0.77002 q -0.0327,-0.40412 -0.24564,-0.62803 -0.21289,-0.22936 -0.56225,-0.22936 -0.33843,0 -0.56224,0.22936 -0.22381,0.22937 -0.26748,0.62803 z"
       id="text17"
       style="font-size:2.99067px;line-height:1.25;font-family:HelveticaNeueCyr;-inkscape-font-specification:HelveticaNeueCyr;stroke-width:0.264584"
       aria-label="schedule" />
    <path
       style="fill:none;stroke:#000000;stroke-width:0.464999;stroke-linecap:butt;stroke-linejoin:miter;stroke-dasharray:none;stroke-opacity:1;marker-end:url(#Triangle)"
       d="M 84.791613,70.720939 H 147.81379"
       id="path17"
       sodipodi:nodetypes="cc" />
    <path
       d="m 91.584537,65.869889 h 0.513117 l 0.644125,2.320978 0.573164,-2.320978 H 93.8226 l 0.594997,2.320978 0.638666,-2.320978 h 0.480365 l -0.900683,2.81794 h -0.491283 l -0.578621,-2.22814 -0.573162,2.22814 h -0.5022 z m 6.888863,2.446583 v 0.360433 q -0.141931,0.05462 -0.316604,0.05462 -0.398485,0 -0.409402,-0.415046 -0.398484,0.447812 -1.020774,0.447812 -0.41486,0 -0.660501,-0.212983 -0.240183,-0.212984 -0.240183,-0.584341 0,-0.753634 0.99894,-0.879241 0.589538,-0.071 0.682335,-0.103756 0.196515,-0.06554 0.212891,-0.273058 0.0055,-0.03276 0.0055,-0.071 0,-0.464196 -0.638666,-0.464196 -0.327521,0 -0.49674,0.136534 -0.169218,0.131074 -0.201972,0.436891 h -0.45309 q 0.01095,-0.453274 0.322063,-0.704486 0.311145,-0.251212 0.857014,-0.251212 0.594997,0 0.884308,0.273057 0.0928,0.08738 0.136474,0.229367 0.04368,0.141994 0.04913,0.234828 0.0055,0.08738 0.0055,0.267596 0,0.212983 -0.01095,0.633489 -0.01095,0.415045 -0.01095,0.622569 0,0.152914 0.03822,0.218445 0.04368,0.06008 0.152846,0.06008 0.04368,0 0.114625,-0.01643 z m -0.747841,-1.092225 q -0.04914,0.03824 -0.10371,0.06554 -0.05459,0.0273 -0.141931,0.04368 -0.08188,0.01643 -0.114625,0.0273 -0.02729,0.0055 -0.14193,0.02184 -0.114644,0.01096 -0.120101,0.01096 -0.169218,0.02184 -0.223807,0.03276 -0.04914,0.0055 -0.196513,0.04368 -0.141931,0.03824 -0.201972,0.08738 -0.06005,0.04916 -0.120082,0.147454 -0.05459,0.09284 -0.05459,0.223905 0,0.218445 0.147388,0.344052 0.152845,0.125596 0.41486,0.125596 0.332981,0 0.594997,-0.1966 0.262017,-0.1966 0.262017,-0.464196 z m 3.553611,-1.354358 -1.11903,1.021229 1.20091,1.796711 h -0.58954 l -0.966187,-1.474504 -0.442154,0.409584 v 1.06492 h -0.453071 v -3.88832 h 0.453071 v 2.299133 l 1.293711,-1.228753 z m 2.87126,1.927775 q -0.21288,0.983003 -1.2282,0.983003 -0.62229,0 -0.97711,-0.38774 -0.34935,-0.387739 -0.34935,-1.075842 0,-0.682639 0.36027,-1.103146 0.36573,-0.425967 0.94981,-0.425967 0.64959,0 0.96073,0.44235 0.31661,0.436891 0.31661,1.108608 v 0.06554 h -2.11797 l -0.005,0.03276 q 0,0.447812 0.23472,0.704486 0.23473,0.256672 0.64413,0.256672 0.30569,0 0.48036,-0.141994 0.18014,-0.141994 0.2784,-0.458736 z m -0.44761,-0.770017 q -0.0327,-0.404124 -0.24564,-0.628029 -0.21289,-0.229367 -0.56224,-0.229367 -0.33844,0 -0.56225,0.229367 -0.22381,0.229367 -0.26747,0.628029 z m 4.82549,-1.157758 v 2.81794 h -0.43124 v -0.442352 q -0.36027,0.518807 -0.97165,0.518807 -0.44761,0 -0.69325,-0.24575 -0.24564,-0.245751 -0.24564,-0.709946 v -1.938699 h 0.46399 v 1.813092 q 0,0.333129 0.12556,0.507886 0.13101,0.169293 0.46399,0.169293 0.82426,0 0.82426,-1.015768 v -1.474503 z m 1.1354,0 v 0.398662 q 0.30569,-0.486041 0.94981,-0.486041 0.58954,0 0.93344,0.398662 0.34936,0.398663 0.34936,1.081303 0,0.682639 -0.3439,1.092225 -0.33844,0.404122 -0.91706,0.404122 -0.60592,0 -0.94435,-0.464195 v 1.479965 h -0.46399 v -3.904703 z m 0.87885,0.300362 q -0.40394,0 -0.63867,0.2949 -0.22926,0.289439 -0.22926,0.802784 0,0.513346 0.23472,0.808248 0.24019,0.289439 0.64959,0.289439 0.39848,0 0.62775,-0.294901 0.22926,-0.2949 0.22926,-0.802786 0,-0.513345 -0.23472,-0.802784 -0.22927,-0.2949 -0.63867,-0.2949 z"
       id="text18"
       style="font-size:2.99067px;line-height:1.25;font-family:HelveticaNeueCyr;-inkscape-font-specification:HelveticaNeueCyr;stroke-width:0.264584"
       aria-label="wake up" />
    <g
       id="g19"
       transform="matrix(1.1240471,0,0,1.1245484,-23.899218,76.554037)"
       style="stroke-width:0.889444">
      <g
         id="g20"
         transform="translate(2.2889389,-0.1745543)"
         style="stroke-width:0.889444">
        <path
           id="circle18"
           style="fill:none;stroke:#a5a5a5;stroke-width:0.413592"
           d="m 54.148692,43.686325 a 9.1199179,9.1199179 0 0 1 -9.119918,9.119918 9.1199179,9.1199179 0 0 1 -9.119918,-9.119918 9.1199179,9.1199179 0 0 1 9.119918,-9.119918 9.1199179,9.1199179 0 0 1 9.119918,9.119918 z" />
        <path
           d="m 43.267268,42.596225 v 2.129357 h -0.239254 v -0.227291 q -0.146542,0.269161 -0.508414,0.269161 -0.328973,0 -0.523367,-0.218319 -0.191403,-0.22131 -0.191403,-0.598134 0,-0.349909 0.179441,-0.58019 0.18243,-0.233273 0.523367,-0.233273 0.331964,0 0.505423,0.251217 v -0.792528 z m -0.726733,0.75963 q -0.218319,0 -0.346918,0.158506 -0.125608,0.158505 -0.125608,0.430656 0,0.281123 0.128599,0.448601 0.13159,0.164487 0.349909,0.164487 0.221309,0 0.346917,-0.158506 0.125608,-0.161496 0.125608,-0.44561 0,-0.254207 -0.119626,-0.424675 -0.116637,-0.173459 -0.358881,-0.173459 z m 2.428425,0.882248 q -0.116636,0.538321 -0.6729,0.538321 -0.340937,0 -0.53533,-0.212338 -0.191403,-0.212338 -0.191403,-0.589162 0,-0.373834 0.197384,-0.604115 0.200375,-0.233273 0.520377,-0.233273 0.355889,0 0.526358,0.242245 0.173458,0.239253 0.173458,0.607106 v 0.03589 h -1.16038 l -0.003,0.01794 q 0,0.245235 0.128599,0.385796 0.128598,0.140562 0.352899,0.140562 0.167477,0 0.263179,-0.07776 0.09869,-0.07776 0.152524,-0.251216 z m -0.245235,-0.421685 q -0.01794,-0.221309 -0.13458,-0.343927 -0.116636,-0.125608 -0.308039,-0.125608 -0.185421,0 -0.308039,0.125608 -0.122617,0.125609 -0.146543,0.343927 z m 1.899078,0.705799 v 0.197384 q -0.07776,0.02991 -0.173459,0.02991 -0.218319,0 -0.2243,-0.22729 -0.218319,0.245235 -0.559255,0.245235 -0.227291,0 -0.361872,-0.116637 -0.131589,-0.116636 -0.131589,-0.320001 0,-0.412713 0.547293,-0.481498 0.322992,-0.03888 0.373833,-0.05682 0.107664,-0.03589 0.116636,-0.149533 0.003,-0.01794 0.003,-0.03888 0,-0.254207 -0.349908,-0.254207 -0.17944,0 -0.272151,0.07477 -0.09271,0.07178 -0.110655,0.239253 H 45.23215 q 0.006,-0.248225 0.17645,-0.385796 0.170468,-0.137571 0.469535,-0.137571 0.325983,0 0.484489,0.149534 0.05084,0.04785 0.07477,0.125608 0.02393,0.07776 0.02692,0.128598 0.003,0.04785 0.003,0.146543 0,0.116636 -0.006,0.346918 -0.006,0.227291 -0.006,0.340936 0,0.08374 0.02094,0.119627 0.02392,0.0329 0.08374,0.0329 0.02393,0 0.0628,-0.009 z m -0.409722,-0.598134 q -0.02692,0.02093 -0.05682,0.03589 -0.02991,0.01495 -0.07776,0.02392 -0.04486,0.009 -0.0628,0.01495 -0.01495,0.003 -0.07776,0.01196 -0.0628,0.006 -0.06579,0.006 -0.09271,0.01196 -0.122618,0.01794 -0.02692,0.003 -0.107664,0.02393 -0.07776,0.02093 -0.110655,0.04785 -0.0329,0.02692 -0.06579,0.08075 -0.02991,0.05084 -0.02991,0.122617 0,0.119627 0.08075,0.188412 0.08374,0.06879 0.227291,0.06879 0.182431,0 0.325983,-0.107665 0.143552,-0.107664 0.143552,-0.254206 z m 2.039639,-1.327858 v 2.129357 h -0.239254 v -0.227291 q -0.146543,0.269161 -0.508414,0.269161 -0.328974,0 -0.523367,-0.218319 -0.191403,-0.22131 -0.191403,-0.598134 0,-0.349909 0.17944,-0.58019 0.182431,-0.233273 0.523367,-0.233273 0.331965,0 0.505424,0.251217 v -0.792528 z m -0.726733,0.75963 q -0.218319,0 -0.346918,0.158506 -0.125608,0.158505 -0.125608,0.430656 0,0.281123 0.128599,0.448601 0.131589,0.164487 0.349908,0.164487 0.22131,0 0.346918,-0.158506 0.125608,-0.161496 0.125608,-0.44561 0,-0.254207 -0.119627,-0.424675 -0.116636,-0.173459 -0.35888,-0.173459 z"
           id="text19"
           style="font-size:2.99067px;line-height:1.25;font-family:HelveticaNeueCyr;-inkscape-font-specification:HelveticaNeueCyr;fill:#8a8a8a;stroke-width:0.235332"
           aria-label="dead" />
      </g>
    </g>
    <path
       style="fill:#a7a7a7;fill-opacity:0.113725;stroke:#a5a5a5;stroke-width:0.464999;stroke-linecap:butt;stroke-linejoin:miter;stroke-dasharray:none;stroke-opacity:0.835294;marker-end:url(#Triangle)"
       d="m 51.100378,125.45137 -9.678869,0"
       id="path21"
       sodipodi:nodetypes="cc" />
  </g>
</svg>
