<svg xmlns="http://www.w3.org/2000/svg" xmlns:xlink="http://www.w3.org/1999/xlink" xmlns:lucid="lucid" width="612" height="860"><g transform="translate(-154 -140)" lucid:page-tab-id="0_0"><path d="M0 0h1870.87v1322.83H0z" fill="#fff"/><path d="M216 300c-8.84 0-16 7.16-16 16v48c0 8.84 7.16 16 16 16h168c8.84 0 16-7.16 16-16v-48c0-8.84-7.16-16-16-16z" stroke="#5e5e5e" stroke-width="6" fill="#fff"/><use xlink:href="#a" transform="matrix(1,0,0,1,208,308) translate(56.224999999999994 35.6)"/><path d="M216 420c-8.84 0-16 7.16-16 16v48c0 8.84 7.16 16 16 16h168c8.84 0 16-7.16 16-16v-48c0-8.84-7.16-16-16-16z" stroke="#5e5e5e" stroke-width="3" fill="#fff"/><use xlink:href="#b" transform="matrix(1,0,0,1,208,428) translate(30.525 35.6)"/><path d="M216 540c-8.84 0-16 7.16-16 16v48c0 8.84 7.16 16 16 16h168c8.84 0 16-7.16 16-16v-48c0-8.84-7.16-16-16-16z" stroke="#5e5e5e" stroke-width="3" fill="#fff"/><use xlink:href="#c" transform="matrix(1,0,0,1,208,548) translate(31.5 35.6)"/><path d="M216 660c-8.84 0-16 7.16-16 16v48c0 8.84 7.16 16 16 16h168c8.84 0 16-7.16 16-16v-48c0-8.84-7.16-16-16-16z" stroke="#5e5e5e" stroke-width="3" fill="#fff"/><use xlink:href="#d" transform="matrix(1,0,0,1,208,668) translate(11.125 35.6)"/><path d="M216 780c-8.84 0-16 7.16-16 16v48c0 8.84 7.16 16 16 16h168c8.84 0 16-7.16 16-16v-48c0-8.84-7.16-16-16-16z" stroke="#5e5e5e" stroke-width="6" fill="#fff"/><use xlink:href="#e" transform="matrix(1,0,0,1,208,788) translate(51.05 35.6)"/><path d="M300 742v18.62" stroke="#3a414a" fill="none"/><path d="M300.5 742h-1v-.5h1z" stroke="#3a414a" stroke-width=".05" fill="#3a414a"/><path d="M300 775.38l-4.64-14.26h9.28z" stroke="#3a414a" fill="#3a414a"/><path d="M216 900c-8.84 0-16 7.16-16 16v48c0 8.84 7.16 16 16 16h168c8.84 0 16-7.16 16-16v-48c0-8.84-7.16-16-16-16z" stroke="#5e5e5e" stroke-width="6" fill="#fff"/><use xlink:href="#f" transform="matrix(1,0,0,1,208,908) translate(42.55 35.6)"/><path d="M402 460h32a6 6 0 0 0 6-6V346a6 6 0 0 0-6-6h-14.62" stroke="#3a414a" fill="none"/><path d="M402 460.5h-.5v-1h.5z" stroke="#3a414a" stroke-width=".05" fill="#3a414a"/><path d="M404.62 340l14.26-4.64v9.28z" stroke="#3a414a" fill="#3a414a"/><path d="M402 580h32a6 6 0 0 0 6-6V346a6 6 0 0 0-6-6h-14.62" stroke="#3a414a" fill="none"/><path d="M402 580.5h-.5v-1h.5z" stroke="#3a414a" stroke-width=".05" fill="#3a414a"/><path d="M404.62 340l14.26-4.64v9.28z" stroke="#3a414a" fill="#3a414a"/><path d="M402 700h32a6 6 0 0 0 6-6V346a6 6 0 0 0-6-6h-14.62" stroke="#3a414a" fill="none"/><path d="M402 700.5h-.5v-1h.5z" stroke="#3a414a" stroke-width=".05" fill="#3a414a"/><path d="M404.62 340l14.26-4.64v9.28z" stroke="#3a414a" fill="#3a414a"/><path d="M403.5 820H434a6 6 0 0 0 6-6V346a6 6 0 0 0-6-6h-14.62" stroke="#3a414a" fill="none"/><path d="M403.5 820.5h-.5v-1h.5z" stroke="#3a414a" stroke-width=".05" fill="#3a414a"/><path d="M404.62 340l14.26-4.64v9.28z" stroke="#3a414a" fill="#3a414a"/><path d="M300 383.5v18.62" stroke="#3a414a" fill="none"/><path d="M300.5 383.5h-1v-.5h1z" stroke="#3a414a" stroke-width=".05" fill="#3a414a"/><path d="M300 416.88l-4.64-14.26h9.28z" stroke="#3a414a" fill="#3a414a"/><path d="M300 502v20.12" stroke="#3a414a" fill="none"/><path d="M300.5 502h-1v-.5h1z" stroke="#3a414a" stroke-width=".05" fill="#3a414a"/><path d="M300 536.88l-4.64-14.26h9.28z" stroke="#3a414a" fill="#3a414a"/><path d="M300 622v20.12" stroke="#3a414a" fill="none"/><path d="M300.5 622h-1v-.5h1z" stroke="#3a414a" stroke-width=".05" fill="#3a414a"/><path d="M300 656.88l-4.64-14.26h9.28z" stroke="#3a414a" fill="#3a414a"/><path d="M536 300c-8.84 0-16 7.16-16 16v48c0 8.84 7.16 16 16 16h168c8.84 0 16-7.16 16-16v-48c0-8.84-7.16-16-16-16z" stroke="#5e5e5e" stroke-width="6" fill="#fff"/><use xlink:href="#g" transform="matrix(1,0,0,1,528,308) translate(56.224999999999994 24.799999999999997)"/><use xlink:href="#h" transform="matrix(1,0,0,1,528,308) translate(18.099999999999994 46.4)"/><use xlink:href="#i" transform="matrix(1,0,0,1,528,308) translate(92 46.4)"/><path d="M536 780c-8.84 0-16 7.16-16 16v48c0 8.84 7.16 16 16 16h168c8.84 0 16-7.16 16-16v-48c0-8.84-7.16-16-16-16z" stroke="#5e5e5e" stroke-width="6" fill="#fff"/><use xlink:href="#e" transform="matrix(1,0,0,1,528,788) translate(51.05 35.6)"/><path d="M536 900c-8.84 0-16 7.16-16 16v48c0 8.84 7.16 16 16 16h168c8.84 0 16-7.16 16-16v-48c0-8.84-7.16-16-16-16z" stroke="#5e5e5e" stroke-width="6" fill="#fff"/><use xlink:href="#f" transform="matrix(1,0,0,1,528,908) translate(42.55 35.6)"/><path d="M723.5 820H754a6 6 0 0 0 6-6V346a6 6 0 0 0-6-6h-14.62" stroke="#3a414a" fill="none"/><path d="M723.5 820.5h-.5v-1h.5z" stroke="#3a414a" stroke-width=".05" fill="#3a414a"/><path d="M724.62 340l14.26-4.64v9.28z" stroke="#3a414a" fill="#3a414a"/><path d="M620 863.5v17.12" stroke="#3a414a" fill="none"/><path d="M620.5 863.5h-1v-.5h1z" stroke="#3a414a" stroke-width=".05" fill="#3a414a"/><path d="M620 895.38l-4.64-14.26h9.28z" stroke="#3a414a" fill="#3a414a"/><path d="M620 383.5v377.12" stroke="#3a414a" fill="none"/><path d="M620.5 383.5h-1v-.5h1z" stroke="#3a414a" stroke-width=".05" fill="#3a414a"/><path d="M620 775.38l-4.64-14.26h9.28z" stroke="#3a414a" fill="#3a414a"/><path d="M180 160h220l20 20v80H180z" stroke="#3a414a" fill="#fff"/><path d="M400 160.48V180h19.52" stroke="#3a414a" fill="#fff"/><use xlink:href="#j" transform="matrix(1,0,0,1,185,165) translate(45.956790123456784 48.71527777777778)"/><path d="M500 160h220l20 20v80H500z" stroke="#3a414a" fill="#fff"/><path d="M720 160.48V180h19.52" stroke="#3a414a" fill="#fff"/><use xlink:href="#k" transform="matrix(1,0,0,1,505,165) translate(52.09876543209875 48.71527777777778)"/><path d="M300 863.5v17.12" stroke="#3a414a" fill="none"/><path d="M300.5 863.5h-1v-.5h1z" stroke="#3a414a" stroke-width=".05" fill="#3a414a"/><path d="M300 895.38l-4.64-14.26h9.28z" stroke="#3a414a" fill="#3a414a"/><path d="M196.5 340H166a6 6 0 0 0-6 6v588a6 6 0 0 0 6 6h14.62" stroke="#3a414a" fill="none"/><path d="M197 340.5h-.5v-1h.5z" stroke="#3a414a" stroke-width=".05" fill="#3a414a"/><path d="M195.38 940l-14.26 4.64v-9.28z" stroke="#3a414a" fill="#3a414a"/><path d="M198 460h-32a6 6 0 0 0-6 6v468a6 6 0 0 0 6 6h14.62" stroke="#3a414a" fill="none"/><path d="M198.5 460.5h-.5v-1h.5z" stroke="#3a414a" stroke-width=".05" fill="#3a414a"/><path d="M195.38 940l-14.26 4.64v-9.28z" stroke="#3a414a" fill="#3a414a"/><path d="M198 580h-32a6 6 0 0 0-6 6v348a6 6 0 0 0 6 6h14.62" stroke="#3a414a" fill="none"/><path d="M198.5 580.5h-.5v-1h.5z" stroke="#3a414a" stroke-width=".05" fill="#3a414a"/><path d="M195.38 940l-14.26 4.64v-9.28z" stroke="#3a414a" fill="#3a414a"/><path d="M198 700h-32a6 6 0 0 0-6 6v228a6 6 0 0 0 6 6h14.62" stroke="#3a414a" fill="none"/><path d="M198.5 700.5h-.5v-1h.5z" stroke="#3a414a" stroke-width=".05" fill="#3a414a"/><path d="M195.38 940l-14.26 4.64v-9.28z" stroke="#3a414a" fill="#3a414a"/><path d="M516.5 340H486a6 6 0 0 0-6 6v588a6 6 0 0 0 6 6h14.62" stroke="#3a414a" fill="none"/><path d="M517 340.5h-.5v-1h.5z" stroke="#3a414a" stroke-width=".05" fill="#3a414a"/><path d="M515.38 940l-14.26 4.64v-9.28z" stroke="#3a414a" fill="#3a414a"/><defs><path fill="#333" d="M101-251c68 0 85 55 85 127S166 4 100 4C33 4 14-52 14-124c0-73 17-127 87-127zm-1 229c47 0 54-49 54-102s-4-102-53-102c-51 0-55 48-55 102 0 53 5 102 54 102" id="l"/><path fill="#333" d="M-5 72V49h209v23H-5" id="m"/><path fill="#333" d="M140-251c81 0 123 46 123 126C263-46 219 4 140 4 59 4 17-45 17-125s42-126 123-126zm0 227c63 0 89-41 89-101s-29-99-89-99c-61 0-89 39-89 99S79-25 140-24" id="n"/><path fill="#333" d="M101-234c-31-9-42 10-38 44h38v23H63V0H32v-167H5v-23h27c-7-52 17-82 69-68v24" id="o"/><path fill="#333" d="M24 0v-261h32V0H24" id="p"/><path fill="#333" d="M24-231v-30h32v30H24zM24 0v-190h32V0H24" id="q"/><path fill="#333" d="M117-194c89-4 53 116 60 194h-32v-121c0-31-8-49-39-48C34-167 62-67 57 0H25l-1-190h30c1 10-1 24 2 32 11-22 29-35 61-36" id="r"/><path fill="#333" d="M100-194c63 0 86 42 84 106H49c0 40 14 67 53 68 26 1 43-12 49-29l28 8c-11 28-37 45-77 45C44 4 14-33 15-96c1-61 26-98 85-98zm52 81c6-60-76-77-97-28-3 7-6 17-6 28h103" id="s"/><g id="a"><use transform="matrix(0.05,0,0,0.05,0,0)" xlink:href="#l"/><use transform="matrix(0.05,0,0,0.05,10,0)" xlink:href="#m"/><use transform="matrix(0.05,0,0,0.05,20,0)" xlink:href="#n"/><use transform="matrix(0.05,0,0,0.05,34,0)" xlink:href="#o"/><use transform="matrix(0.05,0,0,0.05,38.65,0)" xlink:href="#o"/><use transform="matrix(0.05,0,0,0.05,43.65,0)" xlink:href="#p"/><use transform="matrix(0.05,0,0,0.05,47.6,0)" xlink:href="#q"/><use transform="matrix(0.05,0,0,0.05,51.550000000000004,0)" xlink:href="#r"/><use transform="matrix(0.05,0,0,0.05,61.550000000000004,0)" xlink:href="#s"/></g><path fill="#333" d="M27 0v-27h64v-190l-56 39v-29l58-41h29v221h61V0H27" id="t"/><path fill="#333" d="M233-177c-1 41-23 64-60 70L243 0h-38l-65-103H63V0H30v-248c88 3 205-21 203 71zM63-129c60-2 137 13 137-47 0-61-80-42-137-45v92" id="u"/><path fill="#333" d="M141-36C126-15 110 5 73 4 37 3 15-17 15-53c-1-64 63-63 125-63 3-35-9-54-41-54-24 1-41 7-42 31l-33-3c5-37 33-52 76-52 45 0 72 20 72 64v82c-1 20 7 32 28 27v20c-31 9-61-2-59-35zM48-53c0 20 12 33 32 33 41-3 63-29 60-74-43 2-92-5-92 41" id="v"/><path fill="#333" d="M59-47c-2 24 18 29 38 22v24C64 9 27 4 27-40v-127H5v-23h24l9-43h21v43h35v23H59v120" id="w"/><path fill="#333" d="M185-189c-5-48-123-54-124 2 14 75 158 14 163 119 3 78-121 87-175 55-17-10-28-26-33-46l33-7c5 56 141 63 141-1 0-78-155-14-162-118-5-82 145-84 179-34 5 7 8 16 11 25" id="x"/><path fill="#333" d="M179-190L93 31C79 59 56 82 12 73V49c39 6 53-20 64-50L1-190h34L92-34l54-156h33" id="y"/><path fill="#333" d="M96-169c-40 0-48 33-48 73s9 75 48 75c24 0 41-14 43-38l32 2c-6 37-31 61-74 61-59 0-76-41-82-99-10-93 101-131 147-64 4 7 5 14 7 22l-32 3c-4-21-16-35-41-35" id="z"/><path fill="#333" d="M85-194c31 0 48 13 60 33l-1-100h32l1 261h-30c-2-10 0-23-3-31C134-8 116 4 85 4 32 4 16-35 15-94c0-66 23-100 70-100zm9 24c-40 0-46 34-46 75 0 40 6 74 45 74 42 0 51-32 51-76 0-42-9-74-50-73" id="A"/><g id="b"><use transform="matrix(0.05,0,0,0.05,0,0)" xlink:href="#t"/><use transform="matrix(0.05,0,0,0.05,10,0)" xlink:href="#l"/><use transform="matrix(0.05,0,0,0.05,20,0)" xlink:href="#m"/><use transform="matrix(0.05,0,0,0.05,30,0)" xlink:href="#u"/><use transform="matrix(0.05,0,0,0.05,42.95,0)" xlink:href="#v"/><use transform="matrix(0.05,0,0,0.05,52.95,0)" xlink:href="#o"/><use transform="matrix(0.05,0,0,0.05,57.95,0)" xlink:href="#w"/><use transform="matrix(0.05,0,0,0.05,62.95,0)" xlink:href="#x"/><use transform="matrix(0.05,0,0,0.05,74.95,0)" xlink:href="#y"/><use transform="matrix(0.05,0,0,0.05,83.95,0)" xlink:href="#r"/><use transform="matrix(0.05,0,0,0.05,93.95,0)" xlink:href="#z"/><use transform="matrix(0.05,0,0,0.05,102.95,0)" xlink:href="#s"/><use transform="matrix(0.05,0,0,0.05,112.95,0)" xlink:href="#A"/></g><path fill="#333" d="M101-251c82-7 93 87 43 132L82-64C71-53 59-42 53-27h129V0H18c2-99 128-94 128-182 0-28-16-43-45-43s-46 15-49 41l-32-3c6-41 34-60 81-64" id="B"/><path fill="#333" d="M160-131c35 5 61 23 61 61C221 17 115-2 30 0v-248c76 3 177-17 177 60 0 33-19 50-47 57zm-97-11c50-1 110 9 110-42 0-47-63-36-110-37v79zm0 115c55-2 124 14 124-45 0-56-70-42-124-44v89" id="C"/><path fill="#333" d="M100-194c62-1 85 37 85 99 1 63-27 99-86 99S16-35 15-95c0-66 28-99 85-99zM99-20c44 1 53-31 53-75 0-43-8-75-51-75s-53 32-53 75 10 74 51 75" id="D"/><path fill="#333" d="M141 0L90-78 38 0H4l68-98-65-92h35l48 74 47-74h35l-64 92 68 98h-35" id="E"/><g id="c"><use transform="matrix(0.05,0,0,0.05,0,0)" xlink:href="#B"/><use transform="matrix(0.05,0,0,0.05,10,0)" xlink:href="#l"/><use transform="matrix(0.05,0,0,0.05,20,0)" xlink:href="#m"/><use transform="matrix(0.05,0,0,0.05,30,0)" xlink:href="#C"/><use transform="matrix(0.05,0,0,0.05,42,0)" xlink:href="#D"/><use transform="matrix(0.05,0,0,0.05,52,0)" xlink:href="#E"/><use transform="matrix(0.05,0,0,0.05,61,0)" xlink:href="#x"/><use transform="matrix(0.05,0,0,0.05,73,0)" xlink:href="#y"/><use transform="matrix(0.05,0,0,0.05,82,0)" xlink:href="#r"/><use transform="matrix(0.05,0,0,0.05,92,0)" xlink:href="#z"/><use transform="matrix(0.05,0,0,0.05,101,0)" xlink:href="#s"/><use transform="matrix(0.05,0,0,0.05,111,0)" xlink:href="#A"/></g><path fill="#333" d="M126-127c33 6 58 20 58 59 0 88-139 92-164 29-3-8-5-16-6-25l32-3c6 27 21 44 54 44 32 0 52-15 52-46 0-38-36-46-79-43v-28c39 1 72-4 72-42 0-27-17-43-46-43-28 0-47 15-49 41l-32-3c6-42 35-63 81-64 48-1 79 21 79 65 0 36-21 52-52 59" id="F"/><path fill="#333" d="M137 0h-34L2-248h35l83 218 83-218h36" id="G"/><path fill="#333" d="M135-143c-3-34-86-38-87 0 15 53 115 12 119 90S17 21 10-45l28-5c4 36 97 45 98 0-10-56-113-15-118-90-4-57 82-63 122-42 12 7 21 19 24 35" id="H"/><path fill="#333" d="M106-169C34-169 62-67 57 0H25v-261h32l-1 103c12-21 28-36 61-36 89 0 53 116 60 194h-32v-121c2-32-8-49-39-48" id="I"/><path fill="#333" d="M114-163C36-179 61-72 57 0H25l-1-190h30c1 12-1 29 2 39 6-27 23-49 58-41v29" id="J"/><path fill="#333" d="M33 0v-248h34V0H33" id="K"/><path fill="#333" d="M9 0v-24l116-142H16v-24h144v24L44-24h123V0H9" id="L"/><g id="d"><use transform="matrix(0.05,0,0,0.05,0,0)" xlink:href="#F"/><use transform="matrix(0.05,0,0,0.05,10,0)" xlink:href="#l"/><use transform="matrix(0.05,0,0,0.05,20,0)" xlink:href="#m"/><use transform="matrix(0.05,0,0,0.05,30,0)" xlink:href="#G"/><use transform="matrix(0.05,0,0,0.05,42,0)" xlink:href="#H"/><use transform="matrix(0.05,0,0,0.05,51,0)" xlink:href="#I"/><use transform="matrix(0.05,0,0,0.05,61,0)" xlink:href="#v"/><use transform="matrix(0.05,0,0,0.05,71,0)" xlink:href="#J"/><use transform="matrix(0.05,0,0,0.05,76.95,0)" xlink:href="#A"/><use transform="matrix(0.05,0,0,0.05,86.95,0)" xlink:href="#K"/><use transform="matrix(0.05,0,0,0.05,91.95,0)" xlink:href="#r"/><use transform="matrix(0.05,0,0,0.05,101.95,0)" xlink:href="#q"/><use transform="matrix(0.05,0,0,0.05,105.9,0)" xlink:href="#w"/><use transform="matrix(0.05,0,0,0.05,110.9,0)" xlink:href="#q"/><use transform="matrix(0.05,0,0,0.05,114.85000000000001,0)" xlink:href="#v"/><use transform="matrix(0.05,0,0,0.05,124.85000000000001,0)" xlink:href="#p"/><use transform="matrix(0.05,0,0,0.05,128.8,0)" xlink:href="#q"/><use transform="matrix(0.05,0,0,0.05,132.75,0)" xlink:href="#L"/><use transform="matrix(0.05,0,0,0.05,141.75,0)" xlink:href="#s"/><use transform="matrix(0.05,0,0,0.05,151.75,0)" xlink:href="#A"/></g><path fill="#333" d="M54-142c48-35 137-8 131 61C196 18 31 33 14-55l32-4c7 23 22 37 52 37 35-1 51-22 54-58 4-55-73-65-99-34H22l8-134h141v27H59" id="M"/><g id="e"><use transform="matrix(0.05,0,0,0.05,0,0)" xlink:href="#M"/><use transform="matrix(0.05,0,0,0.05,10,0)" xlink:href="#l"/><use transform="matrix(0.05,0,0,0.05,20,0)" xlink:href="#m"/><use transform="matrix(0.05,0,0,0.05,30,0)" xlink:href="#n"/><use transform="matrix(0.05,0,0,0.05,44,0)" xlink:href="#r"/><use transform="matrix(0.05,0,0,0.05,54,0)" xlink:href="#p"/><use transform="matrix(0.05,0,0,0.05,57.95,0)" xlink:href="#q"/><use transform="matrix(0.05,0,0,0.05,61.900000000000006,0)" xlink:href="#r"/><use transform="matrix(0.05,0,0,0.05,71.9,0)" xlink:href="#s"/></g><path fill="#333" d="M110-160c48 1 74 30 74 79 0 53-28 85-80 85-65 0-83-55-86-122-5-90 50-162 133-122 14 7 22 21 27 39l-31 6c-5-40-67-38-82-6-9 19-15 44-15 74 11-20 30-34 60-33zm-7 138c34 0 49-23 49-58s-16-56-50-56c-29 0-50 16-49 49 1 36 15 65 50 65" id="N"/><path fill="#333" d="M30 0v-248h187v28H63v79h144v27H63v87h162V0H30" id="O"/><path fill="#333" d="M115-194c55 1 70 41 70 98S169 2 115 4C84 4 66-9 55-30l1 105H24l-1-265h31l2 30c10-21 28-34 59-34zm-8 174c40 0 45-34 45-75s-6-73-45-74c-42 0-51 32-51 76 0 43 10 73 51 73" id="P"/><g id="f"><use transform="matrix(0.05,0,0,0.05,0,0)" xlink:href="#N"/><use transform="matrix(0.05,0,0,0.05,10,0)" xlink:href="#l"/><use transform="matrix(0.05,0,0,0.05,20,0)" xlink:href="#m"/><use transform="matrix(0.05,0,0,0.05,30,0)" xlink:href="#O"/><use transform="matrix(0.05,0,0,0.05,42,0)" xlink:href="#E"/><use transform="matrix(0.05,0,0,0.05,51,0)" xlink:href="#P"/><use transform="matrix(0.05,0,0,0.05,61,0)" xlink:href="#s"/><use transform="matrix(0.05,0,0,0.05,71,0)" xlink:href="#p"/><use transform="matrix(0.05,0,0,0.05,74.95,0)" xlink:href="#p"/><use transform="matrix(0.05,0,0,0.05,78.9,0)" xlink:href="#s"/><use transform="matrix(0.05,0,0,0.05,88.9,0)" xlink:href="#A"/></g><g id="g"><use transform="matrix(0.05,0,0,0.05,0,0)" xlink:href="#l"/><use transform="matrix(0.05,0,0,0.05,10,0)" xlink:href="#m"/><use transform="matrix(0.05,0,0,0.05,20,0)" xlink:href="#n"/><use transform="matrix(0.05,0,0,0.05,34,0)" xlink:href="#o"/><use transform="matrix(0.05,0,0,0.05,38.65,0)" xlink:href="#o"/><use transform="matrix(0.05,0,0,0.05,43.65,0)" xlink:href="#p"/><use transform="matrix(0.05,0,0,0.05,47.6,0)" xlink:href="#q"/><use transform="matrix(0.05,0,0,0.05,51.550000000000004,0)" xlink:href="#r"/><use transform="matrix(0.05,0,0,0.05,61.550000000000004,0)" xlink:href="#s"/></g><path fill="#333" d="M177-190C167-65 218 103 67 71c-23-6-38-20-44-43l32-5c15 47 100 32 89-28v-30C133-14 115 1 83 1 29 1 15-40 15-95c0-56 16-97 71-98 29-1 48 16 59 35 1-10 0-23 2-32h30zM94-22c36 0 50-32 50-73 0-42-14-75-50-75-39 0-46 34-46 75s6 73 46 73" id="Q"/><path fill="#333" d="M84 4C-5 8 30-112 23-190h32v120c0 31 7 50 39 49 72-2 45-101 50-169h31l1 190h-30c-1-10 1-25-2-33-11 22-28 36-60 37" id="R"/><path fill="#333" d="M33-154v-36h34v36H33zM33 0v-36h34V0H33" id="S"/><g id="h"><use transform="matrix(0.05,0,0,0.05,0,0)" xlink:href="#Q"/><use transform="matrix(0.05,0,0,0.05,10,0)" xlink:href="#J"/><use transform="matrix(0.05,0,0,0.05,15.949999999999998,0)" xlink:href="#v"/><use transform="matrix(0.05,0,0,0.05,25.950000000000003,0)" xlink:href="#z"/><use transform="matrix(0.05,0,0,0.05,34.95,0)" xlink:href="#s"/><use transform="matrix(0.05,0,0,0.05,44.95,0)" xlink:href="#o"/><use transform="matrix(0.05,0,0,0.05,49.95,0)" xlink:href="#R"/><use transform="matrix(0.05,0,0,0.05,59.95,0)" xlink:href="#p"/><use transform="matrix(0.05,0,0,0.05,63.900000000000006,0)" xlink:href="#S"/></g><path fill="#333" d="M0 4l72-265h28L28 4H0" id="T"/><g id="i"><use transform="matrix(0.05,0,0,0.05,0,0)" xlink:href="#w"/><use transform="matrix(0.05,0,0,0.05,5,0)" xlink:href="#J"/><use transform="matrix(0.05,0,0,0.05,10.95,0)" xlink:href="#R"/><use transform="matrix(0.05,0,0,0.05,20.95,0)" xlink:href="#s"/><use transform="matrix(0.05,0,0,0.05,30.950000000000003,0)" xlink:href="#T"/><use transform="matrix(0.05,0,0,0.05,35.95,0)" xlink:href="#o"/><use transform="matrix(0.05,0,0,0.05,40.95,0)" xlink:href="#v"/><use transform="matrix(0.05,0,0,0.05,50.95,0)" xlink:href="#p"/><use transform="matrix(0.05,0,0,0.05,54.900000000000006,0)" xlink:href="#H"/><use transform="matrix(0.05,0,0,0.05,63.900000000000006,0)" xlink:href="#s"/></g><path fill="#3a414a" d="M96-169c-40 0-48 33-48 73s9 75 48 75c24 0 41-14 43-38l32 2c-6 37-31 61-74 61-59 0-76-41-82-99-10-93 101-131 147-64 4 7 5 14 7 22l-32 3c-4-21-16-35-41-35" id="U"/><path fill="#3a414a" d="M84 4C-5 8 30-112 23-190h32v120c0 31 7 50 39 49 72-2 45-101 50-169h31l1 190h-30c-1-10 1-25-2-33-11 22-28 36-60 37" id="V"/><path fill="#3a414a" d="M114-163C36-179 61-72 57 0H25l-1-190h30c1 12-1 29 2 39 6-27 23-49 58-41v29" id="W"/><path fill="#3a414a" d="M100-194c63 0 86 42 84 106H49c0 40 14 67 53 68 26 1 43-12 49-29l28 8c-11 28-37 45-77 45C44 4 14-33 15-96c1-61 26-98 85-98zm52 81c6-60-76-77-97-28-3 7-6 17-6 28h103" id="X"/><path fill="#3a414a" d="M117-194c89-4 53 116 60 194h-32v-121c0-31-8-49-39-48C34-167 62-67 57 0H25l-1-190h30c1 10-1 24 2 32 11-22 29-35 61-36" id="Y"/><path fill="#3a414a" d="M59-47c-2 24 18 29 38 22v24C64 9 27 4 27-40v-127H5v-23h24l9-43h21v43h35v23H59v120" id="Z"/><path fill="#3a414a" d="M-5 72V49h209v23H-5" id="aa"/><path fill="#3a414a" d="M177-190C167-65 218 103 67 71c-23-6-38-20-44-43l32-5c15 47 100 32 89-28v-30C133-14 115 1 83 1 29 1 15-40 15-95c0-56 16-97 71-98 29-1 48 16 59 35 1-10 0-23 2-32h30zM94-22c36 0 50-32 50-73 0-42-14-75-50-75-39 0-46 34-46 75s6 73 46 73" id="ab"/><path fill="#3a414a" d="M141-36C126-15 110 5 73 4 37 3 15-17 15-53c-1-64 63-63 125-63 3-35-9-54-41-54-24 1-41 7-42 31l-33-3c5-37 33-52 76-52 45 0 72 20 72 64v82c-1 20 7 32 28 27v20c-31 9-61-2-59-35zM48-53c0 20 12 33 32 33 41-3 63-29 60-74-43 2-92-5-92 41" id="ac"/><path fill="#3a414a" d="M85-194c31 0 48 13 60 33l-1-100h32l1 261h-30c-2-10 0-23-3-31C134-8 116 4 85 4 32 4 16-35 15-94c0-66 23-100 70-100zm9 24c-40 0-46 34-46 75 0 40 6 74 45 74 42 0 51-32 51-76 0-42-9-74-50-73" id="ad"/><g id="j"><use transform="matrix(0.06172839506172839,0,0,0.06172839506172839,0,0)" xlink:href="#U"/><use transform="matrix(0.06172839506172839,0,0,0.06172839506172839,11.11111111111111,0)" xlink:href="#V"/><use transform="matrix(0.06172839506172839,0,0,0.06172839506172839,23.45679012345679,0)" xlink:href="#W"/><use transform="matrix(0.06172839506172839,0,0,0.06172839506172839,30.80246913580247,0)" xlink:href="#W"/><use transform="matrix(0.06172839506172839,0,0,0.06172839506172839,38.148148148148145,0)" xlink:href="#X"/><use transform="matrix(0.06172839506172839,0,0,0.06172839506172839,50.49382716049382,0)" xlink:href="#Y"/><use transform="matrix(0.06172839506172839,0,0,0.06172839506172839,62.8395061728395,0)" xlink:href="#Z"/><use transform="matrix(0.06172839506172839,0,0,0.06172839506172839,69.01234567901234,0)" xlink:href="#aa"/><use transform="matrix(0.06172839506172839,0,0,0.06172839506172839,81.35802469135803,0)" xlink:href="#ab"/><use transform="matrix(0.06172839506172839,0,0,0.06172839506172839,93.70370370370371,0)" xlink:href="#W"/><use transform="matrix(0.06172839506172839,0,0,0.06172839506172839,101.0493827160494,0)" xlink:href="#ac"/><use transform="matrix(0.06172839506172839,0,0,0.06172839506172839,113.39506172839508,0)" xlink:href="#ad"/><use transform="matrix(0.06172839506172839,0,0,0.06172839506172839,125.74074074074076,0)" xlink:href="#X"/></g><g id="k"><use transform="matrix(0.06172839506172839,0,0,0.06172839506172839,0,0)" xlink:href="#Z"/><use transform="matrix(0.06172839506172839,0,0,0.06172839506172839,6.172839506172839,0)" xlink:href="#ac"/><use transform="matrix(0.06172839506172839,0,0,0.06172839506172839,18.51851851851852,0)" xlink:href="#W"/><use transform="matrix(0.06172839506172839,0,0,0.06172839506172839,25.864197530864196,0)" xlink:href="#ab"/><use transform="matrix(0.06172839506172839,0,0,0.06172839506172839,38.20987654320987,0)" xlink:href="#X"/><use transform="matrix(0.06172839506172839,0,0,0.06172839506172839,50.55555555555555,0)" xlink:href="#Z"/><use transform="matrix(0.06172839506172839,0,0,0.06172839506172839,56.72839506172839,0)" xlink:href="#aa"/><use transform="matrix(0.06172839506172839,0,0,0.06172839506172839,69.07407407407408,0)" xlink:href="#ab"/><use transform="matrix(0.06172839506172839,0,0,0.06172839506172839,81.41975308641976,0)" xlink:href="#W"/><use transform="matrix(0.06172839506172839,0,0,0.06172839506172839,88.76543209876544,0)" xlink:href="#ac"/><use transform="matrix(0.06172839506172839,0,0,0.06172839506172839,101.11111111111113,0)" xlink:href="#ad"/><use transform="matrix(0.06172839506172839,0,0,0.06172839506172839,113.45679012345681,0)" xlink:href="#X"/></g></defs></g></svg>