<?xml version="1.0" encoding="UTF-8" standalone="no"?>
<!-- Created with Inkscape (http://www.inkscape.org/) -->

<svg
   width="116.18736mm"
   height="114.46617mm"
   viewBox="0 0 116.18736 114.46617"
   version="1.1"
   id="svg1"
   xml:space="preserve"
   inkscape:version="1.3.2 (091e20ef0f, 2023-11-25)"
   sodipodi:docname="gostech_modules_general.svg"
   xmlns:inkscape="http://www.inkscape.org/namespaces/inkscape"
   xmlns:sodipodi="http://sodipodi.sourceforge.net/DTD/sodipodi-0.dtd"
   xmlns="http://www.w3.org/2000/svg"
   xmlns:svg="http://www.w3.org/2000/svg"><sodipodi:namedview
     id="namedview1"
     pagecolor="#ffffff"
     bordercolor="#666666"
     borderopacity="1.0"
     inkscape:showpageshadow="2"
     inkscape:pageopacity="0.0"
     inkscape:pagecheckerboard="0"
     inkscape:deskcolor="#d1d1d1"
     inkscape:document-units="mm"
     inkscape:zoom="1.0167041"
     inkscape:cx="547.84869"
     inkscape:cy="335.88928"
     inkscape:window-width="1854"
     inkscape:window-height="1011"
     inkscape:window-x="66"
     inkscape:window-y="32"
     inkscape:window-maximized="1"
     inkscape:current-layer="layer1" /><defs
     id="defs1"><marker
       style="overflow:visible"
       id="Triangle"
       refX="0"
       refY="0"
       orient="auto-start-reverse"
       inkscape:stockid="Triangle arrow"
       markerWidth="1"
       markerHeight="1"
       viewBox="0 0 1 1"
       inkscape:isstock="true"
       inkscape:collect="always"
       preserveAspectRatio="xMidYMid"><path
         transform="scale(0.5)"
         style="fill:context-stroke;fill-rule:evenodd;stroke:context-stroke;stroke-width:1pt"
         d="M 5.77,0 -2.88,5 V -5 Z"
         id="path135" /></marker></defs><g
     inkscape:label="Layer 1"
     inkscape:groupmode="layer"
     id="layer1"
     transform="translate(-32.23165,-52.665284)"><path
       id="ellipse2"
       style="fill:#ffffff;fill-opacity:1;stroke:#000000;stroke-width:0.316972"
       d="m 74.959767,90.73117 c 1e-5,2.53976 -9.5229,4.59864 -21.270023,4.59864 -11.747112,0 -21.270025,-2.05888 -21.270013,-4.59864 1e-6,-2.53976 9.52291,-4.59864 21.270013,-4.59864 11.747113,0 21.270023,2.05888 21.270023,4.59864 z M 53.689486,86.11854 c -11.381996,0.004 -20.758871,1.92893 -21.242222,4.38754 l -0.0268,0.22723 -0.01495,41.29045 -4.29e-4,6.1e-4 c 0.703055,2.41977 10.070237,4.30524 21.284396,4.30972 10.408586,-0.004 20.400086,-1.46167 21.292656,-4.33393 l -0.0232,-41.27091 -0.0186,-0.20737 c -0.48391,-2.46158 -9.85505,-4.40335 -21.250861,-4.40334 z"
       sodipodi:nodetypes="ssssscccccccccc" /><path
       id="rect8"
       style="fill:#dbd4d4;stroke:#000000;stroke-width:0.288999"
       d="m 109.86131,96.214743 h 29.61615 c 0.7756,0 1.4,0.6244 1.4,1.4 v 6.183177 c 0,0.7756 -0.6244,1.4 -1.4,1.4 h -29.61615 c -0.7756,0 -1.4,-0.6244 -1.4,-1.4 v -6.183177 c 0,-0.7756 0.6244,-1.4 1.4,-1.4 z" /><path
       id="rect9"
       style="fill:#0e00ff;stroke:#000000;stroke-width:0.288999"
       d="m 115.66703,93.642952 h 18.00472 c 0.7756,0 1.4,0.6244 1.4,1.4 v 1.144665 c 0,0.7756 -0.6244,1.4 -1.4,1.4 h -18.00472 c -0.7756,0 -1.4,-0.6244 -1.4,-1.4 v -1.144665 c 0,-0.7756 0.6244,-1.4 1.4,-1.4 z" /><path
       style="font-weight:bold;font-size:2.90021px;line-height:1.25;font-family:HelveticaNeueCyr;-inkscape-font-specification:HelveticaNeueCyr;fill:#fff1f1;stroke-width:0.264583"
       d="m 118.53829,94.51168 v 2.06495 h -0.45243 v -0.890365 h -0.84396 v 0.890365 h -0.45243 v -2.06495 h 0.45243 v 0.777256 h 0.84396 V 94.51168 Z m 1.93444,0 v 0.385728 h -0.62064 v 1.679222 h -0.45534 v -1.679222 h -0.62064 V 94.51168 Z m 1.77203,0 v 0.385728 h -0.62064 v 1.679222 h -0.45534 v -1.679222 h -0.62064 V 94.51168 Z m 0.24072,0 h 0.89036 q 0.34803,0 0.55104,0.168212 0.20592,0.165312 0.20592,0.495936 0,0.324824 -0.20302,0.493036 -0.20301,0.165312 -0.53074,0.165312 h -0.46403 v 0.742454 h -0.44953 z m 0.44953,0.371227 v 0.594543 h 0.40313 q 0.35383,0 0.35383,-0.295821 0,-0.298722 -0.35093,-0.298722 z m 3.67167,1.116581 q -0.0377,0.290021 -0.22912,0.452433 -0.18852,0.162411 -0.48724,0.162411 -0.34512,0 -0.55394,-0.211715 -0.20881,-0.211715 -0.20881,-0.562641 0,-0.362526 0.20881,-0.582942 0.21172,-0.220416 0.55974,-0.220416 0.29873,0 0.48724,0.153711 0.18851,0.150811 0.21461,0.41183 h -0.40312 q -0.0464,-0.258119 -0.29583,-0.258119 -0.16821,0 -0.26392,0.13051 -0.0928,0.127609 -0.0928,0.356726 0,0.223316 0.0899,0.348025 0.0928,0.121809 0.25812,0.121809 0.26972,0 0.31903,-0.301622 z m 0.66124,-1.487808 v 2.06495 h -0.41183 v -2.06495 z m 0.74825,0 v 0.348025 h -0.41183 V 94.51168 Z m 0,0.568441 v 1.496509 h -0.41183 v -1.496509 z m 1.73143,1.032475 q -0.0696,0.240717 -0.25812,0.374127 -0.18561,0.13341 -0.44373,0.13341 -0.34513,0 -0.55684,-0.214616 -0.20882,-0.214615 -0.20882,-0.568441 0,-0.348025 0.21172,-0.574241 0.21171,-0.226217 0.53944,-0.226217 0.33932,0 0.53944,0.232017 0.20011,0.229117 0.20011,0.623545 v 0.0406 h -1.07308 q 0.003,0.194314 0.0928,0.295821 0.0928,0.101508 0.25812,0.101508 0.21751,0 0.30452,-0.217516 z m -0.39443,-0.440832 q -0.0145,-0.147911 -0.0957,-0.240717 -0.0812,-0.09571 -0.22621,-0.09571 -0.13631,0 -0.22622,0.08991 -0.0899,0.08991 -0.10731,0.246518 z m 2.06205,0.904866 h -0.41763 v -0.872964 q 0,-0.159511 -0.0522,-0.240717 -0.0522,-0.08411 -0.20301,-0.08411 -0.32483,0 -0.32483,0.394428 v 0.803359 h -0.40893 v -1.496509 h 0.39153 v 0.208815 q 0.18562,-0.249418 0.49594,-0.249418 0.24072,0 0.37993,0.13921 0.13921,0.139211 0.13921,0.397329 z m 1.13398,-1.496509 v 0.27842 h -0.30452 v 0.704751 q 0,0.0667 0.003,0.09861 0.003,0.029 0.0203,0.0609 0.0174,0.0319 0.0522,0.0435 0.0377,0.0087 0.10441,0.0087 0.0754,0 0.12471,-0.0058 v 0.313223 q -0.15081,0.0116 -0.24942,0.0116 -0.26972,0 -0.36832,-0.09281 -0.0957,-0.09571 -0.0957,-0.365426 v -0.777257 h -0.24942 v -0.27842 h 0.24942 V 94.62768 h 0.40893 v 0.452432 z"
       id="text10"
       aria-label="HTTP client" /><path
       d="m 114.34159,99.246381 1.11349,2.851809 h -0.42056 l -0.31643,-0.87317 h -1.1976 l -0.32443,0.87317 h -0.40053 l 1.12149,-2.851809 z m 0.26435,1.678239 -0.48464,-1.317757 -0.49266,1.317757 z m 2.78773,-0.89319 v 2.06676 h -0.31642 v -0.32443 q -0.26436,0.38051 -0.71295,0.38051 -0.32844,0 -0.50868,-0.18025 -0.18025,-0.18024 -0.18025,-0.52069 v -1.4219 h 0.34046 v 1.32978 q 0,0.24432 0.0921,0.37249 0.0961,0.12417 0.34046,0.12417 0.60481,0 0.60481,-0.745 v -1.08144 z m 2.37517,-0.785049 v 2.851809 h -0.32043 v -0.30441 q -0.19626,0.36049 -0.68091,0.36049 -0.44058,0 -0.70093,-0.2924 -0.25634,-0.29639 -0.25634,-0.80107 0,-0.46862 0.24032,-0.77703 0.24432,-0.312421 0.70093,-0.312421 0.4446,0 0.67691,0.336451 v -1.061419 z m -0.9733,1.017359 q -0.29239,0 -0.46462,0.21228 -0.16822,0.21229 -0.16822,0.57677 0,0.37651 0.17223,0.60081 0.17623,0.22029 0.46862,0.22029 0.2964,0 0.46462,-0.21228 0.16823,-0.21629 0.16823,-0.5968 0,-0.34045 -0.16022,-0.56876 -0.1562,-0.23231 -0.48064,-0.23231 z m 1.84647,-1.017359 v 0.416556 h -0.34446 v -0.416556 z m 0,0.785049 v 2.06676 h -0.34446 v -2.06676 z m 1.41389,0 v 0.28037 h -0.41255 v 1.20561 q 0,0.10014 0,0.13218 0.004,0.032 0.024,0.0881 0.02,0.0521 0.0681,0.0681 0.0481,0.016 0.13618,0.016 0.0761,0 0.18425,-0.012 v 0.29239 q -0.14419,0.016 -0.26035,0.016 -0.14419,0 -0.24032,-0.032 -0.0961,-0.032 -0.1482,-0.0721 -0.0481,-0.0401 -0.0721,-0.14019 -0.024,-0.10414 -0.028,-0.17223 -0.004,-0.0721 -0.004,-0.23632 0,-0.036 0,-0.0561 v -1.09747 h -0.34846 v -0.28037 h 0.34846 v -0.612819 h 0.34046 v 0.612819 z m 1.81042,0 v 0.3004 q 0.13618,-0.18425 0.29239,-0.26836 0.15621,-0.08411 0.38051,-0.08411 0.42456,0 0.57276,0.35648 0.26836,-0.360485 0.68492,-0.360485 0.32043,0 0.48464,0.180245 0.16823,0.17623 0.16823,0.49666 v 1.44593 h -0.34046 v -1.30174 q 0,-0.25634 -0.0801,-0.38451 -0.0801,-0.13218 -0.33245,-0.13218 -0.5287,0 -0.5287,0.64486 v 1.17357 h -0.34046 v -1.32577 q 0,-0.23632 -0.0801,-0.36048 -0.0761,-0.12817 -0.30041,-0.12817 -0.31642,0 -0.44058,0.19626 -0.12016,0.19226 -0.12016,0.5247 v 1.09346 h -0.34046 v -2.06676 z m 3.26036,0.23632 q 0.27236,-0.296401 0.74099,-0.296401 0.46862,0 0.72897,0.284381 0.26035,0.28438 0.26035,0.79706 0,0.5247 -0.26035,0.8171 -0.26035,0.29239 -0.73298,0.29239 -0.47263,0 -0.74099,-0.28839 -0.26836,-0.28838 -0.26836,-0.80107 0,-0.50868 0.27237,-0.80507 z m 1.20561,0.20827 q -0.17223,-0.22029 -0.47263,-0.22029 -0.30041,0 -0.47664,0.22029 -0.17624,0.2203 -0.17624,0.58879 0,0.38051 0.17223,0.5968 0.17624,0.21228 0.48866,0.21228 0.3004,0 0.46862,-0.21629 0.17223,-0.21629 0.17223,-0.5968 0,-0.36849 -0.17623,-0.58478 z m 2.79172,-1.229639 v 2.851809 h -0.32043 v -0.30441 q -0.19626,0.36049 -0.68091,0.36049 -0.44058,0 -0.70093,-0.2924 -0.25634,-0.29639 -0.25634,-0.80107 0,-0.46862 0.24032,-0.77703 0.24432,-0.312421 0.70093,-0.312421 0.4446,0 0.67691,0.336451 v -1.061419 z m -0.9733,1.017359 q -0.29239,0 -0.46462,0.21228 -0.16822,0.21229 -0.16822,0.57677 0,0.37651 0.17223,0.60081 0.17623,0.22029 0.46862,0.22029 0.2964,0 0.46462,-0.21228 0.16823,-0.21629 0.16823,-0.5968 0,-0.34045 -0.16022,-0.56876 -0.1562,-0.23231 -0.48064,-0.23231 z m 3.20028,-0.23231 v 2.06676 h -0.31642 v -0.32443 q -0.26436,0.38051 -0.71295,0.38051 -0.32844,0 -0.50868,-0.18025 -0.18025,-0.18024 -0.18025,-0.52069 v -1.4219 h 0.34046 v 1.32978 q 0,0.24432 0.0921,0.37249 0.0961,0.12417 0.34046,0.12417 0.60481,0 0.60481,-0.745 v -1.08144 z m 0.87316,-0.785049 v 2.851809 h -0.34446 v -2.851809 z m 2.29507,2.198939 q -0.15621,0.72096 -0.9012,0.72096 -0.45661,0 -0.71696,-0.28438 -0.25634,-0.28438 -0.25634,-0.78905 0,-0.50067 0.26435,-0.80908 0.26836,-0.312421 0.69693,-0.312421 0.47664,0 0.70494,0.324431 0.23231,0.32043 0.23231,0.81309 v 0.0481 h -1.55407 l -0.004,0.024 q 0,0.32843 0.17223,0.51669 0.17223,0.18825 0.47263,0.18825 0.2243,0 0.35247,-0.10414 0.13218,-0.10414 0.20428,-0.33645 z m -0.32844,-0.56476 q -0.024,-0.29639 -0.18024,-0.46061 -0.15621,-0.16823 -0.41255,-0.16823 -0.24833,0 -0.41255,0.16823 -0.16422,0.16822 -0.19626,0.46061 z"
       id="text2"
       style="font-size:4.00535px;line-height:1.25;font-family:HelveticaNeueCyr;-inkscape-font-specification:HelveticaNeueCyr;stroke-width:0.264583"
       aria-label="Audit module" /><path
       id="rect11"
       style="fill:#dbd4d4;stroke:#000000;stroke-width:0.288999"
       d="m 109.86131,118.14945 h 29.61615 c 0.7756,0 1.4,0.6244 1.4,1.4 v 6.18317 c 0,0.7756 -0.6244,1.4 -1.4,1.4 h -29.61615 c -0.7756,0 -1.4,-0.6244 -1.4,-1.4 v -6.18317 c 0,-0.7756 0.6244,-1.4 1.4,-1.4 z" /><g
       id="g18"
       transform="translate(69.936367,79.489148)"><path
         id="rect17"
         style="fill:#ff0000;stroke:#000000;stroke-width:0.288999"
         d="m 45.730666,46.36972 h 18.004712 c 0.7756,0 1.4,0.6244 1.4,1.4 v 1.144665 c 0,0.7756 -0.6244,1.4 -1.4,1.4 H 45.730666 c -0.7756,0 -1.4,-0.6244 -1.4,-1.4 V 47.76972 c 0,-0.7756 0.6244,-1.4 1.4,-1.4 z" /><path
         style="font-weight:bold;font-size:2.90021px;line-height:1.25;font-family:HelveticaNeueCyr;-inkscape-font-specification:HelveticaNeueCyr;fill:#fff1f1;stroke-width:0.264583"
         d="m 48.601983,47.238452 v 2.06495 H 48.14955 v -0.890364 h -0.843961 v 0.890364 h -0.452433 v -2.06495 h 0.452433 v 0.777257 h 0.843961 v -0.777257 z m 1.934438,0 v 0.385728 h -0.620645 v 1.679222 H 49.460443 V 47.62418 h -0.620645 v -0.385728 z m 1.772028,0 v 0.385728 h -0.620645 v 1.679222 H 51.232471 V 47.62418 h -0.620645 v -0.385728 z m 0.240718,0 h 0.890364 q 0.348026,0 0.55104,0.168213 0.205915,0.165312 0.205915,0.495936 0,0.324823 -0.203014,0.493035 -0.203015,0.165312 -0.530739,0.165312 H 52.9987 v 0.742454 h -0.449533 z m 0.449533,0.371227 v 0.594543 h 0.403129 q 0.353825,0 0.353825,-0.295821 0,-0.298722 -0.350925,-0.298722 z m 3.509252,0.632246 h -0.382828 q -0.0174,-0.113108 -0.08701,-0.159511 -0.0667,-0.0464 -0.197214,-0.0464 -0.110208,0 -0.171113,0.0406 -0.0609,0.0377 -0.0609,0.107308 0,0.08121 0.0696,0.113108 0.06961,0.0319 0.249418,0.0696 0.0319,0.0058 0.0464,0.0087 0.104408,0.0203 0.165312,0.0377 0.0638,0.0145 0.153712,0.0522 0.08991,0.0348 0.13921,0.08121 0.0493,0.0435 0.08701,0.118909 0.0377,0.0754 0.0377,0.174012 0,0.234917 -0.182714,0.371227 -0.182713,0.13631 -0.501736,0.13631 -0.304522,0 -0.501736,-0.130509 -0.197214,-0.13051 -0.200115,-0.400229 h 0.391529 q 0.0203,0.249418 0.319023,0.249418 0.124709,0 0.197214,-0.0493 0.0754,-0.0522 0.0754,-0.13631 0,-0.08411 -0.0667,-0.118908 -0.0667,-0.0348 -0.246518,-0.07541 -0.0145,-0.0029 -0.0232,-0.0058 -0.0203,-0.0058 -0.08991,-0.0203 -0.0696,-0.0145 -0.09861,-0.0203 -0.0261,-0.0087 -0.08991,-0.0261 -0.0609,-0.0174 -0.08991,-0.0319 -0.029,-0.0174 -0.07831,-0.0406 -0.0464,-0.0261 -0.06961,-0.0551 -0.0232,-0.029 -0.0522,-0.0667 -0.0261,-0.0406 -0.0377,-0.08991 -0.0087,-0.0493 -0.0087,-0.107307 0,-0.220416 0.171112,-0.339325 0.171112,-0.118909 0.484335,-0.118909 0.28132,0 0.461133,0.116009 0.179813,0.116008 0.188514,0.362526 z m 1.699525,0.597443 q -0.0696,0.240718 -0.258118,0.374127 -0.185614,0.13341 -0.443732,0.13341 -0.345125,0 -0.556841,-0.214615 -0.208815,-0.214616 -0.208815,-0.568442 0,-0.348025 0.211715,-0.574241 0.211716,-0.226217 0.53944,-0.226217 0.339324,0 0.539439,0.232017 0.200114,0.229117 0.200114,0.623545 v 0.0406 h -1.073078 q 0.0029,0.194314 0.09281,0.295822 0.09281,0.101507 0.258119,0.101507 0.217516,0 0.304522,-0.217516 z m -0.394428,-0.440832 q -0.0145,-0.14791 -0.09571,-0.240717 -0.08121,-0.09571 -0.226216,-0.09571 -0.13631,0 -0.226217,0.08991 -0.08991,0.08991 -0.107308,0.246517 z m 1.624116,-0.617744 v 0.379927 q -0.08701,-0.0174 -0.159512,-0.0174 -0.203015,0 -0.298722,0.130509 -0.09571,0.12761 -0.09571,0.345125 v 0.68445 h -0.411829 v -1.496508 h 0.391528 v 0.27552 q 0.147911,-0.310323 0.484335,-0.310323 0.029,0 0.08991,0.0087 z m 1.087578,0.0261 h 0.40893 L 60.426136,49.3034 h -0.461133 l -0.513338,-1.496508 h 0.435032 l 0.319023,1.020874 z m 1.983745,1.032474 q -0.06961,0.240718 -0.258118,0.374127 -0.185614,0.13341 -0.443732,0.13341 -0.345125,0 -0.556841,-0.214615 -0.208815,-0.214616 -0.208815,-0.568442 0,-0.348025 0.211716,-0.574241 0.211715,-0.226217 0.539439,-0.226217 0.339324,0 0.539439,0.232017 0.200114,0.229117 0.200114,0.623545 v 0.0406 h -1.073078 q 0.0029,0.194314 0.09281,0.295822 0.09281,0.101507 0.258119,0.101507 0.217516,0 0.304522,-0.217516 z m -0.394428,-0.44083 q -0.0145,-0.14791 -0.09571,-0.240717 -0.08121,-0.09571 -0.226216,-0.09571 -0.13631,0 -0.226217,0.08991 -0.08991,0.08991 -0.107308,0.246517 z m 1.624116,-0.617744 v 0.379927 q -0.08701,-0.0174 -0.159512,-0.0174 -0.203015,0 -0.298722,0.130509 -0.09571,0.12761 -0.09571,0.345125 v 0.68445 h -0.411829 v -1.496508 h 0.391528 v 0.27552 q 0.147911,-0.310323 0.484335,-0.310323 0.029,0 0.08991,0.0087 z"
         id="text18"
         aria-label="HTTP server" /></g><path
       d="m 73.967337,89.33023 c -2.72108,-1.86183 -10.76979,-3.21169 -20.28093,-3.21169 -11.254876,0 -20.46189,1.89035 -21.214208,4.28242 -0.0087,0.0304 -0.02242,0.0604 -0.02842,0.091 l -0.02687,0.22738 c 0.0053,2.53879 9.525661,4.59662 21.269498,4.59662 11.73349,0 21.24694,-2.05421 21.26899,-4.5899 v -0.0109 l -0.003,-0.0279 c -0.0126,-0.42347 -0.29291,-0.83319 -0.80099,-1.22215 -0.0585,-0.0453 -0.11981,-0.0902 -0.18448,-0.13487 z"
       style="fill:#ffffff;fill-opacity:1;stroke:#000000;stroke-width:0.316972"
       id="path4" /><g
       id="g9"
       transform="matrix(0.95512928,0,0,0.95512928,-7.5056496,-13.728239)"
       style="stroke-width:1.04697"><path
         d="m 68.914169,128.91724 -3.775445,3.77542 c -0.591979,0.592 -1.552496,0.592 -2.144475,0 l -3.775421,-3.77542 c -0.591993,-0.59201 -0.591993,-1.5525 0,-2.1445 l 3.775421,-3.77543 c 0.591979,-0.59199 1.552496,-0.59199 2.144475,0 l 3.775445,3.77543 c 0.592005,0.592 0.592005,1.55249 0,2.1445 z"
         fill="#ed453a"
         id="path1-6"
         style="stroke-width:0.277012" /><path
         d="m 64.031416,125.59595 -0.453734,0.46122 0.432699,0.43984 1.740033,1.76885 0.0047,0.005 1.251241,-1.27194 -0.0047,-0.005 -0.425661,-0.4327 -1.314371,-1.33614 -0.432673,-0.43983 z m 0.774118,0.0903 1.314397,1.33614 -0.341471,0.34711 -1.314371,-1.33612 z"
         fill="#ffffff"
         id="path2"
         style="stroke-width:0.277012" /><path
         d="m 62.381633,128.23257 0.425662,-0.43269 -0.432674,-0.43982 -0.425635,-0.4327 -0.432699,-0.43984 -1.330751,1.35278 0.0047,0.005 1.155343,1.17448 0.130984,0.13314 2.542196,2.58432 0.453708,-0.46122 -2.542196,-2.58432 z m -0.432647,-0.43984 -0.449051,0.45649 -0.425674,-0.4327 0.449064,-0.45646 z"
         fill="#ffffff"
         id="path3-2"
         style="stroke-width:0.277012" /><path
         d="m 67.410568,127.40999 -1.655842,1.68322 -2.970212,-3.01699 1.655842,-1.68327 -0.430318,-0.43983 -2.111905,2.14451 0.007,0.007 3.395874,3.45207 0.432673,0.43985 0.453708,-0.46363 1.655841,-1.68323 z"
         fill="#ffffff"
         id="path4-9"
         style="stroke-width:0.277012" /><path
         d="m 64.034432,129.14144 -0.431641,0.43876 1.268439,1.28942 0.431615,-0.43875 z"
         fill="#ffffff"
         id="path5-1"
         style="stroke-width:0.277012" /><path
         d="m 63.180198,128.27337 -0.431641,0.43879 0.45974,0.46736 0.431641,-0.43879 z"
         fill="#ffffff"
         id="path6-2"
         style="stroke-width:0.277012" /></g><path
       style="fill:none;stroke:#000000;stroke-width:0.665;stroke-linecap:butt;stroke-linejoin:miter;stroke-dasharray:7.97999, 0.665;stroke-dashoffset:0;stroke-opacity:1;marker-end:url(#Triangle)"
       d="m 74.856207,122.84713 c 30.681403,0 30.681403,0 30.681403,0"
       id="path31" /><path
       style="fill:none;stroke:#000000;stroke-width:0.665;stroke-linecap:butt;stroke-linejoin:miter;stroke-dasharray:7.97999, 0.665;stroke-dashoffset:0;stroke-opacity:1;marker-end:url(#Triangle)"
       d="m 74.943374,101.28354 c 30.681406,0 30.681406,0 30.681406,0"
       id="path12" /><g
       id="g5"
       transform="matrix(0.26968844,0,0,0.26968844,113.79689,49.478179)"
       style="opacity:0.159231;mix-blend-mode:normal;fill:#627a77;fill-opacity:1;stroke:#000000;stroke-width:1.36454;stroke-dasharray:none;stroke-opacity:1"><path
         class="st0"
         d="M 41.1,41.9 H 15.6 V 12.5 h 7.7 c 9.9,0 17.8,8 17.8,17.8 z"
         id="path1-61"
         style="fill:#627a77;fill-opacity:1;stroke:#000000;stroke-width:1.36454;stroke-dasharray:none;stroke-opacity:1" /><path
         class="st1"
         d="M 41.1,67.5 C 27,67.5 15.5,56.1 15.5,41.9 h 25.6 z"
         id="path2-8"
         style="fill:#627a77;fill-opacity:1;stroke:#000000;stroke-width:1.36454;stroke-dasharray:none;stroke-opacity:1" /><path
         class="st2"
         d="M 41.1,41.9 H 64.4 V 67.5 H 41.1 Z"
         id="path3"
         style="fill:#627a77;fill-opacity:1;stroke:#000000;stroke-width:1.36454;stroke-dasharray:none;stroke-opacity:1" /><path
         class="st3"
         d="m 41.1,41.9 h 5.4 v 25.6 h -5.4 z"
         id="path4-7"
         style="fill:#627a77;fill-opacity:1;stroke:#000000;stroke-width:1.36454;stroke-dasharray:none;stroke-opacity:1" /></g><path
       d="m 106.88589,71.995528 v 0.346973 h -1.68832 v 0.943598 h 1.5783 v 0.334279 h -1.5783 v 1.040919 h 1.70947 v 0.346973 h -2.10722 v -3.012742 z m 2.22993,0.82935 -0.76164,1.007069 0.8505,1.176323 h -0.46122 l -0.61355,-0.897052 -0.60508,0.897052 h -0.43584 l 0.82089,-1.150935 -0.75742,-1.032457 h 0.45699 l 0.52893,0.748954 0.54161,-0.748954 z m 1.33289,0 v 0.296197 h -0.43583 v 1.273645 q 0,0.105785 0,0.139636 0.004,0.03385 0.0254,0.09309 0.0212,0.05501 0.0719,0.07193 0.0508,0.01693 0.14386,0.01693 0.0804,0 0.19465,-0.01269 v 0.308891 q -0.15233,0.01693 -0.27504,0.01693 -0.15233,0 -0.25388,-0.03385 -0.10156,-0.03385 -0.15657,-0.07617 -0.0508,-0.04231 -0.0762,-0.148098 -0.0254,-0.110016 -0.0296,-0.181949 -0.004,-0.07617 -0.004,-0.249652 0,-0.03808 0,-0.05924 V 73.12108 h -0.36813 v -0.296197 h 0.36813 v -0.647401 h 0.35967 v 0.647401 z m 2.26379,1.493677 q -0.16503,0.761649 -0.95206,0.761649 -0.48238,0 -0.75742,-0.300428 -0.27081,-0.300428 -0.27081,-0.833582 0,-0.528923 0.27927,-0.854739 0.28351,-0.330048 0.73626,-0.330048 0.50354,0 0.74473,0.342742 0.24542,0.338511 0.24542,0.85897 v 0.05078 h -1.64178 l -0.004,0.02539 q 0,0.346973 0.18195,0.545848 0.18195,0.198875 0.4993,0.198875 0.23696,0 0.37236,-0.110016 0.13964,-0.110016 0.2158,-0.355436 z m -0.34697,-0.596624 q -0.0254,-0.313122 -0.19042,-0.486609 -0.16502,-0.177718 -0.43583,-0.177718 -0.26234,0 -0.43583,0.177718 -0.17349,0.177718 -0.20734,0.486609 z m 1.89142,-0.947829 v 0.372361 q -0.0381,-0.0042 -0.0931,-0.0042 -0.17348,0 -0.30042,0.05501 -0.12695,0.05078 -0.20311,0.135404 -0.0719,0.08463 -0.11848,0.211569 -0.0465,0.126941 -0.0635,0.253883 -0.0127,0.126941 -0.0127,0.287733 v 0.922441 h -0.35967 v -2.183392 h 0.34274 v 0.469683 q 0.2158,-0.520459 0.80819,-0.520459 z m 0.68549,0.05078 v 0.338511 q 0.27081,-0.39775 0.74472,-0.39775 0.38506,0 0.55431,0.203106 0.17349,0.198875 0.17349,0.588162 v 1.451363 h -0.35967 v -1.286339 q 0,-0.160793 -0.0127,-0.249652 -0.008,-0.09309 -0.0508,-0.194643 -0.0423,-0.105785 -0.14387,-0.15233 -0.10155,-0.04654 -0.26234,-0.04654 -0.62201,0 -0.62201,0.787037 v 1.142472 h -0.35967 v -2.183392 z m 3.94787,1.895658 v 0.279272 q -0.11001,0.04231 -0.24542,0.04231 -0.30889,0 -0.31735,-0.321585 -0.30889,0.346974 -0.79127,0.346974 -0.32158,0 -0.51199,-0.165024 -0.18619,-0.165024 -0.18619,-0.452758 0,-0.58393 0.77435,-0.681252 0.45699,-0.05501 0.52892,-0.0804 0.15233,-0.05078 0.16502,-0.211569 0.004,-0.02539 0.004,-0.05501 0,-0.359668 -0.49508,-0.359668 -0.25388,0 -0.38505,0.105785 -0.13117,0.101553 -0.15656,0.33851 h -0.35121 q 0.008,-0.351204 0.24965,-0.545848 0.24119,-0.194643 0.66433,-0.194643 0.46122,0 0.68548,0.211569 0.0719,0.0677 0.10579,0.177718 0.0339,0.110016 0.0381,0.181949 0.004,0.0677 0.004,0.207338 0,0.165024 -0.008,0.49084 -0.008,0.321585 -0.008,0.482377 0,0.118479 0.0296,0.169255 0.0339,0.04655 0.11848,0.04655 0.0339,0 0.0888,-0.0127 z m -0.57969,-0.846276 q -0.0381,0.02962 -0.0804,0.05078 -0.0423,0.02116 -0.11002,0.03385 -0.0635,0.01269 -0.0889,0.02116 -0.0212,0.0042 -0.11001,0.01693 -0.0889,0.0085 -0.0931,0.0085 -0.13117,0.01693 -0.17349,0.02539 -0.0381,0.0042 -0.15233,0.03385 -0.11001,0.02962 -0.15656,0.0677 -0.0465,0.03808 -0.0931,0.114247 -0.0423,0.07193 -0.0423,0.173486 0,0.169256 0.11424,0.266577 0.11848,0.09732 0.32159,0.09732 0.25811,0 0.46122,-0.15233 0.20311,-0.152329 0.20311,-0.359667 z m 1.29903,-1.878732 v 3.012742 h -0.3639 v -3.012742 z m 2.11569,0 v 3.012742 h -0.3639 v -3.012742 z m 0.73203,1.079002 q 0.28774,-0.313123 0.78281,-0.313123 0.49507,0 0.77011,0.300428 0.27504,0.300428 0.27504,0.842045 0,0.554311 -0.27504,0.863202 -0.27504,0.30889 -0.77434,0.30889 -0.49931,0 -0.78281,-0.304659 -0.2835,-0.304659 -0.2835,-0.846276 0,-0.537385 0.28773,-0.850507 z m 1.27365,0.220031 q -0.18195,-0.232726 -0.49931,-0.232726 -0.31735,0 -0.50353,0.232726 -0.18618,0.232726 -0.18618,0.622013 0,0.401981 0.18195,0.630476 0.18618,0.224263 0.51623,0.224263 0.31735,0 0.49507,-0.228495 0.18195,-0.228494 0.18195,-0.630475 0,-0.389287 -0.18618,-0.617782 z m 2.8731,-0.469683 v 1.946435 q 0,0.283502 -0.0296,0.435832 -0.0296,0.156561 -0.11002,0.291965 -0.24118,0.39775 -0.8632,0.39775 -0.36813,0 -0.62201,-0.15233 -0.25388,-0.148098 -0.2962,-0.49084 h 0.36813 q 0.0635,0.363899 0.56278,0.363899 0.33428,0 0.48237,-0.169255 0.15233,-0.169255 0.1608,-0.545848 l 0.004,-0.266577 q -0.20734,0.39775 -0.69395,0.39775 -0.44006,0 -0.70241,-0.300428 -0.25811,-0.300428 -0.25811,-0.808194 0,-0.478146 0.25811,-0.816656 0.25812,-0.342742 0.71934,-0.342742 0.22849,0 0.40621,0.09732 0.18195,0.09732 0.2835,0.279271 V 72.82488 Z m -1.00284,0.253883 q -0.29196,0 -0.46122,0.228495 -0.16502,0.224263 -0.16502,0.622012 0,0.359668 0.17349,0.579699 0.17348,0.215801 0.46122,0.215801 0.30042,0 0.46968,-0.228495 0.17349,-0.228494 0.17349,-0.626244 0,-0.372361 -0.17349,-0.579699 -0.16926,-0.211569 -0.47815,-0.211569 z m 4.59528,1.13401 q -0.0465,0.393518 -0.30043,0.626244 -0.24965,0.232726 -0.65163,0.232726 -0.49507,0 -0.76588,-0.304659 -0.27081,-0.308891 -0.27081,-0.820888 0,-0.545848 0.2835,-0.863202 0.28351,-0.321585 0.76588,-0.321585 0.40198,0 0.64317,0.203107 0.24119,0.198875 0.2835,0.571236 h -0.37236 q -0.0973,-0.473915 -0.55008,-0.473915 -0.31312,0 -0.49507,0.232726 -0.18195,0.228495 -0.18195,0.622013 0,0.39775 0.17349,0.626244 0.17349,0.228495 0.47815,0.228495 0.24542,0 0.39775,-0.143867 0.15656,-0.143867 0.19887,-0.414675 z m 0.56701,-1.138241 q 0.28773,-0.313123 0.7828,-0.313123 0.49507,0 0.77011,0.300428 0.27504,0.300428 0.27504,0.842045 0,0.554311 -0.27504,0.863202 -0.27504,0.30889 -0.77434,0.30889 -0.4993,0 -0.7828,-0.304659 -0.28351,-0.304659 -0.28351,-0.846276 0,-0.537385 0.28774,-0.850507 z m 1.27364,0.220031 q -0.18195,-0.232726 -0.4993,-0.232726 -0.31735,0 -0.50353,0.232726 -0.18618,0.232726 -0.18618,0.622013 0,0.401981 0.18194,0.630476 0.18619,0.224263 0.51623,0.224263 0.31736,0 0.49507,-0.228495 0.18195,-0.228494 0.18195,-0.630475 0,-0.389287 -0.18618,-0.617782 z m 1.3625,-1.299033 v 3.012742 h -0.36389 v -3.012742 z m 0.93937,0 v 3.012742 h -0.3639 v -3.012742 z m 2.42458,2.323027 q -0.16502,0.761649 -0.95206,0.761649 -0.48238,0 -0.75741,-0.300428 -0.27081,-0.300428 -0.27081,-0.833582 0,-0.528923 0.27927,-0.854739 0.2835,-0.330048 0.73626,-0.330048 0.50353,0 0.74472,0.342742 0.24542,0.338511 0.24542,0.85897 v 0.05078 h -1.64177 l -0.004,0.02539 q 0,0.346973 0.18195,0.545848 0.18195,0.198875 0.49931,0.198875 0.23695,0 0.37236,-0.110016 0.13963,-0.110016 0.2158,-0.355436 z m -0.34697,-0.596624 q -0.0254,-0.313122 -0.19041,-0.486609 -0.16503,-0.177718 -0.43583,-0.177718 -0.26235,0 -0.43584,0.177718 -0.17348,0.177718 -0.20733,0.486609 z m 2.63192,0.49084 q -0.0465,0.393518 -0.30043,0.626244 -0.24965,0.232726 -0.65163,0.232726 -0.49507,0 -0.76588,-0.304659 -0.27081,-0.308891 -0.27081,-0.820888 0,-0.545848 0.28351,-0.863202 0.2835,-0.321585 0.76588,-0.321585 0.40198,0 0.64317,0.203107 0.24118,0.198875 0.2835,0.571236 h -0.37236 q -0.0973,-0.473915 -0.55008,-0.473915 -0.31313,0 -0.49507,0.232726 -0.18195,0.228495 -0.18195,0.622013 0,0.39775 0.17348,0.626244 0.17349,0.228495 0.47815,0.228495 0.24542,0 0.39775,-0.143867 0.15656,-0.143867 0.19887,-0.414675 z m 1.32866,-1.387893 v 0.296197 h -0.43584 v 1.273645 q 0,0.105785 0,0.139636 0.004,0.03385 0.0254,0.09309 0.0212,0.05501 0.0719,0.07193 0.0508,0.01693 0.14387,0.01693 0.0804,0 0.19465,-0.01269 v 0.308891 q -0.15233,0.01693 -0.27504,0.01693 -0.15233,0 -0.25389,-0.03385 -0.10155,-0.03385 -0.15656,-0.07617 -0.0508,-0.04231 -0.0762,-0.148098 -0.0254,-0.110016 -0.0296,-0.181949 -0.004,-0.07617 -0.004,-0.249652 0,-0.03808 0,-0.05924 v -1.159398 h -0.36813 v -0.296197 h 0.36813 v -0.647401 h 0.35966 v 0.647401 z m 0.57124,0.249652 q 0.28773,-0.313123 0.7828,-0.313123 0.49507,0 0.77011,0.300428 0.27504,0.300428 0.27504,0.842045 0,0.554311 -0.27504,0.863202 -0.27504,0.30889 -0.77434,0.30889 -0.4993,0 -0.78281,-0.304659 -0.2835,-0.304659 -0.2835,-0.846276 0,-0.537385 0.28774,-0.850507 z m 1.27364,0.220031 q -0.18195,-0.232726 -0.4993,-0.232726 -0.31735,0 -0.50354,0.232726 -0.18618,0.232726 -0.18618,0.622013 0,0.401981 0.18195,0.630476 0.18618,0.224263 0.51623,0.224263 0.31736,0 0.49507,-0.228495 0.18195,-0.228494 0.18195,-0.630475 0,-0.389287 -0.18618,-0.617782 z m 2.11992,-0.520459 v 0.372361 q -0.0381,-0.0042 -0.0931,-0.0042 -0.17349,0 -0.30043,0.05501 -0.12694,0.05078 -0.2031,0.135404 -0.0719,0.08463 -0.11848,0.211569 -0.0465,0.126941 -0.0635,0.253883 -0.0127,0.126941 -0.0127,0.287733 v 0.922441 h -0.35966 v -2.183392 h 0.34274 v 0.469683 q 0.2158,-0.520459 0.80819,-0.520459 z"
       id="text12"
       style="font-size:4.23138px;line-height:1.25;font-family:HelveticaNeueCyr;-inkscape-font-specification:HelveticaNeueCyr;stroke-width:0.264583"
       aria-label="External log collector" /><g
       id="Layer_2"
       transform="matrix(0.26458333,0,0,0.26458333,150.17679,53.732703)"
       style="fill:#607979;fill-opacity:0.156863;stroke:#000000;stroke-width:0.623622;stroke-dasharray:none;stroke-opacity:0.156863" /><g
       id="g16"
       transform="translate(0.15326189,0.07574964)"><path
         style="fill:#607979;fill-opacity:0.156863;stroke:#d0d0d0;stroke-width:0.365;stroke-dasharray:none;stroke-opacity:1"
         inkscape:connector-curvature="0"
         id="path4486"
         d="m 124.41774,146.08063 c -3.95447,0 -7.16051,3.20566 -7.16051,7.16026 0,3.95447 3.20604,7.16039 7.16051,7.16039 3.95448,0 7.1604,-3.20592 7.1604,-7.16039 0,-3.9546 -3.20604,-7.16026 -7.1604,-7.16026 z m 0,13.40124 c -1.12512,0 -2.03732,-0.7516 -2.03732,-1.67845 h 4.07465 c 0,0.92673 -0.91221,1.67845 -2.03733,1.67845 z m 3.365,-2.23431 h -6.73037 v -1.2204 h 6.7305 v 1.2204 z m -0.0241,-1.84854 h -6.68705 c -0.0222,-0.0257 -0.045,-0.051 -0.0665,-0.077 -0.68892,-0.83651 -0.85116,-1.27321 -1.00873,-1.71826 -0.003,-0.0147 0.83537,0.17122 1.42965,0.30491 0,0 0.30579,0.0708 0.75286,0.15227 -0.42925,-0.50317 -0.68413,-1.14281 -0.68413,-1.79661 0,-1.43533 1.10087,-2.6896 0.70372,-3.7034 0.38654,0.0314 0.79999,0.8158 0.82792,2.04212 0.41092,-0.56785 0.5829,-1.60491 0.5829,-2.24075 0,-0.65835 0.43379,-1.42308 0.86772,-1.44924 -0.38679,0.63749 0.1002,1.18401 0.53312,2.53973 0.16237,0.50923 0.14165,1.36623 0.267,1.9097 0.0416,-1.12878 0.23567,-2.77577 0.95176,-3.3444 -0.31591,0.71609 0.0468,1.61212 0.2948,2.04288 0.40018,0.69499 0.6428,1.22153 0.6428,2.21739 0,0.66769 -0.24654,1.29634 -0.66239,1.78776 0.47284,-0.0887 0.79936,-0.16869 0.79936,-0.16869 l 1.53554,-0.29961 c 1.2e-4,-1.3e-4 -0.22303,0.91751 -1.08039,1.80116 z" /><path
         d="m 102.65569,163.44185 v 0.34697 h -1.68832 v 0.9436 h 1.5783 v 0.33428 h -1.5783 v 1.04092 h 1.70947 v 0.34697 h -2.10722 v -3.01274 z m 2.22993,0.82935 -0.76165,1.00707 0.85051,1.17632 h -0.46122 l -0.61355,-0.89705 -0.60509,0.89705 h -0.43583 l 0.82089,-1.15094 -0.75742,-1.03245 h 0.45699 l 0.52892,0.74895 0.54162,-0.74895 z m 1.33289,0 v 0.29619 h -0.43584 v 1.27365 q 0,0.10578 0,0.13964 0.004,0.0339 0.0254,0.0931 0.0212,0.055 0.0719,0.0719 0.0508,0.0169 0.14386,0.0169 0.0804,0 0.19465,-0.0127 v 0.30889 q -0.15233,0.0169 -0.27504,0.0169 -0.15233,0 -0.25389,-0.0339 -0.10155,-0.0339 -0.15656,-0.0762 -0.0508,-0.0423 -0.0762,-0.1481 -0.0254,-0.11001 -0.0296,-0.18195 -0.004,-0.0762 -0.004,-0.24965 0,-0.0381 0,-0.0592 v -1.1594 h -0.36813 v -0.29619 h 0.36813 v -0.6474 h 0.35966 v 0.6474 z m 2.26379,1.49367 q -0.16503,0.76165 -0.95206,0.76165 -0.48238,0 -0.75742,-0.30042 -0.27081,-0.30043 -0.27081,-0.83359 0,-0.52892 0.27927,-0.85474 0.2835,-0.33004 0.73626,-0.33004 0.50354,0 0.74473,0.34274 0.24542,0.33851 0.24542,0.85897 v 0.0508 h -1.64178 l -0.004,0.0254 q 0,0.34698 0.18195,0.54585 0.18195,0.19888 0.4993,0.19888 0.23696,0 0.37236,-0.11002 0.13964,-0.11002 0.2158,-0.35544 z m -0.34698,-0.59662 q -0.0254,-0.31312 -0.19041,-0.48661 -0.16502,-0.17772 -0.43583,-0.17772 -0.26235,0 -0.43583,0.17772 -0.17349,0.17772 -0.20734,0.48661 z m 1.89143,-0.94783 v 0.37236 q -0.0381,-0.004 -0.0931,-0.004 -0.17348,0 -0.30043,0.055 -0.12694,0.0508 -0.2031,0.1354 -0.0719,0.0846 -0.11848,0.21157 -0.0465,0.12694 -0.0635,0.25389 -0.0127,0.12694 -0.0127,0.28773 v 0.92244 h -0.35966 v -2.18339 h 0.34274 v 0.46968 q 0.2158,-0.52046 0.80819,-0.52046 z m 0.68549,0.0508 v 0.33851 q 0.2708,-0.39775 0.74472,-0.39775 0.38505,0 0.55431,0.2031 0.17349,0.19888 0.17349,0.58817 v 1.45136 h -0.35967 v -1.28634 q 0,-0.16079 -0.0127,-0.24965 -0.008,-0.0931 -0.0508,-0.19464 -0.0423,-0.10579 -0.14387,-0.15233 -0.10155,-0.0465 -0.26234,-0.0465 -0.62202,0 -0.62202,0.78704 v 1.14247 h -0.35966 v -2.18339 z m 3.94787,1.89566 v 0.27927 q -0.11001,0.0423 -0.24542,0.0423 -0.30889,0 -0.31735,-0.32158 -0.30889,0.34697 -0.79127,0.34697 -0.32158,0 -0.512,-0.16502 -0.18618,-0.16503 -0.18618,-0.45276 0,-0.58393 0.77435,-0.68125 0.45698,-0.055 0.52892,-0.0804 0.15233,-0.0508 0.16502,-0.21157 0.004,-0.0254 0.004,-0.055 0,-0.35966 -0.49507,-0.35966 -0.25388,0 -0.38505,0.10578 -0.13118,0.10155 -0.15656,0.33851 h -0.35121 q 0.008,-0.3512 0.24965,-0.54585 0.24119,-0.19464 0.66433,-0.19464 0.46122,0 0.68548,0.21157 0.0719,0.0677 0.10579,0.17772 0.0339,0.11001 0.0381,0.18194 0.004,0.0677 0.004,0.20734 0,0.16503 -0.008,0.49084 -0.008,0.32159 -0.008,0.48238 0,0.11848 0.0296,0.16925 0.0339,0.0465 0.11848,0.0465 0.0338,0 0.0889,-0.0127 z m -0.5797,-0.84628 q -0.0381,0.0296 -0.0804,0.0508 -0.0423,0.0211 -0.11002,0.0339 -0.0635,0.0127 -0.0889,0.0211 -0.0212,0.004 -0.11001,0.0169 -0.0889,0.008 -0.0931,0.008 -0.13118,0.0169 -0.17349,0.0254 -0.0381,0.004 -0.15233,0.0339 -0.11002,0.0296 -0.15656,0.0677 -0.0466,0.0381 -0.0931,0.11425 -0.0423,0.0719 -0.0423,0.17349 0,0.16925 0.11425,0.26657 0.11848,0.0973 0.32159,0.0973 0.25811,0 0.46122,-0.15233 0.2031,-0.15233 0.2031,-0.35967 z m 1.29904,-1.87873 v 3.01274 h -0.3639 v -3.01274 z m 2.07338,0.82935 v 0.31735 q 0.14386,-0.19464 0.30889,-0.2835 0.16502,-0.0889 0.40198,-0.0889 0.44852,0 0.60509,0.37659 0.2835,-0.38082 0.72356,-0.38082 0.33851,0 0.512,0.19041 0.17772,0.18618 0.17772,0.52469 v 1.52753 h -0.35967 v -1.3752 q 0,-0.27081 -0.0846,-0.40621 -0.0846,-0.13964 -0.3512,-0.13964 -0.55855,0 -0.55855,0.68126 v 1.23979 h -0.35966 V 165.054 q 0,-0.24965 -0.0846,-0.38082 -0.0804,-0.13541 -0.31735,-0.13541 -0.33428,0 -0.46546,0.20734 -0.12694,0.20311 -0.12694,0.55431 v 1.15517 h -0.35966 v -2.18339 z m 5.13689,1.49367 q -0.16502,0.76165 -0.95206,0.76165 -0.48237,0 -0.75741,-0.30042 -0.27081,-0.30043 -0.27081,-0.83359 0,-0.52892 0.27927,-0.85474 0.2835,-0.33004 0.73626,-0.33004 0.50353,0 0.74472,0.34274 0.24542,0.33851 0.24542,0.85897 v 0.0508 h -1.64177 l -0.004,0.0254 q 0,0.34698 0.18194,0.54585 0.18195,0.19888 0.49931,0.19888 0.23695,0 0.37236,-0.11002 0.13963,-0.11002 0.2158,-0.35544 z m -0.34697,-0.59662 q -0.0254,-0.31312 -0.19041,-0.48661 -0.16503,-0.17772 -0.43583,-0.17772 -0.26235,0 -0.43584,0.17772 -0.17348,0.17772 -0.20733,0.48661 z m 1.68832,-0.89705 v 0.29619 h -0.43583 v 1.27365 q 0,0.10578 0,0.13964 0.004,0.0339 0.0254,0.0931 0.0212,0.055 0.0719,0.0719 0.0508,0.0169 0.14387,0.0169 0.0804,0 0.19464,-0.0127 v 0.30889 q -0.15233,0.0169 -0.27504,0.0169 -0.15233,0 -0.25388,-0.0339 -0.10155,-0.0339 -0.15656,-0.0762 -0.0508,-0.0423 -0.0762,-0.1481 -0.0254,-0.11001 -0.0296,-0.18195 -0.004,-0.0762 -0.004,-0.24965 0,-0.0381 0,-0.0592 v -1.1594 h -0.36813 v -0.29619 h 0.36813 v -0.6474 h 0.35967 v 0.6474 z m 1.536,-0.0508 v 0.37236 q -0.0381,-0.004 -0.0931,-0.004 -0.17349,0 -0.30043,0.055 -0.12694,0.0508 -0.20311,0.1354 -0.0719,0.0846 -0.11848,0.21157 -0.0465,0.12694 -0.0635,0.25389 -0.0127,0.12694 -0.0127,0.28773 v 0.92244 h -0.35967 v -2.18339 h 0.34274 v 0.46968 q 0.2158,-0.52046 0.8082,-0.52046 z m 0.65163,-0.77857 v 0.44006 h -0.3639 v -0.44006 z m 0,0.82935 v 2.18339 h -0.3639 v -2.18339 z m 2.43728,1.38789 q -0.0465,0.39352 -0.30043,0.62624 -0.24965,0.23273 -0.65163,0.23273 -0.49508,0 -0.76588,-0.30466 -0.27081,-0.30889 -0.27081,-0.82089 0,-0.54584 0.2835,-0.8632 0.2835,-0.32158 0.76588,-0.32158 0.40198,0 0.64317,0.2031 0.24119,0.19888 0.2835,0.57124 h -0.37236 q -0.0973,-0.47391 -0.55008,-0.47391 -0.31312,0 -0.49507,0.23272 -0.18195,0.2285 -0.18195,0.62201 0,0.39775 0.17349,0.62625 0.17348,0.22849 0.47814,0.22849 0.24542,0 0.39775,-0.14386 0.15656,-0.14387 0.19888,-0.41468 z m 2.01413,-0.75319 h -0.35966 q -0.0339,-0.39774 -0.53316,-0.39774 -0.20733,0 -0.32581,0.0804 -0.11848,0.0804 -0.11848,0.2158 0,0.0381 0.008,0.0762 0.008,0.0339 0.0296,0.0635 0.0254,0.0254 0.0423,0.0465 0.0212,0.0212 0.0635,0.0423 0.0465,0.0169 0.0677,0.0296 0.0254,0.0127 0.0846,0.0296 0.0635,0.0127 0.0889,0.0211 0.0254,0.004 0.0973,0.0212 0.0762,0.0169 0.0973,0.0212 0.15656,0.0339 0.23272,0.055 0.0804,0.0212 0.2158,0.0804 0.13964,0.055 0.21157,0.11848 0.0719,0.0592 0.12694,0.16925 0.0592,0.10579 0.0592,0.24119 0,0.31736 -0.24965,0.512 -0.24542,0.19041 -0.65586,0.19041 -0.4443,0 -0.68548,-0.19464 -0.23696,-0.19465 -0.25389,-0.56278 h 0.35544 q 0.0296,0.46123 0.59239,0.46123 0.24119,0 0.38506,-0.0973 0.1481,-0.10155 0.1481,-0.26657 0,-0.11002 -0.0762,-0.18195 -0.0762,-0.0719 -0.16925,-0.10156 -0.0931,-0.0339 -0.26658,-0.0762 -0.0254,-0.004 -0.0381,-0.008 -0.0381,-0.008 -0.16503,-0.0339 -0.12271,-0.0296 -0.17772,-0.0465 -0.055,-0.0169 -0.16079,-0.0508 -0.10155,-0.0381 -0.15233,-0.0762 -0.0508,-0.0423 -0.11425,-0.10155 -0.0592,-0.0635 -0.0846,-0.14387 -0.0254,-0.0846 -0.0254,-0.19041 0,-0.2962 0.22426,-0.46969 0.2285,-0.17348 0.60932,-0.17348 0.38506,0 0.62624,0.18195 0.24542,0.18195 0.24542,0.51622 z m 3.55013,0.75319 q -0.0465,0.39352 -0.30043,0.62624 -0.24965,0.23273 -0.65163,0.23273 -0.49507,0 -0.76588,-0.30466 -0.27081,-0.30889 -0.27081,-0.82089 0,-0.54584 0.28351,-0.8632 0.2835,-0.32158 0.76588,-0.32158 0.40198,0 0.64317,0.2031 0.24118,0.19888 0.2835,0.57124 h -0.37236 q -0.0973,-0.47391 -0.55008,-0.47391 -0.31312,0 -0.49507,0.23272 -0.18195,0.2285 -0.18195,0.62201 0,0.39775 0.17348,0.62625 0.17349,0.22849 0.47815,0.22849 0.24542,0 0.39775,-0.14386 0.15656,-0.14387 0.19887,-0.41468 z m 0.56701,-1.13824 q 0.28773,-0.31312 0.7828,-0.31312 0.49508,0 0.77012,0.30043 0.27504,0.30042 0.27504,0.84204 0,0.55431 -0.27504,0.8632 -0.27504,0.30889 -0.77435,0.30889 -0.4993,0 -0.7828,-0.30466 -0.2835,-0.30466 -0.2835,-0.84627 0,-0.53739 0.28773,-0.85051 z m 1.27364,0.22003 q -0.18194,-0.23272 -0.4993,-0.23272 -0.31735,0 -0.50353,0.23272 -0.18618,0.23273 -0.18618,0.62201 0,0.40198 0.18195,0.63048 0.18618,0.22426 0.51622,0.22426 0.31736,0 0.49508,-0.22849 0.18195,-0.2285 0.18195,-0.63048 0,-0.38928 -0.18619,-0.61778 z m 1.36251,-1.29903 v 3.01274 h -0.3639 v -3.01274 z m 0.93937,0 v 3.01274 h -0.3639 v -3.01274 z m 2.42458,2.32302 q -0.16503,0.76165 -0.95206,0.76165 -0.48238,0 -0.75742,-0.30042 -0.27081,-0.30043 -0.27081,-0.83359 0,-0.52892 0.27927,-0.85474 0.2835,-0.33004 0.73626,-0.33004 0.50354,0 0.74472,0.34274 0.24542,0.33851 0.24542,0.85897 v 0.0508 h -1.64177 l -0.004,0.0254 q 0,0.34698 0.18195,0.54585 0.18195,0.19888 0.4993,0.19888 0.23696,0 0.37236,-0.11002 0.13964,-0.11002 0.2158,-0.35544 z m -0.34698,-0.59662 q -0.0254,-0.31312 -0.19041,-0.48661 -0.16502,-0.17772 -0.43583,-0.17772 -0.26235,0 -0.43583,0.17772 -0.17349,0.17772 -0.20734,0.48661 z m 2.63192,0.49084 q -0.0465,0.39352 -0.30042,0.62624 -0.24965,0.23273 -0.65164,0.23273 -0.49507,0 -0.76588,-0.30466 -0.2708,-0.30889 -0.2708,-0.82089 0,-0.54584 0.2835,-0.8632 0.2835,-0.32158 0.76588,-0.32158 0.40198,0 0.64317,0.2031 0.24119,0.19888 0.2835,0.57124 h -0.37236 q -0.0973,-0.47391 -0.55008,-0.47391 -0.31312,0 -0.49507,0.23272 -0.18195,0.2285 -0.18195,0.62201 0,0.39775 0.17349,0.62625 0.17348,0.22849 0.47814,0.22849 0.24542,0 0.39775,-0.14386 0.15656,-0.14387 0.19888,-0.41468 z m 1.32866,-1.38789 v 0.29619 h -0.43583 v 1.27365 q 0,0.10578 0,0.13964 0.004,0.0339 0.0254,0.0931 0.0212,0.055 0.0719,0.0719 0.0508,0.0169 0.14386,0.0169 0.0804,0 0.19465,-0.0127 v 0.30889 q -0.15233,0.0169 -0.27504,0.0169 -0.15233,0 -0.25388,-0.0339 -0.10156,-0.0339 -0.15657,-0.0762 -0.0508,-0.0423 -0.0762,-0.1481 -0.0254,-0.11001 -0.0296,-0.18195 -0.004,-0.0762 -0.004,-0.24965 0,-0.0381 0,-0.0592 v -1.1594 h -0.36813 v -0.29619 h 0.36813 v -0.6474 h 0.35967 v 0.6474 z m 0.57124,0.24965 q 0.28773,-0.31312 0.7828,-0.31312 0.49508,0 0.77012,0.30043 0.27504,0.30042 0.27504,0.84204 0,0.55431 -0.27504,0.8632 -0.27504,0.30889 -0.77435,0.30889 -0.4993,0 -0.7828,-0.30466 -0.2835,-0.30466 -0.2835,-0.84627 0,-0.53739 0.28773,-0.85051 z m 1.27364,0.22003 q -0.18194,-0.23272 -0.4993,-0.23272 -0.31735,0 -0.50353,0.23272 -0.18618,0.23273 -0.18618,0.62201 0,0.40198 0.18195,0.63048 0.18618,0.22426 0.51622,0.22426 0.31736,0 0.49508,-0.22849 0.18195,-0.2285 0.18195,-0.63048 0,-0.38928 -0.18619,-0.61778 z m 2.11992,-0.52046 v 0.37236 q -0.0381,-0.004 -0.0931,-0.004 -0.17348,0 -0.30042,0.055 -0.12695,0.0508 -0.20311,0.1354 -0.0719,0.0846 -0.11848,0.21157 -0.0465,0.12694 -0.0635,0.25389 -0.0127,0.12694 -0.0127,0.28773 v 0.92244 h -0.35967 v -2.18339 h 0.34274 v 0.46968 q 0.2158,-0.52046 0.80819,-0.52046 z"
         id="text13"
         style="font-size:4.23138px;line-height:1.25;font-family:HelveticaNeueCyr;-inkscape-font-specification:HelveticaNeueCyr;stroke-width:0.264583"
         aria-label="External metrics collector" /></g><path
       style="fill:none;stroke:#000000;stroke-width:0.665;stroke-linecap:butt;stroke-linejoin:miter;stroke-dasharray:7.97999, 0.665;stroke-dashoffset:0;stroke-opacity:1;marker-end:url(#Triangle)"
       d="M 124.57095,145.10959 V 133.12885"
       id="path13"
       sodipodi:nodetypes="cc" /><path
       style="fill:none;stroke:#000000;stroke-width:0.665;stroke-linecap:butt;stroke-linejoin:miter;stroke-dasharray:7.97999, 0.665;stroke-dashoffset:0;stroke-opacity:1;marker-end:url(#Triangle)"
       d="M 124.57095,92.152858 V 80.172118"
       id="path16"
       sodipodi:nodetypes="cc" /><g
       id="text1"
       style="font-size:4.20452px;font-family:HelveticaNeueCyr;-inkscape-font-specification:HelveticaNeueCyr;text-align:center;text-anchor:middle;fill:#ffffff;stroke-width:0.350376"
       aria-label="Picodata&#10;instance"><path
         style="font-weight:bold;fill:#000000"
         d="m 45.043757,117.71205 v 2.99362 h 0.6517 v -1.07635 h 0.672724 c 0.601246,0 1.063743,-0.30273 1.063743,-0.95443 0,-0.66011 -0.449884,-0.96284 -1.09738,-0.96284 z m 0.6517,0.53818 h 0.588633 c 0.290112,0 0.508747,0.11353 0.508747,0.43307 0,0.33216 -0.218635,0.42886 -0.512951,0.42886 h -0.584429 z m 2.699302,-0.53818 h -0.597042 v 0.50455 h 0.597042 z m 0,0.82409 h -0.597042 v 2.16953 h 0.597042 z m 2.539527,1.33283 h -0.576019 c -0.04625,0.28591 -0.206021,0.43727 -0.462497,0.43727 -0.319544,0 -0.504543,-0.24806 -0.504543,-0.68113 0,-0.44568 0.193408,-0.70636 0.517156,-0.70636 0.231249,0 0.386816,0.13455 0.428861,0.3742 h 0.584429 c -0.05045,-0.50454 -0.43727,-0.81988 -1.017494,-0.81988 -0.672723,0 -1.114198,0.4625 -1.114198,1.16466 0,0.67692 0.43727,1.1226 1.105789,1.1226 0.576019,0 0.962835,-0.32795 1.038516,-0.89136 z m 1.412717,-1.3959 c -0.681132,0 -1.131016,0.4583 -1.131016,1.14784 0,0.69374 0.445679,1.15204 1.122607,1.15204 0.676928,0 1.118402,-0.45409 1.118402,-1.15204 0,-0.68954 -0.441474,-1.14784 -1.109993,-1.14784 z m -0.01682,0.45409 c 0.332157,0 0.529769,0.25648 0.529769,0.68954 0,0.44568 -0.193408,0.70636 -0.52136,0.70636 -0.332157,0 -0.525565,-0.25647 -0.525565,-0.70215 0,-0.43307 0.197612,-0.69375 0.517156,-0.69375 z m 3.632705,1.77851 v -2.99362 h -0.592837 v 1.09318 c -0.138749,-0.22284 -0.403634,-0.32795 -0.66011,-0.32795 -0.576019,0 -0.950221,0.44988 -0.950221,1.13522 0,0.70215 0.382611,1.15204 0.983858,1.15204 0.298521,0 0.512951,-0.11353 0.655905,-0.33637 v 0.2775 z m -0.571814,-1.08897 c 0,0.42466 -0.189204,0.66852 -0.517156,0.66852 -0.319544,0 -0.512952,-0.25227 -0.512952,-0.67272 0,-0.41625 0.189204,-0.66432 0.512952,-0.66432 0.323748,0 0.517156,0.24807 0.517156,0.66852 z m 3.044073,1.08897 c -0.07989,-0.185 -0.07568,-0.39102 -0.07568,-0.58863 v -0.93761 c 0,-0.60545 -0.508747,-0.70636 -0.946017,-0.70636 -0.626473,0 -0.971244,0.24807 -1.00488,0.73159 h 0.559201 c 0.04205,-0.24807 0.155567,-0.33216 0.428861,-0.33216 0.264885,0 0.39102,0.0925 0.39102,0.29011 0,0.17659 -0.142953,0.21023 -0.529769,0.26068 -0.428861,0.0547 -0.946017,0.12194 -0.946017,0.68955 0,0.40783 0.294316,0.6559 0.773632,0.6559 0.26068,0 0.517156,-0.0883 0.702154,-0.27329 0.0084,0.0967 0.01261,0.13034 0.04205,0.21022 z m -0.651701,-1.05533 v 0.24386 c 0,0.31114 -0.218635,0.48352 -0.52977,0.48352 -0.206021,0 -0.327952,-0.10932 -0.327952,-0.29011 0,-0.26489 0.231248,-0.29011 0.43727,-0.32375 0.151363,-0.0252 0.281703,-0.0336 0.420452,-0.11352 z m 2.241007,-1.1142 H 59.58298 v -0.6559 h -0.592837 v 0.6559 h -0.361589 v 0.40363 h 0.361589 v 1.12682 c 0,0.52977 0.159771,0.66431 0.672723,0.66431 0.134545,0 0.197612,-0.004 0.361589,-0.0168 v -0.45409 c -0.07148,0.008 -0.117727,0.008 -0.180795,0.008 -0.256475,0 -0.26068,-0.0967 -0.26068,-0.30693 v -1.0217 h 0.441475 z m 2.304074,2.16953 c -0.07989,-0.185 -0.07568,-0.39102 -0.07568,-0.58863 v -0.93761 c 0,-0.60545 -0.508747,-0.70636 -0.946017,-0.70636 -0.626473,0 -0.971244,0.24807 -1.00488,0.73159 h 0.559201 c 0.04205,-0.24807 0.155567,-0.33216 0.428861,-0.33216 0.264885,0 0.391021,0.0925 0.391021,0.29011 0,0.17659 -0.142954,0.21023 -0.52977,0.26068 -0.428861,0.0547 -0.946017,0.12194 -0.946017,0.68955 0,0.40783 0.294316,0.6559 0.773632,0.6559 0.26068,0 0.517156,-0.0883 0.702155,-0.27329 0.0084,0.0967 0.01261,0.13034 0.04205,0.21022 z m -0.651701,-1.05533 v 0.24386 c 0,0.31114 -0.218635,0.48352 -0.529769,0.48352 -0.206022,0 -0.327953,-0.10932 -0.327953,-0.29011 0,-0.26489 0.231249,-0.29011 0.43727,-0.32375 0.151363,-0.0252 0.281703,-0.0336 0.420452,-0.11352 z"
         id="path5" /><path
         style="font-weight:bold;fill:#000000"
         d="m 45.939316,122.96771 h -0.597042 v 0.50454 h 0.597042 z m 0,0.82408 h -0.597042 v 2.16953 h 0.597042 z m 2.514301,2.16953 v -1.45056 c 0,-0.50454 -0.294317,-0.77783 -0.752609,-0.77783 -0.30693,0 -0.546588,0.13034 -0.718973,0.36159 v -0.30273 h -0.56761 v 2.16953 h 0.592837 v -1.16465 c 0,-0.31534 0.113522,-0.57181 0.470906,-0.57181 0.319544,0 0.369998,0.20181 0.369998,0.4709 v 1.26556 z m 2.283056,-1.53885 c -0.01682,-0.50454 -0.445679,-0.69375 -0.941812,-0.69375 -0.605451,0 -0.950222,0.23966 -0.950222,0.66432 0,0.51715 0.504543,0.57602 0.891358,0.66431 0.311135,0.0715 0.487725,0.10511 0.487725,0.29011 0,0.16398 -0.151363,0.26909 -0.395225,0.26909 -0.273294,0 -0.441475,-0.10091 -0.462497,-0.36159 h -0.567611 c 0.0084,0.555 0.475111,0.76943 1.017494,0.76943 0.618065,0 0.992267,-0.2817 0.992267,-0.73579 0,-0.49193 -0.454088,-0.59284 -0.845109,-0.67272 -0.34477,-0.0715 -0.529769,-0.0967 -0.529769,-0.2775 0,-0.13455 0.126136,-0.21443 0.336362,-0.21443 0.239657,0 0.378406,0.0715 0.412043,0.29852 z m 1.618743,-0.63068 h -0.441474 v -0.6559 h -0.592837 v 0.6559 h -0.361589 v 0.40364 h 0.361589 v 1.12681 c 0,0.52977 0.159771,0.66431 0.672723,0.66431 0.134544,0 0.197612,-0.004 0.361588,-0.0168 v -0.45409 c -0.07148,0.008 -0.117726,0.008 -0.180794,0.008 -0.256476,0 -0.26068,-0.0967 -0.26068,-0.30693 v -1.02169 h 0.441474 z m 2.304075,2.16953 c -0.07989,-0.185 -0.07568,-0.39102 -0.07568,-0.58863 v -0.93761 c 0,-0.60545 -0.508747,-0.70636 -0.946017,-0.70636 -0.626473,0 -0.971244,0.24807 -1.00488,0.73159 h 0.559201 c 0.04205,-0.24807 0.155567,-0.33216 0.428861,-0.33216 0.264885,0 0.39102,0.0925 0.39102,0.29011 0,0.17659 -0.142953,0.21023 -0.529769,0.26068 -0.428861,0.0547 -0.946017,0.12194 -0.946017,0.68955 0,0.40783 0.294316,0.6559 0.773632,0.6559 0.26068,0 0.517156,-0.0883 0.702154,-0.27329 0.0084,0.0967 0.01261,0.13034 0.04205,0.21022 z m -0.651701,-1.05533 v 0.24386 c 0,0.31114 -0.218635,0.48352 -0.52977,0.48352 -0.206021,0 -0.327952,-0.10932 -0.327952,-0.29011 0,-0.26489 0.231248,-0.29011 0.43727,-0.32375 0.151363,-0.0252 0.281703,-0.0336 0.420452,-0.11352 z m 3.09032,1.05533 v -1.45056 c 0,-0.50454 -0.294317,-0.77783 -0.752609,-0.77783 -0.30693,0 -0.546588,0.13034 -0.718973,0.36159 v -0.30273 h -0.567611 v 2.16953 h 0.592838 v -1.16465 c 0,-0.31534 0.113522,-0.57181 0.470906,-0.57181 0.319544,0 0.369998,0.20181 0.369998,0.4709 v 1.26556 z m 2.518509,-0.8367 H 59.0406 c -0.04625,0.28591 -0.206022,0.43727 -0.462497,0.43727 -0.319544,0 -0.504543,-0.24806 -0.504543,-0.68113 0,-0.44568 0.193408,-0.70636 0.517156,-0.70636 0.231249,0 0.386816,0.13455 0.428861,0.3742 h 0.584429 c -0.05045,-0.50454 -0.43727,-0.81988 -1.017494,-0.81988 -0.672724,0 -1.114198,0.4625 -1.114198,1.16466 0,0.67692 0.43727,1.1226 1.105789,1.1226 0.576019,0 0.962835,-0.32795 1.038516,-0.89136 z m 2.383961,0.16398 h -0.571815 c -0.08829,0.21864 -0.22284,0.31534 -0.441475,0.31534 -0.319543,0 -0.500338,-0.20182 -0.508747,-0.57602 h 1.555673 v -0.0589 c 0,-0.76102 -0.416248,-1.24034 -1.072153,-1.24034 -0.630678,0 -1.088971,0.48773 -1.088971,1.16045 0,0.68113 0.441475,1.13522 1.109994,1.13522 0.491929,0 0.882949,-0.26488 1.017494,-0.73579 z m -0.571815,-0.63909 h -0.950222 c 0.03364,-0.30272 0.218635,-0.48772 0.48352,-0.48772 0.298521,0 0.441475,0.22284 0.466702,0.48772 z"
         id="path6" /></g><path
       d="m 111.00713,121.18108 h 0.5207 l 0.91723,2.41523 0.88518,-2.41523 h 0.5247 v 2.85181 h -0.35648 v -2.37918 l -0.89319,2.37918 h -0.32844 l -0.90921,-2.37918 v 2.37918 h -0.36049 z m 5.19094,2.19894 q -0.15621,0.72096 -0.9012,0.72096 -0.45661,0 -0.71696,-0.28438 -0.25634,-0.28438 -0.25634,-0.78905 0,-0.50067 0.26435,-0.80908 0.26836,-0.31242 0.69693,-0.31242 0.47664,0 0.70494,0.32443 0.23231,0.32043 0.23231,0.81309 v 0.0481 h -1.55407 l -0.004,0.024 q 0,0.32843 0.17223,0.51669 0.17223,0.18825 0.47263,0.18825 0.2243,0 0.35247,-0.10414 0.13218,-0.10414 0.20428,-0.33645 z m -0.32844,-0.56476 q -0.024,-0.29639 -0.18024,-0.46061 -0.15621,-0.16823 -0.41255,-0.16823 -0.24833,0 -0.41255,0.16823 -0.16422,0.16822 -0.19626,0.46061 z m 1.59814,-0.84913 v 0.28037 h -0.41255 v 1.20561 q 0,0.10014 0,0.13218 0.004,0.032 0.024,0.0881 0.02,0.0521 0.0681,0.0681 0.0481,0.016 0.13618,0.016 0.0761,0 0.18425,-0.012 v 0.29239 q -0.14419,0.016 -0.26035,0.016 -0.14419,0 -0.24032,-0.032 -0.0961,-0.032 -0.1482,-0.0721 -0.0481,-0.0401 -0.0721,-0.14019 -0.024,-0.10414 -0.028,-0.17223 -0.004,-0.0721 -0.004,-0.23631 0,-0.036 0,-0.0561 v -1.09747 h -0.34846 v -0.28037 h 0.34846 v -0.61282 h 0.34046 v 0.61282 z m 1.45394,-0.0481 v 0.35247 q -0.0361,-0.004 -0.0881,-0.004 -0.16421,0 -0.28438,0.0521 -0.12016,0.0481 -0.19225,0.12817 -0.0681,0.0801 -0.11215,0.20027 -0.0441,0.12016 -0.0601,0.24032 -0.012,0.12016 -0.012,0.27236 v 0.87317 h -0.34045 v -2.06676 h 0.32443 v 0.44459 q 0.20427,-0.49265 0.76502,-0.49265 z m 0.61683,-0.73699 v 0.41656 h -0.34446 v -0.41656 z m 0,0.78505 v 2.06676 h -0.34446 v -2.06676 z m 2.30708,1.31375 q -0.0441,0.3725 -0.28438,0.5928 -0.23632,0.22029 -0.61683,0.22029 -0.46862,0 -0.72496,-0.28838 -0.25635,-0.2924 -0.25635,-0.77704 0,-0.51669 0.26836,-0.81709 0.26836,-0.30441 0.72497,-0.30441 0.38051,0 0.60881,0.19226 0.22831,0.18825 0.26836,0.54072 h -0.35247 q -0.0921,-0.4486 -0.52069,-0.4486 -0.2964,0 -0.46863,0.22029 -0.17223,0.21629 -0.17223,0.58879 0,0.3765 0.16422,0.59279 0.16422,0.21629 0.4526,0.21629 0.23231,0 0.37651,-0.13618 0.14819,-0.13618 0.18825,-0.39253 z m 1.90655,-0.71295 h -0.34046 q -0.032,-0.3765 -0.50467,-0.3765 -0.19626,0 -0.30841,0.0761 -0.11215,0.0761 -0.11215,0.20427 0,0.0361 0.008,0.0721 0.008,0.032 0.028,0.0601 0.024,0.024 0.04,0.0441 0.02,0.02 0.0601,0.04 0.0441,0.016 0.0641,0.028 0.024,0.012 0.0801,0.028 0.0601,0.012 0.0841,0.02 0.024,0.004 0.0921,0.02 0.0721,0.016 0.0921,0.02 0.1482,0.032 0.22029,0.0521 0.0761,0.02 0.20428,0.0761 0.13217,0.0521 0.20027,0.11215 0.0681,0.0561 0.12016,0.16021 0.0561,0.10014 0.0561,0.22831 0,0.3004 -0.23632,0.48465 -0.23231,0.18024 -0.62082,0.18024 -0.42057,0 -0.64887,-0.18425 -0.2243,-0.18425 -0.24032,-0.53271 h 0.33645 q 0.028,0.43658 0.56075,0.43658 0.2283,0 0.36448,-0.0921 0.14019,-0.0961 0.14019,-0.25234 0,-0.10414 -0.0721,-0.17223 -0.0721,-0.0681 -0.16021,-0.0961 -0.0881,-0.032 -0.25234,-0.0721 -0.024,-0.004 -0.0361,-0.008 -0.036,-0.008 -0.1562,-0.032 -0.11616,-0.028 -0.16823,-0.0441 -0.0521,-0.016 -0.1522,-0.0481 -0.0961,-0.0361 -0.14419,-0.0721 -0.0481,-0.04 -0.10815,-0.0961 -0.0561,-0.0601 -0.0801,-0.13619 -0.024,-0.0801 -0.024,-0.18024 0,-0.28037 0.21229,-0.44459 0.21628,-0.16422 0.57677,-0.16422 0.36448,0 0.59279,0.17223 0.23231,0.17223 0.23231,0.48865 z m 1.90254,-0.6008 v 0.3004 q 0.13618,-0.18425 0.29239,-0.26836 0.15621,-0.0841 0.38051,-0.0841 0.42457,0 0.57276,0.35648 0.26836,-0.36049 0.68492,-0.36049 0.32043,0 0.48465,0.18025 0.16822,0.17623 0.16822,0.49666 v 1.44593 h -0.34045 v -1.30174 q 0,-0.25634 -0.0801,-0.38451 -0.0801,-0.13218 -0.33245,-0.13218 -0.5287,0 -0.5287,0.64486 v 1.17357 h -0.34046 v -1.32577 q 0,-0.23632 -0.0801,-0.36048 -0.0761,-0.12817 -0.3004,-0.12817 -0.31643,0 -0.44059,0.19626 -0.12016,0.19226 -0.12016,0.5247 v 1.09346 h -0.34046 v -2.06676 z m 3.26036,0.23632 q 0.27236,-0.2964 0.74099,-0.2964 0.46862,0 0.72897,0.28438 0.26035,0.28438 0.26035,0.79706 0,0.5247 -0.26035,0.8171 -0.26035,0.29239 -0.73298,0.29239 -0.47263,0 -0.74099,-0.28839 -0.26836,-0.28838 -0.26836,-0.80107 0,-0.50868 0.27237,-0.80507 z m 1.20561,0.20827 q -0.17223,-0.22029 -0.47263,-0.22029 -0.30041,0 -0.47664,0.22029 -0.17624,0.2203 -0.17624,0.58879 0,0.38051 0.17223,0.5968 0.17624,0.21228 0.48866,0.21228 0.3004,0 0.46862,-0.21629 0.17223,-0.21629 0.17223,-0.5968 0,-0.36849 -0.17623,-0.58478 z m 2.79172,-1.22964 v 2.85181 h -0.32042 v -0.30441 q -0.19627,0.36049 -0.68091,0.36049 -0.44059,0 -0.70094,-0.2924 -0.25634,-0.29639 -0.25634,-0.80107 0,-0.46862 0.24032,-0.77703 0.24432,-0.31242 0.70093,-0.31242 0.4446,0 0.67691,0.33645 v -1.06142 z m -0.9733,1.01736 q -0.29239,0 -0.46462,0.21228 -0.16822,0.21229 -0.16822,0.57677 0,0.37651 0.17223,0.60081 0.17623,0.22029 0.46862,0.22029 0.2964,0 0.46462,-0.21228 0.16823,-0.21629 0.16823,-0.5968 0,-0.34045 -0.16021,-0.56876 -0.15621,-0.23231 -0.48065,-0.23231 z m 3.20028,-0.23231 v 2.06676 h -0.31642 v -0.32443 q -0.26436,0.38051 -0.71296,0.38051 -0.32843,0 -0.50868,-0.18025 -0.18024,-0.18024 -0.18024,-0.52069 v -1.4219 h 0.34046 v 1.32978 q 0,0.24432 0.0921,0.37249 0.0961,0.12417 0.34046,0.12417 0.6048,0 0.6048,-0.745 v -1.08144 z m 0.87317,-0.78505 v 2.85181 h -0.34446 v -2.85181 z m 2.29506,2.19894 q -0.15621,0.72096 -0.9012,0.72096 -0.45661,0 -0.71696,-0.28438 -0.25634,-0.28438 -0.25634,-0.78905 0,-0.50067 0.26435,-0.80908 0.26836,-0.31242 0.69693,-0.31242 0.47664,0 0.70494,0.32443 0.23231,0.32043 0.23231,0.81309 v 0.0481 h -1.55407 l -0.004,0.024 q 0,0.32843 0.17223,0.51669 0.17223,0.18825 0.47263,0.18825 0.2243,0 0.35248,-0.10414 0.13217,-0.10414 0.20427,-0.33645 z m -0.32844,-0.56476 q -0.024,-0.29639 -0.18024,-0.46061 -0.15621,-0.16823 -0.41255,-0.16823 -0.24833,0 -0.41255,0.16823 -0.16422,0.16822 -0.19626,0.46061 z"
       id="text3"
       style="font-size:4.00535px;line-height:1.25;font-family:HelveticaNeueCyr;-inkscape-font-specification:HelveticaNeueCyr;stroke-width:0.264583"
       aria-label="Metrics module" /></g></svg>
