<?xml version="1.0" encoding="UTF-8" standalone="no"?>
<!-- Created with Inkscape (http://www.inkscape.org/) -->

<svg
   width="70.791969mm"
   height="48.655609mm"
   viewBox="0 0 70.791969 48.655609"
   version="1.1"
   id="svg1"
   sodipodi:docname="inner_join.svg"
   inkscape:version="1.3.2 (091e20ef0f, 2023-11-25)"
   xmlns:inkscape="http://www.inkscape.org/namespaces/inkscape"
   xmlns:sodipodi="http://sodipodi.sourceforge.net/DTD/sodipodi-0.dtd"
   xmlns="http://www.w3.org/2000/svg"
   xmlns:svg="http://www.w3.org/2000/svg">
  <sodipodi:namedview
     id="namedview1"
     pagecolor="#ffffff"
     bordercolor="#666666"
     borderopacity="1.0"
     inkscape:showpageshadow="2"
     inkscape:pageopacity="0.0"
     inkscape:pagecheckerboard="0"
     inkscape:deskcolor="#d1d1d1"
     inkscape:document-units="mm"
     inkscape:zoom="1"
     inkscape:cx="-114.5"
     inkscape:cy="-204.5"
     inkscape:window-width="1854"
     inkscape:window-height="1011"
     inkscape:window-x="66"
     inkscape:window-y="32"
     inkscape:window-maximized="1"
     inkscape:current-layer="layer1" />
  <defs
     id="defs1" />
  <g
     inkscape:label="Layer 1"
     inkscape:groupmode="layer"
     id="layer1"
     transform="translate(-53.31879,-100.56659)">
    <g
       id="g4">
      <ellipse
         style="fill:none;fill-opacity:1;stroke:#000000;stroke-width:0.489;stroke-dasharray:none"
         id="ellipse2"
         cx="74.573708"
         cy="128.54176"
         rx="21.010418"
         ry="20.435934" />
      <ellipse
         style="fill:none;stroke:#000000;stroke-width:0.489;stroke-dasharray:none"
         id="ellipse3"
         cx="102.85584"
         cy="128.54176"
         rx="21.010418"
         ry="20.435934" />
      <path
         d="m 55.033094,101.78842 v 0.43637 h -0.642086 v 1.87639 q 0,0.15585 0,0.20572 0.0062,0.0499 0.0374,0.13714 0.03117,0.081 0.105975,0.10598 0.07481,0.0249 0.211951,0.0249 0.118443,0 0.286757,-0.0187 v 0.45507 q -0.224419,0.0249 -0.4052,0.0249 -0.224419,0 -0.374031,-0.0499 -0.149613,-0.0499 -0.230653,-0.11221 -0.07481,-0.0623 -0.112209,-0.21819 -0.0374,-0.16208 -0.04364,-0.26805 -0.0062,-0.11221 -0.0062,-0.3678 0,-0.0561 0,-0.0873 v -1.70808 h -0.542345 v -0.43637 h 0.542345 v -0.95378 h 0.529878 v 0.95378 z m 3.434855,2.79277 v 0.41143 q -0.16208,0.0623 -0.361564,0.0623 -0.455071,0 -0.467538,-0.47377 -0.455071,0.51117 -1.16573,0.51117 -0.473773,0 -0.754296,-0.24312 -0.274289,-0.24312 -0.274289,-0.66702 0,-0.86027 1.140794,-1.00365 0.673256,-0.081 0.779231,-0.11844 0.224419,-0.0748 0.24312,-0.31169 0.0062,-0.0374 0.0062,-0.081 0,-0.52988 -0.72936,-0.52988 -0.374031,0 -0.56728,0.15584 -0.19325,0.14962 -0.230653,0.49871 h -0.517409 q 0.01247,-0.51741 0.367797,-0.80416 0.355329,-0.28676 0.978714,-0.28676 0.67949,0 1.009884,0.31169 0.105975,0.0997 0.155846,0.26182 0.04987,0.16208 0.05611,0.26806 0.0062,0.0997 0.0062,0.30546 0,0.24312 -0.01247,0.72312 -0.01247,0.47378 -0.01247,0.71066 0,0.17455 0.04364,0.24936 0.04987,0.0686 0.174548,0.0686 0.04987,0 0.130911,-0.0187 z m -0.854038,-1.24677 q -0.0561,0.0436 -0.118443,0.0748 -0.06234,0.0312 -0.16208,0.0499 -0.09351,0.0187 -0.130911,0.0312 -0.03117,0.006 -0.16208,0.0249 -0.130911,0.0125 -0.137145,0.0125 -0.193249,0.0249 -0.255587,0.0374 -0.05611,0.006 -0.224419,0.0499 -0.16208,0.0436 -0.230652,0.0997 -0.06857,0.0561 -0.137145,0.16832 -0.06234,0.10597 -0.06234,0.25558 0,0.24936 0.168314,0.39274 0.174548,0.14337 0.473773,0.14337 0.380265,0 0.67949,-0.22441 0.299224,-0.22442 0.299224,-0.52988 z m 1.876393,-2.76783 v 1.66444 q 0.349096,-0.52988 1.065989,-0.52988 0.660788,0 1.05352,0.4613 0.398967,0.45507 0.398967,1.22184 0,0.77923 -0.4052,1.24677 -0.405201,0.46754 -1.078456,0.46754 -0.766764,0 -1.065989,-0.56105 v 0.46754 h -0.498708 v -4.4385 z m 0.984949,1.5834 q -0.511176,0 -0.76053,0.36779 -0.24312,0.3678 -0.24312,0.90391 0,0.56728 0.268055,0.90391 0.27429,0.33039 0.735595,0.33039 0.442603,0 0.710659,-0.34286 0.274289,-0.34909 0.274289,-0.92261 0,-0.56728 -0.268055,-0.90391 -0.268056,-0.33662 -0.716893,-0.33662 z m 2.74913,-1.5834 v 4.4385 h -0.536111 v -4.4385 z m 3.571997,3.42238 q -0.24312,1.12209 -1.402616,1.12209 -0.710659,0 -1.115859,-0.4426 -0.398967,-0.4426 -0.398967,-1.22807 0,-0.77923 0.411434,-1.25924 0.417668,-0.48624 1.08469,-0.48624 0.741828,0 1.097158,0.50495 0.361563,0.4987 0.361563,1.26547 v 0.0748 h -2.418734 l -0.0062,0.0374 q 0,0.51117 0.268055,0.80416 0.268056,0.29299 0.735594,0.29299 0.349096,0 0.548579,-0.16208 0.205717,-0.16208 0.317927,-0.52364 z M 66.285204,103.11 q -0.0374,-0.46131 -0.280523,-0.71689 -0.24312,-0.26183 -0.642086,-0.26183 -0.386499,0 -0.642087,0.26183 -0.255588,0.26182 -0.305459,0.71689 z m 4.675391,-2.51848 v 4.41357 h -0.579748 v -3.19797 h -1.109625 v -0.39896 q 0.536111,0 0.847804,-0.17455 0.317926,-0.17455 0.423901,-0.64209 z"
         id="text3"
         style="font-size:6.23385px;line-height:1.25;font-family:HelveticaNeueCyr;-inkscape-font-specification:HelveticaNeueCyr;stroke-width:0.155847"
         aria-label="table 1" />
      <path
         d="m 107.34169,101.78842 v 0.43637 h -0.64209 v 1.87639 q 0,0.15585 0,0.20572 0.006,0.0499 0.0374,0.13714 0.0312,0.081 0.10598,0.10598 0.0748,0.0249 0.21195,0.0249 0.11844,0 0.28676,-0.0187 v 0.45507 q -0.22442,0.0249 -0.4052,0.0249 -0.22442,0 -0.37403,-0.0499 -0.14962,-0.0499 -0.23066,-0.11221 -0.0748,-0.0623 -0.11221,-0.21819 -0.0374,-0.16208 -0.0436,-0.26805 -0.006,-0.11221 -0.006,-0.3678 0,-0.0561 0,-0.0873 v -1.70808 h -0.54234 v -0.43637 h 0.54234 v -0.95378 h 0.52988 v 0.95378 z m 3.43485,2.79277 v 0.41143 q -0.16208,0.0623 -0.36156,0.0623 -0.45507,0 -0.46754,-0.47377 -0.45507,0.51117 -1.16573,0.51117 -0.47377,0 -0.7543,-0.24312 -0.27428,-0.24312 -0.27428,-0.66702 0,-0.86027 1.14079,-1.00365 0.67326,-0.081 0.77923,-0.11844 0.22442,-0.0748 0.24312,-0.31169 0.006,-0.0374 0.006,-0.081 0,-0.52988 -0.72937,-0.52988 -0.37403,0 -0.56728,0.15584 -0.19325,0.14962 -0.23065,0.49871 h -0.51741 q 0.0125,-0.51741 0.3678,-0.80416 0.35533,-0.28676 0.97871,-0.28676 0.67949,0 1.00989,0.31169 0.10597,0.0997 0.15584,0.26182 0.0499,0.16208 0.0561,0.26806 0.006,0.0997 0.006,0.30546 0,0.24312 -0.0125,0.72312 -0.0125,0.47378 -0.0125,0.71066 0,0.17455 0.0436,0.24936 0.0499,0.0686 0.17455,0.0686 0.0499,0 0.13091,-0.0187 z m -0.85403,-1.24677 q -0.0561,0.0436 -0.11845,0.0748 -0.0623,0.0312 -0.16208,0.0499 -0.0935,0.0187 -0.13091,0.0312 -0.0312,0.006 -0.16208,0.0249 -0.13091,0.0125 -0.13714,0.0125 -0.19325,0.0249 -0.25559,0.0374 -0.0561,0.006 -0.22442,0.0499 -0.16208,0.0436 -0.23065,0.0997 -0.0686,0.0561 -0.13715,0.16832 -0.0623,0.10597 -0.0623,0.25558 0,0.24936 0.16832,0.39274 0.17455,0.14337 0.47377,0.14337 0.38027,0 0.67949,-0.22441 0.29923,-0.22442 0.29923,-0.52988 z m 1.87639,-2.76783 v 1.66444 q 0.34909,-0.52988 1.06599,-0.52988 0.66078,0 1.05352,0.4613 0.39896,0.45507 0.39896,1.22184 0,0.77923 -0.4052,1.24677 -0.4052,0.46754 -1.07845,0.46754 -0.76677,0 -1.06599,-0.56105 v 0.46754 h -0.49871 v -4.4385 z m 0.98495,1.5834 q -0.51118,0 -0.76053,0.36779 -0.24312,0.3678 -0.24312,0.90391 0,0.56728 0.26805,0.90391 0.27429,0.33039 0.7356,0.33039 0.4426,0 0.71066,-0.34286 0.27428,-0.34909 0.27428,-0.92261 0,-0.56728 -0.26805,-0.90391 -0.26806,-0.33662 -0.71689,-0.33662 z m 2.74913,-1.5834 v 4.4385 h -0.53611 v -4.4385 z m 3.57199,3.42238 q -0.24312,1.12209 -1.40261,1.12209 -0.71066,0 -1.11586,-0.4426 -0.39897,-0.4426 -0.39897,-1.22807 0,-0.77923 0.41144,-1.25924 0.41766,-0.48624 1.08469,-0.48624 0.74182,0 1.09715,0.50495 0.36157,0.4987 0.36157,1.26547 v 0.0748 h -2.41874 l -0.006,0.0374 q 0,0.51117 0.26805,0.80416 0.26806,0.29299 0.7356,0.29299 0.34909,0 0.54858,-0.16208 0.20572,-0.16208 0.31792,-0.52364 z M 118.5938,103.11 q -0.0374,-0.46131 -0.28053,-0.71689 -0.24312,-0.26183 -0.64208,-0.26183 -0.3865,0 -0.64209,0.26183 -0.25559,0.26182 -0.30546,0.71689 z m 5.47956,1.41508 v 0.48001 h -2.88004 q 0.0187,-0.3678 0.11221,-0.64209 0.0935,-0.27429 0.28675,-0.49247 0.19949,-0.22442 0.3865,-0.3678 0.18702,-0.14338 0.52988,-0.35533 0.53611,-0.33663 0.70442,-0.50494 0.3491,-0.34286 0.3491,-0.76053 0,-0.3678 -0.23689,-0.59845 -0.23688,-0.23689 -0.61715,-0.23689 -0.45507,0 -0.65455,0.31793 -0.19325,0.31169 -0.20572,0.7917 h -0.53611 v -0.11844 q 0,-0.65456 0.3865,-1.05352 0.39273,-0.39897 1.03482,-0.39897 0.62962,0 1.00365,0.34909 0.37403,0.3491 0.37403,0.93508 0,0.24936 -0.0873,0.47377 -0.081,0.21819 -0.18701,0.3678 -0.0997,0.14961 -0.31169,0.31793 -0.20572,0.16831 -0.34286,0.26182 -0.13715,0.0873 -0.39274,0.24312 -0.51117,0.30546 -0.67949,0.47377 -0.23688,0.23066 -0.30546,0.51741 z"
         id="text4"
         style="font-size:6.23385px;line-height:1.25;font-family:HelveticaNeueCyr;-inkscape-font-specification:HelveticaNeueCyr;stroke-width:0.155847"
         aria-label="table 2" />
      <path
         id="ellipse2-5"
         style="fill:#ff0000;fill-opacity:1;stroke:#000000;stroke-width:0.489;stroke-dasharray:none"
         d="m 88.715041,113.42753 a 21.010418,20.435934 0 0 0 -6.89053,15.09314 21.010418,20.435934 0 0 0 6.86934,15.07298 21.010418,20.435934 0 0 0 6.86935,-15.07298 21.010418,20.435934 0 0 0 -6.84816,-15.09314 z" />
    </g>
  </g>
</svg>
