<?xml version="1.0" encoding="UTF-8" standalone="no"?>
<!-- Created with Inkscape (http://www.inkscape.org/) -->

<svg
   width="126.68432mm"
   height="70.947929mm"
   viewBox="0 0 126.68432 70.947929"
   version="1.1"
   id="svg1"
   sodipodi:docname="multiple_joins.svg"
   inkscape:version="1.3.2 (091e20ef0f, 2023-11-25)"
   xmlns:inkscape="http://www.inkscape.org/namespaces/inkscape"
   xmlns:sodipodi="http://sodipodi.sourceforge.net/DTD/sodipodi-0.dtd"
   xmlns="http://www.w3.org/2000/svg"
   xmlns:svg="http://www.w3.org/2000/svg">
  <sodipodi:namedview
     id="namedview1"
     pagecolor="#ffffff"
     bordercolor="#666666"
     borderopacity="1.0"
     inkscape:showpageshadow="2"
     inkscape:pageopacity="0.0"
     inkscape:pagecheckerboard="0"
     inkscape:deskcolor="#d1d1d1"
     inkscape:document-units="mm"
     inkscape:zoom="1.4142136"
     inkscape:cx="159.45257"
     inkscape:cy="124.09724"
     inkscape:window-width="1920"
     inkscape:window-height="1034"
     inkscape:window-x="0"
     inkscape:window-y="23"
     inkscape:window-maximized="1"
     inkscape:current-layer="layer1" />
  <defs
     id="defs1" />
  <g
     inkscape:label="Layer 1"
     inkscape:groupmode="layer"
     id="layer1"
     transform="translate(-68.079131,-135.46148)">
    <g
       id="g2">
      <path
         id="ellipse4"
         style="fill:none;stroke:#000000;stroke-width:0.489"
         d="m 144.38301,185.72897 a 21.010418,20.435934 0 0 1 -21.01042,20.43594 21.010418,20.435934 0 0 1 -21.01041,-20.43594 21.010418,20.435934 0 0 1 21.01041,-20.43593 21.010418,20.435934 0 0 1 21.01042,20.43593 z" />
      <path
         id="ellipse4-5"
         style="fill:#ff0000;stroke:#000000;stroke-width:0.489;fill-opacity:1"
         d="M 117.21928 166.20534 A 21.010418 20.435934 0 0 0 102.36231 185.72921 A 21.010418 20.435934 0 0 0 123.3724 206.16466 A 21.010418 20.435934 0 0 0 138.03817 200.29111 A 21.010418 20.435934 0 0 0 138.07124 200.32574 A 21.010418 20.435934 0 0 0 138.90737 199.4462 A 21.010418 20.435934 0 0 0 139.3616 198.9682 A 21.010418 20.435934 0 0 0 140.90414 196.96367 A 21.010418 20.435934 0 0 0 141.27725 196.36836 A 21.010418 20.435934 0 0 0 142.25703 194.62376 A 21.010418 20.435934 0 0 0 142.57949 193.97005 A 21.010418 20.435934 0 0 0 143.489 191.59862 A 21.010418 20.435934 0 0 0 143.61302 191.12423 A 21.010418 20.435934 0 0 0 144.08276 189.02359 A 21.010418 20.435934 0 0 0 144.19283 188.31097 A 21.010418 20.435934 0 0 0 144.383 185.72921 A 21.010418 20.435934 0 0 0 144.2011 183.25288 A 21.010418 20.435934 0 0 0 144.19076 183.11542 A 21.010418 20.435934 0 0 1 144.1794 183.118 A 21.010418 20.435934 0 0 0 138.03713 171.16576 A 21.010418 20.435934 0 0 0 131.89487 183.11697 A 21.010418 20.435934 0 0 1 117.21928 166.20534 z " />
      <path
         id="ellipse5"
         style="fill:none;stroke:#000000;stroke-width:0.489"
         d="m 173.71253,185.72897 a 21.010418,20.435934 0 0 1 -21.01042,20.43594 21.010418,20.435934 0 0 1 -21.01042,-20.43594 21.010418,20.435934 0 0 1 21.01042,-20.43593 21.010418,20.435934 0 0 1 21.01042,20.43593 z" />
      <path
         id="ellipse7"
         style="fill:none;stroke:#000000;stroke-width:0.489"
         d="m 159.04776,163.59198 a 21.010418,20.435934 0 0 1 -21.01042,20.43593 21.010418,20.435934 0 0 1 -21.01042,-20.43593 21.010418,20.435934 0 0 1 21.01042,-20.43593 21.010418,20.435934 0 0 1 21.01042,20.43593 z" />
    </g>
    <path
       d="m 71.113762,197.19633 q -0.07102,0.60047 -0.458423,0.95559 -0.380943,0.35512 -0.994326,0.35512 -0.755429,0 -1.168655,-0.46488 -0.413227,-0.47134 -0.413227,-1.25259 0,-0.83291 0.432597,-1.31716 0.432596,-0.49071 1.168655,-0.49071 0.613383,0 0.981412,0.30992 0.36803,0.30346 0.432597,0.87165 h -0.568186 q -0.148504,-0.72315 -0.839366,-0.72315 -0.477793,0 -0.755429,0.35512 -0.277637,0.34866 -0.277637,0.94913 0,0.60692 0.264723,0.95558 0.264723,0.34866 0.729603,0.34866 0.374486,0 0.606926,-0.21952 0.238896,-0.21953 0.303463,-0.63276 z m 1.149289,-3.38329 v 1.73685 q 0.36803,-0.55528 1.091176,-0.55528 1.123459,0 1.123459,1.13638 v 2.2792 h -0.548817 v -2.15007 q 0,-0.38094 -0.161416,-0.5811 -0.15496,-0.20661 -0.568186,-0.20661 -0.50362,0 -0.723146,0.32283 -0.21307,0.32283 -0.21307,0.9233 v 1.69165 h -0.548816 v -4.59715 z m 5.991779,4.15809 v 0.42614 q -0.167873,0.0646 -0.374486,0.0646 -0.471337,0 -0.48425,-0.49071 -0.471336,0.52945 -1.207395,0.52945 -0.490706,0 -0.781256,-0.25181 -0.284093,-0.25181 -0.284093,-0.69086 0,-0.89102 1.181569,-1.03952 0.697319,-0.0839 0.807082,-0.12268 0.23244,-0.0775 0.25181,-0.32283 0.0065,-0.0387 0.0065,-0.0839 0,-0.54882 -0.75543,-0.54882 -0.387399,0 -0.587556,0.16142 -0.200156,0.15496 -0.238896,0.51653 h -0.535903 q 0.01291,-0.5359 0.380943,-0.83291 0.36803,-0.297 1.013696,-0.297 0.703776,0 1.045978,0.32283 0.109764,0.10331 0.161417,0.27118 0.05165,0.16787 0.05811,0.27764 0.0065,0.1033 0.0065,0.31637 0,0.25181 -0.01291,0.74898 -0.01291,0.4907 -0.01291,0.73605 0,0.18079 0.0452,0.25827 0.05165,0.071 0.180786,0.071 0.05165,0 0.13559,-0.0194 z m -0.884562,-1.29133 q -0.05811,0.0452 -0.122677,0.0775 -0.06457,0.0323 -0.167873,0.0517 -0.09685,0.0194 -0.13559,0.0323 -0.03228,0.006 -0.167873,0.0258 -0.13559,0.0129 -0.142047,0.0129 -0.200156,0.0258 -0.264723,0.0387 -0.05811,0.006 -0.23244,0.0516 -0.167873,0.0452 -0.238896,0.10331 -0.07102,0.0581 -0.142046,0.17433 -0.06457,0.10976 -0.06457,0.26472 0,0.25827 0.17433,0.40677 0.180786,0.1485 0.490706,0.1485 0.393856,0 0.703776,-0.23244 0.30992,-0.23244 0.30992,-0.54881 z m 3.137941,-1.67873 v 0.56819 q -0.05811,-0.006 -0.142047,-0.006 -0.264723,0 -0.458423,0.0839 -0.193699,0.0775 -0.309919,0.20661 -0.109764,0.12913 -0.180787,0.32283 -0.07102,0.1937 -0.09685,0.3874 -0.01937,0.1937 -0.01937,0.43905 v 1.40756 h -0.548816 v -3.33164 h 0.52299 v 0.71669 q 0.329289,-0.79417 1.233222,-0.79417 z m 3.36392,2.97006 v 0.42614 q -0.167873,0.0646 -0.374486,0.0646 -0.471336,0 -0.48425,-0.49071 -0.471336,0.52945 -1.207395,0.52945 -0.490706,0 -0.781256,-0.25181 -0.284093,-0.25181 -0.284093,-0.69086 0,-0.89102 1.181569,-1.03952 0.697319,-0.0839 0.807082,-0.12268 0.23244,-0.0775 0.25181,-0.32283 0.0065,-0.0387 0.0065,-0.0839 0,-0.54882 -0.75543,-0.54882 -0.387399,0 -0.587556,0.16142 -0.200156,0.15496 -0.238896,0.51653 h -0.535903 q 0.01291,-0.5359 0.380943,-0.83291 0.36803,-0.297 1.013696,-0.297 0.703776,0 1.045979,0.32283 0.109763,0.10331 0.161416,0.27118 0.05165,0.16787 0.05811,0.27764 0.0065,0.1033 0.0065,0.31637 0,0.25181 -0.01291,0.74898 -0.01291,0.4907 -0.01291,0.73605 0,0.18079 0.0452,0.25827 0.05165,0.071 0.180786,0.071 0.05165,0 0.13559,-0.0194 z m -0.884562,-1.29133 q -0.05811,0.0452 -0.122677,0.0775 -0.06457,0.0323 -0.167873,0.0517 -0.09685,0.0194 -0.13559,0.0323 -0.03228,0.006 -0.167873,0.0258 -0.13559,0.0129 -0.142047,0.0129 -0.200156,0.0258 -0.264723,0.0387 -0.05811,0.006 -0.232439,0.0516 -0.167874,0.0452 -0.238897,0.10331 -0.07102,0.0581 -0.142046,0.17433 -0.06457,0.10976 -0.06457,0.26472 0,0.25827 0.17433,0.40677 0.180786,0.1485 0.490706,0.1485 0.393856,0 0.703776,-0.23244 0.30992,-0.23244 0.30992,-0.54881 z m 4.267857,0.51653 q -0.07102,0.60047 -0.458423,0.95559 -0.380943,0.35512 -0.994325,0.35512 -0.755429,0 -1.168656,-0.46488 -0.413226,-0.47134 -0.413226,-1.25259 0,-0.83291 0.432596,-1.31716 0.432596,-0.49071 1.168656,-0.49071 0.613382,0 0.981412,0.30992 0.36803,0.30346 0.432596,0.87165 h -0.568186 q -0.148503,-0.72315 -0.839366,-0.72315 -0.477792,0 -0.755429,0.35512 -0.277636,0.34866 -0.277636,0.94913 0,0.60692 0.264723,0.95558 0.264723,0.34866 0.729602,0.34866 0.374487,0 0.606926,-0.21952 0.238897,-0.21953 0.303463,-0.63276 z m 2.027395,-2.11778 v 0.45197 h -0.665036 v 1.94345 q 0,0.16142 0,0.21307 0.0065,0.0516 0.03874,0.14205 0.03228,0.0839 0.109763,0.10976 0.07748,0.0258 0.219527,0.0258 0.122676,0 0.297006,-0.0194 v 0.47133 q -0.23244,0.0258 -0.419683,0.0258 -0.23244,0 -0.3874,-0.0516 -0.154959,-0.0517 -0.238896,-0.11622 -0.07748,-0.0646 -0.11622,-0.22599 -0.03874,-0.16787 -0.0452,-0.27763 -0.0065,-0.11622 -0.0065,-0.38095 0,-0.0581 0,-0.0904 v -1.76912 h -0.56173 v -0.45197 h 0.56173 v -0.98787 h 0.548816 v 0.98787 z m 3.454317,2.2792 q -0.25181,1.1622 -1.452749,1.1622 -0.736059,0 -1.155742,-0.45842 -0.413226,-0.45843 -0.413226,-1.27196 0,-0.80709 0.426139,-1.30425 0.432597,-0.50362 1.123459,-0.50362 0.768343,0 1.136372,0.52299 0.374487,0.51653 0.374487,1.3107 v 0.0775 h -2.505184 l -0.0065,0.0387 q 0,0.52945 0.277636,0.83291 0.277637,0.30346 0.761886,0.30346 0.361573,0 0.568186,-0.16787 0.21307,-0.16787 0.32929,-0.54236 z m -0.529446,-0.91039 q -0.03874,-0.47779 -0.29055,-0.74251 -0.25181,-0.27118 -0.665036,-0.27118 -0.400313,0 -0.665036,0.27118 -0.264723,0.27118 -0.316376,0.74251 z m 2.88613,-1.44629 v 0.56819 q -0.05811,-0.006 -0.142047,-0.006 -0.264723,0 -0.458422,0.0839 -0.1937,0.0775 -0.30992,0.20661 -0.109763,0.12913 -0.180787,0.32283 -0.07102,0.1937 -0.09685,0.3874 -0.01937,0.1937 -0.01937,0.43905 v 1.40756 h -0.548816 v -3.33164 h 0.522989 v 0.71669 q 0.32929,-0.79417 1.233222,-0.79417 z m 2.886129,1.04598 h -0.548816 q -0.05165,-0.60693 -0.813539,-0.60693 -0.316376,0 -0.497163,0.12268 -0.180786,0.12268 -0.180786,0.32929 0,0.0581 0.01291,0.11622 0.01291,0.0516 0.0452,0.0969 0.03874,0.0387 0.06457,0.071 0.03228,0.0323 0.09685,0.0646 0.07102,0.0258 0.103307,0.0452 0.03874,0.0194 0.129133,0.0452 0.09685,0.0194 0.13559,0.0323 0.03874,0.006 0.148503,0.0323 0.11622,0.0258 0.148503,0.0323 0.238897,0.0517 0.355117,0.0839 0.122676,0.0323 0.329289,0.12268 0.21307,0.0839 0.322833,0.18078 0.109763,0.0904 0.1937,0.25827 0.09039,0.16141 0.09039,0.36803 0,0.48425 -0.380943,0.78125 -0.374486,0.29055 -1.000782,0.29055 -0.677949,0 -1.045979,-0.297 -0.361573,-0.29701 -0.387399,-0.85874 h 0.542359 q 0.0452,0.70378 0.903932,0.70378 0.36803,0 0.587556,-0.14851 0.225984,-0.15496 0.225984,-0.40677 0,-0.16787 -0.11622,-0.27763 -0.11622,-0.10977 -0.258267,-0.15496 -0.142046,-0.0517 -0.406769,-0.11622 -0.03874,-0.006 -0.05811,-0.0129 -0.05811,-0.0129 -0.25181,-0.0517 -0.187243,-0.0452 -0.27118,-0.071 -0.08394,-0.0258 -0.245353,-0.0775 -0.15496,-0.0581 -0.23244,-0.11622 -0.07748,-0.0646 -0.174329,-0.15496 -0.09039,-0.0968 -0.129134,-0.21953 -0.03874,-0.12913 -0.03874,-0.29055 0,-0.45196 0.342202,-0.71669 0.34866,-0.26472 0.929759,-0.26472 0.587557,0 0.955586,0.27764 0.374486,0.27763 0.374486,0.78771 z"
       id="text7"
       style="font-size:6.45666px;line-height:1.25;font-family:HelveticaNeueCyr;-inkscape-font-specification:HelveticaNeueCyr;stroke-width:0.161417"
       aria-label="characters" />
    <path
       d="m 179.68071,197.97113 v 0.42614 q -0.16788,0.0646 -0.37449,0.0646 -0.47133,0 -0.48425,-0.49071 -0.47133,0.52945 -1.20739,0.52945 -0.49071,0 -0.78126,-0.25181 -0.28409,-0.25181 -0.28409,-0.69086 0,-0.89102 1.18157,-1.03952 0.69732,-0.0839 0.80708,-0.12268 0.23244,-0.0775 0.25181,-0.32283 0.006,-0.0387 0.006,-0.0839 0,-0.54882 -0.75543,-0.54882 -0.3874,0 -0.58756,0.16142 -0.20016,0.15496 -0.2389,0.51653 h -0.5359 q 0.0129,-0.5359 0.38094,-0.83291 0.36803,-0.297 1.0137,-0.297 0.70378,0 1.04598,0.32283 0.10976,0.10331 0.16141,0.27118 0.0517,0.16787 0.0581,0.27764 0.006,0.1033 0.006,0.31637 0,0.25181 -0.0129,0.74898 -0.0129,0.4907 -0.0129,0.73605 0,0.18079 0.0452,0.25827 0.0516,0.071 0.18079,0.071 0.0516,0 0.13559,-0.0194 z m -0.88456,-1.29133 q -0.0581,0.0452 -0.12268,0.0775 -0.0646,0.0323 -0.16787,0.0517 -0.0968,0.0194 -0.13559,0.0323 -0.0323,0.006 -0.16788,0.0258 -0.13559,0.0129 -0.14204,0.0129 -0.20016,0.0258 -0.26473,0.0387 -0.0581,0.006 -0.23244,0.0516 -0.16787,0.0452 -0.23889,0.10331 -0.071,0.0581 -0.14205,0.17433 -0.0646,0.10976 -0.0646,0.26472 0,0.25827 0.17433,0.40677 0.18079,0.1485 0.49071,0.1485 0.39386,0 0.70378,-0.23244 0.30992,-0.23244 0.30992,-0.54881 z m 3.874,-0.63275 h -0.54882 q -0.0516,-0.60693 -0.81354,-0.60693 -0.31638,0 -0.49716,0.12268 -0.18079,0.12268 -0.18079,0.32929 0,0.0581 0.0129,0.11622 0.0129,0.0516 0.0452,0.0969 0.0387,0.0387 0.0646,0.071 0.0323,0.0323 0.0968,0.0646 0.071,0.0258 0.1033,0.0452 0.0387,0.0194 0.12914,0.0452 0.0969,0.0194 0.13559,0.0323 0.0387,0.006 0.1485,0.0323 0.11622,0.0258 0.1485,0.0323 0.2389,0.0517 0.35512,0.0839 0.12268,0.0323 0.32929,0.12268 0.21307,0.0839 0.32283,0.18078 0.10977,0.0904 0.1937,0.25827 0.0904,0.16141 0.0904,0.36803 0,0.48425 -0.38095,0.78125 -0.37448,0.29055 -1.00078,0.29055 -0.67795,0 -1.04598,-0.297 -0.36157,-0.29701 -0.3874,-0.85874 h 0.54236 q 0.0452,0.70378 0.90393,0.70378 0.36803,0 0.58756,-0.14851 0.22598,-0.15496 0.22598,-0.40677 0,-0.16787 -0.11622,-0.27763 -0.11622,-0.10977 -0.25826,-0.15496 -0.14205,-0.0517 -0.40677,-0.11622 -0.0387,-0.006 -0.0581,-0.0129 -0.0581,-0.0129 -0.25181,-0.0517 -0.18725,-0.0452 -0.27118,-0.071 -0.0839,-0.0258 -0.24536,-0.0775 -0.15496,-0.0581 -0.23244,-0.11622 -0.0775,-0.0646 -0.17433,-0.15496 -0.0904,-0.0968 -0.12913,-0.21953 -0.0387,-0.12913 -0.0387,-0.29055 0,-0.45196 0.3422,-0.71669 0.34866,-0.26472 0.92976,-0.26472 0.58756,0 0.95559,0.27764 0.37449,0.27763 0.37449,0.78771 z m 3.22833,0 h -0.54882 q -0.0516,-0.60693 -0.81354,-0.60693 -0.31638,0 -0.49716,0.12268 -0.18079,0.12268 -0.18079,0.32929 0,0.0581 0.0129,0.11622 0.0129,0.0516 0.0452,0.0969 0.0387,0.0387 0.0646,0.071 0.0323,0.0323 0.0968,0.0646 0.071,0.0258 0.1033,0.0452 0.0387,0.0194 0.12914,0.0452 0.0969,0.0194 0.13559,0.0323 0.0387,0.006 0.1485,0.0323 0.11622,0.0258 0.1485,0.0323 0.2389,0.0517 0.35512,0.0839 0.12268,0.0323 0.32929,0.12268 0.21307,0.0839 0.32283,0.18078 0.10977,0.0904 0.1937,0.25827 0.0904,0.16141 0.0904,0.36803 0,0.48425 -0.38094,0.78125 -0.37448,0.29055 -1.00078,0.29055 -0.67795,0 -1.04598,-0.297 -0.36157,-0.29701 -0.3874,-0.85874 h 0.54236 q 0.0452,0.70378 0.90393,0.70378 0.36803,0 0.58756,-0.14851 0.22598,-0.15496 0.22598,-0.40677 0,-0.16787 -0.11622,-0.27763 -0.11622,-0.10977 -0.25826,-0.15496 -0.14205,-0.0517 -0.40677,-0.11622 -0.0387,-0.006 -0.0581,-0.0129 -0.0581,-0.0129 -0.25181,-0.0517 -0.18725,-0.0452 -0.27118,-0.071 -0.0839,-0.0258 -0.24536,-0.0775 -0.15496,-0.0581 -0.23244,-0.11622 -0.0775,-0.0646 -0.17433,-0.15496 -0.0904,-0.0968 -0.12913,-0.21953 -0.0387,-0.12913 -0.0387,-0.29055 0,-0.45196 0.3422,-0.71669 0.34866,-0.26472 0.92976,-0.26472 0.58756,0 0.95559,0.27764 0.37449,0.27763 0.37449,0.78771 z m 3.60281,1.3107 q -0.25181,1.1622 -1.45275,1.1622 -0.73606,0 -1.15574,-0.45842 -0.41323,-0.45843 -0.41323,-1.27196 0,-0.80709 0.42614,-1.30425 0.4326,-0.50362 1.12346,-0.50362 0.76835,0 1.13637,0.52299 0.37449,0.51653 0.37449,1.3107 v 0.0775 h -2.50518 l -0.006,0.0387 q 0,0.52945 0.27764,0.83291 0.27763,0.30346 0.76188,0.30346 0.36158,0 0.56819,-0.16787 0.21307,-0.16787 0.32929,-0.54236 z m -0.52945,-0.91039 q -0.0387,-0.47779 -0.29054,-0.74251 -0.25181,-0.27118 -0.66504,-0.27118 -0.40031,0 -0.66504,0.27118 -0.26472,0.27118 -0.31637,0.74251 z m 2.57622,-1.36881 v 0.45197 h -0.66504 v 1.94345 q 0,0.16142 0,0.21307 0.006,0.0516 0.0387,0.14205 0.0323,0.0839 0.10976,0.10976 0.0775,0.0258 0.21953,0.0258 0.12268,0 0.29701,-0.0194 v 0.47133 q -0.23244,0.0258 -0.41969,0.0258 -0.23244,0 -0.3874,-0.0516 -0.15496,-0.0517 -0.23889,-0.11622 -0.0775,-0.0646 -0.11622,-0.22599 -0.0387,-0.16787 -0.0452,-0.27763 -0.006,-0.11622 -0.006,-0.38095 0,-0.0581 0,-0.0904 v -1.76912 h -0.56172 v -0.45197 h 0.56172 v -0.98787 h 0.54882 v 0.98787 z m 3.07983,0.9685 h -0.54882 q -0.0516,-0.60693 -0.81354,-0.60693 -0.31637,0 -0.49716,0.12268 -0.18079,0.12268 -0.18079,0.32929 0,0.0581 0.0129,0.11622 0.0129,0.0516 0.0452,0.0969 0.0387,0.0387 0.0646,0.071 0.0323,0.0323 0.0968,0.0646 0.071,0.0258 0.10331,0.0452 0.0387,0.0194 0.12913,0.0452 0.0969,0.0194 0.13559,0.0323 0.0387,0.006 0.1485,0.0323 0.11622,0.0258 0.14851,0.0323 0.23889,0.0517 0.35511,0.0839 0.12268,0.0323 0.32929,0.12268 0.21307,0.0839 0.32283,0.18078 0.10977,0.0904 0.1937,0.25827 0.0904,0.16141 0.0904,0.36803 0,0.48425 -0.38095,0.78125 -0.37448,0.29055 -1.00078,0.29055 -0.67795,0 -1.04598,-0.297 -0.36157,-0.29701 -0.3874,-0.85874 h 0.54236 q 0.0452,0.70378 0.90394,0.70378 0.36802,0 0.58755,-0.14851 0.22598,-0.15496 0.22598,-0.40677 0,-0.16787 -0.11622,-0.27763 -0.11622,-0.10977 -0.25826,-0.15496 -0.14205,-0.0517 -0.40677,-0.11622 -0.0387,-0.006 -0.0581,-0.0129 -0.0581,-0.0129 -0.25181,-0.0517 -0.18724,-0.0452 -0.27118,-0.071 -0.0839,-0.0258 -0.24535,-0.0775 -0.15496,-0.0581 -0.23244,-0.11622 -0.0775,-0.0646 -0.17433,-0.15496 -0.0904,-0.0968 -0.12914,-0.21953 -0.0387,-0.12913 -0.0387,-0.29055 0,-0.45196 0.34221,-0.71669 0.34866,-0.26472 0.92976,-0.26472 0.58755,0 0.95558,0.27764 0.37449,0.27763 0.37449,0.78771 z"
       id="text8"
       style="font-size:6.45666px;line-height:1.25;font-family:HelveticaNeueCyr;-inkscape-font-specification:HelveticaNeueCyr;stroke-width:0.161417"
       aria-label="assets" />
    <path
       d="m 135.19319,138.56718 q -0.071,0.60047 -0.45842,0.95559 -0.38094,0.35512 -0.99433,0.35512 -0.75543,0 -1.16865,-0.46488 -0.41323,-0.47134 -0.41323,-1.2526 0,-0.8329 0.4326,-1.31715 0.43259,-0.49071 1.16865,-0.49071 0.61339,0 0.98141,0.30992 0.36803,0.30346 0.4326,0.87165 h -0.56818 q -0.14851,-0.72315 -0.83937,-0.72315 -0.47779,0 -0.75543,0.35512 -0.27764,0.34866 -0.27764,0.94913 0,0.60692 0.26473,0.95558 0.26472,0.34866 0.7296,0.34866 0.37449,0 0.60693,-0.21952 0.23889,-0.21953 0.30346,-0.63276 z m 3.55117,0.7748 v 0.42614 q -0.16787,0.0646 -0.37449,0.0646 -0.47133,0 -0.48425,-0.49071 -0.47133,0.52945 -1.20739,0.52945 -0.49071,0 -0.78126,-0.25181 -0.28409,-0.25181 -0.28409,-0.69086 0,-0.89102 1.18157,-1.03952 0.69732,-0.0839 0.80708,-0.12268 0.23244,-0.0775 0.25181,-0.32283 0.006,-0.0387 0.006,-0.0839 0,-0.54882 -0.75543,-0.54882 -0.3874,0 -0.58756,0.16142 -0.20016,0.15496 -0.2389,0.51653 h -0.5359 q 0.0129,-0.5359 0.38094,-0.83291 0.36803,-0.297 1.0137,-0.297 0.70378,0 1.04598,0.32283 0.10976,0.10331 0.16142,0.27118 0.0516,0.16787 0.0581,0.27764 0.006,0.1033 0.006,0.31637 0,0.25181 -0.0129,0.74897 -0.0129,0.49071 -0.0129,0.73606 0,0.18079 0.0452,0.25827 0.0517,0.071 0.18079,0.071 0.0516,0 0.13559,-0.0194 z m -0.88456,-1.29133 q -0.0581,0.0452 -0.12268,0.0775 -0.0646,0.0323 -0.16787,0.0516 -0.0969,0.0194 -0.13559,0.0323 -0.0323,0.006 -0.16788,0.0258 -0.13559,0.0129 -0.14204,0.0129 -0.20016,0.0258 -0.26473,0.0387 -0.0581,0.006 -0.23244,0.0516 -0.16787,0.0452 -0.23889,0.10331 -0.071,0.0581 -0.14205,0.17433 -0.0646,0.10976 -0.0646,0.26472 0,0.25827 0.17433,0.40677 0.18079,0.1485 0.49071,0.1485 0.39386,0 0.70378,-0.23244 0.30992,-0.23244 0.30992,-0.54881 z m 3.874,-0.63275 h -0.54882 q -0.0516,-0.60693 -0.81354,-0.60693 -0.31638,0 -0.49716,0.12268 -0.18079,0.12268 -0.18079,0.32929 0,0.0581 0.0129,0.11622 0.0129,0.0516 0.0452,0.0968 0.0387,0.0387 0.0646,0.071 0.0323,0.0323 0.0968,0.0646 0.071,0.0258 0.1033,0.0452 0.0387,0.0194 0.12914,0.0452 0.0968,0.0194 0.13559,0.0323 0.0387,0.006 0.1485,0.0323 0.11622,0.0258 0.1485,0.0323 0.2389,0.0517 0.35512,0.0839 0.12268,0.0323 0.32929,0.12267 0.21307,0.0839 0.32283,0.18079 0.10977,0.0904 0.1937,0.25827 0.0904,0.16141 0.0904,0.36803 0,0.48425 -0.38095,0.78125 -0.37448,0.29055 -1.00078,0.29055 -0.67795,0 -1.04598,-0.297 -0.36157,-0.29701 -0.3874,-0.85874 h 0.54236 q 0.0452,0.70378 0.90393,0.70378 0.36803,0 0.58756,-0.14851 0.22598,-0.15496 0.22598,-0.40677 0,-0.16787 -0.11622,-0.27763 -0.11622,-0.10977 -0.25826,-0.15496 -0.14205,-0.0517 -0.40677,-0.11622 -0.0387,-0.006 -0.0581,-0.0129 -0.0581,-0.0129 -0.25181,-0.0516 -0.18725,-0.0452 -0.27118,-0.071 -0.0839,-0.0258 -0.24536,-0.0775 -0.15495,-0.0581 -0.23243,-0.11622 -0.0775,-0.0646 -0.17433,-0.15496 -0.0904,-0.0969 -0.12914,-0.21953 -0.0387,-0.12913 -0.0387,-0.29055 0,-0.45196 0.34221,-0.71669 0.34865,-0.26472 0.92975,-0.26472 0.58756,0 0.95559,0.27764 0.37449,0.27763 0.37449,0.78771 z m 2.18235,-0.9685 v 0.45197 h -0.66504 v 1.94345 q 0,0.16142 0,0.21307 0.006,0.0517 0.0387,0.14205 0.0323,0.0839 0.10976,0.10976 0.0775,0.0258 0.21953,0.0258 0.12268,0 0.29701,-0.0194 v 0.47133 q -0.23244,0.0258 -0.41969,0.0258 -0.23244,0 -0.3874,-0.0516 -0.15496,-0.0517 -0.23889,-0.11622 -0.0775,-0.0646 -0.11622,-0.22599 -0.0387,-0.16787 -0.0452,-0.27763 -0.006,-0.11622 -0.006,-0.38095 0,-0.0581 0,-0.0904 v -1.76912 h -0.56173 v -0.45197 h 0.56173 v -0.98787 h 0.54881 v 0.98787 z"
       id="text9"
       style="font-size:6.45666px;line-height:1.25;font-family:HelveticaNeueCyr;-inkscape-font-specification:HelveticaNeueCyr;stroke-width:0.161417"
       aria-label="cast" />
  </g>
</svg>
