<?xml version="1.0" encoding="UTF-8" standalone="no"?>
<!-- Created with Inkscape (http://www.inkscape.org/) -->

<svg
   width="126.68432mm"
   height="70.947929mm"
   viewBox="0 0 126.68432 70.947929"
   version="1.1"
   id="svg1"
   sodipodi:docname="multiple_joins.svg"
   inkscape:version="1.3.2 (091e20ef0f, 2023-11-25)"
   xmlns:inkscape="http://www.inkscape.org/namespaces/inkscape"
   xmlns:sodipodi="http://sodipodi.sourceforge.net/DTD/sodipodi-0.dtd"
   xmlns="http://www.w3.org/2000/svg"
   xmlns:svg="http://www.w3.org/2000/svg">
  <sodipodi:namedview
     id="namedview1"
     pagecolor="#ffffff"
     bordercolor="#666666"
     borderopacity="1.0"
     inkscape:showpageshadow="2"
     inkscape:pageopacity="0.0"
     inkscape:pagecheckerboard="0"
     inkscape:deskcolor="#d1d1d1"
     inkscape:document-units="mm"
     inkscape:zoom="2.0000001"
     inkscape:cx="221.49999"
     inkscape:cy="153.5"
     inkscape:window-width="1858"
     inkscape:window-height="1014"
     inkscape:window-x="62"
     inkscape:window-y="29"
     inkscape:window-maximized="1"
     inkscape:current-layer="layer1" />
  <defs
     id="defs1" />
  <g
     inkscape:label="Layer 1"
     inkscape:groupmode="layer"
     id="layer1"
     transform="translate(-68.079131,-135.46148)">
    <path
       id="ellipse4"
       style="fill:none;stroke:#000000;stroke-width:0.489"
       d="m 144.38301,185.72897 a 21.010418,20.435934 0 0 1 -21.01042,20.43594 21.010418,20.435934 0 0 1 -21.01041,-20.43594 21.010418,20.435934 0 0 1 21.01041,-20.43593 21.010418,20.435934 0 0 1 21.01042,20.43593 z" />
    <path
       id="ellipse5"
       style="fill:none;stroke:#000000;stroke-width:0.489"
       d="m 173.71253,185.72897 a 21.010418,20.435934 0 0 1 -21.01042,20.43594 21.010418,20.435934 0 0 1 -21.01042,-20.43594 21.010418,20.435934 0 0 1 21.01042,-20.43593 21.010418,20.435934 0 0 1 21.01042,20.43593 z" />
    <path
       id="path5"
       style="fill:#ff0000;fill-opacity:1;stroke:#000000;stroke-width:0.489"
       d="m 138.03707,171.18022 a 21.010418,20.435934 0 0 0 -6.14226,11.95121 21.010418,20.435934 0 0 1 -0.0114,-0.004 21.010418,20.435934 0 0 0 -0.19172,2.61586 21.010418,20.435934 0 0 0 6.34484,14.56293 21.010418,20.435934 0 0 0 0.002,-0.001 21.010418,20.435934 0 0 0 0.0331,0.0346 21.010418,20.435934 0 0 0 0.83612,-0.87953 21.010418,20.435934 0 0 0 0.45424,-0.47801 21.010418,20.435934 0 0 0 1.54254,-2.00453 21.010418,20.435934 0 0 0 0.3731,-0.59531 21.010418,20.435934 0 0 0 0.97979,-1.74459 21.010418,20.435934 0 0 0 0.32246,-0.65371 21.010418,20.435934 0 0 0 0.90951,-2.37143 21.010418,20.435934 0 0 0 0.12402,-0.47439 21.010418,20.435934 0 0 0 0.46974,-2.10065 21.010418,20.435934 0 0 0 0.11007,-0.71262 21.010418,20.435934 0 0 0 0.19017,-2.58175 21.010418,20.435934 0 0 0 -0.1819,-2.47634 21.010418,20.435934 0 0 0 -0.0103,-0.13746 21.010418,20.435934 0 0 1 -0.0114,0.003 21.010418,20.435934 0 0 0 -6.14226,-11.95225 z" />
    <path
       id="ellipse7"
       style="fill:none;stroke:#000000;stroke-width:0.489"
       d="m 159.04776,163.59198 a 21.010418,20.435934 0 0 1 -21.01042,20.43593 21.010418,20.435934 0 0 1 -21.01042,-20.43593 21.010418,20.435934 0 0 1 21.01042,-20.43593 21.010418,20.435934 0 0 1 21.01042,20.43593 z" />
    <path
       d="m 68.575685,196.7554 h 0.636217 l 0.798654,2.87651 0.710668,-2.87651 h 0.629448 l 0.73774,2.87651 0.791886,-2.87651 h 0.595607 l -1.116763,3.49242 h -0.609143 l -0.717436,-2.76145 -0.710667,2.76145 h -0.62268 z m 8.54154,3.03218 v 0.4467 q -0.175974,0.0677 -0.392559,0.0677 -0.494083,0 -0.507619,-0.51438 -0.494083,0.55499 -1.265665,0.55499 -0.514388,0 -0.818959,-0.26396 -0.297804,-0.26396 -0.297804,-0.7242 0,-0.93402 1.238592,-1.08969 0.730972,-0.088 0.846032,-0.1286 0.243658,-0.0812 0.263963,-0.33841 0.0068,-0.0406 0.0068,-0.088 0,-0.5753 -0.791887,-0.5753 -0.406095,0 -0.615911,0.1692 -0.209816,0.16244 -0.250426,0.54147 h -0.561766 q 0.01354,-0.56177 0.399328,-0.87311 0.385791,-0.31134 1.062617,-0.31134 0.73774,0 1.096458,0.33841 0.11506,0.1083 0.169206,0.28427 0.05415,0.17597 0.06092,0.29104 0.0068,0.10829 0.0068,0.33164 0,0.26396 -0.01354,0.78512 -0.01354,0.51439 -0.01354,0.77158 0,0.18951 0.04738,0.27073 0.05415,0.0745 0.189511,0.0745 0.05415,0 0.142133,-0.0203 z m -0.927251,-1.35366 q -0.06092,0.0474 -0.128597,0.0812 -0.06768,0.0338 -0.175975,0.0541 -0.101524,0.0203 -0.142133,0.0338 -0.03384,0.007 -0.175975,0.0271 -0.142134,0.0135 -0.148902,0.0135 -0.209816,0.0271 -0.277499,0.0406 -0.06091,0.007 -0.243657,0.0541 -0.175975,0.0474 -0.250426,0.10829 -0.07445,0.0609 -0.148901,0.18274 -0.06768,0.11506 -0.06768,0.2775 0,0.27073 0.182743,0.4264 0.189511,0.15567 0.514388,0.15567 0.412864,0 0.73774,-0.24366 0.324877,-0.24365 0.324877,-0.5753 z m 3.289379,-1.75974 v 0.5956 q -0.06092,-0.007 -0.148902,-0.007 -0.277499,0 -0.480547,0.088 -0.203047,0.0812 -0.324876,0.21659 -0.11506,0.13536 -0.189511,0.33841 -0.07445,0.20305 -0.101524,0.4061 -0.0203,0.20304 -0.0203,0.46024 v 1.47548 h -0.575302 v -3.49242 h 0.548229 v 0.75127 q 0.345181,-0.83249 1.292738,-0.83249 z m 3.296146,2.47041 q -0.263962,1.21829 -1.522858,1.21829 -0.771582,0 -1.211519,-0.48055 -0.433169,-0.48054 -0.433169,-1.33335 0,-0.84603 0.446706,-1.36718 0.453473,-0.52793 1.177677,-0.52793 0.805423,0 1.191214,0.54823 0.392559,0.54146 0.392559,1.37396 v 0.0812 h -2.626085 l -0.0068,0.0406 q 0,0.55499 0.291036,0.8731 0.291035,0.31811 0.798654,0.31811 0.379023,0 0.595607,-0.17597 0.223353,-0.17598 0.345181,-0.56854 z m -0.554997,-0.95432 q -0.04061,-0.50085 -0.304572,-0.77835 -0.263962,-0.28427 -0.697131,-0.28427 -0.419632,0 -0.697131,0.28427 -0.277498,0.28426 -0.331644,0.77835 z m 1.780056,-2.76145 v 1.82066 q 0.385791,-0.58207 1.143836,-0.58207 1.177677,0 1.177677,1.19121 v 2.3892 h -0.575302 v -2.25383 q 0,-0.39933 -0.169206,-0.60915 -0.162439,-0.21658 -0.595607,-0.21658 -0.527924,0 -0.758045,0.33841 -0.223353,0.33842 -0.223353,0.96786 v 1.77329 h -0.575302 v -4.819 z m 3.465347,1.7259 q 0.460242,-0.50085 1.252128,-0.50085 0.791886,0 1.231823,0.48055 0.439937,0.48054 0.439937,1.34688 0,0.88664 -0.439937,1.38073 -0.439937,0.49408 -1.238591,0.49408 -0.798655,0 -1.252128,-0.48731 -0.453474,-0.48732 -0.453474,-1.35366 0,-0.85957 0.460242,-1.36042 z m 2.037246,0.35195 q -0.291035,-0.37225 -0.798655,-0.37225 -0.507619,0 -0.805422,0.37225 -0.297804,0.37226 -0.297804,0.99494 0,0.64298 0.291035,1.00847 0.297804,0.35872 0.825728,0.35872 0.507619,0 0.791886,-0.36549 0.291036,-0.36549 0.291036,-1.00847 0,-0.62268 -0.297804,-0.98817 z m 4.467048,-0.75127 v 3.49242 h -0.534693 v -0.54823 q -0.446705,0.64298 -1.20475,0.64298 -0.554997,0 -0.859569,-0.30457 -0.304572,-0.30457 -0.304572,-0.87987 v -2.40273 h 0.575302 v 2.24706 q 0,0.41286 0.15567,0.62945 0.162439,0.20981 0.575302,0.20981 1.022008,0 1.022008,-1.25889 v -1.82743 z m 3.458579,1.01523 h -0.575302 q -0.05415,-0.63621 -0.852801,-0.63621 -0.331644,0 -0.521156,0.1286 -0.189511,0.12859 -0.189511,0.34518 0,0.0609 0.01354,0.12183 0.01354,0.0541 0.04738,0.10152 0.04061,0.0406 0.06768,0.0745 0.03384,0.0338 0.101524,0.0677 0.07445,0.0271 0.108292,0.0474 0.04061,0.0203 0.135365,0.0474 0.101524,0.0203 0.142134,0.0338 0.04061,0.007 0.15567,0.0338 0.121828,0.0271 0.15567,0.0338 0.250425,0.0541 0.372254,0.088 0.128597,0.0338 0.345181,0.1286 0.223353,0.088 0.338413,0.18951 0.115061,0.0947 0.203048,0.27073 0.09476,0.1692 0.09476,0.38579 0,0.50762 -0.399328,0.81896 -0.392559,0.30457 -1.04908,0.30457 -0.710667,0 -1.096458,-0.31134 -0.379023,-0.31134 -0.406096,-0.90018 h 0.568534 q 0.04738,0.73774 0.947557,0.73774 0.38579,0 0.615911,-0.15567 0.236889,-0.16244 0.236889,-0.4264 0,-0.17597 -0.121828,-0.29103 -0.121829,-0.11506 -0.270731,-0.16244 -0.148901,-0.0541 -0.4264,-0.12183 -0.04061,-0.007 -0.06091,-0.0135 -0.06092,-0.0135 -0.263963,-0.0541 -0.196279,-0.0474 -0.284266,-0.0744 -0.08799,-0.0271 -0.257194,-0.0812 -0.162439,-0.0609 -0.243658,-0.12183 -0.08122,-0.0677 -0.182743,-0.16244 -0.09476,-0.10152 -0.135365,-0.23012 -0.04061,-0.13537 -0.04061,-0.30457 0,-0.47378 0.358717,-0.75128 0.365486,-0.2775 0.97463,-0.2775 0.615911,0 1.001702,0.29104 0.392559,0.29103 0.392559,0.82572 z m 3.776692,1.37396 q -0.26396,1.21829 -1.522861,1.21829 -0.771581,0 -1.211518,-0.48055 -0.433169,-0.48054 -0.433169,-1.33335 0,-0.84603 0.446705,-1.36718 0.453474,-0.52793 1.177678,-0.52793 0.805425,0 1.191215,0.54823 0.39256,0.54146 0.39256,1.37396 v 0.0812 h -2.626087 l -0.0068,0.0406 q 0,0.55499 0.291035,0.8731 0.291036,0.31811 0.798655,0.31811 0.379026,0 0.595606,-0.17597 0.22335,-0.17598 0.34518,-0.56854 z m -0.555,-0.95432 q -0.0406,-0.50085 -0.30457,-0.77835 -0.26396,-0.28427 -0.697132,-0.28427 -0.419632,0 -0.697131,0.28427 -0.277498,0.28426 -0.331644,0.77835 z"
       id="text1"
       style="font-size:6.76826px;line-height:1.25;font-family:HelveticaNeueCyr;-inkscape-font-specification:HelveticaNeueCyr;stroke-width:0.264583"
       aria-label="warehouse" />
    <path
       d="m 174.2736,195.42882 v 0.7039 h -0.58207 v -0.7039 z m 0,1.32658 v 3.49242 h -0.58207 v -3.49242 z m 2.3892,0 v 0.47377 h -0.69713 v 2.03725 q 0,0.16921 0,0.22335 0.007,0.0542 0.0406,0.1489 0.0338,0.088 0.11506,0.11507 0.0812,0.0271 0.23012,0.0271 0.1286,0 0.31134,-0.0203 v 0.49409 q -0.24366,0.0271 -0.43994,0.0271 -0.24365,0 -0.40609,-0.0541 -0.16244,-0.0541 -0.25043,-0.12183 -0.0812,-0.0677 -0.12183,-0.23688 -0.0406,-0.17598 -0.0474,-0.29104 -0.007,-0.12183 -0.007,-0.39933 0,-0.0609 0,-0.0948 v -1.85451 h -0.58884 v -0.47377 h 0.58884 v -1.03555 h 0.5753 v 1.03555 z m 3.62102,2.38919 q -0.26396,1.21829 -1.52285,1.21829 -0.77159,0 -1.21152,-0.48055 -0.43317,-0.48054 -0.43317,-1.33335 0,-0.84603 0.4467,-1.36718 0.45348,-0.52793 1.17768,-0.52793 0.80542,0 1.19121,0.54823 0.39256,0.54146 0.39256,1.37396 v 0.0812 h -2.62608 l -0.007,0.0406 q 0,0.55499 0.29104,0.8731 0.29103,0.31811 0.79865,0.31811 0.37902,0 0.59561,-0.17597 0.22335,-0.17598 0.34518,-0.56854 z m -0.55499,-0.95432 q -0.0406,-0.50085 -0.30457,-0.77835 -0.26397,-0.28427 -0.69714,-0.28427 -0.41963,0 -0.69713,0.28427 -0.2775,0.28426 -0.33164,0.77835 z m 1.74621,-1.43487 v 0.50762 q 0.23012,-0.31134 0.49409,-0.45348 0.26396,-0.14213 0.64298,-0.14213 0.71744,0 0.96786,0.60237 0.45347,-0.60914 1.15737,-0.60914 0.54146,0 0.81896,0.30457 0.28427,0.29781 0.28427,0.83927 v 2.44334 h -0.5753 v -2.19969 q 0,-0.43317 -0.13537,-0.64975 -0.13536,-0.22335 -0.56176,-0.22335 -0.89341,0 -0.89341,1.08969 v 1.9831 h -0.57531 v -2.2403 q 0,-0.39932 -0.13536,-0.60914 -0.1286,-0.21658 -0.50762,-0.21658 -0.53469,0 -0.74451,0.33164 -0.20305,0.32488 -0.20305,0.88664 v 1.84774 h -0.5753 v -3.49242 z m 7.82411,1.01523 h -0.5753 q -0.0541,-0.63621 -0.8528,-0.63621 -0.33164,0 -0.52115,0.1286 -0.18952,0.12859 -0.18952,0.34518 0,0.0609 0.0135,0.12183 0.0135,0.0541 0.0474,0.10152 0.0406,0.0406 0.0677,0.0745 0.0338,0.0338 0.10153,0.0677 0.0744,0.0271 0.10829,0.0474 0.0406,0.0203 0.13536,0.0474 0.10153,0.0203 0.14214,0.0338 0.0406,0.007 0.15567,0.0338 0.12183,0.0271 0.15567,0.0338 0.25042,0.0541 0.37225,0.088 0.1286,0.0338 0.34518,0.1286 0.22335,0.088 0.33841,0.18951 0.11507,0.0947 0.20305,0.27073 0.0948,0.1692 0.0948,0.38579 0,0.50762 -0.39933,0.81896 -0.39256,0.30457 -1.04908,0.30457 -0.71067,0 -1.09646,-0.31134 -0.37902,-0.31134 -0.40609,-0.90018 h 0.56853 q 0.0474,0.73774 0.94756,0.73774 0.38579,0 0.61591,-0.15567 0.23689,-0.16244 0.23689,-0.4264 0,-0.17597 -0.12183,-0.29103 -0.12183,-0.11506 -0.27073,-0.16244 -0.1489,-0.0541 -0.4264,-0.12183 -0.0406,-0.007 -0.0609,-0.0135 -0.0609,-0.0135 -0.26396,-0.0541 -0.19628,-0.0474 -0.28426,-0.0744 -0.088,-0.0271 -0.2572,-0.0812 -0.16244,-0.0609 -0.24366,-0.12183 -0.0812,-0.0677 -0.18274,-0.16244 -0.0948,-0.10152 -0.13536,-0.23012 -0.0406,-0.13537 -0.0406,-0.30457 0,-0.47378 0.35871,-0.75128 0.36549,-0.2775 0.97463,-0.2775 0.61591,0 1.00171,0.29104 0.39255,0.29103 0.39255,0.82572 z"
       id="text2"
       style="font-size:6.76826px;line-height:1.25;font-family:HelveticaNeueCyr;-inkscape-font-specification:HelveticaNeueCyr;stroke-width:0.264583"
       aria-label="items" />
    <path
       d="m 129.07955,139.00996 q 0.46024,-0.50085 1.25213,-0.50085 0.79188,0 1.23182,0.48055 0.43994,0.48054 0.43994,1.34688 0,0.88664 -0.43994,1.38073 -0.43994,0.49408 -1.23859,0.49408 -0.79866,0 -1.25213,-0.48731 -0.45347,-0.48732 -0.45347,-1.35366 0,-0.85957 0.46024,-1.36042 z m 2.03724,0.35195 q -0.29103,-0.37225 -0.79865,-0.37225 -0.50762,0 -0.80542,0.37225 -0.29781,0.37226 -0.29781,0.99494 0,0.64298 0.29104,1.00847 0.2978,0.35872 0.82573,0.35872 0.50762,0 0.79188,-0.36549 0.29104,-0.36549 0.29104,-1.00847 0,-0.62268 -0.29781,-0.98817 z m 3.3909,-0.83249 v 0.5956 q -0.0609,-0.007 -0.1489,-0.007 -0.2775,0 -0.48055,0.088 -0.20305,0.0812 -0.32488,0.21659 -0.11506,0.13536 -0.18951,0.33841 -0.0745,0.20305 -0.10152,0.4061 -0.0203,0.20304 -0.0203,0.46024 v 1.47548 h -0.5753 v -3.49242 h 0.54823 v 0.75127 q 0.34518,-0.83249 1.29274,-0.83249 z m 3.45858,-1.24536 v 4.819 h -0.54146 v -0.51439 q -0.33164,0.60914 -1.1506,0.60914 -0.74451,0 -1.18445,-0.49408 -0.43317,-0.50085 -0.43317,-1.35365 0,-0.79189 0.4061,-1.31304 0.41286,-0.52793 1.18445,-0.52793 0.75127,0 1.14383,0.56854 v -1.79359 z m -1.64468,1.71913 q -0.49409,0 -0.78512,0.35872 -0.28427,0.35872 -0.28427,0.97463 0,0.63622 0.29104,1.01524 0.2978,0.37226 0.79188,0.37226 0.50085,0 0.78512,-0.35872 0.28427,-0.36549 0.28427,-1.00847 0,-0.57531 -0.27073,-0.9611 -0.26396,-0.39256 -0.81219,-0.39256 z m 5.49583,1.99664 q -0.26397,1.21829 -1.52286,1.21829 -0.77158,0 -1.21152,-0.48055 -0.43317,-0.48054 -0.43317,-1.33335 0,-0.84603 0.44671,-1.36718 0.45347,-0.52793 1.17767,-0.52793 0.80543,0 1.19122,0.54823 0.39256,0.54146 0.39256,1.37396 v 0.0812 h -2.62609 l -0.007,0.0406 q 0,0.55499 0.29104,0.8731 0.29103,0.31811 0.79865,0.31811 0.37902,0 0.59561,-0.17597 0.22335,-0.17598 0.34518,-0.56854 z m -0.555,-0.95432 q -0.0406,-0.50085 -0.30457,-0.77835 -0.26397,-0.28427 -0.69713,-0.28427 -0.41964,0 -0.69713,0.28427 -0.2775,0.28426 -0.33165,0.77835 z m 3.02541,-1.51609 v 0.5956 q -0.0609,-0.007 -0.1489,-0.007 -0.2775,0 -0.48054,0.088 -0.20305,0.0812 -0.32488,0.21659 -0.11506,0.13536 -0.18951,0.33841 -0.0745,0.20305 -0.10153,0.4061 -0.0203,0.20304 -0.0203,0.46024 v 1.47548 h -0.5753 v -3.49242 h 0.54823 v 0.75127 q 0.34518,-0.83249 1.29273,-0.83249 z m 3.02542,1.09645 h -0.5753 q -0.0542,-0.63621 -0.8528,-0.63621 -0.33165,0 -0.52116,0.1286 -0.18951,0.12859 -0.18951,0.34518 0,0.0609 0.0135,0.12183 0.0135,0.0541 0.0474,0.10152 0.0406,0.0406 0.0677,0.0744 0.0338,0.0338 0.10152,0.0677 0.0745,0.0271 0.10829,0.0474 0.0406,0.0203 0.13537,0.0474 0.10152,0.0203 0.14213,0.0338 0.0406,0.007 0.15567,0.0338 0.12183,0.0271 0.15567,0.0338 0.25043,0.0541 0.37225,0.088 0.1286,0.0338 0.34519,0.1286 0.22335,0.088 0.33841,0.18951 0.11506,0.0948 0.20305,0.27073 0.0948,0.1692 0.0948,0.38579 0,0.50762 -0.39933,0.81896 -0.39255,0.30457 -1.04908,0.30457 -0.71066,0 -1.09645,-0.31134 -0.37903,-0.31134 -0.4061,-0.90018 h 0.56853 q 0.0474,0.73774 0.94756,0.73774 0.38579,0 0.61591,-0.15567 0.23689,-0.16244 0.23689,-0.4264 0,-0.17597 -0.12183,-0.29103 -0.12183,-0.11506 -0.27073,-0.16244 -0.1489,-0.0542 -0.4264,-0.12183 -0.0406,-0.007 -0.0609,-0.0135 -0.0609,-0.0135 -0.26396,-0.0541 -0.19628,-0.0474 -0.28427,-0.0744 -0.088,-0.0271 -0.2572,-0.0812 -0.16243,-0.0609 -0.24365,-0.12183 -0.0812,-0.0677 -0.18275,-0.16244 -0.0947,-0.10152 -0.13536,-0.23012 -0.0406,-0.13537 -0.0406,-0.30457 0,-0.47378 0.35872,-0.75128 0.36548,-0.2775 0.97463,-0.2775 0.61591,0 1.0017,0.29104 0.39256,0.29103 0.39256,0.82572 z"
       id="text3"
       style="font-size:6.76826px;line-height:1.25;font-family:HelveticaNeueCyr;-inkscape-font-specification:HelveticaNeueCyr;stroke-width:0.264583"
       aria-label="orders" />
  </g>
</svg>
