<?xml version="1.0" encoding="UTF-8" standalone="no"?>
<!-- Created with Inkscape (http://www.inkscape.org/) -->

<svg
   width="122.91132mm"
   height="78.683426mm"
   viewBox="0 0 122.91132 78.683426"
   version="1.1"
   id="svg1"
   xml:space="preserve"
   inkscape:version="1.3 (0e150ed6c4, 2023-07-21)"
   sodipodi:docname="role_model.svg"
   xmlns:inkscape="http://www.inkscape.org/namespaces/inkscape"
   xmlns:sodipodi="http://sodipodi.sourceforge.net/DTD/sodipodi-0.dtd"
   xmlns="http://www.w3.org/2000/svg"
   xmlns:svg="http://www.w3.org/2000/svg"><sodipodi:namedview
     id="namedview1"
     pagecolor="#ffffff"
     bordercolor="#666666"
     borderopacity="1.0"
     inkscape:showpageshadow="2"
     inkscape:pageopacity="0.0"
     inkscape:pagecheckerboard="0"
     inkscape:deskcolor="#d1d1d1"
     inkscape:document-units="mm"
     showguides="true"
     inkscape:zoom="1.0167041"
     inkscape:cx="290.15326"
     inkscape:cy="130.32307"
     inkscape:window-width="1854"
     inkscape:window-height="1011"
     inkscape:window-x="66"
     inkscape:window-y="32"
     inkscape:window-maximized="1"
     inkscape:current-layer="layer1"><sodipodi:guide
       position="-22.48777,37.035211"
       orientation="1,0"
       id="guide8"
       inkscape:locked="false" /></sodipodi:namedview><defs
     id="defs1"><marker
       style="overflow:visible"
       id="Triangle"
       refX="0"
       refY="0"
       orient="auto-start-reverse"
       inkscape:stockid="Triangle arrow"
       markerWidth="1"
       markerHeight="1"
       viewBox="0 0 1 1"
       inkscape:isstock="true"
       inkscape:collect="always"
       preserveAspectRatio="xMidYMid"><path
         transform="scale(0.5)"
         style="fill:context-stroke;fill-rule:evenodd;stroke:context-stroke;stroke-width:1pt"
         d="M 5.77,0 -2.88,5 V -5 Z"
         id="path135" /></marker></defs><g
     inkscape:label="Layer 1"
     inkscape:groupmode="layer"
     id="layer1"
     transform="translate(-27.456251,-53.956957)"><g
       id="g2"
       transform="matrix(0.42324853,0,0,0.42324853,12.421161,-2.2986464)"
       style="stroke:#0038f7;stroke-opacity:1"><circle
         cx="53.923332"
         cy="142.6087"
         r="8.1640606"
         stroke="#1c274c"
         stroke-width="3.06153"
         id="circle1"
         style="fill:none;stroke:#0038f7;stroke-opacity:1" /><path
         d="m 70.24635,167.10089 c 0.0051,-0.33513 0.0051,-0.67557 0.0051,-1.0205 0,-5.07254 -7.310303,-9.18457 -16.328119,-9.18457 -9.017777,0 -16.328121,4.11203 -16.328121,9.18457 0,5.07253 0,9.18457 16.328121,9.18457 4.553504,0 7.837089,-0.31983 10.205075,-0.89111"
         stroke="#1c274c"
         stroke-width="3.06153"
         stroke-linecap="round"
         id="path1"
         style="fill:none;stroke:#0038f7;stroke-opacity:1" /></g><g
       id="g1"
       transform="matrix(0.59277463,0,0,0.59277463,81.030658,87.319623)"
       style="fill:#484848;fill-opacity:1"><path
         fill="#494c4e"
         d="M 8,6 H 5 C 4.447,6 4,5.552 4,5 4,4.448 4.447,4 5,4 H 8 C 8.553,4 9,4.448 9,5 9,5.552 8.553,6 8,6 Z m 5,4 H 5 C 4.447,10 4,9.552 4,9 4,8.448 4.447,8 5,8 h 8 c 0.553,0 1,0.448 1,1 0,0.552 -0.447,1 -1,1 z m 0,4 H 5 C 4.447,14 4,13.552 4,13 4,12.448 4.447,12 5,12 h 8 c 0.553,0 1,0.448 1,1 0,0.552 -0.447,1 -1,1 z"
         id="path1-6"
         style="fill:#484848;fill-opacity:1" /><path
         fill="#494c4e"
         d="m 18,2 v 8 c 0,0.55 -0.45,1 -1,1 -0.55,0 -1,-0.45 -1,-1 V 2.5 C 16,2.22 15.78,2 15.5,2 H 2.5 C 2.22,2 2,2.22 2,2.5 v 19 C 2,21.78 2.22,22 2.5,22 h 13 C 15.78,22 16,21.78 16,21.5 V 21 c 0,-0.55 0.45,-1 1,-1 0.55,0 1,0.45 1,1 v 1 c 0,1.1 -0.9,2 -2,2 H 2 C 0.9,24 0,23.1 0,22 V 2 C 0,0.9 0.9,0 2,0 h 14 c 1.1,0 2,0.9 2,2 z"
         id="path2"
         style="fill:#484848;fill-opacity:1" /><path
         fill="#494c4e"
         d="m 23.71,8.817 c 0.44,0.438 0.372,1.212 -0.148,1.732 l -7.835,7.84 c -0.07,0.068 -0.148,0.126 -0.227,0.173 l -2.382,1.317 c -0.33,0.183 -0.7,0.152 -0.927,-0.075 -0.226,-0.227 -0.25,-0.603 -0.07,-0.923 l 1.328,-2.373 c 0.042,-0.085 0.1,-0.153 0.162,-0.216 0,-0.012 0.007,-0.018 0.007,-0.018 l 7.835,-7.84 c 0.52,-0.52 1.294,-0.587 1.73,-0.15 l 0.53,0.53 z"
         id="path3"
         style="fill:#484848;fill-opacity:1" /></g><path
       fill="#494c4e"
       d="m 94.519913,63.922923 h -0.06904 c -0.317783,-1.575082 -1.713245,-2.76331 -3.385044,-2.76331 -0.918789,0 -1.74778,0.359237 -2.369529,0.939524 -0.545752,-0.158891 -1.146766,-0.248689 -1.77542,-0.248689 -0.628653,0 -1.229667,0.08293 -1.775419,0.248689 -0.621742,-0.580287 -1.450733,-0.939524 -2.369528,-0.939524 -1.671798,0 -3.067261,1.188228 -3.385044,2.76331 h -0.06904 c -0.379957,0 -0.69082,0.310863 -0.69082,0.690819 0,0.379957 0.310863,0.690828 0.69082,0.690828 h 0.06904 c 0.317783,1.575073 1.713246,2.763294 3.385044,2.763294 1.906678,0 3.454112,-1.547442 3.454112,-3.454122 0,-0.455946 -0.08977,-0.891157 -0.248689,-1.291841 0.297055,-0.05525 0.607919,-0.08977 0.939524,-0.08977 0.331598,0 0.649373,0.02774 0.939524,0.08977 -0.158891,0.400684 -0.248704,0.835895 -0.248704,1.291841 0,1.90668 1.547458,3.454122 3.454129,3.454122 1.671799,0 3.067261,-1.188221 3.385044,-2.763294 h 0.06904 c 0.379949,0 0.690828,-0.310871 0.690828,-0.690828 0,-0.379956 -0.310879,-0.690819 -0.690828,-0.690819 z m -11.744025,2.763302 c -1.139862,0 -2.072475,-0.932628 -2.072475,-2.072483 0,-1.139862 0.932613,-2.072474 2.072475,-2.072474 1.13986,0 2.072473,0.932612 2.072473,2.072474 0,1.139855 -0.932613,2.072483 -2.072473,2.072483 z m 8.289896,0 c -1.13987,0 -2.072474,-0.932628 -2.072474,-2.072483 0,-1.139862 0.932604,-2.072474 2.072474,-2.072474 1.139854,0 2.072482,0.932612 2.072482,2.072474 0,1.139855 -0.932628,2.072483 -2.072482,2.072483 z"
       id="path1-3"
       style="fill:#484848;fill-opacity:1;stroke-width:0.0747415;stroke-dasharray:none" /><g
       id="g6"
       transform="matrix(0.5810708,0,0,0.5810708,43.543029,-22.48954)"
       style="fill:#ffffff;fill-opacity:1;stroke:#00c202;stroke-opacity:1"><path
         d="m 159.8773,142.17251 c 0.53883,0.87215 0.84962,1.899 0.84962,2.99813 0,3.1641 -2.57552,5.72914 -5.75267,5.72914 -0.5797,0 -1.89968,-0.13327 -2.54183,-0.66618 l -0.80273,0.79946 c -0.66882,0.66608 -0.13373,0.66608 0.13382,1.19909 0,0 0.66891,0.93263 0,1.86527 -0.40137,0.53291 -1.52517,1.27901 -2.80944,0 l -0.26756,0.26645 c 0,0 0.8027,0.93264 0.13378,1.86527 -0.40134,0.533 -1.47159,1.06591 -2.40807,0.13328 -0.0446,0.0444 -0.29432,0.29312 -0.93647,0.93263 -0.64216,0.63951 -1.42699,0.26645 -1.73913,0 l -0.80269,-0.79945 c -0.74918,-0.74611 -0.31216,-1.55439 0,-1.86527 l 6.95666,-6.92818 c 0,0 -0.66891,-1.06593 -0.66891,-2.53151 0,-3.16411 2.57551,-5.72912 5.75257,-5.72912 0.74538,0 1.45772,0.14118 2.11133,0.39816"
         stroke="#1c274c"
         stroke-width="1.3655"
         stroke-linecap="round"
         stroke-linejoin="round"
         id="path1-61"
         style="fill:#ffffff;fill-opacity:1;stroke:#00c202;stroke-opacity:1" /><path
         d="m 156.98099,145.17072 c 0,1.10377 -0.89841,1.99852 -2.00674,1.99852 -1.10824,0 -2.00673,-0.89475 -2.00673,-1.99852 0,-1.10376 0.89849,-1.99853 2.00673,-1.99853 1.10833,0 2.00674,0.89477 2.00674,1.99853 z"
         stroke="#1c274c"
         stroke-width="1.3655"
         id="path2-8"
         style="fill:#ffffff;fill-opacity:1;stroke:#00c202;stroke-opacity:1" /></g><g
       id="g4"
       transform="matrix(0.42324853,0,0,0.42324853,12.192089,27.756604)"
       style="stroke:#0038f7;stroke-opacity:1"><circle
         cx="53.923332"
         cy="142.6087"
         r="8.1640606"
         stroke="#1c274c"
         stroke-width="3.06153"
         id="circle2"
         style="fill:none;stroke:#0038f7;stroke-opacity:1" /><path
         d="m 70.24635,167.10089 c 0.0051,-0.33513 0.0051,-0.67557 0.0051,-1.0205 0,-5.07254 -7.310303,-9.18457 -16.328119,-9.18457 -9.017777,0 -16.328121,4.11203 -16.328121,9.18457 0,5.07253 0,9.18457 16.328121,9.18457 4.553504,0 7.837089,-0.31983 10.205075,-0.89111"
         stroke="#1c274c"
         stroke-width="3.06153"
         stroke-linecap="round"
         id="path4"
         style="fill:none;stroke:#0038f7;stroke-opacity:1" /></g><g
       id="g5"
       transform="matrix(0.42324853,0,0,0.42324853,12.561798,57.811856)"
       style="stroke:#0038f7;stroke-opacity:1"><circle
         cx="53.923332"
         cy="142.6087"
         r="8.1640606"
         stroke="#1c274c"
         stroke-width="3.06153"
         id="circle4"
         style="fill:none;stroke:#0038f7;stroke-opacity:1" /><path
         d="m 70.24635,167.10089 c 0.0051,-0.33513 0.0051,-0.67557 0.0051,-1.0205 0,-5.07254 -7.310303,-9.18457 -16.328119,-9.18457 -9.017777,0 -16.328121,4.11203 -16.328121,9.18457 0,5.07253 0,9.18457 16.328121,9.18457 4.553504,0 7.837089,-0.31983 10.205075,-0.89111"
         stroke="#1c274c"
         stroke-width="3.06153"
         stroke-linecap="round"
         id="path5"
         style="fill:none;stroke:#0038f7;stroke-opacity:1" /></g><path
       style="fill:none;stroke:#0038f7;stroke-width:0.745874;stroke-linecap:butt;stroke-linejoin:miter;stroke-dasharray:none;stroke-opacity:1;marker-end:url(#Triangle)"
       d="M 45.704761,63.989558 72.49068,63.877045"
       id="path6"
       sodipodi:nodetypes="cc" /><path
       style="fill:none;stroke:#0038f7;stroke-width:0.745874;stroke-linecap:butt;stroke-linejoin:miter;stroke-dasharray:none;stroke-opacity:1;marker-end:url(#Triangle)"
       d="m 45.948232,64.020803 27.249005,23.19224"
       id="path8"
       sodipodi:nodetypes="cc" /><path
       style="fill:none;stroke:#0038f7;stroke-width:0.745874;stroke-linecap:butt;stroke-linejoin:miter;stroke-dasharray:none;stroke-opacity:1;marker-end:url(#Triangle)"
       d="m 45.704761,122.7433 26.785919,0.11251"
       id="path10"
       sodipodi:nodetypes="cc" /><path
       style="fill:none;stroke:#0038f7;stroke-width:0.745874;stroke-linecap:butt;stroke-linejoin:miter;stroke-dasharray:none;stroke-opacity:1;marker-end:url(#Triangle)"
       d="M 45.948232,122.65534 73.197237,99.463103"
       id="path11"
       sodipodi:nodetypes="cc" /><path
       style="fill:none;stroke:#0038f7;stroke-width:0.745874;stroke-linecap:butt;stroke-linejoin:miter;stroke-dasharray:none;stroke-opacity:1;marker-end:url(#Triangle)"
       d="M 45.948232,93.785968 73.197237,116.97821"
       id="path12"
       sodipodi:nodetypes="cc" /><path
       style="fill:none;stroke:#0038f7;stroke-width:0.745874;stroke-linecap:butt;stroke-linejoin:miter;stroke-dasharray:none;stroke-opacity:1;marker-end:url(#Triangle)"
       d="M 46.418645,93.796162 73.197237,70.86483"
       id="path13"
       sodipodi:nodetypes="cc" /><path
       d="m 85.963512,123.84695 5.71029,5.71026 c 0.318245,0.31827 0.837853,0.31827 1.156992,0 l 1.110404,-1.11128 c 0.154731,-0.15473 0.240013,-0.35958 0.240013,-0.57763 0,-0.2189 -0.08524,-0.42376 -0.240013,-0.5785 l -5.61093,-5.61093 0.09231,-0.26199 c 0.50993,-1.43483 0.146833,-3.05515 -0.925778,-4.12775 -0.993469,-0.9926 -2.450273,-1.37328 -3.787507,-1.03041 l 2.186521,2.18653 c 0.261118,0.26023 0.404421,0.60751 0.404421,0.97765 0,0.36926 -0.143303,0.71654 -0.404421,0.97765 l -0.888846,0.88884 c -0.539819,0.53806 -1.416352,0.53806 -1.955299,0 l -2.186528,-2.18651 c -0.342,1.33722 0.03791,2.79403 1.030408,3.78751 0.993469,0.99348 2.459056,1.38382 3.822673,1.0216 z m 6.287896,6.82858 c -0.434318,0 -0.868627,-0.16616 -1.199193,-0.49673 l -5.357726,-5.35773 c -1.591317,0.33496 -3.266157,-0.15473 -4.420521,-1.3091 -1.406689,-1.40669 -1.80584,-3.57475 -0.994355,-5.39378 l 0.260239,-0.58377 3.133395,3.1334 c 0.196054,0.19517 0.516071,0.19517 0.712132,0 l 0.888862,-0.88885 c 0.09498,-0.0958 0.146817,-0.22156 0.146817,-0.35607 0,-0.13452 -0.05186,-0.26111 -0.146817,-0.35607 l -3.13341,-3.1334 0.583785,-0.26023 c 1.819901,-0.81149 3.987952,-0.41235 5.393771,0.99347 1.244916,1.24579 1.70913,3.09296 1.219419,4.77659 l 5.224964,5.22496 c 0.320903,0.32004 0.497625,0.74642 0.497625,1.20008 0,0.45278 -0.176722,0.87919 -0.497625,1.19922 l -1.110397,1.11128 c -0.331444,0.33057 -0.765769,0.49673 -1.200965,0.49673 z"
       fill-rule="evenodd"
       id="path1-23"
       style="fill:#484848;fill-opacity:1;stroke:#484848;stroke-width:0.238865;stroke-dasharray:none;stroke-opacity:1" /><g
       id="g20"
       transform="matrix(0.5810708,0,0,0.5810708,46.071775,-12.862366)"><g
         id="g17"
         transform="translate(7.0365525,35.492783)"
         style="fill:#ffffff;fill-opacity:1;stroke:#ffd800;stroke-opacity:1"><path
           d="m 159.8773,142.17251 c 0.53883,0.87215 0.84962,1.899 0.84962,2.99813 0,3.1641 -2.57552,5.72914 -5.75267,5.72914 -0.5797,0 -1.89968,-0.13327 -2.54183,-0.66618 l -0.80273,0.79946 c -0.66882,0.66608 -0.13373,0.66608 0.13382,1.19909 0,0 0.66891,0.93263 0,1.86527 -0.40137,0.53291 -1.52517,1.27901 -2.80944,0 l -0.26756,0.26645 c 0,0 0.8027,0.93264 0.13378,1.86527 -0.40134,0.533 -1.47159,1.06591 -2.40807,0.13328 -0.0446,0.0444 -0.29432,0.29312 -0.93647,0.93263 -0.64216,0.63951 -1.42699,0.26645 -1.73913,0 l -0.80269,-0.79945 c -0.74918,-0.74611 -0.31216,-1.55439 0,-1.86527 l 6.95666,-6.92818 c 0,0 -0.66891,-1.06593 -0.66891,-2.53151 0,-3.16411 2.57551,-5.72912 5.75257,-5.72912 0.74538,0 1.45772,0.14118 2.11133,0.39816"
           stroke="#1c274c"
           stroke-width="1.3655"
           stroke-linecap="round"
           stroke-linejoin="round"
           id="path16"
           style="fill:#ffffff;fill-opacity:1;stroke:#ffd800;stroke-opacity:1" /><path
           d="m 156.98099,145.17072 c 0,1.10377 -0.89841,1.99852 -2.00674,1.99852 -1.10824,0 -2.00673,-0.89475 -2.00673,-1.99852 0,-1.10376 0.89849,-1.99853 2.00673,-1.99853 1.10833,0 2.00674,0.89477 2.00674,1.99853 z"
           stroke="#1c274c"
           stroke-width="1.3655"
           id="path17"
           style="fill:#ffffff;fill-opacity:1;stroke:#ffd800;stroke-opacity:1" /></g><g
         id="g19"
         transform="translate(-4.3518722,35.492783)"
         style="fill:#ffffff;fill-opacity:1;stroke:#00c202;stroke-opacity:1"><path
           d="m 159.8773,142.17251 c 0.53883,0.87215 0.84962,1.899 0.84962,2.99813 0,3.1641 -2.57552,5.72914 -5.75267,5.72914 -0.5797,0 -1.89968,-0.13327 -2.54183,-0.66618 l -0.80273,0.79946 c -0.66882,0.66608 -0.13373,0.66608 0.13382,1.19909 0,0 0.66891,0.93263 0,1.86527 -0.40137,0.53291 -1.52517,1.27901 -2.80944,0 l -0.26756,0.26645 c 0,0 0.8027,0.93264 0.13378,1.86527 -0.40134,0.533 -1.47159,1.06591 -2.40807,0.13328 -0.0446,0.0444 -0.29432,0.29312 -0.93647,0.93263 -0.64216,0.63951 -1.42699,0.26645 -1.73913,0 l -0.80269,-0.79945 c -0.74918,-0.74611 -0.31216,-1.55439 0,-1.86527 l 6.95666,-6.92818 c 0,0 -0.66891,-1.06593 -0.66891,-2.53151 0,-3.16411 2.57551,-5.72912 5.75257,-5.72912 0.74538,0 1.45772,0.14118 2.11133,0.39816"
           stroke="#1c274c"
           stroke-width="1.3655"
           stroke-linecap="round"
           stroke-linejoin="round"
           id="path18"
           style="fill:#ffffff;fill-opacity:1;stroke:#00c202;stroke-opacity:1" /><path
           d="m 156.98099,145.17072 c 0,1.10377 -0.89841,1.99852 -2.00674,1.99852 -1.10824,0 -2.00673,-0.89475 -2.00673,-1.99852 0,-1.10376 0.89849,-1.99853 2.00673,-1.99853 1.10833,0 2.00674,0.89477 2.00674,1.99853 z"
           stroke="#1c274c"
           stroke-width="1.3655"
           id="path19"
           style="fill:#ffffff;fill-opacity:1;stroke:#00c202;stroke-opacity:1" /></g></g><g
       id="g30"
       transform="matrix(0.5810708,0,0,0.5810708,45.03836,-3.892094)"><g
         id="g29"
         transform="translate(19.857752,71.37739)"
         style="fill:#ffffff;fill-opacity:1;stroke:#ff3500;stroke-opacity:1"><path
           d="m 159.8773,142.17251 c 0.53883,0.87215 0.84962,1.899 0.84962,2.99813 0,3.1641 -2.57552,5.72914 -5.75267,5.72914 -0.5797,0 -1.89968,-0.13327 -2.54183,-0.66618 l -0.80273,0.79946 c -0.66882,0.66608 -0.13373,0.66608 0.13382,1.19909 0,0 0.66891,0.93263 0,1.86527 -0.40137,0.53291 -1.52517,1.27901 -2.80944,0 l -0.26756,0.26645 c 0,0 0.8027,0.93264 0.13378,1.86527 -0.40134,0.533 -1.47159,1.06591 -2.40807,0.13328 -0.0446,0.0444 -0.29432,0.29312 -0.93647,0.93263 -0.64216,0.63951 -1.42699,0.26645 -1.73913,0 l -0.80269,-0.79945 c -0.74918,-0.74611 -0.31216,-1.55439 0,-1.86527 l 6.95666,-6.92818 c 0,0 -0.66891,-1.06593 -0.66891,-2.53151 0,-3.16411 2.57551,-5.72912 5.75257,-5.72912 0.74538,0 1.45772,0.14118 2.11133,0.39816"
           stroke="#1c274c"
           stroke-width="1.3655"
           stroke-linecap="round"
           stroke-linejoin="round"
           id="path28"
           style="fill:#ffffff;fill-opacity:1;stroke:#ff3500;stroke-opacity:1" /><path
           d="m 156.98099,145.17072 c 0,1.10377 -0.89841,1.99852 -2.00674,1.99852 -1.10824,0 -2.00673,-0.89475 -2.00673,-1.99852 0,-1.10376 0.89849,-1.99853 2.00673,-1.99853 1.10833,0 2.00674,0.89477 2.00674,1.99853 z"
           stroke="#1c274c"
           stroke-width="1.3655"
           id="path29"
           style="fill:#ffffff;fill-opacity:1;stroke:#ff3500;stroke-opacity:1" /></g><g
         id="g21"
         transform="translate(8.6421729,71.37739)"
         style="fill:#ffffff;fill-opacity:1;stroke:#ffd800;stroke-opacity:1"><path
           d="m 159.8773,142.17251 c 0.53883,0.87215 0.84962,1.899 0.84962,2.99813 0,3.1641 -2.57552,5.72914 -5.75267,5.72914 -0.5797,0 -1.89968,-0.13327 -2.54183,-0.66618 l -0.80273,0.79946 c -0.66882,0.66608 -0.13373,0.66608 0.13382,1.19909 0,0 0.66891,0.93263 0,1.86527 -0.40137,0.53291 -1.52517,1.27901 -2.80944,0 l -0.26756,0.26645 c 0,0 0.8027,0.93264 0.13378,1.86527 -0.40134,0.533 -1.47159,1.06591 -2.40807,0.13328 -0.0446,0.0444 -0.29432,0.29312 -0.93647,0.93263 -0.64216,0.63951 -1.42699,0.26645 -1.73913,0 l -0.80269,-0.79945 c -0.74918,-0.74611 -0.31216,-1.55439 0,-1.86527 l 6.95666,-6.92818 c 0,0 -0.66891,-1.06593 -0.66891,-2.53151 0,-3.16411 2.57551,-5.72912 5.75257,-5.72912 0.74538,0 1.45772,0.14118 2.11133,0.39816"
           stroke="#1c274c"
           stroke-width="1.3655"
           stroke-linecap="round"
           stroke-linejoin="round"
           id="path20"
           style="fill:#ffffff;fill-opacity:1;stroke:#ffd800;stroke-opacity:1" /><path
           d="m 156.98099,145.17072 c 0,1.10377 -0.89841,1.99852 -2.00674,1.99852 -1.10824,0 -2.00673,-0.89475 -2.00673,-1.99852 0,-1.10376 0.89849,-1.99853 2.00673,-1.99853 1.10833,0 2.00674,0.89477 2.00674,1.99853 z"
           stroke="#1c274c"
           stroke-width="1.3655"
           id="path21"
           style="fill:#ffffff;fill-opacity:1;stroke:#ffd800;stroke-opacity:1" /></g><g
         id="g23"
         transform="translate(-2.5734062,71.37739)"
         style="fill:#ffffff;fill-opacity:1;stroke:#00c202;stroke-opacity:1"><path
           d="m 159.8773,142.17251 c 0.53883,0.87215 0.84962,1.899 0.84962,2.99813 0,3.1641 -2.57552,5.72914 -5.75267,5.72914 -0.5797,0 -1.89968,-0.13327 -2.54183,-0.66618 l -0.80273,0.79946 c -0.66882,0.66608 -0.13373,0.66608 0.13382,1.19909 0,0 0.66891,0.93263 0,1.86527 -0.40137,0.53291 -1.52517,1.27901 -2.80944,0 l -0.26756,0.26645 c 0,0 0.8027,0.93264 0.13378,1.86527 -0.40134,0.533 -1.47159,1.06591 -2.40807,0.13328 -0.0446,0.0444 -0.29432,0.29312 -0.93647,0.93263 -0.64216,0.63951 -1.42699,0.26645 -1.73913,0 l -0.80269,-0.79945 c -0.74918,-0.74611 -0.31216,-1.55439 0,-1.86527 l 6.95666,-6.92818 c 0,0 -0.66891,-1.06593 -0.66891,-2.53151 0,-3.16411 2.57551,-5.72912 5.75257,-5.72912 0.74538,0 1.45772,0.14118 2.11133,0.39816"
           stroke="#1c274c"
           stroke-width="1.3655"
           stroke-linecap="round"
           stroke-linejoin="round"
           id="path22"
           style="fill:#ffffff;fill-opacity:1;stroke:#00c202;stroke-opacity:1" /><path
           d="m 156.98099,145.17072 c 0,1.10377 -0.89841,1.99852 -2.00674,1.99852 -1.10824,0 -2.00673,-0.89475 -2.00673,-1.99852 0,-1.10376 0.89849,-1.99853 2.00673,-1.99853 1.10833,0 2.00674,0.89477 2.00674,1.99853 z"
           stroke="#1c274c"
           stroke-width="1.3655"
           id="path23"
           style="fill:#ffffff;fill-opacity:1;stroke:#00c202;stroke-opacity:1" /></g></g><path
       style="fill:none;stroke:#0038f7;stroke-width:0.745874;stroke-linecap:butt;stroke-linejoin:miter;stroke-dasharray:none;stroke-opacity:1;marker-end:url(#Triangle)"
       d="M 123.48403,63.988564 100.72914,63.876051"
       id="path30"
       sodipodi:nodetypes="cc" /><path
       style="fill:none;stroke:#0038f7;stroke-width:0.745874;stroke-linecap:butt;stroke-linejoin:miter;stroke-dasharray:none;stroke-opacity:1;marker-end:url(#Triangle)"
       d="M 123.48403,94.409867 100.72914,94.297354"
       id="path31"
       sodipodi:nodetypes="cc" /><path
       style="fill:none;stroke:#0038f7;stroke-width:0.745874;stroke-linecap:butt;stroke-linejoin:miter;stroke-dasharray:none;stroke-opacity:1;marker-end:url(#Triangle)"
       d="m 123.48403,123.6584 -22.75489,-0.11251"
       id="path32"
       sodipodi:nodetypes="cc" /></g></svg>
