<?xml version="1.0" encoding="UTF-8" standalone="no"?>
<!-- Created with Inkscape (http://www.inkscape.org/) -->

<svg
   width="173.63606mm"
   height="76.101509mm"
   viewBox="0 0 173.63606 76.101509"
   version="1.1"
   id="svg1"
   inkscape:version="1.3.2 (091e20ef0f, 2023-11-25)"
   sodipodi:docname="schedulers.svg"
   xmlns:inkscape="http://www.inkscape.org/namespaces/inkscape"
   xmlns:sodipodi="http://sodipodi.sourceforge.net/DTD/sodipodi-0.dtd"
   xmlns="http://www.w3.org/2000/svg"
   xmlns:svg="http://www.w3.org/2000/svg">
  <sodipodi:namedview
     id="namedview1"
     pagecolor="#ffffff"
     bordercolor="#666666"
     borderopacity="1.0"
     inkscape:showpageshadow="2"
     inkscape:pageopacity="0.0"
     inkscape:pagecheckerboard="0"
     inkscape:deskcolor="#d1d1d1"
     inkscape:document-units="mm"
     inkscape:zoom="1.8388143"
     inkscape:cx="281.15943"
     inkscape:cy="140.3078"
     inkscape:window-width="1858"
     inkscape:window-height="1014"
     inkscape:window-x="62"
     inkscape:window-y="29"
     inkscape:window-maximized="1"
     inkscape:current-layer="layer1"
     showguides="true">
    <sodipodi:guide
       position="-0.13182123,52.433768"
       orientation="0,-1"
       id="guide28"
       inkscape:locked="false" />
    <sodipodi:guide
       position="36.35637,16.645121"
       orientation="0,-1"
       id="guide29"
       inkscape:locked="false" />
  </sodipodi:namedview>
  <defs
     id="defs1" />
  <g
     inkscape:label="Layer 1"
     inkscape:groupmode="layer"
     id="layer1"
     transform="translate(-24.44021,-62.512962)">
    <path
       d="M 37.553809,84.363323 V 84.82735 H 36.8716 v 1.995314 q 0,0.165724 0,0.218755 0.0067,0.05303 0.03975,0.145838 0.03311,0.08617 0.112604,0.112698 0.07948,0.02651 0.225195,0.02651 0.125842,0 0.304676,-0.01989 v 0.483914 q -0.238443,0.02652 -0.43052,0.02652 -0.238443,0 -0.397404,-0.05303 -0.158961,-0.05303 -0.245065,-0.119323 -0.07948,-0.06629 -0.119223,-0.232014 -0.03975,-0.172352 -0.04636,-0.285044 -0.0067,-0.119323 -0.0067,-0.391108 0,-0.05967 0,-0.09281 V 84.827347 H 35.732318 V 84.36332 h 0.576235 v -1.014227 h 0.562989 v 1.014228 z m 3.430918,0 -1.19221,1.57769 1.331302,1.842849 H 40.40187 l -0.960391,-1.405338 -0.947146,1.405338 h -0.682208 l 1.284937,-1.803074 -1.185586,-1.617465 h 0.715325 l 0.827924,1.173325 0.847794,-1.173325 z m 3.927666,0 v 0.464027 h -0.682208 v 1.995314 q 0,0.165724 0,0.218755 0.0067,0.05303 0.03974,0.145838 0.03311,0.08617 0.112604,0.112698 0.07948,0.02651 0.225195,0.02651 0.125842,0 0.304676,-0.01989 v 0.483914 q -0.238441,0.02652 -0.43052,0.02652 -0.238442,0 -0.397404,-0.05303 -0.158961,-0.05303 -0.245065,-0.119323 -0.07948,-0.06629 -0.119222,-0.232014 -0.03975,-0.172352 -0.04637,-0.285044 -0.0067,-0.119323 -0.0067,-0.391108 0,-0.05967 0,-0.09281 V 84.827347 H 43.090884 V 84.36332 h 0.576235 v -1.014227 h 0.562987 v 1.014228 z m 1.185591,-1.299274 v 1.783187 q 0.377532,-0.570089 1.119353,-0.570089 1.152468,0 1.152468,1.166695 v 2.34002 h -0.562987 v -2.207441 q 0,-0.391107 -0.165585,-0.596606 -0.158961,-0.212125 -0.582858,-0.212125 -0.516625,0 -0.74182,0.331447 -0.218571,0.331448 -0.218571,0.94794 v 1.736785 h -0.562989 v -4.719813 z m 4.901305,1.219727 v 0.583347 q -0.0596,-0.0067 -0.145715,-0.0067 -0.271559,0 -0.470262,0.08617 -0.198701,0.07954 -0.317922,0.212127 -0.112603,0.132573 -0.185455,0.331447 -0.07286,0.198868 -0.09935,0.397738 -0.01987,0.198868 -0.01987,0.450768 v 1.445111 h -0.562989 v -3.420539 h 0.536495 v 0.735814 q 0.337793,-0.815361 1.265067,-0.815361 z m 3.225593,2.419567 q -0.258311,1.193211 -1.490261,1.193211 -0.755066,0 -1.185586,-0.470655 -0.423898,-0.470656 -0.423898,-1.305903 0,-0.828619 0.437144,-1.339049 0.443768,-0.517058 1.15247,-0.517058 0.788182,0 1.165716,0.536945 0.384157,0.530316 0.384157,1.345676 v 0.07954 h -2.569876 l -0.0067,0.03978 q 0,0.543574 0.284805,0.855136 0.284806,0.31156 0.78156,0.31156 0.37091,0 0.582857,-0.172352 0.218573,-0.172354 0.337794,-0.556833 z m -0.543117,-0.934682 q -0.03975,-0.490543 -0.298053,-0.76233 -0.258311,-0.278416 -0.682209,-0.278416 -0.41065,0 -0.682208,0.278416 -0.271559,0.278416 -0.324547,0.76233 z m 4.205856,1.564433 v 0.437509 q -0.172208,0.06629 -0.384157,0.06629 -0.483507,0 -0.496753,-0.5038 -0.483508,0.543574 -1.238574,0.543574 -0.503378,0 -0.80143,-0.25853 -0.291429,-0.258529 -0.291429,-0.709298 0,-0.914795 1.21208,-1.06726 0.715327,-0.08617 0.827924,-0.125948 0.238441,-0.07954 0.258311,-0.331447 0.0067,-0.03978 0.0067,-0.08617 0,-0.563462 -0.774936,-0.563462 -0.397404,0 -0.602729,0.165724 -0.205325,0.159095 -0.245065,0.530316 h -0.549742 q 0.01324,-0.550203 0.390781,-0.855135 0.377533,-0.304932 1.039872,-0.304932 0.721949,0 1.072989,0.331448 0.112603,0.106058 0.165584,0.278416 0.05298,0.172352 0.05962,0.285044 0.0067,0.106059 0.0067,0.324819 0,0.25853 -0.01324,0.768959 -0.01324,0.503801 -0.01324,0.755701 0,0.185609 0.04637,0.265157 0.05298,0.07292 0.185454,0.07292 0.05298,0 0.139095,-0.01989 z m -0.907404,-1.32579 q -0.0596,0.0464 -0.125842,0.07954 -0.06624,0.03314 -0.172209,0.05303 -0.09935,0.01989 -0.139096,0.03314 -0.03311,0.0067 -0.172207,0.02652 -0.139096,0.01325 -0.145715,0.01325 -0.205325,0.02652 -0.271559,0.03978 -0.0596,0.0067 -0.238443,0.05303 -0.172207,0.0464 -0.245065,0.106058 -0.07286,0.05965 -0.145715,0.178981 -0.06624,0.112699 -0.06624,0.271787 0,0.265159 0.178833,0.417625 0.185455,0.152465 0.503377,0.152465 0.404027,0 0.721949,-0.238641 0.317923,-0.238643 0.317923,-0.563462 z m 4.517155,-2.943255 v 4.719813 H 60.9675 v -0.5038 q -0.324546,0.596606 -1.125976,0.596606 -0.728573,0 -1.159093,-0.483914 -0.423897,-0.490543 -0.423897,-1.32579 0,-0.775587 0.397404,-1.286017 0.404026,-0.517058 1.159092,-0.517058 0.735196,0 1.119353,0.556831 v -1.756671 z m -1.609484,1.683754 q -0.483508,0 -0.768313,0.351334 -0.278182,0.351334 -0.278182,0.95457 0,0.62312 0.284805,0.994341 0.29143,0.364593 0.774936,0.364593 0.490131,0 0.768314,-0.351335 0.278182,-0.357963 0.278182,-0.987713 0,-0.563462 -0.264936,-0.941311 -0.258311,-0.384479 -0.794806,-0.384479 z"
       id="text4"
       style="font-size:4.45271px;line-height:1.25;font-family:HelveticaNeueCyr;-inkscape-font-specification:HelveticaNeueCyr;stroke-width:0.264583"
       aria-label="tx thread" />
    <path
       d="m 26.545734,120.7142 q 0.45039,-0.49054 1.225326,-0.49054 0.774937,0 1.205458,0.47065 0.43052,0.47067 0.43052,1.31916 0,0.8684 -0.43052,1.35232 -0.430521,0.4839 -1.21208,0.4839 -0.78156,0 -1.225328,-0.47728 -0.443766,-0.47729 -0.443766,-1.32579 0,-0.84188 0.45039,-1.33242 z m 1.99364,0.3447 q -0.284806,-0.36459 -0.78156,-0.36459 -0.496754,0 -0.788184,0.36459 -0.291429,0.3646 -0.291429,0.97446 0,0.62975 0.284807,0.98772 0.291429,0.35133 0.808052,0.35133 0.496755,0 0.774937,-0.35797 0.284806,-0.35795 0.284806,-0.9877 0,-0.60987 -0.291429,-0.96784 z m 3.000391,-0.73581 v 0.46403 h -0.682209 v 1.99532 q 0,0.16572 0,0.21875 0.0067,0.053 0.03975,0.1459 0.03311,0.0862 0.112604,0.1127 0.07948,0.0265 0.225195,0.0265 0.125842,0 0.304676,-0.0199 v 0.4839 q -0.238443,0.0265 -0.43052,0.0265 -0.238443,0 -0.397404,-0.053 -0.158961,-0.053 -0.245065,-0.1194 -0.07948,-0.0662 -0.119223,-0.232 -0.03975,-0.17235 -0.04636,-0.28505 -0.0067,-0.1194 -0.0067,-0.39111 0,-0.0597 0,-0.0928 v -1.81634 h -0.576174 v -0.46403 h 0.576235 v -1.01422 h 0.562989 v 1.01422 z m 1.185589,-1.29927 v 1.78319 q 0.377534,-0.57009 1.119353,-0.57009 1.15247,0 1.15247,1.16669 v 2.34002 h -0.562989 v -2.20744 q 0,-0.3911 -0.165584,-0.59661 -0.158961,-0.21212 -0.582858,-0.21212 -0.516624,0 -0.741819,0.33144 -0.218573,0.33146 -0.218573,0.94795 v 1.73678 h -0.562987 v -4.71981 z m 6.040529,3.63929 q -0.258312,1.19322 -1.490262,1.19322 -0.755067,0 -1.185587,-0.47065 -0.423896,-0.47067 -0.423896,-1.30592 0,-0.82862 0.437144,-1.33905 0.443766,-0.51705 1.152469,-0.51705 0.788184,0 1.165716,0.53694 0.384156,0.53032 0.384156,1.34568 v 0.0795 h -2.569874 l -0.0067,0.0397 q 0,0.54357 0.284806,0.85513 0.284805,0.31157 0.781559,0.31157 0.37091,0 0.582859,-0.17235 0.218571,-0.17236 0.337792,-0.55684 z m -0.543117,-0.93467 q -0.03975,-0.49055 -0.298053,-0.76233 -0.258312,-0.27843 -0.682209,-0.27843 -0.41065,0 -0.682208,0.27843 -0.271561,0.27841 -0.324547,0.76233 z m 2.960658,-1.48489 v 0.58335 q -0.0596,-0.006 -0.145715,-0.006 -0.271559,0 -0.470261,0.0862 -0.198702,0.0795 -0.317923,0.21213 -0.112603,0.13265 -0.185455,0.33144 -0.07286,0.19887 -0.09935,0.39775 -0.01987,0.19886 -0.01987,0.45076 v 1.44511 h -0.562989 v -3.42054 h 0.536495 v 0.73581 q 0.337793,-0.81535 1.265067,-0.81535 z m 3.728968,0.0795 v 0.46402 h -0.682209 v 1.99532 q 0,0.16573 0,0.21876 0.0067,0.053 0.03975,0.1459 0.03311,0.0862 0.112603,0.11269 0.07948,0.0265 0.225197,0.0265 0.125842,0 0.304675,-0.0199 v 0.48391 q -0.238441,0.0265 -0.43052,0.0265 -0.238443,0 -0.397404,-0.053 -0.158961,-0.053 -0.245065,-0.1194 -0.07948,-0.0662 -0.119223,-0.23201 -0.03975,-0.17235 -0.04637,-0.28505 -0.0067,-0.11939 -0.0067,-0.39111 0,-0.0597 0,-0.0927 v -1.81635 h -0.576235 v -0.46402 h 0.576235 v -1.01423 h 0.562988 v 1.01423 z m 1.185591,-1.29928 v 1.78319 q 0.377532,-0.57008 1.119352,-0.57008 1.152469,0 1.152469,1.16668 v 2.34003 h -0.562988 v -2.20744 q 0,-0.39111 -0.165585,-0.59662 -0.158961,-0.21211 -0.582857,-0.21211 -0.516625,0 -0.74182,0.33144 -0.218571,0.33145 -0.218571,0.94794 v 1.73679 h -0.562989 v -4.71982 z m 4.901304,1.21973 v 0.58335 q -0.0596,-0.006 -0.145715,-0.006 -0.271558,0 -0.470261,0.0862 -0.198701,0.0795 -0.317923,0.21214 -0.112603,0.13264 -0.185455,0.33144 -0.07286,0.19886 -0.09935,0.39774 -0.01987,0.19887 -0.01987,0.45077 v 1.44511 h -0.562991 v -3.42051 h 0.536495 v 0.73582 q 0.337792,-0.81536 1.265066,-0.81536 z m 3.225595,2.41957 q -0.258312,1.19321 -1.490262,1.19321 -0.755067,0 -1.185587,-0.47065 -0.423897,-0.47066 -0.423897,-1.30591 0,-0.82862 0.437143,-1.33905 0.443768,-0.51706 1.152471,-0.51706 0.788182,0 1.165716,0.53695 0.384156,0.53032 0.384156,1.34567 v 0.0795 h -2.569875 l -0.0067,0.0397 q 0,0.54357 0.284805,0.85514 0.284806,0.31156 0.78156,0.31156 0.37091,0 0.582858,-0.17235 0.218572,-0.17235 0.337793,-0.55683 z m -0.543119,-0.93468 q -0.03975,-0.49054 -0.298052,-0.76233 -0.258311,-0.27842 -0.682209,-0.27842 -0.41065,0 -0.682209,0.27842 -0.271559,0.27841 -0.324546,0.76233 z m 4.205855,1.56443 v 0.43752 q -0.172208,0.0662 -0.384157,0.0662 -0.483507,0 -0.496753,-0.5038 -0.483508,0.54357 -1.238574,0.54357 -0.503378,0 -0.80143,-0.25853 -0.291429,-0.25852 -0.291429,-0.7093 0,-0.91479 1.21208,-1.06725 0.715327,-0.0862 0.827924,-0.12595 0.238441,-0.0795 0.258311,-0.33145 0.0067,-0.0397 0.0067,-0.0862 0,-0.56348 -0.774936,-0.56348 -0.397404,0 -0.602729,0.16573 -0.205325,0.1591 -0.245065,0.53032 h -0.549742 q 0.01324,-0.55021 0.390781,-0.85513 0.377533,-0.30494 1.039872,-0.30494 0.721949,0 1.072989,0.33145 0.112603,0.106 0.165584,0.27841 0.05298,0.17235 0.05962,0.28505 0.0067,0.106 0.0067,0.32482 0,0.25853 -0.01324,0.76896 -0.01324,0.50379 -0.01324,0.7557 0,0.18561 0.04637,0.26517 0.05298,0.0729 0.185455,0.0729 0.05298,0 0.139096,-0.02 z m -0.907404,-1.32578 q -0.0596,0.0464 -0.125842,0.0795 -0.06624,0.0332 -0.172209,0.053 -0.09935,0.0199 -0.139096,0.0332 -0.03311,0.006 -0.172207,0.0265 -0.139096,0.0134 -0.145715,0.0134 -0.205325,0.0265 -0.271559,0.0397 -0.0596,0.006 -0.238441,0.053 -0.172209,0.0465 -0.245067,0.106 -0.07286,0.0597 -0.145715,0.17898 -0.06624,0.11269 -0.06624,0.27178 0,0.26516 0.178831,0.41764 0.185455,0.15246 0.503378,0.15246 0.404026,0 0.721949,-0.23864 0.317922,-0.23865 0.317922,-0.56346 z m 4.517158,-2.94327 v 4.71982 H 60.9675 v -0.5038 q -0.324546,0.5966 -1.125976,0.5966 -0.728573,0 -1.159093,-0.48391 -0.423897,-0.49054 -0.423897,-1.32579 0,-0.77559 0.397404,-1.28602 0.404026,-0.51706 1.159092,-0.51706 0.735196,0 1.119353,0.55684 v -1.75668 z m -1.609484,1.68376 q -0.483508,0 -0.768313,0.35133 -0.278182,0.35134 -0.278182,0.95457 0,0.62313 0.284805,0.99434 0.29143,0.3646 0.774936,0.3646 0.490131,0 0.768314,-0.35133 0.278182,-0.35797 0.278182,-0.98772 0,-0.56346 -0.264936,-0.94131 -0.258311,-0.38448 -0.794806,-0.38448 z"
       id="text5"
       style="font-size:4.45271px;line-height:1.25;font-family:HelveticaNeueCyr;-inkscape-font-specification:HelveticaNeueCyr;stroke-width:0.264583"
       aria-label="other thread" />
    <path
       id="rect1"
       style="fill:#a7a7a7;fill-opacity:0.113725;stroke:#a5a5a5;stroke-width:0.465;stroke-opacity:0.835294"
       d="M 70.295919,72.831693 H 192.56128 V 97.306741 H 70.295919 Z" />
    <path
       d="m 136.07182,118.8741 h 1.51545 q 0.56376,0 0.89477,0.25882 0.33103,0.25365 0.33103,0.80236 0,1.11296 -1.25685,1.11296 H 136.558 v 1.51154 h -0.48618 z m 0.48618,0.41929 v 1.3459 h 0.93617 q 0.39308,0 0.61032,-0.145 0.22239,-0.15012 0.22239,-0.528 0,-0.21223 -0.0724,-0.35201 -0.0672,-0.1398 -0.2017,-0.20706 -0.13447,-0.0673 -0.27931,-0.088 -0.14488,-0.0259 -0.34653,-0.0259 z m 3.23261,-0.41929 v 0.53836 h -0.44481 v -0.53836 z m 0,1.0146 v 2.67108 h -0.44481 v -2.67108 z m 2.97915,1.69788 q -0.0568,0.48142 -0.36721,0.76613 -0.30516,0.2847 -0.79651,0.2847 -0.60515,0 -0.93616,-0.3727 -0.33103,-0.37788 -0.33103,-1.00424 0,-0.66777 0.34655,-1.05601 0.34652,-0.39341 0.93615,-0.39341 0.49135,0 0.78617,0.24847 0.29481,0.2433 0.34653,0.69883 h -0.45514 q -0.119,-0.57976 -0.67238,-0.57976 -0.38275,0 -0.60515,0.2847 -0.22241,0.27953 -0.22241,0.76095 0,0.48659 0.21206,0.76612 0.21206,0.27953 0.58445,0.27953 0.3,0 0.48619,-0.176 0.19137,-0.176 0.24309,-0.50731 z m 0.69309,-1.39247 q 0.3517,-0.38306 0.95684,-0.38306 0.60515,0 0.94134,0.36754 0.33619,0.36752 0.33619,1.03012 0,0.67812 -0.33619,1.056 -0.33619,0.37788 -0.94651,0.37788 -0.61032,0 -0.95685,-0.3727 -0.34654,-0.37271 -0.34654,-1.03531 0,-0.65741 0.35172,-1.04047 z m 1.55681,0.26918 q -0.22239,-0.2847 -0.61032,-0.2847 -0.38791,0 -0.61548,0.2847 -0.22757,0.28471 -0.22757,0.76095 0,0.49176 0.22239,0.7713 0.22759,0.27435 0.63101,0.27435 0.38791,0 0.60515,-0.27953 0.22239,-0.27953 0.22239,-0.7713 0,-0.47624 -0.22757,-0.75577 z m 3.60499,-1.58919 v 3.68568 h -0.41378 v -0.39342 q -0.25342,0.46589 -0.87925,0.46589 -0.56894,0 -0.90513,-0.37789 -0.33103,-0.38307 -0.33103,-1.0353 0,-0.60566 0.31034,-1.00424 0.3155,-0.40377 0.90513,-0.40377 0.57411,0 0.87409,0.43483 v -1.37178 z m -1.25683,1.31483 q -0.37757,0 -0.59998,0.27436 -0.21722,0.27435 -0.21722,0.74542 0,0.48658 0.2224,0.77647 0.22757,0.28471 0.60514,0.28471 0.38275,0 0.59997,-0.27435 0.21723,-0.27954 0.21723,-0.7713 0,-0.44 -0.20688,-0.73507 -0.20172,-0.30024 -0.62066,-0.30024 z m 4.28255,2.01885 v 0.34163 q -0.13447,0.0518 -0.29999,0.0518 -0.37757,0 -0.38791,-0.3934 -0.37757,0.42447 -0.9672,0.42447 -0.39308,0 -0.62583,-0.20189 -0.22757,-0.20189 -0.22757,-0.55388 0,-0.71436 0.94651,-0.83342 0.55858,-0.0673 0.64651,-0.0984 0.1862,-0.0621 0.20172,-0.25884 0.004,-0.0311 0.004,-0.0673 0,-0.44 -0.60514,-0.44 -0.31034,0 -0.47068,0.12937 -0.16033,0.12417 -0.19136,0.41413 h -0.42929 q 0.0104,-0.42965 0.30516,-0.66776 0.2948,-0.23813 0.81202,-0.23813 0.56377,0 0.83789,0.25882 0.0879,0.0828 0.12926,0.21742 0.0414,0.13458 0.0466,0.22259 0.004,0.0828 0.004,0.25364 0,0.20189 -0.0104,0.60049 -0.0104,0.39341 -0.0104,0.59012 0,0.14486 0.0362,0.20705 0.0413,0.057 0.14488,0.057 0.0414,0 0.10859,-0.0155 z m -0.70859,-1.03531 q -0.0466,0.0362 -0.0983,0.0621 -0.0518,0.0259 -0.13447,0.0414 -0.0777,0.0155 -0.10859,0.0259 -0.0259,0.004 -0.13447,0.0207 -0.10858,0.0104 -0.11379,0.0104 -0.16034,0.0207 -0.21206,0.0311 -0.0466,0.004 -0.1862,0.0414 -0.13447,0.0362 -0.19137,0.0828 -0.057,0.0466 -0.11379,0.13979 -0.0518,0.088 -0.0518,0.21223 0,0.20707 0.13968,0.32613 0.14488,0.1191 0.39307,0.1191 0.31551,0 0.56378,-0.18635 0.24826,-0.18636 0.24826,-0.44001 z m 2.26542,-1.28377 v 0.36236 h -0.53275 v 1.55812 q 0,0.12937 0,0.17082 0.004,0.0414 0.0311,0.11389 0.0259,0.0673 0.0879,0.088 0.062,0.0207 0.17585,0.0207 0.0983,0 0.23792,-0.0155 v 0.37788 q -0.1862,0.0207 -0.3362,0.0207 -0.18619,0 -0.31032,-0.0414 -0.12406,-0.0414 -0.19137,-0.0932 -0.062,-0.0518 -0.0931,-0.18118 -0.0311,-0.13459 -0.0361,-0.22259 -0.004,-0.0932 -0.004,-0.30541 0,-0.0466 0,-0.0725 v -1.41836 h -0.44997 v -0.36236 h 0.44997 v -0.79201 h 0.43963 v 0.79201 z m 2.84984,2.31908 v 0.34163 q -0.13447,0.0518 -0.29998,0.0518 -0.37756,0 -0.38791,-0.3934 -0.37757,0.42447 -0.96718,0.42447 -0.39309,0 -0.62584,-0.20189 -0.22757,-0.20189 -0.22757,-0.55388 0,-0.71436 0.94649,-0.83342 0.5586,-0.0673 0.64653,-0.0984 0.18619,-0.0621 0.20172,-0.25884 0.004,-0.0311 0.004,-0.0673 0,-0.44 -0.60514,-0.44 -0.31032,0 -0.47066,0.12937 -0.16034,0.12417 -0.19137,0.41413 h -0.42929 q 0.0104,-0.42965 0.30516,-0.66776 0.29481,-0.23813 0.81203,-0.23813 0.56376,0 0.83789,0.25882 0.0879,0.0828 0.12926,0.21742 0.0414,0.13458 0.0466,0.22259 0.004,0.0828 0.004,0.25364 0,0.20189 -0.0104,0.60049 -0.0104,0.39341 -0.0104,0.59012 0,0.14486 0.0361,0.20705 0.0414,0.057 0.14474,0.057 0.0413,0 0.10858,-0.0155 z m -0.70858,-1.03531 q -0.0466,0.0362 -0.0983,0.0621 -0.0518,0.0259 -0.13447,0.0414 -0.0775,0.0155 -0.10859,0.0259 -0.0259,0.004 -0.13447,0.0207 -0.10859,0.0104 -0.11379,0.0104 -0.16034,0.0207 -0.21206,0.0311 -0.0466,0.004 -0.18619,0.0414 -0.13447,0.0362 -0.19137,0.0828 -0.057,0.0466 -0.11379,0.13979 -0.0518,0.088 -0.0518,0.21223 0,0.20707 0.13967,0.32613 0.14488,0.1191 0.39309,0.1191 0.31549,0 0.56376,-0.18635 0.24826,-0.18636 0.24826,-0.44001 z m 4.54116,-0.5073 h -0.43963 q -0.0414,-0.48658 -0.6517,-0.48658 -0.25342,0 -0.39825,0.0984 -0.14488,0.0984 -0.14488,0.264 0,0.0466 0.0104,0.0932 0.0104,0.0414 0.0361,0.0777 0.0311,0.0311 0.0518,0.0569 0.0259,0.0259 0.0777,0.0518 0.057,0.0207 0.0827,0.0362 0.0311,0.0155 0.10338,0.0362 0.0777,0.0155 0.10858,0.0259 0.0311,0.004 0.119,0.0259 0.0931,0.0207 0.119,0.0259 0.19137,0.0414 0.28447,0.0673 0.0983,0.0259 0.26378,0.0984 0.17069,0.0673 0.25862,0.14501 0.0879,0.0725 0.15516,0.20705 0.0724,0.12937 0.0724,0.29505 0,0.38825 -0.30516,0.62636 -0.29998,0.23295 -0.80169,0.23295 -0.54307,0 -0.83789,-0.23811 -0.28963,-0.23813 -0.31032,-0.68849 h 0.43445 q 0.0361,0.56425 0.7241,0.56425 0.29482,0 0.47067,-0.1191 0.18103,-0.12416 0.18103,-0.32611 0,-0.13458 -0.0931,-0.22259 -0.0931,-0.088 -0.20689,-0.12417 -0.11379,-0.0414 -0.32585,-0.0932 -0.0311,-0.004 -0.0466,-0.0104 -0.0465,-0.0104 -0.20171,-0.0414 -0.15,-0.0362 -0.21724,-0.057 -0.0672,-0.0207 -0.19654,-0.0621 -0.12406,-0.0466 -0.18619,-0.0932 -0.062,-0.0518 -0.13968,-0.12417 -0.0724,-0.0777 -0.10338,-0.176 -0.0311,-0.10346 -0.0311,-0.23294 0,-0.36236 0.27413,-0.5746 0.2793,-0.21223 0.74479,-0.21223 0.47066,0 0.76548,0.2226 0.29999,0.22258 0.29999,0.63152 z m 2.90159,0.92141 q -0.0568,0.48142 -0.36724,0.76613 -0.30514,0.2847 -0.79651,0.2847 -0.60514,0 -0.93615,-0.3727 -0.33103,-0.37788 -0.33103,-1.00424 0,-0.66777 0.34654,-1.05601 0.34653,-0.39341 0.93616,-0.39341 0.49136,0 0.78617,0.24847 0.29481,0.2433 0.34654,0.69883 h -0.45516 q -0.119,-0.57976 -0.67238,-0.57976 -0.38273,0 -0.60514,0.2847 -0.22239,0.27953 -0.22239,0.76095 0,0.48659 0.21205,0.76612 0.21206,0.27953 0.58446,0.27953 0.29998,0 0.48617,-0.176 0.19138,-0.176 0.2431,-0.50731 z m 0.92064,-2.71248 v 1.39249 q 0.2948,-0.44518 0.87409,-0.44518 0.89995,0 0.89995,0.91106 v 1.82731 h -0.43963 V 120.836 q 0,-0.30541 -0.12926,-0.46589 -0.12406,-0.16565 -0.45514,-0.16565 -0.40343,0 -0.57929,0.25883 -0.17068,0.25882 -0.17068,0.74024 v 1.35625 h -0.43963 v -3.68568 z m 4.71701,2.8419 q -0.20172,0.93178 -1.16374,0.93178 -0.58963,0 -0.92582,-0.36753 -0.33101,-0.36754 -0.33101,-1.01978 0,-0.64707 0.34136,-1.04565 0.34653,-0.40377 0.89995,-0.40377 0.61548,0 0.91031,0.4193 0.29998,0.41411 0.29998,1.05083 v 0.0621 h -2.0068 l -0.004,0.0311 q 0,0.42448 0.22241,0.66777 0.2224,0.24329 0.61031,0.24329 0.28964,0 0.45515,-0.13458 0.17068,-0.13458 0.26378,-0.43483 z m -0.42412,-0.72989 q -0.0311,-0.38305 -0.23274,-0.59529 -0.20172,-0.21741 -0.53274,-0.21741 -0.32067,0 -0.53273,0.21741 -0.21207,0.2174 -0.25344,0.59529 z m 3.3257,-2.11201 v 3.68568 h -0.41377 v -0.39342 q -0.25344,0.46589 -0.87928,0.46589 -0.56893,0 -0.90512,-0.37789 -0.33102,-0.38307 -0.33102,-1.0353 0,-0.60566 0.31033,-1.00424 0.31551,-0.40377 0.90512,-0.40377 0.57412,0 0.8741,0.43483 v -1.37178 z m -1.25684,1.31483 q -0.37756,0 -0.59997,0.27436 -0.21723,0.27435 -0.21723,0.74542 0,0.48658 0.22241,0.77647 0.22757,0.28471 0.60514,0.28471 0.38273,0 0.59997,-0.27435 0.21723,-0.27954 0.21723,-0.7713 0,-0.44 -0.20689,-0.73507 -0.20171,-0.30024 -0.62066,-0.30024 z m 4.13256,-0.30023 v 2.67108 h -0.4086 v -0.41931 q -0.34137,0.49178 -0.92064,0.49178 -0.42412,0 -0.65686,-0.23295 -0.23275,-0.23294 -0.23275,-0.67294 v -1.83766 h 0.43963 v 1.71859 q 0,0.31578 0.119,0.48142 0.1242,0.16047 0.43964,0.16047 0.781,0 0.781,-0.96283 v -1.39765 z m 1.12752,-1.0146 v 3.68568 h -0.4448 v -3.68568 z m 2.96366,2.8419 q -0.20172,0.93178 -1.16374,0.93178 -0.58963,0 -0.92582,-0.36753 -0.33101,-0.36754 -0.33101,-1.01978 0,-0.64707 0.34136,-1.04565 0.34653,-0.40377 0.89995,-0.40377 0.61548,0 0.9103,0.4193 0.29999,0.41411 0.29999,1.05083 v 0.0621 h -2.0068 l -0.004,0.0311 q 0,0.42448 0.22241,0.66777 0.2224,0.24329 0.61031,0.24329 0.28964,0 0.45515,-0.13458 0.17068,-0.13458 0.26378,-0.43483 z m -0.42412,-0.72989 q -0.0311,-0.38305 -0.23274,-0.59529 -0.20172,-0.21741 -0.53274,-0.21741 -0.32067,0 -0.53273,0.21741 -0.21206,0.2174 -0.25344,0.59529 z m 2.31196,-1.15954 v 0.45554 q -0.0466,-0.004 -0.11379,-0.004 -0.21206,0 -0.36722,0.0673 -0.15518,0.0621 -0.24827,0.16565 -0.0879,0.10347 -0.14488,0.25882 -0.057,0.15531 -0.0776,0.3106 -0.0155,0.15529 -0.0155,0.352 v 1.12848 h -0.43963 v -2.67108 h 0.41893 v 0.5746 q 0.26378,-0.63672 0.9879,-0.63672 z"
       id="text12"
       style="font-size:3.47709px;line-height:1.25;font-family:HelveticaNeueCyr;-inkscape-font-specification:HelveticaNeueCyr;stroke-width:0.264583"
       aria-label="Picodata scheduler" />
    <path
       id="rect18"
       style="fill:#a7a7a7;fill-opacity:0.113725;stroke:#a5a5a5;stroke-width:0.465;stroke-opacity:0.835294"
       d="M 70.295919,108.72414 H 192.56128 v 24.47504 H 70.295919 Z" />
    <g
       id="g27"
       transform="translate(0,0.01729)">
      <g
         id="g26"
         transform="translate(-0.17367274,0.17751455)">
        <g
           id="g19"
           transform="matrix(1.4874959,0,0,1.4887452,-11.844334,4.9305019)"
           style="stroke-width:0.671989">
          <path
             id="rect19"
             style="fill:#ffffff;stroke:#a5a5a5;stroke-width:0.312474"
             d="m 59.167187,72.276207 h 8.391081 v 4.58171 h -8.391081 z" />
          <path
             d="m 60.882173,73.763649 v 0.180404 q -0.05363,-0.0098 -0.114581,-0.0098 -0.09752,0 -0.129208,0.03169 -0.02925,0.03169 -0.02925,0.136522 v 0.143836 h 0.241351 v 0.170652 h -0.241351 v 1.087299 H 60.39947 v -1.087299 h -0.212096 v -0.170652 h 0.212096 v -0.168215 q 0,-0.170652 0.08776,-0.246227 0.08776,-0.07801 0.260855,-0.07801 0.05363,0 0.134084,0.0098 z m 0.372996,0.0049 V 74.02209 H 61.04551 v -0.253541 z m 0,0.477827 v 1.257951 H 61.04551 v -1.257951 z m 0.526584,-0.477827 v 0.650917 q 0.136522,-0.207221 0.416879,-0.207221 0.258417,0 0.412004,0.180404 0.156025,0.177966 0.156025,0.477827 0,0.304736 -0.158463,0.487578 -0.158463,0.182841 -0.421755,0.182841 -0.299861,0 -0.416879,-0.21941 v 0.182842 h -0.195032 v -1.735778 z m 0.385187,0.619224 q -0.199907,0 -0.297423,0.143836 -0.09508,0.143835 -0.09508,0.353494 0,0.221848 0.10483,0.353494 0.107267,0.129208 0.287671,0.129208 0.17309,0 0.277919,-0.134084 0.107267,-0.136522 0.107267,-0.360808 0,-0.221848 -0.104829,-0.353494 -0.104829,-0.131646 -0.280357,-0.131646 z m 1.93081,0.719178 q -0.09508,0.43882 -0.548525,0.43882 -0.27792,0 -0.436383,-0.17309 -0.156025,-0.17309 -0.156025,-0.480264 0,-0.304737 0.160901,-0.492454 0.163339,-0.190156 0.424193,-0.190156 0.290109,0 0.429068,0.197469 0.141398,0.195032 0.141398,0.494892 v 0.02925 h -0.945901 l -0.0024,0.01463 q 0,0.199907 0.104829,0.314488 0.104829,0.114581 0.287671,0.114581 0.136522,0 0.214535,-0.06338 0.08045,-0.06339 0.124332,-0.204783 z m -0.199907,-0.343743 q -0.01463,-0.180403 -0.109705,-0.280357 -0.09508,-0.102391 -0.251103,-0.102391 -0.151149,0 -0.251103,0.102391 -0.09995,0.102391 -0.119456,0.280357 z m 1.089738,-0.546087 v 0.214534 q -0.02194,-0.0024 -0.05363,-0.0024 -0.09995,0 -0.17309,0.03169 -0.07314,0.02925 -0.117019,0.07801 -0.04144,0.04876 -0.06826,0.121894 -0.02682,0.07314 -0.03657,0.146273 -0.0073,0.07314 -0.0073,0.165777 v 0.53146 h -0.207221 v -1.257951 h 0.197469 v 0.270606 q 0.124332,-0.299861 0.465637,-0.299861 z m 1.933247,0.694799 v 0.175528 h -0.234037 v 0.416879 h -0.195032 v -0.416879 h -0.758183 v -0.195031 l 0.785,-1.116554 h 0.168215 v 1.136057 z m -0.429069,0 v -0.831321 l -0.575342,0.831321 z"
             id="text19"
             style="font-size:2.43789px;line-height:1.25;font-family:HelveticaNeueCyr;-inkscape-font-specification:HelveticaNeueCyr;stroke-width:0.177797"
             aria-label="fiber 4" />
        </g>
        <g
           id="g20"
           transform="matrix(1.4874959,0,0,1.4887452,-11.413601,3.679362)"
           style="stroke-width:0.671989">
          <path
             id="rect20"
             style="fill:#ffffff;stroke:#a5a5a5;stroke-width:0.312474"
             d="m 67.932495,79.598572 h 8.391081 v 4.58171 h -8.391081 z" />
          <path
             d="m 69.647477,81.086014 v 0.180404 q -0.05363,-0.0098 -0.114581,-0.0098 -0.09751,0 -0.129208,0.03169 -0.02926,0.03169 -0.02926,0.136522 v 0.143836 h 0.241352 v 0.170652 h -0.241352 v 1.087299 H 69.16477 v -1.087299 h -0.212097 v -0.170652 h 0.212097 v -0.168215 q 0,-0.170652 0.08776,-0.246227 0.08776,-0.07801 0.260854,-0.07801 0.05363,0 0.134084,0.0098 z m 0.372996,0.0049 v 0.253541 H 69.810815 V 81.09089 Z m 0,0.477827 v 1.257951 h -0.209658 v -1.257951 z m 0.526585,-0.477827 v 0.650917 q 0.136522,-0.207221 0.416879,-0.207221 0.258416,0 0.412003,0.180404 0.156025,0.177966 0.156025,0.477826 0,0.304737 -0.158463,0.487578 -0.158462,0.182842 -0.421755,0.182842 -0.29986,0 -0.416879,-0.21941 v 0.182842 H 70.339837 V 81.09089 Z m 0.385186,0.619224 q -0.199907,0 -0.297422,0.143836 -0.09508,0.143835 -0.09508,0.353494 0,0.221848 0.104829,0.353494 0.107267,0.129208 0.287671,0.129208 0.173091,0 0.27792,-0.134084 0.107267,-0.136522 0.107267,-0.360808 0,-0.221848 -0.104829,-0.353494 -0.10483,-0.131646 -0.280358,-0.131646 z m 1.93081,0.719178 q -0.09508,0.43882 -0.548525,0.43882 -0.277919,0 -0.436382,-0.17309 -0.156025,-0.17309 -0.156025,-0.480265 0,-0.304736 0.160901,-0.492453 0.163338,-0.190156 0.424192,-0.190156 0.290109,0 0.429069,0.197469 0.141398,0.195031 0.141398,0.494892 v 0.02926 H 71.93178 l -0.0024,0.01463 q 0,0.199907 0.10483,0.314488 0.104829,0.114581 0.287671,0.114581 0.136522,0 0.214534,-0.06339 0.08045,-0.06338 0.124332,-0.204782 z M 72.663147,82.085549 Q 72.64852,81.905145 72.553442,81.805192 72.458365,81.7028 72.30234,81.7028 q -0.15115,0 -0.251103,0.102392 -0.09995,0.102391 -0.119457,0.280357 z m 1.089739,-0.546087 v 0.214534 q -0.02194,-0.0024 -0.05363,-0.0024 -0.09995,0 -0.17309,0.03169 -0.07314,0.02925 -0.117019,0.07801 -0.04144,0.04876 -0.06826,0.121895 -0.02682,0.07314 -0.03657,0.146273 -0.0073,0.07314 -0.0073,0.165777 v 0.53146 H 73.089796 V 81.56875 h 0.19747 v 0.270605 q 0.124332,-0.29986 0.465637,-0.29986 z m 1.825979,-0.409566 v 0.182842 H 74.879191 L 74.7768,81.827133 q 0.12677,-0.136522 0.348618,-0.136522 0.243789,0 0.394938,0.158463 0.151149,0.156025 0.151149,0.407128 0,0.263292 -0.165776,0.433944 -0.165777,0.170652 -0.431507,0.170652 -0.246227,0 -0.399814,-0.136522 -0.151149,-0.136521 -0.158463,-0.363245 h 0.209659 q 0.01219,0.143835 0.109705,0.234037 0.09752,0.0902 0.241351,0.0902 0.160901,0 0.268168,-0.117019 0.107267,-0.117018 0.107267,-0.290108 0,-0.180404 -0.104829,-0.292547 -0.104829,-0.114581 -0.273044,-0.114581 -0.214534,0 -0.331553,0.168214 l -0.177966,-0.01219 0.160901,-0.897144 z"
             id="text20"
             style="font-size:2.43789px;line-height:1.25;font-family:HelveticaNeueCyr;-inkscape-font-specification:HelveticaNeueCyr;stroke-width:0.177797"
             aria-label="fiber 5" />
        </g>
        <g
           id="g21"
           transform="matrix(1.4874959,0,0,1.4887452,-11.511815,5.2549501)"
           style="stroke-width:0.671989">
          <path
             id="rect21"
             style="fill:#ffffff;stroke:#a5a5a5;stroke-width:0.312474"
             d="m 77.053398,72.058273 h 8.391081 v 4.58171 h -8.391081 z" />
          <path
             d="m 78.76838,73.545716 v 0.180404 q -0.05363,-0.0098 -0.114581,-0.0098 -0.09752,0 -0.129208,0.03169 -0.02926,0.03169 -0.02926,0.136522 v 0.143835 h 0.241352 v 0.170652 h -0.241352 v 1.087299 H 78.285678 V 74.19907 h -0.212097 v -0.170652 h 0.212097 v -0.168214 q 0,-0.170653 0.08776,-0.246227 0.08776,-0.07801 0.260854,-0.07801 0.05363,0 0.134084,0.0098 z m 0.372996,0.0049 v 0.25354 h -0.209658 v -0.25354 z m 0,0.477826 v 1.257951 h -0.209658 v -1.257951 z m 0.526585,-0.477826 v 0.650916 q 0.136522,-0.20722 0.416879,-0.20722 0.258416,0 0.412003,0.180403 0.156025,0.177966 0.156025,0.477827 0,0.304736 -0.158463,0.487578 -0.158462,0.182842 -0.421755,0.182842 -0.29986,0 -0.416879,-0.21941 v 0.182841 H 79.46074 v -1.735777 z m 0.385186,0.619224 q -0.199907,0 -0.297422,0.143835 -0.09508,0.143836 -0.09508,0.353494 0,0.221848 0.104829,0.353494 0.107267,0.129208 0.287671,0.129208 0.173091,0 0.27792,-0.134083 0.107267,-0.136522 0.107267,-0.360808 0,-0.221848 -0.104829,-0.353494 -0.10483,-0.131646 -0.280358,-0.131646 z m 1.93081,0.719177 q -0.09508,0.43882 -0.548525,0.43882 -0.277919,0 -0.436382,-0.17309 -0.156025,-0.17309 -0.156025,-0.480264 0,-0.304736 0.160901,-0.492454 0.163338,-0.190155 0.424192,-0.190155 0.290109,0 0.429069,0.197469 0.141398,0.195031 0.141398,0.494891 v 0.02926 h -0.945902 l -0.0024,0.01463 q 0,0.199906 0.10483,0.314487 0.104829,0.114581 0.287671,0.114581 0.136522,0 0.214534,-0.06338 0.08045,-0.06339 0.124332,-0.204783 z M 81.78405,74.545251 q -0.01463,-0.180404 -0.109705,-0.280358 -0.09508,-0.102391 -0.251102,-0.102391 -0.15115,0 -0.251103,0.102391 -0.09995,0.102392 -0.119457,0.280358 z m 1.089739,-0.546088 v 0.214535 q -0.02194,-0.0024 -0.05363,-0.0024 -0.09995,0 -0.17309,0.03169 -0.07314,0.02925 -0.117019,0.07801 -0.04144,0.04876 -0.06826,0.121894 -0.02682,0.07314 -0.03657,0.146274 -0.0073,0.07314 -0.0073,0.165776 v 0.53146 h -0.207221 v -1.257951 h 0.19747 v 0.270606 q 0.124332,-0.299861 0.465637,-0.299861 z m 1.933247,0.694799 v 0.175528 h -0.234038 v 0.416879 H 84.377967 V 74.86949 h -0.758184 v -0.195031 l 0.785001,-1.116554 h 0.168214 v 1.136057 z m -0.429069,0 v -0.83132 l -0.575342,0.83132 z"
             id="text21"
             style="font-size:2.43789px;line-height:1.25;font-family:HelveticaNeueCyr;-inkscape-font-specification:HelveticaNeueCyr;stroke-width:0.177797"
             aria-label="fiber 4" />
        </g>
        <g
           id="g22"
           transform="matrix(1.4874959,0,0,1.4887452,-11.844334,4.3952936)"
           style="stroke-width:0.671989">
          <path
             id="rect22"
             style="fill:#ffffff;stroke:#a5a5a5;stroke-width:0.312474"
             d="m 86.331818,79.117676 h 8.39108 v 4.58171 h -8.39108 z" />
          <path
             d="m 88.0468,80.605118 v 0.180404 q -0.05363,-0.0098 -0.114581,-0.0098 -0.09752,0 -0.129208,0.03169 -0.02925,0.03169 -0.02925,0.136522 v 0.143836 h 0.241351 v 0.170652 h -0.241351 v 1.087299 H 87.564102 V 81.258422 H 87.352006 V 81.08777 h 0.212096 v -0.168215 q 0,-0.170652 0.08776,-0.246227 0.08776,-0.07801 0.260855,-0.07801 0.05363,0 0.134083,0.0098 z m 0.372996,0.0049 v 0.253541 h -0.209659 v -0.253541 z m 0,0.477827 v 1.257951 h -0.209659 v -1.257951 z m 0.526584,-0.477827 v 0.650917 q 0.136522,-0.207221 0.416879,-0.207221 0.258417,0 0.412004,0.180404 0.156025,0.177966 0.156025,0.477826 0,0.304737 -0.158463,0.487578 -0.158463,0.182842 -0.421755,0.182842 -0.299861,0 -0.416879,-0.21941 v 0.182842 H 88.73916 v -1.735778 z m 0.385187,0.619224 q -0.199907,0 -0.297423,0.143836 -0.09508,0.143835 -0.09508,0.353494 0,0.221848 0.104829,0.353494 0.107267,0.129208 0.287671,0.129208 0.17309,0 0.277919,-0.134084 0.107267,-0.136522 0.107267,-0.360808 0,-0.221848 -0.104829,-0.353494 -0.104829,-0.131646 -0.280357,-0.131646 z m 1.93081,0.719178 q -0.09508,0.43882 -0.548525,0.43882 -0.27792,0 -0.436383,-0.17309 -0.156025,-0.17309 -0.156025,-0.480265 0,-0.304736 0.160901,-0.492453 0.163339,-0.190156 0.424193,-0.190156 0.290109,0 0.429069,0.197469 0.141397,0.195031 0.141397,0.494892 v 0.02926 h -0.945901 l -0.0024,0.01463 q 0,0.199907 0.104829,0.314488 0.10483,0.114581 0.287671,0.114581 0.136522,0 0.214535,-0.06339 0.08045,-0.06338 0.124332,-0.204782 z M 91.06247,81.604653 q -0.01463,-0.180404 -0.109705,-0.280357 -0.09508,-0.102392 -0.251103,-0.102392 -0.151149,0 -0.251103,0.102392 -0.09995,0.102391 -0.119456,0.280357 z m 1.089738,-0.546087 V 81.2731 q -0.02194,-0.0024 -0.05363,-0.0024 -0.09995,0 -0.17309,0.03169 -0.07314,0.02925 -0.117018,0.07801 -0.04144,0.04876 -0.06826,0.121895 -0.02682,0.07314 -0.03657,0.146273 -0.0073,0.07314 -0.0073,0.165777 v 0.53146 h -0.207221 v -1.257951 h 0.197469 v 0.270605 q 0.124332,-0.29986 0.465637,-0.29986 z m 1.896679,0.0073 H 93.83679 q -0.01706,-0.124333 -0.09264,-0.195032 -0.07314,-0.07314 -0.199907,-0.07314 -0.08777,0 -0.158463,0.03169 -0.06826,0.03169 -0.112143,0.09264 -0.04144,0.05851 -0.0707,0.119457 -0.02926,0.06095 -0.04388,0.148711 -0.01463,0.08776 -0.0195,0.143835 -0.0049,0.05363 -0.0098,0.131646 0.141398,-0.226723 0.429069,-0.226723 0.241351,0 0.387624,0.153587 0.148712,0.151149 0.148712,0.399814 0,0.255978 -0.156025,0.421755 -0.153587,0.165776 -0.412004,0.165776 -0.602159,0 -0.602159,-0.858137 0,-0.134084 0.01463,-0.253541 0.01707,-0.119456 0.05851,-0.241351 0.04388,-0.124332 0.112143,-0.212096 0.06826,-0.08776 0.180404,-0.141398 0.114581,-0.05607 0.260854,-0.05607 0.216972,0 0.348618,0.119456 0.131647,0.117019 0.148712,0.329116 z m -0.526584,0.353494 q -0.158463,0 -0.255979,0.107267 -0.09752,0.104829 -0.09752,0.275481 0,0.177966 0.09752,0.285233 0.09995,0.107268 0.260854,0.107268 0.156025,0 0.251103,-0.102392 0.09752,-0.104829 0.09752,-0.280357 0,-0.180404 -0.09508,-0.285233 -0.09508,-0.107267 -0.258416,-0.107267 z"
             id="text22"
             style="font-size:2.43789px;line-height:1.25;font-family:HelveticaNeueCyr;-inkscape-font-specification:HelveticaNeueCyr;stroke-width:0.177797"
             aria-label="fiber 6" />
        </g>
      </g>
      <path
         id="rect23"
         style="fill:none;stroke:#a5a5a5;stroke-width:0.465;stroke-dasharray:0.929999, 0.465"
         d="m 72.910477,110.63742 h 59.053903 v 20.6139 H 72.910477 Z" />
    </g>
    <path
       d="m 168.12035,62.512962 q 0.83789,0 1.30339,0.528003 0.4655,0.522826 0.4655,1.371773 0,0.854121 -0.46032,1.408007 -0.46032,0.553886 -1.30339,0.553886 -0.42929,0 -0.77066,-0.155295 -0.34135,-0.155296 -0.55858,-0.429651 -0.21206,-0.274353 -0.32585,-0.626355 -0.10859,-0.352003 -0.10859,-0.760947 0,-0.864475 0.47585,-1.376949 0.481,-0.512472 1.28268,-0.512472 z m 0,0.424472 q -0.61548,0 -0.94649,0.434827 -0.32585,0.429649 -0.32585,1.066358 0,0.693651 0.34653,1.107771 0.35171,0.408944 0.93617,0.408944 0.57927,0 0.92581,-0.41412 0.34653,-0.41412 0.34653,-1.102595 0,-0.683298 -0.3517,-1.092241 -0.34654,-0.408944 -0.931,-0.408944 z m 4.98597,0.745416 h -0.47067 q -0.0775,-0.750592 -0.91547,-0.750592 -0.39826,0 -0.61548,0.160472 -0.21723,0.16047 -0.21723,0.450354 0,0.103527 0.0311,0.181179 0.0311,0.07765 0.10338,0.139763 0.0776,0.05694 0.14488,0.09836 0.0672,0.04142 0.21206,0.08282 0.14488,0.04142 0.23274,0.06211 0.0879,0.01553 0.27414,0.05694 0.22757,0.04658 0.37755,0.088 0.15,0.03624 0.35688,0.124236 0.2069,0.088 0.32585,0.196706 0.12406,0.103528 0.21206,0.279532 0.0931,0.176001 0.0931,0.39859 0,0.388238 -0.21724,0.652239 -0.21723,0.258826 -0.52755,0.362356 -0.31034,0.103527 -0.68791,0.103527 -0.69307,0 -1.11201,-0.32612 -0.41377,-0.331296 -0.41377,-0.973182 h 0.47067 q 0.0155,0.471061 0.3155,0.688475 0.29998,0.212237 0.78099,0.212237 0.37757,0 0.64653,-0.155296 0.26895,-0.160472 0.26895,-0.51765 0,-0.165648 -0.0724,-0.279531 -0.0724,-0.119055 -0.22759,-0.19153 -0.15516,-0.07765 -0.31032,-0.124236 -0.15516,-0.04658 -0.4086,-0.103527 -0.0361,-0.0052 -0.0518,-0.01042 -0.56894,-0.129417 -0.74479,-0.207061 -0.53791,-0.232943 -0.53791,-0.802358 0,-0.528003 0.38791,-0.786829 0.39309,-0.264 0.94651,-0.264 0.60514,0 0.96718,0.289884 0.36206,0.289884 0.38275,0.864475 z m 4.086,0.709181 h -0.43963 q -0.0413,-0.486591 -0.65168,-0.486591 -0.25344,0 -0.39827,0.09835 -0.14488,0.09836 -0.14488,0.264002 0,0.04658 0.0104,0.09318 0.0104,0.04142 0.0361,0.07765 0.0311,0.03106 0.0518,0.05694 0.0259,0.02589 0.0775,0.05176 0.0568,0.02071 0.0827,0.03624 0.0311,0.01553 0.10338,0.03624 0.0775,0.01553 0.10859,0.02589 0.0311,0.0052 0.119,0.02587 0.0931,0.02071 0.119,0.02589 0.19138,0.04142 0.28447,0.06729 0.0983,0.02589 0.26377,0.09835 0.17069,0.06729 0.25862,0.144945 0.0879,0.07247 0.15516,0.20706 0.0724,0.129417 0.0724,0.295061 0,0.388236 -0.30516,0.626356 -0.29998,0.232943 -0.80168,0.232943 -0.54307,0 -0.83788,-0.23812 -0.28965,-0.238119 -0.31034,-0.688475 h 0.43447 q 0.0361,0.564239 0.7241,0.564239 0.2948,0 0.47066,-0.119055 0.18102,-0.124236 0.18102,-0.326119 0,-0.134597 -0.0931,-0.22259 -0.0931,-0.088 -0.20688,-0.124235 -0.1138,-0.04142 -0.32585,-0.09318 -0.0311,-0.0052 -0.0466,-0.01042 -0.0466,-0.01042 -0.20172,-0.04142 -0.14999,-0.03624 -0.21722,-0.05694 -0.0672,-0.02071 -0.19654,-0.06211 -0.12406,-0.04658 -0.18621,-0.09318 -0.062,-0.05176 -0.13967,-0.124235 -0.0725,-0.07765 -0.10339,-0.176001 -0.0311,-0.103528 -0.0311,-0.232943 0,-0.362354 0.27413,-0.574591 0.27929,-0.212237 0.74479,-0.212237 0.47067,0 0.76548,0.222589 0.29998,0.22259 0.29998,0.631534 z m 2.90159,0.921417 q -0.0568,0.481415 -0.36722,0.766123 -0.30516,0.284706 -0.79653,0.284706 -0.60514,0 -0.93615,-0.372707 -0.33101,-0.377886 -0.33101,-1.004241 0,-0.667769 0.34652,-1.056007 0.34655,-0.393414 0.93617,-0.393414 0.49135,0 0.78616,0.248473 0.29482,0.243295 0.34654,0.698827 h -0.45516 q -0.119,-0.579768 -0.67237,-0.579768 -0.38274,0 -0.60515,0.284708 -0.22239,0.279531 -0.22239,0.760945 0,0.48659 0.21205,0.766122 0.21206,0.279531 0.58446,0.279531 0.29998,0 0.48618,-0.176001 0.19137,-0.176001 0.24309,-0.507297 z m 0.92064,-2.712487 v 1.392479 q 0.29482,-0.445178 0.87409,-0.445178 0.89997,0 0.89997,0.911063 v 1.827305 h -0.43964 v -1.723775 q 0,-0.305413 -0.12927,-0.465885 -0.12406,-0.165648 -0.45516,-0.165648 -0.40342,0 -0.57927,0.258826 -0.17069,0.258824 -0.17069,0.74024 v 1.356242 h -0.43963 v -3.685669 z m 4.71701,2.841899 q -0.20172,0.931771 -1.16374,0.931771 -0.58962,0 -0.9258,-0.367532 -0.33103,-0.367531 -0.33103,-1.01977 0,-0.647064 0.34136,-1.045654 0.34653,-0.403767 0.89995,-0.403767 0.6155,0 0.91031,0.419297 0.29998,0.41412 0.29998,1.05083 v 0.06211 h -2.0068 l -0.004,0.03106 q 0,0.424473 0.22241,0.667768 0.2224,0.243295 0.61032,0.243295 0.28963,0 0.45515,-0.134582 0.17067,-0.134583 0.26377,-0.434827 z m -0.42411,-0.729886 q -0.0311,-0.383061 -0.23275,-0.595298 -0.20172,-0.217412 -0.53273,-0.217412 -0.32068,0 -0.53274,0.217412 -0.21205,0.217413 -0.25344,0.595298 z m 3.32569,-2.112013 v 3.685669 h -0.41377 v -0.393414 q -0.25344,0.465885 -0.87926,0.465885 -0.56894,0 -0.90513,-0.377884 -0.33102,-0.383062 -0.33102,-1.0353 0,-0.605652 0.31033,-1.004242 0.3155,-0.403767 0.90513,-0.403767 0.5741,0 0.8741,0.434826 v -1.371773 z m -1.25683,1.314832 q -0.37757,0 -0.59998,0.274355 -0.21722,0.274353 -0.21722,0.745416 0,0.48659 0.2224,0.776474 0.22757,0.284708 0.60514,0.284708 0.38274,0 0.59997,-0.274355 0.21723,-0.279531 0.21723,-0.771298 0,-0.440003 -0.20688,-0.735063 -0.20172,-0.300237 -0.62066,-0.300237 z m 4.13255,-0.300237 v 2.671074 h -0.4086 v -0.419296 q -0.34136,0.491767 -0.92064,0.491767 -0.42412,0 -0.65686,-0.232943 -0.23275,-0.232942 -0.23275,-0.672944 v -1.837658 h 0.43963 v 1.718599 q 0,0.315765 0.119,0.481414 0.12405,0.160472 0.43963,0.160472 0.78099,0 0.78099,-0.96283 v -1.397655 z m 1.12754,-1.014595 v 3.685669 h -0.44481 v -3.685669 z m 2.96364,2.841899 q -0.20172,0.931771 -1.16374,0.931771 -0.58962,0 -0.92581,-0.367532 -0.33102,-0.367531 -0.33102,-1.01977 0,-0.647064 0.34136,-1.045654 0.34654,-0.403767 0.89995,-0.403767 0.6155,0 0.91031,0.419297 0.29998,0.41412 0.29998,1.05083 v 0.06211 h -2.0068 l -0.004,0.03106 q 0,0.424473 0.22241,0.667768 0.2224,0.243295 0.61032,0.243295 0.28963,0 0.45514,-0.134582 0.17068,-0.134583 0.26378,-0.434827 z m -0.42411,-0.729886 q -0.0311,-0.383061 -0.23275,-0.595298 -0.20172,-0.217412 -0.53274,-0.217412 -0.32067,0 -0.53273,0.217412 -0.21205,0.217413 -0.25344,0.595298 z m 2.31195,-1.159536 v 0.455532 q -0.0466,-0.0052 -0.11379,-0.0052 -0.21206,0 -0.36722,0.06729 -0.15516,0.06211 -0.24826,0.165648 -0.0879,0.103528 -0.14489,0.258825 -0.0568,0.155295 -0.0775,0.310589 -0.0155,0.155296 -0.0155,0.352003 v 1.128477 h -0.43971 V 63.615519 H 196.5 v 0.574592 q 0.26378,-0.63671 0.98788,-0.63671 z"
       id="text23"
       style="font-size:3.47709px;line-height:1.25;font-family:HelveticaNeueCyr;-inkscape-font-specification:HelveticaNeueCyr;stroke-width:0.264583"
       aria-label="OS scheduler" />
    <path
       id="rect24"
       style="fill:none;stroke:#a5a5a5;stroke-width:0.465;stroke-dasharray:0.929999, 0.465"
       d="M 65.788587,67.944171 H 197.84378 V 138.38197 H 65.788587 Z" />
    <g
       id="g28"
       transform="translate(0,-0.412733)">
      <g
         id="g25"
         transform="translate(0.16424576,-0.18025441)">
        <g
           id="g9"
           transform="matrix(1.4874959,0,0,1.4887452,-11.844334,-30.174149)"
           style="stroke-width:0.671989">
          <path
             id="rect5"
             style="fill:#ffffff;stroke:#a5a5a5;stroke-width:0.312474"
             d="m 59.167187,72.276207 h 8.391081 v 4.58171 h -8.391081 z" />
          <path
             d="m 60.882173,73.763649 v 0.180404 q -0.05363,-0.0098 -0.114581,-0.0098 -0.09752,0 -0.129208,0.03169 -0.02925,0.03169 -0.02925,0.136522 v 0.143836 h 0.241351 v 0.170652 h -0.241351 v 1.087299 H 60.39947 v -1.087299 h -0.212096 v -0.170652 h 0.212096 v -0.168215 q 0,-0.170652 0.08776,-0.246227 0.08776,-0.07801 0.260855,-0.07801 0.05363,0 0.134084,0.0098 z m 0.372996,0.0049 V 74.02209 H 61.04551 v -0.253541 z m 0,0.477827 v 1.257951 H 61.04551 v -1.257951 z m 0.526584,-0.477827 v 0.650917 q 0.136522,-0.207221 0.416879,-0.207221 0.258417,0 0.412004,0.180404 0.156025,0.177966 0.156025,0.477827 0,0.304736 -0.158463,0.487578 -0.158463,0.182841 -0.421755,0.182841 -0.299861,0 -0.416879,-0.21941 v 0.182842 h -0.195032 v -1.735778 z m 0.385187,0.619224 q -0.199907,0 -0.297423,0.143836 -0.09508,0.143835 -0.09508,0.353494 0,0.221848 0.10483,0.353494 0.107267,0.129208 0.287671,0.129208 0.17309,0 0.277919,-0.134084 0.107267,-0.136522 0.107267,-0.360808 0,-0.221848 -0.104829,-0.353494 -0.104829,-0.131646 -0.280357,-0.131646 z m 1.93081,0.719178 q -0.09508,0.43882 -0.548525,0.43882 -0.27792,0 -0.436383,-0.17309 -0.156025,-0.17309 -0.156025,-0.480264 0,-0.304737 0.160901,-0.492454 0.163339,-0.190156 0.424193,-0.190156 0.290109,0 0.429068,0.197469 0.141398,0.195032 0.141398,0.494892 v 0.02925 h -0.945901 l -0.0024,0.01463 q 0,0.199907 0.104829,0.314488 0.104829,0.114581 0.287671,0.114581 0.136522,0 0.214535,-0.06338 0.08045,-0.06339 0.124332,-0.204783 z m -0.199907,-0.343743 q -0.01463,-0.180403 -0.109705,-0.280357 -0.09508,-0.102391 -0.251103,-0.102391 -0.151149,0 -0.251103,0.102391 -0.09995,0.102391 -0.119456,0.280357 z m 1.089738,-0.546087 v 0.214534 q -0.02194,-0.0024 -0.05363,-0.0024 -0.09995,0 -0.17309,0.03169 -0.07314,0.02925 -0.117019,0.07801 -0.04144,0.04876 -0.06826,0.121894 -0.02682,0.07314 -0.03657,0.146273 -0.0073,0.07314 -0.0073,0.165777 v 0.53146 h -0.207221 v -1.257951 h 0.197469 v 0.270606 q 0.124332,-0.299861 0.465637,-0.299861 z m 1.550498,-0.43882 v 1.726026 H 66.311356 V 74.253665 H 65.877411 V 74.09764 q 0.209659,0 0.331553,-0.06826 0.124333,-0.06826 0.165777,-0.251102 z"
             id="text6"
             style="font-size:2.43789px;line-height:1.25;font-family:HelveticaNeueCyr;-inkscape-font-specification:HelveticaNeueCyr;stroke-width:0.177797"
             aria-label="fiber 1" />
        </g>
        <g
           id="g11"
           transform="matrix(1.4874959,0,0,1.4887452,-11.413601,-31.425289)"
           style="stroke-width:0.671989">
          <path
             id="rect6"
             style="fill:#ffffff;stroke:#a5a5a5;stroke-width:0.312474"
             d="m 67.932495,79.598572 h 8.391081 v 4.58171 h -8.391081 z" />
          <path
             d="m 69.647477,81.086014 v 0.180404 q -0.05363,-0.0098 -0.114581,-0.0098 -0.09751,0 -0.129208,0.03169 -0.02926,0.03169 -0.02926,0.136522 v 0.143836 h 0.241352 v 0.170652 h -0.241352 v 1.087299 H 69.16477 v -1.087299 h -0.212097 v -0.170652 h 0.212097 v -0.168215 q 0,-0.170652 0.08776,-0.246227 0.08776,-0.07801 0.260854,-0.07801 0.05363,0 0.134084,0.0098 z m 0.372996,0.0049 v 0.253541 H 69.810815 V 81.09089 Z m 0,0.477827 v 1.257951 h -0.209658 v -1.257951 z m 0.526585,-0.477827 v 0.650917 q 0.136522,-0.207221 0.416879,-0.207221 0.258416,0 0.412003,0.180404 0.156025,0.177966 0.156025,0.477826 0,0.304737 -0.158463,0.487578 -0.158462,0.182842 -0.421755,0.182842 -0.29986,0 -0.416879,-0.21941 v 0.182842 H 70.339837 V 81.09089 Z m 0.385186,0.619224 q -0.199907,0 -0.297422,0.143836 -0.09508,0.143835 -0.09508,0.353494 0,0.221848 0.104829,0.353494 0.107267,0.129208 0.287671,0.129208 0.173091,0 0.27792,-0.134084 0.107267,-0.136522 0.107267,-0.360808 0,-0.221848 -0.104829,-0.353494 -0.10483,-0.131646 -0.280358,-0.131646 z m 1.93081,0.719178 q -0.09508,0.43882 -0.548525,0.43882 -0.277919,0 -0.436382,-0.17309 -0.156025,-0.17309 -0.156025,-0.480265 0,-0.304736 0.160901,-0.492453 0.163338,-0.190156 0.424192,-0.190156 0.290109,0 0.429069,0.197469 0.141398,0.195031 0.141398,0.494892 v 0.02926 H 71.93178 l -0.0024,0.01463 q 0,0.199907 0.10483,0.314488 0.104829,0.114581 0.287671,0.114581 0.136522,0 0.214534,-0.06339 0.08045,-0.06338 0.124332,-0.204782 z M 72.663147,82.085549 Q 72.64852,81.905145 72.553442,81.805192 72.458365,81.7028 72.30234,81.7028 q -0.15115,0 -0.251103,0.102392 -0.09995,0.102391 -0.119457,0.280357 z m 1.089739,-0.546087 v 0.214534 q -0.02194,-0.0024 -0.05363,-0.0024 -0.09995,0 -0.17309,0.03169 -0.07314,0.02925 -0.117019,0.07801 -0.04144,0.04876 -0.06826,0.121895 -0.02682,0.07314 -0.03657,0.146273 -0.0073,0.07314 -0.0073,0.165777 v 0.53146 H 73.089796 V 81.56875 h 0.19747 v 0.270605 q 0.124332,-0.29986 0.465637,-0.29986 z m 0.789876,0.119456 q 0.0073,-0.268167 0.148711,-0.414441 0.143836,-0.146273 0.399814,-0.146273 0.229162,0 0.368122,0.124332 0.13896,0.124333 0.13896,0.326677 0,0.121895 -0.06339,0.219411 -0.06095,0.09508 -0.17309,0.141397 0.146274,0.03413 0.2316,0.146274 0.08533,0.112142 0.08533,0.270605 0.0024,0.238914 -0.165777,0.387625 -0.165776,0.146273 -0.431506,0.146273 -0.263292,0 -0.421755,-0.143835 -0.156025,-0.146274 -0.156025,-0.392501 v -0.03169 h 0.204783 q 0.0073,0.18528 0.104829,0.285233 0.09752,0.09995 0.270606,0.09995 0.165776,0 0.268168,-0.09264 0.104829,-0.09508 0.104829,-0.243789 0,-0.15115 -0.104829,-0.241351 -0.102392,-0.0902 -0.27792,-0.0902 -0.04388,0 -0.112143,0.0098 v -0.175528 q 0.03413,0.0024 0.0707,0.0024 0.160901,0 0.253541,-0.07558 0.09508,-0.07801 0.09508,-0.209658 0,-0.12677 -0.08289,-0.204783 -0.08045,-0.07801 -0.216972,-0.07801 -0.156025,0 -0.243789,0.09995 -0.08776,0.09752 -0.09264,0.280357 z"
             id="text7"
             style="font-size:2.43789px;line-height:1.25;font-family:HelveticaNeueCyr;-inkscape-font-specification:HelveticaNeueCyr;stroke-width:0.177797"
             aria-label="fiber 3" />
        </g>
        <g
           id="g10"
           transform="matrix(1.4874959,0,0,1.4887452,-11.511815,-29.849701)"
           style="stroke-width:0.671989">
          <path
             id="rect7"
             style="fill:#ffffff;stroke:#a5a5a5;stroke-width:0.312474"
             d="m 77.053398,72.058273 h 8.391081 v 4.58171 h -8.391081 z" />
          <path
             d="m 78.76838,73.545716 v 0.180404 q -0.05363,-0.0098 -0.114581,-0.0098 -0.09752,0 -0.129208,0.03169 -0.02926,0.03169 -0.02926,0.136522 v 0.143835 h 0.241352 v 0.170652 h -0.241352 v 1.087299 H 78.285678 V 74.19907 h -0.212097 v -0.170652 h 0.212097 v -0.168214 q 0,-0.170653 0.08776,-0.246227 0.08776,-0.07801 0.260854,-0.07801 0.05363,0 0.134084,0.0098 z m 0.372996,0.0049 v 0.25354 h -0.209658 v -0.25354 z m 0,0.477826 v 1.257951 h -0.209658 v -1.257951 z m 0.526585,-0.477826 v 0.650916 q 0.136522,-0.20722 0.416879,-0.20722 0.258416,0 0.412003,0.180403 0.156025,0.177966 0.156025,0.477827 0,0.304736 -0.158463,0.487578 -0.158462,0.182842 -0.421755,0.182842 -0.29986,0 -0.416879,-0.21941 v 0.182841 H 79.46074 v -1.735777 z m 0.385186,0.619224 q -0.199907,0 -0.297422,0.143835 -0.09508,0.143836 -0.09508,0.353494 0,0.221848 0.104829,0.353494 0.107267,0.129208 0.287671,0.129208 0.173091,0 0.27792,-0.134083 0.107267,-0.136522 0.107267,-0.360808 0,-0.221848 -0.104829,-0.353494 -0.10483,-0.131646 -0.280358,-0.131646 z m 1.93081,0.719177 q -0.09508,0.43882 -0.548525,0.43882 -0.277919,0 -0.436382,-0.17309 -0.156025,-0.17309 -0.156025,-0.480264 0,-0.304736 0.160901,-0.492454 0.163338,-0.190155 0.424192,-0.190155 0.290109,0 0.429069,0.197469 0.141398,0.195031 0.141398,0.494891 v 0.02926 h -0.945902 l -0.0024,0.01463 q 0,0.199906 0.10483,0.314487 0.104829,0.114581 0.287671,0.114581 0.136522,0 0.214534,-0.06338 0.08045,-0.06339 0.124332,-0.204783 z M 81.78405,74.545251 q -0.01463,-0.180404 -0.109705,-0.280358 -0.09508,-0.102391 -0.251102,-0.102391 -0.15115,0 -0.251103,0.102391 -0.09995,0.102392 -0.119457,0.280358 z m 1.089739,-0.546088 v 0.214535 q -0.02194,-0.0024 -0.05363,-0.0024 -0.09995,0 -0.17309,0.03169 -0.07314,0.02925 -0.117019,0.07801 -0.04144,0.04876 -0.06826,0.121894 -0.02682,0.07314 -0.03657,0.146274 -0.0073,0.07314 -0.0073,0.165776 v 0.53146 h -0.207221 v -1.257951 h 0.19747 v 0.270606 q 0.124332,-0.299861 0.465637,-0.299861 z m 1.864986,1.099489 v 0.187717 H 83.61247 q 0.0073,-0.143835 0.04388,-0.251102 0.03657,-0.107268 0.112142,-0.192594 0.07801,-0.08776 0.15115,-0.143835 0.07314,-0.05607 0.20722,-0.13896 0.209659,-0.131646 0.275482,-0.197469 0.136522,-0.134084 0.136522,-0.297423 0,-0.143835 -0.09264,-0.234037 -0.09264,-0.09264 -0.241351,-0.09264 -0.177966,0 -0.255979,0.124333 -0.07557,0.121894 -0.08045,0.309612 h -0.209659 v -0.04632 q 0,-0.255979 0.15115,-0.412004 0.153587,-0.156025 0.404689,-0.156025 0.246227,0 0.392501,0.136522 0.146273,0.136522 0.146273,0.365684 0,0.09751 -0.03413,0.185279 -0.03169,0.08533 -0.07314,0.143836 -0.03901,0.05851 -0.121895,0.124332 -0.08045,0.06582 -0.134084,0.102392 -0.05363,0.03413 -0.153587,0.09508 -0.199907,0.119457 -0.26573,0.18528 -0.09264,0.0902 -0.119456,0.202345 z"
             id="text8"
             style="font-size:2.43789px;line-height:1.25;font-family:HelveticaNeueCyr;-inkscape-font-specification:HelveticaNeueCyr;stroke-width:0.177797"
             aria-label="fiber 2" />
        </g>
        <g
           id="g12"
           transform="matrix(1.4874959,0,0,1.4887452,-11.844334,-30.709358)"
           style="stroke-width:0.671989">
          <path
             id="rect8"
             style="fill:#ffffff;stroke:#a5a5a5;stroke-width:0.312474"
             d="m 86.331818,79.117676 h 8.39108 v 4.58171 h -8.39108 z" />
          <path
             d="m 88.0468,80.605118 v 0.180404 q -0.05363,-0.0098 -0.114581,-0.0098 -0.09752,0 -0.129208,0.03169 -0.02925,0.03169 -0.02925,0.136522 v 0.143836 h 0.241351 v 0.170652 h -0.241351 v 1.087299 H 87.564102 V 81.258422 H 87.352006 V 81.08777 h 0.212096 v -0.168215 q 0,-0.170652 0.08776,-0.246227 0.08776,-0.07801 0.260855,-0.07801 0.05363,0 0.134083,0.0098 z m 0.372996,0.0049 v 0.253541 h -0.209659 v -0.253541 z m 0,0.477827 v 1.257951 h -0.209659 v -1.257951 z m 0.526584,-0.477827 v 0.650917 q 0.136522,-0.207221 0.416879,-0.207221 0.258417,0 0.412004,0.180404 0.156025,0.177966 0.156025,0.477826 0,0.304737 -0.158463,0.487578 -0.158463,0.182842 -0.421755,0.182842 -0.299861,0 -0.416879,-0.21941 v 0.182842 H 88.73916 v -1.735778 z m 0.385187,0.619224 q -0.199907,0 -0.297423,0.143836 -0.09508,0.143835 -0.09508,0.353494 0,0.221848 0.104829,0.353494 0.107267,0.129208 0.287671,0.129208 0.17309,0 0.277919,-0.134084 0.107267,-0.136522 0.107267,-0.360808 0,-0.221848 -0.104829,-0.353494 -0.104829,-0.131646 -0.280357,-0.131646 z m 1.93081,0.719178 q -0.09508,0.43882 -0.548525,0.43882 -0.27792,0 -0.436383,-0.17309 -0.156025,-0.17309 -0.156025,-0.480265 0,-0.304736 0.160901,-0.492453 0.163339,-0.190156 0.424193,-0.190156 0.290109,0 0.429069,0.197469 0.141397,0.195031 0.141397,0.494892 v 0.02926 h -0.945901 l -0.0024,0.01463 q 0,0.199907 0.104829,0.314488 0.10483,0.114581 0.287671,0.114581 0.136522,0 0.214535,-0.06339 0.08045,-0.06338 0.124332,-0.204782 z M 91.06247,81.604653 q -0.01463,-0.180404 -0.109705,-0.280357 -0.09508,-0.102392 -0.251103,-0.102392 -0.151149,0 -0.251103,0.102392 -0.09995,0.102391 -0.119456,0.280357 z m 1.089738,-0.546087 V 81.2731 q -0.02194,-0.0024 -0.05363,-0.0024 -0.09995,0 -0.17309,0.03169 -0.07314,0.02925 -0.117018,0.07801 -0.04144,0.04876 -0.06826,0.121895 -0.02682,0.07314 -0.03657,0.146273 -0.0073,0.07314 -0.0073,0.165777 v 0.53146 h -0.207221 v -1.257951 h 0.197469 v 0.270605 q 0.124332,-0.29986 0.465637,-0.29986 z m 1.550498,-0.43882 v 1.726026 h -0.226723 v -1.250638 h -0.433945 v -0.156025 q 0.209659,0 0.331553,-0.06826 0.124333,-0.06826 0.165777,-0.251102 z"
             id="text9"
             style="font-size:2.43789px;line-height:1.25;font-family:HelveticaNeueCyr;-inkscape-font-specification:HelveticaNeueCyr;stroke-width:0.177797"
             aria-label="fiber 1" />
        </g>
      </g>
      <path
         id="rect25"
         style="fill:none;stroke:#a5a5a5;stroke-width:0.465;stroke-dasharray:0.929999, 0.465"
         d="M 73.248394,75.174997 H 132.3023 V 95.788903 H 73.248394 Z" />
    </g>
    <path
       d="m 136.07182,82.892228 h 1.51545 q 0.56376,0 0.89477,0.258824 0.33103,0.25365 0.33103,0.802358 0,1.112949 -1.25685,1.112949 H 136.558 v 1.511538 h -0.48618 z m 0.48618,0.419296 v 1.34589 h 0.93617 q 0.39308,0 0.61032,-0.144944 0.22239,-0.150119 0.22239,-0.528003 0,-0.212237 -0.0724,-0.352002 -0.0672,-0.139763 -0.2017,-0.207061 -0.13447,-0.06729 -0.27931,-0.088 -0.14488,-0.02589 -0.34653,-0.02589 z m 3.23261,-0.419296 v 0.538356 h -0.44481 v -0.538356 z m 0,1.014593 v 2.671076 h -0.44481 v -2.671076 z m 2.97915,1.697893 q -0.0568,0.481414 -0.36721,0.766122 -0.30516,0.284708 -0.79651,0.284708 -0.60515,0 -0.93616,-0.372708 -0.33103,-0.377885 -0.33103,-1.004242 0,-0.667767 0.34655,-1.056005 0.34652,-0.393415 0.93615,-0.393415 0.49135,0 0.78617,0.248472 0.29481,0.243297 0.34653,0.698829 h -0.45514 q -0.119,-0.57977 -0.67238,-0.57977 -0.38275,0 -0.60515,0.284708 -0.22241,0.279531 -0.22241,0.760947 0,0.48659 0.21206,0.766121 0.21206,0.279532 0.58445,0.279532 0.3,0 0.48619,-0.176001 0.19137,-0.176001 0.24309,-0.507298 z m 0.69309,-1.392478 q 0.3517,-0.383062 0.95684,-0.383062 0.60515,0 0.94134,0.367531 0.33619,0.367533 0.33619,1.030124 0,0.678122 -0.33619,1.056007 -0.33619,0.377884 -0.94651,0.377884 -0.61032,0 -0.95685,-0.372707 -0.34654,-0.372709 -0.34654,-1.035301 0,-0.657416 0.35172,-1.040476 z m 1.55681,0.269177 q -0.22239,-0.284708 -0.61032,-0.284708 -0.38791,0 -0.61548,0.284708 -0.22757,0.284708 -0.22757,0.760947 0,0.491767 0.22239,0.771298 0.22759,0.274355 0.63101,0.274355 0.38791,0 0.60515,-0.279532 0.22239,-0.279531 0.22239,-0.771298 0,-0.476239 -0.22757,-0.75577 z m 3.60499,-1.589185 v 3.685669 h -0.41378 v -0.393415 q -0.25342,0.465885 -0.87925,0.465885 -0.56894,0 -0.90513,-0.377883 -0.33103,-0.383062 -0.33103,-1.035301 0,-0.605651 0.31034,-1.004242 0.3155,-0.403767 0.90513,-0.403767 0.57411,0 0.87409,0.434827 v -1.371773 z m -1.25683,1.314832 q -0.37757,0 -0.59998,0.274353 -0.21722,0.274355 -0.21722,0.745416 0,0.486592 0.2224,0.776476 0.22757,0.284708 0.60514,0.284708 0.38275,0 0.59997,-0.274355 0.21723,-0.279531 0.21723,-0.771298 0,-0.440003 -0.20688,-0.735064 -0.20172,-0.300236 -0.62066,-0.300236 z m 4.28255,2.018835 v 0.341649 q -0.13447,0.05176 -0.29999,0.05176 -0.37757,0 -0.38791,-0.393415 -0.37757,0.424473 -0.9672,0.424473 -0.39308,0 -0.62583,-0.201883 -0.22757,-0.201884 -0.22757,-0.553886 0,-0.714357 0.94651,-0.833416 0.55858,-0.06729 0.64651,-0.09835 0.1862,-0.06211 0.20172,-0.258825 0.004,-0.03106 0.004,-0.06729 0,-0.440003 -0.60514,-0.440003 -0.31034,0 -0.47068,0.129417 -0.16033,0.124236 -0.19136,0.41412 h -0.42929 q 0.0104,-0.429651 0.30516,-0.66777 0.2948,-0.238118 0.81202,-0.238118 0.56377,0 0.83789,0.258825 0.0879,0.08282 0.12926,0.217412 0.0414,0.134583 0.0466,0.22259 0.004,0.08282 0.004,0.253649 0,0.201883 -0.0104,0.600474 -0.0104,0.393414 -0.0104,0.590121 0,0.144944 0.0362,0.20706 0.0413,0.05694 0.14488,0.05694 0.0414,0 0.10859,-0.01553 z m -0.70859,-1.0353 q -0.0466,0.03624 -0.0983,0.06211 -0.0518,0.02589 -0.13447,0.04142 -0.0777,0.01553 -0.10859,0.02589 -0.0259,0.0052 -0.13447,0.02071 -0.10858,0.01042 -0.11379,0.01042 -0.16034,0.02071 -0.21206,0.03105 -0.0466,0.0052 -0.1862,0.04142 -0.13447,0.03624 -0.19137,0.08282 -0.057,0.04658 -0.11379,0.139763 -0.0518,0.088 -0.0518,0.212236 0,0.20706 0.13968,0.32612 0.14488,0.119055 0.39307,0.119055 0.31551,0 0.56378,-0.186354 0.24826,-0.186354 0.24826,-0.440003 z m 2.26542,-1.283774 v 0.362356 h -0.53275 v 1.558127 q 0,0.129417 0,0.170825 0.004,0.04142 0.0311,0.113889 0.0259,0.06729 0.0879,0.088 0.062,0.02071 0.17585,0.02071 0.0983,0 0.23792,-0.01553 v 0.377885 q -0.1862,0.02071 -0.3362,0.02071 -0.18619,0 -0.31032,-0.04142 -0.12406,-0.04142 -0.19137,-0.09318 -0.062,-0.05176 -0.0931,-0.181177 -0.0311,-0.134597 -0.0361,-0.22259 -0.004,-0.09318 -0.004,-0.305413 0,-0.04658 0,-0.07247 v -1.41836 h -0.44997 v -0.362357 h 0.44997 v -0.792004 h 0.43963 v 0.792004 z m 2.84984,2.319074 v 0.341649 q -0.13447,0.05176 -0.29998,0.05176 -0.37756,0 -0.38791,-0.393415 -0.37757,0.424473 -0.96718,0.424473 -0.39309,0 -0.62584,-0.201883 -0.22757,-0.201884 -0.22757,-0.553886 0,-0.714357 0.94649,-0.833416 0.5586,-0.06729 0.64653,-0.09835 0.18619,-0.06211 0.20172,-0.258825 0.004,-0.03106 0.004,-0.06729 0,-0.440003 -0.60514,-0.440003 -0.31032,0 -0.47066,0.129417 -0.16034,0.124236 -0.19137,0.41412 h -0.42929 q 0.0104,-0.429651 0.30516,-0.66777 0.29481,-0.238118 0.81203,-0.238118 0.56376,0 0.83789,0.258825 0.0879,0.08282 0.12926,0.217412 0.0414,0.134583 0.0466,0.22259 0.004,0.08282 0.004,0.253649 0,0.201883 -0.0104,0.600474 -0.0104,0.393414 -0.0104,0.590121 0,0.144944 0.0361,0.20706 0.0414,0.05694 0.14474,0.05694 0.0413,0 0.10858,-0.01553 z m -0.70858,-1.0353 q -0.0466,0.03624 -0.0983,0.06211 -0.0518,0.02589 -0.13447,0.04142 -0.0775,0.01553 -0.10859,0.02589 -0.0259,0.0052 -0.13447,0.02071 -0.10859,0.01042 -0.11379,0.01042 -0.16034,0.02071 -0.21206,0.03105 -0.0466,0.0052 -0.18619,0.04142 -0.13447,0.03624 -0.19137,0.08282 -0.057,0.04658 -0.11379,0.139763 -0.0518,0.088 -0.0518,0.212236 0,0.20706 0.13967,0.32612 0.14488,0.119055 0.39309,0.119055 0.31549,0 0.56376,-0.186354 0.24826,-0.186354 0.24826,-0.440003 z m 4.54116,-0.507298 h -0.43963 q -0.0414,-0.486592 -0.6517,-0.486592 -0.25342,0 -0.39825,0.09835 -0.14488,0.09836 -0.14488,0.264002 0,0.04658 0.0104,0.09318 0.0104,0.04142 0.0361,0.07765 0.0311,0.03106 0.0518,0.05695 0.0259,0.02589 0.0777,0.05176 0.057,0.02071 0.0827,0.03624 0.0311,0.01553 0.10338,0.03624 0.0777,0.01553 0.10858,0.02589 0.0311,0.0052 0.119,0.02589 0.0931,0.02071 0.119,0.02587 0.19137,0.04142 0.28447,0.06729 0.0983,0.02589 0.26378,0.09836 0.17069,0.06729 0.25862,0.144945 0.0879,0.07247 0.15516,0.207059 0.0724,0.129416 0.0724,0.29506 0,0.388238 -0.30516,0.626357 -0.29998,0.232942 -0.80169,0.232942 -0.54307,0 -0.83789,-0.238118 -0.28963,-0.238119 -0.31032,-0.688475 h 0.43445 q 0.0361,0.564239 0.7241,0.564239 0.29482,0 0.47067,-0.119055 0.18103,-0.124236 0.18103,-0.32612 0,-0.134583 -0.0931,-0.22259 -0.0931,-0.088 -0.20689,-0.124236 -0.11379,-0.04142 -0.32585,-0.09318 -0.0311,-0.0052 -0.0466,-0.01042 -0.0465,-0.01042 -0.20171,-0.04142 -0.15,-0.03624 -0.21724,-0.05694 -0.0672,-0.02071 -0.19654,-0.06211 -0.12406,-0.04658 -0.18619,-0.09318 -0.062,-0.05176 -0.13968,-0.124236 -0.0724,-0.07765 -0.10338,-0.176001 -0.0311,-0.103527 -0.0311,-0.232942 0,-0.362356 0.27413,-0.574592 0.2793,-0.212237 0.74479,-0.212237 0.47066,0 0.76548,0.22259 0.29999,0.22259 0.29999,0.631533 z m 2.90159,0.921417 q -0.0568,0.481414 -0.36724,0.766122 -0.30514,0.284708 -0.79651,0.284708 -0.60514,0 -0.93615,-0.372708 -0.33103,-0.377885 -0.33103,-1.004242 0,-0.667767 0.34654,-1.056005 0.34653,-0.393415 0.93616,-0.393415 0.49136,0 0.78617,0.248472 0.29481,0.243297 0.34654,0.698829 h -0.45516 q -0.119,-0.57977 -0.67238,-0.57977 -0.38273,0 -0.60514,0.284708 -0.22239,0.279531 -0.22239,0.760947 0,0.48659 0.21205,0.766121 0.21206,0.279532 0.58446,0.279532 0.29998,0 0.48617,-0.176001 0.19138,-0.176001 0.2431,-0.507298 z m 0.92064,-2.712486 v 1.392479 q 0.2948,-0.44518 0.87409,-0.44518 0.89995,0 0.89995,0.911064 v 1.827306 h -0.43963 v -1.723775 q 0,-0.305413 -0.12926,-0.465885 -0.12406,-0.165648 -0.45514,-0.165648 -0.40343,0 -0.57929,0.258824 -0.17068,0.258826 -0.17068,0.74024 v 1.356244 h -0.43963 v -3.685669 z m 4.71701,2.841899 q -0.20172,0.931769 -1.16374,0.931769 -0.58963,0 -0.92582,-0.367531 -0.33101,-0.367531 -0.33101,-1.019771 0,-0.647062 0.34136,-1.045653 0.34653,-0.403767 0.89995,-0.403767 0.61548,0 0.91031,0.419296 0.29998,0.414122 0.29998,1.050831 v 0.06211 h -2.0068 l -0.004,0.03105 q 0,0.424474 0.22241,0.667769 0.2224,0.243295 0.61031,0.243295 0.28964,0 0.45515,-0.134582 0.17068,-0.134583 0.26378,-0.434827 z m -0.42412,-0.729886 q -0.0311,-0.383062 -0.23274,-0.595299 -0.20172,-0.217413 -0.53274,-0.217413 -0.32067,0 -0.53273,0.217413 -0.21207,0.217414 -0.25344,0.595299 z m 3.3257,-2.112013 v 3.685669 h -0.41377 v -0.393415 q -0.25344,0.465885 -0.87928,0.465885 -0.56893,0 -0.90512,-0.377883 -0.33102,-0.383062 -0.33102,-1.035301 0,-0.605651 0.31033,-1.004242 0.31551,-0.403767 0.90512,-0.403767 0.57412,0 0.8741,0.434827 v -1.371773 z m -1.25684,1.314832 q -0.37756,0 -0.59997,0.274353 -0.21723,0.274355 -0.21723,0.745416 0,0.486592 0.22241,0.776476 0.22757,0.284708 0.60514,0.284708 0.38273,0 0.59997,-0.274355 0.21723,-0.279531 0.21723,-0.771298 0,-0.440003 -0.20689,-0.735064 -0.20171,-0.300236 -0.62066,-0.300236 z m 4.13256,-0.300239 v 2.671076 h -0.4086 v -0.419296 q -0.34137,0.491766 -0.92064,0.491766 -0.42412,0 -0.65686,-0.232942 -0.23275,-0.232943 -0.23275,-0.672946 v -1.837658 h 0.43963 v 1.718599 q 0,0.315767 0.119,0.481415 0.1242,0.160471 0.43964,0.160471 0.781,0 0.781,-0.962828 v -1.397657 z m 1.12752,-1.014593 v 3.685669 h -0.4448 v -3.685669 z m 2.96366,2.841899 q -0.20172,0.931769 -1.16374,0.931769 -0.58963,0 -0.92582,-0.367531 -0.33101,-0.367531 -0.33101,-1.019771 0,-0.647062 0.34136,-1.045653 0.34653,-0.403767 0.89995,-0.403767 0.61548,0 0.9103,0.419296 0.29999,0.414122 0.29999,1.050831 v 0.06211 h -2.0068 l -0.004,0.03105 q 0,0.424474 0.22241,0.667769 0.2224,0.243295 0.61031,0.243295 0.28964,0 0.45515,-0.134582 0.17068,-0.134583 0.26378,-0.434827 z m -0.42412,-0.729886 q -0.0311,-0.383062 -0.23274,-0.595299 -0.20172,-0.217413 -0.53274,-0.217413 -0.32067,0 -0.53273,0.217413 -0.21206,0.217414 -0.25344,0.595299 z m 2.31196,-1.159538 v 0.455533 q -0.0466,-0.0052 -0.11379,-0.0052 -0.21206,0 -0.36722,0.06729 -0.15518,0.06211 -0.24827,0.165648 -0.0879,0.103528 -0.14488,0.258826 -0.057,0.155294 -0.0776,0.31059 -0.0155,0.155295 -0.0155,0.352002 v 1.128477 h -0.43963 v -2.671075 h 0.41893 v 0.574592 q 0.26378,-0.63671 0.9879,-0.63671 z"
       id="text25"
       style="font-size:3.47709px;line-height:1.25;font-family:HelveticaNeueCyr;-inkscape-font-specification:HelveticaNeueCyr;stroke-width:0.264583"
       aria-label="Picodata scheduler" />
  </g>
</svg>
