<?xml version="1.0" encoding="UTF-8" standalone="no"?>
<!-- Created with Inkscape (http://www.inkscape.org/) -->

<svg
   version="1.1"
   id="svg2"
   width="317.73334"
   height="300.13333"
   viewBox="0 0 317.73334 300.13333"
   sodipodi:docname="table_characters.svg"
   inkscape:version="1.2.2 (b0a8486541, 2022-12-01)"
   xmlns:inkscape="http://www.inkscape.org/namespaces/inkscape"
   xmlns:sodipodi="http://sodipodi.sourceforge.net/DTD/sodipodi-0.dtd"
   xmlns="http://www.w3.org/2000/svg"
   xmlns:svg="http://www.w3.org/2000/svg">
  <defs
     id="defs6">
    <clipPath
       clipPathUnits="userSpaceOnUse"
       id="clipPath776">
      <g
         id="g780">
        <path
           d="M 0,0.028 H 595.275 V 841.889 H 0 Z"
           clip-rule="evenodd"
           id="path778" />
      </g>
    </clipPath>
    <clipPath
       clipPathUnits="userSpaceOnUse"
       id="clipPath782">
      <g
         id="g786">
        <path
           d="M 0,0.028 H 595.275 V 841.889 H 0 Z"
           clip-rule="evenodd"
           id="path784" />
      </g>
    </clipPath>
    <clipPath
       clipPathUnits="userSpaceOnUse"
       id="clipPath788">
      <g
         id="g792">
        <path
           d="M 0,0.028 H 595.275 V 841.889 H 0 Z"
           clip-rule="evenodd"
           id="path790" />
      </g>
    </clipPath>
    <clipPath
       clipPathUnits="userSpaceOnUse"
       id="clipPath794">
      <g
         id="g798">
        <path
           d="M 0,0.028 H 595.275 V 841.889 H 0 Z"
           clip-rule="evenodd"
           id="path796" />
      </g>
    </clipPath>
    <clipPath
       clipPathUnits="userSpaceOnUse"
       id="clipPath800">
      <g
         id="g804">
        <path
           d="M 0,0.028 H 595.275 V 841.889 H 0 Z"
           clip-rule="evenodd"
           id="path802" />
      </g>
    </clipPath>
    <clipPath
       clipPathUnits="userSpaceOnUse"
       id="clipPath806">
      <g
         id="g810">
        <path
           d="M 0,0.028 H 595.275 V 841.889 H 0 Z"
           clip-rule="evenodd"
           id="path808" />
      </g>
    </clipPath>
    <clipPath
       clipPathUnits="userSpaceOnUse"
       id="clipPath812">
      <g
         id="g816">
        <path
           d="M 0,0.028 H 595.275 V 841.889 H 0 Z"
           clip-rule="evenodd"
           id="path814" />
      </g>
    </clipPath>
    <clipPath
       clipPathUnits="userSpaceOnUse"
       id="clipPath818">
      <g
         id="g822">
        <path
           d="M 0,0.028 H 595.275 V 841.889 H 0 Z"
           clip-rule="evenodd"
           id="path820" />
      </g>
    </clipPath>
    <clipPath
       clipPathUnits="userSpaceOnUse"
       id="clipPath824">
      <g
         id="g828">
        <path
           d="M 0,0.028 H 595.275 V 841.889 H 0 Z"
           clip-rule="evenodd"
           id="path826" />
      </g>
    </clipPath>
    <clipPath
       clipPathUnits="userSpaceOnUse"
       id="clipPath830">
      <g
         id="g834">
        <path
           d="M 0,0.028 H 595.275 V 841.889 H 0 Z"
           clip-rule="evenodd"
           id="path832" />
      </g>
    </clipPath>
    <clipPath
       clipPathUnits="userSpaceOnUse"
       id="clipPath836">
      <g
         id="g840">
        <path
           d="M 0,0.028 H 595.275 V 841.889 H 0 Z"
           clip-rule="evenodd"
           id="path838" />
      </g>
    </clipPath>
    <clipPath
       clipPathUnits="userSpaceOnUse"
       id="clipPath842">
      <g
         id="g846">
        <path
           d="M 0,0.028 H 595.275 V 841.889 H 0 Z"
           clip-rule="evenodd"
           id="path844" />
      </g>
    </clipPath>
    <clipPath
       clipPathUnits="userSpaceOnUse"
       id="clipPath848">
      <g
         id="g852">
        <path
           d="M 0,0.028 H 595.275 V 841.889 H 0 Z"
           clip-rule="evenodd"
           id="path850" />
      </g>
    </clipPath>
    <clipPath
       clipPathUnits="userSpaceOnUse"
       id="clipPath854">
      <g
         id="g858">
        <path
           d="M 0,0.028 H 595.275 V 841.889 H 0 Z"
           clip-rule="evenodd"
           id="path856" />
      </g>
    </clipPath>
    <clipPath
       clipPathUnits="userSpaceOnUse"
       id="clipPath860">
      <g
         id="g864">
        <path
           d="M 0,0.028 H 595.275 V 841.889 H 0 Z"
           clip-rule="evenodd"
           id="path862" />
      </g>
    </clipPath>
    <clipPath
       clipPathUnits="userSpaceOnUse"
       id="clipPath866">
      <g
         id="g870">
        <path
           d="M 0,0.028 H 595.275 V 841.889 H 0 Z"
           clip-rule="evenodd"
           id="path868" />
      </g>
    </clipPath>
  </defs>
  <sodipodi:namedview
     id="namedview4"
     pagecolor="#ffffff"
     bordercolor="#666666"
     borderopacity="1.0"
     inkscape:showpageshadow="2"
     inkscape:pageopacity="0.0"
     inkscape:pagecheckerboard="0"
     inkscape:deskcolor="#d1d1d1"
     showgrid="false"
     inkscape:zoom="1.0570196"
     inkscape:cx="237.93316"
     inkscape:cy="247.86675"
     inkscape:window-width="1920"
     inkscape:window-height="1011"
     inkscape:window-x="0"
     inkscape:window-y="32"
     inkscape:window-maximized="1"
     inkscape:current-layer="g10">
    <inkscape:page
       x="0"
       y="0"
       id="page8"
       width="317.73334"
       height="300.13333" />
  </sodipodi:namedview>
  <g
     id="g10"
     inkscape:groupmode="layer"
     inkscape:label="Page 1"
     transform="matrix(1.3333333,0,0,-1.3333333,-75.533331,1046.9186)">
    <g
       id="g20"
       clip-path="url(#clipPath866)">
      <path
         d="m 56.65,785.139 h 238.3"
         style="fill:none;stroke:#000000;stroke-width:0.1;stroke-linecap:butt;stroke-linejoin:round;stroke-miterlimit:10;stroke-dasharray:none;stroke-opacity:1"
         id="path22" />
    </g>
    <g
       id="g24"
       clip-path="url(#clipPath860)">
      <path
         d="m 56.65,764.639 h 238.3"
         style="fill:none;stroke:#000000;stroke-width:0.1;stroke-linecap:butt;stroke-linejoin:round;stroke-miterlimit:10;stroke-dasharray:none;stroke-opacity:1"
         id="path26" />
    </g>
    <g
       id="g28"
       clip-path="url(#clipPath854)">
      <path
         d="m 56.65,744.239 h 238.3"
         style="fill:none;stroke:#000000;stroke-width:0.1;stroke-linecap:butt;stroke-linejoin:round;stroke-miterlimit:10;stroke-dasharray:none;stroke-opacity:1"
         id="path30" />
    </g>
    <g
       id="g32"
       clip-path="url(#clipPath848)">
      <path
         d="m 56.65,723.739 h 238.3"
         style="fill:none;stroke:#000000;stroke-width:0.1;stroke-linecap:butt;stroke-linejoin:round;stroke-miterlimit:10;stroke-dasharray:none;stroke-opacity:1"
         id="path34" />
    </g>
    <g
       id="g36"
       clip-path="url(#clipPath842)">
      <path
         d="m 56.65,703.339 h 238.3"
         style="fill:none;stroke:#000000;stroke-width:0.1;stroke-linecap:butt;stroke-linejoin:round;stroke-miterlimit:10;stroke-dasharray:none;stroke-opacity:1"
         id="path38" />
    </g>
    <g
       id="g40"
       clip-path="url(#clipPath836)">
      <path
         d="m 56.65,682.839 h 238.3"
         style="fill:none;stroke:#000000;stroke-width:0.1;stroke-linecap:butt;stroke-linejoin:round;stroke-miterlimit:10;stroke-dasharray:none;stroke-opacity:1"
         id="path42" />
    </g>
    <g
       id="g44"
       clip-path="url(#clipPath830)">
      <path
         d="m 56.65,662.439 h 238.3"
         style="fill:none;stroke:#000000;stroke-width:0.1;stroke-linecap:butt;stroke-linejoin:round;stroke-miterlimit:10;stroke-dasharray:none;stroke-opacity:1"
         id="path46" />
    </g>
    <g
       id="g48"
       clip-path="url(#clipPath824)">
      <path
         d="m 56.65,641.939 h 238.3"
         style="fill:none;stroke:#000000;stroke-width:0.1;stroke-linecap:butt;stroke-linejoin:round;stroke-miterlimit:10;stroke-dasharray:none;stroke-opacity:1"
         id="path50" />
    </g>
    <g
       id="g52"
       clip-path="url(#clipPath818)">
      <path
         d="m 56.65,621.539 h 238.3"
         style="fill:none;stroke:#000000;stroke-width:0.1;stroke-linecap:butt;stroke-linejoin:round;stroke-miterlimit:10;stroke-dasharray:none;stroke-opacity:1"
         id="path54" />
    </g>
    <g
       id="g56"
       clip-path="url(#clipPath812)">
      <path
         d="m 56.65,601.039 h 238.3"
         style="fill:none;stroke:#000000;stroke-width:0.1;stroke-linecap:butt;stroke-linejoin:round;stroke-miterlimit:10;stroke-dasharray:none;stroke-opacity:1"
         id="path58" />
    </g>
    <g
       id="g60"
       clip-path="url(#clipPath806)">
      <path
         d="m 56.65,580.639 h 238.3"
         style="fill:none;stroke:#000000;stroke-width:0.1;stroke-linecap:butt;stroke-linejoin:round;stroke-miterlimit:10;stroke-dasharray:none;stroke-opacity:1"
         id="path62" />
    </g>
    <g
       id="g64"
       clip-path="url(#clipPath800)">
      <path
         d="m 56.65,560.139 h 238.3"
         style="fill:none;stroke:#000000;stroke-width:0.1;stroke-linecap:butt;stroke-linejoin:round;stroke-miterlimit:10;stroke-dasharray:none;stroke-opacity:1"
         id="path66" />
    </g>
    <g
       id="g68"
       clip-path="url(#clipPath794)">
      <path
         d="m 56.7,785.189 v -225.1"
         style="fill:none;stroke:#000000;stroke-width:0.1;stroke-linecap:butt;stroke-linejoin:round;stroke-miterlimit:10;stroke-dasharray:none;stroke-opacity:1"
         id="path70" />
    </g>
    <g
       id="g72"
       clip-path="url(#clipPath788)">
      <path
         d="m 96.6,785.189 v -225.1"
         style="fill:none;stroke:#000000;stroke-width:0.1;stroke-linecap:butt;stroke-linejoin:round;stroke-miterlimit:10;stroke-dasharray:none;stroke-opacity:1"
         id="path74" />
    </g>
    <g
       id="g76"
       clip-path="url(#clipPath782)">
      <path
         d="m 240.9,785.189 v -225.1"
         style="fill:none;stroke:#000000;stroke-width:0.1;stroke-linecap:butt;stroke-linejoin:round;stroke-miterlimit:10;stroke-dasharray:none;stroke-opacity:1"
         id="path78" />
    </g>
    <g
       id="g80"
       clip-path="url(#clipPath776)">
      <path
         d="m 294.9,785.189 v -225.1"
         style="fill:none;stroke:#000000;stroke-width:0.1;stroke-linecap:butt;stroke-linejoin:round;stroke-miterlimit:10;stroke-dasharray:none;stroke-opacity:1"
         id="path82" />
    </g>
    <g
       id="g84">
      <g
         aria-label="id"
         transform="matrix(1,0,0,-1,71.5,768.489)"
         id="text88"
         style="font-weight:bold;font-size:12px;font-family:HelveticaNeueCyr;-inkscape-font-specification:HelveticaNeueCyr-Bold">
        <path
           d="m 2.4,-8.544 v 1.44 H 0.696 v -1.44 z m 0,2.352 V 0 H 0.696 v -6.192 z"
           id="path1198" />
        <path
           d="M 9.78,0 H 8.172 V -0.792 Q 7.56,0.168 6.3,0.168 q -1.284,0 -2.052,-0.888 -0.756,-0.9 -0.756,-2.4 0,-1.464 0.732,-2.352 0.744,-0.888 1.98,-0.888 0.576,0 1.08,0.24 0.516,0.24 0.804,0.696 v -3.12 H 9.78 Z M 8.148,-3.108 q 0,-0.9 -0.396,-1.404 -0.384,-0.504 -1.08,-0.504 -0.696,0 -1.08,0.504 -0.384,0.504 -0.384,1.392 0,0.9 0.384,1.416 0.396,0.504 1.08,0.504 0.708,0 1.092,-0.492 0.384,-0.504 0.384,-1.416 z"
           id="path1200" />
      </g>
    </g>
    <g
       id="g90">
      <g
         aria-label="name"
         transform="matrix(1,0,0,-1,153,768.489)"
         id="text94"
         style="font-weight:bold;font-size:12px;font-family:HelveticaNeueCyr;-inkscape-font-specification:HelveticaNeueCyr-Bold">
        <path
           d="M 6.48,0 H 4.752 v -3.612 q 0,-0.66 -0.216,-0.996 -0.216,-0.348 -0.84,-0.348 -1.344,0 -1.344,1.632 V 0 H 0.66 v -6.192 h 1.62 v 0.864 q 0.768,-1.032 2.052,-1.032 0.996,0 1.572,0.576 0.576,0.576 0.576,1.644 z"
           id="path1189" />
        <path
           d="m 13.512,0 h -1.728 q -0.084,-0.24 -0.12,-0.6 -0.78,0.78 -2.0039999,0.78 -1.032,0 -1.62,-0.492 -0.588,-0.504 -0.588,-1.38 0,-0.396 0.096,-0.696 0.108,-0.3 0.336,-0.504 0.24,-0.204 0.444,-0.336 0.216,-0.132 0.588,-0.216 0.372,-0.084 0.6,-0.12 0.228,-0.048 0.6359999,-0.096 0.9,-0.12 1.2,-0.252 0.312,-0.132 0.312,-0.492 0,-0.828 -1.116,-0.828 -0.5879999,0 -0.8639999,0.216 -0.276,0.204 -0.36,0.732 h -1.596 q 0.144,-2.088 2.8679999,-2.088 2.7,0 2.7,2.016 v 2.676 q 0,1.176 0.216,1.68 z m -1.86,-3.012 q -0.3,0.18 -1.2,0.324 -0.7559999,0.12 -0.9839999,0.3 -0.264,0.216 -0.264,0.624 0,0.384 0.24,0.612 0.252,0.216 0.6959999,0.216 0.684,0 1.092,-0.36 0.42,-0.372 0.42,-1.02 z"
           id="path1191" />
        <path
           d="m 24.18,0 h -1.728 v -3.696 q 0,-0.612 -0.192,-0.936 -0.192,-0.336 -0.792,-0.336 -1.188,0 -1.188,1.488 V 0 h -1.704 v -3.768 q 0,-0.576 -0.192,-0.888 -0.192,-0.324 -0.744,-0.324 -1.236,0 -1.236,1.62 V 0 H 14.7 v -6.192 h 1.62 v 0.852 q 0.732,-1.02 1.968,-1.02 1.284,0 1.752,1.02 0.744,-1.02 2.028,-1.02 1.02,0 1.56,0.6 0.552,0.588 0.552,1.596 z"
           id="path1193" />
        <path
           d="m 31.343999,-1.92 q -0.288,0.996 -1.068,1.548 -0.768,0.552 -1.836,0.552 -1.428,0 -2.304,-0.888 -0.864,-0.888 -0.864,-2.352 0,-1.44 0.876,-2.376 0.876,-0.936 2.232,-0.936 1.404,0 2.232,0.96 0.828,0.948 0.828,2.58 v 0.168 h -4.44 q 0.012,0.804 0.384,1.224 0.384,0.42 1.068,0.42 0.9,0 1.26,-0.9 z m -1.632,-1.824 q -0.06,-0.612 -0.396,-0.996 -0.336,-0.396 -0.936,-0.396 -0.564,0 -0.936,0.372 -0.372,0.372 -0.444,1.02 z"
           id="path1195" />
      </g>
    </g>
    <g
       id="g96">
      <g
         aria-label="year"
         transform="matrix(1,0,0,-1,255.7,768.489)"
         id="text100"
         style="font-weight:bold;font-size:12px;font-family:HelveticaNeueCyr;-inkscape-font-specification:HelveticaNeueCyr-Bold">
        <path
           d="m 6.276,-6.192 -2.28,6.168 Q 3.828,0.444 3.744,0.624 3.672,0.816 3.504,1.152 3.348,1.488 3.204,1.62 3.072,1.752 2.832,1.92 2.604,2.088 2.304,2.148 2.016,2.208 1.632,2.208 1.32,2.208 0.492,2.196 V 0.792 H 1.32 q 0.42,0 0.636,-0.216 0.228,-0.216 0.228,-0.612 0,-0.096 -0.048,-0.24 l -2.244,-5.916 h 1.836 l 1.416,4.212 1.368,-4.212 z"
           id="path1180" />
        <path
           d="M 12.672,-1.92 Q 12.384,-0.924 11.604,-0.372 10.836,0.18 9.768,0.18 8.34,0.18 7.464,-0.708 6.6,-1.596 6.6,-3.06 q 0,-1.44 0.876,-2.376 0.876,-0.936 2.232,-0.936 1.404,0 2.232,0.96 0.828,0.948 0.828,2.58 v 0.168 h -4.44 q 0.012,0.804 0.384,1.224 0.384,0.42 1.068,0.42 0.9,0 1.26,-0.9 z M 11.04,-3.744 q -0.06,-0.612 -0.396,-0.996 -0.336,-0.396 -0.936,-0.396 -0.564,0 -0.936,0.372 -0.372,0.372 -0.444,1.02 z"
           id="path1182" />
        <path
           d="m 19.5,0 h -1.728 q -0.084,-0.24 -0.12,-0.6 -0.78,0.78 -2.004,0.78 -1.032,0 -1.62,-0.492 -0.588,-0.504 -0.588,-1.38 0,-0.396 0.096,-0.696 0.108,-0.3 0.336,-0.504 0.24,-0.204 0.444,-0.336 0.216,-0.132 0.588,-0.216 0.372,-0.084 0.6,-0.12 0.228,-0.048 0.636,-0.096 0.9,-0.12 1.2,-0.252 0.312,-0.132 0.312,-0.492 0,-0.828 -1.116,-0.828 -0.588,0 -0.864,0.216 -0.276,0.204 -0.36,0.732 h -1.596 q 0.144,-2.088 2.868,-2.088 2.7,0 2.7,2.016 v 2.676 q 0,1.176 0.216,1.68 z m -1.86,-3.012 q -0.3,0.18 -1.2,0.324 -0.756,0.12 -0.984,0.3 -0.264,0.216 -0.264,0.624 0,0.384 0.24,0.612 0.252,0.216 0.696,0.216 0.684,0 1.092,-0.36 0.42,-0.372 0.42,-1.02 z"
           id="path1184" />
        <path
           d="m 24.648,-6.3 v 1.572 q -0.36,-0.072 -0.66,-0.072 -0.84,0 -1.236,0.54 -0.396,0.528 -0.396,1.428 V 0 h -1.704 v -6.192 h 1.62 v 1.14 q 0.612,-1.284 2.004,-1.284 0.12,0 0.372,0.036 z"
           id="path1186" />
      </g>
    </g>
    <g
       id="g102">
      <g
         aria-label="1."
         transform="matrix(1,0,0,-1,76.2,748.089)"
         id="text106"
         style="font-size:12px;font-family:HelveticaNeueCyr;-inkscape-font-specification:HelveticaNeueCyr-Roman">
        <path
           d="M 4.296,-8.496 V 0 H 3.18 V -6.156 H 1.044 v -0.768 q 1.032,0 1.632,-0.336 0.612,-0.336 0.816,-1.236 z"
           id="path1175" />
        <path
           d="M 9.012,-1.332 V 0 H 7.68 v -1.332 z"
           id="path1177" />
      </g>
    </g>
    <g
       id="g108">
      <g
         aria-label="Woody"
         transform="matrix(1,0,0,-1,106.6,748.089)"
         id="text112"
         style="font-size:12px;font-family:HelveticaNeueCyr;-inkscape-font-specification:HelveticaNeueCyr-Roman">
        <path
           d="m 0.168,-8.544 h 1.164 l 1.692,7.14 1.932,-7.14 h 1.236 l 1.908,7.14 1.752,-7.14 H 10.98 L 8.7,0 H 7.512 L 5.544,-7.152 3.552,0 H 2.364 Z"
           id="path1164" />
        <path
           d="m 11.664,-5.484 q 0.816,-0.888 2.22,-0.888 1.404,0 2.184,0.852 0.78,0.852 0.78,2.388 0,1.572 -0.78,2.448 -0.78,0.876 -2.196,0.876 -1.416,0 -2.22,-0.864 -0.804,-0.864 -0.804,-2.4 0,-1.524 0.816,-2.412 z m 3.612,0.624 q -0.516,-0.66 -1.416,-0.66 -0.9,0 -1.428,0.66 -0.528,0.66 -0.528,1.764 0,1.14 0.516,1.788 0.528,0.636 1.464,0.636 0.9,0 1.404,-0.648 0.516,-0.648 0.516,-1.788 0,-1.104 -0.528,-1.752 z"
           id="path1166" />
        <path
           d="m 18.552,-5.484 q 0.816,-0.888 2.22,-0.888 1.404,0 2.184,0.852 0.78,0.852 0.78,2.388 0,1.572 -0.78,2.448 -0.78,0.876 -2.196,0.876 -1.416,0 -2.22,-0.864 -0.804,-0.864 -0.804,-2.4 0,-1.524 0.816,-2.412 z m 3.612,0.624 q -0.516,-0.66 -1.416,-0.66 -0.9,0 -1.428,0.66 -0.528,0.66 -0.528,1.764 0,1.14 0.516,1.788 0.528,0.636 1.464,0.636 0.9,0 1.404,-0.648 0.516,-0.648 0.516,-1.788 0,-1.104 -0.528,-1.752 z"
           id="path1168" />
        <path
           d="M 30.528,-8.544 V 0 h -0.96 v -0.912 q -0.588,1.08 -2.04,1.08 -1.32,0 -2.1,-0.876 -0.768,-0.888 -0.768,-2.4 0,-1.404 0.72,-2.328 0.732,-0.936 2.1,-0.936 1.332,0 2.028,1.008 v -3.18 z m -2.916,3.048 q -0.876,0 -1.392,0.636 -0.504,0.636 -0.504,1.728 0,1.128 0.516,1.8 0.528,0.66 1.404,0.66 0.888,0 1.392,-0.636 0.504,-0.648 0.504,-1.788 0,-1.02 -0.48,-1.704 -0.468,-0.696 -1.44,-0.696 z"
           id="path1170" />
        <path
           d="M 37.176,-6.192 34.524,0.792 Q 34.368,1.212 34.248,1.44 34.14,1.68 33.924,1.956 33.72,2.244 33.42,2.364 q -0.288,0.132 -0.684,0.132 -0.3,0 -0.756,-0.108 V 1.476 q 0.444,0.132 0.66,0.132 0.504,0 0.72,-0.516 l 0.48,-1.128 -2.46,-6.156 h 1.152 l 1.836,4.932 1.74,-4.932 z"
           id="path1172" />
      </g>
    </g>
    <g
       id="g114">
      <g
         aria-label="1995"
         transform="matrix(1,0,0,-1,254.7,748.089)"
         id="text118"
         style="font-size:12px;font-family:HelveticaNeueCyr;-inkscape-font-specification:HelveticaNeueCyr-Roman">
        <path
           d="M 4.296,-8.496 V 0 H 3.18 V -6.156 H 1.044 v -0.768 q 1.032,0 1.632,-0.336 0.612,-0.336 0.816,-1.236 z"
           id="path1155" />
        <path
           d="m 7.284,-2.052 h 1.008 q 0.084,0.624 0.492,0.984 0.42,0.348 1.068,0.348 1.668,0 1.896,-2.772 0.024,-0.252 0.024,-0.564 -0.72,1.164 -2.076,1.164 -1.164,0 -1.884,-0.756 -0.72,-0.768 -0.72,-2.004 0,-1.272 0.78,-2.064 0.78,-0.792 2.028,-0.792 2.928,0 2.928,4.152 0,0.636 -0.084,1.224 -0.072,0.576 -0.276,1.2 -0.204,0.612 -0.528,1.068 -0.324,0.456 -0.876,0.744 -0.54,0.288 -1.248,0.288 -1.08,0 -1.776,-0.588 -0.684,-0.588 -0.756,-1.632 z m 2.568,-5.544 q -0.756,0 -1.224,0.528 -0.456,0.516 -0.456,1.38 0,0.816 0.432,1.356 0.444,0.528 1.248,0.528 0.78,0 1.26,-0.504 0.48,-0.516 0.48,-1.356 0,-0.876 -0.48,-1.404 -0.48,-0.528 -1.26,-0.528 z"
           id="path1157" />
        <path
           d="m 13.884,-2.052 h 1.008 q 0.084,0.624 0.492,0.984 0.42,0.348 1.068,0.348 1.668,0 1.896,-2.772 0.024,-0.252 0.024,-0.564 -0.72,1.164 -2.076,1.164 -1.164,0 -1.884,-0.756 -0.72,-0.768 -0.72,-2.004 0,-1.272 0.78,-2.064 0.78,-0.792 2.028,-0.792 2.928,0 2.928,4.152 0,0.636 -0.084,1.224 -0.072,0.576 -0.276,1.2 -0.204,0.612 -0.528,1.068 -0.324,0.456 -0.876,0.744 -0.54,0.288 -1.248,0.288 -1.08,0 -1.776,-0.588 -0.684,-0.588 -0.756,-1.632 z m 2.568,-5.544 q -0.756,0 -1.224,0.528 -0.456,0.516 -0.456,1.38 0,0.816 0.432,1.356 0.444,0.528 1.248,0.528 0.78,0 1.26,-0.504 0.48,-0.516 0.48,-1.356 0,-0.876 -0.48,-1.404 -0.48,-0.528 -1.26,-0.528 z"
           id="path1159" />
        <path
           d="m 25.62,-8.352 v 0.9 h -3.444 l -0.504,2.532 q 0.624,-0.672 1.716,-0.672 1.2,0 1.944,0.78 0.744,0.768 0.744,2.004 0,1.296 -0.816,2.136 -0.816,0.84 -2.124,0.84 -1.212,0 -1.968,-0.672 -0.744,-0.672 -0.78,-1.788 h 1.032 q 0.06,0.708 0.54,1.152 0.48,0.444 1.188,0.444 0.792,0 1.32,-0.576 0.528,-0.576 0.528,-1.428 0,-0.888 -0.516,-1.44 -0.516,-0.564 -1.344,-0.564 -1.056,0 -1.632,0.828 l -0.876,-0.06 0.792,-4.416 z"
           id="path1161" />
      </g>
    </g>
    <g
       id="g120">
      <g
         aria-label="2."
         transform="matrix(1,0,0,-1,76.2,727.589)"
         id="text124"
         style="font-size:12px;font-family:HelveticaNeueCyr;-inkscape-font-specification:HelveticaNeueCyr-Roman">
        <path
           d="M 5.844,-0.924 V 0 H 0.3 q 0.036,-0.708 0.216,-1.236 0.18,-0.528 0.552,-0.948 0.384,-0.432 0.744,-0.708 0.36,-0.276 1.02,-0.684 1.032,-0.648 1.356,-0.972 0.672,-0.66 0.672,-1.464 0,-0.708 -0.456,-1.152 -0.456,-0.456 -1.188,-0.456 -0.876,0 -1.26,0.612 -0.372,0.6 -0.396,1.524 H 0.528 v -0.228 q 0,-1.26 0.744,-2.028 0.756,-0.768 1.992,-0.768 1.212,0 1.932,0.672 0.72,0.672 0.72,1.8 0,0.48 -0.168,0.912 -0.156,0.42 -0.36,0.708 -0.192,0.288 -0.6,0.612 Q 4.392,-3.48 4.128,-3.3 3.864,-3.132 3.372,-2.832 2.388,-2.244 2.064,-1.92 1.608,-1.476 1.476,-0.924 Z"
           id="path1150" />
        <path
           d="M 9.012,-1.332 V 0 H 7.68 v -1.332 z"
           id="path1152" />
      </g>
    </g>
    <g
       id="g126">
      <g
         aria-label="Buzz Lightyear"
         transform="matrix(1,0,0,-1,106.6,727.589)"
         id="text130"
         style="font-size:12px;font-family:HelveticaNeueCyr;-inkscape-font-specification:HelveticaNeueCyr-Roman">
        <path
           d="m 0.948,-8.544 h 3.648 q 1.176,0 1.944,0.516 0.78,0.516 0.78,1.62 0,0.636 -0.348,1.14 -0.336,0.492 -0.912,0.696 0.792,0.18 1.212,0.744 0.432,0.564 0.432,1.416 Q 7.704,0 4.464,0 H 0.948 Z m 1.104,0.96 v 2.7 H 4.08 q 0.348,0 0.588,-0.012 Q 4.92,-4.92 5.232,-4.992 5.544,-5.064 5.724,-5.196 5.916,-5.34 6.048,-5.604 6.192,-5.868 6.192,-6.24 6.192,-6.612 6.072,-6.864 5.952,-7.128 5.784,-7.26 5.616,-7.404 5.316,-7.476 5.028,-7.548 4.788,-7.56 4.56,-7.584 4.188,-7.584 Z m 0,3.588 v 3.048 h 2.256 q 0.42,0 0.684,-0.012 0.264,-0.024 0.588,-0.108 0.336,-0.084 0.528,-0.24 0.192,-0.168 0.324,-0.468 0.132,-0.312 0.132,-0.744 0,-0.36 -0.096,-0.624 -0.084,-0.264 -0.3,-0.42 Q 5.964,-3.72 5.772,-3.816 5.592,-3.912 5.244,-3.948 4.896,-3.984 4.704,-3.984 4.512,-3.996 4.116,-3.996 Z"
           id="path1123" />
        <path
           d="M 14.1,-6.192 V 0 h -0.948 v -0.972 q -0.792,1.14 -2.136,1.14 -0.984,0 -1.5239999,-0.54 -0.54,-0.54 -0.54,-1.56 v -4.26 h 1.02 v 3.984 q 0,0.732 0.2759999,1.116 0.288,0.372 1.02,0.372 1.812,0 1.812,-2.232 v -3.24 z"
           id="path1125" />
        <path
           d="m 20.22,-6.192 v 0.672 l -3.768,4.656 h 3.924 V 0 h -5.232 v -0.78 l 3.696,-4.572 h -3.456 v -0.84 z"
           id="path1127" />
        <path
           d="m 25.92,-6.192 v 0.672 l -3.768,4.656 h 3.924 V 0 h -5.232 v -0.78 l 3.696,-4.572 h -3.456 v -0.84 z"
           id="path1129" />
        <path
           d="M 36.288,-0.984 V 0 h -5.664 v -8.544 h 1.128 v 7.56 z"
           id="path1131" />
        <path
           d="m 38.196,-8.544 v 1.248 h -1.032 v -1.248 z m 0,2.352 V 0 h -1.032 v -6.192 z"
           id="path1133" />
        <path
           d="m 45.167999,-6.192 v 5.52 q 0,0.804 -0.084,1.236 -0.084,0.444 -0.312,0.828 -0.684,1.128 -2.448,1.128 -1.044,0 -1.764,-0.432 -0.72,-0.42 -0.84,-1.392 h 1.044 q 0.18,1.032 1.596,1.032 0.948,0 1.368,-0.48 0.432,-0.48 0.456,-1.548 l 0.012,-0.756 q -0.588,1.128 -1.968,1.128 -1.248,0 -1.992,-0.852 -0.732,-0.852 -0.732,-2.292 0,-1.356 0.732,-2.316 0.732,-0.972 2.04,-0.972 0.648,0 1.152,0.276 0.516,0.276 0.804,0.792 v -0.9 z m -2.844,0.72 q -0.828,0 -1.308,0.648 -0.468,0.636 -0.468,1.764 0,1.02 0.492,1.644 0.492,0.612 1.308,0.612 0.852,0 1.332,-0.648 0.492,-0.648 0.492,-1.776 0,-1.056 -0.492,-1.644 -0.48,-0.6 -1.356,-0.6 z"
           id="path1135" />
        <path
           d="m 47.712,-8.544 v 3.228 q 0.684,-1.032 2.028,-1.032 2.088,0 2.088,2.112 V 0 h -1.02 v -3.996 q 0,-0.708 -0.3,-1.08 -0.288,-0.384 -1.056,-0.384 -0.936,0 -1.344,0.6 -0.396,0.6 -0.396,1.716 V 0 h -1.02 v -8.544 z"
           id="path1137" />
        <path
           d="m 55.943998,-6.192 v 0.84 h -1.236 v 3.612 q 0,0.3 0,0.396 0.012,0.096 0.072,0.264 0.06,0.156 0.204,0.204 0.144,0.048 0.408,0.048 0.228,0 0.552,-0.036 v 0.876 q -0.432,0.048 -0.78,0.048 -0.432,0 -0.72,-0.096 -0.288,-0.096 -0.444,-0.216 -0.144,-0.12 -0.216,-0.42 -0.072,-0.312 -0.084,-0.516 -0.012,-0.216 -0.012,-0.708 0,-0.108 0,-0.168 v -3.288 h -1.044 v -0.84 h 1.044 v -1.836 h 1.02 v 1.836 z"
           id="path1139" />
        <path
           d="m 62.208002,-6.192 -2.652,6.984 q -0.156,0.42 -0.276,0.648 -0.108,0.24 -0.324,0.516 -0.204,0.288 -0.504,0.408 -0.288,0.132 -0.684,0.132 -0.3,0 -0.756,-0.108 V 1.476 q 0.444,0.132 0.66,0.132 0.504,0 0.72,-0.516 l 0.48,-1.128 -2.46,-6.156 h 1.152 l 1.836,4.932 1.74,-4.932 z"
           id="path1141" />
        <path
           d="m 68.376002,-1.956 q -0.468,2.16 -2.7,2.16 -1.368,0 -2.148,-0.852 -0.768,-0.852 -0.768,-2.364 0,-1.5 0.792,-2.424 0.804,-0.936 2.088,-0.936 1.428,0 2.112,0.972 0.696,0.96 0.696,2.436 v 0.144 h -4.656 l -0.012,0.072 q 0,0.984 0.516,1.548 0.516,0.564 1.416,0.564 0.672,0 1.056,-0.312 0.396,-0.312 0.612,-1.008 z m -0.984,-1.692 q -0.072,-0.888 -0.54,-1.38 -0.468,-0.504 -1.236,-0.504 -0.744,0 -1.236,0.504 -0.492,0.504 -0.588,1.38 z"
           id="path1143" />
        <path
           d="m 75.059999,-0.816 v 0.792 q -0.312,0.12 -0.696,0.12 -0.876,0 -0.9,-0.912 -0.876,0.984 -2.244,0.984 -0.912,0 -1.452,-0.468 -0.528,-0.468 -0.528,-1.284 0,-1.656 2.196,-1.932 1.296,-0.156 1.5,-0.228 0.432,-0.144 0.468,-0.6 0.012,-0.072 0.012,-0.156 0,-1.02 -1.404,-1.02 -0.72,0 -1.092,0.3 -0.372,0.288 -0.444,0.96 h -0.996 q 0.024,-0.996 0.708,-1.548 0.684,-0.552 1.884,-0.552 1.308,0 1.944,0.6 0.204,0.192 0.3,0.504 0.096,0.312 0.108,0.516 0.012,0.192 0.012,0.588 0,0.468 -0.024,1.392 -0.024,0.912 -0.024,1.368 0,0.336 0.084,0.48 0.096,0.132 0.336,0.132 0.096,0 0.252,-0.036 z m -1.644,-2.4 q -0.108,0.084 -0.228,0.144 -0.12,0.06 -0.312,0.096 -0.18,0.036 -0.252,0.06 -0.06,0.012 -0.312,0.048 -0.252,0.024 -0.264,0.024 -0.372,0.048 -0.492,0.072 -0.108,0.012 -0.432,0.096 -0.312,0.084 -0.444,0.192 -0.132,0.108 -0.264,0.324 -0.12,0.204 -0.12,0.492 0,0.48 0.324,0.756 0.336,0.276 0.912,0.276 0.732,0 1.308,-0.432 0.576,-0.432 0.576,-1.02 z"
           id="path1145" />
        <path
           d="m 79.200002,-6.336 v 1.056 q -0.108,-0.012 -0.264,-0.012 -0.492,0 -0.852,0.156 -0.36,0.144 -0.576,0.384 -0.204,0.24 -0.336,0.6 -0.132,0.36 -0.18,0.72 -0.036,0.36 -0.036,0.816 V 0 h -1.02 v -6.192 h 0.972 v 1.332 q 0.612,-1.476 2.292,-1.476 z"
           id="path1147" />
      </g>
    </g>
    <g
       id="g132">
      <g
         aria-label="1995"
         transform="matrix(1,0,0,-1,254.7,727.589)"
         id="text136"
         style="font-size:12px;font-family:HelveticaNeueCyr;-inkscape-font-specification:HelveticaNeueCyr-Roman">
        <path
           d="M 4.296,-8.496 V 0 H 3.18 V -6.156 H 1.044 v -0.768 q 1.032,0 1.632,-0.336 0.612,-0.336 0.816,-1.236 z"
           id="path1114" />
        <path
           d="m 7.284,-2.052 h 1.008 q 0.084,0.624 0.492,0.984 0.42,0.348 1.068,0.348 1.668,0 1.896,-2.772 0.024,-0.252 0.024,-0.564 -0.72,1.164 -2.076,1.164 -1.164,0 -1.884,-0.756 -0.72,-0.768 -0.72,-2.004 0,-1.272 0.78,-2.064 0.78,-0.792 2.028,-0.792 2.928,0 2.928,4.152 0,0.636 -0.084,1.224 -0.072,0.576 -0.276,1.2 -0.204,0.612 -0.528,1.068 -0.324,0.456 -0.876,0.744 -0.54,0.288 -1.248,0.288 -1.08,0 -1.776,-0.588 -0.684,-0.588 -0.756,-1.632 z m 2.568,-5.544 q -0.756,0 -1.224,0.528 -0.456,0.516 -0.456,1.38 0,0.816 0.432,1.356 0.444,0.528 1.248,0.528 0.78,0 1.26,-0.504 0.48,-0.516 0.48,-1.356 0,-0.876 -0.48,-1.404 -0.48,-0.528 -1.26,-0.528 z"
           id="path1116" />
        <path
           d="m 13.884,-2.052 h 1.008 q 0.084,0.624 0.492,0.984 0.42,0.348 1.068,0.348 1.668,0 1.896,-2.772 0.024,-0.252 0.024,-0.564 -0.72,1.164 -2.076,1.164 -1.164,0 -1.884,-0.756 -0.72,-0.768 -0.72,-2.004 0,-1.272 0.78,-2.064 0.78,-0.792 2.028,-0.792 2.928,0 2.928,4.152 0,0.636 -0.084,1.224 -0.072,0.576 -0.276,1.2 -0.204,0.612 -0.528,1.068 -0.324,0.456 -0.876,0.744 -0.54,0.288 -1.248,0.288 -1.08,0 -1.776,-0.588 -0.684,-0.588 -0.756,-1.632 z m 2.568,-5.544 q -0.756,0 -1.224,0.528 -0.456,0.516 -0.456,1.38 0,0.816 0.432,1.356 0.444,0.528 1.248,0.528 0.78,0 1.26,-0.504 0.48,-0.516 0.48,-1.356 0,-0.876 -0.48,-1.404 -0.48,-0.528 -1.26,-0.528 z"
           id="path1118" />
        <path
           d="m 25.62,-8.352 v 0.9 h -3.444 l -0.504,2.532 q 0.624,-0.672 1.716,-0.672 1.2,0 1.944,0.78 0.744,0.768 0.744,2.004 0,1.296 -0.816,2.136 -0.816,0.84 -2.124,0.84 -1.212,0 -1.968,-0.672 -0.744,-0.672 -0.78,-1.788 h 1.032 q 0.06,0.708 0.54,1.152 0.48,0.444 1.188,0.444 0.792,0 1.32,-0.576 0.528,-0.576 0.528,-1.428 0,-0.888 -0.516,-1.44 -0.516,-0.564 -1.344,-0.564 -1.056,0 -1.632,0.828 l -0.876,-0.06 0.792,-4.416 z"
           id="path1120" />
      </g>
    </g>
    <g
       id="g138">
      <g
         aria-label="3."
         transform="matrix(1,0,0,-1,76.2,707.189)"
         id="text142"
         style="font-size:12px;font-family:HelveticaNeueCyr;-inkscape-font-specification:HelveticaNeueCyr-Roman">
        <path
           d="m 0.552,-5.748 q 0.036,-1.32 0.732,-2.04 0.708,-0.72 1.968,-0.72 1.128,0 1.812,0.612 0.684,0.612 0.684,1.608 0,0.6 -0.312,1.08 -0.3,0.468 -0.852,0.696 0.72,0.168 1.14,0.72 0.42,0.552 0.42,1.332 0.012,1.176 -0.816,1.908 -0.816,0.72 -2.124,0.72 -1.296,0 -2.076,-0.708 Q 0.36,-1.26 0.36,-2.472 v -0.156 h 1.008 q 0.036,0.912 0.516,1.404 0.48,0.492 1.332,0.492 0.816,0 1.32,-0.456 0.516,-0.468 0.516,-1.2 0,-0.744 -0.516,-1.188 -0.504,-0.444 -1.368,-0.444 -0.216,0 -0.552,0.048 v -0.864 q 0.168,0.012 0.348,0.012 0.792,0 1.248,-0.372 Q 4.68,-5.58 4.68,-6.228 4.68,-6.852 4.272,-7.236 3.876,-7.62 3.204,-7.62 q -0.768,0 -1.2,0.492 -0.432,0.48 -0.456,1.38 z"
           id="path1109" />
        <path
           d="M 9.012,-1.332 V 0 H 7.68 v -1.332 z"
           id="path1111" />
      </g>
    </g>
    <g
       id="g144">
      <g
         aria-label="Bo Peep"
         transform="matrix(1,0,0,-1,106.6,707.189)"
         id="text148"
         style="font-size:12px;font-family:HelveticaNeueCyr;-inkscape-font-specification:HelveticaNeueCyr-Roman">
        <path
           d="m 0.948,-8.544 h 3.648 q 1.176,0 1.944,0.516 0.78,0.516 0.78,1.62 0,0.636 -0.348,1.14 -0.336,0.492 -0.912,0.696 0.792,0.18 1.212,0.744 0.432,0.564 0.432,1.416 Q 7.704,0 4.464,0 H 0.948 Z m 1.104,0.96 v 2.7 H 4.08 q 0.348,0 0.588,-0.012 Q 4.92,-4.92 5.232,-4.992 5.544,-5.064 5.724,-5.196 5.916,-5.34 6.048,-5.604 6.192,-5.868 6.192,-6.24 6.192,-6.612 6.072,-6.864 5.952,-7.128 5.784,-7.26 5.616,-7.404 5.316,-7.476 5.028,-7.548 4.788,-7.56 4.56,-7.584 4.188,-7.584 Z m 0,3.588 v 3.048 h 2.256 q 0.42,0 0.684,-0.012 0.264,-0.024 0.588,-0.108 0.336,-0.084 0.528,-0.24 0.192,-0.168 0.324,-0.468 0.132,-0.312 0.132,-0.744 0,-0.36 -0.096,-0.624 -0.084,-0.264 -0.3,-0.42 Q 5.964,-3.72 5.772,-3.816 5.592,-3.912 5.244,-3.948 4.896,-3.984 4.704,-3.984 4.512,-3.996 4.116,-3.996 Z"
           id="path1096" />
        <path
           d="M 9.4560001,-5.484 Q 10.272,-6.372 11.676,-6.372 q 1.404,0 2.184,0.852 0.78,0.852 0.78,2.388 0,1.572 -0.78,2.448 -0.78,0.876 -2.196,0.876 -1.416,0 -2.2199999,-0.864 -0.804,-0.864 -0.804,-2.4 0,-1.524 0.816,-2.412 z M 13.068,-4.86 q -0.516,-0.66 -1.416,-0.66 -0.9,0 -1.428,0.66 -0.5279999,0.66 -0.5279999,1.764 0,1.14 0.5159999,1.788 0.528,0.636 1.464,0.636 0.9,0 1.404,-0.648 0.516,-0.648 0.516,-1.788 0,-1.104 -0.528,-1.752 z"
           id="path1098" />
        <path
           d="m 19.380001,-8.544 h 3.516 q 1.308,0 2.076,0.6 0.768,0.588 0.768,1.86 0,2.58 -2.916,2.58 h -2.316 V 0 h -1.128 z m 1.128,0.972 v 3.12 h 2.172 q 0.912,0 1.416,-0.336 0.516,-0.348 0.516,-1.224 0,-0.492 -0.168,-0.816 -0.156,-0.324 -0.468,-0.48 -0.312,-0.156 -0.648,-0.204 -0.336,-0.06 -0.804,-0.06 z"
           id="path1100" />
        <path
           d="m 32.232001,-1.956 q -0.468,2.16 -2.7,2.16 -1.368,0 -2.148,-0.852 -0.768,-0.852 -0.768,-2.364 0,-1.5 0.792,-2.424 0.804,-0.936 2.088,-0.936 1.428,0 2.112,0.972 0.696,0.96 0.696,2.436 v 0.144 h -4.656 l -0.012,0.072 q 0,0.984 0.516,1.548 0.516,0.564 1.416,0.564 0.672,0 1.056,-0.312 0.396,-0.312 0.612,-1.008 z m -0.984,-1.692 q -0.072,-0.888 -0.54,-1.38 -0.468,-0.504 -1.236,-0.504 -0.744,0 -1.236,0.504 -0.492,0.504 -0.588,1.38 z"
           id="path1102" />
        <path
           d="m 38.628001,-1.956 q -0.468,2.16 -2.7,2.16 -1.368,0 -2.148,-0.852 -0.768,-0.852 -0.768,-2.364 0,-1.5 0.792,-2.424 0.804,-0.936 2.088,-0.936 1.428,0 2.112,0.972 0.696,0.96 0.696,2.436 v 0.144 h -4.656 l -0.012,0.072 q 0,0.984 0.516,1.548 0.516,0.564 1.416,0.564 0.672,0 1.056,-0.312 0.396,-0.312 0.612,-1.008 z m -0.984,-1.692 q -0.072,-0.888 -0.54,-1.38 -0.468,-0.504 -1.236,-0.504 -0.744,0 -1.236,0.504 -0.492,0.504 -0.588,1.38 z"
           id="path1104" />
        <path
           d="m 40.788001,-6.192 v 0.876 q 0.672,-1.068 2.088,-1.068 1.296,0 2.052,0.876 0.768,0.876 0.768,2.376 0,1.5 -0.756,2.4 -0.744,0.888 -2.016,0.888 -1.332,0 -2.076,-1.02 v 3.252 h -1.02 v -8.58 z m 1.932,0.66 q -0.888,0 -1.404,0.648 -0.504,0.636 -0.504,1.764 0,1.128 0.516,1.776 0.528,0.636 1.428,0.636 0.876,0 1.38,-0.648 0.504,-0.648 0.504,-1.764 0,-1.128 -0.516,-1.764 -0.504,-0.648 -1.404,-0.648 z"
           id="path1106" />
      </g>
    </g>
    <g
       id="g150">
      <g
         aria-label="1995"
         transform="matrix(1,0,0,-1,254.7,707.189)"
         id="text154"
         style="font-size:12px;font-family:HelveticaNeueCyr;-inkscape-font-specification:HelveticaNeueCyr-Roman">
        <path
           d="M 4.296,-8.496 V 0 H 3.18 V -6.156 H 1.044 v -0.768 q 1.032,0 1.632,-0.336 0.612,-0.336 0.816,-1.236 z"
           id="path1087" />
        <path
           d="m 7.284,-2.052 h 1.008 q 0.084,0.624 0.492,0.984 0.42,0.348 1.068,0.348 1.668,0 1.896,-2.772 0.024,-0.252 0.024,-0.564 -0.72,1.164 -2.076,1.164 -1.164,0 -1.884,-0.756 -0.72,-0.768 -0.72,-2.004 0,-1.272 0.78,-2.064 0.78,-0.792 2.028,-0.792 2.928,0 2.928,4.152 0,0.636 -0.084,1.224 -0.072,0.576 -0.276,1.2 -0.204,0.612 -0.528,1.068 -0.324,0.456 -0.876,0.744 -0.54,0.288 -1.248,0.288 -1.08,0 -1.776,-0.588 -0.684,-0.588 -0.756,-1.632 z m 2.568,-5.544 q -0.756,0 -1.224,0.528 -0.456,0.516 -0.456,1.38 0,0.816 0.432,1.356 0.444,0.528 1.248,0.528 0.78,0 1.26,-0.504 0.48,-0.516 0.48,-1.356 0,-0.876 -0.48,-1.404 -0.48,-0.528 -1.26,-0.528 z"
           id="path1089" />
        <path
           d="m 13.884,-2.052 h 1.008 q 0.084,0.624 0.492,0.984 0.42,0.348 1.068,0.348 1.668,0 1.896,-2.772 0.024,-0.252 0.024,-0.564 -0.72,1.164 -2.076,1.164 -1.164,0 -1.884,-0.756 -0.72,-0.768 -0.72,-2.004 0,-1.272 0.78,-2.064 0.78,-0.792 2.028,-0.792 2.928,0 2.928,4.152 0,0.636 -0.084,1.224 -0.072,0.576 -0.276,1.2 -0.204,0.612 -0.528,1.068 -0.324,0.456 -0.876,0.744 -0.54,0.288 -1.248,0.288 -1.08,0 -1.776,-0.588 -0.684,-0.588 -0.756,-1.632 z m 2.568,-5.544 q -0.756,0 -1.224,0.528 -0.456,0.516 -0.456,1.38 0,0.816 0.432,1.356 0.444,0.528 1.248,0.528 0.78,0 1.26,-0.504 0.48,-0.516 0.48,-1.356 0,-0.876 -0.48,-1.404 -0.48,-0.528 -1.26,-0.528 z"
           id="path1091" />
        <path
           d="m 25.62,-8.352 v 0.9 h -3.444 l -0.504,2.532 q 0.624,-0.672 1.716,-0.672 1.2,0 1.944,0.78 0.744,0.768 0.744,2.004 0,1.296 -0.816,2.136 -0.816,0.84 -2.124,0.84 -1.212,0 -1.968,-0.672 -0.744,-0.672 -0.78,-1.788 h 1.032 q 0.06,0.708 0.54,1.152 0.48,0.444 1.188,0.444 0.792,0 1.32,-0.576 0.528,-0.576 0.528,-1.428 0,-0.888 -0.516,-1.44 -0.516,-0.564 -1.344,-0.564 -1.056,0 -1.632,0.828 l -0.876,-0.06 0.792,-4.416 z"
           id="path1093" />
      </g>
    </g>
    <g
       id="g156">
      <g
         aria-label="4."
         transform="matrix(1,0,0,-1,76.2,686.689)"
         id="text160"
         style="font-size:12px;font-family:HelveticaNeueCyr;-inkscape-font-specification:HelveticaNeueCyr-Roman">
        <path
           d="m 6.18,-2.916 v 0.864 H 5.028 V 0 H 4.068 V -2.052 H 0.336 v -0.96 L 4.2,-8.508 h 0.828 v 5.592 z m -2.112,0 v -4.092 l -2.832,4.092 z"
           id="path1082" />
        <path
           d="M 9.012,-1.332 V 0 H 7.68 v -1.332 z"
           id="path1084" />
      </g>
    </g>
    <g
       id="g162">
      <g
         aria-label="Mr. Potato Head"
         transform="matrix(1,0,0,-1,106.6,686.689)"
         id="text166"
         style="font-size:12px;font-family:HelveticaNeueCyr;-inkscape-font-specification:HelveticaNeueCyr-Roman">
        <path
           d="M 0.96,-8.544 H 2.52 L 5.268,-1.308 7.92,-8.544 H 9.492 V 0 H 8.424 V -7.128 L 5.748,0 H 4.764 L 2.04,-7.128 V 0 H 0.96 Z"
           id="path1055" />
        <path
           d="m 14.4,-6.336 v 1.056 q -0.108,-0.012 -0.264,-0.012 -0.492,0 -0.852,0.156 -0.36,0.144 -0.576,0.384 -0.204,0.24 -0.336,0.6 -0.132,0.36 -0.18,0.72 -0.036,0.36 -0.036,0.816 V 0 h -1.02 v -6.192 h 0.972 V -4.86 Q 12.72,-6.336 14.4,-6.336 Z"
           id="path1057" />
        <path
           d="M 15.636,-1.332 V 0 h -1.332 v -1.332 z"
           id="path1059" />
        <path
           d="m 20.988001,-8.544 h 3.516 q 1.308,0 2.076,0.6 0.768,0.588 0.768,1.86 0,2.58 -2.916,2.58 h -2.316 V 0 h -1.128 z m 1.128,0.972 v 3.12 h 2.172 q 0.912,0 1.416,-0.336 0.516,-0.348 0.516,-1.224 0,-0.492 -0.168,-0.816 -0.156,-0.324 -0.468,-0.48 -0.312,-0.156 -0.648,-0.204 -0.336,-0.06 -0.804,-0.06 z"
           id="path1061" />
        <path
           d="m 29.040001,-5.484 q 0.816,-0.888 2.22,-0.888 1.404,0 2.184,0.852 0.78,0.852 0.78,2.388 0,1.572 -0.78,2.448 -0.78,0.876 -2.196,0.876 -1.416,0 -2.22,-0.864 -0.804,-0.864 -0.804,-2.4 0,-1.524 0.816,-2.412 z m 3.612,0.624 q -0.516,-0.66 -1.416,-0.66 -0.9,0 -1.428,0.66 -0.528,0.66 -0.528,1.764 0,1.14 0.516,1.788 0.528,0.636 1.464,0.636 0.9,0 1.404,-0.648 0.516,-0.648 0.516,-1.788 0,-1.104 -0.528,-1.752 z"
           id="path1063" />
        <path
           d="m 38.087999,-6.192 v 0.84 h -1.236 v 3.612 q 0,0.3 0,0.396 0.012,0.096 0.072,0.264 0.06,0.156 0.204,0.204 0.144,0.048 0.408,0.048 0.228,0 0.552,-0.036 v 0.876 q -0.432,0.048 -0.78,0.048 -0.432,0 -0.72,-0.096 -0.288,-0.096 -0.444,-0.216 -0.144,-0.12 -0.216,-0.42 -0.072,-0.312 -0.084,-0.516 -0.012,-0.216 -0.012,-0.708 0,-0.108 0,-0.168 v -3.288 h -1.044 v -0.84 h 1.044 v -1.836 h 1.02 v 1.836 z"
           id="path1065" />
        <path
           d="m 44.615998,-0.816 v 0.792 q -0.312,0.12 -0.696,0.12 -0.876,0 -0.9,-0.912 -0.876,0.984 -2.244,0.984 -0.912,0 -1.452,-0.468 -0.528,-0.468 -0.528,-1.284 0,-1.656 2.196,-1.932 1.296,-0.156 1.5,-0.228 0.432,-0.144 0.468,-0.6 0.012,-0.072 0.012,-0.156 0,-1.02 -1.404,-1.02 -0.72,0 -1.092,0.3 -0.372,0.288 -0.444,0.96 h -0.996 q 0.024,-0.996 0.708,-1.548 0.684,-0.552 1.884,-0.552 1.308,0 1.944,0.6 0.204,0.192 0.3,0.504 0.096,0.312 0.108,0.516 0.012,0.192 0.012,0.588 0,0.468 -0.024,1.392 -0.024,0.912 -0.024,1.368 0,0.336 0.084,0.48 0.096,0.132 0.336,0.132 0.096,0 0.252,-0.036 z m -1.644,-2.4 q -0.108,0.084 -0.228,0.144 -0.12,0.06 -0.312,0.096 -0.18,0.036 -0.252,0.06 -0.06,0.012 -0.312,0.048 -0.252,0.024 -0.264,0.024 -0.372,0.048 -0.492,0.072 -0.108,0.012 -0.432,0.096 -0.312,0.084 -0.444,0.192 -0.132,0.108 -0.264,0.324 -0.12,0.204 -0.12,0.492 0,0.48 0.324,0.756 0.336,0.276 0.912,0.276 0.732,0 1.308,-0.432 0.576,-0.432 0.576,-1.02 z"
           id="path1067" />
        <path
           d="m 48.275999,-6.192 v 0.84 h -1.236 v 3.612 q 0,0.3 0,0.396 0.012,0.096 0.072,0.264 0.06,0.156 0.204,0.204 0.144,0.048 0.408,0.048 0.228,0 0.552,-0.036 v 0.876 q -0.432,0.048 -0.78,0.048 -0.432,0 -0.72,-0.096 -0.288,-0.096 -0.444,-0.216 -0.144,-0.12 -0.216,-0.42 -0.072,-0.312 -0.084,-0.516 -0.012,-0.216 -0.012,-0.708 0,-0.108 0,-0.168 v -3.288 h -1.044 v -0.84 h 1.044 v -1.836 h 1.02 v 1.836 z"
           id="path1069" />
        <path
           d="m 49.907999,-5.484 q 0.816,-0.888 2.22,-0.888 1.404,0 2.184,0.852 0.78,0.852 0.78,2.388 0,1.572 -0.78,2.448 -0.78,0.876 -2.196,0.876 -1.416,0 -2.22,-0.864 -0.804,-0.864 -0.804,-2.4 0,-1.524 0.816,-2.412 z m 3.612,0.624 q -0.516,-0.66 -1.416,-0.66 -0.9,0 -1.428,0.66 -0.528,0.66 -0.528,1.764 0,1.14 0.516,1.788 0.528,0.636 1.464,0.636 0.9,0 1.404,-0.648 0.516,-0.648 0.516,-1.788 0,-1.104 -0.528,-1.752 z"
           id="path1071" />
        <path
           d="M 66.551999,-8.544 V 0 h -1.128 v -3.996 h -4.512 V 0 h -1.128 v -8.544 h 1.128 v 3.564 h 4.512 v -3.564 z"
           id="path1073" />
        <path
           d="m 73.584002,-1.956 q -0.468,2.16 -2.7,2.16 -1.368,0 -2.148,-0.852 -0.768,-0.852 -0.768,-2.364 0,-1.5 0.792,-2.424 0.804,-0.936 2.088,-0.936 1.428,0 2.112,0.972 0.696,0.96 0.696,2.436 v 0.144 h -4.656 l -0.012,0.072 q 0,0.984 0.516,1.548 0.516,0.564 1.416,0.564 0.672,0 1.056,-0.312 0.396,-0.312 0.612,-1.008 z m -0.984,-1.692 q -0.072,-0.888 -0.54,-1.38 -0.468,-0.504 -1.236,-0.504 -0.744,0 -1.236,0.504 -0.492,0.504 -0.588,1.38 z"
           id="path1075" />
        <path
           d="m 80.171998,-0.816 v 0.792 q -0.312,0.12 -0.696,0.12 -0.876,0 -0.9,-0.912 -0.876,0.984 -2.244,0.984 -0.912,0 -1.452,-0.468 -0.528,-0.468 -0.528,-1.284 0,-1.656 2.196,-1.932 1.296,-0.156 1.5,-0.228 0.432,-0.144 0.468,-0.6 0.012,-0.072 0.012,-0.156 0,-1.02 -1.404,-1.02 -0.72,0 -1.092,0.3 -0.372,0.288 -0.444,0.96 h -0.996 q 0.024,-0.996 0.708,-1.548 0.684,-0.552 1.884,-0.552 1.308,0 1.944,0.6 0.204,0.192 0.3,0.504 0.096,0.312 0.108,0.516 0.012,0.192 0.012,0.588 0,0.468 -0.024,1.392 -0.024,0.912 -0.024,1.368 0,0.336 0.084,0.48 0.096,0.132 0.336,0.132 0.096,0 0.252,-0.036 z m -1.644,-2.4 q -0.108,0.084 -0.228,0.144 -0.12,0.06 -0.312,0.096 -0.18,0.036 -0.252,0.06 -0.06,0.012 -0.312,0.048 -0.252,0.024 -0.264,0.024 -0.372,0.048 -0.492,0.072 -0.108,0.012 -0.432,0.096 -0.312,0.084 -0.444,0.192 -0.132,0.108 -0.264,0.324 -0.12,0.204 -0.12,0.492 0,0.48 0.324,0.756 0.336,0.276 0.912,0.276 0.732,0 1.308,-0.432 0.576,-0.432 0.576,-1.02 z"
           id="path1077" />
        <path
           d="M 86.664002,-8.544 V 0 h -0.96 v -0.912 q -0.588,1.08 -2.04,1.08 -1.32,0 -2.1,-0.876 -0.768,-0.888 -0.768,-2.4 0,-1.404 0.72,-2.328 0.732,-0.936 2.1,-0.936 1.332,0 2.028,1.008 v -3.18 z m -2.916,3.048 q -0.876,0 -1.392,0.636 -0.504,0.636 -0.504,1.728 0,1.128 0.516,1.8 0.528,0.66 1.404,0.66 0.888,0 1.392,-0.636 0.504,-0.648 0.504,-1.788 0,-1.02 -0.48,-1.704 -0.468,-0.696 -1.44,-0.696 z"
           id="path1079" />
      </g>
    </g>
    <g
       id="g168">
      <g
         aria-label="1995"
         transform="matrix(1,0,0,-1,254.7,686.689)"
         id="text172"
         style="font-size:12px;font-family:HelveticaNeueCyr;-inkscape-font-specification:HelveticaNeueCyr-Roman">
        <path
           d="M 4.296,-8.496 V 0 H 3.18 V -6.156 H 1.044 v -0.768 q 1.032,0 1.632,-0.336 0.612,-0.336 0.816,-1.236 z"
           id="path1046" />
        <path
           d="m 7.284,-2.052 h 1.008 q 0.084,0.624 0.492,0.984 0.42,0.348 1.068,0.348 1.668,0 1.896,-2.772 0.024,-0.252 0.024,-0.564 -0.72,1.164 -2.076,1.164 -1.164,0 -1.884,-0.756 -0.72,-0.768 -0.72,-2.004 0,-1.272 0.78,-2.064 0.78,-0.792 2.028,-0.792 2.928,0 2.928,4.152 0,0.636 -0.084,1.224 -0.072,0.576 -0.276,1.2 -0.204,0.612 -0.528,1.068 -0.324,0.456 -0.876,0.744 -0.54,0.288 -1.248,0.288 -1.08,0 -1.776,-0.588 -0.684,-0.588 -0.756,-1.632 z m 2.568,-5.544 q -0.756,0 -1.224,0.528 -0.456,0.516 -0.456,1.38 0,0.816 0.432,1.356 0.444,0.528 1.248,0.528 0.78,0 1.26,-0.504 0.48,-0.516 0.48,-1.356 0,-0.876 -0.48,-1.404 -0.48,-0.528 -1.26,-0.528 z"
           id="path1048" />
        <path
           d="m 13.884,-2.052 h 1.008 q 0.084,0.624 0.492,0.984 0.42,0.348 1.068,0.348 1.668,0 1.896,-2.772 0.024,-0.252 0.024,-0.564 -0.72,1.164 -2.076,1.164 -1.164,0 -1.884,-0.756 -0.72,-0.768 -0.72,-2.004 0,-1.272 0.78,-2.064 0.78,-0.792 2.028,-0.792 2.928,0 2.928,4.152 0,0.636 -0.084,1.224 -0.072,0.576 -0.276,1.2 -0.204,0.612 -0.528,1.068 -0.324,0.456 -0.876,0.744 -0.54,0.288 -1.248,0.288 -1.08,0 -1.776,-0.588 -0.684,-0.588 -0.756,-1.632 z m 2.568,-5.544 q -0.756,0 -1.224,0.528 -0.456,0.516 -0.456,1.38 0,0.816 0.432,1.356 0.444,0.528 1.248,0.528 0.78,0 1.26,-0.504 0.48,-0.516 0.48,-1.356 0,-0.876 -0.48,-1.404 -0.48,-0.528 -1.26,-0.528 z"
           id="path1050" />
        <path
           d="m 25.62,-8.352 v 0.9 h -3.444 l -0.504,2.532 q 0.624,-0.672 1.716,-0.672 1.2,0 1.944,0.78 0.744,0.768 0.744,2.004 0,1.296 -0.816,2.136 -0.816,0.84 -2.124,0.84 -1.212,0 -1.968,-0.672 -0.744,-0.672 -0.78,-1.788 h 1.032 q 0.06,0.708 0.54,1.152 0.48,0.444 1.188,0.444 0.792,0 1.32,-0.576 0.528,-0.576 0.528,-1.428 0,-0.888 -0.516,-1.44 -0.516,-0.564 -1.344,-0.564 -1.056,0 -1.632,0.828 l -0.876,-0.06 0.792,-4.416 z"
           id="path1052" />
      </g>
    </g>
    <g
       id="g174">
      <g
         aria-label="5."
         transform="matrix(1,0,0,-1,76.2,666.289)"
         id="text178"
         style="font-size:12px;font-family:HelveticaNeueCyr;-inkscape-font-specification:HelveticaNeueCyr-Roman">
        <path
           d="m 5.652,-8.352 v 0.9 H 2.208 L 1.704,-4.92 q 0.624,-0.672 1.716,-0.672 1.2,0 1.944,0.78 0.744,0.768 0.744,2.004 0,1.296 -0.816,2.136 -0.816,0.84 -2.124,0.84 -1.212,0 -1.968,-0.672 -0.744,-0.672 -0.78,-1.788 h 1.032 q 0.06,0.708 0.54,1.152 0.48,0.444 1.188,0.444 0.792,0 1.32,-0.576 0.528,-0.576 0.528,-1.428 0,-0.888 -0.516,-1.44 -0.516,-0.564 -1.344,-0.564 -1.056,0 -1.632,0.828 L 0.66,-3.936 1.452,-8.352 Z"
           id="path1041" />
        <path
           d="M 9.012,-1.332 V 0 H 7.68 v -1.332 z"
           id="path1043" />
      </g>
    </g>
    <g
       id="g180">
      <g
         aria-label="Slinky Dog"
         transform="matrix(1,0,0,-1,106.6,666.289)"
         id="text184"
         style="font-size:12px;font-family:HelveticaNeueCyr;-inkscape-font-specification:HelveticaNeueCyr-Roman">
        <path
           d="M 6.996,-6.036 H 5.904 q -0.18,-1.74 -2.124,-1.74 -0.924,0 -1.428,0.372 -0.504,0.372 -0.504,1.044 0,0.24 0.072,0.42 0.072,0.18 0.24,0.324 0.18,0.132 0.336,0.228 0.156,0.096 0.492,0.192 0.336,0.096 0.54,0.144 0.204,0.036 0.636,0.132 0.528,0.108 0.876,0.204 0.348,0.084 0.828,0.288 0.48,0.204 0.756,0.456 0.288,0.24 0.492,0.648 0.216,0.408 0.216,0.924 0,0.9 -0.504,1.512 -0.504,0.6 -1.224,0.84 -0.72,0.24 -1.596,0.24 -1.608,0 -2.58,-0.756 -0.96,-0.768 -0.96,-2.256 H 1.56 q 0.036,1.092 0.732,1.596 0.696,0.492 1.812,0.492 0.876,0 1.5,-0.36 0.624,-0.372 0.624,-1.2 0,-0.384 -0.168,-0.648 -0.168,-0.276 -0.528,-0.444 -0.36,-0.18 -0.72,-0.288 -0.36,-0.108 -0.948,-0.24 -0.084,-0.012 -0.12,-0.024 -1.32,-0.3 -1.728,-0.48 -1.248,-0.54 -1.248,-1.86 0,-1.224 0.9,-1.824 0.912,-0.612 2.196,-0.612 1.404,0 2.244,0.672 0.84,0.672 0.888,2.004 z"
           id="path1022" />
        <path
           d="M 9.6360001,-8.544 V 0 h -1.032 v -8.544 z"
           id="path1024" />
        <path
           d="m 12.24,-8.544 v 1.248 h -1.032 v -1.248 z m 0,2.352 V 0 h -1.032 v -6.192 z"
           id="path1026" />
        <path
           d="m 14.808,-6.192 v 0.96 q 0.768,-1.128 2.112,-1.128 1.092,0 1.572,0.576 0.492,0.564 0.492,1.668 V 0 h -1.02 v -3.648 q 0,-0.456 -0.036,-0.708 -0.024,-0.264 -0.144,-0.552 -0.12,-0.3 -0.408,-0.432 -0.288,-0.132 -0.744,-0.132 -1.764,0 -1.764,2.232 V 0 h -1.02 v -6.192 z"
           id="path1028" />
        <path
           d="M 25.74,-6.192 23.28,-3.948 25.92,0 H 24.624 L 22.5,-3.24 21.528,-2.34 V 0 h -0.996 v -8.544 h 0.996 v 5.052 l 2.844,-2.7 z"
           id="path1030" />
        <path
           d="m 31.86,-6.192 -2.652,6.984 q -0.156,0.42 -0.276,0.648 -0.108,0.24 -0.324,0.516 -0.204,0.288 -0.504,0.408 -0.288,0.132 -0.684,0.132 -0.3,0 -0.756,-0.108 V 1.476 q 0.444,0.132 0.66,0.132 0.504,0 0.72,-0.516 l 0.48,-1.128 -2.46,-6.156 h 1.152 l 1.836,4.932 1.74,-4.932 z"
           id="path1032" />
        <path
           d="m 36.216002,-8.544 h 2.784 q 2.172,0 3.204,1.008 1.032,1.008 1.032,3.192 0,2.148 -0.96,3.252 -0.96,1.092 -3.072,1.092 h -2.988 z m 1.128,0.972 v 6.6 h 1.716 q 1.608,0 2.328,-0.78 0.732,-0.792 0.732,-2.46 0,-1.752 -0.708,-2.556 -0.708,-0.804 -2.4,-0.804 z"
           id="path1034" />
        <path
           d="m 45.011999,-5.484 q 0.816,-0.888 2.22,-0.888 1.404,0 2.184,0.852 0.78,0.852 0.78,2.388 0,1.572 -0.78,2.448 -0.78,0.876 -2.196,0.876 -1.416,0 -2.22,-0.864 -0.804,-0.864 -0.804,-2.4 0,-1.524 0.816,-2.412 z m 3.612,0.624 q -0.516,-0.66 -1.416,-0.66 -0.9,0 -1.428,0.66 -0.528,0.66 -0.528,1.764 0,1.14 0.516,1.788 0.528,0.636 1.464,0.636 0.9,0 1.404,-0.648 0.516,-0.648 0.516,-1.788 0,-1.104 -0.528,-1.752 z"
           id="path1036" />
        <path
           d="m 56.771999,-6.192 v 5.52 q 0,0.804 -0.084,1.236 -0.084,0.444 -0.312,0.828 -0.684,1.128 -2.448,1.128 -1.044,0 -1.764,-0.432 -0.72,-0.42 -0.84,-1.392 h 1.044 q 0.18,1.032 1.596,1.032 0.948,0 1.368,-0.48 0.432,-0.48 0.456,-1.548 l 0.012,-0.756 q -0.588,1.128 -1.968,1.128 -1.248,0 -1.992,-0.852 -0.732,-0.852 -0.732,-2.292 0,-1.356 0.732,-2.316 0.732,-0.972 2.04,-0.972 0.648,0 1.152,0.276 0.516,0.276 0.804,0.792 v -0.9 z m -2.844,0.72 q -0.828,0 -1.308,0.648 -0.468,0.636 -0.468,1.764 0,1.02 0.492,1.644 0.492,0.612 1.308,0.612 0.852,0 1.332,-0.648 0.492,-0.648 0.492,-1.776 0,-1.056 -0.492,-1.644 -0.48,-0.6 -1.356,-0.6 z"
           id="path1038" />
      </g>
    </g>
    <g
       id="g186">
      <g
         aria-label="1995"
         transform="matrix(1,0,0,-1,254.7,666.289)"
         id="text190"
         style="font-size:12px;font-family:HelveticaNeueCyr;-inkscape-font-specification:HelveticaNeueCyr-Roman">
        <path
           d="M 4.296,-8.496 V 0 H 3.18 V -6.156 H 1.044 v -0.768 q 1.032,0 1.632,-0.336 0.612,-0.336 0.816,-1.236 z"
           id="path1013" />
        <path
           d="m 7.284,-2.052 h 1.008 q 0.084,0.624 0.492,0.984 0.42,0.348 1.068,0.348 1.668,0 1.896,-2.772 0.024,-0.252 0.024,-0.564 -0.72,1.164 -2.076,1.164 -1.164,0 -1.884,-0.756 -0.72,-0.768 -0.72,-2.004 0,-1.272 0.78,-2.064 0.78,-0.792 2.028,-0.792 2.928,0 2.928,4.152 0,0.636 -0.084,1.224 -0.072,0.576 -0.276,1.2 -0.204,0.612 -0.528,1.068 -0.324,0.456 -0.876,0.744 -0.54,0.288 -1.248,0.288 -1.08,0 -1.776,-0.588 -0.684,-0.588 -0.756,-1.632 z m 2.568,-5.544 q -0.756,0 -1.224,0.528 -0.456,0.516 -0.456,1.38 0,0.816 0.432,1.356 0.444,0.528 1.248,0.528 0.78,0 1.26,-0.504 0.48,-0.516 0.48,-1.356 0,-0.876 -0.48,-1.404 -0.48,-0.528 -1.26,-0.528 z"
           id="path1015" />
        <path
           d="m 13.884,-2.052 h 1.008 q 0.084,0.624 0.492,0.984 0.42,0.348 1.068,0.348 1.668,0 1.896,-2.772 0.024,-0.252 0.024,-0.564 -0.72,1.164 -2.076,1.164 -1.164,0 -1.884,-0.756 -0.72,-0.768 -0.72,-2.004 0,-1.272 0.78,-2.064 0.78,-0.792 2.028,-0.792 2.928,0 2.928,4.152 0,0.636 -0.084,1.224 -0.072,0.576 -0.276,1.2 -0.204,0.612 -0.528,1.068 -0.324,0.456 -0.876,0.744 -0.54,0.288 -1.248,0.288 -1.08,0 -1.776,-0.588 -0.684,-0.588 -0.756,-1.632 z m 2.568,-5.544 q -0.756,0 -1.224,0.528 -0.456,0.516 -0.456,1.38 0,0.816 0.432,1.356 0.444,0.528 1.248,0.528 0.78,0 1.26,-0.504 0.48,-0.516 0.48,-1.356 0,-0.876 -0.48,-1.404 -0.48,-0.528 -1.26,-0.528 z"
           id="path1017" />
        <path
           d="m 25.62,-8.352 v 0.9 h -3.444 l -0.504,2.532 q 0.624,-0.672 1.716,-0.672 1.2,0 1.944,0.78 0.744,0.768 0.744,2.004 0,1.296 -0.816,2.136 -0.816,0.84 -2.124,0.84 -1.212,0 -1.968,-0.672 -0.744,-0.672 -0.78,-1.788 h 1.032 q 0.06,0.708 0.54,1.152 0.48,0.444 1.188,0.444 0.792,0 1.32,-0.576 0.528,-0.576 0.528,-1.428 0,-0.888 -0.516,-1.44 -0.516,-0.564 -1.344,-0.564 -1.056,0 -1.632,0.828 l -0.876,-0.06 0.792,-4.416 z"
           id="path1019" />
      </g>
    </g>
    <g
       id="g192">
      <g
         aria-label="6."
         transform="matrix(1,0,0,-1,76.2,645.789)"
         id="text196"
         style="font-size:12px;font-family:HelveticaNeueCyr;-inkscape-font-specification:HelveticaNeueCyr-Roman">
        <path
           d="M 6,-6.3 H 4.956 Q 4.872,-6.912 4.5,-7.26 4.14,-7.62 3.516,-7.62 3.084,-7.62 2.736,-7.464 2.4,-7.308 2.184,-7.008 1.98,-6.72 1.836,-6.42 1.692,-6.12 1.62,-5.688 1.548,-5.256 1.524,-4.98 1.5,-4.716 1.476,-4.332 q 0.696,-1.116 2.112,-1.116 1.188,0 1.908,0.756 0.732,0.744 0.732,1.968 0,1.26 -0.768,2.076 -0.756,0.816 -2.028,0.816 -2.964,0 -2.964,-4.224 0,-0.66 0.072,-1.248 0.084,-0.588 0.288,-1.188 0.216,-0.612 0.552,-1.044 0.336,-0.432 0.888,-0.696 0.564,-0.276 1.284,-0.276 1.068,0 1.716,0.588 Q 5.916,-7.344 6,-6.3 Z m -2.592,1.74 q -0.78,0 -1.26,0.528 -0.48,0.516 -0.48,1.356 0,0.876 0.48,1.404 0.492,0.528 1.284,0.528 0.768,0 1.236,-0.504 0.48,-0.516 0.48,-1.38 0,-0.888 -0.468,-1.404 Q 4.212,-4.56 3.408,-4.56 Z"
           id="path1008" />
        <path
           d="M 9.012,-1.332 V 0 H 7.68 v -1.332 z"
           id="path1010" />
      </g>
    </g>
    <g
       id="g198">
      <g
         aria-label="Barbie"
         transform="matrix(1,0,0,-1,106.6,645.789)"
         id="text202"
         style="font-size:12px;font-family:HelveticaNeueCyr;-inkscape-font-specification:HelveticaNeueCyr-Roman">
        <path
           d="m 0.948,-8.544 h 3.648 q 1.176,0 1.944,0.516 0.78,0.516 0.78,1.62 0,0.636 -0.348,1.14 -0.336,0.492 -0.912,0.696 0.792,0.18 1.212,0.744 0.432,0.564 0.432,1.416 Q 7.704,0 4.464,0 H 0.948 Z m 1.104,0.96 v 2.7 H 4.08 q 0.348,0 0.588,-0.012 Q 4.92,-4.92 5.232,-4.992 5.544,-5.064 5.724,-5.196 5.916,-5.34 6.048,-5.604 6.192,-5.868 6.192,-6.24 6.192,-6.612 6.072,-6.864 5.952,-7.128 5.784,-7.26 5.616,-7.404 5.316,-7.476 5.028,-7.548 4.788,-7.56 4.56,-7.584 4.188,-7.584 Z m 0,3.588 v 3.048 h 2.256 q 0.42,0 0.684,-0.012 0.264,-0.024 0.588,-0.108 0.336,-0.084 0.528,-0.24 0.192,-0.168 0.324,-0.468 0.132,-0.312 0.132,-0.744 0,-0.36 -0.096,-0.624 -0.084,-0.264 -0.3,-0.42 Q 5.964,-3.72 5.772,-3.816 5.592,-3.912 5.244,-3.948 4.896,-3.984 4.704,-3.984 4.512,-3.996 4.116,-3.996 Z"
           id="path995" />
        <path
           d="m 14.448,-0.816 v 0.792 q -0.312,0.12 -0.696,0.12 -0.876,0 -0.9,-0.912 -0.876,0.984 -2.244,0.984 -0.9119999,0 -1.4519999,-0.468 -0.528,-0.468 -0.528,-1.284 0,-1.656 2.1959999,-1.932 1.296,-0.156 1.5,-0.228 0.432,-0.144 0.468,-0.6 0.012,-0.072 0.012,-0.156 0,-1.02 -1.404,-1.02 -0.72,0 -1.092,0.3 -0.3719999,0.288 -0.4439999,0.96 h -0.996 q 0.024,-0.996 0.708,-1.548 Q 10.26,-6.36 11.46,-6.36 q 1.308,0 1.944,0.6 0.204,0.192 0.3,0.504 0.096,0.312 0.108,0.516 0.012,0.192 0.012,0.588 0,0.468 -0.024,1.392 -0.024,0.912 -0.024,1.368 0,0.336 0.084,0.48 0.096,0.132 0.336,0.132 0.096,0 0.252,-0.036 z m -1.644,-2.4 q -0.108,0.084 -0.228,0.144 -0.12,0.06 -0.312,0.096 -0.18,0.036 -0.252,0.06 -0.06,0.012 -0.312,0.048 -0.252,0.024 -0.264,0.024 -0.372,0.048 -0.492,0.072 -0.108,0.012 -0.432,0.096 -0.312,0.084 -0.444,0.192 -0.1319999,0.108 -0.2639999,0.324 -0.12,0.204 -0.12,0.492 0,0.48 0.3239999,0.756 0.336,0.276 0.912,0.276 0.732,0 1.308,-0.432 0.576,-0.432 0.576,-1.02 z"
           id="path997" />
        <path
           d="m 18.588,-6.336 v 1.056 q -0.108,-0.012 -0.264,-0.012 -0.492,0 -0.852,0.156 -0.36,0.144 -0.576,0.384 -0.204,0.24 -0.336,0.6 -0.132,0.36 -0.18,0.72 -0.036,0.36 -0.036,0.816 V 0 h -1.02 v -6.192 h 0.972 v 1.332 q 0.612,-1.476 2.292,-1.476 z"
           id="path999" />
        <path
           d="m 20.363999,-8.544 v 3.204 q 0.672,-1.02 2.052,-1.02 1.272,0 2.028,0.888 0.768,0.876 0.768,2.352 0,1.5 -0.78,2.4 -0.78,0.9 -2.076,0.9 -1.476,0 -2.052,-1.08 V 0 h -0.96 v -8.544 z m 1.896,3.048 q -0.984,0 -1.464,0.708 -0.468,0.708 -0.468,1.74 0,1.092 0.516,1.74 0.528,0.636 1.416,0.636 0.852,0 1.368,-0.66 0.528,-0.672 0.528,-1.776 0,-1.092 -0.516,-1.74 -0.516,-0.648 -1.38,-0.648 z"
           id="path1001" />
        <path
           d="m 27.623999,-8.544 v 1.248 h -1.032 v -1.248 z m 0,2.352 V 0 h -1.032 v -6.192 z"
           id="path1003" />
        <path
           d="m 34.439999,-1.956 q -0.468,2.16 -2.7,2.16 -1.368,0 -2.148,-0.852 -0.768,-0.852 -0.768,-2.364 0,-1.5 0.792,-2.424 0.804,-0.936 2.088,-0.936 1.428,0 2.112,0.972 0.696,0.96 0.696,2.436 v 0.144 h -4.656 l -0.012,0.072 q 0,0.984 0.516,1.548 0.516,0.564 1.416,0.564 0.672,0 1.056,-0.312 0.396,-0.312 0.612,-1.008 z m -0.984,-1.692 q -0.072,-0.888 -0.54,-1.38 -0.468,-0.504 -1.236,-0.504 -0.744,0 -1.236,0.504 -0.492,0.504 -0.588,1.38 z"
           id="path1005" />
      </g>
    </g>
    <g
       id="g204">
      <g
         aria-label="2010"
         transform="matrix(1,0,0,-1,254.7,645.789)"
         id="text208"
         style="font-size:12px;font-family:HelveticaNeueCyr;-inkscape-font-specification:HelveticaNeueCyr-Roman">
        <path
           d="M 5.844,-0.924 V 0 H 0.3 q 0.036,-0.708 0.216,-1.236 0.18,-0.528 0.552,-0.948 0.384,-0.432 0.744,-0.708 0.36,-0.276 1.02,-0.684 1.032,-0.648 1.356,-0.972 0.672,-0.66 0.672,-1.464 0,-0.708 -0.456,-1.152 -0.456,-0.456 -1.188,-0.456 -0.876,0 -1.26,0.612 -0.372,0.6 -0.396,1.524 H 0.528 v -0.228 q 0,-1.26 0.744,-2.028 0.756,-0.768 1.992,-0.768 1.212,0 1.932,0.672 0.72,0.672 0.72,1.8 0,0.48 -0.168,0.912 -0.156,0.42 -0.36,0.708 -0.192,0.288 -0.6,0.612 Q 4.392,-3.48 4.128,-3.3 3.864,-3.132 3.372,-2.832 2.388,-2.244 2.064,-1.92 1.608,-1.476 1.476,-0.924 Z"
           id="path986" />
        <path
           d="m 10.008,-8.508 q 0.768,0 1.308,0.288 0.552,0.276 0.84,0.684 0.288,0.408 0.456,1.068 0.168,0.648 0.204,1.176 0.036,0.516 0.036,1.248 0,0.672 -0.06,1.212 -0.048,0.54 -0.228,1.128 -0.168,0.588 -0.468,0.984 -0.3,0.384 -0.816,0.636 -0.516,0.252 -1.224,0.252 -0.744,0 -1.296,-0.252 Q 8.22,-0.348 7.92,-0.732 7.62,-1.116 7.44,-1.704 7.272,-2.304 7.224,-2.832 7.176,-3.372 7.176,-4.068 7.176,-4.668 7.2,-5.112 7.236,-5.556 7.32,-6.108 7.416,-6.672 7.608,-7.056 7.8,-7.452 8.1,-7.8 q 0.3,-0.348 0.78,-0.528 0.492,-0.18 1.128,-0.18 z m 0.66,1.056 q -0.288,-0.144 -0.66,-0.144 -0.372,0 -0.66,0.144 Q 9.06,-7.32 8.88,-7.14 8.7,-6.96 8.568,-6.6 q -0.132,0.348 -0.192,0.588 -0.048,0.24 -0.084,0.696 -0.036,0.444 -0.036,0.636 0,0.18 0,0.612 0,0.42 0.012,0.696 0.012,0.276 0.06,0.72 0.048,0.444 0.168,0.744 0.12,0.288 0.3,0.588 0.18,0.288 0.492,0.444 0.324,0.144 0.744,0.144 0.36,0 0.636,-0.132 0.288,-0.132 0.468,-0.312 0.18,-0.18 0.3,-0.504 0.132,-0.336 0.192,-0.576 0.06,-0.252 0.084,-0.66 0.036,-0.42 0.036,-0.612 0.012,-0.204 0.012,-0.588 0,-0.42 0,-0.6 0,-0.18 -0.036,-0.624 -0.036,-0.444 -0.096,-0.684 -0.048,-0.24 -0.18,-0.588 -0.132,-0.348 -0.312,-0.528 -0.18,-0.18 -0.468,-0.312 z"
           id="path988" />
        <path
           d="M 17.58,-8.496 V 0 h -1.116 v -6.156 h -2.136 v -0.768 q 1.032,0 1.632,-0.336 0.612,-0.336 0.816,-1.236 z"
           id="path990" />
        <path
           d="m 23.292,-8.508 q 0.768,0 1.308,0.288 0.552,0.276 0.84,0.684 0.288,0.408 0.456,1.068 0.168,0.648 0.204,1.176 0.036,0.516 0.036,1.248 0,0.672 -0.06,1.212 -0.048,0.54 -0.228,1.128 -0.168,0.588 -0.468,0.984 -0.3,0.384 -0.816,0.636 -0.516,0.252 -1.224,0.252 -0.744,0 -1.296,-0.252 -0.54,-0.264 -0.84,-0.648 -0.3,-0.384 -0.48,-0.972 -0.168,-0.6 -0.216,-1.128 -0.048,-0.54 -0.048,-1.236 0,-0.6 0.024,-1.044 0.036,-0.444 0.12,-0.996 0.096,-0.564 0.288,-0.948 0.192,-0.396 0.492,-0.744 0.3,-0.348 0.78,-0.528 0.492,-0.18 1.128,-0.18 z m 0.66,1.056 q -0.288,-0.144 -0.66,-0.144 -0.372,0 -0.66,0.144 -0.288,0.132 -0.468,0.312 -0.18,0.18 -0.312,0.54 -0.132,0.348 -0.192,0.588 -0.048,0.24 -0.084,0.696 -0.036,0.444 -0.036,0.636 0,0.18 0,0.612 0,0.42 0.012,0.696 0.012,0.276 0.06,0.72 0.048,0.444 0.168,0.744 0.12,0.288 0.3,0.588 0.18,0.288 0.492,0.444 0.324,0.144 0.744,0.144 0.36,0 0.636,-0.132 0.288,-0.132 0.468,-0.312 0.18,-0.18 0.3,-0.504 0.132,-0.336 0.192,-0.576 0.06,-0.252 0.084,-0.66 0.036,-0.42 0.036,-0.612 0.012,-0.204 0.012,-0.588 0,-0.42 0,-0.6 0,-0.18 -0.036,-0.624 -0.036,-0.444 -0.096,-0.684 -0.048,-0.24 -0.18,-0.588 Q 24.6,-6.96 24.42,-7.14 24.24,-7.32 23.952,-7.452 Z"
           id="path992" />
      </g>
    </g>
    <g
       id="g210">
      <g
         aria-label="7."
         transform="matrix(1,0,0,-1,76.2,625.389)"
         id="text214"
         style="font-size:12px;font-family:HelveticaNeueCyr;-inkscape-font-specification:HelveticaNeueCyr-Roman">
        <path
           d="m 6.048,-8.352 v 0.876 Q 3.264,-4.296 2.796,0 H 1.668 Q 1.812,-1.968 2.7,-3.9 3.6,-5.832 5.004,-7.38 H 0.552 v -0.972 z"
           id="path981" />
        <path
           d="M 9.012,-1.332 V 0 H 7.68 v -1.332 z"
           id="path983" />
      </g>
    </g>
    <g
       id="g216">
      <g
         aria-label="Daisy"
         transform="matrix(1,0,0,-1,106.6,625.389)"
         id="text220"
         style="font-size:12px;font-family:HelveticaNeueCyr;-inkscape-font-specification:HelveticaNeueCyr-Roman">
        <path
           d="m 0.948,-8.544 h 2.784 q 2.172,0 3.204,1.008 1.032,1.008 1.032,3.192 0,2.148 -0.96,3.252 Q 6.048,0 3.936,0 H 0.948 Z m 1.128,0.972 v 6.6 h 1.716 q 1.608,0 2.328,-0.78 0.732,-0.792 0.732,-2.46 0,-1.752 -0.708,-2.556 -0.708,-0.804 -2.4,-0.804 z"
           id="path970" />
        <path
           d="m 14.652,-0.816 v 0.792 q -0.312,0.12 -0.696,0.12 -0.876,0 -0.9,-0.912 -0.876,0.984 -2.244,0.984 -0.9120004,0 -1.4520004,-0.468 -0.528,-0.468 -0.528,-1.284 0,-1.656 2.1960004,-1.932 1.296,-0.156 1.5,-0.228 0.432,-0.144 0.468,-0.6 0.012,-0.072 0.012,-0.156 0,-1.02 -1.404,-1.02 -0.72,0 -1.092,0.3 -0.372,0.288 -0.444,0.96 H 9.0719996 q 0.024,-0.996 0.708,-1.548 Q 10.464,-6.36 11.664,-6.36 q 1.308,0 1.944,0.6 0.204,0.192 0.3,0.504 0.096,0.312 0.108,0.516 0.012,0.192 0.012,0.588 0,0.468 -0.024,1.392 -0.024,0.912 -0.024,1.368 0,0.336 0.084,0.48 0.096,0.132 0.336,0.132 0.096,0 0.252,-0.036 z m -1.644,-2.4 q -0.108,0.084 -0.228,0.144 -0.12,0.06 -0.312,0.096 -0.18,0.036 -0.252,0.06 -0.06,0.012 -0.312,0.048 -0.252,0.024 -0.264,0.024 -0.372,0.048 -0.492,0.072 -0.108,0.012 -0.432,0.096 -0.312,0.084 -0.444,0.192 -0.132,0.108 -0.264,0.324 -0.1200004,0.204 -0.1200004,0.492 0,0.48 0.3240004,0.756 0.336,0.276 0.912,0.276 0.732,0 1.308,-0.432 0.576,-0.432 0.576,-1.02 z"
           id="path972" />
        <path
           d="m 16.74,-8.544 v 1.248 h -1.032 v -1.248 z m 0,2.352 V 0 h -1.032 v -6.192 z"
           id="path974" />
        <path
           d="m 22.86,-4.392 h -1.02 q -0.096,-1.128 -1.512,-1.128 -0.588,0 -0.924,0.228 -0.336,0.228 -0.336,0.612 0,0.108 0.024,0.216 0.024,0.096 0.084,0.18 0.072,0.072 0.12,0.132 0.06,0.06 0.18,0.12 0.132,0.048 0.192,0.084 0.072,0.036 0.24,0.084 0.18,0.036 0.252,0.06 0.072,0.012 0.276,0.06 0.216,0.048 0.276,0.06 0.444,0.096 0.66,0.156 0.228,0.06 0.612,0.228 0.396,0.156 0.6,0.336 0.204,0.168 0.36,0.48 0.168,0.3 0.168,0.684 0,0.9 -0.708,1.452 -0.696,0.54 -1.86,0.54 -1.26,0 -1.944,-0.552 -0.672,-0.552 -0.72,-1.596 h 1.008 q 0.084,1.308 1.68,1.308 0.684,0 1.092,-0.276 0.42,-0.288 0.42,-0.756 0,-0.312 -0.216,-0.516 Q 21.648,-2.4 21.384,-2.484 21.12,-2.58 20.628,-2.7 20.556,-2.712 20.52,-2.724 20.412,-2.748 20.052,-2.82 19.704,-2.904 19.548,-2.952 19.392,-3 19.092,-3.096 18.804,-3.204 18.66,-3.312 18.516,-3.432 18.336,-3.6 q -0.168,-0.18 -0.24,-0.408 -0.072,-0.24 -0.072,-0.54 0,-0.84 0.636,-1.332 0.648,-0.492 1.728,-0.492 1.092,0 1.776,0.516 0.696,0.516 0.696,1.464 z"
           id="path976" />
        <path
           d="m 29.388,-6.192 -2.652,6.984 q -0.156,0.42 -0.276,0.648 -0.108,0.24 -0.324,0.516 -0.204,0.288 -0.504,0.408 -0.288,0.132 -0.684,0.132 -0.3,0 -0.756,-0.108 V 1.476 q 0.444,0.132 0.66,0.132 0.504,0 0.72,-0.516 l 0.48,-1.128 -2.46,-6.156 h 1.152 l 1.836,4.932 1.74,-4.932 z"
           id="path978" />
      </g>
    </g>
    <g
       id="g222">
      <g
         aria-label="2010"
         transform="matrix(1,0,0,-1,254.7,625.389)"
         id="text226"
         style="font-size:12px;font-family:HelveticaNeueCyr;-inkscape-font-specification:HelveticaNeueCyr-Roman">
        <path
           d="M 5.844,-0.924 V 0 H 0.3 q 0.036,-0.708 0.216,-1.236 0.18,-0.528 0.552,-0.948 0.384,-0.432 0.744,-0.708 0.36,-0.276 1.02,-0.684 1.032,-0.648 1.356,-0.972 0.672,-0.66 0.672,-1.464 0,-0.708 -0.456,-1.152 -0.456,-0.456 -1.188,-0.456 -0.876,0 -1.26,0.612 -0.372,0.6 -0.396,1.524 H 0.528 v -0.228 q 0,-1.26 0.744,-2.028 0.756,-0.768 1.992,-0.768 1.212,0 1.932,0.672 0.72,0.672 0.72,1.8 0,0.48 -0.168,0.912 -0.156,0.42 -0.36,0.708 -0.192,0.288 -0.6,0.612 Q 4.392,-3.48 4.128,-3.3 3.864,-3.132 3.372,-2.832 2.388,-2.244 2.064,-1.92 1.608,-1.476 1.476,-0.924 Z"
           id="path961" />
        <path
           d="m 10.008,-8.508 q 0.768,0 1.308,0.288 0.552,0.276 0.84,0.684 0.288,0.408 0.456,1.068 0.168,0.648 0.204,1.176 0.036,0.516 0.036,1.248 0,0.672 -0.06,1.212 -0.048,0.54 -0.228,1.128 -0.168,0.588 -0.468,0.984 -0.3,0.384 -0.816,0.636 -0.516,0.252 -1.224,0.252 -0.744,0 -1.296,-0.252 Q 8.22,-0.348 7.92,-0.732 7.62,-1.116 7.44,-1.704 7.272,-2.304 7.224,-2.832 7.176,-3.372 7.176,-4.068 7.176,-4.668 7.2,-5.112 7.236,-5.556 7.32,-6.108 7.416,-6.672 7.608,-7.056 7.8,-7.452 8.1,-7.8 q 0.3,-0.348 0.78,-0.528 0.492,-0.18 1.128,-0.18 z m 0.66,1.056 q -0.288,-0.144 -0.66,-0.144 -0.372,0 -0.66,0.144 Q 9.06,-7.32 8.88,-7.14 8.7,-6.96 8.568,-6.6 q -0.132,0.348 -0.192,0.588 -0.048,0.24 -0.084,0.696 -0.036,0.444 -0.036,0.636 0,0.18 0,0.612 0,0.42 0.012,0.696 0.012,0.276 0.06,0.72 0.048,0.444 0.168,0.744 0.12,0.288 0.3,0.588 0.18,0.288 0.492,0.444 0.324,0.144 0.744,0.144 0.36,0 0.636,-0.132 0.288,-0.132 0.468,-0.312 0.18,-0.18 0.3,-0.504 0.132,-0.336 0.192,-0.576 0.06,-0.252 0.084,-0.66 0.036,-0.42 0.036,-0.612 0.012,-0.204 0.012,-0.588 0,-0.42 0,-0.6 0,-0.18 -0.036,-0.624 -0.036,-0.444 -0.096,-0.684 -0.048,-0.24 -0.18,-0.588 -0.132,-0.348 -0.312,-0.528 -0.18,-0.18 -0.468,-0.312 z"
           id="path963" />
        <path
           d="M 17.58,-8.496 V 0 h -1.116 v -6.156 h -2.136 v -0.768 q 1.032,0 1.632,-0.336 0.612,-0.336 0.816,-1.236 z"
           id="path965" />
        <path
           d="m 23.292,-8.508 q 0.768,0 1.308,0.288 0.552,0.276 0.84,0.684 0.288,0.408 0.456,1.068 0.168,0.648 0.204,1.176 0.036,0.516 0.036,1.248 0,0.672 -0.06,1.212 -0.048,0.54 -0.228,1.128 -0.168,0.588 -0.468,0.984 -0.3,0.384 -0.816,0.636 -0.516,0.252 -1.224,0.252 -0.744,0 -1.296,-0.252 -0.54,-0.264 -0.84,-0.648 -0.3,-0.384 -0.48,-0.972 -0.168,-0.6 -0.216,-1.128 -0.048,-0.54 -0.048,-1.236 0,-0.6 0.024,-1.044 0.036,-0.444 0.12,-0.996 0.096,-0.564 0.288,-0.948 0.192,-0.396 0.492,-0.744 0.3,-0.348 0.78,-0.528 0.492,-0.18 1.128,-0.18 z m 0.66,1.056 q -0.288,-0.144 -0.66,-0.144 -0.372,0 -0.66,0.144 -0.288,0.132 -0.468,0.312 -0.18,0.18 -0.312,0.54 -0.132,0.348 -0.192,0.588 -0.048,0.24 -0.084,0.696 -0.036,0.444 -0.036,0.636 0,0.18 0,0.612 0,0.42 0.012,0.696 0.012,0.276 0.06,0.72 0.048,0.444 0.168,0.744 0.12,0.288 0.3,0.588 0.18,0.288 0.492,0.444 0.324,0.144 0.744,0.144 0.36,0 0.636,-0.132 0.288,-0.132 0.468,-0.312 0.18,-0.18 0.3,-0.504 0.132,-0.336 0.192,-0.576 0.06,-0.252 0.084,-0.66 0.036,-0.42 0.036,-0.612 0.012,-0.204 0.012,-0.588 0,-0.42 0,-0.6 0,-0.18 -0.036,-0.624 -0.036,-0.444 -0.096,-0.684 -0.048,-0.24 -0.18,-0.588 Q 24.6,-6.96 24.42,-7.14 24.24,-7.32 23.952,-7.452 Z"
           id="path967" />
      </g>
    </g>
    <g
       id="g228">
      <g
         aria-label="8."
         transform="matrix(1,0,0,-1,76.2,604.889)"
         id="text232"
         style="font-size:12px;font-family:HelveticaNeueCyr;-inkscape-font-specification:HelveticaNeueCyr-Roman">
        <path
           d="m 1.98,-4.548 q -0.564,-0.24 -0.876,-0.696 -0.3,-0.468 -0.3,-1.092 0,-0.96 0.708,-1.56 0.708,-0.612 1.824,-0.612 1.104,0 1.8,0.6 0.708,0.588 0.708,1.524 0,1.296 -1.164,1.836 1.5,0.528 1.5,2.076 0,1.212 -0.78,1.932 Q 4.62,0.168 3.3,0.168 2.028,0.168 1.248,-0.528 0.48,-1.236 0.48,-2.4 0.48,-3.168 0.864,-3.72 1.26,-4.284 1.98,-4.548 Z m 2.424,-2.688 q -0.396,-0.36 -1.068,-0.36 -0.672,0 -1.08,0.372 -0.408,0.36 -0.408,0.96 0,0.6 0.408,0.972 0.408,0.36 1.08,0.36 0.66,0 1.056,-0.36 Q 4.8,-5.664 4.8,-6.264 4.8,-6.876 4.404,-7.236 Z M 3.3,-4.104 q -0.768,0 -1.26,0.48 -0.492,0.468 -0.492,1.2 0,0.756 0.492,1.248 0.504,0.48 1.284,0.48 0.792,0 1.284,-0.48 0.504,-0.48 0.504,-1.236 0,-0.756 -0.504,-1.224 Q 4.104,-4.104 3.3,-4.104 Z"
           id="path956" />
        <path
           d="M 9.012,-1.332 V 0 H 7.68 v -1.332 z"
           id="path958" />
      </g>
    </g>
    <g
       id="g234">
      <g
         aria-label="Forky"
         transform="matrix(1,0,0,-1,106.6,604.889)"
         id="text238"
         style="font-size:12px;font-family:HelveticaNeueCyr;-inkscape-font-specification:HelveticaNeueCyr-Roman">
        <path
           d="M 6.576,-8.544 V -7.56 H 2.088 v 2.664 h 3.96 v 0.948 H 2.088 V 0 H 0.96 v -8.544 z"
           id="path945" />
        <path
           d="m 8.148,-5.484 q 0.816,-0.888 2.22,-0.888 1.404,0 2.184,0.852 0.78,0.852 0.78,2.388 0,1.572 -0.78,2.448 -0.78,0.876 -2.196,0.876 -1.416,0 -2.22,-0.864 -0.804,-0.864 -0.804,-2.4 0,-1.524 0.816,-2.412 z m 3.612,0.624 q -0.516,-0.66 -1.416,-0.66 -0.9,0 -1.428,0.66 -0.528,0.66 -0.528,1.764 0,1.14 0.516,1.788 0.528,0.636 1.464,0.636 0.9,0 1.404,-0.648 0.516,-0.648 0.516,-1.788 0,-1.104 -0.528,-1.752 z"
           id="path947" />
        <path
           d="m 17.772,-6.336 v 1.056 q -0.108,-0.012 -0.264,-0.012 -0.492,0 -0.852,0.156 -0.36,0.144 -0.576,0.384 -0.204,0.24 -0.336,0.6 -0.132,0.36 -0.18,0.72 -0.036,0.36 -0.036,0.816 V 0 h -1.02 v -6.192 h 0.972 v 1.332 q 0.612,-1.476 2.292,-1.476 z"
           id="path949" />
        <path
           d="m 23.747999,-6.192 -2.46,2.244 2.64,3.948 h -1.296 l -2.124,-3.24 -0.972,0.9 V 0 h -0.996 v -8.544 h 0.996 v 5.052 l 2.844,-2.7 z"
           id="path951" />
        <path
           d="m 29.868,-6.192 -2.652,6.984 q -0.156,0.42 -0.276,0.648 -0.108,0.24 -0.324,0.516 -0.204,0.288 -0.504,0.408 -0.288,0.132 -0.684,0.132 -0.3,0 -0.756,-0.108 V 1.476 q 0.444,0.132 0.66,0.132 0.504,0 0.72,-0.516 l 0.48,-1.128 -2.46,-6.156 h 1.152 l 1.836,4.932 1.74,-4.932 z"
           id="path953" />
      </g>
    </g>
    <g
       id="g240">
      <g
         aria-label="2019"
         transform="matrix(1,0,0,-1,254.7,604.889)"
         id="text244"
         style="font-size:12px;font-family:HelveticaNeueCyr;-inkscape-font-specification:HelveticaNeueCyr-Roman">
        <path
           d="M 5.844,-0.924 V 0 H 0.3 q 0.036,-0.708 0.216,-1.236 0.18,-0.528 0.552,-0.948 0.384,-0.432 0.744,-0.708 0.36,-0.276 1.02,-0.684 1.032,-0.648 1.356,-0.972 0.672,-0.66 0.672,-1.464 0,-0.708 -0.456,-1.152 -0.456,-0.456 -1.188,-0.456 -0.876,0 -1.26,0.612 -0.372,0.6 -0.396,1.524 H 0.528 v -0.228 q 0,-1.26 0.744,-2.028 0.756,-0.768 1.992,-0.768 1.212,0 1.932,0.672 0.72,0.672 0.72,1.8 0,0.48 -0.168,0.912 -0.156,0.42 -0.36,0.708 -0.192,0.288 -0.6,0.612 Q 4.392,-3.48 4.128,-3.3 3.864,-3.132 3.372,-2.832 2.388,-2.244 2.064,-1.92 1.608,-1.476 1.476,-0.924 Z"
           id="path936" />
        <path
           d="m 10.008,-8.508 q 0.768,0 1.308,0.288 0.552,0.276 0.84,0.684 0.288,0.408 0.456,1.068 0.168,0.648 0.204,1.176 0.036,0.516 0.036,1.248 0,0.672 -0.06,1.212 -0.048,0.54 -0.228,1.128 -0.168,0.588 -0.468,0.984 -0.3,0.384 -0.816,0.636 -0.516,0.252 -1.224,0.252 -0.744,0 -1.296,-0.252 Q 8.22,-0.348 7.92,-0.732 7.62,-1.116 7.44,-1.704 7.272,-2.304 7.224,-2.832 7.176,-3.372 7.176,-4.068 7.176,-4.668 7.2,-5.112 7.236,-5.556 7.32,-6.108 7.416,-6.672 7.608,-7.056 7.8,-7.452 8.1,-7.8 q 0.3,-0.348 0.78,-0.528 0.492,-0.18 1.128,-0.18 z m 0.66,1.056 q -0.288,-0.144 -0.66,-0.144 -0.372,0 -0.66,0.144 Q 9.06,-7.32 8.88,-7.14 8.7,-6.96 8.568,-6.6 q -0.132,0.348 -0.192,0.588 -0.048,0.24 -0.084,0.696 -0.036,0.444 -0.036,0.636 0,0.18 0,0.612 0,0.42 0.012,0.696 0.012,0.276 0.06,0.72 0.048,0.444 0.168,0.744 0.12,0.288 0.3,0.588 0.18,0.288 0.492,0.444 0.324,0.144 0.744,0.144 0.36,0 0.636,-0.132 0.288,-0.132 0.468,-0.312 0.18,-0.18 0.3,-0.504 0.132,-0.336 0.192,-0.576 0.06,-0.252 0.084,-0.66 0.036,-0.42 0.036,-0.612 0.012,-0.204 0.012,-0.588 0,-0.42 0,-0.6 0,-0.18 -0.036,-0.624 -0.036,-0.444 -0.096,-0.684 -0.048,-0.24 -0.18,-0.588 -0.132,-0.348 -0.312,-0.528 -0.18,-0.18 -0.468,-0.312 z"
           id="path938" />
        <path
           d="M 17.58,-8.496 V 0 h -1.116 v -6.156 h -2.136 v -0.768 q 1.032,0 1.632,-0.336 0.612,-0.336 0.816,-1.236 z"
           id="path940" />
        <path
           d="m 20.568,-2.052 h 1.008 q 0.084,0.624 0.492,0.984 0.42,0.348 1.068,0.348 1.668,0 1.896,-2.772 0.024,-0.252 0.024,-0.564 -0.72,1.164 -2.076,1.164 -1.164,0 -1.884,-0.756 -0.72,-0.768 -0.72,-2.004 0,-1.272 0.78,-2.064 0.78,-0.792 2.028,-0.792 2.928,0 2.928,4.152 0,0.636 -0.084,1.224 -0.072,0.576 -0.276,1.2 -0.204,0.612 -0.528,1.068 -0.324,0.456 -0.876,0.744 -0.54,0.288 -1.248,0.288 -1.08,0 -1.776,-0.588 -0.684,-0.588 -0.756,-1.632 z m 2.568,-5.544 q -0.756,0 -1.224,0.528 -0.456,0.516 -0.456,1.38 0,0.816 0.432,1.356 0.444,0.528 1.248,0.528 0.78,0 1.26,-0.504 0.48,-0.516 0.48,-1.356 0,-0.876 -0.48,-1.404 -0.48,-0.528 -1.26,-0.528 z"
           id="path942" />
      </g>
    </g>
    <g
       id="g246">
      <g
         aria-label="9."
         transform="matrix(1,0,0,-1,76.2,584.489)"
         id="text250"
         style="font-size:12px;font-family:HelveticaNeueCyr;-inkscape-font-specification:HelveticaNeueCyr-Roman">
        <path
           d="m 0.6,-2.052 h 1.008 q 0.084,0.624 0.492,0.984 0.42,0.348 1.068,0.348 1.668,0 1.896,-2.772 0.024,-0.252 0.024,-0.564 -0.72,1.164 -2.076,1.164 -1.164,0 -1.884,-0.756 -0.72,-0.768 -0.72,-2.004 0,-1.272 0.78,-2.064 0.78,-0.792 2.028,-0.792 2.928,0 2.928,4.152 0,0.636 -0.084,1.224 -0.072,0.576 -0.276,1.2 Q 5.58,-1.32 5.256,-0.864 4.932,-0.408 4.38,-0.12 3.84,0.168 3.132,0.168 2.052,0.168 1.356,-0.42 0.672,-1.008 0.6,-2.052 Z m 2.568,-5.544 q -0.756,0 -1.224,0.528 -0.456,0.516 -0.456,1.38 0,0.816 0.432,1.356 0.444,0.528 1.248,0.528 0.78,0 1.26,-0.504 0.48,-0.516 0.48,-1.356 0,-0.876 -0.48,-1.404 -0.48,-0.528 -1.26,-0.528 z"
           id="path931" />
        <path
           d="M 9.012,-1.332 V 0 H 7.68 v -1.332 z"
           id="path933" />
      </g>
    </g>
    <g
       id="g252">
      <g
         aria-label="Dragon"
         transform="matrix(1,0,0,-1,106.6,584.489)"
         id="text256"
         style="font-size:12px;font-family:HelveticaNeueCyr;-inkscape-font-specification:HelveticaNeueCyr-Roman">
        <path
           d="m 0.948,-8.544 h 2.784 q 2.172,0 3.204,1.008 1.032,1.008 1.032,3.192 0,2.148 -0.96,3.252 Q 6.048,0 3.936,0 H 0.948 Z m 1.128,0.972 v 6.6 h 1.716 q 1.608,0 2.328,-0.78 0.732,-0.792 0.732,-2.46 0,-1.752 -0.708,-2.556 -0.708,-0.804 -2.4,-0.804 z"
           id="path918" />
        <path
           d="m 12.396,-6.336 v 1.056 q -0.108,-0.012 -0.264,-0.012 -0.492,0 -0.852,0.156 -0.36,0.144 -0.576,0.384 -0.204,0.24 -0.336,0.6 -0.132,0.36 -0.18,0.72 -0.036,0.36 -0.036,0.816 V 0 H 9.1319996 V -6.192 H 10.104 v 1.332 q 0.612,-1.476 2.292,-1.476 z"
           id="path920" />
        <path
           d="m 18.648,-0.816 v 0.792 q -0.312,0.12 -0.696,0.12 -0.876,0 -0.9,-0.912 -0.876,0.984 -2.244,0.984 -0.912,0 -1.452,-0.468 -0.528,-0.468 -0.528,-1.284 0,-1.656 2.196,-1.932 1.296,-0.156 1.5,-0.228 0.432,-0.144 0.468,-0.6 0.012,-0.072 0.012,-0.156 0,-1.02 -1.404,-1.02 -0.72,0 -1.092,0.3 -0.372,0.288 -0.444,0.96 h -0.996 q 0.024,-0.996 0.708,-1.548 0.684,-0.552 1.884,-0.552 1.308,0 1.944,0.6 0.204,0.192 0.3,0.504 0.096,0.312 0.108,0.516 0.012,0.192 0.012,0.588 0,0.468 -0.024,1.392 -0.024,0.912 -0.024,1.368 0,0.336 0.084,0.48 0.096,0.132 0.336,0.132 0.096,0 0.252,-0.036 z m -1.644,-2.4 q -0.108,0.084 -0.228,0.144 -0.12,0.06 -0.312,0.096 -0.18,0.036 -0.252,0.06 -0.06,0.012 -0.312,0.048 -0.252,0.024 -0.264,0.024 -0.372,0.048 -0.492,0.072 -0.108,0.012 -0.432,0.096 -0.312,0.084 -0.444,0.192 -0.132,0.108 -0.264,0.324 -0.12,0.204 -0.12,0.492 0,0.48 0.324,0.756 0.336,0.276 0.912,0.276 0.732,0 1.308,-0.432 0.576,-0.432 0.576,-1.02 z"
           id="path922" />
        <path
           d="m 25.02,-6.192 v 5.52 q 0,0.804 -0.084,1.236 -0.084,0.444 -0.312,0.828 -0.684,1.128 -2.448,1.128 -1.044,0 -1.764,-0.432 -0.72,-0.42 -0.84,-1.392 h 1.044 q 0.18,1.032 1.596,1.032 0.948,0 1.368,-0.48 0.432,-0.48 0.456,-1.548 l 0.012,-0.756 q -0.588,1.128 -1.968,1.128 -1.248,0 -1.992,-0.852 -0.732,-0.852 -0.732,-2.292 0,-1.356 0.732,-2.316 0.732,-0.972 2.04,-0.972 0.648,0 1.152,0.276 0.516,0.276 0.804,0.792 v -0.9 z m -2.844,0.72 q -0.828,0 -1.308,0.648 -0.468,0.636 -0.468,1.764 0,1.02 0.492,1.644 0.492,0.612 1.308,0.612 0.852,0 1.332,-0.648 0.492,-0.648 0.492,-1.776 0,-1.056 -0.492,-1.644 -0.48,-0.6 -1.356,-0.6 z"
           id="path924" />
        <path
           d="m 27.035999,-5.484 q 0.816,-0.888 2.22,-0.888 1.404,0 2.184,0.852 0.78,0.852 0.78,2.388 0,1.572 -0.78,2.448 -0.78,0.876 -2.196,0.876 -1.416,0 -2.22,-0.864 -0.804,-0.864 -0.804,-2.4 0,-1.524 0.816,-2.412 z m 3.612,0.624 q -0.516,-0.66 -1.416,-0.66 -0.9,0 -1.428,0.66 -0.528,0.66 -0.528,1.764 0,1.14 0.516,1.788 0.528,0.636 1.464,0.636 0.9,0 1.404,-0.648 0.516,-0.648 0.516,-1.788 0,-1.104 -0.528,-1.752 z"
           id="path926" />
        <path
           d="m 34.392001,-6.192 v 0.96 q 0.768,-1.128 2.112,-1.128 1.092,0 1.572,0.576 0.492,0.564 0.492,1.668 V 0 h -1.02 v -3.648 q 0,-0.456 -0.036,-0.708 -0.024,-0.264 -0.144,-0.552 -0.12,-0.3 -0.408,-0.432 -0.288,-0.132 -0.744,-0.132 -1.764,0 -1.764,2.232 V 0 h -1.02 v -6.192 z"
           id="path928" />
      </g>
    </g>
    <g
       id="g258">
      <g
         aria-label="2019"
         transform="matrix(1,0,0,-1,254.7,584.489)"
         id="text262"
         style="font-size:12px;font-family:HelveticaNeueCyr;-inkscape-font-specification:HelveticaNeueCyr-Roman">
        <path
           d="M 5.844,-0.924 V 0 H 0.3 q 0.036,-0.708 0.216,-1.236 0.18,-0.528 0.552,-0.948 0.384,-0.432 0.744,-0.708 0.36,-0.276 1.02,-0.684 1.032,-0.648 1.356,-0.972 0.672,-0.66 0.672,-1.464 0,-0.708 -0.456,-1.152 -0.456,-0.456 -1.188,-0.456 -0.876,0 -1.26,0.612 -0.372,0.6 -0.396,1.524 H 0.528 v -0.228 q 0,-1.26 0.744,-2.028 0.756,-0.768 1.992,-0.768 1.212,0 1.932,0.672 0.72,0.672 0.72,1.8 0,0.48 -0.168,0.912 -0.156,0.42 -0.36,0.708 -0.192,0.288 -0.6,0.612 Q 4.392,-3.48 4.128,-3.3 3.864,-3.132 3.372,-2.832 2.388,-2.244 2.064,-1.92 1.608,-1.476 1.476,-0.924 Z"
           id="path909" />
        <path
           d="m 10.008,-8.508 q 0.768,0 1.308,0.288 0.552,0.276 0.84,0.684 0.288,0.408 0.456,1.068 0.168,0.648 0.204,1.176 0.036,0.516 0.036,1.248 0,0.672 -0.06,1.212 -0.048,0.54 -0.228,1.128 -0.168,0.588 -0.468,0.984 -0.3,0.384 -0.816,0.636 -0.516,0.252 -1.224,0.252 -0.744,0 -1.296,-0.252 Q 8.22,-0.348 7.92,-0.732 7.62,-1.116 7.44,-1.704 7.272,-2.304 7.224,-2.832 7.176,-3.372 7.176,-4.068 7.176,-4.668 7.2,-5.112 7.236,-5.556 7.32,-6.108 7.416,-6.672 7.608,-7.056 7.8,-7.452 8.1,-7.8 q 0.3,-0.348 0.78,-0.528 0.492,-0.18 1.128,-0.18 z m 0.66,1.056 q -0.288,-0.144 -0.66,-0.144 -0.372,0 -0.66,0.144 Q 9.06,-7.32 8.88,-7.14 8.7,-6.96 8.568,-6.6 q -0.132,0.348 -0.192,0.588 -0.048,0.24 -0.084,0.696 -0.036,0.444 -0.036,0.636 0,0.18 0,0.612 0,0.42 0.012,0.696 0.012,0.276 0.06,0.72 0.048,0.444 0.168,0.744 0.12,0.288 0.3,0.588 0.18,0.288 0.492,0.444 0.324,0.144 0.744,0.144 0.36,0 0.636,-0.132 0.288,-0.132 0.468,-0.312 0.18,-0.18 0.3,-0.504 0.132,-0.336 0.192,-0.576 0.06,-0.252 0.084,-0.66 0.036,-0.42 0.036,-0.612 0.012,-0.204 0.012,-0.588 0,-0.42 0,-0.6 0,-0.18 -0.036,-0.624 -0.036,-0.444 -0.096,-0.684 -0.048,-0.24 -0.18,-0.588 -0.132,-0.348 -0.312,-0.528 -0.18,-0.18 -0.468,-0.312 z"
           id="path911" />
        <path
           d="M 17.58,-8.496 V 0 h -1.116 v -6.156 h -2.136 v -0.768 q 1.032,0 1.632,-0.336 0.612,-0.336 0.816,-1.236 z"
           id="path913" />
        <path
           d="m 20.568,-2.052 h 1.008 q 0.084,0.624 0.492,0.984 0.42,0.348 1.068,0.348 1.668,0 1.896,-2.772 0.024,-0.252 0.024,-0.564 -0.72,1.164 -2.076,1.164 -1.164,0 -1.884,-0.756 -0.72,-0.768 -0.72,-2.004 0,-1.272 0.78,-2.064 0.78,-0.792 2.028,-0.792 2.928,0 2.928,4.152 0,0.636 -0.084,1.224 -0.072,0.576 -0.276,1.2 -0.204,0.612 -0.528,1.068 -0.324,0.456 -0.876,0.744 -0.54,0.288 -1.248,0.288 -1.08,0 -1.776,-0.588 -0.684,-0.588 -0.756,-1.632 z m 2.568,-5.544 q -0.756,0 -1.224,0.528 -0.456,0.516 -0.456,1.38 0,0.816 0.432,1.356 0.444,0.528 1.248,0.528 0.78,0 1.26,-0.504 0.48,-0.516 0.48,-1.356 0,-0.876 -0.48,-1.404 -0.48,-0.528 -1.26,-0.528 z"
           id="path915" />
      </g>
    </g>
    <g
       id="g264">
      <g
         aria-label="10."
         transform="matrix(1,0,0,-1,76.2,563.989)"
         id="text268"
         style="font-size:12px;font-family:HelveticaNeueCyr;-inkscape-font-specification:HelveticaNeueCyr-Roman">
        <path
           d="M 4.296,-8.496 V 0 H 3.18 V -6.156 H 1.044 v -0.768 q 1.032,0 1.632,-0.336 0.612,-0.336 0.816,-1.236 z"
           id="path902" />
        <path
           d="m 10.008,-8.508 q 0.768,0 1.308,0.288 0.552,0.276 0.84,0.684 0.288,0.408 0.456,1.068 0.168,0.648 0.204,1.176 0.036,0.516 0.036,1.248 0,0.672 -0.06,1.212 -0.048,0.54 -0.228,1.128 -0.168,0.588 -0.468,0.984 -0.3,0.384 -0.816,0.636 -0.516,0.252 -1.224,0.252 -0.744,0 -1.296,-0.252 Q 8.22,-0.348 7.92,-0.732 7.62,-1.116 7.44,-1.704 7.272,-2.304 7.224,-2.832 7.176,-3.372 7.176,-4.068 7.176,-4.668 7.2,-5.112 7.236,-5.556 7.32,-6.108 7.416,-6.672 7.608,-7.056 7.8,-7.452 8.1,-7.8 q 0.3,-0.348 0.78,-0.528 0.492,-0.18 1.128,-0.18 z m 0.66,1.056 q -0.288,-0.144 -0.66,-0.144 -0.372,0 -0.66,0.144 Q 9.06,-7.32 8.88,-7.14 8.7,-6.96 8.568,-6.6 q -0.132,0.348 -0.192,0.588 -0.048,0.24 -0.084,0.696 -0.036,0.444 -0.036,0.636 0,0.18 0,0.612 0,0.42 0.012,0.696 0.012,0.276 0.06,0.72 0.048,0.444 0.168,0.744 0.12,0.288 0.3,0.588 0.18,0.288 0.492,0.444 0.324,0.144 0.744,0.144 0.36,0 0.636,-0.132 0.288,-0.132 0.468,-0.312 0.18,-0.18 0.3,-0.504 0.132,-0.336 0.192,-0.576 0.06,-0.252 0.084,-0.66 0.036,-0.42 0.036,-0.612 0.012,-0.204 0.012,-0.588 0,-0.42 0,-0.6 0,-0.18 -0.036,-0.624 -0.036,-0.444 -0.096,-0.684 -0.048,-0.24 -0.18,-0.588 -0.132,-0.348 -0.312,-0.528 -0.18,-0.18 -0.468,-0.312 z"
           id="path904" />
        <path
           d="M 15.612,-1.332 V 0 H 14.28 v -1.332 z"
           id="path906" />
      </g>
    </g>
    <g
       id="g270">
      <g
         aria-label="The Dummies"
         transform="matrix(1,0,0,-1,106.6,563.989)"
         id="text274"
         style="font-size:12px;font-family:HelveticaNeueCyr;-inkscape-font-specification:HelveticaNeueCyr-Roman">
        <path
           d="M 6.876,-8.544 V -7.56 H 4.008 V 0 H 2.88 V -7.56 H 0.012 v -0.984 z"
           id="path881" />
        <path
           d="m 8.676,-8.544 v 3.228 q 0.684,-1.032 2.028,-1.032 2.088,0 2.088,2.112 V 0 h -1.02 v -3.996 q 0,-0.708 -0.3,-1.08 -0.288,-0.384 -1.056,-0.384 -0.936,0 -1.344,0.6 -0.396,0.6 -0.396,1.716 V 0 h -1.02 v -8.544 z"
           id="path883" />
        <path
           d="m 19.548,-1.956 q -0.468,2.16 -2.7,2.16 -1.368,0 -2.148,-0.852 -0.768,-0.852 -0.768,-2.364 0,-1.5 0.792,-2.424 0.804,-0.936 2.088,-0.936 1.428,0 2.112,0.972 0.696,0.96 0.696,2.436 v 0.144 h -4.656 l -0.012,0.072 q 0,0.984 0.516,1.548 0.516,0.564 1.416,0.564 0.672,0 1.056,-0.312 0.396,-0.312 0.612,-1.008 z m -0.984,-1.692 q -0.072,-0.888 -0.54,-1.38 -0.468,-0.504 -1.236,-0.504 -0.744,0 -1.236,0.504 -0.492,0.504 -0.588,1.38 z"
           id="path885" />
        <path
           d="m 24.228001,-8.544 h 2.784 q 2.172,0 3.204,1.008 1.032,1.008 1.032,3.192 0,2.148 -0.96,3.252 -0.96,1.092 -3.072,1.092 h -2.988 z m 1.128,0.972 v 6.6 h 1.716 q 1.608,0 2.328,-0.78 0.732,-0.792 0.732,-2.46 0,-1.752 -0.708,-2.556 -0.708,-0.804 -2.4,-0.804 z"
           id="path887" />
        <path
           d="M 37.668,-6.192 V 0 H 36.72 v -0.972 q -0.792,1.14 -2.136,1.14 -0.984,0 -1.524,-0.54 -0.54,-0.54 -0.54,-1.56 v -4.26 h 1.02 v 3.984 q 0,0.732 0.276,1.116 0.288,0.372 1.02,0.372 1.812,0 1.812,-2.232 v -3.24 z"
           id="path889" />
        <path
           d="m 40.091998,-6.192 v 0.9 q 0.408,-0.552 0.876,-0.804 0.468,-0.252 1.14,-0.252 1.272,0 1.716,1.068 0.804,-1.08 2.052,-1.08 0.96,0 1.452,0.54 0.504,0.528 0.504,1.488 V 0 h -1.02 v -3.9 q 0,-0.768 -0.24,-1.152 -0.24,-0.396 -0.996,-0.396 -1.584,0 -1.584,1.932 V 0 h -1.02 v -3.972 q 0,-0.708 -0.24,-1.08 -0.228,-0.384 -0.9,-0.384 -0.948,0 -1.32,0.588 -0.36,0.576 -0.36,1.572 V 0 h -1.02 v -6.192 z"
           id="path891" />
        <path
           d="m 50.375999,-6.192 v 0.9 q 0.408,-0.552 0.876,-0.804 0.468,-0.252 1.14,-0.252 1.272,0 1.716,1.068 0.804,-1.08 2.052,-1.08 0.96,0 1.452,0.54 0.504,0.528 0.504,1.488 V 0 h -1.02 v -3.9 q 0,-0.768 -0.24,-1.152 -0.24,-0.396 -0.996,-0.396 -1.584,0 -1.584,1.932 V 0 h -1.02 v -3.972 q 0,-0.708 -0.24,-1.08 -0.228,-0.384 -0.9,-0.384 -0.948,0 -1.32,0.588 -0.36,0.576 -0.36,1.572 V 0 h -1.02 v -6.192 z"
           id="path893" />
        <path
           d="m 60.696,-8.544 v 1.248 h -1.032 v -1.248 z m 0,2.352 V 0 h -1.032 v -6.192 z"
           id="path895" />
        <path
           d="m 67.595999,-1.956 q -0.468,2.16 -2.7,2.16 -1.368,0 -2.148,-0.852 -0.768,-0.852 -0.768,-2.364 0,-1.5 0.792,-2.424 0.804,-0.936 2.088,-0.936 1.428,0 2.112,0.972 0.696,0.96 0.696,2.436 v 0.144 h -4.656 l -0.012,0.072 q 0,0.984 0.516,1.548 0.516,0.564 1.416,0.564 0.672,0 1.056,-0.312 0.396,-0.312 0.612,-1.008 z m -0.984,-1.692 q -0.072,-0.888 -0.54,-1.38 -0.468,-0.504 -1.236,-0.504 -0.744,0 -1.236,0.504 -0.492,0.504 -0.588,1.38 z"
           id="path897" />
        <path
           d="m 73.295999,-4.392 h -1.02 q -0.096,-1.128 -1.512,-1.128 -0.588,0 -0.924,0.228 -0.336,0.228 -0.336,0.612 0,0.108 0.024,0.216 0.024,0.096 0.084,0.18 0.072,0.072 0.12,0.132 0.06,0.06 0.18,0.12 0.132,0.048 0.192,0.084 0.072,0.036 0.24,0.084 0.18,0.036 0.252,0.06 0.072,0.012 0.276,0.06 0.216,0.048 0.276,0.06 0.444,0.096 0.66,0.156 0.228,0.06 0.612,0.228 0.396,0.156 0.6,0.336 0.204,0.168 0.36,0.48 0.168,0.3 0.168,0.684 0,0.9 -0.708,1.452 -0.696,0.54 -1.86,0.54 -1.26,0 -1.944,-0.552 -0.672,-0.552 -0.72,-1.596 h 1.008 q 0.084,1.308 1.68,1.308 0.684,0 1.092,-0.276 0.42,-0.288 0.42,-0.756 0,-0.312 -0.216,-0.516 -0.216,-0.204 -0.48,-0.288 -0.264,-0.096 -0.756,-0.216 -0.072,-0.012 -0.108,-0.024 -0.108,-0.024 -0.468,-0.096 -0.348,-0.084 -0.504,-0.132 -0.156,-0.048 -0.456,-0.144 -0.288,-0.108 -0.432,-0.216 -0.144,-0.12 -0.324,-0.288 -0.168,-0.18 -0.24,-0.408 -0.072,-0.24 -0.072,-0.54 0,-0.84 0.636,-1.332 0.648,-0.492 1.728,-0.492 1.092,0 1.776,0.516 0.696,0.516 0.696,1.464 z"
           id="path899" />
      </g>
    </g>
    <g
       id="g276">
      <g
         aria-label="2019"
         transform="matrix(1,0,0,-1,254.7,563.989)"
         id="text280"
         style="font-size:12px;font-family:HelveticaNeueCyr;-inkscape-font-specification:HelveticaNeueCyr-Roman">
        <path
           d="M 5.844,-0.924 V 0 H 0.3 q 0.036,-0.708 0.216,-1.236 0.18,-0.528 0.552,-0.948 0.384,-0.432 0.744,-0.708 0.36,-0.276 1.02,-0.684 1.032,-0.648 1.356,-0.972 0.672,-0.66 0.672,-1.464 0,-0.708 -0.456,-1.152 -0.456,-0.456 -1.188,-0.456 -0.876,0 -1.26,0.612 -0.372,0.6 -0.396,1.524 H 0.528 v -0.228 q 0,-1.26 0.744,-2.028 0.756,-0.768 1.992,-0.768 1.212,0 1.932,0.672 0.72,0.672 0.72,1.8 0,0.48 -0.168,0.912 -0.156,0.42 -0.36,0.708 -0.192,0.288 -0.6,0.612 Q 4.392,-3.48 4.128,-3.3 3.864,-3.132 3.372,-2.832 2.388,-2.244 2.064,-1.92 1.608,-1.476 1.476,-0.924 Z"
           id="path872" />
        <path
           d="m 10.008,-8.508 q 0.768,0 1.308,0.288 0.552,0.276 0.84,0.684 0.288,0.408 0.456,1.068 0.168,0.648 0.204,1.176 0.036,0.516 0.036,1.248 0,0.672 -0.06,1.212 -0.048,0.54 -0.228,1.128 -0.168,0.588 -0.468,0.984 -0.3,0.384 -0.816,0.636 -0.516,0.252 -1.224,0.252 -0.744,0 -1.296,-0.252 Q 8.22,-0.348 7.92,-0.732 7.62,-1.116 7.44,-1.704 7.272,-2.304 7.224,-2.832 7.176,-3.372 7.176,-4.068 7.176,-4.668 7.2,-5.112 7.236,-5.556 7.32,-6.108 7.416,-6.672 7.608,-7.056 7.8,-7.452 8.1,-7.8 q 0.3,-0.348 0.78,-0.528 0.492,-0.18 1.128,-0.18 z m 0.66,1.056 q -0.288,-0.144 -0.66,-0.144 -0.372,0 -0.66,0.144 Q 9.06,-7.32 8.88,-7.14 8.7,-6.96 8.568,-6.6 q -0.132,0.348 -0.192,0.588 -0.048,0.24 -0.084,0.696 -0.036,0.444 -0.036,0.636 0,0.18 0,0.612 0,0.42 0.012,0.696 0.012,0.276 0.06,0.72 0.048,0.444 0.168,0.744 0.12,0.288 0.3,0.588 0.18,0.288 0.492,0.444 0.324,0.144 0.744,0.144 0.36,0 0.636,-0.132 0.288,-0.132 0.468,-0.312 0.18,-0.18 0.3,-0.504 0.132,-0.336 0.192,-0.576 0.06,-0.252 0.084,-0.66 0.036,-0.42 0.036,-0.612 0.012,-0.204 0.012,-0.588 0,-0.42 0,-0.6 0,-0.18 -0.036,-0.624 -0.036,-0.444 -0.096,-0.684 -0.048,-0.24 -0.18,-0.588 -0.132,-0.348 -0.312,-0.528 -0.18,-0.18 -0.468,-0.312 z"
           id="path874" />
        <path
           d="M 17.58,-8.496 V 0 h -1.116 v -6.156 h -2.136 v -0.768 q 1.032,0 1.632,-0.336 0.612,-0.336 0.816,-1.236 z"
           id="path876" />
        <path
           d="m 20.568,-2.052 h 1.008 q 0.084,0.624 0.492,0.984 0.42,0.348 1.068,0.348 1.668,0 1.896,-2.772 0.024,-0.252 0.024,-0.564 -0.72,1.164 -2.076,1.164 -1.164,0 -1.884,-0.756 -0.72,-0.768 -0.72,-2.004 0,-1.272 0.78,-2.064 0.78,-0.792 2.028,-0.792 2.928,0 2.928,4.152 0,0.636 -0.084,1.224 -0.072,0.576 -0.276,1.2 -0.204,0.612 -0.528,1.068 -0.324,0.456 -0.876,0.744 -0.54,0.288 -1.248,0.288 -1.08,0 -1.776,-0.588 -0.684,-0.588 -0.756,-1.632 z m 2.568,-5.544 q -0.756,0 -1.224,0.528 -0.456,0.516 -0.456,1.38 0,0.816 0.432,1.356 0.444,0.528 1.248,0.528 0.78,0 1.26,-0.504 0.48,-0.516 0.48,-1.356 0,-0.876 -0.48,-1.404 -0.48,-0.528 -1.26,-0.528 z"
           id="path878" />
      </g>
    </g>
  </g>
</svg>
