<?xml version="1.0" encoding="UTF-8" standalone="no"?>
<!-- Created with Inkscape (http://www.inkscape.org/) -->

<svg
   width="63.237553mm"
   height="50.834591mm"
   viewBox="0 0 63.237553 50.834591"
   version="1.1"
   id="svg1"
   inkscape:version="1.3 (0e150ed6c4, 2023-07-21)"
   sodipodi:docname="user_priv.svg"
   xmlns:inkscape="http://www.inkscape.org/namespaces/inkscape"
   xmlns:sodipodi="http://sodipodi.sourceforge.net/DTD/sodipodi-0.dtd"
   xmlns="http://www.w3.org/2000/svg"
   xmlns:svg="http://www.w3.org/2000/svg">
  <sodipodi:namedview
     id="namedview1"
     pagecolor="#ffffff"
     bordercolor="#666666"
     borderopacity="1.0"
     inkscape:showpageshadow="2"
     inkscape:pageopacity="0.0"
     inkscape:pagecheckerboard="0"
     inkscape:deskcolor="#d1d1d1"
     inkscape:document-units="mm"
     inkscape:zoom="2.0334082"
     inkscape:cx="111.88113"
     inkscape:cy="93.685077"
     inkscape:window-width="1854"
     inkscape:window-height="1011"
     inkscape:window-x="66"
     inkscape:window-y="32"
     inkscape:window-maximized="1"
     inkscape:current-layer="layer1" />
  <defs
     id="defs1" />
  <g
     inkscape:label="Layer 1"
     inkscape:groupmode="layer"
     id="layer1"
     transform="translate(-73.554168,-123.03125)">
    <g
       id="g3"
       transform="matrix(0.42324853,0,0,0.42324853,58.290006,83.380183)"
       style="stroke:#0038f7;stroke-opacity:1">
      <path
         id="circle1"
         style="fill:none;stroke-width:3.06153"
         d="m 62.087393,142.6087 a 8.1640606,8.1640606 0 0 1 -8.164061,8.16406 8.1640606,8.1640606 0 0 1 -8.16406,-8.16406 8.1640606,8.1640606 0 0 1 8.16406,-8.16406 8.1640606,8.1640606 0 0 1 8.164061,8.16406 z" />
      <path
         d="m 70.24635,167.10089 c 0.0051,-0.33513 0.0051,-0.67557 0.0051,-1.0205 0,-5.07254 -7.310303,-9.18457 -16.328119,-9.18457 -9.017777,0 -16.328121,4.11203 -16.328121,9.18457 0,5.07253 0,9.18457 16.328121,9.18457 4.553504,0 7.837089,-0.31983 10.205075,-0.89111"
         stroke="#1c274c"
         stroke-width="3.06153"
         stroke-linecap="round"
         id="path9"
         style="fill:none;stroke:#0038f7;stroke-opacity:1" />
    </g>
    <g
       id="g6"
       transform="matrix(0.5810708,0,0,0.5810708,43.001274,42.402579)"
       style="fill:#ffffff;fill-opacity:1;stroke:#00c202;stroke-opacity:1">
      <path
         d="m 159.8773,142.17251 c 0.53883,0.87215 0.84962,1.899 0.84962,2.99813 0,3.1641 -2.57552,5.72914 -5.75267,5.72914 -0.5797,0 -1.89968,-0.13327 -2.54183,-0.66618 l -0.80273,0.79946 c -0.66882,0.66608 -0.13373,0.66608 0.13382,1.19909 0,0 0.66891,0.93263 0,1.86527 -0.40137,0.53291 -1.52517,1.27901 -2.80944,0 l -0.26756,0.26645 c 0,0 0.8027,0.93264 0.13378,1.86527 -0.40134,0.533 -1.47159,1.06591 -2.40807,0.13328 -0.0446,0.0444 -0.29432,0.29312 -0.93647,0.93263 -0.64216,0.63951 -1.42699,0.26645 -1.73913,0 l -0.80269,-0.79945 c -0.74918,-0.74611 -0.31216,-1.55439 0,-1.86527 l 6.95666,-6.92818 c 0,0 -0.66891,-1.06593 -0.66891,-2.53151 0,-3.16411 2.57551,-5.72912 5.75257,-5.72912 0.74538,0 1.45772,0.14118 2.11133,0.39816"
         stroke="#1c274c"
         stroke-width="1.3655"
         stroke-linecap="round"
         stroke-linejoin="round"
         id="path1-61"
         style="fill:#ffffff;fill-opacity:1;stroke:#00c202;stroke-opacity:1" />
      <path
         d="m 156.98099,145.17072 c 0,1.10377 -0.89841,1.99852 -2.00674,1.99852 -1.10824,0 -2.00673,-0.89475 -2.00673,-1.99852 0,-1.10376 0.89849,-1.99853 2.00673,-1.99853 1.10833,0 2.00674,0.89477 2.00674,1.99853 z"
         stroke="#1c274c"
         stroke-width="1.3655"
         id="path2-8"
         style="fill:#ffffff;fill-opacity:1;stroke:#00c202;stroke-opacity:1" />
    </g>
    <g
       id="path31">
      <path
         style="color:#000000;fill:#0038f7;-inkscape-stroke:none"
         d="m 121.03516,130.45312 -24.830082,11.39844 0.3125,0.67969 24.830082,-11.40039 z"
         id="path10" />
      <g
         id="g2">
        <g
           id="path2">
          <path
             style="color:#000000;fill:#0038f7;fill-rule:evenodd;-inkscape-stroke:none"
             d="m 94.405459,143.08922 2.153787,-3.04051 1.555911,3.3893 z"
             id="path7" />
          <path
             style="color:#000000;fill:#0038f7;fill-rule:evenodd;-inkscape-stroke:none"
             d="m 96.605469,139.55273 -2.652344,3.74414 0.429687,0.0391 4.138672,0.39062 z m -0.0918,0.99024 1.195312,2.60742 -2.853515,-0.26758 z"
             id="path8" />
        </g>
      </g>
    </g>
    <g
       id="path32">
      <path
         style="color:#000000;fill:#0038f7;-inkscape-stroke:none"
         d="m 96.898437,148.50586 -0.002,0.74414 24.499996,0.11328 0.002,-0.74609 z"
         id="path14" />
      <g
         id="g11">
        <g
           id="path11">
          <path
             style="color:#000000;fill:#0038f7;fill-rule:evenodd;-inkscape-stroke:none"
             d="m 94.745551,148.868 3.234434,-1.84985 -0.01713,3.72933 z"
             id="path12" />
          <path
             style="color:#000000;fill:#0038f7;fill-rule:evenodd;-inkscape-stroke:none"
             d="m 98.230469,146.58789 -3.982422,2.27734 0.373047,0.2168 3.58789,2.09766 z m -0.501953,0.86133 -0.01172,2.86719 -2.47461,-1.44532 z"
             id="path13" />
        </g>
      </g>
    </g>
    <g
       id="g4"
       transform="matrix(0.5810708,0,0,0.5810708,43.001274,81.86614)"
       style="fill:#ffffff;fill-opacity:1;stroke:#ff3500;stroke-opacity:1">
      <path
         d="m 159.8773,142.17251 c 0.53883,0.87215 0.84962,1.899 0.84962,2.99813 0,3.1641 -2.57552,5.72914 -5.75267,5.72914 -0.5797,0 -1.89968,-0.13327 -2.54183,-0.66618 l -0.80273,0.79946 c -0.66882,0.66608 -0.13373,0.66608 0.13382,1.19909 0,0 0.66891,0.93263 0,1.86527 -0.40137,0.53291 -1.52517,1.27901 -2.80944,0 l -0.26756,0.26645 c 0,0 0.8027,0.93264 0.13378,1.86527 -0.40134,0.533 -1.47159,1.06591 -2.40807,0.13328 -0.0446,0.0444 -0.29432,0.29312 -0.93647,0.93263 -0.64216,0.63951 -1.42699,0.26645 -1.73913,0 l -0.80269,-0.79945 c -0.74918,-0.74611 -0.31216,-1.55439 0,-1.86527 l 6.95666,-6.92818 c 0,0 -0.66891,-1.06593 -0.66891,-2.53151 0,-3.16411 2.57551,-5.72912 5.75257,-5.72912 0.74538,0 1.45772,0.14118 2.11133,0.39816"
         stroke="#1c274c"
         stroke-width="1.3655"
         stroke-linecap="round"
         stroke-linejoin="round"
         id="path3"
         style="fill:#ffffff;fill-opacity:1;stroke:#ff3500;stroke-opacity:1" />
      <path
         d="m 156.98099,145.17072 c 0,1.10377 -0.89841,1.99852 -2.00674,1.99852 -1.10824,0 -2.00673,-0.89475 -2.00673,-1.99852 0,-1.10376 0.89849,-1.99853 2.00673,-1.99853 1.10833,0 2.00674,0.89477 2.00674,1.99853 z"
         stroke="#1c274c"
         stroke-width="1.3655"
         id="path4"
         style="fill:#ffffff;fill-opacity:1;stroke:#ff3500;stroke-opacity:1" />
    </g>
    <g
       id="g7"
       transform="matrix(0.5810708,0,0,0.5810708,43.001274,62.13436)"
       style="fill:#ffffff;fill-opacity:1;stroke:#ffd800;stroke-opacity:1">
      <path
         d="m 159.8773,142.17251 c 0.53883,0.87215 0.84962,1.899 0.84962,2.99813 0,3.1641 -2.57552,5.72914 -5.75267,5.72914 -0.5797,0 -1.89968,-0.13327 -2.54183,-0.66618 l -0.80273,0.79946 c -0.66882,0.66608 -0.13373,0.66608 0.13382,1.19909 0,0 0.66891,0.93263 0,1.86527 -0.40137,0.53291 -1.52517,1.27901 -2.80944,0 l -0.26756,0.26645 c 0,0 0.8027,0.93264 0.13378,1.86527 -0.40134,0.533 -1.47159,1.06591 -2.40807,0.13328 -0.0446,0.0444 -0.29432,0.29312 -0.93647,0.93263 -0.64216,0.63951 -1.42699,0.26645 -1.73913,0 l -0.80269,-0.79945 c -0.74918,-0.74611 -0.31216,-1.55439 0,-1.86527 l 6.95666,-6.92818 c 0,0 -0.66891,-1.06593 -0.66891,-2.53151 0,-3.16411 2.57551,-5.72912 5.75257,-5.72912 0.74538,0 1.45772,0.14118 2.11133,0.39816"
         stroke="#1c274c"
         stroke-width="1.3655"
         stroke-linecap="round"
         stroke-linejoin="round"
         id="path5"
         style="fill:#ffffff;fill-opacity:1;stroke:#ffd800;stroke-opacity:1" />
      <path
         d="m 156.98099,145.17072 c 0,1.10377 -0.89841,1.99852 -2.00674,1.99852 -1.10824,0 -2.00673,-0.89475 -2.00673,-1.99852 0,-1.10376 0.89849,-1.99853 2.00673,-1.99853 1.10833,0 2.00674,0.89477 2.00674,1.99853 z"
         stroke="#1c274c"
         stroke-width="1.3655"
         id="path6"
         style="fill:#ffffff;fill-opacity:1;stroke:#ffd800;stroke-opacity:1" />
    </g>
    <g
       id="path33">
      <path
         style="color:#000000;fill:#0038f7;-inkscape-stroke:none"
         d="m 96.761719,155.23828 -0.310547,0.67774 24.830078,11.39843 0.31055,-0.67773 z"
         id="path18" />
      <g
         id="g15">
        <g
           id="path15">
          <path
             style="color:#000000;fill:#0038f7;fill-rule:evenodd;-inkscape-stroke:none"
             d="m 94.650909,154.67868 3.709698,-0.34879 -1.555911,3.3893 z"
             id="path16" />
          <path
             style="color:#000000;fill:#0038f7;fill-rule:evenodd;-inkscape-stroke:none"
             d="m 98.765625,154.04297 -4.566406,0.42773 0.248047,0.35157 2.404296,3.39257 z m -0.810547,0.57617 -1.197266,2.60352 -1.65625,-2.33789 z"
             id="path17" />
        </g>
      </g>
    </g>
  </g>
</svg>
