<?xml version="1.0" encoding="UTF-8" standalone="no"?>
<svg
   width="612"
   height="860"
   version="1.1"
   id="svg472"
   sodipodi:docname="fsm.svg"
   inkscape:version="1.1.1 (3bf5ae0d25, 2021-09-20)"
   xmlns:inkscape="http://www.inkscape.org/namespaces/inkscape"
   xmlns:sodipodi="http://sodipodi.sourceforge.net/DTD/sodipodi-0.dtd"
   xmlns:xlink="http://www.w3.org/1999/xlink"
   xmlns="http://www.w3.org/2000/svg"
   xmlns:svg="http://www.w3.org/2000/svg"
   xmlns:lucid="lucid">
  <defs
     id="defs476" />
  <sodipodi:namedview
     id="namedview474"
     pagecolor="#505050"
     bordercolor="#eeeeee"
     borderopacity="1"
     inkscape:pageshadow="0"
     inkscape:pageopacity="0"
     inkscape:pagecheckerboard="0"
     showgrid="false"
     inkscape:zoom="0.93255814"
     inkscape:cx="237.5187"
     inkscape:cy="432.6808"
     inkscape:window-width="1920"
     inkscape:window-height="991"
     inkscape:window-x="-9"
     inkscape:window-y="-9"
     inkscape:window-maximized="1"
     inkscape:current-layer="g470" />
  <g
     transform="translate(-154 -140)"
     lucid:page-tab-id="0_0"
     id="g470">
    <path
       d="M216 300c-8.84 0-16 7.16-16 16v48c0 8.84 7.16 16 16 16h168c8.84 0 16-7.16 16-16v-48c0-8.84-7.16-16-16-16z"
       stroke="#000000"
       stroke-width="6"
       fill="#fff"
       id="path4"
       style="fill:#ffffff;fill-opacity:0.2" />
    <path
       d="M216 420c-8.84 0-16 7.16-16 16v48c0 8.84 7.16 16 16 16h168c8.84 0 16-7.16 16-16v-48c0-8.84-7.16-16-16-16z"
       stroke="#000000"
       stroke-width="3"
       fill="#fff"
       id="path8"
       style="fill:#ffffff;fill-opacity:0.2" />
    <path
       d="M216 540c-8.84 0-16 7.16-16 16v48c0 8.84 7.16 16 16 16h168c8.84 0 16-7.16 16-16v-48c0-8.84-7.16-16-16-16z"
       stroke="#000000"
       stroke-width="3"
       fill="#fff"
       id="path12"
       style="fill:#ffffff;fill-opacity:0.2" />
    <path
       d="M216 660c-8.84 0-16 7.16-16 16v48c0 8.84 7.16 16 16 16h168c8.84 0 16-7.16 16-16v-48c0-8.84-7.16-16-16-16z"
       stroke="#000000"
       stroke-width="3"
       fill="#fff"
       id="path16"
       style="fill:#ffffff;fill-opacity:0.2" />
    <path
       d="M216 780c-8.84 0-16 7.16-16 16v48c0 8.84 7.16 16 16 16h168c8.84 0 16-7.16 16-16v-48c0-8.84-7.16-16-16-16z"
       stroke="#000000"
       stroke-width="6"
       fill="#fff"
       id="path20"
       style="fill:#ffffff;fill-opacity:0.2" />
    <path
       d="M300 742v18.62"
       stroke="#000000"
       fill="none"
       id="path24" />
    <path
       d="M300.5 742h-1v-.5h1z"
       stroke="#000000"
       stroke-width=".05"
       fill="#000000"
       id="path26" />
    <path
       d="M300 775.38l-4.64-14.26h9.28z"
       stroke="#000000"
       fill="#000000"
       id="path28" />
    <path
       d="M216 900c-8.84 0-16 7.16-16 16v48c0 8.84 7.16 16 16 16h168c8.84 0 16-7.16 16-16v-48c0-8.84-7.16-16-16-16z"
       stroke="#000000"
       stroke-width="6"
       fill="#fff"
       id="path30"
       style="fill:#ffffff;fill-opacity:0.2" />
    <path
       d="M402 460h32a6 6 0 0 0 6-6V346a6 6 0 0 0-6-6h-14.62"
       stroke="#000000"
       fill="none"
       id="path34" />
    <path
       d="M402 460.5h-.5v-1h.5z"
       stroke="#000000"
       stroke-width=".05"
       fill="#000000"
       id="path36" />
    <path
       d="M404.62 340l14.26-4.64v9.28z"
       stroke="#000000"
       fill="#000000"
       id="path38" />
    <path
       d="M402 580h32a6 6 0 0 0 6-6V346a6 6 0 0 0-6-6h-14.62"
       stroke="#000000"
       fill="none"
       id="path40" />
    <path
       d="M402 580.5h-.5v-1h.5z"
       stroke="#000000"
       stroke-width=".05"
       fill="#000000"
       id="path42" />
    <path
       d="M404.62 340l14.26-4.64v9.28z"
       stroke="#000000"
       fill="#000000"
       id="path44" />
    <path
       d="M402 700h32a6 6 0 0 0 6-6V346a6 6 0 0 0-6-6h-14.62"
       stroke="#000000"
       fill="none"
       id="path46" />
    <path
       d="M402 700.5h-.5v-1h.5z"
       stroke="#000000"
       stroke-width=".05"
       fill="#000000"
       id="path48" />
    <path
       d="M404.62 340l14.26-4.64v9.28z"
       stroke="#000000"
       fill="#000000"
       id="path50" />
    <path
       d="M403.5 820H434a6 6 0 0 0 6-6V346a6 6 0 0 0-6-6h-14.62"
       stroke="#000000"
       fill="none"
       id="path52" />
    <path
       d="M403.5 820.5h-.5v-1h.5z"
       stroke="#000000"
       stroke-width=".05"
       fill="#000000"
       id="path54" />
    <path
       d="M404.62 340l14.26-4.64v9.28z"
       stroke="#000000"
       fill="#000000"
       id="path56" />
    <path
       d="M300 383.5v18.62"
       stroke="#000000"
       fill="none"
       id="path58" />
    <path
       d="M300.5 383.5h-1v-.5h1z"
       stroke="#000000"
       stroke-width=".05"
       fill="#000000"
       id="path60" />
    <path
       d="M300 416.88l-4.64-14.26h9.28z"
       stroke="#000000"
       fill="#000000"
       id="path62" />
    <path
       d="M300 502v20.12"
       stroke="#000000"
       fill="none"
       id="path64" />
    <path
       d="M300.5 502h-1v-.5h1z"
       stroke="#000000"
       stroke-width=".05"
       fill="#000000"
       id="path66" />
    <path
       d="M300 536.88l-4.64-14.26h9.28z"
       stroke="#000000"
       fill="#000000"
       id="path68" />
    <path
       d="M300 622v20.12"
       stroke="#000000"
       fill="none"
       id="path70" />
    <path
       d="M300.5 622h-1v-.5h1z"
       stroke="#000000"
       stroke-width=".05"
       fill="#000000"
       id="path72" />
    <path
       d="M300 656.88l-4.64-14.26h9.28z"
       stroke="#000000"
       fill="#000000"
       id="path74" />
    <path
       d="M536 300c-8.84 0-16 7.16-16 16v48c0 8.84 7.16 16 16 16h168c8.84 0 16-7.16 16-16v-48c0-8.84-7.16-16-16-16z"
       stroke="#000000"
       stroke-width="6"
       fill="#fff"
       id="path76"
       style="fill:#ffffff;fill-opacity:0.2" />
    <path
       d="M536 780c-8.84 0-16 7.16-16 16v48c0 8.84 7.16 16 16 16h168c8.84 0 16-7.16 16-16v-48c0-8.84-7.16-16-16-16z"
       stroke="#000000"
       stroke-width="6"
       fill="#fff"
       id="path84"
       style="fill:#ffffff;fill-opacity:0.2" />
    <path
       d="M536 900c-8.84 0-16 7.16-16 16v48c0 8.84 7.16 16 16 16h168c8.84 0 16-7.16 16-16v-48c0-8.84-7.16-16-16-16z"
       stroke="#000000"
       stroke-width="6"
       fill="#fff"
       id="path88"
       style="fill:#ffffff;fill-opacity:0.2" />
    <path
       d="M723.5 820H754a6 6 0 0 0 6-6V346a6 6 0 0 0-6-6h-14.62"
       stroke="#000000"
       fill="none"
       id="path92" />
    <path
       d="M723.5 820.5h-.5v-1h.5z"
       stroke="#000000"
       stroke-width=".05"
       fill="#000000"
       id="path94" />
    <path
       d="M724.62 340l14.26-4.64v9.28z"
       stroke="#000000"
       fill="#000000"
       id="path96" />
    <path
       d="M620 863.5v17.12"
       stroke="#000000"
       fill="none"
       id="path98" />
    <path
       d="M620.5 863.5h-1v-.5h1z"
       stroke="#000000"
       stroke-width=".05"
       fill="#000000"
       id="path100" />
    <path
       d="M620 895.38l-4.64-14.26h9.28z"
       stroke="#000000"
       fill="#000000"
       id="path102" />
    <path
       d="M620 383.5v377.12"
       stroke="#000000"
       fill="none"
       id="path104" />
    <path
       d="M620.5 383.5h-1v-.5h1z"
       stroke="#000000"
       stroke-width=".05"
       fill="#000000"
       id="path106" />
    <path
       d="M620 775.38l-4.64-14.26h9.28z"
       stroke="#000000"
       fill="#000000"
       id="path108" />
    <path
       d="M180 160h220l20 20v80H180z"
       stroke="#000000"
       fill="#fff"
       id="path110"
       style="fill:#ffffff;fill-opacity:0.2" />
    <path
       d="M400 160.48V180h19.52"
       stroke="#000000"
       fill="#fff"
       id="path112"
       style="fill:#ffffff;fill-opacity:0.2" />
    <use
       xlink:href="#j"
       transform="matrix(1,0,0,1,185,165) translate(45.956790123456784 48.71527777777778)"
       id="use114" />
    <path
       d="M500 160h220l20 20v80H500z"
       stroke="#000000"
       fill="#fff"
       id="path116"
       style="fill:#ffffff;fill-opacity:0.2" />
    <path
       d="M720 160.48V180h19.52"
       stroke="#000000"
       fill="#fff"
       style="fill:#ffffff;fill-opacity:0.2"
       id="path118" />
    <use
       xlink:href="#k"
       transform="matrix(1,0,0,1,505,165) translate(52.09876543209875 48.71527777777778)"
       id="use120" />
    <path
       d="M300 863.5v17.12"
       stroke="#000000"
       fill="none"
       id="path122" />
    <path
       d="M300.5 863.5h-1v-.5h1z"
       stroke="#000000"
       stroke-width=".05"
       fill="#000000"
       id="path124" />
    <path
       d="M300 895.38l-4.64-14.26h9.28z"
       stroke="#000000"
       fill="#000000"
       id="path126" />
    <path
       d="M196.5 340H166a6 6 0 0 0-6 6v588a6 6 0 0 0 6 6h14.62"
       stroke="#000000"
       fill="none"
       id="path128" />
    <path
       d="M197 340.5h-.5v-1h.5z"
       stroke="#000000"
       stroke-width=".05"
       fill="#000000"
       id="path130" />
    <path
       d="M195.38 940l-14.26 4.64v-9.28z"
       stroke="#000000"
       fill="#000000"
       id="path132" />
    <path
       d="M198 460h-32a6 6 0 0 0-6 6v468a6 6 0 0 0 6 6h14.62"
       stroke="#000000"
       fill="none"
       id="path134" />
    <path
       d="M198.5 460.5h-.5v-1h.5z"
       stroke="#000000"
       stroke-width=".05"
       fill="#000000"
       id="path136" />
    <path
       d="M195.38 940l-14.26 4.64v-9.28z"
       stroke="#000000"
       fill="#000000"
       id="path138" />
    <path
       d="M198 580h-32a6 6 0 0 0-6 6v348a6 6 0 0 0 6 6h14.62"
       stroke="#000000"
       fill="none"
       id="path140" />
    <path
       d="M198.5 580.5h-.5v-1h.5z"
       stroke="#000000"
       stroke-width=".05"
       fill="#000000"
       id="path142" />
    <path
       d="M195.38 940l-14.26 4.64v-9.28z"
       stroke="#000000"
       fill="#000000"
       id="path144" />
    <path
       d="M198 700h-32a6 6 0 0 0-6 6v228a6 6 0 0 0 6 6h14.62"
       stroke="#000000"
       fill="none"
       id="path146" />
    <path
       d="M198.5 700.5h-.5v-1h.5z"
       stroke="#000000"
       stroke-width=".05"
       fill="#000000"
       id="path148" />
    <path
       d="M195.38 940l-14.26 4.64v-9.28z"
       stroke="#000000"
       fill="#000000"
       id="path150" />
    <path
       d="M516.5 340H486a6 6 0 0 0-6 6v588a6 6 0 0 0 6 6h14.62"
       stroke="#000000"
       fill="none"
       id="path152" />
    <path
       d="M517 340.5h-.5v-1h.5z"
       stroke="#000000"
       stroke-width=".05"
       fill="#000000"
       id="path154" />
    <path
       d="M515.38 940l-14.26 4.64v-9.28z"
       stroke="#000000"
       fill="#000000"
       id="path156" />
    <defs
       id="defs468">
      <path
         fill="#000"
         d="M101-251c68 0 85 55 85 127S166 4 100 4C33 4 14-52 14-124c0-73 17-127 87-127zm-1 229c47 0 54-49 54-102s-4-102-53-102c-51 0-55 48-55 102 0 53 5 102 54 102"
         id="l" />
      <path
         fill="#000"
         d="M-5 72V49h209v23H-5"
         id="m" />
      <path
         fill="#000"
         d="M140-251c81 0 123 46 123 126C263-46 219 4 140 4 59 4 17-45 17-125s42-126 123-126zm0 227c63 0 89-41 89-101s-29-99-89-99c-61 0-89 39-89 99S79-25 140-24"
         id="n" />
      <path
         fill="#000"
         d="M101-234c-31-9-42 10-38 44h38v23H63V0H32v-167H5v-23h27c-7-52 17-82 69-68v24"
         id="o" />
      <path
         fill="#000"
         d="M24 0v-261h32V0H24"
         id="p" />
      <path
         fill="#000"
         d="M24-231v-30h32v30H24zM24 0v-190h32V0H24"
         id="q" />
      <path
         fill="#000"
         d="M117-194c89-4 53 116 60 194h-32v-121c0-31-8-49-39-48C34-167 62-67 57 0H25l-1-190h30c1 10-1 24 2 32 11-22 29-35 61-36"
         id="r" />
      <path
         fill="#000"
         d="M100-194c63 0 86 42 84 106H49c0 40 14 67 53 68 26 1 43-12 49-29l28 8c-11 28-37 45-77 45C44 4 14-33 15-96c1-61 26-98 85-98zm52 81c6-60-76-77-97-28-3 7-6 17-6 28h103"
         id="s" />
      <g
         id="a">
        <use
           transform="matrix(0.05,0,0,0.05,0,0)"
           xlink:href="#l"
           id="use166" />
        <use
           transform="matrix(0.05,0,0,0.05,10,0)"
           xlink:href="#m"
           id="use168" />
        <use
           transform="matrix(0.05,0,0,0.05,20,0)"
           xlink:href="#n"
           id="use170" />
        <use
           transform="matrix(0.05,0,0,0.05,34,0)"
           xlink:href="#o"
           id="use172" />
        <use
           transform="matrix(0.05,0,0,0.05,38.65,0)"
           xlink:href="#o"
           id="use174" />
        <use
           transform="matrix(0.05,0,0,0.05,43.65,0)"
           xlink:href="#p"
           id="use176" />
        <use
           transform="matrix(0.05,0,0,0.05,47.6,0)"
           xlink:href="#q"
           id="use178" />
        <use
           transform="matrix(0.05,0,0,0.05,51.550000000000004,0)"
           xlink:href="#r"
           id="use180" />
        <use
           transform="matrix(0.05,0,0,0.05,61.550000000000004,0)"
           xlink:href="#s"
           id="use182" />
      </g>
      <path
         fill="#000"
         d="M27 0v-27h64v-190l-56 39v-29l58-41h29v221h61V0H27"
         id="t" />
      <path
         fill="#000"
         d="M233-177c-1 41-23 64-60 70L243 0h-38l-65-103H63V0H30v-248c88 3 205-21 203 71zM63-129c60-2 137 13 137-47 0-61-80-42-137-45v92"
         id="u" />
      <path
         fill="#000"
         d="M141-36C126-15 110 5 73 4 37 3 15-17 15-53c-1-64 63-63 125-63 3-35-9-54-41-54-24 1-41 7-42 31l-33-3c5-37 33-52 76-52 45 0 72 20 72 64v82c-1 20 7 32 28 27v20c-31 9-61-2-59-35zM48-53c0 20 12 33 32 33 41-3 63-29 60-74-43 2-92-5-92 41"
         id="v" />
      <path
         fill="#000"
         d="M59-47c-2 24 18 29 38 22v24C64 9 27 4 27-40v-127H5v-23h24l9-43h21v43h35v23H59v120"
         id="w" />
      <path
         fill="#000"
         d="M185-189c-5-48-123-54-124 2 14 75 158 14 163 119 3 78-121 87-175 55-17-10-28-26-33-46l33-7c5 56 141 63 141-1 0-78-155-14-162-118-5-82 145-84 179-34 5 7 8 16 11 25"
         id="x" />
      <path
         fill="#000"
         d="M179-190L93 31C79 59 56 82 12 73V49c39 6 53-20 64-50L1-190h34L92-34l54-156h33"
         id="y" />
      <path
         fill="#000"
         d="M96-169c-40 0-48 33-48 73s9 75 48 75c24 0 41-14 43-38l32 2c-6 37-31 61-74 61-59 0-76-41-82-99-10-93 101-131 147-64 4 7 5 14 7 22l-32 3c-4-21-16-35-41-35"
         id="z" />
      <path
         fill="#000"
         d="M85-194c31 0 48 13 60 33l-1-100h32l1 261h-30c-2-10 0-23-3-31C134-8 116 4 85 4 32 4 16-35 15-94c0-66 23-100 70-100zm9 24c-40 0-46 34-46 75 0 40 6 74 45 74 42 0 51-32 51-76 0-42-9-74-50-73"
         id="A" />
      <g
         id="b">
        <use
           transform="matrix(0.05,0,0,0.05,0,0)"
           xlink:href="#t"
           id="use193" />
        <use
           transform="matrix(0.05,0,0,0.05,10,0)"
           xlink:href="#l"
           id="use195" />
        <use
           transform="matrix(0.05,0,0,0.05,20,0)"
           xlink:href="#m"
           id="use197" />
        <use
           transform="matrix(0.05,0,0,0.05,30,0)"
           xlink:href="#u"
           id="use199" />
        <use
           transform="matrix(0.05,0,0,0.05,42.95,0)"
           xlink:href="#v"
           id="use201" />
        <use
           transform="matrix(0.05,0,0,0.05,52.95,0)"
           xlink:href="#o"
           id="use203" />
        <use
           transform="matrix(0.05,0,0,0.05,57.95,0)"
           xlink:href="#w"
           id="use205" />
        <use
           transform="matrix(0.05,0,0,0.05,62.95,0)"
           xlink:href="#x"
           id="use207" />
        <use
           transform="matrix(0.05,0,0,0.05,74.95,0)"
           xlink:href="#y"
           id="use209" />
        <use
           transform="matrix(0.05,0,0,0.05,83.95,0)"
           xlink:href="#r"
           id="use211" />
        <use
           transform="matrix(0.05,0,0,0.05,93.95,0)"
           xlink:href="#z"
           id="use213" />
        <use
           transform="matrix(0.05,0,0,0.05,102.95,0)"
           xlink:href="#s"
           id="use215" />
        <use
           transform="matrix(0.05,0,0,0.05,112.95,0)"
           xlink:href="#A"
           id="use217" />
      </g>
      <path
         fill="#000"
         d="M101-251c82-7 93 87 43 132L82-64C71-53 59-42 53-27h129V0H18c2-99 128-94 128-182 0-28-16-43-45-43s-46 15-49 41l-32-3c6-41 34-60 81-64"
         id="B" />
      <path
         fill="#000"
         d="M160-131c35 5 61 23 61 61C221 17 115-2 30 0v-248c76 3 177-17 177 60 0 33-19 50-47 57zm-97-11c50-1 110 9 110-42 0-47-63-36-110-37v79zm0 115c55-2 124 14 124-45 0-56-70-42-124-44v89"
         id="C" />
      <path
         fill="#000"
         d="M100-194c62-1 85 37 85 99 1 63-27 99-86 99S16-35 15-95c0-66 28-99 85-99zM99-20c44 1 53-31 53-75 0-43-8-75-51-75s-53 32-53 75 10 74 51 75"
         id="D" />
      <path
         fill="#000"
         d="M141 0L90-78 38 0H4l68-98-65-92h35l48 74 47-74h35l-64 92 68 98h-35"
         id="E" />
      <g
         id="c">
        <use
           transform="matrix(0.05,0,0,0.05,0,0)"
           xlink:href="#B"
           id="use224" />
        <use
           transform="matrix(0.05,0,0,0.05,10,0)"
           xlink:href="#l"
           id="use226" />
        <use
           transform="matrix(0.05,0,0,0.05,20,0)"
           xlink:href="#m"
           id="use228" />
        <use
           transform="matrix(0.05,0,0,0.05,30,0)"
           xlink:href="#C"
           id="use230" />
        <use
           transform="matrix(0.05,0,0,0.05,42,0)"
           xlink:href="#D"
           id="use232" />
        <use
           transform="matrix(0.05,0,0,0.05,52,0)"
           xlink:href="#E"
           id="use234" />
        <use
           transform="matrix(0.05,0,0,0.05,61,0)"
           xlink:href="#x"
           id="use236" />
        <use
           transform="matrix(0.05,0,0,0.05,73,0)"
           xlink:href="#y"
           id="use238" />
        <use
           transform="matrix(0.05,0,0,0.05,82,0)"
           xlink:href="#r"
           id="use240" />
        <use
           transform="matrix(0.05,0,0,0.05,92,0)"
           xlink:href="#z"
           id="use242" />
        <use
           transform="matrix(0.05,0,0,0.05,101,0)"
           xlink:href="#s"
           id="use244" />
        <use
           transform="matrix(0.05,0,0,0.05,111,0)"
           xlink:href="#A"
           id="use246" />
      </g>
      <path
         fill="#000"
         d="M126-127c33 6 58 20 58 59 0 88-139 92-164 29-3-8-5-16-6-25l32-3c6 27 21 44 54 44 32 0 52-15 52-46 0-38-36-46-79-43v-28c39 1 72-4 72-42 0-27-17-43-46-43-28 0-47 15-49 41l-32-3c6-42 35-63 81-64 48-1 79 21 79 65 0 36-21 52-52 59"
         id="F" />
      <path
         fill="#000"
         d="M137 0h-34L2-248h35l83 218 83-218h36"
         id="G" />
      <path
         fill="#000"
         d="M135-143c-3-34-86-38-87 0 15 53 115 12 119 90S17 21 10-45l28-5c4 36 97 45 98 0-10-56-113-15-118-90-4-57 82-63 122-42 12 7 21 19 24 35"
         id="H" />
      <path
         fill="#000"
         d="M106-169C34-169 62-67 57 0H25v-261h32l-1 103c12-21 28-36 61-36 89 0 53 116 60 194h-32v-121c2-32-8-49-39-48"
         id="I" />
      <path
         fill="#000"
         d="M114-163C36-179 61-72 57 0H25l-1-190h30c1 12-1 29 2 39 6-27 23-49 58-41v29"
         id="J" />
      <path
         fill="#000"
         d="M33 0v-248h34V0H33"
         id="K" />
      <path
         fill="#000"
         d="M9 0v-24l116-142H16v-24h144v24L44-24h123V0H9"
         id="L" />
      <g
         id="d">
        <use
           transform="matrix(0.05,0,0,0.05,0,0)"
           xlink:href="#F"
           id="use256" />
        <use
           transform="matrix(0.05,0,0,0.05,10,0)"
           xlink:href="#l"
           id="use258" />
        <use
           transform="matrix(0.05,0,0,0.05,20,0)"
           xlink:href="#m"
           id="use260" />
        <use
           transform="matrix(0.05,0,0,0.05,30,0)"
           xlink:href="#G"
           id="use262" />
        <use
           transform="matrix(0.05,0,0,0.05,42,0)"
           xlink:href="#H"
           id="use264" />
        <use
           transform="matrix(0.05,0,0,0.05,51,0)"
           xlink:href="#I"
           id="use266" />
        <use
           transform="matrix(0.05,0,0,0.05,61,0)"
           xlink:href="#v"
           id="use268" />
        <use
           transform="matrix(0.05,0,0,0.05,71,0)"
           xlink:href="#J"
           id="use270" />
        <use
           transform="matrix(0.05,0,0,0.05,76.95,0)"
           xlink:href="#A"
           id="use272" />
        <use
           transform="matrix(0.05,0,0,0.05,86.95,0)"
           xlink:href="#K"
           id="use274" />
        <use
           transform="matrix(0.05,0,0,0.05,91.95,0)"
           xlink:href="#r"
           id="use276" />
        <use
           transform="matrix(0.05,0,0,0.05,101.95,0)"
           xlink:href="#q"
           id="use278" />
        <use
           transform="matrix(0.05,0,0,0.05,105.9,0)"
           xlink:href="#w"
           id="use280" />
        <use
           transform="matrix(0.05,0,0,0.05,110.9,0)"
           xlink:href="#q"
           id="use282" />
        <use
           transform="matrix(0.05,0,0,0.05,114.85000000000001,0)"
           xlink:href="#v"
           id="use284" />
        <use
           transform="matrix(0.05,0,0,0.05,124.85000000000001,0)"
           xlink:href="#p"
           id="use286" />
        <use
           transform="matrix(0.05,0,0,0.05,128.8,0)"
           xlink:href="#q"
           id="use288" />
        <use
           transform="matrix(0.05,0,0,0.05,132.75,0)"
           xlink:href="#L"
           id="use290" />
        <use
           transform="matrix(0.05,0,0,0.05,141.75,0)"
           xlink:href="#s"
           id="use292" />
        <use
           transform="matrix(0.05,0,0,0.05,151.75,0)"
           xlink:href="#A"
           id="use294" />
      </g>
      <path
         fill="#000"
         d="M54-142c48-35 137-8 131 61C196 18 31 33 14-55l32-4c7 23 22 37 52 37 35-1 51-22 54-58 4-55-73-65-99-34H22l8-134h141v27H59"
         id="M" />
      <g
         id="e">
        <use
           transform="matrix(0.05,0,0,0.05,0,0)"
           xlink:href="#M"
           id="use298" />
        <use
           transform="matrix(0.05,0,0,0.05,10,0)"
           xlink:href="#l"
           id="use300" />
        <use
           transform="matrix(0.05,0,0,0.05,20,0)"
           xlink:href="#m"
           id="use302" />
        <use
           transform="matrix(0.05,0,0,0.05,30,0)"
           xlink:href="#n"
           id="use304" />
        <use
           transform="matrix(0.05,0,0,0.05,44,0)"
           xlink:href="#r"
           id="use306" />
        <use
           transform="matrix(0.05,0,0,0.05,54,0)"
           xlink:href="#p"
           id="use308" />
        <use
           transform="matrix(0.05,0,0,0.05,57.95,0)"
           xlink:href="#q"
           id="use310" />
        <use
           transform="matrix(0.05,0,0,0.05,61.900000000000006,0)"
           xlink:href="#r"
           id="use312" />
        <use
           transform="matrix(0.05,0,0,0.05,71.9,0)"
           xlink:href="#s"
           id="use314" />
      </g>
      <path
         fill="#000"
         d="M110-160c48 1 74 30 74 79 0 53-28 85-80 85-65 0-83-55-86-122-5-90 50-162 133-122 14 7 22 21 27 39l-31 6c-5-40-67-38-82-6-9 19-15 44-15 74 11-20 30-34 60-33zm-7 138c34 0 49-23 49-58s-16-56-50-56c-29 0-50 16-49 49 1 36 15 65 50 65"
         id="N" />
      <path
         fill="#000"
         d="M30 0v-248h187v28H63v79h144v27H63v87h162V0H30"
         id="O" />
      <path
         fill="#000"
         d="M115-194c55 1 70 41 70 98S169 2 115 4C84 4 66-9 55-30l1 105H24l-1-265h31l2 30c10-21 28-34 59-34zm-8 174c40 0 45-34 45-75s-6-73-45-74c-42 0-51 32-51 76 0 43 10 73 51 73"
         id="P" />
      <g
         id="f">
        <use
           transform="matrix(0.05,0,0,0.05,0,0)"
           xlink:href="#N"
           id="use320" />
        <use
           transform="matrix(0.05,0,0,0.05,10,0)"
           xlink:href="#l"
           id="use322" />
        <use
           transform="matrix(0.05,0,0,0.05,20,0)"
           xlink:href="#m"
           id="use324" />
        <use
           transform="matrix(0.05,0,0,0.05,30,0)"
           xlink:href="#O"
           id="use326" />
        <use
           transform="matrix(0.05,0,0,0.05,42,0)"
           xlink:href="#E"
           id="use328" />
        <use
           transform="matrix(0.05,0,0,0.05,51,0)"
           xlink:href="#P"
           id="use330" />
        <use
           transform="matrix(0.05,0,0,0.05,61,0)"
           xlink:href="#s"
           id="use332" />
        <use
           transform="matrix(0.05,0,0,0.05,71,0)"
           xlink:href="#p"
           id="use334" />
        <use
           transform="matrix(0.05,0,0,0.05,74.95,0)"
           xlink:href="#p"
           id="use336" />
        <use
           transform="matrix(0.05,0,0,0.05,78.9,0)"
           xlink:href="#s"
           id="use338" />
        <use
           transform="matrix(0.05,0,0,0.05,88.9,0)"
           xlink:href="#A"
           id="use340" />
      </g>
      <g
         id="g">
        <use
           transform="matrix(0.05,0,0,0.05,0,0)"
           xlink:href="#l"
           id="use343" />
        <use
           transform="matrix(0.05,0,0,0.05,10,0)"
           xlink:href="#m"
           id="use345" />
        <use
           transform="matrix(0.05,0,0,0.05,20,0)"
           xlink:href="#n"
           id="use347" />
        <use
           transform="matrix(0.05,0,0,0.05,34,0)"
           xlink:href="#o"
           id="use349" />
        <use
           transform="matrix(0.05,0,0,0.05,38.65,0)"
           xlink:href="#o"
           id="use351" />
        <use
           transform="matrix(0.05,0,0,0.05,43.65,0)"
           xlink:href="#p"
           id="use353" />
        <use
           transform="matrix(0.05,0,0,0.05,47.6,0)"
           xlink:href="#q"
           id="use355" />
        <use
           transform="matrix(0.05,0,0,0.05,51.550000000000004,0)"
           xlink:href="#r"
           id="use357" />
        <use
           transform="matrix(0.05,0,0,0.05,61.550000000000004,0)"
           xlink:href="#s"
           id="use359" />
      </g>
      <path
         fill="#000"
         d="M177-190C167-65 218 103 67 71c-23-6-38-20-44-43l32-5c15 47 100 32 89-28v-30C133-14 115 1 83 1 29 1 15-40 15-95c0-56 16-97 71-98 29-1 48 16 59 35 1-10 0-23 2-32h30zM94-22c36 0 50-32 50-73 0-42-14-75-50-75-39 0-46 34-46 75s6 73 46 73"
         id="Q" />
      <path
         fill="#000"
         d="M84 4C-5 8 30-112 23-190h32v120c0 31 7 50 39 49 72-2 45-101 50-169h31l1 190h-30c-1-10 1-25-2-33-11 22-28 36-60 37"
         id="R" />
      <path
         fill="#000"
         d="M33-154v-36h34v36H33zM33 0v-36h34V0H33"
         id="S" />
      <g
         id="h">
        <use
           transform="matrix(0.05,0,0,0.05,0,0)"
           xlink:href="#Q"
           id="use365" />
        <use
           transform="matrix(0.05,0,0,0.05,10,0)"
           xlink:href="#J"
           id="use367" />
        <use
           transform="matrix(0.05,0,0,0.05,15.949999999999998,0)"
           xlink:href="#v"
           id="use369" />
        <use
           transform="matrix(0.05,0,0,0.05,25.950000000000003,0)"
           xlink:href="#z"
           id="use371" />
        <use
           transform="matrix(0.05,0,0,0.05,34.95,0)"
           xlink:href="#s"
           id="use373" />
        <use
           transform="matrix(0.05,0,0,0.05,44.95,0)"
           xlink:href="#o"
           id="use375" />
        <use
           transform="matrix(0.05,0,0,0.05,49.95,0)"
           xlink:href="#R"
           id="use377" />
        <use
           transform="matrix(0.05,0,0,0.05,59.95,0)"
           xlink:href="#p"
           id="use379" />
        <use
           transform="matrix(0.05,0,0,0.05,63.900000000000006,0)"
           xlink:href="#S"
           id="use381" />
      </g>
      <path
         fill="#000"
         d="M0 4l72-265h28L28 4H0"
         id="T" />
      <g
         id="i">
        <use
           transform="matrix(0.05,0,0,0.05,0,0)"
           xlink:href="#w"
           id="use385" />
        <use
           transform="matrix(0.05,0,0,0.05,5,0)"
           xlink:href="#J"
           id="use387" />
        <use
           transform="matrix(0.05,0,0,0.05,10.95,0)"
           xlink:href="#R"
           id="use389" />
        <use
           transform="matrix(0.05,0,0,0.05,20.95,0)"
           xlink:href="#s"
           id="use391" />
        <use
           transform="matrix(0.05,0,0,0.05,30.950000000000003,0)"
           xlink:href="#T"
           id="use393" />
        <use
           transform="matrix(0.05,0,0,0.05,35.95,0)"
           xlink:href="#o"
           id="use395" />
        <use
           transform="matrix(0.05,0,0,0.05,40.95,0)"
           xlink:href="#v"
           id="use397" />
        <use
           transform="matrix(0.05,0,0,0.05,50.95,0)"
           xlink:href="#p"
           id="use399" />
        <use
           transform="matrix(0.05,0,0,0.05,54.900000000000006,0)"
           xlink:href="#H"
           id="use401" />
        <use
           transform="matrix(0.05,0,0,0.05,63.900000000000006,0)"
           xlink:href="#s"
           id="use403" />
      </g>
      <path
         fill="#000000"
         d="M96-169c-40 0-48 33-48 73s9 75 48 75c24 0 41-14 43-38l32 2c-6 37-31 61-74 61-59 0-76-41-82-99-10-93 101-131 147-64 4 7 5 14 7 22l-32 3c-4-21-16-35-41-35"
         id="U" />
      <path
         fill="#000000"
         d="M84 4C-5 8 30-112 23-190h32v120c0 31 7 50 39 49 72-2 45-101 50-169h31l1 190h-30c-1-10 1-25-2-33-11 22-28 36-60 37"
         id="V" />
      <path
         fill="#000000"
         d="M114-163C36-179 61-72 57 0H25l-1-190h30c1 12-1 29 2 39 6-27 23-49 58-41v29"
         id="W" />
      <path
         fill="#000000"
         d="M100-194c63 0 86 42 84 106H49c0 40 14 67 53 68 26 1 43-12 49-29l28 8c-11 28-37 45-77 45C44 4 14-33 15-96c1-61 26-98 85-98zm52 81c6-60-76-77-97-28-3 7-6 17-6 28h103"
         id="X" />
      <path
         fill="#000000"
         d="M117-194c89-4 53 116 60 194h-32v-121c0-31-8-49-39-48C34-167 62-67 57 0H25l-1-190h30c1 10-1 24 2 32 11-22 29-35 61-36"
         id="Y" />
      <path
         fill="#000000"
         d="M59-47c-2 24 18 29 38 22v24C64 9 27 4 27-40v-127H5v-23h24l9-43h21v43h35v23H59v120"
         id="Z" />
      <path
         fill="#000000"
         d="M-5 72V49h209v23H-5"
         id="aa" />
      <path
         fill="#000000"
         d="M177-190C167-65 218 103 67 71c-23-6-38-20-44-43l32-5c15 47 100 32 89-28v-30C133-14 115 1 83 1 29 1 15-40 15-95c0-56 16-97 71-98 29-1 48 16 59 35 1-10 0-23 2-32h30zM94-22c36 0 50-32 50-73 0-42-14-75-50-75-39 0-46 34-46 75s6 73 46 73"
         id="ab" />
      <path
         fill="#000000"
         d="M141-36C126-15 110 5 73 4 37 3 15-17 15-53c-1-64 63-63 125-63 3-35-9-54-41-54-24 1-41 7-42 31l-33-3c5-37 33-52 76-52 45 0 72 20 72 64v82c-1 20 7 32 28 27v20c-31 9-61-2-59-35zM48-53c0 20 12 33 32 33 41-3 63-29 60-74-43 2-92-5-92 41"
         id="ac" />
      <path
         fill="#000000"
         d="M85-194c31 0 48 13 60 33l-1-100h32l1 261h-30c-2-10 0-23-3-31C134-8 116 4 85 4 32 4 16-35 15-94c0-66 23-100 70-100zm9 24c-40 0-46 34-46 75 0 40 6 74 45 74 42 0 51-32 51-76 0-42-9-74-50-73"
         id="ad" />
      <g
         id="j">
        <use
           transform="matrix(0.06172839506172839,0,0,0.06172839506172839,0,0)"
           xlink:href="#U"
           id="use416" />
        <use
           transform="matrix(0.06172839506172839,0,0,0.06172839506172839,11.11111111111111,0)"
           xlink:href="#V"
           id="use418" />
        <use
           transform="matrix(0.06172839506172839,0,0,0.06172839506172839,23.45679012345679,0)"
           xlink:href="#W"
           id="use420" />
        <use
           transform="matrix(0.06172839506172839,0,0,0.06172839506172839,30.80246913580247,0)"
           xlink:href="#W"
           id="use422" />
        <use
           transform="matrix(0.06172839506172839,0,0,0.06172839506172839,38.148148148148145,0)"
           xlink:href="#X"
           id="use424" />
        <use
           transform="matrix(0.06172839506172839,0,0,0.06172839506172839,50.49382716049382,0)"
           xlink:href="#Y"
           id="use426" />
        <use
           transform="matrix(0.06172839506172839,0,0,0.06172839506172839,62.8395061728395,0)"
           xlink:href="#Z"
           id="use428" />
        <use
           transform="matrix(0.06172839506172839,0,0,0.06172839506172839,69.01234567901234,0)"
           xlink:href="#aa"
           id="use430" />
        <use
           transform="matrix(0.06172839506172839,0,0,0.06172839506172839,81.35802469135803,0)"
           xlink:href="#ab"
           id="use432" />
        <use
           transform="matrix(0.06172839506172839,0,0,0.06172839506172839,93.70370370370371,0)"
           xlink:href="#W"
           id="use434" />
        <use
           transform="matrix(0.06172839506172839,0,0,0.06172839506172839,101.0493827160494,0)"
           xlink:href="#ac"
           id="use436" />
        <use
           transform="matrix(0.06172839506172839,0,0,0.06172839506172839,113.39506172839508,0)"
           xlink:href="#ad"
           id="use438" />
        <use
           transform="matrix(0.06172839506172839,0,0,0.06172839506172839,125.74074074074076,0)"
           xlink:href="#X"
           id="use440" />
      </g>
      <g
         id="k">
        <use
           transform="matrix(0.06172839506172839,0,0,0.06172839506172839,0,0)"
           xlink:href="#Z"
           id="use443" />
        <use
           transform="matrix(0.06172839506172839,0,0,0.06172839506172839,6.172839506172839,0)"
           xlink:href="#ac"
           id="use445" />
        <use
           transform="matrix(0.06172839506172839,0,0,0.06172839506172839,18.51851851851852,0)"
           xlink:href="#W"
           id="use447" />
        <use
           transform="matrix(0.06172839506172839,0,0,0.06172839506172839,25.864197530864196,0)"
           xlink:href="#ab"
           id="use449" />
        <use
           transform="matrix(0.06172839506172839,0,0,0.06172839506172839,38.20987654320987,0)"
           xlink:href="#X"
           id="use451" />
        <use
           transform="matrix(0.06172839506172839,0,0,0.06172839506172839,50.55555555555555,0)"
           xlink:href="#Z"
           id="use453" />
        <use
           transform="matrix(0.06172839506172839,0,0,0.06172839506172839,56.72839506172839,0)"
           xlink:href="#aa"
           id="use455" />
        <use
           transform="matrix(0.06172839506172839,0,0,0.06172839506172839,69.07407407407408,0)"
           xlink:href="#ab"
           id="use457" />
        <use
           transform="matrix(0.06172839506172839,0,0,0.06172839506172839,81.41975308641976,0)"
           xlink:href="#W"
           id="use459" />
        <use
           transform="matrix(0.06172839506172839,0,0,0.06172839506172839,88.76543209876544,0)"
           xlink:href="#ac"
           id="use461" />
        <use
           transform="matrix(0.06172839506172839,0,0,0.06172839506172839,101.11111111111113,0)"
           xlink:href="#ad"
           id="use463" />
        <use
           transform="matrix(0.06172839506172839,0,0,0.06172839506172839,113.45679012345681,0)"
           xlink:href="#X"
           id="use465" />
      </g>
    </defs>
    <text
       xml:space="preserve"
       style="font-style:normal;font-weight:normal;font-size:18.6667px;line-height:1.25;font-family:sans-serif;fill:#000000;fill-opacity:1;stroke:none"
       x="269.94452"
       y="345.48318"
       id="text4844"><tspan
         sodipodi:role="line"
         id="tspan4842"
         x="269.94452"
         y="345.48318"
         style="font-size:18.6667px;fill:#000000;fill-opacity:1">Offline</tspan></text>
    <text
       xml:space="preserve"
       style="font-style:normal;font-weight:normal;font-size:18.6667px;line-height:1.25;font-family:sans-serif;fill:#000000;fill-opacity:1;stroke:none"
       x="246.48068"
       y="464.55545"
       id="text7509"><tspan
         sodipodi:role="line"
         id="tspan7507"
         x="246.48068"
         y="464.55545"
         style="font-size:18.6667px;fill:#000000;fill-opacity:1">RaftSynced</tspan></text>
    <text
       xml:space="preserve"
       style="font-style:normal;font-weight:normal;font-size:18.6667px;line-height:1.25;font-family:sans-serif;fill:#000000;fill-opacity:1;stroke:none"
       x="250.48068"
       y="585.35962"
       id="text7513"><tspan
         sodipodi:role="line"
         id="tspan7511"
         x="250.48068"
         y="585.35962"
         style="font-size:18.6667px;fill:#000000;fill-opacity:1">Replicated</tspan></text>
    <text
       xml:space="preserve"
       style="font-style:normal;font-weight:normal;font-size:18.6667px;line-height:1.25;font-family:sans-serif;fill:#000000;fill-opacity:1;stroke:none"
       x="214.60411"
       y="705.75122"
       id="text7517"><tspan
         sodipodi:role="line"
         id="tspan7515"
         x="214.60411"
         y="705.75122"
         style="font-size:18.6667px;fill:#000000;fill-opacity:1">ShardingInitialized</tspan></text>
    <text
       xml:space="preserve"
       style="font-style:normal;font-weight:normal;font-size:18.6667px;line-height:1.25;font-family:sans-serif;fill:#000000;fill-opacity:1;stroke:none"
       x="270.60419"
       y="825.62769"
       id="text7521"><tspan
         sodipodi:role="line"
         x="270.60419"
         y="825.62769"
         style="font-size:18.6667px;fill:#000000;fill-opacity:1"
         id="tspan8405">Online</tspan></text>
    <text
       xml:space="preserve"
       style="font-style:normal;font-weight:normal;font-size:18.6667px;line-height:1.25;font-family:sans-serif;fill:#000000;fill-opacity:1;stroke:none"
       x="259.94452"
       y="944.28735"
       id="text7525"><tspan
         sodipodi:role="line"
         id="tspan7523"
         x="259.94452"
         y="944.28735"
         style="font-size:18.6667px;fill:#000000;fill-opacity:1">Expelled</tspan></text>
    <text
       xml:space="preserve"
       style="font-style:normal;font-weight:normal;font-size:18.6667px;line-height:1.25;font-family:sans-serif;fill:#000000;fill-opacity:1;stroke:none"
       x="589.01685"
       y="345.48318"
       id="text10645"><tspan
         sodipodi:role="line"
         id="tspan10643"
         x="589.01685"
         y="345.48318"
         style="font-size:18.6667px;fill:#000000;fill-opacity:1">Offline</tspan></text>
    <text
       xml:space="preserve"
       style="font-style:normal;font-weight:normal;font-size:18.6667px;line-height:1.25;font-family:sans-serif;fill:#000000;fill-opacity:1;stroke:none"
       x="589.38721"
       y="825.62769"
       id="text10733"><tspan
         sodipodi:role="line"
         x="589.38721"
         y="825.62769"
         style="font-size:18.6667px;fill:#000000;fill-opacity:1"
         id="tspan10731">Online</tspan></text>
    <text
       xml:space="preserve"
       style="font-style:normal;font-weight:normal;font-size:18.6667px;line-height:1.25;font-family:sans-serif;fill:#000000;fill-opacity:1;stroke:none"
       x="578.87219"
       y="944.28735"
       id="text10737"><tspan
         sodipodi:role="line"
         id="tspan10735"
         x="578.87219"
         y="944.28735"
         style="font-size:18.6667px;fill:#000000;fill-opacity:1">Expelled</tspan></text>
  </g>
</svg>
