<?xml version="1.0" encoding="UTF-8"?>
<svg xmlns="http://www.w3.org/2000/svg" width="443" height="37">
   <defs>
      <style type="text/css">
    @namespace "http://www.w3.org/2000/svg";
    .line                 {fill: none; stroke: #320000; stroke-width: 1;}
    .bold-line            {stroke: #FFE0E0; shape-rendering: crispEdges; stroke-width: 2;}
    .thin-line            {stroke: #1F0000; shape-rendering: crispEdges}
    .filled               {fill: #320000; stroke: none;}
    text.terminal         {font-family: HelveticaNeueCyr, Sans-serif;
                            font-size: 14px;
                            fill: #FFE0E0;
                            font-weight: bold;
                          }
    text.nonterminal      {font-family: HelveticaNeueCyr, Sans-serif;
                            font-size: 14px;
                            fill: #FFE0E0;
                            font-weight: normal;
                          }
    text.regexp           {font-family: HelveticaNeueCyr, Sans-serif;
                            font-size: 14px;
                            fill: #1F0000;
                            font-weight: normal;
                          }
    rect, circle, polygon {fill: #320000; stroke: #320000;}
    rect.terminal         {fill: #FF0000; stroke: #320000; stroke-width: 1;}
    rect.nonterminal      {fill: #FF3F3F; stroke: #320000; stroke-width: 1;}
    rect.text             {fill: none; stroke: none;}
    polygon.regexp        {fill: #FF5E5E; stroke: #320000; stroke-width: 1;}
  </style>
   </defs>
   <polygon points="9 17 1 13 1 21"/>
   <polygon points="17 17 9 13 9 21"/>
   <rect x="31" y="3" width="56" height="32" rx="10"/>
   <rect x="29"
          y="1"
          width="56"
          height="32"
          class="terminal"
          rx="10"/>
   <text class="terminal" x="39" y="21">CAST</text>
   <rect x="107" y="3" width="26" height="32" rx="10"/>
   <rect x="105"
          y="1"
          width="26"
          height="32"
          class="terminal"
          rx="10"/>
   <text class="terminal" x="115" y="21">(</text>
   <a xmlns:xlink="http://www.w3.org/1999/xlink"
       xlink:href="#expression"
       xlink:title="expression">
      <rect x="153" y="3" width="90" height="32"/>
      <rect x="151" y="1" width="90" height="32" class="nonterminal"/>
      <text class="nonterminal" x="161" y="21">expression</text>
   </a>
   <rect x="263" y="3" width="38" height="32" rx="10"/>
   <rect x="261"
          y="1"
          width="38"
          height="32"
          class="terminal"
          rx="10"/>
   <text class="terminal" x="271" y="21">AS</text>
   <a xmlns:xlink="http://www.w3.org/1999/xlink"
       xlink:href="#type"
       xlink:title="type">
      <rect x="321" y="3" width="48" height="32"/>
      <rect x="319" y="1" width="48" height="32" class="nonterminal"/>
      <text class="nonterminal" x="329" y="21">type</text>
   </a>
   <rect x="389" y="3" width="26" height="32" rx="10"/>
   <rect x="387"
          y="1"
          width="26"
          height="32"
          class="terminal"
          rx="10"/>
   <text class="terminal" x="397" y="21">)</text>
   <path class="line"
          d="m17 17 h2 m0 0 h10 m56 0 h10 m0 0 h10 m26 0 h10 m0 0 h10 m90 0 h10 m0 0 h10 m38 0 h10 m0 0 h10 m48 0 h10 m0 0 h10 m26 0 h10 m3 0 h-3"/>
   <polygon points="433 17 441 13 441 21"/>
   <polygon points="433 17 425 13 425 21"/>
</svg>
