<?xml version="1.0" encoding="UTF-8"?>
<svg xmlns="http://www.w3.org/2000/svg" width="357" height="145">
   <defs>
      <style type="text/css">
    @namespace "http://www.w3.org/2000/svg";
    .line                 {fill: none; stroke: #320000; stroke-width: 1;}
    .bold-line            {stroke: #FFE0E0; shape-rendering: crispEdges; stroke-width: 2;}
    .thin-line            {stroke: #1F0000; shape-rendering: crispEdges}
    .filled               {fill: #320000; stroke: none;}
    text.terminal         {font-family: HelveticaNeueCyr, Sans-serif;
                            font-size: 14px;
                            fill: #FFE0E0;
                            font-weight: bold;
                          }
    text.nonterminal      {font-family: HelveticaNeueCyr, Sans-serif;
                            font-size: 14px;
                            fill: #FFE0E0;
                            font-weight: normal;
                          }
    text.regexp           {font-family: HelveticaNeueCyr, Sans-serif;
                            font-size: 14px;
                            fill: #1F0000;
                            font-weight: normal;
                          }
    rect, circle, polygon {fill: #320000; stroke: #320000;}
    rect.terminal         {fill: #FF0000; stroke: #320000; stroke-width: 1;}
    rect.nonterminal      {fill: #FF3F3F; stroke: #320000; stroke-width: 1;}
    rect.text             {fill: none; stroke: none;}
    polygon.regexp        {fill: #FF5E5E; stroke: #320000; stroke-width: 1;}
  </style>
   </defs>
   <polygon points="9 17 1 13 1 21"/>
   <polygon points="17 17 9 13 9 21"/>
   <a xmlns:xlink="http://www.w3.org/1999/xlink"
       xlink:href="#table"
       xlink:title="table">
      <rect x="71" y="35" width="52" height="32"/>
      <rect x="69" y="33" width="52" height="32" class="nonterminal"/>
      <text class="nonterminal" x="79" y="53">table</text>
   </a>
   <rect x="143" y="35" width="24" height="32" rx="10"/>
   <rect x="141"
          y="33"
          width="24"
          height="32"
          class="terminal"
          rx="10"/>
   <text class="terminal" x="151" y="53">.</text>
   <rect x="207" y="3" width="28" height="32" rx="10"/>
   <rect x="205"
          y="1"
          width="28"
          height="32"
          class="terminal"
          rx="10"/>
   <text class="terminal" x="215" y="21">*</text>
   <a xmlns:xlink="http://www.w3.org/1999/xlink"
       xlink:href="#expression"
       xlink:title="expression">
      <rect x="51" y="79" width="90" height="32"/>
      <rect x="49" y="77" width="90" height="32" class="nonterminal"/>
      <text class="nonterminal" x="59" y="97">expression</text>
   </a>
   <rect x="181" y="111" width="38" height="32" rx="10"/>
   <rect x="179"
          y="109"
          width="38"
          height="32"
          class="terminal"
          rx="10"/>
   <text class="terminal" x="189" y="129">AS</text>
   <a xmlns:xlink="http://www.w3.org/1999/xlink"
       xlink:href="#alias"
       xlink:title="alias">
      <rect x="239" y="111" width="50" height="32"/>
      <rect x="237" y="109" width="50" height="32" class="nonterminal"/>
      <text class="nonterminal" x="247" y="129">alias</text>
   </a>
   <path class="line"
          d="m17 17 h2 m40 0 h10 m0 0 h106 m-136 0 h20 m116 0 h20 m-156 0 q10 0 10 10 m136 0 q0 -10 10 -10 m-146 10 v12 m136 0 v-12 m-136 12 q0 10 10 10 m116 0 q10 0 10 -10 m-126 10 h10 m52 0 h10 m0 0 h10 m24 0 h10 m20 -32 h10 m28 0 h10 m0 0 h74 m-298 0 h20 m278 0 h20 m-318 0 q10 0 10 10 m298 0 q0 -10 10 -10 m-308 10 v56 m298 0 v-56 m-298 56 q0 10 10 10 m278 0 q10 0 10 -10 m-288 10 h10 m90 0 h10 m20 0 h10 m0 0 h118 m-148 0 h20 m128 0 h20 m-168 0 q10 0 10 10 m148 0 q0 -10 10 -10 m-158 10 v12 m148 0 v-12 m-148 12 q0 10 10 10 m128 0 q10 0 10 -10 m-138 10 h10 m38 0 h10 m0 0 h10 m50 0 h10 m43 -108 h-3"/>
   <polygon points="347 17 355 13 355 21"/>
   <polygon points="347 17 339 13 339 21"/>
</svg>
