<?xml version="1.0" encoding="UTF-8"?>
<svg xmlns="http://www.w3.org/2000/svg" width="353" height="145">
   <defs>
      <style type="text/css">
    @namespace "http://www.w3.org/2000/svg";
    .line                 {fill: none; stroke: #113300; stroke-width: 1;}
    .bold-line            {stroke: #071400; shape-rendering: crispEdges; stroke-width: 2;}
    .thin-line            {stroke: #0A1F00; shape-rendering: crispEdges}
    .filled               {fill: #113300; stroke: none;}
    text.terminal         {font-family: Verdana, Sans-serif;
                            font-size: 12px;
                            fill: #071400;
                            font-weight: bold;
                          }
    text.nonterminal      {font-family: Verdana, Sans-serif;
                            font-size: 12px;
                            fill: #091A00;
                            font-weight: normal;
                          }
    text.regexp           {font-family: Verdana, Sans-serif;
                            font-size: 12px;
                            fill: #0A1F00;
                            font-weight: normal;
                          }
    rect, circle, polygon {fill: #113300; stroke: #113300;}
    rect.terminal         {fill: #88FF4D; stroke: #113300; stroke-width: 1;}
    rect.nonterminal      {fill: #BFFF9E; stroke: #113300; stroke-width: 1;}
    rect.text             {fill: none; stroke: none;}
    polygon.regexp        {fill: #DAFFC7; stroke: #113300; stroke-width: 1;}
  </style>
   </defs>
   <polygon points="9 17 1 13 1 21"/>
   <polygon points="17 17 9 13 9 21"/>
   <a xmlns:xlink="http://www.w3.org/1999/xlink"
       xlink:href="#Table"
       xlink:title="Table">
      <rect x="71" y="35" width="54" height="32"/>
      <rect x="69" y="33" width="54" height="32" class="nonterminal"/>
      <text class="nonterminal" x="79" y="53">Table</text>
   </a>
   <rect x="145" y="35" width="24" height="32" rx="10"/>
   <rect x="143"
          y="33"
          width="24"
          height="32"
          class="terminal"
          rx="10"/>
   <text class="terminal" x="153" y="53">.</text>
   <rect x="209" y="3" width="28" height="32" rx="10"/>
   <rect x="207"
          y="1"
          width="28"
          height="32"
          class="terminal"
          rx="10"/>
   <text class="terminal" x="217" y="21">*</text>
   <a xmlns:xlink="http://www.w3.org/1999/xlink"
       xlink:href="#Expression"
       xlink:title="Expression">
      <rect x="51" y="79" width="90" height="32"/>
      <rect x="49" y="77" width="90" height="32" class="nonterminal"/>
      <text class="nonterminal" x="59" y="97">Expression</text>
   </a>
   <rect x="181" y="111" width="34" height="32" rx="10"/>
   <rect x="179"
          y="109"
          width="34"
          height="32"
          class="terminal"
          rx="10"/>
   <text class="terminal" x="189" y="129">as</text>
   <a xmlns:xlink="http://www.w3.org/1999/xlink"
       xlink:href="#Alias"
       xlink:title="Alias">
      <rect x="235" y="111" width="50" height="32"/>
      <rect x="233" y="109" width="50" height="32" class="nonterminal"/>
      <text class="nonterminal" x="243" y="129">Alias</text>
   </a>
   <path class="line"
          d="m17 17 h2 m40 0 h10 m0 0 h108 m-138 0 h20 m118 0 h20 m-158 0 q10 0 10 10 m138 0 q0 -10 10 -10 m-148 10 v12 m138 0 v-12 m-138 12 q0 10 10 10 m118 0 q10 0 10 -10 m-128 10 h10 m54 0 h10 m0 0 h10 m24 0 h10 m20 -32 h10 m28 0 h10 m0 0 h68 m-294 0 h20 m274 0 h20 m-314 0 q10 0 10 10 m294 0 q0 -10 10 -10 m-304 10 v56 m294 0 v-56 m-294 56 q0 10 10 10 m274 0 q10 0 10 -10 m-284 10 h10 m90 0 h10 m20 0 h10 m0 0 h114 m-144 0 h20 m124 0 h20 m-164 0 q10 0 10 10 m144 0 q0 -10 10 -10 m-154 10 v12 m144 0 v-12 m-144 12 q0 10 10 10 m124 0 q10 0 10 -10 m-134 10 h10 m34 0 h10 m0 0 h10 m50 0 h10 m43 -108 h-3"/>
   <polygon points="343 17 351 13 351 21"/>
   <polygon points="343 17 335 13 335 21"/>
</svg>
