<?xml version="1.0" encoding="UTF-8"?>
<svg xmlns="http://www.w3.org/2000/svg" width="691" height="817">
   <defs>
      <style type="text/css">
    @namespace "http://www.w3.org/2000/svg";
    .line                 {fill: none; stroke: #113300; stroke-width: 1;}
    .bold-line            {stroke: #071400; shape-rendering: crispEdges; stroke-width: 2;}
    .thin-line            {stroke: #0A1F00; shape-rendering: crispEdges}
    .filled               {fill: #113300; stroke: none;}
    text.terminal         {font-family: Verdana, Sans-serif;
                            font-size: 12px;
                            fill: #071400;
                            font-weight: bold;
                          }
    text.nonterminal      {font-family: Verdana, Sans-serif;
                            font-size: 12px;
                            fill: #091A00;
                            font-weight: normal;
                          }
    text.regexp           {font-family: Verdana, Sans-serif;
                            font-size: 12px;
                            fill: #0A1F00;
                            font-weight: normal;
                          }
    rect, circle, polygon {fill: #113300; stroke: #113300;}
    rect.terminal         {fill: #88FF4D; stroke: #113300; stroke-width: 1;}
    rect.nonterminal      {fill: #BFFF9E; stroke: #113300; stroke-width: 1;}
    rect.text             {fill: none; stroke: none;}
    polygon.regexp        {fill: #DAFFC7; stroke: #113300; stroke-width: 1;}
  </style>
   </defs>
   <polygon points="9 17 1 13 1 21"/>
   <polygon points="17 17 9 13 9 21"/>
   <a xmlns:xlink="http://www.w3.org/1999/xlink"
       xlink:href="#Expression"
       xlink:title="Expression">
      <rect x="51" y="3" width="90" height="32"/>
      <rect x="49" y="1" width="90" height="32" class="nonterminal"/>
      <text class="nonterminal" x="59" y="21">Expression</text>
   </a>
   <rect x="201" y="3" width="34" height="32" rx="10"/>
   <rect x="199"
          y="1"
          width="34"
          height="32"
          class="terminal"
          rx="10"/>
   <text class="terminal" x="209" y="21">or</text>
   <rect x="221" y="79" width="78" height="32" rx="10"/>
   <rect x="219"
          y="77"
          width="78"
          height="32"
          class="terminal"
          rx="10"/>
   <text class="terminal" x="229" y="97">between</text>
   <a xmlns:xlink="http://www.w3.org/1999/xlink"
       xlink:href="#Expression"
       xlink:title="Expression">
      <rect x="319" y="79" width="90" height="32"/>
      <rect x="317" y="77" width="90" height="32" class="nonterminal"/>
      <text class="nonterminal" x="327" y="97">Expression</text>
   </a>
   <rect x="449" y="47" width="44" height="32" rx="10"/>
   <rect x="447"
          y="45"
          width="44"
          height="32"
          class="terminal"
          rx="10"/>
   <text class="terminal" x="457" y="65">and</text>
   <rect x="201" y="123" width="28" height="32" rx="10"/>
   <rect x="199"
          y="121"
          width="28"
          height="32"
          class="terminal"
          rx="10"/>
   <text class="terminal" x="209" y="141">*</text>
   <rect x="201" y="167" width="28" height="32" rx="10"/>
   <rect x="199"
          y="165"
          width="28"
          height="32"
          class="terminal"
          rx="10"/>
   <text class="terminal" x="209" y="185">/</text>
   <rect x="201" y="211" width="30" height="32" rx="10"/>
   <rect x="199"
          y="209"
          width="30"
          height="32"
          class="terminal"
          rx="10"/>
   <text class="terminal" x="209" y="229">+</text>
   <rect x="201" y="255" width="26" height="32" rx="10"/>
   <rect x="199"
          y="253"
          width="26"
          height="32"
          class="terminal"
          rx="10"/>
   <text class="terminal" x="209" y="273">-</text>
   <rect x="201" y="299" width="30" height="32" rx="10"/>
   <rect x="199"
          y="297"
          width="30"
          height="32"
          class="terminal"
          rx="10"/>
   <text class="terminal" x="209" y="317">=</text>
   <rect x="201" y="343" width="30" height="32" rx="10"/>
   <rect x="199"
          y="341"
          width="30"
          height="32"
          class="terminal"
          rx="10"/>
   <text class="terminal" x="209" y="361">&gt;</text>
   <rect x="201" y="387" width="40" height="32" rx="10"/>
   <rect x="199"
          y="385"
          width="40"
          height="32"
          class="terminal"
          rx="10"/>
   <text class="terminal" x="209" y="405">&gt;=</text>
   <rect x="201" y="431" width="30" height="32" rx="10"/>
   <rect x="199"
          y="429"
          width="30"
          height="32"
          class="terminal"
          rx="10"/>
   <text class="terminal" x="209" y="449">&lt;</text>
   <rect x="201" y="475" width="40" height="32" rx="10"/>
   <rect x="199"
          y="473"
          width="40"
          height="32"
          class="terminal"
          rx="10"/>
   <text class="terminal" x="209" y="493">&lt;=</text>
   <rect x="201" y="519" width="40" height="32" rx="10"/>
   <rect x="199"
          y="517"
          width="40"
          height="32"
          class="terminal"
          rx="10"/>
   <text class="terminal" x="209" y="537">&lt;&gt;</text>
   <rect x="201" y="563" width="34" height="32" rx="10"/>
   <rect x="199"
          y="561"
          width="34"
          height="32"
          class="terminal"
          rx="10"/>
   <text class="terminal" x="209" y="581">!=</text>
   <a xmlns:xlink="http://www.w3.org/1999/xlink"
       xlink:href="#Expression"
       xlink:title="Expression">
      <rect x="533" y="3" width="90" height="32"/>
      <rect x="531" y="1" width="90" height="32" class="nonterminal"/>
      <text class="nonterminal" x="541" y="21">Expression</text>
   </a>
   <rect x="181" y="607" width="60" height="32" rx="10"/>
   <rect x="179"
          y="605"
          width="60"
          height="32"
          class="terminal"
          rx="10"/>
   <text class="terminal" x="189" y="625">is null</text>
   <rect x="181" y="651" width="86" height="32" rx="10"/>
   <rect x="179"
          y="649"
          width="86"
          height="32"
          class="terminal"
          rx="10"/>
   <text class="terminal" x="189" y="669">is not null</text>
   <a xmlns:xlink="http://www.w3.org/1999/xlink"
       xlink:href="#Reference"
       xlink:title="Reference">
      <rect x="51" y="695" width="84" height="32"/>
      <rect x="49" y="693" width="84" height="32" class="nonterminal"/>
      <text class="nonterminal" x="59" y="713">Reference</text>
   </a>
   <a xmlns:xlink="http://www.w3.org/1999/xlink"
       xlink:href="#Select"
       xlink:title="Select">
      <rect x="51" y="739" width="58" height="32"/>
      <rect x="49" y="737" width="58" height="32" class="nonterminal"/>
      <text class="nonterminal" x="59" y="757">Select</text>
   </a>
   <a xmlns:xlink="http://www.w3.org/1999/xlink"
       xlink:href="#Value"
       xlink:title="Value">
      <rect x="51" y="783" width="56" height="32"/>
      <rect x="49" y="781" width="56" height="32" class="nonterminal"/>
      <text class="nonterminal" x="59" y="801">Value</text>
   </a>
   <path class="line"
          d="m17 17 h2 m20 0 h10 m90 0 h10 m40 0 h10 m34 0 h10 m0 0 h258 m-332 0 h20 m312 0 h20 m-352 0 q10 0 10 10 m332 0 q0 -10 10 -10 m-342 10 v24 m332 0 v-24 m-332 24 q0 10 10 10 m312 0 q10 0 10 -10 m-302 10 h10 m0 0 h198 m-228 0 h20 m208 0 h20 m-248 0 q10 0 10 10 m228 0 q0 -10 10 -10 m-238 10 v12 m228 0 v-12 m-228 12 q0 10 10 10 m208 0 q10 0 10 -10 m-218 10 h10 m78 0 h10 m0 0 h10 m90 0 h10 m20 -32 h10 m44 0 h10 m-322 -10 v20 m332 0 v-20 m-332 20 v56 m332 0 v-56 m-332 56 q0 10 10 10 m312 0 q10 0 10 -10 m-322 10 h10 m28 0 h10 m0 0 h264 m-322 -10 v20 m332 0 v-20 m-332 20 v24 m332 0 v-24 m-332 24 q0 10 10 10 m312 0 q10 0 10 -10 m-322 10 h10 m28 0 h10 m0 0 h264 m-322 -10 v20 m332 0 v-20 m-332 20 v24 m332 0 v-24 m-332 24 q0 10 10 10 m312 0 q10 0 10 -10 m-322 10 h10 m30 0 h10 m0 0 h262 m-322 -10 v20 m332 0 v-20 m-332 20 v24 m332 0 v-24 m-332 24 q0 10 10 10 m312 0 q10 0 10 -10 m-322 10 h10 m26 0 h10 m0 0 h266 m-322 -10 v20 m332 0 v-20 m-332 20 v24 m332 0 v-24 m-332 24 q0 10 10 10 m312 0 q10 0 10 -10 m-322 10 h10 m30 0 h10 m0 0 h262 m-322 -10 v20 m332 0 v-20 m-332 20 v24 m332 0 v-24 m-332 24 q0 10 10 10 m312 0 q10 0 10 -10 m-322 10 h10 m30 0 h10 m0 0 h262 m-322 -10 v20 m332 0 v-20 m-332 20 v24 m332 0 v-24 m-332 24 q0 10 10 10 m312 0 q10 0 10 -10 m-322 10 h10 m40 0 h10 m0 0 h252 m-322 -10 v20 m332 0 v-20 m-332 20 v24 m332 0 v-24 m-332 24 q0 10 10 10 m312 0 q10 0 10 -10 m-322 10 h10 m30 0 h10 m0 0 h262 m-322 -10 v20 m332 0 v-20 m-332 20 v24 m332 0 v-24 m-332 24 q0 10 10 10 m312 0 q10 0 10 -10 m-322 10 h10 m40 0 h10 m0 0 h252 m-322 -10 v20 m332 0 v-20 m-332 20 v24 m332 0 v-24 m-332 24 q0 10 10 10 m312 0 q10 0 10 -10 m-322 10 h10 m40 0 h10 m0 0 h252 m-322 -10 v20 m332 0 v-20 m-332 20 v24 m332 0 v-24 m-332 24 q0 10 10 10 m312 0 q10 0 10 -10 m-322 10 h10 m34 0 h10 m0 0 h258 m20 -560 h10 m90 0 h10 m-482 0 h20 m462 0 h20 m-502 0 q10 0 10 10 m482 0 q0 -10 10 -10 m-492 10 v584 m482 0 v-584 m-482 584 q0 10 10 10 m462 0 q10 0 10 -10 m-472 10 h10 m60 0 h10 m0 0 h382 m-472 -10 v20 m482 0 v-20 m-482 20 v24 m482 0 v-24 m-482 24 q0 10 10 10 m462 0 q10 0 10 -10 m-472 10 h10 m86 0 h10 m0 0 h356 m-612 -648 h20 m612 0 h20 m-652 0 q10 0 10 10 m632 0 q0 -10 10 -10 m-642 10 v672 m632 0 v-672 m-632 672 q0 10 10 10 m612 0 q10 0 10 -10 m-622 10 h10 m84 0 h10 m0 0 h508 m-622 -10 v20 m632 0 v-20 m-632 20 v24 m632 0 v-24 m-632 24 q0 10 10 10 m612 0 q10 0 10 -10 m-622 10 h10 m58 0 h10 m0 0 h534 m-622 -10 v20 m632 0 v-20 m-632 20 v24 m632 0 v-24 m-632 24 q0 10 10 10 m612 0 q10 0 10 -10 m-622 10 h10 m56 0 h10 m0 0 h536 m23 -780 h-3"/>
   <polygon points="681 17 689 13 689 21"/>
   <polygon points="681 17 673 13 673 21"/>
</svg>
