<?xml version="1.0" encoding="UTF-8"?>
<svg xmlns="http://www.w3.org/2000/svg" width="641" height="125">
   <defs>
      <style type="text/css">
    @namespace "http://www.w3.org/2000/svg";
    .line                 {fill: none; stroke: #320000; stroke-width: 1;}
    .bold-line            {stroke: #FFE0E0; shape-rendering: crispEdges; stroke-width: 2;}
    .thin-line            {stroke: #1F0000; shape-rendering: crispEdges}
    .filled               {fill: #320000; stroke: none;}
    text.terminal         {font-family: HelveticaNeueCyr, Sans-serif;
                            font-size: 14px;
                            fill: #FFE0E0;
                            font-weight: bold;
                          }
    text.nonterminal      {font-family: HelveticaNeueCyr, Sans-serif;
                            font-size: 14px;
                            fill: #FFE0E0;
                            font-weight: normal;
                          }
    text.regexp           {font-family: HelveticaNeueCyr, Sans-serif;
                            font-size: 14px;
                            fill: #1F0000;
                            font-weight: normal;
                          }
    rect, circle, polygon {fill: #320000; stroke: #320000;}
    rect.terminal         {fill: #FF0000; stroke: #320000; stroke-width: 1;}
    rect.nonterminal      {fill: #FF3F3F; stroke: #320000; stroke-width: 1;}
    rect.text             {fill: none; stroke: none;}
    polygon.regexp        {fill: #FF5E5E; stroke: #320000; stroke-width: 1;}
  </style>
   </defs>
   <polygon points="9 61 1 57 1 65"/>
   <polygon points="17 61 9 57 9 65"/>
   <rect x="31" y="47" width="110" height="32" rx="10"/>
   <rect x="29"
          y="45"
          width="110"
          height="32"
          class="terminal"
          rx="10"/>
   <text class="terminal" x="39" y="65">INSERT INTO</text>
   <a xmlns:xlink="http://www.w3.org/1999/xlink"
       xlink:href="#table"
       xlink:title="table">
      <rect x="161" y="47" width="52" height="32"/>
      <rect x="159" y="45" width="52" height="32" class="nonterminal"/>
      <text class="nonterminal" x="169" y="65">table</text>
   </a>
   <rect x="253" y="47" width="26" height="32" rx="10"/>
   <rect x="251"
          y="45"
          width="26"
          height="32"
          class="terminal"
          rx="10"/>
   <text class="terminal" x="261" y="65">(</text>
   <a xmlns:xlink="http://www.w3.org/1999/xlink"
       xlink:href="#reference"
       xlink:title="reference">
      <rect x="319" y="47" width="80" height="32"/>
      <rect x="317" y="45" width="80" height="32" class="nonterminal"/>
      <text class="nonterminal" x="327" y="65">reference</text>
   </a>
   <rect x="319" y="3" width="24" height="32" rx="10"/>
   <rect x="317"
          y="1"
          width="24"
          height="32"
          class="terminal"
          rx="10"/>
   <text class="terminal" x="327" y="21">,</text>
   <rect x="439" y="47" width="26" height="32" rx="10"/>
   <rect x="437"
          y="45"
          width="26"
          height="32"
          class="terminal"
          rx="10"/>
   <text class="terminal" x="447" y="65">)</text>
   <a xmlns:xlink="http://www.w3.org/1999/xlink"
       xlink:href="#SELECT"
       xlink:title="SELECT">
      <rect x="525" y="47" width="66" height="32"/>
      <rect x="523" y="45" width="66" height="32" class="nonterminal"/>
      <text class="nonterminal" x="533" y="65">SELECT</text>
   </a>
   <a xmlns:xlink="http://www.w3.org/1999/xlink"
       xlink:href="#VALUES"
       xlink:title="VALUES">
      <rect x="525" y="91" width="68" height="32"/>
      <rect x="523" y="89" width="68" height="32" class="nonterminal"/>
      <text class="nonterminal" x="533" y="109">VALUES</text>
   </a>
   <path class="line"
          d="m17 61 h2 m0 0 h10 m110 0 h10 m0 0 h10 m52 0 h10 m20 0 h10 m26 0 h10 m20 0 h10 m80 0 h10 m-120 0 l20 0 m-1 0 q-9 0 -9 -10 l0 -24 q0 -10 10 -10 m100 44 l20 0 m-20 0 q10 0 10 -10 l0 -24 q0 -10 -10 -10 m-100 0 h10 m24 0 h10 m0 0 h56 m20 44 h10 m26 0 h10 m-252 0 h20 m232 0 h20 m-272 0 q10 0 10 10 m252 0 q0 -10 10 -10 m-262 10 v14 m252 0 v-14 m-252 14 q0 10 10 10 m232 0 q10 0 10 -10 m-242 10 h10 m0 0 h222 m40 -34 h10 m66 0 h10 m0 0 h2 m-108 0 h20 m88 0 h20 m-128 0 q10 0 10 10 m108 0 q0 -10 10 -10 m-118 10 v24 m108 0 v-24 m-108 24 q0 10 10 10 m88 0 q10 0 10 -10 m-98 10 h10 m68 0 h10 m23 -44 h-3"/>
   <polygon points="631 61 639 57 639 65"/>
   <polygon points="631 61 623 57 623 65"/>
</svg>
