<?xml version="1.0" encoding="UTF-8"?>
<svg xmlns="http://www.w3.org/2000/svg" width="619" height="125">
   <defs>
      <style type="text/css">
    @namespace "http://www.w3.org/2000/svg";
    .line                 {fill: none; stroke: #113300; stroke-width: 1;}
    .bold-line            {stroke: #071400; shape-rendering: crispEdges; stroke-width: 2;}
    .thin-line            {stroke: #0A1F00; shape-rendering: crispEdges}
    .filled               {fill: #113300; stroke: none;}
    text.terminal         {font-family: Verdana, Sans-serif;
                            font-size: 12px;
                            fill: #071400;
                            font-weight: bold;
                          }
    text.nonterminal      {font-family: Verdana, Sans-serif;
                            font-size: 12px;
                            fill: #091A00;
                            font-weight: normal;
                          }
    text.regexp           {font-family: Verdana, Sans-serif;
                            font-size: 12px;
                            fill: #0A1F00;
                            font-weight: normal;
                          }
    rect, circle, polygon {fill: #113300; stroke: #113300;}
    rect.terminal         {fill: #88FF4D; stroke: #113300; stroke-width: 1;}
    rect.nonterminal      {fill: #BFFF9E; stroke: #113300; stroke-width: 1;}
    rect.text             {fill: none; stroke: none;}
    polygon.regexp        {fill: #DAFFC7; stroke: #113300; stroke-width: 1;}
  </style>
   </defs>
   <polygon points="9 61 1 57 1 65"/>
   <polygon points="17 61 9 57 9 65"/>
   <rect x="31" y="47" width="88" height="32" rx="10"/>
   <rect x="29"
          y="45"
          width="88"
          height="32"
          class="terminal"
          rx="10"/>
   <text class="terminal" x="39" y="65">insert into</text>
   <a xmlns:xlink="http://www.w3.org/1999/xlink"
       xlink:href="#Table"
       xlink:title="Table">
      <rect x="139" y="47" width="54" height="32"/>
      <rect x="137" y="45" width="54" height="32" class="nonterminal"/>
      <text class="nonterminal" x="147" y="65">Table</text>
   </a>
   <rect x="233" y="47" width="26" height="32" rx="10"/>
   <rect x="231"
          y="45"
          width="26"
          height="32"
          class="terminal"
          rx="10"/>
   <text class="terminal" x="241" y="65">(</text>
   <a xmlns:xlink="http://www.w3.org/1999/xlink"
       xlink:href="#Reference"
       xlink:title="Reference">
      <rect x="299" y="47" width="84" height="32"/>
      <rect x="297" y="45" width="84" height="32" class="nonterminal"/>
      <text class="nonterminal" x="307" y="65">Reference</text>
   </a>
   <rect x="299" y="3" width="24" height="32" rx="10"/>
   <rect x="297"
          y="1"
          width="24"
          height="32"
          class="terminal"
          rx="10"/>
   <text class="terminal" x="307" y="21">,</text>
   <rect x="423" y="47" width="26" height="32" rx="10"/>
   <rect x="421"
          y="45"
          width="26"
          height="32"
          class="terminal"
          rx="10"/>
   <text class="terminal" x="431" y="65">)</text>
   <a xmlns:xlink="http://www.w3.org/1999/xlink"
       xlink:href="#Select"
       xlink:title="Select">
      <rect x="509" y="47" width="58" height="32"/>
      <rect x="507" y="45" width="58" height="32" class="nonterminal"/>
      <text class="nonterminal" x="517" y="65">Select</text>
   </a>
   <a xmlns:xlink="http://www.w3.org/1999/xlink"
       xlink:href="#Values"
       xlink:title="Values">
      <rect x="509" y="91" width="62" height="32"/>
      <rect x="507" y="89" width="62" height="32" class="nonterminal"/>
      <text class="nonterminal" x="517" y="109">Values</text>
   </a>
   <path class="line"
          d="m17 61 h2 m0 0 h10 m88 0 h10 m0 0 h10 m54 0 h10 m20 0 h10 m26 0 h10 m20 0 h10 m84 0 h10 m-124 0 l20 0 m-1 0 q-9 0 -9 -10 l0 -24 q0 -10 10 -10 m104 44 l20 0 m-20 0 q10 0 10 -10 l0 -24 q0 -10 -10 -10 m-104 0 h10 m24 0 h10 m0 0 h60 m20 44 h10 m26 0 h10 m-256 0 h20 m236 0 h20 m-276 0 q10 0 10 10 m256 0 q0 -10 10 -10 m-266 10 v14 m256 0 v-14 m-256 14 q0 10 10 10 m236 0 q10 0 10 -10 m-246 10 h10 m0 0 h226 m40 -34 h10 m58 0 h10 m0 0 h4 m-102 0 h20 m82 0 h20 m-122 0 q10 0 10 10 m102 0 q0 -10 10 -10 m-112 10 v24 m102 0 v-24 m-102 24 q0 10 10 10 m82 0 q10 0 10 -10 m-92 10 h10 m62 0 h10 m23 -44 h-3"/>
   <polygon points="609 61 617 57 617 65"/>
   <polygon points="609 61 601 57 601 65"/>
</svg>
