<?xml version="1.0" encoding="UTF-8"?>
<svg xmlns="http://www.w3.org/2000/svg" width="493" height="245">
   <defs>
      <style type="text/css">
    @namespace "http://www.w3.org/2000/svg";
    .line                 {fill: none; stroke: #320000; stroke-width: 1;}
    .bold-line            {stroke: #FFE0E0; shape-rendering: crispEdges; stroke-width: 2;}
    .thin-line            {stroke: #1F0000; shape-rendering: crispEdges}
    .filled               {fill: #320000; stroke: none;}
    text.terminal         {font-family: HelveticaNeueCyr, Sans-serif;
                            font-size: 14px;
                            fill: #FFE0E0;
                            font-weight: bold;
                          }
    text.nonterminal      {font-family: HelveticaNeueCyr, Sans-serif;
                            font-size: 14px;
                            fill: #FFE0E0;
                            font-weight: normal;
                          }
    text.regexp           {font-family: HelveticaNeueCyr, Sans-serif;
                            font-size: 14px;
                            fill: #1F0000;
                            font-weight: normal;
                          }
    rect, circle, polygon {fill: #320000; stroke: #320000;}
    rect.terminal         {fill: #FF0000; stroke: #320000; stroke-width: 1;}
    rect.nonterminal      {fill: #FF3F3F; stroke: #320000; stroke-width: 1;}
    rect.text             {fill: none; stroke: none;}
    polygon.regexp        {fill: #FF5E5E; stroke: #320000; stroke-width: 1;}
  </style>
   </defs>
   <polygon points="9 17 1 13 1 21"/>
   <polygon points="17 17 9 13 9 21"/>
   <a xmlns:xlink="http://www.w3.org/1999/xlink"
       xlink:href="#SELECT"
       xlink:title="SELECT">
      <rect x="51" y="3" width="66" height="32"/>
      <rect x="49" y="1" width="66" height="32" class="nonterminal"/>
      <text class="nonterminal" x="59" y="21">SELECT</text>
   </a>
   <rect x="177" y="35" width="96" height="32" rx="10"/>
   <rect x="175"
          y="33"
          width="96"
          height="32"
          class="terminal"
          rx="10"/>
   <text class="terminal" x="185" y="53">UNION ALL</text>
   <rect x="177" y="79" width="72" height="32" rx="10"/>
   <rect x="175"
          y="77"
          width="72"
          height="32"
          class="terminal"
          rx="10"/>
   <text class="terminal" x="185" y="97">EXCEPT</text>
   <rect x="177" y="123" width="142" height="32" rx="10"/>
   <rect x="175"
          y="121"
          width="142"
          height="32"
          class="terminal"
          rx="10"/>
   <text class="terminal" x="185" y="141">EXCEPT DISTINCT</text>
   <a xmlns:xlink="http://www.w3.org/1999/xlink"
       xlink:href="#SELECT"
       xlink:title="SELECT">
      <rect x="359" y="35" width="66" height="32"/>
      <rect x="357" y="33" width="66" height="32" class="nonterminal"/>
      <text class="nonterminal" x="367" y="53">SELECT</text>
   </a>
   <a xmlns:xlink="http://www.w3.org/1999/xlink"
       xlink:href="#VALUES"
       xlink:title="VALUES">
      <rect x="51" y="167" width="68" height="32"/>
      <rect x="49" y="165" width="68" height="32" class="nonterminal"/>
      <text class="nonterminal" x="59" y="185">VALUES</text>
   </a>
   <a xmlns:xlink="http://www.w3.org/1999/xlink"
       xlink:href="#INSERT"
       xlink:title="INSERT">
      <rect x="51" y="211" width="64" height="32"/>
      <rect x="49" y="209" width="64" height="32" class="nonterminal"/>
      <text class="nonterminal" x="59" y="229">INSERT</text>
   </a>
   <path class="line"
          d="m17 17 h2 m20 0 h10 m66 0 h10 m20 0 h10 m0 0 h278 m-308 0 h20 m288 0 h20 m-328 0 q10 0 10 10 m308 0 q0 -10 10 -10 m-318 10 v12 m308 0 v-12 m-308 12 q0 10 10 10 m288 0 q10 0 10 -10 m-278 10 h10 m96 0 h10 m0 0 h46 m-182 0 h20 m162 0 h20 m-202 0 q10 0 10 10 m182 0 q0 -10 10 -10 m-192 10 v24 m182 0 v-24 m-182 24 q0 10 10 10 m162 0 q10 0 10 -10 m-172 10 h10 m72 0 h10 m0 0 h70 m-172 -10 v20 m182 0 v-20 m-182 20 v24 m182 0 v-24 m-182 24 q0 10 10 10 m162 0 q10 0 10 -10 m-172 10 h10 m142 0 h10 m20 -88 h10 m66 0 h10 m-414 -32 h20 m414 0 h20 m-454 0 q10 0 10 10 m434 0 q0 -10 10 -10 m-444 10 v144 m434 0 v-144 m-434 144 q0 10 10 10 m414 0 q10 0 10 -10 m-424 10 h10 m68 0 h10 m0 0 h326 m-424 -10 v20 m434 0 v-20 m-434 20 v24 m434 0 v-24 m-434 24 q0 10 10 10 m414 0 q10 0 10 -10 m-424 10 h10 m64 0 h10 m0 0 h330 m23 -208 h-3"/>
   <polygon points="483 17 491 13 491 21"/>
   <polygon points="483 17 475 13 475 21"/>
</svg>
