<?xml version="1.0" encoding="UTF-8"?>
<svg xmlns="http://www.w3.org/2000/svg" width="453" height="245">
   <defs>
      <style type="text/css">
    @namespace "http://www.w3.org/2000/svg";
    .line                 {fill: none; stroke: #113300; stroke-width: 1;}
    .bold-line            {stroke: #071400; shape-rendering: crispEdges; stroke-width: 2;}
    .thin-line            {stroke: #0A1F00; shape-rendering: crispEdges}
    .filled               {fill: #113300; stroke: none;}
    text.terminal         {font-family: Verdana, Sans-serif;
                            font-size: 12px;
                            fill: #071400;
                            font-weight: bold;
                          }
    text.nonterminal      {font-family: Verdana, Sans-serif;
                            font-size: 12px;
                            fill: #091A00;
                            font-weight: normal;
                          }
    text.regexp           {font-family: Verdana, Sans-serif;
                            font-size: 12px;
                            fill: #0A1F00;
                            font-weight: normal;
                          }
    rect, circle, polygon {fill: #113300; stroke: #113300;}
    rect.terminal         {fill: #88FF4D; stroke: #113300; stroke-width: 1;}
    rect.nonterminal      {fill: #BFFF9E; stroke: #113300; stroke-width: 1;}
    rect.text             {fill: none; stroke: none;}
    polygon.regexp        {fill: #DAFFC7; stroke: #113300; stroke-width: 1;}
  </style>
   </defs>
   <polygon points="9 17 1 13 1 21"/>
   <polygon points="17 17 9 13 9 21"/>
   <a xmlns:xlink="http://www.w3.org/1999/xlink"
       xlink:href="#Select"
       xlink:title="Select">
      <rect x="51" y="3" width="58" height="32"/>
      <rect x="49" y="1" width="58" height="32" class="nonterminal"/>
      <text class="nonterminal" x="59" y="21">Select</text>
   </a>
   <rect x="169" y="35" width="78" height="32" rx="10"/>
   <rect x="167"
          y="33"
          width="78"
          height="32"
          class="terminal"
          rx="10"/>
   <text class="terminal" x="177" y="53">union all</text>
   <rect x="169" y="79" width="64" height="32" rx="10"/>
   <rect x="167"
          y="77"
          width="64"
          height="32"
          class="terminal"
          rx="10"/>
   <text class="terminal" x="177" y="97">except</text>
   <rect x="169" y="123" width="118" height="32" rx="10"/>
   <rect x="167"
          y="121"
          width="118"
          height="32"
          class="terminal"
          rx="10"/>
   <text class="terminal" x="177" y="141">except distinct</text>
   <a xmlns:xlink="http://www.w3.org/1999/xlink"
       xlink:href="#Select"
       xlink:title="Select">
      <rect x="327" y="35" width="58" height="32"/>
      <rect x="325" y="33" width="58" height="32" class="nonterminal"/>
      <text class="nonterminal" x="335" y="53">Select</text>
   </a>
   <a xmlns:xlink="http://www.w3.org/1999/xlink"
       xlink:href="#Values"
       xlink:title="Values">
      <rect x="51" y="167" width="62" height="32"/>
      <rect x="49" y="165" width="62" height="32" class="nonterminal"/>
      <text class="nonterminal" x="59" y="185">Values</text>
   </a>
   <a xmlns:xlink="http://www.w3.org/1999/xlink"
       xlink:href="#Insert"
       xlink:title="Insert">
      <rect x="51" y="211" width="58" height="32"/>
      <rect x="49" y="209" width="58" height="32" class="nonterminal"/>
      <text class="nonterminal" x="59" y="229">Insert</text>
   </a>
   <path class="line"
          d="m17 17 h2 m20 0 h10 m58 0 h10 m20 0 h10 m0 0 h246 m-276 0 h20 m256 0 h20 m-296 0 q10 0 10 10 m276 0 q0 -10 10 -10 m-286 10 v12 m276 0 v-12 m-276 12 q0 10 10 10 m256 0 q10 0 10 -10 m-246 10 h10 m78 0 h10 m0 0 h40 m-158 0 h20 m138 0 h20 m-178 0 q10 0 10 10 m158 0 q0 -10 10 -10 m-168 10 v24 m158 0 v-24 m-158 24 q0 10 10 10 m138 0 q10 0 10 -10 m-148 10 h10 m64 0 h10 m0 0 h54 m-148 -10 v20 m158 0 v-20 m-158 20 v24 m158 0 v-24 m-158 24 q0 10 10 10 m138 0 q10 0 10 -10 m-148 10 h10 m118 0 h10 m20 -88 h10 m58 0 h10 m-374 -32 h20 m374 0 h20 m-414 0 q10 0 10 10 m394 0 q0 -10 10 -10 m-404 10 v144 m394 0 v-144 m-394 144 q0 10 10 10 m374 0 q10 0 10 -10 m-384 10 h10 m62 0 h10 m0 0 h292 m-384 -10 v20 m394 0 v-20 m-394 20 v24 m394 0 v-24 m-394 24 q0 10 10 10 m374 0 q10 0 10 -10 m-384 10 h10 m58 0 h10 m0 0 h296 m23 -208 h-3"/>
   <polygon points="443 17 451 13 451 21"/>
   <polygon points="443 17 435 13 435 21"/>
</svg>
