<?xml version="1.0" encoding="UTF-8"?>
<svg xmlns="http://www.w3.org/2000/svg" width="529" height="113">
   <defs>
      <style type="text/css">
    @namespace "http://www.w3.org/2000/svg";
    .line                 {fill: none; stroke: #320000; stroke-width: 1;}
    .bold-line            {stroke: #FFE0E0; shape-rendering: crispEdges; stroke-width: 2;}
    .thin-line            {stroke: #1F0000; shape-rendering: crispEdges}
    .filled               {fill: #320000; stroke: none;}
    text.terminal         {font-family: HelveticaNeueCyr, Sans-serif;
                            font-size: 14px;
                            fill: #FFE0E0;
                            font-weight: bold;
                          }
    text.nonterminal      {font-family: HelveticaNeueCyr, Sans-serif;
                            font-size: 14px;
                            fill: #FFE0E0;
                            font-weight: normal;
                          }
    text.regexp           {font-family: HelveticaNeueCyr, Sans-serif;
                            font-size: 14px;
                            fill: #1F0000;
                            font-weight: normal;
                          }
    rect, circle, polygon {fill: #320000; stroke: #320000;}
    rect.terminal         {fill: #FF0000; stroke: #320000; stroke-width: 1;}
    rect.nonterminal      {fill: #FF3F3F; stroke: #320000; stroke-width: 1;}
    rect.text             {fill: none; stroke: none;}
    polygon.regexp        {fill: #FF5E5E; stroke: #320000; stroke-width: 1;}
  </style>
   </defs>
   <polygon points="9 17 1 13 1 21"/>
   <polygon points="17 17 9 13 9 21"/>
   <a xmlns:xlink="http://www.w3.org/1999/xlink"
       xlink:href="#table"
       xlink:title="table">
      <rect x="71" y="35" width="52" height="32"/>
      <rect x="69" y="33" width="52" height="32" class="nonterminal"/>
      <text class="nonterminal" x="79" y="53">table</text>
   </a>
   <rect x="71" y="79" width="26" height="32" rx="10"/>
   <rect x="69"
          y="77"
          width="26"
          height="32"
          class="terminal"
          rx="10"/>
   <text class="terminal" x="79" y="97">"</text>
   <a xmlns:xlink="http://www.w3.org/1999/xlink"
       xlink:href="#table"
       xlink:title="table">
      <rect x="117" y="79" width="52" height="32"/>
      <rect x="115" y="77" width="52" height="32" class="nonterminal"/>
      <text class="nonterminal" x="125" y="97">table</text>
   </a>
   <rect x="189" y="79" width="26" height="32" rx="10"/>
   <rect x="187"
          y="77"
          width="26"
          height="32"
          class="terminal"
          rx="10"/>
   <text class="terminal" x="197" y="97">"</text>
   <rect x="255" y="35" width="24" height="32" rx="10"/>
   <rect x="253"
          y="33"
          width="24"
          height="32"
          class="terminal"
          rx="10"/>
   <text class="terminal" x="263" y="53">.</text>
   <a xmlns:xlink="http://www.w3.org/1999/xlink"
       xlink:href="#alias"
       xlink:title="alias">
      <rect x="339" y="3" width="50" height="32"/>
      <rect x="337" y="1" width="50" height="32" class="nonterminal"/>
      <text class="nonterminal" x="347" y="21">alias</text>
   </a>
   <rect x="339" y="47" width="26" height="32" rx="10"/>
   <rect x="337"
          y="45"
          width="26"
          height="32"
          class="terminal"
          rx="10"/>
   <text class="terminal" x="347" y="65">"</text>
   <a xmlns:xlink="http://www.w3.org/1999/xlink"
       xlink:href="#alias"
       xlink:title="alias">
      <rect x="385" y="47" width="50" height="32"/>
      <rect x="383" y="45" width="50" height="32" class="nonterminal"/>
      <text class="nonterminal" x="393" y="65">alias</text>
   </a>
   <rect x="455" y="47" width="26" height="32" rx="10"/>
   <rect x="453"
          y="45"
          width="26"
          height="32"
          class="terminal"
          rx="10"/>
   <text class="terminal" x="463" y="65">"</text>
   <path class="line"
          d="m17 17 h2 m20 0 h10 m0 0 h238 m-268 0 h20 m248 0 h20 m-288 0 q10 0 10 10 m268 0 q0 -10 10 -10 m-278 10 v12 m268 0 v-12 m-268 12 q0 10 10 10 m248 0 q10 0 10 -10 m-238 10 h10 m52 0 h10 m0 0 h92 m-184 0 h20 m164 0 h20 m-204 0 q10 0 10 10 m184 0 q0 -10 10 -10 m-194 10 v24 m184 0 v-24 m-184 24 q0 10 10 10 m164 0 q10 0 10 -10 m-174 10 h10 m26 0 h10 m0 0 h10 m52 0 h10 m0 0 h10 m26 0 h10 m20 -44 h10 m24 0 h10 m40 -32 h10 m50 0 h10 m0 0 h92 m-182 0 h20 m162 0 h20 m-202 0 q10 0 10 10 m182 0 q0 -10 10 -10 m-192 10 v24 m182 0 v-24 m-182 24 q0 10 10 10 m162 0 q10 0 10 -10 m-172 10 h10 m26 0 h10 m0 0 h10 m50 0 h10 m0 0 h10 m26 0 h10 m23 -44 h-3"/>
   <polygon points="519 17 527 13 527 21"/>
   <polygon points="519 17 511 13 511 21"/>
</svg>
