<?xml version="1.0" encoding="UTF-8"?>
<svg xmlns="http://www.w3.org/2000/svg" width="531" height="113">
   <defs>
      <style type="text/css">
    @namespace "http://www.w3.org/2000/svg";
    .line                 {fill: none; stroke: #113300; stroke-width: 1;}
    .bold-line            {stroke: #071400; shape-rendering: crispEdges; stroke-width: 2;}
    .thin-line            {stroke: #0A1F00; shape-rendering: crispEdges}
    .filled               {fill: #113300; stroke: none;}
    text.terminal         {font-family: Verdana, Sans-serif;
                            font-size: 12px;
                            fill: #071400;
                            font-weight: bold;
                          }
    text.nonterminal      {font-family: Verdana, Sans-serif;
                            font-size: 12px;
                            fill: #091A00;
                            font-weight: normal;
                          }
    text.regexp           {font-family: Verdana, Sans-serif;
                            font-size: 12px;
                            fill: #0A1F00;
                            font-weight: normal;
                          }
    rect, circle, polygon {fill: #113300; stroke: #113300;}
    rect.terminal         {fill: #88FF4D; stroke: #113300; stroke-width: 1;}
    rect.nonterminal      {fill: #BFFF9E; stroke: #113300; stroke-width: 1;}
    rect.text             {fill: none; stroke: none;}
    polygon.regexp        {fill: #DAFFC7; stroke: #113300; stroke-width: 1;}
  </style>
   </defs>
   <polygon points="9 17 1 13 1 21"/>
   <polygon points="17 17 9 13 9 21"/>
   <a xmlns:xlink="http://www.w3.org/1999/xlink"
       xlink:href="#Table"
       xlink:title="Table">
      <rect x="71" y="35" width="54" height="32"/>
      <rect x="69" y="33" width="54" height="32" class="nonterminal"/>
      <text class="nonterminal" x="79" y="53">Table</text>
   </a>
   <rect x="71" y="79" width="26" height="32" rx="10"/>
   <rect x="69"
          y="77"
          width="26"
          height="32"
          class="terminal"
          rx="10"/>
   <text class="terminal" x="79" y="97">"</text>
   <a xmlns:xlink="http://www.w3.org/1999/xlink"
       xlink:href="#Table"
       xlink:title="Table">
      <rect x="117" y="79" width="54" height="32"/>
      <rect x="115" y="77" width="54" height="32" class="nonterminal"/>
      <text class="nonterminal" x="125" y="97">Table</text>
   </a>
   <rect x="191" y="79" width="26" height="32" rx="10"/>
   <rect x="189"
          y="77"
          width="26"
          height="32"
          class="terminal"
          rx="10"/>
   <text class="terminal" x="199" y="97">"</text>
   <rect x="257" y="35" width="24" height="32" rx="10"/>
   <rect x="255"
          y="33"
          width="24"
          height="32"
          class="terminal"
          rx="10"/>
   <text class="terminal" x="265" y="53">.</text>
   <a xmlns:xlink="http://www.w3.org/1999/xlink"
       xlink:href="#Alias"
       xlink:title="Alias">
      <rect x="341" y="3" width="50" height="32"/>
      <rect x="339" y="1" width="50" height="32" class="nonterminal"/>
      <text class="nonterminal" x="349" y="21">Alias</text>
   </a>
   <rect x="341" y="47" width="26" height="32" rx="10"/>
   <rect x="339"
          y="45"
          width="26"
          height="32"
          class="terminal"
          rx="10"/>
   <text class="terminal" x="349" y="65">"</text>
   <a xmlns:xlink="http://www.w3.org/1999/xlink"
       xlink:href="#Alias"
       xlink:title="Alias">
      <rect x="387" y="47" width="50" height="32"/>
      <rect x="385" y="45" width="50" height="32" class="nonterminal"/>
      <text class="nonterminal" x="395" y="65">Alias</text>
   </a>
   <rect x="457" y="47" width="26" height="32" rx="10"/>
   <rect x="455"
          y="45"
          width="26"
          height="32"
          class="terminal"
          rx="10"/>
   <text class="terminal" x="465" y="65">"</text>
   <path class="line"
          d="m17 17 h2 m20 0 h10 m0 0 h240 m-270 0 h20 m250 0 h20 m-290 0 q10 0 10 10 m270 0 q0 -10 10 -10 m-280 10 v12 m270 0 v-12 m-270 12 q0 10 10 10 m250 0 q10 0 10 -10 m-240 10 h10 m54 0 h10 m0 0 h92 m-186 0 h20 m166 0 h20 m-206 0 q10 0 10 10 m186 0 q0 -10 10 -10 m-196 10 v24 m186 0 v-24 m-186 24 q0 10 10 10 m166 0 q10 0 10 -10 m-176 10 h10 m26 0 h10 m0 0 h10 m54 0 h10 m0 0 h10 m26 0 h10 m20 -44 h10 m24 0 h10 m40 -32 h10 m50 0 h10 m0 0 h92 m-182 0 h20 m162 0 h20 m-202 0 q10 0 10 10 m182 0 q0 -10 10 -10 m-192 10 v24 m182 0 v-24 m-182 24 q0 10 10 10 m162 0 q10 0 10 -10 m-172 10 h10 m26 0 h10 m0 0 h10 m50 0 h10 m0 0 h10 m26 0 h10 m23 -44 h-3"/>
   <polygon points="521 17 529 13 529 21"/>
   <polygon points="521 17 513 13 513 21"/>
</svg>
