<?xml version="1.0" encoding="UTF-8"?>
<svg xmlns="http://www.w3.org/2000/svg" width="971" height="337">
   <defs>
      <style type="text/css">
    @namespace "http://www.w3.org/2000/svg";
    .line                 {fill: none; stroke: #320000; stroke-width: 1;}
    .bold-line            {stroke: #FFE0E0; shape-rendering: crispEdges; stroke-width: 2;}
    .thin-line            {stroke: #1F0000; shape-rendering: crispEdges}
    .filled               {fill: #320000; stroke: none;}
    text.terminal         {font-family: HelveticaNeueCyr, Sans-serif;
                            font-size: 14px;
                            fill: #FFE0E0;
                            font-weight: bold;
                          }
    text.nonterminal      {font-family: HelveticaNeueCyr, Sans-serif;
                            font-size: 14px;
                            fill: #FFE0E0;
                            font-weight: normal;
                          }
    text.regexp           {font-family: HelveticaNeueCyr, Sans-serif;
                            font-size: 14px;
                            fill: #1F0000;
                            font-weight: normal;;
                          }
    rect, circle, polygon {fill: #320000; stroke: #320000;}
    rect.terminal         {fill: #FF0000; stroke: #320000; stroke-width: 1;}
    rect.nonterminal      {fill: #FF3F3F; stroke: #320000; stroke-width: 1;}
    rect.text             {fill: none; stroke: none;}
    polygon.regexp        {fill: #FF5E5E; stroke: #320000; stroke-width: 1;}
  </style>
   </defs>
   <polygon points="9 61 1 57 1 65"/>
   <polygon points="17 61 9 57 9 65"/>
   <rect x="31" y="47" width="70" height="32" rx="10"/>
   <rect x="29"
          y="45"
          width="70"
          height="32"
          class="terminal"
          rx="10"/>
   <text class="terminal" x="39" y="65">SELECT</text>
   <a xmlns:xlink="http://www.w3.org/1999/xlink"
       xlink:href="#column"
       xlink:title="column">
      <rect x="141" y="47" width="64" height="32"/>
      <rect x="139" y="45" width="64" height="32" class="nonterminal"/>
      <text class="nonterminal" x="149" y="65">column</text>
   </a>
   <rect x="141" y="3" width="24" height="32" rx="10"/>
   <rect x="139"
          y="1"
          width="24"
          height="32"
          class="terminal"
          rx="10"/>
   <text class="terminal" x="149" y="21">,</text>
   <rect x="245" y="47" width="60" height="32" rx="10"/>
   <rect x="243"
          y="45"
          width="60"
          height="32"
          class="terminal"
          rx="10"/>
   <text class="terminal" x="253" y="65">FROM</text>
   <a xmlns:xlink="http://www.w3.org/1999/xlink"
       xlink:href="#table"
       xlink:title="table">
      <rect x="345" y="47" width="52" height="32"/>
      <rect x="343" y="45" width="52" height="32" class="nonterminal"/>
      <text class="nonterminal" x="353" y="65">table</text>
   </a>
   <a xmlns:xlink="http://www.w3.org/1999/xlink"
       xlink:href="#SELECT"
       xlink:title="SELECT">
      <rect x="345" y="91" width="66" height="32"/>
      <rect x="343" y="89" width="66" height="32" class="nonterminal"/>
      <text class="nonterminal" x="353" y="109">SELECT</text>
   </a>
   <rect x="471" y="79" width="38" height="32" rx="10"/>
   <rect x="469"
          y="77"
          width="38"
          height="32"
          class="terminal"
          rx="10"/>
   <text class="terminal" x="479" y="97">AS</text>
   <a xmlns:xlink="http://www.w3.org/1999/xlink"
       xlink:href="#alias"
       xlink:title="alias">
      <rect x="529" y="79" width="50" height="32"/>
      <rect x="527" y="77" width="50" height="32" class="nonterminal"/>
      <text class="nonterminal" x="537" y="97">alias</text>
   </a>
   <rect x="65" y="205" width="64" height="32" rx="10"/>
   <rect x="63"
          y="203"
          width="64"
          height="32"
          class="terminal"
          rx="10"/>
   <text class="terminal" x="73" y="223">INNER</text>
   <rect x="169" y="173" width="54" height="32" rx="10"/>
   <rect x="167"
          y="171"
          width="54"
          height="32"
          class="terminal"
          rx="10"/>
   <text class="terminal" x="177" y="191">JOIN</text>
   <a xmlns:xlink="http://www.w3.org/1999/xlink"
       xlink:href="#table"
       xlink:title="table">
      <rect x="263" y="173" width="52" height="32"/>
      <rect x="261" y="171" width="52" height="32" class="nonterminal"/>
      <text class="nonterminal" x="271" y="191">table</text>
   </a>
   <a xmlns:xlink="http://www.w3.org/1999/xlink"
       xlink:href="#SELECT"
       xlink:title="SELECT">
      <rect x="263" y="217" width="66" height="32"/>
      <rect x="261" y="215" width="66" height="32" class="nonterminal"/>
      <text class="nonterminal" x="271" y="235">SELECT</text>
   </a>
   <rect x="389" y="205" width="38" height="32" rx="10"/>
   <rect x="387"
          y="203"
          width="38"
          height="32"
          class="terminal"
          rx="10"/>
   <text class="terminal" x="397" y="223">AS</text>
   <a xmlns:xlink="http://www.w3.org/1999/xlink"
       xlink:href="#alias"
       xlink:title="alias">
      <rect x="447" y="205" width="50" height="32"/>
      <rect x="445" y="203" width="50" height="32" class="nonterminal"/>
      <text class="nonterminal" x="455" y="223">alias</text>
   </a>
   <rect x="537" y="173" width="40" height="32" rx="10"/>
   <rect x="535"
          y="171"
          width="40"
          height="32"
          class="terminal"
          rx="10"/>
   <text class="terminal" x="545" y="191">ON</text>
   <a xmlns:xlink="http://www.w3.org/1999/xlink"
       xlink:href="#expression"
       xlink:title="expression">
      <rect x="597" y="173" width="90" height="32"/>
      <rect x="595" y="171" width="90" height="32" class="nonterminal"/>
      <text class="nonterminal" x="605" y="191">expression</text>
   </a>
   <rect x="747" y="173" width="90" height="32" rx="10"/>
   <rect x="745"
          y="171"
          width="90"
          height="32"
          class="terminal"
          rx="10"/>
   <text class="terminal" x="755" y="191">GROUP BY</text>
   <a xmlns:xlink="http://www.w3.org/1999/xlink"
       xlink:href="#groupby"
       xlink:title="groupby">
      <rect x="857" y="173" width="72" height="32"/>
      <rect x="855" y="171" width="72" height="32" class="nonterminal"/>
      <text class="nonterminal" x="865" y="191">groupby</text>
   </a>
   <rect x="743" y="303" width="70" height="32" rx="10"/>
   <rect x="741"
          y="301"
          width="70"
          height="32"
          class="terminal"
          rx="10"/>
   <text class="terminal" x="751" y="321">WHERE</text>
   <a xmlns:xlink="http://www.w3.org/1999/xlink"
       xlink:href="#expression"
       xlink:title="expression">
      <rect x="833" y="303" width="90" height="32"/>
      <rect x="831" y="301" width="90" height="32" class="nonterminal"/>
      <text class="nonterminal" x="841" y="321">expression</text>
   </a>
   <path class="line"
          d="m17 61 h2 m0 0 h10 m70 0 h10 m20 0 h10 m64 0 h10 m-104 0 l20 0 m-1 0 q-9 0 -9 -10 l0 -24 q0 -10 10 -10 m84 44 l20 0 m-20 0 q10 0 10 -10 l0 -24 q0 -10 -10 -10 m-84 0 h10 m24 0 h10 m0 0 h40 m20 44 h10 m60 0 h10 m20 0 h10 m52 0 h10 m0 0 h14 m-106 0 h20 m86 0 h20 m-126 0 q10 0 10 10 m106 0 q0 -10 10 -10 m-116 10 v24 m106 0 v-24 m-106 24 q0 10 10 10 m86 0 q10 0 10 -10 m-96 10 h10 m66 0 h10 m40 -44 h10 m0 0 h118 m-148 0 h20 m128 0 h20 m-168 0 q10 0 10 10 m148 0 q0 -10 10 -10 m-158 10 v12 m148 0 v-12 m-148 12 q0 10 10 10 m128 0 q10 0 10 -10 m-138 10 h10 m38 0 h10 m0 0 h10 m50 0 h10 m22 -32 l2 0 m2 0 l2 0 m2 0 l2 0 m-618 94 l2 0 m2 0 l2 0 m2 0 l2 0 m22 0 h10 m0 0 h652 m-682 0 h20 m662 0 h20 m-702 0 q10 0 10 10 m682 0 q0 -10 10 -10 m-692 10 v12 m682 0 v-12 m-682 12 q0 10 10 10 m662 0 q10 0 10 -10 m-652 10 h10 m0 0 h74 m-104 0 h20 m84 0 h20 m-124 0 q10 0 10 10 m104 0 q0 -10 10 -10 m-114 10 v12 m104 0 v-12 m-104 12 q0 10 10 10 m84 0 q10 0 10 -10 m-94 10 h10 m64 0 h10 m20 -32 h10 m54 0 h10 m20 0 h10 m52 0 h10 m0 0 h14 m-106 0 h20 m86 0 h20 m-126 0 q10 0 10 10 m106 0 q0 -10 10 -10 m-116 10 v24 m106 0 v-24 m-106 24 q0 10 10 10 m86 0 q10 0 10 -10 m-96 10 h10 m66 0 h10 m40 -44 h10 m0 0 h118 m-148 0 h20 m128 0 h20 m-168 0 q10 0 10 10 m148 0 q0 -10 10 -10 m-158 10 v12 m148 0 v-12 m-148 12 q0 10 10 10 m128 0 q10 0 10 -10 m-138 10 h10 m38 0 h10 m0 0 h10 m50 0 h10 m20 -32 h10 m40 0 h10 m0 0 h10 m90 0 h10 m40 -32 h10 m0 0 h192 m-222 0 h20 m202 0 h20 m-242 0 q10 0 10 10 m222 0 q0 -10 10 -10 m-232 10 v12 m222 0 v-12 m-222 12 q0 10 10 10 m202 0 q10 0 10 -10 m-212 10 h10 m90 0 h10 m0 0 h10 m72 0 h10 m22 -32 l2 0 m2 0 l2 0 m2 0 l2 0 m-270 130 l2 0 m2 0 l2 0 m2 0 l2 0 m22 0 h10 m0 0 h190 m-220 0 h20 m200 0 h20 m-240 0 q10 0 10 10 m220 0 q0 -10 10 -10 m-230 10 v12 m220 0 v-12 m-220 12 q0 10 10 10 m200 0 q10 0 10 -10 m-210 10 h10 m70 0 h10 m0 0 h10 m90 0 h10 m23 -32 h-3"/>
   <polygon points="961 285 969 281 969 289"/>
   <polygon points="961 285 953 281 953 289"/>
</svg>
