<?xml version="1.0" encoding="UTF-8"?>
<svg xmlns="http://www.w3.org/2000/svg" width="929" height="337">
   <defs>
      <style type="text/css">
    @namespace "http://www.w3.org/2000/svg";
    .line                 {fill: none; stroke: #113300; stroke-width: 1;}
    .bold-line            {stroke: #071400; shape-rendering: crispEdges; stroke-width: 2;}
    .thin-line            {stroke: #0A1F00; shape-rendering: crispEdges}
    .filled               {fill: #113300; stroke: none;}
    text.terminal         {font-family: Verdana, Sans-serif;
                            font-size: 12px;
                            fill: #071400;
                            font-weight: bold;
                          }
    text.nonterminal      {font-family: Verdana, Sans-serif;
                            font-size: 12px;
                            fill: #091A00;
                            font-weight: normal;
                          }
    text.regexp           {font-family: Verdana, Sans-serif;
                            font-size: 12px;
                            fill: #0A1F00;
                            font-weight: normal;
                          }
    rect, circle, polygon {fill: #113300; stroke: #113300;}
    rect.terminal         {fill: #88FF4D; stroke: #113300; stroke-width: 1;}
    rect.nonterminal      {fill: #BFFF9E; stroke: #113300; stroke-width: 1;}
    rect.text             {fill: none; stroke: none;}
    polygon.regexp        {fill: #DAFFC7; stroke: #113300; stroke-width: 1;}
  </style>
   </defs>
   <polygon points="9 61 1 57 1 65"/>
   <polygon points="17 61 9 57 9 65"/>
   <rect x="31" y="47" width="60" height="32" rx="10"/>
   <rect x="29"
          y="45"
          width="60"
          height="32"
          class="terminal"
          rx="10"/>
   <text class="terminal" x="39" y="65">select</text>
   <a xmlns:xlink="http://www.w3.org/1999/xlink"
       xlink:href="#Column"
       xlink:title="Column">
      <rect x="131" y="47" width="68" height="32"/>
      <rect x="129" y="45" width="68" height="32" class="nonterminal"/>
      <text class="nonterminal" x="139" y="65">Column</text>
   </a>
   <rect x="131" y="3" width="24" height="32" rx="10"/>
   <rect x="129"
          y="1"
          width="24"
          height="32"
          class="terminal"
          rx="10"/>
   <text class="terminal" x="139" y="21">,</text>
   <rect x="239" y="47" width="52" height="32" rx="10"/>
   <rect x="237"
          y="45"
          width="52"
          height="32"
          class="terminal"
          rx="10"/>
   <text class="terminal" x="247" y="65">from</text>
   <a xmlns:xlink="http://www.w3.org/1999/xlink"
       xlink:href="#Table"
       xlink:title="Table">
      <rect x="331" y="47" width="54" height="32"/>
      <rect x="329" y="45" width="54" height="32" class="nonterminal"/>
      <text class="nonterminal" x="339" y="65">Table</text>
   </a>
   <a xmlns:xlink="http://www.w3.org/1999/xlink"
       xlink:href="#Select"
       xlink:title="Select">
      <rect x="331" y="91" width="58" height="32"/>
      <rect x="329" y="89" width="58" height="32" class="nonterminal"/>
      <text class="nonterminal" x="339" y="109">Select</text>
   </a>
   <rect x="449" y="79" width="34" height="32" rx="10"/>
   <rect x="447"
          y="77"
          width="34"
          height="32"
          class="terminal"
          rx="10"/>
   <text class="terminal" x="457" y="97">as</text>
   <a xmlns:xlink="http://www.w3.org/1999/xlink"
       xlink:href="#Alias"
       xlink:title="Alias">
      <rect x="503" y="79" width="50" height="32"/>
      <rect x="501" y="77" width="50" height="32" class="nonterminal"/>
      <text class="nonterminal" x="511" y="97">Alias</text>
   </a>
   <rect x="65" y="205" width="54" height="32" rx="10"/>
   <rect x="63"
          y="203"
          width="54"
          height="32"
          class="terminal"
          rx="10"/>
   <text class="terminal" x="73" y="223">inner</text>
   <rect x="159" y="173" width="46" height="32" rx="10"/>
   <rect x="157"
          y="171"
          width="46"
          height="32"
          class="terminal"
          rx="10"/>
   <text class="terminal" x="167" y="191">join</text>
   <a xmlns:xlink="http://www.w3.org/1999/xlink"
       xlink:href="#Table"
       xlink:title="Table">
      <rect x="245" y="173" width="54" height="32"/>
      <rect x="243" y="171" width="54" height="32" class="nonterminal"/>
      <text class="nonterminal" x="253" y="191">Table</text>
   </a>
   <a xmlns:xlink="http://www.w3.org/1999/xlink"
       xlink:href="#Select"
       xlink:title="Select">
      <rect x="245" y="217" width="58" height="32"/>
      <rect x="243" y="215" width="58" height="32" class="nonterminal"/>
      <text class="nonterminal" x="253" y="235">Select</text>
   </a>
   <rect x="363" y="205" width="34" height="32" rx="10"/>
   <rect x="361"
          y="203"
          width="34"
          height="32"
          class="terminal"
          rx="10"/>
   <text class="terminal" x="371" y="223">as</text>
   <a xmlns:xlink="http://www.w3.org/1999/xlink"
       xlink:href="#Alias"
       xlink:title="Alias">
      <rect x="417" y="205" width="50" height="32"/>
      <rect x="415" y="203" width="50" height="32" class="nonterminal"/>
      <text class="nonterminal" x="425" y="223">Alias</text>
   </a>
   <rect x="507" y="173" width="36" height="32" rx="10"/>
   <rect x="505"
          y="171"
          width="36"
          height="32"
          class="terminal"
          rx="10"/>
   <text class="terminal" x="515" y="191">on</text>
   <a xmlns:xlink="http://www.w3.org/1999/xlink"
       xlink:href="#Expression"
       xlink:title="Expression">
      <rect x="563" y="173" width="90" height="32"/>
      <rect x="561" y="171" width="90" height="32" class="nonterminal"/>
      <text class="nonterminal" x="571" y="191">Expression</text>
   </a>
   <rect x="713" y="173" width="80" height="32" rx="10"/>
   <rect x="711"
          y="171"
          width="80"
          height="32"
          class="terminal"
          rx="10"/>
   <text class="terminal" x="721" y="191">group by</text>
   <a xmlns:xlink="http://www.w3.org/1999/xlink"
       xlink:href="#GroupBy"
       xlink:title="GroupBy">
      <rect x="813" y="173" width="74" height="32"/>
      <rect x="811" y="171" width="74" height="32" class="nonterminal"/>
      <text class="nonterminal" x="821" y="191">GroupBy</text>
   </a>
   <rect x="709" y="303" width="62" height="32" rx="10"/>
   <rect x="707"
          y="301"
          width="62"
          height="32"
          class="terminal"
          rx="10"/>
   <text class="terminal" x="717" y="321">where</text>
   <a xmlns:xlink="http://www.w3.org/1999/xlink"
       xlink:href="#Expression"
       xlink:title="Expression">
      <rect x="791" y="303" width="90" height="32"/>
      <rect x="789" y="301" width="90" height="32" class="nonterminal"/>
      <text class="nonterminal" x="799" y="321">Expression</text>
   </a>
   <path class="line"
          d="m17 61 h2 m0 0 h10 m60 0 h10 m20 0 h10 m68 0 h10 m-108 0 l20 0 m-1 0 q-9 0 -9 -10 l0 -24 q0 -10 10 -10 m88 44 l20 0 m-20 0 q10 0 10 -10 l0 -24 q0 -10 -10 -10 m-88 0 h10 m24 0 h10 m0 0 h44 m20 44 h10 m52 0 h10 m20 0 h10 m54 0 h10 m0 0 h4 m-98 0 h20 m78 0 h20 m-118 0 q10 0 10 10 m98 0 q0 -10 10 -10 m-108 10 v24 m98 0 v-24 m-98 24 q0 10 10 10 m78 0 q10 0 10 -10 m-88 10 h10 m58 0 h10 m40 -44 h10 m0 0 h114 m-144 0 h20 m124 0 h20 m-164 0 q10 0 10 10 m144 0 q0 -10 10 -10 m-154 10 v12 m144 0 v-12 m-144 12 q0 10 10 10 m124 0 q10 0 10 -10 m-134 10 h10 m34 0 h10 m0 0 h10 m50 0 h10 m22 -32 l2 0 m2 0 l2 0 m2 0 l2 0 m-592 94 l2 0 m2 0 l2 0 m2 0 l2 0 m22 0 h10 m0 0 h618 m-648 0 h20 m628 0 h20 m-668 0 q10 0 10 10 m648 0 q0 -10 10 -10 m-658 10 v12 m648 0 v-12 m-648 12 q0 10 10 10 m628 0 q10 0 10 -10 m-618 10 h10 m0 0 h64 m-94 0 h20 m74 0 h20 m-114 0 q10 0 10 10 m94 0 q0 -10 10 -10 m-104 10 v12 m94 0 v-12 m-94 12 q0 10 10 10 m74 0 q10 0 10 -10 m-84 10 h10 m54 0 h10 m20 -32 h10 m46 0 h10 m20 0 h10 m54 0 h10 m0 0 h4 m-98 0 h20 m78 0 h20 m-118 0 q10 0 10 10 m98 0 q0 -10 10 -10 m-108 10 v24 m98 0 v-24 m-98 24 q0 10 10 10 m78 0 q10 0 10 -10 m-88 10 h10 m58 0 h10 m40 -44 h10 m0 0 h114 m-144 0 h20 m124 0 h20 m-164 0 q10 0 10 10 m144 0 q0 -10 10 -10 m-154 10 v12 m144 0 v-12 m-144 12 q0 10 10 10 m124 0 q10 0 10 -10 m-134 10 h10 m34 0 h10 m0 0 h10 m50 0 h10 m20 -32 h10 m36 0 h10 m0 0 h10 m90 0 h10 m40 -32 h10 m0 0 h184 m-214 0 h20 m194 0 h20 m-234 0 q10 0 10 10 m214 0 q0 -10 10 -10 m-224 10 v12 m214 0 v-12 m-214 12 q0 10 10 10 m194 0 q10 0 10 -10 m-204 10 h10 m80 0 h10 m0 0 h10 m74 0 h10 m22 -32 l2 0 m2 0 l2 0 m2 0 l2 0 m-262 130 l2 0 m2 0 l2 0 m2 0 l2 0 m22 0 h10 m0 0 h182 m-212 0 h20 m192 0 h20 m-232 0 q10 0 10 10 m212 0 q0 -10 10 -10 m-222 10 v12 m212 0 v-12 m-212 12 q0 10 10 10 m192 0 q10 0 10 -10 m-202 10 h10 m62 0 h10 m0 0 h10 m90 0 h10 m23 -32 h-3"/>
   <polygon points="919 285 927 281 927 289"/>
   <polygon points="919 285 911 281 911 289"/>
</svg>
