<?xml version="1.0" encoding="UTF-8"?>
<svg xmlns="http://www.w3.org/2000/svg" width="387" height="597">
   <defs>
      <style type="text/css">
    @namespace "http://www.w3.org/2000/svg";
    .line                 {fill: none; stroke: #113300; stroke-width: 1;}
    .bold-line            {stroke: #071400; shape-rendering: crispEdges; stroke-width: 2;}
    .thin-line            {stroke: #0A1F00; shape-rendering: crispEdges}
    .filled               {fill: #113300; stroke: none;}
    text.terminal         {font-family: Verdana, Sans-serif;
                            font-size: 12px;
                            fill: #071400;
                            font-weight: bold;
                          }
    text.nonterminal      {font-family: Verdana, Sans-serif;
                            font-size: 12px;
                            fill: #091A00;
                            font-weight: normal;
                          }
    text.regexp           {font-family: Verdana, Sans-serif;
                            font-size: 12px;
                            fill: #0A1F00;
                            font-weight: normal;
                          }
    rect, circle, polygon {fill: #113300; stroke: #113300;}
    rect.terminal         {fill: #88FF4D; stroke: #113300; stroke-width: 1;}
    rect.nonterminal      {fill: #BFFF9E; stroke: #113300; stroke-width: 1;}
    rect.text             {fill: none; stroke: none;}
    polygon.regexp        {fill: #DAFFC7; stroke: #113300; stroke-width: 1;}
  </style>
   </defs>
   <polygon points="9 17 1 13 1 21"/>
   <polygon points="17 17 9 13 9 21"/>
   <rect x="51" y="3" width="44" height="32" rx="10"/>
   <rect x="49"
          y="1"
          width="44"
          height="32"
          class="terminal"
          rx="10"/>
   <text class="terminal" x="59" y="21">any</text>
   <rect x="51" y="47" width="48" height="32" rx="10"/>
   <rect x="49"
          y="45"
          width="48"
          height="32"
          class="terminal"
          rx="10"/>
   <text class="terminal" x="59" y="65">bool</text>
   <rect x="51" y="91" width="72" height="32" rx="10"/>
   <rect x="49"
          y="89"
          width="72"
          height="32"
          class="terminal"
          rx="10"/>
   <text class="terminal" x="59" y="109">boolean</text>
   <rect x="51" y="135" width="72" height="32" rx="10"/>
   <rect x="49"
          y="133"
          width="72"
          height="32"
          class="terminal"
          rx="10"/>
   <text class="terminal" x="59" y="153">decimal</text>
   <rect x="51" y="179" width="66" height="32" rx="10"/>
   <rect x="49"
          y="177"
          width="66"
          height="32"
          class="terminal"
          rx="10"/>
   <text class="terminal" x="59" y="197">double</text>
   <rect x="51" y="223" width="38" height="32" rx="10"/>
   <rect x="49"
          y="221"
          width="38"
          height="32"
          class="terminal"
          rx="10"/>
   <text class="terminal" x="59" y="241">int</text>
   <rect x="51" y="267" width="68" height="32" rx="10"/>
   <rect x="49"
          y="265"
          width="68"
          height="32"
          class="terminal"
          rx="10"/>
   <text class="terminal" x="59" y="285">integer</text>
   <rect x="51" y="311" width="72" height="32" rx="10"/>
   <rect x="49"
          y="309"
          width="72"
          height="32"
          class="terminal"
          rx="10"/>
   <text class="terminal" x="59" y="329">number</text>
   <rect x="51" y="355" width="60" height="32" rx="10"/>
   <rect x="49"
          y="353"
          width="60"
          height="32"
          class="terminal"
          rx="10"/>
   <text class="terminal" x="59" y="373">scalar</text>
   <rect x="51" y="399" width="60" height="32" rx="10"/>
   <rect x="49"
          y="397"
          width="60"
          height="32"
          class="terminal"
          rx="10"/>
   <text class="terminal" x="59" y="417">string</text>
   <rect x="51" y="443" width="46" height="32" rx="10"/>
   <rect x="49"
          y="441"
          width="46"
          height="32"
          class="terminal"
          rx="10"/>
   <text class="terminal" x="59" y="461">text</text>
   <rect x="51" y="487" width="82" height="32" rx="10"/>
   <rect x="49"
          y="485"
          width="82"
          height="32"
          class="terminal"
          rx="10"/>
   <text class="terminal" x="59" y="505">unsigned</text>
   <rect x="51" y="531" width="72" height="32" rx="10"/>
   <rect x="49"
          y="529"
          width="72"
          height="32"
          class="terminal"
          rx="10"/>
   <text class="terminal" x="59" y="549">varchar</text>
   <rect x="163" y="563" width="26" height="32" rx="10"/>
   <rect x="161"
          y="561"
          width="26"
          height="32"
          class="terminal"
          rx="10"/>
   <text class="terminal" x="171" y="581">(</text>
   <a xmlns:xlink="http://www.w3.org/1999/xlink"
       xlink:href="#Length"
       xlink:title="Length">
      <rect x="209" y="563" width="64" height="32"/>
      <rect x="207" y="561" width="64" height="32" class="nonterminal"/>
      <text class="nonterminal" x="217" y="581">Length</text>
   </a>
   <rect x="293" y="563" width="26" height="32" rx="10"/>
   <rect x="291"
          y="561"
          width="26"
          height="32"
          class="terminal"
          rx="10"/>
   <text class="terminal" x="301" y="581">)</text>
   <path class="line"
          d="m17 17 h2 m20 0 h10 m44 0 h10 m0 0 h244 m-328 0 h20 m308 0 h20 m-348 0 q10 0 10 10 m328 0 q0 -10 10 -10 m-338 10 v24 m328 0 v-24 m-328 24 q0 10 10 10 m308 0 q10 0 10 -10 m-318 10 h10 m48 0 h10 m0 0 h240 m-318 -10 v20 m328 0 v-20 m-328 20 v24 m328 0 v-24 m-328 24 q0 10 10 10 m308 0 q10 0 10 -10 m-318 10 h10 m72 0 h10 m0 0 h216 m-318 -10 v20 m328 0 v-20 m-328 20 v24 m328 0 v-24 m-328 24 q0 10 10 10 m308 0 q10 0 10 -10 m-318 10 h10 m72 0 h10 m0 0 h216 m-318 -10 v20 m328 0 v-20 m-328 20 v24 m328 0 v-24 m-328 24 q0 10 10 10 m308 0 q10 0 10 -10 m-318 10 h10 m66 0 h10 m0 0 h222 m-318 -10 v20 m328 0 v-20 m-328 20 v24 m328 0 v-24 m-328 24 q0 10 10 10 m308 0 q10 0 10 -10 m-318 10 h10 m38 0 h10 m0 0 h250 m-318 -10 v20 m328 0 v-20 m-328 20 v24 m328 0 v-24 m-328 24 q0 10 10 10 m308 0 q10 0 10 -10 m-318 10 h10 m68 0 h10 m0 0 h220 m-318 -10 v20 m328 0 v-20 m-328 20 v24 m328 0 v-24 m-328 24 q0 10 10 10 m308 0 q10 0 10 -10 m-318 10 h10 m72 0 h10 m0 0 h216 m-318 -10 v20 m328 0 v-20 m-328 20 v24 m328 0 v-24 m-328 24 q0 10 10 10 m308 0 q10 0 10 -10 m-318 10 h10 m60 0 h10 m0 0 h228 m-318 -10 v20 m328 0 v-20 m-328 20 v24 m328 0 v-24 m-328 24 q0 10 10 10 m308 0 q10 0 10 -10 m-318 10 h10 m60 0 h10 m0 0 h228 m-318 -10 v20 m328 0 v-20 m-328 20 v24 m328 0 v-24 m-328 24 q0 10 10 10 m308 0 q10 0 10 -10 m-318 10 h10 m46 0 h10 m0 0 h242 m-318 -10 v20 m328 0 v-20 m-328 20 v24 m328 0 v-24 m-328 24 q0 10 10 10 m308 0 q10 0 10 -10 m-318 10 h10 m82 0 h10 m0 0 h206 m-318 -10 v20 m328 0 v-20 m-328 20 v24 m328 0 v-24 m-328 24 q0 10 10 10 m308 0 q10 0 10 -10 m-318 10 h10 m72 0 h10 m20 0 h10 m0 0 h166 m-196 0 h20 m176 0 h20 m-216 0 q10 0 10 10 m196 0 q0 -10 10 -10 m-206 10 v12 m196 0 v-12 m-196 12 q0 10 10 10 m176 0 q10 0 10 -10 m-186 10 h10 m26 0 h10 m0 0 h10 m64 0 h10 m0 0 h10 m26 0 h10 m43 -560 h-3"/>
   <polygon points="377 17 385 13 385 21"/>
   <polygon points="377 17 369 13 369 21"/>
</svg>
