<?xml version="1.0" encoding="UTF-8" standalone="no"?>
<svg
   width="397"
   height="597"
   version="1.1"
   id="svg2199"
   sodipodi:docname="type.svg"
   inkscape:version="1.2.2 (b0a8486541, 2022-12-01)"
   xmlns:inkscape="http://www.inkscape.org/namespaces/inkscape"
   xmlns:sodipodi="http://sodipodi.sourceforge.net/DTD/sodipodi-0.dtd"
   xmlns:xlink="http://www.w3.org/1999/xlink"
   xmlns="http://www.w3.org/2000/svg"
   xmlns:svg="http://www.w3.org/2000/svg">
  <sodipodi:namedview
     id="namedview2201"
     pagecolor="#ffffff"
     bordercolor="#666666"
     borderopacity="1.0"
     inkscape:showpageshadow="2"
     inkscape:pageopacity="0.0"
     inkscape:pagecheckerboard="0"
     inkscape:deskcolor="#d1d1d1"
     showgrid="false"
     inkscape:zoom="1.4053601"
     inkscape:cx="198.88141"
     inkscape:cy="298.85578"
     inkscape:window-width="1920"
     inkscape:window-height="1011"
     inkscape:window-x="0"
     inkscape:window-y="32"
     inkscape:window-maximized="1"
     inkscape:current-layer="svg2199" />
  <defs
     id="defs2089">
    <style
       type="text/css"
       id="style2087">
    @namespace &quot;http://www.w3.org/2000/svg&quot;;
    .line                 {fill: none; stroke: #320000; stroke-width: 1;}
    .bold-line            {stroke: #FFE0E0; shape-rendering: crispEdges; stroke-width: 2;}
    .thin-line            {stroke: #1F0000; shape-rendering: crispEdges}
    .filled               {fill: #320000; stroke: none;}
    text.terminal         {font-family: HelveticaNeueCyr, Sans-serif;
                            font-size: 14px;
                            fill: #FFE0E0;
                            font-weight: bold;
                          }
    text.nonterminal      {font-family: HelveticaNeueCyr, Sans-serif;
                            font-size: 14px;
                            fill: #FFE0E0;
                            font-weight: normal;
                          }
    text.regexp           {font-family: HelveticaNeueCyr, Sans-serif;
                            font-size: 14px;
                            fill: #1F0000;
                            font-weight: normal;
                          }
    rect, circle, polygon {fill: #320000; stroke: #320000;}
    rect.terminal         {fill: #FF0000; stroke: #320000; stroke-width: 1;}
    rect.nonterminal      {fill: #FF3F3F; stroke: #320000; stroke-width: 1;}
    rect.text             {fill: none; stroke: none;}
    polygon.regexp        {fill: #FF5E5E; stroke: #320000; stroke-width: 1;}
  </style>
  </defs>
  <path
     id="polygon2091"
     style="fill:#320000;stroke:#320000"
     d="M 9,17 1,13 v 8 z" />
  <path
     id="polygon2093"
     style="fill:#320000;stroke:#320000"
     d="M 17,17 9,13 v 8 z" />
  <path
     id="rect2095"
     style="fill:#320000;stroke:#320000"
     d="m 61,3 h 28 c 5.54,0 10,4.46 10,10 v 12 c 0,5.54 -4.46,10 -10,10 H 61 C 55.46,35 51,30.54 51,25 V 13 C 51,7.46 55.46,3 61,3 Z" />
  <path
     id="rect2097"
     class="terminal"
     style="fill:#ff0000;stroke:#320000"
     d="m 59,1 h 28 c 5.54,0 10,4.46 10,10 v 12 c 0,5.54 -4.46,10 -10,10 H 59 C 53.46,33 49,28.54 49,23 V 11 C 49,5.46 53.46,1 59,1 Z" />
  <g
     aria-label="ANY"
     id="text2099"
     class="terminal"
     style="font-weight:bold;font-size:14px;font-family:HelveticaNeueCyr, Sans-serif;fill:#ffe0e0">
    <path
       d="M 64.922,11.018 68.716,21 H 66.42 l -0.784,-2.226 h -3.71 L 61.114,21 h -2.24 l 3.794,-9.982 z m 0.182,6.16 -1.316,-3.71 -1.33,3.71 z"
       id="path3232" />
    <path
       d="m 69.555993,21 v -9.968 h 2.226 l 4.102,6.678 v -6.678 h 2.1 V 21 h -2.184 l -4.13,-6.692 V 21 Z"
       id="path3234" />
    <path
       d="m 88.427982,11.032 -3.71,6.132 V 21 h -2.156 v -3.878 l -3.724,-6.09 h 2.492 l 2.324,3.99 2.352,-3.99 z"
       id="path3236" />
  </g>
  <path
     id="rect2101"
     style="fill:#320000;stroke:#320000"
     d="m 61,47 h 38 c 5.54,0 10,4.46 10,10 v 12 c 0,5.54 -4.46,10 -10,10 H 61 C 55.46,79 51,74.54 51,69 V 57 c 0,-5.54 4.46,-10 10,-10 z" />
  <path
     id="rect2103"
     class="terminal"
     style="fill:#ff0000;stroke:#320000"
     d="m 59,45 h 38 c 5.54,0 10,4.46 10,10 v 12 c 0,5.54 -4.46,10 -10,10 H 59 C 53.46,77 49,72.54 49,67 V 55 c 0,-5.54 4.46,-10 10,-10 z" />
  <g
     aria-label="BOOL"
     id="text2105"
     class="terminal"
     style="font-weight:bold;font-size:14px;font-family:HelveticaNeueCyr, Sans-serif;fill:#ffe0e0">
    <path
       d="m 59.952,55.032 h 4.718 q 1.4,0 2.282,0.63 0.896,0.616 0.896,1.876 0,0.7 -0.364,1.246 -0.364,0.532 -0.994,0.812 1.82,0.518 1.82,2.436 0,1.414 -0.952,2.198 Q 66.406,65 64.936,65 h -4.984 z m 2.128,1.694 v 2.338 h 1.988 q 1.652,0 1.652,-1.162 0,-0.686 -0.448,-0.924 -0.448,-0.252 -1.204,-0.252 z m 0,3.822 v 2.716 h 2.198 q 0.854,0 1.344,-0.28 0.504,-0.28 0.504,-1.078 0,-0.812 -0.532,-1.078 -0.518,-0.28 -1.428,-0.28 z"
       id="path3221" />
    <path
       d="m 74.330007,54.794 q 2.184,0 3.528,1.456 1.358,1.442 1.358,3.78 0,2.338 -1.358,3.78 -1.344,1.428 -3.542,1.428 -2.212,0 -3.57,-1.428 -1.358,-1.442 -1.358,-3.78 0,-2.366 1.344,-3.794 1.358,-1.442 3.598,-1.442 z m -0.028,1.792 q -1.232,0 -1.974,0.924 -0.728,0.924 -0.728,2.478 0,1.61 0.728,2.52 0.728,0.91 2.002,0.924 1.246,0 1.96,-0.924 0.714,-0.924 0.714,-2.52 0,-1.568 -0.728,-2.478 -0.728,-0.924 -1.974,-0.924 z"
       id="path3223" />
    <path
       d="m 85.222005,54.794 q 2.184,0 3.528,1.456 1.358,1.442 1.358,3.78 0,2.338 -1.358,3.78 -1.344,1.428 -3.542,1.428 -2.212,0 -3.57,-1.428 -1.358,-1.442 -1.358,-3.78 0,-2.366 1.344,-3.794 1.358,-1.442 3.598,-1.442 z m -0.028,1.792 q -1.232,0 -1.974,0.924 -0.728,0.924 -0.728,2.478 0,1.61 0.728,2.52 0.728,0.91 2.002,0.924 1.246,0 1.96,-0.924 0.714,-0.924 0.714,-2.52 0,-1.568 -0.728,-2.478 -0.728,-0.924 -1.974,-0.924 z"
       id="path3225" />
    <path
       d="M 98.662003,63.124 V 65 h -7.056 v -9.968 h 2.184 v 8.092 z"
       id="path3227" />
  </g>
  <path
     id="rect2107"
     style="fill:#320000;stroke:#320000"
     d="m 61,91 h 66 c 5.54,0 10,4.46 10,10 v 12 c 0,5.54 -4.46,10 -10,10 H 61 c -5.54,0 -10,-4.46 -10,-10 v -12 c 0,-5.54 4.46,-10 10,-10 z" />
  <path
     id="rect2109"
     class="terminal"
     style="fill:#ff0000;stroke:#320000"
     d="m 59,89 h 66 c 5.54,0 10,4.46 10,10 v 12 c 0,5.54 -4.46,10 -10,10 H 59 c -5.54,0 -10,-4.46 -10,-10 V 99 c 0,-5.54 4.46,-10 10,-10 z" />
  <g
     aria-label="BOOLEAN"
     id="text2111"
     class="terminal"
     style="font-weight:bold;font-size:14px;font-family:HelveticaNeueCyr, Sans-serif;fill:#ffe0e0">
    <path
       d="m 59.952,99.032 h 4.718 q 1.4,0 2.282,0.63 0.896,0.616 0.896,1.876 0,0.7 -0.364,1.246 -0.364,0.532 -0.994,0.812 1.82,0.518 1.82,2.436 0,1.414 -0.952,2.198 -0.952,0.77 -2.422,0.77 h -4.984 z m 2.128,1.694 v 2.338 h 1.988 q 1.652,0 1.652,-1.162 0,-0.686 -0.448,-0.924 -0.448,-0.252 -1.204,-0.252 z m 0,3.822 v 2.716 h 2.198 q 0.854,0 1.344,-0.28 0.504,-0.28 0.504,-1.078 0,-0.812 -0.532,-1.078 -0.518,-0.28 -1.428,-0.28 z"
       id="path3204" />
    <path
       d="m 74.330007,98.794 q 2.184,0 3.528,1.456 1.358,1.442 1.358,3.78 0,2.338 -1.358,3.78 -1.344,1.428 -3.542,1.428 -2.212,0 -3.57,-1.428 -1.358,-1.442 -1.358,-3.78 0,-2.366 1.344,-3.794 1.358,-1.442 3.598,-1.442 z m -0.028,1.792 q -1.232,0 -1.974,0.924 -0.728,0.924 -0.728,2.478 0,1.61 0.728,2.52 0.728,0.91 2.002,0.924 1.246,0 1.96,-0.924 0.714,-0.924 0.714,-2.52 0,-1.568 -0.728,-2.478 -0.728,-0.924 -1.974,-0.924 z"
       id="path3206" />
    <path
       d="m 85.222005,98.794 q 2.184,0 3.528,1.456 1.358,1.442 1.358,3.78 0,2.338 -1.358,3.78 -1.344,1.428 -3.542,1.428 -2.212,0 -3.57,-1.428 -1.358,-1.442 -1.358,-3.78 0,-2.366 1.344,-3.794 1.358,-1.442 3.598,-1.442 z m -0.028,1.792 q -1.232,0 -1.974,0.924 -0.728,0.924 -0.728,2.478 0,1.61 0.728,2.52 0.728,0.91 2.002,0.924 1.246,0 1.96,-0.924 0.714,-0.924 0.714,-2.52 0,-1.568 -0.728,-2.478 -0.728,-0.924 -1.974,-0.924 z"
       id="path3208" />
    <path
       d="M 98.662003,107.124 V 109 h -7.056 v -9.968 h 2.184 v 8.092 z"
       id="path3210" />
    <path
       d="m 107.38401,99.032 v 1.792 h -5.306 v 2.17 h 4.872 v 1.722 h -4.872 v 2.45 h 5.404 V 109 h -7.574001 v -9.968 z"
       id="path3212" />
    <path
       d="m 113.93602,99.018 3.794,9.982 h -2.296 l -0.784,-2.226 h -3.71 l -0.812,2.226 h -2.24 l 3.794,-9.982 z m 0.182,6.16 -1.316,-3.71 -1.33,3.71 z"
       id="path3214" />
    <path
       d="m 118.57001,109 v -9.968 h 2.226 l 4.102,6.678 v -6.678 h 2.1 V 109 h -2.184 l -4.13,-6.692 V 109 Z"
       id="path3216" />
  </g>
  <path
     id="rect2113"
     style="fill:#320000;stroke:#320000"
     d="m 61,135 h 62 c 5.54,0 10,4.46 10,10 v 12 c 0,5.54 -4.46,10 -10,10 H 61 c -5.54,0 -10,-4.46 -10,-10 v -12 c 0,-5.54 4.46,-10 10,-10 z" />
  <path
     id="rect2115"
     class="terminal"
     style="fill:#ff0000;stroke:#320000"
     d="m 59,133 h 62 c 5.54,0 10,4.46 10,10 v 12 c 0,5.54 -4.46,10 -10,10 H 59 c -5.54,0 -10,-4.46 -10,-10 v -12 c 0,-5.54 4.46,-10 10,-10 z" />
  <g
     aria-label="DECIMAL"
     id="text2117"
     class="terminal"
     style="font-weight:bold;font-size:14px;font-family:HelveticaNeueCyr, Sans-serif;fill:#ffe0e0">
    <path
       d="m 59.98,153 v -9.968 h 4.032 q 2.324,0 3.57,1.288 1.26,1.288 1.26,3.696 0,2.408 -1.26,3.696 Q 66.336,153 64.012,153 Z m 2.17,-1.82 h 1.596 q 2.898,0 2.898,-3.164 0,-1.526 -0.728,-2.338 -0.714,-0.826 -2.17,-0.826 H 62.15 Z"
       id="path3187" />
    <path
       d="m 77.815989,143.032 v 1.792 h -5.306 v 2.17 h 4.872 v 1.722 h -4.872 v 2.45 h 5.404 V 153 h -7.574 v -9.968 z"
       id="path3189" />
    <path
       d="m 88.315999,149.15 q -0.168,1.876 -1.316,2.982 -1.148,1.106 -3.15,1.106 -2.17,0 -3.5,-1.428 -1.316,-1.442 -1.316,-3.808 0,-2.24 1.33,-3.724 1.344,-1.484 3.57,-1.484 1.778,0 2.982,1.008 1.204,1.008 1.33,2.562 h -2.142 q -0.168,-0.826 -0.756,-1.274 -0.574,-0.462 -1.456,-0.462 -0.91,0 -1.54,0.518 -0.616,0.504 -0.868,1.246 -0.252,0.742 -0.252,1.624 0,1.54 0.714,2.464 0.714,0.91 1.918,0.91 2.002,0 2.282,-2.24 z"
       id="path3191" />
    <path
       d="M 91.983988,143.032 V 153 h -2.198 v -9.968 z"
       id="path3193" />
    <path
       d="m 93.915989,153 v -9.968 h 3.122 l 2.324,6.846 2.268001,-6.846 h 3.052 V 153 h -2.058 v -7.084 l -2.45,7.084 h -1.694001 l -2.478,-7.014 V 153 Z"
       id="path3195" />
    <path
       d="m 111.56998,143.018 3.794,9.982 h -2.296 l -0.784,-2.226 h -3.71 l -0.812,2.226 h -2.24 l 3.794,-9.982 z m 0.182,6.16 -1.316,-3.71 -1.33,3.71 z"
       id="path3197" />
    <path
       d="M 123.25998,151.124 V 153 h -7.056 v -9.968 h 2.184 v 8.092 z"
       id="path3199" />
  </g>
  <path
     id="rect2119"
     style="fill:#320000;stroke:#320000"
     d="m 61,179 h 56 c 5.54,0 10,4.46 10,10 v 12 c 0,5.54 -4.46,10 -10,10 H 61 c -5.54,0 -10,-4.46 -10,-10 v -12 c 0,-5.54 4.46,-10 10,-10 z" />
  <path
     id="rect2121"
     class="terminal"
     style="fill:#ff0000;stroke:#320000"
     d="m 59,177 h 56 c 5.54,0 10,4.46 10,10 v 12 c 0,5.54 -4.46,10 -10,10 H 59 c -5.54,0 -10,-4.46 -10,-10 v -12 c 0,-5.54 4.46,-10 10,-10 z" />
  <g
     aria-label="DOUBLE"
     id="text2123"
     class="terminal"
     style="font-weight:bold;font-size:14px;font-family:HelveticaNeueCyr, Sans-serif;fill:#ffe0e0">
    <path
       d="m 59.98,197 v -9.968 h 4.032 q 2.324,0 3.57,1.288 1.26,1.288 1.26,3.696 0,2.408 -1.26,3.696 Q 66.336,197 64.012,197 Z m 2.17,-1.82 h 1.596 q 2.898,0 2.898,-3.164 0,-1.526 -0.728,-2.338 -0.714,-0.826 -2.17,-0.826 H 62.15 Z"
       id="path3172" />
    <path
       d="m 74.847989,186.794 q 2.184,0 3.528,1.456 1.358,1.442 1.358,3.78 0,2.338 -1.358,3.78 -1.344,1.428 -3.542,1.428 -2.212,0 -3.57,-1.428 -1.358,-1.442 -1.358,-3.78 0,-2.366 1.344,-3.794 1.358,-1.442 3.598,-1.442 z m -0.028,1.792 q -1.232,0 -1.974,0.924 -0.728,0.924 -0.728,2.478 0,1.61 0.728,2.52 0.728,0.91 2.002,0.924 1.246,0 1.96,-0.924 0.714,-0.924 0.714,-2.52 0,-1.568 -0.728,-2.478 -0.728,-0.924 -1.974,-0.924 z"
       id="path3174" />
    <path
       d="m 89.715987,187.032 v 5.992 q 0,2.142 -1.036,3.164 -1.022,1.008 -3.206,1.008 -2.212,0 -3.262,-1.022 -1.036,-1.036 -1.036,-3.178 v -5.964 h 2.184 v 5.964 q 0,1.218 0.462,1.806 0.462,0.588 1.68,0.588 1.176,0 1.596,-0.588 0.434,-0.588 0.434,-1.806 v -5.964 z"
       id="path3176" />
    <path
       d="m 91.591977,187.032 h 4.718 q 1.4,0 2.282,0.63 0.896,0.616 0.896,1.876 0,0.7 -0.364,1.246 -0.364,0.532 -0.994,0.812 1.82,0.518 1.82,2.436 0,1.414 -0.952,2.198 -0.952,0.77 -2.422,0.77 h -4.984 z m 2.128,1.694 v 2.338 h 1.988 q 1.652,0 1.652,-1.162 0,-0.686 -0.448,-0.924 -0.448,-0.252 -1.204,-0.252 z m 0,3.822 v 2.716 h 2.198 q 0.854,0 1.344,-0.28 0.504,-0.28 0.504,-1.078 0,-0.812 -0.532,-1.078 -0.518,-0.28 -1.428,-0.28 z"
       id="path3178" />
    <path
       d="M 108.51798,195.124 V 197 h -7.056 v -9.968 h 2.184 v 8.092 z"
       id="path3180" />
    <path
       d="m 117.23999,187.032 v 1.792 h -5.306 v 2.17 h 4.872 v 1.722 h -4.872 v 2.45 h 5.404 V 197 h -7.574 v -9.968 z"
       id="path3182" />
  </g>
  <path
     id="rect2125"
     style="fill:#320000;stroke:#320000"
     d="m 61,223 h 24 c 5.54,0 10,4.46 10,10 v 12 c 0,5.54 -4.46,10 -10,10 H 61 c -5.54,0 -10,-4.46 -10,-10 v -12 c 0,-5.54 4.46,-10 10,-10 z" />
  <path
     id="rect2127"
     class="terminal"
     style="fill:#ff0000;stroke:#320000"
     d="m 59,221 h 24 c 5.54,0 10,4.46 10,10 v 12 c 0,5.54 -4.46,10 -10,10 H 59 c -5.54,0 -10,-4.46 -10,-10 v -12 c 0,-5.54 4.46,-10 10,-10 z" />
  <g
     aria-label="INT"
     id="text2129"
     class="terminal"
     style="font-weight:bold;font-size:14px;font-family:HelveticaNeueCyr, Sans-serif;fill:#ffe0e0">
    <path
       d="M 62.164,231.032 V 241 h -2.198 v -9.968 z"
       id="path3163" />
    <path
       d="m 64.096001,241 v -9.968 h 2.226 l 4.102,6.678 v -6.678 h 2.1 V 241 h -2.184 l -4.13,-6.692 V 241 Z"
       id="path3165" />
    <path
       d="m 81.87599,231.032 v 1.862 h -2.996 V 241 h -2.198 v -8.106 h -2.996 v -1.862 z"
       id="path3167" />
  </g>
  <path
     id="rect2131"
     style="fill:#320000;stroke:#320000"
     d="m 61,267 h 60 c 5.54,0 10,4.46 10,10 v 12 c 0,5.54 -4.46,10 -10,10 H 61 c -5.54,0 -10,-4.46 -10,-10 v -12 c 0,-5.54 4.46,-10 10,-10 z" />
  <path
     id="rect2133"
     class="terminal"
     style="fill:#ff0000;stroke:#320000"
     d="m 59,265 h 60 c 5.54,0 10,4.46 10,10 v 12 c 0,5.54 -4.46,10 -10,10 H 59 c -5.54,0 -10,-4.46 -10,-10 v -12 c 0,-5.54 4.46,-10 10,-10 z" />
  <g
     aria-label="INTEGER"
     id="text2135"
     class="terminal"
     style="font-weight:bold;font-size:14px;font-family:HelveticaNeueCyr, Sans-serif;fill:#ffe0e0">
    <path
       d="M 62.164,275.032 V 285 h -2.198 v -9.968 z"
       id="path3146" />
    <path
       d="m 64.096001,285 v -9.968 h 2.226 l 4.102,6.678 v -6.678 h 2.1 V 285 h -2.184 l -4.13,-6.692 V 285 Z"
       id="path3148" />
    <path
       d="m 81.87599,275.032 v 1.862 h -2.996 V 285 h -2.198 v -8.106 h -2.996 v -1.862 z"
       id="path3150" />
    <path
       d="m 90.499991,275.032 v 1.792 h -5.306 v 2.17 h 4.872 v 1.722 h -4.872 v 2.45 h 5.404 V 285 h -7.574 v -9.968 z"
       id="path3152" />
    <path
       d="M 100.972,279.61 V 285 h -1.385999 l -0.21,-1.134 q -1.12,1.372 -2.996,1.372 -2.086,0 -3.388,-1.442 -1.302,-1.442 -1.302,-3.738 0,-2.31 1.372,-3.766 1.372,-1.47 3.528,-1.47 1.708,0 2.884,0.966 1.175999,0.952 1.371999,2.52 h -2.113999 q -0.154,-0.784 -0.728,-1.218 -0.574,-0.434 -1.442,-0.434 -1.246,0 -1.96,0.91 -0.714,0.896 -0.714,2.492 0,1.624 0.714,2.534 0.728,0.896 2.03,0.896 1.022,0 1.68,-0.616 0.658,-0.63 0.7,-1.638 h -2.226 v -1.624 z"
       id="path3154" />
    <path
       d="m 110.19801,275.032 v 1.792 h -5.306 v 2.17 h 4.872 v 1.722 h -4.872 v 2.45 h 5.404 V 285 h -7.574 v -9.968 z"
       id="path3156" />
    <path
       d="m 111.87802,275.032 h 4.956 q 1.484,0 2.422,0.7 0.938,0.7 0.938,2.128 0,0.868 -0.42,1.526 -0.42,0.644 -1.162,0.924 1.288,0.266 1.47,2.324 0,0.07 0.028,0.434 0.028,0.364 0.056,0.588 0.028,0.21 0.07,0.518 0.042,0.308 0.126,0.518 0.084,0.21 0.196,0.308 h -2.268 q -0.112,-0.224 -0.168,-0.56 -0.056,-0.35 -0.098,-0.882 -0.042,-0.546 -0.042,-0.602 -0.112,-1.05 -0.532,-1.456 -0.406,-0.406 -1.456,-0.406 h -1.946 V 285 h -2.17 z m 2.17,1.722 v 2.758 h 2.072 q 0.91,0 1.414,-0.28 0.518,-0.294 0.518,-1.134 0,-0.784 -0.504,-1.064 -0.49,-0.28 -1.33,-0.28 z"
       id="path3158" />
  </g>
  <path
     id="rect2137"
     style="fill:#320000;stroke:#320000"
     d="m 61,311 h 58 c 5.54,0 10,4.46 10,10 v 12 c 0,5.54 -4.46,10 -10,10 H 61 c -5.54,0 -10,-4.46 -10,-10 v -12 c 0,-5.54 4.46,-10 10,-10 z" />
  <path
     id="rect2139"
     class="terminal"
     style="fill:#ff0000;stroke:#320000"
     d="m 59,309 h 58 c 5.54,0 10,4.46 10,10 v 12 c 0,5.54 -4.46,10 -10,10 H 59 c -5.54,0 -10,-4.46 -10,-10 v -12 c 0,-5.54 4.46,-10 10,-10 z" />
  <g
     aria-label="NUMBER"
     id="text2141"
     class="terminal"
     style="font-weight:bold;font-size:14px;font-family:HelveticaNeueCyr, Sans-serif;fill:#ffe0e0">
    <path
       d="m 59.966,329 v -9.968 h 2.226 l 4.102,6.678 v -6.678 h 2.1 V 329 H 66.21 l -4.13,-6.692 V 329 Z"
       id="path3131" />
    <path
       d="m 78.823989,319.032 v 5.992 q 0,2.142 -1.036,3.164 -1.022,1.008 -3.206,1.008 -2.212,0 -3.262,-1.022 -1.036,-1.036 -1.036,-3.178 v -5.964 h 2.184 v 5.964 q 0,1.218 0.462,1.806 0.462,0.588 1.68,0.588 1.176,0 1.596,-0.588 0.434,-0.588 0.434,-1.806 v -5.964 z"
       id="path3133" />
    <path
       d="m 80.713978,329 v -9.968 h 3.122 l 2.324,6.846 2.268,-6.846 h 3.052 V 329 h -2.058 v -7.084 l -2.45,7.084 h -1.694 l -2.478,-7.014 V 329 Z"
       id="path3135" />
    <path
       d="m 93.397972,319.032 h 4.718 q 1.4,0 2.281998,0.63 0.896,0.616 0.896,1.876 0,0.7 -0.364,1.246 -0.364,0.532 -0.993998,0.812 1.819998,0.518 1.819998,2.436 0,1.414 -0.952,2.198 -0.951998,0.77 -2.421998,0.77 h -4.984 z m 2.128,1.694 v 2.338 h 1.988 q 1.652,0 1.652,-1.162 0,-0.686 -0.448,-0.924 -0.448,-0.252 -1.204,-0.252 z m 0,3.822 v 2.716 h 2.198 q 0.854,0 1.344,-0.28 0.504,-0.28 0.504,-1.078 0,-0.812 -0.532,-1.078 -0.518,-0.28 -1.428,-0.28 z"
       id="path3137" />
    <path
       d="m 110.74398,319.032 v 1.792 h -5.306 v 2.17 h 4.872 v 1.722 h -4.872 v 2.45 h 5.404 V 329 h -7.574 v -9.968 z"
       id="path3139" />
    <path
       d="m 112.42399,319.032 h 4.956 q 1.484,0 2.422,0.7 0.938,0.7 0.938,2.128 0,0.868 -0.42,1.526 -0.42,0.644 -1.162,0.924 1.288,0.266 1.47,2.324 0,0.07 0.028,0.434 0.028,0.364 0.056,0.588 0.028,0.21 0.07,0.518 0.042,0.308 0.126,0.518 0.084,0.21 0.196,0.308 h -2.268 q -0.112,-0.224 -0.168,-0.56 -0.056,-0.35 -0.098,-0.882 -0.042,-0.546 -0.042,-0.602 -0.112,-1.05 -0.532,-1.456 -0.406,-0.406 -1.456,-0.406 h -1.946 V 329 h -2.17 z m 2.17,1.722 v 2.758 h 2.072 q 0.91,0 1.414,-0.28 0.518,-0.294 0.518,-1.134 0,-0.784 -0.504,-1.064 -0.49,-0.28 -1.33,-0.28 z"
       id="path3141" />
  </g>
  <path
     id="rect2143"
     style="fill:#320000;stroke:#320000"
     d="m 61,355 h 54 c 5.54,0 10,4.46 10,10 v 12 c 0,5.54 -4.46,10 -10,10 H 61 c -5.54,0 -10,-4.46 -10,-10 v -12 c 0,-5.54 4.46,-10 10,-10 z" />
  <path
     id="rect2145"
     class="terminal"
     style="fill:#ff0000;stroke:#320000"
     d="m 59,353 h 54 c 5.54,0 10,4.46 10,10 v 12 c 0,5.54 -4.46,10 -10,10 H 59 c -5.54,0 -10,-4.46 -10,-10 v -12 c 0,-5.54 4.46,-10 10,-10 z" />
  <g
     aria-label="SCALAR"
     id="text2147"
     class="terminal"
     style="font-weight:bold;font-size:14px;font-family:HelveticaNeueCyr, Sans-serif;fill:#ffe0e0">
    <path
       d="m 67.344,366 h -2.072 q -0.126,-1.484 -1.89,-1.484 -0.756,0 -1.19,0.308 -0.42,0.294 -0.42,0.826 0,0.182 0.056,0.322 0.056,0.14 0.21,0.266 0.154,0.112 0.308,0.196 0.154,0.07 0.448,0.168 0.308,0.084 0.546,0.154 0.252,0.07 0.7,0.182 0.448,0.112 0.784,0.21 1.47,0.42 2.184,1.05 0.728,0.63 0.728,1.806 0,0.854 -0.35,1.498 -0.35,0.63 -0.952,1.008 -0.588,0.364 -1.302,0.532 -0.7,0.182 -1.498,0.182 -2.03,0 -3.178,-0.924 -1.134,-0.938 -1.148,-2.632 h 2.17 q 0.056,1.876 2.254,1.876 0.854,0 1.344,-0.35 0.504,-0.364 0.504,-0.98 0,-0.518 -0.462,-0.756 -0.448,-0.238 -1.904,-0.658 -0.238,-0.056 -0.364,-0.098 -0.504,-0.14 -0.7,-0.196 -0.196,-0.07 -0.63,-0.224 -0.42,-0.154 -0.616,-0.28 -0.196,-0.126 -0.49,-0.35 -0.28,-0.224 -0.406,-0.462 -0.126,-0.252 -0.238,-0.602 -0.098,-0.364 -0.098,-0.784 0,-1.358 1.05,-2.17 1.05,-0.812 2.786,-0.812 1.68,0 2.744,0.798 1.064,0.784 1.092,2.38 z"
       id="path3116" />
    <path
       d="m 77.956002,369.15 q -0.168,1.876 -1.316,2.982 -1.148,1.106 -3.15,1.106 -2.17,0 -3.5,-1.428 -1.316,-1.442 -1.316,-3.808 0,-2.24 1.33,-3.724 1.344,-1.484 3.57,-1.484 1.778,0 2.982,1.008 1.204,1.008 1.33,2.562 h -2.142 q -0.168,-0.826 -0.756,-1.274 -0.574,-0.462 -1.456,-0.462 -0.91,0 -1.54,0.518 -0.616,0.504 -0.868,1.246 -0.252,0.742 -0.252,1.624 0,1.54 0.714,2.464 0.714,0.91 1.918,0.91 2.002,0 2.282,-2.24 z"
       id="path3118" />
    <path
       d="m 84.381991,363.018 3.794,9.982 h -2.296 l -0.784,-2.226 h -3.71 l -0.812,2.226 h -2.24 l 3.794,-9.982 z m 0.182,6.16 -1.316,-3.71 -1.33,3.71 z"
       id="path3120" />
    <path
       d="M 96.071984,371.124 V 373 h -7.056 v -9.968 h 2.184 v 8.092 z"
       id="path3122" />
    <path
       d="m 102.27399,363.018 3.794,9.982 h -2.296 l -0.784,-2.226 h -3.71 l -0.812,2.226 h -2.24 l 3.794,-9.982 z m 0.182,6.16 -1.316,-3.71 -1.33,3.71 z"
       id="path3124" />
    <path
       d="m 106.99198,363.032 h 4.956 q 1.484,0 2.422,0.7 0.938,0.7 0.938,2.128 0,0.868 -0.42,1.526 -0.42,0.644 -1.162,0.924 1.288,0.266 1.47,2.324 0,0.07 0.028,0.434 0.028,0.364 0.056,0.588 0.028,0.21 0.07,0.518 0.042,0.308 0.126,0.518 0.084,0.21 0.196,0.308 h -2.268 q -0.112,-0.224 -0.168,-0.56 -0.056,-0.35 -0.098,-0.882 -0.042,-0.546 -0.042,-0.602 -0.112,-1.05 -0.532,-1.456 -0.406,-0.406 -1.456,-0.406 h -1.946 V 373 h -2.17 z m 2.17,1.722 v 2.758 h 2.072 q 0.91,0 1.414,-0.28 0.518,-0.294 0.518,-1.134 0,-0.784 -0.504,-1.064 -0.49,-0.28 -1.33,-0.28 z"
       id="path3126" />
  </g>
  <path
     id="rect2149"
     style="fill:#320000;stroke:#320000"
     d="m 61,399 h 52 c 5.54,0 10,4.46 10,10 v 12 c 0,5.54 -4.46,10 -10,10 H 61 c -5.54,0 -10,-4.46 -10,-10 v -12 c 0,-5.54 4.46,-10 10,-10 z" />
  <path
     id="rect2151"
     class="terminal"
     style="fill:#ff0000;stroke:#320000"
     d="m 59,397 h 52 c 5.54,0 10,4.46 10,10 v 12 c 0,5.54 -4.46,10 -10,10 H 59 c -5.54,0 -10,-4.46 -10,-10 v -12 c 0,-5.54 4.46,-10 10,-10 z" />
  <g
     aria-label="STRING"
     id="text2153"
     class="terminal"
     style="font-weight:bold;font-size:14px;font-family:HelveticaNeueCyr, Sans-serif;fill:#ffe0e0">
    <path
       d="m 67.344,410 h -2.072 q -0.126,-1.484 -1.89,-1.484 -0.756,0 -1.19,0.308 -0.42,0.294 -0.42,0.826 0,0.182 0.056,0.322 0.056,0.14 0.21,0.266 0.154,0.112 0.308,0.196 0.154,0.07 0.448,0.168 0.308,0.084 0.546,0.154 0.252,0.07 0.7,0.182 0.448,0.112 0.784,0.21 1.47,0.42 2.184,1.05 0.728,0.63 0.728,1.806 0,0.854 -0.35,1.498 -0.35,0.63 -0.952,1.008 -0.588,0.364 -1.302,0.532 -0.7,0.182 -1.498,0.182 -2.03,0 -3.178,-0.924 -1.134,-0.938 -1.148,-2.632 h 2.17 q 0.056,1.876 2.254,1.876 0.854,0 1.344,-0.35 0.504,-0.364 0.504,-0.98 0,-0.518 -0.462,-0.756 -0.448,-0.238 -1.904,-0.658 -0.238,-0.056 -0.364,-0.098 -0.504,-0.14 -0.7,-0.196 -0.196,-0.07 -0.63,-0.224 -0.42,-0.154 -0.616,-0.28 -0.196,-0.126 -0.49,-0.35 -0.28,-0.224 -0.406,-0.462 -0.126,-0.252 -0.238,-0.602 -0.098,-0.364 -0.098,-0.784 0,-1.358 1.05,-2.17 1.05,-0.812 2.786,-0.812 1.68,0 2.744,0.798 1.064,0.784 1.092,2.38 z"
       id="path3101" />
    <path
       d="m 76.458002,407.032 v 1.862 h -2.996 V 417 h -2.198 v -8.106 h -2.996 v -1.862 z"
       id="path3103" />
    <path
       d="m 77.690003,407.032 h 4.956 q 1.484,0 2.422,0.7 0.938,0.7 0.938,2.128 0,0.868 -0.42,1.526 -0.42,0.644 -1.162,0.924 1.288,0.266 1.47,2.324 0,0.07 0.028,0.434 0.028,0.364 0.056,0.588 0.028,0.21 0.07,0.518 0.042,0.308 0.126,0.518 0.084,0.21 0.196,0.308 h -2.268 q -0.112,-0.224 -0.168,-0.56 -0.056,-0.35 -0.098,-0.882 -0.042,-0.546 -0.042,-0.602 -0.112,-1.05 -0.532,-1.456 -0.406,-0.406 -1.456,-0.406 h -1.946 V 417 h -2.17 z m 2.17,1.722 v 2.758 h 2.072 q 0.91,0 1.414,-0.28 0.518,-0.294 0.518,-1.134 0,-0.784 -0.504,-1.064 -0.49,-0.28 -1.33,-0.28 z"
       id="path3105" />
    <path
       d="M 89.912005,407.032 V 417 h -2.198 v -9.968 z"
       id="path3107" />
    <path
       d="m 91.844006,417 v -9.968 h 2.226 l 4.102,6.678 v -6.678 h 2.100004 V 417 h -2.184004 l -4.13,-6.692 V 417 Z"
       id="path3109" />
    <path
       d="M 111.094,411.61 V 417 h -1.386 l -0.21,-1.134 q -1.12,1.372 -2.996,1.372 -2.086,0 -3.388,-1.442 -1.302,-1.442 -1.302,-3.738 0,-2.31 1.372,-3.766 1.372,-1.47 3.528,-1.47 1.708,0 2.884,0.966 1.176,0.952 1.372,2.52 h -2.114 q -0.154,-0.784 -0.728,-1.218 -0.574,-0.434 -1.442,-0.434 -1.246,0 -1.96,0.91 -0.714,0.896 -0.714,2.492 0,1.624 0.714,2.534 0.728,0.896 2.03,0.896 1.022,0 1.68,-0.616 0.658,-0.63 0.7,-1.638 h -2.226 v -1.624 z"
       id="path3111" />
  </g>
  <path
     id="rect2155"
     style="fill:#320000;stroke:#320000"
     d="m 61,443 h 34 c 5.54,0 10,4.46 10,10 v 12 c 0,5.54 -4.46,10 -10,10 H 61 c -5.54,0 -10,-4.46 -10,-10 v -12 c 0,-5.54 4.46,-10 10,-10 z" />
  <path
     id="rect2157"
     class="terminal"
     style="fill:#ff0000;stroke:#320000"
     d="m 59,441 h 34 c 5.54,0 10,4.46 10,10 v 12 c 0,5.54 -4.46,10 -10,10 H 59 c -5.54,0 -10,-4.46 -10,-10 v -12 c 0,-5.54 4.46,-10 10,-10 z" />
  <g
     aria-label="TEXT"
     id="text2159"
     class="terminal"
     style="font-weight:bold;font-size:14px;font-family:HelveticaNeueCyr, Sans-serif;fill:#ffe0e0">
    <path
       d="m 67.372,451.032 v 1.862 H 64.376 V 461 h -2.198 v -8.106 h -2.996 v -1.862 z"
       id="path3090" />
    <path
       d="m 75.996001,451.032 v 1.792 h -5.306 v 2.17 h 4.872 v 1.722 h -4.872 v 2.45 h 5.404 V 461 h -7.574 v -9.968 z"
       id="path3092" />
    <path
       d="m 85.740011,451.032 -3.206,4.76 3.5,5.208 h -2.618 l -2.184,-3.458 -2.212,3.458 h -2.492 l 3.514,-5.208 -3.248,-4.76 h 2.548 l 1.988,3.206 2.002,-3.206 z"
       id="path3094" />
    <path
       d="m 94.336008,451.032 v 1.862 h -2.996 V 461 h -2.198 v -8.106 h -2.996 v -1.862 z"
       id="path3096" />
  </g>
  <path
     id="rect2161"
     style="fill:#320000;stroke:#320000"
     d="m 61,487 h 72 c 5.54,0 10,4.46 10,10 v 12 c 0,5.54 -4.46,10 -10,10 H 61 c -5.54,0 -10,-4.46 -10,-10 v -12 c 0,-5.54 4.46,-10 10,-10 z" />
  <path
     id="rect2163"
     class="terminal"
     style="fill:#ff0000;stroke:#320000"
     d="m 59,485 h 72 c 5.54,0 10,4.46 10,10 v 12 c 0,5.54 -4.46,10 -10,10 H 59 c -5.54,0 -10,-4.46 -10,-10 v -12 c 0,-5.54 4.46,-10 10,-10 z" />
  <g
     aria-label="UNSIGNED"
     id="text2165"
     class="terminal"
     style="font-weight:bold;font-size:14px;font-family:HelveticaNeueCyr, Sans-serif;fill:#ffe0e0">
    <path
       d="m 68.45,495.032 v 5.992 q 0,2.142 -1.036,3.164 -1.022,1.008 -3.206,1.008 -2.212,0 -3.262,-1.022 -1.036,-1.036 -1.036,-3.178 v -5.964 h 2.184 v 5.964 q 0,1.218 0.462,1.806 0.462,0.588 1.68,0.588 1.176,0 1.596,-0.588 0.434,-0.588 0.434,-1.806 v -5.964 z"
       id="path3071" />
    <path
       d="m 70.339989,505 v -9.968 h 2.226 l 4.102,6.678 v -6.678 h 2.1 V 505 h -2.184 l -4.13,-6.692 V 505 Z"
       id="path3073" />
    <path
       d="m 88.091978,498 h -2.072 q -0.126,-1.484 -1.89,-1.484 -0.756,0 -1.19,0.308 -0.42,0.294 -0.42,0.826 0,0.182 0.056,0.322 0.056,0.14 0.21,0.266 0.154,0.112 0.308,0.196 0.154,0.07 0.448,0.168 0.308,0.084 0.546,0.154 0.252,0.07 0.7,0.182 0.448,0.112 0.784,0.21 1.47,0.42 2.184,1.05 0.728,0.63 0.728,1.806 0,0.854 -0.35,1.498 -0.35,0.63 -0.952,1.008 -0.588,0.364 -1.302,0.532 -0.7,0.182 -1.498,0.182 -2.03,0 -3.178,-0.924 -1.134,-0.938 -1.148,-2.632 h 2.17 q 0.056,1.876 2.254,1.876 0.854,0 1.344,-0.35 0.504,-0.364 0.504,-0.98 0,-0.518 -0.462,-0.756 -0.448,-0.238 -1.904,-0.658 -0.238,-0.056 -0.364,-0.098 -0.504,-0.14 -0.7,-0.196 -0.196,-0.07 -0.63,-0.224 -0.42,-0.154 -0.616,-0.28 -0.196,-0.126 -0.49,-0.35 -0.28,-0.224 -0.406,-0.462 -0.126,-0.252 -0.238,-0.602 -0.098,-0.364 -0.098,-0.784 0,-1.358 1.05,-2.17 1.05,-0.812 2.786,-0.812 1.68,0 2.744,0.798 1.064,0.784 1.092,2.38 z"
       id="path3075" />
    <path
       d="M 91.997981,495.032 V 505 h -2.198 v -9.968 z"
       id="path3077" />
    <path
       d="M 102.80598,499.61 V 505 h -1.386 l -0.21,-1.134 q -1.12,1.372 -2.995998,1.372 -2.086,0 -3.388,-1.442 -1.302,-1.442 -1.302,-3.738 0,-2.31 1.372,-3.766 1.372,-1.47 3.528,-1.47 1.707998,0 2.883998,0.966 1.176,0.952 1.372,2.52 h -2.114 q -0.154,-0.784 -0.727998,-1.218 -0.574,-0.434 -1.442,-0.434 -1.246,0 -1.96,0.91 -0.714,0.896 -0.714,2.492 0,1.624 0.714,2.534 0.728,0.896 2.03,0.896 1.022,0 1.679998,-0.616 0.658,-0.63 0.7,-1.638 h -2.225998 v -1.624 z"
       id="path3079" />
    <path
       d="m 104.55599,505 v -9.968 h 2.226 l 4.102,6.678 v -6.678 h 2.1 V 505 h -2.184 l -4.13,-6.692 V 505 Z"
       id="path3081" />
    <path
       d="m 122.40598,495.032 v 1.792 h -5.306 v 2.17 h 4.872 v 1.722 h -4.872 v 2.45 h 5.404 V 505 h -7.574 v -9.968 z"
       id="path3083" />
    <path
       d="m 124.016,505 v -9.968 h 4.032 q 2.324,0 3.57,1.288 1.26,1.288 1.26,3.696 0,2.408 -1.26,3.696 -1.246,1.288 -3.57,1.288 z m 2.17,-1.82 h 1.596 q 2.898,0 2.898,-3.164 0,-1.526 -0.728,-2.338 -0.714,-0.826 -2.17,-0.826 h -1.596 z"
       id="path3085" />
  </g>
  <path
     id="rect2167"
     style="fill:#320000;stroke:#320000"
     d="m 61,531 h 66 c 5.54,0 10,4.46 10,10 v 12 c 0,5.54 -4.46,10 -10,10 H 61 c -5.54,0 -10,-4.46 -10,-10 v -12 c 0,-5.54 4.46,-10 10,-10 z" />
  <path
     id="rect2169"
     class="terminal"
     style="fill:#ff0000;stroke:#320000"
     d="m 59,529 h 66 c 5.54,0 10,4.46 10,10 v 12 c 0,5.54 -4.46,10 -10,10 H 59 c -5.54,0 -10,-4.46 -10,-10 v -12 c 0,-5.54 4.46,-10 10,-10 z" />
  <g
     aria-label="VARCHAR"
     id="text2171"
     class="terminal"
     style="font-weight:bold;font-size:14px;font-family:HelveticaNeueCyr, Sans-serif;fill:#ffe0e0">
    <path
       d="m 58.888,539.032 h 2.282 l 2.24,7 2.268,-7 h 2.268 L 64.628,549 H 62.15 Z"
       id="path3054" />
    <path
       d="m 73.097995,539.018 3.794,9.982 h -2.296 l -0.784,-2.226 h -3.71 l -0.812,2.226 h -2.24 l 3.794,-9.982 z m 0.182,6.16 -1.316,-3.71 -1.33,3.71 z"
       id="path3056" />
    <path
       d="m 77.815987,539.032 h 4.956 q 1.484,0 2.422,0.7 0.938,0.7 0.938,2.128 0,0.868 -0.42,1.526 -0.42,0.644 -1.162,0.924 1.288,0.266 1.47,2.324 0,0.07 0.028,0.434 0.028,0.364 0.056,0.588 0.028,0.21 0.07,0.518 0.042,0.308 0.126,0.518 0.084,0.21 0.196,0.308 h -2.268 q -0.112,-0.224 -0.168,-0.56 -0.056,-0.35 -0.098,-0.882 -0.042,-0.546 -0.042,-0.602 -0.112,-1.05 -0.532,-1.456 -0.406,-0.406 -1.456,-0.406 h -1.946 V 549 h -2.17 z m 2.17,1.722 v 2.758 h 2.072 q 0.91,0 1.414,-0.28 0.518,-0.294 0.518,-1.134 0,-0.784 -0.504,-1.064 -0.49,-0.28 -1.33,-0.28 z"
       id="path3058" />
    <path
       d="m 96.743989,545.15 q -0.168,1.876 -1.316,2.982 -1.148,1.106 -3.15,1.106 -2.17,0 -3.5,-1.428 -1.316,-1.442 -1.316,-3.808 0,-2.24 1.33,-3.724 1.344,-1.484 3.57,-1.484 1.778,0 2.982,1.008 1.204,1.008 1.33,2.562 h -2.142 q -0.168,-0.826 -0.756,-1.274 -0.574,-0.462 -1.456,-0.462 -0.91,0 -1.54,0.518 -0.616,0.504 -0.868,1.246 -0.252,0.742 -0.252,1.624 0,1.54 0.714,2.464 0.714,0.91 1.918,0.91 2.002,0 2.282,-2.24 z"
       id="path3060" />
    <path
       d="M 106.65598,539.032 V 549 h -2.184 v -4.298 h -4.074 V 549 h -2.184002 v -9.968 h 2.184002 v 3.752 h 4.074 v -3.752 z"
       id="path3062" />
    <path
       d="m 113.54397,539.018 3.794,9.982 h -2.296 l -0.784,-2.226 h -3.71 l -0.812,2.226 h -2.24 l 3.794,-9.982 z m 0.182,6.16 -1.316,-3.71 -1.33,3.71 z"
       id="path3064" />
    <path
       d="m 118.26196,539.032 h 4.956 q 1.484,0 2.422,0.7 0.938,0.7 0.938,2.128 0,0.868 -0.42,1.526 -0.42,0.644 -1.162,0.924 1.288,0.266 1.47,2.324 0,0.07 0.028,0.434 0.028,0.364 0.056,0.588 0.028,0.21 0.07,0.518 0.042,0.308 0.126,0.518 0.084,0.21 0.196,0.308 h -2.268 q -0.112,-0.224 -0.168,-0.56 -0.056,-0.35 -0.098,-0.882 -0.042,-0.546 -0.042,-0.602 -0.112,-1.05 -0.532,-1.456 -0.406,-0.406 -1.456,-0.406 h -1.946 V 549 h -2.17 z m 2.17,1.722 v 2.758 h 2.072 q 0.91,0 1.414,-0.28 0.518,-0.294 0.518,-1.134 0,-0.784 -0.504,-1.064 -0.49,-0.28 -1.33,-0.28 z"
       id="path3066" />
  </g>
  <path
     id="rect2173"
     style="fill:#320000;stroke:#320000"
     d="m 187,563 h 6 c 5.54,0 10,4.46 10,10 v 12 c 0,5.54 -4.46,10 -10,10 h -6 c -5.54,0 -10,-4.46 -10,-10 v -12 c 0,-5.54 4.46,-10 10,-10 z" />
  <path
     id="rect2175"
     class="terminal"
     style="fill:#ff0000;stroke:#320000"
     d="m 185,561 h 6 c 5.54,0 10,4.46 10,10 v 12 c 0,5.54 -4.46,10 -10,10 h -6 c -5.54,0 -10,-4.46 -10,-10 v -12 c 0,-5.54 4.46,-10 10,-10 z" />
  <g
     aria-label="("
     id="text2177"
     class="terminal"
     style="font-weight:bold;font-size:14px;font-family:HelveticaNeueCyr, Sans-serif;fill:#ffe0e0">
    <path
       d="m 189.228,570.878 q -0.812,1.624 -1.19,3.108 -0.364,1.484 -0.364,3.262 0,3.08 1.582,6.244 h -1.68 q -0.868,-1.316 -1.358,-2.954 -0.476,-1.638 -0.476,-3.248 0,-1.68 0.462,-3.388 0.476,-1.722 1.372,-3.024 z"
       id="path3049" />
  </g>
  <a
     xlink:href="#length"
     xlink:title="length"
     id="a2185">
    <path
       id="rect2179"
       style="fill:#320000;stroke:#320000"
       d="m 223,563 h 60 v 32 h -60 z" />
    <path
       id="rect2181"
       class="nonterminal"
       style="fill:#ff3f3f;stroke:#320000"
       d="m 221,561 h 60 v 32 h -60 z" />
    <g
       aria-label="length"
       id="text2183"
       class="nonterminal"
       style="font-size:14px;font-family:HelveticaNeueCyr, Sans-serif;fill:#ffe0e0">
      <path
         d="M 233.156,571.032 V 581 h -1.204 v -9.968 z"
         id="path3036" />
      <path
         d="m 241.178,578.718 q -0.546,2.52 -3.15,2.52 -1.596,0 -2.506,-0.994 -0.896,-0.994 -0.896,-2.758 0,-1.75 0.924,-2.828 0.938,-1.092 2.436,-1.092 1.666,0 2.464,1.134 0.812,1.12 0.812,2.842 v 0.168 h -5.432 l -0.014,0.084 q 0,1.148 0.602,1.806 0.602,0.658 1.652,0.658 0.784,0 1.232,-0.364 0.462,-0.364 0.714,-1.176 z m -1.148,-1.974 q -0.084,-1.036 -0.63,-1.61 -0.546,-0.588 -1.442,-0.588 -0.868,0 -1.442,0.588 -0.574,0.588 -0.686,1.61 z"
         id="path3038" />
      <path
         d="m 243.64201,573.776 v 1.12 q 0.896,-1.316 2.464,-1.316 1.274,0 1.834,0.672 0.574,0.658 0.574,1.946 V 581 h -1.19 v -4.256 q 0,-0.532 -0.042,-0.826 -0.028,-0.308 -0.168,-0.644 -0.14,-0.35 -0.476,-0.504 -0.336,-0.154 -0.868,-0.154 -2.058,0 -2.058,2.604 V 581 h -1.19 v -7.224 z"
         id="path3040" />
      <path
         d="m 256.56401,573.776 v 6.44 q 0,0.938 -0.098,1.442 -0.098,0.518 -0.364,0.966 -0.798,1.316 -2.856,1.316 -1.218,0 -2.058,-0.504 -0.84,-0.49 -0.98,-1.624 h 1.218 q 0.21,1.204 1.862,1.204 1.106,0 1.596,-0.56 0.504,-0.56 0.532,-1.806 l 0.014,-0.882 q -0.686,1.316 -2.296,1.316 -1.456,0 -2.324,-0.994 -0.854,-0.994 -0.854,-2.674 0,-1.582 0.854,-2.702 0.854,-1.134 2.38,-1.134 0.756,0 1.344,0.322 0.602,0.322 0.938,0.924 v -1.05 z m -3.318,0.84 q -0.966,0 -1.526,0.756 -0.546,0.742 -0.546,2.058 0,1.19 0.574,1.918 0.574,0.714 1.526,0.714 0.994,0 1.554,-0.756 0.574,-0.756 0.574,-2.072 0,-1.232 -0.574,-1.918 -0.56,-0.7 -1.582,-0.7 z"
         id="path3042" />
      <path
         d="m 261.436,573.776 v 0.98 h -1.442 v 4.214 q 0,0.35 0,0.462 0.014,0.112 0.084,0.308 0.07,0.182 0.238,0.238 0.168,0.056 0.476,0.056 0.266,0 0.644,-0.042 v 1.022 q -0.504,0.056 -0.91,0.056 -0.504,0 -0.84,-0.112 -0.336,-0.112 -0.518,-0.252 -0.168,-0.14 -0.252,-0.49 -0.084,-0.364 -0.098,-0.602 -0.014,-0.252 -0.014,-0.826 0,-0.126 0,-0.196 v -3.836 h -1.218 v -0.98 h 1.218 v -2.142 h 1.19 v 2.142 z"
         id="path3044" />
      <path
         d="m 263.94201,571.032 v 3.766 q 0.798,-1.204 2.366,-1.204 2.436,0 2.436,2.464 V 581 h -1.19 v -4.662 q 0,-0.826 -0.35,-1.26 -0.336,-0.448 -1.232,-0.448 -1.092,0 -1.568,0.7 -0.462,0.7 -0.462,2.002 V 581 h -1.19 v -9.968 z"
         id="path3046" />
    </g>
  </a>
  <path
     id="rect2187"
     style="fill:#320000;stroke:#320000"
     d="m 313,563 h 6 c 5.54,0 10,4.46 10,10 v 12 c 0,5.54 -4.46,10 -10,10 h -6 c -5.54,0 -10,-4.46 -10,-10 v -12 c 0,-5.54 4.46,-10 10,-10 z" />
  <path
     id="rect2189"
     class="terminal"
     style="fill:#ff0000;stroke:#320000"
     d="m 311,561 h 6 c 5.54,0 10,4.46 10,10 v 12 c 0,5.54 -4.46,10 -10,10 h -6 c -5.54,0 -10,-4.46 -10,-10 v -12 c 0,-5.54 4.46,-10 10,-10 z" />
  <g
     aria-label=")"
     id="text2191"
     class="terminal"
     style="font-weight:bold;font-size:14px;font-family:HelveticaNeueCyr, Sans-serif;fill:#ffe0e0">
    <path
       d="m 310.944,570.878 h 1.652 q 1.862,2.856 1.862,6.23 0,1.582 -0.49,3.416 -0.49,1.834 -1.344,2.968 h -1.666 q 0.84,-1.708 1.19,-3.15 0.364,-1.456 0.364,-3.262 0,-3.388 -1.568,-6.202 z"
       id="path3029" />
  </g>
  <path
     class="line"
     d="m17 17 h2 m20 0 h10 m48 0 h10 m0 0 h250 m-338 0 h20 m318 0 h20 m-358 0 q10 0 10 10 m338 0 q0 -10 10 -10 m-348 10 v24 m338 0 v-24 m-338 24 q0 10 10 10 m318 0 q10 0 10 -10 m-328 10 h10 m58 0 h10 m0 0 h240 m-328 -10 v20 m338 0 v-20 m-338 20 v24 m338 0 v-24 m-338 24 q0 10 10 10 m318 0 q10 0 10 -10 m-328 10 h10 m86 0 h10 m0 0 h212 m-328 -10 v20 m338 0 v-20 m-338 20 v24 m338 0 v-24 m-338 24 q0 10 10 10 m318 0 q10 0 10 -10 m-328 10 h10 m82 0 h10 m0 0 h216 m-328 -10 v20 m338 0 v-20 m-338 20 v24 m338 0 v-24 m-338 24 q0 10 10 10 m318 0 q10 0 10 -10 m-328 10 h10 m76 0 h10 m0 0 h222 m-328 -10 v20 m338 0 v-20 m-338 20 v24 m338 0 v-24 m-338 24 q0 10 10 10 m318 0 q10 0 10 -10 m-328 10 h10 m44 0 h10 m0 0 h254 m-328 -10 v20 m338 0 v-20 m-338 20 v24 m338 0 v-24 m-338 24 q0 10 10 10 m318 0 q10 0 10 -10 m-328 10 h10 m80 0 h10 m0 0 h218 m-328 -10 v20 m338 0 v-20 m-338 20 v24 m338 0 v-24 m-338 24 q0 10 10 10 m318 0 q10 0 10 -10 m-328 10 h10 m78 0 h10 m0 0 h220 m-328 -10 v20 m338 0 v-20 m-338 20 v24 m338 0 v-24 m-338 24 q0 10 10 10 m318 0 q10 0 10 -10 m-328 10 h10 m74 0 h10 m0 0 h224 m-328 -10 v20 m338 0 v-20 m-338 20 v24 m338 0 v-24 m-338 24 q0 10 10 10 m318 0 q10 0 10 -10 m-328 10 h10 m72 0 h10 m0 0 h226 m-328 -10 v20 m338 0 v-20 m-338 20 v24 m338 0 v-24 m-338 24 q0 10 10 10 m318 0 q10 0 10 -10 m-328 10 h10 m54 0 h10 m0 0 h244 m-328 -10 v20 m338 0 v-20 m-338 20 v24 m338 0 v-24 m-338 24 q0 10 10 10 m318 0 q10 0 10 -10 m-328 10 h10 m92 0 h10 m0 0 h206 m-328 -10 v20 m338 0 v-20 m-338 20 v24 m338 0 v-24 m-338 24 q0 10 10 10 m318 0 q10 0 10 -10 m-328 10 h10 m86 0 h10 m20 0 h10 m0 0 h162 m-192 0 h20 m172 0 h20 m-212 0 q10 0 10 10 m192 0 q0 -10 10 -10 m-202 10 v12 m192 0 v-12 m-192 12 q0 10 10 10 m172 0 q10 0 10 -10 m-182 10 h10 m26 0 h10 m0 0 h10 m60 0 h10 m0 0 h10 m26 0 h10 m43 -560 h-3"
     id="path2193" />
  <path
     id="polygon2195"
     style="fill:#320000;stroke:#320000"
     d="m 387,17 8,-4 v 8 z" />
  <path
     id="polygon2197"
     style="fill:#320000;stroke:#320000"
     d="m 387,17 -8,-4 v 8 z" />
</svg>
