<?xml version="1.0" encoding="UTF-8" standalone="no"?>
<svg
   width="377"
   height="125"
   version="1.1"
   id="svg2579"
   sodipodi:docname="values.svg"
   inkscape:version="1.2.2 (b0a8486541, 2022-12-01)"
   xmlns:inkscape="http://www.inkscape.org/namespaces/inkscape"
   xmlns:sodipodi="http://sodipodi.sourceforge.net/DTD/sodipodi-0.dtd"
   xmlns:xlink="http://www.w3.org/1999/xlink"
   xmlns="http://www.w3.org/2000/svg"
   xmlns:svg="http://www.w3.org/2000/svg">
  <sodipodi:namedview
     id="namedview2581"
     pagecolor="#ffffff"
     bordercolor="#666666"
     borderopacity="1.0"
     inkscape:showpageshadow="2"
     inkscape:pageopacity="0.0"
     inkscape:pagecheckerboard="0"
     inkscape:deskcolor="#d1d1d1"
     showgrid="false"
     inkscape:zoom="3.4403183"
     inkscape:cx="188.5"
     inkscape:cy="62.494217"
     inkscape:window-width="1920"
     inkscape:window-height="1011"
     inkscape:window-x="0"
     inkscape:window-y="32"
     inkscape:window-maximized="1"
     inkscape:current-layer="svg2579" />
  <defs
     id="defs2529">
    <style
       type="text/css"
       id="style2527">
    @namespace &quot;http://www.w3.org/2000/svg&quot;;
    .line                 {fill: none; stroke: #320000; stroke-width: 1;}
    .bold-line            {stroke: #FFE0E0; shape-rendering: crispEdges; stroke-width: 2;}
    .thin-line            {stroke: #1F0000; shape-rendering: crispEdges}
    .filled               {fill: #320000; stroke: none;}
    text.terminal         {font-family: HelveticaNeueCyr, Sans-serif;
                            font-size: 14px;
                            fill: #FFE0E0;
                            font-weight: bold;
                          }
    text.nonterminal      {font-family: HelveticaNeueCyr, Sans-serif;
                            font-size: 14px;
                            fill: #FFE0E0;
                            font-weight: normal;
                          }
    text.regexp           {font-family: HelveticaNeueCyr, Sans-serif;
                            font-size: 14px;
                            fill: #1F0000;
                            font-weight: normal;
                          }
    rect, circle, polygon {fill: #320000; stroke: #320000;}
    rect.terminal         {fill: #FF0000; stroke: #320000; stroke-width: 1;}
    rect.nonterminal      {fill: #FF3F3F; stroke: #320000; stroke-width: 1;}
    rect.text             {fill: none; stroke: none;}
    polygon.regexp        {fill: #FF5E5E; stroke: #320000; stroke-width: 1;}
  </style>
  </defs>
  <path
     id="polygon2531"
     style="fill:#320000;stroke:#320000"
     d="m 9,105 -8,-4 v 8 z" />
  <path
     id="polygon2533"
     style="fill:#320000;stroke:#320000"
     d="m 17,105 -8,-4 v 8 z" />
  <path
     id="rect2535"
     style="fill:#320000;stroke:#320000"
     d="m 41,91 h 52 c 5.54,0 10,4.46 10,10 v 12 c 0,5.54 -4.46,10 -10,10 H 41 c -5.54,0 -10,-4.46 -10,-10 v -12 c 0,-5.54 4.46,-10 10,-10 z" />
  <path
     id="rect2537"
     class="terminal"
     style="fill:#ff0000;stroke:#320000"
     d="m 39,89 h 52 c 5.54,0 10,4.46 10,10 v 12 c 0,5.54 -4.46,10 -10,10 H 39 c -5.54,0 -10,-4.46 -10,-10 V 99 c 0,-5.54 4.46,-10 10,-10 z" />
  <g
     aria-label="VALUES"
     id="text2539"
     class="terminal"
     style="font-weight:bold;font-size:14px;font-family:HelveticaNeueCyr, Sans-serif;fill:#ffe0e0">
    <path
       d="m 38.888,99.032 h 2.282 l 2.24,7 2.268,-7 h 2.268 L 44.628,109 H 42.15 Z"
       id="path2735" />
    <path
       d="m 53.097995,99.018 3.794,9.982 h -2.296 l -0.784,-2.226 h -3.71 l -0.812,2.226 h -2.24 l 3.794,-9.982 z m 0.182,6.16 -1.316,-3.71 -1.33,3.71 z"
       id="path2737" />
    <path
       d="M 64.787987,107.124 V 109 h -7.056 v -9.968 h 2.184 v 8.092 z"
       id="path2739" />
    <path
       d="m 74.517993,99.032 v 5.992 q 0,2.142 -1.036,3.164 -1.022,1.008 -3.206,1.008 -2.212,0 -3.262,-1.022 -1.036,-1.036 -1.036,-3.178 v -5.964 h 2.184 v 5.964 q 0,1.218 0.462,1.806 0.462,0.588 1.68,0.588 1.176,0 1.596,-0.588 0.434,-0.588 0.434,-1.806 v -5.964 z"
       id="path2741" />
    <path
       d="m 83.883982,99.032 v 1.792 h -5.306 v 2.17 h 4.872 v 1.722 h -4.872 v 2.45 h 5.404 V 109 h -7.574 v -9.968 z"
       id="path2743" />
    <path
       d="m 92.857992,102 h -2.072 q -0.126,-1.484 -1.89,-1.484 -0.756,0 -1.19,0.308 -0.42,0.294 -0.42,0.826 0,0.182 0.056,0.322 0.056,0.14 0.21,0.266 0.154,0.112 0.308,0.196 0.154,0.07 0.448,0.168 0.308,0.084 0.546,0.154 0.252,0.07 0.7,0.182 0.448,0.112 0.784,0.21 1.47,0.42 2.184,1.05 0.728,0.63 0.728,1.806 0,0.854 -0.35,1.498 -0.35,0.63 -0.952,1.008 -0.588,0.364 -1.302,0.532 -0.7,0.182 -1.498,0.182 -2.03,0 -3.178,-0.924 -1.134,-0.938 -1.148,-2.632 h 2.17 q 0.056,1.876 2.254,1.876 0.854,0 1.344,-0.35 0.504,-0.364 0.504,-0.98 0,-0.518 -0.462,-0.756 -0.448,-0.238 -1.904,-0.658 -0.238,-0.056 -0.364,-0.098 -0.504,-0.14 -0.7,-0.196 -0.196,-0.07 -0.63,-0.224 -0.42,-0.154 -0.616,-0.28 -0.196,-0.126 -0.49,-0.35 -0.28,-0.224 -0.406,-0.462 -0.126,-0.252 -0.238,-0.602 -0.098,-0.364 -0.098,-0.784 0,-1.358 1.05,-2.17 1.05,-0.812 2.786,-0.812 1.68,0 2.744,0.798 1.064,0.784 1.092,2.38 z"
       id="path2745" />
  </g>
  <path
     id="rect2541"
     style="fill:#320000;stroke:#320000"
     d="m 153,91 h 6 c 5.54,0 10,4.46 10,10 v 12 c 0,5.54 -4.46,10 -10,10 h -6 c -5.54,0 -10,-4.46 -10,-10 v -12 c 0,-5.54 4.46,-10 10,-10 z" />
  <path
     id="rect2543"
     class="terminal"
     style="fill:#ff0000;stroke:#320000"
     d="m 151,89 h 6 c 5.54,0 10,4.46 10,10 v 12 c 0,5.54 -4.46,10 -10,10 h -6 c -5.54,0 -10,-4.46 -10,-10 V 99 c 0,-5.54 4.46,-10 10,-10 z" />
  <g
     aria-label="("
     id="text2545"
     class="terminal"
     style="font-weight:bold;font-size:14px;font-family:HelveticaNeueCyr, Sans-serif;fill:#ffe0e0">
    <path
       d="m 155.228,98.878 q -0.812,1.624 -1.19,3.108 -0.364,1.484 -0.364,3.262 0,3.08 1.582,6.244 h -1.68 q -0.868,-1.316 -1.358,-2.954 -0.476,-1.638 -0.476,-3.248 0,-1.68 0.462,-3.388 0.476,-1.722 1.372,-3.024 z"
       id="path2730" />
  </g>
  <a
     xlink:href="#value"
     xlink:title="value"
     id="a2553">
    <path
       id="rect2547"
       style="fill:#320000;stroke:#320000"
       d="m 209,91 h 54 v 32 h -54 z" />
    <path
       id="rect2549"
       class="nonterminal"
       style="fill:#ff3f3f;stroke:#320000"
       d="m 207,89 h 54 v 32 h -54 z" />
    <g
       aria-label="value"
       id="text2551"
       class="nonterminal"
       style="font-size:14px;font-family:HelveticaNeueCyr, Sans-serif;fill:#ffe0e0">
      <path
         d="m 217.196,101.776 h 1.33 l 2.044,6.062 1.988,-6.062 h 1.246 L 221.158,109 h -1.274 z"
         id="path2719" />
      <path
         d="m 231.294,108.048 v 0.924 q -0.364,0.14 -0.812,0.14 -1.022,0 -1.05,-1.064 -1.022,1.148 -2.618,1.148 -1.064,0 -1.694,-0.546 -0.616,-0.546 -0.616,-1.498 0,-1.932 2.562,-2.254 1.512,-0.182 1.75,-0.266 0.504,-0.168 0.546,-0.7 0.014,-0.084 0.014,-0.182 0,-1.19 -1.638,-1.19 -0.84,0 -1.274,0.35 -0.434,0.336 -0.518,1.12 h -1.162 q 0.028,-1.162 0.826,-1.806 0.798,-0.644 2.198,-0.644 1.526,0 2.268,0.7 0.238,0.224 0.35,0.588 0.112,0.364 0.126,0.602 0.014,0.224 0.014,0.686 0,0.546 -0.028,1.624 -0.028,1.064 -0.028,1.596 0,0.392 0.098,0.56 0.112,0.154 0.392,0.154 0.112,0 0.294,-0.042 z m -1.918,-2.8 q -0.126,0.098 -0.266,0.168 -0.14,0.07 -0.364,0.112 -0.21,0.042 -0.294,0.07 -0.07,0.014 -0.364,0.056 -0.294,0.028 -0.308,0.028 -0.434,0.056 -0.574,0.084 -0.126,0.014 -0.504,0.112 -0.364,0.098 -0.518,0.224 -0.154,0.126 -0.308,0.378 -0.14,0.238 -0.14,0.574 0,0.56 0.378,0.882 0.392,0.322 1.064,0.322 0.854,0 1.526,-0.504 0.672,-0.504 0.672,-1.19 z"
         id="path2721" />
      <path
         d="M 233.67401,99.032 V 109 h -1.204 v -9.968 z"
         id="path2723" />
      <path
         d="M 241.51401,101.776 V 109 h -1.106 v -1.134 q -0.924,1.33 -2.492,1.33 -1.148,0 -1.778,-0.63 -0.63,-0.63 -0.63,-1.82 v -4.97 h 1.19 v 4.648 q 0,0.854 0.322,1.302 0.336,0.434 1.19,0.434 2.114,0 2.114,-2.604 v -3.78 z"
         id="path2725" />
      <path
         d="m 249.48001,106.718 q -0.546,2.52 -3.15,2.52 -1.596,0 -2.506,-0.994 -0.896,-0.994 -0.896,-2.758 0,-1.75 0.924,-2.828 0.938,-1.092 2.436,-1.092 1.666,0 2.464,1.134 0.812,1.12 0.812,2.842 v 0.168 h -5.432 l -0.014,0.084 q 0,1.148 0.602,1.806 0.602,0.658 1.652,0.658 0.784,0 1.232,-0.364 0.462,-0.364 0.714,-1.176 z m -1.148,-1.974 q -0.084,-1.036 -0.63,-1.61 -0.546,-0.588 -1.442,-0.588 -0.868,0 -1.442,0.588 -0.574,0.588 -0.686,1.61 z"
         id="path2727" />
    </g>
  </a>
  <path
     id="rect2555"
     style="fill:#320000;stroke:#320000"
     d="m 219,47 h 4 c 5.54,0 10,4.46 10,10 v 12 c 0,5.54 -4.46,10 -10,10 h -4 c -5.54,0 -10,-4.46 -10,-10 V 57 c 0,-5.54 4.46,-10 10,-10 z" />
  <path
     id="rect2557"
     class="terminal"
     style="fill:#ff0000;stroke:#320000"
     d="m 217,45 h 4 c 5.54,0 10,4.46 10,10 v 12 c 0,5.54 -4.46,10 -10,10 h -4 c -5.54,0 -10,-4.46 -10,-10 V 55 c 0,-5.54 4.46,-10 10,-10 z" />
  <g
     aria-label=","
     id="text2559"
     class="terminal"
     style="font-weight:bold;font-size:14px;font-family:HelveticaNeueCyr, Sans-serif;fill:#ffe0e0">
    <path
       d="m 220.052,62.816 v 1.778 q 0,1.218 -0.546,1.876 -0.532,0.672 -1.666,0.854 v -0.98 q 0.938,-0.28 0.994,-1.344 h -0.994 v -2.184 z"
       id="path2712" />
  </g>
  <path
     id="rect2561"
     style="fill:#320000;stroke:#320000"
     d="m 313,91 h 6 c 5.54,0 10,4.46 10,10 v 12 c 0,5.54 -4.46,10 -10,10 h -6 c -5.54,0 -10,-4.46 -10,-10 v -12 c 0,-5.54 4.46,-10 10,-10 z" />
  <path
     id="rect2563"
     class="terminal"
     style="fill:#ff0000;stroke:#320000"
     d="m 311,89 h 6 c 5.54,0 10,4.46 10,10 v 12 c 0,5.54 -4.46,10 -10,10 h -6 c -5.54,0 -10,-4.46 -10,-10 V 99 c 0,-5.54 4.46,-10 10,-10 z" />
  <g
     aria-label=")"
     id="text2565"
     class="terminal"
     style="font-weight:bold;font-size:14px;font-family:HelveticaNeueCyr, Sans-serif;fill:#ffe0e0">
    <path
       d="m 310.944,98.878 h 1.652 q 1.862,2.856 1.862,6.23 0,1.582 -0.49,3.416 -0.49,1.834 -1.344,2.968 h -1.666 q 0.84,-1.708 1.19,-3.15 0.364,-1.456 0.364,-3.262 0,-3.388 -1.568,-6.202 z"
       id="path2707" />
  </g>
  <path
     id="rect2567"
     style="fill:#320000;stroke:#320000"
     d="m 153,3 h 4 c 5.54,0 10,4.46 10,10 v 12 c 0,5.54 -4.46,10 -10,10 h -4 c -5.54,0 -10,-4.46 -10,-10 V 13 c 0,-5.54 4.46,-10 10,-10 z" />
  <path
     id="rect2569"
     class="terminal"
     style="fill:#ff0000;stroke:#320000"
     d="m 151,1 h 4 c 5.54,0 10,4.46 10,10 v 12 c 0,5.54 -4.46,10 -10,10 h -4 c -5.54,0 -10,-4.46 -10,-10 V 11 c 0,-5.54 4.46,-10 10,-10 z" />
  <g
     aria-label=","
     id="text2571"
     class="terminal"
     style="font-weight:bold;font-size:14px;font-family:HelveticaNeueCyr, Sans-serif;fill:#ffe0e0">
    <path
       d="m 154.052,18.816 v 1.778 q 0,1.218 -0.546,1.876 -0.532,0.672 -1.666,0.854 v -0.98 q 0.938,-0.28 0.994,-1.344 h -0.994 v -2.184 z"
       id="path2702" />
  </g>
  <path
     class="line"
     d="m17 105 h2 m0 0 h10 m72 0 h10 m20 0 h10 m26 0 h10 m20 0 h10 m54 0 h10 m-94 0 l20 0 m-1 0 q-9 0 -9 -10 l0 -24 q0 -10 10 -10 m74 44 l20 0 m-20 0 q10 0 10 -10 l0 -24 q0 -10 -10 -10 m-74 0 h10 m24 0 h10 m0 0 h30 m20 44 h10 m26 0 h10 m-226 0 l20 0 m-1 0 q-9 0 -9 -10 l0 -68 q0 -10 10 -10 m206 88 l20 0 m-20 0 q10 0 10 -10 l0 -68 q0 -10 -10 -10 m-206 0 h10 m24 0 h10 m0 0 h162 m23 88 h-3"
     id="path2573" />
  <path
     id="polygon2575"
     style="fill:#320000;stroke:#320000"
     d="m 367,105 8,-4 v 8 z" />
  <path
     id="polygon2577"
     style="fill:#320000;stroke:#320000"
     d="m 367,105 -8,-4 v 8 z" />
</svg>
