<?xml version="1.0" encoding="UTF-8"?>
<svg xmlns="http://www.w3.org/2000/svg" width="371" height="125">
   <defs>
      <style type="text/css">
    @namespace "http://www.w3.org/2000/svg";
    .line                 {fill: none; stroke: #113300; stroke-width: 1;}
    .bold-line            {stroke: #071400; shape-rendering: crispEdges; stroke-width: 2;}
    .thin-line            {stroke: #0A1F00; shape-rendering: crispEdges}
    .filled               {fill: #113300; stroke: none;}
    text.terminal         {font-family: Verdana, Sans-serif;
                            font-size: 12px;
                            fill: #071400;
                            font-weight: bold;
                          }
    text.nonterminal      {font-family: Verdana, Sans-serif;
                            font-size: 12px;
                            fill: #091A00;
                            font-weight: normal;
                          }
    text.regexp           {font-family: Verdana, Sans-serif;
                            font-size: 12px;
                            fill: #0A1F00;
                            font-weight: normal;
                          }
    rect, circle, polygon {fill: #113300; stroke: #113300;}
    rect.terminal         {fill: #88FF4D; stroke: #113300; stroke-width: 1;}
    rect.nonterminal      {fill: #BFFF9E; stroke: #113300; stroke-width: 1;}
    rect.text             {fill: none; stroke: none;}
    polygon.regexp        {fill: #DAFFC7; stroke: #113300; stroke-width: 1;}
  </style>
   </defs>
   <polygon points="9 105 1 101 1 109"/>
   <polygon points="17 105 9 101 9 109"/>
   <rect x="31" y="91" width="64" height="32" rx="10"/>
   <rect x="29"
          y="89"
          width="64"
          height="32"
          class="terminal"
          rx="10"/>
   <text class="terminal" x="39" y="109">values</text>
   <rect x="135" y="91" width="26" height="32" rx="10"/>
   <rect x="133"
          y="89"
          width="26"
          height="32"
          class="terminal"
          rx="10"/>
   <text class="terminal" x="143" y="109">(</text>
   <a xmlns:xlink="http://www.w3.org/1999/xlink"
       xlink:href="#Value"
       xlink:title="Value">
      <rect x="201" y="91" width="56" height="32"/>
      <rect x="199" y="89" width="56" height="32" class="nonterminal"/>
      <text class="nonterminal" x="209" y="109">Value</text>
   </a>
   <rect x="201" y="47" width="24" height="32" rx="10"/>
   <rect x="199"
          y="45"
          width="24"
          height="32"
          class="terminal"
          rx="10"/>
   <text class="terminal" x="209" y="65">,</text>
   <rect x="297" y="91" width="26" height="32" rx="10"/>
   <rect x="295"
          y="89"
          width="26"
          height="32"
          class="terminal"
          rx="10"/>
   <text class="terminal" x="305" y="109">)</text>
   <rect x="135" y="3" width="24" height="32" rx="10"/>
   <rect x="133"
          y="1"
          width="24"
          height="32"
          class="terminal"
          rx="10"/>
   <text class="terminal" x="143" y="21">,</text>
   <path class="line"
          d="m17 105 h2 m0 0 h10 m64 0 h10 m20 0 h10 m26 0 h10 m20 0 h10 m56 0 h10 m-96 0 l20 0 m-1 0 q-9 0 -9 -10 l0 -24 q0 -10 10 -10 m76 44 l20 0 m-20 0 q10 0 10 -10 l0 -24 q0 -10 -10 -10 m-76 0 h10 m24 0 h10 m0 0 h32 m20 44 h10 m26 0 h10 m-228 0 l20 0 m-1 0 q-9 0 -9 -10 l0 -68 q0 -10 10 -10 m208 88 l20 0 m-20 0 q10 0 10 -10 l0 -68 q0 -10 -10 -10 m-208 0 h10 m24 0 h10 m0 0 h164 m23 88 h-3"/>
   <polygon points="361 105 369 101 369 109"/>
   <polygon points="361 105 353 101 353 109"/>
</svg>
