<?xml version="1.0" encoding="UTF-8"?>
<svg xmlns="http://www.w3.org/2000/svg" width="579" height="189">
   <defs>
      <style type="text/css">
    @namespace "http://www.w3.org/2000/svg";
    .line                 {fill: none; stroke: #320000; stroke-width: 1;}
    .bold-line            {stroke: #FFE0E0; shape-rendering: crispEdges; stroke-width: 2;}
    .thin-line            {stroke: #1F0000; shape-rendering: crispEdges}
    .filled               {fill: #320000; stroke: none;}
    text.terminal         {font-family: HelveticaNeueCyr, Sans-serif;
                            font-size: 14px;
                            fill: #FFE0E0;
                            font-weight: bold;
                          }
    text.nonterminal      {font-family: HelveticaNeueCyr, Sans-serif;
                            font-size: 14px;
                            fill: #FFE0E0;
                            font-weight: normal;
                          }
    text.regexp           {font-family: HelveticaNeueCyr, Sans-serif;
                            font-size: 4px;
                            fill: #1F0000;
                            font-weight: normal;
                          }
    rect, circle, polygon {fill: #320000; stroke: #320000;}
    rect.terminal         {fill: #FF0000; stroke: #320000; stroke-width: 1;}
    rect.nonterminal      {fill: #FF3F3F; stroke: #320000; stroke-width: 1;}
    rect.text             {fill: none; stroke: none;}
    polygon.regexp        {fill: #FF5E5E; stroke: #320000; stroke-width: 1;}
  </style>
   </defs>
   <polygon points="9 17 1 13 1 21"/>
   <polygon points="17 17 9 13 9 21"/>
   <rect x="71" y="35" width="54" height="32" rx="10"/>
   <rect x="69"
          y="33"
          width="54"
          height="32"
          class="terminal"
          rx="10"/>
   <text class="terminal" x="79" y="53">table</text>
   <rect x="145" y="35" width="24" height="32" rx="10"/>
   <rect x="143"
          y="33"
          width="24"
          height="32"
          class="terminal"
          rx="10"/>
   <text class="terminal" x="153" y="53">.</text>
   <rect x="209" y="3" width="28" height="32" rx="10"/>
   <rect x="207"
          y="1"
          width="28"
          height="32"
          class="terminal"
          rx="10"/>
   <text class="terminal" x="217" y="21">*</text>
   <rect x="91" y="111" width="54" height="32" rx="10"/>
   <rect x="89"
          y="109"
          width="54"
          height="32"
          class="terminal"
          rx="10"/>
   <text class="terminal" x="99" y="129">table</text>
   <rect x="165" y="111" width="24" height="32" rx="10"/>
   <rect x="163"
          y="109"
          width="24"
          height="32"
          class="terminal"
          rx="10"/>
   <text class="terminal" x="173" y="129">.</text>
   <rect x="229" y="79" width="114" height="32" rx="10"/>
   <rect x="227"
          y="77"
          width="114"
          height="32"
          class="terminal"
          rx="10"/>
   <text class="terminal" x="237" y="97">column_name</text>
   <a xmlns:xlink="http://www.w3.org/1999/xlink"
       xlink:href="#expression"
       xlink:title="expression">
      <rect x="71" y="155" width="90" height="32"/>
      <rect x="69" y="153" width="90" height="32" class="nonterminal"/>
      <text class="nonterminal" x="79" y="173">expression</text>
   </a>
   <rect x="403" y="111" width="38" height="32" rx="10"/>
   <rect x="401"
          y="109"
          width="38"
          height="32"
          class="terminal"
          rx="10"/>
   <text class="terminal" x="411" y="129">AS</text>
   <a xmlns:xlink="http://www.w3.org/1999/xlink"
       xlink:href="#alias"
       xlink:title="alias">
      <rect x="461" y="111" width="50" height="32"/>
      <rect x="459" y="109" width="50" height="32" class="nonterminal"/>
      <text class="nonterminal" x="469" y="129">alias</text>
   </a>
   <path class="line"
          d="m17 17 h2 m40 0 h10 m0 0 h108 m-138 0 h20 m118 0 h20 m-158 0 q10 0 10 10 m138 0 q0 -10 10 -10 m-148 10 v12 m138 0 v-12 m-138 12 q0 10 10 10 m118 0 q10 0 10 -10 m-128 10 h10 m54 0 h10 m0 0 h10 m24 0 h10 m20 -32 h10 m28 0 h10 m0 0 h294 m-520 0 h20 m500 0 h20 m-540 0 q10 0 10 10 m520 0 q0 -10 10 -10 m-530 10 v56 m520 0 v-56 m-520 56 q0 10 10 10 m500 0 q10 0 10 -10 m-470 10 h10 m0 0 h108 m-138 0 h20 m118 0 h20 m-158 0 q10 0 10 10 m138 0 q0 -10 10 -10 m-148 10 v12 m138 0 v-12 m-138 12 q0 10 10 10 m118 0 q10 0 10 -10 m-128 10 h10 m54 0 h10 m0 0 h10 m24 0 h10 m20 -32 h10 m114 0 h10 m-312 0 h20 m292 0 h20 m-332 0 q10 0 10 10 m312 0 q0 -10 10 -10 m-322 10 v56 m312 0 v-56 m-312 56 q0 10 10 10 m292 0 q10 0 10 -10 m-302 10 h10 m90 0 h10 m0 0 h182 m40 -76 h10 m0 0 h118 m-148 0 h20 m128 0 h20 m-168 0 q10 0 10 10 m148 0 q0 -10 10 -10 m-158 10 v12 m148 0 v-12 m-148 12 q0 10 10 10 m128 0 q10 0 10 -10 m-138 10 h10 m38 0 h10 m0 0 h10 m50 0 h10 m43 -108 h-3"/>
   <polygon points="569 17 577 13 577 21"/>
   <polygon points="569 17 561 13 561 21"/>
</svg>
