<?xml version="1.0" encoding="UTF-8" standalone="no"?>
<svg
   width="761"
   height="389"
   version="1.1"
   id="svg10913"
   sodipodi:docname="expression.svg"
   inkscape:version="1.2.2 (b0a8486541, 2022-12-01)"
   xmlns:inkscape="http://www.inkscape.org/namespaces/inkscape"
   xmlns:sodipodi="http://sodipodi.sourceforge.net/DTD/sodipodi-0.dtd"
   xmlns:xlink="http://www.w3.org/1999/xlink"
   xmlns="http://www.w3.org/2000/svg"
   xmlns:svg="http://www.w3.org/2000/svg">
  <sodipodi:namedview
     id="namedview10915"
     pagecolor="#ffffff"
     bordercolor="#666666"
     borderopacity="1.0"
     inkscape:showpageshadow="2"
     inkscape:pageopacity="0.0"
     inkscape:pagecheckerboard="0"
     inkscape:deskcolor="#d1d1d1"
     showgrid="false"
     inkscape:zoom="1.7043364"
     inkscape:cx="380.5"
     inkscape:cy="194.21049"
     inkscape:window-width="1920"
     inkscape:window-height="1011"
     inkscape:window-x="0"
     inkscape:window-y="32"
     inkscape:window-maximized="1"
     inkscape:current-layer="svg10913" />
  <defs
     id="defs10777">
    <style
       type="text/css"
       id="style10775">
    @namespace &quot;http://www.w3.org/2000/svg&quot;;
    .line                 {fill: none; stroke: #320000; stroke-width: 1;}
    .bold-line            {stroke: #FFE0E0; shape-rendering: crispEdges; stroke-width: 2;}
    .thin-line            {stroke: #1F0000; shape-rendering: crispEdges}
    .filled               {fill: #320000; stroke: none;}
    text.terminal         {font-family: HelveticaNeueCyr, Sans-serif;
                            font-size: 14px;
                            fill: #FFE0E0;
                            font-weight: bold;
                          }
    text.nonterminal      {font-family: HelveticaNeueCyr, Sans-serif;
                            font-size: 14px;
                            fill: #FFE0E0;
                            font-weight: normal;
                          }
    text.regexp           {font-family: HelveticaNeueCyr, Sans-serif;
                            font-size: 14px;
                            fill: #1F0000;
                            font-weight: normal;
                          }
    rect, circle, polygon {fill: #320000; stroke: #320000;}
    rect.terminal         {fill: #FF0000; stroke: #320000; stroke-width: 1;}
    rect.nonterminal      {fill: #FF3F3F; stroke: #320000; stroke-width: 1;}
    rect.text             {fill: none; stroke: none;}
    polygon.regexp        {fill: #FF5E5E; stroke: #320000; stroke-width: 1;}
  </style>
  </defs>
  <polygon
     points="9 17 1 13 1 21"
     id="polygon10779" />
  <polygon
     points="17 17 9 13 9 21"
     id="polygon10781" />
  <a
     xlink:href="#column_name"
     xlink:title="column_name"
     id="a10789">
    <rect
       x="51"
       y="3"
       width="108"
       height="32"
       id="rect10783" />
    <rect
       x="49"
       y="1"
       width="108"
       height="32"
       class="nonterminal"
       id="rect10785" />
    <text
       class="nonterminal"
       x="59"
       y="21"
       id="text10787">column_name</text>
  </a>
  <rect
     x="51"
     y="47"
     width="56"
     height="32"
     rx="10"
     id="rect10791" />
  <rect
     x="49"
     y="45"
     width="56"
     height="32"
     class="terminal"
     rx="10"
     id="rect10793" />
  <text
     class="terminal"
     x="59"
     y="65"
     id="text10795">CAST</text>
  <rect
     x="127"
     y="47"
     width="26"
     height="32"
     rx="10"
     id="rect10797" />
  <rect
     x="125"
     y="45"
     width="26"
     height="32"
     class="terminal"
     rx="10"
     id="rect10799" />
  <text
     class="terminal"
     x="135"
     y="65"
     id="text10801">(</text>
  <a
     xlink:href="#expression"
     xlink:title="expression"
     id="a10809">
    <rect
       x="173"
       y="47"
       width="90"
       height="32"
       id="rect10803" />
    <rect
       x="171"
       y="45"
       width="90"
       height="32"
       class="nonterminal"
       id="rect10805" />
    <text
       class="nonterminal"
       x="181"
       y="65"
       id="text10807">expression</text>
  </a>
  <rect
     x="283"
     y="47"
     width="38"
     height="32"
     rx="10"
     id="rect10811" />
  <rect
     x="281"
     y="45"
     width="38"
     height="32"
     class="terminal"
     rx="10"
     id="rect10813" />
  <text
     class="terminal"
     x="291"
     y="65"
     id="text10815">AS</text>
  <a
     xlink:href="#type"
     xlink:title="type"
     id="a10823">
    <rect
       x="341"
       y="47"
       width="48"
       height="32"
       id="rect10817" />
    <rect
       x="339"
       y="45"
       width="48"
       height="32"
       class="nonterminal"
       id="rect10819" />
    <text
       class="nonterminal"
       x="349"
       y="65"
       id="text10821">type</text>
  </a>
  <rect
     x="409"
     y="47"
     width="26"
     height="32"
     rx="10"
     id="rect10825" />
  <rect
     x="407"
     y="45"
     width="26"
     height="32"
     class="terminal"
     rx="10"
     id="rect10827" />
  <text
     class="terminal"
     x="417"
     y="65"
     id="text10829">)</text>
  <a
     xlink:href="#expression"
     xlink:title="expression"
     id="a10837">
    <rect
       x="51"
       y="91"
       width="90"
       height="32"
       id="rect10831" />
    <rect
       x="49"
       y="89"
       width="90"
       height="32"
       class="nonterminal"
       id="rect10833" />
    <text
       class="nonterminal"
       x="59"
       y="109"
       id="text10835">expression</text>
  </a>
  <rect
     x="181"
     y="91"
     width="74"
     height="32"
     rx="10"
     id="rect10839" />
  <rect
     x="179"
     y="89"
     width="74"
     height="32"
     class="terminal"
     rx="10"
     id="rect10841" />
  <text
     class="terminal"
     x="189"
     y="109"
     id="text10843">IS NULL</text>
  <rect
     x="181"
     y="135"
     width="108"
     height="32"
     rx="10"
     id="rect10845" />
  <rect
     x="179"
     y="133"
     width="108"
     height="32"
     class="terminal"
     rx="10"
     id="rect10847" />
  <text
     class="terminal"
     x="189"
     y="153"
     id="text10849">IS NOT NULL</text>
  <rect
     x="201"
     y="179"
     width="362"
     height="32"
     rx="10"
     id="rect10851" />
  <rect
     x="199"
     y="177"
     width="362"
     height="32"
     class="terminal"
     rx="10"
     id="rect10853" />
  <rect
     x="201"
     y="223"
     width="86"
     height="32"
     rx="10"
     id="rect10857" />
  <rect
     x="199"
     y="221"
     width="86"
     height="32"
     class="terminal"
     rx="10"
     id="rect10859" />
  <text
     class="terminal"
     x="209"
     y="241"
     id="text10861">BETWEEN</text>
  <a
     xlink:href="#expression"
     xlink:title="expression"
     id="a10869">
    <rect
       x="307"
       y="223"
       width="90"
       height="32"
       id="rect10863" />
    <rect
       x="305"
       y="221"
       width="90"
       height="32"
       class="nonterminal"
       id="rect10865" />
    <text
       class="nonterminal"
       x="315"
       y="241"
       id="text10867">expression</text>
  </a>
  <rect
     x="417"
     y="223"
     width="48"
     height="32"
     rx="10"
     id="rect10871" />
  <rect
     x="415"
     y="221"
     width="48"
     height="32"
     class="terminal"
     rx="10"
     id="rect10873" />
  <text
     class="terminal"
     x="425"
     y="241"
     id="text10875">AND</text>
  <a
     xlink:href="#expression"
     xlink:title="expression"
     id="a10883">
    <rect
       x="603"
       y="179"
       width="90"
       height="32"
       id="rect10877" />
    <rect
       x="601"
       y="177"
       width="90"
       height="32"
       class="nonterminal"
       id="rect10879" />
    <text
       class="nonterminal"
       x="611"
       y="197"
       id="text10881">expression</text>
  </a>
  <a
     xlink:href="#reference"
     xlink:title="reference"
     id="a10891">
    <rect
       x="51"
       y="267"
       width="80"
       height="32"
       id="rect10885" />
    <rect
       x="49"
       y="265"
       width="80"
       height="32"
       class="nonterminal"
       id="rect10887" />
    <text
       class="nonterminal"
       x="59"
       y="285"
       id="text10889">reference</text>
  </a>
  <rect
     x="51"
     y="311"
     width="70"
     height="32"
     rx="10"
     id="rect10893" />
  <rect
     x="49"
     y="309"
     width="70"
     height="32"
     class="terminal"
     rx="10"
     id="rect10895" />
  <text
     class="terminal"
     x="59"
     y="329"
     id="text10897">SELECT</text>
  <a
     xlink:href="#value"
     xlink:title="value"
     id="a10905">
    <rect
       x="51"
       y="355"
       width="54"
       height="32"
       id="rect10899" />
    <rect
       x="49"
       y="353"
       width="54"
       height="32"
       class="nonterminal"
       id="rect10901" />
    <text
       class="nonterminal"
       x="59"
       y="373"
       id="text10903">value</text>
  </a>
  <path
     class="line"
     d="m17 17 h2 m20 0 h10 m108 0 h10 m0 0 h554 m-702 0 h20 m682 0 h20 m-722 0 q10 0 10 10 m702 0 q0 -10 10 -10 m-712 10 v24 m702 0 v-24 m-702 24 q0 10 10 10 m682 0 q10 0 10 -10 m-692 10 h10 m56 0 h10 m0 0 h10 m26 0 h10 m0 0 h10 m90 0 h10 m0 0 h10 m38 0 h10 m0 0 h10 m48 0 h10 m0 0 h10 m26 0 h10 m0 0 h278 m-692 -10 v20 m702 0 v-20 m-702 20 v24 m702 0 v-24 m-702 24 q0 10 10 10 m682 0 q10 0 10 -10 m-692 10 h10 m90 0 h10 m20 0 h10 m74 0 h10 m0 0 h438 m-552 0 h20 m532 0 h20 m-572 0 q10 0 10 10 m552 0 q0 -10 10 -10 m-562 10 v24 m552 0 v-24 m-552 24 q0 10 10 10 m532 0 q10 0 10 -10 m-542 10 h10 m108 0 h10 m0 0 h404 m-542 -10 v20 m552 0 v-20 m-552 20 v24 m552 0 v-24 m-552 24 q0 10 10 10 m532 0 q10 0 10 -10 m-522 10 h10 m362 0 h10 m-402 0 h20 m382 0 h20 m-422 0 q10 0 10 10 m402 0 q0 -10 10 -10 m-412 10 v24 m402 0 v-24 m-402 24 q0 10 10 10 m382 0 q10 0 10 -10 m-392 10 h10 m86 0 h10 m0 0 h10 m90 0 h10 m0 0 h10 m48 0 h10 m0 0 h98 m20 -44 h10 m90 0 h10 m-672 -98 v20 m702 0 v-20 m-702 20 v156 m702 0 v-156 m-702 156 q0 10 10 10 m682 0 q10 0 10 -10 m-692 10 h10 m80 0 h10 m0 0 h582 m-692 -10 v20 m702 0 v-20 m-702 20 v24 m702 0 v-24 m-702 24 q0 10 10 10 m682 0 q10 0 10 -10 m-692 10 h10 m70 0 h10 m0 0 h592 m-692 -10 v20 m702 0 v-20 m-702 20 v24 m702 0 v-24 m-702 24 q0 10 10 10 m682 0 q10 0 10 -10 m-692 10 h10 m54 0 h10 m0 0 h608 m23 -352 h-3"
     id="path10907" />
  <polygon
     points="751 17 759 13 759 21"
     id="polygon10909" />
  <polygon
     points="751 17 743 13 743 21"
     id="polygon10911" />
  <text
     class="terminal"
     x="205.59683"
     y="197.14442"
     id="text10300"
     style="font-weight:bold;font-size:14px;font-family:HelveticaNeueCyr, Sans-serif;fill:#ffe0e0">OR | AND | * | / | + | -| = | &gt; | &gt;= | &lt; | &lt;= | &lt;&gt; | &lt;= | &lt;&gt; | !=</text>
</svg>
