<?xml version="1.0" encoding="UTF-8" standalone="no"?>
<svg
   width="817"
   height="287"
   version="1.1"
   id="svg947"
   sodipodi:docname="expression.svg"
   inkscape:version="1.2.2 (b0a8486541, 2022-12-01)"
   xmlns:inkscape="http://www.inkscape.org/namespaces/inkscape"
   xmlns:sodipodi="http://sodipodi.sourceforge.net/DTD/sodipodi-0.dtd"
   xmlns="http://www.w3.org/2000/svg"
   xmlns:svg="http://www.w3.org/2000/svg">
  <sodipodi:namedview
     id="namedview949"
     pagecolor="#ffffff"
     bordercolor="#666666"
     borderopacity="1.0"
     inkscape:showpageshadow="2"
     inkscape:pageopacity="0.0"
     inkscape:pagecheckerboard="0"
     inkscape:deskcolor="#d1d1d1"
     showgrid="false"
     inkscape:zoom="1.0133895"
     inkscape:cx="696.67191"
     inkscape:cy="194.39712"
     inkscape:window-width="1920"
     inkscape:window-height="1011"
     inkscape:window-x="0"
     inkscape:window-y="32"
     inkscape:window-maximized="1"
     inkscape:current-layer="svg947" />
  <defs
     id="defs863">
    <style
       type="text/css"
       id="style861">
    @namespace &quot;http://www.w3.org/2000/svg&quot;;
    .line                 {fill: none; stroke: #320000; stroke-width: 1;}
    .bold-line            {stroke: #FFE0E0; shape-rendering: crispEdges; stroke-width: 2;}
    .thin-line            {stroke: #1F0000; shape-rendering: crispEdges}
    .filled               {fill: #320000; stroke: none;}
    text.terminal         {font-family: HelveticaNeueCyr, Sans-serif;
                            font-size: 14px;
                            fill: #FFE0E0;
                            font-weight: bold;
                          }
    text.nonterminal      {font-family: HelveticaNeueCyr, Sans-serif;
                            font-size: 14px;
                            fill: #FFE0E0;
                            font-weight: normal;
                          }
    text.regexp           {font-family: HelveticaNeueCyr, Sans-serif;
                            font-size: 14px;
                            fill: #1F0000;
                            font-weight: normal;
                          }
    rect, circle, polygon {fill: #320000; stroke: #320000;}
    rect.terminal         {fill: #FF0000; stroke: #320000; stroke-width: 1;}
    rect.nonterminal      {fill: #FF3F3F; stroke: #320000; stroke-width: 1;}
    rect.text             {fill: none; stroke: none;}
    polygon.regexp        {fill: #FF5E5E; stroke: #320000; stroke-width: 1;}
  </style>
  </defs>
  <path
     id="polygon865"
     style="fill:#320000;stroke:#320000"
     d="m 0.5,20.5 8,-4 -8,-4 z" />
  <path
     id="polygon867"
     style="fill:#320000;stroke:#320000"
     d="m 8.5,20.5 8,-4 -8,-4 z" />
  <path
     id="rect869"
     style="fill:#320000;stroke:#320000"
     d="m 50.5,2.5 h 90 v 32 h -90 z" />
  <path
     id="rect871"
     class="nonterminal"
     style="fill:#ff3f3f;stroke:#320000"
     d="m 48.5,0.5 h 90 v 32 h -90 z" />
  <path
     d="m 65.57,18.218 q -0.546,2.52 -3.15,2.52 -1.596,0 -2.506,-0.994 -0.896,-0.994 -0.896,-2.758 0,-1.75 0.924,-2.828 0.938,-1.092 2.436,-1.092 1.666,0 2.464,1.134 0.812,1.12 0.812,2.842 v 0.168 h -5.432 l -0.014,0.084 q 0,1.148 0.602,1.806 0.602,0.658 1.652,0.658 0.784,0 1.232,-0.364 0.462,-0.364 0.714,-1.176 z m -1.148,-1.974 q -0.084,-1.036 -0.63,-1.61 -0.546,-0.588 -1.442,-0.588 -0.868,0 -1.442,0.588 -0.574,0.588 -0.686,1.61 z"
     id="path7140"
     style="font-size:14px;font-family:HelveticaNeueCyr, Sans-serif;fill:#ffe0e0" />
  <path
     d="m 72.850009,13.276 -2.52,3.332 2.814,3.892 h -1.526 l -2.03,-2.968 -2.002,2.968 h -1.442 l 2.716,-3.808 -2.506,-3.416 h 1.512 l 1.75,2.478 1.792,-2.478 z"
     id="path7142"
     style="font-size:14px;font-family:HelveticaNeueCyr, Sans-serif;fill:#ffe0e0" />
  <path
     d="m 75.286004,13.276 v 1.022 q 0.784,-1.246 2.436,-1.246 1.512,0 2.394,1.022 0.896,1.022 0.896,2.772 0,1.75 -0.882,2.8 -0.868,1.036 -2.352,1.036 -1.554,0 -2.422,-1.19 v 3.794 h -1.19 v -10.01 z m 2.254,0.77 q -1.036,0 -1.638,0.756 -0.588,0.742 -0.588,2.058 0,1.316 0.602,2.072 0.616,0.742 1.666,0.742 1.022,0 1.61,-0.756 0.588,-0.756 0.588,-2.058 0,-1.316 -0.602,-2.058 -0.588,-0.756 -1.638,-0.756 z"
     id="path7144"
     style="font-size:14px;font-family:HelveticaNeueCyr, Sans-serif;fill:#ffe0e0" />
  <path
     d="m 86.23401,13.108 v 1.232 q -0.126,-0.014 -0.308,-0.014 -0.574,0 -0.994,0.182 -0.42,0.168 -0.672,0.448 -0.238,0.28 -0.392,0.7 -0.154,0.42 -0.21,0.84 -0.042,0.42 -0.042,0.952 V 20.5 h -1.19 v -7.224 h 1.134 v 1.554 q 0.714,-1.722 2.674,-1.722 z"
     id="path7146"
     style="font-size:14px;font-family:HelveticaNeueCyr, Sans-serif;fill:#ffe0e0" />
  <path
     d="m 93.052018,18.218 q -0.546,2.52 -3.15,2.52 -1.596,0 -2.506,-0.994 -0.896,-0.994 -0.896,-2.758 0,-1.75 0.924,-2.828 0.938,-1.092 2.436,-1.092 1.666,0 2.464,1.134 0.812,1.12 0.812,2.842 v 0.168 h -5.432 l -0.014,0.084 q 0,1.148 0.602,1.806 0.602,0.658 1.652,0.658 0.784,0 1.232,-0.364 0.462,-0.364 0.714,-1.176 z m -1.148,-1.974 q -0.084,-1.036 -0.63,-1.61 -0.546,-0.588 -1.442,-0.588 -0.868,0 -1.442,0.588 -0.574,0.588 -0.686,1.61 z"
     id="path7148"
     style="font-size:14px;font-family:HelveticaNeueCyr, Sans-serif;fill:#ffe0e0" />
  <path
     d="m 99.75803,15.376 h -1.190003 q -0.112,-1.316 -1.764,-1.316 -0.686,0 -1.078,0.266 -0.392,0.266 -0.392,0.714 0,0.126 0.028,0.252 0.028,0.112 0.098,0.21 0.084,0.084 0.14,0.154 0.07,0.07 0.21,0.14 0.154,0.056 0.224,0.098 0.084,0.042 0.28,0.098 0.21,0.042 0.294,0.07 0.084,0.014 0.322,0.07 0.252,0.056 0.322,0.07 0.518,0.112 0.77,0.182 0.266,0.07 0.714,0.266 0.462,0.182 0.7,0.392 0.238003,0.196 0.420003,0.56 0.196,0.35 0.196,0.798 0,1.05 -0.826003,1.694 -0.812,0.63 -2.17,0.63 -1.47,0 -2.268,-0.644 -0.784,-0.644 -0.84,-1.862 h 1.176 q 0.098,1.526 1.96,1.526 0.798,0 1.274,-0.322 0.49,-0.336 0.49,-0.882 0,-0.364 -0.252,-0.602 -0.252,-0.238 -0.56,-0.336 -0.308,-0.112 -0.882,-0.252 -0.084,-0.014 -0.126,-0.028 -0.126,-0.028 -0.546,-0.112 -0.406,-0.098 -0.588,-0.154 -0.182,-0.056 -0.532,-0.168 -0.336,-0.126 -0.504,-0.252 -0.168,-0.14 -0.378,-0.336 -0.196,-0.21 -0.28,-0.476 -0.084,-0.28 -0.084,-0.63 0,-0.98 0.742,-1.554 0.756,-0.574 2.016,-0.574 1.274,0 2.072,0.602 0.812003,0.602 0.812003,1.708 z"
     id="path7150"
     style="font-size:14px;font-family:HelveticaNeueCyr, Sans-serif;fill:#ffe0e0" />
  <path
     d="m 106.75803,15.376 h -1.19 q -0.112,-1.316 -1.764,-1.316 -0.686,0 -1.078,0.266 -0.392,0.266 -0.392,0.714 0,0.126 0.028,0.252 0.028,0.112 0.098,0.21 0.084,0.084 0.14,0.154 0.07,0.07 0.21,0.14 0.154,0.056 0.224,0.098 0.084,0.042 0.28,0.098 0.21,0.042 0.294,0.07 0.084,0.014 0.322,0.07 0.252,0.056 0.322,0.07 0.518,0.112 0.77,0.182 0.266,0.07 0.714,0.266 0.462,0.182 0.7,0.392 0.238,0.196 0.42,0.56 0.196,0.35 0.196,0.798 0,1.05 -0.826,1.694 -0.812,0.63 -2.17,0.63 -1.47,0 -2.268,-0.644 -0.784,-0.644 -0.84,-1.862 h 1.176 q 0.098,1.526 1.96,1.526 0.798,0 1.274,-0.322 0.49,-0.336 0.49,-0.882 0,-0.364 -0.252,-0.602 -0.252,-0.238 -0.56,-0.336 -0.308,-0.112 -0.882,-0.252 -0.084,-0.014 -0.126,-0.028 -0.126,-0.028 -0.546,-0.112 -0.406,-0.098 -0.588,-0.154 -0.182,-0.056 -0.532,-0.168 -0.336,-0.126 -0.504,-0.252 -0.168,-0.14 -0.378,-0.336 -0.196,-0.21 -0.28,-0.476 -0.084,-0.28 -0.084,-0.63 0,-0.98 0.742,-1.554 0.756,-0.574 2.016,-0.574 1.274,0 2.072,0.602 0.812,0.602 0.812,1.708 z"
     id="path7152"
     style="font-size:14px;font-family:HelveticaNeueCyr, Sans-serif;fill:#ffe0e0" />
  <path
     d="m 109.65603,10.532 v 1.456 h -1.204 v -1.456 z m 0,2.744 V 20.5 h -1.204 v -7.224 z"
     id="path7154"
     style="font-size:14px;font-family:HelveticaNeueCyr, Sans-serif;fill:#ffe0e0" />
  <path
     d="m 112.07803,14.102 q 0.952,-1.036 2.59,-1.036 1.638,0 2.548,0.994 0.91,0.994 0.91,2.786 0,1.834 -0.91,2.856 -0.91,1.022 -2.562,1.022 -1.652,0 -2.59,-1.008 -0.938,-1.008 -0.938,-2.8 0,-1.778 0.952,-2.814 z m 4.214,0.728 q -0.602,-0.77 -1.652,-0.77 -1.05,0 -1.666,0.77 -0.616,0.77 -0.616,2.058 0,1.33 0.602,2.086 0.616,0.742 1.708,0.742 1.05,0 1.638,-0.756 0.602,-0.756 0.602,-2.086 0,-1.288 -0.616,-2.044 z"
     id="path7156"
     style="font-size:14px;font-family:HelveticaNeueCyr, Sans-serif;fill:#ffe0e0" />
  <path
     d="m 120.66002,13.276 v 1.12 q 0.896,-1.316 2.464,-1.316 1.274,0 1.834,0.672 0.574,0.658 0.574,1.946 V 20.5 h -1.19 v -4.256 q 0,-0.532 -0.042,-0.826 -0.028,-0.308 -0.168,-0.644 -0.14,-0.35 -0.476,-0.504 -0.336,-0.154 -0.868,-0.154 -2.058,0 -2.058,2.604 v 3.78 h -1.19 v -7.224 z"
     id="path7158"
     style="font-size:14px;font-family:HelveticaNeueCyr, Sans-serif;fill:#ffe0e0" />
  <path
     id="rect877"
     style="fill:#320000;stroke:#320000"
     d="m 190.5,2.5 h 20 c 5.54,0 10,4.46 10,10 v 12 c 0,5.54 -4.46,10 -10,10 h -20 c -5.54,0 -10,-4.46 -10,-10 v -12 c 0,-5.54 4.46,-10 10,-10 z" />
  <path
     id="rect879"
     class="terminal"
     style="fill:#ff0000;stroke:#320000"
     d="m 188.5,0.5 h 20 c 5.54,0 10,4.46 10,10 v 12 c 0,5.54 -4.46,10 -10,10 h -20 c -5.54,0 -10,-4.46 -10,-10 v -12 c 0,-5.54 4.46,-10 10,-10 z" />
  <path
     d="m 193.974,10.294 q 2.184,0 3.528,1.456 1.358,1.442 1.358,3.78 0,2.338 -1.358,3.78 -1.344,1.428 -3.542,1.428 -2.212,0 -3.57,-1.428 -1.358,-1.442 -1.358,-3.78 0,-2.366 1.344,-3.794 1.358,-1.442 3.598,-1.442 z m -0.028,1.792 q -1.232,0 -1.974,0.924 -0.728,0.924 -0.728,2.478 0,1.61 0.728,2.52 0.728,0.91 2.002,0.924 1.246,0 1.96,-0.924 0.714,-0.924 0.714,-2.52 0,-1.568 -0.728,-2.478 -0.728,-0.924 -1.974,-0.924 z"
     id="path7131"
     style="font-weight:bold;font-size:14px;font-family:HelveticaNeueCyr, Sans-serif;fill:#ffe0e0" />
  <path
     d="m 200.442,10.532 h 4.956 q 1.484,0 2.422,0.7 0.938,0.7 0.938,2.128 0,0.868 -0.42,1.526 -0.42,0.644 -1.162,0.924 1.288,0.266 1.47,2.324 0,0.07 0.028,0.434 0.028,0.364 0.056,0.588 0.028,0.21 0.07,0.518 0.042,0.308 0.126,0.518 0.084,0.21 0.196,0.308 h -2.268 q -0.112,-0.224 -0.168,-0.56 -0.056,-0.35 -0.098,-0.882 -0.042,-0.546 -0.042,-0.602 -0.112,-1.05 -0.532,-1.456 -0.406,-0.406 -1.456,-0.406 h -1.946 V 20.5 h -2.17 z m 2.17,1.722 v 2.758 h 2.072 q 0.91,0 1.414,-0.28 0.518,-0.294 0.518,-1.134 0,-0.784 -0.504,-1.064 -0.49,-0.28 -1.33,-0.28 z"
     id="path7133"
     style="font-weight:bold;font-size:14px;font-family:HelveticaNeueCyr, Sans-serif;fill:#ffe0e0" />
  <path
     id="rect883"
     style="fill:#320000;stroke:#320000"
     d="m 210.5,78.5 h 66 c 5.54,0 10,4.46 10,10 v 12 c 0,5.54 -4.46,10 -10,10 h -66 c -5.54,0 -10,-4.46 -10,-10 v -12 c 0,-5.54 4.46,-10 10,-10 z" />
  <path
     id="rect885"
     class="terminal"
     style="fill:#ff0000;stroke:#320000"
     d="m 208.5,76.5 h 66 c 5.54,0 10,4.46 10,10 v 12 c 0,5.54 -4.46,10 -10,10 h -66 c -5.54,0 -10,-4.46 -10,-10 v -12 c 0,-5.54 4.46,-10 10,-10 z" />
  <path
     d="m 209.452,86.532 h 4.718 q 1.4,0 2.282,0.63 0.896,0.616 0.896,1.876 0,0.7 -0.364,1.246 -0.364,0.532 -0.994,0.812 1.82,0.518 1.82,2.436 0,1.414 -0.952,2.198 -0.952,0.77 -2.422,0.77 h -4.984 z m 2.128,1.694 v 2.338 h 1.988 q 1.652,0 1.652,-1.162 0,-0.686 -0.448,-0.924 -0.448,-0.252 -1.204,-0.252 z m 0,3.822 v 2.716 h 2.198 q 0.854,0 1.344,-0.28 0.504,-0.28 0.504,-1.078 0,-0.812 -0.532,-1.078 -0.518,-0.28 -1.428,-0.28 z"
     id="path7114"
     style="font-weight:bold;font-size:14px;font-family:HelveticaNeueCyr, Sans-serif;fill:#ffe0e0" />
  <path
     d="m 226.79801,86.532 v 1.792 h -5.306 v 2.17 h 4.872 v 1.722 h -4.872 v 2.45 h 5.404 V 96.5 h -7.574 v -9.968 z"
     id="path7116"
     style="font-weight:bold;font-size:14px;font-family:HelveticaNeueCyr, Sans-serif;fill:#ffe0e0" />
  <path
     d="m 235.80002,86.532 v 1.862 h -2.996 V 96.5 h -2.198 v -8.106 h -2.996 v -1.862 z"
     id="path7118"
     style="font-weight:bold;font-size:14px;font-family:HelveticaNeueCyr, Sans-serif;fill:#ffe0e0" />
  <path
     d="m 236.02402,86.532 h 2.198 l 1.596,6.776 1.75,-6.776 h 2.058 l 1.722,6.86 1.652,-6.86 h 2.156 l -2.688,9.968 h -2.184 l -1.708,-6.804 -1.68,6.804 h -2.226 z"
     id="path7120"
     style="font-weight:bold;font-size:14px;font-family:HelveticaNeueCyr, Sans-serif;fill:#ffe0e0" />
  <path
     d="m 257.64002,86.532 v 1.792 h -5.306 v 2.17 h 4.872 v 1.722 h -4.872 v 2.45 h 5.404 V 96.5 h -7.574 v -9.968 z"
     id="path7122"
     style="font-weight:bold;font-size:14px;font-family:HelveticaNeueCyr, Sans-serif;fill:#ffe0e0" />
  <path
     d="m 266.71203,86.532 v 1.792 h -5.306 v 2.17 h 4.872 v 1.722 h -4.872 v 2.45 h 5.404 V 96.5 h -7.574 v -9.968 z"
     id="path7124"
     style="font-weight:bold;font-size:14px;font-family:HelveticaNeueCyr, Sans-serif;fill:#ffe0e0" />
  <path
     d="m 268.30804,96.5 v -9.968 h 2.226 l 4.102,6.678 v -6.678 h 2.1 V 96.5 h -2.184 l -4.13,-6.692 V 96.5 Z"
     id="path7126"
     style="font-weight:bold;font-size:14px;font-family:HelveticaNeueCyr, Sans-serif;fill:#ffe0e0" />
  <path
     id="rect889"
     style="fill:#320000;stroke:#320000"
     d="m 306.5,78.5 h 90 v 32 h -90 z" />
  <path
     id="rect891"
     class="nonterminal"
     style="fill:#ff3f3f;stroke:#320000"
     d="m 304.5,76.5 h 90 v 32 h -90 z" />
  <path
     d="m 321.57,94.218 q -0.546,2.52 -3.15,2.52 -1.596,0 -2.506,-0.994 -0.896,-0.994 -0.896,-2.758 0,-1.75 0.924,-2.828 0.938,-1.092 2.436,-1.092 1.666,0 2.464,1.134 0.812,1.12 0.812,2.842 v 0.168 h -5.432 l -0.014,0.084 q 0,1.148 0.602,1.806 0.602,0.658 1.652,0.658 0.784,0 1.232,-0.364 0.462,-0.364 0.714,-1.176 z m -1.148,-1.974 q -0.084,-1.036 -0.63,-1.61 -0.546,-0.588 -1.442,-0.588 -0.868,0 -1.442,0.588 -0.574,0.588 -0.686,1.61 z"
     id="path7093"
     style="font-size:14px;font-family:HelveticaNeueCyr, Sans-serif;fill:#ffe0e0" />
  <path
     d="m 328.85001,89.276 -2.52,3.332 2.814,3.892 h -1.526 l -2.03,-2.968 -2.002,2.968 h -1.442 l 2.716,-3.808 -2.506,-3.416 h 1.512 l 1.75,2.478 1.792,-2.478 z"
     id="path7095"
     style="font-size:14px;font-family:HelveticaNeueCyr, Sans-serif;fill:#ffe0e0" />
  <path
     d="m 331.286,89.276 v 1.022 q 0.784,-1.246 2.436,-1.246 1.512,0 2.394,1.022 0.896,1.022 0.896,2.772 0,1.75 -0.882,2.8 -0.868,1.036 -2.352,1.036 -1.554,0 -2.422,-1.19 v 3.794 h -1.19 v -10.01 z m 2.254,0.77 q -1.036,0 -1.638,0.756 -0.588,0.742 -0.588,2.058 0,1.316 0.602,2.072 0.616,0.742 1.666,0.742 1.022,0 1.61,-0.756 0.588,-0.756 0.588,-2.058 0,-1.316 -0.602,-2.058 -0.588,-0.756 -1.638,-0.756 z"
     id="path7097"
     style="font-size:14px;font-family:HelveticaNeueCyr, Sans-serif;fill:#ffe0e0" />
  <path
     d="m 342.23401,89.108 v 1.232 q -0.126,-0.014 -0.308,-0.014 -0.574,0 -0.994,0.182 -0.42,0.168 -0.672,0.448 -0.238,0.28 -0.392,0.7 -0.154,0.42 -0.21,0.84 -0.042,0.42 -0.042,0.952 V 96.5 h -1.19 v -7.224 h 1.134 v 1.554 q 0.714,-1.722 2.674,-1.722 z"
     id="path7099"
     style="font-size:14px;font-family:HelveticaNeueCyr, Sans-serif;fill:#ffe0e0" />
  <path
     d="m 349.05202,94.218 q -0.546,2.52 -3.15,2.52 -1.596,0 -2.506,-0.994 -0.896,-0.994 -0.896,-2.758 0,-1.75 0.924,-2.828 0.938,-1.092 2.436,-1.092 1.666,0 2.464,1.134 0.812,1.12 0.812,2.842 v 0.168 h -5.432 l -0.014,0.084 q 0,1.148 0.602,1.806 0.602,0.658 1.652,0.658 0.784,0 1.232,-0.364 0.462,-0.364 0.714,-1.176 z m -1.148,-1.974 q -0.084,-1.036 -0.63,-1.61 -0.546,-0.588 -1.442,-0.588 -0.868,0 -1.442,0.588 -0.574,0.588 -0.686,1.61 z"
     id="path7101"
     style="font-size:14px;font-family:HelveticaNeueCyr, Sans-serif;fill:#ffe0e0" />
  <path
     d="m 355.75803,91.376 h -1.19 q -0.112,-1.316 -1.764,-1.316 -0.686,0 -1.078,0.266 -0.392,0.266 -0.392,0.714 0,0.126 0.028,0.252 0.028,0.112 0.098,0.21 0.084,0.084 0.14,0.154 0.07,0.07 0.21,0.14 0.154,0.056 0.224,0.098 0.084,0.042 0.28,0.098 0.21,0.042 0.294,0.07 0.084,0.014 0.322,0.07 0.252,0.056 0.322,0.07 0.518,0.112 0.77,0.182 0.266,0.07 0.714,0.266 0.462,0.182 0.7,0.392 0.238,0.196 0.42,0.56 0.196,0.35 0.196,0.798 0,1.05 -0.826,1.694 -0.812,0.63 -2.17,0.63 -1.47,0 -2.268,-0.644 -0.784,-0.644 -0.84,-1.862 h 1.176 q 0.098,1.526 1.96,1.526 0.798,0 1.274,-0.322 0.49,-0.336 0.49,-0.882 0,-0.364 -0.252,-0.602 -0.252,-0.238 -0.56,-0.336 -0.308,-0.112 -0.882,-0.252 -0.084,-0.014 -0.126,-0.028 -0.126,-0.028 -0.546,-0.112 -0.406,-0.098 -0.588,-0.154 -0.182,-0.056 -0.532,-0.168 -0.336,-0.126 -0.504,-0.252 -0.168,-0.14 -0.378,-0.336 -0.196,-0.21 -0.28,-0.476 -0.084,-0.28 -0.084,-0.63 0,-0.98 0.742,-1.554 0.756,-0.574 2.016,-0.574 1.274,0 2.072,0.602 0.812,0.602 0.812,1.708 z"
     id="path7103"
     style="font-size:14px;font-family:HelveticaNeueCyr, Sans-serif;fill:#ffe0e0" />
  <path
     d="m 362.75803,91.376 h -1.19 q -0.112,-1.316 -1.764,-1.316 -0.686,0 -1.078,0.266 -0.392,0.266 -0.392,0.714 0,0.126 0.028,0.252 0.028,0.112 0.098,0.21 0.084,0.084 0.14,0.154 0.07,0.07 0.21,0.14 0.154,0.056 0.224,0.098 0.084,0.042 0.28,0.098 0.21,0.042 0.294,0.07 0.084,0.014 0.322,0.07 0.252,0.056 0.322,0.07 0.518,0.112 0.77,0.182 0.266,0.07 0.714,0.266 0.462,0.182 0.7,0.392 0.238,0.196 0.42,0.56 0.196,0.35 0.196,0.798 0,1.05 -0.826,1.694 -0.812,0.63 -2.17,0.63 -1.47,0 -2.268,-0.644 -0.784,-0.644 -0.84,-1.862 h 1.176 q 0.098,1.526 1.96,1.526 0.798,0 1.274,-0.322 0.49,-0.336 0.49,-0.882 0,-0.364 -0.252,-0.602 -0.252,-0.238 -0.56,-0.336 -0.308,-0.112 -0.882,-0.252 -0.084,-0.014 -0.126,-0.028 -0.126,-0.028 -0.546,-0.112 -0.406,-0.098 -0.588,-0.154 -0.182,-0.056 -0.532,-0.168 -0.336,-0.126 -0.504,-0.252 -0.168,-0.14 -0.378,-0.336 -0.196,-0.21 -0.28,-0.476 -0.084,-0.28 -0.084,-0.63 0,-0.98 0.742,-1.554 0.756,-0.574 2.016,-0.574 1.274,0 2.072,0.602 0.812,0.602 0.812,1.708 z"
     id="path7105"
     style="font-size:14px;font-family:HelveticaNeueCyr, Sans-serif;fill:#ffe0e0" />
  <path
     d="m 365.65603,86.532 v 1.456 h -1.204 v -1.456 z m 0,2.744 V 96.5 h -1.204 v -7.224 z"
     id="path7107"
     style="font-size:14px;font-family:HelveticaNeueCyr, Sans-serif;fill:#ffe0e0" />
  <path
     d="m 368.07803,90.102 q 0.952,-1.036 2.59,-1.036 1.638,0 2.548,0.994 0.91,0.994 0.91,2.786 0,1.834 -0.91,2.856 -0.91,1.022 -2.562,1.022 -1.652,0 -2.59,-1.008 -0.938,-1.008 -0.938,-2.8 0,-1.778 0.952,-2.814 z m 4.214,0.728 q -0.602,-0.77 -1.652,-0.77 -1.05,0 -1.666,0.77 -0.616,0.77 -0.616,2.058 0,1.33 0.602,2.086 0.616,0.742 1.708,0.742 1.05,0 1.638,-0.756 0.602,-0.756 0.602,-2.086 0,-1.288 -0.616,-2.044 z"
     id="path7109"
     style="font-size:14px;font-family:HelveticaNeueCyr, Sans-serif;fill:#ffe0e0" />
  <path
     d="m 376.66002,89.276 v 1.12 q 0.896,-1.316 2.464,-1.316 1.274,0 1.834,0.672 0.574,0.658 0.574,1.946 V 96.5 h -1.19 v -4.256 q 0,-0.532 -0.042,-0.826 -0.028,-0.308 -0.168,-0.644 -0.14,-0.35 -0.476,-0.504 -0.336,-0.154 -0.868,-0.154 -2.058,0 -2.058,2.604 v 3.78 h -1.19 v -7.224 z"
     id="path7111"
     style="font-size:14px;font-family:HelveticaNeueCyr, Sans-serif;fill:#ffe0e0" />
  <path
     id="rect897"
     style="fill:#320000;stroke:#320000"
     d="m 446.5,46.5 h 28 c 5.54,0 10,4.46 10,10 v 12 c 0,5.54 -4.46,10 -10,10 h -28 c -5.54,0 -10,-4.46 -10,-10 v -12 c 0,-5.54 4.46,-10 10,-10 z" />
  <path
     id="rect899"
     class="terminal"
     style="fill:#ff0000;stroke:#320000"
     d="m 444.5,44.5 h 28 c 5.54,0 10,4.46 10,10 v 12 c 0,5.54 -4.46,10 -10,10 h -28 c -5.54,0 -10,-4.46 -10,-10 v -12 c 0,-5.54 4.46,-10 10,-10 z" />
  <path
     d="m 450.422,54.518 3.794,9.982 h -2.296 l -0.784,-2.226 h -3.71 l -0.812,2.226 h -2.24 l 3.794,-9.982 z m 0.182,6.16 -1.316,-3.71 -1.33,3.71 z"
     id="path7082"
     style="font-weight:bold;font-size:14px;font-family:HelveticaNeueCyr, Sans-serif;fill:#ffe0e0" />
  <path
     d="m 455.05599,64.5 v -9.968 h 2.226 l 4.102,6.678 v -6.678 h 2.1 V 64.5 h -2.184 l -4.13,-6.692 V 64.5 Z"
     id="path7084"
     style="font-weight:bold;font-size:14px;font-family:HelveticaNeueCyr, Sans-serif;fill:#ffe0e0" />
  <path
     d="m 465.44398,64.5 v -9.968 h 4.032 q 2.324,0 3.57,1.288 1.26,1.288 1.26,3.696 0,2.408 -1.26,3.696 -1.246,1.288 -3.57,1.288 z m 2.17,-1.82 h 1.596 q 2.898,0 2.898,-3.164 0,-1.526 -0.728,-2.338 -0.714,-0.826 -2.17,-0.826 h -1.596 z"
     id="path7086"
     style="font-weight:bold;font-size:14px;font-family:HelveticaNeueCyr, Sans-serif;fill:#ffe0e0" />
  <path
     id="rect903"
     style="fill:#320000;stroke:#320000;stroke-width:0.917505"
     d="m 188.53609,122.4636 h 441.7234 c 4.65237,0 8.39778,4.47083 8.39778,10.02427 v 12.02912 c 0,5.55344 -3.74541,10.02426 -8.39778,10.02426 h -441.7234 c -4.65237,0 -8.39778,-4.47082 -8.39778,-10.02426 v -12.02912 c 0,-5.55344 3.74541,-10.02427 8.39778,-10.02427 z" />
  <path
     style="fill:#ff0000;stroke:#320000;stroke-width:0.917505"
     d="m 186.85654,120.45875 h 441.7234 c 4.65236,0 8.39778,4.47082 8.39778,10.02426 v 12.02912 c 0,5.55344 -3.74542,10.02427 -8.39778,10.02427 h -441.7234 c -4.65238,0 -8.39779,-4.47083 -8.39779,-10.02427 v -12.02912 c 0,-5.55344 3.74541,-10.02426 8.39779,-10.02426 z"
     id="rect905" />
  <path
     d="m 193.904,132.604 -1.652,0.546 1.022,1.372 -0.924,0.686 -1.022,-1.442 -0.994,1.442 -0.938,-0.686 1.036,-1.372 -1.624,-0.546 0.364,-1.078 1.624,0.616 -0.042,-1.75 h 1.176 l -0.056,1.75 1.624,-0.616 z"
     id="path6983"
     style="font-weight:bold;font-size:14px;font-family:HelveticaNeueCyr, Sans-serif;fill:#ffe0e0" />
  <path
     d="m 198.80399,143.496 v -14 h 1.694 v 14 z"
     id="path6985"
     style="font-weight:bold;font-size:14px;font-family:HelveticaNeueCyr, Sans-serif;fill:#ffe0e0" />
  <path
     d="m 208.74398,130.294 h 1.708 l -3.808,10.444 h -1.722 z"
     id="path6987"
     style="font-weight:bold;font-size:14px;font-family:HelveticaNeueCyr, Sans-serif;fill:#ffe0e0" />
  <path
     d="m 214.90399,143.496 v -14 h 1.694 v 14 z"
     id="path6989"
     style="font-weight:bold;font-size:14px;font-family:HelveticaNeueCyr, Sans-serif;fill:#ffe0e0" />
  <path
     d="m 224.64798,140.5 v -2.926 h -2.884 v -1.414 h 2.884 v -2.926 h 1.512 v 2.926 h 2.884 v 1.414 h -2.884 v 2.926 z"
     id="path6991"
     style="font-weight:bold;font-size:14px;font-family:HelveticaNeueCyr, Sans-serif;fill:#ffe0e0" />
  <path
     d="m 234.20998,143.496 v -14 h 1.694 v 14 z"
     id="path6993"
     style="font-weight:bold;font-size:14px;font-family:HelveticaNeueCyr, Sans-serif;fill:#ffe0e0" />
  <path
     d="m 245.46598,135.796 v 1.778 h -4.214 v -1.778 z"
     id="path6995"
     style="font-weight:bold;font-size:14px;font-family:HelveticaNeueCyr, Sans-serif;fill:#ffe0e0" />
  <path
     d="m 246.92197,143.496 v -14 h 1.694 v 14 z"
     id="path6997"
     style="font-weight:bold;font-size:14px;font-family:HelveticaNeueCyr, Sans-serif;fill:#ffe0e0" />
  <path
     d="m 253.78196,136.188 v -1.568 h 7.28 v 1.568 z m 0,2.926 v -1.568 h 7.28 v 1.568 z"
     id="path6999"
     style="font-weight:bold;font-size:14px;font-family:HelveticaNeueCyr, Sans-serif;fill:#ffe0e0" />
  <path
     d="m 266.22796,143.496 v -14 h 1.694 v 14 z"
     id="path7001"
     style="font-weight:bold;font-size:14px;font-family:HelveticaNeueCyr, Sans-serif;fill:#ffe0e0" />
  <path
     d="m 280.36795,137.602 -7.28,2.814 v -1.736 l 5.068,-1.82 -5.068,-1.82 v -1.708 l 7.28,2.8 z"
     id="path7003"
     style="font-weight:bold;font-size:14px;font-family:HelveticaNeueCyr, Sans-serif;fill:#ffe0e0" />
  <path
     d="m 285.53396,143.496 v -14 h 1.694 v 14 z"
     id="path7005"
     style="font-weight:bold;font-size:14px;font-family:HelveticaNeueCyr, Sans-serif;fill:#ffe0e0" />
  <path
     d="m 299.67395,137.602 -7.28,2.814 v -1.736 l 5.068,-1.82 -5.068,-1.82 v -1.708 l 7.28,2.8 z"
     id="path7007"
     style="font-weight:bold;font-size:14px;font-family:HelveticaNeueCyr, Sans-serif;fill:#ffe0e0" />
  <path
     d="m 300.79396,136.188 v -1.568 h 7.28 v 1.568 z m 0,2.926 v -1.568 h 7.28 v 1.568 z"
     id="path7009"
     style="font-weight:bold;font-size:14px;font-family:HelveticaNeueCyr, Sans-serif;fill:#ffe0e0" />
  <path
     d="m 313.23996,143.496 v -14 h 1.694 v 14 z"
     id="path7011"
     style="font-weight:bold;font-size:14px;font-family:HelveticaNeueCyr, Sans-serif;fill:#ffe0e0" />
  <path
     d="m 320.09995,137.602 v -1.47 l 7.28,-2.8 v 1.708 l -5.068,1.82 5.068,1.82 v 1.736 z"
     id="path7013"
     style="font-weight:bold;font-size:14px;font-family:HelveticaNeueCyr, Sans-serif;fill:#ffe0e0" />
  <path
     d="m 332.54595,143.496 v -14 h 1.694 v 14 z"
     id="path7015"
     style="font-weight:bold;font-size:14px;font-family:HelveticaNeueCyr, Sans-serif;fill:#ffe0e0" />
  <path
     d="m 339.40595,137.602 v -1.47 l 7.28,-2.8 v 1.708 l -5.068,1.82 5.068,1.82 v 1.736 z"
     id="path7017"
     style="font-weight:bold;font-size:14px;font-family:HelveticaNeueCyr, Sans-serif;fill:#ffe0e0" />
  <path
     d="m 347.80596,136.188 v -1.568 h 7.28 v 1.568 z m 0,2.926 v -1.568 h 7.28 v 1.568 z"
     id="path7019"
     style="font-weight:bold;font-size:14px;font-family:HelveticaNeueCyr, Sans-serif;fill:#ffe0e0" />
  <path
     d="m 360.25196,143.496 v -14 h 1.694 v 14 z"
     id="path7021"
     style="font-weight:bold;font-size:14px;font-family:HelveticaNeueCyr, Sans-serif;fill:#ffe0e0" />
  <path
     d="m 367.11196,137.602 v -1.47 l 7.28,-2.8 v 1.708 l -5.068,1.82 5.068,1.82 v 1.736 z"
     id="path7023"
     style="font-weight:bold;font-size:14px;font-family:HelveticaNeueCyr, Sans-serif;fill:#ffe0e0" />
  <path
     d="m 382.79197,137.602 -7.28,2.814 v -1.736 l 5.068,-1.82 -5.068,-1.82 v -1.708 l 7.28,2.8 z"
     id="path7025"
     style="font-weight:bold;font-size:14px;font-family:HelveticaNeueCyr, Sans-serif;fill:#ffe0e0" />
  <path
     d="m 387.95796,143.496 v -14 h 1.694 v 14 z"
     id="path7027"
     style="font-weight:bold;font-size:14px;font-family:HelveticaNeueCyr, Sans-serif;fill:#ffe0e0" />
  <path
     d="m 394.81795,137.602 v -1.47 l 7.28,-2.8 v 1.708 l -5.068,1.82 5.068,1.82 v 1.736 z"
     id="path7029"
     style="font-weight:bold;font-size:14px;font-family:HelveticaNeueCyr, Sans-serif;fill:#ffe0e0" />
  <path
     d="m 403.21796,136.188 v -1.568 h 7.28 v 1.568 z m 0,2.926 v -1.568 h 7.28 v 1.568 z"
     id="path7031"
     style="font-weight:bold;font-size:14px;font-family:HelveticaNeueCyr, Sans-serif;fill:#ffe0e0" />
  <path
     d="m 415.66397,143.496 v -14 h 1.694 v 14 z"
     id="path7033"
     style="font-weight:bold;font-size:14px;font-family:HelveticaNeueCyr, Sans-serif;fill:#ffe0e0" />
  <path
     d="m 422.52396,137.602 v -1.47 l 7.28,-2.8 v 1.708 l -5.068,1.82 5.068,1.82 v 1.736 z"
     id="path7035"
     style="font-weight:bold;font-size:14px;font-family:HelveticaNeueCyr, Sans-serif;fill:#ffe0e0" />
  <path
     d="m 438.20395,137.602 -7.28,2.814 v -1.736 l 5.068,-1.82 -5.068,-1.82 v -1.708 l 7.28,2.8 z"
     id="path7037"
     style="font-weight:bold;font-size:14px;font-family:HelveticaNeueCyr, Sans-serif;fill:#ffe0e0" />
  <path
     d="m 443.36996,143.496 v -14 h 1.694 v 14 z"
     id="path7039"
     style="font-weight:bold;font-size:14px;font-family:HelveticaNeueCyr, Sans-serif;fill:#ffe0e0" />
  <path
     d="m 452.65195,130.532 v 2.66 l -0.546,4.27 h -0.994 l -0.546,-4.242 v -2.688 z m 0.042,7.826 v 2.142 h -2.17 v -2.142 z"
     id="path7041"
     style="font-weight:bold;font-size:14px;font-family:HelveticaNeueCyr, Sans-serif;fill:#ffe0e0" />
  <path
     d="m 454.12195,136.188 v -1.568 h 7.28 v 1.568 z m 0,2.926 v -1.568 h 7.28 v 1.568 z"
     id="path7043"
     style="font-weight:bold;font-size:14px;font-family:HelveticaNeueCyr, Sans-serif;fill:#ffe0e0" />
  <path
     d="m 466.56794,143.496 v -14 h 1.694 v 14 z"
     id="path7045"
     style="font-weight:bold;font-size:14px;font-family:HelveticaNeueCyr, Sans-serif;fill:#ffe0e0" />
  <path
     d="m 476.03195,130.532 v 9.968 h -2.198 v -9.968 z"
     id="path7047"
     style="font-weight:bold;font-size:14px;font-family:HelveticaNeueCyr, Sans-serif;fill:#ffe0e0" />
  <path
     d="m 485.34196,133.5 h -2.072 q -0.126,-1.484 -1.89,-1.484 -0.756,0 -1.19,0.308 -0.42,0.294 -0.42,0.826 0,0.182 0.056,0.322 0.056,0.14 0.21,0.266 0.154,0.112 0.308,0.196 0.154,0.07 0.448,0.168 0.308,0.084 0.546,0.154 0.252,0.07 0.7,0.182 0.448,0.112 0.784,0.21 1.47,0.42 2.184,1.05 0.728,0.63 0.728,1.806 0,0.854 -0.35,1.498 -0.35,0.63 -0.952,1.008 -0.588,0.364 -1.302,0.532 -0.7,0.182 -1.498,0.182 -2.03,0 -3.178,-0.924 -1.134,-0.938 -1.148,-2.632 h 2.17 q 0.056,1.876 2.254,1.876 0.854,0 1.344,-0.35 0.504,-0.364 0.504,-0.98 0,-0.518 -0.462,-0.756 -0.448,-0.238 -1.904,-0.658 -0.238,-0.056 -0.364,-0.098 -0.504,-0.14 -0.7,-0.196 -0.196,-0.07 -0.63,-0.224 -0.42,-0.154 -0.616,-0.28 -0.196,-0.126 -0.49,-0.35 -0.28,-0.224 -0.406,-0.462 -0.126,-0.252 -0.238,-0.602 -0.098,-0.364 -0.098,-0.784 0,-1.358 1.05,-2.17 1.05,-0.812 2.786,-0.812 1.68,0 2.744,0.798 1.064,0.784 1.092,2.38 z"
     id="path7049"
     style="font-weight:bold;font-size:14px;font-family:HelveticaNeueCyr, Sans-serif;fill:#ffe0e0" />
  <path
     d="m 490.94195,140.5 v -9.968 h 2.226 l 4.102,6.678 v -6.678 h 2.1 v 9.968 h -2.184 l -4.13,-6.692 v 6.692 z"
     id="path7051"
     style="font-weight:bold;font-size:14px;font-family:HelveticaNeueCyr, Sans-serif;fill:#ffe0e0" />
  <path
     d="m 509.79995,130.532 v 5.992 q 0,2.142 -1.036,3.164 -1.022,1.008 -3.206,1.008 -2.212,0 -3.262,-1.022 -1.036,-1.036 -1.036,-3.178 v -5.964 h 2.184 v 5.964 q 0,1.218 0.462,1.806 0.462,0.588 1.68,0.588 1.176,0 1.596,-0.588 0.434,-0.588 0.434,-1.806 v -5.964 z"
     id="path7053"
     style="font-weight:bold;font-size:14px;font-family:HelveticaNeueCyr, Sans-serif;fill:#ffe0e0" />
  <path
     d="m 518.74594,138.624 v 1.876 h -7.056 v -9.968 h 2.184 v 8.092 z"
     id="path7055"
     style="font-weight:bold;font-size:14px;font-family:HelveticaNeueCyr, Sans-serif;fill:#ffe0e0" />
  <path
     d="m 527.04794,138.624 v 1.876 h -7.056 v -9.968 h 2.184 v 8.092 z"
     id="path7057"
     style="font-weight:bold;font-size:14px;font-family:HelveticaNeueCyr, Sans-serif;fill:#ffe0e0" />
  <path
     d="m 531.93394,143.496 v -14 h 1.694 v 14 z"
     id="path7059"
     style="font-weight:bold;font-size:14px;font-family:HelveticaNeueCyr, Sans-serif;fill:#ffe0e0" />
  <path
     d="m 541.39795,130.532 v 9.968 h -2.198 v -9.968 z"
     id="path7061"
     style="font-weight:bold;font-size:14px;font-family:HelveticaNeueCyr, Sans-serif;fill:#ffe0e0" />
  <path
     d="m 550.70792,133.5 h -2.072 q -0.126,-1.484 -1.89,-1.484 -0.756,0 -1.19,0.308 -0.42,0.294 -0.42,0.826 0,0.182 0.056,0.322 0.056,0.14 0.21,0.266 0.154,0.112 0.308,0.196 0.154,0.07 0.448,0.168 0.308,0.084 0.546,0.154 0.252,0.07 0.7,0.182 0.448,0.112 0.784,0.21 1.47,0.42 2.184,1.05 0.728,0.63 0.728,1.806 0,0.854 -0.35,1.498 -0.35,0.63 -0.952,1.008 -0.588,0.364 -1.302,0.532 -0.7,0.182 -1.498,0.182 -2.03,0 -3.178,-0.924 -1.134,-0.938 -1.148,-2.632 h 2.17 q 0.056,1.876 2.254,1.876 0.854,0 1.344,-0.35 0.504,-0.364 0.504,-0.98 0,-0.518 -0.462,-0.756 -0.448,-0.238 -1.904,-0.658 -0.238,-0.056 -0.364,-0.098 -0.504,-0.14 -0.7,-0.196 -0.196,-0.07 -0.63,-0.224 -0.42,-0.154 -0.616,-0.28 -0.196,-0.126 -0.49,-0.35 -0.28,-0.224 -0.406,-0.462 -0.126,-0.252 -0.238,-0.602 -0.098,-0.364 -0.098,-0.784 0,-1.358 1.05,-2.17 1.05,-0.812 2.786,-0.812 1.68,0 2.744,0.798 1.064,0.784 1.092,2.38 z"
     id="path7063"
     style="font-weight:bold;font-size:14px;font-family:HelveticaNeueCyr, Sans-serif;fill:#ffe0e0" />
  <path
     d="m 556.30792,140.5 v -9.968 h 2.226 l 4.102,6.678 v -6.678 h 2.1 v 9.968 h -2.184 l -4.13,-6.692 v 6.692 z"
     id="path7065"
     style="font-weight:bold;font-size:14px;font-family:HelveticaNeueCyr, Sans-serif;fill:#ffe0e0" />
  <path
     d="m 571.18991,130.294 q 2.184,0 3.528,1.456 1.358,1.442 1.358,3.78 0,2.338 -1.358,3.78 -1.344,1.428 -3.542,1.428 -2.212,0 -3.57,-1.428 -1.358,-1.442 -1.358,-3.78 0,-2.366 1.344,-3.794 1.358,-1.442 3.598,-1.442 z m -0.028,1.792 q -1.232,0 -1.974,0.924 -0.728,0.924 -0.728,2.478 0,1.61 0.728,2.52 0.728,0.91 2.002,0.924 1.246,0 1.96,-0.924 0.714,-0.924 0.714,-2.52 0,-1.568 -0.728,-2.478 -0.728,-0.924 -1.974,-0.924 z"
     id="path7067"
     style="font-weight:bold;font-size:14px;font-family:HelveticaNeueCyr, Sans-serif;fill:#ffe0e0" />
  <path
     d="m 584.97991,130.532 v 1.862 h -2.996 v 8.106 h -2.198 v -8.106 h -2.996 v -1.862 z"
     id="path7069"
     style="font-weight:bold;font-size:14px;font-family:HelveticaNeueCyr, Sans-serif;fill:#ffe0e0" />
  <path
     d="m 590.01992,140.5 v -9.968 h 2.226 l 4.102,6.678 v -6.678 h 2.1 v 9.968 h -2.184 l -4.13,-6.692 v 6.692 z"
     id="path7071"
     style="font-weight:bold;font-size:14px;font-family:HelveticaNeueCyr, Sans-serif;fill:#ffe0e0" />
  <path
     d="m 608.87792,130.532 v 5.992 q 0,2.142 -1.036,3.164 -1.022,1.008 -3.206,1.008 -2.212,0 -3.262,-1.022 -1.036,-1.036 -1.036,-3.178 v -5.964 h 2.184 v 5.964 q 0,1.218 0.462,1.806 0.462,0.588 1.68,0.588 1.176,0 1.596,-0.588 0.434,-0.588 0.434,-1.806 v -5.964 z"
     id="path7073"
     style="font-weight:bold;font-size:14px;font-family:HelveticaNeueCyr, Sans-serif;fill:#ffe0e0" />
  <path
     d="m 617.82391,138.624 v 1.876 h -7.056 v -9.968 h 2.184 v 8.092 z"
     id="path7075"
     style="font-weight:bold;font-size:14px;font-family:HelveticaNeueCyr, Sans-serif;fill:#ffe0e0" />
  <path
     d="m 626.12591,138.624 v 1.876 h -7.056 v -9.968 h 2.184 v 8.092 z"
     id="path7077"
     style="font-weight:bold;font-size:14px;font-family:HelveticaNeueCyr, Sans-serif;fill:#ffe0e0" />
  <path
     id="rect909"
     style="fill:#320000;stroke:#320000"
     d="m 680.5,2.5 h 90 v 32 h -90 z" />
  <path
     id="rect911"
     class="nonterminal"
     style="fill:#ff3f3f;stroke:#320000"
     d="m 678.5,0.5 h 90 v 32 h -90 z" />
  <path
     d="m 695.57,18.218 q -0.546,2.52 -3.15,2.52 -1.596,0 -2.506,-0.994 -0.896,-0.994 -0.896,-2.758 0,-1.75 0.924,-2.828 0.938,-1.092 2.436,-1.092 1.666,0 2.464,1.134 0.812,1.12 0.812,2.842 v 0.168 h -5.432 l -0.014,0.084 q 0,1.148 0.602,1.806 0.602,0.658 1.652,0.658 0.784,0 1.232,-0.364 0.462,-0.364 0.714,-1.176 z m -1.148,-1.974 q -0.084,-1.036 -0.63,-1.61 -0.546,-0.588 -1.442,-0.588 -0.868,0 -1.442,0.588 -0.574,0.588 -0.686,1.61 z"
     id="path6962"
     style="font-size:14px;font-family:HelveticaNeueCyr, Sans-serif;fill:#ffe0e0" />
  <path
     d="m 702.85001,13.276 -2.52,3.332 2.814,3.892 h -1.526 l -2.03,-2.968 -2.002,2.968 h -1.442 l 2.716,-3.808 -2.506,-3.416 h 1.512 l 1.75,2.478 1.792,-2.478 z"
     id="path6964"
     style="font-size:14px;font-family:HelveticaNeueCyr, Sans-serif;fill:#ffe0e0" />
  <path
     d="m 705.286,13.276 v 1.022 q 0.784,-1.246 2.436,-1.246 1.512,0 2.394,1.022 0.896,1.022 0.896,2.772 0,1.75 -0.882,2.8 -0.868,1.036 -2.352,1.036 -1.554,0 -2.422,-1.19 v 3.794 h -1.19 v -10.01 z m 2.254,0.77 q -1.036,0 -1.638,0.756 -0.588,0.742 -0.588,2.058 0,1.316 0.602,2.072 0.616,0.742 1.666,0.742 1.022,0 1.61,-0.756 0.588,-0.756 0.588,-2.058 0,-1.316 -0.602,-2.058 -0.588,-0.756 -1.638,-0.756 z"
     id="path6966"
     style="font-size:14px;font-family:HelveticaNeueCyr, Sans-serif;fill:#ffe0e0" />
  <path
     d="m 716.23401,13.108 v 1.232 q -0.126,-0.014 -0.308,-0.014 -0.574,0 -0.994,0.182 -0.42,0.168 -0.672,0.448 -0.238,0.28 -0.392,0.7 -0.154,0.42 -0.21,0.84 -0.042,0.42 -0.042,0.952 V 20.5 h -1.19 v -7.224 h 1.134 v 1.554 q 0.714,-1.722 2.674,-1.722 z"
     id="path6968"
     style="font-size:14px;font-family:HelveticaNeueCyr, Sans-serif;fill:#ffe0e0" />
  <path
     d="m 723.05202,18.218 q -0.546,2.52 -3.15,2.52 -1.596,0 -2.506,-0.994 -0.896,-0.994 -0.896,-2.758 0,-1.75 0.924,-2.828 0.938,-1.092 2.436,-1.092 1.666,0 2.464,1.134 0.812,1.12 0.812,2.842 v 0.168 h -5.432 l -0.014,0.084 q 0,1.148 0.602,1.806 0.602,0.658 1.652,0.658 0.784,0 1.232,-0.364 0.462,-0.364 0.714,-1.176 z m -1.148,-1.974 q -0.084,-1.036 -0.63,-1.61 -0.546,-0.588 -1.442,-0.588 -0.868,0 -1.442,0.588 -0.574,0.588 -0.686,1.61 z"
     id="path6970"
     style="font-size:14px;font-family:HelveticaNeueCyr, Sans-serif;fill:#ffe0e0" />
  <path
     d="m 729.75803,15.376 h -1.19 q -0.112,-1.316 -1.764,-1.316 -0.686,0 -1.078,0.266 -0.392,0.266 -0.392,0.714 0,0.126 0.028,0.252 0.028,0.112 0.098,0.21 0.084,0.084 0.14,0.154 0.07,0.07 0.21,0.14 0.154,0.056 0.224,0.098 0.084,0.042 0.28,0.098 0.21,0.042 0.294,0.07 0.084,0.014 0.322,0.07 0.252,0.056 0.322,0.07 0.518,0.112 0.77,0.182 0.266,0.07 0.714,0.266 0.462,0.182 0.7,0.392 0.238,0.196 0.42,0.56 0.196,0.35 0.196,0.798 0,1.05 -0.826,1.694 -0.812,0.63 -2.17,0.63 -1.47,0 -2.268,-0.644 -0.784,-0.644 -0.84,-1.862 h 1.176 q 0.098,1.526 1.96,1.526 0.798,0 1.274,-0.322 0.49,-0.336 0.49,-0.882 0,-0.364 -0.252,-0.602 -0.252,-0.238 -0.56,-0.336 -0.308,-0.112 -0.882,-0.252 -0.084,-0.014 -0.126,-0.028 -0.126,-0.028 -0.546,-0.112 -0.406,-0.098 -0.588,-0.154 -0.182,-0.056 -0.532,-0.168 -0.336,-0.126 -0.504,-0.252 -0.168,-0.14 -0.378,-0.336 -0.196,-0.21 -0.28,-0.476 -0.084,-0.28 -0.084,-0.63 0,-0.98 0.742,-1.554 0.756,-0.574 2.016,-0.574 1.274,0 2.072,0.602 0.812,0.602 0.812,1.708 z"
     id="path6972"
     style="font-size:14px;font-family:HelveticaNeueCyr, Sans-serif;fill:#ffe0e0" />
  <path
     d="m 736.75803,15.376 h -1.19 q -0.112,-1.316 -1.764,-1.316 -0.686,0 -1.078,0.266 -0.392,0.266 -0.392,0.714 0,0.126 0.028,0.252 0.028,0.112 0.098,0.21 0.084,0.084 0.14,0.154 0.07,0.07 0.21,0.14 0.154,0.056 0.224,0.098 0.084,0.042 0.28,0.098 0.21,0.042 0.294,0.07 0.084,0.014 0.322,0.07 0.252,0.056 0.322,0.07 0.518,0.112 0.77,0.182 0.266,0.07 0.714,0.266 0.462,0.182 0.7,0.392 0.238,0.196 0.42,0.56 0.196,0.35 0.196,0.798 0,1.05 -0.826,1.694 -0.812,0.63 -2.17,0.63 -1.47,0 -2.268,-0.644 -0.784,-0.644 -0.84,-1.862 h 1.176 q 0.098,1.526 1.96,1.526 0.798,0 1.274,-0.322 0.49,-0.336 0.49,-0.882 0,-0.364 -0.252,-0.602 -0.252,-0.238 -0.56,-0.336 -0.308,-0.112 -0.882,-0.252 -0.084,-0.014 -0.126,-0.028 -0.126,-0.028 -0.546,-0.112 -0.406,-0.098 -0.588,-0.154 -0.182,-0.056 -0.532,-0.168 -0.336,-0.126 -0.504,-0.252 -0.168,-0.14 -0.378,-0.336 -0.196,-0.21 -0.28,-0.476 -0.084,-0.28 -0.084,-0.63 0,-0.98 0.742,-1.554 0.756,-0.574 2.016,-0.574 1.274,0 2.072,0.602 0.812,0.602 0.812,1.708 z"
     id="path6974"
     style="font-size:14px;font-family:HelveticaNeueCyr, Sans-serif;fill:#ffe0e0" />
  <path
     d="m 739.65603,10.532 v 1.456 h -1.204 v -1.456 z m 0,2.744 V 20.5 h -1.204 v -7.224 z"
     id="path6976"
     style="font-size:14px;font-family:HelveticaNeueCyr, Sans-serif;fill:#ffe0e0" />
  <path
     d="m 742.07803,14.102 q 0.952,-1.036 2.59,-1.036 1.638,0 2.548,0.994 0.91,0.994 0.91,2.786 0,1.834 -0.91,2.856 -0.91,1.022 -2.562,1.022 -1.652,0 -2.59,-1.008 -0.938,-1.008 -0.938,-2.8 0,-1.778 0.952,-2.814 z m 4.214,0.728 q -0.602,-0.77 -1.652,-0.77 -1.05,0 -1.666,0.77 -0.616,0.77 -0.616,2.058 0,1.33 0.602,2.086 0.616,0.742 1.708,0.742 1.05,0 1.638,-0.756 0.602,-0.756 0.602,-2.086 0,-1.288 -0.616,-2.044 z"
     id="path6978"
     style="font-size:14px;font-family:HelveticaNeueCyr, Sans-serif;fill:#ffe0e0" />
  <path
     d="m 750.66002,13.276 v 1.12 q 0.896,-1.316 2.464,-1.316 1.274,0 1.834,0.672 0.574,0.658 0.574,1.946 V 20.5 h -1.19 v -4.256 q 0,-0.532 -0.042,-0.826 -0.028,-0.308 -0.168,-0.644 -0.14,-0.35 -0.476,-0.504 -0.336,-0.154 -0.868,-0.154 -2.058,0 -2.058,2.604 v 3.78 h -1.19 v -7.224 z"
     id="path6980"
     style="font-size:14px;font-family:HelveticaNeueCyr, Sans-serif;fill:#ffe0e0" />
  <path
     id="rect917"
     style="fill:#320000;stroke:#320000"
     d="m 50.5,166.5 h 80 v 32 h -80 z" />
  <path
     id="rect919"
     class="nonterminal"
     style="fill:#ff3f3f;stroke:#320000"
     d="m 48.5,164.5 h 80 v 32 h -80 z" />
  <path
     d="m 63.162,177.108 v 1.232 q -0.126,-0.014 -0.308,-0.014 -0.574,0 -0.994,0.182 -0.42,0.168 -0.672,0.448 -0.238,0.28 -0.392,0.7 -0.154,0.42 -0.21,0.84 -0.042,0.42 -0.042,0.952 v 3.052 h -1.19 v -7.224 h 1.134 v 1.554 q 0.714,-1.722 2.674,-1.722 z"
     id="path6941"
     style="font-size:14px;font-family:HelveticaNeueCyr, Sans-serif;fill:#ffe0e0" />
  <path
     d="m 69.980007,182.218 q -0.546,2.52 -3.15,2.52 -1.596,0 -2.506,-0.994 -0.896,-0.994 -0.896,-2.758 0,-1.75 0.924,-2.828 0.938,-1.092 2.436,-1.092 1.666,0 2.464,1.134 0.812,1.12 0.812,2.842 v 0.168 h -5.432 l -0.014,0.084 q 0,1.148 0.602,1.806 0.602,0.658 1.652,0.658 0.784,0 1.232,-0.364 0.462,-0.364 0.714,-1.176 z m -1.148,-1.974 q -0.084,-1.036 -0.63,-1.61 -0.546,-0.588 -1.442,-0.588 -0.868,0 -1.442,0.588 -0.574,0.588 -0.686,1.61 z"
     id="path6943"
     style="font-size:14px;font-family:HelveticaNeueCyr, Sans-serif;fill:#ffe0e0" />
  <path
     d="m 74.586017,174.504 v 1.036 q -0.308,-0.056 -0.658,-0.056 -0.56,0 -0.742,0.182 -0.168,0.182 -0.168,0.784 v 0.826 h 1.386 v 0.98 h -1.386 v 6.244 h -1.204 v -6.244 h -1.218 v -0.98 h 1.218 v -0.966 q 0,-0.98 0.504,-1.414 0.504,-0.448 1.498,-0.448 0.308,0 0.77,0.056 z"
     id="path6945"
     style="font-size:14px;font-family:HelveticaNeueCyr, Sans-serif;fill:#ffe0e0" />
  <path
     d="m 81.64201,182.218 q -0.546,2.52 -3.15,2.52 -1.596,0 -2.506,-0.994 -0.896,-0.994 -0.896,-2.758 0,-1.75 0.924,-2.828 0.938,-1.092 2.436,-1.092 1.666,0 2.464,1.134 0.812,1.12 0.812,2.842 v 0.168 h -5.432 l -0.014,0.084 q 0,1.148 0.602,1.806 0.602,0.658 1.652,0.658 0.784,0 1.232,-0.364 0.462,-0.364 0.714,-1.176 z m -1.148,-1.974 q -0.084,-1.036 -0.63,-1.61 -0.546,-0.588 -1.442,-0.588 -0.868,0 -1.442,0.588 -0.574,0.588 -0.686,1.61 z"
     id="path6947"
     style="font-size:14px;font-family:HelveticaNeueCyr, Sans-serif;fill:#ffe0e0" />
  <path
     d="m 86.752019,177.108 v 1.232 q -0.126,-0.014 -0.308,-0.014 -0.574,0 -0.994,0.182 -0.42,0.168 -0.672,0.448 -0.238,0.28 -0.392,0.7 -0.154,0.42 -0.21,0.84 -0.042,0.42 -0.042,0.952 v 3.052 h -1.19 v -7.224 h 1.134 v 1.554 q 0.714,-1.722 2.674,-1.722 z"
     id="path6949"
     style="font-size:14px;font-family:HelveticaNeueCyr, Sans-serif;fill:#ffe0e0" />
  <path
     d="m 93.570027,182.218 q -0.546,2.52 -3.15,2.52 -1.596,0 -2.506,-0.994 -0.896,-0.994 -0.896,-2.758 0,-1.75 0.924,-2.828 0.938,-1.092 2.436,-1.092 1.666,0 2.464,1.134 0.812,1.12 0.812,2.842 v 0.168 h -5.432 l -0.014,0.084 q 0,1.148 0.602,1.806 0.602,0.658 1.652,0.658 0.784,0 1.232,-0.364 0.462,-0.364 0.714,-1.176 z m -1.148,-1.974 q -0.084,-1.036 -0.63,-1.61 -0.546,-0.588 -1.442,-0.588 -0.868,0 -1.442,0.588 -0.574,0.588 -0.686,1.61 z"
     id="path6951"
     style="font-size:14px;font-family:HelveticaNeueCyr, Sans-serif;fill:#ffe0e0" />
  <path
     d="m 96.034036,177.276 v 1.12 q 0.896,-1.316 2.464,-1.316 1.274004,0 1.834004,0.672 0.574,0.658 0.574,1.946 v 4.802 h -1.19 v -4.256 q 0,-0.532 -0.042,-0.826 -0.028,-0.308 -0.168,-0.644 -0.140004,-0.35 -0.476004,-0.504 -0.336,-0.154 -0.868,-0.154 -2.058,0 -2.058,2.604 v 3.78 h -1.19 v -7.224 z"
     id="path6953"
     style="font-size:14px;font-family:HelveticaNeueCyr, Sans-serif;fill:#ffe0e0" />
  <path
     d="m 108.91403,181.868 q -0.154,1.302 -0.994,2.072 -0.826,0.77 -2.156,0.77 -1.638,0 -2.534,-1.008 -0.896,-1.022 -0.896,-2.716 0,-1.806 0.938,-2.856 0.938,-1.064 2.534,-1.064 1.33,0 2.128,0.672 0.798,0.658 0.938,1.89 h -1.232 q -0.322,-1.568 -1.82,-1.568 -1.036,0 -1.638,0.77 -0.602,0.756 -0.602,2.058 0,1.316 0.574,2.072 0.574,0.756 1.582,0.756 0.812,0 1.316,-0.476 0.518,-0.476 0.658,-1.372 z"
     id="path6955"
     style="font-size:14px;font-family:HelveticaNeueCyr, Sans-serif;fill:#ffe0e0" />
  <path
     d="m 116.39004,182.218 q -0.546,2.52 -3.15,2.52 -1.596,0 -2.506,-0.994 -0.896,-0.994 -0.896,-2.758 0,-1.75 0.924,-2.828 0.938,-1.092 2.436,-1.092 1.666,0 2.464,1.134 0.812,1.12 0.812,2.842 v 0.168 h -5.432 l -0.014,0.084 q 0,1.148 0.602,1.806 0.602,0.658 1.652,0.658 0.784,0 1.232,-0.364 0.462,-0.364 0.714,-1.176 z m -1.148,-1.974 q -0.084,-1.036 -0.63,-1.61 -0.546,-0.588 -1.442,-0.588 -0.868,0 -1.442,0.588 -0.574,0.588 -0.686,1.61 z"
     id="path6957"
     style="font-size:14px;font-family:HelveticaNeueCyr, Sans-serif;fill:#ffe0e0" />
  <path
     id="rect925"
     style="fill:#320000;stroke:#320000"
     d="m 50.5,210.5 h 66 v 32 h -66 z" />
  <path
     id="rect927"
     class="nonterminal"
     style="fill:#ff3f3f;stroke:#320000"
     d="m 48.5,208.5 h 66 v 32 h -66 z" />
  <path
     d="m 66.662,221.458 h -1.274 q -0.21,-2.03 -2.478,-2.03 -1.078,0 -1.666,0.434 -0.588,0.434 -0.588,1.218 0,0.28 0.084,0.49 0.084,0.21 0.28,0.378 0.21,0.154 0.392,0.266 0.182,0.112 0.574,0.224 0.392,0.112 0.63,0.168 0.238,0.042 0.742,0.154 0.616,0.126 1.022,0.238 0.406,0.098 0.966,0.336 0.56,0.238 0.882,0.532 0.336,0.28 0.574,0.756 0.252,0.476 0.252,1.078 0,1.05 -0.588,1.764 -0.588,0.7 -1.428,0.98 -0.84,0.28 -1.862,0.28 -1.876,0 -3.01,-0.882 -1.12,-0.896 -1.12,-2.632 h 1.274 q 0.042,1.274 0.854,1.862 0.812,0.574 2.114,0.574 1.022,0 1.75,-0.42 0.728,-0.434 0.728,-1.4 0,-0.448 -0.196,-0.756 -0.196,-0.322 -0.616,-0.518 -0.42,-0.21 -0.84,-0.336 -0.42,-0.126 -1.106,-0.28 -0.098,-0.014 -0.14,-0.028 -1.54,-0.35 -2.016,-0.56 -1.456,-0.63 -1.456,-2.17 0,-1.428 1.05,-2.128 1.064,-0.714 2.562,-0.714 1.638,0 2.618,0.784 0.98,0.784 1.036,2.338 z"
     id="path6926"
     style="font-size:14px;font-family:HelveticaNeueCyr, Sans-serif;fill:#ffe0e0" />
  <path
     d="m 75.58001,218.532 v 1.148 h -5.586 v 3.122 h 5.222 v 1.106 h -5.222 v 3.444 h 5.656 v 1.148 h -6.972 v -9.968 z"
     id="path6928"
     style="font-size:14px;font-family:HelveticaNeueCyr, Sans-serif;fill:#ffe0e0" />
  <path
     d="m 83.854011,227.352 v 1.148 h -6.608 v -9.968 h 1.316 v 8.82 z"
     id="path6930"
     style="font-size:14px;font-family:HelveticaNeueCyr, Sans-serif;fill:#ffe0e0" />
  <path
     d="m 91.918007,218.532 v 1.148 h -5.586 v 3.122 h 5.222 v 1.106 h -5.222 v 3.444 h 5.656 v 1.148 h -6.972 v -9.968 z"
     id="path6932"
     style="font-size:14px;font-family:HelveticaNeueCyr, Sans-serif;fill:#ffe0e0" />
  <path
     d="m 102.01201,224.734 q -0.168,1.89 -1.316,2.954 -1.134,1.05 -2.996002,1.05 -2.128,0 -3.374,-1.4 -1.246,-1.414 -1.246,-3.808 0,-2.24 1.246,-3.724 1.26,-1.498 3.472,-1.498 1.582,0 2.786002,0.854 1.204,0.854 1.344,2.366 h -1.316 q -0.224,-0.98 -0.98,-1.526 -0.756002,-0.56 -1.862002,-0.56 -1.666,0 -2.52,1.176 -0.84,1.176 -0.84,2.898 0,1.904 0.896,2.996 0.896,1.092 2.45,1.092 1.274,0 2.030002,-0.728 0.756,-0.742 0.91,-2.142 z"
     id="path6934"
     style="font-size:14px;font-family:HelveticaNeueCyr, Sans-serif;fill:#ffe0e0" />
  <path
     d="m 110.59401,218.532 v 1.148 h -3.346 v 8.82 h -1.316 v -8.82 h -3.346 v -1.148 z"
     id="path6936"
     style="font-size:14px;font-family:HelveticaNeueCyr, Sans-serif;fill:#ffe0e0" />
  <path
     id="rect933"
     style="fill:#320000;stroke:#320000"
     d="m 50.5,254.5 h 60 v 32 h -60 z" />
  <path
     id="rect935"
     class="nonterminal"
     style="fill:#ff3f3f;stroke:#320000"
     d="m 48.5,252.5 h 60 v 32 h -60 z" />
  <path
     d="m 58.472,262.532 h 1.456 l 2.87,8.68 2.898,-8.68 h 1.386 l -3.556,9.968 h -1.512 z"
     id="path6913"
     style="font-size:14px;font-family:HelveticaNeueCyr, Sans-serif;fill:#ffe0e0" />
  <path
     d="m 71.702007,262.532 3.892,9.968 h -1.47 l -1.106,-3.052 h -4.186 l -1.134,3.052 h -1.4 l 3.92,-9.968 z m 0.924,5.866 -1.694,-4.606 -1.722,4.606 z"
     id="path6915"
     style="font-size:14px;font-family:HelveticaNeueCyr, Sans-serif;fill:#ffe0e0" />
  <path
     d="m 83.210018,271.352 v 1.148 h -6.608 v -9.968 h 1.316 v 8.82 z"
     id="path6917"
     style="font-size:14px;font-family:HelveticaNeueCyr, Sans-serif;fill:#ffe0e0" />
  <path
     d="m 84.302014,262.532 h 1.33 v 6.286 q 0,1.456 0.63,2.128 0.63,0.672 2.058,0.672 1.47,0 2.072,-0.686 0.616,-0.686 0.616,-2.114 v -6.286 h 1.33 v 5.936 q 0,2.184 -0.91,3.22 -0.91,1.022 -3.108,1.022 -2.128,0 -3.08,-0.994 -0.938,-1.008 -0.938,-3.108 z"
     id="path6919"
     style="font-size:14px;font-family:HelveticaNeueCyr, Sans-serif;fill:#ffe0e0" />
  <path
     d="m 101.38202,262.532 v 1.148 h -5.586004 v 3.122 h 5.222004 v 1.106 h -5.222004 v 3.444 h 5.656004 v 1.148 h -6.972004 v -9.968 z"
     id="path6921"
     style="font-size:14px;font-family:HelveticaNeueCyr, Sans-serif;fill:#ffe0e0" />
  <path
     class="line"
     d="m 16.5,16.5 h 2 m 20,0 h 10 m 90,0 h 10 m 20,0 h 10 m 40,0 h 10 m 0,0 h 420 m -500,0 h 20 m 480,0 h 20 m -520,0 c 6.66667,0 10,3.333333 10,10 m 500,0 c 0,-6.666667 3.33333,-10 10,-10 m -510,10 v 24 m 500,0 v -24 m -500,24 c 0,6.666667 3.33333,10 10,10 m 480,0 c 6.66667,0 10,-3.333333 10,-10 m -470,10 h 10 m 0,0 h 206 m -236,0 h 20 m 216,0 h 20 m -256,0 c 6.66667,0 10,3.333333 10,10 m 236,0 c 0,-6.666667 3.33333,-10 10,-10 m -246,10 v 12 m 236,0 v -12 m -236,12 c 0,6.666667 3.33333,10 10,10 m 216,0 c 6.66667,0 10,-3.333333 10,-10 m -226,10 h 10 m 86,0 h 10 m 0,0 h 10 m 90,0 h 10 m 20,-32 h 10 m 48,0 h 10 m 0,0 h 156 m -490,-10 v 20 m 500,0 v -20 m -500,20 v 56 m 500,0 v -56 m -500,56 c 0,6.66667 3.33333,10 10,10 m 480,0 c 6.66667,0 10,-3.33333 10,-10 m -490,10 h 10 m 460,0 h 10 m 20,-120 h 10 m 90,0 h 10 m -760,0 h 20 m 740,0 h 20 m -780,0 c 6.666667,0 10,3.333333 10,10 m 760,0 c 0,-6.666667 3.33333,-10 10,-10 m -770,10 v 144 m 760,0 v -144 m -760,144 c 0,6.66667 3.333333,10 10,10 m 740,0 c 6.66667,0 10,-3.33333 10,-10 m -750,10 h 10 m 80,0 h 10 m 0,0 h 640 m -750,-10 v 20 m 760,0 v -20 m -760,20 v 24 m 760,0 v -24 m -760,24 c 0,6.66667 3.333333,10 10,10 m 740,0 c 6.66667,0 10,-3.33333 10,-10 m -750,10 h 10 m 66,0 h 10 m 0,0 h 654 m -750,-10 v 20 m 760,0 v -20 m -760,20 v 24 m 760,0 v -24 m -760,24 c 0,6.66667 3.333333,10 10,10 m 740,0 c 6.66667,0 10,-3.33333 10,-10 m -750,10 h 10 m 60,0 h 10 m 0,0 h 660 m 23,-252 h -3"
     id="path941"
     sodipodi:nodetypes="cccccccccccccccccccccccccccccccccccccccccccccccccccccccccccccccccccccccccccccccccccccccccccccccccccccccccccccccccccccccccccccccccccccccccccccc" />
  <path
     id="polygon943"
     style="fill:#320000;stroke:#320000"
     d="m 816.5,20.5 -8,-4 8,-4 z" />
  <path
     id="polygon945"
     style="fill:#320000;stroke:#320000"
     d="m 800.5,20.5 8,-4 -8,-4 z" />
</svg>
