<?xml version="1.0" encoding="UTF-8"?>
<svg xmlns="http://www.w3.org/2000/svg" width="855" height="389">
   <defs>
      <style type="text/css">
    @namespace "http://www.w3.org/2000/svg";
    .line                 {fill: none; stroke: #320000; stroke-width: 1;}
    .bold-line            {stroke: #FFE0E0; shape-rendering: crispEdges; stroke-width: 2;}
    .thin-line            {stroke: #1F0000; shape-rendering: crispEdges}
    .filled               {fill: #320000; stroke: none;}
    text.terminal         {font-family: HelveticaNeueCyr, Sans-serif;
                            font-size: 14px;
                            fill: #FFE0E0;
                            font-weight: bold;
                          }
    text.nonterminal      {font-family: HelveticaNeueCyr, Sans-serif;
                            font-size: 14px;
                            fill: #FFE0E0;
                            font-weight: normal;
                          }
    text.regexp           {font-family: HelveticaNeueCyr, Sans-serif;
                            font-size: 14px;
                            fill: #1F0000;
                            font-weight: normal;
                          }
    rect, circle, polygon {fill: #320000; stroke: #320000;}
    rect.terminal         {fill: #FF0000; stroke: #320000; stroke-width: 1;}
    rect.nonterminal      {fill: #FF3F3F; stroke: #320000; stroke-width: 1;}
    rect.text             {fill: none; stroke: none;}
    polygon.regexp        {fill: #FF5E5E; stroke: #320000; stroke-width: 1;}
  </style>
   </defs>
   <polygon points="9 17 1 13 1 21"/>
   <polygon points="17 17 9 13 9 21"/>
   <a xmlns:xlink="http://www.w3.org/1999/xlink"
       xlink:href="#column_name"
       xlink:title="column_name">
      <rect x="51" y="3" width="108" height="32"/>
      <rect x="49" y="1" width="108" height="32" class="nonterminal"/>
      <text class="nonterminal" x="59" y="21">column_name</text>
   </a>
   <rect x="51" y="47" width="56" height="32" rx="10"/>
   <rect x="49"
          y="45"
          width="56"
          height="32"
          class="terminal"
          rx="10"/>
   <text class="terminal" x="59" y="65">CAST</text>
   <rect x="127" y="47" width="26" height="32" rx="10"/>
   <rect x="125"
          y="45"
          width="26"
          height="32"
          class="terminal"
          rx="10"/>
   <text class="terminal" x="135" y="65">(</text>
   <a xmlns:xlink="http://www.w3.org/1999/xlink"
       xlink:href="#expression"
       xlink:title="expression">
      <rect x="173" y="47" width="90" height="32"/>
      <rect x="171" y="45" width="90" height="32" class="nonterminal"/>
      <text class="nonterminal" x="181" y="65">expression</text>
   </a>
   <rect x="283" y="47" width="38" height="32" rx="10"/>
   <rect x="281"
          y="45"
          width="38"
          height="32"
          class="terminal"
          rx="10"/>
   <text class="terminal" x="291" y="65">AS</text>
   <a xmlns:xlink="http://www.w3.org/1999/xlink"
       xlink:href="#type"
       xlink:title="type">
      <rect x="341" y="47" width="48" height="32"/>
      <rect x="339" y="45" width="48" height="32" class="nonterminal"/>
      <text class="nonterminal" x="349" y="65">type</text>
   </a>
   <rect x="409" y="47" width="26" height="32" rx="10"/>
   <rect x="407"
          y="45"
          width="26"
          height="32"
          class="terminal"
          rx="10"/>
   <text class="terminal" x="417" y="65">)</text>
   <a xmlns:xlink="http://www.w3.org/1999/xlink"
       xlink:href="#expression"
       xlink:title="expression">
      <rect x="51" y="91" width="90" height="32"/>
      <rect x="49" y="89" width="90" height="32" class="nonterminal"/>
      <text class="nonterminal" x="59" y="109">expression</text>
   </a>
   <rect x="181" y="91" width="74" height="32" rx="10"/>
   <rect x="179"
          y="89"
          width="74"
          height="32"
          class="terminal"
          rx="10"/>
   <text class="terminal" x="189" y="109">IS NULL</text>
   <rect x="181" y="135" width="108" height="32" rx="10"/>
   <rect x="179"
          y="133"
          width="108"
          height="32"
          class="terminal"
          rx="10"/>
   <text class="terminal" x="189" y="153">IS NOT NULL</text>
   <rect x="201" y="179" width="456" height="32" rx="10"/>
   <rect x="199"
          y="177"
          width="456"
          height="32"
          class="terminal"
          rx="10"/>
   <text class="terminal" x="209" y="197">OR | AND | * | / | + | -| = | &gt; | &gt;= | &lt; | &lt;= | &lt;&gt; | &lt;= | &lt;&gt; | != </text>
   <rect x="201" y="223" width="86" height="32" rx="10"/>
   <rect x="199"
          y="221"
          width="86"
          height="32"
          class="terminal"
          rx="10"/>
   <text class="terminal" x="209" y="241">BETWEEN</text>
   <a xmlns:xlink="http://www.w3.org/1999/xlink"
       xlink:href="#expression"
       xlink:title="expression">
      <rect x="307" y="223" width="90" height="32"/>
      <rect x="305" y="221" width="90" height="32" class="nonterminal"/>
      <text class="nonterminal" x="315" y="241">expression</text>
   </a>
   <rect x="417" y="223" width="48" height="32" rx="10"/>
   <rect x="415"
          y="221"
          width="48"
          height="32"
          class="terminal"
          rx="10"/>
   <text class="terminal" x="425" y="241">AND</text>
   <a xmlns:xlink="http://www.w3.org/1999/xlink"
       xlink:href="#expression"
       xlink:title="expression">
      <rect x="697" y="179" width="90" height="32"/>
      <rect x="695" y="177" width="90" height="32" class="nonterminal"/>
      <text class="nonterminal" x="705" y="197">expression</text>
   </a>
   <a xmlns:xlink="http://www.w3.org/1999/xlink"
       xlink:href="#reference"
       xlink:title="reference">
      <rect x="51" y="267" width="80" height="32"/>
      <rect x="49" y="265" width="80" height="32" class="nonterminal"/>
      <text class="nonterminal" x="59" y="285">reference</text>
   </a>
   <rect x="51" y="311" width="70" height="32" rx="10"/>
   <rect x="49"
          y="309"
          width="70"
          height="32"
          class="terminal"
          rx="10"/>
   <text class="terminal" x="59" y="329">SELECT</text>
   <a xmlns:xlink="http://www.w3.org/1999/xlink"
       xlink:href="#value"
       xlink:title="value">
      <rect x="51" y="355" width="54" height="32"/>
      <rect x="49" y="353" width="54" height="32" class="nonterminal"/>
      <text class="nonterminal" x="59" y="373">value</text>
   </a>
   <path class="line"
          d="m17 17 h2 m20 0 h10 m108 0 h10 m0 0 h648 m-796 0 h20 m776 0 h20 m-816 0 q10 0 10 10 m796 0 q0 -10 10 -10 m-806 10 v24 m796 0 v-24 m-796 24 q0 10 10 10 m776 0 q10 0 10 -10 m-786 10 h10 m56 0 h10 m0 0 h10 m26 0 h10 m0 0 h10 m90 0 h10 m0 0 h10 m38 0 h10 m0 0 h10 m48 0 h10 m0 0 h10 m26 0 h10 m0 0 h372 m-786 -10 v20 m796 0 v-20 m-796 20 v24 m796 0 v-24 m-796 24 q0 10 10 10 m776 0 q10 0 10 -10 m-786 10 h10 m90 0 h10 m20 0 h10 m74 0 h10 m0 0 h532 m-646 0 h20 m626 0 h20 m-666 0 q10 0 10 10 m646 0 q0 -10 10 -10 m-656 10 v24 m646 0 v-24 m-646 24 q0 10 10 10 m626 0 q10 0 10 -10 m-636 10 h10 m108 0 h10 m0 0 h498 m-636 -10 v20 m646 0 v-20 m-646 20 v24 m646 0 v-24 m-646 24 q0 10 10 10 m626 0 q10 0 10 -10 m-616 10 h10 m456 0 h10 m-496 0 h20 m476 0 h20 m-516 0 q10 0 10 10 m496 0 q0 -10 10 -10 m-506 10 v24 m496 0 v-24 m-496 24 q0 10 10 10 m476 0 q10 0 10 -10 m-486 10 h10 m86 0 h10 m0 0 h10 m90 0 h10 m0 0 h10 m48 0 h10 m0 0 h192 m20 -44 h10 m90 0 h10 m-766 -98 v20 m796 0 v-20 m-796 20 v156 m796 0 v-156 m-796 156 q0 10 10 10 m776 0 q10 0 10 -10 m-786 10 h10 m80 0 h10 m0 0 h676 m-786 -10 v20 m796 0 v-20 m-796 20 v24 m796 0 v-24 m-796 24 q0 10 10 10 m776 0 q10 0 10 -10 m-786 10 h10 m70 0 h10 m0 0 h686 m-786 -10 v20 m796 0 v-20 m-796 20 v24 m796 0 v-24 m-796 24 q0 10 10 10 m776 0 q10 0 10 -10 m-786 10 h10 m54 0 h10 m0 0 h702 m23 -352 h-3"/>
   <polygon points="845 17 853 13 853 21"/>
   <polygon points="845 17 837 13 837 21"/>
</svg>
