<?xml version="1.0" encoding="UTF-8" standalone="no"?>
<svg
   width="179"
   height="169"
   version="1.1"
   id="svg1114"
   sodipodi:docname="groupby.svg"
   inkscape:version="1.2.2 (b0a8486541, 2022-12-01)"
   xmlns:inkscape="http://www.inkscape.org/namespaces/inkscape"
   xmlns:sodipodi="http://sodipodi.sourceforge.net/DTD/sodipodi-0.dtd"
   xmlns:xlink="http://www.w3.org/1999/xlink"
   xmlns="http://www.w3.org/2000/svg"
   xmlns:svg="http://www.w3.org/2000/svg">
  <sodipodi:namedview
     id="namedview1116"
     pagecolor="#ffffff"
     bordercolor="#666666"
     borderopacity="1.0"
     inkscape:showpageshadow="2"
     inkscape:pageopacity="0.0"
     inkscape:pagecheckerboard="0"
     inkscape:deskcolor="#d1d1d1"
     showgrid="false"
     inkscape:zoom="1.7552148"
     inkscape:cx="-58.397412"
     inkscape:cy="32.474658"
     inkscape:window-width="1920"
     inkscape:window-height="1011"
     inkscape:window-x="0"
     inkscape:window-y="32"
     inkscape:window-maximized="1"
     inkscape:current-layer="a1098" />
  <defs
     id="defs1070">
    <style
       type="text/css"
       id="style1068">
    @namespace &quot;http://www.w3.org/2000/svg&quot;;
    .line                 {fill: none; stroke: #320000; stroke-width: 1;}
    .bold-line            {stroke: #FFE0E0; shape-rendering: crispEdges; stroke-width: 2;}
    .thin-line            {stroke: #1F0000; shape-rendering: crispEdges}
    .filled               {fill: #320000; stroke: none;}
    text.terminal         {font-family: HelveticaNeueCyr, Sans-serif;
                            font-size: 14px;
                            fill: #FFE0E0;
                            font-weight: bold;
                          }
    text.nonterminal      {font-family: HelveticaNeueCyr, Sans-serif;
                            font-size: 14px;
                            fill: #FFE0E0;
                            font-weight: normal;
                          }
    text.regexp           {font-family: HelveticaNeueCyr, Sans-serif;
                            font-size: 14px;
                            fill: #1F0000;
                            font-weight: normal;
                          }
    rect, circle, polygon {fill: #320000; stroke: #320000;}
    rect.terminal         {fill: #FF0000; stroke: #320000; stroke-width: 1;}
    rect.nonterminal      {fill: #FF3F3F; stroke: #320000; stroke-width: 1;}
    rect.text             {fill: none; stroke: none;}
    polygon.regexp        {fill: #FF5E5E; stroke: #320000; stroke-width: 1;}
  </style>
  </defs>
  <path
     id="polygon1072"
     style="fill:#320000;stroke:#320000"
     d="M 9,17 1,13 v 8 z" />
  <path
     id="polygon1074"
     style="fill:#320000;stroke:#320000"
     d="M 17,17 9,13 v 8 z" />
  <a
     xlink:href="#concat"
     xlink:title="concat"
     id="a1082">
    <path
       id="rect1076"
       style="fill:#320000;stroke:#320000"
       d="m 51,3 h 60 V 35 H 51 Z" />
    <path
       id="rect1078"
       class="nonterminal"
       style="fill:#ff3f3f;stroke:#320000"
       d="m 49,1 h 60 V 33 H 49 Z" />
    <g
       aria-label="concat"
       id="text1080"
       class="nonterminal"
       style="font-size:14px;font-family:HelveticaNeueCyr, Sans-serif;fill:#ffe0e0">
      <path
         d="m 66.112,18.368 q -0.154,1.302 -0.994,2.072 -0.826,0.77 -2.156,0.77 -1.638,0 -2.534,-1.008 -0.896,-1.022 -0.896,-2.716 0,-1.806 0.938,-2.856 0.938,-1.064 2.534,-1.064 1.33,0 2.128,0.672 0.798,0.658 0.938,1.89 h -1.232 q -0.322,-1.568 -1.82,-1.568 -1.036,0 -1.638,0.77 -0.602,0.756 -0.602,2.058 0,1.316 0.574,2.072 0.574,0.756 1.582,0.756 0.812,0 1.316,-0.476 0.518,-0.476 0.658,-1.372 z"
         id="path4476" />
      <path
         d="m 67.988009,14.602 q 0.952,-1.036 2.59,-1.036 1.638,0 2.548,0.994 0.91,0.994 0.91,2.786 0,1.834 -0.91,2.856 -0.91,1.022 -2.562,1.022 -1.652,0 -2.59,-1.008 -0.938,-1.008 -0.938,-2.8 0,-1.778 0.952,-2.814 z m 4.214,0.728 q -0.602,-0.77 -1.652,-0.77 -1.05,0 -1.666,0.77 -0.616,0.77 -0.616,2.058 0,1.33 0.602,2.086 0.616,0.742 1.708,0.742 1.05,0 1.638,-0.756 0.602,-0.756 0.602,-2.086 0,-1.288 -0.616,-2.044 z"
         id="path4478" />
      <path
         d="m 76.570001,13.776 v 1.12 q 0.896,-1.316 2.464,-1.316 1.274,0 1.834,0.672 0.574,0.658 0.574,1.946 V 21 h -1.19 v -4.256 q 0,-0.532 -0.042,-0.826 -0.028,-0.308 -0.168,-0.644 -0.14,-0.35 -0.476,-0.504 -0.336,-0.154 -0.868,-0.154 -2.058,0 -2.058,2.604 V 21 h -1.19 v -7.224 z"
         id="path4480" />
      <path
         d="m 89.449997,18.368 q -0.154,1.302 -0.994,2.072 -0.826,0.77 -2.156,0.77 -1.638,0 -2.534,-1.008 -0.896,-1.022 -0.896,-2.716 0,-1.806 0.938,-2.856 0.938,-1.064 2.534,-1.064 1.33,0 2.128,0.672 0.798,0.658 0.938,1.89 h -1.232 q -0.322,-1.568 -1.82,-1.568 -1.036,0 -1.638,0.77 -0.602,0.756 -0.602,2.058 0,1.316 0.574,2.072 0.574,0.756 1.582,0.756 0.812,0 1.316,-0.476 0.518,-0.476 0.658,-1.372 z"
         id="path4482" />
      <path
         d="m 97.150007,20.048 v 0.924 q -0.364,0.14 -0.812,0.14 -1.022,0 -1.05,-1.064 -1.022,1.148 -2.618,1.148 -1.064,0 -1.694,-0.546 -0.616,-0.546 -0.616,-1.498 0,-1.932 2.562,-2.254 1.512,-0.182 1.75,-0.266 0.504,-0.168 0.546,-0.7 0.014,-0.084 0.014,-0.182 0,-1.19 -1.638,-1.19 -0.84,0 -1.274,0.35 -0.434,0.336 -0.518,1.12 h -1.162 q 0.028,-1.162 0.826,-1.806 0.798,-0.644 2.198,-0.644 1.526,0 2.268,0.7 0.238,0.224 0.35,0.588 0.112,0.364 0.126,0.602 0.014,0.224 0.014,0.686 0,0.546 -0.028,1.624 -0.028,1.064 -0.028,1.596 0,0.392 0.098,0.56 0.112,0.154 0.392,0.154 0.112,0 0.294,-0.042 z m -1.918,-2.8 q -0.126,0.098 -0.266,0.168 -0.14,0.07 -0.364,0.112 -0.21,0.042 -0.294,0.07 -0.07,0.014 -0.364,0.056 -0.294,0.028 -0.308,0.028 -0.434,0.056 -0.574,0.084 -0.126,0.014 -0.504,0.112 -0.364,0.098 -0.518,0.224 -0.154,0.126 -0.308,0.378 -0.14,0.238 -0.14,0.574 0,0.56 0.378,0.882 0.392,0.322 1.064,0.322 0.854,0 1.526,-0.504 0.672,-0.504 0.672,-1.19 z"
         id="path4484" />
      <path
         d="m 101.36402,13.776 v 0.98 h -1.442004 v 4.214 q 0,0.35 0,0.462 0.014,0.112 0.084,0.308 0.07,0.182 0.238,0.238 0.168,0.056 0.476,0.056 0.266,0 0.644,-0.042 v 1.022 q -0.504,0.056 -0.91,0.056 -0.504004,0 -0.840004,-0.112 -0.336,-0.112 -0.518,-0.252 -0.168,-0.14 -0.252,-0.49 -0.084,-0.364 -0.098,-0.602 -0.014,-0.252 -0.014,-0.826 0,-0.126 0,-0.196 v -3.836 h -1.218 v -0.98 h 1.218 v -2.142 h 1.19 v 2.142 z"
         id="path4486" />
    </g>
  </a>
  <a
     xlink:href="#cast"
     xlink:title="cast"
     id="a1090">
    <path
       id="rect1084"
       style="fill:#320000;stroke:#320000"
       d="M 51,47 H 97 V 79 H 51 Z" />
    <path
       id="rect1086"
       class="nonterminal"
       style="fill:#ff3f3f;stroke:#320000"
       d="M 49,45 H 95 V 77 H 49 Z" />
    <g
       aria-label="cast"
       id="text1088"
       class="nonterminal"
       style="font-size:14px;font-family:HelveticaNeueCyr, Sans-serif;fill:#ffe0e0">
      <path
         d="m 66.112,62.368 q -0.154,1.302 -0.994,2.072 -0.826,0.77 -2.156,0.77 -1.638,0 -2.534,-1.008 -0.896,-1.022 -0.896,-2.716 0,-1.806 0.938,-2.856 0.938,-1.064 2.534,-1.064 1.33,0 2.128,0.672 0.798,0.658 0.938,1.89 h -1.232 q -0.322,-1.568 -1.82,-1.568 -1.036,0 -1.638,0.77 -0.602,0.756 -0.602,2.058 0,1.316 0.574,2.072 0.574,0.756 1.582,0.756 0.812,0 1.316,-0.476 0.518,-0.476 0.658,-1.372 z"
         id="path4491" />
      <path
         d="m 73.812009,64.048 v 0.924 q -0.364,0.14 -0.812,0.14 -1.022,0 -1.05,-1.064 -1.022,1.148 -2.618,1.148 -1.064,0 -1.694,-0.546 -0.616,-0.546 -0.616,-1.498 0,-1.932 2.562,-2.254 1.512,-0.182 1.75,-0.266 0.504,-0.168 0.546,-0.7 0.014,-0.084 0.014,-0.182 0,-1.19 -1.638,-1.19 -0.84,0 -1.274,0.35 -0.434,0.336 -0.518,1.12 h -1.162 q 0.028,-1.162 0.826,-1.806 0.798,-0.644 2.198,-0.644 1.526,0 2.268,0.7 0.238,0.224 0.35,0.588 0.112,0.364 0.126,0.602 0.014,0.224 0.014,0.686 0,0.546 -0.028,1.624 -0.028,1.064 -0.028,1.596 0,0.392 0.098,0.56 0.112,0.154 0.392,0.154 0.112,0 0.294,-0.042 z m -1.918,-2.8 q -0.126,0.098 -0.266,0.168 -0.14,0.07 -0.364,0.112 -0.21,0.042 -0.294,0.07 -0.07,0.014 -0.364,0.056 -0.294,0.028 -0.308,0.028 -0.434,0.056 -0.574,0.084 -0.126,0.014 -0.504,0.112 -0.364,0.098 -0.518,0.224 -0.154,0.126 -0.308,0.378 -0.14,0.238 -0.14,0.574 0,0.56 0.378,0.882 0.392,0.322 1.064,0.322 0.854,0 1.526,-0.504 0.672,-0.504 0.672,-1.19 z"
         id="path4493" />
      <path
         d="m 80.294018,59.876 h -1.19 q -0.112,-1.316 -1.764,-1.316 -0.686,0 -1.078,0.266 -0.392,0.266 -0.392,0.714 0,0.126 0.028,0.252 0.028,0.112 0.098,0.21 0.084,0.084 0.14,0.154 0.07,0.07 0.21,0.14 0.154,0.056 0.224,0.098 0.084,0.042 0.28,0.098 0.21,0.042 0.294,0.07 0.084,0.014 0.322,0.07 0.252,0.056 0.322,0.07 0.518,0.112 0.77,0.182 0.266,0.07 0.714,0.266 0.462,0.182 0.7,0.392 0.238,0.196 0.42,0.56 0.196,0.35 0.196,0.798 0,1.05 -0.826,1.694 -0.812,0.63 -2.17,0.63 -1.47,0 -2.268,-0.644 -0.784,-0.644 -0.84,-1.862 h 1.176 q 0.098,1.526 1.96,1.526 0.798,0 1.274,-0.322 0.49,-0.336 0.49,-0.882 0,-0.364 -0.252,-0.602 -0.252,-0.238 -0.56,-0.336 -0.308,-0.112 -0.882,-0.252 -0.084,-0.014 -0.126,-0.028 -0.126,-0.028 -0.546,-0.112 -0.406,-0.098 -0.588,-0.154 -0.182,-0.056 -0.532,-0.168 -0.336,-0.126 -0.504,-0.252 -0.168,-0.14 -0.378,-0.336 -0.196,-0.21 -0.28,-0.476 -0.084,-0.28 -0.084,-0.63 0,-0.98 0.742,-1.554 0.756,-0.574 2.016,-0.574 1.274,0 2.072,0.602 0.812,0.602 0.812,1.708 z"
         id="path4495" />
      <path
         d="m 85.026018,57.776 v 0.98 h -1.442 v 4.214 q 0,0.35 0,0.462 0.014,0.112 0.084,0.308 0.07,0.182 0.238,0.238 0.168,0.056 0.476,0.056 0.266,0 0.644,-0.042 v 1.022 q -0.504,0.056 -0.91,0.056 -0.504,0 -0.84,-0.112 -0.336,-0.112 -0.518,-0.252 -0.168,-0.14 -0.252,-0.49 -0.084,-0.364 -0.098,-0.602 -0.014,-0.252 -0.014,-0.826 0,-0.126 0,-0.196 v -3.836 h -1.218 v -0.98 h 1.218 v -2.142 h 1.19 v 2.142 z"
         id="path4497" />
    </g>
  </a>
  <a
     xlink:href="#function"
     xlink:title="function"
     id="a1098">
    <path
       id="rect1092"
       style="fill:#320000;stroke:#320000"
       d="m 51,91 h 70 v 32 H 51 Z" />
    <path
       id="rect1094"
       class="nonterminal"
       style="fill:#ff3f3f;stroke:#320000"
       d="m 49,89 h 70 v 32 H 49 Z" />
    <g
       aria-label="function"
       id="text1096"
       class="nonterminal"
       style="font-size:14px;font-family:HelveticaNeueCyr, Sans-serif;fill:#ffe0e0">
      <path
         d="m 63.158,99.004 v 1.036 Q 62.85,99.984 62.5,99.984 q -0.56,0 -0.742,0.182 -0.168,0.182 -0.168,0.784 v 0.826 h 1.386 v 0.98 H 61.59 V 109 h -1.204 v -6.244 h -1.218 v -0.98 h 1.218 v -0.966 q 0,-0.98 0.504,-1.414 0.504,-0.448 1.498,-0.448 0.308,0 0.77,0.056 z"
         id="path4502" />
      <path
         d="M 70.031993,101.776 V 109 h -1.106 v -1.134 q -0.924,1.33 -2.492,1.33 -1.148,0 -1.778,-0.63 -0.63,-0.63 -0.63,-1.82 v -4.97 h 1.19 v 4.648 q 0,0.854 0.322,1.302 0.336,0.434 1.19,0.434 2.114,0 2.114,-2.604 v -3.78 z"
         id="path4504" />
      <path
         d="m 72.94399,101.776 v 1.12 q 0.896,-1.316 2.464,-1.316 1.274,0 1.834,0.672 0.574,0.658 0.574,1.946 V 109 h -1.19 v -4.256 q 0,-0.532 -0.042,-0.826 -0.028,-0.308 -0.168,-0.644 -0.14,-0.35 -0.476,-0.504 -0.336,-0.154 -0.868,-0.154 -2.058,0 -2.058,2.604 V 109 h -1.19 v -7.224 z"
         id="path4506" />
      <path
         d="m 85.823987,106.368 q -0.154,1.302 -0.994,2.072 -0.826,0.77 -2.156,0.77 -1.638,0 -2.534,-1.008 -0.896,-1.022 -0.896,-2.716 0,-1.806 0.938,-2.856 0.938,-1.064 2.534,-1.064 1.33,0 2.128,0.672 0.798,0.658 0.938,1.89 h -1.232 q -0.322,-1.568 -1.82,-1.568 -1.036,0 -1.638,0.77 -0.602,0.756 -0.602,2.058 0,1.316 0.574,2.072 0.574,0.756 1.582,0.756 0.812,0 1.316,-0.476 0.518,-0.476 0.658,-1.372 z"
         id="path4508" />
      <path
         d="m 90.219996,101.776 v 0.98 h -1.442 v 4.214 q 0,0.35 0,0.462 0.014,0.112 0.084,0.308 0.07,0.182 0.238,0.238 0.168,0.056 0.476,0.056 0.266,0 0.644,-0.042 v 1.022 q -0.504,0.056 -0.91,0.056 -0.504,0 -0.84,-0.112 -0.336,-0.112 -0.518,-0.252 -0.168,-0.14 -0.252,-0.49 -0.084,-0.364 -0.098,-0.602 -0.014,-0.252 -0.014,-0.826 0,-0.126 0,-0.196 v -3.836 h -1.218 v -0.98 h 1.218 v -2.142 h 1.19 v 2.142 z"
         id="path4510" />
      <path
         d="m 92.796003,99.032 v 1.456 h -1.204 v -1.456 z m 0,2.744 V 109 h -1.204 v -7.224 z"
         id="path4512" />
      <path
         d="m 95.218005,102.602 q 0.952,-1.036 2.59,-1.036 1.638,0 2.547995,0.994 0.91,0.994 0.91,2.786 0,1.834 -0.91,2.856 -0.909995,1.022 -2.561995,1.022 -1.652,0 -2.59,-1.008 -0.938,-1.008 -0.938,-2.8 0,-1.778 0.952,-2.814 z m 4.214,0.728 q -0.602,-0.77 -1.652,-0.77 -1.05,0 -1.666,0.77 -0.616,0.77 -0.616,2.058 0,1.33 0.602,2.086 0.616,0.742 1.708,0.742 1.05,0 1.638,-0.756 0.601995,-0.756 0.601995,-2.086 0,-1.288 -0.615995,-2.044 z"
         id="path4514" />
      <path
         d="m 103.8,101.776 v 1.12 q 0.896,-1.316 2.464,-1.316 1.274,0 1.834,0.672 0.574,0.658 0.574,1.946 V 109 h -1.19 v -4.256 q 0,-0.532 -0.042,-0.826 -0.028,-0.308 -0.168,-0.644 -0.14,-0.35 -0.476,-0.504 -0.336,-0.154 -0.868,-0.154 -2.058,0 -2.058,2.604 V 109 h -1.19 v -7.224 z"
         id="path4516" />
    </g>
  </a>
  <a
     xlink:href="#reference"
     xlink:title="reference"
     id="a1106">
    <path
       id="rect1100"
       style="fill:#320000;stroke:#320000"
       d="m 51,135 h 80 v 32 H 51 Z" />
    <path
       id="rect1102"
       class="nonterminal"
       style="fill:#ff3f3f;stroke:#320000"
       d="m 49,133 h 80 v 32 H 49 Z" />
    <g
       aria-label="reference"
       id="text1104"
       class="nonterminal"
       style="font-size:14px;font-family:HelveticaNeueCyr, Sans-serif;fill:#ffe0e0">
      <path
         d="m 63.662,145.608 v 1.232 q -0.126,-0.014 -0.308,-0.014 -0.574,0 -0.994,0.182 -0.42,0.168 -0.672,0.448 -0.238,0.28 -0.392,0.7 -0.154,0.42 -0.21,0.84 -0.042,0.42 -0.042,0.952 V 153 h -1.19 v -7.224 h 1.134 v 1.554 q 0.714,-1.722 2.674,-1.722 z"
         id="path4521" />
      <path
         d="m 70.480007,150.718 q -0.546,2.52 -3.15,2.52 -1.596,0 -2.506,-0.994 -0.896,-0.994 -0.896,-2.758 0,-1.75 0.924,-2.828 0.938,-1.092 2.436,-1.092 1.666,0 2.464,1.134 0.812,1.12 0.812,2.842 v 0.168 h -5.432 l -0.014,0.084 q 0,1.148 0.602,1.806 0.602,0.658 1.652,0.658 0.784,0 1.232,-0.364 0.462,-0.364 0.714,-1.176 z m -1.148,-1.974 q -0.084,-1.036 -0.63,-1.61 -0.546,-0.588 -1.442,-0.588 -0.868,0 -1.442,0.588 -0.574,0.588 -0.686,1.61 z"
         id="path4523" />
      <path
         d="m 75.086017,143.004 v 1.036 q -0.308,-0.056 -0.658,-0.056 -0.56,0 -0.742,0.182 -0.168,0.182 -0.168,0.784 v 0.826 h 1.386 v 0.98 h -1.386 V 153 h -1.204 v -6.244 h -1.218 v -0.98 h 1.218 v -0.966 q 0,-0.98 0.504,-1.414 0.504,-0.448 1.498,-0.448 0.308,0 0.77,0.056 z"
         id="path4525" />
      <path
         d="m 82.14201,150.718 q -0.546,2.52 -3.15,2.52 -1.596,0 -2.506,-0.994 -0.896,-0.994 -0.896,-2.758 0,-1.75 0.924,-2.828 0.938,-1.092 2.436,-1.092 1.666,0 2.464,1.134 0.812,1.12 0.812,2.842 v 0.168 h -5.432 l -0.014,0.084 q 0,1.148 0.602,1.806 0.602,0.658 1.652,0.658 0.784,0 1.232,-0.364 0.462,-0.364 0.714,-1.176 z m -1.148,-1.974 q -0.084,-1.036 -0.63,-1.61 -0.546,-0.588 -1.442,-0.588 -0.868,0 -1.442,0.588 -0.574,0.588 -0.686,1.61 z"
         id="path4527" />
      <path
         d="m 87.252019,145.608 v 1.232 q -0.126,-0.014 -0.308,-0.014 -0.574,0 -0.994,0.182 -0.42,0.168 -0.672,0.448 -0.238,0.28 -0.392,0.7 -0.154,0.42 -0.21,0.84 -0.042,0.42 -0.042,0.952 V 153 h -1.19 v -7.224 h 1.134 v 1.554 q 0.714,-1.722 2.674,-1.722 z"
         id="path4529" />
      <path
         d="m 94.070027,150.718 q -0.546,2.52 -3.15,2.52 -1.596,0 -2.506,-0.994 -0.896,-0.994 -0.896,-2.758 0,-1.75 0.924,-2.828 0.938,-1.092 2.436,-1.092 1.666,0 2.464,1.134 0.812,1.12 0.812,2.842 v 0.168 h -5.432 l -0.014,0.084 q 0,1.148 0.602,1.806 0.602,0.658 1.652,0.658 0.784,0 1.232,-0.364 0.462,-0.364 0.714,-1.176 z m -1.148,-1.974 q -0.084,-1.036 -0.63,-1.61 -0.546,-0.588 -1.442,-0.588 -0.868,0 -1.442,0.588 -0.574,0.588 -0.686,1.61 z"
         id="path4531" />
      <path
         d="m 96.534036,145.776 v 1.12 q 0.896,-1.316 2.464,-1.316 1.274004,0 1.834004,0.672 0.574,0.658 0.574,1.946 V 153 h -1.19 v -4.256 q 0,-0.532 -0.042,-0.826 -0.028,-0.308 -0.168,-0.644 -0.140004,-0.35 -0.476004,-0.504 -0.336,-0.154 -0.868,-0.154 -2.058,0 -2.058,2.604 V 153 h -1.19 v -7.224 z"
         id="path4533" />
      <path
         d="m 109.41403,150.368 q -0.154,1.302 -0.994,2.072 -0.826,0.77 -2.156,0.77 -1.638,0 -2.534,-1.008 -0.896,-1.022 -0.896,-2.716 0,-1.806 0.938,-2.856 0.938,-1.064 2.534,-1.064 1.33,0 2.128,0.672 0.798,0.658 0.938,1.89 h -1.232 q -0.322,-1.568 -1.82,-1.568 -1.036,0 -1.638,0.77 -0.602,0.756 -0.602,2.058 0,1.316 0.574,2.072 0.574,0.756 1.582,0.756 0.812,0 1.316,-0.476 0.518,-0.476 0.658,-1.372 z"
         id="path4535" />
      <path
         d="m 116.89004,150.718 q -0.546,2.52 -3.15,2.52 -1.596,0 -2.506,-0.994 -0.896,-0.994 -0.896,-2.758 0,-1.75 0.924,-2.828 0.938,-1.092 2.436,-1.092 1.666,0 2.464,1.134 0.812,1.12 0.812,2.842 v 0.168 h -5.432 l -0.014,0.084 q 0,1.148 0.602,1.806 0.602,0.658 1.652,0.658 0.784,0 1.232,-0.364 0.462,-0.364 0.714,-1.176 z m -1.148,-1.974 q -0.084,-1.036 -0.63,-1.61 -0.546,-0.588 -1.442,-0.588 -0.868,0 -1.442,0.588 -0.574,0.588 -0.686,1.61 z"
         id="path4537" />
    </g>
  </a>
  <path
     class="line"
     d="m17 17 h2 m20 0 h10 m60 0 h10 m0 0 h20 m-120 0 h20 m100 0 h20 m-140 0 q10 0 10 10 m120 0 q0 -10 10 -10 m-130 10 v24 m120 0 v-24 m-120 24 q0 10 10 10 m100 0 q10 0 10 -10 m-110 10 h10 m46 0 h10 m0 0 h34 m-110 -10 v20 m120 0 v-20 m-120 20 v24 m120 0 v-24 m-120 24 q0 10 10 10 m100 0 q10 0 10 -10 m-110 10 h10 m70 0 h10 m0 0 h10 m-110 -10 v20 m120 0 v-20 m-120 20 v24 m120 0 v-24 m-120 24 q0 10 10 10 m100 0 q10 0 10 -10 m-110 10 h10 m80 0 h10 m23 -132 h-3"
     id="path1108" />
  <path
     id="polygon1110"
     style="fill:#320000;stroke:#320000"
     d="m 169,17 8,-4 v 8 z" />
  <path
     id="polygon1112"
     style="fill:#320000;stroke:#320000"
     d="m 169,17 -8,-4 v 8 z" />
</svg>
