<?xml version="1.0" encoding="UTF-8"?>
<svg xmlns="http://www.w3.org/2000/svg" width="679" height="97">
   <defs>
      <style type="text/css">
    @namespace "http://www.w3.org/2000/svg";
    .line                 {fill: none; stroke: #320000; stroke-width: 1;}
    .bold-line            {stroke: #FFE0E0; shape-rendering: crispEdges; stroke-width: 2;}
    .thin-line            {stroke: #1F0000; shape-rendering: crispEdges}
    .filled               {fill: #320000; stroke: none;}
    text.terminal         {font-family: HelveticaNeueCyr, Sans-serif;
                            font-size: 14px;
                            fill: #FFE0E0;
                            font-weight: bold;
                          }
    text.nonterminal      {font-family: HelveticaNeueCyr, Sans-serif;
                            font-size: 14px;
                            fill: #FFE0E0;
                            font-weight: normal;
                          }
    text.regexp           {font-family: HelveticaNeueCyr, Sans-serif;
                            font-size: 14px;
                            fill: #1F0000;
                            font-weight: normal;
                          }
    rect, circle, polygon {fill: #320000; stroke: #320000;}
    rect.terminal         {fill: #FF0000; stroke: #320000; stroke-width: 1;}
    rect.nonterminal      {fill: #FF3F3F; stroke: #320000; stroke-width: 1;}
    rect.text             {fill: none; stroke: none;}
    polygon.regexp        {fill: #FF5E5E; stroke: #320000; stroke-width: 1;}
  </style>
   </defs>
   <polygon points="9 61 1 57 1 65"/>
   <polygon points="17 61 9 57 9 65"/>
   <rect x="31" y="47" width="70" height="32" rx="10"/>
   <rect x="29"
          y="45"
          width="70"
          height="32"
          class="terminal"
          rx="10"/>
   <text class="terminal" x="39" y="65">INSERT</text>
   <rect x="121" y="47" width="56" height="32" rx="10"/>
   <rect x="119"
          y="45"
          width="56"
          height="32"
          class="terminal"
          rx="10"/>
   <text class="terminal" x="129" y="65">INTO</text>
   <a xmlns:xlink="http://www.w3.org/1999/xlink"
       xlink:href="#table"
       xlink:title="table">
      <rect x="197" y="47" width="52" height="32"/>
      <rect x="195" y="45" width="52" height="32" class="nonterminal"/>
      <text class="nonterminal" x="205" y="65">table</text>
   </a>
   <rect x="289" y="47" width="26" height="32" rx="10"/>
   <rect x="287"
          y="45"
          width="26"
          height="32"
          class="terminal"
          rx="10"/>
   <text class="terminal" x="297" y="65">(</text>
   <a xmlns:xlink="http://www.w3.org/1999/xlink"
       xlink:href="#name"
       xlink:title="name">
      <rect x="355" y="47" width="56" height="32"/>
      <rect x="353" y="45" width="56" height="32" class="nonterminal"/>
      <text class="nonterminal" x="363" y="65">name</text>
   </a>
   <rect x="355" y="3" width="24" height="32" rx="10"/>
   <rect x="353"
          y="1"
          width="24"
          height="32"
          class="terminal"
          rx="10"/>
   <text class="terminal" x="363" y="21">,</text>
   <rect x="451" y="47" width="26" height="32" rx="10"/>
   <rect x="449"
          y="45"
          width="26"
          height="32"
          class="terminal"
          rx="10"/>
   <text class="terminal" x="459" y="65">)</text>
   <rect x="517" y="47" width="72" height="32" rx="10"/>
   <rect x="515"
          y="45"
          width="72"
          height="32"
          class="terminal"
          rx="10"/>
   <text class="terminal" x="525" y="65">VALUES</text>
   <a xmlns:xlink="http://www.w3.org/1999/xlink"
       xlink:href="#row"
       xlink:title="row">
      <rect x="609" y="47" width="42" height="32"/>
      <rect x="607" y="45" width="42" height="32" class="nonterminal"/>
      <text class="nonterminal" x="617" y="65">row</text>
   </a>
   <path class="line"
          d="m17 61 h2 m0 0 h10 m70 0 h10 m0 0 h10 m56 0 h10 m0 0 h10 m52 0 h10 m20 0 h10 m26 0 h10 m20 0 h10 m56 0 h10 m-96 0 l20 0 m-1 0 q-9 0 -9 -10 l0 -24 q0 -10 10 -10 m76 44 l20 0 m-20 0 q10 0 10 -10 l0 -24 q0 -10 -10 -10 m-76 0 h10 m24 0 h10 m0 0 h32 m20 44 h10 m26 0 h10 m-228 0 h20 m208 0 h20 m-248 0 q10 0 10 10 m228 0 q0 -10 10 -10 m-238 10 v14 m228 0 v-14 m-228 14 q0 10 10 10 m208 0 q10 0 10 -10 m-218 10 h10 m0 0 h198 m20 -34 h10 m72 0 h10 m0 0 h10 m42 0 h10 m3 0 h-3"/>
   <polygon points="669 61 677 57 677 65"/>
   <polygon points="669 61 661 57 661 65"/>
</svg>
