<?xml version="1.0" encoding="UTF-8" standalone="no"?>
<svg
   width="641"
   height="235"
   version="1.1"
   id="svg11959"
   sodipodi:docname="Query.svg"
   inkscape:version="1.2.2 (b0a8486541, 2022-12-01)"
   xmlns:inkscape="http://www.inkscape.org/namespaces/inkscape"
   xmlns:sodipodi="http://sodipodi.sourceforge.net/DTD/sodipodi-0.dtd"
   xmlns:xlink="http://www.w3.org/1999/xlink"
   xmlns="http://www.w3.org/2000/svg"
   xmlns:svg="http://www.w3.org/2000/svg">
  <sodipodi:namedview
     id="namedview11961"
     pagecolor="#ffffff"
     bordercolor="#666666"
     borderopacity="1.0"
     inkscape:showpageshadow="2"
     inkscape:pageopacity="0.0"
     inkscape:pagecheckerboard="0"
     inkscape:deskcolor="#d1d1d1"
     showgrid="false"
     inkscape:zoom="2.0234009"
     inkscape:cx="309.62722"
     inkscape:cy="117.62375"
     inkscape:window-width="1920"
     inkscape:window-height="1011"
     inkscape:window-x="0"
     inkscape:window-y="32"
     inkscape:window-maximized="1"
     inkscape:current-layer="svg11959" />
  <defs
     id="defs11905">
    <style
       type="text/css"
       id="style11903">
    @namespace &quot;http://www.w3.org/2000/svg&quot;;
    .line                 {fill: none; stroke: #320000; stroke-width: 1;}
    .bold-line            {stroke: #FFE0E0; shape-rendering: crispEdges; stroke-width: 2;}
    .thin-line            {stroke: #1F0000; shape-rendering: crispEdges}
    .filled               {fill: #320000; stroke: none;}
    text.terminal         {font-family: HelveticaNeueCyr, Sans-serif;
                            font-size: 14px;
                            fill: #FFE0E0;
                            font-weight: bold;
                          }
    text.nonterminal      {font-family: HelveticaNeueCyr, Sans-serif;
                            font-size: 14px;
                            fill: #FFE0E0;
                            font-weight: normal;
                          }
    text.regexp           {font-family: HelveticaNeueCyr, Sans-serif;
                            font-size: 14px;
                            fill: #1F0000;
                            font-weight: normal;
                          }
    rect, circle, polygon {fill: #320000; stroke: #320000;}
    rect.terminal         {fill: #FF0000; stroke: #320000; stroke-width: 1;}
    rect.nonterminal      {fill: #FF3F3F; stroke: #320000; stroke-width: 1;}
    rect.text             {fill: none; stroke: none;}
    polygon.regexp        {fill: #FF5E5E; stroke: #320000; stroke-width: 1;}
  </style>
  </defs>
  <polygon
     points="9 51 1 47 1 55"
     id="polygon11907" />
  <polygon
     points="17 51 9 47 9 55"
     id="polygon11909" />
  <rect
     x="51"
     y="3"
     width="80"
     height="32"
     rx="10"
     id="rect11911" />
  <a
     id="a12090"
     xlink:href="#explain">
    <rect
       x="49"
       y="1"
       width="80"
       height="32"
       class="terminal"
       rx="10"
       id="rect11913" />
  </a>
  <text
     class="terminal"
     x="59"
     y="21"
     id="text11915">EXPLAIN</text>
  <rect
     x="191"
     y="37"
     width="70"
     height="32"
     rx="10"
     id="rect11917" />
  <a
     id="a12081"
     xlink:href="#select">
    <rect
       x="189"
       y="35"
       width="70"
       height="32"
       class="terminal"
       rx="10"
       id="rect11919" />
  </a>
  <text
     class="terminal"
     x="199"
     y="55"
     id="text11921">SELECT</text>
  <rect
     x="321"
     y="69"
     width="96"
     height="32"
     rx="10"
     id="rect11923" />
  <rect
     x="319"
     y="67"
     width="96"
     height="32"
     class="terminal"
     rx="10"
     id="rect11925" />
  <text
     class="terminal"
     x="329"
     y="87"
     id="text11927">UNION ALL</text>
  <rect
     x="321"
     y="113"
     width="72"
     height="32"
     rx="10"
     id="rect11929" />
  <rect
     x="319"
     y="111"
     width="72"
     height="32"
     class="terminal"
     rx="10"
     id="rect11931" />
  <text
     class="terminal"
     x="329"
     y="131"
     id="text11933">EXCEPT</text>
  <rect
     x="321"
     y="157"
     width="142"
     height="32"
     rx="10"
     id="rect11935" />
  <rect
     x="319"
     y="155"
     width="142"
     height="32"
     class="terminal"
     rx="10"
     id="rect11937" />
  <text
     class="terminal"
     x="329"
     y="175"
     id="text11939">EXCEPT DISTINCT</text>
  <rect
     x="503"
     y="69"
     width="70"
     height="32"
     rx="10"
     id="rect11941" />
  <a
     id="a12087"
     xlink:href="#select">
    <rect
       x="501"
       y="67"
       width="70"
       height="32"
       class="terminal"
       rx="10"
       id="rect11943" />
  </a>
  <text
     class="terminal"
     x="511"
     y="87"
     id="text11945">SELECT</text>
  <rect
     x="191"
     y="201"
     width="70"
     height="32"
     rx="10"
     id="rect11947" />
  <a
     id="a12084"
     xlink:href="#insert">
    <rect
       x="189"
       y="199"
       width="70"
       height="32"
       class="terminal"
       rx="10"
       id="rect11949" />
  </a>
  <text
     class="terminal"
     x="199"
     y="219"
     id="text11951">INSERT</text>
  <path
     class="line"
     d="m17 51 h2 m20 0 h10 m0 0 h90 m-120 0 l20 0 m-1 0 q-9 0 -9 -10 l0 -14 q0 -10 10 -10 m100 34 l20 0 m-20 0 q10 0 10 -10 l0 -14 q0 -10 -10 -10 m-100 0 h10 m80 0 h10 m40 34 h10 m70 0 h10 m20 0 h10 m0 0 h282 m-312 0 h20 m292 0 h20 m-332 0 q10 0 10 10 m312 0 q0 -10 10 -10 m-322 10 v12 m312 0 v-12 m-312 12 q0 10 10 10 m292 0 q10 0 10 -10 m-282 10 h10 m96 0 h10 m0 0 h46 m-182 0 h20 m162 0 h20 m-202 0 q10 0 10 10 m182 0 q0 -10 10 -10 m-192 10 v24 m182 0 v-24 m-182 24 q0 10 10 10 m162 0 q10 0 10 -10 m-172 10 h10 m72 0 h10 m0 0 h70 m-172 -10 v20 m182 0 v-20 m-182 20 v24 m182 0 v-24 m-182 24 q0 10 10 10 m162 0 q10 0 10 -10 m-172 10 h10 m142 0 h10 m20 -88 h10 m70 0 h10 m-422 -32 h20 m422 0 h20 m-462 0 q10 0 10 10 m442 0 q0 -10 10 -10 m-452 10 v144 m442 0 v-144 m-442 144 q0 10 10 10 m422 0 q10 0 10 -10 m-432 10 h10 m70 0 h10 m0 0 h332 m23 -164 h-3"
     id="path11953" />
  <polygon
     points="631 51 639 47 639 55"
     id="polygon11955" />
  <polygon
     points="631 51 623 47 623 55"
     id="polygon11957" />
</svg>
