<?xml version="1.0" encoding="UTF-8" standalone="no"?>
<svg
   width="585"
   height="247"
   version="1.1"
   id="svg90"
   sodipodi:docname="query.svg"
   inkscape:version="1.2.2 (b0a8486541, 2022-12-01)"
   xmlns:inkscape="http://www.inkscape.org/namespaces/inkscape"
   xmlns:sodipodi="http://sodipodi.sourceforge.net/DTD/sodipodi-0.dtd"
   xmlns:xlink="http://www.w3.org/1999/xlink"
   xmlns="http://www.w3.org/2000/svg"
   xmlns:svg="http://www.w3.org/2000/svg">
  <sodipodi:namedview
     id="namedview92"
     pagecolor="#ffffff"
     bordercolor="#666666"
     borderopacity="1.0"
     inkscape:showpageshadow="2"
     inkscape:pageopacity="0.0"
     inkscape:pagecheckerboard="0"
     inkscape:deskcolor="#d1d1d1"
     showgrid="false"
     inkscape:zoom="2.217094"
     inkscape:cx="292.5"
     inkscape:cy="123.5852"
     inkscape:window-width="1920"
     inkscape:window-height="1011"
     inkscape:window-x="0"
     inkscape:window-y="32"
     inkscape:window-maximized="1"
     inkscape:current-layer="svg90" />
  <defs
     id="defs4">
    <style
       type="text/css"
       id="style2">
    @namespace &quot;http://www.w3.org/2000/svg&quot;;
    .line                 {fill: none; stroke: #320000; stroke-width: 1;}
    .bold-line            {stroke: #FFE0E0; shape-rendering: crispEdges; stroke-width: 2;}
    .thin-line            {stroke: #1F0000; shape-rendering: crispEdges}
    .filled               {fill: #320000; stroke: none;}
    text.terminal         {font-family: HelveticaNeueCyr, Sans-serif;
                            font-size: 14px;
                            fill: #FFE0E0;
                            font-weight: bold;
                          }
    text.nonterminal      {font-family: HelveticaNeueCyr, Sans-serif;
                            font-size: 14px;
                            fill: #FFE0E0;
                            font-weight: normal;
                          }
    text.regexp           {font-family: HelveticaNeueCyr, Sans-serif;
                            font-size: 14px;
                            fill: #1F0000;
                            font-weight: normal;
                          }
    rect, circle, polygon {fill: #320000; stroke: #320000;}
    rect.terminal         {fill: #FF0000; stroke: #320000; stroke-width: 1;}
    rect.nonterminal      {fill: #FF3F3F; stroke: #320000; stroke-width: 1;}
    rect.text             {fill: none; stroke: none;}
    polygon.regexp        {fill: #FF5E5E; stroke: #320000; stroke-width: 1;}
  </style>
  </defs>
  <path
     id="polygon6"
     style="fill:#320000;stroke:#320000"
     d="M 9,51 1,47 v 8 z" />
  <path
     id="polygon8"
     style="fill:#320000;stroke:#320000"
     d="M 17,51 9,47 v 8 z" />
  <a
     xlink:href="#EXPLAIN"
     xlink:title="EXPLAIN"
     id="a16">
    <path
       id="rect10"
       style="fill:#320000;stroke:#320000"
       d="m 51,3 h 72 V 35 H 51 Z" />
    <path
       id="rect12"
       class="nonterminal"
       style="fill:#ff3f3f;stroke:#320000"
       d="m 49,1 h 72 V 33 H 49 Z" />
    <g
       aria-label="EXPLAIN"
       id="text14"
       class="nonterminal"
       style="font-size:14px;font-family:HelveticaNeueCyr, Sans-serif;fill:#ffe0e0">
      <path
         d="m 67.008,11.032 v 1.148 h -5.586 v 3.122 h 5.222 v 1.106 h -5.222 v 3.444 h 5.656 V 21 h -6.972 v -9.968 z"
         id="path480" />
      <path
         d="m 75.884001,11.032 -3.318,4.83 3.5,5.138 h -1.596 l -2.688,-4.102 -2.786,4.102 h -1.512 l 3.514,-5.138 -3.29,-4.83 h 1.582 l 2.506,3.836 2.59,-3.836 z"
         id="path482" />
      <path
         d="m 77.270002,11.032 h 4.102 q 1.526,0 2.422,0.7 0.896,0.686 0.896,2.17 0,3.01 -3.402,3.01 h -2.702 V 21 h -1.316 z m 1.316,1.134 v 3.64 h 2.534 q 1.064,0 1.652,-0.392 0.602,-0.406 0.602,-1.428 0,-0.574 -0.196,-0.952 -0.182,-0.378 -0.546,-0.56 -0.364,-0.182 -0.756,-0.238 -0.392,-0.07 -0.938,-0.07 z"
         id="path484" />
      <path
         d="M 92.908012,19.852 V 21 h -6.608 v -9.968 h 1.316 v 8.82 z"
         id="path486" />
      <path
         d="M 98.256008,11.032 102.14801,21 h -1.47 l -1.106002,-3.052 h -4.186 l -1.134,3.052 h -1.4 l 3.92,-9.968 z m 0.924,5.866 -1.694,-4.606 -1.722,4.606 z"
         id="path488" />
      <path
         d="M 104.51402,11.032 V 21 h -1.316 v -9.968 z"
         id="path490" />
      <path
         d="m 106.71203,11.032 h 1.442 l 5.264,8.092 v -8.092 h 1.274 V 21 h -1.484 l -5.236,-7.994 V 21 h -1.26 z"
         id="path492" />
    </g>
  </a>
  <a
     xlink:href="#SELECT"
     xlink:title="SELECT"
     id="a24">
    <path
       id="rect18"
       style="fill:#320000;stroke:#320000"
       d="m 183,37 h 66 v 32 h -66 z" />
    <path
       id="rect20"
       class="nonterminal"
       style="fill:#ff3f3f;stroke:#320000"
       d="m 181,35 h 66 v 32 h -66 z" />
    <g
       aria-label="SELECT"
       id="text22"
       class="nonterminal"
       style="font-size:14px;font-family:HelveticaNeueCyr, Sans-serif;fill:#ffe0e0">
      <path
         d="m 199.162,47.958 h -1.274 q -0.21,-2.03 -2.478,-2.03 -1.078,0 -1.666,0.434 -0.588,0.434 -0.588,1.218 0,0.28 0.084,0.49 0.084,0.21 0.28,0.378 0.21,0.154 0.392,0.266 0.182,0.112 0.574,0.224 0.392,0.112 0.63,0.168 0.238,0.042 0.742,0.154 0.616,0.126 1.022,0.238 0.406,0.098 0.966,0.336 0.56,0.238 0.882,0.532 0.336,0.28 0.574,0.756 0.252,0.476 0.252,1.078 0,1.05 -0.588,1.764 -0.588,0.7 -1.428,0.98 -0.84,0.28 -1.862,0.28 -1.876,0 -3.01,-0.882 -1.12,-0.896 -1.12,-2.632 h 1.274 q 0.042,1.274 0.854,1.862 0.812,0.574 2.114,0.574 1.022,0 1.75,-0.42 0.728,-0.434 0.728,-1.4 0,-0.448 -0.196,-0.756 -0.196,-0.322 -0.616,-0.518 -0.42,-0.21 -0.84,-0.336 -0.42,-0.126 -1.106,-0.28 -0.098,-0.014 -0.14,-0.028 -1.54,-0.35 -2.016,-0.56 -1.456,-0.63 -1.456,-2.17 0,-1.428 1.05,-2.128 1.064,-0.714 2.562,-0.714 1.638,0 2.618,0.784 0.98,0.784 1.036,2.338 z"
         id="path465" />
      <path
         d="m 208.08001,45.032 v 1.148 h -5.586 v 3.122 h 5.222 v 1.106 h -5.222 v 3.444 h 5.656 V 55 h -6.972 v -9.968 z"
         id="path467" />
      <path
         d="M 216.35401,53.852 V 55 h -6.608 v -9.968 h 1.316 v 8.82 z"
         id="path469" />
      <path
         d="m 224.41801,45.032 v 1.148 h -5.586 v 3.122 h 5.222 v 1.106 h -5.222 v 3.444 h 5.656 V 55 h -6.972 v -9.968 z"
         id="path471" />
      <path
         d="m 234.51201,51.234 q -0.168,1.89 -1.316,2.954 -1.134,1.05 -2.996,1.05 -2.128,0 -3.374,-1.4 -1.246,-1.414 -1.246,-3.808 0,-2.24 1.246,-3.724 1.26,-1.498 3.472,-1.498 1.582,0 2.786,0.854 1.204,0.854 1.344,2.366 h -1.316 q -0.224,-0.98 -0.98,-1.526 -0.756,-0.56 -1.862,-0.56 -1.666,0 -2.52,1.176 -0.84,1.176 -0.84,2.898 0,1.904 0.896,2.996 0.896,1.092 2.45,1.092 1.274,0 2.03,-0.728 0.756,-0.742 0.91,-2.142 z"
         id="path473" />
      <path
         d="m 243.09401,45.032 v 1.148 h -3.346 V 55 h -1.316 v -8.82 h -3.346 v -1.148 z"
         id="path475" />
    </g>
  </a>
  <a
     xlink:href="#SELECT"
     xlink:title="SELECT"
     id="a32">
    <path
       id="rect26"
       style="fill:#320000;stroke:#320000"
       d="m 183,81 h 66 v 32 h -66 z" />
    <path
       id="rect28"
       class="nonterminal"
       style="fill:#ff3f3f;stroke:#320000"
       d="m 181,79 h 66 v 32 h -66 z" />
    <g
       aria-label="SELECT"
       id="text30"
       class="nonterminal"
       style="font-size:14px;font-family:HelveticaNeueCyr, Sans-serif;fill:#ffe0e0">
      <path
         d="m 199.162,91.958 h -1.274 q -0.21,-2.03 -2.478,-2.03 -1.078,0 -1.666,0.434 -0.588,0.434 -0.588,1.218 0,0.28 0.084,0.49 0.084,0.21 0.28,0.378 0.21,0.154 0.392,0.266 0.182,0.112 0.574,0.224 0.392,0.112 0.63,0.168 0.238,0.042 0.742,0.154 0.616,0.126 1.022,0.238 0.406,0.098 0.966,0.336 0.56,0.238 0.882,0.532 0.336,0.28 0.574,0.756 0.252,0.476 0.252,1.078 0,1.05 -0.588,1.764 -0.588,0.7 -1.428,0.98 -0.84,0.28 -1.862,0.28 -1.876,0 -3.01,-0.882 -1.12,-0.896 -1.12,-2.632 h 1.274 q 0.042,1.274 0.854,1.862 0.812,0.574 2.114,0.574 1.022,0 1.75,-0.42 0.728,-0.434 0.728,-1.4 0,-0.448 -0.196,-0.756 -0.196,-0.322 -0.616,-0.518 -0.42,-0.21 -0.84,-0.336 -0.42,-0.126 -1.106,-0.28 -0.098,-0.014 -0.14,-0.028 -1.54,-0.35 -2.016,-0.56 -1.456,-0.63 -1.456,-2.17 0,-1.428 1.05,-2.128 1.064,-0.714 2.562,-0.714 1.638,0 2.618,0.784 0.98,0.784 1.036,2.338 z"
         id="path450" />
      <path
         d="m 208.08001,89.032 v 1.148 h -5.586 v 3.122 h 5.222 v 1.106 h -5.222 v 3.444 h 5.656 V 99 h -6.972 v -9.968 z"
         id="path452" />
      <path
         d="M 216.35401,97.852 V 99 h -6.608 v -9.968 h 1.316 v 8.82 z"
         id="path454" />
      <path
         d="m 224.41801,89.032 v 1.148 h -5.586 v 3.122 h 5.222 v 1.106 h -5.222 v 3.444 h 5.656 V 99 h -6.972 v -9.968 z"
         id="path456" />
      <path
         d="m 234.51201,95.234 q -0.168,1.89 -1.316,2.954 -1.134,1.05 -2.996,1.05 -2.128,0 -3.374,-1.4 -1.246,-1.414 -1.246,-3.808 0,-2.24 1.246,-3.724 1.26,-1.498 3.472,-1.498 1.582,0 2.786,0.854 1.204,0.854 1.344,2.366 h -1.316 q -0.224,-0.98 -0.98,-1.526 -0.756,-0.56 -1.862,-0.56 -1.666,0 -2.52,1.176 -0.84,1.176 -0.84,2.898 0,1.904 0.896,2.996 0.896,1.092 2.45,1.092 1.274,0 2.03,-0.728 0.756,-0.742 0.91,-2.142 z"
         id="path458" />
      <path
         d="m 243.09401,89.032 v 1.148 h -3.346 V 99 h -1.316 v -8.82 h -3.346 v -1.148 z"
         id="path460" />
    </g>
  </a>
  <path
     id="rect34"
     style="fill:#320000;stroke:#320000"
     d="m 279,81 h 76 c 5.54,0 10,4.46 10,10 v 12 c 0,5.54 -4.46,10 -10,10 h -76 c -5.54,0 -10,-4.46 -10,-10 V 91 c 0,-5.54 4.46,-10 10,-10 z" />
  <path
     id="rect36"
     class="terminal"
     style="fill:#ff0000;stroke:#320000"
     d="m 277,79 h 76 c 5.54,0 10,4.46 10,10 v 12 c 0,5.54 -4.46,10 -10,10 h -76 c -5.54,0 -10,-4.46 -10,-10 V 89 c 0,-5.54 4.46,-10 10,-10 z" />
  <g
     aria-label="UNION ALL"
     id="text38"
     class="terminal"
     style="font-weight:bold;font-size:14px;font-family:HelveticaNeueCyr, Sans-serif;fill:#ffe0e0">
    <path
       d="m 286.45,89.032 v 5.992 q 0,2.142 -1.036,3.164 -1.022,1.008 -3.206,1.008 -2.212,0 -3.262,-1.022 -1.036,-1.036 -1.036,-3.178 v -5.964 h 2.184 v 5.964 q 0,1.218 0.462,1.806 0.462,0.588 1.68,0.588 1.176,0 1.596,-0.588 0.434,-0.588 0.434,-1.806 v -5.964 z"
       id="path429" />
    <path
       d="m 288.33999,99 v -9.968 h 2.226 l 4.102,6.678 v -6.678 h 2.1 V 99 h -2.184 l -4.13,-6.692 V 99 Z"
       id="path431" />
    <path
       d="M 300.91198,89.032 V 99 h -2.198 v -9.968 z"
       id="path433" />
    <path
       d="m 307.35198,88.794 q 2.184,0 3.528,1.456 1.358,1.442 1.358,3.78 0,2.338 -1.358,3.78 -1.344,1.428 -3.542,1.428 -2.212,0 -3.57,-1.428 -1.358,-1.442 -1.358,-3.78 0,-2.366 1.344,-3.794 1.358,-1.442 3.598,-1.442 z m -0.028,1.792 q -1.232,0 -1.974,0.924 -0.728,0.924 -0.728,2.478 0,1.61 0.728,2.52 0.728,0.91 2.002,0.924 1.246,0 1.96,-0.924 0.714,-0.924 0.714,-2.52 0,-1.568 -0.728,-2.478 -0.728,-0.924 -1.974,-0.924 z"
       id="path435" />
    <path
       d="m 313.73598,99 v -9.968 h 2.226 l 4.102,6.678 v -6.678 h 2.1 V 99 h -2.184 l -4.13,-6.692 V 99 Z"
       id="path437" />
    <path
       d="m 332.95796,89.018 3.794,9.982 h -2.296 l -0.784,-2.226 h -3.71 l -0.812,2.226 h -2.24 l 3.794,-9.982 z m 0.182,6.16 -1.316,-3.71 -1.33,3.71 z"
       id="path439" />
    <path
       d="M 344.64796,97.124 V 99 h -7.056 v -9.968 h 2.184 v 8.092 z"
       id="path441" />
    <path
       d="M 352.94996,97.124 V 99 h -7.056 v -9.968 h 2.184 v 8.092 z"
       id="path443" />
  </g>
  <a
     xlink:href="#SELECT"
     xlink:title="SELECT"
     id="a46">
    <path
       id="rect40"
       style="fill:#320000;stroke:#320000"
       d="m 385,81 h 66 v 32 h -66 z" />
    <path
       id="rect42"
       class="nonterminal"
       style="fill:#ff3f3f;stroke:#320000"
       d="m 383,79 h 66 v 32 h -66 z" />
    <g
       aria-label="SELECT"
       id="text44"
       class="nonterminal"
       style="font-size:14px;font-family:HelveticaNeueCyr, Sans-serif;fill:#ffe0e0">
      <path
         d="m 401.162,91.958 h -1.274 q -0.21,-2.03 -2.478,-2.03 -1.078,0 -1.666,0.434 -0.588,0.434 -0.588,1.218 0,0.28 0.084,0.49 0.084,0.21 0.28,0.378 0.21,0.154 0.392,0.266 0.182,0.112 0.574,0.224 0.392,0.112 0.63,0.168 0.238,0.042 0.742,0.154 0.616,0.126 1.022,0.238 0.406,0.098 0.966,0.336 0.56,0.238 0.882,0.532 0.336,0.28 0.574,0.756 0.252,0.476 0.252,1.078 0,1.05 -0.588,1.764 -0.588,0.7 -1.428,0.98 -0.84,0.28 -1.862,0.28 -1.876,0 -3.01,-0.882 -1.12,-0.896 -1.12,-2.632 h 1.274 q 0.042,1.274 0.854,1.862 0.812,0.574 2.114,0.574 1.022,0 1.75,-0.42 0.728,-0.434 0.728,-1.4 0,-0.448 -0.196,-0.756 -0.196,-0.322 -0.616,-0.518 -0.42,-0.21 -0.84,-0.336 -0.42,-0.126 -1.106,-0.28 -0.098,-0.014 -0.14,-0.028 -1.54,-0.35 -2.016,-0.56 -1.456,-0.63 -1.456,-2.17 0,-1.428 1.05,-2.128 1.064,-0.714 2.562,-0.714 1.638,0 2.618,0.784 0.98,0.784 1.036,2.338 z"
         id="path416" />
      <path
         d="m 410.08001,89.032 v 1.148 h -5.586 v 3.122 h 5.222 v 1.106 h -5.222 v 3.444 h 5.656 V 99 h -6.972 v -9.968 z"
         id="path418" />
      <path
         d="M 418.35401,97.852 V 99 h -6.608 v -9.968 h 1.316 v 8.82 z"
         id="path420" />
      <path
         d="m 426.41801,89.032 v 1.148 h -5.586 v 3.122 h 5.222 v 1.106 h -5.222 v 3.444 h 5.656 V 99 h -6.972 v -9.968 z"
         id="path422" />
      <path
         d="m 436.51201,95.234 q -0.168,1.89 -1.316,2.954 -1.134,1.05 -2.996,1.05 -2.128,0 -3.374,-1.4 -1.246,-1.414 -1.246,-3.808 0,-2.24 1.246,-3.724 1.26,-1.498 3.472,-1.498 1.582,0 2.786,0.854 1.204,0.854 1.344,2.366 h -1.316 q -0.224,-0.98 -0.98,-1.526 -0.756,-0.56 -1.862,-0.56 -1.666,0 -2.52,1.176 -0.84,1.176 -0.84,2.898 0,1.904 0.896,2.996 0.896,1.092 2.45,1.092 1.274,0 2.03,-0.728 0.756,-0.742 0.91,-2.142 z"
         id="path424" />
      <path
         d="m 445.09401,89.032 v 1.148 h -3.346 V 99 h -1.316 v -8.82 h -3.346 v -1.148 z"
         id="path426" />
    </g>
  </a>
  <a
     xlink:href="#SELECT"
     xlink:title="SELECT"
     id="a54">
    <path
       id="rect48"
       style="fill:#320000;stroke:#320000"
       d="m 183,125 h 66 v 32 h -66 z" />
    <path
       id="rect50"
       class="nonterminal"
       style="fill:#ff3f3f;stroke:#320000"
       d="m 181,123 h 66 v 32 h -66 z" />
    <g
       aria-label="SELECT"
       id="text52"
       class="nonterminal"
       style="font-size:14px;font-family:HelveticaNeueCyr, Sans-serif;fill:#ffe0e0">
      <path
         d="m 199.162,135.958 h -1.274 q -0.21,-2.03 -2.478,-2.03 -1.078,0 -1.666,0.434 -0.588,0.434 -0.588,1.218 0,0.28 0.084,0.49 0.084,0.21 0.28,0.378 0.21,0.154 0.392,0.266 0.182,0.112 0.574,0.224 0.392,0.112 0.63,0.168 0.238,0.042 0.742,0.154 0.616,0.126 1.022,0.238 0.406,0.098 0.966,0.336 0.56,0.238 0.882,0.532 0.336,0.28 0.574,0.756 0.252,0.476 0.252,1.078 0,1.05 -0.588,1.764 -0.588,0.7 -1.428,0.98 -0.84,0.28 -1.862,0.28 -1.876,0 -3.01,-0.882 -1.12,-0.896 -1.12,-2.632 h 1.274 q 0.042,1.274 0.854,1.862 0.812,0.574 2.114,0.574 1.022,0 1.75,-0.42 0.728,-0.434 0.728,-1.4 0,-0.448 -0.196,-0.756 -0.196,-0.322 -0.616,-0.518 -0.42,-0.21 -0.84,-0.336 -0.42,-0.126 -1.106,-0.28 -0.098,-0.014 -0.14,-0.028 -1.54,-0.35 -2.016,-0.56 -1.456,-0.63 -1.456,-2.17 0,-1.428 1.05,-2.128 1.064,-0.714 2.562,-0.714 1.638,0 2.618,0.784 0.98,0.784 1.036,2.338 z"
         id="path401" />
      <path
         d="m 208.08001,133.032 v 1.148 h -5.586 v 3.122 h 5.222 v 1.106 h -5.222 v 3.444 h 5.656 V 143 h -6.972 v -9.968 z"
         id="path403" />
      <path
         d="M 216.35401,141.852 V 143 h -6.608 v -9.968 h 1.316 v 8.82 z"
         id="path405" />
      <path
         d="m 224.41801,133.032 v 1.148 h -5.586 v 3.122 h 5.222 v 1.106 h -5.222 v 3.444 h 5.656 V 143 h -6.972 v -9.968 z"
         id="path407" />
      <path
         d="m 234.51201,139.234 q -0.168,1.89 -1.316,2.954 -1.134,1.05 -2.996,1.05 -2.128,0 -3.374,-1.4 -1.246,-1.414 -1.246,-3.808 0,-2.24 1.246,-3.724 1.26,-1.498 3.472,-1.498 1.582,0 2.786,0.854 1.204,0.854 1.344,2.366 h -1.316 q -0.224,-0.98 -0.98,-1.526 -0.756,-0.56 -1.862,-0.56 -1.666,0 -2.52,1.176 -0.84,1.176 -0.84,2.898 0,1.904 0.896,2.996 0.896,1.092 2.45,1.092 1.274,0 2.03,-0.728 0.756,-0.742 0.91,-2.142 z"
         id="path409" />
      <path
         d="m 243.09401,133.032 v 1.148 h -3.346 V 143 h -1.316 v -8.82 h -3.346 v -1.148 z"
         id="path411" />
    </g>
  </a>
  <path
     id="rect56"
     style="fill:#320000;stroke:#320000"
     d="m 299,125 h 52 c 5.54,0 10,4.46 10,10 v 12 c 0,5.54 -4.46,10 -10,10 h -52 c -5.54,0 -10,-4.46 -10,-10 v -12 c 0,-5.54 4.46,-10 10,-10 z" />
  <path
     id="rect58"
     class="terminal"
     style="fill:#ff0000;stroke:#320000"
     d="m 297,123 h 52 c 5.54,0 10,4.46 10,10 v 12 c 0,5.54 -4.46,10 -10,10 h -52 c -5.54,0 -10,-4.46 -10,-10 v -12 c 0,-5.54 4.46,-10 10,-10 z" />
  <g
     aria-label="EXCEPT"
     id="text60"
     class="terminal"
     style="font-weight:bold;font-size:14px;font-family:HelveticaNeueCyr, Sans-serif;fill:#ffe0e0">
    <path
       d="m 305.442,133.032 v 1.792 h -5.306 v 2.17 h 4.872 v 1.722 h -4.872 v 2.45 h 5.404 V 143 h -7.574 v -9.968 z"
       id="path384" />
    <path
       d="m 315.18601,133.032 -3.206,4.76 3.5,5.208 h -2.618 l -2.184,-3.458 -2.212,3.458 h -2.492 l 3.514,-5.208 -3.248,-4.76 h 2.548 l 1.988,3.206 2.002,-3.206 z"
       id="path386" />
    <path
       d="m 325.28001,139.15 q -0.168,1.876 -1.316,2.982 -1.148,1.106 -3.15,1.106 -2.17,0 -3.5,-1.428 -1.316,-1.442 -1.316,-3.808 0,-2.24 1.33,-3.724 1.344,-1.484 3.57,-1.484 1.778,0 2.982,1.008 1.204,1.008 1.33,2.562 h -2.142 q -0.168,-0.826 -0.756,-1.274 -0.574,-0.462 -1.456,-0.462 -0.91,0 -1.54,0.518 -0.616,0.504 -0.868,1.246 -0.252,0.742 -0.252,1.624 0,1.54 0.714,2.464 0.714,0.91 1.918,0.91 2.002,0 2.282,-2.24 z"
       id="path388" />
    <path
       d="m 334.226,133.032 v 1.792 h -5.306 v 2.17 h 4.872 v 1.722 h -4.872 v 2.45 h 5.404 V 143 h -7.574 v -9.968 z"
       id="path390" />
    <path
       d="m 335.83601,133.032 h 4.298 q 1.68,0 2.66,0.812 0.994,0.798 0.994,2.394 0,1.568 -0.98,2.38 -0.98,0.798 -2.562,0.798 h -2.24 V 143 h -2.17 z m 2.17,1.792 v 2.87 h 1.946 q 1.708,0 1.708,-1.428 0,-1.442 -1.694,-1.442 z"
       id="path392" />
    <path
       d="m 352.566,133.032 v 1.862 H 349.57 V 143 h -2.198 v -8.106 h -2.996 v -1.862 z"
       id="path394" />
  </g>
  <path
     id="rect62"
     style="fill:#320000;stroke:#320000"
     d="m 299,169 h 122 c 5.54,0 10,4.46 10,10 v 12 c 0,5.54 -4.46,10 -10,10 H 299 c -5.54,0 -10,-4.46 -10,-10 v -12 c 0,-5.54 4.46,-10 10,-10 z" />
  <path
     id="rect64"
     class="terminal"
     style="fill:#ff0000;stroke:#320000"
     d="m 297,167 h 122 c 5.54,0 10,4.46 10,10 v 12 c 0,5.54 -4.46,10 -10,10 H 297 c -5.54,0 -10,-4.46 -10,-10 v -12 c 0,-5.54 4.46,-10 10,-10 z" />
  <g
     aria-label="EXCEPT DISTINCT"
     id="text66"
     class="terminal"
     style="font-weight:bold;font-size:14px;font-family:HelveticaNeueCyr, Sans-serif;fill:#ffe0e0">
    <path
       d="m 305.442,177.032 v 1.792 h -5.306 v 2.17 h 4.872 v 1.722 h -4.872 v 2.45 h 5.404 V 187 h -7.574 v -9.968 z"
       id="path353" />
    <path
       d="m 315.18601,177.032 -3.206,4.76 3.5,5.208 h -2.618 l -2.184,-3.458 -2.212,3.458 h -2.492 l 3.514,-5.208 -3.248,-4.76 h 2.548 l 1.988,3.206 2.002,-3.206 z"
       id="path355" />
    <path
       d="m 325.28001,183.15 q -0.168,1.876 -1.316,2.982 -1.148,1.106 -3.15,1.106 -2.17,0 -3.5,-1.428 -1.316,-1.442 -1.316,-3.808 0,-2.24 1.33,-3.724 1.344,-1.484 3.57,-1.484 1.778,0 2.982,1.008 1.204,1.008 1.33,2.562 h -2.142 q -0.168,-0.826 -0.756,-1.274 -0.574,-0.462 -1.456,-0.462 -0.91,0 -1.54,0.518 -0.616,0.504 -0.868,1.246 -0.252,0.742 -0.252,1.624 0,1.54 0.714,2.464 0.714,0.91 1.918,0.91 2.002,0 2.282,-2.24 z"
       id="path357" />
    <path
       d="m 334.226,177.032 v 1.792 h -5.306 v 2.17 h 4.872 v 1.722 h -4.872 v 2.45 h 5.404 V 187 h -7.574 v -9.968 z"
       id="path359" />
    <path
       d="m 335.83601,177.032 h 4.298 q 1.68,0 2.66,0.812 0.994,0.798 0.994,2.394 0,1.568 -0.98,2.38 -0.98,0.798 -2.562,0.798 h -2.24 V 187 h -2.17 z m 2.17,1.792 v 2.87 h 1.946 q 1.708,0 1.708,-1.428 0,-1.442 -1.694,-1.442 z"
       id="path361" />
    <path
       d="m 352.566,177.032 v 1.862 H 349.57 V 187 h -2.198 v -8.106 h -2.996 v -1.862 z"
       id="path363" />
    <path
       d="m 357.62,187 v -9.968 h 4.032 q 2.324,0 3.57,1.288 1.26,1.288 1.26,3.696 0,2.408 -1.26,3.696 -1.246,1.288 -3.57,1.288 z m 2.17,-1.82 h 1.596 q 2.898,0 2.898,-3.164 0,-1.526 -0.728,-2.338 -0.714,-0.826 -2.17,-0.826 h -1.596 z"
       id="path365" />
    <path
       d="M 370.17799,177.032 V 187 h -2.198 v -9.968 z"
       id="path367" />
    <path
       d="m 379.488,180 h -2.072 q -0.126,-1.484 -1.89,-1.484 -0.756,0 -1.19,0.308 -0.42,0.294 -0.42,0.826 0,0.182 0.056,0.322 0.056,0.14 0.21,0.266 0.154,0.112 0.308,0.196 0.154,0.07 0.448,0.168 0.308,0.084 0.546,0.154 0.252,0.07 0.7,0.182 0.448,0.112 0.784,0.21 1.47,0.42 2.184,1.05 0.728,0.63 0.728,1.806 0,0.854 -0.35,1.498 -0.35,0.63 -0.952,1.008 -0.588,0.364 -1.302,0.532 -0.7,0.182 -1.498,0.182 -2.03,0 -3.178,-0.924 -1.134,-0.938 -1.148,-2.632 h 2.17 q 0.056,1.876 2.254,1.876 0.854,0 1.344,-0.35 0.504,-0.364 0.504,-0.98 0,-0.518 -0.462,-0.756 -0.448,-0.238 -1.904,-0.658 -0.238,-0.056 -0.364,-0.098 -0.504,-0.14 -0.7,-0.196 -0.196,-0.07 -0.63,-0.224 -0.42,-0.154 -0.616,-0.28 -0.196,-0.126 -0.49,-0.35 -0.28,-0.224 -0.406,-0.462 -0.126,-0.252 -0.238,-0.602 -0.098,-0.364 -0.098,-0.784 0,-1.358 1.05,-2.17 1.05,-0.812 2.786,-0.812 1.68,0 2.744,0.798 1.064,0.784 1.092,2.38 z"
       id="path369" />
    <path
       d="m 388.602,177.032 v 1.862 h -2.996 V 187 h -2.198 v -8.106 h -2.996 v -1.862 z"
       id="path371" />
    <path
       d="M 391.948,177.032 V 187 h -2.198 v -9.968 z"
       id="path373" />
    <path
       d="m 393.88,187 v -9.968 h 2.226 l 4.102,6.678 v -6.678 h 2.1 V 187 h -2.184 l -4.13,-6.692 V 187 Z"
       id="path375" />
    <path
       d="m 413.15799,183.15 q -0.168,1.876 -1.316,2.982 -1.148,1.106 -3.15,1.106 -2.17,0 -3.5,-1.428 -1.316,-1.442 -1.316,-3.808 0,-2.24 1.33,-3.724 1.344,-1.484 3.57,-1.484 1.778,0 2.982,1.008 1.204,1.008 1.33,2.562 h -2.142 q -0.168,-0.826 -0.756,-1.274 -0.574,-0.462 -1.456,-0.462 -0.91,0 -1.54,0.518 -0.616,0.504 -0.868,1.246 -0.252,0.742 -0.252,1.624 0,1.54 0.714,2.464 0.714,0.91 1.918,0.91 2.002,0 2.282,-2.24 z"
       id="path377" />
    <path
       d="m 422.03397,177.032 v 1.862 h -2.996 V 187 h -2.198 v -8.106 h -2.996 v -1.862 z"
       id="path379" />
  </g>
  <a
     xlink:href="#SELECT"
     xlink:title="SELECT"
     id="a74">
    <path
       id="rect68"
       style="fill:#320000;stroke:#320000"
       d="m 471,125 h 66 v 32 h -66 z" />
    <path
       id="rect70"
       class="nonterminal"
       style="fill:#ff3f3f;stroke:#320000"
       d="m 469,123 h 66 v 32 h -66 z" />
    <g
       aria-label="SELECT"
       id="text72"
       class="nonterminal"
       style="font-size:14px;font-family:HelveticaNeueCyr, Sans-serif;fill:#ffe0e0">
      <path
         d="m 487.162,135.958 h -1.274 q -0.21,-2.03 -2.478,-2.03 -1.078,0 -1.666,0.434 -0.588,0.434 -0.588,1.218 0,0.28 0.084,0.49 0.084,0.21 0.28,0.378 0.21,0.154 0.392,0.266 0.182,0.112 0.574,0.224 0.392,0.112 0.63,0.168 0.238,0.042 0.742,0.154 0.616,0.126 1.022,0.238 0.406,0.098 0.966,0.336 0.56,0.238 0.882,0.532 0.336,0.28 0.574,0.756 0.252,0.476 0.252,1.078 0,1.05 -0.588,1.764 -0.588,0.7 -1.428,0.98 -0.84,0.28 -1.862,0.28 -1.876,0 -3.01,-0.882 -1.12,-0.896 -1.12,-2.632 h 1.274 q 0.042,1.274 0.854,1.862 0.812,0.574 2.114,0.574 1.022,0 1.75,-0.42 0.728,-0.434 0.728,-1.4 0,-0.448 -0.196,-0.756 -0.196,-0.322 -0.616,-0.518 -0.42,-0.21 -0.84,-0.336 -0.42,-0.126 -1.106,-0.28 -0.098,-0.014 -0.14,-0.028 -1.54,-0.35 -2.016,-0.56 -1.456,-0.63 -1.456,-2.17 0,-1.428 1.05,-2.128 1.064,-0.714 2.562,-0.714 1.638,0 2.618,0.784 0.98,0.784 1.036,2.338 z"
         id="path340" />
      <path
         d="m 496.08001,133.032 v 1.148 h -5.586 v 3.122 h 5.222 v 1.106 h -5.222 v 3.444 h 5.656 V 143 h -6.972 v -9.968 z"
         id="path342" />
      <path
         d="M 504.35401,141.852 V 143 h -6.608 v -9.968 h 1.316 v 8.82 z"
         id="path344" />
      <path
         d="m 512.41801,133.032 v 1.148 h -5.586 v 3.122 h 5.222 v 1.106 h -5.222 v 3.444 h 5.656 V 143 h -6.972 v -9.968 z"
         id="path346" />
      <path
         d="m 522.51201,139.234 q -0.168,1.89 -1.316,2.954 -1.134,1.05 -2.996,1.05 -2.128,0 -3.374,-1.4 -1.246,-1.414 -1.246,-3.808 0,-2.24 1.246,-3.724 1.26,-1.498 3.472,-1.498 1.582,0 2.786,0.854 1.204,0.854 1.344,2.366 h -1.316 q -0.224,-0.98 -0.98,-1.526 -0.756,-0.56 -1.862,-0.56 -1.666,0 -2.52,1.176 -0.84,1.176 -0.84,2.898 0,1.904 0.896,2.996 0.896,1.092 2.45,1.092 1.274,0 2.03,-0.728 0.756,-0.742 0.91,-2.142 z"
         id="path348" />
      <path
         d="m 531.09401,133.032 v 1.148 h -3.346 V 143 h -1.316 v -8.82 h -3.346 v -1.148 z"
         id="path350" />
    </g>
  </a>
  <a
     xlink:href="#INSERT"
     xlink:title="INSERT"
     id="a82">
    <path
       id="rect76"
       style="fill:#320000;stroke:#320000"
       d="m 183,213 h 64 v 32 h -64 z" />
    <path
       id="rect78"
       class="nonterminal"
       style="fill:#ff3f3f;stroke:#320000"
       d="m 181,211 h 64 v 32 h -64 z" />
    <g
       aria-label="INSERT"
       id="text80"
       class="nonterminal"
       style="font-size:14px;font-family:HelveticaNeueCyr, Sans-serif;fill:#ffe0e0">
      <path
         d="M 193.478,221.032 V 231 h -1.316 v -9.968 z"
         id="path325" />
      <path
         d="m 195.67601,221.032 h 1.442 l 5.264,8.092 v -8.092 h 1.274 V 231 h -1.484 l -5.236,-7.994 V 231 h -1.26 z"
         id="path327" />
      <path
         d="m 212.89601,223.958 h -1.274 q -0.21,-2.03 -2.478,-2.03 -1.078,0 -1.666,0.434 -0.588,0.434 -0.588,1.218 0,0.28 0.084,0.49 0.084,0.21 0.28,0.378 0.21,0.154 0.392,0.266 0.182,0.112 0.574,0.224 0.392,0.112 0.63,0.168 0.238,0.042 0.742,0.154 0.616,0.126 1.022,0.238 0.406,0.098 0.966,0.336 0.56,0.238 0.882,0.532 0.336,0.28 0.574,0.756 0.252,0.476 0.252,1.078 0,1.05 -0.588,1.764 -0.588,0.7 -1.428,0.98 -0.84,0.28 -1.862,0.28 -1.876,0 -3.01,-0.882 -1.12,-0.896 -1.12,-2.632 h 1.274 q 0.042,1.274 0.854,1.862 0.812,0.574 2.114,0.574 1.022,0 1.75,-0.42 0.728,-0.434 0.728,-1.4 0,-0.448 -0.196,-0.756 -0.196,-0.322 -0.616,-0.518 -0.42,-0.21 -0.84,-0.336 -0.42,-0.126 -1.106,-0.28 -0.098,-0.014 -0.14,-0.028 -1.54,-0.35 -2.016,-0.56 -1.456,-0.63 -1.456,-2.17 0,-1.428 1.05,-2.128 1.064,-0.714 2.562,-0.714 1.638,0 2.618,0.784 0.98,0.784 1.036,2.338 z"
         id="path329" />
      <path
         d="m 221.81402,221.032 v 1.148 h -5.586 v 3.122 h 5.222 v 1.106 h -5.222 v 3.444 h 5.656 V 231 h -6.972 v -9.968 z"
         id="path331" />
      <path
         d="m 223.46602,221.032 h 4.382 q 3.346,0 3.346,2.758 0,0.868 -0.476,1.54 -0.462,0.658 -1.232,0.882 0.504,0.112 0.812,0.322 0.308,0.21 0.448,0.588 0.14,0.378 0.182,0.672 0.042,0.294 0.07,0.868 0,0.056 0.014,0.28 0.014,0.21 0.014,0.294 0,0.07 0.014,0.266 0.028,0.196 0.042,0.294 0.014,0.098 0.042,0.266 0.028,0.168 0.07,0.28 0.042,0.098 0.098,0.238 0.056,0.126 0.126,0.238 0.07,0.098 0.154,0.182 h -1.512 q -0.098,-0.14 -0.168,-0.35 -0.056,-0.21 -0.084,-0.49 -0.028,-0.294 -0.042,-0.462 -0.014,-0.182 -0.028,-0.518 -0.014,-0.336 -0.014,-0.378 -0.07,-1.274 -0.532,-1.694 -0.448,-0.42 -1.792,-0.42 h -2.618 V 231 h -1.316 z m 1.316,1.12 v 3.486 h 2.478 q 0.462,0 0.77,-0.028 0.322,-0.028 0.7,-0.126 0.378,-0.098 0.602,-0.28 0.238,-0.182 0.392,-0.518 0.154,-0.336 0.154,-0.812 0,-1.008 -0.616,-1.358 -0.602,-0.364 -1.652,-0.364 z"
         id="path333" />
      <path
         d="m 239.72002,221.032 v 1.148 h -3.346 V 231 h -1.316 v -8.82 h -3.346 v -1.148 z"
         id="path335" />
    </g>
  </a>
  <path
     class="line"
     d="m17 51 h2 m20 0 h10 m0 0 h82 m-112 0 l20 0 m-1 0 q-9 0 -9 -10 l0 -14 q0 -10 10 -10 m92 34 l20 0 m-20 0 q10 0 10 -10 l0 -14 q0 -10 -10 -10 m-92 0 h10 m72 0 h10 m40 34 h10 m66 0 h10 m0 0 h288 m-394 0 h20 m374 0 h20 m-414 0 q10 0 10 10 m394 0 q0 -10 10 -10 m-404 10 v24 m394 0 v-24 m-394 24 q0 10 10 10 m374 0 q10 0 10 -10 m-384 10 h10 m66 0 h10 m0 0 h10 m96 0 h10 m0 0 h10 m66 0 h10 m0 0 h86 m-384 -10 v20 m394 0 v-20 m-394 20 v24 m394 0 v-24 m-394 24 q0 10 10 10 m374 0 q10 0 10 -10 m-384 10 h10 m66 0 h10 m20 0 h10 m72 0 h10 m0 0 h70 m-182 0 h20 m162 0 h20 m-202 0 q10 0 10 10 m182 0 q0 -10 10 -10 m-192 10 v24 m182 0 v-24 m-182 24 q0 10 10 10 m162 0 q10 0 10 -10 m-172 10 h10 m142 0 h10 m20 -44 h10 m66 0 h10 m-384 -10 v20 m394 0 v-20 m-394 20 v68 m394 0 v-68 m-394 68 q0 10 10 10 m374 0 q10 0 10 -10 m-384 10 h10 m64 0 h10 m0 0 h290 m23 -176 h-3"
     id="path84" />
  <path
     id="polygon86"
     style="fill:#320000;stroke:#320000"
     d="m 575,51 8,-4 v 8 z" />
  <path
     id="polygon88"
     style="fill:#320000;stroke:#320000"
     d="m 575,51 -8,-4 v 8 z" />
</svg>
