<?xml version="1.0" encoding="UTF-8"?>
<svg xmlns="http://www.w3.org/2000/svg" width="641" height="235">
   <defs>
      <style type="text/css">
    @namespace "http://www.w3.org/2000/svg";
    .line                 {fill: none; stroke: #320000; stroke-width: 1;}
    .bold-line            {stroke: #FFE0E0; shape-rendering: crispEdges; stroke-width: 2;}
    .thin-line            {stroke: #1F0000; shape-rendering: crispEdges}
    .filled               {fill: #320000; stroke: none;}
    text.terminal         {font-family: HelveticaNeueCyr, Sans-serif;
                            font-size: 14px;
                            fill: #FFE0E0;
                            font-weight: bold;
                          }
    text.nonterminal      {font-family: HelveticaNeueCyr, Sans-serif;
                            font-size: 14px;
                            fill: #FFE0E0;
                            font-weight: normal;
                          }
    text.regexp           {font-family: HelveticaNeueCyr, Sans-serif;
                            font-size: 14px;
                            fill: #1F0000;
                            font-weight: normal;
                          }
    rect, circle, polygon {fill: #320000; stroke: #320000;}
    rect.terminal         {fill: #FF0000; stroke: #320000; stroke-width: 1;}
    rect.nonterminal      {fill: #FF3F3F; stroke: #320000; stroke-width: 1;}
    rect.text             {fill: none; stroke: none;}
    polygon.regexp        {fill: #FF5E5E; stroke: #320000; stroke-width: 1;}
  </style>
   </defs>
   <polygon points="9 51 1 47 1 55"/>
   <polygon points="17 51 9 47 9 55"/>
   <rect x="51" y="3" width="80" height="32" rx="10"/>
   <rect x="49"
          y="1"
          width="80"
          height="32"
          class="terminal"
          rx="10"/>
   <text class="terminal" x="59" y="21">EXPLAIN</text>
   <rect x="191" y="37" width="70" height="32" rx="10"/>
   <rect x="189"
          y="35"
          width="70"
          height="32"
          class="terminal"
          rx="10"/>
   <text class="terminal" x="199" y="55">SELECT</text>
   <rect x="321" y="69" width="96" height="32" rx="10"/>
   <rect x="319"
          y="67"
          width="96"
          height="32"
          class="terminal"
          rx="10"/>
   <text class="terminal" x="329" y="87">UNION ALL</text>
   <rect x="321" y="113" width="72" height="32" rx="10"/>
   <rect x="319"
          y="111"
          width="72"
          height="32"
          class="terminal"
          rx="10"/>
   <text class="terminal" x="329" y="131">EXCEPT</text>
   <rect x="321" y="157" width="142" height="32" rx="10"/>
   <rect x="319"
          y="155"
          width="142"
          height="32"
          class="terminal"
          rx="10"/>
   <text class="terminal" x="329" y="175">EXCEPT DISTINCT</text>
   <rect x="503" y="69" width="70" height="32" rx="10"/>
   <rect x="501"
          y="67"
          width="70"
          height="32"
          class="terminal"
          rx="10"/>
   <text class="terminal" x="511" y="87">SELECT</text>
   <rect x="191" y="201" width="70" height="32" rx="10"/>
   <rect x="189"
          y="199"
          width="70"
          height="32"
          class="terminal"
          rx="10"/>
   <text class="terminal" x="199" y="219">INSERT</text>
   <path class="line"
          d="m17 51 h2 m20 0 h10 m0 0 h90 m-120 0 l20 0 m-1 0 q-9 0 -9 -10 l0 -14 q0 -10 10 -10 m100 34 l20 0 m-20 0 q10 0 10 -10 l0 -14 q0 -10 -10 -10 m-100 0 h10 m80 0 h10 m40 34 h10 m70 0 h10 m20 0 h10 m0 0 h282 m-312 0 h20 m292 0 h20 m-332 0 q10 0 10 10 m312 0 q0 -10 10 -10 m-322 10 v12 m312 0 v-12 m-312 12 q0 10 10 10 m292 0 q10 0 10 -10 m-282 10 h10 m96 0 h10 m0 0 h46 m-182 0 h20 m162 0 h20 m-202 0 q10 0 10 10 m182 0 q0 -10 10 -10 m-192 10 v24 m182 0 v-24 m-182 24 q0 10 10 10 m162 0 q10 0 10 -10 m-172 10 h10 m72 0 h10 m0 0 h70 m-172 -10 v20 m182 0 v-20 m-182 20 v24 m182 0 v-24 m-182 24 q0 10 10 10 m162 0 q10 0 10 -10 m-172 10 h10 m142 0 h10 m20 -88 h10 m70 0 h10 m-422 -32 h20 m422 0 h20 m-462 0 q10 0 10 10 m442 0 q0 -10 10 -10 m-452 10 v144 m442 0 v-144 m-442 144 q0 10 10 10 m422 0 q10 0 10 -10 m-432 10 h10 m70 0 h10 m0 0 h332 m23 -164 h-3"/>
   <polygon points="631 51 639 47 639 55"/>
   <polygon points="631 51 623 47 623 55"/>
</svg>
