<?xml version="1.0" encoding="UTF-8" standalone="no"?>
<svg
   width="493"
   height="201"
   version="1.1"
   id="svg1488"
   sodipodi:docname="query.svg"
   inkscape:version="1.2.2 (b0a8486541, 2022-12-01)"
   xmlns:inkscape="http://www.inkscape.org/namespaces/inkscape"
   xmlns:sodipodi="http://sodipodi.sourceforge.net/DTD/sodipodi-0.dtd"
   xmlns:xlink="http://www.w3.org/1999/xlink"
   xmlns="http://www.w3.org/2000/svg"
   xmlns:svg="http://www.w3.org/2000/svg">
  <sodipodi:namedview
     id="namedview1490"
     pagecolor="#ffffff"
     bordercolor="#666666"
     borderopacity="1.0"
     inkscape:showpageshadow="2"
     inkscape:pageopacity="0.0"
     inkscape:pagecheckerboard="0"
     inkscape:deskcolor="#d1d1d1"
     showgrid="false"
     inkscape:zoom="2.6308316"
     inkscape:cx="246.88011"
     inkscape:cy="100.3485"
     inkscape:window-width="1920"
     inkscape:window-height="1011"
     inkscape:window-x="0"
     inkscape:window-y="32"
     inkscape:window-maximized="1"
     inkscape:current-layer="a1472" />
  <defs
     id="defs1434">
    <style
       type="text/css"
       id="style1432">
    @namespace &quot;http://www.w3.org/2000/svg&quot;;
    .line                 {fill: none; stroke: #320000; stroke-width: 1;}
    .bold-line            {stroke: #FFE0E0; shape-rendering: crispEdges; stroke-width: 2;}
    .thin-line            {stroke: #1F0000; shape-rendering: crispEdges}
    .filled               {fill: #320000; stroke: none;}
    text.terminal         {font-family: HelveticaNeueCyr, Sans-serif;
                            font-size: 14px;
                            fill: #FFE0E0;
                            font-weight: bold;
                          }
    text.nonterminal      {font-family: HelveticaNeueCyr, Sans-serif;
                            font-size: 14px;
                            fill: #FFE0E0;
                            font-weight: normal;
                          }
    text.regexp           {font-family: HelveticaNeueCyr, Sans-serif;
                            font-size: 14px;
                            fill: #1F0000;
                            font-weight: normal;
                          }
    rect, circle, polygon {fill: #320000; stroke: #320000;}
    rect.terminal         {fill: #FF0000; stroke: #320000; stroke-width: 1;}
    rect.nonterminal      {fill: #FF3F3F; stroke: #320000; stroke-width: 1;}
    rect.text             {fill: none; stroke: none;}
    polygon.regexp        {fill: #FF5E5E; stroke: #320000; stroke-width: 1;}
  </style>
  </defs>
  <path
     id="polygon1436"
     style="fill:#320000;stroke:#320000"
     d="M 9,17 1,13 v 8 z" />
  <path
     id="polygon1438"
     style="fill:#320000;stroke:#320000"
     d="M 17,17 9,13 v 8 z" />
  <a
     xlink:href="#SELECT"
     xlink:title="SELECT"
     id="a1446">
    <path
       id="rect1440"
       style="fill:#320000;stroke:#320000"
       d="m 51,3 h 66 V 35 H 51 Z" />
    <path
       id="rect1442"
       class="nonterminal"
       style="fill:#ff3f3f;stroke:#320000"
       d="m 49,1 h 66 V 33 H 49 Z" />
    <g
       aria-label="SELECT"
       id="text1444"
       class="nonterminal"
       style="font-size:14px;font-family:HelveticaNeueCyr, Sans-serif;fill:#ffe0e0"
       transform="translate(-2)">
      <path
         d="m 67.162,13.958 h -1.274 q -0.21,-2.03 -2.478,-2.03 -1.078,0 -1.666,0.434 -0.588,0.434 -0.588,1.218 0,0.28 0.084,0.49 0.084,0.21 0.28,0.378 0.21,0.154 0.392,0.266 0.182,0.112 0.574,0.224 0.392,0.112 0.63,0.168 0.238,0.042 0.742,0.154 0.616,0.126 1.022,0.238 0.406,0.098 0.966,0.336 0.56,0.238 0.882,0.532 0.336,0.28 0.574,0.756 0.252,0.476 0.252,1.078 0,1.05 -0.588,1.764 -0.588,0.7 -1.428,0.98 -0.84,0.28 -1.862,0.28 -1.876,0 -3.01,-0.882 -1.12,-0.896 -1.12,-2.632 h 1.274 q 0.042,1.274 0.854,1.862 0.812,0.574 2.114,0.574 1.022,0 1.75,-0.42 0.728,-0.434 0.728,-1.4 0,-0.448 -0.196,-0.756 -0.196,-0.322 -0.616,-0.518 -0.42,-0.21 -0.84,-0.336 -0.42,-0.126 -1.106,-0.28 -0.098,-0.014 -0.14,-0.028 -1.54,-0.35 -2.016,-0.56 -1.456,-0.63 -1.456,-2.17 0,-1.428 1.05,-2.128 1.064,-0.714 2.562,-0.714 1.638,0 2.618,0.784 0.98,0.784 1.036,2.338 z"
         id="path4089" />
      <path
         d="m 76.08001,11.032 v 1.148 h -5.586 v 3.122 h 5.222 v 1.106 h -5.222 v 3.444 h 5.656 V 21 h -6.972 v -9.968 z"
         id="path4091" />
      <path
         d="M 84.354011,19.852 V 21 h -6.608 v -9.968 h 1.316 v 8.82 z"
         id="path4093" />
      <path
         d="m 92.418007,11.032 v 1.148 h -5.586 v 3.122 h 5.222 v 1.106 h -5.222 v 3.444 h 5.656 V 21 h -6.972 v -9.968 z"
         id="path4095" />
      <path
         d="m 102.51201,17.234 q -0.168,1.89 -1.316,2.954 -1.134,1.05 -2.996002,1.05 -2.128,0 -3.374,-1.4 -1.246,-1.414 -1.246,-3.808 0,-2.24 1.246,-3.724 1.26,-1.498 3.472,-1.498 1.582,0 2.786002,0.854 1.204,0.854 1.344,2.366 h -1.316 q -0.224,-0.98 -0.98,-1.526 -0.756002,-0.56 -1.862002,-0.56 -1.666,0 -2.52,1.176 -0.84,1.176 -0.84,2.898 0,1.904 0.896,2.996 0.896,1.092 2.45,1.092 1.274,0 2.030002,-0.728 0.756,-0.742 0.91,-2.142 z"
         id="path4097" />
      <path
         d="m 111.09401,11.032 v 1.148 h -3.346 V 21 h -1.316 v -8.82 h -3.346 v -1.148 z"
         id="path4099" />
    </g>
  </a>
  <path
     id="rect1448"
     style="fill:#320000;stroke:#320000"
     d="m 187,35 h 76 c 5.54,0 10,4.46 10,10 v 12 c 0,5.54 -4.46,10 -10,10 h -76 c -5.54,0 -10,-4.46 -10,-10 V 45 c 0,-5.54 4.46,-10 10,-10 z" />
  <path
     id="rect1450"
     class="terminal"
     style="fill:#ff0000;stroke:#320000"
     d="m 185,33 h 76 c 5.54,0 10,4.46 10,10 v 12 c 0,5.54 -4.46,10 -10,10 h -76 c -5.54,0 -10,-4.46 -10,-10 V 43 c 0,-5.54 4.46,-10 10,-10 z" />
  <g
     aria-label="UNION ALL"
     id="text1452"
     class="terminal"
     style="font-weight:bold;font-size:14px;font-family:HelveticaNeueCyr, Sans-serif;fill:#ffe0e0">
    <path
       d="m 194.45,43.032 v 5.992 q 0,2.142 -1.036,3.164 -1.022,1.008 -3.206,1.008 -2.212,0 -3.262,-1.022 -1.036,-1.036 -1.036,-3.178 v -5.964 h 2.184 v 5.964 q 0,1.218 0.462,1.806 0.462,0.588 1.68,0.588 1.176,0 1.596,-0.588 0.434,-0.588 0.434,-1.806 v -5.964 z"
       id="path4068" />
    <path
       d="m 196.33999,53 v -9.968 h 2.226 l 4.102,6.678 v -6.678 h 2.1 V 53 h -2.184 l -4.13,-6.692 V 53 Z"
       id="path4070" />
    <path
       d="M 208.91198,43.032 V 53 h -2.198 v -9.968 z"
       id="path4072" />
    <path
       d="m 215.35198,42.794 q 2.184,0 3.528,1.456 1.358,1.442 1.358,3.78 0,2.338 -1.358,3.78 -1.344,1.428 -3.542,1.428 -2.212,0 -3.57,-1.428 -1.358,-1.442 -1.358,-3.78 0,-2.366 1.344,-3.794 1.358,-1.442 3.598,-1.442 z m -0.028,1.792 q -1.232,0 -1.974,0.924 -0.728,0.924 -0.728,2.478 0,1.61 0.728,2.52 0.728,0.91 2.002,0.924 1.246,0 1.96,-0.924 0.714,-0.924 0.714,-2.52 0,-1.568 -0.728,-2.478 -0.728,-0.924 -1.974,-0.924 z"
       id="path4074" />
    <path
       d="m 221.73598,53 v -9.968 h 2.226 l 4.102,6.678 v -6.678 h 2.1 V 53 h -2.184 l -4.13,-6.692 V 53 Z"
       id="path4076" />
    <path
       d="m 240.95796,43.018 3.794,9.982 h -2.296 l -0.784,-2.226 h -3.71 l -0.812,2.226 h -2.24 l 3.794,-9.982 z m 0.182,6.16 -1.316,-3.71 -1.33,3.71 z"
       id="path4078" />
    <path
       d="M 252.64796,51.124 V 53 h -7.056 v -9.968 h 2.184 v 8.092 z"
       id="path4080" />
    <path
       d="M 260.94996,51.124 V 53 h -7.056 v -9.968 h 2.184 v 8.092 z"
       id="path4082" />
  </g>
  <path
     id="rect1454"
     style="fill:#320000;stroke:#320000"
     d="m 187,79 h 52 c 5.54,0 10,4.46 10,10 v 12 c 0,5.54 -4.46,10 -10,10 h -52 c -5.54,0 -10,-4.46 -10,-10 V 89 c 0,-5.54 4.46,-10 10,-10 z" />
  <path
     id="rect1456"
     class="terminal"
     style="fill:#ff0000;stroke:#320000"
     d="m 185,77 h 52 c 5.54,0 10,4.46 10,10 v 12 c 0,5.54 -4.46,10 -10,10 h -52 c -5.54,0 -10,-4.46 -10,-10 V 87 c 0,-5.54 4.46,-10 10,-10 z" />
  <g
     aria-label="EXCEPT"
     id="text1458"
     class="terminal"
     style="font-weight:bold;font-size:14px;font-family:HelveticaNeueCyr, Sans-serif;fill:#ffe0e0">
    <path
       d="m 193.442,87.032 v 1.792 h -5.306 v 2.17 h 4.872 v 1.722 h -4.872 v 2.45 h 5.404 V 97 h -7.574 v -9.968 z"
       id="path4053" />
    <path
       d="m 203.18601,87.032 -3.206,4.76 3.5,5.208 h -2.618 l -2.184,-3.458 -2.212,3.458 h -2.492 l 3.514,-5.208 -3.248,-4.76 h 2.548 l 1.988,3.206 2.002,-3.206 z"
       id="path4055" />
    <path
       d="m 213.28001,93.15 q -0.168,1.876 -1.316,2.982 -1.148,1.106 -3.15,1.106 -2.17,0 -3.5,-1.428 -1.316,-1.442 -1.316,-3.808 0,-2.24 1.33,-3.724 1.344,-1.484 3.57,-1.484 1.778,0 2.982,1.008 1.204,1.008 1.33,2.562 h -2.142 q -0.168,-0.826 -0.756,-1.274 -0.574,-0.462 -1.456,-0.462 -0.91,0 -1.54,0.518 -0.616,0.504 -0.868,1.246 -0.252,0.742 -0.252,1.624 0,1.54 0.714,2.464 0.714,0.91 1.918,0.91 2.002,0 2.282,-2.24 z"
       id="path4057" />
    <path
       d="m 222.226,87.032 v 1.792 h -5.306 v 2.17 h 4.872 v 1.722 h -4.872 v 2.45 h 5.404 V 97 h -7.574 v -9.968 z"
       id="path4059" />
    <path
       d="m 223.83601,87.032 h 4.298 q 1.68,0 2.66,0.812 0.994,0.798 0.994,2.394 0,1.568 -0.98,2.38 -0.98,0.798 -2.562,0.798 h -2.24 V 97 h -2.17 z m 2.17,1.792 v 2.87 h 1.946 q 1.708,0 1.708,-1.428 0,-1.442 -1.694,-1.442 z"
       id="path4061" />
    <path
       d="m 240.566,87.032 v 1.862 H 237.57 V 97 h -2.198 v -8.106 h -2.996 v -1.862 z"
       id="path4063" />
  </g>
  <path
     id="rect1460"
     style="fill:#320000;stroke:#320000"
     d="m 187,123 h 122 c 5.54,0 10,4.46 10,10 v 12 c 0,5.54 -4.46,10 -10,10 H 187 c -5.54,0 -10,-4.46 -10,-10 v -12 c 0,-5.54 4.46,-10 10,-10 z" />
  <path
     id="rect1462"
     class="terminal"
     style="fill:#ff0000;stroke:#320000"
     d="m 185,121 h 122 c 5.54,0 10,4.46 10,10 v 12 c 0,5.54 -4.46,10 -10,10 H 185 c -5.54,0 -10,-4.46 -10,-10 v -12 c 0,-5.54 4.46,-10 10,-10 z" />
  <g
     aria-label="EXCEPT DISTINCT"
     id="text1464"
     class="terminal"
     style="font-weight:bold;font-size:14px;font-family:HelveticaNeueCyr, Sans-serif;fill:#ffe0e0">
    <path
       d="m 193.442,131.032 v 1.792 h -5.306 v 2.17 h 4.872 v 1.722 h -4.872 v 2.45 h 5.404 V 141 h -7.574 v -9.968 z"
       id="path4022" />
    <path
       d="m 203.18601,131.032 -3.206,4.76 3.5,5.208 h -2.618 l -2.184,-3.458 -2.212,3.458 h -2.492 l 3.514,-5.208 -3.248,-4.76 h 2.548 l 1.988,3.206 2.002,-3.206 z"
       id="path4024" />
    <path
       d="m 213.28001,137.15 q -0.168,1.876 -1.316,2.982 -1.148,1.106 -3.15,1.106 -2.17,0 -3.5,-1.428 -1.316,-1.442 -1.316,-3.808 0,-2.24 1.33,-3.724 1.344,-1.484 3.57,-1.484 1.778,0 2.982,1.008 1.204,1.008 1.33,2.562 h -2.142 q -0.168,-0.826 -0.756,-1.274 -0.574,-0.462 -1.456,-0.462 -0.91,0 -1.54,0.518 -0.616,0.504 -0.868,1.246 -0.252,0.742 -0.252,1.624 0,1.54 0.714,2.464 0.714,0.91 1.918,0.91 2.002,0 2.282,-2.24 z"
       id="path4026" />
    <path
       d="m 222.226,131.032 v 1.792 h -5.306 v 2.17 h 4.872 v 1.722 h -4.872 v 2.45 h 5.404 V 141 h -7.574 v -9.968 z"
       id="path4028" />
    <path
       d="m 223.83601,131.032 h 4.298 q 1.68,0 2.66,0.812 0.994,0.798 0.994,2.394 0,1.568 -0.98,2.38 -0.98,0.798 -2.562,0.798 h -2.24 V 141 h -2.17 z m 2.17,1.792 v 2.87 h 1.946 q 1.708,0 1.708,-1.428 0,-1.442 -1.694,-1.442 z"
       id="path4030" />
    <path
       d="m 240.566,131.032 v 1.862 H 237.57 V 141 h -2.198 v -8.106 h -2.996 v -1.862 z"
       id="path4032" />
    <path
       d="m 245.62,141 v -9.968 h 4.032 q 2.324,0 3.57,1.288 1.26,1.288 1.26,3.696 0,2.408 -1.26,3.696 -1.246,1.288 -3.57,1.288 z m 2.17,-1.82 h 1.596 q 2.898,0 2.898,-3.164 0,-1.526 -0.728,-2.338 -0.714,-0.826 -2.17,-0.826 h -1.596 z"
       id="path4034" />
    <path
       d="M 258.17799,131.032 V 141 h -2.198 v -9.968 z"
       id="path4036" />
    <path
       d="m 267.488,134 h -2.072 q -0.126,-1.484 -1.89,-1.484 -0.756,0 -1.19,0.308 -0.42,0.294 -0.42,0.826 0,0.182 0.056,0.322 0.056,0.14 0.21,0.266 0.154,0.112 0.308,0.196 0.154,0.07 0.448,0.168 0.308,0.084 0.546,0.154 0.252,0.07 0.7,0.182 0.448,0.112 0.784,0.21 1.47,0.42 2.184,1.05 0.728,0.63 0.728,1.806 0,0.854 -0.35,1.498 -0.35,0.63 -0.952,1.008 -0.588,0.364 -1.302,0.532 -0.7,0.182 -1.498,0.182 -2.03,0 -3.178,-0.924 -1.134,-0.938 -1.148,-2.632 h 2.17 q 0.056,1.876 2.254,1.876 0.854,0 1.344,-0.35 0.504,-0.364 0.504,-0.98 0,-0.518 -0.462,-0.756 -0.448,-0.238 -1.904,-0.658 -0.238,-0.056 -0.364,-0.098 -0.504,-0.14 -0.7,-0.196 -0.196,-0.07 -0.63,-0.224 -0.42,-0.154 -0.616,-0.28 -0.196,-0.126 -0.49,-0.35 -0.28,-0.224 -0.406,-0.462 -0.126,-0.252 -0.238,-0.602 -0.098,-0.364 -0.098,-0.784 0,-1.358 1.05,-2.17 1.05,-0.812 2.786,-0.812 1.68,0 2.744,0.798 1.064,0.784 1.092,2.38 z"
       id="path4038" />
    <path
       d="m 276.602,131.032 v 1.862 h -2.996 V 141 h -2.198 v -8.106 h -2.996 v -1.862 z"
       id="path4040" />
    <path
       d="M 279.948,131.032 V 141 h -2.198 v -9.968 z"
       id="path4042" />
    <path
       d="m 281.88,141 v -9.968 h 2.226 l 4.102,6.678 v -6.678 h 2.1 V 141 h -2.184 l -4.13,-6.692 V 141 Z"
       id="path4044" />
    <path
       d="m 301.15799,137.15 q -0.168,1.876 -1.316,2.982 -1.148,1.106 -3.15,1.106 -2.17,0 -3.5,-1.428 -1.316,-1.442 -1.316,-3.808 0,-2.24 1.33,-3.724 1.344,-1.484 3.57,-1.484 1.778,0 2.982,1.008 1.204,1.008 1.33,2.562 h -2.142 q -0.168,-0.826 -0.756,-1.274 -0.574,-0.462 -1.456,-0.462 -0.91,0 -1.54,0.518 -0.616,0.504 -0.868,1.246 -0.252,0.742 -0.252,1.624 0,1.54 0.714,2.464 0.714,0.91 1.918,0.91 2.002,0 2.282,-2.24 z"
       id="path4046" />
    <path
       d="m 310.03397,131.032 v 1.862 h -2.996 V 141 h -2.198 v -8.106 h -2.996 v -1.862 z"
       id="path4048" />
  </g>
  <a
     xlink:href="#SELECT"
     xlink:title="SELECT"
     id="a1472">
    <path
       id="rect1466"
       style="fill:#320000;stroke:#320000"
       d="m 359,35 h 66 v 32 h -66 z" />
    <path
       id="rect1468"
       class="nonterminal"
       style="fill:#ff3f3f;stroke:#320000"
       d="m 357,33 h 66 v 32 h -66 z" />
    <g
       aria-label="SELECT"
       id="text1470"
       class="nonterminal"
       style="font-size:14px;font-family:HelveticaNeueCyr, Sans-serif;fill:#ffe0e0"
       transform="translate(-2)">
      <path
         d="m 375.162,45.958 h -1.274 q -0.21,-2.03 -2.478,-2.03 -1.078,0 -1.666,0.434 -0.588,0.434 -0.588,1.218 0,0.28 0.084,0.49 0.084,0.21 0.28,0.378 0.21,0.154 0.392,0.266 0.182,0.112 0.574,0.224 0.392,0.112 0.63,0.168 0.238,0.042 0.742,0.154 0.616,0.126 1.022,0.238 0.406,0.098 0.966,0.336 0.56,0.238 0.882,0.532 0.336,0.28 0.574,0.756 0.252,0.476 0.252,1.078 0,1.05 -0.588,1.764 -0.588,0.7 -1.428,0.98 -0.84,0.28 -1.862,0.28 -1.876,0 -3.01,-0.882 -1.12,-0.896 -1.12,-2.632 h 1.274 q 0.042,1.274 0.854,1.862 0.812,0.574 2.114,0.574 1.022,0 1.75,-0.42 0.728,-0.434 0.728,-1.4 0,-0.448 -0.196,-0.756 -0.196,-0.322 -0.616,-0.518 -0.42,-0.21 -0.84,-0.336 -0.42,-0.126 -1.106,-0.28 -0.098,-0.014 -0.14,-0.028 -1.54,-0.35 -2.016,-0.56 -1.456,-0.63 -1.456,-2.17 0,-1.428 1.05,-2.128 1.064,-0.714 2.562,-0.714 1.638,0 2.618,0.784 0.98,0.784 1.036,2.338 z"
         id="path4009" />
      <path
         d="m 384.08001,43.032 v 1.148 h -5.586 v 3.122 h 5.222 v 1.106 h -5.222 v 3.444 h 5.656 V 53 h -6.972 v -9.968 z"
         id="path4011" />
      <path
         d="M 392.35401,51.852 V 53 h -6.608 v -9.968 h 1.316 v 8.82 z"
         id="path4013" />
      <path
         d="m 400.41801,43.032 v 1.148 h -5.586 v 3.122 h 5.222 v 1.106 h -5.222 v 3.444 h 5.656 V 53 h -6.972 v -9.968 z"
         id="path4015" />
      <path
         d="m 410.51201,49.234 q -0.168,1.89 -1.316,2.954 -1.134,1.05 -2.996,1.05 -2.128,0 -3.374,-1.4 -1.246,-1.414 -1.246,-3.808 0,-2.24 1.246,-3.724 1.26,-1.498 3.472,-1.498 1.582,0 2.786,0.854 1.204,0.854 1.344,2.366 h -1.316 q -0.224,-0.98 -0.98,-1.526 -0.756,-0.56 -1.862,-0.56 -1.666,0 -2.52,1.176 -0.84,1.176 -0.84,2.898 0,1.904 0.896,2.996 0.896,1.092 2.45,1.092 1.274,0 2.03,-0.728 0.756,-0.742 0.91,-2.142 z"
         id="path4017" />
      <path
         d="m 419.09401,43.032 v 1.148 h -3.346 V 53 h -1.316 v -8.82 h -3.346 v -1.148 z"
         id="path4019" />
    </g>
  </a>
  <a
     xlink:href="#INSERT"
     xlink:title="INSERT"
     id="a1480">
    <path
       id="rect1474"
       style="fill:#320000;stroke:#320000"
       d="m 51,167 h 64 v 32 H 51 Z" />
    <path
       id="rect1476"
       class="nonterminal"
       style="fill:#ff3f3f;stroke:#320000"
       d="m 49,165 h 64 v 32 H 49 Z" />
    <g
       aria-label="INSERT"
       id="text1478"
       class="nonterminal"
       style="font-size:14px;font-family:HelveticaNeueCyr, Sans-serif;fill:#ffe0e0"
       transform="translate(-2)">
      <path
         d="M 61.478,175.032 V 185 h -1.316 v -9.968 z"
         id="path3994" />
      <path
         d="m 63.676011,175.032 h 1.442 l 5.264,8.092 v -8.092 h 1.274 V 185 h -1.484 l -5.236,-7.994 V 185 h -1.26 z"
         id="path3996" />
      <path
         d="m 80.896013,177.958 h -1.274 q -0.21,-2.03 -2.478,-2.03 -1.078,0 -1.666,0.434 -0.588,0.434 -0.588,1.218 0,0.28 0.084,0.49 0.084,0.21 0.28,0.378 0.21,0.154 0.392,0.266 0.182,0.112 0.574,0.224 0.392,0.112 0.63,0.168 0.238,0.042 0.742,0.154 0.616,0.126 1.022,0.238 0.406,0.098 0.966,0.336 0.56,0.238 0.882,0.532 0.336,0.28 0.574,0.756 0.252,0.476 0.252,1.078 0,1.05 -0.588,1.764 -0.588,0.7 -1.428,0.98 -0.84,0.28 -1.862,0.28 -1.876,0 -3.01,-0.882 -1.12,-0.896 -1.12,-2.632 h 1.274 q 0.042,1.274 0.854,1.862 0.812,0.574 2.114,0.574 1.022,0 1.75,-0.42 0.728,-0.434 0.728,-1.4 0,-0.448 -0.196,-0.756 -0.196,-0.322 -0.616,-0.518 -0.42,-0.21 -0.84,-0.336 -0.42,-0.126 -1.106,-0.28 -0.098,-0.014 -0.14,-0.028 -1.54,-0.35 -2.016,-0.56 -1.456,-0.63 -1.456,-2.17 0,-1.428 1.05,-2.128 1.064,-0.714 2.562,-0.714 1.638,0 2.618,0.784 0.98,0.784 1.036,2.338 z"
         id="path3998" />
      <path
         d="m 89.814023,175.032 v 1.148 h -5.586 v 3.122 h 5.222 v 1.106 h -5.222 v 3.444 h 5.656 V 185 h -6.972 v -9.968 z"
         id="path4000" />
      <path
         d="m 91.466023,175.032 h 4.382 q 3.346,0 3.346,2.758 0,0.868 -0.476,1.54 -0.462,0.658 -1.232,0.882 0.504,0.112 0.812,0.322 0.308,0.21 0.448,0.588 0.14,0.378 0.182,0.672 0.042,0.294 0.07,0.868 0,0.056 0.014,0.28 0.014,0.21 0.014,0.294 0,0.07 0.014,0.266 0.028,0.196 0.042,0.294 0.014,0.098 0.042,0.266 0.028,0.168 0.07,0.28 0.042,0.098 0.098,0.238 0.056,0.126 0.126,0.238 0.07,0.098 0.154,0.182 h -1.512 q -0.098,-0.14 -0.168,-0.35 -0.056,-0.21 -0.084,-0.49 -0.028,-0.294 -0.042,-0.462 -0.014,-0.182 -0.028,-0.518 -0.014,-0.336 -0.014,-0.378 -0.07,-1.274 -0.532,-1.694 -0.448,-0.42 -1.792,-0.42 h -2.618 V 185 h -1.316 z m 1.316,1.12 v 3.486 h 2.478 q 0.462,0 0.77,-0.028 0.322,-0.028 0.7,-0.126 0.378,-0.098 0.602,-0.28 0.238,-0.182 0.392,-0.518 0.154,-0.336 0.154,-0.812 0,-1.008 -0.616,-1.358 -0.602,-0.364 -1.652,-0.364 z"
         id="path4002" />
      <path
         d="m 107.72002,175.032 v 1.148 h -3.346 V 185 h -1.316 v -8.82 h -3.345999 v -1.148 z"
         id="path4004" />
    </g>
  </a>
  <path
     class="line"
     d="m17 17 h2 m20 0 h10 m66 0 h10 m20 0 h10 m0 0 h278 m-308 0 h20 m288 0 h20 m-328 0 q10 0 10 10 m308 0 q0 -10 10 -10 m-318 10 v12 m308 0 v-12 m-308 12 q0 10 10 10 m288 0 q10 0 10 -10 m-278 10 h10 m96 0 h10 m0 0 h46 m-182 0 h20 m162 0 h20 m-202 0 q10 0 10 10 m182 0 q0 -10 10 -10 m-192 10 v24 m182 0 v-24 m-182 24 q0 10 10 10 m162 0 q10 0 10 -10 m-172 10 h10 m72 0 h10 m0 0 h70 m-172 -10 v20 m182 0 v-20 m-182 20 v24 m182 0 v-24 m-182 24 q0 10 10 10 m162 0 q10 0 10 -10 m-172 10 h10 m142 0 h10 m20 -88 h10 m66 0 h10 m-414 -32 h20 m414 0 h20 m-454 0 q10 0 10 10 m434 0 q0 -10 10 -10 m-444 10 v144 m434 0 v-144 m-434 144 q0 10 10 10 m414 0 q10 0 10 -10 m-424 10 h10 m64 0 h10 m0 0 h330 m23 -164 h-3"
     id="path1482" />
  <path
     id="polygon1484"
     style="fill:#320000;stroke:#320000"
     d="m 483,17 8,-4 v 8 z" />
  <path
     id="polygon1486"
     style="fill:#320000;stroke:#320000"
     d="m 483,17 -8,-4 v 8 z" />
</svg>
