<?xml version="1.0" encoding="UTF-8"?>
<svg xmlns="http://www.w3.org/2000/svg" width="265" height="69">
   <defs>
      <style type="text/css">
    @namespace "http://www.w3.org/2000/svg";
    .line                 {fill: none; stroke: #320000; stroke-width: 1;}
    .bold-line            {stroke: #FFE0E0; shape-rendering: crispEdges; stroke-width: 2;}
    .thin-line            {stroke: #1F0000; shape-rendering: crispEdges}
    .filled               {fill: #320000; stroke: none;}
    text.terminal         {font-family: HelveticaNeueCyr, Sans-serif;
                            font-size: 12px;
                            fill: #FFE0E0;
                            font-weight: bold;
                          }
    text.nonterminal      {font-family: HelveticaNeueCyr, Sans-serif;
                            font-size: 12px;
                            fill: #FFE0E0;
                            font-weight: normal;
                          }
    text.regexp           {font-family: HelveticaNeueCyr, Sans-serif;
                            font-size: 12px;
                            fill: #1F0000;
                            font-weight: normal;
                          }
    rect, circle, polygon {fill: #320000; stroke: #320000;}
    rect.terminal         {fill: #FF0000; stroke: #320000; stroke-width: 1;}
    rect.nonterminal      {fill: #FF3F3F; stroke: #320000; stroke-width: 1;}
    rect.text             {fill: none; stroke: none;}
    polygon.regexp        {fill: #FF5E5E; stroke: #320000; stroke-width: 1;}
  </style>
   </defs>
   <polygon points="9 17 1 13 1 21"/>
   <polygon points="17 17 9 13 9 21"/>
   <a xmlns:xlink="http://www.w3.org/1999/xlink"
       xlink:href="#table"
       xlink:title="table">
      <rect x="51" y="35" width="52" height="32"/>
      <rect x="49" y="33" width="52" height="32" class="nonterminal"/>
      <text class="nonterminal" x="59" y="53">table</text>
   </a>
   <rect x="123" y="35" width="24" height="32" rx="10"/>
   <rect x="121"
          y="33"
          width="24"
          height="32"
          class="terminal"
          rx="10"/>
   <text class="terminal" x="131" y="53">.</text>
   <a xmlns:xlink="http://www.w3.org/1999/xlink"
       xlink:href="#alias"
       xlink:title="alias">
      <rect x="187" y="3" width="50" height="32"/>
      <rect x="185" y="1" width="50" height="32" class="nonterminal"/>
      <text class="nonterminal" x="195" y="21">alias</text>
   </a>
   <path class="line"
          d="m17 17 h2 m20 0 h10 m0 0 h106 m-136 0 h20 m116 0 h20 m-156 0 q10 0 10 10 m136 0 q0 -10 10 -10 m-146 10 v12 m136 0 v-12 m-136 12 q0 10 10 10 m116 0 q10 0 10 -10 m-126 10 h10 m52 0 h10 m0 0 h10 m24 0 h10 m20 -32 h10 m50 0 h10 m3 0 h-3"/>
   <polygon points="255 17 263 13 263 21"/>
   <polygon points="255 17 247 13 247 21"/>
</svg>
