<?xml version="1.0" encoding="UTF-8"?>
<svg xmlns="http://www.w3.org/2000/svg" width="245" height="81">
   <defs>
      <style type="text/css">
    @namespace "http://www.w3.org/2000/svg";
    .line                 {fill: none; stroke: #320000; stroke-width: 1;}
    .bold-line            {stroke: #FFE0E0; shape-rendering: crispEdges; stroke-width: 2;}
    .thin-line            {stroke: #1F0000; shape-rendering: crispEdges}
    .filled               {fill: #320000; stroke: none;}
    text.terminal         {font-family: HelveticaNeueCyr, Sans-serif;
                            font-size: 14px;
                            fill: #FFE0E0;
                            font-weight: bold;
                          }
    text.nonterminal      {font-family: HelveticaNeueCyr, Sans-serif;
                            font-size: 14px;
                            fill: #FFE0E0;
                            font-weight: normal;
                          }
    text.regexp           {font-family: HelveticaNeueCyr, Sans-serif;
                            font-size: 14px;
                            fill: #1F0000;
                            font-weight: normal;
                          }
    rect, circle, polygon {fill: #320000; stroke: #320000;}
    rect.terminal         {fill: #FF0000; stroke: #320000; stroke-width: 1;}
    rect.nonterminal      {fill: #FF3F3F; stroke: #320000; stroke-width: 1;}
    rect.text             {fill: none; stroke: none;}
    polygon.regexp        {fill: #FF5E5E; stroke: #320000; stroke-width: 1;}
  </style>
   </defs>
   <polygon points="9 61 1 57 1 65"/>
   <polygon points="17 61 9 57 9 65"/>
   <rect x="31" y="47" width="26" height="32" rx="10"/>
   <rect x="29"
          y="45"
          width="26"
          height="32"
          class="terminal"
          rx="10"/>
   <text class="terminal" x="39" y="65">(</text>
   <a xmlns:xlink="http://www.w3.org/1999/xlink"
       xlink:href="#value"
       xlink:title="value">
      <rect x="97" y="47" width="54" height="32"/>
      <rect x="95" y="45" width="54" height="32" class="nonterminal"/>
      <text class="nonterminal" x="105" y="65">value</text>
   </a>
   <rect x="97" y="3" width="24" height="32" rx="10"/>
   <rect x="95"
          y="1"
          width="24"
          height="32"
          class="terminal"
          rx="10"/>
   <text class="terminal" x="105" y="21">,</text>
   <rect x="191" y="47" width="26" height="32" rx="10"/>
   <rect x="189"
          y="45"
          width="26"
          height="32"
          class="terminal"
          rx="10"/>
   <text class="terminal" x="199" y="65">)</text>
   <path class="line"
          d="m17 61 h2 m0 0 h10 m26 0 h10 m20 0 h10 m54 0 h10 m-94 0 l20 0 m-1 0 q-9 0 -9 -10 l0 -24 q0 -10 10 -10 m74 44 l20 0 m-20 0 q10 0 10 -10 l0 -24 q0 -10 -10 -10 m-74 0 h10 m24 0 h10 m0 0 h30 m20 44 h10 m26 0 h10 m3 0 h-3"/>
   <polygon points="235 61 243 57 243 65"/>
   <polygon points="235 61 227 57 227 65"/>
</svg>
