<?xml version="1.0" encoding="UTF-8" standalone="no"?>
<svg
   width="760.12463"
   height="545.04706"
   version="1.1"
   id="svg3360"
   sodipodi:docname="SELECT.svg"
   inkscape:version="1.2.2 (b0a8486541, 2022-12-01)"
   xmlns:inkscape="http://www.inkscape.org/namespaces/inkscape"
   xmlns:sodipodi="http://sodipodi.sourceforge.net/DTD/sodipodi-0.dtd"
   xmlns:xlink="http://www.w3.org/1999/xlink"
   xmlns="http://www.w3.org/2000/svg"
   xmlns:svg="http://www.w3.org/2000/svg">
  <sodipodi:namedview
     id="namedview3362"
     pagecolor="#ffffff"
     bordercolor="#666666"
     borderopacity="1.0"
     inkscape:showpageshadow="2"
     inkscape:pageopacity="0.0"
     inkscape:pagecheckerboard="0"
     inkscape:deskcolor="#d1d1d1"
     showgrid="false"
     inkscape:zoom="0.99707996"
     inkscape:cx="449.81347"
     inkscape:cy="294.86101"
     inkscape:window-width="1920"
     inkscape:window-height="1011"
     inkscape:window-x="0"
     inkscape:window-y="32"
     inkscape:window-maximized="1"
     inkscape:current-layer="svg3360" />
  <defs
     id="defs3148">
    <style
       type="text/css"
       id="style3146">@namespace &quot;http://www.w3.org/2000/svg&quot;;.line { fill: none; stroke: #320000; stroke-width: 1; }
.bold-line { stroke: #FFE0E0; shape-rendering: crispEdges; stroke-width: 2; }
.thin-line { stroke: #1F0000; shape-rendering: crispEdges }
.filled { fill: #320000; stroke: none; }
text.terminal { font-family: HelveticaNeueCyr, Sans-serif;                            font-size: 14px;                            fill: #FFE0E0;                            font-weight: bold; }
text.nonterminal { font-family: HelveticaNeueCyr, Sans-serif;                            font-size: 14px;                            fill: #FFE0E0;                            font-weight: normal; }
text.regexp { font-family: HelveticaNeueCyr, Sans-serif;                            font-size: 14px;                            fill: #1F0000;                            font-weight: normal; }
rect, circle, polygon { fill: #320000; stroke: #320000; }
rect.terminal { fill: #FF0000; stroke: #320000; stroke-width: 1; }
rect.nonterminal { fill: #FF3F3F; stroke: #320000; stroke-width: 1; }
rect.text { fill: none; stroke: none; }
polygon.regexp { fill: #FF5E5E; stroke: #320000; stroke-width: 1; }
</style>
  </defs>
  <path
     id="polygon3150"
     style="fill:#320000;stroke:#320000;stroke-width:0.919135"
     d="m 7.8126474,55.607667 -7.35307991,-3.67654 v 7.35308 z" />
  <path
     id="polygon3152"
     style="fill:#320000;stroke:#320000;stroke-width:0.919135"
     d="m 15.165727,55.607667 -7.3530796,-3.67654 v 7.35308 z" />
  <path
     id="rect3154"
     style="fill:#320000;stroke:#320000;stroke-width:0.919135"
     d="m 37.224967,42.739777 h 45.95675 c 5.092008,0 9.19135,4.099342 9.19135,9.19135 v 11.02962 c 0,5.092008 -4.099342,9.19135 -9.19135,9.19135 h -45.95675 c -5.092008,0 -9.19135,-4.099342 -9.19135,-9.19135 v -11.02962 c 0,-5.092008 4.099342,-9.19135 9.19135,-9.19135 z" />
  <path
     id="rect3156"
     class="terminal"
     style="fill:#ff0000;stroke:#320000;stroke-width:0.919135"
     d="m 35.386697,40.901507 h 45.95675 c 5.092007,0 9.191349,4.099342 9.191349,9.19135 v 11.02962 c 0,5.092007 -4.099342,9.191349 -9.191349,9.191349 h -45.95675 c -5.092008,0 -9.19135,-4.099342 -9.19135,-9.191349 v -11.02962 c 0,-5.092008 4.099342,-9.19135 9.19135,-9.19135 z" />
  <g
     aria-label="SELECT"
     id="text3158"
     class="terminal"
     style="font-weight:bold;font-size:14px;font-family:HelveticaNeueCyr, Sans-serif;fill:#ffe0e0"
     transform="matrix(0.919135,0,0,0.919135,-0.45956751,-0.45956751)">
    <path
       d="m 47.344,58 h -2.072 q -0.126,-1.484 -1.89,-1.484 -0.756,0 -1.19,0.308 -0.42,0.294 -0.42,0.826 0,0.182 0.056,0.322 0.056,0.14 0.21,0.266 0.154,0.112 0.308,0.196 0.154,0.07 0.448,0.168 0.308,0.084 0.546,0.154 0.252,0.07 0.7,0.182 0.448,0.112 0.784,0.21 1.47,0.42 2.184,1.05 0.728,0.63 0.728,1.806 0,0.854 -0.35,1.498 -0.35,0.63 -0.952,1.008 -0.588,0.364 -1.302,0.532 -0.7,0.182 -1.498,0.182 -2.03,0 -3.178,-0.924 -1.134,-0.938 -1.148,-2.632 h 2.17 q 0.056,1.876 2.254,1.876 0.854,0 1.344,-0.35 0.504,-0.364 0.504,-0.98 0,-0.518 -0.462,-0.756 Q 44.67,61.22 43.214,60.8 42.976,60.744 42.85,60.702 q -0.504,-0.14 -0.7,-0.196 -0.196,-0.07 -0.63,-0.224 -0.42,-0.154 -0.616,-0.28 -0.196,-0.126 -0.49,-0.35 -0.28,-0.224 -0.406,-0.462 -0.126,-0.252 -0.238,-0.602 -0.098,-0.364 -0.098,-0.784 0,-1.358 1.05,-2.17 1.05,-0.812 2.786,-0.812 1.68,0 2.744,0.798 1.064,0.784 1.092,2.38 z"
       id="path3809" />
    <path
       d="m 56.528002,55.032 v 1.792 h -5.306 v 2.17 h 4.872 v 1.722 h -4.872 v 2.45 h 5.404 V 65 h -7.574 v -9.968 z"
       id="path3811" />
    <path
       d="M 65.180012,63.124 V 65 h -7.056 v -9.968 h 2.184 v 8.092 z"
       id="path3813" />
    <path
       d="m 73.902018,55.032 v 1.792 h -5.306 v 2.17 h 4.872 v 1.722 h -4.872 v 2.45 h 5.404 V 65 h -7.574 v -9.968 z"
       id="path3815" />
    <path
       d="m 84.402028,61.15 q -0.168,1.876 -1.316,2.982 -1.148,1.106 -3.15,1.106 -2.17,0 -3.5,-1.428 -1.316,-1.442 -1.316,-3.808 0,-2.24 1.33,-3.724 1.344,-1.484 3.57,-1.484 1.778,0 2.982,1.008 1.204,1.008 1.33,2.562 h -2.142 q -0.168,-0.826 -0.756,-1.274 -0.574,-0.462 -1.456,-0.462 -0.91,0 -1.54,0.518 -0.616,0.504 -0.868,1.246 -0.252,0.742 -0.252,1.624 0,1.54 0.714,2.464 0.714,0.91 1.918,0.91 2.002,0 2.282,-2.24 z"
       id="path3817" />
    <path
       d="m 93.278017,55.032 v 1.862 h -2.996 V 65 h -2.198 v -8.106 h -2.996 v -1.862 z"
       id="path3819" />
  </g>
  <a
     xlink:href="#column"
     xlink:title="column"
     id="a3166"
     transform="matrix(0.919135,0,0,0.919135,-0.45956751,-0.45956751)">
    <path
       id="rect3160"
       style="fill:#320000;stroke:#320000"
       d="m 141,47 h 64 v 32 h -64 z" />
    <path
       id="rect3162"
       class="nonterminal"
       style="fill:#ff3f3f;stroke:#320000"
       d="m 139,45 h 64 v 32 h -64 z" />
    <g
       aria-label="column"
       id="text3164"
       class="nonterminal"
       style="font-size:14px;font-family:HelveticaNeueCyr, Sans-serif;fill:#ffe0e0">
      <path
         d="m 156.112,62.368 q -0.154,1.302 -0.994,2.072 -0.826,0.77 -2.156,0.77 -1.638,0 -2.534,-1.008 -0.896,-1.022 -0.896,-2.716 0,-1.806 0.938,-2.856 0.938,-1.064 2.534,-1.064 1.33,0 2.128,0.672 0.798,0.658 0.938,1.89 h -1.232 q -0.322,-1.568 -1.82,-1.568 -1.036,0 -1.638,0.77 -0.602,0.756 -0.602,2.058 0,1.316 0.574,2.072 0.574,0.756 1.582,0.756 0.812,0 1.316,-0.476 0.518,-0.476 0.658,-1.372 z"
         id="path3796" />
      <path
         d="m 157.98801,58.602 q 0.952,-1.036 2.59,-1.036 1.638,0 2.548,0.994 0.91,0.994 0.91,2.786 0,1.834 -0.91,2.856 -0.91,1.022 -2.562,1.022 -1.652,0 -2.59,-1.008 -0.938,-1.008 -0.938,-2.8 0,-1.778 0.952,-2.814 z m 4.214,0.728 q -0.602,-0.77 -1.652,-0.77 -1.05,0 -1.666,0.77 -0.616,0.77 -0.616,2.058 0,1.33 0.602,2.086 0.616,0.742 1.708,0.742 1.05,0 1.638,-0.756 0.602,-0.756 0.602,-2.086 0,-1.288 -0.616,-2.044 z"
         id="path3798" />
      <path
         d="M 166.71,55.032 V 65 h -1.204 v -9.968 z"
         id="path3800" />
      <path
         d="M 174.55,57.776 V 65 h -1.106 v -1.134 q -0.924,1.33 -2.492,1.33 -1.148,0 -1.778,-0.63 -0.63,-0.63 -0.63,-1.82 v -4.97 h 1.19 v 4.648 q 0,0.854 0.322,1.302 0.336,0.434 1.19,0.434 2.114,0 2.114,-2.604 v -3.78 z"
         id="path3802" />
      <path
         d="m 177.462,57.776 v 1.05 q 0.476,-0.644 1.022,-0.938 0.546,-0.294 1.33,-0.294 1.484,0 2.002,1.246 0.938,-1.26 2.394,-1.26 1.12,0 1.694,0.63 0.588,0.616 0.588,1.736 V 65 h -1.19 v -4.55 q 0,-0.896 -0.28,-1.344 -0.28,-0.462 -1.162,-0.462 -1.848,0 -1.848,2.254 V 65 h -1.19 v -4.634 q 0,-0.826 -0.28,-1.26 -0.266,-0.448 -1.05,-0.448 -1.106,0 -1.54,0.686 -0.42,0.672 -0.42,1.834 V 65 h -1.19 v -7.224 z"
         id="path3804" />
      <path
         d="m 189.40401,57.776 v 1.12 q 0.896,-1.316 2.464,-1.316 1.274,0 1.834,0.672 0.574,0.658 0.574,1.946 V 65 h -1.19 v -4.256 q 0,-0.532 -0.042,-0.826 -0.028,-0.308 -0.168,-0.644 -0.14,-0.35 -0.476,-0.504 -0.336,-0.154 -0.868,-0.154 -2.058,0 -2.058,2.604 V 65 h -1.19 v -7.224 z"
         id="path3806" />
    </g>
  </a>
  <path
     id="rect3168"
     style="fill:#320000;stroke:#320000;stroke-width:0.919135"
     d="m 138.32982,2.2978374 h 3.67654 c 5.09201,0 9.19135,4.0993422 9.19135,9.1913496 v 11.02962 c 0,5.092008 -4.09934,9.19135 -9.19135,9.19135 h -3.67654 c -5.09201,0 -9.19135,-4.099342 -9.19135,-9.19135 v -11.02962 c 0,-5.0920074 4.09934,-9.1913496 9.19135,-9.1913496 z" />
  <path
     id="rect3170"
     class="terminal"
     style="fill:#ff0000;stroke:#320000;stroke-width:0.919135"
     d="m 136.49155,0.45956749 h 3.67654 c 5.092,0 9.19135,4.09934201 9.19135,9.19134991 V 20.680537 c 0,5.092008 -4.09935,9.191351 -9.19135,9.191351 h -3.67654 c -5.09201,0 -9.19135,-4.099343 -9.19135,-9.191351 V 9.6509174 c 0,-5.0920079 4.09934,-9.19134991 9.19135,-9.19134991 z" />
  <g
     aria-label=","
     id="text3172"
     class="terminal"
     style="font-weight:bold;font-size:14px;font-family:HelveticaNeueCyr, Sans-serif;fill:#ffe0e0"
     transform="matrix(0.919135,0,0,0.919135,-0.45956751,-0.45956751)">
    <path
       d="m 152.052,18.816 v 1.778 q 0,1.218 -0.546,1.876 -0.532,0.672 -1.666,0.854 v -0.98 q 0.938,-0.28 0.994,-1.344 h -0.994 v -2.184 z"
       id="path3789" />
  </g>
  <path
     id="rect3174"
     style="fill:#320000;stroke:#320000;stroke-width:0.919135"
     d="m 233.91985,42.739777 h 36.76541 c 5.092,0 9.19134,4.099342 9.19134,9.19135 v 11.02962 c 0,5.092008 -4.09934,9.19135 -9.19134,9.19135 h -36.76541 c -5.092,0 -9.19135,-4.099342 -9.19135,-9.19135 v -11.02962 c 0,-5.092008 4.09935,-9.19135 9.19135,-9.19135 z" />
  <path
     id="rect3176"
     class="terminal"
     style="fill:#ff0000;stroke:#320000;stroke-width:0.919135"
     d="m 232.08158,40.901507 h 36.7654 c 5.09201,0 9.19135,4.099342 9.19135,9.19135 v 11.02962 c 0,5.092007 -4.09934,9.191349 -9.19135,9.191349 h -36.7654 c -5.092,0 -9.19135,-4.099342 -9.19135,-9.191349 v -11.02962 c 0,-5.092008 4.09935,-9.19135 9.19135,-9.19135 z" />
  <g
     aria-label="FROM"
     id="text3178"
     class="terminal"
     style="font-weight:bold;font-size:14px;font-family:HelveticaNeueCyr, Sans-serif;fill:#ffe0e0"
     transform="matrix(0.919135,0,0,0.919135,-0.45956751,-0.45956751)">
    <path
       d="m 260.994,55.032 v 1.834 h -4.844 v 2.31 h 4.214 v 1.736 H 256.15 V 65 h -2.184 v -9.968 z"
       id="path3778" />
    <path
       d="m 262.35201,55.032 h 4.956 q 1.484,0 2.422,0.7 0.938,0.7 0.938,2.128 0,0.868 -0.42,1.526 -0.42,0.644 -1.162,0.924 1.288,0.266 1.47,2.324 0,0.07 0.028,0.434 0.028,0.364 0.056,0.588 0.028,0.21 0.07,0.518 0.042,0.308 0.126,0.518 0.084,0.21 0.196,0.308 h -2.268 q -0.112,-0.224 -0.168,-0.56 -0.056,-0.35 -0.098,-0.882 -0.042,-0.546 -0.042,-0.602 -0.112,-1.05 -0.532,-1.456 -0.406,-0.406 -1.456,-0.406 h -1.946 V 65 h -2.17 z m 2.17,1.722 v 2.758 h 2.072 q 0.91,0 1.414,-0.28 0.518,-0.294 0.518,-1.134 0,-0.784 -0.504,-1.064 -0.49,-0.28 -1.33,-0.28 z"
       id="path3780" />
    <path
       d="m 276.88401,54.794 q 2.184,0 3.528,1.456 1.358,1.442 1.358,3.78 0,2.338 -1.358,3.78 -1.344,1.428 -3.542,1.428 -2.212,0 -3.57,-1.428 -1.358,-1.442 -1.358,-3.78 0,-2.366 1.344,-3.794 1.358,-1.442 3.598,-1.442 z m -0.028,1.792 q -1.232,0 -1.974,0.924 -0.728,0.924 -0.728,2.478 0,1.61 0.728,2.52 0.728,0.91 2.002,0.924 1.246,0 1.96,-0.924 0.714,-0.924 0.714,-2.52 0,-1.568 -0.728,-2.478 -0.728,-0.924 -1.974,-0.924 z"
       id="path3782" />
    <path
       d="m 283.26801,65 v -9.968 h 3.122 l 2.324,6.846 2.268,-6.846 h 3.052 V 65 h -2.058 v -7.084 l -2.45,7.084 h -1.694 l -2.478,-7.014 V 65 Z"
       id="path3784" />
  </g>
  <a
     xlink:href="#table"
     xlink:title="table"
     id="a3186"
     transform="matrix(0.919135,0,0,0.919135,-0.45956751,-0.45956751)">
    <path
       id="rect3180"
       style="fill:#320000;stroke:#320000"
       d="m 345,47 h 52 v 32 h -52 z" />
    <path
       id="rect3182"
       class="nonterminal"
       style="fill:#ff3f3f;stroke:#320000"
       d="m 343,45 h 52 v 32 h -52 z" />
    <g
       aria-label="table"
       id="text3184"
       class="nonterminal"
       style="font-size:14px;font-family:HelveticaNeueCyr, Sans-serif;fill:#ffe0e0">
      <path
         d="m 356.99,57.776 v 0.98 h -1.442 v 4.214 q 0,0.35 0,0.462 0.014,0.112 0.084,0.308 0.07,0.182 0.238,0.238 0.168,0.056 0.476,0.056 0.266,0 0.644,-0.042 v 1.022 q -0.504,0.056 -0.91,0.056 -0.504,0 -0.84,-0.112 -0.336,-0.112 -0.518,-0.252 -0.168,-0.14 -0.252,-0.49 -0.084,-0.364 -0.098,-0.602 -0.014,-0.252 -0.014,-0.826 0,-0.126 0,-0.196 v -3.836 h -1.218 v -0.98 h 1.218 v -2.142 h 1.19 v 2.142 z"
         id="path3767" />
      <path
         d="m 364.70401,64.048 v 0.924 q -0.364,0.14 -0.812,0.14 -1.022,0 -1.05,-1.064 -1.022,1.148 -2.618,1.148 -1.064,0 -1.694,-0.546 -0.616,-0.546 -0.616,-1.498 0,-1.932 2.562,-2.254 1.512,-0.182 1.75,-0.266 0.504,-0.168 0.546,-0.7 0.014,-0.084 0.014,-0.182 0,-1.19 -1.638,-1.19 -0.84,0 -1.274,0.35 -0.434,0.336 -0.518,1.12 h -1.162 q 0.028,-1.162 0.826,-1.806 0.798,-0.644 2.198,-0.644 1.526,0 2.268,0.7 0.238,0.224 0.35,0.588 0.112,0.364 0.126,0.602 0.014,0.224 0.014,0.686 0,0.546 -0.028,1.624 -0.028,1.064 -0.028,1.596 0,0.392 0.098,0.56 0.112,0.154 0.392,0.154 0.112,0 0.294,-0.042 z m -1.918,-2.8 q -0.126,0.098 -0.266,0.168 -0.14,0.07 -0.364,0.112 -0.21,0.042 -0.294,0.07 -0.07,0.014 -0.364,0.056 -0.294,0.028 -0.308,0.028 -0.434,0.056 -0.574,0.084 -0.126,0.014 -0.504,0.112 -0.364,0.098 -0.518,0.224 -0.154,0.126 -0.308,0.378 -0.14,0.238 -0.14,0.574 0,0.56 0.378,0.882 0.392,0.322 1.064,0.322 0.854,0 1.526,-0.504 0.672,-0.504 0.672,-1.19 z"
         id="path3769" />
      <path
         d="m 367.00002,55.032 v 3.738 q 0.784,-1.19 2.394,-1.19 1.484,0 2.366,1.036 0.896,1.022 0.896,2.744 0,1.75 -0.91,2.8 -0.91,1.05 -2.422,1.05 -1.722,0 -2.394,-1.26 V 65 h -1.12 v -9.968 z m 2.212,3.556 q -1.148,0 -1.708,0.826 -0.546,0.826 -0.546,2.03 0,1.274 0.602,2.03 0.616,0.742 1.652,0.742 0.994,0 1.596,-0.77 0.616,-0.784 0.616,-2.072 0,-1.274 -0.602,-2.03 -0.602,-0.756 -1.61,-0.756 z"
         id="path3771" />
      <path
         d="M 375.38602,55.032 V 65 h -1.204 v -9.968 z"
         id="path3773" />
      <path
         d="m 383.40802,62.718 q -0.546,2.52 -3.15,2.52 -1.596,0 -2.506,-0.994 -0.896,-0.994 -0.896,-2.758 0,-1.75 0.924,-2.828 0.938,-1.092 2.436,-1.092 1.666,0 2.464,1.134 0.812,1.12 0.812,2.842 v 0.168 h -5.432 l -0.014,0.084 q 0,1.148 0.602,1.806 0.602,0.658 1.652,0.658 0.784,0 1.232,-0.364 0.462,-0.364 0.714,-1.176 z m -1.148,-1.974 q -0.084,-1.036 -0.63,-1.61 -0.546,-0.588 -1.442,-0.588 -0.868,0 -1.442,0.588 -0.574,0.588 -0.686,1.61 z"
         id="path3775" />
    </g>
  </a>
  <path
     id="rect3188"
     style="fill:#320000;stroke:#320000;stroke-width:0.919135"
     d="m 325.83335,83.181717 h 5.51482 c 5.092,0 9.19135,4.099342 9.19135,9.19135 v 11.029623 c 0,5.092 -4.09935,9.19134 -9.19135,9.19134 h -5.51482 c -5.092,0 -9.19134,-4.09934 -9.19134,-9.19134 V 92.373067 c 0,-5.092008 4.09934,-9.19135 9.19134,-9.19135 z" />
  <path
     id="rect3190"
     class="terminal"
     style="fill:#ff0000;stroke:#320000;stroke-width:0.919135"
     d="m 323.99508,81.343447 h 5.51482 c 5.092,0 9.19135,4.099342 9.19135,9.191349 v 11.029624 c 0,5.092 -4.09935,9.19134 -9.19135,9.19134 h -5.51482 c -5.092,0 -9.19135,-4.09934 -9.19135,-9.19134 V 90.534796 c 0,-5.092007 4.09935,-9.191349 9.19135,-9.191349 z" />
  <g
     aria-label="("
     id="text3192"
     class="terminal"
     style="font-weight:bold;font-size:14px;font-family:HelveticaNeueCyr, Sans-serif;fill:#ffe0e0"
     transform="matrix(0.919135,0,0,0.919135,-0.45956751,-0.45956751)">
    <path
       d="m 357.228,98.878 q -0.812,1.624 -1.19,3.108 -0.364,1.484 -0.364,3.262 0,3.08 1.582,6.244 h -1.68 q -0.868,-1.316 -1.358,-2.954 -0.476,-1.638 -0.476,-3.248 0,-1.68 0.462,-3.388 0.476,-1.722 1.372,-3.024 z"
       id="path3760" />
  </g>
  <a
     xlink:href="#select"
     xlink:title="SELECT"
     id="a3200"
     transform="matrix(0.919135,0,0,0.919135,-0.45956751,-0.45956751)">
    <path
       id="rect3194"
       style="fill:#320000;stroke:#320000"
       d="m 411,91 h 66 v 32 h -66 z" />
    <path
       id="rect3196"
       class="nonterminal"
       style="fill:#ff3f3f;stroke:#320000"
       d="m 409,89 h 66 v 32 h -66 z" />
    <g
       aria-label="SELECT"
       id="text3198"
       class="nonterminal"
       style="font-size:14px;font-family:HelveticaNeueCyr, Sans-serif;fill:#ffe0e0">
      <path
         d="m 427.162,101.958 h -1.274 q -0.21,-2.03 -2.478,-2.03 -1.078,0 -1.666,0.434 -0.588,0.434 -0.588,1.218 0,0.28 0.084,0.49 0.084,0.21 0.28,0.378 0.21,0.154 0.392,0.266 0.182,0.112 0.574,0.224 0.392,0.112 0.63,0.168 0.238,0.042 0.742,0.154 0.616,0.126 1.022,0.238 0.406,0.098 0.966,0.336 0.56,0.238 0.882,0.532 0.336,0.28 0.574,0.756 0.252,0.476 0.252,1.078 0,1.05 -0.588,1.764 -0.588,0.7 -1.428,0.98 -0.84,0.28 -1.862,0.28 -1.876,0 -3.01,-0.882 -1.12,-0.896 -1.12,-2.632 h 1.274 q 0.042,1.274 0.854,1.862 0.812,0.574 2.114,0.574 1.022,0 1.75,-0.42 0.728,-0.434 0.728,-1.4 0,-0.448 -0.196,-0.756 -0.196,-0.322 -0.616,-0.518 -0.42,-0.21 -0.84,-0.336 -0.42,-0.126 -1.106,-0.28 -0.098,-0.014 -0.14,-0.028 -1.54,-0.35 -2.016,-0.56 -1.456,-0.63 -1.456,-2.17 0,-1.428 1.05,-2.128 1.064,-0.714 2.562,-0.714 1.638,0 2.618,0.784 0.98,0.784 1.036,2.338 z"
         id="path3747" />
      <path
         d="m 436.08001,99.032 v 1.148 h -5.586 v 3.122 h 5.222 v 1.106 h -5.222 v 3.444 h 5.656 V 109 h -6.972 v -9.968 z"
         id="path3749" />
      <path
         d="M 444.35401,107.852 V 109 h -6.608 v -9.968 h 1.316 v 8.82 z"
         id="path3751" />
      <path
         d="m 452.41801,99.032 v 1.148 h -5.586 v 3.122 h 5.222 v 1.106 h -5.222 v 3.444 h 5.656 V 109 h -6.972 v -9.968 z"
         id="path3753" />
      <path
         d="m 462.51201,105.234 q -0.168,1.89 -1.316,2.954 -1.134,1.05 -2.996,1.05 -2.128,0 -3.374,-1.4 -1.246,-1.414 -1.246,-3.808 0,-2.24 1.246,-3.724 1.26,-1.498 3.472,-1.498 1.582,0 2.786,0.854 1.204,0.854 1.344,2.366 h -1.316 q -0.224,-0.98 -0.98,-1.526 -0.756,-0.56 -1.862,-0.56 -1.666,0 -2.52,1.176 -0.84,1.176 -0.84,2.898 0,1.904 0.896,2.996 0.896,1.092 2.45,1.092 1.274,0 2.03,-0.728 0.756,-0.742 0.91,-2.142 z"
         id="path3755" />
      <path
         d="m 471.09401,99.032 v 1.148 h -3.346 V 109 h -1.316 v -8.82 h -3.346 v -1.148 z"
         id="path3757" />
    </g>
  </a>
  <a
     xlink:href="#values"
     xlink:title="VALUES"
     id="a3208"
     transform="matrix(0.919135,0,0,0.919135,-0.45956751,-0.45956751)">
    <path
       id="rect3202"
       style="fill:#320000;stroke:#320000"
       d="m 411,135 h 68 v 32 h -68 z" />
    <path
       id="rect3204"
       class="nonterminal"
       style="fill:#ff3f3f;stroke:#320000"
       d="m 409,133 h 68 v 32 h -68 z" />
    <g
       aria-label="VALUES"
       id="text3206"
       class="nonterminal"
       style="font-size:14px;font-family:HelveticaNeueCyr, Sans-serif;fill:#ffe0e0">
      <path
         d="m 418.972,143.032 h 1.456 l 2.87,8.68 2.898,-8.68 h 1.386 L 424.026,153 h -1.512 z"
         id="path3732" />
      <path
         d="m 432.20201,143.032 3.892,9.968 h -1.47 l -1.106,-3.052 h -4.186 l -1.134,3.052 h -1.4 l 3.92,-9.968 z m 0.924,5.866 -1.694,-4.606 -1.722,4.606 z"
         id="path3734" />
      <path
         d="M 443.71002,151.852 V 153 h -6.608 v -9.968 h 1.316 v 8.82 z"
         id="path3736" />
      <path
         d="m 444.80201,143.032 h 1.33 v 6.286 q 0,1.456 0.63,2.128 0.63,0.672 2.058,0.672 1.47,0 2.072,-0.686 0.616,-0.686 0.616,-2.114 v -6.286 h 1.33 v 5.936 q 0,2.184 -0.91,3.22 -0.91,1.022 -3.108,1.022 -2.128,0 -3.08,-0.994 -0.938,-1.008 -0.938,-3.108 z"
         id="path3738" />
      <path
         d="m 461.88202,143.032 v 1.148 h -5.586 v 3.122 h 5.222 v 1.106 h -5.222 v 3.444 h 5.656 V 153 h -6.972 v -9.968 z"
         id="path3740" />
      <path
         d="m 470.59002,145.958 h -1.274 q -0.21,-2.03 -2.478,-2.03 -1.078,0 -1.666,0.434 -0.588,0.434 -0.588,1.218 0,0.28 0.084,0.49 0.084,0.21 0.28,0.378 0.21,0.154 0.392,0.266 0.182,0.112 0.574,0.224 0.392,0.112 0.63,0.168 0.238,0.042 0.742,0.154 0.616,0.126 1.022,0.238 0.406,0.098 0.966,0.336 0.56,0.238 0.882,0.532 0.336,0.28 0.574,0.756 0.252,0.476 0.252,1.078 0,1.05 -0.588,1.764 -0.588,0.7 -1.428,0.98 -0.84,0.28 -1.862,0.28 -1.876,0 -3.01,-0.882 -1.12,-0.896 -1.12,-2.632 h 1.274 q 0.042,1.274 0.854,1.862 0.812,0.574 2.114,0.574 1.022,0 1.75,-0.42 0.728,-0.434 0.728,-1.4 0,-0.448 -0.196,-0.756 -0.196,-0.322 -0.616,-0.518 -0.42,-0.21 -0.84,-0.336 -0.42,-0.126 -1.106,-0.28 -0.098,-0.014 -0.14,-0.028 -1.54,-0.35 -2.016,-0.56 -1.456,-0.63 -1.456,-2.17 0,-1.428 1.05,-2.128 1.064,-0.714 2.562,-0.714 1.638,0 2.618,0.784 0.98,0.784 1.036,2.338 z"
         id="path3742" />
    </g>
  </a>
  <path
     id="rect3210"
     style="fill:#320000;stroke:#320000;stroke-width:0.919135"
     d="m 485.76285,83.181717 h 5.5148 c 5.09201,0 9.19135,4.099342 9.19135,9.19135 v 11.029623 c 0,5.092 -4.09934,9.19134 -9.19135,9.19134 h -5.5148 c -5.09202,0 -9.19135,-4.09934 -9.19135,-9.19134 V 92.373067 c 0,-5.092008 4.09933,-9.19135 9.19135,-9.19135 z" />
  <path
     id="rect3212"
     class="terminal"
     style="fill:#ff0000;stroke:#320000;stroke-width:0.919135"
     d="m 483.92457,81.343447 h 5.51481 c 5.09201,0 9.19136,4.099342 9.19136,9.191349 v 11.029624 c 0,5.092 -4.09935,9.19134 -9.19136,9.19134 h -5.51481 c -5.092,0 -9.19134,-4.09934 -9.19134,-9.19134 V 90.534796 c 0,-5.092007 4.09934,-9.191349 9.19134,-9.191349 z" />
  <g
     aria-label=")"
     id="text3214"
     class="terminal"
     style="font-weight:bold;font-size:14px;font-family:HelveticaNeueCyr, Sans-serif;fill:#ffe0e0"
     transform="matrix(0.919135,0,0,0.919135,-0.45956751,-0.45956751)">
    <path
       d="m 526.944,98.878 h 1.652 q 1.862,2.856 1.862,6.23 0,1.582 -0.49,3.416 -0.49,1.834 -1.344,2.968 h -1.666 q 0.84,-1.708 1.19,-3.15 0.364,-1.456 0.364,-3.262 0,-3.388 -1.568,-6.202 z"
       id="path3725" />
  </g>
  <path
     id="rect3216"
     style="fill:#320000;stroke:#320000;stroke-width:0.919135"
     d="m 338.70125,198.99272 h 16.54442 c 5.09202,0 9.19136,4.09934 9.19136,9.19136 v 11.02962 c 0,5.092 -4.09934,9.19135 -9.19136,9.19135 h -16.54442 c -5.09201,0 -9.19135,-4.09935 -9.19135,-9.19135 v -11.02962 c 0,-5.09202 4.09934,-9.19136 9.19135,-9.19136 z" />
  <path
     id="rect3218"
     class="terminal"
     style="fill:#ff0000;stroke:#320000;stroke-width:0.919135"
     d="m 336.86297,197.15446 h 16.54444 c 5.092,0 9.19135,4.09933 9.19135,9.19135 v 11.02962 c 0,5.092 -4.09935,9.19135 -9.19135,9.19135 h -16.54444 c -5.092,0 -9.19134,-4.09935 -9.19134,-9.19135 v -11.02962 c 0,-5.09202 4.09934,-9.19135 9.19134,-9.19135 z" />
  <g
     aria-label="AS"
     id="text3220"
     class="terminal"
     style="font-weight:bold;font-size:14px;font-family:HelveticaNeueCyr, Sans-serif;fill:#ffe0e0"
     transform="matrix(0.919135,0,0,0.919135,-0.45956751,-0.45956751)">
    <path
       d="m 372.922,225.018 3.794,9.982 h -2.296 l -0.784,-2.226 h -3.71 L 369.114,235 h -2.24 l 3.794,-9.982 z m 0.182,6.16 -1.316,-3.71 -1.33,3.71 z"
       id="path3718" />
    <path
       d="m 384.93399,228 h -2.072 q -0.126,-1.484 -1.89,-1.484 -0.756,0 -1.19,0.308 -0.42,0.294 -0.42,0.826 0,0.182 0.056,0.322 0.056,0.14 0.21,0.266 0.154,0.112 0.308,0.196 0.154,0.07 0.448,0.168 0.308,0.084 0.546,0.154 0.252,0.07 0.7,0.182 0.448,0.112 0.784,0.21 1.47,0.42 2.184,1.05 0.728,0.63 0.728,1.806 0,0.854 -0.35,1.498 -0.35,0.63 -0.952,1.008 -0.588,0.364 -1.302,0.532 -0.7,0.182 -1.498,0.182 -2.03,0 -3.178,-0.924 -1.134,-0.938 -1.148,-2.632 h 2.17 q 0.056,1.876 2.254,1.876 0.854,0 1.344,-0.35 0.504,-0.364 0.504,-0.98 0,-0.518 -0.462,-0.756 -0.448,-0.238 -1.904,-0.658 -0.238,-0.056 -0.364,-0.098 -0.504,-0.14 -0.7,-0.196 -0.196,-0.07 -0.63,-0.224 -0.42,-0.154 -0.616,-0.28 -0.196,-0.126 -0.49,-0.35 -0.28,-0.224 -0.406,-0.462 -0.126,-0.252 -0.238,-0.602 -0.098,-0.364 -0.098,-0.784 0,-1.358 1.05,-2.17 1.05,-0.812 2.786,-0.812 1.68,0 2.744,0.798 1.064,0.784 1.092,2.38 z"
       id="path3720" />
  </g>
  <a
     xlink:href="#name"
     xlink:title="name"
     id="a3228"
     transform="matrix(0.919135,0,0,0.919135,-0.45956751,-0.45956751)">
    <path
       id="rect3222"
       style="fill:#320000;stroke:#320000"
       d="m 417,217 h 56 v 32 h -56 z" />
    <path
       id="rect3224"
       class="nonterminal"
       style="fill:#ff3f3f;stroke:#320000"
       d="m 415,215 h 56 v 32 h -56 z" />
    <g
       aria-label="name"
       id="text3226"
       class="nonterminal"
       style="font-size:14px;font-family:HelveticaNeueCyr, Sans-serif;fill:#ffe0e0">
      <path
         d="m 427.016,227.776 v 1.12 q 0.896,-1.316 2.464,-1.316 1.274,0 1.834,0.672 0.574,0.658 0.574,1.946 V 235 h -1.19 v -4.256 q 0,-0.532 -0.042,-0.826 -0.028,-0.308 -0.168,-0.644 -0.14,-0.35 -0.476,-0.504 -0.336,-0.154 -0.868,-0.154 -2.058,0 -2.058,2.604 V 235 h -1.19 v -7.224 z"
         id="path3709" />
      <path
         d="m 440.078,234.048 v 0.924 q -0.364,0.14 -0.812,0.14 -1.022,0 -1.05,-1.064 -1.022,1.148 -2.618,1.148 -1.064,0 -1.694,-0.546 -0.616,-0.546 -0.616,-1.498 0,-1.932 2.562,-2.254 1.512,-0.182 1.75,-0.266 0.504,-0.168 0.546,-0.7 0.014,-0.084 0.014,-0.182 0,-1.19 -1.638,-1.19 -0.84,0 -1.274,0.35 -0.434,0.336 -0.518,1.12 h -1.162 q 0.028,-1.162 0.826,-1.806 0.798,-0.644 2.198,-0.644 1.526,0 2.268,0.7 0.238,0.224 0.35,0.588 0.112,0.364 0.126,0.602 0.014,0.224 0.014,0.686 0,0.546 -0.028,1.624 -0.028,1.064 -0.028,1.596 0,0.392 0.098,0.56 0.112,0.154 0.392,0.154 0.112,0 0.294,-0.042 z m -1.918,-2.8 q -0.126,0.098 -0.266,0.168 -0.14,0.07 -0.364,0.112 -0.21,0.042 -0.294,0.07 -0.07,0.014 -0.364,0.056 -0.294,0.028 -0.308,0.028 -0.434,0.056 -0.574,0.084 -0.126,0.014 -0.504,0.112 -0.364,0.098 -0.518,0.224 -0.154,0.126 -0.308,0.378 -0.14,0.238 -0.14,0.574 0,0.56 0.378,0.882 0.392,0.322 1.064,0.322 0.854,0 1.526,-0.504 0.672,-0.504 0.672,-1.19 z"
         id="path3711" />
      <path
         d="m 442.31801,227.776 v 1.05 q 0.476,-0.644 1.022,-0.938 0.546,-0.294 1.33,-0.294 1.484,0 2.002,1.246 0.938,-1.26 2.394,-1.26 1.12,0 1.694,0.63 0.588,0.616 0.588,1.736 V 235 h -1.19 v -4.55 q 0,-0.896 -0.28,-1.344 -0.28,-0.462 -1.162,-0.462 -1.848,0 -1.848,2.254 V 235 h -1.19 v -4.634 q 0,-0.826 -0.28,-1.26 -0.266,-0.448 -1.05,-0.448 -1.106,0 -1.54,0.686 -0.42,0.672 -0.42,1.834 V 235 h -1.19 v -7.224 z"
         id="path3713" />
      <path
         d="m 459.31401,232.718 q -0.546,2.52 -3.15,2.52 -1.596,0 -2.506,-0.994 -0.896,-0.994 -0.896,-2.758 0,-1.75 0.924,-2.828 0.938,-1.092 2.436,-1.092 1.666,0 2.464,1.134 0.812,1.12 0.812,2.842 v 0.168 h -5.432 l -0.014,0.084 q 0,1.148 0.602,1.806 0.602,0.658 1.652,0.658 0.784,0 1.232,-0.364 0.462,-0.364 0.714,-1.176 z m -1.148,-1.974 q -0.084,-1.036 -0.63,-1.61 -0.546,-0.588 -1.442,-0.588 -0.868,0 -1.442,0.588 -0.574,0.588 -0.686,1.61 z"
         id="path3715" />
    </g>
  </a>
  <path
     id="rect3230"
     style="fill:#320000;stroke:#320000;stroke-width:0.919135"
     d="m 68.475557,303.77411 h 40.441933 c 5.09202,0 9.19136,4.09935 9.19136,9.19135 v 11.02962 c 0,5.09201 -4.09934,9.19135 -9.19136,9.19135 H 68.475557 c -5.092008,0 -9.19135,-4.09934 -9.19135,-9.19135 v -11.02962 c 0,-5.092 4.099342,-9.19135 9.19135,-9.19135 z" />
  <path
     id="rect3232"
     class="terminal"
     style="fill:#ff0000;stroke:#320000;stroke-width:0.919135"
     d="m 66.637287,301.93584 h 40.441943 c 5.09201,0 9.19135,4.09935 9.19135,9.19135 v 11.02962 c 0,5.09202 -4.09934,9.19136 -9.19135,9.19136 H 66.637287 c -5.092008,0 -9.19135,-4.09934 -9.19135,-9.19136 v -11.02962 c 0,-5.092 4.099342,-9.19135 9.19135,-9.19135 z" />
  <g
     aria-label="INNER"
     id="text3234"
     class="terminal"
     style="font-weight:bold;font-size:14px;font-family:HelveticaNeueCyr, Sans-serif;fill:#ffe0e0"
     transform="matrix(0.919135,0,0,0.919135,-0.45956751,-0.45956751)">
    <path
       d="M 76.164,339.032 V 349 h -2.198 v -9.968 z"
       id="path3694" />
    <path
       d="m 78.096001,349 v -9.968 h 2.226 l 4.102,6.678 v -6.678 h 2.1 V 349 h -2.184 l -4.13,-6.692 V 349 Z"
       id="path3696" />
    <path
       d="m 88.46999,349 v -9.968 h 2.226 l 4.102,6.678 v -6.678 h 2.1 V 349 h -2.184 l -4.13,-6.692 V 349 Z"
       id="path3698" />
    <path
       d="m 106.31998,339.032 v 1.792 h -5.306 v 2.17 h 4.872 v 1.722 h -4.872 v 2.45 h 5.404 V 349 h -7.574001 v -9.968 z"
       id="path3700" />
    <path
       d="m 107.99999,339.032 h 4.956 q 1.484,0 2.422,0.7 0.938,0.7 0.938,2.128 0,0.868 -0.42,1.526 -0.42,0.644 -1.162,0.924 1.288,0.266 1.47,2.324 0,0.07 0.028,0.434 0.028,0.364 0.056,0.588 0.028,0.21 0.07,0.518 0.042,0.308 0.126,0.518 0.084,0.21 0.196,0.308 h -2.268 q -0.112,-0.224 -0.168,-0.56 -0.056,-0.35 -0.098,-0.882 -0.042,-0.546 -0.042,-0.602 -0.112,-1.05 -0.532,-1.456 -0.406,-0.406 -1.456,-0.406 h -1.946 V 349 h -2.17 z m 2.17,1.722 v 2.758 h 2.072 q 0.91,0 1.414,-0.28 0.518,-0.294 0.518,-1.134 0,-0.784 -0.504,-1.064 -0.49,-0.28 -1.33,-0.28 z"
       id="path3702" />
  </g>
  <path
     id="rect3236"
     style="fill:#320000;stroke:#320000;stroke-width:0.919135"
     d="m 164.0656,274.3618 h 31.25059 c 5.092,0 9.19135,4.09934 9.19135,9.19135 v 11.02962 c 0,5.092 -4.09935,9.19134 -9.19135,9.19134 H 164.0656 c -5.09201,0 -9.19136,-4.09934 -9.19136,-9.19134 v -11.02962 c 0,-5.09201 4.09935,-9.19135 9.19136,-9.19135 z" />
  <path
     id="rect3238"
     class="terminal"
     style="fill:#ff0000;stroke:#320000;stroke-width:0.919135"
     d="m 162.22733,272.52353 h 31.25059 c 5.092,0 9.19134,4.09934 9.19134,9.19134 v 11.02962 c 0,5.09201 -4.09934,9.19135 -9.19134,9.19135 h -31.25059 c -5.09202,0 -9.19135,-4.09934 -9.19135,-9.19135 v -11.02962 c 0,-5.092 4.09933,-9.19134 9.19135,-9.19134 z" />
  <g
     aria-label="JOIN"
     id="text3240"
     class="terminal"
     style="font-weight:bold;font-size:14px;font-family:HelveticaNeueCyr, Sans-serif;fill:#ffe0e0"
     transform="matrix(0.919135,0,0,0.919135,-0.45956751,-0.45956751)">
    <path
       d="m 183.972,307.032 v 6.846 q 0,3.36 -3.276,3.36 -1.582,0 -2.464,-0.826 -0.868,-0.826 -0.868,-2.478 v -0.658 h 2.016 v 0.308 q 0,0.378 0,0.574 0.014,0.182 0.07,0.49 0.07,0.294 0.196,0.448 0.126,0.14 0.364,0.266 0.252,0.112 0.616,0.112 0.392,0 0.63,-0.126 0.252,-0.126 0.364,-0.378 0.112,-0.266 0.14,-0.518 0.028,-0.252 0.028,-0.644 v -6.776 z"
       id="path3683" />
    <path
       d="m 190.258,306.794 q 2.184,0 3.528,1.456 1.358,1.442 1.358,3.78 0,2.338 -1.358,3.78 -1.344,1.428 -3.542,1.428 -2.212,0 -3.57,-1.428 -1.358,-1.442 -1.358,-3.78 0,-2.366 1.344,-3.794 1.358,-1.442 3.598,-1.442 z m -0.028,1.792 q -1.232,0 -1.974,0.924 -0.728,0.924 -0.728,2.478 0,1.61 0.728,2.52 0.728,0.91 2.002,0.924 1.246,0 1.96,-0.924 0.714,-0.924 0.714,-2.52 0,-1.568 -0.728,-2.478 -0.728,-0.924 -1.974,-0.924 z"
       id="path3685" />
    <path
       d="M 198.83999,307.032 V 317 h -2.198 v -9.968 z"
       id="path3687" />
    <path
       d="m 200.772,317 v -9.968 h 2.226 l 4.102,6.678 v -6.678 h 2.1 V 317 h -2.184 l -4.13,-6.692 V 317 Z"
       id="path3689" />
  </g>
  <a
     xlink:href="#table"
     xlink:title="table"
     id="a3248"
     transform="matrix(0.919135,0,0,0.919135,-0.45956751,-0.45956751)">
    <path
       id="rect3242"
       style="fill:#320000;stroke:#320000"
       d="m 263,299 h 52 v 32 h -52 z" />
    <path
       id="rect3244"
       class="nonterminal"
       style="fill:#ff3f3f;stroke:#320000"
       d="m 261,297 h 52 v 32 h -52 z" />
    <g
       aria-label="table"
       id="text3246"
       class="nonterminal"
       style="font-size:14px;font-family:HelveticaNeueCyr, Sans-serif;fill:#ffe0e0">
      <path
         d="m 274.99,309.776 v 0.98 h -1.442 v 4.214 q 0,0.35 0,0.462 0.014,0.112 0.084,0.308 0.07,0.182 0.238,0.238 0.168,0.056 0.476,0.056 0.266,0 0.644,-0.042 v 1.022 q -0.504,0.056 -0.91,0.056 -0.504,0 -0.84,-0.112 -0.336,-0.112 -0.518,-0.252 -0.168,-0.14 -0.252,-0.49 -0.084,-0.364 -0.098,-0.602 -0.014,-0.252 -0.014,-0.826 0,-0.126 0,-0.196 v -3.836 h -1.218 v -0.98 h 1.218 v -2.142 h 1.19 v 2.142 z"
         id="path3672" />
      <path
         d="m 282.70401,316.048 v 0.924 q -0.364,0.14 -0.812,0.14 -1.022,0 -1.05,-1.064 -1.022,1.148 -2.618,1.148 -1.064,0 -1.694,-0.546 -0.616,-0.546 -0.616,-1.498 0,-1.932 2.562,-2.254 1.512,-0.182 1.75,-0.266 0.504,-0.168 0.546,-0.7 0.014,-0.084 0.014,-0.182 0,-1.19 -1.638,-1.19 -0.84,0 -1.274,0.35 -0.434,0.336 -0.518,1.12 h -1.162 q 0.028,-1.162 0.826,-1.806 0.798,-0.644 2.198,-0.644 1.526,0 2.268,0.7 0.238,0.224 0.35,0.588 0.112,0.364 0.126,0.602 0.014,0.224 0.014,0.686 0,0.546 -0.028,1.624 -0.028,1.064 -0.028,1.596 0,0.392 0.098,0.56 0.112,0.154 0.392,0.154 0.112,0 0.294,-0.042 z m -1.918,-2.8 q -0.126,0.098 -0.266,0.168 -0.14,0.07 -0.364,0.112 -0.21,0.042 -0.294,0.07 -0.07,0.014 -0.364,0.056 -0.294,0.028 -0.308,0.028 -0.434,0.056 -0.574,0.084 -0.126,0.014 -0.504,0.112 -0.364,0.098 -0.518,0.224 -0.154,0.126 -0.308,0.378 -0.14,0.238 -0.14,0.574 0,0.56 0.378,0.882 0.392,0.322 1.064,0.322 0.854,0 1.526,-0.504 0.672,-0.504 0.672,-1.19 z"
         id="path3674" />
      <path
         d="m 285.00002,307.032 v 3.738 q 0.784,-1.19 2.394,-1.19 1.484,0 2.366,1.036 0.896,1.022 0.896,2.744 0,1.75 -0.91,2.8 -0.91,1.05 -2.422,1.05 -1.722,0 -2.394,-1.26 V 317 h -1.12 v -9.968 z m 2.212,3.556 q -1.148,0 -1.708,0.826 -0.546,0.826 -0.546,2.03 0,1.274 0.602,2.03 0.616,0.742 1.652,0.742 0.994,0 1.596,-0.77 0.616,-0.784 0.616,-2.072 0,-1.274 -0.602,-2.03 -0.602,-0.756 -1.61,-0.756 z"
         id="path3676" />
      <path
         d="M 293.38602,307.032 V 317 h -1.204 v -9.968 z"
         id="path3678" />
      <path
         d="m 301.40802,314.718 q -0.546,2.52 -3.15,2.52 -1.596,0 -2.506,-0.994 -0.896,-0.994 -0.896,-2.758 0,-1.75 0.924,-2.828 0.938,-1.092 2.436,-1.092 1.666,0 2.464,1.134 0.812,1.12 0.812,2.842 v 0.168 h -5.432 l -0.014,0.084 q 0,1.148 0.602,1.806 0.602,0.658 1.652,0.658 0.784,0 1.232,-0.364 0.462,-0.364 0.714,-1.176 z m -1.148,-1.974 q -0.084,-1.036 -0.63,-1.61 -0.546,-0.588 -1.442,-0.588 -0.868,0 -1.442,0.588 -0.574,0.588 -0.686,1.61 z"
         id="path3680" />
    </g>
  </a>
  <path
     id="rect3250"
     style="fill:#320000;stroke:#320000;stroke-width:0.919135"
     d="m 335.0247,303.77411 h 16.54444 c 5.092,0 9.19135,4.09935 9.19135,9.19135 v 11.02962 c 0,5.09201 -4.09935,9.19135 -9.19135,9.19135 H 335.0247 c -5.092,0 -9.19135,-4.09934 -9.19135,-9.19135 v -11.02962 c 0,-5.092 4.09935,-9.19135 9.19135,-9.19135 z" />
  <path
     id="rect3252"
     class="terminal"
     style="fill:#ff0000;stroke:#320000;stroke-width:0.919135"
     d="m 333.18643,301.93584 h 16.54444 c 5.092,0 9.19134,4.09935 9.19134,9.19135 v 11.02962 c 0,5.09202 -4.09934,9.19136 -9.19134,9.19136 h -16.54444 c -5.092,0 -9.19135,-4.09934 -9.19135,-9.19136 v -11.02962 c 0,-5.092 4.09935,-9.19135 9.19135,-9.19135 z" />
  <g
     aria-label="AS"
     id="text3254"
     class="terminal"
     style="font-weight:bold;font-size:14px;font-family:HelveticaNeueCyr, Sans-serif;fill:#ffe0e0"
     transform="matrix(0.919135,0,0,0.919135,-0.45956751,-0.45956751)">
    <path
       d="m 368.922,339.018 3.794,9.982 h -2.296 l -0.784,-2.226 h -3.71 L 365.114,349 h -2.24 l 3.794,-9.982 z m 0.182,6.16 -1.316,-3.71 -1.33,3.71 z"
       id="path3663" />
    <path
       d="m 380.93399,342 h -2.072 q -0.126,-1.484 -1.89,-1.484 -0.756,0 -1.19,0.308 -0.42,0.294 -0.42,0.826 0,0.182 0.056,0.322 0.056,0.14 0.21,0.266 0.154,0.112 0.308,0.196 0.154,0.07 0.448,0.168 0.308,0.084 0.546,0.154 0.252,0.07 0.7,0.182 0.448,0.112 0.784,0.21 1.47,0.42 2.184,1.05 0.728,0.63 0.728,1.806 0,0.854 -0.35,1.498 -0.35,0.63 -0.952,1.008 -0.588,0.364 -1.302,0.532 -0.7,0.182 -1.498,0.182 -2.03,0 -3.178,-0.924 -1.134,-0.938 -1.148,-2.632 h 2.17 q 0.056,1.876 2.254,1.876 0.854,0 1.344,-0.35 0.504,-0.364 0.504,-0.98 0,-0.518 -0.462,-0.756 -0.448,-0.238 -1.904,-0.658 -0.238,-0.056 -0.364,-0.098 -0.504,-0.14 -0.7,-0.196 -0.196,-0.07 -0.63,-0.224 -0.42,-0.154 -0.616,-0.28 -0.196,-0.126 -0.49,-0.35 -0.28,-0.224 -0.406,-0.462 -0.126,-0.252 -0.238,-0.602 -0.098,-0.364 -0.098,-0.784 0,-1.358 1.05,-2.17 1.05,-0.812 2.786,-0.812 1.68,0 2.744,0.798 1.064,0.784 1.092,2.38 z"
       id="path3665" />
  </g>
  <a
     xlink:href="#name"
     xlink:title="name"
     id="a3262"
     transform="matrix(0.919135,0,0,0.919135,-0.45956751,-0.45956751)">
    <path
       id="rect3256"
       style="fill:#320000;stroke:#320000"
       d="m 413,331 h 56 v 32 h -56 z" />
    <path
       id="rect3258"
       class="nonterminal"
       style="fill:#ff3f3f;stroke:#320000"
       d="m 411,329 h 56 v 32 h -56 z" />
    <g
       aria-label="name"
       id="text3260"
       class="nonterminal"
       style="font-size:14px;font-family:HelveticaNeueCyr, Sans-serif;fill:#ffe0e0">
      <path
         d="m 423.016,341.776 v 1.12 q 0.896,-1.316 2.464,-1.316 1.274,0 1.834,0.672 0.574,0.658 0.574,1.946 V 349 h -1.19 v -4.256 q 0,-0.532 -0.042,-0.826 -0.028,-0.308 -0.168,-0.644 -0.14,-0.35 -0.476,-0.504 -0.336,-0.154 -0.868,-0.154 -2.058,0 -2.058,2.604 V 349 h -1.19 v -7.224 z"
         id="path3654" />
      <path
         d="m 436.078,348.048 v 0.924 q -0.364,0.14 -0.812,0.14 -1.022,0 -1.05,-1.064 -1.022,1.148 -2.618,1.148 -1.064,0 -1.694,-0.546 -0.616,-0.546 -0.616,-1.498 0,-1.932 2.562,-2.254 1.512,-0.182 1.75,-0.266 0.504,-0.168 0.546,-0.7 0.014,-0.084 0.014,-0.182 0,-1.19 -1.638,-1.19 -0.84,0 -1.274,0.35 -0.434,0.336 -0.518,1.12 h -1.162 q 0.028,-1.162 0.826,-1.806 0.798,-0.644 2.198,-0.644 1.526,0 2.268,0.7 0.238,0.224 0.35,0.588 0.112,0.364 0.126,0.602 0.014,0.224 0.014,0.686 0,0.546 -0.028,1.624 -0.028,1.064 -0.028,1.596 0,0.392 0.098,0.56 0.112,0.154 0.392,0.154 0.112,0 0.294,-0.042 z m -1.918,-2.8 q -0.126,0.098 -0.266,0.168 -0.14,0.07 -0.364,0.112 -0.21,0.042 -0.294,0.07 -0.07,0.014 -0.364,0.056 -0.294,0.028 -0.308,0.028 -0.434,0.056 -0.574,0.084 -0.126,0.014 -0.504,0.112 -0.364,0.098 -0.518,0.224 -0.154,0.126 -0.308,0.378 -0.14,0.238 -0.14,0.574 0,0.56 0.378,0.882 0.392,0.322 1.064,0.322 0.854,0 1.526,-0.504 0.672,-0.504 0.672,-1.19 z"
         id="path3656" />
      <path
         d="m 438.31801,341.776 v 1.05 q 0.476,-0.644 1.022,-0.938 0.546,-0.294 1.33,-0.294 1.484,0 2.002,1.246 0.938,-1.26 2.394,-1.26 1.12,0 1.694,0.63 0.588,0.616 0.588,1.736 V 349 h -1.19 v -4.55 q 0,-0.896 -0.28,-1.344 -0.28,-0.462 -1.162,-0.462 -1.848,0 -1.848,2.254 V 349 h -1.19 v -4.634 q 0,-0.826 -0.28,-1.26 -0.266,-0.448 -1.05,-0.448 -1.106,0 -1.54,0.686 -0.42,0.672 -0.42,1.834 V 349 h -1.19 v -7.224 z"
         id="path3658" />
      <path
         d="m 455.31401,346.718 q -0.546,2.52 -3.15,2.52 -1.596,0 -2.506,-0.994 -0.896,-0.994 -0.896,-2.758 0,-1.75 0.924,-2.828 0.938,-1.092 2.436,-1.092 1.666,0 2.464,1.134 0.812,1.12 0.812,2.842 v 0.168 h -5.432 l -0.014,0.084 q 0,1.148 0.602,1.806 0.602,0.658 1.652,0.658 0.784,0 1.232,-0.364 0.462,-0.364 0.714,-1.176 z m -1.148,-1.974 q -0.084,-1.036 -0.63,-1.61 -0.546,-0.588 -1.442,-0.588 -0.868,0 -1.442,0.588 -0.574,0.588 -0.686,1.61 z"
         id="path3660" />
    </g>
  </a>
  <path
     id="rect3264"
     style="fill:#320000;stroke:#320000;stroke-width:0.919135"
     d="m 250.46429,344.21605 h 5.5148 c 5.09202,0 9.19135,4.09934 9.19135,9.19136 v 11.02962 c 0,5.092 -4.09933,9.19135 -9.19135,9.19135 h -5.5148 c -5.09201,0 -9.19135,-4.09935 -9.19135,-9.19135 v -11.02962 c 0,-5.09202 4.09934,-9.19136 9.19135,-9.19136 z" />
  <path
     id="rect3266"
     class="terminal"
     style="fill:#ff0000;stroke:#320000;stroke-width:0.919135"
     d="m 248.62602,342.37779 h 5.5148 c 5.09202,0 9.19136,4.09933 9.19136,9.19135 v 11.02962 c 0,5.092 -4.09934,9.19134 -9.19136,9.19134 h -5.5148 c -5.09201,0 -9.19135,-4.09934 -9.19135,-9.19134 v -11.02962 c 0,-5.09202 4.09934,-9.19135 9.19135,-9.19135 z" />
  <g
     aria-label="("
     id="text3268"
     class="terminal"
     style="font-weight:bold;font-size:14px;font-family:HelveticaNeueCyr, Sans-serif;fill:#ffe0e0"
     transform="matrix(0.919135,0,0,0.919135,-0.45956751,-0.45956751)">
    <path
       d="m 275.228,382.878 q -0.812,1.624 -1.19,3.108 -0.364,1.484 -0.364,3.262 0,3.08 1.582,6.244 h -1.68 q -0.868,-1.316 -1.358,-2.954 -0.476,-1.638 -0.476,-3.248 0,-1.68 0.462,-3.388 0.476,-1.722 1.372,-3.024 z"
       id="path3647" />
  </g>
  <a
     xlink:href="#select"
     xlink:title="SELECT"
     id="a3276"
     transform="matrix(0.919135,0,0,0.919135,-0.45956751,-0.45956751)">
    <path
       id="rect3270"
       style="fill:#320000;stroke:#320000"
       d="m 329,375 h 66 v 32 h -66 z" />
    <path
       id="rect3272"
       class="nonterminal"
       style="fill:#ff3f3f;stroke:#320000"
       d="m 327,373 h 66 v 32 h -66 z" />
    <g
       aria-label="SELECT"
       id="text3274"
       class="nonterminal"
       style="font-size:14px;font-family:HelveticaNeueCyr, Sans-serif;fill:#ffe0e0">
      <path
         d="m 345.162,385.958 h -1.274 q -0.21,-2.03 -2.478,-2.03 -1.078,0 -1.666,0.434 -0.588,0.434 -0.588,1.218 0,0.28 0.084,0.49 0.084,0.21 0.28,0.378 0.21,0.154 0.392,0.266 0.182,0.112 0.574,0.224 0.392,0.112 0.63,0.168 0.238,0.042 0.742,0.154 0.616,0.126 1.022,0.238 0.406,0.098 0.966,0.336 0.56,0.238 0.882,0.532 0.336,0.28 0.574,0.756 0.252,0.476 0.252,1.078 0,1.05 -0.588,1.764 -0.588,0.7 -1.428,0.98 -0.84,0.28 -1.862,0.28 -1.876,0 -3.01,-0.882 -1.12,-0.896 -1.12,-2.632 h 1.274 q 0.042,1.274 0.854,1.862 0.812,0.574 2.114,0.574 1.022,0 1.75,-0.42 0.728,-0.434 0.728,-1.4 0,-0.448 -0.196,-0.756 -0.196,-0.322 -0.616,-0.518 -0.42,-0.21 -0.84,-0.336 -0.42,-0.126 -1.106,-0.28 -0.098,-0.014 -0.14,-0.028 -1.54,-0.35 -2.016,-0.56 -1.456,-0.63 -1.456,-2.17 0,-1.428 1.05,-2.128 1.064,-0.714 2.562,-0.714 1.638,0 2.618,0.784 0.98,0.784 1.036,2.338 z"
         id="path3634" />
      <path
         d="m 354.08001,383.032 v 1.148 h -5.586 v 3.122 h 5.222 v 1.106 h -5.222 v 3.444 h 5.656 V 393 h -6.972 v -9.968 z"
         id="path3636" />
      <path
         d="M 362.35401,391.852 V 393 h -6.608 v -9.968 h 1.316 v 8.82 z"
         id="path3638" />
      <path
         d="m 370.41801,383.032 v 1.148 h -5.586 v 3.122 h 5.222 v 1.106 h -5.222 v 3.444 h 5.656 V 393 h -6.972 v -9.968 z"
         id="path3640" />
      <path
         d="m 380.51201,389.234 q -0.168,1.89 -1.316,2.954 -1.134,1.05 -2.996,1.05 -2.128,0 -3.374,-1.4 -1.246,-1.414 -1.246,-3.808 0,-2.24 1.246,-3.724 1.26,-1.498 3.472,-1.498 1.582,0 2.786,0.854 1.204,0.854 1.344,2.366 h -1.316 q -0.224,-0.98 -0.98,-1.526 -0.756,-0.56 -1.862,-0.56 -1.666,0 -2.52,1.176 -0.84,1.176 -0.84,2.898 0,1.904 0.896,2.996 0.896,1.092 2.45,1.092 1.274,0 2.03,-0.728 0.756,-0.742 0.91,-2.142 z"
         id="path3642" />
      <path
         d="m 389.09401,383.032 v 1.148 h -3.346 V 393 h -1.316 v -8.82 h -3.346 v -1.148 z"
         id="path3644" />
    </g>
  </a>
  <a
     xlink:href="#values"
     xlink:title="VALUES"
     id="a3284"
     transform="matrix(0.919135,0,0,0.919135,-0.45956751,-0.45956751)">
    <path
       id="rect3278"
       style="fill:#320000;stroke:#320000"
       d="m 329,419 h 68 v 32 h -68 z" />
    <path
       id="rect3280"
       class="nonterminal"
       style="fill:#ff3f3f;stroke:#320000"
       d="m 327,417 h 68 v 32 h -68 z" />
    <g
       aria-label="VALUES"
       id="text3282"
       class="nonterminal"
       style="font-size:14px;font-family:HelveticaNeueCyr, Sans-serif;fill:#ffe0e0">
      <path
         d="m 336.972,427.032 h 1.456 l 2.87,8.68 2.898,-8.68 h 1.386 L 342.026,437 h -1.512 z"
         id="path3619" />
      <path
         d="m 350.20201,427.032 3.892,9.968 h -1.47 l -1.106,-3.052 h -4.186 l -1.134,3.052 h -1.4 l 3.92,-9.968 z m 0.924,5.866 -1.694,-4.606 -1.722,4.606 z"
         id="path3621" />
      <path
         d="M 361.71002,435.852 V 437 h -6.608 v -9.968 h 1.316 v 8.82 z"
         id="path3623" />
      <path
         d="m 362.80201,427.032 h 1.33 v 6.286 q 0,1.456 0.63,2.128 0.63,0.672 2.058,0.672 1.47,0 2.072,-0.686 0.616,-0.686 0.616,-2.114 v -6.286 h 1.33 v 5.936 q 0,2.184 -0.91,3.22 -0.91,1.022 -3.108,1.022 -2.128,0 -3.08,-0.994 -0.938,-1.008 -0.938,-3.108 z"
         id="path3625" />
      <path
         d="m 379.88202,427.032 v 1.148 h -5.586 v 3.122 h 5.222 v 1.106 h -5.222 v 3.444 h 5.656 V 437 h -6.972 v -9.968 z"
         id="path3627" />
      <path
         d="m 388.59002,429.958 h -1.274 q -0.21,-2.03 -2.478,-2.03 -1.078,0 -1.666,0.434 -0.588,0.434 -0.588,1.218 0,0.28 0.084,0.49 0.084,0.21 0.28,0.378 0.21,0.154 0.392,0.266 0.182,0.112 0.574,0.224 0.392,0.112 0.63,0.168 0.238,0.042 0.742,0.154 0.616,0.126 1.022,0.238 0.406,0.098 0.966,0.336 0.56,0.238 0.882,0.532 0.336,0.28 0.574,0.756 0.252,0.476 0.252,1.078 0,1.05 -0.588,1.764 -0.588,0.7 -1.428,0.98 -0.84,0.28 -1.862,0.28 -1.876,0 -3.01,-0.882 -1.12,-0.896 -1.12,-2.632 h 1.274 q 0.042,1.274 0.854,1.862 0.812,0.574 2.114,0.574 1.022,0 1.75,-0.42 0.728,-0.434 0.728,-1.4 0,-0.448 -0.196,-0.756 -0.196,-0.322 -0.616,-0.518 -0.42,-0.21 -0.84,-0.336 -0.42,-0.126 -1.106,-0.28 -0.098,-0.014 -0.14,-0.028 -1.54,-0.35 -2.016,-0.56 -1.456,-0.63 -1.456,-2.17 0,-1.428 1.05,-2.128 1.064,-0.714 2.562,-0.714 1.638,0 2.618,0.784 0.98,0.784 1.036,2.338 z"
         id="path3629" />
    </g>
  </a>
  <path
     id="rect3286"
     style="fill:#320000;stroke:#320000;stroke-width:0.919135"
     d="m 410.39377,344.21605 h 5.51481 c 5.09201,0 9.19135,4.09934 9.19135,9.19136 v 11.02962 c 0,5.092 -4.09934,9.19135 -9.19135,9.19135 h -5.51481 c -5.09201,0 -9.19135,-4.09935 -9.19135,-9.19135 v -11.02962 c 0,-5.09202 4.09934,-9.19136 9.19135,-9.19136 z" />
  <path
     id="rect3288"
     class="terminal"
     style="fill:#ff0000;stroke:#320000;stroke-width:0.919135"
     d="m 408.55551,342.37779 h 5.5148 c 5.09201,0 9.19135,4.09933 9.19135,9.19135 v 11.02962 c 0,5.092 -4.09934,9.19134 -9.19135,9.19134 h -5.5148 c -5.09202,0 -9.19136,-4.09934 -9.19136,-9.19134 v -11.02962 c 0,-5.09202 4.09934,-9.19135 9.19136,-9.19135 z" />
  <g
     aria-label=")"
     id="text3290"
     class="terminal"
     style="font-weight:bold;font-size:14px;font-family:HelveticaNeueCyr, Sans-serif;fill:#ffe0e0"
     transform="matrix(0.919135,0,0,0.919135,-0.45956751,-0.45956751)">
    <path
       d="m 444.944,382.878 h 1.652 q 1.862,2.856 1.862,6.23 0,1.582 -0.49,3.416 -0.49,1.834 -1.344,2.968 h -1.666 q 0.84,-1.708 1.19,-3.15 0.364,-1.456 0.364,-3.262 0,-3.388 -1.568,-6.202 z"
       id="path3612" />
  </g>
  <path
     id="rect3292"
     style="fill:#320000;stroke:#320000;stroke-width:0.919135"
     d="m 452.67399,344.21605 h 16.54442 c 5.09201,0 9.19135,4.09934 9.19135,9.19136 v 11.02962 c 0,5.092 -4.09934,9.19135 -9.19135,9.19135 h -16.54442 c -5.09202,0 -9.19136,-4.09935 -9.19136,-9.19135 v -11.02962 c 0,-5.09202 4.09934,-9.19136 9.19136,-9.19136 z" />
  <path
     id="rect3294"
     class="terminal"
     style="fill:#ff0000;stroke:#320000;stroke-width:0.919135"
     d="m 450.83572,342.37779 h 16.54442 c 5.09201,0 9.19136,4.09933 9.19136,9.19135 v 11.02962 c 0,5.092 -4.09935,9.19134 -9.19136,9.19134 h -16.54442 c -5.09201,0 -9.19135,-4.09934 -9.19135,-9.19134 v -11.02962 c 0,-5.09202 4.09934,-9.19135 9.19135,-9.19135 z" />
  <g
     aria-label="AS"
     id="text3296"
     class="terminal"
     style="font-weight:bold;font-size:14px;font-family:HelveticaNeueCyr, Sans-serif;fill:#ffe0e0"
     transform="matrix(0.919135,0,0,0.919135,-0.45956751,-0.45956751)">
    <path
       d="m 496.922,383.018 3.794,9.982 h -2.296 l -0.784,-2.226 h -3.71 L 493.114,393 h -2.24 l 3.794,-9.982 z m 0.182,6.16 -1.316,-3.71 -1.33,3.71 z"
       id="path3605" />
    <path
       d="m 508.93399,386 h -2.072 q -0.126,-1.484 -1.89,-1.484 -0.756,0 -1.19,0.308 -0.42,0.294 -0.42,0.826 0,0.182 0.056,0.322 0.056,0.14 0.21,0.266 0.154,0.112 0.308,0.196 0.154,0.07 0.448,0.168 0.308,0.084 0.546,0.154 0.252,0.07 0.7,0.182 0.448,0.112 0.784,0.21 1.47,0.42 2.184,1.05 0.728,0.63 0.728,1.806 0,0.854 -0.35,1.498 -0.35,0.63 -0.952,1.008 -0.588,0.364 -1.302,0.532 -0.7,0.182 -1.498,0.182 -2.03,0 -3.178,-0.924 -1.134,-0.938 -1.148,-2.632 h 2.17 q 0.056,1.876 2.254,1.876 0.854,0 1.344,-0.35 0.504,-0.364 0.504,-0.98 0,-0.518 -0.462,-0.756 -0.448,-0.238 -1.904,-0.658 -0.238,-0.056 -0.364,-0.098 -0.504,-0.14 -0.7,-0.196 -0.196,-0.07 -0.63,-0.224 -0.42,-0.154 -0.616,-0.28 -0.196,-0.126 -0.49,-0.35 -0.28,-0.224 -0.406,-0.462 -0.126,-0.252 -0.238,-0.602 -0.098,-0.364 -0.098,-0.784 0,-1.358 1.05,-2.17 1.05,-0.812 2.786,-0.812 1.68,0 2.744,0.798 1.064,0.784 1.092,2.38 z"
       id="path3607" />
  </g>
  <a
     xlink:href="#name"
     xlink:title="name"
     id="a3304"
     transform="matrix(0.919135,0,0,0.919135,-0.45956751,-0.45956751)">
    <path
       id="rect3298"
       style="fill:#320000;stroke:#320000"
       d="m 541,375 h 56 v 32 h -56 z" />
    <path
       id="rect3300"
       class="nonterminal"
       style="fill:#ff3f3f;stroke:#320000"
       d="m 539,373 h 56 v 32 h -56 z" />
    <g
       aria-label="name"
       id="text3302"
       class="nonterminal"
       style="font-size:14px;font-family:HelveticaNeueCyr, Sans-serif;fill:#ffe0e0">
      <path
         d="m 551.016,385.776 v 1.12 q 0.896,-1.316 2.464,-1.316 1.274,0 1.834,0.672 0.574,0.658 0.574,1.946 V 393 h -1.19 v -4.256 q 0,-0.532 -0.042,-0.826 -0.028,-0.308 -0.168,-0.644 -0.14,-0.35 -0.476,-0.504 -0.336,-0.154 -0.868,-0.154 -2.058,0 -2.058,2.604 V 393 h -1.19 v -7.224 z"
         id="path3596" />
      <path
         d="m 564.078,392.048 v 0.924 q -0.364,0.14 -0.812,0.14 -1.022,0 -1.05,-1.064 -1.022,1.148 -2.618,1.148 -1.064,0 -1.694,-0.546 -0.616,-0.546 -0.616,-1.498 0,-1.932 2.562,-2.254 1.512,-0.182 1.75,-0.266 0.504,-0.168 0.546,-0.7 0.014,-0.084 0.014,-0.182 0,-1.19 -1.638,-1.19 -0.84,0 -1.274,0.35 -0.434,0.336 -0.518,1.12 h -1.162 q 0.028,-1.162 0.826,-1.806 0.798,-0.644 2.198,-0.644 1.526,0 2.268,0.7 0.238,0.224 0.35,0.588 0.112,0.364 0.126,0.602 0.014,0.224 0.014,0.686 0,0.546 -0.028,1.624 -0.028,1.064 -0.028,1.596 0,0.392 0.098,0.56 0.112,0.154 0.392,0.154 0.112,0 0.294,-0.042 z m -1.918,-2.8 q -0.126,0.098 -0.266,0.168 -0.14,0.07 -0.364,0.112 -0.21,0.042 -0.294,0.07 -0.07,0.014 -0.364,0.056 -0.294,0.028 -0.308,0.028 -0.434,0.056 -0.574,0.084 -0.126,0.014 -0.504,0.112 -0.364,0.098 -0.518,0.224 -0.154,0.126 -0.308,0.378 -0.14,0.238 -0.14,0.574 0,0.56 0.378,0.882 0.392,0.322 1.064,0.322 0.854,0 1.526,-0.504 0.672,-0.504 0.672,-1.19 z"
         id="path3598" />
      <path
         d="m 566.31801,385.776 v 1.05 q 0.476,-0.644 1.022,-0.938 0.546,-0.294 1.33,-0.294 1.484,0 2.002,1.246 0.938,-1.26 2.394,-1.26 1.12,0 1.694,0.63 0.588,0.616 0.588,1.736 V 393 h -1.19 v -4.55 q 0,-0.896 -0.28,-1.344 -0.28,-0.462 -1.162,-0.462 -1.848,0 -1.848,2.254 V 393 h -1.19 v -4.634 q 0,-0.826 -0.28,-1.26 -0.266,-0.448 -1.05,-0.448 -1.106,0 -1.54,0.686 -0.42,0.672 -0.42,1.834 V 393 h -1.19 v -7.224 z"
         id="path3600" />
      <path
         d="m 583.31401,390.718 q -0.546,2.52 -3.15,2.52 -1.596,0 -2.506,-0.994 -0.896,-0.994 -0.896,-2.758 0,-1.75 0.924,-2.828 0.938,-1.092 2.436,-1.092 1.666,0 2.464,1.134 0.812,1.12 0.812,2.842 v 0.168 h -5.432 l -0.014,0.084 q 0,1.148 0.602,1.806 0.602,0.658 1.652,0.658 0.784,0 1.232,-0.364 0.462,-0.364 0.714,-1.176 z m -1.148,-1.974 q -0.084,-1.036 -0.63,-1.61 -0.546,-0.588 -1.442,-0.588 -0.868,0 -1.442,0.588 -0.574,0.588 -0.686,1.61 z"
         id="path3602" />
    </g>
  </a>
  <path
     id="rect3306"
     style="fill:#320000;stroke:#320000;stroke-width:0.919135"
     d="m 594.22077,274.3618 h 18.3827 c 5.09201,0 9.19135,4.09934 9.19135,9.19135 v 11.02962 c 0,5.092 -4.09934,9.19134 -9.19135,9.19134 h -18.3827 c -5.092,0 -9.19135,-4.09934 -9.19135,-9.19134 v -11.02962 c 0,-5.09201 4.09935,-9.19135 9.19135,-9.19135 z" />
  <path
     id="rect3308"
     class="terminal"
     style="fill:#ff0000;stroke:#320000;stroke-width:0.919135"
     d="m 592.3825,272.52353 h 18.3827 c 5.09201,0 9.19136,4.09934 9.19136,9.19134 v 11.02962 c 0,5.09201 -4.09935,9.19135 -9.19136,9.19135 h -18.3827 c -5.092,0 -9.19135,-4.09934 -9.19135,-9.19135 v -11.02962 c 0,-5.092 4.09935,-9.19134 9.19135,-9.19134 z" />
  <g
     aria-label="ON"
     id="text3310"
     class="terminal"
     style="font-weight:bold;font-size:14px;font-family:HelveticaNeueCyr, Sans-serif;fill:#ffe0e0"
     transform="matrix(0.919135,0,0,0.919135,-0.45956751,-0.45956751)">
    <path
       d="m 650.474,306.794 q 2.184,0 3.528,1.456 1.358,1.442 1.358,3.78 0,2.338 -1.358,3.78 -1.344,1.428 -3.542,1.428 -2.212,0 -3.57,-1.428 -1.358,-1.442 -1.358,-3.78 0,-2.366 1.344,-3.794 1.358,-1.442 3.598,-1.442 z m -0.028,1.792 q -1.232,0 -1.974,0.924 -0.728,0.924 -0.728,2.478 0,1.61 0.728,2.52 0.728,0.91 2.002,0.924 1.246,0 1.96,-0.924 0.714,-0.924 0.714,-2.52 0,-1.568 -0.728,-2.478 -0.728,-0.924 -1.974,-0.924 z"
       id="path3587" />
    <path
       d="m 656.858,317 v -9.968 h 2.226 l 4.102,6.678 v -6.678 h 2.1 V 317 h -2.184 l -4.13,-6.692 V 317 Z"
       id="path3589" />
  </g>
  <a
     xlink:href="#expression"
     xlink:title="expression"
     id="a3318"
     transform="matrix(0.919135,0,0,0.919135,-0.45956751,-0.45956751)">
    <path
       id="rect3312"
       style="fill:#320000;stroke:#320000"
       d="m 697,299 h 90 v 32 h -90 z" />
    <path
       id="rect3314"
       class="nonterminal"
       style="fill:#ff3f3f;stroke:#320000"
       d="m 695,297 h 90 v 32 h -90 z" />
    <g
       aria-label="expression"
       id="text3316"
       class="nonterminal"
       style="font-size:14px;font-family:HelveticaNeueCyr, Sans-serif;fill:#ffe0e0">
      <path
         d="m 712.07,314.718 q -0.546,2.52 -3.15,2.52 -1.596,0 -2.506,-0.994 -0.896,-0.994 -0.896,-2.758 0,-1.75 0.924,-2.828 0.938,-1.092 2.436,-1.092 1.666,0 2.464,1.134 0.812,1.12 0.812,2.842 v 0.168 h -5.432 l -0.014,0.084 q 0,1.148 0.602,1.806 0.602,0.658 1.652,0.658 0.784,0 1.232,-0.364 0.462,-0.364 0.714,-1.176 z m -1.148,-1.974 q -0.084,-1.036 -0.63,-1.61 -0.546,-0.588 -1.442,-0.588 -0.868,0 -1.442,0.588 -0.574,0.588 -0.686,1.61 z"
         id="path3566" />
      <path
         d="m 719.35001,309.776 -2.52,3.332 2.814,3.892 h -1.526 l -2.03,-2.968 -2.002,2.968 h -1.442 l 2.716,-3.808 -2.506,-3.416 h 1.512 l 1.75,2.478 1.792,-2.478 z"
         id="path3568" />
      <path
         d="m 721.786,309.776 v 1.022 q 0.784,-1.246 2.436,-1.246 1.512,0 2.394,1.022 0.896,1.022 0.896,2.772 0,1.75 -0.882,2.8 -0.868,1.036 -2.352,1.036 -1.554,0 -2.422,-1.19 v 3.794 h -1.19 v -10.01 z m 2.254,0.77 q -1.036,0 -1.638,0.756 -0.588,0.742 -0.588,2.058 0,1.316 0.602,2.072 0.616,0.742 1.666,0.742 1.022,0 1.61,-0.756 0.588,-0.756 0.588,-2.058 0,-1.316 -0.602,-2.058 -0.588,-0.756 -1.638,-0.756 z"
         id="path3570" />
      <path
         d="m 732.73401,309.608 v 1.232 q -0.126,-0.014 -0.308,-0.014 -0.574,0 -0.994,0.182 -0.42,0.168 -0.672,0.448 -0.238,0.28 -0.392,0.7 -0.154,0.42 -0.21,0.84 -0.042,0.42 -0.042,0.952 V 317 h -1.19 v -7.224 h 1.134 v 1.554 q 0.714,-1.722 2.674,-1.722 z"
         id="path3572" />
      <path
         d="m 739.55202,314.718 q -0.546,2.52 -3.15,2.52 -1.596,0 -2.506,-0.994 -0.896,-0.994 -0.896,-2.758 0,-1.75 0.924,-2.828 0.938,-1.092 2.436,-1.092 1.666,0 2.464,1.134 0.812,1.12 0.812,2.842 v 0.168 h -5.432 l -0.014,0.084 q 0,1.148 0.602,1.806 0.602,0.658 1.652,0.658 0.784,0 1.232,-0.364 0.462,-0.364 0.714,-1.176 z m -1.148,-1.974 q -0.084,-1.036 -0.63,-1.61 -0.546,-0.588 -1.442,-0.588 -0.868,0 -1.442,0.588 -0.574,0.588 -0.686,1.61 z"
         id="path3574" />
      <path
         d="m 746.25803,311.876 h -1.19 q -0.112,-1.316 -1.764,-1.316 -0.686,0 -1.078,0.266 -0.392,0.266 -0.392,0.714 0,0.126 0.028,0.252 0.028,0.112 0.098,0.21 0.084,0.084 0.14,0.154 0.07,0.07 0.21,0.14 0.154,0.056 0.224,0.098 0.084,0.042 0.28,0.098 0.21,0.042 0.294,0.07 0.084,0.014 0.322,0.07 0.252,0.056 0.322,0.07 0.518,0.112 0.77,0.182 0.266,0.07 0.714,0.266 0.462,0.182 0.7,0.392 0.238,0.196 0.42,0.56 0.196,0.35 0.196,0.798 0,1.05 -0.826,1.694 -0.812,0.63 -2.17,0.63 -1.47,0 -2.268,-0.644 -0.784,-0.644 -0.84,-1.862 h 1.176 q 0.098,1.526 1.96,1.526 0.798,0 1.274,-0.322 0.49,-0.336 0.49,-0.882 0,-0.364 -0.252,-0.602 -0.252,-0.238 -0.56,-0.336 -0.308,-0.112 -0.882,-0.252 -0.084,-0.014 -0.126,-0.028 -0.126,-0.028 -0.546,-0.112 -0.406,-0.098 -0.588,-0.154 -0.182,-0.056 -0.532,-0.168 -0.336,-0.126 -0.504,-0.252 -0.168,-0.14 -0.378,-0.336 -0.196,-0.21 -0.28,-0.476 -0.084,-0.28 -0.084,-0.63 0,-0.98 0.742,-1.554 0.756,-0.574 2.016,-0.574 1.274,0 2.072,0.602 0.812,0.602 0.812,1.708 z"
         id="path3576" />
      <path
         d="m 753.25803,311.876 h -1.19 q -0.112,-1.316 -1.764,-1.316 -0.686,0 -1.078,0.266 -0.392,0.266 -0.392,0.714 0,0.126 0.028,0.252 0.028,0.112 0.098,0.21 0.084,0.084 0.14,0.154 0.07,0.07 0.21,0.14 0.154,0.056 0.224,0.098 0.084,0.042 0.28,0.098 0.21,0.042 0.294,0.07 0.084,0.014 0.322,0.07 0.252,0.056 0.322,0.07 0.518,0.112 0.77,0.182 0.266,0.07 0.714,0.266 0.462,0.182 0.7,0.392 0.238,0.196 0.42,0.56 0.196,0.35 0.196,0.798 0,1.05 -0.826,1.694 -0.812,0.63 -2.17,0.63 -1.47,0 -2.268,-0.644 -0.784,-0.644 -0.84,-1.862 h 1.176 q 0.098,1.526 1.96,1.526 0.798,0 1.274,-0.322 0.49,-0.336 0.49,-0.882 0,-0.364 -0.252,-0.602 -0.252,-0.238 -0.56,-0.336 -0.308,-0.112 -0.882,-0.252 -0.084,-0.014 -0.126,-0.028 -0.126,-0.028 -0.546,-0.112 -0.406,-0.098 -0.588,-0.154 -0.182,-0.056 -0.532,-0.168 -0.336,-0.126 -0.504,-0.252 -0.168,-0.14 -0.378,-0.336 -0.196,-0.21 -0.28,-0.476 -0.084,-0.28 -0.084,-0.63 0,-0.98 0.742,-1.554 0.756,-0.574 2.016,-0.574 1.274,0 2.072,0.602 0.812,0.602 0.812,1.708 z"
         id="path3578" />
      <path
         d="m 756.15603,307.032 v 1.456 h -1.204 v -1.456 z m 0,2.744 V 317 h -1.204 v -7.224 z"
         id="path3580" />
      <path
         d="m 758.57803,310.602 q 0.952,-1.036 2.59,-1.036 1.638,0 2.548,0.994 0.91,0.994 0.91,2.786 0,1.834 -0.91,2.856 -0.91,1.022 -2.562,1.022 -1.652,0 -2.59,-1.008 -0.938,-1.008 -0.938,-2.8 0,-1.778 0.952,-2.814 z m 4.214,0.728 q -0.602,-0.77 -1.652,-0.77 -1.05,0 -1.666,0.77 -0.616,0.77 -0.616,2.058 0,1.33 0.602,2.086 0.616,0.742 1.708,0.742 1.05,0 1.638,-0.756 0.602,-0.756 0.602,-2.086 0,-1.288 -0.616,-2.044 z"
         id="path3582" />
      <path
         d="m 767.16002,309.776 v 1.12 q 0.896,-1.316 2.464,-1.316 1.274,0 1.834,0.672 0.574,0.658 0.574,1.946 V 317 h -1.19 v -4.256 q 0,-0.532 -0.042,-0.826 -0.028,-0.308 -0.168,-0.644 -0.14,-0.35 -0.476,-0.504 -0.336,-0.154 -0.868,-0.154 -2.058,0 -2.058,2.604 V 317 h -1.19 v -7.224 z"
         id="path3584" />
    </g>
  </a>
  <path
     id="rect3320"
     style="fill:#320000;stroke:#320000;stroke-width:0.919135"
     d="m 285.39142,515.17516 h 45.95675 c 5.092,0 9.19135,4.09935 9.19135,9.19135 v 11.02962 c 0,5.09201 -4.09935,9.19135 -9.19135,9.19135 h -45.95675 c -5.09202,0 -9.19136,-4.09934 -9.19136,-9.19135 v -11.02962 c 0,-5.092 4.09934,-9.19135 9.19136,-9.19135 z" />
  <path
     id="rect3322"
     class="terminal"
     style="fill:#ff0000;stroke:#320000;stroke-width:0.919135"
     d="m 283.55315,513.33689 h 45.95675 c 5.092,0 9.19135,4.09934 9.19135,9.19135 v 11.02962 c 0,5.09201 -4.09935,9.19136 -9.19135,9.19136 h -45.95675 c -5.09201,0 -9.19135,-4.09935 -9.19135,-9.19136 v -11.02962 c 0,-5.09201 4.09934,-9.19135 9.19135,-9.19135 z" />
  <g
     aria-label="WHERE"
     id="text3324"
     class="terminal"
     style="font-weight:bold;font-size:14px;font-family:HelveticaNeueCyr, Sans-serif;fill:#ffe0e0"
     transform="matrix(0.919135,0,0,0.919135,-0.45956751,-0.45956751)">
    <path
       d="m 309.042,569.032 h 2.198 l 1.596,6.776 1.75,-6.776 h 2.058 l 1.722,6.86 1.652,-6.86 h 2.156 L 319.486,579 h -2.184 l -1.708,-6.804 -1.68,6.804 h -2.226 z"
       id="path3551" />
    <path
       d="M 331.624,569.032 V 579 h -2.184 v -4.298 h -4.074 V 579 h -2.184 v -9.968 h 2.184 v 3.752 h 4.074 v -3.752 z"
       id="path3553" />
    <path
       d="m 341.03199,569.032 v 1.792 h -5.306 v 2.17 h 4.872 v 1.722 h -4.872 v 2.45 h 5.404 V 579 h -7.574 v -9.968 z"
       id="path3555" />
    <path
       d="m 342.712,569.032 h 4.956 q 1.484,0 2.422,0.7 0.938,0.7 0.938,2.128 0,0.868 -0.42,1.526 -0.42,0.644 -1.162,0.924 1.288,0.266 1.47,2.324 0,0.07 0.028,0.434 0.028,0.364 0.056,0.588 0.028,0.21 0.07,0.518 0.042,0.308 0.126,0.518 0.084,0.21 0.196,0.308 h -2.268 q -0.112,-0.224 -0.168,-0.56 -0.056,-0.35 -0.098,-0.882 -0.042,-0.546 -0.042,-0.602 -0.112,-1.05 -0.532,-1.456 -0.406,-0.406 -1.456,-0.406 h -1.946 V 579 h -2.17 z m 2.17,1.722 v 2.758 h 2.072 q 0.91,0 1.414,-0.28 0.518,-0.294 0.518,-1.134 0,-0.784 -0.504,-1.064 -0.49,-0.28 -1.33,-0.28 z"
       id="path3557" />
    <path
       d="m 360.212,569.032 v 1.792 h -5.306 v 2.17 h 4.872 v 1.722 h -4.872 v 2.45 h 5.404 V 579 h -7.574 v -9.968 z"
       id="path3559" />
  </g>
  <a
     xlink:href="#expression"
     xlink:title="expression"
     id="a3332"
     transform="matrix(0.919135,0,0,0.919135,-0.45956751,-0.45956751)">
    <path
       id="rect3326"
       style="fill:#320000;stroke:#320000"
       d="m 391,561 h 90 v 32 h -90 z" />
    <path
       id="rect3328"
       class="nonterminal"
       style="fill:#ff3f3f;stroke:#320000"
       d="m 389,559 h 90 v 32 h -90 z" />
    <g
       aria-label="expression"
       id="text3330"
       class="nonterminal"
       style="font-size:14px;font-family:HelveticaNeueCyr, Sans-serif;fill:#ffe0e0">
      <path
         d="m 406.07,576.718 q -0.546,2.52 -3.15,2.52 -1.596,0 -2.506,-0.994 -0.896,-0.994 -0.896,-2.758 0,-1.75 0.924,-2.828 0.938,-1.092 2.436,-1.092 1.666,0 2.464,1.134 0.812,1.12 0.812,2.842 v 0.168 h -5.432 l -0.014,0.084 q 0,1.148 0.602,1.806 0.602,0.658 1.652,0.658 0.784,0 1.232,-0.364 0.462,-0.364 0.714,-1.176 z m -1.148,-1.974 q -0.084,-1.036 -0.63,-1.61 -0.546,-0.588 -1.442,-0.588 -0.868,0 -1.442,0.588 -0.574,0.588 -0.686,1.61 z"
         id="path3530" />
      <path
         d="m 413.35001,571.776 -2.52,3.332 2.814,3.892 h -1.526 l -2.03,-2.968 -2.002,2.968 h -1.442 l 2.716,-3.808 -2.506,-3.416 h 1.512 l 1.75,2.478 1.792,-2.478 z"
         id="path3532" />
      <path
         d="m 415.786,571.776 v 1.022 q 0.784,-1.246 2.436,-1.246 1.512,0 2.394,1.022 0.896,1.022 0.896,2.772 0,1.75 -0.882,2.8 -0.868,1.036 -2.352,1.036 -1.554,0 -2.422,-1.19 v 3.794 h -1.19 v -10.01 z m 2.254,0.77 q -1.036,0 -1.638,0.756 -0.588,0.742 -0.588,2.058 0,1.316 0.602,2.072 0.616,0.742 1.666,0.742 1.022,0 1.61,-0.756 0.588,-0.756 0.588,-2.058 0,-1.316 -0.602,-2.058 -0.588,-0.756 -1.638,-0.756 z"
         id="path3534" />
      <path
         d="m 426.73401,571.608 v 1.232 q -0.126,-0.014 -0.308,-0.014 -0.574,0 -0.994,0.182 -0.42,0.168 -0.672,0.448 -0.238,0.28 -0.392,0.7 -0.154,0.42 -0.21,0.84 -0.042,0.42 -0.042,0.952 V 579 h -1.19 v -7.224 h 1.134 v 1.554 q 0.714,-1.722 2.674,-1.722 z"
         id="path3536" />
      <path
         d="m 433.55202,576.718 q -0.546,2.52 -3.15,2.52 -1.596,0 -2.506,-0.994 -0.896,-0.994 -0.896,-2.758 0,-1.75 0.924,-2.828 0.938,-1.092 2.436,-1.092 1.666,0 2.464,1.134 0.812,1.12 0.812,2.842 v 0.168 h -5.432 l -0.014,0.084 q 0,1.148 0.602,1.806 0.602,0.658 1.652,0.658 0.784,0 1.232,-0.364 0.462,-0.364 0.714,-1.176 z m -1.148,-1.974 q -0.084,-1.036 -0.63,-1.61 -0.546,-0.588 -1.442,-0.588 -0.868,0 -1.442,0.588 -0.574,0.588 -0.686,1.61 z"
         id="path3538" />
      <path
         d="m 440.25803,573.876 h -1.19 q -0.112,-1.316 -1.764,-1.316 -0.686,0 -1.078,0.266 -0.392,0.266 -0.392,0.714 0,0.126 0.028,0.252 0.028,0.112 0.098,0.21 0.084,0.084 0.14,0.154 0.07,0.07 0.21,0.14 0.154,0.056 0.224,0.098 0.084,0.042 0.28,0.098 0.21,0.042 0.294,0.07 0.084,0.014 0.322,0.07 0.252,0.056 0.322,0.07 0.518,0.112 0.77,0.182 0.266,0.07 0.714,0.266 0.462,0.182 0.7,0.392 0.238,0.196 0.42,0.56 0.196,0.35 0.196,0.798 0,1.05 -0.826,1.694 -0.812,0.63 -2.17,0.63 -1.47,0 -2.268,-0.644 -0.784,-0.644 -0.84,-1.862 h 1.176 q 0.098,1.526 1.96,1.526 0.798,0 1.274,-0.322 0.49,-0.336 0.49,-0.882 0,-0.364 -0.252,-0.602 -0.252,-0.238 -0.56,-0.336 -0.308,-0.112 -0.882,-0.252 -0.084,-0.014 -0.126,-0.028 -0.126,-0.028 -0.546,-0.112 -0.406,-0.098 -0.588,-0.154 -0.182,-0.056 -0.532,-0.168 -0.336,-0.126 -0.504,-0.252 -0.168,-0.14 -0.378,-0.336 -0.196,-0.21 -0.28,-0.476 -0.084,-0.28 -0.084,-0.63 0,-0.98 0.742,-1.554 0.756,-0.574 2.016,-0.574 1.274,0 2.072,0.602 0.812,0.602 0.812,1.708 z"
         id="path3540" />
      <path
         d="m 447.25803,573.876 h -1.19 q -0.112,-1.316 -1.764,-1.316 -0.686,0 -1.078,0.266 -0.392,0.266 -0.392,0.714 0,0.126 0.028,0.252 0.028,0.112 0.098,0.21 0.084,0.084 0.14,0.154 0.07,0.07 0.21,0.14 0.154,0.056 0.224,0.098 0.084,0.042 0.28,0.098 0.21,0.042 0.294,0.07 0.084,0.014 0.322,0.07 0.252,0.056 0.322,0.07 0.518,0.112 0.77,0.182 0.266,0.07 0.714,0.266 0.462,0.182 0.7,0.392 0.238,0.196 0.42,0.56 0.196,0.35 0.196,0.798 0,1.05 -0.826,1.694 -0.812,0.63 -2.17,0.63 -1.47,0 -2.268,-0.644 -0.784,-0.644 -0.84,-1.862 h 1.176 q 0.098,1.526 1.96,1.526 0.798,0 1.274,-0.322 0.49,-0.336 0.49,-0.882 0,-0.364 -0.252,-0.602 -0.252,-0.238 -0.56,-0.336 -0.308,-0.112 -0.882,-0.252 -0.084,-0.014 -0.126,-0.028 -0.126,-0.028 -0.546,-0.112 -0.406,-0.098 -0.588,-0.154 -0.182,-0.056 -0.532,-0.168 -0.336,-0.126 -0.504,-0.252 -0.168,-0.14 -0.378,-0.336 -0.196,-0.21 -0.28,-0.476 -0.084,-0.28 -0.084,-0.63 0,-0.98 0.742,-1.554 0.756,-0.574 2.016,-0.574 1.274,0 2.072,0.602 0.812,0.602 0.812,1.708 z"
         id="path3542" />
      <path
         d="m 450.15603,569.032 v 1.456 h -1.204 v -1.456 z m 0,2.744 V 579 h -1.204 v -7.224 z"
         id="path3544" />
      <path
         d="m 452.57803,572.602 q 0.952,-1.036 2.59,-1.036 1.638,0 2.548,0.994 0.91,0.994 0.91,2.786 0,1.834 -0.91,2.856 -0.91,1.022 -2.562,1.022 -1.652,0 -2.59,-1.008 -0.938,-1.008 -0.938,-2.8 0,-1.778 0.952,-2.814 z m 4.214,0.728 q -0.602,-0.77 -1.652,-0.77 -1.05,0 -1.666,0.77 -0.616,0.77 -0.616,2.058 0,1.33 0.602,2.086 0.616,0.742 1.708,0.742 1.05,0 1.638,-0.756 0.602,-0.756 0.602,-2.086 0,-1.288 -0.616,-2.044 z"
         id="path3546" />
      <path
         d="m 461.16002,571.776 v 1.12 q 0.896,-1.316 2.464,-1.316 1.274,0 1.834,0.672 0.574,0.658 0.574,1.946 V 579 h -1.19 v -4.256 q 0,-0.532 -0.042,-0.826 -0.028,-0.308 -0.168,-0.644 -0.14,-0.35 -0.476,-0.504 -0.336,-0.154 -0.868,-0.154 -2.058,0 -2.058,2.604 V 579 h -1.19 v -7.224 z"
         id="path3548" />
    </g>
  </a>
  <path
     id="rect3334"
     style="fill:#320000;stroke:#320000;stroke-width:0.919135"
     d="m 505.98381,485.76285 h 64.33945 c 5.09201,0 9.19135,4.09934 9.19135,9.19134 v 11.02962 c 0,5.09201 -4.09934,9.19135 -9.19135,9.19135 h -64.33945 c -5.092,0 -9.19134,-4.09934 -9.19134,-9.19135 v -11.02962 c 0,-5.092 4.09934,-9.19134 9.19134,-9.19134 z" />
  <path
     id="rect3336"
     class="terminal"
     style="fill:#ff0000;stroke:#320000;stroke-width:0.919135"
     d="m 504.14554,483.92457 h 64.33945 c 5.09201,0 9.19135,4.09935 9.19135,9.19135 v 11.02962 c 0,5.09201 -4.09934,9.19135 -9.19135,9.19135 h -64.33945 c -5.092,0 -9.19135,-4.09934 -9.19135,-9.19135 v -11.02962 c 0,-5.092 4.09935,-9.19135 9.19135,-9.19135 z" />
  <g
     aria-label="GROUP BY"
     id="text3338"
     class="terminal"
     style="font-weight:bold;font-size:14px;font-family:HelveticaNeueCyr, Sans-serif;fill:#ffe0e0"
     transform="matrix(0.919135,0,0,0.919135,-0.45956751,-0.45956751)">
    <path
       d="M 558.842,541.61 V 547 h -1.386 l -0.21,-1.134 q -1.12,1.372 -2.996,1.372 -2.086,0 -3.388,-1.442 -1.302,-1.442 -1.302,-3.738 0,-2.31 1.372,-3.766 1.372,-1.47 3.528,-1.47 1.708,0 2.884,0.966 1.176,0.952 1.372,2.52 h -2.114 q -0.154,-0.784 -0.728,-1.218 -0.574,-0.434 -1.442,-0.434 -1.246,0 -1.96,0.91 -0.714,0.896 -0.714,2.492 0,1.624 0.714,2.534 0.728,0.896 2.03,0.896 1.022,0 1.68,-0.616 0.658,-0.63 0.7,-1.638 h -2.226 v -1.624 z"
       id="path3511" />
    <path
       d="m 560.67601,537.032 h 4.956 q 1.484,0 2.422,0.7 0.938,0.7 0.938,2.128 0,0.868 -0.42,1.526 -0.42,0.644 -1.162,0.924 1.288,0.266 1.47,2.324 0,0.07 0.028,0.434 0.028,0.364 0.056,0.588 0.028,0.21 0.07,0.518 0.042,0.308 0.126,0.518 0.084,0.21 0.196,0.308 h -2.268 q -0.112,-0.224 -0.168,-0.56 -0.056,-0.35 -0.098,-0.882 -0.042,-0.546 -0.042,-0.602 -0.112,-1.05 -0.532,-1.456 -0.406,-0.406 -1.456,-0.406 h -1.946 V 547 h -2.17 z m 2.17,1.722 v 2.758 h 2.072 q 0.91,0 1.414,-0.28 0.518,-0.294 0.518,-1.134 0,-0.784 -0.504,-1.064 -0.49,-0.28 -1.33,-0.28 z"
       id="path3513" />
    <path
       d="m 575.20801,536.794 q 2.184,0 3.528,1.456 1.358,1.442 1.358,3.78 0,2.338 -1.358,3.78 -1.344,1.428 -3.542,1.428 -2.212,0 -3.57,-1.428 -1.358,-1.442 -1.358,-3.78 0,-2.366 1.344,-3.794 1.358,-1.442 3.598,-1.442 z m -0.028,1.792 q -1.232,0 -1.974,0.924 -0.728,0.924 -0.728,2.478 0,1.61 0.728,2.52 0.728,0.91 2.002,0.924 1.246,0 1.96,-0.924 0.714,-0.924 0.714,-2.52 0,-1.568 -0.728,-2.478 -0.728,-0.924 -1.974,-0.924 z"
       id="path3515" />
    <path
       d="m 590.07601,537.032 v 5.992 q 0,2.142 -1.036,3.164 -1.022,1.008 -3.206,1.008 -2.212,0 -3.262,-1.022 -1.036,-1.036 -1.036,-3.178 v -5.964 h 2.184 v 5.964 q 0,1.218 0.462,1.806 0.462,0.588 1.68,0.588 1.176,0 1.596,-0.588 0.434,-0.588 0.434,-1.806 v -5.964 z"
       id="path3517" />
    <path
       d="m 591.98,537.032 h 4.298 q 1.68,0 2.66,0.812 0.994,0.798 0.994,2.394 0,1.568 -0.98,2.38 -0.98,0.798 -2.562,0.798 h -2.24 V 547 h -2.17 z m 2.17,1.792 v 2.87 h 1.946 q 1.708,0 1.708,-1.428 0,-1.442 -1.694,-1.442 z"
       id="path3519" />
    <path
       d="m 605.182,537.032 h 4.718 q 1.4,0 2.282,0.63 0.896,0.616 0.896,1.876 0,0.7 -0.364,1.246 -0.364,0.532 -0.994,0.812 1.82,0.518 1.82,2.436 0,1.414 -0.952,2.198 -0.952,0.77 -2.422,0.77 h -4.984 z m 2.128,1.694 v 2.338 h 1.988 q 1.652,0 1.652,-1.162 0,-0.686 -0.448,-0.924 -0.448,-0.252 -1.204,-0.252 z m 0,3.822 v 2.716 h 2.198 q 0.854,0 1.344,-0.28 0.504,-0.28 0.504,-1.078 0,-0.812 -0.532,-1.078 -0.518,-0.28 -1.428,-0.28 z"
       id="path3521" />
    <path
       d="m 623.55,537.032 -3.71,6.132 V 547 h -2.156 v -3.878 l -3.724,-6.09 h 2.492 l 2.324,3.99 2.352,-3.99 z"
       id="path3523" />
  </g>
  <a
     xlink:href="#expression"
     xlink:title="expression"
     id="a3346"
     transform="matrix(0.919135,0,0,0.919135,-0.45956751,-0.45956751)">
    <path
       id="rect3340"
       style="fill:#320000;stroke:#320000"
       d="m 671,529 h 90 v 32 h -90 z" />
    <path
       id="rect3342"
       class="nonterminal"
       style="fill:#ff3f3f;stroke:#320000"
       d="m 669,527 h 90 v 32 h -90 z" />
    <g
       aria-label="expression"
       id="text3344"
       class="nonterminal"
       style="font-size:14px;font-family:HelveticaNeueCyr, Sans-serif;fill:#ffe0e0">
      <path
         d="m 686.07,544.718 q -0.546,2.52 -3.15,2.52 -1.596,0 -2.506,-0.994 -0.896,-0.994 -0.896,-2.758 0,-1.75 0.924,-2.828 0.938,-1.092 2.436,-1.092 1.666,0 2.464,1.134 0.812,1.12 0.812,2.842 v 0.168 h -5.432 l -0.014,0.084 q 0,1.148 0.602,1.806 0.602,0.658 1.652,0.658 0.784,0 1.232,-0.364 0.462,-0.364 0.714,-1.176 z m -1.148,-1.974 q -0.084,-1.036 -0.63,-1.61 -0.546,-0.588 -1.442,-0.588 -0.868,0 -1.442,0.588 -0.574,0.588 -0.686,1.61 z"
         id="path3490" />
      <path
         d="m 693.35001,539.776 -2.52,3.332 2.814,3.892 h -1.526 l -2.03,-2.968 -2.002,2.968 h -1.442 l 2.716,-3.808 -2.506,-3.416 h 1.512 l 1.75,2.478 1.792,-2.478 z"
         id="path3492" />
      <path
         d="m 695.786,539.776 v 1.022 q 0.784,-1.246 2.436,-1.246 1.512,0 2.394,1.022 0.896,1.022 0.896,2.772 0,1.75 -0.882,2.8 -0.868,1.036 -2.352,1.036 -1.554,0 -2.422,-1.19 v 3.794 h -1.19 v -10.01 z m 2.254,0.77 q -1.036,0 -1.638,0.756 -0.588,0.742 -0.588,2.058 0,1.316 0.602,2.072 0.616,0.742 1.666,0.742 1.022,0 1.61,-0.756 0.588,-0.756 0.588,-2.058 0,-1.316 -0.602,-2.058 -0.588,-0.756 -1.638,-0.756 z"
         id="path3494" />
      <path
         d="m 706.73401,539.608 v 1.232 q -0.126,-0.014 -0.308,-0.014 -0.574,0 -0.994,0.182 -0.42,0.168 -0.672,0.448 -0.238,0.28 -0.392,0.7 -0.154,0.42 -0.21,0.84 -0.042,0.42 -0.042,0.952 V 547 h -1.19 v -7.224 h 1.134 v 1.554 q 0.714,-1.722 2.674,-1.722 z"
         id="path3496" />
      <path
         d="m 713.55202,544.718 q -0.546,2.52 -3.15,2.52 -1.596,0 -2.506,-0.994 -0.896,-0.994 -0.896,-2.758 0,-1.75 0.924,-2.828 0.938,-1.092 2.436,-1.092 1.666,0 2.464,1.134 0.812,1.12 0.812,2.842 v 0.168 h -5.432 l -0.014,0.084 q 0,1.148 0.602,1.806 0.602,0.658 1.652,0.658 0.784,0 1.232,-0.364 0.462,-0.364 0.714,-1.176 z m -1.148,-1.974 q -0.084,-1.036 -0.63,-1.61 -0.546,-0.588 -1.442,-0.588 -0.868,0 -1.442,0.588 -0.574,0.588 -0.686,1.61 z"
         id="path3498" />
      <path
         d="m 720.25803,541.876 h -1.19 q -0.112,-1.316 -1.764,-1.316 -0.686,0 -1.078,0.266 -0.392,0.266 -0.392,0.714 0,0.126 0.028,0.252 0.028,0.112 0.098,0.21 0.084,0.084 0.14,0.154 0.07,0.07 0.21,0.14 0.154,0.056 0.224,0.098 0.084,0.042 0.28,0.098 0.21,0.042 0.294,0.07 0.084,0.014 0.322,0.07 0.252,0.056 0.322,0.07 0.518,0.112 0.77,0.182 0.266,0.07 0.714,0.266 0.462,0.182 0.7,0.392 0.238,0.196 0.42,0.56 0.196,0.35 0.196,0.798 0,1.05 -0.826,1.694 -0.812,0.63 -2.17,0.63 -1.47,0 -2.268,-0.644 -0.784,-0.644 -0.84,-1.862 h 1.176 q 0.098,1.526 1.96,1.526 0.798,0 1.274,-0.322 0.49,-0.336 0.49,-0.882 0,-0.364 -0.252,-0.602 -0.252,-0.238 -0.56,-0.336 -0.308,-0.112 -0.882,-0.252 -0.084,-0.014 -0.126,-0.028 -0.126,-0.028 -0.546,-0.112 -0.406,-0.098 -0.588,-0.154 -0.182,-0.056 -0.532,-0.168 -0.336,-0.126 -0.504,-0.252 -0.168,-0.14 -0.378,-0.336 -0.196,-0.21 -0.28,-0.476 -0.084,-0.28 -0.084,-0.63 0,-0.98 0.742,-1.554 0.756,-0.574 2.016,-0.574 1.274,0 2.072,0.602 0.812,0.602 0.812,1.708 z"
         id="path3500" />
      <path
         d="m 727.25803,541.876 h -1.19 q -0.112,-1.316 -1.764,-1.316 -0.686,0 -1.078,0.266 -0.392,0.266 -0.392,0.714 0,0.126 0.028,0.252 0.028,0.112 0.098,0.21 0.084,0.084 0.14,0.154 0.07,0.07 0.21,0.14 0.154,0.056 0.224,0.098 0.084,0.042 0.28,0.098 0.21,0.042 0.294,0.07 0.084,0.014 0.322,0.07 0.252,0.056 0.322,0.07 0.518,0.112 0.77,0.182 0.266,0.07 0.714,0.266 0.462,0.182 0.7,0.392 0.238,0.196 0.42,0.56 0.196,0.35 0.196,0.798 0,1.05 -0.826,1.694 -0.812,0.63 -2.17,0.63 -1.47,0 -2.268,-0.644 -0.784,-0.644 -0.84,-1.862 h 1.176 q 0.098,1.526 1.96,1.526 0.798,0 1.274,-0.322 0.49,-0.336 0.49,-0.882 0,-0.364 -0.252,-0.602 -0.252,-0.238 -0.56,-0.336 -0.308,-0.112 -0.882,-0.252 -0.084,-0.014 -0.126,-0.028 -0.126,-0.028 -0.546,-0.112 -0.406,-0.098 -0.588,-0.154 -0.182,-0.056 -0.532,-0.168 -0.336,-0.126 -0.504,-0.252 -0.168,-0.14 -0.378,-0.336 -0.196,-0.21 -0.28,-0.476 -0.084,-0.28 -0.084,-0.63 0,-0.98 0.742,-1.554 0.756,-0.574 2.016,-0.574 1.274,0 2.072,0.602 0.812,0.602 0.812,1.708 z"
         id="path3502" />
      <path
         d="m 730.15603,537.032 v 1.456 h -1.204 v -1.456 z m 0,2.744 V 547 h -1.204 v -7.224 z"
         id="path3504" />
      <path
         d="m 732.57803,540.602 q 0.952,-1.036 2.59,-1.036 1.638,0 2.548,0.994 0.91,0.994 0.91,2.786 0,1.834 -0.91,2.856 -0.91,1.022 -2.562,1.022 -1.652,0 -2.59,-1.008 -0.938,-1.008 -0.938,-2.8 0,-1.778 0.952,-2.814 z m 4.214,0.728 q -0.602,-0.77 -1.652,-0.77 -1.05,0 -1.666,0.77 -0.616,0.77 -0.616,2.058 0,1.33 0.602,2.086 0.616,0.742 1.708,0.742 1.05,0 1.638,-0.756 0.602,-0.756 0.602,-2.086 0,-1.288 -0.616,-2.044 z"
         id="path3506" />
      <path
         d="m 741.16002,539.776 v 1.12 q 0.896,-1.316 2.464,-1.316 1.274,0 1.834,0.672 0.574,0.658 0.574,1.946 V 547 h -1.19 v -4.256 q 0,-0.532 -0.042,-0.826 -0.028,-0.308 -0.168,-0.644 -0.14,-0.35 -0.476,-0.504 -0.336,-0.154 -0.868,-0.154 -2.058,0 -2.058,2.604 V 547 h -1.19 v -7.224 z"
         id="path3508" />
    </g>
  </a>
  <path
     id="rect3348"
     style="fill:#320000;stroke:#320000;stroke-width:0.919135"
     d="m 625.47136,445.3209 h 3.67654 c 5.09201,0 9.19135,4.09934 9.19135,9.19135 v 11.02962 c 0,5.09201 -4.09934,9.19136 -9.19135,9.19136 h -3.67654 c -5.09201,0 -9.19135,-4.09935 -9.19135,-9.19136 v -11.02962 c 0,-5.09201 4.09934,-9.19135 9.19135,-9.19135 z" />
  <path
     id="rect3350"
     class="terminal"
     style="fill:#ff0000;stroke:#320000;stroke-width:0.919135"
     d="m 623.63309,443.48263 h 3.67654 c 5.09201,0 9.19135,4.09934 9.19135,9.19136 v 11.02962 c 0,5.092 -4.09934,9.19134 -9.19135,9.19134 h -3.67654 c -5.09201,0 -9.19135,-4.09934 -9.19135,-9.19134 v -11.02962 c 0,-5.09202 4.09934,-9.19136 9.19135,-9.19136 z" />
  <g
     aria-label=","
     id="text3352"
     class="terminal"
     style="font-weight:bold;font-size:14px;font-family:HelveticaNeueCyr, Sans-serif;fill:#ffe0e0"
     transform="matrix(0.919135,0,0,0.919135,-0.45956751,-0.45956751)">
    <path
       d="m 682.052,500.816 v 1.778 q 0,1.218 -0.546,1.876 -0.532,0.672 -1.666,0.854 v -0.98 q 0.938,-0.28 0.994,-1.344 h -0.994 v -2.184 z"
       id="path3483" />
  </g>
  <path
     class="line"
     d="m 15.165727,55.607667 h 1.83827 m 0,0 h 9.19135 m 64.339449,0 h 9.191351 m 18.382703,0 h 9.19135 m 58.82464,0 h 9.19135 m -95.590043,0 h 18.382703 m -0.91914,0 q -8.27222,0 -8.27222,-9.19135 V 24.357078 q 0,-9.191351 9.19136,-9.191351 m 77.20734,40.44194 h 18.38269 m -18.38269,0 q 9.19135,0 9.19135,-9.19135 V 24.357078 q 0,-9.191351 -9.19135,-9.191351 m -77.20734,0 h 9.19135 m 22.05924,0 h 9.19135 m 0,0 h 36.7654 m 18.38269,40.44194 h 9.19135 m 55.1481,0 h 9.19135 m 18.38271,0 h 9.19134 m 47.79503,0 h 9.19134 m 0,0 h 136.03199 m -220.59241,0 h 18.38271 m 202.2097,0 h 18.38269 m -238.9751,0 q 9.19136,0 9.19136,9.191349 m 220.59239,0 q 0,-9.191349 9.19135,-9.191349 m -229.78374,9.191349 v 22.059241 m 220.59239,0 V 64.799016 M 296.42104,86.858257 q 0,9.191349 9.19135,9.191349 m 202.2097,0 q 9.19134,0 9.19134,-9.191349 m -211.40104,9.191349 h 9.19134 m 23.89752,0 h 9.19134 m 18.3827,0 h 9.19136 m 60.6629,0 h 9.19135 m 0,0 h 1.83827 m -99.26658,0 h 18.3827 m 80.88388,0 h 18.3827 m -117.64928,0 q 9.19135,0 9.19135,9.191354 m 99.26658,0 q 0,-9.191354 9.19135,-9.191354 m -108.45793,9.191354 v 22.05924 m 99.26658,0 v -22.05924 m -99.26658,22.05924 q 0,9.19135 9.19135,9.19135 m 80.88388,0 q 9.19135,0 9.19135,-9.19135 m -90.07523,9.19135 h 9.19136 m 62.50117,0 h 9.19135 m 18.3827,-40.441944 h 9.19136 m 23.89751,0 h 9.19135 m 20.22096,-40.441939 h 1.83828 m 1.83827,0 h 1.83826 m 1.83827,0 h 1.83827 M 289.06795,182.4483 h 1.83827 m 1.83827,0 h 1.83828 m 1.83827,0 h 1.83826 m 20.22098,0 h 9.19135 m 0,0 h 113.97274 m -141.5468,0 h 18.38271 m 123.16409,0 h 18.38269 m -159.92949,0 q 9.19136,0 9.19136,9.19135 m 141.54679,0 q 0,-9.19135 9.19134,-9.19135 m -150.73813,9.19135 v 11.02961 m 141.54679,0 v -11.02961 m -141.54679,11.02961 q 0,9.19135 9.19135,9.19135 m 123.16409,0 q 9.19135,0 9.19135,-9.19135 m -132.35544,9.19135 h 9.19135 m 34.92713,0 h 9.19134 m 0,0 h 9.19135 m 51.47156,0 h 9.19136 m 20.22096,-29.41231 h 1.83828 m 1.83826,0 h 1.83827 m 1.83827,0 h 1.83827 M 0.45956749,257.81736 H 2.2978374 m 1.8382701,0 h 1.8382699 m 1.83827,0 h 1.83827 m 20.2209706,0 h 9.191349 m 0,0 H 730.25275 m -718.763563,0 h 18.382701 m 700.380862,0 h 18.3827 m -737.146263,0 q 9.19135,0 9.19135,9.19135 m 718.763563,0 q 0,-9.19135 9.19135,-9.19135 m -727.954913,9.19135 v 11.02962 m 718.763563,0 V 267.00871 M 20.680537,278.03833 q 0,9.19135 9.191351,9.19135 m 700.380862,0 q 9.19135,0 9.19135,-9.19135 m -691.189513,9.19135 h 9.19135 m 0,0 h 68.015993 m -95.590042,0 h 18.382699 m 77.207343,0 h 18.38269 m -113.972732,0 q 9.191349,0 9.191349,9.19136 m 95.590033,0 q 0,-9.19136 9.19135,-9.19136 m -104.781383,9.19136 v 11.02962 m 95.590033,0 v -11.02962 m -95.590033,11.02962 q 0,9.19135 9.19135,9.19135 m 77.207343,0 q 9.19134,0 9.19134,-9.19135 m -86.398683,9.19135 h 9.19135 m 58.824643,0 h 9.19135 m 18.38269,-29.41233 h 9.19136 m 49.63328,0 h 9.19135 m 18.38271,0 h 9.19135 m 47.79501,0 h 9.19136 m 18.38269,0 h 9.19135 m 0,0 h 113.97274 m -141.54678,0 h 18.38269 m 123.16409,0 h 18.3827 m -159.92948,0 q 9.19135,0 9.19135,9.19136 m 141.54678,0 q 0,-9.19136 9.19135,-9.19136 m -150.73813,9.19136 v 11.02962 m 141.54678,0 v -11.02962 m -141.54678,11.02962 q 0,9.19135 9.19134,9.19135 m 123.16409,0 q 9.19135,0 9.19135,-9.19135 m -132.35544,9.19135 h 9.19135 m 34.92713,0 h 9.19135 m 0,0 h 9.19135 m 51.47157,0 h 9.19134 m 18.3827,-29.41233 h 99.26658 m -343.75649,0 h 18.38271 m 325.37378,0 h 18.3827 m -362.13919,0 q 9.19135,0 9.19135,9.19136 m 343.7565,0 q 0,-9.19136 9.19134,-9.19136 m -352.94784,9.19136 v 51.47155 m 343.7565,0 v -51.47155 m -343.7565,51.47155 q 0,9.19135 9.19136,9.19135 m 325.37378,0 q 9.19136,0 9.19136,-9.19135 m -334.56514,9.19135 h 9.19135 m 23.89751,0 h 9.19135 m 18.38269,0 h 9.19135 m 60.66292,0 h 9.19134 m 0,0 h 1.83827 m -99.26657,0 h 18.38269 m 80.88388,0 h 18.3827 m -117.64927,0 q 9.19135,0 9.19135,9.19135 m 99.26657,0 q 0,-9.19135 9.19135,-9.19135 m -108.45792,9.19135 v 22.05924 m 99.26657,0 v -22.05924 m -99.26657,22.05924 q 0,9.19136 9.19134,9.19136 m 80.88388,0 q 9.19135,0 9.19135,-9.19136 m -90.07523,9.19136 h 9.19135 m 62.50119,0 h 9.19134 m 18.3827,-40.44195 h 9.19135 m 23.89751,0 h 9.19135 m 0,0 h 9.19136 m 34.92713,0 h 9.19135 m 0,0 h 9.19134 m 51.47156,0 h 9.19135 m 18.3827,-69.85426 h 9.19135 m 36.76541,0 h 9.19134 m 0,0 h 9.19135 m 82.72216,0 h 9.19134 m 20.22097,-29.41232 h 1.83827 m 1.83827,0 h 1.83827 m 1.83827,0 h 1.83827 M 235.75812,498.63074 h 1.83828 m 1.83827,0 h 1.83827 m 1.83826,0 h 1.83827 m 20.22097,0 h 9.19136 m 0,0 h 174.63564 m -202.2097,0 h 18.3827 m 183.827,0 h 18.3827 m -220.5924,0 q 9.19135,0 9.19135,9.19135 m 202.2097,0 q 0,-9.19135 9.19135,-9.19135 m -211.40105,9.19135 v 11.02962 m 202.2097,0 v -11.02962 m -202.2097,11.02962 q 0,9.19134 9.19135,9.19134 m 183.827,0 q 9.19135,0 9.19135,-9.19134 m -193.01835,9.19134 h 9.19136 m 64.33945,0 h 9.19134 m 0,0 h 9.19135 m 82.72216,0 h 9.19134 m 36.76541,-29.41231 h 9.19134 m 82.72215,0 h 9.19136 m 18.38269,0 h 9.19135 m 82.72215,0 h 9.19135 m -119.48754,0 h 18.38269 m -0.91913,0 q -8.27222,0 -8.27222,-9.19136 v -22.05924 q 0,-9.19135 9.19135,-9.19135 m 101.10485,40.44195 h 18.3827 m -18.3827,0 q 9.19135,0 9.19135,-9.19136 v -22.05924 q 0,-9.19135 -9.19135,-9.19135 m -101.10485,0 h 9.19135 m 22.05924,0 h 9.19135 m 0,0 h 60.66291 m -238.9751,40.44195 h 18.38271 m 238.97509,0 h 18.3827 m -275.7405,0 q 9.19136,0 9.19136,9.19135 m 257.35779,0 q 0,-9.19135 9.19135,-9.19135 m -266.54914,9.19135 v 12.86789 m 257.35779,0 V 507.82209 M 476.5715,520.68998 q 0,9.19135 9.19135,9.19135 m 238.97509,0 q 9.19135,0 9.19135,-9.19135 m -248.16644,9.19135 h 9.19134 m 0,0 h 229.78375 m 21.14011,-31.25059 h -2.75741"
     id="path3354" />
  <path
     id="polygon3356"
     style="fill:#320000;stroke:#320000;stroke-width:0.919135"
     d="m 752.31199,498.63074 7.35308,-3.67655 v 7.35308 z" />
  <path
     id="polygon3358"
     style="fill:#320000;stroke:#320000;stroke-width:0.919135"
     d="m 752.31199,498.63074 -7.35308,-3.67655 v 7.35308 z" />
</svg>
