<?xml version="1.0" encoding="UTF-8" standalone="no"?>
<svg
   width="748.48523"
   height="484.2587"
   version="1.1"
   id="svg12900"
   sodipodi:docname="SELECT.svg"
   inkscape:version="1.2.2 (b0a8486541, 2022-12-01)"
   xmlns:inkscape="http://www.inkscape.org/namespaces/inkscape"
   xmlns:sodipodi="http://sodipodi.sourceforge.net/DTD/sodipodi-0.dtd"
   xmlns:xlink="http://www.w3.org/1999/xlink"
   xmlns="http://www.w3.org/2000/svg"
   xmlns:svg="http://www.w3.org/2000/svg">
  <sodipodi:namedview
     id="namedview12902"
     pagecolor="#ffffff"
     bordercolor="#666666"
     borderopacity="1.0"
     inkscape:showpageshadow="2"
     inkscape:pageopacity="0.0"
     inkscape:pagecheckerboard="0"
     inkscape:deskcolor="#d1d1d1"
     showgrid="false"
     inkscape:zoom="1.4902309"
     inkscape:cx="499.58701"
     inkscape:cy="226.13945"
     inkscape:window-width="1920"
     inkscape:window-height="1011"
     inkscape:window-x="0"
     inkscape:window-y="32"
     inkscape:window-maximized="1"
     inkscape:current-layer="svg12900" />
  <defs
     id="defs12702">
    <style
       type="text/css"
       id="style12700">
    @namespace &quot;http://www.w3.org/2000/svg&quot;;
    .line                 {fill: none; stroke: #320000; stroke-width: 1;}
    .bold-line            {stroke: #FFE0E0; shape-rendering: crispEdges; stroke-width: 2;}
    .thin-line            {stroke: #1F0000; shape-rendering: crispEdges}
    .filled               {fill: #320000; stroke: none;}
    text.terminal         {font-family: HelveticaNeueCyr, Sans-serif;
                            font-size: 14px;
                            fill: #FFE0E0;
                            font-weight: bold;
                          }
    text.nonterminal      {font-family: HelveticaNeueCyr, Sans-serif;
                            font-size: 14px;
                            fill: #FFE0E0;
                            font-weight: normal;
                          }
    text.regexp           {font-family: HelveticaNeueCyr, Sans-serif;
                            font-size: 14px;
                            fill: #1F0000;
                            font-weight: normal;
                          }
    rect, circle, polygon {fill: #320000; stroke: #320000;}
    rect.terminal         {fill: #FF0000; stroke: #320000; stroke-width: 1;}
    rect.nonterminal      {fill: #FF3F3F; stroke: #320000; stroke-width: 1;}
    rect.text             {fill: none; stroke: none;}
    polygon.regexp        {fill: #FF5E5E; stroke: #320000; stroke-width: 1;}
  </style>
  </defs>
  <polygon
     points="1,65 9,61 1,57 "
     id="polygon12704"
     transform="matrix(0.86330477,0,0,0.86330477,-0.43165239,-0.48693398)" />
  <polygon
     points="9,65 17,61 9,57 "
     id="polygon12706"
     transform="matrix(0.86330477,0,0,0.86330477,-0.43165239,-0.48693398)" />
  <rect
     x="26.330795"
     y="40.08839"
     width="60.431332"
     height="27.625755"
     rx="8.6330481"
     id="rect12708"
     style="stroke-width:0.863304" />
  <rect
     x="24.604185"
     y="38.361782"
     width="60.431332"
     height="27.625755"
     class="terminal"
     rx="8.6330481"
     id="rect12710" />
  <text
     class="terminal"
     x="28.669674"
     y="56.648754"
     id="text12712"
     style="stroke-width:0.863304">SELECT</text>
  <a
     xlink:href="#column"
     xlink:title="column"
     id="a12720"
     transform="matrix(0.86330477,0,0,0.86330477,-0.43165239,-0.48693398)">
    <rect
       x="141"
       y="47"
       width="64"
       height="32"
       id="rect12714" />
    <rect
       x="139"
       y="45"
       width="64"
       height="32"
       class="nonterminal"
       id="rect12716" />
    <text
       class="nonterminal"
       x="149"
       y="65"
       id="text12718">column</text>
  </a>
  <rect
     x="121.29432"
     y="2.1029801"
     width="20.719315"
     height="27.625755"
     rx="8.6330481"
     id="rect12722"
     style="stroke-width:0.863304" />
  <rect
     x="119.56771"
     y="0.37637079"
     width="20.719315"
     height="27.625755"
     class="terminal"
     rx="8.6330481"
     id="rect12724" />
  <text
     class="terminal"
     x="128.20076"
     y="17.642467"
     id="text12726"
     style="stroke-width:0.863304">,</text>
  <rect
     x="211.078"
     y="40.08839"
     width="51.798286"
     height="27.625755"
     rx="8.6330481"
     id="rect12728"
     style="stroke-width:0.863304" />
  <rect
     x="209.35141"
     y="38.361782"
     width="51.798286"
     height="27.625755"
     class="terminal"
     rx="8.6330481"
     id="rect12730" />
  <text
     class="terminal"
     x="215.03859"
     y="56.96582"
     id="text12732"
     style="stroke-width:0.863304">FROM</text>
  <a
     xlink:href="#table"
     xlink:title="table"
     id="a12740"
     transform="matrix(0.86330477,0,0,0.86330477,-0.43165239,-0.48693398)">
    <rect
       x="345"
       y="47"
       width="52"
       height="32"
       id="rect12734" />
    <rect
       x="343"
       y="45"
       width="52"
       height="32"
       class="nonterminal"
       id="rect12736" />
    <text
       class="nonterminal"
       x="353"
       y="65"
       id="text12738">table</text>
  </a>
  <rect
     x="297.40851"
     y="78.073799"
     width="22.445925"
     height="27.625755"
     rx="8.6330481"
     id="rect12742"
     style="stroke-width:0.863304" />
  <rect
     x="295.68192"
     y="76.347191"
     width="22.445925"
     height="27.625755"
     class="terminal"
     rx="8.6330481"
     id="rect12744" />
  <text
     class="terminal"
     x="304.31491"
     y="93.613274"
     id="text12746"
     style="stroke-width:0.863304">(</text>
  <a
     xlink:href="#SELECT"
     xlink:title="SELECT"
     id="a12754"
     transform="matrix(0.86330477,0,0,0.86330477,-0.43165239,-0.48693398)">
    <rect
       x="411"
       y="91"
       width="66"
       height="32"
       id="rect12748" />
    <rect
       x="409"
       y="89"
       width="66"
       height="32"
       class="nonterminal"
       id="rect12750" />
    <text
       class="nonterminal"
       x="419"
       y="109"
       id="text12752">SELECT</text>
  </a>
  <a
     xlink:href="#VALUES"
     xlink:title="VALUES"
     id="a12762"
     transform="matrix(0.86330477,0,0,0.86330477,-0.43165239,-0.48693398)">
    <rect
       x="411"
       y="135"
       width="68"
       height="32"
       id="rect12756" />
    <rect
       x="409"
       y="133"
       width="68"
       height="32"
       class="nonterminal"
       id="rect12758" />
    <text
       class="nonterminal"
       x="419"
       y="153"
       id="text12760">VALUES</text>
  </a>
  <rect
     x="447.6235"
     y="78.073799"
     width="22.445925"
     height="27.625755"
     rx="8.6330481"
     id="rect12764"
     style="stroke-width:0.863304" />
  <rect
     x="445.89691"
     y="76.347191"
     width="22.445925"
     height="27.625755"
     class="terminal"
     rx="8.6330481"
     id="rect12766" />
  <text
     class="terminal"
     x="454.52994"
     y="93.613274"
     id="text12768"
     style="stroke-width:0.863304">)</text>
  <rect
     x="326.76086"
     y="186.8502"
     width="32.80558"
     height="27.625755"
     rx="8.6330481"
     id="rect12770"
     style="stroke-width:0.863304" />
  <rect
     x="325.03427"
     y="185.12358"
     width="32.80558"
     height="27.625755"
     class="terminal"
     rx="8.6330481"
     id="rect12772" />
  <text
     class="terminal"
     x="332.11697"
     y="203.72314"
     id="text12774"
     style="stroke-width:0.863304">AS</text>
  <a
     xlink:href="#name"
     xlink:title="name"
     id="a12782"
     transform="matrix(0.86330477,0,0,0.86330477,-0.43165239,-0.48693398)">
    <rect
       x="437"
       y="217"
       width="56"
       height="32"
       id="rect12776" />
    <rect
       x="435"
       y="215"
       width="56"
       height="32"
       class="nonterminal"
       id="rect12778" />
    <text
       class="nonterminal"
       x="445"
       y="235"
       id="text12780">name</text>
  </a>
  <rect
     x="55.683159"
     y="285.26697"
     width="55.251511"
     height="27.625755"
     rx="8.6330481"
     id="rect12784"
     style="stroke-width:0.863304" />
  <rect
     x="53.956551"
     y="283.54034"
     width="55.251511"
     height="27.625755"
     class="terminal"
     rx="8.6330481"
     id="rect12786" />
  <text
     class="terminal"
     x="61.30365"
     y="301.58777"
     id="text12788"
     style="stroke-width:0.863304">INNER</text>
  <rect
     x="145.46686"
     y="257.64117"
     width="46.618458"
     height="27.625755"
     rx="8.6330481"
     id="rect12790"
     style="stroke-width:0.863304" />
  <rect
     x="143.74025"
     y="255.91458"
     width="46.618458"
     height="27.625755"
     class="terminal"
     rx="8.6330481"
     id="rect12792" />
  <text
     class="terminal"
     x="151.03906"
     y="274.14056"
     id="text12794"
     style="stroke-width:0.863304">JOIN</text>
  <a
     xlink:href="#table"
     xlink:title="table"
     id="a12802"
     transform="matrix(0.86330477,0,0,0.86330477,-0.43165239,-0.48693398)">
    <rect
       x="263"
       y="299"
       width="52"
       height="32"
       id="rect12796" />
    <rect
       x="261"
       y="297"
       width="52"
       height="32"
       class="nonterminal"
       id="rect12798" />
    <text
       class="nonterminal"
       x="271"
       y="317"
       id="text12800">table</text>
  </a>
  <rect
     x="226.61751"
     y="295.62662"
     width="22.445925"
     height="27.625755"
     rx="8.6330481"
     id="rect12804"
     style="stroke-width:0.863304" />
  <rect
     x="224.89088"
     y="293.89999"
     width="22.445925"
     height="27.625755"
     class="terminal"
     rx="8.6330481"
     id="rect12806" />
  <text
     class="terminal"
     x="233.52393"
     y="311.16611"
     id="text12808"
     style="stroke-width:0.863304">(</text>
  <a
     xlink:href="#SELECT"
     xlink:title="SELECT"
     id="a12816"
     transform="matrix(0.86330477,0,0,0.86330477,-0.43165239,-0.48693398)">
    <rect
       x="329"
       y="343"
       width="66"
       height="32"
       id="rect12810" />
    <rect
       x="327"
       y="341"
       width="66"
       height="32"
       class="nonterminal"
       id="rect12812" />
    <text
       class="nonterminal"
       x="337"
       y="361"
       id="text12814">SELECT</text>
  </a>
  <a
     xlink:href="#VALUES"
     xlink:title="VALUES"
     id="a12824"
     transform="matrix(0.86330477,0,0,0.86330477,-0.43165239,-0.48693398)">
    <rect
       x="329"
       y="387"
       width="68"
       height="32"
       id="rect12818" />
    <rect
       x="327"
       y="385"
       width="68"
       height="32"
       class="nonterminal"
       id="rect12820" />
    <text
       class="nonterminal"
       x="337"
       y="405"
       id="text12822">VALUES</text>
  </a>
  <rect
     x="376.83252"
     y="295.62662"
     width="22.445925"
     height="27.625755"
     rx="8.6330481"
     id="rect12826"
     style="stroke-width:0.863304" />
  <rect
     x="375.1059"
     y="293.89999"
     width="22.445925"
     height="27.625755"
     class="terminal"
     rx="8.6330481"
     id="rect12828" />
  <text
     class="terminal"
     x="383.73898"
     y="311.16611"
     id="text12830"
     style="stroke-width:0.863304">)</text>
  <rect
     x="451.07675"
     y="285.26697"
     width="32.80558"
     height="27.625755"
     rx="8.6330481"
     id="rect12832"
     style="stroke-width:0.863304" />
  <rect
     x="449.35013"
     y="283.54034"
     width="32.80558"
     height="27.625755"
     class="terminal"
     rx="8.6330481"
     id="rect12834" />
  <text
     class="terminal"
     x="456.97659"
     y="302.09787"
     id="text12836"
     style="stroke-width:0.863304">AS</text>
  <a
     xlink:href="#name"
     xlink:title="name"
     id="a12844"
     transform="matrix(0.86330477,0,0,0.86330477,-0.43165239,-0.48693398)">
    <rect
       x="581"
       y="331"
       width="56"
       height="32"
       id="rect12838" />
    <rect
       x="579"
       y="329"
       width="56"
       height="32"
       class="nonterminal"
       id="rect12840" />
    <text
       class="nonterminal"
       x="589"
       y="349"
       id="text12842">name</text>
  </a>
  <rect
     x="584.0257"
     y="257.64117"
     width="34.532192"
     height="27.625755"
     rx="8.6330481"
     id="rect12846"
     style="stroke-width:0.863304" />
  <rect
     x="582.29901"
     y="255.91458"
     width="34.532192"
     height="27.625755"
     class="terminal"
     rx="8.6330481"
     id="rect12848" />
  <text
     class="terminal"
     x="589.51733"
     y="274.35681"
     id="text12850"
     style="stroke-width:0.863304">ON</text>
  <a
     xlink:href="#expression"
     xlink:title="expression"
     id="a12858"
     transform="matrix(0.86330477,0,0,0.86330477,-0.43165239,-0.48693398)">
    <rect
       x="737"
       y="299"
       width="90"
       height="32"
       id="rect12852" />
    <rect
       x="735"
       y="297"
       width="90"
       height="32"
       class="nonterminal"
       id="rect12854" />
    <text
       class="nonterminal"
       x="745"
       y="317"
       id="text12856">expression</text>
  </a>
  <rect
     x="293.95526"
     y="456.20126"
     width="60.431332"
     height="27.625755"
     rx="8.6330481"
     id="rect12860"
     style="stroke-width:0.863304" />
  <rect
     x="292.22864"
     y="454.4747"
     width="60.431332"
     height="27.625755"
     class="terminal"
     rx="8.6330481"
     id="rect12862" />
  <text
     class="terminal"
     x="297.17728"
     y="473.08279"
     id="text12864"
     style="stroke-width:0.863304">WHERE</text>
  <a
     xlink:href="#expression"
     xlink:title="expression"
     id="a12872"
     transform="matrix(0.86330477,0,0,0.86330477,-0.43165239,-0.48693398)">
    <rect
       x="431"
       y="529"
       width="90"
       height="32"
       id="rect12866" />
    <rect
       x="429"
       y="527"
       width="90"
       height="32"
       class="nonterminal"
       id="rect12868" />
    <text
       class="nonterminal"
       x="439"
       y="547"
       id="text12870">expression</text>
  </a>
  <rect
     x="501.14835"
     y="428.57556"
     width="77.697426"
     height="27.625755"
     rx="8.6330481"
     id="rect12874"
     style="stroke-width:0.863304" />
  <rect
     x="499.42178"
     y="426.84894"
     width="77.697426"
     height="27.625755"
     class="terminal"
     rx="8.6330481"
     id="rect12876" />
  <text
     class="terminal"
     x="500.94318"
     y="444.86554"
     id="text12878"
     style="stroke-width:0.863304">GROUP BY</text>
  <a
     xlink:href="#expression"
     xlink:title="expression"
     id="a12886"
     transform="matrix(0.86330477,0,0,0.86330477,-0.43165239,-0.48693398)">
    <rect
       x="711"
       y="497"
       width="90"
       height="32"
       id="rect12880" />
    <rect
       x="709"
       y="495"
       width="90"
       height="32"
       class="nonterminal"
       id="rect12882" />
    <text
       class="nonterminal"
       x="719"
       y="515"
       id="text12884">expression</text>
  </a>
  <rect
     x="613.37799"
     y="390.59015"
     width="20.719315"
     height="27.625755"
     rx="8.6330481"
     id="rect12888"
     style="stroke-width:0.863304" />
  <rect
     x="611.65137"
     y="388.86356"
     width="20.719315"
     height="27.625755"
     class="terminal"
     rx="8.6330481"
     id="rect12890" />
  <text
     class="terminal"
     x="620.28448"
     y="406.12961"
     id="text12892"
     style="stroke-width:0.863304">,</text>
  <path
     class="line"
     d="m 14.244528,52.174656 h 1.72661 m 0,0 h 8.633048 m 60.431332,0 h 8.633049 m 17.266093,0 h 8.63305 m 55.25151,0 h 8.63305 m -89.783703,0 h 17.266093 m -0.8633,0 q -7.76974,0 -7.76974,-8.633047 V 22.822295 q 0,-8.633047 8.63304,-8.633047 m 72.51761,37.985408 h 17.26608 m -17.26608,0 q 8.63304,0 8.63304,-8.633047 V 22.822295 q 0,-8.633047 -8.63304,-8.633047 m -72.51761,0 h 8.63305 m 20.71932,0 h 8.63304 m 0,0 h 34.5322 m 17.26608,37.985408 h 8.63306 m 51.79828,0 h 8.63304 m 17.2661,0 h 8.63306 m 44.89185,0 h 8.63304 m 0,0 h 127.7691 m -207.19315,0 h 17.2661 m 189.92705,0 h 17.2661 m -224.45925,0 q 8.63306,0 8.63306,8.633049 m 207.19313,0 q 0,-8.633049 8.63306,-8.633049 m -215.82619,8.633049 v 20.719314 m 207.19313,0 V 60.807705 M 278.41579,81.527019 q 0,8.63305 8.63304,8.63305 m 189.92705,0 q 8.63304,0 8.63304,-8.63305 m -198.56009,8.63305 h 8.63306 m 22.44592,0 h 8.63304 m 17.2661,0 h 8.63306 m 56.9781,0 h 8.63305 m 0,0 h 1.7266 m -93.23691,0 h 17.2661 m 75.97081,0 h 17.2661 m -110.50301,0 q 8.63305,0 8.63305,8.633048 m 93.23692,0 q 0,-8.633048 8.63304,-8.633048 M 335.3939,98.793117 v 20.719323 m 93.23692,0 V 98.793117 M 335.3939,119.51244 q 0,8.63305 8.63305,8.63305 m 75.97081,0 q 8.63306,0 8.63306,-8.63305 m -84.60387,8.63305 h 8.63306 m 58.70471,0 h 8.63304 m 17.2661,-37.985421 h 8.63306 m 22.44591,0 h 8.63305 m 18.99271,-37.985413 h 1.7266 m 1.72662,0 h 1.7266 m 1.72662,0 h 1.72661 M 288.77545,171.31072 h 1.72661 m 1.7266,0 h 1.72662 m 1.72661,0 h 1.7266 m 18.9927,0 h 8.63306 m 0,0 h 107.04978 m -132.94893,0 h 17.26609 m 115.68284,0 h 17.2661 m -150.21503,0 q 8.63304,0 8.63304,8.63305 m 132.94895,0 q 0,-8.63305 8.63304,-8.63305 m -141.58199,8.63305 v 10.35965 m 132.94895,0 v -10.35965 m -132.94895,10.35965 q 0,8.63305 8.63305,8.63305 m 115.68284,0 q 8.63306,0 8.63306,-8.63305 m -124.3159,8.63305 h 8.63306 m 32.80557,0 h 8.63305 m 0,0 h 8.63305 m 48.34506,0 h 8.63305 m 18.9927,-27.62575 h 1.72663 m 1.7266,0 h 1.72661 m 1.72661,0 h 1.72662 M 0.43165237,242.10171 H 2.1582619 m 1.7266095,0 h 1.7266095 m 1.7266097,0 h 1.7266096 m 18.9927048,0 h 8.633048 m 0,0 H 720.42783 m -709.63652,0 h 17.266095 m 692.370425,0 h 17.26609 m -726.90261,0 q 8.633048,0 8.633048,8.63305 m 709.636512,0 q 0,-8.63305 8.63305,-8.63305 m -718.269562,8.63305 v 10.35965 m 709.636512,0 V 250.73476 M 19.424358,261.09441 q 0,8.63306 8.633047,8.63306 m 692.370425,0 q 8.63304,0 8.63304,-8.63306 M 45.3235,269.72747 h 8.633048 m 0,0 H 117.8411 m -89.783695,0 H 45.3235 m 72.5176,0 h 17.26609 m -107.049785,0 q 8.633048,0 8.633048,8.63304 m 89.783697,0 q 0,-8.63304 8.63304,-8.63304 m -98.416737,8.63304 v 10.35965 m 89.783697,0 v -10.35965 m -89.783697,10.35965 q 0,8.63305 8.633047,8.63305 m 72.5176,0 q 8.63305,0 8.63305,-8.63305 m -81.15065,8.63305 h 8.633048 m 55.251512,0 h 8.63304 m 17.26609,-27.62574 h 8.63306 m 46.61846,0 h 8.63303 m 17.2661,0 h 8.63306 m 44.89183,0 h 8.63306 m 0,0 H 406.1849 m -207.19316,0 h 17.2661 m 189.92706,0 h 17.26608 m -224.45924,0 q 8.63305,0 8.63305,8.63304 m 207.19314,0 q 0,-8.63304 8.63305,-8.63304 m -215.82619,8.63304 v 20.71931 m 207.19314,0 v -20.71931 m -207.19314,20.71931 q 0,8.63305 8.63305,8.63305 m 189.92706,0 q 8.63303,0 8.63303,-8.63305 m -198.56009,8.63305 h 8.63306 m 22.44592,0 h 8.63304 m 17.26609,0 h 8.63305 m 56.97812,0 h 8.63305 m 0,0 h 1.72661 m -93.23692,0 h 17.26609 m 75.97083,0 h 17.26609 m -110.50301,0 q 8.63305,0 8.63305,8.63305 m 93.23691,0 q 0,-8.63305 8.63305,-8.63305 m -101.86996,8.63305 v 20.71931 m 93.23691,0 v -20.71931 m -93.23691,20.71931 q 0,8.63305 8.63304,8.63305 m 75.97083,0 q 8.63304,0 8.63304,-8.63305 m -84.60387,8.63305 h 8.63305 m 58.70474,0 h 8.63304 m 17.26609,-37.98541 h 8.63305 m 22.44592,0 h 8.63306 m 34.53219,-37.9854 h 8.63304 m 0,0 h 107.04979 m -132.94894,0 h 17.26611 m 115.68283,0 h 17.26609 m -150.21503,0 q 8.63305,0 8.63305,8.63304 m 132.94894,0 q 0,-8.63304 8.63304,-8.63304 m -141.58198,8.63304 v 10.35965 m 132.94894,0 v -10.35965 m -132.94894,10.35965 q 0,8.63305 8.63306,8.63305 m 115.68283,0 q 8.63305,0 8.63305,-8.63305 m -124.31588,8.63305 h 8.63304 m 32.80558,0 h 8.63305 m 0,0 h 8.63305 m 48.34506,0 h 8.63305 m 17.26609,-27.62574 h 8.63305 m 34.5322,0 h 8.63304 m 0,0 h 8.63305 m 77.69743,0 h 8.63305 m 18.9927,-27.62576 h 1.72661 m 1.7266,0 h 1.72662 m 1.72661,0 h 1.7266 M 255.96986,440.6618 h 1.7266 m 1.72663,0 h 1.7266 m 1.72661,0 h 1.72661 m 18.99271,0 h 8.63304 m 0,0 h 164.02791 m -189.92705,0 h 17.2661 m 172.66095,0 h 17.26608 m -207.19313,0 q 8.63305,0 8.63305,8.63305 m 189.92704,0 q 0,-8.63305 8.63304,-8.63305 m -198.56008,8.63305 v 10.35965 m 189.92704,0 V 449.29485 M 274.96257,459.6545 q 0,8.63305 8.63305,8.63305 m 172.66095,0 q 8.63304,0 8.63304,-8.63305 m -181.29399,8.63305 h 8.63304 m 60.43135,0 h 8.63303 m 0,0 h 8.63305 m 77.69743,0 h 8.63305 m 34.53219,-27.62575 h 8.63305 m 77.69742,0 h 8.63305 m 17.2661,0 h 8.63305 m 77.69742,0 h 8.63305 m -112.22962,0 h 17.2661 m -0.86331,0 q -7.76974,0 -7.76974,-8.63304 v -20.71932 q 0,-8.63305 8.63305,-8.63305 m 94.96352,37.98541 h 17.2661 m -17.2661,0 q 8.63305,0 8.63305,-8.63304 v -20.71932 q 0,-8.63305 -8.63305,-8.63305 m -94.96352,0 h 8.63305 m 20.7193,0 h 8.63306 m 0,0 H 697.9819 M 473.52265,440.6618 h 17.26611 m 224.45924,0 h 17.26609 m -258.99144,0 q 8.63306,0 8.63306,8.63305 m 241.72533,0 q 0,-8.63305 8.63305,-8.63305 m -250.35838,8.63305 v 12.08627 m 241.72533,0 v -12.08627 m -241.72533,12.08627 q 0,8.63305 8.63305,8.63305 m 224.45924,0 q 8.63304,0 8.63304,-8.63305 m -233.09228,8.63305 h 8.63305 m 0,0 H 715.248 m 19.85602,-29.35237 h -2.58993"
     id="path12894" />
  <polygon
     points="867,515 859,511 867,507 "
     id="polygon12896"
     transform="matrix(0.86330477,0,0,0.86330477,-0.43165239,-0.48693398)" />
  <polygon
     points="851,515 859,511 851,507 "
     id="polygon12898"
     transform="matrix(0.86330477,0,0,0.86330477,-0.43165239,-0.48693398)" />
</svg>
