<?xml version="1.0" encoding="UTF-8" standalone="no"?>
<svg
   width="729"
   height="419"
   version="1.1"
   id="svg162"
   sodipodi:docname="select.svg"
   inkscape:version="1.2.2 (b0a8486541, 2022-12-01)"
   xmlns:inkscape="http://www.inkscape.org/namespaces/inkscape"
   xmlns:sodipodi="http://sodipodi.sourceforge.net/DTD/sodipodi-0.dtd"
   xmlns:xlink="http://www.w3.org/1999/xlink"
   xmlns="http://www.w3.org/2000/svg"
   xmlns:svg="http://www.w3.org/2000/svg">
  <sodipodi:namedview
     id="namedview164"
     pagecolor="#ffffff"
     bordercolor="#666666"
     borderopacity="1.0"
     inkscape:showpageshadow="2"
     inkscape:pageopacity="0.0"
     inkscape:pagecheckerboard="0"
     inkscape:deskcolor="#d1d1d1"
     showgrid="false"
     inkscape:zoom="1.7791495"
     inkscape:cx="364.5"
     inkscape:cy="209.65073"
     inkscape:window-width="1920"
     inkscape:window-height="1011"
     inkscape:window-x="0"
     inkscape:window-y="32"
     inkscape:window-maximized="1"
     inkscape:current-layer="svg162" />
  <defs
     id="defs4">
    <style
       type="text/css"
       id="style2">
    @namespace &quot;http://www.w3.org/2000/svg&quot;;
    .line                 {fill: none; stroke: #320000; stroke-width: 1;}
    .bold-line            {stroke: #FFE0E0; shape-rendering: crispEdges; stroke-width: 2;}
    .thin-line            {stroke: #1F0000; shape-rendering: crispEdges}
    .filled               {fill: #320000; stroke: none;}
    text.terminal         {font-family: HelveticaNeueCyr, Sans-serif;
                            font-size: 14px;
                            fill: #FFE0E0;
                            font-weight: bold;
                          }
    text.nonterminal      {font-family: HelveticaNeueCyr, Sans-serif;
                            font-size: 14px;
                            fill: #FFE0E0;
                            font-weight: normal;
                          }
    text.regexp           {font-family: HelveticaNeueCyr, Sans-serif;
                            font-size: 14px;
                            fill: #1F0000;
                            font-weight: normal;
                          }
    rect, circle, polygon {fill: #320000; stroke: #320000;}
    rect.terminal         {fill: #FF0000; stroke: #320000; stroke-width: 1;}
    rect.nonterminal      {fill: #FF3F3F; stroke: #320000; stroke-width: 1;}
    rect.text             {fill: none; stroke: none;}
    polygon.regexp        {fill: #FF5E5E; stroke: #320000; stroke-width: 1;}
  </style>
  </defs>
  <g
     id="polygon6">
    <path
       style="color:#000000;fill:#320000;-inkscape-stroke:none"
       d="M 9,61 1,57 v 8 z"
       id="path1106" />
    <path
       style="color:#000000;fill:#320000;-inkscape-stroke:none"
       d="m 0.5,56.191406 v 9.617188 L 10.117188,61 9.2226563,60.552734 Z m 1,1.617188 L 7.8828125,61 1.5,64.191406 Z"
       id="path1108" />
  </g>
  <g
     id="polygon8">
    <path
       style="color:#000000;fill:#320000;-inkscape-stroke:none"
       d="M 17,61 9,57 v 8 z"
       id="path1100" />
    <path
       style="color:#000000;fill:#320000;-inkscape-stroke:none"
       d="m 8.5,56.191406 v 9.617188 L 18.117187,61 17.222656,60.552734 Z m 1,1.617188 L 15.882813,61 9.5,64.191406 Z"
       id="path1102" />
  </g>
  <g
     id="rect10">
    <path
       style="color:#000000;fill:#320000;-inkscape-stroke:none"
       d="m 41,47 h 50 c 5.54,0 10,4.46 10,10 v 12 c 0,5.54 -4.46,10 -10,10 H 41 C 35.46,79 31,74.54 31,69 V 57 c 0,-5.54 4.46,-10 10,-10 z"
       id="path1094" />
    <path
       style="color:#000000;fill:#320000;-inkscape-stroke:none"
       d="m 41,46.5 c -5.808346,0 -10.5,4.691654 -10.5,10.5 v 12 c 0,5.808346 4.691654,10.5 10.5,10.5 h 50 c 5.808346,0 10.5,-4.691654 10.5,-10.5 V 57 C 101.5,51.191654 96.808346,46.5 91,46.5 Z m 0,1 h 50 c 5.271643,0 9.5,4.228357 9.5,9.5 v 12 c 0,5.271643 -4.228357,9.5 -9.5,9.5 H 41 c -5.271643,0 -9.5,-4.228357 -9.5,-9.5 V 57 c 0,-5.271643 4.228357,-9.5 9.5,-9.5 z"
       id="path1096" />
  </g>
  <g
     id="rect12"
     class="terminal">
    <path
       style="color:#000000;fill:#ff0000;-inkscape-stroke:none"
       d="m 39,45 h 50 c 5.54,0 10,4.46 10,10 v 12 c 0,5.54 -4.46,10 -10,10 H 39 C 33.46,77 29,72.54 29,67 V 55 c 0,-5.54 4.46,-10 10,-10 z"
       id="path1088" />
    <path
       style="color:#000000;fill:#320000;-inkscape-stroke:none"
       d="m 39,44.5 c -5.808346,0 -10.5,4.691654 -10.5,10.5 v 12 c 0,5.808346 4.691654,10.5 10.5,10.5 h 50 c 5.808346,0 10.5,-4.691654 10.5,-10.5 V 55 C 99.5,49.191654 94.808346,44.5 89,44.5 Z m 0,1 h 50 c 5.271643,0 9.5,4.228357 9.5,9.5 v 12 c 0,5.271643 -4.228357,9.5 -9.5,9.5 H 39 c -5.271643,0 -9.5,-4.228357 -9.5,-9.5 V 55 c 0,-5.271643 4.228357,-9.5 9.5,-9.5 z"
       id="path1090" />
  </g>
  <g
     aria-label="SELECT"
     id="text14"
     class="terminal"
     style="font-weight:bold;font-size:14px;font-family:HelveticaNeueCyr, Sans-serif;fill:#ffe0e0">
    <path
       d="m 47.344,58 h -2.072 q -0.126,-1.484 -1.89,-1.484 -0.756,0 -1.19,0.308 -0.42,0.294 -0.42,0.826 0,0.182 0.056,0.322 0.056,0.14 0.21,0.266 0.154,0.112 0.308,0.196 0.154,0.07 0.448,0.168 0.308,0.084 0.546,0.154 0.252,0.07 0.7,0.182 0.448,0.112 0.784,0.21 1.47,0.42 2.184,1.05 0.728,0.63 0.728,1.806 0,0.854 -0.35,1.498 -0.35,0.63 -0.952,1.008 -0.588,0.364 -1.302,0.532 -0.7,0.182 -1.498,0.182 -2.03,0 -3.178,-0.924 -1.134,-0.938 -1.148,-2.632 h 2.17 q 0.056,1.876 2.254,1.876 0.854,0 1.344,-0.35 0.504,-0.364 0.504,-0.98 0,-0.518 -0.462,-0.756 Q 44.67,61.22 43.214,60.8 42.976,60.744 42.85,60.702 q -0.504,-0.14 -0.7,-0.196 -0.196,-0.07 -0.63,-0.224 -0.42,-0.154 -0.616,-0.28 -0.196,-0.126 -0.49,-0.35 -0.28,-0.224 -0.406,-0.462 -0.126,-0.252 -0.238,-0.602 -0.098,-0.364 -0.098,-0.784 0,-1.358 1.05,-2.17 1.05,-0.812 2.786,-0.812 1.68,0 2.744,0.798 1.064,0.784 1.092,2.38 z"
       id="path1061" />
    <path
       d="m 56.528002,55.032 v 1.792 h -5.306 v 2.17 h 4.872 v 1.722 h -4.872 v 2.45 h 5.404 V 65 h -7.574 v -9.968 z"
       id="path1063" />
    <path
       d="M 65.180012,63.124 V 65 h -7.056 v -9.968 h 2.184 v 8.092 z"
       id="path1065" />
    <path
       d="m 73.902018,55.032 v 1.792 h -5.306 v 2.17 h 4.872 v 1.722 h -4.872 v 2.45 h 5.404 V 65 h -7.574 v -9.968 z"
       id="path1067" />
    <path
       d="m 84.402028,61.15 q -0.168,1.876 -1.316,2.982 -1.148,1.106 -3.15,1.106 -2.17,0 -3.5,-1.428 -1.316,-1.442 -1.316,-3.808 0,-2.24 1.33,-3.724 1.344,-1.484 3.57,-1.484 1.778,0 2.982,1.008 1.204,1.008 1.33,2.562 h -2.142 q -0.168,-0.826 -0.756,-1.274 -0.574,-0.462 -1.456,-0.462 -0.91,0 -1.54,0.518 -0.616,0.504 -0.868,1.246 -0.252,0.742 -0.252,1.624 0,1.54 0.714,2.464 0.714,0.91 1.918,0.91 2.002,0 2.282,-2.24 z"
       id="path1069" />
    <path
       d="m 93.278017,55.032 v 1.862 h -2.996 V 65 h -2.198 v -8.106 h -2.996 v -1.862 z"
       id="path1071" />
  </g>
  <a
     xlink:href="#column"
     xlink:title="column"
     id="a22">
    <g
       id="rect16">
      <path
         style="color:#000000;fill:#320000;-inkscape-stroke:none"
         d="m 141,47 h 64 v 32 h -64 z"
         id="path1026" />
      <path
         style="color:#000000;fill:#320000;-inkscape-stroke:none"
         d="M 140.5,46.5 V 47 79.5 h 65 v -33 z m 1,1 h 63 v 31 h -63 z"
         id="path1028" />
    </g>
    <g
       id="rect18"
       class="nonterminal">
      <path
         style="color:#000000;fill:#ff3f3f;-inkscape-stroke:none"
         d="m 139,45 h 64 v 32 h -64 z"
         id="path1032" />
      <path
         style="color:#000000;fill:#320000;-inkscape-stroke:none"
         d="M 138.5,44.5 V 45 77.5 h 65 v -33 z m 1,1 h 63 v 31 h -63 z"
         id="path1034" />
    </g>
    <g
       aria-label="column"
       id="text20"
       class="nonterminal"
       style="font-size:14px;font-family:HelveticaNeueCyr, Sans-serif;fill:#ffe0e0">
      <path
         d="m 156.112,62.368 q -0.154,1.302 -0.994,2.072 -0.826,0.77 -2.156,0.77 -1.638,0 -2.534,-1.008 -0.896,-1.022 -0.896,-2.716 0,-1.806 0.938,-2.856 0.938,-1.064 2.534,-1.064 1.33,0 2.128,0.672 0.798,0.658 0.938,1.89 h -1.232 q -0.322,-1.568 -1.82,-1.568 -1.036,0 -1.638,0.77 -0.602,0.756 -0.602,2.058 0,1.316 0.574,2.072 0.574,0.756 1.582,0.756 0.812,0 1.316,-0.476 0.518,-0.476 0.658,-1.372 z"
         id="path1036" />
      <path
         d="m 157.98801,58.602 q 0.952,-1.036 2.59,-1.036 1.638,0 2.548,0.994 0.91,0.994 0.91,2.786 0,1.834 -0.91,2.856 -0.91,1.022 -2.562,1.022 -1.652,0 -2.59,-1.008 -0.938,-1.008 -0.938,-2.8 0,-1.778 0.952,-2.814 z m 4.214,0.728 q -0.602,-0.77 -1.652,-0.77 -1.05,0 -1.666,0.77 -0.616,0.77 -0.616,2.058 0,1.33 0.602,2.086 0.616,0.742 1.708,0.742 1.05,0 1.638,-0.756 0.602,-0.756 0.602,-2.086 0,-1.288 -0.616,-2.044 z"
         id="path1038" />
      <path
         d="M 166.71,55.032 V 65 h -1.204 v -9.968 z"
         id="path1040" />
      <path
         d="M 174.55,57.776 V 65 h -1.106 v -1.134 q -0.924,1.33 -2.492,1.33 -1.148,0 -1.778,-0.63 -0.63,-0.63 -0.63,-1.82 v -4.97 h 1.19 v 4.648 q 0,0.854 0.322,1.302 0.336,0.434 1.19,0.434 2.114,0 2.114,-2.604 v -3.78 z"
         id="path1042" />
      <path
         d="m 177.462,57.776 v 1.05 q 0.476,-0.644 1.022,-0.938 0.546,-0.294 1.33,-0.294 1.484,0 2.002,1.246 0.938,-1.26 2.394,-1.26 1.12,0 1.694,0.63 0.588,0.616 0.588,1.736 V 65 h -1.19 v -4.55 q 0,-0.896 -0.28,-1.344 -0.28,-0.462 -1.162,-0.462 -1.848,0 -1.848,2.254 V 65 h -1.19 v -4.634 q 0,-0.826 -0.28,-1.26 -0.266,-0.448 -1.05,-0.448 -1.106,0 -1.54,0.686 -0.42,0.672 -0.42,1.834 V 65 h -1.19 v -7.224 z"
         id="path1044" />
      <path
         d="m 189.40401,57.776 v 1.12 q 0.896,-1.316 2.464,-1.316 1.274,0 1.834,0.672 0.574,0.658 0.574,1.946 V 65 h -1.19 v -4.256 q 0,-0.532 -0.042,-0.826 -0.028,-0.308 -0.168,-0.644 -0.14,-0.35 -0.476,-0.504 -0.336,-0.154 -0.868,-0.154 -2.058,0 -2.058,2.604 V 65 h -1.19 v -7.224 z"
         id="path1046" />
    </g>
  </a>
  <g
     id="rect24">
    <path
       style="color:#000000;fill:#320000;-inkscape-stroke:none"
       d="m 151,3 h 4 c 5.54,0 10,4.46 10,10 v 12 c 0,5.54 -4.46,10 -10,10 h -4 c -5.54,0 -10,-4.46 -10,-10 V 13 c 0,-5.54 4.46,-10 10,-10 z"
       id="path1020" />
    <path
       style="color:#000000;fill:#320000;-inkscape-stroke:none"
       d="m 151,2.5 c -5.80835,0 -10.5,4.6916544 -10.5,10.5 v 12 c 0,5.808346 4.69165,10.5 10.5,10.5 h 4 c 5.80835,0 10.5,-4.691654 10.5,-10.5 V 13 C 165.5,7.1916544 160.80835,2.5 155,2.5 Z m 0,1 h 4 c 5.27164,0 9.5,4.2283567 9.5,9.5 v 12 c 0,5.271643 -4.22836,9.5 -9.5,9.5 h -4 c -5.27164,0 -9.5,-4.228357 -9.5,-9.5 V 13 c 0,-5.2716433 4.22836,-9.5 9.5,-9.5 z"
       id="path1022" />
  </g>
  <g
     id="rect26"
     class="terminal">
    <path
       style="color:#000000;fill:#ff0000;-inkscape-stroke:none"
       d="m 149,1 h 4 c 5.54,0 10,4.46 10,10 v 12 c 0,5.54 -4.46,10 -10,10 h -4 c -5.54,0 -10,-4.46 -10,-10 V 11 c 0,-5.54 4.46,-10 10,-10 z"
       id="path1014" />
    <path
       style="color:#000000;fill:#320000;-inkscape-stroke:none"
       d="m 149,0.5 c -5.80835,0 -10.5,4.6916544 -10.5,10.5 v 12 c 0,5.808346 4.69165,10.5 10.5,10.5 h 4 c 5.80835,0 10.5,-4.691654 10.5,-10.5 V 11 C 163.5,5.1916544 158.80835,0.5 153,0.5 Z m 0,1 h 4 c 5.27164,0 9.5,4.2283567 9.5,9.5 v 12 c 0,5.271643 -4.22836,9.5 -9.5,9.5 h -4 c -5.27164,0 -9.5,-4.228357 -9.5,-9.5 V 11 c 0,-5.2716433 4.22836,-9.5 9.5,-9.5 z"
       id="path1016" />
  </g>
  <g
     aria-label=","
     id="text28"
     class="terminal"
     style="font-weight:bold;font-size:14px;font-family:HelveticaNeueCyr, Sans-serif;fill:#ffe0e0">
    <path
       d="m 152.052,18.816 v 1.778 q 0,1.218 -0.546,1.876 -0.532,0.672 -1.666,0.854 v -0.98 q 0.938,-0.28 0.994,-1.344 h -0.994 v -2.184 z"
       id="path1007" />
  </g>
  <g
     id="rect30">
    <path
       style="color:#000000;fill:#320000;-inkscape-stroke:none"
       d="m 255,47 h 40 c 5.54,0 10,4.46 10,10 v 12 c 0,5.54 -4.46,10 -10,10 h -40 c -5.54,0 -10,-4.46 -10,-10 V 57 c 0,-5.54 4.46,-10 10,-10 z"
       id="path1003" />
    <path
       style="color:#000000;fill:#320000;-inkscape-stroke:none"
       d="m 255,46.5 c -5.80835,0 -10.5,4.691654 -10.5,10.5 v 12 c 0,5.808346 4.69165,10.5 10.5,10.5 h 40 c 5.80835,0 10.5,-4.691654 10.5,-10.5 V 57 c 0,-5.808346 -4.69165,-10.5 -10.5,-10.5 z m 0,1 h 40 c 5.27164,0 9.5,4.228357 9.5,9.5 v 12 c 0,5.271643 -4.22836,9.5 -9.5,9.5 h -40 c -5.27164,0 -9.5,-4.228357 -9.5,-9.5 V 57 c 0,-5.271643 4.22836,-9.5 9.5,-9.5 z"
       id="path1005" />
  </g>
  <g
     id="rect32"
     class="terminal">
    <path
       style="color:#000000;fill:#ff0000;-inkscape-stroke:none"
       d="m 253,45 h 40 c 5.54,0 10,4.46 10,10 v 12 c 0,5.54 -4.46,10 -10,10 h -40 c -5.54,0 -10,-4.46 -10,-10 V 55 c 0,-5.54 4.46,-10 10,-10 z"
       id="path997" />
    <path
       style="color:#000000;fill:#320000;-inkscape-stroke:none"
       d="m 253,44.5 c -5.80835,0 -10.5,4.691654 -10.5,10.5 v 12 c 0,5.808346 4.69165,10.5 10.5,10.5 h 40 c 5.80835,0 10.5,-4.691654 10.5,-10.5 V 55 c 0,-5.808346 -4.69165,-10.5 -10.5,-10.5 z m 0,1 h 40 c 5.27164,0 9.5,4.228357 9.5,9.5 v 12 c 0,5.271643 -4.22836,9.5 -9.5,9.5 h -40 c -5.27164,0 -9.5,-4.228357 -9.5,-9.5 V 55 c 0,-5.271643 4.22836,-9.5 9.5,-9.5 z"
       id="path999" />
  </g>
  <g
     aria-label="FROM"
     id="text34"
     class="terminal"
     style="font-weight:bold;font-size:14px;font-family:HelveticaNeueCyr, Sans-serif;fill:#ffe0e0">
    <path
       d="m 260.994,55.032 v 1.834 h -4.844 v 2.31 h 4.214 v 1.736 H 256.15 V 65 h -2.184 v -9.968 z"
       id="path978" />
    <path
       d="m 262.35201,55.032 h 4.956 q 1.484,0 2.422,0.7 0.938,0.7 0.938,2.128 0,0.868 -0.42,1.526 -0.42,0.644 -1.162,0.924 1.288,0.266 1.47,2.324 0,0.07 0.028,0.434 0.028,0.364 0.056,0.588 0.028,0.21 0.07,0.518 0.042,0.308 0.126,0.518 0.084,0.21 0.196,0.308 h -2.268 q -0.112,-0.224 -0.168,-0.56 -0.056,-0.35 -0.098,-0.882 -0.042,-0.546 -0.042,-0.602 -0.112,-1.05 -0.532,-1.456 -0.406,-0.406 -1.456,-0.406 h -1.946 V 65 h -2.17 z m 2.17,1.722 v 2.758 h 2.072 q 0.91,0 1.414,-0.28 0.518,-0.294 0.518,-1.134 0,-0.784 -0.504,-1.064 -0.49,-0.28 -1.33,-0.28 z"
       id="path980" />
    <path
       d="m 276.88401,54.794 q 2.184,0 3.528,1.456 1.358,1.442 1.358,3.78 0,2.338 -1.358,3.78 -1.344,1.428 -3.542,1.428 -2.212,0 -3.57,-1.428 -1.358,-1.442 -1.358,-3.78 0,-2.366 1.344,-3.794 1.358,-1.442 3.598,-1.442 z m -0.028,1.792 q -1.232,0 -1.974,0.924 -0.728,0.924 -0.728,2.478 0,1.61 0.728,2.52 0.728,0.91 2.002,0.924 1.246,0 1.96,-0.924 0.714,-0.924 0.714,-2.52 0,-1.568 -0.728,-2.478 -0.728,-0.924 -1.974,-0.924 z"
       id="path982" />
    <path
       d="m 283.26801,65 v -9.968 h 3.122 l 2.324,6.846 2.268,-6.846 h 3.052 V 65 h -2.058 v -7.084 l -2.45,7.084 h -1.694 l -2.478,-7.014 V 65 Z"
       id="path984" />
  </g>
  <a
     xlink:href="#table"
     xlink:title="table"
     id="a42">
    <g
       id="rect36">
      <path
         style="color:#000000;fill:#320000;-inkscape-stroke:none"
         d="m 365,47 h 52 v 32 h -52 z"
         id="path947" />
      <path
         style="color:#000000;fill:#320000;-inkscape-stroke:none"
         d="M 364.5,46.5 V 47 79.5 h 53 v -33 z m 1,1 h 51 v 31 h -51 z"
         id="path949" />
    </g>
    <g
       id="rect38"
       class="nonterminal">
      <path
         style="color:#000000;fill:#ff3f3f;-inkscape-stroke:none"
         d="m 363,45 h 52 v 32 h -52 z"
         id="path953" />
      <path
         style="color:#000000;fill:#320000;-inkscape-stroke:none"
         d="M 362.5,44.5 V 45 77.5 h 53 v -33 z m 1,1 h 51 v 31 h -51 z"
         id="path955" />
    </g>
    <g
       aria-label="table"
       id="text40"
       class="nonterminal"
       style="font-size:14px;font-family:HelveticaNeueCyr, Sans-serif;fill:#ffe0e0">
      <path
         d="m 376.99,57.776 v 0.98 h -1.442 v 4.214 q 0,0.35 0,0.462 0.014,0.112 0.084,0.308 0.07,0.182 0.238,0.238 0.168,0.056 0.476,0.056 0.266,0 0.644,-0.042 v 1.022 q -0.504,0.056 -0.91,0.056 -0.504,0 -0.84,-0.112 -0.336,-0.112 -0.518,-0.252 -0.168,-0.14 -0.252,-0.49 -0.084,-0.364 -0.098,-0.602 -0.014,-0.252 -0.014,-0.826 0,-0.126 0,-0.196 v -3.836 h -1.218 v -0.98 h 1.218 v -2.142 h 1.19 v 2.142 z"
         id="path957" />
      <path
         d="m 384.70401,64.048 v 0.924 q -0.364,0.14 -0.812,0.14 -1.022,0 -1.05,-1.064 -1.022,1.148 -2.618,1.148 -1.064,0 -1.694,-0.546 -0.616,-0.546 -0.616,-1.498 0,-1.932 2.562,-2.254 1.512,-0.182 1.75,-0.266 0.504,-0.168 0.546,-0.7 0.014,-0.084 0.014,-0.182 0,-1.19 -1.638,-1.19 -0.84,0 -1.274,0.35 -0.434,0.336 -0.518,1.12 h -1.162 q 0.028,-1.162 0.826,-1.806 0.798,-0.644 2.198,-0.644 1.526,0 2.268,0.7 0.238,0.224 0.35,0.588 0.112,0.364 0.126,0.602 0.014,0.224 0.014,0.686 0,0.546 -0.028,1.624 -0.028,1.064 -0.028,1.596 0,0.392 0.098,0.56 0.112,0.154 0.392,0.154 0.112,0 0.294,-0.042 z m -1.918,-2.8 q -0.126,0.098 -0.266,0.168 -0.14,0.07 -0.364,0.112 -0.21,0.042 -0.294,0.07 -0.07,0.014 -0.364,0.056 -0.294,0.028 -0.308,0.028 -0.434,0.056 -0.574,0.084 -0.126,0.014 -0.504,0.112 -0.364,0.098 -0.518,0.224 -0.154,0.126 -0.308,0.378 -0.14,0.238 -0.14,0.574 0,0.56 0.378,0.882 0.392,0.322 1.064,0.322 0.854,0 1.526,-0.504 0.672,-0.504 0.672,-1.19 z"
         id="path959" />
      <path
         d="m 387.00002,55.032 v 3.738 q 0.784,-1.19 2.394,-1.19 1.484,0 2.366,1.036 0.896,1.022 0.896,2.744 0,1.75 -0.91,2.8 -0.91,1.05 -2.422,1.05 -1.722,0 -2.394,-1.26 V 65 h -1.12 v -9.968 z m 2.212,3.556 q -1.148,0 -1.708,0.826 -0.546,0.826 -0.546,2.03 0,1.274 0.602,2.03 0.616,0.742 1.652,0.742 0.994,0 1.596,-0.77 0.616,-0.784 0.616,-2.072 0,-1.274 -0.602,-2.03 -0.602,-0.756 -1.61,-0.756 z"
         id="path961" />
      <path
         d="M 395.38602,55.032 V 65 h -1.204 v -9.968 z"
         id="path963" />
      <path
         d="m 403.40802,62.718 q -0.546,2.52 -3.15,2.52 -1.596,0 -2.506,-0.994 -0.896,-0.994 -0.896,-2.758 0,-1.75 0.924,-2.828 0.938,-1.092 2.436,-1.092 1.666,0 2.464,1.134 0.812,1.12 0.812,2.842 v 0.168 h -5.432 l -0.014,0.084 q 0,1.148 0.602,1.806 0.602,0.658 1.652,0.658 0.784,0 1.232,-0.364 0.462,-0.364 0.714,-1.176 z m -1.148,-1.974 q -0.084,-1.036 -0.63,-1.61 -0.546,-0.588 -1.442,-0.588 -0.868,0 -1.442,0.588 -0.574,0.588 -0.686,1.61 z"
         id="path965" />
    </g>
  </a>
  <g
     id="rect44">
    <path
       style="color:#000000;fill:#320000;-inkscape-stroke:none"
       d="m 375,3 h 4 c 5.54,0 10,4.46 10,10 v 12 c 0,5.54 -4.46,10 -10,10 h -4 c -5.54,0 -10,-4.46 -10,-10 V 13 c 0,-5.54 4.46,-10 10,-10 z"
       id="path941" />
    <path
       style="color:#000000;fill:#320000;-inkscape-stroke:none"
       d="m 375,2.5 c -5.80835,0 -10.5,4.6916544 -10.5,10.5 v 12 c 0,5.808346 4.69165,10.5 10.5,10.5 h 4 c 5.80835,0 10.5,-4.691654 10.5,-10.5 V 13 C 389.5,7.1916544 384.80835,2.5 379,2.5 Z m 0,1 h 4 c 5.27164,0 9.5,4.2283567 9.5,9.5 v 12 c 0,5.271643 -4.22836,9.5 -9.5,9.5 h -4 c -5.27164,0 -9.5,-4.228357 -9.5,-9.5 V 13 c 0,-5.2716433 4.22836,-9.5 9.5,-9.5 z"
       id="path943" />
  </g>
  <g
     id="rect46"
     class="terminal">
    <path
       style="color:#000000;fill:#ff0000;-inkscape-stroke:none"
       d="m 373,1 h 4 c 5.54,0 10,4.46 10,10 v 12 c 0,5.54 -4.46,10 -10,10 h -4 c -5.54,0 -10,-4.46 -10,-10 V 11 c 0,-5.54 4.46,-10 10,-10 z"
       id="path935" />
    <path
       style="color:#000000;fill:#320000;-inkscape-stroke:none"
       d="m 373,0.5 c -5.80835,0 -10.5,4.6916544 -10.5,10.5 v 12 c 0,5.808346 4.69165,10.5 10.5,10.5 h 4 c 5.80835,0 10.5,-4.691654 10.5,-10.5 V 11 C 387.5,5.1916544 382.80835,0.5 377,0.5 Z m 0,1 h 4 c 5.27164,0 9.5,4.2283567 9.5,9.5 v 12 c 0,5.271643 -4.22836,9.5 -9.5,9.5 h -4 c -5.27164,0 -9.5,-4.228357 -9.5,-9.5 V 11 c 0,-5.2716433 4.22836,-9.5 9.5,-9.5 z"
       id="path937" />
  </g>
  <g
     aria-label=","
     id="text48"
     class="terminal"
     style="font-weight:bold;font-size:14px;font-family:HelveticaNeueCyr, Sans-serif;fill:#ffe0e0">
    <path
       d="m 376.052,18.816 v 1.778 q 0,1.218 -0.546,1.876 -0.532,0.672 -1.666,0.854 v -0.98 q 0.938,-0.28 0.994,-1.344 h -0.994 v -2.184 z"
       id="path928" />
  </g>
  <a
     xlink:href="#SELECT"
     xlink:title="SELECT"
     id="a56">
    <g
       id="rect50">
      <path
         style="color:#000000;fill:#320000;-inkscape-stroke:none"
         d="m 345,91 h 66 v 32 h -66 z"
         id="path893" />
      <path
         style="color:#000000;fill:#320000;-inkscape-stroke:none"
         d="m 344.5,90.5 v 0.5 32.5 h 67 v -33 z m 1,1 h 65 v 31 h -65 z"
         id="path895" />
    </g>
    <g
       id="rect52"
       class="nonterminal">
      <path
         style="color:#000000;fill:#ff3f3f;-inkscape-stroke:none"
         d="m 343,89 h 66 v 32 h -66 z"
         id="path899" />
      <path
         style="color:#000000;fill:#320000;-inkscape-stroke:none"
         d="m 342.5,88.5 v 0.5 32.5 h 67 v -33 z m 1,1 h 65 v 31 h -65 z"
         id="path901" />
    </g>
    <g
       aria-label="SELECT"
       id="text54"
       class="nonterminal"
       style="font-size:14px;font-family:HelveticaNeueCyr, Sans-serif;fill:#ffe0e0">
      <path
         d="m 361.162,101.958 h -1.274 q -0.21,-2.03 -2.478,-2.03 -1.078,0 -1.666,0.434 -0.588,0.434 -0.588,1.218 0,0.28 0.084,0.49 0.084,0.21 0.28,0.378 0.21,0.154 0.392,0.266 0.182,0.112 0.574,0.224 0.392,0.112 0.63,0.168 0.238,0.042 0.742,0.154 0.616,0.126 1.022,0.238 0.406,0.098 0.966,0.336 0.56,0.238 0.882,0.532 0.336,0.28 0.574,0.756 0.252,0.476 0.252,1.078 0,1.05 -0.588,1.764 -0.588,0.7 -1.428,0.98 -0.84,0.28 -1.862,0.28 -1.876,0 -3.01,-0.882 -1.12,-0.896 -1.12,-2.632 h 1.274 q 0.042,1.274 0.854,1.862 0.812,0.574 2.114,0.574 1.022,0 1.75,-0.42 0.728,-0.434 0.728,-1.4 0,-0.448 -0.196,-0.756 -0.196,-0.322 -0.616,-0.518 -0.42,-0.21 -0.84,-0.336 -0.42,-0.126 -1.106,-0.28 -0.098,-0.014 -0.14,-0.028 -1.54,-0.35 -2.016,-0.56 -1.456,-0.63 -1.456,-2.17 0,-1.428 1.05,-2.128 1.064,-0.714 2.562,-0.714 1.638,0 2.618,0.784 0.98,0.784 1.036,2.338 z"
         id="path903" />
      <path
         d="m 370.08001,99.032 v 1.148 h -5.586 v 3.122 h 5.222 v 1.106 h -5.222 v 3.444 h 5.656 V 109 h -6.972 v -9.968 z"
         id="path905" />
      <path
         d="M 378.35401,107.852 V 109 h -6.608 v -9.968 h 1.316 v 8.82 z"
         id="path907" />
      <path
         d="m 386.41801,99.032 v 1.148 h -5.586 v 3.122 h 5.222 v 1.106 h -5.222 v 3.444 h 5.656 V 109 h -6.972 v -9.968 z"
         id="path909" />
      <path
         d="m 396.51201,105.234 q -0.168,1.89 -1.316,2.954 -1.134,1.05 -2.996,1.05 -2.128,0 -3.374,-1.4 -1.246,-1.414 -1.246,-3.808 0,-2.24 1.246,-3.724 1.26,-1.498 3.472,-1.498 1.582,0 2.786,0.854 1.204,0.854 1.344,2.366 h -1.316 q -0.224,-0.98 -0.98,-1.526 -0.756,-0.56 -1.862,-0.56 -1.666,0 -2.52,1.176 -0.84,1.176 -0.84,2.898 0,1.904 0.896,2.996 0.896,1.092 2.45,1.092 1.274,0 2.03,-0.728 0.756,-0.742 0.91,-2.142 z"
         id="path911" />
      <path
         d="m 405.09401,99.032 v 1.148 h -3.346 V 109 h -1.316 v -8.82 h -3.346 v -1.148 z"
         id="path913" />
    </g>
  </a>
  <g
     id="rect58">
    <path
       style="color:#000000;fill:#320000;-inkscape-stroke:none"
       d="m 322,173 h 18 c 5.54,0 10,4.46 10,10 v 12 c 0,5.54 -4.46,10 -10,10 h -18 c -5.54,0 -10,-4.46 -10,-10 v -12 c 0,-5.54 4.46,-10 10,-10 z"
       id="path887" />
    <path
       style="color:#000000;fill:#320000;-inkscape-stroke:none"
       d="m 322,172.5 c -5.80835,0 -10.5,4.69165 -10.5,10.5 v 12 c 0,5.80835 4.69165,10.5 10.5,10.5 h 18 c 5.80835,0 10.5,-4.69165 10.5,-10.5 v -12 c 0,-5.80835 -4.69165,-10.5 -10.5,-10.5 z m 0,1 h 18 c 5.27164,0 9.5,4.22836 9.5,9.5 v 12 c 0,5.27164 -4.22836,9.5 -9.5,9.5 h -18 c -5.27164,0 -9.5,-4.22836 -9.5,-9.5 v -12 c 0,-5.27164 4.22836,-9.5 9.5,-9.5 z"
       id="path889" />
  </g>
  <g
     id="rect60"
     class="terminal">
    <path
       style="color:#000000;fill:#ff0000;-inkscape-stroke:none"
       d="m 320,171 h 18 c 5.54,0 10,4.46 10,10 v 12 c 0,5.54 -4.46,10 -10,10 h -18 c -5.54,0 -10,-4.46 -10,-10 v -12 c 0,-5.54 4.46,-10 10,-10 z"
       id="path881" />
    <path
       style="color:#000000;fill:#320000;-inkscape-stroke:none"
       d="m 320,170.5 c -5.80835,0 -10.5,4.69165 -10.5,10.5 v 12 c 0,5.80835 4.69165,10.5 10.5,10.5 h 18 c 5.80835,0 10.5,-4.69165 10.5,-10.5 v -12 c 0,-5.80835 -4.69165,-10.5 -10.5,-10.5 z m 0,1 h 18 c 5.27164,0 9.5,4.22836 9.5,9.5 v 12 c 0,5.27164 -4.22836,9.5 -9.5,9.5 h -18 c -5.27164,0 -9.5,-4.22836 -9.5,-9.5 v -12 c 0,-5.27164 4.22836,-9.5 9.5,-9.5 z"
       id="path883" />
  </g>
  <g
     aria-label="AS"
     id="text62"
     class="terminal"
     style="font-weight:bold;font-size:14px;font-family:HelveticaNeueCyr, Sans-serif;fill:#ffe0e0">
    <path
       d="m 325.922,181.018 3.794,9.982 h -2.296 l -0.784,-2.226 h -3.71 L 322.114,191 h -2.24 l 3.794,-9.982 z m 0.182,6.16 -1.316,-3.71 -1.33,3.71 z"
       id="path870" />
    <path
       d="m 337.93399,184 h -2.072 q -0.126,-1.484 -1.89,-1.484 -0.756,0 -1.19,0.308 -0.42,0.294 -0.42,0.826 0,0.182 0.056,0.322 0.056,0.14 0.21,0.266 0.154,0.112 0.308,0.196 0.154,0.07 0.448,0.168 0.308,0.084 0.546,0.154 0.252,0.07 0.7,0.182 0.448,0.112 0.784,0.21 1.47,0.42 2.184,1.05 0.728,0.63 0.728,1.806 0,0.854 -0.35,1.498 -0.35,0.63 -0.952,1.008 -0.588,0.364 -1.302,0.532 -0.7,0.182 -1.498,0.182 -2.03,0 -3.178,-0.924 -1.134,-0.938 -1.148,-2.632 h 2.17 q 0.056,1.876 2.254,1.876 0.854,0 1.344,-0.35 0.504,-0.364 0.504,-0.98 0,-0.518 -0.462,-0.756 -0.448,-0.238 -1.904,-0.658 -0.238,-0.056 -0.364,-0.098 -0.504,-0.14 -0.7,-0.196 -0.196,-0.07 -0.63,-0.224 -0.42,-0.154 -0.616,-0.28 -0.196,-0.126 -0.49,-0.35 -0.28,-0.224 -0.406,-0.462 -0.126,-0.252 -0.238,-0.602 -0.098,-0.364 -0.098,-0.784 0,-1.358 1.05,-2.17 1.05,-0.812 2.786,-0.812 1.68,0 2.744,0.798 1.064,0.784 1.092,2.38 z"
       id="path872" />
  </g>
  <a
     xlink:href="#alias"
     xlink:title="alias"
     id="a70">
    <g
       id="rect64">
      <path
         style="color:#000000;fill:#320000;-inkscape-stroke:none"
         d="m 370,173 h 50 v 32 h -50 z"
         id="path839" />
      <path
         style="color:#000000;fill:#320000;-inkscape-stroke:none"
         d="m 369.5,172.5 v 0.5 32.5 h 51 v -33 z m 1,1 h 49 v 31 h -49 z"
         id="path841" />
    </g>
    <g
       id="rect66"
       class="nonterminal">
      <path
         style="color:#000000;fill:#ff3f3f;-inkscape-stroke:none"
         d="m 368,171 h 50 v 32 h -50 z"
         id="path845" />
      <path
         style="color:#000000;fill:#320000;-inkscape-stroke:none"
         d="m 367.5,170.5 v 0.5 32.5 h 51 v -33 z m 1,1 h 49 v 31 h -49 z"
         id="path847" />
    </g>
    <g
       aria-label="alias"
       id="text68"
       class="nonterminal"
       style="font-size:14px;font-family:HelveticaNeueCyr, Sans-serif;fill:#ffe0e0">
      <path
         d="m 385.294,190.048 v 0.924 q -0.364,0.14 -0.812,0.14 -1.022,0 -1.05,-1.064 -1.022,1.148 -2.618,1.148 -1.064,0 -1.694,-0.546 -0.616,-0.546 -0.616,-1.498 0,-1.932 2.562,-2.254 1.512,-0.182 1.75,-0.266 0.504,-0.168 0.546,-0.7 0.014,-0.084 0.014,-0.182 0,-1.19 -1.638,-1.19 -0.84,0 -1.274,0.35 -0.434,0.336 -0.518,1.12 h -1.162 q 0.028,-1.162 0.826,-1.806 0.798,-0.644 2.198,-0.644 1.526,0 2.268,0.7 0.238,0.224 0.35,0.588 0.112,0.364 0.126,0.602 0.014,0.224 0.014,0.686 0,0.546 -0.028,1.624 -0.028,1.064 -0.028,1.596 0,0.392 0.098,0.56 0.112,0.154 0.392,0.154 0.112,0 0.294,-0.042 z m -1.918,-2.8 q -0.126,0.098 -0.266,0.168 -0.14,0.07 -0.364,0.112 -0.21,0.042 -0.294,0.07 -0.07,0.014 -0.364,0.056 -0.294,0.028 -0.308,0.028 -0.434,0.056 -0.574,0.084 -0.126,0.014 -0.504,0.112 -0.364,0.098 -0.518,0.224 -0.154,0.126 -0.308,0.378 -0.14,0.238 -0.14,0.574 0,0.56 0.378,0.882 0.392,0.322 1.064,0.322 0.854,0 1.526,-0.504 0.672,-0.504 0.672,-1.19 z"
         id="path849" />
      <path
         d="M 387.67401,181.032 V 191 h -1.204 v -9.968 z"
         id="path851" />
      <path
         d="m 390.78201,181.032 v 1.456 h -1.204 v -1.456 z m 0,2.744 V 191 h -1.204 v -7.224 z"
         id="path853" />
      <path
         d="m 399.02801,190.048 v 0.924 q -0.364,0.14 -0.812,0.14 -1.022,0 -1.05,-1.064 -1.022,1.148 -2.618,1.148 -1.064,0 -1.694,-0.546 -0.616,-0.546 -0.616,-1.498 0,-1.932 2.562,-2.254 1.512,-0.182 1.75,-0.266 0.504,-0.168 0.546,-0.7 0.014,-0.084 0.014,-0.182 0,-1.19 -1.638,-1.19 -0.84,0 -1.274,0.35 -0.434,0.336 -0.518,1.12 h -1.162 q 0.028,-1.162 0.826,-1.806 0.798,-0.644 2.198,-0.644 1.526,0 2.268,0.7 0.238,0.224 0.35,0.588 0.112,0.364 0.126,0.602 0.014,0.224 0.014,0.686 0,0.546 -0.028,1.624 -0.028,1.064 -0.028,1.596 0,0.392 0.098,0.56 0.112,0.154 0.392,0.154 0.112,0 0.294,-0.042 z m -1.918,-2.8 q -0.126,0.098 -0.266,0.168 -0.14,0.07 -0.364,0.112 -0.21,0.042 -0.294,0.07 -0.07,0.014 -0.364,0.056 -0.294,0.028 -0.308,0.028 -0.434,0.056 -0.574,0.084 -0.126,0.014 -0.504,0.112 -0.364,0.098 -0.518,0.224 -0.154,0.126 -0.308,0.378 -0.14,0.238 -0.14,0.574 0,0.56 0.378,0.882 0.392,0.322 1.064,0.322 0.854,0 1.526,-0.504 0.672,-0.504 0.672,-1.19 z"
         id="path855" />
      <path
         d="m 405.51002,185.876 h -1.19 q -0.112,-1.316 -1.764,-1.316 -0.686,0 -1.078,0.266 -0.392,0.266 -0.392,0.714 0,0.126 0.028,0.252 0.028,0.112 0.098,0.21 0.084,0.084 0.14,0.154 0.07,0.07 0.21,0.14 0.154,0.056 0.224,0.098 0.084,0.042 0.28,0.098 0.21,0.042 0.294,0.07 0.084,0.014 0.322,0.07 0.252,0.056 0.322,0.07 0.518,0.112 0.77,0.182 0.266,0.07 0.714,0.266 0.462,0.182 0.7,0.392 0.238,0.196 0.42,0.56 0.196,0.35 0.196,0.798 0,1.05 -0.826,1.694 -0.812,0.63 -2.17,0.63 -1.47,0 -2.268,-0.644 -0.784,-0.644 -0.84,-1.862 h 1.176 q 0.098,1.526 1.96,1.526 0.798,0 1.274,-0.322 0.49,-0.336 0.49,-0.882 0,-0.364 -0.252,-0.602 -0.252,-0.238 -0.56,-0.336 -0.308,-0.112 -0.882,-0.252 -0.084,-0.014 -0.126,-0.028 -0.126,-0.028 -0.546,-0.112 -0.406,-0.098 -0.588,-0.154 -0.182,-0.056 -0.532,-0.168 -0.336,-0.126 -0.504,-0.252 -0.168,-0.14 -0.378,-0.336 -0.196,-0.21 -0.28,-0.476 -0.084,-0.28 -0.084,-0.63 0,-0.98 0.742,-1.554 0.756,-0.574 2.016,-0.574 1.274,0 2.072,0.602 0.812,0.602 0.812,1.708 z"
         id="path857" />
    </g>
  </a>
  <g
     id="rect72">
    <path
       style="color:#000000;fill:#320000;-inkscape-stroke:none"
       d="m 75,287 h 44 c 5.54,0 10,4.46 10,10 v 12 c 0,5.54 -4.46,10 -10,10 H 75 c -5.54,0 -10,-4.46 -10,-10 v -12 c 0,-5.54 4.46,-10 10,-10 z"
       id="path833" />
    <path
       style="color:#000000;fill:#320000;-inkscape-stroke:none"
       d="m 75,286.5 c -5.808346,0 -10.5,4.69165 -10.5,10.5 v 12 c 0,5.80835 4.691654,10.5 10.5,10.5 h 44 c 5.80835,0 10.5,-4.69165 10.5,-10.5 v -12 c 0,-5.80835 -4.69165,-10.5 -10.5,-10.5 z m 0,1 h 44 c 5.27164,0 9.5,4.22836 9.5,9.5 v 12 c 0,5.27164 -4.22836,9.5 -9.5,9.5 H 75 c -5.271643,0 -9.5,-4.22836 -9.5,-9.5 v -12 c 0,-5.27164 4.228357,-9.5 9.5,-9.5 z"
       id="path835" />
  </g>
  <g
     id="rect74"
     class="terminal">
    <path
       style="color:#000000;fill:#ff0000;-inkscape-stroke:none"
       d="m 73,285 h 44 c 5.54,0 10,4.46 10,10 v 12 c 0,5.54 -4.46,10 -10,10 H 73 c -5.54,0 -10,-4.46 -10,-10 v -12 c 0,-5.54 4.46,-10 10,-10 z"
       id="path827" />
    <path
       style="color:#000000;fill:#320000;-inkscape-stroke:none"
       d="m 73,284.5 c -5.808346,0 -10.5,4.69165 -10.5,10.5 v 12 c 0,5.80835 4.691654,10.5 10.5,10.5 h 44 c 5.80835,0 10.5,-4.69165 10.5,-10.5 v -12 c 0,-5.80835 -4.69165,-10.5 -10.5,-10.5 z m 0,1 h 44 c 5.27164,0 9.5,4.22836 9.5,9.5 v 12 c 0,5.27164 -4.22836,9.5 -9.5,9.5 H 73 c -5.271643,0 -9.5,-4.22836 -9.5,-9.5 v -12 c 0,-5.27164 4.228357,-9.5 9.5,-9.5 z"
       id="path829" />
  </g>
  <g
     aria-label="INNER"
     id="text76"
     class="terminal"
     style="font-weight:bold;font-size:14px;font-family:HelveticaNeueCyr, Sans-serif;fill:#ffe0e0">
    <path
       d="M 76.164,295.032 V 305 h -2.198 v -9.968 z"
       id="path804" />
    <path
       d="m 78.096001,305 v -9.968 h 2.226 l 4.102,6.678 v -6.678 h 2.1 V 305 h -2.184 l -4.13,-6.692 V 305 Z"
       id="path806" />
    <path
       d="m 88.46999,305 v -9.968 h 2.226 l 4.102,6.678 v -6.678 h 2.1 V 305 h -2.184 l -4.13,-6.692 V 305 Z"
       id="path808" />
    <path
       d="m 106.31998,295.032 v 1.792 h -5.306 v 2.17 h 4.872 v 1.722 h -4.872 v 2.45 h 5.404 V 305 h -7.574001 v -9.968 z"
       id="path810" />
    <path
       d="m 107.99999,295.032 h 4.956 q 1.484,0 2.422,0.7 0.938,0.7 0.938,2.128 0,0.868 -0.42,1.526 -0.42,0.644 -1.162,0.924 1.288,0.266 1.47,2.324 0,0.07 0.028,0.434 0.028,0.364 0.056,0.588 0.028,0.21 0.07,0.518 0.042,0.308 0.126,0.518 0.084,0.21 0.196,0.308 h -2.268 q -0.112,-0.224 -0.168,-0.56 -0.056,-0.35 -0.098,-0.882 -0.042,-0.546 -0.042,-0.602 -0.112,-1.05 -0.532,-1.456 -0.406,-0.406 -1.456,-0.406 h -1.946 V 305 h -2.17 z m 2.17,1.722 v 2.758 h 2.072 q 0.91,0 1.414,-0.28 0.518,-0.294 0.518,-1.134 0,-0.784 -0.504,-1.064 -0.49,-0.28 -1.33,-0.28 z"
       id="path812" />
  </g>
  <g
     id="rect78">
    <path
       style="color:#000000;fill:#320000;-inkscape-stroke:none"
       d="m 179,255 h 34 c 5.54,0 10,4.46 10,10 v 12 c 0,5.54 -4.46,10 -10,10 h -34 c -5.54,0 -10,-4.46 -10,-10 v -12 c 0,-5.54 4.46,-10 10,-10 z"
       id="path800" />
    <path
       style="color:#000000;fill:#320000;-inkscape-stroke:none"
       d="m 179,254.5 c -5.80835,0 -10.5,4.69165 -10.5,10.5 v 12 c 0,5.80835 4.69165,10.5 10.5,10.5 h 34 c 5.80835,0 10.5,-4.69165 10.5,-10.5 v -12 c 0,-5.80835 -4.69165,-10.5 -10.5,-10.5 z m 0,1 h 34 c 5.27164,0 9.5,4.22836 9.5,9.5 v 12 c 0,5.27164 -4.22836,9.5 -9.5,9.5 h -34 c -5.27164,0 -9.5,-4.22836 -9.5,-9.5 v -12 c 0,-5.27164 4.22836,-9.5 9.5,-9.5 z"
       id="path802" />
  </g>
  <g
     id="rect80"
     class="terminal">
    <path
       style="color:#000000;fill:#ff0000;-inkscape-stroke:none"
       d="m 177,253 h 34 c 5.54,0 10,4.46 10,10 v 12 c 0,5.54 -4.46,10 -10,10 h -34 c -5.54,0 -10,-4.46 -10,-10 v -12 c 0,-5.54 4.46,-10 10,-10 z"
       id="path794" />
    <path
       style="color:#000000;fill:#320000;-inkscape-stroke:none"
       d="m 177,252.5 c -5.80835,0 -10.5,4.69165 -10.5,10.5 v 12 c 0,5.80835 4.69165,10.5 10.5,10.5 h 34 c 5.80835,0 10.5,-4.69165 10.5,-10.5 v -12 c 0,-5.80835 -4.69165,-10.5 -10.5,-10.5 z m 0,1 h 34 c 5.27164,0 9.5,4.22836 9.5,9.5 v 12 c 0,5.27164 -4.22836,9.5 -9.5,9.5 h -34 c -5.27164,0 -9.5,-4.22836 -9.5,-9.5 v -12 c 0,-5.27164 4.22836,-9.5 9.5,-9.5 z"
       id="path796" />
  </g>
  <g
     aria-label="JOIN"
     id="text82"
     class="terminal"
     style="font-weight:bold;font-size:14px;font-family:HelveticaNeueCyr, Sans-serif;fill:#ffe0e0">
    <path
       d="m 183.972,263.032 v 6.846 q 0,3.36 -3.276,3.36 -1.582,0 -2.464,-0.826 -0.868,-0.826 -0.868,-2.478 v -0.658 h 2.016 v 0.308 q 0,0.378 0,0.574 0.014,0.182 0.07,0.49 0.07,0.294 0.196,0.448 0.126,0.14 0.364,0.266 0.252,0.112 0.616,0.112 0.392,0 0.63,-0.126 0.252,-0.126 0.364,-0.378 0.112,-0.266 0.14,-0.518 0.028,-0.252 0.028,-0.644 v -6.776 z"
       id="path775" />
    <path
       d="m 190.258,262.794 q 2.184,0 3.528,1.456 1.358,1.442 1.358,3.78 0,2.338 -1.358,3.78 -1.344,1.428 -3.542,1.428 -2.212,0 -3.57,-1.428 -1.358,-1.442 -1.358,-3.78 0,-2.366 1.344,-3.794 1.358,-1.442 3.598,-1.442 z m -0.028,1.792 q -1.232,0 -1.974,0.924 -0.728,0.924 -0.728,2.478 0,1.61 0.728,2.52 0.728,0.91 2.002,0.924 1.246,0 1.96,-0.924 0.714,-0.924 0.714,-2.52 0,-1.568 -0.728,-2.478 -0.728,-0.924 -1.974,-0.924 z"
       id="path777" />
    <path
       d="M 198.83999,263.032 V 273 h -2.198 v -9.968 z"
       id="path779" />
    <path
       d="m 200.772,273 v -9.968 h 2.226 l 4.102,6.678 v -6.678 h 2.1 V 273 h -2.184 l -4.13,-6.692 V 273 Z"
       id="path781" />
  </g>
  <a
     xlink:href="#table"
     xlink:title="table"
     id="a90">
    <g
       id="rect84">
      <path
         style="color:#000000;fill:#320000;-inkscape-stroke:none"
         d="m 263,255 h 52 v 32 h -52 z"
         id="path744" />
      <path
         style="color:#000000;fill:#320000;-inkscape-stroke:none"
         d="m 262.5,254.5 v 0.5 32.5 h 53 v -33 z m 1,1 h 51 v 31 h -51 z"
         id="path746" />
    </g>
    <g
       id="rect86"
       class="nonterminal">
      <path
         style="color:#000000;fill:#ff3f3f;-inkscape-stroke:none"
         d="m 261,253 h 52 v 32 h -52 z"
         id="path750" />
      <path
         style="color:#000000;fill:#320000;-inkscape-stroke:none"
         d="m 260.5,252.5 v 0.5 32.5 h 53 v -33 z m 1,1 h 51 v 31 h -51 z"
         id="path752" />
    </g>
    <g
       aria-label="table"
       id="text88"
       class="nonterminal"
       style="font-size:14px;font-family:HelveticaNeueCyr, Sans-serif;fill:#ffe0e0">
      <path
         d="m 274.99,265.776 v 0.98 h -1.442 v 4.214 q 0,0.35 0,0.462 0.014,0.112 0.084,0.308 0.07,0.182 0.238,0.238 0.168,0.056 0.476,0.056 0.266,0 0.644,-0.042 v 1.022 q -0.504,0.056 -0.91,0.056 -0.504,0 -0.84,-0.112 -0.336,-0.112 -0.518,-0.252 -0.168,-0.14 -0.252,-0.49 -0.084,-0.364 -0.098,-0.602 -0.014,-0.252 -0.014,-0.826 0,-0.126 0,-0.196 v -3.836 h -1.218 v -0.98 h 1.218 v -2.142 h 1.19 v 2.142 z"
         id="path754" />
      <path
         d="m 282.70401,272.048 v 0.924 q -0.364,0.14 -0.812,0.14 -1.022,0 -1.05,-1.064 -1.022,1.148 -2.618,1.148 -1.064,0 -1.694,-0.546 -0.616,-0.546 -0.616,-1.498 0,-1.932 2.562,-2.254 1.512,-0.182 1.75,-0.266 0.504,-0.168 0.546,-0.7 0.014,-0.084 0.014,-0.182 0,-1.19 -1.638,-1.19 -0.84,0 -1.274,0.35 -0.434,0.336 -0.518,1.12 h -1.162 q 0.028,-1.162 0.826,-1.806 0.798,-0.644 2.198,-0.644 1.526,0 2.268,0.7 0.238,0.224 0.35,0.588 0.112,0.364 0.126,0.602 0.014,0.224 0.014,0.686 0,0.546 -0.028,1.624 -0.028,1.064 -0.028,1.596 0,0.392 0.098,0.56 0.112,0.154 0.392,0.154 0.112,0 0.294,-0.042 z m -1.918,-2.8 q -0.126,0.098 -0.266,0.168 -0.14,0.07 -0.364,0.112 -0.21,0.042 -0.294,0.07 -0.07,0.014 -0.364,0.056 -0.294,0.028 -0.308,0.028 -0.434,0.056 -0.574,0.084 -0.126,0.014 -0.504,0.112 -0.364,0.098 -0.518,0.224 -0.154,0.126 -0.308,0.378 -0.14,0.238 -0.14,0.574 0,0.56 0.378,0.882 0.392,0.322 1.064,0.322 0.854,0 1.526,-0.504 0.672,-0.504 0.672,-1.19 z"
         id="path756" />
      <path
         d="m 285.00002,263.032 v 3.738 q 0.784,-1.19 2.394,-1.19 1.484,0 2.366,1.036 0.896,1.022 0.896,2.744 0,1.75 -0.91,2.8 -0.91,1.05 -2.422,1.05 -1.722,0 -2.394,-1.26 V 273 h -1.12 v -9.968 z m 2.212,3.556 q -1.148,0 -1.708,0.826 -0.546,0.826 -0.546,2.03 0,1.274 0.602,2.03 0.616,0.742 1.652,0.742 0.994,0 1.596,-0.77 0.616,-0.784 0.616,-2.072 0,-1.274 -0.602,-2.03 -0.602,-0.756 -1.61,-0.756 z"
         id="path758" />
      <path
         d="M 293.38602,263.032 V 273 h -1.204 v -9.968 z"
         id="path760" />
      <path
         d="m 301.40802,270.718 q -0.546,2.52 -3.15,2.52 -1.596,0 -2.506,-0.994 -0.896,-0.994 -0.896,-2.758 0,-1.75 0.924,-2.828 0.938,-1.092 2.436,-1.092 1.666,0 2.464,1.134 0.812,1.12 0.812,2.842 v 0.168 h -5.432 l -0.014,0.084 q 0,1.148 0.602,1.806 0.602,0.658 1.652,0.658 0.784,0 1.232,-0.364 0.462,-0.364 0.714,-1.176 z m -1.148,-1.974 q -0.084,-1.036 -0.63,-1.61 -0.546,-0.588 -1.442,-0.588 -0.868,0 -1.442,0.588 -0.574,0.588 -0.686,1.61 z"
         id="path762" />
    </g>
  </a>
  <a
     xlink:href="#SELECT"
     xlink:title="SELECT"
     id="a98">
    <g
       id="rect92">
      <path
         style="color:#000000;fill:#320000;-inkscape-stroke:none"
         d="m 263,299 h 66 v 32 h -66 z"
         id="path707" />
      <path
         style="color:#000000;fill:#320000;-inkscape-stroke:none"
         d="m 262.5,298.5 v 0.5 32.5 h 67 v -33 z m 1,1 h 65 v 31 h -65 z"
         id="path709" />
    </g>
    <g
       id="rect94"
       class="nonterminal">
      <path
         style="color:#000000;fill:#ff3f3f;-inkscape-stroke:none"
         d="m 261,297 h 66 v 32 h -66 z"
         id="path713" />
      <path
         style="color:#000000;fill:#320000;-inkscape-stroke:none"
         d="m 260.5,296.5 v 0.5 32.5 h 67 v -33 z m 1,1 h 65 v 31 h -65 z"
         id="path715" />
    </g>
    <g
       aria-label="SELECT"
       id="text96"
       class="nonterminal"
       style="font-size:14px;font-family:HelveticaNeueCyr, Sans-serif;fill:#ffe0e0">
      <path
         d="m 279.162,309.958 h -1.274 q -0.21,-2.03 -2.478,-2.03 -1.078,0 -1.666,0.434 -0.588,0.434 -0.588,1.218 0,0.28 0.084,0.49 0.084,0.21 0.28,0.378 0.21,0.154 0.392,0.266 0.182,0.112 0.574,0.224 0.392,0.112 0.63,0.168 0.238,0.042 0.742,0.154 0.616,0.126 1.022,0.238 0.406,0.098 0.966,0.336 0.56,0.238 0.882,0.532 0.336,0.28 0.574,0.756 0.252,0.476 0.252,1.078 0,1.05 -0.588,1.764 -0.588,0.7 -1.428,0.98 -0.84,0.28 -1.862,0.28 -1.876,0 -3.01,-0.882 -1.12,-0.896 -1.12,-2.632 h 1.274 q 0.042,1.274 0.854,1.862 0.812,0.574 2.114,0.574 1.022,0 1.75,-0.42 0.728,-0.434 0.728,-1.4 0,-0.448 -0.196,-0.756 -0.196,-0.322 -0.616,-0.518 -0.42,-0.21 -0.84,-0.336 -0.42,-0.126 -1.106,-0.28 -0.098,-0.014 -0.14,-0.028 -1.54,-0.35 -2.016,-0.56 -1.456,-0.63 -1.456,-2.17 0,-1.428 1.05,-2.128 1.064,-0.714 2.562,-0.714 1.638,0 2.618,0.784 0.98,0.784 1.036,2.338 z"
         id="path717" />
      <path
         d="m 288.08001,307.032 v 1.148 h -5.586 v 3.122 h 5.222 v 1.106 h -5.222 v 3.444 h 5.656 V 317 h -6.972 v -9.968 z"
         id="path719" />
      <path
         d="M 296.35401,315.852 V 317 h -6.608 v -9.968 h 1.316 v 8.82 z"
         id="path721" />
      <path
         d="m 304.41801,307.032 v 1.148 h -5.586 v 3.122 h 5.222 v 1.106 h -5.222 v 3.444 h 5.656 V 317 h -6.972 v -9.968 z"
         id="path723" />
      <path
         d="m 314.51201,313.234 q -0.168,1.89 -1.316,2.954 -1.134,1.05 -2.996,1.05 -2.128,0 -3.374,-1.4 -1.246,-1.414 -1.246,-3.808 0,-2.24 1.246,-3.724 1.26,-1.498 3.472,-1.498 1.582,0 2.786,0.854 1.204,0.854 1.344,2.366 h -1.316 q -0.224,-0.98 -0.98,-1.526 -0.756,-0.56 -1.862,-0.56 -1.666,0 -2.52,1.176 -0.84,1.176 -0.84,2.898 0,1.904 0.896,2.996 0.896,1.092 2.45,1.092 1.274,0 2.03,-0.728 0.756,-0.742 0.91,-2.142 z"
         id="path725" />
      <path
         d="m 323.09401,307.032 v 1.148 h -3.346 V 317 h -1.316 v -8.82 h -3.346 v -1.148 z"
         id="path727" />
    </g>
  </a>
  <g
     id="rect100">
    <path
       style="color:#000000;fill:#320000;-inkscape-stroke:none"
       d="m 399,287 h 18 c 5.54,0 10,4.46 10,10 v 12 c 0,5.54 -4.46,10 -10,10 h -18 c -5.54,0 -10,-4.46 -10,-10 v -12 c 0,-5.54 4.46,-10 10,-10 z"
       id="path701" />
    <path
       style="color:#000000;fill:#320000;-inkscape-stroke:none"
       d="m 399,286.5 c -5.80835,0 -10.5,4.69165 -10.5,10.5 v 12 c 0,5.80835 4.69165,10.5 10.5,10.5 h 18 c 5.80835,0 10.5,-4.69165 10.5,-10.5 v -12 c 0,-5.80835 -4.69165,-10.5 -10.5,-10.5 z m 0,1 h 18 c 5.27164,0 9.5,4.22836 9.5,9.5 v 12 c 0,5.27164 -4.22836,9.5 -9.5,9.5 h -18 c -5.27164,0 -9.5,-4.22836 -9.5,-9.5 v -12 c 0,-5.27164 4.22836,-9.5 9.5,-9.5 z"
       id="path703" />
  </g>
  <g
     id="rect102"
     class="terminal">
    <path
       style="color:#000000;fill:#ff0000;-inkscape-stroke:none"
       d="m 397,285 h 18 c 5.54,0 10,4.46 10,10 v 12 c 0,5.54 -4.46,10 -10,10 h -18 c -5.54,0 -10,-4.46 -10,-10 v -12 c 0,-5.54 4.46,-10 10,-10 z"
       id="path695" />
    <path
       style="color:#000000;fill:#320000;-inkscape-stroke:none"
       d="m 397,284.5 c -5.80835,0 -10.5,4.69165 -10.5,10.5 v 12 c 0,5.80835 4.69165,10.5 10.5,10.5 h 18 c 5.80835,0 10.5,-4.69165 10.5,-10.5 v -12 c 0,-5.80835 -4.69165,-10.5 -10.5,-10.5 z m 0,1 h 18 c 5.27164,0 9.5,4.22836 9.5,9.5 v 12 c 0,5.27164 -4.22836,9.5 -9.5,9.5 h -18 c -5.27164,0 -9.5,-4.22836 -9.5,-9.5 v -12 c 0,-5.27164 4.22836,-9.5 9.5,-9.5 z"
       id="path697" />
  </g>
  <g
     aria-label="AS"
     id="text104"
     class="terminal"
     style="font-weight:bold;font-size:14px;font-family:HelveticaNeueCyr, Sans-serif;fill:#ffe0e0">
    <path
       d="m 402.922,295.018 3.794,9.982 h -2.296 l -0.784,-2.226 h -3.71 L 399.114,305 h -2.24 l 3.794,-9.982 z m 0.182,6.16 -1.316,-3.71 -1.33,3.71 z"
       id="path684" />
    <path
       d="m 414.93399,298 h -2.072 q -0.126,-1.484 -1.89,-1.484 -0.756,0 -1.19,0.308 -0.42,0.294 -0.42,0.826 0,0.182 0.056,0.322 0.056,0.14 0.21,0.266 0.154,0.112 0.308,0.196 0.154,0.07 0.448,0.168 0.308,0.084 0.546,0.154 0.252,0.07 0.7,0.182 0.448,0.112 0.784,0.21 1.47,0.42 2.184,1.05 0.728,0.63 0.728,1.806 0,0.854 -0.35,1.498 -0.35,0.63 -0.952,1.008 -0.588,0.364 -1.302,0.532 -0.7,0.182 -1.498,0.182 -2.03,0 -3.178,-0.924 -1.134,-0.938 -1.148,-2.632 h 2.17 q 0.056,1.876 2.254,1.876 0.854,0 1.344,-0.35 0.504,-0.364 0.504,-0.98 0,-0.518 -0.462,-0.756 -0.448,-0.238 -1.904,-0.658 -0.238,-0.056 -0.364,-0.098 -0.504,-0.14 -0.7,-0.196 -0.196,-0.07 -0.63,-0.224 -0.42,-0.154 -0.616,-0.28 -0.196,-0.126 -0.49,-0.35 -0.28,-0.224 -0.406,-0.462 -0.126,-0.252 -0.238,-0.602 -0.098,-0.364 -0.098,-0.784 0,-1.358 1.05,-2.17 1.05,-0.812 2.786,-0.812 1.68,0 2.744,0.798 1.064,0.784 1.092,2.38 z"
       id="path686" />
  </g>
  <a
     xlink:href="#alias"
     xlink:title="alias"
     id="a112">
    <g
       id="rect106">
      <path
         style="color:#000000;fill:#320000;-inkscape-stroke:none"
         d="m 447,287 h 50 v 32 h -50 z"
         id="path653" />
      <path
         style="color:#000000;fill:#320000;-inkscape-stroke:none"
         d="m 446.5,286.5 v 0.5 32.5 h 51 v -33 z m 1,1 h 49 v 31 h -49 z"
         id="path655" />
    </g>
    <g
       id="rect108"
       class="nonterminal">
      <path
         style="color:#000000;fill:#ff3f3f;-inkscape-stroke:none"
         d="m 445,285 h 50 v 32 h -50 z"
         id="path659" />
      <path
         style="color:#000000;fill:#320000;-inkscape-stroke:none"
         d="m 444.5,284.5 v 0.5 32.5 h 51 v -33 z m 1,1 h 49 v 31 h -49 z"
         id="path661" />
    </g>
    <g
       aria-label="alias"
       id="text110"
       class="nonterminal"
       style="font-size:14px;font-family:HelveticaNeueCyr, Sans-serif;fill:#ffe0e0">
      <path
         d="m 462.294,304.048 v 0.924 q -0.364,0.14 -0.812,0.14 -1.022,0 -1.05,-1.064 -1.022,1.148 -2.618,1.148 -1.064,0 -1.694,-0.546 -0.616,-0.546 -0.616,-1.498 0,-1.932 2.562,-2.254 1.512,-0.182 1.75,-0.266 0.504,-0.168 0.546,-0.7 0.014,-0.084 0.014,-0.182 0,-1.19 -1.638,-1.19 -0.84,0 -1.274,0.35 -0.434,0.336 -0.518,1.12 h -1.162 q 0.028,-1.162 0.826,-1.806 0.798,-0.644 2.198,-0.644 1.526,0 2.268,0.7 0.238,0.224 0.35,0.588 0.112,0.364 0.126,0.602 0.014,0.224 0.014,0.686 0,0.546 -0.028,1.624 -0.028,1.064 -0.028,1.596 0,0.392 0.098,0.56 0.112,0.154 0.392,0.154 0.112,0 0.294,-0.042 z m -1.918,-2.8 q -0.126,0.098 -0.266,0.168 -0.14,0.07 -0.364,0.112 -0.21,0.042 -0.294,0.07 -0.07,0.014 -0.364,0.056 -0.294,0.028 -0.308,0.028 -0.434,0.056 -0.574,0.084 -0.126,0.014 -0.504,0.112 -0.364,0.098 -0.518,0.224 -0.154,0.126 -0.308,0.378 -0.14,0.238 -0.14,0.574 0,0.56 0.378,0.882 0.392,0.322 1.064,0.322 0.854,0 1.526,-0.504 0.672,-0.504 0.672,-1.19 z"
         id="path663" />
      <path
         d="M 464.67401,295.032 V 305 h -1.204 v -9.968 z"
         id="path665" />
      <path
         d="m 467.78201,295.032 v 1.456 h -1.204 v -1.456 z m 0,2.744 V 305 h -1.204 v -7.224 z"
         id="path667" />
      <path
         d="m 476.02801,304.048 v 0.924 q -0.364,0.14 -0.812,0.14 -1.022,0 -1.05,-1.064 -1.022,1.148 -2.618,1.148 -1.064,0 -1.694,-0.546 -0.616,-0.546 -0.616,-1.498 0,-1.932 2.562,-2.254 1.512,-0.182 1.75,-0.266 0.504,-0.168 0.546,-0.7 0.014,-0.084 0.014,-0.182 0,-1.19 -1.638,-1.19 -0.84,0 -1.274,0.35 -0.434,0.336 -0.518,1.12 h -1.162 q 0.028,-1.162 0.826,-1.806 0.798,-0.644 2.198,-0.644 1.526,0 2.268,0.7 0.238,0.224 0.35,0.588 0.112,0.364 0.126,0.602 0.014,0.224 0.014,0.686 0,0.546 -0.028,1.624 -0.028,1.064 -0.028,1.596 0,0.392 0.098,0.56 0.112,0.154 0.392,0.154 0.112,0 0.294,-0.042 z m -1.918,-2.8 q -0.126,0.098 -0.266,0.168 -0.14,0.07 -0.364,0.112 -0.21,0.042 -0.294,0.07 -0.07,0.014 -0.364,0.056 -0.294,0.028 -0.308,0.028 -0.434,0.056 -0.574,0.084 -0.126,0.014 -0.504,0.112 -0.364,0.098 -0.518,0.224 -0.154,0.126 -0.308,0.378 -0.14,0.238 -0.14,0.574 0,0.56 0.378,0.882 0.392,0.322 1.064,0.322 0.854,0 1.526,-0.504 0.672,-0.504 0.672,-1.19 z"
         id="path669" />
      <path
         d="m 482.51002,299.876 h -1.19 q -0.112,-1.316 -1.764,-1.316 -0.686,0 -1.078,0.266 -0.392,0.266 -0.392,0.714 0,0.126 0.028,0.252 0.028,0.112 0.098,0.21 0.084,0.084 0.14,0.154 0.07,0.07 0.21,0.14 0.154,0.056 0.224,0.098 0.084,0.042 0.28,0.098 0.21,0.042 0.294,0.07 0.084,0.014 0.322,0.07 0.252,0.056 0.322,0.07 0.518,0.112 0.77,0.182 0.266,0.07 0.714,0.266 0.462,0.182 0.7,0.392 0.238,0.196 0.42,0.56 0.196,0.35 0.196,0.798 0,1.05 -0.826,1.694 -0.812,0.63 -2.17,0.63 -1.47,0 -2.268,-0.644 -0.784,-0.644 -0.84,-1.862 h 1.176 q 0.098,1.526 1.96,1.526 0.798,0 1.274,-0.322 0.49,-0.336 0.49,-0.882 0,-0.364 -0.252,-0.602 -0.252,-0.238 -0.56,-0.336 -0.308,-0.112 -0.882,-0.252 -0.084,-0.014 -0.126,-0.028 -0.126,-0.028 -0.546,-0.112 -0.406,-0.098 -0.588,-0.154 -0.182,-0.056 -0.532,-0.168 -0.336,-0.126 -0.504,-0.252 -0.168,-0.14 -0.378,-0.336 -0.196,-0.21 -0.28,-0.476 -0.084,-0.28 -0.084,-0.63 0,-0.98 0.742,-1.554 0.756,-0.574 2.016,-0.574 1.274,0 2.072,0.602 0.812,0.602 0.812,1.708 z"
         id="path671" />
    </g>
  </a>
  <g
     id="rect114">
    <path
       style="color:#000000;fill:#320000;-inkscape-stroke:none"
       d="m 547,255 h 20 c 5.54,0 10,4.46 10,10 v 12 c 0,5.54 -4.46,10 -10,10 h -20 c -5.54,0 -10,-4.46 -10,-10 v -12 c 0,-5.54 4.46,-10 10,-10 z"
       id="path647" />
    <path
       style="color:#000000;fill:#320000;-inkscape-stroke:none"
       d="m 547,254.5 c -5.80835,0 -10.5,4.69165 -10.5,10.5 v 12 c 0,5.80835 4.69165,10.5 10.5,10.5 h 20 c 5.80835,0 10.5,-4.69165 10.5,-10.5 v -12 c 0,-5.80835 -4.69165,-10.5 -10.5,-10.5 z m 0,1 h 20 c 5.27164,0 9.5,4.22836 9.5,9.5 v 12 c 0,5.27164 -4.22836,9.5 -9.5,9.5 h -20 c -5.27164,0 -9.5,-4.22836 -9.5,-9.5 v -12 c 0,-5.27164 4.22836,-9.5 9.5,-9.5 z"
       id="path649" />
  </g>
  <g
     id="rect116"
     class="terminal">
    <path
       style="color:#000000;fill:#ff0000;-inkscape-stroke:none"
       d="m 545,253 h 20 c 5.54,0 10,4.46 10,10 v 12 c 0,5.54 -4.46,10 -10,10 h -20 c -5.54,0 -10,-4.46 -10,-10 v -12 c 0,-5.54 4.46,-10 10,-10 z"
       id="path641" />
    <path
       style="color:#000000;fill:#320000;-inkscape-stroke:none"
       d="m 545,252.5 c -5.80835,0 -10.5,4.69165 -10.5,10.5 v 12 c 0,5.80835 4.69165,10.5 10.5,10.5 h 20 c 5.80835,0 10.5,-4.69165 10.5,-10.5 v -12 c 0,-5.80835 -4.69165,-10.5 -10.5,-10.5 z m 0,1 h 20 c 5.27164,0 9.5,4.22836 9.5,9.5 v 12 c 0,5.27164 -4.22836,9.5 -9.5,9.5 h -20 c -5.27164,0 -9.5,-4.22836 -9.5,-9.5 v -12 c 0,-5.27164 4.22836,-9.5 9.5,-9.5 z"
       id="path643" />
  </g>
  <g
     aria-label="ON"
     id="text118"
     class="terminal"
     style="font-weight:bold;font-size:14px;font-family:HelveticaNeueCyr, Sans-serif;fill:#ffe0e0">
    <path
       d="m 550.474,262.794 q 2.184,0 3.528,1.456 1.358,1.442 1.358,3.78 0,2.338 -1.358,3.78 -1.344,1.428 -3.542,1.428 -2.212,0 -3.57,-1.428 -1.358,-1.442 -1.358,-3.78 0,-2.366 1.344,-3.794 1.358,-1.442 3.598,-1.442 z m -0.028,1.792 q -1.232,0 -1.974,0.924 -0.728,0.924 -0.728,2.478 0,1.61 0.728,2.52 0.728,0.91 2.002,0.924 1.246,0 1.96,-0.924 0.714,-0.924 0.714,-2.52 0,-1.568 -0.728,-2.478 -0.728,-0.924 -1.974,-0.924 z"
       id="path630" />
    <path
       d="m 556.858,273 v -9.968 h 2.226 l 4.102,6.678 v -6.678 h 2.1 V 273 h -2.184 l -4.13,-6.692 V 273 Z"
       id="path632" />
  </g>
  <a
     xlink:href="#expression"
     xlink:title="expression"
     id="a126">
    <g
       id="rect120">
      <path
         style="color:#000000;fill:#320000;-inkscape-stroke:none"
         d="m 597,255 h 90 v 32 h -90 z"
         id="path579" />
      <path
         style="color:#000000;fill:#320000;-inkscape-stroke:none"
         d="m 596.5,254.5 v 0.5 32.5 h 91 v -33 z m 1,1 h 89 v 31 h -89 z"
         id="path581" />
    </g>
    <g
       id="rect122"
       class="nonterminal">
      <path
         style="color:#000000;fill:#ff3f3f;-inkscape-stroke:none"
         d="m 595,253 h 90 v 32 h -90 z"
         id="path585" />
      <path
         style="color:#000000;fill:#320000;-inkscape-stroke:none"
         d="m 594.5,252.5 v 0.5 32.5 h 91 v -33 z m 1,1 h 89 v 31 h -89 z"
         id="path587" />
    </g>
    <g
       aria-label="expression"
       id="text124"
       class="nonterminal"
       style="font-size:14px;font-family:HelveticaNeueCyr, Sans-serif;fill:#ffe0e0">
      <path
         d="m 612.07,270.718 q -0.546,2.52 -3.15,2.52 -1.596,0 -2.506,-0.994 -0.896,-0.994 -0.896,-2.758 0,-1.75 0.924,-2.828 0.938,-1.092 2.436,-1.092 1.666,0 2.464,1.134 0.812,1.12 0.812,2.842 v 0.168 h -5.432 l -0.014,0.084 q 0,1.148 0.602,1.806 0.602,0.658 1.652,0.658 0.784,0 1.232,-0.364 0.462,-0.364 0.714,-1.176 z m -1.148,-1.974 q -0.084,-1.036 -0.63,-1.61 -0.546,-0.588 -1.442,-0.588 -0.868,0 -1.442,0.588 -0.574,0.588 -0.686,1.61 z"
         id="path589" />
      <path
         d="m 619.35001,265.776 -2.52,3.332 2.814,3.892 h -1.526 l -2.03,-2.968 -2.002,2.968 h -1.442 l 2.716,-3.808 -2.506,-3.416 h 1.512 l 1.75,2.478 1.792,-2.478 z"
         id="path591" />
      <path
         d="m 621.786,265.776 v 1.022 q 0.784,-1.246 2.436,-1.246 1.512,0 2.394,1.022 0.896,1.022 0.896,2.772 0,1.75 -0.882,2.8 -0.868,1.036 -2.352,1.036 -1.554,0 -2.422,-1.19 v 3.794 h -1.19 v -10.01 z m 2.254,0.77 q -1.036,0 -1.638,0.756 -0.588,0.742 -0.588,2.058 0,1.316 0.602,2.072 0.616,0.742 1.666,0.742 1.022,0 1.61,-0.756 0.588,-0.756 0.588,-2.058 0,-1.316 -0.602,-2.058 -0.588,-0.756 -1.638,-0.756 z"
         id="path593" />
      <path
         d="m 632.73401,265.608 v 1.232 q -0.126,-0.014 -0.308,-0.014 -0.574,0 -0.994,0.182 -0.42,0.168 -0.672,0.448 -0.238,0.28 -0.392,0.7 -0.154,0.42 -0.21,0.84 -0.042,0.42 -0.042,0.952 V 273 h -1.19 v -7.224 h 1.134 v 1.554 q 0.714,-1.722 2.674,-1.722 z"
         id="path595" />
      <path
         d="m 639.55202,270.718 q -0.546,2.52 -3.15,2.52 -1.596,0 -2.506,-0.994 -0.896,-0.994 -0.896,-2.758 0,-1.75 0.924,-2.828 0.938,-1.092 2.436,-1.092 1.666,0 2.464,1.134 0.812,1.12 0.812,2.842 v 0.168 h -5.432 l -0.014,0.084 q 0,1.148 0.602,1.806 0.602,0.658 1.652,0.658 0.784,0 1.232,-0.364 0.462,-0.364 0.714,-1.176 z m -1.148,-1.974 q -0.084,-1.036 -0.63,-1.61 -0.546,-0.588 -1.442,-0.588 -0.868,0 -1.442,0.588 -0.574,0.588 -0.686,1.61 z"
         id="path597" />
      <path
         d="m 646.25803,267.876 h -1.19 q -0.112,-1.316 -1.764,-1.316 -0.686,0 -1.078,0.266 -0.392,0.266 -0.392,0.714 0,0.126 0.028,0.252 0.028,0.112 0.098,0.21 0.084,0.084 0.14,0.154 0.07,0.07 0.21,0.14 0.154,0.056 0.224,0.098 0.084,0.042 0.28,0.098 0.21,0.042 0.294,0.07 0.084,0.014 0.322,0.07 0.252,0.056 0.322,0.07 0.518,0.112 0.77,0.182 0.266,0.07 0.714,0.266 0.462,0.182 0.7,0.392 0.238,0.196 0.42,0.56 0.196,0.35 0.196,0.798 0,1.05 -0.826,1.694 -0.812,0.63 -2.17,0.63 -1.47,0 -2.268,-0.644 -0.784,-0.644 -0.84,-1.862 h 1.176 q 0.098,1.526 1.96,1.526 0.798,0 1.274,-0.322 0.49,-0.336 0.49,-0.882 0,-0.364 -0.252,-0.602 -0.252,-0.238 -0.56,-0.336 -0.308,-0.112 -0.882,-0.252 -0.084,-0.014 -0.126,-0.028 -0.126,-0.028 -0.546,-0.112 -0.406,-0.098 -0.588,-0.154 -0.182,-0.056 -0.532,-0.168 -0.336,-0.126 -0.504,-0.252 -0.168,-0.14 -0.378,-0.336 -0.196,-0.21 -0.28,-0.476 -0.084,-0.28 -0.084,-0.63 0,-0.98 0.742,-1.554 0.756,-0.574 2.016,-0.574 1.274,0 2.072,0.602 0.812,0.602 0.812,1.708 z"
         id="path599" />
      <path
         d="m 653.25803,267.876 h -1.19 q -0.112,-1.316 -1.764,-1.316 -0.686,0 -1.078,0.266 -0.392,0.266 -0.392,0.714 0,0.126 0.028,0.252 0.028,0.112 0.098,0.21 0.084,0.084 0.14,0.154 0.07,0.07 0.21,0.14 0.154,0.056 0.224,0.098 0.084,0.042 0.28,0.098 0.21,0.042 0.294,0.07 0.084,0.014 0.322,0.07 0.252,0.056 0.322,0.07 0.518,0.112 0.77,0.182 0.266,0.07 0.714,0.266 0.462,0.182 0.7,0.392 0.238,0.196 0.42,0.56 0.196,0.35 0.196,0.798 0,1.05 -0.826,1.694 -0.812,0.63 -2.17,0.63 -1.47,0 -2.268,-0.644 -0.784,-0.644 -0.84,-1.862 h 1.176 q 0.098,1.526 1.96,1.526 0.798,0 1.274,-0.322 0.49,-0.336 0.49,-0.882 0,-0.364 -0.252,-0.602 -0.252,-0.238 -0.56,-0.336 -0.308,-0.112 -0.882,-0.252 -0.084,-0.014 -0.126,-0.028 -0.126,-0.028 -0.546,-0.112 -0.406,-0.098 -0.588,-0.154 -0.182,-0.056 -0.532,-0.168 -0.336,-0.126 -0.504,-0.252 -0.168,-0.14 -0.378,-0.336 -0.196,-0.21 -0.28,-0.476 -0.084,-0.28 -0.084,-0.63 0,-0.98 0.742,-1.554 0.756,-0.574 2.016,-0.574 1.274,0 2.072,0.602 0.812,0.602 0.812,1.708 z"
         id="path601" />
      <path
         d="m 656.15603,263.032 v 1.456 h -1.204 v -1.456 z m 0,2.744 V 273 h -1.204 v -7.224 z"
         id="path603" />
      <path
         d="m 658.57803,266.602 q 0.952,-1.036 2.59,-1.036 1.638,0 2.548,0.994 0.91,0.994 0.91,2.786 0,1.834 -0.91,2.856 -0.91,1.022 -2.562,1.022 -1.652,0 -2.59,-1.008 -0.938,-1.008 -0.938,-2.8 0,-1.778 0.952,-2.814 z m 4.214,0.728 q -0.602,-0.77 -1.652,-0.77 -1.05,0 -1.666,0.77 -0.616,0.77 -0.616,2.058 0,1.33 0.602,2.086 0.616,0.742 1.708,0.742 1.05,0 1.638,-0.756 0.602,-0.756 0.602,-2.086 0,-1.288 -0.616,-2.044 z"
         id="path605" />
      <path
         d="m 667.16002,265.776 v 1.12 q 0.896,-1.316 2.464,-1.316 1.274,0 1.834,0.672 0.574,0.658 0.574,1.946 V 273 h -1.19 v -4.256 q 0,-0.532 -0.042,-0.826 -0.028,-0.308 -0.168,-0.644 -0.14,-0.35 -0.476,-0.504 -0.336,-0.154 -0.868,-0.154 -2.058,0 -2.058,2.604 V 273 h -1.19 v -7.224 z"
         id="path607" />
    </g>
  </a>
  <g
     id="rect128">
    <path
       style="color:#000000;fill:#320000;-inkscape-stroke:none"
       d="m 269,385 h 50 c 5.54,0 10,4.46 10,10 v 12 c 0,5.54 -4.46,10 -10,10 h -50 c -5.54,0 -10,-4.46 -10,-10 v -12 c 0,-5.54 4.46,-10 10,-10 z"
       id="path573" />
    <path
       style="color:#000000;fill:#320000;-inkscape-stroke:none"
       d="m 269,384.5 c -5.80835,0 -10.5,4.69165 -10.5,10.5 v 12 c 0,5.80835 4.69165,10.5 10.5,10.5 h 50 c 5.80835,0 10.5,-4.69165 10.5,-10.5 v -12 c 0,-5.80835 -4.69165,-10.5 -10.5,-10.5 z m 0,1 h 50 c 5.27164,0 9.5,4.22836 9.5,9.5 v 12 c 0,5.27164 -4.22836,9.5 -9.5,9.5 h -50 c -5.27164,0 -9.5,-4.22836 -9.5,-9.5 v -12 c 0,-5.27164 4.22836,-9.5 9.5,-9.5 z"
       id="path575" />
  </g>
  <g
     id="rect130"
     class="terminal">
    <path
       style="color:#000000;fill:#ff0000;-inkscape-stroke:none"
       d="m 267,383 h 50 c 5.54,0 10,4.46 10,10 v 12 c 0,5.54 -4.46,10 -10,10 h -50 c -5.54,0 -10,-4.46 -10,-10 v -12 c 0,-5.54 4.46,-10 10,-10 z"
       id="path567" />
    <path
       style="color:#000000;fill:#320000;-inkscape-stroke:none"
       d="m 267,382.5 c -5.80835,0 -10.5,4.69165 -10.5,10.5 v 12 c 0,5.80835 4.69165,10.5 10.5,10.5 h 50 c 5.80835,0 10.5,-4.69165 10.5,-10.5 v -12 c 0,-5.80835 -4.69165,-10.5 -10.5,-10.5 z m 0,1 h 50 c 5.27164,0 9.5,4.22836 9.5,9.5 v 12 c 0,5.27164 -4.22836,9.5 -9.5,9.5 h -50 c -5.27164,0 -9.5,-4.22836 -9.5,-9.5 v -12 c 0,-5.27164 4.22836,-9.5 9.5,-9.5 z"
       id="path569" />
  </g>
  <g
     aria-label="WHERE"
     id="text132"
     class="terminal"
     style="font-weight:bold;font-size:14px;font-family:HelveticaNeueCyr, Sans-serif;fill:#ffe0e0">
    <path
       d="m 267.042,393.032 h 2.198 l 1.596,6.776 1.75,-6.776 h 2.058 l 1.722,6.86 1.652,-6.86 h 2.156 L 277.486,403 h -2.184 l -1.708,-6.804 -1.68,6.804 h -2.226 z"
       id="path544" />
    <path
       d="M 289.624,393.032 V 403 h -2.184 v -4.298 h -4.074 V 403 h -2.184 v -9.968 h 2.184 v 3.752 h 4.074 v -3.752 z"
       id="path546" />
    <path
       d="m 299.03199,393.032 v 1.792 h -5.306 v 2.17 h 4.872 v 1.722 h -4.872 v 2.45 h 5.404 V 403 h -7.574 v -9.968 z"
       id="path548" />
    <path
       d="m 300.712,393.032 h 4.956 q 1.484,0 2.422,0.7 0.938,0.7 0.938,2.128 0,0.868 -0.42,1.526 -0.42,0.644 -1.162,0.924 1.288,0.266 1.47,2.324 0,0.07 0.028,0.434 0.028,0.364 0.056,0.588 0.028,0.21 0.07,0.518 0.042,0.308 0.126,0.518 0.084,0.21 0.196,0.308 h -2.268 q -0.112,-0.224 -0.168,-0.56 -0.056,-0.35 -0.098,-0.882 -0.042,-0.546 -0.042,-0.602 -0.112,-1.05 -0.532,-1.456 -0.406,-0.406 -1.456,-0.406 h -1.946 V 403 h -2.17 z m 2.17,1.722 v 2.758 h 2.072 q 0.91,0 1.414,-0.28 0.518,-0.294 0.518,-1.134 0,-0.784 -0.504,-1.064 -0.49,-0.28 -1.33,-0.28 z"
       id="path550" />
    <path
       d="m 318.212,393.032 v 1.792 h -5.306 v 2.17 h 4.872 v 1.722 h -4.872 v 2.45 h 5.404 V 403 h -7.574 v -9.968 z"
       id="path552" />
  </g>
  <a
     xlink:href="#expression"
     xlink:title="expression"
     id="a140">
    <g
       id="rect134">
      <path
         style="color:#000000;fill:#320000;-inkscape-stroke:none"
         d="m 349,385 h 90 v 32 h -90 z"
         id="path493" />
      <path
         style="color:#000000;fill:#320000;-inkscape-stroke:none"
         d="m 348.5,384.5 v 0.5 32.5 h 91 v -33 z m 1,1 h 89 v 31 h -89 z"
         id="path495" />
    </g>
    <g
       id="rect136"
       class="nonterminal">
      <path
         style="color:#000000;fill:#ff3f3f;-inkscape-stroke:none"
         d="m 347,383 h 90 v 32 h -90 z"
         id="path499" />
      <path
         style="color:#000000;fill:#320000;-inkscape-stroke:none"
         d="m 346.5,382.5 v 0.5 32.5 h 91 v -33 z m 1,1 h 89 v 31 h -89 z"
         id="path501" />
    </g>
    <g
       aria-label="expression"
       id="text138"
       class="nonterminal"
       style="font-size:14px;font-family:HelveticaNeueCyr, Sans-serif;fill:#ffe0e0">
      <path
         d="m 364.07,400.718 q -0.546,2.52 -3.15,2.52 -1.596,0 -2.506,-0.994 -0.896,-0.994 -0.896,-2.758 0,-1.75 0.924,-2.828 0.938,-1.092 2.436,-1.092 1.666,0 2.464,1.134 0.812,1.12 0.812,2.842 v 0.168 h -5.432 l -0.014,0.084 q 0,1.148 0.602,1.806 0.602,0.658 1.652,0.658 0.784,0 1.232,-0.364 0.462,-0.364 0.714,-1.176 z m -1.148,-1.974 q -0.084,-1.036 -0.63,-1.61 -0.546,-0.588 -1.442,-0.588 -0.868,0 -1.442,0.588 -0.574,0.588 -0.686,1.61 z"
         id="path503" />
      <path
         d="m 371.35001,395.776 -2.52,3.332 2.814,3.892 h -1.526 l -2.03,-2.968 -2.002,2.968 h -1.442 l 2.716,-3.808 -2.506,-3.416 h 1.512 l 1.75,2.478 1.792,-2.478 z"
         id="path505" />
      <path
         d="m 373.786,395.776 v 1.022 q 0.784,-1.246 2.436,-1.246 1.512,0 2.394,1.022 0.896,1.022 0.896,2.772 0,1.75 -0.882,2.8 -0.868,1.036 -2.352,1.036 -1.554,0 -2.422,-1.19 v 3.794 h -1.19 v -10.01 z m 2.254,0.77 q -1.036,0 -1.638,0.756 -0.588,0.742 -0.588,2.058 0,1.316 0.602,2.072 0.616,0.742 1.666,0.742 1.022,0 1.61,-0.756 0.588,-0.756 0.588,-2.058 0,-1.316 -0.602,-2.058 -0.588,-0.756 -1.638,-0.756 z"
         id="path507" />
      <path
         d="m 384.73401,395.608 v 1.232 q -0.126,-0.014 -0.308,-0.014 -0.574,0 -0.994,0.182 -0.42,0.168 -0.672,0.448 -0.238,0.28 -0.392,0.7 -0.154,0.42 -0.21,0.84 -0.042,0.42 -0.042,0.952 V 403 h -1.19 v -7.224 h 1.134 v 1.554 q 0.714,-1.722 2.674,-1.722 z"
         id="path509" />
      <path
         d="m 391.55202,400.718 q -0.546,2.52 -3.15,2.52 -1.596,0 -2.506,-0.994 -0.896,-0.994 -0.896,-2.758 0,-1.75 0.924,-2.828 0.938,-1.092 2.436,-1.092 1.666,0 2.464,1.134 0.812,1.12 0.812,2.842 v 0.168 h -5.432 l -0.014,0.084 q 0,1.148 0.602,1.806 0.602,0.658 1.652,0.658 0.784,0 1.232,-0.364 0.462,-0.364 0.714,-1.176 z m -1.148,-1.974 q -0.084,-1.036 -0.63,-1.61 -0.546,-0.588 -1.442,-0.588 -0.868,0 -1.442,0.588 -0.574,0.588 -0.686,1.61 z"
         id="path511" />
      <path
         d="m 398.25803,397.876 h -1.19 q -0.112,-1.316 -1.764,-1.316 -0.686,0 -1.078,0.266 -0.392,0.266 -0.392,0.714 0,0.126 0.028,0.252 0.028,0.112 0.098,0.21 0.084,0.084 0.14,0.154 0.07,0.07 0.21,0.14 0.154,0.056 0.224,0.098 0.084,0.042 0.28,0.098 0.21,0.042 0.294,0.07 0.084,0.014 0.322,0.07 0.252,0.056 0.322,0.07 0.518,0.112 0.77,0.182 0.266,0.07 0.714,0.266 0.462,0.182 0.7,0.392 0.238,0.196 0.42,0.56 0.196,0.35 0.196,0.798 0,1.05 -0.826,1.694 -0.812,0.63 -2.17,0.63 -1.47,0 -2.268,-0.644 -0.784,-0.644 -0.84,-1.862 h 1.176 q 0.098,1.526 1.96,1.526 0.798,0 1.274,-0.322 0.49,-0.336 0.49,-0.882 0,-0.364 -0.252,-0.602 -0.252,-0.238 -0.56,-0.336 -0.308,-0.112 -0.882,-0.252 -0.084,-0.014 -0.126,-0.028 -0.126,-0.028 -0.546,-0.112 -0.406,-0.098 -0.588,-0.154 -0.182,-0.056 -0.532,-0.168 -0.336,-0.126 -0.504,-0.252 -0.168,-0.14 -0.378,-0.336 -0.196,-0.21 -0.28,-0.476 -0.084,-0.28 -0.084,-0.63 0,-0.98 0.742,-1.554 0.756,-0.574 2.016,-0.574 1.274,0 2.072,0.602 0.812,0.602 0.812,1.708 z"
         id="path513" />
      <path
         d="m 405.25803,397.876 h -1.19 q -0.112,-1.316 -1.764,-1.316 -0.686,0 -1.078,0.266 -0.392,0.266 -0.392,0.714 0,0.126 0.028,0.252 0.028,0.112 0.098,0.21 0.084,0.084 0.14,0.154 0.07,0.07 0.21,0.14 0.154,0.056 0.224,0.098 0.084,0.042 0.28,0.098 0.21,0.042 0.294,0.07 0.084,0.014 0.322,0.07 0.252,0.056 0.322,0.07 0.518,0.112 0.77,0.182 0.266,0.07 0.714,0.266 0.462,0.182 0.7,0.392 0.238,0.196 0.42,0.56 0.196,0.35 0.196,0.798 0,1.05 -0.826,1.694 -0.812,0.63 -2.17,0.63 -1.47,0 -2.268,-0.644 -0.784,-0.644 -0.84,-1.862 h 1.176 q 0.098,1.526 1.96,1.526 0.798,0 1.274,-0.322 0.49,-0.336 0.49,-0.882 0,-0.364 -0.252,-0.602 -0.252,-0.238 -0.56,-0.336 -0.308,-0.112 -0.882,-0.252 -0.084,-0.014 -0.126,-0.028 -0.126,-0.028 -0.546,-0.112 -0.406,-0.098 -0.588,-0.154 -0.182,-0.056 -0.532,-0.168 -0.336,-0.126 -0.504,-0.252 -0.168,-0.14 -0.378,-0.336 -0.196,-0.21 -0.28,-0.476 -0.084,-0.28 -0.084,-0.63 0,-0.98 0.742,-1.554 0.756,-0.574 2.016,-0.574 1.274,0 2.072,0.602 0.812,0.602 0.812,1.708 z"
         id="path515" />
      <path
         d="m 408.15603,393.032 v 1.456 h -1.204 v -1.456 z m 0,2.744 V 403 h -1.204 v -7.224 z"
         id="path517" />
      <path
         d="m 410.57803,396.602 q 0.952,-1.036 2.59,-1.036 1.638,0 2.548,0.994 0.91,0.994 0.91,2.786 0,1.834 -0.91,2.856 -0.91,1.022 -2.562,1.022 -1.652,0 -2.59,-1.008 -0.938,-1.008 -0.938,-2.8 0,-1.778 0.952,-2.814 z m 4.214,0.728 q -0.602,-0.77 -1.652,-0.77 -1.05,0 -1.666,0.77 -0.616,0.77 -0.616,2.058 0,1.33 0.602,2.086 0.616,0.742 1.708,0.742 1.05,0 1.638,-0.756 0.602,-0.756 0.602,-2.086 0,-1.288 -0.616,-2.044 z"
         id="path519" />
      <path
         d="m 419.16002,395.776 v 1.12 q 0.896,-1.316 2.464,-1.316 1.274,0 1.834,0.672 0.574,0.658 0.574,1.946 V 403 h -1.19 v -4.256 q 0,-0.532 -0.042,-0.826 -0.028,-0.308 -0.168,-0.644 -0.14,-0.35 -0.476,-0.504 -0.336,-0.154 -0.868,-0.154 -2.058,0 -2.058,2.604 V 403 h -1.19 v -7.224 z"
         id="path521" />
    </g>
  </a>
  <g
     id="rect142">
    <path
       style="color:#000000;fill:#320000;-inkscape-stroke:none"
       d="m 509,385 h 70 c 5.54,0 10,4.46 10,10 v 12 c 0,5.54 -4.46,10 -10,10 h -70 c -5.54,0 -10,-4.46 -10,-10 v -12 c 0,-5.54 4.46,-10 10,-10 z"
       id="path487" />
    <path
       style="color:#000000;fill:#320000;-inkscape-stroke:none"
       d="m 509,384.5 c -5.80835,0 -10.5,4.69165 -10.5,10.5 v 12 c 0,5.80835 4.69165,10.5 10.5,10.5 h 70 c 5.80835,0 10.5,-4.69165 10.5,-10.5 v -12 c 0,-5.80835 -4.69165,-10.5 -10.5,-10.5 z m 0,1 h 70 c 5.27164,0 9.5,4.22836 9.5,9.5 v 12 c 0,5.27164 -4.22836,9.5 -9.5,9.5 h -70 c -5.27164,0 -9.5,-4.22836 -9.5,-9.5 v -12 c 0,-5.27164 4.22836,-9.5 9.5,-9.5 z"
       id="path489" />
  </g>
  <g
     id="rect144"
     class="terminal">
    <path
       style="color:#000000;fill:#ff0000;-inkscape-stroke:none"
       d="m 507,383 h 70 c 5.54,0 10,4.46 10,10 v 12 c 0,5.54 -4.46,10 -10,10 h -70 c -5.54,0 -10,-4.46 -10,-10 v -12 c 0,-5.54 4.46,-10 10,-10 z"
       id="path481" />
    <path
       style="color:#000000;fill:#320000;-inkscape-stroke:none"
       d="m 507,382.5 c -5.80835,0 -10.5,4.69165 -10.5,10.5 v 12 c 0,5.80835 4.69165,10.5 10.5,10.5 h 70 c 5.80835,0 10.5,-4.69165 10.5,-10.5 v -12 c 0,-5.80835 -4.69165,-10.5 -10.5,-10.5 z m 0,1 h 70 c 5.27164,0 9.5,4.22836 9.5,9.5 v 12 c 0,5.27164 -4.22836,9.5 -9.5,9.5 h -70 c -5.27164,0 -9.5,-4.22836 -9.5,-9.5 v -12 c 0,-5.27164 4.22836,-9.5 9.5,-9.5 z"
       id="path483" />
  </g>
  <g
     aria-label="GROUP BY"
     id="text146"
     class="terminal"
     style="font-weight:bold;font-size:14px;font-family:HelveticaNeueCyr, Sans-serif;fill:#ffe0e0">
    <path
       d="M 516.842,397.61 V 403 h -1.386 l -0.21,-1.134 q -1.12,1.372 -2.996,1.372 -2.086,0 -3.388,-1.442 -1.302,-1.442 -1.302,-3.738 0,-2.31 1.372,-3.766 1.372,-1.47 3.528,-1.47 1.708,0 2.884,0.966 1.176,0.952 1.372,2.52 h -2.114 q -0.154,-0.784 -0.728,-1.218 -0.574,-0.434 -1.442,-0.434 -1.246,0 -1.96,0.91 -0.714,0.896 -0.714,2.492 0,1.624 0.714,2.534 0.728,0.896 2.03,0.896 1.022,0 1.68,-0.616 0.658,-0.63 0.7,-1.638 h -2.226 v -1.624 z"
       id="path450" />
    <path
       d="m 518.67601,393.032 h 4.956 q 1.484,0 2.422,0.7 0.938,0.7 0.938,2.128 0,0.868 -0.42,1.526 -0.42,0.644 -1.162,0.924 1.288,0.266 1.47,2.324 0,0.07 0.028,0.434 0.028,0.364 0.056,0.588 0.028,0.21 0.07,0.518 0.042,0.308 0.126,0.518 0.084,0.21 0.196,0.308 h -2.268 q -0.112,-0.224 -0.168,-0.56 -0.056,-0.35 -0.098,-0.882 -0.042,-0.546 -0.042,-0.602 -0.112,-1.05 -0.532,-1.456 -0.406,-0.406 -1.456,-0.406 h -1.946 V 403 h -2.17 z m 2.17,1.722 v 2.758 h 2.072 q 0.91,0 1.414,-0.28 0.518,-0.294 0.518,-1.134 0,-0.784 -0.504,-1.064 -0.49,-0.28 -1.33,-0.28 z"
       id="path452" />
    <path
       d="m 533.20801,392.794 q 2.184,0 3.528,1.456 1.358,1.442 1.358,3.78 0,2.338 -1.358,3.78 -1.344,1.428 -3.542,1.428 -2.212,0 -3.57,-1.428 -1.358,-1.442 -1.358,-3.78 0,-2.366 1.344,-3.794 1.358,-1.442 3.598,-1.442 z m -0.028,1.792 q -1.232,0 -1.974,0.924 -0.728,0.924 -0.728,2.478 0,1.61 0.728,2.52 0.728,0.91 2.002,0.924 1.246,0 1.96,-0.924 0.714,-0.924 0.714,-2.52 0,-1.568 -0.728,-2.478 -0.728,-0.924 -1.974,-0.924 z"
       id="path454" />
    <path
       d="m 548.07601,393.032 v 5.992 q 0,2.142 -1.036,3.164 -1.022,1.008 -3.206,1.008 -2.212,0 -3.262,-1.022 -1.036,-1.036 -1.036,-3.178 v -5.964 h 2.184 v 5.964 q 0,1.218 0.462,1.806 0.462,0.588 1.68,0.588 1.176,0 1.596,-0.588 0.434,-0.588 0.434,-1.806 v -5.964 z"
       id="path456" />
    <path
       d="m 549.98,393.032 h 4.298 q 1.68,0 2.66,0.812 0.994,0.798 0.994,2.394 0,1.568 -0.98,2.38 -0.98,0.798 -2.562,0.798 h -2.24 V 403 h -2.17 z m 2.17,1.792 v 2.87 h 1.946 q 1.708,0 1.708,-1.428 0,-1.442 -1.694,-1.442 z"
       id="path458" />
    <path
       d="m 563.182,393.032 h 4.718 q 1.4,0 2.282,0.63 0.896,0.616 0.896,1.876 0,0.7 -0.364,1.246 -0.364,0.532 -0.994,0.812 1.82,0.518 1.82,2.436 0,1.414 -0.952,2.198 -0.952,0.77 -2.422,0.77 h -4.984 z m 2.128,1.694 v 2.338 h 1.988 q 1.652,0 1.652,-1.162 0,-0.686 -0.448,-0.924 -0.448,-0.252 -1.204,-0.252 z m 0,3.822 v 2.716 h 2.198 q 0.854,0 1.344,-0.28 0.504,-0.28 0.504,-1.078 0,-0.812 -0.532,-1.078 -0.518,-0.28 -1.428,-0.28 z"
       id="path460" />
    <path
       d="m 581.55,393.032 -3.71,6.132 V 403 h -2.156 v -3.878 l -3.724,-6.09 h 2.492 l 2.324,3.99 2.352,-3.99 z"
       id="path462" />
  </g>
  <a
     xlink:href="#groupby"
     xlink:title="groupby"
     id="a154">
    <g
       id="rect148">
      <path
         style="color:#000000;fill:#320000;-inkscape-stroke:none"
         d="m 609,385 h 72 v 32 h -72 z"
         id="path411" />
      <path
         style="color:#000000;fill:#320000;-inkscape-stroke:none"
         d="m 608.5,384.5 v 0.5 32.5 h 73 v -33 z m 1,1 h 71 v 31 h -71 z"
         id="path413" />
    </g>
    <g
       id="rect150"
       class="nonterminal">
      <path
         style="color:#000000;fill:#ff3f3f;-inkscape-stroke:none"
         d="m 607,383 h 72 v 32 h -72 z"
         id="path417" />
      <path
         style="color:#000000;fill:#320000;-inkscape-stroke:none"
         d="m 606.5,382.5 v 0.5 32.5 h 73 v -33 z m 1,1 h 71 v 31 h -71 z"
         id="path419" />
    </g>
    <g
       aria-label="groupby"
       id="text152"
       class="nonterminal"
       style="font-size:14px;font-family:HelveticaNeueCyr, Sans-serif;fill:#ffe0e0">
      <path
         d="m 624.154,395.776 v 6.44 q 0,0.938 -0.098,1.442 -0.098,0.518 -0.364,0.966 -0.798,1.316 -2.856,1.316 -1.218,0 -2.058,-0.504 -0.84,-0.49 -0.98,-1.624 h 1.218 q 0.21,1.204 1.862,1.204 1.106,0 1.596,-0.56 0.504,-0.56 0.532,-1.806 l 0.014,-0.882 q -0.686,1.316 -2.296,1.316 -1.456,0 -2.324,-0.994 -0.854,-0.994 -0.854,-2.674 0,-1.582 0.854,-2.702 0.854,-1.134 2.38,-1.134 0.756,0 1.344,0.322 0.602,0.322 0.938,0.924 v -1.05 z m -3.318,0.84 q -0.966,0 -1.526,0.756 -0.546,0.742 -0.546,2.058 0,1.19 0.574,1.918 0.574,0.714 1.526,0.714 0.994,0 1.554,-0.756 0.574,-0.756 0.574,-2.072 0,-1.232 -0.574,-1.918 -0.56,-0.7 -1.582,-0.7 z"
         id="path421" />
      <path
         d="m 629.69799,395.608 v 1.232 q -0.126,-0.014 -0.308,-0.014 -0.574,0 -0.994,0.182 -0.42,0.168 -0.672,0.448 -0.238,0.28 -0.392,0.7 -0.154,0.42 -0.21,0.84 -0.042,0.42 -0.042,0.952 V 403 h -1.19 v -7.224 h 1.134 v 1.554 q 0.714,-1.722 2.674,-1.722 z"
         id="path423" />
      <path
         d="m 630.916,396.602 q 0.952,-1.036 2.59,-1.036 1.638,0 2.548,0.994 0.91,0.994 0.91,2.786 0,1.834 -0.91,2.856 -0.91,1.022 -2.562,1.022 -1.652,0 -2.59,-1.008 -0.938,-1.008 -0.938,-2.8 0,-1.778 0.952,-2.814 z m 4.214,0.728 q -0.602,-0.77 -1.652,-0.77 -1.05,0 -1.666,0.77 -0.616,0.77 -0.616,2.058 0,1.33 0.602,2.086 0.616,0.742 1.708,0.742 1.05,0 1.638,-0.756 0.602,-0.756 0.602,-2.086 0,-1.288 -0.616,-2.044 z"
         id="path425" />
      <path
         d="M 644.36999,395.776 V 403 h -1.106 v -1.134 q -0.924,1.33 -2.492,1.33 -1.148,0 -1.778,-0.63 -0.63,-0.63 -0.63,-1.82 v -4.97 h 1.19 v 4.648 q 0,0.854 0.322,1.302 0.336,0.434 1.19,0.434 2.114,0 2.114,-2.604 v -3.78 z"
         id="path427" />
      <path
         d="m 647.28199,395.776 v 1.022 q 0.784,-1.246 2.436,-1.246 1.512,0 2.394,1.022 0.896,1.022 0.896,2.772 0,1.75 -0.882,2.8 -0.868,1.036 -2.352,1.036 -1.554,0 -2.422,-1.19 v 3.794 h -1.19 v -10.01 z m 2.254,0.77 q -1.036,0 -1.638,0.756 -0.588,0.742 -0.588,2.058 0,1.316 0.602,2.072 0.616,0.742 1.666,0.742 1.022,0 1.61,-0.756 0.588,-0.756 0.588,-2.058 0,-1.316 -0.602,-2.058 -0.588,-0.756 -1.638,-0.756 z"
         id="path429" />
      <path
         d="m 655.63999,393.032 v 3.738 q 0.784,-1.19 2.394,-1.19 1.484,0 2.366,1.036 0.896,1.022 0.896,2.744 0,1.75 -0.91,2.8 -0.91,1.05 -2.422,1.05 -1.722,0 -2.394,-1.26 V 403 h -1.12 v -9.968 z m 2.212,3.556 q -1.148,0 -1.708,0.826 -0.546,0.826 -0.546,2.03 0,1.274 0.602,2.03 0.616,0.742 1.652,0.742 0.994,0 1.596,-0.77 0.616,-0.784 0.616,-2.072 0,-1.274 -0.602,-2.03 -0.602,-0.756 -1.61,-0.756 z"
         id="path431" />
      <path
         d="m 668.744,395.776 -3.094,8.148 q -0.182,0.49 -0.322,0.756 -0.126,0.28 -0.378,0.602 -0.238,0.336 -0.588,0.476 -0.336,0.154 -0.798,0.154 -0.35,0 -0.882,-0.126 v -1.064 q 0.518,0.154 0.77,0.154 0.588,0 0.84,-0.602 l 0.56,-1.316 -2.87,-7.182 h 1.344 l 2.142,5.754 2.03,-5.754 z"
         id="path433" />
    </g>
  </a>
  <path
     style="color:#000000;fill:#320000;-inkscape-stroke:none"
     d="m 129,16.5 c -3.41666,0 -6.069,0.861968 -7.85352,2.646484 C 119.36197,20.931 118.5,23.583337 118.5,27 v 24 c 0,3.40833 0.76803,6.044122 2.37891,7.833984 0.66974,0.744165 1.55874,1.235144 2.49804,1.666016 H 109 99 v 1 h 10 19 1 10 v -1 h -10 -1 c -2.9074,0 -4.98979,-0.790517 -6.37891,-2.333984 C 120.23197,56.622548 119.5,54.25833 119.5,51 V 27 c 0,-3.249997 0.8047,-5.59767 2.35352,-7.146484 C 123.40233,18.304702 125.75,17.5 129,17.5 h 10 v -1 z m 34,0 v 1 h 10 40 c 3.25,0 5.59767,0.804702 7.14648,2.353516 C 221.6953,21.40233 222.5,23.750003 222.5,27 v 24 c 0,3.249997 -0.8047,5.59767 -2.35352,7.146484 C 218.59767,59.695298 216.25,60.5 213,60.5 h -10 v 1 h 10 20 10 v -1 h -10 -14.88672 c 1.02684,-0.426647 2.00263,-0.908874 2.74024,-1.646484 C 222.63803,57.069 223.5,54.416663 223.5,51 V 27 c 0,-3.416663 -0.86197,-6.069 -2.64648,-7.853516 C 219.069,17.361968 216.41666,16.5 213,16.5 h -40 z m 190,0 c -3.41666,0 -6.069,0.861968 -7.85352,2.646484 C 343.36197,20.931 342.5,23.583337 342.5,27 v 24 c 0,3.40833 0.76803,6.044122 2.37891,7.833984 0.66974,0.744165 1.55874,1.235144 2.49804,1.666016 H 333 313 303 v 1 h 10 c 3.25,0 5.59767,0.804702 7.14648,2.353516 C 321.6953,65.40233 322.5,67.750003 322.5,71 v 24 c 0,3.416663 0.86197,6.069 2.64648,7.85352 C 326.931,104.63803 329.58334,105.5 333,105.5 h 10 v -1 h -10 c -3.25,0 -5.59767,-0.8047 -7.14648,-2.35352 C 324.3047,100.59767 323.5,98.249997 323.5,95 V 71 c 0,-3.416663 -0.86197,-6.069 -2.64648,-7.853516 -0.73761,-0.73761 -1.7134,-1.219837 -2.74024,-1.646484 H 333 h 19 1 10 v -1 h -10 -1 c -2.9074,0 -4.98979,-0.790517 -6.37891,-2.333984 C 344.23197,56.622548 343.5,54.25833 343.5,51 V 27 c 0,-3.249997 0.8047,-5.59767 2.35352,-7.146484 C 347.40233,18.304702 349.75,17.5 353,17.5 h 10 v -1 z m 34,0 v 1 h 10 28 c 3.25,0 5.59767,0.804702 7.14648,2.353516 C 433.6953,21.40233 434.5,23.750003 434.5,27 v 24 c 0,3.249997 -0.8047,5.59767 -2.35352,7.146484 C 430.59767,59.695298 428.25,60.5 425,60.5 h -10 v 1 h 10 20 14.88672 c -1.02684,0.426647 -2.00263,0.908874 -2.74024,1.646484 C 455.36197,64.931 454.5,67.583337 454.5,71 v 24 c 0,3.249997 -0.8047,5.59767 -2.35352,7.14648 C 450.59767,103.6953 448.25,104.5 445,104.5 h -26 -10 v 1 h 10 26 c 3.41666,0 6.069,-0.86197 7.85352,-2.64648 C 454.63803,101.069 455.5,98.416663 455.5,95 V 71 c 0,-3.249997 0.8047,-5.59767 2.35352,-7.146484 C 459.40233,62.304702 461.75,61.5 465,61.5 v -1 h -20 -14.88672 c 1.02684,-0.426647 2.00263,-0.908874 2.74024,-1.646484 C 434.63803,57.069 435.5,54.416663 435.5,51 V 27 c 0,-3.416663 -0.86197,-6.069 -2.64648,-7.853516 C 431.069,17.361968 428.41666,16.5 425,16.5 h -28 z m -370,44 v 1 h 2 10 v -1 H 19 Z m 450,0 v 1 h 2 v -1 z m 4,0 v 1 h 2 v -1 z m 4,0 v 1 h 2 v -1 z m -207,94 v 1 h 2 v -1 z m 4,0 v 1 h 2 v -1 z m 4,0 v 1 h 2 v -1 z m 4,0 v 1 c 3.25,0 5.59767,0.8047 7.14648,2.35352 C 288.6953,159.40233 289.5,161.75 289.5,165 v 12 c 0,3.41666 0.86197,6.069 2.64648,7.85352 C 293.931,186.63803 296.58334,187.5 300,187.5 h 10 v -1 h -10 c -3.25,0 -5.59767,-0.8047 -7.14648,-2.35352 C 291.3047,182.59767 290.5,180.25 290.5,177 v -12 c 0,-3.41666 -0.86197,-6.069 -2.64648,-7.85352 -0.73761,-0.73761 -1.7134,-1.21983 -2.74024,-1.64648 H 300 h 10 118 14.88672 c -1.02684,0.42665 -2.00263,0.90887 -2.74024,1.64648 C 438.36197,158.931 437.5,161.58334 437.5,165 v 12 c 0,3.25 -0.8047,5.59767 -2.35352,7.14648 C 433.59767,185.6953 431.25,186.5 428,186.5 h -10 v 1 h 10 c 3.41666,0 6.069,-0.86197 7.85352,-2.64648 C 437.63803,183.069 438.5,180.41666 438.5,177 v -12 c 0,-3.25 0.8047,-5.59767 2.35352,-7.14648 C 442.40233,156.3047 444.75,155.5 448,155.5 v -1 H 428 310 300 Z m 170,0 v 1 h 2 v -1 z m 4,0 v 1 h 2 v -1 z m 4,0 v 1 h 2 v -1 z m -110,32 v 1 h 10 10 v -1 h -10 z m -347,50 v 1 h 2 v -1 z m 4,0 v 1 h 2 v -1 z m 4,0 v 1 h 2 v -1 z m 4,0 v 1 c 3.249997,0 5.59767,0.8047 7.146484,2.35352 C 21.695298,241.40233 22.5,243.75 22.5,247 v 12 c 0,3.41666 0.861968,6.069 2.646484,7.85352 C 26.931,268.63803 29.583337,269.5 33,269.5 c 3.249997,0 5.59767,0.8047 7.146484,2.35352 C 41.695298,273.40233 42.5,275.75 42.5,279 v 12 c 0,3.41666 0.861968,6.069 2.646484,7.85352 C 46.931,300.63803 49.583337,301.5 53,301.5 h 10 v -1 H 53 c -3.249997,0 -5.59767,-0.8047 -7.146484,-2.35352 C 44.304702,296.59767 43.5,294.25 43.5,291 v -12 c 0,-3.41666 -0.861968,-6.069 -2.646484,-7.85352 -0.737611,-0.73761 -1.713394,-1.21983 -2.740235,-1.64648 H 53 h 10 74 14.88672 c -1.02684,0.42665 -2.00263,0.90887 -2.74024,1.64648 C 147.36197,272.931 146.5,275.58334 146.5,279 v 12 c 0,3.25 -0.8047,5.59767 -2.35352,7.14648 C 142.59767,299.6953 140.25,300.5 137,300.5 h -10 v 1 h 10 c 3.41666,0 6.069,-0.86197 7.85352,-2.64648 C 146.63803,297.069 147.5,294.41666 147.5,291 v -12 c 0,-3.25 0.8047,-5.59767 2.35352,-7.14648 C 151.40233,270.3047 153.75,269.5 157,269.5 h 10 v -1 H 157 137 63 53 33 c -3.249997,0 -5.59767,-0.8047 -7.146484,-2.35352 C 24.304702,264.59767 23.5,262.25 23.5,259 v -12 c 0,-3.41666 -0.861968,-6.069 -2.646484,-7.85352 -0.737611,-0.73761 -1.713394,-1.21983 -2.740235,-1.64648 H 33 43 695 709.88672 c -1.02684,0.42665 -2.00263,0.90887 -2.74024,1.64648 C 705.36197,240.931 704.5,243.58334 704.5,247 v 12 c 0,3.25 -0.8047,5.59767 -2.35352,7.14648 C 700.59767,267.6953 698.25,268.5 695,268.5 h -10 v 1 h 10 c 3.41666,0 6.069,-0.86197 7.85352,-2.64648 C 704.63803,265.069 705.5,262.41666 705.5,259 v -12 c 0,-3.25 0.8047,-5.59767 2.35352,-7.14648 C 709.40233,238.3047 711.75,237.5 715,237.5 v -1 H 695 43 33 Z m 704,0 v 1 h 2 v -1 z m 4,0 v 1 h 2 v -1 z m 4,0 v 1 h 2 v -1 z m -504,32 v 1 h 10 c 3.25,0 5.59767,0.8047 7.14648,2.35352 C 239.6953,273.40233 240.5,275.75 240.5,279 v 24 c 0,3.41666 0.86197,6.069 2.64648,7.85352 C 244.931,312.63803 247.58334,313.5 251,313.5 h 10 v -1 h -10 c -3.25,0 -5.59767,-0.8047 -7.14648,-2.35352 C 242.3047,308.59767 241.5,306.25 241.5,303 v -24 c 0,-3.41666 -0.86197,-6.069 -2.64648,-7.85352 -0.73761,-0.73761 -1.7134,-1.21983 -2.74024,-1.64648 H 251 261 v -1 h -10 -20 z m 92,0 v 1 h 10 14 14.88672 c -1.02684,0.42665 -2.00263,0.90887 -2.74024,1.64648 C 347.36197,272.931 346.5,275.58334 346.5,279 v 24 c 0,3.25 -0.8047,5.59767 -2.35352,7.14648 C 342.59767,311.6953 340.25,312.5 337,312.5 h -10 v 1 h 10 c 3.41666,0 6.069,-0.86197 7.85352,-2.64648 C 346.63803,309.069 347.5,306.41666 347.5,303 v -24 c 0,-3.25 0.8047,-5.59767 2.35352,-7.14648 C 351.40233,270.3047 353.75,269.5 357,269.5 c 3.25,0 5.59767,0.8047 7.14648,2.35352 C 365.6953,273.40233 366.5,275.75 366.5,279 v 12 c 0,3.41666 0.86197,6.069 2.64648,7.85352 C 370.931,300.63803 373.58334,301.5 377,301.5 h 10 v -1 h -10 c -3.25,0 -5.59767,-0.8047 -7.14648,-2.35352 C 368.3047,296.59767 367.5,294.25 367.5,291 v -12 c 0,-3.41666 -0.86197,-6.069 -2.64648,-7.85352 -0.73761,-0.73761 -1.7134,-1.21983 -2.74024,-1.64648 H 377 h 10 118 14.88672 c -1.02684,0.42665 -2.00263,0.90887 -2.74024,1.64648 C 515.36197,272.931 514.5,275.58334 514.5,279 v 12 c 0,3.25 -0.8047,5.59767 -2.35352,7.14648 C 510.59767,299.6953 508.25,300.5 505,300.5 h -10 v 1 h 10 c 3.41666,0 6.069,-0.86197 7.85352,-2.64648 C 514.63803,297.069 515.5,294.41666 515.5,291 v -12 c 0,-3.25 0.8047,-5.59767 2.35352,-7.14648 C 519.40233,270.3047 521.75,269.5 525,269.5 h 10 v -1 H 525 505 387 377 357 337 323 Z m 262,0 v 1 h 10 10 v -1 h -10 z m -150,32 v 1 h 10 10 v -1 h -10 z m -210,66 v 1 h 2 v -1 z m 4,0 v 1 h 2 v -1 z m 4,0 v 1 h 2 v -1 z m 4,0 v 1 c 3.25,0 5.59767,0.8047 7.14648,2.35352 C 235.6953,371.40233 236.5,373.75 236.5,377 v 12 c 0,3.41666 0.86197,6.069 2.64648,7.85352 C 240.931,398.63803 243.58334,399.5 247,399.5 h 10 v -1 h -10 c -3.25,0 -5.59767,-0.8047 -7.14648,-2.35352 C 238.3047,394.59767 237.5,392.25 237.5,389 v -12 c 0,-3.41666 -0.86197,-6.069 -2.64648,-7.85352 -0.73761,-0.73761 -1.7134,-1.21983 -2.74024,-1.64648 H 247 h 10 190 14.88672 c -1.02684,0.42665 -2.00263,0.90887 -2.74024,1.64648 C 457.36197,370.931 456.5,373.58334 456.5,377 v 12 c 0,3.25 -0.8047,5.59767 -2.35352,7.14648 C 452.59767,397.6953 450.25,398.5 447,398.5 h -10 v 1 h 10 c 3.41666,0 6.069,-0.86197 7.85352,-2.64648 C 456.63803,395.069 457.5,392.41666 457.5,389 v -12 c 0,-3.25 0.8047,-5.59767 2.35352,-7.14648 C 461.40233,368.3047 463.75,367.5 467,367.5 c 3.25,0 5.59767,0.8047 7.14648,2.35352 C 475.6953,371.40233 476.5,373.75 476.5,377 v 12 c 0,3.41666 0.86197,6.069 2.64648,7.85352 C 480.931,398.63803 483.58334,399.5 487,399.5 h 10 v -1 h -10 c -3.25,0 -5.59767,-0.8047 -7.14648,-2.35352 C 478.3047,394.59767 477.5,392.25 477.5,389 v -12 c 0,-3.41666 -0.86197,-6.069 -2.64648,-7.85352 -0.73761,-0.73761 -1.7134,-1.21983 -2.74024,-1.64648 H 487 h 10 192 14.88672 c -1.02684,0.42665 -2.00263,0.90887 -2.74024,1.64648 C 699.36197,370.931 698.5,373.58334 698.5,377 v 12 c 0,3.25 -0.8047,5.59767 -2.35352,7.14648 C 694.59767,397.6953 692.25,398.5 689,398.5 h -10 v 1 h 10 c 3.41666,0 6.069,-0.86197 7.85352,-2.64648 C 698.63803,395.069 699.5,392.41666 699.5,389 v -12 c 0,-3.25 0.8047,-5.59767 2.35352,-7.14648 C 703.40233,368.3047 705.75,367.5 709,367.5 h 3 v -1 H 709 689 497 487 467 447 257 247 Z m 100,32 v 1 h 10 10 v -1 h -10 z m 260,0 v 1 h 10 10 v -1 h -10 z"
     id="path156" />
  <g
     id="polygon158">
    <path
       style="color:#000000;fill:#320000;-inkscape-stroke:none"
       d="m 719,367 8,-4 v 8 z"
       id="path401" />
    <path
       style="color:#000000;fill:#320000;-inkscape-stroke:none"
       d="M 727.5,362.19141 717.88281,367 l 0.89453,0.44727 8.72266,4.36132 z m -1,1.61718 v 6.38282 L 720.11719,367 Z"
       id="path403" />
  </g>
  <g
     id="polygon160">
    <path
       style="color:#000000;fill:#320000;-inkscape-stroke:none"
       d="m 719,367 -8,-4 v 8 z"
       id="path395" />
    <path
       style="color:#000000;fill:#320000;-inkscape-stroke:none"
       d="m 710.5,362.19141 v 9.61718 L 720.11719,367 l -0.89453,-0.44727 z m 1,1.61718 L 717.88281,367 711.5,370.19141 Z"
       id="path397" />
  </g>
</svg>
