<svg width="512" height="512" viewBox="0 0 512 512" fill="none" xmlns="http://www.w3.org/2000/svg">
<path d="M490.52 307.873L307.873 490.521C279.233 519.16 232.766 519.16 204.127 490.521L21.4795 307.873C-7.15984 279.233 -7.15984 232.767 21.4795 204.127L204.127 21.4795C232.766 -7.15983 279.233 -7.15983 307.873 21.4795L490.52 204.127C519.16 232.767 519.16 279.233 490.52 307.873Z" fill="#ED453A"/>
<path d="M254.3 147.196L232.35 169.509L253.282 190.788L337.461 276.361L337.687 276.591L398.22 215.056L397.993 214.826L377.401 193.893L313.814 129.253L292.883 107.975L254.3 147.196ZM291.751 151.567L355.338 216.206L338.819 232.999L275.232 168.359L291.751 151.567Z" fill="white"/>
<path d="M174.493 274.75L195.085 253.817L174.153 232.539L153.561 211.605L132.629 190.327L68.25 255.772L68.4765 256.002L124.37 312.821L130.706 319.262L253.693 444.285L275.643 421.972L152.656 296.948L174.493 274.75ZM153.561 253.472L131.837 275.555L111.245 254.622L132.969 232.539L153.561 253.472Z" fill="white"/>
<path d="M417.781 234.954L337.675 316.386L193.981 170.429L274.088 88.997L253.269 67.7188L151.1 171.464L151.44 171.81L315.725 338.815L336.657 360.093L358.607 337.665L438.712 256.232L417.781 234.954Z" fill="white"/>
<path d="M254.456 318.72L233.575 339.947L294.938 402.326L315.819 381.099L254.456 318.72Z" fill="white"/>
<path d="M213.131 276.725L192.25 297.952L214.491 320.562L235.372 299.335L213.131 276.725Z" fill="white"/>
</svg>
