<svg width="252" height="40" viewBox="0 0 252 40" fill="none" xmlns="http://www.w3.org/2000/svg">
<path d="M38.3219 24.0526L24.0525 38.3219C21.8151 40.5594 18.1848 40.5594 15.9474 38.3219L1.67809 24.0526C-0.559363 21.8151 -0.559363 18.1849 1.67809 15.9474L15.9474 1.67809C18.1848 -0.559363 21.8151 -0.559363 24.0525 1.67809L38.3219 15.9474C40.5594 18.1849 40.5594 21.8151 38.3219 24.0526Z" fill="#DD4A4A"/>
<path d="M19.8674 11.4997L18.1525 13.2429L19.7879 14.9053L26.3644 21.5907L26.382 21.6086L31.1111 16.8013L31.0934 16.7833L29.4846 15.1479L24.5169 10.0979L22.8816 8.43555L19.8674 11.4997ZM22.7932 11.8411L27.761 16.8911L26.4704 18.203L21.5027 13.1531L22.7932 11.8411Z" fill="white"/>
<path d="M13.632 21.4649L15.2408 19.8295L13.6055 18.1672L11.9968 16.5318L10.3614 14.8694L5.33179 19.9823L5.34949 20.0002L9.71614 24.4392L10.2112 24.9424L19.8195 34.7099L21.5343 32.9667L11.926 23.1992L13.632 21.4649ZM11.9968 19.8025L10.2996 21.5278L8.69075 19.8924L10.388 18.1672L11.9968 19.8025Z" fill="white"/>
<path d="M32.639 18.3559L26.3807 24.7177L15.1547 13.3149L21.413 6.95295L19.7866 5.29059L11.8046 13.3958L11.8311 13.4227L24.6659 26.4699L26.3012 28.1323L28.016 26.38L34.2743 20.0182L32.639 18.3559Z" fill="white"/>
<path d="M19.8788 24.9L18.2474 26.5583L23.0415 31.4317L24.6728 29.7734L19.8788 24.9Z" fill="white"/>
<path d="M16.6502 21.6191L15.0188 23.2775L16.7564 25.0439L18.3878 23.3855L16.6502 21.6191Z" fill="white"/>
<path d="M57.66 27V13H63.72C64.9733 13 66.0533 13.2067 66.96 13.62C67.8667 14.02 68.5667 14.6 69.06 15.36C69.5533 16.12 69.8 17.0267 69.8 18.08C69.8 19.12 69.5533 20.02 69.06 20.78C68.5667 21.54 67.8667 22.1267 66.96 22.54C66.0533 22.94 64.9733 23.14 63.72 23.14H59.46L60.9 21.68V27H57.66ZM60.9 22.04L59.46 20.5H63.54C64.54 20.5 65.2867 20.2867 65.78 19.86C66.2733 19.4333 66.52 18.84 66.52 18.08C66.52 17.3067 66.2733 16.7067 65.78 16.28C65.2867 15.8533 64.54 15.64 63.54 15.64H59.46L60.9 14.1V22.04ZM73.7131 27V13H76.9531V27H73.7131ZM88.5756 27.24C87.4956 27.24 86.489 27.0667 85.5556 26.72C84.6356 26.36 83.8356 25.8533 83.1556 25.2C82.4756 24.5467 81.9423 23.78 81.5556 22.9C81.1823 22.02 80.9956 21.0533 80.9956 20C80.9956 18.9467 81.1823 17.98 81.5556 17.1C81.9423 16.22 82.4756 15.4533 83.1556 14.8C83.849 14.1467 84.6556 13.6467 85.5756 13.3C86.4956 12.94 87.5023 12.76 88.5956 12.76C89.809 12.76 90.9023 12.9733 91.8756 13.4C92.8623 13.8133 93.689 14.4267 94.3556 15.24L92.2756 17.16C91.7956 16.6133 91.2623 16.2067 90.6756 15.94C90.089 15.66 89.449 15.52 88.7556 15.52C88.1023 15.52 87.5023 15.6267 86.9556 15.84C86.409 16.0533 85.9356 16.36 85.5356 16.76C85.1356 17.16 84.8223 17.6333 84.5956 18.18C84.3823 18.7267 84.2756 19.3333 84.2756 20C84.2756 20.6667 84.3823 21.2733 84.5956 21.82C84.8223 22.3667 85.1356 22.84 85.5356 23.24C85.9356 23.64 86.409 23.9467 86.9556 24.16C87.5023 24.3733 88.1023 24.48 88.7556 24.48C89.449 24.48 90.089 24.3467 90.6756 24.08C91.2623 23.8 91.7956 23.38 92.2756 22.82L94.3556 24.74C93.689 25.5533 92.8623 26.1733 91.8756 26.6C90.9023 27.0267 89.8023 27.24 88.5756 27.24ZM104.651 27.24C103.544 27.24 102.517 27.06 101.571 26.7C100.637 26.34 99.824 25.8333 99.1306 25.18C98.4506 24.5267 97.9173 23.76 97.5306 22.88C97.1573 22 96.9706 21.04 96.9706 20C96.9706 18.96 97.1573 18 97.5306 17.12C97.9173 16.24 98.4573 15.4733 99.1506 14.82C99.844 14.1667 100.657 13.66 101.591 13.3C102.524 12.94 103.537 12.76 104.631 12.76C105.737 12.76 106.751 12.94 107.671 13.3C108.604 13.66 109.411 14.1667 110.091 14.82C110.784 15.4733 111.324 16.24 111.711 17.12C112.097 17.9867 112.291 18.9467 112.291 20C112.291 21.04 112.097 22.0067 111.711 22.9C111.324 23.78 110.784 24.5467 110.091 25.2C109.411 25.84 108.604 26.34 107.671 26.7C106.751 27.06 105.744 27.24 104.651 27.24ZM104.631 24.48C105.257 24.48 105.831 24.3733 106.351 24.16C106.884 23.9467 107.351 23.64 107.751 23.24C108.151 22.84 108.457 22.3667 108.671 21.82C108.897 21.2733 109.011 20.6667 109.011 20C109.011 19.3333 108.897 18.7267 108.671 18.18C108.457 17.6333 108.151 17.16 107.751 16.76C107.364 16.36 106.904 16.0533 106.371 15.84C105.837 15.6267 105.257 15.52 104.631 15.52C104.004 15.52 103.424 15.6267 102.891 15.84C102.371 16.0533 101.911 16.36 101.511 16.76C101.111 17.16 100.797 17.6333 100.571 18.18C100.357 18.7267 100.251 19.3333 100.251 20C100.251 20.6533 100.357 21.26 100.571 21.82C100.797 22.3667 101.104 22.84 101.491 23.24C101.891 23.64 102.357 23.9467 102.891 24.16C103.424 24.3733 104.004 24.48 104.631 24.48ZM116.326 27V13H122.686C124.206 13 125.546 13.2933 126.706 13.88C127.866 14.4533 128.772 15.26 129.426 16.3C130.079 17.34 130.406 18.5733 130.406 20C130.406 21.4133 130.079 22.6467 129.426 23.7C128.772 24.74 127.866 25.5533 126.706 26.14C125.546 26.7133 124.206 27 122.686 27H116.326ZM119.566 24.34H122.526C123.459 24.34 124.266 24.1667 124.946 23.82C125.639 23.46 126.172 22.9533 126.546 22.3C126.932 21.6467 127.126 20.88 127.126 20C127.126 19.1067 126.932 18.34 126.546 17.7C126.172 17.0467 125.639 16.5467 124.946 16.2C124.266 15.84 123.459 15.66 122.526 15.66H119.566V24.34ZM132.414 27L138.654 13H141.854L148.114 27H144.714L139.594 14.64H140.874L135.734 27H132.414ZM135.534 24L136.394 21.54H143.594L144.474 24H135.534ZM153.363 27V15.64H148.883V13H161.083V15.64H156.603V27H153.363ZM161.883 27L168.123 13H171.323L177.583 27H174.183L169.063 14.64H170.343L165.203 27H161.883ZM165.003 24L165.863 21.54H173.063L173.943 24H165.003ZM187.9 27V13H194.26C195.78 13 197.12 13.2933 198.28 13.88C199.44 14.4533 200.347 15.26 201 16.3C201.653 17.34 201.98 18.5733 201.98 20C201.98 21.4133 201.653 22.6467 201 23.7C200.347 24.74 199.44 25.5533 198.28 26.14C197.12 26.7133 195.78 27 194.26 27H187.9ZM191.14 24.34H194.1C195.033 24.34 195.84 24.1667 196.52 23.82C197.213 23.46 197.747 22.9533 198.12 22.3C198.507 21.6467 198.7 20.88 198.7 20C198.7 19.1067 198.507 18.34 198.12 17.7C197.747 17.0467 197.213 16.5467 196.52 16.2C195.84 15.84 195.033 15.66 194.1 15.66H191.14V24.34ZM212.823 27.24C211.717 27.24 210.69 27.06 209.743 26.7C208.81 26.34 207.997 25.8333 207.303 25.18C206.623 24.5267 206.09 23.76 205.703 22.88C205.33 22 205.143 21.04 205.143 20C205.143 18.96 205.33 18 205.703 17.12C206.09 16.24 206.63 15.4733 207.323 14.82C208.017 14.1667 208.83 13.66 209.763 13.3C210.697 12.94 211.71 12.76 212.803 12.76C213.91 12.76 214.923 12.94 215.843 13.3C216.777 13.66 217.583 14.1667 218.263 14.82C218.957 15.4733 219.497 16.24 219.883 17.12C220.27 17.9867 220.463 18.9467 220.463 20C220.463 21.04 220.27 22.0067 219.883 22.9C219.497 23.78 218.957 24.5467 218.263 25.2C217.583 25.84 216.777 26.34 215.843 26.7C214.923 27.06 213.917 27.24 212.823 27.24ZM212.803 24.48C213.43 24.48 214.003 24.3733 214.523 24.16C215.057 23.9467 215.523 23.64 215.923 23.24C216.323 22.84 216.63 22.3667 216.843 21.82C217.07 21.2733 217.183 20.6667 217.183 20C217.183 19.3333 217.07 18.7267 216.843 18.18C216.63 17.6333 216.323 17.16 215.923 16.76C215.537 16.36 215.077 16.0533 214.543 15.84C214.01 15.6267 213.43 15.52 212.803 15.52C212.177 15.52 211.597 15.6267 211.063 15.84C210.543 16.0533 210.083 16.36 209.683 16.76C209.283 17.16 208.97 17.6333 208.743 18.18C208.53 18.7267 208.423 19.3333 208.423 20C208.423 20.6533 208.53 21.26 208.743 21.82C208.97 22.3667 209.277 22.84 209.663 23.24C210.063 23.64 210.53 23.9467 211.063 24.16C211.597 24.3733 212.177 24.48 212.803 24.48ZM231.198 27.24C230.118 27.24 229.112 27.0667 228.178 26.72C227.258 26.36 226.458 25.8533 225.778 25.2C225.098 24.5467 224.565 23.78 224.178 22.9C223.805 22.02 223.618 21.0533 223.618 20C223.618 18.9467 223.805 17.98 224.178 17.1C224.565 16.22 225.098 15.4533 225.778 14.8C226.472 14.1467 227.278 13.6467 228.198 13.3C229.118 12.94 230.125 12.76 231.218 12.76C232.432 12.76 233.525 12.9733 234.498 13.4C235.485 13.8133 236.312 14.4267 236.978 15.24L234.898 17.16C234.418 16.6133 233.885 16.2067 233.298 15.94C232.712 15.66 232.072 15.52 231.378 15.52C230.725 15.52 230.125 15.6267 229.578 15.84C229.032 16.0533 228.558 16.36 228.158 16.76C227.758 17.16 227.445 17.6333 227.218 18.18C227.005 18.7267 226.898 19.3333 226.898 20C226.898 20.6667 227.005 21.2733 227.218 21.82C227.445 22.3667 227.758 22.84 228.158 23.24C228.558 23.64 229.032 23.9467 229.578 24.16C230.125 24.3733 230.725 24.48 231.378 24.48C232.072 24.48 232.712 24.3467 233.298 24.08C233.885 23.8 234.418 23.38 234.898 22.82L236.978 24.74C236.312 25.5533 235.485 26.1733 234.498 26.6C233.525 27.0267 232.425 27.24 231.198 27.24ZM245.288 27.24C244.168 27.24 243.095 27.0933 242.068 26.8C241.041 26.4933 240.215 26.1 239.588 25.62L240.688 23.18C241.288 23.6067 241.995 23.96 242.808 24.24C243.635 24.5067 244.468 24.64 245.308 24.64C245.948 24.64 246.461 24.58 246.848 24.46C247.248 24.3267 247.541 24.1467 247.728 23.92C247.915 23.6933 248.008 23.4333 248.008 23.14C248.008 22.7667 247.861 22.4733 247.568 22.26C247.275 22.0333 246.888 21.8533 246.408 21.72C245.928 21.5733 245.395 21.44 244.808 21.32C244.235 21.1867 243.655 21.0267 243.068 20.84C242.495 20.6533 241.968 20.4133 241.488 20.12C241.008 19.8267 240.615 19.44 240.308 18.96C240.015 18.48 239.868 17.8667 239.868 17.12C239.868 16.32 240.081 15.5933 240.508 14.94C240.948 14.2733 241.601 13.7467 242.468 13.36C243.348 12.96 244.448 12.76 245.768 12.76C246.648 12.76 247.515 12.8667 248.368 13.08C249.221 13.28 249.975 13.5867 250.628 14L249.628 16.46C248.975 16.0867 248.321 15.8133 247.668 15.64C247.015 15.4533 246.375 15.36 245.748 15.36C245.121 15.36 244.608 15.4333 244.208 15.58C243.808 15.7267 243.521 15.92 243.348 16.16C243.175 16.3867 243.088 16.6533 243.088 16.96C243.088 17.32 243.235 17.6133 243.528 17.84C243.821 18.0533 244.208 18.2267 244.688 18.36C245.168 18.4933 245.695 18.6267 246.268 18.76C246.855 18.8933 247.435 19.0467 248.008 19.22C248.595 19.3933 249.128 19.6267 249.608 19.92C250.088 20.2133 250.475 20.6 250.768 21.08C251.075 21.56 251.228 22.1667 251.228 22.9C251.228 23.6867 251.008 24.4067 250.568 25.06C250.128 25.7133 249.468 26.24 248.588 26.64C247.721 27.04 246.621 27.24 245.288 27.24Z" fill="#1F1F1F"/>
</svg>
