<svg width="178" height="40" viewBox="0 0 178 40" fill="none" xmlns="http://www.w3.org/2000/svg">
<path d="M38.3219 24.0526L24.0525 38.3219C21.8151 40.5594 18.1848 40.5594 15.9474 38.3219L1.67809 24.0526C-0.559362 21.8151 -0.559362 18.1849 1.67809 15.9474L15.9474 1.67809C18.1848 -0.559362 21.8151 -0.559362 24.0525 1.67809L38.3219 15.9474C40.5594 18.1849 40.5594 21.8151 38.3219 24.0526Z" fill="#ED453A"/>
<path d="M19.8672 11.4997L18.1523 13.2429L19.7877 14.9053L26.3642 21.5907L26.3818 21.6086L31.1109 16.8013L31.0932 16.7833L29.4844 15.1479L24.5167 10.0979L22.8814 8.43555L19.8672 11.4997ZM22.793 11.8411L27.7608 16.8911L26.4702 18.203L21.5025 13.1531L22.793 11.8411Z" fill="white"/>
<path d="M13.6322 21.4647L15.241 19.8293L13.6057 18.1669L11.997 16.5315L10.3616 14.8691L5.33203 19.982L5.34973 20L9.71639 24.4389L10.2114 24.9421L19.8198 34.7096L21.5346 32.9664L11.9262 23.1989L13.6322 21.4647ZM11.997 19.8023L10.2998 21.5276L8.69099 19.8922L10.3882 18.1669L11.997 19.8023Z" fill="white"/>
<path d="M32.6391 18.3558L26.3808 24.7177L15.1548 13.3148L21.4131 6.95289L19.7867 5.29053L11.8047 13.3957L11.8312 13.4226L24.666 26.4699L26.3013 28.1323L28.0161 26.38L34.2744 20.0182L32.6391 18.3558Z" fill="white"/>
<path d="M19.8794 24.9003L18.248 26.5586L23.0421 31.432L24.6734 29.7736L19.8794 24.9003Z" fill="white"/>
<path d="M16.6509 21.619L15.0195 23.2773L16.7571 25.0437L18.3885 23.3854L16.6509 21.619Z" fill="white"/>
<path d="M63.5963 13.5807C64.5211 14.0053 65.2371 14.6118 65.7343 15.3902C66.2315 16.1787 66.4901 17.0986 66.4901 18.1601C66.4901 19.2215 66.2414 20.1414 65.7343 20.9198C65.2371 21.6982 64.5211 22.2946 63.5963 22.7192C62.6715 23.1438 61.5776 23.3561 60.3246 23.3561H57.9181V27.0357H54V12.9438H60.3345C61.5875 12.9438 62.6715 13.1561 63.5963 13.5807ZM61.9157 19.6865C62.3234 19.3327 62.5322 18.8273 62.5322 18.1702C62.5322 17.5131 62.3234 16.9975 61.9157 16.6437C61.508 16.2798 60.9014 16.0978 60.0959 16.0978H57.9181V20.2223H60.0959C60.9014 20.2223 61.508 20.0403 61.9157 19.6865Z" fill="#2B2D2C"/>
<path d="M70.3828 12.9438H74.3008V27.0357H70.3828V12.9438Z" fill="#2B2D2C"/>
<path d="M82.0707 26.3888C80.9172 25.762 80.0123 24.8926 79.346 23.7806C78.6897 22.6686 78.3516 21.405 78.3516 19.9999C78.3516 18.5947 78.6797 17.3311 79.346 16.2192C80.0023 15.1072 80.9172 14.2378 82.0707 13.611C83.2243 12.9843 84.527 12.6709 85.9788 12.6709C87.2418 12.6709 88.3854 12.9034 89.4096 13.3583C90.4239 13.8132 91.2692 14.4703 91.9454 15.3296L89.4494 17.6243C88.5545 16.5224 87.4605 15.9765 86.1777 15.9765C85.422 15.9765 84.7557 16.1484 84.169 16.482C83.5823 16.8156 83.1249 17.2907 82.8067 17.8972C82.4785 18.5037 82.3193 19.2114 82.3193 19.9999C82.3193 20.7884 82.4785 21.496 82.8067 22.1025C83.1348 22.7091 83.5823 23.1842 84.169 23.5178C84.7557 23.8514 85.422 24.0233 86.1777 24.0233C87.4605 24.0233 88.5445 23.4774 89.4494 22.3755L91.9454 24.6702C91.2692 25.5295 90.4239 26.1866 89.4096 26.6415C88.3953 27.0964 87.2517 27.3289 85.9788 27.3289C84.527 27.3289 83.2243 27.0155 82.0707 26.3888Z" fill="#2B2D2C"/>
<path d="M98.4152 26.3786C97.2417 25.7519 96.3269 24.8724 95.6606 23.7604C94.9944 22.6484 94.6562 21.3949 94.6562 19.9999C94.6562 18.6049 94.9944 17.3513 95.6606 16.2394C96.3269 15.1274 97.2417 14.2479 98.4152 13.6211C99.5886 12.9944 100.901 12.6709 102.363 12.6709C103.825 12.6709 105.147 12.9843 106.311 13.6211C107.484 14.2479 108.399 15.1274 109.066 16.2394C109.732 17.3513 110.07 18.6049 110.07 19.9999C110.07 21.3949 109.732 22.6484 109.066 23.7604C108.399 24.8724 107.484 25.7519 106.311 26.3786C105.138 27.0054 103.825 27.3289 102.363 27.3289C100.901 27.3289 99.5886 27.0054 98.4152 26.3786ZM104.272 23.5178C104.839 23.1842 105.287 22.7091 105.615 22.1025C105.943 21.496 106.112 20.7884 106.112 19.9999C106.112 19.2114 105.943 18.5037 105.615 17.8972C105.287 17.2907 104.839 16.8156 104.272 16.482C103.706 16.1484 103.069 15.9765 102.373 15.9765C101.677 15.9765 101.04 16.1484 100.474 16.482C99.9068 16.8156 99.4593 17.2907 99.1312 17.8972C98.803 18.5037 98.634 19.2114 98.634 19.9999C98.634 20.7884 98.803 21.496 99.1312 22.1025C99.4593 22.7091 99.9068 23.1842 100.474 23.5178C101.04 23.8514 101.677 24.0233 102.373 24.0233C103.069 24.0233 103.696 23.8514 104.272 23.5178Z" fill="#2B2D2C"/>
<path d="M114.102 12.9438H120.655C122.176 12.9438 123.519 13.237 124.692 13.8132C125.866 14.3894 126.781 15.2083 127.427 16.2697C128.073 17.3311 128.401 18.5745 128.401 19.9898C128.401 21.4152 128.073 22.6585 127.427 23.7099C126.781 24.7713 125.866 25.5902 124.692 26.1664C123.519 26.7426 122.166 27.0357 120.655 27.0357H114.102V12.9438ZM120.506 23.8615C121.699 23.8615 122.644 23.5178 123.37 22.8304C124.086 22.143 124.454 21.2029 124.454 19.9898C124.454 18.7767 124.096 17.8366 123.37 17.1492C122.654 16.4618 121.699 16.1181 120.506 16.1181H118.03V23.8514H120.506V23.8615Z" fill="#2B2D2C"/>
<path d="M141.537 24.3065H135.67L134.576 27.046H130.578L136.694 12.9541H140.552L146.688 27.046H142.611L141.537 24.3065ZM140.393 21.3648L138.613 16.8561L136.833 21.3648H140.393Z" fill="#2B2D2C"/>
<path d="M152.061 16.108H147.805V12.9438H160.225V16.108H155.989V27.0458H152.071V16.108H152.061Z" fill="#2B2D2C"/>
<path d="M172.255 24.3065H166.388L165.294 27.046H161.297L167.413 12.9541H171.271L177.407 27.046H173.329L172.255 24.3065ZM171.112 21.3648L169.332 16.8561L167.552 21.3648H171.112Z" fill="#2B2D2C"/>
</svg>
